<?xml version="1.0" encoding="iso-8859-1"?>
<!-- Generator: Adobe Illustrator 19.0.0, SVG Export Plug-In . SVG Version: 6.00 Build 0)  -->
<svg version="1.1" id="Layer_1" xmlns="http://www.w3.org/2000/svg" xmlns:xlink="http://www.w3.org/1999/xlink" x="0px" y="0px"
	 viewBox="0 0 30 30" style="enable-background:new 0 0 30 30;" xml:space="preserve">
<g>
	<g>
		<path d="M16.105,0.156c1.71,0.579,3.371,1.526,4.547,2.701c1.147,1.147,1.866,2.61,2.076,4.193
			c0.042,0.319,0.063,0.644,0.063,0.971c0,1.951-0.76,3.785-2.14,5.165c-1.158,1.158-2.68,1.737-4.202,1.737
			c-1.521,0-3.043-0.579-4.202-1.737c-0.946-0.946-1.419-2.189-1.419-3.433s0.473-2.486,1.419-3.432
			c1.553-1.555,4.081-1.553,5.634,0c0.641,0.641,0.961,1.482,0.961,2.324c0,0.842-0.32,1.684-0.961,2.324
			c-1.063,1.063-2.795,1.064-3.86,0c-0.445-0.445-0.667-1.03-0.667-1.615s0.222-1.169,0.667-1.615c0.195-0.195,0.512-0.195,0.707,0
			c0.098,0.098,0.146,0.226,0.146,0.354s-0.049,0.256-0.146,0.354c-0.25,0.25-0.375,0.579-0.375,0.908
			c0,0.329,0.125,0.658,0.375,0.908c0.675,0.675,1.773,0.673,2.446,0c0.445-0.446,0.668-1.031,0.668-1.617
			c0-0.585-0.223-1.171-0.668-1.617c-1.164-1.164-3.056-1.163-4.22,0c-0.751,0.751-1.127,1.738-1.127,2.725s0.376,1.974,1.127,2.726
			c1.929,1.927,5.063,1.926,6.99,0c1.19-1.19,1.847-2.773,1.847-4.458c0-1.684-0.656-3.267-1.847-4.457
			c-1.869-1.868-5.217-3.185-7.623-3.006c-0.051,0.004-0.099-0.007-0.146-0.017C8.356,1.756,5.75,5.271,5.75,9.344
			c0,4.932,3.882,8.963,8.75,9.225v10.775c0,0.276,0.224,0.5,0.5,0.5s0.5-0.224,0.5-0.5V18.568c4.869-0.262,8.751-4.293,8.751-9.225
			C24.25,4.622,20.669,0.689,16.105,0.156z"/>
	</g>
</g>
</svg>
