<?xml version="1.0" encoding="iso-8859-1"?>
<!-- Generator: Adobe Illustrator 19.0.0, SVG Export Plug-In . SVG Version: 6.00 Build 0)  -->
<svg version="1.1" id="Layer_1" xmlns="http://www.w3.org/2000/svg" xmlns:xlink="http://www.w3.org/1999/xlink" x="0px" y="0px"
	 viewBox="0 0 30 30" style="enable-background:new 0 0 30 30;" xml:space="preserve">
<g>
	<g>
		<path d="M21.001,16.538V7.462c0-1.633-1.346-2.962-3-2.962h-15c-1.654,0-3,1.329-3,2.962v9.076c0,1.367,0.943,2.521,2.22,2.86
			c-0.403,0.311-0.778,0.461-0.784,0.463c-0.078,0.03-0.146,0.08-0.199,0.143c-0.153,0.166-0.237,0.376-0.237,0.595
			c0,0.496,0.419,0.9,0.935,0.9c0.045,0,4.573-0.12,6.87-2h9.195C19.655,19.5,21.001,18.171,21.001,16.538z M27.001,8.5h-4.5
			c-0.276,0-0.5,0.224-0.5,0.5v7.538c0,2.185-1.794,3.962-4,3.962H9.548c-0.149,0-0.291,0.066-0.386,0.182
			c-0.095,0.115-0.133,0.267-0.105,0.413C9.326,22.489,10.564,23.5,12,23.5h9.195c2.297,1.88,6.825,2,6.87,2
			C28.58,25.5,29,25.096,29,24.6c0-0.216-0.081-0.422-0.229-0.586c-0.054-0.067-0.125-0.12-0.208-0.152
			c-0.006-0.002-0.38-0.152-0.784-0.463c1.277-0.34,2.22-1.494,2.22-2.86v-9.076C30.001,9.829,28.655,8.5,27.001,8.5z"/>
	</g>
</g>
</svg>
