<?xml version="1.0" encoding="iso-8859-1"?>
<!-- Generator: Adobe Illustrator 19.2.1, SVG Export Plug-In . SVG Version: 6.00 Build 0)  -->
<svg version="1.1" xmlns="http://www.w3.org/2000/svg" xmlns:xlink="http://www.w3.org/1999/xlink" x="0px" y="0px"
	 viewBox="0 0 30 30" style="enable-background:new 0 0 30 30;" xml:space="preserve">
<g id="Restaurant_sign_1">
</g>
<g id="Restaurant_Sign_2">
</g>
<g id="Restaurant_Sign_3">
</g>
<g id="Hot_Drink_1">
</g>
<g id="Hot_Drink_2">
</g>
<g id="Cocktail">
	<path d="M26.314,3.438C26.745,3.173,27,2.863,27,2.5c0-0.004-0.002-0.008-0.002-0.012c0-0.012-0.004-0.023-0.005-0.035
		C26.847,0.07,15.771,0,14.5,0C13.229,0,2.156,0.07,2.007,2.452C2.006,2.465,2.002,2.476,2.002,2.488C2.002,2.492,2,2.496,2,2.5
		c0,0.363,0.255,0.672,0.685,0.938L14,15.7v9.465l-6.19,2.54c-0.188,0.077-0.31,0.26-0.31,0.463c0,1.745,5.831,1.833,7,1.833
		s7-0.088,7-1.833c0-0.203-0.122-0.386-0.311-0.463L15,25.164v-9.473L26.314,3.438z M9.497,9.021C9.637,8.665,11.478,8,14.5,8
		c2.963,0,4.791,0.639,4.993,1c-0.202,0.361-2.03,1-4.993,1C11.478,10,9.637,9.335,9.497,9.021z M25.882,2.433l-0.267,0.289
		C24.441,3.267,20.763,4,14.5,4S4.559,3.267,3.385,2.721L3.118,2.433C3.866,1.884,7.618,1,14.5,1
		C21.382,1,25.134,1.885,25.882,2.433z M14.5,5c0.872,0,6.364-0.033,9.772-0.824L20.325,8.45C19.56,7.321,16.444,7,14.5,7
		c-1.945,0-5.064,0.321-5.827,1.453L4.726,4.175C8.134,4.967,13.628,5,14.5,5z"/>
</g>
<g id="Shot_Glasses">
</g>
<g id="Chilled_Champagne">
</g>
<g id="Wine">
</g>
<g id="Wine_List">
</g>
<g id="Menu">
</g>
<g id="Menu_2">
</g>
<g id="Salver">
</g>
<g id="Soup">
</g>
<g id="Sushi">
</g>
<g id="Pizza">
</g>
<g id="Pizza_Slice">
</g>
<g id="Fish">
</g>
<g id="Sausage">
</g>
<g id="Course">
</g>
<g id="Dessert">
</g>
<g id="Cutlery">
</g>
<g id="Napkin">
</g>
<g id="Table">
</g>
<g id="Spices">
</g>
<g id="Hot_Sauce">
</g>
<g id="Reserved_1">
</g>
<g id="Reserved_2">
</g>
<g id="Open">
</g>
<g id="Food_Photo">
</g>
<g id="Chef">
</g>
<g id="Bill">
</g>
<g id="Bill_2">
</g>
<g id="Paying_1">
</g>
<g id="Paying_2">
</g>
<g id="Restaurant_Place">
</g>
</svg>
