<?xml version="1.0" encoding="iso-8859-1"?>
<!-- Generator: Adobe Illustrator 19.2.1, SVG Export Plug-In . SVG Version: 6.00 Build 0)  -->
<svg version="1.1" xmlns="http://www.w3.org/2000/svg" xmlns:xlink="http://www.w3.org/1999/xlink" x="0px" y="0px"
	 viewBox="0 0 30 30" style="enable-background:new 0 0 30 30;" xml:space="preserve">
<g id="Restaurant_sign_1">
</g>
<g id="Restaurant_Sign_2">
</g>
<g id="Restaurant_Sign_3">
</g>
<g id="Hot_Drink_1">
</g>
<g id="Hot_Drink_2">
</g>
<g id="Cocktail">
</g>
<g id="Shot_Glasses">
</g>
<g id="Chilled_Champagne">
</g>
<g id="Wine">
</g>
<g id="Wine_List">
</g>
<g id="Menu">
</g>
<g id="Menu_2">
</g>
<g id="Salver">
</g>
<g id="Soup">
</g>
<g id="Sushi">
</g>
<g id="Pizza">
</g>
<g id="Pizza_Slice">
</g>
<g id="Fish">
</g>
<g id="Sausage">
</g>
<g id="Course">
	<g>
		<path d="M14.221,23.943c-0.149-0.171-0.165-0.42-0.039-0.608c0.126-0.188,0.363-0.268,0.578-0.193c0.551,0.184,1-0.215,1-0.707
			c0-0.279-0.164-0.536-0.426-0.669c-0.127-0.064-0.221-0.18-0.257-0.317c-0.163-0.609-0.713-1.035-1.338-1.035
			c0.008,0.007-0.036,0.017-0.082,0.021c-0.227,0.02-0.442-0.117-0.517-0.335c-0.198-0.575-0.706-0.946-1.292-0.946
			c-0.647,0-1.218,0.459-1.356,1.093c-0.035,0.16-0.147,0.293-0.299,0.355s-0.325,0.046-0.463-0.044
			c-0.149-0.098-0.278-0.144-0.403-0.144c-0.419,0-0.761,0.341-0.761,0.761c0,0.237,0.126,0.46,0.346,0.61
			c0.128,0.088,0.209,0.231,0.217,0.387s-0.057,0.306-0.175,0.406c-0.25,0.215-0.389,0.5-0.389,0.804
			c0,0.593,0.482,1.075,1.076,1.075c0.241,0,0.377,0.133,0.649,0.397c0.266,0.259,0.889,0.864,1.243,0.864
			c0.215,0,0.43-0.082,0.639-0.244c0.09-0.069,0.199-0.104,0.307-0.104s0.216,0.035,0.306,0.104c0.786,0.61,1.716-0.022,1.716-0.832
			C14.5,24.328,14.348,24.089,14.221,23.943z"/>
		<path d="M15.908,15.633c0.785,0,1.523,0.238,2.28,0.673c0.238-0.33,0.65-0.601,1.299-0.601c0.354,0,0.467-0.048,0.508-0.119
			c-0.705-0.98-1.08-1.883-1.08-2.895c0-0.074-0.17-7.409-6.245-7.409c-2.163,0-4.104,2.788-4.104,4.105
			C8.565,15.463,15.834,15.633,15.908,15.633z"/>
		<path d="M19.915,12.691c0,1.583,1.325,3.018,3.661,5.359c0.25-0.833,0.38-1.687,0.38-2.551c0-3.76-2.335-7.047-5.739-8.352
			C19.523,9.05,19.915,11.42,19.915,12.691z"/>
		<path d="M15,0.5c-8.271,0-15,6.729-15,15c0,8.271,6.729,15,15,15c8.271,0,15-6.729,15-15C30,7.229,23.271,0.5,15,0.5z
			 M25.421,21.678c-0.101,0.64-0.491,1.257-1.622,1.257c-0.49,0-1.196-0.192-1.514-0.672c-1.804,1.955-4.271,3.084-6.945,3.174
			c-0.313,0.751-1.053,1.281-1.917,1.281c-0.329,0-0.645-0.084-0.946-0.251c-0.3,0.167-0.617,0.251-0.945,0.251
			c-0.76,0-1.499-0.719-1.94-1.147c-0.047-0.046-0.089-0.088-0.125-0.121c-1.064-0.088-1.903-0.982-1.903-2.068
			c0-0.353,0.109-0.683,0.281-0.984C6.042,20.53,5.043,18.102,5.043,15.5c0-2.475,0.923-4.839,2.594-6.679
			c0.387-1.793,2.428-4.538,5.033-4.538c1.851,0,3.252,0.59,4.303,1.471c4.635,0.933,7.983,4.999,7.983,9.746
			c0,1.112-0.198,2.208-0.568,3.268c0.063,0.036,0.112,0.058,0.14,0.058c0.68,0,1.69,0.348,1.69,1.307
			C26.218,20.974,25.856,21.475,25.421,21.678z"/>
		<path d="M21.526,20.486c-2.396-2.397-3.971-3.854-5.619-3.854c-2.177,0-7.611-1.146-8.275-6.195
			c-1.027,1.486-1.589,3.24-1.589,5.063c0,1.867,0.568,3.638,1.622,5.132c0.281-0.828,1.162-1.402,2.052-1.168
			c0.4-0.785,1.221-1.312,2.13-1.312c0.877,0,1.675,0.497,2.085,1.269c0.925,0.076,1.727,0.689,2.046,1.565
			c0.487,0.325,0.782,0.863,0.782,1.448c0,0.82-0.564,1.512-1.325,1.706c0.025,0.094,0.027,0.192,0.037,0.288
			c2.562-0.132,4.902-1.334,6.516-3.362C21.906,20.91,21.776,20.735,21.526,20.486z"/>
		<path d="M24.527,19.826c-0.495,0-0.911-0.321-1.505-0.914c-0.958-0.958-1.76-1.776-2.397-2.528
			c-0.234,0.19-0.588,0.321-1.138,0.321c-0.25,0-0.386,0.067-0.465,0.154c0.961,0.709,1.987,1.695,3.211,2.92
			c0.757,0.756,0.885,1.202,0.885,1.918c0,0.074,0.342,0.237,0.681,0.237c0.428,0,0.651-0.029,0.651-0.651
			c0-0.276,0.224-0.5,0.5-0.5c0.129,0,0.268-0.249,0.268-0.65C25.218,19.917,24.724,19.826,24.527,19.826z"/>
	</g>
</g>
<g id="Dessert">
</g>
<g id="Cutlery">
</g>
<g id="Napkin">
</g>
<g id="Table">
</g>
<g id="Spices">
</g>
<g id="Hot_Sauce">
</g>
<g id="Reserved_1">
</g>
<g id="Reserved_2">
</g>
<g id="Open">
</g>
<g id="Food_Photo">
</g>
<g id="Chef">
</g>
<g id="Bill">
</g>
<g id="Bill_2">
</g>
<g id="Paying_1">
</g>
<g id="Paying_2">
</g>
<g id="Restaurant_Place">
</g>
</svg>
