<?xml version="1.0" encoding="iso-8859-1"?>
<!-- Generator: Adobe Illustrator 19.2.1, SVG Export Plug-In . SVG Version: 6.00 Build 0)  -->
<svg version="1.1" xmlns="http://www.w3.org/2000/svg" xmlns:xlink="http://www.w3.org/1999/xlink" x="0px" y="0px"
	 viewBox="0 0 30 30" style="enable-background:new 0 0 30 30;" xml:space="preserve">
<g id="Restaurant_sign_1">
</g>
<g id="Restaurant_Sign_2">
</g>
<g id="Restaurant_Sign_3">
</g>
<g id="Hot_Drink_1">
</g>
<g id="Hot_Drink_2">
</g>
<g id="Cocktail">
</g>
<g id="Shot_Glasses">
</g>
<g id="Chilled_Champagne">
</g>
<g id="Wine">
</g>
<g id="Wine_List">
</g>
<g id="Menu">
	<path d="M24.5,1h-20C3.122,1,2,2.122,2,3.5V4h2.5C4.776,4,5,4.224,5,4.5S4.776,5,4.5,5H2H0.5C0.224,5,0,5.224,0,5.5S0.224,6,0.5,6
		H2v3h2.5C4.776,9,5,9.224,5,9.5S4.776,10,4.5,10H2H0.5C0.224,10,0,10.224,0,10.5S0.224,11,0.5,11H2v3h2.5C4.776,14,5,14.224,5,14.5
		S4.776,15,4.5,15H2H0.5C0.224,15,0,15.224,0,15.5S0.224,16,0.5,16H2v3h2.5C4.776,19,5,19.224,5,19.5S4.776,20,4.5,20H2H0.5
		C0.224,20,0,20.224,0,20.5S0.224,21,0.5,21H2v3h2.5C4.776,24,5,24.224,5,24.5S4.776,25,4.5,25H2H0.5C0.224,25,0,25.224,0,25.5
		S0.224,26,0.5,26H2v1.5C2,28.879,3.122,30,4.5,30h20c1.379,0,2.5-1.121,2.5-2.5v-24C27,2.122,25.879,1,24.5,1z M10,15.5
		c0,0.276-0.224,0.5-0.5,0.5S9,15.776,9,15.5v-3.333l-0.583,0.884c-0.185,0.281-0.65,0.281-0.835,0L7,12.167V15.5
		C7,15.776,6.776,16,6.5,16S6,15.776,6,15.5v-5c0-0.221,0.145-0.416,0.356-0.479c0.212-0.062,0.439,0.02,0.561,0.204L8,11.868
		l1.083-1.643c0.122-0.185,0.35-0.267,0.561-0.204C9.855,10.084,10,10.279,10,10.5V15.5z M13.5,12c0.276,0,0.5,0.224,0.5,0.5
		S13.776,13,13.5,13H12v2h1.5c0.276,0,0.5,0.224,0.5,0.5S13.776,16,13.5,16h-2c-0.276,0-0.5-0.224-0.5-0.5v-5
		c0-0.276,0.224-0.5,0.5-0.5h2c0.276,0,0.5,0.224,0.5,0.5S13.776,11,13.5,11H12v1H13.5z M19,15.5c0,0.225-0.15,0.422-0.366,0.482
		C18.589,15.994,18.544,16,18.5,16c-0.173,0-0.337-0.089-0.429-0.243L16,12.305V15.5c0,0.276-0.224,0.5-0.5,0.5S15,15.776,15,15.5
		v-5c0-0.225,0.15-0.422,0.367-0.482c0.215-0.059,0.447,0.032,0.562,0.225L18,13.695V10.5c0-0.276,0.224-0.5,0.5-0.5
		s0.5,0.224,0.5,0.5V15.5z M24,14.227C24,15.188,23.167,16,22.182,16h-0.204C21.044,16,20,15.242,20,14.227V10.5
		c0-0.276,0.224-0.5,0.5-0.5s0.5,0.224,0.5,0.5v3.727C21,14.603,21.503,15,21.978,15h0.204C22.617,15,23,14.639,23,14.227V10.5
		c0-0.276,0.224-0.5,0.5-0.5s0.5,0.224,0.5,0.5V14.227z"/>
</g>
<g id="Menu_2">
</g>
<g id="Salver">
</g>
<g id="Soup">
</g>
<g id="Sushi">
</g>
<g id="Pizza">
</g>
<g id="Pizza_Slice">
</g>
<g id="Fish">
</g>
<g id="Sausage">
</g>
<g id="Course">
</g>
<g id="Dessert">
</g>
<g id="Cutlery">
</g>
<g id="Napkin">
</g>
<g id="Table">
</g>
<g id="Spices">
</g>
<g id="Hot_Sauce">
</g>
<g id="Reserved_1">
</g>
<g id="Reserved_2">
</g>
<g id="Open">
</g>
<g id="Food_Photo">
</g>
<g id="Chef">
</g>
<g id="Bill">
</g>
<g id="Bill_2">
</g>
<g id="Paying_1">
</g>
<g id="Paying_2">
</g>
<g id="Restaurant_Place">
</g>
</svg>
