<?xml version="1.0" encoding="iso-8859-1"?>
<!-- Generator: Adobe Illustrator 19.2.1, SVG Export Plug-In . SVG Version: 6.00 Build 0)  -->
<svg version="1.1" xmlns="http://www.w3.org/2000/svg" xmlns:xlink="http://www.w3.org/1999/xlink" x="0px" y="0px"
	 viewBox="0 0 30 30" style="enable-background:new 0 0 30 30;" xml:space="preserve">
<g id="Restaurant_sign_1">
</g>
<g id="Restaurant_Sign_2">
</g>
<g id="Restaurant_Sign_3">
</g>
<g id="Hot_Drink_1">
</g>
<g id="Hot_Drink_2">
</g>
<g id="Cocktail">
</g>
<g id="Shot_Glasses">
</g>
<g id="Chilled_Champagne">
</g>
<g id="Wine">
</g>
<g id="Wine_List">
</g>
<g id="Menu">
</g>
<g id="Menu_2">
</g>
<g id="Salver">
</g>
<g id="Soup">
</g>
<g id="Sushi">
</g>
<g id="Pizza">
</g>
<g id="Pizza_Slice">
</g>
<g id="Fish">
</g>
<g id="Sausage">
</g>
<g id="Course">
</g>
<g id="Dessert">
</g>
<g id="Cutlery">
</g>
<g id="Napkin">
	<g>
		<path d="M9.043,5.471c-0.639-0.47-1.442-0.557-2.095-0.226C6.354,5.545,6,6.128,6,6.804v21.433c0,0.721,0.442,1.344,1.153,1.624
			c0.24,0.094,0.486,0.141,0.729,0.141c0.5,0,0.979-0.197,1.326-0.569l11.34-12.586c0.375-0.344,0.591-0.83,0.591-1.334
			c-0.001-0.488-0.196-0.936-0.588-1.292L9.043,5.471z"/>
		<path d="M23.063,11.437L9.07,0.442C8.51-0.031,7.709-0.133,7.03,0.182C6.395,0.477,6,1.079,6,1.754v2.944
			C6.155,4.57,6.313,4.446,6.498,4.353c0.991-0.502,2.194-0.383,3.139,0.313l11.587,8.814c0.489,0.444,0.782,1.018,0.874,1.642
			l0.972-1.079c0.371-0.371,0.578-0.872,0.567-1.376C23.627,12.203,23.434,11.774,23.063,11.437z"/>
	</g>
</g>
<g id="Table">
</g>
<g id="Spices">
</g>
<g id="Hot_Sauce">
</g>
<g id="Reserved_1">
</g>
<g id="Reserved_2">
</g>
<g id="Open">
</g>
<g id="Food_Photo">
</g>
<g id="Chef">
</g>
<g id="Bill">
</g>
<g id="Bill_2">
</g>
<g id="Paying_1">
</g>
<g id="Paying_2">
</g>
<g id="Restaurant_Place">
</g>
</svg>
