<?xml version="1.0" encoding="iso-8859-1"?>
<!-- Generator: Adobe Illustrator 19.2.1, SVG Export Plug-In . SVG Version: 6.00 Build 0)  -->
<svg version="1.1" xmlns="http://www.w3.org/2000/svg" xmlns:xlink="http://www.w3.org/1999/xlink" x="0px" y="0px"
	 viewBox="0 0 30 30" style="enable-background:new 0 0 30 30;" xml:space="preserve">
<g id="Restaurant_sign_1">
</g>
<g id="Restaurant_Sign_2">
</g>
<g id="Restaurant_Sign_3">
</g>
<g id="Hot_Drink_1">
</g>
<g id="Hot_Drink_2">
</g>
<g id="Cocktail">
</g>
<g id="Shot_Glasses">
</g>
<g id="Chilled_Champagne">
</g>
<g id="Wine">
</g>
<g id="Wine_List">
</g>
<g id="Menu">
</g>
<g id="Menu_2">
</g>
<g id="Salver">
</g>
<g id="Soup">
</g>
<g id="Sushi">
</g>
<g id="Pizza">
	<g>
		<path d="M24.99,12.591L14.46,15.54l2.948-10.53c0.072-0.259-0.073-0.53-0.33-0.611c-1.286-0.409-2.621-0.616-3.969-0.616
			C5.881,3.783,0,9.664,0,16.892C0,24.119,5.881,30,13.109,30s13.109-5.881,13.109-13.108c0-1.347-0.207-2.683-0.616-3.97
			C25.52,12.665,25.251,12.518,24.99,12.591z M13.109,6.304c0.971,0,1.761,0.79,1.761,1.761c0,0.971-0.79,1.761-1.761,1.761
			c-0.971,0-1.761-0.79-1.761-1.761C11.348,7.094,12.138,6.304,13.109,6.304z M9.326,7.435c0.348,0,0.63,0.282,0.63,0.63
			c0,0.348-0.282,0.63-0.63,0.63c-0.348,0-0.63-0.282-0.63-0.63C8.696,7.717,8.978,7.435,9.326,7.435z M6.804,8.826
			c0.971,0,1.761,0.79,1.761,1.761s-0.79,1.761-1.761,1.761c-0.971,0-1.761-0.79-1.761-1.761S5.833,8.826,6.804,8.826z
			 M8.513,18.559c0.124,0.247,0.023,0.547-0.224,0.671L7.028,19.86c-0.072,0.036-0.148,0.053-0.223,0.053
			c-0.184,0-0.36-0.102-0.448-0.276c-0.124-0.247-0.023-0.547,0.224-0.671l1.261-0.631C8.088,18.21,8.389,18.312,8.513,18.559z
			 M2.522,16.892c0-0.971,0.79-1.761,1.761-1.761s1.761,0.79,1.761,1.761c0,0.971-0.79,1.761-1.761,1.761S2.522,17.862,2.522,16.892
			z M6.804,24.956c-0.971,0-1.761-0.79-1.761-1.761s0.79-1.761,1.761-1.761c0.971,0,1.761,0.79,1.761,1.761
			S7.775,24.956,6.804,24.956z M9.326,26.348c-0.348,0-0.63-0.282-0.63-0.63c0-0.348,0.282-0.63,0.63-0.63
			c0.348,0,0.63,0.282,0.63,0.63C9.957,26.066,9.674,26.348,9.326,26.348z M10.404,15.224C10.316,15.399,10.14,15.5,9.956,15.5
			c-0.075,0-0.151-0.017-0.223-0.053l-1.261-0.63c-0.247-0.124-0.347-0.424-0.224-0.671s0.425-0.346,0.671-0.224l1.261,0.63
			C10.427,14.676,10.527,14.977,10.404,15.224z M13.109,27.479c-0.971,0-1.761-0.79-1.761-1.761c0-0.972,0.79-1.762,1.761-1.762
			c0.971,0,1.761,0.79,1.761,1.762C14.87,26.688,14.08,27.479,13.109,27.479z M11.348,21.935c0-0.276,0.224-0.5,0.5-0.5h1.261
			c0.276,0,0.5,0.224,0.5,0.5s-0.224,0.5-0.5,0.5h-1.261C11.571,22.435,11.348,22.211,11.348,21.935z M13.109,18.652
			c-0.971,0-1.761-0.79-1.761-1.761c0-0.971,0.79-1.761,1.761-1.761c0.26,0,0.516,0.06,0.76,0.177
			c0.211,0.102,0.318,0.332,0.272,0.551c0.22-0.047,0.45,0.062,0.551,0.273c0.118,0.243,0.177,0.499,0.177,0.76
			C14.87,17.862,14.08,18.652,13.109,18.652z M18.152,18.783c0.348,0,0.63,0.282,0.63,0.63s-0.282,0.63-0.63,0.63
			c-0.348,0-0.63-0.282-0.63-0.63S17.804,18.783,18.152,18.783z M19.413,24.956c-0.971,0-1.761-0.79-1.761-1.761
			s0.79-1.761,1.761-1.761s1.761,0.79,1.761,1.761S20.384,24.956,19.413,24.956z M21.935,18.652c-0.971,0-1.761-0.79-1.761-1.761
			c0-0.971,0.79-1.761,1.761-1.761s1.761,0.79,1.761,1.761C23.695,17.862,22.905,18.652,21.935,18.652z"/>
		<path d="M29.977,8.544c-1.285-4.05-4.471-7.235-8.521-8.521c-0.131-0.042-0.271-0.027-0.39,0.037
			c-0.119,0.065-0.207,0.175-0.243,0.306l-3.152,11.348c-0.049,0.174,0,0.36,0.128,0.487c0.095,0.095,0.223,0.146,0.354,0.146
			c0.045,0,0.09-0.006,0.134-0.018l11.348-3.152c0.131-0.037,0.241-0.125,0.306-0.244C30.004,8.814,30.018,8.674,29.977,8.544z
			 M20.674,8.565h-1.261c-0.276,0-0.5-0.224-0.5-0.5s0.224-0.5,0.5-0.5h1.261c0.276,0,0.5,0.224,0.5,0.5S20.95,8.565,20.674,8.565z
			 M23.826,7.935c-0.971,0-1.761-0.79-1.761-1.761s0.79-1.761,1.761-1.761s1.761,0.79,1.761,1.761S24.797,7.935,23.826,7.935z"/>
	</g>
</g>
<g id="Pizza_Slice">
</g>
<g id="Fish">
</g>
<g id="Sausage">
</g>
<g id="Course">
</g>
<g id="Dessert">
</g>
<g id="Cutlery">
</g>
<g id="Napkin">
</g>
<g id="Table">
</g>
<g id="Spices">
</g>
<g id="Hot_Sauce">
</g>
<g id="Reserved_1">
</g>
<g id="Reserved_2">
</g>
<g id="Open">
</g>
<g id="Food_Photo">
</g>
<g id="Chef">
</g>
<g id="Bill">
</g>
<g id="Bill_2">
</g>
<g id="Paying_1">
</g>
<g id="Paying_2">
</g>
<g id="Restaurant_Place">
</g>
</svg>
