<?xml version="1.0" encoding="iso-8859-1"?>
<!-- Generator: Adobe Illustrator 19.2.1, SVG Export Plug-In . SVG Version: 6.00 Build 0)  -->
<svg version="1.1" xmlns="http://www.w3.org/2000/svg" xmlns:xlink="http://www.w3.org/1999/xlink" x="0px" y="0px"
	 viewBox="0 0 30 30" style="enable-background:new 0 0 30 30;" xml:space="preserve">
<g id="Restaurant_sign_1">
</g>
<g id="Restaurant_Sign_2">
</g>
<g id="Restaurant_Sign_3">
</g>
<g id="Hot_Drink_1">
</g>
<g id="Hot_Drink_2">
</g>
<g id="Cocktail">
</g>
<g id="Shot_Glasses">
</g>
<g id="Chilled_Champagne">
</g>
<g id="Wine">
</g>
<g id="Wine_List">
</g>
<g id="Menu">
</g>
<g id="Menu_2">
</g>
<g id="Salver">
</g>
<g id="Soup">
</g>
<g id="Sushi">
</g>
<g id="Pizza">
</g>
<g id="Pizza_Slice">
</g>
<g id="Fish">
</g>
<g id="Sausage">
</g>
<g id="Course">
</g>
<g id="Dessert">
</g>
<g id="Cutlery">
</g>
<g id="Napkin">
</g>
<g id="Table">
</g>
<g id="Spices">
</g>
<g id="Hot_Sauce">
</g>
<g id="Reserved_1">
	<path d="M29.948,18.46L24.904,8.278c-0.101-0.202-0.322-0.312-0.547-0.268L5.448,11.828c-0.012,0.002-0.024,0.005-0.036,0.008
		c-0.099,0.026-0.184,0.082-0.247,0.155c0,0,0,0-0.001,0.001c-0.022,0.025-0.042,0.053-0.059,0.083
		c-0.004,0.008-0.009,0.017-0.013,0.025L0.052,22.278c-0.009,0.019-0.009,0.039-0.016,0.058c-0.012,0.033-0.022,0.064-0.026,0.099
		c-0.005,0.035-0.003,0.068,0,0.102c0.002,0.021-0.004,0.04,0,0.061c0.002,0.012,0.009,0.021,0.012,0.032
		c0.007,0.026,0.018,0.048,0.029,0.073c0.015,0.033,0.031,0.064,0.052,0.092c0.015,0.02,0.031,0.038,0.049,0.056
		c0.027,0.027,0.057,0.049,0.089,0.07c0.013,0.008,0.022,0.021,0.036,0.028c0.008,0.004,0.016,0.002,0.024,0.006
		C0.364,22.981,0.429,23,0.5,23c0.033,0,0.066-0.003,0.1-0.01l8.793-1.775l0.746,1.507c0.101,0.203,0.322,0.314,0.547,0.269
		l18.913-3.818c0.152-0.031,0.282-0.131,0.351-0.271C30.018,18.763,30.017,18.599,29.948,18.46z M1.401,21.808l4.143-8.363
		l3.389,6.842L1.401,21.808z M18.251,16.627l-6.304,1.272c-0.034,0.007-0.067,0.01-0.1,0.01c-0.233,0-0.442-0.164-0.49-0.401
		c-0.055-0.271,0.121-0.534,0.391-0.589l6.305-1.272c0.267-0.053,0.534,0.12,0.589,0.392C18.697,16.309,18.521,16.572,18.251,16.627
		z M23.294,12.809l-12.608,2.545c-0.034,0.007-0.067,0.01-0.1,0.01c-0.233,0-0.442-0.164-0.49-0.401
		c-0.055-0.271,0.121-0.535,0.391-0.589l12.609-2.545c0.267-0.055,0.534,0.12,0.589,0.391S23.564,12.754,23.294,12.809z"/>
</g>
<g id="Reserved_2">
</g>
<g id="Open">
</g>
<g id="Food_Photo">
</g>
<g id="Chef">
</g>
<g id="Bill">
</g>
<g id="Bill_2">
</g>
<g id="Paying_1">
</g>
<g id="Paying_2">
</g>
<g id="Restaurant_Place">
</g>
</svg>
