<?xml version="1.0" encoding="iso-8859-1"?>
<!-- Generator: Adobe Illustrator 19.2.1, SVG Export Plug-In . SVG Version: 6.00 Build 0)  -->
<svg version="1.1" xmlns="http://www.w3.org/2000/svg" xmlns:xlink="http://www.w3.org/1999/xlink" x="0px" y="0px"
	 viewBox="0 0 30 30" style="enable-background:new 0 0 30 30;" xml:space="preserve">
<g id="Restaurant_sign_1">
</g>
<g id="Restaurant_Sign_2">
	<g>
		<circle cx="15" cy="15.5" r="0.5"/>
		<path d="M15,17.03c-3.359,0-6.144,2.629-6.404,5.939C8.694,22.982,8.789,23,8.891,23h12.218c0.102,0,0.196-0.018,0.294-0.031
			C21.144,19.659,18.358,17.03,15,17.03z M14.426,19.193c-1.292,0.191-2.4,1.014-2.963,2.199c-0.085,0.18-0.265,0.285-0.452,0.285
			c-0.072,0-0.145-0.016-0.214-0.049c-0.249-0.118-0.355-0.416-0.237-0.666c0.707-1.487,2.098-2.519,3.72-2.758
			c0.273-0.043,0.527,0.148,0.568,0.421C14.888,18.899,14.699,19.153,14.426,19.193z"/>
		<path d="M29.848,14.14l-14.5-14c-0.193-0.187-0.501-0.187-0.694,0l-14.5,14c-0.147,0.142-0.193,0.358-0.116,0.547
			C0.113,14.876,0.296,15,0.5,15H4v14.5C4,29.776,4.224,30,4.5,30h21c0.276,0,0.5-0.224,0.5-0.5V15h3.5
			c0.204,0,0.388-0.124,0.464-0.313C30.04,14.498,29.994,14.282,29.848,14.14z M23.788,22.958l-0.542,0.382
			c-0.248,0.153-0.64,0.35-1.106,0.491c-0.023,0.011-0.049,0.014-0.074,0.021C21.771,23.935,21.455,24,21.109,24H8.891
			c-0.349,0-0.668-0.066-0.964-0.15c-0.022-0.007-0.046-0.009-0.066-0.019c-0.463-0.139-0.849-0.332-1.082-0.475l-0.59-0.465
			c-0.216-0.172-0.252-0.486-0.08-0.703c0.172-0.216,0.485-0.252,0.702-0.08l0.542,0.431c0.065,0.039,0.154,0.089,0.262,0.141
			c0.352-3.277,2.854-5.929,6.045-6.521c-0.099-0.2-0.159-0.421-0.159-0.659c0-0.827,0.673-1.5,1.5-1.5s1.5,0.673,1.5,1.5
			c0,0.237-0.06,0.459-0.159,0.659c3.19,0.591,5.691,3.241,6.044,6.516c0.122-0.06,0.229-0.119,0.31-0.17l0.517-0.365
			c0.226-0.158,0.537-0.104,0.697,0.121C24.067,22.486,24.014,22.799,23.788,22.958z"/>
	</g>
</g>
<g id="Restaurant_Sign_3">
</g>
<g id="Hot_Drink_1">
</g>
<g id="Hot_Drink_2">
</g>
<g id="Cocktail">
</g>
<g id="Shot_Glasses">
</g>
<g id="Chilled_Champagne">
</g>
<g id="Wine">
</g>
<g id="Wine_List">
</g>
<g id="Menu">
</g>
<g id="Menu_2">
</g>
<g id="Salver">
</g>
<g id="Soup">
</g>
<g id="Sushi">
</g>
<g id="Pizza">
</g>
<g id="Pizza_Slice">
</g>
<g id="Fish">
</g>
<g id="Sausage">
</g>
<g id="Course">
</g>
<g id="Dessert">
</g>
<g id="Cutlery">
</g>
<g id="Napkin">
</g>
<g id="Table">
</g>
<g id="Spices">
</g>
<g id="Hot_Sauce">
</g>
<g id="Reserved_1">
</g>
<g id="Reserved_2">
</g>
<g id="Open">
</g>
<g id="Food_Photo">
</g>
<g id="Chef">
</g>
<g id="Bill">
</g>
<g id="Bill_2">
</g>
<g id="Paying_1">
</g>
<g id="Paying_2">
</g>
<g id="Restaurant_Place">
</g>
</svg>
