<?xml version="1.0" encoding="iso-8859-1"?>
<!-- Generator: Adobe Illustrator 19.2.1, SVG Export Plug-In . SVG Version: 6.00 Build 0)  -->
<svg version="1.1" xmlns="http://www.w3.org/2000/svg" xmlns:xlink="http://www.w3.org/1999/xlink" x="0px" y="0px"
	 viewBox="0 0 30 30" style="enable-background:new 0 0 30 30;" xml:space="preserve">
<g id="Restaurant_sign_1">
</g>
<g id="Restaurant_Sign_2">
</g>
<g id="Restaurant_Sign_3">
</g>
<g id="Hot_Drink_1">
</g>
<g id="Hot_Drink_2">
</g>
<g id="Cocktail">
</g>
<g id="Shot_Glasses">
</g>
<g id="Chilled_Champagne">
</g>
<g id="Wine">
</g>
<g id="Wine_List">
</g>
<g id="Menu">
</g>
<g id="Menu_2">
</g>
<g id="Salver">
</g>
<g id="Soup">
</g>
<g id="Sushi">
</g>
<g id="Pizza">
</g>
<g id="Pizza_Slice">
</g>
<g id="Fish">
</g>
<g id="Sausage">
</g>
<g id="Course">
</g>
<g id="Dessert">
</g>
<g id="Cutlery">
</g>
<g id="Napkin">
</g>
<g id="Table">
</g>
<g id="Spices">
</g>
<g id="Hot_Sauce">
</g>
<g id="Reserved_1">
</g>
<g id="Reserved_2">
</g>
<g id="Open">
</g>
<g id="Food_Photo">
</g>
<g id="Chef">
</g>
<g id="Bill">
</g>
<g id="Bill_2">
</g>
<g id="Paying_1">
</g>
<g id="Paying_2">
</g>
<g id="Restaurant_Place">
	<g>
		<path d="M29.5,26h-29C0.224,26,0,26.224,0,26.5v0.239c0,0.078,0.018,0.154,0.053,0.224C0.962,28.779,2.781,30,4.58,30h20.84
			c1.8,0,3.619-1.221,4.527-3.037C29.981,26.894,30,26.816,30,26.739V26.5C30,26.224,29.776,26,29.5,26z"/>
		<path d="M23,19c0.15,0,0.294-0.068,0.389-0.186C23.658,18.481,30,10.614,30,6.929C30,3.108,26.859,0,23,0s-7,3.108-7,6.929
			c0,3.685,6.342,11.553,6.611,11.886C22.706,18.932,22.85,19,23,19z M20,7c0-1.654,1.346-3,3-3s3,1.346,3,3s-1.346,3-3,3
			S20,8.654,20,7z"/>
		<path d="M24.912,19.645c-0.029-0.041-0.065-0.077-0.105-0.106l-0.45-0.332c-0.069,0.086-0.139,0.174-0.19,0.237
			C23.88,19.797,23.455,20,23,20s-0.88-0.203-1.166-0.557c-0.495-0.611-1.845-2.318-3.216-4.369
			c-0.735-0.233-1.484-0.394-2.24-0.483C16.456,14.409,16.5,14.21,16.5,14c0-0.827-0.673-1.5-1.5-1.5s-1.5,0.673-1.5,1.5
			c0,0.208,0.043,0.405,0.119,0.585C8.203,15.201,3.829,19.394,2.744,25H27.25C26.876,23.069,26.085,21.239,24.912,19.645z
			 M14.402,18.151c-3.579,0.236-6.661,2.573-7.85,5.953c-0.072,0.205-0.266,0.334-0.472,0.334c-0.055,0-0.111-0.009-0.166-0.028
			c-0.26-0.092-0.397-0.377-0.306-0.638c1.322-3.759,4.748-6.356,8.728-6.619c0.277-0.028,0.513,0.19,0.532,0.466
			C14.887,17.895,14.678,18.133,14.402,18.151z"/>
	</g>
</g>
</svg>
