<?xml version="1.0" encoding="iso-8859-1"?>
<!-- Generator: Adobe Illustrator 19.2.1, SVG Export Plug-In . SVG Version: 6.00 Build 0)  -->
<svg version="1.1" xmlns="http://www.w3.org/2000/svg" xmlns:xlink="http://www.w3.org/1999/xlink" x="0px" y="0px"
	 viewBox="0 0 30 30" style="enable-background:new 0 0 30 30;" xml:space="preserve">
<g id="Restaurant_sign_1">
</g>
<g id="Restaurant_Sign_2">
</g>
<g id="Restaurant_Sign_3">
</g>
<g id="Hot_Drink_1">
</g>
<g id="Hot_Drink_2">
</g>
<g id="Cocktail">
</g>
<g id="Shot_Glasses">
</g>
<g id="Chilled_Champagne">
</g>
<g id="Wine">
</g>
<g id="Wine_List">
</g>
<g id="Menu">
</g>
<g id="Menu_2">
</g>
<g id="Salver">
</g>
<g id="Soup">
</g>
<g id="Sushi">
</g>
<g id="Pizza">
</g>
<g id="Pizza_Slice">
</g>
<g id="Fish">
</g>
<g id="Sausage">
</g>
<g id="Course">
</g>
<g id="Dessert">
</g>
<g id="Cutlery">
</g>
<g id="Napkin">
</g>
<g id="Table">
</g>
<g id="Spices">
	<g>
		<path d="M23,21h-1v2h1c0.552,0,1-0.448,1-1S23.552,21,23,21z"/>
		<path d="M28.5,29H28v-3.18c0-2.33-0.125-5.063-1.051-7.667l-0.246-0.662C26.218,16.125,26,14.224,26,12.945v-0.336
			C26,11.662,25.36,11,24.444,11h-3.802C19.69,11,19,11.677,19,12.609v0.336c0,1.309-0.211,3.222-0.684,4.55l-0.229,0.664
			C17.335,20.272,17,22.636,17,25.82V29h-2V5.949C16.416,5.71,17.5,4.483,17.5,3c0-1.654-1.346-3-3-3s-3,1.346-3,3
			c0,1.483,1.084,2.71,2.5,2.949V29h-2v-3.18c0-2.33-0.125-5.063-1.051-7.667l-0.246-0.662C10.218,16.125,10,14.224,10,12.945
			v-0.336C10,11.662,9.36,11,8.444,11H4.643C3.691,11,3,11.677,3,12.609v0.336c0,1.31-0.211,3.223-0.683,4.55L2.086,18.16
			C1.335,20.273,1,22.636,1,25.82V29H0.5C0.224,29,0,29.224,0,29.5S0.224,30,0.5,30h1h10h6h10h1c0.276,0,0.5-0.224,0.5-0.5
			S28.776,29,28.5,29z M6.095,22.509C7.28,22.688,8,23.339,8,24.25C8,25.215,7.103,26,6,26s-2-0.785-2-1.75
			c0-0.276,0.224-0.5,0.5-0.5S5,23.974,5,24.25C5,24.656,5.458,25,6,25s1-0.344,1-0.75c0-0.536-0.751-0.707-1.074-0.756
			C4.248,23.17,4,22.263,4,21.75C4,20.785,4.897,20,6,20s2,0.785,2,1.75c0,0.276-0.224,0.5-0.5,0.5S7,22.026,7,21.75
			C7,21.344,6.542,21,6,21s-1,0.344-1,0.75C5,22.202,5.595,22.412,6.095,22.509z M23,24h-1v2c0,0.276-0.224,0.5-0.5,0.5
			S21,26.276,21,26v-5.5c0-0.276,0.224-0.5,0.5-0.5H23c1.103,0,2,0.897,2,2S24.103,24,23,24z"/>
	</g>
</g>
<g id="Hot_Sauce">
</g>
<g id="Reserved_1">
</g>
<g id="Reserved_2">
</g>
<g id="Open">
</g>
<g id="Food_Photo">
</g>
<g id="Chef">
</g>
<g id="Bill">
</g>
<g id="Bill_2">
</g>
<g id="Paying_1">
</g>
<g id="Paying_2">
</g>
<g id="Restaurant_Place">
</g>
</svg>
