<?xml version="1.0" encoding="iso-8859-1"?>
<!-- Generator: Adobe Illustrator 19.2.1, SVG Export Plug-In . SVG Version: 6.00 Build 0)  -->
<svg version="1.1" xmlns="http://www.w3.org/2000/svg" xmlns:xlink="http://www.w3.org/1999/xlink" x="0px" y="0px"
	 viewBox="0 0 30 30" style="enable-background:new 0 0 30 30;" xml:space="preserve">
<g id="Restaurant_sign_1">
</g>
<g id="Restaurant_Sign_2">
</g>
<g id="Restaurant_Sign_3">
</g>
<g id="Hot_Drink_1">
</g>
<g id="Hot_Drink_2">
</g>
<g id="Cocktail">
</g>
<g id="Shot_Glasses">
</g>
<g id="Chilled_Champagne">
</g>
<g id="Wine">
</g>
<g id="Wine_List">
</g>
<g id="Menu">
</g>
<g id="Menu_2">
</g>
<g id="Salver">
</g>
<g id="Soup">
</g>
<g id="Sushi">
	<g>
		<path d="M7,19c3.86,0,7-1.652,7-3.684V7.5C14,5.538,10.925,4,7,4S0,5.538,0,7.5v7.816C0,17.348,3.14,19,7,19z M7,5
			c3.536,0,6,1.317,6,2.5S10.536,10,7,10S1,8.683,1,7.5S3.464,5,7,5z"/>
		<path d="M7,9c1.445,0,3-0.469,3-1.5S8.445,6,7,6S4,6.469,4,7.5S5.555,9,7,9z"/>
		<path d="M23,1c-3.925,0-7,1.538-7,3.5v7.656C16,14.276,19.141,16,23,16s7-1.724,7-3.844V4.5C30,2.538,26.925,1,23,1z M23,7
			c-3.536,0-6-1.317-6-2.5S19.464,2,23,2s6,1.317,6,2.5S26.536,7,23,7z"/>
		<path d="M23,3c-1.445,0-3,0.469-3,1.5S21.555,6,23,6s3-0.469,3-1.5S24.445,3,23,3z"/>
		<path d="M29.5,24H13.14l14.523-5.027c0.262-0.091,0.399-0.375,0.31-0.636c-0.09-0.262-0.378-0.397-0.636-0.31L10.082,24H0.5
			C0.224,24,0,24.224,0,24.5S0.224,25,0.5,25h6.693l-5.857,2.027c-0.261,0.091-0.399,0.375-0.309,0.636C1.099,27.87,1.293,28,1.5,28
			c0.054,0,0.109-0.009,0.164-0.027L10.251,25H29.5c0.276,0,0.5-0.224,0.5-0.5S29.776,24,29.5,24z"/>
	</g>
</g>
<g id="Pizza">
</g>
<g id="Pizza_Slice">
</g>
<g id="Fish">
</g>
<g id="Sausage">
</g>
<g id="Course">
</g>
<g id="Dessert">
</g>
<g id="Cutlery">
</g>
<g id="Napkin">
</g>
<g id="Table">
</g>
<g id="Spices">
</g>
<g id="Hot_Sauce">
</g>
<g id="Reserved_1">
</g>
<g id="Reserved_2">
</g>
<g id="Open">
</g>
<g id="Food_Photo">
</g>
<g id="Chef">
</g>
<g id="Bill">
</g>
<g id="Bill_2">
</g>
<g id="Paying_1">
</g>
<g id="Paying_2">
</g>
<g id="Restaurant_Place">
</g>
</svg>
