<?xml version="1.0" encoding="iso-8859-1"?>
<!-- Generator: Adobe Illustrator 19.2.1, SVG Export Plug-In . SVG Version: 6.00 Build 0)  -->
<svg version="1.1" xmlns="http://www.w3.org/2000/svg" xmlns:xlink="http://www.w3.org/1999/xlink" x="0px" y="0px"
	 viewBox="0 0 30 30" style="enable-background:new 0 0 30 30;" xml:space="preserve">
<g id="Restaurant_sign_1">
</g>
<g id="Restaurant_Sign_2">
</g>
<g id="Restaurant_Sign_3">
</g>
<g id="Hot_Drink_1">
</g>
<g id="Hot_Drink_2">
</g>
<g id="Cocktail">
</g>
<g id="Shot_Glasses">
</g>
<g id="Chilled_Champagne">
</g>
<g id="Wine">
	<g>
		<path d="M18.067,8.311l-0.517-0.196C17.236,7.958,17,7.666,17,7.435V4h-3v3.435c0,0.19-0.302,0.502-0.618,0.662L12.79,8.331
			C11.703,8.875,11,9.935,11,11.033v5.228V21.5v6.739C11,29.21,11.79,30,12.761,30h5.044C18.679,30,20,29.298,20,28.239V21.5v-5.239
			v-5.228C20,9.818,19.052,8.8,18.067,8.311z M19,21h-7v-4.346c0.733-0.171,2.381-0.524,3.5-0.524c1.128,0,2.77,0.353,3.5,0.523V21z
			"/>
		<path d="M17,0.5C17,0.224,16.776,0,16.5,0h-2C14.224,0,14,0.224,14,0.5V3h3V0.5z"/>
		<path d="M9.5,19h-8C1.224,19,1,19.224,1,19.5v1.185C1,22.86,2.788,24.7,5,24.95V29H3.5C3.224,29,3,29.224,3,29.5S3.224,30,3.5,30
			h4C7.776,30,8,29.776,8,29.5S7.776,29,7.5,29H6v-4.05c2.212-0.25,4-2.09,4-4.265V19.5C10,19.224,9.776,19,9.5,19z"/>
		<path d="M29.5,19h-8c-0.276,0-0.5,0.224-0.5,0.5v1.185c0,2.175,1.788,4.016,4,4.265V29h-1.5c-0.276,0-0.5,0.224-0.5,0.5
			s0.224,0.5,0.5,0.5h4c0.276,0,0.5-0.224,0.5-0.5S27.776,29,27.5,29H26v-4.05c2.212-0.25,4-2.09,4-4.265V19.5
			C30,19.224,29.776,19,29.5,19z"/>
	</g>
</g>
<g id="Wine_List">
</g>
<g id="Menu">
</g>
<g id="Menu_2">
</g>
<g id="Salver">
</g>
<g id="Soup">
</g>
<g id="Sushi">
</g>
<g id="Pizza">
</g>
<g id="Pizza_Slice">
</g>
<g id="Fish">
</g>
<g id="Sausage">
</g>
<g id="Course">
</g>
<g id="Dessert">
</g>
<g id="Cutlery">
</g>
<g id="Napkin">
</g>
<g id="Table">
</g>
<g id="Spices">
</g>
<g id="Hot_Sauce">
</g>
<g id="Reserved_1">
</g>
<g id="Reserved_2">
</g>
<g id="Open">
</g>
<g id="Food_Photo">
</g>
<g id="Chef">
</g>
<g id="Bill">
</g>
<g id="Bill_2">
</g>
<g id="Paying_1">
</g>
<g id="Paying_2">
</g>
<g id="Restaurant_Place">
</g>
</svg>
