<?xml version="1.0" encoding="iso-8859-1"?>
<!-- Generator: Adobe Illustrator 19.2.1, SVG Export Plug-In . SVG Version: 6.00 Build 0)  -->
<svg version="1.1" xmlns="http://www.w3.org/2000/svg" xmlns:xlink="http://www.w3.org/1999/xlink" x="0px" y="0px"
	 viewBox="0 0 30 30" style="enable-background:new 0 0 30 30;" xml:space="preserve">
<g id="Restaurant_sign_1">
</g>
<g id="Restaurant_Sign_2">
</g>
<g id="Restaurant_Sign_3">
</g>
<g id="Hot_Drink_1">
</g>
<g id="Hot_Drink_2">
</g>
<g id="Cocktail">
</g>
<g id="Shot_Glasses">
</g>
<g id="Chilled_Champagne">
</g>
<g id="Wine">
</g>
<g id="Wine_List">
	<g>
		<path d="M15.5,7c1.138,0,2.127-1.082,2.415-2h-4.826C13.385,5.908,14.385,7,15.5,7z"/>
		<path d="M27.5,0h-24C3.224,0,3,0.224,3,0.5v29C3,29.776,3.224,30,3.5,30h24c0.276,0,0.5-0.224,0.5-0.5v-29
			C28,0.224,27.776,0,27.5,0z M16.5,26h-8C8.224,26,8,25.776,8,25.5S8.224,25,8.5,25h8c0.276,0,0.5,0.224,0.5,0.5S16.776,26,16.5,26
			z M16.5,22h-8C8.224,22,8,21.776,8,21.5S8.224,21,8.5,21h8c0.276,0,0.5,0.224,0.5,0.5S16.776,22,16.5,22z M16.5,19h-8
			C8.224,19,8,18.776,8,18.5S8.224,18,8.5,18h8c0.276,0,0.5,0.224,0.5,0.5S16.776,19,16.5,19z M16.5,15h-8C8.224,15,8,14.776,8,14.5
			S8.224,14,8.5,14h8c0.276,0,0.5,0.224,0.5,0.5S16.776,15,16.5,15z M16,7.935V9h1c0.276,0,0.5,0.224,0.5,0.5S17.276,10,17,10h-3
			c-0.276,0-0.5-0.224-0.5-0.5S13.724,9,14,9h1V7.935C13.26,7.62,12,5.758,12,4.5C12,4.224,12.224,4,12.5,4h6
			C18.776,4,19,4.224,19,4.5C19,5.758,17.74,7.62,16,7.935z M22.5,26h-1c-0.276,0-0.5-0.224-0.5-0.5s0.224-0.5,0.5-0.5h1
			c0.276,0,0.5,0.224,0.5,0.5S22.776,26,22.5,26z M22.5,22h-1c-0.276,0-0.5-0.224-0.5-0.5s0.224-0.5,0.5-0.5h1
			c0.276,0,0.5,0.224,0.5,0.5S22.776,22,22.5,22z M22.5,19h-1c-0.276,0-0.5-0.224-0.5-0.5s0.224-0.5,0.5-0.5h1
			c0.276,0,0.5,0.224,0.5,0.5S22.776,19,22.5,19z M22.5,15h-1c-0.276,0-0.5-0.224-0.5-0.5s0.224-0.5,0.5-0.5h1
			c0.276,0,0.5,0.224,0.5,0.5S22.776,15,22.5,15z"/>
	</g>
</g>
<g id="Menu">
</g>
<g id="Menu_2">
</g>
<g id="Salver">
</g>
<g id="Soup">
</g>
<g id="Sushi">
</g>
<g id="Pizza">
</g>
<g id="Pizza_Slice">
</g>
<g id="Fish">
</g>
<g id="Sausage">
</g>
<g id="Course">
</g>
<g id="Dessert">
</g>
<g id="Cutlery">
</g>
<g id="Napkin">
</g>
<g id="Table">
</g>
<g id="Spices">
</g>
<g id="Hot_Sauce">
</g>
<g id="Reserved_1">
</g>
<g id="Reserved_2">
</g>
<g id="Open">
</g>
<g id="Food_Photo">
</g>
<g id="Chef">
</g>
<g id="Bill">
</g>
<g id="Bill_2">
</g>
<g id="Paying_1">
</g>
<g id="Paying_2">
</g>
<g id="Restaurant_Place">
</g>
</svg>
