<?xml version="1.0" encoding="iso-8859-1"?>
<!-- Generator: Adobe Illustrator 19.0.0, SVG Export Plug-In . SVG Version: 6.00 Build 0)  -->
<svg version="1.1" id="Layer_1" xmlns="http://www.w3.org/2000/svg" xmlns:xlink="http://www.w3.org/1999/xlink" x="0px" y="0px"
	 viewBox="0 0 24 24" style="enable-background:new 0 0 24 24;" xml:space="preserve">
<g>
	<g>
		<path d="M12.354,4.147c-0.195-0.195-0.512-0.195-0.707,0s-0.195,0.512,0,0.707l1.5,1.5C13.244,6.451,13.372,6.5,13.5,6.5
			s0.256-0.049,0.354-0.146c0.195-0.195,0.195-0.512,0-0.707L12.354,4.147z M21.636,4.827C21.163,4.301,20.486,4,19.778,4h-3.329
			C16.197,1.756,14.31,0,12,0S7.803,1.756,7.551,4H4.222C3.514,4,2.837,4.301,2.364,4.827C1.891,5.353,1.661,6.058,1.736,6.762
			l1.579,15C3.449,23.038,4.518,24,5.801,24h12.398c1.284,0,2.353-0.962,2.486-2.238l1.579-15
			C22.339,6.058,22.109,5.353,21.636,4.827z M12.5,23h-1V8.949C11.666,8.968,11.829,9,12,9c0.171,0,0.334-0.032,0.5-0.051V23z
			 M15.432,5.173c-0.016,0.083-0.046,0.16-0.068,0.241c-0.035,0.129-0.07,0.259-0.119,0.382C15.204,5.898,15.151,5.993,15.1,6.09
			c-0.046,0.09-0.091,0.18-0.144,0.265c-0.07,0.11-0.15,0.213-0.231,0.314c-0.046,0.058-0.092,0.117-0.142,0.172
			c-0.101,0.111-0.211,0.214-0.325,0.311c-0.039,0.033-0.077,0.066-0.117,0.097c-0.133,0.103-0.273,0.197-0.421,0.281
			c-0.026,0.015-0.053,0.029-0.08,0.044c-0.163,0.087-0.333,0.163-0.51,0.223c-0.013,0.005-0.027,0.008-0.04,0.012
			c-0.19,0.062-0.386,0.111-0.589,0.14C12.336,7.973,12.172,8,12.001,8c-0.171,0-0.335-0.027-0.5-0.051
			c-0.203-0.029-0.399-0.078-0.589-0.14c-0.013-0.004-0.027-0.008-0.04-0.012c-0.177-0.06-0.347-0.137-0.51-0.223
			c-0.027-0.014-0.054-0.028-0.08-0.044C10.133,7.447,9.993,7.352,9.86,7.249C9.82,7.218,9.781,7.185,9.743,7.152
			c-0.115-0.097-0.224-0.2-0.326-0.311C9.367,6.786,9.322,6.728,9.276,6.67C9.194,6.569,9.114,6.465,9.044,6.355
			C8.99,6.27,8.946,6.179,8.9,6.09C8.85,5.993,8.796,5.898,8.755,5.796C8.706,5.673,8.671,5.543,8.636,5.414
			C8.614,5.333,8.584,5.256,8.568,5.173C8.525,4.955,8.5,4.73,8.5,4.5c0-1.758,1.308-3.204,3-3.449V1.5C11.5,1.776,11.724,2,12,2
			s0.5-0.224,0.5-0.5V1.051c1.692,0.245,3,1.691,3,3.449C15.5,4.731,15.475,4.955,15.432,5.173z"/>
	</g>
</g>
</svg>
