<?xml version="1.0" encoding="iso-8859-1"?>
<!-- Generator: Adobe Illustrator 19.2.1, SVG Export Plug-In . SVG Version: 6.00 Build 0)  -->
<svg version="1.1" xmlns="http://www.w3.org/2000/svg" xmlns:xlink="http://www.w3.org/1999/xlink" x="0px" y="0px"
	 viewBox="0 0 24 24" style="enable-background:new 0 0 24 24;" xml:space="preserve">
<g id="Egg_1_">
</g>
<g id="Easter_Egg_1">
</g>
<g id="Easter_Egg_2">
</g>
<g id="Easter_Egg_3">
</g>
<g id="Eggs_1">
</g>
<g id="Eggs_2_1_">
</g>
<g id="Bunny">
</g>
<g id="Sheep">
</g>
<g id="Bell_Alarm">
</g>
<g id="Calendar">
</g>
<g id="Tulip">
</g>
<g id="Chicken">
</g>
<g id="Chicken_2">
</g>
<g id="Baguette">
</g>
<g id="Ham_1_">
</g>
<g id="Bell_2">
	<g>
		<path d="M21.591,18.563l-1.604-2.005C19.351,15.762,19,14.764,19,13.746V9c0-3.589-2.813-6-7-6S5,5.411,5,9v4.746
			c0,1.018-0.351,2.016-0.986,2.811l-1.604,2.006c-0.363,0.454-0.433,1.063-0.181,1.586C2.481,20.674,2.999,21,3.581,21h16.838
			c0.582,0,1.1-0.326,1.353-0.85C22.023,19.626,21.954,19.018,21.591,18.563z"/>
		<path d="M5.807,4.075C5.868,4.12,5.94,4.14,6.005,4.176C6.291,3.901,6.603,3.647,6.941,3.42c-0.194,0-0.385-0.037-0.55-0.156
			C6.143,3.084,6,2.806,6,2.5s0.143-0.584,0.391-0.764c0.164-0.118,0.354-0.179,0.548-0.179c0.101,0,0.202,0.016,0.301,0.049
			l2.159,0.72c0.659-0.173,1.369-0.27,2.113-0.302C11.674,2.016,11.833,2,12,2s0.326,0.016,0.488,0.024
			c0.744,0.032,1.454,0.129,2.113,0.302l2.159-0.72c0.289-0.096,0.6-0.05,0.849,0.129C17.857,1.916,18,2.194,18,2.5
			s-0.143,0.584-0.391,0.764c-0.164,0.119-0.356,0.157-0.55,0.156c0.338,0.228,0.649,0.481,0.935,0.756
			c0.065-0.037,0.137-0.057,0.199-0.101C18.706,3.706,19,3.131,19,2.5s-0.294-1.206-0.807-1.575
			c-0.511-0.369-1.15-0.466-1.749-0.267L13,1.806V0.5C13,0.224,12.776,0,12.5,0h-1C11.224,0,11,0.224,11,0.5v1.306L7.556,0.658
			C6.958,0.459,6.318,0.556,5.807,0.925C5.294,1.294,5,1.869,5,2.5S5.294,3.706,5.807,4.075z"/>
		<path d="M12,24c1.103,0,2-0.897,2-2h-4C10,23.103,10.897,24,12,24z"/>
	</g>
</g>
<g id="Bell_3">
</g>
<g id="Bell_4">
</g>
<g id="Easter_celebration">
</g>
<g id="Egg_painting">
</g>
<g id="Easter_willow">
</g>
<g id="Daffodil">
</g>
<g id="Easter_message">
</g>
<g id="Bunny_2">
</g>
<g id="Chicken_3">
</g>
<g id="Tulip_2">
</g>
<g id="Easter_basket">
</g>
<g id="Bread_and_wine">
</g>
<g id="Sheep_2">
</g>
<g id="Candle_Light">
</g>
</svg>
