<?xml version="1.0" encoding="iso-8859-1"?>
<!-- Generator: Adobe Illustrator 19.2.1, SVG Export Plug-In . SVG Version: 6.00 Build 0)  -->
<svg version="1.1" xmlns="http://www.w3.org/2000/svg" xmlns:xlink="http://www.w3.org/1999/xlink" x="0px" y="0px"
	 viewBox="0 0 24 24" style="enable-background:new 0 0 24 24;" xml:space="preserve">
<g id="Egg_1_">
</g>
<g id="Easter_Egg_1">
</g>
<g id="Easter_Egg_2">
</g>
<g id="Easter_Egg_3">
</g>
<g id="Eggs_1">
</g>
<g id="Eggs_2_1_">
</g>
<g id="Bunny">
</g>
<g id="Sheep">
</g>
<g id="Bell_Alarm">
</g>
<g id="Calendar">
</g>
<g id="Tulip">
</g>
<g id="Chicken">
</g>
<g id="Chicken_2">
</g>
<g id="Baguette">
</g>
<g id="Ham_1_">
</g>
<g id="Bell_2">
</g>
<g id="Bell_3">
</g>
<g id="Bell_4">
</g>
<g id="Easter_celebration">
</g>
<g id="Egg_painting">
</g>
<g id="Easter_willow">
</g>
<g id="Daffodil">
</g>
<g id="Easter_message">
</g>
<g id="Bunny_2">
	<g>
		<path d="M21,18c0.276,0,0.5-0.224,0.5-0.5S21.276,17,21,17h-1.525c0.011-0.166,0.025-0.331,0.025-0.5c0-4.136-3.364-7.5-7.5-7.5
			s-7.5,3.364-7.5,7.5c0,0.169,0.014,0.334,0.025,0.5H3c-0.276,0-0.5,0.224-0.5,0.5S2.724,18,3,18h1.651
			c0.103,0.506,0.259,0.994,0.459,1.457l-2.231,0.558c-0.268,0.067-0.431,0.338-0.364,0.606C2.572,20.849,2.775,21,3,21
			c0.04,0,0.081-0.005,0.122-0.015l2.466-0.616c0.31,0.512,0.673,0.988,1.093,1.411l-1.957,1.305
			c-0.23,0.153-0.292,0.463-0.139,0.693C4.68,23.922,4.839,24,5,24c0.095,0,0.191-0.027,0.277-0.084l2.186-1.457
			C8.725,23.421,10.294,24,12,24s3.275-0.579,4.536-1.541l2.186,1.457C18.808,23.973,18.904,24,19,24
			c0.162,0,0.32-0.078,0.417-0.223c0.153-0.23,0.091-0.54-0.139-0.693l-1.957-1.305c0.419-0.423,0.783-0.899,1.093-1.411
			l2.466,0.616C20.919,20.995,20.96,21,21,21c0.224,0,0.428-0.151,0.484-0.379c0.067-0.268-0.096-0.539-0.364-0.606l-2.231-0.558
			c0.2-0.464,0.356-0.951,0.459-1.457H21z M7.968,15.13l-0.293-0.25c-0.21-0.179-0.235-0.495-0.056-0.705
			c0.18-0.21,0.496-0.235,0.705-0.056l0.293,0.25c0.203,0.174,0.562,0.174,0.765,0l0.293-0.25c0.21-0.178,0.525-0.154,0.705,0.056
			c0.179,0.21,0.154,0.526-0.056,0.705l-0.293,0.25C9.742,15.377,9.371,15.5,9,15.5S8.258,15.377,7.968,15.13z M14.121,20.985
			c-0.067,0.017-0.404,0.096-0.817,0.096c-0.408,0-0.891-0.077-1.26-0.366c-0.014-0.011-0.029-0.029-0.043-0.041
			c-0.014,0.012-0.029,0.03-0.043,0.041c-0.37,0.289-0.852,0.366-1.26,0.366c-0.413,0-0.75-0.079-0.817-0.096
			c-0.268-0.066-0.43-0.337-0.364-0.604c0.066-0.268,0.333-0.43,0.605-0.366c0.276,0.067,0.937,0.134,1.222-0.088
			c0.049-0.038,0.108-0.105,0.138-0.239l-0.834-0.834c-0.143-0.143-0.186-0.358-0.108-0.545C10.615,18.122,10.798,18,11,18h2
			c0.202,0,0.385,0.122,0.462,0.309c0.078,0.187,0.035,0.402-0.108,0.545l-0.834,0.834c0.03,0.134,0.09,0.2,0.138,0.239
			c0.284,0.223,0.946,0.155,1.222,0.088c0.27-0.065,0.538,0.098,0.605,0.366C14.551,20.648,14.389,20.918,14.121,20.985z
			 M13.968,15.13l-0.293-0.25c-0.21-0.179-0.235-0.495-0.056-0.705c0.18-0.21,0.495-0.235,0.705-0.056l0.293,0.25
			c0.203,0.174,0.562,0.174,0.765,0l0.293-0.25c0.21-0.178,0.525-0.154,0.705,0.056c0.179,0.21,0.154,0.526-0.056,0.705l-0.293,0.25
			c-0.29,0.247-0.661,0.37-1.032,0.37S14.258,15.377,13.968,15.13z"/>
		<path d="M7.869,9.092c-0.949-1.57-2.6-4.287-3.285-5.315C3.873,2.711,3.276,2.925,3.211,2.953
			C2.962,3.057,2.667,2.951,2.554,2.706C2.44,2.461,2.535,2.173,2.776,2.053c0.057-0.027,1.409-0.677,2.64,1.17
			C6.132,4.297,7.827,7.087,8.77,8.648C9.132,8.5,9.506,8.374,9.892,8.275L6.157,1.553C5.625,0.595,4.614,0,3.518,0
			C1.854,0,0.5,1.354,0.5,3.018v0.498c0,0.761,0.284,1.488,0.801,2.047l4.621,5.007C6.493,9.985,7.151,9.492,7.869,9.092z"/>
		<path d="M20.482,0c-1.096,0-2.107,0.595-2.639,1.553l-3.735,6.723c0.385,0.099,0.76,0.224,1.122,0.373
			c0.943-1.561,2.638-4.352,3.354-5.426c1.23-1.847,2.583-1.198,2.64-1.17c0.247,0.124,0.347,0.424,0.224,0.671
			c-0.122,0.243-0.414,0.343-0.66,0.229c-0.072-0.032-0.666-0.233-1.371,0.825c-0.685,1.027-2.336,3.744-3.285,5.315
			c0.718,0.4,1.376,0.893,1.947,1.478l4.621-5.007C23.216,5.004,23.5,4.277,23.5,3.516V3.018C23.5,1.354,22.146,0,20.482,0z"/>
	</g>
</g>
<g id="Chicken_3">
</g>
<g id="Tulip_2">
</g>
<g id="Easter_basket">
</g>
<g id="Bread_and_wine">
</g>
<g id="Sheep_2">
</g>
<g id="Candle_Light">
</g>
</svg>
