<?xml version="1.0" encoding="iso-8859-1"?>
<!-- Generator: Adobe Illustrator 19.2.1, SVG Export Plug-In . SVG Version: 6.00 Build 0)  -->
<svg version="1.1" xmlns="http://www.w3.org/2000/svg" xmlns:xlink="http://www.w3.org/1999/xlink" x="0px" y="0px"
	 viewBox="0 0 24 24" style="enable-background:new 0 0 24 24;" xml:space="preserve">
<g id="Egg_1_">
</g>
<g id="Easter_Egg_1">
</g>
<g id="Easter_Egg_2">
</g>
<g id="Easter_Egg_3">
</g>
<g id="Eggs_1">
</g>
<g id="Eggs_2_1_">
</g>
<g id="Bunny">
</g>
<g id="Sheep">
</g>
<g id="Bell_Alarm">
</g>
<g id="Calendar">
</g>
<g id="Tulip">
</g>
<g id="Chicken">
	<g>
		<path d="M17.365,10.158c-0.179-0.19-0.474-0.211-0.677-0.049L14.5,11.86l-2.188-1.75c-0.183-0.146-0.442-0.146-0.625,0L9.5,11.86
			l-2.188-1.75c-0.203-0.162-0.498-0.141-0.677,0.049C6.548,10.251,4.5,12.482,4.5,16.5c0,4.136,3.364,7.5,7.5,7.5
			s7.5-3.364,7.5-7.5C19.5,12.482,17.452,10.251,17.365,10.158z"/>
		<path d="M9.237,8.053C8.783,8.446,8.402,8.931,8.116,9.471L9.5,10.579l1.562-1.25C11.329,9.116,11.661,9,12,9
			s0.671,0.116,0.936,0.327l1.564,1.252l1.382-1.106c-0.288-0.545-0.667-1.029-1.119-1.421C15.85,7.208,16.5,5.905,16.5,4.5
			C16.5,2.019,14.481,0,12,0S7.5,2.019,7.5,4.5C7.5,5.905,8.15,7.208,9.237,8.053z M11,3c0.276,0,0.5,0.224,0.5,0.5
			C11.5,3.776,11.276,4,11,4s-0.5-0.224-0.5-0.5C10.5,3.224,10.724,3,11,3z"/>
		<path d="M6.505,4.405c0.017-1.001,0.304-1.935,0.79-2.738L4.929,2.005c-0.195,0.028-0.356,0.168-0.41,0.359
			C4.465,2.554,4.528,2.758,4.68,2.884L6.505,4.405z"/>
	</g>
</g>
<g id="Chicken_2">
</g>
<g id="Baguette">
</g>
<g id="Ham_1_">
</g>
<g id="Bell_2">
</g>
<g id="Bell_3">
</g>
<g id="Bell_4">
</g>
<g id="Easter_celebration">
</g>
<g id="Egg_painting">
</g>
<g id="Easter_willow">
</g>
<g id="Daffodil">
</g>
<g id="Easter_message">
</g>
<g id="Bunny_2">
</g>
<g id="Chicken_3">
</g>
<g id="Tulip_2">
</g>
<g id="Easter_basket">
</g>
<g id="Bread_and_wine">
</g>
<g id="Sheep_2">
</g>
<g id="Candle_Light">
</g>
</svg>
