<?xml version="1.0" encoding="iso-8859-1"?>
<!-- Generator: Adobe Illustrator 19.2.1, SVG Export Plug-In . SVG Version: 6.00 Build 0)  -->
<svg version="1.1" xmlns="http://www.w3.org/2000/svg" xmlns:xlink="http://www.w3.org/1999/xlink" x="0px" y="0px"
	 viewBox="0 0 24 24" style="enable-background:new 0 0 24 24;" xml:space="preserve">
<g id="Egg_1_">
</g>
<g id="Easter_Egg_1">
</g>
<g id="Easter_Egg_2">
</g>
<g id="Easter_Egg_3">
</g>
<g id="Eggs_1">
</g>
<g id="Eggs_2_1_">
</g>
<g id="Bunny">
</g>
<g id="Sheep">
</g>
<g id="Bell_Alarm">
</g>
<g id="Calendar">
</g>
<g id="Tulip">
</g>
<g id="Chicken">
</g>
<g id="Chicken_2">
</g>
<g id="Baguette">
</g>
<g id="Ham_1_">
</g>
<g id="Bell_2">
</g>
<g id="Bell_3">
</g>
<g id="Bell_4">
</g>
<g id="Easter_celebration">
</g>
<g id="Egg_painting">
</g>
<g id="Easter_willow">
</g>
<g id="Daffodil">
</g>
<g id="Easter_message">
</g>
<g id="Bunny_2">
</g>
<g id="Chicken_3">
	<g>
		<g>
			<path d="M17.144,9.487l-0.92,0.46c-0.13,0.064-0.282,0.069-0.415,0.015c-0.134-0.056-0.237-0.167-0.283-0.304l-0.818-2.453
				l-1.484,0.742c-0.135,0.068-0.294,0.07-0.433,0.007c-0.138-0.063-0.239-0.186-0.276-0.333l-0.746-2.98L9.4,7.8
				C9.306,7.926,9.157,8,9,8H6.934l1.482,2.223c0.078,0.117,0.103,0.262,0.069,0.398L7.923,12.87l0.724-0.724
				C8.743,12.05,8.871,12,9,12c0.096,0,0.193,0.027,0.277,0.084L12,13.899l2.723-1.815c0.128-0.085,0.29-0.106,0.436-0.058
				l1.855,0.618l-0.46-0.92c-0.059-0.119-0.069-0.256-0.027-0.382L17.144,9.487z M10,10c-0.276,0-0.5-0.224-0.5-0.5
				C9.5,9.224,9.724,9,10,9s0.5,0.224,0.5,0.5C10.5,9.776,10.276,10,10,10z M13.354,10.854l-1,1C12.256,11.951,12.128,12,12,12
				s-0.256-0.049-0.354-0.146l-1-1c-0.195-0.195-0.195-0.512,0-0.707s0.512-0.195,0.707,0L12,10.793l0.646-0.646
				c0.195-0.195,0.512-0.195,0.707,0S13.549,10.658,13.354,10.854z M14,10c-0.276,0-0.5-0.224-0.5-0.5C13.5,9.224,13.724,9,14,9
				s0.5,0.224,0.5,0.5C14.5,9.776,14.276,10,14,10z"/>
			<path d="M12,0C6.512,0,2.5,9.536,2.5,14.5c0,5.238,4.262,9.5,9.5,9.5s9.5-4.262,9.5-9.5C21.5,9.536,17.488,0,12,0z
				 M18.378,13.828c-0.132,0.153-0.343,0.212-0.536,0.146l-2.768-0.922l-2.796,1.864c-0.168,0.112-0.387,0.112-0.555,0l-2.659-1.772
				l-1.71,1.71C7.257,14.95,7.129,15,7,15c-0.084,0-0.169-0.021-0.247-0.065c-0.195-0.111-0.293-0.338-0.238-0.556l0.946-3.786
				L5.584,7.777C5.482,7.624,5.472,7.427,5.559,7.264S5.815,7,6,7h2.75l2.85-3.8c0.115-0.154,0.308-0.228,0.499-0.19
				c0.189,0.038,0.339,0.182,0.386,0.369l0.849,3.395l1.442-0.721c0.129-0.065,0.281-0.07,0.415-0.015
				c0.134,0.056,0.237,0.167,0.283,0.304l0.818,2.453l1.484-0.742c0.179-0.091,0.398-0.063,0.551,0.069
				c0.153,0.133,0.21,0.344,0.146,0.536l-0.934,2.803l0.907,1.815C18.538,13.457,18.51,13.675,18.378,13.828z"/>
		</g>
	</g>
</g>
<g id="Tulip_2">
</g>
<g id="Easter_basket">
</g>
<g id="Bread_and_wine">
</g>
<g id="Sheep_2">
</g>
<g id="Candle_Light">
</g>
</svg>
