<?xml version="1.0" encoding="iso-8859-1"?>
<!-- Generator: Adobe Illustrator 19.2.1, SVG Export Plug-In . SVG Version: 6.00 Build 0)  -->
<svg version="1.1" xmlns="http://www.w3.org/2000/svg" xmlns:xlink="http://www.w3.org/1999/xlink" x="0px" y="0px"
	 viewBox="0 0 24 24" style="enable-background:new 0 0 24 24;" xml:space="preserve">
<g id="Egg_1_">
</g>
<g id="Easter_Egg_1">
</g>
<g id="Easter_Egg_2">
</g>
<g id="Easter_Egg_3">
</g>
<g id="Eggs_1">
</g>
<g id="Eggs_2_1_">
</g>
<g id="Bunny">
</g>
<g id="Sheep">
</g>
<g id="Bell_Alarm">
</g>
<g id="Calendar">
</g>
<g id="Tulip">
</g>
<g id="Chicken">
</g>
<g id="Chicken_2">
</g>
<g id="Baguette">
</g>
<g id="Ham_1_">
	<g id="Ham">
		<g>
			<path d="M22.981,1.595C22.853,0.536,22.189,0,21.005,0c-0.807,0-2,0.477-2,1.5c0,0.55-0.035,0.828-0.854,1.646
				c-1.609,1.609-2.856,2.828-3.978,3.643C14.415,7.28,14.874,8,15.505,8c0.993,0,2.039,0.869,2.727,1.793
				c0.31-1.115,1.018-2.331,2.626-3.939C21.114,5.598,21.712,5,22.005,5c0.996,0,2-0.464,2-1.5
				C24.005,2.584,23.589,1.849,22.981,1.595z"/>
			<path d="M18.005,13l-0.004-0.569c-0.003-0.321-0.006-0.631,0.002-0.938C17.994,10.966,16.572,9,15.505,9
				c-1.113,0-1.814-0.972-2.176-1.666C12.551,7.772,11.806,8,11.005,8c-1.93,0-6.398,1.886-8.78,4.121
				c0.347-0.078,0.707-0.13,1.09-0.13c1.967,0,4.117,1.021,5.897,2.802c0.485,0.485,1.054,1.002,1.633,1.531
				c2.232,2.036,4.159,3.793,4.201,5.641c0.007,0.279-0.044,0.549-0.125,0.807c2.288-1.018,3.701-2.17,4.266-3.502
				c0.71-1.674-0.016-3.267-0.601-4.546C18.287,14.068,18.005,13.449,18.005,13z"/>
		</g>
		<g>
			<circle cx="5.505" cy="18.5" r="0.5"/>
			<path d="M10.172,17.063C9.58,16.523,9,15.995,8.505,15.5c-2.576-2.576-5.912-3.277-7.595-1.594
				c-1.683,1.683-0.982,5.019,1.594,7.595C4.043,23.04,7.508,24,10.237,24c1.478,0,2.739-0.282,3.363-0.905
				c0.302-0.302,0.457-0.685,0.447-1.107C14.014,20.566,12.148,18.865,10.172,17.063z M5.505,20c-0.827,0-1.5-0.673-1.5-1.5
				s0.673-1.5,1.5-1.5s1.5,0.673,1.5,1.5S6.332,20,5.505,20z"/>
		</g>
	</g>
</g>
<g id="Bell_2">
</g>
<g id="Bell_3">
</g>
<g id="Bell_4">
</g>
<g id="Easter_celebration">
</g>
<g id="Egg_painting">
</g>
<g id="Easter_willow">
</g>
<g id="Daffodil">
</g>
<g id="Easter_message">
</g>
<g id="Bunny_2">
</g>
<g id="Chicken_3">
</g>
<g id="Tulip_2">
</g>
<g id="Easter_basket">
</g>
<g id="Bread_and_wine">
</g>
<g id="Sheep_2">
</g>
<g id="Candle_Light">
</g>
</svg>
