<?xml version="1.0" encoding="iso-8859-1"?>
<!-- Generator: Adobe Illustrator 19.2.1, SVG Export Plug-In . SVG Version: 6.00 Build 0)  -->
<svg version="1.1" xmlns="http://www.w3.org/2000/svg" xmlns:xlink="http://www.w3.org/1999/xlink" x="0px" y="0px"
	 viewBox="0 0 24 24" style="enable-background:new 0 0 24 24;" xml:space="preserve">
<g id="Egg_1_">
</g>
<g id="Easter_Egg_1">
</g>
<g id="Easter_Egg_2">
</g>
<g id="Easter_Egg_3">
</g>
<g id="Eggs_1">
</g>
<g id="Eggs_2_1_">
</g>
<g id="Bunny">
</g>
<g id="Sheep">
	<g>
		<path d="M17.852,9.606l-0.883-2.976c0.197-0.059,0.347-0.227,0.359-0.443c0.025-0.428-0.121-0.813-0.425-1.115
			c-0.031-0.031-0.106-0.094-0.146-0.116c-0.023-0.024-0.049-0.046-0.076-0.066c-0.401-0.279-0.978-0.434-1.561-0.413
			c-0.541,0.02-1.042,0.219-1.426,0.558c-0.27-0.088-0.54-0.102-0.811-0.041c-0.501-0.624-1.26-0.997-2.064-0.997
			c-0.894,0-1.713,0.458-2.197,1.177C8.104,4.729,7.441,4.478,6.74,4.478c-0.905,0-1.749,0.428-2.293,1.141
			C4.099,5.498,3.74,5.437,3.38,5.437C1.517,5.437,0,6.954,0,8.817c0,0.767,0.267,1.506,0.747,2.102C0.276,11.37,0,11.995,0,12.658
			c0,1.389,1.142,2.528,2.586,2.413c0.36,0.772,1.339,1.169,2.146,0.844c0.44,0.665,1.189,1.083,2.009,1.083
			c0.788,0,1.506-0.376,1.956-1.004c0.713,0.141,1.437-0.063,1.977-0.505c0.767,0.743,2.162,0.661,2.84-0.159
			c0.277,0.148,0.59,0.229,0.907,0.229c0.99,0,1.81-0.745,1.926-1.704c0.449-0.258,0.775-0.683,0.908-1.176
			c0.729,0.003,1.397-0.406,1.646-1.071c0.248-0.665,0.031-1.377-0.58-1.907C18.186,9.583,18.01,9.56,17.852,9.606z"/>
		<path d="M19.5,3.998c-0.402,0-0.914,0.094-1.349,0.229c-0.153-0.351-0.351-0.704-0.543-0.896
			c-0.353-0.352-0.949-0.584-1.797,0.191c0.537,0.08,1.036,0.267,1.442,0.549c0.048,0.034,0.092,0.069,0.132,0.104
			c0.125,0.091,0.221,0.186,0.226,0.191c0.503,0.5,0.758,1.169,0.716,1.881c-0.015,0.255-0.093,0.494-0.221,0.699l0.527,1.777
			c0.123,0.057,0.237,0.131,0.341,0.22c0.637,0.552,0.984,1.27,1.016,2.008C21.805,10.654,24,8.815,24,6.998
			C24,4.951,21.314,3.998,19.5,3.998z M20.5,6.998c-0.276,0-0.5-0.224-0.5-0.5c0-0.276,0.224-0.5,0.5-0.5s0.5,0.224,0.5,0.5
			C21,6.774,20.776,6.998,20.5,6.998z"/>
		<path d="M4.135,17.029c-0.808,0-1.582-0.372-2.089-0.967c-0.049-0.005-0.094-0.021-0.142-0.028l-0.402,4.418
			c-0.013,0.14,0.034,0.279,0.129,0.383C1.726,20.938,1.859,20.998,2,20.998h1.095c0.774,0,1.416-0.581,1.479-1.278l0.544-2.151
			c-0.276-0.151-0.538-0.326-0.765-0.549C4.281,17.026,4.208,17.029,4.135,17.029z"/>
		<path d="M13.729,16.474c-0.488,0.338-1.089,0.524-1.726,0.524c-0.124,0-0.24-0.027-0.36-0.041l0.269,2.689
			c0.076,0.771,0.718,1.351,1.492,1.351H14.5c0.276,0,0.5-0.224,0.5-0.5v-4.004c-0.189,0.038-0.381,0.064-0.58,0.064
			C14.187,16.558,13.955,16.529,13.729,16.474z"/>
		<path d="M6.382,17.962c-0.108-0.011-0.209-0.046-0.314-0.067l-0.507,2.004c-0.05,0.379-0.2,0.724-0.412,1.027
			c0.141,0.044,0.288,0.072,0.44,0.072H6.5c0.154,0,0.3-0.071,0.395-0.192c0.095-0.121,0.128-0.279,0.091-0.429L6.382,17.962z"/>
		<path d="M10.649,17.057c-0.012-0.122,0.013-0.241,0.044-0.357c-0.014-0.007-0.03-0.009-0.043-0.016
			c-0.329,0.163-0.685,0.25-1.048,0.3l-0.869,3.389c-0.038,0.149-0.006,0.309,0.089,0.431s0.241,0.193,0.396,0.193h0.912
			c0.393,0,0.761-0.158,1.029-0.41c-0.125-0.259-0.211-0.541-0.24-0.843L10.649,17.057z"/>
	</g>
</g>
<g id="Bell_Alarm">
</g>
<g id="Calendar">
</g>
<g id="Tulip">
</g>
<g id="Chicken">
</g>
<g id="Chicken_2">
</g>
<g id="Baguette">
</g>
<g id="Ham_1_">
</g>
<g id="Bell_2">
</g>
<g id="Bell_3">
</g>
<g id="Bell_4">
</g>
<g id="Easter_celebration">
</g>
<g id="Egg_painting">
</g>
<g id="Easter_willow">
</g>
<g id="Daffodil">
</g>
<g id="Easter_message">
</g>
<g id="Bunny_2">
</g>
<g id="Chicken_3">
</g>
<g id="Tulip_2">
</g>
<g id="Easter_basket">
</g>
<g id="Bread_and_wine">
</g>
<g id="Sheep_2">
</g>
<g id="Candle_Light">
</g>
</svg>
