<?xml version="1.0" encoding="iso-8859-1"?>
<!-- Generator: Adobe Illustrator 19.2.1, SVG Export Plug-In . SVG Version: 6.00 Build 0)  -->
<svg version="1.1" xmlns="http://www.w3.org/2000/svg" xmlns:xlink="http://www.w3.org/1999/xlink" x="0px" y="0px"
	 viewBox="0 0 24 24" style="enable-background:new 0 0 24 24;" xml:space="preserve">
<g id="Egg_1_">
</g>
<g id="Easter_Egg_1">
</g>
<g id="Easter_Egg_2">
</g>
<g id="Easter_Egg_3">
</g>
<g id="Eggs_1">
</g>
<g id="Eggs_2_1_">
</g>
<g id="Bunny">
</g>
<g id="Sheep">
</g>
<g id="Bell_Alarm">
</g>
<g id="Calendar">
</g>
<g id="Tulip">
	<g>
		<path d="M21.933,16.251c-0.083-0.146-0.234-0.239-0.402-0.25c-0.078-0.005-7.21-0.372-11.531,5.738v-3.765
			c3.902-0.259,7-3.508,7-7.475c0-3.937-2.926-9.965-3.051-10.22C13.868,0.114,13.701,0.006,13.515,0
			c-0.1-0.001-0.191,0.027-0.271,0.074L9.932,5.752C9.93,5.755,9.926,5.756,9.925,5.759C9.922,5.764,9.922,5.768,9.919,5.772
			l-6.186,9.516C5.01,16.823,6.888,17.831,9,17.972v5.518c0,0.022,0,0.044,0.003,0.066c0.008,0.073,0.032,0.141,0.068,0.201
			c0.036,0.06,0.084,0.112,0.144,0.153c0.049,0.034,0.104,0.06,0.164,0.075C9.418,23.995,9.459,24,9.499,24c0.003,0,0.007,0,0.01,0
			c8.702-0.005,12.401-7.204,12.438-7.276C22.022,16.574,22.017,16.396,21.933,16.251z"/>
		<path d="M11.052,1.846L9.91,0.213c-0.188-0.268-0.632-0.268-0.819,0L7.948,1.847L9.5,4.508L11.052,1.846z"/>
		<path d="M5.761,0.083C5.678,0.033,5.585,0.001,5.485,0C5.299,0.006,5.132,0.114,5.051,0.28C4.926,0.535,2,6.563,2,10.5
			c0,1.434,0.411,2.77,1.112,3.91l5.801-8.924L5.761,0.083z"/>
	</g>
</g>
<g id="Chicken">
</g>
<g id="Chicken_2">
</g>
<g id="Baguette">
</g>
<g id="Ham_1_">
</g>
<g id="Bell_2">
</g>
<g id="Bell_3">
</g>
<g id="Bell_4">
</g>
<g id="Easter_celebration">
</g>
<g id="Egg_painting">
</g>
<g id="Easter_willow">
</g>
<g id="Daffodil">
</g>
<g id="Easter_message">
</g>
<g id="Bunny_2">
</g>
<g id="Chicken_3">
</g>
<g id="Tulip_2">
</g>
<g id="Easter_basket">
</g>
<g id="Bread_and_wine">
</g>
<g id="Sheep_2">
</g>
<g id="Candle_Light">
</g>
</svg>
