<?xml version="1.0" encoding="iso-8859-1"?>
<!-- Generator: Adobe Illustrator 19.2.1, SVG Export Plug-In . SVG Version: 6.00 Build 0)  -->
<svg version="1.1" xmlns="http://www.w3.org/2000/svg" xmlns:xlink="http://www.w3.org/1999/xlink" x="0px" y="0px"
	 viewBox="0 0 24 24" style="enable-background:new 0 0 24 24;" xml:space="preserve">
<g id="Photo_frame">
</g>
<g id="Photo_frame_2">
</g>
<g id="Photo_frame_3">
</g>
<g id="Photo_frame__4">
</g>
<g id="Photo_frame_5">
</g>
<g id="Photo_frame_6">
</g>
<g id="Photo_frame_7">
</g>
<g id="Round_Frame_1">
</g>
<g id="Rectangle_Frame_1">
</g>
<g id="Square_Frame_1">
</g>
<g id="Rectangle_Frame_2">
</g>
<g id="Oval_Frame_1">
</g>
<g id="Round_Frame_2">
</g>
<g id="Rectangle_Frame_3">
</g>
<g id="Rectangle_Frame_4">
</g>
<g id="Rectangle_Frame_5">
</g>
<g id="Square_Frame_2">
</g>
<g id="Rectangle_Frame_6">
</g>
<g id="Rectangle_Frame_7">
</g>
<g id="Oval_Frame_2">
</g>
<g id="Round_Frame_3">
</g>
<g id="Rectangle_Frame_8">
</g>
<g id="Square_Frame_3">
</g>
<g id="Rectangle_Frame_9">
</g>
<g id="Rectangle_Frame_10">
</g>
<g id="Square_Frame_4">
</g>
<g id="Rectangle_Frame_11">
</g>
<g id="Rectangle_Frame_12">
</g>
<g id="Square_Frame_5">
</g>
<g id="Rectangle_Frame_13">
</g>
<g id="Round_Frame">
</g>
<g id="Frame_2">
</g>
<g id="Frame_1">
</g>
<g id="Frame_3">
</g>
<g id="Frame_4">
</g>
<g id="Frame_5">
</g>
<g id="Frame_6">
</g>
<g id="Frame_7">
</g>
<g id="Frame_8">
</g>
<g id="Frame_9">
</g>
<g id="Frame_10">
</g>
<g id="Frame_11">
</g>
<g id="Frame_12">
</g>
<g id="Frame_13">
</g>
<g id="Frame_14">
</g>
<g id="Frame_15">
</g>
<g id="Frame_16">
</g>
<g id="Frame_17">
</g>
<g id="Frame_18">
</g>
<g id="Frame_19">
</g>
<g id="Frame_20">
</g>
<g id="Frame_21">
</g>
<g id="Frame_22">
</g>
<g id="Frame_23">
</g>
<g id="Frame_24">
</g>
<g id="Frame_25">
</g>
<g id="Frame_26">
</g>
<g id="Frame_27">
</g>
<g id="Frame_28">
</g>
<g id="Frame_29">
</g>
<g id="Frame_30">
</g>
<g id="Frame_Hole_1">
</g>
<g id="Frame_Hole_2">
</g>
<g id="Frame_Hole_3">
</g>
<g id="Frame_Hole_4">
</g>
<g id="Frame_31">
</g>
<g id="Frame_32">
</g>
<g id="Frame_33">
</g>
<g id="Frame_34">
</g>
<g id="Frame_35">
</g>
<g id="Dashed_Frame_1">
</g>
<g id="Dashed_Frame_2">
</g>
<g id="Dashed_Frame_3">
</g>
<g id="Dashed_Frame_4">
</g>
<g id="Dashed_Frame_5">
</g>
<g id="Dashed_Frame_6">
</g>
<g id="Dashed_Frame_7">
</g>
<g id="Dashed_Frame_8">
</g>
<g id="Dashed_Frame_9">
</g>
<g id="Dashed_Frame_10">
</g>
<g id="Dashed_Frame_11">
</g>
<g id="Dashed_Frame_12">
</g>
<g id="Dashed_Frame_13">
</g>
<g id="Dashed_Frame_14">
</g>
<g id="Dashed_Frame_15">
</g>
<g id="Dashed_Frame_16">
</g>
<g id="Dashed_Frame_17">
</g>
<g id="Dashed_Frame_18">
</g>
<g id="Dashed_Frame_19">
</g>
<g id="Dashed_Frame_20">
</g>
<g id="Dashed_Frame_25">
	<path d="M22,8.077V5.5C22,5.224,21.776,5,21.5,5C20.122,5,19,3.879,19,2.5C19,2.224,18.776,2,18.5,2h-3.077
		c-0.361-1.154-1.955-2-3.923-2S7.937,0.846,7.577,2H5.5C5.224,2,5,2.224,5,2.5C5,3.879,3.878,5,2.5,5C2.224,5,2,5.224,2,5.5v2.577
		C0.846,8.438,0,10.032,0,12s0.846,3.563,2,3.923V18.5C2,18.776,2.224,19,2.5,19C3.878,19,5,20.121,5,21.5C5,21.776,5.224,22,5.5,22
		h2.577c0.361,1.154,1.955,2,3.923,2s3.562-0.846,3.923-2H18.5c0.276,0,0.5-0.224,0.5-0.5c0-1.379,1.122-2.5,2.5-2.5
		c0.276,0,0.5-0.224,0.5-0.5v-2.577c1.154-0.36,2-1.955,2-3.923S23.154,8.438,22,8.077z M18.217,6.303
		c0.159-0.227,0.471-0.281,0.697-0.122c0.249,0.175,0.513,0.324,0.786,0.443C19.882,6.703,20,6.883,20,7.082v1
		c0,0.276-0.224,0.5-0.5,0.5S19,8.358,19,8.082V7.398c-0.228-0.117-0.449-0.251-0.661-0.399C18.113,6.84,18.059,6.528,18.217,6.303z
		 M2.398,10.246C2.488,10.094,2.652,10,2.83,10H4V9.5C4,9.224,4.224,9,4.5,9S5,9.224,5,9.5v1C5,10.776,4.776,11,4.5,11H3.152
		c-0.047,0.139-0.092,0.314-0.12,0.52c-0.035,0.251-0.249,0.433-0.495,0.433c-0.022,0-0.045-0.002-0.068-0.005
		c-0.273-0.037-0.465-0.289-0.428-0.563C2.101,10.946,2.231,10.531,2.398,10.246z M2.398,13.754c-0.167-0.285-0.298-0.7-0.358-1.139
		c-0.037-0.273,0.154-0.525,0.428-0.563c0.271-0.035,0.525,0.153,0.563,0.428c0.028,0.205,0.073,0.381,0.12,0.52H4.5
		C4.776,13,5,13.224,5,13.5v1C5,14.776,4.776,15,4.5,15S4,14.776,4,14.5V14H2.83C2.652,14,2.488,13.906,2.398,13.754z M5.783,17.697
		c-0.097,0.139-0.252,0.213-0.41,0.213c-0.099,0-0.2-0.029-0.287-0.091c-0.249-0.175-0.513-0.324-0.786-0.443
		C4.118,17.297,4,17.117,4,16.918v-1c0-0.276,0.224-0.5,0.5-0.5s0.5,0.224,0.5,0.5v0.684c0.228,0.117,0.449,0.251,0.661,0.399
		C5.887,17.16,5.941,17.472,5.783,17.697z M5.661,6.999C5.449,7.147,5.228,7.281,5,7.398v0.684c0,0.276-0.224,0.5-0.5,0.5
		S4,8.358,4,8.082v-1c0-0.199,0.118-0.379,0.3-0.458c0.273-0.119,0.537-0.269,0.786-0.443c0.227-0.159,0.539-0.104,0.697,0.122
		C5.941,6.528,5.887,6.84,5.661,6.999z M8.083,20h-1c-0.199,0-0.378-0.117-0.458-0.299c-0.12-0.274-0.27-0.539-0.443-0.786
		c-0.159-0.226-0.105-0.538,0.121-0.697c0.227-0.158,0.538-0.104,0.697,0.121c0.148,0.211,0.282,0.433,0.4,0.661h0.684
		c0.276,0,0.5,0.224,0.5,0.5S8.359,20,8.083,20z M8.541,4.698C8.465,4.875,8.289,5,8.083,5H7.398c-0.118,0.229-0.251,0.45-0.4,0.661
		C6.901,5.799,6.747,5.873,6.589,5.873c-0.1,0-0.2-0.029-0.288-0.091c-0.226-0.159-0.28-0.472-0.121-0.697
		c0.174-0.247,0.323-0.512,0.443-0.786C6.704,4.117,6.884,4,7.083,4h1c0.206,0,0.382,0.125,0.459,0.302C8.618,4.125,8.794,4,9,4h0.5
		V2.83c0-0.177,0.093-0.341,0.246-0.431c0.284-0.168,0.699-0.299,1.139-0.358c0.274-0.036,0.525,0.154,0.563,0.428
		c0.037,0.273-0.154,0.525-0.428,0.563c-0.206,0.028-0.382,0.073-0.52,0.121V4.5C10.5,4.776,10.276,5,10,5H9
		C8.794,5,8.618,4.875,8.541,4.698z M11.453,21.964c-0.022,0-0.045-0.002-0.068-0.005c-0.439-0.06-0.854-0.19-1.139-0.358
		C10.093,21.511,10,21.347,10,21.17V20H9.5C9.224,20,9,19.776,9,19.5S9.224,19,9.5,19h1c0.276,0,0.5,0.224,0.5,0.5v1.348
		c0.138,0.048,0.314,0.093,0.52,0.121c0.273,0.037,0.465,0.289,0.428,0.563C11.913,21.782,11.699,21.964,11.453,21.964z
		 M11.98,3.031c-0.273-0.037-0.465-0.289-0.428-0.563c0.038-0.273,0.29-0.462,0.563-0.428c0.439,0.06,0.854,0.19,1.139,0.358
		C13.407,2.489,13.5,2.653,13.5,2.83V4H14c0.276,0,0.5,0.224,0.5,0.5S14.276,5,14,5h-1c-0.276,0-0.5-0.224-0.5-0.5V3.152
		C12.362,3.104,12.186,3.06,11.98,3.031z M14.5,20H14v1.17c0,0.177-0.093,0.341-0.246,0.431c-0.284,0.168-0.699,0.299-1.139,0.358
		c-0.023,0.003-0.046,0.005-0.068,0.005c-0.246,0-0.46-0.182-0.495-0.433c-0.037-0.273,0.154-0.525,0.428-0.563
		c0.206-0.028,0.382-0.073,0.52-0.121V19.5c0-0.276,0.224-0.5,0.5-0.5h1c0.276,0,0.5,0.224,0.5,0.5S14.776,20,14.5,20z
		 M17.819,18.915c-0.174,0.247-0.323,0.512-0.443,0.786C17.296,19.883,17.116,20,16.917,20h-1c-0.276,0-0.5-0.224-0.5-0.5
		s0.224-0.5,0.5-0.5h0.684c0.118-0.229,0.251-0.45,0.4-0.661c0.159-0.225,0.47-0.279,0.697-0.121
		C17.924,18.377,17.978,18.689,17.819,18.915z M17.698,5.782c-0.088,0.062-0.188,0.091-0.288,0.091
		c-0.157,0-0.312-0.074-0.409-0.212C16.853,5.45,16.719,5.229,16.602,5h-0.684c-0.276,0-0.5-0.224-0.5-0.5s0.224-0.5,0.5-0.5h1
		c0.199,0,0.378,0.117,0.458,0.299c0.12,0.274,0.27,0.539,0.443,0.786C17.978,5.311,17.924,5.623,17.698,5.782z M20,16.918
		c0,0.199-0.118,0.379-0.3,0.458c-0.273,0.119-0.537,0.269-0.786,0.443c-0.087,0.062-0.188,0.091-0.287,0.091
		c-0.157,0-0.313-0.074-0.41-0.213c-0.159-0.226-0.104-0.537,0.122-0.696c0.212-0.148,0.433-0.282,0.661-0.399v-0.684
		c0-0.276,0.224-0.5,0.5-0.5s0.5,0.224,0.5,0.5V16.918z M21.602,13.754C21.512,13.906,21.348,14,21.17,14H20v0.5
		c0,0.276-0.224,0.5-0.5,0.5S19,14.776,19,14.5v-1c0-0.276,0.224-0.5,0.5-0.5h1.348c0.047-0.139,0.092-0.314,0.12-0.52
		c0.038-0.274,0.291-0.461,0.563-0.428c0.273,0.037,0.465,0.289,0.428,0.563C21.899,13.054,21.769,13.469,21.602,13.754z
		 M21.532,11.947c-0.023,0.003-0.046,0.005-0.068,0.005c-0.246,0-0.46-0.182-0.495-0.433c-0.028-0.205-0.073-0.381-0.12-0.52H19.5
		c-0.276,0-0.5-0.224-0.5-0.5v-1C19,9.224,19.224,9,19.5,9S20,9.224,20,9.5V10h1.17c0.177,0,0.341,0.094,0.431,0.246
		c0.167,0.285,0.298,0.7,0.358,1.139C21.997,11.658,21.805,11.91,21.532,11.947z"/>
</g>
<g id="Dashed_Frame_26">
</g>
<g id="Dashed_Frame_27">
</g>
<g id="Dashed_Frame_28">
</g>
<g id="Dashed_Frame_29">
</g>
<g id="Dashed_Frame_30">
</g>
<g id="Dashed_Frame_31">
</g>
<g id="Dashed_Frame_32">
</g>
<g id="Dashed_Frame_33">
</g>
<g id="Dashed_Frame_35">
</g>
</svg>
