<?xml version="1.0" encoding="iso-8859-1"?>
<!-- Generator: Adobe Illustrator 19.2.1, SVG Export Plug-In . SVG Version: 6.00 Build 0)  -->
<svg version="1.1" xmlns="http://www.w3.org/2000/svg" xmlns:xlink="http://www.w3.org/1999/xlink" x="0px" y="0px"
	 viewBox="0 0 24 24" style="enable-background:new 0 0 24 24;" xml:space="preserve">
<g id="Photo_frame">
</g>
<g id="Photo_frame_2">
</g>
<g id="Photo_frame_3">
</g>
<g id="Photo_frame__4">
</g>
<g id="Photo_frame_5">
</g>
<g id="Photo_frame_6">
</g>
<g id="Photo_frame_7">
</g>
<g id="Round_Frame_1">
</g>
<g id="Rectangle_Frame_1">
</g>
<g id="Square_Frame_1">
</g>
<g id="Rectangle_Frame_2">
</g>
<g id="Oval_Frame_1">
</g>
<g id="Round_Frame_2">
</g>
<g id="Rectangle_Frame_3">
</g>
<g id="Rectangle_Frame_4">
</g>
<g id="Rectangle_Frame_5">
</g>
<g id="Square_Frame_2">
</g>
<g id="Rectangle_Frame_6">
</g>
<g id="Rectangle_Frame_7">
</g>
<g id="Oval_Frame_2">
</g>
<g id="Round_Frame_3">
</g>
<g id="Rectangle_Frame_8">
</g>
<g id="Square_Frame_3">
</g>
<g id="Rectangle_Frame_9">
</g>
<g id="Rectangle_Frame_10">
</g>
<g id="Square_Frame_4">
</g>
<g id="Rectangle_Frame_11">
</g>
<g id="Rectangle_Frame_12">
</g>
<g id="Square_Frame_5">
</g>
<g id="Rectangle_Frame_13">
</g>
<g id="Round_Frame">
</g>
<g id="Frame_2">
</g>
<g id="Frame_1">
</g>
<g id="Frame_3">
</g>
<g id="Frame_4">
</g>
<g id="Frame_5">
</g>
<g id="Frame_6">
</g>
<g id="Frame_7">
</g>
<g id="Frame_8">
</g>
<g id="Frame_9">
</g>
<g id="Frame_10">
</g>
<g id="Frame_11">
</g>
<g id="Frame_12">
</g>
<g id="Frame_13">
</g>
<g id="Frame_14">
</g>
<g id="Frame_15">
</g>
<g id="Frame_16">
</g>
<g id="Frame_17">
</g>
<g id="Frame_18">
</g>
<g id="Frame_19">
</g>
<g id="Frame_20">
</g>
<g id="Frame_21">
</g>
<g id="Frame_22">
</g>
<g id="Frame_23">
</g>
<g id="Frame_24">
</g>
<g id="Frame_25">
</g>
<g id="Frame_26">
</g>
<g id="Frame_27">
</g>
<g id="Frame_28">
</g>
<g id="Frame_29">
</g>
<g id="Frame_30">
</g>
<g id="Frame_Hole_1">
</g>
<g id="Frame_Hole_2">
</g>
<g id="Frame_Hole_3">
</g>
<g id="Frame_Hole_4">
</g>
<g id="Frame_31">
</g>
<g id="Frame_32">
</g>
<g id="Frame_33">
</g>
<g id="Frame_34">
</g>
<g id="Frame_35">
</g>
<g id="Dashed_Frame_1">
</g>
<g id="Dashed_Frame_2">
</g>
<g id="Dashed_Frame_3">
</g>
<g id="Dashed_Frame_4">
</g>
<g id="Dashed_Frame_5">
</g>
<g id="Dashed_Frame_6">
</g>
<g id="Dashed_Frame_7">
	<path d="M23.718,11.581L17.541,7.45l-5.186-5.245c-0.188-0.189-0.523-0.189-0.711,0L6.459,7.45l-6.177,4.131
		C0.144,11.674,0.06,11.83,0.06,11.997s0.083,0.323,0.222,0.416l6.177,4.131l5.186,5.245c0.094,0.095,0.222,0.148,0.355,0.148
		s0.262-0.054,0.355-0.148l5.178-5.238l6.185-4.138c0.139-0.094,0.222-0.249,0.222-0.416S23.856,11.674,23.718,11.581z
		 M4.954,12.136c0.229,0.154,0.292,0.465,0.138,0.694c-0.096,0.144-0.255,0.222-0.416,0.222c-0.096,0-0.192-0.027-0.277-0.084
		l-0.831-0.556c-0.139-0.093-0.222-0.249-0.222-0.416s0.083-0.323,0.222-0.416l0.831-0.556c0.231-0.151,0.541-0.091,0.693,0.138
		c0.154,0.229,0.092,0.54-0.138,0.694l-0.209,0.14L4.954,12.136z M5.832,10.065l1.435-0.959c0.231-0.151,0.541-0.09,0.693,0.138
		c0.154,0.23,0.092,0.541-0.138,0.694l-1.435,0.959c-0.085,0.057-0.182,0.084-0.277,0.084c-0.162,0-0.32-0.078-0.416-0.222
		C5.541,10.529,5.603,10.219,5.832,10.065z M7.96,14.75c-0.097,0.144-0.255,0.222-0.416,0.222c-0.096,0-0.192-0.027-0.278-0.085
		l-1.434-0.96c-0.229-0.153-0.291-0.464-0.137-0.693c0.155-0.229,0.464-0.292,0.694-0.137l1.434,0.96
		C8.052,14.21,8.114,14.52,7.96,14.75z M10.435,17.144c-0.097,0.097-0.225,0.145-0.352,0.145c-0.129,0-0.258-0.05-0.355-0.148
		l-1.213-1.227c-0.194-0.196-0.192-0.513,0.004-0.707c0.196-0.195,0.513-0.192,0.707,0.004l1.213,1.227
		C10.633,16.634,10.631,16.95,10.435,17.144z M10.439,7.556L9.226,8.784C9.128,8.883,9,8.932,8.871,8.932
		c-0.127,0-0.254-0.048-0.352-0.145C8.323,8.594,8.321,8.277,8.515,8.081l1.213-1.228c0.194-0.195,0.51-0.199,0.707-0.004
		C10.632,7.044,10.634,7.36,10.439,7.556z M13.059,18.367l-0.703,0.711c-0.094,0.095-0.222,0.148-0.355,0.148
		s-0.262-0.054-0.355-0.148l-0.703-0.711c-0.194-0.196-0.192-0.513,0.004-0.707c0.197-0.194,0.513-0.192,0.707,0.004L12,18.015
		l0.348-0.352c0.194-0.196,0.51-0.198,0.707-0.004C13.251,17.854,13.253,18.171,13.059,18.367z M13.055,6.334
		c-0.098,0.097-0.225,0.145-0.352,0.145c-0.129,0-0.258-0.05-0.355-0.148L12,5.978L11.652,6.33c-0.194,0.196-0.51,0.198-0.707,0.004
		c-0.196-0.194-0.198-0.511-0.004-0.707l0.703-0.711c0.188-0.189,0.523-0.189,0.711,0l0.703,0.711
		C13.253,5.823,13.251,6.139,13.055,6.334z M15.485,15.913l-1.213,1.228c-0.098,0.099-0.227,0.148-0.355,0.148
		c-0.127,0-0.254-0.048-0.352-0.145c-0.196-0.194-0.198-0.511-0.004-0.707l1.213-1.228c0.194-0.196,0.51-0.199,0.707-0.004
		C15.677,15.4,15.679,15.717,15.485,15.913z M15.481,8.788c-0.098,0.097-0.225,0.145-0.352,0.145c-0.129,0-0.258-0.05-0.355-0.148
		l-1.213-1.228c-0.194-0.196-0.192-0.513,0.004-0.707c0.197-0.195,0.513-0.191,0.707,0.004l1.213,1.228
		C15.679,8.277,15.677,8.594,15.481,8.788z M16.04,9.244c0.154-0.229,0.465-0.291,0.694-0.137l1.434,0.96
		c0.229,0.153,0.291,0.464,0.137,0.693c-0.097,0.144-0.255,0.222-0.416,0.222c-0.096,0-0.192-0.027-0.278-0.085l-1.434-0.96
		C15.948,9.784,15.886,9.473,16.04,9.244z M18.168,13.928l-1.435,0.959c-0.085,0.057-0.182,0.084-0.277,0.084
		c-0.162,0-0.32-0.078-0.416-0.222c-0.154-0.23-0.092-0.541,0.138-0.694l1.435-0.959c0.231-0.152,0.54-0.091,0.693,0.138
		C18.459,13.465,18.397,13.775,18.168,13.928z M20.433,12.413l-0.831,0.556c-0.085,0.057-0.182,0.084-0.277,0.084
		c-0.162,0-0.32-0.078-0.416-0.222c-0.154-0.229-0.092-0.54,0.138-0.694l0.209-0.14l-0.209-0.14
		c-0.229-0.154-0.292-0.465-0.138-0.694c0.153-0.229,0.464-0.289,0.693-0.138l0.831,0.556c0.139,0.093,0.222,0.249,0.222,0.416
		S20.572,12.32,20.433,12.413z"/>
</g>
<g id="Dashed_Frame_8">
</g>
<g id="Dashed_Frame_9">
</g>
<g id="Dashed_Frame_10">
</g>
<g id="Dashed_Frame_11">
</g>
<g id="Dashed_Frame_12">
</g>
<g id="Dashed_Frame_13">
</g>
<g id="Dashed_Frame_14">
</g>
<g id="Dashed_Frame_15">
</g>
<g id="Dashed_Frame_16">
</g>
<g id="Dashed_Frame_17">
</g>
<g id="Dashed_Frame_18">
</g>
<g id="Dashed_Frame_19">
</g>
<g id="Dashed_Frame_20">
</g>
<g id="Dashed_Frame_25">
</g>
<g id="Dashed_Frame_26">
</g>
<g id="Dashed_Frame_27">
</g>
<g id="Dashed_Frame_28">
</g>
<g id="Dashed_Frame_29">
</g>
<g id="Dashed_Frame_30">
</g>
<g id="Dashed_Frame_31">
</g>
<g id="Dashed_Frame_32">
</g>
<g id="Dashed_Frame_33">
</g>
<g id="Dashed_Frame_35">
</g>
</svg>
