<?xml version="1.0" encoding="iso-8859-1"?>
<!-- Generator: Adobe Illustrator 19.2.1, SVG Export Plug-In . SVG Version: 6.00 Build 0)  -->
<svg version="1.1" xmlns="http://www.w3.org/2000/svg" xmlns:xlink="http://www.w3.org/1999/xlink" x="0px" y="0px"
	 viewBox="0 0 24 24" style="enable-background:new 0 0 24 24;" xml:space="preserve">
<g id="Photo_frame">
</g>
<g id="Photo_frame_2">
</g>
<g id="Photo_frame_3">
</g>
<g id="Photo_frame__4">
</g>
<g id="Photo_frame_5">
</g>
<g id="Photo_frame_6">
</g>
<g id="Photo_frame_7">
</g>
<g id="Round_Frame_1">
</g>
<g id="Rectangle_Frame_1">
</g>
<g id="Square_Frame_1">
</g>
<g id="Rectangle_Frame_2">
</g>
<g id="Oval_Frame_1">
</g>
<g id="Round_Frame_2">
</g>
<g id="Rectangle_Frame_3">
</g>
<g id="Rectangle_Frame_4">
</g>
<g id="Rectangle_Frame_5">
</g>
<g id="Square_Frame_2">
</g>
<g id="Rectangle_Frame_6">
</g>
<g id="Rectangle_Frame_7">
</g>
<g id="Oval_Frame_2">
</g>
<g id="Round_Frame_3">
</g>
<g id="Rectangle_Frame_8">
</g>
<g id="Square_Frame_3">
</g>
<g id="Rectangle_Frame_9">
</g>
<g id="Rectangle_Frame_10">
</g>
<g id="Square_Frame_4">
</g>
<g id="Rectangle_Frame_11">
</g>
<g id="Rectangle_Frame_12">
</g>
<g id="Square_Frame_5">
</g>
<g id="Rectangle_Frame_13">
</g>
<g id="Round_Frame">
</g>
<g id="Frame_2">
</g>
<g id="Frame_1">
</g>
<g id="Frame_3">
</g>
<g id="Frame_4">
</g>
<g id="Frame_5">
</g>
<g id="Frame_6">
</g>
<g id="Frame_7">
</g>
<g id="Frame_8">
</g>
<g id="Frame_9">
</g>
<g id="Frame_10">
</g>
<g id="Frame_11">
</g>
<g id="Frame_12">
</g>
<g id="Frame_13">
</g>
<g id="Frame_14">
</g>
<g id="Frame_15">
</g>
<g id="Frame_16">
</g>
<g id="Frame_17">
</g>
<g id="Frame_18">
</g>
<g id="Frame_19">
</g>
<g id="Frame_20">
</g>
<g id="Frame_21">
</g>
<g id="Frame_22">
</g>
<g id="Frame_23">
</g>
<g id="Frame_24">
</g>
<g id="Frame_25">
</g>
<g id="Frame_26">
</g>
<g id="Frame_27">
</g>
<g id="Frame_28">
</g>
<g id="Frame_29">
</g>
<g id="Frame_30">
</g>
<g id="Frame_Hole_1">
</g>
<g id="Frame_Hole_2">
</g>
<g id="Frame_Hole_3">
</g>
<g id="Frame_Hole_4">
</g>
<g id="Frame_31">
</g>
<g id="Frame_32">
</g>
<g id="Frame_33">
</g>
<g id="Frame_34">
</g>
<g id="Frame_35">
</g>
<g id="Dashed_Frame_1">
</g>
<g id="Dashed_Frame_2">
</g>
<g id="Dashed_Frame_3">
</g>
<g id="Dashed_Frame_4">
</g>
<g id="Dashed_Frame_5">
</g>
<g id="Dashed_Frame_6">
</g>
<g id="Dashed_Frame_7">
</g>
<g id="Dashed_Frame_8">
</g>
<g id="Dashed_Frame_9">
</g>
<g id="Dashed_Frame_10">
</g>
<g id="Dashed_Frame_11">
</g>
<g id="Dashed_Frame_12">
</g>
<g id="Dashed_Frame_13">
</g>
<g id="Dashed_Frame_14">
</g>
<g id="Dashed_Frame_15">
</g>
<g id="Dashed_Frame_16">
</g>
<g id="Dashed_Frame_17">
</g>
<g id="Dashed_Frame_18">
</g>
<g id="Dashed_Frame_19">
</g>
<g id="Dashed_Frame_20">
</g>
<g id="Dashed_Frame_25">
</g>
<g id="Dashed_Frame_26">
</g>
<g id="Dashed_Frame_27">
</g>
<g id="Dashed_Frame_28">
</g>
<g id="Dashed_Frame_29">
</g>
<g id="Dashed_Frame_30">
</g>
<g id="Dashed_Frame_31">
</g>
<g id="Dashed_Frame_32">
	<path d="M23,9.887V8.499c0-0.276-0.224-0.5-0.5-0.5H19c0-1.103-0.897-2-2-2c-0.551,0-1-0.448-1-1c0-0.248-0.182-0.458-0.427-0.495
		l-1.5-0.222c-0.143-0.018-0.289,0.021-0.398,0.115c-0.453,0.388-1.032,0.602-1.721,0.602c-0.598,0-1.176-0.213-1.629-0.602
		c-0.11-0.094-0.256-0.133-0.398-0.115l-1.5,0.222C8.182,4.541,8,4.751,8,4.999c0,0.552-0.449,1-1,1c-1.103,0-2,0.897-2,2H1.5
		c-0.276,0-0.5,0.224-0.5,0.5v1.388c-0.676,0.504-1.052,1.296-0.994,2.078C-0.052,12.809,0.324,13.607,1,14.111v1.388
		c0,0.276,0.224,0.5,0.5,0.5H5c0,1.103,0.897,2,2,2c0.551,0,1,0.448,1,1c0,0.248,0.182,0.458,0.427,0.494l1.5,0.223
		c0.141,0.022,0.289-0.021,0.399-0.115c0.452-0.388,1.031-0.602,1.72-0.602c0.598,0,1.176,0.214,1.629,0.603
		c0.091,0.078,0.207,0.12,0.326,0.12c0.024,0,0.049-0.002,0.073-0.006l1.5-0.223C15.818,19.457,16,19.247,16,18.999
		c0-0.552,0.449-1,1-1c1.103,0,2-0.897,2-2h3.5c0.276,0,0.5-0.224,0.5-0.5v-1.388c0.676-0.504,1.052-1.296,0.994-2.078
		C24.052,11.191,23.676,10.392,23,9.887z M4.5,13.999h-1c-0.276,0-0.5-0.224-0.5-0.5v-0.518l-0.746-0.434
		c-0.165-0.097-0.261-0.277-0.247-0.468l0.006-0.088l-0.008-0.064c-0.026-0.2,0.07-0.396,0.244-0.497l0.748-0.436l0.002-0.499
		C3,10.222,3.223,9.999,3.499,9.999h1c0.276,0,0.5,0.224,0.5,0.5s-0.224,0.5-0.5,0.5H3.996l-0.001,0.287
		c-0.001,0.177-0.095,0.34-0.249,0.429L3.28,11.987l0.472,0.273C3.905,12.351,4,12.516,4,12.693v0.306h0.5
		c0.276,0,0.5,0.224,0.5,0.5S4.776,13.999,4.5,13.999z M6.642,9.999h2.143c0.276,0,0.5,0.224,0.5,0.5s-0.224,0.5-0.5,0.5H6.642
		c-0.276,0-0.5-0.224-0.5-0.5S6.365,9.999,6.642,9.999z M8.786,13.999H6.643c-0.276,0-0.5-0.224-0.5-0.5s0.224-0.5,0.5-0.5h2.143
		c0.276,0,0.5,0.224,0.5,0.5S9.062,13.999,8.786,13.999z M10.928,9.999h2.143c0.276,0,0.5,0.224,0.5,0.5s-0.224,0.5-0.5,0.5h-2.143
		c-0.276,0-0.5-0.224-0.5-0.5S10.651,9.999,10.928,9.999z M13.072,13.999h-2.143c-0.276,0-0.5-0.224-0.5-0.5s0.224-0.5,0.5-0.5
		h2.143c0.276,0,0.5,0.224,0.5,0.5S13.349,13.999,13.072,13.999z M15.214,9.999h2.143c0.276,0,0.5,0.224,0.5,0.5s-0.224,0.5-0.5,0.5
		h-2.143c-0.276,0-0.5-0.224-0.5-0.5S14.937,9.999,15.214,9.999z M17.358,13.999h-2.143c-0.276,0-0.5-0.224-0.5-0.5
		s0.224-0.5,0.5-0.5h2.143c0.276,0,0.5,0.224,0.5,0.5S17.635,13.999,17.358,13.999z M21.751,12.567l-0.748,0.436l-0.002,0.499
		c-0.001,0.274-0.225,0.497-0.5,0.497h-1c-0.276,0-0.5-0.224-0.5-0.5s0.224-0.5,0.5-0.5h0.502l0.001-0.287
		c0.001-0.177,0.095-0.34,0.249-0.429l0.467-0.272l-0.472-0.275C20.095,11.647,20,11.482,20,11.304v-0.305h-0.5
		c-0.276,0-0.5-0.224-0.5-0.5s0.224-0.5,0.5-0.5h1c0.276,0,0.5,0.224,0.5,0.5v0.518l0.744,0.434c0.165,0.095,0.26,0.275,0.248,0.465
		l-0.006,0.086l0.009,0.064C22.024,12.267,21.928,12.466,21.751,12.567z"/>
</g>
<g id="Dashed_Frame_33">
</g>
<g id="Dashed_Frame_35">
</g>
</svg>
