<?xml version="1.0" encoding="iso-8859-1"?>
<!-- Generator: Adobe Illustrator 19.2.1, SVG Export Plug-In . SVG Version: 6.00 Build 0)  -->
<svg version="1.1" xmlns="http://www.w3.org/2000/svg" xmlns:xlink="http://www.w3.org/1999/xlink" x="0px" y="0px"
	 viewBox="0 0 24 24" style="enable-background:new 0 0 24 24;" xml:space="preserve">
<g id="Photo_frame">
</g>
<g id="Photo_frame_2">
</g>
<g id="Photo_frame_3">
</g>
<g id="Photo_frame__4">
</g>
<g id="Photo_frame_5">
</g>
<g id="Photo_frame_6">
</g>
<g id="Photo_frame_7">
</g>
<g id="Round_Frame_1">
</g>
<g id="Rectangle_Frame_1">
</g>
<g id="Square_Frame_1">
</g>
<g id="Rectangle_Frame_2">
</g>
<g id="Oval_Frame_1">
</g>
<g id="Round_Frame_2">
</g>
<g id="Rectangle_Frame_3">
</g>
<g id="Rectangle_Frame_4">
</g>
<g id="Rectangle_Frame_5">
</g>
<g id="Square_Frame_2">
</g>
<g id="Rectangle_Frame_6">
</g>
<g id="Rectangle_Frame_7">
</g>
<g id="Oval_Frame_2">
</g>
<g id="Round_Frame_3">
</g>
<g id="Rectangle_Frame_8">
</g>
<g id="Square_Frame_3">
</g>
<g id="Rectangle_Frame_9">
</g>
<g id="Rectangle_Frame_10">
</g>
<g id="Square_Frame_4">
</g>
<g id="Rectangle_Frame_11">
</g>
<g id="Rectangle_Frame_12">
</g>
<g id="Square_Frame_5">
</g>
<g id="Rectangle_Frame_13">
</g>
<g id="Round_Frame">
</g>
<g id="Frame_2">
</g>
<g id="Frame_1">
</g>
<g id="Frame_3">
</g>
<g id="Frame_4">
</g>
<g id="Frame_5">
</g>
<g id="Frame_6">
</g>
<g id="Frame_7">
</g>
<g id="Frame_8">
</g>
<g id="Frame_9">
</g>
<g id="Frame_10">
</g>
<g id="Frame_11">
</g>
<g id="Frame_12">
</g>
<g id="Frame_13">
</g>
<g id="Frame_14">
</g>
<g id="Frame_15">
</g>
<g id="Frame_16">
</g>
<g id="Frame_17">
</g>
<g id="Frame_18">
</g>
<g id="Frame_19">
</g>
<g id="Frame_20">
</g>
<g id="Frame_21">
</g>
<g id="Frame_22">
</g>
<g id="Frame_23">
</g>
<g id="Frame_24">
</g>
<g id="Frame_25">
</g>
<g id="Frame_26">
</g>
<g id="Frame_27">
</g>
<g id="Frame_28">
</g>
<g id="Frame_29">
</g>
<g id="Frame_30">
</g>
<g id="Frame_Hole_1">
</g>
<g id="Frame_Hole_2">
</g>
<g id="Frame_Hole_3">
</g>
<g id="Frame_Hole_4">
</g>
<g id="Frame_31">
</g>
<g id="Frame_32">
</g>
<g id="Frame_33">
</g>
<g id="Frame_34">
</g>
<g id="Frame_35">
</g>
<g id="Dashed_Frame_1">
</g>
<g id="Dashed_Frame_2">
</g>
<g id="Dashed_Frame_3">
</g>
<g id="Dashed_Frame_4">
</g>
<g id="Dashed_Frame_5">
</g>
<g id="Dashed_Frame_6">
</g>
<g id="Dashed_Frame_7">
</g>
<g id="Dashed_Frame_8">
</g>
<g id="Dashed_Frame_9">
</g>
<g id="Dashed_Frame_10">
</g>
<g id="Dashed_Frame_11">
</g>
<g id="Dashed_Frame_12">
</g>
<g id="Dashed_Frame_13">
</g>
<g id="Dashed_Frame_14">
</g>
<g id="Dashed_Frame_15">
</g>
<g id="Dashed_Frame_16">
</g>
<g id="Dashed_Frame_17">
</g>
<g id="Dashed_Frame_18">
</g>
<g id="Dashed_Frame_19">
</g>
<g id="Dashed_Frame_20">
</g>
<g id="Dashed_Frame_25">
</g>
<g id="Dashed_Frame_26">
</g>
<g id="Dashed_Frame_27">
</g>
<g id="Dashed_Frame_28">
</g>
<g id="Dashed_Frame_29">
</g>
<g id="Dashed_Frame_30">
</g>
<g id="Dashed_Frame_31">
</g>
<g id="Dashed_Frame_32">
</g>
<g id="Dashed_Frame_33">
	<path d="M23.5,9h-1.695L21.76,8.913c-0.018-0.035-0.04-0.067-0.065-0.098l-1.876-2.183l-1.975-2.055
		c-0.064-0.067-0.147-0.115-0.238-0.139L12.13,3.018c-0.086-0.023-0.174-0.023-0.26,0L6.395,4.439
		C6.304,4.463,6.221,4.511,6.156,4.578L4.164,6.653L2.307,8.814c-0.025,0.03-0.048,0.063-0.065,0.097L2.195,9H0.5
		C0.224,9,0,9.224,0,9.5v5C0,14.776,0.224,15,0.5,15h1.695l0.045,0.087c0.018,0.035,0.04,0.067,0.065,0.098l1.876,2.183l1.975,2.055
		c0.064,0.067,0.147,0.115,0.238,0.139l5.476,1.422C11.913,20.994,11.956,21,12,21s0.087-0.006,0.13-0.018l5.475-1.422
		c0.092-0.023,0.175-0.071,0.239-0.139l1.992-2.075l1.857-2.161c0.025-0.03,0.048-0.063,0.065-0.097L21.805,15H23.5
		c0.276,0,0.5-0.224,0.5-0.5v-5C24,9.224,23.776,9,23.5,9z M6.943,6.646L7.2,6.378c0.064-0.067,0.147-0.115,0.238-0.139l1.563-0.393
		C9.271,5.779,9.541,5.942,9.609,6.21c0.066,0.269-0.096,0.54-0.363,0.607L7.821,7.175L7.664,7.339
		C7.566,7.44,7.435,7.492,7.304,7.492c-0.125,0-0.249-0.046-0.347-0.14C6.758,7.162,6.752,6.845,6.943,6.646z M3.561,12.354
		c0.195,0.195,0.195,0.512,0,0.707c-0.098,0.098-0.226,0.146-0.354,0.146s-0.256-0.049-0.354-0.146l-0.707-0.707
		c-0.195-0.195-0.195-0.512,0-0.707l0.707-0.707c0.195-0.195,0.512-0.195,0.707,0s0.195,0.512,0,0.707L3.207,12L3.561,12.354z
		 M6.262,15.952c-0.095,0.081-0.211,0.121-0.326,0.121c-0.141,0-0.28-0.059-0.379-0.174l-1.292-1.504
		c-0.181-0.21-0.156-0.525,0.053-0.705c0.211-0.179,0.526-0.157,0.705,0.053l1.292,1.504C6.495,15.457,6.471,15.772,6.262,15.952z
		 M6.314,8.754l-1.292,1.504c-0.099,0.115-0.238,0.174-0.379,0.174c-0.115,0-0.231-0.04-0.326-0.121
		c-0.209-0.18-0.233-0.495-0.053-0.705l1.292-1.504c0.18-0.209,0.495-0.232,0.705-0.053C6.471,8.229,6.495,8.544,6.314,8.754z
		 M9.61,17.79c-0.058,0.227-0.261,0.378-0.485,0.378c-0.04,0-0.081-0.005-0.122-0.015l-1.564-0.393
		c-0.091-0.023-0.173-0.071-0.238-0.139l-0.257-0.267c-0.191-0.198-0.186-0.516,0.014-0.707c0.198-0.189,0.515-0.187,0.707,0.014
		l0.157,0.163l1.426,0.357C9.515,17.25,9.677,17.521,9.61,17.79z M10.912,5.345l0.958-0.257c0.086-0.021,0.176-0.022,0.26,0.001
		l0.957,0.258c0.267,0.071,0.425,0.346,0.353,0.612c-0.06,0.224-0.262,0.37-0.482,0.37c-0.043,0-0.087-0.006-0.13-0.018L12,6.089
		l-0.828,0.223c-0.269,0.067-0.541-0.087-0.613-0.354C10.487,5.69,10.646,5.417,10.912,5.345z M13.088,18.653l-0.958,0.258
		c-0.043,0.012-0.086,0.018-0.13,0.018s-0.088-0.006-0.13-0.018l-0.957-0.258c-0.267-0.071-0.425-0.346-0.353-0.612
		c0.071-0.267,0.35-0.423,0.612-0.353L12,17.911l0.828-0.223c0.266-0.07,0.541,0.086,0.612,0.353
		C13.513,18.308,13.354,18.582,13.088,18.653z M17.057,17.354L16.8,17.622c-0.064,0.067-0.147,0.115-0.239,0.139l-1.564,0.392
		c-0.04,0.01-0.081,0.015-0.121,0.015c-0.225,0-0.428-0.151-0.485-0.379c-0.066-0.268,0.096-0.539,0.364-0.606l1.425-0.356
		l0.157-0.164c0.191-0.198,0.508-0.205,0.707-0.014C17.242,16.838,17.248,17.155,17.057,17.354z M17.043,7.352
		c-0.097,0.093-0.222,0.14-0.347,0.14c-0.131,0-0.262-0.051-0.36-0.153l-0.157-0.163l-1.426-0.357
		c-0.268-0.067-0.43-0.339-0.363-0.607c0.067-0.267,0.336-0.43,0.607-0.363l1.564,0.393c0.091,0.023,0.173,0.071,0.238,0.139
		l0.257,0.267C17.248,6.843,17.242,7.16,17.043,7.352z M19.735,14.395l-1.292,1.504c-0.099,0.115-0.238,0.174-0.379,0.174
		c-0.115,0-0.231-0.04-0.326-0.121c-0.209-0.18-0.233-0.495-0.053-0.705l1.292-1.504c0.181-0.209,0.496-0.231,0.705-0.053
		C19.892,13.869,19.916,14.185,19.735,14.395z M19.683,10.31c-0.095,0.081-0.211,0.121-0.326,0.121c-0.141,0-0.28-0.059-0.379-0.174
		l-1.292-1.504c-0.181-0.21-0.156-0.525,0.053-0.705c0.211-0.18,0.526-0.156,0.705,0.053l1.292,1.504
		C19.916,9.814,19.892,10.13,19.683,10.31z M21.854,12.354l-0.707,0.707c-0.098,0.098-0.226,0.146-0.354,0.146
		s-0.256-0.049-0.354-0.146c-0.195-0.195-0.195-0.512,0-0.707L20.793,12l-0.354-0.354c-0.195-0.195-0.195-0.512,0-0.707
		s0.512-0.195,0.707,0l0.707,0.707C22.049,11.842,22.049,12.158,21.854,12.354z"/>
</g>
<g id="Dashed_Frame_35">
</g>
</svg>
