<?xml version="1.0" encoding="iso-8859-1"?>
<!-- Generator: Adobe Illustrator 19.2.1, SVG Export Plug-In . SVG Version: 6.00 Build 0)  -->
<svg version="1.1" xmlns="http://www.w3.org/2000/svg" xmlns:xlink="http://www.w3.org/1999/xlink" x="0px" y="0px"
	 viewBox="0 0 24 24" style="enable-background:new 0 0 24 24;" xml:space="preserve">
<g id="Photo_frame">
</g>
<g id="Photo_frame_2">
</g>
<g id="Photo_frame_3">
</g>
<g id="Photo_frame__4">
</g>
<g id="Photo_frame_5">
</g>
<g id="Photo_frame_6">
</g>
<g id="Photo_frame_7">
</g>
<g id="Round_Frame_1">
</g>
<g id="Rectangle_Frame_1">
</g>
<g id="Square_Frame_1">
</g>
<g id="Rectangle_Frame_2">
</g>
<g id="Oval_Frame_1">
</g>
<g id="Round_Frame_2">
</g>
<g id="Rectangle_Frame_3">
</g>
<g id="Rectangle_Frame_4">
</g>
<g id="Rectangle_Frame_5">
</g>
<g id="Square_Frame_2">
</g>
<g id="Rectangle_Frame_6">
</g>
<g id="Rectangle_Frame_7">
</g>
<g id="Oval_Frame_2">
</g>
<g id="Round_Frame_3">
</g>
<g id="Rectangle_Frame_8">
</g>
<g id="Square_Frame_3">
</g>
<g id="Rectangle_Frame_9">
</g>
<g id="Rectangle_Frame_10">
</g>
<g id="Square_Frame_4">
</g>
<g id="Rectangle_Frame_11">
</g>
<g id="Rectangle_Frame_12">
</g>
<g id="Square_Frame_5">
</g>
<g id="Rectangle_Frame_13">
</g>
<g id="Round_Frame">
</g>
<g id="Frame_2">
</g>
<g id="Frame_1">
</g>
<g id="Frame_3">
</g>
<g id="Frame_4">
</g>
<g id="Frame_5">
</g>
<g id="Frame_6">
</g>
<g id="Frame_7">
</g>
<g id="Frame_8">
</g>
<g id="Frame_9">
</g>
<g id="Frame_10">
</g>
<g id="Frame_11">
</g>
<g id="Frame_12">
</g>
<g id="Frame_13">
</g>
<g id="Frame_14">
</g>
<g id="Frame_15">
</g>
<g id="Frame_16">
</g>
<g id="Frame_17">
</g>
<g id="Frame_18">
</g>
<g id="Frame_19">
</g>
<g id="Frame_20">
</g>
<g id="Frame_21">
</g>
<g id="Frame_22">
</g>
<g id="Frame_23">
</g>
<g id="Frame_24">
</g>
<g id="Frame_25">
</g>
<g id="Frame_26">
</g>
<g id="Frame_27">
</g>
<g id="Frame_28">
</g>
<g id="Frame_29">
</g>
<g id="Frame_30">
</g>
<g id="Frame_Hole_1">
</g>
<g id="Frame_Hole_2">
</g>
<g id="Frame_Hole_3">
</g>
<g id="Frame_Hole_4">
</g>
<g id="Frame_31">
</g>
<g id="Frame_32">
</g>
<g id="Frame_33">
</g>
<g id="Frame_34">
</g>
<g id="Frame_35">
</g>
<g id="Dashed_Frame_1">
</g>
<g id="Dashed_Frame_2">
</g>
<g id="Dashed_Frame_3">
</g>
<g id="Dashed_Frame_4">
</g>
<g id="Dashed_Frame_5">
</g>
<g id="Dashed_Frame_6">
</g>
<g id="Dashed_Frame_7">
</g>
<g id="Dashed_Frame_8">
</g>
<g id="Dashed_Frame_9">
</g>
<g id="Dashed_Frame_10">
</g>
<g id="Dashed_Frame_11">
</g>
<g id="Dashed_Frame_12">
</g>
<g id="Dashed_Frame_13">
</g>
<g id="Dashed_Frame_14">
</g>
<g id="Dashed_Frame_15">
</g>
<g id="Dashed_Frame_16">
</g>
<g id="Dashed_Frame_17">
</g>
<g id="Dashed_Frame_18">
</g>
<g id="Dashed_Frame_19">
	<path d="M23.173,9.144c0.279-1.686-0.689-3.315-2.302-3.877l-2.828-0.984c-0.623-0.216-1.217-0.516-1.764-0.889l-2.132-1.456
		c-1.501-1.025-3.573-1.025-5.075,0L6.941,3.394C6.393,3.767,5.8,4.066,5.176,4.282L2.35,5.267C0.737,5.828-0.232,7.459,0.048,9.145
		l0.403,2.435c0.081,0.486,0.081,0.979,0,1.467l-0.27,1.637c-0.357,2.165,0.888,4.261,2.961,4.982l2.033,0.707
		c0.624,0.217,1.217,0.516,1.764,0.89l2.132,1.455c0.75,0.513,1.628,0.783,2.537,0.783s1.787-0.271,2.537-0.783l2.132-1.455
		c0.546-0.374,1.14-0.673,1.764-0.89l2.032-0.707c2.073-0.722,3.319-2.817,2.96-4.983l-0.268-1.621c-0.081-0.486-0.081-0.98,0-1.468
		L23.173,9.144z M17.664,6.799c0.091-0.262,0.377-0.397,0.636-0.309l1.889,0.657c0.261,0.091,0.399,0.376,0.308,0.637
		c-0.072,0.207-0.265,0.336-0.472,0.336c-0.055,0-0.11-0.009-0.164-0.027l-1.889-0.657C17.711,7.345,17.574,7.06,17.664,6.799z
		 M2,8.57l0.501-0.04l0.5,0.02l0.006,0.104l0.293,1.77c0.045,0.272-0.139,0.53-0.412,0.575c-0.027,0.005-0.055,0.007-0.082,0.007
		c-0.24,0-0.452-0.174-0.493-0.418l-0.293-1.77C2.007,8.734,2,8.652,2,8.57z M2.257,14.391l0.168-1.02
		c0.048-0.297,0.077-0.594,0.084-0.893c0.007-0.275,0.215-0.481,0.513-0.487c0.276,0.007,0.494,0.237,0.487,0.513
		c-0.009,0.343-0.042,0.688-0.097,1.029l-0.169,1.02c-0.041,0.245-0.252,0.419-0.493,0.419c-0.027,0-0.054-0.002-0.082-0.007
		C2.396,14.92,2.212,14.663,2.257,14.391z M4.979,17.656c-0.071,0.206-0.265,0.336-0.472,0.336c-0.054,0-0.11-0.009-0.164-0.027
		L3.8,17.776c-0.567-0.198-1.045-0.593-1.345-1.111c-0.138-0.239-0.056-0.545,0.183-0.683c0.238-0.14,0.544-0.057,0.683,0.183
		c0.18,0.312,0.466,0.548,0.807,0.666l0.543,0.188C4.932,17.11,5.07,17.396,4.979,17.656z M4.097,7.835
		c-0.055,0.019-0.11,0.027-0.165,0.027c-0.207,0-0.4-0.129-0.472-0.336C3.369,7.266,3.507,6.98,3.768,6.89l1.889-0.657
		c0.262-0.089,0.546,0.047,0.637,0.309c0.091,0.261-0.047,0.546-0.308,0.637L4.097,7.835z M8.586,19.348
		c-0.096,0.146-0.256,0.227-0.419,0.227c-0.094,0-0.188-0.026-0.272-0.081c-0.53-0.346-1.097-0.639-1.684-0.871
		c-0.257-0.102-0.383-0.392-0.281-0.648s0.393-0.386,0.648-0.281c0.65,0.257,1.277,0.581,1.863,0.963
		C8.671,18.807,8.737,19.116,8.586,19.348z M8.632,5.872C8.392,6.036,8.145,6.19,7.893,6.333C7.815,6.377,7.731,6.397,7.647,6.397
		c-0.174,0-0.344-0.091-0.436-0.254C7.076,5.903,7.16,5.599,7.4,5.462c0.228-0.129,0.451-0.268,0.668-0.416l0.967-0.661
		C9.264,4.23,9.575,4.288,9.73,4.516C9.886,4.744,9.828,5.055,9.6,5.211L8.632,5.872z M13.015,21.067
		C12.603,21.35,12.116,21.5,11.61,21.5c-0.505,0-0.992-0.15-1.41-0.435l-0.662-0.452c-0.229-0.156-0.287-0.467-0.131-0.695
		c0.156-0.228,0.467-0.285,0.695-0.131l0.662,0.452c0.501,0.342,1.192,0.341,1.692-0.001l0.574,0.819L13.015,21.067z M13.31,4.392
		c-0.097,0.143-0.254,0.219-0.414,0.219c-0.097,0-0.195-0.028-0.281-0.087l-0.159-0.108c-0.378-0.257-0.864-0.325-1.296-0.192
		c-0.262,0.084-0.543-0.063-0.627-0.326C10.45,3.633,10.597,3.353,10.86,3.27c0.722-0.228,1.53-0.108,2.159,0.319l0.159,0.108
		C13.407,3.853,13.466,4.163,13.31,4.392z M16.331,18.923c-0.408,0.2-0.805,0.432-1.181,0.688l-0.464,0.316
		c-0.086,0.059-0.184,0.087-0.281,0.087c-0.16,0-0.316-0.076-0.414-0.218c-0.156-0.229-0.097-0.539,0.131-0.695l0.463-0.316
		c0.415-0.283,0.854-0.539,1.304-0.761c0.249-0.12,0.548-0.02,0.669,0.229C16.681,18.501,16.579,18.801,16.331,18.923z M16.72,6.468
		c-0.085,0.182-0.265,0.288-0.453,0.288c-0.071,0-0.143-0.015-0.212-0.047c-0.51-0.239-1.003-0.521-1.467-0.838l-0.321-0.219
		c-0.228-0.155-0.287-0.467-0.131-0.694c0.155-0.229,0.466-0.286,0.695-0.132l0.321,0.219c0.42,0.287,0.867,0.542,1.329,0.758
		C16.729,5.92,16.837,6.218,16.72,6.468z M20.122,17.396c-0.212,0.163-0.45,0.291-0.705,0.38l-1.281,0.445
		c-0.054,0.019-0.109,0.027-0.164,0.027c-0.207,0-0.4-0.129-0.472-0.336c-0.091-0.261,0.047-0.546,0.308-0.637l1.281-0.445
		c0.154-0.053,0.296-0.13,0.423-0.228c0.22-0.167,0.534-0.126,0.701,0.092C20.382,16.914,20.341,17.229,20.122,17.396z
		 M20.631,15.742c-0.015,0.001-0.029,0.002-0.043,0.002c-0.257,0-0.476-0.197-0.498-0.458l-0.015-0.118l-0.299-1.833
		c-0.036-0.273,0.156-0.524,0.43-0.562c0.276-0.035,0.524,0.157,0.561,0.431l0.295,1.804c0.011,0.066,0.019,0.13,0.024,0.194
		C21.11,15.477,20.906,15.719,20.631,15.742z M20.795,11.267c-0.041,0.25-0.266,0.463-0.513,0.463c-0.022,0-0.045-0.001-0.068-0.005
		c-0.272-0.045-0.464-0.256-0.42-0.528l0.326-1.975c0.045-0.272,0.297-0.461,0.575-0.412c0.272,0.045,0.457,0.302,0.412,0.574
		L20.795,11.267z"/>
</g>
<g id="Dashed_Frame_20">
</g>
<g id="Dashed_Frame_25">
</g>
<g id="Dashed_Frame_26">
</g>
<g id="Dashed_Frame_27">
</g>
<g id="Dashed_Frame_28">
</g>
<g id="Dashed_Frame_29">
</g>
<g id="Dashed_Frame_30">
</g>
<g id="Dashed_Frame_31">
</g>
<g id="Dashed_Frame_32">
</g>
<g id="Dashed_Frame_33">
</g>
<g id="Dashed_Frame_35">
</g>
</svg>
