<?xml version="1.0" encoding="iso-8859-1"?>
<!-- Generator: Adobe Illustrator 19.2.1, SVG Export Plug-In . SVG Version: 6.00 Build 0)  -->
<svg version="1.1" xmlns="http://www.w3.org/2000/svg" xmlns:xlink="http://www.w3.org/1999/xlink" x="0px" y="0px"
	 viewBox="0 0 24 24" style="enable-background:new 0 0 24 24;" xml:space="preserve">
<g id="Photo_frame">
</g>
<g id="Photo_frame_2">
</g>
<g id="Photo_frame_3">
</g>
<g id="Photo_frame__4">
</g>
<g id="Photo_frame_5">
</g>
<g id="Photo_frame_6">
</g>
<g id="Photo_frame_7">
</g>
<g id="Round_Frame_1">
</g>
<g id="Rectangle_Frame_1">
</g>
<g id="Square_Frame_1">
</g>
<g id="Rectangle_Frame_2">
</g>
<g id="Oval_Frame_1">
</g>
<g id="Round_Frame_2">
</g>
<g id="Rectangle_Frame_3">
</g>
<g id="Rectangle_Frame_4">
</g>
<g id="Rectangle_Frame_5">
</g>
<g id="Square_Frame_2">
</g>
<g id="Rectangle_Frame_6">
</g>
<g id="Rectangle_Frame_7">
</g>
<g id="Oval_Frame_2">
</g>
<g id="Round_Frame_3">
</g>
<g id="Rectangle_Frame_8">
</g>
<g id="Square_Frame_3">
</g>
<g id="Rectangle_Frame_9">
</g>
<g id="Rectangle_Frame_10">
</g>
<g id="Square_Frame_4">
</g>
<g id="Rectangle_Frame_11">
</g>
<g id="Rectangle_Frame_12">
</g>
<g id="Square_Frame_5">
</g>
<g id="Rectangle_Frame_13">
</g>
<g id="Round_Frame">
</g>
<g id="Frame_2">
</g>
<g id="Frame_1">
</g>
<g id="Frame_3">
</g>
<g id="Frame_4">
</g>
<g id="Frame_5">
</g>
<g id="Frame_6">
</g>
<g id="Frame_7">
</g>
<g id="Frame_8">
</g>
<g id="Frame_9">
</g>
<g id="Frame_10">
</g>
<g id="Frame_11">
</g>
<g id="Frame_12">
</g>
<g id="Frame_13">
</g>
<g id="Frame_14">
</g>
<g id="Frame_15">
</g>
<g id="Frame_16">
</g>
<g id="Frame_17">
</g>
<g id="Frame_18">
</g>
<g id="Frame_19">
</g>
<g id="Frame_20">
</g>
<g id="Frame_21">
</g>
<g id="Frame_22">
</g>
<g id="Frame_23">
</g>
<g id="Frame_24">
</g>
<g id="Frame_25">
</g>
<g id="Frame_26">
</g>
<g id="Frame_27">
</g>
<g id="Frame_28">
</g>
<g id="Frame_29">
</g>
<g id="Frame_30">
</g>
<g id="Frame_Hole_1">
</g>
<g id="Frame_Hole_2">
</g>
<g id="Frame_Hole_3">
</g>
<g id="Frame_Hole_4">
</g>
<g id="Frame_31">
</g>
<g id="Frame_32">
</g>
<g id="Frame_33">
</g>
<g id="Frame_34">
</g>
<g id="Frame_35">
</g>
<g id="Dashed_Frame_1">
</g>
<g id="Dashed_Frame_2">
</g>
<g id="Dashed_Frame_3">
</g>
<g id="Dashed_Frame_4">
</g>
<g id="Dashed_Frame_5">
</g>
<g id="Dashed_Frame_6">
</g>
<g id="Dashed_Frame_7">
</g>
<g id="Dashed_Frame_8">
</g>
<g id="Dashed_Frame_9">
</g>
<g id="Dashed_Frame_10">
</g>
<g id="Dashed_Frame_11">
</g>
<g id="Dashed_Frame_12">
</g>
<g id="Dashed_Frame_13">
</g>
<g id="Dashed_Frame_14">
</g>
<g id="Dashed_Frame_15">
	<path d="M21.788,18.469C20.687,18.18,19.5,15.624,19.5,12s1.187-6.18,2.288-6.469c0.163-0.043,0.293-0.164,0.347-0.323
		s0.024-0.334-0.079-0.467c-0.556-0.716-1.67-2.061-1.67-2.061c-0.119-0.145-0.311-0.208-0.493-0.169
		c-2.653,0.589-5.504-0.123-7.566-1.892c-0.187-0.16-0.464-0.16-0.65,0C9.613,2.388,6.763,3.102,4.108,2.512
		c-0.184-0.04-0.374,0.025-0.494,0.169c0,0-1.114,1.345-1.67,2.061C1.842,4.873,1.812,5.049,1.866,5.208s0.184,0.28,0.347,0.323
		C3.312,5.82,4.5,8.376,4.5,12s-1.188,6.18-2.288,6.469c-0.163,0.043-0.293,0.164-0.347,0.323s-0.024,0.335,0.079,0.467
		c0.556,0.716,1.67,2.061,1.67,2.061c0.12,0.144,0.311,0.208,0.494,0.169c2.652-0.588,5.504,0.123,7.566,1.892
		c0.093,0.08,0.209,0.12,0.325,0.12s0.232-0.04,0.325-0.12c2.063-1.769,4.914-2.479,7.566-1.892
		c0.181,0.039,0.374-0.025,0.494-0.169c0,0,1.114-1.345,1.67-2.061c0.103-0.132,0.133-0.308,0.079-0.467S21.95,18.512,21.788,18.469
		z M17.066,7.582c0.073-0.267,0.347-0.421,0.615-0.35c0.266,0.074,0.422,0.349,0.349,0.615c-0.142,0.515-0.257,1.063-0.343,1.633
		c-0.038,0.248-0.251,0.426-0.494,0.426c-0.025,0-0.05-0.002-0.075-0.006c-0.273-0.041-0.461-0.296-0.42-0.568
		C16.79,8.723,16.914,8.135,17.066,7.582z M10.904,3.531c0.282-0.145,0.559-0.303,0.828-0.474c0.163-0.104,0.372-0.104,0.535,0
		c0.27,0.171,0.546,0.329,0.829,0.475c0.246,0.126,0.342,0.428,0.216,0.673c-0.126,0.246-0.426,0.346-0.673,0.216
		C12.423,4.31,12.209,4.192,12,4.067c-0.21,0.125-0.424,0.243-0.641,0.354c-0.073,0.037-0.15,0.055-0.227,0.055
		c-0.182,0-0.357-0.1-0.446-0.272C10.561,3.958,10.658,3.657,10.904,3.531z M7.304,9.345c0.041,0.272-0.147,0.527-0.42,0.568
		C6.858,9.917,6.833,9.919,6.809,9.919c-0.243,0-0.457-0.178-0.494-0.426c-0.085-0.569-0.201-1.12-0.342-1.637
		C5.899,7.59,6.056,7.315,6.323,7.242c0.264-0.068,0.542,0.084,0.614,0.351C7.088,8.146,7.212,8.736,7.304,9.345z M4.974,4.948
		c0.095-0.16,0.274-0.271,0.457-0.243c0.32,0.017,0.64,0.02,0.959,0.007c0.275,0.002,0.507,0.205,0.518,0.482
		c0.01,0.275-0.206,0.508-0.481,0.518C6.367,5.714,6.308,5.716,6.249,5.717c0.026,0.055,0.051,0.109,0.077,0.165
		C6.44,6.133,6.329,6.43,6.077,6.543C6.01,6.573,5.94,6.588,5.871,6.588c-0.19,0-0.372-0.109-0.456-0.294
		C5.282,6.001,5.136,5.725,4.977,5.466C4.88,5.307,4.879,5.107,4.974,4.948z M6.39,19.288c-0.32-0.011-0.639-0.01-0.959,0.007
		c-0.009,0.001-0.018,0.001-0.027,0.001c-0.176,0-0.339-0.092-0.43-0.244c-0.095-0.159-0.094-0.358,0.003-0.518
		c0.159-0.259,0.305-0.535,0.438-0.828c0.114-0.251,0.411-0.363,0.662-0.249c0.251,0.113,0.363,0.41,0.249,0.661
		c-0.025,0.056-0.051,0.11-0.077,0.165c0.059,0.001,0.117,0.003,0.176,0.005c0.276,0.01,0.492,0.242,0.481,0.518
		C6.897,19.083,6.66,19.29,6.39,19.288z M6.934,16.418c-0.061,0.222-0.262,0.367-0.481,0.367c-0.044,0-0.089-0.006-0.133-0.018
		c-0.266-0.074-0.422-0.349-0.349-0.615c0.142-0.515,0.257-1.063,0.343-1.633c0.042-0.273,0.297-0.464,0.569-0.42
		c0.273,0.041,0.461,0.296,0.42,0.568C7.209,15.277,7.086,15.865,6.934,16.418z M7.478,12.896c-0.013,0.268-0.234,0.476-0.499,0.476
		c-0.008,0-0.017,0-0.025-0.001c-0.276-0.013-0.488-0.247-0.475-0.523C6.493,12.563,6.5,12.281,6.5,12
		c0-0.276-0.007-0.556-0.02-0.834c-0.013-0.275,0.2-0.51,0.476-0.522c0.267-0.03,0.51,0.198,0.523,0.476
		C7.493,11.413,7.5,11.708,7.5,12C7.5,12.297,7.493,12.597,7.478,12.896z M10.095,19.543c-0.071,0.207-0.265,0.338-0.473,0.338
		c-0.054,0-0.108-0.009-0.162-0.027c-0.494-0.168-1.004-0.302-1.514-0.395c-0.272-0.05-0.452-0.311-0.402-0.582
		s0.313-0.446,0.582-0.402c0.559,0.103,1.117,0.248,1.658,0.434C10.045,18.997,10.185,19.281,10.095,19.543z M9.786,5.091
		C9.248,5.275,8.69,5.421,8.129,5.524C8.099,5.53,8.068,5.533,8.038,5.533c-0.236,0-0.447-0.168-0.491-0.409
		c-0.05-0.271,0.129-0.532,0.401-0.582C8.46,4.446,8.97,4.313,9.462,4.146c0.259-0.092,0.545,0.05,0.635,0.311
		C10.186,4.718,10.047,5.002,9.786,5.091z M13.096,20.469c-0.282,0.145-0.559,0.303-0.828,0.474
		C12.186,20.994,12.093,21.02,12,21.02s-0.186-0.025-0.268-0.077c-0.269-0.171-0.546-0.329-0.828-0.474
		c-0.246-0.126-0.343-0.427-0.218-0.673c0.126-0.245,0.428-0.342,0.673-0.218c0.217,0.111,0.431,0.229,0.641,0.354
		c0.21-0.125,0.424-0.243,0.641-0.354c0.244-0.125,0.546-0.028,0.673,0.218C13.439,20.042,13.342,20.343,13.096,20.469z
		 M16.052,19.458c-0.513,0.096-1.022,0.229-1.515,0.396c-0.053,0.019-0.108,0.027-0.162,0.027c-0.208,0-0.402-0.131-0.473-0.338
		c-0.089-0.262,0.05-0.546,0.312-0.635c0.538-0.185,1.095-0.33,1.656-0.434c0.269-0.054,0.532,0.128,0.583,0.4
		C16.503,19.147,16.324,19.408,16.052,19.458z M15.964,5.533c-0.03,0-0.061-0.003-0.091-0.009c-0.561-0.104-1.118-0.249-1.656-0.434
		c-0.261-0.089-0.401-0.373-0.312-0.635c0.089-0.261,0.374-0.401,0.635-0.311c0.492,0.168,1.002,0.301,1.515,0.396
		c0.271,0.05,0.451,0.311,0.401,0.582C16.411,5.365,16.2,5.533,15.964,5.533z M16.521,12.881C16.507,12.587,16.5,12.292,16.5,12
		c0-0.297,0.007-0.597,0.022-0.896c0.014-0.276,0.24-0.504,0.524-0.475c0.276,0.013,0.488,0.247,0.475,0.523
		C17.507,11.437,17.5,11.719,17.5,12c0,0.276,0.007,0.556,0.02,0.834c0.013,0.275-0.2,0.51-0.476,0.522
		c-0.008,0.001-0.016,0.001-0.024,0.001C16.755,13.357,16.534,13.149,16.521,12.881z M16.696,14.655
		c-0.041-0.272,0.147-0.527,0.42-0.568c0.277-0.042,0.528,0.147,0.569,0.42c0.085,0.569,0.201,1.12,0.342,1.637
		c0.073,0.267-0.084,0.541-0.351,0.614c-0.044,0.012-0.088,0.018-0.132,0.018c-0.22,0-0.421-0.146-0.482-0.368
		C16.912,15.854,16.788,15.264,16.696,14.655z M19.026,19.052c-0.091,0.152-0.254,0.244-0.43,0.244c-0.009,0-0.018,0-0.027-0.001
		c-0.32-0.017-0.641-0.02-0.959-0.007c-0.263,0.007-0.507-0.205-0.518-0.482c-0.01-0.275,0.206-0.507,0.481-0.518
		c0.059-0.002,0.118-0.004,0.176-0.005c-0.026-0.055-0.051-0.109-0.077-0.165c-0.114-0.251-0.002-0.548,0.249-0.661
		c0.251-0.114,0.547-0.002,0.662,0.249c0.133,0.293,0.279,0.569,0.438,0.828C19.12,18.693,19.121,18.893,19.026,19.052z
		 M19.022,5.466c-0.159,0.259-0.305,0.535-0.438,0.828c-0.084,0.185-0.266,0.294-0.456,0.294c-0.069,0-0.139-0.015-0.206-0.045
		c-0.251-0.113-0.363-0.41-0.249-0.661c0.025-0.056,0.051-0.11,0.077-0.165c-0.059-0.001-0.118-0.003-0.176-0.005
		c-0.276-0.01-0.492-0.242-0.481-0.518c0.01-0.277,0.25-0.485,0.518-0.482c0.318,0.012,0.639,0.01,0.959-0.007
		c0.185-0.023,0.361,0.083,0.457,0.243C19.121,5.107,19.12,5.307,19.022,5.466z"/>
</g>
<g id="Dashed_Frame_16">
</g>
<g id="Dashed_Frame_17">
</g>
<g id="Dashed_Frame_18">
</g>
<g id="Dashed_Frame_19">
</g>
<g id="Dashed_Frame_20">
</g>
<g id="Dashed_Frame_25">
</g>
<g id="Dashed_Frame_26">
</g>
<g id="Dashed_Frame_27">
</g>
<g id="Dashed_Frame_28">
</g>
<g id="Dashed_Frame_29">
</g>
<g id="Dashed_Frame_30">
</g>
<g id="Dashed_Frame_31">
</g>
<g id="Dashed_Frame_32">
</g>
<g id="Dashed_Frame_33">
</g>
<g id="Dashed_Frame_35">
</g>
</svg>
