<?xml version="1.0" encoding="iso-8859-1"?>
<!-- Generator: Adobe Illustrator 19.2.1, SVG Export Plug-In . SVG Version: 6.00 Build 0)  -->
<svg version="1.1" xmlns="http://www.w3.org/2000/svg" xmlns:xlink="http://www.w3.org/1999/xlink" x="0px" y="0px"
	 viewBox="0 0 24 24" style="enable-background:new 0 0 24 24;" xml:space="preserve">
<g id="Photo_frame">
</g>
<g id="Photo_frame_2">
</g>
<g id="Photo_frame_3">
</g>
<g id="Photo_frame__4">
</g>
<g id="Photo_frame_5">
</g>
<g id="Photo_frame_6">
</g>
<g id="Photo_frame_7">
</g>
<g id="Round_Frame_1">
</g>
<g id="Rectangle_Frame_1">
</g>
<g id="Square_Frame_1">
</g>
<g id="Rectangle_Frame_2">
</g>
<g id="Oval_Frame_1">
</g>
<g id="Round_Frame_2">
</g>
<g id="Rectangle_Frame_3">
</g>
<g id="Rectangle_Frame_4">
</g>
<g id="Rectangle_Frame_5">
</g>
<g id="Square_Frame_2">
</g>
<g id="Rectangle_Frame_6">
</g>
<g id="Rectangle_Frame_7">
</g>
<g id="Oval_Frame_2">
</g>
<g id="Round_Frame_3">
</g>
<g id="Rectangle_Frame_8">
</g>
<g id="Square_Frame_3">
</g>
<g id="Rectangle_Frame_9">
</g>
<g id="Rectangle_Frame_10">
</g>
<g id="Square_Frame_4">
</g>
<g id="Rectangle_Frame_11">
</g>
<g id="Rectangle_Frame_12">
</g>
<g id="Square_Frame_5">
</g>
<g id="Rectangle_Frame_13">
</g>
<g id="Round_Frame">
</g>
<g id="Frame_2">
</g>
<g id="Frame_1">
</g>
<g id="Frame_3">
</g>
<g id="Frame_4">
</g>
<g id="Frame_5">
</g>
<g id="Frame_6">
</g>
<g id="Frame_7">
</g>
<g id="Frame_8">
</g>
<g id="Frame_9">
</g>
<g id="Frame_10">
</g>
<g id="Frame_11">
</g>
<g id="Frame_12">
</g>
<g id="Frame_13">
</g>
<g id="Frame_14">
</g>
<g id="Frame_15">
</g>
<g id="Frame_16">
</g>
<g id="Frame_17">
</g>
<g id="Frame_18">
</g>
<g id="Frame_19">
</g>
<g id="Frame_20">
</g>
<g id="Frame_21">
</g>
<g id="Frame_22">
</g>
<g id="Frame_23">
</g>
<g id="Frame_24">
</g>
<g id="Frame_25">
</g>
<g id="Frame_26">
</g>
<g id="Frame_27">
</g>
<g id="Frame_28">
</g>
<g id="Frame_29">
</g>
<g id="Frame_30">
</g>
<g id="Frame_Hole_1">
</g>
<g id="Frame_Hole_2">
</g>
<g id="Frame_Hole_3">
</g>
<g id="Frame_Hole_4">
</g>
<g id="Frame_31">
</g>
<g id="Frame_32">
</g>
<g id="Frame_33">
</g>
<g id="Frame_34">
</g>
<g id="Frame_35">
</g>
<g id="Dashed_Frame_1">
</g>
<g id="Dashed_Frame_2">
</g>
<g id="Dashed_Frame_3">
</g>
<g id="Dashed_Frame_4">
</g>
<g id="Dashed_Frame_5">
</g>
<g id="Dashed_Frame_6">
</g>
<g id="Dashed_Frame_7">
</g>
<g id="Dashed_Frame_8">
</g>
<g id="Dashed_Frame_9">
</g>
<g id="Dashed_Frame_10">
</g>
<g id="Dashed_Frame_11">
</g>
<g id="Dashed_Frame_12">
</g>
<g id="Dashed_Frame_13">
	<path d="M21.6,6.01c-0.788-0.16-1.4-0.771-1.559-1.559c-0.047-0.232-0.252-0.4-0.49-0.4H18.95c-0.232-1.14-1.242-2-2.45-2h-0.329
		C15.25,0.779,13.679,0,12,0c-1.678,0-3.203,0.743-4.137,2H7.5C6.292,2,5.283,2.86,5.05,4H4.45c-0.238,0-0.443,0.168-0.49,0.4
		C3.8,5.188,3.188,5.8,2.401,5.959C2.167,6.007,2,6.211,2,6.449v11.102c0,0.238,0.167,0.442,0.401,0.49
		C3.188,18.2,3.8,18.812,3.959,19.6C4.007,19.832,4.212,20,4.45,20H5.05c0.232,1.14,1.242,2,2.45,2h0.363
		c0.934,1.257,2.459,2,4.137,2c1.651,0,3.164-0.724,4.101-1.949H16.5c1.208,0,2.217-0.86,2.45-2h0.601c0.238,0,0.443-0.168,0.49-0.4
		c0.16-0.787,0.771-1.399,1.559-1.56c0.233-0.048,0.4-0.253,0.4-0.49V6.5C22,6.263,21.833,6.058,21.6,6.01z M4,10.818
		c0-0.276,0.224-0.5,0.5-0.5s0.5,0.224,0.5,0.5v2.362c0,0.276-0.224,0.5-0.5,0.5S4,13.457,4,13.181V10.818z M10.41,21.087
		c-0.097,0.095-0.224,0.143-0.35,0.143c-0.129,0-0.259-0.05-0.357-0.15c-0.122-0.124-0.23-0.258-0.324-0.4L8.935,20H7.5
		C7.224,20,7,19.776,7,19.5V18H5.745c-0.167,0-0.323-0.084-0.416-0.223c-0.293-0.44-0.666-0.813-1.105-1.105
		C4.083,16.579,4,16.423,4,16.256v-1.5c0-0.276,0.224-0.5,0.5-0.5s0.5,0.224,0.5,0.5v1.241C5.382,16.282,5.718,16.618,6.003,17H7.5
		C7.776,17,8,17.224,8,17.5V19h1.205c0.168,0,0.326,0.085,0.418,0.226l0.592,0.904c0.058,0.09,0.125,0.173,0.201,0.25
		C10.61,20.576,10.607,20.894,10.41,21.087z M10.417,3.62c-0.076,0.077-0.143,0.16-0.202,0.25L9.623,4.774
		C9.53,4.915,9.373,5,9.205,5H8v1.5C8,6.776,7.776,7,7.5,7H6.003C5.718,7.382,5.382,7.718,5,8.003v1.241c0,0.276-0.224,0.5-0.5,0.5
		S4,9.521,4,9.244v-1.5c0-0.167,0.083-0.323,0.223-0.416c0.44-0.293,0.812-0.665,1.105-1.105C5.421,6.084,5.578,6,5.745,6H7V4.5
		C7,4.224,7.224,4,7.5,4h1.435l0.444-0.679c0.094-0.143,0.203-0.276,0.324-0.4c0.192-0.2,0.51-0.2,0.707-0.008
		C10.607,3.106,10.61,3.424,10.417,3.62z M13.022,21.846C12.693,21.948,12.35,22,12,22c-0.365,0-0.723-0.057-1.063-0.167
		c-0.263-0.086-0.406-0.368-0.321-0.63c0.085-0.264,0.368-0.406,0.63-0.321c0.471,0.153,1.003,0.156,1.478,0.009
		c0.263-0.083,0.544,0.064,0.626,0.328C13.433,21.482,13.286,21.764,13.022,21.846z M12.929,3.149c-0.053,0-0.106-0.008-0.159-0.026
		c-0.476-0.161-1.026-0.165-1.51-0.009c-0.264,0.081-0.544-0.063-0.628-0.324c-0.084-0.263,0.061-0.544,0.324-0.629
		c0.687-0.218,1.457-0.214,2.133,0.015c0.262,0.088,0.403,0.371,0.315,0.633C13.333,3.018,13.138,3.149,12.929,3.149z M20,16.307
		c0,0.167-0.083,0.323-0.223,0.416c-0.44,0.294-0.813,0.665-1.106,1.105c-0.093,0.139-0.249,0.223-0.416,0.223H17v1.5
		c0,0.276-0.224,0.5-0.5,0.5h-1.451l-0.446,0.659c-0.101,0.148-0.217,0.287-0.347,0.413c-0.097,0.095-0.223,0.142-0.349,0.142
		c-0.13,0-0.26-0.051-0.358-0.151c-0.192-0.198-0.188-0.515,0.01-0.707c0.081-0.079,0.154-0.165,0.216-0.258l0.594-0.878
		c0.093-0.138,0.248-0.22,0.414-0.22H16v-1.5c0-0.276,0.224-0.5,0.5-0.5h1.497c0.285-0.382,0.622-0.718,1.003-1.003v-1.241
		c0-0.276,0.224-0.5,0.5-0.5s0.5,0.224,0.5,0.5V16.307z M20,13.232c0,0.276-0.224,0.5-0.5,0.5s-0.5-0.224-0.5-0.5V10.87
		c0-0.276,0.224-0.5,0.5-0.5s0.5,0.224,0.5,0.5V13.232z M20,9.295c0,0.276-0.224,0.5-0.5,0.5S19,9.571,19,9.295V8.054
		c-0.381-0.286-0.717-0.622-1.003-1.003H16.5c-0.276,0-0.5-0.224-0.5-0.5v-1.5h-1.194c-0.171,0-0.331-0.088-0.422-0.232
		l-0.589-0.931c-0.055-0.087-0.117-0.166-0.187-0.24c-0.188-0.202-0.178-0.519,0.024-0.707c0.201-0.188,0.518-0.179,0.707,0.023
		c0.113,0.121,0.214,0.251,0.301,0.39l0.441,0.697H16.5c0.276,0,0.5,0.224,0.5,0.5v1.5h1.256c0.167,0,0.323,0.083,0.416,0.223
		c0.293,0.439,0.666,0.812,1.106,1.105C19.917,7.472,20,7.628,20,7.795V9.295z"/>
</g>
<g id="Dashed_Frame_14">
</g>
<g id="Dashed_Frame_15">
</g>
<g id="Dashed_Frame_16">
</g>
<g id="Dashed_Frame_17">
</g>
<g id="Dashed_Frame_18">
</g>
<g id="Dashed_Frame_19">
</g>
<g id="Dashed_Frame_20">
</g>
<g id="Dashed_Frame_25">
</g>
<g id="Dashed_Frame_26">
</g>
<g id="Dashed_Frame_27">
</g>
<g id="Dashed_Frame_28">
</g>
<g id="Dashed_Frame_29">
</g>
<g id="Dashed_Frame_30">
</g>
<g id="Dashed_Frame_31">
</g>
<g id="Dashed_Frame_32">
</g>
<g id="Dashed_Frame_33">
</g>
<g id="Dashed_Frame_35">
</g>
</svg>
