<?xml version="1.0" encoding="iso-8859-1"?>
<!-- Generator: Adobe Illustrator 19.2.1, SVG Export Plug-In . SVG Version: 6.00 Build 0)  -->
<svg version="1.1" xmlns="http://www.w3.org/2000/svg" xmlns:xlink="http://www.w3.org/1999/xlink" x="0px" y="0px"
	 viewBox="0 0 30 30" style="enable-background:new 0 0 30 30;" xml:space="preserve">
<g id="Snowflake_1">
</g>
<g id="Snowflake_2">
</g>
<g id="Snowflake_3">
</g>
<g id="Snowflake_4">
</g>
<g id="Winter_Cap_1">
</g>
<g id="Winter_Cap_2">
</g>
<g id="Glowes">
	<g>
		<path d="M26.5,23h-18C7.673,23,7,23.673,7,24.5v4C7,29.327,7.673,30,8.5,30h18c0.827,0,1.5-0.673,1.5-1.5v-4
			C28,23.673,27.327,23,26.5,23z M11,27.5c0,0.276-0.224,0.5-0.5,0.5S10,27.776,10,27.5v-2c0-0.276,0.224-0.5,0.5-0.5
			s0.5,0.224,0.5,0.5V27.5z M14,27.5c0,0.276-0.224,0.5-0.5,0.5S13,27.776,13,27.5v-2c0-0.276,0.224-0.5,0.5-0.5s0.5,0.224,0.5,0.5
			V27.5z M18,27.5c0,0.276-0.224,0.5-0.5,0.5S17,27.776,17,27.5v-2c0-0.276,0.224-0.5,0.5-0.5s0.5,0.224,0.5,0.5V27.5z M22,27.5
			c0,0.276-0.224,0.5-0.5,0.5S21,27.776,21,27.5v-2c0-0.276,0.224-0.5,0.5-0.5s0.5,0.224,0.5,0.5V27.5z M26,27.5
			c0,0.276-0.224,0.5-0.5,0.5S25,27.776,25,27.5v-2c0-0.276,0.224-0.5,0.5-0.5s0.5,0.224,0.5,0.5V27.5z"/>
		<path d="M9.109,22H27V9.326C27,4.184,22.738,0,17.5,0S8,4.184,8,9.326v2.738l-2.299-1.537c-0.01-0.008-0.02-0.015-0.031-0.022
			C5.18,10.175,4.603,10,4,10c-1.654,0-3,1.346-3,3c0,1.188,0.696,2.259,1.775,2.738C3.118,15.934,7.705,18.621,9.109,22z"/>
	</g>
</g>
<g id="Sweater_1">
</g>
<g id="Sweater_2">
</g>
<g id="Sweater_3">
</g>
<g id="Scarf">
</g>
<g id="Winter_Socks">
</g>
<g id="Winter_Sock">
</g>
<g id="Winter_Coat">
</g>
<g id="Winter_Calendar">
</g>
<g id="Thermometer_1">
</g>
<g id="Thermometer_2">
</g>
<g id="Cold">
</g>
<g id="Icicle">
</g>
<g id="Snowing">
</g>
<g id="Snow_Shoes_1">
</g>
<g id="Snow_Shoes_2">
</g>
<g id="Sledge">
</g>
<g id="Snow_Boots">
</g>
<g id="Snowcapped_Mountains">
</g>
<g id="Skis">
</g>
<g id="Sky_Glasses">
</g>
<g id="Snowboard">
</g>
<g id="Ice_Skate">
</g>
<g id="Wooden_House">
</g>
<g id="Snowcapped_House">
</g>
<g id="Hot_Drink">
</g>
<g id="Hot_Chocolate">
</g>
<g id="Lantern">
</g>
<g id="Snow_Shovel">
</g>
<g id="Snowman">
</g>
<g id="Reindeer">
</g>
<g id="Snowmobile">
</g>
<g id="Snow_Chain">
</g>
<g id="Slippery_Road">
</g>
</svg>
