<?xml version="1.0" encoding="iso-8859-1"?>
<!-- Generator: Adobe Illustrator 19.2.1, SVG Export Plug-In . SVG Version: 6.00 Build 0)  -->
<svg version="1.1" xmlns="http://www.w3.org/2000/svg" xmlns:xlink="http://www.w3.org/1999/xlink" x="0px" y="0px"
	 viewBox="0 0 30 30" style="enable-background:new 0 0 30 30;" xml:space="preserve">
<g id="Snowflake_1">
</g>
<g id="Snowflake_2">
</g>
<g id="Snowflake_3">
</g>
<g id="Snowflake_4">
</g>
<g id="Winter_Cap_1">
</g>
<g id="Winter_Cap_2">
</g>
<g id="Glowes">
</g>
<g id="Sweater_1">
</g>
<g id="Sweater_2">
</g>
<g id="Sweater_3">
</g>
<g id="Scarf">
</g>
<g id="Winter_Socks">
</g>
<g id="Winter_Sock">
</g>
<g id="Winter_Coat">
</g>
<g id="Winter_Calendar">
</g>
<g id="Thermometer_1">
</g>
<g id="Thermometer_2">
</g>
<g id="Cold">
</g>
<g id="Icicle">
</g>
<g id="Snowing">
</g>
<g id="Snow_Shoes_1">
</g>
<g id="Snow_Shoes_2">
</g>
<g id="Sledge">
</g>
<g id="Snow_Boots">
</g>
<g id="Snowcapped_Mountains">
</g>
<g id="Skis">
</g>
<g id="Sky_Glasses">
</g>
<g id="Snowboard">
</g>
<g id="Ice_Skate">
</g>
<g id="Wooden_House">
</g>
<g id="Snowcapped_House">
</g>
<g id="Hot_Drink">
</g>
<g id="Hot_Chocolate">
</g>
<g id="Lantern">
	<g>
		<path d="M24.5,26h-18C5.673,26,5,26.673,5,27.5v2C5,29.776,5.224,30,5.5,30h20c0.276,0,0.5-0.224,0.5-0.5v-2
			C26,26.673,25.327,26,24.5,26z"/>
		<path d="M5.5,10h20c0.218,0,0.411-0.142,0.477-0.35s-0.011-0.435-0.189-0.56l-9.274-6.491C16.81,2.325,17,1.935,17,1.5
			C17,0.673,16.327,0,15.5,0S14,0.673,14,1.5c0,0.435,0.19,0.825,0.487,1.099L5.213,9.09c-0.179,0.125-0.256,0.352-0.19,0.56
			C5.089,9.858,5.282,10,5.5,10z M15.5,1C15.776,1,16,1.224,16,1.5S15.776,2,15.5,2S15,1.776,15,1.5S15.224,1,15.5,1z"/>
		<path d="M7,11.5v13c0,0.021,0.009,0.039,0.012,0.059L14.728,18l-7.716-6.559C7.009,11.461,7,11.479,7,11.5z"/>
		<polygon points="22.963,11 8.037,11 15.5,17.344 		"/>
		<path d="M24,24.5v-13c0-0.021-0.009-0.038-0.012-0.059L16.272,18l7.716,6.559C23.991,24.538,24,24.521,24,24.5z"/>
		<polygon points="15.5,18.656 8.037,25 22.963,25 		"/>
	</g>
</g>
<g id="Snow_Shovel">
</g>
<g id="Snowman">
</g>
<g id="Reindeer">
</g>
<g id="Snowmobile">
</g>
<g id="Snow_Chain">
</g>
<g id="Slippery_Road">
</g>
</svg>
