<?xml version="1.0" encoding="iso-8859-1"?>
<!-- Generator: Adobe Illustrator 19.2.1, SVG Export Plug-In . SVG Version: 6.00 Build 0)  -->
<svg version="1.1" xmlns="http://www.w3.org/2000/svg" xmlns:xlink="http://www.w3.org/1999/xlink" x="0px" y="0px"
	 viewBox="0 0 30 30" style="enable-background:new 0 0 30 30;" xml:space="preserve">
<g id="Snowflake_1">
</g>
<g id="Snowflake_2">
</g>
<g id="Snowflake_3">
</g>
<g id="Snowflake_4">
</g>
<g id="Winter_Cap_1">
</g>
<g id="Winter_Cap_2">
</g>
<g id="Glowes">
</g>
<g id="Sweater_1">
</g>
<g id="Sweater_2">
</g>
<g id="Sweater_3">
</g>
<g id="Scarf">
</g>
<g id="Winter_Socks">
</g>
<g id="Winter_Sock">
</g>
<g id="Winter_Coat">
</g>
<g id="Winter_Calendar">
</g>
<g id="Thermometer_1">
</g>
<g id="Thermometer_2">
</g>
<g id="Cold">
</g>
<g id="Icicle">
</g>
<g id="Snowing">
</g>
<g id="Snow_Shoes_1">
</g>
<g id="Snow_Shoes_2">
</g>
<g id="Sledge">
</g>
<g id="Snow_Boots">
</g>
<g id="Snowcapped_Mountains">
</g>
<g id="Skis">
</g>
<g id="Sky_Glasses">
</g>
<g id="Snowboard">
</g>
<g id="Ice_Skate">
</g>
<g id="Wooden_House">
</g>
<g id="Snowcapped_House">
</g>
<g id="Hot_Drink">
</g>
<g id="Hot_Chocolate">
</g>
<g id="Lantern">
</g>
<g id="Snow_Shovel">
</g>
<g id="Snowman">
</g>
<g id="Reindeer">
	<g>
		<path d="M10.344,11.399c-0.295,0.465-0.531,0.973-0.675,1.524l-0.131,0.37c-1.427-0.776-3.313-0.682-3.392-0.678
			c-0.15,0.008-0.289,0.083-0.377,0.206c-0.088,0.122-0.117,0.277-0.078,0.422c0.027,0.104,0.705,2.517,2.851,2.865l-1.353,3.821
			c-0.091,0.353-0.153,0.712-0.195,1.074C9.09,19.706,11.94,18.927,15,18.927c3.06,0,5.91,0.779,8.007,2.075
			c-0.042-0.362-0.104-0.721-0.194-1.073c-0.004-0.015-0.008-0.029-0.013-0.043l-1.343-3.783c2.147-0.347,2.824-2.76,2.852-2.865
			c0.038-0.146,0.01-0.301-0.079-0.422c-0.088-0.122-0.227-0.197-0.377-0.206c-0.078-0.005-1.967-0.098-3.395,0.679l-0.116-0.327
			c-0.149-0.566-0.39-1.087-0.691-1.562C24.069,9.562,27,5.261,27,0.5C27,0.224,26.776,0,26.5,0S26,0.224,26,0.5
			c0,2.763-1.083,5.356-2.905,7.316c-1.599-1.084-2.551-2.847-2.551-4.794c0-0.276-0.224-0.5-0.5-0.5s-0.5,0.224-0.5,0.5
			c0,2.182,1.078,4.237,2.831,5.507c-0.966,0.864-2.098,1.56-3.352,2.047c-1.02-1.089-2.462-1.75-4.023-1.75
			c-1.566,0-3.011,0.665-4.029,1.748C9.719,10.087,8.59,9.392,7.625,8.529c1.754-1.271,2.831-3.326,2.831-5.508
			c0-0.276-0.224-0.5-0.5-0.5s-0.5,0.224-0.5,0.5c0,1.947-0.953,3.711-2.552,4.794C5.083,5.856,4,3.263,4,0.5C4,0.224,3.776,0,3.5,0
			S3,0.224,3,0.5C3,5.259,5.929,9.559,10.344,11.399z M8.871,15.177c-0.007-0.003-0.013-0.005-0.02-0.007l0.32-0.961
			c0.013,0.004,0.025,0.009,0.038,0.012L8.871,15.177z M20.829,14.204l0.32,0.961c-0.007,0.002-0.015,0.005-0.022,0.008
			l-0.339-0.956C20.802,14.214,20.815,14.209,20.829,14.204z M17.522,15c0.348,0,0.63,0.282,0.63,0.63c0,0.348-0.282,0.63-0.63,0.63
			c-0.348,0-0.63-0.282-0.63-0.63C16.891,15.282,17.174,15,17.522,15z M12.478,15c0.348,0,0.63,0.282,0.63,0.63
			c0,0.348-0.282,0.63-0.63,0.63c-0.348,0-0.63-0.282-0.63-0.63C11.848,15.282,12.13,15,12.478,15z"/>
		<path d="M15,19.927c-3.174,0-6.102,0.861-8.051,2.281C7.094,26.528,10.645,30,15,30c4.355,0,7.906-3.472,8.052-7.792
			C21.102,20.788,18.174,19.927,15,19.927z M12.574,23.182c-0.256,0.103-0.547-0.019-0.652-0.273
			c-0.159-0.39-0.604-0.575-0.993-0.417c-0.388,0.159-0.575,0.604-0.416,0.992c0.104,0.256-0.018,0.548-0.274,0.652
			c-0.062,0.025-0.126,0.037-0.189,0.037c-0.197,0-0.384-0.117-0.463-0.311c-0.367-0.899,0.065-1.929,0.964-2.297
			c0.899-0.369,1.93,0.066,2.296,0.964C12.952,22.785,12.83,23.077,12.574,23.182z M20.412,23.862
			c-0.079,0.193-0.266,0.311-0.463,0.311c-0.063,0-0.127-0.012-0.189-0.037c-0.256-0.104-0.378-0.396-0.273-0.652
			c0.077-0.188,0.076-0.395-0.002-0.582c-0.079-0.188-0.227-0.333-0.415-0.41c-0.386-0.158-0.833,0.029-0.991,0.417
			c-0.104,0.255-0.396,0.378-0.652,0.273c-0.256-0.104-0.378-0.396-0.273-0.652c0.367-0.896,1.396-1.332,2.295-0.964
			c0.437,0.178,0.776,0.515,0.959,0.949C20.588,22.948,20.59,23.427,20.412,23.862z"/>
	</g>
</g>
<g id="Snowmobile">
</g>
<g id="Snow_Chain">
</g>
<g id="Slippery_Road">
</g>
</svg>
