<?xml version="1.0" encoding="iso-8859-1"?>
<!-- Generator: Adobe Illustrator 19.2.1, SVG Export Plug-In . SVG Version: 6.00 Build 0)  -->
<svg version="1.1" xmlns="http://www.w3.org/2000/svg" xmlns:xlink="http://www.w3.org/1999/xlink" x="0px" y="0px"
	 viewBox="0 0 30 30" style="enable-background:new 0 0 30 30;" xml:space="preserve">
<g id="Snowflake_1">
</g>
<g id="Snowflake_2">
</g>
<g id="Snowflake_3">
</g>
<g id="Snowflake_4">
</g>
<g id="Winter_Cap_1">
</g>
<g id="Winter_Cap_2">
</g>
<g id="Glowes">
</g>
<g id="Sweater_1">
</g>
<g id="Sweater_2">
</g>
<g id="Sweater_3">
</g>
<g id="Scarf">
</g>
<g id="Winter_Socks">
</g>
<g id="Winter_Sock">
</g>
<g id="Winter_Coat">
</g>
<g id="Winter_Calendar">
</g>
<g id="Thermometer_1">
</g>
<g id="Thermometer_2">
</g>
<g id="Cold">
</g>
<g id="Icicle">
</g>
<g id="Snowing">
</g>
<g id="Snow_Shoes_1">
</g>
<g id="Snow_Shoes_2">
</g>
<g id="Sledge">
</g>
<g id="Snow_Boots">
</g>
<g id="Snowcapped_Mountains">
</g>
<g id="Skis">
</g>
<g id="Sky_Glasses">
	<g>
		<path d="M16.892,3.043l-3.827,0.002C13.043,3.048,13.022,3.051,13,3.053v4.132c1.319-0.121,2.682-0.121,4-0.001V3.055
			C16.963,3.052,16.928,3.047,16.892,3.043z"/>
		<path d="M30,17.544c0-4.66-3.955-10.952-6.537-12.59C22.103,4.091,20.199,3.471,18,3.169v4.133
			c1.906,0.269,3.656,0.796,4.931,1.592c0.997,0.623,2.292,2.144,3.411,3.94C23.489,11.706,19.681,11.13,15,11.13
			c-4.685,0-8.493,0.574-11.341,1.697c1.117-1.795,2.409-3.309,3.41-3.933C8.345,8.098,10.095,7.572,12,7.302V3.166
			c-2.182,0.3-4.095,0.921-5.463,1.787C3.956,6.588,0,12.878,0,17.544c0,0.047,0.015,0.09,0.027,0.133
			C0.019,17.798,0,17.916,0,18.039v2.417C0,23.513,2.487,26,5.543,26h3.416c1.17,0,2.304-0.487,3.11-1.338l2.054-2.171
			c0.145-0.174,0.357-0.273,0.584-0.273h0.585c0.227,0,0.439,0.1,0.605,0.297l2.033,2.147c0.807,0.851,1.94,1.338,3.11,1.338h3.415
			C27.513,26,30,23.513,30,20.456v-2.41c0-0.124-0.019-0.245-0.027-0.367C29.985,17.635,30,17.592,30,17.544z M27,20.279
			c0,1.536-1.311,2.786-2.921,2.786H20.8c-0.464,0-0.913-0.184-1.233-0.504l-1.912-1.906c-0.607-0.652-1.468-1.019-2.374-1.019
			h-0.562c-0.906,0-1.766,0.366-2.36,1.005l-1.926,1.921c-0.32,0.319-0.769,0.503-1.233,0.503H5.921c-1.61,0-2.921-1.25-2.921-2.786
			v-2.191c0-1.138,0.703-2.147,1.792-2.572c1.692-0.662,4.837-1.45,10.208-1.45s8.516,0.789,10.208,1.45
			C26.297,15.94,27,16.95,27,18.088V20.279z"/>
	</g>
</g>
<g id="Snowboard">
</g>
<g id="Ice_Skate">
</g>
<g id="Wooden_House">
</g>
<g id="Snowcapped_House">
</g>
<g id="Hot_Drink">
</g>
<g id="Hot_Chocolate">
</g>
<g id="Lantern">
</g>
<g id="Snow_Shovel">
</g>
<g id="Snowman">
</g>
<g id="Reindeer">
</g>
<g id="Snowmobile">
</g>
<g id="Snow_Chain">
</g>
<g id="Slippery_Road">
</g>
</svg>
