<?xml version="1.0" encoding="iso-8859-1"?>
<!-- Generator: Adobe Illustrator 19.2.1, SVG Export Plug-In . SVG Version: 6.00 Build 0)  -->
<svg version="1.1" xmlns="http://www.w3.org/2000/svg" xmlns:xlink="http://www.w3.org/1999/xlink" x="0px" y="0px"
	 viewBox="0 0 30 30" style="enable-background:new 0 0 30 30;" xml:space="preserve">
<g id="Snowflake_1">
</g>
<g id="Snowflake_2">
</g>
<g id="Snowflake_3">
</g>
<g id="Snowflake_4">
</g>
<g id="Winter_Cap_1">
</g>
<g id="Winter_Cap_2">
</g>
<g id="Glowes">
</g>
<g id="Sweater_1">
</g>
<g id="Sweater_2">
</g>
<g id="Sweater_3">
</g>
<g id="Scarf">
</g>
<g id="Winter_Socks">
</g>
<g id="Winter_Sock">
</g>
<g id="Winter_Coat">
</g>
<g id="Winter_Calendar">
</g>
<g id="Thermometer_1">
</g>
<g id="Thermometer_2">
</g>
<g id="Cold">
</g>
<g id="Icicle">
</g>
<g id="Snowing">
</g>
<g id="Snow_Shoes_1">
</g>
<g id="Snow_Shoes_2">
</g>
<g id="Sledge">
</g>
<g id="Snow_Boots">
</g>
<g id="Snowcapped_Mountains">
	<g>
		<path d="M29.957,24.297L22.286,7.041C22.001,6.399,21.383,6,20.674,6s-1.327,0.399-1.612,1.041l-7.671,17.256
			c-0.069,0.154-0.055,0.334,0.038,0.476S11.678,25,11.848,25H29.5c0.169,0,0.327-0.086,0.419-0.228
			C30.012,24.631,30.025,24.451,29.957,24.297z M23.23,12.832c-0.819,0-1.386,0.306-1.934,0.602
			c-0.607,0.329-1.182,0.639-2.205,0.639c-0.365,0-0.611-0.293-0.981-0.771c-0.149-0.193-0.311-0.382-0.487-0.563l2.353-5.292
			c0.248-0.56,1.148-0.56,1.396,0l2.402,5.404C23.613,12.84,23.438,12.832,23.23,12.832z"/>
		<path d="M13.824,16.36l-2.982-5.136c-0.316-0.544-0.884-0.871-1.519-0.874c-0.644,0.022-1.207,0.319-1.528,0.861L0.07,24.245
			c-0.092,0.154-0.093,0.347-0.004,0.502C0.154,24.903,0.32,25,0.5,25h9.935c-0.128-0.358-0.117-0.753,0.042-1.11L13.824,16.36z
			 M9.615,14.693c-0.482,0-0.796,0.228-1.025,0.394c-0.211,0.153-0.322,0.227-0.518,0.228c-0.177-0.026-0.609-0.468-0.973-0.968
			l1.557-2.626c0.138-0.232,0.384-0.371,0.659-0.371c0.001,0,0.002,0,0.003,0c0.277,0.001,0.523,0.142,0.659,0.376l2.369,4.08
			c-0.023,0.238-0.118,0.75-0.498,0.75c-0.324,0-0.453-0.188-0.713-0.685S10.516,14.693,9.615,14.693z"/>
	</g>
</g>
<g id="Skis">
</g>
<g id="Sky_Glasses">
</g>
<g id="Snowboard">
</g>
<g id="Ice_Skate">
</g>
<g id="Wooden_House">
</g>
<g id="Snowcapped_House">
</g>
<g id="Hot_Drink">
</g>
<g id="Hot_Chocolate">
</g>
<g id="Lantern">
</g>
<g id="Snow_Shovel">
</g>
<g id="Snowman">
</g>
<g id="Reindeer">
</g>
<g id="Snowmobile">
</g>
<g id="Snow_Chain">
</g>
<g id="Slippery_Road">
</g>
</svg>
