<?xml version="1.0" encoding="iso-8859-1"?>
<!-- Generator: Adobe Illustrator 19.2.1, SVG Export Plug-In . SVG Version: 6.00 Build 0)  -->
<svg version="1.1" xmlns="http://www.w3.org/2000/svg" xmlns:xlink="http://www.w3.org/1999/xlink" x="0px" y="0px"
	 viewBox="0 0 30 30" style="enable-background:new 0 0 30 30;" xml:space="preserve">
<g id="Snowflake_1">
</g>
<g id="Snowflake_2">
</g>
<g id="Snowflake_3">
</g>
<g id="Snowflake_4">
</g>
<g id="Winter_Cap_1">
</g>
<g id="Winter_Cap_2">
</g>
<g id="Glowes">
</g>
<g id="Sweater_1">
</g>
<g id="Sweater_2">
</g>
<g id="Sweater_3">
</g>
<g id="Scarf">
</g>
<g id="Winter_Socks">
</g>
<g id="Winter_Sock">
</g>
<g id="Winter_Coat">
</g>
<g id="Winter_Calendar">
</g>
<g id="Thermometer_1">
</g>
<g id="Thermometer_2">
</g>
<g id="Cold">
</g>
<g id="Icicle">
</g>
<g id="Snowing">
</g>
<g id="Snow_Shoes_1">
</g>
<g id="Snow_Shoes_2">
	<g>
		<path d="M13.039,9.266c0-0.002,0.001-0.004,0.001-0.006c0-0.005-0.003-0.01-0.003-0.016C12.976,8.172,12.81,7.104,12.56,6.09
			c0-0.074-0.02-0.145-0.053-0.213c-0.452-1.732-1.165-3.274-2.081-4.346c-0.016-0.021-0.024-0.046-0.044-0.065
			c-0.006-0.006-0.015-0.008-0.021-0.014C9.565,0.549,8.622,0,7.565,0c-3.29,0-5.5,5.277-5.5,10.206
			c0,0.606,0.065,1.223,0.164,1.841c0,0.018,0.006,0.035,0.008,0.053C3.004,16.774,6.236,21.506,7,22.572V29.5
			C7,29.776,7.224,30,7.5,30S8,29.776,8,29.5v-6.747c0.412-0.557,5.065-6.976,5.065-12.547C13.065,9.894,13.056,9.58,13.039,9.266z
			 M11.476,13.79l-0.051-0.051l0.098-0.098C11.508,13.691,11.49,13.74,11.476,13.79z M9.611,18.23l-1.339-1.339l2.445-2.445
			l0.405,0.406C10.687,16.054,10.151,17.206,9.611,18.23z M7.565,21.633c-0.363-0.531-0.934-1.404-1.548-2.487l1.548-1.548
			l1.547,1.547C8.498,20.229,7.928,21.102,7.565,21.633z M4.007,14.852l0.406-0.406l2.445,2.445l-1.34,1.339
			C4.979,17.207,4.443,16.055,4.007,14.852z M3.367,7.104L3.703,7.44L3.232,7.911C3.271,7.637,3.316,7.369,3.367,7.104z
			 M5.154,2.581l1.703,1.703L4.41,6.733L3.63,5.953C4,4.612,4.53,3.446,5.154,2.581z M11.513,5.931L10.717,6.73L8.272,4.285
			l1.724-1.724C10.622,3.42,11.148,4.583,11.513,5.931z M3.065,10.206c0-0.247,0.009-0.491,0.02-0.735L4.41,8.147l0.792,0.792
			c0.091,0.746,0.308,1.8,0.525,2.78l-1.313,1.313L3.2,11.819C3.115,11.275,3.065,10.735,3.065,10.206z M5.985,12.874l0.147,0.657
			c0.194,0.888,0.677,1.339,1.434,1.339c0.797,0,1.446-0.648,1.446-1.446c0-0.24,0.005-0.462,0.015-0.668l0.983,0.984l-2.445,2.445
			L5.12,13.739L5.985,12.874z M9.168,11.482c0.122-0.648,0.295-1.065,0.448-1.424c0.15-0.352,0.287-0.694,0.326-1.133l0.777-0.78
			l1.328,1.327c0.01,0.243,0.019,0.487,0.019,0.733c0,0.528-0.05,1.069-0.135,1.613l-1.213,1.213L9.168,11.482z M11.424,7.437
			l0.348-0.349c0.051,0.272,0.096,0.549,0.134,0.832L11.424,7.437z M10.011,7.438L9.74,7.711C9.363,6.883,8.533,6.304,7.566,6.304
			c-0.688,0-1.374,0.303-1.833,0.81C5.574,7.289,5.459,7.485,5.366,7.689L5.117,7.44l2.448-2.448L10.011,7.438z M3.607,13.641
			l0.099,0.099l-0.051,0.051C3.64,13.74,3.622,13.691,3.607,13.641z M7.565,1c0.621,0,1.221,0.293,1.771,0.806L7.565,3.578
			L5.809,1.822C6.358,1.3,6.954,1,7.565,1z"/>
		<path d="M28.065,10.206c0-0.312-0.009-0.626-0.027-0.94c0-0.002,0.001-0.004,0.001-0.006c0-0.005-0.003-0.01-0.003-0.016
			c-0.061-1.073-0.227-2.141-0.477-3.155c0-0.073-0.02-0.144-0.052-0.211c-0.452-1.731-1.164-3.274-2.08-4.346
			c-0.016-0.022-0.025-0.047-0.045-0.067c-0.006-0.006-0.015-0.008-0.021-0.014C24.565,0.549,23.622,0,22.565,0
			c-3.29,0-5.5,5.277-5.5,10.206c0,0.607,0.065,1.224,0.164,1.843c0,0.014,0.005,0.028,0.006,0.042
			c0.765,4.677,4,9.415,4.764,10.481V29.5c0,0.276,0.224,0.5,0.5,0.5s0.5-0.224,0.5-0.5v-6.747
			C23.411,22.196,28.065,15.777,28.065,10.206z M19.007,14.852l0.406-0.406l2.445,2.445l-1.34,1.339
			C19.979,17.207,19.443,16.055,19.007,14.852z M18.367,7.104l0.336,0.336l-0.47,0.47C18.271,7.637,18.316,7.369,18.367,7.104z
			 M20.154,2.581l1.704,1.704L19.41,6.733l-0.779-0.78C19,4.612,19.53,3.446,20.154,2.581z M26.513,5.931L25.717,6.73l-2.445-2.445
			l1.724-1.724C25.622,3.42,26.148,4.583,26.513,5.931z M26.476,13.79l-0.051-0.051l0.098-0.098
			C26.508,13.691,26.49,13.74,26.476,13.79z M24.611,18.23l-1.339-1.339l2.445-2.445l0.405,0.405
			C25.687,16.054,25.151,17.207,24.611,18.23z M18.065,10.206c0-0.247,0.009-0.491,0.02-0.735l1.324-1.324l0.792,0.792
			c0.091,0.746,0.308,1.799,0.524,2.78l-1.313,1.313L18.2,11.818C18.115,11.275,18.065,10.734,18.065,10.206z M27.065,10.206
			c0,0.528-0.05,1.069-0.135,1.613l-1.213,1.213l-1.55-1.55c0.122-0.647,0.295-1.065,0.448-1.424
			c0.151-0.352,0.287-0.694,0.326-1.133l0.777-0.78l1.328,1.328C27.056,9.716,27.065,9.96,27.065,10.206z M20.985,12.874
			l0.147,0.657c0.193,0.889,0.676,1.339,1.434,1.339c0.797,0,1.445-0.648,1.445-1.446c0-0.24,0.005-0.462,0.015-0.669l0.984,0.984
			l-2.445,2.445l-2.445-2.445L20.985,12.874z M26.424,7.436l0.348-0.35c0.051,0.273,0.096,0.55,0.135,0.832L26.424,7.436z
			 M25.011,7.438L24.74,7.711c-0.377-0.827-1.207-1.407-2.173-1.407c-0.688,0-1.374,0.303-1.833,0.81
			c-0.159,0.175-0.275,0.371-0.368,0.575L20.117,7.44l2.448-2.448L25.011,7.438z M18.607,13.64l0.099,0.099l-0.052,0.052
			C18.64,13.74,18.622,13.69,18.607,13.64z M22.565,17.598l1.547,1.548c-0.614,1.083-1.184,1.956-1.547,2.487
			c-0.363-0.531-0.934-1.404-1.548-2.487L22.565,17.598z M22.565,1c0.621,0,1.221,0.293,1.771,0.806l-1.771,1.771l-1.756-1.756
			C21.358,1.3,21.954,1,22.565,1z"/>
	</g>
</g>
<g id="Sledge">
</g>
<g id="Snow_Boots">
</g>
<g id="Snowcapped_Mountains">
</g>
<g id="Skis">
</g>
<g id="Sky_Glasses">
</g>
<g id="Snowboard">
</g>
<g id="Ice_Skate">
</g>
<g id="Wooden_House">
</g>
<g id="Snowcapped_House">
</g>
<g id="Hot_Drink">
</g>
<g id="Hot_Chocolate">
</g>
<g id="Lantern">
</g>
<g id="Snow_Shovel">
</g>
<g id="Snowman">
</g>
<g id="Reindeer">
</g>
<g id="Snowmobile">
</g>
<g id="Snow_Chain">
</g>
<g id="Slippery_Road">
</g>
</svg>
