<?xml version="1.0" encoding="iso-8859-1"?>
<!-- Generator: Adobe Illustrator 19.2.1, SVG Export Plug-In . SVG Version: 6.00 Build 0)  -->
<svg version="1.1" xmlns="http://www.w3.org/2000/svg" xmlns:xlink="http://www.w3.org/1999/xlink" x="0px" y="0px"
	 viewBox="0 0 30 30" style="enable-background:new 0 0 30 30;" xml:space="preserve">
<g id="Snowflake_1">
</g>
<g id="Snowflake_2">
</g>
<g id="Snowflake_3">
</g>
<g id="Snowflake_4">
</g>
<g id="Winter_Cap_1">
</g>
<g id="Winter_Cap_2">
</g>
<g id="Glowes">
</g>
<g id="Sweater_1">
</g>
<g id="Sweater_2">
	<g>
		<path d="M28.985,21.056l-0.167-1.174l-4.709,0.997c-0.009,0.002-0.017,0.001-0.026,0.003l0.186,0.965
			c0.191,0.968,1.01,1.557,1.936,1.401l1.339-0.231C28.49,22.859,29.11,22.02,28.985,21.056z"/>
		<path d="M0.015,21.062c-0.123,0.944,0.521,1.809,1.467,1.967l1.387,0.226c0.909,0.155,1.652-0.413,1.85-1.406l0.191-0.987
			l-4.734-0.954L0.015,21.062z"/>
		<path d="M28.679,18.901L27.126,7.962C26.699,4.563,23.774,2,20.32,2h-0.745c-0.276,0-0.5,0.224-0.5,0.5
			c0,0.61-1.937,2.045-4.587,2.045c-2.65,0-4.586-1.436-4.586-2.045c0-0.276-0.224-0.5-0.5-0.5H8.656
			c-3.455,0-6.38,2.565-6.804,5.959L0.316,18.914l4.785,0.965L6,15.248V22h17v-6.728l0.894,4.631
			c0.003-0.001,0.005-0.003,0.008-0.003l4.725-1C28.645,18.897,28.662,18.902,28.679,18.901z M14.488,5.545
			c0.003,0,0.007-0.001,0.01-0.001C14.495,5.545,14.492,5.545,14.488,5.545c-0.003,0-0.005,0-0.008,0
			C14.483,5.545,14.486,5.545,14.488,5.545z M8.655,3l0.001,0h0L8.655,3z M19.066,13.235c0.269,0.063,0.437,0.331,0.374,0.6
			c-0.054,0.231-0.26,0.387-0.487,0.387c-0.037,0-0.075-0.004-0.113-0.013l-1.556-0.361L15.443,15l1.841,1.151l1.556-0.361
			c0.274-0.061,0.538,0.106,0.601,0.374c0.063,0.27-0.105,0.538-0.374,0.601L18.482,16.9l1.373,0.858
			c0.234,0.146,0.306,0.455,0.159,0.688c-0.095,0.152-0.258,0.235-0.424,0.235c-0.091,0-0.183-0.024-0.265-0.076l-1.365-0.853
			l0.133,0.572c0.063,0.27-0.105,0.538-0.374,0.601c-0.038,0.009-0.076,0.013-0.113,0.013c-0.228,0-0.434-0.156-0.487-0.387
			l-0.359-1.549l-1.76-1.1v2.073l1.126,1.126c0.195,0.195,0.196,0.512,0.001,0.707s-0.512,0.195-0.708,0L15,19.388V20.5
			c0,0.276-0.224,0.5-0.5,0.5S14,20.776,14,20.5v-1.111l-0.419,0.419c-0.098,0.098-0.226,0.146-0.354,0.146
			s-0.256-0.049-0.354-0.146c-0.195-0.195-0.195-0.512,0-0.707L14,17.975v-2.073l-1.76,1.1l-0.359,1.549
			c-0.054,0.23-0.259,0.387-0.487,0.387c-0.038,0-0.075-0.004-0.113-0.013c-0.269-0.063-0.437-0.331-0.375-0.601l0.133-0.572
			l-1.365,0.853C9.592,18.657,9.5,18.682,9.41,18.682c-0.167,0-0.33-0.083-0.424-0.235c-0.146-0.233-0.075-0.542,0.159-0.688
			l1.373-0.858l-0.583-0.135c-0.269-0.063-0.437-0.331-0.375-0.601c0.063-0.269,0.333-0.435,0.6-0.374l1.556,0.361L13.557,15
			l-1.841-1.151L10.16,14.21c-0.038,0.009-0.076,0.013-0.113,0.013c-0.228,0-0.433-0.156-0.487-0.387
			c-0.062-0.269,0.105-0.538,0.375-0.6l0.583-0.135l-1.373-0.858c-0.234-0.146-0.305-0.455-0.159-0.689
			c0.146-0.234,0.455-0.305,0.689-0.159l1.365,0.853l-0.133-0.572c-0.062-0.269,0.105-0.538,0.375-0.6
			c0.271-0.06,0.538,0.106,0.6,0.375l0.359,1.548l1.76,1.1v-2.073l-1.126-1.126c-0.195-0.195-0.195-0.512,0-0.707
			s0.512-0.195,0.707,0L14,10.611V9.5C14,9.224,14.224,9,14.5,9S15,9.224,15,9.5v1.111l0.419-0.419c0.195-0.195,0.512-0.195,0.708,0
			c0.194,0.195,0.194,0.512,0,0.707L15,12.025v2.073l1.761-1.1l0.359-1.548c0.063-0.269,0.33-0.436,0.601-0.375
			c0.269,0.063,0.437,0.331,0.374,0.6l-0.133,0.572l1.365-0.853c0.233-0.146,0.542-0.076,0.688,0.159s0.075,0.543-0.159,0.689
			L18.482,13.1L19.066,13.235z"/>
		<path d="M6,25c0,1.105,0.895,2,2,2h13c1.105,0,2-0.895,2-2v-2H6V25z"/>
	</g>
</g>
<g id="Sweater_3">
</g>
<g id="Scarf">
</g>
<g id="Winter_Socks">
</g>
<g id="Winter_Sock">
</g>
<g id="Winter_Coat">
</g>
<g id="Winter_Calendar">
</g>
<g id="Thermometer_1">
</g>
<g id="Thermometer_2">
</g>
<g id="Cold">
</g>
<g id="Icicle">
</g>
<g id="Snowing">
</g>
<g id="Snow_Shoes_1">
</g>
<g id="Snow_Shoes_2">
</g>
<g id="Sledge">
</g>
<g id="Snow_Boots">
</g>
<g id="Snowcapped_Mountains">
</g>
<g id="Skis">
</g>
<g id="Sky_Glasses">
</g>
<g id="Snowboard">
</g>
<g id="Ice_Skate">
</g>
<g id="Wooden_House">
</g>
<g id="Snowcapped_House">
</g>
<g id="Hot_Drink">
</g>
<g id="Hot_Chocolate">
</g>
<g id="Lantern">
</g>
<g id="Snow_Shovel">
</g>
<g id="Snowman">
</g>
<g id="Reindeer">
</g>
<g id="Snowmobile">
</g>
<g id="Snow_Chain">
</g>
<g id="Slippery_Road">
</g>
</svg>
