<?xml version="1.0" encoding="iso-8859-1"?>
<!-- Generator: Adobe Illustrator 19.2.1, SVG Export Plug-In . SVG Version: 6.00 Build 0)  -->
<svg version="1.1" xmlns="http://www.w3.org/2000/svg" xmlns:xlink="http://www.w3.org/1999/xlink" x="0px" y="0px"
	 viewBox="0 0 30 30" style="enable-background:new 0 0 30 30;" xml:space="preserve">
<g id="Snowflake_1">
</g>
<g id="Snowflake_2">
</g>
<g id="Snowflake_3">
</g>
<g id="Snowflake_4">
</g>
<g id="Winter_Cap_1">
</g>
<g id="Winter_Cap_2">
</g>
<g id="Glowes">
</g>
<g id="Sweater_1">
</g>
<g id="Sweater_2">
</g>
<g id="Sweater_3">
</g>
<g id="Scarf">
</g>
<g id="Winter_Socks">
</g>
<g id="Winter_Sock">
</g>
<g id="Winter_Coat">
</g>
<g id="Winter_Calendar">
</g>
<g id="Thermometer_1">
	<path d="M19,7.5C19,7.224,19.224,7,19.5,7H22c0-3.86-3.141-7-7-7c-3.86,0-7,3.14-7,7v16c0,3.859,3.14,7,7,7c3.859,0,7-3.141,7-7v-5
		h-2.5c-0.276,0-0.5-0.224-0.5-0.5s0.224-0.5,0.5-0.5H22v-4h-2.5c-0.276,0-0.5-0.224-0.5-0.5s0.224-0.5,0.5-0.5H22V8h-2.5
		C19.224,8,19,7.776,19,7.5z M14.891,2.522h0.131C15.956,2.522,17,3.275,17,4.283V16h-4V4.283C13,3.345,13.884,2.522,14.891,2.522z
		 M19.193,23.195c0,1.244-0.563,2.429-1.547,3.249c-0.808,0.674-1.813,1.033-2.846,1.033c-0.267,0-0.535-0.023-0.802-0.072
		c-1.68-0.306-3.08-1.687-3.404-3.357c-0.358-1.846,0.452-3.633,2.064-4.555C12.872,19.371,13,19.132,13,18.853V17h4v1.852
		c0,0.476,0.052,0.587,0.168,0.654C18.436,20.24,19.193,21.619,19.193,23.195z"/>
</g>
<g id="Thermometer_2">
</g>
<g id="Cold">
</g>
<g id="Icicle">
</g>
<g id="Snowing">
</g>
<g id="Snow_Shoes_1">
</g>
<g id="Snow_Shoes_2">
</g>
<g id="Sledge">
</g>
<g id="Snow_Boots">
</g>
<g id="Snowcapped_Mountains">
</g>
<g id="Skis">
</g>
<g id="Sky_Glasses">
</g>
<g id="Snowboard">
</g>
<g id="Ice_Skate">
</g>
<g id="Wooden_House">
</g>
<g id="Snowcapped_House">
</g>
<g id="Hot_Drink">
</g>
<g id="Hot_Chocolate">
</g>
<g id="Lantern">
</g>
<g id="Snow_Shovel">
</g>
<g id="Snowman">
</g>
<g id="Reindeer">
</g>
<g id="Snowmobile">
</g>
<g id="Snow_Chain">
</g>
<g id="Slippery_Road">
</g>
</svg>
