<?xml version="1.0" encoding="iso-8859-1"?>
<!-- Generator: Adobe Illustrator 19.2.1, SVG Export Plug-In . SVG Version: 6.00 Build 0)  -->
<svg version="1.1" xmlns="http://www.w3.org/2000/svg" xmlns:xlink="http://www.w3.org/1999/xlink" x="0px" y="0px"
	 viewBox="0 0 30 30" style="enable-background:new 0 0 30 30;" xml:space="preserve">
<g id="Snowflake_1">
</g>
<g id="Snowflake_2">
</g>
<g id="Snowflake_3">
</g>
<g id="Snowflake_4">
</g>
<g id="Winter_Cap_1">
</g>
<g id="Winter_Cap_2">
</g>
<g id="Glowes">
</g>
<g id="Sweater_1">
</g>
<g id="Sweater_2">
</g>
<g id="Sweater_3">
</g>
<g id="Scarf">
</g>
<g id="Winter_Socks">
</g>
<g id="Winter_Sock">
	<g>
		<path d="M23.5,0h-12C10.673,0,10,0.673,10,1.5v4C10,6.327,10.673,7,11.5,7h12C24.327,7,25,6.327,25,5.5v-4
			C25,0.673,24.327,0,23.5,0z"/>
		<path d="M6.897,19.846l-0.163,0.169C5.632,21.117,5,22.624,5,24.154C5,27.378,7.642,30,10.894,30c1.564,0,3.138-0.64,4.208-1.71
			l0.108-0.107c-0.59-1.76-1.739-3.557-3.266-5.084C10.427,21.584,8.646,20.441,6.897,19.846z"/>
		<path d="M15.603,18.24c0.484,0.413,1.163,0.673,1.919,0.673c0.757,0,1.436-0.261,1.919-0.673
			c-0.498-0.529-1.182-0.848-1.919-0.848C16.784,17.392,16.1,17.711,15.603,18.24z"/>
		<path d="M17.521,16.392c0.95,0,1.842,0.38,2.515,1.023c0.081-0.206,0.137-0.422,0.137-0.649c0-0.209-0.048-0.427-0.146-0.665
			c-0.019-0.046-0.03-0.093-0.035-0.141l-0.928-2.668c-0.018-0.024-0.032-0.051-0.044-0.079c-0.226-0.518-0.828-0.865-1.5-0.865
			c-0.671,0-1.273,0.348-1.499,0.865c-0.013,0.03-0.029,0.059-0.047,0.085l-0.917,2.643c-0.004,0.046-0.016,0.092-0.035,0.136
			c-0.103,0.245-0.153,0.47-0.153,0.688c0,0.228,0.056,0.443,0.137,0.649C15.68,16.771,16.571,16.392,17.521,16.392z M17.8,14.02
			c0.18-0.19,0.52-0.19,0.7,0c0.1,0.09,0.149,0.22,0.149,0.35c0,0.13-0.05,0.26-0.149,0.35c-0.04,0.05-0.101,0.09-0.16,0.11
			c-0.06,0.03-0.12,0.04-0.19,0.04c-0.06,0-0.13-0.01-0.189-0.04c-0.061-0.02-0.12-0.06-0.16-0.11c-0.09-0.09-0.15-0.22-0.15-0.35
			C17.649,14.24,17.71,14.11,17.8,14.02z M16.43,14.18c0.03-0.06,0.061-0.12,0.11-0.16c0.04-0.05,0.1-0.09,0.16-0.11
			c0.119-0.05,0.26-0.05,0.38,0c0.06,0.02,0.12,0.06,0.16,0.11c0.05,0.04,0.09,0.1,0.109,0.16c0.03,0.06,0.04,0.12,0.04,0.19
			c0,0.06-0.01,0.13-0.04,0.19c-0.02,0.06-0.06,0.12-0.109,0.16c-0.04,0.05-0.101,0.09-0.16,0.11c-0.061,0.03-0.12,0.04-0.19,0.04
			c-0.06,0-0.13-0.01-0.189-0.04c-0.061-0.02-0.12-0.06-0.16-0.11c-0.05-0.04-0.08-0.1-0.11-0.16c-0.03-0.06-0.04-0.13-0.04-0.19
			C16.39,14.3,16.399,14.24,16.43,14.18z"/>
		<path d="M11,15.215c0.002,0.25-0.003,0.373-0.067,0.438l-3.274,3.401c1.747,0.677,3.495,1.842,4.992,3.338
			c1.502,1.502,2.67,3.258,3.346,5.012l6.597-6.53C23.487,19.98,24,18.877,24,17.847V8H11L11,15.215z M14.016,13.462
			c-0.195-0.195-0.195-0.512,0-0.707s0.512-0.195,0.707,0l0.284,0.284l0.066-0.19c0.021-0.061,0.053-0.115,0.093-0.162
			c0.071-0.138,0.174-0.255,0.271-0.375c-0.367-0.256-0.683-0.57-0.93-0.934c-0.003-0.004-0.008-0.006-0.011-0.01
			c-0.002-0.003-0.002-0.007-0.004-0.01c-0.396-0.589-0.622-1.292-0.622-2.031c0-0.276,0.224-0.5,0.5-0.5s0.5,0.224,0.5,0.5
			c0,0.32,0.064,0.629,0.172,0.919c0.05-0.089,0.089-0.184,0.089-0.288c0-0.276,0.224-0.5,0.5-0.5s0.5,0.224,0.5,0.5
			c0,0.43-0.185,0.841-0.525,1.193c0.189,0.198,0.41,0.367,0.658,0.501c0.377-0.186,0.801-0.303,1.258-0.303
			c0.456,0,0.88,0.117,1.258,0.303c0.248-0.134,0.469-0.303,0.659-0.501c-0.34-0.352-0.525-0.763-0.525-1.193
			c0-0.276,0.224-0.5,0.5-0.5s0.5,0.224,0.5,0.5c0,0.105,0.039,0.199,0.089,0.289c0.108-0.29,0.172-0.598,0.172-0.919
			c0-0.276,0.224-0.5,0.5-0.5s0.5,0.224,0.5,0.5c0,0.74-0.226,1.443-0.622,2.032c-0.002,0.003-0.002,0.007-0.004,0.009
			c-0.003,0.004-0.007,0.005-0.01,0.009c-0.248,0.364-0.564,0.678-0.931,0.935c0.1,0.124,0.205,0.245,0.278,0.389
			c0.037,0.044,0.066,0.094,0.086,0.149l0.066,0.19l0.284-0.284c0.195-0.195,0.512-0.195,0.707,0c0.195,0.195,0.195,0.512,0,0.707
			l-0.626,0.626l0.577,1.658c0.011,0.031,0.019,0.064,0.022,0.097c0.116,0.316,0.173,0.619,0.173,0.922
			c0,0.653-0.233,1.26-0.63,1.764c-0.025,0.039-0.062,0.071-0.099,0.103c-0.666,0.773-1.724,1.281-2.924,1.281
			c-1.223,0-2.302-0.526-2.965-1.324c-0.018-0.021-0.043-0.037-0.057-0.06c-0.397-0.504-0.63-1.111-0.63-1.764
			c0-0.318,0.061-0.635,0.186-0.963c0.004-0.028,0.011-0.056,0.021-0.084l0.566-1.63L14.016,13.462z"/>
	</g>
</g>
<g id="Winter_Coat">
</g>
<g id="Winter_Calendar">
</g>
<g id="Thermometer_1">
</g>
<g id="Thermometer_2">
</g>
<g id="Cold">
</g>
<g id="Icicle">
</g>
<g id="Snowing">
</g>
<g id="Snow_Shoes_1">
</g>
<g id="Snow_Shoes_2">
</g>
<g id="Sledge">
</g>
<g id="Snow_Boots">
</g>
<g id="Snowcapped_Mountains">
</g>
<g id="Skis">
</g>
<g id="Sky_Glasses">
</g>
<g id="Snowboard">
</g>
<g id="Ice_Skate">
</g>
<g id="Wooden_House">
</g>
<g id="Snowcapped_House">
</g>
<g id="Hot_Drink">
</g>
<g id="Hot_Chocolate">
</g>
<g id="Lantern">
</g>
<g id="Snow_Shovel">
</g>
<g id="Snowman">
</g>
<g id="Reindeer">
</g>
<g id="Snowmobile">
</g>
<g id="Snow_Chain">
</g>
<g id="Slippery_Road">
</g>
</svg>
