<?xml version="1.0" encoding="iso-8859-1"?>
<!-- Generator: Adobe Illustrator 19.2.1, SVG Export Plug-In . SVG Version: 6.00 Build 0)  -->
<svg version="1.1" xmlns="http://www.w3.org/2000/svg" xmlns:xlink="http://www.w3.org/1999/xlink" x="0px" y="0px"
	 viewBox="0 0 30 30" style="enable-background:new 0 0 30 30;" xml:space="preserve">
<g id="Snowflake_1">
</g>
<g id="Snowflake_2">
</g>
<g id="Snowflake_3">
</g>
<g id="Snowflake_4">
</g>
<g id="Winter_Cap_1">
</g>
<g id="Winter_Cap_2">
</g>
<g id="Glowes">
</g>
<g id="Sweater_1">
</g>
<g id="Sweater_2">
</g>
<g id="Sweater_3">
</g>
<g id="Scarf">
</g>
<g id="Winter_Socks">
</g>
<g id="Winter_Sock">
</g>
<g id="Winter_Coat">
</g>
<g id="Winter_Calendar">
	<g>
		<path d="M7,6c1.103,0,2-0.897,2-2V2c0-1.103-0.897-2-2-2S5,0.897,5,2v2C5,5.103,5.897,6,7,6z"/>
		<path d="M22,6c1.103,0,2-0.897,2-2V2c0-1.103-0.897-2-2-2s-2,0.897-2,2v2C20,5.103,20.897,6,22,6z"/>
		<path d="M8.985,22.401c0.095,0.152,0.258,0.235,0.424,0.235c0.09,0,0.182-0.024,0.265-0.076l1.365-0.853l-0.132,0.571
			c-0.063,0.27,0.105,0.538,0.374,0.601c0.038,0.009,0.076,0.013,0.113,0.013c0.228,0,0.433-0.156,0.487-0.387l0.359-1.548l1.76-1.1
			v2.073l-1.126,1.126c-0.195,0.195-0.195,0.512,0,0.707s0.512,0.195,0.707,0L14,23.344V25c0,0.276,0.224,0.5,0.5,0.5
			S15,25.276,15,25v-1.656l0.419,0.419c0.098,0.098,0.226,0.146,0.354,0.146s0.256-0.049,0.354-0.146
			c0.195-0.195,0.194-0.512-0.001-0.707L15,21.93v-2.073l1.76,1.1l0.359,1.548c0.054,0.23,0.26,0.387,0.487,0.387
			c0.037,0,0.075-0.004,0.113-0.013c0.269-0.063,0.437-0.331,0.374-0.601l-0.133-0.571l1.365,0.853
			c0.082,0.052,0.174,0.076,0.265,0.076c0.166,0,0.329-0.083,0.424-0.235c0.146-0.233,0.075-0.542-0.159-0.688l-1.373-0.859
			l0.584-0.136c0.269-0.063,0.437-0.331,0.374-0.601c-0.063-0.269-0.326-0.437-0.601-0.374l-1.556,0.361l-1.841-1.151l1.842-1.151
			l1.555,0.36c0.038,0.009,0.076,0.013,0.113,0.013c0.228,0,0.434-0.156,0.487-0.387c0.063-0.27-0.105-0.538-0.374-0.601
			l-0.583-0.135l1.372-0.857c0.234-0.146,0.306-0.455,0.159-0.689s-0.455-0.304-0.688-0.159l-1.365,0.853l0.133-0.572
			c0.063-0.269-0.105-0.538-0.374-0.6c-0.271-0.06-0.538,0.106-0.601,0.375l-0.359,1.548l-1.76,1.1V15.98l1.127-1.127
			c0.194-0.195,0.194-0.512,0-0.707c-0.195-0.195-0.512-0.195-0.708,0L15,14.566V13c0-0.276-0.224-0.5-0.5-0.5S14,12.724,14,13
			v1.566l-0.419-0.419c-0.195-0.195-0.512-0.195-0.707,0s-0.195,0.512,0,0.707L14,15.98v2.073l-1.76-1.1l-0.359-1.548
			c-0.062-0.27-0.335-0.436-0.6-0.375c-0.269,0.063-0.437,0.332-0.374,0.6l0.133,0.572l-1.365-0.853
			c-0.234-0.147-0.543-0.075-0.689,0.159c-0.146,0.234-0.075,0.543,0.159,0.689l1.372,0.857l-0.582,0.135
			c-0.269,0.063-0.437,0.331-0.375,0.601c0.054,0.23,0.259,0.387,0.487,0.387c0.038,0,0.075-0.004,0.113-0.013l1.555-0.36
			l1.842,1.151l-1.841,1.151l-1.556-0.361c-0.269-0.064-0.539,0.104-0.6,0.374c-0.063,0.27,0.104,0.538,0.374,0.601l0.584,0.136
			l-1.374,0.859C8.91,21.859,8.839,22.168,8.985,22.401z"/>
		<path d="M25,3.025V4c0,1.654-1.346,3-3,3s-3-1.346-3-3V3h-9v1c0,1.654-1.346,3-3,3S4,5.654,4,4V3.025C1.634,3.156,0,4.688,0,6.864
			v17.818C0,27.063,1.937,29,4.318,29h20.363C27.062,29,29,27.063,29,24.682V6.864C29,4.688,27.367,3.156,25,3.025z M28,24.682
			C28,26.512,26.512,28,24.682,28H4.318C2.489,28,1,26.512,1,24.682V10h27V24.682z"/>
	</g>
</g>
<g id="Thermometer_1">
</g>
<g id="Thermometer_2">
</g>
<g id="Cold">
</g>
<g id="Icicle">
</g>
<g id="Snowing">
</g>
<g id="Snow_Shoes_1">
</g>
<g id="Snow_Shoes_2">
</g>
<g id="Sledge">
</g>
<g id="Snow_Boots">
</g>
<g id="Snowcapped_Mountains">
</g>
<g id="Skis">
</g>
<g id="Sky_Glasses">
</g>
<g id="Snowboard">
</g>
<g id="Ice_Skate">
</g>
<g id="Wooden_House">
</g>
<g id="Snowcapped_House">
</g>
<g id="Hot_Drink">
</g>
<g id="Hot_Chocolate">
</g>
<g id="Lantern">
</g>
<g id="Snow_Shovel">
</g>
<g id="Snowman">
</g>
<g id="Reindeer">
</g>
<g id="Snowmobile">
</g>
<g id="Snow_Chain">
</g>
<g id="Slippery_Road">
</g>
</svg>
