<?xml version="1.0" encoding="iso-8859-1"?>
<!-- Generator: Adobe Illustrator 19.2.1, SVG Export Plug-In . SVG Version: 6.00 Build 0)  -->
<svg version="1.1" xmlns="http://www.w3.org/2000/svg" xmlns:xlink="http://www.w3.org/1999/xlink" x="0px" y="0px"
	 viewBox="0 0 30 30" style="enable-background:new 0 0 30 30;" xml:space="preserve">
<g id="Add_User">
	<g>
		<g>
			<g>
				<g>
					<g>
						<g>
							<path d="M24.676,30c-0.106,0-0.21-0.034-0.297-0.098c-0.113-0.083-0.187-0.212-0.201-0.352C24.138,29.145,23.801,29,23.5,29
								s-0.638,0.145-0.678,0.55c-0.014,0.14-0.087,0.269-0.201,0.352c-0.114,0.084-0.258,0.114-0.396,0.088
								c-1.385-0.281-2.627-1.021-3.592-2.14c-0.09-0.104-0.133-0.241-0.119-0.377c0.014-0.137,0.084-0.262,0.193-0.346
								c0.29-0.223,0.376-0.624,0.202-0.933c-0.173-0.306-0.54-0.425-0.869-0.282c-0.129,0.056-0.275,0.055-0.403-0.003
								c-0.128-0.057-0.226-0.166-0.27-0.298C17.12,24.868,17,24.178,17,23.5c0-0.677,0.12-1.368,0.366-2.11
								c0.044-0.133,0.142-0.242,0.27-0.299c0.127-0.058,0.273-0.059,0.403-0.003c0.331,0.143,0.696,0.024,0.869-0.283
								c0.175-0.309,0.088-0.71-0.202-0.933c-0.109-0.083-0.179-0.208-0.193-0.346c-0.014-0.137,0.029-0.273,0.119-0.377
								c0.964-1.119,2.207-1.858,3.592-2.14c0.139-0.026,0.282,0.004,0.396,0.088c0.113,0.083,0.187,0.212,0.201,0.352
								C22.862,17.855,23.199,18,23.5,18s0.638-0.145,0.678-0.55c0.014-0.14,0.087-0.269,0.201-0.352
								c0.114-0.084,0.257-0.115,0.396-0.088c1.385,0.281,2.627,1.021,3.592,2.14c0.09,0.104,0.133,0.241,0.119,0.377
								c-0.014,0.137-0.084,0.262-0.193,0.346c-0.29,0.223-0.376,0.624-0.202,0.933c0.173,0.305,0.539,0.423,0.869,0.282
								c0.13-0.055,0.276-0.054,0.403,0.003c0.128,0.057,0.226,0.166,0.27,0.299C29.88,22.132,30,22.823,30,23.5
								c0,0.678-0.12,1.368-0.366,2.111c-0.044,0.133-0.142,0.241-0.27,0.298s-0.274,0.058-0.403,0.003
								c-0.329-0.141-0.696-0.023-0.869,0.283c-0.175,0.31-0.088,0.71,0.202,0.933c0.109,0.083,0.179,0.208,0.193,0.346
								c0.014,0.137-0.029,0.273-0.119,0.377c-0.964,1.119-2.207,1.858-3.592,2.14C24.742,29.997,24.709,30,24.676,30z M23.5,28
								c0.69,0,1.255,0.351,1.52,0.899c0.854-0.252,1.632-0.721,2.288-1.376c-0.364-0.533-0.414-1.242-0.086-1.821v0
								c0.329-0.58,0.949-0.895,1.593-0.843C28.939,24.385,29,23.937,29,23.5s-0.061-0.885-0.186-1.359
								c-0.642,0.046-1.265-0.263-1.593-0.843c-0.328-0.58-0.277-1.289,0.086-1.821c-0.656-0.655-1.435-1.124-2.288-1.376
								C24.755,18.649,24.19,19,23.5,19s-1.255-0.351-1.52-0.899c-0.854,0.252-1.632,0.721-2.288,1.376
								c0.364,0.533,0.414,1.242,0.086,1.821c-0.329,0.581-0.961,0.89-1.593,0.843C18.061,22.615,18,23.063,18,23.5
								s0.061,0.885,0.185,1.359c0.644-0.05,1.265,0.263,1.593,0.843c0.328,0.58,0.277,1.289-0.086,1.821
								c0.656,0.655,1.435,1.124,2.288,1.376C22.245,28.351,22.81,28,23.5,28z"/>
						</g>
						<g>
							<path d="M23.5,27c-1.93,0-3.5-1.57-3.5-3.5s1.57-3.5,3.5-3.5s3.5,1.57,3.5,3.5S25.43,27,23.5,27z M23.5,21
								c-1.378,0-2.5,1.122-2.5,2.5s1.122,2.5,2.5,2.5s2.5-1.122,2.5-2.5S24.878,21,23.5,21z"/>
						</g>
					</g>
				</g>
			</g>
		</g>
		<g>
			<path d="M17.447,30H0.5C0.224,30,0,29.776,0,29.5c0-2.96,1.884-6.646,4.927-7.439l4.548-1.184l0.441-1.836
				c-1.161-1.227-1.955-2.907-2.185-4.612c-0.726-0.118-1.308-0.719-1.4-1.49l-0.293-2.445c-0.06-0.5,0.095-1,0.425-1.373
				C6.68,8.875,6.96,8.702,7.266,8.618C7.184,7.89,7.043,6.57,7.043,6.002c0-2.309,0.672-4.676,5.617-4.777
				C14.397,0,16.274,0,17.088,0c2.043,0,3.516,0.696,4.379,2.068c1.103,1.754,0.581,2.957-0.052,3.658l-0.467,0.487l-0.114,2.438
				c0.271,0.094,0.518,0.258,0.712,0.479c0.325,0.37,0.477,0.867,0.417,1.362l-0.293,2.445c-0.086,0.722-0.602,1.295-1.263,1.462
				c-0.111,0.844-0.363,1.699-0.74,2.497c-0.118,0.25-0.416,0.358-0.666,0.239c-0.25-0.118-0.356-0.416-0.239-0.666
				c0.386-0.819,0.625-1.703,0.689-2.558c0.02-0.261,0.237-0.462,0.499-0.462c0.396,0,0.683-0.271,0.726-0.63l0.293-2.445
				c0.026-0.214-0.038-0.427-0.176-0.584c-0.127-0.145-0.299-0.226-0.485-0.228c-0.136-0.001-0.265-0.058-0.358-0.157
				c-0.093-0.099-0.142-0.231-0.136-0.367l0.143-3.06c0.006-0.121,0.055-0.235,0.139-0.323l0.587-0.611
				C21.05,4.637,21.456,3.928,20.62,2.6C19.953,1.539,18.764,1,17.088,1c-1.214,0-2.635,0.133-3.963,1.124
				c-0.085,0.063-0.188,0.098-0.293,0.099C8.41,2.268,8.043,4.036,8.043,6.002c0,0.729,0.271,2.974,0.274,2.997
				C8.334,9.141,8.29,9.283,8.195,9.39C8.1,9.497,7.964,9.559,7.821,9.559H7.699c-0.186,0-0.359,0.08-0.488,0.225
				c-0.141,0.159-0.207,0.374-0.18,0.59l0.293,2.445c0.043,0.359,0.33,0.63,0.668,0.63h0.191c0.261,0,0.479,0.201,0.499,0.462
				c0.131,1.715,0.929,3.441,2.134,4.619c0.125,0.123,0.178,0.303,0.137,0.474l-0.576,2.397c-0.043,0.18-0.182,0.321-0.36,0.367
				l-4.838,1.26C2.837,23.639,1.216,26.503,1.02,29h16.427c0.276,0,0.5,0.224,0.5,0.5S17.723,30,17.447,30z"/>
		</g>
	</g>
</g>
<g id="Remove_User">
</g>
<g id="Delete_User">
</g>
<g id="Done">
</g>
<g id="At_Symbol">
</g>
<g id="Question">
</g>
<g id="Answer">
</g>
<g id="Bring_Up">
</g>
<g id="Bring_Down">
</g>
<g id="Dismiss_User">
</g>
<g id="User_Speed">
</g>
<g id="User_Settings">
</g>
<g id="User_Refresh">
</g>
<g id="User_Time">
</g>
<g id="Dollar">
</g>
<g id="Euro">
</g>
<g id="Pound">
</g>
<g id="Bitcoin">
</g>
<g id="Global_User">
</g>
<g id="Waiting_User">
</g>
<g id="Writing_User_2">
</g>
<g id="Search_User">
</g>
<g id="Lock_User">
</g>
<g id="Mark_User">
</g>
<g id="Share_User">
</g>
<g id="Shopping">
</g>
<g id="User_Download">
</g>
<g id="User_Upload">
</g>
<g id="User_Statistics">
</g>
<g id="User_Defense">
</g>
<g id="User_Car">
</g>
<g id="User_Home">
</g>
<g id="Park">
</g>
<g id="Recicle_User">
</g>
<g id="Wifi">
</g>
<g id="Attach_User">
</g>
<g id="Disabled_User">
</g>
<g id="User_Card">
</g>
<g id="Gaming">
</g>
<g id="User_Cloud">
</g>
<g id="User_Database">
</g>
<g id="Copyright">
</g>
<g id="No_Copyright">
</g>
<g id="Creative_Commun">
</g>
<g id="Eco-Friendly">
</g>
<g id="Percentage">
</g>
<g id="User_Love">
</g>
<g id="User_Place">
</g>
<g id="User_Key">
</g>
<g id="Sleeping">
</g>
<g id="Add_User_2">
</g>
<g id="Remove_User_2">
</g>
<g id="Delete_User_2">
</g>
<g id="Done_2">
</g>
<g id="At_Symbol_2">
</g>
<g id="Question_2">
</g>
<g id="Answer_2">
</g>
<g id="Bring_Up_2">
</g>
<g id="Bring_Down_2">
</g>
<g id="Dismiss_User_2">
</g>
<g id="User_Speed_2">
</g>
<g id="User_Settings_2">
</g>
<g id="Refresh_2">
</g>
<g id="Time_2">
</g>
<g id="Dollar_2">
</g>
<g id="Euro_2">
</g>
<g id="Pound_2">
</g>
<g id="Bitcoin_2">
</g>
<g id="Global_User_2">
</g>
<g id="Waiting_User_2">
</g>
<g id="Writing_User">
</g>
<g id="Search_User_2">
</g>
<g id="Lock_User_2">
</g>
<g id="Mark_User_2">
</g>
<g id="Share_User_2">
</g>
<g id="Shopping_2">
</g>
<g id="Download_2">
</g>
<g id="Upload_2">
</g>
<g id="User_Statistics_2">
</g>
<g id="User_Defense_2">
</g>
<g id="Car_2">
</g>
<g id="Home_2">
</g>
<g id="Park_2">
</g>
<g id="Recicle_User_2">
</g>
<g id="User_Wifi">
</g>
<g id="Attach_2">
</g>
<g id="Disabled_User_2">
</g>
<g id="User_Card_2">
</g>
<g id="Gaming_2">
</g>
<g id="Cloud_2">
</g>
<g id="Database_2">
</g>
<g id="Copyright_2">
</g>
<g id="No_Copyright_2">
</g>
<g id="Creative_Commun_2">
</g>
<g id="Eco-Friendly_2">
</g>
<g id="Percentage_2">
</g>
<g id="User_Love_2">
</g>
<g id="User_Rate_2">
</g>
<g id="User_Key_2">
</g>
<g id="Sleeping_2">
</g>
</svg>
