<?xml version="1.0" encoding="iso-8859-1"?>
<!-- Generator: Adobe Illustrator 19.2.1, SVG Export Plug-In . SVG Version: 6.00 Build 0)  -->
<svg version="1.1" xmlns="http://www.w3.org/2000/svg" xmlns:xlink="http://www.w3.org/1999/xlink" x="0px" y="0px"
	 viewBox="0 0 30 30" style="enable-background:new 0 0 30 30;" xml:space="preserve">
<g id="Add_Users">
</g>
<g id="Remove_Users">
</g>
<g id="Delete_Users">
</g>
<g id="Done_3">
</g>
<g id="At_Symbol_3">
	<g>
		<g>
			<path d="M21.767,14.806c-0.137,0-0.273-0.056-0.373-0.167c-0.184-0.206-0.167-0.521,0.039-0.706
				c0.96-0.86,1.594-2.143,1.696-3.43c0.021-0.26,0.238-0.46,0.499-0.46c0.252,0,0.429-0.156,0.455-0.362l0.229-1.826
				c0.015-0.117-0.02-0.231-0.098-0.32c-0.078-0.09-0.188-0.14-0.308-0.142c-0.136-0.001-0.265-0.059-0.358-0.157
				c-0.093-0.099-0.142-0.231-0.135-0.367l0.111-2.285c0.006-0.124,0.058-0.241,0.146-0.329l0.457-0.457
				c0.292-0.311,0.521-0.76-0.065-1.655C23.563,1.385,22.669,1,21.402,1c-0.498,0-1.665,0-2.744,0.645
				c-0.237,0.141-0.544,0.064-0.686-0.173c-0.142-0.237-0.064-0.544,0.173-0.686C19.311,0.089,20.498,0,21.402,0
				c1.626,0,2.802,0.537,3.495,1.596c0.906,1.384,0.471,2.341-0.054,2.899l-0.331,0.331l-0.081,1.671
				c0.204,0.083,0.388,0.212,0.535,0.381c0.264,0.302,0.387,0.704,0.337,1.102l-0.229,1.827c-0.071,0.565-0.472,1.02-0.994,1.178
				c-0.21,1.399-0.933,2.757-1.98,3.695C22.005,14.764,21.886,14.806,21.767,14.806z"/>
		</g>
		<g>
			<path d="M23.5,27c-1.93,0-3.5-1.57-3.5-3.5s1.57-3.5,3.5-3.5s3.5,1.57,3.5,3.5S25.43,27,23.5,27z M23.5,21
				c-1.378,0-2.5,1.122-2.5,2.5s1.122,2.5,2.5,2.5s2.5-1.122,2.5-2.5S24.878,21,23.5,21z"/>
		</g>
		<g>
			<path d="M28,26c-1.103,0-2-0.897-2-2v-0.5c0-0.276,0.224-0.5,0.5-0.5s0.5,0.224,0.5,0.5V24c0,0.551,0.449,1,1,1s1-0.449,1-1
				v-0.256c0-0.276,0.224-0.5,0.5-0.5s0.5,0.224,0.5,0.5V24C30,25.103,29.103,26,28,26z"/>
		</g>
		<g>
			<path d="M0.5,21.999c-0.276,0-0.5-0.223-0.5-0.499c0-2.381,1.612-4.445,3.92-5.022l3.472-0.868l0.306-1.223
				c-0.872-0.909-1.475-2.129-1.669-3.375c-0.575-0.125-1.027-0.602-1.103-1.206L4.697,7.979c-0.05-0.402,0.075-0.807,0.343-1.111
				c0.163-0.185,0.37-0.322,0.599-0.4C5.574,5.907,5.478,5.012,5.478,4.609c0-1.782,0.533-3.608,4.449-3.693
				C11.297,0,12.764,0,13.402,0c1.626,0,2.802,0.537,3.495,1.596c0.906,1.384,0.471,2.341-0.054,2.899l-0.331,0.331l-0.081,1.671
				c0.204,0.083,0.388,0.212,0.535,0.381c0.264,0.302,0.387,0.704,0.337,1.102l-0.229,1.827c-0.071,0.565-0.472,1.02-0.994,1.178
				c-0.195,1.297-0.831,2.56-1.757,3.485l0.285,1.141l3.472,0.868c0.25,0.063,0.487,0.149,0.719,0.245
				c0.255,0.105,0.376,0.398,0.271,0.653c-0.105,0.255-0.399,0.375-0.653,0.271c-0.188-0.078-0.378-0.148-0.58-0.199l-3.762-0.941
				c-0.179-0.044-0.319-0.185-0.364-0.363l-0.429-1.715c-0.045-0.18,0.013-0.37,0.151-0.494c0.96-0.86,1.594-2.143,1.696-3.43
				c0.021-0.26,0.238-0.46,0.499-0.46c0.252,0,0.429-0.156,0.455-0.362l0.229-1.826c0.015-0.117-0.02-0.231-0.098-0.32
				c-0.078-0.09-0.188-0.14-0.308-0.142c-0.136-0.001-0.265-0.059-0.358-0.157c-0.093-0.099-0.142-0.231-0.135-0.367l0.111-2.285
				c0.006-0.124,0.058-0.241,0.146-0.329l0.457-0.457c0.292-0.311,0.521-0.76-0.065-1.655C15.563,1.385,14.669,1,13.402,1
				c-0.929,0-2.015,0.097-3.024,0.82c-0.083,0.06-0.184,0.092-0.286,0.093C6.754,1.946,6.478,3.207,6.478,4.609
				c0,0.444,0.153,1.753,0.212,2.22c0.018,0.142-0.026,0.286-0.121,0.393C6.474,7.33,6.337,7.391,6.194,7.391
				c-0.214,0-0.324,0.05-0.404,0.14c-0.08,0.09-0.115,0.206-0.101,0.325l0.229,1.826c0.026,0.206,0.202,0.362,0.41,0.362h0.148
				c0.261,0,0.478,0.2,0.499,0.46c0.1,1.249,0.705,2.505,1.62,3.363c0.132,0.124,0.187,0.31,0.143,0.486l-0.448,1.79
				c-0.044,0.179-0.185,0.319-0.364,0.364l-3.763,0.941C2.3,17.913,1,19.579,1,21.498C1,21.774,0.776,21.999,0.5,21.999z"/>
		</g>
		<g>
			<path d="M23.5,30c-3.584,0-6.5-2.916-6.5-6.5s2.916-6.5,6.5-6.5s6.5,2.916,6.5,6.5c0,0.06-0.003,0.119-0.008,0.179
				c-0.019,0.273-0.271,0.535-0.527,0.515c-0.273-0.014-0.486-0.195-0.477-0.468c0-0.005,0.006-0.109,0.006-0.115L29,23.5
				c0-3.033-2.467-5.5-5.5-5.5S18,20.467,18,23.5s2.467,5.5,5.5,5.5c1.557,0,3.048-0.669,4.094-1.837
				c0.278-0.312,0.889-0.083,0.889,0.335c0,0.186-0.093,0.349-0.239,0.436C27.015,29.249,25.294,30,23.5,30z"/>
		</g>
	</g>
</g>
<g id="Question_3">
</g>
<g id="Answer_3">
</g>
<g id="Bring_Up_3">
</g>
<g id="Bring_Down_3">
</g>
<g id="Dismiss_Users">
</g>
<g id="Users_Speed_3">
</g>
<g id="Users_Settings">
</g>
<g id="Refresh_Users">
</g>
<g id="Time_3">
</g>
<g id="Dollar_3">
</g>
<g id="Euro_3">
</g>
<g id="Pound_3">
</g>
<g id="Bitcoin_3">
</g>
<g id="Global_Users">
</g>
<g id="Waiting_Users">
</g>
<g id="Writing_Users">
</g>
<g id="Search_Users">
</g>
<g id="Lock_Users">
</g>
<g id="Mark_Users">
</g>
<g id="Share_Users">
</g>
<g id="Shopping_3">
</g>
<g id="Download_3">
</g>
<g id="Upload_3">
</g>
<g id="Users_Statistics">
</g>
<g id="Users_Defense">
</g>
<g id="Car_3">
</g>
<g id="Home_3">
</g>
<g id="Park_3">
</g>
<g id="Recicle_Users">
</g>
<g id="Wifi_3">
</g>
<g id="Attach_3">
</g>
<g id="Disabled_Users">
</g>
<g id="Users_Card">
</g>
<g id="Gaming_3">
</g>
<g id="Cloud_3">
</g>
<g id="Database_3">
</g>
<g id="Copyright_3">
</g>
<g id="No_Copzright_3">
</g>
<g id="Creative_Commun_3">
</g>
<g id="Eco-Friendly_3">
</g>
<g id="Percentage_3">
</g>
<g id="Users_Love">
</g>
<g id="Users_Place">
</g>
<g id="Users_Key">
</g>
<g id="Sleeping_3">
</g>
</svg>
