<?xml version="1.0" encoding="iso-8859-1"?>
<!-- Generator: Adobe Illustrator 19.2.1, SVG Export Plug-In . SVG Version: 6.00 Build 0)  -->
<svg version="1.1" xmlns="http://www.w3.org/2000/svg" xmlns:xlink="http://www.w3.org/1999/xlink" x="0px" y="0px"
	 viewBox="0 0 30 30" style="enable-background:new 0 0 30 30;" xml:space="preserve">
<g id="Add_Users">
</g>
<g id="Remove_Users">
</g>
<g id="Delete_Users">
</g>
<g id="Done_3">
</g>
<g id="At_Symbol_3">
</g>
<g id="Question_3">
</g>
<g id="Answer_3">
</g>
<g id="Bring_Up_3">
</g>
<g id="Bring_Down_3">
</g>
<g id="Dismiss_Users">
</g>
<g id="Users_Speed_3">
</g>
<g id="Users_Settings">
</g>
<g id="Refresh_Users">
</g>
<g id="Time_3">
</g>
<g id="Dollar_3">
</g>
<g id="Euro_3">
</g>
<g id="Pound_3">
</g>
<g id="Bitcoin_3">
</g>
<g id="Global_Users">
</g>
<g id="Waiting_Users">
</g>
<g id="Writing_Users">
</g>
<g id="Search_Users">
</g>
<g id="Lock_Users">
</g>
<g id="Mark_Users">
</g>
<g id="Share_Users">
</g>
<g id="Shopping_3">
</g>
<g id="Download_3">
</g>
<g id="Upload_3">
</g>
<g id="Users_Statistics">
</g>
<g id="Users_Defense">
</g>
<g id="Car_3">
</g>
<g id="Home_3">
</g>
<g id="Park_3">
</g>
<g id="Recicle_Users">
</g>
<g id="Wifi_3">
</g>
<g id="Attach_3">
	<g>
		<g>
			<g>
				<path d="M23.261,11.027c-0.253,0-0.47-0.191-0.496-0.449c-0.028-0.274,0.171-0.52,0.446-0.548
					c0.195-0.021,0.348-0.164,0.371-0.349l0.229-1.826c0.015-0.117-0.021-0.231-0.099-0.32c-0.078-0.09-0.188-0.141-0.308-0.142
					c-0.136-0.002-0.265-0.059-0.358-0.157c-0.093-0.099-0.142-0.231-0.135-0.367l0.111-2.285c0.006-0.124,0.058-0.241,0.146-0.329
					l0.457-0.456c0.291-0.311,0.521-0.761-0.065-1.656C23.063,1.385,22.168,1,20.901,1c-0.664,0-1.537,0.053-2.402,0.462
					c-0.249,0.114-0.548,0.012-0.666-0.238s-0.012-0.548,0.238-0.666C19.116,0.063,20.133,0,20.901,0
					c1.626,0,2.802,0.537,3.495,1.595c0.905,1.385,0.471,2.341-0.054,2.899l-0.331,0.331L23.93,6.496
					c0.204,0.083,0.388,0.212,0.535,0.381c0.265,0.302,0.388,0.704,0.338,1.103l-0.229,1.827c-0.082,0.649-0.601,1.15-1.262,1.218
					C23.295,11.026,23.278,11.027,23.261,11.027z"/>
			</g>
			<g>
				<path d="M26.999,18.174c-0.1,0-0.199-0.029-0.286-0.09c-0.432-0.302-0.895-0.516-1.375-0.636l-3.764-0.941
					c-0.18-0.045-0.319-0.185-0.364-0.364l-0.429-1.715c-0.045-0.18,0.014-0.369,0.151-0.493c0.96-0.861,1.594-2.144,1.696-3.431
					c0.021-0.261,0.237-0.461,0.498-0.461c0.013-0.003,0.05-0.01,0.088-0.014c0.267-0.021,0.519,0.177,0.545,0.451
					c0.016,0.166-0.053,0.321-0.169,0.424c-0.181,1.325-0.823,2.62-1.769,3.564l0.285,1.141l3.473,0.868
					c0.6,0.149,1.174,0.414,1.705,0.786c0.227,0.158,0.282,0.471,0.124,0.696C27.312,18.1,27.156,18.174,26.999,18.174z"/>
			</g>
			<g>
				<path d="M28.954,21.466c-0.25,0-0.467-0.188-0.496-0.443c-0.136-1.187-0.772-2.258-1.746-2.939
					c-0.226-0.158-0.281-0.47-0.122-0.696c0.158-0.228,0.47-0.281,0.696-0.122c1.207,0.845,1.997,2.174,2.166,3.645
					c0.031,0.274-0.166,0.521-0.44,0.554C28.993,21.465,28.974,21.466,28.954,21.466z"/>
			</g>
		</g>
		<g>
			<path d="M0.5,21.998c-0.276,0-0.5-0.224-0.5-0.5c0-2.38,1.612-4.444,3.92-5.021l3.472-0.868l0.306-1.223
				c-0.872-0.909-1.475-2.13-1.67-3.376c-0.574-0.125-1.026-0.602-1.102-1.205L4.697,7.98C4.646,7.578,4.771,7.174,5.04,6.87
				c0.163-0.186,0.37-0.322,0.599-0.401c-0.064-0.562-0.16-1.457-0.16-1.86c0-1.782,0.532-3.608,4.449-3.692
				C11.298,0,12.764,0,13.401,0c1.626,0,2.802,0.537,3.495,1.595c0.905,1.385,0.471,2.341-0.054,2.899l-0.331,0.331L16.43,6.496
				c0.204,0.083,0.388,0.212,0.535,0.381c0.265,0.302,0.388,0.704,0.338,1.103l-0.229,1.827c-0.071,0.564-0.473,1.019-0.995,1.176
				c-0.194,1.298-0.83,2.561-1.757,3.486l0.285,1.141l3.473,0.868c1.912,0.478,3.363,1.978,3.787,3.916
				c0.06,0.27-0.111,0.536-0.382,0.595c-0.264,0.062-0.536-0.111-0.595-0.382c-0.342-1.563-1.512-2.773-3.053-3.158l-3.764-0.941
				c-0.18-0.045-0.319-0.185-0.364-0.364l-0.429-1.715c-0.045-0.18,0.014-0.369,0.151-0.493c0.96-0.861,1.594-2.144,1.696-3.431
				c0.021-0.261,0.237-0.461,0.498-0.461c0.253,0,0.429-0.155,0.455-0.361l0.229-1.826c0.015-0.117-0.021-0.231-0.099-0.32
				c-0.078-0.09-0.188-0.141-0.308-0.142c-0.136-0.002-0.265-0.059-0.358-0.157c-0.093-0.099-0.142-0.231-0.135-0.367l0.111-2.285
				c0.006-0.124,0.058-0.241,0.146-0.329l0.457-0.456c0.291-0.311,0.521-0.761-0.065-1.656C15.563,1.385,14.668,1,13.401,1
				c-0.929,0-2.014,0.098-3.023,0.819c-0.084,0.061-0.184,0.093-0.286,0.094C6.755,1.946,6.479,3.207,6.479,4.608
				c0,0.444,0.152,1.754,0.211,2.221c0.018,0.143-0.026,0.286-0.121,0.394S6.337,7.392,6.193,7.392c-0.214,0-0.324,0.05-0.404,0.14
				c-0.079,0.09-0.114,0.205-0.1,0.324l0.229,1.826c0.025,0.206,0.201,0.361,0.409,0.361h0.148c0.261,0,0.478,0.2,0.498,0.46
				c0.1,1.249,0.706,2.506,1.62,3.364c0.133,0.124,0.188,0.31,0.144,0.485l-0.448,1.79c-0.045,0.18-0.185,0.319-0.364,0.364
				l-3.763,0.941C2.301,17.913,1,19.578,1,21.498C1,21.774,0.776,21.998,0.5,21.998z"/>
		</g>
		<g>
			<path d="M25.938,30H19c-2.206,0-4-1.794-4-4s1.794-4,4-4h8c1.654,0,3,1.346,3,3s-1.346,3-3,3h-7c-1.103,0-2-0.897-2-2
				s0.897-2,2-2h5.5c0.276,0,0.5,0.224,0.5,0.5S25.776,25,25.5,25H20c-0.552,0-1,0.448-1,1s0.448,1,1,1h7c1.103,0,2-0.897,2-2
				s-0.897-2-2-2h-8c-1.654,0-3,1.346-3,3s1.346,3,3,3h6.938c0.276,0,0.5,0.224,0.5,0.5S26.214,30,25.938,30z"/>
		</g>
	</g>
</g>
<g id="Disabled_Users">
</g>
<g id="Users_Card">
</g>
<g id="Gaming_3">
</g>
<g id="Cloud_3">
</g>
<g id="Database_3">
</g>
<g id="Copyright_3">
</g>
<g id="No_Copzright_3">
</g>
<g id="Creative_Commun_3">
</g>
<g id="Eco-Friendly_3">
</g>
<g id="Percentage_3">
</g>
<g id="Users_Love">
</g>
<g id="Users_Place">
</g>
<g id="Users_Key">
</g>
<g id="Sleeping_3">
</g>
</svg>
