<?xml version="1.0" encoding="iso-8859-1"?>
<!-- Generator: Adobe Illustrator 19.2.1, SVG Export Plug-In . SVG Version: 6.00 Build 0)  -->
<svg version="1.1" xmlns="http://www.w3.org/2000/svg" xmlns:xlink="http://www.w3.org/1999/xlink" x="0px" y="0px"
	 viewBox="0 0 30 30" style="enable-background:new 0 0 30 30;" xml:space="preserve">
<g id="Add_Users">
</g>
<g id="Remove_Users">
</g>
<g id="Delete_Users">
</g>
<g id="Done_3">
</g>
<g id="At_Symbol_3">
</g>
<g id="Question_3">
</g>
<g id="Answer_3">
</g>
<g id="Bring_Up_3">
</g>
<g id="Bring_Down_3">
</g>
<g id="Dismiss_Users">
</g>
<g id="Users_Speed_3">
</g>
<g id="Users_Settings">
</g>
<g id="Refresh_Users">
</g>
<g id="Time_3">
</g>
<g id="Dollar_3">
</g>
<g id="Euro_3">
</g>
<g id="Pound_3">
</g>
<g id="Bitcoin_3">
</g>
<g id="Global_Users">
</g>
<g id="Waiting_Users">
</g>
<g id="Writing_Users">
</g>
<g id="Search_Users">
</g>
<g id="Lock_Users">
</g>
<g id="Mark_Users">
</g>
<g id="Share_Users">
</g>
<g id="Shopping_3">
</g>
<g id="Download_3">
</g>
<g id="Upload_3">
</g>
<g id="Users_Statistics">
</g>
<g id="Users_Defense">
</g>
<g id="Car_3">
</g>
<g id="Home_3">
</g>
<g id="Park_3">
</g>
<g id="Recicle_Users">
</g>
<g id="Wifi_3">
</g>
<g id="Attach_3">
</g>
<g id="Disabled_Users">
	<g>
		<g>
			<path d="M29.5,29c-0.225,0-0.429-0.151-0.485-0.379L28.109,25H24.5c-0.189,0-0.362-0.107-0.447-0.276l-2-4
				c-0.123-0.247-0.023-0.547,0.224-0.671c0.248-0.124,0.547-0.023,0.671,0.224L24.809,24H28.5c0.229,0,0.43,0.156,0.485,0.379l1,4
				c0.066,0.268-0.096,0.539-0.364,0.606C29.581,28.995,29.54,29,29.5,29z"/>
		</g>
		<g>
			<path d="M26.5,22H23c-0.276,0-0.5-0.224-0.5-0.5S22.724,21,23,21h3.5c0.276,0,0.5,0.224,0.5,0.5S26.776,22,26.5,22z"/>
		</g>
		<g>
			<path d="M21.5,19.5c-0.552,0-1-0.448-1-1s0.448-1,1-1s1,0.448,1,1S22.052,19.5,21.5,19.5z M21.5,18.499L21.5,18.499L22,18.5
				L21.5,18.499z"/>
		</g>
		<g>
			<g>
				<path d="M22.968,11.923c-0.04,0-0.081-0.005-0.122-0.015c-0.268-0.067-0.431-0.34-0.363-0.607
					c0.061-0.239,0.125-0.521,0.147-0.797c0.021-0.261,0.237-0.461,0.498-0.461c0.252,0,0.429-0.155,0.454-0.36l0.229-1.827
					c0.015-0.117-0.021-0.231-0.099-0.32c-0.078-0.09-0.188-0.141-0.308-0.142c-0.136-0.002-0.265-0.059-0.358-0.157
					c-0.093-0.099-0.142-0.231-0.135-0.367l0.111-2.285c0.006-0.124,0.058-0.241,0.146-0.329l0.457-0.456
					c0.291-0.311,0.521-0.761-0.064-1.656C23.063,1.385,22.169,1,20.901,1c-0.664,0-1.537,0.053-2.402,0.462
					c-0.249,0.114-0.548,0.012-0.666-0.238s-0.011-0.548,0.238-0.666C19.117,0.063,20.133,0,20.901,0
					c1.627,0,2.803,0.537,3.495,1.596c0.906,1.384,0.472,2.34-0.054,2.899l-0.331,0.33L23.93,6.496
					c0.204,0.083,0.389,0.212,0.536,0.381c0.264,0.302,0.387,0.704,0.337,1.103l-0.229,1.827c-0.07,0.566-0.474,1.021-0.999,1.178
					c-0.035,0.201-0.08,0.391-0.122,0.561C23.396,11.771,23.191,11.923,22.968,11.923z"/>
			</g>
			<g>
				<path d="M21.695,16.52c-0.225,0-0.428-0.151-0.485-0.379l-0.429-1.713c-0.045-0.18,0.014-0.37,0.151-0.493
					c0.741-0.665,1.292-1.6,1.55-2.633c0.066-0.269,0.333-0.43,0.606-0.364c0.268,0.067,0.431,0.339,0.364,0.606
					c-0.28,1.121-0.854,2.147-1.631,2.925l0.358,1.43c0.066,0.268-0.096,0.539-0.364,0.606C21.776,16.515,21.735,16.52,21.695,16.52
					z"/>
			</g>
		</g>
		<g>
			<path d="M0.5,21.998c-0.276,0-0.5-0.224-0.5-0.5c0-2.38,1.612-4.444,3.92-5.021l3.473-0.868l0.306-1.223
				c-0.873-0.909-1.476-2.13-1.67-3.376c-0.575-0.125-1.027-0.602-1.103-1.205L4.697,7.98C4.646,7.578,4.771,7.174,5.04,6.87
				c0.163-0.186,0.37-0.322,0.599-0.401c-0.064-0.561-0.16-1.457-0.16-1.86c0-1.782,0.533-3.608,4.449-3.692
				C11.299,0,12.764,0,13.401,0c1.627,0,2.803,0.537,3.495,1.596c0.906,1.384,0.472,2.34-0.054,2.899l-0.331,0.331l-0.082,1.67
				c0.204,0.083,0.389,0.212,0.536,0.381c0.264,0.302,0.387,0.704,0.337,1.103l-0.229,1.827c-0.07,0.564-0.471,1.019-0.994,1.176
				c-0.195,1.299-0.831,2.562-1.758,3.486l0.285,1.141l3.473,0.868c0.473,0.118,0.928,0.311,1.392,0.587
				c0.236,0.143,0.314,0.449,0.173,0.687c-0.143,0.236-0.449,0.313-0.687,0.173c-0.378-0.227-0.744-0.382-1.12-0.476l-3.764-0.941
				c-0.18-0.045-0.319-0.185-0.364-0.364l-0.429-1.715c-0.045-0.18,0.014-0.369,0.151-0.493c0.96-0.86,1.594-2.144,1.697-3.432
				c0.021-0.26,0.237-0.46,0.498-0.46c0.252,0,0.429-0.155,0.454-0.36l0.229-1.827c0.015-0.117-0.021-0.231-0.099-0.32
				c-0.078-0.09-0.188-0.141-0.308-0.142c-0.136-0.002-0.265-0.059-0.358-0.157c-0.093-0.099-0.142-0.231-0.135-0.367l0.111-2.285
				c0.006-0.124,0.058-0.241,0.146-0.329l0.457-0.456c0.291-0.311,0.521-0.761-0.064-1.656C15.563,1.385,14.669,1,13.401,1
				c-0.928,0-2.014,0.098-3.023,0.819c-0.084,0.061-0.184,0.093-0.286,0.094C6.755,1.946,6.479,3.207,6.479,4.608
				c0,0.444,0.152,1.754,0.211,2.221c0.018,0.143-0.026,0.286-0.121,0.394S6.337,7.392,6.193,7.392c-0.214,0-0.324,0.05-0.403,0.14
				C5.743,7.584,5.669,7.695,5.689,7.855l0.229,1.826c0.025,0.206,0.202,0.361,0.41,0.361h0.148c0.261,0,0.478,0.2,0.498,0.461
				c0.1,1.248,0.704,2.505,1.619,3.363c0.133,0.124,0.188,0.31,0.144,0.485l-0.447,1.79c-0.045,0.18-0.185,0.319-0.364,0.364
				l-3.764,0.941C2.301,17.913,1,19.578,1,21.498C1,21.774,0.776,21.998,0.5,21.998z"/>
		</g>
		<g>
			<path d="M23.5,30c-2.481,0-4.5-2.019-4.5-4.5c0-1.424,0.694-2.78,1.856-3.629c0.223-0.161,0.535-0.113,0.699,0.109
				c0.162,0.224,0.113,0.536-0.109,0.699C20.527,23.35,20,24.378,20,25.5c0,1.93,1.57,3.5,3.5,3.5c1.343,0,2.582-0.793,3.159-2.02
				c0.117-0.249,0.414-0.355,0.665-0.239c0.25,0.117,0.357,0.415,0.239,0.665C26.823,28.981,25.229,30,23.5,30z"/>
		</g>
	</g>
</g>
<g id="Users_Card">
</g>
<g id="Gaming_3">
</g>
<g id="Cloud_3">
</g>
<g id="Database_3">
</g>
<g id="Copyright_3">
</g>
<g id="No_Copzright_3">
</g>
<g id="Creative_Commun_3">
</g>
<g id="Eco-Friendly_3">
</g>
<g id="Percentage_3">
</g>
<g id="Users_Love">
</g>
<g id="Users_Place">
</g>
<g id="Users_Key">
</g>
<g id="Sleeping_3">
</g>
</svg>
