<?xml version="1.0" encoding="iso-8859-1"?>
<!-- Generator: Adobe Illustrator 19.2.1, SVG Export Plug-In . SVG Version: 6.00 Build 0)  -->
<svg version="1.1" xmlns="http://www.w3.org/2000/svg" xmlns:xlink="http://www.w3.org/1999/xlink" x="0px" y="0px"
	 viewBox="0 0 30 30" style="enable-background:new 0 0 30 30;" xml:space="preserve">
<g id="Add_Users">
</g>
<g id="Remove_Users">
</g>
<g id="Delete_Users">
</g>
<g id="Done_3">
	<g>
		<g>
			<path d="M21.267,14.556c-0.137,0-0.273-0.056-0.373-0.167c-0.184-0.206-0.167-0.521,0.039-0.706
				c0.96-0.86,1.594-2.143,1.696-3.43c0.021-0.26,0.238-0.46,0.499-0.46c0.252,0,0.429-0.156,0.455-0.362l0.229-1.826
				c0.015-0.117-0.02-0.231-0.098-0.32c-0.078-0.09-0.188-0.14-0.308-0.142c-0.136-0.001-0.265-0.059-0.358-0.157
				c-0.093-0.099-0.142-0.231-0.135-0.367l0.111-2.285c0.006-0.124,0.058-0.242,0.146-0.329l0.457-0.457
				c0.291-0.311,0.521-0.76-0.065-1.655c-0.497-0.759-1.391-1.144-2.658-1.144c-0.665,0-1.539,0.053-2.402,0.462
				c-0.25,0.117-0.548,0.012-0.666-0.237c-0.119-0.25-0.012-0.548,0.237-0.666c1.044-0.495,2.062-0.559,2.831-0.559
				c1.625,0,2.801,0.537,3.495,1.596c0.906,1.384,0.471,2.341-0.054,2.899l-0.331,0.332l-0.081,1.67
				c0.204,0.083,0.388,0.212,0.535,0.381c0.264,0.302,0.387,0.704,0.337,1.102l-0.229,1.827c-0.071,0.565-0.472,1.02-0.994,1.178
				c-0.21,1.399-0.933,2.757-1.98,3.695C21.505,14.514,21.386,14.556,21.267,14.556z"/>
		</g>
		<g>
			<g>
				<g>
					<g>
						<g>
							<path d="M23.5,30.25c-3.584,0-6.5-2.916-6.5-6.5s2.916-6.5,6.5-6.5s6.5,2.916,6.5,6.5S27.084,30.25,23.5,30.25z M23.5,18.25
								c-3.033,0-5.5,2.467-5.5,5.5s2.467,5.5,5.5,5.5s5.5-2.467,5.5-5.5S26.533,18.25,23.5,18.25z"/>
						</g>
						<g>
							<path d="M0.5,21.749c-0.276,0-0.5-0.223-0.5-0.499c0-2.381,1.612-4.445,3.92-5.022l3.472-0.868l0.306-1.223
								c-0.872-0.909-1.475-2.129-1.669-3.375c-0.575-0.125-1.027-0.602-1.103-1.206L4.697,7.729
								c-0.05-0.402,0.075-0.807,0.343-1.111c0.163-0.185,0.371-0.322,0.599-0.4C5.574,5.657,5.479,4.762,5.479,4.359
								c0-1.782,0.533-3.608,4.449-3.693c1.37-0.916,2.837-0.916,3.475-0.916c1.625,0,2.801,0.537,3.495,1.596
								c0.906,1.384,0.471,2.341-0.054,2.899l-0.331,0.332l-0.081,1.67c0.204,0.083,0.388,0.212,0.535,0.381
								c0.264,0.302,0.387,0.704,0.337,1.102l-0.229,1.827c-0.071,0.565-0.472,1.02-0.994,1.178
								c-0.195,1.297-0.831,2.56-1.757,3.485l0.285,1.141l3.472,0.868c0.377,0.094,0.748,0.242,1.165,0.464
								c0.244,0.129,0.337,0.432,0.207,0.676s-0.433,0.337-0.676,0.207c-0.345-0.183-0.643-0.303-0.939-0.377l-3.763-0.941
								c-0.179-0.044-0.319-0.185-0.364-0.363l-0.429-1.715c-0.045-0.18,0.013-0.37,0.151-0.494c0.96-0.86,1.594-2.143,1.696-3.43
								c0.021-0.26,0.238-0.46,0.499-0.46c0.252,0,0.429-0.156,0.455-0.362l0.229-1.826c0.015-0.117-0.02-0.231-0.098-0.32
								c-0.078-0.09-0.188-0.14-0.308-0.142c-0.136-0.001-0.265-0.059-0.358-0.157c-0.093-0.099-0.142-0.231-0.135-0.367
								l0.111-2.285c0.006-0.124,0.058-0.242,0.146-0.329l0.457-0.457c0.291-0.311,0.521-0.76-0.065-1.655
								c-0.497-0.759-1.391-1.144-2.658-1.144c-0.929,0-2.015,0.097-3.024,0.82c-0.083,0.06-0.184,0.092-0.286,0.093
								C6.755,1.696,6.479,2.957,6.479,4.359c0,0.444,0.153,1.753,0.211,2.22c0.018,0.143-0.026,0.286-0.121,0.393
								C6.474,7.08,6.337,7.141,6.194,7.141c-0.214,0-0.324,0.05-0.404,0.14c-0.08,0.09-0.115,0.206-0.101,0.325l0.229,1.826
								c0.026,0.206,0.202,0.362,0.41,0.362h0.148c0.261,0,0.478,0.2,0.499,0.46c0.1,1.249,0.705,2.505,1.62,3.363
								c0.132,0.124,0.187,0.31,0.143,0.486l-0.448,1.79c-0.044,0.179-0.185,0.319-0.364,0.364l-3.763,0.941
								C2.3,17.663,1,19.329,1,21.248C1,21.524,0.776,21.749,0.5,21.749z"/>
						</g>
						<g>
							<path d="M22.5,26.25c-0.128,0-0.256-0.049-0.354-0.146l-2-2c-0.195-0.195-0.195-0.512,0-0.707s0.512-0.195,0.707,0
								l1.646,1.646l3.646-3.646c0.195-0.195,0.512-0.195,0.707,0s0.195,0.512,0,0.707l-4,4C22.756,26.201,22.628,26.25,22.5,26.25z
								"/>
						</g>
					</g>
				</g>
			</g>
		</g>
	</g>
</g>
<g id="At_Symbol_3">
</g>
<g id="Question_3">
</g>
<g id="Answer_3">
</g>
<g id="Bring_Up_3">
</g>
<g id="Bring_Down_3">
</g>
<g id="Dismiss_Users">
</g>
<g id="Users_Speed_3">
</g>
<g id="Users_Settings">
</g>
<g id="Refresh_Users">
</g>
<g id="Time_3">
</g>
<g id="Dollar_3">
</g>
<g id="Euro_3">
</g>
<g id="Pound_3">
</g>
<g id="Bitcoin_3">
</g>
<g id="Global_Users">
</g>
<g id="Waiting_Users">
</g>
<g id="Writing_Users">
</g>
<g id="Search_Users">
</g>
<g id="Lock_Users">
</g>
<g id="Mark_Users">
</g>
<g id="Share_Users">
</g>
<g id="Shopping_3">
</g>
<g id="Download_3">
</g>
<g id="Upload_3">
</g>
<g id="Users_Statistics">
</g>
<g id="Users_Defense">
</g>
<g id="Car_3">
</g>
<g id="Home_3">
</g>
<g id="Park_3">
</g>
<g id="Recicle_Users">
</g>
<g id="Wifi_3">
</g>
<g id="Attach_3">
</g>
<g id="Disabled_Users">
</g>
<g id="Users_Card">
</g>
<g id="Gaming_3">
</g>
<g id="Cloud_3">
</g>
<g id="Database_3">
</g>
<g id="Copyright_3">
</g>
<g id="No_Copzright_3">
</g>
<g id="Creative_Commun_3">
</g>
<g id="Eco-Friendly_3">
</g>
<g id="Percentage_3">
</g>
<g id="Users_Love">
</g>
<g id="Users_Place">
</g>
<g id="Users_Key">
</g>
<g id="Sleeping_3">
</g>
</svg>
