<?xml version="1.0" encoding="iso-8859-1"?>
<!-- Generator: Adobe Illustrator 19.2.1, SVG Export Plug-In . SVG Version: 6.00 Build 0)  -->
<svg version="1.1" xmlns="http://www.w3.org/2000/svg" xmlns:xlink="http://www.w3.org/1999/xlink" x="0px" y="0px"
	 viewBox="0 0 30 30" style="enable-background:new 0 0 30 30;" xml:space="preserve">
<g id="Add_Users">
</g>
<g id="Remove_Users">
</g>
<g id="Delete_Users">
</g>
<g id="Done_3">
</g>
<g id="At_Symbol_3">
</g>
<g id="Question_3">
</g>
<g id="Answer_3">
</g>
<g id="Bring_Up_3">
</g>
<g id="Bring_Down_3">
</g>
<g id="Dismiss_Users">
</g>
<g id="Users_Speed_3">
</g>
<g id="Users_Settings">
</g>
<g id="Refresh_Users">
</g>
<g id="Time_3">
</g>
<g id="Dollar_3">
</g>
<g id="Euro_3">
</g>
<g id="Pound_3">
</g>
<g id="Bitcoin_3">
</g>
<g id="Global_Users">
</g>
<g id="Waiting_Users">
</g>
<g id="Writing_Users">
</g>
<g id="Search_Users">
</g>
<g id="Lock_Users">
</g>
<g id="Mark_Users">
</g>
<g id="Share_Users">
</g>
<g id="Shopping_3">
</g>
<g id="Download_3">
</g>
<g id="Upload_3">
</g>
<g id="Users_Statistics">
</g>
<g id="Users_Defense">
</g>
<g id="Car_3">
</g>
<g id="Home_3">
</g>
<g id="Park_3">
</g>
<g id="Recicle_Users">
</g>
<g id="Wifi_3">
</g>
<g id="Attach_3">
</g>
<g id="Disabled_Users">
</g>
<g id="Users_Card">
</g>
<g id="Gaming_3">
	<g>
		<g>
			<path d="M0.5,21.998c-0.276,0-0.5-0.224-0.5-0.5c0-2.38,1.612-4.444,3.92-5.021l3.473-0.868l0.306-1.223
				c-0.873-0.909-1.476-2.13-1.67-3.376c-0.575-0.125-1.027-0.602-1.103-1.205L4.697,7.98C4.646,7.578,4.771,7.174,5.04,6.87
				c0.163-0.186,0.37-0.322,0.599-0.401c-0.064-0.561-0.16-1.457-0.16-1.86c0-1.782,0.533-3.608,4.449-3.692
				C11.299,0,12.764,0,13.401,0c1.627,0,2.803,0.537,3.495,1.596c0.906,1.384,0.472,2.34-0.054,2.899l-0.331,0.33L16.43,6.496
				c0.204,0.083,0.389,0.212,0.536,0.381c0.264,0.302,0.387,0.704,0.337,1.103l-0.229,1.827c-0.07,0.564-0.471,1.019-0.994,1.176
				c-0.195,1.299-0.831,2.562-1.758,3.486l0.285,1.141l0.325,0.081c0.268,0.067,0.43,0.339,0.363,0.607
				c-0.068,0.267-0.337,0.429-0.607,0.363l-0.615-0.154c-0.179-0.045-0.318-0.186-0.363-0.364l-0.429-1.715
				c-0.045-0.18,0.014-0.369,0.151-0.493c0.96-0.86,1.594-2.144,1.697-3.432c0.021-0.26,0.237-0.46,0.498-0.46
				c0.252,0,0.429-0.155,0.454-0.36l0.229-1.827c0.015-0.117-0.021-0.231-0.099-0.32c-0.078-0.09-0.188-0.141-0.308-0.142
				c-0.136-0.002-0.265-0.059-0.358-0.157c-0.093-0.099-0.142-0.231-0.135-0.367l0.111-2.285c0.006-0.124,0.058-0.241,0.146-0.329
				l0.457-0.456c0.291-0.311,0.521-0.761-0.064-1.656C15.563,1.385,14.669,1,13.401,1c-0.928,0-2.014,0.098-3.023,0.819
				c-0.084,0.061-0.184,0.093-0.286,0.094C6.755,1.946,6.479,3.207,6.479,4.608c0,0.444,0.152,1.754,0.211,2.221
				c0.018,0.143-0.026,0.286-0.121,0.394S6.337,7.392,6.193,7.392c-0.214,0-0.324,0.05-0.403,0.14
				C5.743,7.584,5.669,7.695,5.689,7.855l0.229,1.826c0.025,0.206,0.202,0.361,0.41,0.361h0.148c0.261,0,0.478,0.2,0.498,0.461
				c0.1,1.248,0.704,2.505,1.619,3.363c0.133,0.124,0.188,0.31,0.144,0.485l-0.447,1.79c-0.045,0.18-0.185,0.319-0.364,0.364
				l-3.764,0.941C2.301,17.913,1,19.578,1,21.498C1,21.774,0.776,21.998,0.5,21.998z"/>
		</g>
		<g>
			<path d="M27.571,30c-2.656,0-3.929-2.661-4.249-3.456C22.906,26.379,21.809,26,20.5,26c-1.316,0-2.408,0.378-2.821,0.543
				C17.357,27.338,16.085,30,13.429,30C11.817,30,11,28.486,11,25.5c0-1.398,1.204-8.5,6.929-8.5h5.143C28.796,17,30,24.102,30,25.5
				C30,28.486,29.183,30,27.571,30z M20.5,25c1.898,0,3.366,0.686,3.428,0.715c0.122,0.059,0.216,0.164,0.26,0.291
				c0.01,0.03,1.049,2.994,3.384,2.994C27.925,29,29,29,29,25.5c0-1.166-1.094-7.5-5.929-7.5h-5.143C13.094,18,12,24.334,12,25.5
				c0,3.5,1.075,3.5,1.429,3.5c2.347,0,3.374-2.963,3.384-2.993c0.043-0.128,0.137-0.233,0.26-0.292
				C17.134,25.686,18.602,25,20.5,25z"/>
		</g>
		<g>
			<circle cx="23.5" cy="21.5" r="0.5"/>
		</g>
		<g>
			<circle cx="24.5" cy="22.5" r="0.5"/>
		</g>
		<g>
			<circle cx="24.5" cy="20.5" r="0.5"/>
		</g>
		<g>
			<circle cx="25.5" cy="21.5" r="0.5"/>
		</g>
		<g>
			<path d="M16.5,23c-0.276,0-0.5-0.224-0.5-0.5v-2c0-0.276,0.224-0.5,0.5-0.5s0.5,0.224,0.5,0.5v2C17,22.776,16.776,23,16.5,23z"/>
		</g>
		<g>
			<g>
				<path d="M22.968,11.923c-0.04,0-0.081-0.005-0.122-0.015c-0.268-0.067-0.431-0.34-0.363-0.607
					c0.061-0.239,0.125-0.521,0.147-0.797c0.021-0.261,0.237-0.461,0.498-0.461c0.252,0,0.429-0.155,0.454-0.36l0.229-1.827
					c0.015-0.117-0.021-0.231-0.099-0.32c-0.078-0.09-0.188-0.141-0.308-0.142c-0.136-0.002-0.265-0.059-0.358-0.157
					c-0.093-0.099-0.142-0.231-0.135-0.367l0.111-2.285c0.006-0.124,0.058-0.241,0.146-0.329l0.457-0.456
					c0.291-0.311,0.521-0.761-0.064-1.656C23.063,1.385,22.169,1,20.901,1c-0.664,0-1.537,0.053-2.402,0.462
					c-0.249,0.114-0.547,0.012-0.666-0.238c-0.118-0.25-0.011-0.548,0.238-0.666C19.117,0.063,20.133,0,20.901,0
					c1.627,0,2.803,0.537,3.495,1.596c0.906,1.384,0.472,2.34-0.054,2.899l-0.331,0.33L23.93,6.496
					c0.204,0.083,0.389,0.212,0.536,0.381c0.264,0.302,0.387,0.704,0.337,1.103l-0.229,1.827c-0.07,0.566-0.474,1.021-0.999,1.178
					c-0.035,0.201-0.08,0.391-0.122,0.561C23.396,11.771,23.191,11.923,22.968,11.923z"/>
			</g>
			<g>
				<path d="M21.565,16c-0.225,0-0.428-0.151-0.485-0.379l-0.299-1.193c-0.045-0.18,0.014-0.369,0.151-0.493
					c0.741-0.665,1.292-1.6,1.55-2.633c0.066-0.269,0.335-0.43,0.606-0.364c0.268,0.067,0.431,0.339,0.364,0.606
					c-0.28,1.121-0.854,2.147-1.631,2.925l0.229,0.91c0.066,0.268-0.096,0.539-0.364,0.606C21.646,15.995,21.605,16,21.565,16z"/>
			</g>
		</g>
		<g>
			<path d="M17.5,22h-2c-0.276,0-0.5-0.224-0.5-0.5s0.224-0.5,0.5-0.5h2c0.276,0,0.5,0.224,0.5,0.5S17.776,22,17.5,22z"/>
		</g>
	</g>
</g>
<g id="Cloud_3">
</g>
<g id="Database_3">
</g>
<g id="Copyright_3">
</g>
<g id="No_Copzright_3">
</g>
<g id="Creative_Commun_3">
</g>
<g id="Eco-Friendly_3">
</g>
<g id="Percentage_3">
</g>
<g id="Users_Love">
</g>
<g id="Users_Place">
</g>
<g id="Users_Key">
</g>
<g id="Sleeping_3">
</g>
</svg>
