<?xml version="1.0" encoding="iso-8859-1"?>
<!-- Generator: Adobe Illustrator 19.2.1, SVG Export Plug-In . SVG Version: 6.00 Build 0)  -->
<svg version="1.1" xmlns="http://www.w3.org/2000/svg" xmlns:xlink="http://www.w3.org/1999/xlink" x="0px" y="0px"
	 viewBox="0 0 30 30" style="enable-background:new 0 0 30 30;" xml:space="preserve">
<g id="Add_User">
</g>
<g id="Remove_User">
</g>
<g id="Delete_User">
</g>
<g id="Done">
</g>
<g id="At_Symbol">
</g>
<g id="Question">
</g>
<g id="Answer">
</g>
<g id="Bring_Up">
</g>
<g id="Bring_Down">
</g>
<g id="Dismiss_User">
</g>
<g id="User_Speed">
</g>
<g id="User_Settings">
</g>
<g id="User_Refresh">
</g>
<g id="User_Time">
</g>
<g id="Dollar">
</g>
<g id="Euro">
</g>
<g id="Pound">
</g>
<g id="Bitcoin">
</g>
<g id="Global_User">
</g>
<g id="Waiting_User">
</g>
<g id="Writing_User_2">
</g>
<g id="Search_User">
</g>
<g id="Lock_User">
	<g>
		<g>
			<g>
				<g>
					<path d="M24.5,30c-3.033,0-5.5-2.467-5.5-5.5c0-3.136,2.257-5.5,5.25-5.5c3.088,0,5.75,3.018,5.75,4.5
						c0,0.276-0.224,0.5-0.5,0.5S29,23.776,29,23.5c0-0.832-2.191-3.5-4.75-3.5C21.827,20,20,21.935,20,24.5
						c0,2.481,2.019,4.5,4.5,4.5c0.276,0,0.5,0.224,0.5,0.5S24.776,30,24.5,30z"/>
				</g>
				<g>
					<path d="M19.602,29.992L19.602,29.992L0.5,29.971c-0.276,0-0.5-0.224-0.5-0.5v-3.026c0-1.585,0.688-2.618,2.045-3.07
						l5.547-1.849c1.406-0.587,2.03-2.868,2.14-3.687C9.139,17.311,7.75,15.922,7.75,14.5c0-0.654-0.263-0.769-0.274-0.773
						C7.331,13.69,7.238,13.6,7.173,13.465C7.146,13.407,6.5,12.039,6.5,11C6.516,10.499,6.661,9.946,7,9.673V6.5
						C7,3.883,9.729,0,13.5,0c3.667,0,4.639,2.078,4.741,3.076C18.811,3.375,20,4.075,20,6.5v3.173
						c0.339,0.272,0.484,0.821,0.5,1.312c0,1.091-0.989,2.42-1.102,2.569c-0.069,0.09-0.167,0.154-0.277,0.182
						c0.009,0.007-0.246,0.083-0.246,0.765c0,1.223-0.503,2.402-1.357,3.209c0.078,0.598,0.425,2.06,1.214,3.054
						c0.172,0.216,0.136,0.531-0.081,0.703c-0.218,0.171-0.531,0.134-0.703-0.081C16.847,19.998,16.5,17.955,16.5,17.5
						c0-0.149,0.066-0.291,0.182-0.385c0.736-0.608,1.193-1.61,1.193-2.615c0-0.98,0.442-1.47,0.805-1.658
						c0.346-0.484,0.82-1.325,0.82-1.842c-0.006-0.174-0.055-0.407-0.105-0.511C19.169,10.44,19,10.24,19,10V6.5
						c0-1.902-0.831-2.334-1.277-2.567c-0.201-0.104-0.452-0.234-0.499-0.539c-0.01-0.067-0.001-0.147,0.022-0.226
						C17.187,2.526,16.43,1,13.5,1C10.142,1,8,4.611,8,6.5V10c0,0.24-0.169,0.441-0.395,0.489c-0.053,0.11-0.1,0.359-0.105,0.527
						c0,0.574,0.317,1.427,0.504,1.859c0.35,0.209,0.746,0.697,0.746,1.625c0,0.85,0.943,2.016,1.818,2.74
						c0.115,0.095,0.182,0.236,0.182,0.385c0,0.776-0.702,3.959-2.808,4.836l-5.581,1.862C1.42,24.637,1,25.292,1,26.445v2.526
						l18.603,0.021c0.276,0,0.5,0.225,0.5,0.5S19.878,29.992,19.602,29.992z"/>
				</g>
				<g>
					<path d="M29.5,24h-4c-0.276,0-0.5-0.224-0.5-0.5s0.224-0.5,0.5-0.5H29v-3.5c0-0.276,0.224-0.5,0.5-0.5s0.5,0.224,0.5,0.5v4
						C30,23.776,29.776,24,29.5,24z"/>
				</g>
			</g>
		</g>
	</g>
</g>
<g id="Mark_User">
</g>
<g id="Share_User">
</g>
<g id="Shopping">
</g>
<g id="User_Download">
</g>
<g id="User_Upload">
</g>
<g id="User_Statistics">
</g>
<g id="User_Defense">
</g>
<g id="User_Car">
</g>
<g id="User_Home">
</g>
<g id="Park">
</g>
<g id="Recicle_User">
</g>
<g id="Wifi">
</g>
<g id="Attach_User">
</g>
<g id="Disabled_User">
</g>
<g id="User_Card">
</g>
<g id="Gaming">
</g>
<g id="User_Cloud">
</g>
<g id="User_Database">
</g>
<g id="Copyright">
</g>
<g id="No_Copyright">
</g>
<g id="Creative_Commun">
</g>
<g id="Eco-Friendly">
</g>
<g id="Percentage">
</g>
<g id="User_Love">
</g>
<g id="User_Place">
</g>
<g id="User_Key">
</g>
<g id="Sleeping">
</g>
<g id="Add_User_2">
</g>
<g id="Remove_User_2">
</g>
<g id="Delete_User_2">
</g>
<g id="Done_2">
</g>
<g id="At_Symbol_2">
</g>
<g id="Question_2">
</g>
<g id="Answer_2">
</g>
<g id="Bring_Up_2">
</g>
<g id="Bring_Down_2">
</g>
<g id="Dismiss_User_2">
</g>
<g id="User_Speed_2">
</g>
<g id="User_Settings_2">
</g>
<g id="Refresh_2">
</g>
<g id="Time_2">
</g>
<g id="Dollar_2">
</g>
<g id="Euro_2">
</g>
<g id="Pound_2">
</g>
<g id="Bitcoin_2">
</g>
<g id="Global_User_2">
</g>
<g id="Waiting_User_2">
</g>
<g id="Writing_User">
</g>
<g id="Search_User_2">
</g>
<g id="Lock_User_2">
</g>
<g id="Mark_User_2">
</g>
<g id="Share_User_2">
</g>
<g id="Shopping_2">
</g>
<g id="Download_2">
</g>
<g id="Upload_2">
</g>
<g id="User_Statistics_2">
</g>
<g id="User_Defense_2">
</g>
<g id="Car_2">
</g>
<g id="Home_2">
</g>
<g id="Park_2">
</g>
<g id="Recicle_User_2">
</g>
<g id="User_Wifi">
</g>
<g id="Attach_2">
</g>
<g id="Disabled_User_2">
</g>
<g id="User_Card_2">
</g>
<g id="Gaming_2">
</g>
<g id="Cloud_2">
</g>
<g id="Database_2">
</g>
<g id="Copyright_2">
</g>
<g id="No_Copyright_2">
</g>
<g id="Creative_Commun_2">
</g>
<g id="Eco-Friendly_2">
</g>
<g id="Percentage_2">
</g>
<g id="User_Love_2">
</g>
<g id="User_Rate_2">
</g>
<g id="User_Key_2">
</g>
<g id="Sleeping_2">
</g>
</svg>
