<?xml version="1.0" encoding="iso-8859-1"?>
<!-- Generator: Adobe Illustrator 19.2.1, SVG Export Plug-In . SVG Version: 6.00 Build 0)  -->
<svg version="1.1" xmlns="http://www.w3.org/2000/svg" xmlns:xlink="http://www.w3.org/1999/xlink" x="0px" y="0px"
	 viewBox="0 0 30 30" style="enable-background:new 0 0 30 30;" xml:space="preserve">
<g id="Add_User">
</g>
<g id="Remove_User">
</g>
<g id="Delete_User">
</g>
<g id="Done">
</g>
<g id="At_Symbol">
</g>
<g id="Question">
</g>
<g id="Answer">
</g>
<g id="Bring_Up">
</g>
<g id="Bring_Down">
</g>
<g id="Dismiss_User">
</g>
<g id="User_Speed">
</g>
<g id="User_Settings">
</g>
<g id="User_Refresh">
</g>
<g id="User_Time">
</g>
<g id="Dollar">
</g>
<g id="Euro">
</g>
<g id="Pound">
</g>
<g id="Bitcoin">
</g>
<g id="Global_User">
</g>
<g id="Waiting_User">
</g>
<g id="Writing_User_2">
</g>
<g id="Search_User">
</g>
<g id="Lock_User">
</g>
<g id="Mark_User">
</g>
<g id="Share_User">
</g>
<g id="Shopping">
</g>
<g id="User_Download">
</g>
<g id="User_Upload">
</g>
<g id="User_Statistics">
</g>
<g id="User_Defense">
</g>
<g id="User_Car">
</g>
<g id="User_Home">
</g>
<g id="Park">
</g>
<g id="Recicle_User">
</g>
<g id="Wifi">
</g>
<g id="Attach_User">
</g>
<g id="Disabled_User">
</g>
<g id="User_Card">
</g>
<g id="Gaming">
</g>
<g id="User_Cloud">
</g>
<g id="User_Database">
</g>
<g id="Copyright">
</g>
<g id="No_Copyright">
	<g>
		<g>
			<path d="M28.25,29h-7.5C19.785,29,19,28.199,19,27.214V25c0-0.188,0.104-0.359,0.271-0.445l1.066-0.548l0.902-2.782
				C21.477,20.492,22.145,20,22.901,20h3.198c0.756,0,1.424,0.492,1.661,1.225l0.902,2.782l1.066,0.548
				C29.896,24.641,30,24.813,30,25v2.214C30,28.199,29.215,29,28.25,29z M20,25.305v1.909C20,27.647,20.336,28,20.75,28h7.5
				c0.414,0,0.75-0.353,0.75-0.786v-1.909l-0.979-0.503c-0.118-0.061-0.207-0.165-0.247-0.291l-0.965-2.978
				C26.706,21.214,26.42,21,26.099,21h-3.198c-0.321,0-0.606,0.214-0.71,0.533l-0.965,2.979c-0.041,0.125-0.129,0.23-0.247,0.291
				L20,25.305z M20.75,24.357h0.01H20.75z"/>
		</g>
		<g>
			<path d="M28.5,25h-8c-0.276,0-0.5-0.224-0.5-0.5s0.224-0.5,0.5-0.5h8c0.276,0,0.5,0.224,0.5,0.5S28.776,25,28.5,25z"/>
		</g>
		<g>
			<path d="M21.5,30c-0.276,0-0.5-0.224-0.5-0.5v-1c0-0.276,0.224-0.5,0.5-0.5s0.5,0.224,0.5,0.5v1C22,29.776,21.776,30,21.5,30z"/>
		</g>
		<g>
			<path d="M27.5,30c-0.276,0-0.5-0.224-0.5-0.5v-1c0-0.276,0.224-0.5,0.5-0.5s0.5,0.224,0.5,0.5v1C28,29.776,27.776,30,27.5,30z"/>
		</g>
		<g>
			<path d="M21.5,27h-2c-0.276,0-0.5-0.224-0.5-0.5s0.224-0.5,0.5-0.5h2c0.276,0,0.5,0.224,0.5,0.5S21.776,27,21.5,27z"/>
		</g>
		<g>
			<path d="M18.423,30H0.5C0.224,30,0,29.776,0,29.5v-3.055c0-1.585,0.688-2.618,2.045-3.07l5.547-1.849
				c1.406-0.587,2.03-2.868,2.14-3.687C9.139,17.311,7.75,15.922,7.75,14.5c0-0.654-0.263-0.769-0.274-0.773
				C7.331,13.69,7.238,13.6,7.173,13.465C7.146,13.407,6.5,12.039,6.5,11C6.516,10.499,6.661,9.946,7,9.673V6.5
				C7,3.883,9.729,0,13.5,0c3.667,0,4.639,2.078,4.741,3.076C18.811,3.375,20,4.075,20,6.5v3.173c0.339,0.272,0.484,0.821,0.5,1.312
				c0,1.091-0.989,2.42-1.102,2.569c-0.069,0.09-0.167,0.154-0.277,0.182c0.009,0.004-0.246,0.083-0.246,0.765
				c0,1.223-0.503,2.403-1.358,3.21c0.105,0.825,0.715,3.153,2.116,3.797c0.251,0.115,0.361,0.412,0.245,0.663
				c-0.115,0.25-0.413,0.359-0.663,0.245C17.179,21.479,16.5,18.276,16.5,17.5c0-0.149,0.066-0.291,0.182-0.385
				c0.736-0.608,1.193-1.61,1.193-2.615c0-0.98,0.442-1.47,0.805-1.658c0.346-0.484,0.82-1.325,0.82-1.842
				c-0.006-0.174-0.055-0.407-0.105-0.511C19.169,10.44,19,10.24,19,10V6.5c0-1.902-0.831-2.334-1.277-2.566
				c-0.201-0.105-0.452-0.235-0.499-0.539c-0.01-0.067-0.001-0.147,0.022-0.226C17.187,2.526,16.43,1,13.5,1C10.142,1,8,4.611,8,6.5
				V10c0,0.24-0.169,0.441-0.395,0.489c-0.053,0.11-0.1,0.359-0.105,0.527c0,0.574,0.317,1.427,0.504,1.859
				c0.35,0.209,0.746,0.697,0.746,1.625c0,0.85,0.943,2.016,1.818,2.74c0.115,0.095,0.182,0.236,0.182,0.385
				c0,0.776-0.702,3.959-2.808,4.836l-5.581,1.862C1.42,24.637,1,25.292,1,26.445V29h17.423c0.276,0,0.5,0.224,0.5,0.5
				S18.7,30,18.423,30z"/>
		</g>
		<g>
			<path d="M29.5,27h-2c-0.276,0-0.5-0.224-0.5-0.5s0.224-0.5,0.5-0.5h2c0.276,0,0.5,0.224,0.5,0.5S29.776,27,29.5,27z"/>
		</g>
	</g>
</g>
<g id="Creative_Commun">
</g>
<g id="Eco-Friendly">
</g>
<g id="Percentage">
</g>
<g id="User_Love">
</g>
<g id="User_Place">
</g>
<g id="User_Key">
</g>
<g id="Sleeping">
</g>
<g id="Add_User_2">
</g>
<g id="Remove_User_2">
</g>
<g id="Delete_User_2">
</g>
<g id="Done_2">
</g>
<g id="At_Symbol_2">
</g>
<g id="Question_2">
</g>
<g id="Answer_2">
</g>
<g id="Bring_Up_2">
</g>
<g id="Bring_Down_2">
</g>
<g id="Dismiss_User_2">
</g>
<g id="User_Speed_2">
</g>
<g id="User_Settings_2">
</g>
<g id="Refresh_2">
</g>
<g id="Time_2">
</g>
<g id="Dollar_2">
</g>
<g id="Euro_2">
</g>
<g id="Pound_2">
</g>
<g id="Bitcoin_2">
</g>
<g id="Global_User_2">
</g>
<g id="Waiting_User_2">
</g>
<g id="Writing_User">
</g>
<g id="Search_User_2">
</g>
<g id="Lock_User_2">
</g>
<g id="Mark_User_2">
</g>
<g id="Share_User_2">
</g>
<g id="Shopping_2">
</g>
<g id="Download_2">
</g>
<g id="Upload_2">
</g>
<g id="User_Statistics_2">
</g>
<g id="User_Defense_2">
</g>
<g id="Car_2">
</g>
<g id="Home_2">
</g>
<g id="Park_2">
</g>
<g id="Recicle_User_2">
</g>
<g id="User_Wifi">
</g>
<g id="Attach_2">
</g>
<g id="Disabled_User_2">
</g>
<g id="User_Card_2">
</g>
<g id="Gaming_2">
</g>
<g id="Cloud_2">
</g>
<g id="Database_2">
</g>
<g id="Copyright_2">
</g>
<g id="No_Copyright_2">
</g>
<g id="Creative_Commun_2">
</g>
<g id="Eco-Friendly_2">
</g>
<g id="Percentage_2">
</g>
<g id="User_Love_2">
</g>
<g id="User_Rate_2">
</g>
<g id="User_Key_2">
</g>
<g id="Sleeping_2">
</g>
</svg>
