<?xml version="1.0" encoding="iso-8859-1"?>
<!-- Generator: Adobe Illustrator 19.2.1, SVG Export Plug-In . SVG Version: 6.00 Build 0)  -->
<svg version="1.1" xmlns="http://www.w3.org/2000/svg" xmlns:xlink="http://www.w3.org/1999/xlink" x="0px" y="0px"
	 viewBox="0 0 30 30" style="enable-background:new 0 0 30 30;" xml:space="preserve">
<g id="Add_Users">
</g>
<g id="Remove_Users">
</g>
<g id="Delete_Users">
</g>
<g id="Done_3">
</g>
<g id="At_Symbol_3">
</g>
<g id="Question_3">
</g>
<g id="Answer_3">
</g>
<g id="Bring_Up_3">
</g>
<g id="Bring_Down_3">
</g>
<g id="Dismiss_Users">
</g>
<g id="Users_Speed_3">
</g>
<g id="Users_Settings">
</g>
<g id="Refresh_Users">
</g>
<g id="Time_3">
</g>
<g id="Dollar_3">
</g>
<g id="Euro_3">
</g>
<g id="Pound_3">
</g>
<g id="Bitcoin_3">
</g>
<g id="Global_Users">
</g>
<g id="Waiting_Users">
</g>
<g id="Writing_Users">
</g>
<g id="Search_Users">
</g>
<g id="Lock_Users">
</g>
<g id="Mark_Users">
</g>
<g id="Share_Users">
</g>
<g id="Shopping_3">
</g>
<g id="Download_3">
</g>
<g id="Upload_3">
</g>
<g id="Users_Statistics">
</g>
<g id="Users_Defense">
</g>
<g id="Car_3">
</g>
<g id="Home_3">
</g>
<g id="Park_3">
	<g>
		<g>
			<path d="M21.5,21.999c-0.276,0-0.5-0.223-0.5-0.499c0-1.921-1.3-3.587-3.162-4.052l-3.764-0.941
				c-0.179-0.045-0.319-0.185-0.363-0.364l-0.429-1.715c-0.045-0.18,0.013-0.369,0.151-0.493c0.96-0.861,1.595-2.144,1.696-3.43
				c0.021-0.261,0.238-0.461,0.499-0.461c0.252,0,0.429-0.155,0.455-0.362l0.229-1.826c0.015-0.117-0.021-0.231-0.098-0.32
				c-0.079-0.09-0.188-0.141-0.307-0.142c-0.136-0.002-0.265-0.059-0.358-0.157s-0.142-0.231-0.136-0.367l0.111-2.285
				c0.006-0.124,0.058-0.241,0.146-0.329l0.456-0.456c0.292-0.311,0.521-0.761-0.065-1.656C15.563,1.385,14.669,1,13.402,1
				c-0.929,0-2.014,0.098-3.024,0.819c-0.083,0.061-0.184,0.093-0.286,0.094C6.754,1.946,6.478,3.207,6.478,4.608
				c0,0.444,0.153,1.754,0.212,2.221c0.018,0.143-0.026,0.285-0.121,0.394C6.474,7.33,6.337,7.392,6.194,7.392
				c-0.214,0-0.324,0.05-0.404,0.14S5.675,7.736,5.689,7.856l0.229,1.825c0.026,0.207,0.202,0.362,0.41,0.362h0.148
				c0.261,0,0.478,0.2,0.499,0.46c0.1,1.248,0.705,2.505,1.62,3.363c0.132,0.124,0.187,0.31,0.143,0.485l-0.448,1.79
				c-0.044,0.18-0.185,0.319-0.363,0.364l-3.763,0.941C2.3,17.913,1,19.578,1,21.498c0,0.276-0.224,0.5-0.5,0.5S0,21.774,0,21.498
				c0-2.38,1.612-4.444,3.92-5.021l3.472-0.868l0.306-1.223c-0.872-0.909-1.475-2.129-1.669-3.375
				c-0.575-0.125-1.027-0.602-1.103-1.205L4.697,7.98c-0.05-0.402,0.075-0.808,0.343-1.111c0.163-0.185,0.37-0.321,0.599-0.4
				c-0.065-0.562-0.161-1.457-0.161-1.86c0-1.782,0.533-3.608,4.449-3.692C11.298,0,12.764,0,13.402,0
				c1.626,0,2.802,0.537,3.495,1.596c0.906,1.384,0.471,2.34-0.054,2.899l-0.33,0.33l-0.082,1.672
				c0.204,0.082,0.387,0.211,0.535,0.38c0.264,0.302,0.387,0.704,0.337,1.103l-0.229,1.827c-0.071,0.565-0.472,1.02-0.994,1.177
				c-0.195,1.298-0.831,2.56-1.757,3.485l0.285,1.141l3.473,0.868C20.388,17.054,22,19.118,22,21.498
				C22,21.774,21.776,21.999,21.5,21.999z"/>
		</g>
		<g>
			<path d="M25.459,17.463c-0.041,0-0.081-0.005-0.122-0.015l-3.763-0.941c-0.179-0.045-0.319-0.185-0.363-0.364l-0.429-1.715
				c-0.045-0.18,0.013-0.369,0.151-0.493c0.96-0.861,1.595-2.144,1.696-3.431c0.021-0.261,0.238-0.461,0.499-0.461
				c0.252,0,0.429-0.155,0.455-0.361l0.229-1.826c0.015-0.117-0.021-0.231-0.098-0.32c-0.079-0.09-0.188-0.141-0.307-0.142
				c-0.136-0.002-0.265-0.059-0.358-0.157s-0.142-0.231-0.136-0.367l0.111-2.285c0.006-0.124,0.058-0.241,0.146-0.329l0.457-0.456
				c0.291-0.311,0.521-0.761-0.065-1.656C23.063,1.385,22.169,1,20.902,1c-0.664,0-1.538,0.053-2.402,0.463
				c-0.25,0.117-0.548,0.012-0.666-0.238c-0.119-0.249-0.012-0.548,0.237-0.666C19.116,0.063,20.133,0,20.902,0
				c1.626,0,2.802,0.537,3.495,1.595c0.905,1.385,0.47,2.341-0.054,2.899l-0.332,0.331l-0.081,1.671
				c0.203,0.083,0.387,0.212,0.535,0.381c0.264,0.302,0.387,0.704,0.337,1.103l-0.229,1.827c-0.071,0.564-0.472,1.019-0.994,1.176
				c-0.195,1.298-0.831,2.561-1.757,3.486l0.285,1.141l3.473,0.868c0.268,0.067,0.431,0.339,0.363,0.606
				C25.887,17.312,25.683,17.463,25.459,17.463z"/>
		</g>
		<g>
			<path d="M27.5,25.5c-1.378,0-2.5-1.121-2.5-2.5s1.122-2.5,2.5-2.5S30,21.621,30,23S28.878,25.5,27.5,25.5z M27.5,21.5
				c-0.827,0-1.5,0.673-1.5,1.5s0.673,1.5,1.5,1.5S29,23.827,29,23S28.327,21.5,27.5,21.5z"/>
		</g>
		<g>
			<path d="M27.5,30c-0.276,0-0.5-0.224-0.5-0.5v-4c0-0.276,0.224-0.5,0.5-0.5s0.5,0.224,0.5,0.5v4C28,29.776,27.776,30,27.5,30z"/>
		</g>
		<g>
			<path d="M25.5,30c-0.276,0-0.5-0.224-0.5-0.5v-2.75c0-0.413-0.336-0.75-0.75-0.75h-2.5C21.336,26,21,26.337,21,26.75v2.75
				c0,0.276-0.224,0.5-0.5,0.5S20,29.776,20,29.5v-2.75c0-0.965,0.785-1.75,1.75-1.75h2.5c0.965,0,1.75,0.785,1.75,1.75v2.75
				C26,29.776,25.776,30,25.5,30z"/>
		</g>
		<g>
			<path d="M25.5,29h-5c-0.276,0-0.5-0.224-0.5-0.5s0.224-0.5,0.5-0.5h5c0.276,0,0.5,0.224,0.5,0.5S25.776,29,25.5,29z"/>
		</g>
	</g>
</g>
<g id="Recicle_Users">
</g>
<g id="Wifi_3">
</g>
<g id="Attach_3">
</g>
<g id="Disabled_Users">
</g>
<g id="Users_Card">
</g>
<g id="Gaming_3">
</g>
<g id="Cloud_3">
</g>
<g id="Database_3">
</g>
<g id="Copyright_3">
</g>
<g id="No_Copzright_3">
</g>
<g id="Creative_Commun_3">
</g>
<g id="Eco-Friendly_3">
</g>
<g id="Percentage_3">
</g>
<g id="Users_Love">
</g>
<g id="Users_Place">
</g>
<g id="Users_Key">
</g>
<g id="Sleeping_3">
</g>
</svg>
