<?xml version="1.0" encoding="iso-8859-1"?>
<!-- Generator: Adobe Illustrator 19.2.1, SVG Export Plug-In . SVG Version: 6.00 Build 0)  -->
<svg version="1.1" xmlns="http://www.w3.org/2000/svg" xmlns:xlink="http://www.w3.org/1999/xlink" x="0px" y="0px"
	 viewBox="0 0 30 30" style="enable-background:new 0 0 30 30;" xml:space="preserve">
<g id="Add_User">
</g>
<g id="Remove_User">
</g>
<g id="Delete_User">
</g>
<g id="Done">
</g>
<g id="At_Symbol">
</g>
<g id="Question">
</g>
<g id="Answer">
</g>
<g id="Bring_Up">
</g>
<g id="Bring_Down">
</g>
<g id="Dismiss_User">
</g>
<g id="User_Speed">
</g>
<g id="User_Settings">
</g>
<g id="User_Refresh">
</g>
<g id="User_Time">
</g>
<g id="Dollar">
</g>
<g id="Euro">
</g>
<g id="Pound">
</g>
<g id="Bitcoin">
</g>
<g id="Global_User">
</g>
<g id="Waiting_User">
</g>
<g id="Writing_User_2">
</g>
<g id="Search_User">
</g>
<g id="Lock_User">
</g>
<g id="Mark_User">
</g>
<g id="Share_User">
</g>
<g id="Shopping">
</g>
<g id="User_Download">
</g>
<g id="User_Upload">
</g>
<g id="User_Statistics">
</g>
<g id="User_Defense">
</g>
<g id="User_Car">
</g>
<g id="User_Home">
</g>
<g id="Park">
</g>
<g id="Recicle_User">
</g>
<g id="Wifi">
</g>
<g id="Attach_User">
</g>
<g id="Disabled_User">
</g>
<g id="User_Card">
</g>
<g id="Gaming">
</g>
<g id="User_Cloud">
</g>
<g id="User_Database">
</g>
<g id="Copyright">
</g>
<g id="No_Copyright">
</g>
<g id="Creative_Commun">
</g>
<g id="Eco-Friendly">
</g>
<g id="Percentage">
</g>
<g id="User_Love">
</g>
<g id="User_Place">
</g>
<g id="User_Key">
</g>
<g id="Sleeping">
</g>
<g id="Add_User_2">
</g>
<g id="Remove_User_2">
</g>
<g id="Delete_User_2">
</g>
<g id="Done_2">
</g>
<g id="At_Symbol_2">
</g>
<g id="Question_2">
</g>
<g id="Answer_2">
</g>
<g id="Bring_Up_2">
</g>
<g id="Bring_Down_2">
</g>
<g id="Dismiss_User_2">
</g>
<g id="User_Speed_2">
</g>
<g id="User_Settings_2">
</g>
<g id="Refresh_2">
</g>
<g id="Time_2">
</g>
<g id="Dollar_2">
</g>
<g id="Euro_2">
</g>
<g id="Pound_2">
</g>
<g id="Bitcoin_2">
</g>
<g id="Global_User_2">
</g>
<g id="Waiting_User_2">
</g>
<g id="Writing_User">
</g>
<g id="Search_User_2">
</g>
<g id="Lock_User_2">
</g>
<g id="Mark_User_2">
</g>
<g id="Share_User_2">
</g>
<g id="Shopping_2">
	<g>
		<g>
			<path d="M28.5,30h-3c-0.276,0-0.5-0.224-0.5-0.5V27h-1v2.5c0,0.276-0.224,0.5-0.5,0.5h-3c-0.276,0-0.5-0.224-0.5-0.5V25h-0.5
				c-0.202,0-0.385-0.122-0.462-0.309s-0.034-0.402,0.108-0.545l5-5c0.195-0.195,0.512-0.195,0.707,0l5,5
				c0.143,0.143,0.186,0.358,0.108,0.545S29.702,25,29.5,25H29v4.5C29,29.776,28.776,30,28.5,30z M26,29h2v-4.5
				c0-0.215,0.135-0.397,0.324-0.469L24.5,20.207l-3.824,3.824C20.865,24.103,21,24.285,21,24.5V29h2v-2.5
				c0-0.276,0.224-0.5,0.5-0.5h2c0.276,0,0.5,0.224,0.5,0.5V29z"/>
		</g>
		<g>
			<path d="M18.5,30h-18C0.224,30,0,29.776,0,29.5S0.224,29,0.5,29h18c0.276,0,0.5,0.224,0.5,0.5S18.776,30,18.5,30z"/>
		</g>
		<g>
			<path d="M0.5,30C0.224,30,0,29.776,0,29.5c0-2.96,1.884-6.646,4.927-7.438c0.271-0.074,0.54,0.092,0.609,0.357
				c0.07,0.268-0.09,0.54-0.357,0.609C2.679,23.68,1,26.9,1,29.5C1,29.776,0.776,30,0.5,30z"/>
		</g>
		<g>
			<path d="M5.053,23.045c-0.223,0-0.425-0.149-0.483-0.374c-0.07-0.268,0.09-0.54,0.357-0.609l4.839-1.26
				c0.27-0.076,0.54,0.092,0.609,0.357c0.07,0.268-0.09,0.54-0.357,0.609l-4.839,1.26C5.137,23.04,5.094,23.045,5.053,23.045z"/>
		</g>
		<g>
			<path d="M9.892,21.785c-0.038,0-0.077-0.004-0.116-0.014c-0.269-0.064-0.435-0.334-0.37-0.603l0.575-2.397
				c0.063-0.269,0.329-0.44,0.603-0.37c0.269,0.064,0.435,0.334,0.37,0.603l-0.575,2.397C10.323,21.631,10.118,21.785,9.892,21.785z
				"/>
		</g>
		<g>
			<path d="M10.467,19.388c-0.126,0-0.252-0.047-0.35-0.143c-1.373-1.341-2.282-3.307-2.433-5.258
				c-0.021-0.275,0.186-0.516,0.461-0.537c0.25-0.024,0.516,0.184,0.537,0.461c0.131,1.716,0.929,3.442,2.134,4.619
				c0.197,0.192,0.201,0.509,0.008,0.707C10.727,19.337,10.597,19.388,10.467,19.388z"/>
		</g>
		<g>
			<path d="M8.184,14.449h-0.19c-0.276,0-0.5-0.224-0.5-0.5s0.224-0.5,0.5-0.5h0.19c0.276,0,0.5,0.224,0.5,0.5
				S8.46,14.449,8.184,14.449z"/>
		</g>
		<g>
			<path d="M7.993,14.449c-0.844,0-1.559-0.65-1.661-1.512c-0.033-0.274,0.162-0.523,0.437-0.556
				c0.267-0.041,0.522,0.162,0.556,0.437c0.043,0.359,0.331,0.631,0.669,0.631c0.276,0,0.5,0.224,0.5,0.5S8.27,14.449,7.993,14.449z
				"/>
		</g>
		<g>
			<path d="M6.827,13.378c-0.249,0-0.465-0.187-0.495-0.44l-0.294-2.445C6.005,10.218,6.2,9.969,6.475,9.937
				c0.265-0.04,0.522,0.162,0.556,0.437l0.294,2.445c0.033,0.274-0.162,0.523-0.437,0.556C6.867,13.377,6.848,13.378,6.827,13.378z"
				/>
		</g>
		<g>
			<path d="M6.533,10.933c-0.249,0-0.465-0.187-0.495-0.44c-0.06-0.501,0.096-1.001,0.426-1.373C6.78,8.763,7.23,8.559,7.699,8.559
				c0.276,0,0.5,0.224,0.5,0.5s-0.224,0.5-0.5,0.5c-0.187,0-0.359,0.08-0.487,0.225c-0.142,0.158-0.207,0.373-0.182,0.59
				c0.033,0.274-0.163,0.523-0.437,0.556C6.573,10.932,6.554,10.933,6.533,10.933z"/>
		</g>
		<g>
			<path d="M7.82,9.559H7.699c-0.276,0-0.5-0.224-0.5-0.5s0.224-0.5,0.5-0.5H7.82c0.276,0,0.5,0.224,0.5,0.5S8.097,9.559,7.82,9.559
				z"/>
		</g>
		<g>
			<path d="M7.819,9.559c-0.249,0-0.465-0.187-0.495-0.439C7.313,9.024,7.043,6.791,7.043,6.002c0-0.276,0.224-0.5,0.5-0.5
				s0.5,0.224,0.5,0.5c0,0.729,0.271,2.974,0.273,2.996C8.35,9.272,8.154,9.521,7.881,9.555C7.86,9.558,7.84,9.559,7.819,9.559z"/>
		</g>
		<g>
			<path d="M7.543,6.502c-0.276,0-0.5-0.224-0.5-0.5c0-2.334,0.687-4.727,5.778-4.779c0.281,0.039,0.502,0.219,0.505,0.495
				c0.003,0.275-0.219,0.502-0.495,0.505C8.409,2.269,8.043,4.036,8.043,6.002C8.043,6.278,7.819,6.502,7.543,6.502z"/>
		</g>
		<g>
			<path d="M12.826,2.223c-0.152,0-0.303-0.069-0.401-0.201c-0.165-0.222-0.119-0.535,0.103-0.7C14.301,0,16.254,0,17.088,0
				c0.276,0,0.5,0.224,0.5,0.5S17.364,1,17.088,1c-1.214,0-2.635,0.134-3.963,1.124C13.035,2.19,12.931,2.223,12.826,2.223z"/>
		</g>
		<g>
			<path d="M21.043,2.834c-0.166,0-0.328-0.083-0.423-0.234C19.952,1.538,18.764,1,17.088,1c-0.276,0-0.5-0.224-0.5-0.5
				s0.224-0.5,0.5-0.5c2.043,0,3.516,0.695,4.378,2.068c0.147,0.233,0.077,0.542-0.157,0.688C21.227,2.81,21.135,2.834,21.043,2.834
				z"/>
		</g>
		<g>
			<path d="M21.043,5.891c-0.119,0-0.239-0.043-0.335-0.129c-0.205-0.185-0.222-0.501-0.036-0.706
				c0.409-0.454,0.773-1.143-0.052-2.455c-0.147-0.234-0.077-0.543,0.156-0.689c0.233-0.147,0.542-0.077,0.689,0.156
				c0.886,1.408,0.868,2.639-0.052,3.658C21.315,5.835,21.18,5.891,21.043,5.891z"/>
		</g>
		<g>
			<path d="M20.457,6.502c-0.124,0-0.249-0.046-0.346-0.139c-0.199-0.191-0.206-0.508-0.016-0.707l0.586-0.611
				c0.192-0.198,0.508-0.206,0.707-0.016c0.199,0.191,0.206,0.508,0.016,0.707l-0.586,0.611C20.72,6.45,20.589,6.502,20.457,6.502z"
				/>
		</g>
		<g>
			<path d="M20.313,9.562c-0.008,0-0.016,0-0.023-0.001c-0.275-0.013-0.489-0.247-0.476-0.522l0.144-3.06
				c0.012-0.275,0.259-0.506,0.522-0.476c0.275,0.013,0.489,0.247,0.476,0.522l-0.144,3.06C20.801,9.353,20.579,9.562,20.313,9.562z
				"/>
		</g>
		<g>
			<path d="M21.467,10.933c-0.021,0-0.04-0.001-0.061-0.004c-0.274-0.032-0.47-0.281-0.437-0.556
				c0.025-0.213-0.039-0.426-0.177-0.583c-0.127-0.145-0.3-0.227-0.485-0.229c-0.276-0.004-0.498-0.23-0.494-0.506
				c0.004-0.274,0.227-0.494,0.5-0.494c0.002,0,0.004,0,0.006,0c0.467,0.006,0.914,0.214,1.226,0.57
				c0.324,0.37,0.477,0.866,0.417,1.36C21.932,10.746,21.716,10.933,21.467,10.933z"/>
		</g>
		<g>
			<path d="M21.173,13.378c-0.021,0-0.04-0.001-0.061-0.004c-0.274-0.032-0.47-0.281-0.437-0.556l0.294-2.445
				c0.033-0.274,0.291-0.473,0.556-0.437c0.274,0.032,0.47,0.281,0.437,0.556l-0.294,2.445
				C21.638,13.191,21.422,13.378,21.173,13.378z"/>
		</g>
		<g>
			<path d="M20.007,14.449c-0.276,0-0.5-0.224-0.5-0.5s0.224-0.5,0.5-0.5c0.338,0,0.626-0.271,0.669-0.631
				c0.033-0.274,0.289-0.473,0.556-0.437c0.274,0.032,0.47,0.281,0.437,0.556C21.565,13.799,20.851,14.449,20.007,14.449z"/>
		</g>
		<g>
			<path d="M20.007,14.449c-0.276,0-0.528-0.224-0.528-0.5s0.195-0.5,0.472-0.5h0.057c0.276,0,0.5,0.224,0.5,0.5
				S20.283,14.449,20.007,14.449z"/>
		</g>
		<g>
			<path d="M17.558,19.488c-0.134,0-0.267-0.054-0.365-0.158c-0.188-0.202-0.178-0.519,0.023-0.707
				c1.266-1.183,2.102-2.944,2.235-4.712c0.021-0.276,0.289-0.477,0.537-0.461c0.275,0.021,0.481,0.262,0.461,0.537
				c-0.153,2.011-1.106,4.017-2.55,5.366C17.803,19.443,17.68,19.488,17.558,19.488z"/>
		</g>
		<g>
			<path d="M18.108,21.785c-0.227,0-0.432-0.154-0.486-0.384l-0.551-2.297c-0.064-0.269,0.102-0.538,0.37-0.603
				c0.271-0.068,0.538,0.103,0.603,0.37l0.551,2.297c0.064,0.269-0.102,0.538-0.37,0.603C18.186,21.781,18.146,21.785,18.108,21.785
				z"/>
		</g>
		<g>
			<path d="M19.519,22.152c-0.041,0-0.084-0.005-0.126-0.017l-1.41-0.367c-0.268-0.069-0.428-0.342-0.357-0.609
				c0.069-0.266,0.339-0.434,0.609-0.357l1.41,0.367c0.268,0.069,0.428,0.342,0.357,0.609
				C19.943,22.003,19.741,22.152,19.519,22.152z"/>
		</g>
	</g>
</g>
<g id="Download_2">
</g>
<g id="Upload_2">
</g>
<g id="User_Statistics_2">
</g>
<g id="User_Defense_2">
</g>
<g id="Car_2">
</g>
<g id="Home_2">
</g>
<g id="Park_2">
</g>
<g id="Recicle_User_2">
</g>
<g id="User_Wifi">
</g>
<g id="Attach_2">
</g>
<g id="Disabled_User_2">
</g>
<g id="User_Card_2">
</g>
<g id="Gaming_2">
</g>
<g id="Cloud_2">
</g>
<g id="Database_2">
</g>
<g id="Copyright_2">
</g>
<g id="No_Copyright_2">
</g>
<g id="Creative_Commun_2">
</g>
<g id="Eco-Friendly_2">
</g>
<g id="Percentage_2">
</g>
<g id="User_Love_2">
</g>
<g id="User_Rate_2">
</g>
<g id="User_Key_2">
</g>
<g id="Sleeping_2">
</g>
</svg>
