<?xml version="1.0" encoding="iso-8859-1"?>
<!-- Generator: Adobe Illustrator 19.2.1, SVG Export Plug-In . SVG Version: 6.00 Build 0)  -->
<svg version="1.1" xmlns="http://www.w3.org/2000/svg" xmlns:xlink="http://www.w3.org/1999/xlink" x="0px" y="0px"
	 viewBox="0 0 30 30" style="enable-background:new 0 0 30 30;" xml:space="preserve">
<g id="Add_User">
</g>
<g id="Remove_User">
</g>
<g id="Delete_User">
</g>
<g id="Done">
</g>
<g id="At_Symbol">
</g>
<g id="Question">
</g>
<g id="Answer">
</g>
<g id="Bring_Up">
</g>
<g id="Bring_Down">
</g>
<g id="Dismiss_User">
</g>
<g id="User_Speed">
</g>
<g id="User_Settings">
</g>
<g id="User_Refresh">
</g>
<g id="User_Time">
</g>
<g id="Dollar">
</g>
<g id="Euro">
</g>
<g id="Pound">
</g>
<g id="Bitcoin">
</g>
<g id="Global_User">
</g>
<g id="Waiting_User">
</g>
<g id="Writing_User_2">
</g>
<g id="Search_User">
</g>
<g id="Lock_User">
</g>
<g id="Mark_User">
</g>
<g id="Share_User">
</g>
<g id="Shopping">
</g>
<g id="User_Download">
</g>
<g id="User_Upload">
</g>
<g id="User_Statistics">
</g>
<g id="User_Defense">
</g>
<g id="User_Car">
</g>
<g id="User_Home">
	<g>
		<g>
			<path d="M24.5,29.992c-0.135,0-0.264-0.055-0.358-0.151l-4.268-4.39C19.311,24.872,19,24.102,19,23.284
				c0-1.65,1.074-3.012,2.498-3.25c1.06-0.175,2.037,0.034,2.681,0.579c0.12,0.102,0.228,0.213,0.322,0.333
				c0.094-0.121,0.202-0.232,0.322-0.333c0.644-0.545,1.62-0.757,2.681-0.579c1.424,0.238,2.498,1.6,2.498,3.167
				c0,0.901-0.311,1.67-0.874,2.25l-4.268,4.39C24.764,29.938,24.635,29.992,24.5,29.992z M22.227,20.972
				c-0.181,0-0.37,0.016-0.564,0.049C20.715,21.179,20,22.117,20,23.201c0,0.639,0.21,1.161,0.591,1.553l3.909,4.021l3.909-4.021
				C28.79,24.362,29,23.84,29,23.284c0-1.167-0.715-2.105-1.663-2.264c-0.769-0.129-1.45,0-1.87,0.356
				C25.157,21.639,25,22.017,25,22.5c0,0.276-0.224,0.5-0.5,0.5S24,22.776,24,22.5c0-0.483-0.157-0.861-0.468-1.124
				C23.219,21.111,22.759,20.972,22.227,20.972z"/>
		</g>
		<g>
			<path d="M21.719,30H0.5C0.224,30,0,29.776,0,29.5c0-3.196,2.024-5.97,4.923-6.749l4.549-1.222l0.446-1.917
				c-1.166-1.266-1.961-3.003-2.188-4.765c-0.726-0.121-1.307-0.736-1.398-1.525l-0.293-2.522c-0.061-0.519,0.1-1.036,0.439-1.418
				c0.215-0.241,0.49-0.413,0.79-0.497C7.186,8.14,7.043,6.764,7.043,6.174c0-2.373,0.671-4.805,5.613-4.911
				C14.395,0,16.274,0,17.088,0c2.046,0,3.521,0.717,4.382,2.131c0.879,1.441,0.862,2.7-0.051,3.742L20.948,6.38l-0.115,2.539
				c0.264,0.092,0.503,0.254,0.699,0.476c0.333,0.38,0.491,0.893,0.431,1.407l-0.293,2.521c-0.085,0.738-0.6,1.325-1.261,1.496
				c-0.228,1.829-1.066,3.619-2.301,4.903l0.326,1.399c0.063,0.269-0.104,0.538-0.374,0.6c-0.269,0.065-0.538-0.104-0.6-0.374
				l-0.389-1.669c-0.04-0.171,0.013-0.352,0.14-0.474c1.269-1.221,2.106-3.042,2.241-4.872c0.019-0.261,0.237-0.463,0.499-0.463
				c0.395,0,0.682-0.285,0.726-0.662l0.293-2.522c0.027-0.233-0.042-0.463-0.189-0.631c-0.126-0.143-0.294-0.223-0.473-0.226
				c-0.135-0.002-0.264-0.058-0.357-0.157c-0.093-0.099-0.142-0.23-0.136-0.366l0.143-3.155c0.005-0.119,0.053-0.231,0.134-0.318
				l0.587-0.63c0.372-0.425,0.783-1.167-0.061-2.551C19.948,1.556,18.761,1,17.088,1c-1.212,0-2.63,0.138-3.957,1.157
				c-0.086,0.066-0.191,0.103-0.299,0.104C8.41,2.308,8.043,4.139,8.043,6.174c0,0.753,0.271,3.071,0.274,3.094
				C8.334,9.41,8.289,9.552,8.194,9.659C8.1,9.765,7.963,9.826,7.821,9.826H7.699c-0.179,0-0.348,0.079-0.475,0.222
				c-0.15,0.169-0.221,0.401-0.193,0.637l0.293,2.522c0.044,0.377,0.331,0.662,0.668,0.662h0.191c0.262,0,0.479,0.202,0.499,0.463
				c0.131,1.775,0.931,3.561,2.14,4.778c0.121,0.122,0.171,0.298,0.132,0.465l-0.576,2.472c-0.042,0.18-0.179,0.322-0.357,0.37
				l-4.838,1.299C2.87,24.338,1.212,26.472,1.019,29h20.7c0.276,0,0.5,0.224,0.5,0.5S21.995,30,21.719,30z"/>
		</g>
	</g>
</g>
<g id="Park">
</g>
<g id="Recicle_User">
</g>
<g id="Wifi">
</g>
<g id="Attach_User">
</g>
<g id="Disabled_User">
</g>
<g id="User_Card">
</g>
<g id="Gaming">
</g>
<g id="User_Cloud">
</g>
<g id="User_Database">
</g>
<g id="Copyright">
</g>
<g id="No_Copyright">
</g>
<g id="Creative_Commun">
</g>
<g id="Eco-Friendly">
</g>
<g id="Percentage">
</g>
<g id="User_Love">
</g>
<g id="User_Place">
</g>
<g id="User_Key">
</g>
<g id="Sleeping">
</g>
<g id="Add_User_2">
</g>
<g id="Remove_User_2">
</g>
<g id="Delete_User_2">
</g>
<g id="Done_2">
</g>
<g id="At_Symbol_2">
</g>
<g id="Question_2">
</g>
<g id="Answer_2">
</g>
<g id="Bring_Up_2">
</g>
<g id="Bring_Down_2">
</g>
<g id="Dismiss_User_2">
</g>
<g id="User_Speed_2">
</g>
<g id="User_Settings_2">
</g>
<g id="Refresh_2">
</g>
<g id="Time_2">
</g>
<g id="Dollar_2">
</g>
<g id="Euro_2">
</g>
<g id="Pound_2">
</g>
<g id="Bitcoin_2">
</g>
<g id="Global_User_2">
</g>
<g id="Waiting_User_2">
</g>
<g id="Writing_User">
</g>
<g id="Search_User_2">
</g>
<g id="Lock_User_2">
</g>
<g id="Mark_User_2">
</g>
<g id="Share_User_2">
</g>
<g id="Shopping_2">
</g>
<g id="Download_2">
</g>
<g id="Upload_2">
</g>
<g id="User_Statistics_2">
</g>
<g id="User_Defense_2">
</g>
<g id="Car_2">
</g>
<g id="Home_2">
</g>
<g id="Park_2">
</g>
<g id="Recicle_User_2">
</g>
<g id="User_Wifi">
</g>
<g id="Attach_2">
</g>
<g id="Disabled_User_2">
</g>
<g id="User_Card_2">
</g>
<g id="Gaming_2">
</g>
<g id="Cloud_2">
</g>
<g id="Database_2">
</g>
<g id="Copyright_2">
</g>
<g id="No_Copyright_2">
</g>
<g id="Creative_Commun_2">
</g>
<g id="Eco-Friendly_2">
</g>
<g id="Percentage_2">
</g>
<g id="User_Love_2">
</g>
<g id="User_Rate_2">
</g>
<g id="User_Key_2">
</g>
<g id="Sleeping_2">
</g>
</svg>
