<?xml version="1.0" encoding="iso-8859-1"?>
<!-- Generator: Adobe Illustrator 19.2.1, SVG Export Plug-In . SVG Version: 6.00 Build 0)  -->
<svg version="1.1" xmlns="http://www.w3.org/2000/svg" xmlns:xlink="http://www.w3.org/1999/xlink" x="0px" y="0px"
	 viewBox="0 0 30 30" style="enable-background:new 0 0 30 30;" xml:space="preserve">
<g id="Add_Users">
</g>
<g id="Remove_Users">
</g>
<g id="Delete_Users">
</g>
<g id="Done_3">
</g>
<g id="At_Symbol_3">
</g>
<g id="Question_3">
</g>
<g id="Answer_3">
</g>
<g id="Bring_Up_3">
</g>
<g id="Bring_Down_3">
</g>
<g id="Dismiss_Users">
</g>
<g id="Users_Speed_3">
	<g>
		<g>
			<path d="M21.267,14.806c-0.137,0-0.273-0.056-0.373-0.167c-0.184-0.206-0.167-0.521,0.039-0.706
				c0.96-0.86,1.594-2.143,1.696-3.43c0.021-0.26,0.238-0.46,0.499-0.46c0.252,0,0.429-0.156,0.455-0.362l0.229-1.826
				c0.015-0.117-0.02-0.231-0.098-0.32c-0.078-0.09-0.188-0.14-0.308-0.142c-0.136-0.001-0.265-0.059-0.358-0.157
				c-0.093-0.099-0.142-0.231-0.135-0.367l0.111-2.285c0.006-0.124,0.058-0.242,0.146-0.329l0.457-0.457
				c0.291-0.311,0.521-0.76-0.065-1.655C23.063,1.385,22.169,1,20.902,1c-0.665,0-1.539,0.053-2.402,0.462
				c-0.25,0.119-0.548,0.012-0.666-0.237c-0.119-0.25-0.012-0.548,0.237-0.666C19.115,0.063,20.132,0,20.902,0
				c1.625,0,2.801,0.537,3.495,1.596c0.906,1.384,0.471,2.341-0.054,2.899l-0.331,0.332l-0.081,1.67
				c0.204,0.083,0.388,0.212,0.535,0.381c0.264,0.302,0.387,0.704,0.337,1.102l-0.229,1.827c-0.071,0.565-0.472,1.02-0.994,1.178
				c-0.21,1.399-0.933,2.757-1.98,3.695C21.505,14.764,21.386,14.806,21.267,14.806z"/>
		</g>
		<g>
			<path d="M0.5,21.999c-0.276,0-0.5-0.223-0.5-0.499c0-2.381,1.612-4.445,3.92-5.022l3.472-0.868l0.306-1.223
				c-0.872-0.909-1.475-2.129-1.669-3.375c-0.575-0.125-1.027-0.602-1.103-1.206L4.697,7.979c-0.05-0.402,0.075-0.807,0.343-1.111
				c0.163-0.185,0.371-0.322,0.599-0.4C5.574,5.907,5.479,5.012,5.479,4.609c0-1.782,0.533-3.608,4.449-3.693
				C11.297,0,12.764,0,13.402,0c1.625,0,2.801,0.537,3.495,1.596c0.906,1.384,0.471,2.341-0.054,2.899l-0.331,0.332l-0.081,1.67
				c0.204,0.083,0.388,0.212,0.535,0.381c0.264,0.302,0.387,0.704,0.337,1.102l-0.229,1.827c-0.071,0.565-0.472,1.02-0.994,1.178
				c-0.195,1.297-0.831,2.56-1.757,3.485l0.285,1.141l3.472,0.868c1.327,0.332,2.451,1.168,3.167,2.356
				c0.143,0.236,0.066,0.544-0.17,0.687c-0.238,0.143-0.544,0.066-0.687-0.17c-0.579-0.959-1.485-1.635-2.554-1.903l-3.763-0.941
				c-0.179-0.044-0.319-0.185-0.364-0.363l-0.429-1.715c-0.045-0.18,0.013-0.37,0.151-0.494c0.96-0.86,1.594-2.143,1.696-3.43
				c0.021-0.26,0.238-0.46,0.499-0.46c0.252,0,0.429-0.156,0.455-0.362l0.229-1.826c0.015-0.117-0.02-0.231-0.098-0.32
				c-0.078-0.09-0.188-0.14-0.308-0.142c-0.136-0.001-0.265-0.059-0.358-0.157c-0.093-0.099-0.142-0.231-0.135-0.367l0.111-2.285
				c0.006-0.124,0.058-0.242,0.146-0.329l0.457-0.457c0.291-0.311,0.521-0.76-0.065-1.655C15.563,1.385,14.669,1,13.402,1
				c-0.929,0-2.015,0.097-3.024,0.82c-0.083,0.06-0.184,0.092-0.286,0.093C6.755,1.946,6.479,3.207,6.479,4.609
				c0,0.444,0.153,1.753,0.211,2.22c0.018,0.143-0.026,0.286-0.121,0.393C6.474,7.33,6.337,7.391,6.194,7.391
				c-0.214,0-0.324,0.05-0.404,0.14c-0.08,0.09-0.115,0.206-0.101,0.325l0.229,1.826c0.026,0.206,0.202,0.362,0.41,0.362h0.148
				c0.261,0,0.478,0.2,0.499,0.46c0.1,1.249,0.705,2.505,1.62,3.363c0.132,0.124,0.187,0.31,0.143,0.486l-0.448,1.79
				c-0.044,0.179-0.185,0.319-0.364,0.364l-3.763,0.941C2.3,17.913,1,19.579,1,21.498C1,21.774,0.776,21.999,0.5,21.999z"/>
		</g>
		<g>
			<path d="M20.674,30c-0.064,0-0.129-0.012-0.191-0.038c-0.221-0.091-0.346-0.326-0.299-0.56l1.892-9.457
				c0.03-0.153,0.13-0.283,0.271-0.351c0.14-0.068,0.304-0.068,0.443,0.002l1.88,0.94l0.551-4.961
				c0.017-0.15,0.101-0.285,0.228-0.366c0.128-0.082,0.284-0.101,0.428-0.053l3.783,1.261c0.258,0.085,0.399,0.361,0.32,0.621
				l-2.522,8.196c-0.043,0.141-0.146,0.255-0.281,0.313c-0.134,0.059-0.288,0.054-0.42-0.012l-2.126-1.063l-3.538,5.307
				C20.995,29.92,20.837,30,20.674,30z M22.927,20.783L21.66,27.12l2.381-3.571c0.14-0.209,0.414-0.283,0.64-0.17l1.994,0.997
				l2.205-7.165L26.146,16.3l-0.562,5.059c-0.018,0.163-0.115,0.306-0.258,0.384c-0.143,0.078-0.316,0.081-0.462,0.008
				L22.927,20.783z"/>
		</g>
	</g>
</g>
<g id="Users_Settings">
</g>
<g id="Refresh_Users">
</g>
<g id="Time_3">
</g>
<g id="Dollar_3">
</g>
<g id="Euro_3">
</g>
<g id="Pound_3">
</g>
<g id="Bitcoin_3">
</g>
<g id="Global_Users">
</g>
<g id="Waiting_Users">
</g>
<g id="Writing_Users">
</g>
<g id="Search_Users">
</g>
<g id="Lock_Users">
</g>
<g id="Mark_Users">
</g>
<g id="Share_Users">
</g>
<g id="Shopping_3">
</g>
<g id="Download_3">
</g>
<g id="Upload_3">
</g>
<g id="Users_Statistics">
</g>
<g id="Users_Defense">
</g>
<g id="Car_3">
</g>
<g id="Home_3">
</g>
<g id="Park_3">
</g>
<g id="Recicle_Users">
</g>
<g id="Wifi_3">
</g>
<g id="Attach_3">
</g>
<g id="Disabled_Users">
</g>
<g id="Users_Card">
</g>
<g id="Gaming_3">
</g>
<g id="Cloud_3">
</g>
<g id="Database_3">
</g>
<g id="Copyright_3">
</g>
<g id="No_Copzright_3">
</g>
<g id="Creative_Commun_3">
</g>
<g id="Eco-Friendly_3">
</g>
<g id="Percentage_3">
</g>
<g id="Users_Love">
</g>
<g id="Users_Place">
</g>
<g id="Users_Key">
</g>
<g id="Sleeping_3">
</g>
</svg>
