<?xml version="1.0" encoding="iso-8859-1"?>
<!-- Generator: Adobe Illustrator 19.2.1, SVG Export Plug-In . SVG Version: 6.00 Build 0)  -->
<svg version="1.1" xmlns="http://www.w3.org/2000/svg" xmlns:xlink="http://www.w3.org/1999/xlink" x="0px" y="0px"
	 viewBox="0 0 30 30" style="enable-background:new 0 0 30 30;" xml:space="preserve">
<g id="Add_Users">
</g>
<g id="Remove_Users">
</g>
<g id="Delete_Users">
</g>
<g id="Done_3">
</g>
<g id="At_Symbol_3">
</g>
<g id="Question_3">
</g>
<g id="Answer_3">
</g>
<g id="Bring_Up_3">
</g>
<g id="Bring_Down_3">
</g>
<g id="Dismiss_Users">
</g>
<g id="Users_Speed_3">
</g>
<g id="Users_Settings">
</g>
<g id="Refresh_Users">
</g>
<g id="Time_3">
</g>
<g id="Dollar_3">
</g>
<g id="Euro_3">
</g>
<g id="Pound_3">
</g>
<g id="Bitcoin_3">
</g>
<g id="Global_Users">
</g>
<g id="Waiting_Users">
</g>
<g id="Writing_Users">
</g>
<g id="Search_Users">
</g>
<g id="Lock_Users">
</g>
<g id="Mark_Users">
</g>
<g id="Share_Users">
</g>
<g id="Shopping_3">
</g>
<g id="Download_3">
</g>
<g id="Upload_3">
</g>
<g id="Users_Statistics">
</g>
<g id="Users_Defense">
</g>
<g id="Car_3">
</g>
<g id="Home_3">
</g>
<g id="Park_3">
</g>
<g id="Recicle_Users">
</g>
<g id="Wifi_3">
</g>
<g id="Attach_3">
</g>
<g id="Disabled_Users">
</g>
<g id="Users_Card">
	<g>
		<g>
			<path d="M0.5,21.998c-0.276,0-0.5-0.224-0.5-0.5c0-2.38,1.612-4.444,3.92-5.021l3.473-0.868l0.306-1.223
				c-0.873-0.909-1.476-2.13-1.67-3.376c-0.575-0.125-1.027-0.602-1.103-1.205L4.697,7.98C4.646,7.578,4.771,7.174,5.04,6.87
				c0.163-0.186,0.37-0.322,0.599-0.401c-0.064-0.561-0.16-1.457-0.16-1.86c0-1.782,0.533-3.608,4.449-3.692
				C11.299,0,12.764,0,13.401,0c1.627,0,2.803,0.537,3.495,1.596c0.906,1.384,0.472,2.34-0.054,2.899l-0.331,0.331l-0.082,1.67
				c0.204,0.083,0.389,0.212,0.536,0.381c0.264,0.302,0.387,0.704,0.337,1.103l-0.229,1.827c-0.07,0.564-0.471,1.019-0.994,1.176
				c-0.195,1.299-0.831,2.562-1.758,3.486l0.285,1.141l3.473,0.868c0.472,0.118,0.944,0.317,1.404,0.594
				c0.236,0.143,0.313,0.449,0.171,0.687s-0.449,0.312-0.687,0.171c-0.38-0.229-0.75-0.386-1.131-0.48l-3.764-0.941
				c-0.18-0.045-0.319-0.185-0.364-0.364l-0.429-1.715c-0.045-0.18,0.014-0.369,0.151-0.493c0.96-0.86,1.594-2.144,1.697-3.432
				c0.021-0.26,0.237-0.46,0.498-0.46c0.252,0,0.429-0.155,0.454-0.36l0.229-1.827c0.015-0.117-0.021-0.231-0.099-0.32
				c-0.078-0.09-0.188-0.141-0.308-0.142c-0.136-0.002-0.265-0.059-0.358-0.157c-0.093-0.099-0.142-0.231-0.135-0.367l0.111-2.285
				c0.006-0.124,0.058-0.241,0.146-0.329l0.457-0.456c0.291-0.311,0.521-0.761-0.064-1.656C15.563,1.385,14.669,1,13.401,1
				c-0.928,0-2.014,0.098-3.023,0.819c-0.084,0.061-0.184,0.093-0.286,0.094C6.755,1.946,6.479,3.207,6.479,4.608
				c0,0.444,0.152,1.754,0.211,2.221c0.018,0.143-0.026,0.286-0.121,0.394S6.337,7.392,6.193,7.392c-0.214,0-0.324,0.05-0.403,0.14
				C5.743,7.584,5.669,7.695,5.689,7.855l0.229,1.826c0.025,0.206,0.202,0.361,0.41,0.361h0.148c0.261,0,0.478,0.2,0.498,0.461
				c0.1,1.248,0.704,2.505,1.619,3.363c0.133,0.124,0.188,0.31,0.144,0.485l-0.447,1.79c-0.045,0.18-0.185,0.319-0.364,0.364
				l-3.764,0.941C2.301,17.913,1,19.578,1,21.498C1,21.774,0.776,21.998,0.5,21.998z"/>
		</g>
		<g>
			<path d="M28.5,30h-11c-0.827,0-1.5-0.673-1.5-1.5v-8c0-0.827,0.673-1.5,1.5-1.5h11c0.827,0,1.5,0.673,1.5,1.5v8
				C30,29.327,29.327,30,28.5,30z M17.5,20c-0.275,0-0.5,0.225-0.5,0.5v8c0,0.275,0.225,0.5,0.5,0.5h11c0.275,0,0.5-0.225,0.5-0.5
				v-8c0-0.275-0.225-0.5-0.5-0.5H17.5z"/>
		</g>
		<g>
			<path d="M29.5,22H17c-0.276,0-0.5-0.224-0.5-0.5S16.724,21,17,21h12.5c0.276,0,0.5,0.224,0.5,0.5S29.776,22,29.5,22z"/>
		</g>
		<g>
			<path d="M26.5,27c-0.827,0-1.5-0.673-1.5-1.5s0.673-1.5,1.5-1.5s1.5,0.673,1.5,1.5S27.327,27,26.5,27z M26.5,25
				c-0.275,0-0.5,0.225-0.5,0.5s0.225,0.5,0.5,0.5s0.5-0.225,0.5-0.5S26.775,25,26.5,25z"/>
		</g>
		<g>
			<g>
				<path d="M23.262,11.026c-0.253,0-0.471-0.192-0.496-0.45c-0.028-0.274,0.172-0.52,0.447-0.547
					c0.194-0.02,0.346-0.162,0.369-0.347l0.229-1.827c0.015-0.117-0.021-0.231-0.099-0.32c-0.078-0.09-0.188-0.141-0.308-0.142
					c-0.136-0.002-0.265-0.059-0.358-0.157c-0.093-0.099-0.142-0.231-0.135-0.367l0.111-2.285c0.006-0.124,0.058-0.241,0.146-0.329
					l0.457-0.456c0.291-0.311,0.521-0.761-0.064-1.656C23.063,1.385,22.169,1,20.901,1c-0.664,0-1.537,0.053-2.402,0.462
					c-0.249,0.117-0.547,0.012-0.666-0.238c-0.118-0.25-0.011-0.548,0.238-0.666C19.117,0.063,20.133,0,20.901,0
					c1.627,0,2.803,0.537,3.495,1.596c0.906,1.384,0.472,2.34-0.054,2.899l-0.331,0.331l-0.082,1.67
					c0.204,0.083,0.389,0.212,0.536,0.381c0.264,0.302,0.387,0.704,0.337,1.103l-0.229,1.827c-0.081,0.649-0.6,1.15-1.262,1.217
					C23.296,11.025,23.278,11.026,23.262,11.026z"/>
			</g>
			<g>
				<path d="M26.727,18c-0.088,0-0.177-0.023-0.258-0.071c-0.38-0.229-0.75-0.386-1.131-0.48l-3.764-0.941
					c-0.18-0.045-0.319-0.185-0.364-0.364l-0.429-1.715c-0.045-0.18,0.014-0.369,0.151-0.493c0.96-0.86,1.594-2.144,1.697-3.432
					c0.021-0.26,0.237-0.46,0.498-0.46c0.276,0,0.522,0.224,0.522,0.5c0,0.072-0.015,0.141-0.039,0.202
					c-0.15,1.381-0.806,2.742-1.789,3.724l0.285,1.141l3.473,0.868c0.472,0.118,0.944,0.317,1.404,0.594
					c0.236,0.143,0.313,0.449,0.171,0.687C27.062,17.913,26.896,18,26.727,18z"/>
			</g>
		</g>
		<g>
			<path d="M24.5,27c-0.827,0-1.5-0.673-1.5-1.5s0.673-1.5,1.5-1.5s1.5,0.673,1.5,1.5S25.327,27,24.5,27z M24.5,25
				c-0.275,0-0.5,0.225-0.5,0.5s0.225,0.5,0.5,0.5s0.5-0.225,0.5-0.5S24.775,25,24.5,25z"/>
		</g>
	</g>
</g>
<g id="Gaming_3">
</g>
<g id="Cloud_3">
</g>
<g id="Database_3">
</g>
<g id="Copyright_3">
</g>
<g id="No_Copzright_3">
</g>
<g id="Creative_Commun_3">
</g>
<g id="Eco-Friendly_3">
</g>
<g id="Percentage_3">
</g>
<g id="Users_Love">
</g>
<g id="Users_Place">
</g>
<g id="Users_Key">
</g>
<g id="Sleeping_3">
</g>
</svg>
