<?xml version="1.0" encoding="iso-8859-1"?>
<!-- Generator: Adobe Illustrator 19.2.1, SVG Export Plug-In . SVG Version: 6.00 Build 0)  -->
<svg version="1.1" xmlns="http://www.w3.org/2000/svg" xmlns:xlink="http://www.w3.org/1999/xlink" x="0px" y="0px"
	 viewBox="0 0 24 24" style="enable-background:new 0 0 24 24;" xml:space="preserve">
<g id="Add_User">
</g>
<g id="Remove_User">
</g>
<g id="Delete_User">
</g>
<g id="Done">
</g>
<g id="At_Symbol">
</g>
<g id="Question">
</g>
<g id="Answer">
</g>
<g id="Bring_Up">
</g>
<g id="Bring_Down">
</g>
<g id="Dismiss_User">
</g>
<g id="User_Speed">
</g>
<g id="User_Settings">
</g>
<g id="User_Refresh">
</g>
<g id="User_Time">
</g>
<g id="Dollar">
</g>
<g id="Euro">
</g>
<g id="Pound">
</g>
<g id="Bitcoin">
</g>
<g id="Global_User">
</g>
<g id="Waiting_User">
</g>
<g id="Writing_User_2">
</g>
<g id="Search_User">
</g>
<g id="Lock_User">
</g>
<g id="Mark_User">
</g>
<g id="Share_User">
</g>
<g id="Shopping">
</g>
<g id="User_Download">
</g>
<g id="User_Upload">
</g>
<g id="User_Statistics">
</g>
<g id="User_Defense">
</g>
<g id="User_Car">
</g>
<g id="User_Home">
</g>
<g id="Park">
</g>
<g id="Recicle_User">
</g>
<g id="Wifi">
</g>
<g id="Attach_User">
</g>
<g id="Disabled_User">
</g>
<g id="User_Card">
</g>
<g id="Gaming">
</g>
<g id="User_Cloud">
</g>
<g id="User_Database">
</g>
<g id="Copyright">
</g>
<g id="No_Copyright">
</g>
<g id="Creative_Commun">
</g>
<g id="Eco-Friendly">
</g>
<g id="Percentage">
</g>
<g id="User_Love">
</g>
<g id="User_Place">
</g>
<g id="User_Key">
</g>
<g id="Sleeping">
</g>
<g id="Add_User_2">
</g>
<g id="Remove_User_2">
</g>
<g id="Delete_User_2">
</g>
<g id="Done_2">
</g>
<g id="At_Symbol_2">
</g>
<g id="Question_2">
</g>
<g id="Answer_2">
</g>
<g id="Bring_Up_2">
</g>
<g id="Bring_Down_2">
</g>
<g id="Dismiss_User_2">
</g>
<g id="User_Speed_2">
</g>
<g id="User_Settings_2">
</g>
<g id="Refresh_2">
</g>
<g id="Time_2">
</g>
<g id="Dollar_2">
</g>
<g id="Euro_2">
</g>
<g id="Pound_2">
</g>
<g id="Bitcoin_2">
</g>
<g id="Global_User_2">
</g>
<g id="Waiting_User_2">
</g>
<g id="Writing_User">
</g>
<g id="Search_User_2">
</g>
<g id="Lock_User_2">
</g>
<g id="Mark_User_2">
</g>
<g id="Share_User_2">
</g>
<g id="Shopping_2">
</g>
<g id="Download_2">
</g>
<g id="Upload_2">
</g>
<g id="User_Statistics_2">
</g>
<g id="User_Defense_2">
</g>
<g id="Car_2">
</g>
<g id="Home_2">
</g>
<g id="Park_2">
</g>
<g id="Recicle_User_2">
</g>
<g id="User_Wifi">
</g>
<g id="Attach_2">
</g>
<g id="Disabled_User_2">
	<g>
		<path d="M21.497,21.023c-0.261-0.092-0.546,0.046-0.638,0.306C20.509,22.329,19.56,23,18.5,23c-1.379,0-2.5-1.121-2.5-2.5
			c0-0.895,0.482-1.727,1.26-2.172c0.24-0.137,0.323-0.442,0.186-0.682c-0.137-0.241-0.444-0.323-0.682-0.186
			C15.676,18.083,15,19.247,15,20.5c0,1.93,1.57,3.5,3.5,3.5c1.484,0,2.812-0.94,3.303-2.339
			C21.894,21.4,21.757,21.115,21.497,21.023z"/>
		<path d="M14,20.5c0-1.143,0.438-2.237,1.233-3.083c0.092-0.098,0.141-0.228,0.136-0.361s-0.063-0.26-0.162-0.35
			c-0.746-0.685-1.096-1.963-1.184-2.499c0.765-0.701,1.477-1.758,1.477-2.707c0-0.354,0.105-0.5,0.121-0.515
			c0.156-0.039,0.283-0.15,0.343-0.3C16.019,10.549,16.5,9.322,16.5,8.5c0-0.041-0.005-0.082-0.015-0.121
			c-0.055-0.22-0.208-0.54-0.485-0.728V5c0-1.611-0.492-2.271-1.011-2.655C14.891,1.569,14.06,0,11,0C7.902,0,6,2.912,6,5v2.651
			C5.723,7.839,5.569,8.159,5.515,8.379C5.505,8.418,5.5,8.459,5.5,8.5c0,0.822,0.48,2.049,0.536,2.186
			c0.06,0.149,0.147,0.248,0.304,0.287C6.394,11,6.5,11.146,6.5,11.5c0,0.949,0.713,2.006,1.478,2.708
			c-0.104,0.655-0.593,2.382-1.636,2.817l-4.438,1.479c-1.219,0.406-1.628,1.428-1.89,2.472C0.005,21.016,0,21.057,0,21.098V23.5
			C0,23.776,0.224,24,0.5,24h14.025c0.189,0,0.363-0.107,0.447-0.277c0.085-0.17,0.065-0.373-0.049-0.524
			C14.319,22.4,14,21.467,14,20.5z"/>
		<path d="M23.975,22.342l-1-3C22.906,19.138,22.715,19,22.5,19h-2.64l-0.333-1H21.5c0.276,0,0.5-0.224,0.5-0.5S21.776,17,21.5,17
			h-2.306l-0.219-0.658c-0.088-0.262-0.369-0.402-0.633-0.316c-0.262,0.088-0.403,0.371-0.316,0.633l1,3
			C19.094,19.862,19.285,20,19.5,20h2.64l0.886,2.658C23.096,22.867,23.291,23,23.5,23c0.053,0,0.105-0.008,0.158-0.025
			C23.92,22.887,24.061,22.604,23.975,22.342z"/>
		<circle cx="18" cy="14.5" r="1"/>
	</g>
</g>
<g id="User_Card_2">
</g>
<g id="Gaming_2">
</g>
<g id="Cloud_2">
</g>
<g id="Database_2">
</g>
<g id="Copyright_2">
</g>
<g id="No_Copyright_2">
</g>
<g id="Creative_Commun_2">
</g>
<g id="Eco-Friendly_2">
</g>
<g id="Percentage_2">
</g>
<g id="User_Love_2">
</g>
<g id="User_Rate_2">
</g>
<g id="User_Key_2">
</g>
<g id="Sleeping_2">
</g>
</svg>
