<?xml version="1.0" encoding="iso-8859-1"?>
<!-- Generator: Adobe Illustrator 19.2.1, SVG Export Plug-In . SVG Version: 6.00 Build 0)  -->
<svg version="1.1" xmlns="http://www.w3.org/2000/svg" xmlns:xlink="http://www.w3.org/1999/xlink" x="0px" y="0px"
	 viewBox="0 0 24 24" style="enable-background:new 0 0 24 24;" xml:space="preserve">
<g id="Add_User">
</g>
<g id="Remove_User">
</g>
<g id="Delete_User">
</g>
<g id="Done">
</g>
<g id="At_Symbol">
</g>
<g id="Question">
</g>
<g id="Answer">
</g>
<g id="Bring_Up">
</g>
<g id="Bring_Down">
</g>
<g id="Dismiss_User">
</g>
<g id="User_Speed">
</g>
<g id="User_Settings">
</g>
<g id="User_Refresh">
</g>
<g id="User_Time">
</g>
<g id="Dollar">
</g>
<g id="Euro">
</g>
<g id="Pound">
</g>
<g id="Bitcoin">
</g>
<g id="Global_User">
</g>
<g id="Waiting_User">
</g>
<g id="Writing_User_2">
</g>
<g id="Search_User">
</g>
<g id="Lock_User">
</g>
<g id="Mark_User">
</g>
<g id="Share_User">
</g>
<g id="Shopping">
</g>
<g id="User_Download">
</g>
<g id="User_Upload">
</g>
<g id="User_Statistics">
</g>
<g id="User_Defense">
</g>
<g id="User_Car">
</g>
<g id="User_Home">
</g>
<g id="Park">
</g>
<g id="Recicle_User">
</g>
<g id="Wifi">
</g>
<g id="Attach_User">
</g>
<g id="Disabled_User">
</g>
<g id="User_Card">
</g>
<g id="Gaming">
</g>
<g id="User_Cloud">
</g>
<g id="User_Database">
</g>
<g id="Copyright">
</g>
<g id="No_Copyright">
</g>
<g id="Creative_Commun">
</g>
<g id="Eco-Friendly">
</g>
<g id="Percentage">
</g>
<g id="User_Love">
</g>
<g id="User_Place">
</g>
<g id="User_Key">
</g>
<g id="Sleeping">
</g>
<g id="Add_User_2">
</g>
<g id="Remove_User_2">
</g>
<g id="Delete_User_2">
</g>
<g id="Done_2">
</g>
<g id="At_Symbol_2">
</g>
<g id="Question_2">
</g>
<g id="Answer_2">
</g>
<g id="Bring_Up_2">
</g>
<g id="Bring_Down_2">
</g>
<g id="Dismiss_User_2">
</g>
<g id="User_Speed_2">
</g>
<g id="User_Settings_2">
</g>
<g id="Refresh_2">
</g>
<g id="Time_2">
</g>
<g id="Dollar_2">
</g>
<g id="Euro_2">
</g>
<g id="Pound_2">
</g>
<g id="Bitcoin_2">
</g>
<g id="Global_User_2">
</g>
<g id="Waiting_User_2">
</g>
<g id="Writing_User">
</g>
<g id="Search_User_2">
</g>
<g id="Lock_User_2">
</g>
<g id="Mark_User_2">
</g>
<g id="Share_User_2">
</g>
<g id="Shopping_2">
</g>
<g id="Download_2">
	<g>
		<path d="M19.146,21.854c0.047,0.047,0.101,0.08,0.157,0.105c0.002,0.001,0.003,0.003,0.005,0.004l0.002,0
			C19.371,21.987,19.435,22,19.5,22c0.064,0,0.129-0.013,0.189-0.037c0.06-0.025,0.116-0.061,0.164-0.109l2-2
			c0.195-0.195,0.195-0.512,0-0.707s-0.512-0.195-0.707,0L20,20.293V16.5c0-0.276-0.224-0.5-0.5-0.5S19,16.224,19,16.5v3.793
			l-1.146-1.146c-0.195-0.195-0.512-0.195-0.707,0s-0.195,0.512,0,0.707L19.146,21.854z"/>
		<path d="M16,19.5c0-0.4,0.156-0.777,0.439-1.061c0.071-0.071,0.157-0.139,0.263-0.206c0.163-0.104,0.252-0.291,0.229-0.482
			s-0.155-0.353-0.338-0.414l-0.9-0.299c-1.073-0.446-1.564-2.175-1.67-2.83c0.765-0.702,1.478-1.759,1.478-2.708
			c0-0.354,0.105-0.5,0.121-0.515c0.156-0.039,0.283-0.15,0.343-0.3C16.02,10.549,16.5,9.322,16.5,8.5
			c0-0.041-0.005-0.082-0.015-0.121c-0.055-0.22-0.208-0.54-0.485-0.728V5c0-1.611-0.492-2.271-1.011-2.655
			C14.892,1.569,14.061,0,11,0C7.902,0,6,2.912,6,5v2.651C5.723,7.839,5.569,8.159,5.515,8.379C5.505,8.418,5.5,8.459,5.5,8.5
			c0,0.822,0.48,2.049,0.536,2.186c0.06,0.149,0.147,0.248,0.304,0.287C6.395,11,6.5,11.146,6.5,11.5
			c0,0.949,0.713,2.006,1.478,2.708c-0.104,0.655-0.593,2.382-1.636,2.817l-4.438,1.479c-1.219,0.406-1.628,1.428-1.89,2.472
			C0.005,21.016,0,21.057,0,21.098V23.5C0,23.776,0.224,24,0.5,24h13c0.276,0,0.5-0.224,0.5-0.5v-2c0-0.827,0.673-1.5,1.5-1.5
			C15.776,20,16,19.776,16,19.5z"/>
		<path d="M23.5,21c-0.276,0-0.5,0.224-0.5,0.5V23h-7v-1.5c0-0.276-0.224-0.5-0.5-0.5S15,21.224,15,21.5v2
			c0,0.276,0.224,0.5,0.5,0.5h8c0.276,0,0.5-0.224,0.5-0.5v-2C24,21.224,23.776,21,23.5,21z"/>
	</g>
</g>
<g id="Upload_2">
</g>
<g id="User_Statistics_2">
</g>
<g id="User_Defense_2">
</g>
<g id="Car_2">
</g>
<g id="Home_2">
</g>
<g id="Park_2">
</g>
<g id="Recicle_User_2">
</g>
<g id="User_Wifi">
</g>
<g id="Attach_2">
</g>
<g id="Disabled_User_2">
</g>
<g id="User_Card_2">
</g>
<g id="Gaming_2">
</g>
<g id="Cloud_2">
</g>
<g id="Database_2">
</g>
<g id="Copyright_2">
</g>
<g id="No_Copyright_2">
</g>
<g id="Creative_Commun_2">
</g>
<g id="Eco-Friendly_2">
</g>
<g id="Percentage_2">
</g>
<g id="User_Love_2">
</g>
<g id="User_Rate_2">
</g>
<g id="User_Key_2">
</g>
<g id="Sleeping_2">
</g>
</svg>
