<?xml version="1.0" encoding="iso-8859-1"?>
<!-- Generator: Adobe Illustrator 19.2.1, SVG Export Plug-In . SVG Version: 6.00 Build 0)  -->
<svg version="1.1" xmlns="http://www.w3.org/2000/svg" xmlns:xlink="http://www.w3.org/1999/xlink" x="0px" y="0px"
	 viewBox="0 0 24 24" style="enable-background:new 0 0 24 24;" xml:space="preserve">
<g id="Add_Users">
</g>
<g id="Remove_Users">
</g>
<g id="Delete_Users">
</g>
<g id="Done_3">
</g>
<g id="At_Symbol_3">
</g>
<g id="Question_3">
</g>
<g id="Answer_3">
</g>
<g id="Bring_Up_3">
</g>
<g id="Bring_Down_3">
</g>
<g id="Dismiss_Users">
</g>
<g id="Users_Speed_3">
</g>
<g id="Users_Settings">
</g>
<g id="Refresh_Users">
</g>
<g id="Time_3">
</g>
<g id="Dollar_3">
</g>
<g id="Euro_3">
</g>
<g id="Pound_3">
</g>
<g id="Bitcoin_3">
</g>
<g id="Global_Users">
</g>
<g id="Waiting_Users">
</g>
<g id="Writing_Users">
</g>
<g id="Search_Users">
</g>
<g id="Lock_Users">
</g>
<g id="Mark_Users">
</g>
<g id="Share_Users">
</g>
<g id="Shopping_3">
</g>
<g id="Download_3">
	<g>
		<path d="M19.49,16c-0.276,0-0.5,0.224-0.5,0.5v3.793l-1.146-1.146c-0.195-0.195-0.512-0.195-0.707,0s-0.195,0.512,0,0.707l2,2
			c0.047,0.047,0.101,0.08,0.157,0.105c0.002,0.001,0.003,0.003,0.005,0.004l0.002,0C19.361,21.987,19.426,22,19.49,22
			c0.064,0,0.129-0.013,0.189-0.037c0.06-0.025,0.116-0.061,0.164-0.109l2-2c0.195-0.195,0.195-0.512,0-0.707s-0.512-0.195-0.707,0
			l-1.146,1.146V16.5C19.99,16.224,19.767,16,19.49,16z"/>
		<path d="M23.49,21c-0.276,0-0.5,0.224-0.5,0.5V23h-7v-1.5c0-0.276-0.224-0.5-0.5-0.5s-0.5,0.224-0.5,0.5v2
			c0,0.276,0.224,0.5,0.5,0.5h8c0.276,0,0.5-0.224,0.5-0.5v-2C23.99,21.224,23.767,21,23.49,21z"/>
		<path d="M14.994,8.17c-0.071,0.569-0.356,1.085-0.802,1.451c-0.079,0.065-0.136,0.152-0.164,0.251
			c-0.143,0.506-0.349,0.994-0.613,1.45c-0.079,0.136-0.089,0.301-0.028,0.446c0.062,0.145,0.188,0.252,0.34,0.29l1.262,0.315
			c1.414,0.354,2.59,1.249,3.312,2.522c0.124,0.22,0.393,0.311,0.624,0.217c0.973-0.399,2.065,0.366,2.066,1.387v1
			c0,0.276,0.224,0.5,0.5,0.5h2c0.007,0,0.015,0.001,0.02,0c0.276,0,0.5-0.224,0.5-0.5c0-0.052-0.008-0.102-0.022-0.148
			c-0.064-1.907-1.38-3.542-3.242-4.008l-2.756-0.69l-0.203-0.816c0.729-0.746,1.233-1.747,1.401-2.777
			c0.431-0.154,0.756-0.539,0.814-1.015l0.185-1.479c0.044-0.35-0.064-0.702-0.296-0.967c-0.113-0.13-0.252-0.234-0.405-0.306
			l0.061-1.251l0.243-0.244c0.449-0.477,0.822-1.291,0.054-2.464C19.264,0.449,18.285,0,16.935,0c-0.496,0-1.156,0.03-1.865,0.271
			c-0.142,0.048-0.255,0.157-0.308,0.298c-0.053,0.14-0.04,0.297,0.035,0.427c0.684,1.18,0.634,2.393-0.138,3.327
			c-0.154,0.188-0.152,0.457,0.005,0.642c0.404,0.478,0.593,1.106,0.516,1.726L14.994,8.17z"/>
		<path d="M17.844,17.854c0.094-0.094,0.146-0.221,0.146-0.354c0-1.97-1.334-3.679-3.245-4.156l-2.756-0.69l-0.203-0.816
			c0.729-0.746,1.233-1.747,1.401-2.777c0.431-0.154,0.756-0.539,0.814-1.015l0.185-1.479c0.044-0.35-0.064-0.702-0.296-0.967
			c-0.113-0.131-0.252-0.234-0.405-0.306l0.061-1.251l0.243-0.244c0.449-0.477,0.822-1.291,0.054-2.464
			C13.264,0.449,12.285,0,10.935,0c-0.521,0-1.716,0-2.843,0.742C4.846,0.823,4.425,2.429,4.425,3.826
			c0,0.317,0.069,0.984,0.122,1.442C4.375,5.341,4.22,5.45,4.094,5.594c-0.235,0.266-0.345,0.621-0.3,0.973l0.185,1.479
			c0.063,0.508,0.43,0.912,0.903,1.042c0.167,0.987,0.645,1.952,1.33,2.683l-0.221,0.884l-2.756,0.688
			c-1.911,0.478-3.245,2.187-3.245,4.156c0,0.276,0.224,0.5,0.5,0.5l17,0.002C17.623,18,17.75,17.947,17.844,17.854z"/>
	</g>
</g>
<g id="Upload_3">
</g>
<g id="Users_Statistics">
</g>
<g id="Users_Defense">
</g>
<g id="Car_3">
</g>
<g id="Home_3">
</g>
<g id="Park_3">
</g>
<g id="Recicle_Users">
</g>
<g id="Wifi_3">
</g>
<g id="Attach_3">
</g>
<g id="Disabled_Users">
</g>
<g id="Users_Card">
</g>
<g id="Gaming_3">
</g>
<g id="Cloud_3">
</g>
<g id="Database_3">
</g>
<g id="Copyright_3">
</g>
<g id="No_Copzright_3">
</g>
<g id="Creative_Commun_3">
</g>
<g id="Eco-Friendly_3">
</g>
<g id="Percentage_3">
</g>
<g id="Users_Love">
</g>
<g id="Users_Place">
</g>
<g id="Users_Key">
</g>
<g id="Sleeping_3">
</g>
</svg>
