<?xml version="1.0" encoding="iso-8859-1"?>
<!-- Generator: Adobe Illustrator 19.2.1, SVG Export Plug-In . SVG Version: 6.00 Build 0)  -->
<svg version="1.1" xmlns="http://www.w3.org/2000/svg" xmlns:xlink="http://www.w3.org/1999/xlink" x="0px" y="0px"
	 viewBox="0 0 24 24" style="enable-background:new 0 0 24 24;" xml:space="preserve">
<g id="Add_User">
</g>
<g id="Remove_User">
</g>
<g id="Delete_User">
</g>
<g id="Done">
</g>
<g id="At_Symbol">
</g>
<g id="Question">
</g>
<g id="Answer">
</g>
<g id="Bring_Up">
</g>
<g id="Bring_Down">
</g>
<g id="Dismiss_User">
</g>
<g id="User_Speed">
</g>
<g id="User_Settings">
</g>
<g id="User_Refresh">
</g>
<g id="User_Time">
</g>
<g id="Dollar">
</g>
<g id="Euro">
	<path d="M12,18.5c0-2.674,1.683-5.112,4.187-6.068c0.167-0.064,0.287-0.212,0.315-0.389c0.005-0.033,0.01-0.065,0.015-0.097
		c0.571-0.158,1.013-0.647,1.089-1.26l0.25-2c0.053-0.422-0.077-0.849-0.357-1.169c-0.164-0.188-0.371-0.33-0.6-0.417l0.092-1.883
		l0.374-0.374c0.563-0.6,1.03-1.626,0.054-3.117C16.669,0.581,15.395,0,13.631,0c-0.695,0-2.298,0-3.791,1.002
		C5.579,1.091,5,3.07,5,5c0,0.449,0.109,1.46,0.181,2.07C4.924,7.151,4.69,7.301,4.509,7.507C4.225,7.829,4.092,8.259,4.145,8.686
		l0.25,2c0.081,0.652,0.577,1.165,1.202,1.287c0.208,1.375,0.873,2.724,1.839,3.722l-0.348,1.393l-3.83,0.958
		C1.065,18.593,0,20.377,0,23.5c0,0.133,0.053,0.26,0.146,0.354S0.367,24,0.5,24l13.104-0.001c0.203,0,0.386-0.123,0.463-0.311
		s0.032-0.404-0.113-0.546C12.693,21.907,12,20.259,12,18.5z"/>
	<path d="M18.5,13c-3.032,0-5.5,2.467-5.5,5.5s2.468,5.5,5.5,5.5s5.5-2.467,5.5-5.5S21.532,13,18.5,13z M18.5,17
		c0.276,0,0.5,0.224,0.5,0.5S18.776,18,18.5,18H17v1h1.5c0.276,0,0.5,0.224,0.5,0.5S18.776,20,18.5,20H17c0,0.542,0.687,1,1.502,1
		c0.965,0,1.47-0.183,1.5-0.542c0.023-0.275,0.295-0.478,0.54-0.456c0.275,0.023,0.479,0.265,0.456,0.541
		C20.916,21.51,20.076,22,18.502,22C17.122,22,16,21.103,16,20h-0.5c-0.276,0-0.5-0.224-0.5-0.5s0.224-0.5,0.5-0.5H16v-1h-0.5
		c-0.276,0-0.5-0.224-0.5-0.5s0.224-0.5,0.5-0.5H16c0-1.103,1.122-2,2.502-2c1.574,0,2.414,0.49,2.496,1.458
		c0.023,0.275-0.181,0.518-0.456,0.541c-0.253,0.024-0.518-0.18-0.54-0.456c-0.03-0.36-0.535-0.542-1.5-0.542
		C17.687,16,17,16.458,17,17H18.5z"/>
</g>
<g id="Pound">
</g>
<g id="Bitcoin">
</g>
<g id="Global_User">
</g>
<g id="Waiting_User">
</g>
<g id="Writing_User_2">
</g>
<g id="Search_User">
</g>
<g id="Lock_User">
</g>
<g id="Mark_User">
</g>
<g id="Share_User">
</g>
<g id="Shopping">
</g>
<g id="User_Download">
</g>
<g id="User_Upload">
</g>
<g id="User_Statistics">
</g>
<g id="User_Defense">
</g>
<g id="User_Car">
</g>
<g id="User_Home">
</g>
<g id="Park">
</g>
<g id="Recicle_User">
</g>
<g id="Wifi">
</g>
<g id="Attach_User">
</g>
<g id="Disabled_User">
</g>
<g id="User_Card">
</g>
<g id="Gaming">
</g>
<g id="User_Cloud">
</g>
<g id="User_Database">
</g>
<g id="Copyright">
</g>
<g id="No_Copyright">
</g>
<g id="Creative_Commun">
</g>
<g id="Eco-Friendly">
</g>
<g id="Percentage">
</g>
<g id="User_Love">
</g>
<g id="User_Place">
</g>
<g id="User_Key">
</g>
<g id="Sleeping">
</g>
<g id="Add_User_2">
</g>
<g id="Remove_User_2">
</g>
<g id="Delete_User_2">
</g>
<g id="Done_2">
</g>
<g id="At_Symbol_2">
</g>
<g id="Question_2">
</g>
<g id="Answer_2">
</g>
<g id="Bring_Up_2">
</g>
<g id="Bring_Down_2">
</g>
<g id="Dismiss_User_2">
</g>
<g id="User_Speed_2">
</g>
<g id="User_Settings_2">
</g>
<g id="Refresh_2">
</g>
<g id="Time_2">
</g>
<g id="Dollar_2">
</g>
<g id="Euro_2">
</g>
<g id="Pound_2">
</g>
<g id="Bitcoin_2">
</g>
<g id="Global_User_2">
</g>
<g id="Waiting_User_2">
</g>
<g id="Writing_User">
</g>
<g id="Search_User_2">
</g>
<g id="Lock_User_2">
</g>
<g id="Mark_User_2">
</g>
<g id="Share_User_2">
</g>
<g id="Shopping_2">
</g>
<g id="Download_2">
</g>
<g id="Upload_2">
</g>
<g id="User_Statistics_2">
</g>
<g id="User_Defense_2">
</g>
<g id="Car_2">
</g>
<g id="Home_2">
</g>
<g id="Park_2">
</g>
<g id="Recicle_User_2">
</g>
<g id="User_Wifi">
</g>
<g id="Attach_2">
</g>
<g id="Disabled_User_2">
</g>
<g id="User_Card_2">
</g>
<g id="Gaming_2">
</g>
<g id="Cloud_2">
</g>
<g id="Database_2">
</g>
<g id="Copyright_2">
</g>
<g id="No_Copyright_2">
</g>
<g id="Creative_Commun_2">
</g>
<g id="Eco-Friendly_2">
</g>
<g id="Percentage_2">
</g>
<g id="User_Love_2">
</g>
<g id="User_Rate_2">
</g>
<g id="User_Key_2">
</g>
<g id="Sleeping_2">
</g>
</svg>
