<?xml version="1.0" encoding="iso-8859-1"?>
<!-- Generator: Adobe Illustrator 19.2.1, SVG Export Plug-In . SVG Version: 6.00 Build 0)  -->
<svg version="1.1" xmlns="http://www.w3.org/2000/svg" xmlns:xlink="http://www.w3.org/1999/xlink" x="0px" y="0px"
	 viewBox="0 0 24 24" style="enable-background:new 0 0 24 24;" xml:space="preserve">
<g id="Add_Users">
</g>
<g id="Remove_Users">
</g>
<g id="Delete_Users">
</g>
<g id="Done_3">
</g>
<g id="At_Symbol_3">
</g>
<g id="Question_3">
</g>
<g id="Answer_3">
</g>
<g id="Bring_Up_3">
</g>
<g id="Bring_Down_3">
</g>
<g id="Dismiss_Users">
</g>
<g id="Users_Speed_3">
</g>
<g id="Users_Settings">
</g>
<g id="Refresh_Users">
</g>
<g id="Time_3">
</g>
<g id="Dollar_3">
</g>
<g id="Euro_3">
</g>
<g id="Pound_3">
</g>
<g id="Bitcoin_3">
</g>
<g id="Global_Users">
	<g>
		<path d="M18.5,17c-0.517,0-0.989,0.026-1.437,0.063C17.026,17.51,17,17.982,17,18.5s0.026,0.989,0.063,1.437
			C17.511,19.974,17.983,20,18.5,20s0.989-0.026,1.437-0.063C19.974,19.489,20,19.017,20,18.5s-0.026-0.989-0.063-1.437
			C19.489,17.025,19.017,17,18.5,17z"/>
		<path d="M19.827,16.085C19.521,14.075,18.878,13,18.5,13s-1.021,1.076-1.327,3.085C18.047,16.023,18.953,16.023,19.827,16.085z"/>
		<path d="M16,18.5c0-0.442,0.018-0.885,0.05-1.32C14.065,17.488,13,18.124,13,18.5s1.065,1.012,3.05,1.32
			C16.018,19.384,16,18.942,16,18.5z"/>
		<path d="M17.18,20.95C17.488,22.935,18.124,24,18.5,24s1.012-1.065,1.32-3.05C19.385,20.982,18.942,21,18.5,21
			S17.615,20.982,17.18,20.95z"/>
		<path d="M20.95,17.179C20.982,17.615,21,18.057,21,18.5s-0.018,0.885-0.05,1.32C22.935,19.511,24,18.875,24,18.5
			S22.935,17.488,20.95,17.179z"/>
		<path d="M20.848,16.187c1.15,0.152,2.187,0.42,2.937,0.805c-0.52-1.817-1.95-3.251-3.766-3.774
			C20.414,13.976,20.691,15.026,20.848,16.187z"/>
		<path d="M13.218,20.018c0.522,1.812,1.951,3.241,3.763,3.763c-0.392-0.751-0.668-1.789-0.826-2.938
			C15.008,20.686,13.97,20.41,13.218,20.018z"/>
		<path d="M20.019,23.781c1.812-0.522,3.241-1.951,3.763-3.763c-0.751,0.392-1.789,0.668-2.938,0.826
			C20.687,21.992,20.41,23.03,20.019,23.781z"/>
		<path d="M13.215,16.992c0.75-0.385,1.786-0.653,2.937-0.805c0.157-1.16,0.434-2.211,0.829-2.969
			C15.165,13.741,13.735,15.174,13.215,16.992z"/>
		<path d="M19.901,5.6c-0.114-0.13-0.253-0.234-0.406-0.306l0.061-1.252l0.243-0.243c0.448-0.478,0.822-1.292,0.054-2.464
			C19.273,0.45,18.295,0,16.944,0c-0.496,0-1.156,0.03-1.865,0.271c-0.143,0.048-0.255,0.157-0.308,0.298s-0.04,0.297,0.035,0.427
			c0.684,1.179,0.634,2.392-0.138,3.327c-0.154,0.188-0.152,0.457,0.005,0.642c0.404,0.478,0.593,1.106,0.516,1.726l-0.186,1.48
			c-0.071,0.569-0.356,1.085-0.802,1.451c-0.079,0.065-0.136,0.152-0.164,0.251c-0.143,0.506-0.349,0.994-0.613,1.45
			c-0.079,0.136-0.089,0.301-0.028,0.446c0.062,0.145,0.188,0.252,0.34,0.29L15,12.375c0.135,0.033,0.261,0.082,0.388,0.13
			l0.142,0.052c0.055,0.021,0.112,0.03,0.17,0.03c0.068,0,0.137-0.014,0.2-0.042c0.465-0.203,0.965-0.352,1.486-0.441
			c0.097-0.018,0.186-0.062,0.257-0.128c0.811-0.76,1.375-1.827,1.555-2.916c0.431-0.153,0.756-0.539,0.814-1.015l0.185-1.478
			C20.24,6.217,20.133,5.865,19.901,5.6z"/>
		<path d="M14.026,13.422c-0.048-0.173-0.186-0.308-0.359-0.352l-1.668-0.418l-0.203-0.816c0.729-0.745,1.234-1.746,1.401-2.777
			c0.431-0.154,0.756-0.539,0.814-1.015l0.185-1.478c0.044-0.35-0.063-0.702-0.295-0.967c-0.114-0.13-0.253-0.234-0.406-0.306
			l0.061-1.252l0.243-0.243c0.448-0.478,0.822-1.292,0.054-2.464C13.273,0.45,12.295,0,10.944,0c-0.521,0-1.717,0-2.843,0.742
			C4.855,0.824,4.435,2.428,4.435,3.826c0,0.318,0.069,0.985,0.122,1.443C4.385,5.341,4.229,5.451,4.104,5.594
			c-0.235,0.266-0.345,0.621-0.3,0.972l0.185,1.479c0.063,0.508,0.43,0.912,0.903,1.042c0.167,0.987,0.645,1.952,1.33,2.683
			l-0.221,0.884l-2.756,0.688C1.334,13.82,0,15.53,0,17.499c0,0.276,0.224,0.5,0.5,0.5L11.58,18c0.249,0,0.46-0.183,0.495-0.429
			c0.2-1.401,0.831-2.667,1.823-3.661C14.026,13.782,14.075,13.596,14.026,13.422z"/>
	</g>
</g>
<g id="Waiting_Users">
</g>
<g id="Writing_Users">
</g>
<g id="Search_Users">
</g>
<g id="Lock_Users">
</g>
<g id="Mark_Users">
</g>
<g id="Share_Users">
</g>
<g id="Shopping_3">
</g>
<g id="Download_3">
</g>
<g id="Upload_3">
</g>
<g id="Users_Statistics">
</g>
<g id="Users_Defense">
</g>
<g id="Car_3">
</g>
<g id="Home_3">
</g>
<g id="Park_3">
</g>
<g id="Recicle_Users">
</g>
<g id="Wifi_3">
</g>
<g id="Attach_3">
</g>
<g id="Disabled_Users">
</g>
<g id="Users_Card">
</g>
<g id="Gaming_3">
</g>
<g id="Cloud_3">
</g>
<g id="Database_3">
</g>
<g id="Copyright_3">
</g>
<g id="No_Copzright_3">
</g>
<g id="Creative_Commun_3">
</g>
<g id="Eco-Friendly_3">
</g>
<g id="Percentage_3">
</g>
<g id="Users_Love">
</g>
<g id="Users_Place">
</g>
<g id="Users_Key">
</g>
<g id="Sleeping_3">
</g>
</svg>
