<?xml version="1.0" encoding="iso-8859-1"?>
<!-- Generator: Adobe Illustrator 19.2.1, SVG Export Plug-In . SVG Version: 6.00 Build 0)  -->
<svg version="1.1" xmlns="http://www.w3.org/2000/svg" xmlns:xlink="http://www.w3.org/1999/xlink" x="0px" y="0px"
	 viewBox="0 0 24 24" style="enable-background:new 0 0 24 24;" xml:space="preserve">
<g id="Add_Users">
</g>
<g id="Remove_Users">
</g>
<g id="Delete_Users">
</g>
<g id="Done_3">
</g>
<g id="At_Symbol_3">
</g>
<g id="Question_3">
</g>
<g id="Answer_3">
</g>
<g id="Bring_Up_3">
</g>
<g id="Bring_Down_3">
</g>
<g id="Dismiss_Users">
</g>
<g id="Users_Speed_3">
</g>
<g id="Users_Settings">
</g>
<g id="Refresh_Users">
</g>
<g id="Time_3">
</g>
<g id="Dollar_3">
</g>
<g id="Euro_3">
</g>
<g id="Pound_3">
	<g>
		<path d="M18.5,13c-3.032,0-5.5,2.468-5.5,5.5s2.468,5.5,5.5,5.5s5.5-2.468,5.5-5.5S21.532,13,18.5,13z M20.5,22h-4
			c-0.161,0-0.312-0.077-0.405-0.208c-0.095-0.13-0.12-0.298-0.069-0.45L16.806,19H15.5c-0.276,0-0.5-0.224-0.5-0.5
			s0.224-0.5,0.5-0.5h1.066l-0.482-0.723C16.029,17.195,16,17.099,16,17c0-1.103,1.122-2,2.502-2c1.574,0,2.414,0.49,2.496,1.458
			c0.023,0.274-0.181,0.517-0.456,0.54c-0.255,0.018-0.518-0.181-0.54-0.456c-0.03-0.359-0.535-0.542-1.5-0.542
			c-0.747,0-1.389,0.386-1.488,0.869L17.768,18H18.5c0.276,0,0.5,0.224,0.5,0.5S18.776,19,18.5,19h-0.639l-0.667,2H20.5
			c0.276,0,0.5,0.224,0.5,0.5S20.776,22,20.5,22z"/>
		<path d="M15.004,8.17c-0.071,0.569-0.356,1.085-0.802,1.451c-0.079,0.065-0.136,0.152-0.164,0.251
			c-0.143,0.506-0.349,0.994-0.613,1.45c-0.079,0.136-0.089,0.301-0.028,0.446c0.062,0.145,0.188,0.252,0.34,0.29l1.261,0.315
			c0.141,0.035,0.272,0.086,0.404,0.136l0.125,0.047c0.057,0.021,0.114,0.03,0.173,0.03c0.068,0,0.137-0.014,0.201-0.042
			c0.461-0.202,0.961-0.352,1.485-0.441c0.097-0.018,0.186-0.062,0.257-0.128c0.811-0.76,1.375-1.827,1.555-2.916
			c0.43-0.153,0.756-0.539,0.814-1.015l0.185-1.479C20.24,6.217,20.132,5.864,19.9,5.6c-0.113-0.13-0.252-0.234-0.405-0.306
			l0.061-1.251l0.243-0.244c0.449-0.477,0.822-1.291,0.054-2.464C19.273,0.449,18.295,0,16.944,0c-0.496,0-1.156,0.03-1.865,0.271
			c-0.142,0.048-0.255,0.157-0.308,0.298c-0.053,0.14-0.04,0.297,0.035,0.427c0.684,1.18,0.634,2.393-0.138,3.327
			c-0.154,0.188-0.152,0.457,0.005,0.642c0.404,0.478,0.593,1.106,0.516,1.726L15.004,8.17z"/>
		<path d="M14.026,13.423c-0.048-0.173-0.186-0.308-0.359-0.352l-1.668-0.418l-0.203-0.816c0.729-0.746,1.233-1.747,1.401-2.777
			c0.431-0.154,0.756-0.539,0.814-1.015l0.185-1.479C14.24,6.217,14.132,5.864,13.9,5.6c-0.113-0.13-0.252-0.234-0.405-0.306
			l0.061-1.251l0.243-0.244c0.449-0.477,0.822-1.291,0.054-2.464C13.273,0.449,12.295,0,10.944,0c-0.521,0-1.716,0-2.843,0.742
			C4.855,0.823,4.435,2.429,4.435,3.826c0,0.317,0.069,0.984,0.122,1.442C4.385,5.341,4.229,5.45,4.104,5.594
			c-0.235,0.266-0.345,0.621-0.3,0.973l0.185,1.479c0.063,0.508,0.43,0.912,0.903,1.042c0.167,0.987,0.645,1.952,1.33,2.683
			l-0.221,0.884l-2.756,0.688C1.334,13.819,0,15.528,0,17.498c0,0.276,0.224,0.5,0.5,0.5l11.08,0.001
			c0.249,0,0.46-0.183,0.495-0.429c0.2-1.4,0.831-2.666,1.823-3.66C14.026,13.782,14.075,13.597,14.026,13.423z"/>
	</g>
</g>
<g id="Bitcoin_3">
</g>
<g id="Global_Users">
</g>
<g id="Waiting_Users">
</g>
<g id="Writing_Users">
</g>
<g id="Search_Users">
</g>
<g id="Lock_Users">
</g>
<g id="Mark_Users">
</g>
<g id="Share_Users">
</g>
<g id="Shopping_3">
</g>
<g id="Download_3">
</g>
<g id="Upload_3">
</g>
<g id="Users_Statistics">
</g>
<g id="Users_Defense">
</g>
<g id="Car_3">
</g>
<g id="Home_3">
</g>
<g id="Park_3">
</g>
<g id="Recicle_Users">
</g>
<g id="Wifi_3">
</g>
<g id="Attach_3">
</g>
<g id="Disabled_Users">
</g>
<g id="Users_Card">
</g>
<g id="Gaming_3">
</g>
<g id="Cloud_3">
</g>
<g id="Database_3">
</g>
<g id="Copyright_3">
</g>
<g id="No_Copzright_3">
</g>
<g id="Creative_Commun_3">
</g>
<g id="Eco-Friendly_3">
</g>
<g id="Percentage_3">
</g>
<g id="Users_Love">
</g>
<g id="Users_Place">
</g>
<g id="Users_Key">
</g>
<g id="Sleeping_3">
</g>
</svg>
