<?xml version="1.0" encoding="iso-8859-1"?>
<!-- Generator: Adobe Illustrator 19.2.1, SVG Export Plug-In . SVG Version: 6.00 Build 0)  -->
<svg version="1.1" xmlns="http://www.w3.org/2000/svg" xmlns:xlink="http://www.w3.org/1999/xlink" x="0px" y="0px"
	 viewBox="0 0 24 24" style="enable-background:new 0 0 24 24;" xml:space="preserve">
<g id="Add_User">
</g>
<g id="Remove_User">
</g>
<g id="Delete_User">
</g>
<g id="Done">
</g>
<g id="At_Symbol">
</g>
<g id="Question">
</g>
<g id="Answer">
</g>
<g id="Bring_Up">
</g>
<g id="Bring_Down">
</g>
<g id="Dismiss_User">
</g>
<g id="User_Speed">
</g>
<g id="User_Settings">
</g>
<g id="User_Refresh">
</g>
<g id="User_Time">
</g>
<g id="Dollar">
</g>
<g id="Euro">
</g>
<g id="Pound">
</g>
<g id="Bitcoin">
</g>
<g id="Global_User">
</g>
<g id="Waiting_User">
</g>
<g id="Writing_User_2">
</g>
<g id="Search_User">
</g>
<g id="Lock_User">
</g>
<g id="Mark_User">
</g>
<g id="Share_User">
</g>
<g id="Shopping">
</g>
<g id="User_Download">
</g>
<g id="User_Upload">
</g>
<g id="User_Statistics">
</g>
<g id="User_Defense">
</g>
<g id="User_Car">
</g>
<g id="User_Home">
</g>
<g id="Park">
</g>
<g id="Recicle_User">
</g>
<g id="Wifi">
</g>
<g id="Attach_User">
</g>
<g id="Disabled_User">
</g>
<g id="User_Card">
</g>
<g id="Gaming">
</g>
<g id="User_Cloud">
</g>
<g id="User_Database">
</g>
<g id="Copyright">
</g>
<g id="No_Copyright">
</g>
<g id="Creative_Commun">
</g>
<g id="Eco-Friendly">
</g>
<g id="Percentage">
</g>
<g id="User_Love">
</g>
<g id="User_Place">
</g>
<g id="User_Key">
</g>
<g id="Sleeping">
</g>
<g id="Add_User_2">
</g>
<g id="Remove_User_2">
</g>
<g id="Delete_User_2">
</g>
<g id="Done_2">
</g>
<g id="At_Symbol_2">
</g>
<g id="Question_2">
</g>
<g id="Answer_2">
</g>
<g id="Bring_Up_2">
</g>
<g id="Bring_Down_2">
</g>
<g id="Dismiss_User_2">
</g>
<g id="User_Speed_2">
</g>
<g id="User_Settings_2">
</g>
<g id="Refresh_2">
</g>
<g id="Time_2">
</g>
<g id="Dollar_2">
</g>
<g id="Euro_2">
</g>
<g id="Pound_2">
</g>
<g id="Bitcoin_2">
</g>
<g id="Global_User_2">
</g>
<g id="Waiting_User_2">
</g>
<g id="Writing_User">
</g>
<g id="Search_User_2">
</g>
<g id="Lock_User_2">
</g>
<g id="Mark_User_2">
</g>
<g id="Share_User_2">
</g>
<g id="Shopping_2">
</g>
<g id="Download_2">
</g>
<g id="Upload_2">
</g>
<g id="User_Statistics_2">
</g>
<g id="User_Defense_2">
</g>
<g id="Car_2">
</g>
<g id="Home_2">
</g>
<g id="Park_2">
</g>
<g id="Recicle_User_2">
	<g>
		<path d="M18.962,16.191c0.051-0.122,0.051-0.26,0-0.382c-0.025-0.062-0.062-0.117-0.109-0.163l-1.499-1.499
			c-0.195-0.195-0.512-0.195-0.707,0s-0.195,0.512,0,0.707l0.646,0.646H16.5c-1.93,0-3.5,1.57-3.5,3.5s1.57,3.5,3.5,3.5
			c0.276,0,0.5-0.224,0.5-0.5s-0.224-0.5-0.5-0.5c-1.378,0-2.5-1.121-2.5-2.5s1.122-2.5,2.5-2.5h0.793l-0.646,0.646
			c-0.195,0.195-0.195,0.512,0,0.707C16.744,17.951,16.872,18,17,18s0.256-0.049,0.354-0.146l1.499-1.499
			C18.899,16.308,18.936,16.252,18.962,16.191z"/>
		<path d="M20.5,15.5c-0.276,0-0.5,0.224-0.5,0.5s0.224,0.5,0.5,0.5c1.378,0,2.5,1.121,2.5,2.5s-1.122,2.5-2.5,2.5h-0.793
			l0.646-0.646c0.195-0.195,0.195-0.512,0-0.707s-0.512-0.195-0.707,0l-1.499,1.499c-0.046,0.046-0.083,0.102-0.109,0.163
			c-0.051,0.122-0.051,0.26,0,0.382c0.025,0.062,0.062,0.117,0.109,0.163l1.499,1.499C19.744,23.951,19.872,24,20,24
			s0.256-0.049,0.354-0.146c0.195-0.195,0.195-0.512,0-0.707L19.707,22.5H20.5c1.93,0,3.5-1.57,3.5-3.5S22.43,15.5,20.5,15.5z"/>
		<path d="M14.575,23.049C13.011,22.302,12,20.712,12,19c0-1.464,0.73-2.838,1.954-3.678c0.176-0.12,0.256-0.339,0.199-0.545
			c-0.065-0.237-0.106-0.434-0.129-0.571c0.764-0.702,1.476-1.758,1.476-2.706c0-0.354,0.105-0.5,0.121-0.515
			c0.156-0.039,0.284-0.15,0.343-0.3C16.019,10.549,16.5,9.322,16.5,8.5c0-0.041-0.005-0.082-0.015-0.121
			C16.43,8.159,16.277,7.839,16,7.651V5c0-1.611-0.492-2.271-1.01-2.655C14.892,1.569,14.06,0,11,0C7.902,0,6,2.912,6,5v2.651
			C5.723,7.839,5.57,8.159,5.515,8.379C5.505,8.418,5.5,8.459,5.5,8.5c0,0.822,0.481,2.049,0.536,2.186
			c0.06,0.149,0.148,0.248,0.304,0.287C6.395,11,6.5,11.146,6.5,11.5c0,0.949,0.713,2.006,1.478,2.708
			c-0.105,0.655-0.593,2.382-1.636,2.817l-4.438,1.479c-1.219,0.406-1.628,1.428-1.889,2.472C0.005,21.016,0,21.057,0,21.098V23.5
			C0,23.776,0.224,24,0.5,24h13.86c0.233,0,0.436-0.162,0.488-0.39C14.899,23.383,14.786,23.149,14.575,23.049z"/>
	</g>
</g>
<g id="User_Wifi">
</g>
<g id="Attach_2">
</g>
<g id="Disabled_User_2">
</g>
<g id="User_Card_2">
</g>
<g id="Gaming_2">
</g>
<g id="Cloud_2">
</g>
<g id="Database_2">
</g>
<g id="Copyright_2">
</g>
<g id="No_Copyright_2">
</g>
<g id="Creative_Commun_2">
</g>
<g id="Eco-Friendly_2">
</g>
<g id="Percentage_2">
</g>
<g id="User_Love_2">
</g>
<g id="User_Rate_2">
</g>
<g id="User_Key_2">
</g>
<g id="Sleeping_2">
</g>
</svg>
