<?xml version="1.0" encoding="iso-8859-1"?>
<!-- Generator: Adobe Illustrator 19.2.1, SVG Export Plug-In . SVG Version: 6.00 Build 0)  -->
<svg version="1.1" xmlns="http://www.w3.org/2000/svg" xmlns:xlink="http://www.w3.org/1999/xlink" x="0px" y="0px"
	 viewBox="0 0 24 24" style="enable-background:new 0 0 24 24;" xml:space="preserve">
<g id="Add_User">
</g>
<g id="Remove_User">
</g>
<g id="Delete_User">
</g>
<g id="Done">
</g>
<g id="At_Symbol">
</g>
<g id="Question">
</g>
<g id="Answer">
</g>
<g id="Bring_Up">
</g>
<g id="Bring_Down">
</g>
<g id="Dismiss_User">
</g>
<g id="User_Speed">
</g>
<g id="User_Settings">
</g>
<g id="User_Refresh">
</g>
<g id="User_Time">
</g>
<g id="Dollar">
</g>
<g id="Euro">
</g>
<g id="Pound">
</g>
<g id="Bitcoin">
</g>
<g id="Global_User">
</g>
<g id="Waiting_User">
</g>
<g id="Writing_User_2">
</g>
<g id="Search_User">
</g>
<g id="Lock_User">
</g>
<g id="Mark_User">
</g>
<g id="Share_User">
</g>
<g id="Shopping">
</g>
<g id="User_Download">
</g>
<g id="User_Upload">
</g>
<g id="User_Statistics">
</g>
<g id="User_Defense">
</g>
<g id="User_Car">
</g>
<g id="User_Home">
</g>
<g id="Park">
</g>
<g id="Recicle_User">
	<g>
		<path d="M18.962,16.191c0.051-0.122,0.051-0.26,0-0.382c-0.025-0.062-0.062-0.117-0.109-0.163l-1.499-1.499
			c-0.195-0.195-0.512-0.195-0.707,0s-0.195,0.512,0,0.707l0.646,0.646H16.5c-1.93,0-3.5,1.57-3.5,3.5s1.57,3.5,3.5,3.5
			c0.276,0,0.5-0.224,0.5-0.5s-0.224-0.5-0.5-0.5c-1.378,0-2.5-1.122-2.5-2.5s1.122-2.5,2.5-2.5h0.793l-0.646,0.646
			c-0.195,0.195-0.195,0.512,0,0.707C16.744,17.951,16.872,18,17,18s0.256-0.049,0.354-0.146l1.499-1.499
			C18.899,16.308,18.936,16.252,18.962,16.191z"/>
		<path d="M20.5,15.5c-0.276,0-0.5,0.224-0.5,0.5s0.224,0.5,0.5,0.5c1.378,0,2.5,1.122,2.5,2.5s-1.122,2.5-2.5,2.5h-0.793
			l0.646-0.646c0.195-0.195,0.195-0.512,0-0.707s-0.512-0.195-0.707,0l-1.499,1.499c-0.046,0.046-0.083,0.102-0.109,0.163
			c-0.051,0.122-0.051,0.26,0,0.382c0.025,0.062,0.062,0.117,0.109,0.163l1.499,1.499C19.744,23.951,19.872,24,20,24
			s0.256-0.049,0.354-0.146c0.195-0.195,0.195-0.512,0-0.707L19.707,22.5H20.5c1.93,0,3.5-1.57,3.5-3.5S22.43,15.5,20.5,15.5z"/>
		<path d="M14.574,23.048C13.01,22.3,12,20.711,12,19c0-1.965,1.275-3.683,3.173-4.274c0.187-0.059,0.323-0.221,0.347-0.415
			c0.043-0.338,0.188-0.64,0.428-0.878c0.052-0.052,0.092-0.115,0.117-0.184c0.108-0.298,0.194-0.598,0.258-0.896
			c0.092-0.075,0.158-0.182,0.178-0.307c0.006-0.034,0.011-0.067,0.016-0.1c0.571-0.158,1.013-0.647,1.089-1.26l0.25-2
			c0.053-0.422-0.077-0.849-0.357-1.169c-0.164-0.188-0.371-0.33-0.6-0.417l0.092-1.883l0.374-0.375
			c0.563-0.599,1.03-1.626,0.054-3.116C16.668,0.581,15.394,0,13.63,0c-0.696,0-2.298,0-3.79,1.002C5.58,1.091,5,3.07,5,5
			c0,0.449,0.109,1.46,0.181,2.07C4.924,7.151,4.69,7.301,4.508,7.507C4.224,7.83,4.091,8.259,4.145,8.686l0.25,2
			c0.082,0.652,0.577,1.165,1.203,1.287c0.207,1.375,0.873,2.724,1.839,3.722l-0.348,1.393l-3.83,0.958
			C1.066,18.593,0,20.377,0,23.5c0,0.133,0.053,0.26,0.146,0.354S0.368,24,0.5,24l13.858-0.001c0.233,0,0.436-0.162,0.488-0.389
			C14.897,23.382,14.785,23.149,14.574,23.048z"/>
	</g>
</g>
<g id="Wifi">
</g>
<g id="Attach_User">
</g>
<g id="Disabled_User">
</g>
<g id="User_Card">
</g>
<g id="Gaming">
</g>
<g id="User_Cloud">
</g>
<g id="User_Database">
</g>
<g id="Copyright">
</g>
<g id="No_Copyright">
</g>
<g id="Creative_Commun">
</g>
<g id="Eco-Friendly">
</g>
<g id="Percentage">
</g>
<g id="User_Love">
</g>
<g id="User_Place">
</g>
<g id="User_Key">
</g>
<g id="Sleeping">
</g>
<g id="Add_User_2">
</g>
<g id="Remove_User_2">
</g>
<g id="Delete_User_2">
</g>
<g id="Done_2">
</g>
<g id="At_Symbol_2">
</g>
<g id="Question_2">
</g>
<g id="Answer_2">
</g>
<g id="Bring_Up_2">
</g>
<g id="Bring_Down_2">
</g>
<g id="Dismiss_User_2">
</g>
<g id="User_Speed_2">
</g>
<g id="User_Settings_2">
</g>
<g id="Refresh_2">
</g>
<g id="Time_2">
</g>
<g id="Dollar_2">
</g>
<g id="Euro_2">
</g>
<g id="Pound_2">
</g>
<g id="Bitcoin_2">
</g>
<g id="Global_User_2">
</g>
<g id="Waiting_User_2">
</g>
<g id="Writing_User">
</g>
<g id="Search_User_2">
</g>
<g id="Lock_User_2">
</g>
<g id="Mark_User_2">
</g>
<g id="Share_User_2">
</g>
<g id="Shopping_2">
</g>
<g id="Download_2">
</g>
<g id="Upload_2">
</g>
<g id="User_Statistics_2">
</g>
<g id="User_Defense_2">
</g>
<g id="Car_2">
</g>
<g id="Home_2">
</g>
<g id="Park_2">
</g>
<g id="Recicle_User_2">
</g>
<g id="User_Wifi">
</g>
<g id="Attach_2">
</g>
<g id="Disabled_User_2">
</g>
<g id="User_Card_2">
</g>
<g id="Gaming_2">
</g>
<g id="Cloud_2">
</g>
<g id="Database_2">
</g>
<g id="Copyright_2">
</g>
<g id="No_Copyright_2">
</g>
<g id="Creative_Commun_2">
</g>
<g id="Eco-Friendly_2">
</g>
<g id="Percentage_2">
</g>
<g id="User_Love_2">
</g>
<g id="User_Rate_2">
</g>
<g id="User_Key_2">
</g>
<g id="Sleeping_2">
</g>
</svg>
