<?xml version="1.0" encoding="iso-8859-1"?>
<!-- Generator: Adobe Illustrator 19.2.1, SVG Export Plug-In . SVG Version: 6.00 Build 0)  -->
<svg version="1.1" xmlns="http://www.w3.org/2000/svg" xmlns:xlink="http://www.w3.org/1999/xlink" x="0px" y="0px"
	 viewBox="0 0 24 24" style="enable-background:new 0 0 24 24;" xml:space="preserve">
<g id="Add_Users">
</g>
<g id="Remove_Users">
</g>
<g id="Delete_Users">
</g>
<g id="Done_3">
</g>
<g id="At_Symbol_3">
</g>
<g id="Question_3">
</g>
<g id="Answer_3">
</g>
<g id="Bring_Up_3">
</g>
<g id="Bring_Down_3">
</g>
<g id="Dismiss_Users">
</g>
<g id="Users_Speed_3">
</g>
<g id="Users_Settings">
</g>
<g id="Refresh_Users">
	<g>
		<path d="M23.5,15c-0.276,0-0.5,0.224-0.5,0.5v1.106C22.16,15.735,20.887,15,19.5,15c-2.481,0-4.5,2.019-4.5,4.5s2.019,4.5,4.5,4.5
			c0.276,0,0.5-0.224,0.5-0.5S19.776,23,19.5,23c-1.93,0-3.5-1.57-3.5-3.5s1.57-3.5,3.5-3.5c1.547,0,2.868,1.184,3.32,2H20.5
			c-0.276,0-0.5,0.224-0.5,0.5s0.224,0.5,0.5,0.5h3c0.276,0,0.5-0.224,0.5-0.5v-3C24,15.224,23.776,15,23.5,15z"/>
		<path d="M15.004,8.17c-0.071,0.569-0.355,1.085-0.802,1.452c-0.079,0.064-0.136,0.151-0.163,0.25
			c-0.143,0.504-0.35,0.993-0.614,1.451c-0.078,0.136-0.088,0.301-0.027,0.445c0.062,0.145,0.187,0.252,0.339,0.29l1.262,0.315
			c1.026,0.256,1.95,0.824,2.67,1.643c0.096,0.109,0.234,0.17,0.375,0.17c0.041,0,0.082-0.005,0.122-0.015
			c0.395-0.1,0.797-0.154,1.196-0.164c0.25-0.006,0.458-0.196,0.485-0.444c0.027-0.249-0.133-0.479-0.375-0.541L18,12.653
			l-0.205-0.816c0.73-0.746,1.234-1.747,1.402-2.777c0.43-0.154,0.755-0.539,0.814-1.014l0.185-1.479
			c0.043-0.349-0.064-0.701-0.295-0.967c-0.114-0.13-0.253-0.233-0.407-0.306l0.062-1.251l0.243-0.244
			c0.449-0.477,0.823-1.291,0.055-2.464C19.273,0.449,18.295,0,16.944,0c-0.496,0-1.156,0.03-1.865,0.271
			c-0.142,0.048-0.255,0.157-0.308,0.298c-0.053,0.14-0.04,0.297,0.035,0.427c0.684,1.179,0.633,2.392-0.138,3.327
			c-0.154,0.188-0.152,0.458,0.005,0.642c0.405,0.478,0.593,1.106,0.515,1.726L15.004,8.17z"/>
		<path d="M16.375,14.979c0.129-0.09,0.208-0.235,0.214-0.393s-0.063-0.308-0.185-0.407c-0.502-0.407-1.058-0.688-1.65-0.836
			L12,12.653l-0.205-0.816c0.73-0.746,1.234-1.747,1.402-2.777c0.43-0.154,0.755-0.539,0.814-1.014l0.185-1.479
			c0.043-0.349-0.064-0.701-0.295-0.967c-0.114-0.13-0.253-0.233-0.407-0.306l0.062-1.251l0.243-0.244
			c0.449-0.477,0.823-1.291,0.055-2.464C13.273,0.449,12.295,0,10.944,0c-0.521,0-1.716,0-2.842,0.742
			C4.856,0.823,4.435,2.429,4.435,3.826c0,0.317,0.07,0.984,0.123,1.442C4.385,5.341,4.229,5.45,4.104,5.593
			C3.869,5.859,3.759,6.214,3.803,6.567l0.185,1.478c0.063,0.508,0.43,0.913,0.903,1.042c0.167,0.988,0.645,1.953,1.33,2.683
			l-0.221,0.884l-2.755,0.688C1.334,13.819,0,15.528,0,17.498c0,0.276,0.224,0.5,0.5,0.5L13.85,18c0.211,0,0.4-0.133,0.471-0.333
			C14.71,16.571,15.421,15.642,16.375,14.979z"/>
	</g>
</g>
<g id="Time_3">
</g>
<g id="Dollar_3">
</g>
<g id="Euro_3">
</g>
<g id="Pound_3">
</g>
<g id="Bitcoin_3">
</g>
<g id="Global_Users">
</g>
<g id="Waiting_Users">
</g>
<g id="Writing_Users">
</g>
<g id="Search_Users">
</g>
<g id="Lock_Users">
</g>
<g id="Mark_Users">
</g>
<g id="Share_Users">
</g>
<g id="Shopping_3">
</g>
<g id="Download_3">
</g>
<g id="Upload_3">
</g>
<g id="Users_Statistics">
</g>
<g id="Users_Defense">
</g>
<g id="Car_3">
</g>
<g id="Home_3">
</g>
<g id="Park_3">
</g>
<g id="Recicle_Users">
</g>
<g id="Wifi_3">
</g>
<g id="Attach_3">
</g>
<g id="Disabled_Users">
</g>
<g id="Users_Card">
</g>
<g id="Gaming_3">
</g>
<g id="Cloud_3">
</g>
<g id="Database_3">
</g>
<g id="Copyright_3">
</g>
<g id="No_Copzright_3">
</g>
<g id="Creative_Commun_3">
</g>
<g id="Eco-Friendly_3">
</g>
<g id="Percentage_3">
</g>
<g id="Users_Love">
</g>
<g id="Users_Place">
</g>
<g id="Users_Key">
</g>
<g id="Sleeping_3">
</g>
</svg>
