<?xml version="1.0" encoding="iso-8859-1"?>
<!-- Generator: Adobe Illustrator 19.2.1, SVG Export Plug-In . SVG Version: 6.00 Build 0)  -->
<svg version="1.1" xmlns="http://www.w3.org/2000/svg" xmlns:xlink="http://www.w3.org/1999/xlink" x="0px" y="0px"
	 viewBox="0 0 24 24" style="enable-background:new 0 0 24 24;" xml:space="preserve">
<g id="Add_User">
</g>
<g id="Remove_User">
</g>
<g id="Delete_User">
</g>
<g id="Done">
</g>
<g id="At_Symbol">
</g>
<g id="Question">
</g>
<g id="Answer">
</g>
<g id="Bring_Up">
</g>
<g id="Bring_Down">
</g>
<g id="Dismiss_User">
</g>
<g id="User_Speed">
</g>
<g id="User_Settings">
</g>
<g id="User_Refresh">
</g>
<g id="User_Time">
</g>
<g id="Dollar">
</g>
<g id="Euro">
</g>
<g id="Pound">
</g>
<g id="Bitcoin">
</g>
<g id="Global_User">
</g>
<g id="Waiting_User">
</g>
<g id="Writing_User_2">
</g>
<g id="Search_User">
</g>
<g id="Lock_User">
</g>
<g id="Mark_User">
</g>
<g id="Share_User">
	<g>
		<path d="M21.499,20c-0.683,0-1.285,0.345-1.646,0.868l-4.467-2.233c0.068-0.201,0.113-0.411,0.113-0.635s-0.045-0.434-0.113-0.635
			l4.467-2.233C20.214,15.655,20.817,16,21.499,16c1.103,0,2-0.897,2-2s-0.897-2-2-2s-2,0.897-2,2c0,0.062,0.013,0.121,0.018,0.182
			l-4.682,2.341C14.481,16.201,14.015,16,13.499,16c-1.103,0-2,0.897-2,2s0.897,2,2,2c0.516,0,0.982-0.201,1.336-0.523l4.682,2.341
			c-0.006,0.061-0.018,0.119-0.018,0.182c0,1.103,0.897,2,2,2s2-0.897,2-2S22.602,20,21.499,20z"/>
		<path d="M18.583,22.671c-0.034-0.145-0.13-0.268-0.264-0.334l-3.18-1.59c-0.133-0.067-0.29-0.071-0.427-0.009
			C14.322,20.912,13.913,21,13.499,21c-1.654,0-3-1.346-3-3s1.346-3,3-3c0.414,0,0.822,0.088,1.213,0.262
			c0.137,0.061,0.293,0.058,0.427-0.009l0.381-0.19c0.074-0.037,0.138-0.092,0.185-0.159c0.542-0.77,0.928-1.654,1.12-2.552
			c0.091-0.075,0.156-0.182,0.177-0.306c0.005-0.034,0.011-0.067,0.016-0.1c0.571-0.158,1.013-0.647,1.089-1.26l0.25-2
			c0.053-0.422-0.077-0.849-0.357-1.169c-0.164-0.188-0.371-0.33-0.6-0.417l0.092-1.883l0.374-0.375
			c0.563-0.599,1.03-1.626,0.054-3.116C17.169,0.581,15.895,0,14.131,0c-0.696,0-2.298,0-3.79,1.002C6.08,1.091,5.501,3.07,5.501,5
			c0,0.449,0.109,1.46,0.181,2.07c-0.257,0.081-0.49,0.231-0.672,0.438C4.724,7.83,4.592,8.259,4.645,8.686l0.25,2
			c0.082,0.652,0.577,1.165,1.203,1.287c0.207,1.375,0.873,2.724,1.839,3.722l-0.348,1.393l-3.83,0.958
			c-2.192,0.548-3.258,2.332-3.258,5.455c0,0.133,0.053,0.26,0.146,0.354S0.868,24,1.001,24l10.495-0.001l6.86,0
			c0.172,0,0.332-0.088,0.423-0.233c0.092-0.146,0.103-0.328,0.028-0.482C18.698,23.054,18.626,22.86,18.583,22.671z"/>
	</g>
</g>
<g id="Shopping">
</g>
<g id="User_Download">
</g>
<g id="User_Upload">
</g>
<g id="User_Statistics">
</g>
<g id="User_Defense">
</g>
<g id="User_Car">
</g>
<g id="User_Home">
</g>
<g id="Park">
</g>
<g id="Recicle_User">
</g>
<g id="Wifi">
</g>
<g id="Attach_User">
</g>
<g id="Disabled_User">
</g>
<g id="User_Card">
</g>
<g id="Gaming">
</g>
<g id="User_Cloud">
</g>
<g id="User_Database">
</g>
<g id="Copyright">
</g>
<g id="No_Copyright">
</g>
<g id="Creative_Commun">
</g>
<g id="Eco-Friendly">
</g>
<g id="Percentage">
</g>
<g id="User_Love">
</g>
<g id="User_Place">
</g>
<g id="User_Key">
</g>
<g id="Sleeping">
</g>
<g id="Add_User_2">
</g>
<g id="Remove_User_2">
</g>
<g id="Delete_User_2">
</g>
<g id="Done_2">
</g>
<g id="At_Symbol_2">
</g>
<g id="Question_2">
</g>
<g id="Answer_2">
</g>
<g id="Bring_Up_2">
</g>
<g id="Bring_Down_2">
</g>
<g id="Dismiss_User_2">
</g>
<g id="User_Speed_2">
</g>
<g id="User_Settings_2">
</g>
<g id="Refresh_2">
</g>
<g id="Time_2">
</g>
<g id="Dollar_2">
</g>
<g id="Euro_2">
</g>
<g id="Pound_2">
</g>
<g id="Bitcoin_2">
</g>
<g id="Global_User_2">
</g>
<g id="Waiting_User_2">
</g>
<g id="Writing_User">
</g>
<g id="Search_User_2">
</g>
<g id="Lock_User_2">
</g>
<g id="Mark_User_2">
</g>
<g id="Share_User_2">
</g>
<g id="Shopping_2">
</g>
<g id="Download_2">
</g>
<g id="Upload_2">
</g>
<g id="User_Statistics_2">
</g>
<g id="User_Defense_2">
</g>
<g id="Car_2">
</g>
<g id="Home_2">
</g>
<g id="Park_2">
</g>
<g id="Recicle_User_2">
</g>
<g id="User_Wifi">
</g>
<g id="Attach_2">
</g>
<g id="Disabled_User_2">
</g>
<g id="User_Card_2">
</g>
<g id="Gaming_2">
</g>
<g id="Cloud_2">
</g>
<g id="Database_2">
</g>
<g id="Copyright_2">
</g>
<g id="No_Copyright_2">
</g>
<g id="Creative_Commun_2">
</g>
<g id="Eco-Friendly_2">
</g>
<g id="Percentage_2">
</g>
<g id="User_Love_2">
</g>
<g id="User_Rate_2">
</g>
<g id="User_Key_2">
</g>
<g id="Sleeping_2">
</g>
</svg>
