<?xml version="1.0" encoding="iso-8859-1"?>
<!-- Generator: Adobe Illustrator 19.2.1, SVG Export Plug-In . SVG Version: 6.00 Build 0)  -->
<svg version="1.1" xmlns="http://www.w3.org/2000/svg" xmlns:xlink="http://www.w3.org/1999/xlink" x="0px" y="0px"
	 viewBox="0 0 24 24" style="enable-background:new 0 0 24 24;" xml:space="preserve">
<g id="Add_Users">
</g>
<g id="Remove_Users">
</g>
<g id="Delete_Users">
</g>
<g id="Done_3">
</g>
<g id="At_Symbol_3">
</g>
<g id="Question_3">
</g>
<g id="Answer_3">
</g>
<g id="Bring_Up_3">
</g>
<g id="Bring_Down_3">
</g>
<g id="Dismiss_Users">
</g>
<g id="Users_Speed_3">
</g>
<g id="Users_Settings">
</g>
<g id="Refresh_Users">
</g>
<g id="Time_3">
</g>
<g id="Dollar_3">
</g>
<g id="Euro_3">
</g>
<g id="Pound_3">
</g>
<g id="Bitcoin_3">
</g>
<g id="Global_Users">
</g>
<g id="Waiting_Users">
</g>
<g id="Writing_Users">
</g>
<g id="Search_Users">
</g>
<g id="Lock_Users">
</g>
<g id="Mark_Users">
</g>
<g id="Share_Users">
</g>
<g id="Shopping_3">
</g>
<g id="Download_3">
</g>
<g id="Upload_3">
</g>
<g id="Users_Statistics">
</g>
<g id="Users_Defense">
</g>
<g id="Car_3">
</g>
<g id="Home_3">
</g>
<g id="Park_3">
</g>
<g id="Recicle_Users">
</g>
<g id="Wifi_3">
</g>
<g id="Attach_3">
</g>
<g id="Disabled_Users">
</g>
<g id="Users_Card">
</g>
<g id="Gaming_3">
</g>
<g id="Cloud_3">
</g>
<g id="Database_3">
</g>
<g id="Copyright_3">
</g>
<g id="No_Copzright_3">
</g>
<g id="Creative_Commun_3">
</g>
<g id="Eco-Friendly_3">
</g>
<g id="Percentage_3">
</g>
<g id="Users_Love">
</g>
<g id="Users_Place">
</g>
<g id="Users_Key">
</g>
<g id="Sleeping_3">
	<g>
		<path d="M23.5,19h-1.065l1.481-2.223c0.103-0.153,0.112-0.351,0.024-0.514C23.853,16.102,23.684,16,23.5,16h-2
			c-0.276,0-0.5,0.224-0.5,0.5s0.224,0.5,0.5,0.5h1.065l-1.481,2.223c-0.103,0.153-0.112,0.351-0.024,0.514
			C21.146,19.898,21.315,20,21.5,20h2c0.276,0,0.5-0.224,0.5-0.5S23.776,19,23.5,19z"/>
		<path d="M20.5,23h-2.96l3.351-4.188c0.12-0.15,0.144-0.355,0.06-0.529C20.867,18.11,20.692,18,20.5,18h-4
			c-0.276,0-0.5,0.224-0.5,0.5s0.224,0.5,0.5,0.5h2.96l-3.351,4.188c-0.12,0.15-0.144,0.355-0.06,0.529
			C16.133,23.89,16.308,24,16.5,24h4c0.276,0,0.5-0.224,0.5-0.5S20.776,23,20.5,23z"/>
		<path d="M15.004,8.17c-0.07,0.569-0.355,1.085-0.801,1.452c-0.079,0.064-0.136,0.152-0.164,0.25
			c-0.142,0.503-0.348,0.991-0.613,1.451c-0.079,0.136-0.089,0.301-0.027,0.445c0.061,0.145,0.187,0.252,0.339,0.29l1.262,0.315
			c2.023,0.506,3.562,2.159,3.921,4.212C18.961,16.825,19.169,17,19.412,17H19.5c0.276,0,0.5-0.224,0.5-0.5
			c0-0.827,0.673-1.5,1.5-1.5h0.502c0.007,0.001,0.015,0.001,0.02,0c0.276,0,0.5-0.224,0.5-0.5c0-0.203-0.121-0.378-0.295-0.456
			c-0.458-0.335-0.953-0.57-1.472-0.7l-2.756-0.69l-0.203-0.816c0.729-0.746,1.233-1.747,1.401-2.777
			c0.431-0.154,0.756-0.539,0.814-1.015l0.185-1.479C20.24,6.217,20.132,5.864,19.9,5.6c-0.113-0.13-0.252-0.234-0.405-0.306
			l0.061-1.251l0.243-0.244c0.449-0.477,0.822-1.291,0.054-2.464C19.273,0.449,18.295,0,16.944,0c-0.496,0-1.156,0.03-1.865,0.271
			c-0.142,0.048-0.255,0.157-0.308,0.298c-0.053,0.14-0.04,0.297,0.035,0.426c0.683,1.181,0.633,2.394-0.138,3.328
			c-0.154,0.187-0.152,0.457,0.004,0.642c0.405,0.478,0.593,1.106,0.516,1.727L15.004,8.17z"/>
		<path d="M17.352,17c0.008,0.001,0.015,0,0.02,0c0.276,0,0.5-0.224,0.5-0.5c0-0.099-0.028-0.189-0.077-0.268
			c-0.442-1.428-1.596-2.527-3.04-2.889l-2.756-0.69l-0.203-0.816c0.729-0.746,1.233-1.747,1.401-2.777
			c0.431-0.154,0.756-0.539,0.814-1.015l0.185-1.479C14.24,6.217,14.132,5.864,13.9,5.6c-0.113-0.13-0.252-0.234-0.405-0.306
			l0.061-1.251l0.243-0.244c0.449-0.477,0.822-1.291,0.054-2.464C13.273,0.449,12.295,0,10.944,0c-0.521,0-1.716,0-2.843,0.742
			C4.855,0.823,4.434,2.429,4.434,3.826c0,0.317,0.069,0.984,0.122,1.442C4.385,5.341,4.229,5.45,4.103,5.594
			c-0.235,0.266-0.345,0.621-0.3,0.973l0.185,1.479c0.063,0.508,0.43,0.912,0.903,1.042c0.167,0.987,0.645,1.952,1.33,2.683
			l-0.221,0.884l-2.756,0.688C1.334,13.819,0,15.528,0,17.498c0,0.276,0.224,0.5,0.5,0.5L14.777,18c0.178,0,0.343-0.095,0.433-0.248
			C15.483,17.281,15.966,17,16.5,17H17.352z"/>
	</g>
</g>
</svg>
