<?xml version="1.0" encoding="iso-8859-1"?>
<!-- Generator: Adobe Illustrator 19.2.1, SVG Export Plug-In . SVG Version: 6.00 Build 0)  -->
<svg version="1.1" xmlns="http://www.w3.org/2000/svg" xmlns:xlink="http://www.w3.org/1999/xlink" x="0px" y="0px"
	 viewBox="0 0 24 24" style="enable-background:new 0 0 24 24;" xml:space="preserve">
<g id="Add_User">
</g>
<g id="Remove_User">
</g>
<g id="Delete_User">
</g>
<g id="Done">
</g>
<g id="At_Symbol">
</g>
<g id="Question">
</g>
<g id="Answer">
</g>
<g id="Bring_Up">
</g>
<g id="Bring_Down">
</g>
<g id="Dismiss_User">
</g>
<g id="User_Speed">
</g>
<g id="User_Settings">
</g>
<g id="User_Refresh">
</g>
<g id="User_Time">
</g>
<g id="Dollar">
</g>
<g id="Euro">
</g>
<g id="Pound">
</g>
<g id="Bitcoin">
</g>
<g id="Global_User">
</g>
<g id="Waiting_User">
</g>
<g id="Writing_User_2">
</g>
<g id="Search_User">
</g>
<g id="Lock_User">
</g>
<g id="Mark_User">
</g>
<g id="Share_User">
</g>
<g id="Shopping">
</g>
<g id="User_Download">
</g>
<g id="User_Upload">
</g>
<g id="User_Statistics">
</g>
<g id="User_Defense">
</g>
<g id="User_Car">
</g>
<g id="User_Home">
</g>
<g id="Park">
</g>
<g id="Recicle_User">
</g>
<g id="Wifi">
</g>
<g id="Attach_User">
</g>
<g id="Disabled_User">
</g>
<g id="User_Card">
</g>
<g id="Gaming">
</g>
<g id="User_Cloud">
</g>
<g id="User_Database">
</g>
<g id="Copyright">
</g>
<g id="No_Copyright">
</g>
<g id="Creative_Commun">
</g>
<g id="Eco-Friendly">
</g>
<g id="Percentage">
</g>
<g id="User_Love">
</g>
<g id="User_Place">
</g>
<g id="User_Key">
</g>
<g id="Sleeping">
</g>
<g id="Add_User_2">
</g>
<g id="Remove_User_2">
</g>
<g id="Delete_User_2">
</g>
<g id="Done_2">
</g>
<g id="At_Symbol_2">
</g>
<g id="Question_2">
</g>
<g id="Answer_2">
</g>
<g id="Bring_Up_2">
</g>
<g id="Bring_Down_2">
</g>
<g id="Dismiss_User_2">
</g>
<g id="User_Speed_2">
</g>
<g id="User_Settings_2">
</g>
<g id="Refresh_2">
</g>
<g id="Time_2">
</g>
<g id="Dollar_2">
</g>
<g id="Euro_2">
</g>
<g id="Pound_2">
</g>
<g id="Bitcoin_2">
</g>
<g id="Global_User_2">
</g>
<g id="Waiting_User_2">
</g>
<g id="Writing_User">
</g>
<g id="Search_User_2">
</g>
<g id="Lock_User_2">
</g>
<g id="Mark_User_2">
</g>
<g id="Share_User_2">
</g>
<g id="Shopping_2">
</g>
<g id="Download_2">
</g>
<g id="Upload_2">
</g>
<g id="User_Statistics_2">
</g>
<g id="User_Defense_2">
</g>
<g id="Car_2">
</g>
<g id="Home_2">
</g>
<g id="Park_2">
</g>
<g id="Recicle_User_2">
</g>
<g id="User_Wifi">
</g>
<g id="Attach_2">
</g>
<g id="Disabled_User_2">
</g>
<g id="User_Card_2">
</g>
<g id="Gaming_2">
</g>
<g id="Cloud_2">
</g>
<g id="Database_2">
</g>
<g id="Copyright_2">
</g>
<g id="No_Copyright_2">
</g>
<g id="Creative_Commun_2">
</g>
<g id="Eco-Friendly_2">
</g>
<g id="Percentage_2">
</g>
<g id="User_Love_2">
</g>
<g id="User_Rate_2">
</g>
<g id="User_Key_2">
</g>
<g id="Sleeping_2">
	<g>
		<path d="M23.5,19h-1.065l1.481-2.223c0.103-0.153,0.112-0.351,0.024-0.514C23.853,16.102,23.684,16,23.5,16h-2
			c-0.276,0-0.5,0.224-0.5,0.5s0.224,0.5,0.5,0.5h1.065l-1.481,2.223c-0.103,0.153-0.112,0.351-0.024,0.514
			C21.146,19.898,21.315,20,21.5,20h2c0.276,0,0.5-0.224,0.5-0.5S23.776,19,23.5,19z"/>
		<path d="M16.803,20.295c-0.074-0.17-0.235-0.285-0.42-0.299C15.607,19.936,15,19.278,15,18.5c0-0.452,0.202-0.78,0.372-0.976
			c0.09-0.104,0.134-0.238,0.121-0.374s-0.08-0.261-0.187-0.346c-0.816-0.648-1.193-2.029-1.284-2.597
			c0.765-0.702,1.478-1.759,1.478-2.708c0-0.354,0.105-0.5,0.121-0.515c0.156-0.039,0.283-0.15,0.343-0.3
			C16.019,10.549,16.5,9.322,16.5,8.5c0-0.041-0.005-0.082-0.015-0.121c-0.055-0.22-0.208-0.54-0.485-0.728V5
			c0-1.611-0.492-2.271-1.011-2.655C14.891,1.569,14.06,0,11,0C7.902,0,6,2.912,6,5v2.651C5.723,7.839,5.569,8.159,5.515,8.379
			C5.505,8.418,5.5,8.459,5.5,8.5c0,0.822,0.48,2.049,0.536,2.186c0.06,0.149,0.147,0.248,0.304,0.287C6.394,11,6.5,11.146,6.5,11.5
			c0,0.949,0.713,2.006,1.478,2.708c-0.104,0.655-0.593,2.382-1.636,2.817l-4.438,1.479c-1.219,0.406-1.628,1.428-1.89,2.472
			C0.005,21.016,0,21.057,0,21.098V23.5C0,23.776,0.224,24,0.5,24h14.019c0.276,0,0.5-0.224,0.5-0.5c0-0.25,0.054-0.616,0.311-0.937
			l1.405-1.757C16.85,20.662,16.876,20.465,16.803,20.295z"/>
		<path d="M20.5,23h-2.96l3.351-4.188c0.12-0.15,0.144-0.355,0.06-0.529C20.867,18.11,20.692,18,20.5,18h-4
			c-0.276,0-0.5,0.224-0.5,0.5s0.224,0.5,0.5,0.5h2.96l-3.351,4.188c-0.12,0.15-0.144,0.355-0.06,0.529
			C16.133,23.89,16.308,24,16.5,24h4c0.276,0,0.5-0.224,0.5-0.5S20.776,23,20.5,23z"/>
	</g>
</g>
</svg>
