<?xml version="1.0" encoding="iso-8859-1"?>
<!-- Generator: Adobe Illustrator 19.2.1, SVG Export Plug-In . SVG Version: 6.00 Build 0)  -->
<svg version="1.1" xmlns="http://www.w3.org/2000/svg" xmlns:xlink="http://www.w3.org/1999/xlink" x="0px" y="0px"
	 viewBox="0 0 24 24" style="enable-background:new 0 0 24 24;" xml:space="preserve">
<g id="Add_User">
</g>
<g id="Remove_User">
</g>
<g id="Delete_User">
</g>
<g id="Done">
</g>
<g id="At_Symbol">
</g>
<g id="Question">
</g>
<g id="Answer">
</g>
<g id="Bring_Up">
</g>
<g id="Bring_Down">
</g>
<g id="Dismiss_User">
</g>
<g id="User_Speed">
</g>
<g id="User_Settings">
</g>
<g id="User_Refresh">
</g>
<g id="User_Time">
</g>
<g id="Dollar">
</g>
<g id="Euro">
</g>
<g id="Pound">
</g>
<g id="Bitcoin">
</g>
<g id="Global_User">
</g>
<g id="Waiting_User">
</g>
<g id="Writing_User_2">
</g>
<g id="Search_User">
</g>
<g id="Lock_User">
</g>
<g id="Mark_User">
</g>
<g id="Share_User">
</g>
<g id="Shopping">
</g>
<g id="User_Download">
</g>
<g id="User_Upload">
</g>
<g id="User_Statistics">
</g>
<g id="User_Defense">
</g>
<g id="User_Car">
</g>
<g id="User_Home">
</g>
<g id="Park">
</g>
<g id="Recicle_User">
</g>
<g id="Wifi">
</g>
<g id="Attach_User">
</g>
<g id="Disabled_User">
</g>
<g id="User_Card">
</g>
<g id="Gaming">
</g>
<g id="User_Cloud">
</g>
<g id="User_Database">
</g>
<g id="Copyright">
</g>
<g id="No_Copyright">
</g>
<g id="Creative_Commun">
</g>
<g id="Eco-Friendly">
</g>
<g id="Percentage">
</g>
<g id="User_Love">
</g>
<g id="User_Place">
</g>
<g id="User_Key">
</g>
<g id="Sleeping">
</g>
<g id="Add_User_2">
</g>
<g id="Remove_User_2">
</g>
<g id="Delete_User_2">
</g>
<g id="Done_2">
</g>
<g id="At_Symbol_2">
</g>
<g id="Question_2">
</g>
<g id="Answer_2">
</g>
<g id="Bring_Up_2">
</g>
<g id="Bring_Down_2">
</g>
<g id="Dismiss_User_2">
</g>
<g id="User_Speed_2">
</g>
<g id="User_Settings_2">
</g>
<g id="Refresh_2">
</g>
<g id="Time_2">
</g>
<g id="Dollar_2">
</g>
<g id="Euro_2">
</g>
<g id="Pound_2">
</g>
<g id="Bitcoin_2">
</g>
<g id="Global_User_2">
</g>
<g id="Waiting_User_2">
</g>
<g id="Writing_User">
</g>
<g id="Search_User_2">
</g>
<g id="Lock_User_2">
</g>
<g id="Mark_User_2">
</g>
<g id="Share_User_2">
</g>
<g id="Shopping_2">
</g>
<g id="Download_2">
</g>
<g id="Upload_2">
</g>
<g id="User_Statistics_2">
</g>
<g id="User_Defense_2">
</g>
<g id="Car_2">
</g>
<g id="Home_2">
</g>
<g id="Park_2">
</g>
<g id="Recicle_User_2">
</g>
<g id="User_Wifi">
	<g>
		<path d="M17.361,20.732c-0.195,0.195-0.195,0.512,0,0.707s0.512,0.195,0.707,0c0.566-0.566,1.555-0.566,2.121,0
			c0.098,0.098,0.226,0.146,0.354,0.146s0.256-0.049,0.354-0.146c0.195-0.195,0.195-0.512,0-0.707
			C19.953,19.787,18.304,19.787,17.361,20.732z"/>
		<path d="M15.947,19.318c-0.195,0.195-0.195,0.512,0,0.707s0.512,0.195,0.707,0c1.365-1.365,3.585-1.365,4.95,0
			c0.098,0.098,0.226,0.146,0.354,0.146s0.256-0.049,0.354-0.146c0.195-0.195,0.195-0.512,0-0.707
			C20.556,17.564,17.701,17.564,15.947,19.318z"/>
		<path d="M23.725,17.904C22.497,16.677,20.865,16,19.129,16s-3.369,0.677-4.596,1.904c-0.195,0.195-0.195,0.512,0,0.707
			s0.512,0.195,0.707,0C16.279,17.572,17.659,17,19.129,17s2.85,0.572,3.889,1.611c0.098,0.098,0.226,0.146,0.354,0.146
			s0.256-0.049,0.354-0.146C23.92,18.416,23.92,18.1,23.725,17.904z"/>
		<path d="M17.149,22.821c0.017-0.187-0.072-0.368-0.231-0.468c-0.104-0.065-0.191-0.134-0.265-0.206
			c-0.182-0.182-0.31-0.41-0.381-0.679c-0.046-0.174-0.182-0.31-0.356-0.355c-0.267-0.07-0.494-0.198-0.677-0.381
			c-0.182-0.183-0.311-0.41-0.381-0.678c-0.046-0.174-0.182-0.31-0.356-0.355c-0.267-0.07-0.494-0.198-0.677-0.381
			c-0.283-0.283-0.439-0.659-0.439-1.061c0-0.4,0.156-0.777,0.439-1.061c0.214-0.214,0.458-0.424,0.766-0.659
			c0.195-0.149,0.253-0.419,0.136-0.635c-0.351-0.65-0.519-1.344-0.576-1.696c0.765-0.701,1.477-1.758,1.477-2.707
			c0-0.354,0.105-0.5,0.121-0.515c0.156-0.039,0.284-0.15,0.343-0.3c0.055-0.137,0.536-1.363,0.536-2.186
			c0-0.041-0.005-0.082-0.015-0.121c-0.055-0.22-0.208-0.54-0.485-0.728V5c0-1.611-0.492-2.271-1.01-2.655
			C15.02,1.569,14.189,0,11.129,0c-3.098,0-5,2.912-5,5v2.651c-0.277,0.188-0.43,0.508-0.485,0.728
			C5.634,8.418,5.629,8.459,5.629,8.5c0,0.822,0.481,2.049,0.536,2.186c0.06,0.149,0.148,0.248,0.304,0.287
			C6.524,11,6.629,11.146,6.629,11.5c0,0.949,0.713,2.006,1.478,2.708c-0.105,0.655-0.593,2.382-1.636,2.817l-4.438,1.479
			c-1.219,0.406-1.628,1.428-1.889,2.472c-0.01,0.039-0.015,0.08-0.015,0.121V23.5c0,0.276,0.224,0.5,0.5,0.5h16.051
			c0.15,0,0.292-0.067,0.387-0.184c0.095-0.116,0.133-0.27,0.103-0.417c-0.027-0.131-0.041-0.266-0.032-0.476
			C17.138,22.917,17.148,22.829,17.149,22.821z"/>
		<circle cx="19.129" cy="23" r="1"/>
	</g>
</g>
<g id="Attach_2">
</g>
<g id="Disabled_User_2">
</g>
<g id="User_Card_2">
</g>
<g id="Gaming_2">
</g>
<g id="Cloud_2">
</g>
<g id="Database_2">
</g>
<g id="Copyright_2">
</g>
<g id="No_Copyright_2">
</g>
<g id="Creative_Commun_2">
</g>
<g id="Eco-Friendly_2">
</g>
<g id="Percentage_2">
</g>
<g id="User_Love_2">
</g>
<g id="User_Rate_2">
</g>
<g id="User_Key_2">
</g>
<g id="Sleeping_2">
</g>
</svg>
