<?xml version="1.0" encoding="iso-8859-1"?>
<!-- Generator: Adobe Illustrator 19.2.1, SVG Export Plug-In . SVG Version: 6.00 Build 0)  -->
<svg version="1.1" xmlns="http://www.w3.org/2000/svg" xmlns:xlink="http://www.w3.org/1999/xlink" x="0px" y="0px"
	 viewBox="0 0 24 24" style="enable-background:new 0 0 24 24;" xml:space="preserve">
<g id="Add_User">
</g>
<g id="Remove_User">
</g>
<g id="Delete_User">
</g>
<g id="Done">
</g>
<g id="At_Symbol">
</g>
<g id="Question">
</g>
<g id="Answer">
</g>
<g id="Bring_Up">
</g>
<g id="Bring_Down">
</g>
<g id="Dismiss_User">
</g>
<g id="User_Speed">
</g>
<g id="User_Settings">
</g>
<g id="User_Refresh">
</g>
<g id="User_Time">
	<path d="M12,18.5c0-1.091,0.278-2.171,0.804-3.125c0.124-0.225,0.058-0.506-0.153-0.653c-0.156-0.108-0.267-0.21-0.351-0.322
		c-0.496-0.662-0.361-1.604,0.3-2.101l2-1.5c0.633-0.474,1.586-0.345,2.074,0.272c0.116,0.148,0.308,0.213,0.491,0.178
		c0.185-0.037,0.333-0.176,0.385-0.357c0.015-0.039,0.051-0.166,0.056-0.208l0.25-2c0.053-0.422-0.077-0.849-0.357-1.169
		c-0.164-0.188-0.371-0.33-0.6-0.417l0.092-1.883l0.374-0.375c0.563-0.599,1.03-1.626,0.054-3.116C16.668,0.581,15.394,0,13.63,0
		c-0.696,0-2.298,0-3.79,1.002C5.58,1.091,5,3.07,5,5c0,0.449,0.109,1.46,0.181,2.07C4.924,7.151,4.69,7.301,4.508,7.507
		C4.224,7.83,4.091,8.259,4.144,8.686l0.25,2c0.082,0.652,0.577,1.165,1.203,1.287c0.207,1.375,0.873,2.724,1.839,3.722
		l-0.348,1.393l-3.83,0.958C1.066,18.593,0,20.377,0,23.5c0,0.133,0.053,0.26,0.146,0.354S0.368,24,0.5,24l13.109-0.001
		c0.203,0,0.386-0.123,0.463-0.311c0.077-0.188,0.032-0.404-0.113-0.546C12.696,21.905,12,20.257,12,18.5z"/>
	<g>
		<path d="M23.2,13.9c0.09,0.067,0.195,0.1,0.299,0.1c0.152,0,0.302-0.069,0.4-0.2c0.166-0.221,0.121-0.534-0.1-0.7l-2-1.5
			c-0.22-0.166-0.534-0.121-0.7,0.1s-0.121,0.534,0.1,0.7L23.2,13.9z"/>
		<path d="M15.2,11.6l-2,1.5c-0.221,0.166-0.266,0.479-0.1,0.7c0.098,0.131,0.248,0.2,0.4,0.2c0.104,0,0.209-0.033,0.299-0.1l2-1.5
			c0.221-0.166,0.266-0.479,0.1-0.7C15.734,11.479,15.421,11.434,15.2,11.6z"/>
		<path d="M18.5,13c-3.033,0-5.5,2.467-5.5,5.5s2.467,5.5,5.5,5.5s5.5-2.467,5.5-5.5S21.533,13,18.5,13z M20.853,20.854
			C20.756,20.951,20.628,21,20.5,21s-0.256-0.049-0.354-0.146l-2-2C18.053,18.76,18,18.633,18,18.5v-3c0-0.276,0.224-0.5,0.5-0.5
			s0.5,0.224,0.5,0.5v2.793l1.854,1.854C21.049,20.342,21.049,20.658,20.853,20.854z"/>
	</g>
</g>
<g id="Dollar">
</g>
<g id="Euro">
</g>
<g id="Pound">
</g>
<g id="Bitcoin">
</g>
<g id="Global_User">
</g>
<g id="Waiting_User">
</g>
<g id="Writing_User_2">
</g>
<g id="Search_User">
</g>
<g id="Lock_User">
</g>
<g id="Mark_User">
</g>
<g id="Share_User">
</g>
<g id="Shopping">
</g>
<g id="User_Download">
</g>
<g id="User_Upload">
</g>
<g id="User_Statistics">
</g>
<g id="User_Defense">
</g>
<g id="User_Car">
</g>
<g id="User_Home">
</g>
<g id="Park">
</g>
<g id="Recicle_User">
</g>
<g id="Wifi">
</g>
<g id="Attach_User">
</g>
<g id="Disabled_User">
</g>
<g id="User_Card">
</g>
<g id="Gaming">
</g>
<g id="User_Cloud">
</g>
<g id="User_Database">
</g>
<g id="Copyright">
</g>
<g id="No_Copyright">
</g>
<g id="Creative_Commun">
</g>
<g id="Eco-Friendly">
</g>
<g id="Percentage">
</g>
<g id="User_Love">
</g>
<g id="User_Place">
</g>
<g id="User_Key">
</g>
<g id="Sleeping">
</g>
<g id="Add_User_2">
</g>
<g id="Remove_User_2">
</g>
<g id="Delete_User_2">
</g>
<g id="Done_2">
</g>
<g id="At_Symbol_2">
</g>
<g id="Question_2">
</g>
<g id="Answer_2">
</g>
<g id="Bring_Up_2">
</g>
<g id="Bring_Down_2">
</g>
<g id="Dismiss_User_2">
</g>
<g id="User_Speed_2">
</g>
<g id="User_Settings_2">
</g>
<g id="Refresh_2">
</g>
<g id="Time_2">
</g>
<g id="Dollar_2">
</g>
<g id="Euro_2">
</g>
<g id="Pound_2">
</g>
<g id="Bitcoin_2">
</g>
<g id="Global_User_2">
</g>
<g id="Waiting_User_2">
</g>
<g id="Writing_User">
</g>
<g id="Search_User_2">
</g>
<g id="Lock_User_2">
</g>
<g id="Mark_User_2">
</g>
<g id="Share_User_2">
</g>
<g id="Shopping_2">
</g>
<g id="Download_2">
</g>
<g id="Upload_2">
</g>
<g id="User_Statistics_2">
</g>
<g id="User_Defense_2">
</g>
<g id="Car_2">
</g>
<g id="Home_2">
</g>
<g id="Park_2">
</g>
<g id="Recicle_User_2">
</g>
<g id="User_Wifi">
</g>
<g id="Attach_2">
</g>
<g id="Disabled_User_2">
</g>
<g id="User_Card_2">
</g>
<g id="Gaming_2">
</g>
<g id="Cloud_2">
</g>
<g id="Database_2">
</g>
<g id="Copyright_2">
</g>
<g id="No_Copyright_2">
</g>
<g id="Creative_Commun_2">
</g>
<g id="Eco-Friendly_2">
</g>
<g id="Percentage_2">
</g>
<g id="User_Love_2">
</g>
<g id="User_Rate_2">
</g>
<g id="User_Key_2">
</g>
<g id="Sleeping_2">
</g>
</svg>
