<?xml version="1.0" encoding="iso-8859-1"?>
<!-- Generator: Adobe Illustrator 19.2.1, SVG Export Plug-In . SVG Version: 6.00 Build 0)  -->
<svg version="1.1" xmlns="http://www.w3.org/2000/svg" xmlns:xlink="http://www.w3.org/1999/xlink" x="0px" y="0px"
	 viewBox="0 0 24 24" style="enable-background:new 0 0 24 24;" xml:space="preserve">
<g id="Add_User">
</g>
<g id="Remove_User">
</g>
<g id="Delete_User">
</g>
<g id="Done">
</g>
<g id="At_Symbol">
</g>
<g id="Question">
</g>
<g id="Answer">
</g>
<g id="Bring_Up">
</g>
<g id="Bring_Down">
</g>
<g id="Dismiss_User">
</g>
<g id="User_Speed">
</g>
<g id="User_Settings">
</g>
<g id="User_Refresh">
</g>
<g id="User_Time">
</g>
<g id="Dollar">
</g>
<g id="Euro">
</g>
<g id="Pound">
</g>
<g id="Bitcoin">
</g>
<g id="Global_User">
</g>
<g id="Waiting_User">
</g>
<g id="Writing_User_2">
</g>
<g id="Search_User">
</g>
<g id="Lock_User">
</g>
<g id="Mark_User">
</g>
<g id="Share_User">
</g>
<g id="Shopping">
</g>
<g id="User_Download">
</g>
<g id="User_Upload">
</g>
<g id="User_Statistics">
</g>
<g id="User_Defense">
</g>
<g id="User_Car">
</g>
<g id="User_Home">
</g>
<g id="Park">
</g>
<g id="Recicle_User">
</g>
<g id="Wifi">
</g>
<g id="Attach_User">
</g>
<g id="Disabled_User">
</g>
<g id="User_Card">
</g>
<g id="Gaming">
</g>
<g id="User_Cloud">
</g>
<g id="User_Database">
</g>
<g id="Copyright">
</g>
<g id="No_Copyright">
</g>
<g id="Creative_Commun">
</g>
<g id="Eco-Friendly">
</g>
<g id="Percentage">
</g>
<g id="User_Love">
</g>
<g id="User_Place">
</g>
<g id="User_Key">
</g>
<g id="Sleeping">
</g>
<g id="Add_User_2">
</g>
<g id="Remove_User_2">
</g>
<g id="Delete_User_2">
</g>
<g id="Done_2">
</g>
<g id="At_Symbol_2">
</g>
<g id="Question_2">
</g>
<g id="Answer_2">
</g>
<g id="Bring_Up_2">
</g>
<g id="Bring_Down_2">
</g>
<g id="Dismiss_User_2">
</g>
<g id="User_Speed_2">
</g>
<g id="User_Settings_2">
</g>
<g id="Refresh_2">
</g>
<g id="Time_2">
</g>
<g id="Dollar_2">
</g>
<g id="Euro_2">
</g>
<g id="Pound_2">
</g>
<g id="Bitcoin_2">
</g>
<g id="Global_User_2">
</g>
<g id="Waiting_User_2">
</g>
<g id="Writing_User">
</g>
<g id="Search_User_2">
</g>
<g id="Lock_User_2">
</g>
<g id="Mark_User_2">
</g>
<g id="Share_User_2">
</g>
<g id="Shopping_2">
</g>
<g id="Download_2">
</g>
<g id="Upload_2">
</g>
<g id="User_Statistics_2">
</g>
<g id="User_Defense_2">
	<g>
		<path d="M14,20.5v-6c0-0.039,0.007-0.075,0.021-0.181c0.006-0.045,0.005-0.09-0.002-0.135c0-0.001,0-0.002,0-0.003
			c0.024-0.037,0.043-0.078,0.057-0.122c0.12-0.388,0.386-0.703,0.747-0.888c0.084-0.043,0.154-0.108,0.202-0.189
			c0.315-0.53,0.476-1.029,0.476-1.482c0-0.354,0.105-0.5,0.121-0.515c0.156-0.039,0.283-0.15,0.343-0.3
			C16.02,10.549,16.5,9.322,16.5,8.5c0-0.041-0.005-0.082-0.015-0.121c-0.055-0.22-0.208-0.54-0.485-0.728V5
			c0-1.611-0.492-2.271-1.011-2.655C14.892,1.569,14.061,0,11,0C7.902,0,6,2.912,6,5v2.651C5.723,7.839,5.569,8.159,5.515,8.379
			C5.505,8.418,5.5,8.459,5.5,8.5c0,0.822,0.48,2.049,0.536,2.186c0.06,0.149,0.147,0.248,0.304,0.287C6.395,11,6.5,11.146,6.5,11.5
			c0,0.949,0.713,2.006,1.478,2.708c-0.104,0.655-0.593,2.382-1.636,2.817l-4.438,1.479c-1.219,0.406-1.628,1.428-1.89,2.472
			C0.005,21.016,0,21.057,0,21.098V23.5C0,23.776,0.224,24,0.5,24h14.874c0.215,0,0.405-0.137,0.474-0.34s0-0.427-0.17-0.558
			C14.564,22.252,14,21.376,14,20.5z"/>
		<path d="M23.5,14h-8c-0.276,0-0.5,0.224-0.5,0.5v6c0,1.546,3.297,3.04,4.308,3.462C19.369,23.987,19.435,24,19.5,24
			s0.131-0.013,0.192-0.038C20.703,23.54,24,22.046,24,20.5v-6C24,14.224,23.776,14,23.5,14z M23,20.5
			c0,0.566-1.807,1.722-3.5,2.457C17.807,22.222,16,21.066,16,20.5V15h7V20.5z"/>
		<path d="M17.5,19H19v2.304c0,0.173,0.089,0.333,0.235,0.424c0.081,0.051,0.173,0.076,0.265,0.076c0.075,0,0.15-0.017,0.22-0.051
			c0.914-0.447,1.725-0.944,2.115-1.297C21.94,20.361,22,20.227,22,20.085V18.5c0-0.276-0.224-0.5-0.5-0.5H20v-1.5
			c0-0.276-0.224-0.5-0.5-0.5h-2c-0.276,0-0.5,0.224-0.5,0.5v2C17,18.776,17.224,19,17.5,19z"/>
	</g>
</g>
<g id="Car_2">
</g>
<g id="Home_2">
</g>
<g id="Park_2">
</g>
<g id="Recicle_User_2">
</g>
<g id="User_Wifi">
</g>
<g id="Attach_2">
</g>
<g id="Disabled_User_2">
</g>
<g id="User_Card_2">
</g>
<g id="Gaming_2">
</g>
<g id="Cloud_2">
</g>
<g id="Database_2">
</g>
<g id="Copyright_2">
</g>
<g id="No_Copyright_2">
</g>
<g id="Creative_Commun_2">
</g>
<g id="Eco-Friendly_2">
</g>
<g id="Percentage_2">
</g>
<g id="User_Love_2">
</g>
<g id="User_Rate_2">
</g>
<g id="User_Key_2">
</g>
<g id="Sleeping_2">
</g>
</svg>
