<?xml version="1.0" encoding="iso-8859-1"?>
<!-- Generator: Adobe Illustrator 19.2.1, SVG Export Plug-In . SVG Version: 6.00 Build 0)  -->
<svg version="1.1" xmlns="http://www.w3.org/2000/svg" xmlns:xlink="http://www.w3.org/1999/xlink" x="0px" y="0px"
	 viewBox="0 0 24 24" style="enable-background:new 0 0 24 24;" xml:space="preserve">
<g id="Add_Users">
</g>
<g id="Remove_Users">
</g>
<g id="Delete_Users">
</g>
<g id="Done_3">
</g>
<g id="At_Symbol_3">
</g>
<g id="Question_3">
</g>
<g id="Answer_3">
</g>
<g id="Bring_Up_3">
</g>
<g id="Bring_Down_3">
</g>
<g id="Dismiss_Users">
</g>
<g id="Users_Speed_3">
</g>
<g id="Users_Settings">
</g>
<g id="Refresh_Users">
</g>
<g id="Time_3">
</g>
<g id="Dollar_3">
</g>
<g id="Euro_3">
</g>
<g id="Pound_3">
</g>
<g id="Bitcoin_3">
</g>
<g id="Global_Users">
</g>
<g id="Waiting_Users">
</g>
<g id="Writing_Users">
</g>
<g id="Search_Users">
</g>
<g id="Lock_Users">
</g>
<g id="Mark_Users">
</g>
<g id="Share_Users">
</g>
<g id="Shopping_3">
</g>
<g id="Download_3">
</g>
<g id="Upload_3">
</g>
<g id="Users_Statistics">
</g>
<g id="Users_Defense">
</g>
<g id="Car_3">
</g>
<g id="Home_3">
</g>
<g id="Park_3">
</g>
<g id="Recicle_Users">
</g>
<g id="Wifi_3">
</g>
<g id="Attach_3">
</g>
<g id="Disabled_Users">
</g>
<g id="Users_Card">
</g>
<g id="Gaming_3">
</g>
<g id="Cloud_3">
</g>
<g id="Database_3">
</g>
<g id="Copyright_3">
</g>
<g id="No_Copzright_3">
</g>
<g id="Creative_Commun_3">
</g>
<g id="Eco-Friendly_3">
</g>
<g id="Percentage_3">
</g>
<g id="Users_Love">
</g>
<g id="Users_Place">
</g>
<g id="Users_Key">
	<g>
		<path d="M15.004,8.17c-0.07,0.569-0.355,1.085-0.801,1.452c-0.079,0.064-0.136,0.152-0.164,0.25
			c-0.142,0.503-0.348,0.991-0.613,1.451c-0.079,0.136-0.089,0.301-0.027,0.445c0.061,0.145,0.187,0.252,0.339,0.29l1.262,0.315
			c0.939,0.234,1.805,0.739,2.502,1.461c0.092,0.096,0.222,0.142,0.353,0.142c0.119,0,0.24-0.038,0.336-0.111
			c0.098-0.074,0.194-0.149,0.299-0.214c0.17-0.106,0.261-0.304,0.229-0.502s-0.177-0.358-0.371-0.407L18,12.654l-0.204-0.817
			c0.729-0.746,1.233-1.747,1.401-2.777c0.431-0.154,0.756-0.539,0.814-1.015l0.185-1.479C20.24,6.217,20.132,5.864,19.9,5.6
			c-0.113-0.13-0.252-0.234-0.405-0.306l0.061-1.251l0.243-0.244c0.449-0.477,0.822-1.291,0.054-2.464
			C19.273,0.449,18.295,0,16.944,0c-0.496,0-1.156,0.03-1.865,0.271c-0.142,0.048-0.255,0.157-0.308,0.298
			c-0.053,0.14-0.04,0.297,0.035,0.426c0.683,1.181,0.633,2.394-0.138,3.328c-0.154,0.187-0.152,0.457,0.004,0.642
			c0.405,0.478,0.593,1.106,0.516,1.727L15.004,8.17z"/>
		<path d="M15.948,17.854l0.369-0.369c0.09-0.09,0.143-0.211,0.146-0.339c0.019-0.644,0.196-1.281,0.529-1.894
			c0.1-0.184,0.074-0.41-0.063-0.567c-0.585-0.669-1.337-1.132-2.175-1.341l-2.756-0.69l-0.203-0.816
			c0.729-0.746,1.233-1.747,1.401-2.777c0.431-0.154,0.756-0.539,0.814-1.015l0.185-1.479C14.24,6.217,14.132,5.864,13.9,5.6
			c-0.113-0.13-0.252-0.234-0.405-0.306l0.061-1.251l0.243-0.244c0.449-0.477,0.822-1.291,0.054-2.464
			C13.273,0.449,12.295,0,10.944,0c-0.521,0-1.716,0-2.843,0.742C4.855,0.823,4.435,2.429,4.435,3.826
			c0,0.317,0.069,0.984,0.122,1.442C4.385,5.341,4.229,5.45,4.104,5.594c-0.235,0.266-0.345,0.621-0.3,0.973l0.185,1.479
			c0.063,0.508,0.43,0.912,0.903,1.042c0.167,0.987,0.645,1.952,1.33,2.683l-0.221,0.884l-2.756,0.688
			C1.334,13.819,0,15.528,0,17.498c0,0.276,0.224,0.5,0.5,0.5L15.595,18C15.728,18,15.854,17.947,15.948,17.854z"/>
		<path d="M20.73,14c-1.803,0-3.269,1.467-3.269,3.27c0,0.148,0.011,0.297,0.034,0.45l-3.35,3.35C14.053,21.163,14,21.29,14,21.423
			V23.5c0,0.276,0.224,0.5,0.5,0.5h2.077c0.133,0,0.26-0.053,0.354-0.146l3.35-3.35C22.296,20.817,24,19.221,24,17.27
			C24,15.467,22.533,14,20.73,14z M21.5,17c-0.276,0-0.5-0.224-0.5-0.5c0-0.276,0.224-0.5,0.5-0.5s0.5,0.224,0.5,0.5
			C22,16.776,21.776,17,21.5,17z"/>
	</g>
</g>
<g id="Sleeping_3">
</g>
</svg>
