<?xml version="1.0" encoding="iso-8859-1"?>
<!-- Generator: Adobe Illustrator 19.2.1, SVG Export Plug-In . SVG Version: 6.00 Build 0)  -->
<svg version="1.1" xmlns="http://www.w3.org/2000/svg" xmlns:xlink="http://www.w3.org/1999/xlink" x="0px" y="0px"
	 viewBox="0 0 24 24" style="enable-background:new 0 0 24 24;" xml:space="preserve">
<g id="Add_User">
</g>
<g id="Remove_User">
</g>
<g id="Delete_User">
</g>
<g id="Done">
</g>
<g id="At_Symbol">
</g>
<g id="Question">
</g>
<g id="Answer">
</g>
<g id="Bring_Up">
</g>
<g id="Bring_Down">
</g>
<g id="Dismiss_User">
</g>
<g id="User_Speed">
</g>
<g id="User_Settings">
</g>
<g id="User_Refresh">
</g>
<g id="User_Time">
</g>
<g id="Dollar">
</g>
<g id="Euro">
</g>
<g id="Pound">
</g>
<g id="Bitcoin">
</g>
<g id="Global_User">
</g>
<g id="Waiting_User">
</g>
<g id="Writing_User_2">
</g>
<g id="Search_User">
</g>
<g id="Lock_User">
</g>
<g id="Mark_User">
</g>
<g id="Share_User">
</g>
<g id="Shopping">
</g>
<g id="User_Download">
</g>
<g id="User_Upload">
</g>
<g id="User_Statistics">
</g>
<g id="User_Defense">
	<g>
		<path d="M23.5,14h-8c-0.276,0-0.5,0.224-0.5,0.5v6c0,1.547,3.297,3.041,4.308,3.461C19.369,23.987,19.435,24,19.5,24
			s0.131-0.013,0.192-0.039C20.703,23.541,24,22.047,24,20.5v-6C24,14.224,23.776,14,23.5,14z M23,20.5
			c0,0.567-1.806,1.722-3.5,2.457c-1.694-0.735-3.5-1.89-3.5-2.457V15h7V20.5z"/>
		<path d="M17.5,19H19v2.304c0,0.172,0.089,0.333,0.235,0.424c0.081,0.05,0.173,0.076,0.265,0.076c0.075,0,0.15-0.017,0.22-0.051
			c0.912-0.446,1.723-0.943,2.115-1.296C21.94,20.361,22,20.227,22,20.085V18.5c0-0.276-0.224-0.5-0.5-0.5H20v-1.5
			c0-0.276-0.224-0.5-0.5-0.5h-2c-0.276,0-0.5,0.224-0.5,0.5v2C17,18.776,17.224,19,17.5,19z"/>
		<path d="M14,20.5v-6c0-0.827,0.673-1.5,1.5-1.5h0.272c0.229,0,0.429-0.155,0.484-0.377c0.023-0.091,0.044-0.18,0.063-0.268
			c0.095-0.075,0.161-0.185,0.182-0.312c0.005-0.033,0.01-0.065,0.015-0.097c0.571-0.158,1.013-0.647,1.089-1.26l0.25-2
			c0.053-0.422-0.077-0.849-0.357-1.169c-0.164-0.188-0.371-0.33-0.6-0.417l0.092-1.883l0.374-0.374
			c0.563-0.6,1.03-1.626,0.054-3.117C16.669,0.581,15.395,0,13.631,0c-0.695,0-2.298,0-3.791,1.002C5.579,1.091,5,3.07,5,5
			c0,0.449,0.109,1.46,0.181,2.07C4.924,7.151,4.69,7.301,4.509,7.507C4.225,7.829,4.092,8.259,4.145,8.686l0.25,2
			c0.081,0.652,0.577,1.165,1.202,1.287c0.208,1.375,0.873,2.724,1.839,3.722l-0.348,1.393l-3.83,0.958
			C1.065,18.593,0,20.377,0,23.5c0,0.133,0.053,0.26,0.146,0.354S0.367,24,0.5,24l14.873-0.001c0.215,0,0.405-0.137,0.474-0.34
			s0-0.427-0.17-0.558C14.564,22.251,14,21.376,14,20.5z"/>
	</g>
</g>
<g id="User_Car">
</g>
<g id="User_Home">
</g>
<g id="Park">
</g>
<g id="Recicle_User">
</g>
<g id="Wifi">
</g>
<g id="Attach_User">
</g>
<g id="Disabled_User">
</g>
<g id="User_Card">
</g>
<g id="Gaming">
</g>
<g id="User_Cloud">
</g>
<g id="User_Database">
</g>
<g id="Copyright">
</g>
<g id="No_Copyright">
</g>
<g id="Creative_Commun">
</g>
<g id="Eco-Friendly">
</g>
<g id="Percentage">
</g>
<g id="User_Love">
</g>
<g id="User_Place">
</g>
<g id="User_Key">
</g>
<g id="Sleeping">
</g>
<g id="Add_User_2">
</g>
<g id="Remove_User_2">
</g>
<g id="Delete_User_2">
</g>
<g id="Done_2">
</g>
<g id="At_Symbol_2">
</g>
<g id="Question_2">
</g>
<g id="Answer_2">
</g>
<g id="Bring_Up_2">
</g>
<g id="Bring_Down_2">
</g>
<g id="Dismiss_User_2">
</g>
<g id="User_Speed_2">
</g>
<g id="User_Settings_2">
</g>
<g id="Refresh_2">
</g>
<g id="Time_2">
</g>
<g id="Dollar_2">
</g>
<g id="Euro_2">
</g>
<g id="Pound_2">
</g>
<g id="Bitcoin_2">
</g>
<g id="Global_User_2">
</g>
<g id="Waiting_User_2">
</g>
<g id="Writing_User">
</g>
<g id="Search_User_2">
</g>
<g id="Lock_User_2">
</g>
<g id="Mark_User_2">
</g>
<g id="Share_User_2">
</g>
<g id="Shopping_2">
</g>
<g id="Download_2">
</g>
<g id="Upload_2">
</g>
<g id="User_Statistics_2">
</g>
<g id="User_Defense_2">
</g>
<g id="Car_2">
</g>
<g id="Home_2">
</g>
<g id="Park_2">
</g>
<g id="Recicle_User_2">
</g>
<g id="User_Wifi">
</g>
<g id="Attach_2">
</g>
<g id="Disabled_User_2">
</g>
<g id="User_Card_2">
</g>
<g id="Gaming_2">
</g>
<g id="Cloud_2">
</g>
<g id="Database_2">
</g>
<g id="Copyright_2">
</g>
<g id="No_Copyright_2">
</g>
<g id="Creative_Commun_2">
</g>
<g id="Eco-Friendly_2">
</g>
<g id="Percentage_2">
</g>
<g id="User_Love_2">
</g>
<g id="User_Rate_2">
</g>
<g id="User_Key_2">
</g>
<g id="Sleeping_2">
</g>
</svg>
