<?xml version="1.0" encoding="iso-8859-1"?>
<!-- Generator: Adobe Illustrator 19.2.1, SVG Export Plug-In . SVG Version: 6.00 Build 0)  -->
<svg version="1.1" xmlns="http://www.w3.org/2000/svg" xmlns:xlink="http://www.w3.org/1999/xlink" x="0px" y="0px"
	 viewBox="0 0 24 24" style="enable-background:new 0 0 24 24;" xml:space="preserve">
<g id="Add_Users">
</g>
<g id="Remove_Users">
</g>
<g id="Delete_Users">
</g>
<g id="Done_3">
</g>
<g id="At_Symbol_3">
</g>
<g id="Question_3">
</g>
<g id="Answer_3">
</g>
<g id="Bring_Up_3">
</g>
<g id="Bring_Down_3">
</g>
<g id="Dismiss_Users">
</g>
<g id="Users_Speed_3">
</g>
<g id="Users_Settings">
	<g>
		<path d="M23.689,16.793c-0.045-0.132-0.142-0.239-0.269-0.296c-0.126-0.058-0.271-0.058-0.4-0.004
			c-0.231,0.099-0.503,0.014-0.624-0.194c-0.124-0.214-0.063-0.481,0.144-0.638c0.111-0.084,0.183-0.21,0.197-0.349
			s-0.03-0.276-0.122-0.381c-0.815-0.928-1.866-1.542-3.039-1.774c-0.138-0.028-0.281,0.006-0.394,0.088
			c-0.113,0.084-0.186,0.211-0.201,0.352c-0.026,0.258-0.234,0.452-0.482,0.452s-0.456-0.194-0.482-0.452
			c-0.015-0.141-0.087-0.268-0.201-0.352c-0.112-0.082-0.256-0.116-0.394-0.088c-1.172,0.232-2.223,0.847-3.039,1.774
			c-0.092,0.104-0.136,0.242-0.122,0.381s0.085,0.265,0.196,0.349c0.207,0.156,0.268,0.424,0.145,0.638
			c-0.12,0.208-0.395,0.292-0.624,0.194c-0.129-0.055-0.273-0.054-0.4,0.004c-0.127,0.057-0.224,0.164-0.269,0.296
			C13.102,17.409,13,17.984,13,18.549s0.102,1.14,0.311,1.756c0.045,0.132,0.142,0.239,0.269,0.296
			c0.126,0.057,0.271,0.058,0.4,0.004c0.23-0.1,0.503-0.014,0.624,0.194c0.124,0.214,0.063,0.481-0.145,0.638
			c-0.111,0.084-0.182,0.21-0.196,0.349s0.03,0.276,0.122,0.381c0.815,0.928,1.866,1.542,3.039,1.774
			c0.138,0.029,0.282-0.005,0.394-0.088c0.113-0.084,0.186-0.211,0.201-0.352c0.026-0.258,0.234-0.452,0.482-0.452
			s0.456,0.194,0.482,0.452c0.015,0.141,0.087,0.268,0.201,0.352c0.086,0.063,0.191,0.098,0.297,0.098
			c0.032,0,0.065-0.003,0.097-0.01c1.172-0.232,2.223-0.847,3.039-1.774c0.092-0.104,0.136-0.242,0.122-0.381
			s-0.085-0.265-0.197-0.349c-0.207-0.156-0.268-0.424-0.144-0.638c0.12-0.209,0.391-0.294,0.624-0.194
			c0.128,0.053,0.273,0.053,0.4-0.004c0.127-0.057,0.224-0.164,0.269-0.296C23.898,19.689,24,19.114,24,18.549
			S23.898,17.409,23.689,16.793z M20,18.549c0,0.827-0.673,1.5-1.5,1.5s-1.5-0.673-1.5-1.5s0.673-1.5,1.5-1.5S20,17.722,20,18.549z"
			/>
		<path d="M15.004,8.219c-0.071,0.569-0.355,1.085-0.802,1.452c-0.079,0.064-0.136,0.151-0.163,0.25
			c-0.143,0.504-0.35,0.993-0.614,1.451c-0.078,0.136-0.088,0.301-0.027,0.445c0.062,0.145,0.187,0.252,0.339,0.29l1.262,0.315
			c0.151,0.037,0.294,0.093,0.438,0.146l0.12,0.045c0.056,0.021,0.115,0.031,0.173,0.031c0.068,0,0.137-0.014,0.2-0.042
			c0.485-0.212,0.897-0.348,1.294-0.426l-0.069-0.494c0,0,0,0,0,0l0.19,0.484c0.107-0.012,0.207-0.058,0.286-0.131
			c0.817-0.759,1.386-1.832,1.567-2.929c0.431-0.153,0.756-0.539,0.815-1.014l0.185-1.479c0.043-0.349-0.064-0.701-0.295-0.967
			c-0.114-0.13-0.253-0.233-0.407-0.306l0.062-1.251l0.243-0.244c0.449-0.477,0.823-1.291,0.055-2.464
			c-0.58-0.886-1.558-1.335-2.909-1.335c-0.496,0-1.156,0.03-1.865,0.271c-0.142,0.048-0.255,0.157-0.308,0.298
			c-0.053,0.14-0.04,0.297,0.035,0.427c0.684,1.179,0.633,2.392-0.138,3.327c-0.154,0.188-0.152,0.458,0.005,0.642
			c0.405,0.478,0.593,1.106,0.515,1.726L15.004,8.219z"/>
		<path d="M13.259,15.242c0.005-0.357,0.138-0.703,0.375-0.972c0.052-0.059,0.109-0.11,0.166-0.163l0.145-0.137
			c0.127-0.127,0.176-0.313,0.128-0.486c-0.048-0.174-0.186-0.309-0.36-0.353L12,12.702l-0.205-0.816
			c0.73-0.746,1.234-1.747,1.402-2.777c0.43-0.154,0.755-0.539,0.814-1.014l0.185-1.479c0.043-0.349-0.064-0.701-0.295-0.967
			c-0.114-0.13-0.253-0.233-0.407-0.306l0.062-1.251l0.243-0.244c0.449-0.477,0.823-1.291,0.055-2.464
			c-0.58-0.886-1.558-1.335-2.909-1.335c-0.521,0-1.716,0-2.842,0.742C4.856,0.872,4.435,2.478,4.435,3.875
			c0,0.317,0.07,0.984,0.123,1.442C4.385,5.39,4.229,5.499,4.104,5.642C3.869,5.908,3.759,6.263,3.803,6.616l0.185,1.478
			c0.063,0.508,0.43,0.913,0.903,1.042c0.167,0.988,0.645,1.953,1.33,2.683l-0.221,0.884l-2.755,0.688
			C1.334,13.868,0,15.577,0,17.547c0,0.276,0.224,0.5,0.5,0.5l11.087,0.001c0.246,0,0.456-0.179,0.494-0.422
			c0.064-0.407,0.157-0.785,0.283-1.155c0.114-0.337,0.346-0.624,0.651-0.806C13.165,15.576,13.257,15.416,13.259,15.242z"/>
	</g>
</g>
<g id="Refresh_Users">
</g>
<g id="Time_3">
</g>
<g id="Dollar_3">
</g>
<g id="Euro_3">
</g>
<g id="Pound_3">
</g>
<g id="Bitcoin_3">
</g>
<g id="Global_Users">
</g>
<g id="Waiting_Users">
</g>
<g id="Writing_Users">
</g>
<g id="Search_Users">
</g>
<g id="Lock_Users">
</g>
<g id="Mark_Users">
</g>
<g id="Share_Users">
</g>
<g id="Shopping_3">
</g>
<g id="Download_3">
</g>
<g id="Upload_3">
</g>
<g id="Users_Statistics">
</g>
<g id="Users_Defense">
</g>
<g id="Car_3">
</g>
<g id="Home_3">
</g>
<g id="Park_3">
</g>
<g id="Recicle_Users">
</g>
<g id="Wifi_3">
</g>
<g id="Attach_3">
</g>
<g id="Disabled_Users">
</g>
<g id="Users_Card">
</g>
<g id="Gaming_3">
</g>
<g id="Cloud_3">
</g>
<g id="Database_3">
</g>
<g id="Copyright_3">
</g>
<g id="No_Copzright_3">
</g>
<g id="Creative_Commun_3">
</g>
<g id="Eco-Friendly_3">
</g>
<g id="Percentage_3">
</g>
<g id="Users_Love">
</g>
<g id="Users_Place">
</g>
<g id="Users_Key">
</g>
<g id="Sleeping_3">
</g>
</svg>
