<?xml version="1.0" encoding="iso-8859-1"?>
<!-- Generator: Adobe Illustrator 19.2.1, SVG Export Plug-In . SVG Version: 6.00 Build 0)  -->
<svg version="1.1" xmlns="http://www.w3.org/2000/svg" xmlns:xlink="http://www.w3.org/1999/xlink" x="0px" y="0px"
	 viewBox="0 0 24 24" style="enable-background:new 0 0 24 24;" xml:space="preserve">
<g id="Add_User">
</g>
<g id="Remove_User">
</g>
<g id="Delete_User">
</g>
<g id="Done">
</g>
<g id="At_Symbol">
</g>
<g id="Question">
</g>
<g id="Answer">
</g>
<g id="Bring_Up">
</g>
<g id="Bring_Down">
</g>
<g id="Dismiss_User">
</g>
<g id="User_Speed">
</g>
<g id="User_Settings">
</g>
<g id="User_Refresh">
</g>
<g id="User_Time">
</g>
<g id="Dollar">
</g>
<g id="Euro">
</g>
<g id="Pound">
</g>
<g id="Bitcoin">
</g>
<g id="Global_User">
</g>
<g id="Waiting_User">
</g>
<g id="Writing_User_2">
</g>
<g id="Search_User">
</g>
<g id="Lock_User">
</g>
<g id="Mark_User">
</g>
<g id="Share_User">
</g>
<g id="Shopping">
</g>
<g id="User_Download">
</g>
<g id="User_Upload">
</g>
<g id="User_Statistics">
</g>
<g id="User_Defense">
</g>
<g id="User_Car">
</g>
<g id="User_Home">
</g>
<g id="Park">
</g>
<g id="Recicle_User">
</g>
<g id="Wifi">
</g>
<g id="Attach_User">
</g>
<g id="Disabled_User">
</g>
<g id="User_Card">
</g>
<g id="Gaming">
</g>
<g id="User_Cloud">
	<g>
		<path d="M20.495,17c-0.092,0-0.182,0.005-0.271,0.013C19.392,15.763,17.993,15,16.495,15c-2.328,0-4.249,1.777-4.478,4.046
			c-1.15,0.223-2.022,1.239-2.022,2.454c0,1.378,1.121,2.5,2.5,2.5h8c1.93,0,3.5-1.57,3.5-3.5S22.425,17,20.495,17z"/>
		<path d="M8.995,21.5c0-1.332,0.741-2.531,1.935-3.13c0.127-0.063,0.221-0.178,0.258-0.315c0.549-2.012,2.23-3.563,4.285-3.952
			c0.158-0.03,0.293-0.134,0.36-0.28c0.221-0.476,0.388-0.973,0.495-1.47c0.093-0.076,0.158-0.184,0.179-0.31
			c0.005-0.033,0.01-0.065,0.015-0.097c0.571-0.158,1.013-0.647,1.089-1.26l0.25-2c0.053-0.422-0.077-0.849-0.357-1.169
			c-0.164-0.188-0.371-0.33-0.6-0.417l0.092-1.883l0.374-0.374c0.563-0.6,1.03-1.626,0.054-3.117C16.674,0.581,15.399,0,13.636,0
			c-0.695,0-2.298,0-3.791,1.002C5.584,1.091,5.005,3.07,5.005,5c0,0.449,0.109,1.46,0.181,2.07
			c-0.257,0.081-0.49,0.231-0.672,0.437C4.229,7.829,4.097,8.259,4.149,8.686l0.25,2c0.081,0.652,0.577,1.165,1.202,1.287
			c0.208,1.375,0.873,2.724,1.839,3.722l-0.348,1.393l-3.83,0.958C1.07,18.593,0.005,20.377,0.005,23.5
			c0,0.133,0.053,0.26,0.146,0.354C0.245,23.947,0.372,24,0.505,24l8.546-0.001c0.179,0,0.345-0.096,0.434-0.251
			c0.089-0.155,0.089-0.346-0.002-0.5C9.159,22.691,8.995,22.104,8.995,21.5z"/>
	</g>
</g>
<g id="User_Database">
</g>
<g id="Copyright">
</g>
<g id="No_Copyright">
</g>
<g id="Creative_Commun">
</g>
<g id="Eco-Friendly">
</g>
<g id="Percentage">
</g>
<g id="User_Love">
</g>
<g id="User_Place">
</g>
<g id="User_Key">
</g>
<g id="Sleeping">
</g>
<g id="Add_User_2">
</g>
<g id="Remove_User_2">
</g>
<g id="Delete_User_2">
</g>
<g id="Done_2">
</g>
<g id="At_Symbol_2">
</g>
<g id="Question_2">
</g>
<g id="Answer_2">
</g>
<g id="Bring_Up_2">
</g>
<g id="Bring_Down_2">
</g>
<g id="Dismiss_User_2">
</g>
<g id="User_Speed_2">
</g>
<g id="User_Settings_2">
</g>
<g id="Refresh_2">
</g>
<g id="Time_2">
</g>
<g id="Dollar_2">
</g>
<g id="Euro_2">
</g>
<g id="Pound_2">
</g>
<g id="Bitcoin_2">
</g>
<g id="Global_User_2">
</g>
<g id="Waiting_User_2">
</g>
<g id="Writing_User">
</g>
<g id="Search_User_2">
</g>
<g id="Lock_User_2">
</g>
<g id="Mark_User_2">
</g>
<g id="Share_User_2">
</g>
<g id="Shopping_2">
</g>
<g id="Download_2">
</g>
<g id="Upload_2">
</g>
<g id="User_Statistics_2">
</g>
<g id="User_Defense_2">
</g>
<g id="Car_2">
</g>
<g id="Home_2">
</g>
<g id="Park_2">
</g>
<g id="Recicle_User_2">
</g>
<g id="User_Wifi">
</g>
<g id="Attach_2">
</g>
<g id="Disabled_User_2">
</g>
<g id="User_Card_2">
</g>
<g id="Gaming_2">
</g>
<g id="Cloud_2">
</g>
<g id="Database_2">
</g>
<g id="Copyright_2">
</g>
<g id="No_Copyright_2">
</g>
<g id="Creative_Commun_2">
</g>
<g id="Eco-Friendly_2">
</g>
<g id="Percentage_2">
</g>
<g id="User_Love_2">
</g>
<g id="User_Rate_2">
</g>
<g id="User_Key_2">
</g>
<g id="Sleeping_2">
</g>
</svg>
