<?xml version="1.0" encoding="iso-8859-1"?>
<!-- Generator: Adobe Illustrator 19.2.1, SVG Export Plug-In . SVG Version: 6.00 Build 0)  -->
<svg version="1.1" xmlns="http://www.w3.org/2000/svg" xmlns:xlink="http://www.w3.org/1999/xlink" x="0px" y="0px"
	 viewBox="0 0 24 24" style="enable-background:new 0 0 24 24;" xml:space="preserve">
<g id="Add_Users">
</g>
<g id="Remove_Users">
</g>
<g id="Delete_Users">
</g>
<g id="Done_3">
</g>
<g id="At_Symbol_3">
</g>
<g id="Question_3">
</g>
<g id="Answer_3">
</g>
<g id="Bring_Up_3">
</g>
<g id="Bring_Down_3">
</g>
<g id="Dismiss_Users">
</g>
<g id="Users_Speed_3">
</g>
<g id="Users_Settings">
</g>
<g id="Refresh_Users">
</g>
<g id="Time_3">
</g>
<g id="Dollar_3">
</g>
<g id="Euro_3">
</g>
<g id="Pound_3">
</g>
<g id="Bitcoin_3">
</g>
<g id="Global_Users">
</g>
<g id="Waiting_Users">
</g>
<g id="Writing_Users">
</g>
<g id="Search_Users">
</g>
<g id="Lock_Users">
</g>
<g id="Mark_Users">
</g>
<g id="Share_Users">
</g>
<g id="Shopping_3">
</g>
<g id="Download_3">
</g>
<g id="Upload_3">
</g>
<g id="Users_Statistics">
</g>
<g id="Users_Defense">
</g>
<g id="Car_3">
</g>
<g id="Home_3">
</g>
<g id="Park_3">
</g>
<g id="Recicle_Users">
</g>
<g id="Wifi_3">
	<g>
		<path d="M17.361,20.732c-0.195,0.195-0.195,0.512,0,0.707s0.512,0.195,0.707,0c0.566-0.566,1.555-0.566,2.121,0
			c0.098,0.098,0.226,0.146,0.354,0.146s0.256-0.049,0.354-0.146c0.195-0.195,0.195-0.512,0-0.707
			C19.953,19.787,18.304,19.787,17.361,20.732z"/>
		<path d="M15.947,19.318c-0.195,0.195-0.195,0.512,0,0.707s0.512,0.195,0.707,0c1.365-1.365,3.585-1.365,4.95,0
			c0.098,0.098,0.226,0.146,0.354,0.146s0.256-0.049,0.354-0.146c0.195-0.195,0.195-0.512,0-0.707
			C20.556,17.564,17.701,17.564,15.947,19.318z"/>
		<path d="M23.725,17.904C22.497,16.677,20.865,16,19.129,16s-3.369,0.677-4.596,1.904c-0.195,0.195-0.195,0.512,0,0.707
			s0.512,0.195,0.707,0C16.279,17.572,17.659,17,19.129,17s2.85,0.572,3.889,1.611c0.098,0.098,0.226,0.146,0.354,0.146
			s0.256-0.049,0.354-0.146C23.92,18.416,23.92,18.1,23.725,17.904z"/>
		<circle cx="19.129" cy="23" r="1"/>
		<path d="M15.133,8.17c-0.07,0.569-0.355,1.085-0.801,1.452c-0.079,0.064-0.136,0.152-0.164,0.25
			c-0.142,0.503-0.348,0.991-0.614,1.451c-0.078,0.136-0.088,0.301-0.027,0.445c0.062,0.145,0.187,0.252,0.339,0.29l1.261,0.315
			c1.353,0.338,2.5,1.19,3.229,2.401c0.094,0.156,0.263,0.247,0.45,0.241l0.137-0.008C19.005,15.004,19.067,15,19.129,15
			c1.293,0,2.571,0.339,3.697,0.979c0.077,0.044,0.163,0.065,0.247,0.065c0.003,0,0.007,0,0.01,0c0.289,0.011,0.51-0.221,0.51-0.5
			c0-0.145-0.062-0.274-0.159-0.366c-0.596-0.922-1.497-1.571-2.55-1.834l-2.755-0.69l-0.205-0.816
			c0.73-0.746,1.234-1.747,1.402-2.777c0.43-0.154,0.755-0.539,0.814-1.014l0.185-1.479c0.043-0.349-0.064-0.701-0.295-0.967
			c-0.114-0.13-0.253-0.233-0.407-0.306l0.062-1.251l0.243-0.244c0.449-0.477,0.823-1.291,0.055-2.464
			C19.402,0.449,18.424,0,17.073,0c-0.496,0-1.156,0.03-1.865,0.271c-0.142,0.048-0.255,0.157-0.308,0.298
			c-0.053,0.14-0.04,0.297,0.035,0.427c0.684,1.18,0.633,2.393-0.138,3.327c-0.154,0.187-0.152,0.457,0.004,0.642
			c0.404,0.478,0.592,1.106,0.515,1.727L15.133,8.17z"/>
		<path d="M17.077,15.038c0.042-0.165-0.004-0.34-0.121-0.465c-0.572-0.608-1.289-1.033-2.073-1.229l-2.755-0.69l-0.205-0.816
			c0.73-0.746,1.234-1.747,1.402-2.777c0.43-0.154,0.755-0.539,0.814-1.014l0.185-1.479c0.043-0.349-0.064-0.701-0.295-0.967
			c-0.114-0.13-0.253-0.233-0.407-0.306l0.062-1.251l0.243-0.244c0.449-0.477,0.823-1.291,0.055-2.464
			C13.402,0.449,12.424,0,11.073,0c-0.521,0-1.716,0-2.842,0.742C4.985,0.823,4.563,2.429,4.563,3.826
			c0,0.317,0.07,0.984,0.123,1.442C4.514,5.341,4.358,5.45,4.233,5.593C3.997,5.859,3.888,6.214,3.932,6.567l0.185,1.478
			C4.18,8.553,4.547,8.958,5.02,9.087c0.167,0.988,0.645,1.953,1.33,2.683L6.13,12.653l-2.755,0.688
			c-1.911,0.478-3.246,2.187-3.246,4.156c0,0.276,0.224,0.5,0.5,0.5L13.035,18c0.203,0,0.386-0.123,0.463-0.312
			c0.076-0.185,0.186-0.35,0.327-0.491c0.828-0.827,1.812-1.436,2.926-1.807C16.912,15.336,17.035,15.204,17.077,15.038z"/>
	</g>
</g>
<g id="Attach_3">
</g>
<g id="Disabled_Users">
</g>
<g id="Users_Card">
</g>
<g id="Gaming_3">
</g>
<g id="Cloud_3">
</g>
<g id="Database_3">
</g>
<g id="Copyright_3">
</g>
<g id="No_Copzright_3">
</g>
<g id="Creative_Commun_3">
</g>
<g id="Eco-Friendly_3">
</g>
<g id="Percentage_3">
</g>
<g id="Users_Love">
</g>
<g id="Users_Place">
</g>
<g id="Users_Key">
</g>
<g id="Sleeping_3">
</g>
</svg>
