<?xml version="1.0" encoding="iso-8859-1"?>
<!-- Generator: Adobe Illustrator 19.2.1, SVG Export Plug-In . SVG Version: 6.00 Build 0)  -->
<svg version="1.1" xmlns="http://www.w3.org/2000/svg" xmlns:xlink="http://www.w3.org/1999/xlink" x="0px" y="0px"
	 viewBox="0 0 24 24" style="enable-background:new 0 0 24 24;" xml:space="preserve">
<g id="Restaurant_sign_1">
</g>
<g id="Restaurant_Sign_2">
</g>
<g id="Restaurant_Sign_3">
</g>
<g id="Hot_Drink_1">
</g>
<g id="Hot_Drink_2">
</g>
<g id="Cocktail">
</g>
<g id="Shot_Glasses">
</g>
<g id="Chilled_Champagne">
</g>
<g id="Wine">
</g>
<g id="Wine_List">
</g>
<g id="Menu">
</g>
<g id="Menu_2">
</g>
<g id="Salver">
</g>
<g id="Soup">
</g>
<g id="Sushi">
</g>
<g id="Pizza">
</g>
<g id="Pizza_Slice">
</g>
<g id="Fish">
</g>
<g id="Sausage">
</g>
<g id="Course">
</g>
<g id="Dessert">
</g>
<g id="Cutlery">
</g>
<g id="Napkin">
</g>
<g id="Table">
</g>
<g id="Spices">
</g>
<g id="Hot_Sauce">
</g>
<g id="Reserved_1">
</g>
<g id="Reserved_2">
</g>
<g id="Open">
</g>
<g id="Food_Photo">
</g>
<g id="Chef">
</g>
<g id="Bill">
</g>
<g id="Bill_2">
	<g>
		<path d="M14.677,4.116C14.24,4.48,14,4.972,14,5.5c0,0.529,0.24,1.021,0.677,1.384C14.771,6.962,14.884,7,14.997,7
			c0.143,0,0.285-0.062,0.384-0.18c0.177-0.212,0.148-0.527-0.063-0.704C15.112,5.945,15,5.727,15,5.5
			c0-0.221,0.107-0.436,0.304-0.604c0.005-0.004,0.011-0.008,0.016-0.012c0.437-0.364,0.677-0.855,0.677-1.384
			c0-0.529-0.24-1.021-0.677-1.384c-0.211-0.174-0.526-0.148-0.704,0.064c-0.177,0.212-0.148,0.527,0.063,0.704
			c0.205,0.17,0.317,0.389,0.317,0.616c0,0.221-0.107,0.436-0.304,0.604C14.688,4.108,14.682,4.112,14.677,4.116z"/>
		<path d="M10.996,5.5c0,0.529,0.24,1.021,0.677,1.384C11.767,6.962,11.88,7,11.993,7c0.144,0,0.286-0.062,0.385-0.18
			c0.177-0.212,0.148-0.527-0.064-0.704c-0.205-0.17-0.317-0.389-0.317-0.615s0.113-0.446,0.318-0.617
			c0.437-0.364,0.677-0.855,0.677-1.384c0-0.529-0.24-1.021-0.677-1.384c-0.212-0.176-0.527-0.147-0.704,0.064
			s-0.148,0.527,0.064,0.704c0.205,0.17,0.317,0.389,0.317,0.615s-0.113,0.446-0.318,0.617C11.236,4.48,10.996,4.972,10.996,5.5z"/>
		<path d="M8,5.5c0,0.529,0.241,1.021,0.677,1.384C8.771,6.962,8.884,7,8.997,7C9.14,7,9.282,6.939,9.381,6.82
			c0.177-0.212,0.148-0.528-0.064-0.705C9.113,5.946,9,5.727,9,5.5s0.113-0.446,0.318-0.617C9.755,4.52,9.996,4.028,9.996,3.5
			c0-0.529-0.24-1.021-0.677-1.384C9.106,1.939,8.791,1.968,8.614,2.18S8.466,2.708,8.679,2.884C8.883,3.055,8.996,3.273,8.996,3.5
			S8.882,3.945,8.677,4.116C8.241,4.48,8,4.972,8,5.5z"/>
		<path d="M23.176,15.756c0.667-0.789,0.948-1.835,0.772-2.868c-0.237-1.387-1.323-2.516-2.703-2.809
			C20.47,9.915,19.688,10.012,19,10.345V9.5C19,8.673,18.327,8,17.5,8h-12C4.673,8,4,8.673,4,9.5V16c0,1.126,0.436,2.186,1.179,3
			H0.5c-0.173,0-0.334,0.09-0.425,0.237s-0.1,0.331-0.022,0.486l0.171,0.342C0.82,21.259,2.02,22,3.354,22H19.5
			c1.334,0,2.533-0.741,3.131-1.935l0.171-0.342c0.077-0.155,0.069-0.339-0.021-0.486C22.688,19.09,22.527,19,22.354,19h-4.523
			c0.599-0.659,0.996-1.48,1.124-2.367C20.354,17.335,22.162,16.959,23.176,15.756z M20.5,12c0.828,0,1.5,0.672,1.5,1.5
			S21.328,15,20.5,15S19,14.328,19,13.5S19.672,12,20.5,12z"/>
	</g>
</g>
<g id="Paying_1">
</g>
<g id="Paying_2">
</g>
<g id="Restaurant_Place">
</g>
</svg>
