<?xml version="1.0" encoding="iso-8859-1"?>
<!-- Generator: Adobe Illustrator 19.2.1, SVG Export Plug-In . SVG Version: 6.00 Build 0)  -->
<svg version="1.1" xmlns="http://www.w3.org/2000/svg" xmlns:xlink="http://www.w3.org/1999/xlink" x="0px" y="0px"
	 viewBox="0 0 24 24" style="enable-background:new 0 0 24 24;" xml:space="preserve">
<g id="Restaurant_sign_1">
</g>
<g id="Restaurant_Sign_2">
</g>
<g id="Restaurant_Sign_3">
</g>
<g id="Hot_Drink_1">
</g>
<g id="Hot_Drink_2">
</g>
<g id="Cocktail">
</g>
<g id="Shot_Glasses">
</g>
<g id="Chilled_Champagne">
</g>
<g id="Wine">
</g>
<g id="Wine_List">
</g>
<g id="Menu">
</g>
<g id="Menu_2">
</g>
<g id="Salver">
</g>
<g id="Soup">
</g>
<g id="Sushi">
</g>
<g id="Pizza">
</g>
<g id="Pizza_Slice">
</g>
<g id="Fish">
</g>
<g id="Sausage">
</g>
<g id="Course">
</g>
<g id="Dessert">
</g>
<g id="Cutlery">
</g>
<g id="Napkin">
</g>
<g id="Table">
</g>
<g id="Spices">
</g>
<g id="Hot_Sauce">
</g>
<g id="Reserved_1">
</g>
<g id="Reserved_2">
</g>
<g id="Open">
</g>
<g id="Food_Photo">
</g>
<g id="Chef">
</g>
<g id="Bill">
	<g>
		<path d="M13.677,2.116C13.24,2.48,13,2.972,13,3.5c0,0.529,0.24,1.021,0.677,1.384C13.771,4.962,13.884,5,13.997,5
			c0.143,0,0.285-0.062,0.384-0.18c0.177-0.212,0.148-0.527-0.063-0.704C14.112,3.945,14,3.727,14,3.5
			c0-0.221,0.107-0.436,0.304-0.604c0.005-0.004,0.011-0.008,0.016-0.012c0.437-0.364,0.677-0.855,0.677-1.384
			c0-0.529-0.24-1.021-0.677-1.384c-0.212-0.175-0.526-0.148-0.704,0.064c-0.177,0.212-0.148,0.527,0.063,0.704
			c0.205,0.17,0.317,0.389,0.317,0.616c0,0.221-0.107,0.436-0.304,0.604C13.687,2.108,13.682,2.112,13.677,2.116z"/>
		<path d="M9.996,3.5c0,0.529,0.24,1.021,0.677,1.384C10.767,4.962,10.88,5,10.993,5c0.144,0,0.286-0.062,0.385-0.18
			c0.177-0.212,0.148-0.527-0.064-0.704c-0.205-0.17-0.317-0.389-0.317-0.615s0.113-0.446,0.318-0.617
			c0.437-0.364,0.677-0.855,0.677-1.384c0-0.529-0.24-1.021-0.677-1.384c-0.212-0.176-0.526-0.147-0.704,0.064
			c-0.177,0.212-0.148,0.527,0.064,0.704c0.205,0.17,0.317,0.389,0.317,0.615s-0.113,0.446-0.318,0.617
			C10.236,2.48,9.996,2.972,9.996,3.5z"/>
		<path d="M7,3.5c0,0.529,0.241,1.021,0.677,1.384C7.771,4.962,7.884,5,7.997,5C8.14,5,8.282,4.939,8.381,4.82
			c0.177-0.212,0.148-0.528-0.064-0.705C8.113,3.946,8,3.727,8,3.5s0.113-0.446,0.318-0.617C8.755,2.52,8.996,2.028,8.996,1.5
			c0-0.529-0.24-1.021-0.677-1.384C8.106-0.061,7.791-0.032,7.614,0.18C7.437,0.392,7.466,0.708,7.679,0.884
			C7.883,1.055,7.996,1.273,7.996,1.5S7.882,1.945,7.677,2.116C7.241,2.48,7,2.972,7,3.5z"/>
		<path d="M22,11.526c0-0.93-0.303-1.622-0.899-2.054c-0.883-0.64-2.19-0.517-3.177-0.281l0.005-0.088
			c0.051-0.8,0.068-1.086,0.073-1.708c0.003-0.376-0.14-0.729-0.402-0.993C17.342,6.143,16.999,6,16.636,6H5.365
			C5.001,6,4.659,6.143,4.401,6.403C4.138,6.667,3.995,7.021,3.998,7.396C4.021,10.417,4.331,17.422,6.561,21H2.5
			c-0.189,0-0.362,0.107-0.447,0.276C1.968,21.445,1.986,21.648,2.1,21.8L3,23.001C3.47,23.626,4.218,24,5,24h12
			c0.783,0,1.53-0.374,2-1l0.9-1.2c0.113-0.151,0.132-0.354,0.047-0.523C19.862,21.107,19.689,21,19.5,21h-4.06
			c0.567-0.938,1.049-2.203,1.436-3.779C18.6,16.549,22,14.806,22,11.526z M17.497,11.415l0.066-0.024
			c0.626-0.25,1.465-0.421,1.964-0.391C19.792,11.014,20,11.233,20,11.499c0,1.593-1.523,2.717-2.822,3.393
			C17.307,13.683,17.423,12.336,17.497,11.415z"/>
	</g>
</g>
<g id="Bill_2">
</g>
<g id="Paying_1">
</g>
<g id="Paying_2">
</g>
<g id="Restaurant_Place">
</g>
</svg>
