<?xml version="1.0" encoding="iso-8859-1"?>
<!-- Generator: Adobe Illustrator 19.2.1, SVG Export Plug-In . SVG Version: 6.00 Build 0)  -->
<svg version="1.1" xmlns="http://www.w3.org/2000/svg" xmlns:xlink="http://www.w3.org/1999/xlink" x="0px" y="0px"
	 viewBox="0 0 24 24" style="enable-background:new 0 0 24 24;" xml:space="preserve">
<g id="Restaurant_sign_1">
</g>
<g id="Restaurant_Sign_2">
</g>
<g id="Restaurant_Sign_3">
</g>
<g id="Hot_Drink_1">
</g>
<g id="Hot_Drink_2">
</g>
<g id="Cocktail">
</g>
<g id="Shot_Glasses">
</g>
<g id="Chilled_Champagne">
</g>
<g id="Wine">
</g>
<g id="Wine_List">
</g>
<g id="Menu">
</g>
<g id="Menu_2">
</g>
<g id="Salver">
</g>
<g id="Soup">
</g>
<g id="Sushi">
</g>
<g id="Pizza">
</g>
<g id="Pizza_Slice">
</g>
<g id="Fish">
</g>
<g id="Sausage">
</g>
<g id="Course">
</g>
<g id="Dessert">
</g>
<g id="Cutlery">
</g>
<g id="Napkin">
</g>
<g id="Table">
</g>
<g id="Spices">
</g>
<g id="Hot_Sauce">
</g>
<g id="Reserved_1">
</g>
<g id="Reserved_2">
</g>
<g id="Open">
</g>
<g id="Food_Photo">
</g>
<g id="Chef">
	<path d="M16.413,8.116c0.074-0.061,0.136-0.125,0.187-0.195l5.168-5.37c0.053-0.055,0.088-0.12,0.11-0.189
		C21.953,2.249,22,2.13,22,2c0-1.856-8.037-2-10.5-2C9.037,0,1,0.144,1,2c0,0.133,0.052,0.256,0.13,0.372
		c0.023,0.065,0.058,0.126,0.109,0.179l5.156,5.361c0.06,0.083,0.132,0.162,0.224,0.233L11,12.701v7.46l-4.686,1.874
		C6.125,22.111,6,22.296,6,22.5c0,1.392,4.21,1.5,5.5,1.5s5.5-0.108,5.5-1.5c0-0.204-0.124-0.389-0.314-0.464L12,20.162v-7.46
		L16.413,8.116z M11.5,6c-0.978,0-3.707,0.071-4.792,0.796L3.439,3.397C6.013,3.937,9.911,4,11.5,4c1.59,0,5.494-0.063,8.068-0.605
		l-3.274,3.402C15.21,6.071,12.478,6,11.5,6z M15.529,7.5C14.962,7.722,13.577,8,11.5,8S8.038,7.722,7.471,7.5
		C8.038,7.278,9.423,7,11.5,7S14.962,7.278,15.529,7.5z M11.5,1c5.012,0,8.461,0.552,9.349,1c-0.888,0.448-4.337,1-9.349,1
		S3.04,2.448,2.152,2C3.04,1.552,6.488,1,11.5,1z"/>
</g>
<g id="Bill">
</g>
<g id="Bill_2">
</g>
<g id="Paying_1">
</g>
<g id="Paying_2">
</g>
<g id="Restaurant_Place">
</g>
</svg>
