<?xml version="1.0" encoding="iso-8859-1"?>
<!-- Generator: Adobe Illustrator 19.2.1, SVG Export Plug-In . SVG Version: 6.00 Build 0)  -->
<svg version="1.1" xmlns="http://www.w3.org/2000/svg" xmlns:xlink="http://www.w3.org/1999/xlink" x="0px" y="0px"
	 viewBox="0 0 24 24" style="enable-background:new 0 0 24 24;" xml:space="preserve">
<g id="Restaurant_sign_1">
</g>
<g id="Restaurant_Sign_2">
</g>
<g id="Restaurant_Sign_3">
</g>
<g id="Hot_Drink_1">
</g>
<g id="Hot_Drink_2">
</g>
<g id="Cocktail">
</g>
<g id="Shot_Glasses">
</g>
<g id="Chilled_Champagne">
	<g>
		<path d="M5.5,7C5.224,7,5,7.224,5,7.5v2C5,9.776,5.224,10,5.5,10S6,9.776,6,9.5v-2C6,7.224,5.776,7,5.5,7z"/>
		<path d="M9,7v1h0.5C9.776,8,10,7.776,10,7.5S9.776,7,9.5,7H9z"/>
		<path d="M19.5,3h-0.897l-6.906-2.959c-0.125-0.054-0.269-0.054-0.394,0L4.398,3H3.5C1.57,3,0,4.57,0,6.5v14
			C0,22.43,1.57,24,3.5,24h16c1.93,0,3.5-1.57,3.5-3.5v-14C23,4.57,21.43,3,19.5,3z M11.5,1.044L16.064,3H6.936L11.5,1.044z M14,8
			c0.276,0,0.5,0.224,0.5,0.5S14.276,9,14,9h-1v1h1.5c0.276,0,0.5,0.224,0.5,0.5S14.776,11,14.5,11h-2c-0.276,0-0.5-0.224-0.5-0.5
			v-4C12,6.224,12.224,6,12.5,6h2C14.776,6,15,6.224,15,6.5S14.776,7,14.5,7H13v1H14z M11,7.5C11,8.327,10.327,9,9.5,9H9v1.5
			C9,10.776,8.776,11,8.5,11S8,10.776,8,10.5v-4C8,6.224,8.224,6,8.5,6h1C10.327,6,11,6.673,11,7.5z M7,9.5
			C7,10.327,6.327,11,5.5,11S4,10.327,4,9.5v-2C4,6.673,4.673,6,5.5,6S7,6.673,7,7.5V9.5z M14.854,20.146
			c0.195,0.195,0.195,0.512,0,0.707C14.756,20.951,14.628,21,14.5,21s-0.256-0.049-0.354-0.146L11.5,18.207l-2.646,2.646
			C8.756,20.951,8.628,21,8.5,21s-0.256-0.049-0.354-0.146c-0.195-0.195-0.195-0.512,0-0.707l2.646-2.646l-1.04-1.04
			c-0.209,0.097-0.441,0.154-0.682,0.154c-0.422,0-0.825-0.16-1.104-0.439c-0.358-0.358-1.455-2.165-0.708-2.914
			c0.751-0.749,2.557,0.349,2.915,0.707h0c0.464,0.464,0.546,1.198,0.278,1.778l1.047,1.047l3.646-3.646
			c0.154-0.154,0.392-0.192,0.586-0.089c0.193,0.102,0.299,0.317,0.26,0.532c-0.037,0.203-0.385,2.01-1.139,2.764
			c-0.382,0.383-1.142,0.316-1.698,0.198L12.207,17.5L14.854,20.146z M19,10.5c0,0.232-0.159,0.434-0.385,0.487
			C18.576,10.996,18.538,11,18.5,11c-0.187,0-0.361-0.104-0.447-0.276L17,8.618V10.5c0,0.276-0.224,0.5-0.5,0.5S16,10.776,16,10.5
			v-4c0-0.232,0.159-0.434,0.385-0.487c0.229-0.052,0.459,0.056,0.563,0.263L18,8.382V6.5C18,6.224,18.224,6,18.5,6S19,6.224,19,6.5
			V10.5z"/>
	</g>
</g>
<g id="Wine">
</g>
<g id="Wine_List">
</g>
<g id="Menu">
</g>
<g id="Menu_2">
</g>
<g id="Salver">
</g>
<g id="Soup">
</g>
<g id="Sushi">
</g>
<g id="Pizza">
</g>
<g id="Pizza_Slice">
</g>
<g id="Fish">
</g>
<g id="Sausage">
</g>
<g id="Course">
</g>
<g id="Dessert">
</g>
<g id="Cutlery">
</g>
<g id="Napkin">
</g>
<g id="Table">
</g>
<g id="Spices">
</g>
<g id="Hot_Sauce">
</g>
<g id="Reserved_1">
</g>
<g id="Reserved_2">
</g>
<g id="Open">
</g>
<g id="Food_Photo">
</g>
<g id="Chef">
</g>
<g id="Bill">
</g>
<g id="Bill_2">
</g>
<g id="Paying_1">
</g>
<g id="Paying_2">
</g>
<g id="Restaurant_Place">
</g>
</svg>
