<?xml version="1.0" encoding="iso-8859-1"?>
<!-- Generator: Adobe Illustrator 19.2.1, SVG Export Plug-In . SVG Version: 6.00 Build 0)  -->
<svg version="1.1" xmlns="http://www.w3.org/2000/svg" xmlns:xlink="http://www.w3.org/1999/xlink" x="0px" y="0px"
	 viewBox="0 0 24 24" style="enable-background:new 0 0 24 24;" xml:space="preserve">
<g id="Restaurant_sign_1">
</g>
<g id="Restaurant_Sign_2">
</g>
<g id="Restaurant_Sign_3">
</g>
<g id="Hot_Drink_1">
</g>
<g id="Hot_Drink_2">
</g>
<g id="Cocktail">
	<g>
		<path d="M15.379,15.515C15.359,15.52,13.416,16,11.5,16c-1.853,0-3.862-0.481-3.882-0.486c-0.149-0.033-0.306-0.001-0.427,0.094
			S7,15.847,7,16v7.5C7,23.776,7.224,24,7.5,24h8c0.276,0,0.5-0.224,0.5-0.5V16c0-0.154-0.071-0.3-0.192-0.395
			S15.528,15.477,15.379,15.515z M9.5,23C9.224,23,9,22.776,9,22.5C9,22.224,9.224,22,9.5,22s0.5,0.224,0.5,0.5
			C10,22.776,9.776,23,9.5,23z M9.5,21C9.224,21,9,20.776,9,20.5C9,20.224,9.224,20,9.5,20s0.5,0.224,0.5,0.5
			C10,20.776,9.776,21,9.5,21z M9.5,19C9.224,19,9,18.776,9,18.5C9,18.224,9.224,18,9.5,18s0.5,0.224,0.5,0.5
			C10,18.776,9.776,19,9.5,19z M13.5,23c-0.276,0-0.5-0.224-0.5-0.5c0-0.276,0.224-0.5,0.5-0.5s0.5,0.224,0.5,0.5
			C14,22.776,13.776,23,13.5,23z M13.5,21c-0.276,0-0.5-0.224-0.5-0.5c0-0.276,0.224-0.5,0.5-0.5s0.5,0.224,0.5,0.5
			C14,20.776,13.776,21,13.5,21z M13.5,19c-0.276,0-0.5-0.224-0.5-0.5c0-0.276,0.224-0.5,0.5-0.5s0.5,0.224,0.5,0.5
			C14,18.776,13.776,19,13.5,19z"/>
		<path d="M14,13.359v-0.643c0-0.056-0.015-0.108-0.032-0.158C14.569,11.837,15,10.928,15,10c0-0.976-0.368-1.84-1.004-2.477
			C13.996,7.515,14,7.508,14,7.5V4.949c1.14-0.232,2-1.242,2-2.449C16,1.122,14.879,0,13.5,0c-0.817,0-1.543,0.394-2,1.001
			C11.043,0.394,10.317,0,9.5,0C8.122,0,7,1.122,7,2.5c0,1.207,0.86,2.217,2,2.449V7.5c0,0.008,0.004,0.015,0.004,0.023
			C8.368,8.16,8,9.024,8,10c0,0.928,0.431,1.837,1.032,2.559C9.015,12.609,9,12.661,9,12.717v0.64c-1.913,0.385-4,1.055-4,2.144v8
			C5,23.776,5.224,24,5.5,24S6,23.776,6,23.5l-0.006-7.964c0.124-0.28,1.442-0.879,3.596-1.274C9.828,14.218,10,14.011,10,13.77
			v-0.325C10.498,13.783,11.023,14,11.5,14s1.002-0.217,1.5-0.556v0.325c0,0.239,0.17,0.445,0.405,0.491
			c2.29,0.441,3.484,1.011,3.595,1.239v8c0,0.276,0.224,0.5,0.5,0.5s0.5-0.224,0.5-0.5v-8C18,15.172,18,14.193,14,13.359z M11.5,13
			C10.582,13,9,11.518,9,10c0-0.81,0.328-1.483,0.904-1.942c0.398,0.047,0.99,0.101,1.596,0.101c0.6,0,1.196-0.055,1.596-0.101
			C13.672,8.516,14,9.191,14,10C14,11.518,12.418,13,11.5,13z"/>
		<path d="M12.5,11c-0.196,0-0.502-0.212-0.646-0.354C11.76,10.553,11.632,10.5,11.5,10.5c-0.147-0.023-0.264,0.054-0.358,0.151
			C11.023,10.772,10.713,11,10.5,11c-0.276,0-0.5,0.224-0.5,0.5s0.224,0.5,0.5,0.5c0.394,0,0.751-0.183,1.002-0.356
			C11.754,11.816,12.113,12,12.5,12c0.276,0,0.5-0.224,0.5-0.5S12.776,11,12.5,11z"/>
	</g>
</g>
<g id="Shot_Glasses">
</g>
<g id="Chilled_Champagne">
</g>
<g id="Wine">
</g>
<g id="Wine_List">
</g>
<g id="Menu">
</g>
<g id="Menu_2">
</g>
<g id="Salver">
</g>
<g id="Soup">
</g>
<g id="Sushi">
</g>
<g id="Pizza">
</g>
<g id="Pizza_Slice">
</g>
<g id="Fish">
</g>
<g id="Sausage">
</g>
<g id="Course">
</g>
<g id="Dessert">
</g>
<g id="Cutlery">
</g>
<g id="Napkin">
</g>
<g id="Table">
</g>
<g id="Spices">
</g>
<g id="Hot_Sauce">
</g>
<g id="Reserved_1">
</g>
<g id="Reserved_2">
</g>
<g id="Open">
</g>
<g id="Food_Photo">
</g>
<g id="Chef">
</g>
<g id="Bill">
</g>
<g id="Bill_2">
</g>
<g id="Paying_1">
</g>
<g id="Paying_2">
</g>
<g id="Restaurant_Place">
</g>
</svg>
