<?xml version="1.0" encoding="iso-8859-1"?>
<!-- Generator: Adobe Illustrator 19.2.1, SVG Export Plug-In . SVG Version: 6.00 Build 0)  -->
<svg version="1.1" xmlns="http://www.w3.org/2000/svg" xmlns:xlink="http://www.w3.org/1999/xlink" x="0px" y="0px"
	 viewBox="0 0 24 24" style="enable-background:new 0 0 24 24;" xml:space="preserve">
<g id="Restaurant_sign_1">
</g>
<g id="Restaurant_Sign_2">
</g>
<g id="Restaurant_Sign_3">
</g>
<g id="Hot_Drink_1">
</g>
<g id="Hot_Drink_2">
</g>
<g id="Cocktail">
</g>
<g id="Shot_Glasses">
</g>
<g id="Chilled_Champagne">
</g>
<g id="Wine">
</g>
<g id="Wine_List">
</g>
<g id="Menu">
</g>
<g id="Menu_2">
</g>
<g id="Salver">
</g>
<g id="Soup">
</g>
<g id="Sushi">
</g>
<g id="Pizza">
</g>
<g id="Pizza_Slice">
</g>
<g id="Fish">
	<path d="M23,1.508c0-0.572-0.173-0.99-0.515-1.242c-0.71-0.525-1.876-0.165-3.642,0.381c-1.859,0.574-4.406,1.361-7.344,1.361
		c-2.936,0-5.481-0.79-7.339-1.367C2.396,0.093,1.231-0.268,0.518,0.256C0.174,0.51,0,0.931,0,1.508c0,2.062,3.301,4.394,8,5.204
		V8.5v1c0,1.208,0.86,2.217,2,2.45V22.5c0,0.827,0.673,1.5,1.5,1.5s1.5-0.673,1.5-1.5V11.95c1.14-0.232,2-1.242,2-2.45v-1V6.711
		C19.699,5.901,23,3.569,23,1.508z M9,8V6.855c0.327,0.04,0.662,0.069,1,0.093V8H9z M11,8V6.994c0.167,0.004,0.331,0.014,0.5,0.014
		s0.333-0.01,0.5-0.014V8H11z M14,8h-1V6.948c0.338-0.024,0.673-0.054,1-0.093V8z"/>
</g>
<g id="Sausage">
</g>
<g id="Course">
</g>
<g id="Dessert">
</g>
<g id="Cutlery">
</g>
<g id="Napkin">
</g>
<g id="Table">
</g>
<g id="Spices">
</g>
<g id="Hot_Sauce">
</g>
<g id="Reserved_1">
</g>
<g id="Reserved_2">
</g>
<g id="Open">
</g>
<g id="Food_Photo">
</g>
<g id="Chef">
</g>
<g id="Bill">
</g>
<g id="Bill_2">
</g>
<g id="Paying_1">
</g>
<g id="Paying_2">
</g>
<g id="Restaurant_Place">
</g>
</svg>
