<?xml version="1.0" encoding="iso-8859-1"?>
<!-- Generator: Adobe Illustrator 19.2.1, SVG Export Plug-In . SVG Version: 6.00 Build 0)  -->
<svg version="1.1" xmlns="http://www.w3.org/2000/svg" xmlns:xlink="http://www.w3.org/1999/xlink" x="0px" y="0px"
	 viewBox="0 0 24 24" style="enable-background:new 0 0 24 24;" xml:space="preserve">
<g id="Restaurant_sign_1">
</g>
<g id="Restaurant_Sign_2">
</g>
<g id="Restaurant_Sign_3">
</g>
<g id="Hot_Drink_1">
	<path d="M16.654,0H6.5C5.122,0,4,1.122,4,2.5v7C4,9.776,4.224,10,4.5,10H6v13.5c0,0.185,0.102,0.354,0.264,0.44
		c0.162,0.088,0.36,0.077,0.513-0.024L8,23.101l1.223,0.815c0.168,0.111,0.387,0.111,0.555,0L11,23.101l1.223,0.815
		c0.168,0.111,0.387,0.111,0.555,0L14,23.101l1.223,0.815c0.168,0.111,0.387,0.111,0.555,0L17,23.101l1.223,0.815
		C18.307,23.972,18.403,24,18.5,24c0.081,0,0.162-0.02,0.236-0.06C18.898,23.854,19,23.685,19,23.5v-21C19,1.122,17.947,0,16.654,0z
		 M6,9H5V2.5c0-0.444,0.194-0.843,0.501-1.118C5.817,1.664,6,2.066,6,2.5V9z M16.5,20h-3c-0.276,0-0.5-0.224-0.5-0.5
		s0.224-0.5,0.5-0.5h3c0.276,0,0.5,0.224,0.5,0.5S16.776,20,16.5,20z M14,16c0-0.366,0.207-0.672,0.5-0.846V15
		c0-0.276,0.224-0.5,0.5-0.5s0.5,0.224,0.5,0.5c0.276,0,0.5,0.224,0.5,0.5S15.776,16,15.5,16v0.154C15.793,16.328,16,16.634,16,17
		s-0.207,0.672-0.5,0.846V18c0,0.276-0.224,0.5-0.5,0.5s-0.5-0.224-0.5-0.5c-0.276,0-0.5-0.224-0.5-0.5s0.224-0.5,0.5-0.5v-0.154
		C14.207,16.672,14,16.366,14,16z M16.5,12h-8C8.224,12,8,11.776,8,11.5S8.224,11,8.5,11h8c0.276,0,0.5,0.224,0.5,0.5
		S16.776,12,16.5,12z M16.5,9h-8C8.224,9,8,8.776,8,8.5S8.224,8,8.5,8h8C16.776,8,17,8.224,17,8.5S16.776,9,16.5,9z M16.5,6h-8
		C8.224,6,8,5.776,8,5.5S8.224,5,8.5,5h8C16.776,5,17,5.224,17,5.5S16.776,6,16.5,6z"/>
</g>
<g id="Hot_Drink_2">
</g>
<g id="Cocktail">
</g>
<g id="Shot_Glasses">
</g>
<g id="Chilled_Champagne">
</g>
<g id="Wine">
</g>
<g id="Wine_List">
</g>
<g id="Menu">
</g>
<g id="Menu_2">
</g>
<g id="Salver">
</g>
<g id="Soup">
</g>
<g id="Sushi">
</g>
<g id="Pizza">
</g>
<g id="Pizza_Slice">
</g>
<g id="Fish">
</g>
<g id="Sausage">
</g>
<g id="Course">
</g>
<g id="Dessert">
</g>
<g id="Cutlery">
</g>
<g id="Napkin">
</g>
<g id="Table">
</g>
<g id="Spices">
</g>
<g id="Hot_Sauce">
</g>
<g id="Reserved_1">
</g>
<g id="Reserved_2">
</g>
<g id="Open">
</g>
<g id="Food_Photo">
</g>
<g id="Chef">
</g>
<g id="Bill">
</g>
<g id="Bill_2">
</g>
<g id="Paying_1">
</g>
<g id="Paying_2">
</g>
<g id="Restaurant_Place">
</g>
</svg>
