<?xml version="1.0" encoding="iso-8859-1"?>
<!-- Generator: Adobe Illustrator 19.2.1, SVG Export Plug-In . SVG Version: 6.00 Build 0)  -->
<svg version="1.1" xmlns="http://www.w3.org/2000/svg" xmlns:xlink="http://www.w3.org/1999/xlink" x="0px" y="0px"
	 viewBox="0 0 24 24" style="enable-background:new 0 0 24 24;" xml:space="preserve">
<g id="Restaurant_sign_1">
</g>
<g id="Restaurant_Sign_2">
</g>
<g id="Restaurant_Sign_3">
</g>
<g id="Hot_Drink_1">
</g>
<g id="Hot_Drink_2">
	<g>
		<path d="M10,24h9.5c0.276,0,0.5-0.224,0.5-0.5v-9.229l-10,6.501V24z"/>
		<path d="M19.5,4H10v15.579l1-0.65V8.5C11,8.224,11.224,8,11.5,8h6C17.776,8,18,8.224,18,8.5v5.878l2-1.3V4.5
			C20,4.224,19.776,4,19.5,4z"/>
		<path d="M13.5,12h2c0.276,0,0.5-0.224,0.5-0.5S15.776,11,15.5,11h-2c-0.276,0-0.5,0.224-0.5,0.5S13.224,12,13.5,12z"/>
		<path d="M13.5,14h2c0.276,0,0.5-0.224,0.5-0.5S15.776,13,15.5,13h-2c-0.276,0-0.5,0.224-0.5,0.5S13.224,14,13.5,14z"/>
		<path d="M13.5,16H14c0.276,0,0.5-0.224,0.5-0.5S14.276,15,14,15h-0.5c-0.276,0-0.5,0.224-0.5,0.5S13.224,16,13.5,16z"/>
		<path d="M4.283,0.049C4.11,0.133,4,0.308,4,0.5v19c0,0.152,0.069,0.296,0.187,0.391L9,23.741V3.459l-4.188-3.35
			C4.662-0.011,4.455-0.034,4.283,0.049z"/>
	</g>
</g>
<g id="Cocktail">
</g>
<g id="Shot_Glasses">
</g>
<g id="Chilled_Champagne">
</g>
<g id="Wine">
</g>
<g id="Wine_List">
</g>
<g id="Menu">
</g>
<g id="Menu_2">
</g>
<g id="Salver">
</g>
<g id="Soup">
</g>
<g id="Sushi">
</g>
<g id="Pizza">
</g>
<g id="Pizza_Slice">
</g>
<g id="Fish">
</g>
<g id="Sausage">
</g>
<g id="Course">
</g>
<g id="Dessert">
</g>
<g id="Cutlery">
</g>
<g id="Napkin">
</g>
<g id="Table">
</g>
<g id="Spices">
</g>
<g id="Hot_Sauce">
</g>
<g id="Reserved_1">
</g>
<g id="Reserved_2">
</g>
<g id="Open">
</g>
<g id="Food_Photo">
</g>
<g id="Chef">
</g>
<g id="Bill">
</g>
<g id="Bill_2">
</g>
<g id="Paying_1">
</g>
<g id="Paying_2">
</g>
<g id="Restaurant_Place">
</g>
</svg>
