<?xml version="1.0" encoding="iso-8859-1"?>
<!-- Generator: Adobe Illustrator 19.2.1, SVG Export Plug-In . SVG Version: 6.00 Build 0)  -->
<svg version="1.1" xmlns="http://www.w3.org/2000/svg" xmlns:xlink="http://www.w3.org/1999/xlink" x="0px" y="0px"
	 viewBox="0 0 24 24" style="enable-background:new 0 0 24 24;" xml:space="preserve">
<g id="Restaurant_sign_1">
</g>
<g id="Restaurant_Sign_2">
</g>
<g id="Restaurant_Sign_3">
</g>
<g id="Hot_Drink_1">
</g>
<g id="Hot_Drink_2">
</g>
<g id="Cocktail">
</g>
<g id="Shot_Glasses">
</g>
<g id="Chilled_Champagne">
</g>
<g id="Wine">
</g>
<g id="Wine_List">
</g>
<g id="Menu">
</g>
<g id="Menu_2">
</g>
<g id="Salver">
</g>
<g id="Soup">
</g>
<g id="Sushi">
</g>
<g id="Pizza">
</g>
<g id="Pizza_Slice">
</g>
<g id="Fish">
</g>
<g id="Sausage">
</g>
<g id="Course">
</g>
<g id="Dessert">
</g>
<g id="Cutlery">
</g>
<g id="Napkin">
</g>
<g id="Table">
</g>
<g id="Spices">
</g>
<g id="Hot_Sauce">
	<path d="M19.5,0h-15C3.293,0,2.283,0.86,2.051,2H3.5C3.776,2,4,2.224,4,2.5S3.776,3,3.5,3H2H1.5C1.224,3,1,3.224,1,3.5
		S1.224,4,1.5,4H2v2h1.5C3.776,6,4,6.224,4,6.5S3.776,7,3.5,7H2H1.5C1.224,7,1,7.224,1,7.5S1.224,8,1.5,8H2v2h1.5
		C3.776,10,4,10.224,4,10.5S3.776,11,3.5,11H2H1.5C1.224,11,1,11.224,1,11.5S1.224,12,1.5,12H2v2h1.5C3.776,14,4,14.224,4,14.5
		S3.776,15,3.5,15H2H1.5C1.224,15,1,15.224,1,15.5S1.224,16,1.5,16H2v2h1.5C3.776,18,4,18.224,4,18.5S3.776,19,3.5,19H2H1.5
		C1.224,19,1,19.224,1,19.5S1.224,20,1.5,20H2v0.5C2,21.879,3.122,23,4.5,23h15c1.379,0,2.5-1.121,2.5-2.5v-18
		C22,1.122,20.879,0,19.5,0z M8,11.5C8,11.776,7.776,12,7.5,12S7,11.776,7,11.5V9.618L6.947,9.724c-0.17,0.339-0.725,0.339-0.895,0
		L6,9.618V11.5C6,11.776,5.776,12,5.5,12S5,11.776,5,11.5v-4c0-0.232,0.16-0.434,0.385-0.487C5.609,6.96,5.843,7.069,5.947,7.276
		L6.5,8.382l0.553-1.105C7.156,7.068,7.39,6.959,7.615,7.013C7.84,7.066,8,7.268,8,7.5V11.5z M11,9c0.276,0,0.5,0.224,0.5,0.5
		S11.276,10,11,10h-1v1h1.5c0.276,0,0.5,0.224,0.5,0.5S11.776,12,11.5,12h-2C9.224,12,9,11.776,9,11.5v-4C9,7.224,9.224,7,9.5,7h2
		C11.776,7,12,7.224,12,7.5S11.776,8,11.5,8H10v1H11z M16,11.5c0,0.232-0.16,0.434-0.385,0.487C15.577,11.996,15.538,12,15.5,12
		c-0.186,0-0.361-0.104-0.447-0.276L14,9.618V11.5c0,0.276-0.224,0.5-0.5,0.5S13,11.776,13,11.5v-4c0-0.232,0.16-0.434,0.385-0.487
		c0.224-0.053,0.458,0.056,0.562,0.263L15,9.382V7.5C15,7.224,15.224,7,15.5,7S16,7.224,16,7.5V11.5z M20,10.5
		c0,0.827-0.673,1.5-1.5,1.5S17,11.327,17,10.5v-3C17,7.224,17.224,7,17.5,7S18,7.224,18,7.5v3c0,0.276,0.225,0.5,0.5,0.5
		s0.5-0.224,0.5-0.5v-3C19,7.224,19.224,7,19.5,7S20,7.224,20,7.5V10.5z"/>
</g>
<g id="Reserved_1">
</g>
<g id="Reserved_2">
</g>
<g id="Open">
</g>
<g id="Food_Photo">
</g>
<g id="Chef">
</g>
<g id="Bill">
</g>
<g id="Bill_2">
</g>
<g id="Paying_1">
</g>
<g id="Paying_2">
</g>
<g id="Restaurant_Place">
</g>
</svg>
