<?xml version="1.0" encoding="iso-8859-1"?>
<!-- Generator: Adobe Illustrator 19.2.1, SVG Export Plug-In . SVG Version: 6.00 Build 0)  -->
<svg version="1.1" xmlns="http://www.w3.org/2000/svg" xmlns:xlink="http://www.w3.org/1999/xlink" x="0px" y="0px"
	 viewBox="0 0 24 24" style="enable-background:new 0 0 24 24;" xml:space="preserve">
<g id="Restaurant_sign_1">
</g>
<g id="Restaurant_Sign_2">
</g>
<g id="Restaurant_Sign_3">
</g>
<g id="Hot_Drink_1">
</g>
<g id="Hot_Drink_2">
</g>
<g id="Cocktail">
</g>
<g id="Shot_Glasses">
</g>
<g id="Chilled_Champagne">
</g>
<g id="Wine">
</g>
<g id="Wine_List">
</g>
<g id="Menu">
</g>
<g id="Menu_2">
	<g>
		<path d="M22.5,23H22v-2.419c0-2.253-0.678-4.448-1.269-6.11l-0.188-0.528C20.183,12.927,20,11.859,20,10.767V10.5
			C20,9.673,19.377,9,18.611,9h-2.223C15.623,9,15,9.673,15,10.5v0.267c0,1.092-0.183,2.161-0.543,3.175l-0.188,0.53
			C13.678,16.133,13,18.328,13,20.581V23h-1V4.949c1.14-0.232,2-1.242,2-2.449C14,1.122,12.878,0,11.5,0S9,1.122,9,2.5
			c0,1.207,0.86,2.217,2,2.449V23h-1v-2.419c0-2.253-0.678-4.448-1.268-6.11l-0.188-0.528C8.183,12.927,8,11.859,8,10.767V10.5
			C8,9.673,7.377,9,6.611,9H4.389C3.623,9,3,9.673,3,10.5v0.267c0,1.092-0.183,2.161-0.543,3.175l-0.188,0.53
			C1.678,16.133,1,18.328,1,20.581V23H0.5C0.224,23,0,23.224,0,23.5S0.224,24,0.5,24h1h8h4h8h1c0.276,0,0.5-0.224,0.5-0.5
			S22.776,23,22.5,23z M5.613,18.013C6.459,18.164,7,18.735,7,19.5C7,20.327,6.327,21,5.5,21S4,20.327,4,19.5
			C4,19.224,4.224,19,4.5,19S5,19.224,5,19.5C5,19.775,5.224,20,5.5,20S6,19.775,6,19.5c0-0.267-0.198-0.438-0.588-0.508
			C4.505,18.781,4,18.239,4,17.5C4,16.673,4.673,16,5.5,16S7,16.673,7,17.5C7,17.776,6.776,18,6.5,18S6,17.776,6,17.5
			C6,17.225,5.776,17,5.5,17S5,17.225,5,17.5C5,17.602,5,17.87,5.613,18.013z M17.5,19H17v1.5c0,0.276-0.224,0.5-0.5,0.5
			S16,20.776,16,20.5v-4c0-0.276,0.224-0.5,0.5-0.5h1c0.827,0,1.5,0.673,1.5,1.5S18.327,19,17.5,19z"/>
		<path d="M17.5,17H17v1h0.5c0.275,0,0.5-0.225,0.5-0.5S17.775,17,17.5,17z"/>
	</g>
</g>
<g id="Salver">
</g>
<g id="Soup">
</g>
<g id="Sushi">
</g>
<g id="Pizza">
</g>
<g id="Pizza_Slice">
</g>
<g id="Fish">
</g>
<g id="Sausage">
</g>
<g id="Course">
</g>
<g id="Dessert">
</g>
<g id="Cutlery">
</g>
<g id="Napkin">
</g>
<g id="Table">
</g>
<g id="Spices">
</g>
<g id="Hot_Sauce">
</g>
<g id="Reserved_1">
</g>
<g id="Reserved_2">
</g>
<g id="Open">
</g>
<g id="Food_Photo">
</g>
<g id="Chef">
</g>
<g id="Bill">
</g>
<g id="Bill_2">
</g>
<g id="Paying_1">
</g>
<g id="Paying_2">
</g>
<g id="Restaurant_Place">
</g>
</svg>
