<?xml version="1.0" encoding="iso-8859-1"?>
<!-- Generator: Adobe Illustrator 19.2.1, SVG Export Plug-In . SVG Version: 6.00 Build 0)  -->
<svg version="1.1" xmlns="http://www.w3.org/2000/svg" xmlns:xlink="http://www.w3.org/1999/xlink" x="0px" y="0px"
	 viewBox="0 0 24 24" style="enable-background:new 0 0 24 24;" xml:space="preserve">
<g id="Restaurant_sign_1">
</g>
<g id="Restaurant_Sign_2">
</g>
<g id="Restaurant_Sign_3">
</g>
<g id="Hot_Drink_1">
</g>
<g id="Hot_Drink_2">
</g>
<g id="Cocktail">
</g>
<g id="Shot_Glasses">
	<g>
		<path d="M22.5,0h-21C1.224,0,1,0.224,1,0.5v23C1,23.776,1.224,24,1.5,24h21c0.276,0,0.5-0.224,0.5-0.5v-23
			C23,0.224,22.776,0,22.5,0z M21,17.5c0,0.276-0.224,0.5-0.5,0.5h-17C3.224,18,3,17.776,3,17.5v-15C3,2.224,3.224,2,3.5,2h17
			C20.776,2,21,2.224,21,2.5V17.5z"/>
		<path d="M10.15,5.02C10.02,4.98,9.88,5,9.76,5.06S9.55,5.24,9.52,5.37l-2.5,9c-0.05,0.17,0,0.36,0.13,0.48
			C7.24,14.95,7.37,15,7.5,15c0.04,0,0.09-0.01,0.13-0.02l9-2.5c0.13-0.03,0.25-0.12,0.31-0.24s0.08-0.26,0.04-0.39
			C15.95,8.6,13.4,6.05,10.15,5.02z M9.5,12H8.71l0.28-1H9.5c0.28,0,0.5,0.22,0.5,0.5C10,11.78,9.78,12,9.5,12z M12,11.5
			c-0.827,0-1.5-0.673-1.5-1.5s0.673-1.5,1.5-1.5s1.5,0.673,1.5,1.5S12.827,11.5,12,11.5z"/>
	</g>
</g>
<g id="Chilled_Champagne">
</g>
<g id="Wine">
</g>
<g id="Wine_List">
</g>
<g id="Menu">
</g>
<g id="Menu_2">
</g>
<g id="Salver">
</g>
<g id="Soup">
</g>
<g id="Sushi">
</g>
<g id="Pizza">
</g>
<g id="Pizza_Slice">
</g>
<g id="Fish">
</g>
<g id="Sausage">
</g>
<g id="Course">
</g>
<g id="Dessert">
</g>
<g id="Cutlery">
</g>
<g id="Napkin">
</g>
<g id="Table">
</g>
<g id="Spices">
</g>
<g id="Hot_Sauce">
</g>
<g id="Reserved_1">
</g>
<g id="Reserved_2">
</g>
<g id="Open">
</g>
<g id="Food_Photo">
</g>
<g id="Chef">
</g>
<g id="Bill">
</g>
<g id="Bill_2">
</g>
<g id="Paying_1">
</g>
<g id="Paying_2">
</g>
<g id="Restaurant_Place">
</g>
</svg>
