<?xml version="1.0" encoding="iso-8859-1"?>
<!-- Generator: Adobe Illustrator 19.2.1, SVG Export Plug-In . SVG Version: 6.00 Build 0)  -->
<svg version="1.1" xmlns="http://www.w3.org/2000/svg" xmlns:xlink="http://www.w3.org/1999/xlink" x="0px" y="0px"
	 viewBox="0 0 24 24" style="enable-background:new 0 0 24 24;" xml:space="preserve">
<g id="Restaurant_sign_1">
</g>
<g id="Restaurant_Sign_2">
</g>
<g id="Restaurant_Sign_3">
</g>
<g id="Hot_Drink_1">
</g>
<g id="Hot_Drink_2">
</g>
<g id="Cocktail">
</g>
<g id="Shot_Glasses">
</g>
<g id="Chilled_Champagne">
</g>
<g id="Wine">
</g>
<g id="Wine_List">
</g>
<g id="Menu">
</g>
<g id="Menu_2">
</g>
<g id="Salver">
</g>
<g id="Soup">
</g>
<g id="Sushi">
</g>
<g id="Pizza">
</g>
<g id="Pizza_Slice">
</g>
<g id="Fish">
</g>
<g id="Sausage">
</g>
<g id="Course">
</g>
<g id="Dessert">
</g>
<g id="Cutlery">
</g>
<g id="Napkin">
</g>
<g id="Table">
</g>
<g id="Spices">
	<g>
		<path d="M11,3.383c-0.565-0.256-1.22-0.38-1.549-0.38c-0.002,0-0.004,0-0.006,0l-9,1C0.191,4.031,0,4.245,0,4.5v15
			c0,0.143,0.061,0.277,0.167,0.373c0.106,0.095,0.25,0.139,0.389,0.124L9.5,19c0.456,0,1.389,0.348,1.5,0.5V3.383z M8.193,16.461
			C8.13,16.487,8.064,16.5,8,16.5c-0.195,0-0.381-0.115-0.461-0.307l-2.184-5.216C5.279,10.987,5.202,11,5.126,11
			c-0.258,0-0.509-0.056-0.74-0.168c-0.465-0.225-0.838-0.669-1.081-1.284c-0.517-1.309-0.377-3.05,0.648-3.456
			c1.031-0.407,2.319,0.771,2.836,2.08c0.243,0.615,0.273,1.194,0.087,1.676c-0.117,0.304-0.326,0.559-0.594,0.757l2.178,5.201
			C8.568,16.062,8.448,16.354,8.193,16.461z"/>
		<path d="M22.556,4.003L13.5,3c-0.297,0-0.94,0.122-1.5,0.378v16.167c0.164-0.216,1.055-0.545,1.444-0.548l9,1
			c0.143,0.018,0.283-0.029,0.389-0.124C22.939,19.777,23,19.643,23,19.5v-15C23,4.245,22.809,4.031,22.556,4.003z M19.582,6.814
			c0.441,0.073,0.805,0.143,1.039,0.201c0.268,0.067,0.431,0.338,0.364,0.606C20.929,7.848,20.725,8,20.5,8
			c-0.04,0-0.08-0.005-0.121-0.015c-0.217-0.054-0.553-0.117-0.961-0.185c-0.272-0.045-0.456-0.302-0.411-0.575
			C19.052,6.952,19.307,6.764,19.582,6.814z M19.582,9.814c0.441,0.073,0.805,0.143,1.039,0.201
			c0.268,0.067,0.431,0.338,0.364,0.606C20.929,10.848,20.725,11,20.5,11c-0.04,0-0.08-0.005-0.121-0.015
			c-0.217-0.054-0.553-0.117-0.961-0.185c-0.272-0.045-0.456-0.302-0.411-0.575C19.052,9.952,19.307,9.765,19.582,9.814z
			 M13.559,6.003c0,0,2.072,0.244,4.008,0.511c0.273,0.038,0.465,0.29,0.427,0.563c-0.034,0.25-0.249,0.432-0.494,0.432
			c-0.023,0-0.046-0.001-0.069-0.005c-1.926-0.265-3.988-0.508-3.988-0.508L13.559,6.003z M13.559,9.003
			c0,0,2.072,0.244,4.008,0.511c0.273,0.038,0.465,0.29,0.427,0.563c-0.034,0.25-0.249,0.432-0.494,0.432
			c-0.023,0-0.046-0.001-0.069-0.005c-1.926-0.265-3.988-0.508-3.988-0.508L13.559,9.003z M17.501,16.51
			c-0.023,0-0.046-0.002-0.069-0.005c-1.926-0.266-3.988-0.508-3.99-0.508c-0.274-0.033-0.47-0.281-0.438-0.556
			c0.031-0.273,0.272-0.48,0.555-0.438c0,0,2.073,0.243,4.01,0.511c0.273,0.037,0.465,0.29,0.427,0.563
			C17.961,16.328,17.746,16.51,17.501,16.51z M17.501,13.51c-0.023,0-0.046-0.002-0.069-0.005c-1.926-0.266-3.988-0.508-3.99-0.508
			c-0.274-0.032-0.47-0.281-0.438-0.555c0.031-0.274,0.272-0.472,0.555-0.438c0,0,2.073,0.244,4.01,0.511
			c0.273,0.038,0.465,0.29,0.427,0.563C17.961,13.328,17.746,13.51,17.501,13.51z M20.985,16.622C20.928,16.849,20.725,17,20.5,17
			c-0.04,0-0.081-0.005-0.122-0.015c-0.217-0.055-0.553-0.117-0.962-0.186c-0.271-0.046-0.456-0.304-0.41-0.576
			s0.302-0.458,0.576-0.41c0.442,0.074,0.806,0.143,1.04,0.201C20.89,16.082,21.052,16.354,20.985,16.622z M20.985,13.622
			C20.928,13.849,20.725,14,20.5,14c-0.04,0-0.081-0.005-0.122-0.015c-0.217-0.055-0.553-0.117-0.961-0.186
			c-0.272-0.046-0.456-0.304-0.41-0.576c0.047-0.273,0.312-0.452,0.576-0.41c0.441,0.074,0.805,0.143,1.039,0.201
			C20.89,13.082,21.052,13.354,20.985,13.622z"/>
	</g>
</g>
<g id="Hot_Sauce">
</g>
<g id="Reserved_1">
</g>
<g id="Reserved_2">
</g>
<g id="Open">
</g>
<g id="Food_Photo">
</g>
<g id="Chef">
</g>
<g id="Bill">
</g>
<g id="Bill_2">
</g>
<g id="Paying_1">
</g>
<g id="Paying_2">
</g>
<g id="Restaurant_Place">
</g>
</svg>
