<?xml version="1.0" encoding="iso-8859-1"?>
<!-- Generator: Adobe Illustrator 19.2.1, SVG Export Plug-In . SVG Version: 6.00 Build 0)  -->
<svg version="1.1" xmlns="http://www.w3.org/2000/svg" xmlns:xlink="http://www.w3.org/1999/xlink" x="0px" y="0px"
	 viewBox="0 0 24 24" style="enable-background:new 0 0 24 24;" xml:space="preserve">
<g id="Armchair_1">
</g>
<g id="Armchair_2">
</g>
<g id="Armchair_3">
</g>
<g id="Armchair_4">
</g>
<g id="Sofa_1">
</g>
<g id="Sofa_2">
</g>
<g id="Sofa_3">
</g>
<g id="Sofa_4">
</g>
<g id="Sofa_5">
</g>
<g id="Sofa_6">
</g>
<g id="Desk_1">
</g>
<g id="Desk_2">
</g>
<g id="Desk_3">
</g>
<g id="Lamp">
</g>
<g id="Bed_1">
</g>
<g id="Bunk_Beds">
</g>
<g id="Bed_2">
	<g>
		<path d="M13.5,9h5C19.327,9,20,8.327,20,7.5v-1C20,5.673,19.327,5,18.5,5h-5C12.673,5,12,5.673,12,6.5v1C12,8.327,12.673,9,13.5,9
			z"/>
		<path d="M21.5,0h-11C9.673,0,9,0.673,9,1.5V2h14V1.5C23,0.673,22.327,0,21.5,0z"/>
		<polygon points="20,10 18.5,10 13.5,10 12,10 12,21 20,21 		"/>
		<path d="M9,22.5c0,0.827,0.673,1.5,1.5,1.5h11c0.827,0,1.5-0.673,1.5-1.5V3H9V22.5z M11,9.5C11,9.224,11.224,9,11.5,9h0.013
			C11.195,8.581,11,8.065,11,7.5v-1C11,5.122,12.121,4,13.5,4h5C19.879,4,21,5.122,21,6.5v1c0,0.565-0.195,1.081-0.513,1.5H20.5
			C20.776,9,21,9.224,21,9.5v12c0,0.276-0.224,0.5-0.5,0.5h-9c-0.276,0-0.5-0.224-0.5-0.5V9.5z"/>
		<path d="M4.5,3C3.673,3,3,3.673,3,4.5S3.673,6,4.5,6S6,5.327,6,4.5S5.327,3,4.5,3z M4.5,5C4.224,5,4,4.776,4,4.5
			C4,4.224,4.224,4,4.5,4S5,4.224,5,4.5C5,4.776,4.776,5,4.5,5z"/>
		<path d="M2.5,0C1.673,0,1,0.673,1,1.5v6C1,8.327,1.673,9,2.5,9H8V1.5c0-0.564,0.195-1.08,0.512-1.499C8.508,0.001,8.504,0,8.5,0
			H2.5z M4.5,7C3.121,7,2,5.878,2,4.5S3.121,2,4.5,2S7,3.122,7,4.5S5.879,7,4.5,7z"/>
	</g>
</g>
<g id="Bed_3">
</g>
<g id="Bed_4">
</g>
<g id="Bed_5">
</g>
<g id="Table_1">
</g>
<g id="Table_2">
</g>
<g id="Table_3">
</g>
<g id="Table_4">
</g>
<g id="Rug_1">
</g>
<g id="Rug_2">
</g>
<g id="Rug_3">
</g>
<g id="Tub_1">
</g>
<g id="Tub_2">
</g>
<g id="Jacuzzi">
</g>
<g id="Corner_Tub">
</g>
<g id="Shower_Tray">
</g>
<g id="Sink_1">
</g>
<g id="Sink_2">
</g>
<g id="Toilette">
</g>
<g id="Stove">
</g>
<g id="Kitchen_Sink">
</g>
<g id="Island">
</g>
<g id="Eat-in_Kitchen">
</g>
<g id="Tv_Stand">
</g>
</svg>
