<?xml version="1.0" encoding="iso-8859-1"?>
<!-- Generator: Adobe Illustrator 19.2.1, SVG Export Plug-In . SVG Version: 6.00 Build 0)  -->
<svg version="1.1" xmlns="http://www.w3.org/2000/svg" xmlns:xlink="http://www.w3.org/1999/xlink" x="0px" y="0px"
	 viewBox="0 0 24 24" style="enable-background:new 0 0 24 24;" xml:space="preserve">
<g id="Armchair_1">
</g>
<g id="Armchair_2">
</g>
<g id="Armchair_3">
</g>
<g id="Armchair_4">
</g>
<g id="Sofa_1">
</g>
<g id="Sofa_2">
</g>
<g id="Sofa_3">
</g>
<g id="Sofa_4">
</g>
<g id="Sofa_5">
</g>
<g id="Sofa_6">
</g>
<g id="Desk_1">
</g>
<g id="Desk_2">
</g>
<g id="Desk_3">
</g>
<g id="Lamp">
</g>
<g id="Bed_1">
</g>
<g id="Bunk_Beds">
</g>
<g id="Bed_2">
</g>
<g id="Bed_3">
	<g>
		<rect x="4" y="10" width="15" height="11"/>
		<path d="M9.5,3h-4C4.673,3,4,3.673,4,4.5v1C4,6.327,4.673,7,5.5,7h4C10.327,7,11,6.327,11,5.5v-1C11,3.673,10.327,3,9.5,3z"/>
		<path d="M21.5,0h-20C1.224,0,1,0.224,1,0.5v23C1,23.776,1.224,24,1.5,24h20c0.276,0,0.5-0.224,0.5-0.5v-23
			C22,0.224,21.776,0,21.5,0z M20,21.5c0,0.276-0.224,0.5-0.5,0.5h-16C3.224,22,3,21.776,3,21.5v-12C3,9.224,3.224,9,3.5,9h16
			C19.776,9,20,9.224,20,9.5V21.5z M20,5.5C20,6.878,18.879,8,17.5,8h-4c-0.821,0-1.544-0.403-2-1.015C11.044,7.597,10.321,8,9.5,8
			h-4C4.121,8,3,6.878,3,5.5v-1C3,3.122,4.121,2,5.5,2h4c0.821,0,1.544,0.403,2,1.015C11.956,2.403,12.679,2,13.5,2h4
			C18.879,2,20,3.122,20,4.5V5.5z"/>
		<path d="M17.5,3h-4C12.673,3,12,3.673,12,4.5v1C12,6.327,12.673,7,13.5,7h4C18.327,7,19,6.327,19,5.5v-1C19,3.673,18.327,3,17.5,3
			z"/>
	</g>
</g>
<g id="Bed_4">
</g>
<g id="Bed_5">
</g>
<g id="Table_1">
</g>
<g id="Table_2">
</g>
<g id="Table_3">
</g>
<g id="Table_4">
</g>
<g id="Rug_1">
</g>
<g id="Rug_2">
</g>
<g id="Rug_3">
</g>
<g id="Tub_1">
</g>
<g id="Tub_2">
</g>
<g id="Jacuzzi">
</g>
<g id="Corner_Tub">
</g>
<g id="Shower_Tray">
</g>
<g id="Sink_1">
</g>
<g id="Sink_2">
</g>
<g id="Toilette">
</g>
<g id="Stove">
</g>
<g id="Kitchen_Sink">
</g>
<g id="Island">
</g>
<g id="Eat-in_Kitchen">
</g>
<g id="Tv_Stand">
</g>
</svg>
