<?xml version="1.0" encoding="iso-8859-1"?>
<!-- Generator: Adobe Illustrator 19.2.1, SVG Export Plug-In . SVG Version: 6.00 Build 0)  -->
<svg version="1.1" xmlns="http://www.w3.org/2000/svg" xmlns:xlink="http://www.w3.org/1999/xlink" x="0px" y="0px"
	 viewBox="0 0 24 24" style="enable-background:new 0 0 24 24;" xml:space="preserve">
<g id="Armchair_1">
</g>
<g id="Armchair_2">
</g>
<g id="Armchair_3">
</g>
<g id="Armchair_4">
</g>
<g id="Sofa_1">
</g>
<g id="Sofa_2">
</g>
<g id="Sofa_3">
</g>
<g id="Sofa_4">
</g>
<g id="Sofa_5">
</g>
<g id="Sofa_6">
</g>
<g id="Desk_1">
</g>
<g id="Desk_2">
</g>
<g id="Desk_3">
</g>
<g id="Lamp">
</g>
<g id="Bed_1">
</g>
<g id="Bunk_Beds">
</g>
<g id="Bed_2">
</g>
<g id="Bed_3">
</g>
<g id="Bed_4">
	<g>
		<path d="M10.5,6h-3C7.225,6,7,6.224,7,6.5v1C7,7.776,7.225,8,7.5,8h3C10.775,8,11,7.776,11,7.5v-1C11,6.224,10.775,6,10.5,6z"/>
		<path d="M15.5,6h-3C12.225,6,12,6.224,12,6.5v1C12,7.776,12.225,8,12.5,8h3C15.775,8,16,7.776,16,7.5v-1C16,6.224,15.775,6,15.5,6
			z"/>
		<path d="M18.5,3h-14C4.224,3,4,3.224,4,3.5v17C4,20.776,4.224,21,4.5,21h14c0.276,0,0.5-0.224,0.5-0.5v-17
			C19,3.224,18.776,3,18.5,3z M17,18.5c0,0.276-0.224,0.5-0.5,0.5h-10C6.224,19,6,18.776,6,18.5v-8C6,10.224,6.224,10,6.5,10h10
			c0.276,0,0.5,0.224,0.5,0.5V18.5z M17,7.5C17,8.327,16.327,9,15.5,9h-3c-0.386,0-0.734-0.15-1-0.39C11.234,8.85,10.886,9,10.5,9
			h-3C6.673,9,6,8.327,6,7.5v-1C6,5.673,6.673,5,7.5,5h3c0.386,0,0.734,0.15,1,0.39C11.766,5.15,12.114,5,12.5,5h3
			C16.327,5,17,5.673,17,6.5V7.5z"/>
		<rect x="7" y="11" width="9" height="7"/>
		<path d="M0,3.5v4C0,7.776,0.224,8,0.5,8H3V3.5C3,3.324,3.036,3.157,3.092,3H0.5C0.224,3,0,3.224,0,3.5z"/>
		<path d="M22.5,3h-2.592C19.964,3.157,20,3.324,20,3.5V8h2.5C22.776,8,23,7.776,23,7.5v-4C23,3.224,22.776,3,22.5,3z"/>
	</g>
</g>
<g id="Bed_5">
</g>
<g id="Table_1">
</g>
<g id="Table_2">
</g>
<g id="Table_3">
</g>
<g id="Table_4">
</g>
<g id="Rug_1">
</g>
<g id="Rug_2">
</g>
<g id="Rug_3">
</g>
<g id="Tub_1">
</g>
<g id="Tub_2">
</g>
<g id="Jacuzzi">
</g>
<g id="Corner_Tub">
</g>
<g id="Shower_Tray">
</g>
<g id="Sink_1">
</g>
<g id="Sink_2">
</g>
<g id="Toilette">
</g>
<g id="Stove">
</g>
<g id="Kitchen_Sink">
</g>
<g id="Island">
</g>
<g id="Eat-in_Kitchen">
</g>
<g id="Tv_Stand">
</g>
</svg>
