<?xml version="1.0" encoding="iso-8859-1"?>
<!-- Generator: Adobe Illustrator 19.2.1, SVG Export Plug-In . SVG Version: 6.00 Build 0)  -->
<svg version="1.1" xmlns="http://www.w3.org/2000/svg" xmlns:xlink="http://www.w3.org/1999/xlink" x="0px" y="0px"
	 viewBox="0 0 24 24" style="enable-background:new 0 0 24 24;" xml:space="preserve">
<g id="Armchair_1">
</g>
<g id="Armchair_2">
</g>
<g id="Armchair_3">
</g>
<g id="Armchair_4">
</g>
<g id="Sofa_1">
</g>
<g id="Sofa_2">
</g>
<g id="Sofa_3">
</g>
<g id="Sofa_4">
</g>
<g id="Sofa_5">
</g>
<g id="Sofa_6">
</g>
<g id="Desk_1">
</g>
<g id="Desk_2">
</g>
<g id="Desk_3">
</g>
<g id="Lamp">
</g>
<g id="Bed_1">
</g>
<g id="Bunk_Beds">
	<g>
		<polygon points="11.5,8 10,8 10,21 18,21 18,8 16.5,8 		"/>
		<path d="M16.5,3h-5C10.673,3,10,3.673,10,4.5v1C10,6.327,10.673,7,11.5,7h5C17.327,7,18,6.327,18,5.5v-1C18,3.673,17.327,3,16.5,3
			z"/>
		<path d="M19.5,0h-11C7.673,0,7,0.673,7,1.5V13H3.5C3.224,13,3,13.224,3,13.5v6C3,19.776,3.224,20,3.5,20H7v2.5
			C7,23.327,7.673,24,8.5,24h11c0.827,0,1.5-0.673,1.5-1.5v-21C21,0.673,20.327,0,19.5,0z M4,14h1v5H4V14z M6,19v-5h1v5H6z M19,5.5
			c0,0.565-0.195,1.081-0.513,1.5H18.5C18.776,7,19,7.224,19,7.5v14c0,0.276-0.224,0.5-0.5,0.5h-9C9.224,22,9,21.776,9,21.5v-14
			C9,7.224,9.224,7,9.5,7h0.013C9.195,6.581,9,6.065,9,5.5v-1C9,3.122,10.121,2,11.5,2h5C17.879,2,19,3.122,19,4.5V5.5z"/>
	</g>
</g>
<g id="Bed_2">
</g>
<g id="Bed_3">
</g>
<g id="Bed_4">
</g>
<g id="Bed_5">
</g>
<g id="Table_1">
</g>
<g id="Table_2">
</g>
<g id="Table_3">
</g>
<g id="Table_4">
</g>
<g id="Rug_1">
</g>
<g id="Rug_2">
</g>
<g id="Rug_3">
</g>
<g id="Tub_1">
</g>
<g id="Tub_2">
</g>
<g id="Jacuzzi">
</g>
<g id="Corner_Tub">
</g>
<g id="Shower_Tray">
</g>
<g id="Sink_1">
</g>
<g id="Sink_2">
</g>
<g id="Toilette">
</g>
<g id="Stove">
</g>
<g id="Kitchen_Sink">
</g>
<g id="Island">
</g>
<g id="Eat-in_Kitchen">
</g>
<g id="Tv_Stand">
</g>
</svg>
