<?xml version="1.0" encoding="iso-8859-1"?>
<!-- Generator: Adobe Illustrator 19.2.1, SVG Export Plug-In . SVG Version: 6.00 Build 0)  -->
<svg version="1.1" xmlns="http://www.w3.org/2000/svg" xmlns:xlink="http://www.w3.org/1999/xlink" x="0px" y="0px"
	 viewBox="0 0 24 24" style="enable-background:new 0 0 24 24;" xml:space="preserve">
<g id="Armchair_1">
</g>
<g id="Armchair_2">
</g>
<g id="Armchair_3">
</g>
<g id="Armchair_4">
</g>
<g id="Sofa_1">
</g>
<g id="Sofa_2">
</g>
<g id="Sofa_3">
</g>
<g id="Sofa_4">
</g>
<g id="Sofa_5">
</g>
<g id="Sofa_6">
</g>
<g id="Desk_1">
</g>
<g id="Desk_2">
</g>
<g id="Desk_3">
	<g>
		<path d="M23.5,2h-23C0.224,2,0,2.224,0,2.5v9C0,11.776,0.224,12,0.5,12h14c0.827,0,1.5,0.673,1.5,1.5v7c0,0.276,0.224,0.5,0.5,0.5
			h7c0.276,0,0.5-0.224,0.5-0.5v-18C24,2.224,23.776,2,23.5,2z"/>
		<path d="M9.25,19c0.138,0,0.25-0.134,0.25-0.3v-2.4c0-0.166-0.112-0.3-0.25-0.3h-2.5c-0.138,0-0.25,0.134-0.25,0.3v2.4
			c0,0.166,0.112,0.3,0.25,0.3H9.25z"/>
		<path d="M11.5,14c-0.694,0-1.274,0.477-1.445,1.118c0.261,0.152,0.445,0.44,0.445,0.782v3.2c0,0.496-0.374,0.9-0.833,0.9H6.333
			C5.874,20,5.5,19.596,5.5,19.1v-3.2c0-0.342,0.184-0.629,0.445-0.782C5.774,14.477,5.194,14,4.5,14C3.673,14,3,14.673,3,15.5v4
			C3,20.878,4.122,22,5.5,22h5c1.378,0,2.5-1.122,2.5-2.5v-4C13,14.673,12.327,14,11.5,14z"/>
	</g>
</g>
<g id="Lamp">
</g>
<g id="Bed_1">
</g>
<g id="Bunk_Beds">
</g>
<g id="Bed_2">
</g>
<g id="Bed_3">
</g>
<g id="Bed_4">
</g>
<g id="Bed_5">
</g>
<g id="Table_1">
</g>
<g id="Table_2">
</g>
<g id="Table_3">
</g>
<g id="Table_4">
</g>
<g id="Rug_1">
</g>
<g id="Rug_2">
</g>
<g id="Rug_3">
</g>
<g id="Tub_1">
</g>
<g id="Tub_2">
</g>
<g id="Jacuzzi">
</g>
<g id="Corner_Tub">
</g>
<g id="Shower_Tray">
</g>
<g id="Sink_1">
</g>
<g id="Sink_2">
</g>
<g id="Toilette">
</g>
<g id="Stove">
</g>
<g id="Kitchen_Sink">
</g>
<g id="Island">
</g>
<g id="Eat-in_Kitchen">
</g>
<g id="Tv_Stand">
</g>
</svg>
