<?xml version="1.0" encoding="iso-8859-1"?>
<!-- Generator: Adobe Illustrator 19.2.1, SVG Export Plug-In . SVG Version: 6.00 Build 0)  -->
<svg version="1.1" xmlns="http://www.w3.org/2000/svg" xmlns:xlink="http://www.w3.org/1999/xlink" x="0px" y="0px"
	 viewBox="0 0 24 24" style="enable-background:new 0 0 24 24;" xml:space="preserve">
<g id="Armchair_1">
</g>
<g id="Armchair_2">
</g>
<g id="Armchair_3">
</g>
<g id="Armchair_4">
</g>
<g id="Sofa_1">
</g>
<g id="Sofa_2">
</g>
<g id="Sofa_3">
</g>
<g id="Sofa_4">
</g>
<g id="Sofa_5">
</g>
<g id="Sofa_6">
</g>
<g id="Desk_1">
</g>
<g id="Desk_2">
	<g>
		<path d="M22.5,1h-21C0.673,1,0,1.673,0,2.5v9C0,12.327,0.673,13,1.5,13h21c0.827,0,1.5-0.673,1.5-1.5v-9C24,1.673,23.327,1,22.5,1
			z"/>
		<path d="M16.562,14.004c-0.274-0.032-0.524,0.16-0.558,0.434L15.934,15H8.066l-0.07-0.562c-0.035-0.274-0.285-0.466-0.558-0.434
			c-0.274,0.034-0.468,0.284-0.434,0.558l0.426,3.411c0,0.001,0,0.002,0,0.003l0.14,1.117C7.849,21.32,9.751,23,12.004,23
			c2.245,0,4.147-1.68,4.425-3.906l0.14-1.117c0-0.001,0-0.002,0-0.003l0.426-3.412C17.03,14.288,16.836,14.038,16.562,14.004z
			 M15.589,17.76C14.919,19.121,13.519,20,12,20c-1.52,0-2.92-0.879-3.589-2.241L8.191,16h7.617L15.589,17.76z"/>
	</g>
</g>
<g id="Desk_3">
</g>
<g id="Lamp">
</g>
<g id="Bed_1">
</g>
<g id="Bunk_Beds">
</g>
<g id="Bed_2">
</g>
<g id="Bed_3">
</g>
<g id="Bed_4">
</g>
<g id="Bed_5">
</g>
<g id="Table_1">
</g>
<g id="Table_2">
</g>
<g id="Table_3">
</g>
<g id="Table_4">
</g>
<g id="Rug_1">
</g>
<g id="Rug_2">
</g>
<g id="Rug_3">
</g>
<g id="Tub_1">
</g>
<g id="Tub_2">
</g>
<g id="Jacuzzi">
</g>
<g id="Corner_Tub">
</g>
<g id="Shower_Tray">
</g>
<g id="Sink_1">
</g>
<g id="Sink_2">
</g>
<g id="Toilette">
</g>
<g id="Stove">
</g>
<g id="Kitchen_Sink">
</g>
<g id="Island">
</g>
<g id="Eat-in_Kitchen">
</g>
<g id="Tv_Stand">
</g>
</svg>
