<?xml version="1.0" encoding="iso-8859-1"?>
<!-- Generator: Adobe Illustrator 19.2.1, SVG Export Plug-In . SVG Version: 6.00 Build 0)  -->
<svg version="1.1" xmlns="http://www.w3.org/2000/svg" xmlns:xlink="http://www.w3.org/1999/xlink" x="0px" y="0px"
	 viewBox="0 0 24 24" style="enable-background:new 0 0 24 24;" xml:space="preserve">
<g id="Armchair_1">
</g>
<g id="Armchair_2">
</g>
<g id="Armchair_3">
</g>
<g id="Armchair_4">
</g>
<g id="Sofa_1">
</g>
<g id="Sofa_2">
</g>
<g id="Sofa_3">
</g>
<g id="Sofa_4">
</g>
<g id="Sofa_5">
</g>
<g id="Sofa_6">
</g>
<g id="Desk_1">
</g>
<g id="Desk_2">
</g>
<g id="Desk_3">
</g>
<g id="Lamp">
</g>
<g id="Bed_1">
</g>
<g id="Bunk_Beds">
</g>
<g id="Bed_2">
</g>
<g id="Bed_3">
</g>
<g id="Bed_4">
</g>
<g id="Bed_5">
</g>
<g id="Table_1">
</g>
<g id="Table_2">
</g>
<g id="Table_3">
</g>
<g id="Table_4">
</g>
<g id="Rug_1">
</g>
<g id="Rug_2">
</g>
<g id="Rug_3">
</g>
<g id="Tub_1">
</g>
<g id="Tub_2">
</g>
<g id="Jacuzzi">
	<g>
		<path d="M18.674,0H4.326C1.94,0,0,1.941,0,4.326v14.348C0,21.059,1.94,23,4.326,23h14.348C21.06,23,23,21.059,23,18.674V4.326
			C23,1.941,21.06,0,18.674,0z M11.5,20C6.813,20,3,16.187,3,11.5S6.813,3,11.5,3S20,6.813,20,11.5S16.187,20,11.5,20z"/>
		<path d="M11.5,4C7.364,4,4,7.364,4,11.5S7.364,19,11.5,19s7.5-3.364,7.5-7.5S15.636,4,11.5,4z M11.5,5C11.776,5,12,5.224,12,5.5
			C12,5.776,11.776,6,11.5,6S11,5.776,11,5.5C11,5.224,11.224,5,11.5,5z M11.5,8C11.224,8,11,7.776,11,7.5C11,7.224,11.224,7,11.5,7
			S12,7.224,12,7.5C12,7.776,11.776,8,11.5,8z M12,15.5c0,0.276-0.224,0.5-0.5,0.5S11,15.776,11,15.5c0-0.276,0.224-0.5,0.5-0.5
			S12,15.224,12,15.5z M10.5,6C10.776,6,11,6.224,11,6.5C11,6.776,10.776,7,10.5,7S10,6.776,10,6.5C10,6.224,10.224,6,10.5,6z
			 M6.5,10C6.776,10,7,10.224,7,10.5C7,10.776,6.776,11,6.5,11S6,10.776,6,10.5C6,10.224,6.224,10,6.5,10z M5.5,12
			C5.224,12,5,11.776,5,11.5C5,11.224,5.224,11,5.5,11S6,11.224,6,11.5C6,11.776,5.776,12,5.5,12z M6.5,13C6.224,13,6,12.776,6,12.5
			C6,12.224,6.224,12,6.5,12S7,12.224,7,12.5C7,12.776,6.776,13,6.5,13z M7.5,12C7.224,12,7,11.776,7,11.5C7,11.224,7.224,11,7.5,11
			S8,11.224,8,11.5C8,11.776,7.776,12,7.5,12z M10.5,17c-0.276,0-0.5-0.224-0.5-0.5c0-0.276,0.224-0.5,0.5-0.5s0.5,0.224,0.5,0.5
			C11,16.776,10.776,17,10.5,17z M11.5,18c-0.276,0-0.5-0.224-0.5-0.5c0-0.276,0.224-0.5,0.5-0.5s0.5,0.224,0.5,0.5
			C12,17.776,11.776,18,11.5,18z M12.5,17c-0.276,0-0.5-0.224-0.5-0.5c0-0.276,0.224-0.5,0.5-0.5s0.5,0.224,0.5,0.5
			C13,16.776,12.776,17,12.5,17z M12.5,7C12.224,7,12,6.776,12,6.5C12,6.224,12.224,6,12.5,6S13,6.224,13,6.5
			C13,6.776,12.776,7,12.5,7z M15.5,12c-0.276,0-0.5-0.224-0.5-0.5c0-0.276,0.224-0.5,0.5-0.5s0.5,0.224,0.5,0.5
			C16,11.776,15.776,12,15.5,12z M16.5,13c-0.276,0-0.5-0.224-0.5-0.5c0-0.276,0.224-0.5,0.5-0.5s0.5,0.224,0.5,0.5
			C17,12.776,16.776,13,16.5,13z M17.5,11c0.276,0,0.5,0.224,0.5,0.5c0,0.276-0.224,0.5-0.5,0.5S17,11.776,17,11.5
			C17,11.224,17.224,11,17.5,11z M17,10.5c0,0.276-0.224,0.5-0.5,0.5S16,10.776,16,10.5c0-0.276,0.224-0.5,0.5-0.5
			S17,10.224,17,10.5z"/>
	</g>
</g>
<g id="Corner_Tub">
</g>
<g id="Shower_Tray">
</g>
<g id="Sink_1">
</g>
<g id="Sink_2">
</g>
<g id="Toilette">
</g>
<g id="Stove">
</g>
<g id="Kitchen_Sink">
</g>
<g id="Island">
</g>
<g id="Eat-in_Kitchen">
</g>
<g id="Tv_Stand">
</g>
</svg>
