<?xml version="1.0" encoding="iso-8859-1"?>
<!-- Generator: Adobe Illustrator 19.2.1, SVG Export Plug-In . SVG Version: 6.00 Build 0)  -->
<svg version="1.1" xmlns="http://www.w3.org/2000/svg" xmlns:xlink="http://www.w3.org/1999/xlink" x="0px" y="0px"
	 viewBox="0 0 24 24" style="enable-background:new 0 0 24 24;" xml:space="preserve">
<g id="Armchair_1">
</g>
<g id="Armchair_2">
</g>
<g id="Armchair_3">
</g>
<g id="Armchair_4">
</g>
<g id="Sofa_1">
</g>
<g id="Sofa_2">
</g>
<g id="Sofa_3">
</g>
<g id="Sofa_4">
</g>
<g id="Sofa_5">
</g>
<g id="Sofa_6">
</g>
<g id="Desk_1">
</g>
<g id="Desk_2">
</g>
<g id="Desk_3">
</g>
<g id="Lamp">
	<path d="M20.854,20.146c-0.013-0.013-0.029-0.017-0.042-0.028C22.784,17.979,24,15.132,24,12s-1.216-5.979-3.189-8.118
		c0.013-0.011,0.03-0.016,0.042-0.028l1-1c0.195-0.195,0.195-0.512,0-0.707s-0.512-0.195-0.707,0l-1,1
		c-0.013,0.013-0.017,0.029-0.028,0.042C17.979,1.216,15.132,0,12,0S6.021,1.216,3.882,3.189c-0.011-0.013-0.016-0.03-0.028-0.042
		l-1-1c-0.195-0.195-0.512-0.195-0.707,0s-0.195,0.512,0,0.707l1,1c0.013,0.013,0.029,0.017,0.042,0.028C1.216,6.021,0,8.868,0,12
		s1.216,5.979,3.189,8.118c-0.013,0.011-0.03,0.016-0.042,0.028l-1,1c-0.195,0.195-0.195,0.512,0,0.707
		C2.244,21.951,2.372,22,2.5,22s0.256-0.049,0.354-0.146l1-1c0.013-0.013,0.017-0.029,0.028-0.042C6.021,22.784,8.868,24,12,24
		s5.979-1.216,8.118-3.189c0.011,0.013,0.016,0.03,0.028,0.042l1,1C21.244,21.951,21.372,22,21.5,22s0.256-0.049,0.354-0.146
		c0.195-0.195,0.195-0.512,0-0.707L20.854,20.146z M12.244,11.049C12.164,11.029,12.086,11,12,11s-0.164,0.029-0.244,0.049
		L9.56,8.853C10.238,8.327,11.078,8,12,8s1.762,0.327,2.44,0.853L12.244,11.049z M8.853,9.56l2.196,2.196
		C11.029,11.836,11,11.914,11,12s0.029,0.164,0.049,0.244L8.853,14.44C8.327,13.762,8,12.922,8,12S8.327,10.238,8.853,9.56z
		 M11.756,12.951C11.836,12.971,11.914,13,12,13s0.164-0.029,0.244-0.049l2.196,2.196C13.762,15.673,12.922,16,12,16
		s-1.762-0.327-2.44-0.853L11.756,12.951z M15.147,14.44l-2.196-2.196C12.971,12.164,13,12.086,13,12s-0.029-0.164-0.049-0.244
		l2.196-2.196C15.673,10.238,16,11.078,16,12S15.673,13.762,15.147,14.44z"/>
</g>
<g id="Bed_1">
</g>
<g id="Bunk_Beds">
</g>
<g id="Bed_2">
</g>
<g id="Bed_3">
</g>
<g id="Bed_4">
</g>
<g id="Bed_5">
</g>
<g id="Table_1">
</g>
<g id="Table_2">
</g>
<g id="Table_3">
</g>
<g id="Table_4">
</g>
<g id="Rug_1">
</g>
<g id="Rug_2">
</g>
<g id="Rug_3">
</g>
<g id="Tub_1">
</g>
<g id="Tub_2">
</g>
<g id="Jacuzzi">
</g>
<g id="Corner_Tub">
</g>
<g id="Shower_Tray">
</g>
<g id="Sink_1">
</g>
<g id="Sink_2">
</g>
<g id="Toilette">
</g>
<g id="Stove">
</g>
<g id="Kitchen_Sink">
</g>
<g id="Island">
</g>
<g id="Eat-in_Kitchen">
</g>
<g id="Tv_Stand">
</g>
</svg>
