<?xml version="1.0" encoding="iso-8859-1"?>
<!-- Generator: Adobe Illustrator 19.2.1, SVG Export Plug-In . SVG Version: 6.00 Build 0)  -->
<svg version="1.1" xmlns="http://www.w3.org/2000/svg" xmlns:xlink="http://www.w3.org/1999/xlink" x="0px" y="0px"
	 viewBox="0 0 24 24" style="enable-background:new 0 0 24 24;" xml:space="preserve">
<g id="Armchair_1">
</g>
<g id="Armchair_2">
</g>
<g id="Armchair_3">
</g>
<g id="Armchair_4">
</g>
<g id="Sofa_1">
</g>
<g id="Sofa_2">
</g>
<g id="Sofa_3">
</g>
<g id="Sofa_4">
</g>
<g id="Sofa_5">
</g>
<g id="Sofa_6">
	<g>
		<path d="M23.966,12.292C22.009,7.254,17.312,4,12,4C6.681,4,1.983,7.266,0.033,12.32c-0.048,0.124-0.044,0.262,0.01,0.383
			s0.153,0.216,0.277,0.264l1.866,0.72c0.058,0.022,0.119,0.034,0.18,0.034c0.069,0,0.139-0.014,0.203-0.043
			c0.121-0.054,0.216-0.153,0.264-0.277C4.332,9.512,7.931,7,12,7c4.064,0,7.664,2.504,9.17,6.378
			c0.048,0.124,0.143,0.223,0.265,0.276c0.12,0.053,0.26,0.056,0.382,0.008l1.864-0.725C23.938,12.839,24.066,12.549,23.966,12.292z
			"/>
		<circle cx="12" cy="17" r="3"/>
		<path d="M12,8c-3.652,0-6.885,2.261-8.234,5.759c-0.068,0.177-0.171,0.332-0.295,0.468l1.011,0.404
			c0.184,0.073,0.374,0.109,0.561,0.109c0.505,0,0.987-0.257,1.263-0.71C7.454,12.133,9.583,11,12,11
			c2.413,0,4.542,1.129,5.694,3.019c0.377,0.62,1.146,0.87,1.823,0.597l1.016-0.409c-0.123-0.135-0.227-0.29-0.296-0.467
			C18.883,10.253,15.648,8,12,8z"/>
	</g>
</g>
<g id="Desk_1">
</g>
<g id="Desk_2">
</g>
<g id="Desk_3">
</g>
<g id="Lamp">
</g>
<g id="Bed_1">
</g>
<g id="Bunk_Beds">
</g>
<g id="Bed_2">
</g>
<g id="Bed_3">
</g>
<g id="Bed_4">
</g>
<g id="Bed_5">
</g>
<g id="Table_1">
</g>
<g id="Table_2">
</g>
<g id="Table_3">
</g>
<g id="Table_4">
</g>
<g id="Rug_1">
</g>
<g id="Rug_2">
</g>
<g id="Rug_3">
</g>
<g id="Tub_1">
</g>
<g id="Tub_2">
</g>
<g id="Jacuzzi">
</g>
<g id="Corner_Tub">
</g>
<g id="Shower_Tray">
</g>
<g id="Sink_1">
</g>
<g id="Sink_2">
</g>
<g id="Toilette">
</g>
<g id="Stove">
</g>
<g id="Kitchen_Sink">
</g>
<g id="Island">
</g>
<g id="Eat-in_Kitchen">
</g>
<g id="Tv_Stand">
</g>
</svg>
