<?xml version="1.0" encoding="iso-8859-1"?>
<!-- Generator: Adobe Illustrator 19.2.1, SVG Export Plug-In . SVG Version: 6.00 Build 0)  -->
<svg version="1.1" xmlns="http://www.w3.org/2000/svg" xmlns:xlink="http://www.w3.org/1999/xlink" x="0px" y="0px"
	 viewBox="0 0 24 24" style="enable-background:new 0 0 24 24;" xml:space="preserve">
<g id="Armchair_1">
</g>
<g id="Armchair_2">
</g>
<g id="Armchair_3">
</g>
<g id="Armchair_4">
</g>
<g id="Sofa_1">
</g>
<g id="Sofa_2">
</g>
<g id="Sofa_3">
</g>
<g id="Sofa_4">
</g>
<g id="Sofa_5">
	<g>
		<path d="M23.131,0.689c-0.511-0.465-1.187-0.697-1.875-0.633c-11.241,1.043-20.156,9.959-21.2,21.2
			c-0.063,0.681,0.168,1.365,0.634,1.876c0.478,0.523,1.155,0.823,1.862,0.823h1.902c0.276,0,0.5-0.224,0.5-0.5
			c0-10.201,8.299-18.5,18.5-18.5c0.276,0,0.5-0.224,0.5-0.5V2.552C23.954,1.845,23.654,1.166,23.131,0.689z"/>
		<path d="M5.954,23.454c0,0.176-0.036,0.343-0.092,0.5h3.736c1.24,0,2.301-0.901,2.466-2.097c0.347-2.489,1.473-4.749,3.259-6.535
			c1.786-1.786,4.046-2.913,6.536-3.258c1.194-0.166,2.096-1.226,2.096-2.466V5.862c-0.157,0.056-0.324,0.092-0.5,0.092
			C13.805,5.954,5.954,13.805,5.954,23.454z"/>
	</g>
</g>
<g id="Sofa_6">
</g>
<g id="Desk_1">
</g>
<g id="Desk_2">
</g>
<g id="Desk_3">
</g>
<g id="Lamp">
</g>
<g id="Bed_1">
</g>
<g id="Bunk_Beds">
</g>
<g id="Bed_2">
</g>
<g id="Bed_3">
</g>
<g id="Bed_4">
</g>
<g id="Bed_5">
</g>
<g id="Table_1">
</g>
<g id="Table_2">
</g>
<g id="Table_3">
</g>
<g id="Table_4">
</g>
<g id="Rug_1">
</g>
<g id="Rug_2">
</g>
<g id="Rug_3">
</g>
<g id="Tub_1">
</g>
<g id="Tub_2">
</g>
<g id="Jacuzzi">
</g>
<g id="Corner_Tub">
</g>
<g id="Shower_Tray">
</g>
<g id="Sink_1">
</g>
<g id="Sink_2">
</g>
<g id="Toilette">
</g>
<g id="Stove">
</g>
<g id="Kitchen_Sink">
</g>
<g id="Island">
</g>
<g id="Eat-in_Kitchen">
</g>
<g id="Tv_Stand">
</g>
</svg>
