<?xml version="1.0" encoding="iso-8859-1"?>
<!-- Generator: Adobe Illustrator 19.2.1, SVG Export Plug-In . SVG Version: 6.00 Build 0)  -->
<svg version="1.1" xmlns="http://www.w3.org/2000/svg" xmlns:xlink="http://www.w3.org/1999/xlink" x="0px" y="0px"
	 viewBox="0 0 24 24" style="enable-background:new 0 0 24 24;" xml:space="preserve">
<g id="Armchair_1">
</g>
<g id="Armchair_2">
</g>
<g id="Armchair_3">
</g>
<g id="Armchair_4">
</g>
<g id="Sofa_1">
</g>
<g id="Sofa_2">
</g>
<g id="Sofa_3">
</g>
<g id="Sofa_4">
</g>
<g id="Sofa_5">
</g>
<g id="Sofa_6">
</g>
<g id="Desk_1">
</g>
<g id="Desk_2">
</g>
<g id="Desk_3">
</g>
<g id="Lamp">
</g>
<g id="Bed_1">
</g>
<g id="Bunk_Beds">
</g>
<g id="Bed_2">
</g>
<g id="Bed_3">
</g>
<g id="Bed_4">
</g>
<g id="Bed_5">
</g>
<g id="Table_1">
</g>
<g id="Table_2">
</g>
<g id="Table_3">
</g>
<g id="Table_4">
</g>
<g id="Rug_1">
</g>
<g id="Rug_2">
</g>
<g id="Rug_3">
</g>
<g id="Tub_1">
</g>
<g id="Tub_2">
</g>
<g id="Jacuzzi">
</g>
<g id="Corner_Tub">
</g>
<g id="Shower_Tray">
</g>
<g id="Sink_1">
</g>
<g id="Sink_2">
</g>
<g id="Toilette">
</g>
<g id="Stove">
	<g>
		<circle cx="7" cy="7" r="3"/>
		<circle cx="7" cy="17" r="2"/>
		<circle cx="17" cy="17" r="1"/>
		<circle cx="17" cy="7" r="2"/>
		<path d="M22.5,0h-22C0.224,0,0,0.224,0,0.5v22C0,22.776,0.224,23,0.5,23h22c0.276,0,0.5-0.224,0.5-0.5v-22
			C23,0.224,22.776,0,22.5,0z M7,20c-1.654,0-3-1.346-3-3s1.346-3,3-3s3,1.346,3,3S8.654,20,7,20z M7,11c-2.206,0-4-1.794-4-4
			s1.794-4,4-4s4,1.794,4,4S9.206,11,7,11z M17,19c-1.103,0-2-0.897-2-2s0.897-2,2-2s2,0.897,2,2S18.103,19,17,19z M17,10
			c-1.654,0-3-1.346-3-3s1.346-3,3-3s3,1.346,3,3S18.654,10,17,10z"/>
	</g>
</g>
<g id="Kitchen_Sink">
</g>
<g id="Island">
</g>
<g id="Eat-in_Kitchen">
</g>
<g id="Tv_Stand">
</g>
</svg>
