<?xml version="1.0" encoding="iso-8859-1"?>
<!-- Generator: Adobe Illustrator 19.2.1, SVG Export Plug-In . SVG Version: 6.00 Build 0)  -->
<svg version="1.1" xmlns="http://www.w3.org/2000/svg" xmlns:xlink="http://www.w3.org/1999/xlink" x="0px" y="0px"
	 viewBox="0 0 24 24" style="enable-background:new 0 0 24 24;" xml:space="preserve">
<g id="Armchair_1">
</g>
<g id="Armchair_2">
</g>
<g id="Armchair_3">
</g>
<g id="Armchair_4">
</g>
<g id="Sofa_1">
</g>
<g id="Sofa_2">
</g>
<g id="Sofa_3">
</g>
<g id="Sofa_4">
</g>
<g id="Sofa_5">
</g>
<g id="Sofa_6">
</g>
<g id="Desk_1">
</g>
<g id="Desk_2">
</g>
<g id="Desk_3">
</g>
<g id="Lamp">
</g>
<g id="Bed_1">
</g>
<g id="Bunk_Beds">
</g>
<g id="Bed_2">
</g>
<g id="Bed_3">
</g>
<g id="Bed_4">
</g>
<g id="Bed_5">
</g>
<g id="Table_1">
	<g>
		<path d="M19.5,7h-15C4.224,7,4,7.224,4,7.5v9C4,16.776,4.224,17,4.5,17h15c0.276,0,0.5-0.224,0.5-0.5v-9C20,7.224,19.776,7,19.5,7
			z"/>
		<path d="M12.528,19.087C12.763,20.213,13.629,21,14.635,21h0.73c1.006,0,1.872-0.787,2.106-1.913L17.698,18h-5.396L12.528,19.087z
			"/>
		<path d="M6.528,19.087C6.763,20.213,7.629,21,8.635,21h0.73c1.006,0,1.872-0.787,2.106-1.913L11.698,18H6.302L6.528,19.087z"/>
		<path d="M0,11.635v0.73c0,1.006,0.787,1.872,1.913,2.106L3,14.698V9.302L1.913,9.528C0.787,9.763,0,10.629,0,11.635z"/>
		<path d="M11.472,4.913C11.237,3.787,10.371,3,9.365,3h-0.73C7.629,3,6.763,3.787,6.528,4.913L6.302,6h5.396L11.472,4.913z"/>
		<path d="M17.472,4.913C17.237,3.787,16.371,3,15.365,3h-0.73c-1.006,0-1.872,0.787-2.106,1.913L12.302,6h5.396L17.472,4.913z"/>
		<path d="M22.087,9.528L21,9.302v5.396l1.087-0.226C23.213,14.237,24,13.371,24,12.365v-0.73C24,10.629,23.213,9.763,22.087,9.528z
			"/>
	</g>
</g>
<g id="Table_2">
</g>
<g id="Table_3">
</g>
<g id="Table_4">
</g>
<g id="Rug_1">
</g>
<g id="Rug_2">
</g>
<g id="Rug_3">
</g>
<g id="Tub_1">
</g>
<g id="Tub_2">
</g>
<g id="Jacuzzi">
</g>
<g id="Corner_Tub">
</g>
<g id="Shower_Tray">
</g>
<g id="Sink_1">
</g>
<g id="Sink_2">
</g>
<g id="Toilette">
</g>
<g id="Stove">
</g>
<g id="Kitchen_Sink">
</g>
<g id="Island">
</g>
<g id="Eat-in_Kitchen">
</g>
<g id="Tv_Stand">
</g>
</svg>
