<?xml version="1.0" encoding="iso-8859-1"?>
<!-- Generator: Adobe Illustrator 19.2.1, SVG Export Plug-In . SVG Version: 6.00 Build 0)  -->
<svg version="1.1" xmlns="http://www.w3.org/2000/svg" xmlns:xlink="http://www.w3.org/1999/xlink" x="0px" y="0px"
	 viewBox="0 0 24 24" style="enable-background:new 0 0 24 24;" xml:space="preserve">
<g id="Armchair_1">
</g>
<g id="Armchair_2">
</g>
<g id="Armchair_3">
</g>
<g id="Armchair_4">
</g>
<g id="Sofa_1">
</g>
<g id="Sofa_2">
</g>
<g id="Sofa_3">
</g>
<g id="Sofa_4">
</g>
<g id="Sofa_5">
</g>
<g id="Sofa_6">
</g>
<g id="Desk_1">
</g>
<g id="Desk_2">
</g>
<g id="Desk_3">
</g>
<g id="Lamp">
</g>
<g id="Bed_1">
</g>
<g id="Bunk_Beds">
</g>
<g id="Bed_2">
</g>
<g id="Bed_3">
</g>
<g id="Bed_4">
</g>
<g id="Bed_5">
</g>
<g id="Table_1">
</g>
<g id="Table_2">
</g>
<g id="Table_3">
</g>
<g id="Table_4">
</g>
<g id="Rug_1">
</g>
<g id="Rug_2">
</g>
<g id="Rug_3">
</g>
<g id="Tub_1">
</g>
<g id="Tub_2">
	<path d="M17.778,21.681c-0.141-0.032-0.277-0.032-0.406-0.012l-0.503-0.503c0.734-1.07,1.128-2.334,1.128-3.665V4.453
		c-0.009-0.774-0.242-1.491-0.612-2.126c0.045,0.006,0.085,0.024,0.131,0.024c0.086,0,0.175-0.011,0.265-0.032
		c0.265-0.063,0.53-0.218,0.748-0.436c0.529-0.529,0.625-1.232,0.222-1.635c-0.405-0.403-1.106-0.308-1.636,0.221
		c-0.275,0.275-0.426,0.596-0.458,0.898c-0.851-0.839-2.031-1.366-3.334-1.366h-0.326v1.09c0.504,0.171,1,0.603,1,1.41
		c0,0.276-0.224,0.5-0.5,0.5s-0.5-0.224-0.5-0.5c0-0.457-0.389-0.498-0.508-0.5h-0.492v2.5c0,0.276-0.224,0.5-0.5,0.5
		s-0.5-0.224-0.5-0.5v-2.5h-0.5c-0.125,0.012-0.5,0.088-0.5,0.5c0,0.276-0.224,0.5-0.5,0.5s-0.5-0.224-0.5-0.5
		c0-0.779,0.5-1.215,1-1.397V0.001H9.67c-1.302,0-2.481,0.526-3.332,1.37c-0.03-0.302-0.18-0.623-0.453-0.897
		c-0.001,0-0.001,0-0.001,0C5.356-0.054,4.654-0.145,4.252,0.257C3.849,0.659,3.942,1.361,4.47,1.888
		c0.217,0.217,0.481,0.371,0.746,0.433c0.088,0.021,0.176,0.031,0.26,0.031c0.049,0,0.092-0.019,0.14-0.026l0.002,0.002
		c-0.375,0.645-0.611,1.378-0.62,2.173V17.25c0,1.43,0.447,2.764,1.196,3.865c-0.016,0.012-0.035,0.018-0.049,0.033l-0.53,0.53
		c-0.368-0.054-0.794,0.087-1.148,0.441c-0.528,0.529-0.624,1.232-0.222,1.636c0.161,0.162,0.381,0.247,0.623,0.247
		c0.086,0,0.175-0.011,0.265-0.032c0.265-0.063,0.53-0.218,0.747-0.436c0.298-0.297,0.469-0.666,0.47-1.011
		c0-0.049-0.019-0.092-0.026-0.139l0.486-0.486c1.144,1.246,2.733,2.048,4.49,2.1c0.067,0.002,0.135,0.003,0.201,0.003
		c1.701,0,3.301-0.647,4.524-1.835c0.074-0.071,0.139-0.149,0.208-0.223l0.442,0.442c-0.054,0.367,0.085,0.791,0.437,1.144
		c0.308,0.308,0.674,0.467,1.006,0.467c0.238,0,0.458-0.082,0.626-0.25c0.403-0.403,0.31-1.104-0.218-1.631
		C18.308,21.897,18.043,21.743,17.778,21.681z M11.497,6.001c0.276,0,0.5,0.224,0.5,0.5c0,0.276-0.224,0.5-0.5,0.5
		s-0.5-0.224-0.5-0.5C10.997,6.225,11.221,6.001,11.497,6.001z M10.497,8.001c-0.276,0-0.5-0.224-0.5-0.5c0-0.276,0.224-0.5,0.5-0.5
		s0.5,0.224,0.5,0.5C10.997,7.777,10.773,8.001,10.497,8.001z M11.497,9.001c-0.276,0-0.5-0.224-0.5-0.5c0-0.276,0.224-0.5,0.5-0.5
		s0.5,0.224,0.5,0.5C11.997,8.777,11.773,9.001,11.497,9.001z M12.497,8.001c-0.276,0-0.5-0.224-0.5-0.5c0-0.276,0.224-0.5,0.5-0.5
		s0.5,0.224,0.5,0.5C12.997,7.777,12.773,8.001,12.497,8.001z"/>
</g>
<g id="Jacuzzi">
</g>
<g id="Corner_Tub">
</g>
<g id="Shower_Tray">
</g>
<g id="Sink_1">
</g>
<g id="Sink_2">
</g>
<g id="Toilette">
</g>
<g id="Stove">
</g>
<g id="Kitchen_Sink">
</g>
<g id="Island">
</g>
<g id="Eat-in_Kitchen">
</g>
<g id="Tv_Stand">
</g>
</svg>
