<?xml version="1.0" encoding="iso-8859-1"?>
<!-- Generator: Adobe Illustrator 19.2.1, SVG Export Plug-In . SVG Version: 6.00 Build 0)  -->
<svg version="1.1" xmlns="http://www.w3.org/2000/svg" xmlns:xlink="http://www.w3.org/1999/xlink" x="0px" y="0px"
	 viewBox="0 0 30 30" style="enable-background:new 0 0 30 30;" xml:space="preserve">
<g id="Man_1">
</g>
<g id="Woman_1">
</g>
<g id="Man_2">
</g>
<g id="Woman_2">
</g>
<g id="Bald_Man">
</g>
<g id="Man_Glasses">
</g>
<g id="Woman_Glasses">
</g>
<g id="Man_Beard">
</g>
<g id="Man_Cap">
</g>
<g id="Woman_Cap">
</g>
<g id="Man_3">
</g>
<g id="Woman_3">
</g>
<g id="Men_4">
</g>
<g id="Woman_4">
</g>
<g id="Business_Man_1">
</g>
<g id="Business_Woman_1">
</g>
<g id="Firefigyhter">
</g>
<g id="Policeman">
</g>
<g id="Criminal">
</g>
<g id="Prisoner">
</g>
<g id="Woodsman">
</g>
<g id="Dispatcher_1">
</g>
<g id="Dispatcher_2">
</g>
<g id="Soldier">
</g>
<g id="Astronaut">
	<g>
		<g>
			<path d="M15,30C6.729,30,0,23.271,0,15S6.729,0,15,0s15,6.729,15,15S23.271,30,15,30z M15,1C7.28,1,1,7.28,1,15s6.28,14,14,14
				s14-6.28,14-14S22.72,1,15,1z"/>
		</g>
		<g>
			<g>
				<path d="M15,22c-4.486,0-8-1.977-8-4.5v-3c0-2.523,3.514-4.5,8-4.5s8,1.977,8,4.5v3C23,20.023,19.486,22,15,22z M15,11
					c-4.324,0-7,1.817-7,3.5v3c0,1.683,2.676,3.5,7,3.5s7-1.817,7-3.5v-3C22,12.817,19.324,11,15,11z"/>
			</g>
			<g>
				<path d="M9.5,18C9.224,18,9,17.776,9,17.5v-2.511c0-0.527,0.264-1.004,0.706-1.276C10.298,13.348,12,12.5,15,12.5
					c3.185,0,5.254,0.994,5.868,1.662c0.187,0.204,0.173,0.52-0.03,0.707s-0.519,0.175-0.707-0.03C19.872,14.556,18.24,13.5,15,13.5
					c-2.822,0-4.364,0.815-4.77,1.064C10.086,14.653,10,14.812,10,14.989V17.5C10,17.776,9.776,18,9.5,18z"/>
			</g>
		</g>
		<g>
			<path d="M17.5,20.5c-0.276,0-0.5-0.224-0.5-0.5s0.224-0.5,0.5-0.5c1.222,0,4.158-1.434,4.553-2.224
				c0.124-0.247,0.424-0.347,0.671-0.224c0.247,0.124,0.347,0.424,0.224,0.671C22.348,18.922,19.006,20.5,17.5,20.5z"/>
		</g>
		<g>
			<path d="M21.5,25h-13c-0.125,0-0.247-0.047-0.339-0.132C6.182,23.045,5,20.291,5,17.5v-3C5,9.173,9.393,5,15,5s10,4.173,10,9.5v3
				c0,2.791-1.182,5.545-3.161,7.368C21.747,24.953,21.625,25,21.5,25z M8.699,24h12.603C22.995,22.364,24,19.95,24,17.5v-3
				C24,9.733,20.047,6,15,6s-9,3.733-9,8.5v3C6,19.95,7.005,22.364,8.699,24z"/>
		</g>
		<g>
			<path d="M24.5,26c-0.052,0-0.105-0.008-0.158-0.026l-3-1c-0.262-0.087-0.403-0.37-0.316-0.632
				c0.087-0.262,0.368-0.404,0.632-0.316l3,1c0.262,0.087,0.403,0.37,0.316,0.632C24.904,25.868,24.709,26,24.5,26z"/>
		</g>
		<g>
			<path d="M5.5,26c-0.209,0-0.404-0.132-0.474-0.342c-0.087-0.262,0.054-0.545,0.316-0.632l3-1
				c0.264-0.088,0.545,0.054,0.632,0.316c0.087,0.262-0.054,0.545-0.316,0.632l-3,1C5.605,25.992,5.552,26,5.5,26z"/>
		</g>
		<g>
			<path d="M10.5,29.072c-0.276,0-0.5-0.224-0.5-0.5V26.5c0-0.276,0.224-0.5,0.5-0.5h9c0.276,0,0.5,0.224,0.5,0.5v2
				c0,0.276-0.224,0.5-0.5,0.5S19,28.776,19,28.5V27h-8v1.572C11,28.849,10.776,29.072,10.5,29.072z"/>
		</g>
		<g>
			<path d="M16.5,21c-0.869,0-1.5-0.42-1.5-1s0.631-1,1.5-1s1.5,0.42,1.5,1S17.369,21,16.5,21z M17.042,20.13h0.01H17.042z M16.5,20
				h0.01H16.5z"/>
		</g>
	</g>
</g>
<g id="Hipster_Guy">
</g>
<g id="Hipster_Girl">
</g>
<g id="Worker">
</g>
<g id="Old_Man">
</g>
<g id="Punk">
</g>
<g id="Diver">
</g>
<g id="Artist">
</g>
<g id="Dictator">
</g>
<g id="Man_Hat">
</g>
<g id="Woman_Hat">
</g>
<g id="Graduated_Man">
</g>
<g id="Graduated_Woman">
</g>
<g id="Avatar_Chef">
</g>
<g id="Waiter">
</g>
<g id="Waitress">
</g>
<g id="Bllboy">
</g>
<g id="Santa">
</g>
<g id="Doctor">
</g>
<g id="Nurse">
</g>
<g id="Captain">
</g>
<g id="Farmer">
</g>
<g id="Maid">
</g>
<g id="Business_Man_2">
</g>
<g id="Business_Woman_2">
</g>
<g id="Cowboy">
</g>
<g id="Anonymus">
</g>
<g id="Batman">
</g>
<g id="Superman">
</g>
<g id="Captain_America">
</g>
<g id="Darth_Vader">
</g>
<g id="Harry_Potter">
</g>
<g id="Anonymus_2">
</g>
<g id="Scream">
</g>
<g id="Jason">
</g>
<g id="Charlie_Chaplin">
</g>
</svg>
