<?xml version="1.0" encoding="iso-8859-1"?>
<!-- Generator: Adobe Illustrator 19.2.1, SVG Export Plug-In . SVG Version: 6.00 Build 0)  -->
<svg version="1.1" xmlns="http://www.w3.org/2000/svg" xmlns:xlink="http://www.w3.org/1999/xlink" x="0px" y="0px"
	 viewBox="0 0 30 30" style="enable-background:new 0 0 30 30;" xml:space="preserve">
<g id="Man_1">
</g>
<g id="Woman_1">
</g>
<g id="Man_2">
</g>
<g id="Woman_2">
</g>
<g id="Bald_Man">
	<g>
		<g>
			<path d="M25,26c-0.068,0-0.138-0.014-0.205-0.044c-0.115-0.052-0.278-0.1-0.429-0.147c-0.101-0.031-0.197-0.061-0.277-0.089
				l-2.247-0.746c-0.632-0.22-1.5-0.951-1.668-1.096l-1.027-1.025c-0.195-0.195-0.195-0.512,0-0.707s0.512-0.195,0.707,0l1,1
				c0.4,0.343,0.997,0.772,1.311,0.881l2.497,0.826c0.192,0.06,0.398,0.125,0.544,0.19c0.252,0.114,0.364,0.41,0.251,0.661
				C25.373,25.891,25.19,26,25,26z"/>
		</g>
		<g>
			<path d="M5,26c-0.191,0-0.373-0.109-0.457-0.295c-0.113-0.251-0.001-0.547,0.251-0.661c0.146-0.065,0.352-0.131,0.544-0.19
				l2.503-0.828c0.307-0.106,0.904-0.536,1.332-0.904l0.973-0.975c0.195-0.195,0.512-0.195,0.707,0s0.195,0.512,0,0.707l-1,1
				c-0.195,0.17-1.064,0.901-1.689,1.119l-2.26,0.75c-0.073,0.025-0.169,0.055-0.27,0.086c-0.151,0.047-0.314,0.095-0.429,0.147
				C5.139,25.986,5.069,26,5,26z"/>
		</g>
		<g>
			<path d="M15.052,25c-0.293,0-0.598-0.029-0.956-0.091c-0.141-0.022-0.285-0.054-0.429-0.089c-0.111-0.028-0.214-0.06-0.318-0.092
				c-2.318-0.684-4.206-4.175-5.078-6.4C8.102,18.428,7.921,18.5,7.75,18.5c-0.998,0-1.75-1.29-1.75-3
				c0-1.583,0.645-2.807,1.533-2.979C7.938,8.069,10.956,5,15,5s7.062,3.069,7.467,7.521C23.355,12.693,24,13.917,24,15.5
				c0,1.71-0.752,3-1.75,3c-0.17,0-0.35-0.071-0.519-0.172c-0.898,2.329-2.733,5.738-4.985,6.402
				c-0.094,0.03-0.198,0.062-0.303,0.088c-0.15,0.036-0.293,0.068-0.44,0.091C15.649,24.971,15.346,25,15.052,25z M8.5,17
				c0.037,0,0.074,0.004,0.111,0.013c0.169,0.039,0.306,0.162,0.362,0.326c0.925,2.724,2.876,5.903,4.668,6.433
				c0.094,0.03,0.18,0.056,0.267,0.078c0.113,0.027,0.231,0.054,0.352,0.073c0.613,0.105,0.975,0.104,1.578,0.001
				c0.127-0.021,0.246-0.047,0.364-0.076c0.082-0.021,0.167-0.047,0.251-0.074c1.825-0.539,3.648-3.713,4.573-6.436
				c0.056-0.164,0.193-0.288,0.362-0.326c0.171-0.04,0.346,0.013,0.468,0.137c0.171,0.173,0.382,0.333,0.458,0.359
				C22.515,17.5,23,16.741,23,15.5s-0.485-2-0.75-2H22c-0.267,0-0.486-0.209-0.5-0.475C21.29,8.823,18.677,6,15,6
				s-6.29,2.823-6.5,7.025C8.486,13.291,8.267,13.5,8,13.5H7.75c-0.265,0-0.75,0.759-0.75,2s0.485,2,0.75,2
				c0.011-0.018,0.223-0.177,0.394-0.351C8.238,17.053,8.368,17,8.5,17z"/>
		</g>
		<g>
			<path d="M18.5,15h-1c-0.276,0-0.5-0.224-0.5-0.5s0.224-0.5,0.5-0.5h1c0.276,0,0.5,0.224,0.5,0.5S18.776,15,18.5,15z"/>
		</g>
		<g>
			<path d="M12.5,15h-1c-0.276,0-0.5-0.224-0.5-0.5s0.224-0.5,0.5-0.5h1c0.276,0,0.5,0.224,0.5,0.5S12.776,15,12.5,15z"/>
		</g>
		<g>
			<path d="M15,30C6.729,30,0,23.271,0,15S6.729,0,15,0s15,6.729,15,15S23.271,30,15,30z M15,1C7.28,1,1,7.28,1,15s6.28,14,14,14
				s14-6.28,14-14S22.72,1,15,1z"/>
		</g>
	</g>
</g>
<g id="Man_Glasses">
</g>
<g id="Woman_Glasses">
</g>
<g id="Man_Beard">
</g>
<g id="Man_Cap">
</g>
<g id="Woman_Cap">
</g>
<g id="Man_3">
</g>
<g id="Woman_3">
</g>
<g id="Men_4">
</g>
<g id="Woman_4">
</g>
<g id="Business_Man_1">
</g>
<g id="Business_Woman_1">
</g>
<g id="Firefigyhter">
</g>
<g id="Policeman">
</g>
<g id="Criminal">
</g>
<g id="Prisoner">
</g>
<g id="Woodsman">
</g>
<g id="Dispatcher_1">
</g>
<g id="Dispatcher_2">
</g>
<g id="Soldier">
</g>
<g id="Astronaut">
</g>
<g id="Hipster_Guy">
</g>
<g id="Hipster_Girl">
</g>
<g id="Worker">
</g>
<g id="Old_Man">
</g>
<g id="Punk">
</g>
<g id="Diver">
</g>
<g id="Artist">
</g>
<g id="Dictator">
</g>
<g id="Man_Hat">
</g>
<g id="Woman_Hat">
</g>
<g id="Graduated_Man">
</g>
<g id="Graduated_Woman">
</g>
<g id="Avatar_Chef">
</g>
<g id="Waiter">
</g>
<g id="Waitress">
</g>
<g id="Bllboy">
</g>
<g id="Santa">
</g>
<g id="Doctor">
</g>
<g id="Nurse">
</g>
<g id="Captain">
</g>
<g id="Farmer">
</g>
<g id="Maid">
</g>
<g id="Business_Man_2">
</g>
<g id="Business_Woman_2">
</g>
<g id="Cowboy">
</g>
<g id="Anonymus">
</g>
<g id="Batman">
</g>
<g id="Superman">
</g>
<g id="Captain_America">
</g>
<g id="Darth_Vader">
</g>
<g id="Harry_Potter">
</g>
<g id="Anonymus_2">
</g>
<g id="Scream">
</g>
<g id="Jason">
</g>
<g id="Charlie_Chaplin">
</g>
</svg>
