<?xml version="1.0" encoding="iso-8859-1"?>
<!-- Generator: Adobe Illustrator 19.2.1, SVG Export Plug-In . SVG Version: 6.00 Build 0)  -->
<svg version="1.1" xmlns="http://www.w3.org/2000/svg" xmlns:xlink="http://www.w3.org/1999/xlink" x="0px" y="0px"
	 viewBox="0 0 30 30" style="enable-background:new 0 0 30 30;" xml:space="preserve">
<g id="Man_1">
</g>
<g id="Woman_1">
</g>
<g id="Man_2">
</g>
<g id="Woman_2">
</g>
<g id="Bald_Man">
</g>
<g id="Man_Glasses">
</g>
<g id="Woman_Glasses">
</g>
<g id="Man_Beard">
</g>
<g id="Man_Cap">
</g>
<g id="Woman_Cap">
</g>
<g id="Man_3">
</g>
<g id="Woman_3">
</g>
<g id="Men_4">
</g>
<g id="Woman_4">
</g>
<g id="Business_Man_1">
	<g>
		<g>
			<path d="M21.5,13.5c-0.166,0-0.327-0.083-0.421-0.23c-0.094-0.147-0.813-1.292-1.022-2.278c-2.636-0.106-5.163-1.14-6.351-2.249
				C12.842,10.431,10.317,11,9.5,11c-0.208,0.104-0.463,1.105-0.5,2.021c-0.007,0.165-0.095,0.316-0.235,0.404
				c-0.141,0.089-0.315,0.101-0.467,0.033C8.287,13.453,7.256,13,6.5,13C6.224,13,6,12.776,6,12.5S6.224,12,6.5,12
				c0.528,0,1.119,0.154,1.557,0.299C8.173,11.357,8.513,10,9.5,10c0.712,0,3.5-0.652,3.5-2.5C13,7.224,13.224,7,13.5,7
				S14,7.224,14,7.5c0.055,0.603,2.83,2.5,6.5,2.5c0.276,0,0.5,0.224,0.5,0.5c0,0.471,0.377,1.29,0.709,1.877
				C22.146,12.217,22.855,12,23.5,12c0.276,0,0.5,0.224,0.5,0.5S23.776,13,23.5,13c-0.653,0-1.515,0.328-1.792,0.455
				C21.641,13.485,21.57,13.5,21.5,13.5z"/>
		</g>
		<g>
			<path d="M14.948,23c-0.294,0-0.609-0.032-0.962-0.098c-0.14-0.024-0.284-0.059-0.429-0.096c-0.114-0.031-0.217-0.064-0.32-0.1
				c-2.242-0.709-4.224-2.663-5.182-5.065c-0.114,0.034-0.217,0.045-0.304,0.045c-0.998,0-1.75-1.367-1.75-3.179
				c0-0.272,0.08-0.987,0.115-1.281C6.065,13.075,6,12.813,6,12.5C6,7.439,10.206,3,15,3c0.276,0,0.5,0.224,0.5,0.5S15.276,4,15,4
				c-4.262,0-8,3.972-8,8.5c0,0.266,0.084,0.471,0.084,0.473c0.033,0.08,0.047,0.171,0.037,0.257C7.074,13.618,7,14.308,7,14.509
				c0,1.415,0.532,2.179,0.75,2.179c0.025,0,0.096-0.029,0.196-0.139c0.12-0.131,0.298-0.188,0.477-0.15
				c0.174,0.039,0.315,0.167,0.369,0.337c0.753,2.375,2.62,4.345,4.756,5.021c0.094,0.031,0.179,0.06,0.266,0.083
				c0.11,0.028,0.228,0.057,0.349,0.078C14.465,21.974,14.712,22,14.948,22c0.276,0,0.5,0.224,0.5,0.5S15.224,23,14.948,23z"/>
		</g>
		<g>
			<path d="M14.948,23c-0.276,0-0.5-0.224-0.5-0.5s0.224-0.5,0.5-0.5c0.236,0,0.483-0.026,0.779-0.081
				c0.127-0.022,0.246-0.051,0.364-0.081c0.078-0.021,0.164-0.05,0.249-0.078c1.816-0.575,4.02-2.35,4.869-5.024
				c0.054-0.17,0.194-0.298,0.369-0.337c0.175-0.038,0.356,0.019,0.477,0.15c0.1,0.109,0.17,0.139,0.196,0.139
				c0.218,0,0.75-0.764,0.75-2.179c0-0.201-0.074-0.892-0.122-1.279c-0.011-0.089,0.003-0.179,0.039-0.261l0,0
				c0,0,0.083-0.204,0.083-0.469C23,7.972,19.262,4,15,4c-0.276,0-0.5-0.224-0.5-0.5S14.724,3,15,3c4.794,0,9,4.439,9,9.5
				c0,0.313-0.065,0.575-0.115,0.728C23.92,13.521,24,14.236,24,14.509c0,1.812-0.752,3.179-1.75,3.179
				c-0.087,0-0.191-0.011-0.305-0.045c-0.959,2.382-2.98,4.336-5.294,5.068c-0.094,0.032-0.198,0.065-0.303,0.094
				c-0.153,0.04-0.297,0.074-0.445,0.099C15.557,22.968,15.242,23,14.948,23z"/>
		</g>
		<g>
			<path d="M12.5,14h-1c-0.276,0-0.5-0.224-0.5-0.5s0.224-0.5,0.5-0.5h1c0.276,0,0.5,0.224,0.5,0.5S12.776,14,12.5,14z"/>
		</g>
		<g>
			<path d="M18.5,14h-1c-0.276,0-0.5-0.224-0.5-0.5s0.224-0.5,0.5-0.5h1c0.276,0,0.5,0.224,0.5,0.5S18.776,14,18.5,14z"/>
		</g>
		<g>
			<path d="M15,30C6.729,30,0,23.271,0,15S6.729,0,15,0s15,6.729,15,15S23.271,30,15,30z M15,1C7.28,1,1,7.28,1,15s6.28,14,14,14
				s14-6.28,14-14S22.72,1,15,1z"/>
		</g>
		<g>
			<path d="M3.5,24c-0.227,0-0.432-0.155-0.486-0.386c-0.063-0.269,0.104-0.538,0.373-0.601c0.876-0.206,1.859-0.444,1.987-0.487
				l2.004-0.511c0.272-0.096,0.869-0.526,1.297-0.894l1.549-1.037c0.229-0.154,0.541-0.091,0.693,0.139
				c0.153,0.23,0.091,0.54-0.139,0.693l-1.5,1c-0.119,0.107-0.988,0.839-1.613,1.056l-2.005,0.511
				c-0.177,0.063-1.611,0.401-2.045,0.503C3.576,23.996,3.538,24,3.5,24z"/>
		</g>
		<g>
			<path d="M26.5,24c-0.038,0-0.076-0.004-0.115-0.013c-0.434-0.102-1.868-0.44-2.085-0.516l-1.923-0.486
				c-0.667-0.23-1.535-0.961-1.703-1.106l-1.451-0.963c-0.23-0.153-0.292-0.463-0.139-0.693c0.152-0.23,0.462-0.292,0.693-0.139
				l1.5,1c0.477,0.405,1.073,0.835,1.387,0.944l1.923,0.486c0.168,0.055,1.151,0.294,2.027,0.5c0.269,0.063,0.436,0.333,0.373,0.601
				C26.933,23.845,26.727,24,26.5,24z"/>
		</g>
		<g>
			<path d="M18.5,26c-0.086,0-0.172-0.022-0.248-0.066L15,24.076l-3.252,1.858c-0.12,0.069-0.262,0.084-0.393,0.044
				c-0.131-0.04-0.241-0.132-0.302-0.255l-2-4c-0.124-0.247-0.023-0.547,0.224-0.671c0.248-0.122,0.547-0.023,0.671,0.224
				l1.764,3.527l3.041-1.738c0.153-0.088,0.343-0.088,0.496,0l3.041,1.738l1.764-3.527c0.124-0.247,0.425-0.346,0.671-0.224
				c0.247,0.124,0.347,0.424,0.224,0.671l-2,4c-0.062,0.123-0.171,0.215-0.302,0.255C18.598,25.993,18.549,26,18.5,26z"/>
		</g>
		<g>
			<path d="M17,29.5c-0.184,0-0.36-0.101-0.448-0.276l-1-2c-0.077-0.154-0.069-0.336,0.02-0.483l0.777-1.277
				c0.021-0.034,0.045-0.065,0.074-0.094c0.089-0.089,0.092-0.193,0.085-0.247c-0.006-0.054-0.034-0.154-0.143-0.219L15,24.083
				l-1.354,0.813c-0.112,0.067-0.141,0.171-0.147,0.227c-0.007,0.056-0.005,0.163,0.088,0.256c0.028,0.028,0.053,0.06,0.074,0.095
				l0.768,1.268c0.089,0.146,0.096,0.329,0.02,0.482l-1,2c-0.124,0.247-0.424,0.346-0.671,0.224
				c-0.247-0.124-0.347-0.424-0.224-0.671l0.876-1.753l-0.597-0.986c-0.255-0.282-0.374-0.656-0.327-1.037
				c0.05-0.403,0.278-0.753,0.625-0.962l1.612-0.967c0.158-0.095,0.356-0.095,0.515,0l1.624,0.974
				c0.345,0.207,0.571,0.555,0.621,0.954c0.046,0.377-0.071,0.749-0.325,1.028l-0.606,0.996l0.876,1.752
				c0.124,0.247,0.023,0.547-0.224,0.671C17.152,29.483,17.076,29.5,17,29.5z"/>
		</g>
	</g>
</g>
<g id="Business_Woman_1">
</g>
<g id="Firefigyhter">
</g>
<g id="Policeman">
</g>
<g id="Criminal">
</g>
<g id="Prisoner">
</g>
<g id="Woodsman">
</g>
<g id="Dispatcher_1">
</g>
<g id="Dispatcher_2">
</g>
<g id="Soldier">
</g>
<g id="Astronaut">
</g>
<g id="Hipster_Guy">
</g>
<g id="Hipster_Girl">
</g>
<g id="Worker">
</g>
<g id="Old_Man">
</g>
<g id="Punk">
</g>
<g id="Diver">
</g>
<g id="Artist">
</g>
<g id="Dictator">
</g>
<g id="Man_Hat">
</g>
<g id="Woman_Hat">
</g>
<g id="Graduated_Man">
</g>
<g id="Graduated_Woman">
</g>
<g id="Avatar_Chef">
</g>
<g id="Waiter">
</g>
<g id="Waitress">
</g>
<g id="Bllboy">
</g>
<g id="Santa">
</g>
<g id="Doctor">
</g>
<g id="Nurse">
</g>
<g id="Captain">
</g>
<g id="Farmer">
</g>
<g id="Maid">
</g>
<g id="Business_Man_2">
</g>
<g id="Business_Woman_2">
</g>
<g id="Cowboy">
</g>
<g id="Anonymus">
</g>
<g id="Batman">
</g>
<g id="Superman">
</g>
<g id="Captain_America">
</g>
<g id="Darth_Vader">
</g>
<g id="Harry_Potter">
</g>
<g id="Anonymus_2">
</g>
<g id="Scream">
</g>
<g id="Jason">
</g>
<g id="Charlie_Chaplin">
</g>
</svg>
