<?xml version="1.0" encoding="iso-8859-1"?>
<!-- Generator: Adobe Illustrator 19.2.1, SVG Export Plug-In . SVG Version: 6.00 Build 0)  -->
<svg version="1.1" xmlns="http://www.w3.org/2000/svg" xmlns:xlink="http://www.w3.org/1999/xlink" x="0px" y="0px"
	 viewBox="0 0 30 30" style="enable-background:new 0 0 30 30;" xml:space="preserve">
<g id="Man_1">
</g>
<g id="Woman_1">
</g>
<g id="Man_2">
</g>
<g id="Woman_2">
</g>
<g id="Bald_Man">
</g>
<g id="Man_Glasses">
</g>
<g id="Woman_Glasses">
</g>
<g id="Man_Beard">
</g>
<g id="Man_Cap">
</g>
<g id="Woman_Cap">
</g>
<g id="Man_3">
</g>
<g id="Woman_3">
</g>
<g id="Men_4">
</g>
<g id="Woman_4">
</g>
<g id="Business_Man_1">
</g>
<g id="Business_Woman_1">
</g>
<g id="Firefigyhter">
</g>
<g id="Policeman">
</g>
<g id="Criminal">
</g>
<g id="Prisoner">
</g>
<g id="Woodsman">
</g>
<g id="Dispatcher_1">
</g>
<g id="Dispatcher_2">
</g>
<g id="Soldier">
</g>
<g id="Astronaut">
</g>
<g id="Hipster_Guy">
</g>
<g id="Hipster_Girl">
</g>
<g id="Worker">
</g>
<g id="Old_Man">
</g>
<g id="Punk">
</g>
<g id="Diver">
</g>
<g id="Artist">
</g>
<g id="Dictator">
</g>
<g id="Man_Hat">
</g>
<g id="Woman_Hat">
</g>
<g id="Graduated_Man">
</g>
<g id="Graduated_Woman">
</g>
<g id="Avatar_Chef">
</g>
<g id="Waiter">
</g>
<g id="Waitress">
</g>
<g id="Bllboy">
</g>
<g id="Santa">
</g>
<g id="Doctor">
</g>
<g id="Nurse">
</g>
<g id="Captain">
</g>
<g id="Farmer">
</g>
<g id="Maid">
</g>
<g id="Business_Man_2">
	<g>
		<g>
			<path d="M26.5,24c-0.06,0-0.12-0.011-0.179-0.033c-0.166-0.046-1.013-0.172-1.575-0.256c-1-0.149-1.288-0.195-1.411-0.239
				l-1.493-0.497c-0.633-0.221-1.5-0.951-1.668-1.096l-1.027-1.025c-0.195-0.195-0.195-0.512,0-0.707s0.512-0.195,0.707,0l1,1
				c0.399,0.342,0.997,0.771,1.312,0.882l1.493,0.497c0.104,0.027,0.731,0.121,1.235,0.196c1.378,0.206,1.666,0.257,1.812,0.322
				c0.252,0.113,0.364,0.409,0.251,0.661C26.873,23.891,26.69,24,26.5,24z"/>
		</g>
		<g>
			<path d="M3.475,24.012c-0.188,0-0.363-0.113-0.447-0.301c-0.113-0.251,0.016-0.554,0.268-0.667
				c0.146-0.065,0.434-0.116,1.812-0.322c0.504-0.075,1.132-0.169,1.245-0.199l1.49-0.497c0.308-0.107,0.905-0.537,1.332-0.904
				l0.973-0.975c0.195-0.195,0.512-0.195,0.707,0s0.195,0.512,0,0.707l-1,1c-0.195,0.17-1.063,0.9-1.688,1.118l-1.507,0.503
				c-0.116,0.041-0.404,0.087-1.404,0.236c-0.57,0.085-1.434,0.214-1.582,0.258C3.606,23.998,3.54,24.012,3.475,24.012z"/>
		</g>
		<g>
			<path d="M14.948,23c-0.297,0-0.603-0.031-0.962-0.097c-0.142-0.025-0.284-0.06-0.428-0.097c-0.116-0.031-0.22-0.064-0.324-0.1
				c-2.24-0.709-4.222-2.662-5.181-5.064c-0.113,0.033-0.217,0.045-0.304,0.045c-0.998,0-1.75-1.366-1.75-3.179
				c0-0.272,0.08-0.987,0.114-1.28C6.065,13.075,6,12.813,6,12.5C6,7.439,10.206,3,15,3c0.276,0,0.5,0.224,0.5,0.5S15.276,4,15,4
				c-4.262,0-8,3.972-8,8.5c0,0.267,0.084,0.472,0.085,0.474c0.033,0.08,0.047,0.171,0.036,0.256C7.074,13.618,7,14.309,7,14.509
				c0,1.415,0.532,2.179,0.75,2.179c0.025,0,0.096-0.029,0.195-0.139c0.122-0.132,0.307-0.188,0.477-0.15
				c0.175,0.038,0.315,0.167,0.369,0.337c0.754,2.375,2.62,4.346,4.755,5.021c0.096,0.032,0.182,0.06,0.268,0.083
				c0.109,0.027,0.229,0.058,0.35,0.079C14.466,21.975,14.714,22,14.948,22c0.276,0,0.5,0.224,0.5,0.5S15.225,23,14.948,23z"/>
		</g>
		<g>
			<path d="M14.948,23c-0.276,0-0.5-0.224-0.5-0.5s0.224-0.5,0.5-0.5c0.234,0,0.482-0.025,0.779-0.08
				c0.128-0.022,0.246-0.053,0.366-0.082c0.075-0.021,0.16-0.049,0.245-0.078c1.817-0.574,4.021-2.349,4.87-5.024
				c0.054-0.17,0.194-0.299,0.369-0.337c0.171-0.039,0.355,0.019,0.477,0.15c0.1,0.109,0.17,0.139,0.195,0.139
				c0.218,0,0.75-0.764,0.75-2.179c0-0.201-0.074-0.891-0.121-1.279c-0.011-0.088,0.002-0.178,0.038-0.26l0,0
				c0,0,0.083-0.205,0.083-0.47C23,7.972,19.262,4,15,4c-0.276,0-0.5-0.224-0.5-0.5S14.724,3,15,3c4.794,0,9,4.439,9,9.5
				c0,0.313-0.065,0.575-0.114,0.729C23.92,13.521,24,14.236,24,14.509c0,1.813-0.752,3.179-1.75,3.179
				c-0.087,0-0.19-0.012-0.305-0.046c-0.96,2.384-2.981,4.337-5.295,5.068c-0.094,0.032-0.196,0.065-0.302,0.095
				c-0.154,0.039-0.298,0.073-0.444,0.099C15.551,22.969,15.245,23,14.948,23z"/>
		</g>
		<g>
			<path d="M12.5,14h-1c-0.276,0-0.5-0.224-0.5-0.5s0.224-0.5,0.5-0.5h1c0.276,0,0.5,0.224,0.5,0.5S12.776,14,12.5,14z"/>
		</g>
		<g>
			<path d="M18.5,14h-1c-0.276,0-0.5-0.224-0.5-0.5s0.224-0.5,0.5-0.5h1c0.276,0,0.5,0.224,0.5,0.5S18.776,14,18.5,14z"/>
		</g>
		<g>
			<path d="M15,30C6.729,30,0,23.271,0,15S6.729,0,15,0s15,6.729,15,15S23.271,30,15,30z M15,1C7.28,1,1,7.28,1,15s6.28,14,14,14
				s14-6.28,14-14S22.72,1,15,1z"/>
		</g>
		<g>
			<path d="M21.5,13.5c-0.14,0-0.276-0.059-0.374-0.168C21.101,13.304,20.5,12.615,20.5,11.5c0-0.276,0.224-0.5,0.5-0.5
				s0.5,0.224,0.5,0.5c0,0.38,0.101,0.68,0.198,0.881C22.134,12.221,22.85,12,23.5,12c0.276,0,0.5,0.224,0.5,0.5S23.776,13,23.5,13
				c-0.652,0-1.516,0.328-1.792,0.455C21.641,13.485,21.57,13.5,21.5,13.5z"/>
		</g>
		<g>
			<path d="M8.5,13.5c-0.069,0-0.139-0.015-0.203-0.043C8.287,13.452,7.256,13,6.5,13C6.224,13,6,12.776,6,12.5S6.224,12,6.5,12
				c0.599,0,1.279,0.198,1.724,0.355C8.682,11.309,9.876,9,11.5,9C11.776,9,12,9.224,12,9.5S11.776,10,11.5,10
				c-1.016,0-2.145,2.14-2.531,3.175c-0.049,0.129-0.148,0.232-0.275,0.286C8.632,13.487,8.565,13.5,8.5,13.5z"/>
		</g>
		<g>
			<path d="M21.5,12h-7c-1.047,0-1.883-0.423-2.416-1.223l-2-3c-0.153-0.229-0.091-0.54,0.139-0.693
				c0.228-0.152,0.539-0.092,0.693,0.139l2,3C13.265,10.746,13.783,11,14.5,11h7c0.276,0,0.5,0.224,0.5,0.5S21.776,12,21.5,12z"/>
		</g>
		<g>
			<path d="M21.5,12c-1.047,0-1.883-0.423-2.416-1.223l-2-3c-0.153-0.229-0.091-0.54,0.139-0.693
				c0.228-0.152,0.539-0.092,0.693,0.139l2,3C20.265,10.746,20.783,11,21.5,11c0.276,0,0.5,0.224,0.5,0.5S21.776,12,21.5,12z"/>
		</g>
		<g>
			<path d="M18.5,26c-0.086,0-0.172-0.022-0.248-0.065L15,24.076l-3.252,1.858c-0.119,0.067-0.263,0.085-0.393,0.044
				c-0.132-0.04-0.241-0.132-0.303-0.255l-2-4c-0.123-0.247-0.023-0.547,0.224-0.671c0.248-0.124,0.547-0.023,0.671,0.224
				l1.764,3.527l3.041-1.738c0.154-0.088,0.342-0.088,0.496,0l3.041,1.738l1.764-3.527c0.124-0.246,0.425-0.347,0.671-0.224
				c0.247,0.124,0.347,0.424,0.224,0.671l-2,4c-0.062,0.123-0.171,0.215-0.303,0.255C18.598,25.993,18.549,26,18.5,26z"/>
		</g>
		<g>
			<path d="M17,29.5c-0.183,0-0.359-0.102-0.447-0.276l-1-2c-0.077-0.154-0.069-0.337,0.021-0.483l0.777-1.277
				c0.021-0.034,0.045-0.065,0.073-0.094c0.089-0.09,0.092-0.193,0.085-0.247s-0.034-0.154-0.142-0.219L15,24.083l-1.355,0.813
				c-0.111,0.067-0.14,0.172-0.146,0.228s-0.005,0.163,0.088,0.256c0.028,0.028,0.054,0.061,0.074,0.095l0.768,1.268
				c0.089,0.146,0.097,0.329,0.02,0.482l-1,2c-0.124,0.247-0.423,0.35-0.671,0.224c-0.247-0.124-0.347-0.424-0.224-0.671
				l0.877-1.753l-0.598-0.986c-0.255-0.282-0.374-0.656-0.327-1.036c0.05-0.402,0.277-0.753,0.625-0.963l1.613-0.967
				c0.158-0.096,0.355-0.096,0.514,0l1.624,0.975c0.346,0.207,0.571,0.555,0.62,0.954c0.047,0.377-0.071,0.748-0.324,1.027
				l-0.605,0.996l0.876,1.753c0.123,0.247,0.023,0.547-0.224,0.671C17.151,29.483,17.075,29.5,17,29.5z"/>
		</g>
		<g>
			<path d="M15,20c-1.67,0-2.804-1.097-2.851-1.144c-0.197-0.194-0.199-0.511-0.006-0.707c0.193-0.197,0.509-0.201,0.706-0.007l0,0
				C12.858,18.151,13.749,19,15,19s2.142-0.849,2.15-0.857c0.199-0.192,0.514-0.188,0.707,0.009
				c0.192,0.197,0.189,0.512-0.007,0.705C17.804,18.903,16.67,20,15,20z"/>
		</g>
	</g>
</g>
<g id="Business_Woman_2">
</g>
<g id="Cowboy">
</g>
<g id="Anonymus">
</g>
<g id="Batman">
</g>
<g id="Superman">
</g>
<g id="Captain_America">
</g>
<g id="Darth_Vader">
</g>
<g id="Harry_Potter">
</g>
<g id="Anonymus_2">
</g>
<g id="Scream">
</g>
<g id="Jason">
</g>
<g id="Charlie_Chaplin">
</g>
</svg>
