<?xml version="1.0" encoding="iso-8859-1"?>
<!-- Generator: Adobe Illustrator 19.2.1, SVG Export Plug-In . SVG Version: 6.00 Build 0)  -->
<svg version="1.1" xmlns="http://www.w3.org/2000/svg" xmlns:xlink="http://www.w3.org/1999/xlink" x="0px" y="0px"
	 viewBox="0 0 30 30" style="enable-background:new 0 0 30 30;" xml:space="preserve">
<g id="Man_1">
</g>
<g id="Woman_1">
</g>
<g id="Man_2">
</g>
<g id="Woman_2">
</g>
<g id="Bald_Man">
</g>
<g id="Man_Glasses">
</g>
<g id="Woman_Glasses">
</g>
<g id="Man_Beard">
</g>
<g id="Man_Cap">
</g>
<g id="Woman_Cap">
</g>
<g id="Man_3">
</g>
<g id="Woman_3">
</g>
<g id="Men_4">
</g>
<g id="Woman_4">
</g>
<g id="Business_Man_1">
</g>
<g id="Business_Woman_1">
</g>
<g id="Firefigyhter">
</g>
<g id="Policeman">
</g>
<g id="Criminal">
</g>
<g id="Prisoner">
</g>
<g id="Woodsman">
</g>
<g id="Dispatcher_1">
</g>
<g id="Dispatcher_2">
</g>
<g id="Soldier">
</g>
<g id="Astronaut">
</g>
<g id="Hipster_Guy">
</g>
<g id="Hipster_Girl">
</g>
<g id="Worker">
</g>
<g id="Old_Man">
</g>
<g id="Punk">
</g>
<g id="Diver">
</g>
<g id="Artist">
</g>
<g id="Dictator">
</g>
<g id="Man_Hat">
</g>
<g id="Woman_Hat">
</g>
<g id="Graduated_Man">
</g>
<g id="Graduated_Woman">
</g>
<g id="Avatar_Chef">
</g>
<g id="Waiter">
</g>
<g id="Waitress">
</g>
<g id="Bllboy">
</g>
<g id="Santa">
</g>
<g id="Doctor">
</g>
<g id="Nurse">
</g>
<g id="Captain">
</g>
<g id="Farmer">
</g>
<g id="Maid">
</g>
<g id="Business_Man_2">
</g>
<g id="Business_Woman_2">
</g>
<g id="Cowboy">
</g>
<g id="Anonymus">
</g>
<g id="Batman">
</g>
<g id="Superman">
</g>
<g id="Captain_America">
</g>
<g id="Darth_Vader">
</g>
<g id="Harry_Potter">
</g>
<g id="Anonymus_2">
</g>
<g id="Scream">
</g>
<g id="Jason">
</g>
<g id="Charlie_Chaplin">
	<g>
		<g>
			<path d="M25,26c-0.068,0-0.139-0.014-0.205-0.044c-0.129-0.058-0.635-0.218-1.015-0.339c-0.203-0.065-0.373-0.12-0.445-0.146
				l-1.493-0.497c-0.633-0.221-1.5-0.951-1.668-1.096l-0.527-0.525c-0.195-0.195-0.195-0.512,0-0.707s0.512-0.195,0.707,0l0.5,0.5
				c0.399,0.342,0.997,0.771,1.312,0.882l1.493,0.497c0.075,0.026,0.235,0.078,0.427,0.139c0.42,0.135,0.978,0.316,1.12,0.38
				c0.252,0.113,0.364,0.409,0.251,0.661C25.373,25.891,25.19,26,25,26z"/>
		</g>
		<g>
			<path d="M5,26c-0.19,0-0.373-0.109-0.456-0.295c-0.113-0.252-0.001-0.548,0.251-0.661c0.143-0.063,0.7-0.245,1.12-0.38
				c0.191-0.061,0.352-0.112,0.42-0.136l1.507-0.503c0.308-0.107,0.905-0.537,1.332-0.904l0.473-0.475
				c0.195-0.195,0.512-0.195,0.707,0s0.195,0.512,0,0.707l-0.5,0.5c-0.195,0.17-1.063,0.9-1.688,1.118l-1.507,0.503
				c-0.065,0.022-0.235,0.077-0.438,0.143c-0.38,0.121-0.886,0.281-1.015,0.339C5.139,25.986,5.068,26,5,26z"/>
		</g>
		<g>
			<path d="M12.5,17h-1c-0.276,0-0.5-0.224-0.5-0.5s0.224-0.5,0.5-0.5h1c0.276,0,0.5,0.224,0.5,0.5S12.776,17,12.5,17z"/>
		</g>
		<g>
			<path d="M18.5,17h-1c-0.276,0-0.5-0.224-0.5-0.5s0.224-0.5,0.5-0.5h1c0.276,0,0.5,0.224,0.5,0.5S18.776,17,18.5,17z"/>
		</g>
		<g>
			<path d="M15,30C6.729,30,0,23.271,0,15S6.729,0,15,0s15,6.729,15,15S23.271,30,15,30z M15,1C7.28,1,1,7.28,1,15s6.28,14,14,14
				s14-6.28,14-14S22.72,1,15,1z"/>
		</g>
		<g>
			<path d="M15,25c-0.348,0-0.625-0.043-0.902-0.09c-0.145-0.024-0.286-0.056-0.429-0.09c-0.113-0.028-0.217-0.06-0.321-0.093
				C10.927,24.013,9.047,22.299,8.15,20H8c-1.047,0-2-1.43-2-3c0-1.906,0.547-3,1.5-3v-0.5C7.5,13.224,7.724,13,8,13
				s0.5,0.224,0.5,0.5v1C8.5,14.776,8.276,15,8,15H7.5C7.331,15,7,15.604,7,17c0,1.224,0.703,2,1,2h0.5
				c0.214,0,0.404,0.137,0.474,0.339c0.733,2.158,2.435,3.773,4.668,4.433c0.096,0.03,0.18,0.056,0.267,0.078
				c0.112,0.026,0.232,0.054,0.355,0.074C14.554,23.974,14.755,24,15,24c0.247,0,0.561-0.028,0.839-0.076
				c0.124-0.021,0.244-0.048,0.365-0.076c0.078-0.021,0.163-0.046,0.248-0.073c2.17-0.641,3.834-2.256,4.574-4.436
				c0.057-0.164,0.193-0.288,0.363-0.326c0.108-0.025,0.223-0.011,0.322,0.034C21.797,19.021,21.891,19,22,19c0.297,0,1-0.776,1-2
				c0-1.396-0.331-2-0.5-2H22c-0.276,0-0.5-0.224-0.5-0.5v-1c0-0.276,0.224-0.5,0.5-0.5s0.5,0.224,0.5,0.5V14
				c0.953,0,1.5,1.094,1.5,3c0,1.57-0.953,3-2,3c-0.042,0.016-0.101,0.037-0.171,0.053c-0.907,2.293-2.739,3.985-5.083,4.678
				c-0.094,0.03-0.198,0.062-0.303,0.088c-0.151,0.036-0.293,0.067-0.438,0.092C15.671,24.967,15.305,25,15,25z"/>
		</g>
		<g>
			<path d="M15,14c-9.75,0-11-1.336-11-2.5c0-1.495,1.979-2.036,3.915-2.368C8.188,9.086,8.446,9.268,8.493,9.54
				c0.046,0.272-0.137,0.531-0.408,0.578C6.678,10.359,5,10.795,5,11.5C5,11.562,5.113,13,15,13s10-1.438,10-1.5
				c0-0.19-0.24-0.852-3.335-1.382c-0.271-0.047-0.454-0.306-0.408-0.578c0.047-0.272,0.303-0.454,0.578-0.408
				C23.773,9.465,26,10.034,26,11.5C26,12.664,24.75,14,15,14z"/>
		</g>
		<g>
			<path d="M15,11c-5.544,0-6.697-0.971-6.872-1.166C7.943,9.629,7.96,9.313,8.166,9.128C8.364,8.949,8.665,8.96,8.852,9.145
				C8.914,9.192,10.03,10,15,10c5.099,0,6.142-0.85,6.151-0.858c0.185-0.205,0.489-0.211,0.694-0.025
				c0.206,0.185,0.211,0.513,0.026,0.718C21.697,10.029,20.544,11,15,11z"/>
		</g>
		<g>
			<path d="M21.5,11c-0.276,0-0.5-0.224-0.5-0.5v-2C21,6.019,18.981,4,16.5,4h-3C11.019,4,9,6.019,9,8.5v2C9,10.776,8.776,11,8.5,11
				S8,10.776,8,10.5v-2C8,5.468,10.468,3,13.5,3h3C19.532,3,22,5.468,22,8.5v2C22,10.776,21.776,11,21.5,11z"/>
		</g>
		<g>
			<path d="M10.5,15.999c-0.063,0-0.126-0.012-0.188-0.036c-0.255-0.104-0.379-0.394-0.276-0.649C10.124,15.095,10.608,14,11.5,14
				c0.276,0,0.5,0.224,0.5,0.5S11.776,15,11.5,15c-0.124,0-0.4,0.354-0.536,0.688C10.885,15.882,10.697,15.999,10.5,15.999z"/>
		</g>
		<g>
			<path d="M19.5,15.999c-0.197,0-0.385-0.117-0.464-0.312C18.9,15.354,18.624,15,18.5,15c-0.276,0-0.5-0.224-0.5-0.5
				s0.224-0.5,0.5-0.5c0.892,0,1.376,1.095,1.464,1.313c0.103,0.256-0.021,0.546-0.276,0.649
				C19.626,15.987,19.563,15.999,19.5,15.999z"/>
		</g>
		<g>
			<path d="M16,22h-2c-0.173,0-0.334-0.09-0.426-0.237c-0.091-0.147-0.099-0.331-0.021-0.486l0.5-1C14.138,20.107,14.311,20,14.5,20
				h1c0.189,0,0.362,0.107,0.447,0.276l0.5,1c0.077,0.155,0.069,0.339-0.021,0.486C16.334,21.91,16.173,22,16,22z"/>
		</g>
		<g>
			<path d="M15,30c-0.082,0-0.164-0.02-0.239-0.062l-6.875-3.75c-0.12-0.065-0.208-0.177-0.244-0.31
				c-0.035-0.132-0.015-0.272,0.057-0.39l1.909-3.125c0.087-0.143,0.24-0.232,0.407-0.239c0.172,0.005,0.327,0.071,0.425,0.207
				l4.966,6.875c0.137,0.189,0.124,0.448-0.03,0.623C15.277,29.941,15.14,30,15,30z M8.825,25.563l4.479,2.442l-3.234-4.478
				L8.825,25.563z"/>
		</g>
		<g>
			<path d="M14.625,30c-0.14,0-0.277-0.059-0.375-0.17c-0.154-0.175-0.167-0.434-0.03-0.623l4.966-6.875
				c0.099-0.136,0.258-0.201,0.425-0.207c0.167,0.007,0.32,0.097,0.407,0.239l1.909,3.125c0.071,0.117,0.092,0.258,0.057,0.39
				c-0.036,0.133-0.124,0.244-0.244,0.31l-6.875,3.75C14.789,29.98,14.707,30,14.625,30z M19.556,23.527l-3.234,4.478l4.479-2.442
				L19.556,23.527z"/>
		</g>
	</g>
</g>
</svg>
