<?xml version="1.0" encoding="iso-8859-1"?>
<!-- Generator: Adobe Illustrator 19.2.1, SVG Export Plug-In . SVG Version: 6.00 Build 0)  -->
<svg version="1.1" xmlns="http://www.w3.org/2000/svg" xmlns:xlink="http://www.w3.org/1999/xlink" x="0px" y="0px"
	 viewBox="0 0 30 30" style="enable-background:new 0 0 30 30;" xml:space="preserve">
<g id="Man_1">
</g>
<g id="Woman_1">
</g>
<g id="Man_2">
</g>
<g id="Woman_2">
</g>
<g id="Bald_Man">
</g>
<g id="Man_Glasses">
</g>
<g id="Woman_Glasses">
</g>
<g id="Man_Beard">
</g>
<g id="Man_Cap">
</g>
<g id="Woman_Cap">
</g>
<g id="Man_3">
</g>
<g id="Woman_3">
</g>
<g id="Men_4">
</g>
<g id="Woman_4">
</g>
<g id="Business_Man_1">
</g>
<g id="Business_Woman_1">
</g>
<g id="Firefigyhter">
</g>
<g id="Policeman">
</g>
<g id="Criminal">
</g>
<g id="Prisoner">
</g>
<g id="Woodsman">
</g>
<g id="Dispatcher_1">
</g>
<g id="Dispatcher_2">
</g>
<g id="Soldier">
</g>
<g id="Astronaut">
</g>
<g id="Hipster_Guy">
</g>
<g id="Hipster_Girl">
</g>
<g id="Worker">
</g>
<g id="Old_Man">
</g>
<g id="Punk">
</g>
<g id="Diver">
</g>
<g id="Artist">
</g>
<g id="Dictator">
</g>
<g id="Man_Hat">
</g>
<g id="Woman_Hat">
</g>
<g id="Graduated_Man">
</g>
<g id="Graduated_Woman">
</g>
<g id="Avatar_Chef">
</g>
<g id="Waiter">
</g>
<g id="Waitress">
</g>
<g id="Bllboy">
</g>
<g id="Santa">
</g>
<g id="Doctor">
</g>
<g id="Nurse">
</g>
<g id="Captain">
</g>
<g id="Farmer">
</g>
<g id="Maid">
</g>
<g id="Business_Man_2">
</g>
<g id="Business_Woman_2">
</g>
<g id="Cowboy">
</g>
<g id="Anonymus">
</g>
<g id="Batman">
</g>
<g id="Superman">
</g>
<g id="Captain_America">
</g>
<g id="Darth_Vader">
	<g>
		<g>
			<path d="M18.5,21h-7c-0.187,0-0.357-0.104-0.443-0.27c-0.086-0.165-0.073-0.364,0.034-0.518l3.5-5
				c0.188-0.266,0.632-0.266,0.819,0l3.5,5c0.107,0.153,0.12,0.353,0.034,0.518C18.857,20.896,18.687,21,18.5,21z M12.46,20h5.079
				L15,16.372L12.46,20z"/>
		</g>
		<g>
			<path d="M24.5,20c-0.199,0-0.387-0.12-0.465-0.316C22.554,15.939,19.471,10,17.5,10c-0.431,0-0.724,0.203-1.064,0.438
				C16.057,10.702,15.626,11,15,11s-1.057-0.298-1.436-0.562C13.224,10.203,12.931,10,12.5,10c-1.971,0-5.054,5.939-6.535,9.684
				c-0.102,0.257-0.392,0.384-0.649,0.281c-0.256-0.102-0.382-0.392-0.281-0.648C5.453,18.261,9.208,9,12.5,9
				c0.744,0,1.237,0.342,1.634,0.617c0.685,0.475,1.048,0.475,1.732,0C16.263,9.342,16.756,9,17.5,9
				c3.292,0,7.047,9.261,7.465,10.316c0.102,0.257-0.024,0.547-0.281,0.648C24.624,19.989,24.562,20,24.5,20z"/>
		</g>
		<g>
			<path d="M15,7.5c-1.103,0-2-0.813-2-1.813V3.5C13,3.224,13.224,3,13.5,3h3C16.776,3,17,3.224,17,3.5v2.188
				C17,6.687,16.103,7.5,15,7.5z M14,4v1.688C14,6.136,14.449,6.5,15,6.5s1-0.364,1-0.813V4H14z"/>
		</g>
		<g>
			<path d="M25.5,25.5c-0.064,0-0.129-0.013-0.192-0.038l-6-2.5c-0.255-0.106-0.375-0.399-0.269-0.654s0.401-0.371,0.654-0.27l6,2.5
				c0.255,0.106,0.375,0.399,0.269,0.654C25.881,25.385,25.696,25.5,25.5,25.5z"/>
		</g>
		<g>
			<path d="M4.5,25.5c-0.196,0-0.381-0.115-0.461-0.308c-0.106-0.255,0.014-0.548,0.269-0.654l6-2.5
				c0.255-0.103,0.548,0.015,0.654,0.27c0.106,0.255-0.014,0.548-0.269,0.654l-6,2.5C4.629,25.487,4.564,25.5,4.5,25.5z"/>
		</g>
		<g>
			<path d="M19.5,23c-0.218,0-0.418-0.144-0.48-0.364c-0.075-0.266,0.079-0.542,0.345-0.617c2.838-0.802,4.193-2.166,4.591-2.634
				l-1.94-7.764C22.005,11.582,22,11.541,22,11.5v-2C22,6.464,17.764,4,15,4S8,6.464,8,9.5v2c0,0.041-0.005,0.082-0.015,0.121
				l-1.94,7.764c0.396,0.466,1.751,1.831,4.591,2.634c0.266,0.075,0.42,0.352,0.345,0.617c-0.075,0.267-0.354,0.418-0.617,0.346
				c-3.836-1.084-5.224-3.119-5.281-3.205c-0.078-0.117-0.103-0.261-0.068-0.397L7,11.438V9.5C7,5.729,11.778,3,15,3s8,2.729,8,6.5
				v1.938l1.985,7.94c0.034,0.137,0.009,0.28-0.068,0.397c-0.057,0.086-1.445,2.121-5.281,3.205C19.59,22.994,19.545,23,19.5,23z"/>
		</g>
		<g>
			<path d="M18.5,21c-0.04,0-0.081-0.005-0.122-0.015c-0.268-0.067-0.431-0.339-0.364-0.606l0.875-3.502L15,16.012l-3.891,0.865
				l0.875,3.502c0.067,0.268-0.096,0.539-0.364,0.606c-0.269,0.063-0.539-0.097-0.606-0.364l-1-4
				c-0.033-0.131-0.011-0.27,0.06-0.384c0.071-0.115,0.185-0.196,0.317-0.226l4.5-1c0.071-0.016,0.146-0.016,0.217,0l4.5,1
				c0.132,0.029,0.246,0.11,0.317,0.226c0.071,0.114,0.092,0.253,0.06,0.384l-1,4C18.928,20.849,18.725,21,18.5,21z"/>
		</g>
		<g>
			<path d="M13.5,14h-3c-0.185,0-0.355-0.103-0.442-0.266c-0.086-0.164-0.076-0.362,0.028-0.516C10.171,13.094,10.945,12,12,12
				c1.008,0,1.817,1.085,1.906,1.208c0.109,0.152,0.124,0.354,0.039,0.521S13.688,14,13.5,14z M12,13h0.01H12z"/>
		</g>
		<g>
			<path d="M19.5,14h-3c-0.185,0-0.355-0.103-0.442-0.266c-0.086-0.164-0.076-0.362,0.028-0.516C16.171,13.094,16.945,12,18,12
				c1.008,0,1.817,1.085,1.906,1.208c0.109,0.152,0.124,0.354,0.039,0.521S19.688,14,19.5,14z M18,13h0.01H18z"/>
		</g>
		<g>
			<path d="M15,30C6.729,30,0,23.271,0,15S6.729,0,15,0s15,6.729,15,15S23.271,30,15,30z M15,1C7.28,1,1,7.28,1,15s6.28,14,14,14
				s14-6.28,14-14S22.72,1,15,1z"/>
		</g>
	</g>
</g>
<g id="Harry_Potter">
</g>
<g id="Anonymus_2">
</g>
<g id="Scream">
</g>
<g id="Jason">
</g>
<g id="Charlie_Chaplin">
</g>
</svg>
