<?xml version="1.0" encoding="iso-8859-1"?>
<!-- Generator: Adobe Illustrator 19.2.1, SVG Export Plug-In . SVG Version: 6.00 Build 0)  -->
<svg version="1.1" xmlns="http://www.w3.org/2000/svg" xmlns:xlink="http://www.w3.org/1999/xlink" x="0px" y="0px"
	 viewBox="0 0 30 30" style="enable-background:new 0 0 30 30;" xml:space="preserve">
<g id="Man_1">
</g>
<g id="Woman_1">
</g>
<g id="Man_2">
</g>
<g id="Woman_2">
</g>
<g id="Bald_Man">
</g>
<g id="Man_Glasses">
</g>
<g id="Woman_Glasses">
</g>
<g id="Man_Beard">
</g>
<g id="Man_Cap">
</g>
<g id="Woman_Cap">
</g>
<g id="Man_3">
</g>
<g id="Woman_3">
</g>
<g id="Men_4">
</g>
<g id="Woman_4">
</g>
<g id="Business_Man_1">
</g>
<g id="Business_Woman_1">
</g>
<g id="Firefigyhter">
</g>
<g id="Policeman">
</g>
<g id="Criminal">
</g>
<g id="Prisoner">
</g>
<g id="Woodsman">
</g>
<g id="Dispatcher_1">
</g>
<g id="Dispatcher_2">
</g>
<g id="Soldier">
</g>
<g id="Astronaut">
</g>
<g id="Hipster_Guy">
</g>
<g id="Hipster_Girl">
</g>
<g id="Worker">
</g>
<g id="Old_Man">
</g>
<g id="Punk">
</g>
<g id="Diver">
</g>
<g id="Artist">
</g>
<g id="Dictator">
</g>
<g id="Man_Hat">
</g>
<g id="Woman_Hat">
</g>
<g id="Graduated_Man">
	<g>
		<g>
			<path d="M25,26c-0.068,0-0.139-0.014-0.205-0.044c-0.129-0.058-0.635-0.218-1.015-0.339c-0.203-0.065-0.373-0.12-0.445-0.146
				l-1.493-0.497c-0.633-0.221-1.5-0.951-1.668-1.096l-0.527-0.525c-0.195-0.195-0.195-0.512,0-0.707s0.512-0.195,0.707,0l0.5,0.5
				c0.399,0.342,0.997,0.771,1.312,0.882l1.493,0.497c0.075,0.026,0.235,0.078,0.427,0.139c0.42,0.135,0.978,0.316,1.12,0.38
				c0.252,0.113,0.364,0.409,0.251,0.661C25.373,25.891,25.19,26,25,26z"/>
		</g>
		<g>
			<path d="M5,26c-0.19,0-0.373-0.109-0.456-0.295c-0.113-0.252-0.001-0.548,0.251-0.661c0.143-0.063,0.7-0.245,1.12-0.38
				c0.191-0.061,0.352-0.112,0.42-0.136l1.507-0.503c0.308-0.107,0.905-0.537,1.332-0.904l0.473-0.475
				c0.195-0.195,0.512-0.195,0.707,0s0.195,0.512,0,0.707l-0.5,0.5c-0.195,0.17-1.063,0.9-1.688,1.118l-1.507,0.503
				c-0.065,0.022-0.235,0.077-0.438,0.143c-0.38,0.121-0.886,0.281-1.015,0.339C5.139,25.986,5.068,26,5,26z"/>
		</g>
		<g>
			<path d="M12.5,16h-1c-0.276,0-0.5-0.224-0.5-0.5s0.224-0.5,0.5-0.5h1c0.276,0,0.5,0.224,0.5,0.5S12.776,16,12.5,16z"/>
		</g>
		<g>
			<path d="M18.5,16h-1c-0.276,0-0.5-0.224-0.5-0.5s0.224-0.5,0.5-0.5h1c0.276,0,0.5,0.224,0.5,0.5S18.776,16,18.5,16z"/>
		</g>
		<g>
			<path d="M15,30C6.729,30,0,23.271,0,15S6.729,0,15,0s15,6.729,15,15S23.271,30,15,30z M15,1C7.28,1,1,7.28,1,15s6.28,14,14,14
				s14-6.28,14-14S22.72,1,15,1z"/>
		</g>
		<g>
			<path d="M15,25c-0.348,0-0.625-0.043-0.902-0.09c-0.145-0.024-0.286-0.056-0.429-0.09c-0.113-0.028-0.217-0.06-0.321-0.093
				C10.927,24.013,9.047,22.299,8.15,20H8c-1.047,0-2-1.43-2-3c0-1.906,0.547-3,1.5-3h0.014c0.043-0.735,0.183-1.155,0.353-1.665
				c0.049-0.146,0.101-0.303,0.155-0.481c0.081-0.263,0.357-0.414,0.625-0.332c0.264,0.081,0.412,0.361,0.332,0.625
				c-0.058,0.188-0.112,0.352-0.163,0.504C8.618,13.241,8.5,13.598,8.5,14.5C8.5,14.776,8.276,15,8,15H7.5C7.331,15,7,15.604,7,17
				c0,1.224,0.703,2,1,2h0.5c0.214,0,0.404,0.137,0.474,0.339c0.733,2.158,2.435,3.773,4.668,4.433
				c0.096,0.03,0.18,0.056,0.267,0.078c0.112,0.026,0.232,0.054,0.355,0.074C14.554,23.974,14.755,24,15,24
				c0.247,0,0.561-0.028,0.839-0.076c0.124-0.021,0.244-0.048,0.365-0.076c0.078-0.021,0.163-0.046,0.248-0.073
				c2.17-0.641,3.834-2.256,4.574-4.436c0.057-0.164,0.193-0.288,0.363-0.326c0.108-0.025,0.223-0.011,0.322,0.034
				C21.797,19.021,21.891,19,22,19c0.297,0,1-0.776,1-2c0-1.396-0.331-2-0.5-2H22c-0.276,0-0.5-0.224-0.5-0.5
				c0-0.896-0.118-1.252-0.313-1.841c-0.052-0.155-0.106-0.323-0.165-0.514c-0.08-0.265,0.069-0.544,0.333-0.624
				c0.268-0.08,0.544,0.069,0.624,0.333c0.056,0.183,0.108,0.342,0.157,0.489c0.168,0.508,0.308,0.928,0.351,1.656H22.5
				c0.953,0,1.5,1.094,1.5,3c0,1.57-0.953,3-2,3c-0.042,0.016-0.101,0.037-0.171,0.053c-0.907,2.293-2.739,3.985-5.083,4.678
				c-0.094,0.03-0.198,0.062-0.303,0.088c-0.151,0.036-0.293,0.067-0.438,0.092C15.671,24.967,15.305,25,15,25z"/>
		</g>
		<g>
			<path d="M15,13c-4.517,0-6.632-1.008-6.72-1.051c-0.194-0.095-0.306-0.306-0.275-0.52l0.5-3.5
				c0.04-0.274,0.299-0.458,0.565-0.425C9.344,7.544,9.534,7.797,9.495,8.07l-0.444,3.111C9.78,11.442,11.725,12,15,12
				c3.226,0,5.203-0.561,5.949-0.822L20.505,8.07c-0.039-0.273,0.151-0.526,0.425-0.565c0.268-0.032,0.526,0.15,0.565,0.425l0.5,3.5
				c0.031,0.217-0.084,0.43-0.282,0.522C21.622,11.995,19.436,13,15,13z"/>
		</g>
		<g>
			<path d="M15,9c-0.026,0-0.052-0.002-0.078-0.006l-9.5-1.5C5.179,7.455,5,7.246,5,7s0.179-0.455,0.422-0.494l9.5-1.5
				c0.053-0.008,0.104-0.008,0.156,0l9.5,1.5C24.821,6.545,25,6.754,25,7s-0.179,0.455-0.422,0.494l-9.5,1.5
				C15.052,8.998,15.026,9,15,9z M8.706,7L15,7.994L21.294,7L15,6.006L8.706,7z"/>
		</g>
	</g>
</g>
<g id="Graduated_Woman">
</g>
<g id="Avatar_Chef">
</g>
<g id="Waiter">
</g>
<g id="Waitress">
</g>
<g id="Bllboy">
</g>
<g id="Santa">
</g>
<g id="Doctor">
</g>
<g id="Nurse">
</g>
<g id="Captain">
</g>
<g id="Farmer">
</g>
<g id="Maid">
</g>
<g id="Business_Man_2">
</g>
<g id="Business_Woman_2">
</g>
<g id="Cowboy">
</g>
<g id="Anonymus">
</g>
<g id="Batman">
</g>
<g id="Superman">
</g>
<g id="Captain_America">
</g>
<g id="Darth_Vader">
</g>
<g id="Harry_Potter">
</g>
<g id="Anonymus_2">
</g>
<g id="Scream">
</g>
<g id="Jason">
</g>
<g id="Charlie_Chaplin">
</g>
</svg>
