<?xml version="1.0" encoding="iso-8859-1"?>
<!-- Generator: Adobe Illustrator 19.2.1, SVG Export Plug-In . SVG Version: 6.00 Build 0)  -->
<svg version="1.1" xmlns="http://www.w3.org/2000/svg" xmlns:xlink="http://www.w3.org/1999/xlink" x="0px" y="0px"
	 viewBox="0 0 30 30" style="enable-background:new 0 0 30 30;" xml:space="preserve">
<g id="Man_1">
</g>
<g id="Woman_1">
</g>
<g id="Man_2">
</g>
<g id="Woman_2">
</g>
<g id="Bald_Man">
</g>
<g id="Man_Glasses">
</g>
<g id="Woman_Glasses">
</g>
<g id="Man_Beard">
</g>
<g id="Man_Cap">
</g>
<g id="Woman_Cap">
</g>
<g id="Man_3">
</g>
<g id="Woman_3">
</g>
<g id="Men_4">
</g>
<g id="Woman_4">
</g>
<g id="Business_Man_1">
</g>
<g id="Business_Woman_1">
</g>
<g id="Firefigyhter">
</g>
<g id="Policeman">
</g>
<g id="Criminal">
</g>
<g id="Prisoner">
</g>
<g id="Woodsman">
</g>
<g id="Dispatcher_1">
</g>
<g id="Dispatcher_2">
</g>
<g id="Soldier">
</g>
<g id="Astronaut">
</g>
<g id="Hipster_Guy">
</g>
<g id="Hipster_Girl">
</g>
<g id="Worker">
</g>
<g id="Old_Man">
</g>
<g id="Punk">
</g>
<g id="Diver">
</g>
<g id="Artist">
</g>
<g id="Dictator">
</g>
<g id="Man_Hat">
</g>
<g id="Woman_Hat">
</g>
<g id="Graduated_Man">
</g>
<g id="Graduated_Woman">
	<g>
		<g>
			<path d="M25,26c-0.068,0-0.139-0.014-0.205-0.044c-0.129-0.058-0.635-0.218-1.015-0.339c-0.203-0.065-0.373-0.12-0.445-0.146
				l-1.493-0.497c-0.633-0.221-1.5-0.951-1.668-1.096l-1.027-1.025c-0.195-0.195-0.195-0.512,0-0.707s0.512-0.195,0.707,0l1,1
				c0.399,0.342,0.997,0.771,1.312,0.882l1.493,0.497c0.075,0.026,0.235,0.078,0.427,0.139c0.42,0.135,0.978,0.316,1.12,0.38
				c0.252,0.113,0.364,0.409,0.251,0.661C25.373,25.891,25.19,26,25,26z"/>
		</g>
		<g>
			<path d="M5,26c-0.19,0-0.373-0.109-0.456-0.295c-0.113-0.252-0.001-0.548,0.251-0.661c0.143-0.063,0.7-0.245,1.12-0.38
				c0.191-0.061,0.352-0.112,0.42-0.136l1.507-0.503c0.308-0.107,0.905-0.537,1.332-0.904l0.973-0.975
				c0.195-0.195,0.512-0.195,0.707,0s0.195,0.512,0,0.707l-1,1c-0.195,0.17-1.063,0.9-1.688,1.118l-1.507,0.503
				c-0.065,0.022-0.235,0.077-0.438,0.143c-0.38,0.121-0.886,0.281-1.015,0.339C5.139,25.986,5.068,26,5,26z"/>
		</g>
		<g>
			<path d="M21.5,15.5c-0.166,0-0.326-0.083-0.421-0.23c-0.094-0.146-0.809-1.284-1.021-2.27c-4.101-0.002-6.559-0.051-6.559-1.5
				c0-0.27,0.214-0.474,0.483-0.482c0.278,0.003,0.495,0.21,0.517,0.477C14.817,12,18.235,12,20.5,12c0.276,0,0.5,0.224,0.5,0.5
				c0,0.471,0.377,1.29,0.709,1.877C22.146,14.217,22.855,14,23.5,14c0.276,0,0.5,0.224,0.5,0.5S23.776,15,23.5,15
				c-0.652,0-1.516,0.328-1.792,0.455C21.641,15.485,21.57,15.5,21.5,15.5z"/>
		</g>
		<g>
			<path d="M8.5,15.5c-0.069,0-0.138-0.015-0.203-0.043C8.287,15.452,7.256,15,6.5,15C6.224,15,6,14.776,6,14.5S6.224,14,6.5,14
				c0.528,0,1.119,0.154,1.557,0.299C8.174,13.357,8.514,12,9.5,12c0.764,0,2.793,0,3.646-0.854c0.195-0.195,0.512-0.195,0.707,0
				s0.195,0.512,0,0.707C12.707,13,10.46,13,9.5,13c-0.209,0.104-0.463,1.105-0.5,2.021c-0.007,0.165-0.096,0.316-0.236,0.404
				C8.684,15.475,8.592,15.5,8.5,15.5z"/>
		</g>
		<g>
			<path d="M14.948,25c-0.297,0-0.603-0.031-0.962-0.097c-0.142-0.025-0.284-0.06-0.428-0.097c-0.116-0.031-0.22-0.064-0.324-0.1
				c-2.24-0.709-4.222-2.662-5.181-5.064c-0.113,0.033-0.217,0.045-0.304,0.045c-0.998,0-1.75-1.366-1.75-3.179
				c0-0.272,0.08-0.987,0.114-1.28C6.065,15.075,6,14.813,6,14.5c0-0.067,0.014-0.135,0.04-0.197l1.5-3.5
				c0.11-0.255,0.403-0.37,0.657-0.263c0.254,0.109,0.371,0.403,0.263,0.657l-1.456,3.397c0.016,0.219,0.08,0.377,0.081,0.379
				c0.033,0.08,0.047,0.171,0.036,0.256C7.074,15.618,7,16.309,7,16.509c0,1.415,0.532,2.179,0.75,2.179
				c0.025,0,0.096-0.029,0.195-0.139c0.122-0.132,0.308-0.188,0.477-0.15c0.175,0.038,0.315,0.167,0.369,0.337
				c0.754,2.375,2.62,4.346,4.755,5.021c0.096,0.032,0.182,0.06,0.268,0.083c0.109,0.027,0.229,0.058,0.35,0.079
				C14.466,23.975,14.714,24,14.948,24c0.276,0,0.5,0.224,0.5,0.5S15.225,25,14.948,25z"/>
		</g>
		<g>
			<path d="M14.948,25c-0.276,0-0.5-0.224-0.5-0.5s0.224-0.5,0.5-0.5c0.234,0,0.482-0.025,0.779-0.08
				c0.128-0.022,0.246-0.053,0.366-0.082c0.075-0.021,0.16-0.049,0.245-0.078c1.817-0.574,4.021-2.349,4.87-5.024
				c0.054-0.17,0.194-0.299,0.369-0.337c0.17-0.038,0.354,0.019,0.477,0.15c0.1,0.109,0.17,0.139,0.195,0.139
				c0.218,0,0.75-0.764,0.75-2.179c0-0.201-0.074-0.891-0.121-1.279c-0.011-0.088,0.002-0.178,0.038-0.26l0,0
				c0,0,0.067-0.167,0.081-0.396l-0.973-2.916c-0.087-0.262,0.055-0.545,0.316-0.633c0.262-0.086,0.545,0.055,0.633,0.316l1,3
				C23.991,14.393,24,14.446,24,14.5c0,0.313-0.065,0.575-0.114,0.729C23.92,15.521,24,16.236,24,16.509
				c0,1.813-0.752,3.179-1.75,3.179c-0.087,0-0.19-0.012-0.305-0.046c-0.96,2.384-2.981,4.337-5.295,5.068
				c-0.094,0.032-0.196,0.065-0.302,0.095c-0.154,0.039-0.298,0.073-0.444,0.099C15.551,24.969,15.245,25,14.948,25z"/>
		</g>
		<g>
			<path d="M15,30C6.729,30,0,23.271,0,15S6.729,0,15,0s15,6.729,15,15S23.271,30,15,30z M15,1C7.28,1,1,7.28,1,15s6.28,14,14,14
				s14-6.28,14-14S22.72,1,15,1z"/>
		</g>
		<g>
			<path d="M20,23.5c-0.229,0-0.437-0.158-0.488-0.392c-0.06-0.27,0.11-0.536,0.38-0.597l4.03-0.896l-0.914-5.018
				c-0.049-0.271,0.131-0.532,0.402-0.582c0.265-0.042,0.532,0.13,0.582,0.402l1,5.491c0.048,0.265-0.121,0.52-0.384,0.578l-4.5,1
				C20.072,23.496,20.035,23.5,20,23.5z"/>
		</g>
		<g>
			<path d="M10,23.5c-0.035,0-0.072-0.004-0.108-0.012l-4.5-1C5.129,22.43,4.96,22.175,5.008,21.91l1-5.491
				c0.049-0.272,0.315-0.445,0.582-0.402c0.271,0.05,0.451,0.311,0.402,0.582l-0.914,5.018l4.03,0.896
				c0.27,0.061,0.439,0.327,0.38,0.597C10.437,23.342,10.229,23.5,10,23.5z"/>
		</g>
		<g>
			<path d="M15,12c-4.481,0-7.528-0.983-7.656-1.025c-0.23-0.075-0.373-0.306-0.339-0.545l0.5-3.5C7.544,6.655,7.8,6.469,8.07,6.505
				C8.344,6.544,8.534,6.797,8.495,7.07l-0.438,3.07C9.012,10.399,11.6,11,15,11c3.355,0,5.976-0.604,6.943-0.861L21.505,7.07
				c-0.039-0.273,0.151-0.526,0.425-0.565c0.27-0.036,0.525,0.15,0.565,0.425l0.5,3.5c0.034,0.241-0.11,0.473-0.343,0.547
				C22.521,11.018,19.402,12,15,12z"/>
		</g>
		<g>
			<path d="M15,8c-0.026,0-0.052-0.002-0.078-0.006l-9.5-1.5C5.179,6.455,5,6.246,5,6s0.179-0.455,0.422-0.494l9.5-1.5
				c0.053-0.008,0.104-0.008,0.156,0l9.5,1.5C24.821,5.545,25,5.754,25,6s-0.179,0.455-0.422,0.494l-9.5,1.5
				C15.052,7.998,15.026,8,15,8z M8.706,6L15,6.994L21.294,6L15,5.006L8.706,6z"/>
		</g>
		<g>
			<path d="M12.5,16h-1c-0.276,0-0.5-0.224-0.5-0.5s0.224-0.5,0.5-0.5h1c0.276,0,0.5,0.224,0.5,0.5S12.776,16,12.5,16z"/>
		</g>
		<g>
			<path d="M18.5,16h-1c-0.276,0-0.5-0.224-0.5-0.5s0.224-0.5,0.5-0.5h1c0.276,0,0.5,0.224,0.5,0.5S18.776,16,18.5,16z"/>
		</g>
	</g>
</g>
<g id="Avatar_Chef">
</g>
<g id="Waiter">
</g>
<g id="Waitress">
</g>
<g id="Bllboy">
</g>
<g id="Santa">
</g>
<g id="Doctor">
</g>
<g id="Nurse">
</g>
<g id="Captain">
</g>
<g id="Farmer">
</g>
<g id="Maid">
</g>
<g id="Business_Man_2">
</g>
<g id="Business_Woman_2">
</g>
<g id="Cowboy">
</g>
<g id="Anonymus">
</g>
<g id="Batman">
</g>
<g id="Superman">
</g>
<g id="Captain_America">
</g>
<g id="Darth_Vader">
</g>
<g id="Harry_Potter">
</g>
<g id="Anonymus_2">
</g>
<g id="Scream">
</g>
<g id="Jason">
</g>
<g id="Charlie_Chaplin">
</g>
</svg>
