<?xml version="1.0" encoding="iso-8859-1"?>
<!-- Generator: Adobe Illustrator 19.2.1, SVG Export Plug-In . SVG Version: 6.00 Build 0)  -->
<svg version="1.1" xmlns="http://www.w3.org/2000/svg" xmlns:xlink="http://www.w3.org/1999/xlink" x="0px" y="0px"
	 viewBox="0 0 30 30" style="enable-background:new 0 0 30 30;" xml:space="preserve">
<g id="Man_1">
</g>
<g id="Woman_1">
</g>
<g id="Man_2">
</g>
<g id="Woman_2">
</g>
<g id="Bald_Man">
</g>
<g id="Man_Glasses">
</g>
<g id="Woman_Glasses">
</g>
<g id="Man_Beard">
</g>
<g id="Man_Cap">
</g>
<g id="Woman_Cap">
</g>
<g id="Man_3">
</g>
<g id="Woman_3">
</g>
<g id="Men_4">
</g>
<g id="Woman_4">
</g>
<g id="Business_Man_1">
</g>
<g id="Business_Woman_1">
</g>
<g id="Firefigyhter">
</g>
<g id="Policeman">
</g>
<g id="Criminal">
</g>
<g id="Prisoner">
</g>
<g id="Woodsman">
</g>
<g id="Dispatcher_1">
</g>
<g id="Dispatcher_2">
</g>
<g id="Soldier">
</g>
<g id="Astronaut">
</g>
<g id="Hipster_Guy">
</g>
<g id="Hipster_Girl">
</g>
<g id="Worker">
</g>
<g id="Old_Man">
</g>
<g id="Punk">
</g>
<g id="Diver">
</g>
<g id="Artist">
</g>
<g id="Dictator">
</g>
<g id="Man_Hat">
</g>
<g id="Woman_Hat">
</g>
<g id="Graduated_Man">
</g>
<g id="Graduated_Woman">
</g>
<g id="Avatar_Chef">
</g>
<g id="Waiter">
</g>
<g id="Waitress">
</g>
<g id="Bllboy">
</g>
<g id="Santa">
</g>
<g id="Doctor">
</g>
<g id="Nurse">
</g>
<g id="Captain">
</g>
<g id="Farmer">
</g>
<g id="Maid">
</g>
<g id="Business_Man_2">
</g>
<g id="Business_Woman_2">
</g>
<g id="Cowboy">
</g>
<g id="Anonymus">
</g>
<g id="Batman">
</g>
<g id="Superman">
</g>
<g id="Captain_America">
</g>
<g id="Darth_Vader">
</g>
<g id="Harry_Potter">
</g>
<g id="Anonymus_2">
</g>
<g id="Scream">
</g>
<g id="Jason">
	<g>
		<g>
			<path d="M25,25c-0.068,0-0.139-0.014-0.205-0.044l-0.233-0.108c-0.188-0.09-0.418-0.2-0.555-0.247l-2.146-0.62
				c-0.652-0.227-1.52-0.957-1.688-1.102l-0.527-0.525c-0.195-0.195-0.195-0.512,0-0.707s0.512-0.195,0.707,0l0.5,0.5
				c0.399,0.342,0.997,0.771,1.312,0.882l2.144,0.619c0.187,0.063,0.458,0.19,0.681,0.296l0.216,0.101
				c0.252,0.113,0.364,0.409,0.251,0.661C25.373,24.891,25.19,25,25,25z"/>
		</g>
		<g>
			<path d="M5.5,25c-0.19,0-0.373-0.109-0.456-0.295c-0.113-0.252-0.001-0.548,0.251-0.661l0.216-0.101
				c0.223-0.105,0.494-0.232,0.656-0.288l2.194-0.636c0.288-0.102,0.886-0.531,1.313-0.898l0.473-0.475
				c0.195-0.195,0.512-0.195,0.707,0s0.195,0.512,0,0.707l-0.5,0.5c-0.195,0.17-1.063,0.9-1.688,1.118l-2.196,0.637
				c-0.112,0.039-0.342,0.149-0.53,0.239l-0.233,0.108C5.639,24.986,5.568,25,5.5,25z"/>
		</g>
		<g>
			<path d="M15,26.5c-2.677,0-5.725-3.018-5.854-3.146c-0.195-0.195-0.195-0.512,0-0.707s0.512-0.195,0.707,0
				C9.882,22.675,12.738,25.5,15,25.5c2.248,0,5.119-2.826,5.147-2.854c0.195-0.193,0.512-0.195,0.707,0.002
				c0.194,0.196,0.194,0.513-0.002,0.707C20.724,23.482,17.661,26.5,15,26.5z"/>
		</g>
		<g>
			<path d="M15,24.5c-3.99,0-7-4.084-7-9.5v-3c0-4.206,3.075-7.5,7-7.5s7,3.294,7,7.5v3C22,20.416,18.99,24.5,15,24.5z M15,5.5
				c-3.364,0-6,2.855-6,6.5v3c0,4.846,2.579,8.5,6,8.5s6-3.654,6-8.5v-3C21,8.355,18.364,5.5,15,5.5z"/>
		</g>
		<g>
			<path d="M18,15.5c-0.972,0-2-1.028-2-2c0-1,1.252-1,2-1s2,0,2,1C20,14.472,18.972,15.5,18,15.5z M17.006,13.573
				C17.067,13.978,17.612,14.5,18,14.5s0.933-0.522,0.994-0.927C18.791,13.5,18.266,13.5,18,13.5S17.209,13.5,17.006,13.573z"/>
		</g>
		<g>
			<path d="M12,15.5c-0.972,0-2-1.028-2-2c0-1,1.252-1,2-1s2,0,2,1C14,14.472,12.972,15.5,12,15.5z M11.006,13.573
				C11.067,13.978,11.612,14.5,12,14.5s0.933-0.522,0.994-0.927C12.791,13.5,12.266,13.5,12,13.5S11.209,13.5,11.006,13.573z"/>
		</g>
		<g>
			<path d="M15,12.5c-0.097,0-0.193-0.028-0.277-0.084l-1.5-1c-0.229-0.153-0.292-0.464-0.139-0.693
				c0.154-0.229,0.466-0.29,0.693-0.139L15,11.399l1.223-0.815c0.228-0.152,0.538-0.092,0.693,0.139
				c0.153,0.229,0.091,0.54-0.139,0.693l-1.5,1C15.193,12.472,15.097,12.5,15,12.5z"/>
		</g>
		<g>
			<path d="M15,29.5c-8.271,0-15-6.729-15-15s6.729-15,15-15s15,6.729,15,15S23.271,29.5,15,29.5z M15,0.5c-7.72,0-14,6.28-14,14
				s6.28,14,14,14s14-6.28,14-14S22.72,0.5,15,0.5z"/>
		</g>
		<g>
			<circle cx="13.5" cy="8" r="0.5"/>
		</g>
		<g>
			<circle cx="11.5" cy="10" r="0.5"/>
		</g>
		<g>
			<circle cx="16.5" cy="8" r="0.5"/>
		</g>
		<g>
			<circle cx="18.5" cy="10" r="0.5"/>
		</g>
		<g>
			<circle cx="15" cy="17" r="0.5"/>
		</g>
		<g>
			<circle cx="16.5" cy="19" r="0.5"/>
		</g>
		<g>
			<circle cx="16.5" cy="21" r="0.5"/>
		</g>
		<g>
			<circle cx="13.5" cy="21" r="0.5"/>
		</g>
		<g>
			<circle cx="19.5" cy="17" r="0.5"/>
		</g>
		<g>
			<circle cx="10.5" cy="17" r="0.5"/>
		</g>
		<g>
			<circle cx="13.5" cy="19" r="0.5"/>
		</g>
	</g>
</g>
<g id="Charlie_Chaplin">
</g>
</svg>
