<?xml version="1.0" encoding="iso-8859-1"?>
<!-- Generator: Adobe Illustrator 19.2.1, SVG Export Plug-In . SVG Version: 6.00 Build 0)  -->
<svg version="1.1" xmlns="http://www.w3.org/2000/svg" xmlns:xlink="http://www.w3.org/1999/xlink" x="0px" y="0px"
	 viewBox="0 0 30 30" style="enable-background:new 0 0 30 30;" xml:space="preserve">
<g id="Man_1">
</g>
<g id="Woman_1">
</g>
<g id="Man_2">
</g>
<g id="Woman_2">
</g>
<g id="Bald_Man">
</g>
<g id="Man_Glasses">
	<g>
		<g>
			<path d="M25,26c-0.068,0-0.139-0.014-0.205-0.044c-0.13-0.059-0.648-0.222-1.03-0.344c-0.196-0.063-0.358-0.115-0.429-0.14
				l-1.494-0.498c-0.631-0.219-1.5-0.951-1.668-1.095l-1.027-1.025c-0.195-0.195-0.195-0.512,0-0.707s0.512-0.195,0.707,0l1,1
				c0.4,0.343,0.997,0.772,1.311,0.881l1.494,0.498c0.072,0.025,0.227,0.074,0.411,0.133c0.569,0.183,0.984,0.317,1.136,0.385
				c0.252,0.113,0.364,0.409,0.251,0.661C25.373,25.89,25.19,26,25,26z"/>
		</g>
		<g>
			<path d="M5,26c-0.19,0-0.373-0.11-0.456-0.295c-0.113-0.252-0.001-0.548,0.251-0.661c0.151-0.068,0.566-0.202,1.136-0.385
				c0.185-0.059,0.339-0.108,0.405-0.131l1.506-0.502c0.308-0.107,0.904-0.537,1.332-0.905l0.973-0.975
				c0.195-0.195,0.512-0.195,0.707,0s0.195,0.512,0,0.707l-1,1c-0.195,0.17-1.064,0.901-1.689,1.119l-1.506,0.502
				c-0.064,0.022-0.227,0.075-0.423,0.138c-0.382,0.122-0.9,0.286-1.03,0.344C5.139,25.986,5.068,26,5,26z"/>
		</g>
		<g>
			<path d="M21.5,15.5c-0.166,0-0.326-0.083-0.421-0.23c-0.095-0.147-0.813-1.292-1.022-2.278c-2.636-0.106-5.163-1.14-6.351-2.249
				C12.842,12.431,10.317,13,9.5,13c-0.209,0.104-0.463,1.105-0.5,2.021c-0.007,0.165-0.096,0.316-0.236,0.404
				c-0.14,0.089-0.314,0.1-0.467,0.033C8.287,15.453,7.256,15,6.5,15C6.224,15,6,14.776,6,14.5S6.224,14,6.5,14
				c0.528,0,1.119,0.154,1.557,0.299C8.174,13.357,8.514,12,9.5,12c0.712,0,3.5-0.652,3.5-2.5C13,9.224,13.224,9,13.5,9
				S14,9.224,14,9.5c0.055,0.603,2.83,2.5,6.5,2.5c0.276,0,0.5,0.224,0.5,0.5c0,0.471,0.377,1.29,0.709,1.877
				C22.146,14.217,22.855,14,23.5,14c0.276,0,0.5,0.224,0.5,0.5S23.776,15,23.5,15c-0.652,0-1.516,0.328-1.792,0.455
				C21.641,15.485,21.57,15.5,21.5,15.5z"/>
		</g>
		<g>
			<path d="M14.948,25c-0.298,0-0.604-0.031-0.963-0.098c-0.14-0.024-0.283-0.059-0.429-0.096c-0.113-0.031-0.217-0.064-0.32-0.099
				c-2.242-0.71-4.225-2.664-5.183-5.065c-0.113,0.034-0.217,0.045-0.304,0.045c-0.998,0-1.75-1.367-1.75-3.179
				c0-0.272,0.08-0.987,0.114-1.281C6.065,15.075,6,14.813,6,14.5C6,9.439,10.206,5,15,5c0.276,0,0.5,0.224,0.5,0.5S15.276,6,15,6
				c-4.262,0-8,3.972-8,8.5c0,0.266,0.084,0.471,0.085,0.473c0.033,0.08,0.047,0.171,0.036,0.257C7.074,15.618,7,16.308,7,16.509
				c0,1.415,0.532,2.179,0.75,2.179c0.025,0,0.096-0.029,0.195-0.138c0.121-0.131,0.303-0.188,0.477-0.151
				c0.175,0.038,0.315,0.167,0.369,0.337c0.753,2.375,2.62,4.345,4.756,5.021c0.094,0.031,0.18,0.06,0.267,0.083
				c0.109,0.028,0.228,0.057,0.349,0.078C14.466,23.974,14.713,24,14.948,24c0.276,0,0.5,0.224,0.5,0.5S15.225,25,14.948,25z"/>
		</g>
		<g>
			<path d="M14.948,25c-0.276,0-0.5-0.224-0.5-0.5s0.224-0.5,0.5-0.5c0.235,0,0.482-0.026,0.778-0.081
				c0.129-0.022,0.247-0.051,0.365-0.081c0.078-0.021,0.163-0.05,0.249-0.079c2.215-0.701,4.122-2.671,4.868-5.024
				c0.054-0.17,0.194-0.299,0.369-0.337c0.174-0.038,0.355,0.019,0.477,0.151c0.1,0.109,0.17,0.138,0.195,0.138
				c0.218,0,0.75-0.764,0.75-2.179c0-0.201-0.074-0.892-0.121-1.279c-0.011-0.089,0.002-0.179,0.038-0.261l0,0
				c0,0,0.083-0.204,0.083-0.469C23,9.972,19.262,6,15,6c-0.276,0-0.5-0.224-0.5-0.5S14.724,5,15,5c4.794,0,9,4.439,9,9.5
				c0,0.313-0.065,0.575-0.114,0.728C23.92,15.521,24,16.236,24,16.509c0,1.812-0.752,3.179-1.75,3.179
				c-0.087,0-0.191-0.011-0.305-0.045c-0.959,2.383-2.98,4.336-5.295,5.068c-0.095,0.032-0.197,0.065-0.302,0.094
				c-0.154,0.04-0.298,0.074-0.446,0.099C15.553,24.969,15.247,25,14.948,25z"/>
		</g>
		<g>
			<path d="M15,30C6.729,30,0,23.271,0,15S6.729,0,15,0s15,6.729,15,15S23.271,30,15,30z M15,1C7.28,1,1,7.28,1,15s6.28,14,14,14
				s14-6.28,14-14S22.72,1,15,1z"/>
		</g>
		<g>
			<path d="M15.5,16.5c-0.075,0-0.15-0.017-0.222-0.052c-0.298-0.148-0.463-0.06-0.465-0.059c-0.213,0.173-0.528,0.14-0.703-0.075
				c-0.173-0.215-0.139-0.53,0.076-0.703c0.233-0.189,0.82-0.411,1.535-0.059c0.247,0.122,0.349,0.422,0.227,0.669
				C15.861,16.398,15.684,16.5,15.5,16.5z"/>
		</g>
		<g>
			<path d="M19.5,16c-0.225,0-0.429-0.151-0.485-0.379c-0.066-0.268,0.096-0.539,0.364-0.606l4-1
				c0.264-0.07,0.539,0.095,0.606,0.364c0.066,0.268-0.096,0.539-0.364,0.606l-4,1C19.581,15.995,19.54,16,19.5,16z"/>
		</g>
		<g>
			<path d="M10.5,16c-0.04,0-0.08-0.005-0.121-0.015l-4-1c-0.269-0.067-0.431-0.338-0.364-0.606
				c0.066-0.268,0.333-0.433,0.606-0.364l4,1c0.269,0.067,0.431,0.338,0.364,0.606C10.929,15.849,10.725,16,10.5,16z"/>
		</g>
		<g>
			<path d="M12.5,18c-1.379,0-2.5-0.897-2.5-2s1.121-2,2.5-2s2.5,0.897,2.5,2S13.879,18,12.5,18z M12.5,15c-0.813,0-1.5,0.458-1.5,1
				s0.687,1,1.5,1s1.5-0.458,1.5-1S13.313,15,12.5,15z"/>
		</g>
		<g>
			<path d="M17.5,18c-1.379,0-2.5-0.897-2.5-2s1.121-2,2.5-2s2.5,0.897,2.5,2S18.879,18,17.5,18z M17.5,15c-0.813,0-1.5,0.458-1.5,1
				s0.687,1,1.5,1s1.5-0.458,1.5-1S18.313,15,17.5,15z"/>
		</g>
	</g>
</g>
<g id="Woman_Glasses">
</g>
<g id="Man_Beard">
</g>
<g id="Man_Cap">
</g>
<g id="Woman_Cap">
</g>
<g id="Man_3">
</g>
<g id="Woman_3">
</g>
<g id="Men_4">
</g>
<g id="Woman_4">
</g>
<g id="Business_Man_1">
</g>
<g id="Business_Woman_1">
</g>
<g id="Firefigyhter">
</g>
<g id="Policeman">
</g>
<g id="Criminal">
</g>
<g id="Prisoner">
</g>
<g id="Woodsman">
</g>
<g id="Dispatcher_1">
</g>
<g id="Dispatcher_2">
</g>
<g id="Soldier">
</g>
<g id="Astronaut">
</g>
<g id="Hipster_Guy">
</g>
<g id="Hipster_Girl">
</g>
<g id="Worker">
</g>
<g id="Old_Man">
</g>
<g id="Punk">
</g>
<g id="Diver">
</g>
<g id="Artist">
</g>
<g id="Dictator">
</g>
<g id="Man_Hat">
</g>
<g id="Woman_Hat">
</g>
<g id="Graduated_Man">
</g>
<g id="Graduated_Woman">
</g>
<g id="Avatar_Chef">
</g>
<g id="Waiter">
</g>
<g id="Waitress">
</g>
<g id="Bllboy">
</g>
<g id="Santa">
</g>
<g id="Doctor">
</g>
<g id="Nurse">
</g>
<g id="Captain">
</g>
<g id="Farmer">
</g>
<g id="Maid">
</g>
<g id="Business_Man_2">
</g>
<g id="Business_Woman_2">
</g>
<g id="Cowboy">
</g>
<g id="Anonymus">
</g>
<g id="Batman">
</g>
<g id="Superman">
</g>
<g id="Captain_America">
</g>
<g id="Darth_Vader">
</g>
<g id="Harry_Potter">
</g>
<g id="Anonymus_2">
</g>
<g id="Scream">
</g>
<g id="Jason">
</g>
<g id="Charlie_Chaplin">
</g>
</svg>
