<?xml version="1.0" encoding="iso-8859-1"?>
<!-- Generator: Adobe Illustrator 19.2.1, SVG Export Plug-In . SVG Version: 6.00 Build 0)  -->
<svg version="1.1" xmlns="http://www.w3.org/2000/svg" xmlns:xlink="http://www.w3.org/1999/xlink" x="0px" y="0px"
	 viewBox="0 0 30 30" style="enable-background:new 0 0 30 30;" xml:space="preserve">
<g id="Man_1">
</g>
<g id="Woman_1">
</g>
<g id="Man_2">
</g>
<g id="Woman_2">
</g>
<g id="Bald_Man">
</g>
<g id="Man_Glasses">
</g>
<g id="Woman_Glasses">
</g>
<g id="Man_Beard">
</g>
<g id="Man_Cap">
</g>
<g id="Woman_Cap">
</g>
<g id="Man_3">
</g>
<g id="Woman_3">
</g>
<g id="Men_4">
</g>
<g id="Woman_4">
</g>
<g id="Business_Man_1">
</g>
<g id="Business_Woman_1">
</g>
<g id="Firefigyhter">
</g>
<g id="Policeman">
</g>
<g id="Criminal">
</g>
<g id="Prisoner">
</g>
<g id="Woodsman">
</g>
<g id="Dispatcher_1">
</g>
<g id="Dispatcher_2">
</g>
<g id="Soldier">
</g>
<g id="Astronaut">
</g>
<g id="Hipster_Guy">
</g>
<g id="Hipster_Girl">
</g>
<g id="Worker">
</g>
<g id="Old_Man">
	<g>
		<g>
			<path d="M25,26c-0.068,0-0.139-0.014-0.205-0.044c-0.13-0.059-0.648-0.222-1.03-0.344c-0.196-0.063-0.358-0.115-0.429-0.14
				l-1.494-0.498c-0.631-0.219-1.5-0.951-1.668-1.095l-0.527-0.525c-0.195-0.195-0.195-0.512,0-0.707s0.512-0.195,0.707,0l0.5,0.5
				c0.4,0.343,0.997,0.772,1.311,0.881l1.494,0.498c0.072,0.025,0.227,0.074,0.411,0.133c0.569,0.183,0.984,0.317,1.136,0.385
				c0.252,0.113,0.364,0.409,0.251,0.661C25.373,25.89,25.19,26,25,26z"/>
		</g>
		<g>
			<path d="M5,26c-0.19,0-0.373-0.11-0.456-0.295c-0.113-0.252-0.001-0.548,0.251-0.661c0.151-0.068,0.566-0.202,1.136-0.385
				c0.185-0.059,0.339-0.108,0.405-0.131l1.506-0.502c0.308-0.107,0.904-0.537,1.332-0.905l0.473-0.475
				c0.195-0.195,0.512-0.195,0.707,0s0.195,0.512,0,0.707l-0.5,0.5c-0.195,0.17-1.064,0.901-1.689,1.119l-1.506,0.502
				c-0.064,0.022-0.227,0.075-0.423,0.138c-0.382,0.122-0.9,0.286-1.03,0.344C5.139,25.986,5.068,26,5,26z"/>
		</g>
		<g>
			<path d="M12.5,16h-1c-0.276,0-0.5-0.224-0.5-0.5s0.224-0.5,0.5-0.5h1c0.276,0,0.5,0.224,0.5,0.5S12.776,16,12.5,16z"/>
		</g>
		<g>
			<path d="M18.5,16h-1c-0.276,0-0.5-0.224-0.5-0.5s0.224-0.5,0.5-0.5h1c0.276,0,0.5,0.224,0.5,0.5S18.776,16,18.5,16z"/>
		</g>
		<g>
			<path d="M15,30C6.729,30,0,23.271,0,15S6.729,0,15,0s15,6.729,15,15S23.271,30,15,30z M15,1C7.28,1,1,7.28,1,15s6.28,14,14,14
				s14-6.28,14-14S22.72,1,15,1z"/>
		</g>
		<g>
			<path d="M15,25c-0.35,0-0.627-0.043-0.903-0.091c-0.142-0.022-0.285-0.054-0.43-0.089c-0.111-0.028-0.214-0.06-0.317-0.092
				C10.927,24.013,9.047,22.299,8.15,20H8c-1.047,0-2-1.43-2-3c0-1.907,0.547-3,1.5-3C7.776,14,8,14.224,8,14.5S7.776,15,7.5,15
				C7.331,15,7,15.604,7,17c0,1.224,0.703,2,1,2h0.5c0.214,0,0.404,0.136,0.474,0.339c0.733,2.158,2.435,3.773,4.668,4.433
				c0.095,0.03,0.18,0.056,0.267,0.078c0.112,0.027,0.23,0.054,0.353,0.073C14.553,23.973,14.754,24,15,24
				c0.248,0,0.561-0.028,0.838-0.076c0.127-0.021,0.245-0.047,0.364-0.076c0.08-0.021,0.166-0.046,0.252-0.074
				c2.169-0.64,3.832-2.256,4.572-4.435c0.056-0.164,0.193-0.288,0.362-0.326c0.111-0.025,0.224-0.012,0.323,0.035
				C21.797,19.021,21.891,19,22,19c0.297,0,1-0.776,1-2c0-1.396-0.331-2-0.5-2c-0.276,0-0.5-0.224-0.5-0.5s0.224-0.5,0.5-0.5
				c0.953,0,1.5,1.093,1.5,3c0,1.57-0.953,3-2,3c-0.042,0.016-0.101,0.037-0.171,0.053c-0.906,2.292-2.739,3.985-5.083,4.677
				c-0.095,0.03-0.198,0.062-0.303,0.088c-0.151,0.037-0.295,0.068-0.441,0.092C15.673,24.967,15.306,25,15,25z"/>
		</g>
		<g>
			<path d="M21.5,20c-0.276,0-0.5-0.224-0.5-0.5v-0.18C20.204,19.733,19.619,20,18.5,20c-0.741,0-1.321-0.27-1.882-0.53
				C16.099,19.228,15.607,19,15,19s-1.099,0.228-1.618,0.47C12.821,19.73,12.241,20,11.5,20c-1.116,0-1.701-0.248-2.5-0.668V19.5
				C9,19.776,8.776,20,8.5,20S8,19.776,8,19.5v-1c0-0.175,0.092-0.337,0.241-0.428c0.148-0.09,0.335-0.096,0.491-0.015l0.435,0.231
				C10.08,18.777,10.497,19,11.5,19c0.52,0,0.956-0.203,1.46-0.437C13.527,18.299,14.171,18,15,18s1.473,0.299,2.04,0.563
				C17.544,18.797,17.98,19,18.5,19c0.952,0,1.372-0.219,2.208-0.655c0.173-0.09,0.36-0.188,0.568-0.292
				c0.155-0.078,0.339-0.069,0.486,0.022S22,18.327,22,18.5v1C22,19.776,21.776,20,21.5,20z"/>
		</g>
		<g>
			<path d="M15.5,21h-1c-0.276,0-0.5-0.224-0.5-0.5s0.224-0.5,0.5-0.5h1c0.276,0,0.5,0.224,0.5,0.5S15.776,21,15.5,21z"/>
		</g>
		<g>
			<path d="M7.5,15c-0.008,0-0.017,0-0.025,0c-0.275-0.014-0.488-0.249-0.474-0.524C7.267,9.17,11.277,6,15,6
				c3.687,0,7.656,3.127,7.97,8.369c0.012,0.042,0.019,0.085,0.019,0.131c0,0.276-0.212,0.5-0.488,0.5h-0.023
				c-0.267,0-0.486-0.209-0.499-0.475C21.741,9.815,18.244,7,15,7c-3.186,0-6.768,2.877-7.001,7.525C7.986,14.792,7.765,15,7.5,15z"
				/>
		</g>
		<g>
			<path d="M6.5,19c-0.078,0-0.158-0.018-0.231-0.057C6.176,18.895,4,17.73,4,15.5c0-1.375,0.854-2.748,1.485-3.574
				c-0.166-0.067-0.326-0.171-0.461-0.327c-0.42-0.485-0.416-1.233,0.013-2.287C6.149,6.573,10.504,4,12.5,4
				c1.901,0,2.704,0.532,2.79,0.592c0.225,0.16,0.277,0.473,0.117,0.697c-0.159,0.225-0.469,0.277-0.69,0.123
				C14.688,5.394,14.044,5,12.5,5c-1.62,0-5.611,2.41-6.537,4.688c-0.299,0.738-0.285,1.138-0.183,1.256
				c0.11,0.128,0.468,0.103,0.6,0.07c0.214-0.055,0.442,0.042,0.554,0.237c0.111,0.193,0.08,0.438-0.075,0.598
				C6.839,11.868,5,13.777,5,15.5c0,1.632,1.715,2.548,1.731,2.557c0.245,0.128,0.34,0.43,0.212,0.675C6.854,18.902,6.68,19,6.5,19z
				"/>
		</g>
		<g>
			<path d="M23.501,19c-0.18,0-0.354-0.097-0.442-0.267c-0.129-0.244-0.035-0.546,0.208-0.675C23.284,18.048,25,17.119,25,15.5
				c0-1.723-1.839-3.632-1.858-3.651c-0.155-0.16-0.187-0.404-0.075-0.598c0.111-0.194,0.338-0.291,0.554-0.237
				c0.154,0.036,0.492,0.053,0.601-0.071c0.102-0.119,0.115-0.52-0.184-1.255C23.111,7.41,19.12,5,17.5,5
				c-1.572,0-2.211,0.409-2.218,0.413c-0.228,0.149-0.538,0.091-0.691-0.133c-0.153-0.225-0.103-0.529,0.119-0.688
				C14.796,4.532,15.599,4,17.5,4c1.996,0,6.351,2.573,7.463,5.312c0.429,1.054,0.433,1.802,0.013,2.287
				c-0.135,0.155-0.295,0.259-0.461,0.327C25.146,12.752,26,14.125,26,15.5c0,2.23-2.176,3.395-2.269,3.443
				C23.658,18.981,23.579,19,23.501,19z"/>
		</g>
		<g>
			<path d="M19.5,14.5c-0.128,0-0.256-0.049-0.354-0.146C18.813,14.02,18.501,14,18.488,14c-0.271-0.014-0.488-0.241-0.481-0.512
				C18.014,13.216,18.229,13,18.5,13c0.072,0,0.726,0.018,1.354,0.646c0.195,0.195,0.195,0.512,0,0.707
				C19.756,14.451,19.628,14.5,19.5,14.5z"/>
		</g>
		<g>
			<path d="M10.5,14.5c-0.128,0-0.256-0.049-0.354-0.146c-0.195-0.195-0.195-0.512,0-0.707C10.774,13.018,11.428,13,11.5,13
				c0.276,0,0.5,0.224,0.5,0.5c0,0.272-0.219,0.495-0.489,0.5c-0.027,0.001-0.331,0.028-0.657,0.354
				C10.756,14.451,10.628,14.5,10.5,14.5z"/>
		</g>
	</g>
</g>
<g id="Punk">
</g>
<g id="Diver">
</g>
<g id="Artist">
</g>
<g id="Dictator">
</g>
<g id="Man_Hat">
</g>
<g id="Woman_Hat">
</g>
<g id="Graduated_Man">
</g>
<g id="Graduated_Woman">
</g>
<g id="Avatar_Chef">
</g>
<g id="Waiter">
</g>
<g id="Waitress">
</g>
<g id="Bllboy">
</g>
<g id="Santa">
</g>
<g id="Doctor">
</g>
<g id="Nurse">
</g>
<g id="Captain">
</g>
<g id="Farmer">
</g>
<g id="Maid">
</g>
<g id="Business_Man_2">
</g>
<g id="Business_Woman_2">
</g>
<g id="Cowboy">
</g>
<g id="Anonymus">
</g>
<g id="Batman">
</g>
<g id="Superman">
</g>
<g id="Captain_America">
</g>
<g id="Darth_Vader">
</g>
<g id="Harry_Potter">
</g>
<g id="Anonymus_2">
</g>
<g id="Scream">
</g>
<g id="Jason">
</g>
<g id="Charlie_Chaplin">
</g>
</svg>
