<?xml version="1.0" encoding="iso-8859-1"?>
<!-- Generator: Adobe Illustrator 19.2.1, SVG Export Plug-In . SVG Version: 6.00 Build 0)  -->
<svg version="1.1" xmlns="http://www.w3.org/2000/svg" xmlns:xlink="http://www.w3.org/1999/xlink" x="0px" y="0px"
	 viewBox="0 0 30 30" style="enable-background:new 0 0 30 30;" xml:space="preserve">
<g id="Man_1">
</g>
<g id="Woman_1">
</g>
<g id="Man_2">
</g>
<g id="Woman_2">
</g>
<g id="Bald_Man">
</g>
<g id="Man_Glasses">
</g>
<g id="Woman_Glasses">
</g>
<g id="Man_Beard">
</g>
<g id="Man_Cap">
</g>
<g id="Woman_Cap">
</g>
<g id="Man_3">
</g>
<g id="Woman_3">
</g>
<g id="Men_4">
</g>
<g id="Woman_4">
</g>
<g id="Business_Man_1">
</g>
<g id="Business_Woman_1">
</g>
<g id="Firefigyhter">
</g>
<g id="Policeman">
	<g>
		<g>
			<path d="M25,26c-0.068,0-0.139-0.014-0.205-0.044c-0.13-0.059-0.648-0.222-1.03-0.344c-0.196-0.063-0.358-0.115-0.429-0.14
				l-1.494-0.498c-0.631-0.219-1.5-0.951-1.668-1.095l-0.527-0.525c-0.195-0.195-0.195-0.512,0-0.707s0.512-0.195,0.707,0l0.5,0.5
				c0.4,0.343,0.997,0.772,1.311,0.881l1.494,0.498c0.072,0.025,0.227,0.074,0.411,0.133c0.569,0.183,0.984,0.317,1.136,0.385
				c0.252,0.113,0.364,0.409,0.251,0.661C25.373,25.89,25.19,26,25,26z"/>
		</g>
		<g>
			<path d="M5,26c-0.19,0-0.373-0.11-0.456-0.295c-0.113-0.252-0.001-0.548,0.251-0.661c0.151-0.068,0.566-0.202,1.136-0.385
				c0.185-0.059,0.339-0.108,0.405-0.131l1.506-0.502c0.308-0.107,0.904-0.537,1.332-0.905l0.473-0.475
				c0.195-0.195,0.512-0.195,0.707,0s0.195,0.512,0,0.707l-0.5,0.5c-0.195,0.17-1.064,0.901-1.689,1.119l-1.506,0.502
				c-0.064,0.022-0.227,0.075-0.423,0.138c-0.382,0.122-0.9,0.286-1.03,0.344C5.139,25.986,5.068,26,5,26z"/>
		</g>
		<g>
			<path d="M12.5,16h-1c-0.276,0-0.5-0.224-0.5-0.5s0.224-0.5,0.5-0.5h1c0.276,0,0.5,0.224,0.5,0.5S12.776,16,12.5,16z"/>
		</g>
		<g>
			<path d="M18.5,16h-1c-0.276,0-0.5-0.224-0.5-0.5s0.224-0.5,0.5-0.5h1c0.276,0,0.5,0.224,0.5,0.5S18.776,16,18.5,16z"/>
		</g>
		<g>
			<path d="M15,30C6.729,30,0,23.271,0,15S6.729,0,15,0s15,6.729,15,15S23.271,30,15,30z M15,1C7.28,1,1,7.28,1,15s6.28,14,14,14
				s14-6.28,14-14S22.72,1,15,1z"/>
		</g>
		<g>
			<path d="M12.499,29.5c-0.236,0-0.447-0.169-0.491-0.411l-1-5.5c-0.049-0.271,0.131-0.532,0.402-0.581
				c0.266-0.051,0.532,0.13,0.582,0.402l1,5.5c0.049,0.271-0.131,0.532-0.402,0.581C12.56,29.498,12.529,29.5,12.499,29.5z"/>
		</g>
		<g>
			<path d="M17.501,29.5c-0.03,0-0.061-0.002-0.091-0.008c-0.271-0.049-0.451-0.31-0.402-0.581l1-5.5
				c0.049-0.273,0.314-0.454,0.582-0.402c0.271,0.049,0.451,0.31,0.402,0.581l-1,5.5C17.948,29.331,17.737,29.5,17.501,29.5z"/>
		</g>
		<g>
			<path d="M15,25c-0.35,0-0.627-0.043-0.903-0.091c-0.142-0.022-0.285-0.054-0.43-0.089c-0.111-0.028-0.214-0.06-0.317-0.092
				C10.927,24.013,9.047,22.299,8.15,20H8c-1.047,0-2-1.43-2-3c0-1.907,0.547-3,1.5-3h0.014c0.043-0.734,0.183-1.155,0.353-1.664
				c0.049-0.146,0.101-0.303,0.155-0.482c0.081-0.264,0.358-0.415,0.625-0.332c0.264,0.081,0.412,0.36,0.332,0.625
				c-0.058,0.188-0.112,0.353-0.163,0.505C8.618,13.242,8.5,13.598,8.5,14.5C8.5,14.776,8.276,15,8,15H7.5C7.331,15,7,15.604,7,17
				c0,1.224,0.703,2,1,2h0.5c0.214,0,0.404,0.136,0.474,0.339c0.733,2.158,2.435,3.773,4.668,4.433
				c0.095,0.03,0.18,0.056,0.267,0.078c0.112,0.027,0.23,0.054,0.353,0.073C14.553,23.973,14.754,24,15,24
				c0.248,0,0.561-0.028,0.838-0.076c0.127-0.021,0.245-0.047,0.364-0.076c0.08-0.021,0.166-0.046,0.252-0.074
				c2.169-0.64,3.832-2.256,4.572-4.435c0.056-0.164,0.193-0.288,0.362-0.326c0.11-0.025,0.224-0.012,0.323,0.035
				C21.797,19.021,21.891,19,22,19c0.297,0,1-0.776,1-2c0-1.396-0.331-2-0.5-2H22c-0.276,0-0.5-0.224-0.5-0.5
				c0-0.896-0.118-1.252-0.313-1.841c-0.052-0.155-0.106-0.322-0.165-0.513c-0.08-0.264,0.069-0.543,0.333-0.624
				c0.269-0.081,0.544,0.069,0.624,0.333c0.056,0.182,0.108,0.341,0.157,0.49c0.168,0.507,0.308,0.927,0.351,1.656H22.5
				c0.953,0,1.5,1.093,1.5,3c0,1.57-0.953,3-2,3c-0.042,0.016-0.101,0.037-0.171,0.053c-0.906,2.292-2.739,3.985-5.083,4.677
				c-0.095,0.03-0.198,0.062-0.303,0.088c-0.151,0.037-0.295,0.068-0.441,0.092C15.673,24.967,15.306,25,15,25z"/>
		</g>
		<g>
			<path d="M15,14c-4.135,0-7.249-2.144-7.925-3.237c-0.146-0.235-0.073-0.543,0.162-0.688c0.234-0.146,0.544-0.073,0.688,0.162
				C8.411,11.023,11.23,13,15,13s6.589-1.977,7.075-2.763c0.145-0.235,0.452-0.308,0.688-0.162s0.308,0.454,0.162,0.688
				C22.249,11.856,19.135,14,15,14z"/>
		</g>
		<g>
			<path d="M22.25,11H7.75C6.785,11,6,10.258,6,9.346V8.192c0-0.276,0.224-0.5,0.5-0.5c0.726,0,1.871-0.712,3.083-1.465
				C11.262,5.183,13.165,4,15,4s3.738,1.183,5.417,2.227c1.212,0.753,2.357,1.465,3.083,1.465c0.276,0,0.5,0.224,0.5,0.5v1.154
				C24,10.258,23.215,11,22.25,11z M7,8.638v0.708C7,9.707,7.337,10,7.75,10h14.5C22.663,10,23,9.707,23,9.346V8.638
				c-0.901-0.188-1.939-0.833-3.111-1.562C18.323,6.103,16.55,5,15,5s-3.323,1.103-4.889,2.076C8.939,7.805,7.901,8.45,7,8.638z"/>
		</g>
		<g>
			<path d="M15,9c-0.552,0-1-0.449-1-1V7.5C14,7.224,14.224,7,14.5,7h1C15.776,7,16,7.224,16,7.5V8C16,8.551,15.552,9,15,9z M15,8
				h0.01H15z"/>
		</g>
	</g>
</g>
<g id="Criminal">
</g>
<g id="Prisoner">
</g>
<g id="Woodsman">
</g>
<g id="Dispatcher_1">
</g>
<g id="Dispatcher_2">
</g>
<g id="Soldier">
</g>
<g id="Astronaut">
</g>
<g id="Hipster_Guy">
</g>
<g id="Hipster_Girl">
</g>
<g id="Worker">
</g>
<g id="Old_Man">
</g>
<g id="Punk">
</g>
<g id="Diver">
</g>
<g id="Artist">
</g>
<g id="Dictator">
</g>
<g id="Man_Hat">
</g>
<g id="Woman_Hat">
</g>
<g id="Graduated_Man">
</g>
<g id="Graduated_Woman">
</g>
<g id="Avatar_Chef">
</g>
<g id="Waiter">
</g>
<g id="Waitress">
</g>
<g id="Bllboy">
</g>
<g id="Santa">
</g>
<g id="Doctor">
</g>
<g id="Nurse">
</g>
<g id="Captain">
</g>
<g id="Farmer">
</g>
<g id="Maid">
</g>
<g id="Business_Man_2">
</g>
<g id="Business_Woman_2">
</g>
<g id="Cowboy">
</g>
<g id="Anonymus">
</g>
<g id="Batman">
</g>
<g id="Superman">
</g>
<g id="Captain_America">
</g>
<g id="Darth_Vader">
</g>
<g id="Harry_Potter">
</g>
<g id="Anonymus_2">
</g>
<g id="Scream">
</g>
<g id="Jason">
</g>
<g id="Charlie_Chaplin">
</g>
</svg>
