<?xml version="1.0" encoding="iso-8859-1"?>
<!-- Generator: Adobe Illustrator 19.2.1, SVG Export Plug-In . SVG Version: 6.00 Build 0)  -->
<svg version="1.1" xmlns="http://www.w3.org/2000/svg" xmlns:xlink="http://www.w3.org/1999/xlink" x="0px" y="0px"
	 viewBox="0 0 30 30" style="enable-background:new 0 0 30 30;" xml:space="preserve">
<g id="Man_1">
</g>
<g id="Woman_1">
</g>
<g id="Man_2">
</g>
<g id="Woman_2">
</g>
<g id="Bald_Man">
</g>
<g id="Man_Glasses">
</g>
<g id="Woman_Glasses">
</g>
<g id="Man_Beard">
</g>
<g id="Man_Cap">
</g>
<g id="Woman_Cap">
</g>
<g id="Man_3">
</g>
<g id="Woman_3">
</g>
<g id="Men_4">
</g>
<g id="Woman_4">
</g>
<g id="Business_Man_1">
</g>
<g id="Business_Woman_1">
</g>
<g id="Firefigyhter">
</g>
<g id="Policeman">
</g>
<g id="Criminal">
</g>
<g id="Prisoner">
	<g>
		<g>
			<path d="M25,26c-0.068,0-0.139-0.014-0.205-0.044c-0.13-0.059-0.648-0.222-1.03-0.344c-0.196-0.063-0.358-0.115-0.429-0.14
				l-1.494-0.498c-0.631-0.219-1.5-0.951-1.668-1.095l-0.527-0.525c-0.195-0.195-0.195-0.512,0-0.707s0.512-0.195,0.707,0l0.5,0.5
				c0.4,0.343,0.997,0.772,1.311,0.881l1.494,0.498c0.072,0.025,0.227,0.074,0.411,0.133c0.569,0.183,0.984,0.317,1.136,0.385
				c0.252,0.113,0.364,0.409,0.251,0.661C25.373,25.89,25.19,26,25,26z"/>
		</g>
		<g>
			<path d="M5,26c-0.19,0-0.373-0.11-0.456-0.295c-0.113-0.252-0.001-0.548,0.251-0.661c0.151-0.068,0.566-0.202,1.136-0.385
				c0.185-0.059,0.339-0.108,0.405-0.131l1.506-0.502c0.308-0.107,0.904-0.537,1.332-0.905l0.473-0.475
				c0.195-0.195,0.512-0.195,0.707,0s0.195,0.512,0,0.707l-0.5,0.5c-0.195,0.17-1.064,0.901-1.689,1.119l-1.506,0.502
				c-0.064,0.022-0.227,0.075-0.423,0.138c-0.382,0.122-0.9,0.286-1.03,0.344C5.139,25.986,5.068,26,5,26z"/>
		</g>
		<g>
			<path d="M12.5,16h-1c-0.276,0-0.5-0.224-0.5-0.5s0.224-0.5,0.5-0.5h1c0.276,0,0.5,0.224,0.5,0.5S12.776,16,12.5,16z"/>
		</g>
		<g>
			<path d="M18.5,16h-1c-0.276,0-0.5-0.224-0.5-0.5s0.224-0.5,0.5-0.5h1c0.276,0,0.5,0.224,0.5,0.5S18.776,16,18.5,16z"/>
		</g>
		<g>
			<path d="M15,30C6.729,30,0,23.271,0,15S6.729,0,15,0s15,6.729,15,15S23.271,30,15,30z M15,1C7.28,1,1,7.28,1,15s6.28,14,14,14
				s14-6.28,14-14S22.72,1,15,1z"/>
		</g>
		<g>
			<path d="M15,25c-0.35,0-0.627-0.043-0.903-0.091c-0.142-0.022-0.285-0.054-0.43-0.089c-0.111-0.028-0.214-0.06-0.317-0.092
				C10.927,24.013,9.047,22.299,8.15,20H8c-1.047,0-2-1.43-2-3c0-1.907,0.547-3,1.5-3h0.014c0.043-0.734,0.183-1.155,0.353-1.664
				c0.049-0.146,0.101-0.303,0.155-0.482c0.081-0.264,0.356-0.415,0.625-0.332c0.264,0.081,0.412,0.36,0.332,0.625
				c-0.058,0.188-0.112,0.353-0.163,0.505C8.618,13.242,8.5,13.598,8.5,14.5C8.5,14.776,8.276,15,8,15H7.5C7.331,15,7,15.604,7,17
				c0,1.224,0.703,2,1,2h0.5c0.214,0,0.404,0.136,0.474,0.339c0.733,2.158,2.435,3.773,4.668,4.433
				c0.095,0.03,0.18,0.056,0.267,0.078c0.112,0.027,0.23,0.054,0.353,0.073C14.553,23.973,14.754,24,15,24
				c0.248,0,0.561-0.028,0.838-0.076c0.127-0.021,0.245-0.047,0.364-0.076c0.08-0.021,0.166-0.046,0.252-0.074
				c2.169-0.64,3.832-2.256,4.572-4.435c0.056-0.164,0.193-0.288,0.362-0.326c0.11-0.025,0.224-0.012,0.323,0.035
				C21.797,19.021,21.891,19,22,19c0.297,0,1-0.776,1-2c0-1.396-0.331-2-0.5-2H22c-0.276,0-0.5-0.224-0.5-0.5
				c0-0.896-0.118-1.252-0.313-1.841c-0.052-0.155-0.106-0.322-0.165-0.513c-0.08-0.264,0.069-0.543,0.333-0.624
				c0.27-0.081,0.544,0.069,0.624,0.333c0.056,0.182,0.108,0.341,0.157,0.49c0.168,0.507,0.308,0.927,0.351,1.656H22.5
				c0.953,0,1.5,1.093,1.5,3c0,1.57-0.953,3-2,3c-0.042,0.016-0.101,0.037-0.171,0.053c-0.906,2.292-2.739,3.985-5.083,4.677
				c-0.095,0.03-0.198,0.062-0.303,0.088c-0.151,0.037-0.295,0.068-0.441,0.092C15.673,24.967,15.306,25,15,25z"/>
		</g>
		<g>
			<path d="M15,14c-4.646,0-6.717-1.537-6.803-1.602C8.073,12.303,8,12.156,8,12V5.5c0-0.09,0.024-0.178,0.07-0.255
				C8.124,5.153,9.467,3,15,3s6.876,2.153,6.93,2.245C21.976,5.322,22,5.41,22,5.5V12c0,0.156-0.073,0.303-0.197,0.398
				C21.717,12.463,19.646,14,15,14z M9,11.727C9.586,12.07,11.5,13,15,13c3.498,0,5.411-0.929,6-1.273V5.668
				C20.687,5.314,19.236,4,15,4c-4.248,0-5.688,1.311-6,1.667V11.727z M21.5,12h0.01H21.5z"/>
		</g>
		<g>
			<path d="M15,11c-3.222,0-4.728-1.048-4.79-1.093c-0.226-0.161-0.277-0.473-0.117-0.698c0.16-0.225,0.471-0.276,0.695-0.118
				C10.818,9.112,12.15,10,15,10c2.868,0,4.199-0.9,4.212-0.909c0.229-0.155,0.538-0.102,0.695,0.123
				c0.158,0.225,0.106,0.534-0.117,0.694C19.728,9.952,18.222,11,15,11z"/>
		</g>
		<g>
			<path d="M15,28c-3.172,0-8.485-2.442-8.71-2.546c-0.251-0.116-0.359-0.413-0.244-0.664c0.116-0.251,0.413-0.361,0.664-0.244
				C6.763,24.571,12.048,27,15,27s8.237-2.429,8.29-2.454c0.252-0.117,0.548-0.007,0.664,0.244c0.115,0.25,0.007,0.548-0.244,0.664
				C23.485,25.558,18.172,28,15,28z"/>
		</g>
		<g>
			<path d="M15,26c-3.184,0-6.106-1.492-6.229-1.556c-0.245-0.127-0.341-0.428-0.215-0.674c0.126-0.245,0.428-0.341,0.674-0.215
				C9.258,23.57,12.065,25,15,25c2.943,0,5.742-1.43,5.771-1.444c0.243-0.124,0.546-0.031,0.674,0.215
				c0.127,0.245,0.03,0.547-0.215,0.674C21.106,24.508,18.184,26,15,26z"/>
		</g>
		<g>
			<path d="M15,8c-3.222,0-4.728-1.048-4.79-1.093c-0.226-0.161-0.277-0.473-0.117-0.698c0.16-0.225,0.471-0.276,0.695-0.118
				C10.818,6.112,12.15,7,15,7c2.868,0,4.199-0.9,4.212-0.909c0.229-0.156,0.538-0.103,0.695,0.123
				c0.158,0.225,0.106,0.534-0.117,0.694C19.728,6.952,18.222,8,15,8z"/>
		</g>
	</g>
</g>
<g id="Woodsman">
</g>
<g id="Dispatcher_1">
</g>
<g id="Dispatcher_2">
</g>
<g id="Soldier">
</g>
<g id="Astronaut">
</g>
<g id="Hipster_Guy">
</g>
<g id="Hipster_Girl">
</g>
<g id="Worker">
</g>
<g id="Old_Man">
</g>
<g id="Punk">
</g>
<g id="Diver">
</g>
<g id="Artist">
</g>
<g id="Dictator">
</g>
<g id="Man_Hat">
</g>
<g id="Woman_Hat">
</g>
<g id="Graduated_Man">
</g>
<g id="Graduated_Woman">
</g>
<g id="Avatar_Chef">
</g>
<g id="Waiter">
</g>
<g id="Waitress">
</g>
<g id="Bllboy">
</g>
<g id="Santa">
</g>
<g id="Doctor">
</g>
<g id="Nurse">
</g>
<g id="Captain">
</g>
<g id="Farmer">
</g>
<g id="Maid">
</g>
<g id="Business_Man_2">
</g>
<g id="Business_Woman_2">
</g>
<g id="Cowboy">
</g>
<g id="Anonymus">
</g>
<g id="Batman">
</g>
<g id="Superman">
</g>
<g id="Captain_America">
</g>
<g id="Darth_Vader">
</g>
<g id="Harry_Potter">
</g>
<g id="Anonymus_2">
</g>
<g id="Scream">
</g>
<g id="Jason">
</g>
<g id="Charlie_Chaplin">
</g>
</svg>
