<?xml version="1.0" encoding="iso-8859-1"?>
<!-- Generator: Adobe Illustrator 19.2.1, SVG Export Plug-In . SVG Version: 6.00 Build 0)  -->
<svg version="1.1" xmlns="http://www.w3.org/2000/svg" xmlns:xlink="http://www.w3.org/1999/xlink" x="0px" y="0px"
	 viewBox="0 0 30 30" style="enable-background:new 0 0 30 30;" xml:space="preserve">
<g id="Man_1">
</g>
<g id="Woman_1">
</g>
<g id="Man_2">
</g>
<g id="Woman_2">
</g>
<g id="Bald_Man">
</g>
<g id="Man_Glasses">
</g>
<g id="Woman_Glasses">
</g>
<g id="Man_Beard">
</g>
<g id="Man_Cap">
</g>
<g id="Woman_Cap">
</g>
<g id="Man_3">
</g>
<g id="Woman_3">
</g>
<g id="Men_4">
</g>
<g id="Woman_4">
</g>
<g id="Business_Man_1">
</g>
<g id="Business_Woman_1">
</g>
<g id="Firefigyhter">
</g>
<g id="Policeman">
</g>
<g id="Criminal">
</g>
<g id="Prisoner">
</g>
<g id="Woodsman">
</g>
<g id="Dispatcher_1">
</g>
<g id="Dispatcher_2">
</g>
<g id="Soldier">
</g>
<g id="Astronaut">
</g>
<g id="Hipster_Guy">
</g>
<g id="Hipster_Girl">
</g>
<g id="Worker">
</g>
<g id="Old_Man">
</g>
<g id="Punk">
	<g>
		<g>
			<path d="M25,26c-0.068,0-0.139-0.014-0.205-0.044c-0.114-0.051-0.276-0.1-0.428-0.146c-0.101-0.031-0.198-0.062-0.278-0.09
				l-2.246-0.745c-0.632-0.22-1.501-0.951-1.669-1.096l-1.027-1.025c-0.195-0.195-0.195-0.512,0-0.707s0.512-0.195,0.707,0l1,1
				c0.4,0.343,0.997,0.772,1.311,0.881l2.499,0.826c0.191,0.06,0.396,0.125,0.542,0.19c0.252,0.113,0.364,0.409,0.251,0.661
				C25.373,25.89,25.19,26,25,26z"/>
		</g>
		<g>
			<path d="M5,26c-0.19,0-0.373-0.11-0.456-0.295c-0.113-0.252-0.001-0.548,0.251-0.661c0.146-0.065,0.351-0.13,0.542-0.19
				l2.506-0.829c0.307-0.106,0.903-0.536,1.331-0.904l0.973-0.975c0.195-0.195,0.512-0.195,0.707,0s0.195,0.512,0,0.707l-1,1
				c-0.195,0.17-1.064,0.901-1.689,1.119l-2.261,0.75c-0.072,0.025-0.17,0.056-0.271,0.087c-0.151,0.046-0.313,0.095-0.428,0.146
				C5.139,25.986,5.068,26,5,26z"/>
		</g>
		<g>
			<path d="M18.5,15h-1c-0.276,0-0.5-0.224-0.5-0.5s0.224-0.5,0.5-0.5h1c0.276,0,0.5,0.224,0.5,0.5S18.776,15,18.5,15z"/>
		</g>
		<g>
			<path d="M12.5,15h-1c-0.276,0-0.5-0.224-0.5-0.5s0.224-0.5,0.5-0.5h1c0.276,0,0.5,0.224,0.5,0.5S12.776,15,12.5,15z"/>
		</g>
		<g>
			<path d="M15,30C6.729,30,0,23.271,0,15S6.729,0,15,0s15,6.729,15,15S23.271,30,15,30z M15,1C7.28,1,1,7.28,1,15s6.28,14,14,14
				s14-6.28,14-14S22.72,1,15,1z"/>
		</g>
		<g>
			<path d="M15.052,25c-0.294,0-0.597-0.029-0.955-0.091c-0.141-0.022-0.284-0.055-0.428-0.089c-0.113-0.028-0.216-0.06-0.319-0.092
				c-2.318-0.685-4.205-4.174-5.078-6.4C8.103,18.429,7.922,18.5,7.75,18.5c-0.998,0-1.75-1.29-1.75-3
				c0-1.583,0.645-2.807,1.532-2.979c0.344-3.828,2.56-6.623,5.861-7.343c0.148-0.034,0.302,0.004,0.42,0.099
				C13.932,5.372,14,5.515,14,5.666v1.733c0.225,0.538,0.731,1.793,0.924,2.601h0.153C15.271,9.197,15.776,7.938,16,7.4V5.666
				c0-0.151,0.068-0.294,0.187-0.39c0.117-0.094,0.271-0.132,0.42-0.099c3.302,0.721,5.518,3.515,5.861,7.343
				C23.355,12.693,24,13.917,24,15.5c0,1.71-0.752,3-1.75,3c-0.171,0-0.351-0.071-0.52-0.171c-0.898,2.329-2.733,5.737-4.984,6.401
				c-0.095,0.03-0.198,0.062-0.303,0.088c-0.152,0.036-0.295,0.068-0.441,0.092C15.648,24.971,15.345,25,15.052,25z M8.5,17
				c0.037,0,0.074,0.004,0.11,0.012c0.17,0.039,0.308,0.163,0.363,0.327c0.926,2.724,2.876,5.904,4.668,6.433
				c0.095,0.03,0.18,0.056,0.267,0.078c0.111,0.026,0.229,0.054,0.353,0.073c0.612,0.105,0.973,0.104,1.577,0.001
				c0.127-0.021,0.246-0.048,0.366-0.076c0.078-0.021,0.164-0.046,0.25-0.074c1.824-0.539,3.647-3.713,4.572-6.435
				c0.056-0.164,0.193-0.288,0.363-0.327c0.166-0.037,0.347,0.014,0.468,0.138c0.166,0.17,0.382,0.332,0.457,0.357
				C22.515,17.5,23,16.741,23,15.5s-0.485-2-0.75-2H22c-0.267,0-0.486-0.209-0.499-0.475C21.333,9.686,19.628,7.175,17,6.319V7.5
				c0,0.066-0.013,0.132-0.039,0.193C16.499,8.798,16,10.185,16,10.5c0,0.276-0.224,0.5-0.5,0.5h-1c-0.276,0-0.5-0.224-0.5-0.5
				c0-0.323-0.499-1.708-0.961-2.806C13.014,7.633,13,7.566,13,7.5V6.319c-2.628,0.856-4.333,3.367-4.501,6.706
				C8.486,13.291,8.267,13.5,8,13.5H7.75c-0.265,0-0.75,0.759-0.75,2s0.485,2,0.75,2c0.011-0.018,0.227-0.18,0.393-0.35
				C8.237,17.053,8.367,17,8.5,17z"/>
		</g>
		<g>
			<path d="M16.5,6C16.224,6,16,5.776,16,5.5V5h-2v0.5C14,5.776,13.776,6,13.5,6S13,5.776,13,5.5v-1C13,4.224,13.224,4,13.5,4h3
				C16.776,4,17,4.224,17,4.5v1C17,5.776,16.776,6,16.5,6z"/>
		</g>
	</g>
</g>
<g id="Diver">
</g>
<g id="Artist">
</g>
<g id="Dictator">
</g>
<g id="Man_Hat">
</g>
<g id="Woman_Hat">
</g>
<g id="Graduated_Man">
</g>
<g id="Graduated_Woman">
</g>
<g id="Avatar_Chef">
</g>
<g id="Waiter">
</g>
<g id="Waitress">
</g>
<g id="Bllboy">
</g>
<g id="Santa">
</g>
<g id="Doctor">
</g>
<g id="Nurse">
</g>
<g id="Captain">
</g>
<g id="Farmer">
</g>
<g id="Maid">
</g>
<g id="Business_Man_2">
</g>
<g id="Business_Woman_2">
</g>
<g id="Cowboy">
</g>
<g id="Anonymus">
</g>
<g id="Batman">
</g>
<g id="Superman">
</g>
<g id="Captain_America">
</g>
<g id="Darth_Vader">
</g>
<g id="Harry_Potter">
</g>
<g id="Anonymus_2">
</g>
<g id="Scream">
</g>
<g id="Jason">
</g>
<g id="Charlie_Chaplin">
</g>
</svg>
