<?xml version="1.0" encoding="iso-8859-1"?>
<!-- Generator: Adobe Illustrator 19.2.1, SVG Export Plug-In . SVG Version: 6.00 Build 0)  -->
<svg version="1.1" xmlns="http://www.w3.org/2000/svg" xmlns:xlink="http://www.w3.org/1999/xlink" x="0px" y="0px"
	 viewBox="0 0 30 30" style="enable-background:new 0 0 30 30;" xml:space="preserve">
<g id="Man_1">
</g>
<g id="Woman_1">
</g>
<g id="Man_2">
</g>
<g id="Woman_2">
</g>
<g id="Bald_Man">
</g>
<g id="Man_Glasses">
</g>
<g id="Woman_Glasses">
</g>
<g id="Man_Beard">
</g>
<g id="Man_Cap">
</g>
<g id="Woman_Cap">
</g>
<g id="Man_3">
</g>
<g id="Woman_3">
</g>
<g id="Men_4">
</g>
<g id="Woman_4">
</g>
<g id="Business_Man_1">
</g>
<g id="Business_Woman_1">
</g>
<g id="Firefigyhter">
</g>
<g id="Policeman">
</g>
<g id="Criminal">
</g>
<g id="Prisoner">
</g>
<g id="Woodsman">
</g>
<g id="Dispatcher_1">
</g>
<g id="Dispatcher_2">
</g>
<g id="Soldier">
</g>
<g id="Astronaut">
</g>
<g id="Hipster_Guy">
</g>
<g id="Hipster_Girl">
</g>
<g id="Worker">
</g>
<g id="Old_Man">
</g>
<g id="Punk">
</g>
<g id="Diver">
</g>
<g id="Artist">
</g>
<g id="Dictator">
</g>
<g id="Man_Hat">
</g>
<g id="Woman_Hat">
</g>
<g id="Graduated_Man">
</g>
<g id="Graduated_Woman">
</g>
<g id="Avatar_Chef">
</g>
<g id="Waiter">
	<g>
		<g>
			<path d="M21.5,13.5c-0.166,0-0.326-0.083-0.421-0.23s-0.813-1.291-1.022-2.278c-2.636-0.106-5.163-1.141-6.351-2.249
				C12.842,10.431,10.317,11,9.5,11c-0.209,0.104-0.463,1.105-0.5,2.021c-0.007,0.165-0.096,0.316-0.236,0.404
				c-0.14,0.088-0.314,0.099-0.467,0.032C8.287,13.452,7.256,13,6.5,13C6.224,13,6,12.776,6,12.5S6.224,12,6.5,12
				c0.528,0,1.119,0.154,1.557,0.299C8.174,11.357,8.514,10,9.5,10c0.712,0,3.5-0.652,3.5-2.5C13,7.224,13.224,7,13.5,7
				S14,7.224,14,7.5c0.056,0.603,2.831,2.5,6.5,2.5c0.276,0,0.5,0.224,0.5,0.5c0,0.471,0.377,1.29,0.709,1.877
				C22.146,12.217,22.855,12,23.5,12c0.276,0,0.5,0.224,0.5,0.5S23.776,13,23.5,13c-0.652,0-1.516,0.328-1.792,0.455
				C21.641,13.485,21.57,13.5,21.5,13.5z"/>
		</g>
		<g>
			<path d="M14.948,23c-0.297,0-0.603-0.031-0.962-0.097c-0.142-0.025-0.284-0.06-0.428-0.097c-0.116-0.031-0.22-0.064-0.324-0.1
				c-2.24-0.709-4.222-2.662-5.181-5.064c-0.113,0.033-0.217,0.045-0.304,0.045c-0.998,0-1.75-1.366-1.75-3.179
				c0-0.272,0.08-0.987,0.114-1.28C6.065,13.075,6,12.813,6,12.5C6,7.439,10.206,3,15,3c0.276,0,0.5,0.224,0.5,0.5S15.276,4,15,4
				c-4.262,0-8,3.972-8,8.5c0,0.267,0.084,0.472,0.085,0.474c0.033,0.08,0.047,0.171,0.036,0.256C7.074,13.618,7,14.309,7,14.509
				c0,1.415,0.532,2.179,0.75,2.179c0.025,0,0.096-0.029,0.195-0.139c0.122-0.132,0.307-0.187,0.477-0.15
				c0.175,0.038,0.315,0.167,0.369,0.337c0.754,2.375,2.62,4.346,4.755,5.021c0.096,0.032,0.182,0.06,0.268,0.083
				c0.109,0.027,0.229,0.058,0.35,0.079C14.466,21.975,14.714,22,14.948,22c0.276,0,0.5,0.224,0.5,0.5S15.225,23,14.948,23z"/>
		</g>
		<g>
			<path d="M14.948,23c-0.276,0-0.5-0.224-0.5-0.5s0.224-0.5,0.5-0.5c0.234,0,0.482-0.025,0.779-0.08
				c0.128-0.022,0.246-0.053,0.366-0.082c0.075-0.021,0.16-0.049,0.245-0.078c1.817-0.574,4.021-2.349,4.87-5.024
				c0.054-0.17,0.194-0.299,0.369-0.337c0.171-0.037,0.354,0.019,0.477,0.15c0.1,0.109,0.17,0.139,0.195,0.139
				c0.218,0,0.75-0.764,0.75-2.179c0-0.201-0.074-0.891-0.121-1.279c-0.011-0.088,0.002-0.178,0.038-0.26l0,0
				c0,0,0.083-0.205,0.083-0.47C23,7.972,19.262,4,15,4c-0.276,0-0.5-0.224-0.5-0.5S14.724,3,15,3c4.794,0,9,4.439,9,9.5
				c0,0.313-0.065,0.575-0.114,0.729C23.92,13.521,24,14.236,24,14.509c0,1.813-0.752,3.179-1.75,3.179
				c-0.087,0-0.19-0.012-0.305-0.046c-0.96,2.384-2.981,4.337-5.295,5.068c-0.094,0.032-0.196,0.065-0.302,0.095
				c-0.154,0.039-0.298,0.073-0.444,0.099C15.551,22.969,15.245,23,14.948,23z"/>
		</g>
		<g>
			<path d="M12.5,14h-1c-0.276,0-0.5-0.224-0.5-0.5s0.224-0.5,0.5-0.5h1c0.276,0,0.5,0.224,0.5,0.5S12.776,14,12.5,14z"/>
		</g>
		<g>
			<path d="M18.5,14h-1c-0.276,0-0.5-0.224-0.5-0.5s0.224-0.5,0.5-0.5h1c0.276,0,0.5,0.224,0.5,0.5S18.776,14,18.5,14z"/>
		</g>
		<g>
			<path d="M15,30C6.729,30,0,23.271,0,15S6.729,0,15,0s15,6.729,15,15S23.271,30,15,30z M15,1C7.28,1,1,7.28,1,15s6.28,14,14,14
				s14-6.28,14-14S22.72,1,15,1z"/>
		</g>
		<g>
			<path d="M3.5,24c-0.228,0-0.433-0.155-0.486-0.386c-0.063-0.269,0.104-0.538,0.372-0.601c0.875-0.206,1.858-0.444,1.987-0.488
				l2.004-0.51c0.272-0.098,0.87-0.527,1.297-0.895l1.549-1.037c0.228-0.152,0.539-0.092,0.693,0.139
				c0.153,0.229,0.091,0.54-0.139,0.693l-1.5,1c-0.119,0.107-0.986,0.838-1.612,1.056l-2.006,0.511
				c-0.178,0.063-1.61,0.402-2.045,0.504C3.576,23.996,3.537,24,3.5,24z"/>
		</g>
		<g>
			<path d="M26.5,24c-0.037,0-0.076-0.004-0.114-0.014c-0.435-0.102-1.867-0.44-2.086-0.516l-1.923-0.486
				c-0.668-0.23-1.535-0.961-1.703-1.105l-1.451-0.963c-0.229-0.153-0.292-0.464-0.139-0.693c0.153-0.23,0.466-0.29,0.693-0.139
				l1.5,1c0.476,0.404,1.073,0.834,1.388,0.944l1.922,0.485c0.169,0.056,1.152,0.294,2.027,0.5c0.269,0.063,0.436,0.332,0.372,0.601
				C26.933,23.845,26.728,24,26.5,24z"/>
		</g>
		<g>
			<path d="M16.5,25.5c-0.053,0-0.106-0.009-0.158-0.025L15,25.027l-1.342,0.447c-0.154,0.049-0.32,0.024-0.45-0.069
				C13.077,25.312,13,25.161,13,25v-1c0-0.161,0.077-0.312,0.208-0.405c0.13-0.095,0.296-0.118,0.45-0.069L15,23.973l1.342-0.447
				c0.152-0.049,0.32-0.025,0.45,0.069C16.923,23.688,17,23.839,17,24v1c0,0.161-0.077,0.312-0.208,0.405
				C16.706,25.468,16.604,25.5,16.5,25.5z"/>
		</g>
		<g>
			<path d="M6.499,27c-0.259,0-0.478-0.2-0.498-0.463C6,26.521,5.867,24.865,5.094,23.792c-0.161-0.224-0.11-0.536,0.114-0.698
				c0.222-0.16,0.534-0.111,0.698,0.114c0.939,1.306,1.087,3.177,1.093,3.255c0.02,0.275-0.187,0.515-0.462,0.535
				C6.524,26.999,6.512,27,6.499,27z"/>
		</g>
		<g>
			<path d="M23.501,27c-0.013,0-0.025-0.001-0.038-0.002c-0.275-0.021-0.481-0.26-0.462-0.535c0.006-0.078,0.153-1.949,1.093-3.255
				c0.163-0.226,0.476-0.274,0.698-0.114c0.225,0.162,0.275,0.475,0.114,0.698c-0.773,1.073-0.906,2.729-0.907,2.745
				C23.979,26.8,23.76,27,23.501,27z"/>
		</g>
		<g>
			<path d="M15,30c-0.145,0-0.283-0.063-0.378-0.173l-6.5-7.5c-0.181-0.208-0.158-0.524,0.051-0.705
				c0.209-0.18,0.525-0.159,0.705,0.051L15,28.736l6.122-7.063c0.181-0.21,0.496-0.23,0.705-0.051
				c0.209,0.181,0.231,0.497,0.051,0.705l-6.5,7.5C15.283,29.938,15.145,30,15,30z"/>
		</g>
	</g>
</g>
<g id="Waitress">
</g>
<g id="Bllboy">
</g>
<g id="Santa">
</g>
<g id="Doctor">
</g>
<g id="Nurse">
</g>
<g id="Captain">
</g>
<g id="Farmer">
</g>
<g id="Maid">
</g>
<g id="Business_Man_2">
</g>
<g id="Business_Woman_2">
</g>
<g id="Cowboy">
</g>
<g id="Anonymus">
</g>
<g id="Batman">
</g>
<g id="Superman">
</g>
<g id="Captain_America">
</g>
<g id="Darth_Vader">
</g>
<g id="Harry_Potter">
</g>
<g id="Anonymus_2">
</g>
<g id="Scream">
</g>
<g id="Jason">
</g>
<g id="Charlie_Chaplin">
</g>
</svg>
