<?xml version="1.0" encoding="iso-8859-1"?>
<!-- Generator: Adobe Illustrator 19.2.1, SVG Export Plug-In . SVG Version: 6.00 Build 0)  -->
<svg version="1.1" xmlns="http://www.w3.org/2000/svg" xmlns:xlink="http://www.w3.org/1999/xlink" x="0px" y="0px"
	 viewBox="0 0 30 30" style="enable-background:new 0 0 30 30;" xml:space="preserve">
<g id="Man_1">
</g>
<g id="Woman_1">
</g>
<g id="Man_2">
</g>
<g id="Woman_2">
</g>
<g id="Bald_Man">
</g>
<g id="Man_Glasses">
</g>
<g id="Woman_Glasses">
</g>
<g id="Man_Beard">
</g>
<g id="Man_Cap">
</g>
<g id="Woman_Cap">
</g>
<g id="Man_3">
</g>
<g id="Woman_3">
</g>
<g id="Men_4">
</g>
<g id="Woman_4">
</g>
<g id="Business_Man_1">
</g>
<g id="Business_Woman_1">
</g>
<g id="Firefigyhter">
</g>
<g id="Policeman">
</g>
<g id="Criminal">
</g>
<g id="Prisoner">
</g>
<g id="Woodsman">
</g>
<g id="Dispatcher_1">
</g>
<g id="Dispatcher_2">
</g>
<g id="Soldier">
</g>
<g id="Astronaut">
</g>
<g id="Hipster_Guy">
</g>
<g id="Hipster_Girl">
</g>
<g id="Worker">
</g>
<g id="Old_Man">
</g>
<g id="Punk">
</g>
<g id="Diver">
</g>
<g id="Artist">
</g>
<g id="Dictator">
</g>
<g id="Man_Hat">
</g>
<g id="Woman_Hat">
	<g>
		<g>
			<path d="M25,26c-0.068,0-0.138-0.014-0.205-0.044c-0.128-0.058-0.635-0.218-1.015-0.34c-0.203-0.064-0.373-0.119-0.445-0.145
				l-1.493-0.497c-0.633-0.221-1.5-0.951-1.668-1.096l-1.027-1.025c-0.195-0.195-0.195-0.512,0-0.707s0.512-0.195,0.707,0l1,1
				c0.4,0.342,0.997,0.771,1.311,0.882l1.494,0.497c0.075,0.026,0.235,0.078,0.426,0.139c0.562,0.18,0.971,0.313,1.121,0.38
				c0.252,0.113,0.364,0.409,0.251,0.661C25.373,25.891,25.19,26,25,26z"/>
		</g>
		<g>
			<path d="M5,26c-0.191,0-0.373-0.109-0.457-0.295c-0.113-0.252-0.001-0.548,0.251-0.661c0.149-0.067,0.559-0.2,1.121-0.38
				c0.191-0.061,0.352-0.112,0.419-0.136l1.507-0.503c0.308-0.107,0.905-0.537,1.332-0.904l0.973-0.975
				c0.195-0.195,0.512-0.195,0.707,0s0.195,0.512,0,0.707l-1,1c-0.195,0.17-1.063,0.9-1.689,1.118l-1.506,0.503
				c-0.065,0.022-0.235,0.077-0.438,0.142c-0.38,0.122-0.887,0.282-1.015,0.34C5.139,25.986,5.069,26,5,26z"/>
		</g>
		<g>
			<path d="M21.5,15.5c-0.166,0-0.327-0.083-0.421-0.23s-0.812-1.29-1.021-2.276c-2.621-0.079-5.139-0.847-6.334-1.815
				C13.03,12.501,11.154,13,9.5,13c-0.208,0.104-0.463,1.105-0.5,2.021c-0.007,0.165-0.095,0.316-0.235,0.404
				s-0.315,0.099-0.467,0.032C8.287,15.452,7.256,15,6.5,15C6.224,15,6,14.776,6,14.5S6.224,14,6.5,14
				c0.528,0,1.119,0.154,1.557,0.299C8.173,13.357,8.513,12,9.5,12c0.143,0,3.5-0.022,3.5-2c0-0.276,0.224-0.5,0.5-0.5
				S14,9.724,14,10c0.07,0.511,2.72,2,6.5,2c0.276,0,0.5,0.224,0.5,0.5c0,0.471,0.377,1.29,0.709,1.877
				C22.146,14.217,22.855,14,23.5,14c0.276,0,0.5,0.224,0.5,0.5S23.776,15,23.5,15c-0.653,0-1.515,0.328-1.792,0.455
				C21.641,15.485,21.57,15.5,21.5,15.5z"/>
		</g>
		<g>
			<path d="M14.948,25c-0.297,0-0.602-0.031-0.961-0.098c-0.142-0.024-0.285-0.059-0.428-0.096c-0.116-0.031-0.22-0.064-0.324-0.101
				c-2.24-0.708-4.222-2.661-5.18-5.064c-0.114,0.034-0.217,0.046-0.304,0.046c-0.998,0-1.75-1.366-1.75-3.179
				c0-0.272,0.08-0.987,0.115-1.28C6.065,15.075,6,14.813,6,14.5c0-0.054,0.009-0.107,0.026-0.158l1-3
				c0.012-0.035,0.027-0.069,0.046-0.101C7.745,10.131,11.746,9,15,9c3.139,0,7.387,1.024,7.957,2.296l1.018,3.046
				C23.991,14.393,24,14.446,24,14.5c0,0.313-0.065,0.575-0.115,0.729C23.92,15.521,24,16.236,24,16.509
				c0,1.813-0.752,3.179-1.75,3.179c-0.087,0-0.191-0.012-0.305-0.046c-0.959,2.384-2.98,4.337-5.294,5.068
				c-0.093,0.032-0.197,0.065-0.303,0.095c-0.154,0.038-0.297,0.073-0.443,0.099C15.55,24.969,15.245,25,14.948,25z M8.314,18.387
				c0.036,0,0.072,0.004,0.108,0.012c0.174,0.039,0.315,0.167,0.369,0.337c0.753,2.375,2.62,4.346,4.756,5.021
				c0.095,0.032,0.18,0.06,0.266,0.083c0.109,0.027,0.228,0.058,0.35,0.079c0.606,0.112,0.97,0.109,1.565,0.001
				c0.126-0.022,0.246-0.052,0.365-0.082c0.076-0.021,0.161-0.049,0.246-0.077c1.818-0.575,4.022-2.35,4.871-5.025
				c0.054-0.17,0.194-0.298,0.369-0.337c0.17-0.037,0.355,0.019,0.476,0.15c0.101,0.109,0.171,0.139,0.196,0.139
				c0.218,0,0.75-0.764,0.75-2.179c0-0.201-0.074-0.891-0.122-1.279c-0.011-0.088,0.002-0.178,0.039-0.26l0,0
				c0,0,0.068-0.167,0.081-0.396l-0.972-2.916C21.787,11.196,18.572,10,15,10c-3.395,0-6.612,1.182-7.048,1.725l-0.95,2.85
				c0.013,0.229,0.082,0.397,0.083,0.399c0.033,0.08,0.047,0.171,0.037,0.256C7.074,15.618,7,16.309,7,16.509
				c0,1.415,0.532,2.179,0.75,2.179c0.025,0,0.095-0.029,0.196-0.139C8.042,18.444,8.176,18.387,8.314,18.387z"/>
		</g>
		<g>
			<path d="M15,30C6.729,30,0,23.271,0,15S6.729,0,15,0s15,6.729,15,15S23.271,30,15,30z M15,1C7.28,1,1,7.28,1,15s6.28,14,14,14
				s14-6.28,14-14S22.72,1,15,1z"/>
		</g>
		<g>
			<path d="M20,23.5c-0.229,0-0.436-0.158-0.488-0.392c-0.06-0.27,0.11-0.536,0.38-0.597l4.03-0.896l-0.914-5.018
				c-0.05-0.271,0.13-0.532,0.402-0.582c0.271-0.042,0.532,0.131,0.581,0.402l1,5.491c0.048,0.265-0.121,0.52-0.383,0.578l-4.5,1
				C20.072,23.496,20.036,23.5,20,23.5z"/>
		</g>
		<g>
			<path d="M10,23.5c-0.036,0-0.072-0.004-0.109-0.012l-4.5-1C5.129,22.43,4.96,22.175,5.008,21.91l1-5.491
				c0.05-0.271,0.313-0.445,0.581-0.402c0.272,0.05,0.452,0.311,0.402,0.582l-0.914,5.018l4.03,0.896
				c0.27,0.061,0.439,0.327,0.38,0.597C10.437,23.342,10.229,23.5,10,23.5z"/>
		</g>
		<g>
			<path d="M6.5,14c-0.073,0-0.148-0.017-0.219-0.051C4.853,13.253,4,12.15,4,11c0-2.477,5.551-5,11-5s11,2.523,11,5
				c0,1.239-0.989,1.819-2.281,2.449c-0.249,0.121-0.548,0.018-0.668-0.23c-0.121-0.248-0.018-0.547,0.23-0.668
				C24.63,11.893,25,11.56,25,11c0-1.507-4.674-4-10-4S5,9.493,5,11c0,0.759,0.643,1.525,1.719,2.051
				c0.248,0.121,0.351,0.42,0.23,0.668C6.863,13.896,6.685,14,6.5,14z"/>
		</g>
		<g>
			<path d="M8.5,8C8.441,8,8.382,7.99,8.324,7.968C8.066,7.871,7.935,7.583,8.032,7.324C8.048,7.281,9.715,3,15,3
				s6.952,4.281,6.968,4.324c0.097,0.258-0.034,0.545-0.292,0.643c-0.259,0.1-0.546-0.033-0.645-0.29C20.975,7.526,19.575,4,15,4
				c-4.6,0-6.018,3.639-6.032,3.676C8.893,7.876,8.702,8,8.5,8z"/>
		</g>
		<g>
			<path d="M12.5,16h-1c-0.276,0-0.5-0.224-0.5-0.5s0.224-0.5,0.5-0.5h1c0.276,0,0.5,0.224,0.5,0.5S12.776,16,12.5,16z"/>
		</g>
		<g>
			<path d="M18.5,16h-1c-0.276,0-0.5-0.224-0.5-0.5s0.224-0.5,0.5-0.5h1c0.276,0,0.5,0.224,0.5,0.5S18.776,16,18.5,16z"/>
		</g>
	</g>
</g>
<g id="Graduated_Man">
</g>
<g id="Graduated_Woman">
</g>
<g id="Avatar_Chef">
</g>
<g id="Waiter">
</g>
<g id="Waitress">
</g>
<g id="Bllboy">
</g>
<g id="Santa">
</g>
<g id="Doctor">
</g>
<g id="Nurse">
</g>
<g id="Captain">
</g>
<g id="Farmer">
</g>
<g id="Maid">
</g>
<g id="Business_Man_2">
</g>
<g id="Business_Woman_2">
</g>
<g id="Cowboy">
</g>
<g id="Anonymus">
</g>
<g id="Batman">
</g>
<g id="Superman">
</g>
<g id="Captain_America">
</g>
<g id="Darth_Vader">
</g>
<g id="Harry_Potter">
</g>
<g id="Anonymus_2">
</g>
<g id="Scream">
</g>
<g id="Jason">
</g>
<g id="Charlie_Chaplin">
</g>
</svg>
