<?xml version="1.0" encoding="iso-8859-1"?>
<!-- Generator: Adobe Illustrator 19.2.1, SVG Export Plug-In . SVG Version: 6.00 Build 0)  -->
<svg version="1.1" xmlns="http://www.w3.org/2000/svg" xmlns:xlink="http://www.w3.org/1999/xlink" x="0px" y="0px"
	 viewBox="0 0 30 30" style="enable-background:new 0 0 30 30;" xml:space="preserve">
<g id="Man_1">
</g>
<g id="Woman_1">
</g>
<g id="Man_2">
</g>
<g id="Woman_2">
</g>
<g id="Bald_Man">
</g>
<g id="Man_Glasses">
</g>
<g id="Woman_Glasses">
</g>
<g id="Man_Beard">
</g>
<g id="Man_Cap">
</g>
<g id="Woman_Cap">
</g>
<g id="Man_3">
</g>
<g id="Woman_3">
</g>
<g id="Men_4">
</g>
<g id="Woman_4">
</g>
<g id="Business_Man_1">
</g>
<g id="Business_Woman_1">
</g>
<g id="Firefigyhter">
</g>
<g id="Policeman">
</g>
<g id="Criminal">
</g>
<g id="Prisoner">
</g>
<g id="Woodsman">
</g>
<g id="Dispatcher_1">
</g>
<g id="Dispatcher_2">
</g>
<g id="Soldier">
</g>
<g id="Astronaut">
</g>
<g id="Hipster_Guy">
</g>
<g id="Hipster_Girl">
</g>
<g id="Worker">
	<g>
		<g>
			<path d="M25,26c-0.068,0-0.139-0.014-0.205-0.044c-0.13-0.059-0.648-0.222-1.03-0.344c-0.196-0.063-0.358-0.115-0.429-0.14
				l-1.494-0.498c-0.631-0.219-1.5-0.951-1.668-1.095l-0.527-0.525c-0.195-0.195-0.195-0.512,0-0.707s0.512-0.195,0.707,0l0.5,0.5
				c0.4,0.343,0.997,0.772,1.311,0.881l1.494,0.498c0.072,0.025,0.227,0.074,0.411,0.133c0.569,0.183,0.984,0.317,1.136,0.385
				c0.252,0.113,0.364,0.409,0.251,0.661C25.373,25.89,25.19,26,25,26z"/>
		</g>
		<g>
			<path d="M5,26c-0.19,0-0.373-0.11-0.456-0.295c-0.113-0.252-0.001-0.548,0.251-0.661c0.151-0.068,0.566-0.202,1.136-0.385
				c0.185-0.059,0.339-0.108,0.405-0.131l1.506-0.502c0.308-0.107,0.904-0.537,1.332-0.905l0.473-0.475
				c0.195-0.195,0.512-0.195,0.707,0s0.195,0.512,0,0.707l-0.5,0.5c-0.195,0.17-1.064,0.901-1.689,1.119l-1.506,0.502
				c-0.064,0.022-0.227,0.075-0.423,0.138c-0.382,0.122-0.9,0.286-1.03,0.344C5.139,25.986,5.068,26,5,26z"/>
		</g>
		<g>
			<path d="M15,30C6.729,30,0,23.271,0,15S6.729,0,15,0s15,6.729,15,15S23.271,30,15,30z M15,1C7.28,1,1,7.28,1,15s6.28,14,14,14
				s14-6.28,14-14S22.72,1,15,1z"/>
		</g>
		<g>
			<path d="M15,25c-0.35,0-0.627-0.043-0.903-0.091c-0.142-0.022-0.285-0.054-0.43-0.089c-0.111-0.028-0.214-0.06-0.317-0.092
				C10.927,24.013,9.047,22.299,8.15,20H8c-1.047,0-2-1.43-2-3c0-1.907,0.547-3,1.5-3H8c0.276,0,0.5,0.224,0.5,0.5S8.276,15,8,15
				H7.5C7.331,15,7,15.604,7,17c0,1.224,0.703,2,1,2h0.5c0.214,0,0.404,0.136,0.474,0.339c0.733,2.158,2.435,3.773,4.668,4.433
				c0.095,0.03,0.18,0.056,0.267,0.078c0.112,0.027,0.23,0.054,0.353,0.073C14.553,23.973,14.754,24,15,24
				c0.248,0,0.561-0.028,0.838-0.076c0.127-0.021,0.245-0.047,0.364-0.076c0.08-0.021,0.166-0.046,0.252-0.074
				c2.169-0.64,3.832-2.256,4.572-4.435c0.056-0.164,0.193-0.288,0.362-0.326c0.11-0.025,0.224-0.012,0.323,0.035
				C21.797,19.021,21.891,19,22,19c0.297,0,1-0.776,1-2c0-1.396-0.331-2-0.5-2H22c-0.276,0-0.5-0.224-0.5-0.5S21.724,14,22,14h0.5
				c0.953,0,1.5,1.093,1.5,3c0,1.57-0.953,3-2,3c-0.042,0.016-0.101,0.037-0.171,0.053c-0.906,2.292-2.739,3.985-5.083,4.677
				c-0.095,0.03-0.198,0.062-0.303,0.088c-0.151,0.037-0.295,0.068-0.441,0.092C15.673,24.967,15.306,25,15,25z"/>
		</g>
		<g>
			<path d="M8.5,28.5C8.224,28.5,8,28.276,8,28v-3.5C8,24.224,8.224,24,8.5,24S9,24.224,9,24.5V28C9,28.276,8.776,28.5,8.5,28.5z"/>
		</g>
		<g>
			<path d="M21.5,28.5c-0.276,0-0.5-0.224-0.5-0.5v-3.5c0-0.276,0.224-0.5,0.5-0.5s0.5,0.224,0.5,0.5V28
				C22,28.276,21.776,28.5,21.5,28.5z"/>
		</g>
		<g>
			<path d="M18.5,29.5c-0.276,0-0.5-0.224-0.5-0.5v-5.5c0-0.276,0.224-0.5,0.5-0.5s0.5,0.224,0.5,0.5V29
				C19,29.276,18.776,29.5,18.5,29.5z"/>
		</g>
		<g>
			<path d="M11.5,29.5c-0.276,0-0.5-0.224-0.5-0.5v-5.5c0-0.276,0.224-0.5,0.5-0.5s0.5,0.224,0.5,0.5V29
				C12,29.276,11.776,29.5,11.5,29.5z"/>
		</g>
		<g>
			<path d="M15,10c-1.103,0-2-0.897-2-2V5.5c0-0.064,0.013-0.128,0.037-0.188C13.059,5.258,13.586,4,15,4s1.941,1.258,1.963,1.312
				C16.987,5.372,17,5.436,17,5.5V8C17,9.103,16.103,10,15,10z M14,5.614V8c0,0.551,0.448,1,1,1s1-0.449,1-1V5.616
				C15.9,5.438,15.596,5,15,5C14.4,5,14.099,5.437,14,5.614z"/>
		</g>
		<g>
			<path d="M16.5,17h-3c-1.285,0-2.202-0.412-3.265-1.076l-3.959-1.977c-0.144-0.072-0.244-0.208-0.27-0.367
				c-0.026-0.159,0.026-0.32,0.14-0.434l0.856-0.856C7.105,8.798,9.745,5,13.5,5C13.776,5,14,5.224,14,5.5S13.776,6,13.5,6
				C10.259,6,8,9.426,8,12.5c0,0.133-0.053,0.26-0.146,0.354l-0.51,0.509l3.38,1.69C11.701,15.661,12.449,16,13.5,16h3
				c1.051,0,1.799-0.339,2.735-0.924l3.421-1.713l-0.51-0.51C22.053,12.76,22,12.633,22,12.5C22,9.426,19.741,6,16.5,6
				C16.224,6,16,5.776,16,5.5S16.224,5,16.5,5c3.755,0,6.395,3.798,6.497,7.29l0.856,0.856c0.113,0.114,0.166,0.275,0.14,0.434
				c-0.025,0.159-0.126,0.295-0.27,0.367l-4,2C18.702,16.588,17.785,17,16.5,17z"/>
		</g>
		<g>
			<path d="M15,17c-2.206,0-4-1.794-4-4s1.794-4,4-4s4,1.794,4,4S17.206,17,15,17z M15,10c-1.654,0-3,1.346-3,3s1.346,3,3,3
				s3-1.346,3-3S16.654,10,15,10z"/>
		</g>
	</g>
</g>
<g id="Old_Man">
</g>
<g id="Punk">
</g>
<g id="Diver">
</g>
<g id="Artist">
</g>
<g id="Dictator">
</g>
<g id="Man_Hat">
</g>
<g id="Woman_Hat">
</g>
<g id="Graduated_Man">
</g>
<g id="Graduated_Woman">
</g>
<g id="Avatar_Chef">
</g>
<g id="Waiter">
</g>
<g id="Waitress">
</g>
<g id="Bllboy">
</g>
<g id="Santa">
</g>
<g id="Doctor">
</g>
<g id="Nurse">
</g>
<g id="Captain">
</g>
<g id="Farmer">
</g>
<g id="Maid">
</g>
<g id="Business_Man_2">
</g>
<g id="Business_Woman_2">
</g>
<g id="Cowboy">
</g>
<g id="Anonymus">
</g>
<g id="Batman">
</g>
<g id="Superman">
</g>
<g id="Captain_America">
</g>
<g id="Darth_Vader">
</g>
<g id="Harry_Potter">
</g>
<g id="Anonymus_2">
</g>
<g id="Scream">
</g>
<g id="Jason">
</g>
<g id="Charlie_Chaplin">
</g>
</svg>
