<?xml version="1.0" encoding="iso-8859-1"?>
<!-- Generator: Adobe Illustrator 19.2.1, SVG Export Plug-In . SVG Version: 6.00 Build 0)  -->
<svg version="1.1" xmlns="http://www.w3.org/2000/svg" xmlns:xlink="http://www.w3.org/1999/xlink" x="0px" y="0px"
	 viewBox="0 0 30 30" style="enable-background:new 0 0 30 30;" xml:space="preserve">
<g id="Snowflake_1">
</g>
<g id="Snowflake_2">
</g>
<g id="Snowflake_3">
</g>
<g id="Snowflake_4">
</g>
<g id="Winter_Cap_1">
</g>
<g id="Winter_Cap_2">
</g>
<g id="Glowes">
</g>
<g id="Sweater_1">
</g>
<g id="Sweater_2">
</g>
<g id="Sweater_3">
</g>
<g id="Scarf">
</g>
<g id="Winter_Socks">
</g>
<g id="Winter_Sock">
</g>
<g id="Winter_Coat">
</g>
<g id="Winter_Calendar">
</g>
<g id="Thermometer_1">
</g>
<g id="Thermometer_2">
</g>
<g id="Cold">
</g>
<g id="Icicle">
</g>
<g id="Snowing">
</g>
<g id="Snow_Shoes_1">
</g>
<g id="Snow_Shoes_2">
</g>
<g id="Sledge">
</g>
<g id="Snow_Boots">
</g>
<g id="Snowcapped_Mountains">
</g>
<g id="Skis">
</g>
<g id="Sky_Glasses">
</g>
<g id="Snowboard">
</g>
<g id="Ice_Skate">
</g>
<g id="Wooden_House">
</g>
<g id="Snowcapped_House">
</g>
<g id="Hot_Drink">
	<g>
		<g>
			<path d="M24.457,28H4.283c-1.229,0-2.022-0.793-2.722-1.493l-1.44-1.682c-0.127-0.148-0.156-0.357-0.074-0.534
				C0.127,24.113,0.305,24,0.5,24h27.739c0.195,0,0.373,0.113,0.454,0.291c0.082,0.177,0.053,0.386-0.074,0.534l-1.414,1.653
				C26.479,27.207,25.685,28,24.457,28z M1.585,25l0.708,0.828C3.015,26.547,3.522,27,4.283,27h20.174
				c0.759,0,1.268-0.453,2.015-1.2l0.683-0.8H1.585z"/>
		</g>
		<g>
			<path d="M19.65,25c-0.136,0-0.272-0.056-0.371-0.165c-0.185-0.204-0.169-0.521,0.036-0.706C21.657,22.012,23,19.104,23,16.15V11
				H6v5.15c0,2.959,1.322,5.868,3.628,7.981c0.204,0.187,0.217,0.502,0.031,0.706c-0.186,0.203-0.502,0.219-0.707,0.03
				C6.44,22.567,5,19.39,5,16.15V10.5C5,10.224,5.224,10,5.5,10h18c0.276,0,0.5,0.224,0.5,0.5v5.65c0,3.235-1.463,6.414-4.015,8.721
				C19.89,24.957,19.77,25,19.65,25z"/>
		</g>
		<g>
			<path d="M18.785,9c-0.151,0-0.301-0.068-0.399-0.198c-0.977-1.29-0.977-3.313,0-4.603c0.699-0.922,0.699-2.478,0.002-3.397
				c-0.167-0.22-0.123-0.534,0.097-0.7c0.22-0.168,0.533-0.124,0.701,0.097c0.977,1.29,0.977,3.313,0,4.603
				c-0.699,0.922-0.699,2.478-0.002,3.397c0.167,0.22,0.123,0.534-0.097,0.7C18.996,8.967,18.89,9,18.785,9z"/>
		</g>
		<g>
			<path d="M14.997,9c-0.151,0-0.301-0.068-0.399-0.198c-0.977-1.29-0.977-3.313,0-4.603c0.699-0.922,0.699-2.478,0.002-3.397
				c-0.167-0.22-0.123-0.534,0.097-0.7c0.22-0.168,0.533-0.124,0.701,0.097c0.977,1.29,0.977,3.313,0,4.603
				c-0.699,0.922-0.699,2.478-0.002,3.397c0.167,0.22,0.123,0.534-0.097,0.7C15.208,8.967,15.102,9,14.997,9z"/>
		</g>
		<g>
			<path d="M11.219,9c-0.151,0-0.301-0.068-0.399-0.198c-0.977-1.29-0.977-3.313,0-4.603c0.699-0.922,0.699-2.478,0.002-3.397
				c-0.167-0.22-0.123-0.534,0.097-0.7c0.221-0.168,0.534-0.124,0.701,0.097c0.977,1.29,0.977,3.313,0,4.603
				c-0.699,0.922-0.699,2.478-0.002,3.397c0.167,0.22,0.123,0.534-0.097,0.7C11.43,8.967,11.324,9,11.219,9z"/>
		</g>
		<g>
			<path d="M26.5,19c-1.93,0-3.5-1.57-3.5-3.5s1.57-3.5,3.5-3.5s3.5,1.57,3.5,3.5S28.43,19,26.5,19z M26.5,13
				c-1.378,0-2.5,1.121-2.5,2.5s1.122,2.5,2.5,2.5s2.5-1.121,2.5-2.5S27.878,13,26.5,13z"/>
		</g>
	</g>
</g>
<g id="Hot_Chocolate">
</g>
<g id="Lantern">
</g>
<g id="Snow_Shovel">
</g>
<g id="Snowman">
</g>
<g id="Reindeer">
</g>
<g id="Snowmobile">
</g>
<g id="Snow_Chain">
</g>
<g id="Slippery_Road">
</g>
</svg>
