<?xml version="1.0" encoding="iso-8859-1"?>
<!-- Generator: Adobe Illustrator 19.2.1, SVG Export Plug-In . SVG Version: 6.00 Build 0)  -->
<svg version="1.1" xmlns="http://www.w3.org/2000/svg" xmlns:xlink="http://www.w3.org/1999/xlink" x="0px" y="0px"
	 viewBox="0 0 30 30" style="enable-background:new 0 0 30 30;" xml:space="preserve">
<g id="Snowflake_1">
</g>
<g id="Snowflake_2">
</g>
<g id="Snowflake_3">
</g>
<g id="Snowflake_4">
</g>
<g id="Winter_Cap_1">
</g>
<g id="Winter_Cap_2">
</g>
<g id="Glowes">
</g>
<g id="Sweater_1">
</g>
<g id="Sweater_2">
</g>
<g id="Sweater_3">
</g>
<g id="Scarf">
</g>
<g id="Winter_Socks">
</g>
<g id="Winter_Sock">
</g>
<g id="Winter_Coat">
</g>
<g id="Winter_Calendar">
</g>
<g id="Thermometer_1">
</g>
<g id="Thermometer_2">
</g>
<g id="Cold">
</g>
<g id="Icicle">
</g>
<g id="Snowing">
</g>
<g id="Snow_Shoes_1">
</g>
<g id="Snow_Shoes_2">
</g>
<g id="Sledge">
</g>
<g id="Snow_Boots">
</g>
<g id="Snowcapped_Mountains">
</g>
<g id="Skis">
</g>
<g id="Sky_Glasses">
</g>
<g id="Snowboard">
</g>
<g id="Ice_Skate">
</g>
<g id="Wooden_House">
</g>
<g id="Snowcapped_House">
</g>
<g id="Hot_Drink">
</g>
<g id="Hot_Chocolate">
</g>
<g id="Lantern">
</g>
<g id="Snow_Shovel">
</g>
<g id="Snowman">
</g>
<g id="Reindeer">
	<g>
		<g>
			<path d="M15,30c-4.447,0-8.065-3.618-8.065-8.065c0-0.677,0.085-1.352,0.253-2.006l2.481-7.006
				c0.63-2.396,2.826-4.097,5.331-4.097s4.701,1.701,5.343,4.137l2.457,6.923c0.005,0.014,0.009,0.028,0.013,0.043
				c0.168,0.654,0.253,1.329,0.253,2.006C23.065,26.382,19.447,30,15,30z M15,9.826c-2.051,0-3.851,1.395-4.376,3.391L8.143,20.22
				c-0.134,0.531-0.208,1.123-0.208,1.715C7.935,25.83,11.104,29,15,29s7.065-3.17,7.065-7.065c0-0.586-0.072-1.17-0.216-1.736
				l-2.462-6.941C18.851,11.221,17.051,9.826,15,9.826z"/>
		</g>
		<g>
			<path d="M11.094,11.662c-0.056,0-0.112-0.009-0.168-0.029C6.186,9.94,3,5.467,3,0.5C3,0.224,3.224,0,3.5,0S4,0.224,4,0.5
				c0,4.545,2.918,8.641,7.262,10.191c0.26,0.093,0.396,0.379,0.303,0.639C11.491,11.535,11.299,11.662,11.094,11.662z"/>
		</g>
		<g>
			<path d="M18.906,11.662c-0.205,0-0.397-0.127-0.471-0.332c-0.093-0.26,0.043-0.546,0.303-0.639C23.082,9.141,26,5.045,26,0.5
				C26,0.224,26.224,0,26.5,0S27,0.224,27,0.5c0,4.967-3.186,9.44-7.926,11.133C19.019,11.652,18.962,11.662,18.906,11.662z"/>
		</g>
		<g>
			<path d="M23.104,8.929c-0.088,0-0.177-0.023-0.258-0.071c-2.067-1.244-3.302-3.426-3.302-5.836c0-0.276,0.224-0.5,0.5-0.5
				s0.5,0.224,0.5,0.5c0,2.057,1.053,3.918,2.817,4.979c0.236,0.143,0.313,0.45,0.171,0.687C23.438,8.843,23.272,8.929,23.104,8.929
				z"/>
		</g>
		<g>
			<path d="M6.895,8.93c-0.169,0-0.335-0.086-0.429-0.242C6.323,8.45,6.4,8.144,6.637,8.001C8.402,6.94,9.456,5.079,9.456,3.021
				c0-0.276,0.224-0.5,0.5-0.5s0.5,0.224,0.5,0.5c0,2.376-1.266,4.612-3.304,5.837C7.071,8.906,6.982,8.93,6.895,8.93z"/>
		</g>
		<g>
			<circle cx="12.478" cy="15.63" r="0.63"/>
		</g>
		<g>
			<circle cx="17.522" cy="15.63" r="0.63"/>
		</g>
		<g>
			<path d="M19.949,24.173c-0.063,0-0.127-0.012-0.189-0.037c-0.256-0.104-0.378-0.396-0.273-0.652
				c0.077-0.188,0.076-0.395-0.002-0.582c-0.079-0.188-0.227-0.333-0.415-0.41c-0.388-0.158-0.833,0.029-0.991,0.417
				c-0.104,0.255-0.396,0.378-0.652,0.273c-0.256-0.104-0.378-0.396-0.273-0.652c0.367-0.896,1.396-1.332,2.295-0.964
				c0.437,0.178,0.776,0.515,0.959,0.949c0.182,0.434,0.184,0.912,0.006,1.348C20.333,24.056,20.146,24.173,19.949,24.173z"/>
		</g>
		<g>
			<path d="M10.051,24.173c-0.197,0-0.384-0.117-0.463-0.311c-0.178-0.436-0.176-0.914,0.006-1.348
				c0.183-0.435,0.522-0.771,0.958-0.949c0.903-0.368,1.929,0.067,2.296,0.964c0.104,0.256-0.018,0.548-0.273,0.652
				c-0.257,0.105-0.548-0.018-0.652-0.273c-0.157-0.388-0.601-0.575-0.992-0.417c-0.188,0.077-0.335,0.223-0.414,0.41
				c-0.078,0.188-0.079,0.394-0.002,0.582c0.104,0.256-0.018,0.548-0.273,0.652C10.178,24.161,10.114,24.173,10.051,24.173z"/>
		</g>
		<g>
			<path d="M22.567,22.94c-0.155,0-0.31-0.072-0.407-0.209c-1.223-1.712-4.033-2.818-7.16-2.818c-3.126,0-5.936,1.105-7.158,2.816
				c-0.161,0.226-0.475,0.274-0.698,0.116c-0.225-0.161-0.276-0.474-0.116-0.698c1.405-1.965,4.534-3.234,7.973-3.234
				c3.439,0,6.569,1.271,7.975,3.236c0.16,0.225,0.108,0.537-0.116,0.698C22.77,22.91,22.668,22.94,22.567,22.94z"/>
		</g>
		<g>
			<path d="M21.304,16.131c-0.247,0-0.462-0.184-0.495-0.436c-0.035-0.273,0.157-0.524,0.432-0.561
				c0.975-0.127,1.55-0.925,1.845-1.513c-0.603,0.041-1.476,0.171-2.169,0.555c-0.239,0.132-0.545,0.047-0.68-0.195
				c-0.134-0.241-0.046-0.546,0.195-0.68c1.43-0.792,3.34-0.697,3.422-0.692c0.15,0.008,0.289,0.084,0.377,0.205
				c0.089,0.122,0.117,0.277,0.079,0.423c-0.028,0.105-0.718,2.6-2.94,2.89C21.348,16.13,21.325,16.131,21.304,16.131z"/>
		</g>
		<g>
			<path d="M8.696,16.135c-0.021,0-0.044-0.001-0.065-0.004c-2.223-0.289-2.912-2.783-2.94-2.889
				c-0.038-0.146-0.01-0.301,0.079-0.423c0.088-0.121,0.227-0.197,0.377-0.205c0.081-0.004,1.993-0.1,3.422,0.692
				c0.242,0.134,0.329,0.438,0.195,0.68c-0.135,0.242-0.439,0.327-0.68,0.195c-0.695-0.386-1.565-0.515-2.167-0.556
				c0.299,0.589,0.874,1.387,1.843,1.513c0.273,0.036,0.467,0.287,0.432,0.561C9.158,15.951,8.943,16.135,8.696,16.135z"/>
		</g>
	</g>
</g>
<g id="Snowmobile">
</g>
<g id="Snow_Chain">
</g>
<g id="Slippery_Road">
</g>
</svg>
