<?xml version="1.0" encoding="iso-8859-1"?>
<!-- Generator: Adobe Illustrator 19.2.1, SVG Export Plug-In . SVG Version: 6.00 Build 0)  -->
<svg version="1.1" xmlns="http://www.w3.org/2000/svg" xmlns:xlink="http://www.w3.org/1999/xlink" x="0px" y="0px"
	 viewBox="0 0 30 30" style="enable-background:new 0 0 30 30;" xml:space="preserve">
<g id="Snowflake_1">
</g>
<g id="Snowflake_2">
</g>
<g id="Snowflake_3">
</g>
<g id="Snowflake_4">
	<g>
		<g>
			<path d="M14.5,29c-0.276,0-0.5-0.224-0.5-0.5V17.046c0-0.276,0.224-0.5,0.5-0.5s0.5,0.224,0.5,0.5V28.5
				C15,28.776,14.776,29,14.5,29z"/>
		</g>
		<g>
			<path d="M14.5,12.455c-0.276,0-0.5-0.224-0.5-0.5V0.5C14,0.224,14.224,0,14.5,0S15,0.224,15,0.5v11.455
				C15,12.231,14.776,12.455,14.5,12.455z"/>
		</g>
		<g>
			<path d="M28.5,15H17.046c-0.276,0-0.5-0.224-0.5-0.5s0.224-0.5,0.5-0.5H28.5c0.276,0,0.5,0.224,0.5,0.5S28.776,15,28.5,15z"/>
		</g>
		<g>
			<path d="M11.955,15H0.5C0.224,15,0,14.776,0,14.5S0.224,14,0.5,14h11.455c0.276,0,0.5,0.224,0.5,0.5S12.231,15,11.955,15z"/>
		</g>
		<g>
			<path d="M24.399,24.899c-0.128,0-0.256-0.049-0.354-0.146l-8.096-8.096c-0.195-0.195-0.195-0.512,0-0.707s0.512-0.195,0.707,0
				l8.096,8.096c0.195,0.195,0.195,0.512,0,0.707C24.655,24.851,24.527,24.899,24.399,24.899z"/>
		</g>
		<g>
			<path d="M12.697,13.197c-0.128,0-0.256-0.049-0.354-0.146L4.247,4.954c-0.195-0.195-0.195-0.512,0-0.707s0.512-0.195,0.707,0
				l8.096,8.096c0.195,0.195,0.195,0.512,0,0.707C12.953,13.148,12.825,13.197,12.697,13.197z"/>
		</g>
		<g>
			<path d="M16.299,13.201c-0.128,0-0.256-0.049-0.354-0.146c-0.195-0.195-0.195-0.512,0-0.707l8.1-8.1
				c0.195-0.195,0.512-0.195,0.707,0s0.195,0.512,0,0.707l-8.1,8.1C16.555,13.152,16.427,13.201,16.299,13.201z"/>
		</g>
		<g>
			<path d="M4.601,24.899c-0.128,0-0.256-0.049-0.354-0.146c-0.195-0.195-0.195-0.512,0-0.707l8.1-8.1
				c0.195-0.195,0.512-0.195,0.707,0s0.195,0.512,0,0.707l-8.1,8.1C4.856,24.851,4.729,24.899,4.601,24.899z"/>
		</g>
		<g>
			<path d="M14.5,7.364c-0.167,0-0.323-0.083-0.416-0.223l-2.545-3.818c-0.153-0.23-0.091-0.54,0.139-0.693
				c0.229-0.153,0.54-0.092,0.693,0.139L14.5,5.962l2.129-3.194c0.152-0.23,0.462-0.292,0.693-0.139
				c0.23,0.153,0.292,0.463,0.139,0.693l-2.545,3.818C14.823,7.28,14.667,7.364,14.5,7.364z"/>
		</g>
		<g>
			<path d="M17.046,26.455c-0.162,0-0.32-0.078-0.417-0.223L14.5,23.038l-2.129,3.194c-0.154,0.229-0.464,0.291-0.693,0.139
				c-0.23-0.153-0.292-0.463-0.139-0.693l2.545-3.818c0.186-0.278,0.646-0.278,0.832,0l2.545,3.818
				c0.153,0.23,0.091,0.54-0.139,0.693C17.237,26.427,17.141,26.455,17.046,26.455z"/>
		</g>
		<g>
			<path d="M19.9,9.6c-0.131,0-0.259-0.052-0.354-0.146c-0.118-0.118-0.169-0.288-0.137-0.452l0.9-4.5
				c0.054-0.271,0.315-0.451,0.588-0.392c0.271,0.054,0.446,0.317,0.392,0.588l-0.753,3.764l3.764-0.753
				c0.272-0.056,0.535,0.122,0.588,0.392c0.054,0.271-0.122,0.534-0.392,0.588l-4.5,0.9C19.965,9.597,19.933,9.6,19.9,9.6z"/>
		</g>
		<g>
			<path d="M8.201,24.899c-0.032,0-0.065-0.003-0.099-0.01c-0.271-0.054-0.446-0.317-0.392-0.588l0.753-3.764L4.699,21.29
				c-0.272,0.056-0.534-0.122-0.588-0.392c-0.054-0.271,0.122-0.534,0.392-0.588l4.5-0.9c0.165-0.032,0.333,0.019,0.452,0.137
				s0.169,0.288,0.137,0.452l-0.9,4.5C8.643,24.735,8.434,24.899,8.201,24.899z"/>
		</g>
		<g>
			<path d="M25.954,17.545c-0.095,0-0.191-0.027-0.277-0.084l-3.818-2.545c-0.139-0.093-0.223-0.249-0.223-0.416
				s0.083-0.323,0.223-0.416l3.818-2.545c0.23-0.154,0.541-0.091,0.693,0.139c0.153,0.23,0.091,0.54-0.139,0.693L23.038,14.5
				l3.194,2.129c0.23,0.153,0.292,0.463,0.139,0.693C26.274,17.467,26.116,17.545,25.954,17.545z"/>
		</g>
		<g>
			<path d="M3.046,17.545c-0.162,0-0.32-0.078-0.417-0.223c-0.153-0.23-0.091-0.54,0.139-0.693L5.962,14.5l-3.194-2.129
				c-0.23-0.153-0.292-0.463-0.139-0.693c0.152-0.23,0.462-0.292,0.693-0.139l3.818,2.545c0.139,0.093,0.223,0.249,0.223,0.416
				s-0.083,0.323-0.223,0.416l-3.818,2.545C3.237,17.518,3.141,17.545,3.046,17.545z"/>
		</g>
		<g>
			<path d="M20.799,24.899c-0.233,0-0.442-0.164-0.49-0.402l-0.9-4.5c-0.033-0.164,0.019-0.333,0.137-0.452s0.287-0.169,0.452-0.137
				l4.5,0.9c0.271,0.054,0.446,0.317,0.392,0.588c-0.054,0.271-0.317,0.447-0.588,0.392l-3.764-0.753l0.753,3.764
				c0.054,0.271-0.122,0.534-0.392,0.588C20.865,24.896,20.832,24.899,20.799,24.899z"/>
		</g>
		<g>
			<path d="M9.1,9.6c-0.033,0-0.065-0.003-0.098-0.01l-4.5-0.9C4.232,8.636,4.056,8.373,4.11,8.102
				C4.164,7.832,4.426,7.653,4.699,7.71l3.764,0.753L7.71,4.699C7.656,4.428,7.832,4.165,8.102,4.11
				C8.375,4.052,8.637,4.232,8.69,4.502l0.9,4.5c0.033,0.164-0.019,0.333-0.137,0.452C9.359,9.548,9.231,9.6,9.1,9.6z"/>
		</g>
		<g>
			<path d="M14.5,17.545c-1.679,0-3.045-1.366-3.045-3.045s1.366-3.045,3.045-3.045s3.045,1.366,3.045,3.045
				S16.179,17.545,14.5,17.545z M14.5,12.455c-1.128,0-2.045,0.917-2.045,2.045s0.917,2.045,2.045,2.045s2.045-0.917,2.045-2.045
				S15.628,12.455,14.5,12.455z"/>
		</g>
	</g>
</g>
<g id="Winter_Cap_1">
</g>
<g id="Winter_Cap_2">
</g>
<g id="Glowes">
</g>
<g id="Sweater_1">
</g>
<g id="Sweater_2">
</g>
<g id="Sweater_3">
</g>
<g id="Scarf">
</g>
<g id="Winter_Socks">
</g>
<g id="Winter_Sock">
</g>
<g id="Winter_Coat">
</g>
<g id="Winter_Calendar">
</g>
<g id="Thermometer_1">
</g>
<g id="Thermometer_2">
</g>
<g id="Cold">
</g>
<g id="Icicle">
</g>
<g id="Snowing">
</g>
<g id="Snow_Shoes_1">
</g>
<g id="Snow_Shoes_2">
</g>
<g id="Sledge">
</g>
<g id="Snow_Boots">
</g>
<g id="Snowcapped_Mountains">
</g>
<g id="Skis">
</g>
<g id="Sky_Glasses">
</g>
<g id="Snowboard">
</g>
<g id="Ice_Skate">
</g>
<g id="Wooden_House">
</g>
<g id="Snowcapped_House">
</g>
<g id="Hot_Drink">
</g>
<g id="Hot_Chocolate">
</g>
<g id="Lantern">
</g>
<g id="Snow_Shovel">
</g>
<g id="Snowman">
</g>
<g id="Reindeer">
</g>
<g id="Snowmobile">
</g>
<g id="Snow_Chain">
</g>
<g id="Slippery_Road">
</g>
</svg>
