<?xml version="1.0" encoding="iso-8859-1"?>
<!-- Generator: Adobe Illustrator 19.2.1, SVG Export Plug-In . SVG Version: 6.00 Build 0)  -->
<svg version="1.1" xmlns="http://www.w3.org/2000/svg" xmlns:xlink="http://www.w3.org/1999/xlink" x="0px" y="0px"
	 viewBox="0 0 30 30" style="enable-background:new 0 0 30 30;" xml:space="preserve">
<g id="Snowflake_1">
</g>
<g id="Snowflake_2">
</g>
<g id="Snowflake_3">
	<g>
		<g>
			<path d="M14.5,26.455c-0.276,0-0.5-0.224-0.5-0.5V3.045c0-0.276,0.224-0.5,0.5-0.5s0.5,0.224,0.5,0.5v22.909
				C15,26.231,14.776,26.455,14.5,26.455z"/>
		</g>
		<g>
			<path d="M25.955,15H3.045c-0.276,0-0.5-0.224-0.5-0.5s0.224-0.5,0.5-0.5h22.909c0.276,0,0.5,0.224,0.5,0.5S26.231,15,25.955,15z"
				/>
		</g>
		<g>
			<path d="M22.6,23.1c-0.128,0-0.256-0.049-0.354-0.146L6.047,6.754c-0.195-0.195-0.195-0.512,0-0.707s0.512-0.195,0.707,0
				l16.199,16.199c0.195,0.195,0.195,0.512,0,0.707C22.855,23.051,22.728,23.1,22.6,23.1z"/>
		</g>
		<g>
			<path d="M6.4,23.1c-0.128,0-0.256-0.049-0.354-0.146c-0.195-0.195-0.195-0.512,0-0.707L22.246,6.047
				c0.195-0.195,0.512-0.195,0.707,0s0.195,0.512,0,0.707L6.754,22.953C6.656,23.051,6.528,23.1,6.4,23.1z"/>
		</g>
		<g>
			<path d="M10.682,23.909c-0.068,0-0.136-0.014-0.199-0.042c-0.127-0.055-0.225-0.16-0.271-0.29l-1.275-3.563l-3.509-1.224
				c-0.13-0.045-0.236-0.143-0.292-0.27c-0.056-0.126-0.057-0.27-0.003-0.397l1.546-3.66l-1.545-3.584
				c-0.055-0.126-0.055-0.271,0-0.397c0.055-0.127,0.16-0.225,0.29-0.271l3.563-1.275l1.224-3.509
				c0.045-0.13,0.143-0.236,0.27-0.292c0.126-0.056,0.27-0.057,0.397-0.003l3.66,1.546l3.584-1.545c0.126-0.055,0.27-0.056,0.397,0
				c0.127,0.055,0.225,0.16,0.271,0.29l1.275,3.563l3.509,1.224c0.13,0.045,0.236,0.143,0.292,0.27
				c0.056,0.126,0.057,0.27,0.003,0.397l-1.546,3.66l1.545,3.584c0.055,0.126,0.055,0.271,0,0.397
				c-0.055,0.127-0.16,0.225-0.29,0.271l-3.563,1.275l-1.224,3.509c-0.045,0.13-0.143,0.236-0.27,0.292
				c-0.126,0.057-0.27,0.058-0.397,0.003l-3.66-1.546l-3.584,1.545C10.816,23.896,10.749,23.909,10.682,23.909z M14.462,21.28
				c0.066,0,0.132,0.013,0.195,0.04l3.365,1.422l1.126-3.231c0.05-0.143,0.162-0.255,0.304-0.306l3.287-1.177l-1.418-3.291
				c-0.054-0.125-0.055-0.267-0.001-0.393l1.422-3.365L19.51,9.852c-0.143-0.05-0.255-0.162-0.306-0.304l-1.177-3.287l-3.291,1.418
				c-0.125,0.054-0.267,0.054-0.393,0.001l-3.365-1.422L9.852,9.49C9.802,9.633,9.69,9.746,9.548,9.796l-3.287,1.177l1.418,3.291
				c0.054,0.125,0.055,0.267,0.001,0.393l-1.422,3.365l3.231,1.126c0.143,0.05,0.255,0.162,0.306,0.304l1.177,3.287l3.291-1.418
				C14.327,21.293,14.395,21.28,14.462,21.28z"/>
		</g>
		<g>
			<path d="M14.5,3.545c-1.679,0-3.045-1.366-3.045-3.045c0-0.276,0.224-0.5,0.5-0.5s0.5,0.224,0.5,0.5
				c0,1.128,0.917,2.045,2.045,2.045s2.045-0.917,2.045-2.045c0-0.276,0.224-0.5,0.5-0.5s0.5,0.224,0.5,0.5
				C17.545,2.179,16.179,3.545,14.5,3.545z"/>
		</g>
		<g>
			<path d="M17.045,29c-0.276,0-0.5-0.224-0.5-0.5c0-1.128-0.917-2.045-2.045-2.045s-2.045,0.917-2.045,2.045
				c0,0.276-0.224,0.5-0.5,0.5s-0.5-0.224-0.5-0.5c0-1.679,1.366-3.045,3.045-3.045s3.045,1.366,3.045,3.045
				C17.545,28.776,17.322,29,17.045,29z"/>
		</g>
		<g>
			<path d="M0.5,17.545c-0.276,0-0.5-0.224-0.5-0.5s0.224-0.5,0.5-0.5c1.128,0,2.045-0.917,2.045-2.045S1.628,12.455,0.5,12.455
				c-0.276,0-0.5-0.224-0.5-0.5s0.224-0.5,0.5-0.5c1.679,0,3.045,1.366,3.045,3.045S2.179,17.545,0.5,17.545z"/>
		</g>
		<g>
			<path d="M28.5,17.545c-1.679,0-3.045-1.366-3.045-3.045s1.366-3.045,3.045-3.045c0.276,0,0.5,0.224,0.5,0.5s-0.224,0.5-0.5,0.5
				c-1.128,0-2.045,0.917-2.045,2.045s0.917,2.045,2.045,2.045c0.276,0,0.5,0.224,0.5,0.5S28.776,17.545,28.5,17.545z"/>
		</g>
		<g>
			<path d="M4.601,7.646c-0.813,0-1.579-0.317-2.153-0.892c-0.195-0.195-0.195-0.512,0-0.707s0.512-0.195,0.707,0
				c0.772,0.772,2.12,0.772,2.893,0c0.386-0.386,0.599-0.9,0.599-1.446s-0.213-1.06-0.599-1.446c-0.195-0.195-0.195-0.512,0-0.707
				s0.512-0.195,0.707,0c0.575,0.575,0.892,1.34,0.892,2.153S7.329,6.179,6.754,6.754S5.414,7.646,4.601,7.646z"/>
		</g>
		<g>
			<path d="M22.6,26.699c-0.128,0-0.256-0.049-0.354-0.146c-0.575-0.575-0.892-1.34-0.892-2.153s0.317-1.578,0.892-2.153
				c1.15-1.15,3.157-1.15,4.307,0c0.195,0.195,0.195,0.512,0,0.707s-0.512,0.195-0.707,0c-0.772-0.772-2.12-0.772-2.893,0
				c-0.386,0.386-0.599,0.9-0.599,1.446s0.213,1.06,0.599,1.446c0.195,0.195,0.195,0.512,0,0.707
				C22.855,26.65,22.728,26.699,22.6,26.699z"/>
		</g>
		<g>
			<path d="M6.4,26.699c-0.128,0-0.256-0.049-0.354-0.146c-0.195-0.195-0.195-0.512,0-0.707c0.386-0.386,0.599-0.9,0.599-1.446
				s-0.213-1.06-0.599-1.446c-0.772-0.772-2.12-0.772-2.893,0c-0.195,0.195-0.512,0.195-0.707,0s-0.195-0.512,0-0.707
				c1.149-1.15,3.156-1.15,4.307,0c0.575,0.575,0.892,1.34,0.892,2.153s-0.317,1.579-0.892,2.153
				C6.656,26.65,6.528,26.699,6.4,26.699z"/>
		</g>
		<g>
			<path d="M24.399,7.646c-0.813,0-1.578-0.317-2.153-0.892s-0.892-1.34-0.892-2.153s0.317-1.579,0.892-2.153
				c0.195-0.195,0.512-0.195,0.707,0s0.195,0.512,0,0.707c-0.386,0.386-0.599,0.9-0.599,1.446s0.213,1.06,0.599,1.446
				c0.772,0.772,2.12,0.772,2.893,0c0.195-0.195,0.512-0.195,0.707,0s0.195,0.512,0,0.707C25.978,7.329,25.213,7.646,24.399,7.646z"
				/>
		</g>
	</g>
</g>
<g id="Snowflake_4">
</g>
<g id="Winter_Cap_1">
</g>
<g id="Winter_Cap_2">
</g>
<g id="Glowes">
</g>
<g id="Sweater_1">
</g>
<g id="Sweater_2">
</g>
<g id="Sweater_3">
</g>
<g id="Scarf">
</g>
<g id="Winter_Socks">
</g>
<g id="Winter_Sock">
</g>
<g id="Winter_Coat">
</g>
<g id="Winter_Calendar">
</g>
<g id="Thermometer_1">
</g>
<g id="Thermometer_2">
</g>
<g id="Cold">
</g>
<g id="Icicle">
</g>
<g id="Snowing">
</g>
<g id="Snow_Shoes_1">
</g>
<g id="Snow_Shoes_2">
</g>
<g id="Sledge">
</g>
<g id="Snow_Boots">
</g>
<g id="Snowcapped_Mountains">
</g>
<g id="Skis">
</g>
<g id="Sky_Glasses">
</g>
<g id="Snowboard">
</g>
<g id="Ice_Skate">
</g>
<g id="Wooden_House">
</g>
<g id="Snowcapped_House">
</g>
<g id="Hot_Drink">
</g>
<g id="Hot_Chocolate">
</g>
<g id="Lantern">
</g>
<g id="Snow_Shovel">
</g>
<g id="Snowman">
</g>
<g id="Reindeer">
</g>
<g id="Snowmobile">
</g>
<g id="Snow_Chain">
</g>
<g id="Slippery_Road">
</g>
</svg>
