<?xml version="1.0" encoding="iso-8859-1"?>
<!-- Generator: Adobe Illustrator 19.2.1, SVG Export Plug-In . SVG Version: 6.00 Build 0)  -->
<svg version="1.1" xmlns="http://www.w3.org/2000/svg" xmlns:xlink="http://www.w3.org/1999/xlink" x="0px" y="0px"
	 viewBox="0 0 30 30" style="enable-background:new 0 0 30 30;" xml:space="preserve">
<g id="Snowflake_1">
</g>
<g id="Snowflake_2">
	<g>
		<g>
			<g>
				<path d="M15.5,30c-0.276,0-0.5-0.224-0.5-0.5v-29C15,0.224,15.224,0,15.5,0S16,0.224,16,0.5v29C16,29.776,15.776,30,15.5,30z"/>
			</g>
			<g>
				<path d="M28.5,22.435c-0.08,0-0.16-0.019-0.235-0.059l-26-13.869C2.021,8.376,1.929,8.074,2.059,7.83
					c0.13-0.243,0.432-0.336,0.676-0.206l26,13.869c0.244,0.13,0.336,0.433,0.206,0.676C28.851,22.338,28.678,22.435,28.5,22.435z"
					/>
			</g>
			<g>
				<path d="M2.5,22.435c-0.179,0-0.352-0.096-0.441-0.265c-0.13-0.244-0.038-0.546,0.206-0.676l26-13.869
					c0.245-0.131,0.547-0.038,0.676,0.206c0.13,0.244,0.038,0.546-0.206,0.676l-26,13.869C2.66,22.416,2.58,22.435,2.5,22.435z"/>
			</g>
		</g>
		<g>
			<path d="M15.5,21.226c-0.089,0-0.178-0.023-0.256-0.071l-5.045-3.015c-0.151-0.09-0.244-0.253-0.244-0.429v-5.55
				c0-0.181,0.098-0.347,0.255-0.436l5.045-2.834c0.152-0.085,0.338-0.085,0.49,0l5.045,2.834c0.157,0.089,0.255,0.255,0.255,0.436
				v5.55c0,0.176-0.092,0.339-0.244,0.429l-5.045,3.015C15.678,21.203,15.589,21.226,15.5,21.226z M10.955,17.427l4.545,2.716
				l4.545-2.716v-4.974L15.5,9.9l-4.545,2.553V17.427z"/>
		</g>
		<g>
			<path d="M15.5,7.304c-2.361,0-4.283-1.921-4.283-4.282c0-0.276,0.224-0.5,0.5-0.5s0.5,0.224,0.5,0.5
				c0,1.81,1.473,3.282,3.283,3.282s3.283-1.472,3.283-3.282c0-0.276,0.224-0.5,0.5-0.5s0.5,0.224,0.5,0.5
				C19.783,5.383,17.861,7.304,15.5,7.304z"/>
		</g>
		<g>
			<path d="M19.283,27.478c-0.276,0-0.5-0.224-0.5-0.5c0-1.81-1.473-3.282-3.283-3.282s-3.283,1.472-3.283,3.282
				c0,0.276-0.224,0.5-0.5,0.5s-0.5-0.224-0.5-0.5c0-2.361,1.921-4.282,4.283-4.282s4.283,1.921,4.283,4.282
				C19.783,27.254,19.559,27.478,19.283,27.478z"/>
		</g>
		<g>
			<path d="M25.966,13.447c-0.393,0-0.787-0.055-1.175-0.165c-1.1-0.312-2.013-1.034-2.571-2.033
				c-1.151-2.062-0.41-4.676,1.652-5.827c0.24-0.134,0.545-0.049,0.68,0.193c0.135,0.241,0.048,0.546-0.193,0.68
				c-1.581,0.882-2.148,2.886-1.267,4.466c0.882,1.581,2.887,2.148,4.466,1.267c0.241-0.134,0.546-0.048,0.68,0.193
				c0.135,0.241,0.048,0.546-0.193,0.68C27.4,13.263,26.688,13.447,25.966,13.447z"/>
		</g>
		<g>
			<path d="M6.884,24.641c-0.175,0-0.346-0.092-0.437-0.256c-0.135-0.241-0.048-0.546,0.193-0.68
				c1.581-0.882,2.148-2.886,1.267-4.466c-0.883-1.581-2.886-2.148-4.466-1.267c-0.241,0.133-0.546,0.048-0.68-0.193
				c-0.135-0.241-0.048-0.546,0.193-0.68c0.999-0.558,2.155-0.692,3.256-0.38c1.1,0.312,2.013,1.034,2.571,2.033
				c1.151,2.062,0.41,4.676-1.652,5.827C7.05,24.62,6.967,24.641,6.884,24.641z"/>
		</g>
		<g>
			<path d="M5.034,13.447c-0.721,0-1.434-0.184-2.081-0.545c-0.241-0.134-0.328-0.439-0.193-0.68
				c0.134-0.241,0.438-0.328,0.68-0.193c1.58,0.881,3.583,0.314,4.466-1.267C8.789,9.182,8.221,7.178,6.64,6.296
				c-0.241-0.134-0.328-0.439-0.193-0.68c0.133-0.242,0.439-0.328,0.68-0.193C9.189,6.574,9.931,9.188,8.78,11.25
				c-0.558,0.999-1.471,1.721-2.571,2.033C5.821,13.393,5.426,13.447,5.034,13.447z"/>
		</g>
		<g>
			<path d="M24.116,24.641c-0.083,0-0.166-0.021-0.243-0.063c-2.062-1.151-2.803-3.765-1.652-5.827
				c0.558-0.999,1.471-1.721,2.571-2.033c1.103-0.312,2.258-0.176,3.256,0.38c0.241,0.134,0.328,0.439,0.193,0.68
				s-0.44,0.326-0.68,0.193c-1.58-0.881-3.584-0.313-4.466,1.267c-0.882,1.581-0.314,3.584,1.267,4.466
				c0.241,0.134,0.328,0.439,0.193,0.68C24.461,24.548,24.291,24.641,24.116,24.641z"/>
		</g>
	</g>
</g>
<g id="Snowflake_3">
</g>
<g id="Snowflake_4">
</g>
<g id="Winter_Cap_1">
</g>
<g id="Winter_Cap_2">
</g>
<g id="Glowes">
</g>
<g id="Sweater_1">
</g>
<g id="Sweater_2">
</g>
<g id="Sweater_3">
</g>
<g id="Scarf">
</g>
<g id="Winter_Socks">
</g>
<g id="Winter_Sock">
</g>
<g id="Winter_Coat">
</g>
<g id="Winter_Calendar">
</g>
<g id="Thermometer_1">
</g>
<g id="Thermometer_2">
</g>
<g id="Cold">
</g>
<g id="Icicle">
</g>
<g id="Snowing">
</g>
<g id="Snow_Shoes_1">
</g>
<g id="Snow_Shoes_2">
</g>
<g id="Sledge">
</g>
<g id="Snow_Boots">
</g>
<g id="Snowcapped_Mountains">
</g>
<g id="Skis">
</g>
<g id="Sky_Glasses">
</g>
<g id="Snowboard">
</g>
<g id="Ice_Skate">
</g>
<g id="Wooden_House">
</g>
<g id="Snowcapped_House">
</g>
<g id="Hot_Drink">
</g>
<g id="Hot_Chocolate">
</g>
<g id="Lantern">
</g>
<g id="Snow_Shovel">
</g>
<g id="Snowman">
</g>
<g id="Reindeer">
</g>
<g id="Snowmobile">
</g>
<g id="Snow_Chain">
</g>
<g id="Slippery_Road">
</g>
</svg>
