<?xml version="1.0" encoding="iso-8859-1"?>
<!-- Generator: Adobe Illustrator 19.2.1, SVG Export Plug-In . SVG Version: 6.00 Build 0)  -->
<svg version="1.1" xmlns="http://www.w3.org/2000/svg" xmlns:xlink="http://www.w3.org/1999/xlink" x="0px" y="0px"
	 viewBox="0 0 30 30" style="enable-background:new 0 0 30 30;" xml:space="preserve">
<g id="Snowflake_1">
</g>
<g id="Snowflake_2">
</g>
<g id="Snowflake_3">
</g>
<g id="Snowflake_4">
</g>
<g id="Winter_Cap_1">
</g>
<g id="Winter_Cap_2">
</g>
<g id="Glowes">
</g>
<g id="Sweater_1">
</g>
<g id="Sweater_2">
</g>
<g id="Sweater_3">
</g>
<g id="Scarf">
</g>
<g id="Winter_Socks">
</g>
<g id="Winter_Sock">
</g>
<g id="Winter_Coat">
</g>
<g id="Winter_Calendar">
</g>
<g id="Thermometer_1">
</g>
<g id="Thermometer_2">
</g>
<g id="Cold">
</g>
<g id="Icicle">
</g>
<g id="Snowing">
</g>
<g id="Snow_Shoes_1">
</g>
<g id="Snow_Shoes_2">
</g>
<g id="Sledge">
</g>
<g id="Snow_Boots">
	<g>
		<g>
			<path d="M28.5,9H14.108C13.373,9,13,8.349,13,7.065V2.5C13,0.981,13.828,0,15.108,0H27.5C28.878,0,30,1.121,30,2.5v4.565
				C30,7.836,29.401,9,28.5,9z M14.151,8.019h0.01H14.151z M14.138,8H28.5C28.641,8,29,7.491,29,7.065V2.5C29,1.673,28.327,1,27.5,1
				H15.108C14.144,1,14,1.939,14,2.5v4.565C14,7.726,14.1,7.941,14.138,8z"/>
		</g>
		<g>
			<path d="M28.535,26H1.45c-0.151,0-0.294-0.068-0.389-0.187c-0.932-1.156-1.294-2.938-0.945-4.651
				c0.486-2.385,2.412-4.218,4.906-4.669c1.077-0.195,2.137-0.111,3.15,0.247c1.528,0.543,3.145,0.452,4.555-0.251
				C14.129,15.788,15,14.34,15,12.709V8.5C15,8.224,15.224,8,15.5,8h12.006c0.276,0,0.5,0.224,0.5,0.5v3.721
				c0,0.405-0.007,0.811-0.014,1.215c-0.037,2.166-0.072,4.212,0.96,6.01c0.585,1.02,1.226,2.396,0.978,3.995
				C29.667,25.139,29.198,26,28.535,26z M1.701,25h26.737c0.133-0.178,0.361-0.785,0.505-1.713c0.2-1.292-0.353-2.466-0.857-3.344
				c-1.17-2.037-1.131-4.318-1.093-6.525c0.007-0.397,0.014-0.797,0.014-1.197V9H16v3.709c0,2.013-1.083,3.804-2.826,4.675
				c-1.655,0.826-3.548,0.933-5.336,0.3c-0.846-0.301-1.734-0.37-2.638-0.206c-2.089,0.378-3.7,1.902-4.104,3.884
				C0.828,22.677,1.065,24.075,1.701,25z"/>
		</g>
		<g>
			<path d="M28.239,30h-7.565c-0.219,0-0.412-0.142-0.477-0.351l-0.145-0.463c-0.115-0.284-0.446-0.48-0.786-0.437l-6.717,0.997
				C11.447,29.921,7.769,30,6.804,30H1.761C0.79,30,0,29.21,0,28.239v-1.261C0,26.045,0.753,25,1.761,25h26.479
				C29.247,25,30,26.045,30,26.979v1.261C30,29.21,29.21,30,28.239,30z M21.04,29h7.199C28.659,29,29,28.659,29,28.239v-1.261
				C29,26.503,28.609,26,28.239,26H1.761C1.391,26,1,26.503,1,26.979v1.261C1,28.659,1.341,29,1.761,29h5.043
				c1.044,0,4.59-0.083,5.594-0.241l6.734-0.999c0.802-0.104,1.564,0.351,1.861,1.092L21.04,29z"/>
		</g>
		<g>
			<path d="M15.761,16.761c-0.184,0-0.36-0.102-0.448-0.276l-0.63-1.261c-0.124-0.247-0.023-0.547,0.224-0.671
				c0.247-0.125,0.547-0.022,0.671,0.224l0.63,1.261c0.124,0.247,0.023,0.547-0.224,0.671
				C15.913,16.744,15.836,16.761,15.761,16.761z"/>
		</g>
		<g>
			<path d="M13.109,19.282c-0.276,0-0.5-0.224-0.5-0.5v-1.891c0-0.185,0.102-0.354,0.264-0.44c0.163-0.088,0.36-0.078,0.513,0.024
				l1.891,1.261c0.23,0.153,0.292,0.464,0.139,0.693c-0.153,0.229-0.463,0.291-0.693,0.139l-1.114-0.742v0.956
				C13.609,19.059,13.385,19.282,13.109,19.282z"/>
		</g>
		<g>
			<path d="M15.13,15.5c-0.209,0-0.404-0.133-0.474-0.342c-0.087-0.262,0.054-0.545,0.316-0.633l1.892-0.631
				c0.262-0.089,0.545,0.055,0.632,0.316c0.087,0.262-0.054,0.545-0.316,0.633l-1.892,0.631C15.236,15.492,15.183,15.5,15.13,15.5z"
				/>
		</g>
		<g>
			<path d="M19.78,26c-0.21,0-0.406-0.134-0.475-0.344c-0.262-0.798-0.395-1.624-0.395-2.456c0-4.418,3.591-8.038,8.006-8.07
				c0.179,0,0.295,0.011,0.422,0.022c0.275,0.027,0.476,0.271,0.449,0.547c-0.027,0.274-0.268,0.467-0.546,0.449
				c-0.092-0.01-0.177-0.019-0.261-0.019c-3.924,0.028-7.07,3.2-7.07,7.07c0,0.726,0.116,1.447,0.345,2.144
				c0.086,0.263-0.057,0.545-0.319,0.631C19.884,25.992,19.832,26,19.78,26z"/>
		</g>
	</g>
</g>
<g id="Snowcapped_Mountains">
</g>
<g id="Skis">
</g>
<g id="Sky_Glasses">
</g>
<g id="Snowboard">
</g>
<g id="Ice_Skate">
</g>
<g id="Wooden_House">
</g>
<g id="Snowcapped_House">
</g>
<g id="Hot_Drink">
</g>
<g id="Hot_Chocolate">
</g>
<g id="Lantern">
</g>
<g id="Snow_Shovel">
</g>
<g id="Snowman">
</g>
<g id="Reindeer">
</g>
<g id="Snowmobile">
</g>
<g id="Snow_Chain">
</g>
<g id="Slippery_Road">
</g>
</svg>
