<?xml version="1.0" encoding="iso-8859-1"?>
<!-- Generator: Adobe Illustrator 19.2.1, SVG Export Plug-In . SVG Version: 6.00 Build 0)  -->
<svg version="1.1" xmlns="http://www.w3.org/2000/svg" xmlns:xlink="http://www.w3.org/1999/xlink" x="0px" y="0px"
	 viewBox="0 0 30 30" style="enable-background:new 0 0 30 30;" xml:space="preserve">
<g id="Snowflake_1">
</g>
<g id="Snowflake_2">
</g>
<g id="Snowflake_3">
</g>
<g id="Snowflake_4">
</g>
<g id="Winter_Cap_1">
</g>
<g id="Winter_Cap_2">
</g>
<g id="Glowes">
</g>
<g id="Sweater_1">
</g>
<g id="Sweater_2">
</g>
<g id="Sweater_3">
</g>
<g id="Scarf">
</g>
<g id="Winter_Socks">
</g>
<g id="Winter_Sock">
</g>
<g id="Winter_Coat">
</g>
<g id="Winter_Calendar">
</g>
<g id="Thermometer_1">
</g>
<g id="Thermometer_2">
</g>
<g id="Cold">
</g>
<g id="Icicle">
</g>
<g id="Snowing">
</g>
<g id="Snow_Shoes_1">
</g>
<g id="Snow_Shoes_2">
</g>
<g id="Sledge">
</g>
<g id="Snow_Boots">
</g>
<g id="Snowcapped_Mountains">
</g>
<g id="Skis">
</g>
<g id="Sky_Glasses">
</g>
<g id="Snowboard">
	<g>
		<g>
			<path d="M25.036,30c-1.325,0-2.572-0.517-3.509-1.454c-0.086-0.103-5.103-6.319-9.425-10.642
				C6.524,12.325,1.556,8.556,1.506,8.519C0.517,7.536,0,6.289,0,4.964c0-1.326,0.517-2.572,1.454-3.51S3.638,0,4.964,0
				c1.325,0,2.572,0.517,3.509,1.454c0.087,0.104,5.088,6.35,9.409,10.671c5.578,5.578,10.561,9.318,10.61,9.355
				C29.483,22.464,30,23.711,30,25.036c0,1.326-0.517,2.572-1.454,3.51S26.362,30,25.036,30z M2.161,7.766
				c0.007,0,5.027,3.81,10.648,9.432c4.361,4.361,9.41,10.619,9.461,10.682C22.982,28.588,23.978,29,25.036,29
				s2.054-0.412,2.803-1.161S29,26.095,29,25.036s-0.412-2.054-1.161-2.802l0,0c-0.009,0-5.043-3.781-10.664-9.402
				C12.813,8.472,7.779,2.183,7.729,2.12C7.018,1.412,6.022,1,4.964,1S2.91,1.412,2.161,2.161S1,3.905,1,4.964
				S1.412,7.018,2.161,7.766L2.161,7.766z"/>
		</g>
		<g>
			<path d="M9.142,13.605c-0.462,0-0.853-0.146-1.14-0.434c-0.449-0.448-0.554-1.152-0.293-1.98c0.225-0.716,0.708-1.47,1.36-2.122
				s1.406-1.136,2.122-1.36c0.831-0.261,1.532-0.155,1.98,0.293c0.449,0.448,0.554,1.152,0.293,1.98
				c-0.225,0.716-0.708,1.47-1.36,2.122s-1.406,1.136-2.122,1.36C9.684,13.559,9.401,13.605,9.142,13.605z M12.028,8.569
				c-0.156,0-0.339,0.031-0.536,0.094c-0.559,0.175-1.184,0.581-1.716,1.113s-0.938,1.157-1.113,1.716
				c-0.14,0.441-0.122,0.805,0.046,0.973c0.169,0.168,0.534,0.186,0.973,0.046c0.559-0.175,1.184-0.581,1.716-1.113
				s0.938-1.157,1.113-1.716c0.14-0.441,0.122-0.805-0.046-0.973C12.372,8.616,12.22,8.569,12.028,8.569z"/>
		</g>
		<g>
			<path d="M17.984,22.448c-0.462,0-0.853-0.146-1.14-0.434c-0.449-0.448-0.554-1.152-0.293-1.98c0.225-0.716,0.708-1.47,1.36-2.122
				s1.406-1.136,2.122-1.36c0.83-0.26,1.532-0.156,1.98,0.293c0.449,0.448,0.554,1.152,0.293,1.98
				c-0.225,0.716-0.708,1.47-1.36,2.122s-1.406,1.136-2.122,1.36C18.526,22.401,18.244,22.448,17.984,22.448z M20.871,17.412
				c-0.156,0-0.339,0.031-0.536,0.094c-0.559,0.175-1.184,0.581-1.716,1.113s-0.938,1.157-1.113,1.716
				c-0.14,0.441-0.122,0.805,0.046,0.973s0.534,0.185,0.973,0.046c0.559-0.175,1.184-0.581,1.716-1.113s0.938-1.157,1.113-1.716
				c0.14-0.441,0.122-0.805-0.046-0.973C21.215,17.459,21.063,17.412,20.871,17.412z"/>
		</g>
	</g>
</g>
<g id="Ice_Skate">
</g>
<g id="Wooden_House">
</g>
<g id="Snowcapped_House">
</g>
<g id="Hot_Drink">
</g>
<g id="Hot_Chocolate">
</g>
<g id="Lantern">
</g>
<g id="Snow_Shovel">
</g>
<g id="Snowman">
</g>
<g id="Reindeer">
</g>
<g id="Snowmobile">
</g>
<g id="Snow_Chain">
</g>
<g id="Slippery_Road">
</g>
</svg>
