<?xml version="1.0" encoding="iso-8859-1"?>
<!-- Generator: Adobe Illustrator 19.2.1, SVG Export Plug-In . SVG Version: 6.00 Build 0)  -->
<svg version="1.1" xmlns="http://www.w3.org/2000/svg" xmlns:xlink="http://www.w3.org/1999/xlink" x="0px" y="0px"
	 viewBox="0 0 30 30" style="enable-background:new 0 0 30 30;" xml:space="preserve">
<g id="Snowflake_1">
</g>
<g id="Snowflake_2">
</g>
<g id="Snowflake_3">
</g>
<g id="Snowflake_4">
</g>
<g id="Winter_Cap_1">
</g>
<g id="Winter_Cap_2">
</g>
<g id="Glowes">
</g>
<g id="Sweater_1">
</g>
<g id="Sweater_2">
</g>
<g id="Sweater_3">
</g>
<g id="Scarf">
</g>
<g id="Winter_Socks">
</g>
<g id="Winter_Sock">
</g>
<g id="Winter_Coat">
</g>
<g id="Winter_Calendar">
</g>
<g id="Thermometer_1">
</g>
<g id="Thermometer_2">
</g>
<g id="Cold">
</g>
<g id="Icicle">
</g>
<g id="Snowing">
</g>
<g id="Snow_Shoes_1">
</g>
<g id="Snow_Shoes_2">
</g>
<g id="Sledge">
</g>
<g id="Snow_Boots">
</g>
<g id="Snowcapped_Mountains">
</g>
<g id="Skis">
</g>
<g id="Sky_Glasses">
</g>
<g id="Snowboard">
</g>
<g id="Ice_Skate">
</g>
<g id="Wooden_House">
</g>
<g id="Snowcapped_House">
	<g>
		<g>
			<path d="M28.811,19.384c-0.417,0-0.773-0.406-1.486-1.332c-0.148-0.192-0.27-0.356-0.337-0.422
				c-0.309-0.295-0.635-0.348-1.047-0.416c-0.464-0.076-1.042-0.171-1.575-0.678c-0.417-0.397-0.829-1.146-1.265-1.938
				c-0.363-0.66-0.775-1.408-1.081-1.698c-0.073-0.07-0.102-0.077-0.335-0.079c-0.396-0.004-0.995-0.01-1.851-0.791
				c-0.6-0.548-0.889-1.205-1.143-1.785c-0.277-0.631-0.517-1.176-1.099-1.549c-0.063-0.041-0.076-0.049-0.394,0.141
				c-0.34,0.204-0.853,0.512-1.643,0.512c-0.781,0-1.085-0.735-1.307-1.273c-0.307-0.739-0.378-0.714-0.544-0.657
				c-0.293,0.101-0.774,1.054-1.063,1.623c-0.32,0.634-0.597,1.182-0.917,1.486c-0.464,0.442-1.106,0.716-1.726,0.979
				c-0.564,0.24-1.096,0.468-1.429,0.785c-0.256,0.243-0.461,1.241-0.561,1.722c-0.033,0.16-0.063,0.305-0.091,0.422
				c-0.322,1.358-1.419,1.168-2.006,1.07c-0.223-0.037-0.527-0.089-0.621-0.032c-0.479,0.291-1.113,1.146-1.673,1.9
				c-0.928,1.249-1.483,1.955-2.123,1.955C0.813,19.328,0,18.992,0,17.391c0-0.676,0.101-1.907,0.78-2.553L13.761,2.485
				c0.68-0.649,1.746-0.648,2.427,0.001l13.225,12.596c0.7,0.666,0.606,1.653,0.544,2.307
				C29.882,18.184,29.768,19.384,28.811,19.384z M28.811,18.384v0.5V18.384C28.812,18.384,28.812,18.384,28.811,18.384
				L28.811,18.384z M14.974,2.999c-0.188,0-0.376,0.07-0.523,0.21L1.469,15.563C1.18,15.838,1,16.538,1,17.391
				c0,0.938,0.286,0.938,0.495,0.938c0.226-0.078,0.884-0.965,1.319-1.552c0.645-0.867,1.312-1.765,1.957-2.157
				c0.415-0.252,0.89-0.17,1.309-0.101c0.69,0.119,0.771,0.088,0.866-0.314c0.026-0.11,0.054-0.244,0.084-0.394
				c0.201-0.977,0.404-1.819,0.85-2.244c0.464-0.442,1.105-0.716,1.727-0.98c0.563-0.239,1.096-0.467,1.429-0.784
				c0.194-0.186,0.47-0.73,0.713-1.213c0.49-0.97,0.953-1.887,1.631-2.118c1.126-0.385,1.559,0.66,1.792,1.222
				c0.095,0.229,0.271,0.655,0.383,0.655c0.513,0,0.826-0.188,1.129-0.369c0.358-0.215,0.849-0.511,1.447-0.125
				c0.837,0.535,1.176,1.308,1.476,1.989c0.236,0.536,0.458,1.043,0.901,1.448c0.574,0.523,0.872,0.526,1.187,0.529
				c0.274,0.003,0.649,0.006,1.015,0.354c0.417,0.397,0.83,1.146,1.267,1.94c0.363,0.659,0.774,1.406,1.079,1.697
				c0.309,0.294,0.635,0.347,1.047,0.415c0.464,0.076,1.042,0.171,1.575,0.679c0.085,0.082,0.249,0.288,0.439,0.535
				c0.167,0.218,0.473,0.615,0.682,0.834c0.048-0.147,0.112-0.434,0.164-0.981c0.062-0.655,0.084-1.181-0.238-1.487L15.499,3.21
				C15.352,3.069,15.163,2.999,14.974,2.999z"/>
		</g>
		<g>
			<path d="M27.5,29h-25C2.224,29,2,28.776,2,28.5V18.01c0-0.276,0.224-0.5,0.5-0.5S3,17.733,3,18.01V28h24V17.45
				c0-0.276,0.224-0.5,0.5-0.5s0.5,0.224,0.5,0.5V28.5C28,28.776,27.776,29,27.5,29z"/>
		</g>
		<g>
			<path d="M23.5,29h-7c-0.276,0-0.5-0.224-0.5-0.5v-10c0-0.276,0.224-0.5,0.5-0.5h7c0.276,0,0.5,0.224,0.5,0.5v10
				C24,28.776,23.776,29,23.5,29z M17,28h6v-9h-6V28z"/>
		</g>
		<g>
			<path d="M13.5,24h-7C6.224,24,6,23.776,6,23.5v-5C6,18.224,6.224,18,6.5,18h7c0.276,0,0.5,0.224,0.5,0.5v5
				C14,23.776,13.776,24,13.5,24z M7,23h6v-4H7V23z"/>
		</g>
	</g>
</g>
<g id="Hot_Drink">
</g>
<g id="Hot_Chocolate">
</g>
<g id="Lantern">
</g>
<g id="Snow_Shovel">
</g>
<g id="Snowman">
</g>
<g id="Reindeer">
</g>
<g id="Snowmobile">
</g>
<g id="Snow_Chain">
</g>
<g id="Slippery_Road">
</g>
</svg>
