<?xml version="1.0" encoding="iso-8859-1"?>
<!-- Generator: Adobe Illustrator 19.2.1, SVG Export Plug-In . SVG Version: 6.00 Build 0)  -->
<svg version="1.1" xmlns="http://www.w3.org/2000/svg" xmlns:xlink="http://www.w3.org/1999/xlink" x="0px" y="0px"
	 viewBox="0 0 30 30" style="enable-background:new 0 0 30 30;" xml:space="preserve">
<g id="Snowflake_1">
</g>
<g id="Snowflake_2">
</g>
<g id="Snowflake_3">
</g>
<g id="Snowflake_4">
</g>
<g id="Winter_Cap_1">
</g>
<g id="Winter_Cap_2">
</g>
<g id="Glowes">
</g>
<g id="Sweater_1">
</g>
<g id="Sweater_2">
</g>
<g id="Sweater_3">
	<g>
		<g>
			<path d="M20.483,27H8.493C7.118,27,6,25.878,6,24.5v-9.25l-1.279,6.598c-0.199,0.995-0.946,1.562-1.852,1.406l-1.387-0.226
				c-0.947-0.158-1.591-1.022-1.468-1.967L1.852,7.959C2.276,4.565,5.202,2,8.656,2h0.745c0.276,0,0.5,0.224,0.5,0.5
				c0,0.61,1.937,2.045,4.587,2.045S19.075,3.11,19.075,2.5c0-0.276,0.224-0.5,0.5-0.5h0.745c3.454,0,6.379,2.563,6.806,5.962
				l1.859,13.093c0.124,0.963-0.495,1.803-1.441,1.961l-1.339,0.231c-0.93,0.152-1.744-0.434-1.936-1.401L23,15.272V24.5
				C23,25.878,21.871,27,20.483,27z M6.5,9.545c0.016,0,0.031,0.001,0.048,0.002C6.805,9.572,7,9.788,7,10.045V24.5
				C7,25.327,7.67,26,8.493,26h11.99C21.319,26,22,25.327,22,24.5V10.045c0-0.258,0.196-0.473,0.452-0.498
				c0.266-0.036,0.489,0.15,0.539,0.403l2.26,11.704c0.07,0.355,0.346,0.686,0.787,0.607l1.339-0.231
				c0.413-0.069,0.604-0.422,0.55-0.841L26,8.099c0-0.003,0-0.005,0-0.008C26,5.188,23.272,3,20.32,3h-0.352
				c-0.515,1.247-2.83,2.545-5.48,2.545S9.522,4.247,9.008,3H8.656c-2.951,0-5.45,2.188-5.813,5.091L1.006,21.195
				c-0.053,0.404,0.228,0.777,0.639,0.846l1.388,0.226c0.483,0.088,0.653-0.348,0.707-0.613L6.009,9.95
				C6.055,9.713,6.263,9.545,6.5,9.545z"/>
		</g>
		<g>
			<path d="M9.5,27C9.224,27,9,26.776,9,26.5v-1C9,25.224,9.224,25,9.5,25s0.5,0.224,0.5,0.5v1C10,26.776,9.776,27,9.5,27z"/>
		</g>
		<g>
			<path d="M11.5,27c-0.276,0-0.5-0.224-0.5-0.5v-1c0-0.276,0.224-0.5,0.5-0.5s0.5,0.224,0.5,0.5v1C12,26.776,11.776,27,11.5,27z"/>
		</g>
		<g>
			<path d="M14.5,27c-0.276,0-0.5-0.224-0.5-0.5v-1c0-0.276,0.224-0.5,0.5-0.5s0.5,0.224,0.5,0.5v1C15,26.776,14.776,27,14.5,27z"/>
		</g>
		<g>
			<path d="M17.5,27c-0.276,0-0.5-0.224-0.5-0.5v-1c0-0.276,0.224-0.5,0.5-0.5s0.5,0.224,0.5,0.5v1C18,26.776,17.776,27,17.5,27z"/>
		</g>
		<g>
			<path d="M19.5,27c-0.276,0-0.5-0.224-0.5-0.5v-1c0-0.276,0.224-0.5,0.5-0.5s0.5,0.224,0.5,0.5v1C20,26.776,19.776,27,19.5,27z"/>
		</g>
		<g>
			<path d="M17.046,8.5c-0.132,0-0.259-0.052-0.354-0.146L14.5,6.162l-2.192,2.192c-0.114,0.114-0.274,0.167-0.434,0.14
				c-0.159-0.026-0.295-0.126-0.367-0.27L8.962,3.133C8.839,2.886,8.938,2.585,9.186,2.462c0.249-0.123,0.546-0.024,0.671,0.224
				l2.234,4.47l2.056-2.055c0.195-0.195,0.512-0.195,0.707,0l2.056,2.055l2.234-4.47c0.125-0.247,0.425-0.345,0.671-0.224
				c0.247,0.124,0.347,0.424,0.224,0.671l-2.545,5.091c-0.072,0.144-0.208,0.244-0.367,0.27C17.1,8.498,17.072,8.5,17.046,8.5z"/>
		</g>
		<g>
			<path d="M14.5,23.75c-2.344,0-4.25-1.907-4.25-4.25c0-0.444,0.079-0.899,0.234-1.354c0.004-0.036,0.012-0.071,0.023-0.106
				l1.175-3.324c0.013-0.034,0.028-0.066,0.047-0.097c0.458-1.123,1.56-1.87,2.771-1.87c1.209,0,2.311,0.746,2.77,1.867
				c0.019,0.029,0.034,0.061,0.046,0.094l1.177,3.33c0.013,0.036,0.021,0.073,0.025,0.11c0.154,0.454,0.232,0.907,0.232,1.35
				C18.75,21.843,16.844,23.75,14.5,23.75z M11.488,18.267c-0.004,0.039-0.013,0.076-0.026,0.113
				c-0.143,0.386-0.212,0.752-0.212,1.12c0,1.792,1.458,3.25,3.25,3.25s3.25-1.458,3.25-3.25c0-0.367-0.069-0.733-0.212-1.12
				c-0.015-0.038-0.023-0.078-0.028-0.117l-1.108-3.138c-0.014-0.023-0.025-0.047-0.034-0.072c-0.292-0.779-1.043-1.303-1.867-1.303
				c-0.827,0-1.578,0.525-1.868,1.308c-0.01,0.026-0.021,0.051-0.035,0.075L11.488,18.267z"/>
		</g>
		<g>
			<path d="M12.078,15.599c-0.083,0-0.167-0.021-0.244-0.063C10.086,14.559,9,12.725,9,10.75c0-0.276,0.224-0.5,0.5-0.5
				s0.5,0.224,0.5,0.5c0,1.613,0.89,3.112,2.322,3.913c0.241,0.135,0.327,0.439,0.192,0.68
				C12.423,15.507,12.253,15.599,12.078,15.599z"/>
		</g>
		<g>
			<path d="M16.922,15.599c-0.175,0-0.345-0.092-0.437-0.256c-0.135-0.241-0.049-0.545,0.192-0.68C18.11,13.862,19,12.363,19,10.75
				c0-0.276,0.224-0.5,0.5-0.5s0.5,0.224,0.5,0.5c0,1.975-1.086,3.809-2.834,4.786C17.089,15.579,17.005,15.599,16.922,15.599z"/>
		</g>
		<g>
			<path d="M18.396,14.365c-0.109,0-0.22-0.036-0.312-0.109c-1.036-0.827-1.584-1.823-1.584-2.881c0-0.276,0.224-0.5,0.5-0.5
				s0.5,0.224,0.5,0.5c0,0.939,0.656,1.66,1.207,2.099c0.216,0.172,0.252,0.487,0.079,0.703
				C18.688,14.301,18.542,14.365,18.396,14.365z"/>
		</g>
		<g>
			<path d="M10.607,14.364c-0.146,0-0.292-0.064-0.391-0.188c-0.172-0.215-0.138-0.53,0.078-0.703
				c0.55-0.439,1.205-1.16,1.205-2.098c0-0.276,0.224-0.5,0.5-0.5s0.5,0.224,0.5,0.5c0,1.057-0.547,2.053-1.58,2.879
				C10.827,14.328,10.717,14.364,10.607,14.364z"/>
		</g>
		<g>
			<circle cx="13.25" cy="17" r="0.625"/>
		</g>
		<g>
			<circle cx="15.75" cy="17" r="0.625"/>
		</g>
		<g>
			<path d="M17.75,21.878c-0.173,0-0.341-0.09-0.434-0.25C16.737,20.624,15.658,20,14.5,20c-1.156,0-2.235,0.623-2.815,1.625
				c-0.138,0.24-0.446,0.322-0.683,0.182c-0.239-0.138-0.321-0.444-0.183-0.683C11.577,19.814,12.987,19,14.5,19
				c1.515,0,2.926,0.815,3.684,2.128c0.138,0.239,0.056,0.545-0.184,0.683C17.921,21.857,17.835,21.878,17.75,21.878z"/>
		</g>
		<g>
			<path d="M17.625,16.875c-0.183,0-0.359-0.101-0.447-0.276c-0.123-0.247-0.023-0.547,0.224-0.671l1.25-0.625
				c0.248-0.123,0.547-0.024,0.671,0.224c0.123,0.247,0.023,0.547-0.224,0.671l-1.25,0.625C17.776,16.858,17.7,16.875,17.625,16.875
				z"/>
		</g>
		<g>
			<path d="M11.375,16.875c-0.075,0-0.151-0.017-0.224-0.053l-1.25-0.625c-0.247-0.124-0.347-0.424-0.224-0.671
				c0.124-0.247,0.424-0.346,0.671-0.224l1.25,0.625c0.247,0.124,0.347,0.424,0.224,0.671
				C11.734,16.774,11.558,16.875,11.375,16.875z"/>
		</g>
	</g>
</g>
<g id="Scarf">
</g>
<g id="Winter_Socks">
</g>
<g id="Winter_Sock">
</g>
<g id="Winter_Coat">
</g>
<g id="Winter_Calendar">
</g>
<g id="Thermometer_1">
</g>
<g id="Thermometer_2">
</g>
<g id="Cold">
</g>
<g id="Icicle">
</g>
<g id="Snowing">
</g>
<g id="Snow_Shoes_1">
</g>
<g id="Snow_Shoes_2">
</g>
<g id="Sledge">
</g>
<g id="Snow_Boots">
</g>
<g id="Snowcapped_Mountains">
</g>
<g id="Skis">
</g>
<g id="Sky_Glasses">
</g>
<g id="Snowboard">
</g>
<g id="Ice_Skate">
</g>
<g id="Wooden_House">
</g>
<g id="Snowcapped_House">
</g>
<g id="Hot_Drink">
</g>
<g id="Hot_Chocolate">
</g>
<g id="Lantern">
</g>
<g id="Snow_Shovel">
</g>
<g id="Snowman">
</g>
<g id="Reindeer">
</g>
<g id="Snowmobile">
</g>
<g id="Snow_Chain">
</g>
<g id="Slippery_Road">
</g>
</svg>
