<?xml version="1.0" encoding="iso-8859-1"?>
<!-- Generator: Adobe Illustrator 19.2.1, SVG Export Plug-In . SVG Version: 6.00 Build 0)  -->
<svg version="1.1" xmlns="http://www.w3.org/2000/svg" xmlns:xlink="http://www.w3.org/1999/xlink" x="0px" y="0px"
	 viewBox="0 0 30 30" style="enable-background:new 0 0 30 30;" xml:space="preserve">
<g id="Snowflake_1">
</g>
<g id="Snowflake_2">
</g>
<g id="Snowflake_3">
</g>
<g id="Snowflake_4">
</g>
<g id="Winter_Cap_1">
</g>
<g id="Winter_Cap_2">
</g>
<g id="Glowes">
</g>
<g id="Sweater_1">
</g>
<g id="Sweater_2">
</g>
<g id="Sweater_3">
</g>
<g id="Scarf">
</g>
<g id="Winter_Socks">
</g>
<g id="Winter_Sock">
</g>
<g id="Winter_Coat">
</g>
<g id="Winter_Calendar">
</g>
<g id="Thermometer_1">
	<g>
		<g>
			<path d="M14.8,27.478c-0.267,0-0.534-0.024-0.802-0.073c-1.681-0.306-3.081-1.687-3.404-3.358
				c-0.357-1.845,0.452-3.632,2.063-4.554C12.872,19.371,13,19.131,13,18.853V4.283c0-0.938,0.884-1.761,1.892-1.761h0.13
				C15.955,2.522,17,3.275,17,4.283v14.569c0,0.476,0.052,0.586,0.167,0.653l0,0c1.269,0.734,2.026,2.114,2.026,3.69
				c0,1.244-0.563,2.428-1.547,3.249C16.839,27.118,15.832,27.478,14.8,27.478z M14.892,3.522C14.441,3.522,14,3.899,14,4.283v14.57
				c0,0.643-0.316,1.207-0.847,1.509c-1.233,0.706-1.853,2.078-1.577,3.495c0.246,1.276,1.316,2.331,2.602,2.565
				c1.008,0.182,2.04-0.088,2.828-0.746c0.755-0.629,1.188-1.534,1.188-2.48c0-1.234-0.557-2.263-1.526-2.825
				c-0.001,0-0.001,0-0.001,0C16,19.985,16,19.276,16,18.852V4.283c0-0.37-0.503-0.761-0.979-0.761H14.892z"/>
		</g>
		<g>
			<path d="M16,17h-2c-0.276,0-0.5-0.224-0.5-0.5S13.724,16,14,16h2c0.276,0,0.5,0.224,0.5,0.5S16.276,17,16,17z"/>
		</g>
		<g>
			<path d="M15,30c-3.859,0-7-3.14-7-7V7c0-3.86,3.141-7,7-7s7,3.14,7,7v16C22,26.86,18.859,30,15,30z M15,1c-3.309,0-6,2.691-6,6
				v16c0,3.309,2.691,6,6,6s6-2.691,6-6V7C21,3.691,18.309,1,15,1z"/>
		</g>
		<g>
			<path d="M21.5,8h-2C19.224,8,19,7.776,19,7.5S19.224,7,19.5,7h2C21.776,7,22,7.224,22,7.5S21.776,8,21.5,8z"/>
		</g>
		<g>
			<path d="M21.5,13h-2c-0.276,0-0.5-0.224-0.5-0.5s0.224-0.5,0.5-0.5h2c0.276,0,0.5,0.224,0.5,0.5S21.776,13,21.5,13z"/>
		</g>
		<g>
			<path d="M21.5,18h-2c-0.276,0-0.5-0.224-0.5-0.5s0.224-0.5,0.5-0.5h2c0.276,0,0.5,0.224,0.5,0.5S21.776,18,21.5,18z"/>
		</g>
	</g>
</g>
<g id="Thermometer_2">
</g>
<g id="Cold">
</g>
<g id="Icicle">
</g>
<g id="Snowing">
</g>
<g id="Snow_Shoes_1">
</g>
<g id="Snow_Shoes_2">
</g>
<g id="Sledge">
</g>
<g id="Snow_Boots">
</g>
<g id="Snowcapped_Mountains">
</g>
<g id="Skis">
</g>
<g id="Sky_Glasses">
</g>
<g id="Snowboard">
</g>
<g id="Ice_Skate">
</g>
<g id="Wooden_House">
</g>
<g id="Snowcapped_House">
</g>
<g id="Hot_Drink">
</g>
<g id="Hot_Chocolate">
</g>
<g id="Lantern">
</g>
<g id="Snow_Shovel">
</g>
<g id="Snowman">
</g>
<g id="Reindeer">
</g>
<g id="Snowmobile">
</g>
<g id="Snow_Chain">
</g>
<g id="Slippery_Road">
</g>
</svg>
