<?xml version="1.0" encoding="iso-8859-1"?>
<!-- Generator: Adobe Illustrator 19.2.1, SVG Export Plug-In . SVG Version: 6.00 Build 0)  -->
<svg version="1.1" xmlns="http://www.w3.org/2000/svg" xmlns:xlink="http://www.w3.org/1999/xlink" x="0px" y="0px"
	 viewBox="0 0 30 30" style="enable-background:new 0 0 30 30;" xml:space="preserve">
<g id="Snowflake_1">
</g>
<g id="Snowflake_2">
</g>
<g id="Snowflake_3">
</g>
<g id="Snowflake_4">
</g>
<g id="Winter_Cap_1">
</g>
<g id="Winter_Cap_2">
</g>
<g id="Glowes">
</g>
<g id="Sweater_1">
</g>
<g id="Sweater_2">
</g>
<g id="Sweater_3">
</g>
<g id="Scarf">
</g>
<g id="Winter_Socks">
</g>
<g id="Winter_Sock">
	<g>
		<g>
			<path d="M23.5,7h-12C10.673,7,10,6.327,10,5.5v-4C10,0.673,10.673,0,11.5,0h12C24.327,0,25,0.673,25,1.5v4
				C25,6.327,24.327,7,23.5,7z M11.5,1C11.224,1,11,1.224,11,1.5v4C11,5.776,11.224,6,11.5,6h12C23.776,6,24,5.776,24,5.5v-4
				C24,1.224,23.776,1,23.5,1H11.5z"/>
		</g>
		<g>
			<path d="M10.894,30C7.642,30,5,27.377,5,24.154c0-1.53,0.632-3.036,1.734-4.138l4.2-4.363c0.064-0.064,0.069-0.188,0.067-0.438
				L11,7c0-0.276,0.224-0.5,0.5-0.5S12,6.724,12,7v8.108c0.004,0.43,0.008,0.884-0.353,1.245l-4.2,4.363
				C6.525,21.639,6,22.887,6,24.149C6,26.826,8.193,29,10.89,29c1.309,0,2.619-0.531,3.507-1.419l7.491-7.415
				C22.594,19.459,23,18.614,23,17.846V7c0-0.276,0.224-0.5,0.5-0.5S24,6.724,24,7v10.846c0,1.031-0.513,2.134-1.407,3.028
				l-7.491,7.415C14.032,29.36,12.458,30,10.894,30z"/>
		</g>
		<g>
			<path d="M17.522,19.913c-2.014,0-3.652-1.412-3.652-3.148c0-0.318,0.061-0.634,0.186-0.962c0.004-0.028,0.011-0.056,0.021-0.084
				l0.996-2.87c0.021-0.061,0.053-0.115,0.093-0.162c0.419-0.818,1.328-1.339,2.356-1.339c1.033,0,1.944,0.526,2.361,1.351
				c0.038,0.044,0.068,0.095,0.087,0.151l1.007,2.897c0.011,0.032,0.019,0.064,0.023,0.098c0.116,0.317,0.172,0.62,0.172,0.921
				C21.174,18.501,19.536,19.913,17.522,19.913z M15.058,15.941c-0.004,0.046-0.016,0.092-0.035,0.136
				c-0.103,0.244-0.153,0.469-0.153,0.688c0,1.185,1.19,2.148,2.652,2.148s2.652-0.963,2.652-2.148c0-0.208-0.048-0.425-0.146-0.666
				c-0.019-0.045-0.03-0.092-0.035-0.14l-0.927-2.666c-0.018-0.025-0.034-0.053-0.046-0.082c-0.225-0.518-0.827-0.865-1.499-0.865
				s-1.274,0.348-1.499,0.865c-0.013,0.03-0.029,0.059-0.048,0.085L15.058,15.941z"/>
		</g>
		<g>
			<path d="M18.15,14.87c-0.06,0-0.13-0.01-0.19-0.04c-0.06-0.02-0.11-0.06-0.16-0.11c-0.05-0.04-0.08-0.1-0.11-0.16
				c-0.02-0.06-0.04-0.12-0.04-0.19c0-0.13,0.06-0.26,0.15-0.35c0.05-0.05,0.1-0.09,0.16-0.11c0.18-0.08,0.41-0.03,0.55,0.11
				c0.09,0.09,0.14,0.22,0.14,0.35c0,0.07-0.01,0.13-0.04,0.19c-0.02,0.06-0.06,0.12-0.1,0.16C18.41,14.82,18.28,14.87,18.15,14.87z
				"/>
		</g>
		<g>
			<path d="M16.89,14.87c-0.13,0-0.26-0.05-0.35-0.15c-0.05-0.04-0.09-0.1-0.11-0.16c-0.03-0.06-0.04-0.12-0.04-0.19
				c0-0.13,0.05-0.26,0.15-0.35c0.19-0.19,0.52-0.19,0.7,0c0.1,0.09,0.15,0.22,0.15,0.35c0,0.07-0.01,0.13-0.04,0.19
				c-0.02,0.06-0.06,0.12-0.11,0.16C17.15,14.82,17.02,14.87,16.89,14.87z"/>
		</g>
		<g>
			<path d="M18.777,12.715c-0.193,0-0.377-0.112-0.459-0.301c-0.11-0.253,0.006-0.547,0.259-0.658
				c0.97-0.422,1.596-1.376,1.596-2.431c0-0.276,0.224-0.5,0.5-0.5s0.5,0.224,0.5,0.5c0,1.453-0.863,2.767-2.198,3.348
				C18.911,12.702,18.844,12.715,18.777,12.715z"/>
		</g>
		<g>
			<path d="M20.134,11.586c-0.097,0-0.195-0.028-0.281-0.087c-0.606-0.413-0.94-0.961-0.94-1.543c0-0.276,0.224-0.5,0.5-0.5
				s0.5,0.224,0.5,0.5c0,0.325,0.315,0.588,0.503,0.717c0.228,0.155,0.287,0.466,0.131,0.695
				C20.451,11.51,20.294,11.586,20.134,11.586z"/>
		</g>
		<g>
			<path d="M14.909,11.586c-0.16,0-0.317-0.076-0.414-0.218c-0.156-0.229-0.097-0.54,0.131-0.695
				c0.188-0.128,0.503-0.392,0.503-0.717c0-0.276,0.224-0.5,0.5-0.5s0.5,0.224,0.5,0.5c0,0.582-0.334,1.13-0.94,1.543
				C15.104,11.558,15.006,11.586,14.909,11.586z"/>
		</g>
		<g>
			<path d="M16.266,12.715c-0.066,0-0.134-0.013-0.199-0.042c-1.335-0.581-2.198-1.895-2.198-3.348c0-0.276,0.224-0.5,0.5-0.5
				s0.5,0.224,0.5,0.5c0,1.055,0.626,2.009,1.596,2.431c0.253,0.11,0.37,0.405,0.259,0.658
				C16.643,12.603,16.459,12.715,16.266,12.715z"/>
		</g>
		<g>
			<path d="M20.123,18.761c-0.159,0-0.316-0.076-0.413-0.217c-0.496-0.722-1.313-1.153-2.188-1.153s-1.693,0.431-2.188,1.153
				c-0.156,0.228-0.467,0.287-0.695,0.129c-0.228-0.156-0.285-0.467-0.129-0.695c0.682-0.994,1.809-1.587,3.013-1.587
				s2.33,0.593,3.012,1.587c0.156,0.228,0.099,0.539-0.129,0.695C20.318,18.733,20.22,18.761,20.123,18.761z"/>
		</g>
		<g>
			<path d="M15.049,28.053c-0.214,0-0.412-0.138-0.478-0.353c-0.47-1.529-1.461-3.104-2.792-4.436
				c-1.331-1.331-2.906-2.322-4.436-2.792c-0.264-0.081-0.412-0.361-0.331-0.625c0.082-0.263,0.361-0.411,0.625-0.331
				c1.682,0.517,3.404,1.597,4.849,3.041c1.444,1.444,2.524,3.167,3.041,4.849c0.081,0.264-0.067,0.544-0.331,0.625
				C15.147,28.046,15.098,28.053,15.049,28.053z"/>
		</g>
		<g>
			<path d="M20.043,14.239c-0.128,0-0.256-0.049-0.354-0.146c-0.195-0.195-0.195-0.512,0-0.707l0.63-0.63
				c0.195-0.195,0.512-0.195,0.707,0s0.195,0.512,0,0.707l-0.63,0.63C20.299,14.19,20.171,14.239,20.043,14.239z"/>
		</g>
		<g>
			<path d="M15,14.239c-0.128,0-0.256-0.049-0.354-0.146l-0.63-0.63c-0.195-0.195-0.195-0.512,0-0.707s0.512-0.195,0.707,0
				l0.63,0.63c0.195,0.195,0.195,0.512,0,0.707C15.256,14.19,15.128,14.239,15,14.239z"/>
		</g>
	</g>
</g>
<g id="Winter_Coat">
</g>
<g id="Winter_Calendar">
</g>
<g id="Thermometer_1">
</g>
<g id="Thermometer_2">
</g>
<g id="Cold">
</g>
<g id="Icicle">
</g>
<g id="Snowing">
</g>
<g id="Snow_Shoes_1">
</g>
<g id="Snow_Shoes_2">
</g>
<g id="Sledge">
</g>
<g id="Snow_Boots">
</g>
<g id="Snowcapped_Mountains">
</g>
<g id="Skis">
</g>
<g id="Sky_Glasses">
</g>
<g id="Snowboard">
</g>
<g id="Ice_Skate">
</g>
<g id="Wooden_House">
</g>
<g id="Snowcapped_House">
</g>
<g id="Hot_Drink">
</g>
<g id="Hot_Chocolate">
</g>
<g id="Lantern">
</g>
<g id="Snow_Shovel">
</g>
<g id="Snowman">
</g>
<g id="Reindeer">
</g>
<g id="Snowmobile">
</g>
<g id="Snow_Chain">
</g>
<g id="Slippery_Road">
</g>
</svg>
