<?xml version="1.0" encoding="iso-8859-1"?>
<!-- Generator: Adobe Illustrator 19.2.1, SVG Export Plug-In . SVG Version: 6.00 Build 0)  -->
<svg version="1.1" xmlns="http://www.w3.org/2000/svg" xmlns:xlink="http://www.w3.org/1999/xlink" x="0px" y="0px"
	 viewBox="0 0 30 30" style="enable-background:new 0 0 30 30;" xml:space="preserve">
<g id="Snowflake_1">
</g>
<g id="Snowflake_2">
</g>
<g id="Snowflake_3">
</g>
<g id="Snowflake_4">
</g>
<g id="Winter_Cap_1">
</g>
<g id="Winter_Cap_2">
</g>
<g id="Glowes">
</g>
<g id="Sweater_1">
</g>
<g id="Sweater_2">
</g>
<g id="Sweater_3">
</g>
<g id="Scarf">
</g>
<g id="Winter_Socks">
</g>
<g id="Winter_Sock">
</g>
<g id="Winter_Coat">
	<g>
		<g>
			<path d="M21.17,30H8.83C7.838,30,7,29.194,7,28.24v-7.127L6.092,26.05c-0.183,0.941-1.052,1.554-1.983,1.403l-1.384-0.241
				c-0.938-0.154-1.576-1.024-1.45-1.979c0.021-0.107,1.498-7.332,1.882-9.724C3.619,12.607,4.342,10,8.07,10h1.05
				c0.276,0,0.5,0.224,0.5,0.5S9.396,11,9.12,11H8.07c-2.723,0-3.412,1.44-3.926,4.668C3.756,18.082,2.275,25.327,2.26,25.4
				c-0.049,0.382,0.226,0.76,0.631,0.827l1.384,0.24c0.396,0.069,0.755-0.194,0.834-0.603L7.008,15.54
				c0.047-0.254,0.271-0.435,0.537-0.408C7.803,15.155,8,15.372,8,15.63v12.61C8,28.645,8.388,29,8.83,29h12.34
				c0.442,0,0.83-0.355,0.83-0.76V15.63c0-0.258,0.197-0.475,0.455-0.498c0.254-0.028,0.491,0.153,0.537,0.408l1.9,10.33
				c0.079,0.404,0.44,0.668,0.847,0.597l1.368-0.229c0.407-0.066,0.682-0.44,0.627-0.852c-0.009-0.039-1.491-7.304-1.878-9.716
				C25.342,12.44,24.653,11,21.93,11h-0.82c-0.276,0-0.5-0.224-0.5-0.5s0.224-0.5,0.5-0.5h0.82c3.728,0,4.451,2.607,4.914,5.511
				c0.384,2.392,1.861,9.636,1.876,9.708c0.131,0.984-0.508,1.849-1.449,2.004l-1.368,0.229c-0.936,0.149-1.812-0.46-1.994-1.398
				L23,21.113v7.127C23,29.194,22.162,30,21.17,30z"/>
		</g>
		<g>
			<path d="M16.89,12.35H15c-4.819,0-7.43-0.803-7.43-5.04C7.57,3.93,10.815,0,15,0s7.43,3.93,7.43,7.31
				c0,3.789-1.234,4.513-5.479,5.036C16.931,12.349,16.911,12.35,16.89,12.35z M15,1c-3.562,0-6.43,3.452-6.43,6.31
				c0,3.134,1.442,4.04,6.43,4.04h1.859c3.972-0.492,4.571-1.026,4.571-4.04C21.43,4.452,18.562,1,15,1z"/>
		</g>
		<g>
			<path d="M15,9.826c-3.077,0-4.913-1.13-4.913-3.022c0-1.98,2.146-4.282,4.913-4.282s4.913,2.302,4.913,4.282
				C19.913,8.696,18.077,9.826,15,9.826z M15,3.522c-2.167,0-3.913,1.795-3.913,3.282c0,1.491,2.021,2.022,3.913,2.022
				s3.913-0.531,3.913-2.022C18.913,5.317,17.167,3.522,15,3.522z"/>
		</g>
		<g>
			<path d="M15.5,30c-0.276,0-0.5-0.224-0.5-0.5V11.85c0-0.276,0.224-0.5,0.5-0.5s0.5,0.224,0.5,0.5V29.5
				C16,29.776,15.776,30,15.5,30z"/>
		</g>
		<g>
			<path d="M15.5,15h-2c-0.276,0-0.5-0.224-0.5-0.5s0.224-0.5,0.5-0.5h2c0.276,0,0.5,0.224,0.5,0.5S15.776,15,15.5,15z"/>
		</g>
		<g>
			<path d="M15.5,18h-2c-0.276,0-0.5-0.224-0.5-0.5s0.224-0.5,0.5-0.5h2c0.276,0,0.5,0.224,0.5,0.5S15.776,18,15.5,18z"/>
		</g>
		<g>
			<path d="M15.5,21h-2c-0.276,0-0.5-0.224-0.5-0.5s0.224-0.5,0.5-0.5h2c0.276,0,0.5,0.224,0.5,0.5S15.776,21,15.5,21z"/>
		</g>
		<g>
			<path d="M15.5,24h-2c-0.276,0-0.5-0.224-0.5-0.5s0.224-0.5,0.5-0.5h2c0.276,0,0.5,0.224,0.5,0.5S15.776,24,15.5,24z"/>
		</g>
		<g>
			<path d="M15.5,27h-2c-0.276,0-0.5-0.224-0.5-0.5s0.224-0.5,0.5-0.5h2c0.276,0,0.5,0.224,0.5,0.5S15.776,27,15.5,27z"/>
		</g>
		<g>
			<path d="M16.5,12.35c-0.276,0-0.5-0.224-0.5-0.5V9.22c0-0.276,0.224-0.5,0.5-0.5S17,8.944,17,9.22v2.63
				C17,12.126,16.776,12.35,16.5,12.35z"/>
		</g>
	</g>
</g>
<g id="Winter_Calendar">
</g>
<g id="Thermometer_1">
</g>
<g id="Thermometer_2">
</g>
<g id="Cold">
</g>
<g id="Icicle">
</g>
<g id="Snowing">
</g>
<g id="Snow_Shoes_1">
</g>
<g id="Snow_Shoes_2">
</g>
<g id="Sledge">
</g>
<g id="Snow_Boots">
</g>
<g id="Snowcapped_Mountains">
</g>
<g id="Skis">
</g>
<g id="Sky_Glasses">
</g>
<g id="Snowboard">
</g>
<g id="Ice_Skate">
</g>
<g id="Wooden_House">
</g>
<g id="Snowcapped_House">
</g>
<g id="Hot_Drink">
</g>
<g id="Hot_Chocolate">
</g>
<g id="Lantern">
</g>
<g id="Snow_Shovel">
</g>
<g id="Snowman">
</g>
<g id="Reindeer">
</g>
<g id="Snowmobile">
</g>
<g id="Snow_Chain">
</g>
<g id="Slippery_Road">
</g>
</svg>
