<?xml version="1.0" encoding="iso-8859-1"?>
<!-- Generator: Adobe Illustrator 19.2.1, SVG Export Plug-In . SVG Version: 6.00 Build 0)  -->
<svg version="1.1" xmlns="http://www.w3.org/2000/svg" xmlns:xlink="http://www.w3.org/1999/xlink" x="0px" y="0px"
	 viewBox="0 0 30 30" style="enable-background:new 0 0 30 30;" xml:space="preserve">
<g id="Photo_frame">
</g>
<g id="Photo_frame_2">
</g>
<g id="Photo_frame_3">
</g>
<g id="Photo_frame__4">
</g>
<g id="Photo_frame_5">
</g>
<g id="Photo_frame_6">
</g>
<g id="Photo_frame_7">
</g>
<g id="Round_Frame_1">
</g>
<g id="Rectangle_Frame_1">
</g>
<g id="Square_Frame_1">
</g>
<g id="Rectangle_Frame_2">
</g>
<g id="Oval_Frame_1">
</g>
<g id="Round_Frame_2">
</g>
<g id="Rectangle_Frame_3">
</g>
<g id="Rectangle_Frame_4">
</g>
<g id="Rectangle_Frame_5">
</g>
<g id="Square_Frame_2">
</g>
<g id="Rectangle_Frame_6">
</g>
<g id="Rectangle_Frame_7">
</g>
<g id="Oval_Frame_2">
</g>
<g id="Round_Frame_3">
</g>
<g id="Rectangle_Frame_8">
</g>
<g id="Square_Frame_3">
</g>
<g id="Rectangle_Frame_9">
</g>
<g id="Rectangle_Frame_10">
</g>
<g id="Square_Frame_4">
</g>
<g id="Rectangle_Frame_11">
</g>
<g id="Rectangle_Frame_12">
</g>
<g id="Square_Frame_5">
</g>
<g id="Rectangle_Frame_13">
</g>
<g id="Round_Frame">
</g>
<g id="Frame_2">
</g>
<g id="Frame_1">
</g>
<g id="Frame_3">
</g>
<g id="Frame_4">
</g>
<g id="Frame_5">
</g>
<g id="Frame_6">
</g>
<g id="Frame_7">
</g>
<g id="Frame_8">
</g>
<g id="Frame_9">
</g>
<g id="Frame_10">
</g>
<g id="Frame_11">
</g>
<g id="Frame_12">
</g>
<g id="Frame_13">
</g>
<g id="Frame_14">
</g>
<g id="Frame_15">
</g>
<g id="Frame_16">
</g>
<g id="Frame_17">
</g>
<g id="Frame_18">
</g>
<g id="Frame_19">
</g>
<g id="Frame_20">
</g>
<g id="Frame_21">
</g>
<g id="Frame_22">
</g>
<g id="Frame_23">
</g>
<g id="Frame_24">
</g>
<g id="Frame_25">
</g>
<g id="Frame_26">
</g>
<g id="Frame_27">
</g>
<g id="Frame_28">
</g>
<g id="Frame_29">
</g>
<g id="Frame_30">
</g>
<g id="Frame_Hole_1">
</g>
<g id="Frame_Hole_2">
</g>
<g id="Frame_Hole_3">
</g>
<g id="Frame_Hole_4">
</g>
<g id="Frame_31">
</g>
<g id="Frame_32">
</g>
<g id="Frame_33">
</g>
<g id="Frame_34">
</g>
<g id="Frame_35">
</g>
<g id="Dashed_Frame_1">
</g>
<g id="Dashed_Frame_2">
	<g>
		<g>
			<path d="M15,23.695c-0.349,0-0.696-0.017-1.043-0.047c-0.275-0.024-0.479-0.267-0.454-0.542c0.024-0.274,0.265-0.468,0.542-0.454
				c0.317,0.028,0.636,0.043,0.955,0.043c0.11,0,0.211,0.035,0.294,0.096c0.079-0.064,0.178-0.105,0.288-0.111
				c0.32-0.018,0.639-0.049,0.956-0.092c0.278-0.044,0.526,0.154,0.563,0.428s-0.155,0.525-0.428,0.563
				c-0.343,0.047-0.688,0.08-1.035,0.1c-0.121,0.013-0.232-0.029-0.322-0.095C15.229,23.653,15.12,23.695,15,23.695z M12.03,23.328
				c-0.038,0-0.076-0.004-0.114-0.013c-0.335-0.079-0.667-0.167-0.995-0.264c-0.265-0.078-0.416-0.356-0.338-0.621
				s0.353-0.414,0.621-0.338c0.309,0.091,0.622,0.175,0.939,0.248c0.269,0.063,0.436,0.332,0.373,0.601
				C12.462,23.173,12.257,23.328,12.03,23.328z M18.562,23.179c-0.22,0-0.421-0.146-0.482-0.369
				c-0.072-0.267,0.085-0.541,0.352-0.613c0.315-0.086,0.627-0.18,0.934-0.28c0.263-0.082,0.545,0.059,0.63,0.32
				c0.085,0.263-0.058,0.545-0.321,0.631c-0.322,0.104-0.649,0.204-0.981,0.294C18.649,23.173,18.605,23.179,18.562,23.179z
				 M9.159,22.418c-0.057,0-0.115-0.011-0.172-0.034c-0.001,0-0.034-0.014-0.035-0.014c-0.052-0.021-0.133-0.064-0.176-0.102
				L8.471,22H8.326c-0.276,0-0.5-0.224-0.5-0.5s0.224-0.5,0.5-0.5H8.66c0.122,0,0.239,0.044,0.331,0.125l0.424,0.374
				c0.18,0.136,0.274,0.381,0.189,0.594C9.524,22.291,9.352,22.418,9.159,22.418z M21.312,22.009c-0.139,0-0.275-0.053-0.37-0.161
				c-0.182-0.208-0.182-0.506,0.026-0.688C21.06,21.081,21.219,21,21.34,21h0.943c0.276,0,0.5,0.224,0.5,0.5s-0.224,0.5-0.5,0.5
				h-0.875C21.376,22.006,21.344,22.009,21.312,22.009z M25.283,22h-1c-0.276,0-0.5-0.224-0.5-0.5s0.224-0.5,0.5-0.5h1
				c0.276,0,0.5,0.224,0.5,0.5S25.56,22,25.283,22z M6.326,22h-1c-0.276,0-0.5-0.224-0.5-0.5s0.224-0.5,0.5-0.5h1
				c0.276,0,0.5,0.224,0.5,0.5S6.602,22,6.326,22z M4.5,20.825c-0.276,0-0.5-0.224-0.5-0.5v-1c0-0.276,0.224-0.5,0.5-0.5
				s0.5,0.224,0.5,0.5v1C5,20.602,4.776,20.825,4.5,20.825z M25.5,20.217c-0.276,0-0.5-0.224-0.5-0.5v-1c0-0.276,0.224-0.5,0.5-0.5
				s0.5,0.224,0.5,0.5v1C26,19.993,25.776,20.217,25.5,20.217z M3.753,18.061c-0.182,0-0.357-0.1-0.445-0.271
				c-0.169-0.329-0.311-0.661-0.421-0.986c-0.089-0.262,0.051-0.546,0.312-0.635c0.262-0.085,0.545,0.051,0.634,0.313
				c0.095,0.279,0.218,0.566,0.364,0.852c0.126,0.246,0.029,0.548-0.217,0.674C3.908,18.043,3.83,18.061,3.753,18.061z
				 M26.488,17.496c-0.064,0-0.13-0.013-0.193-0.039c-0.254-0.106-0.375-0.399-0.268-0.654c0.124-0.296,0.22-0.589,0.286-0.869
				c0.063-0.271,0.33-0.436,0.6-0.374c0.269,0.063,0.437,0.332,0.374,0.601c-0.078,0.336-0.191,0.682-0.337,1.029
				C26.869,17.381,26.684,17.496,26.488,17.496z M3.089,15.173c-0.013,0-0.025,0-0.038-0.001C2.776,15.15,2.569,14.91,2.59,14.635
				c0.026-0.351,0.093-0.714,0.197-1.081c0.075-0.266,0.351-0.424,0.618-0.344c0.266,0.075,0.42,0.352,0.344,0.617
				c-0.086,0.303-0.141,0.6-0.162,0.884C3.567,14.973,3.349,15.173,3.089,15.173z M26.829,14.563c-0.234,0-0.443-0.165-0.49-0.403
				c-0.056-0.285-0.143-0.579-0.257-0.873c-0.1-0.258,0.027-0.548,0.285-0.647c0.256-0.101,0.547,0.027,0.647,0.284
				c0.136,0.35,0.239,0.7,0.307,1.043c0.053,0.271-0.123,0.534-0.394,0.587C26.894,14.56,26.861,14.563,26.829,14.563z
				 M4.102,12.382c-0.103,0-0.207-0.032-0.296-0.098c-0.222-0.164-0.27-0.478-0.105-0.699L4,11.179v-0.166
				c0-0.276,0.224-0.5,0.5-0.5s0.5,0.224,0.5,0.5v0.331c0,0.107-0.034,0.211-0.098,0.297l-0.397,0.538
				C4.407,12.312,4.255,12.382,4.102,12.382z M25.504,11.877c-0.135,0-0.266-0.058-0.359-0.177C25.075,11.612,25,11.456,25,11.344
				v-0.939c0-0.276,0.224-0.5,0.5-0.5s0.5,0.224,0.5,0.5v0.876c0.029,0.178-0.027,0.366-0.172,0.48
				C25.729,11.838,25.615,11.877,25.504,11.877z M4.5,9.513c-0.276,0-0.5-0.224-0.5-0.5V8.5C4,8.224,4.224,8,4.5,8h0.487
				c0.276,0,0.5,0.224,0.5,0.5C5.487,8.771,5.271,8.993,5,9v0.013C5,9.289,4.776,9.513,4.5,9.513z M25.404,9h-1
				c-0.276,0-0.5-0.224-0.5-0.5s0.224-0.5,0.5-0.5h1c0.276,0,0.5,0.224,0.5,0.5S25.681,9,25.404,9z M22.404,9h-1
				c-0.276,0-0.5-0.224-0.5-0.5s0.224-0.5,0.5-0.5h1c0.276,0,0.5,0.224,0.5,0.5S22.681,9,22.404,9z M7.987,9h-1
				c-0.276,0-0.5-0.224-0.5-0.5S6.711,8,6.987,8h1c0.276,0,0.5,0.224,0.5,0.5S8.264,9,7.987,9z M9.792,8.352
				c-0.207,0-0.399-0.129-0.472-0.334C9.229,7.757,9.366,7.472,9.627,7.38c0.32-0.112,0.646-0.217,0.978-0.313
				c0.267-0.078,0.543,0.075,0.62,0.341c0.077,0.266-0.075,0.543-0.34,0.62c-0.314,0.091-0.623,0.189-0.926,0.296
				C9.903,8.343,9.848,8.352,9.792,8.352z M19.6,8.196c-0.051,0-0.103-0.008-0.153-0.024c-0.306-0.099-0.618-0.189-0.933-0.272
				c-0.267-0.069-0.427-0.343-0.357-0.61c0.07-0.267,0.344-0.43,0.61-0.356c0.334,0.087,0.663,0.184,0.987,0.288
				c0.263,0.085,0.407,0.366,0.323,0.629C20.007,8.062,19.811,8.196,19.6,8.196z M12.693,7.605c-0.241,0-0.453-0.174-0.493-0.419
				c-0.044-0.272,0.14-0.53,0.413-0.574c0.339-0.056,0.682-0.101,1.025-0.133c0.281-0.019,0.519,0.177,0.545,0.451
				c0.025,0.275-0.176,0.519-0.451,0.545c-0.321,0.03-0.641,0.071-0.958,0.123C12.747,7.604,12.72,7.605,12.693,7.605z
				 M16.679,7.524c-0.021,0-0.042-0.001-0.063-0.004c-0.318-0.041-0.639-0.071-0.96-0.09c-0.276-0.016-0.487-0.251-0.471-0.526
				c0.015-0.276,0.256-0.506,0.527-0.472c0.345,0.019,0.689,0.053,1.031,0.096c0.274,0.035,0.468,0.285,0.433,0.56
				C17.143,7.34,16.927,7.524,16.679,7.524z"/>
		</g>
		<g>
			<path d="M15,26.26c-2.971,0-5.117-0.389-6.935-1.26H1.5C1.224,25,1,24.776,1,24.5v-5.448C0.372,18.137,0,16.641,0,15
				s0.372-3.137,1-4.052V5.5C1,5.224,1.224,5,1.5,5h6.565C9.883,4.129,12.029,3.74,15,3.74S20.117,4.129,21.935,5H28.5
				C28.776,5,29,5.224,29,5.5v5.448c0.628,0.915,1,2.411,1,4.052s-0.372,3.137-1,4.052V24.5c0,0.276-0.224,0.5-0.5,0.5h-6.565
				C20.117,25.871,17.971,26.26,15,26.26z M2,24h6.18c0.077,0,0.152,0.018,0.221,0.052c1.696,0.835,3.731,1.208,6.599,1.208
				s4.903-0.373,6.599-1.208C21.667,24.018,21.743,24,21.82,24H28v-5.11c0-0.11,0.037-0.218,0.104-0.305
				C28.657,17.867,29,16.493,29,15s-0.343-2.867-0.896-3.585C28.037,11.328,28,11.221,28,11.11V6h-6.18
				c-0.077,0-0.152-0.018-0.221-0.052C19.903,5.113,17.868,4.74,15,4.74s-4.903,0.373-6.599,1.208C8.333,5.982,8.257,6,8.18,6H2
				v5.11c0,0.11-0.037,0.218-0.104,0.305C1.343,12.133,1,13.507,1,15s0.343,2.867,0.896,3.585C1.963,18.672,2,18.779,2,18.89V24z"/>
		</g>
	</g>
</g>
<g id="Dashed_Frame_3">
</g>
<g id="Dashed_Frame_4">
</g>
<g id="Dashed_Frame_5">
</g>
<g id="Dashed_Frame_6">
</g>
<g id="Dashed_Frame_7">
</g>
<g id="Dashed_Frame_8">
</g>
<g id="Dashed_Frame_9">
</g>
<g id="Dashed_Frame_10">
</g>
<g id="Dashed_Frame_11">
</g>
<g id="Dashed_Frame_12">
</g>
<g id="Dashed_Frame_13">
</g>
<g id="Dashed_Frame_14">
</g>
<g id="Dashed_Frame_15">
</g>
<g id="Dashed_Frame_16">
</g>
<g id="Dashed_Frame_17">
</g>
<g id="Dashed_Frame_18">
</g>
<g id="Dashed_Frame_19">
</g>
<g id="Dashed_Frame_20">
</g>
<g id="Dashed_Frame_25">
</g>
<g id="Dashed_Frame_26">
</g>
<g id="Dashed_Frame_27">
</g>
<g id="Dashed_Frame_28">
</g>
<g id="Dashed_Frame_29">
</g>
<g id="Dashed_Frame_30">
</g>
<g id="Dashed_Frame_31">
</g>
<g id="Dashed_Frame_32">
</g>
<g id="Dashed_Frame_33">
</g>
<g id="Dashed_Frame_35">
</g>
</svg>
