<?xml version="1.0" encoding="iso-8859-1"?>
<!-- Generator: Adobe Illustrator 19.2.1, SVG Export Plug-In . SVG Version: 6.00 Build 0)  -->
<svg version="1.1" xmlns="http://www.w3.org/2000/svg" xmlns:xlink="http://www.w3.org/1999/xlink" x="0px" y="0px"
	 viewBox="0 0 30 30" style="enable-background:new 0 0 30 30;" xml:space="preserve">
<g id="Photo_frame">
</g>
<g id="Photo_frame_2">
</g>
<g id="Photo_frame_3">
</g>
<g id="Photo_frame__4">
</g>
<g id="Photo_frame_5">
</g>
<g id="Photo_frame_6">
</g>
<g id="Photo_frame_7">
</g>
<g id="Round_Frame_1">
</g>
<g id="Rectangle_Frame_1">
</g>
<g id="Square_Frame_1">
</g>
<g id="Rectangle_Frame_2">
</g>
<g id="Oval_Frame_1">
</g>
<g id="Round_Frame_2">
</g>
<g id="Rectangle_Frame_3">
</g>
<g id="Rectangle_Frame_4">
</g>
<g id="Rectangle_Frame_5">
</g>
<g id="Square_Frame_2">
</g>
<g id="Rectangle_Frame_6">
</g>
<g id="Rectangle_Frame_7">
</g>
<g id="Oval_Frame_2">
</g>
<g id="Round_Frame_3">
</g>
<g id="Rectangle_Frame_8">
</g>
<g id="Square_Frame_3">
</g>
<g id="Rectangle_Frame_9">
</g>
<g id="Rectangle_Frame_10">
</g>
<g id="Square_Frame_4">
</g>
<g id="Rectangle_Frame_11">
</g>
<g id="Rectangle_Frame_12">
</g>
<g id="Square_Frame_5">
</g>
<g id="Rectangle_Frame_13">
</g>
<g id="Round_Frame">
</g>
<g id="Frame_2">
</g>
<g id="Frame_1">
</g>
<g id="Frame_3">
</g>
<g id="Frame_4">
</g>
<g id="Frame_5">
</g>
<g id="Frame_6">
</g>
<g id="Frame_7">
</g>
<g id="Frame_8">
</g>
<g id="Frame_9">
</g>
<g id="Frame_10">
</g>
<g id="Frame_11">
</g>
<g id="Frame_12">
</g>
<g id="Frame_13">
</g>
<g id="Frame_14">
</g>
<g id="Frame_15">
</g>
<g id="Frame_16">
</g>
<g id="Frame_17">
</g>
<g id="Frame_18">
</g>
<g id="Frame_19">
</g>
<g id="Frame_20">
</g>
<g id="Frame_21">
</g>
<g id="Frame_22">
</g>
<g id="Frame_23">
</g>
<g id="Frame_24">
</g>
<g id="Frame_25">
</g>
<g id="Frame_26">
</g>
<g id="Frame_27">
</g>
<g id="Frame_28">
</g>
<g id="Frame_29">
</g>
<g id="Frame_30">
</g>
<g id="Frame_Hole_1">
</g>
<g id="Frame_Hole_2">
</g>
<g id="Frame_Hole_3">
</g>
<g id="Frame_Hole_4">
</g>
<g id="Frame_31">
</g>
<g id="Frame_32">
</g>
<g id="Frame_33">
</g>
<g id="Frame_34">
</g>
<g id="Frame_35">
</g>
<g id="Dashed_Frame_1">
</g>
<g id="Dashed_Frame_2">
</g>
<g id="Dashed_Frame_3">
</g>
<g id="Dashed_Frame_4">
</g>
<g id="Dashed_Frame_5">
</g>
<g id="Dashed_Frame_6">
</g>
<g id="Dashed_Frame_7">
</g>
<g id="Dashed_Frame_8">
</g>
<g id="Dashed_Frame_9">
</g>
<g id="Dashed_Frame_10">
</g>
<g id="Dashed_Frame_11">
	<g>
		<g>
			<path d="M15,30c-2.263,0-4.141-1.306-4.454-3H9.33c-0.276,0-0.5-0.224-0.5-0.5c0-2.74-2.59-5.33-5.33-5.33
				c-0.276,0-0.5-0.224-0.5-0.5v-1.216C1.306,19.142,0,17.263,0,15s1.306-4.142,3-4.454V9.33c0-0.276,0.224-0.5,0.5-0.5
				c2.74,0,5.33-2.59,5.33-5.33c0-0.276,0.224-0.5,0.5-0.5h1.216C10.859,1.306,12.737,0,15,0s4.141,1.306,4.454,3h1.216
				c0.276,0,0.5,0.224,0.5,0.5c0,2.74,2.59,5.33,5.33,5.33c0.276,0,0.5,0.224,0.5,0.5v1.216c1.694,0.313,3,2.191,3,4.454
				s-1.306,4.142-3,4.454v1.216c0,0.276-0.224,0.5-0.5,0.5c-2.74,0-5.33,2.59-5.33,5.33c0,0.276-0.224,0.5-0.5,0.5h-1.216
				C19.141,28.694,17.263,30,15,30z M9.806,26H11c0.276,0,0.5,0.224,0.5,0.5c0,1.379,1.57,2.5,3.5,2.5s3.5-1.121,3.5-2.5
				c0-0.276,0.224-0.5,0.5-0.5h1.194c0.277-2.896,2.91-5.529,5.806-5.806V19c0-0.276,0.224-0.5,0.5-0.5c1.378,0,2.5-1.57,2.5-3.5
				s-1.122-3.5-2.5-3.5c-0.276,0-0.5-0.224-0.5-0.5V9.806C23.104,9.529,20.471,6.896,20.194,4H19c-0.276,0-0.5-0.224-0.5-0.5
				C18.5,2.121,16.93,1,15,1s-3.5,1.121-3.5,2.5C11.5,3.776,11.276,4,11,4H9.806C9.529,6.896,6.896,9.529,4,9.806V11
				c0,0.276-0.224,0.5-0.5,0.5C2.122,11.5,1,13.07,1,15s1.122,3.5,2.5,3.5C3.776,18.5,4,18.724,4,19v1.194
				C6.896,20.471,9.529,23.104,9.806,26z"/>
		</g>
		<g>
			<g>
				<path d="M14.741,26.989c-0.014,0-0.029-0.001-0.043-0.002c-0.646-0.056-1.039-0.269-1.178-0.357
					c-0.143-0.092-0.23-0.251-0.23-0.421v-1c0-0.276,0.224-0.5,0.5-0.5s0.5,0.224,0.5,0.5v0.683c0.13,0.044,0.298,0.083,0.493,0.1
					c0.275,0.023,0.479,0.266,0.456,0.541C15.216,26.793,14.998,26.989,14.741,26.989z"/>
			</g>
			<g>
				<path d="M13.79,25.579c-0.276,0-0.5-0.224-0.5-0.5v-0.5h-0.5c-0.276,0-0.5-0.224-0.5-0.5s0.224-0.5,0.5-0.5h1
					c0.276,0,0.5,0.224,0.5,0.5v1C14.29,25.355,14.066,25.579,13.79,25.579z"/>
			</g>
			<g>
				<path d="M12.622,24.579h-1c-0.221,0-0.416-0.145-0.479-0.356c-0.09-0.303-0.198-0.599-0.322-0.884
					c-0.11-0.254,0.006-0.548,0.259-0.658c0.254-0.106,0.548,0.007,0.658,0.26c0.091,0.209,0.173,0.422,0.249,0.639h0.636
					c0.276,0,0.5,0.224,0.5,0.5S12.898,24.579,12.622,24.579z"/>
			</g>
			<g>
				<path d="M10.195,21.811c-0.149,0-0.297-0.066-0.395-0.193c-0.411-0.527-0.887-1.004-1.415-1.415
					c-0.218-0.17-0.257-0.483-0.087-0.701c0.17-0.219,0.483-0.259,0.702-0.088c0.594,0.462,1.129,0.997,1.59,1.591
					c0.17,0.218,0.13,0.532-0.088,0.701C10.41,21.776,10.302,21.811,10.195,21.811z"/>
			</g>
			<g>
				<path d="M6.86,19.221c-0.066,0-0.133-0.013-0.198-0.041c-0.286-0.124-0.581-0.231-0.884-0.321
					c-0.212-0.063-0.357-0.258-0.357-0.479v-1c0-0.276,0.224-0.5,0.5-0.5s0.5,0.224,0.5,0.5v0.636
					c0.217,0.074,0.43,0.157,0.639,0.247c0.253,0.109,0.37,0.404,0.26,0.657C7.238,19.108,7.054,19.221,6.86,19.221z"/>
			</g>
			<g>
				<path d="M5.921,17.711c-0.276,0-0.5-0.224-0.5-0.5v-0.5h-0.5c-0.276,0-0.5-0.224-0.5-0.5s0.224-0.5,0.5-0.5h1
					c0.276,0,0.5,0.224,0.5,0.5v1C6.421,17.487,6.197,17.711,5.921,17.711z"/>
			</g>
			<g>
				<path d="M4.791,16.711h-1c-0.17,0-0.329-0.087-0.421-0.23c-0.089-0.14-0.303-0.534-0.357-1.179
					c-0.023-0.275,0.181-0.517,0.456-0.54c0.275-0.015,0.517,0.182,0.54,0.456c0.017,0.194,0.055,0.362,0.099,0.493h0.683
					c0.276,0,0.5,0.224,0.5,0.5S5.067,16.711,4.791,16.711z"/>
			</g>
			<g>
				<path d="M3.511,15.24c-0.014,0-0.028-0.001-0.042-0.002c-0.275-0.023-0.479-0.265-0.456-0.54
					c0.054-0.645,0.268-1.039,0.357-1.179c0.092-0.144,0.251-0.23,0.421-0.23h1c0.276,0,0.5,0.224,0.5,0.5s-0.224,0.5-0.5,0.5H4.108
					c-0.044,0.131-0.083,0.299-0.099,0.493C3.987,15.043,3.769,15.24,3.511,15.24z"/>
			</g>
			<g>
				<path d="M5.921,14.289h-1c-0.276,0-0.5-0.224-0.5-0.5s0.224-0.5,0.5-0.5h0.5v-0.5c0-0.276,0.224-0.5,0.5-0.5s0.5,0.224,0.5,0.5
					v1C6.421,14.065,6.197,14.289,5.921,14.289z"/>
			</g>
			<g>
				<path d="M5.921,13.121c-0.276,0-0.5-0.224-0.5-0.5v-1c0-0.222,0.146-0.416,0.357-0.479c0.303-0.09,0.598-0.197,0.884-0.321
					c0.254-0.112,0.548,0.007,0.658,0.261c0.109,0.253-0.007,0.548-0.26,0.657c-0.209,0.09-0.422,0.173-0.639,0.247v0.636
					C6.421,12.897,6.197,13.121,5.921,13.121z"/>
			</g>
			<g>
				<path d="M8.69,10.694c-0.149,0-0.297-0.066-0.395-0.193c-0.17-0.218-0.13-0.532,0.088-0.701c0.527-0.41,1.003-0.887,1.415-1.415
					c0.169-0.217,0.484-0.258,0.702-0.088c0.218,0.169,0.257,0.483,0.087,0.701c-0.462,0.595-0.998,1.13-1.591,1.591
					C8.906,10.66,8.797,10.694,8.69,10.694z"/>
			</g>
			<g>
				<path d="M11.278,7.36c-0.066,0-0.134-0.014-0.199-0.041c-0.253-0.11-0.37-0.404-0.259-0.658
					c0.124-0.285,0.232-0.581,0.322-0.884c0.063-0.212,0.258-0.356,0.479-0.356h1c0.276,0,0.5,0.224,0.5,0.5s-0.224,0.5-0.5,0.5
					h-0.636c-0.075,0.217-0.158,0.43-0.249,0.639C11.656,7.248,11.472,7.36,11.278,7.36z"/>
			</g>
			<g>
				<path d="M13.79,6.421h-1c-0.276,0-0.5-0.224-0.5-0.5s0.224-0.5,0.5-0.5h0.5v-0.5c0-0.276,0.224-0.5,0.5-0.5s0.5,0.224,0.5,0.5v1
					C14.29,6.197,14.066,6.421,13.79,6.421z"/>
			</g>
			<g>
				<path d="M13.79,5.291c-0.276,0-0.5-0.224-0.5-0.5v-1c0-0.17,0.087-0.329,0.23-0.421c0.139-0.089,0.532-0.302,1.178-0.357
					c0.266-0.021,0.518,0.18,0.541,0.455c0.024,0.275-0.18,0.518-0.456,0.541c-0.195,0.017-0.363,0.056-0.493,0.1v0.683
					C14.29,5.067,14.066,5.291,13.79,5.291z"/>
			</g>
			<g>
				<path d="M16.21,5.291c-0.276,0-0.5-0.224-0.5-0.5V4.108c-0.13-0.044-0.298-0.083-0.493-0.1
					c-0.275-0.023-0.479-0.266-0.456-0.541c0.023-0.275,0.267-0.476,0.541-0.455c0.646,0.056,1.039,0.269,1.178,0.357
					c0.143,0.092,0.23,0.251,0.23,0.421v1C16.71,5.067,16.487,5.291,16.21,5.291z"/>
			</g>
			<g>
				<path d="M17.21,6.421h-1c-0.276,0-0.5-0.224-0.5-0.5v-1c0-0.276,0.224-0.5,0.5-0.5s0.5,0.224,0.5,0.5v0.5h0.5
					c0.276,0,0.5,0.224,0.5,0.5S17.487,6.421,17.21,6.421z"/>
			</g>
			<g>
				<path d="M18.722,7.36c-0.193,0-0.377-0.112-0.459-0.301c-0.091-0.209-0.173-0.422-0.249-0.639h-0.636
					c-0.276,0-0.5-0.224-0.5-0.5s0.224-0.5,0.5-0.5h1c0.221,0,0.416,0.145,0.479,0.356c0.09,0.303,0.198,0.599,0.322,0.884
					c0.11,0.254-0.006,0.548-0.259,0.658C18.855,7.347,18.788,7.36,18.722,7.36z"/>
			</g>
			<g>
				<path d="M21.308,10.692c-0.107,0-0.215-0.034-0.307-0.105c-0.594-0.462-1.129-0.997-1.59-1.591
					c-0.17-0.218-0.13-0.532,0.088-0.701c0.218-0.171,0.533-0.131,0.701,0.088c0.411,0.527,0.887,1.004,1.415,1.415
					c0.218,0.17,0.257,0.483,0.087,0.701C21.604,10.626,21.457,10.692,21.308,10.692z"/>
			</g>
			<g>
				<path d="M24.079,13.121c-0.276,0-0.5-0.224-0.5-0.5v-0.636c-0.217-0.074-0.43-0.157-0.639-0.247
					c-0.253-0.109-0.37-0.404-0.26-0.657c0.109-0.254,0.403-0.373,0.658-0.261c0.286,0.124,0.581,0.231,0.884,0.321
					c0.212,0.063,0.357,0.258,0.357,0.479v1C24.579,12.897,24.355,13.121,24.079,13.121z"/>
			</g>
			<g>
				<path d="M25.079,14.289h-1c-0.276,0-0.5-0.224-0.5-0.5v-1c0-0.276,0.224-0.5,0.5-0.5s0.5,0.224,0.5,0.5v0.5h0.5
					c0.276,0,0.5,0.224,0.5,0.5S25.355,14.289,25.079,14.289z"/>
			</g>
			<g>
				<path d="M26.489,15.24c-0.257,0-0.476-0.197-0.498-0.458c-0.017-0.194-0.055-0.362-0.099-0.493h-0.683
					c-0.276,0-0.5-0.224-0.5-0.5s0.224-0.5,0.5-0.5h1c0.17,0,0.329,0.087,0.421,0.23c0.089,0.14,0.303,0.534,0.357,1.179
					c0.023,0.275-0.181,0.517-0.456,0.54C26.517,15.239,26.503,15.24,26.489,15.24z"/>
			</g>
			<g>
				<path d="M26.209,16.711h-1c-0.276,0-0.5-0.224-0.5-0.5s0.224-0.5,0.5-0.5h0.683c0.044-0.131,0.083-0.299,0.099-0.493
					c0.023-0.274,0.268-0.471,0.54-0.456c0.275,0.023,0.479,0.265,0.456,0.54c-0.054,0.645-0.268,1.039-0.357,1.179
					C26.538,16.624,26.379,16.711,26.209,16.711z"/>
			</g>
			<g>
				<path d="M24.079,17.711c-0.276,0-0.5-0.224-0.5-0.5v-1c0-0.276,0.224-0.5,0.5-0.5h1c0.276,0,0.5,0.224,0.5,0.5
					s-0.224,0.5-0.5,0.5h-0.5v0.5C24.579,17.487,24.355,17.711,24.079,17.711z"/>
			</g>
			<g>
				<path d="M23.14,19.221c-0.194,0-0.378-0.112-0.459-0.302c-0.109-0.253,0.007-0.548,0.26-0.657
					c0.209-0.09,0.422-0.173,0.639-0.247v-0.636c0-0.276,0.224-0.5,0.5-0.5s0.5,0.224,0.5,0.5v1c0,0.222-0.146,0.416-0.357,0.479
					c-0.303,0.09-0.598,0.197-0.884,0.321C23.273,19.208,23.206,19.221,23.14,19.221z"/>
			</g>
			<g>
				<path d="M19.807,21.809c-0.107,0-0.215-0.034-0.307-0.105c-0.218-0.169-0.257-0.483-0.087-0.701
					c0.462-0.595,0.998-1.13,1.591-1.591c0.218-0.171,0.533-0.13,0.701,0.088c0.17,0.218,0.13,0.532-0.088,0.701
					c-0.527,0.41-1.003,0.887-1.415,1.415C20.103,21.742,19.956,21.809,19.807,21.809z"/>
			</g>
			<g>
				<path d="M18.378,24.579h-1c-0.276,0-0.5-0.224-0.5-0.5s0.224-0.5,0.5-0.5h0.636c0.075-0.217,0.158-0.43,0.249-0.639
					c0.109-0.254,0.403-0.367,0.658-0.26c0.253,0.11,0.37,0.404,0.259,0.658c-0.124,0.285-0.232,0.581-0.322,0.884
					C18.794,24.435,18.599,24.579,18.378,24.579z"/>
			</g>
			<g>
				<path d="M16.21,25.579c-0.276,0-0.5-0.224-0.5-0.5v-1c0-0.276,0.224-0.5,0.5-0.5h1c0.276,0,0.5,0.224,0.5,0.5
					s-0.224,0.5-0.5,0.5h-0.5v0.5C16.71,25.355,16.487,25.579,16.21,25.579z"/>
			</g>
			<g>
				<path d="M15.259,26.989c-0.257,0-0.476-0.196-0.498-0.457c-0.024-0.275,0.18-0.518,0.456-0.541
					c0.195-0.017,0.363-0.056,0.493-0.1v-0.683c0-0.276,0.224-0.5,0.5-0.5s0.5,0.224,0.5,0.5v1c0,0.17-0.087,0.329-0.23,0.421
					c-0.139,0.089-0.532,0.302-1.178,0.357C15.288,26.988,15.273,26.989,15.259,26.989z"/>
			</g>
		</g>
	</g>
</g>
<g id="Dashed_Frame_12">
</g>
<g id="Dashed_Frame_13">
</g>
<g id="Dashed_Frame_14">
</g>
<g id="Dashed_Frame_15">
</g>
<g id="Dashed_Frame_16">
</g>
<g id="Dashed_Frame_17">
</g>
<g id="Dashed_Frame_18">
</g>
<g id="Dashed_Frame_19">
</g>
<g id="Dashed_Frame_20">
</g>
<g id="Dashed_Frame_25">
</g>
<g id="Dashed_Frame_26">
</g>
<g id="Dashed_Frame_27">
</g>
<g id="Dashed_Frame_28">
</g>
<g id="Dashed_Frame_29">
</g>
<g id="Dashed_Frame_30">
</g>
<g id="Dashed_Frame_31">
</g>
<g id="Dashed_Frame_32">
</g>
<g id="Dashed_Frame_33">
</g>
<g id="Dashed_Frame_35">
</g>
</svg>
