<?xml version="1.0" encoding="iso-8859-1"?>
<!-- Generator: Adobe Illustrator 19.2.1, SVG Export Plug-In . SVG Version: 6.00 Build 0)  -->
<svg version="1.1" xmlns="http://www.w3.org/2000/svg" xmlns:xlink="http://www.w3.org/1999/xlink" x="0px" y="0px"
	 viewBox="0 0 30 30" style="enable-background:new 0 0 30 30;" xml:space="preserve">
<g id="Photo_frame">
</g>
<g id="Photo_frame_2">
</g>
<g id="Photo_frame_3">
</g>
<g id="Photo_frame__4">
</g>
<g id="Photo_frame_5">
</g>
<g id="Photo_frame_6">
</g>
<g id="Photo_frame_7">
</g>
<g id="Round_Frame_1">
</g>
<g id="Rectangle_Frame_1">
</g>
<g id="Square_Frame_1">
</g>
<g id="Rectangle_Frame_2">
</g>
<g id="Oval_Frame_1">
</g>
<g id="Round_Frame_2">
</g>
<g id="Rectangle_Frame_3">
</g>
<g id="Rectangle_Frame_4">
</g>
<g id="Rectangle_Frame_5">
</g>
<g id="Square_Frame_2">
</g>
<g id="Rectangle_Frame_6">
</g>
<g id="Rectangle_Frame_7">
</g>
<g id="Oval_Frame_2">
</g>
<g id="Round_Frame_3">
</g>
<g id="Rectangle_Frame_8">
</g>
<g id="Square_Frame_3">
</g>
<g id="Rectangle_Frame_9">
</g>
<g id="Rectangle_Frame_10">
</g>
<g id="Square_Frame_4">
</g>
<g id="Rectangle_Frame_11">
</g>
<g id="Rectangle_Frame_12">
</g>
<g id="Square_Frame_5">
</g>
<g id="Rectangle_Frame_13">
</g>
<g id="Round_Frame">
</g>
<g id="Frame_2">
</g>
<g id="Frame_1">
</g>
<g id="Frame_3">
</g>
<g id="Frame_4">
</g>
<g id="Frame_5">
</g>
<g id="Frame_6">
</g>
<g id="Frame_7">
</g>
<g id="Frame_8">
</g>
<g id="Frame_9">
</g>
<g id="Frame_10">
</g>
<g id="Frame_11">
</g>
<g id="Frame_12">
</g>
<g id="Frame_13">
</g>
<g id="Frame_14">
</g>
<g id="Frame_15">
</g>
<g id="Frame_16">
</g>
<g id="Frame_17">
</g>
<g id="Frame_18">
</g>
<g id="Frame_19">
</g>
<g id="Frame_20">
</g>
<g id="Frame_21">
</g>
<g id="Frame_22">
</g>
<g id="Frame_23">
</g>
<g id="Frame_24">
</g>
<g id="Frame_25">
</g>
<g id="Frame_26">
</g>
<g id="Frame_27">
</g>
<g id="Frame_28">
</g>
<g id="Frame_29">
</g>
<g id="Frame_30">
</g>
<g id="Frame_Hole_1">
</g>
<g id="Frame_Hole_2">
</g>
<g id="Frame_Hole_3">
</g>
<g id="Frame_Hole_4">
</g>
<g id="Frame_31">
</g>
<g id="Frame_32">
</g>
<g id="Frame_33">
</g>
<g id="Frame_34">
</g>
<g id="Frame_35">
</g>
<g id="Dashed_Frame_1">
</g>
<g id="Dashed_Frame_2">
</g>
<g id="Dashed_Frame_3">
</g>
<g id="Dashed_Frame_4">
</g>
<g id="Dashed_Frame_5">
</g>
<g id="Dashed_Frame_6">
</g>
<g id="Dashed_Frame_7">
</g>
<g id="Dashed_Frame_8">
</g>
<g id="Dashed_Frame_9">
</g>
<g id="Dashed_Frame_10">
</g>
<g id="Dashed_Frame_11">
</g>
<g id="Dashed_Frame_12">
</g>
<g id="Dashed_Frame_13">
</g>
<g id="Dashed_Frame_14">
</g>
<g id="Dashed_Frame_15">
</g>
<g id="Dashed_Frame_16">
</g>
<g id="Dashed_Frame_17">
</g>
<g id="Dashed_Frame_18">
</g>
<g id="Dashed_Frame_19">
</g>
<g id="Dashed_Frame_20">
</g>
<g id="Dashed_Frame_25">
</g>
<g id="Dashed_Frame_26">
</g>
<g id="Dashed_Frame_27">
</g>
<g id="Dashed_Frame_28">
</g>
<g id="Dashed_Frame_29">
</g>
<g id="Dashed_Frame_30">
</g>
<g id="Dashed_Frame_31">
	<g>
		<g>
			<path d="M15,25.587c-0.11,0-0.221-0.036-0.313-0.109l-0.199-0.159c-1.71-1.369-4.427-2.253-6.922-2.253
				C7.29,23.065,7,22.842,7,22.565v-0.547C2.608,20.671,0,18.065,0,15s2.608-5.671,7-7.019V7.435c0-0.276,0.224-0.5,0.5-0.5
				c2.562,0,5.278-0.884,6.988-2.253l0.199-0.159c0.184-0.146,0.441-0.146,0.625,0l0.199,0.159c1.71,1.369,4.427,2.253,6.922,2.253
				c0.276,0,0.566,0.224,0.566,0.5v0.547c4.392,1.348,7,3.953,7,7.019s-2.608,5.671-7,7.019v0.547c0,0.276-0.224,0.5-0.5,0.5
				c-2.562,0-5.278,0.884-6.988,2.253l-0.199,0.159C15.221,25.551,15.11,25.587,15,25.587z M8,22.076
				c2.569,0.105,5.233,1.01,7,2.372c1.778-1.372,4.468-2.28,7-2.375v-0.429c0-0.224,0.148-0.42,0.363-0.48
				C26.519,19.98,29,17.676,29,15s-2.481-4.98-6.637-6.164C22.148,8.775,22,8.579,22,8.355V7.924c-2.569-0.105-5.233-1.01-7-2.372
				c-1.778,1.372-4.468,2.28-7,2.375v0.429c0,0.224-0.148,0.42-0.363,0.48C3.481,10.02,1,12.324,1,15s2.481,4.98,6.637,6.164
				C7.852,21.225,8,21.421,8,21.645V22.076z M22.5,22.565h0.01H22.5z"/>
		</g>
		<g>
			<g>
				<path d="M15,22.508c-0.09,0-0.181-0.024-0.26-0.073c-0.275-0.167-0.557-0.324-0.843-0.471c-0.246-0.126-0.344-0.427-0.218-0.673
					s0.427-0.343,0.673-0.218c0.219,0.112,0.435,0.229,0.647,0.353c0.212-0.123,0.428-0.24,0.646-0.353
					c0.245-0.124,0.548-0.03,0.674,0.217c0.126,0.246,0.028,0.547-0.217,0.674c-0.286,0.146-0.567,0.304-0.843,0.471
					C15.181,22.483,15.09,22.508,15,22.508z"/>
			</g>
			<g>
				<path d="M11.551,21.022c-0.043,0-0.088-0.006-0.132-0.018c-0.31-0.085-0.622-0.157-0.938-0.218
					c-0.234-0.046-0.404-0.251-0.404-0.49v-0.171l-0.6-0.172c-0.266-0.075-0.42-0.353-0.344-0.617
					c0.075-0.266,0.354-0.427,0.617-0.344l0.962,0.274c0.215,0.061,0.363,0.257,0.363,0.479v0.143
					c0.203,0.046,0.405,0.096,0.606,0.15c0.267,0.073,0.423,0.348,0.351,0.614C11.973,20.877,11.771,21.022,11.551,21.022z"/>
			</g>
			<g>
				<path d="M7.827,19.439c-0.054,0-0.108-0.009-0.162-0.027c-0.64-0.219-1.239-0.466-1.782-0.734
					c-0.248-0.122-0.35-0.422-0.228-0.67c0.122-0.247,0.425-0.348,0.669-0.227c0.506,0.249,1.065,0.479,1.665,0.686
					c0.262,0.089,0.4,0.374,0.311,0.635C8.229,19.31,8.035,19.439,7.827,19.439z M4.515,17.757c-0.106,0-0.214-0.034-0.305-0.104
					c-0.632-0.487-1.098-0.998-1.386-1.519c-0.134-0.242-0.046-0.546,0.195-0.68c0.243-0.135,0.547-0.047,0.68,0.195
					c0.218,0.396,0.605,0.813,1.12,1.21c0.219,0.169,0.26,0.482,0.092,0.701C4.813,17.689,4.664,17.757,4.515,17.757z M3.255,14.622
					c-0.081,0-0.164-0.02-0.24-0.062c-0.242-0.132-0.331-0.436-0.198-0.679c0.286-0.523,0.75-1.036,1.38-1.524
					c0.219-0.169,0.532-0.129,0.702,0.089c0.169,0.219,0.129,0.532-0.089,0.702c-0.514,0.397-0.899,0.817-1.116,1.214
					C3.603,14.528,3.432,14.622,3.255,14.622z M6.09,12.278c-0.184,0-0.36-0.102-0.448-0.277C5.52,11.753,5.62,11.453,5.867,11.33
					c0.547-0.271,1.146-0.519,1.783-0.736c0.263-0.092,0.546,0.05,0.635,0.311c0.09,0.262-0.05,0.546-0.311,0.635
					c-0.596,0.204-1.155,0.436-1.662,0.688C6.24,12.262,6.165,12.278,6.09,12.278z"/>
			</g>
			<g>
				<path d="M9.617,11.025c-0.218,0-0.418-0.144-0.48-0.363c-0.076-0.265,0.078-0.542,0.344-0.617l0.599-0.171v-0.17
					c0-0.239,0.17-0.445,0.404-0.491c0.315-0.061,0.628-0.134,0.938-0.219c0.27-0.071,0.542,0.085,0.614,0.351
					c0.072,0.267-0.084,0.541-0.351,0.614c-0.2,0.055-0.402,0.105-0.605,0.151v0.141c0,0.224-0.148,0.42-0.363,0.48l-0.962,0.274
					C9.709,11.02,9.662,11.025,9.617,11.025z"/>
			</g>
			<g>
				<path d="M14.125,8.981c-0.182,0-0.356-0.1-0.445-0.272c-0.126-0.246-0.028-0.547,0.218-0.673
					c0.286-0.146,0.566-0.304,0.842-0.471c0.158-0.098,0.361-0.098,0.52,0c0.274,0.167,0.556,0.324,0.842,0.47
					c0.245,0.125,0.344,0.427,0.218,0.673c-0.125,0.247-0.427,0.343-0.673,0.218c-0.218-0.111-0.434-0.229-0.646-0.352
					c-0.212,0.123-0.428,0.24-0.646,0.353C14.28,8.964,14.202,8.981,14.125,8.981z"/>
			</g>
			<g>
				<path d="M20.386,11.026c-0.045,0-0.092-0.006-0.137-0.02l-0.962-0.274c-0.215-0.061-0.363-0.257-0.363-0.479V10.11
					c-0.203-0.045-0.405-0.096-0.607-0.15c-0.267-0.072-0.423-0.348-0.351-0.614c0.072-0.265,0.347-0.422,0.614-0.351
					c0.31,0.085,0.622,0.157,0.938,0.218c0.235,0.046,0.405,0.251,0.405,0.49v0.171l0.6,0.172c0.266,0.075,0.42,0.353,0.344,0.617
					C20.804,10.883,20.604,11.026,20.386,11.026z"/>
			</g>
			<g>
				<path d="M22.188,19.434c-0.208,0-0.402-0.131-0.473-0.338c-0.09-0.262,0.05-0.546,0.311-0.635
					c0.596-0.204,1.155-0.436,1.662-0.688c0.249-0.12,0.547-0.022,0.671,0.226c0.122,0.248,0.021,0.548-0.226,0.671
					c-0.547,0.271-1.146,0.519-1.783,0.736C22.296,19.425,22.241,19.434,22.188,19.434z M25.497,17.747
					c-0.149,0-0.297-0.066-0.396-0.193c-0.169-0.219-0.129-0.532,0.089-0.702c0.514-0.397,0.899-0.817,1.116-1.214
					c0.133-0.242,0.436-0.332,0.679-0.198c0.242,0.132,0.331,0.436,0.198,0.679c-0.286,0.523-0.75,1.036-1.38,1.524
					C25.712,17.713,25.604,17.747,25.497,17.747z M26.738,14.607c-0.176,0-0.347-0.093-0.438-0.258
					c-0.218-0.396-0.605-0.813-1.12-1.21c-0.219-0.169-0.26-0.482-0.092-0.701c0.17-0.22,0.482-0.259,0.701-0.092
					c0.632,0.487,1.098,0.998,1.386,1.519c0.134,0.242,0.046,0.546-0.195,0.68C26.903,14.588,26.82,14.607,26.738,14.607z
					 M23.896,12.271c-0.074,0-0.15-0.017-0.221-0.052c-0.506-0.249-1.065-0.479-1.665-0.686c-0.262-0.089-0.4-0.374-0.311-0.635
					c0.09-0.262,0.372-0.4,0.635-0.311c0.64,0.219,1.239,0.466,1.782,0.734c0.248,0.122,0.35,0.422,0.228,0.67
					C24.258,12.168,24.08,12.271,23.896,12.271z"/>
			</g>
			<g>
				<path d="M18.447,21.023c-0.22,0-0.422-0.146-0.482-0.368c-0.072-0.267,0.084-0.541,0.351-0.614
					c0.2-0.055,0.402-0.105,0.605-0.151v-0.141c0-0.224,0.148-0.42,0.363-0.48l0.962-0.274c0.261-0.08,0.542,0.078,0.617,0.344
					c0.076,0.265-0.078,0.542-0.344,0.617l-0.599,0.171v0.17c0,0.239-0.17,0.445-0.404,0.491c-0.315,0.061-0.628,0.134-0.938,0.219
					C18.535,21.018,18.49,21.023,18.447,21.023z"/>
			</g>
		</g>
	</g>
</g>
<g id="Dashed_Frame_32">
</g>
<g id="Dashed_Frame_33">
</g>
<g id="Dashed_Frame_35">
</g>
</svg>
