<?xml version="1.0" encoding="iso-8859-1"?>
<!-- Generator: Adobe Illustrator 19.2.1, SVG Export Plug-In . SVG Version: 6.00 Build 0)  -->
<svg version="1.1" xmlns="http://www.w3.org/2000/svg" xmlns:xlink="http://www.w3.org/1999/xlink" x="0px" y="0px"
	 viewBox="0 0 30 30" style="enable-background:new 0 0 30 30;" xml:space="preserve">
<g id="Photo_frame">
</g>
<g id="Photo_frame_2">
</g>
<g id="Photo_frame_3">
</g>
<g id="Photo_frame__4">
</g>
<g id="Photo_frame_5">
</g>
<g id="Photo_frame_6">
</g>
<g id="Photo_frame_7">
</g>
<g id="Round_Frame_1">
</g>
<g id="Rectangle_Frame_1">
</g>
<g id="Square_Frame_1">
</g>
<g id="Rectangle_Frame_2">
</g>
<g id="Oval_Frame_1">
</g>
<g id="Round_Frame_2">
</g>
<g id="Rectangle_Frame_3">
</g>
<g id="Rectangle_Frame_4">
</g>
<g id="Rectangle_Frame_5">
</g>
<g id="Square_Frame_2">
</g>
<g id="Rectangle_Frame_6">
</g>
<g id="Rectangle_Frame_7">
</g>
<g id="Oval_Frame_2">
</g>
<g id="Round_Frame_3">
</g>
<g id="Rectangle_Frame_8">
</g>
<g id="Square_Frame_3">
</g>
<g id="Rectangle_Frame_9">
</g>
<g id="Rectangle_Frame_10">
</g>
<g id="Square_Frame_4">
</g>
<g id="Rectangle_Frame_11">
</g>
<g id="Rectangle_Frame_12">
</g>
<g id="Square_Frame_5">
</g>
<g id="Rectangle_Frame_13">
</g>
<g id="Round_Frame">
</g>
<g id="Frame_2">
</g>
<g id="Frame_1">
</g>
<g id="Frame_3">
</g>
<g id="Frame_4">
</g>
<g id="Frame_5">
</g>
<g id="Frame_6">
</g>
<g id="Frame_7">
</g>
<g id="Frame_8">
</g>
<g id="Frame_9">
</g>
<g id="Frame_10">
</g>
<g id="Frame_11">
</g>
<g id="Frame_12">
</g>
<g id="Frame_13">
</g>
<g id="Frame_14">
</g>
<g id="Frame_15">
</g>
<g id="Frame_16">
</g>
<g id="Frame_17">
</g>
<g id="Frame_18">
</g>
<g id="Frame_19">
</g>
<g id="Frame_20">
</g>
<g id="Frame_21">
</g>
<g id="Frame_22">
</g>
<g id="Frame_23">
</g>
<g id="Frame_24">
</g>
<g id="Frame_25">
</g>
<g id="Frame_26">
</g>
<g id="Frame_27">
</g>
<g id="Frame_28">
</g>
<g id="Frame_29">
</g>
<g id="Frame_30">
</g>
<g id="Frame_Hole_1">
</g>
<g id="Frame_Hole_2">
</g>
<g id="Frame_Hole_3">
</g>
<g id="Frame_Hole_4">
</g>
<g id="Frame_31">
</g>
<g id="Frame_32">
</g>
<g id="Frame_33">
</g>
<g id="Frame_34">
</g>
<g id="Frame_35">
</g>
<g id="Dashed_Frame_1">
</g>
<g id="Dashed_Frame_2">
</g>
<g id="Dashed_Frame_3">
</g>
<g id="Dashed_Frame_4">
</g>
<g id="Dashed_Frame_5">
</g>
<g id="Dashed_Frame_6">
</g>
<g id="Dashed_Frame_7">
</g>
<g id="Dashed_Frame_8">
</g>
<g id="Dashed_Frame_9">
</g>
<g id="Dashed_Frame_10">
</g>
<g id="Dashed_Frame_11">
</g>
<g id="Dashed_Frame_12">
</g>
<g id="Dashed_Frame_13">
</g>
<g id="Dashed_Frame_14">
</g>
<g id="Dashed_Frame_15">
</g>
<g id="Dashed_Frame_16">
</g>
<g id="Dashed_Frame_17">
</g>
<g id="Dashed_Frame_18">
</g>
<g id="Dashed_Frame_19">
</g>
<g id="Dashed_Frame_20">
</g>
<g id="Dashed_Frame_25">
</g>
<g id="Dashed_Frame_26">
	<g>
		<g>
			<path d="M15,30.005c-3.176,0-6.353-0.322-9.507-0.968c-0.175-0.036-0.318-0.163-0.375-0.332c-0.056-0.17-0.018-0.356,0.101-0.49
				c0.676-0.762,1.064-1.893,1.064-3.103c0-2.164-1.193-3.924-2.66-3.924c-0.391,0-0.784,0.145-1.168,0.429
				c-0.143,0.104-0.33,0.128-0.492,0.058c-0.163-0.068-0.277-0.219-0.301-0.394c-0.557-4.168-0.557-8.395,0-12.563
				C1.686,8.544,1.8,8.394,1.963,8.325c0.162-0.071,0.35-0.047,0.492,0.058c0.384,0.284,0.778,0.429,1.168,0.429
				c1.467,0,2.66-1.76,2.66-3.924c0-1.21-0.388-2.341-1.064-3.103c-0.119-0.134-0.157-0.32-0.101-0.49
				c0.057-0.169,0.199-0.296,0.375-0.332c6.308-1.291,12.706-1.291,19.014,0c0.175,0.036,0.318,0.163,0.375,0.332
				c0.056,0.17,0.018,0.356-0.101,0.49c-0.676,0.762-1.064,1.893-1.064,3.103c0,2.164,1.193,3.924,2.66,3.924
				c0.391,0,0.784-0.145,1.168-0.429c0.142-0.104,0.329-0.129,0.492-0.058c0.163,0.068,0.277,0.219,0.301,0.394
				c0.557,4.168,0.557,8.395,0,12.563c-0.023,0.175-0.138,0.325-0.301,0.394c-0.163,0.07-0.351,0.047-0.492-0.058
				c-0.384-0.284-0.778-0.429-1.168-0.429c-1.467,0-2.66,1.76-2.66,3.924c0,1.21,0.388,2.341,1.064,3.103
				c0.119,0.134,0.157,0.32,0.101,0.49c-0.057,0.169-0.199,0.296-0.375,0.332C21.353,29.683,18.176,30.005,15,30.005z M6.46,28.207
				c5.671,1.064,11.408,1.064,17.079,0c-0.529-0.871-0.823-1.959-0.823-3.095c0-2.715,1.642-4.924,3.66-4.924
				c0.361,0,0.717,0.074,1.063,0.22c0.422-3.592,0.422-7.225,0-10.816c-0.346,0.146-0.702,0.22-1.063,0.22
				c-2.018,0-3.66-2.209-3.66-4.924c0-1.136,0.294-2.224,0.823-3.095c-5.671-1.064-11.408-1.064-17.079,0
				C6.99,2.664,7.284,3.752,7.284,4.888c0,2.715-1.642,4.924-3.66,4.924c-0.361,0-0.717-0.074-1.063-0.22
				c-0.422,3.592-0.422,7.225,0,10.816c0.346-0.146,0.702-0.22,1.063-0.22c2.018,0,3.66,2.209,3.66,4.924
				C7.284,26.248,6.99,27.336,6.46,28.207z"/>
		</g>
		<g>
			<g>
				<path d="M10.797,27.013c-0.016,0-0.032-0.001-0.048-0.002c-0.504-0.049-1.007-0.107-1.509-0.173
					c-0.135-0.019-0.257-0.091-0.338-0.201c-0.081-0.109-0.113-0.248-0.089-0.382c0.079-0.446,0.119-0.903,0.119-1.357
					c0-0.276,0.224-0.525,0.5-0.525s0.5,0.199,0.5,0.476c0,0.371-0.02,0.722-0.059,1.062c0.323,0.039,0.646,0.074,0.971,0.105
					c0.275,0.026,0.476,0.271,0.45,0.546C11.27,26.819,11.052,27.013,10.797,27.013z"/>
			</g>
			<g>
				<path d="M9.059,22.898c-0.213,0-0.41-0.137-0.477-0.351c-0.24-0.765-0.593-1.452-1.049-2.042
					c-0.169-0.219-0.129-0.532,0.09-0.701c0.218-0.17,0.532-0.13,0.701,0.09c0.528,0.684,0.936,1.476,1.212,2.354
					c0.083,0.263-0.064,0.544-0.327,0.627C9.159,22.892,9.108,22.898,9.059,22.898z"/>
			</g>
			<g>
				<path d="M6.035,19.11c-0.076,0-0.152-0.018-0.225-0.054c-0.404-0.203-0.833-0.343-1.274-0.412
					c-0.229-0.037-0.404-0.227-0.42-0.458c-0.037-0.505-0.065-1.01-0.084-1.516c-0.011-0.275,0.205-0.508,0.48-0.519
					c0.275-0.02,0.508,0.205,0.519,0.481c0.014,0.367,0.033,0.734,0.056,1.101c0.405,0.097,0.798,0.24,1.174,0.43
					c0.247,0.124,0.346,0.425,0.221,0.672C6.394,19.01,6.218,19.11,6.035,19.11z"/>
			</g>
			<g>
				<path d="M4.532,13.847c-0.006,0-0.013,0-0.02,0c-0.276-0.011-0.491-0.243-0.48-0.519c0.019-0.506,0.047-1.011,0.084-1.516
					c0.017-0.231,0.191-0.421,0.42-0.458c0.442-0.07,0.871-0.209,1.273-0.413c0.248-0.124,0.547-0.025,0.672,0.221
					s0.026,0.547-0.22,0.672c-0.375,0.189-0.769,0.334-1.175,0.431c-0.023,0.366-0.042,0.733-0.056,1.101
					C5.021,13.635,4.799,13.847,4.532,13.847z"/>
			</g>
			<g>
				<path d="M7.924,10.304c-0.107,0-0.214-0.034-0.306-0.104C7.4,10.03,7.36,9.716,7.529,9.498c0.457-0.59,0.81-1.276,1.051-2.041
					c0.083-0.263,0.362-0.409,0.627-0.326c0.263,0.083,0.41,0.363,0.327,0.627C9.257,8.635,8.849,9.427,8.32,10.109
					C8.221,10.237,8.073,10.304,7.924,10.304z"/>
			</g>
			<g>
				<path d="M9.433,5.627c-0.276,0-0.5-0.199-0.5-0.476v-0.05c0-0.454-0.04-0.911-0.119-1.358C8.79,3.609,8.822,3.471,8.902,3.36
					c0.081-0.109,0.203-0.182,0.338-0.2c0.502-0.065,1.005-0.123,1.509-0.172c0.268-0.02,0.519,0.175,0.545,0.45
					c0.026,0.275-0.175,0.52-0.45,0.546c-0.324,0.031-0.647,0.065-0.971,0.104c0.039,0.336,0.059,0.675,0.059,1.013
					C9.933,5.378,9.709,5.627,9.433,5.627z"/>
			</g>
			<g>
				<path d="M13.599,3.805c-0.269,0-0.491-0.214-0.5-0.484c-0.008-0.276,0.208-0.507,0.484-0.516c0.947-0.029,1.891-0.029,2.837,0
					c0.276,0.009,0.493,0.239,0.484,0.516c-0.009,0.276-0.238,0.489-0.516,0.484c-0.924-0.029-1.849-0.029-2.774,0
					C13.609,3.805,13.604,3.805,13.599,3.805z"/>
			</g>
			<g>
				<path d="M20.567,5.627c-0.276,0-0.5-0.199-0.5-0.476c0-0.371,0.02-0.722,0.059-1.063c-0.323-0.039-0.647-0.073-0.971-0.104
					c-0.275-0.026-0.476-0.271-0.45-0.546s0.275-0.471,0.545-0.45c0.504,0.049,1.007,0.106,1.509,0.172
					c0.135,0.019,0.257,0.091,0.338,0.2c0.081,0.11,0.113,0.249,0.089,0.383c-0.079,0.447-0.119,0.904-0.119,1.358
					C21.067,5.378,20.844,5.627,20.567,5.627z"/>
			</g>
			<g>
				<path d="M22.072,10.299c-0.149,0-0.297-0.066-0.396-0.194c-0.528-0.684-0.936-1.476-1.212-2.354
					c-0.083-0.263,0.064-0.544,0.327-0.627c0.263-0.085,0.544,0.064,0.627,0.328c0.24,0.765,0.593,1.452,1.049,2.042
					c0.169,0.219,0.129,0.532-0.09,0.701C22.287,10.265,22.179,10.299,22.072,10.299z"/>
			</g>
			<g>
				<path d="M25.468,13.847c-0.267,0-0.489-0.212-0.499-0.481c-0.014-0.367-0.033-0.734-0.056-1.101
					c-0.406-0.097-0.799-0.241-1.175-0.431c-0.246-0.125-0.345-0.426-0.22-0.672c0.124-0.246,0.424-0.343,0.672-0.221
					c0.402,0.204,0.831,0.343,1.273,0.413c0.229,0.037,0.404,0.227,0.42,0.458c0.037,0.505,0.065,1.01,0.084,1.516
					c0.011,0.275-0.205,0.508-0.48,0.519C25.481,13.847,25.475,13.847,25.468,13.847z"/>
			</g>
			<g>
				<path d="M23.965,19.11c-0.183,0-0.359-0.101-0.447-0.274c-0.125-0.247-0.025-0.548,0.221-0.672
					c0.375-0.189,0.769-0.333,1.174-0.43c0.023-0.366,0.042-0.733,0.056-1.101c0.01-0.276,0.24-0.502,0.519-0.481
					c0.276,0.011,0.491,0.243,0.48,0.519c-0.019,0.506-0.047,1.011-0.084,1.516c-0.017,0.231-0.191,0.421-0.42,0.458
					c-0.441,0.069-0.871,0.209-1.274,0.412C24.117,19.093,24.041,19.11,23.965,19.11z"/>
			</g>
			<g>
				<path d="M20.943,22.892c-0.05,0-0.1-0.008-0.15-0.023c-0.263-0.083-0.41-0.363-0.327-0.627c0.276-0.877,0.685-1.669,1.214-2.352
					c0.17-0.22,0.483-0.257,0.702-0.09c0.218,0.169,0.258,0.483,0.089,0.701c-0.457,0.59-0.81,1.276-1.051,2.041
					C21.353,22.755,21.156,22.892,20.943,22.892z"/>
			</g>
			<g>
				<path d="M19.203,27.013c-0.255,0-0.472-0.193-0.497-0.452c-0.026-0.275,0.175-0.52,0.45-0.546
					c0.324-0.031,0.647-0.066,0.971-0.105c-0.039-0.335-0.059-0.674-0.059-1.012c0-0.276,0.224-0.525,0.5-0.525s0.5,0.199,0.5,0.476
					v0.05c0,0.454,0.04,0.911,0.119,1.357c0.024,0.134-0.008,0.272-0.089,0.382c-0.081,0.11-0.203,0.183-0.338,0.201
					c-0.502,0.065-1.005,0.124-1.509,0.173C19.235,27.012,19.219,27.013,19.203,27.013z"/>
			</g>
			<g>
				<path d="M15,27.218c-0.474,0-0.947-0.008-1.421-0.022c-0.276-0.009-0.493-0.239-0.484-0.516
					c0.009-0.275,0.235-0.508,0.516-0.484c0.924,0.029,1.85,0.029,2.774,0c0.285-0.02,0.507,0.209,0.516,0.484
					c0.008,0.276-0.208,0.507-0.484,0.516C15.944,27.21,15.472,27.218,15,27.218z"/>
			</g>
		</g>
	</g>
</g>
<g id="Dashed_Frame_27">
</g>
<g id="Dashed_Frame_28">
</g>
<g id="Dashed_Frame_29">
</g>
<g id="Dashed_Frame_30">
</g>
<g id="Dashed_Frame_31">
</g>
<g id="Dashed_Frame_32">
</g>
<g id="Dashed_Frame_33">
</g>
<g id="Dashed_Frame_35">
</g>
</svg>
