<?xml version="1.0" encoding="iso-8859-1"?>
<!-- Generator: Adobe Illustrator 19.2.1, SVG Export Plug-In . SVG Version: 6.00 Build 0)  -->
<svg version="1.1" xmlns="http://www.w3.org/2000/svg" xmlns:xlink="http://www.w3.org/1999/xlink" x="0px" y="0px"
	 viewBox="0 0 30 30" style="enable-background:new 0 0 30 30;" xml:space="preserve">
<g id="Photo_frame">
</g>
<g id="Photo_frame_2">
</g>
<g id="Photo_frame_3">
</g>
<g id="Photo_frame__4">
</g>
<g id="Photo_frame_5">
</g>
<g id="Photo_frame_6">
</g>
<g id="Photo_frame_7">
</g>
<g id="Round_Frame_1">
</g>
<g id="Rectangle_Frame_1">
</g>
<g id="Square_Frame_1">
</g>
<g id="Rectangle_Frame_2">
</g>
<g id="Oval_Frame_1">
</g>
<g id="Round_Frame_2">
</g>
<g id="Rectangle_Frame_3">
</g>
<g id="Rectangle_Frame_4">
</g>
<g id="Rectangle_Frame_5">
</g>
<g id="Square_Frame_2">
</g>
<g id="Rectangle_Frame_6">
</g>
<g id="Rectangle_Frame_7">
</g>
<g id="Oval_Frame_2">
</g>
<g id="Round_Frame_3">
</g>
<g id="Rectangle_Frame_8">
</g>
<g id="Square_Frame_3">
</g>
<g id="Rectangle_Frame_9">
</g>
<g id="Rectangle_Frame_10">
</g>
<g id="Square_Frame_4">
</g>
<g id="Rectangle_Frame_11">
</g>
<g id="Rectangle_Frame_12">
</g>
<g id="Square_Frame_5">
</g>
<g id="Rectangle_Frame_13">
</g>
<g id="Round_Frame">
</g>
<g id="Frame_2">
</g>
<g id="Frame_1">
</g>
<g id="Frame_3">
</g>
<g id="Frame_4">
</g>
<g id="Frame_5">
</g>
<g id="Frame_6">
</g>
<g id="Frame_7">
</g>
<g id="Frame_8">
</g>
<g id="Frame_9">
</g>
<g id="Frame_10">
</g>
<g id="Frame_11">
</g>
<g id="Frame_12">
</g>
<g id="Frame_13">
</g>
<g id="Frame_14">
</g>
<g id="Frame_15">
</g>
<g id="Frame_16">
</g>
<g id="Frame_17">
</g>
<g id="Frame_18">
</g>
<g id="Frame_19">
</g>
<g id="Frame_20">
</g>
<g id="Frame_21">
</g>
<g id="Frame_22">
</g>
<g id="Frame_23">
</g>
<g id="Frame_24">
</g>
<g id="Frame_25">
</g>
<g id="Frame_26">
</g>
<g id="Frame_27">
</g>
<g id="Frame_28">
</g>
<g id="Frame_29">
</g>
<g id="Frame_30">
</g>
<g id="Frame_Hole_1">
</g>
<g id="Frame_Hole_2">
</g>
<g id="Frame_Hole_3">
</g>
<g id="Frame_Hole_4">
</g>
<g id="Frame_31">
</g>
<g id="Frame_32">
</g>
<g id="Frame_33">
</g>
<g id="Frame_34">
</g>
<g id="Frame_35">
</g>
<g id="Dashed_Frame_1">
</g>
<g id="Dashed_Frame_2">
</g>
<g id="Dashed_Frame_3">
</g>
<g id="Dashed_Frame_4">
</g>
<g id="Dashed_Frame_5">
</g>
<g id="Dashed_Frame_6">
</g>
<g id="Dashed_Frame_7">
	<g>
		<g>
			<path d="M15,27.465c-0.134,0-0.262-0.054-0.355-0.148L8.062,20.66l-7.84-5.244C0.083,15.323,0,15.167,0,15
				s0.083-0.323,0.222-0.416l7.84-5.244l6.583-6.656c0.188-0.189,0.523-0.189,0.711,0l6.583,6.656l7.84,5.244
				C29.917,14.677,30,14.833,30,15s-0.083,0.322-0.222,0.416l-7.85,5.252l-6.573,6.648C15.262,27.411,15.134,27.465,15,27.465z
				 M1.399,15l7.261,4.856c0.027,0.02,0.054,0.041,0.077,0.064L15,26.254l6.253-6.325c0.023-0.023,0.05-0.045,0.077-0.064L28.601,15
				l-7.261-4.856c-0.027-0.02-0.054-0.041-0.077-0.064L15,3.746l-6.263,6.333c-0.023,0.023-0.05,0.045-0.077,0.064L1.399,15z"/>
		</g>
		<g>
			<g>
				<path d="M5.717,16.204c-0.096,0-0.192-0.027-0.277-0.084l-1.054-0.704C4.246,15.323,4.163,15.167,4.163,15
					s0.083-0.322,0.222-0.416l1.054-0.705c0.229-0.153,0.54-0.092,0.694,0.138c0.153,0.229,0.092,0.54-0.138,0.694L5.563,15
					l0.432,0.288c0.23,0.153,0.292,0.464,0.139,0.693C6.036,16.126,5.878,16.204,5.717,16.204z"/>
			</g>
			<g>
				<path d="M7.534,13.579c-0.161,0-0.319-0.078-0.416-0.222c-0.153-0.23-0.092-0.541,0.138-0.694l1.435-0.959
					c0.23-0.152,0.54-0.092,0.694,0.138c0.153,0.23,0.092,0.541-0.138,0.694l-1.435,0.959C7.727,13.552,7.63,13.579,7.534,13.579z
					 M10.384,11.638c-0.127,0-0.254-0.048-0.352-0.145c-0.196-0.194-0.198-0.511-0.004-0.707l1.214-1.227
					c0.193-0.196,0.51-0.198,0.707-0.004c0.196,0.194,0.198,0.511,0.004,0.707l-1.214,1.227
					C10.642,11.588,10.513,11.638,10.384,11.638z M12.811,9.185c-0.127,0-0.254-0.048-0.352-0.145
					c-0.196-0.194-0.198-0.511-0.004-0.707l0.529-0.535c0.194-0.196,0.511-0.198,0.707-0.004s0.198,0.511,0.004,0.707l-0.529,0.535
					C13.068,9.135,12.939,9.185,12.811,9.185z"/>
			</g>
			<g>
				<path d="M15.892,7.871c-0.129,0-0.258-0.05-0.355-0.148L15,7.182l-0.536,0.541c-0.193,0.196-0.51,0.198-0.707,0.004
					c-0.196-0.194-0.198-0.511-0.004-0.707l0.892-0.9c0.188-0.189,0.523-0.189,0.711,0l0.892,0.9
					c0.194,0.196,0.192,0.513-0.004,0.707C16.146,7.823,16.019,7.871,15.892,7.871z"/>
			</g>
			<g>
				<path d="M23.374,14.188c-0.096,0-0.192-0.027-0.278-0.084l-0.625-0.418c-0.229-0.154-0.291-0.465-0.138-0.694
					c0.154-0.229,0.464-0.289,0.694-0.138l0.625,0.418c0.229,0.154,0.291,0.465,0.138,0.694
					C23.693,14.109,23.535,14.188,23.374,14.188z M21.314,12.81c-0.096,0-0.192-0.027-0.278-0.085l-1.434-0.96
					c-0.229-0.153-0.291-0.464-0.137-0.693c0.152-0.229,0.463-0.292,0.693-0.137l1.434,0.96c0.229,0.153,0.291,0.464,0.137,0.693
					C21.634,12.731,21.476,12.81,21.314,12.81z M18.642,10.653c-0.129,0-0.258-0.05-0.355-0.148l-1.213-1.227
					c-0.194-0.196-0.192-0.513,0.004-0.707s0.513-0.192,0.707,0.004l1.213,1.227c0.194,0.196,0.192,0.513-0.004,0.707
					C18.896,10.605,18.769,10.653,18.642,10.653z"/>
			</g>
			<g>
				<path d="M24.283,16.205c-0.161,0-0.319-0.078-0.416-0.222c-0.153-0.229-0.092-0.54,0.138-0.694L24.438,15l-0.433-0.289
					c-0.229-0.154-0.291-0.465-0.138-0.694c0.154-0.229,0.464-0.29,0.694-0.138l1.054,0.705c0.139,0.094,0.222,0.249,0.222,0.416
					s-0.083,0.322-0.222,0.416l-1.054,0.705C24.476,16.178,24.379,16.205,24.283,16.205z"/>
			</g>
			<g>
				<path d="M16.66,22.351c-0.127,0-0.254-0.048-0.352-0.145c-0.196-0.194-0.198-0.511-0.004-0.707l0.529-0.535
					c0.193-0.196,0.51-0.198,0.707-0.004c0.196,0.194,0.198,0.511,0.004,0.707l-0.529,0.535
					C16.918,22.301,16.789,22.351,16.66,22.351z M18.402,20.589c-0.127,0-0.254-0.048-0.352-0.145
					c-0.196-0.194-0.198-0.511-0.004-0.707l1.214-1.227c0.193-0.196,0.51-0.198,0.707-0.004c0.196,0.194,0.198,0.511,0.004,0.707
					l-1.214,1.227C18.66,20.539,18.531,20.589,18.402,20.589z M21.031,18.38c-0.161,0-0.319-0.078-0.416-0.222
					c-0.153-0.23-0.092-0.541,0.138-0.694l1.435-0.959c0.23-0.153,0.54-0.092,0.694,0.138c0.153,0.23,0.092,0.541-0.138,0.694
					l-1.435,0.959C21.224,18.353,21.127,18.38,21.031,18.38z"/>
			</g>
			<g>
				<path d="M15,24.029c-0.134,0-0.262-0.054-0.355-0.148l-0.892-0.9c-0.194-0.196-0.192-0.513,0.004-0.707
					c0.197-0.195,0.514-0.191,0.707,0.004L15,22.818l0.536-0.541c0.194-0.195,0.511-0.199,0.707-0.004
					c0.196,0.194,0.198,0.511,0.004,0.707l-0.892,0.9C15.262,23.976,15.134,24.029,15,24.029z"/>
			</g>
			<g>
				<path d="M12.57,21.573c-0.129,0-0.258-0.05-0.355-0.148l-1.213-1.227c-0.194-0.196-0.192-0.513,0.004-0.707
					c0.197-0.195,0.514-0.191,0.707,0.004l1.213,1.227c0.194,0.196,0.192,0.513-0.004,0.707
					C12.824,21.525,12.697,21.573,12.57,21.573z M10.119,19.148c-0.096,0-0.192-0.027-0.278-0.084l-1.434-0.959
					c-0.229-0.154-0.291-0.465-0.138-0.694c0.154-0.229,0.463-0.289,0.694-0.138l1.434,0.959c0.229,0.154,0.291,0.465,0.138,0.694
					C10.438,19.07,10.28,19.148,10.119,19.148z M7.251,17.23c-0.096,0-0.192-0.027-0.278-0.084l-0.625-0.418
					c-0.229-0.154-0.291-0.465-0.138-0.694c0.154-0.229,0.464-0.29,0.694-0.138l0.625,0.418c0.229,0.154,0.291,0.465,0.138,0.694
					C7.57,17.152,7.412,17.23,7.251,17.23z"/>
			</g>
		</g>
	</g>
</g>
<g id="Dashed_Frame_8">
</g>
<g id="Dashed_Frame_9">
</g>
<g id="Dashed_Frame_10">
</g>
<g id="Dashed_Frame_11">
</g>
<g id="Dashed_Frame_12">
</g>
<g id="Dashed_Frame_13">
</g>
<g id="Dashed_Frame_14">
</g>
<g id="Dashed_Frame_15">
</g>
<g id="Dashed_Frame_16">
</g>
<g id="Dashed_Frame_17">
</g>
<g id="Dashed_Frame_18">
</g>
<g id="Dashed_Frame_19">
</g>
<g id="Dashed_Frame_20">
</g>
<g id="Dashed_Frame_25">
</g>
<g id="Dashed_Frame_26">
</g>
<g id="Dashed_Frame_27">
</g>
<g id="Dashed_Frame_28">
</g>
<g id="Dashed_Frame_29">
</g>
<g id="Dashed_Frame_30">
</g>
<g id="Dashed_Frame_31">
</g>
<g id="Dashed_Frame_32">
</g>
<g id="Dashed_Frame_33">
</g>
<g id="Dashed_Frame_35">
</g>
</svg>
