<?xml version="1.0" encoding="iso-8859-1"?>
<!-- Generator: Adobe Illustrator 19.2.1, SVG Export Plug-In . SVG Version: 6.00 Build 0)  -->
<svg version="1.1" xmlns="http://www.w3.org/2000/svg" xmlns:xlink="http://www.w3.org/1999/xlink" x="0px" y="0px"
	 viewBox="0 0 30 30" style="enable-background:new 0 0 30 30;" xml:space="preserve">
<g id="Photo_frame">
</g>
<g id="Photo_frame_2">
</g>
<g id="Photo_frame_3">
</g>
<g id="Photo_frame__4">
</g>
<g id="Photo_frame_5">
</g>
<g id="Photo_frame_6">
</g>
<g id="Photo_frame_7">
</g>
<g id="Round_Frame_1">
</g>
<g id="Rectangle_Frame_1">
</g>
<g id="Square_Frame_1">
</g>
<g id="Rectangle_Frame_2">
</g>
<g id="Oval_Frame_1">
</g>
<g id="Round_Frame_2">
</g>
<g id="Rectangle_Frame_3">
</g>
<g id="Rectangle_Frame_4">
</g>
<g id="Rectangle_Frame_5">
</g>
<g id="Square_Frame_2">
</g>
<g id="Rectangle_Frame_6">
</g>
<g id="Rectangle_Frame_7">
</g>
<g id="Oval_Frame_2">
</g>
<g id="Round_Frame_3">
</g>
<g id="Rectangle_Frame_8">
</g>
<g id="Square_Frame_3">
</g>
<g id="Rectangle_Frame_9">
</g>
<g id="Rectangle_Frame_10">
</g>
<g id="Square_Frame_4">
</g>
<g id="Rectangle_Frame_11">
</g>
<g id="Rectangle_Frame_12">
</g>
<g id="Square_Frame_5">
</g>
<g id="Rectangle_Frame_13">
</g>
<g id="Round_Frame">
</g>
<g id="Frame_2">
</g>
<g id="Frame_1">
</g>
<g id="Frame_3">
</g>
<g id="Frame_4">
</g>
<g id="Frame_5">
</g>
<g id="Frame_6">
</g>
<g id="Frame_7">
</g>
<g id="Frame_8">
</g>
<g id="Frame_9">
</g>
<g id="Frame_10">
</g>
<g id="Frame_11">
</g>
<g id="Frame_12">
</g>
<g id="Frame_13">
</g>
<g id="Frame_14">
</g>
<g id="Frame_15">
</g>
<g id="Frame_16">
</g>
<g id="Frame_17">
</g>
<g id="Frame_18">
</g>
<g id="Frame_19">
</g>
<g id="Frame_20">
</g>
<g id="Frame_21">
</g>
<g id="Frame_22">
</g>
<g id="Frame_23">
</g>
<g id="Frame_24">
</g>
<g id="Frame_25">
</g>
<g id="Frame_26">
</g>
<g id="Frame_27">
</g>
<g id="Frame_28">
</g>
<g id="Frame_29">
</g>
<g id="Frame_30">
</g>
<g id="Frame_Hole_1">
</g>
<g id="Frame_Hole_2">
</g>
<g id="Frame_Hole_3">
</g>
<g id="Frame_Hole_4">
</g>
<g id="Frame_31">
</g>
<g id="Frame_32">
</g>
<g id="Frame_33">
</g>
<g id="Frame_34">
</g>
<g id="Frame_35">
</g>
<g id="Dashed_Frame_1">
</g>
<g id="Dashed_Frame_2">
</g>
<g id="Dashed_Frame_3">
</g>
<g id="Dashed_Frame_4">
</g>
<g id="Dashed_Frame_5">
</g>
<g id="Dashed_Frame_6">
</g>
<g id="Dashed_Frame_7">
</g>
<g id="Dashed_Frame_8">
</g>
<g id="Dashed_Frame_9">
</g>
<g id="Dashed_Frame_10">
</g>
<g id="Dashed_Frame_11">
</g>
<g id="Dashed_Frame_12">
</g>
<g id="Dashed_Frame_13">
</g>
<g id="Dashed_Frame_14">
</g>
<g id="Dashed_Frame_15">
</g>
<g id="Dashed_Frame_16">
</g>
<g id="Dashed_Frame_17">
</g>
<g id="Dashed_Frame_18">
</g>
<g id="Dashed_Frame_19">
</g>
<g id="Dashed_Frame_20">
</g>
<g id="Dashed_Frame_25">
</g>
<g id="Dashed_Frame_26">
</g>
<g id="Dashed_Frame_27">
</g>
<g id="Dashed_Frame_28">
</g>
<g id="Dashed_Frame_29">
	<g>
		<path d="M23.089,23H6.911c-2.164,0-4.14-1.251-5.033-3.188l-1.367-2.946c-0.73-1.582-0.668-3.439,0.166-4.971l1.137-2.047
			C2.771,8.093,4.636,7,6.678,7h16.644c2.041,0,3.906,1.095,4.867,2.856l1.134,2.063c0.835,1.532,0.897,3.39,0.167,4.971
			l-1.369,2.929C27.229,21.75,25.254,23,23.089,23z M6.678,8c-1.676,0-3.205,0.894-3.989,2.331l-1.137,2.047
			c-0.682,1.251-0.732,2.772-0.134,4.067l1.367,2.946c0,0.001,0,0.001,0,0.001C3.517,20.977,5.136,22,6.911,22h16.178
			c1.776,0,3.396-1.021,4.125-2.604l1.369-2.929c0.598-1.293,0.546-2.814-0.137-4.068l-1.134-2.063C26.525,8.895,24.997,8,23.322,8
			H6.678z"/>
	</g>
	<g>
		<path d="M19.742,20h-2c-0.276,0-0.5-0.224-0.5-0.5s0.224-0.5,0.5-0.5h2c0.276,0,0.5,0.224,0.5,0.5S20.019,20,19.742,20z
			 M15.742,20h-2c-0.276,0-0.5-0.224-0.5-0.5s0.224-0.5,0.5-0.5h2c0.276,0,0.5,0.224,0.5,0.5S16.019,20,15.742,20z M11.742,20h-2
			c-0.276,0-0.5-0.224-0.5-0.5s0.224-0.5,0.5-0.5h2c0.276,0,0.5,0.224,0.5,0.5S12.019,20,11.742,20z M21.742,19.991
			c-0.262,0-0.482-0.204-0.499-0.47c-0.017-0.276,0.193-0.513,0.469-0.529c0.623-0.037,1.22-0.192,1.726-0.449
			c0.245-0.125,0.546-0.025,0.672,0.221c0.125,0.246,0.026,0.547-0.221,0.672c-0.627,0.317-1.359,0.509-2.117,0.555
			C21.763,19.991,21.752,19.991,21.742,19.991z M7.746,19.935c-0.026,0-0.052-0.002-0.079-0.006
			c-0.765-0.122-1.476-0.395-2.056-0.79c-0.229-0.155-0.288-0.466-0.132-0.694c0.156-0.228,0.467-0.287,0.695-0.132
			c0.459,0.313,1.03,0.529,1.651,0.628c0.272,0.044,0.458,0.3,0.415,0.572C8.2,19.759,7.988,19.935,7.746,19.935z M4.953,18.262
			c-0.168,0-0.333-0.085-0.427-0.238l-1.045-1.705c-0.145-0.235-0.07-0.544,0.165-0.688c0.235-0.147,0.543-0.071,0.688,0.164
			L5.379,17.5c0.145,0.235,0.07,0.544-0.165,0.688C5.132,18.238,5.042,18.262,4.953,18.262z M25.114,18.154
			c-0.09,0-0.18-0.024-0.262-0.074c-0.235-0.146-0.308-0.454-0.163-0.688l1.017-1.646c0.143-0.232,0.463-0.334,0.698-0.193
			c0.235,0.14,0.33,0.415,0.192,0.652c-0.003,0.006-0.04,0.066-0.044,0.073l-1.013,1.64C25.446,18.07,25.282,18.154,25.114,18.154z
			 M3.576,14.644c-0.042,0-0.084-0.005-0.126-0.017c-0.268-0.069-0.428-0.343-0.358-0.609c0.094-0.362,0.26-0.708,0.491-1.029
			l0.616-0.84c0.164-0.224,0.476-0.271,0.699-0.107c0.223,0.164,0.271,0.477,0.107,0.699l-0.614,0.837
			c-0.157,0.217-0.269,0.451-0.332,0.692C4.001,14.494,3.798,14.644,3.576,14.644z M26.385,14.524c-0.211,0-0.407-0.134-0.476-0.346
			c-0.066-0.204-0.168-0.403-0.304-0.591l-0.691-0.951c-0.163-0.224-0.113-0.536,0.11-0.698c0.224-0.163,0.536-0.112,0.698,0.11
			l0.692,0.953c0.197,0.273,0.346,0.564,0.445,0.868c0.085,0.263-0.059,0.545-0.321,0.63C26.488,14.517,26.437,14.524,26.385,14.524
			z M6.03,11.574c-0.177,0-0.349-0.094-0.439-0.261c-0.132-0.242-0.043-0.546,0.199-0.678c0.617-0.337,1.344-0.55,2.104-0.614
			c0.267-0.019,0.518,0.18,0.541,0.455c0.023,0.275-0.18,0.518-0.456,0.541c-0.623,0.054-1.214,0.225-1.71,0.495
			C6.193,11.555,6.111,11.574,6.03,11.574z M23.856,11.517c-0.076,0-0.154-0.018-0.227-0.055c-0.506-0.257-1.102-0.414-1.725-0.452
			c-0.275-0.017-0.485-0.254-0.468-0.53c0.017-0.275,0.266-0.486,0.53-0.468c0.758,0.047,1.49,0.24,2.117,0.56
			c0.246,0.125,0.344,0.426,0.219,0.672C24.214,11.417,24.039,11.517,23.856,11.517z M19.936,11h-2c-0.276,0-0.5-0.224-0.5-0.5
			s0.224-0.5,0.5-0.5h2c0.276,0,0.5,0.224,0.5,0.5S20.212,11,19.936,11z M15.936,11h-2c-0.276,0-0.5-0.224-0.5-0.5
			s0.224-0.5,0.5-0.5h2c0.276,0,0.5,0.224,0.5,0.5S16.212,11,15.936,11z M11.936,11h-2c-0.276,0-0.5-0.224-0.5-0.5
			s0.224-0.5,0.5-0.5h2c0.276,0,0.5,0.224,0.5,0.5S12.212,11,11.936,11z"/>
	</g>
</g>
<g id="Dashed_Frame_30">
</g>
<g id="Dashed_Frame_31">
</g>
<g id="Dashed_Frame_32">
</g>
<g id="Dashed_Frame_33">
</g>
<g id="Dashed_Frame_35">
</g>
</svg>
