<?xml version="1.0" encoding="iso-8859-1"?>
<!-- Generator: Adobe Illustrator 19.2.1, SVG Export Plug-In . SVG Version: 6.00 Build 0)  -->
<svg version="1.1" xmlns="http://www.w3.org/2000/svg" xmlns:xlink="http://www.w3.org/1999/xlink" x="0px" y="0px"
	 viewBox="0 0 30 30" style="enable-background:new 0 0 30 30;" xml:space="preserve">
<g id="Photo_frame">
</g>
<g id="Photo_frame_2">
</g>
<g id="Photo_frame_3">
</g>
<g id="Photo_frame__4">
</g>
<g id="Photo_frame_5">
</g>
<g id="Photo_frame_6">
</g>
<g id="Photo_frame_7">
</g>
<g id="Round_Frame_1">
</g>
<g id="Rectangle_Frame_1">
</g>
<g id="Square_Frame_1">
</g>
<g id="Rectangle_Frame_2">
</g>
<g id="Oval_Frame_1">
</g>
<g id="Round_Frame_2">
</g>
<g id="Rectangle_Frame_3">
</g>
<g id="Rectangle_Frame_4">
</g>
<g id="Rectangle_Frame_5">
</g>
<g id="Square_Frame_2">
</g>
<g id="Rectangle_Frame_6">
</g>
<g id="Rectangle_Frame_7">
</g>
<g id="Oval_Frame_2">
</g>
<g id="Round_Frame_3">
</g>
<g id="Rectangle_Frame_8">
</g>
<g id="Square_Frame_3">
</g>
<g id="Rectangle_Frame_9">
</g>
<g id="Rectangle_Frame_10">
</g>
<g id="Square_Frame_4">
</g>
<g id="Rectangle_Frame_11">
</g>
<g id="Rectangle_Frame_12">
</g>
<g id="Square_Frame_5">
</g>
<g id="Rectangle_Frame_13">
</g>
<g id="Round_Frame">
</g>
<g id="Frame_2">
</g>
<g id="Frame_1">
</g>
<g id="Frame_3">
</g>
<g id="Frame_4">
</g>
<g id="Frame_5">
</g>
<g id="Frame_6">
</g>
<g id="Frame_7">
</g>
<g id="Frame_8">
</g>
<g id="Frame_9">
</g>
<g id="Frame_10">
</g>
<g id="Frame_11">
</g>
<g id="Frame_12">
</g>
<g id="Frame_13">
</g>
<g id="Frame_14">
</g>
<g id="Frame_15">
</g>
<g id="Frame_16">
</g>
<g id="Frame_17">
</g>
<g id="Frame_18">
</g>
<g id="Frame_19">
</g>
<g id="Frame_20">
</g>
<g id="Frame_21">
</g>
<g id="Frame_22">
</g>
<g id="Frame_23">
</g>
<g id="Frame_24">
</g>
<g id="Frame_25">
</g>
<g id="Frame_26">
</g>
<g id="Frame_27">
</g>
<g id="Frame_28">
</g>
<g id="Frame_29">
</g>
<g id="Frame_30">
</g>
<g id="Frame_Hole_1">
</g>
<g id="Frame_Hole_2">
</g>
<g id="Frame_Hole_3">
</g>
<g id="Frame_Hole_4">
</g>
<g id="Frame_31">
</g>
<g id="Frame_32">
</g>
<g id="Frame_33">
</g>
<g id="Frame_34">
</g>
<g id="Frame_35">
</g>
<g id="Dashed_Frame_1">
	<g>
		<path d="M15,30C8.383,30,3,23.271,3,15S8.383,0,15,0s12,6.729,12,15S21.617,30,15,30z M15,1C8.935,1,4,7.28,4,15s4.935,14,11,14
			s11-6.28,11-14S21.065,1,15,1z"/>
	</g>
	<g>
		<path d="M15.067,27H15c-0.36,0-0.722-0.028-1.075-0.084c-0.273-0.043-0.459-0.3-0.416-0.572c0.042-0.272,0.299-0.457,0.572-0.416
			C14.383,25.976,14.692,26,15,26c0.276,0,0.534,0.224,0.534,0.5S15.343,27,15.067,27z M17.033,26.666
			c-0.21,0-0.406-0.134-0.475-0.344c-0.086-0.263,0.057-0.545,0.319-0.631c0.285-0.094,0.573-0.214,0.854-0.355
			c0.246-0.125,0.547-0.025,0.671,0.222c0.125,0.246,0.025,0.547-0.221,0.671c-0.326,0.165-0.661,0.304-0.993,0.412
			C17.137,26.658,17.084,26.666,17.033,26.666z M12.103,26.313c-0.074,0-0.149-0.017-0.22-0.051
			c-0.313-0.154-0.625-0.334-0.925-0.536c-0.229-0.154-0.29-0.465-0.136-0.694c0.154-0.229,0.465-0.291,0.694-0.136
			c0.263,0.177,0.535,0.334,0.808,0.468c0.248,0.122,0.35,0.421,0.229,0.669C12.465,26.21,12.288,26.313,12.103,26.313z
			 M19.609,25.159c-0.139,0-0.277-0.058-0.376-0.171c-0.182-0.207-0.161-0.523,0.046-0.705c0.234-0.205,0.46-0.427,0.676-0.663
			c0.187-0.203,0.503-0.218,0.707-0.031s0.217,0.503,0.031,0.707c-0.242,0.264-0.494,0.511-0.754,0.739
			C19.843,25.118,19.726,25.159,19.609,25.159z M9.722,24.508c-0.134,0-0.268-0.054-0.366-0.159
			c-0.235-0.254-0.46-0.521-0.676-0.805c-0.167-0.22-0.125-0.533,0.095-0.7c0.22-0.169,0.533-0.125,0.701,0.095
			c0.195,0.256,0.399,0.5,0.612,0.729c0.188,0.203,0.176,0.52-0.026,0.707C9.966,24.464,9.844,24.508,9.722,24.508z M21.526,22.858
			c-0.09,0-0.181-0.024-0.263-0.075c-0.235-0.145-0.307-0.453-0.162-0.688c0.166-0.269,0.323-0.548,0.469-0.837
			c0.125-0.245,0.424-0.343,0.672-0.221c0.246,0.125,0.345,0.426,0.22,0.672c-0.16,0.314-0.33,0.619-0.511,0.911
			C21.857,22.774,21.693,22.858,21.526,22.858z M8.015,22.045c-0.182,0-0.357-0.099-0.445-0.271
			c-0.156-0.305-0.302-0.619-0.438-0.943c-0.106-0.255,0.014-0.548,0.268-0.654c0.257-0.106,0.548,0.014,0.655,0.268
			c0.125,0.301,0.261,0.592,0.405,0.873c0.126,0.246,0.029,0.547-0.216,0.673C8.169,22.027,8.091,22.045,8.015,22.045z
			 M22.779,20.134c-0.051,0-0.104-0.008-0.155-0.024c-0.263-0.086-0.406-0.368-0.32-0.631c0.099-0.303,0.188-0.612,0.267-0.929
			c0.066-0.269,0.336-0.431,0.606-0.364c0.268,0.067,0.431,0.339,0.364,0.606c-0.085,0.34-0.18,0.673-0.287,0.997
			C23.186,20,22.99,20.134,22.779,20.134z M6.96,19.236c-0.223,0-0.426-0.15-0.484-0.377c-0.084-0.331-0.158-0.669-0.221-1.013
			c-0.05-0.272,0.13-0.532,0.402-0.582c0.273-0.044,0.532,0.131,0.581,0.402c0.059,0.322,0.127,0.637,0.206,0.946
			c0.068,0.268-0.093,0.539-0.361,0.607C7.042,19.231,7.001,19.236,6.96,19.236z M23.408,17.199c-0.018,0-0.036-0.001-0.055-0.003
			c-0.274-0.03-0.473-0.276-0.443-0.551c0.035-0.318,0.06-0.641,0.074-0.967c0.013-0.276,0.244-0.516,0.522-0.477
			c0.276,0.012,0.489,0.245,0.477,0.521c-0.016,0.348-0.042,0.691-0.079,1.029C23.877,17.01,23.66,17.199,23.408,17.199z
			 M6.519,16.269c-0.265,0-0.486-0.208-0.499-0.476C6.007,15.531,6,15.268,6,15.001l0.002-0.244c0.005-0.276,0.228-0.505,0.509-0.49
			c0.276,0.005,0.496,0.233,0.491,0.51L7,15c0,0.25,0.007,0.498,0.019,0.744c0.013,0.276-0.2,0.511-0.476,0.523
			C6.535,16.269,6.527,16.269,6.519,16.269z M23.446,14.198c-0.257,0-0.476-0.197-0.498-0.459c-0.027-0.323-0.065-0.645-0.113-0.961
			c-0.041-0.272,0.147-0.527,0.42-0.568c0.278-0.042,0.528,0.147,0.569,0.42c0.051,0.338,0.091,0.681,0.12,1.027
			c0.023,0.274-0.182,0.517-0.457,0.539C23.474,14.197,23.459,14.198,23.446,14.198z M6.661,13.271
			c-0.024,0-0.048-0.002-0.073-0.005c-0.273-0.04-0.462-0.294-0.422-0.567c0.05-0.345,0.112-0.686,0.184-1.019
			c0.058-0.27,0.323-0.438,0.594-0.384c0.27,0.059,0.442,0.324,0.384,0.595c-0.067,0.312-0.125,0.629-0.172,0.952
			C7.119,13.092,6.905,13.271,6.661,13.271z M22.897,11.249c-0.216,0-0.416-0.142-0.48-0.359c-0.091-0.312-0.194-0.617-0.306-0.915
			c-0.098-0.258,0.033-0.546,0.292-0.644c0.258-0.101,0.547,0.032,0.644,0.292c0.121,0.319,0.231,0.648,0.33,0.985
			c0.078,0.265-0.074,0.543-0.339,0.62C22.991,11.242,22.944,11.249,22.897,11.249z M7.397,10.361c-0.058,0-0.117-0.01-0.174-0.031
			c-0.259-0.096-0.391-0.384-0.295-0.643c0.122-0.33,0.255-0.65,0.399-0.961c0.116-0.251,0.413-0.36,0.664-0.244
			c0.25,0.116,0.36,0.413,0.244,0.664C8.102,9.434,7.979,9.73,7.866,10.035C7.791,10.236,7.6,10.361,7.397,10.361z M21.731,8.484
			c-0.174,0-0.343-0.091-0.435-0.253c-0.16-0.28-0.33-0.552-0.51-0.81c-0.157-0.228-0.101-0.539,0.126-0.696
			c0.226-0.156,0.538-0.101,0.696,0.126c0.196,0.283,0.382,0.578,0.557,0.886c0.137,0.239,0.053,0.545-0.187,0.682
			C21.9,8.463,21.815,8.484,21.731,8.484z M8.764,7.692c-0.097,0-0.196-0.028-0.282-0.088C8.254,7.448,8.196,7.138,8.352,6.91
			c0.2-0.292,0.411-0.571,0.631-0.837c0.176-0.212,0.492-0.24,0.704-0.065C9.9,6.184,9.929,6.499,9.753,6.712
			C9.552,6.954,9.36,7.208,9.177,7.475C9.08,7.616,8.923,7.692,8.764,7.692z M19.904,6.112c-0.125,0-0.25-0.046-0.346-0.14
			c-0.23-0.221-0.469-0.426-0.717-0.613c-0.22-0.167-0.263-0.48-0.096-0.7c0.166-0.221,0.479-0.265,0.701-0.097
			c0.278,0.211,0.546,0.441,0.805,0.689c0.199,0.19,0.206,0.508,0.015,0.707C20.167,6.061,20.035,6.112,19.904,6.112z M10.804,5.502
			c-0.15,0-0.298-0.067-0.396-0.195c-0.168-0.219-0.128-0.532,0.091-0.701c0.286-0.22,0.583-0.42,0.882-0.596
			c0.237-0.138,0.544-0.059,0.684,0.179c0.139,0.238,0.059,0.545-0.179,0.685c-0.267,0.156-0.526,0.332-0.777,0.525
			C11.018,5.468,10.911,5.502,10.804,5.502z M17.41,4.471c-0.062,0-0.125-0.012-0.187-0.036c-0.286-0.115-0.583-0.209-0.882-0.279
			c-0.269-0.063-0.436-0.332-0.373-0.601c0.063-0.27,0.333-0.441,0.601-0.372c0.349,0.081,0.694,0.19,1.026,0.324
			c0.256,0.103,0.38,0.395,0.277,0.65C17.795,4.353,17.607,4.471,17.41,4.471z M13.479,4.185c-0.225,0-0.429-0.153-0.485-0.381
			c-0.065-0.269,0.099-0.539,0.367-0.604c0.353-0.087,0.711-0.146,1.065-0.174c0.276-0.021,0.517,0.183,0.539,0.457
			c0.022,0.275-0.183,0.517-0.458,0.539C14.207,4.046,13.9,4.097,13.598,4.17C13.559,4.18,13.519,4.185,13.479,4.185z"/>
	</g>
</g>
<g id="Dashed_Frame_2">
</g>
<g id="Dashed_Frame_3">
</g>
<g id="Dashed_Frame_4">
</g>
<g id="Dashed_Frame_5">
</g>
<g id="Dashed_Frame_6">
</g>
<g id="Dashed_Frame_7">
</g>
<g id="Dashed_Frame_8">
</g>
<g id="Dashed_Frame_9">
</g>
<g id="Dashed_Frame_10">
</g>
<g id="Dashed_Frame_11">
</g>
<g id="Dashed_Frame_12">
</g>
<g id="Dashed_Frame_13">
</g>
<g id="Dashed_Frame_14">
</g>
<g id="Dashed_Frame_15">
</g>
<g id="Dashed_Frame_16">
</g>
<g id="Dashed_Frame_17">
</g>
<g id="Dashed_Frame_18">
</g>
<g id="Dashed_Frame_19">
</g>
<g id="Dashed_Frame_20">
</g>
<g id="Dashed_Frame_25">
</g>
<g id="Dashed_Frame_26">
</g>
<g id="Dashed_Frame_27">
</g>
<g id="Dashed_Frame_28">
</g>
<g id="Dashed_Frame_29">
</g>
<g id="Dashed_Frame_30">
</g>
<g id="Dashed_Frame_31">
</g>
<g id="Dashed_Frame_32">
</g>
<g id="Dashed_Frame_33">
</g>
<g id="Dashed_Frame_35">
</g>
</svg>
