<?xml version="1.0" encoding="iso-8859-1"?>
<!-- Generator: Adobe Illustrator 19.2.1, SVG Export Plug-In . SVG Version: 6.00 Build 0)  -->
<svg version="1.1" xmlns="http://www.w3.org/2000/svg" xmlns:xlink="http://www.w3.org/1999/xlink" x="0px" y="0px"
	 viewBox="0 0 30 30" style="enable-background:new 0 0 30 30;" xml:space="preserve">
<g id="Dashed_Frame_21">
	<g>
		<g>
			<g>
				<path d="M5.096,20.409c-0.118,0-0.235-0.041-0.33-0.125l-0.374-0.371c-0.276,0-0.391-0.224-0.391-0.5v-0.9
					c0-0.21-0.028-0.429,0.168-0.52c0.25-0.117,0.589-0.035,0.706,0.215C4.904,18.274,5,18.401,5,18.475v0.506
					c0,0.017-0.054,0.035-0.03,0.058l0.51,0.496c0.208,0.182,0.2,0.498,0.018,0.705C5.399,20.352,5.234,20.409,5.096,20.409z"/>
			</g>
			<g>
				<path d="M3.227,16.686c-0.194,0-0.378-0.113-0.459-0.303c-0.162-0.378-0.244-0.779-0.244-1.193c0-0.505,0.127-1.006,0.367-1.448
					l0.085-0.156c0.132-0.242,0.436-0.332,0.679-0.198c0.242,0.132,0.331,0.437,0.198,0.679l-0.084,0.154
					c-0.16,0.294-0.245,0.63-0.245,0.969c0,0.278,0.055,0.546,0.163,0.798c0.109,0.254-0.008,0.548-0.262,0.656
					C3.36,16.673,3.293,16.686,3.227,16.686z"/>
			</g>
			<g>
				<path d="M4.5,12.087c-0.276,0-0.5-0.224-0.5-0.5v-1c0-0.195,0.003-0.364,0.166-0.446l0.578-0.555l0.757,0.737L5,10.834v0.752
					C5,11.863,4.776,12.087,4.5,12.087z"/>
			</g>
			<g>
				<path d="M23.539,10.008c-0.012,0-0.023,0-0.036-0.001C23.439,10.002,23.377,10,23.322,10h-1.621c-0.276,0-0.5-0.224-0.5-0.5
					s0.224-0.5,0.5-0.5h1.621c0.077,0,0.162,0.003,0.251,0.01c0.275,0.019,0.483,0.258,0.463,0.534
					C24.019,9.807,23.799,10.008,23.539,10.008z M19.863,10h-1.837c-0.276,0-0.5-0.224-0.5-0.5S17.75,9,18.026,9h1.837
					c0.276,0,0.5,0.224,0.5,0.5S20.14,10,19.863,10z M16.188,10h-1.837c-0.276,0-0.5-0.224-0.5-0.5s0.224-0.5,0.5-0.5h1.837
					c0.276,0,0.5,0.224,0.5,0.5S16.464,10,16.188,10z M12.513,10h-1.837c-0.276,0-0.5-0.224-0.5-0.5s0.224-0.5,0.5-0.5h1.837
					c0.276,0,0.5,0.224,0.5,0.5S12.789,10,12.513,10z M8.837,10H7c-0.276,0-0.5-0.224-0.5-0.5S6.724,9,7,9h1.837
					c0.276,0,0.5,0.224,0.5,0.5S9.114,10,8.837,10z"/>
			</g>
			<g>
				<path d="M25.5,12.087c-0.276,0-0.5-0.224-0.5-0.5v-0.752l-0.458-0.497c-0.207-0.181-0.184-0.505-0.004-0.712
					c0.179-0.208,0.511-0.241,0.72-0.061c0.001,0,0.036,0.019,0.037,0.02l0.565,0.585C26.002,10.258,26,10.412,26,10.587v1
					C26,11.863,25.776,12.087,25.5,12.087z"/>
			</g>
			<g>
				<path d="M26.774,16.682c-0.066,0-0.133-0.013-0.197-0.04c-0.254-0.109-0.372-0.403-0.263-0.657
					c0.107-0.251,0.162-0.519,0.162-0.795c0-0.339-0.085-0.674-0.245-0.968l-0.086-0.159c-0.132-0.243-0.042-0.546,0.201-0.678
					c0.243-0.131,0.546-0.042,0.678,0.201l0.086,0.158c0.24,0.44,0.367,0.94,0.367,1.446c0,0.412-0.082,0.813-0.243,1.189
					C27.153,16.568,26.968,16.682,26.774,16.682z"/>
			</g>
			<g>
				<path d="M24.904,20.409c-0.139,0-0.276-0.058-0.375-0.17c-0.182-0.207-0.162-0.523,0.045-0.705l0.455-0.496
					C25.054,19.016,25,18.997,25,18.98v-0.506c0-0.073,0.125-0.145,0.155-0.211c0.117-0.25,0.372-0.386,0.623-0.271
					C26.011,18.102,26,18.343,26,18.578v0.835C26,19.689,25.994,20,25.717,20h-0.061l-0.422,0.328
					C25.14,20.412,25.022,20.409,24.904,20.409z"/>
			</g>
			<g>
				<path d="M23.27,21.08c-0.127,0-0.229-0.042-0.298-0.08h-1.52c-0.276,0-0.5-0.224-0.5-0.5s0.224-0.5,0.5-0.5h1.636
					c0.087,0,0.24,0.053,0.332,0.103c0.203,0.064,0.35,0.254,0.35,0.478C23.77,20.856,23.546,21.08,23.27,21.08z M19.614,21h-1.837
					c-0.276,0-0.5-0.224-0.5-0.5s0.224-0.5,0.5-0.5h1.837c0.276,0,0.5,0.224,0.5,0.5S19.891,21,19.614,21z M15.939,21h-1.838
					c-0.276,0-0.5-0.224-0.5-0.5s0.224-0.5,0.5-0.5h1.838c0.276,0,0.5,0.224,0.5,0.5S16.215,21,15.939,21z M12.264,21h-1.838
					c-0.276,0-0.5-0.224-0.5-0.5s0.224-0.5,0.5-0.5h1.838c0.276,0,0.5,0.224,0.5,0.5S12.54,21,12.264,21z M8.588,21l-1.847-0.002
					c-0.276-0.005-0.496-0.232-0.491-0.508C6.255,20.217,6.479,20,6.75,20c0.003,0,0.006,0,0.009,0l1.829,0.001
					c0.276,0,0.5,0.223,0.5,0.5S8.865,21,8.588,21z"/>
			</g>
		</g>
		<g>
			<path d="M23.09,24H6.91c-1.12,0-2.283-0.654-3.549-2H1.5C1.224,22,1,21.776,1,21.5v-2.534C0.387,18.228,0,16.714,0,15
				c0-1.713,0.387-3.227,1-3.966V8.5C1,8.224,1.224,8,1.5,8h1.64C4.393,6.655,5.553,6,6.68,6h16.64c1.127,0,2.288,0.655,3.541,2
				h1.64C28.776,8,29,8.224,29,8.5v2.534c0.613,0.739,1,2.253,1,3.966c0,1.714-0.387,3.228-1,3.966V21.5c0,0.276-0.224,0.5-0.5,0.5
				h-1.861C25.373,23.346,24.21,24,23.09,24z M2,21h1.58c0.141,0,0.275,0.06,0.37,0.163C5.075,22.399,6.043,23,6.91,23h16.18
				c0.867,0,1.835-0.601,2.96-1.837C26.145,21.06,26.279,21,26.42,21H28v-2.23c0-0.139,0.058-0.271,0.16-0.366
				C28.577,18.016,29,16.722,29,15c0-1.721-0.423-3.015-0.841-3.404C28.058,11.501,28,11.369,28,11.23V9h-1.36
				c-0.142,0-0.277-0.06-0.372-0.166C25.173,7.617,24.181,7,23.32,7H6.68C5.819,7,4.827,7.617,3.731,8.834
				C3.637,8.94,3.501,9,3.36,9H2v2.23c0,0.139-0.058,0.271-0.159,0.366C1.423,11.985,1,13.279,1,15c0,1.722,0.423,3.016,0.84,3.403
				C1.942,18.498,2,18.631,2,18.77V21z"/>
		</g>
	</g>
</g>
<g id="Dashed_Frame_22">
</g>
<g id="Dashed_Frame_23">
</g>
<g id="Dashed_Frame_24">
</g>
<g id="Dashed_Frame_34">
</g>
</svg>
