<?xml version="1.0" encoding="iso-8859-1"?>
<!-- Generator: Adobe Illustrator 19.2.1, SVG Export Plug-In . SVG Version: 6.00 Build 0)  -->
<svg version="1.1" xmlns="http://www.w3.org/2000/svg" xmlns:xlink="http://www.w3.org/1999/xlink" x="0px" y="0px"
	 viewBox="0 0 30 30" style="enable-background:new 0 0 30 30;" xml:space="preserve">
<g id="Dashed_Frame_21">
</g>
<g id="Dashed_Frame_22">
</g>
<g id="Dashed_Frame_23">
	<g>
		<g>
			<g>
				<path d="M15.859,8.012c-0.087,0-0.175-0.022-0.255-0.07L15,7.582l-0.604,0.359c-0.237,0.142-0.543,0.063-0.686-0.174
					c-0.141-0.237-0.063-0.544,0.174-0.686l0.859-0.512c0.158-0.094,0.354-0.094,0.512,0l0.859,0.512
					c0.237,0.142,0.315,0.448,0.174,0.686C16.195,7.925,16.029,8.012,15.859,8.012z"/>
			</g>
			<g>
				<path d="M6.553,11.017c-0.241,0-0.453-0.174-0.493-0.42c-0.044-0.272,0.141-0.529,0.414-0.574
					c0.655-0.106,1.312-0.251,1.953-0.429c0.262-0.073,0.542,0.082,0.616,0.348c0.074,0.266-0.082,0.542-0.348,0.616
					c-0.676,0.188-1.369,0.34-2.061,0.453C6.606,11.015,6.579,11.017,6.553,11.017z M10.507,9.918c-0.198,0-0.386-0.119-0.464-0.314
					c-0.103-0.256,0.021-0.547,0.278-0.65c0.618-0.248,1.227-0.533,1.811-0.847c0.243-0.13,0.547-0.04,0.677,0.204
					c0.131,0.243,0.04,0.546-0.204,0.677c-0.616,0.332-1.259,0.632-1.912,0.894C10.632,9.906,10.569,9.918,10.507,9.918z"/>
			</g>
			<g>
				<path d="M3.882,12.189c-0.206,0-0.398-0.127-0.471-0.332c-0.106-0.296-0.227-0.59-0.363-0.878
					c-0.073-0.155-0.062-0.337,0.03-0.481s0.251-0.232,0.422-0.232c0.325,0,0.65-0.009,0.973-0.026
					c0.27-0.022,0.511,0.197,0.526,0.473c0.014,0.276-0.197,0.511-0.473,0.526c-0.091,0.004-0.183,0.009-0.274,0.012
					c0.035,0.09,0.068,0.18,0.101,0.271c0.093,0.26-0.042,0.546-0.303,0.639C3.994,12.18,3.938,12.189,3.882,12.189z"/>
			</g>
			<g>
				<path d="M4.392,16.622c-0.019,0-0.038-0.001-0.057-0.003c-0.274-0.031-0.471-0.279-0.44-0.554
					c0.04-0.354,0.061-0.71,0.061-1.065c0-0.356-0.021-0.711-0.061-1.065c-0.032-0.274,0.165-0.522,0.439-0.554
					c0.279-0.033,0.522,0.166,0.554,0.439c0.045,0.39,0.068,0.787,0.068,1.18c0,0.391-0.022,0.787-0.067,1.179
					C4.859,16.434,4.643,16.622,4.392,16.622z"/>
			</g>
			<g>
				<path d="M4.5,19.762c-0.009,0-0.018,0-0.027-0.001C4.15,19.744,3.825,19.735,3.5,19.735c-0.171,0-0.331-0.088-0.422-0.232
					s-0.103-0.326-0.03-0.481c0.137-0.288,0.257-0.582,0.363-0.879c0.092-0.26,0.377-0.399,0.639-0.303
					c0.26,0.093,0.396,0.378,0.303,0.639C4.32,18.569,4.287,18.66,4.252,18.75c0.091,0.003,0.183,0.008,0.274,0.013
					c0.276,0.015,0.487,0.25,0.473,0.525C4.985,19.555,4.764,19.762,4.5,19.762z"/>
			</g>
			<g>
				<path d="M12.36,21.948c-0.08,0-0.161-0.02-0.236-0.06c-0.584-0.313-1.194-0.598-1.812-0.846
					c-0.256-0.103-0.381-0.394-0.278-0.649c0.103-0.257,0.394-0.382,0.65-0.278c0.652,0.261,1.295,0.562,1.912,0.893
					c0.244,0.131,0.335,0.434,0.204,0.677C12.71,21.853,12.538,21.948,12.36,21.948z M8.552,20.422
					c-0.044,0-0.089-0.006-0.134-0.019c-0.642-0.178-1.299-0.322-1.954-0.429c-0.273-0.044-0.458-0.301-0.414-0.573
					s0.3-0.463,0.574-0.413c0.69,0.112,1.384,0.264,2.061,0.452c0.266,0.073,0.422,0.349,0.348,0.615
					C8.972,20.277,8.771,20.422,8.552,20.422z"/>
			</g>
			<g>
				<path d="M15,23.5c-0.088,0-0.177-0.023-0.256-0.07l-0.859-0.512c-0.237-0.142-0.315-0.448-0.174-0.686
					c0.142-0.237,0.449-0.315,0.686-0.174L15,22.418l0.604-0.359c0.237-0.142,0.544-0.063,0.686,0.174s0.063,0.544-0.174,0.686
					l-0.859,0.512C15.177,23.477,15.088,23.5,15,23.5z"/>
			</g>
			<g>
				<path d="M17.632,21.953c-0.178,0-0.35-0.095-0.44-0.263c-0.131-0.243-0.04-0.547,0.203-0.678
					c0.624-0.336,1.268-0.637,1.915-0.895c0.255-0.099,0.547,0.022,0.649,0.28c0.102,0.256-0.023,0.547-0.28,0.649
					c-0.611,0.243-1.22,0.527-1.81,0.846C17.794,21.934,17.712,21.953,17.632,21.953z M21.439,20.424
					c-0.219,0-0.42-0.145-0.481-0.366c-0.074-0.266,0.081-0.541,0.348-0.615c0.675-0.188,1.368-0.341,2.061-0.453
					c0.27-0.046,0.528,0.139,0.573,0.413c0.045,0.272-0.141,0.529-0.413,0.573c-0.656,0.107-1.313,0.252-1.953,0.43
					C21.528,20.418,21.483,20.424,21.439,20.424z"/>
			</g>
			<g>
				<path d="M25.5,19.762c-0.265,0-0.485-0.207-0.499-0.474c-0.015-0.275,0.197-0.511,0.473-0.525
					c0.092-0.005,0.183-0.01,0.274-0.013c-0.035-0.09-0.068-0.181-0.101-0.271c-0.093-0.261,0.043-0.546,0.303-0.639
					c0.261-0.097,0.547,0.043,0.639,0.303c0.106,0.297,0.227,0.591,0.363,0.879c0.073,0.155,0.062,0.337-0.029,0.481
					c-0.092,0.145-0.252,0.232-0.423,0.232c-0.325,0-0.649,0.009-0.974,0.025C25.518,19.762,25.509,19.762,25.5,19.762z"/>
			</g>
			<g>
				<path d="M25.608,16.622c-0.25,0-0.467-0.188-0.496-0.442c-0.045-0.391-0.067-0.788-0.067-1.181c0-0.392,0.022-0.789,0.067-1.179
					c0.032-0.275,0.288-0.475,0.555-0.439c0.274,0.031,0.471,0.279,0.439,0.554c-0.041,0.354-0.062,0.709-0.062,1.065
					c0,0.356,0.021,0.712,0.062,1.065c0.031,0.274-0.165,0.522-0.439,0.555C25.647,16.621,25.628,16.622,25.608,16.622z"/>
			</g>
			<g>
				<path d="M26.118,12.189c-0.056,0-0.112-0.009-0.168-0.029c-0.26-0.093-0.396-0.378-0.303-0.639
					c0.032-0.091,0.065-0.181,0.101-0.271c-0.092-0.003-0.183-0.008-0.274-0.012c-0.275-0.015-0.487-0.25-0.473-0.526
					c0.015-0.275,0.253-0.481,0.525-0.473c0.324,0.017,0.648,0.026,0.974,0.026c0.171,0,0.331,0.088,0.423,0.232
					c0.091,0.145,0.103,0.326,0.029,0.481c-0.137,0.289-0.257,0.582-0.363,0.878C26.516,12.062,26.323,12.189,26.118,12.189z"/>
			</g>
			<g>
				<path d="M23.457,11.019c-0.027,0-0.054-0.002-0.081-0.006c-0.691-0.113-1.385-0.265-2.062-0.452
					c-0.266-0.074-0.422-0.349-0.348-0.615c0.073-0.266,0.345-0.423,0.615-0.349c0.642,0.178,1.299,0.322,1.954,0.428
					c0.272,0.044,0.458,0.301,0.413,0.574C23.909,10.845,23.697,11.019,23.457,11.019z M19.502,9.921
					c-0.062,0-0.125-0.011-0.186-0.036c-0.655-0.262-1.299-0.563-1.914-0.894c-0.243-0.131-0.334-0.434-0.203-0.677
					c0.132-0.244,0.433-0.333,0.678-0.204c0.581,0.313,1.19,0.598,1.811,0.846c0.257,0.103,0.381,0.394,0.278,0.65
					C19.888,9.802,19.7,9.921,19.502,9.921z"/>
			</g>
		</g>
		<g>
			<path d="M15,26.218c-0.093,0-0.186-0.025-0.268-0.077l-2.455-1.554C8.75,22.354,4.677,21.174,0.5,21.174
				c-0.169,0-0.327-0.086-0.419-0.228c-0.092-0.142-0.106-0.321-0.038-0.476c1.545-3.477,1.545-7.465,0-10.941
				c-0.069-0.155-0.054-0.333,0.038-0.476C0.173,8.912,0.331,8.826,0.5,8.826c4.176,0,8.249-1.18,11.778-3.413l2.455-1.553
				c0.163-0.104,0.371-0.104,0.534,0l2.456,1.553c3.528,2.232,7.602,3.413,11.777,3.413c0.169,0,0.327,0.085,0.419,0.228
				c0.093,0.142,0.106,0.321,0.038,0.476c-1.545,3.477-1.545,7.465,0,10.941c0.068,0.154,0.055,0.334-0.038,0.476
				c-0.092,0.142-0.25,0.228-0.419,0.228c-4.177,0-8.249,1.18-11.777,3.413l-2.455,1.554C15.186,26.192,15.093,26.218,15,26.218z
				 M1.243,20.186c4.105,0.132,8.091,1.354,11.57,3.556L15,25.126l2.188-1.385c3.479-2.201,7.465-3.424,11.569-3.556
				c-1.278-3.333-1.278-7.038,0-10.371c-4.104-0.132-8.09-1.354-11.569-3.556L15,4.875l-2.188,1.384
				C9.333,8.46,5.347,9.683,1.243,9.814C2.521,13.147,2.521,16.853,1.243,20.186z"/>
		</g>
	</g>
</g>
<g id="Dashed_Frame_24">
</g>
<g id="Dashed_Frame_34">
</g>
</svg>
