<?xml version="1.0" encoding="iso-8859-1"?>
<!-- Generator: Adobe Illustrator 19.2.1, SVG Export Plug-In . SVG Version: 6.00 Build 0)  -->
<svg version="1.1" xmlns="http://www.w3.org/2000/svg" xmlns:xlink="http://www.w3.org/1999/xlink" x="0px" y="0px"
	 viewBox="0 0 30 30" style="enable-background:new 0 0 30 30;" xml:space="preserve">
<g id="Photo_frame">
</g>
<g id="Photo_frame_2">
</g>
<g id="Photo_frame_3">
</g>
<g id="Photo_frame__4">
</g>
<g id="Photo_frame_5">
</g>
<g id="Photo_frame_6">
</g>
<g id="Photo_frame_7">
</g>
<g id="Round_Frame_1">
</g>
<g id="Rectangle_Frame_1">
</g>
<g id="Square_Frame_1">
</g>
<g id="Rectangle_Frame_2">
</g>
<g id="Oval_Frame_1">
</g>
<g id="Round_Frame_2">
</g>
<g id="Rectangle_Frame_3">
</g>
<g id="Rectangle_Frame_4">
</g>
<g id="Rectangle_Frame_5">
</g>
<g id="Square_Frame_2">
</g>
<g id="Rectangle_Frame_6">
</g>
<g id="Rectangle_Frame_7">
</g>
<g id="Oval_Frame_2">
</g>
<g id="Round_Frame_3">
</g>
<g id="Rectangle_Frame_8">
</g>
<g id="Square_Frame_3">
</g>
<g id="Rectangle_Frame_9">
</g>
<g id="Rectangle_Frame_10">
</g>
<g id="Square_Frame_4">
</g>
<g id="Rectangle_Frame_11">
</g>
<g id="Rectangle_Frame_12">
</g>
<g id="Square_Frame_5">
</g>
<g id="Rectangle_Frame_13">
</g>
<g id="Round_Frame">
</g>
<g id="Frame_2">
</g>
<g id="Frame_1">
</g>
<g id="Frame_3">
</g>
<g id="Frame_4">
</g>
<g id="Frame_5">
</g>
<g id="Frame_6">
</g>
<g id="Frame_7">
</g>
<g id="Frame_8">
</g>
<g id="Frame_9">
</g>
<g id="Frame_10">
</g>
<g id="Frame_11">
</g>
<g id="Frame_12">
</g>
<g id="Frame_13">
</g>
<g id="Frame_14">
</g>
<g id="Frame_15">
</g>
<g id="Frame_16">
</g>
<g id="Frame_17">
</g>
<g id="Frame_18">
</g>
<g id="Frame_19">
</g>
<g id="Frame_20">
</g>
<g id="Frame_21">
</g>
<g id="Frame_22">
</g>
<g id="Frame_23">
</g>
<g id="Frame_24">
</g>
<g id="Frame_25">
</g>
<g id="Frame_26">
</g>
<g id="Frame_27">
</g>
<g id="Frame_28">
</g>
<g id="Frame_29">
</g>
<g id="Frame_30">
</g>
<g id="Frame_Hole_1">
</g>
<g id="Frame_Hole_2">
</g>
<g id="Frame_Hole_3">
</g>
<g id="Frame_Hole_4">
</g>
<g id="Frame_31">
</g>
<g id="Frame_32">
</g>
<g id="Frame_33">
</g>
<g id="Frame_34">
</g>
<g id="Frame_35">
</g>
<g id="Dashed_Frame_1">
</g>
<g id="Dashed_Frame_2">
</g>
<g id="Dashed_Frame_3">
</g>
<g id="Dashed_Frame_4">
</g>
<g id="Dashed_Frame_5">
</g>
<g id="Dashed_Frame_6">
</g>
<g id="Dashed_Frame_7">
</g>
<g id="Dashed_Frame_8">
</g>
<g id="Dashed_Frame_9">
</g>
<g id="Dashed_Frame_10">
</g>
<g id="Dashed_Frame_11">
</g>
<g id="Dashed_Frame_12">
</g>
<g id="Dashed_Frame_13">
</g>
<g id="Dashed_Frame_14">
</g>
<g id="Dashed_Frame_15">
</g>
<g id="Dashed_Frame_16">
</g>
<g id="Dashed_Frame_17">
</g>
<g id="Dashed_Frame_18">
</g>
<g id="Dashed_Frame_19">
</g>
<g id="Dashed_Frame_20">
</g>
<g id="Dashed_Frame_25">
</g>
<g id="Dashed_Frame_26">
</g>
<g id="Dashed_Frame_27">
</g>
<g id="Dashed_Frame_28">
</g>
<g id="Dashed_Frame_29">
</g>
<g id="Dashed_Frame_30">
</g>
<g id="Dashed_Frame_31">
</g>
<g id="Dashed_Frame_32">
	<g>
		<g>
			<path d="M17.543,24.606c-0.118,0-0.234-0.042-0.325-0.12c-0.609-0.522-1.342-0.803-2.199-0.79
				c-0.788,0.006-1.614,0.267-2.225,0.79c-0.108,0.094-0.252,0.134-0.396,0.115l-1.934-0.28c-0.246-0.036-0.429-0.247-0.429-0.495
				c0-0.741-0.689-1.392-1.476-1.392c-1.363,0-2.56-1.117-2.56-2.392V20H1.5C1.224,20,1,19.776,1,19.5v-1.886
				c-0.878-0.568-1.332-1.518-1.254-2.648c-0.078-1.068,0.376-2.012,1.254-2.58V10.5C1,10.224,1.224,10,1.5,10L6,9.957
				c0-1.274,1.197-2.392,2.562-2.392c0.817,0,1.562-0.663,1.562-1.392c0-0.248,0.182-0.458,0.427-0.494l1.896-0.28
				c0.143-0.024,0.289,0.021,0.398,0.114c0.609,0.522,1.393,0.795,2.197,0.79c0.816-0.022,1.612-0.268,2.222-0.79
				c0.11-0.094,0.256-0.132,0.397-0.115l1.925,0.28c0.245,0.036,0.428,0.247,0.428,0.495c0,0.754,0.669,1.392,1.46,1.392
				c1.37,0,2.527,1.096,2.527,2.392V10h4.5c0.276,0,0.5,0.224,0.5,0.5v1.892c0.995,0.692,1.289,2.045,1.221,3.14
				c-0.006,0.092-0.036,0.176-0.084,0.247c-0.091,0.516-0.434,1.335-1.137,1.829V19.5c0,0.276-0.224,0.5-0.5,0.5L24,20.043
				c0,1.296-1.159,2.392-2.53,2.392c-0.801,0-1.53,0.663-1.53,1.392c0,0.248-0.182,0.458-0.427,0.494l-1.896,0.28
				C17.592,24.604,17.567,24.606,17.543,24.606z M10.991,23.387l1.333,0.193c0.766-0.587,1.723-0.894,2.694-0.884
				c0.954,0.013,1.902,0.296,2.668,0.884l1.298-0.192c0.225-1.096,1.271-1.953,2.485-1.953c0.801,0,1.53-0.663,1.53-1.392V19.5
				c0-0.276,0.224-0.5,0.5-0.5H28v-1.674c0-0.188,0.105-0.359,0.272-0.445c0.63-0.322,0.853-1.101,0.889-1.311
				c-0.003-0.023-0.005-0.047-0.005-0.07c0-0.096,0.027-0.186,0.073-0.262c0.002-0.797-0.243-1.754-0.957-2.119
				C28.105,13.033,28,12.861,28,12.674V11h-4.5c-0.276,0-0.5-0.224-0.5-0.5V9.957c0-0.729-0.728-1.392-1.527-1.392
				c-1.18,0-2.197-0.857-2.416-1.953L17.732,6.42c-0.768,0.588-1.757,0.878-2.691,0.884c-0.952-0.006-1.901-0.296-2.666-0.884
				l-1.299,0.192c-0.235,1.081-1.31,1.953-2.515,1.953C7.744,8.565,7,9.229,7,9.957V10.5C7,10.776,6.776,11,6.5,11H2v1.674
				c0,0.188-0.105,0.359-0.272,0.445c-0.887,0.454-1.024,1.255-0.983,1.847c-0.041,0.66,0.097,1.461,0.983,1.915
				C1.895,16.967,2,17.139,2,17.326V19h4.5C6.776,19,7,19.224,7,19.5v0.543c0,0.729,0.743,1.392,1.56,1.392
				C9.747,21.435,10.771,22.292,10.991,23.387z"/>
		</g>
		<g>
			<g>
				<path d="M26.5,18h-1c-0.276,0-0.5-0.224-0.5-0.5s0.224-0.5,0.5-0.5H26v-0.5c0-0.276,0.224-0.5,0.5-0.5s0.5,0.224,0.5,0.5v1
					C27,17.776,26.776,18,26.5,18z"/>
			</g>
			<g>
				<path d="M22.761,18h-1.826c-0.276,0-0.5-0.224-0.5-0.5s0.224-0.5,0.5-0.5h1.826c0.276,0,0.5,0.224,0.5,0.5S23.037,18,22.761,18z
					 M18.195,18h-1.826c-0.276,0-0.5-0.224-0.5-0.5s0.224-0.5,0.5-0.5h1.826c0.276,0,0.5,0.224,0.5,0.5S18.472,18,18.195,18z
					 M13.63,18h-1.825c-0.276,0-0.5-0.224-0.5-0.5s0.224-0.5,0.5-0.5h1.825c0.276,0,0.5,0.224,0.5,0.5S13.906,18,13.63,18z
					 M9.065,18H7.239c-0.276,0-0.5-0.224-0.5-0.5s0.224-0.5,0.5-0.5h1.826c0.276,0,0.5,0.224,0.5,0.5S9.342,18,9.065,18z"/>
			</g>
			<g>
				<path d="M4.5,18h-1C3.224,18,3,17.776,3,17.5v-1C3,16.224,3.224,16,3.5,16S4,16.224,4,16.5V17h0.5C4.776,17,5,17.224,5,17.5
					S4.776,18,4.5,18z"/>
			</g>
			<g>
				<path d="M3.5,14C3.224,14,3,13.776,3,13.5v-1C3,12.224,3.224,12,3.5,12h1C4.776,12,5,12.224,5,12.5S4.776,13,4.5,13H4v0.5
					C4,13.776,3.776,14,3.5,14z"/>
			</g>
			<g>
				<path d="M22.761,13h-1.826c-0.276,0-0.5-0.224-0.5-0.5s0.224-0.5,0.5-0.5h1.826c0.276,0,0.5,0.224,0.5,0.5S23.037,13,22.761,13z
					 M18.195,13H16.37c-0.276,0-0.5-0.224-0.5-0.5s0.224-0.5,0.5-0.5h1.825c0.276,0,0.5,0.224,0.5,0.5S18.472,13,18.195,13z
					 M13.631,13h-1.826c-0.276,0-0.5-0.224-0.5-0.5s0.224-0.5,0.5-0.5h1.826c0.276,0,0.5,0.224,0.5,0.5S13.907,13,13.631,13z
					 M9.065,13H7.239c-0.276,0-0.5-0.224-0.5-0.5s0.224-0.5,0.5-0.5h1.826c0.276,0,0.5,0.224,0.5,0.5S9.342,13,9.065,13z"/>
			</g>
			<g>
				<path d="M26.5,14c-0.276,0-0.5-0.224-0.5-0.5V13h-0.5c-0.276,0-0.5-0.224-0.5-0.5s0.224-0.5,0.5-0.5h1
					c0.276,0,0.5,0.224,0.5,0.5v1C27,13.776,26.776,14,26.5,14z"/>
			</g>
		</g>
	</g>
</g>
<g id="Dashed_Frame_33">
</g>
<g id="Dashed_Frame_35">
</g>
</svg>
