<?xml version="1.0" encoding="iso-8859-1"?>
<!-- Generator: Adobe Illustrator 19.2.1, SVG Export Plug-In . SVG Version: 6.00 Build 0)  -->
<svg version="1.1" xmlns="http://www.w3.org/2000/svg" xmlns:xlink="http://www.w3.org/1999/xlink" x="0px" y="0px"
	 viewBox="0 0 30 30" style="enable-background:new 0 0 30 30;" xml:space="preserve">
<g id="Dashed_Frame_21">
</g>
<g id="Dashed_Frame_22">
	<g>
		<g>
			<path d="M29.5,24h-29C0.224,24,0,23.776,0,23.5v-12C0,11.224,0.224,11,0.5,11h3.167C5.676,7.927,10.083,5.957,15,5.957
				S24.324,7.927,26.333,11H29.5c0.276,0,0.5,0.224,0.5,0.5v12C30,23.776,29.776,24,29.5,24z M1,23h28V12h-2.943
				c-0.175,0-0.338-0.092-0.428-0.242C23.874,8.841,19.702,6.957,15,6.957S6.126,8.841,4.371,11.758C4.281,11.908,4.118,12,3.943,12
				H1V23z"/>
		</g>
		<g>
			<g>
				<path d="M3.5,22h-1C2.224,22,2,21.776,2,21.5v-1C2,20.224,2.224,20,2.5,20S3,20.224,3,20.5V21h0.5C3.776,21,4,21.224,4,21.5
					S3.776,22,3.5,22z"/>
			</g>
			<g>
				<path d="M2.5,19.066c-0.276,0-0.5-0.224-0.5-0.5v-1.934c0-0.276,0.224-0.5,0.5-0.5s0.5,0.224,0.5,0.5v1.934
					C3,18.843,2.776,19.066,2.5,19.066z"/>
			</g>
			<g>
				<path d="M2.5,15.2c-0.276,0-0.5-0.224-0.5-0.5v-1c0-0.276,0.224-0.5,0.5-0.5h1c0.276,0,0.5,0.224,0.5,0.5s-0.224,0.5-0.5,0.5H3
					v0.5C3,14.977,2.776,15.2,2.5,15.2z"/>
			</g>
			<g>
				<path d="M4.939,14.2h-1c-0.276,0-0.5-0.224-0.5-0.5s0.224-0.5,0.5-0.5H4.66l0.378-0.614c0.145-0.234,0.452-0.309,0.688-0.163
					c0.235,0.145,0.308,0.453,0.163,0.688l-0.525,0.851C5.273,14.11,5.112,14.2,4.939,14.2z"/>
			</g>
			<g>
				<path d="M6.685,11.788c-0.134,0-0.268-0.054-0.366-0.159c-0.188-0.202-0.177-0.519,0.025-0.707
					c0.486-0.452,1.059-0.868,1.702-1.234c0.24-0.137,0.545-0.053,0.682,0.187c0.137,0.24,0.053,0.545-0.187,0.682
					c-0.576,0.328-1.086,0.697-1.516,1.097C6.929,11.744,6.807,11.788,6.685,11.788z M23.304,11.777
					c-0.122,0-0.244-0.044-0.34-0.133c-0.43-0.398-0.941-0.767-1.518-1.095c-0.24-0.136-0.324-0.441-0.188-0.682
					c0.136-0.24,0.44-0.325,0.682-0.188c0.644,0.365,1.217,0.779,1.704,1.23c0.203,0.188,0.215,0.504,0.027,0.707
					C23.572,11.724,23.438,11.777,23.304,11.777z M10.104,9.8c-0.206,0-0.398-0.127-0.471-0.333C9.54,9.207,9.676,8.921,9.936,8.829
					c0.631-0.225,1.301-0.406,1.991-0.541c0.27-0.056,0.534,0.124,0.586,0.395c0.053,0.271-0.124,0.534-0.395,0.586
					c-0.642,0.125-1.263,0.293-1.848,0.501C10.216,9.791,10.159,9.8,10.104,9.8z M19.882,9.794c-0.055,0-0.111-0.009-0.166-0.028
					c-0.589-0.208-1.211-0.375-1.85-0.5c-0.271-0.052-0.448-0.315-0.396-0.586s0.317-0.447,0.586-0.396
					c0.687,0.133,1.356,0.314,1.991,0.538c0.261,0.092,0.397,0.377,0.306,0.638C20.281,9.666,20.088,9.794,19.882,9.794z
					 M13.997,9.03c-0.262,0-0.482-0.204-0.499-0.469c-0.017-0.276,0.193-0.513,0.468-0.53c0.668-0.041,1.382-0.041,2.05,0
					c0.276,0.017,0.485,0.254,0.469,0.529c-0.017,0.276-0.254,0.49-0.529,0.469c-0.629-0.038-1.301-0.038-1.928,0
					C14.018,9.03,14.007,9.03,13.997,9.03z"/>
			</g>
			<g>
				<path d="M26.061,14.2h-1c-0.173,0-0.334-0.09-0.426-0.237l-0.525-0.851c-0.145-0.235-0.072-0.543,0.163-0.688
					c0.236-0.146,0.543-0.071,0.688,0.163L25.34,13.2h0.721c0.276,0,0.5,0.224,0.5,0.5S26.337,14.2,26.061,14.2z"/>
			</g>
			<g>
				<path d="M27.5,15.2c-0.276,0-0.5-0.224-0.5-0.5v-0.5h-0.5c-0.276,0-0.5-0.224-0.5-0.5s0.224-0.5,0.5-0.5h1
					c0.276,0,0.5,0.224,0.5,0.5v1C28,14.977,27.776,15.2,27.5,15.2z"/>
			</g>
			<g>
				<path d="M27.5,19.067c-0.276,0-0.5-0.224-0.5-0.5v-1.934c0-0.276,0.224-0.5,0.5-0.5s0.5,0.224,0.5,0.5v1.934
					C28,18.844,27.776,19.067,27.5,19.067z"/>
			</g>
			<g>
				<path d="M27.5,22h-1c-0.276,0-0.5-0.224-0.5-0.5s0.224-0.5,0.5-0.5H27v-0.5c0-0.276,0.224-0.5,0.5-0.5s0.5,0.224,0.5,0.5v1
					C28,21.776,27.776,22,27.5,22z"/>
			</g>
			<g>
				<path d="M24.409,22h-2.091c-0.276,0-0.5-0.224-0.5-0.5s0.224-0.5,0.5-0.5h2.091c0.276,0,0.5,0.224,0.5,0.5S24.686,22,24.409,22z
					 M20.228,22h-2.091c-0.276,0-0.5-0.224-0.5-0.5s0.224-0.5,0.5-0.5h2.091c0.276,0,0.5,0.224,0.5,0.5S20.504,22,20.228,22z
					 M16.045,22h-2.091c-0.276,0-0.5-0.224-0.5-0.5s0.224-0.5,0.5-0.5h2.091c0.276,0,0.5,0.224,0.5,0.5S16.322,22,16.045,22z
					 M11.864,22H9.773c-0.276,0-0.5-0.224-0.5-0.5s0.224-0.5,0.5-0.5h2.091c0.276,0,0.5,0.224,0.5,0.5S12.14,22,11.864,22z
					 M7.682,22H5.591c-0.276,0-0.5-0.224-0.5-0.5s0.224-0.5,0.5-0.5h2.091c0.276,0,0.5,0.224,0.5,0.5S7.958,22,7.682,22z"/>
			</g>
		</g>
	</g>
</g>
<g id="Dashed_Frame_23">
</g>
<g id="Dashed_Frame_24">
</g>
<g id="Dashed_Frame_34">
</g>
</svg>
