<?xml version="1.0" encoding="iso-8859-1"?>
<!-- Generator: Adobe Illustrator 19.2.1, SVG Export Plug-In . SVG Version: 6.00 Build 0)  -->
<svg version="1.1" xmlns="http://www.w3.org/2000/svg" xmlns:xlink="http://www.w3.org/1999/xlink" x="0px" y="0px"
	 viewBox="0 0 30 30" style="enable-background:new 0 0 30 30;" xml:space="preserve">
<g id="Photo_frame">
</g>
<g id="Photo_frame_2">
</g>
<g id="Photo_frame_3">
</g>
<g id="Photo_frame__4">
</g>
<g id="Photo_frame_5">
</g>
<g id="Photo_frame_6">
</g>
<g id="Photo_frame_7">
</g>
<g id="Round_Frame_1">
</g>
<g id="Rectangle_Frame_1">
</g>
<g id="Square_Frame_1">
</g>
<g id="Rectangle_Frame_2">
</g>
<g id="Oval_Frame_1">
</g>
<g id="Round_Frame_2">
</g>
<g id="Rectangle_Frame_3">
</g>
<g id="Rectangle_Frame_4">
</g>
<g id="Rectangle_Frame_5">
</g>
<g id="Square_Frame_2">
</g>
<g id="Rectangle_Frame_6">
</g>
<g id="Rectangle_Frame_7">
</g>
<g id="Oval_Frame_2">
</g>
<g id="Round_Frame_3">
</g>
<g id="Rectangle_Frame_8">
</g>
<g id="Square_Frame_3">
</g>
<g id="Rectangle_Frame_9">
</g>
<g id="Rectangle_Frame_10">
</g>
<g id="Square_Frame_4">
</g>
<g id="Rectangle_Frame_11">
</g>
<g id="Rectangle_Frame_12">
</g>
<g id="Square_Frame_5">
</g>
<g id="Rectangle_Frame_13">
</g>
<g id="Round_Frame">
</g>
<g id="Frame_2">
</g>
<g id="Frame_1">
</g>
<g id="Frame_3">
</g>
<g id="Frame_4">
</g>
<g id="Frame_5">
</g>
<g id="Frame_6">
</g>
<g id="Frame_7">
</g>
<g id="Frame_8">
</g>
<g id="Frame_9">
</g>
<g id="Frame_10">
</g>
<g id="Frame_11">
</g>
<g id="Frame_12">
</g>
<g id="Frame_13">
</g>
<g id="Frame_14">
</g>
<g id="Frame_15">
</g>
<g id="Frame_16">
</g>
<g id="Frame_17">
</g>
<g id="Frame_18">
</g>
<g id="Frame_19">
</g>
<g id="Frame_20">
</g>
<g id="Frame_21">
</g>
<g id="Frame_22">
</g>
<g id="Frame_23">
</g>
<g id="Frame_24">
</g>
<g id="Frame_25">
</g>
<g id="Frame_26">
</g>
<g id="Frame_27">
</g>
<g id="Frame_28">
</g>
<g id="Frame_29">
</g>
<g id="Frame_30">
</g>
<g id="Frame_Hole_1">
</g>
<g id="Frame_Hole_2">
</g>
<g id="Frame_Hole_3">
</g>
<g id="Frame_Hole_4">
</g>
<g id="Frame_31">
</g>
<g id="Frame_32">
</g>
<g id="Frame_33">
</g>
<g id="Frame_34">
</g>
<g id="Frame_35">
</g>
<g id="Dashed_Frame_1">
</g>
<g id="Dashed_Frame_2">
</g>
<g id="Dashed_Frame_3">
</g>
<g id="Dashed_Frame_4">
</g>
<g id="Dashed_Frame_5">
</g>
<g id="Dashed_Frame_6">
</g>
<g id="Dashed_Frame_7">
</g>
<g id="Dashed_Frame_8">
</g>
<g id="Dashed_Frame_9">
</g>
<g id="Dashed_Frame_10">
</g>
<g id="Dashed_Frame_11">
</g>
<g id="Dashed_Frame_12">
</g>
<g id="Dashed_Frame_13">
</g>
<g id="Dashed_Frame_14">
</g>
<g id="Dashed_Frame_15">
</g>
<g id="Dashed_Frame_16">
</g>
<g id="Dashed_Frame_17">
</g>
<g id="Dashed_Frame_18">
	<g>
		<g>
			<path d="M26.939,25.334c-0.018,0-0.035-0.001-0.054-0.003c-0.123-0.013-0.516-0.089-1.101-0.204
				c-2.213-0.437-7.395-1.457-10.786-1.457c-3.391,0-8.572,1.021-10.784,1.457c-0.586,0.115-0.979,0.191-1.102,0.204
				c-0.148,0.017-0.283-0.03-0.388-0.125c-0.105-0.095-0.166-0.23-0.166-0.372v-0.362c0-1.135-0.924-2.059-2.059-2.059
				c-0.157,0-0.305-0.073-0.399-0.199c-0.094-0.125-0.119-0.305-0.076-0.455C0.156,21.301,1.303,17.221,1.303,15
				c0-2.345-1.27-6.729-1.283-6.773c-0.044-0.15-0.014-0.313,0.08-0.439c0.095-0.126,0.243-0.2,0.4-0.2
				c1.156,0,2.06-0.903,2.06-2.014V5.166c0-0.152,0.069-0.296,0.188-0.391C2.866,4.681,3.025,4.645,3.17,4.679
				C3.243,4.695,10.511,6.33,14.999,6.33c4.491,0,11.757-1.635,11.83-1.651c0.145-0.035,0.303,0.002,0.423,0.097
				c0.118,0.095,0.188,0.238,0.188,0.391v0.407c0,1.11,0.903,2.014,2.014,2.014c0.157,0,0.329,0.074,0.424,0.2
				c0.094,0.126,0.147,0.289,0.104,0.439c-0.014,0.044-1.284,4.429-1.284,6.773c0,2.342,1.269,6.729,1.282,6.773
				c0.044,0.151,0.014,0.313-0.08,0.439c-0.095,0.126-0.243,0.2-0.4,0.2c-1.135,0-2.059,0.924-2.059,2.059v0.362
				c0,0.142-0.061,0.277-0.166,0.372C27.182,25.289,27.063,25.334,26.939,25.334z M14.999,22.67c3.489,0,8.738,1.034,10.979,1.476
				c0.176,0.035,0.334,0.066,0.47,0.093c0.104-1.362,1.104-2.479,2.41-2.758c-0.354-1.301-1.162-4.496-1.162-6.48
				c0-1.986,0.809-5.177,1.163-6.479c-1.325-0.274-2.317-1.384-2.412-2.736C24.585,6.184,18.885,7.33,14.999,7.33
				c-3.885,0-9.585-1.146-11.447-1.545c-0.095,1.363-1.1,2.479-2.409,2.742c0.354,1.306,1.16,4.491,1.16,6.473
				c0,1.985-0.81,5.18-1.163,6.48c1.308,0.279,2.308,1.396,2.411,2.758c0.136-0.026,0.294-0.058,0.471-0.093
				C6.263,23.704,11.511,22.67,14.999,22.67z"/>
		</g>
		<g>
			<g>
				<path d="M24.233,21.806c-0.031,0-0.063-0.003-0.093-0.009l-0.978-0.183c-0.271-0.05-0.451-0.311-0.402-0.582
					c0.05-0.272,0.313-0.445,0.582-0.402l0.649,0.122c0.267-0.393,0.584-0.744,0.948-1.05c-0.05-0.218-0.101-0.443-0.15-0.675
					c-0.058-0.271,0.114-0.536,0.384-0.595c0.281-0.054,0.536,0.115,0.595,0.384c0.072,0.337,0.146,0.662,0.218,0.965
					c0.047,0.195-0.028,0.399-0.189,0.519c-0.462,0.342-0.843,0.765-1.132,1.259C24.574,21.713,24.409,21.806,24.233,21.806z"/>
			</g>
			<g>
				<path d="M21.435,21.306c-0.027,0-0.055-0.002-0.082-0.007c-0.588-0.096-1.198-0.189-1.814-0.275
					c-0.273-0.038-0.465-0.29-0.427-0.563c0.038-0.274,0.297-0.459,0.563-0.427c0.624,0.086,1.244,0.182,1.84,0.279
					c0.272,0.044,0.457,0.301,0.412,0.574C21.887,21.132,21.675,21.306,21.435,21.306z M8.572,21.305
					c-0.24,0-0.452-0.174-0.492-0.419c-0.045-0.272,0.14-0.529,0.412-0.574c0.596-0.099,1.216-0.193,1.842-0.278
					c0.269-0.038,0.525,0.153,0.563,0.428c0.038,0.273-0.153,0.525-0.428,0.563c-0.616,0.085-1.227,0.178-1.814,0.274
					C8.627,21.303,8.6,21.305,8.572,21.305z M17.772,20.808c-0.018,0-0.034-0.001-0.052-0.003c-0.623-0.063-1.234-0.111-1.813-0.136
					c-0.276-0.013-0.49-0.246-0.479-0.521s0.232-0.482,0.521-0.479c0.599,0.026,1.229,0.076,1.872,0.142
					c0.274,0.027,0.475,0.273,0.446,0.548C18.243,20.616,18.025,20.808,17.772,20.808z M12.236,20.808
					c-0.253,0-0.47-0.191-0.496-0.449c-0.028-0.274,0.172-0.521,0.446-0.548c0.642-0.065,1.272-0.114,1.871-0.141
					c0.313-0.045,0.509,0.201,0.521,0.477c0.013,0.276-0.201,0.51-0.477,0.521c-0.581,0.026-1.192,0.073-1.814,0.137
					C12.271,20.807,12.254,20.808,12.236,20.808z"/>
			</g>
			<g>
				<path d="M5.837,21.79c-0.191,0-0.412-0.08-0.501-0.232c-0.289-0.495-0.67-0.919-1.132-1.259
					c-0.162-0.119-0.237-0.323-0.19-0.519c0.073-0.306,0.146-0.63,0.218-0.964c0.059-0.271,0.33-0.438,0.594-0.385
					c0.271,0.058,0.442,0.324,0.385,0.594c-0.05,0.23-0.1,0.457-0.15,0.676c0.364,0.306,0.683,0.657,0.949,1.051l0.65-0.122
					c0.265-0.042,0.532,0.13,0.582,0.402c0.049,0.271-0.131,0.532-0.402,0.582L5.947,21.78C5.913,21.787,5.875,21.79,5.837,21.79z"
					/>
			</g>
			<g>
				<path d="M5.019,17.86c-0.027,0-0.054-0.002-0.081-0.007c-0.272-0.044-0.458-0.301-0.413-0.573
					c0.085-0.526,0.153-1.047,0.191-1.535c0.021-0.275,0.266-0.497,0.537-0.459c0.275,0.021,0.48,0.262,0.459,0.537
					c-0.037,0.485-0.105,1.029-0.201,1.617C5.471,17.686,5.259,17.86,5.019,17.86z M5.214,14.696c-0.259,0-0.478-0.199-0.498-0.462
					c-0.034-0.452-0.098-0.969-0.188-1.536c-0.044-0.272,0.141-0.528,0.414-0.572c0.268-0.053,0.529,0.141,0.572,0.414
					c0.097,0.594,0.163,1.139,0.2,1.618c0.021,0.275-0.186,0.516-0.461,0.537C5.24,14.696,5.227,14.696,5.214,14.696z"/>
			</g>
			<g>
				<path d="M4.724,11.557c-0.23,0-0.438-0.16-0.488-0.395c-0.072-0.336-0.146-0.661-0.218-0.965C3.971,10,4.047,9.795,4.21,9.677
					C4.668,9.344,5.047,8.928,5.334,8.44c0.107-0.182,0.313-0.274,0.525-0.237l0.976,0.183c0.271,0.05,0.451,0.311,0.402,0.582
					C7.188,9.239,6.919,9.411,6.655,9.37l-0.65-0.122c-0.266,0.386-0.58,0.731-0.941,1.031c0.05,0.217,0.101,0.441,0.15,0.672
					c0.058,0.271-0.114,0.536-0.384,0.595C4.795,11.553,4.759,11.557,4.724,11.557z"/>
			</g>
			<g>
				<path d="M14.072,10.301c-0.007,0-0.014,0-0.021,0c-0.603-0.026-1.231-0.071-1.87-0.133c-0.274-0.026-0.477-0.271-0.45-0.546
					c0.027-0.275,0.274-0.461,0.546-0.45c0.621,0.06,1.232,0.104,1.817,0.129c0.275,0.013,0.49,0.245,0.479,0.521
					C14.561,10.091,14.339,10.301,14.072,10.301z M15.919,10.301c-0.267,0-0.488-0.211-0.5-0.479
					c-0.011-0.275,0.203-0.509,0.479-0.521c0.584-0.023,1.195-0.068,1.816-0.128c0.273-0.011,0.52,0.175,0.546,0.45
					s-0.176,0.52-0.45,0.546c-0.641,0.062-1.27,0.106-1.871,0.132C15.933,10.301,15.926,10.301,15.919,10.301z M19.598,9.96
					c-0.247,0-0.462-0.183-0.495-0.435C19.066,9.252,19.26,9,19.533,8.964c0.617-0.081,1.229-0.171,1.814-0.266
					c0.268-0.039,0.528,0.142,0.573,0.415c0.043,0.272-0.143,0.529-0.415,0.573c-0.596,0.095-1.215,0.187-1.842,0.27
					C19.642,9.959,19.62,9.96,19.598,9.96z M10.395,9.958c-0.021,0-0.044-0.001-0.065-0.004c-0.628-0.082-1.248-0.175-1.844-0.27
					C8.213,9.641,8.027,9.384,8.07,9.111c0.045-0.273,0.305-0.457,0.573-0.415c0.586,0.095,1.196,0.186,1.814,0.266
					c0.273,0.036,0.467,0.287,0.432,0.561C10.856,9.774,10.642,9.958,10.395,9.958z"/>
			</g>
			<g>
				<path d="M25.277,11.563c-0.035,0-0.07-0.004-0.104-0.011c-0.271-0.058-0.443-0.323-0.386-0.593c0.05-0.231,0.1-0.457,0.15-0.675
					c-0.361-0.301-0.677-0.647-0.942-1.036l-0.65,0.123c-0.266,0.041-0.532-0.13-0.582-0.402c-0.049-0.271,0.131-0.532,0.402-0.582
					l0.976-0.184c0.212-0.038,0.419,0.055,0.525,0.238c0.288,0.489,0.667,0.907,1.125,1.241c0.163,0.119,0.239,0.324,0.192,0.521
					c-0.072,0.304-0.146,0.628-0.218,0.963C25.716,11.401,25.508,11.563,25.277,11.563z"/>
			</g>
			<g>
				<path d="M24.983,17.859c-0.24,0-0.452-0.174-0.492-0.419c-0.096-0.584-0.163-1.128-0.201-1.617
					c-0.021-0.275,0.184-0.517,0.459-0.537c0.275-0.037,0.517,0.184,0.537,0.459c0.036,0.462,0.101,0.978,0.191,1.533
					c0.045,0.272-0.14,0.53-0.412,0.574C25.038,17.857,25.011,17.859,24.983,17.859z M24.787,14.697c-0.014,0-0.026,0-0.04-0.002
					c-0.275-0.021-0.48-0.262-0.459-0.537c0.037-0.48,0.104-1.024,0.2-1.615c0.043-0.273,0.298-0.465,0.573-0.414
					c0.272,0.044,0.457,0.3,0.413,0.572c-0.084,0.525-0.152,1.047-0.19,1.535C25.265,14.498,25.045,14.697,24.787,14.697z"/>
			</g>
		</g>
	</g>
</g>
<g id="Dashed_Frame_19">
</g>
<g id="Dashed_Frame_20">
</g>
<g id="Dashed_Frame_25">
</g>
<g id="Dashed_Frame_26">
</g>
<g id="Dashed_Frame_27">
</g>
<g id="Dashed_Frame_28">
</g>
<g id="Dashed_Frame_29">
</g>
<g id="Dashed_Frame_30">
</g>
<g id="Dashed_Frame_31">
</g>
<g id="Dashed_Frame_32">
</g>
<g id="Dashed_Frame_33">
</g>
<g id="Dashed_Frame_35">
</g>
</svg>
