<?xml version="1.0" encoding="iso-8859-1"?>
<!-- Generator: Adobe Illustrator 19.2.1, SVG Export Plug-In . SVG Version: 6.00 Build 0)  -->
<svg version="1.1" xmlns="http://www.w3.org/2000/svg" xmlns:xlink="http://www.w3.org/1999/xlink" x="0px" y="0px"
	 viewBox="0 0 30 30" style="enable-background:new 0 0 30 30;" xml:space="preserve">
<g id="Photo_frame">
</g>
<g id="Photo_frame_2">
</g>
<g id="Photo_frame_3">
</g>
<g id="Photo_frame__4">
</g>
<g id="Photo_frame_5">
</g>
<g id="Photo_frame_6">
</g>
<g id="Photo_frame_7">
</g>
<g id="Round_Frame_1">
</g>
<g id="Rectangle_Frame_1">
</g>
<g id="Square_Frame_1">
</g>
<g id="Rectangle_Frame_2">
</g>
<g id="Oval_Frame_1">
</g>
<g id="Round_Frame_2">
</g>
<g id="Rectangle_Frame_3">
</g>
<g id="Rectangle_Frame_4">
</g>
<g id="Rectangle_Frame_5">
</g>
<g id="Square_Frame_2">
</g>
<g id="Rectangle_Frame_6">
</g>
<g id="Rectangle_Frame_7">
</g>
<g id="Oval_Frame_2">
</g>
<g id="Round_Frame_3">
</g>
<g id="Rectangle_Frame_8">
</g>
<g id="Square_Frame_3">
</g>
<g id="Rectangle_Frame_9">
</g>
<g id="Rectangle_Frame_10">
</g>
<g id="Square_Frame_4">
</g>
<g id="Rectangle_Frame_11">
</g>
<g id="Rectangle_Frame_12">
</g>
<g id="Square_Frame_5">
</g>
<g id="Rectangle_Frame_13">
</g>
<g id="Round_Frame">
</g>
<g id="Frame_2">
</g>
<g id="Frame_1">
</g>
<g id="Frame_3">
</g>
<g id="Frame_4">
</g>
<g id="Frame_5">
</g>
<g id="Frame_6">
</g>
<g id="Frame_7">
</g>
<g id="Frame_8">
</g>
<g id="Frame_9">
</g>
<g id="Frame_10">
</g>
<g id="Frame_11">
</g>
<g id="Frame_12">
</g>
<g id="Frame_13">
</g>
<g id="Frame_14">
	<g>
		<path d="M15,29.5c-0.116,0-0.232-0.04-0.325-0.121c-2.67-2.288-6.311-3.2-9.748-2.437c-0.183,0.039-0.375-0.025-0.493-0.169
			c0,0-1.417-1.709-2.124-2.618c-0.103-0.133-0.133-0.308-0.079-0.467s0.184-0.281,0.347-0.323C4.027,22.984,5.591,19.677,5.591,15
			S4.027,7.016,2.578,6.635C2.415,6.592,2.285,6.471,2.231,6.312S2.207,5.977,2.31,5.844c0.707-0.908,2.124-2.618,2.124-2.618
			c0.119-0.145,0.31-0.21,0.493-0.169c3.435,0.765,7.078-0.148,9.748-2.437c0.187-0.161,0.464-0.161,0.65,0
			c2.67,2.289,6.312,3.202,9.748,2.437c0.184-0.04,0.374,0.024,0.493,0.169c0,0,1.417,1.709,2.124,2.618
			c0.103,0.133,0.133,0.308,0.079,0.467s-0.184,0.281-0.347,0.323c-1.449,0.381-3.013,3.688-3.013,8.365s1.564,7.984,3.013,8.365
			c0.163,0.042,0.293,0.164,0.347,0.323s0.024,0.334-0.079,0.467c-0.707,0.908-2.124,2.618-2.124,2.618
			c-0.119,0.145-0.31,0.208-0.493,0.169c-3.434-0.764-7.078,0.148-9.748,2.437C15.232,29.46,15.116,29.5,15,29.5z M7.341,25.679
			c2.758,0,5.479,0.933,7.659,2.672c2.794-2.23,6.478-3.133,9.988-2.448c0.321-0.389,0.983-1.194,1.515-1.859
			c-1.828-1.118-3.094-4.717-3.094-9.044s1.267-7.926,3.094-9.044c-0.532-0.665-1.194-1.471-1.515-1.859
			C21.477,4.782,17.794,3.879,15,1.649c-2.794,2.23-6.477,3.135-9.988,2.448C4.691,4.485,4.028,5.291,3.497,5.956
			C5.324,7.074,6.591,10.673,6.591,15s-1.267,7.926-3.094,9.044c0.532,0.665,1.194,1.471,1.515,1.859
			C5.784,25.752,6.564,25.679,7.341,25.679z"/>
	</g>
</g>
<g id="Frame_15">
</g>
<g id="Frame_16">
</g>
<g id="Frame_17">
</g>
<g id="Frame_18">
</g>
<g id="Frame_19">
</g>
<g id="Frame_20">
</g>
<g id="Frame_21">
</g>
<g id="Frame_22">
</g>
<g id="Frame_23">
</g>
<g id="Frame_24">
</g>
<g id="Frame_25">
</g>
<g id="Frame_26">
</g>
<g id="Frame_27">
</g>
<g id="Frame_28">
</g>
<g id="Frame_29">
</g>
<g id="Frame_30">
</g>
<g id="Frame_Hole_1">
</g>
<g id="Frame_Hole_2">
</g>
<g id="Frame_Hole_3">
</g>
<g id="Frame_Hole_4">
</g>
<g id="Frame_31">
</g>
<g id="Frame_32">
</g>
<g id="Frame_33">
</g>
<g id="Frame_34">
</g>
<g id="Frame_35">
</g>
<g id="Dashed_Frame_1">
</g>
<g id="Dashed_Frame_2">
</g>
<g id="Dashed_Frame_3">
</g>
<g id="Dashed_Frame_4">
</g>
<g id="Dashed_Frame_5">
</g>
<g id="Dashed_Frame_6">
</g>
<g id="Dashed_Frame_7">
</g>
<g id="Dashed_Frame_8">
</g>
<g id="Dashed_Frame_9">
</g>
<g id="Dashed_Frame_10">
</g>
<g id="Dashed_Frame_11">
</g>
<g id="Dashed_Frame_12">
</g>
<g id="Dashed_Frame_13">
</g>
<g id="Dashed_Frame_14">
</g>
<g id="Dashed_Frame_15">
</g>
<g id="Dashed_Frame_16">
</g>
<g id="Dashed_Frame_17">
</g>
<g id="Dashed_Frame_18">
</g>
<g id="Dashed_Frame_19">
</g>
<g id="Dashed_Frame_20">
</g>
<g id="Dashed_Frame_25">
</g>
<g id="Dashed_Frame_26">
</g>
<g id="Dashed_Frame_27">
</g>
<g id="Dashed_Frame_28">
</g>
<g id="Dashed_Frame_29">
</g>
<g id="Dashed_Frame_30">
</g>
<g id="Dashed_Frame_31">
</g>
<g id="Dashed_Frame_32">
</g>
<g id="Dashed_Frame_33">
</g>
<g id="Dashed_Frame_35">
</g>
</svg>
