<?xml version="1.0" encoding="iso-8859-1"?>
<!-- Generator: Adobe Illustrator 19.2.1, SVG Export Plug-In . SVG Version: 6.00 Build 0)  -->
<svg version="1.1" xmlns="http://www.w3.org/2000/svg" xmlns:xlink="http://www.w3.org/1999/xlink" x="0px" y="0px"
	 viewBox="0 0 30 30" style="enable-background:new 0 0 30 30;" xml:space="preserve">
<g id="Photo_frame">
</g>
<g id="Photo_frame_2">
</g>
<g id="Photo_frame_3">
</g>
<g id="Photo_frame__4">
</g>
<g id="Photo_frame_5">
</g>
<g id="Photo_frame_6">
</g>
<g id="Photo_frame_7">
</g>
<g id="Round_Frame_1">
</g>
<g id="Rectangle_Frame_1">
</g>
<g id="Square_Frame_1">
</g>
<g id="Rectangle_Frame_2">
</g>
<g id="Oval_Frame_1">
</g>
<g id="Round_Frame_2">
</g>
<g id="Rectangle_Frame_3">
</g>
<g id="Rectangle_Frame_4">
</g>
<g id="Rectangle_Frame_5">
</g>
<g id="Square_Frame_2">
</g>
<g id="Rectangle_Frame_6">
</g>
<g id="Rectangle_Frame_7">
</g>
<g id="Oval_Frame_2">
</g>
<g id="Round_Frame_3">
</g>
<g id="Rectangle_Frame_8">
</g>
<g id="Square_Frame_3">
</g>
<g id="Rectangle_Frame_9">
</g>
<g id="Rectangle_Frame_10">
</g>
<g id="Square_Frame_4">
</g>
<g id="Rectangle_Frame_11">
</g>
<g id="Rectangle_Frame_12">
</g>
<g id="Square_Frame_5">
</g>
<g id="Rectangle_Frame_13">
</g>
<g id="Round_Frame">
</g>
<g id="Frame_2">
</g>
<g id="Frame_1">
</g>
<g id="Frame_3">
</g>
<g id="Frame_4">
</g>
<g id="Frame_5">
</g>
<g id="Frame_6">
</g>
<g id="Frame_7">
</g>
<g id="Frame_8">
</g>
<g id="Frame_9">
</g>
<g id="Frame_10">
</g>
<g id="Frame_11">
</g>
<g id="Frame_12">
</g>
<g id="Frame_13">
</g>
<g id="Frame_14">
</g>
<g id="Frame_15">
</g>
<g id="Frame_16">
</g>
<g id="Frame_17">
</g>
<g id="Frame_18">
</g>
<g id="Frame_19">
</g>
<g id="Frame_20">
</g>
<g id="Frame_21">
	<g>
		<path d="M15,30.005c-3.176,0-6.353-0.322-9.507-0.968c-0.175-0.036-0.318-0.163-0.375-0.332c-0.056-0.17-0.018-0.356,0.101-0.49
			c0.676-0.762,1.064-1.893,1.064-3.103c0-2.164-1.193-3.924-2.66-3.924c-0.391,0-0.784,0.145-1.168,0.429
			c-0.143,0.104-0.33,0.128-0.492,0.058c-0.163-0.068-0.277-0.219-0.301-0.394c-0.557-4.168-0.557-8.395,0-12.563
			C1.686,8.544,1.8,8.394,1.963,8.325c0.162-0.072,0.35-0.047,0.492,0.058c0.384,0.284,0.778,0.429,1.168,0.429
			c1.467,0,2.66-1.76,2.66-3.924c0-1.21-0.388-2.341-1.064-3.103c-0.119-0.134-0.157-0.32-0.101-0.49
			c0.057-0.169,0.199-0.296,0.375-0.332c6.308-1.291,12.706-1.291,19.014,0c0.175,0.036,0.318,0.163,0.375,0.332
			c0.056,0.17,0.018,0.356-0.101,0.49c-0.676,0.762-1.064,1.893-1.064,3.103c0,2.164,1.193,3.924,2.66,3.924
			c0.391,0,0.784-0.145,1.168-0.429c0.142-0.104,0.329-0.13,0.492-0.058c0.163,0.068,0.277,0.219,0.301,0.394
			c0.557,4.168,0.557,8.395,0,12.563c-0.023,0.175-0.138,0.325-0.301,0.394c-0.163,0.07-0.351,0.047-0.492-0.058
			c-0.384-0.284-0.778-0.429-1.168-0.429c-1.467,0-2.66,1.76-2.66,3.924c0,1.21,0.388,2.341,1.064,3.103
			c0.119,0.134,0.157,0.32,0.101,0.49c-0.057,0.169-0.199,0.296-0.375,0.332C21.353,29.683,18.176,30.005,15,30.005z M6.46,28.207
			c5.671,1.064,11.408,1.064,17.079,0c-0.529-0.871-0.823-1.959-0.823-3.095c0-2.715,1.642-4.924,3.66-4.924
			c0.361,0,0.717,0.074,1.063,0.22c0.422-3.592,0.422-7.225,0-10.816c-0.346,0.146-0.702,0.22-1.063,0.22
			c-2.018,0-3.66-2.209-3.66-4.924c0-1.136,0.294-2.224,0.823-3.095c-5.671-1.064-11.408-1.064-17.079,0
			C6.99,2.664,7.284,3.752,7.284,4.888c0,2.715-1.642,4.924-3.66,4.924c-0.361,0-0.717-0.074-1.063-0.22
			c-0.422,3.592-0.422,7.225,0,10.816c0.346-0.146,0.702-0.22,1.063-0.22c2.018,0,3.66,2.209,3.66,4.924
			C7.284,26.248,6.99,27.336,6.46,28.207z"/>
	</g>
</g>
<g id="Frame_22">
</g>
<g id="Frame_23">
</g>
<g id="Frame_24">
</g>
<g id="Frame_25">
</g>
<g id="Frame_26">
</g>
<g id="Frame_27">
</g>
<g id="Frame_28">
</g>
<g id="Frame_29">
</g>
<g id="Frame_30">
</g>
<g id="Frame_Hole_1">
</g>
<g id="Frame_Hole_2">
</g>
<g id="Frame_Hole_3">
</g>
<g id="Frame_Hole_4">
</g>
<g id="Frame_31">
</g>
<g id="Frame_32">
</g>
<g id="Frame_33">
</g>
<g id="Frame_34">
</g>
<g id="Frame_35">
</g>
<g id="Dashed_Frame_1">
</g>
<g id="Dashed_Frame_2">
</g>
<g id="Dashed_Frame_3">
</g>
<g id="Dashed_Frame_4">
</g>
<g id="Dashed_Frame_5">
</g>
<g id="Dashed_Frame_6">
</g>
<g id="Dashed_Frame_7">
</g>
<g id="Dashed_Frame_8">
</g>
<g id="Dashed_Frame_9">
</g>
<g id="Dashed_Frame_10">
</g>
<g id="Dashed_Frame_11">
</g>
<g id="Dashed_Frame_12">
</g>
<g id="Dashed_Frame_13">
</g>
<g id="Dashed_Frame_14">
</g>
<g id="Dashed_Frame_15">
</g>
<g id="Dashed_Frame_16">
</g>
<g id="Dashed_Frame_17">
</g>
<g id="Dashed_Frame_18">
</g>
<g id="Dashed_Frame_19">
</g>
<g id="Dashed_Frame_20">
</g>
<g id="Dashed_Frame_25">
</g>
<g id="Dashed_Frame_26">
</g>
<g id="Dashed_Frame_27">
</g>
<g id="Dashed_Frame_28">
</g>
<g id="Dashed_Frame_29">
</g>
<g id="Dashed_Frame_30">
</g>
<g id="Dashed_Frame_31">
</g>
<g id="Dashed_Frame_32">
</g>
<g id="Dashed_Frame_33">
</g>
<g id="Dashed_Frame_35">
</g>
</svg>
