<?xml version="1.0" encoding="iso-8859-1"?>
<!-- Generator: Adobe Illustrator 19.2.1, SVG Export Plug-In . SVG Version: 6.00 Build 0)  -->
<svg version="1.1" xmlns="http://www.w3.org/2000/svg" xmlns:xlink="http://www.w3.org/1999/xlink" x="0px" y="0px"
	 viewBox="0 0 30 30" style="enable-background:new 0 0 30 30;" xml:space="preserve">
<g id="Photo_frame">
</g>
<g id="Photo_frame_2">
</g>
<g id="Photo_frame_3">
</g>
<g id="Photo_frame__4">
</g>
<g id="Photo_frame_5">
</g>
<g id="Photo_frame_6">
</g>
<g id="Photo_frame_7">
</g>
<g id="Round_Frame_1">
</g>
<g id="Rectangle_Frame_1">
</g>
<g id="Square_Frame_1">
</g>
<g id="Rectangle_Frame_2">
</g>
<g id="Oval_Frame_1">
</g>
<g id="Round_Frame_2">
</g>
<g id="Rectangle_Frame_3">
</g>
<g id="Rectangle_Frame_4">
</g>
<g id="Rectangle_Frame_5">
</g>
<g id="Square_Frame_2">
</g>
<g id="Rectangle_Frame_6">
</g>
<g id="Rectangle_Frame_7">
</g>
<g id="Oval_Frame_2">
</g>
<g id="Round_Frame_3">
</g>
<g id="Rectangle_Frame_8">
</g>
<g id="Square_Frame_3">
</g>
<g id="Rectangle_Frame_9">
</g>
<g id="Rectangle_Frame_10">
</g>
<g id="Square_Frame_4">
</g>
<g id="Rectangle_Frame_11">
</g>
<g id="Rectangle_Frame_12">
</g>
<g id="Square_Frame_5">
</g>
<g id="Rectangle_Frame_13">
</g>
<g id="Round_Frame">
</g>
<g id="Frame_2">
</g>
<g id="Frame_1">
</g>
<g id="Frame_3">
</g>
<g id="Frame_4">
</g>
<g id="Frame_5">
</g>
<g id="Frame_6">
</g>
<g id="Frame_7">
</g>
<g id="Frame_8">
</g>
<g id="Frame_9">
</g>
<g id="Frame_10">
</g>
<g id="Frame_11">
</g>
<g id="Frame_12">
</g>
<g id="Frame_13">
	<g>
		<path d="M18.152,30h-6.305c-0.971,0-1.761-0.816-1.761-1.818c0-1.905-1.473-3.455-3.283-3.455c-0.276,0-0.5-0.224-0.5-0.5
			c0-1.905-1.472-3.454-3.282-3.454C1.355,20.773,0,19.366,0,17.636v-5.272c0-1.729,1.355-3.137,3.021-3.137
			c1.81,0,3.283-1.549,3.283-3.454c0-0.276,0.224-0.5,0.5-0.5c1.81,0,3.283-1.55,3.283-3.455c0-1.002,0.79-1.818,1.761-1.818h6.305
			c0.971,0,1.761,0.816,1.761,1.818c0,1.905,1.473,3.455,3.283,3.455c0.276,0,0.5,0.224,0.5,0.5c0,1.905,1.472,3.454,3.282,3.454
			c1.667,0,3.022,1.407,3.022,3.137v5.272c0,1.729-1.355,3.137-3.022,3.137c-1.81,0-3.282,1.549-3.282,3.454
			c0,0.276-0.224,0.5-0.5,0.5c-1.81,0-3.283,1.55-3.283,3.455C19.913,29.184,19.123,30,18.152,30z M7.28,23.754
			c2.138,0.247,3.807,2.138,3.807,4.427c0,0.451,0.341,0.818,0.761,0.818h6.305c0.419,0,0.761-0.367,0.761-0.818
			c0-2.289,1.668-4.18,3.807-4.427c0.228-2.234,2.051-3.981,4.258-3.981c1.115,0,2.022-0.958,2.022-2.137v-5.272
			c0-1.178-0.907-2.137-2.021-2.137c-2.208,0-4.031-1.747-4.259-3.981c-2.138-0.247-3.807-2.138-3.807-4.427
			C18.913,1.367,18.572,1,18.152,1h-6.305c-0.419,0-0.761,0.367-0.761,0.818c0,2.289-1.668,4.18-3.807,4.427
			c-0.228,2.234-2.051,3.981-4.258,3.981C1.907,10.227,1,11.186,1,12.364v5.272c0,1.178,0.907,2.137,2.022,2.137
			C5.229,19.773,7.053,21.52,7.28,23.754z M7.304,24h0.01H7.304z"/>
	</g>
</g>
<g id="Frame_14">
</g>
<g id="Frame_15">
</g>
<g id="Frame_16">
</g>
<g id="Frame_17">
</g>
<g id="Frame_18">
</g>
<g id="Frame_19">
</g>
<g id="Frame_20">
</g>
<g id="Frame_21">
</g>
<g id="Frame_22">
</g>
<g id="Frame_23">
</g>
<g id="Frame_24">
</g>
<g id="Frame_25">
</g>
<g id="Frame_26">
</g>
<g id="Frame_27">
</g>
<g id="Frame_28">
</g>
<g id="Frame_29">
</g>
<g id="Frame_30">
</g>
<g id="Frame_Hole_1">
</g>
<g id="Frame_Hole_2">
</g>
<g id="Frame_Hole_3">
</g>
<g id="Frame_Hole_4">
</g>
<g id="Frame_31">
</g>
<g id="Frame_32">
</g>
<g id="Frame_33">
</g>
<g id="Frame_34">
</g>
<g id="Frame_35">
</g>
<g id="Dashed_Frame_1">
</g>
<g id="Dashed_Frame_2">
</g>
<g id="Dashed_Frame_3">
</g>
<g id="Dashed_Frame_4">
</g>
<g id="Dashed_Frame_5">
</g>
<g id="Dashed_Frame_6">
</g>
<g id="Dashed_Frame_7">
</g>
<g id="Dashed_Frame_8">
</g>
<g id="Dashed_Frame_9">
</g>
<g id="Dashed_Frame_10">
</g>
<g id="Dashed_Frame_11">
</g>
<g id="Dashed_Frame_12">
</g>
<g id="Dashed_Frame_13">
</g>
<g id="Dashed_Frame_14">
</g>
<g id="Dashed_Frame_15">
</g>
<g id="Dashed_Frame_16">
</g>
<g id="Dashed_Frame_17">
</g>
<g id="Dashed_Frame_18">
</g>
<g id="Dashed_Frame_19">
</g>
<g id="Dashed_Frame_20">
</g>
<g id="Dashed_Frame_25">
</g>
<g id="Dashed_Frame_26">
</g>
<g id="Dashed_Frame_27">
</g>
<g id="Dashed_Frame_28">
</g>
<g id="Dashed_Frame_29">
</g>
<g id="Dashed_Frame_30">
</g>
<g id="Dashed_Frame_31">
</g>
<g id="Dashed_Frame_32">
</g>
<g id="Dashed_Frame_33">
</g>
<g id="Dashed_Frame_35">
</g>
</svg>
