<?xml version="1.0" encoding="iso-8859-1"?>
<!-- Generator: Adobe Illustrator 19.2.1, SVG Export Plug-In . SVG Version: 6.00 Build 0)  -->
<svg version="1.1" xmlns="http://www.w3.org/2000/svg" xmlns:xlink="http://www.w3.org/1999/xlink" x="0px" y="0px"
	 viewBox="0 0 30 30" style="enable-background:new 0 0 30 30;" xml:space="preserve">
<g id="Photo_frame">
</g>
<g id="Photo_frame_2">
</g>
<g id="Photo_frame_3">
</g>
<g id="Photo_frame__4">
</g>
<g id="Photo_frame_5">
</g>
<g id="Photo_frame_6">
</g>
<g id="Photo_frame_7">
</g>
<g id="Round_Frame_1">
</g>
<g id="Rectangle_Frame_1">
</g>
<g id="Square_Frame_1">
</g>
<g id="Rectangle_Frame_2">
</g>
<g id="Oval_Frame_1">
</g>
<g id="Round_Frame_2">
</g>
<g id="Rectangle_Frame_3">
</g>
<g id="Rectangle_Frame_4">
</g>
<g id="Rectangle_Frame_5">
</g>
<g id="Square_Frame_2">
</g>
<g id="Rectangle_Frame_6">
</g>
<g id="Rectangle_Frame_7">
</g>
<g id="Oval_Frame_2">
</g>
<g id="Round_Frame_3">
</g>
<g id="Rectangle_Frame_8">
</g>
<g id="Square_Frame_3">
</g>
<g id="Rectangle_Frame_9">
</g>
<g id="Rectangle_Frame_10">
</g>
<g id="Square_Frame_4">
</g>
<g id="Rectangle_Frame_11">
</g>
<g id="Rectangle_Frame_12">
</g>
<g id="Square_Frame_5">
</g>
<g id="Rectangle_Frame_13">
</g>
<g id="Round_Frame">
</g>
<g id="Frame_2">
</g>
<g id="Frame_1">
</g>
<g id="Frame_3">
</g>
<g id="Frame_4">
</g>
<g id="Frame_5">
</g>
<g id="Frame_6">
</g>
<g id="Frame_7">
</g>
<g id="Frame_8">
</g>
<g id="Frame_9">
</g>
<g id="Frame_10">
</g>
<g id="Frame_11">
</g>
<g id="Frame_12">
</g>
<g id="Frame_13">
</g>
<g id="Frame_14">
</g>
<g id="Frame_15">
</g>
<g id="Frame_16">
</g>
<g id="Frame_17">
</g>
<g id="Frame_18">
</g>
<g id="Frame_19">
</g>
<g id="Frame_20">
</g>
<g id="Frame_21">
</g>
<g id="Frame_22">
</g>
<g id="Frame_23">
</g>
<g id="Frame_24">
</g>
<g id="Frame_25">
</g>
<g id="Frame_26">
</g>
<g id="Frame_27">
</g>
<g id="Frame_28">
</g>
<g id="Frame_29">
</g>
<g id="Frame_30">
</g>
<g id="Frame_Hole_1">
</g>
<g id="Frame_Hole_2">
</g>
<g id="Frame_Hole_3">
</g>
<g id="Frame_Hole_4">
</g>
<g id="Frame_31">
</g>
<g id="Frame_32">
</g>
<g id="Frame_33">
</g>
<g id="Frame_34">
</g>
<g id="Frame_35">
	<g>
		<path d="M14.856,29.709c-1.091,0-2.164-0.328-3.091-0.987L9.66,27H3.5C3.224,27,3,26.776,3,26.5v-2.501
			c-1.914-1.237-2.867-3.419-2.497-5.767l0.138-2.178c0.139-0.888,0.157-1.522,0.064-2.104l-0.409-3.324
			C-0.035,8.545,1.066,6.586,3,5.756V3.5C3,3.224,3.224,3,3.5,3h6.17l2.082-1.593c2.029-1.44,4.567-1.489,6.481-0.129L20.339,3H26.5
			C26.776,3,27,3.224,27,3.5v2.257c1.933,0.828,3.034,2.785,2.702,4.88l-0.468,3.325c-0.094,0.591-0.075,1.226,0.059,2.067
			l0.233,2.228c0.368,2.313-0.596,4.496-2.526,5.74V26.5c0,0.276-0.224,0.5-0.5,0.5h-6.171l-2.082,1.593
			C17.2,29.336,16.019,29.709,14.856,29.709z M4,26h5.839c0.115,0,0.228,0.04,0.316,0.113l2.217,1.814
			c1.535,1.087,3.618,1.042,5.281-0.14l2.203-1.686C19.943,26.036,20.051,26,20.16,26H26v-2.283c0-0.179,0.095-0.344,0.25-0.433
			c1.756-1.017,2.61-2.847,2.285-4.897l-0.233-2.228c-0.09-0.563-0.055-1.45,0.087-2.345L29,10.493c0-0.003,0-0.006,0-0.009
			c0-1.755-0.819-3.326-2.52-3.912C26.279,6.503,26,6.313,26,6.1V4h-5.84c-0.115,0-0.228-0.04-0.316-0.113l-2.217-1.814
			c-1.536-1.088-3.618-1.043-5.281,0.14l-2.203,1.686C10.056,3.964,9.948,4,9.839,4H4v2.099c0,0.213-0.136,0.403-0.337,0.473
			C1.962,7.157,1.007,8.73,1.286,10.486l0.409,3.324c0.14,0.878,0.031,1.765-0.062,2.354l-0.138,2.178
			c-0.33,2.105,0.514,3.937,2.254,4.943C3.905,23.375,4,23.54,4,23.719V26z"/>
	</g>
</g>
<g id="Dashed_Frame_1">
</g>
<g id="Dashed_Frame_2">
</g>
<g id="Dashed_Frame_3">
</g>
<g id="Dashed_Frame_4">
</g>
<g id="Dashed_Frame_5">
</g>
<g id="Dashed_Frame_6">
</g>
<g id="Dashed_Frame_7">
</g>
<g id="Dashed_Frame_8">
</g>
<g id="Dashed_Frame_9">
</g>
<g id="Dashed_Frame_10">
</g>
<g id="Dashed_Frame_11">
</g>
<g id="Dashed_Frame_12">
</g>
<g id="Dashed_Frame_13">
</g>
<g id="Dashed_Frame_14">
</g>
<g id="Dashed_Frame_15">
</g>
<g id="Dashed_Frame_16">
</g>
<g id="Dashed_Frame_17">
</g>
<g id="Dashed_Frame_18">
</g>
<g id="Dashed_Frame_19">
</g>
<g id="Dashed_Frame_20">
</g>
<g id="Dashed_Frame_25">
</g>
<g id="Dashed_Frame_26">
</g>
<g id="Dashed_Frame_27">
</g>
<g id="Dashed_Frame_28">
</g>
<g id="Dashed_Frame_29">
</g>
<g id="Dashed_Frame_30">
</g>
<g id="Dashed_Frame_31">
</g>
<g id="Dashed_Frame_32">
</g>
<g id="Dashed_Frame_33">
</g>
<g id="Dashed_Frame_35">
</g>
</svg>
