<?xml version="1.0" encoding="iso-8859-1"?>
<!-- Generator: Adobe Illustrator 19.2.1, SVG Export Plug-In . SVG Version: 6.00 Build 0)  -->
<svg version="1.1" xmlns="http://www.w3.org/2000/svg" xmlns:xlink="http://www.w3.org/1999/xlink" x="0px" y="0px"
	 viewBox="0 0 30 30" style="enable-background:new 0 0 30 30;" xml:space="preserve">
<g id="Photo_frame">
</g>
<g id="Photo_frame_2">
</g>
<g id="Photo_frame_3">
</g>
<g id="Photo_frame__4">
</g>
<g id="Photo_frame_5">
</g>
<g id="Photo_frame_6">
</g>
<g id="Photo_frame_7">
</g>
<g id="Round_Frame_1">
</g>
<g id="Rectangle_Frame_1">
</g>
<g id="Square_Frame_1">
</g>
<g id="Rectangle_Frame_2">
</g>
<g id="Oval_Frame_1">
</g>
<g id="Round_Frame_2">
</g>
<g id="Rectangle_Frame_3">
</g>
<g id="Rectangle_Frame_4">
</g>
<g id="Rectangle_Frame_5">
</g>
<g id="Square_Frame_2">
</g>
<g id="Rectangle_Frame_6">
</g>
<g id="Rectangle_Frame_7">
</g>
<g id="Oval_Frame_2">
</g>
<g id="Round_Frame_3">
</g>
<g id="Rectangle_Frame_8">
</g>
<g id="Square_Frame_3">
</g>
<g id="Rectangle_Frame_9">
</g>
<g id="Rectangle_Frame_10">
</g>
<g id="Square_Frame_4">
</g>
<g id="Rectangle_Frame_11">
</g>
<g id="Rectangle_Frame_12">
</g>
<g id="Square_Frame_5">
</g>
<g id="Rectangle_Frame_13">
</g>
<g id="Round_Frame">
</g>
<g id="Frame_2">
</g>
<g id="Frame_1">
</g>
<g id="Frame_3">
</g>
<g id="Frame_4">
</g>
<g id="Frame_5">
</g>
<g id="Frame_6">
</g>
<g id="Frame_7">
</g>
<g id="Frame_8">
</g>
<g id="Frame_9">
</g>
<g id="Frame_10">
</g>
<g id="Frame_11">
	<g>
		<path d="M15,30c-2.263,0-4.141-1.306-4.454-3H9.33c-0.276,0-0.5-0.224-0.5-0.5c0-2.74-2.59-5.33-5.33-5.33
			c-0.276,0-0.5-0.224-0.5-0.5v-1.216C1.306,19.141,0,17.263,0,15s1.306-4.141,3-4.454V9.33c0-0.276,0.224-0.5,0.5-0.5
			c2.74,0,5.33-2.59,5.33-5.33c0-0.276,0.224-0.5,0.5-0.5h1.216C10.859,1.306,12.737,0,15,0s4.141,1.306,4.454,3h1.216
			c0.276,0,0.5,0.224,0.5,0.5c0,2.74,2.59,5.33,5.33,5.33c0.276,0,0.5,0.224,0.5,0.5v1.216c1.694,0.313,3,2.191,3,4.454
			s-1.306,4.141-3,4.454v1.216c0,0.276-0.224,0.5-0.5,0.5c-2.74,0-5.33,2.59-5.33,5.33c0,0.276-0.224,0.5-0.5,0.5h-1.216
			C19.141,28.694,17.263,30,15,30z M9.806,26H11c0.276,0,0.5,0.224,0.5,0.5c0,1.378,1.57,2.5,3.5,2.5s3.5-1.122,3.5-2.5
			c0-0.276,0.224-0.5,0.5-0.5h1.194c0.277-2.896,2.91-5.529,5.806-5.806V19c0-0.276,0.224-0.5,0.5-0.5c1.378,0,2.5-1.57,2.5-3.5
			s-1.122-3.5-2.5-3.5c-0.276,0-0.5-0.224-0.5-0.5V9.806C23.104,9.529,20.471,6.896,20.194,4H19c-0.276,0-0.5-0.224-0.5-0.5
			C18.5,2.122,16.93,1,15,1s-3.5,1.122-3.5,2.5C11.5,3.776,11.276,4,11,4H9.806C9.529,6.896,6.896,9.529,4,9.806V11
			c0,0.276-0.224,0.5-0.5,0.5C2.122,11.5,1,13.07,1,15s1.122,3.5,2.5,3.5C3.776,18.5,4,18.724,4,19v1.194
			C6.896,20.471,9.529,23.104,9.806,26z"/>
	</g>
</g>
<g id="Frame_12">
</g>
<g id="Frame_13">
</g>
<g id="Frame_14">
</g>
<g id="Frame_15">
</g>
<g id="Frame_16">
</g>
<g id="Frame_17">
</g>
<g id="Frame_18">
</g>
<g id="Frame_19">
</g>
<g id="Frame_20">
</g>
<g id="Frame_21">
</g>
<g id="Frame_22">
</g>
<g id="Frame_23">
</g>
<g id="Frame_24">
</g>
<g id="Frame_25">
</g>
<g id="Frame_26">
</g>
<g id="Frame_27">
</g>
<g id="Frame_28">
</g>
<g id="Frame_29">
</g>
<g id="Frame_30">
</g>
<g id="Frame_Hole_1">
</g>
<g id="Frame_Hole_2">
</g>
<g id="Frame_Hole_3">
</g>
<g id="Frame_Hole_4">
</g>
<g id="Frame_31">
</g>
<g id="Frame_32">
</g>
<g id="Frame_33">
</g>
<g id="Frame_34">
</g>
<g id="Frame_35">
</g>
<g id="Dashed_Frame_1">
</g>
<g id="Dashed_Frame_2">
</g>
<g id="Dashed_Frame_3">
</g>
<g id="Dashed_Frame_4">
</g>
<g id="Dashed_Frame_5">
</g>
<g id="Dashed_Frame_6">
</g>
<g id="Dashed_Frame_7">
</g>
<g id="Dashed_Frame_8">
</g>
<g id="Dashed_Frame_9">
</g>
<g id="Dashed_Frame_10">
</g>
<g id="Dashed_Frame_11">
</g>
<g id="Dashed_Frame_12">
</g>
<g id="Dashed_Frame_13">
</g>
<g id="Dashed_Frame_14">
</g>
<g id="Dashed_Frame_15">
</g>
<g id="Dashed_Frame_16">
</g>
<g id="Dashed_Frame_17">
</g>
<g id="Dashed_Frame_18">
</g>
<g id="Dashed_Frame_19">
</g>
<g id="Dashed_Frame_20">
</g>
<g id="Dashed_Frame_25">
</g>
<g id="Dashed_Frame_26">
</g>
<g id="Dashed_Frame_27">
</g>
<g id="Dashed_Frame_28">
</g>
<g id="Dashed_Frame_29">
</g>
<g id="Dashed_Frame_30">
</g>
<g id="Dashed_Frame_31">
</g>
<g id="Dashed_Frame_32">
</g>
<g id="Dashed_Frame_33">
</g>
<g id="Dashed_Frame_35">
</g>
</svg>
