<?xml version="1.0" encoding="iso-8859-1"?>
<!-- Generator: Adobe Illustrator 19.2.1, SVG Export Plug-In . SVG Version: 6.00 Build 0)  -->
<svg version="1.1" xmlns="http://www.w3.org/2000/svg" xmlns:xlink="http://www.w3.org/1999/xlink" x="0px" y="0px"
	 viewBox="0 0 30 30" style="enable-background:new 0 0 30 30;" xml:space="preserve">
<g id="Photo_frame">
</g>
<g id="Photo_frame_2">
</g>
<g id="Photo_frame_3">
</g>
<g id="Photo_frame__4">
</g>
<g id="Photo_frame_5">
</g>
<g id="Photo_frame_6">
</g>
<g id="Photo_frame_7">
</g>
<g id="Round_Frame_1">
</g>
<g id="Rectangle_Frame_1">
</g>
<g id="Square_Frame_1">
</g>
<g id="Rectangle_Frame_2">
</g>
<g id="Oval_Frame_1">
</g>
<g id="Round_Frame_2">
</g>
<g id="Rectangle_Frame_3">
</g>
<g id="Rectangle_Frame_4">
</g>
<g id="Rectangle_Frame_5">
</g>
<g id="Square_Frame_2">
</g>
<g id="Rectangle_Frame_6">
</g>
<g id="Rectangle_Frame_7">
</g>
<g id="Oval_Frame_2">
</g>
<g id="Round_Frame_3">
</g>
<g id="Rectangle_Frame_8">
</g>
<g id="Square_Frame_3">
</g>
<g id="Rectangle_Frame_9">
</g>
<g id="Rectangle_Frame_10">
</g>
<g id="Square_Frame_4">
</g>
<g id="Rectangle_Frame_11">
</g>
<g id="Rectangle_Frame_12">
</g>
<g id="Square_Frame_5">
</g>
<g id="Rectangle_Frame_13">
</g>
<g id="Round_Frame">
</g>
<g id="Frame_2">
</g>
<g id="Frame_1">
</g>
<g id="Frame_3">
</g>
<g id="Frame_4">
</g>
<g id="Frame_5">
</g>
<g id="Frame_6">
</g>
<g id="Frame_7">
</g>
<g id="Frame_8">
</g>
<g id="Frame_9">
	<g>
		<path d="M15.005,30c-0.113,0-0.226-0.038-0.318-0.115l-2.31-1.909l-2.716-0.893C9.599,27.063,9.54,27.03,9.49,26.987L7.332,25.12
			l-2.716-0.894c-0.063-0.021-0.12-0.053-0.169-0.096l-2.131-1.829c-0.085-0.073-0.144-0.172-0.165-0.282l-0.54-2.709
			c-0.013-0.065-0.013-0.132,0-0.197l0.561-2.757l-0.561-2.757c-0.013-0.065-0.013-0.133,0-0.198l0.561-2.781l-0.524-2.9
			C1.604,7.483,1.736,7.25,1.961,7.164l2.833-1.085l2.152-1.946c0.048-0.044,0.104-0.078,0.166-0.1l2.727-0.981l2.152-1.946
			c0.048-0.043,0.104-0.077,0.163-0.099l2.674-0.976c0.111-0.04,0.233-0.04,0.343,0l2.669,0.973
			c0.061,0.022,0.117,0.056,0.165,0.099l2.147,1.943l2.726,0.981c0.062,0.022,0.118,0.056,0.166,0.1l2.156,1.95l2.837,1.085
			c0.226,0.086,0.356,0.321,0.313,0.558l-0.521,2.822l0.56,2.675c0.015,0.068,0.015,0.137,0,0.205l-0.559,2.67l0.559,2.675
			c0.014,0.067,0.015,0.136,0.001,0.203l-0.54,2.63c-0.021,0.104-0.076,0.2-0.156,0.271l-2.12,1.907
			c-0.048,0.043-0.104,0.077-0.165,0.099l-2.726,0.981L20.533,26.8c-0.048,0.044-0.104,0.078-0.165,0.1l-2.736,0.986l-2.3,1.992
			C15.238,29.959,15.122,30,15.005,30z M10.068,26.165l2.711,0.891c0.06,0.02,0.114,0.05,0.162,0.09l2.056,1.7l2.051-1.776
			c0.046-0.04,0.1-0.072,0.157-0.092l2.73-0.984l2.149-1.943c0.048-0.044,0.104-0.078,0.166-0.1l2.726-0.981l1.925-1.732
			l0.486-2.368l-0.559-2.676c-0.015-0.067-0.015-0.137,0-0.205l0.559-2.67l-0.559-2.669c-0.014-0.064-0.015-0.129-0.002-0.193
			l0.464-2.509l-2.535-0.97c-0.058-0.022-0.11-0.055-0.156-0.096l-2.152-1.946l-2.727-0.981c-0.062-0.022-0.118-0.056-0.167-0.1
			L17.406,1.91L15,1.032l-2.411,0.88l-2.153,1.947c-0.048,0.043-0.104,0.077-0.166,0.099L7.543,4.94L5.395,6.883
			C5.35,6.924,5.296,6.957,5.238,6.979l-2.533,0.97l0.468,2.586c0.011,0.062,0.011,0.126-0.002,0.188l-0.56,2.775l0.561,2.758
			c0.013,0.066,0.013,0.133,0,0.199l-0.561,2.758l0.487,2.441l1.924,1.652l2.717,0.894c0.063,0.021,0.121,0.054,0.171,0.097
			L10.068,26.165z"/>
	</g>
</g>
<g id="Frame_10">
</g>
<g id="Frame_11">
</g>
<g id="Frame_12">
</g>
<g id="Frame_13">
</g>
<g id="Frame_14">
</g>
<g id="Frame_15">
</g>
<g id="Frame_16">
</g>
<g id="Frame_17">
</g>
<g id="Frame_18">
</g>
<g id="Frame_19">
</g>
<g id="Frame_20">
</g>
<g id="Frame_21">
</g>
<g id="Frame_22">
</g>
<g id="Frame_23">
</g>
<g id="Frame_24">
</g>
<g id="Frame_25">
</g>
<g id="Frame_26">
</g>
<g id="Frame_27">
</g>
<g id="Frame_28">
</g>
<g id="Frame_29">
</g>
<g id="Frame_30">
</g>
<g id="Frame_Hole_1">
</g>
<g id="Frame_Hole_2">
</g>
<g id="Frame_Hole_3">
</g>
<g id="Frame_Hole_4">
</g>
<g id="Frame_31">
</g>
<g id="Frame_32">
</g>
<g id="Frame_33">
</g>
<g id="Frame_34">
</g>
<g id="Frame_35">
</g>
<g id="Dashed_Frame_1">
</g>
<g id="Dashed_Frame_2">
</g>
<g id="Dashed_Frame_3">
</g>
<g id="Dashed_Frame_4">
</g>
<g id="Dashed_Frame_5">
</g>
<g id="Dashed_Frame_6">
</g>
<g id="Dashed_Frame_7">
</g>
<g id="Dashed_Frame_8">
</g>
<g id="Dashed_Frame_9">
</g>
<g id="Dashed_Frame_10">
</g>
<g id="Dashed_Frame_11">
</g>
<g id="Dashed_Frame_12">
</g>
<g id="Dashed_Frame_13">
</g>
<g id="Dashed_Frame_14">
</g>
<g id="Dashed_Frame_15">
</g>
<g id="Dashed_Frame_16">
</g>
<g id="Dashed_Frame_17">
</g>
<g id="Dashed_Frame_18">
</g>
<g id="Dashed_Frame_19">
</g>
<g id="Dashed_Frame_20">
</g>
<g id="Dashed_Frame_25">
</g>
<g id="Dashed_Frame_26">
</g>
<g id="Dashed_Frame_27">
</g>
<g id="Dashed_Frame_28">
</g>
<g id="Dashed_Frame_29">
</g>
<g id="Dashed_Frame_30">
</g>
<g id="Dashed_Frame_31">
</g>
<g id="Dashed_Frame_32">
</g>
<g id="Dashed_Frame_33">
</g>
<g id="Dashed_Frame_35">
</g>
</svg>
