<?xml version="1.0" encoding="iso-8859-1"?>
<!-- Generator: Adobe Illustrator 19.2.1, SVG Export Plug-In . SVG Version: 6.00 Build 0)  -->
<svg version="1.1" xmlns="http://www.w3.org/2000/svg" xmlns:xlink="http://www.w3.org/1999/xlink" x="0px" y="0px"
	 viewBox="0 0 30 30" style="enable-background:new 0 0 30 30;" xml:space="preserve">
<g id="Photo_frame">
</g>
<g id="Photo_frame_2">
</g>
<g id="Photo_frame_3">
</g>
<g id="Photo_frame__4">
</g>
<g id="Photo_frame_5">
</g>
<g id="Photo_frame_6">
</g>
<g id="Photo_frame_7">
</g>
<g id="Round_Frame_1">
</g>
<g id="Rectangle_Frame_1">
</g>
<g id="Square_Frame_1">
</g>
<g id="Rectangle_Frame_2">
</g>
<g id="Oval_Frame_1">
</g>
<g id="Round_Frame_2">
</g>
<g id="Rectangle_Frame_3">
</g>
<g id="Rectangle_Frame_4">
</g>
<g id="Rectangle_Frame_5">
</g>
<g id="Square_Frame_2">
</g>
<g id="Rectangle_Frame_6">
</g>
<g id="Rectangle_Frame_7">
</g>
<g id="Oval_Frame_2">
</g>
<g id="Round_Frame_3">
</g>
<g id="Rectangle_Frame_8">
</g>
<g id="Square_Frame_3">
</g>
<g id="Rectangle_Frame_9">
</g>
<g id="Rectangle_Frame_10">
</g>
<g id="Square_Frame_4">
</g>
<g id="Rectangle_Frame_11">
</g>
<g id="Rectangle_Frame_12">
</g>
<g id="Square_Frame_5">
</g>
<g id="Rectangle_Frame_13">
</g>
<g id="Round_Frame">
</g>
<g id="Frame_2">
</g>
<g id="Frame_1">
</g>
<g id="Frame_3">
</g>
<g id="Frame_4">
</g>
<g id="Frame_5">
</g>
<g id="Frame_6">
</g>
<g id="Frame_7">
</g>
<g id="Frame_8">
</g>
<g id="Frame_9">
</g>
<g id="Frame_10">
</g>
<g id="Frame_11">
</g>
<g id="Frame_12">
</g>
<g id="Frame_13">
</g>
<g id="Frame_14">
</g>
<g id="Frame_15">
</g>
<g id="Frame_16">
</g>
<g id="Frame_17">
	<g>
		<path d="M26.939,25.334c-0.018,0-0.035-0.001-0.054-0.003c-0.123-0.013-0.516-0.089-1.102-0.205
			c-2.212-0.436-7.394-1.457-10.785-1.457c-3.391,0-8.572,1.021-10.784,1.457c-0.586,0.116-0.979,0.191-1.102,0.205
			C2.965,25.348,2.83,25.3,2.726,25.206c-0.105-0.095-0.166-0.23-0.166-0.372v-0.363c0-1.135-0.924-2.059-2.059-2.059
			c-0.157,0-0.305-0.074-0.399-0.199c-0.094-0.125-0.119-0.305-0.076-0.456C0.156,21.3,1.303,17.221,1.303,15
			c0-2.344-1.27-6.729-1.283-6.772c-0.044-0.151-0.014-0.314,0.08-0.44c0.095-0.126,0.243-0.2,0.4-0.2
			c1.156,0,2.06-0.903,2.06-2.014V5.166c0-0.152,0.069-0.296,0.188-0.391C2.866,4.681,3.025,4.646,3.17,4.678
			c0.073,0.017,7.341,1.652,11.829,1.652c4.489,0,11.757-1.636,11.83-1.652c0.145-0.033,0.303,0.002,0.423,0.097
			c0.118,0.095,0.188,0.239,0.188,0.391v0.408c0,1.11,0.903,2.014,2.014,2.014c0.157,0,0.329,0.074,0.424,0.2
			c0.094,0.125,0.147,0.289,0.104,0.44c-0.014,0.044-1.284,4.428-1.284,6.772c0,2.343,1.269,6.729,1.282,6.773
			c0.044,0.151,0.014,0.314-0.08,0.44c-0.095,0.125-0.243,0.2-0.4,0.2c-1.135,0-2.059,0.923-2.059,2.059v0.363
			c0,0.142-0.061,0.277-0.166,0.372C27.182,25.289,27.063,25.334,26.939,25.334z M14.999,22.669c3.489,0,8.737,1.034,10.979,1.476
			c0.177,0.035,0.335,0.066,0.471,0.093c0.104-1.363,1.104-2.479,2.41-2.758c-0.354-1.3-1.162-4.496-1.162-6.48
			c0-1.985,0.809-5.176,1.163-6.478c-1.325-0.274-2.318-1.384-2.412-2.737c-1.862,0.398-7.563,1.545-11.448,1.545
			c-3.885,0-9.585-1.146-11.447-1.545c-0.095,1.363-1.1,2.479-2.409,2.743c0.354,1.305,1.16,4.491,1.16,6.472
			c0,1.985-0.81,5.18-1.163,6.48c1.308,0.279,2.308,1.396,2.411,2.758c0.136-0.027,0.294-0.058,0.471-0.093
			C6.263,23.704,11.511,22.669,14.999,22.669z"/>
	</g>
</g>
<g id="Frame_18">
</g>
<g id="Frame_19">
</g>
<g id="Frame_20">
</g>
<g id="Frame_21">
</g>
<g id="Frame_22">
</g>
<g id="Frame_23">
</g>
<g id="Frame_24">
</g>
<g id="Frame_25">
</g>
<g id="Frame_26">
</g>
<g id="Frame_27">
</g>
<g id="Frame_28">
</g>
<g id="Frame_29">
</g>
<g id="Frame_30">
</g>
<g id="Frame_Hole_1">
</g>
<g id="Frame_Hole_2">
</g>
<g id="Frame_Hole_3">
</g>
<g id="Frame_Hole_4">
</g>
<g id="Frame_31">
</g>
<g id="Frame_32">
</g>
<g id="Frame_33">
</g>
<g id="Frame_34">
</g>
<g id="Frame_35">
</g>
<g id="Dashed_Frame_1">
</g>
<g id="Dashed_Frame_2">
</g>
<g id="Dashed_Frame_3">
</g>
<g id="Dashed_Frame_4">
</g>
<g id="Dashed_Frame_5">
</g>
<g id="Dashed_Frame_6">
</g>
<g id="Dashed_Frame_7">
</g>
<g id="Dashed_Frame_8">
</g>
<g id="Dashed_Frame_9">
</g>
<g id="Dashed_Frame_10">
</g>
<g id="Dashed_Frame_11">
</g>
<g id="Dashed_Frame_12">
</g>
<g id="Dashed_Frame_13">
</g>
<g id="Dashed_Frame_14">
</g>
<g id="Dashed_Frame_15">
</g>
<g id="Dashed_Frame_16">
</g>
<g id="Dashed_Frame_17">
</g>
<g id="Dashed_Frame_18">
</g>
<g id="Dashed_Frame_19">
</g>
<g id="Dashed_Frame_20">
</g>
<g id="Dashed_Frame_25">
</g>
<g id="Dashed_Frame_26">
</g>
<g id="Dashed_Frame_27">
</g>
<g id="Dashed_Frame_28">
</g>
<g id="Dashed_Frame_29">
</g>
<g id="Dashed_Frame_30">
</g>
<g id="Dashed_Frame_31">
</g>
<g id="Dashed_Frame_32">
</g>
<g id="Dashed_Frame_33">
</g>
<g id="Dashed_Frame_35">
</g>
</svg>
