<?xml version="1.0" encoding="iso-8859-1"?>
<!-- Generator: Adobe Illustrator 19.2.1, SVG Export Plug-In . SVG Version: 6.00 Build 0)  -->
<svg version="1.1" xmlns="http://www.w3.org/2000/svg" xmlns:xlink="http://www.w3.org/1999/xlink" x="0px" y="0px"
	 viewBox="0 0 30 30" style="enable-background:new 0 0 30 30;" xml:space="preserve">
<g id="Photo_frame">
</g>
<g id="Photo_frame_2">
</g>
<g id="Photo_frame_3">
</g>
<g id="Photo_frame__4">
</g>
<g id="Photo_frame_5">
</g>
<g id="Photo_frame_6">
</g>
<g id="Photo_frame_7">
</g>
<g id="Round_Frame_1">
</g>
<g id="Rectangle_Frame_1">
</g>
<g id="Square_Frame_1">
</g>
<g id="Rectangle_Frame_2">
</g>
<g id="Oval_Frame_1">
</g>
<g id="Round_Frame_2">
</g>
<g id="Rectangle_Frame_3">
</g>
<g id="Rectangle_Frame_4">
</g>
<g id="Rectangle_Frame_5">
</g>
<g id="Square_Frame_2">
</g>
<g id="Rectangle_Frame_6">
</g>
<g id="Rectangle_Frame_7">
</g>
<g id="Oval_Frame_2">
</g>
<g id="Round_Frame_3">
</g>
<g id="Rectangle_Frame_8">
</g>
<g id="Square_Frame_3">
</g>
<g id="Rectangle_Frame_9">
</g>
<g id="Rectangle_Frame_10">
</g>
<g id="Square_Frame_4">
</g>
<g id="Rectangle_Frame_11">
</g>
<g id="Rectangle_Frame_12">
</g>
<g id="Square_Frame_5">
</g>
<g id="Rectangle_Frame_13">
</g>
<g id="Round_Frame">
</g>
<g id="Frame_2">
</g>
<g id="Frame_1">
</g>
<g id="Frame_3">
</g>
<g id="Frame_4">
</g>
<g id="Frame_5">
</g>
<g id="Frame_6">
</g>
<g id="Frame_7">
</g>
<g id="Frame_8">
</g>
<g id="Frame_9">
</g>
<g id="Frame_10">
	<g>
		<path d="M15,30c-1.984,0-3.718-0.776-4.525-2H7.06c-0.213,0-0.402-0.135-0.472-0.336c-0.687-1.976-2.276-3.565-4.252-4.252
			C2.135,23.342,2,23.153,2,22.94v-3.415C0.776,18.718,0,16.984,0,15s0.776-3.718,2-4.525V7.06c0-0.213,0.135-0.402,0.336-0.472
			c1.976-0.687,3.565-2.276,4.252-4.252C6.658,2.135,6.847,2,7.06,2h3.415C11.282,0.776,13.016,0,15,0s3.718,0.776,4.525,2h3.415
			c0.213,0,0.402,0.135,0.472,0.336c0.687,1.976,2.276,3.565,4.252,4.252C27.865,6.658,28,6.847,28,7.06v3.415
			c1.224,0.807,2,2.541,2,4.525s-0.776,3.718-2,4.525v3.415c0,0.213-0.135,0.402-0.336,0.472c-1.976,0.687-3.565,2.276-4.252,4.252
			C23.342,27.865,23.153,28,22.94,28h-3.415C18.718,29.224,16.984,30,15,30z M7.407,27h3.353c0.187,0,0.357,0.104,0.443,0.269
			C11.743,28.304,13.269,29,15,29s3.257-0.696,3.797-1.731C18.883,27.104,19.054,27,19.24,27h3.353
			c0.799-1.995,2.412-3.607,4.407-4.407V19.24c0-0.187,0.104-0.357,0.269-0.443C28.304,18.257,29,16.731,29,15
			s-0.696-3.257-1.731-3.797C27.104,11.117,27,10.946,27,10.76V7.407C25.005,6.607,23.393,4.995,22.593,3H19.24
			c-0.187,0-0.357-0.104-0.443-0.269C18.257,1.696,16.731,1,15,1s-3.257,0.696-3.797,1.731C11.117,2.896,10.946,3,10.76,3H7.407
			C6.607,4.995,4.995,6.607,3,7.407v3.353c0,0.187-0.104,0.357-0.269,0.443C1.696,11.743,1,13.269,1,15s0.696,3.257,1.731,3.797
			C2.896,18.883,3,19.054,3,19.24v3.353C4.995,23.393,6.607,25.005,7.407,27z"/>
	</g>
</g>
<g id="Frame_11">
</g>
<g id="Frame_12">
</g>
<g id="Frame_13">
</g>
<g id="Frame_14">
</g>
<g id="Frame_15">
</g>
<g id="Frame_16">
</g>
<g id="Frame_17">
</g>
<g id="Frame_18">
</g>
<g id="Frame_19">
</g>
<g id="Frame_20">
</g>
<g id="Frame_21">
</g>
<g id="Frame_22">
</g>
<g id="Frame_23">
</g>
<g id="Frame_24">
</g>
<g id="Frame_25">
</g>
<g id="Frame_26">
</g>
<g id="Frame_27">
</g>
<g id="Frame_28">
</g>
<g id="Frame_29">
</g>
<g id="Frame_30">
</g>
<g id="Frame_Hole_1">
</g>
<g id="Frame_Hole_2">
</g>
<g id="Frame_Hole_3">
</g>
<g id="Frame_Hole_4">
</g>
<g id="Frame_31">
</g>
<g id="Frame_32">
</g>
<g id="Frame_33">
</g>
<g id="Frame_34">
</g>
<g id="Frame_35">
</g>
<g id="Dashed_Frame_1">
</g>
<g id="Dashed_Frame_2">
</g>
<g id="Dashed_Frame_3">
</g>
<g id="Dashed_Frame_4">
</g>
<g id="Dashed_Frame_5">
</g>
<g id="Dashed_Frame_6">
</g>
<g id="Dashed_Frame_7">
</g>
<g id="Dashed_Frame_8">
</g>
<g id="Dashed_Frame_9">
</g>
<g id="Dashed_Frame_10">
</g>
<g id="Dashed_Frame_11">
</g>
<g id="Dashed_Frame_12">
</g>
<g id="Dashed_Frame_13">
</g>
<g id="Dashed_Frame_14">
</g>
<g id="Dashed_Frame_15">
</g>
<g id="Dashed_Frame_16">
</g>
<g id="Dashed_Frame_17">
</g>
<g id="Dashed_Frame_18">
</g>
<g id="Dashed_Frame_19">
</g>
<g id="Dashed_Frame_20">
</g>
<g id="Dashed_Frame_25">
</g>
<g id="Dashed_Frame_26">
</g>
<g id="Dashed_Frame_27">
</g>
<g id="Dashed_Frame_28">
</g>
<g id="Dashed_Frame_29">
</g>
<g id="Dashed_Frame_30">
</g>
<g id="Dashed_Frame_31">
</g>
<g id="Dashed_Frame_32">
</g>
<g id="Dashed_Frame_33">
</g>
<g id="Dashed_Frame_35">
</g>
</svg>
