<?xml version="1.0" encoding="iso-8859-1"?>
<!-- Generator: Adobe Illustrator 19.2.1, SVG Export Plug-In . SVG Version: 6.00 Build 0)  -->
<svg version="1.1" xmlns="http://www.w3.org/2000/svg" xmlns:xlink="http://www.w3.org/1999/xlink" x="0px" y="0px"
	 viewBox="0 0 30 30" style="enable-background:new 0 0 30 30;" xml:space="preserve">
<g id="Photo_frame">
</g>
<g id="Photo_frame_2">
</g>
<g id="Photo_frame_3">
</g>
<g id="Photo_frame__4">
</g>
<g id="Photo_frame_5">
</g>
<g id="Photo_frame_6">
</g>
<g id="Photo_frame_7">
</g>
<g id="Round_Frame_1">
</g>
<g id="Rectangle_Frame_1">
</g>
<g id="Square_Frame_1">
</g>
<g id="Rectangle_Frame_2">
</g>
<g id="Oval_Frame_1">
</g>
<g id="Round_Frame_2">
</g>
<g id="Rectangle_Frame_3">
</g>
<g id="Rectangle_Frame_4">
</g>
<g id="Rectangle_Frame_5">
</g>
<g id="Square_Frame_2">
</g>
<g id="Rectangle_Frame_6">
</g>
<g id="Rectangle_Frame_7">
</g>
<g id="Oval_Frame_2">
</g>
<g id="Round_Frame_3">
</g>
<g id="Rectangle_Frame_8">
</g>
<g id="Square_Frame_3">
</g>
<g id="Rectangle_Frame_9">
</g>
<g id="Rectangle_Frame_10">
</g>
<g id="Square_Frame_4">
</g>
<g id="Rectangle_Frame_11">
	<g>
		<g>
			<path d="M3.5,7h-3C0.224,7,0,6.776,0,6.5v-3C0,3.224,0.224,3,0.5,3h3C3.776,3,4,3.224,4,3.5v3C4,6.776,3.776,7,3.5,7z M1,6h2V4H1
				V6z"/>
		</g>
		<g>
			<path d="M29.5,7h-3C26.224,7,26,6.776,26,6.5v-3C26,3.224,26.224,3,26.5,3h3C29.776,3,30,3.224,30,3.5v3
				C30,6.776,29.776,7,29.5,7z M27,6h2V4h-2V6z"/>
		</g>
		<g>
			<path d="M3.5,27h-3C0.224,27,0,26.776,0,26.5v-3C0,23.224,0.224,23,0.5,23h3C3.776,23,4,23.224,4,23.5v3
				C4,26.776,3.776,27,3.5,27z M1,26h2v-2H1V26z"/>
		</g>
		<g>
			<path d="M29.5,27h-3c-0.276,0-0.5-0.224-0.5-0.5v-3c0-0.276,0.224-0.5,0.5-0.5h3c0.276,0,0.5,0.224,0.5,0.5v3
				C30,26.776,29.776,27,29.5,27z M27,26h2v-2h-2V26z"/>
		</g>
		<g>
			<path d="M24.5,22h-19C5.224,22,5,21.776,5,21.5v-13C5,8.224,5.224,8,5.5,8h19C24.776,8,25,8.224,25,8.5v13
				C25,21.776,24.776,22,24.5,22z M6,21h18V9H6V21z"/>
		</g>
		<g>
			<path d="M29.5,27h-29C0.224,27,0,26.776,0,26.5v-23C0,3.224,0.224,3,0.5,3h29C29.776,3,30,3.224,30,3.5v23
				C30,26.776,29.776,27,29.5,27z M1,26h28V4H1V26z"/>
		</g>
		<g>
			<path d="M3.5,24c-0.128,0-0.256-0.049-0.354-0.146c-0.195-0.195-0.195-0.512,0-0.707l2-2c0.195-0.195,0.512-0.195,0.707,0
				s0.195,0.512,0,0.707l-2,2C3.756,23.951,3.628,24,3.5,24z"/>
		</g>
		<g>
			<path d="M5.5,9C5.372,9,5.244,8.951,5.146,8.854l-2-2c-0.195-0.195-0.195-0.512,0-0.707s0.512-0.195,0.707,0l2,2
				c0.195,0.195,0.195,0.512,0,0.707C5.756,8.951,5.628,9,5.5,9z"/>
		</g>
		<g>
			<path d="M24.5,9c-0.128,0-0.256-0.049-0.354-0.146c-0.195-0.195-0.195-0.512,0-0.707l2-2c0.195-0.195,0.512-0.195,0.707,0
				s0.195,0.512,0,0.707l-2,2C24.756,8.951,24.628,9,24.5,9z"/>
		</g>
		<g>
			<path d="M26.5,24c-0.128,0-0.256-0.049-0.354-0.146l-2-2c-0.195-0.195-0.195-0.512,0-0.707s0.512-0.195,0.707,0l2,2
				c0.195,0.195,0.195,0.512,0,0.707C26.756,23.951,26.628,24,26.5,24z"/>
		</g>
	</g>
</g>
<g id="Rectangle_Frame_12">
</g>
<g id="Square_Frame_5">
</g>
<g id="Rectangle_Frame_13">
</g>
<g id="Round_Frame">
</g>
<g id="Frame_2">
</g>
<g id="Frame_1">
</g>
<g id="Frame_3">
</g>
<g id="Frame_4">
</g>
<g id="Frame_5">
</g>
<g id="Frame_6">
</g>
<g id="Frame_7">
</g>
<g id="Frame_8">
</g>
<g id="Frame_9">
</g>
<g id="Frame_10">
</g>
<g id="Frame_11">
</g>
<g id="Frame_12">
</g>
<g id="Frame_13">
</g>
<g id="Frame_14">
</g>
<g id="Frame_15">
</g>
<g id="Frame_16">
</g>
<g id="Frame_17">
</g>
<g id="Frame_18">
</g>
<g id="Frame_19">
</g>
<g id="Frame_20">
</g>
<g id="Frame_21">
</g>
<g id="Frame_22">
</g>
<g id="Frame_23">
</g>
<g id="Frame_24">
</g>
<g id="Frame_25">
</g>
<g id="Frame_26">
</g>
<g id="Frame_27">
</g>
<g id="Frame_28">
</g>
<g id="Frame_29">
</g>
<g id="Frame_30">
</g>
<g id="Frame_Hole_1">
</g>
<g id="Frame_Hole_2">
</g>
<g id="Frame_Hole_3">
</g>
<g id="Frame_Hole_4">
</g>
<g id="Frame_31">
</g>
<g id="Frame_32">
</g>
<g id="Frame_33">
</g>
<g id="Frame_34">
</g>
<g id="Frame_35">
</g>
<g id="Dashed_Frame_1">
</g>
<g id="Dashed_Frame_2">
</g>
<g id="Dashed_Frame_3">
</g>
<g id="Dashed_Frame_4">
</g>
<g id="Dashed_Frame_5">
</g>
<g id="Dashed_Frame_6">
</g>
<g id="Dashed_Frame_7">
</g>
<g id="Dashed_Frame_8">
</g>
<g id="Dashed_Frame_9">
</g>
<g id="Dashed_Frame_10">
</g>
<g id="Dashed_Frame_11">
</g>
<g id="Dashed_Frame_12">
</g>
<g id="Dashed_Frame_13">
</g>
<g id="Dashed_Frame_14">
</g>
<g id="Dashed_Frame_15">
</g>
<g id="Dashed_Frame_16">
</g>
<g id="Dashed_Frame_17">
</g>
<g id="Dashed_Frame_18">
</g>
<g id="Dashed_Frame_19">
</g>
<g id="Dashed_Frame_20">
</g>
<g id="Dashed_Frame_25">
</g>
<g id="Dashed_Frame_26">
</g>
<g id="Dashed_Frame_27">
</g>
<g id="Dashed_Frame_28">
</g>
<g id="Dashed_Frame_29">
</g>
<g id="Dashed_Frame_30">
</g>
<g id="Dashed_Frame_31">
</g>
<g id="Dashed_Frame_32">
</g>
<g id="Dashed_Frame_33">
</g>
<g id="Dashed_Frame_35">
</g>
</svg>
