<?xml version="1.0" encoding="iso-8859-1"?>
<!-- Generator: Adobe Illustrator 19.2.1, SVG Export Plug-In . SVG Version: 6.00 Build 0)  -->
<svg version="1.1" xmlns="http://www.w3.org/2000/svg" xmlns:xlink="http://www.w3.org/1999/xlink" x="0px" y="0px"
	 viewBox="0 0 30 30" style="enable-background:new 0 0 30 30;" xml:space="preserve">
<g id="Photo_frame">
</g>
<g id="Photo_frame_2">
</g>
<g id="Photo_frame_3">
</g>
<g id="Photo_frame__4">
</g>
<g id="Photo_frame_5">
</g>
<g id="Photo_frame_6">
</g>
<g id="Photo_frame_7">
</g>
<g id="Round_Frame_1">
</g>
<g id="Rectangle_Frame_1">
</g>
<g id="Square_Frame_1">
</g>
<g id="Rectangle_Frame_2">
</g>
<g id="Oval_Frame_1">
</g>
<g id="Round_Frame_2">
</g>
<g id="Rectangle_Frame_3">
</g>
<g id="Rectangle_Frame_4">
</g>
<g id="Rectangle_Frame_5">
</g>
<g id="Square_Frame_2">
</g>
<g id="Rectangle_Frame_6">
</g>
<g id="Rectangle_Frame_7">
</g>
<g id="Oval_Frame_2">
</g>
<g id="Round_Frame_3">
	<g>
		<g>
			<path d="M14.5,30c-0.219,0-0.413-0.143-0.478-0.352c-0.203-0.655-0.889-1.1-1.616-1.571c-0.534-0.346-1.084-0.703-1.527-1.184
				c-3.706-1.176-6.596-4.066-7.772-7.772c-0.481-0.443-0.838-0.994-1.184-1.527c-0.471-0.727-0.916-1.413-1.571-1.616
				C0.143,15.913,0,15.719,0,15.5s0.143-0.413,0.352-0.478c0.655-0.203,1.1-0.889,1.571-1.616c0.346-0.534,0.703-1.084,1.184-1.527
				c1.176-3.706,4.066-6.596,7.772-7.772c0.443-0.481,0.994-0.838,1.527-1.184c0.727-0.471,1.413-0.916,1.616-1.571
				c0.13-0.419,0.825-0.419,0.955,0c0.203,0.655,0.889,1.1,1.616,1.571c0.534,0.346,1.084,0.703,1.527,1.184
				c3.706,1.176,6.596,4.066,7.772,7.772c0.481,0.443,0.838,0.994,1.184,1.527c0.471,0.727,0.916,1.413,1.571,1.616
				C28.857,15.087,29,15.281,29,15.5s-0.143,0.413-0.352,0.478c-0.655,0.203-1.1,0.889-1.571,1.616
				c-0.346,0.534-0.703,1.084-1.184,1.527c-1.176,3.706-4.066,6.596-7.772,7.772c-0.443,0.481-0.994,0.838-1.527,1.184
				c-0.727,0.471-1.413,0.916-1.616,1.571C14.913,29.857,14.719,30,14.5,30z M1.522,15.5c0.503,0.413,0.876,0.988,1.24,1.55
				c0.333,0.514,0.678,1.045,1.105,1.409c0.073,0.062,0.126,0.144,0.154,0.235c1.064,3.497,3.788,6.22,7.285,7.285
				c0.092,0.028,0.173,0.082,0.235,0.154c0.363,0.427,0.895,0.771,1.409,1.105c0.562,0.364,1.137,0.737,1.55,1.24
				c0.413-0.503,0.988-0.876,1.55-1.24c0.514-0.333,1.045-0.678,1.409-1.105c0.062-0.073,0.144-0.126,0.235-0.154
				c3.497-1.064,6.22-3.788,7.285-7.285c0.028-0.092,0.082-0.173,0.154-0.235c0.427-0.363,0.771-0.895,1.105-1.409
				c0.364-0.562,0.737-1.137,1.24-1.55c-0.503-0.413-0.876-0.988-1.24-1.55c-0.333-0.514-0.678-1.045-1.105-1.409
				c-0.073-0.062-0.126-0.144-0.154-0.235c-1.064-3.497-3.788-6.22-7.285-7.285c-0.092-0.028-0.173-0.082-0.235-0.154
				c-0.363-0.427-0.895-0.771-1.409-1.105c-0.562-0.364-1.137-0.737-1.55-1.24c-0.413,0.503-0.988,0.876-1.55,1.24
				c-0.514,0.333-1.045,0.678-1.409,1.105c-0.062,0.073-0.144,0.126-0.235,0.154C7.81,6.086,5.086,8.81,4.021,12.306
				c-0.028,0.092-0.082,0.173-0.154,0.235c-0.427,0.363-0.771,0.895-1.105,1.409C2.398,14.512,2.025,15.087,1.522,15.5z"/>
		</g>
		<g>
			<path d="M14.5,25C9.262,25,5,20.738,5,15.5S9.262,6,14.5,6s9.5,4.262,9.5,9.5S19.738,25,14.5,25z M14.5,7
				C9.813,7,6,10.813,6,15.5S9.813,24,14.5,24s8.5-3.813,8.5-8.5S19.187,7,14.5,7z"/>
		</g>
	</g>
</g>
<g id="Rectangle_Frame_8">
</g>
<g id="Square_Frame_3">
</g>
<g id="Rectangle_Frame_9">
</g>
<g id="Rectangle_Frame_10">
</g>
<g id="Square_Frame_4">
</g>
<g id="Rectangle_Frame_11">
</g>
<g id="Rectangle_Frame_12">
</g>
<g id="Square_Frame_5">
</g>
<g id="Rectangle_Frame_13">
</g>
<g id="Round_Frame">
</g>
<g id="Frame_2">
</g>
<g id="Frame_1">
</g>
<g id="Frame_3">
</g>
<g id="Frame_4">
</g>
<g id="Frame_5">
</g>
<g id="Frame_6">
</g>
<g id="Frame_7">
</g>
<g id="Frame_8">
</g>
<g id="Frame_9">
</g>
<g id="Frame_10">
</g>
<g id="Frame_11">
</g>
<g id="Frame_12">
</g>
<g id="Frame_13">
</g>
<g id="Frame_14">
</g>
<g id="Frame_15">
</g>
<g id="Frame_16">
</g>
<g id="Frame_17">
</g>
<g id="Frame_18">
</g>
<g id="Frame_19">
</g>
<g id="Frame_20">
</g>
<g id="Frame_21">
</g>
<g id="Frame_22">
</g>
<g id="Frame_23">
</g>
<g id="Frame_24">
</g>
<g id="Frame_25">
</g>
<g id="Frame_26">
</g>
<g id="Frame_27">
</g>
<g id="Frame_28">
</g>
<g id="Frame_29">
</g>
<g id="Frame_30">
</g>
<g id="Frame_Hole_1">
</g>
<g id="Frame_Hole_2">
</g>
<g id="Frame_Hole_3">
</g>
<g id="Frame_Hole_4">
</g>
<g id="Frame_31">
</g>
<g id="Frame_32">
</g>
<g id="Frame_33">
</g>
<g id="Frame_34">
</g>
<g id="Frame_35">
</g>
<g id="Dashed_Frame_1">
</g>
<g id="Dashed_Frame_2">
</g>
<g id="Dashed_Frame_3">
</g>
<g id="Dashed_Frame_4">
</g>
<g id="Dashed_Frame_5">
</g>
<g id="Dashed_Frame_6">
</g>
<g id="Dashed_Frame_7">
</g>
<g id="Dashed_Frame_8">
</g>
<g id="Dashed_Frame_9">
</g>
<g id="Dashed_Frame_10">
</g>
<g id="Dashed_Frame_11">
</g>
<g id="Dashed_Frame_12">
</g>
<g id="Dashed_Frame_13">
</g>
<g id="Dashed_Frame_14">
</g>
<g id="Dashed_Frame_15">
</g>
<g id="Dashed_Frame_16">
</g>
<g id="Dashed_Frame_17">
</g>
<g id="Dashed_Frame_18">
</g>
<g id="Dashed_Frame_19">
</g>
<g id="Dashed_Frame_20">
</g>
<g id="Dashed_Frame_25">
</g>
<g id="Dashed_Frame_26">
</g>
<g id="Dashed_Frame_27">
</g>
<g id="Dashed_Frame_28">
</g>
<g id="Dashed_Frame_29">
</g>
<g id="Dashed_Frame_30">
</g>
<g id="Dashed_Frame_31">
</g>
<g id="Dashed_Frame_32">
</g>
<g id="Dashed_Frame_33">
</g>
<g id="Dashed_Frame_35">
</g>
</svg>
