<?xml version="1.0" encoding="iso-8859-1"?>
<!-- Generator: Adobe Illustrator 19.2.1, SVG Export Plug-In . SVG Version: 6.00 Build 0)  -->
<svg version="1.1" xmlns="http://www.w3.org/2000/svg" xmlns:xlink="http://www.w3.org/1999/xlink" x="0px" y="0px"
	 viewBox="0 0 30 30" style="enable-background:new 0 0 30 30;" xml:space="preserve">
<g id="Dashed_Frame_21">
</g>
<g id="Dashed_Frame_22">
</g>
<g id="Dashed_Frame_23">
	<path d="M29.957,9.529c0.068-0.155,0.055-0.333-0.038-0.476c-0.092-0.142-0.25-0.228-0.419-0.228c-4.176,0-8.249-1.18-11.777-3.413
		L15.267,3.86c-0.163-0.104-0.371-0.104-0.534,0l-2.455,1.553C8.749,7.646,4.676,8.826,0.5,8.826c-0.169,0-0.327,0.085-0.419,0.228
		c-0.092,0.142-0.106,0.321-0.038,0.476c1.545,3.477,1.545,7.465,0,10.941c-0.069,0.154-0.054,0.334,0.038,0.476
		c0.092,0.142,0.25,0.228,0.419,0.228c4.177,0,8.25,1.18,11.777,3.413l2.455,1.554c0.082,0.052,0.175,0.077,0.268,0.077
		s0.186-0.025,0.268-0.077l2.455-1.554c3.528-2.233,7.601-3.413,11.777-3.413c0.169,0,0.327-0.086,0.419-0.228
		c0.093-0.142,0.106-0.321,0.038-0.476C28.412,16.994,28.412,13.006,29.957,9.529z M4.5,19.762c-0.009,0-0.018,0-0.027-0.001
		C4.15,19.744,3.825,19.735,3.5,19.735c-0.171,0-0.331-0.088-0.422-0.232s-0.103-0.326-0.03-0.481
		c0.137-0.288,0.257-0.582,0.363-0.879c0.092-0.26,0.377-0.399,0.639-0.303c0.26,0.093,0.396,0.378,0.303,0.639
		C4.32,18.569,4.287,18.66,4.252,18.75c0.091,0.003,0.183,0.008,0.274,0.013c0.276,0.015,0.487,0.25,0.473,0.525
		C4.985,19.555,4.764,19.762,4.5,19.762z M3.894,13.935c-0.032-0.274,0.165-0.522,0.439-0.554c0.279-0.033,0.522,0.166,0.554,0.439
		c0.045,0.39,0.068,0.787,0.068,1.18c0,0.391-0.022,0.787-0.067,1.179c-0.029,0.255-0.245,0.443-0.496,0.443
		c-0.019,0-0.038-0.001-0.057-0.003c-0.274-0.031-0.471-0.279-0.44-0.554c0.04-0.354,0.061-0.71,0.061-1.065
		C3.955,14.644,3.935,14.289,3.894,13.935z M4.526,11.238c-0.091,0.004-0.183,0.009-0.274,0.012c0.035,0.09,0.068,0.18,0.101,0.271
		c0.093,0.26-0.042,0.546-0.303,0.639c-0.056,0.02-0.112,0.029-0.168,0.029c-0.206,0-0.398-0.127-0.471-0.332
		c-0.106-0.296-0.227-0.59-0.363-0.878c-0.073-0.155-0.062-0.337,0.03-0.481s0.251-0.232,0.422-0.232
		c0.325,0,0.65-0.009,0.973-0.026c0.27-0.022,0.511,0.197,0.526,0.473C5.013,10.988,4.802,11.223,4.526,11.238z M9.033,20.056
		c-0.062,0.222-0.263,0.366-0.481,0.366c-0.044,0-0.089-0.006-0.134-0.019c-0.642-0.178-1.299-0.322-1.954-0.429
		c-0.273-0.044-0.458-0.301-0.414-0.573s0.3-0.463,0.574-0.413c0.69,0.112,1.384,0.264,2.061,0.452
		C8.951,19.514,9.107,19.789,9.033,20.056z M8.694,10.558c-0.676,0.188-1.369,0.34-2.061,0.453
		c-0.027,0.004-0.054,0.006-0.081,0.006c-0.241,0-0.453-0.174-0.493-0.42c-0.044-0.272,0.141-0.529,0.414-0.574
		c0.655-0.106,1.312-0.251,1.953-0.429c0.262-0.073,0.542,0.082,0.616,0.348C9.116,10.208,8.96,10.484,8.694,10.558z M12.801,21.685
		c-0.09,0.168-0.263,0.264-0.441,0.264c-0.08,0-0.161-0.02-0.236-0.06c-0.584-0.313-1.194-0.598-1.812-0.846
		c-0.256-0.103-0.381-0.394-0.278-0.649c0.103-0.257,0.394-0.382,0.65-0.278c0.652,0.261,1.295,0.562,1.912,0.893
		C12.84,21.139,12.932,21.441,12.801,21.685z M12.605,8.988c-0.616,0.332-1.259,0.632-1.912,0.894
		c-0.061,0.024-0.124,0.036-0.186,0.036c-0.198,0-0.386-0.119-0.464-0.314c-0.103-0.256,0.021-0.547,0.278-0.65
		c0.618-0.248,1.227-0.533,1.811-0.847c0.243-0.13,0.547-0.04,0.677,0.204C12.939,8.554,12.848,8.857,12.605,8.988z M16.115,22.918
		l-0.859,0.512C15.177,23.477,15.088,23.5,15,23.5s-0.177-0.023-0.256-0.07l-0.859-0.512c-0.237-0.142-0.315-0.448-0.174-0.686
		c0.142-0.237,0.449-0.315,0.686-0.174L15,22.418l0.604-0.359c0.237-0.142,0.544-0.063,0.686,0.174S16.353,22.776,16.115,22.918z
		 M16.289,7.768c-0.094,0.157-0.26,0.244-0.43,0.244c-0.087,0-0.175-0.022-0.255-0.07L15,7.582l-0.604,0.359
		c-0.237,0.142-0.543,0.063-0.686-0.174c-0.141-0.237-0.063-0.544,0.174-0.686l0.859-0.512c0.158-0.094,0.354-0.094,0.512,0
		l0.859,0.512C16.353,7.224,16.431,7.53,16.289,7.768z M19.679,21.048c-0.611,0.243-1.22,0.527-1.81,0.846
		c-0.075,0.04-0.157,0.06-0.237,0.06c-0.178,0-0.35-0.095-0.44-0.263c-0.131-0.243-0.04-0.547,0.203-0.678
		c0.624-0.336,1.268-0.637,1.915-0.895c0.255-0.099,0.547,0.022,0.649,0.28C20.061,20.654,19.936,20.945,19.679,21.048z
		 M19.966,9.607c-0.078,0.195-0.266,0.314-0.464,0.314c-0.062,0-0.125-0.011-0.186-0.036c-0.655-0.262-1.299-0.563-1.914-0.894
		c-0.243-0.131-0.334-0.434-0.203-0.677c0.132-0.244,0.433-0.333,0.678-0.204c0.581,0.313,1.19,0.598,1.811,0.846
		C19.944,9.06,20.068,9.351,19.966,9.607z M23.526,19.976c-0.656,0.107-1.313,0.252-1.953,0.43c-0.045,0.013-0.09,0.019-0.134,0.019
		c-0.219,0-0.42-0.145-0.481-0.366c-0.074-0.266,0.081-0.541,0.348-0.615c0.675-0.188,1.368-0.341,2.061-0.453
		c0.27-0.046,0.528,0.139,0.573,0.413C23.984,19.675,23.799,19.932,23.526,19.976z M23.457,11.019c-0.027,0-0.054-0.002-0.081-0.006
		c-0.691-0.113-1.385-0.265-2.062-0.452c-0.266-0.074-0.422-0.349-0.348-0.615c0.073-0.266,0.345-0.423,0.615-0.349
		c0.642,0.178,1.299,0.322,1.954,0.428c0.272,0.044,0.458,0.301,0.413,0.574C23.909,10.845,23.697,11.019,23.457,11.019z
		 M26.923,19.503c-0.092,0.145-0.252,0.232-0.423,0.232c-0.325,0-0.649,0.009-0.974,0.025c-0.009,0.001-0.018,0.001-0.026,0.001
		c-0.265,0-0.485-0.207-0.499-0.474c-0.015-0.275,0.197-0.511,0.473-0.525c0.092-0.005,0.183-0.01,0.274-0.013
		c-0.035-0.09-0.068-0.181-0.101-0.271c-0.093-0.261,0.043-0.546,0.303-0.639c0.261-0.097,0.547,0.043,0.639,0.303
		c0.106,0.297,0.227,0.591,0.363,0.879C27.025,19.177,27.014,19.358,26.923,19.503z M26.106,16.064
		c0.031,0.274-0.165,0.522-0.439,0.555c-0.02,0.002-0.039,0.003-0.059,0.003c-0.25,0-0.467-0.188-0.496-0.442
		c-0.045-0.391-0.067-0.788-0.067-1.181c0-0.392,0.022-0.789,0.067-1.179c0.032-0.275,0.288-0.475,0.555-0.439
		c0.274,0.031,0.471,0.279,0.439,0.554c-0.041,0.354-0.062,0.709-0.062,1.065C26.045,15.355,26.065,15.711,26.106,16.064z
		 M26.952,10.979c-0.137,0.289-0.257,0.582-0.363,0.878c-0.073,0.205-0.266,0.332-0.471,0.332c-0.056,0-0.112-0.009-0.168-0.029
		c-0.26-0.093-0.396-0.378-0.303-0.639c0.032-0.091,0.065-0.181,0.101-0.271c-0.092-0.003-0.183-0.008-0.274-0.012
		c-0.275-0.015-0.487-0.25-0.473-0.526c0.015-0.275,0.253-0.481,0.525-0.473c0.324,0.017,0.648,0.026,0.974,0.026
		c0.171,0,0.331,0.088,0.423,0.232C27.014,10.642,27.025,10.823,26.952,10.979z"/>
</g>
<g id="Dashed_Frame_24">
</g>
<g id="Dashed_Frame_34">
</g>
</svg>
