<?xml version="1.0" encoding="iso-8859-1"?>
<!-- Generator: Adobe Illustrator 19.2.1, SVG Export Plug-In . SVG Version: 6.00 Build 0)  -->
<svg version="1.1" xmlns="http://www.w3.org/2000/svg" xmlns:xlink="http://www.w3.org/1999/xlink" x="0px" y="0px"
	 viewBox="0 0 30 30" style="enable-background:new 0 0 30 30;" xml:space="preserve">
<g id="Dashed_Frame_21">
	<path d="M29,11.034V8.5C29,8.224,28.776,8,28.5,8h-1.641c-1.252-1.345-2.411-2-3.539-2H6.68C5.553,6,4.393,6.655,3.14,8H1.5
		C1.224,8,1,8.224,1,8.5v2.534C0.387,11.773,0,13.287,0,15c0,1.714,0.387,3.228,1,3.966V21.5C1,21.776,1.224,22,1.5,22h1.861
		c1.266,1.346,2.429,2,3.549,2h16.18c1.12,0,2.282-0.654,3.549-2H28.5c0.276,0,0.5-0.224,0.5-0.5v-2.534
		c0.613-0.738,1-2.252,1-3.966C30,13.287,29.613,11.773,29,11.034z M4,10.587c0-0.195,0.003-0.364,0.166-0.446l0.578-0.555
		l0.757,0.737L5,10.834v0.752c0,0.276-0.224,0.5-0.5,0.5S4,11.863,4,11.587V10.587z M3.853,14.066l-0.084,0.154
		c-0.16,0.294-0.245,0.63-0.245,0.969c0,0.278,0.055,0.546,0.163,0.798c0.109,0.254-0.008,0.548-0.262,0.656
		c-0.064,0.028-0.131,0.041-0.197,0.041c-0.194,0-0.378-0.113-0.459-0.303c-0.162-0.378-0.244-0.779-0.244-1.193
		c0-0.505,0.127-1.006,0.367-1.448l0.085-0.156c0.132-0.242,0.437-0.332,0.679-0.198C3.896,13.52,3.985,13.824,3.853,14.066z
		 M5.498,20.239c-0.099,0.112-0.264,0.17-0.403,0.17c-0.118,0-0.235-0.041-0.33-0.125l-0.374-0.371c-0.276,0-0.391-0.224-0.391-0.5
		v-0.9c0-0.21-0.028-0.429,0.168-0.52c0.25-0.117,0.589-0.035,0.706,0.215C4.904,18.274,5,18.401,5,18.475v0.506
		c0,0.017-0.054,0.035-0.03,0.058l0.51,0.496C5.688,19.716,5.68,20.032,5.498,20.239z M8.589,21l-1.847-0.002
		c-0.276-0.005-0.496-0.232-0.491-0.508C6.256,20.217,6.479,20,6.751,20c0.003,0,0.006,0,0.009,0l1.829,0.001
		c0.276,0,0.5,0.223,0.5,0.5S8.865,21,8.589,21z M8.837,10H7c-0.276,0-0.5-0.224-0.5-0.5S6.724,9,7,9h1.837
		c0.276,0,0.5,0.224,0.5,0.5S9.114,10,8.837,10z M12.264,21h-1.838c-0.276,0-0.5-0.224-0.5-0.5s0.224-0.5,0.5-0.5h1.838
		c0.276,0,0.5,0.224,0.5,0.5S12.541,21,12.264,21z M12.513,10h-1.837c-0.276,0-0.5-0.224-0.5-0.5s0.224-0.5,0.5-0.5h1.837
		c0.276,0,0.5,0.224,0.5,0.5S12.789,10,12.513,10z M15.939,21h-1.838c-0.276,0-0.5-0.224-0.5-0.5s0.224-0.5,0.5-0.5h1.838
		c0.276,0,0.5,0.224,0.5,0.5S16.216,21,15.939,21z M16.188,10h-1.838c-0.276,0-0.5-0.224-0.5-0.5s0.224-0.5,0.5-0.5h1.838
		c0.276,0,0.5,0.224,0.5,0.5S16.465,10,16.188,10z M19.615,21h-1.838c-0.276,0-0.5-0.224-0.5-0.5s0.224-0.5,0.5-0.5h1.838
		c0.276,0,0.5,0.224,0.5,0.5S19.892,21,19.615,21z M19.863,10h-1.838c-0.276,0-0.5-0.224-0.5-0.5s0.224-0.5,0.5-0.5h1.838
		c0.276,0,0.5,0.224,0.5,0.5S20.14,10,19.863,10z M23.271,21.08c-0.127,0-0.229-0.042-0.299-0.08h-1.52c-0.276,0-0.5-0.224-0.5-0.5
		s0.224-0.5,0.5-0.5h1.637c0.087,0,0.24,0.053,0.332,0.104c0.202,0.063,0.35,0.253,0.35,0.477
		C23.771,20.856,23.547,21.08,23.271,21.08z M23.54,10c-0.012,0-0.023,0-0.036,0c-0.064,0-0.126,0-0.182,0h-1.621
		c-0.276,0-0.5-0.224-0.5-0.5s0.224-0.5,0.5-0.5h1.621c0.077,0,0.162,0.003,0.252,0.009c0.275,0.02,0.482,0.254,0.464,0.53
		C24.02,9.802,23.8,10,23.54,10z M26,19.413C26,19.689,25.994,20,25.718,20h-0.062l-0.422,0.328
		c-0.095,0.084-0.213,0.082-0.33,0.082c-0.139,0-0.276-0.058-0.375-0.17c-0.183-0.207-0.163-0.522,0.045-0.705l0.455-0.496
		C25.053,19.016,25,18.996,25,18.98v-0.506c0-0.071,0.125-0.143,0.154-0.207c0.115-0.252,0.373-0.391,0.62-0.275
		C26.01,18.099,26,18.34,26,18.576V19.413z M26,11.587c0,0.276-0.224,0.5-0.5,0.5s-0.5-0.224-0.5-0.5v-0.752l-0.458-0.498
		c-0.207-0.181-0.185-0.504-0.004-0.712c0.179-0.208,0.511-0.242,0.72-0.061c0.005,0.004,0.044,0.026,0.049,0.031l0.553,0.573
		C26.003,10.258,26,10.412,26,10.587V11.587z M27.234,16.378c-0.081,0.189-0.266,0.304-0.46,0.304c-0.065,0-0.132-0.013-0.196-0.04
		c-0.254-0.108-0.372-0.402-0.264-0.656c0.107-0.252,0.162-0.52,0.162-0.796c0-0.34-0.085-0.675-0.244-0.968l-0.087-0.159
		c-0.132-0.243-0.042-0.546,0.201-0.678c0.239-0.13,0.545-0.042,0.678,0.201l0.086,0.158c0.239,0.438,0.366,0.939,0.366,1.446
		C27.477,15.601,27.396,16.001,27.234,16.378z"/>
</g>
<g id="Dashed_Frame_22">
</g>
<g id="Dashed_Frame_23">
</g>
<g id="Dashed_Frame_24">
</g>
<g id="Dashed_Frame_34">
</g>
</svg>
