<?xml version="1.0" encoding="iso-8859-1"?>
<!-- Generator: Adobe Illustrator 19.2.1, SVG Export Plug-In . SVG Version: 6.00 Build 0)  -->
<svg version="1.1" xmlns="http://www.w3.org/2000/svg" xmlns:xlink="http://www.w3.org/1999/xlink" x="0px" y="0px"
	 viewBox="0 0 30 30" style="enable-background:new 0 0 30 30;" xml:space="preserve">
<g id="Photo_frame">
</g>
<g id="Photo_frame_2">
</g>
<g id="Photo_frame_3">
</g>
<g id="Photo_frame__4">
</g>
<g id="Photo_frame_5">
</g>
<g id="Photo_frame_6">
</g>
<g id="Photo_frame_7">
</g>
<g id="Round_Frame_1">
</g>
<g id="Rectangle_Frame_1">
</g>
<g id="Square_Frame_1">
</g>
<g id="Rectangle_Frame_2">
</g>
<g id="Oval_Frame_1">
</g>
<g id="Round_Frame_2">
</g>
<g id="Rectangle_Frame_3">
</g>
<g id="Rectangle_Frame_4">
</g>
<g id="Rectangle_Frame_5">
</g>
<g id="Square_Frame_2">
</g>
<g id="Rectangle_Frame_6">
</g>
<g id="Rectangle_Frame_7">
</g>
<g id="Oval_Frame_2">
</g>
<g id="Round_Frame_3">
</g>
<g id="Rectangle_Frame_8">
</g>
<g id="Square_Frame_3">
</g>
<g id="Rectangle_Frame_9">
</g>
<g id="Rectangle_Frame_10">
</g>
<g id="Square_Frame_4">
</g>
<g id="Rectangle_Frame_11">
</g>
<g id="Rectangle_Frame_12">
</g>
<g id="Square_Frame_5">
</g>
<g id="Rectangle_Frame_13">
</g>
<g id="Round_Frame">
</g>
<g id="Frame_2">
</g>
<g id="Frame_1">
</g>
<g id="Frame_3">
</g>
<g id="Frame_4">
</g>
<g id="Frame_5">
</g>
<g id="Frame_6">
</g>
<g id="Frame_7">
</g>
<g id="Frame_8">
</g>
<g id="Frame_9">
</g>
<g id="Frame_10">
</g>
<g id="Frame_11">
</g>
<g id="Frame_12">
</g>
<g id="Frame_13">
</g>
<g id="Frame_14">
</g>
<g id="Frame_15">
</g>
<g id="Frame_16">
</g>
<g id="Frame_17">
</g>
<g id="Frame_18">
</g>
<g id="Frame_19">
</g>
<g id="Frame_20">
</g>
<g id="Frame_21">
</g>
<g id="Frame_22">
</g>
<g id="Frame_23">
</g>
<g id="Frame_24">
</g>
<g id="Frame_25">
</g>
<g id="Frame_26">
</g>
<g id="Frame_27">
</g>
<g id="Frame_28">
</g>
<g id="Frame_29">
</g>
<g id="Frame_30">
</g>
<g id="Frame_Hole_1">
</g>
<g id="Frame_Hole_2">
</g>
<g id="Frame_Hole_3">
</g>
<g id="Frame_Hole_4">
</g>
<g id="Frame_31">
</g>
<g id="Frame_32">
</g>
<g id="Frame_33">
</g>
<g id="Frame_34">
</g>
<g id="Frame_35">
</g>
<g id="Dashed_Frame_1">
</g>
<g id="Dashed_Frame_2">
	<path d="M29,10.948V5.5C29,5.224,28.776,5,28.5,5h-6.564C20.117,4.129,17.971,3.74,15,3.74S9.883,4.129,8.065,5H1.5
		C1.224,5,1,5.224,1,5.5v5.448C0.372,11.864,0,13.36,0,15c0,1.641,0.372,3.137,1,4.052V24.5C1,24.776,1.224,25,1.5,25h6.565
		c1.818,0.871,3.964,1.26,6.935,1.26s5.117-0.389,6.936-1.26H28.5c0.276,0,0.5-0.224,0.5-0.5v-5.448c0.629-0.916,1-2.412,1-4.052
		C30,13.361,29.629,11.865,29,10.948z M24.404,8h1c0.276,0,0.5,0.224,0.5,0.5S25.681,9,25.404,9h-1c-0.276,0-0.5-0.224-0.5-0.5
		S24.128,8,24.404,8z M26,10.404v0.877c0.029,0.177-0.026,0.365-0.171,0.479c-0.099,0.078-0.213,0.118-0.325,0.118
		c-0.135,0-0.266-0.058-0.358-0.176C25.075,11.613,25,11.457,25,11.344v-0.94c0-0.276,0.224-0.5,0.5-0.5S26,10.127,26,10.404z
		 M4,8.5C4,8.224,4.224,8,4.5,8h0.487c0.276,0,0.5,0.224,0.5,0.5C5.487,8.772,5.271,8.993,5,9v0.013c0,0.276-0.224,0.5-0.5,0.5
		S4,9.289,4,9.013V8.5z M3.701,11.584L4,11.18v-0.167c0-0.276,0.224-0.5,0.5-0.5s0.5,0.224,0.5,0.5v0.332
		c0,0.107-0.034,0.211-0.098,0.297l-0.397,0.538c-0.098,0.132-0.249,0.203-0.402,0.203c-0.103,0-0.208-0.032-0.297-0.098
		C3.583,12.12,3.536,11.807,3.701,11.584z M2.59,14.636c0.026-0.352,0.093-0.716,0.197-1.081c0.076-0.266,0.355-0.417,0.618-0.344
		c0.266,0.076,0.419,0.353,0.344,0.618c-0.086,0.301-0.141,0.598-0.162,0.882c-0.02,0.263-0.239,0.462-0.498,0.462
		c-0.013,0-0.025,0-0.038-0.001C2.776,15.151,2.569,14.912,2.59,14.636z M3.753,18.061c-0.182,0-0.357-0.1-0.445-0.271
		c-0.169-0.329-0.311-0.661-0.421-0.986c-0.089-0.262,0.051-0.546,0.312-0.635c0.263-0.086,0.545,0.052,0.634,0.313
		c0.095,0.279,0.218,0.566,0.364,0.852c0.126,0.246,0.029,0.548-0.217,0.674C3.908,18.043,3.83,18.061,3.753,18.061z M4,20.325v-1
		c0-0.276,0.224-0.5,0.5-0.5s0.5,0.224,0.5,0.5v1c0,0.276-0.224,0.5-0.5,0.5S4,20.602,4,20.325z M6.326,22h-1
		c-0.276,0-0.5-0.224-0.5-0.5s0.224-0.5,0.5-0.5h1c0.276,0,0.5,0.224,0.5,0.5S6.602,22,6.326,22z M6.487,8.5
		c0-0.276,0.224-0.5,0.5-0.5h1c0.276,0,0.5,0.224,0.5,0.5S8.264,9,7.987,9h-1C6.711,9,6.487,8.776,6.487,8.5z M9.604,22.093
		c-0.08,0.198-0.252,0.325-0.445,0.325c-0.057,0-0.114-0.011-0.172-0.034c-0.001,0-0.034-0.014-0.035-0.014
		c-0.052-0.021-0.133-0.064-0.176-0.102L8.471,22H8.326c-0.276,0-0.5-0.224-0.5-0.5s0.224-0.5,0.5-0.5H8.66
		c0.122,0,0.239,0.044,0.331,0.125l0.424,0.374C9.595,21.635,9.689,21.88,9.604,22.093z M9.792,8.351
		c-0.207,0-0.399-0.128-0.472-0.334c-0.092-0.26,0.045-0.546,0.306-0.637c0.32-0.113,0.647-0.218,0.979-0.313
		c0.266-0.076,0.542,0.077,0.619,0.342c0.076,0.266-0.077,0.542-0.342,0.619c-0.313,0.09-0.622,0.189-0.925,0.295
		C9.903,8.342,9.847,8.351,9.792,8.351z M12.516,22.941c-0.054,0.231-0.259,0.387-0.486,0.387c-0.038,0-0.076-0.004-0.114-0.013
		c-0.335-0.079-0.667-0.167-0.995-0.264c-0.265-0.078-0.416-0.356-0.338-0.621c0.079-0.265,0.357-0.414,0.621-0.338
		c0.309,0.091,0.622,0.175,0.939,0.248C12.412,22.404,12.579,22.673,12.516,22.941z M12.693,7.605c-0.241,0-0.453-0.174-0.493-0.42
		c-0.044-0.272,0.141-0.529,0.414-0.574c0.339-0.055,0.68-0.099,1.023-0.132c0.282-0.02,0.52,0.175,0.546,0.449
		c0.027,0.275-0.174,0.52-0.449,0.546c-0.322,0.031-0.643,0.073-0.96,0.125C12.747,7.603,12.72,7.605,12.693,7.605z M16.673,23.577
		c-0.343,0.047-0.688,0.08-1.035,0.1c-0.12,0.008-0.232-0.029-0.322-0.095C15.23,23.653,15.12,23.695,15,23.695
		c-0.349,0-0.696-0.017-1.043-0.047c-0.275-0.024-0.479-0.267-0.454-0.542c0.024-0.274,0.269-0.474,0.542-0.454
		c0.317,0.028,0.636,0.043,0.955,0.043c0.11,0,0.211,0.035,0.294,0.096c0.079-0.065,0.179-0.106,0.289-0.112
		c0.32-0.018,0.638-0.049,0.956-0.092c0.266-0.051,0.525,0.153,0.563,0.428C17.138,23.288,16.946,23.54,16.673,23.577z
		 M16.679,7.527c-0.022,0-0.045-0.001-0.067-0.004c-0.317-0.042-0.636-0.073-0.957-0.091c-0.276-0.015-0.487-0.251-0.471-0.527
		c0.015-0.275,0.252-0.489,0.527-0.471c0.346,0.019,0.691,0.052,1.034,0.098c0.273,0.037,0.466,0.288,0.43,0.562
		C17.14,7.344,16.925,7.527,16.679,7.527z M19.675,22.867c-0.322,0.104-0.65,0.204-0.982,0.294
		c-0.044,0.012-0.088,0.018-0.131,0.018c-0.221,0-0.422-0.146-0.482-0.369c-0.072-0.267,0.085-0.541,0.352-0.613
		c0.316-0.086,0.627-0.18,0.934-0.28c0.264-0.085,0.545,0.058,0.631,0.32C20.08,22.499,19.938,22.781,19.675,22.867z M20.074,7.851
		c-0.068,0.212-0.265,0.347-0.476,0.347c-0.051,0-0.103-0.008-0.153-0.024c-0.307-0.099-0.618-0.191-0.934-0.274
		c-0.268-0.07-0.427-0.344-0.356-0.611c0.069-0.267,0.347-0.425,0.61-0.356c0.333,0.088,0.662,0.185,0.986,0.289
		C20.015,7.306,20.159,7.588,20.074,7.851z M22.284,22h-0.876c-0.032,0.006-0.064,0.009-0.097,0.009
		c-0.138,0-0.272-0.052-0.367-0.159c-0.183-0.207-0.185-0.504,0.022-0.688C21.059,21.082,21.218,21,21.34,21h0.944
		c0.276,0,0.5,0.224,0.5,0.5S22.561,22,22.284,22z M22.404,9h-1c-0.276,0-0.5-0.224-0.5-0.5s0.224-0.5,0.5-0.5h1
		c0.276,0,0.5,0.224,0.5,0.5S22.681,9,22.404,9z M25.284,22h-1c-0.276,0-0.5-0.224-0.5-0.5s0.224-0.5,0.5-0.5h1
		c0.276,0,0.5,0.224,0.5,0.5S25.561,22,25.284,22z M26,19.716c0,0.276-0.224,0.5-0.5,0.5s-0.5-0.224-0.5-0.5v-1
		c0-0.276,0.224-0.5,0.5-0.5s0.5,0.224,0.5,0.5V19.716z M27.287,16.159c-0.078,0.336-0.192,0.682-0.338,1.029
		c-0.08,0.191-0.266,0.307-0.461,0.307c-0.064,0-0.13-0.013-0.193-0.039c-0.255-0.106-0.375-0.399-0.268-0.654
		c0.124-0.296,0.22-0.589,0.285-0.869c0.063-0.268,0.33-0.437,0.601-0.374C27.183,15.622,27.35,15.891,27.287,16.159z
		 M26.929,14.552c-0.033,0.007-0.066,0.01-0.1,0.01c-0.232,0-0.441-0.164-0.489-0.402c-0.058-0.289-0.145-0.583-0.258-0.875
		c-0.101-0.258,0.027-0.547,0.285-0.647c0.257-0.098,0.548,0.028,0.646,0.285c0.134,0.345,0.237,0.695,0.307,1.041
		C27.375,14.234,27.199,14.498,26.929,14.552z"/>
</g>
<g id="Dashed_Frame_3">
</g>
<g id="Dashed_Frame_4">
</g>
<g id="Dashed_Frame_5">
</g>
<g id="Dashed_Frame_6">
</g>
<g id="Dashed_Frame_7">
</g>
<g id="Dashed_Frame_8">
</g>
<g id="Dashed_Frame_9">
</g>
<g id="Dashed_Frame_10">
</g>
<g id="Dashed_Frame_11">
</g>
<g id="Dashed_Frame_12">
</g>
<g id="Dashed_Frame_13">
</g>
<g id="Dashed_Frame_14">
</g>
<g id="Dashed_Frame_15">
</g>
<g id="Dashed_Frame_16">
</g>
<g id="Dashed_Frame_17">
</g>
<g id="Dashed_Frame_18">
</g>
<g id="Dashed_Frame_19">
</g>
<g id="Dashed_Frame_20">
</g>
<g id="Dashed_Frame_25">
</g>
<g id="Dashed_Frame_26">
</g>
<g id="Dashed_Frame_27">
</g>
<g id="Dashed_Frame_28">
</g>
<g id="Dashed_Frame_29">
</g>
<g id="Dashed_Frame_30">
</g>
<g id="Dashed_Frame_31">
</g>
<g id="Dashed_Frame_32">
</g>
<g id="Dashed_Frame_33">
</g>
<g id="Dashed_Frame_35">
</g>
</svg>
