<?xml version="1.0" encoding="iso-8859-1"?>
<!-- Generator: Adobe Illustrator 19.2.1, SVG Export Plug-In . SVG Version: 6.00 Build 0)  -->
<svg version="1.1" xmlns="http://www.w3.org/2000/svg" xmlns:xlink="http://www.w3.org/1999/xlink" x="0px" y="0px"
	 viewBox="0 0 30 30" style="enable-background:new 0 0 30 30;" xml:space="preserve">
<g id="Photo_frame">
</g>
<g id="Photo_frame_2">
</g>
<g id="Photo_frame_3">
</g>
<g id="Photo_frame__4">
</g>
<g id="Photo_frame_5">
</g>
<g id="Photo_frame_6">
</g>
<g id="Photo_frame_7">
</g>
<g id="Round_Frame_1">
</g>
<g id="Rectangle_Frame_1">
</g>
<g id="Square_Frame_1">
</g>
<g id="Rectangle_Frame_2">
</g>
<g id="Oval_Frame_1">
</g>
<g id="Round_Frame_2">
</g>
<g id="Rectangle_Frame_3">
</g>
<g id="Rectangle_Frame_4">
</g>
<g id="Rectangle_Frame_5">
</g>
<g id="Square_Frame_2">
</g>
<g id="Rectangle_Frame_6">
</g>
<g id="Rectangle_Frame_7">
</g>
<g id="Oval_Frame_2">
</g>
<g id="Round_Frame_3">
</g>
<g id="Rectangle_Frame_8">
</g>
<g id="Square_Frame_3">
</g>
<g id="Rectangle_Frame_9">
</g>
<g id="Rectangle_Frame_10">
</g>
<g id="Square_Frame_4">
</g>
<g id="Rectangle_Frame_11">
</g>
<g id="Rectangle_Frame_12">
</g>
<g id="Square_Frame_5">
</g>
<g id="Rectangle_Frame_13">
</g>
<g id="Round_Frame">
</g>
<g id="Frame_2">
</g>
<g id="Frame_1">
</g>
<g id="Frame_3">
</g>
<g id="Frame_4">
</g>
<g id="Frame_5">
</g>
<g id="Frame_6">
</g>
<g id="Frame_7">
</g>
<g id="Frame_8">
</g>
<g id="Frame_9">
</g>
<g id="Frame_10">
</g>
<g id="Frame_11">
</g>
<g id="Frame_12">
</g>
<g id="Frame_13">
</g>
<g id="Frame_14">
</g>
<g id="Frame_15">
</g>
<g id="Frame_16">
</g>
<g id="Frame_17">
</g>
<g id="Frame_18">
</g>
<g id="Frame_19">
</g>
<g id="Frame_20">
</g>
<g id="Frame_21">
</g>
<g id="Frame_22">
</g>
<g id="Frame_23">
</g>
<g id="Frame_24">
</g>
<g id="Frame_25">
</g>
<g id="Frame_26">
</g>
<g id="Frame_27">
</g>
<g id="Frame_28">
</g>
<g id="Frame_29">
</g>
<g id="Frame_30">
</g>
<g id="Frame_Hole_1">
</g>
<g id="Frame_Hole_2">
</g>
<g id="Frame_Hole_3">
</g>
<g id="Frame_Hole_4">
</g>
<g id="Frame_31">
</g>
<g id="Frame_32">
</g>
<g id="Frame_33">
</g>
<g id="Frame_34">
</g>
<g id="Frame_35">
</g>
<g id="Dashed_Frame_1">
</g>
<g id="Dashed_Frame_2">
</g>
<g id="Dashed_Frame_3">
</g>
<g id="Dashed_Frame_4">
</g>
<g id="Dashed_Frame_5">
</g>
<g id="Dashed_Frame_6">
</g>
<g id="Dashed_Frame_7">
</g>
<g id="Dashed_Frame_8">
</g>
<g id="Dashed_Frame_9">
</g>
<g id="Dashed_Frame_10">
</g>
<g id="Dashed_Frame_11">
</g>
<g id="Dashed_Frame_12">
</g>
<g id="Dashed_Frame_13">
</g>
<g id="Dashed_Frame_14">
</g>
<g id="Dashed_Frame_15">
</g>
<g id="Dashed_Frame_16">
</g>
<g id="Dashed_Frame_17">
</g>
<g id="Dashed_Frame_18">
</g>
<g id="Dashed_Frame_19">
</g>
<g id="Dashed_Frame_20">
	<path d="M29,11.946V11.22C29,9.565,27.406,8,25.72,8h-1.156C23.762,7.656,18.549,5.48,15,5.48S6.238,7.656,5.437,8H4.28
		C2.594,8,1,9.565,1,11.22v0.726C0.386,12.537,0,13.693,0,15s0.386,2.463,1,3.055v0.726C1,20.436,2.594,22,4.28,22h1.157
		c0.801,0.344,6.015,2.52,9.563,2.52s8.762-2.176,9.563-2.52h1.156c1.687,0,3.28-1.564,3.28-3.22v-0.726
		c0.614-0.592,1-1.748,1-3.055S29.614,12.537,29,11.946z M5,17.786c0,0.272-0.217,0.53-0.489,0.536c-0.004,0-0.008,0-0.012,0
		c-0.267,0-0.486-0.176-0.497-0.444L4,17.233c-0.271-0.142-0.509-0.399-0.684-0.752c-0.123-0.248-0.022-0.548,0.226-0.67
		c0.247-0.124,0.548-0.021,0.67,0.225c0.116,0.234,0.238,0.321,0.288,0.321c0.276,0,0.5,0.224,0.5,0.5V17.786z M5,13.143
		c0,0.276-0.224,0.5-0.5,0.5c-0.05,0-0.171,0.087-0.288,0.321c-0.087,0.176-0.264,0.278-0.448,0.278
		c-0.075,0-0.15-0.017-0.222-0.052c-0.248-0.123-0.349-0.422-0.226-0.67c0.175-0.353,0.412-0.61,0.683-0.751v-0.554l0.501-0.072
		L5,12.214V13.143z M5.488,10.058c0.32-0.133,0.66-0.201,1.012-0.201h0.905L7.59,9.784c0.257-0.099,0.547,0.028,0.646,0.286
		c0.1,0.257-0.028,0.547-0.286,0.646l-0.246,0.097C7.64,10.84,7.583,10.855,7.5,10.851v0.006h-1c-0.219,0-0.43,0.042-0.626,0.124
		c-0.063,0.026-0.128,0.039-0.193,0.039c-0.195,0-0.381-0.115-0.461-0.307C5.113,10.458,5.233,10.165,5.488,10.058z M8.251,19.934
		c-0.077,0.198-0.266,0.32-0.467,0.32c-0.06,0-0.121-0.011-0.18-0.033l-0.199-0.078H6.5c-0.347,0-0.683-0.065-0.997-0.195
		c-0.255-0.104-0.377-0.397-0.272-0.652c0.105-0.256,0.398-0.379,0.653-0.271c0.192,0.079,0.4,0.119,0.616,0.119h1
		c0.064,0,0.128,0.013,0.187,0.036l0.277,0.108C8.222,19.387,8.35,19.676,8.251,19.934z M9.63,9.067
		c0.729-0.233,1.431-0.433,2.085-0.592c0.271-0.067,0.539,0.099,0.604,0.367s-0.099,0.539-0.367,0.604
		c-0.632,0.154-1.312,0.347-2.018,0.573c-0.051,0.017-0.102,0.024-0.152,0.024c-0.212,0-0.408-0.135-0.476-0.348
		C9.222,9.432,9.367,9.151,9.63,9.067z M12.334,21.162c-0.056,0.229-0.26,0.381-0.485,0.381c-0.04,0-0.08-0.005-0.12-0.015
		c-0.657-0.161-1.358-0.359-2.083-0.591c-0.263-0.084-0.408-0.365-0.325-0.629c0.083-0.262,0.365-0.406,0.628-0.324
		c0.704,0.225,1.382,0.417,2.018,0.573C12.236,20.623,12.4,20.894,12.334,21.162z M13.872,8.071
		c0.779-0.092,1.463-0.092,2.243-0.001c0.274,0.032,0.471,0.28,0.439,0.554C16.521,8.899,16.27,9.1,15.999,9.063
		c-0.699-0.081-1.312-0.08-2.011,0.001c-0.02,0.002-0.04,0.003-0.059,0.003c-0.25,0-0.466-0.188-0.496-0.442
		C13.401,8.352,13.597,8.104,13.872,8.071z M16.129,21.928c-0.4,0.048-0.813,0.066-1.149,0.072c-0.33,0-0.699-0.023-1.094-0.069
		c-0.274-0.032-0.471-0.281-0.438-0.556c0.032-0.273,0.286-0.467,0.555-0.438c0.346,0.041,0.678,0.062,0.997,0.063
		c0.321,0,0.662-0.023,1.013-0.064c0.27-0.045,0.523,0.163,0.555,0.438C16.6,21.647,16.403,21.896,16.129,21.928z M17.666,8.839
		c0.064-0.268,0.333-0.434,0.604-0.368c0.654,0.159,1.355,0.358,2.085,0.59c0.263,0.084,0.408,0.366,0.324,0.628
		c-0.068,0.213-0.265,0.348-0.477,0.348c-0.05,0-0.102-0.007-0.152-0.024c-0.706-0.226-1.385-0.417-2.017-0.571
		C17.765,9.378,17.601,9.107,17.666,8.839z M20.368,20.934c-0.732,0.234-1.435,0.433-2.085,0.591
		c-0.04,0.01-0.079,0.015-0.118,0.015c-0.226,0-0.431-0.153-0.485-0.382c-0.065-0.269,0.099-0.539,0.367-0.604
		c0.628-0.153,1.307-0.346,2.017-0.573c0.263-0.081,0.544,0.062,0.629,0.324C20.776,20.567,20.631,20.85,20.368,20.934z
		 M21.749,10.065c0.1-0.257,0.386-0.385,0.646-0.287l0.199,0.079H23.5c0.346,0,0.681,0.065,0.996,0.194
		c0.256,0.104,0.378,0.396,0.273,0.652c-0.079,0.193-0.266,0.311-0.463,0.311c-0.063,0-0.127-0.012-0.189-0.037
		c-0.194-0.08-0.402-0.12-0.617-0.12h-1c-0.064,0-0.129-0.013-0.189-0.037l-0.274-0.108C21.778,10.612,21.65,10.323,21.749,10.065z
		 M24.513,19.941c-0.321,0.134-0.662,0.201-1.013,0.201h-0.905l-0.185,0.072c-0.06,0.023-0.12,0.034-0.181,0.034
		c-0.2,0-0.39-0.121-0.466-0.319c-0.101-0.258,0.027-0.547,0.285-0.646l0.264-0.104c0.06-0.023,0.123-0.036,0.188-0.036h1
		c0.218,0,0.43-0.042,0.628-0.125c0.256-0.103,0.548,0.014,0.654,0.27C24.888,19.542,24.768,19.835,24.513,19.941z M26.684,16.481
		c-0.175,0.353-0.412,0.609-0.684,0.751v0.554l-0.502,0.072L25,17.786v-0.929c0-0.276,0.224-0.5,0.5-0.5
		c0.05,0,0.172-0.087,0.287-0.321c0.124-0.248,0.422-0.347,0.671-0.225C26.705,15.934,26.806,16.233,26.684,16.481z M26.458,14.189
		c-0.072,0.036-0.147,0.052-0.223,0.052c-0.184,0-0.36-0.102-0.448-0.278c-0.115-0.234-0.237-0.321-0.287-0.321
		c-0.276,0-0.5-0.224-0.5-0.5v-0.929c0-0.272,0.217-0.53,0.489-0.536c0.273-0.015,0.497,0.171,0.509,0.443l0.001,0.646
		c0.271,0.141,0.509,0.399,0.685,0.752C26.806,13.767,26.705,14.067,26.458,14.189z"/>
</g>
<g id="Dashed_Frame_25">
</g>
<g id="Dashed_Frame_26">
</g>
<g id="Dashed_Frame_27">
</g>
<g id="Dashed_Frame_28">
</g>
<g id="Dashed_Frame_29">
</g>
<g id="Dashed_Frame_30">
</g>
<g id="Dashed_Frame_31">
</g>
<g id="Dashed_Frame_32">
</g>
<g id="Dashed_Frame_33">
</g>
<g id="Dashed_Frame_35">
</g>
</svg>
