<?xml version="1.0" encoding="iso-8859-1"?>
<!-- Generator: Adobe Illustrator 19.2.1, SVG Export Plug-In . SVG Version: 6.00 Build 0)  -->
<svg version="1.1" xmlns="http://www.w3.org/2000/svg" xmlns:xlink="http://www.w3.org/1999/xlink" x="0px" y="0px"
	 viewBox="0 0 30 30" style="enable-background:new 0 0 30 30;" xml:space="preserve">
<g id="Photo_frame">
</g>
<g id="Photo_frame_2">
</g>
<g id="Photo_frame_3">
</g>
<g id="Photo_frame__4">
</g>
<g id="Photo_frame_5">
</g>
<g id="Photo_frame_6">
</g>
<g id="Photo_frame_7">
</g>
<g id="Round_Frame_1">
</g>
<g id="Rectangle_Frame_1">
</g>
<g id="Square_Frame_1">
</g>
<g id="Rectangle_Frame_2">
</g>
<g id="Oval_Frame_1">
</g>
<g id="Round_Frame_2">
</g>
<g id="Rectangle_Frame_3">
</g>
<g id="Rectangle_Frame_4">
</g>
<g id="Rectangle_Frame_5">
</g>
<g id="Square_Frame_2">
</g>
<g id="Rectangle_Frame_6">
</g>
<g id="Rectangle_Frame_7">
</g>
<g id="Oval_Frame_2">
</g>
<g id="Round_Frame_3">
</g>
<g id="Rectangle_Frame_8">
</g>
<g id="Square_Frame_3">
</g>
<g id="Rectangle_Frame_9">
</g>
<g id="Rectangle_Frame_10">
</g>
<g id="Square_Frame_4">
</g>
<g id="Rectangle_Frame_11">
</g>
<g id="Rectangle_Frame_12">
</g>
<g id="Square_Frame_5">
</g>
<g id="Rectangle_Frame_13">
</g>
<g id="Round_Frame">
</g>
<g id="Frame_2">
</g>
<g id="Frame_1">
</g>
<g id="Frame_3">
</g>
<g id="Frame_4">
</g>
<g id="Frame_5">
</g>
<g id="Frame_6">
</g>
<g id="Frame_7">
</g>
<g id="Frame_8">
</g>
<g id="Frame_9">
</g>
<g id="Frame_10">
</g>
<g id="Frame_11">
</g>
<g id="Frame_12">
</g>
<g id="Frame_13">
</g>
<g id="Frame_14">
</g>
<g id="Frame_15">
</g>
<g id="Frame_16">
</g>
<g id="Frame_17">
</g>
<g id="Frame_18">
</g>
<g id="Frame_19">
</g>
<g id="Frame_20">
</g>
<g id="Frame_21">
</g>
<g id="Frame_22">
</g>
<g id="Frame_23">
</g>
<g id="Frame_24">
</g>
<g id="Frame_25">
</g>
<g id="Frame_26">
</g>
<g id="Frame_27">
</g>
<g id="Frame_28">
</g>
<g id="Frame_29">
</g>
<g id="Frame_30">
</g>
<g id="Frame_Hole_1">
</g>
<g id="Frame_Hole_2">
</g>
<g id="Frame_Hole_3">
</g>
<g id="Frame_Hole_4">
</g>
<g id="Frame_31">
</g>
<g id="Frame_32">
</g>
<g id="Frame_33">
</g>
<g id="Frame_34">
</g>
<g id="Frame_35">
</g>
<g id="Dashed_Frame_1">
</g>
<g id="Dashed_Frame_2">
</g>
<g id="Dashed_Frame_3">
	<path d="M26,7.528V4.5C26,4.224,25.776,4,25.5,4h-3.028C20.201,0.615,17.131,0.217,15,0.217c-2.131,0-5.202,0.398-7.472,3.783H4.5
		C4.224,4,4,4.224,4,4.5v3.028C0.615,9.798,0.217,12.869,0.217,15c0,2.131,0.398,5.201,3.783,7.471V25.5C4,25.776,4.224,26,4.5,26
		h3.029c2.27,3.384,5.34,3.782,7.471,3.782s5.201-0.397,7.471-3.782H25.5c0.276,0,0.5-0.224,0.5-0.5v-3.029
		c3.385-2.27,3.782-5.34,3.782-7.471C29.782,12.869,29.385,9.798,26,7.528z M4.74,18.52c-0.084,0.055-0.178,0.08-0.271,0.08
		c-0.164,0-0.325-0.08-0.42-0.229c-0.399-0.618-0.689-1.266-0.861-1.926c-0.069-0.268,0.091-0.541,0.358-0.61
		c0.266-0.072,0.54,0.09,0.61,0.358C4.3,16.75,4.547,17.3,4.889,17.828C5.039,18.06,4.972,18.369,4.74,18.52z M5.029,11.963
		c-0.363,0.517-0.634,1.058-0.806,1.607c-0.067,0.214-0.264,0.351-0.477,0.351c-0.049,0-0.1-0.007-0.149-0.023
		c-0.264-0.083-0.41-0.363-0.328-0.626c0.203-0.648,0.52-1.281,0.941-1.883c0.159-0.226,0.47-0.28,0.697-0.123
		C5.133,11.425,5.188,11.737,5.029,11.963z M10.16,24.001c-0.093,0.075-0.204,0.112-0.315,0.112c-0.146,0-0.29-0.063-0.389-0.185
		l-0.455-0.561H8.279c-0.033,0-0.062-0.013-0.094-0.019c-0.031,0.006-0.06,0.019-0.094,0.019h-0.96c-0.276,0-0.5-0.224-0.5-0.5
		v-0.96c0-0.033,0.013-0.062,0.019-0.093c-0.006-0.031-0.019-0.06-0.019-0.093v-0.723l-0.561-0.456
		c-0.214-0.175-0.246-0.489-0.072-0.703c0.175-0.214,0.49-0.246,0.704-0.072l0.745,0.606c0.116,0.095,0.184,0.237,0.184,0.388v0.96
		c0,0.033-0.013,0.062-0.019,0.093c0.006,0.031,0.019,0.06,0.019,0.093v0.46h0.46c0.033,0,0.062,0.013,0.094,0.019
		c0.031-0.006,0.06-0.019,0.094-0.019h0.96c0.15,0,0.293,0.067,0.388,0.185l0.605,0.745C10.406,23.513,10.374,23.827,10.16,24.001z
		 M10.232,6.702L9.627,7.447C9.532,7.563,9.389,7.631,9.239,7.631h-0.96c-0.033,0-0.062-0.013-0.094-0.019
		c-0.031,0.006-0.06,0.019-0.094,0.019h-0.46v0.46c0,0.033-0.013,0.062-0.019,0.094c0.006,0.031,0.019,0.06,0.019,0.094v0.96
		c0,0.15-0.068,0.293-0.185,0.388l-0.745,0.605c-0.093,0.075-0.204,0.112-0.315,0.112c-0.146,0-0.29-0.063-0.389-0.185
		C5.825,9.945,5.857,9.63,6.071,9.456l0.56-0.455V8.279c0-0.033,0.013-0.062,0.019-0.094c-0.006-0.031-0.019-0.06-0.019-0.094v-0.96
		c0-0.276,0.224-0.5,0.5-0.5h0.96c0.033,0,0.062,0.013,0.094,0.019c0.031-0.006,0.06-0.019,0.094-0.019h0.722l0.455-0.56
		c0.176-0.214,0.489-0.246,0.704-0.073C10.374,6.173,10.406,6.488,10.232,6.702z M13.898,26.403
		c-0.067,0.214-0.264,0.351-0.477,0.351c-0.049,0-0.1-0.007-0.149-0.022c-0.646-0.202-1.279-0.519-1.882-0.941
		c-0.226-0.158-0.281-0.47-0.123-0.696c0.158-0.226,0.47-0.281,0.696-0.122c0.519,0.362,1.06,0.634,1.608,0.805
		C13.834,25.859,13.981,26.14,13.898,26.403z M13.808,4.155C13.25,4.3,12.7,4.547,12.172,4.889c-0.084,0.054-0.178,0.08-0.271,0.08
		c-0.164,0-0.325-0.081-0.42-0.229c-0.15-0.232-0.083-0.542,0.148-0.691c0.618-0.399,1.266-0.689,1.926-0.861
		c0.264-0.067,0.54,0.09,0.61,0.358C14.235,3.813,14.075,4.085,13.808,4.155z M19.84,5.999c0.214-0.174,0.528-0.143,0.703,0.072
		l0.456,0.561h0.723c0.033,0,0.062,0.013,0.093,0.019c0.031-0.006,0.06-0.019,0.093-0.019h0.96c0.276,0,0.5,0.224,0.5,0.5v0.96
		c0,0.033-0.013,0.062-0.019,0.094c0.006,0.031,0.019,0.06,0.019,0.094v0.722l0.561,0.455c0.214,0.174,0.247,0.489,0.072,0.704
		c-0.099,0.122-0.242,0.185-0.388,0.185c-0.111,0-0.223-0.037-0.315-0.112l-0.745-0.605c-0.117-0.095-0.185-0.238-0.185-0.388v-0.96
		c0-0.033,0.013-0.062,0.019-0.094c-0.006-0.031-0.019-0.06-0.019-0.094v-0.46h-0.46c-0.033,0-0.062-0.013-0.093-0.019
		c-0.031,0.006-0.06,0.019-0.093,0.019h-0.96c-0.15,0-0.293-0.068-0.388-0.184l-0.606-0.745C19.593,6.488,19.625,6.173,19.84,5.999z
		 M18.371,25.951c-0.619,0.4-1.268,0.69-1.927,0.861c-0.042,0.011-0.084,0.016-0.125,0.016c-0.223,0-0.426-0.149-0.484-0.375
		c-0.069-0.267,0.091-0.54,0.359-0.609c0.555-0.144,1.104-0.39,1.634-0.732c0.23-0.147,0.541-0.085,0.691,0.148
		C18.669,25.491,18.603,25.801,18.371,25.951z M18.732,4.908C18.635,5.046,18.48,5.12,18.323,5.12c-0.1,0-0.2-0.029-0.287-0.091
		c-0.516-0.362-1.057-0.634-1.606-0.806c-0.264-0.083-0.41-0.363-0.328-0.626c0.083-0.264,0.365-0.409,0.627-0.328
		c0.649,0.204,1.282,0.521,1.882,0.942C18.837,4.37,18.891,4.682,18.732,4.908z M23.929,20.543l-0.561,0.456v0.723
		c0,0.033-0.013,0.062-0.019,0.093c0.006,0.031,0.019,0.06,0.019,0.093v0.96c0,0.276-0.224,0.5-0.5,0.5h-0.96
		c-0.033,0-0.062-0.013-0.093-0.019c-0.031,0.006-0.06,0.019-0.093,0.019h-0.723l-0.456,0.561c-0.099,0.122-0.243,0.185-0.388,0.185
		c-0.111,0-0.223-0.037-0.315-0.112c-0.215-0.174-0.247-0.489-0.072-0.703l0.606-0.745c0.095-0.117,0.237-0.185,0.388-0.185h0.96
		c0.033,0,0.062,0.013,0.093,0.019c0.031-0.006,0.06-0.019,0.093-0.019h0.46v-0.46c0-0.033,0.013-0.062,0.019-0.093
		c-0.006-0.031-0.019-0.06-0.019-0.093v-0.96c0-0.15,0.067-0.293,0.185-0.388l0.745-0.606c0.213-0.173,0.528-0.145,0.703,0.072
		C24.176,20.054,24.144,20.369,23.929,20.543z M26.731,16.729c-0.202,0.646-0.52,1.279-0.941,1.882
		c-0.097,0.139-0.252,0.213-0.409,0.213c-0.1,0-0.199-0.029-0.287-0.091c-0.226-0.158-0.281-0.47-0.122-0.696
		c0.362-0.518,0.634-1.058,0.805-1.606c0.082-0.263,0.36-0.411,0.627-0.328C26.667,16.185,26.813,16.465,26.731,16.729z
		 M26.455,14.166c-0.042,0.011-0.085,0.016-0.126,0.016c-0.223,0-0.425-0.149-0.483-0.374c-0.146-0.556-0.393-1.106-0.734-1.635
		c-0.149-0.232-0.083-0.542,0.148-0.691c0.229-0.148,0.541-0.085,0.691,0.148c0.399,0.618,0.689,1.267,0.861,1.926
		C26.883,13.823,26.723,14.096,26.455,14.166z"/>
</g>
<g id="Dashed_Frame_4">
</g>
<g id="Dashed_Frame_5">
</g>
<g id="Dashed_Frame_6">
</g>
<g id="Dashed_Frame_7">
</g>
<g id="Dashed_Frame_8">
</g>
<g id="Dashed_Frame_9">
</g>
<g id="Dashed_Frame_10">
</g>
<g id="Dashed_Frame_11">
</g>
<g id="Dashed_Frame_12">
</g>
<g id="Dashed_Frame_13">
</g>
<g id="Dashed_Frame_14">
</g>
<g id="Dashed_Frame_15">
</g>
<g id="Dashed_Frame_16">
</g>
<g id="Dashed_Frame_17">
</g>
<g id="Dashed_Frame_18">
</g>
<g id="Dashed_Frame_19">
</g>
<g id="Dashed_Frame_20">
</g>
<g id="Dashed_Frame_25">
</g>
<g id="Dashed_Frame_26">
</g>
<g id="Dashed_Frame_27">
</g>
<g id="Dashed_Frame_28">
</g>
<g id="Dashed_Frame_29">
</g>
<g id="Dashed_Frame_30">
</g>
<g id="Dashed_Frame_31">
</g>
<g id="Dashed_Frame_32">
</g>
<g id="Dashed_Frame_33">
</g>
<g id="Dashed_Frame_35">
</g>
</svg>
