<?xml version="1.0" encoding="iso-8859-1"?>
<!-- Generator: Adobe Illustrator 19.2.1, SVG Export Plug-In . SVG Version: 6.00 Build 0)  -->
<svg version="1.1" xmlns="http://www.w3.org/2000/svg" xmlns:xlink="http://www.w3.org/1999/xlink" x="0px" y="0px"
	 viewBox="0 0 30 30" style="enable-background:new 0 0 30 30;" xml:space="preserve">
<g id="Photo_frame">
</g>
<g id="Photo_frame_2">
</g>
<g id="Photo_frame_3">
</g>
<g id="Photo_frame__4">
</g>
<g id="Photo_frame_5">
</g>
<g id="Photo_frame_6">
</g>
<g id="Photo_frame_7">
</g>
<g id="Round_Frame_1">
</g>
<g id="Rectangle_Frame_1">
</g>
<g id="Square_Frame_1">
</g>
<g id="Rectangle_Frame_2">
</g>
<g id="Oval_Frame_1">
</g>
<g id="Round_Frame_2">
</g>
<g id="Rectangle_Frame_3">
</g>
<g id="Rectangle_Frame_4">
</g>
<g id="Rectangle_Frame_5">
</g>
<g id="Square_Frame_2">
</g>
<g id="Rectangle_Frame_6">
</g>
<g id="Rectangle_Frame_7">
</g>
<g id="Oval_Frame_2">
</g>
<g id="Round_Frame_3">
</g>
<g id="Rectangle_Frame_8">
</g>
<g id="Square_Frame_3">
</g>
<g id="Rectangle_Frame_9">
</g>
<g id="Rectangle_Frame_10">
</g>
<g id="Square_Frame_4">
</g>
<g id="Rectangle_Frame_11">
</g>
<g id="Rectangle_Frame_12">
</g>
<g id="Square_Frame_5">
</g>
<g id="Rectangle_Frame_13">
</g>
<g id="Round_Frame">
</g>
<g id="Frame_2">
</g>
<g id="Frame_1">
</g>
<g id="Frame_3">
</g>
<g id="Frame_4">
</g>
<g id="Frame_5">
</g>
<g id="Frame_6">
</g>
<g id="Frame_7">
</g>
<g id="Frame_8">
</g>
<g id="Frame_9">
</g>
<g id="Frame_10">
</g>
<g id="Frame_11">
</g>
<g id="Frame_12">
</g>
<g id="Frame_13">
</g>
<g id="Frame_14">
</g>
<g id="Frame_15">
</g>
<g id="Frame_16">
</g>
<g id="Frame_17">
</g>
<g id="Frame_18">
</g>
<g id="Frame_19">
</g>
<g id="Frame_20">
</g>
<g id="Frame_21">
</g>
<g id="Frame_22">
</g>
<g id="Frame_23">
</g>
<g id="Frame_24">
</g>
<g id="Frame_25">
</g>
<g id="Frame_26">
</g>
<g id="Frame_27">
</g>
<g id="Frame_28">
</g>
<g id="Frame_29">
</g>
<g id="Frame_30">
</g>
<g id="Frame_Hole_1">
</g>
<g id="Frame_Hole_2">
</g>
<g id="Frame_Hole_3">
</g>
<g id="Frame_Hole_4">
</g>
<g id="Frame_31">
</g>
<g id="Frame_32">
</g>
<g id="Frame_33">
</g>
<g id="Frame_34">
</g>
<g id="Frame_35">
</g>
<g id="Dashed_Frame_1">
</g>
<g id="Dashed_Frame_2">
</g>
<g id="Dashed_Frame_3">
</g>
<g id="Dashed_Frame_4">
</g>
<g id="Dashed_Frame_5">
</g>
<g id="Dashed_Frame_6">
</g>
<g id="Dashed_Frame_7">
</g>
<g id="Dashed_Frame_8">
</g>
<g id="Dashed_Frame_9">
	<path d="M25.045,11.031l-0.583-3.968c-0.014-0.088-0.05-0.171-0.105-0.24l-2.503-3.121l-2.569-3.043
		c-0.081-0.096-0.195-0.158-0.32-0.173l-3.903-0.481c-0.04-0.005-0.082-0.005-0.122,0l-3.901,0.481
		c-0.125,0.015-0.24,0.077-0.321,0.173L8.138,3.711l-2.495,3.11c-0.056,0.069-0.092,0.152-0.104,0.24l-0.575,3.925l-0.95,3.895
		c-0.019,0.078-0.019,0.159,0,0.237l0.941,3.851l0.583,3.968c0.013,0.088,0.049,0.171,0.104,0.24l2.503,3.121l2.57,3.043
		c0.081,0.097,0.196,0.158,0.321,0.174l3.902,0.481C14.959,29.999,14.979,30,15,30s0.041-0.001,0.061-0.004l3.901-0.48
		c0.125-0.016,0.239-0.077,0.32-0.174l2.579-3.053l2.494-3.111c0.056-0.069,0.092-0.151,0.105-0.239l0.575-3.925l0.949-3.896
		c0.02-0.078,0.02-0.159,0-0.237L25.045,11.031z M21.353,7.373l0.454,1.354l0.242,0.544c0.112,0.252-0.003,0.548-0.255,0.659
		c-0.066,0.029-0.135,0.042-0.202,0.042c-0.191,0-0.375-0.111-0.457-0.298l-0.259-0.586l-0.471-1.396
		c-0.088-0.262,0.053-0.545,0.314-0.633C20.983,6.971,21.267,7.111,21.353,7.373z M18.027,4.123c0.168-0.22,0.482-0.262,0.7-0.096
		l1.648,1.25c0.221,0.167,0.264,0.48,0.097,0.701c-0.099,0.129-0.248,0.198-0.398,0.198c-0.105,0-0.212-0.033-0.302-0.102
		l-1.648-1.25C17.903,4.656,17.86,4.343,18.027,4.123z M8.938,6.51l0.273-0.813c0.032-0.095,0.092-0.179,0.172-0.239l0.965-0.731
		c0.221-0.167,0.533-0.124,0.7,0.097c0.167,0.22,0.124,0.534-0.097,0.7L10.11,6.161L9.886,6.829
		c-0.07,0.209-0.265,0.341-0.474,0.341c-0.053,0-0.106-0.008-0.159-0.026C8.991,7.055,8.85,6.772,8.938,6.51z M7.481,10.33
		l0.797-1.858C8.367,8.21,8.651,8.07,8.912,8.157C9.173,8.245,9.314,8.528,9.227,8.79L9.142,9.043l-0.745,1.691
		c-0.083,0.187-0.266,0.298-0.458,0.298c-0.067,0-0.136-0.014-0.202-0.042C7.484,10.878,7.37,10.583,7.481,10.33z M7.388,11.982
		c0.272-0.01,0.513,0.19,0.532,0.466l0.136,2.064c0.018,0.275-0.19,0.514-0.466,0.532c-0.011,0-0.022,0.001-0.033,0.001
		c-0.261,0-0.481-0.203-0.499-0.467l-0.136-2.064C6.904,12.239,7.112,12,7.388,11.982z M7.571,19.135
		c-0.192,0-0.375-0.111-0.458-0.298l-0.195-0.44c-0.033-0.074-0.047-0.154-0.042-0.235l0.105-1.584
		C7,16.302,7.245,16.082,7.514,16.111c0.275,0.019,0.484,0.257,0.466,0.532l-0.097,1.461l0.145,0.328
		c0.112,0.252-0.002,0.548-0.255,0.659C7.707,19.121,7.638,19.135,7.571,19.135z M9.122,22.968c-0.209,0-0.404-0.132-0.474-0.341
		l-0.455-1.354L7.95,20.729c-0.111-0.253,0.003-0.548,0.255-0.659c0.255-0.112,0.549,0.004,0.66,0.255l0.259,0.587l0.471,1.396
		c0.088,0.262-0.053,0.545-0.315,0.633C9.228,22.96,9.174,22.968,9.122,22.968z M11.973,25.877c-0.098,0.13-0.248,0.198-0.399,0.198
		c-0.105,0-0.211-0.033-0.302-0.102l-1.649-1.25c-0.22-0.167-0.263-0.48-0.096-0.7c0.166-0.221,0.48-0.265,0.701-0.097l1.649,1.25
		C12.096,25.344,12.14,25.657,11.973,25.877z M12.906,4.153L12.537,4.34c-0.072,0.037-0.149,0.054-0.225,0.054
		c-0.183,0-0.358-0.1-0.447-0.274c-0.125-0.246-0.026-0.547,0.221-0.672l0.369-0.187c0.245-0.126,0.547-0.026,0.672,0.221
		C13.251,3.728,13.152,4.028,12.906,4.153z M16.366,27.336l-1.141,0.577c-0.071,0.036-0.148,0.054-0.226,0.054
		c-0.078,0-0.155-0.018-0.226-0.054l-1.14-0.577c-0.247-0.125-0.345-0.426-0.221-0.672c0.125-0.245,0.426-0.343,0.672-0.221
		L15,26.906l0.915-0.463c0.245-0.124,0.547-0.026,0.672,0.221C16.712,26.91,16.612,27.211,16.366,27.336z M16.587,3.336
		C16.499,3.51,16.322,3.61,16.141,3.61c-0.076,0-0.153-0.017-0.226-0.054L15,3.093l-0.915,0.463
		c-0.248,0.125-0.547,0.025-0.672-0.221s-0.026-0.547,0.221-0.672l1.14-0.577c0.142-0.071,0.309-0.071,0.452,0l1.14,0.578
		C16.613,2.789,16.712,3.09,16.587,3.336z M17.914,26.553l-0.368,0.187c-0.072,0.036-0.149,0.054-0.226,0.054
		c-0.182,0-0.358-0.101-0.446-0.274c-0.125-0.246-0.026-0.547,0.221-0.672l0.368-0.187c0.245-0.122,0.548-0.026,0.672,0.221
		C18.26,26.127,18.161,26.428,17.914,26.553z M21.062,23.489l-0.273,0.813c-0.031,0.096-0.092,0.179-0.172,0.239l-0.966,0.731
		c-0.09,0.068-0.196,0.102-0.302,0.102c-0.15,0-0.3-0.068-0.398-0.198c-0.167-0.22-0.124-0.533,0.097-0.7l0.843-0.639l0.225-0.667
		c0.089-0.261,0.372-0.406,0.633-0.314C21.009,22.944,21.149,23.228,21.062,23.489z M22.518,19.67l-0.796,1.857
		c-0.07,0.21-0.266,0.342-0.475,0.342c-0.053,0-0.106-0.008-0.158-0.025c-0.263-0.088-0.403-0.371-0.316-0.633l0.085-0.254
		l0.746-1.691c0.111-0.252,0.408-0.368,0.659-0.255C22.516,19.122,22.63,19.417,22.518,19.67z M22.612,18.018
		c-0.012,0.001-0.022,0.001-0.033,0.001c-0.262,0-0.481-0.203-0.499-0.467l-0.137-2.064c-0.019-0.276,0.19-0.514,0.466-0.532
		c0.281-0.007,0.514,0.19,0.532,0.466l0.137,2.064C23.097,17.761,22.888,17.999,22.612,18.018z M23.018,13.423
		C23,13.687,22.78,13.89,22.52,13.89c-0.012,0-0.022,0-0.034-0.001c-0.275-0.019-0.484-0.257-0.466-0.532l0.098-1.46l-0.146-0.328
		c-0.112-0.252,0.002-0.548,0.255-0.66c0.249-0.111,0.547,0.001,0.659,0.254l0.195,0.441c0.033,0.074,0.047,0.155,0.042,0.236
		L23.018,13.423z"/>
</g>
<g id="Dashed_Frame_10">
</g>
<g id="Dashed_Frame_11">
</g>
<g id="Dashed_Frame_12">
</g>
<g id="Dashed_Frame_13">
</g>
<g id="Dashed_Frame_14">
</g>
<g id="Dashed_Frame_15">
</g>
<g id="Dashed_Frame_16">
</g>
<g id="Dashed_Frame_17">
</g>
<g id="Dashed_Frame_18">
</g>
<g id="Dashed_Frame_19">
</g>
<g id="Dashed_Frame_20">
</g>
<g id="Dashed_Frame_25">
</g>
<g id="Dashed_Frame_26">
</g>
<g id="Dashed_Frame_27">
</g>
<g id="Dashed_Frame_28">
</g>
<g id="Dashed_Frame_29">
</g>
<g id="Dashed_Frame_30">
</g>
<g id="Dashed_Frame_31">
</g>
<g id="Dashed_Frame_32">
</g>
<g id="Dashed_Frame_33">
</g>
<g id="Dashed_Frame_35">
</g>
</svg>
