<?xml version="1.0" encoding="iso-8859-1"?>
<!-- Generator: Adobe Illustrator 19.2.1, SVG Export Plug-In . SVG Version: 6.00 Build 0)  -->
<svg version="1.1" xmlns="http://www.w3.org/2000/svg" xmlns:xlink="http://www.w3.org/1999/xlink" x="0px" y="0px"
	 viewBox="0 0 30 30" style="enable-background:new 0 0 30 30;" xml:space="preserve">
<g id="Photo_frame">
</g>
<g id="Photo_frame_2">
</g>
<g id="Photo_frame_3">
</g>
<g id="Photo_frame__4">
</g>
<g id="Photo_frame_5">
</g>
<g id="Photo_frame_6">
</g>
<g id="Photo_frame_7">
</g>
<g id="Round_Frame_1">
</g>
<g id="Rectangle_Frame_1">
</g>
<g id="Square_Frame_1">
</g>
<g id="Rectangle_Frame_2">
</g>
<g id="Oval_Frame_1">
</g>
<g id="Round_Frame_2">
</g>
<g id="Rectangle_Frame_3">
</g>
<g id="Rectangle_Frame_4">
</g>
<g id="Rectangle_Frame_5">
</g>
<g id="Square_Frame_2">
</g>
<g id="Rectangle_Frame_6">
</g>
<g id="Rectangle_Frame_7">
</g>
<g id="Oval_Frame_2">
</g>
<g id="Round_Frame_3">
</g>
<g id="Rectangle_Frame_8">
</g>
<g id="Square_Frame_3">
</g>
<g id="Rectangle_Frame_9">
</g>
<g id="Rectangle_Frame_10">
</g>
<g id="Square_Frame_4">
</g>
<g id="Rectangle_Frame_11">
</g>
<g id="Rectangle_Frame_12">
</g>
<g id="Square_Frame_5">
</g>
<g id="Rectangle_Frame_13">
</g>
<g id="Round_Frame">
</g>
<g id="Frame_2">
</g>
<g id="Frame_1">
</g>
<g id="Frame_3">
</g>
<g id="Frame_4">
</g>
<g id="Frame_5">
</g>
<g id="Frame_6">
</g>
<g id="Frame_7">
</g>
<g id="Frame_8">
</g>
<g id="Frame_9">
</g>
<g id="Frame_10">
</g>
<g id="Frame_11">
</g>
<g id="Frame_12">
</g>
<g id="Frame_13">
</g>
<g id="Frame_14">
</g>
<g id="Frame_15">
</g>
<g id="Frame_16">
</g>
<g id="Frame_17">
</g>
<g id="Frame_18">
</g>
<g id="Frame_19">
</g>
<g id="Frame_20">
</g>
<g id="Frame_21">
</g>
<g id="Frame_22">
</g>
<g id="Frame_23">
</g>
<g id="Frame_24">
</g>
<g id="Frame_25">
</g>
<g id="Frame_26">
</g>
<g id="Frame_27">
</g>
<g id="Frame_28">
</g>
<g id="Frame_29">
</g>
<g id="Frame_30">
</g>
<g id="Frame_Hole_1">
</g>
<g id="Frame_Hole_2">
</g>
<g id="Frame_Hole_3">
</g>
<g id="Frame_Hole_4">
</g>
<g id="Frame_31">
</g>
<g id="Frame_32">
</g>
<g id="Frame_33">
</g>
<g id="Frame_34">
</g>
<g id="Frame_35">
</g>
<g id="Dashed_Frame_1">
</g>
<g id="Dashed_Frame_2">
</g>
<g id="Dashed_Frame_3">
</g>
<g id="Dashed_Frame_4">
</g>
<g id="Dashed_Frame_5">
</g>
<g id="Dashed_Frame_6">
</g>
<g id="Dashed_Frame_7">
</g>
<g id="Dashed_Frame_8">
</g>
<g id="Dashed_Frame_9">
</g>
<g id="Dashed_Frame_10">
</g>
<g id="Dashed_Frame_11">
</g>
<g id="Dashed_Frame_12">
</g>
<g id="Dashed_Frame_13">
</g>
<g id="Dashed_Frame_14">
</g>
<g id="Dashed_Frame_15">
</g>
<g id="Dashed_Frame_16">
</g>
<g id="Dashed_Frame_17">
</g>
<g id="Dashed_Frame_18">
</g>
<g id="Dashed_Frame_19">
</g>
<g id="Dashed_Frame_20">
</g>
<g id="Dashed_Frame_25">
</g>
<g id="Dashed_Frame_26">
</g>
<g id="Dashed_Frame_27">
</g>
<g id="Dashed_Frame_28">
</g>
<g id="Dashed_Frame_29">
</g>
<g id="Dashed_Frame_30">
	<path d="M23.5,3H18c-1.379,0-2.5-1.122-2.5-2.5C15.5,0.224,15.276,0,15,0s-0.5,0.224-0.5,0.5C14.5,1.878,13.378,3,12,3H6.5
		C4.57,3,3,4.57,3,6.5v17C3,25.43,4.57,27,6.5,27H12c1.378,0,2.5,1.121,2.5,2.5c0,0.276,0.224,0.5,0.5,0.5s0.5-0.224,0.5-0.5
		c0-1.379,1.121-2.5,2.5-2.5h5.5c1.93,0,3.5-1.57,3.5-3.5v-17C27,4.57,25.43,3,23.5,3z M6,12.158c0-0.276,0.224-0.5,0.5-0.5
		s0.5,0.224,0.5,0.5v1.895c0,0.276-0.224,0.5-0.5,0.5S6,14.33,6,14.053V12.158z M6,15.948c0-0.276,0.224-0.5,0.5-0.5
		s0.5,0.224,0.5,0.5v1.895c0,0.276-0.224,0.5-0.5,0.5S6,18.119,6,17.843V15.948z M6.662,22.117c-0.037,0.008-0.074,0.012-0.11,0.012
		c-0.229,0-0.435-0.158-0.487-0.391C6.021,21.548,6,21.352,6,21.155v-1.417c0-0.276,0.224-0.5,0.5-0.5s0.5,0.224,0.5,0.5v1.417
		c0,0.123,0.014,0.245,0.04,0.364C7.101,21.789,6.931,22.057,6.662,22.117z M7.041,8.482C7.014,8.6,7,8.723,7,8.846v1.417
		c0,0.276-0.224,0.5-0.5,0.5S6,10.54,6,10.263V8.845c0-0.198,0.022-0.393,0.065-0.582c0.061-0.27,0.329-0.44,0.598-0.378
		C6.932,7.945,7.101,8.213,7.041,8.482z M7.449,6.48c0.388-0.201,0.827-0.308,1.269-0.308h0.816c0.276,0,0.5,0.224,0.5,0.5
		s-0.224,0.5-0.5,0.5H8.717c-0.286,0-0.558,0.066-0.808,0.195C7.836,7.406,7.757,7.424,7.68,7.424c-0.181,0-0.355-0.098-0.444-0.27
		C7.108,6.909,7.204,6.607,7.449,6.48z M9.535,23.827H8.717c-0.441,0-0.879-0.106-1.267-0.307c-0.245-0.127-0.341-0.429-0.214-0.675
		c0.127-0.243,0.431-0.339,0.674-0.214c0.246,0.128,0.525,0.195,0.807,0.195h0.817c0.276,0,0.5,0.224,0.5,0.5
		S9.811,23.827,9.535,23.827z M11.429,6.172h1.354c0.142,0,0.282-0.017,0.417-0.05c0.268-0.065,0.539,0.099,0.605,0.367
		c0.065,0.269-0.099,0.539-0.367,0.605c-0.212,0.052-0.433,0.078-0.655,0.078h-1.354c-0.276,0-0.5-0.224-0.5-0.5
		S11.152,6.172,11.429,6.172z M13.806,23.507c-0.055,0.229-0.26,0.384-0.486,0.384c-0.039,0-0.077-0.004-0.116-0.014
		c-0.139-0.033-0.281-0.05-0.421-0.05H11.43c-0.276,0-0.5-0.224-0.5-0.5s0.224-0.5,0.5-0.5h1.353c0.218,0,0.438,0.026,0.653,0.077
		C13.704,22.968,13.87,23.237,13.806,23.507z M15.678,24.757C15.56,24.989,15.5,25.239,15.5,25.5c0,0.276-0.224,0.5-0.5,0.5
		s-0.5-0.224-0.5-0.5c0-0.261-0.06-0.511-0.178-0.743c-0.125-0.246-0.027-0.547,0.219-0.672c0.151-0.076,0.322-0.07,0.459,0.003
		c0.138-0.073,0.309-0.08,0.459-0.003C15.705,24.21,15.803,24.511,15.678,24.757z M15.459,5.916
		c-0.073,0.037-0.15,0.054-0.226,0.054c-0.082,0-0.162-0.02-0.233-0.057c-0.138,0.071-0.308,0.079-0.459,0.003
		c-0.246-0.125-0.344-0.426-0.219-0.672C14.44,5.011,14.5,4.761,14.5,4.5C14.5,4.224,14.724,4,15,4s0.5,0.224,0.5,0.5
		c0,0.261,0.06,0.511,0.178,0.743C15.803,5.489,15.705,5.791,15.459,5.916z M16.195,6.489c0.065-0.268,0.335-0.433,0.604-0.367
		c0.136,0.033,0.276,0.05,0.418,0.05h1.353c0.276,0,0.5,0.224,0.5,0.5s-0.224,0.5-0.5,0.5h-1.353c-0.222,0-0.442-0.026-0.656-0.079
		C16.294,7.028,16.13,6.757,16.195,6.489z M18.571,23.827h-1.354c-0.141,0-0.281,0.017-0.417,0.05
		c-0.04,0.01-0.08,0.015-0.119,0.015c-0.226,0-0.43-0.153-0.485-0.381c-0.065-0.269,0.099-0.539,0.366-0.604
		c0.214-0.053,0.435-0.079,0.655-0.079h1.354c0.276,0,0.5,0.224,0.5,0.5S18.848,23.827,18.571,23.827z M20.465,6.172h0.817
		c0.001,0,0.002,0,0.004,0c0.438,0,0.875,0.106,1.263,0.307c0.245,0.126,0.342,0.428,0.215,0.674
		c-0.089,0.171-0.264,0.27-0.444,0.27c-0.078,0-0.156-0.018-0.229-0.056c-0.25-0.129-0.521-0.194-0.805-0.194
		c-0.001,0-0.002,0-0.002,0h-0.818c-0.276,0-0.5-0.224-0.5-0.5S20.188,6.172,20.465,6.172z M22.551,23.521
		c-0.388,0.2-0.826,0.307-1.269,0.307h-0.815c-0.276,0-0.5-0.224-0.5-0.5s0.224-0.5,0.5-0.5h0.815c0.287,0,0.56-0.065,0.81-0.195
		c0.242-0.127,0.547-0.031,0.674,0.215C22.893,23.092,22.796,23.394,22.551,23.521z M24,21.155
		c-0.001,0.201-0.023,0.396-0.064,0.582c-0.053,0.232-0.259,0.391-0.488,0.391c-0.036,0-0.072-0.004-0.109-0.012
		c-0.27-0.061-0.438-0.328-0.379-0.598c0.026-0.117,0.04-0.24,0.041-0.366v-1.416c0-0.276,0.224-0.5,0.5-0.5s0.5,0.224,0.5,0.5
		V21.155z M24,17.842c0,0.276-0.224,0.5-0.5,0.5s-0.5-0.224-0.5-0.5v-1.895c0-0.276,0.224-0.5,0.5-0.5s0.5,0.224,0.5,0.5V17.842z
		 M24,14.052c0,0.276-0.224,0.5-0.5,0.5s-0.5-0.224-0.5-0.5v-1.895c0-0.276,0.224-0.5,0.5-0.5s0.5,0.224,0.5,0.5V14.052z M24,10.262
		c0,0.276-0.224,0.5-0.5,0.5s-0.5-0.224-0.5-0.5V8.845c0-0.122-0.014-0.244-0.041-0.364c-0.06-0.27,0.109-0.537,0.379-0.597
		c0.272-0.06,0.536,0.109,0.598,0.378C23.979,8.454,24,8.649,24,8.845V10.262z"/>
</g>
<g id="Dashed_Frame_31">
</g>
<g id="Dashed_Frame_32">
</g>
<g id="Dashed_Frame_33">
</g>
<g id="Dashed_Frame_35">
</g>
</svg>
