<?xml version="1.0" encoding="iso-8859-1"?>
<!-- Generator: Adobe Illustrator 19.2.1, SVG Export Plug-In . SVG Version: 6.00 Build 0)  -->
<svg version="1.1" xmlns="http://www.w3.org/2000/svg" xmlns:xlink="http://www.w3.org/1999/xlink" x="0px" y="0px"
	 viewBox="0 0 30 30" style="enable-background:new 0 0 30 30;" xml:space="preserve">
<g id="Photo_frame">
</g>
<g id="Photo_frame_2">
</g>
<g id="Photo_frame_3">
</g>
<g id="Photo_frame__4">
</g>
<g id="Photo_frame_5">
</g>
<g id="Photo_frame_6">
</g>
<g id="Photo_frame_7">
</g>
<g id="Round_Frame_1">
</g>
<g id="Rectangle_Frame_1">
</g>
<g id="Square_Frame_1">
</g>
<g id="Rectangle_Frame_2">
</g>
<g id="Oval_Frame_1">
</g>
<g id="Round_Frame_2">
</g>
<g id="Rectangle_Frame_3">
</g>
<g id="Rectangle_Frame_4">
</g>
<g id="Rectangle_Frame_5">
</g>
<g id="Square_Frame_2">
</g>
<g id="Rectangle_Frame_6">
</g>
<g id="Rectangle_Frame_7">
</g>
<g id="Oval_Frame_2">
</g>
<g id="Round_Frame_3">
</g>
<g id="Rectangle_Frame_8">
</g>
<g id="Square_Frame_3">
</g>
<g id="Rectangle_Frame_9">
</g>
<g id="Rectangle_Frame_10">
</g>
<g id="Square_Frame_4">
</g>
<g id="Rectangle_Frame_11">
</g>
<g id="Rectangle_Frame_12">
</g>
<g id="Square_Frame_5">
</g>
<g id="Rectangle_Frame_13">
</g>
<g id="Round_Frame">
</g>
<g id="Frame_2">
</g>
<g id="Frame_1">
</g>
<g id="Frame_3">
</g>
<g id="Frame_4">
</g>
<g id="Frame_5">
</g>
<g id="Frame_6">
</g>
<g id="Frame_7">
</g>
<g id="Frame_8">
</g>
<g id="Frame_9">
</g>
<g id="Frame_10">
</g>
<g id="Frame_11">
</g>
<g id="Frame_12">
</g>
<g id="Frame_13">
</g>
<g id="Frame_14">
</g>
<g id="Frame_15">
</g>
<g id="Frame_16">
</g>
<g id="Frame_17">
</g>
<g id="Frame_18">
</g>
<g id="Frame_19">
</g>
<g id="Frame_20">
</g>
<g id="Frame_21">
</g>
<g id="Frame_22">
</g>
<g id="Frame_23">
</g>
<g id="Frame_24">
</g>
<g id="Frame_25">
</g>
<g id="Frame_26">
</g>
<g id="Frame_27">
</g>
<g id="Frame_28">
</g>
<g id="Frame_29">
</g>
<g id="Frame_30">
</g>
<g id="Frame_Hole_1">
</g>
<g id="Frame_Hole_2">
</g>
<g id="Frame_Hole_3">
</g>
<g id="Frame_Hole_4">
</g>
<g id="Frame_31">
</g>
<g id="Frame_32">
</g>
<g id="Frame_33">
</g>
<g id="Frame_34">
</g>
<g id="Frame_35">
</g>
<g id="Dashed_Frame_1">
</g>
<g id="Dashed_Frame_2">
</g>
<g id="Dashed_Frame_3">
</g>
<g id="Dashed_Frame_4">
</g>
<g id="Dashed_Frame_5">
</g>
<g id="Dashed_Frame_6">
</g>
<g id="Dashed_Frame_7">
</g>
<g id="Dashed_Frame_8">
</g>
<g id="Dashed_Frame_9">
</g>
<g id="Dashed_Frame_10">
</g>
<g id="Dashed_Frame_11">
</g>
<g id="Dashed_Frame_12">
</g>
<g id="Dashed_Frame_13">
</g>
<g id="Dashed_Frame_14">
</g>
<g id="Dashed_Frame_15">
</g>
<g id="Dashed_Frame_16">
</g>
<g id="Dashed_Frame_17">
	<path d="M27,7.8V5.5C27,5.224,26.776,5,26.5,5h-3.215C20.818,3.691,17.956,3,15,3S9.182,3.691,6.714,5H3.5C3.224,5,3,5.224,3,5.5
		v2.3C1.037,9.89,0,12.375,0,15c0,2.624,1.037,5.109,3,7.2v2.3C3,24.776,3.224,25,3.5,25h3.214c2.468,1.309,5.33,2,8.286,2
		s5.818-0.691,8.285-2H26.5c0.276,0,0.5-0.224,0.5-0.5v-2.3c1.964-2.091,3-4.576,3-7.2C30,12.375,28.964,9.89,27,7.8z M3.723,12.153
		C4.01,11.6,4.381,11.064,4.826,10.56c0.183-0.208,0.5-0.226,0.706-0.044c0.207,0.183,0.227,0.499,0.044,0.706
		c-0.391,0.444-0.716,0.913-0.967,1.394c-0.089,0.171-0.263,0.27-0.444,0.27c-0.078,0-0.157-0.018-0.23-0.057
		C3.69,12.7,3.595,12.398,3.723,12.153z M3.579,16.412c-0.239,0-0.45-0.171-0.492-0.414C3.03,15.669,3,15.334,3,15.001
		c0-0.331,0.028-0.662,0.084-0.987c0.047-0.272,0.308-0.454,0.578-0.408c0.272,0.047,0.455,0.306,0.408,0.578
		C4.023,14.453,4,14.727,4,15c0,0.275,0.025,0.554,0.072,0.826s-0.135,0.531-0.407,0.578C3.636,16.41,3.607,16.412,3.579,16.412z
		 M4.834,19.449c-0.445-0.503-0.817-1.038-1.106-1.592c-0.127-0.245-0.033-0.547,0.212-0.675c0.243-0.125,0.547-0.033,0.675,0.212
		c0.251,0.481,0.577,0.95,0.969,1.393c0.183,0.206,0.164,0.522-0.043,0.705c-0.095,0.085-0.213,0.126-0.332,0.126
		C5.07,19.618,4.933,19.562,4.834,19.449z M6.921,22.167h-1c-0.276,0-0.5-0.224-0.5-0.5v-1c0-0.276,0.224-0.5,0.5-0.5
		s0.5,0.224,0.5,0.5v0.5h0.5c0.276,0,0.5,0.224,0.5,0.5S7.197,22.167,6.921,22.167z M6.921,8.833h-0.5v0.5
		c0,0.276-0.224,0.5-0.5,0.5s-0.5-0.224-0.5-0.5v-1c0-0.276,0.224-0.5,0.5-0.5h1c0.276,0,0.5,0.224,0.5,0.5S7.197,8.833,6.921,8.833
		z M8.559,7.856l0.382-0.162c0.443-0.188,0.909-0.357,1.383-0.504c0.267-0.082,0.544,0.067,0.625,0.331
		c0.081,0.264-0.067,0.544-0.331,0.625C10.177,8.283,9.744,8.44,9.332,8.615L8.95,8.777c-0.064,0.027-0.13,0.04-0.195,0.04
		c-0.194,0-0.379-0.114-0.46-0.305C8.186,8.258,8.305,7.964,8.559,7.856z M10.954,22.479c-0.066,0.215-0.264,0.354-0.478,0.354
		c-0.048,0-0.098-0.007-0.146-0.021c-0.471-0.145-0.938-0.314-1.388-0.506l-0.378-0.159c-0.254-0.108-0.373-0.401-0.266-0.656
		s0.403-0.369,0.655-0.266l0.378,0.16c0.419,0.178,0.853,0.336,1.291,0.47C10.887,21.935,11.035,22.215,10.954,22.479z
		 M12.169,6.748c0.618-0.109,1.251-0.184,1.883-0.219c0.253-0.016,0.512,0.194,0.527,0.471c0.016,0.275-0.195,0.512-0.471,0.527
		c-0.592,0.034-1.186,0.103-1.765,0.206c-0.03,0.005-0.059,0.008-0.088,0.008c-0.238,0-0.449-0.17-0.492-0.413
		C11.716,7.055,11.898,6.795,12.169,6.748z M14.084,23.474c-0.01,0-0.019,0-0.029-0.001c-0.633-0.036-1.266-0.11-1.882-0.22
		c-0.272-0.048-0.453-0.308-0.405-0.58c0.048-0.271,0.308-0.452,0.58-0.404c0.578,0.103,1.171,0.172,1.764,0.206
		c0.276,0.016,0.487,0.252,0.471,0.527C14.568,23.269,14.348,23.474,14.084,23.474z M25.165,10.55
		c0.445,0.502,0.817,1.038,1.106,1.593c0.128,0.245,0.032,0.547-0.212,0.674c-0.074,0.039-0.153,0.057-0.231,0.057
		c-0.18,0-0.354-0.098-0.443-0.269c-0.252-0.482-0.577-0.951-0.968-1.392c-0.184-0.207-0.164-0.522,0.042-0.706
		C24.666,10.324,24.981,10.342,25.165,10.55z M23.079,7.833h1c0.276,0,0.5,0.224,0.5,0.5v1c0,0.276-0.224,0.5-0.5,0.5
		s-0.5-0.224-0.5-0.5v-0.5h-0.5c-0.276,0-0.5-0.224-0.5-0.5S22.803,7.833,23.079,7.833z M15.944,6.527
		c0.629,0.036,1.262,0.11,1.881,0.218c0.272,0.048,0.454,0.307,0.406,0.579c-0.042,0.243-0.253,0.414-0.491,0.414
		c-0.029,0-0.059-0.002-0.087-0.007c-0.582-0.102-1.177-0.171-1.767-0.206c-0.276-0.016-0.486-0.252-0.47-0.528
		C15.432,6.722,15.671,6.517,15.944,6.527z M17.83,23.253c-0.616,0.108-1.249,0.183-1.881,0.22c-0.01,0.001-0.02,0.001-0.03,0.001
		c-0.263,0-0.483-0.205-0.499-0.471c-0.016-0.275,0.194-0.513,0.47-0.528c0.594-0.035,1.188-0.104,1.766-0.206
		c0.268-0.053,0.531,0.133,0.579,0.405C18.283,22.945,18.102,23.205,17.83,23.253z M19.046,7.521c0.08-0.265,0.36-0.414,0.624-0.331
		c0.475,0.146,0.941,0.316,1.389,0.505l0.378,0.161c0.255,0.108,0.373,0.401,0.265,0.656c-0.081,0.19-0.266,0.304-0.46,0.304
		c-0.065,0-0.132-0.013-0.195-0.04l-0.378-0.161c-0.415-0.175-0.85-0.333-1.291-0.469C19.112,8.064,18.965,7.785,19.046,7.521z
		 M21.44,22.143l-0.382,0.162c-0.442,0.188-0.908,0.358-1.385,0.504c-0.049,0.016-0.098,0.022-0.146,0.022
		c-0.214,0-0.412-0.138-0.478-0.354c-0.081-0.264,0.066-0.543,0.331-0.624c0.442-0.137,0.876-0.294,1.287-0.469l0.382-0.162
		c0.252-0.108,0.548,0.011,0.655,0.265C21.813,21.741,21.694,22.035,21.44,22.143z M24.579,21.667c0,0.276-0.224,0.5-0.5,0.5h-1
		c-0.276,0-0.5-0.224-0.5-0.5s0.224-0.5,0.5-0.5h0.5v-0.5c0-0.276,0.224-0.5,0.5-0.5s0.5,0.224,0.5,0.5V21.667z M26.277,17.846
		c-0.288,0.555-0.66,1.091-1.104,1.595c-0.099,0.111-0.236,0.169-0.375,0.169c-0.118,0-0.235-0.041-0.331-0.125
		c-0.207-0.183-0.227-0.499-0.044-0.706c0.391-0.442,0.716-0.911,0.967-1.394c0.128-0.246,0.433-0.338,0.674-0.213
		C26.31,17.299,26.405,17.602,26.277,17.846z M26.916,15.985c-0.043,0.244-0.254,0.416-0.492,0.416
		c-0.028,0-0.058-0.003-0.086-0.008c-0.272-0.047-0.455-0.306-0.408-0.578C25.977,15.547,26,15.272,26,15
		c0-0.275-0.024-0.553-0.071-0.827c-0.048-0.272,0.135-0.531,0.406-0.578c0.264-0.045,0.531,0.134,0.578,0.407
		C26.971,14.332,27,14.668,27,15C27,15.33,26.972,15.661,26.916,15.985z"/>
</g>
<g id="Dashed_Frame_18">
</g>
<g id="Dashed_Frame_19">
</g>
<g id="Dashed_Frame_20">
</g>
<g id="Dashed_Frame_25">
</g>
<g id="Dashed_Frame_26">
</g>
<g id="Dashed_Frame_27">
</g>
<g id="Dashed_Frame_28">
</g>
<g id="Dashed_Frame_29">
</g>
<g id="Dashed_Frame_30">
</g>
<g id="Dashed_Frame_31">
</g>
<g id="Dashed_Frame_32">
</g>
<g id="Dashed_Frame_33">
</g>
<g id="Dashed_Frame_35">
</g>
</svg>
