<?xml version="1.0" encoding="iso-8859-1"?>
<!-- Generator: Adobe Illustrator 19.2.1, SVG Export Plug-In . SVG Version: 6.00 Build 0)  -->
<svg version="1.1" xmlns="http://www.w3.org/2000/svg" xmlns:xlink="http://www.w3.org/1999/xlink" x="0px" y="0px"
	 viewBox="0 0 30 30" style="enable-background:new 0 0 30 30;" xml:space="preserve">
<g id="Photo_frame">
</g>
<g id="Photo_frame_2">
</g>
<g id="Photo_frame_3">
</g>
<g id="Photo_frame__4">
</g>
<g id="Photo_frame_5">
</g>
<g id="Photo_frame_6">
</g>
<g id="Photo_frame_7">
</g>
<g id="Round_Frame_1">
</g>
<g id="Rectangle_Frame_1">
</g>
<g id="Square_Frame_1">
</g>
<g id="Rectangle_Frame_2">
</g>
<g id="Oval_Frame_1">
</g>
<g id="Round_Frame_2">
</g>
<g id="Rectangle_Frame_3">
</g>
<g id="Rectangle_Frame_4">
</g>
<g id="Rectangle_Frame_5">
</g>
<g id="Square_Frame_2">
</g>
<g id="Rectangle_Frame_6">
</g>
<g id="Rectangle_Frame_7">
</g>
<g id="Oval_Frame_2">
</g>
<g id="Round_Frame_3">
</g>
<g id="Rectangle_Frame_8">
</g>
<g id="Square_Frame_3">
</g>
<g id="Rectangle_Frame_9">
</g>
<g id="Rectangle_Frame_10">
</g>
<g id="Square_Frame_4">
</g>
<g id="Rectangle_Frame_11">
</g>
<g id="Rectangle_Frame_12">
</g>
<g id="Square_Frame_5">
</g>
<g id="Rectangle_Frame_13">
</g>
<g id="Round_Frame">
</g>
<g id="Frame_2">
</g>
<g id="Frame_1">
</g>
<g id="Frame_3">
</g>
<g id="Frame_4">
</g>
<g id="Frame_5">
</g>
<g id="Frame_6">
</g>
<g id="Frame_7">
</g>
<g id="Frame_8">
</g>
<g id="Frame_9">
</g>
<g id="Frame_10">
</g>
<g id="Frame_11">
</g>
<g id="Frame_12">
</g>
<g id="Frame_13">
</g>
<g id="Frame_14">
</g>
<g id="Frame_15">
</g>
<g id="Frame_16">
</g>
<g id="Frame_17">
</g>
<g id="Frame_18">
</g>
<g id="Frame_19">
</g>
<g id="Frame_20">
</g>
<g id="Frame_21">
</g>
<g id="Frame_22">
</g>
<g id="Frame_23">
</g>
<g id="Frame_24">
</g>
<g id="Frame_25">
</g>
<g id="Frame_26">
</g>
<g id="Frame_27">
</g>
<g id="Frame_28">
</g>
<g id="Frame_29">
</g>
<g id="Frame_30">
</g>
<g id="Frame_Hole_1">
</g>
<g id="Frame_Hole_2">
</g>
<g id="Frame_Hole_3">
</g>
<g id="Frame_Hole_4">
</g>
<g id="Frame_31">
</g>
<g id="Frame_32">
</g>
<g id="Frame_33">
</g>
<g id="Frame_34">
</g>
<g id="Frame_35">
</g>
<g id="Dashed_Frame_1">
</g>
<g id="Dashed_Frame_2">
</g>
<g id="Dashed_Frame_3">
</g>
<g id="Dashed_Frame_4">
</g>
<g id="Dashed_Frame_5">
</g>
<g id="Dashed_Frame_6">
</g>
<g id="Dashed_Frame_7">
</g>
<g id="Dashed_Frame_8">
</g>
<g id="Dashed_Frame_9">
</g>
<g id="Dashed_Frame_10">
</g>
<g id="Dashed_Frame_11">
</g>
<g id="Dashed_Frame_12">
</g>
<g id="Dashed_Frame_13">
</g>
<g id="Dashed_Frame_14">
</g>
<g id="Dashed_Frame_15">
</g>
<g id="Dashed_Frame_16">
</g>
<g id="Dashed_Frame_17">
</g>
<g id="Dashed_Frame_18">
</g>
<g id="Dashed_Frame_19">
</g>
<g id="Dashed_Frame_20">
</g>
<g id="Dashed_Frame_25">
</g>
<g id="Dashed_Frame_26">
</g>
<g id="Dashed_Frame_27">
</g>
<g id="Dashed_Frame_28">
</g>
<g id="Dashed_Frame_29">
</g>
<g id="Dashed_Frame_30">
</g>
<g id="Dashed_Frame_31">
</g>
<g id="Dashed_Frame_32">
</g>
<g id="Dashed_Frame_33">
	<path d="M29.5,11h-2.289l-2.45-2.767l-2.489-2.547c-0.065-0.067-0.147-0.114-0.238-0.136l-3.456-0.845l-3.449-0.917
		c-0.084-0.023-0.175-0.022-0.259,0.001L11.428,4.72L7.964,5.592C7.874,5.615,7.791,5.663,7.726,5.73l-2.498,2.6L2.872,10.9
		L2.788,11H0.5C0.224,11,0,11.224,0,11.5V12v6.5V19h0.5h2.289l2.451,2.767l2.49,2.547c0.065,0.066,0.148,0.114,0.239,0.136
		l3.455,0.846l3.449,0.917c0.042,0.011,0.085,0.017,0.128,0.017c0.044,0,0.088-0.006,0.13-0.018l3.442-0.931l3.464-0.872
		c0.091-0.023,0.174-0.071,0.238-0.139l2.497-2.6l2.357-2.57l0.083-0.1H29h0.5c0.276,0,0.5-0.224,0.5-0.5v-7
		C30,11.224,29.776,11,29.5,11z M4.561,15.354c0.195,0.195,0.195,0.512,0,0.707c-0.098,0.098-0.226,0.146-0.354,0.146
		s-0.256-0.049-0.354-0.146l-0.707-0.707c-0.195-0.195-0.195-0.512,0-0.707l0.707-0.707c0.195-0.195,0.512-0.195,0.707,0
		s0.195,0.512,0,0.707L4.207,15L4.561,15.354z M7.408,19.034c-0.094,0.081-0.21,0.121-0.326,0.121c-0.141,0-0.28-0.059-0.379-0.174
		l-1.337-1.557c-0.206-0.184-0.206-0.479-0.022-0.687c0.185-0.206,0.519-0.203,0.725-0.021l1.394,1.612
		C7.642,18.539,7.618,18.854,7.408,19.034z M7.462,11.671l-1.337,1.556c-0.103,0.086-0.237,0.132-0.37,0.132
		c-0.14,0-0.277-0.052-0.368-0.16c-0.178-0.211-0.184-0.495,0.027-0.672l0.009-0.008l1.28-1.5c0.181-0.21,0.497-0.233,0.705-0.054
		C7.618,11.146,7.642,11.462,7.462,11.671z M8.108,9.472l1.157-1.205C9.331,8.2,9.413,8.152,9.504,8.129l0.382-0.096
		c0.268-0.065,0.54,0.095,0.606,0.363c0.067,0.268-0.095,0.54-0.363,0.606L9.887,9.064L8.83,10.165
		c-0.098,0.103-0.229,0.154-0.361,0.154c-0.125,0-0.25-0.046-0.346-0.139C7.924,9.988,7.917,9.671,8.108,9.472z M10.493,21.603
		c-0.057,0.228-0.261,0.379-0.484,0.379c-0.041,0-0.081-0.005-0.122-0.015l-0.382-0.096c-0.091-0.023-0.174-0.071-0.239-0.139
		l-1.157-1.204c-0.191-0.199-0.185-0.516,0.014-0.707c0.199-0.193,0.516-0.185,0.707,0.014l1.057,1.101l0.243,0.061
		C10.397,21.063,10.561,21.335,10.493,21.603z M11.887,7.531l1.987-0.528c0.266-0.071,0.541,0.086,0.612,0.354
		c0.072,0.267-0.087,0.541-0.354,0.612L12.131,8.5c-0.041,0.01-0.082,0.015-0.123,0.015c-0.224,0-0.427-0.151-0.484-0.378
		C11.457,7.87,11.62,7.598,11.887,7.531z M14.487,22.645c-0.06,0.224-0.262,0.37-0.482,0.37c-0.043,0-0.087-0.006-0.13-0.018
		l-1.986-0.528c-0.268-0.067-0.431-0.339-0.363-0.606c0.067-0.27,0.336-0.428,0.606-0.364l2.002,0.534
		C14.4,22.104,14.559,22.378,14.487,22.645z M18.111,22.468l-1.984,0.528c-0.044,0.012-0.088,0.018-0.131,0.018
		c-0.22,0-0.422-0.146-0.482-0.37c-0.072-0.267,0.086-0.541,0.353-0.612l2.002-0.534c0.269-0.067,0.539,0.097,0.606,0.364
		C18.542,22.13,18.379,22.4,18.111,22.468z M18.476,8.138c-0.058,0.227-0.261,0.378-0.485,0.378c-0.04,0-0.081-0.005-0.122-0.015
		l-2.001-0.532c-0.267-0.072-0.425-0.346-0.353-0.613c0.072-0.266,0.35-0.422,0.612-0.353l1.986,0.528
		C18.38,7.598,18.542,7.87,18.476,8.138z M21.892,20.527l-1.157,1.205c-0.064,0.067-0.147,0.115-0.239,0.139l-0.382,0.096
		c-0.04,0.01-0.081,0.015-0.121,0.015c-0.225,0-0.428-0.151-0.485-0.379c-0.066-0.268,0.096-0.539,0.364-0.606l0.242-0.061
		l1.058-1.102c0.191-0.197,0.508-0.205,0.707-0.014S22.083,20.328,21.892,20.527z M21.878,10.178
		c-0.097,0.093-0.222,0.14-0.347,0.14c-0.131,0-0.263-0.051-0.36-0.153l-1.058-1.101l-0.242-0.061
		c-0.269-0.067-0.431-0.338-0.364-0.606c0.067-0.268,0.34-0.43,0.606-0.363l0.382,0.096c0.092,0.022,0.175,0.071,0.239,0.138
		l1.157,1.204C22.083,9.67,22.077,9.987,21.878,10.178z M26.978,12C26.978,12,26.978,12,26.978,12L26.978,12L26.978,12z
		 M24.599,17.462l-0.01,0.009l-1.293,1.509c-0.099,0.115-0.238,0.174-0.379,0.174c-0.115,0-0.231-0.04-0.326-0.121
		c-0.209-0.18-0.233-0.495-0.053-0.705l1.337-1.555c0.206-0.185,0.549-0.194,0.733,0.01C24.793,16.988,24.804,17.276,24.599,17.462z
		 M24.673,13.255c-0.093,0.112-0.231,0.166-0.373,0.166c-0.127,0-0.256-0.043-0.356-0.127l-1.404-1.623
		c-0.181-0.209-0.156-0.525,0.053-0.705c0.211-0.179,0.526-0.155,0.705,0.054l1.337,1.557C24.847,12.753,24.85,13.042,24.673,13.255
		z M26.854,15.354l-0.707,0.707c-0.098,0.098-0.226,0.146-0.354,0.146s-0.256-0.049-0.354-0.146c-0.195-0.195-0.195-0.512,0-0.707
		L25.793,15l-0.354-0.354c-0.195-0.195-0.195-0.512,0-0.707s0.512-0.195,0.707,0l0.707,0.707
		C27.049,14.842,27.049,15.158,26.854,15.354z"/>
</g>
<g id="Dashed_Frame_35">
</g>
</svg>
