<?xml version="1.0" encoding="iso-8859-1"?>
<!-- Generator: Adobe Illustrator 19.2.1, SVG Export Plug-In . SVG Version: 6.00 Build 0)  -->
<svg version="1.1" xmlns="http://www.w3.org/2000/svg" xmlns:xlink="http://www.w3.org/1999/xlink" x="0px" y="0px"
	 viewBox="0 0 30 30" style="enable-background:new 0 0 30 30;" xml:space="preserve">
<g id="Dashed_Frame_21">
</g>
<g id="Dashed_Frame_22">
</g>
<g id="Dashed_Frame_23">
</g>
<g id="Dashed_Frame_24">
	<path d="M28.667,10.384c-0.09-0.149-0.25-0.24-0.424-0.242l-1.521-0.011C24.162,10.108,22,8.028,22,5.543
		c0-0.204-0.124-0.388-0.313-0.464C19.482,4.195,17.357,3.783,15,3.783S10.518,4.195,8.314,5.08c-0.176,0.07-0.29,0.27-0.307,0.461
		C8.005,5.542,8.002,5.543,8,5.543v0.044c0,0,0,0,0,0c0,2.44-2.162,4.521-4.721,4.543l-1.414,0.011
		c-0.174,0.001-0.334,0.093-0.424,0.242c-0.908,1.504-1.387,3.115-1.387,4.66c0,1.445,0.345,3.561,1.317,4.77
		C1.466,19.932,1.609,20,1.761,20h0h1.261l0.001,0C5.674,20.001,8,22.103,8,24.5c0,0.261,0.199,0.474,0.453,0.498
		c2.137,0.839,4.222,1.23,6.547,1.23c2.34,0,4.465-0.416,6.687-1.309C21.876,24.844,22,24.617,22,24.413
		c0-2.44,2.162-4.521,4.721-4.544l1.522-0.011c0.174-0.001,0.334-0.093,0.424-0.242C29.552,18.15,30,16.597,30,15
		C30,13.403,29.552,11.85,28.667,10.384z M20.731,10.178c0.212-0.177,0.527-0.151,0.705,0.061c0.558,0.663,1.224,1.208,1.979,1.621
		c0.242,0.132,0.332,0.436,0.199,0.679c-0.091,0.166-0.262,0.26-0.438,0.26c-0.081,0-0.163-0.02-0.239-0.061
		c-0.866-0.473-1.628-1.097-2.267-1.855C20.493,10.671,20.521,10.355,20.731,10.178z M6.582,11.864
		c0.757-0.413,1.426-0.959,1.986-1.622c0.177-0.21,0.494-0.238,0.705-0.059c0.211,0.178,0.237,0.494,0.059,0.705
		c-0.64,0.758-1.404,1.381-2.271,1.854c-0.076,0.042-0.158,0.061-0.239,0.061c-0.177,0-0.349-0.094-0.439-0.261
		C6.25,12.3,6.339,11.996,6.582,11.864z M5.596,17.192c-0.058,0.227-0.261,0.377-0.484,0.377c-0.041,0-0.082-0.005-0.123-0.016
		c-0.449-0.113-0.914-0.181-1.382-0.2c-0.205-0.009-0.384-0.143-0.451-0.336c-0.183-0.526-0.294-1.064-0.333-1.6
		c-0.011-0.157,0.056-0.297,0.163-0.396c-0.108-0.099-0.176-0.238-0.166-0.396c0.035-0.538,0.147-1.078,0.334-1.604
		c0.068-0.192,0.247-0.323,0.45-0.332c0.465-0.02,0.93-0.087,1.382-0.202c0.27-0.065,0.54,0.095,0.607,0.362
		c0.067,0.268-0.095,0.54-0.362,0.607c-0.405,0.102-0.818,0.172-1.234,0.208C3.9,14.006,3.84,14.35,3.818,14.691
		c-0.008,0.13-0.067,0.245-0.155,0.329c0.088,0.083,0.148,0.196,0.157,0.326c0.024,0.343,0.085,0.688,0.182,1.03
		c0.417,0.036,0.831,0.105,1.232,0.208C5.501,16.652,5.664,16.925,5.596,17.192z M9.26,19.836c-0.094,0.08-0.209,0.119-0.324,0.119
		c-0.142,0-0.282-0.06-0.381-0.176c-0.558-0.657-1.223-1.197-1.976-1.605c-0.243-0.132-0.333-0.435-0.201-0.678
		c0.131-0.242,0.435-0.333,0.678-0.201c0.862,0.468,1.623,1.085,2.261,1.836C9.496,19.342,9.47,19.657,9.26,19.836z M11.921,23.222
		c-0.03,0-0.06-0.003-0.09-0.008c-0.515-0.094-1.022-0.211-1.507-0.347c-0.171-0.048-0.304-0.184-0.349-0.356
		c-0.117-0.452-0.28-0.893-0.485-1.308c-0.123-0.248-0.021-0.548,0.227-0.67c0.25-0.122,0.548-0.02,0.669,0.227
		c0.192,0.39,0.353,0.799,0.478,1.218c0.372,0.097,0.756,0.182,1.146,0.252c0.272,0.05,0.452,0.31,0.402,0.582
		C12.369,23.053,12.158,23.222,11.921,23.222z M12.02,7.769c-0.387,0.07-0.771,0.154-1.144,0.251
		c-0.122,0.417-0.28,0.826-0.471,1.218c-0.086,0.178-0.265,0.282-0.45,0.282c-0.073,0-0.147-0.016-0.218-0.05
		c-0.249-0.121-0.352-0.42-0.231-0.668C9.71,8.38,9.871,7.939,9.984,7.49c0.044-0.174,0.177-0.311,0.35-0.359
		c0.488-0.137,0.995-0.253,1.508-0.346c0.269-0.049,0.532,0.132,0.581,0.403C12.472,7.459,12.292,7.719,12.02,7.769z M16.357,23.448
		C15.906,23.482,15.452,23.5,15,23.5c-0.454,0-0.91-0.019-1.363-0.054c-0.275-0.021-0.481-0.262-0.46-0.537s0.26-0.507,0.537-0.459
		c0.854,0.066,1.713,0.064,2.567,0c0.271-0.019,0.516,0.187,0.537,0.461C16.839,23.187,16.633,23.427,16.357,23.448z M16.322,7.551
		c-0.014,0-0.026,0-0.04-0.001c-0.852-0.066-1.711-0.066-2.564,0c-0.279,0.017-0.516-0.185-0.537-0.46
		c-0.021-0.275,0.185-0.516,0.459-0.537c0.904-0.071,1.816-0.07,2.72,0c0.275,0.021,0.48,0.262,0.459,0.537
		C16.8,7.352,16.58,7.551,16.322,7.551z M20.495,21.2c-0.205,0.421-0.366,0.862-0.48,1.312c-0.044,0.174-0.178,0.311-0.35,0.358
		c-0.488,0.136-0.994,0.252-1.506,0.346c-0.03,0.005-0.061,0.008-0.091,0.008c-0.236,0-0.447-0.169-0.491-0.41
		c-0.049-0.272,0.131-0.532,0.402-0.582c0.387-0.07,0.771-0.154,1.145-0.251c0.122-0.416,0.28-0.824,0.471-1.218
		c0.122-0.248,0.42-0.353,0.669-0.231C20.512,20.652,20.615,20.951,20.495,21.2z M20.271,9.471c-0.07,0.034-0.145,0.05-0.218,0.05
		c-0.186,0-0.363-0.104-0.45-0.282c-0.19-0.393-0.348-0.801-0.471-1.217c-0.373-0.098-0.757-0.182-1.146-0.252
		c-0.271-0.05-0.451-0.31-0.402-0.582c0.049-0.273,0.315-0.452,0.582-0.403c0.514,0.094,1.021,0.21,1.508,0.348
		c0.172,0.049,0.305,0.185,0.349,0.358c0.114,0.449,0.276,0.891,0.48,1.313C20.623,9.052,20.52,9.351,20.271,9.471z M23.418,18.136
		c-0.758,0.414-1.426,0.96-1.985,1.622c-0.099,0.117-0.24,0.178-0.382,0.178c-0.114,0-0.229-0.039-0.322-0.118
		c-0.211-0.178-0.238-0.493-0.06-0.704c0.64-0.758,1.403-1.382,2.271-1.854c0.242-0.133,0.545-0.045,0.678,0.199
		C23.75,17.7,23.66,18.004,23.418,18.136z M27.181,15.375c-0.036,0.542-0.149,1.082-0.336,1.604
		c-0.068,0.191-0.246,0.323-0.449,0.332c-0.469,0.02-0.934,0.087-1.381,0.2c-0.041,0.011-0.083,0.016-0.123,0.016
		c-0.224,0-0.427-0.15-0.484-0.377c-0.068-0.268,0.094-0.54,0.361-0.607c0.402-0.103,0.815-0.172,1.233-0.208
		c0.097-0.338,0.157-0.682,0.181-1.026c0.008-0.119,0.068-0.219,0.146-0.298c-0.082-0.082-0.138-0.192-0.146-0.317
		c-0.023-0.345-0.084-0.689-0.181-1.026c-0.415-0.037-0.829-0.106-1.232-0.208c-0.269-0.068-0.431-0.339-0.362-0.607
		c0.066-0.268,0.335-0.43,0.606-0.362c0.451,0.114,0.916,0.182,1.382,0.202c0.203,0.009,0.381,0.14,0.449,0.332
		c0.187,0.521,0.3,1.061,0.336,1.603c0.01,0.145-0.046,0.277-0.138,0.375C27.135,15.098,27.19,15.23,27.181,15.375z"/>
</g>
<g id="Dashed_Frame_34">
</g>
</svg>
