<?xml version="1.0" encoding="iso-8859-1"?>
<!-- Generator: Adobe Illustrator 19.2.1, SVG Export Plug-In . SVG Version: 6.00 Build 0)  -->
<svg version="1.1" xmlns="http://www.w3.org/2000/svg" xmlns:xlink="http://www.w3.org/1999/xlink" x="0px" y="0px"
	 viewBox="0 0 30 30" style="enable-background:new 0 0 30 30;" xml:space="preserve">
<g id="Photo_frame">
</g>
<g id="Photo_frame_2">
</g>
<g id="Photo_frame_3">
</g>
<g id="Photo_frame__4">
</g>
<g id="Photo_frame_5">
</g>
<g id="Photo_frame_6">
</g>
<g id="Photo_frame_7">
</g>
<g id="Round_Frame_1">
</g>
<g id="Rectangle_Frame_1">
</g>
<g id="Square_Frame_1">
</g>
<g id="Rectangle_Frame_2">
</g>
<g id="Oval_Frame_1">
</g>
<g id="Round_Frame_2">
</g>
<g id="Rectangle_Frame_3">
</g>
<g id="Rectangle_Frame_4">
</g>
<g id="Rectangle_Frame_5">
</g>
<g id="Square_Frame_2">
</g>
<g id="Rectangle_Frame_6">
</g>
<g id="Rectangle_Frame_7">
</g>
<g id="Oval_Frame_2">
</g>
<g id="Round_Frame_3">
</g>
<g id="Rectangle_Frame_8">
</g>
<g id="Square_Frame_3">
</g>
<g id="Rectangle_Frame_9">
</g>
<g id="Rectangle_Frame_10">
</g>
<g id="Square_Frame_4">
</g>
<g id="Rectangle_Frame_11">
</g>
<g id="Rectangle_Frame_12">
</g>
<g id="Square_Frame_5">
</g>
<g id="Rectangle_Frame_13">
</g>
<g id="Round_Frame">
</g>
<g id="Frame_2">
</g>
<g id="Frame_1">
</g>
<g id="Frame_3">
</g>
<g id="Frame_4">
</g>
<g id="Frame_5">
</g>
<g id="Frame_6">
</g>
<g id="Frame_7">
</g>
<g id="Frame_8">
</g>
<g id="Frame_9">
</g>
<g id="Frame_10">
</g>
<g id="Frame_11">
</g>
<g id="Frame_12">
</g>
<g id="Frame_13">
</g>
<g id="Frame_14">
</g>
<g id="Frame_15">
</g>
<g id="Frame_16">
</g>
<g id="Frame_17">
</g>
<g id="Frame_18">
</g>
<g id="Frame_19">
</g>
<g id="Frame_20">
</g>
<g id="Frame_21">
</g>
<g id="Frame_22">
</g>
<g id="Frame_23">
</g>
<g id="Frame_24">
</g>
<g id="Frame_25">
</g>
<g id="Frame_26">
</g>
<g id="Frame_27">
</g>
<g id="Frame_28">
</g>
<g id="Frame_29">
</g>
<g id="Frame_30">
</g>
<g id="Frame_Hole_1">
</g>
<g id="Frame_Hole_2">
</g>
<g id="Frame_Hole_3">
</g>
<g id="Frame_Hole_4">
</g>
<g id="Frame_31">
</g>
<g id="Frame_32">
</g>
<g id="Frame_33">
</g>
<g id="Frame_34">
</g>
<g id="Frame_35">
</g>
<g id="Dashed_Frame_1">
</g>
<g id="Dashed_Frame_2">
</g>
<g id="Dashed_Frame_3">
</g>
<g id="Dashed_Frame_4">
</g>
<g id="Dashed_Frame_5">
</g>
<g id="Dashed_Frame_6">
</g>
<g id="Dashed_Frame_7">
</g>
<g id="Dashed_Frame_8">
</g>
<g id="Dashed_Frame_9">
</g>
<g id="Dashed_Frame_10">
</g>
<g id="Dashed_Frame_11">
</g>
<g id="Dashed_Frame_12">
</g>
<g id="Dashed_Frame_13">
</g>
<g id="Dashed_Frame_14">
</g>
<g id="Dashed_Frame_15">
</g>
<g id="Dashed_Frame_16">
</g>
<g id="Dashed_Frame_17">
</g>
<g id="Dashed_Frame_18">
</g>
<g id="Dashed_Frame_19">
</g>
<g id="Dashed_Frame_20">
</g>
<g id="Dashed_Frame_25">
</g>
<g id="Dashed_Frame_26">
</g>
<g id="Dashed_Frame_27">
</g>
<g id="Dashed_Frame_28">
</g>
<g id="Dashed_Frame_29">
	<path d="M29.322,11.919l-1.134-2.063C27.228,8.095,25.363,7,23.322,7H6.678C4.636,7,2.771,8.093,1.813,9.849l-1.137,2.047
		c-0.834,1.53-0.896,3.388-0.166,4.97l1.367,2.946C2.771,21.749,4.747,23,6.911,23h16.178c2.165,0,4.141-1.25,5.032-3.182
		l1.369-2.93C30.22,15.307,30.157,13.449,29.322,11.919z M3.093,14.015c0.094-0.359,0.259-0.705,0.489-1.025l0.619-0.843
		c0.163-0.223,0.477-0.271,0.699-0.107c0.223,0.163,0.271,0.476,0.107,0.699l-0.616,0.838c-0.155,0.217-0.268,0.451-0.332,0.692
		c-0.059,0.225-0.261,0.373-0.483,0.373c-0.042,0-0.085-0.005-0.127-0.017C3.182,14.556,3.022,14.282,3.093,14.015z M5.214,18.188
		c-0.082,0.051-0.172,0.074-0.261,0.074c-0.168,0-0.333-0.085-0.427-0.238l-1.045-1.705c-0.145-0.235-0.07-0.543,0.165-0.688
		s0.542-0.071,0.688,0.165L5.379,17.5C5.523,17.735,5.449,18.044,5.214,18.188z M7.745,19.935c-0.026,0-0.052-0.002-0.079-0.006
		c-0.764-0.122-1.475-0.395-2.056-0.79c-0.229-0.155-0.288-0.466-0.132-0.694c0.157-0.229,0.468-0.286,0.695-0.132
		c0.459,0.313,1.03,0.53,1.65,0.628c0.272,0.044,0.458,0.3,0.415,0.572C8.199,19.759,7.986,19.935,7.745,19.935z M7.981,11.018
		c-0.622,0.053-1.213,0.224-1.709,0.495c-0.076,0.042-0.158,0.061-0.239,0.061c-0.177,0-0.349-0.094-0.439-0.26
		c-0.132-0.242-0.043-0.546,0.199-0.679c0.617-0.337,1.345-0.549,2.105-0.613c0.271-0.028,0.517,0.181,0.54,0.456
		C8.46,10.752,8.256,10.995,7.981,11.018z M11.741,20h-2c-0.276,0-0.5-0.224-0.5-0.5s0.224-0.5,0.5-0.5h2c0.276,0,0.5,0.224,0.5,0.5
		S12.018,20,11.741,20z M11.937,11h-2c-0.276,0-0.5-0.224-0.5-0.5s0.224-0.5,0.5-0.5h2c0.276,0,0.5,0.224,0.5,0.5
		S12.214,11,11.937,11z M15.741,20h-2c-0.276,0-0.5-0.224-0.5-0.5s0.224-0.5,0.5-0.5h2c0.276,0,0.5,0.224,0.5,0.5
		S16.018,20,15.741,20z M15.937,11h-2c-0.276,0-0.5-0.224-0.5-0.5s0.224-0.5,0.5-0.5h2c0.276,0,0.5,0.224,0.5,0.5
		S16.214,11,15.937,11z M19.741,20h-2c-0.276,0-0.5-0.224-0.5-0.5s0.224-0.5,0.5-0.5h2c0.276,0,0.5,0.224,0.5,0.5
		S20.018,20,19.741,20z M19.937,11h-2c-0.276,0-0.5-0.224-0.5-0.5s0.224-0.5,0.5-0.5h2c0.276,0,0.5,0.224,0.5,0.5
		S20.214,11,19.937,11z M23.89,19.436c-0.628,0.316-1.36,0.508-2.117,0.554c-0.011,0.001-0.021,0.001-0.03,0.001
		c-0.263,0-0.483-0.204-0.499-0.47c-0.017-0.276,0.193-0.513,0.469-0.529c0.623-0.037,1.22-0.192,1.727-0.448
		c0.245-0.123,0.547-0.026,0.672,0.221C24.234,19.011,24.136,19.312,23.89,19.436z M24.304,11.244
		c-0.088,0.174-0.264,0.273-0.445,0.273c-0.077,0-0.154-0.018-0.227-0.054c-0.507-0.258-1.104-0.415-1.726-0.453
		c-0.275-0.017-0.485-0.254-0.468-0.53c0.018-0.274,0.227-0.489,0.53-0.468c0.758,0.047,1.489,0.241,2.116,0.56
		C24.331,10.697,24.43,10.998,24.304,11.244z M26.594,16.209l-1.054,1.709c-0.095,0.153-0.259,0.237-0.426,0.237
		c-0.09,0-0.181-0.024-0.263-0.074c-0.235-0.146-0.308-0.453-0.163-0.688l1.018-1.647c0.146-0.234,0.467-0.333,0.701-0.192
		C26.642,15.695,26.734,15.973,26.594,16.209z M26.544,14.501c-0.052,0.017-0.104,0.025-0.156,0.025
		c-0.21,0-0.405-0.133-0.475-0.344c-0.068-0.207-0.172-0.407-0.307-0.594l-0.69-0.949c-0.162-0.223-0.113-0.536,0.11-0.698
		c0.223-0.162,0.535-0.114,0.698,0.11l0.691,0.951c0.196,0.272,0.347,0.564,0.446,0.868C26.949,14.132,26.807,14.415,26.544,14.501z
		"/>
</g>
<g id="Dashed_Frame_30">
</g>
<g id="Dashed_Frame_31">
</g>
<g id="Dashed_Frame_32">
</g>
<g id="Dashed_Frame_33">
</g>
<g id="Dashed_Frame_35">
</g>
</svg>
