<?xml version="1.0" encoding="iso-8859-1"?>
<!-- Generator: Adobe Illustrator 19.2.1, SVG Export Plug-In . SVG Version: 6.00 Build 0)  -->
<svg version="1.1" xmlns="http://www.w3.org/2000/svg" xmlns:xlink="http://www.w3.org/1999/xlink" x="0px" y="0px"
	 viewBox="0 0 30 30" style="enable-background:new 0 0 30 30;" xml:space="preserve">
<g id="Photo_frame">
</g>
<g id="Photo_frame_2">
</g>
<g id="Photo_frame_3">
</g>
<g id="Photo_frame__4">
</g>
<g id="Photo_frame_5">
</g>
<g id="Photo_frame_6">
</g>
<g id="Photo_frame_7">
</g>
<g id="Round_Frame_1">
</g>
<g id="Rectangle_Frame_1">
</g>
<g id="Square_Frame_1">
</g>
<g id="Rectangle_Frame_2">
</g>
<g id="Oval_Frame_1">
</g>
<g id="Round_Frame_2">
</g>
<g id="Rectangle_Frame_3">
</g>
<g id="Rectangle_Frame_4">
</g>
<g id="Rectangle_Frame_5">
</g>
<g id="Square_Frame_2">
</g>
<g id="Rectangle_Frame_6">
</g>
<g id="Rectangle_Frame_7">
</g>
<g id="Oval_Frame_2">
</g>
<g id="Round_Frame_3">
</g>
<g id="Rectangle_Frame_8">
</g>
<g id="Square_Frame_3">
</g>
<g id="Rectangle_Frame_9">
</g>
<g id="Rectangle_Frame_10">
</g>
<g id="Square_Frame_4">
</g>
<g id="Rectangle_Frame_11">
</g>
<g id="Rectangle_Frame_12">
</g>
<g id="Square_Frame_5">
</g>
<g id="Rectangle_Frame_13">
</g>
<g id="Round_Frame">
</g>
<g id="Frame_2">
</g>
<g id="Frame_1">
</g>
<g id="Frame_3">
</g>
<g id="Frame_4">
</g>
<g id="Frame_5">
</g>
<g id="Frame_6">
</g>
<g id="Frame_7">
</g>
<g id="Frame_8">
</g>
<g id="Frame_9">
</g>
<g id="Frame_10">
</g>
<g id="Frame_11">
</g>
<g id="Frame_12">
</g>
<g id="Frame_13">
</g>
<g id="Frame_14">
</g>
<g id="Frame_15">
</g>
<g id="Frame_16">
</g>
<g id="Frame_17">
</g>
<g id="Frame_18">
</g>
<g id="Frame_19">
</g>
<g id="Frame_20">
</g>
<g id="Frame_21">
</g>
<g id="Frame_22">
</g>
<g id="Frame_23">
</g>
<g id="Frame_24">
</g>
<g id="Frame_25">
</g>
<g id="Frame_26">
</g>
<g id="Frame_27">
</g>
<g id="Frame_28">
</g>
<g id="Frame_29">
</g>
<g id="Frame_30">
</g>
<g id="Frame_Hole_1">
</g>
<g id="Frame_Hole_2">
</g>
<g id="Frame_Hole_3">
</g>
<g id="Frame_Hole_4">
</g>
<g id="Frame_31">
</g>
<g id="Frame_32">
</g>
<g id="Frame_33">
</g>
<g id="Frame_34">
</g>
<g id="Frame_35">
</g>
<g id="Dashed_Frame_1">
</g>
<g id="Dashed_Frame_2">
</g>
<g id="Dashed_Frame_3">
</g>
<g id="Dashed_Frame_4">
</g>
<g id="Dashed_Frame_5">
</g>
<g id="Dashed_Frame_6">
</g>
<g id="Dashed_Frame_7">
</g>
<g id="Dashed_Frame_8">
</g>
<g id="Dashed_Frame_9">
</g>
<g id="Dashed_Frame_10">
	<path d="M28.388,18.766l-0.559-2.675l0.559-2.67c0.015-0.068,0.015-0.137,0-0.205l-0.56-2.675l0.521-2.822
		c0.044-0.237-0.087-0.472-0.313-0.558L25.2,6.076l-2.156-1.95c-0.048-0.043-0.104-0.077-0.166-0.1l-2.726-0.981l-2.147-1.943
		C17.957,1.059,17.9,1.025,17.84,1.003L15.171,0.03c-0.11-0.04-0.232-0.04-0.343,0l-2.674,0.976
		c-0.061,0.022-0.116,0.056-0.164,0.099L9.838,3.051L7.112,4.033c-0.061,0.022-0.118,0.056-0.166,0.1L4.794,6.079L1.961,7.164
		C1.737,7.25,1.605,7.483,1.648,7.719l0.524,2.9L1.611,13.4c-0.013,0.066-0.013,0.133,0,0.199l0.56,2.758l-0.56,2.757
		c-0.013,0.065-0.013,0.132,0,0.197l0.54,2.709c0.022,0.109,0.08,0.209,0.165,0.282l2.132,1.829c0.05,0.042,0.107,0.074,0.169,0.095
		l2.715,0.894l2.159,1.867c0.05,0.044,0.108,0.076,0.171,0.097l2.716,0.894l2.309,1.909C14.779,29.962,14.892,30,15.005,30
		c0.117,0,0.233-0.041,0.328-0.122l2.299-1.993l2.735-0.984c0.062-0.022,0.118-0.057,0.166-0.1l2.149-1.944l2.725-0.98
		c0.062-0.022,0.117-0.056,0.165-0.099l2.12-1.907c0.08-0.072,0.135-0.167,0.156-0.271l0.54-2.63
		C28.402,18.901,28.401,18.833,28.388,18.766z M4.184,13.399l0.278-1.377c0.054-0.271,0.317-0.447,0.589-0.392
		c0.271,0.055,0.446,0.318,0.392,0.589l-0.258,1.278l0.085,0.419c0.055,0.271-0.12,0.535-0.39,0.589
		c-0.034,0.007-0.067,0.01-0.1,0.01c-0.233,0-0.441-0.163-0.489-0.4l-0.105-0.518C4.171,13.532,4.171,13.464,4.184,13.399z
		 M4.675,16.011c-0.055-0.271,0.12-0.535,0.39-0.589c0.271-0.055,0.535,0.12,0.589,0.39l0.09,0.444c0.014,0.065,0.014,0.134,0,0.199
		l-0.295,1.45c-0.048,0.237-0.256,0.4-0.489,0.4c-0.033,0-0.066-0.003-0.1-0.01c-0.271-0.056-0.445-0.319-0.39-0.59l0.274-1.351
		L4.675,16.011z M6.115,21.581c-0.099,0.115-0.238,0.174-0.379,0.174c-0.116,0-0.231-0.04-0.326-0.121l-0.792-0.681
		c-0.084-0.072-0.142-0.172-0.164-0.281L4.28,19.799c-0.054-0.271,0.122-0.534,0.393-0.588c0.268-0.056,0.534,0.122,0.588,0.393
		l0.141,0.704l0.661,0.568C6.271,21.056,6.295,21.371,6.115,21.581z M6.106,9.348L5.559,9.558l0.104,0.576
		c0.049,0.272-0.131,0.532-0.403,0.581c-0.03,0.005-0.06,0.008-0.089,0.008c-0.237,0-0.448-0.169-0.492-0.411L4.501,9.328
		C4.458,9.091,4.59,8.858,4.814,8.772l0.934-0.357c0.256-0.098,0.546,0.03,0.646,0.288C6.493,8.96,6.364,9.25,6.106,9.348z
		 M7.16,7.339l1.108-1.003c0.048-0.044,0.104-0.078,0.166-0.1l0.459-0.166c0.261-0.097,0.546,0.041,0.64,0.301
		c0.094,0.26-0.041,0.546-0.301,0.64L8.866,7.144L7.831,8.081C7.735,8.167,7.615,8.21,7.496,8.21c-0.136,0-0.272-0.056-0.371-0.165
		C6.939,7.841,6.956,7.524,7.16,7.339z M9.614,23.099c-0.099,0.114-0.238,0.173-0.378,0.173c-0.116,0-0.232-0.04-0.327-0.122
		l-0.31-0.268l-1.258-0.414c-0.262-0.086-0.405-0.368-0.319-0.631c0.086-0.262,0.368-0.408,0.631-0.318l1.354,0.445
		c0.063,0.021,0.121,0.053,0.171,0.097l0.385,0.333C9.771,22.574,9.795,22.89,9.614,23.099z M17.114,4.371
		c0.187-0.204,0.504-0.22,0.707-0.035l1.009,0.913l0.398,0.144c0.261,0.093,0.396,0.38,0.302,0.64
		c-0.073,0.204-0.266,0.331-0.471,0.331c-0.057,0-0.113-0.009-0.169-0.03l-0.492-0.177c-0.062-0.022-0.118-0.056-0.167-0.1
		l-1.082-0.979C16.945,4.892,16.93,4.576,17.114,4.371z M12.912,24.972c-0.069,0.21-0.265,0.344-0.475,0.344
		c-0.052,0-0.104-0.008-0.156-0.025l-1.351-0.444c-0.063-0.021-0.121-0.053-0.171-0.097l-0.387-0.335
		c-0.209-0.181-0.231-0.496-0.051-0.705c0.18-0.209,0.496-0.231,0.705-0.051l0.312,0.27l1.256,0.413
		C12.855,24.427,12.998,24.709,12.912,24.972z M12.841,5.084l-1.083,0.979c-0.048,0.043-0.105,0.077-0.166,0.099L11.099,6.34
		c-0.056,0.021-0.113,0.03-0.169,0.03c-0.205,0-0.397-0.127-0.47-0.331c-0.094-0.26,0.041-0.546,0.301-0.64l0.399-0.144l1.01-0.913
		c0.204-0.185,0.521-0.168,0.707,0.036C13.062,4.583,13.045,4.899,12.841,5.084z M16.05,25.92l-0.756,0.654
		c-0.094,0.081-0.21,0.122-0.327,0.122c-0.113,0-0.226-0.038-0.319-0.115l-0.771-0.638c-0.213-0.176-0.242-0.491-0.066-0.703
		c0.177-0.213,0.492-0.242,0.704-0.066l0.444,0.367l0.436-0.377c0.208-0.181,0.524-0.159,0.705,0.051
		C16.281,25.424,16.259,25.739,16.05,25.92z M16.396,3.692c-0.095,0.26-0.383,0.393-0.641,0.299l-0.755-0.275l-0.766,0.28
		c-0.057,0.021-0.115,0.03-0.172,0.03c-0.204,0-0.396-0.125-0.47-0.328c-0.095-0.259,0.039-0.546,0.298-0.642l0.937-0.343
		c0.111-0.04,0.232-0.04,0.343,0l0.926,0.337C16.357,3.146,16.491,3.433,16.396,3.692z M19.507,24.328l-0.296,0.268
		c-0.048,0.043-0.104,0.077-0.165,0.1l-1.433,0.517c-0.057,0.02-0.113,0.029-0.17,0.029c-0.205,0-0.396-0.127-0.471-0.33
		c-0.094-0.26,0.041-0.547,0.301-0.641l1.34-0.482l0.224-0.202c0.204-0.185,0.521-0.17,0.706,0.036
		C19.728,23.826,19.712,24.143,19.507,24.328z M22.441,22.264l-1.081,0.389l-0.428,0.387c-0.096,0.086-0.215,0.129-0.335,0.129
		c-0.137,0-0.272-0.056-0.371-0.165c-0.185-0.204-0.169-0.521,0.036-0.706l0.5-0.452c0.048-0.043,0.104-0.077,0.165-0.1l1.174-0.423
		c0.261-0.09,0.547,0.042,0.641,0.301C22.836,21.884,22.701,22.17,22.441,22.264z M22.866,8.038
		c-0.099,0.109-0.234,0.165-0.371,0.165c-0.12,0-0.239-0.042-0.335-0.129l-1.035-0.936l-0.368-0.132
		c-0.26-0.093-0.395-0.38-0.302-0.64c0.094-0.259,0.378-0.395,0.64-0.302l0.461,0.166c0.062,0.022,0.118,0.056,0.166,0.1
		l1.108,1.002C23.035,7.517,23.051,7.833,22.866,8.038z M23.597,8.696c0.099-0.258,0.389-0.386,0.646-0.288l0.934,0.357
		c0.226,0.086,0.356,0.321,0.313,0.558l-0.182,0.983c-0.044,0.241-0.254,0.409-0.49,0.409c-0.03,0-0.062-0.002-0.092-0.008
		c-0.271-0.05-0.451-0.311-0.4-0.583l0.105-0.574l-0.545-0.209C23.627,9.243,23.498,8.954,23.597,8.696z M25.576,17.64
		c0.057,0.271-0.117,0.535-0.387,0.592c-0.035,0.008-0.069,0.011-0.104,0.011c-0.231,0-0.439-0.162-0.488-0.397l-0.345-1.651
		c-0.015-0.067-0.015-0.138,0-0.205l0.048-0.229c0.057-0.271,0.316-0.442,0.592-0.387c0.27,0.056,0.443,0.321,0.387,0.591
		l-0.026,0.127L25.576,17.64z M25.659,19.725l-0.113,0.554c-0.021,0.104-0.076,0.2-0.156,0.271l-1.01,0.907
		c-0.096,0.086-0.215,0.128-0.334,0.128c-0.137,0-0.273-0.056-0.372-0.166c-0.185-0.205-0.168-0.521,0.038-0.706l0.887-0.797
		l0.08-0.393c0.056-0.271,0.317-0.445,0.591-0.39C25.54,19.189,25.714,19.454,25.659,19.725z M25.812,13.42l-0.139,0.662
		c-0.049,0.236-0.257,0.397-0.488,0.397c-0.034,0-0.069-0.003-0.104-0.011c-0.271-0.057-0.443-0.321-0.387-0.592l0.117-0.56
		l-0.233-1.117c-0.057-0.271,0.116-0.536,0.387-0.592c0.275-0.057,0.535,0.117,0.592,0.387l0.255,1.219
		C25.826,13.283,25.826,13.353,25.812,13.42z"/>
</g>
<g id="Dashed_Frame_11">
</g>
<g id="Dashed_Frame_12">
</g>
<g id="Dashed_Frame_13">
</g>
<g id="Dashed_Frame_14">
</g>
<g id="Dashed_Frame_15">
</g>
<g id="Dashed_Frame_16">
</g>
<g id="Dashed_Frame_17">
</g>
<g id="Dashed_Frame_18">
</g>
<g id="Dashed_Frame_19">
</g>
<g id="Dashed_Frame_20">
</g>
<g id="Dashed_Frame_25">
</g>
<g id="Dashed_Frame_26">
</g>
<g id="Dashed_Frame_27">
</g>
<g id="Dashed_Frame_28">
</g>
<g id="Dashed_Frame_29">
</g>
<g id="Dashed_Frame_30">
</g>
<g id="Dashed_Frame_31">
</g>
<g id="Dashed_Frame_32">
</g>
<g id="Dashed_Frame_33">
</g>
<g id="Dashed_Frame_35">
</g>
</svg>
