<?xml version="1.0" encoding="iso-8859-1"?>
<!-- Generator: Adobe Illustrator 19.2.1, SVG Export Plug-In . SVG Version: 6.00 Build 0)  -->
<svg version="1.1" xmlns="http://www.w3.org/2000/svg" xmlns:xlink="http://www.w3.org/1999/xlink" x="0px" y="0px"
	 viewBox="0 0 30 30" style="enable-background:new 0 0 30 30;" xml:space="preserve">
<g id="Photo_frame">
</g>
<g id="Photo_frame_2">
</g>
<g id="Photo_frame_3">
</g>
<g id="Photo_frame__4">
</g>
<g id="Photo_frame_5">
</g>
<g id="Photo_frame_6">
</g>
<g id="Photo_frame_7">
</g>
<g id="Round_Frame_1">
</g>
<g id="Rectangle_Frame_1">
</g>
<g id="Square_Frame_1">
</g>
<g id="Rectangle_Frame_2">
</g>
<g id="Oval_Frame_1">
</g>
<g id="Round_Frame_2">
</g>
<g id="Rectangle_Frame_3">
</g>
<g id="Rectangle_Frame_4">
</g>
<g id="Rectangle_Frame_5">
</g>
<g id="Square_Frame_2">
</g>
<g id="Rectangle_Frame_6">
</g>
<g id="Rectangle_Frame_7">
</g>
<g id="Oval_Frame_2">
</g>
<g id="Round_Frame_3">
</g>
<g id="Rectangle_Frame_8">
</g>
<g id="Square_Frame_3">
</g>
<g id="Rectangle_Frame_9">
</g>
<g id="Rectangle_Frame_10">
</g>
<g id="Square_Frame_4">
</g>
<g id="Rectangle_Frame_11">
</g>
<g id="Rectangle_Frame_12">
</g>
<g id="Square_Frame_5">
</g>
<g id="Rectangle_Frame_13">
</g>
<g id="Round_Frame">
</g>
<g id="Frame_2">
</g>
<g id="Frame_1">
</g>
<g id="Frame_3">
</g>
<g id="Frame_4">
</g>
<g id="Frame_5">
</g>
<g id="Frame_6">
</g>
<g id="Frame_7">
</g>
<g id="Frame_8">
</g>
<g id="Frame_9">
</g>
<g id="Frame_10">
</g>
<g id="Frame_11">
</g>
<g id="Frame_12">
</g>
<g id="Frame_13">
</g>
<g id="Frame_14">
</g>
<g id="Frame_15">
</g>
<g id="Frame_16">
</g>
<g id="Frame_17">
</g>
<g id="Frame_18">
</g>
<g id="Frame_19">
</g>
<g id="Frame_20">
</g>
<g id="Frame_21">
</g>
<g id="Frame_22">
</g>
<g id="Frame_23">
</g>
<g id="Frame_24">
</g>
<g id="Frame_25">
</g>
<g id="Frame_26">
</g>
<g id="Frame_27">
</g>
<g id="Frame_28">
</g>
<g id="Frame_29">
</g>
<g id="Frame_30">
</g>
<g id="Frame_Hole_1">
</g>
<g id="Frame_Hole_2">
</g>
<g id="Frame_Hole_3">
</g>
<g id="Frame_Hole_4">
</g>
<g id="Frame_31">
</g>
<g id="Frame_32">
	<path d="M29,12.394V10.5c0-0.276-0.224-0.5-0.5-0.5H24V9.957c0-1.274-1.188-2.392-2.544-2.392c-0.795,0-1.467-0.638-1.467-1.392
		c0-0.248-0.183-0.459-0.428-0.495l-1.93-0.28c-0.149-0.02-0.289,0.021-0.397,0.115c-0.609,0.522-1.396,0.791-2.223,0.79
		c-0.854-0.011-1.589-0.268-2.198-0.79c-0.109-0.094-0.254-0.138-0.398-0.114l-1.896,0.28c-0.245,0.036-0.427,0.246-0.427,0.494
		c0,0.729-0.737,1.392-1.546,1.392C7.19,7.565,6.002,8.681,6,9.955c0,0,0,0.001,0,0.002v0L1.5,10C1.224,10,1,10.224,1,10.5V11v1.386
		c-0.69,0.447-1.106,1.129-1.22,1.917C-0.26,14.531-0.271,14.765-0.255,15c-0.016,0.238-0.005,0.475,0.037,0.706
		c0.013,0.082,0.037,0.157,0.056,0.235c0.011,0.039,0.023,0.077,0.036,0.116C0.056,16.698,0.427,17.243,1,17.614V19.5V20h0.5H6
		v0.043v0c0,0.001,0,0.001,0,0.002c0.001,1.274,1.189,2.39,2.544,2.39c0.795,0,1.467,0.638,1.467,1.392
		c0,0.248,0.183,0.459,0.428,0.495l1.93,0.28c0.146,0.018,0.288-0.021,0.397-0.115c0.609-0.522,1.407-0.79,2.224-0.79
		c0.852,0,1.588,0.268,2.197,0.79c0.091,0.078,0.206,0.12,0.325,0.12c0.024,0,0.049-0.002,0.073-0.006l1.896-0.28
		c0.245-0.036,0.427-0.246,0.427-0.494c0-0.729,0.737-1.392,1.546-1.392c1.356,0,2.546-1.117,2.546-2.392L28.5,20
		c0.276,0,0.5-0.224,0.5-0.5v-1.895c0.693-0.492,1.025-1.317,1.109-1.834c0.045-0.069,0.073-0.151,0.079-0.24
		C30.257,14.431,29.972,13.078,29,12.394z M28,12.674L28,12.674L28,12.674L28,12.674z M23.5,11H23v-0.5C23,10.776,23.224,11,23.5,11
		z M28,17.326L28,17.326L28,17.326L28,17.326z"/>
</g>
<g id="Frame_33">
</g>
<g id="Frame_34">
</g>
<g id="Frame_35">
</g>
<g id="Dashed_Frame_1">
</g>
<g id="Dashed_Frame_2">
</g>
<g id="Dashed_Frame_3">
</g>
<g id="Dashed_Frame_4">
</g>
<g id="Dashed_Frame_5">
</g>
<g id="Dashed_Frame_6">
</g>
<g id="Dashed_Frame_7">
</g>
<g id="Dashed_Frame_8">
</g>
<g id="Dashed_Frame_9">
</g>
<g id="Dashed_Frame_10">
</g>
<g id="Dashed_Frame_11">
</g>
<g id="Dashed_Frame_12">
</g>
<g id="Dashed_Frame_13">
</g>
<g id="Dashed_Frame_14">
</g>
<g id="Dashed_Frame_15">
</g>
<g id="Dashed_Frame_16">
</g>
<g id="Dashed_Frame_17">
</g>
<g id="Dashed_Frame_18">
</g>
<g id="Dashed_Frame_19">
</g>
<g id="Dashed_Frame_20">
</g>
<g id="Dashed_Frame_25">
</g>
<g id="Dashed_Frame_26">
</g>
<g id="Dashed_Frame_27">
</g>
<g id="Dashed_Frame_28">
</g>
<g id="Dashed_Frame_29">
</g>
<g id="Dashed_Frame_30">
</g>
<g id="Dashed_Frame_31">
</g>
<g id="Dashed_Frame_32">
</g>
<g id="Dashed_Frame_33">
</g>
<g id="Dashed_Frame_35">
</g>
</svg>
