<?xml version="1.0" encoding="iso-8859-1"?>
<!-- Generator: Adobe Illustrator 19.2.1, SVG Export Plug-In . SVG Version: 6.00 Build 0)  -->
<svg version="1.1" xmlns="http://www.w3.org/2000/svg" xmlns:xlink="http://www.w3.org/1999/xlink" x="0px" y="0px"
	 viewBox="0 0 30 30" style="enable-background:new 0 0 30 30;" xml:space="preserve">
<g id="Photo_frame">
</g>
<g id="Photo_frame_2">
</g>
<g id="Photo_frame_3">
</g>
<g id="Photo_frame__4">
</g>
<g id="Photo_frame_5">
</g>
<g id="Photo_frame_6">
</g>
<g id="Photo_frame_7">
</g>
<g id="Round_Frame_1">
</g>
<g id="Rectangle_Frame_1">
</g>
<g id="Square_Frame_1">
</g>
<g id="Rectangle_Frame_2">
</g>
<g id="Oval_Frame_1">
</g>
<g id="Round_Frame_2">
</g>
<g id="Rectangle_Frame_3">
</g>
<g id="Rectangle_Frame_4">
</g>
<g id="Rectangle_Frame_5">
</g>
<g id="Square_Frame_2">
</g>
<g id="Rectangle_Frame_6">
</g>
<g id="Rectangle_Frame_7">
</g>
<g id="Oval_Frame_2">
</g>
<g id="Round_Frame_3">
</g>
<g id="Rectangle_Frame_8">
</g>
<g id="Square_Frame_3">
</g>
<g id="Rectangle_Frame_9">
</g>
<g id="Rectangle_Frame_10">
</g>
<g id="Square_Frame_4">
</g>
<g id="Rectangle_Frame_11">
</g>
<g id="Rectangle_Frame_12">
</g>
<g id="Square_Frame_5">
</g>
<g id="Rectangle_Frame_13">
</g>
<g id="Round_Frame">
</g>
<g id="Frame_2">
</g>
<g id="Frame_1">
</g>
<g id="Frame_3">
</g>
<g id="Frame_4">
</g>
<g id="Frame_5">
</g>
<g id="Frame_6">
</g>
<g id="Frame_7">
</g>
<g id="Frame_8">
</g>
<g id="Frame_9">
</g>
<g id="Frame_10">
</g>
<g id="Frame_11">
</g>
<g id="Frame_12">
	<path d="M29.116,15c0-1.125,0.321-2.292,0.905-3.288c0.114-0.194,0.084-0.44-0.073-0.602L28,9.111V7.219
		C28,5.534,26.439,4,24.726,4h-1.974L20.26,1.608c-0.084-0.081-0.194-0.13-0.311-0.138c-0.1-0.01-0.177,0.003-0.251,0.014
		c-0.119-0.012-0.237,0.026-0.333,0.097C18.323,2.353,16.691,2.813,15,2.813c-1.737,0-3.328-0.44-4.365-1.208
		c-0.095-0.071-0.15-0.102-0.273-0.096c-0.059-0.018-0.165-0.053-0.311-0.042C9.935,1.475,9.824,1.524,9.74,1.605L7.248,4H5.274
		C3.561,4,2,5.534,2,7.219v0v1.892L0.052,11.11c-0.157,0.162-0.188,0.408-0.073,0.602c0.555,0.946,0.86,2.113,0.86,3.288
		c0,1.15-0.313,2.317-0.883,3.288c-0.115,0.195-0.084,0.443,0.075,0.604L2,20.89v1.89v0C2,24.466,3.56,26,5.274,26l0,0h0h1.974
		l2.492,2.392c0.084,0.081,0.194,0.13,0.311,0.138c0.099,0.009,0.177-0.004,0.251-0.014c0.116,0.01,0.236-0.025,0.333-0.097
		c1.042-0.771,2.674-1.232,4.365-1.232c1.737,0,3.328,0.44,4.365,1.208c0.096,0.072,0.152,0.105,0.273,0.096
		c0.051,0.016,0.141,0.044,0.259,0.044c0.017,0,0.034,0,0.052-0.002c0.117-0.008,0.227-0.057,0.312-0.138L22.752,26h1.974h0l0,0
		C26.44,26,28,24.466,28,22.781v-1.892l1.948-1.999c0.157-0.162,0.188-0.408,0.073-0.602C29.438,17.292,29.116,16.125,29.116,15z
		 M27,7.219L27,7.219L27,7.219L27,7.219z M27,22.781L27,22.781L27,22.781L27,22.781z"/>
</g>
<g id="Frame_13">
</g>
<g id="Frame_14">
</g>
<g id="Frame_15">
</g>
<g id="Frame_16">
</g>
<g id="Frame_17">
</g>
<g id="Frame_18">
</g>
<g id="Frame_19">
</g>
<g id="Frame_20">
</g>
<g id="Frame_21">
</g>
<g id="Frame_22">
</g>
<g id="Frame_23">
</g>
<g id="Frame_24">
</g>
<g id="Frame_25">
</g>
<g id="Frame_26">
</g>
<g id="Frame_27">
</g>
<g id="Frame_28">
</g>
<g id="Frame_29">
</g>
<g id="Frame_30">
</g>
<g id="Frame_Hole_1">
</g>
<g id="Frame_Hole_2">
</g>
<g id="Frame_Hole_3">
</g>
<g id="Frame_Hole_4">
</g>
<g id="Frame_31">
</g>
<g id="Frame_32">
</g>
<g id="Frame_33">
</g>
<g id="Frame_34">
</g>
<g id="Frame_35">
</g>
<g id="Dashed_Frame_1">
</g>
<g id="Dashed_Frame_2">
</g>
<g id="Dashed_Frame_3">
</g>
<g id="Dashed_Frame_4">
</g>
<g id="Dashed_Frame_5">
</g>
<g id="Dashed_Frame_6">
</g>
<g id="Dashed_Frame_7">
</g>
<g id="Dashed_Frame_8">
</g>
<g id="Dashed_Frame_9">
</g>
<g id="Dashed_Frame_10">
</g>
<g id="Dashed_Frame_11">
</g>
<g id="Dashed_Frame_12">
</g>
<g id="Dashed_Frame_13">
</g>
<g id="Dashed_Frame_14">
</g>
<g id="Dashed_Frame_15">
</g>
<g id="Dashed_Frame_16">
</g>
<g id="Dashed_Frame_17">
</g>
<g id="Dashed_Frame_18">
</g>
<g id="Dashed_Frame_19">
</g>
<g id="Dashed_Frame_20">
</g>
<g id="Dashed_Frame_25">
</g>
<g id="Dashed_Frame_26">
</g>
<g id="Dashed_Frame_27">
</g>
<g id="Dashed_Frame_28">
</g>
<g id="Dashed_Frame_29">
</g>
<g id="Dashed_Frame_30">
</g>
<g id="Dashed_Frame_31">
</g>
<g id="Dashed_Frame_32">
</g>
<g id="Dashed_Frame_33">
</g>
<g id="Dashed_Frame_35">
</g>
</svg>
