<?xml version="1.0" encoding="iso-8859-1"?>
<!-- Generator: Adobe Illustrator 19.2.1, SVG Export Plug-In . SVG Version: 6.00 Build 0)  -->
<svg version="1.1" xmlns="http://www.w3.org/2000/svg" xmlns:xlink="http://www.w3.org/1999/xlink" x="0px" y="0px"
	 viewBox="0 0 30 30" style="enable-background:new 0 0 30 30;" xml:space="preserve">
<g id="Engagement_1">
</g>
<g id="Engagement_2">
</g>
<g id="Wedding_Ring">
</g>
<g id="Church">
</g>
<g id="Church_Bells">
</g>
<g id="Wedding_Altar_1">
</g>
<g id="Wedding_Altar_2">
</g>
<g id="Bow-Tie">
</g>
<g id="Wedding_Tiara">
</g>
<g id="Wedding_Bouquet">
</g>
<g id="Wedding_Decoration_1">
</g>
<g id="Wedding_Decoration_2">
</g>
<g id="Wedding_Way_Sign">
</g>
<g id="Wedding_Date">
</g>
<g id="Wedding_Invitation">
</g>
<g id="Wedding_Invitation_2">
</g>
<g id="Bride">
</g>
<g id="Groom">
</g>
<g id="Mariage_Couple">
</g>
<g id="Wedding_Planner_Book">
</g>
<g id="Wedding_Cake_1">
</g>
<g id="Wedding_Cake_2">
</g>
<g id="Wedding_Cake_3">
</g>
<g id="Cake_Slice">
</g>
<g id="Marriage_Settlement">
</g>
<g id="Glass_Decoration">
</g>
<g id="Cutlery_Decoration">
</g>
<g id="Celebration_Glasses">
	<g>
		<path d="M8.5,17.547c-2.03,0-3.682-1.651-3.682-3.682c0-0.841,0.276-1.634,0.799-2.291c0.173-0.216,0.487-0.25,0.703-0.08
			c0.216,0.172,0.252,0.486,0.08,0.703c-0.381,0.479-0.582,1.055-0.582,1.668c0,1.479,1.203,2.682,2.682,2.682
			c1.043,0,1.999-0.611,2.436-1.558c0.116-0.25,0.412-0.359,0.664-0.244c0.25,0.116,0.359,0.413,0.244,0.664
			C11.243,16.708,9.932,17.547,8.5,17.547z"/>
	</g>
	<g>
		<path d="M11.391,15.699c-0.074,0-0.149-0.017-0.22-0.051c-0.248-0.122-0.351-0.421-0.229-0.669l2.635-5.375L9.902,7.411
			l-3.491,4.771c-0.163,0.224-0.477,0.272-0.698,0.108c-0.224-0.163-0.271-0.476-0.108-0.698l3.76-5.139
			c0.151-0.21,0.442-0.267,0.659-0.135l4.46,2.663c0.224,0.134,0.308,0.416,0.193,0.649l-2.837,5.788
			C11.753,15.597,11.575,15.699,11.391,15.699z"/>
	</g>
	<g>
		<path d="M25.933,21.257c-0.172,0-0.34-0.09-0.433-0.25l-2.379-4.115c-0.139-0.239-0.057-0.545,0.183-0.683
			c0.235-0.14,0.543-0.057,0.683,0.183l2.379,4.115c0.139,0.239,0.057,0.545-0.183,0.683C26.104,21.235,26.018,21.257,25.933,21.257
			z"/>
	</g>
	<g>
		<path d="M22,17.547c-1.431,0-2.743-0.84-3.344-2.139L15.823,9.63c-0.114-0.233-0.03-0.516,0.193-0.649l4.46-2.663
			c0.218-0.133,0.508-0.075,0.659,0.135l3.754,5.131c0.511,0.646,0.792,1.456,0.792,2.281C25.682,15.895,24.03,17.547,22,17.547z
			 M16.924,9.604l2.635,5.375c0.442,0.957,1.399,1.568,2.441,1.568c1.479,0,2.682-1.203,2.682-2.683
			c0-0.613-0.201-1.189-0.581-1.667c-0.005-0.005-0.008-0.011-0.012-0.017L20.598,7.41L16.924,9.604z"/>
	</g>
	<g>
		<path d="M24.546,13.729c-4.575,0-7.121-1.274-7.228-1.328c-0.245-0.126-0.343-0.426-0.218-0.672
			c0.124-0.246,0.426-0.346,0.672-0.219c0.024,0.012,2.46,1.219,6.773,1.219c0.276,0,0.5,0.224,0.5,0.5S24.822,13.729,24.546,13.729
			z"/>
	</g>
	<g>
		<path d="M5.954,13.605c-0.276,0-0.5-0.224-0.5-0.5s0.224-0.5,0.5-0.5c4.313,0,6.749-1.206,6.773-1.218
			c0.244-0.127,0.547-0.027,0.672,0.219s0.027,0.547-0.218,0.672C13.075,12.332,10.529,13.605,5.954,13.605z"/>
	</g>
	<g>
		<path d="M24.546,24c-0.157,0-0.312-0.074-0.408-0.212c-0.037-0.053-0.063-0.11-0.078-0.17c-0.238-0.503-0.202-1.128,0.105-1.74
			c0.303-0.601,0.84-1.151,1.513-1.551c1.474-0.877,3.104-0.762,3.73,0.253c0.062,0.091,0.094,0.201,0.086,0.313
			c-0.01,0.165-0.097,0.317-0.239,0.402l-4.454,2.636C24.721,23.978,24.633,24,24.546,24z M27.659,20.74
			c-0.426,0-0.947,0.135-1.471,0.446c-0.504,0.299-0.916,0.715-1.13,1.141c-0.047,0.094-0.103,0.224-0.133,0.367l3.195-1.891
			C27.986,20.762,27.831,20.74,27.659,20.74z"/>
	</g>
	<g>
		<path d="M4.567,21.257c-0.085,0-0.172-0.021-0.25-0.067c-0.239-0.138-0.321-0.443-0.183-0.683l2.379-4.115
			c0.139-0.239,0.447-0.32,0.683-0.183c0.239,0.138,0.321,0.443,0.183,0.683L5,21.007C4.907,21.167,4.739,21.257,4.567,21.257z"/>
	</g>
	<g>
		<path d="M5.954,24c-0.087,0-0.175-0.022-0.255-0.069l-4.454-2.636c-0.143-0.085-0.233-0.233-0.244-0.399
			c-0.008-0.126,0.032-0.25,0.11-0.347c0.64-0.985,2.251-1.089,3.712-0.222c0.672,0.399,1.209,0.95,1.512,1.551
			c0.308,0.612,0.344,1.237,0.105,1.74c-0.015,0.06-0.041,0.117-0.078,0.17C6.266,23.926,6.111,24,5.954,24z M2.379,20.804
			l3.195,1.891c-0.03-0.144-0.086-0.273-0.133-0.367c-0.214-0.426-0.626-0.842-1.129-1.141C3.577,20.751,2.849,20.658,2.379,20.804z
			"/>
	</g>
</g>
<g id="Wedding_Photo">
</g>
<g id="Wedding_Present_1">
</g>
<g id="Wedding_Present_2">
</g>
<g id="Wedding_Bouquet_2">
</g>
<g id="Hands_with_rings">
</g>
<g id="Wedding_Car">
</g>
<g id="Wedding_music">
</g>
<g id="wedding_party">
</g>
<g id="Confetti_1">
</g>
<g id="Confetti_2">
</g>
</svg>
