<?xml version="1.0" encoding="iso-8859-1"?>
<!-- Generator: Adobe Illustrator 19.2.1, SVG Export Plug-In . SVG Version: 6.00 Build 0)  -->
<svg version="1.1" xmlns="http://www.w3.org/2000/svg" xmlns:xlink="http://www.w3.org/1999/xlink" x="0px" y="0px"
	 viewBox="0 0 30 30" style="enable-background:new 0 0 30 30;" xml:space="preserve">
<g id="Engagement_1">
</g>
<g id="Engagement_2">
</g>
<g id="Wedding_Ring">
</g>
<g id="Church">
	<g>
		<g>
			<path d="M20.5,30h-11C9.224,30,9,29.776,9,29.5V12c0-0.276,0.224-0.5,0.5-0.5S10,11.724,10,12v17h10V12
				c0-0.276,0.224-0.5,0.5-0.5S21,11.724,21,12v17.5C21,29.776,20.776,30,20.5,30z"/>
		</g>
		<g>
			<path d="M18.5,30h-7c-0.276,0-0.5-0.224-0.5-0.5v-6.935c0-1.946,1.829-3.652,3.913-3.652h0.261c2.074,0,3.826,1.672,3.826,3.652
				V29.5C19,29.776,18.776,30,18.5,30z M12,29h6v-6.435c0-1.413-1.321-2.652-2.826-2.652h-0.261c-1.524,0-2.913,1.264-2.913,2.652
				V29z"/>
		</g>
		<g>
			<path d="M29.5,22.435c-0.101,0-0.202-0.03-0.29-0.093l-8.826-6.304c-0.225-0.16-0.277-0.473-0.116-0.697s0.474-0.276,0.697-0.116
				l8.826,6.304c0.225,0.16,0.277,0.473,0.116,0.697C29.809,22.362,29.656,22.435,29.5,22.435z"/>
		</g>
		<g>
			<path d="M28.5,30h-8c-0.276,0-0.5-0.224-0.5-0.5s0.224-0.5,0.5-0.5H28v-7.78c0-0.276,0.224-0.5,0.5-0.5s0.5,0.224,0.5,0.5v8.28
				C29,29.776,28.776,30,28.5,30z"/>
		</g>
		<g>
			<path d="M0.5,22.435c-0.156,0-0.31-0.073-0.407-0.209C-0.067,22-0.015,21.688,0.209,21.528l8.826-6.304
				c0.225-0.161,0.537-0.109,0.697,0.116c0.161,0.225,0.108,0.537-0.116,0.697l-8.826,6.304C0.703,22.404,0.601,22.435,0.5,22.435z"
				/>
		</g>
		<g>
			<path d="M9.5,30h-8C1.224,30,1,29.776,1,29.5v-8.28c0-0.276,0.224-0.5,0.5-0.5S2,20.944,2,21.22V29h7.5
				c0.276,0,0.5,0.224,0.5,0.5S9.776,30,9.5,30z"/>
		</g>
		<g>
			<path d="M21.935,13.609c-0.12,0-0.241-0.043-0.336-0.13L15,7.48l-6.598,5.999c-0.203,0.186-0.52,0.171-0.707-0.034
				c-0.186-0.205-0.17-0.521,0.034-0.707l6.935-6.305c0.19-0.173,0.482-0.173,0.673,0l6.935,6.305
				c0.204,0.186,0.219,0.502,0.034,0.707C22.206,13.554,22.07,13.609,21.935,13.609z"/>
		</g>
		<g>
			<path d="M25.5,27h-2c-0.276,0-0.5-0.224-0.5-0.5v-3.304c0-0.856,0.436-1.5,1.104-1.698c0.072-0.041,0.155-0.063,0.244-0.063
				h0.207c0.085,0,0.165,0.021,0.235,0.059C25.503,21.689,26,22.356,26,23.196V26.5C26,26.776,25.776,27,25.5,27z M24,26h1v-2.804
				c0-0.348-0.169-0.698-0.545-0.753C24.047,22.508,24,22.983,24,23.196V26z"/>
		</g>
		<g>
			<path d="M6.5,27h-2C4.224,27,4,26.776,4,26.5v-3.304c0-0.881,0.468-1.536,1.178-1.713c0.064-0.031,0.137-0.048,0.213-0.048h0.185
				c0.077,0,0.149,0.017,0.214,0.048C6.51,21.662,7,22.328,7,23.196V26.5C7,26.776,6.776,27,6.5,27z M5,26h1v-2.804
				c0-0.12-0.026-0.69-0.515-0.755C5.037,22.503,5,23.028,5,23.196V26z"/>
		</g>
		<g>
			<path d="M15,13.609c-0.623,0-1.13-0.507-1.13-1.131s0.507-1.13,1.13-1.13s1.13,0.507,1.13,1.13S15.623,13.609,15,13.609z
				 M15,12.348c-0.072,0-0.13,0.059-0.13,0.13c0,0.145,0.261,0.145,0.261,0C15.13,12.406,15.072,12.348,15,12.348z"/>
		</g>
		<g>
			<path d="M17.364,5h-4.729c-0.18,0-0.345-0.096-0.434-0.252c-0.089-0.156-0.088-0.347,0.003-0.502l2.364-4
				c0.181-0.305,0.681-0.305,0.861,0l2.364,4c0.091,0.155,0.093,0.346,0.003,0.502C17.709,4.904,17.544,5,17.364,5z M13.512,4h2.976
				L15,1.482L13.512,4z"/>
		</g>
		<g>
			<path d="M15,6c-0.172,0-0.333-0.089-0.424-0.235l-2.5-4c-0.097-0.154-0.102-0.349-0.014-0.507C12.151,1.099,12.318,1,12.5,1h5
				c0.182,0,0.349,0.099,0.438,0.258c0.088,0.159,0.083,0.353-0.014,0.507l-2.5,4C15.333,5.911,15.172,6,15,6z M13.402,2L15,4.557
				L16.598,2H13.402z"/>
		</g>
	</g>
</g>
<g id="Church_Bells">
</g>
<g id="Wedding_Altar_1">
</g>
<g id="Wedding_Altar_2">
</g>
<g id="Bow-Tie">
</g>
<g id="Wedding_Tiara">
</g>
<g id="Wedding_Bouquet">
</g>
<g id="Wedding_Decoration_1">
</g>
<g id="Wedding_Decoration_2">
</g>
<g id="Wedding_Way_Sign">
</g>
<g id="Wedding_Date">
</g>
<g id="Wedding_Invitation">
</g>
<g id="Wedding_Invitation_2">
</g>
<g id="Bride">
</g>
<g id="Groom">
</g>
<g id="Mariage_Couple">
</g>
<g id="Wedding_Planner_Book">
</g>
<g id="Wedding_Cake_1">
</g>
<g id="Wedding_Cake_2">
</g>
<g id="Wedding_Cake_3">
</g>
<g id="Cake_Slice">
</g>
<g id="Marriage_Settlement">
</g>
<g id="Glass_Decoration">
</g>
<g id="Cutlery_Decoration">
</g>
<g id="Celebration_Glasses">
</g>
<g id="Wedding_Photo">
</g>
<g id="Wedding_Present_1">
</g>
<g id="Wedding_Present_2">
</g>
<g id="Wedding_Bouquet_2">
</g>
<g id="Hands_with_rings">
</g>
<g id="Wedding_Car">
</g>
<g id="Wedding_music">
</g>
<g id="wedding_party">
</g>
<g id="Confetti_1">
</g>
<g id="Confetti_2">
</g>
</svg>
