<?xml version="1.0" encoding="iso-8859-1"?>
<!-- Generator: Adobe Illustrator 19.2.1, SVG Export Plug-In . SVG Version: 6.00 Build 0)  -->
<svg version="1.1" xmlns="http://www.w3.org/2000/svg" xmlns:xlink="http://www.w3.org/1999/xlink" x="0px" y="0px"
	 viewBox="0 0 30 30" style="enable-background:new 0 0 30 30;" xml:space="preserve">
<g id="Engagement_1">
	<g>
		<g>
			<path d="M9.5,30C4.262,30,0,25.738,0,20.5S4.262,11,9.5,11c1.287,0,2.535,0.253,3.711,0.752c0.254,0.108,0.373,0.402,0.265,0.656
				c-0.108,0.254-0.404,0.371-0.656,0.265C11.769,12.226,10.652,12,9.5,12C4.813,12,1,15.813,1,20.5S4.813,29,9.5,29
				s8.5-3.813,8.5-8.5c0-1.681-0.49-3.306-1.416-4.699c-0.153-0.23-0.09-0.541,0.14-0.693c0.229-0.154,0.539-0.091,0.693,0.14
				C18.453,16.805,19,18.622,19,20.5C19,25.738,14.738,30,9.5,30z"/>
		</g>
		<g>
			<path d="M20.5,30c-1.281,0-2.524-0.251-3.695-0.746c-0.254-0.107-0.373-0.401-0.266-0.655c0.107-0.254,0.4-0.373,0.655-0.266
				C18.241,28.776,19.354,29,20.5,29c4.687,0,8.5-3.813,8.5-8.5S25.187,12,20.5,12S12,15.813,12,20.5
				c0,1.68,0.489,3.304,1.415,4.697c0.153,0.23,0.09,0.541-0.14,0.693c-0.231,0.152-0.542,0.089-0.693-0.14
				C11.547,24.193,11,22.377,11,20.5c0-5.238,4.262-9.5,9.5-9.5s9.5,4.262,9.5,9.5S25.738,30,20.5,30z"/>
		</g>
		<g>
			<path d="M15,9.826c-0.141,0-0.275-0.06-0.37-0.164c-0.115-0.126-2.817-3.104-3.699-4.182c-0.552-0.675-0.844-1.452-0.844-2.249
				C10.087,1.45,11.43,0,13.081,0c0.71,0,1.385,0.268,1.919,0.75C15.534,0.268,16.209,0,16.919,0c1.651,0,2.994,1.45,2.994,3.232
				c0,0.796-0.292,1.574-0.843,2.248c-0.882,1.078-3.585,4.056-3.7,4.182C15.275,9.767,15.141,9.826,15,9.826z M13.081,1
				c-1.1,0-1.994,1.001-1.994,2.232c0,0.711,0.336,1.271,0.618,1.615C12.379,5.671,14.21,7.707,15,8.581
				c0.79-0.874,2.621-2.91,3.296-3.734c0.281-0.344,0.617-0.904,0.617-1.615c0-1.23-0.895-2.232-1.994-2.232
				c-0.585,0-1.14,0.288-1.521,0.789c-0.189,0.249-0.607,0.249-0.797,0C14.221,1.288,13.667,1,13.081,1z"/>
		</g>
	</g>
</g>
<g id="Engagement_2">
</g>
<g id="Wedding_Ring">
</g>
<g id="Church">
</g>
<g id="Church_Bells">
</g>
<g id="Wedding_Altar_1">
</g>
<g id="Wedding_Altar_2">
</g>
<g id="Bow-Tie">
</g>
<g id="Wedding_Tiara">
</g>
<g id="Wedding_Bouquet">
</g>
<g id="Wedding_Decoration_1">
</g>
<g id="Wedding_Decoration_2">
</g>
<g id="Wedding_Way_Sign">
</g>
<g id="Wedding_Date">
</g>
<g id="Wedding_Invitation">
</g>
<g id="Wedding_Invitation_2">
</g>
<g id="Bride">
</g>
<g id="Groom">
</g>
<g id="Mariage_Couple">
</g>
<g id="Wedding_Planner_Book">
</g>
<g id="Wedding_Cake_1">
</g>
<g id="Wedding_Cake_2">
</g>
<g id="Wedding_Cake_3">
</g>
<g id="Cake_Slice">
</g>
<g id="Marriage_Settlement">
</g>
<g id="Glass_Decoration">
</g>
<g id="Cutlery_Decoration">
</g>
<g id="Celebration_Glasses">
</g>
<g id="Wedding_Photo">
</g>
<g id="Wedding_Present_1">
</g>
<g id="Wedding_Present_2">
</g>
<g id="Wedding_Bouquet_2">
</g>
<g id="Hands_with_rings">
</g>
<g id="Wedding_Car">
</g>
<g id="Wedding_music">
</g>
<g id="wedding_party">
</g>
<g id="Confetti_1">
</g>
<g id="Confetti_2">
</g>
</svg>
