<?xml version="1.0" encoding="iso-8859-1"?>
<!-- Generator: Adobe Illustrator 19.2.1, SVG Export Plug-In . SVG Version: 6.00 Build 0)  -->
<svg version="1.1" xmlns="http://www.w3.org/2000/svg" xmlns:xlink="http://www.w3.org/1999/xlink" x="0px" y="0px"
	 viewBox="0 0 30 30" style="enable-background:new 0 0 30 30;" xml:space="preserve">
<g id="Engagement_1">
</g>
<g id="Engagement_2">
	<g>
		<g>
			<path d="M9.5,24C4.262,24,0,19.738,0,14.5S4.262,5,9.5,5c1.287,0,2.535,0.253,3.711,0.752c0.254,0.108,0.373,0.402,0.265,0.656
				c-0.108,0.255-0.404,0.372-0.656,0.265C11.769,6.226,10.652,6,9.5,6C4.813,6,1,9.813,1,14.5S4.813,23,9.5,23s8.5-3.813,8.5-8.5
				c0-1.681-0.49-3.306-1.416-4.699c-0.153-0.23-0.09-0.541,0.14-0.693c0.229-0.153,0.54-0.091,0.693,0.14
				C18.453,10.805,19,12.622,19,14.5C19,19.738,14.738,24,9.5,24z"/>
		</g>
		<g>
			<path d="M20.5,24c-1.281,0-2.524-0.251-3.695-0.746c-0.254-0.107-0.373-0.401-0.266-0.655c0.107-0.254,0.4-0.373,0.655-0.266
				C18.241,22.776,19.354,23,20.5,23c4.687,0,8.5-3.813,8.5-8.5S25.187,6,20.5,6S12,9.813,12,14.5c0,1.68,0.489,3.304,1.415,4.697
				c0.153,0.23,0.09,0.541-0.14,0.693c-0.231,0.152-0.542,0.089-0.693-0.14C11.547,18.193,11,16.377,11,14.5
				C11,9.262,15.262,5,20.5,5S30,9.262,30,14.5S25.738,24,20.5,24z"/>
		</g>
	</g>
</g>
<g id="Wedding_Ring">
</g>
<g id="Church">
</g>
<g id="Church_Bells">
</g>
<g id="Wedding_Altar_1">
</g>
<g id="Wedding_Altar_2">
</g>
<g id="Bow-Tie">
</g>
<g id="Wedding_Tiara">
</g>
<g id="Wedding_Bouquet">
</g>
<g id="Wedding_Decoration_1">
</g>
<g id="Wedding_Decoration_2">
</g>
<g id="Wedding_Way_Sign">
</g>
<g id="Wedding_Date">
</g>
<g id="Wedding_Invitation">
</g>
<g id="Wedding_Invitation_2">
</g>
<g id="Bride">
</g>
<g id="Groom">
</g>
<g id="Mariage_Couple">
</g>
<g id="Wedding_Planner_Book">
</g>
<g id="Wedding_Cake_1">
</g>
<g id="Wedding_Cake_2">
</g>
<g id="Wedding_Cake_3">
</g>
<g id="Cake_Slice">
</g>
<g id="Marriage_Settlement">
</g>
<g id="Glass_Decoration">
</g>
<g id="Cutlery_Decoration">
</g>
<g id="Celebration_Glasses">
</g>
<g id="Wedding_Photo">
</g>
<g id="Wedding_Present_1">
</g>
<g id="Wedding_Present_2">
</g>
<g id="Wedding_Bouquet_2">
</g>
<g id="Hands_with_rings">
</g>
<g id="Wedding_Car">
</g>
<g id="Wedding_music">
</g>
<g id="wedding_party">
</g>
<g id="Confetti_1">
</g>
<g id="Confetti_2">
</g>
</svg>
