<?xml version="1.0" encoding="iso-8859-1"?>
<!-- Generator: Adobe Illustrator 19.2.1, SVG Export Plug-In . SVG Version: 6.00 Build 0)  -->
<svg version="1.1" xmlns="http://www.w3.org/2000/svg" xmlns:xlink="http://www.w3.org/1999/xlink" x="0px" y="0px"
	 viewBox="0 0 30 30" style="enable-background:new 0 0 30 30;" xml:space="preserve">
<g id="Engagement_1">
</g>
<g id="Engagement_2">
</g>
<g id="Wedding_Ring">
</g>
<g id="Church">
</g>
<g id="Church_Bells">
</g>
<g id="Wedding_Altar_1">
</g>
<g id="Wedding_Altar_2">
</g>
<g id="Bow-Tie">
</g>
<g id="Wedding_Tiara">
</g>
<g id="Wedding_Bouquet">
</g>
<g id="Wedding_Decoration_1">
</g>
<g id="Wedding_Decoration_2">
</g>
<g id="Wedding_Way_Sign">
</g>
<g id="Wedding_Date">
</g>
<g id="Wedding_Invitation">
</g>
<g id="Wedding_Invitation_2">
</g>
<g id="Bride">
</g>
<g id="Groom">
</g>
<g id="Mariage_Couple">
</g>
<g id="Wedding_Planner_Book">
</g>
<g id="Wedding_Cake_1">
</g>
<g id="Wedding_Cake_2">
</g>
<g id="Wedding_Cake_3">
</g>
<g id="Cake_Slice">
</g>
<g id="Marriage_Settlement">
</g>
<g id="Glass_Decoration">
	<g>
		<g>
			<path d="M17.5,30h-6c-0.276,0-0.5-0.224-0.5-0.5s0.224-0.5,0.5-0.5h6c0.276,0,0.5,0.224,0.5,0.5S17.776,30,17.5,30z"/>
		</g>
		<g>
			<path d="M14.5,30c-0.276,0-0.5-0.224-0.5-0.5v-7.565c0-0.276,0.224-0.5,0.5-0.5s0.5,0.224,0.5,0.5V29.5
				C15,29.776,14.776,30,14.5,30z"/>
		</g>
		<g>
			<path d="M11.978,9.826c-0.244,0-0.458-0.18-0.494-0.43L10.223,0.57c-0.026-0.186,0.054-0.37,0.207-0.479
				c0.152-0.107,0.354-0.124,0.521-0.034l3.243,1.703c1.317,0.691,2.763,2.234,3.29,3.514c0.105,0.255-0.016,0.547-0.271,0.652
				c-0.255,0.108-0.547-0.016-0.652-0.271c-0.443-1.072-1.713-2.422-2.831-3.01l-2.378-1.248l1.123,7.858
				c0.039,0.273-0.151,0.526-0.425,0.565C12.025,9.824,12.001,9.826,11.978,9.826z"/>
		</g>
		<g>
			<path d="M13.239,9.826c-0.104,0-0.21-0.032-0.3-0.1c-0.221-0.166-0.266-0.479-0.101-0.7l3.782-5.044
				c0.13-0.173,0.356-0.238,0.559-0.175c0.204,0.068,0.342,0.26,0.342,0.475v5.044c0,0.276-0.224,0.5-0.5,0.5s-0.5-0.224-0.5-0.5
				V5.782L13.64,9.626C13.541,9.757,13.391,9.826,13.239,9.826z"/>
		</g>
		<g>
			<path d="M14.5,22.435c-2.361,0-4.282-1.921-4.282-4.282l0.631-8.861c0.019-0.262,0.236-0.465,0.499-0.465h6.305
				c0.263,0,0.48,0.203,0.499,0.465l0.63,8.826c0.001,0.012,0.001,0.023,0.001,0.035C18.782,20.514,16.861,22.435,14.5,22.435z
				 M11.813,9.826l-0.597,8.361c0.001,1.774,1.474,3.247,3.283,3.247c1.804,0,3.272-1.463,3.282-3.265l-0.596-8.344H11.813z"/>
		</g>
	</g>
</g>
<g id="Cutlery_Decoration">
</g>
<g id="Celebration_Glasses">
</g>
<g id="Wedding_Photo">
</g>
<g id="Wedding_Present_1">
</g>
<g id="Wedding_Present_2">
</g>
<g id="Wedding_Bouquet_2">
</g>
<g id="Hands_with_rings">
</g>
<g id="Wedding_Car">
</g>
<g id="Wedding_music">
</g>
<g id="wedding_party">
</g>
<g id="Confetti_1">
</g>
<g id="Confetti_2">
</g>
</svg>
