<?xml version="1.0" encoding="iso-8859-1"?>
<!-- Generator: Adobe Illustrator 19.2.1, SVG Export Plug-In . SVG Version: 6.00 Build 0)  -->
<svg version="1.1" xmlns="http://www.w3.org/2000/svg" xmlns:xlink="http://www.w3.org/1999/xlink" x="0px" y="0px"
	 viewBox="0 0 30 30" style="enable-background:new 0 0 30 30;" xml:space="preserve">
<g id="Engagement_1">
</g>
<g id="Engagement_2">
</g>
<g id="Wedding_Ring">
</g>
<g id="Church">
</g>
<g id="Church_Bells">
</g>
<g id="Wedding_Altar_1">
</g>
<g id="Wedding_Altar_2">
</g>
<g id="Bow-Tie">
</g>
<g id="Wedding_Tiara">
</g>
<g id="Wedding_Bouquet">
</g>
<g id="Wedding_Decoration_1">
</g>
<g id="Wedding_Decoration_2">
</g>
<g id="Wedding_Way_Sign">
</g>
<g id="Wedding_Date">
</g>
<g id="Wedding_Invitation">
</g>
<g id="Wedding_Invitation_2">
</g>
<g id="Bride">
</g>
<g id="Groom">
	<g>
		<g>
			<path d="M13,30c-1.103,0-2-0.897-2-2V13.5c0-0.276,0.224-0.5,0.5-0.5s0.5,0.224,0.5,0.5V28c0,0.551,0.448,1,1,1s1-0.449,1-1v-0.5
				c0-0.276,0.224-0.5,0.5-0.5s0.5,0.224,0.5,0.5V28C15,29.103,14.103,30,13,30z"/>
		</g>
		<g>
			<path d="M16,30c-1.103,0-2-0.897-2-2v-0.5c0-0.276,0.224-0.5,0.5-0.5s0.5,0.224,0.5,0.5V28c0,0.551,0.448,1,1,1s1-0.449,1-1V13.5
				c0-0.276,0.224-0.5,0.5-0.5s0.5,0.224,0.5,0.5V28C18,29.103,17.103,30,16,30z"/>
		</g>
		<g>
			<path d="M14.5,28c-0.276,0-0.5-0.224-0.5-0.5V21c0-0.276,0.224-0.5,0.5-0.5S15,20.724,15,21v6.5C15,27.776,14.776,28,14.5,28z"/>
		</g>
		<g>
			<path d="M19,20c-1.103,0-2-0.897-2-2v-2c0-0.276,0.224-0.5,0.5-0.5S18,15.724,18,16v2c0,0.551,0.448,1,1,1s1-0.449,1-1v-6.5
				c0-1.247-0.67-2.406-1.749-3.026c-0.239-0.138-0.322-0.443-0.185-0.683c0.139-0.241,0.445-0.321,0.683-0.185
				C20.138,8.405,21,9.896,21,11.5V18C21,19.103,20.103,20,19,20z"/>
		</g>
		<g>
			<path d="M10,20c-1.103,0-2-0.897-2-2v-6.5c0-1.604,0.862-3.095,2.251-3.894c0.236-0.137,0.544-0.056,0.683,0.185
				c0.138,0.239,0.055,0.545-0.185,0.683C9.67,9.094,9,10.253,9,11.5V18c0,0.551,0.448,1,1,1s1-0.449,1-1v-2
				c0-0.276,0.224-0.5,0.5-0.5S12,15.724,12,16v2C12,19.103,11.103,20,10,20z"/>
		</g>
		<g>
			<path d="M12.5,10c-0.092,0-0.183-0.025-0.263-0.075C12.09,9.834,12,9.673,12,9.5v-2c0-0.173,0.09-0.334,0.237-0.425
				c0.146-0.092,0.332-0.1,0.486-0.022l2,1C14.893,8.138,15,8.311,15,8.5s-0.107,0.362-0.276,0.447l-2,1
				C12.653,9.982,12.576,10,12.5,10z M13,8.309v0.382L13.382,8.5L13,8.309z"/>
		</g>
		<g>
			<path d="M16.5,10c-0.076,0-0.153-0.018-0.224-0.053l-2-1C14.107,8.862,14,8.689,14,8.5s0.107-0.362,0.276-0.447l2-1
				c0.154-0.078,0.34-0.07,0.486,0.022C16.91,7.166,17,7.327,17,7.5v2c0,0.173-0.09,0.334-0.237,0.425
				C16.683,9.975,16.592,10,16.5,10z M15.618,8.5L16,8.691V8.309L15.618,8.5z"/>
		</g>
		<g>
			<path d="M14.5,7c-1.654,0-3-1.346-3-3s1.346-3,3-3s3,1.346,3,3S16.154,7,14.5,7z M14.5,2c-1.103,0-2,0.897-2,2s0.897,2,2,2
				s2-0.897,2-2S15.603,2,14.5,2z"/>
		</g>
	</g>
</g>
<g id="Mariage_Couple">
</g>
<g id="Wedding_Planner_Book">
</g>
<g id="Wedding_Cake_1">
</g>
<g id="Wedding_Cake_2">
</g>
<g id="Wedding_Cake_3">
</g>
<g id="Cake_Slice">
</g>
<g id="Marriage_Settlement">
</g>
<g id="Glass_Decoration">
</g>
<g id="Cutlery_Decoration">
</g>
<g id="Celebration_Glasses">
</g>
<g id="Wedding_Photo">
</g>
<g id="Wedding_Present_1">
</g>
<g id="Wedding_Present_2">
</g>
<g id="Wedding_Bouquet_2">
</g>
<g id="Hands_with_rings">
</g>
<g id="Wedding_Car">
</g>
<g id="Wedding_music">
</g>
<g id="wedding_party">
</g>
<g id="Confetti_1">
</g>
<g id="Confetti_2">
</g>
</svg>
