<?xml version="1.0" encoding="iso-8859-1"?>
<!-- Generator: Adobe Illustrator 19.2.1, SVG Export Plug-In . SVG Version: 6.00 Build 0)  -->
<svg version="1.1" xmlns="http://www.w3.org/2000/svg" xmlns:xlink="http://www.w3.org/1999/xlink" x="0px" y="0px"
	 viewBox="0 0 30 30" style="enable-background:new 0 0 30 30;" xml:space="preserve">
<g id="Engagement_1">
</g>
<g id="Engagement_2">
</g>
<g id="Wedding_Ring">
</g>
<g id="Church">
</g>
<g id="Church_Bells">
</g>
<g id="Wedding_Altar_1">
</g>
<g id="Wedding_Altar_2">
</g>
<g id="Bow-Tie">
</g>
<g id="Wedding_Tiara">
</g>
<g id="Wedding_Bouquet">
</g>
<g id="Wedding_Decoration_1">
</g>
<g id="Wedding_Decoration_2">
</g>
<g id="Wedding_Way_Sign">
</g>
<g id="Wedding_Date">
</g>
<g id="Wedding_Invitation">
</g>
<g id="Wedding_Invitation_2">
</g>
<g id="Bride">
</g>
<g id="Groom">
</g>
<g id="Mariage_Couple">
</g>
<g id="Wedding_Planner_Book">
</g>
<g id="Wedding_Cake_1">
</g>
<g id="Wedding_Cake_2">
</g>
<g id="Wedding_Cake_3">
</g>
<g id="Cake_Slice">
</g>
<g id="Marriage_Settlement">
</g>
<g id="Glass_Decoration">
</g>
<g id="Cutlery_Decoration">
</g>
<g id="Celebration_Glasses">
</g>
<g id="Wedding_Photo">
</g>
<g id="Wedding_Present_1">
</g>
<g id="Wedding_Present_2">
</g>
<g id="Wedding_Bouquet_2">
</g>
<g id="Hands_with_rings">
	<g>
		<g>
			<path d="M16.06,28.057c-0.668,0-1.297-0.261-1.77-0.733L2.492,15.525c-3.317-3.317-3.317-8.716,0-12.033
				C4.099,1.885,6.236,1,8.509,1c2.272,0,4.409,0.885,6.017,2.492c0.195,0.195,0.195,0.512,0,0.707s-0.512,0.195-0.707,0
				C12.4,2.781,10.514,2,8.509,2c-2.006,0-3.892,0.781-5.31,2.199c-2.927,2.928-2.927,7.691,0,10.619l11.798,11.798
				c0.567,0.568,1.558,0.569,2.125,0c0.284-0.284,0.44-0.661,0.44-1.063s-0.156-0.778-0.44-1.062l-1.416-1.416
				c-0.098-0.098-0.146-0.226-0.146-0.354s0.049-0.256,0.146-0.354c0.195-0.195,0.512-0.195,0.707,0l1.416,1.416
				c0.586,0.586,1.539,0.586,2.125,0c0.585-0.586,0.585-1.539,0-2.125l-1.416-1.416c-0.098-0.098-0.146-0.226-0.146-0.354
				s0.049-0.256,0.146-0.354c0.195-0.195,0.512-0.195,0.707,0l1.416,1.416c0.567,0.568,1.557,0.569,2.125,0
				c0.284-0.284,0.44-0.661,0.44-1.063s-0.156-0.778-0.44-1.062l-1.416-1.416c-0.098-0.098-0.146-0.226-0.146-0.354
				s0.049-0.256,0.146-0.354c0.195-0.195,0.512-0.195,0.707,0l1.416,1.416c0.586,0.586,1.539,0.586,2.125,0
				c0.585-0.586,0.585-1.539,0-2.125l-8.806-8.806c-0.195-0.195-0.195-0.512,0-0.707s0.512-0.195,0.707,0l8.806,8.806
				c0.975,0.976,0.975,2.563,0,3.539c-0.578,0.577-1.371,0.813-2.124,0.706c0.017,0.117,0.025,0.235,0.025,0.355
				c0,0.668-0.26,1.297-0.733,1.77c-0.558,0.558-1.364,0.815-2.125,0.708c0.107,0.753-0.129,1.546-0.707,2.124
				c-0.579,0.577-1.37,0.813-2.124,0.706c0.017,0.117,0.025,0.235,0.025,0.355c0,0.668-0.26,1.297-0.733,1.77
				C17.356,27.796,16.728,28.057,16.06,28.057z"/>
		</g>
		<g>
			<path d="M11.34,28.999c-0.641,0-1.281-0.244-1.77-0.731l0,0c-0.975-0.976-0.975-2.563,0-3.539c0.945-0.945,2.594-0.945,3.539,0
				c0.976,0.976,0.976,2.563,0,3.539C12.622,28.755,11.981,28.999,11.34,28.999z M10.278,27.561c0.586,0.584,1.54,0.584,2.125,0
				c0.586-0.586,0.586-1.539,0-2.125c-0.568-0.569-1.558-0.569-2.125,0C9.692,26.021,9.692,26.975,10.278,27.561z"/>
		</g>
		<g>
			<path d="M8.509,26.169c-0.668,0-1.297-0.261-1.77-0.733l0,0c-0.473-0.473-0.733-1.102-0.733-1.77s0.26-1.297,0.733-1.769
				c0.945-0.945,2.594-0.945,3.539,0c0.473,0.472,0.733,1.101,0.733,1.769s-0.261,1.297-0.733,1.77
				C9.806,25.908,9.177,26.169,8.509,26.169z M7.446,24.729c0.568,0.568,1.557,0.568,2.125,0c0.284-0.284,0.44-0.661,0.44-1.063
				s-0.157-0.778-0.44-1.062c-0.568-0.569-1.558-0.568-2.125,0c-0.284,0.283-0.44,0.66-0.44,1.062S7.163,24.444,7.446,24.729z"/>
		</g>
		<g>
			<path d="M5.677,23.336c-0.641,0-1.281-0.244-1.77-0.731l0,0c-0.975-0.976-0.975-2.563,0-3.539c0.945-0.945,2.594-0.945,3.539,0
				c0.976,0.976,0.976,2.563,0,3.539C6.958,23.092,6.318,23.336,5.677,23.336z M4.615,21.897c0.586,0.584,1.54,0.584,2.125,0
				c0.586-0.586,0.586-1.539,0-2.125c-0.568-0.568-1.558-0.568-2.125,0C4.029,20.358,4.029,21.312,4.615,21.897z"/>
		</g>
		<g>
			<path d="M2.846,20.506c-0.668,0-1.296-0.261-1.769-0.733l0,0l0,0c-0.473-0.473-0.733-1.102-0.733-1.77s0.261-1.297,0.733-1.769
				c0.944-0.945,2.594-0.945,3.538,0c0.473,0.472,0.733,1.101,0.733,1.769s-0.261,1.297-0.733,1.77
				C4.143,20.245,3.514,20.506,2.846,20.506z M2.846,16.501c-0.401,0-0.778,0.156-1.062,0.44c-0.284,0.283-0.44,0.66-0.44,1.062
				s0.157,0.778,0.44,1.063l0,0c0.567,0.568,1.557,0.568,2.124,0c0.284-0.284,0.44-0.661,0.44-1.063s-0.157-0.778-0.44-1.062
				C3.624,16.657,3.247,16.501,2.846,16.501z"/>
		</g>
		<g>
			<path d="M25.498,15.672c-0.128,0-0.256-0.049-0.354-0.146c-0.195-0.195-0.195-0.512,0-0.707c2.927-2.928,2.927-7.691,0-10.619
				C23.726,2.781,21.84,2,19.835,2c-2.006,0-3.892,0.781-5.31,2.199L9.62,9.104c-0.398,0.398-0.539,0.958-0.375,1.498
				c0.163,0.539,0.59,0.927,1.143,1.037c0.493,0.099,1-0.055,1.357-0.41l4.905-4.906c0.195-0.195,0.512-0.195,0.707,0
				s0.195,0.512,0,0.707l-4.905,4.906c-0.594,0.594-1.436,0.852-2.261,0.684c-0.919-0.184-1.631-0.83-1.903-1.729
				S8.25,9.062,8.913,8.397l4.905-4.905C15.425,1.885,17.562,1,19.835,1c2.272,0,4.409,0.885,6.017,2.492
				c3.317,3.317,3.317,8.716,0,12.033C25.754,15.623,25.626,15.672,25.498,15.672z"/>
		</g>
		<g>
			<line style="fill:#FFFFFF;" x1="17.185" y1="22.189" x2="18.48" y2="20.854"/>
			<path d="M17.185,22.689c-0.125,0-0.251-0.047-0.348-0.142c-0.198-0.191-0.203-0.509-0.011-0.707l1.295-1.335
				c0.193-0.197,0.509-0.203,0.707-0.01c0.198,0.191,0.203,0.509,0.011,0.707l-1.295,1.335
				C17.446,22.639,17.315,22.689,17.185,22.689z"/>
		</g>
	</g>
</g>
<g id="Wedding_Car">
</g>
<g id="Wedding_music">
</g>
<g id="wedding_party">
</g>
<g id="Confetti_1">
</g>
<g id="Confetti_2">
</g>
</svg>
