<?xml version="1.0" encoding="iso-8859-1"?>
<!-- Generator: Adobe Illustrator 19.2.1, SVG Export Plug-In . SVG Version: 6.00 Build 0)  -->
<svg version="1.1" xmlns="http://www.w3.org/2000/svg" xmlns:xlink="http://www.w3.org/1999/xlink" x="0px" y="0px"
	 viewBox="0 0 30 30" style="enable-background:new 0 0 30 30;" xml:space="preserve">
<g id="Engagement_1">
</g>
<g id="Engagement_2">
</g>
<g id="Wedding_Ring">
</g>
<g id="Church">
</g>
<g id="Church_Bells">
</g>
<g id="Wedding_Altar_1">
</g>
<g id="Wedding_Altar_2">
</g>
<g id="Bow-Tie">
</g>
<g id="Wedding_Tiara">
</g>
<g id="Wedding_Bouquet">
</g>
<g id="Wedding_Decoration_1">
</g>
<g id="Wedding_Decoration_2">
</g>
<g id="Wedding_Way_Sign">
</g>
<g id="Wedding_Date">
</g>
<g id="Wedding_Invitation">
</g>
<g id="Wedding_Invitation_2">
</g>
<g id="Bride">
</g>
<g id="Groom">
</g>
<g id="Mariage_Couple">
</g>
<g id="Wedding_Planner_Book">
</g>
<g id="Wedding_Cake_1">
</g>
<g id="Wedding_Cake_2">
</g>
<g id="Wedding_Cake_3">
</g>
<g id="Cake_Slice">
</g>
<g id="Marriage_Settlement">
	<g>
		<g>
			<path d="M24.5,12.31c-0.276,0-0.5-0.224-0.5-0.5V3c0-1.103-0.897-2-2-2H3C2.724,1,2.5,0.776,2.5,0.5S2.724,0,3,0h18.93
				C23.654,0,25,1.346,25,3v8.81C25,12.086,24.776,12.31,24.5,12.31z"/>
		</g>
		<g>
			<path d="M24.5,26c-0.276,0-0.5-0.224-0.5-0.5v-8.66c0-0.276,0.224-0.5,0.5-0.5s0.5,0.224,0.5,0.5v8.66
				C25,25.776,24.776,26,24.5,26z"/>
		</g>
		<g>
			<path d="M27,30H8c-1.654,0-3-1.346-3-3V5H0.5C0.224,5,0,4.776,0,4.5V3.021C0,1.361,1.341,0.01,2.993,0c0.005,0,0.008,0,0.013,0
				c0.003-0.001,0.007-0.001,0.013,0C4.664,0.01,6,1.361,6,3.021V27c0,1.103,0.897,2,2,2s2-0.897,2-2v-1.5
				c0-0.276,0.224-0.5,0.5-0.5h19c0.276,0,0.5,0.224,0.5,0.5V27C30,28.654,28.654,30,27,30z M10.234,29h16.744
				C28.103,29,29,28.103,29,27v-1H11v1C11,27.768,10.71,28.469,10.234,29z M1,4h4V3.021C5,1.908,4.105,1.003,3.005,1
				C1.899,1.003,1,1.908,1,3.021V4z"/>
		</g>
		<g>
			<path d="M18.152,21.174c-0.13,0-0.258-0.051-0.354-0.146c-0.134-0.134-0.181-0.332-0.121-0.512l1.261-3.782
				c0.024-0.073,0.066-0.141,0.121-0.195l7.043-7.044c0.888-0.888,2.333-0.889,3.221,0c0.438,0.438,0.675,1.01,0.675,1.618
				s-0.237,1.181-0.667,1.61l-7.043,7.044c-0.055,0.055-0.122,0.097-0.195,0.121l-3.782,1.261
				C18.259,21.165,18.205,21.174,18.152,21.174z M19.85,17.162l-0.907,2.721l2.722-0.907l6.96-6.96l0,0
				c0.241-0.241,0.375-0.562,0.375-0.903c0-0.341-0.133-0.662-0.375-0.903c-0.507-0.506-1.317-0.506-1.814-0.008L19.85,17.162z
				 M21.935,19.413h0.01H21.935z"/>
		</g>
		<g>
			<path d="M21.935,19.913c-0.128,0-0.256-0.049-0.354-0.146l-2.521-2.521c-0.195-0.195-0.195-0.512,0-0.707s0.512-0.195,0.707,0
				l2.521,2.521c0.195,0.195,0.195,0.512,0,0.707C22.19,19.864,22.063,19.913,21.935,19.913z"/>
		</g>
		<g>
			<path d="M17.5,6h-6C11.224,6,11,5.776,11,5.5S11.224,5,11.5,5h6C17.776,5,18,5.224,18,5.5S17.776,6,17.5,6z"/>
		</g>
		<g>
			<path d="M20.5,10h-12C8.224,10,8,9.776,8,9.5S8.224,9,8.5,9h12C20.776,9,21,9.224,21,9.5S20.776,10,20.5,10z"/>
		</g>
		<g>
			<path d="M18.5,14h-10C8.224,14,8,13.776,8,13.5S8.224,13,8.5,13h10c0.276,0,0.5,0.224,0.5,0.5S18.776,14,18.5,14z"/>
		</g>
		<g>
			<path d="M16.5,17h-8C8.224,17,8,16.776,8,16.5S8.224,16,8.5,16h8c0.276,0,0.5,0.224,0.5,0.5S16.776,17,16.5,17z"/>
		</g>
	</g>
</g>
<g id="Glass_Decoration">
</g>
<g id="Cutlery_Decoration">
</g>
<g id="Celebration_Glasses">
</g>
<g id="Wedding_Photo">
</g>
<g id="Wedding_Present_1">
</g>
<g id="Wedding_Present_2">
</g>
<g id="Wedding_Bouquet_2">
</g>
<g id="Hands_with_rings">
</g>
<g id="Wedding_Car">
</g>
<g id="Wedding_music">
</g>
<g id="wedding_party">
</g>
<g id="Confetti_1">
</g>
<g id="Confetti_2">
</g>
</svg>
