<?xml version="1.0" encoding="iso-8859-1"?>
<!-- Generator: Adobe Illustrator 19.2.1, SVG Export Plug-In . SVG Version: 6.00 Build 0)  -->
<svg version="1.1" xmlns="http://www.w3.org/2000/svg" xmlns:xlink="http://www.w3.org/1999/xlink" x="0px" y="0px"
	 viewBox="0 0 30 30" style="enable-background:new 0 0 30 30;" xml:space="preserve">
<g id="Engagement_1">
</g>
<g id="Engagement_2">
</g>
<g id="Wedding_Ring">
</g>
<g id="Church">
</g>
<g id="Church_Bells">
</g>
<g id="Wedding_Altar_1">
</g>
<g id="Wedding_Altar_2">
</g>
<g id="Bow-Tie">
</g>
<g id="Wedding_Tiara">
</g>
<g id="Wedding_Bouquet">
</g>
<g id="Wedding_Decoration_1">
</g>
<g id="Wedding_Decoration_2">
</g>
<g id="Wedding_Way_Sign">
</g>
<g id="Wedding_Date">
</g>
<g id="Wedding_Invitation">
</g>
<g id="Wedding_Invitation_2">
</g>
<g id="Bride">
</g>
<g id="Groom">
</g>
<g id="Mariage_Couple">
</g>
<g id="Wedding_Planner_Book">
</g>
<g id="Wedding_Cake_1">
</g>
<g id="Wedding_Cake_2">
</g>
<g id="Wedding_Cake_3">
</g>
<g id="Cake_Slice">
</g>
<g id="Marriage_Settlement">
</g>
<g id="Glass_Decoration">
</g>
<g id="Cutlery_Decoration">
</g>
<g id="Celebration_Glasses">
</g>
<g id="Wedding_Photo">
</g>
<g id="Wedding_Present_1">
</g>
<g id="Wedding_Present_2">
</g>
<g id="Wedding_Bouquet_2">
	<g>
		<g>
			<path d="M14.5,15.5c-0.802,0-1.48-0.539-1.692-1.273c-1.019,0.138-1.96-0.711-1.96-1.748c0-0.336,0.102-0.664,0.289-0.946
				c-0.187-0.281-0.289-0.608-0.289-0.945c0-1.037,0.942-1.882,1.96-1.748c0.212-0.734,0.891-1.273,1.692-1.273
				s1.48,0.539,1.692,1.273c1.014-0.135,1.96,0.71,1.96,1.748c0,0.337-0.102,0.664-0.289,0.945c0.187,0.282,0.289,0.61,0.289,0.946
				c0,1.037-0.945,1.887-1.96,1.748C15.98,14.961,15.302,15.5,14.5,15.5z M13.284,13.016c0.097,0,0.193,0.028,0.277,0.084
				c0.166,0.11,0.251,0.309,0.215,0.506c-0.002,0.014-0.025,0.108-0.029,0.122C13.739,14.159,14.081,14.5,14.5,14.5
				s0.761-0.341,0.761-0.761c-0.004-0.014-0.034-0.12-0.037-0.134c-0.036-0.197,0.049-0.396,0.215-0.506
				c0.167-0.11,0.382-0.111,0.55-0.003c0.149,0.098,0.277,0.143,0.402,0.143c0.42,0,0.761-0.341,0.761-0.761
				c0-0.287-0.172-0.479-0.275-0.567c-0.111-0.095-0.174-0.233-0.174-0.38c0-0.146,0.064-0.284,0.175-0.379
				c0.103-0.088,0.274-0.278,0.274-0.565c0-0.42-0.341-0.761-0.761-0.761c-0.126,0-0.254,0.045-0.401,0.142
				c-0.167,0.109-0.384,0.11-0.55-0.001c-0.167-0.11-0.252-0.31-0.216-0.507c0.002-0.014,0.025-0.108,0.029-0.122
				c0.008-0.432-0.333-0.772-0.753-0.772s-0.761,0.341-0.761,0.761c0.004,0.014,0.034,0.12,0.037,0.134
				c0.036,0.197-0.049,0.396-0.216,0.507c-0.167,0.111-0.383,0.11-0.55,0.001c-0.147-0.097-0.274-0.142-0.401-0.142
				c-0.42,0-0.761,0.341-0.761,0.761c0,0.287,0.172,0.478,0.274,0.565c0.111,0.095,0.175,0.233,0.175,0.379
				c0,0.146-0.063,0.285-0.174,0.38c-0.103,0.089-0.275,0.28-0.275,0.567c0,0.42,0.341,0.761,0.761,0.761
				c0.125,0,0.253-0.045,0.402-0.143C13.094,13.043,13.189,13.016,13.284,13.016z"/>
		</g>
		<g>
			<path d="M20.174,11.718c-0.802,0-1.48-0.539-1.692-1.274c-1.016,0.14-1.959-0.711-1.959-1.748c0-0.341,0.1-0.665,0.286-0.945
				c-0.187-0.28-0.286-0.604-0.286-0.945c0-1.037,0.944-1.886,1.959-1.748c0.212-0.735,0.891-1.274,1.692-1.274
				s1.48,0.539,1.692,1.274c1.022-0.139,1.96,0.711,1.96,1.748c0,0.341-0.1,0.665-0.287,0.945c0.187,0.28,0.287,0.604,0.287,0.945
				c0,1.037-0.937,1.889-1.96,1.748C21.654,11.179,20.976,11.718,20.174,11.718z M18.958,9.232c0.096,0,0.192,0.027,0.276,0.083
				c0.167,0.11,0.252,0.31,0.216,0.507c-0.002,0.014-0.025,0.108-0.029,0.122c-0.008,0.432,0.333,0.773,0.753,0.773
				s0.761-0.342,0.761-0.762c-0.003-0.013-0.034-0.118-0.036-0.131c-0.037-0.197,0.047-0.397,0.214-0.509
				c0.167-0.11,0.384-0.112,0.551-0.002c0.148,0.097,0.275,0.142,0.402,0.142c0.419,0,0.761-0.341,0.761-0.761
				c0-0.287-0.172-0.478-0.275-0.566c-0.111-0.095-0.174-0.233-0.174-0.379s0.063-0.284,0.174-0.379
				c0.103-0.089,0.275-0.279,0.275-0.566c0-0.42-0.341-0.761-0.761-0.761c-0.126,0-0.254,0.045-0.402,0.142
				c-0.167,0.11-0.385,0.108-0.551-0.002c-0.167-0.11-0.251-0.311-0.215-0.508c0.002-0.014,0.025-0.106,0.029-0.12
				c0.008-0.432-0.333-0.773-0.753-0.773s-0.761,0.342-0.761,0.762c0.004,0.015,0.034,0.12,0.037,0.136
				c0.035,0.196-0.05,0.396-0.217,0.505c-0.167,0.111-0.382,0.11-0.55,0.001c-0.147-0.097-0.274-0.142-0.401-0.142
				c-0.419,0-0.761,0.341-0.761,0.761c0,0.287,0.172,0.478,0.275,0.566c0.111,0.095,0.174,0.233,0.174,0.379
				s-0.063,0.284-0.174,0.379c-0.103,0.089-0.275,0.279-0.275,0.566c0,0.42,0.341,0.761,0.761,0.761
				c0.126,0,0.254-0.045,0.401-0.142C18.767,9.26,18.862,9.232,18.958,9.232z"/>
		</g>
		<g>
			<path d="M8.826,11.718c-0.802,0-1.48-0.539-1.692-1.274c-1.021,0.14-1.96-0.711-1.96-1.748c0-0.341,0.1-0.665,0.287-0.945
				C5.273,7.47,5.174,7.146,5.174,6.805c0-1.037,0.94-1.886,1.96-1.748c0.212-0.735,0.891-1.274,1.692-1.274s1.48,0.539,1.692,1.274
				c1.017-0.139,1.959,0.711,1.959,1.748c0,0.341-0.1,0.665-0.286,0.945c0.187,0.28,0.286,0.604,0.286,0.945
				c0,1.037-0.942,1.889-1.959,1.748C10.307,11.179,9.628,11.718,8.826,11.718z M7.61,9.232c0.097,0,0.193,0.028,0.277,0.084
				c0.167,0.111,0.251,0.312,0.214,0.509C8.099,9.838,8.077,9.93,8.074,9.942c-0.008,0.434,0.333,0.775,0.752,0.775
				s0.761-0.342,0.761-0.762C9.583,9.942,9.553,9.836,9.55,9.822C9.514,9.625,9.599,9.426,9.766,9.315
				c0.167-0.111,0.383-0.11,0.55-0.001c0.147,0.097,0.274,0.142,0.401,0.142c0.419,0,0.761-0.341,0.761-0.761
				c0-0.287-0.172-0.478-0.275-0.566c-0.111-0.095-0.174-0.233-0.174-0.379s0.063-0.284,0.174-0.379
				c0.103-0.089,0.275-0.279,0.275-0.566c0-0.42-0.341-0.761-0.761-0.761c-0.126,0-0.254,0.045-0.401,0.142
				c-0.167,0.109-0.383,0.11-0.55-0.001C9.6,6.075,9.515,5.876,9.55,5.68c0.003-0.016,0.026-0.111,0.03-0.126
				c0.007-0.43-0.334-0.771-0.753-0.771S8.065,5.124,8.065,5.544C8.069,5.558,8.1,5.662,8.102,5.676
				c0.037,0.197-0.048,0.397-0.215,0.508c-0.166,0.11-0.384,0.112-0.551,0.002C7.188,6.089,7.061,6.044,6.935,6.044
				c-0.419,0-0.761,0.341-0.761,0.761c0,0.287,0.172,0.478,0.275,0.566C6.56,7.466,6.624,7.604,6.624,7.75S6.56,8.034,6.449,8.129
				C6.346,8.218,6.174,8.408,6.174,8.695c0,0.42,0.341,0.761,0.761,0.761c0.126,0,0.254-0.045,0.402-0.142
				C7.419,9.26,7.515,9.232,7.61,9.232z"/>
		</g>
		<g>
			<path d="M14.5,8.565c-0.276,0-0.5-0.224-0.5-0.5V0.5C14,0.224,14.224,0,14.5,0S15,0.224,15,0.5v7.565
				C15,8.342,14.776,8.565,14.5,8.565z"/>
		</g>
		<g>
			<path d="M15.761,9.195c-0.017,0-0.033-0.001-0.05-0.003c-0.275-0.027-0.475-0.272-0.448-0.547
				c0.026-0.265,0.671-6.504,2.666-8.499c0.195-0.195,0.512-0.195,0.707,0s0.195,0.512,0,0.707
				c-1.447,1.447-2.207,6.188-2.378,7.892C16.232,9.003,16.015,9.195,15.761,9.195z"/>
		</g>
		<g>
			<path d="M13.239,9.195c-0.254,0-0.471-0.192-0.497-0.45c-0.171-1.704-0.931-6.444-2.378-7.892c-0.195-0.195-0.195-0.512,0-0.707
				s0.512-0.195,0.707,0c1.995,1.995,2.64,8.234,2.666,8.499c0.027,0.274-0.173,0.52-0.448,0.547
				C13.272,9.194,13.255,9.195,13.239,9.195z"/>
		</g>
		<g>
			<circle cx="9.457" cy="8.065" r="0.63"/>
		</g>
		<g>
			<circle cx="14.5" cy="11.848" r="0.63"/>
		</g>
		<g>
			<circle cx="20.804" cy="8.065" r="0.63"/>
		</g>
		<g>
			<path d="M13.239,30c-0.255,0-0.473-0.194-0.497-0.453c-0.014-0.148-1.418-14.87-3.123-19.415
				C9.522,9.873,9.653,9.585,9.911,9.488c0.26-0.101,0.547,0.033,0.644,0.292c1.75,4.669,3.124,19.063,3.182,19.673
				c0.026,0.274-0.176,0.519-0.451,0.545C13.271,29.999,13.254,30,13.239,30z"/>
		</g>
		<g>
			<path d="M15.761,30c-0.016,0-0.031-0.001-0.047-0.002c-0.275-0.026-0.477-0.271-0.451-0.545
				c0.058-0.61,1.431-15.004,3.182-19.673c0.097-0.259,0.384-0.394,0.644-0.292c0.258,0.097,0.389,0.385,0.292,0.644
				c-1.705,4.545-3.109,19.267-3.123,19.415C16.234,29.806,16.016,30,15.761,30z"/>
		</g>
		<g>
			<path d="M14.5,30c-0.276,0-0.5-0.224-0.5-0.5V15c0-0.276,0.224-0.5,0.5-0.5S15,14.724,15,15v14.5C15,29.776,14.776,30,14.5,30z"
				/>
		</g>
	</g>
</g>
<g id="Hands_with_rings">
</g>
<g id="Wedding_Car">
</g>
<g id="Wedding_music">
</g>
<g id="wedding_party">
</g>
<g id="Confetti_1">
</g>
<g id="Confetti_2">
</g>
</svg>
