<?xml version="1.0" encoding="iso-8859-1"?>
<!-- Generator: Adobe Illustrator 19.2.1, SVG Export Plug-In . SVG Version: 6.00 Build 0)  -->
<svg version="1.1" xmlns="http://www.w3.org/2000/svg" xmlns:xlink="http://www.w3.org/1999/xlink" x="0px" y="0px"
	 viewBox="0 0 30 30" style="enable-background:new 0 0 30 30;" xml:space="preserve">
<g id="Engagement_1">
</g>
<g id="Engagement_2">
</g>
<g id="Wedding_Ring">
</g>
<g id="Church">
</g>
<g id="Church_Bells">
</g>
<g id="Wedding_Altar_1">
</g>
<g id="Wedding_Altar_2">
</g>
<g id="Bow-Tie">
</g>
<g id="Wedding_Tiara">
</g>
<g id="Wedding_Bouquet">
</g>
<g id="Wedding_Decoration_1">
</g>
<g id="Wedding_Decoration_2">
</g>
<g id="Wedding_Way_Sign">
</g>
<g id="Wedding_Date">
</g>
<g id="Wedding_Invitation">
</g>
<g id="Wedding_Invitation_2">
</g>
<g id="Bride">
</g>
<g id="Groom">
</g>
<g id="Mariage_Couple">
</g>
<g id="Wedding_Planner_Book">
</g>
<g id="Wedding_Cake_1">
</g>
<g id="Wedding_Cake_2">
</g>
<g id="Wedding_Cake_3">
</g>
<g id="Cake_Slice">
</g>
<g id="Marriage_Settlement">
</g>
<g id="Glass_Decoration">
</g>
<g id="Cutlery_Decoration">
</g>
<g id="Celebration_Glasses">
</g>
<g id="Wedding_Photo">
</g>
<g id="Wedding_Present_1">
</g>
<g id="Wedding_Present_2">
</g>
<g id="Wedding_Bouquet_2">
</g>
<g id="Hands_with_rings">
</g>
<g id="Wedding_Car">
</g>
<g id="Wedding_music">
</g>
<g id="wedding_party">
	<g>
		<g>
			<path d="M29.5,30H19.413c-0.231,0-0.433-0.159-0.486-0.385c-0.054-0.225,0.056-0.458,0.262-0.563
				c0.195-0.098,4.768-2.474,4.768-8.379c0-0.227,0.152-0.425,0.372-0.483c0.216-0.055,0.449,0.038,0.563,0.235l5.044,8.826
				c0.088,0.154,0.087,0.345-0.002,0.499C29.843,29.905,29.679,30,29.5,30z M21.048,29h7.591l-3.8-6.649
				C24.347,25.771,22.415,27.895,21.048,29z"/>
		</g>
		<g>
			<path d="M19.413,30c-0.276,0-0.5-0.224-0.5-0.5c0-7.198,5.313-9.274,5.367-9.294c0.255-0.101,0.545,0.032,0.643,0.291
				c0.098,0.258-0.032,0.546-0.29,0.645c-0.192,0.073-4.72,1.876-4.72,8.358C19.913,29.776,19.689,30,19.413,30z"/>
		</g>
		<g>
			<path d="M16.892,27.479h-1.261c-0.276,0-0.5-0.224-0.5-0.5s0.224-0.5,0.5-0.5h1.261c0.276,0,0.5,0.224,0.5,0.5
				S17.168,27.479,16.892,27.479z"/>
		</g>
		<g>
			<path d="M21.935,19.913c-0.276,0-0.5-0.224-0.5-0.5v-1.261c0-0.276,0.224-0.5,0.5-0.5s0.5,0.224,0.5,0.5v1.261
				C22.435,19.689,22.211,19.913,21.935,19.913z"/>
		</g>
		<g>
			<path d="M19.413,23.695c-0.128,0-0.256-0.049-0.354-0.146l-1.261-1.261c-0.195-0.195-0.195-0.512,0-0.707s0.512-0.195,0.707,0
				l1.261,1.261c0.195,0.195,0.195,0.512,0,0.707C19.669,23.646,19.541,23.695,19.413,23.695z"/>
		</g>
		<g>
			<circle cx="19.413" cy="19.413" r="0.63"/>
		</g>
		<g>
			<circle cx="16.891" cy="24.457" r="0.63"/>
		</g>
		<g>
			<path d="M6.5,4C6.224,4,6,3.776,6,3.5v-2C6,1.224,6.224,1,6.5,1S7,1.224,7,1.5v2C7,3.776,6.776,4,6.5,4z"/>
		</g>
		<g>
			<path d="M17.5,4C17.224,4,17,3.776,17,3.5v-2C17,1.224,17.224,1,17.5,1S18,1.224,18,1.5v2C18,3.776,17.776,4,17.5,4z"/>
		</g>
		<g>
			<path d="M15,3H9C8.724,3,8.5,2.776,8.5,2.5S8.724,2,9,2h6c0.276,0,0.5,0.224,0.5,0.5S15.276,3,15,3z"/>
		</g>
		<g>
			<path d="M23.5,7h-23C0.224,7,0,6.776,0,6.5S0.224,6,0.5,6h23C23.776,6,24,6.224,24,6.5S23.776,7,23.5,7z"/>
		</g>
		<g>
			<path d="M15,25H4.357C1.914,25,0,23.149,0,20.786V6.643C0,4.169,2.036,2,4.357,2h15.429C22.07,2,24,4.126,24,6.643V16
				c0,0.276-0.224,0.5-0.5,0.5S23,16.276,23,16V6.643C23,4.884,21.709,3,19.786,3H4.357C2.569,3,1,4.702,1,6.643v14.144
				C1,22.588,2.475,24,4.357,24H15c0.276,0,0.5,0.224,0.5,0.5S15.276,25,15,25z"/>
		</g>
		<g>
			<path d="M19,14h-2.5c-0.276,0-0.5-0.224-0.5-0.5V11c0-0.276,0.224-0.5,0.5-0.5S17,10.724,17,11v2h2c0.276,0,0.5,0.224,0.5,0.5
				S19.276,14,19,14z"/>
		</g>
		<g>
			<path d="M19,14c-0.276,0-0.5-0.224-0.5-0.5v-1.042L17.756,11.5H16.5c-0.276,0-0.5-0.224-0.5-0.5s0.224-0.5,0.5-0.5H18
				c0.154,0,0.3,0.071,0.395,0.193l1,1.286c0.068,0.088,0.105,0.195,0.105,0.307V13.5C19.5,13.776,19.276,14,19,14z"/>
		</g>
		<g>
			<path d="M8.5,20c-2.402,0-4.357-1.955-4.357-4.357s1.955-4.356,4.357-4.356c0.276,0,0.5,0.224,0.5,0.5s-0.224,0.5-0.5,0.5
				c-1.852,0-3.357,1.506-3.357,3.356C5.143,17.494,6.648,19,8.5,19s3.357-1.506,3.357-3.357c0-0.276,0.224-0.5,0.5-0.5
				s0.5,0.224,0.5,0.5C12.857,18.045,10.902,20,8.5,20z"/>
		</g>
		<g>
			<path d="M13.643,20c-0.276,0-0.5-0.224-0.5-0.5s0.224-0.5,0.5-0.5C15.494,19,17,17.494,17,15.643
				c0-1.851-1.506-3.356-3.357-3.356c-1.851,0-3.356,1.506-3.356,3.356c0,0.276-0.224,0.5-0.5,0.5s-0.5-0.224-0.5-0.5
				c0-2.402,1.954-4.356,4.356-4.356S18,13.24,18,15.643S16.045,20,13.643,20z"/>
		</g>
	</g>
</g>
<g id="Confetti_1">
</g>
<g id="Confetti_2">
</g>
</svg>
