<?xml version="1.0" encoding="iso-8859-1"?>
<!-- Generator: Adobe Illustrator 19.2.1, SVG Export Plug-In . SVG Version: 6.00 Build 0)  -->
<svg version="1.1" xmlns="http://www.w3.org/2000/svg" xmlns:xlink="http://www.w3.org/1999/xlink" x="0px" y="0px"
	 viewBox="0 0 30 30" style="enable-background:new 0 0 30 30;" xml:space="preserve">
<g id="Engagement_1">
</g>
<g id="Engagement_2">
</g>
<g id="Wedding_Ring">
</g>
<g id="Church">
</g>
<g id="Church_Bells">
</g>
<g id="Wedding_Altar_1">
</g>
<g id="Wedding_Altar_2">
</g>
<g id="Bow-Tie">
</g>
<g id="Wedding_Tiara">
</g>
<g id="Wedding_Bouquet">
</g>
<g id="Wedding_Decoration_1">
	<g>
		<g>
			<path d="M8.065,15.804c-0.052,0-0.105-0.008-0.158-0.025C3.178,14.208,0,9.376,0,5.848c0-0.276,0.224-0.5,0.5-0.5
				S1,5.571,1,5.848c0,3.114,2.966,7.569,7.223,8.982c0.262,0.087,0.404,0.37,0.317,0.632C8.47,15.671,8.275,15.804,8.065,15.804z"
				/>
		</g>
		<g>
			<path d="M21.935,15.804c-0.209,0-0.405-0.133-0.475-0.342c-0.087-0.262,0.055-0.545,0.317-0.632C26.034,13.417,29,8.962,29,5.848
				c0-0.276,0.224-0.5,0.5-0.5s0.5,0.224,0.5,0.5c0,3.528-3.178,8.361-7.908,9.931C22.04,15.796,21.987,15.804,21.935,15.804z"/>
		</g>
		<g>
			<path d="M15,13.913c-0.971,0-1.761-0.79-1.761-1.761c0-0.971,0.79-1.761,1.761-1.761s1.761,0.79,1.761,1.761
				C16.761,13.123,15.971,13.913,15,13.913z M15,11.391c-0.419,0-0.761,0.341-0.761,0.761c0,0.419,0.341,0.761,0.761,0.761
				s0.761-0.341,0.761-0.761C15.761,11.732,15.419,11.391,15,11.391z"/>
		</g>
		<g>
			<path d="M10.866,22.106c-0.049,0-0.099-0.007-0.148-0.022C4.407,20.127,0,13.97,0,7.109V5c0-0.276,0.224-0.5,0.5-0.5S1,4.724,1,5
				c0,3.117,6.087,6.271,12.772,6.619c0.274,0.015,0.485,0.247,0.474,0.521c-0.001,0.028-0.006,0.064-0.013,0.096
				c-0.052,0.308-0.429,0.497-0.702,0.372C8.554,12.306,3.189,10.334,1.008,7.594c0.201,6.23,4.259,11.753,10.006,13.535
				c0.264,0.082,0.412,0.362,0.33,0.625C11.277,21.969,11.08,22.106,10.866,22.106z"/>
		</g>
		<g>
			<path d="M19.164,22.099c-0.213,0-0.41-0.137-0.477-0.351c-0.083-0.263,0.064-0.544,0.328-0.626
				c5.73-1.791,9.777-7.312,9.977-13.529c-2.181,2.739-7.545,4.711-12.521,5.014c-0.275,0.126-0.653-0.064-0.704-0.374
				c-0.007-0.032-0.012-0.068-0.013-0.095c-0.011-0.273,0.2-0.505,0.474-0.52C22.912,11.27,29,8.115,29,5c0-0.276,0.224-0.5,0.5-0.5
				S30,4.724,30,5v2.109c0,6.846-4.395,13-10.687,14.967C19.264,22.091,19.213,22.099,19.164,22.099z M16.254,12.118h0.01H16.254z"
				/>
		</g>
		<g>
			<path d="M15.013,24c-0.613,0-1.09-0.357-1.512-0.671c-0.215-0.161-0.418-0.313-0.602-0.389c-0.199-0.083-0.459-0.122-0.735-0.164
				c-0.512-0.078-1.092-0.165-1.508-0.581c-0.416-0.416-0.503-0.996-0.581-1.508c-0.042-0.276-0.081-0.537-0.164-0.735
				c-0.076-0.184-0.228-0.386-0.388-0.601c-0.314-0.421-0.671-0.899-0.671-1.512s0.356-1.09,0.671-1.512
				c0.161-0.215,0.312-0.418,0.388-0.602c0.083-0.199,0.122-0.459,0.164-0.735c0.078-0.512,0.166-1.093,0.582-1.508
				c0.416-0.416,0.996-0.503,1.508-0.581c0.276-0.042,0.537-0.081,0.735-0.164c0.184-0.076,0.388-0.229,0.604-0.39l0.37,0.348
				l0.228,0.454c-0.255,0.191-0.52,0.388-0.819,0.512c-0.312,0.129-0.646,0.18-0.968,0.229c-0.395,0.06-0.767,0.116-0.951,0.299
				c-0.184,0.184-0.24,0.557-0.3,0.951c-0.049,0.323-0.1,0.657-0.229,0.968c-0.124,0.299-0.321,0.563-0.511,0.817
				c-0.243,0.326-0.473,0.633-0.473,0.914c0,0.28,0.229,0.588,0.473,0.914c0.19,0.254,0.387,0.518,0.511,0.816
				c0.129,0.312,0.18,0.646,0.229,0.969c0.06,0.395,0.116,0.768,0.299,0.951c0.184,0.183,0.556,0.24,0.951,0.299
				c0.323,0.049,0.657,0.1,0.969,0.229c0.299,0.124,0.563,0.321,0.817,0.511C14.425,22.771,14.732,23,15.013,23
				s0.588-0.229,0.913-0.473c0.254-0.19,0.518-0.387,0.816-0.511c0.312-0.129,0.646-0.18,0.969-0.229
				c0.395-0.06,0.767-0.116,0.951-0.299s0.24-0.556,0.299-0.95c0.049-0.323,0.1-0.658,0.229-0.97
				c0.124-0.298,0.321-0.562,0.511-0.816c0.243-0.326,0.473-0.633,0.473-0.914c0-0.281-0.229-0.588-0.473-0.914
				c-0.19-0.254-0.387-0.518-0.511-0.817c-0.129-0.312-0.18-0.646-0.229-0.969c-0.06-0.395-0.116-0.767-0.299-0.951
				c-0.183-0.183-0.556-0.24-0.951-0.299c-0.323-0.049-0.657-0.1-0.969-0.229c-0.299-0.124-0.562-0.32-0.817-0.51l-0.088-0.066
				c-0.222-0.164-0.269-0.477-0.104-0.699c0.164-0.222,0.477-0.27,0.699-0.104l0.091,0.068c0.215,0.161,0.419,0.312,0.603,0.388
				c0.198,0.083,0.459,0.122,0.735,0.164c0.512,0.078,1.093,0.165,1.508,0.581c0.416,0.416,0.504,0.996,0.581,1.508
				c0.042,0.276,0.082,0.537,0.164,0.735c0.076,0.184,0.228,0.387,0.388,0.602c0.315,0.421,0.671,0.899,0.671,1.512
				s-0.357,1.09-0.671,1.512c-0.161,0.215-0.312,0.417-0.388,0.602c-0.083,0.199-0.122,0.459-0.164,0.735
				c-0.077,0.512-0.165,1.092-0.581,1.508c-0.416,0.416-0.996,0.504-1.508,0.581c-0.276,0.042-0.537,0.081-0.735,0.164
				c-0.184,0.076-0.386,0.228-0.601,0.388C16.103,23.643,15.625,24,15.013,24z"/>
		</g>
		<g>
			<path d="M14.992,20.246c-0.101,0-0.203-0.031-0.289-0.092c-0.194-0.137-0.365-0.234-0.539-0.307
				c-0.176-0.073-0.367-0.126-0.603-0.169c-0.206-0.037-0.367-0.198-0.403-0.404c-0.042-0.234-0.095-0.426-0.168-0.601
				c-0.093-0.225-0.217-0.412-0.303-0.533c-0.122-0.173-0.121-0.405,0.001-0.577c0.091-0.127,0.222-0.324,0.318-0.556
				c0.073-0.176,0.126-0.367,0.168-0.601c0.037-0.206,0.198-0.367,0.403-0.404c0.149-0.027,0.375-0.074,0.603-0.168
				c0.226-0.093,0.417-0.22,0.541-0.308c0.173-0.122,0.404-0.121,0.577,0c0.123,0.087,0.312,0.213,0.54,0.308
				c0.176,0.073,0.367,0.126,0.601,0.168c0.206,0.037,0.368,0.198,0.404,0.404c0.042,0.234,0.095,0.425,0.168,0.602
				c0.071,0.171,0.167,0.34,0.303,0.533c0.122,0.173,0.121,0.405-0.002,0.578c-0.09,0.126-0.221,0.322-0.318,0.556
				c-0.072,0.175-0.126,0.366-0.167,0.599c-0.037,0.206-0.198,0.367-0.403,0.404c-0.236,0.042-0.427,0.096-0.601,0.168
				c-0.175,0.072-0.347,0.17-0.541,0.307C15.194,20.215,15.093,20.246,14.992,20.246z M14.071,18.766
				c0.17,0.044,0.326,0.096,0.476,0.158c0.15,0.062,0.296,0.135,0.445,0.225c0.149-0.089,0.296-0.163,0.446-0.226
				c0.149-0.062,0.305-0.114,0.475-0.157c0.043-0.169,0.095-0.326,0.156-0.474c0.073-0.177,0.157-0.333,0.237-0.466
				c-0.087-0.146-0.159-0.288-0.22-0.435c-0.063-0.151-0.114-0.308-0.158-0.477c-0.169-0.043-0.324-0.095-0.474-0.157
				c-0.15-0.062-0.296-0.136-0.447-0.226c-0.128,0.077-0.277,0.156-0.444,0.226c-0.169,0.07-0.332,0.12-0.477,0.157
				c-0.043,0.169-0.095,0.324-0.157,0.475c-0.073,0.175-0.156,0.332-0.237,0.465c0.087,0.146,0.159,0.289,0.22,0.435
				C13.976,18.44,14.027,18.596,14.071,18.766z"/>
		</g>
	</g>
</g>
<g id="Wedding_Decoration_2">
</g>
<g id="Wedding_Way_Sign">
</g>
<g id="Wedding_Date">
</g>
<g id="Wedding_Invitation">
</g>
<g id="Wedding_Invitation_2">
</g>
<g id="Bride">
</g>
<g id="Groom">
</g>
<g id="Mariage_Couple">
</g>
<g id="Wedding_Planner_Book">
</g>
<g id="Wedding_Cake_1">
</g>
<g id="Wedding_Cake_2">
</g>
<g id="Wedding_Cake_3">
</g>
<g id="Cake_Slice">
</g>
<g id="Marriage_Settlement">
</g>
<g id="Glass_Decoration">
</g>
<g id="Cutlery_Decoration">
</g>
<g id="Celebration_Glasses">
</g>
<g id="Wedding_Photo">
</g>
<g id="Wedding_Present_1">
</g>
<g id="Wedding_Present_2">
</g>
<g id="Wedding_Bouquet_2">
</g>
<g id="Hands_with_rings">
</g>
<g id="Wedding_Car">
</g>
<g id="Wedding_music">
</g>
<g id="wedding_party">
</g>
<g id="Confetti_1">
</g>
<g id="Confetti_2">
</g>
</svg>
