<?xml version="1.0" encoding="iso-8859-1"?>
<!-- Generator: Adobe Illustrator 19.2.1, SVG Export Plug-In . SVG Version: 6.00 Build 0)  -->
<svg version="1.1" xmlns="http://www.w3.org/2000/svg" xmlns:xlink="http://www.w3.org/1999/xlink" x="0px" y="0px"
	 viewBox="0 0 30 30" style="enable-background:new 0 0 30 30;" xml:space="preserve">
<g id="Engagement_1">
</g>
<g id="Engagement_2">
</g>
<g id="Wedding_Ring">
</g>
<g id="Church">
</g>
<g id="Church_Bells">
</g>
<g id="Wedding_Altar_1">
</g>
<g id="Wedding_Altar_2">
</g>
<g id="Bow-Tie">
</g>
<g id="Wedding_Tiara">
</g>
<g id="Wedding_Bouquet">
</g>
<g id="Wedding_Decoration_1">
</g>
<g id="Wedding_Decoration_2">
</g>
<g id="Wedding_Way_Sign">
</g>
<g id="Wedding_Date">
</g>
<g id="Wedding_Invitation">
</g>
<g id="Wedding_Invitation_2">
</g>
<g id="Bride">
</g>
<g id="Groom">
</g>
<g id="Mariage_Couple">
</g>
<g id="Wedding_Planner_Book">
</g>
<g id="Wedding_Cake_1">
</g>
<g id="Wedding_Cake_2">
</g>
<g id="Wedding_Cake_3">
</g>
<g id="Cake_Slice">
</g>
<g id="Marriage_Settlement">
</g>
<g id="Glass_Decoration">
</g>
<g id="Cutlery_Decoration">
</g>
<g id="Celebration_Glasses">
</g>
<g id="Wedding_Photo">
</g>
<g id="Wedding_Present_1">
</g>
<g id="Wedding_Present_2">
	<g>
		<g>
			<path d="M21.93,10.956c-0.988,0-1.761-1.05-1.761-2.39s0.773-2.39,1.761-2.39c0.987,0,1.761,1.05,1.761,2.39
				S22.917,10.956,21.93,10.956z M21.93,7.177c-0.359,0-0.761,0.595-0.761,1.39s0.402,1.39,0.761,1.39
				c0.359,0,0.761-0.595,0.761-1.39S22.289,7.177,21.93,7.177z"/>
		</g>
		<g>
			<path d="M25.714,12.213c-0.224,0-0.449-0.037-0.664-0.114l-2.692-1.496c-0.241-0.135-0.328-0.439-0.193-0.681
				c0.135-0.241,0.438-0.327,0.68-0.192l2.617,1.462c0.287,0.095,0.644-0.014,0.836-0.181c0.099-0.085,0.209-0.229,0.17-0.423
				l-0.565-1.69c-0.051-0.239-0.051-0.421-0.016-0.6l0.597-1.816c0.023-0.136-0.086-0.279-0.186-0.364
				c-0.192-0.167-0.548-0.278-0.912-0.146l-2.539,1.434c-0.239,0.133-0.545,0.05-0.681-0.191s-0.049-0.546,0.191-0.682l2.616-1.468
				c0.729-0.267,1.476-0.138,1.979,0.297c0.412,0.356,0.598,0.871,0.497,1.377l-0.597,1.814c0.001-0.011,0.005,0.041,0.016,0.092
				l0.565,1.688c0.117,0.564-0.069,1.079-0.481,1.436C26.615,12.059,26.169,12.213,25.714,12.213z"/>
		</g>
		<g>
			<path d="M18.129,12.203c-0.46,0-0.889-0.153-1.215-0.436c-0.412-0.356-0.598-0.871-0.497-1.377l0.597-1.814
				c-0.001,0.014-0.005-0.039-0.016-0.09l-0.565-1.69c-0.117-0.564,0.069-1.079,0.481-1.436c0.502-0.435,1.249-0.565,1.902-0.331
				l2.692,1.495c0.241,0.135,0.328,0.439,0.193,0.681c-0.135,0.239-0.44,0.325-0.68,0.192l-2.617-1.461
				c-0.288-0.095-0.644,0.014-0.836,0.181c-0.099,0.085-0.209,0.229-0.17,0.423l0.565,1.69c0.052,0.238,0.052,0.42,0.016,0.601
				l-0.597,1.815c-0.023,0.136,0.086,0.279,0.186,0.364c0.192,0.165,0.547,0.276,0.912,0.146l2.531-1.429
				c0.24-0.137,0.545-0.05,0.681,0.19c0.135,0.241,0.049,0.546-0.191,0.681l-2.608,1.464C18.637,12.158,18.378,12.203,18.129,12.203
				z"/>
		</g>
		<g>
			<path d="M19.5,26c-0.276,0-0.5-0.224-0.5-0.5V11.15c0-0.276,0.224-0.5,0.5-0.5s0.5,0.224,0.5,0.5V25.5
				C20,25.776,19.776,26,19.5,26z"/>
		</g>
		<g>
			<path d="M24.5,26c-0.276,0-0.5-0.224-0.5-0.5V11.23c0-0.276,0.224-0.5,0.5-0.5s0.5,0.224,0.5,0.5V25.5
				C25,25.776,24.776,26,24.5,26z"/>
		</g>
		<g>
			<path d="M23.44,7h-3c-0.276,0-0.5-0.224-0.5-0.5S20.164,6,20.44,6h3c0.276,0,0.5,0.224,0.5,0.5S23.716,7,23.44,7z"/>
		</g>
		<g>
			<path d="M27.5,26h-25C1.122,26,0,24.879,0,23.5v-15C0,7.121,1.122,6,2.5,6h14.39c0.276,0,0.5,0.224,0.5,0.5S17.167,7,16.89,7H2.5
				C1.673,7,1,7.673,1,8.5v15C1,24.327,1.673,25,2.5,25h25c0.827,0,1.5-0.673,1.5-1.5v-15C29,7.673,28.327,7,27.5,7h-0.52
				c-0.276,0-0.5-0.224-0.5-0.5S26.704,6,26.98,6h0.52C28.878,6,30,7.121,30,8.5v15C30,24.879,28.878,26,27.5,26z"/>
		</g>
		<g>
			<path d="M26.42,9.36c-0.146,0-0.292-0.064-0.391-0.188c-0.173-0.216-0.138-0.53,0.078-0.703l2.36-1.891
				c0.216-0.171,0.53-0.137,0.703,0.078c0.173,0.216,0.138,0.53-0.078,0.703l-2.36,1.891C26.64,9.324,26.53,9.36,26.42,9.36z"/>
		</g>
		<g>
			<path d="M15,17.37c-0.999,0-1.998-0.327-2.813-0.979L0.908,7.36C0.692,7.188,0.657,6.873,0.83,6.657
				c0.173-0.214,0.487-0.249,0.703-0.078l11.28,9.03c1.268,1.016,3.107,1.016,4.375,0l2-1.6c0.217-0.172,0.53-0.137,0.703,0.078
				c0.172,0.216,0.137,0.53-0.078,0.703l-2,1.6C16.998,17.043,15.999,17.37,15,17.37z"/>
		</g>
		<g>
			<path d="M28.779,25.53c-0.109,0-0.22-0.036-0.312-0.11l-4.28-3.431c-0.216-0.172-0.25-0.487-0.078-0.702
				c0.173-0.215,0.488-0.25,0.703-0.077l4.28,3.431c0.216,0.172,0.25,0.487,0.078,0.702C29.071,25.466,28.926,25.53,28.779,25.53z"
				/>
		</g>
		<g>
			<path d="M1.221,25.53c-0.147,0-0.292-0.064-0.391-0.188c-0.173-0.216-0.138-0.53,0.078-0.703l11.28-9.03
				c0.216-0.172,0.531-0.137,0.703,0.078c0.173,0.216,0.138,0.53-0.078,0.703l-11.28,9.03C1.44,25.494,1.33,25.53,1.221,25.53z"/>
		</g>
		<g>
			<path d="M19.5,18.1c-0.109,0-0.22-0.036-0.312-0.109l-2-1.6c-0.215-0.173-0.25-0.487-0.078-0.703
				c0.173-0.214,0.487-0.249,0.703-0.078l2,1.6c0.215,0.173,0.25,0.487,0.078,0.703C19.792,18.035,19.646,18.1,19.5,18.1z"/>
		</g>
	</g>
</g>
<g id="Wedding_Bouquet_2">
</g>
<g id="Hands_with_rings">
</g>
<g id="Wedding_Car">
</g>
<g id="Wedding_music">
</g>
<g id="wedding_party">
</g>
<g id="Confetti_1">
</g>
<g id="Confetti_2">
</g>
</svg>
