<?xml version="1.0" encoding="iso-8859-1"?>
<!-- Generator: Adobe Illustrator 19.2.1, SVG Export Plug-In . SVG Version: 6.00 Build 0)  -->
<svg version="1.1" xmlns="http://www.w3.org/2000/svg" xmlns:xlink="http://www.w3.org/1999/xlink" x="0px" y="0px"
	 viewBox="0 0 30 30" style="enable-background:new 0 0 30 30;" xml:space="preserve">
<g id="Engagement_1">
</g>
<g id="Engagement_2">
</g>
<g id="Wedding_Ring">
</g>
<g id="Church">
</g>
<g id="Church_Bells">
</g>
<g id="Wedding_Altar_1">
</g>
<g id="Wedding_Altar_2">
</g>
<g id="Bow-Tie">
</g>
<g id="Wedding_Tiara">
</g>
<g id="Wedding_Bouquet">
</g>
<g id="Wedding_Decoration_1">
</g>
<g id="Wedding_Decoration_2">
</g>
<g id="Wedding_Way_Sign">
</g>
<g id="Wedding_Date">
</g>
<g id="Wedding_Invitation">
</g>
<g id="Wedding_Invitation_2">
</g>
<g id="Bride">
</g>
<g id="Groom">
</g>
<g id="Mariage_Couple">
</g>
<g id="Wedding_Planner_Book">
	<g>
		<g>
			<path d="M21.305,30H6.174C4.453,30,3,28.616,3,26.978V4.371c0-0.966,0.545-1.93,1.422-2.514l2.066-1.352
				C6.969,0.185,7.593,0,8.198,0h15.628C25.547,0,27,1.384,27,3.022v21.435c0,1.575-1.313,2.916-2.906,3.016
				c-0.042,0.032-0.087,0.056-0.133,0.074C23.75,29.016,22.717,30,21.305,30z M4,7v19.978C4,28.055,5.016,29,6.174,29h15.131
				C22.556,29,23,27.911,23,26.978V5.543C23,4.476,22.478,4,21.305,4H5.165C4,4,4,4.389,4,4.535V7z M5.165,3h16.14
				C23.018,3,24,3.927,24,5.543v20.932c1.094-0.051,2-0.955,2-2.019V3.022C26,1.945,24.984,1,23.826,1H8.198
				C7.785,1,7.362,1.124,7.039,1.339L4.973,2.691C4.821,2.792,4.684,2.909,4.563,3.038C4.743,3.013,4.943,3,5.165,3z"/>
		</g>
		<g>
			<path d="M10.5,24.5C8.019,24.5,6,22.481,6,20s2.019-4.5,4.5-4.5c0.276,0,0.5,0.224,0.5,0.5s-0.224,0.5-0.5,0.5
				C8.57,16.5,7,18.07,7,20s1.57,3.5,3.5,3.5S14,21.93,14,20c0-0.276,0.224-0.5,0.5-0.5S15,19.724,15,20
				C15,22.481,12.981,24.5,10.5,24.5z"/>
		</g>
		<g>
			<path d="M16.5,24c-0.276,0-0.5-0.224-0.5-0.5s0.224-0.5,0.5-0.5c1.93,0,3.5-1.57,3.5-3.5S18.43,16,16.5,16S13,17.57,13,19.5
				c0,0.276-0.224,0.5-0.5,0.5S12,19.776,12,19.5c0-2.481,2.019-4.5,4.5-4.5s4.5,2.019,4.5,4.5S18.981,24,16.5,24z"/>
		</g>
		<g>
			<path d="M13.5,14.109c-0.141,0-0.275-0.06-0.37-0.164c-0.065-0.072-1.6-1.763-2.103-2.378c-0.345-0.421-0.527-0.909-0.527-1.411
				c0-1.129,0.858-2.047,1.913-2.047c0.395,0,0.771,0.128,1.087,0.361c0.315-0.233,0.692-0.361,1.087-0.361
				c1.055,0,1.913,0.918,1.913,2.047c0,0.501-0.183,0.989-0.527,1.411c-0.503,0.615-2.037,2.306-2.103,2.378
				C13.775,14.049,13.641,14.109,13.5,14.109z M12.413,9.109c-0.504,0-0.913,0.47-0.913,1.047c0,0.272,0.102,0.533,0.301,0.778
				c0.339,0.414,1.201,1.376,1.699,1.929c0.498-0.553,1.36-1.515,1.699-1.929c0.199-0.245,0.301-0.506,0.301-0.778
				c0-0.578-0.409-1.047-0.913-1.047c-0.264,0-0.515,0.131-0.688,0.361c-0.189,0.25-0.607,0.25-0.797,0
				C12.928,9.24,12.677,9.109,12.413,9.109z"/>
		</g>
	</g>
</g>
<g id="Wedding_Cake_1">
</g>
<g id="Wedding_Cake_2">
</g>
<g id="Wedding_Cake_3">
</g>
<g id="Cake_Slice">
</g>
<g id="Marriage_Settlement">
</g>
<g id="Glass_Decoration">
</g>
<g id="Cutlery_Decoration">
</g>
<g id="Celebration_Glasses">
</g>
<g id="Wedding_Photo">
</g>
<g id="Wedding_Present_1">
</g>
<g id="Wedding_Present_2">
</g>
<g id="Wedding_Bouquet_2">
</g>
<g id="Hands_with_rings">
</g>
<g id="Wedding_Car">
</g>
<g id="Wedding_music">
</g>
<g id="wedding_party">
</g>
<g id="Confetti_1">
</g>
<g id="Confetti_2">
</g>
</svg>
