<?xml version="1.0" encoding="iso-8859-1"?>
<!-- Generator: Adobe Illustrator 19.2.1, SVG Export Plug-In . SVG Version: 6.00 Build 0)  -->
<svg version="1.1" xmlns="http://www.w3.org/2000/svg" xmlns:xlink="http://www.w3.org/1999/xlink" x="0px" y="0px"
	 viewBox="0 0 30 30" style="enable-background:new 0 0 30 30;" xml:space="preserve">
<g id="Engagement_1">
</g>
<g id="Engagement_2">
</g>
<g id="Wedding_Ring">
</g>
<g id="Church">
</g>
<g id="Church_Bells">
</g>
<g id="Wedding_Altar_1">
</g>
<g id="Wedding_Altar_2">
</g>
<g id="Bow-Tie">
</g>
<g id="Wedding_Tiara">
</g>
<g id="Wedding_Bouquet">
</g>
<g id="Wedding_Decoration_1">
</g>
<g id="Wedding_Decoration_2">
</g>
<g id="Wedding_Way_Sign">
</g>
<g id="Wedding_Date">
</g>
<g id="Wedding_Invitation">
	<g>
		<g>
			<path d="M0.833,29.59c-0.155,0-0.308-0.072-0.405-0.207c-0.162-0.224-0.112-0.536,0.111-0.698l12.684-9.195
				c1.063-0.772,2.491-0.773,3.554,0l12.684,9.195c0.224,0.162,0.273,0.475,0.111,0.698c-0.163,0.223-0.475,0.273-0.698,0.111
				L16.19,20.3c-0.712-0.518-1.667-0.518-2.379,0L1.126,29.495C1.038,29.56,0.935,29.59,0.833,29.59z"/>
		</g>
		<g>
			<path d="M16.688,20.543c-0.155,0-0.308-0.072-0.406-0.207c-0.162-0.224-0.112-0.536,0.112-0.698l12.756-9.232
				c0.224-0.161,0.536-0.112,0.698,0.112c0.162,0.224,0.112,0.536-0.112,0.698l-12.756,9.232
				C16.893,20.513,16.79,20.543,16.688,20.543z"/>
		</g>
		<g>
			<path d="M13.312,20.543c-0.102,0-0.204-0.031-0.292-0.095L0.264,11.216c-0.224-0.162-0.274-0.475-0.112-0.698
				c0.161-0.225,0.474-0.275,0.698-0.112l12.755,9.232c0.224,0.162,0.274,0.475,0.112,0.698
				C13.619,20.472,13.466,20.543,13.312,20.543z"/>
		</g>
		<g>
			<path d="M28.5,30h-27C0.673,30,0,29.327,0,28.5V11.15c0-0.518,0.281-1.008,0.733-1.279l2.511-1.5
				c0.235-0.142,0.543-0.064,0.686,0.173C4.071,8.78,3.994,9.087,3.756,9.229l-2.51,1.5C1.092,10.821,1,10.979,1,11.15V28.5
				C1,28.776,1.224,29,1.5,29h27c0.276,0,0.5-0.224,0.5-0.5V11.15c0-0.171-0.092-0.329-0.248-0.421l-2.509-1.5
				c-0.237-0.142-0.314-0.449-0.173-0.686c0.142-0.238,0.45-0.314,0.686-0.173l2.51,1.5C29.719,10.142,30,10.632,30,11.15V28.5
				C30,29.327,29.327,30,28.5,30z"/>
		</g>
		<g>
			<path d="M26.5,13.5c-0.276,0-0.5-0.224-0.5-0.5V1H4v12c0,0.276-0.224,0.5-0.5,0.5S3,13.276,3,13V0.5C3,0.224,3.224,0,3.5,0h23
				C26.776,0,27,0.224,27,0.5V13C27,13.276,26.776,13.5,26.5,13.5z"/>
		</g>
		<g>
			<path d="M11.5,14.043c-3.057,0-5.543-2.487-5.543-5.543S8.443,2.957,11.5,2.957c0.236,0,0.469,0.015,0.697,0.043
				c0.274,0.035,0.468,0.285,0.433,0.559c-0.035,0.274-0.283,0.467-0.559,0.433c-0.187-0.024-0.378-0.036-0.571-0.036
				c-2.505,0-4.543,2.038-4.543,4.543s2.038,4.543,4.543,4.543s4.543-2.038,4.543-4.543c0-0.598-0.114-1.179-0.339-1.726
				c-0.105-0.255,0.017-0.548,0.272-0.653c0.256-0.102,0.548,0.017,0.653,0.272c0.275,0.668,0.415,1.377,0.415,2.107
				C17.043,11.557,14.557,14.043,11.5,14.043z"/>
		</g>
		<g>
			<path d="M17.5,14.043c-0.236,0-0.469-0.015-0.697-0.043c-0.274-0.035-0.468-0.285-0.433-0.559
				c0.035-0.274,0.289-0.461,0.559-0.433c0.187,0.024,0.378,0.036,0.571,0.036c2.505,0,4.543-2.038,4.543-4.543
				S20.005,3.957,17.5,3.957S12.957,5.995,12.957,8.5c0,0.597,0.114,1.177,0.338,1.725c0.105,0.256-0.017,0.548-0.272,0.652
				c-0.255,0.107-0.548-0.017-0.652-0.272c-0.274-0.669-0.414-1.377-0.414-2.104c0-3.057,2.487-5.543,5.543-5.543
				s5.543,2.487,5.543,5.543S20.557,14.043,17.5,14.043z"/>
		</g>
	</g>
</g>
<g id="Wedding_Invitation_2">
</g>
<g id="Bride">
</g>
<g id="Groom">
</g>
<g id="Mariage_Couple">
</g>
<g id="Wedding_Planner_Book">
</g>
<g id="Wedding_Cake_1">
</g>
<g id="Wedding_Cake_2">
</g>
<g id="Wedding_Cake_3">
</g>
<g id="Cake_Slice">
</g>
<g id="Marriage_Settlement">
</g>
<g id="Glass_Decoration">
</g>
<g id="Cutlery_Decoration">
</g>
<g id="Celebration_Glasses">
</g>
<g id="Wedding_Photo">
</g>
<g id="Wedding_Present_1">
</g>
<g id="Wedding_Present_2">
</g>
<g id="Wedding_Bouquet_2">
</g>
<g id="Hands_with_rings">
</g>
<g id="Wedding_Car">
</g>
<g id="Wedding_music">
</g>
<g id="wedding_party">
</g>
<g id="Confetti_1">
</g>
<g id="Confetti_2">
</g>
</svg>
