<?xml version="1.0" encoding="iso-8859-1"?>
<!-- Generator: Adobe Illustrator 19.2.1, SVG Export Plug-In . SVG Version: 6.00 Build 0)  -->
<svg version="1.1" xmlns="http://www.w3.org/2000/svg" xmlns:xlink="http://www.w3.org/1999/xlink" x="0px" y="0px"
	 viewBox="0 0 30 30" style="enable-background:new 0 0 30 30;" xml:space="preserve">
<g id="Add_User">
</g>
<g id="Remove_User">
</g>
<g id="Delete_User">
</g>
<g id="Done">
</g>
<g id="At_Symbol">
</g>
<g id="Question">
</g>
<g id="Answer">
</g>
<g id="Bring_Up">
</g>
<g id="Bring_Down">
</g>
<g id="Dismiss_User">
</g>
<g id="User_Speed">
</g>
<g id="User_Settings">
</g>
<g id="User_Refresh">
</g>
<g id="User_Time">
</g>
<g id="Dollar">
</g>
<g id="Euro">
</g>
<g id="Pound">
</g>
<g id="Bitcoin">
</g>
<g id="Global_User">
</g>
<g id="Waiting_User">
</g>
<g id="Writing_User_2">
</g>
<g id="Search_User">
</g>
<g id="Lock_User">
</g>
<g id="Mark_User">
</g>
<g id="Share_User">
</g>
<g id="Shopping">
</g>
<g id="User_Download">
</g>
<g id="User_Upload">
</g>
<g id="User_Statistics">
</g>
<g id="User_Defense">
</g>
<g id="User_Car">
</g>
<g id="User_Home">
</g>
<g id="Park">
</g>
<g id="Recicle_User">
</g>
<g id="Wifi">
</g>
<g id="Attach_User">
</g>
<g id="Disabled_User">
</g>
<g id="User_Card">
</g>
<g id="Gaming">
</g>
<g id="User_Cloud">
</g>
<g id="User_Database">
</g>
<g id="Copyright">
</g>
<g id="No_Copyright">
</g>
<g id="Creative_Commun">
</g>
<g id="Eco-Friendly">
</g>
<g id="Percentage">
</g>
<g id="User_Love">
</g>
<g id="User_Place">
</g>
<g id="User_Key">
</g>
<g id="Sleeping">
</g>
<g id="Add_User_2">
</g>
<g id="Remove_User_2">
</g>
<g id="Delete_User_2">
</g>
<g id="Done_2">
</g>
<g id="At_Symbol_2">
</g>
<g id="Question_2">
</g>
<g id="Answer_2">
</g>
<g id="Bring_Up_2">
</g>
<g id="Bring_Down_2">
</g>
<g id="Dismiss_User_2">
	<g>
		<path d="M28.661,18.34c-1.783-1.783-4.688-1.783-6.471,0c-1.07,1.071-1.531,2.626-1.236,4.118l-3.807,3.807
			c-0.094,0.094-0.146,0.221-0.146,0.354V29.5c0,0.276,0.224,0.5,0.5,0.5h2.882c0.133,0,0.26-0.053,0.354-0.146l3.807-3.807
			c1.485,0.292,3.046-0.166,4.118-1.236C30.445,23.026,30.445,20.124,28.661,18.34z M27.219,21.209
			c-0.188,0.189-0.442,0.295-0.713,0.295c-0.27,0-0.523-0.105-0.714-0.297c-0.189-0.188-0.295-0.442-0.295-0.712
			c0-0.271,0.105-0.524,0.297-0.715c0.382-0.383,1.047-0.38,1.427,0.002c0.189,0.188,0.295,0.442,0.295,0.713
			C27.516,20.765,27.41,21.019,27.219,21.209z"/>
		<path d="M19.876,21.734c-0.006-0.155-0.084-0.3-0.212-0.39c-1.157-0.816-1.667-2.895-1.763-3.64
			c0.826-0.807,1.313-1.984,1.313-3.205c0-0.523,0.171-0.736,0.229-0.766c0.156-0.041,0.283-0.153,0.342-0.304
			c0.025-0.067,0.638-1.661,0.638-2.681c0-0.04-0.005-0.079-0.014-0.118c-0.064-0.265-0.25-0.66-0.591-0.868V6.375
			c0-1.992-0.593-2.782-1.212-3.243C18.537,2.157,17.627,0,14.001,0c-3.771,0-6.61,3.791-6.61,6.25c0,1.134-0.047,2.056-0.081,2.729
			C7.297,9.226,7.285,9.444,7.279,9.634C6.933,9.84,6.745,10.24,6.68,10.507c-0.009,0.039-0.014,0.078-0.014,0.118
			c0,1.02,0.612,2.613,0.638,2.681c0.059,0.15,0.154,0.253,0.311,0.294c0.09,0.039,0.26,0.252,0.26,0.775
			c0,1.43,1.367,2.83,1.932,3.347c-0.024,0.867-0.208,3.236-1.482,3.792l-5.614,1.365c-1.345,0.465-2.352,1.587-2.694,3.004
			C0.006,25.921,0.001,25.96,0.001,26v3.5c0,0.276,0.224,0.5,0.5,0.5h15c0.276,0,0.5-0.224,0.5-0.5v-2.882
			c0-0.395,0.16-0.781,0.439-1.061l3.29-3.29C19.829,22.169,19.881,21.874,19.876,21.734z"/>
	</g>
</g>
<g id="User_Speed_2">
</g>
<g id="User_Settings_2">
</g>
<g id="Refresh_2">
</g>
<g id="Time_2">
</g>
<g id="Dollar_2">
</g>
<g id="Euro_2">
</g>
<g id="Pound_2">
</g>
<g id="Bitcoin_2">
</g>
<g id="Global_User_2">
</g>
<g id="Waiting_User_2">
</g>
<g id="Writing_User">
</g>
<g id="Search_User_2">
</g>
<g id="Lock_User_2">
</g>
<g id="Mark_User_2">
</g>
<g id="Share_User_2">
</g>
<g id="Shopping_2">
</g>
<g id="Download_2">
</g>
<g id="Upload_2">
</g>
<g id="User_Statistics_2">
</g>
<g id="User_Defense_2">
</g>
<g id="Car_2">
</g>
<g id="Home_2">
</g>
<g id="Park_2">
</g>
<g id="Recicle_User_2">
</g>
<g id="User_Wifi">
</g>
<g id="Attach_2">
</g>
<g id="Disabled_User_2">
</g>
<g id="User_Card_2">
</g>
<g id="Gaming_2">
</g>
<g id="Cloud_2">
</g>
<g id="Database_2">
</g>
<g id="Copyright_2">
</g>
<g id="No_Copyright_2">
</g>
<g id="Creative_Commun_2">
</g>
<g id="Eco-Friendly_2">
</g>
<g id="Percentage_2">
</g>
<g id="User_Love_2">
</g>
<g id="User_Rate_2">
</g>
<g id="User_Key_2">
</g>
<g id="Sleeping_2">
</g>
</svg>
