<?xml version="1.0" encoding="iso-8859-1"?>
<!-- Generator: Adobe Illustrator 19.2.1, SVG Export Plug-In . SVG Version: 6.00 Build 0)  -->
<svg version="1.1" xmlns="http://www.w3.org/2000/svg" xmlns:xlink="http://www.w3.org/1999/xlink" x="0px" y="0px"
	 viewBox="0 0 30 30" style="enable-background:new 0 0 30 30;" xml:space="preserve">
<g id="Add_Users">
</g>
<g id="Remove_Users">
</g>
<g id="Delete_Users">
</g>
<g id="Done_3">
	<g>
		<path d="M23.5,17.25c-3.584,0-6.5,2.916-6.5,6.5s2.916,6.5,6.5,6.5s6.5-2.916,6.5-6.5S27.084,17.25,23.5,17.25z M26.854,22.104
			l-4,4c-0.098,0.098-0.226,0.146-0.354,0.146s-0.256-0.049-0.354-0.146l-2-2c-0.195-0.195-0.195-0.512,0-0.707s0.512-0.195,0.707,0
			l1.646,1.646l3.646-3.646c0.195-0.195,0.512-0.195,0.707,0S27.049,21.908,26.854,22.104z"/>
		<path d="M17.721,5.827c0.448,0.491,0.658,1.142,0.575,1.784l-0.229,1.772c-0.079,0.614-0.424,1.181-0.946,1.553
			c-0.095,0.068-0.163,0.166-0.193,0.279c-0.217,0.816-0.599,1.617-1.104,2.316c-0.098,0.135-0.122,0.31-0.064,0.466
			s0.189,0.273,0.352,0.313l2.222,0.538c0.988,0.239,1.88,0.762,2.652,1.554c0.095,0.098,0.225,0.15,0.358,0.15
			c0.045,0,0.091-0.006,0.135-0.019c0.892-0.252,1.798-0.329,2.669-0.252c0.254,0.016,0.494-0.16,0.536-0.418
			c0.042-0.258-0.122-0.505-0.376-0.566l-1.703-0.412l-0.279-1.084c0.922-0.896,1.555-2.116,1.752-3.372
			c0.522-0.154,0.924-0.599,0.996-1.152l0.229-1.772c0.049-0.385-0.069-0.774-0.326-1.069c-0.149-0.172-0.337-0.303-0.545-0.385
			l0.08-1.596l0.326-0.317c0.53-0.547,0.971-1.484,0.056-2.841c-0.694-1.027-1.869-1.548-3.491-1.548
			c-0.904,0-2.091,0.087-3.258,0.765c-0.235,0.137-0.318,0.435-0.188,0.673c0.708,1.29,0.587,2.54-0.337,3.519
			c-0.082,0.087-0.13,0.2-0.136,0.319l-0.016,0.315c-0.007,0.143,0.048,0.282,0.15,0.382L17.721,5.827z"/>
		<path d="M19.632,17.338c0.141-0.086,0.231-0.235,0.24-0.4c0.009-0.164-0.063-0.323-0.194-0.424
			c-0.502-0.386-1.041-0.65-1.601-0.786l-3.472-0.841l-0.279-1.084c0.922-0.896,1.555-2.116,1.752-3.372
			c0.522-0.154,0.924-0.599,0.996-1.152l0.229-1.772c0.049-0.385-0.069-0.774-0.326-1.069c-0.149-0.172-0.337-0.303-0.545-0.385
			l0.08-1.596l0.326-0.317c0.53-0.547,0.971-1.484,0.056-2.841c-0.694-1.027-1.869-1.548-3.491-1.548c-0.637,0-2.103,0-3.471,0.888
			C6.012,0.72,5.479,2.499,5.479,4.234c0,0.389,0.094,1.243,0.159,1.789C5.405,6.103,5.194,6.24,5.029,6.428
			C4.769,6.725,4.647,7.117,4.697,7.507l0.229,1.771c0.077,0.591,0.53,1.059,1.104,1.18c0.197,1.205,0.797,2.385,1.665,3.266
			l-0.3,1.163l-3.472,0.841C1.5,16.314,0,19.051,0,21.25c0,0.276,0.224,0.5,0.5,0.5h15.406c0.216,0,0.407-0.139,0.475-0.344
			C16.939,19.715,18.094,18.27,19.632,17.338z"/>
	</g>
</g>
<g id="At_Symbol_3">
</g>
<g id="Question_3">
</g>
<g id="Answer_3">
</g>
<g id="Bring_Up_3">
</g>
<g id="Bring_Down_3">
</g>
<g id="Dismiss_Users">
</g>
<g id="Users_Speed_3">
</g>
<g id="Users_Settings">
</g>
<g id="Refresh_Users">
</g>
<g id="Time_3">
</g>
<g id="Dollar_3">
</g>
<g id="Euro_3">
</g>
<g id="Pound_3">
</g>
<g id="Bitcoin_3">
</g>
<g id="Global_Users">
</g>
<g id="Waiting_Users">
</g>
<g id="Writing_Users">
</g>
<g id="Search_Users">
</g>
<g id="Lock_Users">
</g>
<g id="Mark_Users">
</g>
<g id="Share_Users">
</g>
<g id="Shopping_3">
</g>
<g id="Download_3">
</g>
<g id="Upload_3">
</g>
<g id="Users_Statistics">
</g>
<g id="Users_Defense">
</g>
<g id="Car_3">
</g>
<g id="Home_3">
</g>
<g id="Park_3">
</g>
<g id="Recicle_Users">
</g>
<g id="Wifi_3">
</g>
<g id="Attach_3">
</g>
<g id="Disabled_Users">
</g>
<g id="Users_Card">
</g>
<g id="Gaming_3">
</g>
<g id="Cloud_3">
</g>
<g id="Database_3">
</g>
<g id="Copyright_3">
</g>
<g id="No_Copzright_3">
</g>
<g id="Creative_Commun_3">
</g>
<g id="Eco-Friendly_3">
</g>
<g id="Percentage_3">
</g>
<g id="Users_Love">
</g>
<g id="Users_Place">
</g>
<g id="Users_Key">
</g>
<g id="Sleeping_3">
</g>
</svg>
