<?xml version="1.0" encoding="iso-8859-1"?>
<!-- Generator: Adobe Illustrator 19.2.1, SVG Export Plug-In . SVG Version: 6.00 Build 0)  -->
<svg version="1.1" xmlns="http://www.w3.org/2000/svg" xmlns:xlink="http://www.w3.org/1999/xlink" x="0px" y="0px"
	 viewBox="0 0 30 30" style="enable-background:new 0 0 30 30;" xml:space="preserve">
<g id="Add_Users">
</g>
<g id="Remove_Users">
</g>
<g id="Delete_Users">
</g>
<g id="Done_3">
</g>
<g id="At_Symbol_3">
</g>
<g id="Question_3">
</g>
<g id="Answer_3">
</g>
<g id="Bring_Up_3">
</g>
<g id="Bring_Down_3">
</g>
<g id="Dismiss_Users">
</g>
<g id="Users_Speed_3">
</g>
<g id="Users_Settings">
</g>
<g id="Refresh_Users">
</g>
<g id="Time_3">
</g>
<g id="Dollar_3">
</g>
<g id="Euro_3">
	<g>
		<path d="M23.5,17c-3.584,0-6.5,2.916-6.5,6.5s2.916,6.5,6.5,6.5s6.5-2.916,6.5-6.5S27.084,17,23.5,17z M23.5,22
			c0.276,0,0.5,0.224,0.5,0.5S23.776,23,23.5,23H22v1h1.5c0.276,0,0.5,0.224,0.5,0.5S23.776,25,23.5,25H22v0.5
			c0,0.827,0.674,1.5,1.502,1.5c1.444,0,1.481-0.584,1.499-0.865c0.018-0.274,0.202-0.479,0.531-0.467
			c0.275,0.018,0.484,0.255,0.467,0.53C25.946,27.021,25.471,28,23.502,28C22.122,28,21,26.879,21,25.5V25h-0.5
			c-0.276,0-0.5-0.224-0.5-0.5s0.224-0.5,0.5-0.5H21v-1h-0.5c-0.276,0-0.5-0.224-0.5-0.5s0.224-0.5,0.5-0.5H21v-0.5
			c0-1.379,1.122-2.5,2.502-2.5c1.969,0,2.444,0.979,2.497,1.802c0.018,0.275-0.191,0.513-0.467,0.53
			c-0.012,0.001-0.022,0.001-0.032,0.001c-0.262,0-0.482-0.203-0.499-0.468C24.983,20.584,24.946,20,23.502,20
			C22.674,20,22,20.673,22,21.5V22H23.5z"/>
		<path d="M17.721,6.077c0.448,0.491,0.658,1.142,0.575,1.784l-0.229,1.772c-0.079,0.614-0.424,1.181-0.946,1.553
			c-0.095,0.068-0.162,0.166-0.192,0.279c-0.217,0.816-0.599,1.617-1.104,2.316c-0.098,0.135-0.121,0.31-0.063,0.466
			s0.189,0.273,0.351,0.313l2.222,0.538c0.828,0.201,1.597,0.605,2.284,1.203c0.093,0.081,0.209,0.123,0.328,0.123
			c0.054,0,0.107-0.009,0.16-0.026c0.42-0.142,0.866-0.247,1.325-0.313c0.237-0.034,0.417-0.232,0.428-0.473
			c0.009-0.189-0.09-0.363-0.248-0.455l-0.285-1.105c0.922-0.896,1.556-2.115,1.753-3.372c0.523-0.154,0.925-0.599,0.996-1.153
			l0.229-1.771c0.049-0.385-0.069-0.774-0.326-1.069c-0.149-0.172-0.337-0.303-0.546-0.386l0.08-1.595l0.327-0.317
			c0.53-0.547,0.971-1.484,0.055-2.84C24.199,0.521,23.024,0,21.401,0c-0.903,0-2.09,0.087-3.258,0.765
			c-0.234,0.137-0.318,0.436-0.188,0.673c0.708,1.29,0.588,2.54-0.337,3.519c-0.082,0.087-0.13,0.2-0.136,0.319l-0.016,0.315
			c-0.008,0.143,0.047,0.282,0.149,0.382L17.721,6.077z"/>
		<path d="M19.259,17.321c0.14-0.097,0.222-0.257,0.217-0.426c-0.005-0.17-0.096-0.325-0.24-0.413
			c-0.416-0.253-0.784-0.413-1.158-0.505l-3.473-0.841l-0.279-1.084c0.922-0.896,1.556-2.115,1.753-3.372
			c0.523-0.154,0.925-0.599,0.996-1.152l0.229-1.772c0.049-0.385-0.069-0.774-0.326-1.069c-0.149-0.172-0.337-0.303-0.546-0.386
			l0.08-1.595l0.327-0.317c0.53-0.547,0.971-1.484,0.055-2.84C16.199,0.521,15.024,0,13.401,0c-0.637,0-2.102,0-3.47,0.888
			C6.012,0.97,5.479,2.749,5.479,4.484c0,0.389,0.094,1.244,0.159,1.789C5.404,6.353,5.193,6.491,5.028,6.679
			C4.768,6.976,4.647,7.368,4.697,7.757l0.229,1.771c0.076,0.592,0.529,1.06,1.104,1.181c0.196,1.205,0.797,2.385,1.665,3.266
			l-0.3,1.163l-3.472,0.841C1.5,16.564,0,19.301,0,21.5C0,21.776,0.224,22,0.5,22h15.264c0.228,0,0.427-0.154,0.484-0.375
			C16.7,19.875,17.771,18.347,19.259,17.321z"/>
	</g>
</g>
<g id="Pound_3">
</g>
<g id="Bitcoin_3">
</g>
<g id="Global_Users">
</g>
<g id="Waiting_Users">
</g>
<g id="Writing_Users">
</g>
<g id="Search_Users">
</g>
<g id="Lock_Users">
</g>
<g id="Mark_Users">
</g>
<g id="Share_Users">
</g>
<g id="Shopping_3">
</g>
<g id="Download_3">
</g>
<g id="Upload_3">
</g>
<g id="Users_Statistics">
</g>
<g id="Users_Defense">
</g>
<g id="Car_3">
</g>
<g id="Home_3">
</g>
<g id="Park_3">
</g>
<g id="Recicle_Users">
</g>
<g id="Wifi_3">
</g>
<g id="Attach_3">
</g>
<g id="Disabled_Users">
</g>
<g id="Users_Card">
</g>
<g id="Gaming_3">
</g>
<g id="Cloud_3">
</g>
<g id="Database_3">
</g>
<g id="Copyright_3">
</g>
<g id="No_Copzright_3">
</g>
<g id="Creative_Commun_3">
</g>
<g id="Eco-Friendly_3">
</g>
<g id="Percentage_3">
</g>
<g id="Users_Love">
</g>
<g id="Users_Place">
</g>
<g id="Users_Key">
</g>
<g id="Sleeping_3">
</g>
</svg>
