<?xml version="1.0" encoding="iso-8859-1"?>
<!-- Generator: Adobe Illustrator 19.2.1, SVG Export Plug-In . SVG Version: 6.00 Build 0)  -->
<svg version="1.1" xmlns="http://www.w3.org/2000/svg" xmlns:xlink="http://www.w3.org/1999/xlink" x="0px" y="0px"
	 viewBox="0 0 30 30" style="enable-background:new 0 0 30 30;" xml:space="preserve">
<g id="Add_User">
</g>
<g id="Remove_User">
</g>
<g id="Delete_User">
</g>
<g id="Done">
</g>
<g id="At_Symbol">
</g>
<g id="Question">
</g>
<g id="Answer">
</g>
<g id="Bring_Up">
</g>
<g id="Bring_Down">
</g>
<g id="Dismiss_User">
</g>
<g id="User_Speed">
</g>
<g id="User_Settings">
</g>
<g id="User_Refresh">
</g>
<g id="User_Time">
</g>
<g id="Dollar">
</g>
<g id="Euro">
</g>
<g id="Pound">
</g>
<g id="Bitcoin">
</g>
<g id="Global_User">
</g>
<g id="Waiting_User">
</g>
<g id="Writing_User_2">
</g>
<g id="Search_User">
</g>
<g id="Lock_User">
</g>
<g id="Mark_User">
</g>
<g id="Share_User">
</g>
<g id="Shopping">
</g>
<g id="User_Download">
</g>
<g id="User_Upload">
</g>
<g id="User_Statistics">
</g>
<g id="User_Defense">
</g>
<g id="User_Car">
</g>
<g id="User_Home">
</g>
<g id="Park">
</g>
<g id="Recicle_User">
</g>
<g id="Wifi">
</g>
<g id="Attach_User">
</g>
<g id="Disabled_User">
</g>
<g id="User_Card">
</g>
<g id="Gaming">
	<g>
		<path d="M22.854,25.146c-0.195-0.195-0.512-0.195-0.707,0s-0.195,0.512,0,0.707l2,2c0.047,0.047,0.101,0.08,0.157,0.105
			c0.002,0.001,0.003,0.003,0.005,0.004l0.002,0C24.371,27.987,24.435,28,24.5,28c0.064,0,0.129-0.013,0.189-0.037
			c0.06-0.025,0.116-0.061,0.164-0.109l2-2c0.195-0.195,0.195-0.512,0-0.707s-0.512-0.195-0.707,0L25,26.293V20.5
			c0-0.276-0.224-0.5-0.5-0.5S24,20.224,24,20.5v5.793L22.854,25.146z"/>
		<path d="M29.5,26c-0.276,0-0.5,0.224-0.5,0.5V29h-9v-2.5c0-0.276-0.224-0.5-0.5-0.5S19,26.224,19,26.5v3
			c0,0.276,0.224,0.5,0.5,0.5h10c0.276,0,0.5-0.224,0.5-0.5v-3C30,26.224,29.776,26,29.5,26z"/>
		<path d="M20.338,25.256c0.13,0.087,0.289,0.108,0.438,0.061c0.146-0.049,0.264-0.163,0.314-0.309
			c0.078-0.224,0.196-0.415,0.35-0.568C21.723,24.156,22.1,24,22.5,24c0.276,0,0.5-0.224,0.5-0.5v-0.815
			c0-0.229-0.155-0.429-0.377-0.484l-2.624-0.659c-1.396-0.602-1.999-2.997-2.1-3.835c0.826-0.806,1.313-1.985,1.313-3.206
			c0-0.523,0.171-0.736,0.229-0.766c0.156-0.041,0.283-0.153,0.342-0.304c0.025-0.067,0.638-1.661,0.638-2.681
			c0-0.04-0.005-0.079-0.014-0.118c-0.064-0.265-0.25-0.66-0.591-0.868V6.375c0-1.992-0.593-2.782-1.212-3.243
			C18.536,2.157,17.626,0,14,0c-3.771,0-6.61,3.791-6.61,6.25c0,1.134-0.047,2.056-0.081,2.729C7.296,9.226,7.284,9.444,7.277,9.634
			C6.932,9.84,6.744,10.24,6.679,10.507c-0.009,0.039-0.014,0.078-0.014,0.118c0,1.02,0.612,2.613,0.638,2.681
			c0.059,0.15,0.154,0.253,0.311,0.294c0.09,0.039,0.26,0.252,0.26,0.775c0,1.43,1.367,2.83,1.932,3.347
			c-0.024,0.867-0.208,3.236-1.482,3.792l-5.614,1.365c-1.345,0.465-2.352,1.587-2.694,3.004C0.005,25.921,0,25.96,0,26v3.5
			C0,29.776,0.224,30,0.5,30h17c0.276,0,0.5-0.224,0.5-0.5v-3c0-0.827,0.673-1.5,1.5-1.5C19.801,25,20.09,25.089,20.338,25.256z"/>
	</g>
</g>
<g id="User_Cloud">
</g>
<g id="User_Database">
</g>
<g id="Copyright">
</g>
<g id="No_Copyright">
</g>
<g id="Creative_Commun">
</g>
<g id="Eco-Friendly">
</g>
<g id="Percentage">
</g>
<g id="User_Love">
</g>
<g id="User_Place">
</g>
<g id="User_Key">
</g>
<g id="Sleeping">
</g>
<g id="Add_User_2">
</g>
<g id="Remove_User_2">
</g>
<g id="Delete_User_2">
</g>
<g id="Done_2">
</g>
<g id="At_Symbol_2">
</g>
<g id="Question_2">
</g>
<g id="Answer_2">
</g>
<g id="Bring_Up_2">
</g>
<g id="Bring_Down_2">
</g>
<g id="Dismiss_User_2">
</g>
<g id="User_Speed_2">
</g>
<g id="User_Settings_2">
</g>
<g id="Refresh_2">
</g>
<g id="Time_2">
</g>
<g id="Dollar_2">
</g>
<g id="Euro_2">
</g>
<g id="Pound_2">
</g>
<g id="Bitcoin_2">
</g>
<g id="Global_User_2">
</g>
<g id="Waiting_User_2">
</g>
<g id="Writing_User">
</g>
<g id="Search_User_2">
</g>
<g id="Lock_User_2">
</g>
<g id="Mark_User_2">
</g>
<g id="Share_User_2">
</g>
<g id="Shopping_2">
</g>
<g id="Download_2">
</g>
<g id="Upload_2">
</g>
<g id="User_Statistics_2">
</g>
<g id="User_Defense_2">
</g>
<g id="Car_2">
</g>
<g id="Home_2">
</g>
<g id="Park_2">
</g>
<g id="Recicle_User_2">
</g>
<g id="User_Wifi">
</g>
<g id="Attach_2">
</g>
<g id="Disabled_User_2">
</g>
<g id="User_Card_2">
</g>
<g id="Gaming_2">
</g>
<g id="Cloud_2">
</g>
<g id="Database_2">
</g>
<g id="Copyright_2">
</g>
<g id="No_Copyright_2">
</g>
<g id="Creative_Commun_2">
</g>
<g id="Eco-Friendly_2">
</g>
<g id="Percentage_2">
</g>
<g id="User_Love_2">
</g>
<g id="User_Rate_2">
</g>
<g id="User_Key_2">
</g>
<g id="Sleeping_2">
</g>
</svg>
