<?xml version="1.0" encoding="iso-8859-1"?>
<!-- Generator: Adobe Illustrator 19.2.1, SVG Export Plug-In . SVG Version: 6.00 Build 0)  -->
<svg version="1.1" xmlns="http://www.w3.org/2000/svg" xmlns:xlink="http://www.w3.org/1999/xlink" x="0px" y="0px"
	 viewBox="0 0 30 30" style="enable-background:new 0 0 30 30;" xml:space="preserve">
<g id="Add_User">
</g>
<g id="Remove_User">
</g>
<g id="Delete_User">
</g>
<g id="Done">
</g>
<g id="At_Symbol">
</g>
<g id="Question">
</g>
<g id="Answer">
</g>
<g id="Bring_Up">
</g>
<g id="Bring_Down">
</g>
<g id="Dismiss_User">
</g>
<g id="User_Speed">
</g>
<g id="User_Settings">
</g>
<g id="User_Refresh">
</g>
<g id="User_Time">
</g>
<g id="Dollar">
</g>
<g id="Euro">
</g>
<g id="Pound">
</g>
<g id="Bitcoin">
</g>
<g id="Global_User">
</g>
<g id="Waiting_User">
</g>
<g id="Writing_User_2">
</g>
<g id="Search_User">
</g>
<g id="Lock_User">
</g>
<g id="Mark_User">
</g>
<g id="Share_User">
</g>
<g id="Shopping">
</g>
<g id="User_Download">
</g>
<g id="User_Upload">
</g>
<g id="User_Statistics">
</g>
<g id="User_Defense">
</g>
<g id="User_Car">
</g>
<g id="User_Home">
</g>
<g id="Park">
</g>
<g id="Recicle_User">
</g>
<g id="Wifi">
</g>
<g id="Attach_User">
</g>
<g id="Disabled_User">
</g>
<g id="User_Card">
</g>
<g id="Gaming">
</g>
<g id="User_Cloud">
</g>
<g id="User_Database">
</g>
<g id="Copyright">
</g>
<g id="No_Copyright">
</g>
<g id="Creative_Commun">
</g>
<g id="Eco-Friendly">
</g>
<g id="Percentage">
</g>
<g id="User_Love">
</g>
<g id="User_Place">
</g>
<g id="User_Key">
</g>
<g id="Sleeping">
</g>
<g id="Add_User_2">
</g>
<g id="Remove_User_2">
</g>
<g id="Delete_User_2">
</g>
<g id="Done_2">
</g>
<g id="At_Symbol_2">
</g>
<g id="Question_2">
</g>
<g id="Answer_2">
</g>
<g id="Bring_Up_2">
</g>
<g id="Bring_Down_2">
</g>
<g id="Dismiss_User_2">
</g>
<g id="User_Speed_2">
</g>
<g id="User_Settings_2">
</g>
<g id="Refresh_2">
</g>
<g id="Time_2">
</g>
<g id="Dollar_2">
</g>
<g id="Euro_2">
</g>
<g id="Pound_2">
</g>
<g id="Bitcoin_2">
</g>
<g id="Global_User_2">
	<g>
		<path d="M27,25c-0.796,0-1.498,0.381-1.957,0.963l-5.638-2.819c0.055-0.207,0.095-0.42,0.095-0.644
			c0-0.382-0.093-0.74-0.247-1.064l5.781-2.409C25.493,19.615,26.199,20,27,20c1.379,0,2.5-1.122,2.5-2.5S28.379,15,27,15
			s-2.5,1.122-2.5,2.5c0,0.219,0.037,0.427,0.09,0.629l-5.782,2.409c-0.059,0.024-0.109,0.061-0.152,0.103
			C18.214,20.247,17.638,20,17,20c-1.379,0-2.5,1.122-2.5,2.5S15.621,25,17,25c0.796,0,1.498-0.381,1.957-0.963l5.638,2.819
			c-0.055,0.207-0.095,0.42-0.095,0.644c0,1.378,1.121,2.5,2.5,2.5s2.5-1.122,2.5-2.5S28.379,25,27,25z"/>
		<path d="M23.524,27.718c-0.011-0.178-0.116-0.336-0.275-0.416l-3.826-1.913c-0.16-0.081-0.352-0.069-0.499,0.03
			C18.348,25.799,17.683,26,17,26c-1.93,0-3.5-1.57-3.5-3.5S15.07,19,17,19c0.362,0,0.733,0.068,1.137,0.208
			c0.186,0.064,0.389,0.016,0.523-0.125c1.215-1.257,2.021-2.945,2.246-4.684c0.661-0.167,1.176-0.74,1.262-1.461l0.294-2.445
			c0.06-0.495-0.093-0.992-0.417-1.362c-0.194-0.221-0.44-0.385-0.712-0.479l0.114-2.439l0.467-0.487
			c0.633-0.701,1.155-1.904,0.052-3.658C21.104,0.696,19.631,0,17.588,0c-0.813,0-2.69,0-4.428,1.225
			C8.215,1.326,7.543,3.693,7.543,6.002c0,0.568,0.14,1.888,0.223,2.616C7.46,8.702,7.181,8.875,6.964,9.119
			c-0.33,0.373-0.485,0.873-0.426,1.374l0.294,2.445c0.092,0.771,0.674,1.372,1.399,1.49c0.229,1.706,1.023,3.385,2.185,4.612
			l-0.44,1.836l-4.549,1.184C2.384,22.854,0.5,26.54,0.5,29.5C0.5,29.776,0.724,30,1,30h22.557c0.179,0,0.345-0.096,0.434-0.251
			s0.089-0.347-0.002-0.501C23.715,28.779,23.559,28.265,23.524,27.718z"/>
	</g>
</g>
<g id="Waiting_User_2">
</g>
<g id="Writing_User">
</g>
<g id="Search_User_2">
</g>
<g id="Lock_User_2">
</g>
<g id="Mark_User_2">
</g>
<g id="Share_User_2">
</g>
<g id="Shopping_2">
</g>
<g id="Download_2">
</g>
<g id="Upload_2">
</g>
<g id="User_Statistics_2">
</g>
<g id="User_Defense_2">
</g>
<g id="Car_2">
</g>
<g id="Home_2">
</g>
<g id="Park_2">
</g>
<g id="Recicle_User_2">
</g>
<g id="User_Wifi">
</g>
<g id="Attach_2">
</g>
<g id="Disabled_User_2">
</g>
<g id="User_Card_2">
</g>
<g id="Gaming_2">
</g>
<g id="Cloud_2">
</g>
<g id="Database_2">
</g>
<g id="Copyright_2">
</g>
<g id="No_Copyright_2">
</g>
<g id="Creative_Commun_2">
</g>
<g id="Eco-Friendly_2">
</g>
<g id="Percentage_2">
</g>
<g id="User_Love_2">
</g>
<g id="User_Rate_2">
</g>
<g id="User_Key_2">
</g>
<g id="Sleeping_2">
</g>
</svg>
