<?xml version="1.0" encoding="iso-8859-1"?>
<!-- Generator: Adobe Illustrator 19.2.1, SVG Export Plug-In . SVG Version: 6.00 Build 0)  -->
<svg version="1.1" xmlns="http://www.w3.org/2000/svg" xmlns:xlink="http://www.w3.org/1999/xlink" x="0px" y="0px"
	 viewBox="0 0 30 30" style="enable-background:new 0 0 30 30;" xml:space="preserve">
<g id="Add_Users">
</g>
<g id="Remove_Users">
</g>
<g id="Delete_Users">
</g>
<g id="Done_3">
</g>
<g id="At_Symbol_3">
</g>
<g id="Question_3">
</g>
<g id="Answer_3">
</g>
<g id="Bring_Up_3">
</g>
<g id="Bring_Down_3">
</g>
<g id="Dismiss_Users">
</g>
<g id="Users_Speed_3">
</g>
<g id="Users_Settings">
</g>
<g id="Refresh_Users">
</g>
<g id="Time_3">
</g>
<g id="Dollar_3">
</g>
<g id="Euro_3">
</g>
<g id="Pound_3">
</g>
<g id="Bitcoin_3">
</g>
<g id="Global_Users">
</g>
<g id="Waiting_Users">
</g>
<g id="Writing_Users">
</g>
<g id="Search_Users">
</g>
<g id="Lock_Users">
</g>
<g id="Mark_Users">
	<g>
		<path d="M29.968,20.324C29.895,20.129,29.708,20,29.5,20h-4.662l-1.874-4.686c-0.152-0.381-0.776-0.381-0.929,0L20.162,20H15.5
			c-0.208,0-0.395,0.129-0.468,0.324s-0.018,0.415,0.139,0.552l3.764,3.294l-1.417,5.198c-0.055,0.201,0.021,0.416,0.19,0.537
			c0.169,0.124,0.397,0.125,0.57,0.011l4.223-2.815l4.223,2.815C26.807,29.972,26.903,30,27,30c0.103,0,0.205-0.031,0.292-0.095
			c0.169-0.121,0.245-0.336,0.19-0.537l-1.417-5.198l3.764-3.294C29.986,20.739,30.041,20.52,29.968,20.324z"/>
		<path d="M17.721,6.077c0.448,0.491,0.658,1.142,0.575,1.784l-0.229,1.772c-0.079,0.614-0.424,1.181-0.946,1.553
			c-0.095,0.068-0.163,0.166-0.193,0.279c-0.217,0.816-0.599,1.617-1.104,2.316c-0.098,0.135-0.122,0.31-0.064,0.466
			s0.189,0.273,0.352,0.313l2.222,0.538c0.605,0.146,1.191,0.411,1.74,0.787c0.084,0.058,0.183,0.088,0.283,0.088
			c0.049,0,0.098-0.007,0.146-0.021c0.145-0.044,0.262-0.152,0.319-0.293l0.287-0.718c0.179-0.447,0.58-0.78,1.071-0.889
			c0.096-0.021,0.183-0.07,0.251-0.141c0.872-0.9,1.459-2.06,1.647-3.232c0.523-0.153,0.925-0.599,0.997-1.152l0.229-1.772
			c0.049-0.385-0.069-0.774-0.326-1.069c-0.149-0.172-0.337-0.303-0.545-0.385l0.08-1.596l0.326-0.317
			c0.53-0.547,0.971-1.484,0.056-2.841C24.199,0.52,23.024,0,21.402,0c-0.904,0-2.091,0.087-3.258,0.765
			c-0.235,0.137-0.318,0.435-0.188,0.673c0.708,1.29,0.587,2.54-0.337,3.519c-0.082,0.087-0.13,0.2-0.136,0.319l-0.016,0.315
			c-0.007,0.143,0.048,0.282,0.15,0.382L17.721,6.077z"/>
		<path d="M14.096,19.973C14.314,19.391,14.879,19,15.5,19h3.646c0.205,0,0.388-0.125,0.464-0.314l0.454-1.135
			c0.079-0.196,0.025-0.421-0.134-0.561c-0.586-0.517-1.21-0.857-1.854-1.013l-3.472-0.841l-0.279-1.084
			c0.922-0.896,1.555-2.116,1.752-3.372c0.522-0.154,0.924-0.599,0.996-1.152l0.229-1.772c0.049-0.385-0.069-0.774-0.326-1.069
			c-0.149-0.172-0.337-0.303-0.545-0.385l0.08-1.596l0.326-0.317c0.53-0.547,0.971-1.484,0.056-2.841C16.199,0.52,15.024,0,13.402,0
			c-0.637,0-2.103,0-3.471,0.888C6.012,0.97,5.478,2.749,5.478,4.484c0,0.389,0.094,1.243,0.159,1.789
			C5.405,6.353,5.194,6.49,5.029,6.678C4.768,6.975,4.647,7.367,4.697,7.757l0.229,1.771c0.077,0.591,0.53,1.059,1.104,1.18
			c0.197,1.205,0.797,2.385,1.665,3.266l-0.3,1.163l-3.472,0.841C1.5,16.564,0,19.301,0,21.5C0,21.776,0.224,22,0.5,22h13.275
			c0.179,0,0.344-0.096,0.433-0.25c0.089-0.155,0.089-0.346,0-0.5C13.979,20.855,13.939,20.391,14.096,19.973L14.096,19.973z"/>
	</g>
</g>
<g id="Share_Users">
</g>
<g id="Shopping_3">
</g>
<g id="Download_3">
</g>
<g id="Upload_3">
</g>
<g id="Users_Statistics">
</g>
<g id="Users_Defense">
</g>
<g id="Car_3">
</g>
<g id="Home_3">
</g>
<g id="Park_3">
</g>
<g id="Recicle_Users">
</g>
<g id="Wifi_3">
</g>
<g id="Attach_3">
</g>
<g id="Disabled_Users">
</g>
<g id="Users_Card">
</g>
<g id="Gaming_3">
</g>
<g id="Cloud_3">
</g>
<g id="Database_3">
</g>
<g id="Copyright_3">
</g>
<g id="No_Copzright_3">
</g>
<g id="Creative_Commun_3">
</g>
<g id="Eco-Friendly_3">
</g>
<g id="Percentage_3">
</g>
<g id="Users_Love">
</g>
<g id="Users_Place">
</g>
<g id="Users_Key">
</g>
<g id="Sleeping_3">
</g>
</svg>
