<?xml version="1.0" encoding="iso-8859-1"?>
<!-- Generator: Adobe Illustrator 19.2.1, SVG Export Plug-In . SVG Version: 6.00 Build 0)  -->
<svg version="1.1" xmlns="http://www.w3.org/2000/svg" xmlns:xlink="http://www.w3.org/1999/xlink" x="0px" y="0px"
	 viewBox="0 0 30 30" style="enable-background:new 0 0 30 30;" xml:space="preserve">
<g id="Add_User">
</g>
<g id="Remove_User">
</g>
<g id="Delete_User">
</g>
<g id="Done">
</g>
<g id="At_Symbol">
</g>
<g id="Question">
</g>
<g id="Answer">
</g>
<g id="Bring_Up">
</g>
<g id="Bring_Down">
</g>
<g id="Dismiss_User">
</g>
<g id="User_Speed">
</g>
<g id="User_Settings">
</g>
<g id="User_Refresh">
</g>
<g id="User_Time">
</g>
<g id="Dollar">
</g>
<g id="Euro">
</g>
<g id="Pound">
</g>
<g id="Bitcoin">
</g>
<g id="Global_User">
</g>
<g id="Waiting_User">
</g>
<g id="Writing_User_2">
</g>
<g id="Search_User">
</g>
<g id="Lock_User">
</g>
<g id="Mark_User">
</g>
<g id="Share_User">
</g>
<g id="Shopping">
</g>
<g id="User_Download">
</g>
<g id="User_Upload">
</g>
<g id="User_Statistics">
</g>
<g id="User_Defense">
</g>
<g id="User_Car">
</g>
<g id="User_Home">
</g>
<g id="Park">
</g>
<g id="Recicle_User">
</g>
<g id="Wifi">
</g>
<g id="Attach_User">
</g>
<g id="Disabled_User">
</g>
<g id="User_Card">
</g>
<g id="Gaming">
</g>
<g id="User_Cloud">
</g>
<g id="User_Database">
</g>
<g id="Copyright">
</g>
<g id="No_Copyright">
</g>
<g id="Creative_Commun">
</g>
<g id="Eco-Friendly">
</g>
<g id="Percentage">
</g>
<g id="User_Love">
</g>
<g id="User_Place">
</g>
<g id="User_Key">
</g>
<g id="Sleeping">
</g>
<g id="Add_User_2">
</g>
<g id="Remove_User_2">
</g>
<g id="Delete_User_2">
</g>
<g id="Done_2">
</g>
<g id="At_Symbol_2">
</g>
<g id="Question_2">
</g>
<g id="Answer_2">
</g>
<g id="Bring_Up_2">
</g>
<g id="Bring_Down_2">
</g>
<g id="Dismiss_User_2">
</g>
<g id="User_Speed_2">
</g>
<g id="User_Settings_2">
</g>
<g id="Refresh_2">
</g>
<g id="Time_2">
</g>
<g id="Dollar_2">
</g>
<g id="Euro_2">
</g>
<g id="Pound_2">
</g>
<g id="Bitcoin_2">
</g>
<g id="Global_User_2">
</g>
<g id="Waiting_User_2">
</g>
<g id="Writing_User">
</g>
<g id="Search_User_2">
</g>
<g id="Lock_User_2">
</g>
<g id="Mark_User_2">
	<g>
		<path d="M29.5,18h-10c-0.276,0-0.5,0.224-0.5,0.5v7.333c0,1.871,4.425,3.768,5.312,4.129C24.372,29.988,24.436,30,24.5,30
			s0.128-0.012,0.188-0.037C25.575,29.602,30,27.704,30,25.833V18.5C30,18.224,29.776,18,29.5,18z M29,25.833
			c0,0.775-2.3,2.202-4.5,3.125c-2.2-0.923-4.5-2.349-4.5-3.125V19h9V25.833z"/>
		<path d="M21.5,24H24v3c0,0.145,0.062,0.282,0.171,0.376c0.092,0.08,0.209,0.124,0.329,0.124c0.022,0,0.045-0.001,0.067-0.004
			c1.229-0.167,2.352-0.968,3.022-1.446l0.197-0.14C27.92,25.816,28,25.663,28,25.5v-2c0-0.276-0.224-0.5-0.5-0.5H25v-2.5
			c0-0.276-0.224-0.5-0.5-0.5h-3c-0.276,0-0.5,0.224-0.5,0.5v3C21,23.776,21.224,24,21.5,24z"/>
		<path d="M18,25.833V18.5c0-0.761,0.574-1.397,1.337-1.481c0.177-0.02,0.33-0.131,0.402-0.293c0.34-0.764,0.563-1.544,0.667-2.326
			c0.66-0.167,1.176-0.74,1.262-1.462l0.294-2.445c0.06-0.495-0.093-0.992-0.417-1.362c-0.194-0.221-0.44-0.385-0.712-0.479
			l0.114-2.439l0.467-0.487c0.633-0.701,1.155-1.904,0.052-3.658C20.604,0.696,19.131,0,17.088,0c-0.813,0-2.69,0-4.428,1.225
			C7.715,1.326,7.043,3.693,7.043,6.002c0,0.568,0.14,1.888,0.223,2.616C6.96,8.702,6.681,8.875,6.464,9.119
			c-0.33,0.373-0.485,0.873-0.426,1.374l0.294,2.445c0.092,0.771,0.674,1.372,1.399,1.49c0.229,1.706,1.023,3.385,2.185,4.612
			l-0.44,1.836l-4.549,1.184C1.884,22.854,0,26.54,0,29.5C0,29.776,0.224,30,0.5,30h19.633c0.22,0,0.414-0.144,0.479-0.354
			c0.063-0.211-0.018-0.438-0.2-0.561C18.812,28.014,18,26.92,18,25.833z"/>
	</g>
</g>
<g id="Share_User_2">
</g>
<g id="Shopping_2">
</g>
<g id="Download_2">
</g>
<g id="Upload_2">
</g>
<g id="User_Statistics_2">
</g>
<g id="User_Defense_2">
</g>
<g id="Car_2">
</g>
<g id="Home_2">
</g>
<g id="Park_2">
</g>
<g id="Recicle_User_2">
</g>
<g id="User_Wifi">
</g>
<g id="Attach_2">
</g>
<g id="Disabled_User_2">
</g>
<g id="User_Card_2">
</g>
<g id="Gaming_2">
</g>
<g id="Cloud_2">
</g>
<g id="Database_2">
</g>
<g id="Copyright_2">
</g>
<g id="No_Copyright_2">
</g>
<g id="Creative_Commun_2">
</g>
<g id="Eco-Friendly_2">
</g>
<g id="Percentage_2">
</g>
<g id="User_Love_2">
</g>
<g id="User_Rate_2">
</g>
<g id="User_Key_2">
</g>
<g id="Sleeping_2">
</g>
</svg>
