<?xml version="1.0" encoding="iso-8859-1"?>
<!-- Generator: Adobe Illustrator 19.2.1, SVG Export Plug-In . SVG Version: 6.00 Build 0)  -->
<svg version="1.1" xmlns="http://www.w3.org/2000/svg" xmlns:xlink="http://www.w3.org/1999/xlink" x="0px" y="0px"
	 viewBox="0 0 30 30" style="enable-background:new 0 0 30 30;" xml:space="preserve">
<g id="Add_User">
</g>
<g id="Remove_User">
</g>
<g id="Delete_User">
</g>
<g id="Done">
</g>
<g id="At_Symbol">
</g>
<g id="Question">
</g>
<g id="Answer">
</g>
<g id="Bring_Up">
</g>
<g id="Bring_Down">
</g>
<g id="Dismiss_User">
</g>
<g id="User_Speed">
</g>
<g id="User_Settings">
</g>
<g id="User_Refresh">
</g>
<g id="User_Time">
</g>
<g id="Dollar">
</g>
<g id="Euro">
</g>
<g id="Pound">
</g>
<g id="Bitcoin">
</g>
<g id="Global_User">
</g>
<g id="Waiting_User">
</g>
<g id="Writing_User_2">
</g>
<g id="Search_User">
</g>
<g id="Lock_User">
</g>
<g id="Mark_User">
</g>
<g id="Share_User">
</g>
<g id="Shopping">
</g>
<g id="User_Download">
</g>
<g id="User_Upload">
</g>
<g id="User_Statistics">
</g>
<g id="User_Defense">
</g>
<g id="User_Car">
</g>
<g id="User_Home">
</g>
<g id="Park">
</g>
<g id="Recicle_User">
</g>
<g id="Wifi">
</g>
<g id="Attach_User">
</g>
<g id="Disabled_User">
</g>
<g id="User_Card">
</g>
<g id="Gaming">
</g>
<g id="User_Cloud">
</g>
<g id="User_Database">
</g>
<g id="Copyright">
</g>
<g id="No_Copyright">
</g>
<g id="Creative_Commun">
</g>
<g id="Eco-Friendly">
</g>
<g id="Percentage">
	<g>
		<path d="M20.146,17.854L21.293,19H19.5c-2.481,0-4.5,2.019-4.5,4.5s2.019,4.5,4.5,4.5c0.276,0,0.5-0.224,0.5-0.5
			S19.776,27,19.5,27c-1.93,0-3.5-1.57-3.5-3.5s1.57-3.5,3.5-3.5h1.793l-1.146,1.146c-0.195,0.195-0.195,0.512,0,0.707
			C20.244,21.951,20.372,22,20.5,22s0.256-0.049,0.354-0.146l1.999-1.999c0.046-0.046,0.083-0.102,0.109-0.163
			c0.051-0.122,0.051-0.26,0-0.382c-0.025-0.062-0.062-0.117-0.109-0.163l-1.999-1.999c-0.195-0.195-0.512-0.195-0.707,0
			S19.951,17.658,20.146,17.854z"/>
		<path d="M25.5,19c-0.276,0-0.5,0.224-0.5,0.5s0.224,0.5,0.5,0.5c1.93,0,3.5,1.57,3.5,3.5S27.43,27,25.5,27h-1.793l1.146-1.146
			c0.195-0.195,0.195-0.512,0-0.707s-0.512-0.195-0.707,0l-1.999,1.999c-0.046,0.046-0.083,0.102-0.109,0.163
			c-0.051,0.122-0.051,0.26,0,0.382c0.025,0.062,0.062,0.117,0.109,0.163l1.999,1.999C24.244,29.951,24.372,30,24.5,30
			s0.256-0.049,0.354-0.146c0.195-0.195,0.195-0.512,0-0.707L23.707,28H25.5c2.481,0,4.5-2.019,4.5-4.5S27.981,19,25.5,19z"/>
		<path d="M21.444,28.565c-0.009-0.012-0.069-0.086-0.069-0.086c-0.096-0.107-0.232-0.169-0.375-0.169
			c-0.118,0.027-0.281,0.063-0.376,0.171C20.331,28.815,19.932,29,19.5,29c-3.033,0-5.5-2.468-5.5-5.5
			c0-2.284,1.445-4.354,3.595-5.152c0.222-0.082,0.355-0.309,0.321-0.542c-0.005-0.036-0.01-0.07-0.014-0.102
			c0.825-0.807,1.312-1.984,1.312-3.204c0-0.523,0.17-0.736,0.229-0.766c0.156-0.041,0.283-0.153,0.341-0.304
			c0.026-0.067,0.638-1.661,0.638-2.681c0-0.039-0.005-0.079-0.014-0.117c-0.064-0.266-0.25-0.661-0.59-0.869V6.375
			c0-1.993-0.593-2.783-1.213-3.244C18.536,2.156,17.625,0,14,0c-3.771,0-6.61,3.791-6.61,6.25c0,1.134-0.047,2.056-0.082,2.729
			C7.295,9.226,7.284,9.444,7.277,9.634C6.931,9.84,6.744,10.24,6.679,10.508c-0.009,0.038-0.014,0.078-0.014,0.117
			c0,1.02,0.612,2.613,0.638,2.681c0.058,0.15,0.154,0.253,0.31,0.294c0.09,0.039,0.261,0.252,0.261,0.775
			c0,1.43,1.366,2.83,1.93,3.347c-0.023,0.866-0.208,3.236-1.481,3.792l-5.615,1.365c-1.345,0.465-2.352,1.587-2.694,3.004
			C0.005,25.921,0,25.96,0,26v3.5C0,29.776,0.224,30,0.5,30h19h2.172c0.202,0,0.384-0.122,0.462-0.309s0.035-0.401-0.108-0.545
			L21.444,28.565z"/>
	</g>
</g>
<g id="User_Love">
</g>
<g id="User_Place">
</g>
<g id="User_Key">
</g>
<g id="Sleeping">
</g>
<g id="Add_User_2">
</g>
<g id="Remove_User_2">
</g>
<g id="Delete_User_2">
</g>
<g id="Done_2">
</g>
<g id="At_Symbol_2">
</g>
<g id="Question_2">
</g>
<g id="Answer_2">
</g>
<g id="Bring_Up_2">
</g>
<g id="Bring_Down_2">
</g>
<g id="Dismiss_User_2">
</g>
<g id="User_Speed_2">
</g>
<g id="User_Settings_2">
</g>
<g id="Refresh_2">
</g>
<g id="Time_2">
</g>
<g id="Dollar_2">
</g>
<g id="Euro_2">
</g>
<g id="Pound_2">
</g>
<g id="Bitcoin_2">
</g>
<g id="Global_User_2">
</g>
<g id="Waiting_User_2">
</g>
<g id="Writing_User">
</g>
<g id="Search_User_2">
</g>
<g id="Lock_User_2">
</g>
<g id="Mark_User_2">
</g>
<g id="Share_User_2">
</g>
<g id="Shopping_2">
</g>
<g id="Download_2">
</g>
<g id="Upload_2">
</g>
<g id="User_Statistics_2">
</g>
<g id="User_Defense_2">
</g>
<g id="Car_2">
</g>
<g id="Home_2">
</g>
<g id="Park_2">
</g>
<g id="Recicle_User_2">
</g>
<g id="User_Wifi">
</g>
<g id="Attach_2">
</g>
<g id="Disabled_User_2">
</g>
<g id="User_Card_2">
</g>
<g id="Gaming_2">
</g>
<g id="Cloud_2">
</g>
<g id="Database_2">
</g>
<g id="Copyright_2">
</g>
<g id="No_Copyright_2">
</g>
<g id="Creative_Commun_2">
</g>
<g id="Eco-Friendly_2">
</g>
<g id="Percentage_2">
</g>
<g id="User_Love_2">
</g>
<g id="User_Rate_2">
</g>
<g id="User_Key_2">
</g>
<g id="Sleeping_2">
</g>
</svg>
