<?xml version="1.0" encoding="iso-8859-1"?>
<!-- Generator: Adobe Illustrator 19.2.1, SVG Export Plug-In . SVG Version: 6.00 Build 0)  -->
<svg version="1.1" xmlns="http://www.w3.org/2000/svg" xmlns:xlink="http://www.w3.org/1999/xlink" x="0px" y="0px"
	 viewBox="0 0 30 30" style="enable-background:new 0 0 30 30;" xml:space="preserve">
<g id="Add_User">
</g>
<g id="Remove_User">
</g>
<g id="Delete_User">
</g>
<g id="Done">
</g>
<g id="At_Symbol">
</g>
<g id="Question">
</g>
<g id="Answer">
</g>
<g id="Bring_Up">
</g>
<g id="Bring_Down">
</g>
<g id="Dismiss_User">
</g>
<g id="User_Speed">
</g>
<g id="User_Settings">
</g>
<g id="User_Refresh">
</g>
<g id="User_Time">
</g>
<g id="Dollar">
</g>
<g id="Euro">
</g>
<g id="Pound">
</g>
<g id="Bitcoin">
</g>
<g id="Global_User">
</g>
<g id="Waiting_User">
</g>
<g id="Writing_User_2">
</g>
<g id="Search_User">
</g>
<g id="Lock_User">
</g>
<g id="Mark_User">
</g>
<g id="Share_User">
</g>
<g id="Shopping">
</g>
<g id="User_Download">
</g>
<g id="User_Upload">
</g>
<g id="User_Statistics">
</g>
<g id="User_Defense">
</g>
<g id="User_Car">
</g>
<g id="User_Home">
</g>
<g id="Park">
</g>
<g id="Recicle_User">
</g>
<g id="Wifi">
</g>
<g id="Attach_User">
</g>
<g id="Disabled_User">
</g>
<g id="User_Card">
</g>
<g id="Gaming">
</g>
<g id="User_Cloud">
</g>
<g id="User_Database">
</g>
<g id="Copyright">
</g>
<g id="No_Copyright">
</g>
<g id="Creative_Commun">
</g>
<g id="Eco-Friendly">
</g>
<g id="Percentage">
</g>
<g id="User_Love">
</g>
<g id="User_Place">
</g>
<g id="User_Key">
</g>
<g id="Sleeping">
</g>
<g id="Add_User_2">
</g>
<g id="Remove_User_2">
	<g>
		<path d="M25.75,21c-0.01,0-0.02,0-0.029,0c-1.14-1.274-2.754-2-4.471-2c-2.979,0-5.52,2.235-5.936,5.151
			C14.099,24.551,13.25,25.694,13.25,27c0,1.654,1.346,3,3,3h9.5c2.481,0,4.5-2.019,4.5-4.5S28.231,21,25.75,21z"/>
		<path d="M12.25,27c0-1.42,0.766-2.746,1.998-3.461c0.115-0.066,0.199-0.177,0.232-0.306c0.451-1.716,1.558-3.194,3.113-4.162
			c0.186-0.115,0.275-0.338,0.221-0.55c-0.088-0.342-0.14-0.628-0.163-0.817c0.825-0.806,1.312-1.984,1.312-3.204
			c0-0.523,0.171-0.736,0.229-0.766c0.156-0.041,0.283-0.153,0.342-0.304c0.025-0.067,0.638-1.661,0.638-2.681
			c0-0.04-0.005-0.079-0.014-0.118c-0.064-0.265-0.25-0.66-0.591-0.868V6.375c0-1.992-0.593-2.782-1.212-3.243
			C18.286,2.157,17.376,0,13.75,0C9.979,0,7.14,3.791,7.14,6.25c0,1.134-0.047,2.056-0.081,2.729
			C7.046,9.226,7.034,9.444,7.027,9.634C6.682,9.84,6.494,10.24,6.429,10.507c-0.009,0.039-0.014,0.078-0.014,0.118
			c0,1.02,0.612,2.613,0.638,2.681c0.059,0.15,0.154,0.253,0.311,0.294c0.09,0.039,0.26,0.252,0.26,0.775
			c0,1.43,1.367,2.83,1.932,3.347c-0.024,0.867-0.208,3.236-1.482,3.792l-5.614,1.365c-1.345,0.465-2.352,1.587-2.694,3.004
			C-0.245,25.921-0.25,25.96-0.25,26v3.5c0,0.276,0.224,0.5,0.5,0.5h12.262c0.185,0,0.354-0.102,0.441-0.265s0.077-0.36-0.026-0.514
			C12.484,28.562,12.25,27.794,12.25,27z"/>
	</g>
</g>
<g id="Delete_User_2">
</g>
<g id="Done_2">
</g>
<g id="At_Symbol_2">
</g>
<g id="Question_2">
</g>
<g id="Answer_2">
</g>
<g id="Bring_Up_2">
</g>
<g id="Bring_Down_2">
</g>
<g id="Dismiss_User_2">
</g>
<g id="User_Speed_2">
</g>
<g id="User_Settings_2">
</g>
<g id="Refresh_2">
</g>
<g id="Time_2">
</g>
<g id="Dollar_2">
</g>
<g id="Euro_2">
</g>
<g id="Pound_2">
</g>
<g id="Bitcoin_2">
</g>
<g id="Global_User_2">
</g>
<g id="Waiting_User_2">
</g>
<g id="Writing_User">
</g>
<g id="Search_User_2">
</g>
<g id="Lock_User_2">
</g>
<g id="Mark_User_2">
</g>
<g id="Share_User_2">
</g>
<g id="Shopping_2">
</g>
<g id="Download_2">
</g>
<g id="Upload_2">
</g>
<g id="User_Statistics_2">
</g>
<g id="User_Defense_2">
</g>
<g id="Car_2">
</g>
<g id="Home_2">
</g>
<g id="Park_2">
</g>
<g id="Recicle_User_2">
</g>
<g id="User_Wifi">
</g>
<g id="Attach_2">
</g>
<g id="Disabled_User_2">
</g>
<g id="User_Card_2">
</g>
<g id="Gaming_2">
</g>
<g id="Cloud_2">
</g>
<g id="Database_2">
</g>
<g id="Copyright_2">
</g>
<g id="No_Copyright_2">
</g>
<g id="Creative_Commun_2">
</g>
<g id="Eco-Friendly_2">
</g>
<g id="Percentage_2">
</g>
<g id="User_Love_2">
</g>
<g id="User_Rate_2">
</g>
<g id="User_Key_2">
</g>
<g id="Sleeping_2">
</g>
</svg>
