<?xml version="1.0" encoding="iso-8859-1"?>
<!-- Generator: Adobe Illustrator 19.2.1, SVG Export Plug-In . SVG Version: 6.00 Build 0)  -->
<svg version="1.1" xmlns="http://www.w3.org/2000/svg" xmlns:xlink="http://www.w3.org/1999/xlink" x="0px" y="0px"
	 viewBox="0 0 30 30" style="enable-background:new 0 0 30 30;" xml:space="preserve">
<g id="Add_User">
</g>
<g id="Remove_User">
</g>
<g id="Delete_User">
</g>
<g id="Done">
</g>
<g id="At_Symbol">
</g>
<g id="Question">
</g>
<g id="Answer">
</g>
<g id="Bring_Up">
</g>
<g id="Bring_Down">
</g>
<g id="Dismiss_User">
</g>
<g id="User_Speed">
</g>
<g id="User_Settings">
</g>
<g id="User_Refresh">
</g>
<g id="User_Time">
</g>
<g id="Dollar">
</g>
<g id="Euro">
</g>
<g id="Pound">
</g>
<g id="Bitcoin">
</g>
<g id="Global_User">
</g>
<g id="Waiting_User">
</g>
<g id="Writing_User_2">
</g>
<g id="Search_User">
	<g>
		<path d="M29.634,21.389c-0.044-0.134-0.142-0.242-0.27-0.299c-0.126-0.058-0.273-0.059-0.403-0.003
			c-0.331,0.14-0.696,0.022-0.869-0.282c-0.175-0.31-0.089-0.71,0.201-0.933c0.109-0.083,0.179-0.208,0.193-0.345
			c0.014-0.138-0.029-0.273-0.119-0.378c-0.964-1.12-2.207-1.859-3.593-2.141c-0.137-0.029-0.282,0.003-0.396,0.088
			c-0.114,0.084-0.187,0.212-0.201,0.353C24.138,17.855,23.801,18,23.5,18s-0.638-0.145-0.678-0.55
			c-0.014-0.141-0.087-0.269-0.201-0.353c-0.114-0.085-0.258-0.116-0.396-0.088c-1.386,0.281-2.628,1.021-3.593,2.141
			c-0.09,0.104-0.132,0.24-0.119,0.378c0.014,0.137,0.084,0.262,0.193,0.345c0.29,0.223,0.376,0.623,0.201,0.933
			c-0.173,0.306-0.538,0.423-0.869,0.282c-0.13-0.057-0.276-0.056-0.403,0.003c-0.128,0.057-0.226,0.165-0.27,0.299
			C17.12,22.132,17,22.822,17,23.5s0.12,1.368,0.366,2.11c0.044,0.134,0.142,0.242,0.27,0.299c0.127,0.058,0.274,0.059,0.403,0.003
			c0.329-0.142,0.695-0.023,0.869,0.282c0.175,0.31,0.089,0.71-0.201,0.933c-0.109,0.083-0.179,0.208-0.193,0.345
			c-0.014,0.138,0.029,0.273,0.119,0.378c0.964,1.12,2.207,1.859,3.593,2.141c0.137,0.028,0.281-0.003,0.396-0.088
			c0.114-0.084,0.187-0.212,0.201-0.353C22.862,29.144,23.199,29,23.5,29s0.638,0.145,0.678,0.55
			c0.014,0.141,0.087,0.269,0.201,0.353C24.466,29.967,24.57,30,24.676,30c0.033,0,0.066-0.003,0.099-0.01
			c1.386-0.281,2.628-1.021,3.593-2.141c0.09-0.104,0.132-0.24,0.119-0.378c-0.014-0.137-0.084-0.262-0.193-0.345
			c-0.289-0.222-0.375-0.623-0.201-0.933c0.173-0.305,0.54-0.422,0.869-0.282c0.129,0.055,0.275,0.055,0.403-0.003
			c0.128-0.057,0.226-0.165,0.27-0.299C29.88,24.868,30,24.178,30,23.5S29.88,22.132,29.634,21.389z M23.5,26
			c-1.378,0-2.5-1.121-2.5-2.5s1.122-2.5,2.5-2.5s2.5,1.121,2.5,2.5S24.878,26,23.5,26z"/>
		<path d="M18.439,29.064c-0.193-0.179-0.388-0.356-0.564-0.562c-0.269-0.312-0.398-0.725-0.354-1.153
			c0.021-0.144-0.022-0.288-0.117-0.397c-0.053-0.062-0.119-0.107-0.192-0.137c-0.375-0.174-0.665-0.497-0.795-0.89
			C16.137,25.08,16,24.287,16,23.5s0.137-1.58,0.417-2.426c0.132-0.397,0.427-0.725,0.812-0.896l-0.004-0.009
			c0.064-0.033,0.122-0.08,0.17-0.133c0.095-0.105,0.138-0.266,0.124-0.406c-0.042-0.396,0.083-0.803,0.342-1.112
			c0.097-0.116,0.136-0.27,0.106-0.418c-0.033-0.164-0.054-0.297-0.066-0.396c0.825-0.807,1.312-1.984,1.312-3.203
			c0-0.523,0.17-0.736,0.229-0.766c0.156-0.041,0.283-0.153,0.341-0.304c0.026-0.067,0.638-1.661,0.638-2.681
			c0-0.039-0.005-0.079-0.014-0.117c-0.064-0.266-0.25-0.661-0.59-0.869V6.375c0-1.993-0.593-2.783-1.213-3.244
			C18.536,2.156,17.625,0,14,0c-3.771,0-6.61,3.791-6.61,6.25c0,1.134-0.047,2.056-0.082,2.729C7.295,9.225,7.284,9.444,7.277,9.634
			C6.931,9.84,6.744,10.24,6.679,10.508c-0.009,0.038-0.014,0.078-0.014,0.117c0,1.02,0.612,2.613,0.638,2.681
			c0.058,0.15,0.154,0.253,0.31,0.294c0.09,0.039,0.261,0.252,0.261,0.775c0,1.43,1.366,2.83,1.93,3.347
			c-0.023,0.866-0.208,3.236-1.481,3.792l-5.615,1.365c-1.345,0.465-2.352,1.587-2.694,3.004C0.005,25.921,0,25.96,0,26v3.5
			C0,29.776,0.224,30,0.5,30h17.673c0.206,0,0.39-0.126,0.465-0.317s0.025-0.409-0.125-0.549L18.439,29.064z"/>
	</g>
</g>
<g id="Lock_User">
</g>
<g id="Mark_User">
</g>
<g id="Share_User">
</g>
<g id="Shopping">
</g>
<g id="User_Download">
</g>
<g id="User_Upload">
</g>
<g id="User_Statistics">
</g>
<g id="User_Defense">
</g>
<g id="User_Car">
</g>
<g id="User_Home">
</g>
<g id="Park">
</g>
<g id="Recicle_User">
</g>
<g id="Wifi">
</g>
<g id="Attach_User">
</g>
<g id="Disabled_User">
</g>
<g id="User_Card">
</g>
<g id="Gaming">
</g>
<g id="User_Cloud">
</g>
<g id="User_Database">
</g>
<g id="Copyright">
</g>
<g id="No_Copyright">
</g>
<g id="Creative_Commun">
</g>
<g id="Eco-Friendly">
</g>
<g id="Percentage">
</g>
<g id="User_Love">
</g>
<g id="User_Place">
</g>
<g id="User_Key">
</g>
<g id="Sleeping">
</g>
<g id="Add_User_2">
</g>
<g id="Remove_User_2">
</g>
<g id="Delete_User_2">
</g>
<g id="Done_2">
</g>
<g id="At_Symbol_2">
</g>
<g id="Question_2">
</g>
<g id="Answer_2">
</g>
<g id="Bring_Up_2">
</g>
<g id="Bring_Down_2">
</g>
<g id="Dismiss_User_2">
</g>
<g id="User_Speed_2">
</g>
<g id="User_Settings_2">
</g>
<g id="Refresh_2">
</g>
<g id="Time_2">
</g>
<g id="Dollar_2">
</g>
<g id="Euro_2">
</g>
<g id="Pound_2">
</g>
<g id="Bitcoin_2">
</g>
<g id="Global_User_2">
</g>
<g id="Waiting_User_2">
</g>
<g id="Writing_User">
</g>
<g id="Search_User_2">
</g>
<g id="Lock_User_2">
</g>
<g id="Mark_User_2">
</g>
<g id="Share_User_2">
</g>
<g id="Shopping_2">
</g>
<g id="Download_2">
</g>
<g id="Upload_2">
</g>
<g id="User_Statistics_2">
</g>
<g id="User_Defense_2">
</g>
<g id="Car_2">
</g>
<g id="Home_2">
</g>
<g id="Park_2">
</g>
<g id="Recicle_User_2">
</g>
<g id="User_Wifi">
</g>
<g id="Attach_2">
</g>
<g id="Disabled_User_2">
</g>
<g id="User_Card_2">
</g>
<g id="Gaming_2">
</g>
<g id="Cloud_2">
</g>
<g id="Database_2">
</g>
<g id="Copyright_2">
</g>
<g id="No_Copyright_2">
</g>
<g id="Creative_Commun_2">
</g>
<g id="Eco-Friendly_2">
</g>
<g id="Percentage_2">
</g>
<g id="User_Love_2">
</g>
<g id="User_Rate_2">
</g>
<g id="User_Key_2">
</g>
<g id="Sleeping_2">
</g>
</svg>
