<?xml version="1.0" encoding="iso-8859-1"?>
<!-- Generator: Adobe Illustrator 19.2.1, SVG Export Plug-In . SVG Version: 6.00 Build 0)  -->
<svg version="1.1" xmlns="http://www.w3.org/2000/svg" xmlns:xlink="http://www.w3.org/1999/xlink" x="0px" y="0px"
	 viewBox="0 0 30 30" style="enable-background:new 0 0 30 30;" xml:space="preserve">
<g id="Add_Users">
</g>
<g id="Remove_Users">
</g>
<g id="Delete_Users">
</g>
<g id="Done_3">
</g>
<g id="At_Symbol_3">
</g>
<g id="Question_3">
</g>
<g id="Answer_3">
</g>
<g id="Bring_Up_3">
</g>
<g id="Bring_Down_3">
</g>
<g id="Dismiss_Users">
</g>
<g id="Users_Speed_3">
</g>
<g id="Users_Settings">
</g>
<g id="Refresh_Users">
</g>
<g id="Time_3">
</g>
<g id="Dollar_3">
</g>
<g id="Euro_3">
</g>
<g id="Pound_3">
</g>
<g id="Bitcoin_3">
</g>
<g id="Global_Users">
</g>
<g id="Waiting_Users">
</g>
<g id="Writing_Users">
</g>
<g id="Search_Users">
</g>
<g id="Lock_Users">
</g>
<g id="Mark_Users">
</g>
<g id="Share_Users">
</g>
<g id="Shopping_3">
</g>
<g id="Download_3">
</g>
<g id="Upload_3">
	<g>
		<path d="M24.5,27.938c0.276,0,0.5-0.224,0.5-0.5v-5.73l1.146,1.146C26.244,22.951,26.372,23,26.5,23s0.256-0.049,0.354-0.146
			c0.195-0.195,0.195-0.512,0-0.707l-2-2c-0.047-0.047-0.101-0.08-0.157-0.105c-0.002-0.001-0.003-0.003-0.005-0.004
			c0,0-0.001,0-0.001,0c-0.082-0.034-0.17-0.037-0.257-0.025c-0.019,0.003-0.036,0.006-0.055,0.011
			c-0.084,0.021-0.165,0.057-0.231,0.123l-2,2c-0.195,0.195-0.195,0.512,0,0.707s0.512,0.195,0.707,0L24,21.707v5.73
			C24,27.714,24.224,27.938,24.5,27.938z"/>
		<path d="M29.5,26c-0.276,0-0.5,0.224-0.5,0.5V29h-9v-2.5c0-0.276-0.224-0.5-0.5-0.5S19,26.224,19,26.5v3
			c0,0.276,0.224,0.5,0.5,0.5h10c0.276,0,0.5-0.224,0.5-0.5v-3C30,26.224,29.776,26,29.5,26z"/>
		<path d="M17.721,6.077c0.448,0.491,0.658,1.142,0.575,1.784l-0.229,1.772c-0.079,0.614-0.424,1.181-0.946,1.553
			c-0.095,0.068-0.162,0.166-0.192,0.279c-0.217,0.816-0.599,1.617-1.104,2.316c-0.098,0.135-0.121,0.31-0.063,0.466
			s0.189,0.273,0.351,0.313l2.222,0.538c1.907,0.462,3.501,2.021,4.262,4.173c0.058,0.162,0.204,0.273,0.371,0.311
			c0.162,0.037,0.353-0.021,0.474-0.144c0.081-0.081,0.184-0.156,0.313-0.23l0.094-0.05c0.128-0.062,0.241-0.103,0.365-0.131
			c0.109-0.021,0.229-0.026,0.479-0.008c0.14,0.018,0.259,0.046,0.364,0.086c0.011,0.006,0.021,0.011,0.032,0.016
			c0.101,0.042,0.205,0.106,0.322,0.196l2.152,2.121c0.079,0.079,0.152,0.179,0.231,0.313C27.882,21.906,28.046,22,28.224,22H29.5
			c0.276,0,0.5-0.224,0.5-0.5c0-2.199-1.5-4.936-3.923-5.522l-3.473-0.841l-0.279-1.084c0.922-0.896,1.556-2.115,1.753-3.372
			c0.523-0.154,0.925-0.599,0.996-1.152l0.229-1.772c0.049-0.385-0.069-0.774-0.326-1.069c-0.149-0.172-0.337-0.303-0.546-0.386
			l0.08-1.595l0.327-0.317c0.53-0.547,0.971-1.484,0.055-2.84C24.199,0.521,23.024,0,21.401,0c-0.903,0-2.09,0.087-3.258,0.765
			c-0.234,0.137-0.318,0.436-0.188,0.673c0.708,1.29,0.588,2.54-0.337,3.519c-0.082,0.087-0.13,0.2-0.136,0.319l-0.016,0.315
			c-0.008,0.143,0.047,0.282,0.149,0.382L17.721,6.077z"/>
		<path d="M21.208,21.753c0.079-0.135,0.152-0.234,0.231-0.313l0.35-0.35c0.113-0.113,0.165-0.273,0.141-0.432
			c-0.309-1.937-1.73-4.166-3.853-4.681l-3.473-0.841l-0.279-1.084c0.922-0.896,1.556-2.115,1.753-3.372
			c0.523-0.154,0.925-0.599,0.996-1.152l0.229-1.772c0.049-0.385-0.069-0.774-0.326-1.069c-0.149-0.172-0.337-0.303-0.546-0.386
			l0.08-1.595l0.327-0.317c0.53-0.547,0.971-1.484,0.055-2.84C16.199,0.521,15.024,0,13.401,0c-0.637,0-2.102,0-3.47,0.888
			C6.012,0.97,5.479,2.749,5.479,4.484c0,0.389,0.094,1.244,0.158,1.789C5.404,6.353,5.193,6.491,5.028,6.679
			C4.768,6.976,4.647,7.368,4.697,7.757l0.229,1.771c0.076,0.592,0.529,1.06,1.104,1.181c0.196,1.205,0.797,2.385,1.665,3.266
			l-0.3,1.163l-3.472,0.841C1.5,16.564,0,19.301,0,21.5C0,21.776,0.224,22,0.5,22h20.276C20.954,22,21.118,21.906,21.208,21.753z"/>
	</g>
</g>
<g id="Users_Statistics">
</g>
<g id="Users_Defense">
</g>
<g id="Car_3">
</g>
<g id="Home_3">
</g>
<g id="Park_3">
</g>
<g id="Recicle_Users">
</g>
<g id="Wifi_3">
</g>
<g id="Attach_3">
</g>
<g id="Disabled_Users">
</g>
<g id="Users_Card">
</g>
<g id="Gaming_3">
</g>
<g id="Cloud_3">
</g>
<g id="Database_3">
</g>
<g id="Copyright_3">
</g>
<g id="No_Copzright_3">
</g>
<g id="Creative_Commun_3">
</g>
<g id="Eco-Friendly_3">
</g>
<g id="Percentage_3">
</g>
<g id="Users_Love">
</g>
<g id="Users_Place">
</g>
<g id="Users_Key">
</g>
<g id="Sleeping_3">
</g>
</svg>
