<?xml version="1.0" encoding="iso-8859-1"?>
<!-- Generator: Adobe Illustrator 19.2.1, SVG Export Plug-In . SVG Version: 6.00 Build 0)  -->
<svg version="1.1" xmlns="http://www.w3.org/2000/svg" xmlns:xlink="http://www.w3.org/1999/xlink" x="0px" y="0px"
	 viewBox="0 0 30 30" style="enable-background:new 0 0 30 30;" xml:space="preserve">
<g id="Add_User">
</g>
<g id="Remove_User">
</g>
<g id="Delete_User">
</g>
<g id="Done">
</g>
<g id="At_Symbol">
</g>
<g id="Question">
</g>
<g id="Answer">
</g>
<g id="Bring_Up">
</g>
<g id="Bring_Down">
</g>
<g id="Dismiss_User">
</g>
<g id="User_Speed">
</g>
<g id="User_Settings">
</g>
<g id="User_Refresh">
</g>
<g id="User_Time">
</g>
<g id="Dollar">
</g>
<g id="Euro">
</g>
<g id="Pound">
</g>
<g id="Bitcoin">
</g>
<g id="Global_User">
</g>
<g id="Waiting_User">
</g>
<g id="Writing_User_2">
</g>
<g id="Search_User">
</g>
<g id="Lock_User">
</g>
<g id="Mark_User">
</g>
<g id="Share_User">
</g>
<g id="Shopping">
</g>
<g id="User_Download">
</g>
<g id="User_Upload">
</g>
<g id="User_Statistics">
</g>
<g id="User_Defense">
</g>
<g id="User_Car">
</g>
<g id="User_Home">
</g>
<g id="Park">
</g>
<g id="Recicle_User">
</g>
<g id="Wifi">
</g>
<g id="Attach_User">
</g>
<g id="Disabled_User">
</g>
<g id="User_Card">
</g>
<g id="Gaming">
</g>
<g id="User_Cloud">
</g>
<g id="User_Database">
</g>
<g id="Copyright">
</g>
<g id="No_Copyright">
</g>
<g id="Creative_Commun">
</g>
<g id="Eco-Friendly">
</g>
<g id="Percentage">
</g>
<g id="User_Love">
</g>
<g id="User_Place">
</g>
<g id="User_Key">
</g>
<g id="Sleeping">
</g>
<g id="Add_User_2">
</g>
<g id="Remove_User_2">
</g>
<g id="Delete_User_2">
</g>
<g id="Done_2">
</g>
<g id="At_Symbol_2">
</g>
<g id="Question_2">
</g>
<g id="Answer_2">
</g>
<g id="Bring_Up_2">
</g>
<g id="Bring_Down_2">
</g>
<g id="Dismiss_User_2">
</g>
<g id="User_Speed_2">
</g>
<g id="User_Settings_2">
</g>
<g id="Refresh_2">
</g>
<g id="Time_2">
</g>
<g id="Dollar_2">
</g>
<g id="Euro_2">
</g>
<g id="Pound_2">
</g>
<g id="Bitcoin_2">
</g>
<g id="Global_User_2">
</g>
<g id="Waiting_User_2">
</g>
<g id="Writing_User">
</g>
<g id="Search_User_2">
</g>
<g id="Lock_User_2">
</g>
<g id="Mark_User_2">
</g>
<g id="Share_User_2">
</g>
<g id="Shopping_2">
</g>
<g id="Download_2">
</g>
<g id="Upload_2">
</g>
<g id="User_Statistics_2">
</g>
<g id="User_Defense_2">
	<g>
		<path d="M21.981,25.898c-0.196,0.194-0.198,0.511-0.004,0.707c0.194,0.196,0.513,0.198,0.707,0.003
			c0.818-0.809,2.146-0.811,2.964,0c0.097,0.097,0.225,0.145,0.352,0.145c0.129,0,0.258-0.049,0.355-0.148
			c0.194-0.196,0.192-0.513-0.004-0.707C25.147,24.704,23.187,24.702,21.981,25.898z"/>
		<path d="M19.981,24.223c-0.196,0.194-0.198,0.511-0.004,0.707c0.196,0.195,0.512,0.198,0.708,0.003
			c1.826-1.813,4.803-1.813,6.629,0c0.098,0.097,0.226,0.145,0.353,0.145c0.129,0,0.257-0.049,0.355-0.148
			c0.194-0.196,0.192-0.513-0.004-0.707C25.804,22.025,22.196,22.025,19.981,24.223z"/>
		<path d="M29.852,22.404c-3.229-3.2-8.477-3.2-11.705,0c-0.195,0.194-0.197,0.511-0.003,0.707c0.195,0.196,0.512,0.198,0.708,0.003
			c2.838-2.815,7.457-2.815,10.295,0c0.098,0.097,0.226,0.145,0.353,0.145c0.129,0,0.257-0.049,0.355-0.148
			C30.05,22.916,30.048,22.599,29.852,22.404z"/>
		<path d="M24,27c-0.552,0-1,0.449-1,1s0.448,1,1,1s1-0.449,1-1S24.552,27,24,27z M24,28C24,28,24,28,24,28h0.5H24z"/>
		<path d="M21.535,28.32c-0.02-0.15-0.106-0.284-0.235-0.363c-0.163-0.1-0.286-0.193-0.387-0.294
			c-0.209-0.211-0.366-0.473-0.467-0.777c-0.06-0.18-0.216-0.311-0.402-0.337c-0.434-0.063-0.823-0.255-1.122-0.552
			c-0.25-0.253-0.424-0.567-0.516-0.933c-0.046-0.181-0.188-0.322-0.37-0.365c-0.367-0.087-0.696-0.27-0.953-0.526
			c-0.777-0.784-0.774-2.054,0.005-2.83c0.288-0.286,0.615-0.563,1.029-0.875c0.159-0.12,0.231-0.322,0.186-0.516l-0.192-0.803
			c1.229-1.246,2.065-2.978,2.296-4.749c0.661-0.167,1.176-0.74,1.262-1.461l0.294-2.445c0.06-0.495-0.093-0.992-0.417-1.362
			c-0.194-0.221-0.44-0.385-0.712-0.479l0.114-2.439l0.467-0.487c0.633-0.701,1.155-1.904,0.052-3.658
			C20.603,0.696,19.131,0,17.088,0c-0.813,0-2.69,0-4.428,1.225C7.715,1.326,7.043,3.693,7.043,6.002
			c0,0.568,0.14,1.888,0.223,2.616C6.96,8.702,6.681,8.875,6.464,9.119c-0.33,0.373-0.485,0.873-0.426,1.374l0.294,2.445
			c0.092,0.771,0.674,1.372,1.399,1.49c0.229,1.706,1.023,3.385,2.185,4.612l-0.44,1.836l-4.549,1.184C1.884,22.854,0,26.54,0,29.5
			C0,29.776,0.224,30,0.5,30h20.917c0.179,0,0.345-0.096,0.434-0.251s0.089-0.346-0.002-0.5
			C21.684,28.964,21.577,28.651,21.535,28.32z"/>
	</g>
</g>
<g id="Car_2">
</g>
<g id="Home_2">
</g>
<g id="Park_2">
</g>
<g id="Recicle_User_2">
</g>
<g id="User_Wifi">
</g>
<g id="Attach_2">
</g>
<g id="Disabled_User_2">
</g>
<g id="User_Card_2">
</g>
<g id="Gaming_2">
</g>
<g id="Cloud_2">
</g>
<g id="Database_2">
</g>
<g id="Copyright_2">
</g>
<g id="No_Copyright_2">
</g>
<g id="Creative_Commun_2">
</g>
<g id="Eco-Friendly_2">
</g>
<g id="Percentage_2">
</g>
<g id="User_Love_2">
</g>
<g id="User_Rate_2">
</g>
<g id="User_Key_2">
</g>
<g id="Sleeping_2">
</g>
</svg>
