<?xml version="1.0" encoding="iso-8859-1"?>
<!-- Generator: Adobe Illustrator 19.2.1, SVG Export Plug-In . SVG Version: 6.00 Build 0)  -->
<svg version="1.1" xmlns="http://www.w3.org/2000/svg" xmlns:xlink="http://www.w3.org/1999/xlink" x="0px" y="0px"
	 viewBox="0 0 30 30" style="enable-background:new 0 0 30 30;" xml:space="preserve">
<g id="Add_Users">
</g>
<g id="Remove_Users">
</g>
<g id="Delete_Users">
</g>
<g id="Done_3">
</g>
<g id="At_Symbol_3">
</g>
<g id="Question_3">
</g>
<g id="Answer_3">
</g>
<g id="Bring_Up_3">
</g>
<g id="Bring_Down_3">
</g>
<g id="Dismiss_Users">
</g>
<g id="Users_Speed_3">
	<g>
		<path d="M29.658,16.417l-3.783-1.261c-0.143-0.046-0.3-0.029-0.428,0.054c-0.127,0.081-0.211,0.216-0.228,0.365l-0.551,4.962
			l-1.88-0.94c-0.139-0.069-0.303-0.071-0.443-0.002c-0.14,0.068-0.24,0.198-0.271,0.352l-1.892,9.456
			c-0.047,0.233,0.078,0.468,0.299,0.56C20.545,29.987,20.609,30,20.674,30c0.163,0,0.321-0.08,0.416-0.223l3.538-5.307l2.126,1.063
			c0.132,0.066,0.286,0.069,0.42,0.013c0.135-0.058,0.238-0.173,0.281-0.313l2.522-8.195C30.058,16.779,29.916,16.503,29.658,16.417
			z"/>
		<path d="M17.721,6.077c0.448,0.491,0.658,1.142,0.575,1.784l-0.229,1.772c-0.079,0.614-0.424,1.181-0.946,1.553
			c-0.095,0.068-0.163,0.166-0.193,0.279c-0.217,0.816-0.599,1.617-1.104,2.316c-0.098,0.135-0.122,0.31-0.064,0.466
			s0.189,0.273,0.352,0.313l2.222,0.538c1.59,0.385,2.949,1.515,3.827,3.182c0.085,0.16,0.25,0.263,0.432,0.267
			c0.219,0.005,0.425,0.051,0.613,0.139c0.067,0.031,0.139,0.047,0.211,0.047c0.084,0,0.169-0.021,0.245-0.064
			c0.14-0.079,0.234-0.221,0.252-0.381l0.258-2.323c0.028-0.25-0.135-0.481-0.379-0.541l-1.187-0.287l-0.279-1.084
			c0.922-0.896,1.555-2.116,1.752-3.372c0.522-0.154,0.924-0.599,0.996-1.152l0.229-1.772c0.049-0.385-0.069-0.774-0.326-1.069
			c-0.149-0.172-0.337-0.303-0.545-0.385l0.08-1.596l0.326-0.317c0.53-0.547,0.971-1.484,0.056-2.841
			C24.199,0.521,23.024,0,21.402,0c-0.904,0-2.091,0.087-3.258,0.765c-0.235,0.137-0.318,0.435-0.188,0.673
			c0.708,1.29,0.587,2.54-0.337,3.519c-0.082,0.087-0.13,0.2-0.136,0.319l-0.016,0.315c-0.007,0.143,0.048,0.282,0.15,0.382
			L17.721,6.077z"/>
		<path d="M20.725,21.598l0.37-1.849c0.03-0.147,0.094-0.303,0.198-0.474c0.09-0.147,0.097-0.331,0.019-0.485
			c-0.744-1.47-1.923-2.494-3.235-2.813l-3.472-0.841l-0.279-1.084c0.922-0.896,1.555-2.116,1.752-3.372
			c0.522-0.154,0.924-0.599,0.996-1.152l0.229-1.772c0.049-0.385-0.069-0.774-0.326-1.069c-0.149-0.172-0.337-0.303-0.545-0.385
			l0.08-1.596l0.326-0.317c0.53-0.547,0.971-1.484,0.056-2.841C16.199,0.521,15.024,0,13.402,0c-0.637,0-2.103,0-3.471,0.888
			C6.012,0.97,5.478,2.749,5.478,4.484c0,0.389,0.094,1.243,0.159,1.789C5.405,6.353,5.194,6.49,5.029,6.678
			C4.768,6.975,4.647,7.367,4.697,7.757l0.229,1.771c0.077,0.591,0.53,1.059,1.104,1.18c0.197,1.205,0.797,2.385,1.665,3.266
			l-0.3,1.163l-3.472,0.841C1.5,16.564,0,19.301,0,21.5C0,21.776,0.224,22,0.5,22h19.735C20.473,22,20.678,21.832,20.725,21.598z"/>
	</g>
</g>
<g id="Users_Settings">
</g>
<g id="Refresh_Users">
</g>
<g id="Time_3">
</g>
<g id="Dollar_3">
</g>
<g id="Euro_3">
</g>
<g id="Pound_3">
</g>
<g id="Bitcoin_3">
</g>
<g id="Global_Users">
</g>
<g id="Waiting_Users">
</g>
<g id="Writing_Users">
</g>
<g id="Search_Users">
</g>
<g id="Lock_Users">
</g>
<g id="Mark_Users">
</g>
<g id="Share_Users">
</g>
<g id="Shopping_3">
</g>
<g id="Download_3">
</g>
<g id="Upload_3">
</g>
<g id="Users_Statistics">
</g>
<g id="Users_Defense">
</g>
<g id="Car_3">
</g>
<g id="Home_3">
</g>
<g id="Park_3">
</g>
<g id="Recicle_Users">
</g>
<g id="Wifi_3">
</g>
<g id="Attach_3">
</g>
<g id="Disabled_Users">
</g>
<g id="Users_Card">
</g>
<g id="Gaming_3">
</g>
<g id="Cloud_3">
</g>
<g id="Database_3">
</g>
<g id="Copyright_3">
</g>
<g id="No_Copzright_3">
</g>
<g id="Creative_Commun_3">
</g>
<g id="Eco-Friendly_3">
</g>
<g id="Percentage_3">
</g>
<g id="Users_Love">
</g>
<g id="Users_Place">
</g>
<g id="Users_Key">
</g>
<g id="Sleeping_3">
</g>
</svg>
