<?xml version="1.0" encoding="iso-8859-1"?>
<!-- Generator: Adobe Illustrator 19.2.1, SVG Export Plug-In . SVG Version: 6.00 Build 0)  -->
<svg version="1.1" xmlns="http://www.w3.org/2000/svg" xmlns:xlink="http://www.w3.org/1999/xlink" x="0px" y="0px"
	 viewBox="0 0 30 30" style="enable-background:new 0 0 30 30;" xml:space="preserve">
<g id="Add_Users">
</g>
<g id="Remove_Users">
</g>
<g id="Delete_Users">
</g>
<g id="Done_3">
</g>
<g id="At_Symbol_3">
</g>
<g id="Question_3">
</g>
<g id="Answer_3">
</g>
<g id="Bring_Up_3">
</g>
<g id="Bring_Down_3">
</g>
<g id="Dismiss_Users">
</g>
<g id="Users_Speed_3">
</g>
<g id="Users_Settings">
	<g>
		<path d="M29.634,21.39c-0.044-0.134-0.142-0.242-0.27-0.299c-0.126-0.058-0.273-0.059-0.403-0.003
			c-0.331,0.14-0.696,0.022-0.869-0.282c-0.175-0.31-0.089-0.71,0.201-0.933c0.109-0.083,0.179-0.208,0.193-0.345
			c0.014-0.138-0.029-0.273-0.119-0.378c-0.964-1.12-2.207-1.859-3.593-2.141c-0.137-0.029-0.282,0.003-0.396,0.088
			c-0.114,0.084-0.187,0.212-0.201,0.353C24.138,17.856,23.801,18,23.5,18s-0.638-0.145-0.678-0.55
			c-0.014-0.141-0.087-0.269-0.201-0.353c-0.114-0.085-0.258-0.116-0.396-0.088c-1.386,0.281-2.628,1.021-3.593,2.141
			c-0.09,0.104-0.132,0.24-0.119,0.378c0.014,0.137,0.084,0.262,0.193,0.345c0.29,0.223,0.376,0.623,0.201,0.933
			c-0.173,0.306-0.538,0.423-0.869,0.282c-0.13-0.057-0.276-0.056-0.403,0.003c-0.128,0.057-0.226,0.165-0.27,0.299
			C17.12,22.132,17,22.822,17,23.5s0.12,1.368,0.366,2.11c0.044,0.134,0.142,0.242,0.27,0.299c0.127,0.058,0.274,0.059,0.403,0.003
			c0.329-0.142,0.695-0.023,0.869,0.282c0.175,0.31,0.089,0.71-0.201,0.933c-0.109,0.083-0.179,0.208-0.193,0.345
			c-0.014,0.138,0.029,0.273,0.119,0.378c0.964,1.12,2.207,1.859,3.593,2.141c0.137,0.028,0.281-0.003,0.396-0.088
			c0.114-0.084,0.187-0.212,0.201-0.353C22.862,29.145,23.199,29,23.5,29s0.638,0.145,0.678,0.55
			c0.014,0.141,0.087,0.269,0.201,0.353C24.466,29.967,24.57,30,24.676,30c0.033,0,0.066-0.003,0.099-0.01
			c1.386-0.281,2.628-1.021,3.593-2.141c0.09-0.104,0.132-0.24,0.119-0.378c-0.014-0.137-0.084-0.262-0.193-0.345
			c-0.289-0.222-0.375-0.623-0.201-0.933c0.173-0.305,0.54-0.422,0.869-0.282c0.129,0.055,0.275,0.055,0.403-0.003
			c0.128-0.057,0.226-0.165,0.27-0.299C29.88,24.868,30,24.178,30,23.5S29.88,22.132,29.634,21.39z M23.5,26
			c-1.378,0-2.5-1.121-2.5-2.5s1.122-2.5,2.5-2.5s2.5,1.121,2.5,2.5S24.878,26,23.5,26z"/>
		<path d="M17.721,6.077c0.448,0.491,0.658,1.142,0.575,1.784l-0.229,1.772c-0.079,0.614-0.424,1.181-0.946,1.553
			c-0.095,0.068-0.163,0.166-0.193,0.279c-0.217,0.816-0.599,1.617-1.104,2.316c-0.098,0.135-0.122,0.31-0.064,0.466
			s0.189,0.273,0.352,0.313l2.222,0.538c0.615,0.148,1.209,0.42,1.767,0.805c0.085,0.059,0.184,0.089,0.284,0.089
			c0.063,0,0.127-0.012,0.187-0.036c0.476-0.192,0.919-0.328,1.435-0.424c0.008,0,0.102-0.008,0.109-0.009
			c0.144-0.017,0.274-0.094,0.356-0.214c0.083-0.119,0.109-0.268,0.073-0.408l-0.219-0.85c0.922-0.896,1.555-2.116,1.752-3.372
			c0.522-0.154,0.924-0.599,0.996-1.152l0.229-1.772c0.049-0.385-0.069-0.774-0.326-1.069c-0.149-0.172-0.337-0.303-0.545-0.385
			l0.08-1.596l0.326-0.317c0.53-0.547,0.971-1.484,0.056-2.841c-0.694-1.027-1.869-1.548-3.491-1.548
			c-0.904,0-2.091,0.087-3.258,0.765c-0.235,0.137-0.318,0.435-0.188,0.673c0.708,1.29,0.587,2.54-0.337,3.519
			c-0.082,0.087-0.13,0.2-0.136,0.319L17.467,5.59c-0.007,0.143,0.048,0.282,0.15,0.382L17.721,6.077z"/>
		<path d="M17.495,18.173c0.333-0.388,0.726-0.751,1.234-1.144c0.142-0.109,0.214-0.287,0.189-0.464
			c-0.024-0.178-0.143-0.329-0.309-0.396l-0.095-0.039c-0.143-0.06-0.287-0.117-0.438-0.154l-3.472-0.841l-0.279-1.084
			c0.922-0.896,1.555-2.116,1.752-3.372c0.522-0.154,0.924-0.599,0.996-1.152l0.229-1.772c0.049-0.385-0.069-0.774-0.326-1.069
			c-0.149-0.172-0.337-0.303-0.545-0.385l0.08-1.596l0.326-0.317c0.53-0.547,0.971-1.484,0.056-2.841
			c-0.694-1.027-1.869-1.548-3.491-1.548c-0.637,0-2.103,0-3.471,0.888C6.012,0.969,5.479,2.748,5.479,4.484
			c0,0.389,0.094,1.243,0.159,1.789C5.405,6.352,5.194,6.49,5.029,6.677C4.769,6.974,4.647,7.367,4.697,7.756l0.229,1.771
			c0.077,0.591,0.53,1.059,1.104,1.18c0.197,1.205,0.797,2.385,1.665,3.266l-0.3,1.163l-3.472,0.841C1.5,16.564,0,19.3,0,21.499
			c0,0.276,0.224,0.5,0.5,0.5h14.754c0.229,0,0.429-0.156,0.485-0.379c0.058-0.232,0.125-0.466,0.204-0.704
			c0.146-0.439,0.443-0.817,0.836-1.063c0.142-0.09,0.23-0.245,0.234-0.413C17.023,18.973,17.194,18.523,17.495,18.173z"/>
	</g>
</g>
<g id="Refresh_Users">
</g>
<g id="Time_3">
</g>
<g id="Dollar_3">
</g>
<g id="Euro_3">
</g>
<g id="Pound_3">
</g>
<g id="Bitcoin_3">
</g>
<g id="Global_Users">
</g>
<g id="Waiting_Users">
</g>
<g id="Writing_Users">
</g>
<g id="Search_Users">
</g>
<g id="Lock_Users">
</g>
<g id="Mark_Users">
</g>
<g id="Share_Users">
</g>
<g id="Shopping_3">
</g>
<g id="Download_3">
</g>
<g id="Upload_3">
</g>
<g id="Users_Statistics">
</g>
<g id="Users_Defense">
</g>
<g id="Car_3">
</g>
<g id="Home_3">
</g>
<g id="Park_3">
</g>
<g id="Recicle_Users">
</g>
<g id="Wifi_3">
</g>
<g id="Attach_3">
</g>
<g id="Disabled_Users">
</g>
<g id="Users_Card">
</g>
<g id="Gaming_3">
</g>
<g id="Cloud_3">
</g>
<g id="Database_3">
</g>
<g id="Copyright_3">
</g>
<g id="No_Copzright_3">
</g>
<g id="Creative_Commun_3">
</g>
<g id="Eco-Friendly_3">
</g>
<g id="Percentage_3">
</g>
<g id="Users_Love">
</g>
<g id="Users_Place">
</g>
<g id="Users_Key">
</g>
<g id="Sleeping_3">
</g>
</svg>
