<?xml version="1.0" encoding="iso-8859-1"?>
<!-- Generator: Adobe Illustrator 19.2.1, SVG Export Plug-In . SVG Version: 6.00 Build 0)  -->
<svg version="1.1" xmlns="http://www.w3.org/2000/svg" xmlns:xlink="http://www.w3.org/1999/xlink" x="0px" y="0px"
	 viewBox="0 0 30 30" style="enable-background:new 0 0 30 30;" xml:space="preserve">
<g id="Flag">
</g>
<g id="Umbrella">
</g>
<g id="Briefcase">
</g>
<g id="Box">
</g>
<g id="Magnet">
</g>
<g id="Percent">
</g>
<g id="Rocket">
</g>
<g id="Share">
</g>
<g id="Transmitter">
</g>
<g id="Record_2">
</g>
<g id="Record_1">
</g>
<g id="Anchor">
	<path d="M28.887,21.183c-0.133-0.163-0.354-0.224-0.552-0.155l-3.818,1.333c-0.261,0.091-0.398,0.376-0.307,0.637
		c0.092,0.261,0.378,0.399,0.637,0.307l2.431-0.849c-2.867,3.987-7.342,6.361-12.278,6.514V16h4.5c0.276,0,0.5-0.224,0.5-0.5
		S19.776,15,19.5,15H15V5.949C16.416,5.71,17.5,4.483,17.5,3c0-1.654-1.346-3-3-3s-3,1.346-3,3c0,1.483,1.084,2.71,2.5,2.949V15H9.5
		C9.224,15,9,15.224,9,15.5S9.224,16,9.5,16H14v12.984c-4.742-0.161-9.28-2.59-12.229-6.511l2.382,0.832
		c0.263,0.091,0.546-0.046,0.637-0.307c0.091-0.261-0.046-0.546-0.307-0.637l-3.818-1.333c-0.199-0.067-0.422-0.006-0.555,0.159
		c-0.132,0.166-0.146,0.396-0.035,0.577C3.226,26.844,8.753,30,14.5,30c5.976,0,11.37-3.082,14.43-8.245
		C29.037,21.574,29.02,21.346,28.887,21.183z M12.5,3c0-1.103,0.897-2,2-2s2,0.897,2,2s-0.897,2-2,2S12.5,4.103,12.5,3z"/>
</g>
<g id="Airplane">
</g>
<g id="Car">
</g>
<g id="Newsfeed">
</g>
<g id="Wifi_Tethering">
</g>
<g id="No_Wifi_Tethering">
</g>
<g id="Bar_Chart_2">
</g>
<g id="Shop">
</g>
<g id="Alarm">
</g>
<g id="Sim_Card">
</g>
<g id="Radar">
</g>
<g id="Hand_2">
</g>
<g id="Palette">
</g>
<g id="Cake">
</g>
<g id="Blende">
</g>
<g id="Feather_Pen">
</g>
<g id="Ticket">
</g>
<g id="Medal">
</g>
<g id="Mouse_Pointer_1">
</g>
<g id="Mouse_Pointer_2">
</g>
<g id="Fingerprint">
</g>
<g id="Earth">
</g>
</svg>
