<?xml version="1.0" encoding="iso-8859-1"?>
<!-- Generator: Adobe Illustrator 19.2.1, SVG Export Plug-In . SVG Version: 6.00 Build 0)  -->
<svg version="1.1" xmlns="http://www.w3.org/2000/svg" xmlns:xlink="http://www.w3.org/1999/xlink" x="0px" y="0px"
	 viewBox="0 0 30 30" style="enable-background:new 0 0 30 30;" xml:space="preserve">
<g id="Flag">
</g>
<g id="Umbrella">
</g>
<g id="Briefcase">
</g>
<g id="Box">
</g>
<g id="Magnet">
</g>
<g id="Percent">
</g>
<g id="Rocket">
</g>
<g id="Share">
</g>
<g id="Transmitter">
</g>
<g id="Record_2">
</g>
<g id="Record_1">
</g>
<g id="Anchor">
</g>
<g id="Airplane">
</g>
<g id="Car">
</g>
<g id="Newsfeed">
</g>
<g id="Wifi_Tethering">
</g>
<g id="No_Wifi_Tethering">
</g>
<g id="Bar_Chart_2">
</g>
<g id="Shop">
</g>
<g id="Alarm">
</g>
<g id="Sim_Card">
</g>
<g id="Radar">
</g>
<g id="Hand_2">
</g>
<g id="Palette">
</g>
<g id="Cake">
</g>
<g id="Blende">
	<path d="M29.128,20h-9.614l7.778-13.581C28.994,8.851,30,11.806,30,15C30,16.756,29.683,18.434,29.128,20z M12.654,20l-2.946-5.121
		L12.631,10h5.817l2.78,4.999L18.363,20H12.654z M26.699,5.625c-0.085,0.042-0.163,0.101-0.213,0.19l-4.679,8.17l-7.75-13.938
		C14.37,0.028,14.682,0,15,0C19.735,0,23.95,2.199,26.699,5.625z M12.971,0.153L17.891,9H1.256
		C3.312,4.298,7.707,0.867,12.971,0.153z M0.872,10h10.594L3.053,24.044C1.145,21.527,0,18.401,0,15C0,13.244,0.317,11.566,0.872,10
		z M3.723,24.869l5.396-9.007l8.035,13.966C16.449,29.93,15.733,30,15,30C10.5,30,6.473,28.008,3.723,24.869z M18.205,29.648
		L13.229,21h15.514C26.843,25.348,22.944,28.616,18.205,29.648z"/>
</g>
<g id="Feather_Pen">
</g>
<g id="Ticket">
</g>
<g id="Medal">
</g>
<g id="Mouse_Pointer_1">
</g>
<g id="Mouse_Pointer_2">
</g>
<g id="Fingerprint">
</g>
<g id="Earth">
</g>
</svg>
