<?xml version="1.0" encoding="iso-8859-1"?>
<!-- Generator: Adobe Illustrator 19.2.1, SVG Export Plug-In . SVG Version: 6.00 Build 0)  -->
<svg version="1.1" xmlns="http://www.w3.org/2000/svg" xmlns:xlink="http://www.w3.org/1999/xlink" x="0px" y="0px"
	 viewBox="0 0 30 30" style="enable-background:new 0 0 30 30;" xml:space="preserve">
<g id="Mail">
</g>
<g id="Open_Mail">
</g>
<g id="Mail_Attachmet">
</g>
<g id="Mails">
</g>
<g id="Trash">
</g>
<g id="Trash_Full">
</g>
<g id="Preferences_1">
</g>
<g id="Preferences_2">
</g>
<g id="Mouse">
</g>
<g id="Computer">
</g>
<g id="Notebook">
</g>
<g id="Mobile_Phone">
</g>
<g id="Print">
</g>
<g id="Calculator">
</g>
<g id="Tag">
</g>
<g id="Paperclip">
</g>
<g id="Heart">
</g>
<g id="Lock">
</g>
<g id="Lock_Open">
</g>
<g id="Key_1">
</g>
<g id="Star">
</g>
<g id="Add">
</g>
<g id="Remove">
</g>
<g id="Error">
</g>
<g id="Check_1">
</g>
<g id="Time">
</g>
<g id="Question_Mark">
</g>
<g id="Error_Mark">
</g>
<g id="Sand-Glass">
</g>
<g id="Battery_Full">
</g>
<g id="Battery_Charge">
</g>
<g id="Battery_Half">
</g>
<g id="Battery_Low">
</g>
<g id="No_Battery">
</g>
<g id="Key_2">
</g>
<g id="Link">
</g>
<g id="Brake_Link">
</g>
<g id="Pencil">
</g>
<g id="At">
</g>
<g id="Reply">
</g>
<g id="Accessible">
</g>
<g id="Up_Arrow">
</g>
<g id="Brush">
</g>
<g id="Design_Mug">
</g>
<g id="Design">
</g>
<g id="Server">
</g>
<g id="Database">
</g>
<g id="Save">
</g>
<g id="Female">
</g>
<g id="Male">
</g>
<g id="Book">
</g>
<g id="Power">
</g>
<g id="Reload">
</g>
<g id="Map">
</g>
<g id="Loction_1">
</g>
<g id="Location_2">
</g>
<g id="Globe">
</g>
<g id="Suitcase">
</g>
<g id="Callendar">
	<g>
		<path d="M11.069,23.999c-0.022-0.003-0.045-0.005-0.069-0.005c-1.103,0-2-0.897-2-2c0-0.276-0.224-0.5-0.5-0.5S8,21.718,8,21.994
			c0,1.626,1.3,2.954,2.916,2.999C10.943,24.998,10.971,25,11,25c1.642,0,2.98-1.32,3-2.95c0-0.005,0-0.01,0-0.015
			c0-0.004,0-0.007,0-0.011s0-0.007,0-0.011c0-0.005,0-0.01,0-0.015c-0.012-1.029-0.533-1.916-1.333-2.434
			C13.47,19.015,14,18.076,14,16.997C14,15.344,12.654,14,11,14s-3,1.344-3,2.997c0,0.276,0.224,0.5,0.5,0.5s0.5-0.224,0.5-0.5
			C9,15.896,9.897,15,11,15s2,0.896,2,2.04c0,1.106-0.916,2.041-2,2.041H9.75c-0.276,0-0.5,0.224-0.5,0.5s0.224,0.5,0.5,0.5H11
			c1.118,0,1.994,0.853,2,1.943C12.994,23.092,12.136,23.963,11.069,23.999z"/>
		<path d="M17.5,24c-0.276,0-0.5,0.224-0.5,0.5s0.224,0.5,0.5,0.5h4c0.276,0,0.5-0.224,0.5-0.5S21.776,24,21.5,24H20v-9.5
			c0-0.202-0.122-0.385-0.309-0.462c-0.186-0.079-0.401-0.035-0.545,0.108l-2,2c-0.195,0.195-0.195,0.512,0,0.707
			s0.512,0.195,0.707,0L19,15.707V24H17.5z"/>
		<path d="M26.5,3H22V0.5C22,0.224,21.776,0,21.5,0S21,0.224,21,0.5V3v2.5C21,5.776,20.776,6,20.5,6S20,5.776,20,5.5V3H9V0.5
			C9,0.224,8.776,0,8.5,0S8,0.224,8,0.5V3v2.5C8,5.776,7.776,6,7.5,6S7,5.776,7,5.5V3H3.5C1.57,3,0,4.57,0,6.5v20
			C0,28.43,1.57,30,3.5,30h23c1.93,0,3.5-1.57,3.5-3.5v-20C30,4.57,28.43,3,26.5,3z M29,26.5c0,1.379-1.121,2.5-2.5,2.5h-23
			C2.122,29,1,27.879,1,26.5V10h28V26.5z"/>
	</g>
</g>
<g id="Cloud_Off">
</g>
<g id="File_1">
</g>
<g id="File_2">
</g>
<g id="Folder">
</g>
<g id="Open_Folder">
</g>
<g id="Cloud">
</g>
<g id="Upload_Cloud">
</g>
<g id="Download_Cloud">
</g>
<g id="Eye">
</g>
<g id="Invisible">
</g>
<g id="Assignment">
</g>
<g id="Note_Book">
</g>
<g id="Webpage">
</g>
<g id="Mailbox">
</g>
<g id="Drive">
</g>
<g id="Disc">
</g>
<g id="Wifi_1">
</g>
<g id="Wifi_2">
</g>
<g id="Archive">
</g>
<g id="Archive_File">
</g>
<g id="News">
</g>
<g id="Home">
</g>
<g id="Collaboration">
</g>
<g id="Announcement">
</g>
<g id="Watch">
</g>
<g id="Clock">
</g>
<g id="Volume">
</g>
<g id="Mute">
</g>
<g id="Hand">
</g>
<g id="Layers">
</g>
<g id="Bell">
</g>
<g id="Speach_Bubble">
</g>
<g id="Speach_Bubbles">
</g>
<g id="Zoom_In">
</g>
<g id="Zoom_Out">
</g>
<g id="Search">
</g>
<g id="Back_Arrow">
</g>
<g id="Close">
</g>
<g id="Check_2">
</g>
<g id="Left_Arrow_2">
</g>
<g id="Right_Arrow_2">
</g>
</svg>
