<?xml version="1.0" encoding="iso-8859-1"?>
<!-- Generator: Adobe Illustrator 19.2.1, SVG Export Plug-In . SVG Version: 6.00 Build 0)  -->
<svg version="1.1" xmlns="http://www.w3.org/2000/svg" xmlns:xlink="http://www.w3.org/1999/xlink" x="0px" y="0px"
	 viewBox="0 0 30 30" style="enable-background:new 0 0 30 30;" xml:space="preserve">
<g id="Credit_Card">
</g>
<g id="Banknote">
</g>
<g id="Wallet">
</g>
<g id="Compass">
</g>
<g id="Camera_1">
</g>
<g id="Photo">
</g>
<g id="Picture">
</g>
<g id="Camera_2">
</g>
<g id="No_Camera">
</g>
<g id="Video">
</g>
<g id="Audio">
</g>
<g id="Microphone_1">
</g>
<g id="Microphone_2">
</g>
<g id="No_Microphone">
</g>
<g id="Shopping_Cart">
</g>
<g id="Add_Shopping_Cart">
</g>
<g id="Remove_Shopping_Cart">
</g>
<g id="Shopping_Basket">
</g>
<g id="Jing-Jang">
</g>
<g id="Leaf">
</g>
<g id="Glass">
</g>
<g id="Cup">
</g>
<g id="Mug">
</g>
<g id="Refresh">
</g>
<g id="Login">
</g>
<g id="Logout">
</g>
<g id="Flowchart">
</g>
<g id="Pin_1">
</g>
<g id="Pin_2">
</g>
<g id="User_1">
</g>
<g id="User_2">
</g>
<g id="Users">
</g>
<g id="Adjustments">
</g>
<g id="Type">
</g>
<g id="Format_Size">
</g>
<g id="Menu_1">
</g>
<g id="Other">
</g>
<g id="Flash">
</g>
<g id="No_Flash">
</g>
<g id="Switch_Button_1">
</g>
<g id="Switch_Button_2">
</g>
<g id="Cut">
	<g>
		<path d="M14.5,2.25c0.276,0,0.5-0.224,0.5-0.5V0.5C15,0.224,14.776,0,14.5,0S14,0.224,14,0.5v1.25C14,2.026,14.224,2.25,14.5,2.25
			z"/>
		<path d="M14.5,7.068c0.276,0,0.5-0.224,0.5-0.5V4.159c0-0.276-0.224-0.5-0.5-0.5S14,3.883,14,4.159v2.409
			C14,6.845,14.224,7.068,14.5,7.068z"/>
		<path d="M14.5,11.886c0.276,0,0.5-0.224,0.5-0.5V8.978c0-0.276-0.224-0.5-0.5-0.5S14,8.701,14,8.978v2.409
			C14,11.663,14.224,11.886,14.5,11.886z"/>
		<path d="M14.5,22.932c-0.276,0-0.5,0.224-0.5,0.5v2.409c0,0.276,0.224,0.5,0.5,0.5s0.5-0.224,0.5-0.5v-2.409
			C15,23.156,14.776,22.932,14.5,22.932z"/>
		<path d="M14.5,18.114c-0.276,0-0.5,0.224-0.5,0.5v2.409c0,0.276,0.224,0.5,0.5,0.5s0.5-0.224,0.5-0.5v-2.409
			C15,18.337,14.776,18.114,14.5,18.114z"/>
		<path d="M14.5,27.75c-0.276,0-0.5,0.224-0.5,0.5v1.25c0,0.276,0.224,0.5,0.5,0.5s0.5-0.224,0.5-0.5v-1.25
			C15,27.974,14.776,27.75,14.5,27.75z"/>
		<path d="M21,18.978c-1.319,0-2.43,0.868-2.83,2.062l-3.097-5.562l4.865-8.735c0.134-0.241,0.047-0.545-0.194-0.68
			c-0.241-0.133-0.545-0.048-0.68,0.194l-4.099,7.36c-0.072-0.188-0.251-0.322-0.464-0.322s-0.392,0.134-0.464,0.322l-4.099-7.36
			c-0.134-0.242-0.44-0.327-0.68-0.194c-0.241,0.135-0.328,0.439-0.194,0.68l4.865,8.735L10.83,21.04
			C10.43,19.846,9.319,18.978,8,18.978c-1.654,0-3,1.355-3,3.022s1.346,3.022,3,3.022c1.084,0,2.087-0.592,2.618-1.545l3.782-6.792
			c0.033,0.007,0.064,0.02,0.099,0.02s0.066-0.013,0.099-0.02l3.782,6.792c0.531,0.953,1.534,1.545,2.618,1.545
			c1.654,0,3-1.355,3-3.022S22.654,18.978,21,18.978z M8,24.022c-1.103,0-2-0.907-2-2.022s0.897-2.022,2-2.022s2,0.907,2,2.022
			c0,0.347-0.088,0.69-0.256,0.99C9.39,23.626,8.722,24.022,8,24.022z M21,24.022c-0.722,0-1.39-0.396-1.744-1.032
			C19.088,22.69,19,22.347,19,22c0-1.115,0.897-2.022,2-2.022s2,0.907,2,2.022S22.103,24.022,21,24.022z"/>
	</g>
</g>
<g id="Crop">
</g>
<g id="Sun">
</g>
<g id="USB">
</g>
<g id="Pie_Chart_1">
</g>
<g id="Pie_Chart_2">
</g>
<g id="Line_Chart">
</g>
<g id="Bar_Chart">
</g>
<g id="Target">
</g>
<g id="Flashlight">
</g>
<g id="USB_Device">
</g>
<g id="Eject">
</g>
<g id="Lightbulb">
</g>
<g id="Information">
</g>
<g id="Deactivate_Protection">
</g>
<g id="Active_Protection">
</g>
<g id="Bug">
</g>
<g id="Protection">
</g>
<g id="Phone">
</g>
<g id="List">
</g>
<g id="Plugin_1">
</g>
<g id="Bookmarrk">
</g>
<g id="Handshake">
</g>
<g id="Minimize">
</g>
<g id="Maximize">
</g>
<g id="Diamond">
</g>
<g id="Stop">
</g>
<g id="Shuffle">
</g>
<g id="Undo">
</g>
<g id="Upgrade">
</g>
<g id="Coding">
</g>
<g id="Syncronizaion">
</g>
<g id="Radio">
</g>
<g id="Presentation">
</g>
<g id="Door">
</g>
<g id="Thumbs_Up">
</g>
<g id="Thumbs_Down">
</g>
<g id="Keyboard">
</g>
<g id="_x33_D_Cube">
</g>
<g id="Signal">
</g>
<g id="Dice">
</g>
<g id="Upload">
</g>
<g id="Download">
</g>
<g id="Plugin_2">
</g>
<g id="Shopping_Bag">
</g>
<g id="Lifebelt">
</g>
<g id="Glasses">
</g>
<g id="Parabolic_Antenna">
</g>
<g id="Loudspeaker">
</g>
<g id="Play">
</g>
<g id="Pause">
</g>
<g id="Signpost">
</g>
<g id="Bluetooth">
</g>
<g id="Present">
</g>
<g id="Ruler">
</g>
<g id="Connection">
</g>
<g id="Money">
</g>
<g id="Paper_Plane">
</g>
<g id="Wallet_2">
</g>
</svg>
