<?xml version="1.0" encoding="iso-8859-1"?>
<!-- Generator: Adobe Illustrator 19.2.1, SVG Export Plug-In . SVG Version: 6.00 Build 0)  -->
<svg version="1.1" xmlns="http://www.w3.org/2000/svg" xmlns:xlink="http://www.w3.org/1999/xlink" x="0px" y="0px"
	 viewBox="0 0 30 30" style="enable-background:new 0 0 30 30;" xml:space="preserve">
<g id="Mail">
</g>
<g id="Open_Mail">
</g>
<g id="Mail_Attachmet">
</g>
<g id="Mails">
</g>
<g id="Trash">
</g>
<g id="Trash_Full">
</g>
<g id="Preferences_1">
</g>
<g id="Preferences_2">
</g>
<g id="Mouse">
</g>
<g id="Computer">
</g>
<g id="Notebook">
</g>
<g id="Mobile_Phone">
</g>
<g id="Print">
</g>
<g id="Calculator">
</g>
<g id="Tag">
</g>
<g id="Paperclip">
</g>
<g id="Heart">
</g>
<g id="Lock">
</g>
<g id="Lock_Open">
</g>
<g id="Key_1">
</g>
<g id="Star">
</g>
<g id="Add">
</g>
<g id="Remove">
</g>
<g id="Error">
</g>
<g id="Check_1">
</g>
<g id="Time">
</g>
<g id="Question_Mark">
</g>
<g id="Error_Mark">
</g>
<g id="Sand-Glass">
</g>
<g id="Battery_Full">
</g>
<g id="Battery_Charge">
</g>
<g id="Battery_Half">
</g>
<g id="Battery_Low">
</g>
<g id="No_Battery">
</g>
<g id="Key_2">
</g>
<g id="Link">
</g>
<g id="Brake_Link">
</g>
<g id="Pencil">
</g>
<g id="At">
</g>
<g id="Reply">
</g>
<g id="Accessible">
</g>
<g id="Up_Arrow">
</g>
<g id="Brush">
</g>
<g id="Design_Mug">
	<g>
		<path d="M25.5,12h-17C8.224,12,8,12.224,8,12.5V15H7.283c-2.299,0-4.121,1.649-4.272,3.807C3.003,18.839,3,18.873,3,18.907v0.19
			c0,0.034,0.003,0.068,0.01,0.101C3.162,21.353,4.984,23,7.283,23H8v3.479C8,28.189,9.732,30,11.37,30h11.348
			C24.485,30,26,28.063,26,26.479V12.5C26,12.224,25.776,12,25.5,12z M8,22H7.283c-1.837,0-3.231-1.282-3.281-2.998
			C4.051,17.284,5.445,16,7.283,16H8V22z"/>
		<path d="M26.792,4.638c-0.13-0.094-0.298-0.122-0.45-0.068l-3.551,1.184L27,8.559V5.043C27,4.883,26.923,4.732,26.792,4.638z"/>
		<polygon points="20,8.858 20,11 25.625,11 26.634,9.517 21.983,6.416 		"/>
		<path d="M7.609,8c0.082,0,0.154-0.013,0.233-0.017L8.998,11h3.357l-2.322-4.1C10.336,6.447,10.5,5.867,10.5,5.167
			c0-0.991-0.492-1.547-0.888-1.993C9.291,2.811,9.109,2.59,9.109,2.25V0.5c0-0.276-0.224-0.5-0.5-0.5C6.276,0,4.5,3.055,4.5,4.583
			C4.5,6.199,5.777,8,7.609,8z"/>
		<path d="M19,0.5C19,0.224,18.776,0,18.5,0h-5C13.224,0,13,0.224,13,0.5V2h2c0.276,0,0.5,0.224,0.5,0.5S15.276,3,15,3h-2v1h3
			c0.276,0,0.5,0.224,0.5,0.5S16.276,5,16,5h-3v1h2c0.276,0,0.5,0.224,0.5,0.5S15.276,7,15,7h-2v1h3c0.276,0,0.5,0.224,0.5,0.5
			S16.276,9,16,9h-3v2h6V0.5z"/>
	</g>
</g>
<g id="Design">
</g>
<g id="Server">
</g>
<g id="Database">
</g>
<g id="Save">
</g>
<g id="Female">
</g>
<g id="Male">
</g>
<g id="Book">
</g>
<g id="Power">
</g>
<g id="Reload">
</g>
<g id="Map">
</g>
<g id="Loction_1">
</g>
<g id="Location_2">
</g>
<g id="Globe">
</g>
<g id="Suitcase">
</g>
<g id="Callendar">
</g>
<g id="Cloud_Off">
</g>
<g id="File_1">
</g>
<g id="File_2">
</g>
<g id="Folder">
</g>
<g id="Open_Folder">
</g>
<g id="Cloud">
</g>
<g id="Upload_Cloud">
</g>
<g id="Download_Cloud">
</g>
<g id="Eye">
</g>
<g id="Invisible">
</g>
<g id="Assignment">
</g>
<g id="Note_Book">
</g>
<g id="Webpage">
</g>
<g id="Mailbox">
</g>
<g id="Drive">
</g>
<g id="Disc">
</g>
<g id="Wifi_1">
</g>
<g id="Wifi_2">
</g>
<g id="Archive">
</g>
<g id="Archive_File">
</g>
<g id="News">
</g>
<g id="Home">
</g>
<g id="Collaboration">
</g>
<g id="Announcement">
</g>
<g id="Watch">
</g>
<g id="Clock">
</g>
<g id="Volume">
</g>
<g id="Mute">
</g>
<g id="Hand">
</g>
<g id="Layers">
</g>
<g id="Bell">
</g>
<g id="Speach_Bubble">
</g>
<g id="Speach_Bubbles">
</g>
<g id="Zoom_In">
</g>
<g id="Zoom_Out">
</g>
<g id="Search">
</g>
<g id="Back_Arrow">
</g>
<g id="Close">
</g>
<g id="Check_2">
</g>
<g id="Left_Arrow_2">
</g>
<g id="Right_Arrow_2">
</g>
</svg>
