<?xml version="1.0" encoding="iso-8859-1"?>
<!-- Generator: Adobe Illustrator 19.2.1, SVG Export Plug-In . SVG Version: 6.00 Build 0)  -->
<svg version="1.1" xmlns="http://www.w3.org/2000/svg" xmlns:xlink="http://www.w3.org/1999/xlink" x="0px" y="0px"
	 viewBox="0 0 30 30" style="enable-background:new 0 0 30 30;" xml:space="preserve">
<g id="Credit_Card">
</g>
<g id="Banknote">
</g>
<g id="Wallet">
</g>
<g id="Compass">
</g>
<g id="Camera_1">
</g>
<g id="Photo">
</g>
<g id="Picture">
</g>
<g id="Camera_2">
</g>
<g id="No_Camera">
</g>
<g id="Video">
</g>
<g id="Audio">
</g>
<g id="Microphone_1">
</g>
<g id="Microphone_2">
</g>
<g id="No_Microphone">
</g>
<g id="Shopping_Cart">
</g>
<g id="Add_Shopping_Cart">
</g>
<g id="Remove_Shopping_Cart">
</g>
<g id="Shopping_Basket">
</g>
<g id="Jing-Jang">
</g>
<g id="Leaf">
</g>
<g id="Glass">
</g>
<g id="Cup">
</g>
<g id="Mug">
</g>
<g id="Refresh">
</g>
<g id="Login">
</g>
<g id="Logout">
</g>
<g id="Flowchart">
</g>
<g id="Pin_1">
</g>
<g id="Pin_2">
</g>
<g id="User_1">
</g>
<g id="User_2">
</g>
<g id="Users">
</g>
<g id="Adjustments">
</g>
<g id="Type">
</g>
<g id="Format_Size">
</g>
<g id="Menu_1">
</g>
<g id="Other">
</g>
<g id="Flash">
</g>
<g id="No_Flash">
</g>
<g id="Switch_Button_1">
</g>
<g id="Switch_Button_2">
</g>
<g id="Cut">
</g>
<g id="Crop">
</g>
<g id="Sun">
</g>
<g id="USB">
</g>
<g id="Pie_Chart_1">
</g>
<g id="Pie_Chart_2">
</g>
<g id="Line_Chart">
</g>
<g id="Bar_Chart">
</g>
<g id="Target">
</g>
<g id="Flashlight">
</g>
<g id="USB_Device">
</g>
<g id="Eject">
</g>
<g id="Lightbulb">
</g>
<g id="Information">
</g>
<g id="Deactivate_Protection">
</g>
<g id="Active_Protection">
</g>
<g id="Bug">
</g>
<g id="Protection">
</g>
<g id="Phone">
</g>
<g id="List">
</g>
<g id="Plugin_1">
</g>
<g id="Bookmarrk">
</g>
<g id="Handshake">
</g>
<g id="Minimize">
</g>
<g id="Maximize">
</g>
<g id="Diamond">
</g>
<g id="Stop">
</g>
<g id="Shuffle">
</g>
<g id="Undo">
</g>
<g id="Upgrade">
</g>
<g id="Coding">
</g>
<g id="Syncronizaion">
</g>
<g id="Radio">
</g>
<g id="Presentation">
</g>
<g id="Door">
</g>
<g id="Thumbs_Up">
</g>
<g id="Thumbs_Down">
</g>
<g id="Keyboard">
	<path d="M26.979,11H12.065c0.228-0.886,1.102-1.235,2.426-1.65C15.667,8.98,17,8.562,17,7.192c0-1.461-1.27-2-2.291-2.433
		c-1.014-0.43-1.489-0.692-1.459-1.232C13.264,3.251,13.052,3.016,12.777,3c-0.27-0.018-0.511,0.197-0.526,0.473
		c-0.069,1.3,1.116,1.803,2.068,2.207C15.365,6.124,16,6.447,16,7.192c0,0.572-0.579,0.817-1.809,1.203
		c-1.23,0.386-2.858,0.917-3.134,2.604H3.022C1.355,11,0,12.355,0,14.022v12.957C0,28.645,1.355,30,3.022,30h23.957
		C28.645,30,30,28.645,30,26.979V14.022C30,12.355,28.645,11,26.979,11z M10,14.5c0-0.276,0.224-0.5,0.5-0.5s0.5,0.224,0.5,0.5V16
		h2.5c0.276,0,0.5,0.224,0.5,0.5S13.776,17,13.5,17h-3c-0.276,0-0.5-0.224-0.5-0.5V14.5z M4,14.5C4,14.224,4.224,14,4.5,14
		S5,14.224,5,14.5V16h2.5C7.776,16,8,16.224,8,16.5S7.776,17,7.5,17h-3C4.224,17,4,16.776,4,16.5V14.5z M4,21.5v-2
		C4,19.224,4.224,19,4.5,19S5,19.224,5,19.5V21h2.5C7.776,21,8,21.224,8,21.5S7.776,22,7.5,22h-3C4.224,22,4,21.776,4,21.5z M8.5,27
		h-3C5.224,27,5,26.776,5,26.5v-2C5,24.224,5.224,24,5.5,24S6,24.224,6,24.5V26h2.5C8.776,26,9,26.224,9,26.5S8.776,27,8.5,27z
		 M10,21.5v-2c0-0.276,0.224-0.5,0.5-0.5s0.5,0.224,0.5,0.5V21h2.5c0.276,0,0.5,0.224,0.5,0.5S13.776,22,13.5,22h-3
		C10.224,22,10,21.776,10,21.5z M18.5,27h-7c-0.276,0-0.5-0.224-0.5-0.5v-2c0-0.276,0.224-0.5,0.5-0.5s0.5,0.224,0.5,0.5V26h6.5
		c0.276,0,0.5,0.224,0.5,0.5S18.776,27,18.5,27z M19.5,22h-3c-0.276,0-0.5-0.224-0.5-0.5v-2c0-0.276,0.224-0.5,0.5-0.5
		s0.5,0.224,0.5,0.5V21h2.5c0.276,0,0.5,0.224,0.5,0.5S19.776,22,19.5,22z M19.5,17h-3c-0.276,0-0.5-0.224-0.5-0.5v-2
		c0-0.276,0.224-0.5,0.5-0.5s0.5,0.224,0.5,0.5V16h2.5c0.276,0,0.5,0.224,0.5,0.5S19.776,17,19.5,17z M24.5,27h-3
		c-0.276,0-0.5-0.224-0.5-0.5v-2c0-0.276,0.224-0.5,0.5-0.5s0.5,0.224,0.5,0.5V26h2.5c0.276,0,0.5,0.224,0.5,0.5S24.776,27,24.5,27z
		 M26.5,22h-3c-0.276,0-0.5-0.224-0.5-0.5v-2c0-0.276,0.224-0.5,0.5-0.5s0.5,0.224,0.5,0.5V21h2.5c0.276,0,0.5,0.224,0.5,0.5
		S26.776,22,26.5,22z M26.5,17h-3c-0.276,0-0.5-0.224-0.5-0.5v-2c0-0.276,0.224-0.5,0.5-0.5s0.5,0.224,0.5,0.5V16h2.5
		c0.276,0,0.5,0.224,0.5,0.5S26.776,17,26.5,17z"/>
</g>
<g id="_x33_D_Cube">
</g>
<g id="Signal">
</g>
<g id="Dice">
</g>
<g id="Upload">
</g>
<g id="Download">
</g>
<g id="Plugin_2">
</g>
<g id="Shopping_Bag">
</g>
<g id="Lifebelt">
</g>
<g id="Glasses">
</g>
<g id="Parabolic_Antenna">
</g>
<g id="Loudspeaker">
</g>
<g id="Play">
</g>
<g id="Pause">
</g>
<g id="Signpost">
</g>
<g id="Bluetooth">
</g>
<g id="Present">
</g>
<g id="Ruler">
</g>
<g id="Connection">
</g>
<g id="Money">
</g>
<g id="Paper_Plane">
</g>
<g id="Wallet_2">
</g>
</svg>
