<?xml version="1.0" encoding="iso-8859-1"?>
<!-- Generator: Adobe Illustrator 19.2.1, SVG Export Plug-In . SVG Version: 6.00 Build 0)  -->
<svg version="1.1" xmlns="http://www.w3.org/2000/svg" xmlns:xlink="http://www.w3.org/1999/xlink" x="0px" y="0px"
	 viewBox="0 0 30 30" style="enable-background:new 0 0 30 30;" xml:space="preserve">
<g id="Credit_Card">
</g>
<g id="Banknote">
</g>
<g id="Wallet">
</g>
<g id="Compass">
</g>
<g id="Camera_1">
</g>
<g id="Photo">
</g>
<g id="Picture">
</g>
<g id="Camera_2">
</g>
<g id="No_Camera">
</g>
<g id="Video">
</g>
<g id="Audio">
</g>
<g id="Microphone_1">
</g>
<g id="Microphone_2">
</g>
<g id="No_Microphone">
</g>
<g id="Shopping_Cart">
</g>
<g id="Add_Shopping_Cart">
</g>
<g id="Remove_Shopping_Cart">
</g>
<g id="Shopping_Basket">
</g>
<g id="Jing-Jang">
</g>
<g id="Leaf">
</g>
<g id="Glass">
</g>
<g id="Cup">
</g>
<g id="Mug">
</g>
<g id="Refresh">
</g>
<g id="Login">
</g>
<g id="Logout">
</g>
<g id="Flowchart">
</g>
<g id="Pin_1">
</g>
<g id="Pin_2">
</g>
<g id="User_1">
</g>
<g id="User_2">
</g>
<g id="Users">
</g>
<g id="Adjustments">
</g>
<g id="Type">
</g>
<g id="Format_Size">
</g>
<g id="Menu_1">
</g>
<g id="Other">
</g>
<g id="Flash">
</g>
<g id="No_Flash">
</g>
<g id="Switch_Button_1">
</g>
<g id="Switch_Button_2">
</g>
<g id="Cut">
</g>
<g id="Crop">
</g>
<g id="Sun">
</g>
<g id="USB">
</g>
<g id="Pie_Chart_1">
</g>
<g id="Pie_Chart_2">
</g>
<g id="Line_Chart">
</g>
<g id="Bar_Chart">
</g>
<g id="Target">
</g>
<g id="Flashlight">
</g>
<g id="USB_Device">
</g>
<g id="Eject">
</g>
<g id="Lightbulb">
</g>
<g id="Information">
</g>
<g id="Deactivate_Protection">
</g>
<g id="Active_Protection">
</g>
<g id="Bug">
</g>
<g id="Protection">
</g>
<g id="Phone">
</g>
<g id="List">
</g>
<g id="Plugin_1">
</g>
<g id="Bookmarrk">
</g>
<g id="Handshake">
</g>
<g id="Minimize">
</g>
<g id="Maximize">
</g>
<g id="Diamond">
</g>
<g id="Stop">
</g>
<g id="Shuffle">
</g>
<g id="Undo">
</g>
<g id="Upgrade">
</g>
<g id="Coding">
</g>
<g id="Syncronizaion">
</g>
<g id="Radio">
</g>
<g id="Presentation">
</g>
<g id="Door">
</g>
<g id="Thumbs_Up">
</g>
<g id="Thumbs_Down">
</g>
<g id="Keyboard">
</g>
<g id="_x33_D_Cube">
</g>
<g id="Signal">
</g>
<g id="Dice">
</g>
<g id="Upload">
</g>
<g id="Download">
</g>
<g id="Plugin_2">
</g>
<g id="Shopping_Bag">
</g>
<g id="Lifebelt">
	<path d="M27.711,22.928C29.153,20.624,30,17.912,30,15c0-2.912-0.847-5.624-2.289-7.927c-0.023-0.076-0.058-0.148-0.118-0.208
		c-0.004-0.004-0.01-0.005-0.014-0.009c-1.151-1.772-2.663-3.284-4.435-4.435c-0.004-0.004-0.005-0.009-0.009-0.013
		c-0.06-0.06-0.131-0.095-0.207-0.118C20.625,0.848,17.912,0,15,0c-2.912,0-5.623,0.847-7.927,2.289
		C6.998,2.312,6.925,2.347,6.865,2.407C6.861,2.411,6.86,2.417,6.856,2.421C5.084,3.572,3.572,5.085,2.421,6.856
		C2.417,6.86,2.412,6.861,2.408,6.865c-0.06,0.06-0.095,0.132-0.118,0.207C0.848,9.376,0,12.088,0,15
		c0,2.912,0.848,5.625,2.29,7.928c0.023,0.075,0.058,0.147,0.118,0.207c0.004,0.004,0.009,0.005,0.013,0.009
		c1.151,1.772,2.663,3.284,4.435,4.435c0.004,0.004,0.005,0.01,0.009,0.014c0.06,0.06,0.132,0.095,0.208,0.118
		C9.376,29.153,12.088,30,15,30c2.912,0,5.624-0.847,7.927-2.289c0.076-0.023,0.148-0.058,0.208-0.118
		c0.004-0.004,0.005-0.01,0.009-0.014c1.773-1.151,3.285-2.664,4.436-4.437c0.004-0.004,0.009-0.005,0.013-0.008
		C27.652,23.074,27.687,23.003,27.711,22.928z M15,21.435c-3.548,0-6.435-2.887-6.435-6.435S11.452,8.565,15,8.565
		s6.435,2.887,6.435,6.435S18.548,21.435,15,21.435z M26.592,7.159l-4.81,4.81c-0.747-1.664-2.086-3.004-3.751-3.751l4.81-4.81
		C24.316,4.409,25.591,5.684,26.592,7.159z M7.159,3.408l4.81,4.81c-1.664,0.747-3.004,2.086-3.751,3.751l-4.81-4.81
		C4.409,5.684,5.684,4.409,7.159,3.408z M3.408,22.841l4.81-4.81c0.747,1.665,2.086,3.004,3.751,3.751l-4.81,4.81
		C5.684,25.591,4.409,24.316,3.408,22.841z M22.841,26.592l-4.81-4.81c1.665-0.747,3.005-2.087,3.752-3.751l4.81,4.809
		C25.591,24.316,24.316,25.591,22.841,26.592z"/>
</g>
<g id="Glasses">
</g>
<g id="Parabolic_Antenna">
</g>
<g id="Loudspeaker">
</g>
<g id="Play">
</g>
<g id="Pause">
</g>
<g id="Signpost">
</g>
<g id="Bluetooth">
</g>
<g id="Present">
</g>
<g id="Ruler">
</g>
<g id="Connection">
</g>
<g id="Money">
</g>
<g id="Paper_Plane">
</g>
<g id="Wallet_2">
</g>
</svg>
