<?xml version="1.0" encoding="iso-8859-1"?>
<!-- Generator: Adobe Illustrator 19.2.1, SVG Export Plug-In . SVG Version: 6.00 Build 0)  -->
<svg version="1.1" xmlns="http://www.w3.org/2000/svg" xmlns:xlink="http://www.w3.org/1999/xlink" x="0px" y="0px"
	 viewBox="0 0 30 30" style="enable-background:new 0 0 30 30;" xml:space="preserve">
<g id="Flag">
</g>
<g id="Umbrella">
</g>
<g id="Briefcase">
</g>
<g id="Box">
</g>
<g id="Magnet">
</g>
<g id="Percent">
</g>
<g id="Rocket">
</g>
<g id="Share">
</g>
<g id="Transmitter">
</g>
<g id="Record_2">
</g>
<g id="Record_1">
</g>
<g id="Anchor">
</g>
<g id="Airplane">
</g>
<g id="Car">
</g>
<g id="Newsfeed">
</g>
<g id="Wifi_Tethering">
</g>
<g id="No_Wifi_Tethering">
	<g>
		<path d="M3.451,24.23c0.106,0,0.213-0.034,0.304-0.104c0.219-0.168,0.26-0.482,0.092-0.701C1.984,21.002,1,18.089,1,15
			C1,7.28,7.28,1,15,1c3.081,0,5.998,0.981,8.437,2.838c0.221,0.167,0.534,0.125,0.7-0.095c0.168-0.22,0.125-0.533-0.095-0.701
			C21.429,1.052,18.302,0,15,0C6.729,0,0,6.729,0,15c0,3.312,1.056,6.436,3.054,9.035C3.152,24.163,3.301,24.23,3.451,24.23z"/>
		<path d="M21.295,6.579c0.154-0.229,0.093-0.54-0.136-0.694C19.326,4.652,17.196,4,15,4C8.935,4,4,8.935,4,15
			c0,2.223,0.652,4.353,1.887,6.162C5.983,21.304,6.141,21.38,6.3,21.38c0.097,0,0.195-0.028,0.281-0.087
			c0.228-0.155,0.287-0.467,0.131-0.695C5.592,18.956,5,17.021,5,15C5,9.486,9.486,5,15,5c1.996,0,3.934,0.593,5.601,1.715
			C20.83,6.869,21.14,6.809,21.295,6.579z"/>
		<path d="M15,9c0.956,0,1.899,0.229,2.729,0.663c0.243,0.129,0.546,0.034,0.675-0.211c0.128-0.245,0.033-0.547-0.212-0.675
			C17.22,8.269,16.116,8,15,8c-3.86,0-7,3.14-7,7c0,1.119,0.257,2.194,0.764,3.195c0.088,0.174,0.264,0.274,0.447,0.274
			c0.076,0,0.153-0.018,0.225-0.054c0.247-0.125,0.345-0.426,0.221-0.672C9.221,16.884,9,15.96,9,15C9,11.691,11.691,9,15,9z"/>
		<path d="M29.854,0.854c0.195-0.195,0.195-0.512,0-0.707s-0.512-0.195-0.707,0l-4.25,4.25l-0.001,0.001c0,0,0,0.001,0,0.001
			L0.146,29.146c-0.195,0.195-0.195,0.512,0,0.707C0.244,29.951,0.372,30,0.5,30s0.256-0.049,0.354-0.146l3.921-3.921
			c0.537,0.506,1.115,0.991,1.752,1.43c0.087,0.06,0.186,0.088,0.283,0.088c0.159,0,0.315-0.075,0.412-0.217
			c0.157-0.227,0.1-0.538-0.128-0.695c-0.587-0.404-1.118-0.849-1.612-1.313l2.113-2.113c0.365,0.336,0.756,0.661,1.192,0.96
			c0.086,0.06,0.185,0.088,0.282,0.088c0.159,0,0.316-0.076,0.413-0.218c0.156-0.228,0.098-0.538-0.13-0.694
			c-0.385-0.264-0.729-0.549-1.051-0.843l2.122-2.122c0.196,0.175,0.402,0.341,0.628,0.493c0.085,0.057,0.182,0.084,0.277,0.084
			c0.161,0,0.32-0.078,0.416-0.222c0.154-0.229,0.092-0.54-0.138-0.694c-0.171-0.114-0.328-0.238-0.478-0.367l2.493-2.493
			C14.025,17.354,14.499,17.5,15,17.5c1.379,0,2.5-1.121,2.5-2.5c0-0.501-0.146-0.975-0.416-1.377l2.497-2.497
			C20.498,12.214,21,13.57,21,15c0,1.979-0.977,3.828-2.612,4.947c-0.228,0.156-0.286,0.468-0.131,0.695
			c0.098,0.142,0.254,0.218,0.413,0.218c0.098,0,0.196-0.028,0.282-0.087C20.86,19.468,22,17.31,22,15
			c0-1.696-0.608-3.302-1.711-4.581l2.114-2.114C24.075,10.148,25,12.502,25,15c0,3.288-1.628,6.372-4.354,8.248
			c-0.228,0.157-0.285,0.468-0.129,0.695c0.098,0.142,0.254,0.217,0.412,0.217c0.099,0,0.197-0.028,0.283-0.088
			C24.211,22.009,26,18.617,26,15c0-2.765-1.029-5.37-2.89-7.403l2.124-2.124C27.658,8.065,29,11.423,29,15
			c0,4.61-2.277,8.924-6.092,11.538c-0.229,0.155-0.286,0.467-0.13,0.694c0.097,0.142,0.253,0.218,0.412,0.218
			c0.098,0,0.196-0.028,0.282-0.088C27.56,24.563,30,19.94,30,15c0-3.844-1.446-7.453-4.06-10.233L29.854,0.854z"/>
	</g>
</g>
<g id="Bar_Chart_2">
</g>
<g id="Shop">
</g>
<g id="Alarm">
</g>
<g id="Sim_Card">
</g>
<g id="Radar">
</g>
<g id="Hand_2">
</g>
<g id="Palette">
</g>
<g id="Cake">
</g>
<g id="Blende">
</g>
<g id="Feather_Pen">
</g>
<g id="Ticket">
</g>
<g id="Medal">
</g>
<g id="Mouse_Pointer_1">
</g>
<g id="Mouse_Pointer_2">
</g>
<g id="Fingerprint">
</g>
<g id="Earth">
</g>
</svg>
