<?xml version="1.0" encoding="iso-8859-1"?>
<!-- Generator: Adobe Illustrator 19.2.1, SVG Export Plug-In . SVG Version: 6.00 Build 0)  -->
<svg version="1.1" xmlns="http://www.w3.org/2000/svg" xmlns:xlink="http://www.w3.org/1999/xlink" x="0px" y="0px"
	 viewBox="0 0 30 30" style="enable-background:new 0 0 30 30;" xml:space="preserve">
<g id="Flag">
</g>
<g id="Umbrella">
</g>
<g id="Briefcase">
</g>
<g id="Box">
</g>
<g id="Magnet">
</g>
<g id="Percent">
</g>
<g id="Rocket">
</g>
<g id="Share">
</g>
<g id="Transmitter">
</g>
<g id="Record_2">
</g>
<g id="Record_1">
</g>
<g id="Anchor">
</g>
<g id="Airplane">
</g>
<g id="Car">
</g>
<g id="Newsfeed">
</g>
<g id="Wifi_Tethering">
</g>
<g id="No_Wifi_Tethering">
</g>
<g id="Bar_Chart_2">
</g>
<g id="Shop">
</g>
<g id="Alarm">
</g>
<g id="Sim_Card">
</g>
<g id="Radar">
</g>
<g id="Hand_2">
</g>
<g id="Palette">
	<path d="M29.999,14.847C29.92,6.965,23.453,0.31,15.583,0.011C11.453-0.148,7.561,1.34,4.597,4.193C1.632,7.047,0,10.885,0,15
		c0,8.071,6.221,14.582,14.232,14.98c0.043,0.013,0.09,0.02,0.137,0.02c0.065,0,0.129-0.002,0.193-0.006
		c0.013,0,0.026,0,0.039,0.001c0.05,0.002,0.103-0.006,0.151-0.02c1.485-0.189,2.638-1.461,2.638-2.997
		c0-0.646-0.2-1.261-0.578-1.779c-0.004-0.004-0.007-0.009-0.01-0.013c-0.294-0.444-0.563-0.806-0.802-1.128
		c-0.653-0.878-1.013-1.361-1.114-2.53c-0.012-0.073-0.018-0.148-0.018-0.224c0-0.768,0.625-1.392,1.392-1.392
		c0.895,0,1.944,0.263,3.057,0.542c2.52,0.63,5.656,1.417,8.578-0.633C30.032,18.322,30.01,15.975,29.999,14.847z M7,21.652
		c-1.654,0-3-1.346-3-3s1.346-3,3-3s3,1.346,3,3S8.654,21.652,7,21.652z M8,13c-1.654,0-3-1.346-3-3s1.346-3,3-3s3,1.346,3,3
		S9.654,13,8,13z M17,9c-1.654,0-3-1.346-3-3s1.346-3,3-3s3,1.346,3,3S18.654,9,17,9z M23,16c-1.654,0-3-1.346-3-3s1.346-3,3-3
		s3,1.346,3,3S24.654,16,23,16z"/>
</g>
<g id="Cake">
</g>
<g id="Blende">
</g>
<g id="Feather_Pen">
</g>
<g id="Ticket">
</g>
<g id="Medal">
</g>
<g id="Mouse_Pointer_1">
</g>
<g id="Mouse_Pointer_2">
</g>
<g id="Fingerprint">
</g>
<g id="Earth">
</g>
</svg>
