<?xml version="1.0" encoding="iso-8859-1"?>
<!-- Generator: Adobe Illustrator 19.2.1, SVG Export Plug-In . SVG Version: 6.00 Build 0)  -->
<svg version="1.1" xmlns="http://www.w3.org/2000/svg" xmlns:xlink="http://www.w3.org/1999/xlink" x="0px" y="0px"
	 viewBox="0 0 30 30" style="enable-background:new 0 0 30 30;" xml:space="preserve">
<g id="Mail">
</g>
<g id="Open_Mail">
</g>
<g id="Mail_Attachmet">
</g>
<g id="Mails">
</g>
<g id="Trash">
</g>
<g id="Trash_Full">
	<path d="M29.854,15.303l-0.567-0.567c0.841-1.18,0.733-2.833-0.324-3.891l-9.808-9.807c-1.021-1.022-2.737-1.15-3.891-0.325
		l-0.567-0.567c-0.195-0.195-0.512-0.195-0.707,0L12.207,1.93C12.113,2.023,12.06,2.15,12.06,2.283s0.053,0.26,0.146,0.354L18.57,9
		h-2.456c-0.091-1.642-1.423-3-3.005-3h-2.092c-0.28-1.244-1.375-2.165-2.745-2.249C8.209,3.723,8.139,3.707,8.065,3.707
		C6.602,3.707,5.412,4.672,5.115,6H4.283C2.701,6,1.369,7.358,1.278,9H0.5C0.224,9,0,9.224,0,9.5v18C0,28.879,1.122,30,2.5,30h15
		c1.379,0,2.5-1.121,2.5-2.5V10.43l7.363,7.363c0.098,0.098,0.226,0.146,0.354,0.146s0.256-0.049,0.354-0.146l1.783-1.782
		C29.947,15.917,30,15.79,30,15.657S29.947,15.397,29.854,15.303z M2.278,9C2.368,7.917,3.26,7,4.283,7h0.901
		c0.091,0.094,0.218,0.152,0.359,0.152c0.276,0,0.5-0.224,0.5-0.5c0-1.035,0.798-1.856,1.848-1.939
		c0.054,0.02,0.113,0.031,0.174,0.031c1.152,0,2.021,0.812,2.021,1.889c0,0.276,0.224,0.5,0.5,0.5c0.131,0,0.25-0.051,0.34-0.133
		h2.182c1.002,0,1.88,0.883,1.998,2H2.278z M5,25.5C5,25.776,4.776,26,4.5,26S4,25.776,4,25.5v-12C4,13.224,4.224,13,4.5,13
		S5,13.224,5,13.5V25.5z M10.5,25.5c0,0.276-0.224,0.5-0.5,0.5s-0.5-0.224-0.5-0.5v-12c0-0.276,0.224-0.5,0.5-0.5s0.5,0.224,0.5,0.5
		V25.5z M16,25.5c0,0.276-0.224,0.5-0.5,0.5S15,25.776,15,25.5v-12c0-0.276,0.224-0.5,0.5-0.5s0.5,0.224,0.5,0.5V25.5z"/>
</g>
<g id="Preferences_1">
</g>
<g id="Preferences_2">
</g>
<g id="Mouse">
</g>
<g id="Computer">
</g>
<g id="Notebook">
</g>
<g id="Mobile_Phone">
</g>
<g id="Print">
</g>
<g id="Calculator">
</g>
<g id="Tag">
</g>
<g id="Paperclip">
</g>
<g id="Heart">
</g>
<g id="Lock">
</g>
<g id="Lock_Open">
</g>
<g id="Key_1">
</g>
<g id="Star">
</g>
<g id="Add">
</g>
<g id="Remove">
</g>
<g id="Error">
</g>
<g id="Check_1">
</g>
<g id="Time">
</g>
<g id="Question_Mark">
</g>
<g id="Error_Mark">
</g>
<g id="Sand-Glass">
</g>
<g id="Battery_Full">
</g>
<g id="Battery_Charge">
</g>
<g id="Battery_Half">
</g>
<g id="Battery_Low">
</g>
<g id="No_Battery">
</g>
<g id="Key_2">
</g>
<g id="Link">
</g>
<g id="Brake_Link">
</g>
<g id="Pencil">
</g>
<g id="At">
</g>
<g id="Reply">
</g>
<g id="Accessible">
</g>
<g id="Up_Arrow">
</g>
<g id="Brush">
</g>
<g id="Design_Mug">
</g>
<g id="Design">
</g>
<g id="Server">
</g>
<g id="Database">
</g>
<g id="Save">
</g>
<g id="Female">
</g>
<g id="Male">
</g>
<g id="Book">
</g>
<g id="Power">
</g>
<g id="Reload">
</g>
<g id="Map">
</g>
<g id="Loction_1">
</g>
<g id="Location_2">
</g>
<g id="Globe">
</g>
<g id="Suitcase">
</g>
<g id="Callendar">
</g>
<g id="Cloud_Off">
</g>
<g id="File_1">
</g>
<g id="File_2">
</g>
<g id="Folder">
</g>
<g id="Open_Folder">
</g>
<g id="Cloud">
</g>
<g id="Upload_Cloud">
</g>
<g id="Download_Cloud">
</g>
<g id="Eye">
</g>
<g id="Invisible">
</g>
<g id="Assignment">
</g>
<g id="Note_Book">
</g>
<g id="Webpage">
</g>
<g id="Mailbox">
</g>
<g id="Drive">
</g>
<g id="Disc">
</g>
<g id="Wifi_1">
</g>
<g id="Wifi_2">
</g>
<g id="Archive">
</g>
<g id="Archive_File">
</g>
<g id="News">
</g>
<g id="Home">
</g>
<g id="Collaboration">
</g>
<g id="Announcement">
</g>
<g id="Watch">
</g>
<g id="Clock">
</g>
<g id="Volume">
</g>
<g id="Mute">
</g>
<g id="Hand">
</g>
<g id="Layers">
</g>
<g id="Bell">
</g>
<g id="Speach_Bubble">
</g>
<g id="Speach_Bubbles">
</g>
<g id="Zoom_In">
</g>
<g id="Zoom_Out">
</g>
<g id="Search">
</g>
<g id="Back_Arrow">
</g>
<g id="Close">
</g>
<g id="Check_2">
</g>
<g id="Left_Arrow_2">
</g>
<g id="Right_Arrow_2">
</g>
</svg>
