<?xml version="1.0" encoding="iso-8859-1"?>
<!-- Generator: Adobe Illustrator 19.2.1, SVG Export Plug-In . SVG Version: 6.00 Build 0)  -->
<svg version="1.1" xmlns="http://www.w3.org/2000/svg" xmlns:xlink="http://www.w3.org/1999/xlink" x="0px" y="0px"
	 viewBox="0 0 30 30" style="enable-background:new 0 0 30 30;" xml:space="preserve">
<g id="Flag">
</g>
<g id="Umbrella">
	<path d="M14.5,0C7.434,0,1.505,5.475,1.001,12.464c-0.016,0.224,0.118,0.431,0.329,0.506c0.211,0.075,0.446,0.002,0.576-0.18
		c0.555-0.777,1.633-1.685,2.843-1.685c1.261,0,2.291,0.864,2.835,1.673C7.678,12.917,7.833,13,8,13s0.322-0.083,0.415-0.221
		c0.544-0.809,1.575-1.674,2.835-1.674c1.202,0,2.189,0.785,2.75,1.559V27c0,1.654,1.346,3,3,3s3-1.346,3-3v-0.5
		c0-0.276-0.224-0.5-0.5-0.5S19,26.224,19,26.5V27c0,1.103-0.897,2-2,2c-1.103,0-2-0.897-2-2V12.665
		c0.562-0.774,1.549-1.56,2.75-1.56c1.261,0,2.291,0.864,2.835,1.673C20.678,12.917,20.833,13,21,13
		c0.166,0,0.322-0.083,0.415-0.221c0.544-0.809,1.575-1.674,2.835-1.674c1.211,0,2.288,0.908,2.843,1.685
		C27.188,12.925,27.342,13,27.5,13c0.057,0,0.114-0.01,0.17-0.03c0.21-0.076,0.345-0.283,0.329-0.506C27.495,5.475,21.565,0,14.5,0z
		"/>
</g>
<g id="Briefcase">
</g>
<g id="Box">
</g>
<g id="Magnet">
</g>
<g id="Percent">
</g>
<g id="Rocket">
</g>
<g id="Share">
</g>
<g id="Transmitter">
</g>
<g id="Record_2">
</g>
<g id="Record_1">
</g>
<g id="Anchor">
</g>
<g id="Airplane">
</g>
<g id="Car">
</g>
<g id="Newsfeed">
</g>
<g id="Wifi_Tethering">
</g>
<g id="No_Wifi_Tethering">
</g>
<g id="Bar_Chart_2">
</g>
<g id="Shop">
</g>
<g id="Alarm">
</g>
<g id="Sim_Card">
</g>
<g id="Radar">
</g>
<g id="Hand_2">
</g>
<g id="Palette">
</g>
<g id="Cake">
</g>
<g id="Blende">
</g>
<g id="Feather_Pen">
</g>
<g id="Ticket">
</g>
<g id="Medal">
</g>
<g id="Mouse_Pointer_1">
</g>
<g id="Mouse_Pointer_2">
</g>
<g id="Fingerprint">
</g>
<g id="Earth">
</g>
</svg>
