<?xml version="1.0" encoding="iso-8859-1"?>
<!-- Generator: Adobe Illustrator 19.2.1, SVG Export Plug-In . SVG Version: 6.00 Build 0)  -->
<svg version="1.1" xmlns="http://www.w3.org/2000/svg" xmlns:xlink="http://www.w3.org/1999/xlink" x="0px" y="0px"
	 viewBox="0 0 30 30" style="enable-background:new 0 0 30 30;" xml:space="preserve">
<g id="Mail">
</g>
<g id="Open_Mail">
</g>
<g id="Mail_Attachmet">
</g>
<g id="Mails">
</g>
<g id="Trash">
</g>
<g id="Trash_Full">
</g>
<g id="Preferences_1">
</g>
<g id="Preferences_2">
</g>
<g id="Mouse">
</g>
<g id="Computer">
</g>
<g id="Notebook">
</g>
<g id="Mobile_Phone">
</g>
<g id="Print">
</g>
<g id="Calculator">
</g>
<g id="Tag">
</g>
<g id="Paperclip">
</g>
<g id="Heart">
</g>
<g id="Lock">
</g>
<g id="Lock_Open">
</g>
<g id="Key_1">
</g>
<g id="Star">
</g>
<g id="Add">
</g>
<g id="Remove">
</g>
<g id="Error">
</g>
<g id="Check_1">
</g>
<g id="Time">
</g>
<g id="Question_Mark">
</g>
<g id="Error_Mark">
</g>
<g id="Sand-Glass">
</g>
<g id="Battery_Full">
</g>
<g id="Battery_Charge">
</g>
<g id="Battery_Half">
</g>
<g id="Battery_Low">
</g>
<g id="No_Battery">
</g>
<g id="Key_2">
</g>
<g id="Link">
</g>
<g id="Brake_Link">
</g>
<g id="Pencil">
</g>
<g id="At">
</g>
<g id="Reply">
</g>
<g id="Accessible">
</g>
<g id="Up_Arrow">
</g>
<g id="Brush">
</g>
<g id="Design_Mug">
</g>
<g id="Design">
</g>
<g id="Server">
</g>
<g id="Database">
</g>
<g id="Save">
</g>
<g id="Female">
</g>
<g id="Male">
</g>
<g id="Book">
</g>
<g id="Power">
</g>
<g id="Reload">
</g>
<g id="Map">
</g>
<g id="Loction_1">
</g>
<g id="Location_2">
</g>
<g id="Globe">
</g>
<g id="Suitcase">
</g>
<g id="Callendar">
</g>
<g id="Cloud_Off">
</g>
<g id="File_1">
</g>
<g id="File_2">
</g>
<g id="Folder">
</g>
<g id="Open_Folder">
</g>
<g id="Cloud">
</g>
<g id="Upload_Cloud">
</g>
<g id="Download_Cloud">
</g>
<g id="Eye">
</g>
<g id="Invisible">
</g>
<g id="Assignment">
</g>
<g id="Note_Book">
</g>
<g id="Webpage">
</g>
<g id="Mailbox">
</g>
<g id="Drive">
</g>
<g id="Disc">
</g>
<g id="Wifi_1">
</g>
<g id="Wifi_2">
	<path d="M26.5,9h-2.302C22.154,5.87,18.744,4,15,4c-3.744,0-7.153,1.87-9.197,5H3.5C1.57,9,0,10.57,0,12.5v5
		C0,19.43,1.57,21,3.5,21h2.302c2.044,3.13,5.454,5,9.198,5s7.154-1.87,9.198-5H26.5c1.93,0,3.5-1.57,3.5-3.5v-5
		C30,10.57,28.43,9,26.5,9z M5.534,18.64c-0.124,0.428-0.836,0.428-0.96,0l-1.75-6c-0.077-0.265,0.075-0.543,0.34-0.62
		c0.268-0.079,0.543,0.075,0.62,0.34l1.27,4.354l1.27-4.354c0.124-0.427,0.836-0.427,0.96,0l1.27,4.354l1.27-4.354
		c0.076-0.265,0.351-0.418,0.62-0.34c0.265,0.077,0.417,0.355,0.34,0.62l-1.75,6C8.972,18.854,8.776,19,8.554,19
		s-0.418-0.146-0.48-0.36l-1.27-4.354L5.534,18.64z M15,25c-3.178,0-6.089-1.486-7.975-4h6.649C14.447,19.865,15,17.015,15,15
		c0-1.013,0.249-4.118,1.184-6H7.025C8.911,6.487,11.821,5,15,5c3.178,0,6.089,1.486,7.975,4h-5.65C16.554,10.135,16,12.985,16,15
		c0,1.013-0.249,4.118-1.184,6h8.159C21.089,23.514,18.178,25,15,25z M12.5,14c0.276,0,0.5,0.224,0.5,0.5v4
		c0,0.276-0.224,0.5-0.5,0.5S12,18.776,12,18.5v-4C12,14.224,12.224,14,12.5,14z M12,12.5c0-0.276,0.224-0.5,0.5-0.5
		s0.5,0.224,0.5,0.5c0,0.276-0.224,0.5-0.5,0.5S12,12.776,12,12.5z M22.5,15c0.276,0,0.5,0.224,0.5,0.5S22.776,16,22.5,16H19v2.5
		c0,0.276-0.224,0.5-0.5,0.5S18,18.776,18,18.5v-6c0-0.276,0.224-0.5,0.5-0.5h4c0.276,0,0.5,0.224,0.5,0.5S22.776,13,22.5,13H19v2
		H22.5z M26,18.5c0,0.276-0.224,0.5-0.5,0.5S25,18.776,25,18.5v-4c0-0.276,0.224-0.5,0.5-0.5s0.5,0.224,0.5,0.5V18.5z M25.5,13
		c-0.276,0-0.5-0.224-0.5-0.5c0-0.276,0.224-0.5,0.5-0.5s0.5,0.224,0.5,0.5C26,12.776,25.776,13,25.5,13z"/>
</g>
<g id="Archive">
</g>
<g id="Archive_File">
</g>
<g id="News">
</g>
<g id="Home">
</g>
<g id="Collaboration">
</g>
<g id="Announcement">
</g>
<g id="Watch">
</g>
<g id="Clock">
</g>
<g id="Volume">
</g>
<g id="Mute">
</g>
<g id="Hand">
</g>
<g id="Layers">
</g>
<g id="Bell">
</g>
<g id="Speach_Bubble">
</g>
<g id="Speach_Bubbles">
</g>
<g id="Zoom_In">
</g>
<g id="Zoom_Out">
</g>
<g id="Search">
</g>
<g id="Back_Arrow">
</g>
<g id="Close">
</g>
<g id="Check_2">
</g>
<g id="Left_Arrow_2">
</g>
<g id="Right_Arrow_2">
</g>
</svg>
