<?xml version="1.0" encoding="iso-8859-1"?>
<!-- Generator: Adobe Illustrator 19.2.1, SVG Export Plug-In . SVG Version: 6.00 Build 0)  -->
<svg version="1.1" xmlns="http://www.w3.org/2000/svg" xmlns:xlink="http://www.w3.org/1999/xlink" x="0px" y="0px"
	 viewBox="0 0 30 30" style="enable-background:new 0 0 30 30;" xml:space="preserve">
<g id="Present_1">
</g>
<g id="Present_2">
</g>
<g id="Present_3">
</g>
<g id="Present_Cake">
</g>
<g id="Present_4">
</g>
<g id="Birthday_Cake_1">
</g>
<g id="Birthday_Cake_2">
</g>
<g id="Cake_Piece">
</g>
<g id="Cupcake">
</g>
<g id="Lollipop">
</g>
<g id="Birthday_Greetings_1">
</g>
<g id="Party_Greetings_2">
</g>
<g id="Birthday_Invitation">
</g>
<g id="Birthday_1">
</g>
<g id="Birthday_2">
</g>
<g id="Birthday_Message_1">
</g>
<g id="Birthday_Message_2">
</g>
<g id="Birthyday_Hat_1">
</g>
<g id="Birthay_Hat_2">
</g>
<g id="Birthday_Hat3">
</g>
<g id="Birthday_Decoration_1">
</g>
<g id="Birthday_Decoration_2">
</g>
<g id="Birthday_Decoration_3">
</g>
<g id="Horn_1">
</g>
<g id="Horn_2">
</g>
<g id="Baloon">
</g>
<g id="Balloons_1">
	<path d="M23.211,4.923C23.211,4.923,23.211,4.923,23.211,4.923c-3.27-2.133-6.986-1.245-9.246,2.216
		c-2.12,3.247-1.4,8.554-0.057,10.53l-1.074,0.693c-0.151,0.098-0.238,0.268-0.228,0.447c0.01,0.18,0.115,0.34,0.275,0.42
		l0.176,0.088l-1.974,6.711v-7.376h0.13c0.173,0,0.334-0.09,0.425-0.237s0.1-0.331,0.022-0.486l-0.349-0.697
		c0.347-0.132,0.697-0.33,1.026-0.563c-1.005-2.807-1.106-7.173,0.789-10.076c0.91-1.394,2.056-2.414,3.32-3.048
		C15.31,1.332,13.187,0,10.583,0c-4.07,0-6.805,3.024-6.805,7.525c0,4.315,3.793,8.815,6.079,9.699l-0.352,0.705
		c-0.078,0.155-0.069,0.339,0.022,0.486s0.252,0.237,0.425,0.237h0.13V29.5c0,0.01,0.005,0.018,0.006,0.028
		c0.002,0.035,0.011,0.067,0.02,0.1c0.008,0.03,0.014,0.06,0.028,0.088c0.013,0.028,0.033,0.051,0.051,0.076
		c0.02,0.027,0.038,0.054,0.063,0.076c0.021,0.019,0.047,0.033,0.072,0.048c0.031,0.019,0.06,0.038,0.095,0.05
		c0.009,0.003,0.015,0.01,0.024,0.013C10.489,29.993,10.537,30,10.583,30c0.1,0,0.188-0.037,0.267-0.088
		c0.016-0.01,0.03-0.018,0.044-0.03c0.073-0.059,0.127-0.135,0.158-0.226c0.002-0.006,0.009-0.009,0.011-0.016l2.902-9.869
		l0.177,0.089c0.07,0.035,0.147,0.053,0.224,0.053c0.078,0,0.155-0.019,0.227-0.055c0.141-0.071,0.24-0.206,0.267-0.362l0.167-0.992
		c0.325,0.09,0.713,0.14,1.16,0.14c2.581,0,6.838-1.488,8.717-4.365C27.16,10.818,26.48,7.058,23.211,4.923z M7.3,7.525
		c0,0.276-0.224,0.5-0.5,0.5s-0.5-0.224-0.5-0.5c0-3.086,1.641-5.003,4.283-5.003c0.276,0,0.5,0.224,0.5,0.5s-0.224,0.5-0.5,0.5
		C8.496,3.522,7.3,4.981,7.3,7.525z M21.979,7.727c-0.15,0.232-0.461,0.297-0.692,0.145c-1.593-1.039-3.203-0.597-4.372,1.193
		c-0.097,0.147-0.256,0.227-0.419,0.227c-0.095,0-0.189-0.026-0.273-0.082c-0.231-0.151-0.296-0.461-0.146-0.692
		c1.459-2.23,3.724-2.811,5.757-1.483C22.064,7.186,22.129,7.495,21.979,7.727z"/>
</g>
<g id="Balloons_2">
</g>
<g id="Birthday_Picture">
</g>
<g id="Kid_x27_s_Champagne">
</g>
<g id="Candy">
</g>
<g id="Birthday_Card">
</g>
<g id="Flowers">
</g>
<g id="Birthday_Song">
</g>
<g id="Candle">
</g>
<g id="Sweet_16">
</g>
<g id="Clown">
</g>
<g id="Clown_2">
</g>
<g id="Birthday_Party">
</g>
<g id="Giving_Gift">
</g>
<g id="Present_5">
</g>
<g id="Champagne_in_ice_bucket">
</g>
<g id="Beer">
</g>
<g id="Truffles">
</g>
<g id="Pinata">
</g>
</svg>
