<?xml version="1.0" encoding="iso-8859-1"?>
<!-- Generator: Adobe Illustrator 19.2.1, SVG Export Plug-In . SVG Version: 6.00 Build 0)  -->
<svg version="1.1" xmlns="http://www.w3.org/2000/svg" xmlns:xlink="http://www.w3.org/1999/xlink" x="0px" y="0px"
	 viewBox="0 0 30 30" style="enable-background:new 0 0 30 30;" xml:space="preserve">
<g id="Present_1">
</g>
<g id="Present_2">
</g>
<g id="Present_3">
</g>
<g id="Present_Cake">
</g>
<g id="Present_4">
</g>
<g id="Birthday_Cake_1">
</g>
<g id="Birthday_Cake_2">
</g>
<g id="Cake_Piece">
</g>
<g id="Cupcake">
</g>
<g id="Lollipop">
</g>
<g id="Birthday_Greetings_1">
</g>
<g id="Party_Greetings_2">
</g>
<g id="Birthday_Invitation">
</g>
<g id="Birthday_1">
</g>
<g id="Birthday_2">
</g>
<g id="Birthday_Message_1">
</g>
<g id="Birthday_Message_2">
</g>
<g id="Birthyday_Hat_1">
</g>
<g id="Birthay_Hat_2">
</g>
<g id="Birthday_Hat3">
</g>
<g id="Birthday_Decoration_1">
	<path d="M29.445,10.273c-0.125-0.247-0.428-0.342-0.672-0.218C28.725,10.079,23.87,12.5,15,12.5
		c-8.845,0-13.725-2.421-13.773-2.446C0.979,9.93,0.68,10.029,0.555,10.273C0.43,10.52,0.527,10.82,0.773,10.945
		c0.078,0.04,0.849,0.422,2.272,0.88v7.425c0,0.212,0.133,0.4,0.333,0.471c0.055,0.02,0.111,0.029,0.167,0.029
		c0.147,0,0.291-0.065,0.388-0.185l5.091-6.25c0.045-0.055,0.075-0.118,0.093-0.183c0.724,0.093,1.498,0.171,2.313,0.232l3.11,7.33
		C14.618,20.88,14.799,21,15,21s0.382-0.12,0.46-0.305l3.109-7.33c0.815-0.061,1.589-0.138,2.313-0.232
		c0.018,0.065,0.048,0.127,0.093,0.182l5.091,6.25c0.097,0.119,0.24,0.185,0.388,0.185c0.056,0,0.112-0.01,0.168-0.029
		c0.199-0.07,0.332-0.259,0.332-0.471v-7.425c1.424-0.457,2.195-0.84,2.272-0.88C29.473,10.82,29.571,10.519,29.445,10.273z"/>
</g>
<g id="Birthday_Decoration_2">
</g>
<g id="Birthday_Decoration_3">
</g>
<g id="Horn_1">
</g>
<g id="Horn_2">
</g>
<g id="Baloon">
</g>
<g id="Balloons_1">
</g>
<g id="Balloons_2">
</g>
<g id="Birthday_Picture">
</g>
<g id="Kid_x27_s_Champagne">
</g>
<g id="Candy">
</g>
<g id="Birthday_Card">
</g>
<g id="Flowers">
</g>
<g id="Birthday_Song">
</g>
<g id="Candle">
</g>
<g id="Sweet_16">
</g>
<g id="Clown">
</g>
<g id="Clown_2">
</g>
<g id="Birthday_Party">
</g>
<g id="Giving_Gift">
</g>
<g id="Present_5">
</g>
<g id="Champagne_in_ice_bucket">
</g>
<g id="Beer">
</g>
<g id="Truffles">
</g>
<g id="Pinata">
</g>
</svg>
