<?xml version="1.0" encoding="iso-8859-1"?>
<!-- Generator: Adobe Illustrator 19.2.1, SVG Export Plug-In . SVG Version: 6.00 Build 0)  -->
<svg version="1.1" xmlns="http://www.w3.org/2000/svg" xmlns:xlink="http://www.w3.org/1999/xlink" x="0px" y="0px"
	 viewBox="0 0 30 30" style="enable-background:new 0 0 30 30;" xml:space="preserve">
<g id="Present_1">
</g>
<g id="Present_2">
</g>
<g id="Present_3">
</g>
<g id="Present_Cake">
</g>
<g id="Present_4">
</g>
<g id="Birthday_Cake_1">
</g>
<g id="Birthday_Cake_2">
</g>
<g id="Cake_Piece">
</g>
<g id="Cupcake">
</g>
<g id="Lollipop">
</g>
<g id="Birthday_Greetings_1">
</g>
<g id="Party_Greetings_2">
</g>
<g id="Birthday_Invitation">
</g>
<g id="Birthday_1">
</g>
<g id="Birthday_2">
</g>
<g id="Birthday_Message_1">
</g>
<g id="Birthday_Message_2">
</g>
<g id="Birthyday_Hat_1">
</g>
<g id="Birthay_Hat_2">
</g>
<g id="Birthday_Hat3">
</g>
<g id="Birthday_Decoration_1">
</g>
<g id="Birthday_Decoration_2">
</g>
<g id="Birthday_Decoration_3">
</g>
<g id="Horn_1">
</g>
<g id="Horn_2">
</g>
<g id="Baloon">
</g>
<g id="Balloons_1">
</g>
<g id="Balloons_2">
</g>
<g id="Birthday_Picture">
</g>
<g id="Kid_x27_s_Champagne">
</g>
<g id="Candy">
</g>
<g id="Birthday_Card">
</g>
<g id="Flowers">
</g>
<g id="Birthday_Song">
	<g>
		<path d="M29.8,8.1l-4-3c-0.15-0.114-0.355-0.132-0.523-0.047C25.107,5.138,25,5.311,25,5.5v7.604
			c-0.602-0.183-1.386-0.098-2.147,0.264c-1.349,0.639-2.11,1.813-1.774,2.73c0.127,0.344,0.39,0.605,0.762,0.758
			c0.235,0.096,0.506,0.143,0.797,0.143c0.473,0,0.999-0.124,1.511-0.367c1.236-0.586,1.968-1.619,1.825-2.494
			C25.985,14.093,26,14.049,26,14V6.5l3.2,2.4c0.221,0.165,0.533,0.123,0.7-0.1C30.065,8.579,30.021,8.266,29.8,8.1z"/>
		<path d="M11,9.104c-0.601-0.182-1.385-0.097-2.147,0.265c-1.348,0.639-2.111,1.813-1.774,2.73
			c0.126,0.344,0.389,0.606,0.761,0.758C8.075,12.952,8.346,13,8.637,13c0.473,0,0.998-0.125,1.511-0.368
			c1.276-0.605,2.015-1.686,1.806-2.578C11.982,9.991,12,9.922,12,9.849V1c0-0.165-0.082-0.319-0.217-0.413
			c-0.137-0.093-0.31-0.114-0.463-0.054l-7,2.712C4.127,3.321,4,3.506,4,3.712v7.391c-0.601-0.182-1.384-0.096-2.147,0.265
			c-1.348,0.639-2.111,1.813-1.774,2.73c0.126,0.344,0.389,0.606,0.761,0.758C1.075,14.952,1.346,15,1.637,15
			c0.473,0,0.998-0.125,1.511-0.368c1.236-0.586,1.968-1.618,1.825-2.493C4.985,12.094,5,12.049,5,12V4.055l6-2.325V9.104z"/>
		<path d="M20.143,19H15.5v-2.092c0.581-0.207,1-0.757,1-1.408c0-0.639-0.761-1.81-1.088-2.284c-0.188-0.271-0.636-0.271-0.823,0
			C14.261,13.69,13.5,14.861,13.5,15.5c0,0.651,0.419,1.201,1,1.408V19H9.857C8.282,19,7,20.282,7,21.857
			c0,1.602,1.183,2.976,2.692,3.127c0.844,0.089,1.693-0.191,2.32-0.76c0.187-0.169,0.351-0.36,0.488-0.567
			C13.038,24.466,13.958,25,15,25s1.962-0.534,2.5-1.343c0.137,0.207,0.3,0.398,0.487,0.567c0.627,0.568,1.48,0.849,2.32,0.76
			C21.817,24.833,23,23.459,23,21.857C23,20.282,21.718,19,20.143,19z"/>
		<path d="M19.994,26.001c-0.901,0-1.784-0.31-2.494-0.879c-1.402,1.123-3.599,1.123-5,0c-0.818,0.656-1.867,0.968-2.913,0.856
			C9.011,25.921,8.478,25.719,8,25.428V28.5C8,28.776,8.224,29,8.5,29h13c0.276,0,0.5-0.224,0.5-0.5v-3.073
			c-0.479,0.292-1.014,0.495-1.593,0.553C20.27,25.994,20.132,26.001,19.994,26.001z"/>
	</g>
</g>
<g id="Candle">
</g>
<g id="Sweet_16">
</g>
<g id="Clown">
</g>
<g id="Clown_2">
</g>
<g id="Birthday_Party">
</g>
<g id="Giving_Gift">
</g>
<g id="Present_5">
</g>
<g id="Champagne_in_ice_bucket">
</g>
<g id="Beer">
</g>
<g id="Truffles">
</g>
<g id="Pinata">
</g>
</svg>
