<?xml version="1.0" encoding="iso-8859-1"?>
<!-- Generator: Adobe Illustrator 19.2.1, SVG Export Plug-In . SVG Version: 6.00 Build 0)  -->
<svg version="1.1" xmlns="http://www.w3.org/2000/svg" xmlns:xlink="http://www.w3.org/1999/xlink" x="0px" y="0px"
	 viewBox="0 0 30 30" style="enable-background:new 0 0 30 30;" xml:space="preserve">
<g id="Present_1">
</g>
<g id="Present_2">
</g>
<g id="Present_3">
</g>
<g id="Present_Cake">
</g>
<g id="Present_4">
</g>
<g id="Birthday_Cake_1">
</g>
<g id="Birthday_Cake_2">
</g>
<g id="Cake_Piece">
</g>
<g id="Cupcake">
</g>
<g id="Lollipop">
</g>
<g id="Birthday_Greetings_1">
</g>
<g id="Party_Greetings_2">
</g>
<g id="Birthday_Invitation">
</g>
<g id="Birthday_1">
</g>
<g id="Birthday_2">
	<g>
		<path d="M7.002,8c1.103,0,2-0.891,2-1.985V3c0-1.103-0.9-2-2.007-2C5.896,1,5.002,1.894,5.002,2.993v3.015
			C5.002,7.106,5.899,8,7.002,8z"/>
		<path d="M22.002,8c1.103,0,2-0.891,2-1.985V3c0-1.103-0.9-2-2.007-2c-1.099,0-1.993,0.894-1.993,1.993v3.015
			C20.002,7.106,20.899,8,22.002,8z"/>
		<path d="M20.502,18h-5.5v-2.151c0.507-0.279,1-0.888,1-1.349c0-0.321-0.36-1.082-1.072-2.259c-0.181-0.299-0.675-0.299-0.855,0
			c-0.711,1.177-1.072,1.938-1.072,2.259c0,0.461,0.493,1.07,1,1.349V18h-5.5c-1.378,0-2.5,1.121-2.5,2.5v0.184
			c0,1.176,0.782,2.532,1.742,3.025c0.859,0.44,1.774,0.411,2.578-0.08c0.529-0.323,0.967-0.825,1.262-1.411
			C12.258,23.222,13.415,24,14.502,24c1.087,0,2.243-0.777,2.917-1.78c0.297,0.588,0.735,1.091,1.266,1.414
			c0.425,0.26,0.881,0.39,1.342,0.39c0.412,0,0.83-0.104,1.233-0.313c0.961-0.494,1.742-1.854,1.742-3.03V20.5
			C23.002,19.121,21.881,18,20.502,18z"/>
		<path d="M20.026,25.023c-0.646,0-1.289-0.186-1.863-0.536c-0.3-0.183-0.577-0.407-0.827-0.667C16.499,24.56,15.475,25,14.502,25
			c-0.974,0-1.998-0.441-2.835-1.182c-0.249,0.259-0.525,0.481-0.823,0.664c-1.097,0.67-2.393,0.712-3.556,0.116
			c-0.099-0.051-0.191-0.117-0.286-0.179V24.5c0,1.379,1.122,2.5,2.5,2.5h10c1.379,0,2.5-1.121,2.5-2.5v-0.079
			c-0.094,0.062-0.187,0.129-0.285,0.179C21.173,24.881,20.604,25.023,20.026,25.023z"/>
		<path d="M28.987,10.501l0.008-2.993c0.002-0.936-0.361-1.817-1.022-2.48S26.432,4,25.495,4h-0.493v2.015
			c0,1.646-1.346,2.985-3,2.985s-3-1.342-3-2.993V4h-9v2.015c0,1.646-1.346,2.985-3,2.985s-3-1.342-3-2.993V4H3.51
			c-1.925,0-3.496,1.566-3.5,3.492l-0.007,3.007l0,0.001l0,0.001l0.012,16.001C0.016,28.431,1.586,30,3.515,30H25.5
			c0.936,0,1.814-0.364,2.476-1.026c0.661-0.661,1.025-1.541,1.024-2.476L28.987,10.501z M27.269,28.268
			C26.796,28.739,26.168,29,25.5,29H3.515c-1.378,0-2.499-1.121-2.5-2.498L1.003,11h26.984L28,26.498
			C28,27.166,27.74,27.795,27.269,28.268z"/>
	</g>
</g>
<g id="Birthday_Message_1">
</g>
<g id="Birthday_Message_2">
</g>
<g id="Birthyday_Hat_1">
</g>
<g id="Birthay_Hat_2">
</g>
<g id="Birthday_Hat3">
</g>
<g id="Birthday_Decoration_1">
</g>
<g id="Birthday_Decoration_2">
</g>
<g id="Birthday_Decoration_3">
</g>
<g id="Horn_1">
</g>
<g id="Horn_2">
</g>
<g id="Baloon">
</g>
<g id="Balloons_1">
</g>
<g id="Balloons_2">
</g>
<g id="Birthday_Picture">
</g>
<g id="Kid_x27_s_Champagne">
</g>
<g id="Candy">
</g>
<g id="Birthday_Card">
</g>
<g id="Flowers">
</g>
<g id="Birthday_Song">
</g>
<g id="Candle">
</g>
<g id="Sweet_16">
</g>
<g id="Clown">
</g>
<g id="Clown_2">
</g>
<g id="Birthday_Party">
</g>
<g id="Giving_Gift">
</g>
<g id="Present_5">
</g>
<g id="Champagne_in_ice_bucket">
</g>
<g id="Beer">
</g>
<g id="Truffles">
</g>
<g id="Pinata">
</g>
</svg>
