<?xml version="1.0" encoding="iso-8859-1"?>
<!-- Generator: Adobe Illustrator 19.2.1, SVG Export Plug-In . SVG Version: 6.00 Build 0)  -->
<svg version="1.1" xmlns="http://www.w3.org/2000/svg" xmlns:xlink="http://www.w3.org/1999/xlink" x="0px" y="0px"
	 viewBox="0 0 30 30" style="enable-background:new 0 0 30 30;" xml:space="preserve">
<g id="Present_1">
</g>
<g id="Present_2">
</g>
<g id="Present_3">
</g>
<g id="Present_Cake">
</g>
<g id="Present_4">
</g>
<g id="Birthday_Cake_1">
</g>
<g id="Birthday_Cake_2">
</g>
<g id="Cake_Piece">
</g>
<g id="Cupcake">
</g>
<g id="Lollipop">
</g>
<g id="Birthday_Greetings_1">
</g>
<g id="Party_Greetings_2">
</g>
<g id="Birthday_Invitation">
</g>
<g id="Birthday_1">
</g>
<g id="Birthday_2">
</g>
<g id="Birthday_Message_1">
	<g>
		<rect x="14" y="12" width="1" height="2"/>
		<path d="M15,9.511c-0.004-0.153-0.212-0.589-0.5-1.073c-0.288,0.485-0.496,0.921-0.5,1.074c0,0.275,0.224,0.5,0.5,0.5
			C14.775,10.011,15,9.787,15,9.511z"/>
		<path d="M16.484,17.697c-0.444,0.58-1.15,0.955-1.944,0.955c-0.795,0-1.502-0.384-1.941-0.974
			c-0.389,0.476-0.963,0.81-1.599,0.922v0.809C11,20,11.074,20,11.35,20h6.3c0.275,0,0.35,0,0.35-0.59v-0.811
			C17.393,18.487,16.852,18.162,16.484,17.697z"/>
		<path d="M10.479,17.644c0.007,0,0.014-0.004,0.021-0.004c0.022,0,0.04,0.01,0.062,0.012c0.001,0,0.002,0,0.003,0
			c0.819,0,1.564-0.663,1.564-1.392c0-0.276,0.224-0.5,0.5-0.5s0.5,0.224,0.5,0.5c0,0.768,0.633,1.392,1.412,1.392
			c0.776,0,1.432-0.638,1.432-1.392c0-0.276,0.224-0.5,0.5-0.5s0.5,0.224,0.5,0.5c0,0.739,0.685,1.388,1.467,1.391
			c0.021-0.003,0.039-0.012,0.06-0.012c0.009,0,0.016,0.004,0.024,0.005C19.306,17.603,20,16.965,20,16.261v-0.63
			c0-0.333-0.607-0.63-1.087-0.63H15.5h-2h-3.413C9.608,15,9,15.297,9,15.63v0.63C9,16.964,9.695,17.599,10.479,17.644z"/>
		<path d="M6,23h17V6H6V23z M8,15.63C8,14.655,9.079,14,10.087,14H13v-2.5c0-0.276,0.224-0.5,0.5-0.5h0.894
			C13.617,10.944,13,10.302,13,9.511c0-0.639,0.761-1.81,1.088-2.284c0.188-0.271,0.636-0.271,0.823,0
			C15.239,7.701,16,8.872,16,9.511c0,0.791-0.617,1.434-1.394,1.489H15.5c0.276,0,0.5,0.224,0.5,0.5V14h2.913
			C19.921,14,21,14.655,21,15.63v0.63c0,1.097-0.886,2.073-2,2.325v0.825c0,0.394,0,1.59-1.35,1.59h-6.3C10,21,10,19.804,10,19.41
			v-0.827c-1.115-0.255-2-1.228-2-2.322V15.63z"/>
		<path d="M6,25.718C6,28.079,7.921,30,10.283,30h8.435C21.079,30,23,28.079,23,25.718V24H6V25.718z M14.5,25
			c0.827,0,1.5,0.673,1.5,1.5S15.327,28,14.5,28S13,27.327,13,26.5S13.673,25,14.5,25z"/>
		<path d="M18.718,0h-8.435C7.921,0,6,1.921,6,4.283V5h17V4.283C23,1.921,21.079,0,18.718,0z M15,4h-1c-0.276,0-0.5-0.224-0.5-0.5
			S13.724,3,14,3h1c0.276,0,0.5,0.224,0.5,0.5S15.276,4,15,4z M18.933,3.522c-0.275,0-0.505-0.224-0.505-0.5s0.219-0.5,0.495-0.5
			h0.01c0.276,0,0.5,0.224,0.5,0.5S19.209,3.522,18.933,3.522z"/>
	</g>
</g>
<g id="Birthday_Message_2">
</g>
<g id="Birthyday_Hat_1">
</g>
<g id="Birthay_Hat_2">
</g>
<g id="Birthday_Hat3">
</g>
<g id="Birthday_Decoration_1">
</g>
<g id="Birthday_Decoration_2">
</g>
<g id="Birthday_Decoration_3">
</g>
<g id="Horn_1">
</g>
<g id="Horn_2">
</g>
<g id="Baloon">
</g>
<g id="Balloons_1">
</g>
<g id="Balloons_2">
</g>
<g id="Birthday_Picture">
</g>
<g id="Kid_x27_s_Champagne">
</g>
<g id="Candy">
</g>
<g id="Birthday_Card">
</g>
<g id="Flowers">
</g>
<g id="Birthday_Song">
</g>
<g id="Candle">
</g>
<g id="Sweet_16">
</g>
<g id="Clown">
</g>
<g id="Clown_2">
</g>
<g id="Birthday_Party">
</g>
<g id="Giving_Gift">
</g>
<g id="Present_5">
</g>
<g id="Champagne_in_ice_bucket">
</g>
<g id="Beer">
</g>
<g id="Truffles">
</g>
<g id="Pinata">
</g>
</svg>
