<?xml version="1.0" encoding="iso-8859-1"?>
<!-- Generator: Adobe Illustrator 19.2.1, SVG Export Plug-In . SVG Version: 6.00 Build 0)  -->
<svg version="1.1" xmlns="http://www.w3.org/2000/svg" xmlns:xlink="http://www.w3.org/1999/xlink" x="0px" y="0px"
	 viewBox="0 0 30 30" style="enable-background:new 0 0 30 30;" xml:space="preserve">
<g id="Present_1">
</g>
<g id="Present_2">
</g>
<g id="Present_3">
</g>
<g id="Present_Cake">
</g>
<g id="Present_4">
</g>
<g id="Birthday_Cake_1">
</g>
<g id="Birthday_Cake_2">
</g>
<g id="Cake_Piece">
	<g>
		<path d="M15.5,7.5C16.809,7.5,18,6.309,18,5c0-0.614-0.437-1.316-0.941-2.129C16.562,2.072,16,1.166,16,0.5
			C16,0.224,15.776,0,15.5,0S15,0.224,15,0.5c0,0.666-0.563,1.572-1.059,2.371C13.436,3.684,13,4.386,13,5
			C13,6.309,14.191,7.5,15.5,7.5z"/>
		<path d="M24.989,14.457c-0.002-0.026,0.003-0.052-0.003-0.078c-0.007-0.029-0.025-0.05-0.036-0.076
			c-0.01-0.023-0.018-0.044-0.031-0.065c-0.037-0.058-0.083-0.107-0.138-0.145c-0.006-0.004-0.008-0.012-0.015-0.015
			c-0.314-0.197-0.635-0.405-0.962-0.619c-1.358-0.884-2.87-1.859-4.803-2.529v2.947C19,15.186,17.659,16,15.5,16
			c-2.322,0-3.5-0.673-3.5-2v-3.992c-0.163,0.007-0.321,0.011-0.434-0.004c-0.173-0.022-0.351,0.048-0.46,0.188l-7,9
			c-0.004,0.005-0.002,0.013-0.006,0.018c-0.056,0.077-0.086,0.167-0.091,0.264C4.008,19.484,4,19.491,4,19.5v10
			c0,0.154,0.071,0.3,0.192,0.395C4.281,29.964,4.39,30,4.5,30c0.041,0,0.081-0.005,0.121-0.015l20-5
			C24.844,24.93,25,24.729,25,24.5v-10C25,14.485,24.99,14.472,24.989,14.457z M24,19.109l-19,4.75v-3.969l19-4.75V19.109z"/>
		<path d="M15.5,15c0.256,0,2.5-0.032,2.5-1.125V7.388C17.353,8.063,16.459,8.5,15.5,8.5S13.647,8.063,13,7.388V14
			C13,14.673,13.818,15,15.5,15z"/>
	</g>
</g>
<g id="Cupcake">
</g>
<g id="Lollipop">
</g>
<g id="Birthday_Greetings_1">
</g>
<g id="Party_Greetings_2">
</g>
<g id="Birthday_Invitation">
</g>
<g id="Birthday_1">
</g>
<g id="Birthday_2">
</g>
<g id="Birthday_Message_1">
</g>
<g id="Birthday_Message_2">
</g>
<g id="Birthyday_Hat_1">
</g>
<g id="Birthay_Hat_2">
</g>
<g id="Birthday_Hat3">
</g>
<g id="Birthday_Decoration_1">
</g>
<g id="Birthday_Decoration_2">
</g>
<g id="Birthday_Decoration_3">
</g>
<g id="Horn_1">
</g>
<g id="Horn_2">
</g>
<g id="Baloon">
</g>
<g id="Balloons_1">
</g>
<g id="Balloons_2">
</g>
<g id="Birthday_Picture">
</g>
<g id="Kid_x27_s_Champagne">
</g>
<g id="Candy">
</g>
<g id="Birthday_Card">
</g>
<g id="Flowers">
</g>
<g id="Birthday_Song">
</g>
<g id="Candle">
</g>
<g id="Sweet_16">
</g>
<g id="Clown">
</g>
<g id="Clown_2">
</g>
<g id="Birthday_Party">
</g>
<g id="Giving_Gift">
</g>
<g id="Present_5">
</g>
<g id="Champagne_in_ice_bucket">
</g>
<g id="Beer">
</g>
<g id="Truffles">
</g>
<g id="Pinata">
</g>
</svg>
