<?xml version="1.0" encoding="iso-8859-1"?>
<!-- Generator: Adobe Illustrator 19.2.1, SVG Export Plug-In . SVG Version: 6.00 Build 0)  -->
<svg version="1.1" xmlns="http://www.w3.org/2000/svg" xmlns:xlink="http://www.w3.org/1999/xlink" x="0px" y="0px"
	 viewBox="0 0 30 30" style="enable-background:new 0 0 30 30;" xml:space="preserve">
<g id="Present_1">
</g>
<g id="Present_2">
</g>
<g id="Present_3">
</g>
<g id="Present_Cake">
</g>
<g id="Present_4">
</g>
<g id="Birthday_Cake_1">
</g>
<g id="Birthday_Cake_2">
</g>
<g id="Cake_Piece">
</g>
<g id="Cupcake">
</g>
<g id="Lollipop">
</g>
<g id="Birthday_Greetings_1">
</g>
<g id="Party_Greetings_2">
</g>
<g id="Birthday_Invitation">
</g>
<g id="Birthday_1">
</g>
<g id="Birthday_2">
</g>
<g id="Birthday_Message_1">
</g>
<g id="Birthday_Message_2">
</g>
<g id="Birthyday_Hat_1">
</g>
<g id="Birthay_Hat_2">
</g>
<g id="Birthday_Hat3">
</g>
<g id="Birthday_Decoration_1">
</g>
<g id="Birthday_Decoration_2">
</g>
<g id="Birthday_Decoration_3">
</g>
<g id="Horn_1">
</g>
<g id="Horn_2">
</g>
<g id="Baloon">
</g>
<g id="Balloons_1">
</g>
<g id="Balloons_2">
</g>
<g id="Birthday_Picture">
</g>
<g id="Kid_x27_s_Champagne">
</g>
<g id="Candy">
</g>
<g id="Birthday_Card">
</g>
<g id="Flowers">
</g>
<g id="Birthday_Song">
</g>
<g id="Candle">
</g>
<g id="Sweet_16">
</g>
<g id="Clown">
</g>
<g id="Clown_2">
	<g>
		<circle cx="15" cy="20.5" r="2.5"/>
		<path d="M19.5,22c-0.276,0-0.5,0.224-0.5,0.5c0,1.775-1.159,2.5-4,2.5c-2.841,0-4-0.725-4-2.5c0-0.276-0.224-0.5-0.5-0.5
			S10,22.224,10,22.5c0,3.5,3.632,3.5,5,3.5c1.367,0,5,0,5-3.5C20,22.224,19.776,22,19.5,22z"/>
		<path d="M13,15.5c0-2.523-1.318-4.5-3-4.5s-3,1.977-3,4.5S8.318,20,10,20S13,18.023,13,15.5z M9.5,16.5V16H9
			c-0.276,0-0.5-0.224-0.5-0.5S8.724,15,9,15h0.5v-0.5c0-0.276,0.224-0.5,0.5-0.5s0.5,0.224,0.5,0.5V15H11
			c0.276,0,0.5,0.224,0.5,0.5S11.276,16,11,16h-0.5v0.5c0,0.276-0.224,0.5-0.5,0.5S9.5,16.776,9.5,16.5z"/>
		<path d="M17,15.5c0,2.523,1.318,4.5,3,4.5s3-1.977,3-4.5S21.682,11,20,11S17,12.977,17,15.5z M20.5,14.5V15H21
			c0.276,0,0.5,0.224,0.5,0.5S21.276,16,21,16h-0.5v0.5c0,0.276-0.224,0.5-0.5,0.5s-0.5-0.224-0.5-0.5V16H19
			c-0.276,0-0.5-0.224-0.5-0.5S18.724,15,19,15h0.5v-0.5c0-0.276,0.224-0.5,0.5-0.5S20.5,14.224,20.5,14.5z"/>
		<path d="M30,11.848c0-0.818-0.561-1.507-1.317-1.704c-0.197-0.757-0.887-1.317-1.704-1.317c-0.492,0-0.938,0.203-1.258,0.537
			c-0.32-0.331-0.769-0.537-1.265-0.537c-0.702,0-1.305,0.416-1.588,1.012c-1.156-1.471-2.714-2.607-4.511-3.248
			C18.903,6.273,19,5.899,19,5.674c0-0.276-0.217-0.549-0.493-0.549c-0.275,0-0.492,0.175-0.492,0.452c0,0-0.008,0.01-0.015,0.018
			V0.5C18,0.224,17.776,0,17.5,0h-5C12.224,0,12,0.224,12,0.5v5.094c-0.002-0.002-0.007-0.006-0.008-0.008
			c-0.042-0.234-0.246-0.412-0.492-0.412c-0.276,0-0.5,0.224-0.5,0.5c0,0.225,0.097,0.599,0.642,0.917
			C9.846,7.232,8.287,8.368,7.131,9.839C6.849,9.243,6.246,8.826,5.543,8.826c-0.492,0-0.938,0.203-1.257,0.536
			c-0.32-0.331-0.769-0.536-1.264-0.536c-0.818,0-1.507,0.561-1.705,1.317C0.561,10.34,0,11.03,0,11.848
			c0,0.212,0.044,0.42,0.133,0.63C0.044,12.688,0,12.897,0,13.109c0,0.971,0.79,1.761,1.761,1.761c0.494,0,0.941-0.204,1.261-0.533
			c0.32,0.329,0.767,0.533,1.261,0.533c0.295,0,0.569-0.08,0.814-0.209C5.039,15.091,5,15.526,5,15.971C5,21.511,9.48,30,15,30
			c5.521,0,10-8.489,10-14.029c0-0.445-0.04-0.88-0.097-1.31c0.245,0.129,0.519,0.209,0.814,0.209c0.494,0,0.94-0.204,1.261-0.533
			c0.32,0.329,0.767,0.533,1.261,0.533c0.971,0,1.761-0.79,1.761-1.761c0-0.212-0.044-0.421-0.133-0.631
			C29.956,12.269,30,12.061,30,11.848z M15,29c-4.881,0-9-8.003-9-13.029c0-4.487,3.326-8.205,7.648-8.858
			C14.041,7.151,14.484,7.174,15,7.174c0.516,0,0.959-0.023,1.352-0.061C20.674,7.766,24,11.484,24,15.971
			C24,20.997,19.881,29,15,29z"/>
	</g>
</g>
<g id="Birthday_Party">
</g>
<g id="Giving_Gift">
</g>
<g id="Present_5">
</g>
<g id="Champagne_in_ice_bucket">
</g>
<g id="Beer">
</g>
<g id="Truffles">
</g>
<g id="Pinata">
</g>
</svg>
