<?xml version="1.0" encoding="iso-8859-1"?>
<!-- Generator: Adobe Illustrator 19.2.1, SVG Export Plug-In . SVG Version: 6.00 Build 0)  -->
<svg version="1.1" xmlns="http://www.w3.org/2000/svg" xmlns:xlink="http://www.w3.org/1999/xlink" x="0px" y="0px"
	 viewBox="0 0 30 30" style="enable-background:new 0 0 30 30;" xml:space="preserve">
<g id="Present_1">
</g>
<g id="Present_2">
</g>
<g id="Present_3">
</g>
<g id="Present_Cake">
</g>
<g id="Present_4">
</g>
<g id="Birthday_Cake_1">
</g>
<g id="Birthday_Cake_2">
</g>
<g id="Cake_Piece">
</g>
<g id="Cupcake">
</g>
<g id="Lollipop">
</g>
<g id="Birthday_Greetings_1">
</g>
<g id="Party_Greetings_2">
</g>
<g id="Birthday_Invitation">
</g>
<g id="Birthday_1">
</g>
<g id="Birthday_2">
</g>
<g id="Birthday_Message_1">
</g>
<g id="Birthday_Message_2">
</g>
<g id="Birthyday_Hat_1">
</g>
<g id="Birthay_Hat_2">
</g>
<g id="Birthday_Hat3">
</g>
<g id="Birthday_Decoration_1">
</g>
<g id="Birthday_Decoration_2">
</g>
<g id="Birthday_Decoration_3">
</g>
<g id="Horn_1">
</g>
<g id="Horn_2">
</g>
<g id="Baloon">
</g>
<g id="Balloons_1">
</g>
<g id="Balloons_2">
</g>
<g id="Birthday_Picture">
</g>
<g id="Kid_x27_s_Champagne">
	<g>
		<path d="M23.378,0.035c-0.255-0.1-0.546,0.025-0.648,0.283c-0.101,0.257,0.026,0.547,0.283,0.648
			c1.108,0.436,0.954,1.935,0.946,1.999c-0.03,0.273,0.166,0.521,0.439,0.553c0.02,0.002,0.039,0.003,0.059,0.003
			c0.25,0,0.465-0.186,0.495-0.44C24.964,2.986,25.208,0.753,23.378,0.035z"/>
		<path d="M29.966,6.634c-0.719-1.828-2.952-1.585-3.046-1.574c-0.273,0.033-0.469,0.28-0.438,0.554s0.269,0.476,0.554,0.439
			C27.1,6.045,28.6,5.893,29.034,7c0.078,0.197,0.267,0.317,0.466,0.317c0.061,0,0.123-0.011,0.183-0.035
			C29.939,7.181,30.066,6.891,29.966,6.634z"/>
		<path d="M26.979,3.521c0.128,0,0.256-0.049,0.354-0.146l2.521-2.521c0.195-0.195,0.195-0.512,0-0.707s-0.512-0.195-0.707,0
			l-2.521,2.521c-0.195,0.195-0.195,0.512,0,0.707C26.723,3.473,26.851,3.521,26.979,3.521z"/>
		<path d="M0.516,22.536c-0.687,0.687-0.687,1.804,0,2.49l4.458,4.458c0.343,0.343,0.794,0.515,1.245,0.515
			c0.451,0,0.902-0.172,1.246-0.515l1.429-1.43l-6.948-6.948L0.516,22.536z"/>
		<path d="M7.894,15.272c-0.379,0.309-0.757,0.643-1.138,1.023L2.652,20.4L9.6,27.348l4.104-4.105
			c0.379-0.379,0.713-0.757,1.021-1.136c-0.125-0.629-0.876-2.131-2.79-4.044C10.024,16.15,8.526,15.396,7.894,15.272z
			 M11.663,21.011c-0.246,0.246-0.645,0.246-0.892,0c-0.034-0.034-0.052-0.077-0.077-0.116c-0.007,0.007-0.009,0.017-0.016,0.024
			c-0.22,0.221-0.509,0.33-0.799,0.33c-0.094,0-0.186-0.03-0.278-0.054c0.021,0.135,0.025,0.277-0.004,0.425
			c-0.009,0.046-0.037,0.089-0.051,0.135l0.24,0.24c0.195,0.195,0.195,0.512,0,0.707C9.69,22.8,9.562,22.849,9.434,22.849
			S9.178,22.8,9.081,22.702l-0.11-0.11c-0.186,0.153-0.39,0.265-0.603,0.326l0.203,0.61c0.087,0.262-0.054,0.545-0.316,0.633
			c-0.053,0.018-0.106,0.025-0.158,0.025c-0.209,0-0.404-0.133-0.474-0.342l-0.367-1.1l-1.1-0.367
			c-0.262-0.088-0.403-0.371-0.316-0.633c0.087-0.263,0.372-0.404,0.632-0.316l0.618,0.206c0.058-0.209,0.164-0.411,0.32-0.602
			l-0.113-0.113c-0.195-0.195-0.195-0.512,0-0.707s0.512-0.195,0.707,0l0.233,0.233c0.13-0.04,0.262-0.068,0.392-0.068h0
			c0.063,0,0.117,0.023,0.177,0.033c-0.1-0.377-0.021-0.793,0.274-1.088c0.007-0.007,0.016-0.009,0.024-0.016
			c-0.039-0.025-0.082-0.043-0.116-0.077c-0.246-0.246-0.246-0.645,0-0.892c0.246-0.246,0.645-0.246,0.892,0
			c0.184,0.184,0.23,0.453,0.139,0.68c0.241,0.03,0.476,0.119,0.66,0.304c0.179,0.179,0.272,0.412,0.304,0.66
			c0.227-0.091,0.496-0.045,0.68,0.139C11.909,20.366,11.909,20.765,11.663,21.011z"/>
		<path d="M23.512,5.597c-0.663-0.664-1.823-0.667-2.49,0l-2.674,2.674c-2.324,2.323-4.37,3.401-6.35,4.443
			c-1.077,0.567-2.118,1.119-3.151,1.838c0.189,0.081,0.375,0.158,0.585,0.275c0.992,0.551,2.132,1.449,3.211,2.528
			c1.206,1.206,2.303,2.622,2.805,3.793c0.719-1.034,1.275-2.08,1.847-3.162c1.049-1.984,2.134-4.036,4.433-6.335l2.675-2.674
			c0.333-0.333,0.517-0.775,0.517-1.245c0-0.471-0.184-0.913-0.517-1.245L23.512,5.597z"/>
	</g>
</g>
<g id="Candy">
</g>
<g id="Birthday_Card">
</g>
<g id="Flowers">
</g>
<g id="Birthday_Song">
</g>
<g id="Candle">
</g>
<g id="Sweet_16">
</g>
<g id="Clown">
</g>
<g id="Clown_2">
</g>
<g id="Birthday_Party">
</g>
<g id="Giving_Gift">
</g>
<g id="Present_5">
</g>
<g id="Champagne_in_ice_bucket">
</g>
<g id="Beer">
</g>
<g id="Truffles">
</g>
<g id="Pinata">
</g>
</svg>
