<?xml version="1.0" encoding="iso-8859-1"?>
<!-- Generator: Adobe Illustrator 19.2.1, SVG Export Plug-In . SVG Version: 6.00 Build 0)  -->
<svg version="1.1" xmlns="http://www.w3.org/2000/svg" xmlns:xlink="http://www.w3.org/1999/xlink" x="0px" y="0px"
	 viewBox="0 0 30 30" style="enable-background:new 0 0 30 30;" xml:space="preserve">
<g id="Present_1">
</g>
<g id="Present_2">
</g>
<g id="Present_3">
</g>
<g id="Present_Cake">
</g>
<g id="Present_4">
</g>
<g id="Birthday_Cake_1">
</g>
<g id="Birthday_Cake_2">
</g>
<g id="Cake_Piece">
</g>
<g id="Cupcake">
</g>
<g id="Lollipop">
</g>
<g id="Birthday_Greetings_1">
</g>
<g id="Party_Greetings_2">
	<g>
		<path d="M28.398,9.999L28,9.65v2.62c0,0.155-0.071,0.301-0.194,0.396l-9.767,7.55l10.808,9.006C28.938,29.015,29,28.781,29,28.5
			v-17C29,11.029,28.812,10.358,28.398,9.999z"/>
		<path d="M14.303,20.398L1.936,29.911C2.106,29.963,2.289,30,2.5,30h25c0.226,0,0.426-0.036,0.605-0.095L16.68,20.384
			C16.036,19.896,14.963,19.896,14.303,20.398z"/>
		<path d="M2.211,12.618C2.079,12.524,2,12.372,2,12.21V9.649L1.602,9.998C1.188,10.359,1,11.029,1,11.5v17
			c0,0.292,0.067,0.53,0.166,0.742l11.753-9.041L2.211,12.618z"/>
		<polygon points="16.002,7 15,7 15,9 16.012,9 		"/>
		<path d="M13,11.5c0-0.276,0.224-0.5,0.5-0.5s0.5,0.224,0.5,0.5c0,0.757,0.743,1.5,1.5,1.5s1.5-0.743,1.5-1.5
			c0-0.276,0.224-0.5,0.5-0.5s0.5,0.224,0.5,0.5c0,0.477,0.183,0.934,0.489,1.222c0.157,0.149,0.428,0.328,0.805,0.298
			C19.684,12.998,20,12.614,20,12.167V10.5c0-0.276-0.225-0.5-0.5-0.5h-2.985H14.5h-3c-0.276,0-0.5,0.224-0.5,0.5v1.667
			c0,0.448,0.317,0.831,0.706,0.854c0.386,0.025,0.648-0.149,0.805-0.298C12.817,12.434,13,11.977,13,11.5z"/>
		<path d="M19,14.5v-0.499c-0.444-0.05-0.86-0.233-1.197-0.551c-0.136-0.128-0.256-0.274-0.36-0.434
			C16.972,13.603,16.255,14,15.5,14c-0.755,0-1.472-0.397-1.942-0.984c-0.104,0.16-0.225,0.306-0.36,0.434
			c-0.337,0.317-0.754,0.503-1.197,0.553V14.5c0,0.276,0.224,0.5,0.5,0.5h6C18.775,15,19,14.776,19,14.5z"/>
		<path d="M17.245,19.565L27,12.024V0.5C27,0.224,26.776,0,26.5,0h-23C3.224,0,3,0.224,3,0.5v11.451l10.754,7.616
			C14.75,18.852,16.25,18.852,17.245,19.565z M11,14.5v-0.655c-0.593-0.298-1-0.94-1-1.678V10.5C10,9.673,10.673,9,11.5,9H14V6.5
			C14,6.224,14.224,6,14.5,6h1c-0.617,0-1-0.383-1-1c0-0.405,0.378-1.323,0.541-1.699c0.159-0.366,0.759-0.366,0.918,0
			C16.121,3.677,16.5,4.595,16.5,5c0,0.617-0.383,1-1,1h1c0.275,0,0.499,0.222,0.5,0.498L17.012,9H19.5c0.827,0,1.5,0.673,1.5,1.5
			v1.667c0,0.738-0.407,1.38-1,1.678V14.5c0,0.827-0.673,1.5-1.5,1.5h-6C11.673,16,11,15.327,11,14.5z"/>
	</g>
</g>
<g id="Birthday_Invitation">
</g>
<g id="Birthday_1">
</g>
<g id="Birthday_2">
</g>
<g id="Birthday_Message_1">
</g>
<g id="Birthday_Message_2">
</g>
<g id="Birthyday_Hat_1">
</g>
<g id="Birthay_Hat_2">
</g>
<g id="Birthday_Hat3">
</g>
<g id="Birthday_Decoration_1">
</g>
<g id="Birthday_Decoration_2">
</g>
<g id="Birthday_Decoration_3">
</g>
<g id="Horn_1">
</g>
<g id="Horn_2">
</g>
<g id="Baloon">
</g>
<g id="Balloons_1">
</g>
<g id="Balloons_2">
</g>
<g id="Birthday_Picture">
</g>
<g id="Kid_x27_s_Champagne">
</g>
<g id="Candy">
</g>
<g id="Birthday_Card">
</g>
<g id="Flowers">
</g>
<g id="Birthday_Song">
</g>
<g id="Candle">
</g>
<g id="Sweet_16">
</g>
<g id="Clown">
</g>
<g id="Clown_2">
</g>
<g id="Birthday_Party">
</g>
<g id="Giving_Gift">
</g>
<g id="Present_5">
</g>
<g id="Champagne_in_ice_bucket">
</g>
<g id="Beer">
</g>
<g id="Truffles">
</g>
<g id="Pinata">
</g>
</svg>
