<?xml version="1.0" encoding="iso-8859-1"?>
<!-- Generator: Adobe Illustrator 19.2.1, SVG Export Plug-In . SVG Version: 6.00 Build 0)  -->
<svg version="1.1" xmlns="http://www.w3.org/2000/svg" xmlns:xlink="http://www.w3.org/1999/xlink" x="0px" y="0px"
	 viewBox="0 0 30 30" style="enable-background:new 0 0 30 30;" xml:space="preserve">
<g id="Credit_Card">
</g>
<g id="Banknote">
</g>
<g id="Wallet">
</g>
<g id="Compass">
</g>
<g id="Camera_1">
</g>
<g id="Photo">
</g>
<g id="Picture">
</g>
<g id="Camera_2">
</g>
<g id="No_Camera">
</g>
<g id="Video">
</g>
<g id="Audio">
</g>
<g id="Microphone_1">
</g>
<g id="Microphone_2">
</g>
<g id="No_Microphone">
</g>
<g id="Shopping_Cart">
</g>
<g id="Add_Shopping_Cart">
</g>
<g id="Remove_Shopping_Cart">
</g>
<g id="Shopping_Basket">
</g>
<g id="Jing-Jang">
</g>
<g id="Leaf">
</g>
<g id="Glass">
</g>
<g id="Cup">
</g>
<g id="Mug">
</g>
<g id="Refresh">
</g>
<g id="Login">
</g>
<g id="Logout">
</g>
<g id="Flowchart">
</g>
<g id="Pin_1">
</g>
<g id="Pin_2">
</g>
<g id="User_1">
</g>
<g id="User_2">
</g>
<g id="Users">
</g>
<g id="Adjustments">
</g>
<g id="Type">
</g>
<g id="Format_Size">
</g>
<g id="Menu_1">
</g>
<g id="Other">
</g>
<g id="Flash">
</g>
<g id="No_Flash">
</g>
<g id="Switch_Button_1">
</g>
<g id="Switch_Button_2">
</g>
<g id="Cut">
</g>
<g id="Crop">
</g>
<g id="Sun">
</g>
<g id="USB">
</g>
<g id="Pie_Chart_1">
</g>
<g id="Pie_Chart_2">
</g>
<g id="Line_Chart">
</g>
<g id="Bar_Chart">
</g>
<g id="Target">
</g>
<g id="Flashlight">
</g>
<g id="USB_Device">
</g>
<g id="Eject">
</g>
<g id="Lightbulb">
</g>
<g id="Information">
</g>
<g id="Deactivate_Protection">
</g>
<g id="Active_Protection">
</g>
<g id="Bug">
</g>
<g id="Protection">
</g>
<g id="Phone">
</g>
<g id="List">
</g>
<g id="Plugin_1">
</g>
<g id="Bookmarrk">
</g>
<g id="Handshake">
</g>
<g id="Minimize">
</g>
<g id="Maximize">
</g>
<g id="Diamond">
</g>
<g id="Stop">
</g>
<g id="Shuffle">
</g>
<g id="Undo">
</g>
<g id="Upgrade">
</g>
<g id="Coding">
</g>
<g id="Syncronizaion">
</g>
<g id="Radio">
</g>
<g id="Presentation">
</g>
<g id="Door">
</g>
<g id="Thumbs_Up">
</g>
<g id="Thumbs_Down">
</g>
<g id="Keyboard">
</g>
<g id="_x33_D_Cube">
	<g>
		<path d="M2.855,25.148c-0.194-0.196-0.511-0.198-0.707-0.004L1,26.281v-0.802c0-0.276-0.224-0.5-0.5-0.5S0,25.202,0,25.479v2
			c0,0.014,0.007,0.026,0.008,0.04c0.004,0.051,0.01,0.101,0.03,0.149c0.021,0.052,0.054,0.096,0.09,0.137
			c0.007,0.008,0.009,0.017,0.016,0.025c0,0,0.001,0,0.001,0.001c0.046,0.047,0.102,0.084,0.163,0.109
			c0.061,0.025,0.126,0.039,0.191,0.039h2c0.276,0,0.5-0.224,0.5-0.5s-0.224-0.5-0.5-0.5H1.716l1.135-1.123
			C3.048,25.661,3.05,25.345,2.855,25.148z"/>
		<path d="M28.5,24.979c-0.276,0-0.5,0.224-0.5,0.5v0.802l-1.148-1.136c-0.197-0.194-0.514-0.192-0.707,0.004
			c-0.194,0.196-0.192,0.513,0.004,0.707l1.135,1.123H26.5c-0.276,0-0.5,0.224-0.5,0.5s0.224,0.5,0.5,0.5h2
			c0.065,0,0.13-0.013,0.191-0.039c0.062-0.026,0.117-0.063,0.163-0.109c0,0,0.001,0,0.001,0c0.008-0.008,0.01-0.018,0.017-0.026
			c0.036-0.041,0.069-0.085,0.09-0.137c0.02-0.048,0.026-0.099,0.03-0.151C28.993,27.504,29,27.492,29,27.479v-2
			C29,25.202,28.776,24.979,28.5,24.979z"/>
		<path d="M13.439,2.268l0.567-0.567l0.009,1.615c0.001,0.275,0.225,0.497,0.5,0.497c0.001,0,0.002,0,0.003,0
			c0.276-0.001,0.499-0.227,0.497-0.503l-0.009-1.596l0.554,0.554c0.098,0.098,0.226,0.146,0.354,0.146s0.256-0.049,0.354-0.146
			c0.195-0.195,0.195-0.512,0-0.707l-1.414-1.414c0,0,0,0,0,0c-0.046-0.046-0.101-0.083-0.162-0.108C14.63,0.013,14.565,0,14.5,0
			c-0.001,0-0.002,0-0.003,0c-0.016,0-0.029,0.008-0.044,0.009c-0.049,0.005-0.099,0.011-0.145,0.03
			c-0.049,0.021-0.091,0.053-0.131,0.087c-0.009,0.008-0.021,0.011-0.03,0.02l-0.002,0.002c0,0,0,0,0,0l-1.412,1.412
			c-0.195,0.195-0.195,0.512,0,0.707S13.244,2.463,13.439,2.268z"/>
		<path d="M2,23.25c0,0.187,0.104,0.357,0.269,0.443L14,29.799V17.314L2,11.545V23.25z"/>
		<path d="M14.724,5.049c-0.137-0.065-0.295-0.066-0.432,0L2.52,10.686l11.98,5.76l11.979-5.759L14.724,5.049z"/>
		<path d="M27,23.25V11.545l-12,5.769v12.493l11.731-6.114C26.896,23.607,27,23.437,27,23.25z"/>
	</g>
</g>
<g id="Signal">
</g>
<g id="Dice">
</g>
<g id="Upload">
</g>
<g id="Download">
</g>
<g id="Plugin_2">
</g>
<g id="Shopping_Bag">
</g>
<g id="Lifebelt">
</g>
<g id="Glasses">
</g>
<g id="Parabolic_Antenna">
</g>
<g id="Loudspeaker">
</g>
<g id="Play">
</g>
<g id="Pause">
</g>
<g id="Signpost">
</g>
<g id="Bluetooth">
</g>
<g id="Present">
</g>
<g id="Ruler">
</g>
<g id="Connection">
</g>
<g id="Money">
</g>
<g id="Paper_Plane">
</g>
<g id="Wallet_2">
</g>
</svg>
