<?xml version="1.0" encoding="iso-8859-1"?>
<!-- Generator: Adobe Illustrator 19.2.1, SVG Export Plug-In . SVG Version: 6.00 Build 0)  -->
<svg version="1.1" xmlns="http://www.w3.org/2000/svg" xmlns:xlink="http://www.w3.org/1999/xlink" x="0px" y="0px"
	 viewBox="0 0 30 30" style="enable-background:new 0 0 30 30;" xml:space="preserve">
<g id="Mail">
</g>
<g id="Open_Mail">
</g>
<g id="Mail_Attachmet">
</g>
<g id="Mails">
</g>
<g id="Trash">
</g>
<g id="Trash_Full">
</g>
<g id="Preferences_1">
</g>
<g id="Preferences_2">
</g>
<g id="Mouse">
</g>
<g id="Computer">
</g>
<g id="Notebook">
</g>
<g id="Mobile_Phone">
</g>
<g id="Print">
</g>
<g id="Calculator">
</g>
<g id="Tag">
</g>
<g id="Paperclip">
</g>
<g id="Heart">
</g>
<g id="Lock">
</g>
<g id="Lock_Open">
</g>
<g id="Key_1">
</g>
<g id="Star">
</g>
<g id="Add">
</g>
<g id="Remove">
</g>
<g id="Error">
</g>
<g id="Check_1">
</g>
<g id="Time">
</g>
<g id="Question_Mark">
</g>
<g id="Error_Mark">
</g>
<g id="Sand-Glass">
</g>
<g id="Battery_Full">
</g>
<g id="Battery_Charge">
</g>
<g id="Battery_Half">
</g>
<g id="Battery_Low">
</g>
<g id="No_Battery">
</g>
<g id="Key_2">
</g>
<g id="Link">
</g>
<g id="Brake_Link">
</g>
<g id="Pencil">
</g>
<g id="At">
</g>
<g id="Reply">
</g>
<g id="Accessible">
	<g>
		<g>
			<path d="M14.5,7C12.57,7,11,5.43,11,3.5S12.57,0,14.5,0S18,1.57,18,3.5S16.43,7,14.5,7z M14.5,1C13.122,1,12,2.122,12,3.5
				S13.122,6,14.5,6S17,4.878,17,3.5S15.878,1,14.5,1z"/>
		</g>
		<g>
			<path d="M11.065,30C6.618,30,3,26.382,3,21.935c0-3.948,2.827-7.29,6.721-7.945c0.273-0.047,0.53,0.138,0.576,0.41
				s-0.138,0.53-0.41,0.576C6.476,15.55,4,18.476,4,21.935C4,25.831,7.169,29,11.065,29c2.982,0,5.656-1.893,6.654-4.71
				c0.093-0.26,0.378-0.397,0.638-0.304c0.26,0.092,0.396,0.378,0.304,0.638C17.523,27.839,14.47,30,11.065,30z"/>
		</g>
		<g>
			<path d="M23.997,30c-1.234,0-2.296-0.922-2.472-2.146L20.832,23H16.5c-2.481,0-4.5-2.019-4.5-4.5V11c0-1.103,0.897-2,2-2h2.5
				c0.179,0,0.336,0.094,0.424,0.235c0.186,0.094,0.35,0.211,0.49,0.351L19.828,12H23c1.103,0,2,0.897,2,2s-0.897,2-2,2h-4
				c-0.526,0-1.042-0.213-1.414-0.585L17,14.828V18h6c1.236,0,2.3,0.923,2.475,2.146l0.994,6.954l0,0
				c0.196,1.372-0.735,2.659-2.075,2.869C24.259,29.99,24.128,30,23.997,30z M14,10c-0.551,0-1,0.449-1,1v7.5
				c0,1.93,1.57,3.5,3.5,3.5h4.766c0.249,0,0.46,0.183,0.495,0.429l0.755,5.283c0.117,0.813,0.882,1.406,1.723,1.268
				c0.803-0.125,1.359-0.906,1.24-1.739l-0.994-6.954C24.38,19.554,23.742,19,23,19h-6.5c-0.276,0-0.5-0.224-0.5-0.5v-4.879
				c0-0.202,0.122-0.385,0.309-0.462c0.188-0.078,0.402-0.035,0.545,0.108l1.44,1.44C18.479,14.894,18.737,15,19,15h4
				c0.551,0,1-0.449,1-1s-0.449-1-1-1h-3.379c-0.133,0-0.26-0.053-0.354-0.146l-2.561-2.561c-0.096-0.096-0.218-0.169-0.374-0.225
				c-0.047-0.017-0.09-0.04-0.129-0.068H14z"/>
		</g>
	</g>
</g>
<g id="Up_Arrow">
</g>
<g id="Brush">
</g>
<g id="Design_Mug">
</g>
<g id="Design">
</g>
<g id="Server">
</g>
<g id="Database">
</g>
<g id="Save">
</g>
<g id="Female">
</g>
<g id="Male">
</g>
<g id="Book">
</g>
<g id="Power">
</g>
<g id="Reload">
</g>
<g id="Map">
</g>
<g id="Loction_1">
</g>
<g id="Location_2">
</g>
<g id="Globe">
</g>
<g id="Suitcase">
</g>
<g id="Callendar">
</g>
<g id="Cloud_Off">
</g>
<g id="File_1">
</g>
<g id="File_2">
</g>
<g id="Folder">
</g>
<g id="Open_Folder">
</g>
<g id="Cloud">
</g>
<g id="Upload_Cloud">
</g>
<g id="Download_Cloud">
</g>
<g id="Eye">
</g>
<g id="Invisible">
</g>
<g id="Assignment">
</g>
<g id="Note_Book">
</g>
<g id="Webpage">
</g>
<g id="Mailbox">
</g>
<g id="Drive">
</g>
<g id="Disc">
</g>
<g id="Wifi_1">
</g>
<g id="Wifi_2">
</g>
<g id="Archive">
</g>
<g id="Archive_File">
</g>
<g id="News">
</g>
<g id="Home">
</g>
<g id="Collaboration">
</g>
<g id="Announcement">
</g>
<g id="Watch">
</g>
<g id="Clock">
</g>
<g id="Volume">
</g>
<g id="Mute">
</g>
<g id="Hand">
</g>
<g id="Layers">
</g>
<g id="Bell">
</g>
<g id="Speach_Bubble">
</g>
<g id="Speach_Bubbles">
</g>
<g id="Zoom_In">
</g>
<g id="Zoom_Out">
</g>
<g id="Search">
</g>
<g id="Back_Arrow">
</g>
<g id="Close">
</g>
<g id="Check_2">
</g>
<g id="Left_Arrow_2">
</g>
<g id="Right_Arrow_2">
</g>
</svg>
