<?xml version="1.0" encoding="iso-8859-1"?>
<!-- Generator: Adobe Illustrator 19.2.1, SVG Export Plug-In . SVG Version: 6.00 Build 0)  -->
<svg version="1.1" xmlns="http://www.w3.org/2000/svg" xmlns:xlink="http://www.w3.org/1999/xlink" x="0px" y="0px"
	 viewBox="0 0 30 30" style="enable-background:new 0 0 30 30;" xml:space="preserve">
<g id="Add_User">
	<g>
		<path d="M17.875,28.503L17.875,28.503c-0.269-0.311-0.398-0.724-0.354-1.15c0.032-0.221-0.089-0.439-0.293-0.531
			c-0.383-0.172-0.678-0.499-0.81-0.896C16.137,25.08,16,24.286,16,23.5s0.136-1.58,0.417-2.425c0.122-0.366,0.38-0.671,0.775-0.883
			c0.033-0.012,0.064-0.028,0.093-0.047c0.005-0.002,0.01-0.004,0.015-0.007l-0.001-0.002c0.153-0.11,0.24-0.317,0.221-0.507
			c-0.042-0.409,0.088-0.821,0.356-1.132c0.448-0.52,0.976-0.976,1.614-1.396c0.077-0.05,0.138-0.121,0.177-0.204
			c0.376-0.797,0.629-1.653,0.74-2.497c0.661-0.167,1.176-0.74,1.263-1.462l0.293-2.445c0.06-0.496-0.092-0.992-0.417-1.362
			c-0.194-0.222-0.441-0.386-0.712-0.479l0.114-2.438l0.467-0.487c0.633-0.701,1.155-1.904,0.052-3.658
			C20.604,0.696,19.131,0,17.088,0c-0.813,0-2.69,0-4.427,1.225C7.716,1.326,7.043,3.693,7.043,6.002
			c0,0.568,0.14,1.888,0.223,2.616C6.96,8.702,6.68,8.875,6.463,9.12c-0.33,0.373-0.485,0.873-0.425,1.373l0.293,2.445
			c0.092,0.771,0.674,1.373,1.4,1.49c0.229,1.705,1.023,3.385,2.185,4.612l-0.441,1.836l-4.548,1.184C1.884,22.854,0,26.54,0,29.5
			C0,29.776,0.224,30,0.5,30h17.673c0.206,0,0.361-0.154,0.436-0.346c0.075-0.192-0.005-0.438-0.157-0.577
			C18.254,28.894,18.055,28.712,17.875,28.503z"/>
		<path d="M29.634,21.39c-0.044-0.133-0.142-0.242-0.27-0.299c-0.126-0.057-0.273-0.058-0.403-0.003
			c-0.331,0.142-0.696,0.023-0.869-0.282c-0.175-0.31-0.088-0.71,0.202-0.933c0.109-0.083,0.179-0.208,0.193-0.346
			c0.014-0.137-0.029-0.273-0.119-0.377c-0.964-1.119-2.207-1.858-3.592-2.14c-0.14-0.028-0.282,0.003-0.396,0.088
			c-0.113,0.083-0.187,0.212-0.201,0.352C24.138,17.855,23.801,18,23.5,18s-0.638-0.145-0.678-0.55
			c-0.014-0.14-0.087-0.269-0.201-0.352c-0.114-0.084-0.256-0.115-0.396-0.088c-1.385,0.281-2.627,1.021-3.592,2.14
			c-0.09,0.104-0.133,0.241-0.119,0.377c0.014,0.137,0.084,0.262,0.193,0.346c0.29,0.223,0.376,0.624,0.202,0.933
			c-0.173,0.307-0.538,0.426-0.869,0.283c-0.13-0.056-0.276-0.055-0.403,0.003c-0.128,0.057-0.226,0.166-0.27,0.299
			C17.12,22.132,17,22.823,17,23.5c0,0.678,0.12,1.368,0.366,2.111c0.044,0.133,0.142,0.241,0.27,0.298
			c0.127,0.058,0.274,0.059,0.403,0.003c0.329-0.143,0.695-0.023,0.869,0.282c0.175,0.31,0.088,0.71-0.202,0.933
			c-0.109,0.083-0.179,0.208-0.193,0.346c-0.014,0.137,0.029,0.273,0.119,0.377c0.964,1.119,2.207,1.858,3.592,2.14
			c0.14,0.025,0.282-0.004,0.396-0.088c0.113-0.083,0.187-0.212,0.201-0.352C22.862,29.145,23.199,29,23.5,29
			s0.638,0.145,0.678,0.55c0.014,0.14,0.087,0.269,0.201,0.352C24.466,29.966,24.57,30,24.676,30c0.033,0,0.066-0.003,0.1-0.01
			c1.385-0.281,2.627-1.021,3.592-2.14c0.09-0.104,0.133-0.241,0.119-0.377c-0.014-0.137-0.084-0.262-0.193-0.346
			c-0.29-0.223-0.376-0.623-0.202-0.933c0.173-0.306,0.54-0.425,0.869-0.283c0.129,0.055,0.275,0.054,0.403-0.003
			c0.128-0.057,0.226-0.166,0.27-0.298C29.88,24.868,30,24.178,30,23.5C30,22.823,29.88,22.132,29.634,21.39z M23.5,26
			c-1.378,0-2.5-1.122-2.5-2.5s1.122-2.5,2.5-2.5s2.5,1.122,2.5,2.5S24.878,26,23.5,26z"/>
	</g>
</g>
<g id="Remove_User">
</g>
<g id="Delete_User">
</g>
<g id="Done">
</g>
<g id="At_Symbol">
</g>
<g id="Question">
</g>
<g id="Answer">
</g>
<g id="Bring_Up">
</g>
<g id="Bring_Down">
</g>
<g id="Dismiss_User">
</g>
<g id="User_Speed">
</g>
<g id="User_Settings">
</g>
<g id="User_Refresh">
</g>
<g id="User_Time">
</g>
<g id="Dollar">
</g>
<g id="Euro">
</g>
<g id="Pound">
</g>
<g id="Bitcoin">
</g>
<g id="Global_User">
</g>
<g id="Waiting_User">
</g>
<g id="Writing_User_2">
</g>
<g id="Search_User">
</g>
<g id="Lock_User">
</g>
<g id="Mark_User">
</g>
<g id="Share_User">
</g>
<g id="Shopping">
</g>
<g id="User_Download">
</g>
<g id="User_Upload">
</g>
<g id="User_Statistics">
</g>
<g id="User_Defense">
</g>
<g id="User_Car">
</g>
<g id="User_Home">
</g>
<g id="Park">
</g>
<g id="Recicle_User">
</g>
<g id="Wifi">
</g>
<g id="Attach_User">
</g>
<g id="Disabled_User">
</g>
<g id="User_Card">
</g>
<g id="Gaming">
</g>
<g id="User_Cloud">
</g>
<g id="User_Database">
</g>
<g id="Copyright">
</g>
<g id="No_Copyright">
</g>
<g id="Creative_Commun">
</g>
<g id="Eco-Friendly">
</g>
<g id="Percentage">
</g>
<g id="User_Love">
</g>
<g id="User_Place">
</g>
<g id="User_Key">
</g>
<g id="Sleeping">
</g>
<g id="Add_User_2">
</g>
<g id="Remove_User_2">
</g>
<g id="Delete_User_2">
</g>
<g id="Done_2">
</g>
<g id="At_Symbol_2">
</g>
<g id="Question_2">
</g>
<g id="Answer_2">
</g>
<g id="Bring_Up_2">
</g>
<g id="Bring_Down_2">
</g>
<g id="Dismiss_User_2">
</g>
<g id="User_Speed_2">
</g>
<g id="User_Settings_2">
</g>
<g id="Refresh_2">
</g>
<g id="Time_2">
</g>
<g id="Dollar_2">
</g>
<g id="Euro_2">
</g>
<g id="Pound_2">
</g>
<g id="Bitcoin_2">
</g>
<g id="Global_User_2">
</g>
<g id="Waiting_User_2">
</g>
<g id="Writing_User">
</g>
<g id="Search_User_2">
</g>
<g id="Lock_User_2">
</g>
<g id="Mark_User_2">
</g>
<g id="Share_User_2">
</g>
<g id="Shopping_2">
</g>
<g id="Download_2">
</g>
<g id="Upload_2">
</g>
<g id="User_Statistics_2">
</g>
<g id="User_Defense_2">
</g>
<g id="Car_2">
</g>
<g id="Home_2">
</g>
<g id="Park_2">
</g>
<g id="Recicle_User_2">
</g>
<g id="User_Wifi">
</g>
<g id="Attach_2">
</g>
<g id="Disabled_User_2">
</g>
<g id="User_Card_2">
</g>
<g id="Gaming_2">
</g>
<g id="Cloud_2">
</g>
<g id="Database_2">
</g>
<g id="Copyright_2">
</g>
<g id="No_Copyright_2">
</g>
<g id="Creative_Commun_2">
</g>
<g id="Eco-Friendly_2">
</g>
<g id="Percentage_2">
</g>
<g id="User_Love_2">
</g>
<g id="User_Rate_2">
</g>
<g id="User_Key_2">
</g>
<g id="Sleeping_2">
</g>
</svg>
