<?xml version="1.0" encoding="iso-8859-1"?>
<!-- Generator: Adobe Illustrator 19.2.1, SVG Export Plug-In . SVG Version: 6.00 Build 0)  -->
<svg version="1.1" xmlns="http://www.w3.org/2000/svg" xmlns:xlink="http://www.w3.org/1999/xlink" x="0px" y="0px"
	 viewBox="0 0 24 24" style="enable-background:new 0 0 24 24;" xml:space="preserve">
<g id="Flag">
</g>
<g id="Umbrella">
</g>
<g id="Briefcase">
</g>
<g id="Box">
</g>
<g id="Magnet">
</g>
<g id="Percent">
</g>
<g id="Rocket">
</g>
<g id="Share">
</g>
<g id="Transmitter">
</g>
<g id="Record_2">
</g>
<g id="Record_1">
</g>
<g id="Anchor">
</g>
<g id="Airplane">
	<path d="M23.271,16.564L14,7.294V3.183c0-0.649-0.144-1.303-0.428-1.913l-0.211-0.4C13.112,0.333,12.591,0,12,0
		s-1.112,0.333-1.35,0.847l-0.233,0.445C10.144,1.88,10,2.533,10,3.183v4.111l-9.268,9.268C0.26,17.034,0,17.661,0,18.329v1.172
		c0,0.183,0.1,0.351,0.26,0.438c0.16,0.088,0.356,0.082,0.51-0.018l9.424-6.039c0.093,1.513,0.219,2.776,0.373,4.313l0.159,1.575
		l-3.501,2.313C7.084,22.177,7,22.333,7,22.501v1c0,0.151,0.069,0.295,0.187,0.39c0.119,0.096,0.274,0.132,0.421,0.099L12,23.013
		l4.392,0.977c0.036,0.008,0.072,0.012,0.108,0.012c0.113,0,0.223-0.038,0.313-0.11C16.931,23.796,17,23.652,17,23.501v-1
		c0-0.168-0.084-0.325-0.225-0.417l-3.501-2.31l0.159-1.58c0.154-1.535,0.28-2.797,0.373-4.31l9.424,6.037
		c0.155,0.1,0.35,0.105,0.509,0.018C23.9,19.852,24,19.684,24,19.501v-1.172C24,17.661,23.741,17.034,23.271,16.564z"/>
</g>
<g id="Car">
</g>
<g id="Newsfeed">
</g>
<g id="Wifi_Tethering">
</g>
<g id="No_Wifi_Tethering">
</g>
<g id="Bar_Chart_2">
</g>
<g id="Shop">
</g>
<g id="Alarm">
</g>
<g id="Sim_Card">
</g>
<g id="Radar">
</g>
<g id="Hand_2">
</g>
<g id="Palette">
</g>
<g id="Cake">
</g>
<g id="Blende">
</g>
<g id="Feather_Pen">
</g>
<g id="Ticket">
</g>
<g id="Medal">
</g>
<g id="Mouse_Pointer_1">
</g>
<g id="Mouse_Pointer_2">
</g>
<g id="Fingerprint">
</g>
<g id="Earth">
</g>
</svg>
