<?xml version="1.0" encoding="iso-8859-1"?>
<!-- Generator: Adobe Illustrator 19.2.1, SVG Export Plug-In . SVG Version: 6.00 Build 0)  -->
<svg version="1.1" xmlns="http://www.w3.org/2000/svg" xmlns:xlink="http://www.w3.org/1999/xlink" x="0px" y="0px"
	 viewBox="0 0 30 30" style="enable-background:new 0 0 30 30;" xml:space="preserve">
<g id="Flag">
</g>
<g id="Umbrella">
</g>
<g id="Briefcase">
</g>
<g id="Box">
</g>
<g id="Magnet">
</g>
<g id="Percent">
</g>
<g id="Rocket">
</g>
<g id="Share">
</g>
<g id="Transmitter">
</g>
<g id="Record_2">
</g>
<g id="Record_1">
</g>
<g id="Anchor">
</g>
<g id="Airplane">
	<path d="M28.923,20.847C26.452,18.376,19.075,10.31,18,9.133V3c0-1.654-1.346-3-3-3s-3,1.346-3,3v6.13L1.081,20.843
		C0.587,21.336,0,22.107,0,22.979v1.478c0,0.185,0.102,0.354,0.264,0.441c0.162,0.087,0.359,0.077,0.513-0.025l11.574-7.712
		c0.11,1.843,0.263,3.353,0.449,5.198l0.307,2.534L9.199,27.84C9.074,27.935,9,28.083,9,28.239V29.5
		c0,0.152,0.069,0.296,0.188,0.391c0.118,0.095,0.272,0.13,0.423,0.096L15,28.752l5.388,1.235C20.425,29.996,20.463,30,20.5,30
		c0.112,0,0.222-0.038,0.312-0.109C20.931,29.796,21,29.652,21,29.5v-1.261c0-0.157-0.074-0.305-0.199-0.399l-3.908-2.942
		l0.287-2.117c0.2-1.997,0.363-3.626,0.48-5.617l11.563,7.709c0.153,0.102,0.352,0.112,0.513,0.025
		C29.898,24.811,30,24.642,30,24.457v-1.478C30,22.289,29.628,21.551,28.923,20.847z"/>
</g>
<g id="Car">
</g>
<g id="Newsfeed">
</g>
<g id="Wifi_Tethering">
</g>
<g id="No_Wifi_Tethering">
</g>
<g id="Bar_Chart_2">
</g>
<g id="Shop">
</g>
<g id="Alarm">
</g>
<g id="Sim_Card">
</g>
<g id="Radar">
</g>
<g id="Hand_2">
</g>
<g id="Palette">
</g>
<g id="Cake">
</g>
<g id="Blende">
</g>
<g id="Feather_Pen">
</g>
<g id="Ticket">
</g>
<g id="Medal">
</g>
<g id="Mouse_Pointer_1">
</g>
<g id="Mouse_Pointer_2">
</g>
<g id="Fingerprint">
</g>
<g id="Earth">
</g>
</svg>
