<?xml version="1.0" encoding="iso-8859-1"?>
<!-- Generator: Adobe Illustrator 19.2.1, SVG Export Plug-In . SVG Version: 6.00 Build 0)  -->
<svg version="1.1" xmlns="http://www.w3.org/2000/svg" xmlns:xlink="http://www.w3.org/1999/xlink" x="0px" y="0px"
	 viewBox="0 0 30 30" style="enable-background:new 0 0 30 30;" xml:space="preserve">
<g id="Flag">
</g>
<g id="Umbrella">
</g>
<g id="Briefcase">
</g>
<g id="Box">
</g>
<g id="Magnet">
</g>
<g id="Percent">
</g>
<g id="Rocket">
</g>
<g id="Share">
</g>
<g id="Transmitter">
</g>
<g id="Record_2">
</g>
<g id="Record_1">
</g>
<g id="Anchor">
</g>
<g id="Airplane">
</g>
<g id="Car">
</g>
<g id="Newsfeed">
</g>
<g id="Wifi_Tethering">
</g>
<g id="No_Wifi_Tethering">
</g>
<g id="Bar_Chart_2">
</g>
<g id="Shop">
</g>
<g id="Alarm">
	<g>
		<g>
			<path d="M14.5,29c-6.617,0-12-5.383-12-12s5.383-12,12-12s12,5.383,12,12S21.117,29,14.5,29z M14.5,6c-6.065,0-11,4.935-11,11
				s4.935,11,11,11s11-4.935,11-11S20.565,6,14.5,6z"/>
		</g>
		<g>
			<path d="M1.284,12.422c-0.176,0-0.347-0.094-0.438-0.259C0.293,11.156,0,10.016,0,8.864C0,5.079,3.079,2,6.863,2
				c1.15,0,2.291,0.292,3.299,0.846c0.242,0.133,0.331,0.437,0.198,0.679c-0.134,0.243-0.438,0.329-0.679,0.198
				C8.82,3.25,7.846,3,6.863,3C3.63,3,1,5.63,1,8.864c0,0.984,0.25,1.958,0.723,2.818c0.133,0.242,0.044,0.546-0.197,0.679
				C1.448,12.402,1.366,12.422,1.284,12.422z"/>
		</g>
		<g>
			<path d="M28.216,12.422c-0.082,0-0.164-0.02-0.241-0.062c-0.241-0.133-0.33-0.437-0.197-0.679
				c0.473-0.86,0.723-1.834,0.723-2.818C28.5,5.63,25.87,3,22.637,3c-0.982,0-1.957,0.25-2.818,0.723
				c-0.239,0.131-0.545,0.045-0.679-0.198c-0.133-0.242-0.044-0.546,0.198-0.679C20.346,2.292,21.486,2,22.637,2
				C26.421,2,29.5,5.079,29.5,8.864c0,1.152-0.293,2.292-0.846,3.299C28.563,12.329,28.392,12.422,28.216,12.422z"/>
		</g>
		<g>
			<path d="M19.5,22c-0.118,0-0.237-0.042-0.333-0.126l-5-4.455C14.061,17.324,14,17.188,14,17.045V9.5C14,9.224,14.224,9,14.5,9
				S15,9.224,15,9.5v7.321l4.833,4.305c0.206,0.184,0.224,0.5,0.04,0.706C19.774,21.943,19.638,22,19.5,22z"/>
		</g>
	</g>
</g>
<g id="Sim_Card">
</g>
<g id="Radar">
</g>
<g id="Hand_2">
</g>
<g id="Palette">
</g>
<g id="Cake">
</g>
<g id="Blende">
</g>
<g id="Feather_Pen">
</g>
<g id="Ticket">
</g>
<g id="Medal">
</g>
<g id="Mouse_Pointer_1">
</g>
<g id="Mouse_Pointer_2">
</g>
<g id="Fingerprint">
</g>
<g id="Earth">
</g>
</svg>
