<?xml version="1.0" encoding="iso-8859-1"?>
<!-- Generator: Adobe Illustrator 19.2.1, SVG Export Plug-In . SVG Version: 6.00 Build 0)  -->
<svg version="1.1" xmlns="http://www.w3.org/2000/svg" xmlns:xlink="http://www.w3.org/1999/xlink" x="0px" y="0px"
	 viewBox="0 0 30 30" style="enable-background:new 0 0 30 30;" xml:space="preserve">
<g id="Event">
</g>
<g id="Event_2">
</g>
<g id="Add_Event">
</g>
<g id="Remove_Event">
</g>
<g id="Event_Reminder">
</g>
<g id="Wine_Glass">
</g>
<g id="Toast">
</g>
<g id="Champagne">
</g>
<g id="Champagne_Open">
</g>
<g id="Alcohol_Drink">
	<g>
		<path d="M13.992,27.038C13.993,27.025,14,27.013,14,27v-7.293l9.432-9.431C23.794,10.037,24,9.778,24,9.5
			c0-0.202-0.122-0.385-0.309-0.462c-0.185-0.078-0.402-0.034-0.545,0.108l-0.402,0.403C21.679,10.097,18.16,11,13.5,11
			c-0.698,0-1.367-0.022-2.01-0.059c-0.009-0.079-0.031-0.156-0.079-0.226L10.25,9.039C11.201,9.014,12.279,9,13.5,9h3
			C16.776,9,17,8.776,17,8.5S16.776,8,16.5,8h-3c-1.522,0-2.817,0.02-3.93,0.056L7.2,4.634l5.577-3.718
			c0.184-0.122,0.265-0.35,0.201-0.561S12.72,0,12.5,0h-9C3.292,0,3.105,0.129,3.032,0.324l-3,8
			c-0.076,0.204-0.013,0.433,0.157,0.567C0.28,8.964,0.389,9,0.5,9c0.097,0,0.193-0.028,0.277-0.084l5.591-3.727l2.017,2.914
			C3.006,8.361,3,9.051,3,9.5c0,0.278,0.206,0.537,0.568,0.776L13,19.707V27c0,0.012,0.006,0.022,0.007,0.034
			C8.015,27.386,8,28.106,8,28.5c0,0.41,0,1.5,5.5,1.5s5.5-1.09,5.5-1.5C19,28.108,18.984,27.391,13.992,27.038z M10.291,10.854
			C7.292,10.58,5.11,9.976,4.286,9.563c0.632-0.177,2.075-0.377,4.776-0.485L10.291,10.854z"/>
		<path d="M23.5,4C20.467,4,18,6.467,18,9.5c0,0.066,0.008,0.131,0.011,0.197c2.063-0.284,3.533-0.704,4.148-0.976l0.28-0.281
			C22.718,8.16,23.105,8,23.501,8c0.201,0,0.396,0.039,0.58,0.117C24.636,8.347,25,8.891,25,9.5c0,0.413-0.164,1.01-0.927,1.549
			l-1.783,1.782l-0.306,1.461c-0.027,0.13-0.002,0.265,0.07,0.376c0.073,0.111,0.187,0.189,0.316,0.216
			C22.739,14.961,23.119,15,23.5,15c3.032,0,5.5-2.467,5.5-5.5S26.532,4,23.5,4z"/>
	</g>
</g>
<g id="Beer_Glass">
</g>
<g id="Party_Cake">
</g>
<g id="Pizza_Food">
</g>
<g id="Disco_Ball">
</g>
<g id="Equalizer">
</g>
<g id="DJ">
</g>
<g id="Tent">
</g>
<g id="Firework_1">
</g>
<g id="Firework_2">
</g>
<g id="Party_Glasses">
</g>
<g id="Barbeque">
</g>
<g id="Horn">
</g>
<g id="Speaker">
</g>
<g id="VIP">
</g>
<g id="Event_Ticket">
</g>
<g id="VIP_Ticket">
</g>
<g id="Popcorn">
</g>
<g id="Cord">
</g>
<g id="Invitation_1">
</g>
<g id="Invitation_2">
</g>
</svg>
