<?xml version="1.0" encoding="iso-8859-1"?>
<!-- Generator: Adobe Illustrator 19.2.1, SVG Export Plug-In . SVG Version: 6.00 Build 0)  -->
<svg version="1.1" xmlns="http://www.w3.org/2000/svg" xmlns:xlink="http://www.w3.org/1999/xlink" x="0px" y="0px"
	 viewBox="0 0 30 30" style="enable-background:new 0 0 30 30;" xml:space="preserve">
<g id="Flag">
</g>
<g id="Umbrella">
</g>
<g id="Briefcase">
</g>
<g id="Box">
</g>
<g id="Magnet">
</g>
<g id="Percent">
</g>
<g id="Rocket">
</g>
<g id="Share">
</g>
<g id="Transmitter">
</g>
<g id="Record_2">
</g>
<g id="Record_1">
</g>
<g id="Anchor">
	<g>
		<g>
			<path d="M14.5,6c-1.654,0-3-1.346-3-3s1.346-3,3-3s3,1.346,3,3S16.154,6,14.5,6z M14.5,1c-1.103,0-2,0.897-2,2s0.897,2,2,2
				s2-0.897,2-2S15.603,1,14.5,1z"/>
		</g>
		<g>
			<path d="M19.5,16h-10C9.224,16,9,15.776,9,15.5S9.224,15,9.5,15h10c0.276,0,0.5,0.224,0.5,0.5S19.776,16,19.5,16z"/>
		</g>
		<g>
			<path d="M14.5,30c-0.276,0-0.5-0.224-0.5-0.5v-24C14,5.224,14.224,5,14.5,5S15,5.224,15,5.5v24C15,29.776,14.776,30,14.5,30z"/>
		</g>
		<g>
			<path d="M14.5,30c-5.747,0-11.274-3.156-14.425-8.236c-0.112-0.18-0.098-0.411,0.035-0.577c0.132-0.165,0.355-0.228,0.555-0.159
				l3.818,1.333c0.261,0.091,0.398,0.376,0.307,0.637s-0.376,0.398-0.637,0.307l-2.382-0.832C4.824,26.532,9.578,29,14.5,29
				c5.135,0,9.813-2.421,12.778-6.543l-2.431,0.849c-0.261,0.092-0.545-0.046-0.637-0.307c-0.091-0.261,0.046-0.546,0.307-0.637
				l3.818-1.333c0.197-0.068,0.418-0.008,0.552,0.155c0.133,0.163,0.15,0.391,0.043,0.572C25.87,26.918,20.476,30,14.5,30z"/>
		</g>
	</g>
</g>
<g id="Airplane">
</g>
<g id="Car">
</g>
<g id="Newsfeed">
</g>
<g id="Wifi_Tethering">
</g>
<g id="No_Wifi_Tethering">
</g>
<g id="Bar_Chart_2">
</g>
<g id="Shop">
</g>
<g id="Alarm">
</g>
<g id="Sim_Card">
</g>
<g id="Radar">
</g>
<g id="Hand_2">
</g>
<g id="Palette">
</g>
<g id="Cake">
</g>
<g id="Blende">
</g>
<g id="Feather_Pen">
</g>
<g id="Ticket">
</g>
<g id="Medal">
</g>
<g id="Mouse_Pointer_1">
</g>
<g id="Mouse_Pointer_2">
</g>
<g id="Fingerprint">
</g>
<g id="Earth">
</g>
</svg>
