<?xml version="1.0" encoding="iso-8859-1"?>
<!-- Generator: Adobe Illustrator 19.2.1, SVG Export Plug-In . SVG Version: 6.00 Build 0)  -->
<svg version="1.1" xmlns="http://www.w3.org/2000/svg" xmlns:xlink="http://www.w3.org/1999/xlink" x="0px" y="0px"
	 viewBox="0 0 30 30" style="enable-background:new 0 0 30 30;" xml:space="preserve">
<g id="Retro_Bot_1">
</g>
<g id="Retro_Bot_2">
</g>
<g id="Retro_Bot_3">
</g>
<g id="Retro_Bot_4">
</g>
<g id="Wall-E">
</g>
<g id="Eva">
</g>
<g id="Iron_Giant">
</g>
<g id="Marvin">
</g>
<g id="Atlas">
</g>
<g id="Claptrap">
</g>
<g id="Android">
	<g>
		<path d="M21.5,11h-13C8.224,11,8,11.224,8,11.5V22c0,1.614,0.77,2.722,2,2.955V28c0,0.994,0.515,2,1.5,2h1
			c0.985,0,1.5-1.006,1.5-2v-3h2v3c0,0.962,0.621,2,1.625,2H18.5c0.985,0,1.5-1.006,1.5-2v-3.045c1.23-0.233,2-1.341,2-2.955V11.5
			C22,11.224,21.776,11,21.5,11z"/>
		<path d="M25.5,11h-1c-0.827,0-1.5,0.673-1.5,1.5v7c0,0.827,0.673,1.5,1.5,1.5h1c0.827,0,1.5-0.673,1.5-1.5v-7
			C27,11.673,26.327,11,25.5,11z"/>
		<path d="M5.5,11h-1C3.673,11,3,11.673,3,12.5v7C3,20.327,3.673,21,4.5,21h1C6.327,21,7,20.327,7,19.5v-7C7,11.673,6.327,11,5.5,11
			z"/>
		<path d="M18.083,2.889l0.881-2.203c0.103-0.256-0.022-0.547-0.279-0.65c-0.253-0.102-0.548,0.021-0.65,0.279l-0.853,2.133
			C16.482,2.164,15.746,2,15,2s-1.482,0.164-2.183,0.447l-0.853-2.133c-0.103-0.257-0.395-0.38-0.65-0.279
			c-0.256,0.103-0.381,0.394-0.279,0.65l0.881,2.203C9.676,4.201,8,6.796,8,9.5C8,9.776,8.224,10,8.5,10h13
			c0.276,0,0.5-0.224,0.5-0.5C22,6.796,20.324,4.201,18.083,2.889z M12.5,7C12.224,7,12,6.776,12,6.5C12,6.224,12.224,6,12.5,6
			S13,6.224,13,6.5C13,6.776,12.776,7,12.5,7z M17.5,7C17.224,7,17,6.776,17,6.5C17,6.224,17.224,6,17.5,6S18,6.224,18,6.5
			C18,6.776,17.776,7,17.5,7z"/>
	</g>
</g>
<g id="Bender">
</g>
<g id="Roberto">
</g>
<g id="Robot_Devil">
</g>
<g id="Robocop">
</g>
<g id="ED_209">
</g>
<g id="Optimus_Prime">
</g>
<g id="Robot_1">
</g>
<g id="Robot_2">
</g>
<g id="Robot_3">
</g>
<g id="Robot_Arm_1">
</g>
<g id="Robot_Arm_2">
</g>
<g id="Robot_Arm_3">
</g>
<g id="Robot_Arm_4">
</g>
<g id="Robot_Arm_5">
</g>
<g id="K5_Robot">
</g>
<g id="Robot_Machine_1">
</g>
<g id="Robot_Machine_2">
</g>
<g id="Artifical_Intelligence_1">
</g>
<g id="Artifical_Intelligence_2">
</g>
<g id="Robot_4">
</g>
<g id="Robot_5">
</g>
<g id="Robot_6">
</g>
<g id="Robot_7">
</g>
<g id="Robot_8">
</g>
<g id="Robot_9">
</g>
<g id="Robot_10">
</g>
<g id="Robot_11">
</g>
<g id="Robot_12">
</g>
<g id="Robot_13">
</g>
</svg>
