<?xml version="1.0" encoding="iso-8859-1"?>
<!-- Generator: Adobe Illustrator 19.2.1, SVG Export Plug-In . SVG Version: 6.00 Build 0)  -->
<svg version="1.1" xmlns="http://www.w3.org/2000/svg" xmlns:xlink="http://www.w3.org/1999/xlink" x="0px" y="0px"
	 viewBox="0 0 30 30" style="enable-background:new 0 0 30 30;" xml:space="preserve">
<g id="Retro_Bot_1">
</g>
<g id="Retro_Bot_2">
</g>
<g id="Retro_Bot_3">
</g>
<g id="Retro_Bot_4">
</g>
<g id="Wall-E">
</g>
<g id="Eva">
</g>
<g id="Iron_Giant">
</g>
<g id="Marvin">
</g>
<g id="Atlas">
</g>
<g id="Claptrap">
</g>
<g id="Android">
	<g id="Android_1_">
		<g>
			<path d="M21.5,10h-13C8.224,10,8,9.776,8,9.5C8,5.645,11.402,2,15,2s7,3.645,7,7.5C22,9.776,21.776,10,21.5,10z M9.023,9h11.954
				C20.697,5.9,17.874,3,15,3S9.303,5.9,9.023,9z"/>
		</g>
		<g>
			<path d="M18.5,30h-0.875C16.621,30,16,28.962,16,28v-3h-2v3c0,0.994-0.515,2-1.5,2h-1c-0.985,0-1.5-1.006-1.5-2v-3.045
				C8.77,24.722,8,23.614,8,22V11.5C8,11.224,8.224,11,8.5,11h13c0.276,0,0.5,0.224,0.5,0.5V22c0,1.614-0.77,2.722-2,2.955V28
				C20,28.994,19.485,30,18.5,30z M13.5,24h3c0.276,0,0.5,0.224,0.5,0.5V28c0,0.453,0.279,1,0.625,1H18.5c0.341,0,0.5-0.597,0.5-1
				v-3.5c0-0.276,0.224-0.5,0.5-0.5c1.354,0,1.5-1.398,1.5-2V12H9v10c0,0.602,0.146,2,1.5,2c0.276,0,0.5,0.224,0.5,0.5V28
				c0,0.403,0.159,1,0.5,1h1c0.341,0,0.5-0.597,0.5-1v-3.5C13,24.224,13.224,24,13.5,24z"/>
		</g>
		<g>
			<path d="M25.5,21h-1c-0.827,0-1.5-0.673-1.5-1.5v-7c0-0.827,0.673-1.5,1.5-1.5h1c0.827,0,1.5,0.673,1.5,1.5v7
				C27,20.327,26.327,21,25.5,21z M24.5,12c-0.276,0-0.5,0.224-0.5,0.5v7c0,0.276,0.224,0.5,0.5,0.5h1c0.276,0,0.5-0.224,0.5-0.5v-7
				c0-0.276-0.224-0.5-0.5-0.5H24.5z"/>
		</g>
		<g>
			<path d="M5.5,21h-1C3.673,21,3,20.327,3,19.5v-7C3,11.673,3.673,11,4.5,11h1C6.327,11,7,11.673,7,12.5v7
				C7,20.327,6.327,21,5.5,21z M4.5,12C4.224,12,4,12.224,4,12.5v7C4,19.776,4.224,20,4.5,20h1C5.776,20,6,19.776,6,19.5v-7
				C6,12.224,5.776,12,5.5,12H4.5z"/>
		</g>
		<g>
			<path d="M12.5,3.5c-0.198,0-0.386-0.119-0.464-0.314l-1-2.5c-0.103-0.256,0.022-0.547,0.279-0.65
				c0.255-0.103,0.547,0.022,0.65,0.279l1,2.5c0.103,0.256-0.022,0.547-0.279,0.65C12.625,3.489,12.562,3.5,12.5,3.5z"/>
		</g>
		<g>
			<path d="M17.5,3.5c-0.062,0-0.125-0.011-0.186-0.036c-0.256-0.103-0.381-0.394-0.279-0.65l1-2.5
				c0.102-0.257,0.396-0.382,0.65-0.279c0.256,0.103,0.381,0.394,0.279,0.65l-1,2.5C17.886,3.381,17.698,3.5,17.5,3.5z"/>
		</g>
		<g>
			<circle cx="17.5" cy="6.5" r="0.5"/>
		</g>
		<g>
			<circle cx="12.5" cy="6.5" r="0.5"/>
		</g>
	</g>
</g>
<g id="Bender">
</g>
<g id="Roberto">
</g>
<g id="Robot_Devil">
</g>
<g id="Robocop">
</g>
<g id="ED_209">
</g>
<g id="Optimus_Prime">
</g>
<g id="Robot_1">
</g>
<g id="Robot_2">
</g>
<g id="Robot_3">
</g>
<g id="Robot_Arm_1">
</g>
<g id="Robot_Arm_2">
</g>
<g id="Robot_Arm_3">
</g>
<g id="Robot_Arm_4">
</g>
<g id="Robot_Arm_5">
</g>
<g id="K5_Robot">
</g>
<g id="Robot_Machine_1">
</g>
<g id="Robot_Machine_2">
</g>
<g id="Artifical_Intelligence_1">
</g>
<g id="Artifical_Intelligence_2">
</g>
<g id="Robot_4">
</g>
<g id="Robot_5">
</g>
<g id="Robot_6">
</g>
<g id="Robot_7">
</g>
<g id="Robot_8">
</g>
<g id="Robot_9">
</g>
<g id="Robot_10">
</g>
<g id="Robot_11">
</g>
<g id="Robot_12">
</g>
<g id="Robot_13">
</g>
</svg>
