<?xml version="1.0" encoding="iso-8859-1"?>
<!-- Generator: Adobe Illustrator 19.2.1, SVG Export Plug-In . SVG Version: 6.00 Build 0)  -->
<svg version="1.1" xmlns="http://www.w3.org/2000/svg" xmlns:xlink="http://www.w3.org/1999/xlink" x="0px" y="0px"
	 viewBox="0 0 30 30" style="enable-background:new 0 0 30 30;" xml:space="preserve">
<g id="Man_1">
</g>
<g id="Woman_1">
</g>
<g id="Man_2">
</g>
<g id="Woman_2">
</g>
<g id="Bald_Man">
</g>
<g id="Man_Glasses">
</g>
<g id="Woman_Glasses">
</g>
<g id="Man_Beard">
</g>
<g id="Man_Cap">
</g>
<g id="Woman_Cap">
</g>
<g id="Man_3">
</g>
<g id="Woman_3">
</g>
<g id="Men_4">
</g>
<g id="Woman_4">
</g>
<g id="Business_Man_1">
</g>
<g id="Business_Woman_1">
</g>
<g id="Firefigyhter">
</g>
<g id="Policeman">
</g>
<g id="Criminal">
</g>
<g id="Prisoner">
</g>
<g id="Woodsman">
</g>
<g id="Dispatcher_1">
</g>
<g id="Dispatcher_2">
</g>
<g id="Soldier">
</g>
<g id="Astronaut">
</g>
<g id="Hipster_Guy">
</g>
<g id="Hipster_Girl">
</g>
<g id="Worker">
</g>
<g id="Old_Man">
</g>
<g id="Punk">
</g>
<g id="Diver">
</g>
<g id="Artist">
</g>
<g id="Dictator">
</g>
<g id="Man_Hat">
</g>
<g id="Woman_Hat">
</g>
<g id="Graduated_Man">
</g>
<g id="Graduated_Woman">
</g>
<g id="Avatar_Chef">
</g>
<g id="Waiter">
</g>
<g id="Waitress">
</g>
<g id="Bllboy">
</g>
<g id="Santa">
</g>
<g id="Doctor">
</g>
<g id="Nurse">
</g>
<g id="Captain">
</g>
<g id="Farmer">
</g>
<g id="Maid">
</g>
<g id="Business_Man_2">
</g>
<g id="Business_Woman_2">
</g>
<g id="Cowboy">
</g>
<g id="Anonymus">
	<g>
		<g>
			<path d="M5.168,25.744c-0.19,0-0.372-0.109-0.456-0.293c-0.114-0.252-0.002-0.548,0.249-0.662
				c0.214-0.098,0.434-0.185,0.659-0.264l2.542-0.884c0.356-0.124,0.685-0.307,0.979-0.544l0.413-0.822
				c0.124-0.246,0.424-0.349,0.671-0.222c0.247,0.124,0.346,0.424,0.222,0.671l-0.46,0.915c-0.03,0.06-0.071,0.111-0.121,0.155
				c-0.407,0.349-0.869,0.615-1.375,0.791l-2.542,0.885c-0.196,0.067-0.388,0.145-0.574,0.229
				C5.307,25.729,5.237,25.744,5.168,25.744z"/>
		</g>
		<g>
			<path d="M25.082,25.746c-0.069,0-0.14-0.015-0.207-0.045c-0.188-0.086-0.381-0.162-0.579-0.231l-2.541-0.883
				c-0.507-0.177-0.97-0.443-1.376-0.793c-0.026-0.021-0.049-0.047-0.07-0.073l-0.706-0.915c-0.168-0.219-0.128-0.533,0.09-0.701
				c0.22-0.17,0.533-0.129,0.702,0.09l0.673,0.873c0.302,0.252,0.644,0.445,1.016,0.575l2.541,0.883
				c0.228,0.08,0.448,0.168,0.664,0.266c0.251,0.114,0.362,0.411,0.248,0.662C25.454,25.638,25.272,25.746,25.082,25.746z"/>
		</g>
		<g>
			<path d="M15.052,25c-0.292,0-0.596-0.028-0.956-0.09c-0.143-0.024-0.286-0.056-0.428-0.09c-0.113-0.028-0.218-0.06-0.322-0.094
				c-2.296-0.677-4.106-2.299-5.037-4.491C8.194,20.271,8.088,20.281,8,20.281c-1.392,0-1.5-2.512-1.5-3.281
				c0-1.327,0.681-2.555,1.524-2.902C8.396,9.237,11.167,6,15,6s6.604,3.237,6.976,8.098C22.819,14.445,23.5,15.673,23.5,17
				c0,2.146-0.497,3.281-1.436,3.281c-0.088,0-0.193-0.011-0.31-0.046c-0.931,2.2-2.728,3.821-5.009,4.495
				c-0.093,0.03-0.197,0.062-0.303,0.088c-0.15,0.036-0.292,0.067-0.437,0.092C15.647,24.972,15.344,25,15.052,25z M8.564,19
				c0.037,0,0.074,0.004,0.111,0.013c0.169,0.038,0.307,0.162,0.363,0.326c0.738,2.171,2.416,3.787,4.604,4.433
				c0.096,0.03,0.181,0.056,0.267,0.078c0.113,0.026,0.233,0.054,0.356,0.074c0.608,0.104,0.969,0.104,1.574,0
				c0.125-0.021,0.245-0.048,0.365-0.076c0.079-0.021,0.163-0.046,0.248-0.072c2.171-0.642,3.834-2.257,4.575-4.437
				c0.056-0.164,0.193-0.288,0.363-0.326c0.168-0.04,0.346,0.014,0.468,0.138c0.081,0.082,0.158,0.131,0.208,0.131
				C22.196,19.218,22.5,18.552,22.5,17c0-1.224-0.703-2-1-2c-0.267,0-0.486-0.209-0.5-0.475C20.775,10.024,18.363,7,15,7
				s-5.775,3.024-6,7.525C8.986,14.791,8.767,15,8.5,15c-0.297,0-1,0.776-1,2c0,1.496,0.355,2.229,0.503,2.282
				c0.046-0.001,0.124-0.05,0.205-0.132C8.303,19.053,8.432,19,8.564,19z"/>
		</g>
		<g>
			<path d="M14.5,19c-0.235,0-0.445-0.167-0.491-0.407c-0.019-0.101-0.451-2.491,1.23-3.52c0.216-0.132,0.438-0.245,0.654-0.354
				C16.641,14.339,17,14.128,17,13.5c0-1.949-3-1.949-3,0c0,0.276-0.224,0.5-0.5,0.5S13,13.776,13,13.5c0-1.564,1.271-2.5,2.5-2.5
				s2.5,0.936,2.5,2.5c0,1.27-0.917,1.735-1.654,2.11c-0.193,0.098-0.392,0.198-0.585,0.316c-1.099,0.671-0.773,2.462-0.77,2.48
				c0.051,0.271-0.126,0.532-0.398,0.584C14.562,18.997,14.53,19,14.5,19z"/>
		</g>
		<g>
			<path d="M15,30C6.729,30,0,23.271,0,15S6.729,0,15,0s15,6.729,15,15S23.271,30,15,30z M15,1C7.28,1,1,7.28,1,15s6.28,14,14,14
				s14-6.28,14-14S22.72,1,15,1z"/>
		</g>
		<g>
			<circle cx="14.5" cy="20.5" r="0.5"/>
		</g>
	</g>
</g>
<g id="Batman">
</g>
<g id="Superman">
</g>
<g id="Captain_America">
</g>
<g id="Darth_Vader">
</g>
<g id="Harry_Potter">
</g>
<g id="Anonymus_2">
</g>
<g id="Scream">
</g>
<g id="Jason">
</g>
<g id="Charlie_Chaplin">
</g>
</svg>
