<?xml version="1.0" encoding="iso-8859-1"?>
<!-- Generator: Adobe Illustrator 19.2.1, SVG Export Plug-In . SVG Version: 6.00 Build 0)  -->
<svg version="1.1" xmlns="http://www.w3.org/2000/svg" xmlns:xlink="http://www.w3.org/1999/xlink" x="0px" y="0px"
	 viewBox="0 0 24 24" style="enable-background:new 0 0 24 24;" xml:space="preserve">
<g id="Cutting_Board_1">
</g>
<g id="Cutting_Board_2">
</g>
<g id="Chef_x27_s_Hat_1">
</g>
<g id="Chef_x27_s_Hat_2">
</g>
<g id="Kitchen_Scale">
</g>
<g id="Measuring_Cup">
</g>
<g id="Pot_1">
</g>
<g id="Pot_2">
</g>
<g id="Wok_1">
</g>
<g id="Wok_2">
</g>
<g id="Teapot">
</g>
<g id="Plate">
</g>
<g id="Sauce_Boat">
</g>
<g id="Cauldron">
</g>
<g id="Cookbook">
</g>
<g id="Salt_Pot">
</g>
<g id="Pepper_Pot_1">
</g>
<g id="Pepper_Pot_2">
</g>
<g id="Egg_Timer">
</g>
<g id="Olive_Oil_Pot">
</g>
<g id="Pancake_Griddle">
</g>
<g id="Pan">
</g>
<g id="Kettle">
</g>
<g id="Microwave">
</g>
<g id="Cooker">
</g>
<g id="Meat_Grinder">
</g>
<g id="Coffee_Maker">
</g>
<g id="Household_Mixer">
</g>
<g id="Stand_Mixer">
</g>
<g id="Hand_Blender">
</g>
<g id="Blender">
</g>
<g id="Cooker_Hood">
</g>
<g id="Refrigerator">
</g>
<g id="Freezer">
</g>
<g id="Apron">
	<path d="M22.785,6.089c-0.228-0.157-0.539-0.101-0.696,0.126c-0.47,0.679-1.002,1.89-1.088,3.253
		c-0.051,0.814-0.764,1.244-2.533,1.529C15.252,10.974,15,7.552,15,6.5v-3C15,1.57,13.43,0,11.5,0S8,1.57,8,3.5v3
		c0,1.028-0.248,4.311-3.258,4.484C4.39,10.51,3.553,9.467,2.724,9.053C1.712,8.547,0.933,9.372,0.515,9.813
		c-0.086,0.091-0.204,0.215-0.239,0.239c-0.247,0.124-0.347,0.424-0.224,0.671c0.124,0.247,0.425,0.346,0.671,0.224
		c0.182-0.091,0.338-0.256,0.518-0.447c0.464-0.492,0.738-0.703,1.035-0.553C2.892,10.255,3.66,11.197,4,11.662V21.5
		C4,22.878,5.121,24,6.5,24h10c1.378,0,2.5-1.122,2.5-2.5v-9.576c1.145-0.204,2.892-0.678,2.999-2.392
		c0.073-1.16,0.537-2.205,0.912-2.747C23.068,6.558,23.012,6.246,22.785,6.089z M11.5,1C12.878,1,14,2.122,14,3.5V6H9V3.5
		C9,2.122,10.121,1,11.5,1z M14,14.5c0,0.276-0.224,0.5-0.5,0.5h-4C9.224,15,9,14.776,9,14.5v-2C9,12.224,9.224,12,9.5,12
		s0.5,0.224,0.5,0.5V14h3v-1.5c0-0.276,0.224-0.5,0.5-0.5s0.5,0.224,0.5,0.5V14.5z"/>
</g>
<g id="Oven_Gloves">
</g>
<g id="Rolling_Pin">
</g>
<g id="Sieve">
</g>
<g id="Tea_Sieve">
</g>
<g id="Grater">
</g>
<g id="Knife_Holder">
</g>
<g id="Funnel">
</g>
<g id="Kitchen_Clock">
</g>
<g id="Lemon_Juicer">
</g>
<g id="Pastry_Bag_1">
</g>
<g id="Pastry_Bag_2">
</g>
<g id="Corkscrew">
</g>
<g id="Bottle_Opener">
</g>
<g id="Service">
</g>
<g id="Chopsticks">
</g>
<g id="Hatchet">
</g>
<g id="Filleting_Knife">
</g>
<g id="Bread_Knife">
</g>
<g id="Herb_Knife">
</g>
<g id="Whetting">
</g>
<g id="Cake_Knife">
</g>
<g id="Layer_58">
</g>
<g id="Ladle">
</g>
<g id="Sauce_Spoon">
</g>
<g id="Egg_Beater">
</g>
<g id="Meat_Fork">
</g>
<g id="Kitchen_Spoon_1">
</g>
<g id="Kitchen_Spoon_2">
</g>
<g id="Pizza_Cutter">
</g>
<g id="Potato_Musher">
</g>
<g id="Peeler">
</g>
<g id="Honey_Dipper">
</g>
<g id="Fork">
</g>
<g id="Knife">
</g>
<g id="Spoon">
</g>
<g id="Cutlery_Set">
</g>
<g id="Sugar_Bowl">
</g>
<g id="Matches">
</g>
<g id="Cezve">
</g>
</svg>
