<?xml version="1.0" encoding="iso-8859-1"?>
<!-- Generator: Adobe Illustrator 19.2.1, SVG Export Plug-In . SVG Version: 6.00 Build 0)  -->
<svg version="1.1" xmlns="http://www.w3.org/2000/svg" xmlns:xlink="http://www.w3.org/1999/xlink" x="0px" y="0px"
	 viewBox="0 0 30 30" style="enable-background:new 0 0 30 30;" xml:space="preserve">
<g id="Cutting_Board_1">
</g>
<g id="Cutting_Board_2">
</g>
<g id="Chef_x27_s_Hat_1">
</g>
<g id="Chef_x27_s_Hat_2">
</g>
<g id="Kitchen_Scale">
</g>
<g id="Measuring_Cup">
</g>
<g id="Pot_1">
</g>
<g id="Pot_2">
</g>
<g id="Wok_1">
</g>
<g id="Wok_2">
</g>
<g id="Teapot">
</g>
<g id="Plate">
</g>
<g id="Sauce_Boat">
</g>
<g id="Cauldron">
</g>
<g id="Cookbook">
</g>
<g id="Salt_Pot">
</g>
<g id="Pepper_Pot_1">
</g>
<g id="Pepper_Pot_2">
</g>
<g id="Egg_Timer">
</g>
<g id="Olive_Oil_Pot">
</g>
<g id="Pancake_Griddle">
</g>
<g id="Pan">
</g>
<g id="Kettle">
</g>
<g id="Microwave">
</g>
<g id="Cooker">
</g>
<g id="Meat_Grinder">
</g>
<g id="Coffee_Maker">
</g>
<g id="Household_Mixer">
</g>
<g id="Stand_Mixer">
</g>
<g id="Hand_Blender">
</g>
<g id="Blender">
</g>
<g id="Cooker_Hood">
</g>
<g id="Refrigerator">
</g>
<g id="Freezer">
</g>
<g id="Apron">
	<g>
		<g>
			<g>
				<path d="M17.5,19h-6c-0.276,0-0.5-0.224-0.5-0.5v-3c0-0.276,0.224-0.5,0.5-0.5s0.5,0.224,0.5,0.5V18h5v-2.5
					c0-0.276,0.224-0.5,0.5-0.5s0.5,0.224,0.5,0.5v3C18,18.776,17.776,19,17.5,19z"/>
			</g>
			<g>
				<path d="M23.5,15c-0.242,0-0.455-0.176-0.494-0.423c-0.042-0.272,0.144-0.528,0.417-0.571c2.212-0.346,3.231-1.021,3.305-2.189
					c0.115-1.817,0.863-2.889,1.358-3.598c0.158-0.226,0.472-0.285,0.698-0.126c0.226,0.158,0.283,0.467,0.125,0.693
					c-0.461,0.66-1.087,1.556-1.184,3.093c-0.141,2.231-2.435,2.846-4.149,3.115C23.551,14.998,23.525,15,23.5,15z"/>
			</g>
			<g>
				<path d="M5.5,15c-0.195,0-0.381-0.116-0.461-0.308c-0.445-1.064-1.391-2.605-2.103-2.696c-0.643-0.085-1.054,0.459-1.523,1.176
					c-0.235,0.359-0.421,0.642-0.691,0.776c-0.249,0.122-0.547,0.021-0.67-0.226c-0.123-0.248-0.021-0.548,0.226-0.67
					c0.042-0.037,0.19-0.263,0.299-0.428c0.438-0.669,1.173-1.786,2.487-1.62c1.53,0.197,2.682,2.787,2.897,3.304
					c0.106,0.255-0.014,0.547-0.269,0.654C5.629,14.988,5.564,15,5.5,15z"/>
			</g>
		</g>
		<g>
			<path d="M18.5,8C18.224,8,18,7.776,18,7.5v-3C18,2.57,16.43,1,14.5,1S11,2.57,11,4.5v3C11,7.776,10.776,8,10.5,8S10,7.776,10,7.5
				v-3C10,2.019,12.019,0,14.5,0S19,2.019,19,4.5v3C19,7.776,18.776,8,18.5,8z"/>
		</g>
		<g>
			<path d="M20.5,30h-12C6.57,30,5,28.43,5,26.5v-12c0-0.244,0.176-0.453,0.417-0.493C8.03,13.567,10,11.2,10,8.5l0-0.341l0-0.662
				C10.001,7.222,10.225,7,10.5,7h8c0.134,0,0.262,0.054,0.356,0.149C18.95,7.245,19.002,7.374,19,7.508
				c-0.004,0.242-0.002,0.448-0.001,0.658L19,8.5c0,2.7,1.97,5.067,4.583,5.507C23.824,14.047,24,14.256,24,14.5v12
				C24,28.43,22.43,30,20.5,30z M6,14.908V26.5C6,27.878,7.122,29,8.5,29h12c1.378,0,2.5-1.122,2.5-2.5V14.908
				c-2.878-0.689-5-3.371-5-6.408l-0.001-0.328c0-0.057,0-0.114-0.001-0.172H11l0,0.5C11,11.538,8.878,14.219,6,14.908z"/>
		</g>
	</g>
</g>
<g id="Oven_Gloves">
</g>
<g id="Rolling_Pin">
</g>
<g id="Sieve">
</g>
<g id="Tea_Sieve">
</g>
<g id="Grater">
</g>
<g id="Knife_Holder">
</g>
<g id="Funnel">
</g>
<g id="Kitchen_Clock">
</g>
<g id="Lemon_Juicer">
</g>
<g id="Pastry_Bag_1">
</g>
<g id="Pastry_Bag_2">
</g>
<g id="Corkscrew">
</g>
<g id="Bottle_Opener">
</g>
<g id="Service">
</g>
<g id="Chopsticks">
</g>
<g id="Hatchet">
</g>
<g id="Filleting_Knife">
</g>
<g id="Bread_Knife">
</g>
<g id="Herb_Knife">
</g>
<g id="Whetting">
</g>
<g id="Cake_Knife">
</g>
<g id="Layer_58">
</g>
<g id="Ladle">
</g>
<g id="Sauce_Spoon">
</g>
<g id="Egg_Beater">
</g>
<g id="Meat_Fork">
</g>
<g id="Kitchen_Spoon_1">
</g>
<g id="Kitchen_Spoon_2">
</g>
<g id="Pizza_Cutter">
</g>
<g id="Potato_Musher">
</g>
<g id="Peeler">
</g>
<g id="Honey_Dipper">
</g>
<g id="Fork">
</g>
<g id="Knife">
</g>
<g id="Spoon">
</g>
<g id="Cutlery_Set">
</g>
<g id="Sugar_Bowl">
</g>
<g id="Matches">
</g>
<g id="Cezve">
</g>
</svg>
