<?xml version="1.0" encoding="iso-8859-1"?>
<!-- Generator: Adobe Illustrator 19.2.1, SVG Export Plug-In . SVG Version: 6.00 Build 0)  -->
<svg version="1.1" xmlns="http://www.w3.org/2000/svg" xmlns:xlink="http://www.w3.org/1999/xlink" x="0px" y="0px"
	 viewBox="0 0 30 30" style="enable-background:new 0 0 30 30;" xml:space="preserve">
<g id="Mail">
</g>
<g id="Open_Mail">
</g>
<g id="Mail_Attachmet">
</g>
<g id="Mails">
</g>
<g id="Trash">
</g>
<g id="Trash_Full">
</g>
<g id="Preferences_1">
</g>
<g id="Preferences_2">
</g>
<g id="Mouse">
</g>
<g id="Computer">
</g>
<g id="Notebook">
</g>
<g id="Mobile_Phone">
</g>
<g id="Print">
</g>
<g id="Calculator">
</g>
<g id="Tag">
</g>
<g id="Paperclip">
</g>
<g id="Heart">
</g>
<g id="Lock">
</g>
<g id="Lock_Open">
</g>
<g id="Key_1">
</g>
<g id="Star">
</g>
<g id="Add">
</g>
<g id="Remove">
</g>
<g id="Error">
</g>
<g id="Check_1">
</g>
<g id="Time">
</g>
<g id="Question_Mark">
</g>
<g id="Error_Mark">
</g>
<g id="Sand-Glass">
</g>
<g id="Battery_Full">
</g>
<g id="Battery_Charge">
</g>
<g id="Battery_Half">
</g>
<g id="Battery_Low">
</g>
<g id="No_Battery">
</g>
<g id="Key_2">
</g>
<g id="Link">
</g>
<g id="Brake_Link">
</g>
<g id="Pencil">
</g>
<g id="At">
</g>
<g id="Reply">
</g>
<g id="Accessible">
</g>
<g id="Up_Arrow">
</g>
<g id="Brush">
</g>
<g id="Design_Mug">
</g>
<g id="Design">
</g>
<g id="Server">
</g>
<g id="Database">
</g>
<g id="Save">
</g>
<g id="Female">
</g>
<g id="Male">
</g>
<g id="Book">
</g>
<g id="Power">
</g>
<g id="Reload">
</g>
<g id="Map">
</g>
<g id="Loction_1">
</g>
<g id="Location_2">
</g>
<g id="Globe">
</g>
<g id="Suitcase">
</g>
<g id="Callendar">
</g>
<g id="Cloud_Off">
</g>
<g id="File_1">
</g>
<g id="File_2">
</g>
<g id="Folder">
</g>
<g id="Open_Folder">
</g>
<g id="Cloud">
</g>
<g id="Upload_Cloud">
</g>
<g id="Download_Cloud">
</g>
<g id="Eye">
</g>
<g id="Invisible">
</g>
<g id="Assignment">
</g>
<g id="Note_Book">
</g>
<g id="Webpage">
</g>
<g id="Mailbox">
</g>
<g id="Drive">
</g>
<g id="Disc">
</g>
<g id="Wifi_1">
</g>
<g id="Wifi_2">
</g>
<g id="Archive">
	<g>
		<g>
			<g>
				<path d="M26.5,30h-23C1.57,30,0,28.43,0,26.5V11.206c0-0.912,0.284-1.784,0.821-2.522l4.382-6.657C6.039,0.757,7.444,0,8.963,0
					h12.088c1.508,0,2.908,0.749,3.745,2.005l4.484,6.729C29.751,9.44,30,10.262,30,11.111V26.5C30,28.43,28.43,30,26.5,30z
					 M8.963,1C7.781,1,6.688,1.589,6.039,2.576L1.65,9.243c-0.005,0.008-0.01,0.015-0.015,0.021C1.22,9.832,1,10.504,1,11.206V26.5
					C1,27.879,2.121,29,3.5,29h23c1.379,0,2.5-1.121,2.5-2.5V11.111c0-0.651-0.19-1.281-0.552-1.822L23.964,2.56
					C23.313,1.583,22.224,1,21.051,1H8.963z M1.232,8.969h0.01H1.232z"/>
			</g>
			<g>
				<path d="M20.5,24h-11C7.57,24,6,22.43,6,20.5v-7C6,12.121,4.879,11,3.5,11H1c-0.276,0-0.5-0.224-0.5-0.5S0.724,10,1,10h2.5
					C5.43,10,7,11.57,7,13.5v7C7,21.879,8.121,23,9.5,23h11c1.379,0,2.5-1.121,2.5-2.5v-7c0-1.93,1.57-3.5,3.5-3.5H29
					c0.276,0,0.5,0.224,0.5,0.5S29.276,11,29,11h-2.5c-1.379,0-2.5,1.121-2.5,2.5v7C24,22.43,22.43,24,20.5,24z"/>
			</g>
		</g>
		<g>
			<path d="M20.5,13h-11C9.224,13,9,12.776,9,12.5S9.224,12,9.5,12h11c0.276,0,0.5,0.224,0.5,0.5S20.776,13,20.5,13z"/>
		</g>
		<g>
			<path d="M20.5,15h-11C9.224,15,9,14.776,9,14.5S9.224,14,9.5,14h11c0.276,0,0.5,0.224,0.5,0.5S20.776,15,20.5,15z"/>
		</g>
		<g>
			<path d="M20.5,17h-11C9.224,17,9,16.776,9,16.5S9.224,16,9.5,16h11c0.276,0,0.5,0.224,0.5,0.5S20.776,17,20.5,17z"/>
		</g>
		<g>
			<path d="M20.5,19h-11C9.224,19,9,18.776,9,18.5S9.224,18,9.5,18h11c0.276,0,0.5,0.224,0.5,0.5S20.776,19,20.5,19z"/>
		</g>
		<g>
			<path d="M20.5,21h-11C9.224,21,9,20.776,9,20.5S9.224,20,9.5,20h11c0.276,0,0.5,0.224,0.5,0.5S20.776,21,20.5,21z"/>
		</g>
	</g>
</g>
<g id="Archive_File">
</g>
<g id="News">
</g>
<g id="Home">
</g>
<g id="Collaboration">
</g>
<g id="Announcement">
</g>
<g id="Watch">
</g>
<g id="Clock">
</g>
<g id="Volume">
</g>
<g id="Mute">
</g>
<g id="Hand">
</g>
<g id="Layers">
</g>
<g id="Bell">
</g>
<g id="Speach_Bubble">
</g>
<g id="Speach_Bubbles">
</g>
<g id="Zoom_In">
</g>
<g id="Zoom_Out">
</g>
<g id="Search">
</g>
<g id="Back_Arrow">
</g>
<g id="Close">
</g>
<g id="Check_2">
</g>
<g id="Left_Arrow_2">
</g>
<g id="Right_Arrow_2">
</g>
</svg>
