<?xml version="1.0" encoding="iso-8859-1"?>
<!-- Generator: Adobe Illustrator 19.2.1, SVG Export Plug-In . SVG Version: 6.00 Build 0)  -->
<svg version="1.1" xmlns="http://www.w3.org/2000/svg" xmlns:xlink="http://www.w3.org/1999/xlink" x="0px" y="0px"
	 viewBox="0 0 30 30" style="enable-background:new 0 0 30 30;" xml:space="preserve">
<g id="Mail">
</g>
<g id="Open_Mail">
</g>
<g id="Mail_Attachmet">
</g>
<g id="Mails">
</g>
<g id="Trash">
</g>
<g id="Trash_Full">
</g>
<g id="Preferences_1">
</g>
<g id="Preferences_2">
</g>
<g id="Mouse">
</g>
<g id="Computer">
</g>
<g id="Notebook">
</g>
<g id="Mobile_Phone">
</g>
<g id="Print">
</g>
<g id="Calculator">
</g>
<g id="Tag">
</g>
<g id="Paperclip">
</g>
<g id="Heart">
</g>
<g id="Lock">
</g>
<g id="Lock_Open">
</g>
<g id="Key_1">
</g>
<g id="Star">
</g>
<g id="Add">
</g>
<g id="Remove">
</g>
<g id="Error">
</g>
<g id="Check_1">
</g>
<g id="Time">
</g>
<g id="Question_Mark">
</g>
<g id="Error_Mark">
</g>
<g id="Sand-Glass">
</g>
<g id="Battery_Full">
</g>
<g id="Battery_Charge">
</g>
<g id="Battery_Half">
</g>
<g id="Battery_Low">
</g>
<g id="No_Battery">
</g>
<g id="Key_2">
</g>
<g id="Link">
</g>
<g id="Brake_Link">
</g>
<g id="Pencil">
</g>
<g id="At">
</g>
<g id="Reply">
</g>
<g id="Accessible">
</g>
<g id="Up_Arrow">
</g>
<g id="Brush">
</g>
<g id="Design_Mug">
</g>
<g id="Design">
</g>
<g id="Server">
</g>
<g id="Database">
</g>
<g id="Save">
</g>
<g id="Female">
</g>
<g id="Male">
</g>
<g id="Book">
</g>
<g id="Power">
</g>
<g id="Reload">
</g>
<g id="Map">
</g>
<g id="Loction_1">
</g>
<g id="Location_2">
</g>
<g id="Globe">
</g>
<g id="Suitcase">
</g>
<g id="Callendar">
</g>
<g id="Cloud_Off">
</g>
<g id="File_1">
</g>
<g id="File_2">
</g>
<g id="Folder">
</g>
<g id="Open_Folder">
</g>
<g id="Cloud">
</g>
<g id="Upload_Cloud">
</g>
<g id="Download_Cloud">
</g>
<g id="Eye">
</g>
<g id="Invisible">
</g>
<g id="Assignment">
</g>
<g id="Note_Book">
</g>
<g id="Webpage">
</g>
<g id="Mailbox">
</g>
<g id="Drive">
</g>
<g id="Disc">
</g>
<g id="Wifi_1">
</g>
<g id="Wifi_2">
</g>
<g id="Archive">
</g>
<g id="Archive_File">
	<g>
		<g>
			<path d="M26.5,30h-23C1.57,30,0,28.43,0,26.5v-8.979c0-0.917,0.287-1.792,0.829-2.532l2.283-2.805
				c0.174-0.216,0.489-0.245,0.703-0.072c0.215,0.174,0.247,0.489,0.072,0.703L1.62,15.601C1.22,16.147,1,16.819,1,17.521V26.5
				C1,27.879,2.121,29,3.5,29h23c1.379,0,2.5-1.121,2.5-2.5v-9.094c0-0.651-0.19-1.281-0.551-1.821l-2.332-2.763
				c-0.178-0.211-0.15-0.526,0.061-0.705c0.211-0.175,0.526-0.15,0.705,0.061l2.365,2.808C29.751,15.735,30,16.558,30,17.406V26.5
				C30,28.43,28.43,30,26.5,30z"/>
		</g>
		<g>
			<path d="M26.5,17c-0.276,0-0.5-0.224-0.5-0.5V9.69L18.275,1H4.282C4.118,1,4,1,4,1.761V16.5C4,16.776,3.776,17,3.5,17
				S3,16.776,3,16.5V1.761C3,1.279,3,0,4.282,0H18.5c0.143,0,0.279,0.062,0.374,0.168l8,9C26.955,9.26,27,9.378,27,9.5v7
				C27,16.776,26.776,17,26.5,17z"/>
		</g>
		<g>
			<path d="M26.5,10h-7.087C18.541,10,18,9.259,18,8.065V0.5C18,0.224,18.224,0,18.5,0S19,0.224,19,0.5v7.565
				C19,8.285,19.03,9,19.413,9H26.5C26.776,9,27,9.224,27,9.5S26.776,10,26.5,10z"/>
		</g>
		<g>
			<path d="M19.5,24h-9C9.121,24,8,22.879,8,21.5v-3C8,17.673,7.327,17,6.5,17h-6C0.224,17,0,16.776,0,16.5S0.224,16,0.5,16h6
				C7.879,16,9,17.121,9,18.5v3c0,0.827,0.673,1.5,1.5,1.5h9c0.827,0,1.5-0.673,1.5-1.5v-3c0-1.379,1.121-2.5,2.5-2.5h6
				c0.276,0,0.5,0.224,0.5,0.5S29.776,17,29.5,17h-6c-0.827,0-1.5,0.673-1.5,1.5v3C22,22.879,20.879,24,19.5,24z"/>
		</g>
	</g>
</g>
<g id="News">
</g>
<g id="Home">
</g>
<g id="Collaboration">
</g>
<g id="Announcement">
</g>
<g id="Watch">
</g>
<g id="Clock">
</g>
<g id="Volume">
</g>
<g id="Mute">
</g>
<g id="Hand">
</g>
<g id="Layers">
</g>
<g id="Bell">
</g>
<g id="Speach_Bubble">
</g>
<g id="Speach_Bubbles">
</g>
<g id="Zoom_In">
</g>
<g id="Zoom_Out">
</g>
<g id="Search">
</g>
<g id="Back_Arrow">
</g>
<g id="Close">
</g>
<g id="Check_2">
</g>
<g id="Left_Arrow_2">
</g>
<g id="Right_Arrow_2">
</g>
</svg>
