<?xml version="1.0" encoding="iso-8859-1"?>
<!-- Generator: Adobe Illustrator 19.2.1, SVG Export Plug-In . SVG Version: 6.00 Build 0)  -->
<svg version="1.1" xmlns="http://www.w3.org/2000/svg" xmlns:xlink="http://www.w3.org/1999/xlink" x="0px" y="0px"
	 viewBox="0 0 30 30" style="enable-background:new 0 0 30 30;" xml:space="preserve">
<g id="Mail">
</g>
<g id="Open_Mail">
</g>
<g id="Mail_Attachmet">
</g>
<g id="Mails">
</g>
<g id="Trash">
</g>
<g id="Trash_Full">
</g>
<g id="Preferences_1">
</g>
<g id="Preferences_2">
</g>
<g id="Mouse">
</g>
<g id="Computer">
</g>
<g id="Notebook">
</g>
<g id="Mobile_Phone">
</g>
<g id="Print">
</g>
<g id="Calculator">
</g>
<g id="Tag">
</g>
<g id="Paperclip">
</g>
<g id="Heart">
</g>
<g id="Lock">
</g>
<g id="Lock_Open">
</g>
<g id="Key_1">
</g>
<g id="Star">
</g>
<g id="Add">
</g>
<g id="Remove">
</g>
<g id="Error">
</g>
<g id="Check_1">
</g>
<g id="Time">
</g>
<g id="Question_Mark">
</g>
<g id="Error_Mark">
</g>
<g id="Sand-Glass">
</g>
<g id="Battery_Full">
</g>
<g id="Battery_Charge">
</g>
<g id="Battery_Half">
</g>
<g id="Battery_Low">
</g>
<g id="No_Battery">
</g>
<g id="Key_2">
</g>
<g id="Link">
</g>
<g id="Brake_Link">
</g>
<g id="Pencil">
</g>
<g id="At">
</g>
<g id="Reply">
</g>
<g id="Accessible">
</g>
<g id="Up_Arrow">
</g>
<g id="Brush">
</g>
<g id="Design_Mug">
</g>
<g id="Design">
</g>
<g id="Server">
</g>
<g id="Database">
</g>
<g id="Save">
</g>
<g id="Female">
</g>
<g id="Male">
</g>
<g id="Book">
</g>
<g id="Power">
</g>
<g id="Reload">
</g>
<g id="Map">
</g>
<g id="Loction_1">
</g>
<g id="Location_2">
</g>
<g id="Globe">
</g>
<g id="Suitcase">
</g>
<g id="Callendar">
</g>
<g id="Cloud_Off">
</g>
<g id="File_1">
</g>
<g id="File_2">
</g>
<g id="Folder">
</g>
<g id="Open_Folder">
</g>
<g id="Cloud">
</g>
<g id="Upload_Cloud">
</g>
<g id="Download_Cloud">
</g>
<g id="Eye">
</g>
<g id="Invisible">
</g>
<g id="Assignment">
</g>
<g id="Note_Book">
</g>
<g id="Webpage">
</g>
<g id="Mailbox">
</g>
<g id="Drive">
</g>
<g id="Disc">
</g>
<g id="Wifi_1">
</g>
<g id="Wifi_2">
</g>
<g id="Archive">
	<g>
		<path d="M29.28,8.734l-4.484-6.73C23.959,0.75,22.56,0,21.051,0H8.962C7.444,0,6.039,0.757,5.204,2.026L0.821,8.684
			C0.284,9.421,0,10.293,0,11.206V26.5C0,28.43,1.57,30,3.5,30h23c1.93,0,3.5-1.57,3.5-3.5V11.111
			C30,10.261,29.751,9.439,29.28,8.734z M26.5,10c-1.93,0-3.5,1.57-3.5,3.5v7c0,1.379-1.121,2.5-2.5,2.5h-11
			C8.122,23,7,21.879,7,20.5v-7C7,11.57,5.43,10,3.5,10H1.239c0.102-0.258,0.229-0.507,0.397-0.735
			c0.005-0.007,0.01-0.014,0.014-0.021l4.389-6.668C6.688,1.589,7.781,1,8.962,1h12.088c1.173,0,2.263,0.583,2.913,1.559l4.484,6.73
			c0.149,0.222,0.261,0.462,0.35,0.71H26.5z"/>
		<path d="M20.5,12h-11C9.224,12,9,12.224,9,12.5S9.224,13,9.5,13h11c0.276,0,0.5-0.224,0.5-0.5S20.776,12,20.5,12z"/>
		<path d="M20.5,14h-11C9.224,14,9,14.224,9,14.5S9.224,15,9.5,15h11c0.276,0,0.5-0.224,0.5-0.5S20.776,14,20.5,14z"/>
		<path d="M20.5,16h-11C9.224,16,9,16.224,9,16.5S9.224,17,9.5,17h11c0.276,0,0.5-0.224,0.5-0.5S20.776,16,20.5,16z"/>
		<path d="M20.5,18h-11C9.224,18,9,18.224,9,18.5S9.224,19,9.5,19h11c0.276,0,0.5-0.224,0.5-0.5S20.776,18,20.5,18z"/>
		<path d="M20.5,20h-11C9.224,20,9,20.224,9,20.5S9.224,21,9.5,21h11c0.276,0,0.5-0.224,0.5-0.5S20.776,20,20.5,20z"/>
	</g>
</g>
<g id="Archive_File">
</g>
<g id="News">
</g>
<g id="Home">
</g>
<g id="Collaboration">
</g>
<g id="Announcement">
</g>
<g id="Watch">
</g>
<g id="Clock">
</g>
<g id="Volume">
</g>
<g id="Mute">
</g>
<g id="Hand">
</g>
<g id="Layers">
</g>
<g id="Bell">
</g>
<g id="Speach_Bubble">
</g>
<g id="Speach_Bubbles">
</g>
<g id="Zoom_In">
</g>
<g id="Zoom_Out">
</g>
<g id="Search">
</g>
<g id="Back_Arrow">
</g>
<g id="Close">
</g>
<g id="Check_2">
</g>
<g id="Left_Arrow_2">
</g>
<g id="Right_Arrow_2">
</g>
</svg>
