<?xml version="1.0" encoding="iso-8859-1"?>
<!-- Generator: Adobe Illustrator 19.2.1, SVG Export Plug-In . SVG Version: 6.00 Build 0)  -->
<svg version="1.1" xmlns="http://www.w3.org/2000/svg" xmlns:xlink="http://www.w3.org/1999/xlink" x="0px" y="0px"
	 viewBox="0 0 30 30" style="enable-background:new 0 0 30 30;" xml:space="preserve">
<g id="Armchair_1">
</g>
<g id="Armchair_2">
</g>
<g id="Armchair_3">
	<g id="XMLID_65_">
		<path d="M15,2C6.729,2,0,8.673,0,16.875C0,23.404,1.953,27,5.5,27c0.375,0,0.718-0.144,0.989-0.417
			c1.049-1.054,1.036-4.005,1.016-8.09L7.5,16.875C7.5,12.533,10.864,9,15,9s7.5,3.533,7.5,7.875l-0.005,1.619
			c-0.02,4.084-0.033,7.036,1.016,8.09C23.782,26.856,24.125,27,24.5,27c3.547,0,5.5-3.596,5.5-10.125C30,8.673,23.271,2,15,2z"/>
		<path d="M21.495,18.489l0.005-1.617C21.5,13.084,18.584,10,15,10s-6.5,3.084-6.5,6.875l0.005,1.616
			c0.009,1.974,0.01,3.636-0.098,5.013C9.903,25.079,12.195,26,15,26s5.097-0.921,6.593-2.497
			C21.485,22.126,21.486,20.464,21.495,18.489z"/>
	</g>
</g>
<g id="Armchair_4">
</g>
<g id="Sofa_1">
</g>
<g id="Sofa_2">
</g>
<g id="Sofa_3">
</g>
<g id="Sofa_4">
</g>
<g id="Sofa_5">
</g>
<g id="Sofa_6">
</g>
<g id="Desk_1">
</g>
<g id="Desk_2">
</g>
<g id="Desk_3">
</g>
<g id="Lamp">
</g>
<g id="Bed_1">
</g>
<g id="Bunk_Beds">
</g>
<g id="Bed_2">
</g>
<g id="Bed_3">
</g>
<g id="Bed_4">
</g>
<g id="Bed_5">
</g>
<g id="Table_1">
</g>
<g id="Table_2">
</g>
<g id="Table_3">
</g>
<g id="Table_4">
</g>
<g id="Rug_1">
</g>
<g id="Rug_2">
</g>
<g id="Rug_3">
</g>
<g id="Tub_1">
</g>
<g id="Tub_2">
</g>
<g id="Jacuzzi">
</g>
<g id="Corner_Tub">
</g>
<g id="Shower_Tray">
</g>
<g id="Sink_1">
</g>
<g id="Sink_2">
</g>
<g id="Toilette">
</g>
<g id="Stove">
</g>
<g id="Kitchen_Sink">
</g>
<g id="Island">
</g>
<g id="Eat-in_Kitchen">
</g>
<g id="Tv_Stand">
</g>
</svg>
