<?xml version="1.0" encoding="iso-8859-1"?>
<!-- Generator: Adobe Illustrator 19.2.1, SVG Export Plug-In . SVG Version: 6.00 Build 0)  -->
<svg version="1.1" xmlns="http://www.w3.org/2000/svg" xmlns:xlink="http://www.w3.org/1999/xlink" x="0px" y="0px"
	 viewBox="0 0 24 24" style="enable-background:new 0 0 24 24;" xml:space="preserve">
<g id="Armchair_1">
	<g>
		<path d="M21.861,1.718C19.649,1.391,16.143,1,12,1C7.899,1,4.376,1.392,2.143,1.721C0.901,1.903,0,2.944,0,4.195v1.61
			C0,7.056,0.901,8.097,2.142,8.28C4.372,8.608,7.892,9,12,9c4.119,0,7.635-0.392,9.859-0.72C23.1,8.097,24,7.056,24,5.806V4.192
			C24,2.943,23.101,1.902,21.861,1.718z"/>
		<path d="M22.006,9.27C21,9.418,19.724,9.577,18.261,9.71C18.122,10.963,18,12.513,18,14.5c0,3.022,0.261,5.098,0.505,6.805
			C18.646,22.287,19.448,23,20.414,23h1.153c0.966,0,1.769-0.713,1.913-1.724C23.687,19.823,24,17.625,24,14.5
			c0-2.591-0.205-4.504-0.392-5.905C23.152,8.938,22.611,9.18,22.006,9.27z"/>
		<path d="M1.996,9.269C1.391,9.18,0.848,8.938,0.392,8.594C0.205,9.999,0,11.915,0,14.5c0,3.01,0.261,5.09,0.505,6.804
			C0.643,22.271,1.463,23,2.414,23h1.152c0.966,0,1.769-0.713,1.913-1.722C5.687,19.83,6,17.641,6,14.5
			c0-1.987-0.122-3.538-0.261-4.79C4.278,9.577,3.002,9.417,1.996,9.269z"/>
		<path d="M17,14.5c0-1.638,0.083-3.141,0.251-4.709C15.667,9.913,13.909,10,12,10c-1.907,0-3.666-0.087-5.252-0.21
			C6.916,11.357,7,12.86,7,14.5c0,3.208-0.319,5.438-0.53,6.914c-0.041,0.289-0.13,0.557-0.241,0.81C8.175,22.73,10.111,23,12,23
			c1.886,0,3.814-0.266,5.749-0.767c-0.107-0.247-0.194-0.506-0.234-0.786C17.266,19.704,17,17.586,17,14.5z"/>
	</g>
</g>
<g id="Armchair_2">
</g>
<g id="Armchair_3">
</g>
<g id="Armchair_4">
</g>
<g id="Sofa_1">
</g>
<g id="Sofa_2">
</g>
<g id="Sofa_3">
</g>
<g id="Sofa_4">
</g>
<g id="Sofa_5">
</g>
<g id="Sofa_6">
</g>
<g id="Desk_1">
</g>
<g id="Desk_2">
</g>
<g id="Desk_3">
</g>
<g id="Lamp">
</g>
<g id="Bed_1">
</g>
<g id="Bunk_Beds">
</g>
<g id="Bed_2">
</g>
<g id="Bed_3">
</g>
<g id="Bed_4">
</g>
<g id="Bed_5">
</g>
<g id="Table_1">
</g>
<g id="Table_2">
</g>
<g id="Table_3">
</g>
<g id="Table_4">
</g>
<g id="Rug_1">
</g>
<g id="Rug_2">
</g>
<g id="Rug_3">
</g>
<g id="Tub_1">
</g>
<g id="Tub_2">
</g>
<g id="Jacuzzi">
</g>
<g id="Corner_Tub">
</g>
<g id="Shower_Tray">
</g>
<g id="Sink_1">
</g>
<g id="Sink_2">
</g>
<g id="Toilette">
</g>
<g id="Stove">
</g>
<g id="Kitchen_Sink">
</g>
<g id="Island">
</g>
<g id="Eat-in_Kitchen">
</g>
<g id="Tv_Stand">
</g>
</svg>
