<?xml version="1.0" encoding="iso-8859-1"?>
<!-- Generator: Adobe Illustrator 19.2.1, SVG Export Plug-In . SVG Version: 6.00 Build 0)  -->
<svg version="1.1" xmlns="http://www.w3.org/2000/svg" xmlns:xlink="http://www.w3.org/1999/xlink" x="0px" y="0px"
	 viewBox="0 0 24 24" style="enable-background:new 0 0 24 24;" xml:space="preserve">
<g id="Retro_Bot_1">
</g>
<g id="Retro_Bot_2">
</g>
<g id="Retro_Bot_3">
</g>
<g id="Retro_Bot_4">
</g>
<g id="Wall-E">
</g>
<g id="Eva">
</g>
<g id="Iron_Giant">
</g>
<g id="Marvin">
</g>
<g id="Atlas">
</g>
<g id="Claptrap">
</g>
<g id="Android">
</g>
<g id="Bender">
</g>
<g id="Roberto">
</g>
<g id="Robot_Devil">
</g>
<g id="Robocop">
</g>
<g id="ED_209">
</g>
<g id="Optimus_Prime">
</g>
<g id="Robot_1">
</g>
<g id="Robot_2">
</g>
<g id="Robot_3">
</g>
<g id="Robot_Arm_1">
</g>
<g id="Robot_Arm_2">
</g>
<g id="Robot_Arm_3">
</g>
<g id="Robot_Arm_4">
</g>
<g id="Robot_Arm_5">
</g>
<g id="K5_Robot">
</g>
<g id="Robot_Machine_1">
</g>
<g id="Robot_Machine_2">
</g>
<g id="Artifical_Intelligence_1">
</g>
<g id="Artifical_Intelligence_2">
	<g>
		<polygon points="11.5,18.999 11.5,19 12,19 		"/>
		<path d="M15,13v3h3v-3H15z M17,14.5c0,0.276-0.224,0.5-0.5,0.5S16,14.776,16,14.5c0-0.276,0.224-0.5,0.5-0.5S17,14.224,17,14.5z"
			/>
		<path d="M22.854,12.146L21,10.293V7.5c0-0.133-0.053-0.26-0.146-0.354L20,6.293V3.5c0-0.133-0.053-0.26-0.146-0.354l-3-3
			C16.76,0.053,16.633,0,16.5,0h-4c-0.133,0-0.26,0.053-0.354,0.146L11.5,0.793l-0.646-0.646C10.76,0.053,10.633,0,10.5,0h-4
			C6.367,0,6.24,0.053,6.146,0.146l-3,3C3.053,3.24,3,3.367,3,3.5v2.793L2.146,7.146C2.053,7.24,2,7.367,2,7.5v2.793l-1.854,1.854
			C0.053,12.24,0,12.367,0,12.5v8c0,0.133,0.053,0.26,0.146,0.354l3,3C3.24,23.947,3.367,24,3.5,24h7
			c0.133,0,0.26-0.053,0.354-0.146l0.646-0.646l0.646,0.646C12.24,23.947,12.367,24,12.5,24h7c0.133,0,0.26-0.053,0.354-0.146l3-3
			C22.947,20.76,23,20.633,23,20.5v-8C23,12.367,22.947,12.24,22.854,12.146z M13.146,2.146c0.195-0.195,0.512-0.195,0.707,0
			L15.707,4H17.5C17.776,4,18,4.224,18,4.5S17.776,5,17.5,5h-2c-0.133,0-0.26-0.053-0.354-0.146l-2-2
			C12.951,2.658,12.951,2.342,13.146,2.146z M12.146,4.146c0.195-0.195,0.512-0.195,0.707,0l2,2C14.947,6.24,15,6.367,15,6.5v2
			c0,0.133-0.053,0.26-0.146,0.354l-1,1C13.756,9.951,13.628,10,13.5,10s-0.256-0.049-0.354-0.146c-0.195-0.195-0.195-0.512,0-0.707
			L14,8.293V6.707l-1.854-1.854C11.951,4.658,11.951,4.342,12.146,4.146z M6.146,3.146l1-1c0.195-0.195,0.512-0.195,0.707,0
			s0.195,0.512,0,0.707l-1,1C6.756,3.951,6.628,4,6.5,4S6.244,3.951,6.146,3.854C5.951,3.658,5.951,3.342,6.146,3.146z M5.5,5h1.793
			l2.854-2.854c0.195-0.195,0.512-0.195,0.707,0s0.195,0.512,0,0.707l-3,3C7.76,5.947,7.633,6,7.5,6h-2C5.224,6,5,5.776,5,5.5
			S5.224,5,5.5,5z M5.5,7h2c0.133,0,0.26,0.053,0.354,0.146l2,2C9.947,9.24,10,9.367,10,9.5v5c0,0.276-0.224,0.5-0.5,0.5
			S9,14.776,9,14.5V9.707L7.293,8H5.5C5.224,8,5,7.776,5,7.5S5.224,7,5.5,7z M3,13.707V21.5C3,21.776,2.776,22,2.5,22
			S2,21.776,2,21.5v-8c0-0.133,0.053-0.26,0.146-0.354l2.403-2.403C4.529,10.664,4.5,10.586,4.5,10.5c0-0.551,0.448-1,1-1
			s1,0.449,1,1s-0.448,1-1,1c-0.086,0-0.164-0.029-0.244-0.049L3,13.707z M6.854,22.854C6.756,22.951,6.628,23,6.5,23
			s-0.256-0.049-0.354-0.146l-2-2C4.053,20.76,4,20.633,4,20.5v-6c0-0.133,0.053-0.26,0.146-0.354l1-1
			c0.195-0.195,0.512-0.195,0.707,0s0.195,0.512,0,0.707L5,14.707v5.586l1.854,1.854C7.049,22.342,7.049,22.658,6.854,22.854z
			 M9.854,22.854C9.756,22.951,9.628,23,9.5,23s-0.256-0.049-0.354-0.146l-3-3C6.053,19.76,6,19.633,6,19.5v-4
			c0-0.133,0.053-0.26,0.146-0.354L7,14.293V12.5C7,12.224,7.224,12,7.5,12S8,12.224,8,12.5v2c0,0.133-0.053,0.26-0.146,0.354
			L7,15.707v3.586l2.854,2.854C10.049,22.342,10.049,22.658,9.854,22.854z M11.854,21.854C11.756,21.951,11.628,22,11.5,22
			s-0.256-0.049-0.354-0.146l-3-3C8.053,18.76,8,18.633,8,18.5v-1c0-0.167,0.084-0.323,0.223-0.416L11,15.232V7.707l-0.256-0.256
			C10.664,7.471,10.586,7.5,10.5,7.5c-0.552,0-1-0.449-1-1s0.448-1,1-1s1,0.449,1,1c0,0.086-0.029,0.164-0.049,0.244l0.403,0.403
			C11.947,7.24,12,7.367,12,7.5v8c0,0.167-0.084,0.323-0.223,0.416L9,17.768v0.525l2.854,2.854
			C12.049,21.342,12.049,21.658,11.854,21.854z M18.5,22H14c-0.133,0-0.26-0.053-0.354-0.146l-1.903-1.903
			C11.664,19.971,11.586,20,11.5,20c-0.552,0-1-0.449-1-1s0.448-1,1-1s1,0.449,1,1c0,0.086-0.029,0.164-0.049,0.244L14.207,21H18.5
			c0.276,0,0.5,0.224,0.5,0.5S18.776,22,18.5,22z M20.5,20h-5c-0.133,0-0.26-0.053-0.354-0.146l-0.999-0.999
			c-0.046-0.046-0.083-0.102-0.109-0.163C14.013,18.63,14,18.565,14,18.5V17h-0.5c-0.276,0-0.5-0.224-0.5-0.5s0.224-0.5,0.5-0.5H14
			v-1h-0.5c-0.276,0-0.5-0.224-0.5-0.5s0.224-0.5,0.5-0.5H14v-1h-0.5c-0.276,0-0.5-0.224-0.5-0.5s0.224-0.5,0.5-0.5H14v-0.5
			c0-0.276,0.224-0.5,0.5-0.5s0.5,0.224,0.5,0.5V12h1V7.5c0-0.133,0.053-0.26,0.146-0.354l1-1c0.195-0.195,0.512-0.195,0.707,0
			s0.195,0.512,0,0.707L17,7.707V12h1V8.5C18,8.224,18.224,8,18.5,8S19,8.224,19,8.5V12h0.5c0.276,0,0.5,0.224,0.5,0.5
			S19.776,13,19.5,13H19v1h0.5c0.276,0,0.5,0.224,0.5,0.5S19.776,15,19.5,15H19v1h0.5c0.276,0,0.5,0.224,0.5,0.5S19.776,17,19.5,17
			H19v0.5c0,0.276-0.224,0.5-0.5,0.5S18,17.776,18,17.5V17h-1v0.5c0,0.276-0.224,0.5-0.5,0.5S16,17.776,16,17.5V17h-1v1.293
			L15.707,19H20.5c0.276,0,0.5,0.224,0.5,0.5S20.776,20,20.5,20z"/>
	</g>
</g>
<g id="Robot_4">
</g>
<g id="Robot_5">
</g>
<g id="Robot_6">
</g>
<g id="Robot_7">
</g>
<g id="Robot_8">
</g>
<g id="Robot_9">
</g>
<g id="Robot_10">
</g>
<g id="Robot_11">
</g>
<g id="Robot_12">
</g>
<g id="Robot_13">
</g>
</svg>
