<?xml version="1.0" encoding="iso-8859-1"?>
<!-- Generator: Adobe Illustrator 19.2.1, SVG Export Plug-In . SVG Version: 6.00 Build 0)  -->
<svg version="1.1" xmlns="http://www.w3.org/2000/svg" xmlns:xlink="http://www.w3.org/1999/xlink" x="0px" y="0px"
	 viewBox="0 0 30 30" style="enable-background:new 0 0 30 30;" xml:space="preserve">
<g id="Add_User">
</g>
<g id="Remove_User">
</g>
<g id="Delete_User">
</g>
<g id="Done">
</g>
<g id="At_Symbol">
	<g>
		<path d="M24.057,24.171v2.736c0.581-0.207,1-0.757,1-1.407C25.057,24.747,24.605,24.384,24.057,24.171z"/>
		<path d="M23.557,17c-3.584,0-6.5,2.916-6.5,6.5s2.916,6.5,6.5,6.5s6.5-2.916,6.5-6.5S27.141,17,23.557,17z M23.555,28
			c-1.316,0-2.414-1.028-2.497-2.341c-0.018-0.275,0.191-0.513,0.468-0.531c0.28-0.011,0.514,0.192,0.53,0.467
			c0.039,0.614,0.449,1.119,1.001,1.314v-3.038c-1.344-0.426-2-1.214-2-2.372c0-1.378,1.122-2.5,2.502-2.5
			c1.316,0,2.414,1.028,2.497,2.34c0.018,0.275-0.191,0.513-0.468,0.531c-0.301,0.015-0.513-0.192-0.53-0.467
			c-0.039-0.613-0.449-1.118-1.001-1.314v3.038c1.344,0.427,2,1.215,2,2.372C26.057,26.879,24.935,28,23.555,28z"/>
		<path d="M22.057,21.5c0,0.753,0.451,1.117,1,1.329v-2.737C22.476,20.3,22.057,20.849,22.057,21.5z"/>
		<path d="M15.943,23.5c0-2.544,1.283-4.896,3.433-6.291c0.076-0.049,0.137-0.118,0.177-0.2c0.408-0.835,0.681-1.729,0.797-2.609
			c0.66-0.167,1.176-0.74,1.262-1.462l0.294-2.445c0.06-0.495-0.093-0.992-0.417-1.362c-0.194-0.221-0.44-0.385-0.712-0.479
			l0.114-2.438l0.468-0.487c0.632-0.701,1.154-1.904,0.052-3.658C20.548,0.696,19.074,0,17.031,0c-0.813,0-2.69,0-4.428,1.225
			C7.659,1.326,6.987,3.693,6.987,6.002c0,0.568,0.14,1.888,0.223,2.615C6.904,8.702,6.624,8.875,6.407,9.119
			c-0.33,0.373-0.485,0.873-0.426,1.374l0.294,2.445c0.092,0.771,0.674,1.372,1.399,1.49c0.229,1.706,1.023,3.385,2.185,4.612
			l-0.44,1.836L4.87,22.061C1.827,22.854-0.057,26.54-0.057,29.5c0,0.276,0.224,0.5,0.5,0.5h17c0.251,0,0.463-0.186,0.496-0.435
			l0.083-0.635c0.019-0.146-0.027-0.292-0.126-0.401C16.637,27.141,15.943,25.355,15.943,23.5z"/>
	</g>
</g>
<g id="Question">
</g>
<g id="Answer">
</g>
<g id="Bring_Up">
</g>
<g id="Bring_Down">
</g>
<g id="Dismiss_User">
</g>
<g id="User_Speed">
</g>
<g id="User_Settings">
</g>
<g id="User_Refresh">
</g>
<g id="User_Time">
</g>
<g id="Dollar">
</g>
<g id="Euro">
</g>
<g id="Pound">
</g>
<g id="Bitcoin">
</g>
<g id="Global_User">
</g>
<g id="Waiting_User">
</g>
<g id="Writing_User_2">
</g>
<g id="Search_User">
</g>
<g id="Lock_User">
</g>
<g id="Mark_User">
</g>
<g id="Share_User">
</g>
<g id="Shopping">
</g>
<g id="User_Download">
</g>
<g id="User_Upload">
</g>
<g id="User_Statistics">
</g>
<g id="User_Defense">
</g>
<g id="User_Car">
</g>
<g id="User_Home">
</g>
<g id="Park">
</g>
<g id="Recicle_User">
</g>
<g id="Wifi">
</g>
<g id="Attach_User">
</g>
<g id="Disabled_User">
</g>
<g id="User_Card">
</g>
<g id="Gaming">
</g>
<g id="User_Cloud">
</g>
<g id="User_Database">
</g>
<g id="Copyright">
</g>
<g id="No_Copyright">
</g>
<g id="Creative_Commun">
</g>
<g id="Eco-Friendly">
</g>
<g id="Percentage">
</g>
<g id="User_Love">
</g>
<g id="User_Place">
</g>
<g id="User_Key">
</g>
<g id="Sleeping">
</g>
<g id="Add_User_2">
</g>
<g id="Remove_User_2">
</g>
<g id="Delete_User_2">
</g>
<g id="Done_2">
</g>
<g id="At_Symbol_2">
</g>
<g id="Question_2">
</g>
<g id="Answer_2">
</g>
<g id="Bring_Up_2">
</g>
<g id="Bring_Down_2">
</g>
<g id="Dismiss_User_2">
</g>
<g id="User_Speed_2">
</g>
<g id="User_Settings_2">
</g>
<g id="Refresh_2">
</g>
<g id="Time_2">
</g>
<g id="Dollar_2">
</g>
<g id="Euro_2">
</g>
<g id="Pound_2">
</g>
<g id="Bitcoin_2">
</g>
<g id="Global_User_2">
</g>
<g id="Waiting_User_2">
</g>
<g id="Writing_User">
</g>
<g id="Search_User_2">
</g>
<g id="Lock_User_2">
</g>
<g id="Mark_User_2">
</g>
<g id="Share_User_2">
</g>
<g id="Shopping_2">
</g>
<g id="Download_2">
</g>
<g id="Upload_2">
</g>
<g id="User_Statistics_2">
</g>
<g id="User_Defense_2">
</g>
<g id="Car_2">
</g>
<g id="Home_2">
</g>
<g id="Park_2">
</g>
<g id="Recicle_User_2">
</g>
<g id="User_Wifi">
</g>
<g id="Attach_2">
</g>
<g id="Disabled_User_2">
</g>
<g id="User_Card_2">
</g>
<g id="Gaming_2">
</g>
<g id="Cloud_2">
</g>
<g id="Database_2">
</g>
<g id="Copyright_2">
</g>
<g id="No_Copyright_2">
</g>
<g id="Creative_Commun_2">
</g>
<g id="Eco-Friendly_2">
</g>
<g id="Percentage_2">
</g>
<g id="User_Love_2">
</g>
<g id="User_Rate_2">
</g>
<g id="User_Key_2">
</g>
<g id="Sleeping_2">
</g>
</svg>
