<?xml version="1.0" encoding="iso-8859-1"?>
<!-- Generator: Adobe Illustrator 19.2.1, SVG Export Plug-In . SVG Version: 6.00 Build 0)  -->
<svg version="1.1" xmlns="http://www.w3.org/2000/svg" xmlns:xlink="http://www.w3.org/1999/xlink" x="0px" y="0px"
	 viewBox="0 0 30 30" style="enable-background:new 0 0 30 30;" xml:space="preserve">
<g id="Mail">
</g>
<g id="Open_Mail">
</g>
<g id="Mail_Attachmet">
</g>
<g id="Mails">
</g>
<g id="Trash">
</g>
<g id="Trash_Full">
</g>
<g id="Preferences_1">
</g>
<g id="Preferences_2">
</g>
<g id="Mouse">
</g>
<g id="Computer">
</g>
<g id="Notebook">
</g>
<g id="Mobile_Phone">
</g>
<g id="Print">
</g>
<g id="Calculator">
</g>
<g id="Tag">
</g>
<g id="Paperclip">
</g>
<g id="Heart">
</g>
<g id="Lock">
</g>
<g id="Lock_Open">
</g>
<g id="Key_1">
</g>
<g id="Star">
</g>
<g id="Add">
</g>
<g id="Remove">
</g>
<g id="Error">
</g>
<g id="Check_1">
</g>
<g id="Time">
</g>
<g id="Question_Mark">
</g>
<g id="Error_Mark">
</g>
<g id="Sand-Glass">
</g>
<g id="Battery_Full">
</g>
<g id="Battery_Charge">
</g>
<g id="Battery_Half">
</g>
<g id="Battery_Low">
</g>
<g id="No_Battery">
</g>
<g id="Key_2">
</g>
<g id="Link">
</g>
<g id="Brake_Link">
</g>
<g id="Pencil">
</g>
<g id="At">
	<path d="M20.764,8.834c-0.271-0.054-0.533,0.129-0.582,0.402l-0.129,0.712c-1.311-1.027-3.33-1.381-5.302-0.886
		c-2.515,0.633-4.437,2.512-5.271,5.157c-0.515,1.63-0.207,3.442,0.824,4.849c0.98,1.338,2.463,2.106,4.065,2.106
		c2.192,0,3.913-1.386,4.863-3.094c0.804,2.121,3.02,3.094,5.224,3.094C27.073,21.174,30,18.534,30,15c0-8.271-6.729-15-15-15
		S0,6.729,0,15s6.729,15,15,15c3.427,0,6.652-1.125,9.329-3.252c0.216-0.172,0.252-0.487,0.08-0.703
		c-0.172-0.217-0.485-0.25-0.703-0.081C21.209,27.95,18.198,29,15,29C7.28,29,1,22.72,1,15S7.28,1,15,1s14,6.28,14,14
		c0,2.914-2.442,5.174-4.544,5.174c-2.096,0-4.543-1.025-4.551-3.824l1.261-6.935C21.215,9.144,21.035,8.884,20.764,8.834z
		 M14.369,20.174c-1.28,0-2.469-0.619-3.259-1.697c-0.843-1.15-1.097-2.629-0.678-3.957c0.997-3.157,3.286-4.167,4.563-4.488
		c1.788-0.449,3.678-0.083,4.7,0.913c0.047,0.046,0.102,0.08,0.159,0.103l-0.916,5.07c-0.003,0.01-0.01,0.018-0.013,0.028
		C18.548,17.766,17.022,20.174,14.369,20.174z"/>
</g>
<g id="Reply">
</g>
<g id="Accessible">
</g>
<g id="Up_Arrow">
</g>
<g id="Brush">
</g>
<g id="Design_Mug">
</g>
<g id="Design">
</g>
<g id="Server">
</g>
<g id="Database">
</g>
<g id="Save">
</g>
<g id="Female">
</g>
<g id="Male">
</g>
<g id="Book">
</g>
<g id="Power">
</g>
<g id="Reload">
</g>
<g id="Map">
</g>
<g id="Loction_1">
</g>
<g id="Location_2">
</g>
<g id="Globe">
</g>
<g id="Suitcase">
</g>
<g id="Callendar">
</g>
<g id="Cloud_Off">
</g>
<g id="File_1">
</g>
<g id="File_2">
</g>
<g id="Folder">
</g>
<g id="Open_Folder">
</g>
<g id="Cloud">
</g>
<g id="Upload_Cloud">
</g>
<g id="Download_Cloud">
</g>
<g id="Eye">
</g>
<g id="Invisible">
</g>
<g id="Assignment">
</g>
<g id="Note_Book">
</g>
<g id="Webpage">
</g>
<g id="Mailbox">
</g>
<g id="Drive">
</g>
<g id="Disc">
</g>
<g id="Wifi_1">
</g>
<g id="Wifi_2">
</g>
<g id="Archive">
</g>
<g id="Archive_File">
</g>
<g id="News">
</g>
<g id="Home">
</g>
<g id="Collaboration">
</g>
<g id="Announcement">
</g>
<g id="Watch">
</g>
<g id="Clock">
</g>
<g id="Volume">
</g>
<g id="Mute">
</g>
<g id="Hand">
</g>
<g id="Layers">
</g>
<g id="Bell">
</g>
<g id="Speach_Bubble">
</g>
<g id="Speach_Bubbles">
</g>
<g id="Zoom_In">
</g>
<g id="Zoom_Out">
</g>
<g id="Search">
</g>
<g id="Back_Arrow">
</g>
<g id="Close">
</g>
<g id="Check_2">
</g>
<g id="Left_Arrow_2">
</g>
<g id="Right_Arrow_2">
</g>
</svg>
