<?xml version="1.0" encoding="iso-8859-1"?>
<!-- Generator: Adobe Illustrator 19.2.1, SVG Export Plug-In . SVG Version: 6.00 Build 0)  -->
<svg version="1.1" xmlns="http://www.w3.org/2000/svg" xmlns:xlink="http://www.w3.org/1999/xlink" x="0px" y="0px"
	 viewBox="0 0 30 30" style="enable-background:new 0 0 30 30;" xml:space="preserve">
<g id="Retro_Bot_1">
</g>
<g id="Retro_Bot_2">
</g>
<g id="Retro_Bot_3">
</g>
<g id="Retro_Bot_4">
</g>
<g id="Wall-E">
</g>
<g id="Eva">
</g>
<g id="Iron_Giant">
</g>
<g id="Marvin">
</g>
<g id="Atlas">
	<g>
		<path d="M20,19.779c0-0.122,0.044-0.239,0.125-0.331C21.334,18.076,22,16.318,22,14.5s-0.666-3.576-1.875-4.949
			C20.044,9.46,20,9.342,20,9.221V3.292c-1.52-0.749-3.211-1.195-5-1.267v8.025c2.244,0.252,4,2.139,4,4.449s-1.756,4.197-4,4.449
			v8.025c1.789-0.071,3.48-0.518,5-1.267V19.779z"/>
		<path d="M14,26.975v-8.025c-2.244-0.252-4-2.139-4-4.449s1.756-4.197,4-4.449V2.025c-1.789,0.071-3.48,0.518-5,1.267v5.929
			C9,9.342,8.956,9.46,8.875,9.551C7.666,10.924,7,12.682,7,14.5s0.666,3.576,1.875,4.949C8.956,19.54,9,19.658,9,19.779v5.929
			C10.52,26.457,12.211,26.903,14,26.975z"/>
		<path d="M27,14.5c0-4.51-2.409-8.458-6-10.657v5.192c1.291,1.533,2,3.466,2,5.465s-0.709,3.932-2,5.465v5.192
			C24.591,22.958,27,19.01,27,14.5z"/>
		<path d="M8,25.157v-5.192c-1.291-1.533-2-3.466-2-5.465s0.709-3.932,2-5.465V3.843C4.409,6.042,2,9.99,2,14.5
			S4.409,22.958,8,25.157z"/>
		<path d="M18,14.5c0-1.93-1.57-3.5-3.5-3.5S11,12.57,11,14.5s1.57,3.5,3.5,3.5S18,16.43,18,14.5z M13.5,14.5c0-0.552,0.448-1,1-1
			s1,0.448,1,1c0,0.552-0.448,1-1,1S13.5,15.052,13.5,14.5z"/>
		<path d="M14.5,1c3.343,0,6.4,1.228,8.76,3.248l0.73-3.65c0.029-0.147-0.009-0.299-0.104-0.415S23.649,0,23.5,0h-18
			C5.351,0,5.208,0.067,5.113,0.183S4.98,0.451,5.01,0.598l0.73,3.65C8.1,2.228,11.157,1,14.5,1z"/>
		<path d="M14.5,28c-3.343,0-6.4-1.228-8.76-3.248l-0.73,3.65c-0.029,0.147,0.009,0.299,0.104,0.415S5.351,29,5.5,29h18
			c0.149,0,0.292-0.067,0.387-0.183s0.133-0.268,0.104-0.415l-0.73-3.65C20.9,26.772,17.843,28,14.5,28z"/>
	</g>
</g>
<g id="Claptrap">
</g>
<g id="Android">
</g>
<g id="Bender">
</g>
<g id="Roberto">
</g>
<g id="Robot_Devil">
</g>
<g id="Robocop">
</g>
<g id="ED_209">
</g>
<g id="Optimus_Prime">
</g>
<g id="Robot_1">
</g>
<g id="Robot_2">
</g>
<g id="Robot_3">
</g>
<g id="Robot_Arm_1">
</g>
<g id="Robot_Arm_2">
</g>
<g id="Robot_Arm_3">
</g>
<g id="Robot_Arm_4">
</g>
<g id="Robot_Arm_5">
</g>
<g id="K5_Robot">
</g>
<g id="Robot_Machine_1">
</g>
<g id="Robot_Machine_2">
</g>
<g id="Artifical_Intelligence_1">
</g>
<g id="Artifical_Intelligence_2">
</g>
<g id="Robot_4">
</g>
<g id="Robot_5">
</g>
<g id="Robot_6">
</g>
<g id="Robot_7">
</g>
<g id="Robot_8">
</g>
<g id="Robot_9">
</g>
<g id="Robot_10">
</g>
<g id="Robot_11">
</g>
<g id="Robot_12">
</g>
<g id="Robot_13">
</g>
</svg>
