<?xml version="1.0" encoding="iso-8859-1"?>
<!-- Generator: Adobe Illustrator 19.2.1, SVG Export Plug-In . SVG Version: 6.00 Build 0)  -->
<svg version="1.1" xmlns="http://www.w3.org/2000/svg" xmlns:xlink="http://www.w3.org/1999/xlink" x="0px" y="0px"
	 viewBox="0 0 24 24" style="enable-background:new 0 0 24 24;" xml:space="preserve">
<g id="Man_1">
</g>
<g id="Woman_1">
</g>
<g id="Man_2">
</g>
<g id="Woman_2">
</g>
<g id="Bald_Man">
</g>
<g id="Man_Glasses">
</g>
<g id="Woman_Glasses">
</g>
<g id="Man_Beard">
</g>
<g id="Man_Cap">
</g>
<g id="Woman_Cap">
</g>
<g id="Man_3">
</g>
<g id="Woman_3">
</g>
<g id="Men_4">
</g>
<g id="Woman_4">
</g>
<g id="Business_Man_1">
</g>
<g id="Business_Woman_1">
</g>
<g id="Firefigyhter">
</g>
<g id="Policeman">
</g>
<g id="Criminal">
</g>
<g id="Prisoner">
</g>
<g id="Woodsman">
</g>
<g id="Dispatcher_1">
</g>
<g id="Dispatcher_2">
</g>
<g id="Soldier">
</g>
<g id="Astronaut">
</g>
<g id="Hipster_Guy">
</g>
<g id="Hipster_Girl">
</g>
<g id="Worker">
</g>
<g id="Old_Man">
</g>
<g id="Punk">
</g>
<g id="Diver">
</g>
<g id="Artist">
</g>
<g id="Dictator">
</g>
<g id="Man_Hat">
</g>
<g id="Woman_Hat">
</g>
<g id="Graduated_Man">
</g>
<g id="Graduated_Woman">
</g>
<g id="Avatar_Chef">
	<g>
		<path d="M9.5,14h1c0.276,0,0.5-0.224,0.5-0.5S10.776,13,10.5,13h-1C9.224,13,9,13.224,9,13.5S9.224,14,9.5,14z"/>
		<path d="M13.5,14h1c0.276,0,0.5-0.224,0.5-0.5S14.776,13,14.5,13h-1c-0.276,0-0.5,0.224-0.5,0.5S13.224,14,13.5,14z"/>
		<path d="M14.646,15.646c-0.333,0.334-0.654,0.245-1.443-0.201C12.797,15.216,12.412,15,12,15s-0.797,0.216-1.203,0.445
			c-0.789,0.444-1.11,0.537-1.443,0.201c-0.195-0.195-0.512-0.195-0.707,0s-0.195,0.512,0,0.707
			c0.367,0.368,0.751,0.499,1.123,0.499c0.567,0,1.106-0.304,1.519-0.536C11.538,16.175,11.85,16,12,16s0.462,0.175,0.712,0.316
			c0.412,0.232,0.951,0.536,1.519,0.536c0.371,0,0.756-0.131,1.123-0.499c0.195-0.195,0.195-0.512,0-0.707
			S14.842,15.451,14.646,15.646z"/>
		<path d="M6,11.132C5.405,11.46,5,12.37,5,13.5C5,14.925,5.645,16,6.5,16c0.055,0,0.116-0.005,0.185-0.018
			C7.713,18.441,9.75,20,12,20s4.287-1.559,5.315-4.018C17.384,15.995,17.445,16,17.5,16c0.855,0,1.5-1.075,1.5-2.5
			c0-1.13-0.405-2.04-1-2.368V10.5V9.234c0.609-0.551,1-1.339,1-2.224c0-1.658-1.346-3.007-3-3.007c-0.384,0-0.77,0.079-1.133,0.231
			C14.112,3.445,13.089,3,12,3c-1.088,0-2.112,0.445-2.866,1.233C8.771,4.08,8.391,4.002,8,4.002c-1.654,0-3,1.349-3,3.007
			c0,0.885,0.391,1.674,1,2.224V10.5V11.132z M17.506,15c-0.001,0-0.036-0.01-0.1-0.075c-0.122-0.125-0.303-0.176-0.468-0.138
			c-0.17,0.039-0.308,0.163-0.363,0.327C15.773,17.475,13.978,19,12,19s-3.773-1.525-4.575-3.886
			c-0.056-0.164-0.193-0.288-0.363-0.327c-0.036-0.008-0.073-0.012-0.11-0.012c-0.133,0-0.262,0.053-0.357,0.15
			C6.533,14.988,6.498,15,6.5,15C6.375,14.999,6,14.467,6,13.5C6,12.532,6.376,12,6.5,12C6.776,12,7,11.776,7,11.5v-0.271
			c0.68,0.234,1.83,0.544,3.37,0.688c0.027,0.003,0.053,0.006,0.08,0.008c0.175,0.016,0.352,0.029,0.536,0.039
			C11.314,11.985,11.649,12,12,12s0.686-0.015,1.013-0.035c0.185-0.011,0.361-0.024,0.536-0.039c0.027-0.003,0.053-0.006,0.08-0.008
			c1.54-0.144,2.69-0.454,3.37-0.688V11.5c0,0.276,0.224,0.5,0.5,0.5c0.124,0,0.5,0.532,0.5,1.5S17.624,15,17.506,15z M8.873,5.68
			c0.178-0.212,0.492-0.239,0.704-0.064c0.212,0.177,0.24,0.492,0.063,0.704c-0.349,0.42-0.572,0.904-0.646,1.4
			c-0.036,0.249-0.25,0.427-0.493,0.427c-0.024,0-0.05-0.002-0.074-0.005C8.153,8.101,7.965,7.846,8.006,7.573
			C8.105,6.896,8.405,6.241,8.873,5.68z"/>
		<path d="M24,12c0-6.617-5.383-12-12-12S0,5.383,0,12c0,6.382,5.012,11.602,11.306,11.965c0.194,0.019,0.388,0.026,0.581,0.029
			C11.925,23.995,11.962,24,12,24c0.035,0,0.068-0.005,0.102-0.005c0.197-0.003,0.394-0.011,0.592-0.03
			C18.988,23.602,24,18.382,24,12z M1,12C1,5.935,5.935,1,12,1s11,4.935,11,11c0,3.146-1.335,5.98-3.459,7.987l-2.72-0.907
			l-0.16-0.24C15.404,20.205,13.764,21,12,21c-1.764,0-3.404-0.795-4.661-2.16l-0.16,0.24l-2.72,0.907C2.335,17.98,1,15.146,1,12z"
			/>
	</g>
</g>
<g id="Waiter">
</g>
<g id="Waitress">
</g>
<g id="Bllboy">
</g>
<g id="Santa">
</g>
<g id="Doctor">
</g>
<g id="Nurse">
</g>
<g id="Captain">
</g>
<g id="Farmer">
</g>
<g id="Maid">
</g>
<g id="Business_Man_2">
</g>
<g id="Business_Woman_2">
</g>
<g id="Cowboy">
</g>
<g id="Anonymus">
</g>
<g id="Batman">
</g>
<g id="Superman">
</g>
<g id="Captain_America">
</g>
<g id="Darth_Vader">
</g>
<g id="Harry_Potter">
</g>
<g id="Anonymus_2">
</g>
<g id="Scream">
</g>
<g id="Jason">
</g>
<g id="Charlie_Chaplin">
</g>
</svg>
