<?xml version="1.0" encoding="iso-8859-1"?>
<!-- Generator: Adobe Illustrator 19.2.1, SVG Export Plug-In . SVG Version: 6.00 Build 0)  -->
<svg version="1.1" xmlns="http://www.w3.org/2000/svg" xmlns:xlink="http://www.w3.org/1999/xlink" x="0px" y="0px"
	 viewBox="0 0 30 30" style="enable-background:new 0 0 30 30;" xml:space="preserve">
<g id="Sun_Light">
</g>
<g id="Sunglasses">
</g>
<g id="T-Shirt_1">
</g>
<g id="T-Shirt_2">
</g>
<g id="Mini_Dress">
</g>
<g id="Flip-Flops">
</g>
<g id="Temperature">
</g>
<g id="Hot_Temperature">
</g>
<g id="Ice_Lolly">
</g>
<g id="Icecream">
</g>
<g id="Limonade_1">
</g>
<g id="Limonade_2">
</g>
<g id="Hat">
</g>
<g id="Straw_Hat">
</g>
<g id="Deckchair">
</g>
<g id="Sunshade">
</g>
<g id="Suncream">
</g>
<g id="Suntan_Oil">
</g>
<g id="Swimming_Trunks">
</g>
<g id="Bikini">
</g>
<g id="Pool">
</g>
<g id="Pool_Ladder">
</g>
<g id="Grill">
</g>
<g id="Kite_1">
</g>
<g id="Kite_2">
</g>
<g id="Badminton">
	<path d="M27.41,12.04c0.792-0.921,1.432-1.998,1.878-3.136c0.014-0.028,0.026-0.054,0.035-0.084C29.757,7.685,30,6.496,30,5.354
		c0-0.742-0.153-1.449-0.427-2.092c-0.015-0.046-0.041-0.087-0.069-0.127c-0.517-1.125-1.411-2.031-2.521-2.575
		c-0.01-0.012-0.014-0.027-0.026-0.039c-0.102-0.102-0.236-0.148-0.369-0.143C25.984,0.141,25.332,0,24.646,0
		c-1.1,0-2.258,0.239-3.374,0.666c-0.091,0.011-0.177,0.046-0.252,0.106c-3.149,1.294-5.889,4.091-5.889,7.357
		c0,1.188,0.229,2.249,0.645,3.164c0.015,0.095,0.051,0.185,0.12,0.261c0.206,0.403,0.453,0.772,0.735,1.109L6.099,23.194
		c-0.51-0.213-1.137-0.123-1.539,0.278l-4.413,4.413c-0.195,0.195-0.195,0.512,0,0.707l1.261,1.261C1.505,29.951,1.633,30,1.761,30
		s0.256-0.049,0.354-0.146l4.413-4.413c0.263-0.263,0.408-0.612,0.408-0.984c0-0.197-0.046-0.385-0.124-0.56l10.527-10.527
		c0.336,0.281,0.704,0.528,1.105,0.734c0.076,0.071,0.169,0.108,0.265,0.122c0.915,0.416,1.976,0.645,3.164,0.645
		c0.776,0,1.519-0.157,2.224-0.423c0.071-0.008,0.138-0.032,0.201-0.07c1.109-0.458,2.104-1.214,2.946-2.145
		c0.023-0.016,0.05-0.026,0.071-0.047C27.357,12.142,27.386,12.092,27.41,12.04z M24.151,13.357l-2.139-2.139l1.814-1.814
		l2.442,2.442C25.641,12.481,24.929,13.003,24.151,13.357z M16.904,11.281l1.878-1.878l1.815,1.815l-1.878,1.878
		C17.951,12.66,17.34,12.048,16.904,11.281z M16.13,8.128c0-0.413,0.064-0.817,0.165-1.213l1.78,1.78L16.471,10.3
		C16.257,9.647,16.13,8.928,16.13,8.128z M19.49,8.696l1.815-1.814l1.815,1.815l-1.814,1.814L19.49,8.696z M21.236,1.769
		l1.883,1.883l-1.815,1.815L18.957,3.12C19.649,2.575,20.427,2.12,21.236,1.769z M23.826,4.359l1.814,1.815l-1.815,1.815
		l-1.815-1.815L23.826,4.359z M24.533,8.696l1.815-1.815L28.267,8.8c-0.342,0.821-0.789,1.604-1.332,2.297L24.533,8.696z M29,5.354
		c0,0.789-0.13,1.604-0.363,2.402l-1.583-1.583l1.819-1.819C28.949,4.678,29,5.009,29,5.354z M28.48,3.335l-2.132,2.132
		l-1.814-1.815l2.132-2.132C27.44,1.93,28.07,2.56,28.48,3.335z M25.645,1.127l-1.818,1.818l-1.56-1.56
		C23.064,1.14,23.872,1,24.646,1C24.991,1,25.323,1.05,25.645,1.127z M18.208,3.785l2.389,2.389l-1.815,1.814l-2.11-2.11
		C17.036,5.119,17.566,4.413,18.208,3.785z M19.7,13.529l1.604-1.604l1.791,1.791c-0.397,0.094-0.804,0.154-1.223,0.154
		C21.073,13.87,20.353,13.743,19.7,13.529z"/>
</g>
<g id="Cooler">
</g>
<g id="Strand_Bag">
</g>
<g id="Towel">
</g>
<g id="Strand_Ball">
</g>
<g id="Beach_Sign">
</g>
<g id="Toos">
</g>
<g id="Bucket">
</g>
<g id="Sand_Castle">
</g>
<g id="Shell_1">
</g>
<g id="Shell_2">
</g>
<g id="Surf_Board">
</g>
<g id="Float">
</g>
<g id="Vacation_Photo">
</g>
<g id="Summer_Time">
</g>
<g id="Boat">
</g>
<g id="Lifebuoy">
</g>
<g id="Lighthouse">
</g>
<g id="Sunset">
</g>
<g id="Dolphin">
</g>
<g id="Starfish">
</g>
<g id="Diving_Mask">
</g>
<g id="Sailboat">
</g>
<g id="Captin_Hat">
</g>
<g id="Eudder">
</g>
</svg>
