<?xml version="1.0" encoding="iso-8859-1"?>
<!-- Generator: Adobe Illustrator 19.2.1, SVG Export Plug-In . SVG Version: 6.00 Build 0)  -->
<svg version="1.1" xmlns="http://www.w3.org/2000/svg" xmlns:xlink="http://www.w3.org/1999/xlink" x="0px" y="0px"
	 viewBox="0 0 24 24" style="enable-background:new 0 0 24 24;" xml:space="preserve">
<g id="Sun_Light">
</g>
<g id="Sunglasses">
</g>
<g id="T-Shirt_1">
</g>
<g id="T-Shirt_2">
</g>
<g id="Mini_Dress">
</g>
<g id="Flip-Flops">
</g>
<g id="Temperature">
</g>
<g id="Hot_Temperature">
</g>
<g id="Ice_Lolly">
</g>
<g id="Icecream">
</g>
<g id="Limonade_1">
</g>
<g id="Limonade_2">
</g>
<g id="Hat">
</g>
<g id="Straw_Hat">
</g>
<g id="Deckchair">
</g>
<g id="Sunshade">
</g>
<g id="Suncream">
</g>
<g id="Suntan_Oil">
</g>
<g id="Swimming_Trunks">
</g>
<g id="Bikini">
</g>
<g id="Pool">
</g>
<g id="Pool_Ladder">
</g>
<g id="Grill">
</g>
<g id="Kite_1">
</g>
<g id="Kite_2">
</g>
<g id="Badminton">
	<path d="M21.927,9.71c0.63-0.735,1.14-1.592,1.496-2.497c0.014-0.027,0.026-0.054,0.034-0.083C23.805,6.218,24,5.265,24,4.35
		c0-0.602-0.124-1.176-0.346-1.698c-0.012-0.036-0.034-0.068-0.055-0.101c-0.415-0.908-1.135-1.639-2.027-2.083
		c-0.007-0.007-0.009-0.017-0.016-0.024c-0.099-0.099-0.228-0.147-0.357-0.146C20.717,0.113,20.198,0,19.65,0
		c-0.882,0-1.811,0.191-2.705,0.534c-0.079,0.012-0.153,0.043-0.22,0.093C15.809,1.005,14.94,1.541,14.2,2.198c0,0,0,0,0,0l0,0
		C12.897,3.355,12,4.875,12,6.55c0,0.936,0.188,1.766,0.508,2.493c0.01,0.113,0.052,0.224,0.138,0.311
		c0.008,0.008,0.018,0.01,0.026,0.017c0.144,0.271,0.309,0.521,0.497,0.754l-8.251,8.25c-0.429-0.158-0.928-0.072-1.272,0.272
		l-3.5,3.5c-0.195,0.195-0.195,0.512,0,0.707l1,1C1.244,23.951,1.372,24,1.5,24s0.256-0.049,0.354-0.146l3.5-3.5
		c0.344-0.344,0.43-0.843,0.272-1.272l8.251-8.25c0.233,0.187,0.483,0.353,0.753,0.496c0.007,0.008,0.01,0.018,0.017,0.026
		c0.087,0.087,0.198,0.128,0.311,0.138C15.684,11.812,16.514,12,17.45,12c0.627,0,1.228-0.127,1.797-0.342
		c0.059-0.009,0.114-0.028,0.167-0.058c0.888-0.368,1.685-0.973,2.36-1.717c0.021-0.015,0.046-0.024,0.065-0.043
		C21.878,9.802,21.903,9.756,21.927,9.71z M19.279,10.572L17.707,9L19,7.707l1.792,1.792C20.338,9.944,19.83,10.312,19.279,10.572z
		 M13.638,9.069L15,7.707L16.293,9l-1.362,1.362C14.393,10.042,13.958,9.607,13.638,9.069z M13,6.55
		c0-0.256,0.036-0.507,0.087-0.756L14.293,7l-1.071,1.071C13.087,7.606,13,7.106,13,6.55z M15.707,7L17,5.707L18.293,7L17,8.293
		L15.707,7z M16.92,1.627L18.293,3L17,4.293l-1.705-1.706C15.794,2.206,16.345,1.882,16.92,1.627z M19,3.707L20.293,5L19,6.293
		L17.707,5L19,3.707z M19.707,7L21,5.707l1.402,1.402c-0.249,0.583-0.567,1.139-0.947,1.639L19.707,7z M23,4.35
		c0,0.561-0.083,1.139-0.234,1.709L21.707,5l1.234-1.234C22.975,3.956,23,4.15,23,4.35z M22.563,2.729L21,4.293L19.707,3
		l1.564-1.563C21.814,1.74,22.26,2.186,22.563,2.729z M20.234,1.059L19,2.293l-1.044-1.044C18.525,1.088,19.099,1,19.65,1
		C19.85,1,20.044,1.025,20.234,1.059z M14.543,3.249L16.293,5L15,6.293l-1.548-1.549C13.719,4.206,14.093,3.703,14.543,3.249z
		 M15.929,10.778L17,9.707l1.213,1.213C17.963,10.967,17.71,11,17.45,11C16.894,11,16.394,10.913,15.929,10.778z"/>
</g>
<g id="Cooler">
</g>
<g id="Strand_Bag">
</g>
<g id="Towel">
</g>
<g id="Strand_Ball">
</g>
<g id="Beach_Sign">
</g>
<g id="Toos">
</g>
<g id="Bucket">
</g>
<g id="Sand_Castle">
</g>
<g id="Shell_1">
</g>
<g id="Shell_2">
</g>
<g id="Surf_Board">
</g>
<g id="Float">
</g>
<g id="Vacation_Photo">
</g>
<g id="Summer_Time">
</g>
<g id="Boat">
</g>
<g id="Lifebuoy">
</g>
<g id="Lighthouse">
</g>
<g id="Sunset">
</g>
<g id="Dolphin">
</g>
<g id="Starfish">
</g>
<g id="Diving_Mask">
</g>
<g id="Sailboat">
</g>
<g id="Captin_Hat">
</g>
<g id="Eudder">
</g>
</svg>
