<?xml version="1.0" encoding="iso-8859-1"?>
<!-- Generator: Adobe Illustrator 19.2.1, SVG Export Plug-In . SVG Version: 6.00 Build 0)  -->
<svg version="1.1" xmlns="http://www.w3.org/2000/svg" xmlns:xlink="http://www.w3.org/1999/xlink" x="0px" y="0px"
	 viewBox="0 0 24 24" style="enable-background:new 0 0 24 24;" xml:space="preserve">
<g id="Egg_1_">
</g>
<g id="Easter_Egg_1">
</g>
<g id="Easter_Egg_2">
</g>
<g id="Easter_Egg_3">
</g>
<g id="Eggs_1">
</g>
<g id="Eggs_2_1_">
</g>
<g id="Bunny">
</g>
<g id="Sheep">
</g>
<g id="Bell_Alarm">
</g>
<g id="Calendar">
</g>
<g id="Tulip">
</g>
<g id="Chicken">
</g>
<g id="Chicken_2">
</g>
<g id="Baguette">
	<path d="M22.844,1.146c-0.922-0.916-2.201-1.273-3.798-1.063c-2.258,0.296-4.949,1.716-7.581,3.695
		c0.904-0.181,1.859-0.277,2.543-0.277c2.182,0,4.035,1.372,4.047,2.996c0.002,0.276-0.22,0.502-0.496,0.504
		c-0.001,0-0.003,0-0.003,0c-0.275,0-0.499-0.221-0.501-0.496c-0.008-1.067-1.432-2.004-3.047-2.004
		c-1.378,0-3.59,0.413-4.208,0.895C9.672,5.493,9.516,5.514,9.372,5.478C8.527,6.218,7.706,7.001,6.92,7.813
		c1.169-0.28,2.471-0.312,2.998-0.312c2.196,0,4.062,1.372,4.073,2.996c0.002,0.276-0.22,0.502-0.496,0.504
		c-0.001,0-0.003,0-0.003,0c-0.275,0-0.499-0.221-0.501-0.496c-0.008-1.067-1.444-2.004-3.073-2.004
		c-1.886,0-3.561,0.352-4.074,0.854C5.827,9.373,5.809,9.388,5.79,9.402c-0.12,0.09-0.271,0.114-0.412,0.084
		c-1.041,1.203-1.975,2.431-2.757,3.63c0.889-0.388,1.92-0.616,2.621-0.616c2.056,0,3.738,1.344,3.75,2.996
		c0.002,0.276-0.22,0.502-0.496,0.504c-0.001,0-0.003,0-0.003,0c-0.275,0-0.499-0.221-0.501-0.496
		c-0.008-1.086-1.267-2.004-2.75-2.004c-1.171,0-2.918,0.671-3.338,1.283c-0.089,0.131-0.229,0.198-0.376,0.209
		c-1.824,3.474-1.984,6.251-0.392,7.86c0.737,0.745,1.736,1.123,2.941,1.123c0.586,0,1.222-0.089,1.9-0.269
		C12.371,22.01,21.969,12.41,23.683,5.997C24.238,3.92,23.948,2.243,22.844,1.146z"/>
</g>
<g id="Ham_1_">
</g>
<g id="Bell_2">
</g>
<g id="Bell_3">
</g>
<g id="Bell_4">
</g>
<g id="Easter_celebration">
</g>
<g id="Egg_painting">
</g>
<g id="Easter_willow">
</g>
<g id="Daffodil">
</g>
<g id="Easter_message">
</g>
<g id="Bunny_2">
</g>
<g id="Chicken_3">
</g>
<g id="Tulip_2">
</g>
<g id="Easter_basket">
</g>
<g id="Bread_and_wine">
</g>
<g id="Sheep_2">
</g>
<g id="Candle_Light">
</g>
</svg>
