<?xml version="1.0" encoding="iso-8859-1"?>
<!-- Generator: Adobe Illustrator 19.2.1, SVG Export Plug-In . SVG Version: 6.00 Build 0)  -->
<svg version="1.1" xmlns="http://www.w3.org/2000/svg" xmlns:xlink="http://www.w3.org/1999/xlink" x="0px" y="0px"
	 viewBox="0 0 30 30" style="enable-background:new 0 0 30 30;" xml:space="preserve">
<g id="Man_1">
</g>
<g id="Woman_1">
</g>
<g id="Man_2">
</g>
<g id="Woman_2">
</g>
<g id="Bald_Man">
	<g>
		<path d="M22.468,12.521C22.062,8.069,19.044,5,15,5s-7.062,3.069-7.467,7.521C6.645,12.693,6,13.917,6,15.5c0,1.71,0.752,3,1.75,3
			c0.171,0,0.352-0.071,0.521-0.173c0.873,2.226,2.76,5.717,5.076,6.399c0.104,0.034,0.208,0.065,0.322,0.094
			c0.142,0.034,0.285,0.065,0.428,0.09c0.36,0.062,0.664,0.09,0.956,0.09c0.292,0,0.595-0.028,0.954-0.09
			c0.145-0.024,0.286-0.056,0.438-0.092c0.104-0.026,0.209-0.058,0.303-0.088c2.251-0.665,4.086-4.072,4.984-6.401
			c0.169,0.1,0.349,0.171,0.52,0.171c0.998,0,1.75-1.29,1.75-3C24,13.917,23.354,12.693,22.468,12.521z M22.314,17.508
			c-0.075-0.025-0.291-0.188-0.457-0.357c-0.121-0.125-0.301-0.178-0.468-0.138c-0.17,0.038-0.307,0.162-0.363,0.326
			c-0.925,2.723-2.748,5.896-4.574,6.436c-0.085,0.027-0.17,0.053-0.248,0.073c-0.121,0.028-0.241,0.056-0.366,0.076
			c-0.605,0.104-0.966,0.104-1.574,0c-0.123-0.021-0.243-0.048-0.356-0.074c-0.086-0.022-0.171-0.048-0.267-0.078
			c-1.792-0.529-3.742-3.709-4.668-6.433c-0.056-0.164-0.193-0.288-0.363-0.326C8.574,17.004,8.537,17,8.5,17
			c-0.133,0-0.262,0.053-0.357,0.15c-0.17,0.173-0.381,0.331-0.393,0.35c-0.265,0-0.75-0.76-0.75-2c0-1.241,0.485-2,0.75-2H8
			c0.267,0,0.486-0.209,0.5-0.475C8.71,8.823,11.323,6,15,6c3.678,0,6.29,2.823,6.501,7.025C21.514,13.291,21.733,13.5,22,13.5h0.25
			c0.265,0,0.75,0.759,0.75,2C23,16.74,22.515,17.5,22.314,17.508z"/>
		<path d="M18.5,14h-1c-0.276,0-0.5,0.224-0.5,0.5s0.224,0.5,0.5,0.5h1c0.276,0,0.5-0.224,0.5-0.5S18.776,14,18.5,14z"/>
		<path d="M12.5,14h-1c-0.276,0-0.5,0.224-0.5,0.5s0.224,0.5,0.5,0.5h1c0.276,0,0.5-0.224,0.5-0.5S12.776,14,12.5,14z"/>
		<path d="M15,0C6.729,0,0,6.729,0,15c0,4.264,1.797,8.108,4.662,10.842c0.032,0.032,0.058,0.067,0.097,0.088
			C7.443,28.446,11.04,30,15,30c3.963,0,7.561-1.556,10.246-4.075c0.059-0.034,0.109-0.08,0.15-0.137C28.228,23.059,30,19.236,30,15
			C30,6.729,23.271,0,15,0z M24.867,24.92c-0.068-0.022-0.136-0.045-0.204-0.065l-2.498-0.826c-0.314-0.11-0.912-0.54-1.312-0.882
			l-0.348-0.348c-0.919,1.3-2.088,2.481-3.476,2.891c-0.089,0.029-0.215,0.066-0.341,0.099c-0.187,0.045-0.35,0.08-0.516,0.108
			C15.761,25.967,15.404,26,15.052,26c-0.351,0-0.708-0.033-1.124-0.104c-0.165-0.027-0.329-0.063-0.493-0.103
			c-0.146-0.037-0.273-0.075-0.4-0.116c-1.404-0.414-2.588-1.598-3.518-2.899l-0.343,0.344c-0.427,0.367-1.024,0.797-1.332,0.904
			l-2.503,0.828c-0.069,0.021-0.138,0.044-0.206,0.066C2.582,22.383,1,18.873,1,15C1,7.28,7.28,1,15,1s14,6.28,14,14
			C29,18.873,27.418,22.383,24.867,24.92z"/>
	</g>
</g>
<g id="Man_Glasses">
</g>
<g id="Woman_Glasses">
</g>
<g id="Man_Beard">
</g>
<g id="Man_Cap">
</g>
<g id="Woman_Cap">
</g>
<g id="Man_3">
</g>
<g id="Woman_3">
</g>
<g id="Men_4">
</g>
<g id="Woman_4">
</g>
<g id="Business_Man_1">
</g>
<g id="Business_Woman_1">
</g>
<g id="Firefigyhter">
</g>
<g id="Policeman">
</g>
<g id="Criminal">
</g>
<g id="Prisoner">
</g>
<g id="Woodsman">
</g>
<g id="Dispatcher_1">
</g>
<g id="Dispatcher_2">
</g>
<g id="Soldier">
</g>
<g id="Astronaut">
</g>
<g id="Hipster_Guy">
</g>
<g id="Hipster_Girl">
</g>
<g id="Worker">
</g>
<g id="Old_Man">
</g>
<g id="Punk">
</g>
<g id="Diver">
</g>
<g id="Artist">
</g>
<g id="Dictator">
</g>
<g id="Man_Hat">
</g>
<g id="Woman_Hat">
</g>
<g id="Graduated_Man">
</g>
<g id="Graduated_Woman">
</g>
<g id="Avatar_Chef">
</g>
<g id="Waiter">
</g>
<g id="Waitress">
</g>
<g id="Bllboy">
</g>
<g id="Santa">
</g>
<g id="Doctor">
</g>
<g id="Nurse">
</g>
<g id="Captain">
</g>
<g id="Farmer">
</g>
<g id="Maid">
</g>
<g id="Business_Man_2">
</g>
<g id="Business_Woman_2">
</g>
<g id="Cowboy">
</g>
<g id="Anonymus">
</g>
<g id="Batman">
</g>
<g id="Superman">
</g>
<g id="Captain_America">
</g>
<g id="Darth_Vader">
</g>
<g id="Harry_Potter">
</g>
<g id="Anonymus_2">
</g>
<g id="Scream">
</g>
<g id="Jason">
</g>
<g id="Charlie_Chaplin">
</g>
</svg>
