<?xml version="1.0" encoding="iso-8859-1"?>
<!-- Generator: Adobe Illustrator 19.2.1, SVG Export Plug-In . SVG Version: 6.00 Build 0)  -->
<svg version="1.1" xmlns="http://www.w3.org/2000/svg" xmlns:xlink="http://www.w3.org/1999/xlink" x="0px" y="0px"
	 viewBox="0 0 24 24" style="enable-background:new 0 0 24 24;" xml:space="preserve">
<g id="Man_1">
</g>
<g id="Woman_1">
</g>
<g id="Man_2">
</g>
<g id="Woman_2">
</g>
<g id="Bald_Man">
	<g>
		<path d="M24,12c0-6.617-5.383-12-12-12S0,5.383,0,12c0,3.329,1.365,6.345,3.562,8.521c0.054,0.105,0.14,0.175,0.241,0.219
			c1.93,1.811,4.453,2.991,7.247,3.212C11.341,23.981,11.634,24,11.932,24c0.013,0,0.025-0.001,0.037-0.002
			C11.98,23.998,11.99,24,12,24c0.099,0,0.196-0.013,0.295-0.015c0.136-0.006,0.273-0.009,0.408-0.021
			C18.992,23.597,24,18.379,24,12z M12,1c6.065,0,11,4.935,11,11c0,3.005-1.214,5.73-3.173,7.717
			c-0.076-0.03-0.149-0.063-0.227-0.091l-2.033-0.707c-0.298-0.104-0.57-0.261-0.81-0.467l-0.103-0.088
			c-0.75,1.049-1.727,2.012-2.956,2.375c-0.076,0.024-0.18,0.056-0.287,0.083c-0.156,0.038-0.297,0.068-0.44,0.092
			C12.635,20.971,12.326,21,12.032,21s-0.604-0.029-0.95-0.088c-0.131-0.022-0.271-0.052-0.411-0.085
			c-0.128-0.032-0.23-0.063-0.333-0.096c-1.245-0.367-2.241-1.365-2.999-2.423l-0.168,0.144c-0.239,0.206-0.511,0.363-0.809,0.467
			l-2.034,0.707c-0.06,0.021-0.116,0.047-0.175,0.07C2.206,17.711,1,14.995,1,12C1,5.935,5.935,1,12,1z"/>
		<path d="M6.5,15c0.053,0,0.112-0.004,0.177-0.017c0.779,1.999,2.203,4.275,3.962,4.794c0.085,0.027,0.169,0.053,0.261,0.076
			c0.118,0.028,0.234,0.054,0.35,0.073C11.507,19.97,11.767,20,12.032,20c0.265,0,0.524-0.03,0.778-0.073
			c0.119-0.02,0.236-0.045,0.359-0.075c0.086-0.021,0.17-0.047,0.246-0.071c1.724-0.509,3.109-2.719,3.908-4.796
			C17.388,14.996,17.448,15,17.5,15c0.855,0,1.5-1.075,1.5-2.5c0-1.158-0.426-2.085-1.044-2.392C17.632,6.438,15.275,4,12,4
			s-5.632,2.438-5.956,6.108C5.426,10.415,5,11.342,5,12.5C5,13.925,5.645,15,6.5,15z M6.519,11c0.267,0,0.486-0.209,0.5-0.475
			C7.187,7.169,9.142,5,12,5s4.813,2.169,4.982,5.525c0.014,0.266,0.233,0.475,0.5,0.475H17.5c0.125,0,0.5,0.532,0.5,1.5
			S17.625,14,17.506,14c0,0-0.036-0.01-0.1-0.075c-0.122-0.124-0.3-0.175-0.468-0.138c-0.169,0.039-0.307,0.163-0.362,0.327
			c-0.644,1.893-1.931,4.261-3.453,4.71c-0.066,0.021-0.133,0.041-0.195,0.057c-0.093,0.022-0.186,0.043-0.283,0.06
			c-0.403,0.068-0.82,0.069-1.229-0.001c-0.095-0.015-0.188-0.036-0.274-0.057c-0.067-0.018-0.134-0.038-0.209-0.062
			c-1.457-0.43-2.839-2.741-3.508-4.707c-0.056-0.164-0.193-0.288-0.362-0.327c-0.037-0.008-0.074-0.012-0.111-0.012
			c-0.133,0-0.262,0.053-0.357,0.15C6.533,13.988,6.498,14,6.5,14C6.375,13.999,6,13.467,6,12.5C6,11.532,6.375,11,6.519,11z"/>
		<path d="M9.5,12h1c0.276,0,0.5-0.224,0.5-0.5S10.776,11,10.5,11h-1C9.224,11,9,11.224,9,11.5S9.224,12,9.5,12z"/>
		<path d="M13.5,12h1c0.276,0,0.5-0.224,0.5-0.5S14.776,11,14.5,11h-1c-0.276,0-0.5,0.224-0.5,0.5S13.224,12,13.5,12z"/>
	</g>
</g>
<g id="Man_Glasses">
</g>
<g id="Woman_Glasses">
</g>
<g id="Man_Beard">
</g>
<g id="Man_Cap">
</g>
<g id="Woman_Cap">
</g>
<g id="Man_3">
</g>
<g id="Woman_3">
</g>
<g id="Men_4">
</g>
<g id="Woman_4">
</g>
<g id="Business_Man_1">
</g>
<g id="Business_Woman_1">
</g>
<g id="Firefigyhter">
</g>
<g id="Policeman">
</g>
<g id="Criminal">
</g>
<g id="Prisoner">
</g>
<g id="Woodsman">
</g>
<g id="Dispatcher_1">
</g>
<g id="Dispatcher_2">
</g>
<g id="Soldier">
</g>
<g id="Astronaut">
</g>
<g id="Hipster_Guy">
</g>
<g id="Hipster_Girl">
</g>
<g id="Worker">
</g>
<g id="Old_Man">
</g>
<g id="Punk">
</g>
<g id="Diver">
</g>
<g id="Artist">
</g>
<g id="Dictator">
</g>
<g id="Man_Hat">
</g>
<g id="Woman_Hat">
</g>
<g id="Graduated_Man">
</g>
<g id="Graduated_Woman">
</g>
<g id="Avatar_Chef">
</g>
<g id="Waiter">
</g>
<g id="Waitress">
</g>
<g id="Bllboy">
</g>
<g id="Santa">
</g>
<g id="Doctor">
</g>
<g id="Nurse">
</g>
<g id="Captain">
</g>
<g id="Farmer">
</g>
<g id="Maid">
</g>
<g id="Business_Man_2">
</g>
<g id="Business_Woman_2">
</g>
<g id="Cowboy">
</g>
<g id="Anonymus">
</g>
<g id="Batman">
</g>
<g id="Superman">
</g>
<g id="Captain_America">
</g>
<g id="Darth_Vader">
</g>
<g id="Harry_Potter">
</g>
<g id="Anonymus_2">
</g>
<g id="Scream">
</g>
<g id="Jason">
</g>
<g id="Charlie_Chaplin">
</g>
</svg>
