<?xml version="1.0" encoding="iso-8859-1"?>
<!-- Generator: Adobe Illustrator 19.2.1, SVG Export Plug-In . SVG Version: 6.00 Build 0)  -->
<svg version="1.1" xmlns="http://www.w3.org/2000/svg" xmlns:xlink="http://www.w3.org/1999/xlink" x="0px" y="0px"
	 viewBox="0 0 30 30" style="enable-background:new 0 0 30 30;" xml:space="preserve">
<g id="Present_1">
</g>
<g id="Present_2">
</g>
<g id="Present_3">
</g>
<g id="Present_Cake">
</g>
<g id="Present_4">
</g>
<g id="Birthday_Cake_1">
</g>
<g id="Birthday_Cake_2">
</g>
<g id="Cake_Piece">
</g>
<g id="Cupcake">
</g>
<g id="Lollipop">
</g>
<g id="Birthday_Greetings_1">
</g>
<g id="Party_Greetings_2">
</g>
<g id="Birthday_Invitation">
</g>
<g id="Birthday_1">
</g>
<g id="Birthday_2">
</g>
<g id="Birthday_Message_1">
</g>
<g id="Birthday_Message_2">
</g>
<g id="Birthyday_Hat_1">
</g>
<g id="Birthay_Hat_2">
</g>
<g id="Birthday_Hat3">
</g>
<g id="Birthday_Decoration_1">
</g>
<g id="Birthday_Decoration_2">
</g>
<g id="Birthday_Decoration_3">
</g>
<g id="Horn_1">
</g>
<g id="Horn_2">
</g>
<g id="Baloon">
</g>
<g id="Balloons_1">
</g>
<g id="Balloons_2">
	<g>
		<path d="M25,10.094c0-3.201-2.648-5.828-5.997-6.07c0.316,0.822,0.497,1.705,0.497,2.63c0,2.681-1.947,8.105-4.904,10.571
			c0.878,1.264,1.918,2.256,3.022,2.618L16.6,21.2c-0.113,0.151-0.132,0.354-0.047,0.523S16.811,22,17,22h1v7.5
			c0,0.276,0.224,0.5,0.5,0.5s0.5-0.224,0.5-0.5V22h1c0.189,0,0.362-0.107,0.447-0.276s0.066-0.372-0.047-0.523l-1.021-1.361
			C22.433,18.844,25,12.996,25,10.094z M21.435,6.174c0.348,0,0.63,0.282,0.63,0.63c0,0.348-0.282,0.63-0.63,0.63
			c-0.348,0-0.63-0.282-0.63-0.63C20.804,6.456,21.087,6.174,21.435,6.174z M21.435,11.217c0.348,0,0.63,0.282,0.63,0.63
			c0,0.348-0.282,0.63-0.63,0.63c-0.348,0-0.63-0.282-0.63-0.63C20.804,11.5,21.087,11.217,21.435,11.217z M16.391,17.522
			c-0.348,0-0.63-0.282-0.63-0.63c0-0.348,0.282-0.63,0.63-0.63c0.348,0,0.63,0.282,0.63,0.63
			C17.022,17.239,16.74,17.522,16.391,17.522z M18.913,15c-0.348,0-0.63-0.282-0.63-0.63c0-0.348,0.282-0.63,0.63-0.63
			c0.348,0,0.63,0.282,0.63,0.63C19.543,14.718,19.261,15,18.913,15z M20.804,16.891c0-0.348,0.282-0.63,0.63-0.63
			c0.348,0,0.63,0.282,0.63,0.63c0,0.348-0.282,0.63-0.63,0.63C21.087,17.522,20.804,17.239,20.804,16.891z"/>
		<path d="M18.5,6.654C18.5,2.985,15.36,0,11.5,0s-7,2.985-7,6.654c0,3.223,2.843,9.771,6.193,10.72l-1.122,1.87
			c-0.093,0.154-0.095,0.347-0.006,0.503C9.654,19.903,9.82,20,10,20h1v9.5c0,0.276,0.224,0.5,0.5,0.5s0.5-0.224,0.5-0.5V20h1
			c0.18,0,0.346-0.097,0.435-0.254c0.089-0.156,0.086-0.349-0.006-0.503l-1.122-1.87C15.657,16.424,18.5,9.876,18.5,6.654z
			 M16.391,3.652c0.348,0,0.63,0.282,0.63,0.63s-0.282,0.63-0.63,0.63c-0.348,0-0.63-0.282-0.63-0.63S16.043,3.652,16.391,3.652z
			 M16.391,8.696c0.348,0,0.63,0.282,0.63,0.63c0,0.348-0.282,0.63-0.63,0.63c-0.348,0-0.63-0.282-0.63-0.63
			C15.761,8.978,16.043,8.696,16.391,8.696z M13.87,1.13c0.348,0,0.63,0.282,0.63,0.63c0,0.348-0.282,0.63-0.63,0.63
			s-0.63-0.282-0.63-0.63C13.239,1.413,13.521,1.13,13.87,1.13z M13.87,6.174c0.348,0,0.63,0.282,0.63,0.63
			c0,0.348-0.282,0.63-0.63,0.63s-0.63-0.282-0.63-0.63C13.239,6.456,13.521,6.174,13.87,6.174z M11.348,3.652
			c0.348,0,0.63,0.282,0.63,0.63s-0.282,0.63-0.63,0.63c-0.348,0-0.63-0.282-0.63-0.63S11,3.652,11.348,3.652z M11.348,8.696
			c0.348,0,0.63,0.282,0.63,0.63c0,0.348-0.282,0.63-0.63,0.63c-0.348,0-0.63-0.282-0.63-0.63C10.717,8.978,11,8.696,11.348,8.696z
			 M11.348,13.739c0.348,0,0.63,0.282,0.63,0.63c0,0.348-0.282,0.63-0.63,0.63c-0.348,0-0.63-0.282-0.63-0.63
			C10.717,14.021,11,13.739,11.348,13.739z M6.304,9.956c-0.348,0-0.63-0.282-0.63-0.63c0-0.348,0.282-0.63,0.63-0.63
			c0.348,0,0.63,0.282,0.63,0.63C6.935,9.674,6.653,9.956,6.304,9.956z M6.304,4.913c-0.348,0-0.63-0.282-0.63-0.63
			s0.282-0.63,0.63-0.63c0.348,0,0.63,0.282,0.63,0.63S6.653,4.913,6.304,4.913z M8.826,12.478c-0.348,0-0.63-0.282-0.63-0.63
			c0-0.348,0.282-0.63,0.63-0.63c0.348,0,0.63,0.282,0.63,0.63C9.457,12.196,9.174,12.478,8.826,12.478z M8.826,7.435
			c-0.348,0-0.63-0.282-0.63-0.63c0-0.348,0.282-0.63,0.63-0.63c0.348,0,0.63,0.282,0.63,0.63C9.457,7.153,9.174,7.435,8.826,7.435z
			 M8.826,2.391c-0.348,0-0.63-0.282-0.63-0.63c0-0.348,0.282-0.63,0.63-0.63c0.348,0,0.63,0.282,0.63,0.63
			C9.457,2.109,9.174,2.391,8.826,2.391z M13.239,11.848c0-0.348,0.282-0.63,0.63-0.63s0.63,0.282,0.63,0.63
			c0,0.348-0.282,0.63-0.63,0.63S13.239,12.196,13.239,11.848z"/>
	</g>
</g>
<g id="Birthday_Picture">
</g>
<g id="Kid_x27_s_Champagne">
</g>
<g id="Candy">
</g>
<g id="Birthday_Card">
</g>
<g id="Flowers">
</g>
<g id="Birthday_Song">
</g>
<g id="Candle">
</g>
<g id="Sweet_16">
</g>
<g id="Clown">
</g>
<g id="Clown_2">
</g>
<g id="Birthday_Party">
</g>
<g id="Giving_Gift">
</g>
<g id="Present_5">
</g>
<g id="Champagne_in_ice_bucket">
</g>
<g id="Beer">
</g>
<g id="Truffles">
</g>
<g id="Pinata">
</g>
</svg>
