<?xml version="1.0" encoding="iso-8859-1"?>
<!-- Generator: Adobe Illustrator 19.2.1, SVG Export Plug-In . SVG Version: 6.00 Build 0)  -->
<svg version="1.1" xmlns="http://www.w3.org/2000/svg" xmlns:xlink="http://www.w3.org/1999/xlink" x="0px" y="0px"
	 viewBox="0 0 24 24" style="enable-background:new 0 0 24 24;" xml:space="preserve">
<g id="Present_1">
</g>
<g id="Present_2">
</g>
<g id="Present_3">
</g>
<g id="Present_Cake">
</g>
<g id="Present_4">
</g>
<g id="Birthday_Cake_1">
</g>
<g id="Birthday_Cake_2">
</g>
<g id="Cake_Piece">
</g>
<g id="Cupcake">
</g>
<g id="Lollipop">
</g>
<g id="Birthday_Greetings_1">
</g>
<g id="Party_Greetings_2">
</g>
<g id="Birthday_Invitation">
</g>
<g id="Birthday_1">
</g>
<g id="Birthday_2">
</g>
<g id="Birthday_Message_1">
</g>
<g id="Birthday_Message_2">
</g>
<g id="Birthyday_Hat_1">
</g>
<g id="Birthay_Hat_2">
</g>
<g id="Birthday_Hat3">
</g>
<g id="Birthday_Decoration_1">
</g>
<g id="Birthday_Decoration_2">
</g>
<g id="Birthday_Decoration_3">
</g>
<g id="Horn_1">
</g>
<g id="Horn_2">
</g>
<g id="Baloon">
</g>
<g id="Balloons_1">
	<path d="M20.898,7.185c-0.276-1.305-1.104-2.464-2.329-3.263c-2.647-1.729-5.651-1.009-7.477,1.787
		c-1.667,2.556-1.136,6.699-0.094,8.372l-0.773,0.499c-0.15,0.097-0.237,0.268-0.228,0.447s0.115,0.339,0.275,0.42l0.062,0.031
		l-1.338,4.55V15c0.173,0,0.334-0.09,0.426-0.237c0.091-0.147,0.099-0.332,0.021-0.486l-0.226-0.452
		c0.156-0.068,0.312-0.147,0.464-0.241c-0.88-2.321-1.009-5.996,0.573-8.421c0.764-1.169,1.745-2.038,2.84-2.571
		C12.143,0.967,10.493,0,8.496,0c-3.29,0-5.5,2.44-5.5,6.071c0,3.383,2.923,6.918,4.782,7.747l-0.229,0.458
		c-0.077,0.155-0.069,0.339,0.021,0.486C7.662,14.91,7.823,15,7.996,15v8.5c0,0.01,0.005,0.018,0.006,0.028
		c0.002,0.035,0.011,0.067,0.02,0.1c0.008,0.03,0.014,0.06,0.028,0.087c0.014,0.029,0.033,0.052,0.052,0.078
		c0.02,0.026,0.037,0.052,0.062,0.074c0.022,0.02,0.047,0.033,0.073,0.049c0.031,0.019,0.06,0.038,0.095,0.05
		c0.009,0.003,0.015,0.01,0.024,0.013C8.402,23.994,8.449,24,8.496,24c0.1,0,0.189-0.037,0.267-0.088
		c0.016-0.01,0.029-0.018,0.044-0.029c0.073-0.059,0.127-0.135,0.158-0.226c0.002-0.007,0.009-0.009,0.011-0.016l2.267-7.709
		l0.03,0.015C11.343,15.982,11.42,16,11.496,16c0.078,0,0.155-0.018,0.227-0.054c0.142-0.072,0.24-0.207,0.267-0.363l0.113-0.672
		c0.249,0.06,0.523,0.092,0.82,0.092c0.856,0,1.854-0.216,2.655-0.48c1.926-0.636,3.516-1.743,4.361-3.039
		C20.863,10.069,21.195,8.582,20.898,7.185z M5.996,6.071c0,0.276-0.224,0.5-0.5,0.5s-0.5-0.224-0.5-0.5C4.996,3.56,6.337,2,8.496,2
		c0.276,0,0.5,0.224,0.5,0.5S8.773,3,8.496,3C6.907,3,5.996,4.12,5.996,6.071z M13.605,7.349c-0.097,0.147-0.256,0.227-0.419,0.227
		c-0.095,0-0.189-0.026-0.273-0.082c-0.231-0.151-0.296-0.46-0.146-0.692c1.188-1.816,3.046-2.291,4.709-1.207
		c0.231,0.151,0.296,0.461,0.146,0.692c-0.15,0.232-0.459,0.297-0.692,0.145c-0.436-0.284-0.871-0.429-1.293-0.429
		C14.683,6.004,14.005,6.736,13.605,7.349z"/>
</g>
<g id="Balloons_2">
</g>
<g id="Birthday_Picture">
</g>
<g id="Kid_x27_s_Champagne">
</g>
<g id="Candy">
</g>
<g id="Birthday_Card">
</g>
<g id="Flowers">
</g>
<g id="Birthday_Song">
</g>
<g id="Candle">
</g>
<g id="Sweet_16">
</g>
<g id="Clown">
</g>
<g id="Clown_2">
</g>
<g id="Birthday_Party">
</g>
<g id="Giving_Gift">
</g>
<g id="Present_5">
</g>
<g id="Champagne_in_ice_bucket">
</g>
<g id="Beer">
</g>
<g id="Truffles">
</g>
<g id="Pinata">
</g>
</svg>
