<?xml version="1.0" encoding="iso-8859-1"?>
<!-- Generator: Adobe Illustrator 19.2.1, SVG Export Plug-In . SVG Version: 6.00 Build 0)  -->
<svg version="1.1" xmlns="http://www.w3.org/2000/svg" xmlns:xlink="http://www.w3.org/1999/xlink" x="0px" y="0px"
	 viewBox="0 0 30 30" style="enable-background:new 0 0 30 30;" xml:space="preserve">
<g id="Present_1">
</g>
<g id="Present_2">
</g>
<g id="Present_3">
</g>
<g id="Present_Cake">
</g>
<g id="Present_4">
</g>
<g id="Birthday_Cake_1">
</g>
<g id="Birthday_Cake_2">
</g>
<g id="Cake_Piece">
</g>
<g id="Cupcake">
</g>
<g id="Lollipop">
</g>
<g id="Birthday_Greetings_1">
</g>
<g id="Party_Greetings_2">
</g>
<g id="Birthday_Invitation">
</g>
<g id="Birthday_1">
</g>
<g id="Birthday_2">
</g>
<g id="Birthday_Message_1">
</g>
<g id="Birthday_Message_2">
</g>
<g id="Birthyday_Hat_1">
</g>
<g id="Birthay_Hat_2">
</g>
<g id="Birthday_Hat3">
</g>
<g id="Birthday_Decoration_1">
</g>
<g id="Birthday_Decoration_2">
</g>
<g id="Birthday_Decoration_3">
</g>
<g id="Horn_1">
</g>
<g id="Horn_2">
</g>
<g id="Baloon">
	<g>
		<g>
			<path d="M14.5,25C11.453,25,4,17.316,4,10.605C4,4.262,8.22,0,14.5,0S25,4.262,25,10.605C25,17.316,17.547,25,14.5,25z M14.5,1
				C8.729,1,5,4.771,5,10.605C5,16.881,12.188,24,14.5,24S24,16.881,24,10.605C24,4.771,20.271,1,14.5,1z"/>
		</g>
		<g>
			<path d="M8.5,15C8.224,15,8,14.776,8,14.5v-6C8,8.224,8.224,8,8.5,8S9,8.224,9,8.5v6C9,14.776,8.776,15,8.5,15z"/>
		</g>
		<g>
			<path d="M11.5,12h-3C8.224,12,8,11.776,8,11.5S8.224,11,8.5,11h3c0.276,0,0.5,0.224,0.5,0.5S11.776,12,11.5,12z"/>
		</g>
		<g>
			<path d="M11.5,15c-0.276,0-0.5-0.224-0.5-0.5v-6C11,8.224,11.224,8,11.5,8S12,8.224,12,8.5v6C12,14.776,11.776,15,11.5,15z"/>
		</g>
		<g>
			<path d="M17,27h-5c-0.212,0-0.401-0.134-0.472-0.335c-0.07-0.2-0.007-0.423,0.159-0.556l2.5-2c0.184-0.146,0.441-0.146,0.625,0
				l2.5,2c0.166,0.133,0.229,0.355,0.159,0.556C17.401,26.866,17.212,27,17,27z M13.426,26h2.148L14.5,25.141L13.426,26z"/>
		</g>
		<g>
			<path d="M14.5,30c-0.276,0-0.5-0.224-0.5-0.5v-2.521c0-0.276,0.224-0.5,0.5-0.5s0.5,0.224,0.5,0.5V29.5
				C15,29.776,14.776,30,14.5,30z"/>
		</g>
		<g>
			<path d="M15.252,15h-1.75c-0.276,0-0.5-0.224-0.5-0.5v-6c0-0.276,0.224-0.5,0.5-0.5h1.75c0.965,0,1.75,0.897,1.75,2
				c0,0.597-0.229,1.133-0.594,1.5c0.364,0.367,0.594,0.903,0.594,1.5C17.002,14.103,16.217,15,15.252,15z M14.002,14h1.25
				c0.406,0,0.75-0.458,0.75-1s-0.344-1-0.75-1h-1.25V14z M14.002,11h1.25c0.406,0,0.75-0.458,0.75-1s-0.344-1-0.75-1h-1.25V11z"/>
		</g>
		<g>
			<path d="M18.502,15c-0.276,0-0.5-0.224-0.5-0.5v-6c0-0.276,0.224-0.5,0.5-0.5c1.93,0,3.5,1.57,3.5,3.5S20.432,15,18.502,15z
				 M19.002,9.05v4.899c1.14-0.232,2-1.242,2-2.45S20.142,9.283,19.002,9.05z"/>
		</g>
	</g>
</g>
<g id="Balloons_1">
</g>
<g id="Balloons_2">
</g>
<g id="Birthday_Picture">
</g>
<g id="Kid_x27_s_Champagne">
</g>
<g id="Candy">
</g>
<g id="Birthday_Card">
</g>
<g id="Flowers">
</g>
<g id="Birthday_Song">
</g>
<g id="Candle">
</g>
<g id="Sweet_16">
</g>
<g id="Clown">
</g>
<g id="Clown_2">
</g>
<g id="Birthday_Party">
</g>
<g id="Giving_Gift">
</g>
<g id="Present_5">
</g>
<g id="Champagne_in_ice_bucket">
</g>
<g id="Beer">
</g>
<g id="Truffles">
</g>
<g id="Pinata">
</g>
</svg>
