<?xml version="1.0" encoding="iso-8859-1"?>
<!-- Generator: Adobe Illustrator 19.2.1, SVG Export Plug-In . SVG Version: 6.00 Build 0)  -->
<svg version="1.1" xmlns="http://www.w3.org/2000/svg" xmlns:xlink="http://www.w3.org/1999/xlink" x="0px" y="0px"
	 viewBox="0 0 24 24" style="enable-background:new 0 0 24 24;" xml:space="preserve">
<g id="Credit_Card">
</g>
<g id="Banknote">
	<g>
		<path d="M12,12.137v1.803c0.575-0.141,1-0.511,1-0.936C13,12.607,12.666,12.329,12,12.137z"/>
		<path d="M10,10.004c0,0.398,0.334,0.675,1,0.867V9.068C10.425,9.209,10,9.579,10,10.004z"/>
		<path d="M22.822,4.617c-0.113-0.095-0.263-0.141-0.408-0.109l-0.466,0.081c-3.439,0.6-6.923,0.571-10.355-0.08
			C8.041,3.834,4.438,3.805,0.88,4.427L0.414,4.508C0.175,4.549,0,4.757,0,5v13c0,0.147,0.065,0.288,0.178,0.383
			s0.262,0.138,0.408,0.109l0.466-0.081c3.44-0.6,6.924-0.572,10.355,0.08c1.851,0.352,3.716,0.528,5.581,0.528
			c1.714,0,3.428-0.148,5.132-0.446l0.466-0.081C22.825,18.451,23,18.243,23,18V5C23,4.853,22.935,4.712,22.822,4.617z M6.5,7.5
			c-0.003,0-0.006,0-0.008,0c-0.983-0.016-1.976,0.018-2.95,0.102C3.527,7.603,3.513,7.604,3.498,7.604
			c-0.257,0-0.475-0.196-0.497-0.457c-0.023-0.275,0.18-0.518,0.455-0.541C4.465,6.519,5.496,6.48,6.508,6.5
			C6.784,6.505,7.005,6.732,7,7.008C6.995,7.281,6.772,7.5,6.5,7.5z M12,14.963V15c0,0.276-0.224,0.5-0.5,0.5S11,15.276,11,15
			v-0.035c-1.094-0.171-1.92-0.898-1.998-1.823c-0.023-0.275,0.181-0.517,0.456-0.54c0.247-0.021,0.518,0.18,0.54,0.456
			c0.034,0.406,0.451,0.75,1.002,0.884v-2.039c-1.344-0.329-2-0.96-2-1.899c0-0.965,0.86-1.773,2-1.959V8c0-0.276,0.224-0.5,0.5-0.5
			S12,7.724,12,8v0.043c1.094,0.171,1.92,0.898,1.998,1.823c0.023,0.275-0.181,0.517-0.456,0.54
			c-0.254,0.012-0.518-0.181-0.54-0.456C12.968,9.544,12.551,9.2,12,9.066v2.038c1.345,0.332,2,0.963,2,1.9
			C14,13.969,13.14,14.777,12,14.963z M19.531,16.391c-0.851,0.073-1.708,0.109-2.555,0.109c-0.162,0-0.323-0.001-0.485-0.004
			c-0.275-0.005-0.496-0.232-0.491-0.509c0.005-0.275,0.252-0.474,0.509-0.491c0.969,0.017,1.959-0.018,2.937-0.102
			c0.269-0.026,0.518,0.18,0.541,0.455S19.806,16.367,19.531,16.391z"/>
	</g>
</g>
<g id="Wallet">
</g>
<g id="Compass">
</g>
<g id="Camera_1">
</g>
<g id="Photo">
</g>
<g id="Picture">
</g>
<g id="Camera_2">
</g>
<g id="No_Camera">
</g>
<g id="Video">
</g>
<g id="Audio">
</g>
<g id="Microphone_1">
</g>
<g id="Microphone_2">
</g>
<g id="No_Microphone">
</g>
<g id="Shopping_Cart">
</g>
<g id="Add_Shopping_Cart">
</g>
<g id="Remove_Shopping_Cart">
</g>
<g id="Shopping_Basket">
</g>
<g id="Jing-Jang">
</g>
<g id="Leaf">
</g>
<g id="Glass">
</g>
<g id="Cup">
</g>
<g id="Mug">
</g>
<g id="Refresh">
</g>
<g id="Login">
</g>
<g id="Logout">
</g>
<g id="Flowchart">
</g>
<g id="Pin_1">
</g>
<g id="Pin_2">
</g>
<g id="User_1">
</g>
<g id="User_2">
</g>
<g id="Users">
</g>
<g id="Adjustments">
</g>
<g id="Type">
</g>
<g id="Format_Size">
</g>
<g id="Menu_1">
</g>
<g id="Other">
</g>
<g id="Flash">
</g>
<g id="No_Flash">
</g>
<g id="Switch_Button_1">
</g>
<g id="Switch_Button_2">
</g>
<g id="Cut">
</g>
<g id="Crop">
</g>
<g id="Sun">
</g>
<g id="USB">
</g>
<g id="Pie_Chart_1">
</g>
<g id="Pie_Chart_2">
</g>
<g id="Line_Chart">
</g>
<g id="Bar_Chart">
</g>
<g id="Target">
</g>
<g id="Flashlight">
</g>
<g id="USB_Device">
</g>
<g id="Eject">
</g>
<g id="Lightbulb">
</g>
<g id="Information">
</g>
<g id="Deactivate_Protection">
</g>
<g id="Active_Protection">
</g>
<g id="Bug">
</g>
<g id="Protection">
</g>
<g id="Phone">
</g>
<g id="List">
</g>
<g id="Plugin_1">
</g>
<g id="Bookmarrk">
</g>
<g id="Handshake">
</g>
<g id="Minimize">
</g>
<g id="Maximize">
</g>
<g id="Diamond">
</g>
<g id="Stop">
</g>
<g id="Shuffle">
</g>
<g id="Undo">
</g>
<g id="Upgrade">
</g>
<g id="Coding">
</g>
<g id="Syncronizaion">
</g>
<g id="Radio">
</g>
<g id="Presentation">
</g>
<g id="Door">
</g>
<g id="Thumbs_Up">
</g>
<g id="Thumbs_Down">
</g>
<g id="Keyboard">
</g>
<g id="_x33_D_Cube">
</g>
<g id="Signal">
</g>
<g id="Dice">
</g>
<g id="Upload">
</g>
<g id="Download">
</g>
<g id="Plugin_2">
</g>
<g id="Shopping_Bag">
</g>
<g id="Lifebelt">
</g>
<g id="Glasses">
</g>
<g id="Parabolic_Antenna">
</g>
<g id="Loudspeaker">
</g>
<g id="Play">
</g>
<g id="Pause">
</g>
<g id="Signpost">
</g>
<g id="Bluetooth">
</g>
<g id="Present">
</g>
<g id="Ruler">
</g>
<g id="Connection">
</g>
<g id="Money">
</g>
<g id="Paper_Plane">
</g>
<g id="Wallet_2">
</g>
</svg>
