<?xml version="1.0" encoding="iso-8859-1"?>
<!-- Generator: Adobe Illustrator 19.2.1, SVG Export Plug-In . SVG Version: 6.00 Build 0)  -->
<svg version="1.1" xmlns="http://www.w3.org/2000/svg" xmlns:xlink="http://www.w3.org/1999/xlink" x="0px" y="0px"
	 viewBox="0 0 30 30" style="enable-background:new 0 0 30 30;" xml:space="preserve">
<g id="Event">
</g>
<g id="Event_2">
</g>
<g id="Add_Event">
</g>
<g id="Remove_Event">
</g>
<g id="Event_Reminder">
</g>
<g id="Wine_Glass">
</g>
<g id="Toast">
</g>
<g id="Champagne">
</g>
<g id="Champagne_Open">
</g>
<g id="Alcohol_Drink">
</g>
<g id="Beer_Glass">
</g>
<g id="Party_Cake">
</g>
<g id="Pizza_Food">
</g>
<g id="Disco_Ball">
</g>
<g id="Equalizer">
</g>
<g id="DJ">
</g>
<g id="Tent">
</g>
<g id="Firework_1">
</g>
<g id="Firework_2">
</g>
<g id="Party_Glasses">
</g>
<g id="Barbeque">
	<g>
		<path d="M27,11h-2.168c0.365-0.95,0.586-1.957,0.64-3H26c0.276,0,0.5-0.224,0.5-0.5S26.276,7,26,7H3C2.724,7,2.5,7.224,2.5,7.5
			S2.724,8,3,8h0.527c0.179,3.419,2.157,6.468,5.036,8.275c-0.02,0.038-0.043,0.073-0.052,0.117l-1.922,8.65
			C5.407,25.239,4.5,26.262,4.5,27.5C4.5,28.878,5.622,30,7,30s2.5-1.122,2.5-2.5c0-1.169-0.81-2.145-1.895-2.417L8.068,23h12.919
			l1.526,6.612C22.566,29.844,22.772,30,23,30c0.037,0,0.075-0.004,0.113-0.013c0.269-0.062,0.437-0.331,0.375-0.6l-3-13
			c-0.01-0.042-0.032-0.076-0.051-0.113c1.685-1.057,3.058-2.541,3.948-4.275H27c0.276,0,0.5-0.224,0.5-0.5S27.276,11,27,11z
			 M20.756,22H8.29l1.16-5.222C10.973,17.553,12.693,18,14.5,18c1.808,0,3.528-0.448,5.051-1.222L20.756,22z"/>
		<path d="M10.5,5.5C10.5,5.776,10.724,6,11,6s0.5-0.224,0.5-0.5c0-1.339-0.514-2.632-0.536-2.686C10.959,2.802,10.5,1.643,10.5,0.5
			C10.5,0.224,10.276,0,10,0S9.5,0.224,9.5,0.5c0,1.333,0.514,2.631,0.536,2.687C10.041,3.198,10.5,4.353,10.5,5.5z"/>
		<path d="M14.5,5.5C14.5,5.776,14.724,6,15,6s0.5-0.224,0.5-0.5c0-1.339-0.514-2.632-0.536-2.686C14.959,2.802,14.5,1.643,14.5,0.5
			C14.5,0.224,14.276,0,14,0s-0.5,0.224-0.5,0.5c0,1.333,0.514,2.631,0.536,2.687C14.041,3.198,14.5,4.353,14.5,5.5z"/>
		<path d="M18.5,5.5C18.5,5.776,18.724,6,19,6s0.5-0.224,0.5-0.5c0-1.339-0.514-2.632-0.536-2.686C18.959,2.802,18.5,1.643,18.5,0.5
			C18.5,0.224,18.276,0,18,0s-0.5,0.224-0.5,0.5c0,1.333,0.514,2.631,0.536,2.687C18.041,3.198,18.5,4.353,18.5,5.5z"/>
	</g>
</g>
<g id="Horn">
</g>
<g id="Speaker">
</g>
<g id="VIP">
</g>
<g id="Event_Ticket">
</g>
<g id="VIP_Ticket">
</g>
<g id="Popcorn">
</g>
<g id="Cord">
</g>
<g id="Invitation_1">
</g>
<g id="Invitation_2">
</g>
</svg>
