<?xml version="1.0" encoding="iso-8859-1"?>
<!-- Generator: Adobe Illustrator 19.2.1, SVG Export Plug-In . SVG Version: 6.00 Build 0)  -->
<svg version="1.1" xmlns="http://www.w3.org/2000/svg" xmlns:xlink="http://www.w3.org/1999/xlink" x="0px" y="0px"
	 viewBox="0 0 24 24" style="enable-background:new 0 0 24 24;" xml:space="preserve">
<g id="Mail">
</g>
<g id="Open_Mail">
</g>
<g id="Mail_Attachmet">
</g>
<g id="Mails">
</g>
<g id="Trash">
</g>
<g id="Trash_Full">
</g>
<g id="Preferences_1">
</g>
<g id="Preferences_2">
</g>
<g id="Mouse">
</g>
<g id="Computer">
</g>
<g id="Notebook">
</g>
<g id="Mobile_Phone">
</g>
<g id="Print">
</g>
<g id="Calculator">
</g>
<g id="Tag">
</g>
<g id="Paperclip">
</g>
<g id="Heart">
</g>
<g id="Lock">
</g>
<g id="Lock_Open">
</g>
<g id="Key_1">
</g>
<g id="Star">
</g>
<g id="Add">
</g>
<g id="Remove">
</g>
<g id="Error">
</g>
<g id="Check_1">
</g>
<g id="Time">
</g>
<g id="Question_Mark">
</g>
<g id="Error_Mark">
</g>
<g id="Sand-Glass">
</g>
<g id="Battery_Full">
</g>
<g id="Battery_Charge">
	<g>
		<path d="M12.934,11.248c0.047-0.082,0.059-0.171,0.057-0.258c0-0.021-0.001-0.039-0.004-0.06
			c-0.013-0.087-0.042-0.171-0.098-0.241c-0.001-0.002-0.001-0.004-0.002-0.006c-0.005-0.006-0.013-0.006-0.018-0.012
			c-0.035-0.039-0.072-0.078-0.12-0.105c-0.025-0.014-0.052-0.016-0.078-0.026c-0.02-0.007-0.037-0.015-0.058-0.02
			c-0.088-0.021-0.177-0.021-0.261,0.005c-0.003,0.001-0.006-0.001-0.009,0l-1.758,0.586l1.351-2.364
			c0.137-0.24,0.054-0.545-0.186-0.682c-0.24-0.139-0.545-0.054-0.682,0.186l-2,3.5c-0.103,0.18-0.084,0.405,0.047,0.565
			c0.131,0.161,0.349,0.226,0.545,0.157l1.758-0.586l-1.351,2.364c-0.137,0.239-0.054,0.545,0.186,0.683
			C10.33,14.979,10.416,15,10.5,15c0.174,0,0.342-0.091,0.435-0.252L12.934,11.248z"/>
		<path d="M22.5,9H22V8.5C22,7.122,20.879,6,19.5,6h-17C1.122,6,0,7.122,0,8.5v6C0,15.879,1.122,17,2.5,17h17
			c1.379,0,2.5-1.121,2.5-2.5V14h0.5c0.827,0,1.5-0.673,1.5-1.5v-2C24,9.673,23.327,9,22.5,9z M20,14.5c0,0.276-0.224,0.5-0.5,0.5
			h-9h-8C2.224,15,2,14.776,2,14.5v-6C2,8.224,2.224,8,2.5,8h17C19.776,8,20,8.224,20,8.5V14.5z"/>
	</g>
</g>
<g id="Battery_Half">
</g>
<g id="Battery_Low">
</g>
<g id="No_Battery">
</g>
<g id="Key_2">
</g>
<g id="Link">
</g>
<g id="Brake_Link">
</g>
<g id="Pencil">
</g>
<g id="At">
</g>
<g id="Reply">
</g>
<g id="Accessible">
</g>
<g id="Up_Arrow">
</g>
<g id="Brush">
</g>
<g id="Design_Mug">
</g>
<g id="Design">
</g>
<g id="Server">
</g>
<g id="Database">
</g>
<g id="Save">
</g>
<g id="Female">
</g>
<g id="Male">
</g>
<g id="Book">
</g>
<g id="Power">
</g>
<g id="Reload">
</g>
<g id="Map">
</g>
<g id="Loction_1">
</g>
<g id="Location_2">
</g>
<g id="Globe">
</g>
<g id="Suitcase">
</g>
<g id="Callendar">
</g>
<g id="Cloud_Off">
</g>
<g id="File_1">
</g>
<g id="File_2">
</g>
<g id="Folder">
</g>
<g id="Open_Folder">
</g>
<g id="Cloud">
</g>
<g id="Upload_Cloud">
</g>
<g id="Download_Cloud">
</g>
<g id="Eye">
</g>
<g id="Invisible">
</g>
<g id="Assignment">
</g>
<g id="Note_Book">
</g>
<g id="Webpage">
</g>
<g id="Mailbox">
</g>
<g id="Drive">
</g>
<g id="Disc">
</g>
<g id="Wifi_1">
</g>
<g id="Wifi_2">
</g>
<g id="Archive">
</g>
<g id="Archive_File">
</g>
<g id="News">
</g>
<g id="Home">
</g>
<g id="Collaboration">
</g>
<g id="Announcement">
</g>
<g id="Watch">
</g>
<g id="Clock">
</g>
<g id="Volume">
</g>
<g id="Mute">
</g>
<g id="Hand">
</g>
<g id="Layers">
</g>
<g id="Bell">
</g>
<g id="Speach_Bubble">
</g>
<g id="Speach_Bubbles">
</g>
<g id="Zoom_In">
</g>
<g id="Zoom_Out">
</g>
<g id="Search">
</g>
<g id="Back_Arrow">
</g>
<g id="Close">
</g>
<g id="Check_2">
</g>
<g id="Left_Arrow_2">
</g>
<g id="Right_Arrow_2">
</g>
</svg>
