<?xml version="1.0" encoding="iso-8859-1"?>
<!-- Generator: Adobe Illustrator 19.2.1, SVG Export Plug-In . SVG Version: 6.00 Build 0)  -->
<svg version="1.1" xmlns="http://www.w3.org/2000/svg" xmlns:xlink="http://www.w3.org/1999/xlink" x="0px" y="0px"
	 viewBox="0 0 30 30" style="enable-background:new 0 0 30 30;" xml:space="preserve">
<g id="Mail">
</g>
<g id="Open_Mail">
</g>
<g id="Mail_Attachmet">
</g>
<g id="Mails">
</g>
<g id="Trash">
</g>
<g id="Trash_Full">
</g>
<g id="Preferences_1">
</g>
<g id="Preferences_2">
</g>
<g id="Mouse">
</g>
<g id="Computer">
</g>
<g id="Notebook">
</g>
<g id="Mobile_Phone">
</g>
<g id="Print">
</g>
<g id="Calculator">
</g>
<g id="Tag">
</g>
<g id="Paperclip">
</g>
<g id="Heart">
</g>
<g id="Lock">
</g>
<g id="Lock_Open">
</g>
<g id="Key_1">
</g>
<g id="Star">
</g>
<g id="Add">
</g>
<g id="Remove">
</g>
<g id="Error">
</g>
<g id="Check_1">
</g>
<g id="Time">
</g>
<g id="Question_Mark">
</g>
<g id="Error_Mark">
</g>
<g id="Sand-Glass">
</g>
<g id="Battery_Full">
</g>
<g id="Battery_Charge">
	<g>
		<g>
			<g>
				<path d="M24.5,22h-22C1.122,22,0,20.878,0,19.5v-9C0,9.122,1.122,8,2.5,8h22c1.378,0,2.5,1.122,2.5,2.5V12h1.5
					c0.827,0,1.5,0.673,1.5,1.5v3c0,0.827-0.673,1.5-1.5,1.5H27v1.5C27,20.878,25.878,22,24.5,22z M2.5,9C1.673,9,1,9.673,1,10.5v9
					C1,20.327,1.673,21,2.5,21h22c0.827,0,1.5-0.673,1.5-1.5v-2c0-0.276,0.224-0.5,0.5-0.5h2c0.276,0,0.5-0.224,0.5-0.5v-3
					c0-0.276-0.224-0.5-0.5-0.5h-2c-0.276,0-0.5-0.224-0.5-0.5v-2C26,9.673,25.327,9,24.5,9H2.5z"/>
			</g>
			<g>
				<path d="M23.5,19H17c-0.276,0-0.5-0.224-0.5-0.5S16.724,18,17,18h6v-6h-6c-0.276,0-0.5-0.224-0.5-0.5S16.724,11,17,11h6.5
					c0.276,0,0.5,0.224,0.5,0.5v7C24,18.776,23.776,19,23.5,19z"/>
			</g>
			<g>
				<path d="M10,19H3.5C3.224,19,3,18.776,3,18.5v-7C3,11.224,3.224,11,3.5,11H10c0.276,0,0.5,0.224,0.5,0.5S10.277,12,10,12H4v6h6
					c0.276,0,0.5,0.224,0.5,0.5S10.277,19,10,19z"/>
			</g>
		</g>
		<g>
			<path d="M12.333,20c-0.076,0-0.153-0.018-0.226-0.054c-0.173-0.088-0.273-0.264-0.273-0.446c0-0.077,0.017-0.154,0.054-0.227
				l2.084-4.104l-2.796,1.049c-0.194,0.072-0.411,0.019-0.548-0.135c-0.138-0.154-0.167-0.376-0.073-0.56l2.667-5.25
				c0.125-0.247,0.425-0.344,0.672-0.219c0.246,0.125,0.344,0.426,0.219,0.672l-2.084,4.104l2.795-1.048
				c0.002-0.001,0.005-0.002,0.008-0.003l0,0c0.001,0,0.002,0,0.002-0.001c0,0,0,0,0,0c0,0,0.001,0,0.002,0l0,0
				c0.021-0.008,0.043-0.014,0.065-0.018c0,0,0,0,0.001,0l0,0c0.098-0.019,0.204-0.01,0.302,0.034h0c0,0,0,0,0,0
				c0.019,0.008,0.037,0.018,0.054,0.029l0,0c0,0,0,0,0,0c0.085,0.052,0.15,0.125,0.191,0.21c0.015,0.031,0.027,0.063,0.035,0.097
				c0.028,0.111,0.018,0.233-0.038,0.344c0,0,0,0,0,0c0,0,0,0.001,0,0.001l0,0c0,0,0,0.001,0,0.001l-2.667,5.25
				C12.691,19.9,12.515,20,12.333,20z"/>
		</g>
	</g>
</g>
<g id="Battery_Half">
</g>
<g id="Battery_Low">
</g>
<g id="No_Battery">
</g>
<g id="Key_2">
</g>
<g id="Link">
</g>
<g id="Brake_Link">
</g>
<g id="Pencil">
</g>
<g id="At">
</g>
<g id="Reply">
</g>
<g id="Accessible">
</g>
<g id="Up_Arrow">
</g>
<g id="Brush">
</g>
<g id="Design_Mug">
</g>
<g id="Design">
</g>
<g id="Server">
</g>
<g id="Database">
</g>
<g id="Save">
</g>
<g id="Female">
</g>
<g id="Male">
</g>
<g id="Book">
</g>
<g id="Power">
</g>
<g id="Reload">
</g>
<g id="Map">
</g>
<g id="Loction_1">
</g>
<g id="Location_2">
</g>
<g id="Globe">
</g>
<g id="Suitcase">
</g>
<g id="Callendar">
</g>
<g id="Cloud_Off">
</g>
<g id="File_1">
</g>
<g id="File_2">
</g>
<g id="Folder">
</g>
<g id="Open_Folder">
</g>
<g id="Cloud">
</g>
<g id="Upload_Cloud">
</g>
<g id="Download_Cloud">
</g>
<g id="Eye">
</g>
<g id="Invisible">
</g>
<g id="Assignment">
</g>
<g id="Note_Book">
</g>
<g id="Webpage">
</g>
<g id="Mailbox">
</g>
<g id="Drive">
</g>
<g id="Disc">
</g>
<g id="Wifi_1">
</g>
<g id="Wifi_2">
</g>
<g id="Archive">
</g>
<g id="Archive_File">
</g>
<g id="News">
</g>
<g id="Home">
</g>
<g id="Collaboration">
</g>
<g id="Announcement">
</g>
<g id="Watch">
</g>
<g id="Clock">
</g>
<g id="Volume">
</g>
<g id="Mute">
</g>
<g id="Hand">
</g>
<g id="Layers">
</g>
<g id="Bell">
</g>
<g id="Speach_Bubble">
</g>
<g id="Speach_Bubbles">
</g>
<g id="Zoom_In">
</g>
<g id="Zoom_Out">
</g>
<g id="Search">
</g>
<g id="Back_Arrow">
</g>
<g id="Close">
</g>
<g id="Check_2">
</g>
<g id="Left_Arrow_2">
</g>
<g id="Right_Arrow_2">
</g>
</svg>
