<?xml version="1.0" encoding="iso-8859-1"?>
<!-- Generator: Adobe Illustrator 19.2.1, SVG Export Plug-In . SVG Version: 6.00 Build 0)  -->
<svg version="1.1" xmlns="http://www.w3.org/2000/svg" xmlns:xlink="http://www.w3.org/1999/xlink" x="0px" y="0px"
	 viewBox="0 0 30 30" style="enable-background:new 0 0 30 30;" xml:space="preserve">
<g id="Sun_Light">
</g>
<g id="Sunglasses">
</g>
<g id="T-Shirt_1">
</g>
<g id="T-Shirt_2">
</g>
<g id="Mini_Dress">
</g>
<g id="Flip-Flops">
</g>
<g id="Temperature">
</g>
<g id="Hot_Temperature">
</g>
<g id="Ice_Lolly">
</g>
<g id="Icecream">
</g>
<g id="Limonade_1">
</g>
<g id="Limonade_2">
</g>
<g id="Hat">
</g>
<g id="Straw_Hat">
</g>
<g id="Deckchair">
</g>
<g id="Sunshade">
</g>
<g id="Suncream">
</g>
<g id="Suntan_Oil">
</g>
<g id="Swimming_Trunks">
</g>
<g id="Bikini">
</g>
<g id="Pool">
</g>
<g id="Pool_Ladder">
</g>
<g id="Grill">
</g>
<g id="Kite_1">
</g>
<g id="Kite_2">
</g>
<g id="Badminton">
</g>
<g id="Cooler">
</g>
<g id="Strand_Bag">
</g>
<g id="Towel">
</g>
<g id="Strand_Ball">
</g>
<g id="Beach_Sign">
	<g>
		<g id="XMLID_252_">
			<path d="M27.5,26h-25C1.122,26,0,24.879,0,23.5v-17C0,5.121,1.122,4,2.5,4h25C28.878,4,30,5.121,30,6.5v17
				C30,24.879,28.878,26,27.5,26z M2.5,5C1.673,5,1,5.673,1,6.5v17C1,24.327,1.673,25,2.5,25h25c0.827,0,1.5-0.673,1.5-1.5v-17
				C29,5.673,28.327,5,27.5,5H2.5z"/>
		</g>
		<g id="XMLID_253_">
			<path d="M4.283,15H3.5C3.224,15,3,14.776,3,14.5v-5C3,9.224,3.224,9,3.5,9h0.783c1.004,0,1.761,0.72,1.761,1.674
				c0,0.493-0.203,0.932-0.533,1.242c0.327,0.329,0.533,0.785,0.533,1.279C6.043,14.174,5.237,15,4.283,15z M4,14h0.283
				c0.405,0,0.761-0.376,0.761-0.805c0-0.428-0.355-0.804-0.761-0.804c-0.105,0-0.202-0.032-0.283-0.088V14z M4,10v1.479
				c0.081-0.056,0.178-0.088,0.283-0.088c0.434,0,0.761-0.309,0.761-0.718C5.043,10.211,4.649,10,4.283,10H4z"/>
		</g>
		<g id="XMLID_255_">
			<path d="M10.5,15h-2C8.224,15,8,14.776,8,14.5v-5C8,9.224,8.224,9,8.5,9h2C10.776,9,11,9.224,11,9.5S10.776,10,10.5,10H9v4h1.5
				c0.276,0,0.5,0.224,0.5,0.5S10.776,15,10.5,15z"/>
		</g>
		<g id="XMLID_256_">
			<path d="M10.5,12h-2C8.224,12,8,11.776,8,11.5S8.224,11,8.5,11h2c0.276,0,0.5,0.224,0.5,0.5S10.776,12,10.5,12z"/>
		</g>
		<g id="XMLID_257_">
			<path d="M16.5,15c-0.215,0-0.414-0.14-0.479-0.356L15,11.24l-1.021,3.403c-0.08,0.265-0.357,0.416-0.623,0.335
				c-0.265-0.079-0.415-0.357-0.335-0.622l1.5-5c0.127-0.424,0.831-0.424,0.958,0l1.5,5c0.079,0.265-0.071,0.543-0.335,0.622
				C16.596,14.993,16.547,15,16.5,15z"/>
		</g>
		<g id="XMLID_258_">
			<path d="M16,14h-2c-0.276,0-0.5-0.224-0.5-0.5S13.724,13,14,13h2c0.276,0,0.5,0.224,0.5,0.5S16.276,14,16,14z"/>
		</g>
		<g id="XMLID_260_">
			<path d="M24.5,15c-0.276,0-0.5-0.224-0.5-0.5v-5C24,9.224,24.224,9,24.5,9S25,9.224,25,9.5v5C25,14.776,24.776,15,24.5,15z"/>
		</g>
		<g id="XMLID_261_">
			<path d="M26.5,15c-0.276,0-0.5-0.224-0.5-0.5v-5C26,9.224,26.224,9,26.5,9S27,9.224,27,9.5v5C27,14.776,26.776,15,26.5,15z"/>
		</g>
		<g id="XMLID_262_">
			<path d="M26.5,13h-2c-0.276,0-0.5-0.224-0.5-0.5s0.224-0.5,0.5-0.5h2c0.276,0,0.5,0.224,0.5,0.5S26.776,13,26.5,13z"/>
		</g>
		<g id="XMLID_263_">
			<path d="M26.5,20h-21C5.224,20,5,19.776,5,19.5S5.224,19,5.5,19h21c0.276,0,0.5,0.224,0.5,0.5S26.776,20,26.5,20z"/>
		</g>
		<g id="XMLID_264_">
			<path d="M23.5,21.5c-0.184,0-0.36-0.102-0.448-0.276c-0.124-0.247-0.023-0.547,0.224-0.671l2.105-1.053l-2.105-1.053
				c-0.247-0.124-0.347-0.424-0.224-0.671c0.124-0.246,0.424-0.348,0.671-0.224l3,1.5C26.893,19.138,27,19.311,27,19.5
				s-0.107,0.362-0.276,0.447l-3,1.5C23.652,21.483,23.576,21.5,23.5,21.5z"/>
		</g>
		<g id="XMLID_265_">
			<path d="M3.5,21.5c-0.152,0-0.302-0.069-0.4-0.2c-0.166-0.221-0.121-0.534,0.1-0.7l1.466-1.1L3.2,18.4
				c-0.221-0.166-0.266-0.479-0.1-0.7c0.167-0.22,0.479-0.266,0.7-0.101l2,1.5C5.926,19.194,6,19.343,6,19.5s-0.074,0.306-0.2,0.4
				l-2,1.5C3.71,21.468,3.605,21.5,3.5,21.5z"/>
		</g>
		<g id="XMLID_4_">
			<path d="M6.5,21.5c-0.152,0-0.302-0.069-0.4-0.2c-0.166-0.221-0.121-0.534,0.1-0.7l1.466-1.1L6.2,18.4
				c-0.221-0.166-0.266-0.479-0.1-0.7c0.166-0.22,0.48-0.266,0.7-0.101l2,1.5C8.926,19.194,9,19.343,9,19.5s-0.074,0.306-0.2,0.4
				l-2,1.5C6.71,21.468,6.605,21.5,6.5,21.5z"/>
		</g>
		<g>
			<path d="M21.5,15h-1c-0.827,0-1.5-0.673-1.5-1.5v-3C19,9.673,19.673,9,20.5,9h1C21.776,9,22,9.224,22,9.5S21.776,10,21.5,10h-1
				c-0.276,0-0.5,0.225-0.5,0.5v3c0,0.275,0.224,0.5,0.5,0.5h1c0.276,0,0.5,0.224,0.5,0.5S21.776,15,21.5,15z"/>
		</g>
	</g>
</g>
<g id="Toos">
</g>
<g id="Bucket">
</g>
<g id="Sand_Castle">
</g>
<g id="Shell_1">
</g>
<g id="Shell_2">
</g>
<g id="Surf_Board">
</g>
<g id="Float">
</g>
<g id="Vacation_Photo">
</g>
<g id="Summer_Time">
</g>
<g id="Boat">
</g>
<g id="Lifebuoy">
</g>
<g id="Lighthouse">
</g>
<g id="Sunset">
</g>
<g id="Dolphin">
</g>
<g id="Starfish">
</g>
<g id="Diving_Mask">
</g>
<g id="Sailboat">
</g>
<g id="Captin_Hat">
</g>
<g id="Eudder">
</g>
</svg>
