<?xml version="1.0" encoding="iso-8859-1"?>
<!-- Generator: Adobe Illustrator 19.2.1, SVG Export Plug-In . SVG Version: 6.00 Build 0)  -->
<svg version="1.1" xmlns="http://www.w3.org/2000/svg" xmlns:xlink="http://www.w3.org/1999/xlink" x="0px" y="0px"
	 viewBox="0 0 30 30" style="enable-background:new 0 0 30 30;" xml:space="preserve">
<g id="Sun_Light">
</g>
<g id="Sunglasses">
</g>
<g id="T-Shirt_1">
</g>
<g id="T-Shirt_2">
</g>
<g id="Mini_Dress">
</g>
<g id="Flip-Flops">
</g>
<g id="Temperature">
</g>
<g id="Hot_Temperature">
</g>
<g id="Ice_Lolly">
</g>
<g id="Icecream">
</g>
<g id="Limonade_1">
</g>
<g id="Limonade_2">
</g>
<g id="Hat">
</g>
<g id="Straw_Hat">
</g>
<g id="Deckchair">
</g>
<g id="Sunshade">
</g>
<g id="Suncream">
</g>
<g id="Suntan_Oil">
</g>
<g id="Swimming_Trunks">
</g>
<g id="Bikini">
</g>
<g id="Pool">
</g>
<g id="Pool_Ladder">
</g>
<g id="Grill">
</g>
<g id="Kite_1">
</g>
<g id="Kite_2">
</g>
<g id="Badminton">
</g>
<g id="Cooler">
</g>
<g id="Strand_Bag">
</g>
<g id="Towel">
</g>
<g id="Strand_Ball">
</g>
<g id="Beach_Sign">
	<g>
		<path d="M27.5,4h-25C1.122,4,0,5.122,0,6.5v17C0,24.879,1.122,26,2.5,26h25c1.379,0,2.5-1.121,2.5-2.5v-17
			C30,5.122,28.879,4,27.5,4z M19,10.5C19,9.673,19.673,9,20.5,9h1C21.776,9,22,9.224,22,9.5S21.776,10,21.5,10h-1
			c-0.275,0-0.5,0.224-0.5,0.5v3c0,0.276,0.225,0.5,0.5,0.5h1c0.276,0,0.5,0.224,0.5,0.5S21.776,15,21.5,15h-1
			c-0.827,0-1.5-0.673-1.5-1.5V10.5z M13.021,14.356l1.5-5c0.127-0.423,0.831-0.423,0.958,0l1.5,5
			c0.08,0.264-0.07,0.543-0.335,0.623C16.596,14.993,16.548,15,16.5,15c-0.215,0-0.414-0.14-0.479-0.356L15.828,14h-1.656
			l-0.193,0.644c-0.08,0.264-0.357,0.413-0.623,0.335C13.092,14.899,12.942,14.621,13.021,14.356z M8,9.5C8,9.224,8.224,9,8.5,9h2
			C10.776,9,11,9.224,11,9.5S10.776,10,10.5,10H9v1h1.5c0.276,0,0.5,0.224,0.5,0.5S10.776,12,10.5,12H9v2h1.5
			c0.276,0,0.5,0.224,0.5,0.5S10.776,15,10.5,15h-2C8.224,15,8,14.776,8,14.5V9.5z M3,9.5C3,9.224,3.224,9,3.5,9h0.783
			c1.004,0,1.761,0.72,1.761,1.674c0,0.493-0.203,0.932-0.533,1.242c0.327,0.33,0.533,0.786,0.533,1.28
			C6.043,14.174,5.237,15,4.283,15H3.5C3.224,15,3,14.776,3,14.5V9.5z M26.898,19.787c-0.041,0.056-0.09,0.102-0.15,0.137
			c-0.01,0.006-0.014,0.018-0.025,0.023l-3,1.5C23.651,21.483,23.575,21.5,23.5,21.5c-0.183,0-0.359-0.102-0.447-0.276
			c-0.123-0.247-0.023-0.547,0.224-0.671L24.382,20H8.667L6.8,21.4c-0.09,0.067-0.195,0.1-0.299,0.1c-0.152,0-0.302-0.069-0.4-0.2
			c-0.166-0.221-0.121-0.534,0.1-0.7L7,20H5.667L3.8,21.4c-0.09,0.067-0.195,0.1-0.299,0.1c-0.152,0-0.302-0.069-0.4-0.2
			c-0.166-0.221-0.121-0.534,0.1-0.7l1.466-1.1L3.2,18.4c-0.221-0.166-0.266-0.479-0.1-0.7c0.166-0.22,0.48-0.266,0.7-0.101
			L5.667,19H7l-0.8-0.6c-0.221-0.166-0.266-0.479-0.1-0.7c0.167-0.22,0.479-0.266,0.7-0.101L8.667,19h15.715l-1.105-0.553
			c-0.247-0.124-0.347-0.424-0.224-0.671c0.124-0.247,0.425-0.346,0.671-0.224l3,1.5c0.01,0.005,0.015,0.017,0.025,0.023
			c0.06,0.035,0.109,0.081,0.15,0.137c0.013,0.017,0.024,0.032,0.034,0.051C26.972,19.335,27,19.413,27,19.5
			s-0.028,0.165-0.067,0.236C26.922,19.755,26.911,19.77,26.898,19.787z M27,14.5c0,0.276-0.224,0.5-0.5,0.5S26,14.776,26,14.5V13
			h-1v1.5c0,0.276-0.224,0.5-0.5,0.5S24,14.776,24,14.5v-5C24,9.224,24.224,9,24.5,9S25,9.224,25,9.5V12h1V9.5
			C26,9.224,26.224,9,26.5,9S27,9.224,27,9.5V14.5z"/>
		<path d="M5.043,13.196c0-0.429-0.355-0.805-0.761-0.805c-0.105,0-0.202-0.032-0.283-0.087V14h0.283
			C4.688,14,5.043,13.624,5.043,13.196z"/>
		<polygon points="15.528,13 15,11.24 14.472,13 		"/>
		<path d="M5.043,10.674C5.043,10.211,4.649,10,4.283,10H4v1.479c0.081-0.055,0.178-0.087,0.283-0.087
			C4.716,11.391,5.043,11.083,5.043,10.674z"/>
	</g>
</g>
<g id="Toos">
</g>
<g id="Bucket">
</g>
<g id="Sand_Castle">
</g>
<g id="Shell_1">
</g>
<g id="Shell_2">
</g>
<g id="Surf_Board">
</g>
<g id="Float">
</g>
<g id="Vacation_Photo">
</g>
<g id="Summer_Time">
</g>
<g id="Boat">
</g>
<g id="Lifebuoy">
</g>
<g id="Lighthouse">
</g>
<g id="Sunset">
</g>
<g id="Dolphin">
</g>
<g id="Starfish">
</g>
<g id="Diving_Mask">
</g>
<g id="Sailboat">
</g>
<g id="Captin_Hat">
</g>
<g id="Eudder">
</g>
</svg>
