<?xml version="1.0" encoding="iso-8859-1"?>
<!-- Generator: Adobe Illustrator 19.2.1, SVG Export Plug-In . SVG Version: 6.00 Build 0)  -->
<svg version="1.1" xmlns="http://www.w3.org/2000/svg" xmlns:xlink="http://www.w3.org/1999/xlink" x="0px" y="0px"
	 viewBox="0 0 30 30" style="enable-background:new 0 0 30 30;" xml:space="preserve">
<g id="Armchair_1">
</g>
<g id="Armchair_2">
</g>
<g id="Armchair_3">
</g>
<g id="Armchair_4">
</g>
<g id="Sofa_1">
</g>
<g id="Sofa_2">
</g>
<g id="Sofa_3">
</g>
<g id="Sofa_4">
</g>
<g id="Sofa_5">
</g>
<g id="Sofa_6">
</g>
<g id="Desk_1">
</g>
<g id="Desk_2">
</g>
<g id="Desk_3">
</g>
<g id="Lamp">
</g>
<g id="Bed_1">
</g>
<g id="Bunk_Beds">
</g>
<g id="Bed_2">
</g>
<g id="Bed_3">
</g>
<g id="Bed_4">
	<g id="XMLID_147_">
		<g>
			<path d="M13.5,7h-4C9.225,7,9,7.224,9,7.5v2C9,9.776,9.225,10,9.5,10h4c0.275,0,0.5-0.224,0.5-0.5v-2C14,7.224,13.775,7,13.5,7z"
				/>
			<rect x="9" y="13" width="11" height="10"/>
			<path d="M19.5,7h-4C15.225,7,15,7.224,15,7.5v2c0,0.276,0.225,0.5,0.5,0.5h4c0.275,0,0.5-0.224,0.5-0.5v-2
				C20,7.224,19.775,7,19.5,7z"/>
			<path d="M23.5,3h-18C5.224,3,5,3.224,5,3.5v22C5,25.776,5.224,26,5.5,26h18c0.276,0,0.5-0.224,0.5-0.5v-22
				C24,3.224,23.776,3,23.5,3z M21,23.5c0,0.276-0.224,0.5-0.5,0.5h-12C8.224,24,8,23.776,8,23.5v-11C8,12.224,8.224,12,8.5,12h12
				c0.276,0,0.5,0.224,0.5,0.5V23.5z M21,9.5c0,0.827-0.673,1.5-1.5,1.5h-4c-0.386,0-0.734-0.15-1-0.39
				c-0.266,0.24-0.614,0.39-1,0.39h-4C8.673,11,8,10.327,8,9.5v-2C8,6.673,8.673,6,9.5,6h4c0.386,0,0.734,0.15,1,0.39
				C14.766,6.15,15.114,6,15.5,6h4C20.327,6,21,6.673,21,7.5V9.5z"/>
		</g>
		<path d="M4,3.5C4,3.324,4.036,3.157,4.092,3H0.5C0.224,3,0,3.224,0,3.5v5C0,8.776,0.224,9,0.5,9H4V3.5z"/>
		<path d="M28.5,3h-3.592C24.964,3.157,25,3.324,25,3.5V9h3.5C28.776,9,29,8.776,29,8.5v-5C29,3.224,28.776,3,28.5,3z"/>
	</g>
</g>
<g id="Bed_5">
</g>
<g id="Table_1">
</g>
<g id="Table_2">
</g>
<g id="Table_3">
</g>
<g id="Table_4">
</g>
<g id="Rug_1">
</g>
<g id="Rug_2">
</g>
<g id="Rug_3">
</g>
<g id="Tub_1">
</g>
<g id="Tub_2">
</g>
<g id="Jacuzzi">
</g>
<g id="Corner_Tub">
</g>
<g id="Shower_Tray">
</g>
<g id="Sink_1">
</g>
<g id="Sink_2">
</g>
<g id="Toilette">
</g>
<g id="Stove">
</g>
<g id="Kitchen_Sink">
</g>
<g id="Island">
</g>
<g id="Eat-in_Kitchen">
</g>
<g id="Tv_Stand">
</g>
</svg>
