<?xml version="1.0" encoding="iso-8859-1"?>
<!-- Generator: Adobe Illustrator 19.2.1, SVG Export Plug-In . SVG Version: 6.00 Build 0)  -->
<svg version="1.1" xmlns="http://www.w3.org/2000/svg" xmlns:xlink="http://www.w3.org/1999/xlink" x="0px" y="0px"
	 viewBox="0 0 30 30" style="enable-background:new 0 0 30 30;" xml:space="preserve">
<g id="Armchair_1">
</g>
<g id="Armchair_2">
</g>
<g id="Armchair_3">
</g>
<g id="Armchair_4">
</g>
<g id="Sofa_1">
</g>
<g id="Sofa_2">
</g>
<g id="Sofa_3">
</g>
<g id="Sofa_4">
</g>
<g id="Sofa_5">
</g>
<g id="Sofa_6">
</g>
<g id="Desk_1">
</g>
<g id="Desk_2">
</g>
<g id="Desk_3">
</g>
<g id="Lamp">
</g>
<g id="Bed_1">
</g>
<g id="Bunk_Beds">
</g>
<g id="Bed_2">
	<g id="XMLID_134_">
		<g>
			<path d="M15.5,12h9c0.827,0,1.5-0.673,1.5-1.5v-3C26,6.673,25.327,6,24.5,6h-9C14.673,6,14,6.673,14,7.5v3
				C14,11.327,14.673,12,15.5,12z"/>
			<polygon points="26,13 24.5,13 15.5,13 14,13 14,27 26,27 			"/>
			<path d="M27.5,0h-15C11.673,0,11,0.673,11,1.5V3h18V1.5C29,0.673,28.327,0,27.5,0z"/>
			<path d="M11,28.5c0,0.827,0.673,1.5,1.5,1.5h15c0.827,0,1.5-0.673,1.5-1.5V4H11V28.5z M13,12.5c0-0.276,0.224-0.5,0.5-0.5h0.013
				C13.195,11.581,13,11.065,13,10.5v-3C13,6.122,14.121,5,15.5,5h9C25.879,5,27,6.122,27,7.5v3c0,0.565-0.195,1.081-0.513,1.5H26.5
				c0.276,0,0.5,0.224,0.5,0.5v15c0,0.276-0.224,0.5-0.5,0.5h-13c-0.276,0-0.5-0.224-0.5-0.5V12.5z"/>
		</g>
		<g>
			<path d="M10.5,0h-8C1.673,0,1,0.673,1,1.5v8C1,10.327,1.673,11,2.5,11H10V1.5c0-0.564,0.195-1.08,0.512-1.499
				C10.508,0.001,10.504,0,10.5,0z M5.5,9C3.57,9,2,7.43,2,5.5S3.57,2,5.5,2S9,3.57,9,5.5S7.43,9,5.5,9z"/>
			<path d="M5.5,3C4.121,3,3,4.122,3,5.5S4.121,8,5.5,8S8,6.878,8,5.5S6.879,3,5.5,3z M5.5,6C5.224,6,5,5.776,5,5.5
				C5,5.224,5.224,5,5.5,5S6,5.224,6,5.5C6,5.776,5.776,6,5.5,6z"/>
		</g>
	</g>
</g>
<g id="Bed_3">
</g>
<g id="Bed_4">
</g>
<g id="Bed_5">
</g>
<g id="Table_1">
</g>
<g id="Table_2">
</g>
<g id="Table_3">
</g>
<g id="Table_4">
</g>
<g id="Rug_1">
</g>
<g id="Rug_2">
</g>
<g id="Rug_3">
</g>
<g id="Tub_1">
</g>
<g id="Tub_2">
</g>
<g id="Jacuzzi">
</g>
<g id="Corner_Tub">
</g>
<g id="Shower_Tray">
</g>
<g id="Sink_1">
</g>
<g id="Sink_2">
</g>
<g id="Toilette">
</g>
<g id="Stove">
</g>
<g id="Kitchen_Sink">
</g>
<g id="Island">
</g>
<g id="Eat-in_Kitchen">
</g>
<g id="Tv_Stand">
</g>
</svg>
