<?xml version="1.0" encoding="iso-8859-1"?>
<!-- Generator: Adobe Illustrator 19.2.1, SVG Export Plug-In . SVG Version: 6.00 Build 0)  -->
<svg version="1.1" xmlns="http://www.w3.org/2000/svg" xmlns:xlink="http://www.w3.org/1999/xlink" x="0px" y="0px"
	 viewBox="0 0 24 24" style="enable-background:new 0 0 24 24;" xml:space="preserve">
<g id="Event">
</g>
<g id="Event_2">
</g>
<g id="Add_Event">
</g>
<g id="Remove_Event">
</g>
<g id="Event_Reminder">
</g>
<g id="Wine_Glass">
</g>
<g id="Toast">
</g>
<g id="Champagne">
</g>
<g id="Champagne_Open">
</g>
<g id="Alcohol_Drink">
</g>
<g id="Beer_Glass">
	<path d="M24,9.5c0-1.937-0.576-3.271-1.712-3.963C20.607,4.512,18.197,5.248,17,5.73V1.5C17,0.673,16.327,0,15.5,0h-14
		C0.673,0,0,0.673,0,1.5v18C0,21.981,2.019,24,4.5,24h8c2.481,0,4.5-2.019,4.5-4.5v-1.676C18.382,17.187,24,14.301,24,9.5z M5,18.5
		C5,18.776,4.776,19,4.5,19S4,18.776,4,18.5v-13C4,5.224,4.224,5,4.5,5S5,5.224,5,5.5V18.5z M9,18.5C9,18.776,8.776,19,8.5,19
		S8,18.776,8,18.5v-13C8,5.224,8.224,5,8.5,5S9,5.224,9,5.5V18.5z M13,18.5c0,0.276-0.224,0.5-0.5,0.5S12,18.776,12,18.5v-13
		C12,5.224,12.224,5,12.5,5S13,5.224,13,5.5V18.5z M17,16.708V6.817c1.07-0.49,3.4-1.26,4.768-0.427C22.585,6.889,23,7.936,23,9.5
		C23,13.275,18.708,15.837,17,16.708z"/>
</g>
<g id="Party_Cake">
</g>
<g id="Pizza_Food">
</g>
<g id="Disco_Ball">
</g>
<g id="Equalizer">
</g>
<g id="DJ">
</g>
<g id="Tent">
</g>
<g id="Firework_1">
</g>
<g id="Firework_2">
</g>
<g id="Party_Glasses">
</g>
<g id="Barbeque">
</g>
<g id="Horn">
</g>
<g id="Speaker">
</g>
<g id="VIP">
</g>
<g id="Event_Ticket">
</g>
<g id="VIP_Ticket">
</g>
<g id="Popcorn">
</g>
<g id="Cord">
</g>
<g id="Invitation_1">
</g>
<g id="Invitation_2">
</g>
</svg>
