<?xml version="1.0" encoding="iso-8859-1"?>
<!-- Generator: Adobe Illustrator 19.2.1, SVG Export Plug-In . SVG Version: 6.00 Build 0)  -->
<svg version="1.1" xmlns="http://www.w3.org/2000/svg" xmlns:xlink="http://www.w3.org/1999/xlink" x="0px" y="0px"
	 viewBox="0 0 30 30" style="enable-background:new 0 0 30 30;" xml:space="preserve">
<g id="Present_1">
</g>
<g id="Present_2">
</g>
<g id="Present_3">
</g>
<g id="Present_Cake">
</g>
<g id="Present_4">
</g>
<g id="Birthday_Cake_1">
</g>
<g id="Birthday_Cake_2">
</g>
<g id="Cake_Piece">
</g>
<g id="Cupcake">
</g>
<g id="Lollipop">
</g>
<g id="Birthday_Greetings_1">
</g>
<g id="Party_Greetings_2">
</g>
<g id="Birthday_Invitation">
</g>
<g id="Birthday_1">
</g>
<g id="Birthday_2">
</g>
<g id="Birthday_Message_1">
</g>
<g id="Birthday_Message_2">
</g>
<g id="Birthyday_Hat_1">
</g>
<g id="Birthay_Hat_2">
</g>
<g id="Birthday_Hat3">
</g>
<g id="Birthday_Decoration_1">
</g>
<g id="Birthday_Decoration_2">
</g>
<g id="Birthday_Decoration_3">
</g>
<g id="Horn_1">
</g>
<g id="Horn_2">
</g>
<g id="Baloon">
</g>
<g id="Balloons_1">
</g>
<g id="Balloons_2">
</g>
<g id="Birthday_Picture">
</g>
<g id="Kid_x27_s_Champagne">
</g>
<g id="Candy">
</g>
<g id="Birthday_Card">
</g>
<g id="Flowers">
</g>
<g id="Birthday_Song">
</g>
<g id="Candle">
</g>
<g id="Sweet_16">
</g>
<g id="Clown">
</g>
<g id="Clown_2">
</g>
<g id="Birthday_Party">
</g>
<g id="Giving_Gift">
</g>
<g id="Present_5">
</g>
<g id="Champagne_in_ice_bucket">
</g>
<g id="Beer">
	<g>
		<g>
			<path d="M24.5,27h-20C4.224,27,4,26.776,4,26.5v-10C4,16.224,4.224,16,4.5,16h20c0.276,0,0.5,0.224,0.5,0.5v10
				C25,26.776,24.776,27,24.5,27z M5,26h19v-9H5V26z"/>
		</g>
		<g>
			<path d="M4.5,27h-4C0.224,27,0,26.776,0,26.5v-12C0,14.224,0.224,14,0.5,14h4C4.776,14,5,14.224,5,14.5v12
				C5,26.776,4.776,27,4.5,27z M1,26h3V15H1V26z"/>
		</g>
		<g>
			<path d="M28.5,27h-4c-0.276,0-0.5-0.224-0.5-0.5v-12c0-0.276,0.224-0.5,0.5-0.5h4c0.276,0,0.5,0.224,0.5,0.5v12
				C29,26.776,28.776,27,28.5,27z M25,26h3V15h-3V26z"/>
		</g>
		<g>
			<path d="M24.5,22h-20C4.224,22,4,21.776,4,21.5S4.224,21,4.5,21h20c0.276,0,0.5,0.224,0.5,0.5S24.776,22,24.5,22z"/>
		</g>
		<g>
			<g>
				<path d="M10.5,17c-0.276,0-0.5-0.224-0.5-0.5v-3.08c0-0.146,0.036-0.271,0.063-0.363c0.007-0.023,0.011-0.034,0.015-0.035
					L9.15,11.106C9.018,10.842,9,10.565,9,10.33V5.006L6.5,5C6.319,5,6.104,5.058,6,5.109v5.221
					c0.068,0.242,0.143,0.503,0.003,0.782l-0.952,1.967C5.006,13.169,5,13.296,5,13.42v3.08C5,16.776,4.776,17,4.5,17
					S4,16.776,4,16.5v-3.08c0-0.235,0.018-0.512,0.153-0.782l0.92-1.9C5.031,10.582,5,10.465,5,10.33V5c0-0.729,0.92-1,1.5-1H9
					c0.617,0,1,0.383,1,1v5.33c0,0.124,0.006,0.251,0.048,0.335l0.958,1.979c0.137,0.273,0.062,0.534,0.018,0.689L11,16.5
					C11,16.776,10.776,17,10.5,17z M10.106,13.079c0,0.002,0.001,0.004,0.002,0.006L10.106,13.079z M5.105,10.671
					c0,0.001-0.001,0.003-0.002,0.005L5.105,10.671z"/>
			</g>
			<g>
				<path d="M18.5,17c-0.276,0-0.5-0.224-0.5-0.5v-3.079c-0.001,0.045-0.05-0.019-0.082-0.061c-0.073-0.094-0.141-0.188-0.185-0.275
					l-1.241-1.926c-0.041-0.062-0.078-0.095-0.114-0.131C16.228,10.88,16,10.655,16,10.33V5.001L13,5v5.33
					c0,0.296-0.168,0.513-0.292,0.672c-0.03,0.038-0.062,0.074-0.081,0.11l-1.294,2.02c-0.045,0.097-0.156,0.206-0.253,0.302
					c-0.024,0.024-0.056,0.056-0.08,0.081V16.5c0,0.276-0.224,0.5-0.5,0.5S10,16.776,10,16.5v-3.08c0-0.325,0.228-0.55,0.378-0.698
					c0.036-0.036,0.074-0.069,0.098-0.103l1.284-2.001c0.017-0.041,0.085-0.135,0.158-0.229c0.033-0.043,0.083-0.106,0.094-0.133
					l-0.019-5.409c-0.01-0.169-0.026-0.425,0.17-0.633C12.344,4.022,12.585,4,12.75,4h3.5c0.165,0,0.406,0.022,0.586,0.215
					c0.196,0.208,0.18,0.464,0.17,0.633L17,5v5.235c0.024,0.025,0.056,0.057,0.08,0.081c0.098,0.096,0.208,0.205,0.28,0.349
					l1.241,1.926c0.046,0.083,0.077,0.119,0.107,0.157C18.832,12.907,19,13.124,19,13.42v3.08C19,16.776,18.776,17,18.5,17z
					 M10.968,13.553L10.968,13.553L10.968,13.553z"/>
			</g>
			<g>
				<path d="M24.5,17c-0.276,0-0.5-0.224-0.5-0.5v-3.08c0-0.056-0.069-0.19-0.114-0.28l-0.871-2.057
					c-0.119-0.236-0.065-0.491-0.033-0.645C22.989,10.401,23,10.35,23,10.33V5.109C22.896,5.058,22.681,5,22.5,5h-2.494L20,10.33
					c0,0.295-0.128,0.548-0.222,0.732l-0.841,1.993C18.978,13.191,19,13.297,19,13.42v3.08c0,0.276-0.224,0.5-0.5,0.5
					S18,16.776,18,16.5v-3.08c0-0.02-0.011-0.071-0.019-0.108c-0.032-0.153-0.086-0.408,0.047-0.674l0.816-1.943
					C18.931,10.521,19,10.386,19,10.33V5c0-0.617,0.383-1,1-1h2.5C23.08,4,24,4.271,24,5v5.33c0,0.123-0.022,0.229-0.04,0.313
					l0.807,2.023C24.872,12.872,25,13.125,25,13.42v3.08C25,16.776,24.776,17,24.5,17z"/>
			</g>
		</g>
		<g>
			<path d="M9.5,4h-4C5.224,4,5,3.776,5,3.5S5.224,3,5.5,3h4C9.776,3,10,3.224,10,3.5S9.776,4,9.5,4z"/>
		</g>
		<g>
			<path d="M16.5,4h-4C12.224,4,12,3.776,12,3.5S12.224,3,12.5,3h4C16.776,3,17,3.224,17,3.5S16.776,4,16.5,4z"/>
		</g>
		<g>
			<path d="M23.5,4h-4C19.224,4,19,3.776,19,3.5S19.224,3,19.5,3h4C23.776,3,24,3.224,24,3.5S23.776,4,23.5,4z"/>
		</g>
	</g>
</g>
<g id="Truffles">
</g>
<g id="Pinata">
</g>
</svg>
