<?xml version="1.0" encoding="iso-8859-1"?>
<!-- Generator: Adobe Illustrator 19.2.1, SVG Export Plug-In . SVG Version: 6.00 Build 0)  -->
<svg version="1.1" xmlns="http://www.w3.org/2000/svg" xmlns:xlink="http://www.w3.org/1999/xlink" x="0px" y="0px"
	 viewBox="0 0 24 24" style="enable-background:new 0 0 24 24;" xml:space="preserve">
<g id="Egg_1_">
</g>
<g id="Easter_Egg_1">
</g>
<g id="Easter_Egg_2">
</g>
<g id="Easter_Egg_3">
</g>
<g id="Eggs_1">
</g>
<g id="Eggs_2_1_">
</g>
<g id="Bunny">
</g>
<g id="Sheep">
</g>
<g id="Bell_Alarm">
	<g>
		<path d="M11.494,5.179C9.62,5.499,8.096,6.697,7.146,7.646C6.438,8.354,5.891,8.975,5.449,9.474C4.49,10.56,4.078,11,3.5,11
			c-0.164,0-0.338-0.005-0.518-0.01c-0.939-0.025-2.002-0.053-2.588,0.518C0.137,11.759,0,12.102,0,12.5C0,14.005,9.995,24,11.5,24
			c0.398,0,0.741-0.136,0.992-0.395c0.571-0.586,0.543-1.65,0.518-2.588C13.005,20.838,13,20.664,13,20.5
			c0-0.578,0.44-0.99,1.524-1.947c0.499-0.441,1.12-0.99,1.829-1.699c3.195-3.196,3.382-6.825,0.5-9.707
			C15.22,5.512,13.418,4.852,11.494,5.179z M15.439,9.268c-0.195,0.195-0.512,0.195-0.707,0c-0.787-0.787-1.54-1.169-2.305-1.169
			c-1.298,0-2.537,1.046-3.16,1.669c-0.644,0.643-1.136,1.201-1.57,1.693c-1.134,1.284-2.203,2.493-4.089,2.538
			c-0.004,0-0.008,0-0.012,0c-0.271,0-0.493-0.216-0.5-0.488c-0.007-0.276,0.212-0.505,0.488-0.512
			c1.449-0.035,2.292-0.989,3.36-2.197c0.446-0.506,0.95-1.077,1.615-1.742c0.732-0.733,2.209-1.962,3.867-1.962
			c1.043,0,2.028,0.478,3.012,1.462C15.635,8.756,15.635,9.072,15.439,9.268z"/>
		<path d="M2.447,17.43C2.16,17.892,2,18.432,2,19c0,1.654,1.346,3,3,3c0.568,0,1.108-0.16,1.57-0.447
			C5.178,20.286,3.714,18.822,2.447,17.43z"/>
		<path d="M21.5,0c-1.234,0-3.994,3.192-5.564,5.14c0.559,0.349,1.102,0.777,1.625,1.299c0.521,0.521,0.944,1.069,1.29,1.633
			C20.797,6.504,24,3.737,24,2.5C24,0.841,23.159,0,21.5,0z"/>
	</g>
</g>
<g id="Calendar">
</g>
<g id="Tulip">
</g>
<g id="Chicken">
</g>
<g id="Chicken_2">
</g>
<g id="Baguette">
</g>
<g id="Ham_1_">
</g>
<g id="Bell_2">
</g>
<g id="Bell_3">
</g>
<g id="Bell_4">
</g>
<g id="Easter_celebration">
</g>
<g id="Egg_painting">
</g>
<g id="Easter_willow">
</g>
<g id="Daffodil">
</g>
<g id="Easter_message">
</g>
<g id="Bunny_2">
</g>
<g id="Chicken_3">
</g>
<g id="Tulip_2">
</g>
<g id="Easter_basket">
</g>
<g id="Bread_and_wine">
</g>
<g id="Sheep_2">
</g>
<g id="Candle_Light">
</g>
</svg>
