<?xml version="1.0" encoding="iso-8859-1"?>
<!-- Generator: Adobe Illustrator 19.2.1, SVG Export Plug-In . SVG Version: 6.00 Build 0)  -->
<svg version="1.1" xmlns="http://www.w3.org/2000/svg" xmlns:xlink="http://www.w3.org/1999/xlink" x="0px" y="0px"
	 viewBox="0 0 24 24" style="enable-background:new 0 0 24 24;" xml:space="preserve">
<g id="Egg_1_">
</g>
<g id="Easter_Egg_1">
</g>
<g id="Easter_Egg_2">
</g>
<g id="Easter_Egg_3">
</g>
<g id="Eggs_1">
</g>
<g id="Eggs_2_1_">
</g>
<g id="Bunny">
</g>
<g id="Sheep">
</g>
<g id="Bell_Alarm">
</g>
<g id="Calendar">
</g>
<g id="Tulip">
</g>
<g id="Chicken">
</g>
<g id="Chicken_2">
</g>
<g id="Baguette">
</g>
<g id="Ham_1_">
</g>
<g id="Bell_2">
</g>
<g id="Bell_3">
</g>
<g id="Bell_4">
	<path d="M19.995,16.432c-0.007-0.053-0.023-0.105-0.048-0.155C19.327,15.036,19,13.649,19,12.264v-1.992
		c0-2.639-1.399-4.983-3.463-6.258c1.034,0.129,2.639,0.666,3.503,2.683C19.122,6.887,19.307,7,19.5,7
		c0.066,0,0.133-0.013,0.197-0.041c0.254-0.109,0.371-0.403,0.263-0.656c-1.03-2.402-2.944-3.086-4.228-3.264
		C15.9,2.803,16,2.524,16,2.222c0-0.525-0.288-1.005-0.751-1.253c-0.461-0.247-1.021-0.221-1.459,0.07l-1.29,0.86V0.5
		C12.5,0.224,12.276,0,12,0s-0.5,0.224-0.5,0.5v1.399l-1.29-0.86c-0.438-0.292-0.998-0.317-1.459-0.07C8.288,1.216,8,1.697,8,2.222
		C8,2.6,8.15,2.945,8.409,3.208C7.455,3.316,5.963,3.256,4.854,2.146c-0.195-0.195-0.512-0.195-0.707,0s-0.195,0.512,0,0.707
		c1.12,1.12,2.498,1.4,3.597,1.4c0.097,0,0.189-0.004,0.282-0.008c-0.315,0.219-0.619,0.458-0.9,0.731C5.755,6.306,5,8.09,5,10
		v1.231c0,1.452-0.232,2.886-0.692,4.263l-0.282,0.848c-0.01,0.029-0.017,0.059-0.021,0.089C3.398,16.882,3,17.641,3,18.5
		C3,19.878,4.027,21,5.289,21c0.049,0,0.097-0.007,0.143-0.021c2.055-0.612,4.166-0.923,6.279-0.95C10.746,20.171,10,20.996,10,22
		c0,1.103,0.897,2,2,2s2-0.897,2-2c0-1.004-0.746-1.829-1.711-1.971c2.113,0.027,4.224,0.338,6.279,0.95
		C18.614,20.993,18.662,21,18.711,21C19.973,21,21,19.878,21,18.5C21,17.641,20.602,16.882,19.995,16.432z M14.345,1.871
		c0.189-0.126,0.365-0.057,0.433-0.021C14.845,1.886,15,1.994,15,2.222c0,0.137-0.063,0.262-0.175,0.342s-0.251,0.102-0.38,0.058
		l-0.817-0.272L14.345,1.871z M9.223,1.85c0.038-0.02,0.111-0.052,0.202-0.052c0.069,0,0.148,0.018,0.23,0.073l0.717,0.478
		L9.555,2.621c-0.129,0.044-0.269,0.022-0.38-0.058S9,2.359,9,2.222C9,1.994,9.155,1.886,9.223,1.85z M17.853,15.852
		c-0.098,0.098-0.226,0.146-0.354,0.146s-0.256-0.049-0.354-0.146C16.418,15.125,16,14.117,16,13.087V10.59
		c0-1.716-0.953-3.258-2.487-4.025l-1.236-0.618c-0.247-0.124-0.347-0.424-0.224-0.671c0.125-0.247,0.424-0.345,0.671-0.224
		l1.236,0.618C15.835,6.608,17,8.494,17,10.59v2.497c0,0.766,0.311,1.516,0.853,2.058C18.048,15.34,18.048,15.657,17.853,15.852z"/>
</g>
<g id="Easter_celebration">
</g>
<g id="Egg_painting">
</g>
<g id="Easter_willow">
</g>
<g id="Daffodil">
</g>
<g id="Easter_message">
</g>
<g id="Bunny_2">
</g>
<g id="Chicken_3">
</g>
<g id="Tulip_2">
</g>
<g id="Easter_basket">
</g>
<g id="Bread_and_wine">
</g>
<g id="Sheep_2">
</g>
<g id="Candle_Light">
</g>
</svg>
