<?xml version="1.0" encoding="iso-8859-1"?>
<!-- Generator: Adobe Illustrator 19.2.1, SVG Export Plug-In . SVG Version: 6.00 Build 0)  -->
<svg version="1.1" xmlns="http://www.w3.org/2000/svg" xmlns:xlink="http://www.w3.org/1999/xlink" x="0px" y="0px"
	 viewBox="0 0 30 30" style="enable-background:new 0 0 30 30;" xml:space="preserve">
<g id="Retro_Bot_1">
</g>
<g id="Retro_Bot_2">
</g>
<g id="Retro_Bot_3">
</g>
<g id="Retro_Bot_4">
</g>
<g id="Wall-E">
</g>
<g id="Eva">
</g>
<g id="Iron_Giant">
</g>
<g id="Marvin">
</g>
<g id="Atlas">
</g>
<g id="Claptrap">
</g>
<g id="Android">
</g>
<g id="Bender">
	<g>
		<rect x="16" y="23.999" width="1" height="2"/>
		<rect x="12" y="23.999" width="1" height="2"/>
		<rect x="14" y="23.999" width="1" height="2"/>
		<path d="M18,23.999v2c0.551,0,1-0.449,1-1S18.551,23.999,18,23.999z"/>
		<path d="M10,24.999c0,0.551,0.449,1,1,1v-2C10.449,23.999,10,24.447,10,24.999z"/>
		<path d="M7.5,21.999c-0.539,0-1.044-0.133-1.5-0.351v5.437c0,0.855,0.306,1.621,0.862,2.156c0.521,0.5,1.213,0.762,1.994,0.762
			C8.904,30.001,8.952,30,9,29.999l11.474,0c0.615,0.03,1.185-0.177,1.636-0.604c0.565-0.537,0.89-1.379,0.89-2.31v-5.437
			c-0.456,0.219-0.961,0.351-1.5,0.351H7.5z M18,26.999h-7c-1.103,0-2-0.897-2-2s0.897-2,2-2h7c1.103,0,2,0.897,2,2
			S19.103,26.999,18,26.999z"/>
		<path d="M21.5,13.999h-14c-1.378,0-2.5,1.122-2.5,2.5v2c0,1.378,1.122,2.5,2.5,2.5h14c1.378,0,2.5-1.122,2.5-2.5v-2
			C24,15.12,22.878,13.999,21.5,13.999z M13.763,18.819c-0.364,0.62-0.957,1.035-1.669,1.171c-0.294,0.056-0.583,0.083-0.864,0.083
			c-0.779,0-1.493-0.213-2.066-0.625c-0.644-0.463-1.056-1.131-1.159-1.882c-0.212-1.556,0.749-3.013,2.337-3.542
			c0.146-0.051,0.307-0.028,0.436,0.058l3,2c0.093,0.062,0.162,0.152,0.197,0.258C14.26,17.199,14.183,18.102,13.763,18.819z
			 M20.971,17.566c-0.103,0.75-0.515,1.419-1.159,1.882c-0.573,0.412-1.287,0.625-2.066,0.625c-0.281,0-0.57-0.027-0.864-0.083
			c-0.713-0.136-1.306-0.552-1.67-1.171c-0.42-0.717-0.498-1.62-0.211-2.478c0.035-0.105,0.104-0.196,0.197-0.258l3-2
			c0.129-0.085,0.29-0.107,0.436-0.058C20.222,14.554,21.183,16.01,20.971,17.566z"/>
		<circle cx="18" cy="16.999" r="1"/>
		<circle cx="11" cy="16.999" r="1"/>
		<path d="M21.5,12.999c0.539,0,1.044,0.133,1.5,0.351v-0.351c0-4.411-3.589-8-8-8V1.845c0.293-0.175,0.5-0.481,0.5-0.846
			c0-0.551-0.449-1-1-1s-1,0.449-1,1c0,0.365,0.207,0.672,0.5,0.846v3.154c-4.411,0-8,3.589-8,8v0.351
			c0.456-0.219,0.961-0.351,1.5-0.351H21.5z M15,0.999h-0.5l0-0.001L15,0.999z"/>
	</g>
</g>
<g id="Roberto">
</g>
<g id="Robot_Devil">
</g>
<g id="Robocop">
</g>
<g id="ED_209">
</g>
<g id="Optimus_Prime">
</g>
<g id="Robot_1">
</g>
<g id="Robot_2">
</g>
<g id="Robot_3">
</g>
<g id="Robot_Arm_1">
</g>
<g id="Robot_Arm_2">
</g>
<g id="Robot_Arm_3">
</g>
<g id="Robot_Arm_4">
</g>
<g id="Robot_Arm_5">
</g>
<g id="K5_Robot">
</g>
<g id="Robot_Machine_1">
</g>
<g id="Robot_Machine_2">
</g>
<g id="Artifical_Intelligence_1">
</g>
<g id="Artifical_Intelligence_2">
</g>
<g id="Robot_4">
</g>
<g id="Robot_5">
</g>
<g id="Robot_6">
</g>
<g id="Robot_7">
</g>
<g id="Robot_8">
</g>
<g id="Robot_9">
</g>
<g id="Robot_10">
</g>
<g id="Robot_11">
</g>
<g id="Robot_12">
</g>
<g id="Robot_13">
</g>
</svg>
