<?xml version="1.0" encoding="iso-8859-1"?>
<!-- Generator: Adobe Illustrator 19.2.1, SVG Export Plug-In . SVG Version: 6.00 Build 0)  -->
<svg version="1.1" xmlns="http://www.w3.org/2000/svg" xmlns:xlink="http://www.w3.org/1999/xlink" x="0px" y="0px"
	 viewBox="0 0 30 30" style="enable-background:new 0 0 30 30;" xml:space="preserve">
<g id="Sun_Light">
</g>
<g id="Sunglasses">
</g>
<g id="T-Shirt_1">
</g>
<g id="T-Shirt_2">
</g>
<g id="Mini_Dress">
</g>
<g id="Flip-Flops">
</g>
<g id="Temperature">
</g>
<g id="Hot_Temperature">
</g>
<g id="Ice_Lolly">
</g>
<g id="Icecream">
</g>
<g id="Limonade_1">
</g>
<g id="Limonade_2">
</g>
<g id="Hat">
</g>
<g id="Straw_Hat">
</g>
<g id="Deckchair">
</g>
<g id="Sunshade">
</g>
<g id="Suncream">
</g>
<g id="Suntan_Oil">
</g>
<g id="Swimming_Trunks">
</g>
<g id="Bikini">
	<g>
		<g>
			<path d="M15.654,30h-1.309c-0.276,0-0.5-0.224-0.5-0.5c0-2.722-1.962-6.125-7.468-7.515c-0.135-0.034-0.249-0.122-0.315-0.244
				c-0.067-0.121-0.081-0.265-0.038-0.396l0.654-2c0.082-0.25,0.337-0.395,0.598-0.33l1.442,0.368
				c2.528,0.652,3.683,0.95,6.281,0.95s3.753-0.298,6.281-0.95l1.442-0.368c0.26-0.063,0.516,0.08,0.598,0.33l0.654,2
				c0.043,0.131,0.029,0.275-0.038,0.396c-0.066,0.122-0.181,0.209-0.315,0.244c-5.506,1.39-7.468,4.793-7.468,7.515
				C16.154,29.776,15.931,30,15.654,30z M14.827,29h0.346c0.216-2.91,2.328-6.32,7.688-7.846L22.516,20.1l-0.984,0.252
				c-2.534,0.653-3.807,0.981-6.531,0.981s-3.997-0.328-6.531-0.981L7.484,20.1L7.14,21.154C12.499,22.68,14.611,26.09,14.827,29z"
				/>
		</g>
		<g>
			<path d="M8.833,10C7.292,10,5,9.011,5,6.286c0-1.892,2.47-5.642,2.751-6.063C7.845,0.082,8.028,0.011,8.172,0
				C8.34,0.001,8.496,0.088,8.588,0.229c0.022,0.036,2.299,3.55,5.224,5.879c0.195,0.156,0.246,0.433,0.118,0.647
				C13.851,6.889,11.956,10,8.833,10z M8.179,1.407C7.333,2.766,6,5.147,6,6.286C6,8.433,7.854,9,8.833,9
				c1.989,0,3.443-1.66,3.995-2.404C10.676,4.788,8.949,2.501,8.179,1.407z"/>
		</g>
		<g>
			<path d="M21.167,10c-3.123,0-5.018-3.111-5.097-3.244c-0.128-0.215-0.077-0.492,0.118-0.647c2.929-2.332,5.201-5.844,5.224-5.879
				C21.504,0.088,21.66,0.001,21.828,0c0.134,0.006,0.327,0.082,0.421,0.222C22.53,0.644,25,4.394,25,6.286
				C25,9.011,22.708,10,21.167,10z M17.172,6.596C17.724,7.34,19.178,9,21.167,9C22.146,9,24,8.433,24,6.286
				c0-1.139-1.332-3.521-2.179-4.879C21.051,2.501,19.324,4.788,17.172,6.596z"/>
		</g>
		<g>
			<path d="M16.5,7h-3C13.224,7,13,6.776,13,6.5S13.224,6,13.5,6h3C16.776,6,17,6.224,17,6.5S16.776,7,16.5,7z"/>
		</g>
	</g>
</g>
<g id="Pool">
</g>
<g id="Pool_Ladder">
</g>
<g id="Grill">
</g>
<g id="Kite_1">
</g>
<g id="Kite_2">
</g>
<g id="Badminton">
</g>
<g id="Cooler">
</g>
<g id="Strand_Bag">
</g>
<g id="Towel">
</g>
<g id="Strand_Ball">
</g>
<g id="Beach_Sign">
</g>
<g id="Toos">
</g>
<g id="Bucket">
</g>
<g id="Sand_Castle">
</g>
<g id="Shell_1">
</g>
<g id="Shell_2">
</g>
<g id="Surf_Board">
</g>
<g id="Float">
</g>
<g id="Vacation_Photo">
</g>
<g id="Summer_Time">
</g>
<g id="Boat">
</g>
<g id="Lifebuoy">
</g>
<g id="Lighthouse">
</g>
<g id="Sunset">
</g>
<g id="Dolphin">
</g>
<g id="Starfish">
</g>
<g id="Diving_Mask">
</g>
<g id="Sailboat">
</g>
<g id="Captin_Hat">
</g>
<g id="Eudder">
</g>
</svg>
