<?xml version="1.0" encoding="iso-8859-1"?>
<!-- Generator: Adobe Illustrator 19.2.1, SVG Export Plug-In . SVG Version: 6.00 Build 0)  -->
<svg version="1.1" xmlns="http://www.w3.org/2000/svg" xmlns:xlink="http://www.w3.org/1999/xlink" x="0px" y="0px"
	 viewBox="0 0 30 30" style="enable-background:new 0 0 30 30;" xml:space="preserve">
<g id="Present_1">
</g>
<g id="Present_2">
</g>
<g id="Present_3">
</g>
<g id="Present_Cake">
</g>
<g id="Present_4">
</g>
<g id="Birthday_Cake_1">
</g>
<g id="Birthday_Cake_2">
</g>
<g id="Cake_Piece">
</g>
<g id="Cupcake">
</g>
<g id="Lollipop">
</g>
<g id="Birthday_Greetings_1">
</g>
<g id="Party_Greetings_2">
</g>
<g id="Birthday_Invitation">
</g>
<g id="Birthday_1">
</g>
<g id="Birthday_2">
</g>
<g id="Birthday_Message_1">
</g>
<g id="Birthday_Message_2">
</g>
<g id="Birthyday_Hat_1">
	<g>
		<g>
			<path d="M15,30c-5.327,0-9.5-1.871-9.5-4.26c0-0.065,0.013-0.13,0.038-0.191l8.39-20.32c0.105-0.255,0.396-0.375,0.652-0.271
				c0.256,0.105,0.377,0.398,0.271,0.653L6.504,25.83C6.636,27.348,10.088,29,15,29s8.364-1.652,8.496-3.17L15.148,5.611
				c-0.105-0.255,0.016-0.548,0.271-0.653c0.256-0.103,0.548,0.017,0.652,0.271l8.39,20.32c0.025,0.061,0.038,0.125,0.038,0.191
				C24.5,28.129,20.327,30,15,30z"/>
		</g>
		<g>
			<path d="M7.981,28.511c-0.195,0-0.382-0.116-0.462-0.308c-0.105-0.255,0.015-0.548,0.27-0.654l14.33-5.971
				c0.252-0.106,0.548,0.014,0.654,0.269c0.105,0.255-0.015,0.548-0.27,0.654l-14.33,5.971C8.111,28.499,8.046,28.511,7.981,28.511z
				"/>
		</g>
		<g>
			<path d="M7.481,23.046c-0.195,0-0.382-0.116-0.462-0.308c-0.105-0.255,0.015-0.548,0.27-0.654l12.836-5.349
				c0.253-0.105,0.548,0.014,0.654,0.269c0.105,0.255-0.015,0.548-0.27,0.654L7.674,23.007C7.611,23.034,7.546,23.046,7.481,23.046z
				"/>
		</g>
		<g>
			<path d="M10.306,16.195c-0.195,0-0.382-0.116-0.462-0.308c-0.105-0.255,0.015-0.548,0.27-0.654l8.018-3.341
				c0.252-0.106,0.548,0.014,0.654,0.269c0.105,0.255-0.015,0.548-0.27,0.654l-8.018,3.341
				C10.436,16.183,10.37,16.195,10.306,16.195z"/>
		</g>
		<g>
			<path d="M12.815,10.106c-0.195,0-0.382-0.116-0.462-0.308c-0.105-0.255,0.015-0.548,0.27-0.654l3.735-1.556
				c0.253-0.105,0.548,0.014,0.654,0.269c0.105,0.255-0.015,0.548-0.27,0.654l-3.735,1.556
				C12.945,10.094,12.88,10.106,12.815,10.106z"/>
		</g>
		<g>
			<path d="M15,6c-1.654,0-3-1.346-3-3s1.346-3,3-3s3,1.346,3,3S16.654,6,15,6z M15,1c-1.103,0-2,0.897-2,2s0.897,2,2,2s2-0.897,2-2
				S16.103,1,15,1z"/>
		</g>
	</g>
</g>
<g id="Birthay_Hat_2">
</g>
<g id="Birthday_Hat3">
</g>
<g id="Birthday_Decoration_1">
</g>
<g id="Birthday_Decoration_2">
</g>
<g id="Birthday_Decoration_3">
</g>
<g id="Horn_1">
</g>
<g id="Horn_2">
</g>
<g id="Baloon">
</g>
<g id="Balloons_1">
</g>
<g id="Balloons_2">
</g>
<g id="Birthday_Picture">
</g>
<g id="Kid_x27_s_Champagne">
</g>
<g id="Candy">
</g>
<g id="Birthday_Card">
</g>
<g id="Flowers">
</g>
<g id="Birthday_Song">
</g>
<g id="Candle">
</g>
<g id="Sweet_16">
</g>
<g id="Clown">
</g>
<g id="Clown_2">
</g>
<g id="Birthday_Party">
</g>
<g id="Giving_Gift">
</g>
<g id="Present_5">
</g>
<g id="Champagne_in_ice_bucket">
</g>
<g id="Beer">
</g>
<g id="Truffles">
</g>
<g id="Pinata">
</g>
</svg>
