<?xml version="1.0" encoding="iso-8859-1"?>
<!-- Generator: Adobe Illustrator 19.2.1, SVG Export Plug-In . SVG Version: 6.00 Build 0)  -->
<svg version="1.1" xmlns="http://www.w3.org/2000/svg" xmlns:xlink="http://www.w3.org/1999/xlink" x="0px" y="0px"
	 viewBox="0 0 30 30" style="enable-background:new 0 0 30 30;" xml:space="preserve">
<g id="Present_1">
</g>
<g id="Present_2">
</g>
<g id="Present_3">
</g>
<g id="Present_Cake">
</g>
<g id="Present_4">
</g>
<g id="Birthday_Cake_1">
</g>
<g id="Birthday_Cake_2">
</g>
<g id="Cake_Piece">
</g>
<g id="Cupcake">
</g>
<g id="Lollipop">
</g>
<g id="Birthday_Greetings_1">
</g>
<g id="Party_Greetings_2">
</g>
<g id="Birthday_Invitation">
	<g>
		<g>
			<path d="M2,29.5c-0.152,0-0.302-0.069-0.4-0.2c-0.166-0.221-0.121-0.534,0.1-0.7l12-9c1.007-0.768,2.591-0.768,3.603,0.002
				l11.014,9.011c0.214,0.175,0.246,0.49,0.071,0.704c-0.175,0.214-0.49,0.245-0.704,0.071l-11-9
				c-0.647-0.492-1.72-0.491-2.381,0.011L2.3,29.4C2.21,29.467,2.105,29.5,2,29.5z"/>
		</g>
		<g>
			<path d="M17.5,20.5c-0.15,0-0.298-0.067-0.396-0.194c-0.169-0.218-0.129-0.532,0.09-0.701l11-8.5
				c0.219-0.17,0.533-0.128,0.701,0.09c0.169,0.218,0.129,0.532-0.09,0.701l-11,8.5C17.715,20.466,17.607,20.5,17.5,20.5z"/>
		</g>
		<g>
			<path d="M13.5,20.5c-0.1,0-0.201-0.03-0.289-0.092l-12-8.5c-0.225-0.16-0.279-0.472-0.119-0.697s0.472-0.278,0.697-0.119l12,8.5
				c0.225,0.16,0.279,0.472,0.119,0.697C13.811,20.427,13.656,20.5,13.5,20.5z"/>
		</g>
		<g>
			<path d="M27.5,30h-25C1.547,30,1,29.453,1,28.5v-17c0-0.471,0.188-1.141,0.602-1.502L3.17,8.624
				C3.378,8.442,3.694,8.462,3.876,8.67C4.058,8.878,4.037,9.194,3.83,9.376l-1.57,1.375C2.126,10.868,2,11.231,2,11.5v17
				C2,28.897,2.103,29,2.5,29h25c0.397,0,0.5-0.103,0.5-0.5v-17c0-0.269-0.126-0.632-0.259-0.748L26.17,9.376
				c-0.208-0.182-0.229-0.498-0.046-0.706c0.182-0.208,0.498-0.228,0.706-0.046l1.57,1.375C28.812,10.359,29,11.029,29,11.5v17
				C29,29.453,28.453,30,27.5,30z"/>
		</g>
		<g>
			<path d="M26.5,13.5c-0.276,0-0.5-0.224-0.5-0.5V1H4v11.5C4,12.776,3.776,13,3.5,13S3,12.776,3,12.5v-12C3,0.224,3.224,0,3.5,0h23
				C26.776,0,27,0.224,27,0.5V13C27,13.276,26.776,13.5,26.5,13.5z"/>
		</g>
		<g>
			<path d="M19.422,15.008c-0.609,0-1.34-0.188-2.132-0.554c-1.735-0.803-2.701-2.162-2.245-3.161
				c0.029-0.063,0.07-0.118,0.121-0.164l5-4.5c0.148-0.132,0.359-0.165,0.538-0.085C20.884,6.624,21,6.803,21,7v7
				c0,0.072-0.015,0.142-0.045,0.208c-0.142,0.31-0.403,0.543-0.758,0.674C19.97,14.966,19.709,15.008,19.422,15.008z
				 M15.936,11.781c-0.041,0.351,0.47,1.162,1.774,1.766c1.055,0.487,1.797,0.523,2.14,0.398c0.075-0.028,0.122-0.06,0.15-0.088
				V8.123L15.936,11.781z"/>
		</g>
		<g>
			<path d="M15.5,7c-0.175,0-0.345-0.092-0.437-0.256c-0.01-0.016-0.246-0.409-0.852-0.835c-0.791-0.557-1.113-1.103-1.147-1.163
				c-0.136-0.24-0.051-0.545,0.189-0.681c0.24-0.136,0.546-0.052,0.681,0.189c0,0,0.246,0.41,0.853,0.837
				c0.807,0.567,1.118,1.108,1.151,1.168c0.133,0.242,0.044,0.546-0.198,0.679C15.664,6.98,15.582,7,15.5,7z"/>
		</g>
		<g>
			<path d="M12.5,10c-0.102,0-0.204-0.031-0.292-0.095C12.187,9.891,11.623,9.5,11,9.5c-1.123,0-1.806-0.603-1.834-0.628
				C8.96,8.687,8.943,8.371,9.128,8.166c0.186-0.205,0.501-0.22,0.707-0.038C9.848,8.14,10.275,8.5,11,8.5
				c0.962,0,1.76,0.571,1.793,0.595c0.224,0.162,0.273,0.475,0.111,0.698C12.807,9.928,12.654,10,12.5,10z"/>
		</g>
		<g>
			<path d="M10.308,14.113c-0.49,0-0.889-0.115-0.954-0.135c-0.264-0.081-0.412-0.358-0.332-0.623
				c0.08-0.264,0.361-0.41,0.623-0.334c0.188,0.056,0.764,0.167,1.179,0.011c0.763-0.286,1.704-0.043,1.809-0.015
				c0.266,0.073,0.422,0.347,0.35,0.613s-0.345,0.426-0.613,0.352c-0.2-0.053-0.804-0.16-1.193-0.015
				C10.886,14.077,10.583,14.113,10.308,14.113z"/>
		</g>
		<g>
			<path d="M21,7c-0.827,0-1.5-0.673-1.5-1.5S20.173,4,21,4s1.5,0.673,1.5,1.5S21.827,7,21,7z M21,5c-0.276,0-0.5,0.224-0.5,0.5
				S20.724,6,21,6s0.5-0.224,0.5-0.5S21.276,5,21,5z"/>
		</g>
	</g>
</g>
<g id="Birthday_1">
</g>
<g id="Birthday_2">
</g>
<g id="Birthday_Message_1">
</g>
<g id="Birthday_Message_2">
</g>
<g id="Birthyday_Hat_1">
</g>
<g id="Birthay_Hat_2">
</g>
<g id="Birthday_Hat3">
</g>
<g id="Birthday_Decoration_1">
</g>
<g id="Birthday_Decoration_2">
</g>
<g id="Birthday_Decoration_3">
</g>
<g id="Horn_1">
</g>
<g id="Horn_2">
</g>
<g id="Baloon">
</g>
<g id="Balloons_1">
</g>
<g id="Balloons_2">
</g>
<g id="Birthday_Picture">
</g>
<g id="Kid_x27_s_Champagne">
</g>
<g id="Candy">
</g>
<g id="Birthday_Card">
</g>
<g id="Flowers">
</g>
<g id="Birthday_Song">
</g>
<g id="Candle">
</g>
<g id="Sweet_16">
</g>
<g id="Clown">
</g>
<g id="Clown_2">
</g>
<g id="Birthday_Party">
</g>
<g id="Giving_Gift">
</g>
<g id="Present_5">
</g>
<g id="Champagne_in_ice_bucket">
</g>
<g id="Beer">
</g>
<g id="Truffles">
</g>
<g id="Pinata">
</g>
</svg>
