<?xml version="1.0" encoding="iso-8859-1"?>
<!-- Generator: Adobe Illustrator 19.2.1, SVG Export Plug-In . SVG Version: 6.00 Build 0)  -->
<svg version="1.1" xmlns="http://www.w3.org/2000/svg" xmlns:xlink="http://www.w3.org/1999/xlink" x="0px" y="0px"
	 viewBox="0 0 30 30" style="enable-background:new 0 0 30 30;" xml:space="preserve">
<g id="Present_1">
</g>
<g id="Present_2">
</g>
<g id="Present_3">
</g>
<g id="Present_Cake">
</g>
<g id="Present_4">
</g>
<g id="Birthday_Cake_1">
</g>
<g id="Birthday_Cake_2">
</g>
<g id="Cake_Piece">
</g>
<g id="Cupcake">
</g>
<g id="Lollipop">
</g>
<g id="Birthday_Greetings_1">
</g>
<g id="Party_Greetings_2">
</g>
<g id="Birthday_Invitation">
</g>
<g id="Birthday_1">
</g>
<g id="Birthday_2">
</g>
<g id="Birthday_Message_1">
</g>
<g id="Birthday_Message_2">
</g>
<g id="Birthyday_Hat_1">
</g>
<g id="Birthay_Hat_2">
</g>
<g id="Birthday_Hat3">
</g>
<g id="Birthday_Decoration_1">
</g>
<g id="Birthday_Decoration_2">
</g>
<g id="Birthday_Decoration_3">
</g>
<g id="Horn_1">
</g>
<g id="Horn_2">
</g>
<g id="Baloon">
</g>
<g id="Balloons_1">
</g>
<g id="Balloons_2">
</g>
<g id="Birthday_Picture">
</g>
<g id="Kid_x27_s_Champagne">
</g>
<g id="Candy">
</g>
<g id="Birthday_Card">
	<g>
		<path d="M29.5,6h-17C12.224,6,12,6.224,12,6.5v23c0,0.276,0.224,0.5,0.5,0.5h17c0.276,0,0.5-0.224,0.5-0.5v-23
			C30,6.224,29.776,6,29.5,6z M20.589,11.966c0.186-0.271,0.637-0.271,0.822,0C21.68,12.354,22,12.893,22,13.25c0,0.551-0.448,1-1,1
			s-1-0.449-1-1C20,12.893,20.32,12.354,20.589,11.966z M27,20c0,0.888-0.387,1.615-1,2.021v1.104C26,24.047,25.393,25,24.375,25
			h-6.25C17.188,25,16,24.117,16,23.125V22c0-0.031,0.012-0.058,0.018-0.088C15.408,21.476,15,20.776,15,20v-0.625
			C15,18.962,15.183,18,16.875,18H20v-2.5c0-0.276,0.224-0.5,0.5-0.5h1c0.276,0,0.5,0.224,0.5,0.5V18h3.625
			C26.589,18,27,18.411,27,19.375V20z"/>
		<path d="M25.625,19H21.5h-1h-3.625C16.294,19,16,19.126,16,19.375V20c0,0.745,0.653,1.375,1.426,1.375s1.426-0.63,1.426-1.375
			c0-0.276,0.224-0.5,0.5-0.5s0.5,0.224,0.5,0.5c0,0.771,0.594,1.375,1.352,1.375c0.745,0,1.328-0.604,1.328-1.375
			c0-0.276,0.224-0.5,0.5-0.5s0.5,0.224,0.5,0.5c0,0.784,0.551,1.375,1.281,1.375c0.82,0,1.188-0.69,1.188-1.375v-0.625
			c0-0.262-0.032-0.338-0.039-0.351C25.96,19.033,25.891,19,25.625,19z"/>
		<path d="M23.026,21.494c-0.424,0.54-1.077,0.881-1.823,0.881c-0.76,0-1.437-0.365-1.866-0.932
			c-0.448,0.563-1.146,0.932-1.911,0.932c-0.145,0-0.287-0.018-0.426-0.044v0.794C17,23.484,17.662,24,18.125,24h6.25
			C24.761,24,25,23.546,25,23.125v-0.769c-0.063,0.005-0.123,0.019-0.188,0.019C24.081,22.375,23.44,22.034,23.026,21.494z"/>
		<path d="M0.237,0.075C0.09,0.166,0,0.327,0,0.5v22.695c0,0.186,0.103,0.356,0.268,0.442L11,29.276V6.5
			c0-0.424,0.178-0.805,0.462-1.078L0.724,0.053C0.568-0.024,0.384-0.016,0.237,0.075z"/>
	</g>
</g>
<g id="Flowers">
</g>
<g id="Birthday_Song">
</g>
<g id="Candle">
</g>
<g id="Sweet_16">
</g>
<g id="Clown">
</g>
<g id="Clown_2">
</g>
<g id="Birthday_Party">
</g>
<g id="Giving_Gift">
</g>
<g id="Present_5">
</g>
<g id="Champagne_in_ice_bucket">
</g>
<g id="Beer">
</g>
<g id="Truffles">
</g>
<g id="Pinata">
</g>
</svg>
