<?xml version="1.0" encoding="iso-8859-1"?>
<!-- Generator: Adobe Illustrator 19.2.1, SVG Export Plug-In . SVG Version: 6.00 Build 0)  -->
<svg version="1.1" xmlns="http://www.w3.org/2000/svg" xmlns:xlink="http://www.w3.org/1999/xlink" x="0px" y="0px"
	 viewBox="0 0 30 30" style="enable-background:new 0 0 30 30;" xml:space="preserve">
<g id="Present_1">
</g>
<g id="Present_2">
</g>
<g id="Present_3">
</g>
<g id="Present_Cake">
</g>
<g id="Present_4">
</g>
<g id="Birthday_Cake_1">
</g>
<g id="Birthday_Cake_2">
</g>
<g id="Cake_Piece">
</g>
<g id="Cupcake">
</g>
<g id="Lollipop">
</g>
<g id="Birthday_Greetings_1">
</g>
<g id="Party_Greetings_2">
</g>
<g id="Birthday_Invitation">
</g>
<g id="Birthday_1">
</g>
<g id="Birthday_2">
</g>
<g id="Birthday_Message_1">
</g>
<g id="Birthday_Message_2">
</g>
<g id="Birthyday_Hat_1">
</g>
<g id="Birthay_Hat_2">
	<g>
		<path d="M12.477,4.041C12.5,4.097,12.516,4.2,12.531,4.3c0.037,0.242,0.087,0.573,0.335,0.821s0.58,0.299,0.821,0.335
			c0.1,0.015,0.203,0.031,0.26,0.054c0.049,0.021,0.132,0.083,0.206,0.137C14.352,5.796,14.624,6,14.987,6s0.636-0.204,0.835-0.352
			c0.073-0.055,0.156-0.117,0.205-0.137c0.057-0.023,0.16-0.039,0.26-0.054c0.242-0.037,0.573-0.087,0.82-0.334
			c0.25-0.249,0.3-0.581,0.337-0.823c0.015-0.1,0.03-0.203,0.054-0.259c0.021-0.049,0.083-0.132,0.138-0.206
			C17.784,3.635,17.987,3.363,17.987,3s-0.203-0.635-0.352-0.834c-0.055-0.073-0.117-0.156-0.138-0.205
			c-0.023-0.056-0.039-0.159-0.054-0.259c-0.037-0.242-0.087-0.574-0.336-0.822C16.86,0.63,16.529,0.58,16.287,0.543
			c-0.1-0.015-0.203-0.031-0.26-0.054c-0.049-0.02-0.132-0.083-0.205-0.137C15.623,0.204,15.351,0,14.987,0
			s-0.635,0.204-0.834,0.352c-0.073,0.055-0.156,0.117-0.206,0.137c-0.056,0.023-0.159,0.039-0.259,0.054
			c-0.242,0.037-0.573,0.087-0.821,0.335c-0.249,0.249-0.299,0.58-0.336,0.822c-0.015,0.1-0.031,0.203-0.054,0.26
			c-0.021,0.049-0.083,0.132-0.137,0.206C12.191,2.365,11.987,2.637,11.987,3s0.204,0.635,0.352,0.834
			C12.394,3.908,12.456,3.991,12.477,4.041z"/>
		<polygon points="17.33,8.267 11.706,10.61 9.731,15.392 18.724,11.646 		"/>
		<polygon points="19.106,12.57 9.191,16.701 6.902,22.245 20.722,16.487 		"/>
		<path d="M24.462,25.55l-1.36-3.297L7.895,28.589C9.622,29.458,12.141,30,15,30c5.327,0,9.5-1.871,9.5-4.26
			C24.5,25.675,24.487,25.61,24.462,25.55z"/>
		<path d="M16.423,6.448C16.155,6.646,15.678,7,14.987,7c-0.693,0-1.172-0.357-1.43-0.549l-0.013-0.009l-0.007,0.003
			c-0.029-0.004-0.071-0.013-0.105-0.018l-1.187,2.875l4.702-1.959l-0.38-0.92c-0.044,0.007-0.095,0.017-0.132,0.023L16.423,6.448z"
			/>
		<path d="M21.104,17.412L6.361,23.555L5.538,25.55C5.513,25.61,5.5,25.675,5.5,25.74c0,0.813,0.493,1.564,1.341,2.204l15.878-6.616
			L21.104,17.412z"/>
	</g>
</g>
<g id="Birthday_Hat3">
</g>
<g id="Birthday_Decoration_1">
</g>
<g id="Birthday_Decoration_2">
</g>
<g id="Birthday_Decoration_3">
</g>
<g id="Horn_1">
</g>
<g id="Horn_2">
</g>
<g id="Baloon">
</g>
<g id="Balloons_1">
</g>
<g id="Balloons_2">
</g>
<g id="Birthday_Picture">
</g>
<g id="Kid_x27_s_Champagne">
</g>
<g id="Candy">
</g>
<g id="Birthday_Card">
</g>
<g id="Flowers">
</g>
<g id="Birthday_Song">
</g>
<g id="Candle">
</g>
<g id="Sweet_16">
</g>
<g id="Clown">
</g>
<g id="Clown_2">
</g>
<g id="Birthday_Party">
</g>
<g id="Giving_Gift">
</g>
<g id="Present_5">
</g>
<g id="Champagne_in_ice_bucket">
</g>
<g id="Beer">
</g>
<g id="Truffles">
</g>
<g id="Pinata">
</g>
</svg>
