<?xml version="1.0" encoding="iso-8859-1"?>
<!-- Generator: Adobe Illustrator 19.2.1, SVG Export Plug-In . SVG Version: 6.00 Build 0)  -->
<svg version="1.1" xmlns="http://www.w3.org/2000/svg" xmlns:xlink="http://www.w3.org/1999/xlink" x="0px" y="0px"
	 viewBox="0 0 30 30" style="enable-background:new 0 0 30 30;" xml:space="preserve">
<g id="Present_1">
</g>
<g id="Present_2">
</g>
<g id="Present_3">
</g>
<g id="Present_Cake">
</g>
<g id="Present_4">
</g>
<g id="Birthday_Cake_1">
	<g>
		<path d="M23.5,13h-18C3.019,13,1,14.794,1,17v2.5c0,1.797,1.483,3.3,3.45,3.497c0.967,0.101,1.813-0.158,2.454-0.739
			c0.286-0.258,0.52-0.572,0.697-0.93C8.355,22.371,9.708,23,11,23c1.352,0,2.77-0.688,3.5-1.819C15.23,22.312,16.648,23,18,23
			c1.292,0,2.645-0.629,3.399-1.672c0.178,0.357,0.411,0.671,0.696,0.93c0.554,0.501,1.261,0.76,2.063,0.76
			c0.128,0,0.259-0.007,0.392-0.021c1.967-0.196,3.45-1.7,3.45-3.497V17C28,14.794,25.981,13,23.5,13z"/>
		<path d="M21.425,22.999c-0.048-0.044-0.096-0.089-0.142-0.135C20.369,23.575,19.182,24,18,24c-1.294,0-2.565-0.492-3.5-1.311
			C13.565,23.508,12.293,24,11,24c-1.182,0-2.369-0.425-3.284-1.136C7.67,22.911,7.623,22.956,7.574,23
			c-0.74,0.671-1.671,1.019-2.716,1.019c-0.167,0-0.338-0.009-0.511-0.026C3.467,23.904,2.67,23.595,2,23.141V27.5
			C2,28.879,3.122,30,4.5,30h20c1.379,0,2.5-1.121,2.5-2.5v-4.359c-0.671,0.455-1.469,0.763-2.351,0.852
			C23.405,24.114,22.273,23.767,21.425,22.999z"/>
		<path d="M14,6c0.972,0,2-1.028,2-2c0-0.757-1.193-3.05-1.559-3.735c-0.174-0.326-0.708-0.326-0.882,0C13.193,0.95,12,3.243,12,4
			C12,4.972,13.028,6,14,6z"/>
		<path d="M16,7c0-0.244-0.065-0.492-0.177-0.725C15.296,6.712,14.655,7,14,7s-1.296-0.288-1.823-0.725C12.065,6.508,12,6.756,12,7
			v5h4V7z"/>
	</g>
</g>
<g id="Birthday_Cake_2">
</g>
<g id="Cake_Piece">
</g>
<g id="Cupcake">
</g>
<g id="Lollipop">
</g>
<g id="Birthday_Greetings_1">
</g>
<g id="Party_Greetings_2">
</g>
<g id="Birthday_Invitation">
</g>
<g id="Birthday_1">
</g>
<g id="Birthday_2">
</g>
<g id="Birthday_Message_1">
</g>
<g id="Birthday_Message_2">
</g>
<g id="Birthyday_Hat_1">
</g>
<g id="Birthay_Hat_2">
</g>
<g id="Birthday_Hat3">
</g>
<g id="Birthday_Decoration_1">
</g>
<g id="Birthday_Decoration_2">
</g>
<g id="Birthday_Decoration_3">
</g>
<g id="Horn_1">
</g>
<g id="Horn_2">
</g>
<g id="Baloon">
</g>
<g id="Balloons_1">
</g>
<g id="Balloons_2">
</g>
<g id="Birthday_Picture">
</g>
<g id="Kid_x27_s_Champagne">
</g>
<g id="Candy">
</g>
<g id="Birthday_Card">
</g>
<g id="Flowers">
</g>
<g id="Birthday_Song">
</g>
<g id="Candle">
</g>
<g id="Sweet_16">
</g>
<g id="Clown">
</g>
<g id="Clown_2">
</g>
<g id="Birthday_Party">
</g>
<g id="Giving_Gift">
</g>
<g id="Present_5">
</g>
<g id="Champagne_in_ice_bucket">
</g>
<g id="Beer">
</g>
<g id="Truffles">
</g>
<g id="Pinata">
</g>
</svg>
