<?xml version="1.0" encoding="iso-8859-1"?>
<!-- Generator: Adobe Illustrator 19.2.1, SVG Export Plug-In . SVG Version: 6.00 Build 0)  -->
<svg version="1.1" xmlns="http://www.w3.org/2000/svg" xmlns:xlink="http://www.w3.org/1999/xlink" x="0px" y="0px"
	 viewBox="0 0 30 30" style="enable-background:new 0 0 30 30;" xml:space="preserve">
<g id="Present_1">
</g>
<g id="Present_2">
</g>
<g id="Present_3">
</g>
<g id="Present_Cake">
</g>
<g id="Present_4">
</g>
<g id="Birthday_Cake_1">
</g>
<g id="Birthday_Cake_2">
</g>
<g id="Cake_Piece">
</g>
<g id="Cupcake">
</g>
<g id="Lollipop">
</g>
<g id="Birthday_Greetings_1">
</g>
<g id="Party_Greetings_2">
</g>
<g id="Birthday_Invitation">
</g>
<g id="Birthday_1">
</g>
<g id="Birthday_2">
</g>
<g id="Birthday_Message_1">
</g>
<g id="Birthday_Message_2">
	<g>
		<g>
			<g>
				<path d="M5.5,28c-0.113,0-0.226-0.039-0.317-0.114c-0.171-0.14-0.229-0.375-0.145-0.579L7.25,22H4c-2.206,0-4-1.794-4-4V5
					c0-2.206,1.794-4,4-4h21c2.206,0,4,1.794,4,4v13c0,2.206-1.794,4-4,4H14.651l-8.874,5.916C5.693,27.972,5.597,28,5.5,28z M4,2
					C2.346,2,1,3.346,1,5v13c0,1.654,1.346,3,3,3h4c0.167,0,0.323,0.083,0.416,0.223s0.109,0.315,0.046,0.47l-1.865,4.476
					l7.626-5.084C14.305,21.029,14.401,21,14.5,21H25c1.654,0,3-1.346,3-3V5c0-1.654-1.346-3-3-3H4z"/>
			</g>
		</g>
		<g>
			<path d="M19.59,19H9.41C8.554,19,8,18.125,8,16.77v-2.65c0-0.276,0.224-0.5,0.5-0.5S9,13.844,9,14.12v2.65
				C9,17.414,9.195,18,9.41,18h10.18c0.215,0,0.41-0.586,0.41-1.23v-2.65c0-0.276,0.224-0.5,0.5-0.5s0.5,0.224,0.5,0.5v2.65
				C21,18.125,20.446,19,19.59,19z"/>
		</g>
		<g>
			<path d="M9.249,14.728c-0.173,0-0.346-0.014-0.518-0.042C7.226,14.441,6,13.032,6,11.545C6,9.891,7.685,9,9.27,9H19.73
				C21.315,9,23,9.891,23,11.542v0.003c0,1.488-1.22,2.896-2.72,3.141c-0.916,0.147-1.854-0.112-2.565-0.718
				c-0.223-0.188-0.414-0.404-0.571-0.638c-0.551,0.84-1.51,1.397-2.598,1.397s-2.045-0.564-2.59-1.414
				c-0.155,0.224-0.342,0.431-0.559,0.615C10.786,14.448,10.024,14.728,9.249,14.728z M12.478,11.682
				c0,1.128,0.928,2.045,2.068,2.045c1.134,0,2.091-0.937,2.091-2.045c0-0.276,0.224-0.5,0.5-0.5s0.5,0.224,0.5,0.5
				c0,0.577,0.265,1.132,0.726,1.524c0.488,0.416,1.127,0.597,1.758,0.493c1.019-0.166,1.88-1.152,1.88-2.153v-0.003
				C22,10.479,20.673,10,19.73,10H9.27C8.327,10,7,10.479,7,11.542c0,1.004,0.866,1.99,1.892,2.157
				c0.652,0.108,1.344-0.094,1.858-0.532c0.462-0.393,0.728-0.935,0.728-1.485c0-0.276,0.224-0.5,0.5-0.5
				S12.478,11.405,12.478,11.682z"/>
		</g>
		<g>
			<path d="M14.5,9.5C14.224,9.5,14,9.276,14,9V6.5C14,6.224,14.224,6,14.5,6S15,6.224,15,6.5V9C15,9.276,14.776,9.5,14.5,9.5z"/>
		</g>
		<g>
			<path d="M14.5,7C13.673,7,13,6.327,13,5.5c0-0.639,0.762-1.81,1.089-2.284c0.186-0.271,0.637-0.271,0.822,0
				C15.238,3.69,16,4.861,16,5.5C16,6.327,15.327,7,14.5,7z M14.5,4.427C14.212,4.912,14.004,5.348,14,5.5C14,5.776,14.225,6,14.5,6
				S15,5.776,15,5.5C14.995,5.347,14.788,4.911,14.5,4.427z"/>
		</g>
	</g>
</g>
<g id="Birthyday_Hat_1">
</g>
<g id="Birthay_Hat_2">
</g>
<g id="Birthday_Hat3">
</g>
<g id="Birthday_Decoration_1">
</g>
<g id="Birthday_Decoration_2">
</g>
<g id="Birthday_Decoration_3">
</g>
<g id="Horn_1">
</g>
<g id="Horn_2">
</g>
<g id="Baloon">
</g>
<g id="Balloons_1">
</g>
<g id="Balloons_2">
</g>
<g id="Birthday_Picture">
</g>
<g id="Kid_x27_s_Champagne">
</g>
<g id="Candy">
</g>
<g id="Birthday_Card">
</g>
<g id="Flowers">
</g>
<g id="Birthday_Song">
</g>
<g id="Candle">
</g>
<g id="Sweet_16">
</g>
<g id="Clown">
</g>
<g id="Clown_2">
</g>
<g id="Birthday_Party">
</g>
<g id="Giving_Gift">
</g>
<g id="Present_5">
</g>
<g id="Champagne_in_ice_bucket">
</g>
<g id="Beer">
</g>
<g id="Truffles">
</g>
<g id="Pinata">
</g>
</svg>
