<?xml version="1.0" encoding="iso-8859-1"?>
<!-- Generator: Adobe Illustrator 19.2.1, SVG Export Plug-In . SVG Version: 6.00 Build 0)  -->
<svg version="1.1" xmlns="http://www.w3.org/2000/svg" xmlns:xlink="http://www.w3.org/1999/xlink" x="0px" y="0px"
	 viewBox="0 0 30 30" style="enable-background:new 0 0 30 30;" xml:space="preserve">
<g id="Present_1">
</g>
<g id="Present_2">
</g>
<g id="Present_3">
</g>
<g id="Present_Cake">
</g>
<g id="Present_4">
</g>
<g id="Birthday_Cake_1">
</g>
<g id="Birthday_Cake_2">
	<g>
		<path d="M10.452,15.337c0.761,0.336,1.67,0.336,2.43,0c1.014-0.446,2.223-0.446,3.237,0c0.762,0.336,1.67,0.336,2.43,0
			c1.014-0.446,2.223-0.447,3.237,0C22.127,15.488,22.521,15.5,23,15.5v-1c0-1.93-1.57-3.5-3.5-3.5h-10C7.57,11,6,12.57,6,14.5v1
			c0.48,0,0.875-0.012,1.215-0.163C8.229,14.891,9.438,14.891,10.452,15.337z"/>
		<path d="M23,16.5c-0.578,0-1.099-0.019-1.617-0.248c-0.794-0.351-1.698-0.305-2.499,0.029c-0.998,0.417-2.177,0.409-3.168-0.03
			c-0.777-0.343-1.667-0.33-2.446,0.008c-0.502,0.218-1.052,0.328-1.602,0.328c-0.536,0-1.072-0.104-1.564-0.312
			c-0.795-0.336-1.696-0.372-2.485-0.023C7.1,16.481,6.579,16.5,6,16.5V18h17V16.5z"/>
		<path d="M21.5,19h-14C5.57,19,4,20.57,4,22.5v1.447c0.231-0.041,0.458-0.102,0.668-0.197c0.99-0.452,2.173-0.45,3.164,0
			c0.73,0.332,1.604,0.333,2.336,0c0.99-0.45,2.173-0.452,3.164,0c0.73,0.332,1.605,0.333,2.336,0c0.993-0.451,2.174-0.451,3.164,0
			c0.733,0.333,1.606,0.332,2.336,0c0.989-0.451,2.174-0.451,3.165,0c0.21,0.095,0.436,0.156,0.667,0.197V22.5
			C25,20.57,23.43,19,21.5,19z"/>
		<path d="M21.582,24.66c-0.989,0.451-2.171,0.451-3.164,0c-0.729-0.331-1.603-0.333-2.336,0c-0.991,0.451-2.174,0.451-3.164,0
			c-0.733-0.332-1.605-0.332-2.336,0c-0.992,0.451-2.174,0.451-3.164,0c-0.732-0.332-1.606-0.332-2.336,0
			C4.743,24.814,4.374,24.898,4,24.947V29.5C4,29.776,4.224,30,4.5,30h20c0.276,0,0.5-0.224,0.5-0.5v-4.553
			c-0.374-0.049-0.742-0.133-1.081-0.287C23.187,24.327,22.312,24.329,21.582,24.66z"/>
		<path d="M14.5,6C15.485,6,16,4.994,16,4c0-0.739-0.857-3.185-1.029-3.667c-0.143-0.398-0.8-0.398-0.942,0
			C13.857,0.815,13,3.261,13,4C13,4.994,13.515,6,14.5,6z"/>
		<path d="M16,6.5c0-0.025-0.006-0.048-0.007-0.072C15.581,6.786,15.071,7,14.5,7s-1.081-0.214-1.493-0.572
			C13.006,6.452,13,6.475,13,6.5V10h3V6.5z"/>
	</g>
</g>
<g id="Cake_Piece">
</g>
<g id="Cupcake">
</g>
<g id="Lollipop">
</g>
<g id="Birthday_Greetings_1">
</g>
<g id="Party_Greetings_2">
</g>
<g id="Birthday_Invitation">
</g>
<g id="Birthday_1">
</g>
<g id="Birthday_2">
</g>
<g id="Birthday_Message_1">
</g>
<g id="Birthday_Message_2">
</g>
<g id="Birthyday_Hat_1">
</g>
<g id="Birthay_Hat_2">
</g>
<g id="Birthday_Hat3">
</g>
<g id="Birthday_Decoration_1">
</g>
<g id="Birthday_Decoration_2">
</g>
<g id="Birthday_Decoration_3">
</g>
<g id="Horn_1">
</g>
<g id="Horn_2">
</g>
<g id="Baloon">
</g>
<g id="Balloons_1">
</g>
<g id="Balloons_2">
</g>
<g id="Birthday_Picture">
</g>
<g id="Kid_x27_s_Champagne">
</g>
<g id="Candy">
</g>
<g id="Birthday_Card">
</g>
<g id="Flowers">
</g>
<g id="Birthday_Song">
</g>
<g id="Candle">
</g>
<g id="Sweet_16">
</g>
<g id="Clown">
</g>
<g id="Clown_2">
</g>
<g id="Birthday_Party">
</g>
<g id="Giving_Gift">
</g>
<g id="Present_5">
</g>
<g id="Champagne_in_ice_bucket">
</g>
<g id="Beer">
</g>
<g id="Truffles">
</g>
<g id="Pinata">
</g>
</svg>
