<?xml version="1.0" encoding="iso-8859-1"?>
<!-- Generator: Adobe Illustrator 19.2.1, SVG Export Plug-In . SVG Version: 6.00 Build 0)  -->
<svg version="1.1" xmlns="http://www.w3.org/2000/svg" xmlns:xlink="http://www.w3.org/1999/xlink" x="0px" y="0px"
	 viewBox="0 0 30 30" style="enable-background:new 0 0 30 30;" xml:space="preserve">
<g id="Present_1">
</g>
<g id="Present_2">
</g>
<g id="Present_3">
</g>
<g id="Present_Cake">
</g>
<g id="Present_4">
</g>
<g id="Birthday_Cake_1">
</g>
<g id="Birthday_Cake_2">
</g>
<g id="Cake_Piece">
</g>
<g id="Cupcake">
</g>
<g id="Lollipop">
</g>
<g id="Birthday_Greetings_1">
</g>
<g id="Party_Greetings_2">
</g>
<g id="Birthday_Invitation">
</g>
<g id="Birthday_1">
</g>
<g id="Birthday_2">
</g>
<g id="Birthday_Message_1">
</g>
<g id="Birthday_Message_2">
</g>
<g id="Birthyday_Hat_1">
</g>
<g id="Birthay_Hat_2">
</g>
<g id="Birthday_Hat3">
</g>
<g id="Birthday_Decoration_1">
</g>
<g id="Birthday_Decoration_2">
	<g>
		<path d="M1,2.436v7.644c0,0.202,0.122,0.385,0.309,0.462C1.371,10.568,1.436,10.58,1.5,10.58c0.13,0,0.258-0.051,0.354-0.147
			l5.2-5.21c0.923,0.318,1.949,0.628,3.062,0.919l1.237,8.042c0.032,0.206,0.188,0.37,0.392,0.413
			c0.034,0.007,0.068,0.011,0.103,0.011c0.168,0,0.329-0.085,0.422-0.231l4.413-6.935c0.012-0.019,0.014-0.04,0.023-0.06
			c1.063,0.128,2.055,0.208,3.004,0.264l3.031,6.67c0.081,0.178,0.259,0.293,0.455,0.293s0.374-0.115,0.455-0.293l3.093-6.805
			c1.776-0.198,2.786-0.458,2.884-0.484c0.268-0.071,0.426-0.345,0.355-0.612c-0.071-0.266-0.343-0.425-0.611-0.355
			c-0.059,0.016-5.851,1.507-14.92-0.01C5.421,4.54,0.848,1.136,0.802,1.102c-0.22-0.167-0.533-0.124-0.7,0.096
			c-0.167,0.22-0.125,0.533,0.095,0.7C0.24,1.93,0.515,2.133,1,2.436z"/>
		<path d="M29.765,20.761l-1.563-3.727c1.003-0.565,1.539-0.962,1.601-1.01c0.22-0.167,0.262-0.48,0.096-0.7
			c-0.166-0.218-0.479-0.264-0.701-0.096c-0.045,0.034-4.618,3.438-13.649,4.948C6.496,21.69,0.686,20.2,0.628,20.186
			c-0.266-0.072-0.54,0.089-0.611,0.355c-0.07,0.267,0.088,0.54,0.355,0.611C0.483,21.182,1.76,21.511,4,21.711v4.269
			C4,27.646,5.346,29,7,29s3-1.354,3-3.02v-4.192c1.124-0.06,2.32-0.158,3.609-0.321l0.939,4.831
			c0.28,1.441,1.548,2.445,2.965,2.445c0.19,0,0.384-0.019,0.578-0.056c0.792-0.154,1.477-0.607,1.929-1.277
			c0.451-0.669,0.614-1.474,0.461-2.267l-0.932-4.79c1.132-0.287,2.169-0.594,3.11-0.911l1.532,3.654
			c0.312,0.744,0.895,1.322,1.642,1.628c0.369,0.151,0.757,0.228,1.145,0.228c0.396,0,0.792-0.079,1.168-0.237
			c0.744-0.312,1.323-0.895,1.629-1.642S30.077,21.506,29.765,20.761z"/>
	</g>
</g>
<g id="Birthday_Decoration_3">
</g>
<g id="Horn_1">
</g>
<g id="Horn_2">
</g>
<g id="Baloon">
</g>
<g id="Balloons_1">
</g>
<g id="Balloons_2">
</g>
<g id="Birthday_Picture">
</g>
<g id="Kid_x27_s_Champagne">
</g>
<g id="Candy">
</g>
<g id="Birthday_Card">
</g>
<g id="Flowers">
</g>
<g id="Birthday_Song">
</g>
<g id="Candle">
</g>
<g id="Sweet_16">
</g>
<g id="Clown">
</g>
<g id="Clown_2">
</g>
<g id="Birthday_Party">
</g>
<g id="Giving_Gift">
</g>
<g id="Present_5">
</g>
<g id="Champagne_in_ice_bucket">
</g>
<g id="Beer">
</g>
<g id="Truffles">
</g>
<g id="Pinata">
</g>
</svg>
