<?xml version="1.0" encoding="iso-8859-1"?>
<!-- Generator: Adobe Illustrator 19.2.1, SVG Export Plug-In . SVG Version: 6.00 Build 0)  -->
<svg version="1.1" xmlns="http://www.w3.org/2000/svg" xmlns:xlink="http://www.w3.org/1999/xlink" x="0px" y="0px"
	 viewBox="0 0 30 30" style="enable-background:new 0 0 30 30;" xml:space="preserve">
<g id="Present_1">
</g>
<g id="Present_2">
</g>
<g id="Present_3">
</g>
<g id="Present_Cake">
</g>
<g id="Present_4">
</g>
<g id="Birthday_Cake_1">
</g>
<g id="Birthday_Cake_2">
</g>
<g id="Cake_Piece">
</g>
<g id="Cupcake">
</g>
<g id="Lollipop">
</g>
<g id="Birthday_Greetings_1">
	<g>
		<path d="M28.398,9.999L28,9.65v2.62c0,0.155-0.071,0.301-0.194,0.396l-9.767,7.55l10.808,9.006C28.938,29.015,29,28.781,29,28.5
			v-17C29,11.029,28.812,10.358,28.398,9.999z"/>
		<path d="M14.303,20.398L1.936,29.911C2.106,29.963,2.289,30,2.5,30h25c0.226,0,0.426-0.036,0.605-0.095L16.68,20.384
			C16.036,19.896,14.963,19.896,14.303,20.398z"/>
		<path d="M2.211,12.618C2.079,12.524,2,12.372,2,12.21V9.649L1.602,9.998C1.188,10.359,1,11.029,1,11.5v17
			c0,0.292,0.067,0.53,0.166,0.742l11.753-9.041L2.211,12.618z"/>
		<path d="M16,6.75C16,6.336,15.664,6,15.25,6H14v1.5h1.25C15.664,7.5,16,7.164,16,6.75z"/>
		<path d="M16,9.25c0-0.414-0.336-0.75-0.75-0.75H14V10h1.25C15.664,10,16,9.664,16,9.25z"/>
		<path d="M17.245,19.565L27,12.024V0.5C27,0.224,26.776,0,26.5,0h-23C3.224,0,3,0.224,3,0.5v11.451l10.754,7.616
			C14.75,18.852,16.25,18.852,17.245,19.565z M18,5.5C18,5.224,18.224,5,18.5,5H19c1.654,0,3,1.346,3,3s-1.346,3-3,3h-0.5
			c-0.276,0-0.5-0.224-0.5-0.5V5.5z M12,10.5c0,0.276-0.224,0.5-0.5,0.5S11,10.776,11,10.5v-2H9v2C9,10.776,8.776,11,8.5,11
			S8,10.776,8,10.5v-5C8,5.224,8.224,5,8.5,5S9,5.224,9,5.5v2h2v-2C11,5.224,11.224,5,11.5,5S12,5.224,12,5.5V10.5z M13,10.5v-5
			C13,5.224,13.224,5,13.5,5h1.75C16.215,5,17,5.785,17,6.75c0,0.489-0.202,0.932-0.526,1.25C16.798,8.318,17,8.761,17,9.25
			c0,0.965-0.785,1.75-1.75,1.75H13.5C13.224,11,13,10.776,13,10.5z"/>
		<path d="M21,8c0-1.103-0.897-2-2-2v4C20.103,10,21,9.103,21,8z"/>
	</g>
</g>
<g id="Party_Greetings_2">
</g>
<g id="Birthday_Invitation">
</g>
<g id="Birthday_1">
</g>
<g id="Birthday_2">
</g>
<g id="Birthday_Message_1">
</g>
<g id="Birthday_Message_2">
</g>
<g id="Birthyday_Hat_1">
</g>
<g id="Birthay_Hat_2">
</g>
<g id="Birthday_Hat3">
</g>
<g id="Birthday_Decoration_1">
</g>
<g id="Birthday_Decoration_2">
</g>
<g id="Birthday_Decoration_3">
</g>
<g id="Horn_1">
</g>
<g id="Horn_2">
</g>
<g id="Baloon">
</g>
<g id="Balloons_1">
</g>
<g id="Balloons_2">
</g>
<g id="Birthday_Picture">
</g>
<g id="Kid_x27_s_Champagne">
</g>
<g id="Candy">
</g>
<g id="Birthday_Card">
</g>
<g id="Flowers">
</g>
<g id="Birthday_Song">
</g>
<g id="Candle">
</g>
<g id="Sweet_16">
</g>
<g id="Clown">
</g>
<g id="Clown_2">
</g>
<g id="Birthday_Party">
</g>
<g id="Giving_Gift">
</g>
<g id="Present_5">
</g>
<g id="Champagne_in_ice_bucket">
</g>
<g id="Beer">
</g>
<g id="Truffles">
</g>
<g id="Pinata">
</g>
</svg>
