<?xml version="1.0" encoding="iso-8859-1"?>
<!-- Generator: Adobe Illustrator 19.2.1, SVG Export Plug-In . SVG Version: 6.00 Build 0)  -->
<svg version="1.1" xmlns="http://www.w3.org/2000/svg" xmlns:xlink="http://www.w3.org/1999/xlink" x="0px" y="0px"
	 viewBox="0 0 24 24" style="enable-background:new 0 0 24 24;" xml:space="preserve">
<g id="Present_1">
</g>
<g id="Present_2">
</g>
<g id="Present_3">
</g>
<g id="Present_Cake">
</g>
<g id="Present_4">
</g>
<g id="Birthday_Cake_1">
</g>
<g id="Birthday_Cake_2">
</g>
<g id="Cake_Piece">
</g>
<g id="Cupcake">
</g>
<g id="Lollipop">
</g>
<g id="Birthday_Greetings_1">
</g>
<g id="Party_Greetings_2">
</g>
<g id="Birthday_Invitation">
	<g>
		<path d="M11.987,9.57c-0.005,0.224,0.363,0.678,1.286,1.105c0.736,0.34,1.308,0.348,1.596,0.241
			c0.054-0.02,0.099-0.044,0.131-0.07V6.833V6.674l-0.165,0.159l0,0L11.987,9.57z"/>
		<path d="M23.46,7.816L23,7.432V9.5c0,0.162-0.079,0.314-0.21,0.408L22,10.468l0,0l-7.81,5.541l9.607,7.088
			c0.02,0.015,0.031,0.036,0.048,0.053C23.941,22.953,24,22.734,24,22.5V8.968C24,8.522,23.803,8.102,23.46,7.816z"/>
		<path d="M2,10.468L2,10.468l-0.79-0.56C1.079,9.814,1,9.662,1,9.5V7.433L0.54,7.816C0.197,8.102,0,8.522,0,8.968V22.5
			c0,0.234,0.059,0.453,0.155,0.651c0.017-0.017,0.028-0.039,0.048-0.053l9.607-7.089L2,10.468z"/>
		<path d="M11.118,16.287l-2.313,1.707l0,0l-7.941,5.86C1.057,23.945,1.272,24,1.5,24h21c0.228,0,0.443-0.055,0.636-0.147
			l-10.257-7.568C12.354,15.903,11.645,15.904,11.118,16.287z"/>
		<path d="M16,4.75c0-0.138-0.112-0.25-0.25-0.25S15.5,4.612,15.5,4.75C15.5,5.025,16,5.025,16,4.75z"/>
		<path d="M13.331,15.393L22,9.242V6.599V5.5v-5C22,0.224,21.776,0,21.5,0h-19C2.224,0,2,0.224,2,0.5v5v1.099v2.643l8.669,6.151
			C11.487,14.877,12.515,14.877,13.331,15.393z M15.75,3.5C16.439,3.5,17,4.061,17,4.75c0,0.601-0.434,1.08-1,1.199v0.884V11
			c0,0.072-0.015,0.142-0.045,0.208c-0.134,0.293-0.389,0.517-0.738,0.646c-0.223,0.083-0.476,0.124-0.749,0.124
			c-0.494,0-1.052-0.134-1.615-0.395c-1.764-0.816-2.067-1.821-1.763-2.489c0.026-0.058,0.063-0.109,0.108-0.153l2.193-2.108l0,0
			l1.386-1.332C14.614,5.29,14.5,5.037,14.5,4.75C14.5,4.061,15.061,3.5,15.75,3.5z M10.565,3.004
			c0.274,0.036,0.467,0.287,0.431,0.561c-0.001,0.021-0.015,0.31,0.292,0.526c0.664,0.467,0.757,1.152,0.707,1.484
			C11.957,5.822,11.744,6,11.5,6c-0.025,0-0.05-0.002-0.075-0.005c-0.27-0.041-0.456-0.29-0.421-0.559
			c0.003-0.039,0.015-0.312-0.292-0.527c-0.651-0.458-0.751-1.142-0.708-1.474C10.04,3.162,10.29,2.965,10.565,3.004z M9.466,10.68
			c-0.099,0.257-0.386,0.383-0.642,0.289c-0.013-0.005-0.341-0.116-0.648,0c-0.243,0.091-0.474,0.123-0.674,0.123
			c-0.384,0-0.659-0.113-0.703-0.132c-0.253-0.111-0.368-0.405-0.257-0.659c0.111-0.253,0.404-0.37,0.659-0.257
			c0.006,0.001,0.291,0.115,0.624-0.01c0.666-0.25,1.288-0.025,1.355,0.002C9.437,10.133,9.566,10.422,9.466,10.68z M9.787,7.909
			C9.7,7.971,9.6,8,9.5,8C9.345,8,9.192,7.928,9.095,7.792C9.08,7.773,8.866,7.5,8.5,7.5c-0.2,0-0.376-0.031-0.534-0.077
			C7.909,7.406,7.864,7.381,7.812,7.359C7.724,7.324,7.637,7.288,7.565,7.243C7.499,7.202,7.442,7.157,7.389,7.111
			C7.357,7.084,7.323,7.057,7.294,7.03C7.229,6.963,7.171,6.896,7.129,6.833l0,0C7.104,6.795,7.068,6.754,7.051,6.72
			C6.93,6.472,7.032,6.172,7.28,6.051C7.528,5.928,7.828,6.032,7.949,6.28C7.955,6.289,8.092,6.5,8.5,6.5
			c0.418,0,0.752,0.154,1.005,0.333c0.182,0.129,0.327,0.269,0.404,0.379C10.068,7.438,10.013,7.75,9.787,7.909z"/>
	</g>
</g>
<g id="Birthday_1">
</g>
<g id="Birthday_2">
</g>
<g id="Birthday_Message_1">
</g>
<g id="Birthday_Message_2">
</g>
<g id="Birthyday_Hat_1">
</g>
<g id="Birthay_Hat_2">
</g>
<g id="Birthday_Hat3">
</g>
<g id="Birthday_Decoration_1">
</g>
<g id="Birthday_Decoration_2">
</g>
<g id="Birthday_Decoration_3">
</g>
<g id="Horn_1">
</g>
<g id="Horn_2">
</g>
<g id="Baloon">
</g>
<g id="Balloons_1">
</g>
<g id="Balloons_2">
</g>
<g id="Birthday_Picture">
</g>
<g id="Kid_x27_s_Champagne">
</g>
<g id="Candy">
</g>
<g id="Birthday_Card">
</g>
<g id="Flowers">
</g>
<g id="Birthday_Song">
</g>
<g id="Candle">
</g>
<g id="Sweet_16">
</g>
<g id="Clown">
</g>
<g id="Clown_2">
</g>
<g id="Birthday_Party">
</g>
<g id="Giving_Gift">
</g>
<g id="Present_5">
</g>
<g id="Champagne_in_ice_bucket">
</g>
<g id="Beer">
</g>
<g id="Truffles">
</g>
<g id="Pinata">
</g>
</svg>
