<?xml version="1.0" encoding="iso-8859-1"?>
<!-- Generator: Adobe Illustrator 19.2.1, SVG Export Plug-In . SVG Version: 6.00 Build 0)  -->
<svg version="1.1" xmlns="http://www.w3.org/2000/svg" xmlns:xlink="http://www.w3.org/1999/xlink" x="0px" y="0px"
	 viewBox="0 0 30 30" style="enable-background:new 0 0 30 30;" xml:space="preserve">
<g id="Present_1">
</g>
<g id="Present_2">
</g>
<g id="Present_3">
</g>
<g id="Present_Cake">
</g>
<g id="Present_4">
</g>
<g id="Birthday_Cake_1">
</g>
<g id="Birthday_Cake_2">
</g>
<g id="Cake_Piece">
</g>
<g id="Cupcake">
</g>
<g id="Lollipop">
</g>
<g id="Birthday_Greetings_1">
</g>
<g id="Party_Greetings_2">
</g>
<g id="Birthday_Invitation">
</g>
<g id="Birthday_1">
</g>
<g id="Birthday_2">
</g>
<g id="Birthday_Message_1">
</g>
<g id="Birthday_Message_2">
</g>
<g id="Birthyday_Hat_1">
</g>
<g id="Birthay_Hat_2">
</g>
<g id="Birthday_Hat3">
</g>
<g id="Birthday_Decoration_1">
</g>
<g id="Birthday_Decoration_2">
</g>
<g id="Birthday_Decoration_3">
</g>
<g id="Horn_1">
</g>
<g id="Horn_2">
</g>
<g id="Baloon">
</g>
<g id="Balloons_1">
</g>
<g id="Balloons_2">
</g>
<g id="Birthday_Picture">
	<g>
		<g>
			<path d="M27.5,30h-25C2.224,30,2,29.776,2,29.5v-29C2,0.224,2.224,0,2.5,0h25C27.776,0,28,0.224,28,0.5v29
				C28,29.776,27.776,30,27.5,30z M3,29h24V1H3V29z"/>
		</g>
		<g>
			<path d="M24.5,22h-19C5.224,22,5,21.776,5,21.5v-18C5,3.224,5.224,3,5.5,3h19C24.776,3,25,3.224,25,3.5v18
				C25,21.776,24.776,22,24.5,22z M6,21h18V4H6V21z"/>
		</g>
		<g>
			<path d="M15,16.125c-1.654,0-3-1.346-3-3s1.346-3,3-3s3,1.346,3,3S16.654,16.125,15,16.125z M15,11.125c-1.103,0-2,0.897-2,2
				s0.897,2,2,2s2-0.897,2-2S16.103,11.125,15,11.125z"/>
		</g>
		<g>
			<path d="M17.165,12.375c-0.193,0-0.377-0.113-0.459-0.301L15,8.133l-1.706,3.94c-0.11,0.253-0.407,0.369-0.657,0.26
				c-0.254-0.11-0.37-0.404-0.261-0.658l2.165-5c0.158-0.366,0.76-0.366,0.918,0l2.165,5c0.109,0.253-0.007,0.548-0.261,0.658
				C17.299,12.362,17.231,12.375,17.165,12.375z"/>
		</g>
		<g>
			<path d="M20.5,22c-0.276,0-0.5-0.224-0.5-0.5v-2c0-1.379-1.121-2.5-2.5-2.5h-5c-1.379,0-2.5,1.121-2.5,2.5v2
				c0,0.276-0.224,0.5-0.5,0.5S9,21.776,9,21.5v-2c0-1.93,1.57-3.5,3.5-3.5h5c1.93,0,3.5,1.57,3.5,3.5v2
				C21,21.776,20.776,22,20.5,22z"/>
		</g>
	</g>
</g>
<g id="Kid_x27_s_Champagne">
</g>
<g id="Candy">
</g>
<g id="Birthday_Card">
</g>
<g id="Flowers">
</g>
<g id="Birthday_Song">
</g>
<g id="Candle">
</g>
<g id="Sweet_16">
</g>
<g id="Clown">
</g>
<g id="Clown_2">
</g>
<g id="Birthday_Party">
</g>
<g id="Giving_Gift">
</g>
<g id="Present_5">
</g>
<g id="Champagne_in_ice_bucket">
</g>
<g id="Beer">
</g>
<g id="Truffles">
</g>
<g id="Pinata">
</g>
</svg>
