<?xml version="1.0" encoding="iso-8859-1"?>
<!-- Generator: Adobe Illustrator 19.2.1, SVG Export Plug-In . SVG Version: 6.00 Build 0)  -->
<svg version="1.1" xmlns="http://www.w3.org/2000/svg" xmlns:xlink="http://www.w3.org/1999/xlink" x="0px" y="0px"
	 viewBox="0 0 30 30" style="enable-background:new 0 0 30 30;" xml:space="preserve">
<g id="Man_1">
</g>
<g id="Woman_1">
</g>
<g id="Man_2">
</g>
<g id="Woman_2">
</g>
<g id="Bald_Man">
</g>
<g id="Man_Glasses">
</g>
<g id="Woman_Glasses">
</g>
<g id="Man_Beard">
</g>
<g id="Man_Cap">
</g>
<g id="Woman_Cap">
</g>
<g id="Man_3">
</g>
<g id="Woman_3">
</g>
<g id="Men_4">
</g>
<g id="Woman_4">
</g>
<g id="Business_Man_1">
</g>
<g id="Business_Woman_1">
</g>
<g id="Firefigyhter">
</g>
<g id="Policeman">
</g>
<g id="Criminal">
</g>
<g id="Prisoner">
</g>
<g id="Woodsman">
</g>
<g id="Dispatcher_1">
</g>
<g id="Dispatcher_2">
</g>
<g id="Soldier">
</g>
<g id="Astronaut">
</g>
<g id="Hipster_Guy">
</g>
<g id="Hipster_Girl">
</g>
<g id="Worker">
</g>
<g id="Old_Man">
</g>
<g id="Punk">
</g>
<g id="Diver">
</g>
<g id="Artist">
</g>
<g id="Dictator">
</g>
<g id="Man_Hat">
</g>
<g id="Woman_Hat">
</g>
<g id="Graduated_Man">
</g>
<g id="Graduated_Woman">
</g>
<g id="Avatar_Chef">
</g>
<g id="Waiter">
</g>
<g id="Waitress">
</g>
<g id="Bllboy">
	<g>
		<g>
			<path d="M25,26c-0.068,0-0.138-0.014-0.205-0.044c-0.128-0.058-0.635-0.218-1.015-0.34c-0.203-0.064-0.373-0.119-0.445-0.145
				l-1.493-0.497c-0.633-0.221-1.5-0.951-1.668-1.096l-0.527-0.525c-0.195-0.195-0.195-0.512,0-0.707s0.512-0.195,0.707,0l0.5,0.5
				c0.4,0.342,0.997,0.771,1.311,0.882l1.494,0.497c0.075,0.026,0.235,0.078,0.426,0.139c0.562,0.18,0.971,0.313,1.121,0.38
				c0.252,0.113,0.364,0.409,0.251,0.661C25.373,25.891,25.19,26,25,26z"/>
		</g>
		<g>
			<path d="M5,26c-0.191,0-0.373-0.109-0.457-0.295c-0.113-0.252-0.001-0.548,0.251-0.661c0.149-0.067,0.559-0.2,1.121-0.38
				c0.191-0.061,0.352-0.112,0.419-0.136l1.507-0.503c0.308-0.107,0.905-0.537,1.332-0.904l0.473-0.475
				c0.195-0.195,0.512-0.195,0.707,0s0.195,0.512,0,0.707l-0.5,0.5c-0.195,0.17-1.063,0.9-1.689,1.118l-1.506,0.503
				c-0.065,0.022-0.235,0.077-0.438,0.142c-0.38,0.122-0.887,0.282-1.015,0.34C5.139,25.986,5.069,26,5,26z"/>
		</g>
		<g>
			<path d="M12.5,16h-1c-0.276,0-0.5-0.224-0.5-0.5s0.224-0.5,0.5-0.5h1c0.276,0,0.5,0.224,0.5,0.5S12.776,16,12.5,16z"/>
		</g>
		<g>
			<path d="M18.5,16h-1c-0.276,0-0.5-0.224-0.5-0.5s0.224-0.5,0.5-0.5h1c0.276,0,0.5,0.224,0.5,0.5S18.776,16,18.5,16z"/>
		</g>
		<g>
			<path d="M15,30C6.729,30,0,23.271,0,15S6.729,0,15,0s15,6.729,15,15S23.271,30,15,30z M15,1C7.28,1,1,7.28,1,15s6.28,14,14,14
				s14-6.28,14-14S22.72,1,15,1z"/>
		</g>
		<g>
			<path d="M15,25c-0.347,0-0.625-0.043-0.903-0.09c-0.143-0.024-0.286-0.056-0.428-0.09c-0.113-0.028-0.218-0.06-0.322-0.094
				c-2.42-0.714-4.3-2.428-5.197-4.727H8c-1.047,0-2-1.43-2-3c0-1.906,0.547-3,1.5-3h0.014c0.043-0.733,0.183-1.154,0.352-1.663
				c0.049-0.146,0.101-0.304,0.156-0.483c0.081-0.264,0.362-0.411,0.624-0.332c0.264,0.081,0.413,0.36,0.332,0.625
				C8.92,12.335,8.866,12.5,8.814,12.653C8.619,13.242,8.5,13.599,8.5,14.5C8.5,14.776,8.276,15,8,15H7.5C7.331,15,7,15.604,7,17
				c0,1.224,0.703,2,1,2h0.5c0.214,0,0.404,0.137,0.474,0.339c0.733,2.157,2.435,3.773,4.668,4.433
				c0.096,0.03,0.181,0.056,0.267,0.078c0.113,0.026,0.233,0.054,0.356,0.074C14.56,23.975,14.754,24,15,24
				c0.247,0,0.561-0.028,0.838-0.076c0.125-0.021,0.245-0.048,0.365-0.076c0.079-0.021,0.163-0.046,0.248-0.072
				c2.171-0.642,3.834-2.257,4.575-4.437c0.056-0.164,0.193-0.288,0.363-0.326c0.108-0.027,0.223-0.012,0.323,0.034
				C21.797,19.021,21.891,19,22,19c0.297,0,1-0.776,1-2c0-1.396-0.331-2-0.5-2H22c-0.276,0-0.5-0.224-0.5-0.5
				c0-0.896-0.118-1.25-0.313-1.839c-0.052-0.156-0.107-0.324-0.166-0.516c-0.08-0.265,0.069-0.544,0.333-0.624
				c0.266-0.081,0.543,0.068,0.624,0.333c0.056,0.184,0.108,0.343,0.158,0.492c0.168,0.507,0.307,0.926,0.35,1.653H22.5
				c0.953,0,1.5,1.094,1.5,3c0,1.57-0.953,3-2,3c-0.042,0.016-0.101,0.037-0.171,0.054c-0.907,2.292-2.74,3.984-5.083,4.677
				c-0.093,0.03-0.197,0.062-0.303,0.088c-0.15,0.036-0.292,0.067-0.437,0.092C15.672,24.967,15.305,25,15,25z"/>
		</g>
		<g>
			<path d="M15,14c-4.646,0-6.717-1.537-6.803-1.603C8.073,12.303,8,12.156,8,12V5.5c0-0.09,0.024-0.178,0.07-0.255
				C8.125,5.153,9.466,3,15,3s6.875,2.153,6.93,2.245C21.976,5.322,22,5.41,22,5.5V12c0,0.156-0.073,0.303-0.197,0.397
				C21.717,12.463,19.646,14,15,14z M9,11.728C9.586,12.07,11.5,13,15,13c3.498,0,5.411-0.929,6-1.273V5.668
				C20.687,5.314,19.237,4,15,4c-4.248,0-5.688,1.311-6,1.667V11.728z M21.5,12h0.01H21.5z"/>
		</g>
		<g>
			<path d="M15,8c-3.222,0-4.728-1.049-4.791-1.093C9.985,6.746,9.933,6.435,10.093,6.21c0.159-0.224,0.47-0.279,0.695-0.118
				C10.815,6.109,12.147,7,15,7c2.869,0,4.199-0.899,4.212-0.909c0.225-0.157,0.537-0.103,0.695,0.122
				c0.158,0.226,0.106,0.534-0.117,0.694C19.728,6.951,18.222,8,15,8z"/>
		</g>
		<g>
			<circle cx="12.5" cy="26.5" r="0.5"/>
		</g>
		<g>
			<circle cx="17.5" cy="26.5" r="0.5"/>
		</g>
		<g>
			<path d="M15,22c-1.67,0-2.803-1.097-2.851-1.144c-0.197-0.194-0.199-0.511-0.006-0.707c0.193-0.197,0.508-0.201,0.706-0.007l0,0
				C12.858,20.151,13.75,21,15,21s2.142-0.849,2.151-0.857c0.197-0.193,0.514-0.188,0.706,0.009s0.19,0.512-0.006,0.705
				C17.803,20.903,16.67,22,15,22z"/>
		</g>
	</g>
</g>
<g id="Santa">
</g>
<g id="Doctor">
</g>
<g id="Nurse">
</g>
<g id="Captain">
</g>
<g id="Farmer">
</g>
<g id="Maid">
</g>
<g id="Business_Man_2">
</g>
<g id="Business_Woman_2">
</g>
<g id="Cowboy">
</g>
<g id="Anonymus">
</g>
<g id="Batman">
</g>
<g id="Superman">
</g>
<g id="Captain_America">
</g>
<g id="Darth_Vader">
</g>
<g id="Harry_Potter">
</g>
<g id="Anonymus_2">
</g>
<g id="Scream">
</g>
<g id="Jason">
</g>
<g id="Charlie_Chaplin">
</g>
</svg>
