<?xml version="1.0" encoding="iso-8859-1"?>
<!-- Generator: Adobe Illustrator 19.2.1, SVG Export Plug-In . SVG Version: 6.00 Build 0)  -->
<svg version="1.1" xmlns="http://www.w3.org/2000/svg" xmlns:xlink="http://www.w3.org/1999/xlink" x="0px" y="0px"
	 viewBox="0 0 24 24" style="enable-background:new 0 0 24 24;" xml:space="preserve">
<g id="Man_1">
</g>
<g id="Woman_1">
</g>
<g id="Man_2">
</g>
<g id="Woman_2">
</g>
<g id="Bald_Man">
</g>
<g id="Man_Glasses">
</g>
<g id="Woman_Glasses">
</g>
<g id="Man_Beard">
</g>
<g id="Man_Cap">
</g>
<g id="Woman_Cap">
</g>
<g id="Man_3">
</g>
<g id="Woman_3">
</g>
<g id="Men_4">
</g>
<g id="Woman_4">
</g>
<g id="Business_Man_1">
</g>
<g id="Business_Woman_1">
</g>
<g id="Firefigyhter">
</g>
<g id="Policeman">
</g>
<g id="Criminal">
</g>
<g id="Prisoner">
</g>
<g id="Woodsman">
</g>
<g id="Dispatcher_1">
</g>
<g id="Dispatcher_2">
</g>
<g id="Soldier">
</g>
<g id="Astronaut">
</g>
<g id="Hipster_Guy">
</g>
<g id="Hipster_Girl">
</g>
<g id="Worker">
</g>
<g id="Old_Man">
</g>
<g id="Punk">
</g>
<g id="Diver">
</g>
<g id="Artist">
</g>
<g id="Dictator">
</g>
<g id="Man_Hat">
</g>
<g id="Woman_Hat">
</g>
<g id="Graduated_Man">
</g>
<g id="Graduated_Woman">
</g>
<g id="Avatar_Chef">
</g>
<g id="Waiter">
</g>
<g id="Waitress">
</g>
<g id="Bllboy">
	<g>
		<path d="M11.999,20c-0.265,0-0.523-0.03-0.779-0.073c-0.123-0.021-0.24-0.045-0.357-0.074c-0.072-0.018-0.146-0.04-0.22-0.063
			c-1.726-0.527-3.165-1.928-3.959-3.808C6.616,15.995,6.553,16,6.499,16c-0.855,0-1.5-1.075-1.5-2.5
			c0-1.156,0.424-2.082,1.041-2.39c0.041-0.589,0.108-1.114,0.203-1.599C6.296,9.24,6.562,9.063,6.83,9.118
			c0.271,0.053,0.447,0.315,0.394,0.587c-0.105,0.534-0.173,1.129-0.208,1.82C7.003,11.791,6.784,12,6.517,12
			c-0.143,0-0.519,0.532-0.519,1.5c0,0.967,0.375,1.499,0.5,1.5c-0.002-0.001,0.033-0.013,0.095-0.075
			c0.122-0.124,0.299-0.177,0.468-0.137c0.169,0.038,0.306,0.162,0.362,0.326c0.628,1.849,1.93,3.234,3.48,3.708
			c0.091,0.028,0.145,0.046,0.199,0.059c0.097,0.024,0.19,0.044,0.285,0.06c0.397,0.066,0.823,0.066,1.226,0
			c0.092-0.016,0.185-0.035,0.278-0.059c0.059-0.014,0.112-0.031,0.166-0.048c1.587-0.485,2.889-1.871,3.517-3.72
			c0.056-0.164,0.193-0.288,0.362-0.326c0.17-0.04,0.347,0.013,0.468,0.137C17.468,14.99,17.503,15,17.504,15
			c0.119,0,0.495-0.532,0.495-1.5s-0.375-1.5-0.5-1.5c-0.267,0-0.505-0.209-0.519-0.475c-0.034-0.675-0.104-1.286-0.211-1.815
			c-0.054-0.271,0.121-0.534,0.392-0.589c0.271-0.056,0.534,0.121,0.588,0.392c0.098,0.488,0.167,1.016,0.208,1.603
			c0.622,0.313,1.042,1.234,1.042,2.385c0,1.425-0.645,2.5-1.5,2.5c-0.055,0-0.118-0.005-0.186-0.019
			c-0.793,1.88-2.23,3.279-3.927,3.798c-0.106,0.033-0.18,0.056-0.256,0.074c-0.113,0.028-0.23,0.052-0.35,0.073
			C12.521,19.97,12.263,20,11.999,20z"/>
		<path d="M17.924,4.235C17.867,4.144,16.476,2,12,2S6.133,4.144,6.076,4.235C6.026,4.314,6,4.406,6,4.5v5
			c0,0.185,0.102,0.354,0.265,0.441C6.346,9.984,8.292,11,12,11s5.654-1.016,5.735-1.059C17.898,9.854,18,9.685,18,9.5v-5
			C18,4.406,17.974,4.314,17.924,4.235z M16.156,5.475C16.091,5.496,14.53,6,12,6S7.909,5.496,7.844,5.475
			c-0.262-0.086-0.404-0.368-0.319-0.63c0.086-0.263,0.367-0.406,0.63-0.32C8.17,4.529,9.644,5,12,5s3.83-0.471,3.845-0.476
			c0.262-0.084,0.544,0.059,0.63,0.32C16.561,5.106,16.418,5.389,16.156,5.475z"/>
		<g>
			<path d="M10.5,13h-1C9.224,13,9,12.776,9,12.5S9.224,12,9.5,12h1c0.276,0,0.5,0.224,0.5,0.5S10.776,13,10.5,13z"/>
		</g>
		<g>
			<path d="M14.5,13h-1c-0.276,0-0.5-0.224-0.5-0.5s0.224-0.5,0.5-0.5h1c0.276,0,0.5,0.224,0.5,0.5S14.776,13,14.5,13z"/>
		</g>
		<g>
			<path d="M12,17.5c-1.394,0-1.847-0.612-1.924-0.735c-0.146-0.233-0.075-0.542,0.159-0.688c0.228-0.143,0.523-0.079,0.674,0.137
				C10.935,16.24,11.198,16.5,12,16.5c0.844,0,1.091-0.287,1.093-0.29c0.146-0.234,0.445-0.293,0.68-0.146
				c0.234,0.146,0.297,0.468,0.15,0.701C13.847,16.888,13.394,17.5,12,17.5z"/>
		</g>
		<path d="M12,0C5.383,0,0,5.383,0,12s5.383,12,12,12s12-5.383,12-12S18.617,0,12,0z M13.87,22.829C13.779,22.932,13.649,23,13.5,23
			c-0.093,0-0.175-0.032-0.25-0.076C12.839,22.97,12.423,23,12,23s-0.839-0.03-1.25-0.076C10.675,22.968,10.593,23,10.5,23
			c-0.149,0-0.279-0.068-0.37-0.171C4.954,21.937,1,17.427,1,12C1,5.935,5.935,1,12,1s11,4.935,11,11
			C23,17.427,19.046,21.937,13.87,22.829z"/>
		<path d="M20.206,19.84c-0.175-0.079-0.354-0.15-0.538-0.214l-2.033-0.707c-0.26-0.09-0.497-0.229-0.713-0.398
			c-0.886,1.058-1.999,1.835-3.243,2.215c-0.125,0.039-0.216,0.066-0.31,0.09c-0.129,0.032-0.269,0.061-0.412,0.086
			C12.588,20.973,12.288,21,11.999,21c-0.292,0-0.592-0.027-0.945-0.087c-0.154-0.027-0.294-0.056-0.435-0.091
			c-0.086-0.021-0.182-0.05-0.278-0.08c-1.24-0.379-2.351-1.148-3.238-2.193c-0.206,0.155-0.428,0.284-0.672,0.369l-2.033,0.707
			c-0.183,0.063-0.361,0.134-0.535,0.213c-0.18,0.081-0.295,0.26-0.294,0.458c0.001,0.197,0.118,0.375,0.299,0.455l0.4,0.176
			c0.499,0.413,3.867,3.071,7.767,3.071c3.898,0,7.266-2.657,7.767-3.071l0.399-0.175c0.181-0.079,0.299-0.257,0.3-0.455
			S20.386,19.921,20.206,19.84z M10.5,23c-0.276,0-0.5-0.224-0.5-0.5c0-0.276,0.224-0.5,0.5-0.5s0.5,0.224,0.5,0.5
			C11,22.776,10.776,23,10.5,23z M13.5,23c-0.276,0-0.5-0.224-0.5-0.5c0-0.276,0.224-0.5,0.5-0.5s0.5,0.224,0.5,0.5
			C14,22.776,13.776,23,13.5,23z"/>
	</g>
</g>
<g id="Santa">
</g>
<g id="Doctor">
</g>
<g id="Nurse">
</g>
<g id="Captain">
</g>
<g id="Farmer">
</g>
<g id="Maid">
</g>
<g id="Business_Man_2">
</g>
<g id="Business_Woman_2">
</g>
<g id="Cowboy">
</g>
<g id="Anonymus">
</g>
<g id="Batman">
</g>
<g id="Superman">
</g>
<g id="Captain_America">
</g>
<g id="Darth_Vader">
</g>
<g id="Harry_Potter">
</g>
<g id="Anonymus_2">
</g>
<g id="Scream">
</g>
<g id="Jason">
</g>
<g id="Charlie_Chaplin">
</g>
</svg>
