<?xml version="1.0" encoding="iso-8859-1"?>
<!-- Generator: Adobe Illustrator 19.2.1, SVG Export Plug-In . SVG Version: 6.00 Build 0)  -->
<svg version="1.1" xmlns="http://www.w3.org/2000/svg" xmlns:xlink="http://www.w3.org/1999/xlink" x="0px" y="0px"
	 viewBox="0 0 24 24" style="enable-background:new 0 0 24 24;" xml:space="preserve">
<g id="Sun_Light">
</g>
<g id="Sunglasses">
</g>
<g id="T-Shirt_1">
</g>
<g id="T-Shirt_2">
</g>
<g id="Mini_Dress">
</g>
<g id="Flip-Flops">
</g>
<g id="Temperature">
</g>
<g id="Hot_Temperature">
</g>
<g id="Ice_Lolly">
</g>
<g id="Icecream">
</g>
<g id="Limonade_1">
</g>
<g id="Limonade_2">
</g>
<g id="Hat">
</g>
<g id="Straw_Hat">
</g>
<g id="Deckchair">
</g>
<g id="Sunshade">
</g>
<g id="Suncream">
</g>
<g id="Suntan_Oil">
</g>
<g id="Swimming_Trunks">
</g>
<g id="Bikini">
</g>
<g id="Pool">
</g>
<g id="Pool_Ladder">
</g>
<g id="Grill">
</g>
<g id="Kite_1">
</g>
<g id="Kite_2">
</g>
<g id="Badminton">
</g>
<g id="Cooler">
</g>
<g id="Strand_Bag">
</g>
<g id="Towel">
</g>
<g id="Strand_Ball">
</g>
<g id="Beach_Sign">
</g>
<g id="Toos">
</g>
<g id="Bucket">
</g>
<g id="Sand_Castle">
</g>
<g id="Shell_1">
</g>
<g id="Shell_2">
</g>
<g id="Surf_Board">
</g>
<g id="Float">
</g>
<g id="Vacation_Photo">
</g>
<g id="Summer_Time">
</g>
<g id="Boat">
	<path d="M23.224,15.053l-5.868-2.934c-0.349-3.132-1.323-5.801-2.328-7.811c-0.001-0.002-0.002-0.004-0.003-0.006
		c-1.257-2.516-2.544-4.011-2.648-4.131c-0.19-0.217-0.563-0.217-0.753,0c-0.188,0.216-4.191,4.892-4.979,11.948l-5.868,2.934
		c-0.247,0.124-0.347,0.424-0.224,0.671C0.641,15.898,0.817,16,1,16c0.075,0,0.151-0.017,0.223-0.053l5.32-2.66
		c-0.003,0.047-0.003,0.096-0.005,0.143c-0.003,0.024-0.014,0.045-0.014,0.069c0,0.017,0.008,0.032,0.01,0.048
		C6.52,13.864,6.5,14.176,6.5,14.5c0,0.285,0.012,0.583,0.024,0.88C6.514,15.42,6.5,15.458,6.5,15.5
		c0,0.056,0.015,0.108,0.032,0.158c0.143,2.756,0.728,5.84,0.999,7.153C7.673,23.5,8.291,24,9,24h6c0.709,0,1.327-0.5,1.47-1.19
		c0.27-1.321,0.854-4.413,0.997-7.146c0.018-0.052,0.033-0.105,0.033-0.163c0-0.043-0.014-0.081-0.024-0.12
		c0.012-0.298,0.024-0.595,0.024-0.88c0-0.324-0.02-0.636-0.034-0.952c0.002-0.017,0.01-0.031,0.01-0.048
		c0-0.025-0.011-0.046-0.014-0.069c-0.002-0.047-0.002-0.096-0.005-0.143l5.32,2.66C22.849,15.983,22.925,16,23,16
		c0.183,0,0.359-0.102,0.447-0.276C23.57,15.477,23.471,15.177,23.224,15.053z M15.966,20H8.034c-0.195-1.207-0.386-2.636-0.478-4
		h8.885C16.35,17.357,16.164,18.774,15.966,20z M12,1.304C12.389,1.82,13.034,2.748,13.716,4h-3.431
		C10.966,2.748,11.611,1.82,12,1.304z M8.909,7h6.181c0.51,1.354,0.941,2.895,1.188,4.58l-1.055-0.527
		c-0.247-0.121-0.547-0.023-0.671,0.224c-0.123,0.247-0.023,0.547,0.224,0.671l1.64,0.82c0.007,0.078,0.015,0.155,0.021,0.233H7.563
		c0.006-0.078,0.015-0.155,0.021-0.233l1.64-0.82c0.247-0.124,0.347-0.424,0.224-0.671c-0.124-0.247-0.423-0.347-0.671-0.224
		L7.722,11.58C7.968,9.895,8.399,8.354,8.909,7z"/>
</g>
<g id="Lifebuoy">
</g>
<g id="Lighthouse">
</g>
<g id="Sunset">
</g>
<g id="Dolphin">
</g>
<g id="Starfish">
</g>
<g id="Diving_Mask">
</g>
<g id="Sailboat">
</g>
<g id="Captin_Hat">
</g>
<g id="Eudder">
</g>
</svg>
