<?xml version="1.0" encoding="iso-8859-1"?>
<!-- Generator: Adobe Illustrator 19.2.1, SVG Export Plug-In . SVG Version: 6.00 Build 0)  -->
<svg version="1.1" xmlns="http://www.w3.org/2000/svg" xmlns:xlink="http://www.w3.org/1999/xlink" x="0px" y="0px"
	 viewBox="0 0 24 24" style="enable-background:new 0 0 24 24;" xml:space="preserve">
<g id="Pompkin">
</g>
<g id="Layer_10">
</g>
<g id="Bat">
</g>
<g id="Ghost">
</g>
<g id="Bone_Hand">
</g>
<g id="Tree_Ghost">
</g>
<g id="Gate">
</g>
<g id="Cemetery_1">
</g>
<g id="Cemetery_2">
</g>
<g id="Devil_x27_s_Fork">
</g>
<g id="Night_Candle">
</g>
<g id="Canlestick">
</g>
<g id="Black_Cat">
</g>
<g id="Witch_Cauldron">
</g>
<g id="Corn_Candy">
</g>
<g id="Layer_29">
</g>
<g id="Bones">
	<g>
		<path d="M15.833,10.949c0.097,0.096,0.224,0.144,0.351,0.144c0.125,0,0.25-0.046,0.347-0.14c1.37-1.317,2.062-1.932,2.41-2.219
			c1.311,0.656,2.99,0.392,4.035-0.654C23.636,7.419,24,6.539,24,5.605c0-0.935-0.364-1.814-1.025-2.475
			c-0.172-0.172-0.363-0.317-0.563-0.447c-0.023-0.015-0.044-0.031-0.067-0.045c-0.215-0.133-0.442-0.24-0.678-0.324
			c-0.174-0.501-0.446-0.939-0.812-1.305c-1.322-1.323-3.629-1.323-4.95,0c-1.081,1.08-1.329,2.695-0.654,4.035
			c-0.287,0.348-0.902,1.04-2.219,2.409c-0.188,0.195-0.186,0.504,0.004,0.697C13.94,9.072,14.912,10.042,15.833,10.949z"/>
		<path d="M8.167,13.018c-0.194-0.191-0.502-0.192-0.697-0.004c-1.37,1.317-2.062,1.932-2.41,2.219
			c-1.31-0.656-2.989-0.392-4.035,0.654C0.364,16.548,0,17.427,0,18.362c0,0.935,0.364,1.814,1.025,2.475
			c0.367,0.367,0.806,0.64,1.308,0.813c0.174,0.502,0.447,0.941,0.813,1.308c0.661,0.661,1.54,1.025,2.475,1.025
			c0.935,0,1.814-0.364,2.475-1.025c1.081-1.08,1.329-2.695,0.654-4.035c0.287-0.348,0.902-1.04,2.219-2.409
			c0.188-0.195,0.186-0.504-0.004-0.697C10.06,14.895,9.088,13.924,8.167,13.018z"/>
		<path d="M18.939,15.233C17.146,13.759,10.226,6.839,8.75,5.044c0.675-1.34,0.427-2.955-0.654-4.036
			c-1.322-1.323-3.629-1.323-4.95,0C2.974,1.181,2.829,1.372,2.699,1.572C2.685,1.595,2.669,1.616,2.654,1.639
			C2.521,1.854,2.414,2.081,2.33,2.318C1.83,2.491,1.391,2.764,1.025,3.13C0.364,3.79,0,4.67,0,5.605
			C0,6.539,0.364,7.419,1.025,8.08c1.047,1.047,2.726,1.309,4.035,0.654c1.794,1.474,8.713,8.394,10.189,10.189
			c-0.675,1.34-0.427,2.955,0.654,4.036c0.661,0.661,1.54,1.025,2.475,1.025c0.935,0,1.814-0.364,2.475-1.025
			c0.367-0.367,0.64-0.806,0.813-1.308c0.502-0.174,0.941-0.447,1.308-0.813C23.636,20.176,24,19.297,24,18.362
			c0-0.935-0.364-1.814-1.025-2.475C21.93,14.842,20.25,14.579,18.939,15.233z"/>
	</g>
</g>
<g id="Witch_Broom">
</g>
<g id="Owl">
</g>
<g id="Scythe">
</g>
<g id="Grim_Reaper">
</g>
<g id="Coffin">
</g>
<g id="Dracula">
</g>
<g id="Frankenstein">
</g>
<g id="Layer_40">
</g>
<g id="Toilet_Paper">
</g>
<g id="Skull">
</g>
<g id="Skull_Cake">
</g>
<g id="Eyeball">
</g>
<g id="Castle">
</g>
<g id="Witch_x27_s_Hat">
</g>
<g id="Cobweb_1">
</g>
<g id="Cobweb_2">
</g>
<g id="Spider">
</g>
<g id="Full_Moon">
</g>
<g id="Crescent">
</g>
<g id="Crow">
</g>
<g id="Candy_Holder">
</g>
<g id="Bloody_Knife">
</g>
<g id="Bloody_Axe">
</g>
</svg>
