<?xml version="1.0" encoding="iso-8859-1"?>
<!-- Generator: Adobe Illustrator 19.2.1, SVG Export Plug-In . SVG Version: 6.00 Build 0)  -->
<svg version="1.1" xmlns="http://www.w3.org/2000/svg" xmlns:xlink="http://www.w3.org/1999/xlink" x="0px" y="0px"
	 viewBox="0 0 30 30" style="enable-background:new 0 0 30 30;" xml:space="preserve">
<g id="Mail">
</g>
<g id="Open_Mail">
</g>
<g id="Mail_Attachmet">
</g>
<g id="Mails">
</g>
<g id="Trash">
</g>
<g id="Trash_Full">
</g>
<g id="Preferences_1">
</g>
<g id="Preferences_2">
</g>
<g id="Mouse">
</g>
<g id="Computer">
</g>
<g id="Notebook">
</g>
<g id="Mobile_Phone">
</g>
<g id="Print">
</g>
<g id="Calculator">
</g>
<g id="Tag">
</g>
<g id="Paperclip">
</g>
<g id="Heart">
</g>
<g id="Lock">
</g>
<g id="Lock_Open">
</g>
<g id="Key_1">
</g>
<g id="Star">
</g>
<g id="Add">
</g>
<g id="Remove">
</g>
<g id="Error">
</g>
<g id="Check_1">
</g>
<g id="Time">
</g>
<g id="Question_Mark">
</g>
<g id="Error_Mark">
</g>
<g id="Sand-Glass">
</g>
<g id="Battery_Full">
</g>
<g id="Battery_Charge">
</g>
<g id="Battery_Half">
</g>
<g id="Battery_Low">
</g>
<g id="No_Battery">
</g>
<g id="Key_2">
</g>
<g id="Link">
</g>
<g id="Brake_Link">
	<g>
		<path d="M6.458,7.158c0.097,0.097,0.225,0.146,0.353,0.146s0.257-0.049,0.354-0.147C7.359,6.961,7.359,6.645,7.163,6.45
			L3.368,2.668C3.175,2.474,2.856,2.473,2.661,2.669C2.467,2.865,2.467,3.181,2.663,3.376L6.458,7.158z"/>
		<path d="M0.5,10h6C6.776,10,7,9.776,7,9.5S6.776,9,6.5,9h-6C0.224,9,0,9.224,0,9.5S0.224,10,0.5,10z"/>
		<path d="M9.5,7C9.776,7,10,6.776,10,6.5v-6C10,0.224,9.776,0,9.5,0S9,0.224,9,0.5v6C9,6.776,9.224,7,9.5,7z"/>
		<path d="M23.542,21.581c-0.193-0.194-0.512-0.195-0.707,0.001c-0.194,0.196-0.194,0.512,0.002,0.707l3.795,3.783
			c0.097,0.097,0.225,0.146,0.353,0.146s0.257-0.049,0.354-0.147c0.194-0.196,0.194-0.512-0.002-0.707L23.542,21.581z"/>
		<path d="M29.5,19h-6c-0.276,0-0.5,0.224-0.5,0.5s0.224,0.5,0.5,0.5h6c0.276,0,0.5-0.224,0.5-0.5S29.776,19,29.5,19z"/>
		<path d="M20.5,23c-0.276,0-0.5,0.224-0.5,0.5v6c0,0.276,0.224,0.5,0.5,0.5s0.5-0.224,0.5-0.5v-6C21,23.224,20.776,23,20.5,23z"/>
		<path d="M28.376,9.457c1.043-1.043,1.618-2.435,1.618-3.919c0-1.485-0.575-2.877-1.618-3.92S25.941,0,24.456,0
			c-1.484,0-2.876,0.575-3.919,1.618L15.034,7.12c-0.195,0.195-0.195,0.512,0,0.707s0.512,0.195,0.707,0l5.503-5.502
			C22.099,1.471,23.239,1,24.456,1c1.218,0,2.358,0.471,3.213,1.325c0.854,0.854,1.325,1.995,1.325,3.213
			c0,1.217-0.471,2.358-1.325,3.212l-8.023,8.024c-0.854,0.854-1.995,1.325-3.213,1.325s-2.358-0.471-3.213-1.325
			c-0.195-0.195-0.512-0.195-0.707,0s-0.195,0.512,0,0.707c1.043,1.043,2.435,1.618,3.92,1.618c1.484,0,2.877-0.575,3.92-1.618
			L28.376,9.457z"/>
		<path d="M14.246,22.173l-5.502,5.502c-1.771,1.771-4.653,1.771-6.426,0c-1.771-1.771-1.771-4.654,0-6.425l8.024-8.024
			c0.854-0.854,1.995-1.325,3.213-1.325s2.358,0.471,3.213,1.325c0.195,0.195,0.512,0.195,0.707,0s0.195-0.512,0-0.707
			c-1.043-1.043-2.436-1.618-3.92-1.618c-1.485,0-2.877,0.575-3.92,1.618l-8.024,8.024c-2.161,2.161-2.161,5.678,0,7.839
			c1.081,1.081,2.5,1.621,3.92,1.621s2.839-0.54,3.92-1.621l5.502-5.502c0.195-0.195,0.195-0.512,0-0.707
			S14.441,21.978,14.246,22.173z"/>
	</g>
</g>
<g id="Pencil">
</g>
<g id="At">
</g>
<g id="Reply">
</g>
<g id="Accessible">
</g>
<g id="Up_Arrow">
</g>
<g id="Brush">
</g>
<g id="Design_Mug">
</g>
<g id="Design">
</g>
<g id="Server">
</g>
<g id="Database">
</g>
<g id="Save">
</g>
<g id="Female">
</g>
<g id="Male">
</g>
<g id="Book">
</g>
<g id="Power">
</g>
<g id="Reload">
</g>
<g id="Map">
</g>
<g id="Loction_1">
</g>
<g id="Location_2">
</g>
<g id="Globe">
</g>
<g id="Suitcase">
</g>
<g id="Callendar">
</g>
<g id="Cloud_Off">
</g>
<g id="File_1">
</g>
<g id="File_2">
</g>
<g id="Folder">
</g>
<g id="Open_Folder">
</g>
<g id="Cloud">
</g>
<g id="Upload_Cloud">
</g>
<g id="Download_Cloud">
</g>
<g id="Eye">
</g>
<g id="Invisible">
</g>
<g id="Assignment">
</g>
<g id="Note_Book">
</g>
<g id="Webpage">
</g>
<g id="Mailbox">
</g>
<g id="Drive">
</g>
<g id="Disc">
</g>
<g id="Wifi_1">
</g>
<g id="Wifi_2">
</g>
<g id="Archive">
</g>
<g id="Archive_File">
</g>
<g id="News">
</g>
<g id="Home">
</g>
<g id="Collaboration">
</g>
<g id="Announcement">
</g>
<g id="Watch">
</g>
<g id="Clock">
</g>
<g id="Volume">
</g>
<g id="Mute">
</g>
<g id="Hand">
</g>
<g id="Layers">
</g>
<g id="Bell">
</g>
<g id="Speach_Bubble">
</g>
<g id="Speach_Bubbles">
</g>
<g id="Zoom_In">
</g>
<g id="Zoom_Out">
</g>
<g id="Search">
</g>
<g id="Back_Arrow">
</g>
<g id="Close">
</g>
<g id="Check_2">
</g>
<g id="Left_Arrow_2">
</g>
<g id="Right_Arrow_2">
</g>
</svg>
