<?xml version="1.0" encoding="iso-8859-1"?>
<!-- Generator: Adobe Illustrator 19.2.1, SVG Export Plug-In . SVG Version: 6.00 Build 0)  -->
<svg version="1.1" xmlns="http://www.w3.org/2000/svg" xmlns:xlink="http://www.w3.org/1999/xlink" x="0px" y="0px"
	 viewBox="0 0 30 30" style="enable-background:new 0 0 30 30;" xml:space="preserve">
<g id="Egg">
</g>
<g id="Easter_Egg_1">
</g>
<g id="Easter_Egg_2">
</g>
<g id="Easter_Egg_3_1_">
</g>
<g id="Eggs_1_1_">
</g>
<g id="Eggs_2">
</g>
<g id="Bunny_1_">
</g>
<g id="Sheep_1_">
</g>
<g id="Bell_Alarm">
</g>
<g id="Calendar">
</g>
<g id="Tulip">
</g>
<g id="Chicken">
</g>
<g id="Chicken_2_1_">
</g>
<g id="Baguette_1_">
</g>
<g id="Ham_1_">
</g>
<g id="Bell_2">
</g>
<g id="Bell_3">
</g>
<g id="Bell_4">
</g>
<g id="Easter_celebration">
</g>
<g id="Egg_painting">
</g>
<g id="Easter_willow">
</g>
<g id="Daffodil">
</g>
<g id="Easter_message">
</g>
<g id="Bunny_2">
</g>
<g id="Chicken_3">
</g>
<g id="Tulip_2">
</g>
<g id="Easter_basket">
</g>
<g id="Bread_and_wine">
	<g>
		<g>
			<g>
				<path d="M15.631,30c-0.276,0-0.5-0.224-0.5-0.5s0.224-0.5,0.5-0.5C23.253,29,29,26.505,29,23.195
					c0-3.327-3.814-5.804-4.544-5.804c-0.777,0-1.941,0.426-2.325,0.59c-0.185,0.078-0.405,0.038-0.55-0.106
					c-1.287-1.287-2.651-1.744-3.429-1.744c-0.666,0-2.547,0.745-3.575,1.216c-0.25,0.11-0.548,0.004-0.663-0.247
					c-0.114-0.251-0.004-0.548,0.247-0.663c0.293-0.134,2.89-1.306,3.991-1.306c1.214,0,2.683,0.687,3.896,1.808
					c0.514-0.194,1.563-0.547,2.407-0.547c1.299,0,5.544,2.899,5.544,6.804C30,27.139,23.957,30,15.631,30z"/>
			</g>
			<g>
				<path d="M16.892,27.479c-0.276,0-0.5-0.224-0.5-0.5s0.224-0.5,0.5-0.5c5.606,0,8.604-1.873,9.101-2.374
					c0.194-0.196,0.511-0.198,0.707-0.004s0.198,0.511,0.004,0.707C26.018,25.501,22.744,27.479,16.892,27.479z"/>
			</g>
			<g>
				<path d="M19.645,21.11c-0.376,0-0.789-0.244-1.231-0.729l-3.136-3.136c-0.195-0.195-0.195-0.512,0-0.707s0.512-0.195,0.707,0
					l3.151,3.152c0.188,0.206,0.322,0.311,0.406,0.364c0.001-0.01,0.002-0.021,0.002-0.032c0.056-1.311-0.787-3.707-1.524-3.909
					c-0.266-0.073-0.423-0.349-0.35-0.615c0.074-0.267,0.346-0.421,0.615-0.35c1.517,0.418,2.313,3.62,2.259,4.917
					c-0.022,0.499-0.244,0.861-0.608,0.993C19.842,21.093,19.744,21.11,19.645,21.11z"/>
			</g>
			<g>
				<path d="M23.826,21.174c-0.862,0-1.204-0.943-1.536-1.855c-0.196-0.54-0.418-1.152-0.709-1.443
					c-0.195-0.195-0.195-0.512,0-0.707s0.512-0.195,0.707,0c0.448,0.447,0.699,1.14,0.942,1.809c0.121,0.334,0.359,0.99,0.533,1.159
					c0.204-0.402,0.295-1.818,0.193-3.208c-0.02-0.275,0.188-0.515,0.463-0.535c0.252-0.02,0.515,0.187,0.535,0.463
					c0.055,0.759,0.183,3.293-0.511,4.039C24.229,21.125,23.989,21.174,23.826,21.174z"/>
			</g>
		</g>
	</g>
	<g>
		<path d="M6.805,21.294C2.989,21.294,0,18.384,0,14.669L1.264,3.444C1.292,3.191,1.506,3,1.761,3h10.087
			c0.254,0,0.468,0.19,0.497,0.443l1.261,11.108c0.002,0.019,0.003,0.038,0.003,0.057C13.608,18.357,10.62,21.294,6.805,21.294z
			 M2.207,4l-1.21,10.725C1,17.823,3.55,20.294,6.805,20.294c3.245,0,5.789-2.483,5.804-5.658L11.401,4H2.207z"/>
	</g>
	<g>
		<path d="M6.5,30C6.224,30,6,29.776,6,29.5v-8.72c0-0.276,0.224-0.5,0.5-0.5S7,20.504,7,20.78v8.72C7,29.776,6.776,30,6.5,30z"/>
	</g>
	<g>
		<path d="M12,30H2c-0.276,0-0.5-0.224-0.5-0.5S1.724,29,2,29h10c0.276,0,0.5,0.224,0.5,0.5S12.276,30,12,30z"/>
	</g>
	<g>
		<path d="M12.76,12H0.86c-0.276,0-0.5-0.224-0.5-0.5S0.584,11,0.86,11H12.76c0.276,0,0.5,0.224,0.5,0.5S13.036,12,12.76,12z"/>
	</g>
</g>
<g id="Sheep_2">
</g>
<g id="Candle_Light">
</g>
</svg>
