<?xml version="1.0" encoding="iso-8859-1"?>
<!-- Generator: Adobe Illustrator 19.2.1, SVG Export Plug-In . SVG Version: 6.00 Build 0)  -->
<svg version="1.1" xmlns="http://www.w3.org/2000/svg" xmlns:xlink="http://www.w3.org/1999/xlink" x="0px" y="0px"
	 viewBox="0 0 24 24" style="enable-background:new 0 0 24 24;" xml:space="preserve">
<g id="Engagement_1">
</g>
<g id="Engagement_2">
</g>
<g id="Wedding_Ring">
</g>
<g id="Church">
</g>
<g id="Church_Bells">
</g>
<g id="Wedding_Altar_1">
</g>
<g id="Wedding_Altar_2">
</g>
<g id="Bow-Tie">
</g>
<g id="Wedding_Tiara">
</g>
<g id="Wedding_Bouquet">
</g>
<g id="Wedding_Decoration_1">
</g>
<g id="Wedding_Decoration_2">
</g>
<g id="Wedding_Way_Sign">
</g>
<g id="Wedding_Date">
</g>
<g id="Wedding_Invitation">
</g>
<g id="Wedding_Invitation_2">
</g>
<g id="Bride">
	<g>
		<path d="M18.716,12.49l-3.212-5.442c-0.322-0.452-0.802-0.787-1.351-0.944c-0.159-0.044-0.328-0.01-0.454,0.094
			c-1.283,1.05-3.114,1.051-4.399-0.001C9.175,6.093,9.005,6.06,8.847,6.103C8.298,6.259,7.817,6.594,7.47,7.083L4.297,12.47
			c-0.271,0.381-0.363,0.861-0.25,1.315c0.112,0.455,0.418,0.836,0.837,1.045c0.705,0.354,1.576,0.132,2.054-0.559l1.417-2.569
			c-0.264,2.423-1.008,6.134-3.107,7.366c-0.135,0.079-0.225,0.216-0.243,0.372c-0.019,0.155,0.036,0.31,0.148,0.418
			C5.222,19.926,6.535,21.153,9,21.716L8.999,22.5c0,0.827,0.673,1.5,1.5,1.5c0.386,0,0.734-0.15,1-0.39
			c0.266,0.24,0.614,0.39,1,0.39c0.827,0,1.5-0.673,1.5-1.5L14,21.718c2.481-0.563,3.782-1.794,3.851-1.862
			c0.112-0.11,0.166-0.267,0.146-0.422c-0.021-0.156-0.114-0.293-0.251-0.37c-2.1-1.182-2.842-4.928-3.104-7.367l1.447,2.62
			c0.451,0.644,1.321,0.866,2.026,0.514c0.419-0.209,0.725-0.59,0.837-1.045C19.063,13.339,18.978,12.868,18.716,12.49z"/>
		<circle cx="11.5" cy="3.5" r="2.5"/>
	</g>
</g>
<g id="Groom">
</g>
<g id="Mariage_Couple">
</g>
<g id="Wedding_Planner_Book">
</g>
<g id="Wedding_Cake_1">
</g>
<g id="Wedding_Cake_2">
</g>
<g id="Wedding_Cake_3">
</g>
<g id="Cake_Slice">
</g>
<g id="Marriage_Settlement">
</g>
<g id="Glass_Decoration">
</g>
<g id="Cutlery_Decoration">
</g>
<g id="Celebration_Glasses">
</g>
<g id="Wedding_Photo">
</g>
<g id="Wedding_Present_1">
</g>
<g id="Wedding_Present_2">
</g>
<g id="Wedding_Bouquet_2">
</g>
<g id="Hands_with_rings">
</g>
<g id="Wedding_Car">
</g>
<g id="Wedding_music">
</g>
<g id="wedding_party">
</g>
<g id="Confetti_1">
</g>
<g id="Confetti_2">
</g>
</svg>
