<?xml version="1.0" encoding="iso-8859-1"?>
<!-- Generator: Adobe Illustrator 19.2.1, SVG Export Plug-In . SVG Version: 6.00 Build 0)  -->
<svg version="1.1" xmlns="http://www.w3.org/2000/svg" xmlns:xlink="http://www.w3.org/1999/xlink" x="0px" y="0px"
	 viewBox="0 0 30 30" style="enable-background:new 0 0 30 30;" xml:space="preserve">
<g id="Flag">
</g>
<g id="Umbrella">
</g>
<g id="Briefcase">
	<g>
		<path d="M17.449,14c-0.232,1.14-1.242,2-2.449,2c-1.207,0-2.217-0.86-2.449-2H0v11c0,1.103,0.897,2,2,2h26c1.103,0,2-0.897,2-2V14
			H17.449z"/>
		<path d="M12.551,13c0.232-1.14,1.242-2,2.449-2c1.208,0,2.217,0.86,2.449,2H30V8c0-1.103-0.897-2-2-2h-8V4c0-1.103-0.897-2-2-2h-6
			c-1.103,0-2,0.897-2,2v2H2C0.897,6,0,6.897,0,8v5H12.551z M11,4c0-0.551,0.449-1,1-1h6c0.552,0,1,0.449,1,1v2h-8V4z"/>
	</g>
</g>
<g id="Box">
</g>
<g id="Magnet">
</g>
<g id="Percent">
</g>
<g id="Rocket">
</g>
<g id="Share">
</g>
<g id="Transmitter">
</g>
<g id="Record_2">
</g>
<g id="Record_1">
</g>
<g id="Anchor">
</g>
<g id="Airplane">
</g>
<g id="Car">
</g>
<g id="Newsfeed">
</g>
<g id="Wifi_Tethering">
</g>
<g id="No_Wifi_Tethering">
</g>
<g id="Bar_Chart_2">
</g>
<g id="Shop">
</g>
<g id="Alarm">
</g>
<g id="Sim_Card">
</g>
<g id="Radar">
</g>
<g id="Hand_2">
</g>
<g id="Palette">
</g>
<g id="Cake">
</g>
<g id="Blende">
</g>
<g id="Feather_Pen">
</g>
<g id="Ticket">
</g>
<g id="Medal">
</g>
<g id="Mouse_Pointer_1">
</g>
<g id="Mouse_Pointer_2">
</g>
<g id="Fingerprint">
</g>
<g id="Earth">
</g>
</svg>
