<?xml version="1.0" encoding="iso-8859-1"?>
<!-- Generator: Adobe Illustrator 19.2.1, SVG Export Plug-In . SVG Version: 6.00 Build 0)  -->
<svg version="1.1" xmlns="http://www.w3.org/2000/svg" xmlns:xlink="http://www.w3.org/1999/xlink" x="0px" y="0px"
	 viewBox="0 0 24 24" style="enable-background:new 0 0 24 24;" xml:space="preserve">
<g id="Flag">
</g>
<g id="Umbrella">
</g>
<g id="Briefcase">
	<g>
		<path d="M14,11c0,1.103-0.897,2-2,2c-1.103,0-2-0.897-2-2H0v9.5C0,21.327,0.673,22,1.5,22h21c0.827,0,1.5-0.673,1.5-1.5V11H14z"/>
		<path d="M10.278,10C10.625,9.405,11.263,9,12,9c0.737,0,1.375,0.405,1.722,1H24V6.5C24,5.673,23.327,5,22.5,5H16V3.5
			C16,2.673,15.327,2,14.5,2h-5C8.673,2,8,2.673,8,3.5V5H1.5C0.673,5,0,5.673,0,6.5V10H10.278z M9,3.5C9,3.224,9.224,3,9.5,3h5
			C14.775,3,15,3.224,15,3.5V5H9V3.5z"/>
		<circle cx="12" cy="11" r="1"/>
	</g>
</g>
<g id="Box">
</g>
<g id="Magnet">
</g>
<g id="Percent">
</g>
<g id="Rocket">
</g>
<g id="Share">
</g>
<g id="Transmitter">
</g>
<g id="Record_2">
</g>
<g id="Record_1">
</g>
<g id="Anchor">
</g>
<g id="Airplane">
</g>
<g id="Car">
</g>
<g id="Newsfeed">
</g>
<g id="Wifi_Tethering">
</g>
<g id="No_Wifi_Tethering">
</g>
<g id="Bar_Chart_2">
</g>
<g id="Shop">
</g>
<g id="Alarm">
</g>
<g id="Sim_Card">
</g>
<g id="Radar">
</g>
<g id="Hand_2">
</g>
<g id="Palette">
</g>
<g id="Cake">
</g>
<g id="Blende">
</g>
<g id="Feather_Pen">
</g>
<g id="Ticket">
</g>
<g id="Medal">
</g>
<g id="Mouse_Pointer_1">
</g>
<g id="Mouse_Pointer_2">
</g>
<g id="Fingerprint">
</g>
<g id="Earth">
</g>
</svg>
