<?xml version="1.0" encoding="iso-8859-1"?>
<!-- Generator: Adobe Illustrator 19.2.1, SVG Export Plug-In . SVG Version: 6.00 Build 0)  -->
<svg version="1.1" xmlns="http://www.w3.org/2000/svg" xmlns:xlink="http://www.w3.org/1999/xlink" x="0px" y="0px"
	 viewBox="0 0 30 30" style="enable-background:new 0 0 30 30;" xml:space="preserve">
<g id="Add_User">
</g>
<g id="Remove_User">
</g>
<g id="Delete_User">
</g>
<g id="Done">
</g>
<g id="At_Symbol">
</g>
<g id="Question">
</g>
<g id="Answer">
</g>
<g id="Bring_Up">
</g>
<g id="Bring_Down">
	<g>
		<g>
			<path d="M23.5,30c-3.584,0-6.5-2.916-6.5-6.5s2.916-6.5,6.5-6.5s6.5,2.916,6.5,6.5S27.084,30,23.5,30z M23.5,18
				c-3.032,0-5.5,2.467-5.5,5.5s2.468,5.5,5.5,5.5s5.5-2.467,5.5-5.5S26.532,18,23.5,18z"/>
		</g>
		<g>
			<path d="M23.5,30c-1.642,0-2.5-3.27-2.5-6.5s0.858-6.5,2.5-6.5s2.5,3.27,2.5,6.5S25.142,30,23.5,30z M23.5,18
				c-0.509,0-1.5,1.941-1.5,5.5s0.991,5.5,1.5,5.5s1.5-1.941,1.5-5.5S24.009,18,23.5,18z"/>
		</g>
		<g>
			<path d="M23.5,26c-3.23,0-6.5-0.859-6.5-2.5c0-3.282,13-3.282,13,0C30,25.141,26.73,26,23.5,26z M23.5,22
				c-3.559,0-5.5,0.991-5.5,1.5s1.941,1.5,5.5,1.5s5.5-0.991,5.5-1.5S27.059,22,23.5,22z"/>
		</g>
		<g>
			<path d="M17.5,30h-17C0.224,30,0,29.776,0,29.5c0-2.96,1.884-6.646,4.927-7.439l4.549-1.184l0.44-1.836
				c-1.161-1.227-1.955-2.907-2.185-4.612c-0.726-0.118-1.308-0.719-1.399-1.49l-0.294-2.445c-0.06-0.501,0.096-1.001,0.426-1.374
				C6.681,8.875,6.96,8.702,7.266,8.618C7.183,7.89,7.043,6.57,7.043,6.002c0-2.309,0.672-4.676,5.617-4.777
				C14.397,0,16.274,0,17.088,0c2.043,0,3.516,0.696,4.378,2.068c1.104,1.754,0.581,2.957-0.052,3.658l-0.467,0.487l-0.114,2.439
				c0.271,0.094,0.518,0.258,0.712,0.479c0.324,0.371,0.477,0.867,0.417,1.362l-0.294,2.445c-0.086,0.722-0.602,1.294-1.262,1.462
				c-0.116,0.88-0.389,1.774-0.797,2.609c-0.121,0.249-0.423,0.352-0.669,0.229c-0.248-0.122-0.351-0.421-0.229-0.669
				c0.417-0.853,0.673-1.772,0.74-2.659c0.021-0.261,0.237-0.462,0.499-0.462c0.395,0,0.683-0.271,0.726-0.63l0.294-2.445
				c0.025-0.214-0.039-0.426-0.177-0.584c-0.127-0.145-0.3-0.226-0.485-0.228c-0.136-0.001-0.265-0.058-0.358-0.157
				c-0.093-0.099-0.142-0.231-0.135-0.366l0.144-3.06c0.005-0.121,0.055-0.235,0.138-0.323l0.586-0.611
				C21.05,4.637,21.455,3.928,20.62,2.6C19.952,1.539,18.764,1,17.088,1c-1.215,0-2.635,0.133-3.963,1.124
				c-0.085,0.063-0.188,0.098-0.294,0.099C8.409,2.268,8.043,4.036,8.043,6.002c0,0.729,0.271,2.974,0.273,2.997
				C8.334,9.141,8.289,9.283,8.194,9.39S7.964,9.559,7.82,9.559H7.699c-0.186,0-0.359,0.08-0.487,0.224
				c-0.141,0.159-0.207,0.374-0.182,0.591l0.294,2.445c0.043,0.359,0.331,0.63,0.669,0.63h0.19c0.262,0,0.479,0.201,0.498,0.462
				c0.132,1.715,0.93,3.442,2.135,4.619c0.126,0.123,0.178,0.303,0.137,0.474l-0.575,2.397c-0.043,0.18-0.182,0.321-0.36,0.367
				l-4.839,1.26C2.837,23.639,1.216,26.503,1.02,29H17.5c0.276,0,0.5,0.224,0.5,0.5S17.776,30,17.5,30z"/>
		</g>
	</g>
</g>
<g id="Dismiss_User">
</g>
<g id="User_Speed">
</g>
<g id="User_Settings">
</g>
<g id="User_Refresh">
</g>
<g id="User_Time">
</g>
<g id="Dollar">
</g>
<g id="Euro">
</g>
<g id="Pound">
</g>
<g id="Bitcoin">
</g>
<g id="Global_User">
</g>
<g id="Waiting_User">
</g>
<g id="Writing_User_2">
</g>
<g id="Search_User">
</g>
<g id="Lock_User">
</g>
<g id="Mark_User">
</g>
<g id="Share_User">
</g>
<g id="Shopping">
</g>
<g id="User_Download">
</g>
<g id="User_Upload">
</g>
<g id="User_Statistics">
</g>
<g id="User_Defense">
</g>
<g id="User_Car">
</g>
<g id="User_Home">
</g>
<g id="Park">
</g>
<g id="Recicle_User">
</g>
<g id="Wifi">
</g>
<g id="Attach_User">
</g>
<g id="Disabled_User">
</g>
<g id="User_Card">
</g>
<g id="Gaming">
</g>
<g id="User_Cloud">
</g>
<g id="User_Database">
</g>
<g id="Copyright">
</g>
<g id="No_Copyright">
</g>
<g id="Creative_Commun">
</g>
<g id="Eco-Friendly">
</g>
<g id="Percentage">
</g>
<g id="User_Love">
</g>
<g id="User_Place">
</g>
<g id="User_Key">
</g>
<g id="Sleeping">
</g>
<g id="Add_User_2">
</g>
<g id="Remove_User_2">
</g>
<g id="Delete_User_2">
</g>
<g id="Done_2">
</g>
<g id="At_Symbol_2">
</g>
<g id="Question_2">
</g>
<g id="Answer_2">
</g>
<g id="Bring_Up_2">
</g>
<g id="Bring_Down_2">
</g>
<g id="Dismiss_User_2">
</g>
<g id="User_Speed_2">
</g>
<g id="User_Settings_2">
</g>
<g id="Refresh_2">
</g>
<g id="Time_2">
</g>
<g id="Dollar_2">
</g>
<g id="Euro_2">
</g>
<g id="Pound_2">
</g>
<g id="Bitcoin_2">
</g>
<g id="Global_User_2">
</g>
<g id="Waiting_User_2">
</g>
<g id="Writing_User">
</g>
<g id="Search_User_2">
</g>
<g id="Lock_User_2">
</g>
<g id="Mark_User_2">
</g>
<g id="Share_User_2">
</g>
<g id="Shopping_2">
</g>
<g id="Download_2">
</g>
<g id="Upload_2">
</g>
<g id="User_Statistics_2">
</g>
<g id="User_Defense_2">
</g>
<g id="Car_2">
</g>
<g id="Home_2">
</g>
<g id="Park_2">
</g>
<g id="Recicle_User_2">
</g>
<g id="User_Wifi">
</g>
<g id="Attach_2">
</g>
<g id="Disabled_User_2">
</g>
<g id="User_Card_2">
</g>
<g id="Gaming_2">
</g>
<g id="Cloud_2">
</g>
<g id="Database_2">
</g>
<g id="Copyright_2">
</g>
<g id="No_Copyright_2">
</g>
<g id="Creative_Commun_2">
</g>
<g id="Eco-Friendly_2">
</g>
<g id="Percentage_2">
</g>
<g id="User_Love_2">
</g>
<g id="User_Rate_2">
</g>
<g id="User_Key_2">
</g>
<g id="Sleeping_2">
</g>
</svg>
