<?xml version="1.0" encoding="iso-8859-1"?>
<!-- Generator: Adobe Illustrator 19.2.1, SVG Export Plug-In . SVG Version: 6.00 Build 0)  -->
<svg version="1.1" xmlns="http://www.w3.org/2000/svg" xmlns:xlink="http://www.w3.org/1999/xlink" x="0px" y="0px"
	 viewBox="0 0 30 30" style="enable-background:new 0 0 30 30;" xml:space="preserve">
<g id="Add_User">
</g>
<g id="Remove_User">
</g>
<g id="Delete_User">
</g>
<g id="Done">
</g>
<g id="At_Symbol">
</g>
<g id="Question">
</g>
<g id="Answer">
</g>
<g id="Bring_Up">
</g>
<g id="Bring_Down">
</g>
<g id="Dismiss_User">
</g>
<g id="User_Speed">
</g>
<g id="User_Settings">
</g>
<g id="User_Refresh">
</g>
<g id="User_Time">
</g>
<g id="Dollar">
</g>
<g id="Euro">
</g>
<g id="Pound">
</g>
<g id="Bitcoin">
</g>
<g id="Global_User">
</g>
<g id="Waiting_User">
</g>
<g id="Writing_User_2">
</g>
<g id="Search_User">
</g>
<g id="Lock_User">
</g>
<g id="Mark_User">
</g>
<g id="Share_User">
</g>
<g id="Shopping">
</g>
<g id="User_Download">
</g>
<g id="User_Upload">
</g>
<g id="User_Statistics">
</g>
<g id="User_Defense">
</g>
<g id="User_Car">
</g>
<g id="User_Home">
</g>
<g id="Park">
</g>
<g id="Recicle_User">
</g>
<g id="Wifi">
</g>
<g id="Attach_User">
</g>
<g id="Disabled_User">
</g>
<g id="User_Card">
</g>
<g id="Gaming">
</g>
<g id="User_Cloud">
</g>
<g id="User_Database">
</g>
<g id="Copyright">
</g>
<g id="No_Copyright">
</g>
<g id="Creative_Commun">
</g>
<g id="Eco-Friendly">
</g>
<g id="Percentage">
</g>
<g id="User_Love">
</g>
<g id="User_Place">
</g>
<g id="User_Key">
</g>
<g id="Sleeping">
</g>
<g id="Add_User_2">
</g>
<g id="Remove_User_2">
</g>
<g id="Delete_User_2">
</g>
<g id="Done_2">
</g>
<g id="At_Symbol_2">
</g>
<g id="Question_2">
</g>
<g id="Answer_2">
</g>
<g id="Bring_Up_2">
</g>
<g id="Bring_Down_2">
	<g>
		<g>
			<path d="M25.5,30c-0.16,0-0.31-0.076-0.404-0.205C24.677,29.221,21,24.113,21,21.7c0-2.592,2.019-4.7,4.5-4.7s4.5,2.108,4.5,4.7
				c0,2.413-3.677,7.521-4.096,8.095C25.81,29.924,25.66,30,25.5,30z M25.5,18c-1.93,0-3.5,1.66-3.5,3.7
				c0,1.578,2.245,5.134,3.5,6.937c1.255-1.803,3.5-5.358,3.5-6.937C29,19.66,27.43,18,25.5,18z"/>
		</g>
		<g>
			<path d="M23.056,30H0.5C0.224,30,0,29.776,0,29.5v-3.055c0-1.585,0.688-2.618,2.045-3.071l5.547-1.849
				c1.406-0.587,2.03-2.867,2.14-3.687C9.14,17.311,7.75,15.922,7.75,14.5c0-0.654-0.264-0.769-0.274-0.773
				C7.331,13.69,7.237,13.6,7.174,13.465C7.146,13.407,6.5,12.038,6.5,11C6.516,10.499,6.661,9.946,7,9.673V6.5
				C7,3.883,9.729,0,13.5,0c3.667,0,4.639,2.077,4.74,3.076C18.811,3.375,20,4.074,20,6.5v3.173c0.339,0.272,0.484,0.821,0.5,1.312
				c0,1.091-0.989,2.421-1.103,2.568c-0.068,0.091-0.166,0.155-0.276,0.183h0.001c0.008,0-0.247,0.121-0.247,0.765
				c0,1.223-0.504,2.403-1.358,3.21c0.106,0.842,0.732,3.228,2.176,3.828c0.251,0.104,0.383,0.395,0.284,0.647
				s-0.369,0.387-0.626,0.292l-0.021-0.008c-2.271-0.945-2.829-4.497-2.829-4.97c0-0.149,0.066-0.29,0.182-0.386
				c0.736-0.607,1.193-1.609,1.193-2.614c0-0.98,0.441-1.47,0.805-1.658c0.346-0.483,0.82-1.324,0.82-1.842
				c-0.007-0.174-0.055-0.407-0.105-0.511C19.169,10.44,19,10.24,19,10V6.5c0-1.902-0.831-2.335-1.277-2.566
				c-0.201-0.104-0.451-0.235-0.498-0.539c-0.011-0.067-0.001-0.147,0.021-0.226C17.187,2.526,16.43,1,13.5,1
				C10.142,1,8,4.611,8,6.5V10c0,0.24-0.169,0.44-0.396,0.489c-0.053,0.109-0.1,0.358-0.104,0.526c0,0.574,0.316,1.427,0.504,1.859
				C8.354,13.084,8.75,13.572,8.75,14.5c0,0.851,0.942,2.016,1.818,2.739c0.115,0.096,0.182,0.236,0.182,0.386
				c0,0.776-0.702,3.959-2.808,4.837l-5.581,1.861C1.42,24.638,1,25.292,1,26.445V29h22.056c0.276,0,0.5,0.224,0.5,0.5
				S23.332,30,23.056,30z"/>
		</g>
		<g>
			<path d="M25.5,24c-1.379,0-2.5-1.121-2.5-2.5s1.121-2.5,2.5-2.5s2.5,1.121,2.5,2.5S26.879,24,25.5,24z M25.5,20
				c-0.827,0-1.5,0.673-1.5,1.5s0.673,1.5,1.5,1.5s1.5-0.673,1.5-1.5S26.327,20,25.5,20z"/>
		</g>
	</g>
</g>
<g id="Dismiss_User_2">
</g>
<g id="User_Speed_2">
</g>
<g id="User_Settings_2">
</g>
<g id="Refresh_2">
</g>
<g id="Time_2">
</g>
<g id="Dollar_2">
</g>
<g id="Euro_2">
</g>
<g id="Pound_2">
</g>
<g id="Bitcoin_2">
</g>
<g id="Global_User_2">
</g>
<g id="Waiting_User_2">
</g>
<g id="Writing_User">
</g>
<g id="Search_User_2">
</g>
<g id="Lock_User_2">
</g>
<g id="Mark_User_2">
</g>
<g id="Share_User_2">
</g>
<g id="Shopping_2">
</g>
<g id="Download_2">
</g>
<g id="Upload_2">
</g>
<g id="User_Statistics_2">
</g>
<g id="User_Defense_2">
</g>
<g id="Car_2">
</g>
<g id="Home_2">
</g>
<g id="Park_2">
</g>
<g id="Recicle_User_2">
</g>
<g id="User_Wifi">
</g>
<g id="Attach_2">
</g>
<g id="Disabled_User_2">
</g>
<g id="User_Card_2">
</g>
<g id="Gaming_2">
</g>
<g id="Cloud_2">
</g>
<g id="Database_2">
</g>
<g id="Copyright_2">
</g>
<g id="No_Copyright_2">
</g>
<g id="Creative_Commun_2">
</g>
<g id="Eco-Friendly_2">
</g>
<g id="Percentage_2">
</g>
<g id="User_Love_2">
</g>
<g id="User_Rate_2">
</g>
<g id="User_Key_2">
</g>
<g id="Sleeping_2">
</g>
</svg>
