<?xml version="1.0" encoding="iso-8859-1"?>
<!-- Generator: Adobe Illustrator 19.2.1, SVG Export Plug-In . SVG Version: 6.00 Build 0)  -->
<svg version="1.1" xmlns="http://www.w3.org/2000/svg" xmlns:xlink="http://www.w3.org/1999/xlink" x="0px" y="0px"
	 viewBox="0 0 30 30" style="enable-background:new 0 0 30 30;" xml:space="preserve">
<g id="Add_User">
</g>
<g id="Remove_User">
</g>
<g id="Delete_User">
</g>
<g id="Done">
</g>
<g id="At_Symbol">
</g>
<g id="Question">
</g>
<g id="Answer">
</g>
<g id="Bring_Up">
</g>
<g id="Bring_Down">
	<g>
		<path d="M23.5,25c0.517,0,1-0.017,1.456-0.044C24.983,24.5,25,24.017,25,23.5s-0.017-1-0.044-1.456C24.5,22.017,24.017,22,23.5,22
			s-1,0.017-1.456,0.044C22.017,22.5,22,22.983,22,23.5s0.017,1,0.044,1.456C22.5,24.983,22.983,25,23.5,25z"/>
		<path d="M24.863,21.037C24.568,18.38,23.852,17,23.5,17s-1.068,1.38-1.363,4.037C22.59,21.012,23.047,21,23.5,21
			S24.41,21.012,24.863,21.037z"/>
		<path d="M25.963,22.137C25.988,22.59,26,23.047,26,23.5s-0.012,0.91-0.037,1.363C28.619,24.568,30,23.852,30,23.5
			S28.619,22.432,25.963,22.137z"/>
		<path d="M22.137,25.963C22.432,28.62,23.148,30,23.5,30s1.068-1.38,1.363-4.037C24.41,25.988,23.953,26,23.5,26
			S22.59,25.988,22.137,25.963z"/>
		<path d="M17,23.5c0,0.352,1.381,1.068,4.037,1.363C21.012,24.41,21,23.953,21,23.5s0.012-0.91,0.037-1.363
			C18.381,22.432,17,23.148,17,23.5z"/>
		<path d="M24.915,29.84c2.449-0.547,4.378-2.476,4.925-4.925c-0.95,0.492-2.388,0.81-3.958,0.967
			C25.725,27.452,25.408,28.89,24.915,29.84z"/>
		<path d="M29.84,22.085c-0.547-2.449-2.476-4.378-4.925-4.925c0.492,0.95,0.81,2.388,0.967,3.958
			C27.452,21.275,28.89,21.592,29.84,22.085z"/>
		<path d="M17.16,24.915c0.547,2.449,2.476,4.378,4.925,4.925c-0.492-0.95-0.81-2.388-0.967-3.958
			C19.548,25.725,18.11,25.408,17.16,24.915z"/>
		<path d="M22.085,17.16c-2.449,0.547-4.378,2.476-4.925,4.925c0.95-0.492,2.388-0.81,3.958-0.967
			C21.275,19.548,21.592,18.11,22.085,17.16z"/>
		<path d="M16,23.5c0-2.544,1.283-4.896,3.433-6.291c0.076-0.049,0.137-0.118,0.177-0.2c0.408-0.835,0.681-1.729,0.797-2.609
			c0.66-0.167,1.176-0.74,1.262-1.462l0.294-2.445c0.06-0.495-0.093-0.992-0.417-1.362c-0.194-0.221-0.44-0.385-0.712-0.479
			l0.114-2.439l0.467-0.487c0.633-0.701,1.155-1.904,0.052-3.658C20.604,0.696,19.131,0,17.088,0c-0.813,0-2.69,0-4.428,1.225
			C7.715,1.326,7.043,3.693,7.043,6.002c0,0.568,0.14,1.888,0.223,2.616C6.96,8.702,6.681,8.875,6.464,9.119
			c-0.33,0.373-0.485,0.873-0.426,1.374l0.294,2.445c0.092,0.771,0.674,1.372,1.399,1.49c0.229,1.706,1.023,3.385,2.185,4.612
			l-0.44,1.836l-4.549,1.184C1.884,22.854,0,26.54,0,29.5C0,29.776,0.224,30,0.5,30h17c0.251,0,0.463-0.186,0.496-0.435l0.083-0.635
			c0.019-0.146-0.027-0.292-0.126-0.401C16.693,27.142,16,25.356,16,23.5z"/>
	</g>
</g>
<g id="Dismiss_User">
</g>
<g id="User_Speed">
</g>
<g id="User_Settings">
</g>
<g id="User_Refresh">
</g>
<g id="User_Time">
</g>
<g id="Dollar">
</g>
<g id="Euro">
</g>
<g id="Pound">
</g>
<g id="Bitcoin">
</g>
<g id="Global_User">
</g>
<g id="Waiting_User">
</g>
<g id="Writing_User_2">
</g>
<g id="Search_User">
</g>
<g id="Lock_User">
</g>
<g id="Mark_User">
</g>
<g id="Share_User">
</g>
<g id="Shopping">
</g>
<g id="User_Download">
</g>
<g id="User_Upload">
</g>
<g id="User_Statistics">
</g>
<g id="User_Defense">
</g>
<g id="User_Car">
</g>
<g id="User_Home">
</g>
<g id="Park">
</g>
<g id="Recicle_User">
</g>
<g id="Wifi">
</g>
<g id="Attach_User">
</g>
<g id="Disabled_User">
</g>
<g id="User_Card">
</g>
<g id="Gaming">
</g>
<g id="User_Cloud">
</g>
<g id="User_Database">
</g>
<g id="Copyright">
</g>
<g id="No_Copyright">
</g>
<g id="Creative_Commun">
</g>
<g id="Eco-Friendly">
</g>
<g id="Percentage">
</g>
<g id="User_Love">
</g>
<g id="User_Place">
</g>
<g id="User_Key">
</g>
<g id="Sleeping">
</g>
<g id="Add_User_2">
</g>
<g id="Remove_User_2">
</g>
<g id="Delete_User_2">
</g>
<g id="Done_2">
</g>
<g id="At_Symbol_2">
</g>
<g id="Question_2">
</g>
<g id="Answer_2">
</g>
<g id="Bring_Up_2">
</g>
<g id="Bring_Down_2">
</g>
<g id="Dismiss_User_2">
</g>
<g id="User_Speed_2">
</g>
<g id="User_Settings_2">
</g>
<g id="Refresh_2">
</g>
<g id="Time_2">
</g>
<g id="Dollar_2">
</g>
<g id="Euro_2">
</g>
<g id="Pound_2">
</g>
<g id="Bitcoin_2">
</g>
<g id="Global_User_2">
</g>
<g id="Waiting_User_2">
</g>
<g id="Writing_User">
</g>
<g id="Search_User_2">
</g>
<g id="Lock_User_2">
</g>
<g id="Mark_User_2">
</g>
<g id="Share_User_2">
</g>
<g id="Shopping_2">
</g>
<g id="Download_2">
</g>
<g id="Upload_2">
</g>
<g id="User_Statistics_2">
</g>
<g id="User_Defense_2">
</g>
<g id="Car_2">
</g>
<g id="Home_2">
</g>
<g id="Park_2">
</g>
<g id="Recicle_User_2">
</g>
<g id="User_Wifi">
</g>
<g id="Attach_2">
</g>
<g id="Disabled_User_2">
</g>
<g id="User_Card_2">
</g>
<g id="Gaming_2">
</g>
<g id="Cloud_2">
</g>
<g id="Database_2">
</g>
<g id="Copyright_2">
</g>
<g id="No_Copyright_2">
</g>
<g id="Creative_Commun_2">
</g>
<g id="Eco-Friendly_2">
</g>
<g id="Percentage_2">
</g>
<g id="User_Love_2">
</g>
<g id="User_Rate_2">
</g>
<g id="User_Key_2">
</g>
<g id="Sleeping_2">
</g>
</svg>
