<?xml version="1.0" encoding="iso-8859-1"?>
<!-- Generator: Adobe Illustrator 19.2.1, SVG Export Plug-In . SVG Version: 6.00 Build 0)  -->
<svg version="1.1" xmlns="http://www.w3.org/2000/svg" xmlns:xlink="http://www.w3.org/1999/xlink" x="0px" y="0px"
	 viewBox="0 0 30 30" style="enable-background:new 0 0 30 30;" xml:space="preserve">
<g id="Mail">
</g>
<g id="Open_Mail">
</g>
<g id="Mail_Attachmet">
</g>
<g id="Mails">
</g>
<g id="Trash">
</g>
<g id="Trash_Full">
</g>
<g id="Preferences_1">
</g>
<g id="Preferences_2">
</g>
<g id="Mouse">
</g>
<g id="Computer">
</g>
<g id="Notebook">
</g>
<g id="Mobile_Phone">
</g>
<g id="Print">
</g>
<g id="Calculator">
</g>
<g id="Tag">
</g>
<g id="Paperclip">
</g>
<g id="Heart">
</g>
<g id="Lock">
</g>
<g id="Lock_Open">
</g>
<g id="Key_1">
</g>
<g id="Star">
</g>
<g id="Add">
</g>
<g id="Remove">
</g>
<g id="Error">
</g>
<g id="Check_1">
</g>
<g id="Time">
</g>
<g id="Question_Mark">
</g>
<g id="Error_Mark">
</g>
<g id="Sand-Glass">
</g>
<g id="Battery_Full">
</g>
<g id="Battery_Charge">
</g>
<g id="Battery_Half">
</g>
<g id="Battery_Low">
</g>
<g id="No_Battery">
</g>
<g id="Key_2">
</g>
<g id="Link">
</g>
<g id="Brake_Link">
</g>
<g id="Pencil">
</g>
<g id="At">
</g>
<g id="Reply">
</g>
<g id="Accessible">
</g>
<g id="Up_Arrow">
</g>
<g id="Brush">
	<g>
		<g>
			<path d="M0.5,30c-0.064,0-0.129-0.012-0.191-0.038C0.122,29.885,0,29.702,0,29.5c0-5.639,5.027-10.587,8.065-10.587
				c0.133,0,0.26,0.053,0.354,0.146l2.521,2.521c0.094,0.094,0.146,0.221,0.146,0.354c0,3.146-1.494,5.112-4.205,5.538l-0.799,0.121
				c-2.173,0.322-3.485,0.517-5.229,2.261C0.758,29.949,0.63,30,0.5,30z M7.868,19.922c-2.247,0.208-6.186,3.832-6.789,8.395
				c1.578-1.228,3.002-1.439,4.857-1.714l0.791-0.12c2.675-0.419,3.314-2.548,3.358-4.345L7.868,19.922z"/>
		</g>
		<g>
			<path d="M10.587,22.435c-0.171,0-0.338-0.088-0.431-0.246c-0.14-0.238-0.061-0.544,0.177-0.685
				c0.046-0.027,4.612-2.744,9.987-8.118c4.605-4.605,7.71-9.065,8.538-10.299l-1.945-1.945C25.679,1.97,21.215,5.079,16.614,9.68
				c-5.375,5.375-8.091,9.941-8.118,9.987c-0.141,0.237-0.447,0.316-0.685,0.177c-0.238-0.14-0.317-0.446-0.177-0.684
				c0.028-0.047,2.801-4.715,8.273-10.187c5.465-5.466,10.749-8.86,10.802-8.894c0.198-0.126,0.456-0.099,0.623,0.068l2.522,2.522
				c0.166,0.166,0.194,0.425,0.068,0.623c-0.034,0.053-3.428,5.336-8.894,10.802c-5.472,5.472-10.14,8.245-10.187,8.273
				C10.761,22.412,10.674,22.435,10.587,22.435z"/>
		</g>
		<g>
			<path d="M16.261,18.022c-0.128,0-0.256-0.049-0.354-0.146l-3.783-3.783c-0.195-0.195-0.195-0.512,0-0.707s0.512-0.195,0.707,0
				l3.783,3.783c0.195,0.195,0.195,0.512,0,0.707C16.517,17.973,16.389,18.022,16.261,18.022z"/>
		</g>
	</g>
</g>
<g id="Design_Mug">
</g>
<g id="Design">
</g>
<g id="Server">
</g>
<g id="Database">
</g>
<g id="Save">
</g>
<g id="Female">
</g>
<g id="Male">
</g>
<g id="Book">
</g>
<g id="Power">
</g>
<g id="Reload">
</g>
<g id="Map">
</g>
<g id="Loction_1">
</g>
<g id="Location_2">
</g>
<g id="Globe">
</g>
<g id="Suitcase">
</g>
<g id="Callendar">
</g>
<g id="Cloud_Off">
</g>
<g id="File_1">
</g>
<g id="File_2">
</g>
<g id="Folder">
</g>
<g id="Open_Folder">
</g>
<g id="Cloud">
</g>
<g id="Upload_Cloud">
</g>
<g id="Download_Cloud">
</g>
<g id="Eye">
</g>
<g id="Invisible">
</g>
<g id="Assignment">
</g>
<g id="Note_Book">
</g>
<g id="Webpage">
</g>
<g id="Mailbox">
</g>
<g id="Drive">
</g>
<g id="Disc">
</g>
<g id="Wifi_1">
</g>
<g id="Wifi_2">
</g>
<g id="Archive">
</g>
<g id="Archive_File">
</g>
<g id="News">
</g>
<g id="Home">
</g>
<g id="Collaboration">
</g>
<g id="Announcement">
</g>
<g id="Watch">
</g>
<g id="Clock">
</g>
<g id="Volume">
</g>
<g id="Mute">
</g>
<g id="Hand">
</g>
<g id="Layers">
</g>
<g id="Bell">
</g>
<g id="Speach_Bubble">
</g>
<g id="Speach_Bubbles">
</g>
<g id="Zoom_In">
</g>
<g id="Zoom_Out">
</g>
<g id="Search">
</g>
<g id="Back_Arrow">
</g>
<g id="Close">
</g>
<g id="Check_2">
</g>
<g id="Left_Arrow_2">
</g>
<g id="Right_Arrow_2">
</g>
</svg>
