<?xml version="1.0" encoding="iso-8859-1"?>
<!-- Generator: Adobe Illustrator 19.2.1, SVG Export Plug-In . SVG Version: 6.00 Build 0)  -->
<svg version="1.1" xmlns="http://www.w3.org/2000/svg" xmlns:xlink="http://www.w3.org/1999/xlink" x="0px" y="0px"
	 viewBox="0 0 30 30" style="enable-background:new 0 0 30 30;" xml:space="preserve">
<g id="Sun_Light">
</g>
<g id="Sunglasses">
</g>
<g id="T-Shirt_1">
</g>
<g id="T-Shirt_2">
</g>
<g id="Mini_Dress">
</g>
<g id="Flip-Flops">
</g>
<g id="Temperature">
</g>
<g id="Hot_Temperature">
</g>
<g id="Ice_Lolly">
</g>
<g id="Icecream">
</g>
<g id="Limonade_1">
</g>
<g id="Limonade_2">
</g>
<g id="Hat">
</g>
<g id="Straw_Hat">
</g>
<g id="Deckchair">
</g>
<g id="Sunshade">
</g>
<g id="Suncream">
</g>
<g id="Suntan_Oil">
</g>
<g id="Swimming_Trunks">
</g>
<g id="Bikini">
</g>
<g id="Pool">
</g>
<g id="Pool_Ladder">
</g>
<g id="Grill">
</g>
<g id="Kite_1">
</g>
<g id="Kite_2">
</g>
<g id="Badminton">
</g>
<g id="Cooler">
</g>
<g id="Strand_Bag">
</g>
<g id="Towel">
</g>
<g id="Strand_Ball">
</g>
<g id="Beach_Sign">
</g>
<g id="Toos">
</g>
<g id="Bucket">
	<g>
		<g id="XMLID_272_">
			<path d="M15,14c-4.969,0-10-1.03-10-3s5.031-3,10-3s10,1.03,10,3S19.969,14,15,14z M15,9c-5.823,0-9,1.321-9,2s3.177,2,9,2
				s9-1.321,9-2S20.823,9,15,9z"/>
		</g>
		<g>
			<path d="M15,30c-0.635,0-6.139-0.05-6.287-1.759l-3.13-13.337c-0.063-0.269,0.104-0.538,0.373-0.601
				c0.269-0.068,0.538,0.103,0.601,0.372l3.14,13.38c0.009,0.037,0.013,0.076,0.013,0.114C9.892,28.4,11.708,29,15,29
				s5.108-0.6,5.308-0.906l3.136-13.418c0.063-0.27,0.331-0.44,0.601-0.372c0.269,0.063,0.436,0.332,0.373,0.601l-3.13,13.337
				C21.139,29.95,15.635,30,15,30z"/>
		</g>
		<g id="XMLID_275_">
			<path d="M24.5,11c-0.276,0-0.5-0.224-0.5-0.5V9.875C24,4.981,19.962,1,15,1S6,4.981,6,9.875V10.5C6,10.776,5.776,11,5.5,11
				S5,10.776,5,10.5V9.875C5,4.43,9.486,0,15,0s10,4.43,10,9.875V10.5C25,10.776,24.776,11,24.5,11z"/>
		</g>
		<g id="XMLID_273_">
			<path d="M15,16.993c-4.969,0-10-1.056-10-3.074v-3.426c0-0.276,0.224-0.5,0.5-0.5s0.5,0.224,0.5,0.5v3.426
				c0,0.704,3.177,2.074,9,2.074s9-1.37,9-2.074v-3.426c0-0.276,0.224-0.5,0.5-0.5s0.5,0.224,0.5,0.5v3.426
				C25,15.938,19.969,16.993,15,16.993z"/>
		</g>
	</g>
</g>
<g id="Sand_Castle">
</g>
<g id="Shell_1">
</g>
<g id="Shell_2">
</g>
<g id="Surf_Board">
</g>
<g id="Float">
</g>
<g id="Vacation_Photo">
</g>
<g id="Summer_Time">
</g>
<g id="Boat">
</g>
<g id="Lifebuoy">
</g>
<g id="Lighthouse">
</g>
<g id="Sunset">
</g>
<g id="Dolphin">
</g>
<g id="Starfish">
</g>
<g id="Diving_Mask">
</g>
<g id="Sailboat">
</g>
<g id="Captin_Hat">
</g>
<g id="Eudder">
</g>
</svg>
