<?xml version="1.0" encoding="iso-8859-1"?>
<!-- Generator: Adobe Illustrator 19.2.1, SVG Export Plug-In . SVG Version: 6.00 Build 0)  -->
<svg version="1.1" xmlns="http://www.w3.org/2000/svg" xmlns:xlink="http://www.w3.org/1999/xlink" x="0px" y="0px"
	 viewBox="0 0 30 30" style="enable-background:new 0 0 30 30;" xml:space="preserve">
<g id="Cad_1">
</g>
<g id="Cad_2">
</g>
<g id="Cad_Pencil">
</g>
<g id="Cad_Compasses">
</g>
<g id="Tools_1">
</g>
<g id="Tools_2">
</g>
<g id="Ruler_1">
</g>
<g id="Ruler_2">
</g>
<g id="Workspace_1">
</g>
<g id="Workspace_2">
</g>
<g id="Cad_3">
</g>
<g id="_x33_D_Box">
</g>
<g id="Section_Symbol">
</g>
<g id="Outlet_Symbol">
</g>
<g id="Cad_File">
</g>
<g id="Blueprint">
</g>
<g id="Construction_Plan">
</g>
<g id="Roof_Plan">
</g>
<g id="House_Construction">
</g>
<g id="Building_Construction">
</g>
<g id="Work_Table">
</g>
<g id="Table_Cad">
</g>
<g id="House_Plan">
</g>
<g id="Tape_Measure">
</g>
<g id="Cad_Paper">
</g>
<g id="Cad_Papers">
</g>
<g id="Stairs">
</g>
<g id="Pillar">
</g>
<g id="Bricks">
</g>
<g id="Pantheon">
</g>
<g id="House">
</g>
<g id="Skyscraper">
</g>
<g id="Building">
	<g>
		<path d="M22.5,2h-16C6.224,2,6,2.224,6,2.5v27C6,29.776,6.224,30,6.5,30H16v-4.5c0-0.276,0.224-0.5,0.5-0.5h4
			c0.276,0,0.5,0.224,0.5,0.5V30h1.5c0.276,0,0.5-0.224,0.5-0.5v-27C23,2.224,22.776,2,22.5,2z M10,26.5c0,0.276-0.224,0.5-0.5,0.5
			S9,26.776,9,26.5v-1C9,25.224,9.224,25,9.5,25s0.5,0.224,0.5,0.5V26.5z M10,21.5c0,0.276-0.224,0.5-0.5,0.5S9,21.776,9,21.5v-1
			C9,20.224,9.224,20,9.5,20s0.5,0.224,0.5,0.5V21.5z M10,16.5c0,0.276-0.224,0.5-0.5,0.5S9,16.776,9,16.5v-1
			C9,15.224,9.224,15,9.5,15s0.5,0.224,0.5,0.5V16.5z M10,11.5c0,0.276-0.224,0.5-0.5,0.5S9,11.776,9,11.5v-1
			C9,10.224,9.224,10,9.5,10s0.5,0.224,0.5,0.5V11.5z M10,6.5C10,6.776,9.776,7,9.5,7S9,6.776,9,6.5v-1C9,5.224,9.224,5,9.5,5
			S10,5.224,10,5.5V6.5z M13,26.5c0,0.276-0.224,0.5-0.5,0.5S12,26.776,12,26.5v-1c0-0.276,0.224-0.5,0.5-0.5s0.5,0.224,0.5,0.5
			V26.5z M13,21.5c0,0.276-0.224,0.5-0.5,0.5S12,21.776,12,21.5v-1c0-0.276,0.224-0.5,0.5-0.5s0.5,0.224,0.5,0.5V21.5z M13,16.5
			c0,0.276-0.224,0.5-0.5,0.5S12,16.776,12,16.5v-1c0-0.276,0.224-0.5,0.5-0.5s0.5,0.224,0.5,0.5V16.5z M13,11.5
			c0,0.276-0.224,0.5-0.5,0.5S12,11.776,12,11.5v-1c0-0.276,0.224-0.5,0.5-0.5s0.5,0.224,0.5,0.5V11.5z M13,6.5
			C13,6.776,12.776,7,12.5,7S12,6.776,12,6.5v-1C12,5.224,12.224,5,12.5,5S13,5.224,13,5.5V6.5z M17,21.5c0,0.276-0.224,0.5-0.5,0.5
			S16,21.776,16,21.5v-1c0-0.276,0.224-0.5,0.5-0.5s0.5,0.224,0.5,0.5V21.5z M17,16.5c0,0.276-0.224,0.5-0.5,0.5S16,16.776,16,16.5
			v-1c0-0.276,0.224-0.5,0.5-0.5s0.5,0.224,0.5,0.5V16.5z M17,11.5c0,0.276-0.224,0.5-0.5,0.5S16,11.776,16,11.5v-1
			c0-0.276,0.224-0.5,0.5-0.5s0.5,0.224,0.5,0.5V11.5z M17,6.5C17,6.776,16.776,7,16.5,7S16,6.776,16,6.5v-1
			C16,5.224,16.224,5,16.5,5S17,5.224,17,5.5V6.5z M20,21.5c0,0.276-0.224,0.5-0.5,0.5S19,21.776,19,21.5v-1
			c0-0.276,0.224-0.5,0.5-0.5s0.5,0.224,0.5,0.5V21.5z M20,16.5c0,0.276-0.224,0.5-0.5,0.5S19,16.776,19,16.5v-1
			c0-0.276,0.224-0.5,0.5-0.5s0.5,0.224,0.5,0.5V16.5z M20,11.5c0,0.276-0.224,0.5-0.5,0.5S19,11.776,19,11.5v-1
			c0-0.276,0.224-0.5,0.5-0.5s0.5,0.224,0.5,0.5V11.5z M20,6.5C20,6.776,19.776,7,19.5,7S19,6.776,19,6.5v-1
			C19,5.224,19.224,5,19.5,5S20,5.224,20,5.5V6.5z"/>
		<path d="M22,0.5C22,0.224,21.776,0,21.5,0h-14C7.224,0,7,0.224,7,0.5V1h15V0.5z"/>
	</g>
</g>
</svg>
