<?xml version="1.0" encoding="iso-8859-1"?>
<!-- Generator: Adobe Illustrator 19.2.1, SVG Export Plug-In . SVG Version: 6.00 Build 0)  -->
<svg version="1.1" xmlns="http://www.w3.org/2000/svg" xmlns:xlink="http://www.w3.org/1999/xlink" x="0px" y="0px"
	 viewBox="0 0 24 24" style="enable-background:new 0 0 24 24;" xml:space="preserve">
<g id="Cad_1">
</g>
<g id="Cad_2">
</g>
<g id="Cad_Pencil">
</g>
<g id="Cad_Compasses">
</g>
<g id="Tools_1">
</g>
<g id="Tools_2">
</g>
<g id="Ruler_1">
</g>
<g id="Ruler_2">
</g>
<g id="Workspace_1">
</g>
<g id="Workspace_2">
</g>
<g id="Cad_3">
</g>
<g id="_x33_D_Box">
</g>
<g id="Section_Symbol">
</g>
<g id="Outlet_Symbol">
</g>
<g id="Cad_File">
</g>
<g id="Blueprint">
</g>
<g id="Construction_Plan">
</g>
<g id="Roof_Plan">
</g>
<g id="House_Construction">
</g>
<g id="Building_Construction">
</g>
<g id="Work_Table">
</g>
<g id="Table_Cad">
</g>
<g id="House_Plan">
</g>
<g id="Tape_Measure">
</g>
<g id="Cad_Paper">
</g>
<g id="Cad_Papers">
</g>
<g id="Stairs">
</g>
<g id="Pillar">
</g>
<g id="Bricks">
</g>
<g id="Pantheon">
</g>
<g id="House">
</g>
<g id="Skyscraper">
</g>
<g id="Building">
	<g>
		<path d="M18.5,2h-13C5.224,2,5,2.224,5,2.5v21C5,23.776,5.224,24,5.5,24H13v-3.5c0-0.276,0.224-0.5,0.5-0.5h3
			c0.276,0,0.5,0.224,0.5,0.5V24h1.5c0.276,0,0.5-0.224,0.5-0.5v-21C19,2.224,18.776,2,18.5,2z M8,21.5C8,21.776,7.776,22,7.5,22
			S7,21.776,7,21.5v-1C7,20.224,7.224,20,7.5,20S8,20.224,8,20.5V21.5z M8,17.5C8,17.776,7.776,18,7.5,18S7,17.776,7,17.5v-1
			C7,16.224,7.224,16,7.5,16S8,16.224,8,16.5V17.5z M8,13.5C8,13.776,7.776,14,7.5,14S7,13.776,7,13.5v-1C7,12.224,7.224,12,7.5,12
			S8,12.224,8,12.5V13.5z M8,9.5C8,9.776,7.776,10,7.5,10S7,9.776,7,9.5v-1C7,8.224,7.224,8,7.5,8S8,8.224,8,8.5V9.5z M8,5.5
			C8,5.776,7.776,6,7.5,6S7,5.776,7,5.5v-1C7,4.224,7.224,4,7.5,4S8,4.224,8,4.5V5.5z M11,21.5c0,0.276-0.224,0.5-0.5,0.5
			S10,21.776,10,21.5v-1c0-0.276,0.224-0.5,0.5-0.5s0.5,0.224,0.5,0.5V21.5z M11,17.5c0,0.276-0.224,0.5-0.5,0.5S10,17.776,10,17.5
			v-1c0-0.276,0.224-0.5,0.5-0.5s0.5,0.224,0.5,0.5V17.5z M11,13.5c0,0.276-0.224,0.5-0.5,0.5S10,13.776,10,13.5v-1
			c0-0.276,0.224-0.5,0.5-0.5s0.5,0.224,0.5,0.5V13.5z M11,9.5c0,0.276-0.224,0.5-0.5,0.5S10,9.776,10,9.5v-1
			C10,8.224,10.224,8,10.5,8S11,8.224,11,8.5V9.5z M11,5.5C11,5.776,10.776,6,10.5,6S10,5.776,10,5.5v-1C10,4.224,10.224,4,10.5,4
			S11,4.224,11,4.5V5.5z M14,17.5c0,0.276-0.224,0.5-0.5,0.5S13,17.776,13,17.5v-1c0-0.276,0.224-0.5,0.5-0.5s0.5,0.224,0.5,0.5
			V17.5z M14,13.5c0,0.276-0.224,0.5-0.5,0.5S13,13.776,13,13.5v-1c0-0.276,0.224-0.5,0.5-0.5s0.5,0.224,0.5,0.5V13.5z M14,9.5
			c0,0.276-0.224,0.5-0.5,0.5S13,9.776,13,9.5v-1C13,8.224,13.224,8,13.5,8S14,8.224,14,8.5V9.5z M14,5.5C14,5.776,13.776,6,13.5,6
			S13,5.776,13,5.5v-1C13,4.224,13.224,4,13.5,4S14,4.224,14,4.5V5.5z M17,17.5c0,0.276-0.224,0.5-0.5,0.5S16,17.776,16,17.5v-1
			c0-0.276,0.224-0.5,0.5-0.5s0.5,0.224,0.5,0.5V17.5z M17,13.5c0,0.276-0.224,0.5-0.5,0.5S16,13.776,16,13.5v-1
			c0-0.276,0.224-0.5,0.5-0.5s0.5,0.224,0.5,0.5V13.5z M17,9.5c0,0.276-0.224,0.5-0.5,0.5S16,9.776,16,9.5v-1
			C16,8.224,16.224,8,16.5,8S17,8.224,17,8.5V9.5z M17,5.5C17,5.776,16.776,6,16.5,6S16,5.776,16,5.5v-1C16,4.224,16.224,4,16.5,4
			S17,4.224,17,4.5V5.5z"/>
		<path d="M18,0.5C18,0.224,17.776,0,17.5,0h-11C6.224,0,6,0.224,6,0.5V1h12V0.5z"/>
	</g>
</g>
</svg>
