<?xml version="1.0" encoding="iso-8859-1"?>
<!-- Generator: Adobe Illustrator 19.2.1, SVG Export Plug-In . SVG Version: 6.00 Build 0)  -->
<svg version="1.1" xmlns="http://www.w3.org/2000/svg" xmlns:xlink="http://www.w3.org/1999/xlink" x="0px" y="0px"
	 viewBox="0 0 24 24" style="enable-background:new 0 0 24 24;" xml:space="preserve">
<g id="Egg_1_">
</g>
<g id="Easter_Egg_1">
</g>
<g id="Easter_Egg_2">
</g>
<g id="Easter_Egg_3">
</g>
<g id="Eggs_1">
</g>
<g id="Eggs_2_1_">
</g>
<g id="Bunny">
	<g>
		<path d="M22.945,14.748C22.967,14.998,23,15.246,23,15.5c0,1.008-0.204,2.003-0.553,2.945C23.334,18.241,24,17.449,24,16.5
			C24,15.74,23.57,15.087,22.945,14.748z"/>
		<path d="M8.025,3.844C7.977,3.99,7.999,4.149,8.084,4.277l1,1.5C9.177,5.917,9.333,6,9.5,6c0.926,0,2.066,0.569,2.596,1.294
			c0.399,0.548,0.725,1.314,0.829,1.958l0.582,3.328c0.112,0.696,0.528,1.306,1.141,1.672c0.384,0.23,0.815,0.348,1.247,0.348
			c0.259,0,0.519-0.042,0.768-0.127C17.524,14.177,18,13.328,18,12c0-2.069-0.466-3.924-1.511-6.015
			C16,5.006,15.181,4.181,15.163,4.165c-1.381-1.525-3.168-2.042-4.761-1.385L8.33,3.53C8.186,3.582,8.073,3.698,8.025,3.844z"/>
		<path d="M18.726,9.298C18.908,10.181,19,11.069,19,12c0,2.374-1.262,3.161-2.014,3.419c-0.351,0.121-0.718,0.182-1.092,0.182
			c-0.618,0-1.228-0.17-1.762-0.491c-0.409-0.245-0.749-0.572-1.019-0.947c-0.301,0.19-0.582,0.411-0.83,0.674
			c-0.747,0.792-1.158,1.827-1.158,2.916c0,0.889,0.271,1.739,0.784,2.459c0.16,0.225,0.107,0.537-0.117,0.697
			c-0.088,0.063-0.189,0.093-0.29,0.093c-0.156,0-0.31-0.073-0.407-0.21c-0.635-0.891-0.97-1.941-0.97-3.04
			c0-1.345,0.509-2.625,1.432-3.603c0.328-0.349,0.702-0.644,1.106-0.888c-0.057-0.171-0.115-0.342-0.144-0.522l-0.58-3.314
			c-0.055-0.34-0.196-0.728-0.375-1.077c-0.037,0.104-0.069,0.209-0.111,0.311c-0.078,0.194-0.266,0.312-0.463,0.312
			c-0.063,0-0.127-0.012-0.188-0.037c-0.256-0.104-0.379-0.396-0.274-0.651c0.11-0.27,0.196-0.55,0.269-0.831
			C10.402,7.191,9.906,7,9.5,7C8.997,7,8.531,6.75,8.252,6.332l-1-1.5C6.993,4.442,6.93,3.967,7.077,3.526
			C7.22,3.091,7.554,2.747,7.99,2.589l1.937-0.701c-0.385-0.33-0.819-0.595-1.355-0.734C8.178,1.052,7.769,1,7.355,1
			C4.998,1,0.743,3.644,0.093,6.219C0.187,6.085,0.336,6,0.5,6h1c0.173,0,0.334,0.09,0.426,0.237
			c0.091,0.147,0.099,0.332,0.021,0.486l-0.5,1C1.362,7.893,1.189,8,1,8S0.638,7.893,0.553,7.724l-0.5-1
			C0.034,6.686,0.036,6.645,0.028,6.605C0.018,6.693,0,6.781,0,6.869c0,1.933,2.264,3.522,4.266,4.372C4.089,11.808,4,12.398,4,13
			c0,2.269,1.257,4.319,3.291,5.354l0.301,0.145C7.611,18,7.509,17.25,7.282,15.805c-0.036-0.233-0.144-0.702-0.208-0.93
			c-0.076-0.266,0.077-0.542,0.343-0.618c0.267-0.078,0.543,0.079,0.618,0.343c0.074,0.257,0.193,0.786,0.235,1.05
			c0.338,2.158,0.371,2.998,0.282,3.455L9.872,20H8c-1.379,0-2.5,1.122-2.5,2.5C5.5,22.776,5.724,23,6,23h13.28
			c0.451,0,0.874-0.2,1.16-0.549c0.286-0.349,0.399-0.803,0.311-1.245l-0.243-1.215C21.472,18.701,22,17.116,22,15.5
			C22,12.967,20.726,10.641,18.726,9.298z M6.5,6C6.224,6,6,5.776,6,5.5C6,5.224,6.224,5,6.5,5S7,5.224,7,5.5C7,5.776,6.776,6,6.5,6
			z"/>
		<path d="M6.784,19.218c-0.75-0.392-1.394-0.911-1.941-1.508c0.149,2.254-0.356,2.475-0.749,2.639
			c-0.633,0.266-1.193,0.632-1.093,2.184C3.018,22.795,3.236,23,3.5,23h1.092C4.536,22.843,4.5,22.676,4.5,22.5
			C4.5,20.998,5.452,19.713,6.784,19.218z"/>
	</g>
</g>
<g id="Sheep">
</g>
<g id="Bell_Alarm">
</g>
<g id="Calendar">
</g>
<g id="Tulip">
</g>
<g id="Chicken">
</g>
<g id="Chicken_2">
</g>
<g id="Baguette">
</g>
<g id="Ham_1_">
</g>
<g id="Bell_2">
</g>
<g id="Bell_3">
</g>
<g id="Bell_4">
</g>
<g id="Easter_celebration">
</g>
<g id="Egg_painting">
</g>
<g id="Easter_willow">
</g>
<g id="Daffodil">
</g>
<g id="Easter_message">
</g>
<g id="Bunny_2">
</g>
<g id="Chicken_3">
</g>
<g id="Tulip_2">
</g>
<g id="Easter_basket">
</g>
<g id="Bread_and_wine">
</g>
<g id="Sheep_2">
</g>
<g id="Candle_Light">
</g>
</svg>
