<?xml version="1.0" encoding="iso-8859-1"?>
<!-- Generator: Adobe Illustrator 19.2.1, SVG Export Plug-In . SVG Version: 6.00 Build 0)  -->
<svg version="1.1" xmlns="http://www.w3.org/2000/svg" xmlns:xlink="http://www.w3.org/1999/xlink" x="0px" y="0px"
	 viewBox="0 0 30 30" style="enable-background:new 0 0 30 30;" xml:space="preserve">
<g id="Egg">
</g>
<g id="Easter_Egg_1">
</g>
<g id="Easter_Egg_2">
</g>
<g id="Easter_Egg_3">
</g>
<g id="Eggs_1">
</g>
<g id="Eggs_2">
</g>
<g id="Bunny">
</g>
<g id="Sheep">
</g>
<g id="Bell_Alarm">
</g>
<g id="Calendar">
</g>
<g id="Tulip">
</g>
<g id="Chicken">
</g>
<g id="Chicken_2">
</g>
<g id="Baguette">
</g>
<g id="Ham">
</g>
<g id="Bell_2">
</g>
<g id="Bell_3">
</g>
<g id="Bell_4">
</g>
<g id="Easter_celebration">
</g>
<g id="Egg_painting">
</g>
<g id="Easter_willow">
</g>
<g id="Daffodil">
</g>
<g id="Easter_message">
</g>
<g id="Bunny_2">
	<g>
		<path d="M25.718,22.435c0.276,0,0.5-0.224,0.5-0.5s-0.224-0.5-0.5-0.5h-2.061c0.02-0.252,0.039-0.504,0.039-0.761
			c0-5.143-4.184-9.326-9.326-9.326c-5.143,0-9.326,4.184-9.326,9.326c0,0.257,0.018,0.509,0.039,0.761h-2.06
			c-0.276,0-0.5,0.224-0.5,0.5s0.224,0.5,0.5,0.5h2.193c0.138,0.718,0.36,1.405,0.653,2.055L2.9,25.232
			C2.633,25.3,2.47,25.571,2.537,25.839c0.057,0.228,0.26,0.379,0.484,0.379c0.04,0,0.081-0.005,0.122-0.015l3.201-0.801
			c0.241,0.408,0.506,0.8,0.805,1.166l-1.883,1.255c-0.23,0.153-0.292,0.464-0.139,0.693c0.096,0.145,0.255,0.223,0.417,0.223
			c0.095,0,0.191-0.027,0.277-0.084l2.011-1.341C9.517,28.973,11.825,30,14.37,30c2.545,0,4.853-1.027,6.537-2.686l2.011,1.341
			c0.085,0.057,0.182,0.084,0.277,0.084c0.161,0,0.319-0.078,0.416-0.223c0.153-0.229,0.091-0.54-0.139-0.693l-1.883-1.256
			c0.299-0.365,0.563-0.758,0.805-1.166l3.203,0.801c0.04,0.01,0.081,0.015,0.121,0.015c0.225,0,0.429-0.151,0.485-0.379
			c0.066-0.268-0.096-0.539-0.364-0.606L22.87,24.49c0.293-0.65,0.515-1.337,0.653-2.055H25.718z M9.371,18.849l-0.37-0.316
			c-0.21-0.179-0.235-0.495-0.056-0.705c0.18-0.209,0.496-0.234,0.705-0.055l0.369,0.315c0.308,0.262,0.827,0.263,1.134-0.001
			l0.369-0.314c0.209-0.18,0.524-0.154,0.705,0.055c0.179,0.21,0.154,0.526-0.056,0.705l-0.369,0.315
			c-0.341,0.291-0.779,0.437-1.216,0.437S9.712,19.139,9.371,18.849z M17.013,26.203c-0.082,0.021-0.497,0.117-1.001,0.117
			c-0.491,0-1.068-0.092-1.507-0.435c-0.044-0.034-0.09-0.084-0.135-0.128c-0.045,0.044-0.091,0.094-0.135,0.128
			c-0.439,0.343-1.016,0.435-1.507,0.435c-0.504,0-0.918-0.097-1.001-0.117c-0.268-0.067-0.43-0.338-0.364-0.605
			c0.067-0.268,0.34-0.429,0.605-0.365c0.292,0.07,1.223,0.2,1.652-0.136c0.088-0.068,0.194-0.194,0.232-0.451l-1.097-1.097
			c-0.143-0.143-0.186-0.358-0.108-0.545c0.077-0.187,0.26-0.309,0.462-0.309h2.521c0.202,0,0.384,0.122,0.462,0.309
			c0.077,0.187,0.034,0.402-0.109,0.545l-1.097,1.097c0.038,0.258,0.145,0.384,0.233,0.452c0.434,0.338,1.359,0.207,1.65,0.135
			c0.271-0.064,0.539,0.096,0.606,0.364C17.443,25.864,17.28,26.136,17.013,26.203z M19.738,18.532l-0.369,0.315
			c-0.342,0.291-0.779,0.437-1.217,0.437s-0.875-0.146-1.216-0.436l-0.37-0.316c-0.21-0.179-0.234-0.495-0.055-0.705
			c0.181-0.209,0.495-0.234,0.705-0.055l0.369,0.315c0.307,0.262,0.825,0.263,1.134-0.001l0.368-0.314
			c0.211-0.18,0.526-0.154,0.705,0.055C19.973,18.037,19.948,18.354,19.738,18.532z"/>
		<polygon points="14.37,23.749 14.423,23.695 14.316,23.695 		"/>
		<path d="M9.375,11.436C8.2,9.489,6.018,5.896,5.127,4.56C4.14,3.079,3.253,3.466,3.246,3.469C2.999,3.592,2.699,3.493,2.575,3.246
			C2.451,2.999,2.551,2.698,2.798,2.575c0.067-0.034,1.674-0.802,3.161,1.431C6.885,5.394,9.115,9.068,10.281,11
			c0.452-0.192,0.926-0.34,1.408-0.468L6.888,1.891C6.24,0.725,5.009,0,3.675,0C1.649,0,0,1.649,0,3.675v0.627
			c0,0.926,0.346,1.812,0.975,2.493l5.964,6.461C7.656,12.538,8.476,11.923,9.375,11.436z"/>
		<path d="M25.063,0c-1.333,0-2.564,0.724-3.213,1.891l-4.801,8.642c0.482,0.127,0.956,0.276,1.408,0.468
			c1.166-1.932,3.395-5.606,4.321-6.995c1.486-2.232,3.093-1.465,3.162-1.431c0.247,0.124,0.347,0.424,0.224,0.671
			c-0.123,0.245-0.419,0.344-0.663,0.228c-0.052-0.023-0.92-0.368-1.891,1.087c-0.891,1.336-3.072,4.929-4.247,6.876
			c0.899,0.487,1.72,1.102,2.436,1.82l5.964-6.462c0.629-0.681,0.975-1.566,0.975-2.492V3.675C28.739,1.649,27.09,0,25.063,0z"/>
	</g>
</g>
<g id="Chicken_3">
</g>
<g id="Tulip_2">
</g>
<g id="Easter_basket">
</g>
<g id="Bread_and_wine">
</g>
<g id="Sheep_2">
</g>
<g id="Candle_Light">
</g>
</svg>
