<?xml version="1.0" encoding="iso-8859-1"?>
<!-- Generator: Adobe Illustrator 19.2.1, SVG Export Plug-In . SVG Version: 6.00 Build 0)  -->
<svg version="1.1" xmlns="http://www.w3.org/2000/svg" xmlns:xlink="http://www.w3.org/1999/xlink" x="0px" y="0px"
	 viewBox="0 0 30 30" style="enable-background:new 0 0 30 30;" xml:space="preserve">
<g id="Egg">
</g>
<g id="Easter_Egg_1">
</g>
<g id="Easter_Egg_2">
</g>
<g id="Easter_Egg_3">
</g>
<g id="Eggs_1">
</g>
<g id="Eggs_2">
</g>
<g id="Bunny">
	<g>
		<path d="M10.112,5.018c-0.048,0.146-0.026,0.306,0.059,0.434l1.261,1.892c0.093,0.139,0.249,0.223,0.416,0.223
			c1.206,0,2.69,0.74,3.378,1.686c0.515,0.707,0.934,1.694,1.068,2.524l0.734,4.196c0.136,0.839,0.638,1.576,1.377,2.018
			c0.464,0.278,0.984,0.42,1.505,0.42c0.313,0,0.625-0.051,0.926-0.154c1.031-0.353,1.599-1.379,1.599-2.89v-0.104
			c0-2.589-0.583-4.91-1.892-7.525c-0.606-1.215-1.627-2.242-1.652-2.267c-1.702-1.88-3.901-2.517-5.861-1.71l-2.613,0.945
			C10.272,4.756,10.16,4.872,10.112,5.018z"/>
		<path d="M28.415,18.694c0.031,0.325,0.063,0.65,0.063,0.98c0,1.242-0.234,2.474-0.669,3.632c1.223-0.104,2.19-1.122,2.19-2.371
			C30,19.901,29.336,19.027,28.415,18.694z"/>
		<path d="M9.376,24.521l-0.815-0.53c-0.971-0.501-1.804-1.183-2.49-1.982c0.296,3.346-0.405,3.654-0.99,3.899
			c-0.782,0.327-1.419,0.751-1.298,2.624C3.801,28.795,4.019,29,4.283,29h1.744c-0.056-0.157-0.092-0.324-0.092-0.5
			C5.935,26.479,7.432,24.803,9.376,24.521z"/>
		<path d="M23.047,11.704c0.258,1.162,0.388,2.33,0.388,3.557v0.104c0,1.944-0.829,3.342-2.275,3.836
			c-0.4,0.138-0.821,0.208-1.249,0.208c-0.696,0-1.382-0.19-1.988-0.547c-4.306,2.782-3.089,6.923-3.075,6.967
			c0.082,0.264-0.065,0.544-0.329,0.626c-0.05,0.016-0.1,0.022-0.149,0.022c-0.213,0-0.411-0.137-0.478-0.352
			c-0.016-0.05-1.405-4.74,3.207-7.925c-0.55-0.566-0.929-1.279-1.058-2.071l-0.732-4.184c-0.101-0.625-0.41-1.37-0.784-1.938
			c-0.095,0.333-0.202,0.664-0.334,0.99c-0.079,0.194-0.266,0.312-0.463,0.312c-0.063,0-0.126-0.012-0.188-0.037
			c-0.256-0.104-0.379-0.396-0.275-0.651c0.189-0.465,0.336-0.95,0.438-1.432c-0.561-0.371-1.268-0.626-1.855-0.626
			c-0.502,0-0.969-0.25-1.248-0.668L9.339,6.006c-0.257-0.385-0.322-0.859-0.177-1.3c0.146-0.443,0.48-0.786,0.916-0.943l2.487-0.9
			c-0.539-0.521-1.139-0.951-1.912-1.146C10.171,1.586,9.662,1.52,9.14,1.52c-2.947,0-8.281,3.312-9.041,6.52
			C0.193,7.91,0.338,7.826,0.5,7.826h1.261c0.173,0,0.334,0.09,0.425,0.237s0.1,0.332,0.022,0.486l-0.63,1.261
			C1.493,9.98,1.32,10.087,1.13,10.087S0.768,9.98,0.683,9.811L0.053,8.55c-0.014-0.027-0.01-0.058-0.018-0.086
			C0.023,8.572,0,8.682,0,8.79c0,2.246,2.645,4.305,5.408,5.445c-0.242,0.737-0.364,1.504-0.364,2.287
			c0,2.812,1.558,5.352,4.02,6.603l0.495,0.322c-0.04-0.905-0.161-2.021-0.378-3.408c-0.044-0.28-0.181-0.892-0.266-1.188
			c-0.076-0.265,0.077-0.542,0.342-0.618c0.27-0.078,0.543,0.077,0.619,0.343c0.097,0.337,0.242,0.986,0.293,1.309
			c0.281,1.795,0.407,3.168,0.4,4.22l2.115,1.375H9.957c-1.667,0-3.022,1.355-3.022,3.021c0,0.276,0.224,0.5,0.5,0.5H24.18
			c0.529,0,1.026-0.235,1.362-0.645c0.335-0.41,0.468-0.942,0.364-1.462l-0.319-1.59c1.222-1.612,1.892-3.601,1.892-5.63
			C27.479,16.362,25.743,13.316,23.047,11.704z M7.565,7.196c-0.348,0-0.63-0.282-0.63-0.63c0-0.348,0.282-0.63,0.63-0.63
			c0.348,0,0.63,0.282,0.63,0.63C8.196,6.913,7.913,7.196,7.565,7.196z"/>
	</g>
</g>
<g id="Sheep">
</g>
<g id="Bell_Alarm">
</g>
<g id="Calendar">
</g>
<g id="Tulip">
</g>
<g id="Chicken">
</g>
<g id="Chicken_2">
</g>
<g id="Baguette">
</g>
<g id="Ham">
</g>
<g id="Bell_2">
</g>
<g id="Bell_3">
</g>
<g id="Bell_4">
</g>
<g id="Easter_celebration">
</g>
<g id="Egg_painting">
</g>
<g id="Easter_willow">
</g>
<g id="Daffodil">
</g>
<g id="Easter_message">
</g>
<g id="Bunny_2">
</g>
<g id="Chicken_3">
</g>
<g id="Tulip_2">
</g>
<g id="Easter_basket">
</g>
<g id="Bread_and_wine">
</g>
<g id="Sheep_2">
</g>
<g id="Candle_Light">
</g>
</svg>
