<?xml version="1.0" encoding="iso-8859-1"?>
<!-- Generator: Adobe Illustrator 19.2.1, SVG Export Plug-In . SVG Version: 6.00 Build 0)  -->
<svg version="1.1" xmlns="http://www.w3.org/2000/svg" xmlns:xlink="http://www.w3.org/1999/xlink" x="0px" y="0px"
	 viewBox="0 0 30 30" style="enable-background:new 0 0 30 30;" xml:space="preserve">
<g id="Man_1">
</g>
<g id="Woman_1">
</g>
<g id="Man_2">
</g>
<g id="Woman_2">
</g>
<g id="Bald_Man">
</g>
<g id="Man_Glasses">
</g>
<g id="Woman_Glasses">
</g>
<g id="Man_Beard">
</g>
<g id="Man_Cap">
</g>
<g id="Woman_Cap">
</g>
<g id="Man_3">
</g>
<g id="Woman_3">
</g>
<g id="Men_4">
</g>
<g id="Woman_4">
</g>
<g id="Business_Man_1">
</g>
<g id="Business_Woman_1">
</g>
<g id="Firefigyhter">
</g>
<g id="Policeman">
</g>
<g id="Criminal">
</g>
<g id="Prisoner">
</g>
<g id="Woodsman">
</g>
<g id="Dispatcher_1">
</g>
<g id="Dispatcher_2">
</g>
<g id="Soldier">
</g>
<g id="Astronaut">
</g>
<g id="Hipster_Guy">
</g>
<g id="Hipster_Girl">
</g>
<g id="Worker">
</g>
<g id="Old_Man">
</g>
<g id="Punk">
</g>
<g id="Diver">
</g>
<g id="Artist">
</g>
<g id="Dictator">
</g>
<g id="Man_Hat">
</g>
<g id="Woman_Hat">
</g>
<g id="Graduated_Man">
</g>
<g id="Graduated_Woman">
</g>
<g id="Avatar_Chef">
</g>
<g id="Waiter">
</g>
<g id="Waitress">
</g>
<g id="Bllboy">
</g>
<g id="Santa">
</g>
<g id="Doctor">
</g>
<g id="Nurse">
</g>
<g id="Captain">
</g>
<g id="Farmer">
</g>
<g id="Maid">
</g>
<g id="Business_Man_2">
</g>
<g id="Business_Woman_2">
	<g>
		<g>
			<path d="M25.5,25c-0.066,0-0.134-0.013-0.198-0.041c-0.121-0.045-0.732-0.187-1.098-0.271c-0.405-0.094-0.772-0.182-0.869-0.216
				l-1.493-0.497c-0.633-0.221-1.5-0.951-1.668-1.096l-1.027-1.025c-0.195-0.195-0.195-0.512,0-0.707s0.512-0.195,0.707,0l1,1
				c0.399,0.342,0.997,0.771,1.312,0.882l1.493,0.497c0.1,0.033,0.42,0.106,0.771,0.188c0.837,0.194,1.139,0.27,1.275,0.331
				c0.252,0.113,0.364,0.409,0.251,0.661C25.873,24.891,25.69,25,25.5,25z"/>
		</g>
		<g>
			<path d="M4.515,24.993c-0.198,0-0.389-0.114-0.468-0.306c-0.104-0.25,0.002-0.533,0.248-0.644
				c0.137-0.062,0.438-0.137,1.275-0.331c0.352-0.081,0.672-0.154,0.766-0.186l1.506-0.502c0.308-0.107,0.905-0.537,1.332-0.904
				l0.973-0.975c0.195-0.195,0.512-0.195,0.707,0s0.195,0.512,0,0.707l-1,1c-0.195,0.17-1.063,0.9-1.688,1.118l-1.507,0.503
				c-0.09,0.031-0.457,0.119-0.862,0.213c-0.368,0.085-0.984,0.229-1.101,0.272C4.637,24.982,4.575,24.993,4.515,24.993z"/>
		</g>
		<g>
			<path d="M14.948,24c-0.297,0-0.603-0.031-0.962-0.097c-0.142-0.025-0.284-0.06-0.428-0.097c-0.116-0.031-0.22-0.064-0.324-0.1
				c-2.24-0.709-4.222-2.662-5.181-5.064c-0.113,0.033-0.217,0.045-0.304,0.045c-0.998,0-1.75-1.366-1.75-3.179
				c0-0.272,0.08-0.987,0.114-1.28C6.065,14.075,6,13.813,6,13.5C6,13.224,6.224,13,6.5,13S7,13.224,7,13.5
				c0,0.267,0.084,0.472,0.085,0.474c0.033,0.08,0.047,0.171,0.036,0.256C7.074,14.618,7,15.309,7,15.509
				c0,1.415,0.532,2.179,0.75,2.179c0.025,0,0.096-0.029,0.195-0.139c0.122-0.132,0.307-0.187,0.477-0.15
				c0.175,0.038,0.315,0.167,0.369,0.337c0.754,2.375,2.62,4.346,4.755,5.021c0.096,0.032,0.182,0.06,0.268,0.083
				c0.109,0.027,0.229,0.058,0.35,0.079C14.466,22.975,14.714,23,14.948,23c0.276,0,0.5,0.224,0.5,0.5S15.225,24,14.948,24z"/>
		</g>
		<g>
			<path d="M14.948,24c-0.276,0-0.5-0.224-0.5-0.5s0.224-0.5,0.5-0.5c0.234,0,0.482-0.025,0.779-0.08
				c0.128-0.022,0.246-0.053,0.366-0.082c0.075-0.021,0.16-0.049,0.245-0.078c1.817-0.574,4.021-2.349,4.87-5.024
				c0.054-0.17,0.194-0.299,0.369-0.337c0.171-0.037,0.354,0.019,0.477,0.15c0.1,0.109,0.17,0.139,0.195,0.139
				c0.218,0,0.75-0.764,0.75-2.179c0-0.201-0.074-0.891-0.121-1.279c-0.011-0.088,0.002-0.178,0.038-0.26l0,0
				c0,0,0.083-0.205,0.083-0.47c0-0.276,0.224-0.5,0.5-0.5s0.5,0.224,0.5,0.5c0,0.313-0.065,0.575-0.114,0.729
				C23.92,14.521,24,15.236,24,15.509c0,1.813-0.752,3.179-1.75,3.179c-0.087,0-0.19-0.012-0.305-0.046
				c-0.96,2.384-2.981,4.337-5.295,5.068c-0.094,0.032-0.196,0.065-0.302,0.095c-0.154,0.039-0.298,0.073-0.444,0.099
				C15.551,23.969,15.245,24,14.948,24z"/>
		</g>
		<g>
			<path d="M12.5,15h-1c-0.276,0-0.5-0.224-0.5-0.5s0.224-0.5,0.5-0.5h1c0.276,0,0.5,0.224,0.5,0.5S12.776,15,12.5,15z"/>
		</g>
		<g>
			<path d="M18.5,15h-1c-0.276,0-0.5-0.224-0.5-0.5s0.224-0.5,0.5-0.5h1c0.276,0,0.5,0.224,0.5,0.5S18.776,15,18.5,15z"/>
		</g>
		<g>
			<path d="M15,30C6.729,30,0,23.271,0,15S6.729,0,15,0s15,6.729,15,15S23.271,30,15,30z M15,1C7.28,1,1,7.28,1,15s6.28,14,14,14
				s14-6.28,14-14S22.72,1,15,1z"/>
		</g>
		<g>
			<path d="M8.5,15c-0.592,0-0.982-0.339-1.296-0.611C6.919,14.141,6.745,14,6.5,14C6.224,14,6,13.776,6,13.5S6.224,13,6.5,13
				c0.631,0,1.035,0.352,1.36,0.634C8.13,13.868,8.292,14,8.5,14c0.877,0,1.56-0.474,2.606-1.809
				c0.385-0.491,0.672-0.949,0.948-1.393C13.032,9.235,13.805,8,17.5,8C17.776,8,18,8.224,18,8.5
				c0.023,0.616,2.479,3.431,4.265,4.771C22.527,13.137,22.934,13,23.5,13c0.276,0,0.5,0.224,0.5,0.5S23.776,14,23.5,14
				c-0.628,0-0.896,0.23-0.906,0.24c-0.172,0.152-0.439,0.179-0.628,0.048c-1.284-0.886-4.226-3.729-4.849-5.284
				c-2.803,0.066-3.314,0.887-4.214,2.325c-0.277,0.443-0.592,0.946-1.01,1.479C10.832,14.161,9.895,15,8.5,15z"/>
		</g>
		<g>
			<path d="M20.5,23c-0.263,0-0.483-0.205-0.499-0.471c-0.017-0.275,0.194-0.513,0.47-0.528c2.467-0.146,2.992-0.582,3.104-0.763
				c0.695-1.133,0.556-4.348,0.473-6.268C24.021,14.388,24,13.878,24,13.5c0-3.762-2.781-7.132-6.612-8.013
				c-0.033,0.001-0.086,0.034-0.125,0.059c-0.403,0.254-0.89,0.456-1.988-0.1c-0.033-0.017-0.065-0.038-0.095-0.063
				c-1-0.832-2.48-0.335-3.273,0.036C9.118,6.726,6,10.458,6,13.5c0,0.378-0.021,0.888-0.047,1.471
				c-0.083,1.92-0.223,5.135,0.473,6.268c0.111,0.181,0.637,0.617,3.104,0.763c0.275,0.016,0.486,0.253,0.47,0.528
				s-0.255,0.492-0.528,0.47c-2.25-0.132-3.452-0.514-3.896-1.237c-0.856-1.395-0.72-4.538-0.62-6.834C4.979,14.361,5,13.867,5,13.5
				c0-3.507,3.416-7.55,6.481-8.986c1.714-0.803,3.236-0.78,4.291,0.063c0.646,0.318,0.792,0.228,0.958,0.122
				c0.169-0.106,0.449-0.288,0.882-0.187C21.893,5.497,25,9.276,25,13.5c0,0.367,0.021,0.861,0.046,1.428
				c0.1,2.296,0.236,5.439-0.62,6.834c-0.444,0.724-1.646,1.105-3.896,1.237C20.52,23,20.51,23,20.5,23z"/>
		</g>
		<g>
			<path d="M15,30c-0.08,0-0.161-0.02-0.235-0.059l-7.5-4c-0.129-0.069-0.221-0.19-0.253-0.333C6.98,25.466,7.013,25.316,7.1,25.2
				l3-4c0.101-0.136,0.248-0.216,0.434-0.199c0.168,0.011,0.319,0.106,0.402,0.254l4.5,8c0.109,0.193,0.077,0.436-0.078,0.595
				C15.261,29.948,15.131,30,15,30z M8.25,25.333l5.476,2.92l-3.285-5.84L8.25,25.333z"/>
		</g>
		<g>
			<path d="M15,30c-0.131,0-0.261-0.052-0.357-0.15c-0.155-0.159-0.188-0.401-0.078-0.595l4.5-8
				c0.083-0.147,0.234-0.243,0.402-0.254c0.186-0.011,0.332,0.064,0.434,0.199l3,4c0.087,0.116,0.119,0.266,0.088,0.408
				c-0.032,0.143-0.124,0.264-0.253,0.333l-7.5,4C15.161,29.98,15.08,30,15,30z M19.56,22.413l-3.285,5.84l5.476-2.92L19.56,22.413z
				"/>
		</g>
		<g>
			<path d="M15,21c-1.67,0-2.804-1.097-2.851-1.144c-0.197-0.194-0.199-0.511-0.006-0.707c0.192-0.197,0.508-0.2,0.706-0.007l0,0
				C12.858,19.151,13.749,20,15,20s2.142-0.849,2.15-0.857c0.199-0.191,0.514-0.187,0.707,0.009
				c0.192,0.197,0.189,0.512-0.007,0.705C17.804,19.903,16.67,21,15,21z"/>
		</g>
	</g>
</g>
<g id="Cowboy">
</g>
<g id="Anonymus">
</g>
<g id="Batman">
</g>
<g id="Superman">
</g>
<g id="Captain_America">
</g>
<g id="Darth_Vader">
</g>
<g id="Harry_Potter">
</g>
<g id="Anonymus_2">
</g>
<g id="Scream">
</g>
<g id="Jason">
</g>
<g id="Charlie_Chaplin">
</g>
</svg>
