<?xml version="1.0" encoding="iso-8859-1"?>
<!-- Generator: Adobe Illustrator 19.2.1, SVG Export Plug-In . SVG Version: 6.00 Build 0)  -->
<svg version="1.1" xmlns="http://www.w3.org/2000/svg" xmlns:xlink="http://www.w3.org/1999/xlink" x="0px" y="0px"
	 viewBox="0 0 24 24" style="enable-background:new 0 0 24 24;" xml:space="preserve">
<g id="Man_1">
</g>
<g id="Woman_1">
</g>
<g id="Man_2">
</g>
<g id="Woman_2">
</g>
<g id="Bald_Man">
</g>
<g id="Man_Glasses">
</g>
<g id="Woman_Glasses">
</g>
<g id="Man_Beard">
</g>
<g id="Man_Cap">
</g>
<g id="Woman_Cap">
</g>
<g id="Man_3">
</g>
<g id="Woman_3">
</g>
<g id="Men_4">
</g>
<g id="Woman_4">
</g>
<g id="Business_Man_1">
</g>
<g id="Business_Woman_1">
	<g>
		<path d="M12,0C5.383,0,0,5.383,0,12s5.383,12,12,12s12-5.383,12-12S18.617,0,12,0z M12,1c6.065,0,11,4.935,11,11
			c0,2.712-0.991,5.193-2.624,7.113c-0.267-0.109-0.607-0.247-0.709-0.283l-2.033-0.708c-0.21-0.073-0.401-0.181-0.582-0.305
			c1.163-0.29,2.551-0.821,2.628-0.85c0.23-0.089,0.361-0.332,0.309-0.573C19.979,16.348,19,11.837,19,10.5v0v0V10
			c0-0.041-0.018-0.078-0.028-0.117C18.692,6.039,15.675,3,12,3C8.332,3,5.319,6.027,5.029,9.861C5.015,9.906,5,9.952,5,10v0.5v0v0
			c0,1.336-0.979,5.848-0.988,5.894c-0.053,0.241,0.078,0.484,0.309,0.573c0.078,0.03,1.486,0.568,2.654,0.856
			c-0.18,0.122-0.369,0.229-0.576,0.302l-2.033,0.707c-0.102,0.035-0.461,0.176-0.738,0.285C1.993,17.197,1,14.714,1,12
			C1,5.935,5.935,1,12,1z M12,18c-0.206,0-0.407-0.026-0.611-0.064c-0.094-0.016-0.187-0.039-0.271-0.061
			c-0.067-0.019-0.133-0.041-0.208-0.065c-1.542-0.488-2.844-1.979-3.481-3.988c-0.054-0.17-0.195-0.299-0.369-0.337
			c-0.179-0.038-0.356,0.02-0.477,0.151c-0.051,0.055-0.086,0.076-0.078,0.078C6.382,13.685,6,13.135,6,12.071
			c0-0.192,0.066-0.758,0.088-0.946c0.28,0.099,0.535,0.229,0.647,0.299c0.072,0.045,0.153,0.07,0.236,0.075
			c0.049,0.003,0.095-0.016,0.143-0.028c0.033-0.008,0.068-0.004,0.1-0.019c0.153-0.073,0.26-0.218,0.282-0.386
			C7.598,10.298,7.87,9.462,8,9.357c0.474,0,1.318-0.113,2.057-0.479c0.133-0.066,0.26-0.143,0.384-0.225
			c0.014-0.01,0.03-0.016,0.044-0.026c0.097-0.068,0.184-0.148,0.271-0.228c0.035-0.032,0.076-0.058,0.109-0.092
			c0.025-0.025,0.042-0.057,0.066-0.083c0.088-0.097,0.174-0.196,0.245-0.31c0.952,0.931,2.804,1.847,4.872,1.966
			c0.129,0.685,0.473,1.292,0.521,1.372c0.034,0.059,0.08,0.109,0.133,0.149c0.015,0.011,0.034,0.014,0.049,0.023
			c0.041,0.024,0.082,0.05,0.129,0.061c0.001,0,0.002,0,0.002,0c0,0,0.001,0,0.001,0c0.026,0.006,0.053,0.007,0.079,0.009
			C16.975,11.496,16.987,11.5,17,11.5c0.093,0,0.185-0.026,0.265-0.076c0.105-0.065,0.363-0.197,0.648-0.297
			C17.935,11.314,18,11.879,18,12.071c0,1.064-0.383,1.614-0.485,1.645c-0.01-0.003-0.045-0.023-0.097-0.08
			c-0.12-0.131-0.298-0.189-0.477-0.151c-0.174,0.038-0.315,0.167-0.369,0.337c-0.638,2.009-1.939,3.5-3.491,3.991
			c-0.065,0.022-0.131,0.044-0.191,0.061c-0.092,0.023-0.185,0.046-0.284,0.063C12.407,17.974,12.206,18,12,18z M10.599,18.76
			c0.085,0.029,0.17,0.057,0.264,0.082c0.117,0.03,0.235,0.058,0.351,0.078C11.509,18.975,11.759,19,12,19s0.491-0.025,0.781-0.079
			c0.121-0.021,0.239-0.049,0.363-0.081c0.087-0.023,0.172-0.051,0.247-0.077c0.319-0.101,0.625-0.246,0.923-0.412l-2.313,4.123
			l-2.281-4.102C10.005,18.528,10.296,18.665,10.599,18.76z M6.072,20.241c-0.07,0.117-0.091,0.257-0.055,0.389
			c0.035,0.132,0.123,0.244,0.243,0.309l3.227,1.76c-1.961-0.461-3.721-1.443-5.124-2.798c0.147-0.057,0.275-0.107,0.329-0.125
			l2.034-0.707c0.027-0.009,0.051-0.025,0.078-0.036L6.072,20.241z M17.739,20.939c0.119-0.065,0.207-0.176,0.243-0.307
			c0.036-0.131,0.017-0.271-0.053-0.388l-0.732-1.226c0.037,0.014,0.07,0.036,0.108,0.049l2.033,0.708
			c0.051,0.018,0.169,0.065,0.305,0.119c-1.404,1.359-3.167,2.344-5.132,2.806L17.739,20.939z"/>
		<path d="M10.5,11h-1C9.224,11,9,11.224,9,11.5S9.224,12,9.5,12h1c0.276,0,0.5-0.224,0.5-0.5S10.776,11,10.5,11z"/>
		<path d="M13.5,12h1c0.276,0,0.5-0.224,0.5-0.5S14.776,11,14.5,11h-1c-0.276,0-0.5,0.224-0.5,0.5S13.224,12,13.5,12z"/>
	</g>
</g>
<g id="Firefigyhter">
</g>
<g id="Policeman">
</g>
<g id="Criminal">
</g>
<g id="Prisoner">
</g>
<g id="Woodsman">
</g>
<g id="Dispatcher_1">
</g>
<g id="Dispatcher_2">
</g>
<g id="Soldier">
</g>
<g id="Astronaut">
</g>
<g id="Hipster_Guy">
</g>
<g id="Hipster_Girl">
</g>
<g id="Worker">
</g>
<g id="Old_Man">
</g>
<g id="Punk">
</g>
<g id="Diver">
</g>
<g id="Artist">
</g>
<g id="Dictator">
</g>
<g id="Man_Hat">
</g>
<g id="Woman_Hat">
</g>
<g id="Graduated_Man">
</g>
<g id="Graduated_Woman">
</g>
<g id="Avatar_Chef">
</g>
<g id="Waiter">
</g>
<g id="Waitress">
</g>
<g id="Bllboy">
</g>
<g id="Santa">
</g>
<g id="Doctor">
</g>
<g id="Nurse">
</g>
<g id="Captain">
</g>
<g id="Farmer">
</g>
<g id="Maid">
</g>
<g id="Business_Man_2">
</g>
<g id="Business_Woman_2">
</g>
<g id="Cowboy">
</g>
<g id="Anonymus">
</g>
<g id="Batman">
</g>
<g id="Superman">
</g>
<g id="Captain_America">
</g>
<g id="Darth_Vader">
</g>
<g id="Harry_Potter">
</g>
<g id="Anonymus_2">
</g>
<g id="Scream">
</g>
<g id="Jason">
</g>
<g id="Charlie_Chaplin">
</g>
</svg>
