<?xml version="1.0" encoding="iso-8859-1"?>
<!-- Generator: Adobe Illustrator 19.2.1, SVG Export Plug-In . SVG Version: 6.00 Build 0)  -->
<svg version="1.1" xmlns="http://www.w3.org/2000/svg" xmlns:xlink="http://www.w3.org/1999/xlink" x="0px" y="0px"
	 viewBox="0 0 30 30" style="enable-background:new 0 0 30 30;" xml:space="preserve">
<g id="Cad_1">
	<path d="M29,12V0.5C29,0.224,28.776,0,28.5,0H15v12h3.05c0.018-0.199,0.02-0.4,0.059-0.595c0.055-0.271,0.316-0.446,0.589-0.391
		c0.271,0.055,0.446,0.318,0.391,0.589C19.03,11.896,19,12.198,19,12.5c0,0.276-0.224,0.5-0.5,0.5H15v4.5c0,0.276-0.224,0.5-0.5,0.5
		S14,17.776,14,17.5V13h-3.5c-0.276,0-0.5-0.224-0.5-0.5V8.05C9.868,8.065,9.733,8.063,9.604,8.089
		c-0.034,0.007-0.067,0.01-0.1,0.01c-0.233,0-0.442-0.164-0.49-0.401C8.959,7.427,9.135,7.164,9.405,7.109
		C9.764,7.037,10.132,7,10.5,7C10.776,7,11,7.224,11,7.5V12h3V0H0.5C0.224,0,0,0.224,0,0.5V12h5.05
		c0.018-0.199,0.02-0.4,0.059-0.595c0.055-0.271,0.313-0.446,0.589-0.391c0.271,0.055,0.446,0.318,0.391,0.589
		C6.03,11.896,6,12.198,6,12.5C6,12.776,5.776,13,5.5,13H0v4c0.36,0,0.726,0.035,1.089,0.104c0.271,0.052,0.45,0.313,0.398,0.584
		c-0.045,0.24-0.255,0.407-0.491,0.407c-0.031,0-0.063-0.003-0.094-0.009C0.601,18.029,0.297,18,0,18v4h4.94
		c-0.017-0.125-0.015-0.251-0.045-0.375c-0.065-0.268,0.099-0.539,0.368-0.604c0.268-0.068,0.539,0.099,0.604,0.368
		C5.955,21.753,6,22.127,6,22.5C6,22.776,5.776,23,5.5,23H0v5.5C0,28.776,0.224,29,0.5,29H14v-5.5c0-0.276,0.224-0.5,0.5-0.5
		s0.5,0.224,0.5,0.5V29h13.5c0.276,0,0.5-0.224,0.5-0.5V13h-5.5c-0.276,0-0.5-0.224-0.5-0.5V8.05
		c-0.132,0.015-0.267,0.013-0.396,0.039c-0.034,0.007-0.067,0.01-0.1,0.01c-0.233,0-0.442-0.164-0.49-0.401
		c-0.055-0.271,0.121-0.535,0.391-0.589C22.764,7.037,23.132,7,23.5,7C23.776,7,24,7.224,24,7.5V12H29z M4.774,20.063
		c-0.092,0.074-0.202,0.109-0.312,0.109c-0.147,0-0.292-0.064-0.391-0.188c-0.379-0.475-0.869-0.899-1.416-1.226
		c-0.237-0.142-0.314-0.449-0.172-0.686C2.625,17.836,2.933,17.76,3.17,17.9c0.657,0.394,1.224,0.885,1.683,1.46
		C5.025,19.576,4.99,19.891,4.774,20.063z M7.991,8.764C7.503,9.092,7.089,9.506,6.76,9.997c-0.096,0.144-0.254,0.221-0.416,0.221
		c-0.096,0-0.192-0.027-0.278-0.085C5.837,9.979,5.776,9.668,5.93,9.439c0.401-0.598,0.908-1.104,1.504-1.505
		c0.229-0.155,0.54-0.093,0.694,0.136C8.281,8.299,8.22,8.61,7.991,8.764z M20.991,8.764c-0.488,0.328-0.902,0.743-1.231,1.233
		c-0.096,0.144-0.254,0.221-0.416,0.221c-0.096,0-0.192-0.027-0.278-0.085c-0.229-0.154-0.29-0.464-0.136-0.694
		c0.401-0.598,0.908-1.104,1.504-1.505c0.229-0.155,0.539-0.093,0.694,0.136C21.281,8.299,21.22,8.61,20.991,8.764z"/>
</g>
<g id="Cad_2">
</g>
<g id="Cad_Pencil">
</g>
<g id="Cad_Compasses">
</g>
<g id="Tools_1">
</g>
<g id="Tools_2">
</g>
<g id="Ruler_1">
</g>
<g id="Ruler_2">
</g>
<g id="Workspace_1">
</g>
<g id="Workspace_2">
</g>
<g id="Cad_3">
</g>
<g id="_x33_D_Box">
</g>
<g id="Section_Symbol">
</g>
<g id="Outlet_Symbol">
</g>
<g id="Cad_File">
</g>
<g id="Blueprint">
</g>
<g id="Construction_Plan">
</g>
<g id="Roof_Plan">
</g>
<g id="House_Construction">
</g>
<g id="Building_Construction">
</g>
<g id="Work_Table">
</g>
<g id="Table_Cad">
</g>
<g id="House_Plan">
</g>
<g id="Tape_Measure">
</g>
<g id="Cad_Paper">
</g>
<g id="Cad_Papers">
</g>
<g id="Stairs">
</g>
<g id="Pillar">
</g>
<g id="Bricks">
</g>
<g id="Pantheon">
</g>
<g id="House">
</g>
<g id="Skyscraper">
</g>
<g id="Building">
</g>
</svg>
