<?xml version="1.0" encoding="iso-8859-1"?>
<!-- Generator: Adobe Illustrator 19.2.1, SVG Export Plug-In . SVG Version: 6.00 Build 0)  -->
<svg version="1.1" xmlns="http://www.w3.org/2000/svg" xmlns:xlink="http://www.w3.org/1999/xlink" x="0px" y="0px"
	 viewBox="0 0 30 30" style="enable-background:new 0 0 30 30;" xml:space="preserve">
<g id="Cad_1">
</g>
<g id="Cad_2">
</g>
<g id="Cad_Pencil">
</g>
<g id="Cad_Compasses">
</g>
<g id="Tools_1">
</g>
<g id="Tools_2">
</g>
<g id="Ruler_1">
</g>
<g id="Ruler_2">
</g>
<g id="Workspace_1">
</g>
<g id="Workspace_2">
</g>
<g id="Cad_3">
	<g>
		<path d="M29.5,26H24V11h2.5c0.276,0,0.5-0.224,0.5-0.5V8h2.5C29.776,8,30,7.776,30,7.5S29.776,7,29.5,7H27V4.5
			C27,4.224,26.776,4,26.5,4H24V0.5C24,0.224,23.776,0,23.5,0S23,0.224,23,0.5V4h-2.5C20.224,4,20,4.224,20,4.5V7H0.5
			C0.224,7,0,7.224,0,7.5S0.224,8,0.5,8H20v2.5c0,0.276,0.224,0.5,0.5,0.5H23v15h-5.041c-0.001-0.014-0.001-0.027-0.002-0.041
			c-0.023-0.275-0.256-0.49-0.54-0.457c-0.275,0.022-0.479,0.264-0.457,0.54C16.986,26.358,17,26.678,17,27v2.5
			c0,0.276,0.224,0.5,0.5,0.5h12c0.276,0,0.5-0.224,0.5-0.5v-3C30,26.224,29.776,26,29.5,26z"/>
		<path d="M7.545,15.048C7.202,15.016,6.853,15,6.5,15C6.224,15,6,15.224,6,15.5V26H0.5C0.224,26,0,26.224,0,26.5v3
			C0,29.776,0.224,30,0.5,30h6C6.776,30,7,29.776,7,29.5v-3V16.023c0.151,0.007,0.305,0.007,0.454,0.021
			c0.016,0.001,0.031,0.002,0.046,0.002c0.255,0,0.474-0.195,0.498-0.454C8.023,15.317,7.82,15.073,7.545,15.048z"/>
		<path d="M17.198,24.276c0.266-0.074,0.421-0.35,0.347-0.616c-0.208-0.75-0.489-1.481-0.833-2.175
			c-0.122-0.247-0.422-0.349-0.67-0.226c-0.248,0.123-0.349,0.422-0.226,0.67c0.316,0.637,0.573,1.31,0.766,1.999
			c0.062,0.221,0.262,0.366,0.481,0.366C17.107,24.294,17.153,24.289,17.198,24.276z"/>
		<path d="M11.986,16.444c-0.681-0.386-1.402-0.701-2.145-0.934c-0.262-0.081-0.543,0.063-0.627,0.327
			c-0.083,0.263,0.063,0.544,0.327,0.627c0.675,0.212,1.332,0.499,1.952,0.85c0.078,0.044,0.163,0.065,0.246,0.065
			c0.174,0,0.343-0.091,0.436-0.253C12.311,16.885,12.227,16.58,11.986,16.444z"/>
		<path d="M13.889,17.8c-0.208-0.182-0.523-0.162-0.706,0.045c-0.183,0.208-0.162,0.523,0.045,0.706
			c0.532,0.468,1.022,0.993,1.458,1.563c0.098,0.129,0.247,0.196,0.397,0.196c0.106,0,0.212-0.034,0.303-0.103
			c0.219-0.167,0.261-0.481,0.093-0.701C15.006,18.884,14.47,18.311,13.889,17.8z"/>
	</g>
</g>
<g id="_x33_D_Box">
</g>
<g id="Section_Symbol">
</g>
<g id="Outlet_Symbol">
</g>
<g id="Cad_File">
</g>
<g id="Blueprint">
</g>
<g id="Construction_Plan">
</g>
<g id="Roof_Plan">
</g>
<g id="House_Construction">
</g>
<g id="Building_Construction">
</g>
<g id="Work_Table">
</g>
<g id="Table_Cad">
</g>
<g id="House_Plan">
</g>
<g id="Tape_Measure">
</g>
<g id="Cad_Paper">
</g>
<g id="Cad_Papers">
</g>
<g id="Stairs">
</g>
<g id="Pillar">
</g>
<g id="Bricks">
</g>
<g id="Pantheon">
</g>
<g id="House">
</g>
<g id="Skyscraper">
</g>
<g id="Building">
</g>
</svg>
