<?xml version="1.0" encoding="iso-8859-1"?>
<!-- Generator: Adobe Illustrator 19.2.1, SVG Export Plug-In . SVG Version: 6.00 Build 0)  -->
<svg version="1.1" xmlns="http://www.w3.org/2000/svg" xmlns:xlink="http://www.w3.org/1999/xlink" x="0px" y="0px"
	 viewBox="0 0 24 24" style="enable-background:new 0 0 24 24;" xml:space="preserve">
<g id="Cad_1">
	<path d="M23,11V1.5C23,1.224,22.776,1,22.5,1H12v10h2.031c0.023-0.207,0.057-0.413,0.108-0.614
		c0.067-0.269,0.342-0.433,0.607-0.361c0.268,0.068,0.43,0.34,0.361,0.607C15.036,10.914,15,11.206,15,11.5
		c0,0.276-0.224,0.5-0.5,0.5H12v3.5c0,0.276-0.224,0.5-0.5,0.5S11,15.776,11,15.5V12H8.5C8.224,12,8,11.776,8,11.5V8.062
		C7.877,8.08,7.752,8.077,7.632,8.108C7.591,8.119,7.549,8.124,7.508,8.124c-0.223,0-0.427-0.15-0.484-0.377
		c-0.068-0.268,0.094-0.54,0.361-0.607C7.748,7.047,8.123,7,8.5,7C8.776,7,9,7.224,9,7.5V11h2V1H0.5C0.224,1,0,1.224,0,1.5V11h4.031
		c0.023-0.207,0.057-0.413,0.108-0.614c0.067-0.269,0.342-0.433,0.607-0.361c0.268,0.068,0.43,0.34,0.361,0.607
		C5.036,10.914,5,11.206,5,11.5C5,11.776,4.776,12,4.5,12H0v3c0.364,0,0.736,0.043,1.106,0.13c0.269,0.063,0.436,0.331,0.374,0.6
		c-0.054,0.231-0.259,0.387-0.486,0.387c-0.038,0-0.076-0.004-0.114-0.013C0.584,16.035,0.288,16,0,16v3h3.948
		c-0.021-0.112-0.044-0.223-0.078-0.333c-0.083-0.263,0.063-0.544,0.326-0.627c0.266-0.085,0.545,0.063,0.627,0.326
		C4.94,18.736,5,19.118,5,19.5C5,19.776,4.776,20,4.5,20H0v3.5C0,23.776,0.224,24,0.5,24H11v-4.5c0-0.276,0.224-0.5,0.5-0.5
		s0.5,0.224,0.5,0.5V24h10.5c0.276,0,0.5-0.224,0.5-0.5V12h-4.5c-0.276,0-0.5-0.224-0.5-0.5V8.062
		c-0.123,0.018-0.248,0.015-0.368,0.046c-0.041,0.011-0.083,0.016-0.124,0.016c-0.223,0-0.427-0.15-0.484-0.377
		c-0.068-0.268,0.094-0.54,0.361-0.607C17.748,7.047,18.123,7,18.5,7C18.776,7,19,7.224,19,7.5V11H23z M3.914,17.56
		c-0.094,0.081-0.21,0.12-0.325,0.12c-0.141,0-0.281-0.059-0.38-0.175c-0.292-0.342-0.646-0.638-1.052-0.881
		c-0.237-0.142-0.313-0.449-0.171-0.686c0.142-0.236,0.45-0.313,0.686-0.171c0.498,0.299,0.934,0.665,1.297,1.088
		C4.148,17.064,4.124,17.38,3.914,17.56z M6.501,8.626C6.158,8.866,5.863,9.161,5.625,9.504c-0.097,0.14-0.253,0.215-0.411,0.215
		c-0.099,0-0.198-0.029-0.285-0.089C4.702,9.472,4.646,9.16,4.803,8.934c0.306-0.441,0.685-0.82,1.126-1.127
		C6.157,7.648,6.468,7.704,6.625,7.93C6.783,8.157,6.728,8.469,6.501,8.626z M16.501,8.626c-0.344,0.239-0.639,0.535-0.877,0.877
		c-0.097,0.14-0.253,0.215-0.411,0.215c-0.099,0-0.198-0.029-0.285-0.089c-0.227-0.158-0.283-0.469-0.125-0.696
		c0.306-0.441,0.685-0.82,1.126-1.127c0.228-0.158,0.538-0.102,0.696,0.124C16.783,8.157,16.728,8.469,16.501,8.626z"/>
</g>
<g id="Cad_2">
</g>
<g id="Cad_Pencil">
</g>
<g id="Cad_Compasses">
</g>
<g id="Tools_1">
</g>
<g id="Tools_2">
</g>
<g id="Ruler_1">
</g>
<g id="Ruler_2">
</g>
<g id="Workspace_1">
</g>
<g id="Workspace_2">
</g>
<g id="Cad_3">
</g>
<g id="_x33_D_Box">
</g>
<g id="Section_Symbol">
</g>
<g id="Outlet_Symbol">
</g>
<g id="Cad_File">
</g>
<g id="Blueprint">
</g>
<g id="Construction_Plan">
</g>
<g id="Roof_Plan">
</g>
<g id="House_Construction">
</g>
<g id="Building_Construction">
</g>
<g id="Work_Table">
</g>
<g id="Table_Cad">
</g>
<g id="House_Plan">
</g>
<g id="Tape_Measure">
</g>
<g id="Cad_Paper">
</g>
<g id="Cad_Papers">
</g>
<g id="Stairs">
</g>
<g id="Pillar">
</g>
<g id="Bricks">
</g>
<g id="Pantheon">
</g>
<g id="House">
</g>
<g id="Skyscraper">
</g>
<g id="Building">
</g>
</svg>
