<?xml version="1.0" encoding="iso-8859-1"?>
<!-- Generator: Adobe Illustrator 19.2.1, SVG Export Plug-In . SVG Version: 6.00 Build 0)  -->
<svg version="1.1" xmlns="http://www.w3.org/2000/svg" xmlns:xlink="http://www.w3.org/1999/xlink" x="0px" y="0px"
	 viewBox="0 0 30 30" style="enable-background:new 0 0 30 30;" xml:space="preserve">
<g id="Cad_1">
</g>
<g id="Cad_2">
</g>
<g id="Cad_Pencil">
</g>
<g id="Cad_Compasses">
</g>
<g id="Tools_1">
</g>
<g id="Tools_2">
</g>
<g id="Ruler_1">
</g>
<g id="Ruler_2">
</g>
<g id="Workspace_1">
</g>
<g id="Workspace_2">
</g>
<g id="Cad_3">
</g>
<g id="_x33_D_Box">
</g>
<g id="Section_Symbol">
</g>
<g id="Outlet_Symbol">
</g>
<g id="Cad_File">
	<path d="M25.5,0h-14c-0.065,0-0.13,0.013-0.191,0.038c-0.062,0.025-0.117,0.062-0.163,0.109L4.147,7.146
		C4.101,7.192,4.064,7.248,4.038,7.309C4.013,7.37,4,7.435,4,7.5v22C4,29.776,4.224,30,4.5,30h21c0.276,0,0.5-0.224,0.5-0.5v-29
		C26,0.224,25.776,0,25.5,0z M11,1.707V7H5.707L11,1.707z M8,19H7.5c-0.205,0-0.39-0.125-0.465-0.316s-0.026-0.409,0.123-0.549
		l0.365-0.341c0.202-0.189,0.519-0.178,0.707,0.024c0.09,0.096,0.135,0.219,0.135,0.341C8.449,18.248,8.5,18.368,8.5,18.5
		C8.5,18.776,8.276,19,8,19z M9.217,16.214l0.847-0.79c0.2-0.188,0.52-0.178,0.706,0.024c0.188,0.202,0.178,0.519-0.024,0.707
		l-0.847,0.79c-0.096,0.09-0.219,0.134-0.341,0.134c-0.134,0-0.268-0.053-0.365-0.159C9.004,16.719,9.015,16.402,9.217,16.214z
		 M9.5,18.5c0-0.276,0.224-0.5,0.5-0.5h0.5c0.276,0,0.5,0.224,0.5,0.5V19c0,0.276-0.224,0.5-0.5,0.5S10,19.276,10,19
		C9.724,19,9.5,18.776,9.5,18.5z M11,21v1c0,0.276-0.224,0.5-0.5,0.5S10,22.276,10,22v-1c0-0.276,0.224-0.5,0.5-0.5S11,20.724,11,21
		z M11,25h-0.5c-0.276,0-0.5-0.224-0.5-0.5V24c0-0.276,0.224-0.5,0.5-0.5S11,23.724,11,24c0.276,0,0.5,0.224,0.5,0.5
		S11.276,25,11,25z M12.097,14.71c-0.134,0-0.267-0.053-0.365-0.159c-0.188-0.202-0.178-0.519,0.024-0.707l0.846-0.79
		c0.2-0.188,0.518-0.177,0.706,0.024c0.188,0.202,0.178,0.519-0.024,0.707l-0.846,0.79C12.342,14.666,12.219,14.71,12.097,14.71z
		 M14,25h-1c-0.276,0-0.5-0.224-0.5-0.5S12.724,24,13,24h1c0.276,0,0.5,0.224,0.5,0.5S14.276,25,14,25z M15.023,12.207L15,12.185
		l-0.023,0.022c-0.202,0.189-0.519,0.178-0.707-0.024c-0.188-0.202-0.178-0.518,0.023-0.707l0.365-0.341
		c0.193-0.18,0.49-0.18,0.684,0l0.365,0.341c0.201,0.188,0.212,0.505,0.023,0.707c-0.099,0.105-0.231,0.159-0.365,0.159
		C15.243,12.341,15.12,12.297,15.023,12.207z M17,25h-1c-0.276,0-0.5-0.224-0.5-0.5S15.724,24,16,24h1c0.276,0,0.5,0.224,0.5,0.5
		S17.276,25,17,25z M18.27,14.552c-0.098,0.105-0.231,0.159-0.365,0.159c-0.122,0-0.245-0.044-0.341-0.134l-0.847-0.79
		c-0.202-0.188-0.213-0.505-0.024-0.707c0.188-0.201,0.506-0.212,0.706-0.024l0.847,0.79C18.447,14.033,18.458,14.35,18.27,14.552z
		 M20,24.5c0,0.276-0.224,0.5-0.5,0.5H19c-0.276,0-0.5-0.224-0.5-0.5S18.724,24,19,24c0-0.276,0.224-0.5,0.5-0.5S20,23.724,20,24
		V24.5z M20,22c0,0.276-0.224,0.5-0.5,0.5S19,22.276,19,22v-1c0-0.276,0.224-0.5,0.5-0.5S20,20.724,20,21V22z M20,19
		c0,0.276-0.224,0.5-0.5,0.5S19,19.276,19,19v-0.5c0-0.276,0.224-0.5,0.5-0.5H20c0.276,0,0.5,0.224,0.5,0.5S20.276,19,20,19z
		 M20.808,16.921c-0.099,0.105-0.231,0.159-0.365,0.159c-0.122,0-0.245-0.044-0.341-0.134l-0.846-0.79
		c-0.202-0.188-0.213-0.505-0.024-0.707c0.188-0.201,0.506-0.212,0.706-0.024l0.846,0.79C20.985,16.402,20.996,16.719,20.808,16.921
		z M22.965,18.684C22.89,18.875,22.705,19,22.5,19H22c-0.276,0-0.5-0.224-0.5-0.5c0-0.132,0.051-0.252,0.135-0.341
		c0-0.123,0.045-0.245,0.135-0.341c0.188-0.202,0.505-0.212,0.707-0.024l0.365,0.341C22.991,18.275,23.04,18.493,22.965,18.684z"/>
</g>
<g id="Blueprint">
</g>
<g id="Construction_Plan">
</g>
<g id="Roof_Plan">
</g>
<g id="House_Construction">
</g>
<g id="Building_Construction">
</g>
<g id="Work_Table">
</g>
<g id="Table_Cad">
</g>
<g id="House_Plan">
</g>
<g id="Tape_Measure">
</g>
<g id="Cad_Paper">
</g>
<g id="Cad_Papers">
</g>
<g id="Stairs">
</g>
<g id="Pillar">
</g>
<g id="Bricks">
</g>
<g id="Pantheon">
</g>
<g id="House">
</g>
<g id="Skyscraper">
</g>
<g id="Building">
</g>
</svg>
