<?xml version="1.0" encoding="iso-8859-1"?>
<!-- Generator: Adobe Illustrator 19.2.1, SVG Export Plug-In . SVG Version: 6.00 Build 0)  -->
<svg version="1.1" xmlns="http://www.w3.org/2000/svg" xmlns:xlink="http://www.w3.org/1999/xlink" x="0px" y="0px"
	 viewBox="0 0 24 24" style="enable-background:new 0 0 24 24;" xml:space="preserve">
<g id="Cad_1">
</g>
<g id="Cad_2">
</g>
<g id="Cad_Pencil">
</g>
<g id="Cad_Compasses">
</g>
<g id="Tools_1">
</g>
<g id="Tools_2">
</g>
<g id="Ruler_1">
</g>
<g id="Ruler_2">
</g>
<g id="Workspace_1">
</g>
<g id="Workspace_2">
</g>
<g id="Cad_3">
	<g>
		<path d="M23.5,21H19V8h0.5C20.327,8,21,7.327,21,6.5V6h2.5C23.776,6,24,5.776,24,5.5S23.776,5,23.5,5H21V4.5
			C21,3.673,20.327,3,19.5,3H19V0.5C19,0.224,18.776,0,18.5,0S18,0.224,18,0.5V3h-0.5C16.673,3,16,3.673,16,4.5V5H0.5
			C0.224,5,0,5.224,0,5.5S0.224,6,0.5,6H16v0.5C16,7.327,16.673,8,17.5,8H18v13h-3.027c-0.01-0.185-0.01-0.372-0.03-0.554
			c-0.03-0.274-0.274-0.47-0.552-0.442c-0.274,0.03-0.473,0.277-0.442,0.552C13.982,20.866,14,21.181,14,21.5v2
			c0,0.276,0.224,0.5,0.5,0.5h9c0.276,0,0.5-0.224,0.5-0.5v-2C24,21.224,23.776,21,23.5,21z"/>
		<path d="M6.554,12.058C6.208,12.02,5.856,12,5.5,12C5.224,12,5,12.224,5,12.5V21H0.5C0.224,21,0,21.224,0,21.5v2
			C0,23.776,0.224,24,0.5,24h5C5.776,24,6,23.776,6,23.5v-2v-8.473c0.148,0.009,0.298,0.008,0.444,0.024
			c0.019,0.002,0.037,0.003,0.055,0.003c0.252,0,0.468-0.189,0.497-0.445C7.026,12.335,6.828,12.088,6.554,12.058z"/>
		<path d="M10.026,13.146c-0.536-0.291-1.103-0.531-1.683-0.712c-0.266-0.084-0.544,0.064-0.626,0.328
			c-0.083,0.264,0.064,0.544,0.328,0.626c0.519,0.163,1.025,0.377,1.505,0.637c0.076,0.041,0.157,0.061,0.238,0.061
			c0.177,0,0.35-0.095,0.44-0.262C10.359,13.581,10.269,13.277,10.026,13.146z"/>
		<path d="M14.239,19.281c0.264-0.083,0.41-0.363,0.328-0.626c-0.182-0.58-0.421-1.146-0.713-1.683
			c-0.132-0.243-0.437-0.332-0.678-0.201c-0.243,0.132-0.333,0.436-0.201,0.678c0.261,0.479,0.475,0.985,0.638,1.504
			c0.067,0.214,0.264,0.351,0.477,0.351C14.139,19.304,14.189,19.297,14.239,19.281z"/>
		<path d="M12.832,15.459c-0.386-0.469-0.821-0.904-1.292-1.292c-0.213-0.176-0.53-0.145-0.704,0.067
			c-0.176,0.213-0.146,0.528,0.067,0.704c0.422,0.348,0.811,0.737,1.157,1.156c0.099,0.12,0.242,0.182,0.386,0.182
			c0.112,0,0.224-0.038,0.317-0.114C12.978,15.988,13.008,15.672,12.832,15.459z"/>
	</g>
</g>
<g id="_x33_D_Box">
</g>
<g id="Section_Symbol">
</g>
<g id="Outlet_Symbol">
</g>
<g id="Cad_File">
</g>
<g id="Blueprint">
</g>
<g id="Construction_Plan">
</g>
<g id="Roof_Plan">
</g>
<g id="House_Construction">
</g>
<g id="Building_Construction">
</g>
<g id="Work_Table">
</g>
<g id="Table_Cad">
</g>
<g id="House_Plan">
</g>
<g id="Tape_Measure">
</g>
<g id="Cad_Paper">
</g>
<g id="Cad_Papers">
</g>
<g id="Stairs">
</g>
<g id="Pillar">
</g>
<g id="Bricks">
</g>
<g id="Pantheon">
</g>
<g id="House">
</g>
<g id="Skyscraper">
</g>
<g id="Building">
</g>
</svg>
