<?xml version="1.0" encoding="iso-8859-1"?>
<!-- Generator: Adobe Illustrator 19.2.1, SVG Export Plug-In . SVG Version: 6.00 Build 0)  -->
<svg version="1.1" xmlns="http://www.w3.org/2000/svg" xmlns:xlink="http://www.w3.org/1999/xlink" x="0px" y="0px"
	 viewBox="0 0 24 24" style="enable-background:new 0 0 24 24;" xml:space="preserve">
<g id="Cad_1">
</g>
<g id="Cad_2">
</g>
<g id="Cad_Pencil">
</g>
<g id="Cad_Compasses">
</g>
<g id="Tools_1">
</g>
<g id="Tools_2">
</g>
<g id="Ruler_1">
</g>
<g id="Ruler_2">
</g>
<g id="Workspace_1">
</g>
<g id="Workspace_2">
</g>
<g id="Cad_3">
</g>
<g id="_x33_D_Box">
</g>
<g id="Section_Symbol">
</g>
<g id="Outlet_Symbol">
</g>
<g id="Cad_File">
</g>
<g id="Blueprint">
</g>
<g id="Construction_Plan">
</g>
<g id="Roof_Plan">
</g>
<g id="House_Construction">
</g>
<g id="Building_Construction">
</g>
<g id="Work_Table">
</g>
<g id="Table_Cad">
</g>
<g id="House_Plan">
</g>
<g id="Tape_Measure">
</g>
<g id="Cad_Paper">
	<path d="M22.729,0.903c-0.345-0.346-0.762-0.589-1.172-0.686c-0.488-0.114-0.939-0.012-1.236,0.285l0,0.001l-1.017,1.017
		c-0.011-0.228,0.021-0.483,0.199-0.661c0.069-0.069,0.105-0.155,0.125-0.244l0,0c0.005-0.021-0.003-0.042-0.001-0.063
		c0.007-0.061,0.013-0.123-0.002-0.183c-0.007-0.026-0.029-0.046-0.04-0.071c-0.023-0.051-0.041-0.104-0.083-0.146
		c-0.001-0.001-0.002-0.001-0.002-0.002c0,0-0.001-0.001-0.001-0.002c-0.026-0.025-0.058-0.038-0.087-0.057
		c-0.026-0.016-0.049-0.039-0.077-0.05c-0.04-0.016-0.082-0.019-0.124-0.024c-0.021-0.003-0.042-0.012-0.063-0.012
		c-0.047,0-0.092,0.014-0.138,0.027c-0.016,0.005-0.034,0.004-0.05,0.01c-0.036,0.015-0.067,0.042-0.099,0.066
		c-0.021,0.015-0.046,0.024-0.065,0.043c0,0-0.001,0.002-0.002,0.002c-0.001,0.001-0.001,0.001-0.002,0.001L0.5,18.787
		c-0.458,0.458-0.607,1.143-0.422,1.929c0.165,0.701,0.586,1.417,1.185,2.016s1.315,1.02,2.016,1.185
		c0.219,0.052,0.431,0.077,0.632,0.077c0.519,0,0.968-0.17,1.3-0.503L23.506,4.857c0.003-0.003,0.003-0.006,0.006-0.009
		C24.39,3.952,24.054,2.229,22.729,0.903z M22.796,4.153c-0.366,0.366-1.291,0.249-2.168-0.441l0.802-0.801
		c0.094-0.094,0.146-0.221,0.146-0.354s-0.053-0.26-0.146-0.354c-0.425-0.425-0.502-0.891-0.401-0.993l0.001,0
		c0.036-0.035,0.144-0.055,0.299-0.019c0.229,0.054,0.481,0.207,0.705,0.431C23.003,2.592,23.214,3.734,22.796,4.153z"/>
</g>
<g id="Cad_Papers">
</g>
<g id="Stairs">
</g>
<g id="Pillar">
</g>
<g id="Bricks">
</g>
<g id="Pantheon">
</g>
<g id="House">
</g>
<g id="Skyscraper">
</g>
<g id="Building">
</g>
</svg>
