<?xml version="1.0" encoding="iso-8859-1"?>
<!-- Generator: Adobe Illustrator 19.2.1, SVG Export Plug-In . SVG Version: 6.00 Build 0)  -->
<svg version="1.1" xmlns="http://www.w3.org/2000/svg" xmlns:xlink="http://www.w3.org/1999/xlink" x="0px" y="0px"
	 viewBox="0 0 30 30" style="enable-background:new 0 0 30 30;" xml:space="preserve">
<g id="Cad_1">
</g>
<g id="Cad_2">
	<path d="M29,14V0.5C29,0.224,28.776,0,28.5,0H15v14h4v-0.5c0-0.276,0.224-0.5,0.5-0.5s0.5,0.224,0.5,0.5v2
		c0,0.276-0.224,0.5-0.5,0.5S19,15.776,19,15.5V15h-4v4h0.5c0.276,0,0.5,0.224,0.5,0.5S15.776,20,15.5,20h-2
		c-0.276,0-0.5-0.224-0.5-0.5s0.224-0.5,0.5-0.5H14v-4h-4v0.5c0,0.276-0.224,0.5-0.5,0.5S9,15.776,9,15.5v-2
		C9,13.224,9.224,13,9.5,13s0.5,0.224,0.5,0.5V14h4V0H0.5C0.224,0,0,0.224,0,0.5V14h5v-0.5C5,13.224,5.224,13,5.5,13
		S6,13.224,6,13.5v2C6,15.776,5.776,16,5.5,16S5,15.776,5,15.5V15H0v4.5C0,19.776,0.224,20,0.5,20L2,20v3H0.5
		C0.224,23,0,23.224,0,23.5v5C0,28.776,0.224,29,0.5,29H14v-5h-0.5c-0.276,0-0.5-0.224-0.5-0.5s0.224-0.5,0.5-0.5h2
		c0.276,0,0.5,0.224,0.5,0.5S15.776,24,15.5,24H15v5h13.5c0.276,0,0.5-0.224,0.5-0.5V15h-5v0.5c0,0.276-0.224,0.5-0.5,0.5
		S23,15.776,23,15.5v-2c0-0.276,0.224-0.5,0.5-0.5s0.5,0.224,0.5,0.5V14H29z"/>
</g>
<g id="Cad_Pencil">
</g>
<g id="Cad_Compasses">
</g>
<g id="Tools_1">
</g>
<g id="Tools_2">
</g>
<g id="Ruler_1">
</g>
<g id="Ruler_2">
</g>
<g id="Workspace_1">
</g>
<g id="Workspace_2">
</g>
<g id="Cad_3">
</g>
<g id="_x33_D_Box">
</g>
<g id="Section_Symbol">
</g>
<g id="Outlet_Symbol">
</g>
<g id="Cad_File">
</g>
<g id="Blueprint">
</g>
<g id="Construction_Plan">
</g>
<g id="Roof_Plan">
</g>
<g id="House_Construction">
</g>
<g id="Building_Construction">
</g>
<g id="Work_Table">
</g>
<g id="Table_Cad">
</g>
<g id="House_Plan">
</g>
<g id="Tape_Measure">
</g>
<g id="Cad_Paper">
</g>
<g id="Cad_Papers">
</g>
<g id="Stairs">
</g>
<g id="Pillar">
</g>
<g id="Bricks">
</g>
<g id="Pantheon">
</g>
<g id="House">
</g>
<g id="Skyscraper">
</g>
<g id="Building">
</g>
</svg>
