<?xml version="1.0" encoding="iso-8859-1"?>
<!-- Generator: Adobe Illustrator 19.2.1, SVG Export Plug-In . SVG Version: 6.00 Build 0)  -->
<svg version="1.1" xmlns="http://www.w3.org/2000/svg" xmlns:xlink="http://www.w3.org/1999/xlink" x="0px" y="0px"
	 viewBox="0 0 30 30" style="enable-background:new 0 0 30 30;" xml:space="preserve">
<g id="Cad_1">
</g>
<g id="Cad_2">
</g>
<g id="Cad_Pencil">
</g>
<g id="Cad_Compasses">
</g>
<g id="Tools_1">
</g>
<g id="Tools_2">
</g>
<g id="Ruler_1">
</g>
<g id="Ruler_2">
</g>
<g id="Workspace_1">
</g>
<g id="Workspace_2">
</g>
<g id="Cad_3">
	<g>
		<g>
			<path d="M6.5,30.281h-6c-0.276,0-0.5-0.224-0.5-0.5v-3c0-0.276,0.224-0.5,0.5-0.5h6c0.276,0,0.5,0.224,0.5,0.5v3
				C7,30.058,6.776,30.281,6.5,30.281z M1,29.281h5v-2H1V29.281z"/>
		</g>
		<g>
			<path d="M29.5,30.281h-12c-0.276,0-0.5-0.224-0.5-0.5v-3c0-0.276,0.224-0.5,0.5-0.5h12c0.276,0,0.5,0.224,0.5,0.5v3
				C30,30.058,29.776,30.281,29.5,30.281z M18,29.281h11v-2H18V29.281z"/>
		</g>
		<g>
			<path d="M6.5,30.281c-0.276,0-0.5-0.224-0.5-0.5v-14c0-0.276,0.224-0.5,0.5-0.5s0.5,0.224,0.5,0.5v14
				C7,30.058,6.776,30.281,6.5,30.281z"/>
		</g>
		<g>
			<g>
				<path d="M7.5,16.327c-0.015,0-0.031,0-0.046-0.002C7.14,16.296,6.822,16.281,6.5,16.281c-0.276,0-0.5-0.224-0.5-0.5
					s0.224-0.5,0.5-0.5c0.353,0,0.702,0.016,1.045,0.048c0.275,0.025,0.478,0.269,0.452,0.544C7.974,16.132,7.755,16.327,7.5,16.327
					z"/>
			</g>
			<g>
				<path d="M17.063,24.576c-0.219,0-0.419-0.145-0.481-0.366c-0.192-0.689-0.45-1.362-0.766-1.999
					c-0.123-0.248-0.022-0.547,0.226-0.67c0.248-0.125,0.548-0.021,0.67,0.226c0.344,0.693,0.625,1.425,0.833,2.175
					c0.074,0.266-0.081,0.542-0.347,0.616C17.153,24.57,17.107,24.576,17.063,24.576z M15.084,20.591
					c-0.15,0-0.299-0.067-0.397-0.196c-0.436-0.569-0.926-1.095-1.458-1.563c-0.208-0.182-0.228-0.498-0.045-0.706
					c0.182-0.207,0.498-0.227,0.706-0.045c0.581,0.511,1.117,1.084,1.592,1.706c0.168,0.219,0.126,0.533-0.093,0.701
					C15.297,20.557,15.19,20.591,15.084,20.591z M11.739,17.66c-0.083,0-0.168-0.021-0.246-0.065
					c-0.62-0.352-1.276-0.638-1.952-0.85c-0.264-0.083-0.41-0.364-0.327-0.627s0.364-0.41,0.627-0.327
					c0.743,0.233,1.464,0.548,2.145,0.934c0.24,0.136,0.325,0.441,0.188,0.682C12.083,17.569,11.914,17.66,11.739,17.66z"/>
			</g>
			<g>
				<path d="M17.5,27.781c-0.276,0-0.5-0.224-0.5-0.5c0-0.322-0.014-0.642-0.04-0.958c-0.022-0.275,0.182-0.517,0.457-0.54
					c0.276-0.032,0.517,0.182,0.54,0.457C17.985,26.584,18,26.932,18,27.281C18,27.558,17.776,27.781,17.5,27.781z"/>
			</g>
		</g>
		<g>
			<path d="M4.5,29.875c-0.276,0-0.5-0.224-0.5-0.5v-2c0-0.276,0.224-0.5,0.5-0.5s0.5,0.224,0.5,0.5v2
				C5,29.651,4.776,29.875,4.5,29.875z"/>
		</g>
		<g>
			<path d="M20.5,30c-0.276,0-0.5-0.224-0.5-0.5v-2c0-0.276,0.224-0.5,0.5-0.5s0.5,0.224,0.5,0.5v2C21,29.776,20.776,30,20.5,30z"/>
		</g>
		<g>
			<path d="M26.5,11.281h-6c-0.276,0-0.5-0.224-0.5-0.5v-6c0-0.276,0.224-0.5,0.5-0.5h6c0.276,0,0.5,0.224,0.5,0.5v6
				C27,11.058,26.776,11.281,26.5,11.281z M21,10.281h5v-5h-5V10.281z"/>
		</g>
		<g>
			<path d="M23.5,27.281c-0.276,0-0.5-0.224-0.5-0.5v-16c0-0.276,0.224-0.5,0.5-0.5s0.5,0.224,0.5,0.5v16
				C24,27.058,23.776,27.281,23.5,27.281z"/>
		</g>
		<g>
			<path d="M20.5,8.281h-20c-0.276,0-0.5-0.224-0.5-0.5s0.224-0.5,0.5-0.5h20c0.276,0,0.5,0.224,0.5,0.5S20.776,8.281,20.5,8.281z"
				/>
		</g>
		<g>
			<path d="M23.5,5.031c-0.276,0-0.5-0.224-0.5-0.5v-3.75c0-0.276,0.224-0.5,0.5-0.5s0.5,0.224,0.5,0.5v3.75
				C24,4.808,23.776,5.031,23.5,5.031z"/>
		</g>
		<g>
			<path d="M29.5,8.281h-3c-0.276,0-0.5-0.224-0.5-0.5s0.224-0.5,0.5-0.5h3c0.276,0,0.5,0.224,0.5,0.5S29.776,8.281,29.5,8.281z"/>
		</g>
	</g>
</g>
<g id="_x33_D_Box">
</g>
<g id="Section_Symbol">
</g>
<g id="Outlet_Symbol">
</g>
<g id="Cad_File">
</g>
<g id="Blueprint">
</g>
<g id="Construction_Plan">
</g>
<g id="Roof_Plan">
</g>
<g id="House_Construction">
</g>
<g id="Building_Construction">
</g>
<g id="Work_Table">
</g>
<g id="Table_Cad">
</g>
<g id="House_Plan">
</g>
<g id="Tape_Measure">
</g>
<g id="Cad_Paper">
</g>
<g id="Cad_Papers">
</g>
<g id="Stairs">
</g>
<g id="Pillar">
</g>
<g id="Bricks">
</g>
<g id="Pantheon">
</g>
<g id="House">
</g>
<g id="Skyscraper">
</g>
<g id="Building">
</g>
</svg>
