<?xml version="1.0" encoding="iso-8859-1"?>
<!-- Generator: Adobe Illustrator 19.2.1, SVG Export Plug-In . SVG Version: 6.00 Build 0)  -->
<svg version="1.1" xmlns="http://www.w3.org/2000/svg" xmlns:xlink="http://www.w3.org/1999/xlink" x="0px" y="0px"
	 viewBox="0 0 24 24" style="enable-background:new 0 0 24 24;" xml:space="preserve">
<g id="Cad_1">
</g>
<g id="Cad_2">
	<path d="M23,11V1.5C23,1.224,22.776,1,22.5,1H12v10h2v-0.5c0-0.276,0.224-0.5,0.5-0.5s0.5,0.224,0.5,0.5v2
		c0,0.276-0.224,0.5-0.5,0.5S14,12.776,14,12.5V12h-2v3h0.5c0.276,0,0.5,0.224,0.5,0.5S12.776,16,12.5,16h-2
		c-0.276,0-0.5-0.224-0.5-0.5s0.224-0.5,0.5-0.5H11v-3H9v0.5C9,12.776,8.776,13,8.5,13S8,12.776,8,12.5v-2C8,10.224,8.224,10,8.5,10
		S9,10.224,9,10.5V11h2V1H0.5C0.224,1,0,1.224,0,1.5V11h4v-0.5C4,10.224,4.224,10,4.5,10S5,10.224,5,10.5v2
		C5,12.776,4.776,13,4.5,13S4,12.776,4,12.5V12H0v3.5C0,15.776,0.224,16,0.5,16H2v3H0.5C0.224,19,0,19.224,0,19.5v4
		C0,23.776,0.224,24,0.5,24H11v-4h-0.5c-0.276,0-0.5-0.224-0.5-0.5s0.224-0.5,0.5-0.5h2c0.276,0,0.5,0.224,0.5,0.5
		S12.776,20,12.5,20H12v4h10.5c0.276,0,0.5-0.224,0.5-0.5V12h-4v0.5c0,0.276-0.224,0.5-0.5,0.5S18,12.776,18,12.5v-2
		c0-0.276,0.224-0.5,0.5-0.5s0.5,0.224,0.5,0.5V11H23z"/>
</g>
<g id="Cad_Pencil">
</g>
<g id="Cad_Compasses">
</g>
<g id="Tools_1">
</g>
<g id="Tools_2">
</g>
<g id="Ruler_1">
</g>
<g id="Ruler_2">
</g>
<g id="Workspace_1">
</g>
<g id="Workspace_2">
</g>
<g id="Cad_3">
</g>
<g id="_x33_D_Box">
</g>
<g id="Section_Symbol">
</g>
<g id="Outlet_Symbol">
</g>
<g id="Cad_File">
</g>
<g id="Blueprint">
</g>
<g id="Construction_Plan">
</g>
<g id="Roof_Plan">
</g>
<g id="House_Construction">
</g>
<g id="Building_Construction">
</g>
<g id="Work_Table">
</g>
<g id="Table_Cad">
</g>
<g id="House_Plan">
</g>
<g id="Tape_Measure">
</g>
<g id="Cad_Paper">
</g>
<g id="Cad_Papers">
</g>
<g id="Stairs">
</g>
<g id="Pillar">
</g>
<g id="Bricks">
</g>
<g id="Pantheon">
</g>
<g id="House">
</g>
<g id="Skyscraper">
</g>
<g id="Building">
</g>
</svg>
