<?xml version="1.0" encoding="iso-8859-1"?>
<!-- Generator: Adobe Illustrator 19.2.1, SVG Export Plug-In . SVG Version: 6.00 Build 0)  -->
<svg version="1.1" xmlns="http://www.w3.org/2000/svg" xmlns:xlink="http://www.w3.org/1999/xlink" x="0px" y="0px"
	 viewBox="0 0 30 30" style="enable-background:new 0 0 30 30;" xml:space="preserve">
<g id="Cad_1">
</g>
<g id="Cad_2">
</g>
<g id="Cad_Pencil">
</g>
<g id="Cad_Compasses">
	<g>
		<path d="M24,5.5c0-1.483-1.084-2.71-2.5-2.949V0.5C21.5,0.224,21.276,0,21,0s-0.5,0.224-0.5,0.5v2.051
			C19.084,2.79,18,4.017,18,5.5c0,1.654,1.346,3,3,3S24,7.154,24,5.5z"/>
		<path d="M13.502,19.501c-0.166,0-0.33-0.027-0.486-0.082C12.413,19.219,12,18.647,12,18v-2.5c0-0.259,0.068-0.516,0.196-0.742
			L14.344,11H10v9h2.5c0.276,0,0.5,0.224,0.5,0.5S12.776,21,12.5,21H10v2.5c0,0.276-0.224,0.5-0.5,0.5S9,23.776,9,23.5V21H6.5
			C6.224,21,6,20.776,6,20.5S6.224,20,6.5,20H9v-9H0.5C0.224,11,0,11.224,0,11.5V20h3.5C3.776,20,4,20.224,4,20.5S3.776,21,3.5,21H0
			v1.5C0,22.776,0.224,23,0.5,23H1v3H0.5C0.224,26,0,26.224,0,26.5v3C0,29.776,0.224,30,0.5,30H9v-3.5C9,26.224,9.224,26,9.5,26
			s0.5,0.224,0.5,0.5V30h8.5c0.276,0,0.5-0.224,0.5-0.5V21h-3.5c-0.276,0-0.5-0.224-0.5-0.5s0.224-0.5,0.5-0.5H19v-6.834L14.7,18.9
			C14.42,19.275,13.971,19.501,13.502,19.501z"/>
		<path d="M17.527,7.445l-4.461,7.807C13.023,15.328,13,15.413,13,15.5V18c0,0.215,0.138,0.406,0.342,0.474
			c0.205,0.071,0.429-0.001,0.558-0.174l6.635-8.847C19.239,9.3,18.14,8.535,17.527,7.445z"/>
		<path d="M28.934,15.252l-4.461-7.807c-0.613,1.09-1.712,1.855-3.009,2.008L28.1,18.3c0.096,0.128,0.246,0.2,0.4,0.2
			c0.053,0,0.106-0.008,0.158-0.026C28.862,18.406,29,18.215,29,18v-2.5C29,15.413,28.977,15.328,28.934,15.252z"/>
	</g>
</g>
<g id="Tools_1">
</g>
<g id="Tools_2">
</g>
<g id="Ruler_1">
</g>
<g id="Ruler_2">
</g>
<g id="Workspace_1">
</g>
<g id="Workspace_2">
</g>
<g id="Cad_3">
</g>
<g id="_x33_D_Box">
</g>
<g id="Section_Symbol">
</g>
<g id="Outlet_Symbol">
</g>
<g id="Cad_File">
</g>
<g id="Blueprint">
</g>
<g id="Construction_Plan">
</g>
<g id="Roof_Plan">
</g>
<g id="House_Construction">
</g>
<g id="Building_Construction">
</g>
<g id="Work_Table">
</g>
<g id="Table_Cad">
</g>
<g id="House_Plan">
</g>
<g id="Tape_Measure">
</g>
<g id="Cad_Paper">
</g>
<g id="Cad_Papers">
</g>
<g id="Stairs">
</g>
<g id="Pillar">
</g>
<g id="Bricks">
</g>
<g id="Pantheon">
</g>
<g id="House">
</g>
<g id="Skyscraper">
</g>
<g id="Building">
</g>
</svg>
