<?xml version="1.0" encoding="iso-8859-1"?>
<!-- Generator: Adobe Illustrator 19.2.1, SVG Export Plug-In . SVG Version: 6.00 Build 0)  -->
<svg version="1.1" xmlns="http://www.w3.org/2000/svg" xmlns:xlink="http://www.w3.org/1999/xlink" x="0px" y="0px"
	 viewBox="0 0 30 30" style="enable-background:new 0 0 30 30;" xml:space="preserve">
<g id="Engagement_1">
</g>
<g id="Engagement_2">
</g>
<g id="Wedding_Ring">
</g>
<g id="Church">
</g>
<g id="Church_Bells">
</g>
<g id="Wedding_Altar_1">
</g>
<g id="Wedding_Altar_2">
</g>
<g id="Bow-Tie">
</g>
<g id="Wedding_Tiara">
</g>
<g id="Wedding_Bouquet">
</g>
<g id="Wedding_Decoration_1">
</g>
<g id="Wedding_Decoration_2">
</g>
<g id="Wedding_Way_Sign">
</g>
<g id="Wedding_Date">
</g>
<g id="Wedding_Invitation">
</g>
<g id="Wedding_Invitation_2">
</g>
<g id="Bride">
</g>
<g id="Groom">
</g>
<g id="Mariage_Couple">
</g>
<g id="Wedding_Planner_Book">
</g>
<g id="Wedding_Cake_1">
</g>
<g id="Wedding_Cake_2">
</g>
<g id="Wedding_Cake_3">
</g>
<g id="Cake_Slice">
	<g>
		<g id="XMLID_255_">
			<path d="M28.5,21.857c-0.024,0-0.05-0.002-0.075-0.006c-1.552-0.232-2.256-1.053-2.877-1.776
				c-0.581-0.676-1.082-1.26-2.266-1.438c-1.16-0.172-1.787,0.309-2.514,0.867c-0.794,0.608-1.693,1.304-3.272,1.062
				c-1.583-0.237-2.286-1.246-2.907-2.137c-0.579-0.83-1.079-1.546-2.235-1.721c-1.162-0.175-1.788,0.309-2.514,0.867
				c-0.792,0.608-1.69,1.301-3.272,1.062c-1.552-0.232-2.254-1.035-2.874-1.743c-0.58-0.662-1.08-1.234-2.27-1.413
				c-0.273-0.041-0.461-0.295-0.42-0.568c0.041-0.272,0.29-0.463,0.569-0.42c1.552,0.232,2.254,1.035,2.874,1.743
				c0.58,0.662,1.08,1.234,2.27,1.413c1.161,0.173,1.788-0.308,2.514-0.866c0.792-0.609,1.689-1.302,3.272-1.063
				c1.583,0.237,2.286,1.247,2.907,2.137c0.579,0.83,1.079,1.547,2.235,1.721c1.16,0.174,1.787-0.309,2.515-0.867
				c0.793-0.608,1.695-1.299,3.271-1.062c1.552,0.232,2.256,1.053,2.877,1.776c0.581,0.676,1.082,1.26,2.266,1.438
				c0.273,0.041,0.461,0.295,0.42,0.568C28.957,21.68,28.744,21.857,28.5,21.857z"/>
		</g>
		<g>
			<path d="M28.5,27c-0.025,0-0.05-0.002-0.075-0.006l-27-4.114C1.181,22.843,1,22.633,1,22.386V11.071
				c0-0.167,0.083-0.323,0.223-0.416c0.305-0.203,0.601-0.408,0.895-0.612c1.554-1.078,3.16-2.192,5.718-2.677l0.812-0.108
				c0.274-0.037,0.525,0.156,0.561,0.431c0.036,0.273-0.156,0.525-0.43,0.562L7.994,8.354C5.672,8.794,4.223,9.8,2.688,10.864
				C2.46,11.021,2.232,11.181,2,11.338v10.618l26,3.962V15.174l-12.495-7.46l-2.738,0.047c-0.278,0.03-0.526-0.152-0.564-0.427
				c-0.038-0.273,0.153-0.525,0.426-0.563l0.373-0.052l2.641-0.005c0.09,0,0.179,0.024,0.256,0.07l12.857,7.676
				C28.907,14.551,29,14.714,29,14.89V26.5c0,0.146-0.063,0.284-0.174,0.379C28.734,26.958,28.619,27,28.5,27z"/>
		</g>
		<g id="XMLID_256_">
			<path d="M28.5,15.386c-0.023,0-0.047-0.002-0.07-0.005l-27-3.814c-0.273-0.039-0.464-0.292-0.425-0.565
				c0.039-0.272,0.29-0.459,0.565-0.425l27,3.814c0.273,0.039,0.464,0.292,0.425,0.565C28.96,15.205,28.746,15.386,28.5,15.386z"/>
		</g>
		<g>
			<path d="M10.5,9C8.807,9,7.429,7.622,7.429,5.929c0-4.147,1.487-4.357,1.786-4.357c0.275,0,0.498,0.222,0.5,0.496
				c0.005,0.238,0.091,0.79,0.786,0.79c1.619,0,2.961,1.271,3.056,2.894l0.014,0.143C13.571,7.622,12.193,9,10.5,9z M8.926,2.936
				C8.694,3.344,8.429,4.19,8.429,5.929C8.429,7.071,9.358,8,10.5,8s2.071-0.929,2.071-2.071L12.56,5.84
				c-0.066-1.125-0.97-1.982-2.06-1.982C9.672,3.857,9.178,3.431,8.926,2.936z M9.714,2.071h0.01H9.714z"/>
		</g>
	</g>
</g>
<g id="Marriage_Settlement">
</g>
<g id="Glass_Decoration">
</g>
<g id="Cutlery_Decoration">
</g>
<g id="Celebration_Glasses">
</g>
<g id="Wedding_Photo">
</g>
<g id="Wedding_Present_1">
</g>
<g id="Wedding_Present_2">
</g>
<g id="Wedding_Bouquet_2">
</g>
<g id="Hands_with_rings">
</g>
<g id="Wedding_Car">
</g>
<g id="Wedding_music">
</g>
<g id="wedding_party">
</g>
<g id="Confetti_1">
</g>
<g id="Confetti_2">
</g>
</svg>
