<?xml version="1.0" encoding="iso-8859-1"?>
<!-- Generator: Adobe Illustrator 19.2.1, SVG Export Plug-In . SVG Version: 6.00 Build 0)  -->
<svg version="1.1" xmlns="http://www.w3.org/2000/svg" xmlns:xlink="http://www.w3.org/1999/xlink" x="0px" y="0px"
	 viewBox="0 0 24 24" style="enable-background:new 0 0 24 24;" xml:space="preserve">
<g id="Engagement_1">
</g>
<g id="Engagement_2">
</g>
<g id="Wedding_Ring">
</g>
<g id="Church">
</g>
<g id="Church_Bells">
</g>
<g id="Wedding_Altar_1">
</g>
<g id="Wedding_Altar_2">
</g>
<g id="Bow-Tie">
</g>
<g id="Wedding_Tiara">
</g>
<g id="Wedding_Bouquet">
</g>
<g id="Wedding_Decoration_1">
</g>
<g id="Wedding_Decoration_2">
</g>
<g id="Wedding_Way_Sign">
</g>
<g id="Wedding_Date">
</g>
<g id="Wedding_Invitation">
</g>
<g id="Wedding_Invitation_2">
</g>
<g id="Bride">
</g>
<g id="Groom">
</g>
<g id="Mariage_Couple">
</g>
<g id="Wedding_Planner_Book">
</g>
<g id="Wedding_Cake_1">
</g>
<g id="Wedding_Cake_2">
</g>
<g id="Wedding_Cake_3">
</g>
<g id="Cake_Slice">
	<g>
		<path d="M1,8.935v1.987l0.074,0.011c1.298,0.195,1.882,0.863,2.397,1.452c0.46,0.526,0.857,0.98,1.793,1.121
			c0.91,0.138,1.379-0.228,1.978-0.688c0.66-0.508,1.409-1.083,2.736-0.884c1.329,0.2,1.915,1.039,2.431,1.78
			c0.478,0.686,0.856,1.227,1.759,1.363c0.904,0.139,1.378-0.228,1.978-0.688c0.661-0.508,1.407-1.083,2.736-0.884
			c1.299,0.195,1.884,0.877,2.399,1.479c0.448,0.521,0.845,0.967,1.717,1.121v-4.062L1,8.935z"/>
		<path d="M20.524,15.634c-0.461-0.537-0.858-1-1.789-1.14c-0.909-0.14-1.38,0.227-1.979,0.688c-0.661,0.507-1.41,1.087-2.736,0.883
			c-1.329-0.199-1.915-1.039-2.431-1.779c-0.478-0.686-0.856-1.228-1.759-1.363c-0.905-0.136-1.379,0.227-1.979,0.688
			c-0.661,0.508-1.412,1.082-2.736,0.884c-1.298-0.195-1.882-0.863-2.397-1.452C2.273,12.532,1.876,12.095,1,11.941V17.3
			c0,0.247,0.181,0.457,0.425,0.494l21,3.2C22.45,20.998,22.475,21,22.5,21c0.119,0,0.234-0.042,0.326-0.121
			C22.937,20.784,23,20.646,23,20.5v-3.377l-0.074-0.011C21.626,16.918,21.041,16.235,20.524,15.634z"/>
		<path d="M8.5,7c1.378,0,2.5-1.122,2.499-2.535l-0.011-0.109C10.911,3.035,9.818,2,8.5,2C8.098,2,8.006,1.726,8,1.495
			C7.998,1.221,7.774,1,7.5,1C7.148,1,6,1.252,6,4.5C6,5.878,7.122,7,8.5,7z"/>
		<path d="M12.756,5.071C12.679,5.024,12.59,5,12.5,5l-0.553,0.001c-0.111,0.747-0.442,1.437-0.981,1.976
			C10.308,7.637,9.432,8,8.5,8C7.033,8,5.778,7.09,5.259,5.807C3.882,6.253,2.882,6.939,1.915,7.61
			C1.738,7.733,1.559,7.855,1.378,7.978l21.283,3.006L12.756,5.071z"/>
	</g>
</g>
<g id="Marriage_Settlement">
</g>
<g id="Glass_Decoration">
</g>
<g id="Cutlery_Decoration">
</g>
<g id="Celebration_Glasses">
</g>
<g id="Wedding_Photo">
</g>
<g id="Wedding_Present_1">
</g>
<g id="Wedding_Present_2">
</g>
<g id="Wedding_Bouquet_2">
</g>
<g id="Hands_with_rings">
</g>
<g id="Wedding_Car">
</g>
<g id="Wedding_music">
</g>
<g id="wedding_party">
</g>
<g id="Confetti_1">
</g>
<g id="Confetti_2">
</g>
</svg>
