<?xml version="1.0" encoding="iso-8859-1"?>
<!-- Generator: Adobe Illustrator 19.2.1, SVG Export Plug-In . SVG Version: 6.00 Build 0)  -->
<svg version="1.1" xmlns="http://www.w3.org/2000/svg" xmlns:xlink="http://www.w3.org/1999/xlink" x="0px" y="0px"
	 viewBox="0 0 24 24" style="enable-background:new 0 0 24 24;" xml:space="preserve">
<g id="Mail">
</g>
<g id="Open_Mail">
</g>
<g id="Mail_Attachmet">
</g>
<g id="Mails">
</g>
<g id="Trash">
</g>
<g id="Trash_Full">
</g>
<g id="Preferences_1">
</g>
<g id="Preferences_2">
</g>
<g id="Mouse">
</g>
<g id="Computer">
</g>
<g id="Notebook">
</g>
<g id="Mobile_Phone">
</g>
<g id="Print">
</g>
<g id="Calculator">
</g>
<g id="Tag">
</g>
<g id="Paperclip">
</g>
<g id="Heart">
</g>
<g id="Lock">
</g>
<g id="Lock_Open">
</g>
<g id="Key_1">
</g>
<g id="Star">
</g>
<g id="Add">
</g>
<g id="Remove">
</g>
<g id="Error">
</g>
<g id="Check_1">
</g>
<g id="Time">
</g>
<g id="Question_Mark">
</g>
<g id="Error_Mark">
</g>
<g id="Sand-Glass">
</g>
<g id="Battery_Full">
</g>
<g id="Battery_Charge">
</g>
<g id="Battery_Half">
</g>
<g id="Battery_Low">
</g>
<g id="No_Battery">
</g>
<g id="Key_2">
</g>
<g id="Link">
</g>
<g id="Brake_Link">
</g>
<g id="Pencil">
</g>
<g id="At">
</g>
<g id="Reply">
</g>
<g id="Accessible">
</g>
<g id="Up_Arrow">
</g>
<g id="Brush">
</g>
<g id="Design_Mug">
</g>
<g id="Design">
</g>
<g id="Server">
</g>
<g id="Database">
</g>
<g id="Save">
</g>
<g id="Female">
</g>
<g id="Male">
</g>
<g id="Book">
</g>
<g id="Power">
</g>
<g id="Reload">
</g>
<g id="Map">
</g>
<g id="Loction_1">
</g>
<g id="Location_2">
</g>
<g id="Globe">
</g>
<g id="Suitcase">
</g>
<g id="Callendar">
	<g>
		<path d="M6.5,5C6.776,5,7,4.776,7,4.5v-4C7,0.224,6.776,0,6.5,0S6,0.224,6,0.5v4C6,4.776,6.224,5,6.5,5z"/>
		<path d="M17.5,5C17.776,5,18,4.776,18,4.5v-4C18,0.224,17.776,0,17.5,0S17,0.224,17,0.5v4C17,4.776,17.224,5,17.5,5z"/>
		<path d="M20.5,2H19v2.5C19,5.327,18.327,6,17.5,6S16,5.327,16,4.5V2H8v2.5C8,5.327,7.327,6,6.5,6S5,5.327,5,4.5V2H3.5
			C1.57,2,0,3.57,0,5.5V7h24V5.5C24,3.57,22.43,2,20.5,2z"/>
		<path d="M0,20.5C0,22.43,1.57,24,3.5,24h17c1.93,0,3.5-1.57,3.5-3.5V8H0V20.5z M13.854,13.854c-0.195,0.195-0.512,0.195-0.707,0
			s-0.195-0.512,0-0.707l2-2c0.144-0.143,0.359-0.187,0.545-0.108C15.878,11.115,16,11.298,16,11.5V19h1.5
			c0.276,0,0.5,0.224,0.5,0.5S17.776,20,17.5,20h-4c-0.276,0-0.5-0.224-0.5-0.5s0.224-0.5,0.5-0.5H15v-6.293L13.854,13.854z M8.5,16
			h-1C7.224,16,7,15.776,7,15.5S7.224,15,7.5,15h1c0.827,0,1.5-0.673,1.5-1.5S9.327,12,8.5,12S7,12.673,7,13.5
			C7,13.776,6.776,14,6.5,14S6,13.776,6,13.5C6,12.122,7.122,11,8.5,11s2.5,1.122,2.5,2.5c0,0.816-0.394,1.544-1.001,2
			c0.607,0.456,1.001,1.184,1.001,2c0,1.379-1.122,2.5-2.5,2.5S6,18.879,6,17.5C6,17.224,6.224,17,6.5,17S7,17.224,7,17.5
			C7,18.327,7.673,19,8.5,19s1.5-0.673,1.5-1.5S9.327,16,8.5,16z"/>
	</g>
</g>
<g id="Cloud_Off">
</g>
<g id="File_1">
</g>
<g id="File_2">
</g>
<g id="Folder">
</g>
<g id="Open_Folder">
</g>
<g id="Cloud">
</g>
<g id="Upload_Cloud">
</g>
<g id="Download_Cloud">
</g>
<g id="Eye">
</g>
<g id="Invisible">
</g>
<g id="Assignment">
</g>
<g id="Note_Book">
</g>
<g id="Webpage">
</g>
<g id="Mailbox">
</g>
<g id="Drive">
</g>
<g id="Disc">
</g>
<g id="Wifi_1">
</g>
<g id="Wifi_2">
</g>
<g id="Archive">
</g>
<g id="Archive_File">
</g>
<g id="News">
</g>
<g id="Home">
</g>
<g id="Collaboration">
</g>
<g id="Announcement">
</g>
<g id="Watch">
</g>
<g id="Clock">
</g>
<g id="Volume">
</g>
<g id="Mute">
</g>
<g id="Hand">
</g>
<g id="Layers">
</g>
<g id="Bell">
</g>
<g id="Speach_Bubble">
</g>
<g id="Speach_Bubbles">
</g>
<g id="Zoom_In">
</g>
<g id="Zoom_Out">
</g>
<g id="Search">
</g>
<g id="Back_Arrow">
</g>
<g id="Close">
</g>
<g id="Check_2">
</g>
<g id="Left_Arrow_2">
</g>
<g id="Right_Arrow_2">
</g>
</svg>
