<?xml version="1.0" encoding="iso-8859-1"?>
<!-- Generator: Adobe Illustrator 19.2.1, SVG Export Plug-In . SVG Version: 6.00 Build 0)  -->
<svg version="1.1" xmlns="http://www.w3.org/2000/svg" xmlns:xlink="http://www.w3.org/1999/xlink" x="0px" y="0px"
	 viewBox="0 0 30 30" style="enable-background:new 0 0 30 30;" xml:space="preserve">
<g id="Mail">
</g>
<g id="Open_Mail">
</g>
<g id="Mail_Attachmet">
</g>
<g id="Mails">
</g>
<g id="Trash">
</g>
<g id="Trash_Full">
</g>
<g id="Preferences_1">
</g>
<g id="Preferences_2">
</g>
<g id="Mouse">
</g>
<g id="Computer">
</g>
<g id="Notebook">
</g>
<g id="Mobile_Phone">
</g>
<g id="Print">
</g>
<g id="Calculator">
</g>
<g id="Tag">
</g>
<g id="Paperclip">
</g>
<g id="Heart">
</g>
<g id="Lock">
</g>
<g id="Lock_Open">
</g>
<g id="Key_1">
</g>
<g id="Star">
</g>
<g id="Add">
</g>
<g id="Remove">
</g>
<g id="Error">
</g>
<g id="Check_1">
</g>
<g id="Time">
</g>
<g id="Question_Mark">
</g>
<g id="Error_Mark">
</g>
<g id="Sand-Glass">
</g>
<g id="Battery_Full">
</g>
<g id="Battery_Charge">
</g>
<g id="Battery_Half">
</g>
<g id="Battery_Low">
</g>
<g id="No_Battery">
</g>
<g id="Key_2">
</g>
<g id="Link">
</g>
<g id="Brake_Link">
</g>
<g id="Pencil">
</g>
<g id="At">
</g>
<g id="Reply">
</g>
<g id="Accessible">
</g>
<g id="Up_Arrow">
</g>
<g id="Brush">
</g>
<g id="Design_Mug">
</g>
<g id="Design">
</g>
<g id="Server">
</g>
<g id="Database">
</g>
<g id="Save">
</g>
<g id="Female">
</g>
<g id="Male">
</g>
<g id="Book">
</g>
<g id="Power">
</g>
<g id="Reload">
</g>
<g id="Map">
</g>
<g id="Loction_1">
</g>
<g id="Location_2">
</g>
<g id="Globe">
</g>
<g id="Suitcase">
</g>
<g id="Callendar">
	<g>
		<g>
			<path d="M26.5,30h-23C1.57,30,0,28.43,0,26.5v-20C0,4.57,1.57,3,3.5,3h23C28.43,3,30,4.57,30,6.5v20C30,28.43,28.43,30,26.5,30z
				 M3.5,4C2.121,4,1,5.121,1,6.5v20C1,27.879,2.121,29,3.5,29h23c1.379,0,2.5-1.121,2.5-2.5v-20C29,5.121,27.879,4,26.5,4H3.5z"/>
		</g>
		<g>
			<path d="M29.5,10h-29C0.224,10,0,9.776,0,9.5S0.224,9,0.5,9h29C29.776,9,30,9.224,30,9.5S29.776,10,29.5,10z"/>
		</g>
		<g>
			<path d="M8.5,6C8.224,6,8,5.776,8,5.5v-5C8,0.224,8.224,0,8.5,0S9,0.224,9,0.5v5C9,5.776,8.776,6,8.5,6z"/>
		</g>
		<g>
			<path d="M21.5,6C21.224,6,21,5.776,21,5.5v-5C21,0.224,21.224,0,21.5,0S22,0.224,22,0.5v5C22,5.776,21.776,6,21.5,6z"/>
		</g>
		<g>
			<path d="M11,25c-0.028,0-0.057-0.002-0.084-0.007C9.301,24.948,8,23.62,8,21.994c0-0.276,0.224-0.5,0.5-0.5s0.5,0.224,0.5,0.5
				c0,1.103,0.897,2,2,2c0.023,0,0.046,0.002,0.068,0.005c1.068-0.036,1.926-0.907,1.932-1.975c-0.006-1.091-0.882-1.943-2-1.943
				H9.75c-0.276,0-0.5-0.224-0.5-0.5s0.224-0.5,0.5-0.5H11c1.084,0,2-0.935,2-2.041c0-1.145-0.897-2.04-2-2.04s-2,0.896-2,1.997
				c0,0.276-0.224,0.5-0.5,0.5S8,17.273,8,16.997C8,15.345,9.346,14,11,14s3,1.345,3,2.997c0,1.079-0.529,2.018-1.333,2.568
				c0.8,0.518,1.321,1.404,1.333,2.434c0,0.005,0,0.01,0,0.015c0,0.004,0,0.007,0,0.011s0,0.007,0,0.011c0,0.005,0,0.01,0,0.015
				C13.98,23.68,12.642,25,11,25z"/>
		</g>
		<g>
			<path d="M19.5,24.5c-0.276,0-0.5-0.224-0.5-0.5v-8.293l-1.146,1.146c-0.195,0.195-0.512,0.195-0.707,0s-0.195-0.512,0-0.707l2-2
				c0.143-0.144,0.359-0.186,0.545-0.108C19.878,14.115,20,14.298,20,14.5V24C20,24.276,19.776,24.5,19.5,24.5z"/>
		</g>
		<g>
			<path d="M21.5,25h-4c-0.276,0-0.5-0.224-0.5-0.5s0.224-0.5,0.5-0.5h4c0.276,0,0.5,0.224,0.5,0.5S21.776,25,21.5,25z"/>
		</g>
	</g>
</g>
<g id="Cloud_Off">
</g>
<g id="File_1">
</g>
<g id="File_2">
</g>
<g id="Folder">
</g>
<g id="Open_Folder">
</g>
<g id="Cloud">
</g>
<g id="Upload_Cloud">
</g>
<g id="Download_Cloud">
</g>
<g id="Eye">
</g>
<g id="Invisible">
</g>
<g id="Assignment">
</g>
<g id="Note_Book">
</g>
<g id="Webpage">
</g>
<g id="Mailbox">
</g>
<g id="Drive">
</g>
<g id="Disc">
</g>
<g id="Wifi_1">
</g>
<g id="Wifi_2">
</g>
<g id="Archive">
</g>
<g id="Archive_File">
</g>
<g id="News">
</g>
<g id="Home">
</g>
<g id="Collaboration">
</g>
<g id="Announcement">
</g>
<g id="Watch">
</g>
<g id="Clock">
</g>
<g id="Volume">
</g>
<g id="Mute">
</g>
<g id="Hand">
</g>
<g id="Layers">
</g>
<g id="Bell">
</g>
<g id="Speach_Bubble">
</g>
<g id="Speach_Bubbles">
</g>
<g id="Zoom_In">
</g>
<g id="Zoom_Out">
</g>
<g id="Search">
</g>
<g id="Back_Arrow">
</g>
<g id="Close">
</g>
<g id="Check_2">
</g>
<g id="Left_Arrow_2">
</g>
<g id="Right_Arrow_2">
</g>
</svg>
