<?xml version="1.0" encoding="iso-8859-1"?>
<!-- Generator: Adobe Illustrator 19.2.1, SVG Export Plug-In . SVG Version: 6.00 Build 0)  -->
<svg version="1.1" xmlns="http://www.w3.org/2000/svg" xmlns:xlink="http://www.w3.org/1999/xlink" x="0px" y="0px"
	 viewBox="0 0 24 24" style="enable-background:new 0 0 24 24;" xml:space="preserve">
<g id="Pompkin">
</g>
<g id="Layer_10">
</g>
<g id="Bat">
</g>
<g id="Ghost">
</g>
<g id="Bone_Hand">
</g>
<g id="Tree_Ghost">
</g>
<g id="Gate">
</g>
<g id="Cemetery_1">
</g>
<g id="Cemetery_2">
</g>
<g id="Devil_x27_s_Fork">
</g>
<g id="Night_Candle">
</g>
<g id="Canlestick">
</g>
<g id="Black_Cat">
</g>
<g id="Witch_Cauldron">
</g>
<g id="Corn_Candy">
</g>
<g id="Layer_29">
</g>
<g id="Bones">
</g>
<g id="Witch_Broom">
</g>
<g id="Owl">
</g>
<g id="Scythe">
</g>
<g id="Grim_Reaper">
</g>
<g id="Coffin">
</g>
<g id="Dracula">
</g>
<g id="Frankenstein">
</g>
<g id="Layer_40">
</g>
<g id="Toilet_Paper">
</g>
<g id="Skull">
</g>
<g id="Skull_Cake">
</g>
<g id="Eyeball">
</g>
<g id="Castle">
</g>
<g id="Witch_x27_s_Hat">
</g>
<g id="Cobweb_1">
</g>
<g id="Cobweb_2">
</g>
<g id="Spider">
</g>
<g id="Full_Moon">
</g>
<g id="Crescent">
</g>
<g id="Crow">
</g>
<g id="Candy_Holder">
	<path d="M19.52,12.394c0.085-1.215,0.173-2.587-1.279-3.338c-1.192-0.616-2.151-1.721-2.28-2.626
		c-0.015-0.103-0.061-0.198-0.132-0.273c-0.441-0.465-1.057-0.742-1.688-0.911l1.898-4.005c0.144-0.235,0.452-0.309,0.688-0.167
		c0.114,0.069,0.194,0.179,0.226,0.309c0.031,0.13,0.011,0.264-0.059,0.378l-0.52,0.854c-0.144,0.236-0.068,0.543,0.167,0.687
		c0.235,0.144,0.543,0.068,0.687-0.167l0.52-0.854c0.43-0.707,0.205-1.631-0.501-2.061c-0.706-0.429-1.631-0.206-2.086,0.547
		l-2.036,4.289c-0.082-0.009-0.163-0.018-0.242-0.025L12.78,4.525l1.164-3.881c0.079-0.264-0.071-0.543-0.335-0.623
		c-0.266-0.078-0.543,0.071-0.623,0.335l-0.624,2.08l-0.407-2.034c-0.054-0.271-0.314-0.45-0.588-0.392
		c-0.271,0.054-0.446,0.317-0.392,0.588l0.776,3.877l-0.161,0.537c-0.236,0.012-0.474,0.032-0.713,0.061L9.927,1.168
		c-0.183-0.806-0.984-1.312-1.795-1.13c-0.806,0.183-1.313,0.989-1.13,1.795l0.222,0.975c0.061,0.269,0.328,0.437,0.598,0.376
		c0.27-0.061,0.438-0.329,0.376-0.598L7.978,1.612c-0.061-0.27,0.108-0.538,0.376-0.599c0.268-0.064,0.538,0.107,0.601,0.384
		l0.832,3.425L6.713,3.066C6.472,2.927,6.167,3.012,6.031,3.252c-0.137,0.24-0.054,0.545,0.186,0.682l2.801,1.601
		C8.591,5.716,8.241,5.94,8.051,6.219C8.008,6.282,7.981,6.355,7.97,6.43C7.841,7.335,6.882,8.44,5.69,9.056
		c-1.452,0.751-1.365,2.123-1.279,3.338c-1.063,2.051-2.048,4.942-0.896,7.324c1.36,2.812,5.281,4.282,8.45,4.282h0.092
		c1.827,0,3.9-0.491,5.592-1.443l-2.26-0.572c-0.267-0.068-0.429-0.339-0.362-0.606l0.394-1.577l-2.095-0.838
		c-0.256-0.103-0.381-0.394-0.279-0.65c0.103-0.257,0.395-0.381,0.65-0.279l2.5,1c0.232,0.093,0.36,0.343,0.299,0.585l-0.379,1.517
		l2.651,0.67c0.738-0.584,1.348-1.28,1.74-2.09C21.41,17.852,21.078,15.389,19.52,12.394z M10.96,13.574
		c-0.141,0.943-2.015,2.444-3.386,2.444c-0.834,0-1.417-0.517-1.599-1.419c-0.166-0.823,0.153-1.928,0.775-2.689
		c0.48-0.586,1.089-0.91,1.715-0.91c0.818,0,1.552,0.306,2.012,0.84C10.884,12.313,11.056,12.929,10.96,13.574z M12.809,10.363
		c-0.095,0.09-0.218,0.137-0.344,0.137c-0.067,0-0.134-0.013-0.198-0.041c-0.183-0.079-0.302-0.26-0.302-0.459
		c0,0.2-0.119,0.38-0.302,0.459c-0.064,0.027-0.131,0.041-0.198,0.041c-0.125,0-0.249-0.047-0.344-0.137
		c-0.271-0.257-1.156-1.151-1.156-1.863c0-0.869,0.42-1.5,1-1.5s1,0.631,1,1.5c0-0.869,0.42-1.5,1-1.5s1,0.631,1,1.5
		C13.965,9.212,13.08,10.106,12.809,10.363z M17.955,14.599c-0.182,0.902-0.765,1.419-1.598,1.419h0
		c-1.372,0-3.246-1.501-3.386-2.444c-0.096-0.646,0.075-1.261,0.482-1.733c0.46-0.534,1.194-0.84,2.012-0.84
		c0.625,0,1.235,0.323,1.715,0.91C17.802,12.671,18.121,13.776,17.955,14.599z"/>
</g>
<g id="Bloody_Knife">
</g>
<g id="Bloody_Axe">
</g>
</svg>
