<?xml version="1.0" encoding="iso-8859-1"?>
<!-- Generator: Adobe Illustrator 19.2.1, SVG Export Plug-In . SVG Version: 6.00 Build 0)  -->
<svg version="1.1" xmlns="http://www.w3.org/2000/svg" xmlns:xlink="http://www.w3.org/1999/xlink" x="0px" y="0px"
	 viewBox="0 0 30 30" style="enable-background:new 0 0 30 30;" xml:space="preserve">
<g id="Present_1">
</g>
<g id="Present_2">
</g>
<g id="Present_3">
</g>
<g id="Present_Cake">
</g>
<g id="Present_4">
</g>
<g id="Birthday_Cake_1">
</g>
<g id="Birthday_Cake_2">
</g>
<g id="Cake_Piece">
</g>
<g id="Cupcake">
</g>
<g id="Lollipop">
</g>
<g id="Birthday_Greetings_1">
</g>
<g id="Party_Greetings_2">
</g>
<g id="Birthday_Invitation">
</g>
<g id="Birthday_1">
</g>
<g id="Birthday_2">
</g>
<g id="Birthday_Message_1">
</g>
<g id="Birthday_Message_2">
</g>
<g id="Birthyday_Hat_1">
</g>
<g id="Birthay_Hat_2">
</g>
<g id="Birthday_Hat3">
</g>
<g id="Birthday_Decoration_1">
</g>
<g id="Birthday_Decoration_2">
</g>
<g id="Birthday_Decoration_3">
</g>
<g id="Horn_1">
</g>
<g id="Horn_2">
</g>
<g id="Baloon">
</g>
<g id="Balloons_1">
</g>
<g id="Balloons_2">
</g>
<g id="Birthday_Picture">
</g>
<g id="Kid_x27_s_Champagne">
</g>
<g id="Candy">
	<g>
		<g>
			<path d="M6.804,30c-0.13,0-0.258-0.051-0.354-0.146l-6.304-6.305c-0.132-0.133-0.18-0.328-0.123-0.506
				c0.057-0.179,0.209-0.311,0.394-0.341l7.565-1.261c0.158-0.031,0.321,0.025,0.436,0.14c0.114,0.114,0.166,0.276,0.14,0.436
				l-1.261,7.565c-0.031,0.185-0.162,0.337-0.341,0.395C6.907,29.992,6.855,30,6.804,30z M1.541,23.528l4.93,4.931l0.986-5.916
				L1.541,23.528z"/>
		</g>
		<g>
			<path d="M21.935,8.565c-0.131,0-0.259-0.052-0.354-0.146c-0.114-0.114-0.166-0.276-0.14-0.436l1.261-7.565
				c0.031-0.185,0.162-0.337,0.341-0.395c0.177-0.055,0.374-0.01,0.506,0.123l6.304,6.305c0.132,0.133,0.18,0.328,0.123,0.506
				c-0.057,0.179-0.209,0.311-0.394,0.341l-7.565,1.261C21.989,8.563,21.962,8.565,21.935,8.565z M23.529,1.541l-0.986,5.916
				l5.917-0.985L23.529,1.541z"/>
		</g>
		<g>
			<path d="M11.848,24.648c-1.096,0-2.193-0.417-3.028-1.252l-2.216-2.216c-1.67-1.67-1.67-4.387,0-6.057l8.52-8.521
				c1.67-1.669,4.386-1.67,6.056,0l0,0l2.216,2.216c1.67,1.67,1.67,4.387,0,6.057l-8.52,8.521
				C14.041,24.231,12.944,24.648,11.848,24.648z M18.152,6.352c-0.841,0-1.681,0.319-2.321,0.959l-8.52,8.521
				c-1.28,1.28-1.28,3.362,0,4.643l2.216,2.216c1.28,1.28,3.362,1.279,4.642,0l8.52-8.521c1.28-1.28,1.28-3.362,0-4.643
				l-2.216-2.216C19.833,6.671,18.993,6.352,18.152,6.352z"/>
		</g>
		<g>
			<path d="M8.74,17.761c-0.128,0-0.256-0.049-0.354-0.146c-0.195-0.195-0.195-0.512,0-0.707l8.521-8.521
				c0.449-0.448,0.973-0.516,1.245-0.516s0.796,0.067,1.245,0.516c0.195,0.195,0.195,0.512,0,0.707s-0.512,0.195-0.707,0
				c-0.194-0.193-0.42-0.223-0.538-0.223S17.808,8.9,17.614,9.094l-8.521,8.521C8.996,17.712,8.868,17.761,8.74,17.761z"/>
		</g>
	</g>
</g>
<g id="Birthday_Card">
</g>
<g id="Flowers">
</g>
<g id="Birthday_Song">
</g>
<g id="Candle">
</g>
<g id="Sweet_16">
</g>
<g id="Clown">
</g>
<g id="Clown_2">
</g>
<g id="Birthday_Party">
</g>
<g id="Giving_Gift">
</g>
<g id="Present_5">
</g>
<g id="Champagne_in_ice_bucket">
</g>
<g id="Beer">
</g>
<g id="Truffles">
</g>
<g id="Pinata">
</g>
</svg>
