<?xml version="1.0" encoding="iso-8859-1"?>
<!-- Generator: Adobe Illustrator 19.2.1, SVG Export Plug-In . SVG Version: 6.00 Build 0)  -->
<svg version="1.1" xmlns="http://www.w3.org/2000/svg" xmlns:xlink="http://www.w3.org/1999/xlink" x="0px" y="0px"
	 viewBox="0 0 30 30" style="enable-background:new 0 0 30 30;" xml:space="preserve">
<g id="Present_1">
</g>
<g id="Present_2">
</g>
<g id="Present_3">
</g>
<g id="Present_Cake">
</g>
<g id="Present_4">
</g>
<g id="Birthday_Cake_1">
</g>
<g id="Birthday_Cake_2">
</g>
<g id="Cake_Piece">
</g>
<g id="Cupcake">
</g>
<g id="Lollipop">
</g>
<g id="Birthday_Greetings_1">
</g>
<g id="Party_Greetings_2">
</g>
<g id="Birthday_Invitation">
</g>
<g id="Birthday_1">
</g>
<g id="Birthday_2">
</g>
<g id="Birthday_Message_1">
</g>
<g id="Birthday_Message_2">
</g>
<g id="Birthyday_Hat_1">
</g>
<g id="Birthay_Hat_2">
</g>
<g id="Birthday_Hat3">
</g>
<g id="Birthday_Decoration_1">
</g>
<g id="Birthday_Decoration_2">
</g>
<g id="Birthday_Decoration_3">
</g>
<g id="Horn_1">
</g>
<g id="Horn_2">
</g>
<g id="Baloon">
</g>
<g id="Balloons_1">
</g>
<g id="Balloons_2">
</g>
<g id="Birthday_Picture">
</g>
<g id="Kid_x27_s_Champagne">
</g>
<g id="Candy">
</g>
<g id="Birthday_Card">
</g>
<g id="Flowers">
</g>
<g id="Birthday_Song">
</g>
<g id="Candle">
	<g>
		<path d="M14.5,8.515V7c0-0.276,0.224-0.5,0.5-0.5s0.5,0.224,0.5,0.5v1.515c1.428-0.24,2.521-1.476,2.521-2.971
			c0-1.505-2.343-4.941-2.61-5.328C15.318,0.081,15.164,0,15,0s-0.318,0.081-0.412,0.216c-0.267,0.387-2.61,3.823-2.61,5.328
			C11.978,7.039,13.072,8.275,14.5,8.515z"/>
		<polygon points="12,17.354 18,20.354 18,17.69 12,14.69 		"/>
		<polygon points="12,21.136 18,24.136 18,21.472 12,18.472 		"/>
		<polygon points="12,13.571 18,16.572 18,13.907 12,10.907 		"/>
		<path d="M16.261,9h-2.521c-0.734,0-1.304,0.339-1.571,0.873L18,12.789v-2.202C18,9.652,17.285,9,16.261,9z"/>
		<path d="M12,29.5c0,0.276,0.224,0.5,0.5,0.5h5c0.276,0,0.5-0.224,0.5-0.5v-0.462l-6-3V29.5z"/>
		<polygon points="12,24.919 18,27.919 18,25.254 12,22.254 		"/>
	</g>
</g>
<g id="Sweet_16">
</g>
<g id="Clown">
</g>
<g id="Clown_2">
</g>
<g id="Birthday_Party">
</g>
<g id="Giving_Gift">
</g>
<g id="Present_5">
</g>
<g id="Champagne_in_ice_bucket">
</g>
<g id="Beer">
</g>
<g id="Truffles">
</g>
<g id="Pinata">
</g>
</svg>
