<?xml version="1.0" encoding="iso-8859-1"?>
<!-- Generator: Adobe Illustrator 19.2.1, SVG Export Plug-In . SVG Version: 6.00 Build 0)  -->
<svg version="1.1" xmlns="http://www.w3.org/2000/svg" xmlns:xlink="http://www.w3.org/1999/xlink" x="0px" y="0px"
	 viewBox="0 0 24 24" style="enable-background:new 0 0 24 24;" xml:space="preserve">
<g id="Present_1">
</g>
<g id="Present_2">
</g>
<g id="Present_3">
</g>
<g id="Present_Cake">
</g>
<g id="Present_4">
</g>
<g id="Birthday_Cake_1">
</g>
<g id="Birthday_Cake_2">
</g>
<g id="Cake_Piece">
</g>
<g id="Cupcake">
</g>
<g id="Lollipop">
</g>
<g id="Birthday_Greetings_1">
</g>
<g id="Party_Greetings_2">
</g>
<g id="Birthday_Invitation">
</g>
<g id="Birthday_1">
</g>
<g id="Birthday_2">
</g>
<g id="Birthday_Message_1">
</g>
<g id="Birthday_Message_2">
</g>
<g id="Birthyday_Hat_1">
</g>
<g id="Birthay_Hat_2">
</g>
<g id="Birthday_Hat3">
</g>
<g id="Birthday_Decoration_1">
</g>
<g id="Birthday_Decoration_2">
</g>
<g id="Birthday_Decoration_3">
</g>
<g id="Horn_1">
</g>
<g id="Horn_2">
</g>
<g id="Baloon">
</g>
<g id="Balloons_1">
</g>
<g id="Balloons_2">
</g>
<g id="Birthday_Picture">
</g>
<g id="Kid_x27_s_Champagne">
</g>
<g id="Candy">
</g>
<g id="Birthday_Card">
</g>
<g id="Flowers">
</g>
<g id="Birthday_Song">
</g>
<g id="Candle">
	<g>
		<path d="M11.5,6.943V5.494c0-0.276,0.224-0.5,0.5-0.5s0.5,0.224,0.5,0.5v1.449c1.14-0.232,2-1.242,2-2.449
			c0-1.2-1.74-3.779-2.088-4.284c-0.188-0.271-0.636-0.271-0.823,0C11.24,0.714,9.5,3.294,9.5,4.494
			C9.5,5.701,10.36,6.711,11.5,6.943z"/>
		<polygon points="9.5,17.133 14.5,18.8 14.5,16.854 9.5,15.187 		"/>
		<polygon points="9.5,14.133 14.5,15.8 14.5,13.854 9.5,12.187 		"/>
		<polygon points="9.5,11.133 14.5,12.8 14.5,10.854 9.5,9.187 		"/>
		<polygon points="9.5,20.133 14.5,21.8 14.5,19.854 9.5,18.187 		"/>
		<path d="M9.5,23.494c0,0.276,0.224,0.5,0.5,0.5h4c0.276,0,0.5-0.224,0.5-0.5v-0.64l-5-1.667V23.494z"/>
		<path d="M13,6.994h-2c-0.708,0-1.299,0.494-1.456,1.154L14.5,9.8V8.494C14.5,7.666,13.827,6.994,13,6.994z"/>
	</g>
</g>
<g id="Sweet_16">
</g>
<g id="Clown">
</g>
<g id="Clown_2">
</g>
<g id="Birthday_Party">
</g>
<g id="Giving_Gift">
</g>
<g id="Present_5">
</g>
<g id="Champagne_in_ice_bucket">
</g>
<g id="Beer">
</g>
<g id="Truffles">
</g>
<g id="Pinata">
</g>
</svg>
