<?xml version="1.0" encoding="iso-8859-1"?>
<!-- Generator: Adobe Illustrator 19.2.1, SVG Export Plug-In . SVG Version: 6.00 Build 0)  -->
<svg version="1.1" xmlns="http://www.w3.org/2000/svg" xmlns:xlink="http://www.w3.org/1999/xlink" x="0px" y="0px"
	 viewBox="0 0 24 24" style="enable-background:new 0 0 24 24;" xml:space="preserve">
<g id="Man_1">
</g>
<g id="Woman_1">
</g>
<g id="Man_2">
</g>
<g id="Woman_2">
</g>
<g id="Bald_Man">
</g>
<g id="Man_Glasses">
</g>
<g id="Woman_Glasses">
</g>
<g id="Man_Beard">
</g>
<g id="Man_Cap">
</g>
<g id="Woman_Cap">
</g>
<g id="Man_3">
</g>
<g id="Woman_3">
</g>
<g id="Men_4">
</g>
<g id="Woman_4">
</g>
<g id="Business_Man_1">
</g>
<g id="Business_Woman_1">
</g>
<g id="Firefigyhter">
</g>
<g id="Policeman">
</g>
<g id="Criminal">
</g>
<g id="Prisoner">
</g>
<g id="Woodsman">
</g>
<g id="Dispatcher_1">
</g>
<g id="Dispatcher_2">
</g>
<g id="Soldier">
</g>
<g id="Astronaut">
</g>
<g id="Hipster_Guy">
</g>
<g id="Hipster_Girl">
</g>
<g id="Worker">
</g>
<g id="Old_Man">
</g>
<g id="Punk">
</g>
<g id="Diver">
</g>
<g id="Artist">
</g>
<g id="Dictator">
</g>
<g id="Man_Hat">
</g>
<g id="Woman_Hat">
</g>
<g id="Graduated_Man">
</g>
<g id="Graduated_Woman">
</g>
<g id="Avatar_Chef">
</g>
<g id="Waiter">
</g>
<g id="Waitress">
</g>
<g id="Bllboy">
</g>
<g id="Santa">
</g>
<g id="Doctor">
</g>
<g id="Nurse">
</g>
<g id="Captain">
	<g>
		<path d="M24,12c0-6.617-5.383-12-12-12S0,5.383,0,12c0,6.413,5.06,11.651,11.394,11.969c0.035,0.002,0.07,0.008,0.106,0.01v-0.005
			C11.667,23.982,11.831,24,12,24s0.333-0.018,0.5-0.025v0.003c0.025-0.001,0.049-0.005,0.074-0.007
			c2.943-0.14,5.608-1.339,7.625-3.232c0.021-0.011,0.032-0.032,0.051-0.046C22.554,18.504,24,15.421,24,12z M12,23
			c-0.169,0-0.333-0.018-0.5-0.025v-1.413C11.155,21.804,10.793,22,10.5,22c-1.544,0-3.678-2.356-4.255-3.028l-1.881,0.654
			c-0.068,0.024-0.133,0.054-0.2,0.08C2.21,17.719,1,14.999,1,12C1,5.935,5.935,1,12,1s11,4.935,11,11c0,3-1.21,5.721-3.164,7.707
			c-0.068-0.026-0.134-0.057-0.203-0.081l-1.879-0.653C17.174,19.647,15.043,22,13.5,22c-0.293,0-0.655-0.196-1-0.439v1.413
			C12.333,22.982,12.169,23,12,23z"/>
		<path d="M9.5,13h1c0.276,0,0.5-0.224,0.5-0.5S10.776,12,10.5,12h-1C9.224,12,9,12.224,9,12.5S9.224,13,9.5,13z"/>
		<path d="M13.5,13h1c0.276,0,0.5-0.224,0.5-0.5S14.776,12,14.5,12h-1c-0.276,0-0.5,0.224-0.5,0.5S13.224,13,13.5,13z"/>
		<path d="M18.908,8C18.964,7.843,19,7.676,19,7.5V6.326c0-0.642-0.384-1.214-0.956-1.424c-0.513-0.189-1.146-0.616-1.818-1.069
			C14.952,2.974,13.506,2,12,2S9.048,2.974,7.773,3.833c-0.671,0.453-1.305,0.88-1.818,1.069C5.384,5.112,5,5.685,5,6.326V7.5
			C5,7.676,5.036,7.843,5.092,8H18.908z M10.143,5.65c0.191-0.194,0.505-0.2,0.702-0.013C10.86,5.652,11.08,5.846,11.5,5.944V5
			C11.224,5,11,4.776,11,4.5S11.224,4,11.5,4c0-0.276,0.224-0.5,0.5-0.5s0.5,0.224,0.5,0.5C12.776,4,13,4.224,13,4.5
			S12.776,5,12.5,5v0.944c0.424-0.099,0.644-0.295,0.656-0.306c0.201-0.186,0.516-0.179,0.704,0.021
			c0.188,0.198,0.185,0.508-0.01,0.698C13.782,6.424,13.159,7,12,7s-1.782-0.576-1.85-0.643C9.953,6.165,9.949,5.848,10.143,5.65z"
			/>
		<path d="M15.354,16.354c0.195-0.195,0.195-0.512,0-0.707s-0.512-0.195-0.707,0c-0.335,0.333-0.655,0.243-1.444-0.201
			C12.796,15.216,12.412,15,12,15s-0.796,0.216-1.203,0.445c-0.789,0.444-1.109,0.534-1.444,0.201c-0.195-0.195-0.512-0.195-0.707,0
			s-0.195,0.512,0,0.707c0.368,0.368,0.751,0.498,1.124,0.498c0.567,0,1.106-0.304,1.518-0.535C11.539,16.176,11.85,16,12,16
			s0.461,0.176,0.712,0.316c0.412,0.232,0.951,0.535,1.518,0.535C14.602,16.852,14.986,16.721,15.354,16.354z"/>
		<path d="M13.136,19.852c0.087-0.022,0.173-0.048,0.246-0.071c1.694-0.501,3.133-1.901,3.932-3.799
			C17.381,15.995,17.444,16,17.499,16c0.855,0,1.5-1.075,1.5-2.5c0-1.14-0.413-2.056-1.024-2.376
			c-0.023-0.76-0.129-1.443-0.292-2.065C17.699,9.039,17.724,9.019,17.74,9h-0.07h-1.013H7.343H6.329H6.26
			C6.276,9.019,6.3,9.039,6.317,9.058c-0.164,0.621-0.271,1.303-0.294,2.06c-0.608,0.317-1.024,1.236-1.024,2.382
			c0,1.425,0.645,2.5,1.5,2.5c0.055,0,0.117-0.005,0.185-0.019c0.798,1.897,2.236,3.298,3.919,3.795
			c0.085,0.027,0.171,0.053,0.264,0.077c0.117,0.028,0.234,0.054,0.351,0.073C11.474,19.971,11.733,20,11.999,20
			c0.265,0,0.524-0.029,0.777-0.073C12.896,19.907,13.013,19.882,13.136,19.852z M11.382,18.94
			c-0.095-0.016-0.188-0.037-0.274-0.058c-0.066-0.017-0.132-0.036-0.209-0.062c-1.542-0.455-2.841-1.841-3.476-3.707
			c-0.056-0.164-0.193-0.288-0.362-0.326c-0.17-0.04-0.347,0.013-0.468,0.137C6.531,14.987,6.496,15,6.498,15
			c-0.125-0.001-0.5-0.533-0.5-1.5c0-0.968,0.375-1.5,0.519-1.5c0.276,0,0.5-0.224,0.5-0.5c0-0.634,0.069-1.198,0.169-1.727
			C8.201,10.423,9.812,11,12,11c2.187,0,3.797-0.577,4.812-1.226c0.099,0.529,0.168,1.092,0.168,1.726c0,0.276,0.243,0.5,0.519,0.5
			c0.125,0,0.5,0.532,0.5,1.5S17.623,15,17.504,15c0,0-0.036-0.01-0.101-0.075c-0.121-0.124-0.297-0.177-0.468-0.137
			c-0.169,0.038-0.306,0.162-0.362,0.326c-0.634,1.866-1.933,3.252-3.488,3.711c-0.065,0.021-0.13,0.041-0.191,0.056
			c-0.093,0.022-0.186,0.044-0.284,0.06C12.208,19.009,11.791,19.009,11.382,18.94z"/>
	</g>
</g>
<g id="Farmer">
</g>
<g id="Maid">
</g>
<g id="Business_Man_2">
</g>
<g id="Business_Woman_2">
</g>
<g id="Cowboy">
</g>
<g id="Anonymus">
</g>
<g id="Batman">
</g>
<g id="Superman">
</g>
<g id="Captain_America">
</g>
<g id="Darth_Vader">
</g>
<g id="Harry_Potter">
</g>
<g id="Anonymus_2">
</g>
<g id="Scream">
</g>
<g id="Jason">
</g>
<g id="Charlie_Chaplin">
</g>
</svg>
