<?xml version="1.0" encoding="iso-8859-1"?>
<!-- Generator: Adobe Illustrator 19.2.1, SVG Export Plug-In . SVG Version: 6.00 Build 0)  -->
<svg version="1.1" xmlns="http://www.w3.org/2000/svg" xmlns:xlink="http://www.w3.org/1999/xlink" x="0px" y="0px"
	 viewBox="0 0 30 30" style="enable-background:new 0 0 30 30;" xml:space="preserve">
<g id="Man_1">
</g>
<g id="Woman_1">
</g>
<g id="Man_2">
</g>
<g id="Woman_2">
</g>
<g id="Bald_Man">
</g>
<g id="Man_Glasses">
</g>
<g id="Woman_Glasses">
</g>
<g id="Man_Beard">
</g>
<g id="Man_Cap">
</g>
<g id="Woman_Cap">
</g>
<g id="Man_3">
</g>
<g id="Woman_3">
</g>
<g id="Men_4">
</g>
<g id="Woman_4">
</g>
<g id="Business_Man_1">
</g>
<g id="Business_Woman_1">
</g>
<g id="Firefigyhter">
</g>
<g id="Policeman">
</g>
<g id="Criminal">
</g>
<g id="Prisoner">
</g>
<g id="Woodsman">
</g>
<g id="Dispatcher_1">
</g>
<g id="Dispatcher_2">
</g>
<g id="Soldier">
</g>
<g id="Astronaut">
</g>
<g id="Hipster_Guy">
</g>
<g id="Hipster_Girl">
</g>
<g id="Worker">
</g>
<g id="Old_Man">
</g>
<g id="Punk">
</g>
<g id="Diver">
</g>
<g id="Artist">
</g>
<g id="Dictator">
</g>
<g id="Man_Hat">
</g>
<g id="Woman_Hat">
</g>
<g id="Graduated_Man">
</g>
<g id="Graduated_Woman">
</g>
<g id="Avatar_Chef">
</g>
<g id="Waiter">
</g>
<g id="Waitress">
</g>
<g id="Bllboy">
</g>
<g id="Santa">
</g>
<g id="Doctor">
</g>
<g id="Nurse">
</g>
<g id="Captain">
</g>
<g id="Farmer">
</g>
<g id="Maid">
</g>
<g id="Business_Man_2">
</g>
<g id="Business_Woman_2">
</g>
<g id="Cowboy">
</g>
<g id="Anonymus">
</g>
<g id="Batman">
</g>
<g id="Superman">
</g>
<g id="Captain_America">
	<g>
		<polygon points="15,8.24 14.472,10 15.528,10 		"/>
		<path d="M13,14c0-0.297-0.776-1-2-1c-1.101,0-1.5,0.598-1.5,1s0.399,1,1.5,1C12.224,15,13,14.297,13,14z"/>
		<path d="M19,13c-1.224,0-2,0.703-2,1s0.776,1,2,1c1.101,0,1.5-0.598,1.5-1S20.101,13,19,13z"/>
		<path d="M25.985,10.379l-1-4C24.929,6.152,24.716,6.006,24.488,6c-0.234,0.006-0.433,0.173-0.479,0.402l-0.62,3.102
			C22.074,6.325,18.768,4,15,4c-3.767,0-7.074,2.325-8.389,5.504L5.99,6.402C5.944,6.173,5.746,6.006,5.512,6
			c-0.228,0.012-0.44,0.152-0.497,0.379l-1,4C3.986,10.495,4,10.617,4.053,10.724l2,4c0.018,0.036,0.052,0.053,0.076,0.083
			C6.054,15.029,6,15.264,6,15.5c0,1.626,0.858,3,1.873,3l0.11,0.01c0.045,0.005,0.092,0.01,0.139,0.014
			C9.22,22.415,11.946,25,15,25c3.054,0,5.779-2.585,6.879-6.477c0.047-0.004,0.093-0.009,0.139-0.014l0.107-0.01
			c1.017,0,1.875-1.374,1.875-3c0-0.236-0.054-0.471-0.129-0.694c0.024-0.029,0.058-0.047,0.076-0.082l2-4
			C26.001,10.617,26.014,10.495,25.985,10.379z M13.021,11.356l1.5-5c0.127-0.423,0.831-0.423,0.958,0l1.5,5
			c0.08,0.264-0.07,0.543-0.335,0.623C16.596,11.993,16.548,12,16.5,12c-0.215,0-0.414-0.14-0.479-0.356L15.828,11h-1.656
			l-0.193,0.644c-0.08,0.264-0.357,0.413-0.623,0.335C13.092,11.899,12.942,11.621,13.021,11.356z M8.5,14c0-0.994,0.859-2,2.5-2
			c1.57,0,3,0.953,3,2s-1.43,2-3,2C9.359,16,8.5,14.994,8.5,14z M15,24c-2.538,0-4.831-2.191-5.845-5.512
			c1.856-0.107,5.095-1.198,5.849-1.46c0.747,0.246,3.928,1.262,5.845,1.442C19.839,21.801,17.543,24,15,24z M19,16
			c-1.57,0-3-0.953-3-2s1.43-2,3-2c1.642,0,2.5,1.006,2.5,2S20.642,16,19,16z"/>
		<path d="M13,20.5c0,0.276,0.224,0.5,0.5,0.5h3c0.276,0,0.5-0.224,0.5-0.5S16.776,20,16.5,20h-3C13.224,20,13,20.224,13,20.5z"/>
		<path d="M15,0C6.729,0,0,6.729,0,15c0,4.235,1.772,8.058,4.604,10.789c0.042,0.057,0.091,0.103,0.151,0.137
			C7.439,28.444,11.037,30,15,30c3.961,0,7.557-1.554,10.241-4.07c0.039-0.022,0.065-0.057,0.097-0.088
			C28.203,23.108,30,19.264,30,15C30,6.729,23.271,0,15,0z M24.901,24.888c-0.013-0.007-0.024-0.013-0.037-0.02
			c-0.261-0.138-0.559-0.291-0.679-0.332l-2.521-1.008l-0.175-0.061c-0.313-0.105-0.43-0.145-0.637-0.321l-0.13-0.13
			C19.212,24.899,17.195,26,15,26c-2.195,0-4.212-1.1-5.723-2.982l-0.103,0.103c-0.235,0.202-0.352,0.241-0.664,0.347l-2.674,1.06
			c-0.141,0.05-0.436,0.202-0.696,0.34c-0.014,0.008-0.026,0.014-0.04,0.021C2.568,22.354,1,18.857,1,15C1,7.28,7.28,1,15,1
			s14,6.28,14,14C29,18.856,27.432,22.353,24.901,24.888z"/>
	</g>
</g>
<g id="Darth_Vader">
</g>
<g id="Harry_Potter">
</g>
<g id="Anonymus_2">
</g>
<g id="Scream">
</g>
<g id="Jason">
</g>
<g id="Charlie_Chaplin">
</g>
</svg>
