<?xml version="1.0" encoding="iso-8859-1"?>
<!-- Generator: Adobe Illustrator 19.2.1, SVG Export Plug-In . SVG Version: 6.00 Build 0)  -->
<svg version="1.1" xmlns="http://www.w3.org/2000/svg" xmlns:xlink="http://www.w3.org/1999/xlink" x="0px" y="0px"
	 viewBox="0 0 30 30" style="enable-background:new 0 0 30 30;" xml:space="preserve">
<g id="Sun_Light">
</g>
<g id="Sunglasses">
</g>
<g id="T-Shirt_1">
</g>
<g id="T-Shirt_2">
</g>
<g id="Mini_Dress">
</g>
<g id="Flip-Flops">
</g>
<g id="Temperature">
</g>
<g id="Hot_Temperature">
</g>
<g id="Ice_Lolly">
</g>
<g id="Icecream">
</g>
<g id="Limonade_1">
</g>
<g id="Limonade_2">
</g>
<g id="Hat">
</g>
<g id="Straw_Hat">
</g>
<g id="Deckchair">
</g>
<g id="Sunshade">
</g>
<g id="Suncream">
</g>
<g id="Suntan_Oil">
</g>
<g id="Swimming_Trunks">
</g>
<g id="Bikini">
</g>
<g id="Pool">
</g>
<g id="Pool_Ladder">
</g>
<g id="Grill">
</g>
<g id="Kite_1">
</g>
<g id="Kite_2">
</g>
<g id="Badminton">
</g>
<g id="Cooler">
</g>
<g id="Strand_Bag">
</g>
<g id="Towel">
</g>
<g id="Strand_Ball">
</g>
<g id="Beach_Sign">
</g>
<g id="Toos">
</g>
<g id="Bucket">
</g>
<g id="Sand_Castle">
</g>
<g id="Shell_1">
</g>
<g id="Shell_2">
</g>
<g id="Surf_Board">
</g>
<g id="Float">
</g>
<g id="Vacation_Photo">
</g>
<g id="Summer_Time">
</g>
<g id="Boat">
</g>
<g id="Lifebuoy">
</g>
<g id="Lighthouse">
</g>
<g id="Sunset">
</g>
<g id="Dolphin">
</g>
<g id="Starfish">
</g>
<g id="Diving_Mask">
</g>
<g id="Sailboat">
</g>
<g id="Captin_Hat">
	<g id="XMLID_384_">
		<g id="XMLID_414_">
			<path d="M24.683,15.557c-0.191,0-0.374-0.11-0.457-0.297c-0.112-0.253,0.002-0.548,0.254-0.66C26.717,13.605,28,12.367,28,11.2
				C28,9.343,17.948,6,14.5,6S1,9.343,1,11.2c0,1.148,1.286,2.381,3.528,3.382c0.252,0.113,0.365,0.409,0.253,0.661
				c-0.113,0.252-0.409,0.364-0.661,0.253C1.463,14.31,0,12.784,0,11.2C0,8.016,11.909,5,14.5,5S29,8.016,29,11.2
				c0,1.603-1.461,3.135-4.114,4.313C24.819,15.543,24.751,15.557,24.683,15.557z"/>
		</g>
		<g id="XMLID_413_">
			<path d="M15.812,18.669c-0.182,0-0.365,0-0.553,0l-1.266-0.002c-0.086,0.001-0.171,0.001-0.255,0.001
				c-5.969,0-9.312-0.26-9.879-1.568c-0.027-0.063-0.041-0.131-0.041-0.199V15c0-0.25,0.186-0.462,0.434-0.495
				C4.3,14.498,9.068,13.866,14.5,13.866c5.489,0,10.202,0.632,10.249,0.639c0.248,0.033,0.433,0.245,0.433,0.495v1.9
				c0,0.071-0.016,0.142-0.045,0.207C24.549,18.4,21.404,18.669,15.812,18.669z M14.5,17.667l0.762,0.002
				c2.277-0.001,8.202,0.023,8.92-0.902v-1.325c-1.276-0.152-5.219-0.575-9.682-0.575c-4.421,0-8.396,0.424-9.682,0.576v1.328
				c0.697,0.907,7.06,0.913,9.173,0.896H14.5z M24.682,16.9h0.01H24.682z"/>
		</g>
		<g id="XMLID_412_">
			<path d="M14.5,25c-5.399,0-8.67-0.9-9.999-2.752c-1.118-1.559-0.515-3.343-0.191-4.302c0.07-0.206,0.131-0.376,0.151-0.498
				c0.047-0.272,0.313-0.454,0.578-0.408c0.272,0.048,0.455,0.306,0.408,0.578c-0.028,0.159-0.1,0.381-0.189,0.648
				c-0.305,0.898-0.764,2.257,0.056,3.398C6.41,23.192,9.586,24,14.5,24c4.986,0,8.077-0.781,9.188-2.323
				c0.813-1.13,0.359-2.489,0.059-3.388c-0.092-0.276-0.165-0.507-0.193-0.673c-0.046-0.272,0.139-0.53,0.41-0.576
				c0.273-0.046,0.53,0.138,0.576,0.41c0.021,0.13,0.084,0.307,0.156,0.521c0.32,0.959,0.917,2.744-0.196,4.29
				C23.172,24.104,19.901,25,14.5,25z"/>
		</g>
		<g id="XMLID_411_">
			<path d="M14.5,12.333c-0.276,0-0.5-0.224-0.5-0.5v-3.8c0-0.276,0.224-0.5,0.5-0.5s0.5,0.224,0.5,0.5v3.8
				C15,12.109,14.776,12.333,14.5,12.333z"/>
		</g>
		<g id="XMLID_386_">
			<path d="M14.5,12.333c-1.736,0-3.046-0.76-3.046-1.767c0-0.276,0.224-0.5,0.5-0.5s0.5,0.224,0.5,0.5
				c0,0.271,0.776,0.767,2.046,0.767s2.046-0.496,2.046-0.767c0-0.276,0.224-0.5,0.5-0.5s0.5,0.224,0.5,0.5
				C17.546,11.573,16.236,12.333,14.5,12.333z"/>
		</g>
		<g id="XMLID_385_">
			<path d="M15.137,9.167h-1.273c-0.276,0-0.5-0.224-0.5-0.5s0.224-0.5,0.5-0.5h1.273c0.276,0,0.5,0.224,0.5,0.5
				S15.413,9.167,15.137,9.167z"/>
		</g>
	</g>
</g>
<g id="Eudder">
</g>
</svg>
