<?xml version="1.0" encoding="iso-8859-1"?>
<!-- Generator: Adobe Illustrator 19.2.1, SVG Export Plug-In . SVG Version: 6.00 Build 0)  -->
<svg version="1.1" xmlns="http://www.w3.org/2000/svg" xmlns:xlink="http://www.w3.org/1999/xlink" x="0px" y="0px"
	 viewBox="0 0 30 30" style="enable-background:new 0 0 30 30;" xml:space="preserve">
<g id="Add_Users">
</g>
<g id="Remove_Users">
</g>
<g id="Delete_Users">
</g>
<g id="Done_3">
</g>
<g id="At_Symbol_3">
</g>
<g id="Question_3">
</g>
<g id="Answer_3">
</g>
<g id="Bring_Up_3">
</g>
<g id="Bring_Down_3">
</g>
<g id="Dismiss_Users">
</g>
<g id="Users_Speed_3">
</g>
<g id="Users_Settings">
</g>
<g id="Refresh_Users">
</g>
<g id="Time_3">
</g>
<g id="Dollar_3">
</g>
<g id="Euro_3">
</g>
<g id="Pound_3">
</g>
<g id="Bitcoin_3">
</g>
<g id="Global_Users">
</g>
<g id="Waiting_Users">
</g>
<g id="Writing_Users">
</g>
<g id="Search_Users">
</g>
<g id="Lock_Users">
</g>
<g id="Mark_Users">
</g>
<g id="Share_Users">
</g>
<g id="Shopping_3">
</g>
<g id="Download_3">
</g>
<g id="Upload_3">
</g>
<g id="Users_Statistics">
</g>
<g id="Users_Defense">
</g>
<g id="Car_3">
	<g>
		<path d="M29.724,24.553l-0.828-0.414l-1.136-2.914C27.523,20.492,26.855,20,26.099,20h-3.198c-0.756,0-1.424,0.492-1.651,1.197
			l-1.145,2.942l-0.828,0.414C19.107,24.638,19,24.811,19,25v2.5c0,0.827,0.673,1.5,1.5,1.5H21v0.5c0,0.276,0.224,0.5,0.5,0.5
			s0.5-0.224,0.5-0.5V29h5v0.5c0,0.276,0.224,0.5,0.5,0.5s0.5-0.224,0.5-0.5V29h0.5c0.827,0,1.5-0.673,1.5-1.5V25
			C30,24.811,29.893,24.638,29.724,24.553z M22.191,21.533C22.294,21.214,22.58,21,22.901,21h3.198c0.321,0,0.606,0.214,0.72,0.561
			L27.769,24h-6.538L22.191,21.533z M21.667,27h-1.333C20.149,27,20,26.776,20,26.5s0.149-0.5,0.333-0.5h1.333
			C21.851,26,22,26.224,22,26.5S21.851,27,21.667,27z M28.667,27h-1.333C27.149,27,27,26.776,27,26.5s0.149-0.5,0.333-0.5h1.333
			C28.851,26,29,26.224,29,26.5S28.851,27,28.667,27z"/>
		<path d="M17.721,6.077c0.448,0.491,0.658,1.142,0.575,1.784l-0.229,1.772c-0.079,0.614-0.424,1.181-0.946,1.553
			c-0.095,0.068-0.163,0.166-0.193,0.279c-0.217,0.816-0.599,1.617-1.104,2.316c-0.098,0.135-0.122,0.31-0.064,0.466
			s0.189,0.273,0.352,0.313l2.222,0.538c1.725,0.418,3.196,1.734,4.036,3.61c0.084,0.188,0.319,0.283,0.531,0.29h3.198
			c1.165,0,2.207,0.747,2.6,1.877l0.313,0.805C29.087,21.874,29.294,22,29.5,22c0.276,0,0.5-0.224,0.5-0.5
			c0-2.199-1.5-4.936-3.923-5.522l-3.472-0.841l-0.279-1.084c0.922-0.896,1.555-2.116,1.752-3.372
			c0.522-0.154,0.924-0.599,0.996-1.152l0.229-1.772c0.049-0.385-0.069-0.774-0.326-1.069c-0.149-0.172-0.337-0.303-0.545-0.385
			l0.08-1.596l0.326-0.317c0.53-0.547,0.971-1.484,0.056-2.841C24.199,0.521,23.024,0,21.402,0c-0.904,0-2.091,0.087-3.258,0.765
			c-0.235,0.137-0.318,0.435-0.188,0.673c0.708,1.29,0.587,2.54-0.337,3.519c-0.082,0.087-0.13,0.2-0.136,0.319l-0.016,0.315
			c-0.007,0.143,0.048,0.282,0.15,0.382L17.721,6.077z"/>
		<path d="M19.988,21.682l0.313-0.805c0.002-0.006,0.004-0.012,0.006-0.018c0.178-0.514,0.503-0.961,0.941-1.295
			c0.187-0.144,0.249-0.397,0.148-0.61c-0.724-1.535-1.965-2.648-3.32-2.977l-3.472-0.841l-0.279-1.084
			c0.922-0.896,1.555-2.116,1.752-3.372c0.522-0.154,0.924-0.599,0.996-1.152l0.229-1.772c0.049-0.385-0.069-0.774-0.326-1.069
			c-0.149-0.172-0.337-0.303-0.545-0.385l0.08-1.596l0.326-0.317c0.53-0.547,0.971-1.484,0.056-2.841
			C16.199,0.521,15.024,0,13.402,0c-0.637,0-2.103,0-3.471,0.888C6.012,0.97,5.479,2.749,5.479,4.484
			c0,0.389,0.094,1.243,0.159,1.789C5.405,6.353,5.194,6.49,5.029,6.678C4.769,6.975,4.647,7.367,4.697,7.757l0.229,1.771
			c0.077,0.591,0.53,1.059,1.104,1.18c0.197,1.205,0.797,2.385,1.665,3.266l-0.3,1.163l-3.472,0.841C1.5,16.564,0,19.301,0,21.5
			C0,21.776,0.224,22,0.5,22h19.022C19.728,22,19.913,21.874,19.988,21.682z"/>
	</g>
</g>
<g id="Home_3">
</g>
<g id="Park_3">
</g>
<g id="Recicle_Users">
</g>
<g id="Wifi_3">
</g>
<g id="Attach_3">
</g>
<g id="Disabled_Users">
</g>
<g id="Users_Card">
</g>
<g id="Gaming_3">
</g>
<g id="Cloud_3">
</g>
<g id="Database_3">
</g>
<g id="Copyright_3">
</g>
<g id="No_Copzright_3">
</g>
<g id="Creative_Commun_3">
</g>
<g id="Eco-Friendly_3">
</g>
<g id="Percentage_3">
</g>
<g id="Users_Love">
</g>
<g id="Users_Place">
</g>
<g id="Users_Key">
</g>
<g id="Sleeping_3">
</g>
</svg>
