<?xml version="1.0" encoding="iso-8859-1"?>
<!-- Generator: Adobe Illustrator 19.2.1, SVG Export Plug-In . SVG Version: 6.00 Build 0)  -->
<svg version="1.1" xmlns="http://www.w3.org/2000/svg" xmlns:xlink="http://www.w3.org/1999/xlink" x="0px" y="0px"
	 viewBox="0 0 24 24" style="enable-background:new 0 0 24 24;" xml:space="preserve">
<g id="Flag">
</g>
<g id="Umbrella">
</g>
<g id="Briefcase">
</g>
<g id="Box">
</g>
<g id="Magnet">
</g>
<g id="Percent">
</g>
<g id="Rocket">
</g>
<g id="Share">
</g>
<g id="Transmitter">
</g>
<g id="Record_2">
</g>
<g id="Record_1">
</g>
<g id="Anchor">
</g>
<g id="Airplane">
</g>
<g id="Car">
	<g>
		<circle cx="19.5" cy="13.5" r="1.5"/>
		<circle cx="4.5" cy="13.5" r="1.5"/>
		<path d="M21.962,9.33L19.22,2.909C18.983,2.357,18.442,2,17.841,2H6.159C5.559,2,5.018,2.357,4.78,2.91L2.038,9.33
			C0.839,9.886,0,11.094,0,12.5v4C0,17.327,0.673,18,1.5,18H2v2.5C2,21.327,2.673,22,3.5,22h2C6.327,22,7,21.327,7,20.5V18h10v2.5
			c0,0.827,0.673,1.5,1.5,1.5h2c0.827,0,1.5-0.673,1.5-1.5V18h0.5c0.827,0,1.5-0.673,1.5-1.5v-4C24,11.094,23.161,9.886,21.962,9.33
			z M4.5,16C3.122,16,2,14.879,2,13.5C2,12.122,3.122,11,4.5,11S7,12.122,7,13.5C7,14.879,5.878,16,4.5,16z M15.5,15h-7
			C8.224,15,8,14.776,8,14.5S8.224,14,8.5,14h7c0.276,0,0.5,0.224,0.5,0.5S15.776,15,15.5,15z M15.5,13h-7C8.224,13,8,12.776,8,12.5
			S8.224,12,8.5,12h7c0.276,0,0.5,0.224,0.5,0.5S15.776,13,15.5,13z M3.5,9C3.417,9,3.338,9.019,3.256,9.025L5.7,3.303
			C5.779,3.119,5.959,3,6.159,3h11.682c0.2,0,0.381,0.119,0.459,0.302l2.444,5.722C20.662,9.019,20.583,9,20.5,9H3.5z M19.5,16
			c-1.379,0-2.5-1.121-2.5-2.5c0-1.378,1.121-2.5,2.5-2.5s2.5,1.122,2.5,2.5C22,14.879,20.879,16,19.5,16z"/>
	</g>
</g>
<g id="Newsfeed">
</g>
<g id="Wifi_Tethering">
</g>
<g id="No_Wifi_Tethering">
</g>
<g id="Bar_Chart_2">
</g>
<g id="Shop">
</g>
<g id="Alarm">
</g>
<g id="Sim_Card">
</g>
<g id="Radar">
</g>
<g id="Hand_2">
</g>
<g id="Palette">
</g>
<g id="Cake">
</g>
<g id="Blende">
</g>
<g id="Feather_Pen">
</g>
<g id="Ticket">
</g>
<g id="Medal">
</g>
<g id="Mouse_Pointer_1">
</g>
<g id="Mouse_Pointer_2">
</g>
<g id="Fingerprint">
</g>
<g id="Earth">
</g>
</svg>
