<?xml version="1.0" encoding="iso-8859-1"?>
<!-- Generator: Adobe Illustrator 19.2.1, SVG Export Plug-In . SVG Version: 6.00 Build 0)  -->
<svg version="1.1" xmlns="http://www.w3.org/2000/svg" xmlns:xlink="http://www.w3.org/1999/xlink" x="0px" y="0px"
	 viewBox="0 0 30 30" style="enable-background:new 0 0 30 30;" xml:space="preserve">
<g id="Pompkin">
</g>
<g id="Layer_10">
</g>
<g id="Bat">
</g>
<g id="Ghost">
</g>
<g id="Bone_Hand">
</g>
<g id="Tree_Ghost">
</g>
<g id="Gate">
</g>
<g id="Cemetery_1">
</g>
<g id="Cemetery_2">
	<g>
		<g>
			<path d="M19.777,19.218c-0.048,0-0.097-0.007-0.145-0.021l-3.655-1.104c-0.127-0.038-0.233-0.125-0.296-0.242
				c-0.063-0.117-0.076-0.254-0.038-0.381l1.328-4.395l-4.395-1.328c-0.265-0.08-0.414-0.359-0.334-0.623l1.104-3.655
				c0.038-0.127,0.125-0.233,0.242-0.296c0.117-0.063,0.255-0.077,0.381-0.038l4.396,1.328l0.959-3.177
				c0.038-0.127,0.125-0.233,0.242-0.296c0.117-0.062,0.255-0.077,0.381-0.038l3.655,1.104c0.127,0.038,0.233,0.125,0.296,0.242
				c0.063,0.117,0.076,0.254,0.038,0.381l-0.96,3.176l4.396,1.328c0.127,0.038,0.233,0.125,0.296,0.242
				c0.063,0.117,0.076,0.254,0.038,0.381l-1.104,3.655c-0.08,0.265-0.36,0.416-0.623,0.334l-4.395-1.328l-1.328,4.395
				C20.19,19.079,19.992,19.218,19.777,19.218z M16.745,17.28l2.698,0.815l1.328-4.395c0.08-0.264,0.36-0.413,0.623-0.334
				l4.395,1.328l0.815-2.698l-4.396-1.328c-0.127-0.038-0.233-0.125-0.296-0.242c-0.063-0.117-0.076-0.254-0.038-0.381l0.96-3.176
				l-2.698-0.815L19.178,9.23c-0.038,0.127-0.125,0.233-0.242,0.296c-0.117,0.063-0.255,0.077-0.381,0.038l-4.396-1.328
				l-0.814,2.698l4.395,1.328c0.127,0.038,0.233,0.125,0.296,0.242c0.063,0.117,0.076,0.254,0.038,0.381L16.745,17.28z"/>
		</g>
		<g>
			<path d="M21.11,23.609c-0.049,0-0.098-0.007-0.145-0.021l-8.529-2.576c-0.127-0.038-0.233-0.125-0.296-0.242
				c-0.063-0.117-0.076-0.254-0.038-0.381l1.104-3.655c0.08-0.264,0.36-0.414,0.623-0.334l8.528,2.577
				c0.265,0.08,0.414,0.359,0.334,0.623l-1.104,3.655c-0.038,0.127-0.125,0.233-0.242,0.296
				C21.273,23.589,21.192,23.609,21.11,23.609z M13.204,20.199l7.572,2.287l0.814-2.698l-7.571-2.288L13.204,20.199z"/>
		</g>
		<g>
			<g>
				<path d="M8.137,14.708c-0.196,0-0.383-0.117-0.463-0.31L2.048,0.709C1.943,0.454,2.065,0.162,2.32,0.057
					C2.578-0.045,2.868,0.074,2.974,0.33L8.6,14.018c0.104,0.255-0.018,0.547-0.272,0.652C8.265,14.696,8.2,14.708,8.137,14.708z"/>
			</g>
			<g>
				<path d="M0.749,7.134c-0.201,0-0.392-0.123-0.468-0.322c-0.098-0.258,0.032-0.547,0.29-0.645L7.71,3.456
					c0.256-0.099,0.547,0.03,0.646,0.29c0.098,0.258-0.032,0.547-0.29,0.645L0.927,7.102C0.868,7.124,0.809,7.134,0.749,7.134z"/>
			</g>
			<g>
				<path d="M4.316,8.326c-0.425,0-0.849-0.09-1.247-0.269C2.327,7.723,1.76,7.121,1.471,6.36c-0.596-1.57,0.196-3.332,1.766-3.929
					c1.569-0.598,3.333,0.197,3.93,1.766v0c0.288,0.76,0.264,1.588-0.07,2.33C6.763,7.27,6.16,7.837,5.399,8.125
					C5.048,8.259,4.682,8.326,4.316,8.326z M4.315,3.233c-0.24,0-0.485,0.043-0.724,0.133C2.538,3.767,2.006,4.951,2.406,6.005
					C2.6,6.516,2.981,6.92,3.479,7.145s1.054,0.24,1.564,0.046c0.511-0.194,0.916-0.575,1.14-1.074
					C6.408,5.619,6.425,5.063,6.23,4.553l0,0C5.921,3.736,5.142,3.233,4.315,3.233z"/>
			</g>
		</g>
		<g>
			<path d="M28.5,29.98c-0.276,0-0.5-0.224-0.5-0.5c0-1.35-3.87-2.96-10.346-3.319c-0.276-0.015-0.487-0.251-0.472-0.527
				c0.016-0.274,0.254-0.473,0.526-0.471C23.329,25.474,29,26.93,29,29.48C29,29.757,28.776,29.98,28.5,29.98z"/>
		</g>
		<g>
			<path d="M0.5,29.98c-0.276,0-0.5-0.224-0.5-0.5c0-2.749,6.904-4.157,13.319-4.302c0.302,0.005,0.506,0.212,0.512,0.489
				c0.006,0.276-0.213,0.505-0.488,0.511C6.068,26.343,1,28.051,1,29.48C1,29.757,0.776,29.98,0.5,29.98z"/>
		</g>
		<g>
			<path d="M16.911,28.708c-0.048,0-0.097-0.007-0.145-0.021c-0.265-0.08-0.414-0.359-0.334-0.623l1.617-5.355l-2.697-0.815
				l-1.76,5.824c-0.08,0.264-0.36,0.415-0.623,0.334c-0.265-0.08-0.414-0.359-0.334-0.623l1.904-6.302
				c0.038-0.127,0.125-0.233,0.242-0.296c0.117-0.062,0.255-0.077,0.381-0.038l3.654,1.104c0.265,0.08,0.414,0.359,0.334,0.623
				l-1.762,5.834C17.324,28.568,17.126,28.708,16.911,28.708z"/>
		</g>
		<g>
			<path d="M10.682,15.98c-0.276,0-0.5-0.224-0.5-0.5c0-1.128-1.203-2.045-2.682-2.045s-2.682,0.917-2.682,2.045
				c0,0.276-0.224,0.5-0.5,0.5s-0.5-0.224-0.5-0.5c0-1.679,1.651-3.045,3.682-3.045s3.682,1.366,3.682,3.045
				C11.182,15.757,10.958,15.98,10.682,15.98z"/>
		</g>
		<g>
			<path d="M6.863,28.708c-0.267,0-0.488-0.21-0.5-0.479c-0.074-1.832-0.451-2.625-1.165-3.529
				c-0.171-0.217-0.134-0.531,0.083-0.702c0.216-0.173,0.53-0.135,0.702,0.082c0.828,1.049,1.294,2.014,1.38,4.108
				c0.011,0.276-0.204,0.509-0.479,0.52C6.877,28.708,6.87,28.708,6.863,28.708z"/>
		</g>
		<g>
			<path d="M6.862,28.708c-0.237,0-0.447-0.169-0.491-0.411c-0.252-1.395,0.206-2.102,0.649-2.786
				c0.236-0.365,0.48-0.742,0.638-1.265c0.079-0.265,0.36-0.413,0.622-0.335c0.265,0.08,0.415,0.358,0.335,0.623
				c-0.197,0.66-0.494,1.117-0.756,1.521c-0.397,0.615-0.686,1.06-0.504,2.065c0.049,0.272-0.132,0.532-0.403,0.581
				C6.922,28.706,6.893,28.708,6.862,28.708z"/>
		</g>
		<g>
			<path d="M19.777,19.218c-0.048,0-0.097-0.007-0.145-0.021l-3.655-1.104c-0.127-0.038-0.233-0.125-0.296-0.242
				c-0.063-0.117-0.076-0.254-0.038-0.381l1.328-4.395l-4.395-1.328c-0.265-0.08-0.414-0.359-0.334-0.623l1.104-3.655
				c0.038-0.127,0.125-0.233,0.242-0.296c0.117-0.063,0.255-0.077,0.381-0.038l4.396,1.328l0.959-3.177
				c0.038-0.127,0.125-0.233,0.242-0.296c0.117-0.062,0.255-0.077,0.381-0.038l3.655,1.104c0.127,0.038,0.233,0.125,0.296,0.242
				c0.063,0.117,0.076,0.254,0.038,0.381l-0.96,3.176l4.396,1.328c0.127,0.038,0.233,0.125,0.296,0.242
				c0.063,0.117,0.076,0.254,0.038,0.381l-1.104,3.655c-0.08,0.265-0.36,0.416-0.623,0.334l-4.395-1.328l-1.328,4.395
				C20.19,19.079,19.992,19.218,19.777,19.218z M16.745,17.28l2.698,0.815l1.328-4.395c0.08-0.264,0.36-0.413,0.623-0.334
				l4.395,1.328l0.815-2.698l-4.396-1.328c-0.127-0.038-0.233-0.125-0.296-0.242c-0.063-0.117-0.076-0.254-0.038-0.381l0.96-3.176
				l-2.698-0.815L19.178,9.23c-0.038,0.127-0.125,0.233-0.242,0.296c-0.117,0.063-0.255,0.077-0.381,0.038l-4.396-1.328
				l-0.814,2.698l4.395,1.328c0.127,0.038,0.233,0.125,0.296,0.242c0.063,0.117,0.076,0.254,0.038,0.381L16.745,17.28z"/>
		</g>
		<g>
			<path d="M21.11,23.609c-0.049,0-0.098-0.007-0.145-0.021l-8.529-2.576c-0.127-0.038-0.233-0.125-0.296-0.242
				c-0.063-0.117-0.076-0.254-0.038-0.381l1.104-3.655c0.08-0.264,0.36-0.414,0.623-0.334l8.528,2.577
				c0.265,0.08,0.414,0.359,0.334,0.623l-1.104,3.655c-0.038,0.127-0.125,0.233-0.242,0.296
				C21.273,23.589,21.192,23.609,21.11,23.609z M13.204,20.199l7.572,2.287l0.814-2.698l-7.571-2.288L13.204,20.199z"/>
		</g>
		<g>
			<g>
				<path d="M8.137,14.708c-0.196,0-0.383-0.117-0.463-0.31L2.048,0.709C1.943,0.454,2.065,0.162,2.32,0.057
					C2.578-0.045,2.868,0.074,2.974,0.33L8.6,14.018c0.104,0.255-0.018,0.547-0.272,0.652C8.265,14.696,8.2,14.708,8.137,14.708z"/>
			</g>
			<g>
				<path d="M0.749,7.134c-0.201,0-0.392-0.123-0.468-0.322c-0.098-0.258,0.032-0.547,0.29-0.645L7.71,3.456
					c0.256-0.099,0.547,0.03,0.646,0.29c0.098,0.258-0.032,0.547-0.29,0.645L0.927,7.102C0.868,7.124,0.809,7.134,0.749,7.134z"/>
			</g>
			<g>
				<path d="M4.316,8.326c-0.425,0-0.849-0.09-1.247-0.269C2.327,7.723,1.76,7.121,1.471,6.36c-0.596-1.57,0.196-3.332,1.766-3.929
					c1.569-0.598,3.333,0.197,3.93,1.766v0c0.288,0.76,0.264,1.588-0.07,2.33C6.763,7.27,6.16,7.837,5.399,8.125
					C5.048,8.259,4.682,8.326,4.316,8.326z M4.315,3.233c-0.24,0-0.485,0.043-0.724,0.133C2.538,3.767,2.006,4.951,2.406,6.005
					C2.6,6.516,2.981,6.92,3.479,7.145s1.054,0.24,1.564,0.046c0.511-0.194,0.916-0.575,1.14-1.074
					C6.408,5.619,6.425,5.063,6.23,4.553l0,0C5.921,3.736,5.142,3.233,4.315,3.233z"/>
			</g>
		</g>
		<g>
			<path d="M28.5,29.98c-0.276,0-0.5-0.224-0.5-0.5c0-1.35-3.87-2.96-10.346-3.319c-0.276-0.015-0.487-0.251-0.472-0.527
				c0.016-0.274,0.254-0.473,0.526-0.471C23.329,25.474,29,26.93,29,29.48C29,29.757,28.776,29.98,28.5,29.98z"/>
		</g>
		<g>
			<path d="M0.5,29.98c-0.276,0-0.5-0.224-0.5-0.5c0-2.749,6.904-4.157,13.319-4.302c0.302,0.005,0.506,0.212,0.512,0.489
				c0.006,0.276-0.213,0.505-0.488,0.511C6.068,26.343,1,28.051,1,29.48C1,29.757,0.776,29.98,0.5,29.98z"/>
		</g>
		<g>
			<path d="M16.911,28.708c-0.048,0-0.097-0.007-0.145-0.021c-0.265-0.08-0.414-0.359-0.334-0.623l1.617-5.355l-2.697-0.815
				l-1.76,5.824c-0.08,0.264-0.36,0.415-0.623,0.334c-0.265-0.08-0.414-0.359-0.334-0.623l1.904-6.302
				c0.038-0.127,0.125-0.233,0.242-0.296c0.117-0.062,0.255-0.077,0.381-0.038l3.654,1.104c0.265,0.08,0.414,0.359,0.334,0.623
				l-1.762,5.834C17.324,28.568,17.126,28.708,16.911,28.708z"/>
		</g>
		<g>
			<path d="M10.682,15.98c-0.276,0-0.5-0.224-0.5-0.5c0-1.128-1.203-2.045-2.682-2.045s-2.682,0.917-2.682,2.045
				c0,0.276-0.224,0.5-0.5,0.5s-0.5-0.224-0.5-0.5c0-1.679,1.651-3.045,3.682-3.045s3.682,1.366,3.682,3.045
				C11.182,15.757,10.958,15.98,10.682,15.98z"/>
		</g>
		<g>
			<path d="M6.863,28.708c-0.267,0-0.488-0.21-0.5-0.479c-0.074-1.832-0.451-2.625-1.165-3.529
				c-0.171-0.217-0.134-0.531,0.083-0.702c0.216-0.173,0.53-0.135,0.702,0.082c0.828,1.049,1.294,2.014,1.38,4.108
				c0.011,0.276-0.204,0.509-0.479,0.52C6.877,28.708,6.87,28.708,6.863,28.708z"/>
		</g>
		<g>
			<path d="M6.862,28.708c-0.237,0-0.447-0.169-0.491-0.411c-0.252-1.395,0.206-2.102,0.649-2.786
				c0.236-0.365,0.48-0.742,0.638-1.265c0.079-0.265,0.36-0.413,0.622-0.335c0.265,0.08,0.415,0.358,0.335,0.623
				c-0.197,0.66-0.494,1.117-0.756,1.521c-0.397,0.615-0.686,1.06-0.504,2.065c0.049,0.272-0.132,0.532-0.403,0.581
				C6.922,28.706,6.893,28.708,6.862,28.708z"/>
		</g>
	</g>
</g>
<g id="Devil_x27_s_Fork">
</g>
<g id="Night_Candle">
</g>
<g id="Canlestick">
</g>
<g id="Black_Cat">
</g>
<g id="Witch_Cauldron">
</g>
<g id="Corn_Candy">
</g>
<g id="Layer_29">
</g>
<g id="Bones">
</g>
<g id="Witch_Broom">
</g>
<g id="Owl">
</g>
<g id="Scythe">
</g>
<g id="Grim_Reaper">
</g>
<g id="Coffin">
</g>
<g id="Dracula">
</g>
<g id="Frankenstein">
</g>
<g id="Layer_40">
</g>
<g id="Toilet_Paper">
</g>
<g id="Skull">
</g>
<g id="Skull_Cake">
</g>
<g id="Eyeball">
</g>
<g id="Castle">
</g>
<g id="Witch_x27_s_Hat">
</g>
<g id="Cobweb_1">
</g>
<g id="Cobweb_2">
</g>
<g id="Spider">
</g>
<g id="Full_Moon">
</g>
<g id="Crescent">
</g>
<g id="Crow">
</g>
<g id="Candy_Holder">
</g>
<g id="Bloody_Knife">
</g>
<g id="Bloody_Axe">
</g>
</svg>
