<?xml version="1.0" encoding="iso-8859-1"?>
<!-- Generator: Adobe Illustrator 19.2.1, SVG Export Plug-In . SVG Version: 6.00 Build 0)  -->
<svg version="1.1" xmlns="http://www.w3.org/2000/svg" xmlns:xlink="http://www.w3.org/1999/xlink" x="0px" y="0px"
	 viewBox="0 0 30 30" style="enable-background:new 0 0 30 30;" xml:space="preserve">
<g id="Present_1">
</g>
<g id="Present_2">
</g>
<g id="Present_3">
</g>
<g id="Present_Cake">
</g>
<g id="Present_4">
</g>
<g id="Birthday_Cake_1">
</g>
<g id="Birthday_Cake_2">
</g>
<g id="Cake_Piece">
</g>
<g id="Cupcake">
</g>
<g id="Lollipop">
</g>
<g id="Birthday_Greetings_1">
</g>
<g id="Party_Greetings_2">
</g>
<g id="Birthday_Invitation">
</g>
<g id="Birthday_1">
</g>
<g id="Birthday_2">
</g>
<g id="Birthday_Message_1">
</g>
<g id="Birthday_Message_2">
</g>
<g id="Birthyday_Hat_1">
</g>
<g id="Birthay_Hat_2">
</g>
<g id="Birthday_Hat3">
</g>
<g id="Birthday_Decoration_1">
</g>
<g id="Birthday_Decoration_2">
</g>
<g id="Birthday_Decoration_3">
</g>
<g id="Horn_1">
</g>
<g id="Horn_2">
</g>
<g id="Baloon">
</g>
<g id="Balloons_1">
</g>
<g id="Balloons_2">
</g>
<g id="Birthday_Picture">
</g>
<g id="Kid_x27_s_Champagne">
</g>
<g id="Candy">
</g>
<g id="Birthday_Card">
</g>
<g id="Flowers">
</g>
<g id="Birthday_Song">
</g>
<g id="Candle">
</g>
<g id="Sweet_16">
</g>
<g id="Clown">
</g>
<g id="Clown_2">
</g>
<g id="Birthday_Party">
</g>
<g id="Giving_Gift">
</g>
<g id="Present_5">
</g>
<g id="Champagne_in_ice_bucket">
	<g>
		<path d="M26.484,1.407l-0.892-0.892c-0.687-0.688-1.804-0.686-2.5,0.01l-0.998,1.056c0.003,0.023,0.014,0.043,0.014,0.067
			c0.001,0.103,0.077,2.407,3.172,3.386l1.204-1.138C27.171,3.211,27.171,2.094,26.484,1.407z"/>
		<path d="M23.864,17.654c-7.74-0.597-9.577-5.747-9.651-5.966c-0.089-0.261-0.372-0.401-0.633-0.313
			c-0.261,0.088-0.402,0.37-0.315,0.631c0.081,0.245,2.093,5.996,10.523,6.645c0.013,0.002,0.025,0.002,0.039,0.002
			c0.258,0,0.478-0.199,0.497-0.462C24.346,17.915,24.14,17.675,23.864,17.654z"/>
		<path d="M22.666,7.113c0.244-0.298,0.598-0.485,0.983-0.531c0.016-0.016,0.026-0.028,0.043-0.045l0.776-0.734
			c-2.186-0.867-2.955-2.384-3.219-3.326l-0.776,0.822c-2.278,2.279-3.467,2.898-5.111,3.756C15.249,7.114,15.118,7.185,15,7.246
			V6.5C15,6.224,14.776,6,14.5,6H12V5.5C12,5.224,11.776,5,11.5,5h-3C8.224,5,8,5.224,8,5.5v1.251L7.851,6.527
			C7.783,6.426,7.678,6.364,7.562,6.333L5.897,4.667c-0.195-0.195-0.512-0.195-0.707,0L3.407,6.451
			c-0.195,0.195-0.195,0.512,0,0.707l0.467,0.467c-0.077-0.039-0.161-0.064-0.25-0.058C3.359,7.582,3.152,7.801,3.152,8.065
			c0,0.022,0.001,0.043,0.004,0.064l2.259,19.201C5.594,28.853,6.885,30,8.417,30h10.645c1.532,0,2.822-1.147,3.001-2.669
			l0.915-7.771c-8.456-0.948-10.574-6.976-10.661-7.24c-0.261-0.78,0.163-1.63,0.945-1.894c0.78-0.263,1.633,0.159,1.899,0.939
			c0.064,0.189,1.611,4.462,8.167,5.22l0.995-8.456c0.003-0.021,0.004-0.042,0.004-0.064c0-0.265-0.206-0.484-0.471-0.499
			c-0.236-0.02-0.43,0.128-0.502,0.334C22.811,8.268,19.748,8.742,15,8.815V7.808C19.448,7.739,21.963,7.331,22.666,7.113z M9,6h2
			v0.5V8H9V6z M8.015,8.577c0.001,0.009,0.003,0.017,0.005,0.025c-0.557-0.049-1.068-0.102-1.516-0.16l0.852-0.853L8.015,8.577z
			 M5.543,5.728L6.62,6.804L5.543,7.88L4.467,6.804L5.543,5.728z M4.094,7.845l0.084,0.084C4.161,7.92,4.138,7.91,4.125,7.901
			C4.117,7.88,4.104,7.864,4.094,7.845z M13.739,8.826c-0.605,0-1.182-0.007-1.739-0.019V8.5V7h2v1.825
			C13.912,8.825,13.828,8.826,13.739,8.826z"/>
	</g>
</g>
<g id="Beer">
</g>
<g id="Truffles">
</g>
<g id="Pinata">
</g>
</svg>
