<?xml version="1.0" encoding="iso-8859-1"?>
<!-- Generator: Adobe Illustrator 19.2.1, SVG Export Plug-In . SVG Version: 6.00 Build 0)  -->
<svg version="1.1" xmlns="http://www.w3.org/2000/svg" xmlns:xlink="http://www.w3.org/1999/xlink" x="0px" y="0px"
	 viewBox="0 0 30 30" style="enable-background:new 0 0 30 30;" xml:space="preserve">
<g id="Event">
</g>
<g id="Event_2">
</g>
<g id="Add_Event">
</g>
<g id="Remove_Event">
</g>
<g id="Event_Reminder">
</g>
<g id="Wine_Glass">
</g>
<g id="Toast">
</g>
<g id="Champagne">
	<g>
		<g>
			<path d="M13.992,21c-0.256,0-0.467-0.192-0.496-0.441C13.318,20.395,12.3,20,9.492,20c-2.924,0-3.907,0.428-4.021,0.578
				c0,0.273-0.208,0.454-0.479,0.459V25h9V21z"/>
			<path d="M9.492,19c2.689,0,3.926,0.327,4.5,0.687V19.5c0-2.405-0.451-4.29-0.929-6.285c-0.526-2.2-1.071-4.476-1.071-7.715V2
				c0-1.103-0.897-2-2-2h-1c-1.103,0-2,0.897-2,2v3.5c0,3.273-0.545,5.54-1.072,7.731c-0.478,1.981-0.928,3.854-0.928,6.269v0.187
				C5.566,19.327,6.802,19,9.492,19z"/>
			<path d="M4.992,26v1.5c0,1.378,1.121,2.5,2.5,2.5h4c1.379,0,2.5-1.122,2.5-2.5V26H4.992z"/>
		</g>
		<path d="M23.152,23.803c0.616-0.675,0.914-1.509,0.836-2.365l-1-8C22.957,13.188,22.744,13,22.492,13h-4
			c-0.252,0-0.465,0.188-0.496,0.438l-1.002,8.017c-0.076,0.839,0.222,1.673,0.838,2.348c0.568,0.622,1.351,1.018,2.16,1.141V29
			h-1.5c-0.276,0-0.5,0.224-0.5,0.5s0.224,0.5,0.5,0.5h4c0.276,0,0.5-0.224,0.5-0.5s-0.224-0.5-0.5-0.5h-1.5v-4.056
			C21.801,24.821,22.584,24.425,23.152,23.803z"/>
	</g>
</g>
<g id="Champagne_Open">
</g>
<g id="Alcohol_Drink">
</g>
<g id="Beer_Glass">
</g>
<g id="Party_Cake">
</g>
<g id="Pizza_Food">
</g>
<g id="Disco_Ball">
</g>
<g id="Equalizer">
</g>
<g id="DJ">
</g>
<g id="Tent">
</g>
<g id="Firework_1">
</g>
<g id="Firework_2">
</g>
<g id="Party_Glasses">
</g>
<g id="Barbeque">
</g>
<g id="Horn">
</g>
<g id="Speaker">
</g>
<g id="VIP">
</g>
<g id="Event_Ticket">
</g>
<g id="VIP_Ticket">
</g>
<g id="Popcorn">
</g>
<g id="Cord">
</g>
<g id="Invitation_1">
</g>
<g id="Invitation_2">
</g>
</svg>
