<?xml version="1.0" encoding="iso-8859-1"?>
<!-- Generator: Adobe Illustrator 19.2.1, SVG Export Plug-In . SVG Version: 6.00 Build 0)  -->
<svg version="1.1" xmlns="http://www.w3.org/2000/svg" xmlns:xlink="http://www.w3.org/1999/xlink" x="0px" y="0px"
	 viewBox="0 0 24 24" style="enable-background:new 0 0 24 24;" xml:space="preserve">
<g id="Present_1">
</g>
<g id="Present_2">
</g>
<g id="Present_3">
</g>
<g id="Present_Cake">
</g>
<g id="Present_4">
</g>
<g id="Birthday_Cake_1">
</g>
<g id="Birthday_Cake_2">
</g>
<g id="Cake_Piece">
</g>
<g id="Cupcake">
</g>
<g id="Lollipop">
</g>
<g id="Birthday_Greetings_1">
</g>
<g id="Party_Greetings_2">
</g>
<g id="Birthday_Invitation">
</g>
<g id="Birthday_1">
</g>
<g id="Birthday_2">
</g>
<g id="Birthday_Message_1">
</g>
<g id="Birthday_Message_2">
</g>
<g id="Birthyday_Hat_1">
</g>
<g id="Birthay_Hat_2">
</g>
<g id="Birthday_Hat3">
</g>
<g id="Birthday_Decoration_1">
</g>
<g id="Birthday_Decoration_2">
</g>
<g id="Birthday_Decoration_3">
</g>
<g id="Horn_1">
</g>
<g id="Horn_2">
</g>
<g id="Baloon">
</g>
<g id="Balloons_1">
</g>
<g id="Balloons_2">
</g>
<g id="Birthday_Picture">
</g>
<g id="Kid_x27_s_Champagne">
</g>
<g id="Candy">
</g>
<g id="Birthday_Card">
</g>
<g id="Flowers">
</g>
<g id="Birthday_Song">
</g>
<g id="Candle">
</g>
<g id="Sweet_16">
</g>
<g id="Clown">
</g>
<g id="Clown_2">
</g>
<g id="Birthday_Party">
</g>
<g id="Giving_Gift">
</g>
<g id="Present_5">
</g>
<g id="Champagne_in_ice_bucket">
	<g>
		<path d="M19.029,6c-0.214-0.018-0.404,0.11-0.486,0.296c-0.515,0.292-3.129,0.666-7.043,0.697V6.074
			c3.745,0.129,6.118-0.338,7.318-0.685c0.01-0.01,0.016-0.017,0.026-0.028l0.566-0.535c-1.781-0.601-2.557-1.772-2.803-2.669
			l-0.46,0.487c-1.797,1.797-2.733,2.285-4.03,2.961C11.923,5.707,11.711,5.82,11.5,5.933V5.499c0-0.276-0.224-0.5-0.5-0.5H9.5v-0.5
			c0-0.276-0.224-0.5-0.5-0.5H7c-0.276,0-0.5,0.224-0.5,0.5v0.849L6.416,5.222C6.355,5.13,6.262,5.074,6.16,5.038L4.854,3.731
			c-0.195-0.195-0.512-0.195-0.707,0L2.732,5.145c-0.195,0.195-0.195,0.512,0,0.707l0.166,0.166C2.671,6.067,2.5,6.26,2.5,6.499
			c0,0.02,0.001,0.039,0.004,0.059l1.792,15.234c0.148,1.259,1.216,2.208,2.482,2.208h8.443c1.267,0,2.334-0.949,2.482-2.208
			l0.689-5.856c-6.985-0.763-8.744-5.745-8.816-5.962C9.316,9.191,9.74,8.341,10.522,8.078C10.677,8.026,10.838,8,11,8
			c0.643,0,1.213,0.408,1.42,1.016c0.049,0.141,1.249,3.4,6.323,3.944l0.753-6.403c0.003-0.02,0.004-0.039,0.004-0.059
			C19.5,6.234,19.294,6.015,19.029,6z M10.5,5.999v0.994c-0.338-0.003-0.682-0.004-1-0.012V6.499v-0.5H10.5z M5.922,6.284
			l0.344,0.515C5.988,6.773,5.73,6.746,5.489,6.716L5.922,6.284z M7.5,4.999h1v0.5v0.5h-1V4.999z M4.5,4.792l0.707,0.707L4.5,6.206
			L3.793,5.499L4.5,4.792z"/>
		<path d="M19.038,14c-6.064-0.466-7.506-4.49-7.564-4.661c-0.089-0.261-0.372-0.4-0.633-0.313c-0.262,0.088-0.402,0.37-0.315,0.631
			c0.065,0.196,1.683,4.821,8.437,5.34c0.013,0.001,0.025,0.001,0.039,0.001c0.258,0,0.478-0.199,0.497-0.461
			C19.52,14.262,19.313,14.021,19.038,14z"/>
		<path d="M21.061,1.145l-0.707-0.707c-0.585-0.584-1.536-0.585-2.131,0.01l-0.781,0.827c0.034,0.067,0.058,0.14,0.059,0.22
			c0.002,0.089,0.072,1.881,2.621,2.519c0.037,0.009,0.066,0.031,0.099,0.047l0.84-0.794c0.283-0.283,0.439-0.66,0.439-1.061
			C21.5,1.806,21.344,1.429,21.061,1.145z"/>
	</g>
</g>
<g id="Beer">
</g>
<g id="Truffles">
</g>
<g id="Pinata">
</g>
</svg>
