<?xml version="1.0" encoding="iso-8859-1"?>
<!-- Generator: Adobe Illustrator 19.2.1, SVG Export Plug-In . SVG Version: 6.00 Build 0)  -->
<svg version="1.1" xmlns="http://www.w3.org/2000/svg" xmlns:xlink="http://www.w3.org/1999/xlink" x="0px" y="0px"
	 viewBox="0 0 30 30" style="enable-background:new 0 0 30 30;" xml:space="preserve">
<g id="Cutting_Board_1">
</g>
<g id="Cutting_Board_2">
</g>
<g id="Chef_x27_s_Hat_1">
</g>
<g id="Chef_x27_s_Hat_2">
	<g>
		<g>
			<path d="M6.5,16C3.432,16,0,12.899,0,8.75C0,4.523,2.543,2,6.804,2c3.378,0,7.619,2.18,10.083,5.183
				c0.175,0.213,0.144,0.528-0.07,0.704c-0.214,0.174-0.529,0.143-0.704-0.07C13.861,5.071,9.858,3,6.804,3C5.059,3,1,3.56,1,8.75
				C1,12.27,3.957,15,6.5,15c1.393,0,3.05-0.66,3.757-0.941L10.5,14.5l0.185,0.465C9.867,15.291,8.085,16,6.5,16z"/>
		</g>
		<g>
			<path d="M24.5,17c-2.109,0-3.67-0.744-4.244-1.063c-0.241-0.134-0.328-0.439-0.193-0.68c0.134-0.242,0.438-0.328,0.68-0.193
				C21.249,15.345,22.625,16,24.5,16c2.692,0,4.5-3.749,4.5-7.25C29,5.311,25.347,3,21.935,3c-2.502,0-6.953,1.169-8.732,1.957
				c-0.254,0.111-0.548-0.002-0.66-0.254c-0.112-0.252,0.002-0.548,0.254-0.66C14.634,3.229,19.214,2,21.935,2
				C25.813,2,30,4.581,30,8.75C30,12.718,27.897,17,24.5,17z"/>
		</g>
		<g>
			<path d="M15.5,14c-1.025,0-2.028-0.364-3.189-0.785C10.74,12.646,8.96,12,6.5,12C6.224,12,6,11.776,6,11.5S6.224,11,6.5,11
				c2.636,0,4.585,0.707,6.152,1.275C13.724,12.664,14.65,13,15.5,13c0.948,0,1.73-0.19,2.636-0.409
				C19.278,12.314,20.572,12,22.5,12c0.276,0,0.5,0.224,0.5,0.5S22.776,13,22.5,13c-1.808,0-3.041,0.299-4.128,0.563
				C17.444,13.788,16.568,14,15.5,14z"/>
		</g>
		<g>
			<path d="M15,28c-3.788,0-6.555-0.988-6.67-1.03C8.132,26.898,8,26.71,8,26.5v-11C8,15.224,8.224,15,8.5,15S9,15.224,9,15.5
				v10.637C9.827,26.389,12.126,27,15,27c2.901,0,5.181-0.61,6-0.862V16c0-0.276,0.224-0.5,0.5-0.5S22,15.724,22,16v10.5
				c0,0.209-0.131,0.397-0.327,0.469C21.558,27.011,18.828,28,15,28z"/>
		</g>
		<g>
			<path d="M15,26c-3.788,0-6.555-0.988-6.67-1.03c-0.26-0.094-0.394-0.381-0.3-0.64c0.094-0.26,0.38-0.394,0.641-0.3
				C8.697,24.04,11.398,25,15,25c3.64,0,6.301-0.959,6.328-0.969c0.259-0.096,0.547,0.038,0.642,0.297
				c0.095,0.259-0.038,0.546-0.296,0.642C21.558,25.011,18.828,26,15,26z"/>
		</g>
	</g>
</g>
<g id="Kitchen_Scale">
</g>
<g id="Measuring_Cup">
</g>
<g id="Pot_1">
</g>
<g id="Pot_2">
</g>
<g id="Wok_1">
</g>
<g id="Wok_2">
</g>
<g id="Teapot">
</g>
<g id="Plate">
</g>
<g id="Sauce_Boat">
</g>
<g id="Cauldron">
</g>
<g id="Cookbook">
</g>
<g id="Salt_Pot">
</g>
<g id="Pepper_Pot_1">
</g>
<g id="Pepper_Pot_2">
</g>
<g id="Egg_Timer">
</g>
<g id="Olive_Oil_Pot">
</g>
<g id="Pancake_Griddle">
</g>
<g id="Pan">
</g>
<g id="Kettle">
</g>
<g id="Microwave">
</g>
<g id="Cooker">
</g>
<g id="Meat_Grinder">
</g>
<g id="Coffee_Maker">
</g>
<g id="Household_Mixer">
</g>
<g id="Stand_Mixer">
</g>
<g id="Hand_Blender">
</g>
<g id="Blender">
</g>
<g id="Cooker_Hood">
</g>
<g id="Refrigerator">
</g>
<g id="Freezer">
</g>
<g id="Apron">
</g>
<g id="Oven_Gloves">
</g>
<g id="Rolling_Pin">
</g>
<g id="Sieve">
</g>
<g id="Tea_Sieve">
</g>
<g id="Grater">
</g>
<g id="Knife_Holder">
</g>
<g id="Funnel">
</g>
<g id="Kitchen_Clock">
</g>
<g id="Lemon_Juicer">
</g>
<g id="Pastry_Bag_1">
</g>
<g id="Pastry_Bag_2">
</g>
<g id="Corkscrew">
</g>
<g id="Bottle_Opener">
</g>
<g id="Service">
</g>
<g id="Chopsticks">
</g>
<g id="Hatchet">
</g>
<g id="Filleting_Knife">
</g>
<g id="Bread_Knife">
</g>
<g id="Herb_Knife">
</g>
<g id="Whetting">
</g>
<g id="Cake_Knife">
</g>
<g id="Layer_58">
</g>
<g id="Ladle">
</g>
<g id="Sauce_Spoon">
</g>
<g id="Egg_Beater">
</g>
<g id="Meat_Fork">
</g>
<g id="Kitchen_Spoon_1">
</g>
<g id="Kitchen_Spoon_2">
</g>
<g id="Pizza_Cutter">
</g>
<g id="Potato_Musher">
</g>
<g id="Peeler">
</g>
<g id="Honey_Dipper">
</g>
<g id="Fork">
</g>
<g id="Knife">
</g>
<g id="Spoon">
</g>
<g id="Cutlery_Set">
</g>
<g id="Sugar_Bowl">
</g>
<g id="Matches">
</g>
<g id="Cezve">
</g>
</svg>
