<?xml version="1.0" encoding="iso-8859-1"?>
<!-- Generator: Adobe Illustrator 19.2.1, SVG Export Plug-In . SVG Version: 6.00 Build 0)  -->
<svg version="1.1" xmlns="http://www.w3.org/2000/svg" xmlns:xlink="http://www.w3.org/1999/xlink" x="0px" y="0px"
	 viewBox="0 0 30 30" style="enable-background:new 0 0 30 30;" xml:space="preserve">
<g id="Restaurant_sign_1">
</g>
<g id="Restaurant_Sign_2">
</g>
<g id="Restaurant_Sign_3">
</g>
<g id="Hot_Drink_1">
</g>
<g id="Hot_Drink_2">
</g>
<g id="Cocktail">
</g>
<g id="Shot_Glasses">
</g>
<g id="Chilled_Champagne">
</g>
<g id="Wine">
</g>
<g id="Wine_List">
</g>
<g id="Menu">
</g>
<g id="Menu_2">
</g>
<g id="Salver">
</g>
<g id="Soup">
</g>
<g id="Sushi">
</g>
<g id="Pizza">
</g>
<g id="Pizza_Slice">
</g>
<g id="Fish">
</g>
<g id="Sausage">
</g>
<g id="Course">
</g>
<g id="Dessert">
</g>
<g id="Cutlery">
</g>
<g id="Napkin">
</g>
<g id="Table">
</g>
<g id="Spices">
</g>
<g id="Hot_Sauce">
</g>
<g id="Reserved_1">
</g>
<g id="Reserved_2">
</g>
<g id="Open">
</g>
<g id="Food_Photo">
</g>
<g id="Chef">
	<g>
		<g id="XMLID_363_">
			<path d="M20.5,30c-0.276,0-0.5-0.224-0.5-0.5v-8.85c-1.01,0.186-3.112,0.523-5,0.523c-1.838,0-3.977-0.341-5-0.525V29.5
				c0,0.276-0.224,0.5-0.5,0.5S9,29.776,9,29.5v-9.456c0-0.15,0.067-0.293,0.184-0.388c0.116-0.095,0.269-0.135,0.417-0.102
				c0.03,0.006,3.037,0.619,5.399,0.619c2.441,0,5.367-0.613,5.396-0.619c0.147-0.028,0.301,0.006,0.418,0.101S21,19.894,21,20.044
				V29.5C21,29.776,20.776,30,20.5,30z"/>
		</g>
		<g id="XMLID_362_">
			<circle cx="12.5" cy="23.5" r="0.5"/>
		</g>
		<g id="XMLID_360_">
			<circle cx="12.5" cy="25.5" r="0.5"/>
		</g>
		<g id="XMLID_358_">
			<circle cx="12.5" cy="27.5" r="0.5"/>
		</g>
		<g id="XMLID_20_">
			<circle cx="17.5" cy="23.5" r="0.5"/>
		</g>
		<g id="XMLID_19_">
			<circle cx="17.5" cy="25.5" r="0.5"/>
		</g>
		<g id="XMLID_18_">
			<circle cx="17.5" cy="27.5" r="0.5"/>
		</g>
		<g>
			<path d="M7.5,30C7.224,30,7,29.776,7,29.5V19.41c0-0.999,1.682-1.868,5-2.586V15.47c0-0.276,0.224-0.5,0.5-0.5s0.5,0.224,0.5,0.5
				v1.761c0,0.237-0.167,0.442-0.4,0.49c-2.984,0.61-4.51,1.376-4.601,1.701L8,29.5C8,29.776,7.776,30,7.5,30z"/>
		</g>
		<g>
			<path d="M22.5,30c-0.276,0-0.5-0.224-0.5-0.5V19.41l0,0c-0.002,0-0.277-0.74-4.607-1.691C17.164,17.668,17,17.465,17,17.23V15.47
				c0-0.276,0.224-0.5,0.5-0.5s0.5,0.224,0.5,0.5v1.36c4.421,1.014,5,1.909,5,2.58V29.5C23,29.776,22.776,30,22.5,30z"/>
		</g>
		<g id="XMLID_354_">
			<path d="M15,17.392c-1.831,0-4.283-2.429-4.283-4.913c0-1.491,0.676-2.792,1.854-3.569c0.231-0.154,0.541-0.089,0.693,0.142
				c0.152,0.23,0.088,0.541-0.142,0.692c-0.893,0.589-1.405,1.586-1.405,2.735c0,1.979,2.077,3.913,3.283,3.913
				s3.283-1.934,3.283-3.913c0-1.149-0.512-2.146-1.405-2.735c-0.23-0.151-0.294-0.462-0.142-0.692s0.462-0.296,0.693-0.142
				c1.178,0.777,1.854,2.078,1.854,3.569C19.283,14.963,16.831,17.392,15,17.392z"/>
		</g>
		<g id="XMLID_353_">
			<path d="M17.5,6c-0.246,0-0.492-0.03-0.731-0.09c-0.268-0.067-0.431-0.339-0.364-0.606c0.066-0.269,0.336-0.431,0.606-0.364
				C17.171,4.979,17.336,5,17.5,5c1.103,0,2-0.897,2-2s-0.897-2-2-2s-2,0.897-2,2c0,0.276-0.224,0.5-0.5,0.5S14.5,3.276,14.5,3
				c0-1.103-0.897-2-2-2s-2,0.897-2,2s0.897,2,2,2c0.171,0,0.341-0.021,0.506-0.064c0.265-0.073,0.54,0.089,0.61,0.357
				c0.07,0.267-0.09,0.54-0.358,0.609C13.011,5.967,12.756,6,12.5,6c-1.654,0-3-1.346-3-3s1.346-3,3-3
				c1.042,0,1.962,0.534,2.5,1.344C15.538,0.534,16.458,0,17.5,0c1.654,0,3,1.346,3,3S19.154,6,17.5,6z"/>
		</g>
		<g id="XMLID_352_">
			<path d="M15,10.026c-1.289,0-2.528-0.198-2.58-0.207C12.178,9.78,12,9.571,12,9.326V6c0-0.276,0.224-0.5,0.5-0.5S13,5.724,13,6
				v2.891c0.458,0.058,1.228,0.136,2,0.136c0.765,0,1.54-0.079,2-0.136V6c0-0.276,0.224-0.5,0.5-0.5S18,5.724,18,6v3.326
				c0,0.246-0.178,0.455-0.421,0.494C17.526,9.828,16.273,10.026,15,10.026z"/>
		</g>
		<g id="XMLID_351_">
			<path d="M16.261,14.869c-0.495,0-0.956-0.258-1.258-0.478c-0.301,0.221-0.759,0.478-1.263,0.478c-0.276,0-0.5-0.224-0.5-0.5
				s0.224-0.5,0.5-0.5c0.361,0,0.804-0.378,0.903-0.479c0.094-0.096,0.228-0.158,0.358-0.149c0.131,0,0.258,0.052,0.352,0.145
				c0.127,0.125,0.567,0.484,0.908,0.484c0.276,0,0.5,0.224,0.5,0.5S16.537,14.869,16.261,14.869z"/>
		</g>
	</g>
</g>
<g id="Bill">
</g>
<g id="Bill_2">
</g>
<g id="Paying_1">
</g>
<g id="Paying_2">
</g>
<g id="Restaurant_Place">
</g>
</svg>
