<?xml version="1.0" encoding="iso-8859-1"?>
<!-- Generator: Adobe Illustrator 19.2.1, SVG Export Plug-In . SVG Version: 6.00 Build 0)  -->
<svg version="1.1" xmlns="http://www.w3.org/2000/svg" xmlns:xlink="http://www.w3.org/1999/xlink" x="0px" y="0px"
	 viewBox="0 0 24 24" style="enable-background:new 0 0 24 24;" xml:space="preserve">
<g id="Cutting_Board_1">
</g>
<g id="Cutting_Board_2">
</g>
<g id="Chef_x27_s_Hat_1">
</g>
<g id="Chef_x27_s_Hat_2">
	<path d="M17.5,2c-1.582,0-4.013,0.49-5.78,1.033c1.147,0.718,2.179,1.581,2.943,2.521c0.174,0.214,0.142,0.529-0.072,0.703
		c-0.093,0.076-0.204,0.112-0.315,0.112c-0.146,0-0.29-0.063-0.388-0.185c-0.899-1.106-2.198-2.089-3.607-2.83
		C10.048,3.232,9.81,3.12,9.572,3.011c-0.165-0.075-0.33-0.152-0.496-0.219c-0.248-0.1-0.496-0.185-0.745-0.268
		C8.171,2.471,8.011,2.412,7.853,2.367C7.581,2.29,7.314,2.235,7.047,2.181C6.915,2.155,6.78,2.117,6.649,2.097
		C6.255,2.036,5.869,2,5.5,2C2.841,2,0,3.445,0,7.5C0,10.741,2.898,13,5.5,13c0.176,0,0.336-0.008,0.5-0.015v6.894V21.5
		c0,0.205,0.125,0.39,0.316,0.465C6.423,22.007,8.971,23,12,23c3.061,0,5.58-0.994,5.686-1.036C17.875,21.888,18,21.705,18,21.5
		v-1.619V13.85c0.476,0.094,0.976,0.15,1.5,0.15c2.779,0,4.5-3.374,4.5-6.5C24,4.103,20.626,2,17.5,2z M17,21.149
		C16.254,21.404,14.268,22,12,22c-2.239,0-4.246-0.597-5-0.852v-0.655c0.026,0.005,0.058,0.01,0.085,0.015
		c0.269,0.052,0.558,0.103,0.864,0.152c0.053,0.008,0.101,0.017,0.154,0.025c0.327,0.051,0.675,0.097,1.035,0.139
		c0.077,0.009,0.153,0.018,0.231,0.026c0.369,0.04,0.749,0.074,1.142,0.099c0.067,0.004,0.135,0.007,0.203,0.011
		C11.134,20.984,11.562,21,12,21c0.443,0,0.873-0.016,1.295-0.04c0.067-0.004,0.135-0.006,0.201-0.011
		c0.397-0.025,0.78-0.059,1.151-0.099c0.074-0.008,0.145-0.016,0.218-0.025c0.365-0.043,0.718-0.089,1.049-0.141
		c0.042-0.007,0.079-0.013,0.121-0.02c0.316-0.051,0.614-0.103,0.891-0.157c0.023-0.005,0.052-0.009,0.075-0.013V21.149z M17.5,11
		c-1.393,0-2.147,0.277-2.876,0.546C13.988,11.779,13.388,12,12.5,12c-0.855,0-1.643-0.372-2.555-0.802
		C8.756,10.636,7.409,10,5.5,10C5.224,10,5,9.776,5,9.5S5.224,9,5.5,9c2.133,0,3.651,0.717,4.872,1.293
		C11.175,10.672,11.869,11,12.5,11c0.71,0,1.182-0.173,1.778-0.393C15.052,10.323,15.93,10,17.5,10c0.276,0,0.5,0.224,0.5,0.5
		S17.776,11,17.5,11z"/>
</g>
<g id="Kitchen_Scale">
</g>
<g id="Measuring_Cup">
</g>
<g id="Pot_1">
</g>
<g id="Pot_2">
</g>
<g id="Wok_1">
</g>
<g id="Wok_2">
</g>
<g id="Teapot">
</g>
<g id="Plate">
</g>
<g id="Sauce_Boat">
</g>
<g id="Cauldron">
</g>
<g id="Cookbook">
</g>
<g id="Salt_Pot">
</g>
<g id="Pepper_Pot_1">
</g>
<g id="Pepper_Pot_2">
</g>
<g id="Egg_Timer">
</g>
<g id="Olive_Oil_Pot">
</g>
<g id="Pancake_Griddle">
</g>
<g id="Pan">
</g>
<g id="Kettle">
</g>
<g id="Microwave">
</g>
<g id="Cooker">
</g>
<g id="Meat_Grinder">
</g>
<g id="Coffee_Maker">
</g>
<g id="Household_Mixer">
</g>
<g id="Stand_Mixer">
</g>
<g id="Hand_Blender">
</g>
<g id="Blender">
</g>
<g id="Cooker_Hood">
</g>
<g id="Refrigerator">
</g>
<g id="Freezer">
</g>
<g id="Apron">
</g>
<g id="Oven_Gloves">
</g>
<g id="Rolling_Pin">
</g>
<g id="Sieve">
</g>
<g id="Tea_Sieve">
</g>
<g id="Grater">
</g>
<g id="Knife_Holder">
</g>
<g id="Funnel">
</g>
<g id="Kitchen_Clock">
</g>
<g id="Lemon_Juicer">
</g>
<g id="Pastry_Bag_1">
</g>
<g id="Pastry_Bag_2">
</g>
<g id="Corkscrew">
</g>
<g id="Bottle_Opener">
</g>
<g id="Service">
</g>
<g id="Chopsticks">
</g>
<g id="Hatchet">
</g>
<g id="Filleting_Knife">
</g>
<g id="Bread_Knife">
</g>
<g id="Herb_Knife">
</g>
<g id="Whetting">
</g>
<g id="Cake_Knife">
</g>
<g id="Layer_58">
</g>
<g id="Ladle">
</g>
<g id="Sauce_Spoon">
</g>
<g id="Egg_Beater">
</g>
<g id="Meat_Fork">
</g>
<g id="Kitchen_Spoon_1">
</g>
<g id="Kitchen_Spoon_2">
</g>
<g id="Pizza_Cutter">
</g>
<g id="Potato_Musher">
</g>
<g id="Peeler">
</g>
<g id="Honey_Dipper">
</g>
<g id="Fork">
</g>
<g id="Knife">
</g>
<g id="Spoon">
</g>
<g id="Cutlery_Set">
</g>
<g id="Sugar_Bowl">
</g>
<g id="Matches">
</g>
<g id="Cezve">
</g>
</svg>
