<?xml version="1.0" encoding="iso-8859-1"?>
<!-- Generator: Adobe Illustrator 19.2.1, SVG Export Plug-In . SVG Version: 6.00 Build 0)  -->
<svg version="1.1" xmlns="http://www.w3.org/2000/svg" xmlns:xlink="http://www.w3.org/1999/xlink" x="0px" y="0px"
	 viewBox="0 0 30 30" style="enable-background:new 0 0 30 30;" xml:space="preserve">
<g id="Egg">
</g>
<g id="Easter_Egg_1">
</g>
<g id="Easter_Egg_2">
</g>
<g id="Easter_Egg_3_1_">
</g>
<g id="Eggs_1_1_">
</g>
<g id="Eggs_2">
</g>
<g id="Bunny_1_">
</g>
<g id="Sheep_1_">
</g>
<g id="Bell_Alarm">
</g>
<g id="Calendar">
</g>
<g id="Tulip">
</g>
<g id="Chicken">
</g>
<g id="Chicken_2_1_">
</g>
<g id="Baguette_1_">
</g>
<g id="Ham_1_">
</g>
<g id="Bell_2">
</g>
<g id="Bell_3">
</g>
<g id="Bell_4">
</g>
<g id="Easter_celebration">
</g>
<g id="Egg_painting">
</g>
<g id="Easter_willow">
</g>
<g id="Daffodil">
</g>
<g id="Easter_message">
</g>
<g id="Bunny_2">
</g>
<g id="Chicken_3">
	<g id="Easter_Egg_3_2_">
		<g>
			<path d="M15,30C8.467,30,3.152,24.686,3.152,18.152C3.152,11.938,8.155,0,15,0s11.848,11.938,11.848,18.152
				C26.848,24.686,21.533,30,15,30z M15,1C9.063,1,4.152,12.356,4.152,18.152C4.152,24.134,9.019,29,15,29
				s10.848-4.866,10.848-10.848C25.848,12.356,20.937,1,15,1z"/>
		</g>
		<g>
			<path d="M8.696,18.652c-0.085,0-0.17-0.021-0.247-0.065c-0.196-0.111-0.293-0.34-0.237-0.558l1.205-4.738L7.021,9.782
				C6.917,9.629,6.906,9.431,6.993,9.267C7.079,9.103,7.249,9,7.435,9h3.53l3.633-4.928c0.115-0.155,0.307-0.233,0.499-0.193
				c0.189,0.037,0.341,0.181,0.388,0.368l1.107,4.393l1.964-0.998c0.129-0.066,0.282-0.072,0.416-0.018
				c0.135,0.056,0.239,0.166,0.285,0.305l1.078,3.224l2.006-1.007c0.18-0.09,0.398-0.063,0.551,0.069
				c0.153,0.133,0.211,0.344,0.147,0.536l-1.195,3.583l1.168,2.335c0.09,0.181,0.063,0.398-0.069,0.551
				c-0.132,0.154-0.344,0.211-0.536,0.147l-3.551-1.185l-3.579,2.386c-0.168,0.111-0.387,0.111-0.555,0l-3.441-2.294l-2.232,2.231
				C8.953,18.603,8.825,18.652,8.696,18.652z M11.217,15.131c0.096,0,0.193,0.027,0.277,0.084L15,17.552l3.505-2.337
				c0.129-0.086,0.29-0.105,0.436-0.059l2.637,0.88l-0.721-1.44c-0.059-0.118-0.069-0.256-0.027-0.382l0.878-2.632l-1.44,0.724
				c-0.129,0.065-0.281,0.069-0.415,0.015c-0.134-0.055-0.237-0.166-0.283-0.304l-1.077-3.221l-2.005,1.019
				c-0.136,0.068-0.295,0.073-0.434,0.01c-0.138-0.063-0.241-0.186-0.278-0.333l-1.002-3.973L11.62,9.797
				C11.525,9.925,11.376,10,11.217,10H8.381l1.988,2.913c0.081,0.119,0.107,0.267,0.071,0.405l-0.812,3.193l1.235-1.234
				C10.96,15.181,11.088,15.131,11.217,15.131z"/>
		</g>
		<g>
			<circle cx="17.522" cy="11.848" r="0.63"/>
		</g>
		<g>
			<circle cx="12.478" cy="11.848" r="0.63"/>
		</g>
		<g>
			<path d="M15,14.869c-0.128,0-0.256-0.049-0.354-0.146l-1.261-1.261c-0.195-0.195-0.195-0.512,0-0.707s0.512-0.195,0.707,0
				L15,13.662l0.907-0.907c0.195-0.195,0.512-0.195,0.707,0s0.195,0.512,0,0.707l-1.261,1.261C15.256,14.82,15.128,14.869,15,14.869
				z"/>
		</g>
	</g>
</g>
<g id="Tulip_2">
</g>
<g id="Easter_basket">
</g>
<g id="Bread_and_wine">
</g>
<g id="Sheep_2">
</g>
<g id="Candle_Light">
</g>
</svg>
