<?xml version="1.0" encoding="iso-8859-1"?>
<!-- Generator: Adobe Illustrator 19.2.1, SVG Export Plug-In . SVG Version: 6.00 Build 0)  -->
<svg version="1.1" xmlns="http://www.w3.org/2000/svg" xmlns:xlink="http://www.w3.org/1999/xlink" x="0px" y="0px"
	 viewBox="0 0 24 24" style="enable-background:new 0 0 24 24;" xml:space="preserve">
<g id="Egg_1_">
</g>
<g id="Easter_Egg_1">
</g>
<g id="Easter_Egg_2">
</g>
<g id="Easter_Egg_3">
</g>
<g id="Eggs_1">
</g>
<g id="Eggs_2_1_">
</g>
<g id="Bunny">
</g>
<g id="Sheep">
</g>
<g id="Bell_Alarm">
</g>
<g id="Calendar">
</g>
<g id="Tulip">
</g>
<g id="Chicken">
</g>
<g id="Chicken_2">
	<g>
		<path d="M19.263,14.196c-0.036-0.169-0.157-0.308-0.32-0.367c-0.163-0.058-0.344-0.029-0.48,0.078l-2.424,1.921l-1.685-1.685
			c-0.195-0.195-0.512-0.195-0.707,0L12,15.79l-1.646-1.646c-0.195-0.195-0.512-0.195-0.707,0l-1.68,1.68l-2.376-1.94
			c-0.091-0.075-0.239-0.121-0.363-0.112c-0.233,0.003-0.434,0.167-0.483,0.395C4.582,14.918,4.5,15.702,4.5,16.497
			c0,4.136,3.364,7.5,7.5,7.5s7.5-3.364,7.5-7.5C19.5,15.714,19.42,14.939,19.263,14.196z"/>
		<path d="M7,4.997h1.64l0.386,1.158C9.094,6.359,9.285,6.497,9.5,6.497h2.75l1.35,1.8c0.121,0.161,0.328,0.234,0.521,0.185
			l1.658-0.415l0.805,1.207c0.093,0.14,0.25,0.223,0.416,0.223c0.014,0,0.027,0,0.041-0.001c0.181-0.015,0.34-0.127,0.415-0.292
			c1.396-3.086,0.939-7.177-2.242-8.682c-1.362-0.644-2.957-0.689-4.487-0.127C8.91,1.061,7.347,2.518,6.544,4.291
			C6.475,4.446,6.488,4.625,6.58,4.768C6.672,4.911,6.83,4.997,7,4.997z"/>
		<path d="M6.842,13.615l1.056,0.863l1.041-1.041C9.223,13.153,9.6,12.997,10,12.997s0.777,0.156,1.061,0.439L12,14.376l0.939-0.939
			c0.283-0.283,0.66-0.439,1.061-0.439s0.777,0.156,1.061,0.439l1.055,1.055l1.055-0.836c-0.407-1.137-1.176-2.125-2.211-2.786
			c0.333-0.289,0.598-0.632,0.83-0.996c-0.011-0.016-0.027-0.027-0.038-0.044l-0.414-0.621l-0.975,0.244
			C14.248,9.481,14.124,9.497,14,9.497c-0.469,0-0.917-0.224-1.199-0.6l-1.051-1.4H9.5c-0.647,0-1.219-0.413-1.423-1.026
			L7.919,5.997H7.776C7.608,6.469,7.5,6.969,7.5,7.497c0,1.315,0.563,2.526,1.54,3.372C8.017,11.523,7.254,12.495,6.842,13.615z
			 M11.354,10.144L12,10.79l0.646-0.646c0.195-0.195,0.512-0.195,0.707,0s0.195,0.512,0,0.707l-1,1
			c-0.098,0.098-0.226,0.146-0.354,0.146s-0.256-0.049-0.354-0.146l-1-1c-0.195-0.195-0.195-0.512,0-0.707
			S11.158,9.948,11.354,10.144z M10,7.997c0.276,0,0.5,0.224,0.5,0.5c0,0.276-0.224,0.5-0.5,0.5s-0.5-0.224-0.5-0.5
			C9.5,8.221,9.724,7.997,10,7.997z"/>
	</g>
</g>
<g id="Baguette">
</g>
<g id="Ham_1_">
</g>
<g id="Bell_2">
</g>
<g id="Bell_3">
</g>
<g id="Bell_4">
</g>
<g id="Easter_celebration">
</g>
<g id="Egg_painting">
</g>
<g id="Easter_willow">
</g>
<g id="Daffodil">
</g>
<g id="Easter_message">
</g>
<g id="Bunny_2">
</g>
<g id="Chicken_3">
</g>
<g id="Tulip_2">
</g>
<g id="Easter_basket">
</g>
<g id="Bread_and_wine">
</g>
<g id="Sheep_2">
</g>
<g id="Candle_Light">
</g>
</svg>
