<?xml version="1.0" encoding="iso-8859-1"?>
<!-- Generator: Adobe Illustrator 19.2.1, SVG Export Plug-In . SVG Version: 6.00 Build 0)  -->
<svg version="1.1" xmlns="http://www.w3.org/2000/svg" xmlns:xlink="http://www.w3.org/1999/xlink" x="0px" y="0px"
	 viewBox="0 0 30 30" style="enable-background:new 0 0 30 30;" xml:space="preserve">
<g id="Restaurant_sign_1">
</g>
<g id="Restaurant_Sign_2">
</g>
<g id="Restaurant_Sign_3">
</g>
<g id="Hot_Drink_1">
</g>
<g id="Hot_Drink_2">
</g>
<g id="Cocktail">
</g>
<g id="Shot_Glasses">
</g>
<g id="Chilled_Champagne">
	<g>
		<path d="M8.096,25h13.807c0.023-0.338,0.05-0.67,0.078-1H8.018C8.046,24.33,8.073,24.662,8.096,25z"/>
		<path d="M8.237,28.087C8.256,28.992,8.978,30,9.985,30h10.031c1.007,0,1.729-1.008,1.747-1.913
			c0.014-0.711,0.045-1.404,0.081-2.087H8.156C8.193,26.683,8.223,27.376,8.237,28.087z"/>
		<path d="M25.5,11h-21C4.224,11,4,11.224,4,11.5S4.224,12,4.5,12h1.379c0.35,1.196,1.483,5.387,2.046,11h14.15
			c0.563-5.621,1.697-9.806,2.046-11H25.5c0.276,0,0.5-0.224,0.5-0.5S25.776,11,25.5,11z"/>
		<path d="M6.511,5.449C7.363,7.196,7.75,8.649,8.004,10h7.003c-0.367-0.427-0.745-0.835-1.136-1.253
			c-1.246-1.335-2.535-2.715-3.691-5.096L8.819,0.86c-0.183-0.373-0.5-0.65-0.894-0.781c-0.388-0.131-0.801-0.1-1.155,0.082
			L5.846,0.613C5.102,0.985,4.793,1.906,5.16,2.668L6.511,5.449z"/>
	</g>
</g>
<g id="Wine">
</g>
<g id="Wine_List">
</g>
<g id="Menu">
</g>
<g id="Menu_2">
</g>
<g id="Salver">
</g>
<g id="Soup">
</g>
<g id="Sushi">
</g>
<g id="Pizza">
</g>
<g id="Pizza_Slice">
</g>
<g id="Fish">
</g>
<g id="Sausage">
</g>
<g id="Course">
</g>
<g id="Dessert">
</g>
<g id="Cutlery">
</g>
<g id="Napkin">
</g>
<g id="Table">
</g>
<g id="Spices">
</g>
<g id="Hot_Sauce">
</g>
<g id="Reserved_1">
</g>
<g id="Reserved_2">
</g>
<g id="Open">
</g>
<g id="Food_Photo">
</g>
<g id="Chef">
</g>
<g id="Bill">
</g>
<g id="Bill_2">
</g>
<g id="Paying_1">
</g>
<g id="Paying_2">
</g>
<g id="Restaurant_Place">
</g>
</svg>
