<?xml version="1.0" encoding="iso-8859-1"?>
<!-- Generator: Adobe Illustrator 19.2.1, SVG Export Plug-In . SVG Version: 6.00 Build 0)  -->
<svg version="1.1" xmlns="http://www.w3.org/2000/svg" xmlns:xlink="http://www.w3.org/1999/xlink" x="0px" y="0px"
	 viewBox="0 0 30 30" style="enable-background:new 0 0 30 30;" xml:space="preserve">
<g id="Engagement_1">
</g>
<g id="Engagement_2">
</g>
<g id="Wedding_Ring">
</g>
<g id="Church">
	<g>
		<path d="M29.791,21.527L21,15.249v-2.314l0.599,0.544c0.096,0.087,0.216,0.13,0.336,0.13c0.136,0,0.271-0.055,0.37-0.164
			c0.186-0.205,0.171-0.521-0.034-0.707l-6.934-6.305c-0.19-0.173-0.482-0.173-0.673,0l-6.935,6.305
			c-0.204,0.186-0.219,0.502-0.034,0.707c0.186,0.205,0.503,0.219,0.707,0.034L9,12.935v2.314l-8.791,6.278
			C-0.015,21.688-0.067,22,0.093,22.226c0.098,0.137,0.251,0.209,0.407,0.209c0.101,0,0.202-0.03,0.29-0.093L1,22.192V29.5
			C1,29.776,1.224,30,1.5,30h8H11v-7.435c0-1.945,1.829-3.652,3.913-3.652h0.261c2.074,0,3.826,1.673,3.826,3.652V30h1.5h8
			c0.276,0,0.5-0.224,0.5-0.5v-7.307l0.209,0.149c0.089,0.063,0.19,0.093,0.291,0.093c0.155,0,0.31-0.073,0.407-0.209
			C30.067,22,30.016,21.688,29.791,21.527z M7,26.5C7,26.776,6.776,27,6.5,27h-2C4.224,27,4,26.776,4,26.5v-3.305
			c0-0.881,0.468-1.536,1.178-1.713c0.064-0.03,0.137-0.048,0.213-0.048h0.185c0.077,0,0.149,0.018,0.214,0.048
			C6.51,21.662,7,22.327,7,23.195V26.5z M15,14c-0.827,0-1.5-0.673-1.5-1.5S14.173,11,15,11s1.5,0.673,1.5,1.5S15.827,14,15,14z
			 M26,26.5c0,0.276-0.224,0.5-0.5,0.5h-2c-0.276,0-0.5-0.224-0.5-0.5v-3.305c0-0.855,0.436-1.499,1.103-1.697
			c0.073-0.04,0.156-0.063,0.245-0.063h0.207c0.085,0,0.165,0.021,0.235,0.059c0.714,0.196,1.21,0.863,1.21,1.702V26.5z"/>
		<path d="M12.896,3.077l-0.691,1.169c-0.091,0.155-0.093,0.346-0.003,0.502C12.291,4.904,12.456,5,12.636,5h1.462l0.478,0.765
			C14.667,5.911,14.828,6,15,6s0.333-0.089,0.424-0.235L15.902,5h1.462c0.18,0,0.346-0.096,0.435-0.252
			c0.089-0.156,0.087-0.347-0.004-0.502l-0.691-1.169l0.82-1.312c0.097-0.154,0.102-0.349,0.014-0.507C17.85,1.099,17.682,1,17.5,1
			h-1.623l-0.446-0.754c-0.181-0.305-0.681-0.305-0.861,0L14.123,1H12.5c-0.182,0-0.349,0.099-0.438,0.258
			c-0.088,0.159-0.083,0.353,0.014,0.507L12.896,3.077z M14.694,2h0.612l0.628,1.062L15.348,4h-0.696l-0.586-0.938L14.694,2z"/>
	</g>
</g>
<g id="Church_Bells">
</g>
<g id="Wedding_Altar_1">
</g>
<g id="Wedding_Altar_2">
</g>
<g id="Bow-Tie">
</g>
<g id="Wedding_Tiara">
</g>
<g id="Wedding_Bouquet">
</g>
<g id="Wedding_Decoration_1">
</g>
<g id="Wedding_Decoration_2">
</g>
<g id="Wedding_Way_Sign">
</g>
<g id="Wedding_Date">
</g>
<g id="Wedding_Invitation">
</g>
<g id="Wedding_Invitation_2">
</g>
<g id="Bride">
</g>
<g id="Groom">
</g>
<g id="Mariage_Couple">
</g>
<g id="Wedding_Planner_Book">
</g>
<g id="Wedding_Cake_1">
</g>
<g id="Wedding_Cake_2">
</g>
<g id="Wedding_Cake_3">
</g>
<g id="Cake_Slice">
</g>
<g id="Marriage_Settlement">
</g>
<g id="Glass_Decoration">
</g>
<g id="Cutlery_Decoration">
</g>
<g id="Celebration_Glasses">
</g>
<g id="Wedding_Photo">
</g>
<g id="Wedding_Present_1">
</g>
<g id="Wedding_Present_2">
</g>
<g id="Wedding_Bouquet_2">
</g>
<g id="Hands_with_rings">
</g>
<g id="Wedding_Car">
</g>
<g id="Wedding_music">
</g>
<g id="wedding_party">
</g>
<g id="Confetti_1">
</g>
<g id="Confetti_2">
</g>
</svg>
