<?xml version="1.0" encoding="iso-8859-1"?>
<!-- Generator: Adobe Illustrator 19.2.1, SVG Export Plug-In . SVG Version: 6.00 Build 0)  -->
<svg version="1.1" xmlns="http://www.w3.org/2000/svg" xmlns:xlink="http://www.w3.org/1999/xlink" x="0px" y="0px"
	 viewBox="0 0 30 30" style="enable-background:new 0 0 30 30;" xml:space="preserve">
<g id="Engagement_1">
</g>
<g id="Engagement_2">
</g>
<g id="Wedding_Ring">
</g>
<g id="Church">
</g>
<g id="Church_Bells">
	<g>
		<ellipse cx="15.003" cy="8.694" rx="2.392" ry="3.022"/>
		<path d="M6.306,11.216c0,1.456,0.984,3.022,3.145,3.022c1.748,0,3.227-0.842,4.249-1.833c-1.225-0.607-2.088-2.041-2.088-3.711
			s0.863-3.104,2.088-3.711c-1.022-0.991-2.501-1.833-4.249-1.833c-2.161,0-3.145,1.566-3.145,3.022
			c0,0.802,0.267,1.445,0.461,1.915c0.099,0.238,0.2,0.483,0.2,0.608s-0.102,0.37-0.2,0.608C6.572,9.771,6.306,10.414,6.306,11.216z
			"/>
		<path d="M18.395,8.694c0,1.67-0.863,3.104-2.088,3.711c1.023,0.991,2.501,1.833,4.249,1.833c2.16,0,3.145-1.567,3.145-3.022
			c0-0.802-0.267-1.445-0.461-1.914c-0.099-0.238-0.2-0.483-0.2-0.608s0.102-0.37,0.2-0.608C23.434,7.617,23.7,6.974,23.7,6.171
			c0-1.456-0.984-3.022-3.145-3.022c-1.748,0-3.227,0.842-4.249,1.833C17.531,5.59,18.395,7.024,18.395,8.694z"/>
		<path d="M29.957,14.799c-0.061-0.137-0.18-0.239-0.324-0.279l-2.836-0.784c-0.836-0.231-1.625-0.617-2.344-1.112
			c-0.513,1.441-1.827,2.613-3.897,2.613c-1.781,0-3.537-0.751-4.945-2.115l-0.608-0.59l-0.607,0.589
			c-0.879,0.853-1.896,1.466-2.969,1.806c0.198,1.354,0.828,2.648,1.841,3.661l1.585,1.585c0.969,0.97,1.672,2.171,2.033,3.474
			l0.783,2.835c0.04,0.145,0.143,0.264,0.279,0.324c0.064,0.028,0.134,0.043,0.203,0.043c0.077,0,0.154-0.018,0.225-0.053
			c0.105-0.054,2.643-1.349,6.432-5.138c3.79-3.79,5.086-6.327,5.14-6.433C30.014,15.093,30.018,14.937,29.957,14.799z"/>
		<path d="M12.561,19.297c-1.121-1.121-1.864-2.594-2.108-4.152c-0.332,0.055-0.666,0.094-1.003,0.094
			c-2.171,0-3.501-1.292-3.956-2.829c-0.706,0.478-1.476,0.852-2.292,1.078l-2.835,0.784c-0.144,0.04-0.263,0.142-0.324,0.279
			c-0.061,0.137-0.057,0.294,0.01,0.427c0.053,0.106,1.348,2.643,5.138,6.432c3.79,3.79,6.327,5.086,6.433,5.14
			c0.071,0.035,0.147,0.053,0.225,0.053c0.069,0,0.138-0.015,0.203-0.043c0.137-0.061,0.239-0.18,0.279-0.324l0.784-2.835
			c0.236-0.855,0.633-1.659,1.144-2.389c-0.039-0.041-0.072-0.087-0.112-0.128L12.561,19.297z"/>
		<path d="M2.724,20.254c-0.125,0.333-0.201,0.684-0.201,1.051c0,1.667,1.355,3.022,3.022,3.022c0.375,0,0.734-0.078,1.073-0.208
			c-0.657-0.578-1.37-1.239-2.134-2.004C3.825,21.456,3.244,20.836,2.724,20.254z"/>
		<path d="M25.515,22.367c-0.691,0.691-1.325,1.276-1.93,1.814c0.282,0.087,0.574,0.146,0.878,0.146
			c1.666,0,3.021-1.355,3.021-3.022c0-0.301-0.059-0.59-0.144-0.869C26.805,21.036,26.201,21.681,25.515,22.367z"/>
	</g>
</g>
<g id="Wedding_Altar_1">
</g>
<g id="Wedding_Altar_2">
</g>
<g id="Bow-Tie">
</g>
<g id="Wedding_Tiara">
</g>
<g id="Wedding_Bouquet">
</g>
<g id="Wedding_Decoration_1">
</g>
<g id="Wedding_Decoration_2">
</g>
<g id="Wedding_Way_Sign">
</g>
<g id="Wedding_Date">
</g>
<g id="Wedding_Invitation">
</g>
<g id="Wedding_Invitation_2">
</g>
<g id="Bride">
</g>
<g id="Groom">
</g>
<g id="Mariage_Couple">
</g>
<g id="Wedding_Planner_Book">
</g>
<g id="Wedding_Cake_1">
</g>
<g id="Wedding_Cake_2">
</g>
<g id="Wedding_Cake_3">
</g>
<g id="Cake_Slice">
</g>
<g id="Marriage_Settlement">
</g>
<g id="Glass_Decoration">
</g>
<g id="Cutlery_Decoration">
</g>
<g id="Celebration_Glasses">
</g>
<g id="Wedding_Photo">
</g>
<g id="Wedding_Present_1">
</g>
<g id="Wedding_Present_2">
</g>
<g id="Wedding_Bouquet_2">
</g>
<g id="Hands_with_rings">
</g>
<g id="Wedding_Car">
</g>
<g id="Wedding_music">
</g>
<g id="wedding_party">
</g>
<g id="Confetti_1">
</g>
<g id="Confetti_2">
</g>
</svg>
