<?xml version="1.0" encoding="iso-8859-1"?>
<!-- Generator: Adobe Illustrator 19.2.1, SVG Export Plug-In . SVG Version: 6.00 Build 0)  -->
<svg version="1.1" xmlns="http://www.w3.org/2000/svg" xmlns:xlink="http://www.w3.org/1999/xlink" x="0px" y="0px"
	 viewBox="0 0 24 24" style="enable-background:new 0 0 24 24;" xml:space="preserve">
<g id="Engagement_1">
</g>
<g id="Engagement_2">
</g>
<g id="Wedding_Ring">
</g>
<g id="Church">
	<g>
		<path d="M23.791,17.082L17,12.232V10.71l0.164,0.149c0.096,0.087,0.216,0.13,0.336,0.13c0.136,0,0.271-0.055,0.37-0.164
			c0.186-0.205,0.17-0.521-0.034-0.707l-0.875-0.795c-0.032-0.088-0.079-0.17-0.155-0.229l-0.675-0.525l-3.795-3.45
			c-0.19-0.173-0.482-0.173-0.673,0l-5.5,5c-0.204,0.186-0.219,0.502-0.034,0.707c0.186,0.205,0.503,0.219,0.707,0.034L7,10.71
			v1.521l-6.791,4.85c-0.225,0.16-0.277,0.473-0.116,0.697c0.098,0.137,0.251,0.209,0.407,0.209c0.101,0,0.202-0.03,0.29-0.093
			L1,17.746v5.743c0,0.276,0.224,0.5,0.5,0.5h6H9v-6c0-1.654,1.346-3,3-3s3,1.346,3,3v6h1.5h6c0.276,0,0.5-0.224,0.5-0.5v-5.743
			l0.209,0.15c0.088,0.063,0.189,0.093,0.29,0.093c0.156,0,0.31-0.073,0.407-0.209C24.067,17.555,24.015,17.242,23.791,17.082z
			 M6,21.489c0,0.276-0.224,0.5-0.5,0.5h-2c-0.276,0-0.5-0.224-0.5-0.5v-3c0-0.827,0.673-1.5,1.5-1.5s1.5,0.673,1.5,1.5V21.489z
			 M12,10.989c-0.551,0-1-0.449-1-1s0.449-1,1-1s1,0.449,1,1S12.551,10.989,12,10.989z M21,21.489c0,0.276-0.224,0.5-0.5,0.5h-2
			c-0.276,0-0.5-0.224-0.5-0.5v-3c0-0.827,0.673-1.5,1.5-1.5s1.5,0.673,1.5,1.5V21.489z"/>
		<path d="M10.013,3.553c0.008,0.057,0.024,0.109,0.049,0.16c0.006,0.012,0.005,0.027,0.012,0.039
			c0.005,0.009,0.016,0.012,0.021,0.021c0.035,0.05,0.08,0.092,0.133,0.127c0.013,0.009,0.023,0.021,0.037,0.029
			c0.004,0.002,0.006,0.006,0.01,0.008c0.068,0.034,0.139,0.047,0.21,0.049c0.005,0,0.009,0.004,0.014,0.004h0.691l0.362,0.724
			C11.638,4.882,11.811,4.989,12,4.989s0.362-0.107,0.447-0.276l0.362-0.724H13.5l0,0l0,0c0.075,0,0.151-0.017,0.223-0.053
			c0.004-0.002,0.006-0.006,0.01-0.008c0.014-0.007,0.023-0.02,0.037-0.029c0.053-0.035,0.098-0.077,0.133-0.127
			c0.006-0.008,0.016-0.012,0.021-0.021c0.007-0.012,0.006-0.026,0.012-0.039c0.026-0.051,0.042-0.103,0.049-0.16
			c0.003-0.022,0.008-0.042,0.008-0.064c0-0.076-0.012-0.152-0.048-0.224l-0.388-0.776l0.388-0.776
			c0.078-0.155,0.069-0.339-0.022-0.486S13.673,0.989,13.5,0.989h-0.691l-0.362-0.724c-0.17-0.339-0.725-0.339-0.895,0l-0.362,0.724
			H10.5c-0.173,0-0.334,0.09-0.425,0.237s-0.1,0.332-0.022,0.486l0.388,0.776l-0.388,0.776c-0.036,0.072-0.048,0.148-0.048,0.224
			C10.005,3.511,10.01,3.531,10.013,3.553z M11.809,1.989h0.382l0.25,0.5l-0.25,0.5h-0.382l-0.25-0.5L11.809,1.989z"/>
	</g>
</g>
<g id="Church_Bells">
</g>
<g id="Wedding_Altar_1">
</g>
<g id="Wedding_Altar_2">
</g>
<g id="Bow-Tie">
</g>
<g id="Wedding_Tiara">
</g>
<g id="Wedding_Bouquet">
</g>
<g id="Wedding_Decoration_1">
</g>
<g id="Wedding_Decoration_2">
</g>
<g id="Wedding_Way_Sign">
</g>
<g id="Wedding_Date">
</g>
<g id="Wedding_Invitation">
</g>
<g id="Wedding_Invitation_2">
</g>
<g id="Bride">
</g>
<g id="Groom">
</g>
<g id="Mariage_Couple">
</g>
<g id="Wedding_Planner_Book">
</g>
<g id="Wedding_Cake_1">
</g>
<g id="Wedding_Cake_2">
</g>
<g id="Wedding_Cake_3">
</g>
<g id="Cake_Slice">
</g>
<g id="Marriage_Settlement">
</g>
<g id="Glass_Decoration">
</g>
<g id="Cutlery_Decoration">
</g>
<g id="Celebration_Glasses">
</g>
<g id="Wedding_Photo">
</g>
<g id="Wedding_Present_1">
</g>
<g id="Wedding_Present_2">
</g>
<g id="Wedding_Bouquet_2">
</g>
<g id="Hands_with_rings">
</g>
<g id="Wedding_Car">
</g>
<g id="Wedding_music">
</g>
<g id="wedding_party">
</g>
<g id="Confetti_1">
</g>
<g id="Confetti_2">
</g>
</svg>
