<?xml version="1.0" encoding="iso-8859-1"?>
<!-- Generator: Adobe Illustrator 19.2.1, SVG Export Plug-In . SVG Version: 6.00 Build 0)  -->
<svg version="1.1" xmlns="http://www.w3.org/2000/svg" xmlns:xlink="http://www.w3.org/1999/xlink" x="0px" y="0px"
	 viewBox="0 0 24 24" style="enable-background:new 0 0 24 24;" xml:space="preserve">
<g id="Retro_Bot_1">
</g>
<g id="Retro_Bot_2">
</g>
<g id="Retro_Bot_3">
</g>
<g id="Retro_Bot_4">
</g>
<g id="Wall-E">
</g>
<g id="Eva">
</g>
<g id="Iron_Giant">
</g>
<g id="Marvin">
</g>
<g id="Atlas">
</g>
<g id="Claptrap">
	<g>
		<path d="M13.853,16.146C13.76,16.053,13.633,16,13.5,16h-4c-0.133,0-0.26,0.053-0.354,0.146l-1,1C8.053,17.24,8,17.367,8,17.5v4
			c0,1.378,1.121,2.5,2.5,2.5h2c1.379,0,2.5-1.122,2.5-2.5v-4c0-0.133-0.053-0.26-0.146-0.354L13.853,16.146z M12.5,22h-2
			c-0.276,0-0.5-0.224-0.5-0.5s0.224-0.5,0.5-0.5h2c0.276,0,0.5,0.224,0.5,0.5S12.776,22,12.5,22z M12.5,20h-2
			c-0.276,0-0.5-0.224-0.5-0.5s0.224-0.5,0.5-0.5h2c0.276,0,0.5,0.224,0.5,0.5S12.776,20,12.5,20z"/>
		<path d="M11.5,8C12.327,8,13,7.327,13,6.5S12.327,5,11.5,5S10,5.673,10,6.5S10.673,8,11.5,8z M11.5,6C11.776,6,12,6.224,12,6.5
			C12,6.776,11.776,7,11.5,7S11,6.776,11,6.5C11,6.224,11.224,6,11.5,6z"/>
		<path d="M9.887,13h3.227l2.87-11H14V0.5C14,0.224,13.776,0,13.5,0S13,0.224,13,0.5V2H7.016L9.887,13z M11.5,4
			C12.879,4,14,5.122,14,6.5S12.879,9,11.5,9S9,7.878,9,6.5S10.121,4,11.5,4z"/>
		<path d="M21.968,16.324L19.015,8.45l0.978-5.868c0.024-0.145-0.017-0.293-0.111-0.405C19.786,2.064,19.647,2,19.5,2h-2.509
			c0,0.042,0.004,0.084-0.007,0.126l-3,11.5C13.927,13.846,13.727,14,13.5,14h-4c-0.228,0-0.427-0.154-0.483-0.374l-3-11.5
			C6.005,2.084,6.009,2.042,6.009,2H3.5C3.352,2,3.214,2.064,3.118,2.177c-0.095,0.112-0.136,0.26-0.111,0.405L3.985,8.45
			l-2.953,7.874c-0.049,0.13-0.042,0.275,0.021,0.399l1,2C2.141,18.899,2.317,19,2.5,19c0.075,0,0.151-0.017,0.224-0.053
			c0.247-0.124,0.347-0.424,0.224-0.671l-0.902-1.805l2.268-6.05l1.693,10.161C6.047,20.823,6.256,21,6.5,21H7v-3.5
			c0-0.4,0.156-0.777,0.439-1.061l1-1C8.723,15.156,9.1,15,9.5,15h4c0.4,0,0.777,0.156,1.061,0.439l1,1
			C15.844,16.723,16,17.1,16,17.5V21h0.5c0.244,0,0.453-0.177,0.493-0.418l1.693-10.161l2.268,6.05l-0.902,1.805
			c-0.123,0.247-0.023,0.547,0.224,0.671C20.349,18.983,20.425,19,20.5,19c0.183,0,0.359-0.101,0.447-0.276l1-2
			C22.01,16.599,22.016,16.455,21.968,16.324z"/>
	</g>
</g>
<g id="Android">
</g>
<g id="Bender">
</g>
<g id="Roberto">
</g>
<g id="Robot_Devil">
</g>
<g id="Robocop">
</g>
<g id="ED_209">
</g>
<g id="Optimus_Prime">
</g>
<g id="Robot_1">
</g>
<g id="Robot_2">
</g>
<g id="Robot_3">
</g>
<g id="Robot_Arm_1">
</g>
<g id="Robot_Arm_2">
</g>
<g id="Robot_Arm_3">
</g>
<g id="Robot_Arm_4">
</g>
<g id="Robot_Arm_5">
</g>
<g id="K5_Robot">
</g>
<g id="Robot_Machine_1">
</g>
<g id="Robot_Machine_2">
</g>
<g id="Artifical_Intelligence_1">
</g>
<g id="Artifical_Intelligence_2">
</g>
<g id="Robot_4">
</g>
<g id="Robot_5">
</g>
<g id="Robot_6">
</g>
<g id="Robot_7">
</g>
<g id="Robot_8">
</g>
<g id="Robot_9">
</g>
<g id="Robot_10">
</g>
<g id="Robot_11">
</g>
<g id="Robot_12">
</g>
<g id="Robot_13">
</g>
</svg>
