<?xml version="1.0" encoding="iso-8859-1"?>
<!-- Generator: Adobe Illustrator 19.2.1, SVG Export Plug-In . SVG Version: 6.00 Build 0)  -->
<svg version="1.1" xmlns="http://www.w3.org/2000/svg" xmlns:xlink="http://www.w3.org/1999/xlink" x="0px" y="0px"
	 viewBox="0 0 30 30" style="enable-background:new 0 0 30 30;" xml:space="preserve">
<g id="Retro_Bot_1">
</g>
<g id="Retro_Bot_2">
</g>
<g id="Retro_Bot_3">
</g>
<g id="Retro_Bot_4">
</g>
<g id="Wall-E">
</g>
<g id="Eva">
</g>
<g id="Iron_Giant">
</g>
<g id="Marvin">
</g>
<g id="Atlas">
</g>
<g id="Claptrap">
	<g id="Claptrap_2_">
		<g>
			<path d="M20.5,26h-2c-0.276,0-0.5-0.224-0.5-0.5s0.224-0.5,0.5-0.5h1.579l3.826-22H5.095l3.826,22H10.5
				c0.276,0,0.5,0.224,0.5,0.5S10.776,26,10.5,26h-2c-0.243,0-0.451-0.175-0.492-0.415l-4-23C3.982,2.44,4.022,2.291,4.117,2.178
				S4.353,2,4.5,2h20c0.147,0,0.288,0.065,0.383,0.178s0.135,0.262,0.109,0.407l-4,23C20.951,25.825,20.743,26,20.5,26z"/>
		</g>
		<g>
			<path d="M15.5,30h-2c-1.618,0-3.5-1.311-3.5-3v-5.5c0-0.133,0.053-0.26,0.146-0.354l1-1C11.24,20.053,11.367,20,11.5,20h6
				c0.133,0,0.26,0.053,0.354,0.146l1,1C18.947,21.24,19,21.367,19,21.5V27C19,28.689,17.118,30,15.5,30z M11,21.707V27
				c0,1.077,1.375,2,2.5,2h2c1.125,0,2.5-0.923,2.5-2v-5.293L17.293,21h-5.586L11,21.707z"/>
		</g>
		<g>
			<path d="M15.5,27h-2c-0.276,0-0.5-0.224-0.5-0.5s0.224-0.5,0.5-0.5h2c0.276,0,0.5,0.224,0.5,0.5S15.776,27,15.5,27z"/>
		</g>
		<g>
			<path d="M15.5,24h-2c-0.276,0-0.5-0.224-0.5-0.5s0.224-0.5,0.5-0.5h2c0.276,0,0.5,0.224,0.5,0.5S15.776,24,15.5,24z"/>
		</g>
		<g>
			<path d="M18,17h-7c-0.229,0-0.43-0.156-0.485-0.379l-3.5-14C6.948,2.354,7.11,2.082,7.379,2.015
				c0.263-0.069,0.54,0.095,0.606,0.364L11.391,16h6.219l3.405-13.621c0.066-0.269,0.335-0.432,0.606-0.364
				c0.269,0.067,0.431,0.338,0.364,0.606l-3.5,14C18.43,16.844,18.229,17,18,17z"/>
		</g>
		<g>
			<path d="M16.5,3C16.224,3,16,2.776,16,2.5v-2C16,0.224,16.224,0,16.5,0S17,0.224,17,0.5v2C17,2.776,16.776,3,16.5,3z"/>
		</g>
		<g>
			<path d="M4.5,24c-0.209,0-0.404-0.132-0.475-0.342l-1-3c-0.031-0.095-0.034-0.196-0.007-0.292l2.5-9
				c0.074-0.265,0.345-0.423,0.615-0.348c0.266,0.074,0.422,0.35,0.348,0.616l-2.459,8.853l0.952,2.855
				c0.087,0.262-0.055,0.545-0.316,0.632C4.605,23.992,4.553,24,4.5,24z"/>
		</g>
		<g>
			<path d="M24.5,24c-0.053,0-0.105-0.008-0.158-0.026c-0.262-0.087-0.403-0.37-0.316-0.632l0.952-2.855l-2.459-8.853
				c-0.074-0.266,0.082-0.542,0.348-0.616c0.271-0.074,0.542,0.083,0.615,0.348l2.5,9c0.027,0.096,0.024,0.197-0.007,0.292l-1,3
				C24.904,23.868,24.709,24,24.5,24z"/>
		</g>
		<g>
			<circle cx="14.5" cy="8.5" r="0.5"/>
		</g>
		<g>
			<path d="M14.5,12c-1.93,0-3.5-1.57-3.5-3.5S12.57,5,14.5,5S18,6.57,18,8.5S16.43,12,14.5,12z M14.5,6C13.121,6,12,7.122,12,8.5
				s1.121,2.5,2.5,2.5S17,9.878,17,8.5S15.879,6,14.5,6z"/>
		</g>
	</g>
</g>
<g id="Android">
</g>
<g id="Bender">
</g>
<g id="Roberto">
</g>
<g id="Robot_Devil">
</g>
<g id="Robocop">
</g>
<g id="ED_209">
</g>
<g id="Optimus_Prime">
</g>
<g id="Robot_1">
</g>
<g id="Robot_2">
</g>
<g id="Robot_3">
</g>
<g id="Robot_Arm_1">
</g>
<g id="Robot_Arm_2">
</g>
<g id="Robot_Arm_3">
</g>
<g id="Robot_Arm_4">
</g>
<g id="Robot_Arm_5">
</g>
<g id="K5_Robot">
</g>
<g id="Robot_Machine_1">
</g>
<g id="Robot_Machine_2">
</g>
<g id="Artifical_Intelligence_1">
</g>
<g id="Artifical_Intelligence_2">
</g>
<g id="Robot_4">
</g>
<g id="Robot_5">
</g>
<g id="Robot_6">
</g>
<g id="Robot_7">
</g>
<g id="Robot_8">
</g>
<g id="Robot_9">
</g>
<g id="Robot_10">
</g>
<g id="Robot_11">
</g>
<g id="Robot_12">
</g>
<g id="Robot_13">
</g>
</svg>
