<?xml version="1.0" encoding="iso-8859-1"?>
<!-- Generator: Adobe Illustrator 19.2.1, SVG Export Plug-In . SVG Version: 6.00 Build 0)  -->
<svg version="1.1" xmlns="http://www.w3.org/2000/svg" xmlns:xlink="http://www.w3.org/1999/xlink" x="0px" y="0px"
	 viewBox="0 0 30 30" style="enable-background:new 0 0 30 30;" xml:space="preserve">
<g id="Snowflake_1">
</g>
<g id="Snowflake_2">
</g>
<g id="Snowflake_3">
</g>
<g id="Snowflake_4">
</g>
<g id="Winter_Cap_1">
</g>
<g id="Winter_Cap_2">
</g>
<g id="Glowes">
</g>
<g id="Sweater_1">
</g>
<g id="Sweater_2">
</g>
<g id="Sweater_3">
</g>
<g id="Scarf">
</g>
<g id="Winter_Socks">
</g>
<g id="Winter_Sock">
</g>
<g id="Winter_Coat">
</g>
<g id="Winter_Calendar">
</g>
<g id="Thermometer_1">
</g>
<g id="Thermometer_2">
</g>
<g id="Cold">
	<g>
		<g>
			<path d="M25.5,30c-2.481,0-4.5-2.019-4.5-4.5c0-1.926,1.215-3.617,3-4.241V6.5C24,5.673,24.673,5,25.5,5S27,5.673,27,6.5v14.759
				c1.785,0.624,3,2.315,3,4.241C30,27.981,27.981,30,25.5,30z M25.5,6C25.225,6,25,6.224,25,6.5v15.13
				c0,0.229-0.155,0.428-0.377,0.484C23.079,22.507,22,23.899,22,25.5c0,1.93,1.57,3.5,3.5,3.5s3.5-1.57,3.5-3.5
				c0-1.601-1.079-2.993-2.623-3.386C26.155,22.058,26,21.858,26,21.63V6.5C26,6.224,25.775,6,25.5,6z"/>
		</g>
		<g>
			<path d="M28.5,10h-2C26.224,10,26,9.776,26,9.5S26.224,9,26.5,9h2C28.776,9,29,9.224,29,9.5S28.776,10,28.5,10z"/>
		</g>
		<g>
			<path d="M28.5,15h-2c-0.276,0-0.5-0.224-0.5-0.5s0.224-0.5,0.5-0.5h2c0.276,0,0.5,0.224,0.5,0.5S28.776,15,28.5,15z"/>
		</g>
		<g>
			<path d="M28.5,20h-4c-0.276,0-0.5-0.224-0.5-0.5s0.224-0.5,0.5-0.5h4c0.276,0,0.5,0.224,0.5,0.5S28.776,20,28.5,20z"/>
		</g>
		<g>
			<path d="M14.5,30c-0.276,0-0.5-0.224-0.5-0.5v-29C14,0.224,14.224,0,14.5,0S15,0.224,15,0.5v29C15,29.776,14.776,30,14.5,30z"/>
		</g>
		<g>
			<path d="M21.935,19.661c-0.082,0-0.164-0.02-0.241-0.062L1.52,8.503c-0.242-0.133-0.33-0.437-0.197-0.679
				c0.135-0.242,0.438-0.329,0.68-0.197l20.174,11.095c0.242,0.133,0.33,0.437,0.197,0.679
				C22.281,19.567,22.11,19.661,21.935,19.661z"/>
		</g>
		<g>
			<path d="M1.761,22.435c-0.176,0-0.347-0.093-0.438-0.259c-0.133-0.242-0.045-0.546,0.197-0.679l20.174-11.095
				c0.242-0.131,0.545-0.045,0.68,0.197c0.133,0.242,0.045,0.546-0.197,0.679L2.002,22.373C1.925,22.415,1.843,22.435,1.761,22.435z
				"/>
		</g>
		<g>
			<path d="M14.369,7.304L14.369,7.304c-0.133,0-0.26-0.053-0.354-0.146L8.973,2.114c-0.195-0.195-0.195-0.512,0-0.707
				s0.512-0.195,0.707,0l4.689,4.69l4.69-4.69c0.195-0.195,0.512-0.195,0.707,0s0.195,0.512,0,0.707l-5.044,5.043
				C14.629,7.251,14.502,7.304,14.369,7.304z"/>
		</g>
		<g>
			<path d="M19.413,28.739c-0.128,0-0.256-0.049-0.354-0.146l-4.69-4.69l-4.689,4.69c-0.195,0.195-0.512,0.195-0.707,0
				s-0.195-0.512,0-0.707l5.043-5.043c0.188-0.188,0.52-0.188,0.707,0l5.044,5.043c0.195,0.195,0.195,0.512,0,0.707
				C19.669,28.69,19.541,28.739,19.413,28.739z"/>
		</g>
		<g>
			<path d="M5.219,26.315c-0.046,0-0.092-0.006-0.139-0.02c-0.266-0.077-0.418-0.354-0.342-0.619l1.841-6.382l-6.227-1.926
				c-0.264-0.082-0.412-0.361-0.33-0.625c0.081-0.263,0.36-0.413,0.625-0.33l6.695,2.071c0.261,0.081,0.408,0.354,0.333,0.616
				l-1.977,6.853C5.636,26.172,5.437,26.315,5.219,26.315z"/>
		</g>
		<g>
			<path d="M0.5,13.609c-0.214,0-0.411-0.138-0.478-0.352c-0.082-0.264,0.066-0.544,0.33-0.625l6.227-1.926L4.738,4.324
				C4.662,4.058,4.814,3.781,5.08,3.705c0.27-0.075,0.542,0.077,0.619,0.342l1.977,6.853c0.075,0.262-0.072,0.536-0.333,0.616
				l-6.695,2.071C0.599,13.602,0.549,13.609,0.5,13.609z"/>
		</g>
	</g>
</g>
<g id="Icicle">
</g>
<g id="Snowing">
</g>
<g id="Snow_Shoes_1">
</g>
<g id="Snow_Shoes_2">
</g>
<g id="Sledge">
</g>
<g id="Snow_Boots">
</g>
<g id="Snowcapped_Mountains">
</g>
<g id="Skis">
</g>
<g id="Sky_Glasses">
</g>
<g id="Snowboard">
</g>
<g id="Ice_Skate">
</g>
<g id="Wooden_House">
</g>
<g id="Snowcapped_House">
</g>
<g id="Hot_Drink">
</g>
<g id="Hot_Chocolate">
</g>
<g id="Lantern">
</g>
<g id="Snow_Shovel">
</g>
<g id="Snowman">
</g>
<g id="Reindeer">
</g>
<g id="Snowmobile">
</g>
<g id="Snow_Chain">
</g>
<g id="Slippery_Road">
</g>
</svg>
