<?xml version="1.0" encoding="iso-8859-1"?>
<!-- Generator: Adobe Illustrator 19.2.1, SVG Export Plug-In . SVG Version: 6.00 Build 0)  -->
<svg version="1.1" xmlns="http://www.w3.org/2000/svg" xmlns:xlink="http://www.w3.org/1999/xlink" x="0px" y="0px"
	 viewBox="0 0 30 30" style="enable-background:new 0 0 30 30;" xml:space="preserve">
<g id="Mail">
</g>
<g id="Open_Mail">
</g>
<g id="Mail_Attachmet">
</g>
<g id="Mails">
</g>
<g id="Trash">
</g>
<g id="Trash_Full">
</g>
<g id="Preferences_1">
</g>
<g id="Preferences_2">
</g>
<g id="Mouse">
</g>
<g id="Computer">
	<g>
		<g>
			<path d="M26.5,25h-24C1.121,25,0,23.878,0,22.5v-18C0,3.122,1.121,2,2.5,2h24C27.879,2,29,3.122,29,4.5v18
				C29,23.878,27.879,25,26.5,25z M2.5,3C1.673,3,1,3.673,1,4.5v18C1,23.327,1.673,24,2.5,24h24c0.827,0,1.5-0.673,1.5-1.5v-18
				C28,3.673,27.327,3,26.5,3H2.5z"/>
		</g>
		<g>
			<path d="M22.5,30h-16C6.224,30,6,29.776,6,29.5S6.224,29,6.5,29h16c0.276,0,0.5,0.224,0.5,0.5S22.776,30,22.5,30z"/>
		</g>
		<g>
			<path d="M28.5,20h-28C0.224,20,0,19.776,0,19.5S0.224,19,0.5,19h28c0.276,0,0.5,0.224,0.5,0.5S28.776,20,28.5,20z"/>
		</g>
		<g>
			<path d="M19.591,30c-2.236,0-2.926-4.529-3.041-5.437c-0.035-0.274,0.159-0.524,0.433-0.559c0.269-0.033,0.524,0.159,0.56,0.433
				C17.777,26.277,18.591,29,19.591,29c0.276,0,0.5,0.224,0.5,0.5S19.867,30,19.591,30z"/>
		</g>
		<g>
			<path d="M9.409,30c-0.276,0-0.5-0.224-0.5-0.5s0.224-0.5,0.5-0.5c1.002,0,1.814-2.723,2.049-4.563
				c0.035-0.274,0.286-0.466,0.56-0.433c0.273,0.035,0.468,0.285,0.433,0.559C12.335,25.471,11.646,30,9.409,30z"/>
		</g>
	</g>
</g>
<g id="Notebook">
</g>
<g id="Mobile_Phone">
</g>
<g id="Print">
</g>
<g id="Calculator">
</g>
<g id="Tag">
</g>
<g id="Paperclip">
</g>
<g id="Heart">
</g>
<g id="Lock">
</g>
<g id="Lock_Open">
</g>
<g id="Key_1">
</g>
<g id="Star">
</g>
<g id="Add">
</g>
<g id="Remove">
</g>
<g id="Error">
</g>
<g id="Check_1">
</g>
<g id="Time">
</g>
<g id="Question_Mark">
</g>
<g id="Error_Mark">
</g>
<g id="Sand-Glass">
</g>
<g id="Battery_Full">
</g>
<g id="Battery_Charge">
</g>
<g id="Battery_Half">
</g>
<g id="Battery_Low">
</g>
<g id="No_Battery">
</g>
<g id="Key_2">
</g>
<g id="Link">
</g>
<g id="Brake_Link">
</g>
<g id="Pencil">
</g>
<g id="At">
</g>
<g id="Reply">
</g>
<g id="Accessible">
</g>
<g id="Up_Arrow">
</g>
<g id="Brush">
</g>
<g id="Design_Mug">
</g>
<g id="Design">
</g>
<g id="Server">
</g>
<g id="Database">
</g>
<g id="Save">
</g>
<g id="Female">
</g>
<g id="Male">
</g>
<g id="Book">
</g>
<g id="Power">
</g>
<g id="Reload">
</g>
<g id="Map">
</g>
<g id="Loction_1">
</g>
<g id="Location_2">
</g>
<g id="Globe">
</g>
<g id="Suitcase">
</g>
<g id="Callendar">
</g>
<g id="Cloud_Off">
</g>
<g id="File_1">
</g>
<g id="File_2">
</g>
<g id="Folder">
</g>
<g id="Open_Folder">
</g>
<g id="Cloud">
</g>
<g id="Upload_Cloud">
</g>
<g id="Download_Cloud">
</g>
<g id="Eye">
</g>
<g id="Invisible">
</g>
<g id="Assignment">
</g>
<g id="Note_Book">
</g>
<g id="Webpage">
</g>
<g id="Mailbox">
</g>
<g id="Drive">
</g>
<g id="Disc">
</g>
<g id="Wifi_1">
</g>
<g id="Wifi_2">
</g>
<g id="Archive">
</g>
<g id="Archive_File">
</g>
<g id="News">
</g>
<g id="Home">
</g>
<g id="Collaboration">
</g>
<g id="Announcement">
</g>
<g id="Watch">
</g>
<g id="Clock">
</g>
<g id="Volume">
</g>
<g id="Mute">
</g>
<g id="Hand">
</g>
<g id="Layers">
</g>
<g id="Bell">
</g>
<g id="Speach_Bubble">
</g>
<g id="Speach_Bubbles">
</g>
<g id="Zoom_In">
</g>
<g id="Zoom_Out">
</g>
<g id="Search">
</g>
<g id="Back_Arrow">
</g>
<g id="Close">
</g>
<g id="Check_2">
</g>
<g id="Left_Arrow_2">
</g>
<g id="Right_Arrow_2">
</g>
</svg>
