<?xml version="1.0" encoding="iso-8859-1"?>
<!-- Generator: Adobe Illustrator 19.2.1, SVG Export Plug-In . SVG Version: 6.00 Build 0)  -->
<svg version="1.1" xmlns="http://www.w3.org/2000/svg" xmlns:xlink="http://www.w3.org/1999/xlink" x="0px" y="0px"
	 viewBox="0 0 30 30" style="enable-background:new 0 0 30 30;" xml:space="preserve">
<g id="Engagement_1">
</g>
<g id="Engagement_2">
</g>
<g id="Wedding_Ring">
</g>
<g id="Church">
</g>
<g id="Church_Bells">
</g>
<g id="Wedding_Altar_1">
</g>
<g id="Wedding_Altar_2">
</g>
<g id="Bow-Tie">
</g>
<g id="Wedding_Tiara">
</g>
<g id="Wedding_Bouquet">
</g>
<g id="Wedding_Decoration_1">
</g>
<g id="Wedding_Decoration_2">
</g>
<g id="Wedding_Way_Sign">
</g>
<g id="Wedding_Date">
</g>
<g id="Wedding_Invitation">
</g>
<g id="Wedding_Invitation_2">
</g>
<g id="Bride">
</g>
<g id="Groom">
</g>
<g id="Mariage_Couple">
</g>
<g id="Wedding_Planner_Book">
</g>
<g id="Wedding_Cake_1">
</g>
<g id="Wedding_Cake_2">
</g>
<g id="Wedding_Cake_3">
</g>
<g id="Cake_Slice">
</g>
<g id="Marriage_Settlement">
</g>
<g id="Glass_Decoration">
</g>
<g id="Cutlery_Decoration">
</g>
<g id="Celebration_Glasses">
</g>
<g id="Wedding_Photo">
</g>
<g id="Wedding_Present_1">
</g>
<g id="Wedding_Present_2">
</g>
<g id="Wedding_Bouquet_2">
</g>
<g id="Hands_with_rings">
</g>
<g id="Wedding_Car">
</g>
<g id="Wedding_music">
</g>
<g id="wedding_party">
</g>
<g id="Confetti_1">
	<g>
		<g>
			<path d="M4.282,13.608c-0.096,0-0.192-0.027-0.277-0.084l-3.782-2.521C0.084,10.91,0,10.754,0,10.587s0.084-0.323,0.223-0.416
				l3.158-2.105L0.223,5.96C0.084,5.867,0,5.711,0,5.544s0.084-0.323,0.223-0.416l3.158-2.106L0.223,0.916
				c-0.229-0.153-0.292-0.464-0.139-0.693c0.154-0.23,0.465-0.291,0.693-0.139L4.56,2.605c0.139,0.093,0.223,0.249,0.223,0.416
				S4.698,3.345,4.56,3.438L1.401,5.544L4.56,7.649c0.139,0.093,0.223,0.249,0.223,0.416S4.698,8.389,4.56,8.481l-3.158,2.105
				l3.158,2.105c0.229,0.153,0.292,0.464,0.139,0.693C4.602,13.53,4.443,13.608,4.282,13.608z"/>
		</g>
		<g>
			<path d="M16.892,18.021c-0.161,0-0.319-0.078-0.416-0.223c-0.153-0.229-0.091-0.54,0.139-0.693L19.772,15l-3.158-2.105
				c-0.139-0.093-0.223-0.249-0.223-0.416s0.084-0.323,0.223-0.416l3.158-2.106l-3.158-2.105c-0.139-0.093-0.223-0.249-0.223-0.416
				s0.084-0.323,0.223-0.416l3.782-2.521c0.228-0.152,0.539-0.092,0.693,0.139c0.153,0.229,0.091,0.54-0.139,0.693l-3.158,2.105
				l3.158,2.105c0.139,0.093,0.223,0.249,0.223,0.416s-0.084,0.323-0.223,0.416l-3.158,2.106l3.158,2.105
				c0.139,0.093,0.223,0.249,0.223,0.416s-0.084,0.323-0.223,0.416l-3.782,2.521C17.084,17.994,16.987,18.021,16.892,18.021z"/>
		</g>
		<g>
			<path d="M6.805,30c-0.161,0-0.319-0.078-0.416-0.223c-0.153-0.229-0.091-0.54,0.139-0.693l2.209-1.473
				c0.215-0.144,0.338-0.374,0.338-0.633c0.001-0.259-0.123-0.49-0.339-0.634l-0.635-0.423c-0.491-0.327-0.784-0.875-0.784-1.466
				c0-0.59,0.293-1.138,0.784-1.465l0.636-0.423c0.215-0.144,0.339-0.375,0.338-0.634c0-0.259-0.123-0.489-0.338-0.633l-0.636-0.424
				c-0.491-0.327-0.784-0.875-0.784-1.465s0.293-1.138,0.784-1.465l0.636-0.424c0.215-0.144,0.338-0.374,0.338-0.633
				c0-0.26-0.123-0.49-0.338-0.634l-0.636-0.423c-0.491-0.327-0.784-0.875-0.784-1.466c0-0.59,0.293-1.138,0.784-1.465l2.209-1.473
				c0.227-0.152,0.539-0.092,0.693,0.139c0.153,0.229,0.091,0.54-0.139,0.693l-2.209,1.473c-0.216,0.144-0.339,0.374-0.339,0.633
				c0,0.26,0.123,0.49,0.339,0.634l0.636,0.423c0.491,0.327,0.783,0.875,0.783,1.466c0,0.59-0.292,1.138-0.783,1.465L8.655,18.78
				c-0.216,0.144-0.339,0.374-0.339,0.633s0.123,0.489,0.339,0.633l0.636,0.424c0.49,0.327,0.783,0.875,0.783,1.464
				c0.001,0.591-0.292,1.139-0.782,1.467l-0.637,0.423c-0.216,0.144-0.339,0.374-0.339,0.633c0,0.26,0.123,0.49,0.339,0.634
				l0.636,0.423c0.491,0.328,0.784,0.876,0.783,1.467c0,0.589-0.293,1.137-0.783,1.464l-2.209,1.473C6.997,29.973,6.9,30,6.805,30z"
				/>
		</g>
		<g>
			<path d="M29.5,27.479c-0.096,0-0.192-0.027-0.277-0.084l-2.209-1.473c-0.491-0.327-0.784-0.875-0.784-1.465
				c0-0.591,0.293-1.139,0.784-1.466l0.636-0.423c0.215-0.144,0.339-0.375,0.339-0.634c-0.001-0.259-0.124-0.489-0.339-0.633
				l-0.636-0.424c-0.491-0.327-0.784-0.875-0.784-1.465s0.293-1.138,0.784-1.465l0.636-0.424c0.215-0.144,0.339-0.374,0.339-0.633
				c0-0.26-0.124-0.49-0.339-0.634l-0.636-0.423c-0.491-0.327-0.784-0.875-0.784-1.465c0-0.591,0.293-1.139,0.784-1.466l0.636-0.424
				c0.215-0.144,0.339-0.374,0.339-0.633s-0.124-0.489-0.339-0.633L25.44,9.742c-0.229-0.153-0.292-0.464-0.139-0.693
				c0.154-0.23,0.466-0.291,0.693-0.139l2.209,1.473c0.491,0.327,0.784,0.875,0.784,1.465s-0.293,1.138-0.784,1.465l-0.636,0.424
				c-0.216,0.144-0.339,0.374-0.339,0.634c0,0.259,0.123,0.489,0.339,0.633l0.636,0.423c0.491,0.327,0.784,0.875,0.784,1.466
				c0,0.59-0.293,1.138-0.784,1.465l-0.636,0.424c-0.216,0.144-0.339,0.374-0.339,0.633s0.123,0.489,0.339,0.633l0.636,0.424
				c0.49,0.327,0.783,0.875,0.784,1.464c0,0.591-0.293,1.139-0.783,1.467l-0.637,0.423c-0.216,0.144-0.339,0.374-0.339,0.634
				c0,0.259,0.123,0.489,0.339,0.633l2.209,1.473c0.229,0.153,0.292,0.464,0.139,0.693C29.819,27.4,29.661,27.479,29.5,27.479z"/>
		</g>
		<g>
			<path d="M10,7C8.346,7,7,5.654,7,4s1.346-3,3-3s3,1.346,3,3S11.654,7,10,7z M10,2C8.897,2,8,2.897,8,4s0.897,2,2,2s2-0.897,2-2
				S11.103,2,10,2z"/>
		</g>
		<g>
			<path d="M19,27c-1.654,0-3-1.346-3-3s1.346-3,3-3s3,1.346,3,3S20.654,27,19,27z M19,22c-1.103,0-2,0.897-2,2s0.897,2,2,2
				s2-0.897,2-2S20.103,22,19,22z"/>
		</g>
		<g>
			<path d="M3,21c-1.103,0-2-0.897-2-2s0.897-2,2-2s2,0.897,2,2S4.103,21,3,21z M3,18c-0.552,0-1,0.448-1,1s0.448,1,1,1s1-0.448,1-1
				S3.552,18,3,18z"/>
		</g>
		<g>
			<path d="M27,5c-1.103,0-2-0.897-2-2s0.897-2,2-2s2,0.897,2,2S28.103,5,27,5z M27,2c-0.552,0-1,0.448-1,1s0.448,1,1,1s1-0.448,1-1
				S27.552,2,27,2z"/>
		</g>
	</g>
</g>
<g id="Confetti_2">
</g>
</svg>
