<?xml version="1.0" encoding="iso-8859-1"?>
<!-- Generator: Adobe Illustrator 19.2.1, SVG Export Plug-In . SVG Version: 6.00 Build 0)  -->
<svg version="1.1" xmlns="http://www.w3.org/2000/svg" xmlns:xlink="http://www.w3.org/1999/xlink" x="0px" y="0px"
	 viewBox="0 0 30 30" style="enable-background:new 0 0 30 30;" xml:space="preserve">
<g id="Engagement_1">
</g>
<g id="Engagement_2">
</g>
<g id="Wedding_Ring">
</g>
<g id="Church">
</g>
<g id="Church_Bells">
</g>
<g id="Wedding_Altar_1">
</g>
<g id="Wedding_Altar_2">
</g>
<g id="Bow-Tie">
</g>
<g id="Wedding_Tiara">
</g>
<g id="Wedding_Bouquet">
</g>
<g id="Wedding_Decoration_1">
</g>
<g id="Wedding_Decoration_2">
</g>
<g id="Wedding_Way_Sign">
</g>
<g id="Wedding_Date">
</g>
<g id="Wedding_Invitation">
</g>
<g id="Wedding_Invitation_2">
</g>
<g id="Bride">
</g>
<g id="Groom">
</g>
<g id="Mariage_Couple">
</g>
<g id="Wedding_Planner_Book">
</g>
<g id="Wedding_Cake_1">
</g>
<g id="Wedding_Cake_2">
</g>
<g id="Wedding_Cake_3">
</g>
<g id="Cake_Slice">
</g>
<g id="Marriage_Settlement">
</g>
<g id="Glass_Decoration">
</g>
<g id="Cutlery_Decoration">
</g>
<g id="Celebration_Glasses">
</g>
<g id="Wedding_Photo">
</g>
<g id="Wedding_Present_1">
</g>
<g id="Wedding_Present_2">
</g>
<g id="Wedding_Bouquet_2">
</g>
<g id="Hands_with_rings">
</g>
<g id="Wedding_Car">
</g>
<g id="Wedding_music">
</g>
<g id="wedding_party">
</g>
<g id="Confetti_1">
</g>
<g id="Confetti_2">
	<g>
		<path d="M28.424,17.235l-2.5-4c-0.182-0.292-0.666-0.292-0.848,0l-2.5,4c-0.097,0.153-0.102,0.348-0.014,0.507
			C22.65,17.901,22.818,18,23,18h5c0.182,0,0.35-0.099,0.437-0.258C28.525,17.583,28.521,17.389,28.424,17.235z"/>
		<circle cx="4" cy="3" r="3"/>
		<path d="M18.652,6.798c-0.003-0.202-0.127-0.383-0.314-0.458l-6.305-2.521c-0.255-0.102-0.547,0.021-0.65,0.279
			c-0.103,0.256,0.022,0.547,0.279,0.65l5.184,2.073l-7.716,3.307c-0.195,0.083-0.315,0.28-0.302,0.491
			c0.013,0.211,0.158,0.391,0.362,0.449l7.474,2.135l-7.534,3.229c-0.195,0.084-0.315,0.28-0.302,0.491
			c0.013,0.212,0.158,0.392,0.362,0.449l7.718,2.205l-5.317,3.189c-0.237,0.142-0.313,0.449-0.171,0.686
			c0.094,0.156,0.259,0.243,0.429,0.243c0.087,0,0.176-0.022,0.257-0.071l6.304-3.782c0.171-0.103,0.265-0.297,0.239-0.494
			c-0.026-0.197-0.167-0.36-0.358-0.415l-7.474-2.136l7.534-3.229c0.194-0.083,0.315-0.28,0.302-0.491
			c-0.014-0.211-0.158-0.391-0.361-0.449l-7.474-2.135l7.534-3.229C18.535,7.184,18.654,7,18.652,6.798z"/>
		<path d="M21.812,4.767c0.009,0.002,0.884,0.244,0.884,0.776c0,0.276,0.224,0.5,0.5,0.5s0.5-0.224,0.5-0.5
			c0-0.005,0.024-0.562,0.882-0.776c0.245-0.061,0.406-0.295,0.375-0.546c-0.03-0.25-0.243-0.439-0.496-0.439
			c-0.127,0-0.761-0.037-0.761-0.761c0-0.276-0.224-0.5-0.5-0.5s-0.5,0.224-0.5,0.5c0,0.127-0.037,0.761-0.761,0.761
			c-0.252,0-0.463,0.188-0.495,0.437C21.408,4.469,21.567,4.704,21.812,4.767z"/>
		<path d="M9.331,25.218c-0.083-0.002-2.027-0.079-2.027-3.283c0-0.276-0.224-0.5-0.5-0.5s-0.5,0.224-0.5,0.5
			c0,0.033-0.023,3.283-2.021,3.283c-0.002,0-0.002,0-0.003,0h0c-0.001,0-0.001,0-0.002,0h0H4.275h0c0,0-0.001,0-0.001,0h0
			c0,0-0.001,0-0.001,0c-0.271,0.006-0.489,0.228-0.489,0.5c0,0.274,0.222,0.498,0.496,0.5C4.376,26.22,6.304,26.31,6.304,29.5
			c0,0.276,0.224,0.5,0.5,0.5s0.5-0.224,0.5-0.5c0-0.027,0.024-2.768,2.143-3.297c0.243-0.061,0.401-0.292,0.373-0.541
			S9.582,25.223,9.331,25.218z"/>
		<path d="M4.283,16.131c0.052,0,0.105-0.009,0.158-0.026c0.262-0.087,0.403-0.37,0.316-0.632l-1.261-3.783
			c-0.087-0.262-0.369-0.403-0.632-0.316c-0.262,0.087-0.403,0.37-0.316,0.632l1.261,3.783C3.878,15.998,4.073,16.131,4.283,16.131z
			"/>
		<path d="M23.419,20.227c-0.246-0.122-0.547-0.022-0.671,0.224l-2.521,5.044c-0.123,0.247-0.023,0.548,0.224,0.671
			c0.072,0.036,0.148,0.053,0.224,0.053c0.183,0,0.359-0.102,0.447-0.276l2.521-5.044C23.766,20.65,23.666,20.35,23.419,20.227z"/>
	</g>
</g>
</svg>
