<?xml version="1.0" encoding="iso-8859-1"?>
<!-- Generator: Adobe Illustrator 19.2.1, SVG Export Plug-In . SVG Version: 6.00 Build 0)  -->
<svg version="1.1" xmlns="http://www.w3.org/2000/svg" xmlns:xlink="http://www.w3.org/1999/xlink" x="0px" y="0px"
	 viewBox="0 0 24 24" style="enable-background:new 0 0 24 24;" xml:space="preserve">
<g id="Engagement_1">
</g>
<g id="Engagement_2">
</g>
<g id="Wedding_Ring">
</g>
<g id="Church">
</g>
<g id="Church_Bells">
</g>
<g id="Wedding_Altar_1">
</g>
<g id="Wedding_Altar_2">
</g>
<g id="Bow-Tie">
</g>
<g id="Wedding_Tiara">
</g>
<g id="Wedding_Bouquet">
</g>
<g id="Wedding_Decoration_1">
</g>
<g id="Wedding_Decoration_2">
</g>
<g id="Wedding_Way_Sign">
</g>
<g id="Wedding_Date">
</g>
<g id="Wedding_Invitation">
</g>
<g id="Wedding_Invitation_2">
</g>
<g id="Bride">
</g>
<g id="Groom">
</g>
<g id="Mariage_Couple">
</g>
<g id="Wedding_Planner_Book">
</g>
<g id="Wedding_Cake_1">
</g>
<g id="Wedding_Cake_2">
</g>
<g id="Wedding_Cake_3">
</g>
<g id="Cake_Slice">
</g>
<g id="Marriage_Settlement">
</g>
<g id="Glass_Decoration">
</g>
<g id="Cutlery_Decoration">
</g>
<g id="Celebration_Glasses">
</g>
<g id="Wedding_Photo">
</g>
<g id="Wedding_Present_1">
</g>
<g id="Wedding_Present_2">
</g>
<g id="Wedding_Bouquet_2">
</g>
<g id="Hands_with_rings">
</g>
<g id="Wedding_Car">
</g>
<g id="Wedding_music">
</g>
<g id="wedding_party">
</g>
<g id="Confetti_1">
</g>
<g id="Confetti_2">
	<g>
		<path d="M22.916,13.223l-2-3c-0.186-0.278-0.646-0.278-0.832,0l-2,3c-0.103,0.153-0.112,0.351-0.024,0.513
			C18.146,13.898,18.315,14,18.5,14h4c0.185,0,0.354-0.102,0.44-0.264C23.028,13.573,23.018,13.376,22.916,13.223z"/>
		<circle cx="3.5" cy="2.5" r="2.5"/>
		<path d="M15,5.494c-0.003-0.203-0.127-0.383-0.314-0.458l-5-2C9.43,2.933,9.139,3.058,9.036,3.314s0.021,0.547,0.278,0.65
			l3.879,1.552L7.303,8.041C7.108,8.124,6.987,8.32,7.001,8.532c0.014,0.211,0.158,0.391,0.361,0.449l5.648,1.613l-5.708,2.446
			c-0.194,0.083-0.315,0.28-0.302,0.491c0.014,0.211,0.158,0.391,0.361,0.449l5.893,1.683l-4.012,2.407
			c-0.237,0.142-0.314,0.449-0.172,0.686C9.165,18.914,9.331,19,9.5,19c0.088,0,0.177-0.023,0.257-0.071l5-3
			c0.171-0.103,0.265-0.296,0.239-0.494c-0.026-0.197-0.167-0.361-0.358-0.416l-5.648-1.613l5.708-2.446
			c0.194-0.083,0.315-0.28,0.302-0.491c-0.014-0.211-0.158-0.391-0.361-0.449L8.989,8.406l5.708-2.446
			C14.883,5.88,15.002,5.696,15,5.494z"/>
		<path d="M17.376,3.984C17.383,3.986,18,4.163,18,4.5c0,0.001,0,0.001,0,0.002v0.001v0.001c0,0,0,0,0,0c0,0.001,0,0.001,0,0.001
			C18.004,4.78,18.225,5,18.5,5c0.271,0,0.493-0.217,0.5-0.487c0.005-0.068,0.061-0.387,0.621-0.528
			c0.243-0.061,0.4-0.291,0.372-0.54C19.966,3.197,19.756,3.006,19.506,3C19.275,2.994,19,2.903,19,2.5c0-0.001,0-0.002,0-0.002
			V2.497V2.496v0c0,0,0,0,0-0.001v0c0,0,0-0.001,0-0.001V2.491v0V2.489C18.994,2.218,18.772,2,18.5,2
			c-0.274,0-0.497,0.221-0.5,0.495C17.994,2.726,17.902,3,17.5,3c-0.251,0-0.462,0.187-0.494,0.437S17.133,3.921,17.376,3.984z"/>
		<path d="M7.507,20C7.352,19.996,6,19.891,6,17.5c0-0.003,0-0.006,0-0.01v-0.001v0c0,0,0-0.001,0-0.001
			C5.993,17.217,5.771,17,5.5,17c-0.275,0-0.499,0.223-0.5,0.499C5,17.524,4.975,20,3.5,20c-0.001,0-0.001,0-0.002,0
			s-0.001,0-0.001,0c-0.001,0-0.002,0-0.003,0c0,0,0,0-0.001,0c0,0,0,0-0.001,0s-0.001,0-0.002,0H3.489c-0.001,0-0.002,0-0.002,0
			C3.217,20.007,3,20.228,3,20.5c0,0.274,0.221,0.497,0.495,0.5C3.654,21.004,5,21.115,5,23.5c0,0.001,0,0.002,0,0.002
			c-0.001,0.002-0.001,0.002,0,0.004c0,0,0,0.001,0,0.001v0v0.001v0v0c0,0,0,0.001,0,0.001c0,0,0,0,0,0v0.001c0,0,0,0.001,0,0.002
			v0.001C5.009,23.785,5.229,24,5.5,24c0.275,0,0.499-0.223,0.5-0.498v0c0-0.086,0.03-2.119,1.621-2.517
			c0.242-0.061,0.399-0.291,0.372-0.54C7.967,20.197,7.756,20.007,7.507,20z"/>
		<path d="M3.5,13c0.053,0,0.105-0.008,0.158-0.026c0.262-0.087,0.403-0.37,0.316-0.632l-1-3C2.887,9.08,2.604,8.94,2.342,9.026
			C2.08,9.113,1.938,9.396,2.025,9.658l1,3C3.096,12.868,3.291,13,3.5,13z"/>
		<path d="M18.724,16.053c-0.247-0.122-0.547-0.023-0.671,0.224l-2,4c-0.123,0.247-0.023,0.547,0.224,0.671
			C16.349,20.983,16.425,21,16.5,21c0.183,0,0.359-0.101,0.447-0.276l2-4C19.07,16.477,18.971,16.176,18.724,16.053z"/>
	</g>
</g>
</svg>
