<?xml version="1.0" encoding="iso-8859-1"?>
<!-- Generator: Adobe Illustrator 19.2.1, SVG Export Plug-In . SVG Version: 6.00 Build 0)  -->
<svg version="1.1" xmlns="http://www.w3.org/2000/svg" xmlns:xlink="http://www.w3.org/1999/xlink" x="0px" y="0px"
	 viewBox="0 0 30 30" style="enable-background:new 0 0 30 30;" xml:space="preserve">
<g id="Cad_1">
</g>
<g id="Cad_2">
</g>
<g id="Cad_Pencil">
</g>
<g id="Cad_Compasses">
</g>
<g id="Tools_1">
</g>
<g id="Tools_2">
</g>
<g id="Ruler_1">
</g>
<g id="Ruler_2">
</g>
<g id="Workspace_1">
</g>
<g id="Workspace_2">
</g>
<g id="Cad_3">
</g>
<g id="_x33_D_Box">
</g>
<g id="Section_Symbol">
</g>
<g id="Outlet_Symbol">
</g>
<g id="Cad_File">
</g>
<g id="Blueprint">
</g>
<g id="Construction_Plan">
	<g>
		<path d="M29.868,12.162l-11-12c-0.189-0.207-0.547-0.207-0.736,0l-11,12c-0.135,0.146-0.169,0.358-0.09,0.539
			C7.122,12.883,7.302,13,7.5,13h22c0.198,0,0.378-0.117,0.458-0.299C30.037,12.52,30.003,12.308,29.868,12.162z"/>
		<g>
			<path d="M26.5,30c-0.128,0-0.256-0.049-0.354-0.146c-0.195-0.195-0.195-0.512,0-0.707L26.293,29H10.707l0.146,0.146
				c0.195,0.195,0.195,0.512,0,0.707s-0.512,0.195-0.707,0l-0.997-0.997c-0.011-0.01-0.021-0.021-0.03-0.032v0l0,0
				c-0.065-0.077-0.104-0.169-0.115-0.264C9,28.53,8.999,28.501,9.001,28.472v0v0c0.007-0.117,0.055-0.231,0.143-0.321v0
				c0.001,0,0.001,0,0.001,0s0,0,0.001,0v0l0.001-0.001l1-1c0.195-0.195,0.512-0.195,0.707,0C10.951,27.244,11,27.372,11,27.5
				s-0.049,0.256-0.146,0.354L10.707,28h15.586l-0.146-0.146C26.049,27.756,26,27.628,26,27.5s0.049-0.256,0.146-0.354
				c0.195-0.195,0.512-0.195,0.707,0l1,1l0.001,0v0.001c0.001,0,0.001,0,0.001,0s0,0,0.001,0v0c0.088,0.09,0.136,0.205,0.143,0.321
				v0v0c0.002,0.029,0.001,0.059-0.003,0.088c-0.011,0.095-0.05,0.187-0.115,0.264l0,0v0c-0.01,0.011-0.02,0.022-0.03,0.032
				l-0.997,0.997C26.756,29.951,26.628,30,26.5,30z"/>
		</g>
		<g>
			<path d="M1.5,13c-0.02,0-0.04-0.001-0.06-0.003H1.439l0,0c-0.095-0.012-0.187-0.05-0.263-0.115l0,0c-0.001,0-0.001,0-0.001,0
				c-0.012-0.01-0.022-0.02-0.032-0.03l-0.997-0.997c-0.195-0.195-0.195-0.512,0-0.707s0.512-0.195,0.707,0L1,11.293V1.707
				L0.854,1.854c-0.195,0.195-0.512,0.195-0.707,0C0.049,1.756,0,1.628,0,1.5s0.049-0.256,0.146-0.354l1-1
				c0.09-0.09,0.206-0.139,0.324-0.146h0.001l0,0C1.5-0.001,1.529,0,1.56,0.003h0.001l0,0c0.095,0.012,0.187,0.05,0.263,0.115l0,0
				c0.001,0,0.001,0,0.001,0c0.012,0.01,0.022,0.02,0.032,0.03l0.997,0.997c0.195,0.195,0.195,0.512,0,0.707s-0.512,0.195-0.707,0
				L2,1.707v9.586l0.146-0.146c0.195-0.195,0.512-0.195,0.707,0C2.951,11.244,3,11.372,3,11.5s-0.049,0.256-0.146,0.354l-1,1
				c-0.09,0.09-0.206,0.139-0.324,0.146H1.528l0,0C1.519,13,1.51,13,1.5,13z"/>
		</g>
		<g>
			<path d="M1.5,24c-0.02,0-0.04-0.001-0.06-0.003H1.439l0,0c-0.095-0.012-0.187-0.05-0.263-0.115l0,0c-0.001,0-0.001,0-0.001,0
				c-0.012-0.01-0.022-0.02-0.032-0.03l-0.997-0.997c-0.195-0.195-0.195-0.512,0-0.707s0.512-0.195,0.707,0L1,22.293v-7.586
				l-0.146,0.146c-0.195,0.195-0.512,0.195-0.707,0C0.049,14.756,0,14.628,0,14.5s0.049-0.256,0.146-0.354l1-1
				c0.09-0.09,0.206-0.139,0.324-0.146h0.001l0,0C1.5,13,1.529,13,1.56,13.003h0.001l0,0c0.095,0.012,0.187,0.05,0.263,0.115l0,0
				c0.001,0,0.001,0,0.001,0c0.012,0.01,0.022,0.02,0.032,0.03l0.997,0.997c0.195,0.195,0.195,0.512,0,0.707s-0.512,0.195-0.707,0
				L2,14.707v7.586l0.146-0.146c0.195-0.195,0.512-0.195,0.707,0C2.951,22.244,3,22.372,3,22.5s-0.049,0.256-0.146,0.354l-1,1
				c-0.09,0.09-0.206,0.139-0.324,0.146H1.528l0,0C1.519,24,1.51,24,1.5,24z"/>
		</g>
		<path d="M9,14v9.5C9,23.776,9.224,24,9.5,24H19v-7.5c0-0.276,0.224-0.5,0.5-0.5h4c0.276,0,0.5,0.224,0.5,0.5V24h3.5
			c0.276,0,0.5-0.224,0.5-0.5V14H9z M17,18.5c0,0.276-0.224,0.5-0.5,0.5h-3c-0.276,0-0.5-0.224-0.5-0.5v-3
			c0-0.276,0.224-0.5,0.5-0.5h3c0.276,0,0.5,0.224,0.5,0.5V18.5z"/>
	</g>
</g>
<g id="Roof_Plan">
</g>
<g id="House_Construction">
</g>
<g id="Building_Construction">
</g>
<g id="Work_Table">
</g>
<g id="Table_Cad">
</g>
<g id="House_Plan">
</g>
<g id="Tape_Measure">
</g>
<g id="Cad_Paper">
</g>
<g id="Cad_Papers">
</g>
<g id="Stairs">
</g>
<g id="Pillar">
</g>
<g id="Bricks">
</g>
<g id="Pantheon">
</g>
<g id="House">
</g>
<g id="Skyscraper">
</g>
<g id="Building">
</g>
</svg>
