<?xml version="1.0" encoding="iso-8859-1"?>
<!-- Generator: Adobe Illustrator 19.2.1, SVG Export Plug-In . SVG Version: 6.00 Build 0)  -->
<svg version="1.1" xmlns="http://www.w3.org/2000/svg" xmlns:xlink="http://www.w3.org/1999/xlink" x="0px" y="0px"
	 viewBox="0 0 24 24" style="enable-background:new 0 0 24 24;" xml:space="preserve">
<g id="Cutting_Board_1">
</g>
<g id="Cutting_Board_2">
</g>
<g id="Chef_x27_s_Hat_1">
</g>
<g id="Chef_x27_s_Hat_2">
</g>
<g id="Kitchen_Scale">
</g>
<g id="Measuring_Cup">
</g>
<g id="Pot_1">
</g>
<g id="Pot_2">
</g>
<g id="Wok_1">
</g>
<g id="Wok_2">
</g>
<g id="Teapot">
</g>
<g id="Plate">
</g>
<g id="Sauce_Boat">
</g>
<g id="Cauldron">
</g>
<g id="Cookbook">
</g>
<g id="Salt_Pot">
</g>
<g id="Pepper_Pot_1">
</g>
<g id="Pepper_Pot_2">
</g>
<g id="Egg_Timer">
</g>
<g id="Olive_Oil_Pot">
</g>
<g id="Pancake_Griddle">
</g>
<g id="Pan">
</g>
<g id="Kettle">
</g>
<g id="Microwave">
</g>
<g id="Cooker">
</g>
<g id="Meat_Grinder">
</g>
<g id="Coffee_Maker">
</g>
<g id="Household_Mixer">
</g>
<g id="Stand_Mixer">
</g>
<g id="Hand_Blender">
</g>
<g id="Blender">
</g>
<g id="Cooker_Hood">
	<g>
		<path d="M4,19.488c0-0.276-0.224-0.5-0.5-0.5S3,19.211,3,19.488c0,0.786,0.399,1.195,0.691,1.493C3.92,21.215,4,21.313,4,21.488
			c0,0.332-0.296,0.727-0.534,1.045C3.216,22.867,3,23.155,3,23.488c0,0.276,0.221,0.524,0.497,0.524c0.276,0,0.497-0.2,0.497-0.476
			c0.023-0.072,0.167-0.264,0.272-0.404C4.576,22.719,5,22.152,5,21.488c0-0.598-0.343-0.95-0.594-1.206
			C4.162,20.032,4,19.866,4,19.488z"/>
		<path d="M3,11.988h17c0.189,0,0.362-0.107,0.447-0.276c0.084-0.169,0.066-0.372-0.047-0.523L16,5.321V0.488
			c0-0.276-0.224-0.5-0.5-0.5h-8c-0.276,0-0.5,0.224-0.5,0.5v4.834l-4.4,5.867c-0.114,0.151-0.132,0.354-0.047,0.523
			C2.638,11.881,2.811,11.988,3,11.988z"/>
		<path d="M9,19.488c0-0.276-0.224-0.5-0.5-0.5S8,19.211,8,19.488c0,0.786,0.399,1.195,0.691,1.493C8.92,21.215,9,21.313,9,21.488
			c0,0.332-0.296,0.727-0.534,1.045C8.216,22.867,8,23.155,8,23.488c0,0.276,0.221,0.524,0.497,0.524c0.276,0,0.497-0.2,0.497-0.476
			c0.023-0.072,0.167-0.264,0.272-0.404C9.576,22.719,10,22.152,10,21.488c0-0.598-0.343-0.95-0.594-1.206
			C9.162,20.032,9,19.866,9,19.488z"/>
		<path d="M14,19.488c0-0.276-0.224-0.5-0.5-0.5s-0.5,0.224-0.5,0.5c0,0.786,0.399,1.195,0.691,1.493
			C13.92,21.215,14,21.313,14,21.488c0,0.332-0.296,0.727-0.534,1.045C13.216,22.867,13,23.155,13,23.488
			c0,0.276,0.221,0.524,0.497,0.524c0.276,0,0.497-0.2,0.497-0.476c0.023-0.072,0.167-0.264,0.272-0.404
			c0.31-0.414,0.734-0.98,0.734-1.645c0-0.598-0.343-0.95-0.594-1.206C14.162,20.032,14,19.866,14,19.488z"/>
		<path d="M19,19.488c0-0.276-0.224-0.5-0.5-0.5s-0.5,0.224-0.5,0.5c0,0.786,0.399,1.195,0.691,1.493
			C18.92,21.215,19,21.313,19,21.488c0,0.332-0.296,0.727-0.534,1.045C18.216,22.867,18,23.155,18,23.488
			c0,0.276,0.221,0.524,0.497,0.524c0.276,0,0.497-0.2,0.497-0.476c0.023-0.072,0.167-0.264,0.272-0.404
			c0.31-0.414,0.734-0.98,0.734-1.645c0-0.598-0.343-0.95-0.594-1.206C19.162,20.032,19,19.866,19,19.488z"/>
		<path d="M21.5,12.988h-20c-0.827,0-1.5,0.673-1.5,1.5v2c0,0.827,0.673,1.5,1.5,1.5h20c0.827,0,1.5-0.673,1.5-1.5v-2
			C23,13.661,22.327,12.988,21.5,12.988z M6.5,15.988h-4c-0.276,0-0.5-0.224-0.5-0.5s0.224-0.5,0.5-0.5h4c0.276,0,0.5,0.224,0.5,0.5
			S6.776,15.988,6.5,15.988z M15.5,15.988c-0.276,0-0.5-0.224-0.5-0.5c0-0.276,0.224-0.5,0.5-0.5s0.5,0.224,0.5,0.5
			C16,15.764,15.776,15.988,15.5,15.988z M19.5,15.988c-0.276,0-0.5-0.224-0.5-0.5c0-0.276,0.224-0.5,0.5-0.5s0.5,0.224,0.5,0.5
			C20,15.764,19.776,15.988,19.5,15.988z"/>
	</g>
</g>
<g id="Refrigerator">
</g>
<g id="Freezer">
</g>
<g id="Apron">
</g>
<g id="Oven_Gloves">
</g>
<g id="Rolling_Pin">
</g>
<g id="Sieve">
</g>
<g id="Tea_Sieve">
</g>
<g id="Grater">
</g>
<g id="Knife_Holder">
</g>
<g id="Funnel">
</g>
<g id="Kitchen_Clock">
</g>
<g id="Lemon_Juicer">
</g>
<g id="Pastry_Bag_1">
</g>
<g id="Pastry_Bag_2">
</g>
<g id="Corkscrew">
</g>
<g id="Bottle_Opener">
</g>
<g id="Service">
</g>
<g id="Chopsticks">
</g>
<g id="Hatchet">
</g>
<g id="Filleting_Knife">
</g>
<g id="Bread_Knife">
</g>
<g id="Herb_Knife">
</g>
<g id="Whetting">
</g>
<g id="Cake_Knife">
</g>
<g id="Layer_58">
</g>
<g id="Ladle">
</g>
<g id="Sauce_Spoon">
</g>
<g id="Egg_Beater">
</g>
<g id="Meat_Fork">
</g>
<g id="Kitchen_Spoon_1">
</g>
<g id="Kitchen_Spoon_2">
</g>
<g id="Pizza_Cutter">
</g>
<g id="Potato_Musher">
</g>
<g id="Peeler">
</g>
<g id="Honey_Dipper">
</g>
<g id="Fork">
</g>
<g id="Knife">
</g>
<g id="Spoon">
</g>
<g id="Cutlery_Set">
</g>
<g id="Sugar_Bowl">
</g>
<g id="Matches">
</g>
<g id="Cezve">
</g>
</svg>
