<?xml version="1.0" encoding="iso-8859-1"?>
<!-- Generator: Adobe Illustrator 19.2.1, SVG Export Plug-In . SVG Version: 6.00 Build 0)  -->
<svg version="1.1" xmlns="http://www.w3.org/2000/svg" xmlns:xlink="http://www.w3.org/1999/xlink" x="0px" y="0px"
	 viewBox="0 0 30 30" style="enable-background:new 0 0 30 30;" xml:space="preserve">
<g id="Sun_Light">
</g>
<g id="Sunglasses">
</g>
<g id="T-Shirt_1">
</g>
<g id="T-Shirt_2">
</g>
<g id="Mini_Dress">
</g>
<g id="Flip-Flops">
</g>
<g id="Temperature">
</g>
<g id="Hot_Temperature">
</g>
<g id="Ice_Lolly">
</g>
<g id="Icecream">
</g>
<g id="Limonade_1">
</g>
<g id="Limonade_2">
</g>
<g id="Hat">
</g>
<g id="Straw_Hat">
</g>
<g id="Deckchair">
</g>
<g id="Sunshade">
</g>
<g id="Suncream">
</g>
<g id="Suntan_Oil">
</g>
<g id="Swimming_Trunks">
</g>
<g id="Bikini">
</g>
<g id="Pool">
</g>
<g id="Pool_Ladder">
</g>
<g id="Grill">
</g>
<g id="Kite_1">
</g>
<g id="Kite_2">
</g>
<g id="Badminton">
</g>
<g id="Cooler">
	<g>
		<g id="XMLID_208_">
			<path d="M15,19c-2.205,0-3.999-1.794-3.999-4c0-2.206,1.794-4,3.999-4s3.999,1.794,3.999,4C18.999,17.206,17.205,19,15,19z
				 M15,12c-1.653,0-2.999,1.346-2.999,3s1.346,3,2.999,3s2.999-1.346,2.999-3S16.653,12,15,12z"/>
		</g>
		<g>
			<path d="M12.868,30.008c-1.393,0-2.742-0.218-3.724-0.716C7.844,28.63,7.57,27.675,7.57,26.989c0-1.251,0.758-1.808,1.636-2.452
				c1.26-0.925,2.985-2.192,4.401-6.33c0.089-0.26,0.373-0.401,0.635-0.311c0.261,0.089,0.4,0.373,0.311,0.635
				c-1.517,4.434-3.466,5.865-4.755,6.813c-0.873,0.641-1.228,0.93-1.228,1.646c0,0.598,0.336,1.06,1.027,1.411
				c2.135,1.084,6.674,0.602,8.258-0.556c0.583-0.426,0.914-1.035,1.012-1.86c0.284-2.397-1.548-5.783-2.938-7.422
				c-0.179-0.21-0.153-0.525,0.058-0.704c0.21-0.179,0.526-0.154,0.704,0.058c1.404,1.653,3.507,5.339,3.17,8.186
				c-0.13,1.102-0.605,1.959-1.415,2.551C17.316,29.477,15.041,30.008,12.868,30.008z"/>
		</g>
		<g>
			<path d="M4.527,19.91c-0.212,0-0.42-0.012-0.625-0.035C2.8,19.746,1.94,19.272,1.348,18.466
				c-1.354-1.861-1.915-6.806-0.637-9.315c0.661-1.298,1.615-1.571,2.3-1.571c1.252,0,1.809,0.759,2.453,1.639
				c0.924,1.261,2.19,2.988,6.32,4.409c0.261,0.09,0.399,0.374,0.31,0.635s-0.369,0.4-0.636,0.31C7.032,13.05,5.604,11.1,4.657,9.81
				C4.017,8.935,3.728,8.58,3.011,8.58c-0.597,0-1.058,0.335-1.409,1.024c-1.086,2.132-0.604,6.679,0.554,8.271
				c0.426,0.58,1.035,0.909,1.862,1.006c2.402,0.266,5.788-1.552,7.419-2.942c0.208-0.179,0.523-0.154,0.705,0.056
				c0.179,0.21,0.153,0.525-0.057,0.705C10.557,18.004,7.277,19.91,4.527,19.91z"/>
		</g>
		<g>
			<path d="M13.68,12.261c-0.142,0-0.283-0.061-0.382-0.177c-1.399-1.658-3.493-5.345-3.156-8.185c0.13-1.1,0.605-1.958,1.412-2.551
				c1.854-1.352,6.791-1.916,9.302-0.639c1.301,0.661,1.574,1.617,1.574,2.302c0,1.25-0.758,1.807-1.635,2.452
				c-1.261,0.925-2.986,2.192-4.402,6.33c-0.089,0.261-0.373,0.401-0.635,0.312c-0.261-0.089-0.4-0.374-0.311-0.635
				c1.517-4.435,3.466-5.866,4.755-6.813c0.873-0.641,1.228-0.93,1.228-1.646c0-0.598-0.336-1.059-1.027-1.41
				c-2.135-1.085-6.673-0.603-8.258,0.554c-0.582,0.427-0.912,1.037-1.01,1.862c-0.284,2.391,1.541,5.779,2.927,7.421
				c0.179,0.211,0.151,0.527-0.06,0.705C13.908,12.222,13.794,12.261,13.68,12.261z"/>
		</g>
		<g>
			<path d="M26.989,22.43c-1.251,0-1.808-0.758-2.452-1.636c-0.925-1.26-2.192-2.985-6.33-4.401c-0.261-0.089-0.4-0.373-0.311-0.635
				c0.089-0.261,0.374-0.4,0.635-0.311c4.434,1.517,5.865,3.466,6.813,4.755c0.641,0.873,0.93,1.228,1.646,1.228
				c0.597,0,1.058-0.335,1.409-1.024c1.086-2.132,0.604-6.679-0.554-8.271c-0.428-0.581-1.038-0.912-1.865-1.008
				c-2.398-0.274-5.783,1.554-7.416,2.944c-0.209,0.18-0.524,0.155-0.705-0.056c-0.179-0.21-0.153-0.526,0.057-0.705
				c1.647-1.404,5.335-3.508,8.18-3.177c1.103,0.128,1.963,0.603,2.558,1.411c1.354,1.861,1.915,6.807,0.637,9.315
				C28.628,22.157,27.674,22.43,26.989,22.43z"/>
		</g>
	</g>
</g>
<g id="Strand_Bag">
</g>
<g id="Towel">
</g>
<g id="Strand_Ball">
</g>
<g id="Beach_Sign">
</g>
<g id="Toos">
</g>
<g id="Bucket">
</g>
<g id="Sand_Castle">
</g>
<g id="Shell_1">
</g>
<g id="Shell_2">
</g>
<g id="Surf_Board">
</g>
<g id="Float">
</g>
<g id="Vacation_Photo">
</g>
<g id="Summer_Time">
</g>
<g id="Boat">
</g>
<g id="Lifebuoy">
</g>
<g id="Lighthouse">
</g>
<g id="Sunset">
</g>
<g id="Dolphin">
</g>
<g id="Starfish">
</g>
<g id="Diving_Mask">
</g>
<g id="Sailboat">
</g>
<g id="Captin_Hat">
</g>
<g id="Eudder">
</g>
</svg>
