<?xml version="1.0" encoding="iso-8859-1"?>
<!-- Generator: Adobe Illustrator 19.2.1, SVG Export Plug-In . SVG Version: 6.00 Build 0)  -->
<svg version="1.1" xmlns="http://www.w3.org/2000/svg" xmlns:xlink="http://www.w3.org/1999/xlink" x="0px" y="0px"
	 viewBox="0 0 24 24" style="enable-background:new 0 0 24 24;" xml:space="preserve">
<g id="Add_User">
</g>
<g id="Remove_User">
</g>
<g id="Delete_User">
</g>
<g id="Done">
</g>
<g id="At_Symbol">
</g>
<g id="Question">
</g>
<g id="Answer">
</g>
<g id="Bring_Up">
</g>
<g id="Bring_Down">
</g>
<g id="Dismiss_User">
</g>
<g id="User_Speed">
</g>
<g id="User_Settings">
</g>
<g id="User_Refresh">
</g>
<g id="User_Time">
</g>
<g id="Dollar">
</g>
<g id="Euro">
</g>
<g id="Pound">
</g>
<g id="Bitcoin">
</g>
<g id="Global_User">
</g>
<g id="Waiting_User">
</g>
<g id="Writing_User_2">
</g>
<g id="Search_User">
</g>
<g id="Lock_User">
</g>
<g id="Mark_User">
</g>
<g id="Share_User">
</g>
<g id="Shopping">
</g>
<g id="User_Download">
</g>
<g id="User_Upload">
</g>
<g id="User_Statistics">
</g>
<g id="User_Defense">
</g>
<g id="User_Car">
</g>
<g id="User_Home">
</g>
<g id="Park">
</g>
<g id="Recicle_User">
</g>
<g id="Wifi">
</g>
<g id="Attach_User">
</g>
<g id="Disabled_User">
</g>
<g id="User_Card">
</g>
<g id="Gaming">
</g>
<g id="User_Cloud">
</g>
<g id="User_Database">
</g>
<g id="Copyright">
	<g>
		<path d="M15.726,17.294l-0.824-0.206l-0.348-1.393c0.877-0.906,1.506-2.102,1.771-3.343c0.091-0.075,0.156-0.182,0.176-0.306
			c0.006-0.034,0.011-0.067,0.016-0.1c0.571-0.158,1.013-0.647,1.089-1.26l0.25-2c0.053-0.422-0.077-0.849-0.357-1.169
			c-0.164-0.188-0.371-0.33-0.6-0.417l0.092-1.883l0.374-0.375c0.563-0.599,1.03-1.626,0.054-3.116C16.668,0.581,15.394,0,13.63,0
			c-0.696,0-2.298,0-3.79,1.002C5.58,1.091,5,3.07,5,5c0,0.449,0.109,1.46,0.181,2.07C4.924,7.151,4.69,7.301,4.508,7.507
			C4.224,7.83,4.091,8.259,4.144,8.686l0.25,2c0.082,0.652,0.577,1.165,1.203,1.287c0.207,1.375,0.873,2.724,1.839,3.722
			l-0.348,1.393l-3.83,0.958C1.066,18.593,0,20.377,0,23.5c0,0.133,0.053,0.26,0.146,0.354S0.368,24,0.5,24l14.003-0.001
			c0.275,0,0.499-0.223,0.5-0.498c0-0.097,0.006-0.196,0.026-0.295l1.066-5.329C16.147,17.615,15.985,17.358,15.726,17.294z"/>
		<path d="M23.658,13.026l-3-1c-0.144-0.048-0.3-0.028-0.428,0.053c-0.127,0.082-0.211,0.216-0.228,0.366l-0.421,3.787l-1.358-0.679
			c-0.139-0.07-0.303-0.07-0.443-0.002c-0.14,0.068-0.24,0.198-0.271,0.351l-1.5,7.5c-0.047,0.234,0.078,0.469,0.299,0.56
			C16.371,23.988,16.435,24,16.5,24c0.163,0,0.321-0.08,0.416-0.223l2.755-4.133l1.605,0.803c0.132,0.066,0.286,0.071,0.42,0.012
			c0.135-0.058,0.238-0.172,0.281-0.313l2-6.5C24.058,13.387,23.916,13.111,23.658,13.026z"/>
	</g>
</g>
<g id="No_Copyright">
</g>
<g id="Creative_Commun">
</g>
<g id="Eco-Friendly">
</g>
<g id="Percentage">
</g>
<g id="User_Love">
</g>
<g id="User_Place">
</g>
<g id="User_Key">
</g>
<g id="Sleeping">
</g>
<g id="Add_User_2">
</g>
<g id="Remove_User_2">
</g>
<g id="Delete_User_2">
</g>
<g id="Done_2">
</g>
<g id="At_Symbol_2">
</g>
<g id="Question_2">
</g>
<g id="Answer_2">
</g>
<g id="Bring_Up_2">
</g>
<g id="Bring_Down_2">
</g>
<g id="Dismiss_User_2">
</g>
<g id="User_Speed_2">
</g>
<g id="User_Settings_2">
</g>
<g id="Refresh_2">
</g>
<g id="Time_2">
</g>
<g id="Dollar_2">
</g>
<g id="Euro_2">
</g>
<g id="Pound_2">
</g>
<g id="Bitcoin_2">
</g>
<g id="Global_User_2">
</g>
<g id="Waiting_User_2">
</g>
<g id="Writing_User">
</g>
<g id="Search_User_2">
</g>
<g id="Lock_User_2">
</g>
<g id="Mark_User_2">
</g>
<g id="Share_User_2">
</g>
<g id="Shopping_2">
</g>
<g id="Download_2">
</g>
<g id="Upload_2">
</g>
<g id="User_Statistics_2">
</g>
<g id="User_Defense_2">
</g>
<g id="Car_2">
</g>
<g id="Home_2">
</g>
<g id="Park_2">
</g>
<g id="Recicle_User_2">
</g>
<g id="User_Wifi">
</g>
<g id="Attach_2">
</g>
<g id="Disabled_User_2">
</g>
<g id="User_Card_2">
</g>
<g id="Gaming_2">
</g>
<g id="Cloud_2">
</g>
<g id="Database_2">
</g>
<g id="Copyright_2">
</g>
<g id="No_Copyright_2">
</g>
<g id="Creative_Commun_2">
</g>
<g id="Eco-Friendly_2">
</g>
<g id="Percentage_2">
</g>
<g id="User_Love_2">
</g>
<g id="User_Rate_2">
</g>
<g id="User_Key_2">
</g>
<g id="Sleeping_2">
</g>
</svg>
