<?xml version="1.0" encoding="iso-8859-1"?>
<!-- Generator: Adobe Illustrator 19.2.1, SVG Export Plug-In . SVG Version: 6.00 Build 0)  -->
<svg version="1.1" xmlns="http://www.w3.org/2000/svg" xmlns:xlink="http://www.w3.org/1999/xlink" x="0px" y="0px"
	 viewBox="0 0 30 30" style="enable-background:new 0 0 30 30;" xml:space="preserve">
<g id="Event">
</g>
<g id="Event_2">
</g>
<g id="Add_Event">
</g>
<g id="Remove_Event">
</g>
<g id="Event_Reminder">
</g>
<g id="Wine_Glass">
</g>
<g id="Toast">
</g>
<g id="Champagne">
</g>
<g id="Champagne_Open">
</g>
<g id="Alcohol_Drink">
</g>
<g id="Beer_Glass">
</g>
<g id="Party_Cake">
</g>
<g id="Pizza_Food">
</g>
<g id="Disco_Ball">
</g>
<g id="Equalizer">
</g>
<g id="DJ">
</g>
<g id="Tent">
</g>
<g id="Firework_1">
</g>
<g id="Firework_2">
</g>
<g id="Party_Glasses">
</g>
<g id="Barbeque">
</g>
<g id="Horn">
</g>
<g id="Speaker">
</g>
<g id="VIP">
</g>
<g id="Event_Ticket">
</g>
<g id="VIP_Ticket">
</g>
<g id="Popcorn">
</g>
<g id="Cord">
	<path d="M27.5,24H27V8.5c0-0.277-0.096-0.546-0.252-0.78C27.779,7.245,28.5,6.208,28.5,5c0-1.654-1.346-3-3-3s-3,1.346-3,3
		c0,1.071,0.568,2.005,1.415,2.536C22.167,11.298,18.215,13,15,13c-3.904,0-7.365-2.141-8.917-5.463C6.931,7.007,7.5,6.072,7.5,5
		c0-1.654-1.346-3-3-3s-3,1.346-3,3c0,1.208,0.721,2.245,1.752,2.72C3.096,7.954,3,8.223,3,8.5V24H2.5C1.121,24,0,25.122,0,26.5v1
		C0,27.776,0.224,28,0.5,28h8C8.776,28,9,27.776,9,27.5v-1C9,25.122,7.879,24,6.5,24H6V9.415C7.955,12.247,11.302,14,15,14
		c3.644,0,7.044-1.789,9-4.593V24h-0.5c-1.379,0-2.5,1.122-2.5,2.5v1c0,0.276,0.224,0.5,0.5,0.5h8c0.276,0,0.5-0.224,0.5-0.5v-1
		C30,25.122,28.879,24,27.5,24z"/>
</g>
<g id="Invitation_1">
</g>
<g id="Invitation_2">
</g>
</svg>
