<?xml version="1.0" encoding="iso-8859-1"?>
<!-- Generator: Adobe Illustrator 19.2.1, SVG Export Plug-In . SVG Version: 6.00 Build 0)  -->
<svg version="1.1" xmlns="http://www.w3.org/2000/svg" xmlns:xlink="http://www.w3.org/1999/xlink" x="0px" y="0px"
	 viewBox="0 0 24 24" style="enable-background:new 0 0 24 24;" xml:space="preserve">
<g id="Armchair_1">
</g>
<g id="Armchair_2">
</g>
<g id="Armchair_3">
</g>
<g id="Armchair_4">
</g>
<g id="Sofa_1">
</g>
<g id="Sofa_2">
</g>
<g id="Sofa_3">
</g>
<g id="Sofa_4">
</g>
<g id="Sofa_5">
</g>
<g id="Sofa_6">
</g>
<g id="Desk_1">
</g>
<g id="Desk_2">
</g>
<g id="Desk_3">
</g>
<g id="Lamp">
</g>
<g id="Bed_1">
</g>
<g id="Bunk_Beds">
</g>
<g id="Bed_2">
</g>
<g id="Bed_3">
</g>
<g id="Bed_4">
</g>
<g id="Bed_5">
</g>
<g id="Table_1">
</g>
<g id="Table_2">
</g>
<g id="Table_3">
</g>
<g id="Table_4">
</g>
<g id="Rug_1">
</g>
<g id="Rug_2">
</g>
<g id="Rug_3">
</g>
<g id="Tub_1">
</g>
<g id="Tub_2">
</g>
<g id="Jacuzzi">
</g>
<g id="Corner_Tub">
	<g>
		<path d="M23.489,0.011H1.515c-0.41,0-0.809,0.17-1.092,0.467C0.14,0.772-0.005,1.156,0.012,1.559v0
			c0.529,12.048,10.381,21.899,22.429,22.429c0.021,0.001,0.043,0.001,0.065,0.001c0.379,0,0.737-0.145,1.016-0.412
			c0.296-0.284,0.467-0.682,0.467-1.092V0.511C23.989,0.234,23.766,0.011,23.489,0.011z M20.989,17.774c0,0.794-0.365,1.523-1,2.001
			c-0.443,0.333-0.966,0.506-1.501,0.506c-0.234,0-0.471-0.033-0.704-0.101C11.103,18.247,5.753,12.896,3.82,6.216
			C3.599,5.451,3.746,4.647,4.225,4.011c0.478-0.635,1.207-1,2.001-1h12.263c1.378,0,2.5,1.122,2.5,2.5V17.774z"/>
		<path d="M18.489,4.011H6.226c-0.477,0-0.915,0.219-1.202,0.601C4.736,4.995,4.647,5.478,4.781,5.938
			c1.838,6.354,6.928,11.443,13.282,13.282c0.46,0.134,0.943,0.044,1.326-0.244c0.382-0.287,0.601-0.725,0.601-1.202V5.511
			C19.989,4.684,19.316,4.011,18.489,4.011z M18.489,6.011c-0.276,0-0.5-0.224-0.5-0.5c0-0.276,0.224-0.5,0.5-0.5s0.5,0.224,0.5,0.5
			C18.989,5.787,18.765,6.011,18.489,6.011z"/>
	</g>
</g>
<g id="Shower_Tray">
</g>
<g id="Sink_1">
</g>
<g id="Sink_2">
</g>
<g id="Toilette">
</g>
<g id="Stove">
</g>
<g id="Kitchen_Sink">
</g>
<g id="Island">
</g>
<g id="Eat-in_Kitchen">
</g>
<g id="Tv_Stand">
</g>
</svg>
