<?xml version="1.0" encoding="iso-8859-1"?>
<!-- Generator: Adobe Illustrator 19.2.1, SVG Export Plug-In . SVG Version: 6.00 Build 0)  -->
<svg version="1.1" xmlns="http://www.w3.org/2000/svg" xmlns:xlink="http://www.w3.org/1999/xlink" x="0px" y="0px"
	 viewBox="0 0 30 30" style="enable-background:new 0 0 30 30;" xml:space="preserve">
<g id="Restaurant_sign_1">
</g>
<g id="Restaurant_Sign_2">
</g>
<g id="Restaurant_Sign_3">
</g>
<g id="Hot_Drink_1">
</g>
<g id="Hot_Drink_2">
</g>
<g id="Cocktail">
</g>
<g id="Shot_Glasses">
</g>
<g id="Chilled_Champagne">
</g>
<g id="Wine">
</g>
<g id="Wine_List">
</g>
<g id="Menu">
</g>
<g id="Menu_2">
</g>
<g id="Salver">
</g>
<g id="Soup">
</g>
<g id="Sushi">
</g>
<g id="Pizza">
</g>
<g id="Pizza_Slice">
</g>
<g id="Fish">
</g>
<g id="Sausage">
</g>
<g id="Course">
	<g>
		<g id="XMLID_222_">
			<g id="XMLID_224_">
				<path d="M23.799,22.935c-0.649,0-1.681-0.336-1.681-1.238c0-0.412,0-0.619-0.592-1.211c-2.397-2.397-3.972-3.853-5.618-3.853
					c-2.32,0-8.343-1.302-8.343-7.245c0-1.703,2.207-5.105,5.104-5.105c5.943,0,7.245,6.07,7.245,8.409
					c0,1.62,1.378,3.077,3.814,5.513c0.514,0.513,0.717,0.621,0.798,0.621c0.68,0,1.69,0.348,1.69,1.307
					c0,0.841-0.361,1.343-0.797,1.546C25.32,22.318,24.93,22.935,23.799,22.935z M12.67,5.283c-2.162,0-4.104,2.788-4.104,4.105
					c0,6.075,7.27,6.245,7.343,6.245c2.033,0,3.746,1.566,6.325,4.146c0.757,0.757,0.885,1.204,0.885,1.918
					c0,0.075,0.342,0.238,0.681,0.238c0.428,0,0.651-0.029,0.651-0.651c0-0.276,0.224-0.5,0.5-0.5c0.129,0,0.268-0.249,0.268-0.651
					c0-0.215-0.494-0.307-0.69-0.307c-0.494,0-0.926-0.335-1.505-0.914c-2.623-2.623-4.107-4.206-4.107-6.22
					C18.915,12.617,18.745,5.283,12.67,5.283z"/>
			</g>
			<g id="XMLID_223_">
				<path d="M18.427,17.533c-0.01,0-0.02,0-0.03,0c-0.271-0.017-0.479-0.239-0.47-0.51c0.019-0.53,0.45-1.318,1.561-1.318
					c0.538,0,0.538-0.104,0.538-0.247c0-0.276,0.224-0.5,0.5-0.5s0.5,0.224,0.5,0.5c0,0.569-0.267,1.247-1.538,1.247
					c-0.438,0-0.547,0.198-0.562,0.365C18.903,17.33,18.685,17.533,18.427,17.533z"/>
			</g>
		</g>
		<g id="XMLID_221_">
			<path d="M15,30.5c-8.271,0-15-6.729-15-15s6.729-15,15-15s15,6.729,15,15S23.271,30.5,15,30.5z M15,1.5c-7.72,0-14,6.28-14,14
				s6.28,14,14,14s14-6.28,14-14S22.72,1.5,15,1.5z"/>
		</g>
		<g id="XMLID_220_">
			<path d="M23.798,19.45c-0.061,0-0.123-0.011-0.183-0.035c-0.257-0.101-0.384-0.391-0.283-0.648
				c0.414-1.054,0.624-2.153,0.624-3.267c0-4.325-3.087-8.027-7.34-8.803c-0.271-0.049-0.451-0.31-0.402-0.582
				c0.049-0.272,0.312-0.456,0.582-0.402c4.729,0.863,8.16,4.979,8.16,9.787c0,1.239-0.233,2.461-0.692,3.632
				C24.186,19.33,23.997,19.45,23.798,19.45z"/>
		</g>
		<g id="XMLID_219_">
			<path d="M13.424,26.717c-0.328,0-0.646-0.084-0.945-0.25c-0.302,0.167-0.618,0.25-0.946,0.25c-0.76,0-1.498-0.718-1.938-1.146
				c-0.048-0.046-0.09-0.088-0.125-0.122c-1.064-0.088-1.903-0.982-1.903-2.069c0-0.419,0.128-0.816,0.366-1.156
				c-0.236-0.3-0.366-0.664-0.366-1.05c0-1.103,1.081-1.989,2.152-1.71c0.4-0.785,1.221-1.311,2.13-1.311
				c0.878,0,1.675,0.497,2.086,1.269c0.925,0.076,1.727,0.689,2.045,1.565c0.487,0.326,0.782,0.863,0.782,1.449
				c0,0.821-0.564,1.512-1.325,1.707c0.043,0.163,0.064,0.33,0.064,0.5C15.5,25.786,14.568,26.717,13.424,26.717z M12.479,25.37
				c0.107,0,0.216,0.035,0.306,0.104c0.786,0.606,1.716-0.025,1.716-0.833c0-0.313-0.151-0.552-0.279-0.698
				c-0.148-0.171-0.164-0.42-0.038-0.608c0.127-0.188,0.368-0.267,0.577-0.194c0.571,0.191,1.001-0.216,1.001-0.707
				c0-0.28-0.163-0.536-0.427-0.669c-0.127-0.064-0.221-0.18-0.258-0.318c-0.162-0.609-0.712-1.035-1.337-1.035
				c0.006,0.008-0.042,0.018-0.092,0.021c-0.249,0.01-0.433-0.123-0.507-0.336c-0.198-0.575-0.706-0.946-1.293-0.946
				c-0.647,0-1.218,0.459-1.356,1.092c-0.035,0.161-0.146,0.294-0.299,0.356c-0.152,0.063-0.324,0.045-0.464-0.044
				c-0.147-0.097-0.275-0.143-0.402-0.143c-0.42,0-0.761,0.341-0.761,0.761c0,0.238,0.126,0.46,0.346,0.61
				c0.129,0.088,0.209,0.23,0.217,0.386c0.009,0.155-0.056,0.306-0.174,0.407c-0.251,0.214-0.389,0.5-0.389,0.804
				c0,0.593,0.482,1.076,1.076,1.076c0.24,0,0.377,0.133,0.649,0.397c0.266,0.259,0.888,0.864,1.241,0.864
				c0.215,0,0.431-0.082,0.642-0.244C12.264,25.404,12.371,25.37,12.479,25.37z"/>
		</g>
		<g id="XMLID_218_">
			<path d="M13.424,26.717c-0.328,0-0.646-0.084-0.945-0.25c-0.302,0.167-0.618,0.25-0.946,0.25c-0.76,0-1.498-0.718-1.938-1.146
				c-0.048-0.046-0.09-0.088-0.125-0.122c-1.064-0.088-1.903-0.982-1.903-2.069c0-0.419,0.128-0.816,0.366-1.156
				c-0.236-0.3-0.366-0.664-0.366-1.05c0-1.103,1.081-1.989,2.152-1.71c0.4-0.785,1.221-1.311,2.13-1.311
				c0.878,0,1.675,0.497,2.086,1.269c0.925,0.076,1.727,0.689,2.045,1.565c0.487,0.326,0.782,0.863,0.782,1.449
				c0,0.821-0.564,1.512-1.325,1.707c0.043,0.163,0.064,0.33,0.064,0.5C15.5,25.786,14.568,26.717,13.424,26.717z M12.479,25.37
				c0.107,0,0.216,0.035,0.306,0.104c0.786,0.606,1.716-0.025,1.716-0.833c0-0.313-0.151-0.552-0.279-0.698
				c-0.148-0.171-0.164-0.42-0.038-0.608c0.127-0.188,0.368-0.267,0.577-0.194c0.571,0.191,1.001-0.216,1.001-0.707
				c0-0.28-0.163-0.536-0.427-0.669c-0.127-0.064-0.221-0.18-0.258-0.318c-0.162-0.609-0.712-1.035-1.337-1.035
				c0.006,0.008-0.042,0.018-0.092,0.021c-0.249,0.01-0.433-0.123-0.507-0.336c-0.198-0.575-0.706-0.946-1.293-0.946
				c-0.647,0-1.218,0.459-1.356,1.092c-0.035,0.161-0.146,0.294-0.299,0.356c-0.152,0.063-0.324,0.045-0.464-0.044
				c-0.147-0.097-0.275-0.143-0.402-0.143c-0.42,0-0.761,0.341-0.761,0.761c0,0.238,0.126,0.46,0.346,0.61
				c0.129,0.088,0.209,0.23,0.217,0.386c0.009,0.155-0.056,0.306-0.174,0.407c-0.251,0.214-0.389,0.5-0.389,0.804
				c0,0.593,0.482,1.076,1.076,1.076c0.24,0,0.377,0.133,0.649,0.397c0.266,0.259,0.888,0.864,1.241,0.864
				c0.215,0,0.431-0.082,0.642-0.244C12.264,25.404,12.371,25.37,12.479,25.37z"/>
		</g>
		<g id="XMLID_217_">
			<path d="M13.424,26.717c-0.328,0-0.646-0.084-0.945-0.25c-0.302,0.167-0.618,0.25-0.946,0.25c-0.76,0-1.498-0.718-1.938-1.146
				c-0.048-0.046-0.09-0.088-0.125-0.122c-1.064-0.088-1.903-0.982-1.903-2.069c0-0.419,0.128-0.816,0.366-1.156
				c-0.236-0.3-0.366-0.664-0.366-1.05c0-1.103,1.081-1.989,2.152-1.71c0.4-0.785,1.221-1.311,2.13-1.311
				c0.878,0,1.675,0.497,2.086,1.269c0.925,0.076,1.727,0.689,2.045,1.565c0.487,0.326,0.782,0.863,0.782,1.449
				c0,0.821-0.564,1.512-1.325,1.707c0.043,0.163,0.064,0.33,0.064,0.5C15.5,25.786,14.568,26.717,13.424,26.717z M12.479,25.37
				c0.107,0,0.216,0.035,0.306,0.104c0.786,0.606,1.716-0.025,1.716-0.833c0-0.313-0.151-0.552-0.279-0.698
				c-0.148-0.171-0.164-0.42-0.038-0.608c0.127-0.188,0.368-0.267,0.577-0.194c0.571,0.191,1.001-0.216,1.001-0.707
				c0-0.28-0.163-0.536-0.427-0.669c-0.127-0.064-0.221-0.18-0.258-0.318c-0.162-0.609-0.712-1.035-1.337-1.035
				c0.006,0.008-0.042,0.018-0.092,0.021c-0.249,0.01-0.433-0.123-0.507-0.336c-0.198-0.575-0.706-0.946-1.293-0.946
				c-0.647,0-1.218,0.459-1.356,1.092c-0.035,0.161-0.146,0.294-0.299,0.356c-0.152,0.063-0.324,0.045-0.464-0.044
				c-0.147-0.097-0.275-0.143-0.402-0.143c-0.42,0-0.761,0.341-0.761,0.761c0,0.238,0.126,0.46,0.346,0.61
				c0.129,0.088,0.209,0.23,0.217,0.386c0.009,0.155-0.056,0.306-0.174,0.407c-0.251,0.214-0.389,0.5-0.389,0.804
				c0,0.593,0.482,1.076,1.076,1.076c0.24,0,0.377,0.133,0.649,0.397c0.266,0.259,0.888,0.864,1.241,0.864
				c0.215,0,0.431-0.082,0.642-0.244C12.264,25.404,12.371,25.37,12.479,25.37z"/>
		</g>
		<g id="XMLID_216_">
			<path d="M15,25.457l-0.063-0.503l0.012-0.5c0.009,0,0.046,0.002,0.055,0.003h0.001c2.832,0,5.441-1.309,7.154-3.591
				c0.166-0.221,0.48-0.264,0.699-0.1c0.221,0.166,0.266,0.479,0.1,0.7C21.055,24.002,18.154,25.457,15,25.457z"/>
		</g>
		<g id="XMLID_215_">
			<path d="M8.487,22.845c-0.124,0-0.248-0.046-0.345-0.138c-1.998-1.901-3.099-4.461-3.099-7.207c0-2.523,0.954-4.934,2.687-6.789
				C7.92,8.509,8.237,8.499,8.437,8.687c0.202,0.188,0.213,0.505,0.024,0.707c-1.559,1.669-2.417,3.838-2.417,6.106
				c0,2.47,0.99,4.772,2.788,6.482c0.2,0.19,0.208,0.507,0.018,0.707C8.751,22.792,8.619,22.845,8.487,22.845z"/>
		</g>
	</g>
</g>
<g id="Dessert">
</g>
<g id="Cutlery">
</g>
<g id="Napkin">
</g>
<g id="Table">
</g>
<g id="Spices">
</g>
<g id="Hot_Sauce">
</g>
<g id="Reserved_1">
</g>
<g id="Reserved_2">
</g>
<g id="Open">
</g>
<g id="Food_Photo">
</g>
<g id="Chef">
</g>
<g id="Bill">
</g>
<g id="Bill_2">
</g>
<g id="Paying_1">
</g>
<g id="Paying_2">
</g>
<g id="Restaurant_Place">
</g>
</svg>
