<?xml version="1.0" encoding="iso-8859-1"?>
<!-- Generator: Adobe Illustrator 19.2.1, SVG Export Plug-In . SVG Version: 6.00 Build 0)  -->
<svg version="1.1" xmlns="http://www.w3.org/2000/svg" xmlns:xlink="http://www.w3.org/1999/xlink" x="0px" y="0px"
	 viewBox="0 0 24 24" style="enable-background:new 0 0 24 24;" xml:space="preserve">
<g id="Man_1">
</g>
<g id="Woman_1">
</g>
<g id="Man_2">
</g>
<g id="Woman_2">
</g>
<g id="Bald_Man">
</g>
<g id="Man_Glasses">
</g>
<g id="Woman_Glasses">
</g>
<g id="Man_Beard">
</g>
<g id="Man_Cap">
</g>
<g id="Woman_Cap">
</g>
<g id="Man_3">
</g>
<g id="Woman_3">
</g>
<g id="Men_4">
</g>
<g id="Woman_4">
</g>
<g id="Business_Man_1">
</g>
<g id="Business_Woman_1">
</g>
<g id="Firefigyhter">
</g>
<g id="Policeman">
</g>
<g id="Criminal">
</g>
<g id="Prisoner">
</g>
<g id="Woodsman">
</g>
<g id="Dispatcher_1">
</g>
<g id="Dispatcher_2">
</g>
<g id="Soldier">
</g>
<g id="Astronaut">
</g>
<g id="Hipster_Guy">
</g>
<g id="Hipster_Girl">
</g>
<g id="Worker">
</g>
<g id="Old_Man">
</g>
<g id="Punk">
</g>
<g id="Diver">
</g>
<g id="Artist">
</g>
<g id="Dictator">
</g>
<g id="Man_Hat">
</g>
<g id="Woman_Hat">
</g>
<g id="Graduated_Man">
</g>
<g id="Graduated_Woman">
</g>
<g id="Avatar_Chef">
</g>
<g id="Waiter">
</g>
<g id="Waitress">
</g>
<g id="Bllboy">
</g>
<g id="Santa">
</g>
<g id="Doctor">
</g>
<g id="Nurse">
</g>
<g id="Captain">
</g>
<g id="Farmer">
</g>
<g id="Maid">
</g>
<g id="Business_Man_2">
</g>
<g id="Business_Woman_2">
</g>
<g id="Cowboy">
	<g>
		<path d="M13.137,19.852c0.086-0.022,0.171-0.047,0.245-0.071c1.694-0.501,3.133-1.901,3.932-3.798
			C17.381,15.995,17.443,16,17.498,16c0.855,0,1.5-1.075,1.5-2.5c0-1.151-0.421-2.075-1.044-2.387
			c-0.016-0.178-0.05-0.346-0.075-0.52C19.594,10.308,21,9.824,21,9c0-0.338-0.013-1.217-4.05-1.719
			c-0.13-1.597-0.534-2.576-1.255-3.019c-0.971-0.593-2.121-0.011-2.961,0.418C12.473,4.812,12.116,4.994,12.001,5
			c-0.12-0.005-0.485-0.191-0.753-0.328C10.414,4.246,9.27,3.66,8.303,4.252C7.582,4.693,7.179,5.675,7.05,7.281
			C3.013,7.784,3,8.662,3,9c0,0.823,1.404,1.307,3.117,1.593c-0.025,0.172-0.059,0.337-0.074,0.515
			c-0.618,0.306-1.045,1.232-1.045,2.392c0,1.425,0.645,2.5,1.5,2.5c0.055,0,0.117-0.005,0.186-0.019
			c0.663,1.578,1.772,2.803,3.094,3.46c0.015,0.008,0.029,0.017,0.045,0.023c0.254,0.123,0.512,0.233,0.78,0.312
			c0.086,0.027,0.171,0.054,0.265,0.077c0.117,0.028,0.234,0.054,0.351,0.073C11.474,19.971,11.733,20,11.998,20
			c0.266,0,0.525-0.029,0.778-0.073C12.896,19.907,13.013,19.882,13.137,19.852z M6.594,14.925C6.531,14.988,6.496,15,6.498,15
			c-0.125-0.001-0.5-0.533-0.5-1.5c0-0.968,0.376-1.5,0.52-1.5c0.267,0,0.486-0.209,0.499-0.475
			c0.014-0.276,0.061-0.531,0.099-0.792C9.127,10.975,11.27,11,12,11c0.73,0,2.871-0.025,4.882-0.266
			c0.038,0.262,0.084,0.519,0.099,0.791C16.993,11.791,17.231,12,17.498,12c0.124,0,0.5,0.532,0.5,1.5s-0.376,1.5-0.494,1.501
			c-0.001-0.001-0.036-0.011-0.1-0.075c-0.122-0.125-0.301-0.178-0.468-0.138c-0.17,0.038-0.307,0.162-0.363,0.326
			c-0.1,0.294-0.222,0.572-0.353,0.84c-0.859-0.21-2.745-1.175-3.969-1.887c-0.152-0.089-0.344-0.089-0.5-0.001
			c-1.237,0.711-3.131,1.675-3.974,1.888c-0.131-0.268-0.253-0.546-0.353-0.84c-0.056-0.164-0.192-0.287-0.362-0.326
			C6.893,14.749,6.716,14.801,6.594,14.925z"/>
		<path d="M24,12c0-6.617-5.383-12-12-12S0,5.383,0,12s5.383,12,12,12c3.172,0,6.052-1.246,8.2-3.262
			c0.008-0.004,0.012-0.013,0.019-0.017C22.541,18.531,24,15.436,24,12z M10,22.5c0-0.276,0.224-0.5,0.5-0.5s0.5,0.224,0.5,0.5
			c0,0.183-0.103,0.337-0.25,0.424c-0.209-0.024-0.414-0.06-0.62-0.095C10.051,22.74,10,22.627,10,22.5z M11.998,21
			c-0.296,0-0.606-0.028-0.949-0.088c-0.136-0.022-0.276-0.053-0.417-0.087c-0.122-0.03-0.227-0.063-0.332-0.096
			c-1.227-0.362-2.332-1.131-3.217-2.189c-0.21,0.159-0.436,0.292-0.686,0.379l-2.033,0.707c-0.068,0.024-0.133,0.054-0.2,0.08
			C2.21,17.719,1,14.999,1,12C1,5.935,5.935,1,12,1s11,4.935,11,11c0,3-1.21,5.72-3.164,7.707c-0.068-0.026-0.133-0.057-0.202-0.081
			l-2.033-0.707c-0.25-0.087-0.478-0.22-0.688-0.38c-0.889,1.06-2.003,1.832-3.248,2.2c-0.063,0.021-0.169,0.052-0.275,0.08
			c-0.143,0.035-0.266,0.059-0.39,0.082v2.048C12.67,22.979,12.338,23,12,23v-2C11.999,21,11.999,21,11.998,21z"/>
		<path d="M9.5,13h1c0.276,0,0.5-0.224,0.5-0.5S10.776,12,10.5,12h-1C9.224,12,9,12.224,9,12.5S9.224,13,9.5,13z"/>
		<path d="M13.5,13h1c0.276,0,0.5-0.224,0.5-0.5S14.776,12,14.5,12h-1c-0.276,0-0.5,0.224-0.5,0.5S13.224,13,13.5,13z"/>
	</g>
</g>
<g id="Anonymus">
</g>
<g id="Batman">
</g>
<g id="Superman">
</g>
<g id="Captain_America">
</g>
<g id="Darth_Vader">
</g>
<g id="Harry_Potter">
</g>
<g id="Anonymus_2">
</g>
<g id="Scream">
</g>
<g id="Jason">
</g>
<g id="Charlie_Chaplin">
</g>
</svg>
