<?xml version="1.0" encoding="iso-8859-1"?>
<!-- Generator: Adobe Illustrator 19.2.1, SVG Export Plug-In . SVG Version: 6.00 Build 0)  -->
<svg version="1.1" xmlns="http://www.w3.org/2000/svg" xmlns:xlink="http://www.w3.org/1999/xlink" x="0px" y="0px"
	 viewBox="0 0 30 30" style="enable-background:new 0 0 30 30;" xml:space="preserve">
<g id="Add_Users">
</g>
<g id="Remove_Users">
</g>
<g id="Delete_Users">
</g>
<g id="Done_3">
</g>
<g id="At_Symbol_3">
</g>
<g id="Question_3">
</g>
<g id="Answer_3">
</g>
<g id="Bring_Up_3">
</g>
<g id="Bring_Down_3">
</g>
<g id="Dismiss_Users">
</g>
<g id="Users_Speed_3">
</g>
<g id="Users_Settings">
</g>
<g id="Refresh_Users">
</g>
<g id="Time_3">
</g>
<g id="Dollar_3">
</g>
<g id="Euro_3">
</g>
<g id="Pound_3">
</g>
<g id="Bitcoin_3">
</g>
<g id="Global_Users">
</g>
<g id="Waiting_Users">
</g>
<g id="Writing_Users">
</g>
<g id="Search_Users">
</g>
<g id="Lock_Users">
</g>
<g id="Mark_Users">
</g>
<g id="Share_Users">
</g>
<g id="Shopping_3">
</g>
<g id="Download_3">
</g>
<g id="Upload_3">
</g>
<g id="Users_Statistics">
</g>
<g id="Users_Defense">
</g>
<g id="Car_3">
</g>
<g id="Home_3">
</g>
<g id="Park_3">
</g>
<g id="Recicle_Users">
</g>
<g id="Wifi_3">
</g>
<g id="Attach_3">
</g>
<g id="Disabled_Users">
</g>
<g id="Users_Card">
</g>
<g id="Gaming_3">
</g>
<g id="Cloud_3">
</g>
<g id="Database_3">
</g>
<g id="Copyright_3">
</g>
<g id="No_Copzright_3">
</g>
<g id="Creative_Commun_3">
	<g>
		<g>
			<path d="M0.5,21.998c-0.276,0-0.5-0.224-0.5-0.5c0-2.38,1.612-4.444,3.92-5.021l3.472-0.868l0.306-1.223
				c-0.872-0.909-1.475-2.13-1.669-3.376c-0.575-0.125-1.027-0.601-1.103-1.204L4.697,7.98c-0.05-0.402,0.075-0.808,0.343-1.111
				c0.163-0.185,0.371-0.321,0.599-0.4c-0.065-0.562-0.161-1.457-0.161-1.86c0-1.782,0.533-3.608,4.449-3.692
				C11.298,0,12.764,0,13.402,0c1.626,0,2.802,0.537,3.495,1.595c0.905,1.385,0.47,2.341-0.054,2.899l-0.332,0.331l-0.081,1.671
				c0.203,0.083,0.387,0.212,0.535,0.381c0.264,0.302,0.387,0.704,0.337,1.103l-0.229,1.827c-0.071,0.564-0.472,1.019-0.994,1.176
				c-0.195,1.298-0.831,2.561-1.757,3.486l0.285,1.141l3.473,0.868c0.248,0.062,0.486,0.148,0.719,0.245
				c0.255,0.105,0.376,0.398,0.271,0.653c-0.106,0.255-0.398,0.377-0.653,0.271c-0.187-0.077-0.377-0.148-0.578-0.198l-3.765-0.941
				c-0.179-0.045-0.319-0.185-0.363-0.364l-0.429-1.715c-0.045-0.18,0.013-0.369,0.151-0.493c0.96-0.861,1.595-2.144,1.696-3.431
				c0.021-0.261,0.238-0.461,0.499-0.461c0.252,0,0.429-0.155,0.455-0.361l0.229-1.826c0.015-0.117-0.021-0.231-0.098-0.32
				c-0.079-0.09-0.188-0.141-0.307-0.142c-0.136-0.002-0.265-0.059-0.358-0.157s-0.142-0.231-0.136-0.367l0.111-2.285
				c0.006-0.124,0.058-0.241,0.146-0.329l0.457-0.456c0.291-0.311,0.521-0.761-0.065-1.656C15.563,1.385,14.669,1,13.402,1
				c-0.929,0-2.014,0.098-3.024,0.819c-0.083,0.061-0.184,0.093-0.286,0.094C6.755,1.946,6.479,3.207,6.479,4.608
				c0,0.444,0.153,1.754,0.211,2.221c0.018,0.143-0.026,0.285-0.121,0.394C6.474,7.33,6.337,7.392,6.194,7.392
				c-0.214,0-0.324,0.05-0.404,0.14S5.675,7.736,5.689,7.856l0.229,1.825c0.026,0.206,0.202,0.361,0.41,0.361h0.148
				c0.261,0,0.478,0.2,0.499,0.46c0.1,1.249,0.705,2.506,1.62,3.364c0.132,0.124,0.187,0.31,0.143,0.485l-0.448,1.79
				c-0.044,0.18-0.185,0.319-0.363,0.364l-3.763,0.941C2.3,17.913,1,19.578,1,21.498C1,21.774,0.776,21.998,0.5,21.998z"/>
		</g>
		<g>
			<path d="M23.5,30c-3.584,0-6.5-2.916-6.5-6.5s2.916-6.5,6.5-6.5s6.5,2.916,6.5,6.5S27.084,30,23.5,30z M23.5,18
				c-3.033,0-5.5,2.468-5.5,5.5s2.467,5.5,5.5,5.5s5.5-2.468,5.5-5.5S26.533,18,23.5,18z"/>
		</g>
		<g>
			<path d="M21.5,26c-0.827,0-1.5-0.673-1.5-1.5v-2c0-0.827,0.673-1.5,1.5-1.5s1.5,0.673,1.5,1.5c0,0.276-0.224,0.5-0.5,0.5
				S22,22.776,22,22.5c0-0.275-0.224-0.5-0.5-0.5S21,22.225,21,22.5v2c0,0.275,0.224,0.5,0.5,0.5s0.5-0.225,0.5-0.5
				c0-0.276,0.224-0.5,0.5-0.5s0.5,0.224,0.5,0.5C23,25.327,22.327,26,21.5,26z"/>
		</g>
		<g>
			<g>
				<path d="M21.298,14.771c-0.136,0-0.271-0.055-0.369-0.163c-0.187-0.204-0.172-0.521,0.032-0.706
					c0.944-0.862,1.568-2.133,1.668-3.398c0.021-0.261,0.238-0.461,0.499-0.461c0.252,0,0.429-0.155,0.455-0.361l0.229-1.826
					c0.015-0.117-0.021-0.231-0.098-0.32c-0.079-0.09-0.188-0.141-0.307-0.142c-0.136-0.002-0.265-0.059-0.358-0.157
					s-0.142-0.231-0.136-0.367l0.111-2.285c0.006-0.124,0.058-0.241,0.146-0.329l0.457-0.456c0.291-0.311,0.521-0.761-0.065-1.656
					C23.063,1.385,22.169,1,20.902,1c-0.664,0-1.538,0.053-2.402,0.463c-0.25,0.116-0.548,0.012-0.666-0.238
					c-0.119-0.249-0.012-0.548,0.237-0.666C19.116,0.063,20.133,0,20.902,0c1.626,0,2.802,0.537,3.495,1.595
					c0.905,1.385,0.47,2.341-0.054,2.899l-0.332,0.331l-0.081,1.671c0.204,0.083,0.387,0.212,0.535,0.381
					c0.264,0.302,0.387,0.704,0.337,1.103l-0.229,1.827c-0.071,0.564-0.472,1.019-0.995,1.176c-0.208,1.377-0.917,2.721-1.945,3.658
					C21.539,14.729,21.418,14.771,21.298,14.771z"/>
			</g>
			<g>
				<path d="M21.629,16.23c-0.228,0-0.435-0.157-0.487-0.39l-0.332-1.459c-0.061-0.269,0.108-0.537,0.377-0.598
					c0.265-0.066,0.537,0.106,0.599,0.377l0.332,1.459c0.061,0.269-0.108,0.537-0.377,0.598
					C21.703,16.227,21.666,16.23,21.629,16.23z"/>
			</g>
		</g>
		<g>
			<path d="M25.5,26c-0.827,0-1.5-0.673-1.5-1.5v-2c0-0.827,0.673-1.5,1.5-1.5s1.5,0.673,1.5,1.5c0,0.276-0.224,0.5-0.5,0.5
				S26,22.776,26,22.5c0-0.275-0.224-0.5-0.5-0.5S25,22.225,25,22.5v2c0,0.275,0.224,0.5,0.5,0.5s0.5-0.225,0.5-0.5
				c0-0.276,0.224-0.5,0.5-0.5s0.5,0.224,0.5,0.5C27,25.327,26.327,26,25.5,26z"/>
		</g>
	</g>
</g>
<g id="Eco-Friendly_3">
</g>
<g id="Percentage_3">
</g>
<g id="Users_Love">
</g>
<g id="Users_Place">
</g>
<g id="Users_Key">
</g>
<g id="Sleeping_3">
</g>
</svg>
