<?xml version="1.0" encoding="iso-8859-1"?>
<!-- Generator: Adobe Illustrator 19.2.1, SVG Export Plug-In . SVG Version: 6.00 Build 0)  -->
<svg version="1.1" xmlns="http://www.w3.org/2000/svg" xmlns:xlink="http://www.w3.org/1999/xlink" x="0px" y="0px"
	 viewBox="0 0 24 24" style="enable-background:new 0 0 24 24;" xml:space="preserve">
<g id="Pompkin">
</g>
<g id="Layer_10">
</g>
<g id="Bat">
</g>
<g id="Ghost">
</g>
<g id="Bone_Hand">
</g>
<g id="Tree_Ghost">
</g>
<g id="Gate">
</g>
<g id="Cemetery_1">
</g>
<g id="Cemetery_2">
</g>
<g id="Devil_x27_s_Fork">
</g>
<g id="Night_Candle">
</g>
<g id="Canlestick">
</g>
<g id="Black_Cat">
</g>
<g id="Witch_Cauldron">
</g>
<g id="Corn_Candy">
</g>
<g id="Layer_29">
</g>
<g id="Bones">
</g>
<g id="Witch_Broom">
</g>
<g id="Owl">
</g>
<g id="Scythe">
</g>
<g id="Grim_Reaper">
</g>
<g id="Coffin">
</g>
<g id="Dracula">
</g>
<g id="Frankenstein">
</g>
<g id="Layer_40">
</g>
<g id="Toilet_Paper">
</g>
<g id="Skull">
</g>
<g id="Skull_Cake">
</g>
<g id="Eyeball">
</g>
<g id="Castle">
</g>
<g id="Witch_x27_s_Hat">
</g>
<g id="Cobweb_1">
</g>
<g id="Cobweb_2">
</g>
<g id="Spider">
</g>
<g id="Full_Moon">
</g>
<g id="Crescent">
	<g>
		<path d="M19.22,2.724c-0.476-0.182-0.986-0.378-1.529-0.606c-0.209-0.089-0.458-0.022-0.596,0.164
			c-0.137,0.186-0.129,0.441,0.02,0.618c0.492,0.586,0.325,0.959,0.27,1.082c-0.202,0.451-0.814,0.839-1.388,1.008
			c0-0.592,0.001-1.41,0.001-1.41c0-0.232-0.159-0.434-0.385-0.487c-0.23-0.057-0.459,0.054-0.563,0.263l-0.355,0.71
			c-0.13,0-0.274-0.001-0.404,0.001l-0.353-0.663c-0.107-0.202-0.337-0.307-0.563-0.25c-0.223,0.056-0.379,0.256-0.379,0.485
			c0,0,0.001,0.778,0.001,1.351c-0.573-0.168-1.186-0.557-1.388-1.008c-0.055-0.123-0.222-0.496,0.27-1.082
			c0.148-0.177,0.157-0.432,0.02-0.618s-0.385-0.253-0.596-0.164c-0.543,0.229-1.053,0.424-1.529,0.606
			C7.312,3.668,5.532,4.351,5.004,7.495C4.978,7.649,5.026,7.806,5.132,7.92c0.107,0.114,0.262,0.169,0.416,0.155
			c0.402-0.042,0.929-0.089,1.426-0.089c1.537,0,1.915,0.453,2.065,0.793C9.14,9.008,9.393,9.131,9.633,9.059
			c0.389-0.112,1.361-0.045,1.8,0.469c0.192,0.225,0.257,0.516,0.199,0.89c-0.033,0.208,0.069,0.415,0.254,0.516
			c0.185,0.101,0.414,0.075,0.572-0.065c0.161-0.143,0.444-0.235,0.724-0.235c0.345,0,0.924,0.123,0.924,0.944
			c0,0.276,0.224,0.5,0.5,0.5s0.5-0.224,0.5-0.5c0-0.869,0.646-0.962,0.923-0.962c0.279,0,0.553,0.094,0.714,0.245
			c0.097,0.091,0.227,0.145,0.352,0.135c0.272,0.026,0.51-0.22,0.51-0.5c0-0.057-0.009-0.111-0.026-0.161
			c0.004-0.25,0.104-0.482,0.296-0.693c0.359-0.395,0.932-0.602,1.311-0.602c0.086,0,0.144,0.011,0.176,0.02
			c0.192,0.055,0.4-0.012,0.527-0.168c0.461-0.577,1.372-0.908,2.497-0.908c0.339,0,0.686,0.03,1.028,0.088
			c0.16,0.026,0.323-0.025,0.438-0.139c0.115-0.114,0.167-0.277,0.14-0.437C23.462,4.351,21.683,3.668,19.22,2.724z"/>
		<path d="M21.594,15.081c-1.198,0.455-2.458,0.686-3.745,0.686c-2.801,0-5.434-1.09-7.412-3.069
			c-0.924-0.924-1.668-2.04-2.242-3.375C8.129,9.203,8.019,9.116,7.889,9.08C7.398,8.943,6.28,9.005,5.652,9.07
			C5.185,9.119,4.721,8.943,4.403,8.604C4.085,8.265,3.941,7.789,4.018,7.33c0.489-2.916,2.063-4.043,3.537-4.763
			c0.126-0.062,0.221-0.173,0.26-0.308C7.887,2.017,7.964,1.777,8.054,1.54C8.124,1.356,8.079,1.148,7.94,1.009
			C7.8,0.87,7.594,0.826,7.409,0.895c-1.534,0.583-2.894,1.46-4.043,2.61c-4.483,4.484-4.483,11.78,0,16.264
			c2.172,2.172,5.06,3.368,8.132,3.368s5.96-1.196,8.132-3.368c1.149-1.15,2.027-2.51,2.61-4.043
			c0.07-0.184,0.025-0.392-0.114-0.531C21.985,15.055,21.779,15.01,21.594,15.081z M12.997,18.637c0-0.276,0.224-0.5,0.5-0.5
			s0.5,0.224,0.5,0.5s-0.224,0.5-0.5,0.5S12.997,18.913,12.997,18.637z M8.997,16.637c0,0.827-0.673,1.5-1.5,1.5s-1.5-0.673-1.5-1.5
			c0-0.827,0.673-1.5,1.5-1.5S8.997,15.81,8.997,16.637z"/>
	</g>
</g>
<g id="Crow">
</g>
<g id="Candy_Holder">
</g>
<g id="Bloody_Knife">
</g>
<g id="Bloody_Axe">
</g>
</svg>
