<?xml version="1.0" encoding="iso-8859-1"?>
<!-- Generator: Adobe Illustrator 19.2.1, SVG Export Plug-In . SVG Version: 6.00 Build 0)  -->
<svg version="1.1" xmlns="http://www.w3.org/2000/svg" xmlns:xlink="http://www.w3.org/1999/xlink" x="0px" y="0px"
	 viewBox="0 0 30 30" style="enable-background:new 0 0 30 30;" xml:space="preserve">
<g id="Present_1">
</g>
<g id="Present_2">
</g>
<g id="Present_3">
</g>
<g id="Present_Cake">
</g>
<g id="Present_4">
</g>
<g id="Birthday_Cake_1">
</g>
<g id="Birthday_Cake_2">
</g>
<g id="Cake_Piece">
</g>
<g id="Cupcake">
	<g>
		<g>
			<g>
				<path d="M22.5,20c-1.587,0-3.072-0.627-3.984-1.641C17.652,19.449,16.473,20,15,20s-2.652-0.551-3.516-1.641
					C10.572,19.373,9.087,20,7.5,20C4.935,20,3,17.851,3,15c0-2.735,1.159-4.248,3.446-4.497c0.258-0.024,0.521,0.168,0.551,0.443
					c0.03,0.274-0.168,0.521-0.443,0.551C4.788,11.689,4,12.77,4,15c0,2.28,1.505,4,3.5,4c1.535,0,2.937-0.689,3.57-1.755
					c0.18-0.304,0.68-0.304,0.859,0C12.632,18.426,13.636,19,15,19s2.368-0.574,3.07-1.755c0.18-0.304,0.68-0.304,0.859,0
					C19.563,18.311,20.965,19,22.5,19c1.995,0,3.5-1.72,3.5-4c0-2.23-0.788-3.311-2.554-3.503c-0.275-0.03-0.474-0.277-0.443-0.551
					c0.03-0.275,0.294-0.468,0.551-0.443C25.841,10.752,27,12.265,27,15C27,17.851,25.065,20,22.5,20z"/>
			</g>
			<g>
				<path d="M21.5,30h-13c-0.238,0-0.443-0.168-0.49-0.402l-2-10c-0.055-0.271,0.121-0.534,0.393-0.588
					c0.258-0.056,0.533,0.121,0.588,0.392L8.91,29h12.18l1.92-9.598c0.055-0.271,0.329-0.448,0.588-0.392
					c0.271,0.054,0.447,0.317,0.393,0.588l-2,10C21.943,29.832,21.738,30,21.5,30z"/>
			</g>
			<g>
				<path d="M6.5,12C6.224,12,6,11.776,6,11.5c0-2.876,2.377-5.299,6.357-6.479c0.269-0.078,0.544,0.073,0.622,0.337
					s-0.072,0.543-0.337,0.622C11.318,6.372,7,7.93,7,11.5C7,11.776,6.776,12,6.5,12z"/>
			</g>
			<g>
				<path d="M23.5,12c-0.276,0-0.5-0.224-0.5-0.5c0-3.57-4.318-5.128-5.643-5.521c-0.265-0.079-0.415-0.357-0.337-0.622
					s0.354-0.415,0.622-0.337C21.623,6.201,24,8.624,24,11.5C24,11.776,23.776,12,23.5,12z"/>
			</g>
			<g>
				<path d="M12.499,27c-0.233,0-0.441-0.164-0.489-0.402l-1-5c-0.055-0.271,0.121-0.534,0.393-0.588
					c0.257-0.057,0.533,0.121,0.588,0.392l1,5c0.055,0.271-0.121,0.534-0.393,0.588C12.565,26.997,12.532,27,12.499,27z"/>
			</g>
			<g>
				<path d="M17.501,27c-0.033,0-0.066-0.003-0.099-0.01c-0.271-0.054-0.447-0.317-0.393-0.588l1-5
					c0.055-0.271,0.33-0.448,0.588-0.392c0.271,0.054,0.447,0.317,0.393,0.588l-1,5C17.942,26.836,17.734,27,17.501,27z"/>
			</g>
		</g>
		<g>
			<path d="M15,7c-1.93,0-3.5-1.57-3.5-3.5S13.07,0,15,0s3.5,1.57,3.5,3.5S16.93,7,15,7z M15,1c-1.379,0-2.5,1.122-2.5,2.5
				S13.621,6,15,6s2.5-1.122,2.5-2.5S16.379,1,15,1z"/>
		</g>
	</g>
</g>
<g id="Lollipop">
</g>
<g id="Birthday_Greetings_1">
</g>
<g id="Party_Greetings_2">
</g>
<g id="Birthday_Invitation">
</g>
<g id="Birthday_1">
</g>
<g id="Birthday_2">
</g>
<g id="Birthday_Message_1">
</g>
<g id="Birthday_Message_2">
</g>
<g id="Birthyday_Hat_1">
</g>
<g id="Birthay_Hat_2">
</g>
<g id="Birthday_Hat3">
</g>
<g id="Birthday_Decoration_1">
</g>
<g id="Birthday_Decoration_2">
</g>
<g id="Birthday_Decoration_3">
</g>
<g id="Horn_1">
</g>
<g id="Horn_2">
</g>
<g id="Baloon">
</g>
<g id="Balloons_1">
</g>
<g id="Balloons_2">
</g>
<g id="Birthday_Picture">
</g>
<g id="Kid_x27_s_Champagne">
</g>
<g id="Candy">
</g>
<g id="Birthday_Card">
</g>
<g id="Flowers">
</g>
<g id="Birthday_Song">
</g>
<g id="Candle">
</g>
<g id="Sweet_16">
</g>
<g id="Clown">
</g>
<g id="Clown_2">
</g>
<g id="Birthday_Party">
</g>
<g id="Giving_Gift">
</g>
<g id="Present_5">
</g>
<g id="Champagne_in_ice_bucket">
</g>
<g id="Beer">
</g>
<g id="Truffles">
</g>
<g id="Pinata">
</g>
</svg>
