<?xml version="1.0" encoding="iso-8859-1"?>
<!-- Generator: Adobe Illustrator 19.2.1, SVG Export Plug-In . SVG Version: 6.00 Build 0)  -->
<svg version="1.1" xmlns="http://www.w3.org/2000/svg" xmlns:xlink="http://www.w3.org/1999/xlink" x="0px" y="0px"
	 viewBox="0 0 30 30" style="enable-background:new 0 0 30 30;" xml:space="preserve">
<g id="Present_1">
</g>
<g id="Present_2">
</g>
<g id="Present_3">
</g>
<g id="Present_Cake">
</g>
<g id="Present_4">
</g>
<g id="Birthday_Cake_1">
</g>
<g id="Birthday_Cake_2">
</g>
<g id="Cake_Piece">
</g>
<g id="Cupcake">
	<g>
		<path d="M18.564,19.746C17.6,20.569,16.386,21,15,21c-1.385,0-2.6-0.431-3.564-1.254C10.362,20.543,8.957,21,7.5,21
			c-0.429,0-0.842-0.053-1.239-0.145l1.748,8.742C8.057,29.832,8.262,30,8.5,30h13c0.238,0,0.443-0.168,0.49-0.402l1.748-8.742
			C23.342,20.947,22.929,21,22.5,21C21.044,21,19.639,20.543,18.564,19.746z M12.598,26.99C12.565,26.997,12.532,27,12.5,27
			c-0.233,0-0.442-0.164-0.49-0.402l-1-5c-0.054-0.271,0.122-0.534,0.392-0.588c0.271-0.056,0.534,0.121,0.588,0.393l1,5
			C13.044,26.673,12.869,26.937,12.598,26.99z M17.99,26.598C17.942,26.836,17.734,27,17.501,27c-0.033,0-0.066-0.003-0.099-0.01
			c-0.271-0.054-0.447-0.317-0.393-0.588l1-5c0.055-0.272,0.331-0.446,0.588-0.393c0.271,0.054,0.447,0.317,0.393,0.588
			L17.99,26.598z"/>
		<circle cx="15" cy="3.5" r="3.5"/>
		<path d="M23.903,10.569c-0.396-2.128-2.143-3.934-4.896-5.065C18.267,6.977,16.758,8,15,8c-1.758,0-3.267-1.023-4.007-2.495
			c-2.753,1.13-4.5,2.937-4.896,5.064C4.05,10.934,3,12.413,3,15c0,2.851,1.935,5,4.5,5c1.587,0,3.072-0.627,3.984-1.641
			C12.348,19.448,13.527,20,15,20s2.652-0.552,3.516-1.641C19.428,19.373,20.913,20,22.5,20c2.565,0,4.5-2.149,4.5-5
			C27,12.414,25.95,10.934,23.903,10.569z"/>
	</g>
</g>
<g id="Lollipop">
</g>
<g id="Birthday_Greetings_1">
</g>
<g id="Party_Greetings_2">
</g>
<g id="Birthday_Invitation">
</g>
<g id="Birthday_1">
</g>
<g id="Birthday_2">
</g>
<g id="Birthday_Message_1">
</g>
<g id="Birthday_Message_2">
</g>
<g id="Birthyday_Hat_1">
</g>
<g id="Birthay_Hat_2">
</g>
<g id="Birthday_Hat3">
</g>
<g id="Birthday_Decoration_1">
</g>
<g id="Birthday_Decoration_2">
</g>
<g id="Birthday_Decoration_3">
</g>
<g id="Horn_1">
</g>
<g id="Horn_2">
</g>
<g id="Baloon">
</g>
<g id="Balloons_1">
</g>
<g id="Balloons_2">
</g>
<g id="Birthday_Picture">
</g>
<g id="Kid_x27_s_Champagne">
</g>
<g id="Candy">
</g>
<g id="Birthday_Card">
</g>
<g id="Flowers">
</g>
<g id="Birthday_Song">
</g>
<g id="Candle">
</g>
<g id="Sweet_16">
</g>
<g id="Clown">
</g>
<g id="Clown_2">
</g>
<g id="Birthday_Party">
</g>
<g id="Giving_Gift">
</g>
<g id="Present_5">
</g>
<g id="Champagne_in_ice_bucket">
</g>
<g id="Beer">
</g>
<g id="Truffles">
</g>
<g id="Pinata">
</g>
</svg>
