<?xml version="1.0" encoding="iso-8859-1"?>
<!-- Generator: Adobe Illustrator 19.2.1, SVG Export Plug-In . SVG Version: 6.00 Build 0)  -->
<svg version="1.1" xmlns="http://www.w3.org/2000/svg" xmlns:xlink="http://www.w3.org/1999/xlink" x="0px" y="0px"
	 viewBox="0 0 30 30" style="enable-background:new 0 0 30 30;" xml:space="preserve">
<g id="Credit_Card">
</g>
<g id="Banknote">
</g>
<g id="Wallet">
</g>
<g id="Compass">
</g>
<g id="Camera_1">
</g>
<g id="Photo">
</g>
<g id="Picture">
</g>
<g id="Camera_2">
</g>
<g id="No_Camera">
</g>
<g id="Video">
</g>
<g id="Audio">
</g>
<g id="Microphone_1">
</g>
<g id="Microphone_2">
</g>
<g id="No_Microphone">
</g>
<g id="Shopping_Cart">
</g>
<g id="Add_Shopping_Cart">
</g>
<g id="Remove_Shopping_Cart">
</g>
<g id="Shopping_Basket">
</g>
<g id="Jing-Jang">
</g>
<g id="Leaf">
</g>
<g id="Glass">
</g>
<g id="Cup">
</g>
<g id="Mug">
</g>
<g id="Refresh">
</g>
<g id="Login">
</g>
<g id="Logout">
</g>
<g id="Flowchart">
</g>
<g id="Pin_1">
</g>
<g id="Pin_2">
</g>
<g id="User_1">
</g>
<g id="User_2">
</g>
<g id="Users">
</g>
<g id="Adjustments">
</g>
<g id="Type">
</g>
<g id="Format_Size">
</g>
<g id="Menu_1">
</g>
<g id="Other">
</g>
<g id="Flash">
</g>
<g id="No_Flash">
</g>
<g id="Switch_Button_1">
</g>
<g id="Switch_Button_2">
</g>
<g id="Cut">
	<g>
		<g>
			<g>
				<path d="M14.5,2.25c-0.276,0-0.5-0.224-0.5-0.5V0.5C14,0.224,14.224,0,14.5,0S15,0.224,15,0.5v1.25
					C15,2.026,14.776,2.25,14.5,2.25z"/>
			</g>
			<g>
				<path d="M14.5,26.341c-0.276,0-0.5-0.224-0.5-0.5v-2.409c0-0.276,0.224-0.5,0.5-0.5s0.5,0.224,0.5,0.5v2.409
					C15,26.117,14.776,26.341,14.5,26.341z M14.5,21.523c-0.276,0-0.5-0.224-0.5-0.5v-2.409c0-0.276,0.224-0.5,0.5-0.5
					s0.5,0.224,0.5,0.5v2.409C15,21.299,14.776,21.523,14.5,21.523z M14.5,16.705c-0.276,0-0.5-0.224-0.5-0.5v-2.409
					c0-0.276,0.224-0.5,0.5-0.5s0.5,0.224,0.5,0.5v2.409C15,16.481,14.776,16.705,14.5,16.705z M14.5,11.886
					c-0.276,0-0.5-0.224-0.5-0.5V8.978c0-0.276,0.224-0.5,0.5-0.5s0.5,0.224,0.5,0.5v2.409C15,11.663,14.776,11.886,14.5,11.886z
					 M14.5,7.068c-0.276,0-0.5-0.224-0.5-0.5V4.159c0-0.276,0.224-0.5,0.5-0.5s0.5,0.224,0.5,0.5v2.409
					C15,6.845,14.776,7.068,14.5,7.068z"/>
			</g>
			<g>
				<path d="M14.5,30c-0.276,0-0.5-0.224-0.5-0.5v-1.25c0-0.276,0.224-0.5,0.5-0.5s0.5,0.224,0.5,0.5v1.25
					C15,29.776,14.776,30,14.5,30z"/>
			</g>
		</g>
		<g>
			<path d="M8,25.022c-1.654,0-3-1.355-3-3.022s1.346-3.022,3-3.022s3,1.355,3,3.022c0,0.517-0.132,1.028-0.382,1.477l0,0
				C10.087,24.43,9.084,25.022,8,25.022z M8,19.978c-1.103,0-2,0.907-2,2.022s0.897,2.022,2,2.022c0.722,0,1.39-0.396,1.744-1.032
				l0,0C9.912,22.69,10,22.347,10,22C10,20.885,9.103,19.978,8,19.978z"/>
		</g>
		<g>
			<path d="M10.181,23.733c-0.083,0-0.166-0.021-0.243-0.063c-0.241-0.135-0.328-0.439-0.194-0.68l9.319-16.733
				c0.135-0.242,0.438-0.327,0.68-0.194c0.241,0.135,0.328,0.439,0.194,0.68l-9.319,16.733
				C10.526,23.641,10.356,23.733,10.181,23.733z"/>
		</g>
		<g>
			<path d="M21,25.022c-1.084,0-2.087-0.592-2.618-1.545C18.132,23.028,18,22.517,18,22c0-1.667,1.346-3.022,3-3.022
				s3,1.355,3,3.022S22.654,25.022,21,25.022z M21,19.978c-1.103,0-2,0.907-2,2.022c0,0.347,0.088,0.69,0.256,0.99l0,0
				c0.354,0.636,1.022,1.032,1.744,1.032c1.103,0,2-0.907,2-2.022S22.103,19.978,21,19.978z"/>
		</g>
		<g>
			<path d="M18.819,23.733c-0.176,0-0.346-0.092-0.438-0.257L9.063,6.743c-0.134-0.241-0.047-0.545,0.194-0.68
				c0.24-0.133,0.545-0.048,0.68,0.194l9.319,16.733c0.134,0.241,0.047,0.545-0.194,0.68C18.985,23.713,18.902,23.733,18.819,23.733
				z"/>
		</g>
	</g>
</g>
<g id="Crop">
</g>
<g id="Sun">
</g>
<g id="USB">
</g>
<g id="Pie_Chart_1">
</g>
<g id="Pie_Chart_2">
</g>
<g id="Line_Chart">
</g>
<g id="Bar_Chart">
</g>
<g id="Target">
</g>
<g id="Flashlight">
</g>
<g id="USB_Device">
</g>
<g id="Eject">
</g>
<g id="Lightbulb">
</g>
<g id="Information">
</g>
<g id="Deactivate_Protection">
</g>
<g id="Active_Protection">
</g>
<g id="Bug">
</g>
<g id="Protection">
</g>
<g id="Phone">
</g>
<g id="List">
</g>
<g id="Plugin_1">
</g>
<g id="Bookmarrk">
</g>
<g id="Handshake">
</g>
<g id="Minimize">
</g>
<g id="Maximize">
</g>
<g id="Diamond">
</g>
<g id="Stop">
</g>
<g id="Shuffle">
</g>
<g id="Undo">
</g>
<g id="Upgrade">
</g>
<g id="Coding">
</g>
<g id="Syncronizaion">
</g>
<g id="Radio">
</g>
<g id="Presentation">
</g>
<g id="Door">
</g>
<g id="Thumbs_Up">
</g>
<g id="Thumbs_Down">
</g>
<g id="Keyboard">
</g>
<g id="_x33_D_Cube">
</g>
<g id="Signal">
</g>
<g id="Dice">
</g>
<g id="Upload">
</g>
<g id="Download">
</g>
<g id="Plugin_2">
</g>
<g id="Shopping_Bag">
</g>
<g id="Lifebelt">
</g>
<g id="Glasses">
</g>
<g id="Parabolic_Antenna">
</g>
<g id="Loudspeaker">
</g>
<g id="Play">
</g>
<g id="Pause">
</g>
<g id="Signpost">
</g>
<g id="Bluetooth">
</g>
<g id="Present">
</g>
<g id="Ruler">
</g>
<g id="Connection">
</g>
<g id="Money">
</g>
<g id="Paper_Plane">
</g>
<g id="Wallet_2">
</g>
</svg>
