<?xml version="1.0" encoding="iso-8859-1"?>
<!-- Generator: Adobe Illustrator 19.2.1, SVG Export Plug-In . SVG Version: 6.00 Build 0)  -->
<svg version="1.1" xmlns="http://www.w3.org/2000/svg" xmlns:xlink="http://www.w3.org/1999/xlink" x="0px" y="0px"
	 viewBox="0 0 24 24" style="enable-background:new 0 0 24 24;" xml:space="preserve">
<g id="Credit_Card">
</g>
<g id="Banknote">
</g>
<g id="Wallet">
</g>
<g id="Compass">
</g>
<g id="Camera_1">
</g>
<g id="Photo">
</g>
<g id="Picture">
</g>
<g id="Camera_2">
</g>
<g id="No_Camera">
</g>
<g id="Video">
</g>
<g id="Audio">
</g>
<g id="Microphone_1">
</g>
<g id="Microphone_2">
</g>
<g id="No_Microphone">
</g>
<g id="Shopping_Cart">
</g>
<g id="Add_Shopping_Cart">
</g>
<g id="Remove_Shopping_Cart">
</g>
<g id="Shopping_Basket">
</g>
<g id="Jing-Jang">
</g>
<g id="Leaf">
</g>
<g id="Glass">
</g>
<g id="Cup">
</g>
<g id="Mug">
</g>
<g id="Refresh">
</g>
<g id="Login">
</g>
<g id="Logout">
</g>
<g id="Flowchart">
</g>
<g id="Pin_1">
</g>
<g id="Pin_2">
</g>
<g id="User_1">
</g>
<g id="User_2">
</g>
<g id="Users">
</g>
<g id="Adjustments">
</g>
<g id="Type">
</g>
<g id="Format_Size">
</g>
<g id="Menu_1">
</g>
<g id="Other">
</g>
<g id="Flash">
</g>
<g id="No_Flash">
</g>
<g id="Switch_Button_1">
</g>
<g id="Switch_Button_2">
</g>
<g id="Cut">
	<g>
		<path d="M11.5,2.5C11.776,2.5,12,2.276,12,2V0.5C12,0.224,11.776,0,11.5,0S11,0.224,11,0.5V2C11,2.276,11.224,2.5,11.5,2.5z"/>
		<path d="M11.5,8.215c0.276,0,0.5-0.224,0.5-0.5V4.857c0-0.276-0.224-0.5-0.5-0.5S11,4.581,11,4.857v2.857
			C11,7.991,11.224,8.215,11.5,8.215z"/>
		<path d="M11.5,15.786c-0.276,0-0.5,0.224-0.5,0.5v2.857c0,0.276,0.224,0.5,0.5,0.5s0.5-0.224,0.5-0.5v-2.857
			C12,16.01,11.776,15.786,11.5,15.786z"/>
		<path d="M11.5,21.5c-0.276,0-0.5,0.224-0.5,0.5v1.5c0,0.276,0.224,0.5,0.5,0.5s0.5-0.224,0.5-0.5V22
			C12,21.724,11.776,21.5,11.5,21.5z"/>
		<path d="M16.5,15c-1.019,0-1.894,0.614-2.283,1.49l-2.144-3.835l3.864-6.911c0.135-0.241,0.049-0.546-0.192-0.681
			c-0.241-0.134-0.546-0.05-0.681,0.192L12,10.736v-0.164c0-0.276-0.224-0.5-0.5-0.5s-0.5,0.224-0.5,0.5v0.164l-3.063-5.48
			C7.801,5.014,7.495,4.931,7.256,5.063C7.015,5.198,6.929,5.503,7.063,5.744l3.864,6.911L8.783,16.49C8.394,15.614,7.519,15,6.5,15
			C5.121,15,4,16.121,4,17.5S5.121,20,6.5,20c0.912,0,1.703-0.495,2.139-1.226c0.008-0.012,0.022-0.017,0.03-0.03l2.706-4.841
			c0.041,0.011,0.081,0.025,0.125,0.025s0.084-0.014,0.125-0.025l2.706,4.841c0.007,0.013,0.021,0.018,0.03,0.03
			C14.797,19.505,15.588,20,16.5,20c1.379,0,2.5-1.121,2.5-2.5S17.879,15,16.5,15z M6.5,19C5.673,19,5,18.327,5,17.5
			S5.673,16,6.5,16S8,16.673,8,17.5S7.327,19,6.5,19z M16.5,19c-0.827,0-1.5-0.673-1.5-1.5s0.673-1.5,1.5-1.5s1.5,0.673,1.5,1.5
			S17.327,19,16.5,19z"/>
	</g>
</g>
<g id="Crop">
</g>
<g id="Sun">
</g>
<g id="USB">
</g>
<g id="Pie_Chart_1">
</g>
<g id="Pie_Chart_2">
</g>
<g id="Line_Chart">
</g>
<g id="Bar_Chart">
</g>
<g id="Target">
</g>
<g id="Flashlight">
</g>
<g id="USB_Device">
</g>
<g id="Eject">
</g>
<g id="Lightbulb">
</g>
<g id="Information">
</g>
<g id="Deactivate_Protection">
</g>
<g id="Active_Protection">
</g>
<g id="Bug">
</g>
<g id="Protection">
</g>
<g id="Phone">
</g>
<g id="List">
</g>
<g id="Plugin_1">
</g>
<g id="Bookmarrk">
</g>
<g id="Handshake">
</g>
<g id="Minimize">
</g>
<g id="Maximize">
</g>
<g id="Diamond">
</g>
<g id="Stop">
</g>
<g id="Shuffle">
</g>
<g id="Undo">
</g>
<g id="Upgrade">
</g>
<g id="Coding">
</g>
<g id="Syncronizaion">
</g>
<g id="Radio">
</g>
<g id="Presentation">
</g>
<g id="Door">
</g>
<g id="Thumbs_Up">
</g>
<g id="Thumbs_Down">
</g>
<g id="Keyboard">
</g>
<g id="_x33_D_Cube">
</g>
<g id="Signal">
</g>
<g id="Dice">
</g>
<g id="Upload">
</g>
<g id="Download">
</g>
<g id="Plugin_2">
</g>
<g id="Shopping_Bag">
</g>
<g id="Lifebelt">
</g>
<g id="Glasses">
</g>
<g id="Parabolic_Antenna">
</g>
<g id="Loudspeaker">
</g>
<g id="Play">
</g>
<g id="Pause">
</g>
<g id="Signpost">
</g>
<g id="Bluetooth">
</g>
<g id="Present">
</g>
<g id="Ruler">
</g>
<g id="Connection">
</g>
<g id="Money">
</g>
<g id="Paper_Plane">
</g>
<g id="Wallet_2">
</g>
</svg>
