<?xml version="1.0" encoding="iso-8859-1"?>
<!-- Generator: Adobe Illustrator 19.2.1, SVG Export Plug-In . SVG Version: 6.00 Build 0)  -->
<svg version="1.1" xmlns="http://www.w3.org/2000/svg" xmlns:xlink="http://www.w3.org/1999/xlink" x="0px" y="0px"
	 viewBox="0 0 30 30" style="enable-background:new 0 0 30 30;" xml:space="preserve">
<g id="Cutting_Board_1">
</g>
<g id="Cutting_Board_2">
	<g>
		<g>
			<path d="M21.5,30h-13C7.673,30,7,29.327,7,28.5v-16C7,11.673,7.673,11,8.5,11h2.73c0.744-1.161,1.136-2.482,1.299-4.356
				c0.087-1.001-0.167-1.997-0.399-2.752C12.043,3.609,12,3.317,12,3.021C12,1.355,13.346,0,15,0s3,1.355,3,3.021
				c0,0.295-0.043,0.588-0.13,0.87c-0.232,0.756-0.486,1.752-0.399,2.753c0.164,1.874,0.557,3.195,1.301,4.355H21.5
				c0.827,0,1.5,0.673,1.5,1.5v16C23,29.327,22.327,30,21.5,30z M8.5,12C8.224,12,8,12.224,8,12.5v16C8,28.776,8.224,29,8.5,29h13
				c0.276,0,0.5-0.224,0.5-0.5v-16c0-0.276-0.224-0.5-0.5-0.5h-2.996c-0.164,0-0.318-0.081-0.412-0.216
				c-0.931-1.348-1.43-2.906-1.618-5.053c-0.103-1.173,0.181-2.291,0.439-3.133C16.971,3.412,17,3.218,17,3.021
				C17,1.907,16.103,1,15,1s-2,0.907-2,2.021c0,0.196,0.029,0.391,0.086,0.578c0.258,0.842,0.542,1.959,0.439,3.132
				c-0.188,2.147-0.686,3.706-1.616,5.053C11.815,11.919,11.662,12,11.498,12H8.5z"/>
		</g>
		<g>
			<path d="M19.5,28h-9c-0.276,0-0.5-0.224-0.5-0.5c0-0.276-0.224-0.5-0.5-0.5C9.224,27,9,26.776,9,26.5v-12
				C9,14.224,9.224,14,9.5,14c0.276,0,0.5-0.224,0.5-0.5c0-0.276,0.224-0.5,0.5-0.5h9c0.276,0,0.5,0.224,0.5,0.5
				c0,0.276,0.224,0.5,0.5,0.5c0.276,0,0.5,0.224,0.5,0.5v12c0,0.276-0.224,0.5-0.5,0.5c-0.276,0-0.5,0.224-0.5,0.5
				C20,27.776,19.776,28,19.5,28z M10.915,27h8.171c0.151-0.426,0.489-0.764,0.915-0.915V14.915
				c-0.426-0.151-0.764-0.489-0.915-0.915h-8.171c-0.151,0.426-0.489,0.764-0.915,0.915v11.171
				C10.426,26.236,10.764,26.574,10.915,27z"/>
		</g>
		<g>
			<path d="M15,4c-0.551,0-1-0.449-1-1s0.449-1,1-1s1,0.449,1,1S15.551,4,15,4z M15,2.999C15,3,15,3,15,2.999L15.5,3L15,2.999z"/>
		</g>
	</g>
</g>
<g id="Chef_x27_s_Hat_1">
</g>
<g id="Chef_x27_s_Hat_2">
</g>
<g id="Kitchen_Scale">
</g>
<g id="Measuring_Cup">
</g>
<g id="Pot_1">
</g>
<g id="Pot_2">
</g>
<g id="Wok_1">
</g>
<g id="Wok_2">
</g>
<g id="Teapot">
</g>
<g id="Plate">
</g>
<g id="Sauce_Boat">
</g>
<g id="Cauldron">
</g>
<g id="Cookbook">
</g>
<g id="Salt_Pot">
</g>
<g id="Pepper_Pot_1">
</g>
<g id="Pepper_Pot_2">
</g>
<g id="Egg_Timer">
</g>
<g id="Olive_Oil_Pot">
</g>
<g id="Pancake_Griddle">
</g>
<g id="Pan">
</g>
<g id="Kettle">
</g>
<g id="Microwave">
</g>
<g id="Cooker">
</g>
<g id="Meat_Grinder">
</g>
<g id="Coffee_Maker">
</g>
<g id="Household_Mixer">
</g>
<g id="Stand_Mixer">
</g>
<g id="Hand_Blender">
</g>
<g id="Blender">
</g>
<g id="Cooker_Hood">
</g>
<g id="Refrigerator">
</g>
<g id="Freezer">
</g>
<g id="Apron">
</g>
<g id="Oven_Gloves">
</g>
<g id="Rolling_Pin">
</g>
<g id="Sieve">
</g>
<g id="Tea_Sieve">
</g>
<g id="Grater">
</g>
<g id="Knife_Holder">
</g>
<g id="Funnel">
</g>
<g id="Kitchen_Clock">
</g>
<g id="Lemon_Juicer">
</g>
<g id="Pastry_Bag_1">
</g>
<g id="Pastry_Bag_2">
</g>
<g id="Corkscrew">
</g>
<g id="Bottle_Opener">
</g>
<g id="Service">
</g>
<g id="Chopsticks">
</g>
<g id="Hatchet">
</g>
<g id="Filleting_Knife">
</g>
<g id="Bread_Knife">
</g>
<g id="Herb_Knife">
</g>
<g id="Whetting">
</g>
<g id="Cake_Knife">
</g>
<g id="Layer_58">
</g>
<g id="Ladle">
</g>
<g id="Sauce_Spoon">
</g>
<g id="Egg_Beater">
</g>
<g id="Meat_Fork">
</g>
<g id="Kitchen_Spoon_1">
</g>
<g id="Kitchen_Spoon_2">
</g>
<g id="Pizza_Cutter">
</g>
<g id="Potato_Musher">
</g>
<g id="Peeler">
</g>
<g id="Honey_Dipper">
</g>
<g id="Fork">
</g>
<g id="Knife">
</g>
<g id="Spoon">
</g>
<g id="Cutlery_Set">
</g>
<g id="Sugar_Bowl">
</g>
<g id="Matches">
</g>
<g id="Cezve">
</g>
</svg>
