<?xml version="1.0" encoding="iso-8859-1"?>
<!-- Generator: Adobe Illustrator 19.2.1, SVG Export Plug-In . SVG Version: 6.00 Build 0)  -->
<svg version="1.1" xmlns="http://www.w3.org/2000/svg" xmlns:xlink="http://www.w3.org/1999/xlink" x="0px" y="0px"
	 viewBox="0 0 24 24" style="enable-background:new 0 0 24 24;" xml:space="preserve">
<g id="Egg_1_">
</g>
<g id="Easter_Egg_1">
</g>
<g id="Easter_Egg_2">
</g>
<g id="Easter_Egg_3">
</g>
<g id="Eggs_1">
</g>
<g id="Eggs_2_1_">
</g>
<g id="Bunny">
</g>
<g id="Sheep">
</g>
<g id="Bell_Alarm">
</g>
<g id="Calendar">
</g>
<g id="Tulip">
</g>
<g id="Chicken">
</g>
<g id="Chicken_2">
</g>
<g id="Baguette">
</g>
<g id="Ham_1_">
</g>
<g id="Bell_2">
</g>
<g id="Bell_3">
</g>
<g id="Bell_4">
</g>
<g id="Easter_celebration">
</g>
<g id="Egg_painting">
</g>
<g id="Easter_willow">
</g>
<g id="Daffodil">
	<g>
		<circle cx="12" cy="9.487" r="0.5"/>
		<path d="M15.211,8.649c-0.001-0.032,0.018-0.125,0.031-0.187c0.047-0.222,0.112-0.526-0.056-0.815
			c-0.168-0.291-0.466-0.387-0.684-0.458c-0.058-0.019-0.147-0.049-0.14-0.03c-0.017-0.027-0.045-0.116-0.064-0.174
			c-0.07-0.218-0.167-0.516-0.458-0.684c-0.289-0.167-0.592-0.102-0.815-0.056c-0.062,0.013-0.154,0.033-0.142,0.044
			c-0.027-0.015-0.094-0.076-0.138-0.116C12.575,6.019,12.341,5.807,12,5.807s-0.576,0.212-0.747,0.366
			c-0.044,0.041-0.111,0.101-0.092,0.103c-0.034,0.001-0.125-0.018-0.187-0.031c-0.222-0.047-0.527-0.111-0.815,0.056
			C9.868,6.469,9.772,6.766,9.702,6.984c-0.019,0.058-0.063,0.133-0.03,0.14C9.645,7.141,9.556,7.169,9.497,7.188
			c-0.218,0.07-0.516,0.167-0.684,0.458C8.646,7.935,8.71,8.239,8.758,8.461c0.013,0.062,0.031,0.147,0.044,0.142
			C8.787,8.629,8.726,8.697,8.686,8.741C8.532,8.912,8.32,9.146,8.32,9.487s0.212,0.576,0.366,0.747
			c0.04,0.043,0.097,0.118,0.103,0.092c0.001,0.032-0.018,0.125-0.031,0.187c-0.047,0.222-0.112,0.526,0.056,0.815
			c0.168,0.291,0.466,0.387,0.684,0.458c0.058,0.018,0.147,0.048,0.14,0.03c0.017,0.027,0.045,0.116,0.064,0.174
			c0.07,0.218,0.167,0.516,0.458,0.684c0.29,0.168,0.594,0.103,0.815,0.056c0.062-0.013,0.154-0.033,0.142-0.044
			c0.027,0.015,0.094,0.076,0.138,0.116c0.171,0.154,0.405,0.366,0.747,0.366s0.576-0.212,0.747-0.366
			c0.044-0.041,0.111-0.101,0.092-0.103c0.044,0.007,0.126,0.018,0.187,0.031c0.222,0.047,0.527,0.112,0.815-0.056
			c0.291-0.168,0.387-0.466,0.458-0.684c0.019-0.058,0.058-0.144,0.03-0.14c0.027-0.017,0.116-0.045,0.174-0.064
			c0.218-0.07,0.516-0.167,0.684-0.458c0.167-0.289,0.103-0.593,0.056-0.815c-0.014-0.063-0.03-0.147-0.044-0.142
			c0.015-0.027,0.076-0.094,0.116-0.138c0.154-0.171,0.366-0.405,0.366-0.747s-0.212-0.576-0.366-0.747
			C15.274,8.698,15.219,8.628,15.211,8.649z M12,10.987c-0.827,0-1.5-0.673-1.5-1.5s0.673-1.5,1.5-1.5s1.5,0.673,1.5,1.5
			S12.827,10.987,12,10.987z"/>
		<path d="M18.596,9.632c-0.021-0.053-0.054-0.096-0.082-0.143c0.026-0.043,0.057-0.082,0.076-0.13l1.6-4
			c0.123-0.309,0.086-0.657-0.101-0.932c-0.186-0.275-0.496-0.439-0.828-0.439h-3.951c-0.026-0.057-0.051-0.116-0.088-0.168
			L12.808,0.41c-0.374-0.53-1.242-0.53-1.616,0L8.777,3.819C8.74,3.871,8.716,3.93,8.689,3.987H4.738
			c-0.332,0-0.642,0.164-0.828,0.439C3.724,4.701,3.687,5.05,3.81,5.358l1.6,4c0.019,0.048,0.05,0.086,0.075,0.129
			C5.46,9.53,5.429,9.569,5.41,9.616l-1.6,4c-0.123,0.309-0.086,0.657,0.101,0.932c0.186,0.275,0.496,0.439,0.828,0.439h3.951
			c0.026,0.057,0.051,0.116,0.088,0.168l2.415,3.408c0.187,0.265,0.489,0.423,0.808,0.423s0.621-0.158,0.808-0.423l1.666-2.352
			c-0.121,1.38-0.521,3.425-1.731,5.413c-0.658,0.872-1.103,1.504-1.153,1.575c-0.014,0.02-0.018,0.044-0.029,0.066
			c-0.015,0.031-0.032,0.06-0.04,0.092c-0.008,0.031-0.01,0.062-0.012,0.094c-0.002,0.032-0.006,0.063-0.002,0.095
			c0.004,0.032,0.015,0.062,0.025,0.093c0.01,0.03,0.018,0.059,0.034,0.087c0.016,0.029,0.039,0.054,0.061,0.08
			c0.016,0.019,0.025,0.041,0.044,0.057c0.008,0.007,0.017,0.009,0.025,0.015c0.007,0.005,0.01,0.013,0.017,0.018
			c0.009,0.006,0.019,0.004,0.028,0.009c0.08,0.049,0.167,0.081,0.257,0.081c0,0,0,0,0.001,0l0,0l0,0
			c0.074,0,0.147-0.019,0.215-0.052c0.022-0.011,0.039-0.03,0.059-0.044c0.035-0.024,0.073-0.042,0.102-0.076
			c0.467-0.534,0.863-1.083,1.203-1.635c1.228-1.623,3.191-4.069,4.733-5.303c0.215-0.173,0.25-0.487,0.078-0.703
			c-0.172-0.214-0.487-0.251-0.703-0.078c-0.835,0.668-1.767,1.648-2.647,2.668c0.443-1.644,0.499-3.043,0.484-3.777h3.706
			c0.322,0,0.626-0.165,0.813-0.441c0.204-0.301,0.244-0.685,0.108-1.026L18.596,9.632z M16.052,11.829
			c-0.253,0.439-0.624,0.664-0.92,0.792c-0.129,0.299-0.354,0.667-0.791,0.919c-0.277,0.161-0.589,0.243-0.925,0.243
			c-0.095,0-0.185-0.007-0.268-0.017c-0.265,0.197-0.645,0.401-1.149,0.401c-0.509,0-0.891-0.208-1.15-0.401
			c-0.082,0.01-0.172,0.017-0.267,0.017c-0.336,0-0.648-0.083-0.927-0.245c-0.438-0.252-0.663-0.623-0.79-0.919
			c-0.303-0.131-0.667-0.355-0.918-0.79c-0.255-0.439-0.265-0.873-0.227-1.192C7.523,10.37,7.32,9.991,7.32,9.487
			c0-0.51,0.208-0.892,0.402-1.151c-0.038-0.321-0.027-0.752,0.226-1.19C8.201,6.707,8.57,6.482,8.867,6.354
			c0.124-0.29,0.349-0.664,0.792-0.919c0.278-0.161,0.589-0.243,0.925-0.243c0.095,0,0.185,0.006,0.267,0.016
			c0.265-0.197,0.645-0.401,1.15-0.401c0.51,0,0.892,0.208,1.151,0.402c0.083-0.01,0.172-0.016,0.267-0.016
			c0.335,0,0.646,0.082,0.924,0.243c0.438,0.253,0.664,0.623,0.791,0.92c0.3,0.129,0.667,0.354,0.919,0.79
			c0.255,0.439,0.265,0.873,0.227,1.192c0.199,0.268,0.401,0.646,0.401,1.149c0,0.51-0.208,0.893-0.402,1.152
			C16.316,10.965,16.304,11.393,16.052,11.829z"/>
	</g>
</g>
<g id="Easter_message">
</g>
<g id="Bunny_2">
</g>
<g id="Chicken_3">
</g>
<g id="Tulip_2">
</g>
<g id="Easter_basket">
</g>
<g id="Bread_and_wine">
</g>
<g id="Sheep_2">
</g>
<g id="Candle_Light">
</g>
</svg>
