<?xml version="1.0" encoding="iso-8859-1"?>
<!-- Generator: Adobe Illustrator 19.2.1, SVG Export Plug-In . SVG Version: 6.00 Build 0)  -->
<svg version="1.1" xmlns="http://www.w3.org/2000/svg" xmlns:xlink="http://www.w3.org/1999/xlink" x="0px" y="0px"
	 viewBox="0 0 30 30" style="enable-background:new 0 0 30 30;" xml:space="preserve">
<g id="Man_1">
</g>
<g id="Woman_1">
</g>
<g id="Man_2">
</g>
<g id="Woman_2">
</g>
<g id="Bald_Man">
</g>
<g id="Man_Glasses">
</g>
<g id="Woman_Glasses">
</g>
<g id="Man_Beard">
</g>
<g id="Man_Cap">
</g>
<g id="Woman_Cap">
</g>
<g id="Man_3">
</g>
<g id="Woman_3">
</g>
<g id="Men_4">
</g>
<g id="Woman_4">
</g>
<g id="Business_Man_1">
</g>
<g id="Business_Woman_1">
</g>
<g id="Firefigyhter">
</g>
<g id="Policeman">
</g>
<g id="Criminal">
</g>
<g id="Prisoner">
</g>
<g id="Woodsman">
</g>
<g id="Dispatcher_1">
</g>
<g id="Dispatcher_2">
</g>
<g id="Soldier">
</g>
<g id="Astronaut">
</g>
<g id="Hipster_Guy">
</g>
<g id="Hipster_Girl">
</g>
<g id="Worker">
</g>
<g id="Old_Man">
</g>
<g id="Punk">
</g>
<g id="Diver">
</g>
<g id="Artist">
</g>
<g id="Dictator">
</g>
<g id="Man_Hat">
</g>
<g id="Woman_Hat">
</g>
<g id="Graduated_Man">
</g>
<g id="Graduated_Woman">
</g>
<g id="Avatar_Chef">
</g>
<g id="Waiter">
</g>
<g id="Waitress">
</g>
<g id="Bllboy">
</g>
<g id="Santa">
</g>
<g id="Doctor">
</g>
<g id="Nurse">
</g>
<g id="Captain">
</g>
<g id="Farmer">
</g>
<g id="Maid">
</g>
<g id="Business_Man_2">
</g>
<g id="Business_Woman_2">
</g>
<g id="Cowboy">
</g>
<g id="Anonymus">
</g>
<g id="Batman">
</g>
<g id="Superman">
</g>
<g id="Captain_America">
</g>
<g id="Darth_Vader">
	<g>
		<path d="M15,6.5c0.551,0,1-0.364,1-0.813V3.086C15.656,3.034,15.319,3,15,3s-0.656,0.034-1,0.086v2.601
			C14,6.136,14.449,6.5,15,6.5z"/>
		<path d="M23,9.5c0-3.041-3.107-5.402-6-6.203v2.391c0,1-0.897,1.813-2,1.813c-1.103,0-2-0.813-2-1.813V3.297
			C10.107,4.098,7,6.459,7,9.5v1.938L5.367,17.97C6.85,14.836,9.953,9,12.5,9c0.744,0,1.237,0.342,1.634,0.617
			c0.685,0.476,1.048,0.476,1.732,0C16.263,9.342,16.756,9,17.5,9c2.548,0,5.652,5.84,7.134,8.973L23,11.438V9.5z"/>
		<polygon points="11.109,16.877 11.719,19.315 13.853,16.267 		"/>
		<polygon points="18.281,19.315 18.891,16.877 16.147,16.267 		"/>
		<polygon points="12.46,20 17.54,20 15,16.372 		"/>
		<path d="M15,0C6.729,0,0,6.729,0,15c0,4.012,1.592,7.653,4.167,10.347c0.024,0.023,0.039,0.056,0.067,0.074
			C6.962,28.239,10.777,30,15,30c4.224,0,8.038-1.761,10.767-4.579c0.028-0.018,0.043-0.05,0.067-0.074
			C28.408,22.653,30,19.012,30,15C30,6.729,23.271,0,15,0z M19.985,16.621l-1,4c-0.004,0.018-0.022,0.026-0.028,0.043
			c-0.008,0.022-0.003,0.046-0.014,0.067c-0.023,0.044-0.065,0.071-0.099,0.106c-0.023,0.023-0.037,0.05-0.064,0.068
			C18.699,20.962,18.604,21,18.5,21h-7c-0.011,0-0.019-0.008-0.03-0.008c-0.081-0.005-0.159-0.023-0.227-0.064
			c-0.004-0.003-0.007-0.007-0.011-0.009c-0.064-0.041-0.114-0.099-0.154-0.165c-0.006-0.009-0.016-0.013-0.021-0.023
			c-0.007-0.013-0.003-0.027-0.008-0.04c-0.01-0.024-0.027-0.044-0.033-0.07l-1-4c-0.033-0.131-0.011-0.27,0.06-0.384
			c0.071-0.115,0.185-0.196,0.317-0.226l4.5-1c0.071-0.016,0.146-0.016,0.217,0l4.5,1c0.132,0.029,0.246,0.11,0.317,0.226
			C19.996,16.352,20.018,16.49,19.985,16.621z M10.086,13.219C10.171,13.094,10.945,12,12,12c1.008,0,1.817,1.084,1.906,1.208
			c0.109,0.152,0.124,0.353,0.039,0.52S13.687,14,13.5,14h-3c-0.185,0-0.355-0.103-0.442-0.266S9.982,13.372,10.086,13.219z
			 M19.945,13.728C19.859,13.895,19.687,14,19.5,14h-3c-0.186,0-0.355-0.103-0.441-0.266c-0.087-0.164-0.076-0.362,0.028-0.515
			C16.171,13.094,16.945,12,18,12c1.009,0,1.817,1.084,1.906,1.208C20.016,13.36,20.03,13.561,19.945,13.728z M25.349,24.395
			l-4.427-1.845c1.998-0.78,3.113-1.774,3.631-2.336c-0.003-0.007-0.01-0.011-0.013-0.019C22.867,16.254,19.478,10,17.5,10
			c-0.431,0-0.725,0.203-1.063,0.438C16.057,10.702,15.626,11,15,11s-1.057-0.298-1.436-0.562C13.224,10.203,12.931,10,12.5,10
			c-1.979,0-5.368,6.254-7.04,10.195c-0.003,0.007-0.011,0.01-0.015,0.017c0.517,0.562,1.633,1.558,3.632,2.338l-4.427,1.845
			C2.391,21.908,1,18.617,1,15C1,7.28,7.28,1,15,1s14,6.28,14,14C29,18.617,27.609,21.908,25.349,24.395z"/>
	</g>
</g>
<g id="Harry_Potter">
</g>
<g id="Anonymus_2">
</g>
<g id="Scream">
</g>
<g id="Jason">
</g>
<g id="Charlie_Chaplin">
</g>
</svg>
