<?xml version="1.0" encoding="iso-8859-1"?>
<!-- Generator: Adobe Illustrator 19.2.1, SVG Export Plug-In . SVG Version: 6.00 Build 0)  -->
<svg version="1.1" xmlns="http://www.w3.org/2000/svg" xmlns:xlink="http://www.w3.org/1999/xlink" x="0px" y="0px"
	 viewBox="0 0 30 30" style="enable-background:new 0 0 30 30;" xml:space="preserve">
<g id="Photo_frame">
</g>
<g id="Photo_frame_2">
</g>
<g id="Photo_frame_3">
</g>
<g id="Photo_frame__4">
</g>
<g id="Photo_frame_5">
</g>
<g id="Photo_frame_6">
</g>
<g id="Photo_frame_7">
</g>
<g id="Round_Frame_1">
</g>
<g id="Rectangle_Frame_1">
</g>
<g id="Square_Frame_1">
</g>
<g id="Rectangle_Frame_2">
</g>
<g id="Oval_Frame_1">
</g>
<g id="Round_Frame_2">
</g>
<g id="Rectangle_Frame_3">
</g>
<g id="Rectangle_Frame_4">
</g>
<g id="Rectangle_Frame_5">
</g>
<g id="Square_Frame_2">
</g>
<g id="Rectangle_Frame_6">
</g>
<g id="Rectangle_Frame_7">
</g>
<g id="Oval_Frame_2">
</g>
<g id="Round_Frame_3">
</g>
<g id="Rectangle_Frame_8">
</g>
<g id="Square_Frame_3">
</g>
<g id="Rectangle_Frame_9">
</g>
<g id="Rectangle_Frame_10">
</g>
<g id="Square_Frame_4">
</g>
<g id="Rectangle_Frame_11">
</g>
<g id="Rectangle_Frame_12">
</g>
<g id="Square_Frame_5">
</g>
<g id="Rectangle_Frame_13">
</g>
<g id="Round_Frame">
</g>
<g id="Frame_2">
</g>
<g id="Frame_1">
</g>
<g id="Frame_3">
</g>
<g id="Frame_4">
</g>
<g id="Frame_5">
</g>
<g id="Frame_6">
</g>
<g id="Frame_7">
</g>
<g id="Frame_8">
</g>
<g id="Frame_9">
</g>
<g id="Frame_10">
</g>
<g id="Frame_11">
</g>
<g id="Frame_12">
</g>
<g id="Frame_13">
</g>
<g id="Frame_14">
</g>
<g id="Frame_15">
</g>
<g id="Frame_16">
</g>
<g id="Frame_17">
</g>
<g id="Frame_18">
</g>
<g id="Frame_19">
</g>
<g id="Frame_20">
</g>
<g id="Frame_21">
</g>
<g id="Frame_22">
</g>
<g id="Frame_23">
</g>
<g id="Frame_24">
</g>
<g id="Frame_25">
</g>
<g id="Frame_26">
</g>
<g id="Frame_27">
</g>
<g id="Frame_28">
</g>
<g id="Frame_29">
</g>
<g id="Frame_30">
</g>
<g id="Frame_Hole_1">
</g>
<g id="Frame_Hole_2">
</g>
<g id="Frame_Hole_3">
</g>
<g id="Frame_Hole_4">
</g>
<g id="Frame_31">
</g>
<g id="Frame_32">
</g>
<g id="Frame_33">
</g>
<g id="Frame_34">
</g>
<g id="Frame_35">
</g>
<g id="Dashed_Frame_1">
</g>
<g id="Dashed_Frame_2">
</g>
<g id="Dashed_Frame_3">
</g>
<g id="Dashed_Frame_4">
</g>
<g id="Dashed_Frame_5">
</g>
<g id="Dashed_Frame_6">
</g>
<g id="Dashed_Frame_7">
</g>
<g id="Dashed_Frame_8">
</g>
<g id="Dashed_Frame_9">
</g>
<g id="Dashed_Frame_10">
</g>
<g id="Dashed_Frame_11">
</g>
<g id="Dashed_Frame_12">
</g>
<g id="Dashed_Frame_13">
</g>
<g id="Dashed_Frame_14">
	<path d="M26.979,9.227c-1.811,0-3.283-1.549-3.283-3.454c0-0.276-0.224-0.5-0.5-0.5c-1.81,0-3.282-1.55-3.282-3.455
		c0-1.002-0.79-1.818-1.761-1.818h-6.305c-0.971,0-1.761,0.816-1.761,1.818c0,1.905-1.473,3.455-3.283,3.455
		c-0.276,0-0.5,0.224-0.5,0.5c0,1.905-1.473,3.454-3.283,3.454C1.355,9.227,0,10.634,0,12.364v5.273
		c0,1.729,1.355,3.136,3.022,3.136c1.81,0,3.282,1.55,3.282,3.455c0,0.276,0.224,0.5,0.5,0.5c1.81,0,3.283,1.55,3.283,3.454
		c0,1.003,0.79,1.818,1.761,1.818h6.305c0.971,0,1.761-0.815,1.761-1.818c0-1.904,1.473-3.454,3.282-3.454
		c0.276,0,0.5-0.224,0.5-0.5c0-1.905,1.473-3.455,3.283-3.455c1.666,0,3.021-1.406,3.021-3.136v-5.273
		C30,10.634,28.645,9.227,26.979,9.227z M22.174,10.772c0.108-0.253,0.399-0.373,0.656-0.264c0.269,0.115,0.553,0.173,0.844,0.173
		c0.717,0,1.383,0.335,1.827,0.919c0.168,0.22,0.125,0.533-0.095,0.701c-0.091,0.069-0.197,0.102-0.303,0.102
		c-0.15,0-0.3-0.068-0.397-0.197c-0.255-0.333-0.631-0.525-1.032-0.525c-0.427,0-0.843-0.085-1.236-0.253
		C22.184,11.32,22.065,11.026,22.174,10.772z M4,16.363v-2.729c0-0.276,0.224-0.5,0.5-0.5s0.5,0.224,0.5,0.5v2.729
		c0,0.276-0.224,0.5-0.5,0.5S4,16.64,4,16.363z M7.825,19.229c-0.082,0.189-0.266,0.303-0.459,0.303
		c-0.066,0-0.133-0.013-0.197-0.041c-0.269-0.115-0.519-0.168-0.846-0.173c-0.716,0-1.381-0.335-1.825-0.919
		c-0.167-0.221-0.124-0.534,0.096-0.701c0.22-0.166,0.533-0.124,0.701,0.096c0.253,0.333,0.628,0.524,1.029,0.524
		c0,0,0.001,0,0.001,0c0.429,0,0.845,0.086,1.238,0.255C7.816,18.682,7.934,18.976,7.825,19.229z M7.565,11.427
		c-0.393,0.169-0.81,0.254-1.239,0.254c-0.402,0-0.778,0.191-1.032,0.523c-0.098,0.129-0.247,0.197-0.398,0.197
		c-0.105,0-0.212-0.033-0.303-0.103c-0.22-0.167-0.262-0.481-0.094-0.701c0.445-0.583,1.11-0.917,1.827-0.917
		c0.292,0,0.576-0.058,0.843-0.173c0.254-0.109,0.548,0.008,0.657,0.262C7.936,11.024,7.818,11.318,7.565,11.427z M8.256,9.516
		c0.202-0.361,0.309-0.775,0.309-1.198c0-0.276,0.224-0.5,0.5-0.5c0.408,0,0.807-0.117,1.154-0.338
		c0.232-0.149,0.542-0.08,0.69,0.153c0.148,0.233,0.08,0.542-0.153,0.69c-0.374,0.238-0.79,0.394-1.222,0.459
		c-0.058,0.43-0.195,0.845-0.405,1.221c-0.092,0.164-0.262,0.256-0.437,0.256c-0.083,0-0.167-0.021-0.244-0.063
		C8.208,10.062,8.122,9.757,8.256,9.516z M10.91,22.366c-0.095,0.149-0.257,0.231-0.422,0.231c-0.092,0-0.185-0.025-0.268-0.078
		c-0.347-0.221-0.747-0.338-1.154-0.338c-0.276,0-0.5-0.224-0.5-0.5c0-0.422-0.107-0.837-0.309-1.198
		c-0.135-0.241-0.048-0.546,0.193-0.681c0.241-0.134,0.545-0.049,0.68,0.192c0.21,0.377,0.347,0.792,0.405,1.222
		c0.432,0.065,0.848,0.221,1.222,0.459C10.989,21.824,11.058,22.133,10.91,22.366z M13.887,26h-1.169
		c-0.779,0-1.413-0.652-1.413-1.454c0-0.191-0.021-0.381-0.064-0.563c-0.062-0.27,0.105-0.538,0.375-0.601
		c0.265-0.061,0.538,0.105,0.6,0.374c0.059,0.257,0.089,0.521,0.089,0.789c0,0.25,0.186,0.454,0.413,0.454h1.169
		c0.276,0,0.5,0.224,0.5,0.5S14.163,26,13.887,26z M13.901,5h-1.184c-0.228,0-0.413,0.204-0.413,0.455
		c0,0.26-0.029,0.52-0.085,0.771c-0.052,0.232-0.259,0.39-0.487,0.39c-0.037,0-0.073-0.004-0.11-0.012
		c-0.27-0.061-0.438-0.328-0.378-0.598c0.041-0.18,0.061-0.365,0.061-0.552C11.304,4.652,11.938,4,12.717,4h1.184
		c0.276,0,0.5,0.224,0.5,0.5S14.177,5,13.901,5z M18.757,23.992c-0.041,0.181-0.062,0.367-0.062,0.554
		c0,0.802-0.634,1.454-1.413,1.454H16.1c-0.276,0-0.5-0.224-0.5-0.5s0.224-0.5,0.5-0.5h1.183c0.228,0,0.413-0.204,0.413-0.454
		c0-0.261,0.028-0.521,0.085-0.772c0.061-0.269,0.324-0.436,0.598-0.379C18.647,23.455,18.817,23.723,18.757,23.992z M18.385,6.618
		C18.347,6.626,18.31,6.63,18.272,6.63c-0.229,0-0.435-0.157-0.487-0.388c-0.06-0.259-0.09-0.524-0.09-0.788
		C17.695,5.204,17.51,5,17.282,5h-1.169c-0.276,0-0.5-0.224-0.5-0.5s0.224-0.5,0.5-0.5h1.169c0.779,0,1.413,0.652,1.413,1.455
		c0,0.188,0.021,0.377,0.064,0.564C18.821,6.288,18.653,6.556,18.385,6.618z M21.743,20.482c-0.202,0.362-0.309,0.777-0.309,1.199
		c0,0.276-0.224,0.5-0.5,0.5c-0.407,0-0.807,0.117-1.154,0.338c-0.084,0.053-0.177,0.078-0.269,0.078
		c-0.165,0-0.327-0.082-0.422-0.231c-0.148-0.233-0.079-0.543,0.153-0.69c0.375-0.238,0.791-0.394,1.223-0.459
		c0.058-0.43,0.194-0.845,0.404-1.221c0.135-0.242,0.44-0.328,0.68-0.193C21.791,19.938,21.878,20.241,21.743,20.482z
		 M21.551,10.197c-0.077,0.043-0.161,0.063-0.244,0.063c-0.175,0-0.345-0.092-0.437-0.256c-0.21-0.376-0.347-0.792-0.404-1.221
		c-0.433-0.065-0.848-0.221-1.223-0.459c-0.232-0.148-0.302-0.458-0.153-0.69c0.15-0.232,0.461-0.299,0.69-0.153
		c0.348,0.221,0.747,0.338,1.154,0.338c0.276,0,0.5,0.224,0.5,0.5c0,0.422,0.106,0.836,0.309,1.198
		C21.878,9.758,21.791,10.062,21.551,10.197z M25.5,18.401c-0.443,0.583-1.109,0.917-1.826,0.917c-0.292,0-0.575,0.059-0.844,0.174
		c-0.064,0.027-0.131,0.04-0.197,0.04c-0.193,0-0.378-0.113-0.46-0.303c-0.108-0.254,0.009-0.548,0.263-0.657
		c0.394-0.168,0.811-0.254,1.238-0.254c0.402,0,0.778-0.19,1.031-0.522c0.167-0.221,0.483-0.262,0.7-0.095
		C25.625,17.868,25.668,18.182,25.5,18.401z M26,16.366c0,0.276-0.224,0.5-0.5,0.5s-0.5-0.224-0.5-0.5v-2.73
		c0-0.276,0.224-0.5,0.5-0.5s0.5,0.224,0.5,0.5V16.366z"/>
</g>
<g id="Dashed_Frame_15">
</g>
<g id="Dashed_Frame_16">
</g>
<g id="Dashed_Frame_17">
</g>
<g id="Dashed_Frame_18">
</g>
<g id="Dashed_Frame_19">
</g>
<g id="Dashed_Frame_20">
</g>
<g id="Dashed_Frame_25">
</g>
<g id="Dashed_Frame_26">
</g>
<g id="Dashed_Frame_27">
</g>
<g id="Dashed_Frame_28">
</g>
<g id="Dashed_Frame_29">
</g>
<g id="Dashed_Frame_30">
</g>
<g id="Dashed_Frame_31">
</g>
<g id="Dashed_Frame_32">
</g>
<g id="Dashed_Frame_33">
</g>
<g id="Dashed_Frame_35">
</g>
</svg>
