<?xml version="1.0" encoding="iso-8859-1"?>
<!-- Generator: Adobe Illustrator 19.2.1, SVG Export Plug-In . SVG Version: 6.00 Build 0)  -->
<svg version="1.1" xmlns="http://www.w3.org/2000/svg" xmlns:xlink="http://www.w3.org/1999/xlink" x="0px" y="0px"
	 viewBox="0 0 30 30" style="enable-background:new 0 0 30 30;" xml:space="preserve">
<g id="Photo_frame">
</g>
<g id="Photo_frame_2">
</g>
<g id="Photo_frame_3">
</g>
<g id="Photo_frame__4">
</g>
<g id="Photo_frame_5">
</g>
<g id="Photo_frame_6">
</g>
<g id="Photo_frame_7">
</g>
<g id="Round_Frame_1">
</g>
<g id="Rectangle_Frame_1">
</g>
<g id="Square_Frame_1">
</g>
<g id="Rectangle_Frame_2">
</g>
<g id="Oval_Frame_1">
</g>
<g id="Round_Frame_2">
</g>
<g id="Rectangle_Frame_3">
</g>
<g id="Rectangle_Frame_4">
</g>
<g id="Rectangle_Frame_5">
</g>
<g id="Square_Frame_2">
</g>
<g id="Rectangle_Frame_6">
</g>
<g id="Rectangle_Frame_7">
</g>
<g id="Oval_Frame_2">
</g>
<g id="Round_Frame_3">
</g>
<g id="Rectangle_Frame_8">
</g>
<g id="Square_Frame_3">
</g>
<g id="Rectangle_Frame_9">
</g>
<g id="Rectangle_Frame_10">
</g>
<g id="Square_Frame_4">
</g>
<g id="Rectangle_Frame_11">
</g>
<g id="Rectangle_Frame_12">
</g>
<g id="Square_Frame_5">
</g>
<g id="Rectangle_Frame_13">
</g>
<g id="Round_Frame">
</g>
<g id="Frame_2">
</g>
<g id="Frame_1">
</g>
<g id="Frame_3">
</g>
<g id="Frame_4">
</g>
<g id="Frame_5">
</g>
<g id="Frame_6">
</g>
<g id="Frame_7">
</g>
<g id="Frame_8">
</g>
<g id="Frame_9">
</g>
<g id="Frame_10">
</g>
<g id="Frame_11">
</g>
<g id="Frame_12">
</g>
<g id="Frame_13">
</g>
<g id="Frame_14">
</g>
<g id="Frame_15">
</g>
<g id="Frame_16">
</g>
<g id="Frame_17">
</g>
<g id="Frame_18">
</g>
<g id="Frame_19">
</g>
<g id="Frame_20">
</g>
<g id="Frame_21">
</g>
<g id="Frame_22">
</g>
<g id="Frame_23">
</g>
<g id="Frame_24">
</g>
<g id="Frame_25">
</g>
<g id="Frame_26">
</g>
<g id="Frame_27">
</g>
<g id="Frame_28">
</g>
<g id="Frame_29">
</g>
<g id="Frame_30">
</g>
<g id="Frame_Hole_1">
</g>
<g id="Frame_Hole_2">
</g>
<g id="Frame_Hole_3">
</g>
<g id="Frame_Hole_4">
</g>
<g id="Frame_31">
</g>
<g id="Frame_32">
</g>
<g id="Frame_33">
</g>
<g id="Frame_34">
</g>
<g id="Frame_35">
</g>
<g id="Dashed_Frame_1">
</g>
<g id="Dashed_Frame_2">
</g>
<g id="Dashed_Frame_3">
</g>
<g id="Dashed_Frame_4">
</g>
<g id="Dashed_Frame_5">
</g>
<g id="Dashed_Frame_6">
</g>
<g id="Dashed_Frame_7">
</g>
<g id="Dashed_Frame_8">
</g>
<g id="Dashed_Frame_9">
</g>
<g id="Dashed_Frame_10">
</g>
<g id="Dashed_Frame_11">
</g>
<g id="Dashed_Frame_12">
</g>
<g id="Dashed_Frame_13">
</g>
<g id="Dashed_Frame_14">
</g>
<g id="Dashed_Frame_15">
</g>
<g id="Dashed_Frame_16">
</g>
<g id="Dashed_Frame_17">
</g>
<g id="Dashed_Frame_18">
</g>
<g id="Dashed_Frame_19">
</g>
<g id="Dashed_Frame_20">
</g>
<g id="Dashed_Frame_25">
</g>
<g id="Dashed_Frame_26">
</g>
<g id="Dashed_Frame_27">
	<path d="M29.749,14.567L22,10.106V7.5C22,7.224,21.776,7,21.5,7h-4.288L15.26,5.812c-0.159-0.097-0.36-0.097-0.52,0L12.789,7H8.5
		C8.224,7,8,7.224,8,7.5v2.606l-7.75,4.461C0.096,14.656,0,14.821,0,15s0.096,0.344,0.25,0.434L8,19.894V21.5
		C8,21.776,8.224,22,8.5,22h2.217l4.023,2.448c0.08,0.049,0.17,0.073,0.26,0.073s0.18-0.024,0.26-0.073L19.283,22H21.5
		c0.276,0,0.5-0.224,0.5-0.5v-1.606l7.749-4.46C29.904,15.344,30,15.179,30,15S29.904,14.656,29.749,14.567z M5.8,15.784
		c-0.093,0.161-0.261,0.251-0.434,0.251c-0.084,0-0.17-0.021-0.249-0.067L4.25,15.47C4.096,15.38,4,15.215,4,15.036
		c0-0.179,0.096-0.344,0.25-0.433l0.867-0.499c0.239-0.139,0.545-0.056,0.683,0.184c0.138,0.239,0.056,0.545-0.184,0.683
		l-0.114,0.066l0.114,0.065C5.855,15.239,5.938,15.544,5.8,15.784z M8.337,17.244c-0.092,0.161-0.261,0.251-0.434,0.251
		c-0.084,0-0.17-0.021-0.249-0.066L6.64,16.845c-0.239-0.138-0.322-0.443-0.184-0.683c0.137-0.24,0.442-0.323,0.683-0.184
		l1.015,0.583C8.393,16.699,8.475,17.005,8.337,17.244z M8.153,13.51l-1.015,0.584C7.06,14.14,6.974,14.161,6.89,14.161
		c-0.173,0-0.341-0.09-0.434-0.25C6.318,13.671,6.4,13.366,6.64,13.228l1.015-0.584c0.239-0.139,0.545-0.056,0.683,0.184
		C8.475,13.066,8.393,13.372,8.153,13.51z M11.293,20.243h-1c-0.276,0-0.5-0.224-0.5-0.5v-1.084l-0.616-0.354
		c-0.24-0.138-0.322-0.443-0.185-0.683c0.137-0.24,0.442-0.323,0.683-0.185l0.867,0.498c0.155,0.089,0.251,0.255,0.251,0.434v0.873
		h0.5c0.276,0,0.5,0.224,0.5,0.5S11.569,20.243,11.293,20.243z M11.293,10.105h-0.5v0.5c0,0.017-0.008,0.031-0.01,0.048
		c0.002,0.017,0.01,0.031,0.01,0.048v1c0,0.179-0.096,0.344-0.25,0.433l-0.867,0.499C9.597,12.679,9.511,12.7,9.427,12.7
		c-0.173,0-0.341-0.09-0.434-0.25c-0.138-0.239-0.056-0.545,0.184-0.683l0.616-0.355v-0.711c0-0.017,0.008-0.031,0.01-0.048
		c-0.002-0.017-0.01-0.031-0.01-0.048v-1c0-0.276,0.224-0.5,0.5-0.5h1c0.276,0,0.5,0.224,0.5,0.5S11.569,10.105,11.293,10.105z
		 M16.114,21.476l-0.854,0.521c-0.08,0.049-0.17,0.073-0.26,0.073s-0.18-0.024-0.26-0.073l-0.854-0.521
		c-0.236-0.144-0.311-0.451-0.167-0.687c0.143-0.237,0.451-0.312,0.687-0.167L15,20.983l0.594-0.361
		c0.235-0.144,0.543-0.069,0.688,0.167C16.425,21.024,16.35,21.332,16.114,21.476z M16.281,9.472
		c-0.095,0.154-0.259,0.24-0.428,0.24c-0.088,0-0.178-0.023-0.26-0.073L15,9.277l-0.594,0.362c-0.237,0.145-0.543,0.068-0.688-0.167
		c-0.144-0.236-0.069-0.543,0.167-0.688l0.854-0.52c0.16-0.097,0.36-0.097,0.521,0l0.854,0.52
		C16.35,8.929,16.425,9.236,16.281,9.472z M20.822,18.306l-0.615,0.354v1.084c0,0.276-0.224,0.5-0.5,0.5h-1
		c-0.276,0-0.5-0.224-0.5-0.5s0.224-0.5,0.5-0.5h0.5V18.37c0-0.179,0.096-0.345,0.251-0.434l0.866-0.498
		c0.235-0.137,0.544-0.057,0.683,0.185C21.145,17.862,21.062,18.168,20.822,18.306z M21.007,12.45
		c-0.093,0.161-0.261,0.25-0.434,0.25c-0.085,0-0.171-0.021-0.25-0.067l-0.866-0.499c-0.154-0.089-0.25-0.254-0.25-0.433v-1
		c0-0.017,0.008-0.031,0.01-0.048c-0.002-0.017-0.01-0.031-0.01-0.048v-0.5h-0.5c-0.276,0-0.5-0.224-0.5-0.5s0.224-0.5,0.5-0.5h1
		c0.276,0,0.5,0.224,0.5,0.5v1c0,0.017-0.008,0.031-0.01,0.048c0.002,0.017,0.01,0.031,0.01,0.048v0.711l0.616,0.355
		C21.063,11.905,21.145,12.21,21.007,12.45z M23.359,16.845l-1.015,0.584c-0.078,0.045-0.164,0.066-0.249,0.066
		c-0.173,0-0.341-0.09-0.434-0.251c-0.138-0.239-0.055-0.545,0.185-0.683l1.015-0.583c0.236-0.139,0.544-0.057,0.683,0.184
		C23.682,16.401,23.599,16.707,23.359,16.845z M23.545,13.91c-0.093,0.161-0.261,0.25-0.434,0.25c-0.085,0-0.171-0.021-0.249-0.067
		l-1.015-0.583c-0.239-0.138-0.322-0.444-0.185-0.683c0.138-0.24,0.445-0.322,0.683-0.184l1.015,0.583
		C23.6,13.365,23.683,13.671,23.545,13.91z M25.749,15.47l-0.866,0.499c-0.078,0.045-0.164,0.067-0.249,0.067
		c-0.173,0-0.341-0.09-0.434-0.251c-0.138-0.239-0.055-0.545,0.185-0.683l0.113-0.065l-0.114-0.066
		c-0.239-0.138-0.321-0.443-0.184-0.683c0.138-0.24,0.443-0.323,0.684-0.184l0.866,0.499c0.154,0.089,0.25,0.254,0.25,0.433
		S25.904,15.38,25.749,15.47z"/>
</g>
<g id="Dashed_Frame_28">
</g>
<g id="Dashed_Frame_29">
</g>
<g id="Dashed_Frame_30">
</g>
<g id="Dashed_Frame_31">
</g>
<g id="Dashed_Frame_32">
</g>
<g id="Dashed_Frame_33">
</g>
<g id="Dashed_Frame_35">
</g>
</svg>
