<?xml version="1.0" encoding="iso-8859-1"?>
<!-- Generator: Adobe Illustrator 19.2.1, SVG Export Plug-In . SVG Version: 6.00 Build 0)  -->
<svg version="1.1" xmlns="http://www.w3.org/2000/svg" xmlns:xlink="http://www.w3.org/1999/xlink" x="0px" y="0px"
	 viewBox="0 0 30 30" style="enable-background:new 0 0 30 30;" xml:space="preserve">
<g id="Photo_frame">
</g>
<g id="Photo_frame_2">
</g>
<g id="Photo_frame_3">
</g>
<g id="Photo_frame__4">
</g>
<g id="Photo_frame_5">
</g>
<g id="Photo_frame_6">
</g>
<g id="Photo_frame_7">
</g>
<g id="Round_Frame_1">
</g>
<g id="Rectangle_Frame_1">
</g>
<g id="Square_Frame_1">
</g>
<g id="Rectangle_Frame_2">
</g>
<g id="Oval_Frame_1">
</g>
<g id="Round_Frame_2">
</g>
<g id="Rectangle_Frame_3">
</g>
<g id="Rectangle_Frame_4">
</g>
<g id="Rectangle_Frame_5">
</g>
<g id="Square_Frame_2">
</g>
<g id="Rectangle_Frame_6">
</g>
<g id="Rectangle_Frame_7">
</g>
<g id="Oval_Frame_2">
</g>
<g id="Round_Frame_3">
</g>
<g id="Rectangle_Frame_8">
</g>
<g id="Square_Frame_3">
</g>
<g id="Rectangle_Frame_9">
</g>
<g id="Rectangle_Frame_10">
</g>
<g id="Square_Frame_4">
</g>
<g id="Rectangle_Frame_11">
</g>
<g id="Rectangle_Frame_12">
</g>
<g id="Square_Frame_5">
</g>
<g id="Rectangle_Frame_13">
</g>
<g id="Round_Frame">
</g>
<g id="Frame_2">
</g>
<g id="Frame_1">
</g>
<g id="Frame_3">
</g>
<g id="Frame_4">
</g>
<g id="Frame_5">
</g>
<g id="Frame_6">
</g>
<g id="Frame_7">
</g>
<g id="Frame_8">
</g>
<g id="Frame_9">
</g>
<g id="Frame_10">
</g>
<g id="Frame_11">
</g>
<g id="Frame_12">
</g>
<g id="Frame_13">
</g>
<g id="Frame_14">
</g>
<g id="Frame_15">
</g>
<g id="Frame_16">
</g>
<g id="Frame_17">
</g>
<g id="Frame_18">
</g>
<g id="Frame_19">
</g>
<g id="Frame_20">
</g>
<g id="Frame_21">
</g>
<g id="Frame_22">
</g>
<g id="Frame_23">
</g>
<g id="Frame_24">
</g>
<g id="Frame_25">
</g>
<g id="Frame_26">
</g>
<g id="Frame_27">
</g>
<g id="Frame_28">
</g>
<g id="Frame_29">
</g>
<g id="Frame_30">
</g>
<g id="Frame_Hole_1">
</g>
<g id="Frame_Hole_2">
</g>
<g id="Frame_Hole_3">
</g>
<g id="Frame_Hole_4">
</g>
<g id="Frame_31">
</g>
<g id="Frame_32">
</g>
<g id="Frame_33">
</g>
<g id="Frame_34">
</g>
<g id="Frame_35">
</g>
<g id="Dashed_Frame_1">
</g>
<g id="Dashed_Frame_2">
</g>
<g id="Dashed_Frame_3">
</g>
<g id="Dashed_Frame_4">
</g>
<g id="Dashed_Frame_5">
</g>
<g id="Dashed_Frame_6">
</g>
<g id="Dashed_Frame_7">
</g>
<g id="Dashed_Frame_8">
</g>
<g id="Dashed_Frame_9">
</g>
<g id="Dashed_Frame_10">
</g>
<g id="Dashed_Frame_11">
	<path d="M27,10.546V9.33c0-0.276-0.224-0.5-0.5-0.5c-2.74,0-5.33-2.59-5.33-5.33c0-0.276-0.224-0.5-0.5-0.5h-1.216
		C19.142,1.306,17.263,0,15,0c-2.263,0-4.141,1.306-4.454,3H9.33c-0.276,0-0.5,0.224-0.5,0.5c0,2.74-2.59,5.33-5.33,5.33
		C3.224,8.83,3,9.054,3,9.33v1.216C1.306,10.859,0,12.737,0,15c0,2.263,1.306,4.142,3,4.454v1.216c0,0.276,0.224,0.5,0.5,0.5
		c2.74,0,5.33,2.59,5.33,5.33c0,0.276,0.224,0.5,0.5,0.5h1.216c0.313,1.694,2.191,3,4.454,3c2.263,0,4.142-1.306,4.454-3h1.216
		c0.276,0,0.5-0.224,0.5-0.5c0-2.74,2.59-5.33,5.33-5.33c0.276,0,0.5-0.224,0.5-0.5v-1.216c1.694-0.313,3-2.191,3-4.454
		C30,12.737,28.694,10.859,27,10.546z M6.421,12.79v1c0,0.276-0.224,0.5-0.5,0.5h-1c-0.023,0-0.043-0.01-0.065-0.013
		c-0.022,0.003-0.042,0.013-0.065,0.013H4.108c-0.044,0.13-0.083,0.297-0.099,0.493C4.002,14.864,3.971,14.935,3.931,15
		c0.041,0.065,0.071,0.136,0.078,0.218c0.017,0.195,0.055,0.363,0.099,0.493h0.683c0.023,0,0.043,0.01,0.065,0.013
		c0.022-0.003,0.042-0.013,0.065-0.013h1c0.276,0,0.5,0.224,0.5,0.5v1c0,0.03-0.012,0.056-0.017,0.084
		c0.005,0.028,0.017,0.054,0.017,0.084v0.636c0.217,0.074,0.43,0.157,0.639,0.247c0.253,0.109,0.37,0.404,0.26,0.657
		c-0.082,0.189-0.266,0.302-0.459,0.302c-0.066,0-0.133-0.013-0.198-0.041c-0.286-0.124-0.581-0.231-0.884-0.321
		c-0.212-0.063-0.357-0.258-0.357-0.479v-1c0-0.03,0.012-0.056,0.017-0.084c-0.005-0.028-0.017-0.054-0.017-0.084v-0.5h-0.5
		c-0.023,0-0.043-0.01-0.065-0.013c-0.022,0.003-0.042,0.013-0.065,0.013h-1c-0.17,0-0.329-0.087-0.421-0.23
		c-0.089-0.14-0.303-0.534-0.357-1.179C3.003,15.19,3.039,15.088,3.094,15c-0.055-0.088-0.091-0.19-0.081-0.302
		c0.055-0.647,0.269-1.04,0.358-1.179c0.092-0.143,0.25-0.229,0.42-0.229h1c0.023,0,0.043,0.01,0.065,0.013
		C4.878,13.3,4.898,13.29,4.921,13.29h0.5v-0.5c0-0.03,0.012-0.056,0.017-0.084c-0.005-0.028-0.017-0.054-0.017-0.084v-1
		c0-0.221,0.145-0.416,0.357-0.479c0.303-0.09,0.598-0.199,0.884-0.323c0.255-0.11,0.548,0.007,0.658,0.26
		c0.109,0.253-0.007,0.548-0.26,0.658c-0.209,0.09-0.422,0.173-0.639,0.248v0.636c0,0.03-0.012,0.056-0.017,0.084
		C6.409,12.734,6.421,12.76,6.421,12.79z M8.383,9.8c0.528-0.411,1.004-0.887,1.415-1.415c0.169-0.218,0.485-0.257,0.702-0.088
		c0.218,0.17,0.258,0.484,0.088,0.702c-0.461,0.594-0.997,1.129-1.591,1.591c-0.091,0.071-0.199,0.105-0.306,0.105
		c-0.149,0-0.297-0.066-0.395-0.193C8.125,10.283,8.165,9.969,8.383,9.8z M10.501,21.705c-0.091,0.071-0.199,0.105-0.306,0.105
		c-0.149,0-0.297-0.066-0.395-0.193c-0.411-0.527-0.887-1.004-1.415-1.415c-0.218-0.17-0.257-0.483-0.087-0.701
		c0.169-0.219,0.483-0.259,0.702-0.088c0.594,0.462,1.129,0.997,1.59,1.591C10.759,21.222,10.719,21.536,10.501,21.705z
		 M19.18,23.34c-0.125,0.285-0.231,0.58-0.321,0.882c-0.063,0.212-0.259,0.357-0.479,0.357h-1c-0.03,0-0.056-0.012-0.084-0.017
		c-0.028,0.005-0.054,0.017-0.084,0.017h-0.5v0.5c0,0.023-0.01,0.043-0.013,0.065c0.003,0.022,0.013,0.042,0.013,0.065v1
		c0,0.171-0.087,0.329-0.23,0.421c-0.14,0.089-0.533,0.303-1.178,0.357c-0.014,0.001-0.029,0.002-0.043,0.002
		c-0.096,0-0.182-0.034-0.259-0.082c-0.077,0.048-0.163,0.082-0.259,0.082c-0.014,0-0.029-0.001-0.043-0.002
		c-0.646-0.056-1.039-0.269-1.178-0.357c-0.143-0.092-0.23-0.251-0.23-0.421v-1c0-0.023,0.01-0.043,0.013-0.065
		c-0.003-0.022-0.013-0.042-0.013-0.065v-0.5h-0.5c-0.03,0-0.056-0.012-0.084-0.017c-0.028,0.005-0.054,0.017-0.084,0.017h-1
		c-0.221,0-0.416-0.145-0.479-0.356c-0.09-0.303-0.198-0.599-0.322-0.884c-0.11-0.254,0.006-0.548,0.259-0.658
		c0.254-0.106,0.548,0.006,0.658,0.26c0.091,0.209,0.173,0.422,0.249,0.639h0.636c0.03,0,0.056,0.012,0.084,0.017
		c0.028-0.005,0.054-0.017,0.084-0.017h1c0.276,0,0.5,0.224,0.5,0.5v1c0,0.023-0.01,0.043-0.013,0.065
		c0.003,0.022,0.013,0.042,0.013,0.065v0.683c0.13,0.044,0.298,0.083,0.493,0.1c0.081,0.007,0.153,0.037,0.217,0.077
		c0.065-0.04,0.136-0.07,0.217-0.077c0.195-0.017,0.363-0.056,0.494-0.1v-0.683c0-0.023,0.01-0.043,0.013-0.065
		c-0.003-0.022-0.013-0.042-0.013-0.065v-1c0-0.276,0.224-0.5,0.5-0.5h1c0.03,0,0.056,0.012,0.084,0.017
		c0.028-0.005,0.054-0.017,0.084-0.017h0.636c0.074-0.218,0.157-0.431,0.249-0.64c0.111-0.253,0.406-0.365,0.658-0.258
		C19.175,22.792,19.29,23.087,19.18,23.34z M18.922,7.318c-0.065,0.029-0.133,0.042-0.2,0.042c-0.192,0-0.376-0.112-0.458-0.3
		c-0.092-0.209-0.175-0.422-0.249-0.64h-0.636c-0.03,0-0.056-0.012-0.084-0.017c-0.028,0.005-0.054,0.017-0.084,0.017h-1
		c-0.276,0-0.5-0.224-0.5-0.5v-1c0-0.023,0.01-0.043,0.013-0.065c-0.003-0.022-0.013-0.042-0.013-0.065V4.108
		c-0.13-0.044-0.298-0.083-0.493-0.099C15.136,4.002,15.065,3.972,15,3.932c-0.065,0.04-0.136,0.07-0.218,0.077
		c-0.195,0.017-0.362,0.055-0.493,0.099v0.683c0,0.023-0.01,0.043-0.013,0.065c0.003,0.022,0.013,0.042,0.013,0.065v1
		c0,0.276-0.224,0.5-0.5,0.5h-1c-0.03,0-0.056-0.012-0.084-0.017c-0.028,0.005-0.054,0.017-0.084,0.017h-0.636
		c-0.075,0.217-0.158,0.43-0.248,0.638c-0.082,0.188-0.266,0.301-0.459,0.301c-0.066,0-0.134-0.013-0.198-0.041
		c-0.253-0.11-0.37-0.404-0.26-0.658c0.124-0.286,0.232-0.581,0.323-0.884c0.063-0.212,0.258-0.357,0.479-0.357h1
		c0.03,0,0.056,0.012,0.084,0.017c0.028-0.005,0.054-0.017,0.084-0.017h0.5v-0.5c0-0.023,0.01-0.043,0.013-0.065
		C13.3,4.834,13.29,4.814,13.29,4.791v-1c0-0.17,0.087-0.329,0.23-0.421c0.139-0.089,0.533-0.303,1.179-0.357
		c0.112-0.009,0.214,0.027,0.303,0.082c0.089-0.055,0.19-0.091,0.301-0.082c0.645,0.054,1.039,0.268,1.179,0.357
		c0.144,0.092,0.23,0.251,0.23,0.421v1c0,0.023-0.01,0.043-0.013,0.065c0.003,0.022,0.013,0.042,0.013,0.065v0.5h0.5
		c0.03,0,0.056,0.012,0.084,0.017c0.028-0.005,0.054-0.017,0.084-0.017h1c0.222,0,0.416,0.146,0.479,0.357
		c0.09,0.302,0.197,0.596,0.321,0.882C19.29,6.914,19.175,7.208,18.922,7.318z M19.499,8.295c0.216-0.17,0.53-0.132,0.701,0.088
		c0.412,0.53,0.889,1.006,1.416,1.415c0.218,0.169,0.258,0.483,0.089,0.701c-0.099,0.127-0.246,0.194-0.396,0.194
		c-0.107,0-0.215-0.034-0.307-0.105c-0.593-0.46-1.129-0.995-1.592-1.591C19.241,8.779,19.281,8.465,19.499,8.295z M21.617,20.201
		c-0.527,0.409-1.004,0.885-1.415,1.413c-0.099,0.127-0.246,0.193-0.395,0.193c-0.107,0-0.216-0.034-0.307-0.105
		c-0.218-0.169-0.258-0.483-0.088-0.701c0.462-0.595,0.998-1.13,1.591-1.591c0.219-0.168,0.531-0.13,0.702,0.089
		C21.875,19.718,21.835,20.031,21.617,20.201z M26.987,15.302c-0.055,0.646-0.269,1.039-0.357,1.178
		c-0.092,0.144-0.25,0.23-0.421,0.23h-1c-0.023,0-0.043-0.01-0.065-0.013c-0.022,0.003-0.042,0.013-0.065,0.013h-0.5v0.5
		c0,0.03-0.012,0.056-0.017,0.084c0.005,0.028,0.017,0.054,0.017,0.084v1c0,0.221-0.146,0.416-0.357,0.479
		c-0.302,0.09-0.598,0.197-0.883,0.321c-0.065,0.027-0.133,0.041-0.199,0.041c-0.193,0-0.377-0.112-0.459-0.301
		c-0.109-0.254,0.007-0.548,0.26-0.658c0.209-0.09,0.422-0.173,0.639-0.247v-0.636c0-0.03,0.012-0.056,0.017-0.084
		c-0.005-0.028-0.017-0.054-0.017-0.084v-1c0-0.276,0.224-0.5,0.5-0.5h1c0.023,0,0.043,0.01,0.065,0.013
		c0.022-0.003,0.042-0.013,0.065-0.013h0.683c0.044-0.13,0.083-0.298,0.1-0.494c0.007-0.081,0.038-0.152,0.078-0.217
		c-0.04-0.065-0.071-0.136-0.078-0.218c-0.017-0.195-0.056-0.363-0.099-0.493h-0.684c-0.023,0-0.043-0.01-0.065-0.013
		c-0.022,0.003-0.042,0.013-0.065,0.013h-1c-0.276,0-0.5-0.224-0.5-0.5v-1c0-0.03,0.012-0.056,0.017-0.084
		c-0.005-0.028-0.017-0.054-0.017-0.084v-0.636c-0.217-0.075-0.43-0.158-0.639-0.249c-0.253-0.11-0.369-0.404-0.26-0.658
		c0.11-0.254,0.4-0.372,0.658-0.259c0.285,0.124,0.581,0.232,0.884,0.322c0.212,0.063,0.356,0.258,0.356,0.479v1
		c0,0.03-0.012,0.056-0.017,0.084c0.005,0.028,0.017,0.054,0.017,0.084v0.5h0.5c0.023,0,0.043,0.01,0.065,0.013
		c0.022-0.003,0.042-0.013,0.065-0.013h1c0.17,0,0.328,0.086,0.421,0.229c0.089,0.139,0.302,0.531,0.357,1.179
		c0.01,0.112-0.026,0.214-0.081,0.302C26.961,15.089,26.997,15.19,26.987,15.302z"/>
</g>
<g id="Dashed_Frame_12">
</g>
<g id="Dashed_Frame_13">
</g>
<g id="Dashed_Frame_14">
</g>
<g id="Dashed_Frame_15">
</g>
<g id="Dashed_Frame_16">
</g>
<g id="Dashed_Frame_17">
</g>
<g id="Dashed_Frame_18">
</g>
<g id="Dashed_Frame_19">
</g>
<g id="Dashed_Frame_20">
</g>
<g id="Dashed_Frame_25">
</g>
<g id="Dashed_Frame_26">
</g>
<g id="Dashed_Frame_27">
</g>
<g id="Dashed_Frame_28">
</g>
<g id="Dashed_Frame_29">
</g>
<g id="Dashed_Frame_30">
</g>
<g id="Dashed_Frame_31">
</g>
<g id="Dashed_Frame_32">
</g>
<g id="Dashed_Frame_33">
</g>
<g id="Dashed_Frame_35">
</g>
</svg>
