<?xml version="1.0" encoding="iso-8859-1"?>
<!-- Generator: Adobe Illustrator 19.2.1, SVG Export Plug-In . SVG Version: 6.00 Build 0)  -->
<svg version="1.1" xmlns="http://www.w3.org/2000/svg" xmlns:xlink="http://www.w3.org/1999/xlink" x="0px" y="0px"
	 viewBox="0 0 30 30" style="enable-background:new 0 0 30 30;" xml:space="preserve">
<g id="Photo_frame">
</g>
<g id="Photo_frame_2">
</g>
<g id="Photo_frame_3">
</g>
<g id="Photo_frame__4">
</g>
<g id="Photo_frame_5">
</g>
<g id="Photo_frame_6">
</g>
<g id="Photo_frame_7">
</g>
<g id="Round_Frame_1">
</g>
<g id="Rectangle_Frame_1">
</g>
<g id="Square_Frame_1">
</g>
<g id="Rectangle_Frame_2">
</g>
<g id="Oval_Frame_1">
</g>
<g id="Round_Frame_2">
</g>
<g id="Rectangle_Frame_3">
</g>
<g id="Rectangle_Frame_4">
</g>
<g id="Rectangle_Frame_5">
</g>
<g id="Square_Frame_2">
</g>
<g id="Rectangle_Frame_6">
</g>
<g id="Rectangle_Frame_7">
</g>
<g id="Oval_Frame_2">
</g>
<g id="Round_Frame_3">
</g>
<g id="Rectangle_Frame_8">
</g>
<g id="Square_Frame_3">
</g>
<g id="Rectangle_Frame_9">
</g>
<g id="Rectangle_Frame_10">
</g>
<g id="Square_Frame_4">
</g>
<g id="Rectangle_Frame_11">
</g>
<g id="Rectangle_Frame_12">
</g>
<g id="Square_Frame_5">
</g>
<g id="Rectangle_Frame_13">
</g>
<g id="Round_Frame">
</g>
<g id="Frame_2">
</g>
<g id="Frame_1">
</g>
<g id="Frame_3">
</g>
<g id="Frame_4">
</g>
<g id="Frame_5">
</g>
<g id="Frame_6">
</g>
<g id="Frame_7">
</g>
<g id="Frame_8">
</g>
<g id="Frame_9">
</g>
<g id="Frame_10">
</g>
<g id="Frame_11">
</g>
<g id="Frame_12">
</g>
<g id="Frame_13">
</g>
<g id="Frame_14">
</g>
<g id="Frame_15">
</g>
<g id="Frame_16">
</g>
<g id="Frame_17">
</g>
<g id="Frame_18">
</g>
<g id="Frame_19">
</g>
<g id="Frame_20">
</g>
<g id="Frame_21">
</g>
<g id="Frame_22">
</g>
<g id="Frame_23">
</g>
<g id="Frame_24">
</g>
<g id="Frame_25">
</g>
<g id="Frame_26">
</g>
<g id="Frame_27">
</g>
<g id="Frame_28">
</g>
<g id="Frame_29">
</g>
<g id="Frame_30">
</g>
<g id="Frame_Hole_1">
</g>
<g id="Frame_Hole_2">
</g>
<g id="Frame_Hole_3">
</g>
<g id="Frame_Hole_4">
</g>
<g id="Frame_31">
</g>
<g id="Frame_32">
</g>
<g id="Frame_33">
</g>
<g id="Frame_34">
</g>
<g id="Frame_35">
</g>
<g id="Dashed_Frame_1">
</g>
<g id="Dashed_Frame_2">
</g>
<g id="Dashed_Frame_3">
</g>
<g id="Dashed_Frame_4">
</g>
<g id="Dashed_Frame_5">
</g>
<g id="Dashed_Frame_6">
</g>
<g id="Dashed_Frame_7">
</g>
<g id="Dashed_Frame_8">
</g>
<g id="Dashed_Frame_9">
</g>
<g id="Dashed_Frame_10">
</g>
<g id="Dashed_Frame_11">
</g>
<g id="Dashed_Frame_12">
</g>
<g id="Dashed_Frame_13">
</g>
<g id="Dashed_Frame_14">
</g>
<g id="Dashed_Frame_15">
</g>
<g id="Dashed_Frame_16">
</g>
<g id="Dashed_Frame_17">
</g>
<g id="Dashed_Frame_18">
</g>
<g id="Dashed_Frame_19">
	<path d="M29.442,10.966c0.341-2.061-0.844-4.054-2.816-4.74l-3.563-1.24c-0.796-0.277-1.554-0.659-2.253-1.136l-2.687-1.834
		c-1.898-1.296-4.351-1.296-6.249,0L9.189,3.85C8.49,4.327,7.732,4.708,6.935,4.986L3.374,6.225
		c-1.973,0.687-3.157,2.681-2.815,4.742l0.508,3.069c0.104,0.628,0.104,1.265,0,1.891l-0.339,2.063
		c-0.44,2.666,1.093,5.245,3.646,6.134l2.563,0.892c0.797,0.276,1.555,0.659,2.253,1.136l2.686,1.834
		c0.949,0.648,2.037,0.973,3.125,0.973c1.087,0,2.175-0.324,3.125-0.973l2.687-1.834c0.699-0.478,1.457-0.859,2.253-1.136
		l2.561-0.891c2.553-0.89,4.086-3.47,3.646-6.138l-0.338-2.041c-0.104-0.627-0.104-1.264,0-1.892L29.442,10.966z M22.911,8.533
		c0.092-0.261,0.38-0.398,0.637-0.308l1.805,0.628c0.012,0.004,0.105,0.04,0.116,0.045c0.254,0.109,0.371,0.403,0.263,0.656
		c-0.082,0.19-0.267,0.303-0.46,0.303c-0.066,0-0.133-0.013-0.197-0.041L23.22,9.17C22.959,9.079,22.821,8.794,22.911,8.533z
		 M25.38,14.515L25.38,14.515c0.276,0,0.5,0.223,0.501,0.499c0.001,0.427,0.037,0.859,0.107,1.283l0.103,0.622
		c0.045,0.272-0.14,0.529-0.412,0.574c-0.027,0.005-0.055,0.007-0.082,0.007c-0.24,0-0.452-0.174-0.492-0.419l-0.103-0.621
		c-0.079-0.477-0.12-0.963-0.121-1.444C24.88,14.74,25.104,14.515,25.38,14.515z M19.257,6.932c0.139-0.241,0.445-0.32,0.684-0.182
		c0.551,0.319,1.133,0.595,1.729,0.82c0.259,0.097,0.39,0.385,0.292,0.644c-0.075,0.2-0.266,0.324-0.468,0.324
		c-0.059,0-0.118-0.01-0.176-0.032c-0.648-0.244-1.281-0.543-1.88-0.89C19.2,7.477,19.118,7.17,19.257,6.932z M15.958,4.671
		c0.156-0.229,0.469-0.286,0.695-0.13l1.651,1.128c0.228,0.156,0.286,0.467,0.131,0.695c-0.097,0.142-0.254,0.218-0.413,0.218
		c-0.098,0-0.195-0.028-0.282-0.087l-1.651-1.128C15.86,5.21,15.801,4.899,15.958,4.671z M3.5,10.464c0-0.15,0.02-0.298,0.058-0.442
		C3.63,9.755,3.902,9.596,4.171,9.669c0.267,0.072,0.424,0.347,0.353,0.613C4.508,10.341,4.5,10.402,4.5,10.464
		c0,0.039,0.003,0.077,0.01,0.116l0.242,1.466c0.045,0.272-0.139,0.53-0.412,0.575c-0.027,0.005-0.055,0.007-0.082,0.007
		c-0.24,0-0.452-0.174-0.493-0.418l-0.242-1.464C3.508,10.651,3.5,10.557,3.5,10.464z M4.771,20.425
		C4.688,20.476,4.598,20.5,4.508,20.5c-0.167,0-0.331-0.084-0.425-0.236c-0.286-0.462-0.437-0.992-0.437-1.534
		c0-0.157,0.013-0.317,0.04-0.477l0.043-0.261c0.044-0.272,0.301-0.462,0.574-0.412c0.272,0.045,0.457,0.302,0.412,0.574
		l-0.043,0.262c-0.018,0.105-0.026,0.211-0.026,0.314c0,0.355,0.099,0.703,0.286,1.006C5.078,19.972,5.005,20.279,4.771,20.425z
		 M5.039,16.166C5.005,16.417,4.791,16.6,4.543,16.6c-0.022,0-0.044-0.001-0.066-0.004c-0.274-0.037-0.466-0.288-0.43-0.563
		c0.046-0.348,0.07-0.701,0.07-1.049c0-0.276-0.014-0.553-0.043-0.828s0.169-0.521,0.444-0.55c0.279-0.026,0.521,0.169,0.55,0.444
		c0.033,0.311,0.049,0.623,0.049,0.934C5.117,15.376,5.091,15.774,5.039,16.166z M5.117,9.219C5.026,8.958,5.164,8.673,5.425,8.582
		l1.889-0.658C7.576,7.833,7.859,7.971,7.95,8.232S7.903,8.778,7.643,8.869L5.754,9.526c-0.055,0.019-0.11,0.028-0.165,0.028
		C5.382,9.554,5.189,9.425,5.117,9.219z M8.463,21.945c-0.072,0.206-0.265,0.336-0.472,0.336c-0.054,0-0.11-0.009-0.164-0.027
		l-1.889-0.656c-0.261-0.091-0.399-0.376-0.308-0.637c0.09-0.26,0.375-0.398,0.636-0.309l1.889,0.656
		C8.416,21.399,8.554,21.685,8.463,21.945z M8.892,7.894c-0.116-0.25-0.007-0.548,0.243-0.665c0.57-0.265,1.125-0.58,1.647-0.936
		c0.228-0.156,0.546-0.104,0.703,0.124c0.156,0.227,0.108,0.531-0.118,0.688c-0.589,0.401-1.191,0.744-1.81,1.032
		c-0.068,0.032-0.14,0.046-0.21,0.046C9.157,8.183,8.977,8.076,8.892,7.894z M11.942,23.896c-0.097,0.142-0.253,0.218-0.413,0.218
		c-0.097,0-0.195-0.028-0.282-0.087l-0.466-0.318c-0.377-0.258-0.774-0.496-1.18-0.707c-0.245-0.127-0.34-0.429-0.213-0.674
		c0.127-0.246,0.428-0.343,0.674-0.213c0.441,0.229,0.873,0.487,1.283,0.768l0.466,0.318C12.04,23.356,12.098,23.667,11.942,23.896z
		 M12.45,5.153l0.906-0.619c0.304-0.207,0.638-0.353,0.994-0.434c0.268-0.064,0.537,0.106,0.599,0.376
		c0.062,0.269-0.107,0.537-0.376,0.599c-0.234,0.054-0.453,0.149-0.652,0.285l-0.905,0.619c-0.086,0.059-0.185,0.087-0.282,0.087
		c-0.16,0-0.316-0.076-0.414-0.218C12.164,5.62,12.222,5.309,12.45,5.153z M16.267,25.683c-0.397,0.192-0.823,0.29-1.267,0.29
		c-0.588,0-1.157-0.175-1.644-0.507l-0.457-0.312c-0.228-0.155-0.287-0.467-0.131-0.695c0.155-0.228,0.468-0.285,0.695-0.131
		l0.457,0.312c0.562,0.383,1.307,0.438,1.912,0.143c0.247-0.119,0.547-0.018,0.668,0.232C16.619,25.263,16.516,25.562,16.267,25.683
		z M19.638,23.434c-0.143,0.09-0.283,0.182-0.422,0.276l-1.22,0.831c-0.086,0.059-0.184,0.087-0.281,0.087
		c-0.159,0-0.316-0.076-0.413-0.219c-0.155-0.228-0.097-0.539,0.132-0.694l1.219-0.831c0.149-0.103,0.302-0.202,0.456-0.298
		c0.232-0.145,0.542-0.076,0.688,0.159C19.943,22.979,19.872,23.287,19.638,23.434z M23.198,21.896l-1.258,0.438
		c-0.202,0.071-0.402,0.146-0.601,0.228c-0.062,0.025-0.125,0.037-0.188,0.037c-0.197,0-0.384-0.117-0.463-0.312
		c-0.104-0.256,0.019-0.547,0.274-0.651c0.214-0.087,0.43-0.17,0.647-0.245l1.258-0.438c0.262-0.093,0.546,0.046,0.637,0.307
		C23.597,21.521,23.459,21.806,23.198,21.896z M25.172,21.069c-0.089,0.065-0.193,0.098-0.297,0.098
		c-0.152,0-0.304-0.07-0.402-0.203c-0.164-0.222-0.117-0.535,0.105-0.699c0.43-0.317,0.708-0.805,0.763-1.336
		c0.028-0.275,0.291-0.48,0.548-0.446c0.275,0.028,0.475,0.273,0.446,0.548C26.252,19.842,25.828,20.584,25.172,21.069z
		 M26.086,13.11c-0.04,0.245-0.252,0.418-0.492,0.418c-0.027,0-0.055-0.002-0.083-0.007c-0.271-0.045-0.456-0.302-0.411-0.575
		l0.326-1.973c0.044-0.272,0.297-0.46,0.575-0.412c0.271,0.045,0.456,0.302,0.411,0.575L26.086,13.11z"/>
</g>
<g id="Dashed_Frame_20">
</g>
<g id="Dashed_Frame_25">
</g>
<g id="Dashed_Frame_26">
</g>
<g id="Dashed_Frame_27">
</g>
<g id="Dashed_Frame_28">
</g>
<g id="Dashed_Frame_29">
</g>
<g id="Dashed_Frame_30">
</g>
<g id="Dashed_Frame_31">
</g>
<g id="Dashed_Frame_32">
</g>
<g id="Dashed_Frame_33">
</g>
<g id="Dashed_Frame_35">
</g>
</svg>
