<?xml version="1.0" encoding="iso-8859-1"?>
<!-- Generator: Adobe Illustrator 19.2.1, SVG Export Plug-In . SVG Version: 6.00 Build 0)  -->
<svg version="1.1" xmlns="http://www.w3.org/2000/svg" xmlns:xlink="http://www.w3.org/1999/xlink" x="0px" y="0px"
	 viewBox="0 0 30 30" style="enable-background:new 0 0 30 30;" xml:space="preserve">
<g id="Photo_frame">
</g>
<g id="Photo_frame_2">
</g>
<g id="Photo_frame_3">
</g>
<g id="Photo_frame__4">
</g>
<g id="Photo_frame_5">
</g>
<g id="Photo_frame_6">
</g>
<g id="Photo_frame_7">
</g>
<g id="Round_Frame_1">
</g>
<g id="Rectangle_Frame_1">
</g>
<g id="Square_Frame_1">
</g>
<g id="Rectangle_Frame_2">
</g>
<g id="Oval_Frame_1">
</g>
<g id="Round_Frame_2">
</g>
<g id="Rectangle_Frame_3">
</g>
<g id="Rectangle_Frame_4">
</g>
<g id="Rectangle_Frame_5">
</g>
<g id="Square_Frame_2">
</g>
<g id="Rectangle_Frame_6">
</g>
<g id="Rectangle_Frame_7">
</g>
<g id="Oval_Frame_2">
</g>
<g id="Round_Frame_3">
</g>
<g id="Rectangle_Frame_8">
</g>
<g id="Square_Frame_3">
</g>
<g id="Rectangle_Frame_9">
</g>
<g id="Rectangle_Frame_10">
</g>
<g id="Square_Frame_4">
</g>
<g id="Rectangle_Frame_11">
</g>
<g id="Rectangle_Frame_12">
</g>
<g id="Square_Frame_5">
</g>
<g id="Rectangle_Frame_13">
</g>
<g id="Round_Frame">
</g>
<g id="Frame_2">
</g>
<g id="Frame_1">
</g>
<g id="Frame_3">
</g>
<g id="Frame_4">
</g>
<g id="Frame_5">
</g>
<g id="Frame_6">
</g>
<g id="Frame_7">
</g>
<g id="Frame_8">
</g>
<g id="Frame_9">
</g>
<g id="Frame_10">
</g>
<g id="Frame_11">
</g>
<g id="Frame_12">
</g>
<g id="Frame_13">
</g>
<g id="Frame_14">
</g>
<g id="Frame_15">
</g>
<g id="Frame_16">
</g>
<g id="Frame_17">
</g>
<g id="Frame_18">
</g>
<g id="Frame_19">
</g>
<g id="Frame_20">
</g>
<g id="Frame_21">
</g>
<g id="Frame_22">
</g>
<g id="Frame_23">
</g>
<g id="Frame_24">
</g>
<g id="Frame_25">
</g>
<g id="Frame_26">
</g>
<g id="Frame_27">
</g>
<g id="Frame_28">
</g>
<g id="Frame_29">
</g>
<g id="Frame_30">
</g>
<g id="Frame_Hole_1">
</g>
<g id="Frame_Hole_2">
</g>
<g id="Frame_Hole_3">
</g>
<g id="Frame_Hole_4">
</g>
<g id="Frame_31">
</g>
<g id="Frame_32">
</g>
<g id="Frame_33">
</g>
<g id="Frame_34">
</g>
<g id="Frame_35">
</g>
<g id="Dashed_Frame_1">
</g>
<g id="Dashed_Frame_2">
</g>
<g id="Dashed_Frame_3">
</g>
<g id="Dashed_Frame_4">
</g>
<g id="Dashed_Frame_5">
</g>
<g id="Dashed_Frame_6">
</g>
<g id="Dashed_Frame_7">
</g>
<g id="Dashed_Frame_8">
</g>
<g id="Dashed_Frame_9">
</g>
<g id="Dashed_Frame_10">
</g>
<g id="Dashed_Frame_11">
</g>
<g id="Dashed_Frame_12">
</g>
<g id="Dashed_Frame_13">
</g>
<g id="Dashed_Frame_14">
</g>
<g id="Dashed_Frame_15">
	<path d="M27.423,23.365c-1.449-0.381-3.014-3.688-3.014-8.365c0-4.677,1.564-7.984,3.014-8.365
		c0.163-0.042,0.293-0.164,0.347-0.323s0.024-0.335-0.079-0.467c-0.707-0.909-2.124-2.618-2.124-2.618
		c-0.119-0.145-0.31-0.209-0.493-0.169c-3.432,0.764-7.078-0.148-9.748-2.437c-0.187-0.16-0.464-0.161-0.65,0
		c-2.67,2.289-6.314,3.2-9.748,2.437C4.743,3.016,4.553,3.082,4.434,3.227c0,0-1.417,1.709-2.124,2.618
		C2.207,5.977,2.177,6.152,2.231,6.312s0.184,0.281,0.347,0.323C4.027,7.016,5.591,10.323,5.591,15c0,4.678-1.564,7.984-3.013,8.365
		c-0.163,0.043-0.293,0.164-0.347,0.323s-0.024,0.335,0.079,0.467c0.707,0.909,2.124,2.618,2.124,2.618
		c0.12,0.145,0.311,0.208,0.493,0.169c3.434-0.763,7.078,0.148,9.748,2.438c0.093,0.08,0.209,0.12,0.325,0.12s0.232-0.04,0.325-0.12
		c2.671-2.288,6.315-3.201,9.748-2.438c0.184,0.038,0.374-0.024,0.493-0.169c0,0,1.417-1.709,2.124-2.617
		c0.104-0.133,0.133-0.309,0.079-0.468S27.586,23.408,27.423,23.365z M21.403,9.421C21.479,9.156,21.752,9,22.021,9.078
		c0.266,0.076,0.419,0.353,0.343,0.618c-0.188,0.659-0.342,1.361-0.455,2.087c-0.039,0.247-0.251,0.423-0.493,0.423
		c-0.026,0-0.052-0.002-0.078-0.006c-0.272-0.043-0.46-0.298-0.417-0.571C21.041,10.862,21.203,10.119,21.403,9.421z M8.602,9.434
		c0.199,0.696,0.36,1.439,0.48,2.209c0.042,0.272-0.145,0.528-0.417,0.571c-0.026,0.004-0.052,0.006-0.077,0.006
		c-0.242,0-0.455-0.176-0.494-0.423C7.98,11.067,7.827,10.364,7.64,9.708C7.564,9.442,7.718,9.166,7.983,9.09
		C8.248,9.018,8.525,9.167,8.602,9.434z M6.441,6.369c0.095-0.16,0.266-0.257,0.457-0.244C7.133,6.138,7.37,6.144,7.606,6.144
		l0.259-0.002c0.308-0.002,0.503,0.216,0.508,0.492c0.004,0.276-0.216,0.504-0.492,0.508L7.728,7.143
		c0.024,0.047,0.047,0.095,0.07,0.144c0.12,0.249,0.015,0.547-0.234,0.667C7.494,7.987,7.42,8.002,7.348,8.002
		c-0.187,0-0.365-0.104-0.451-0.284c-0.14-0.291-0.291-0.569-0.452-0.833C6.347,6.728,6.346,6.528,6.441,6.369z M7.862,23.859
		l-0.256-0.003c-0.236,0-0.472,0.006-0.708,0.019c-0.009,0.001-0.019,0.001-0.028,0.001c-0.175,0-0.339-0.092-0.429-0.244
		c-0.096-0.159-0.094-0.359,0.003-0.518c0.162-0.263,0.312-0.542,0.452-0.833c0.119-0.248,0.418-0.354,0.667-0.233
		c0.249,0.119,0.354,0.418,0.234,0.667c-0.023,0.048-0.046,0.096-0.07,0.143l0.156,0.002c0.276,0.006,0.495,0.235,0.489,0.511
		C8.367,23.646,8.163,23.844,7.862,23.859z M8.597,20.579c-0.063,0.22-0.263,0.362-0.48,0.362c-0.045,0-0.092-0.006-0.138-0.02
		c-0.266-0.076-0.419-0.353-0.343-0.618c0.188-0.655,0.341-1.357,0.455-2.088c0.042-0.272,0.294-0.455,0.572-0.417
		c0.272,0.043,0.459,0.299,0.417,0.571C8.958,19.142,8.796,19.885,8.597,20.579z M9.309,16.132
		c-0.014,0.267-0.234,0.475-0.499,0.475c-0.008,0-0.017,0-0.025-0.001c-0.276-0.014-0.488-0.248-0.475-0.524
		C8.328,15.719,8.337,15.358,8.338,15c0-0.354-0.009-0.71-0.027-1.067c-0.014-0.276,0.199-0.511,0.475-0.524
		c0.287-0.016,0.51,0.199,0.524,0.475C9.329,14.256,9.338,14.629,9.338,15C9.337,15.375,9.328,15.753,9.309,16.132z M12.615,24.286
		c-0.072,0.206-0.266,0.336-0.473,0.336c-0.054,0-0.109-0.009-0.164-0.027c-0.662-0.229-1.345-0.408-2.028-0.53
		c-0.272-0.049-0.453-0.309-0.404-0.58c0.049-0.272,0.305-0.453,0.58-0.404c0.735,0.132,1.469,0.323,2.18,0.569
		C12.567,23.74,12.705,24.025,12.615,24.286z M12.308,6.35c-0.708,0.246-1.442,0.438-2.18,0.57c-0.03,0.005-0.059,0.008-0.088,0.008
		c-0.238,0-0.448-0.17-0.492-0.412C9.499,6.243,9.68,5.983,9.952,5.935c0.687-0.123,1.369-0.301,2.028-0.53
		c0.262-0.093,0.545,0.047,0.636,0.308S12.568,6.259,12.308,6.35z M16.101,25.437c-0.283,0.151-0.561,0.313-0.833,0.486
		C15.186,25.975,15.093,26,15,26s-0.186-0.025-0.268-0.077c-0.272-0.173-0.55-0.335-0.833-0.486
		c-0.243-0.13-0.335-0.434-0.205-0.677c0.131-0.243,0.434-0.337,0.677-0.204c0.212,0.113,0.421,0.232,0.628,0.356
		c0.207-0.124,0.416-0.243,0.628-0.356c0.244-0.133,0.547-0.039,0.677,0.204C16.436,25.003,16.344,25.307,16.101,25.437z
		 M16.305,5.24c-0.09,0.168-0.263,0.264-0.441,0.264c-0.08,0-0.161-0.019-0.236-0.059C15.416,5.331,15.207,5.212,15,5.087
		c-0.207,0.125-0.416,0.244-0.628,0.357c-0.244,0.13-0.546,0.038-0.677-0.205c-0.13-0.244-0.039-0.547,0.205-0.677
		c0.283-0.151,0.561-0.313,0.833-0.485c0.163-0.104,0.372-0.104,0.535,0c0.272,0.172,0.55,0.334,0.833,0.485
		C16.344,4.693,16.436,4.997,16.305,5.24z M20.048,24.064c-0.685,0.122-1.367,0.301-2.027,0.531
		c-0.054,0.019-0.109,0.027-0.164,0.027c-0.207,0-0.4-0.129-0.473-0.336c-0.091-0.261,0.048-0.546,0.309-0.637
		c0.71-0.247,1.443-0.438,2.18-0.57c0.264-0.047,0.532,0.133,0.58,0.404C20.501,23.756,20.319,24.016,20.048,24.064z M19.963,6.928
		c-0.029,0-0.06-0.002-0.089-0.008c-0.737-0.132-1.471-0.323-2.18-0.57c-0.261-0.09-0.398-0.375-0.309-0.636
		c0.092-0.261,0.374-0.399,0.637-0.308c0.659,0.229,1.342,0.407,2.027,0.53c0.271,0.048,0.453,0.308,0.404,0.58
		C20.411,6.758,20.2,6.928,19.963,6.928z M20.69,16.118c-0.02-0.374-0.028-0.748-0.028-1.118c0-0.375,0.01-0.753,0.029-1.131
		c0.013-0.275,0.212-0.492,0.524-0.475c0.275,0.014,0.488,0.249,0.474,0.524c-0.018,0.362-0.027,0.723-0.027,1.082
		c0,0.354,0.009,0.71,0.026,1.067c0.015,0.275-0.198,0.511-0.474,0.524c-0.009,0.001-0.018,0.001-0.025,0.001
		C20.925,16.593,20.704,16.386,20.69,16.118z M21.398,20.565c-0.199-0.698-0.36-1.441-0.48-2.209
		c-0.043-0.272,0.145-0.528,0.417-0.571c0.272-0.037,0.528,0.144,0.571,0.417c0.113,0.728,0.267,1.431,0.453,2.09
		c0.076,0.266-0.078,0.542-0.344,0.617c-0.046,0.014-0.092,0.02-0.137,0.02C21.661,20.929,21.461,20.785,21.398,20.565z
		 M23.56,23.632c-0.091,0.152-0.254,0.244-0.43,0.244c-0.009,0-0.019,0-0.028-0.001c-0.235-0.013-0.472-0.019-0.707-0.019
		l-0.257,0.003c-0.274,0-0.505-0.213-0.511-0.489c-0.006-0.275,0.213-0.505,0.489-0.511l0.155-0.002
		c-0.023-0.047-0.047-0.095-0.069-0.143c-0.12-0.249-0.016-0.548,0.233-0.667c0.249-0.121,0.547-0.016,0.667,0.233
		c0.141,0.291,0.291,0.569,0.453,0.832C23.653,23.272,23.654,23.472,23.56,23.632z M23.556,6.887
		c-0.162,0.263-0.313,0.541-0.452,0.832c-0.087,0.179-0.266,0.284-0.451,0.284c-0.073,0-0.146-0.016-0.217-0.049
		c-0.249-0.12-0.354-0.418-0.234-0.667c0.023-0.048,0.047-0.096,0.07-0.144l-0.152-0.001c-0.276-0.004-0.497-0.232-0.492-0.508
		c0.005-0.273,0.228-0.492,0.5-0.492c0.003,0,0.006,0,0.008,0l0.26,0.002c0.236,0,0.473-0.006,0.708-0.019
		c0.208-0.01,0.363,0.084,0.457,0.244C23.654,6.529,23.653,6.729,23.556,6.887z"/>
</g>
<g id="Dashed_Frame_16">
</g>
<g id="Dashed_Frame_17">
</g>
<g id="Dashed_Frame_18">
</g>
<g id="Dashed_Frame_19">
</g>
<g id="Dashed_Frame_20">
</g>
<g id="Dashed_Frame_25">
</g>
<g id="Dashed_Frame_26">
</g>
<g id="Dashed_Frame_27">
</g>
<g id="Dashed_Frame_28">
</g>
<g id="Dashed_Frame_29">
</g>
<g id="Dashed_Frame_30">
</g>
<g id="Dashed_Frame_31">
</g>
<g id="Dashed_Frame_32">
</g>
<g id="Dashed_Frame_33">
</g>
<g id="Dashed_Frame_35">
</g>
</svg>
