<?xml version="1.0" encoding="iso-8859-1"?>
<!-- Generator: Adobe Illustrator 19.2.1, SVG Export Plug-In . SVG Version: 6.00 Build 0)  -->
<svg version="1.1" xmlns="http://www.w3.org/2000/svg" xmlns:xlink="http://www.w3.org/1999/xlink" x="0px" y="0px"
	 viewBox="0 0 30 30" style="enable-background:new 0 0 30 30;" xml:space="preserve">
<g id="Photo_frame">
</g>
<g id="Photo_frame_2">
</g>
<g id="Photo_frame_3">
</g>
<g id="Photo_frame__4">
</g>
<g id="Photo_frame_5">
</g>
<g id="Photo_frame_6">
</g>
<g id="Photo_frame_7">
</g>
<g id="Round_Frame_1">
</g>
<g id="Rectangle_Frame_1">
</g>
<g id="Square_Frame_1">
</g>
<g id="Rectangle_Frame_2">
</g>
<g id="Oval_Frame_1">
</g>
<g id="Round_Frame_2">
</g>
<g id="Rectangle_Frame_3">
</g>
<g id="Rectangle_Frame_4">
</g>
<g id="Rectangle_Frame_5">
</g>
<g id="Square_Frame_2">
</g>
<g id="Rectangle_Frame_6">
</g>
<g id="Rectangle_Frame_7">
</g>
<g id="Oval_Frame_2">
</g>
<g id="Round_Frame_3">
</g>
<g id="Rectangle_Frame_8">
</g>
<g id="Square_Frame_3">
</g>
<g id="Rectangle_Frame_9">
</g>
<g id="Rectangle_Frame_10">
</g>
<g id="Square_Frame_4">
</g>
<g id="Rectangle_Frame_11">
</g>
<g id="Rectangle_Frame_12">
</g>
<g id="Square_Frame_5">
</g>
<g id="Rectangle_Frame_13">
</g>
<g id="Round_Frame">
</g>
<g id="Frame_2">
</g>
<g id="Frame_1">
</g>
<g id="Frame_3">
</g>
<g id="Frame_4">
</g>
<g id="Frame_5">
</g>
<g id="Frame_6">
</g>
<g id="Frame_7">
</g>
<g id="Frame_8">
</g>
<g id="Frame_9">
</g>
<g id="Frame_10">
</g>
<g id="Frame_11">
</g>
<g id="Frame_12">
</g>
<g id="Frame_13">
</g>
<g id="Frame_14">
</g>
<g id="Frame_15">
</g>
<g id="Frame_16">
</g>
<g id="Frame_17">
</g>
<g id="Frame_18">
</g>
<g id="Frame_19">
</g>
<g id="Frame_20">
</g>
<g id="Frame_21">
</g>
<g id="Frame_22">
</g>
<g id="Frame_23">
</g>
<g id="Frame_24">
</g>
<g id="Frame_25">
</g>
<g id="Frame_26">
</g>
<g id="Frame_27">
</g>
<g id="Frame_28">
</g>
<g id="Frame_29">
</g>
<g id="Frame_30">
</g>
<g id="Frame_Hole_1">
</g>
<g id="Frame_Hole_2">
</g>
<g id="Frame_Hole_3">
</g>
<g id="Frame_Hole_4">
</g>
<g id="Frame_31">
</g>
<g id="Frame_32">
</g>
<g id="Frame_33">
</g>
<g id="Frame_34">
</g>
<g id="Frame_35">
</g>
<g id="Dashed_Frame_1">
</g>
<g id="Dashed_Frame_2">
</g>
<g id="Dashed_Frame_3">
</g>
<g id="Dashed_Frame_4">
</g>
<g id="Dashed_Frame_5">
</g>
<g id="Dashed_Frame_6">
</g>
<g id="Dashed_Frame_7">
</g>
<g id="Dashed_Frame_8">
</g>
<g id="Dashed_Frame_9">
</g>
<g id="Dashed_Frame_10">
</g>
<g id="Dashed_Frame_11">
</g>
<g id="Dashed_Frame_12">
</g>
<g id="Dashed_Frame_13">
</g>
<g id="Dashed_Frame_14">
</g>
<g id="Dashed_Frame_15">
</g>
<g id="Dashed_Frame_16">
</g>
<g id="Dashed_Frame_17">
</g>
<g id="Dashed_Frame_18">
</g>
<g id="Dashed_Frame_19">
</g>
<g id="Dashed_Frame_20">
</g>
<g id="Dashed_Frame_25">
</g>
<g id="Dashed_Frame_26">
</g>
<g id="Dashed_Frame_27">
</g>
<g id="Dashed_Frame_28">
</g>
<g id="Dashed_Frame_29">
</g>
<g id="Dashed_Frame_30">
</g>
<g id="Dashed_Frame_31">
</g>
<g id="Dashed_Frame_32">
</g>
<g id="Dashed_Frame_33">
</g>
<g id="Dashed_Frame_35">
	<g>
		<g>
			<path d="M15,30c-0.133,0-0.26-0.053-0.354-0.146c-0.705-0.718-1.652-1.114-2.623-1.114h-0.176c-4.293,0-7.813-3.371-8.053-7.604
				c-1.435-0.233-2.534-1.482-2.534-2.982v-0.807c0-0.98-0.404-1.935-1.108-2.617C0.055,14.634,0,14.503,0,14.367
				s0.057-0.266,0.154-0.359c0.71-0.697,1.106-1.645,1.106-2.614v-0.807c0-1.564,1.195-2.855,2.721-3.007
				c0.809-3.686,4.055-6.319,7.866-6.319h0.176c0.981,0,1.936-0.404,2.617-1.108C14.734,0.056,14.862,0.001,14.996,0
				C14.997,0,14.999,0,15,0c0.133,0,0.26,0.053,0.354,0.146c0.705,0.718,1.652,1.114,2.623,1.114h0.176
				c3.812,0,7.058,2.634,7.866,6.319c1.525,0.151,2.721,1.442,2.721,3.007v0.807c0,0.98,0.404,1.935,1.108,2.616
				c0.097,0.094,0.151,0.222,0.152,0.355s-0.052,0.263-0.146,0.357c-0.718,0.706-1.114,1.653-1.114,2.623v0.807
				c0,1.5-1.1,2.749-2.534,2.982c-0.24,4.233-3.76,7.604-8.053,7.604h-0.176c-0.981,0-1.936,0.404-2.617,1.108
				c-0.094,0.097-0.222,0.151-0.355,0.152C15.003,30,15.001,30,15,30z M1.181,14.369c0.691,0.831,1.08,1.891,1.08,2.977v0.807
				c0,1.114,0.907,2.021,2.021,2.021c0.276,0,0.5,0.224,0.5,0.5c0,3.896,3.17,7.065,7.065,7.065h0.176
				c1.085,0,2.146,0.389,2.977,1.08c0.83-0.691,1.89-1.08,2.977-1.08h0.176c3.896,0,7.065-3.17,7.065-7.065
				c0-0.276,0.224-0.5,0.5-0.5c1.114,0,2.021-0.907,2.021-2.021v-0.807c0-1.084,0.39-2.146,1.08-2.977
				c-0.691-0.829-1.08-1.89-1.08-2.976v-0.807c0-1.114-0.907-2.021-2.021-2.021h-0.114c-0.244,0-0.453-0.177-0.493-0.417
				c-0.572-3.412-3.499-5.888-6.958-5.888h-0.176c-1.085,0-2.146-0.389-2.977-1.08c-0.83,0.691-1.89,1.08-2.977,1.08h-0.176
				c-3.459,0-6.386,2.476-6.958,5.888c-0.04,0.24-0.249,0.417-0.493,0.417H4.282c-1.114,0-2.021,0.907-2.021,2.021v0.807
				C2.261,12.478,1.872,13.539,1.181,14.369z"/>
		</g>
		<g>
			<g>
				<path d="M15.002,26.922c-0.076,0-0.152-0.018-0.223-0.052c-0.273-0.136-0.561-0.254-0.854-0.35
					c-0.263-0.086-0.406-0.368-0.32-0.631s0.367-0.404,0.631-0.32c0.261,0.086,0.518,0.186,0.767,0.299
					c0.249-0.114,0.507-0.214,0.768-0.299c0.262-0.086,0.545,0.059,0.63,0.321s-0.059,0.544-0.321,0.63
					c-0.292,0.095-0.579,0.212-0.854,0.349C15.154,26.904,15.078,26.922,15.002,26.922z"/>
			</g>
			<g>
				<path d="M11.771,26.217c-0.003,0-0.005,0-0.008,0c-0.871-0.014-1.702-0.224-2.471-0.624c-0.244-0.128-0.34-0.43-0.212-0.675
					c0.128-0.244,0.431-0.336,0.675-0.212c0.629,0.328,1.31,0.5,2.023,0.511c0.276,0.005,0.496,0.231,0.492,0.508
					C12.267,25.998,12.043,26.217,11.771,26.217z M7.769,24.138c-0.154,0-0.306-0.071-0.404-0.205
					c-0.505-0.693-0.846-1.506-0.984-2.35c-0.045-0.272,0.14-0.529,0.412-0.574c0.269-0.049,0.529,0.14,0.574,0.412
					c0.114,0.69,0.393,1.354,0.807,1.922c0.162,0.224,0.113,0.536-0.109,0.699C7.975,24.106,7.871,24.138,7.769,24.138z"/>
			</g>
			<g>
				<path d="M6.805,19.652c-0.276,0-0.5-0.224-0.5-0.5v-0.5h-0.5c-0.276,0-0.5-0.224-0.5-0.5s0.224-0.5,0.5-0.5h1
					c0.276,0,0.5,0.224,0.5,0.5v1C7.305,19.429,7.081,19.652,6.805,19.652z"/>
			</g>
			<g>
				<path d="M5.282,18.652h-1c-0.276,0-0.5-0.224-0.5-0.5l-0.003-0.987c-0.008-0.275,0.209-0.506,0.485-0.515
					c0.262,0.005,0.505,0.209,0.515,0.485l0.003,0.517h0.5c0.276,0,0.5,0.224,0.5,0.5S5.559,18.652,5.282,18.652z"/>
			</g>
			<g>
				<path d="M3.954,15.788c-0.211,0-0.406-0.134-0.476-0.345c-0.097-0.295-0.214-0.582-0.35-0.854c-0.07-0.141-0.07-0.306,0-0.446
					c0.138-0.277,0.256-0.565,0.352-0.858c0.086-0.263,0.367-0.404,0.631-0.32c0.263,0.086,0.406,0.368,0.32,0.631
					c-0.086,0.261-0.187,0.52-0.302,0.771c0.113,0.247,0.214,0.504,0.3,0.767s-0.058,0.545-0.32,0.631
					C4.058,15.78,4.006,15.788,3.954,15.788z"/>
			</g>
			<g>
				<path d="M4.279,12.088c-0.005,0-0.01,0-0.016,0c-0.275-0.009-0.492-0.239-0.484-0.516l0.003-0.985c0-0.276,0.224-0.5,0.5-0.5h1
					c0.276,0,0.5,0.224,0.5,0.5s-0.224,0.5-0.5,0.5h-0.5l-0.003,0.517C4.771,11.874,4.549,12.088,4.279,12.088z"/>
			</g>
			<g>
				<path d="M6.416,11.087h-1c-0.276,0-0.5-0.224-0.5-0.5s0.224-0.5,0.5-0.5h0.599l0.13-0.585c0.061-0.27,0.325-0.437,0.597-0.38
					c0.27,0.06,0.439,0.327,0.38,0.597l-0.217,0.977C6.854,10.924,6.65,11.087,6.416,11.087z"/>
			</g>
			<g>
				<path d="M7.124,8.073c-0.057,0-0.115-0.01-0.172-0.03C6.693,7.948,6.56,7.661,6.654,7.401c0.268-0.73,0.677-1.383,1.217-1.939
					c0.191-0.197,0.508-0.203,0.707-0.01c0.197,0.191,0.202,0.509,0.01,0.707c-0.44,0.454-0.775,0.988-0.994,1.586
					C7.52,7.947,7.328,8.073,7.124,8.073z M9.955,5.147c-0.198,0-0.385-0.118-0.464-0.313C9.388,4.578,9.512,4.287,9.768,4.184
					c0.661-0.267,1.36-0.401,2.08-0.401h0.156c0.276,0,0.5,0.224,0.5,0.5s-0.224,0.5-0.5,0.5h-0.156
					c-0.591,0-1.164,0.11-1.705,0.329C10.081,5.136,10.018,5.147,9.955,5.147z"/>
			</g>
			<g>
				<path d="M15.924,4.455c-0.052,0-0.104-0.008-0.155-0.024c-0.262-0.086-0.52-0.187-0.768-0.3c-0.248,0.113-0.506,0.214-0.768,0.3
					c-0.263,0.083-0.545-0.058-0.631-0.32s0.058-0.545,0.32-0.631c0.295-0.096,0.582-0.214,0.855-0.35
					c0.141-0.07,0.305-0.07,0.445,0c0.273,0.136,0.561,0.254,0.855,0.35c0.263,0.086,0.406,0.368,0.32,0.631
					C16.33,4.321,16.135,4.455,15.924,4.455z"/>
			</g>
			<g>
				<path d="M22.867,8.048c-0.202,0-0.394-0.124-0.469-0.325c-0.222-0.594-0.559-1.125-1.001-1.578
					c-0.193-0.198-0.189-0.515,0.008-0.707c0.198-0.194,0.515-0.188,0.707,0.008c0.541,0.554,0.952,1.202,1.224,1.928
					c0.097,0.259-0.035,0.547-0.294,0.644C22.984,8.038,22.926,8.048,22.867,8.048z M20.028,5.142c-0.062,0-0.125-0.012-0.186-0.036
					c-0.537-0.215-1.105-0.323-1.69-0.323h-0.169c-0.276,0-0.5-0.224-0.5-0.5s0.224-0.5,0.5-0.5h0.169
					c0.713,0,1.406,0.133,2.062,0.396c0.257,0.103,0.381,0.394,0.278,0.649C20.414,5.022,20.227,5.142,20.028,5.142z"/>
			</g>
			<g>
				<path d="M24.471,11.087h-1c-0.244,0-0.452-0.177-0.493-0.417l-0.166-0.986c-0.046-0.272,0.138-0.53,0.41-0.576
					c0.268-0.045,0.53,0.137,0.576,0.41l0.096,0.569h0.577c0.276,0,0.5,0.224,0.5,0.5S24.747,11.087,24.471,11.087z"/>
			</g>
			<g>
				<path d="M25.72,12.08c-0.272,0-0.495-0.219-0.5-0.492l-0.047-0.501h-0.568c-0.276,0-0.5-0.224-0.5-0.5s0.224-0.5,0.5-0.5h1
					c0.249,0,0.461,0.184,0.495,0.431l0.12,1.055c0.004,0.276-0.216,0.503-0.492,0.508C25.725,12.08,25.723,12.08,25.72,12.08z"/>
			</g>
			<g>
				<path d="M26.044,15.799c-0.052,0-0.104-0.008-0.155-0.024c-0.263-0.086-0.406-0.368-0.32-0.631
					c0.086-0.261,0.187-0.52,0.302-0.771c-0.115-0.252-0.216-0.51-0.3-0.769c-0.085-0.263,0.059-0.545,0.321-0.63
					c0.267-0.084,0.546,0.06,0.63,0.321c0.094,0.289,0.211,0.576,0.35,0.854c0.07,0.14,0.07,0.306,0,0.445
					c-0.138,0.277-0.256,0.565-0.352,0.858C26.45,15.665,26.255,15.799,26.044,15.799z"/>
			</g>
			<g>
				<path d="M25.718,18.652h-1c-0.276,0-0.5-0.224-0.5-0.5s0.224-0.5,0.5-0.5h0.5l0.003-0.517c0.009-0.271,0.23-0.484,0.5-0.484
					c0.005,0,0.01,0,0.016,0c0.275,0.009,0.492,0.239,0.484,0.516l-0.003,0.985C26.218,18.429,25.994,18.652,25.718,18.652z"/>
			</g>
			<g>
				<path d="M23.195,19.652c-0.276,0-0.5-0.224-0.5-0.5v-1c0-0.276,0.224-0.5,0.5-0.5h1c0.276,0,0.5,0.224,0.5,0.5
					s-0.224,0.5-0.5,0.5h-0.5v0.5C23.695,19.429,23.472,19.652,23.195,19.652z"/>
			</g>
			<g>
				<path d="M18.245,26.217c-0.272,0-0.495-0.218-0.5-0.491c-0.005-0.275,0.215-0.504,0.491-0.509
					c0.712-0.013,1.393-0.187,2.021-0.517c0.243-0.128,0.547-0.035,0.675,0.21c0.129,0.244,0.034,0.547-0.21,0.675
					c-0.768,0.403-1.598,0.616-2.468,0.632C18.251,26.217,18.248,26.217,18.245,26.217z M22.24,24.126
					c-0.102,0-0.204-0.031-0.293-0.095c-0.224-0.162-0.274-0.475-0.112-0.698c0.412-0.569,0.689-1.235,0.802-1.926
					c0.043-0.273,0.306-0.462,0.573-0.413c0.272,0.044,0.458,0.301,0.413,0.573c-0.137,0.843-0.475,1.656-0.978,2.352
					C22.548,24.055,22.395,24.126,22.24,24.126z"/>
			</g>
		</g>
	</g>
</g>
</svg>
