<?xml version="1.0" encoding="iso-8859-1"?>
<!-- Generator: Adobe Illustrator 19.2.1, SVG Export Plug-In . SVG Version: 6.00 Build 0)  -->
<svg version="1.1" xmlns="http://www.w3.org/2000/svg" xmlns:xlink="http://www.w3.org/1999/xlink" x="0px" y="0px"
	 viewBox="0 0 24 24" style="enable-background:new 0 0 24 24;" xml:space="preserve">
<g id="Dashed_Frame_21">
</g>
<g id="Dashed_Frame_22">
</g>
<g id="Dashed_Frame_23">
</g>
<g id="Dashed_Frame_24">
	<path d="M22.928,8.262c-0.09-0.149-0.25-0.24-0.423-0.242l-1.036-0.01C19.556,7.994,18,6.421,18,4.47
		c0-0.205-0.125-0.39-0.316-0.466c-3.381-1.338-7.986-1.338-11.367,0C6.125,4.079,6,4.299,6,4.505C6,6.421,4.444,7.994,2.53,8.01
		L1.495,8.02C1.322,8.022,1.162,8.113,1.072,8.262C0.361,9.443,0,10.695,0,11.983c0,1.299,0.371,2.601,1.072,3.766
		c0.091,0.15,0.253,0.242,0.428,0.242h1c1.93,0,3.5,1.573,3.5,3.506c0,0.205,0.125,0.39,0.316,0.466C8.007,20.632,10.025,21,12,21
		s3.993-0.368,5.684-1.037C17.875,19.888,18,19.667,18,19.462c0-1.917,1.556-3.489,3.47-3.505l1.035-0.01
		c0.173-0.002,0.333-0.093,0.423-0.242C23.639,14.524,24,13.272,24,11.983S23.639,9.443,22.928,8.262z M17.374,8.131
		c0.406,0.465,0.882,0.855,1.414,1.16c0.24,0.137,0.323,0.443,0.185,0.684c-0.092,0.161-0.261,0.251-0.434,0.251
		c-0.084,0-0.17-0.022-0.248-0.067c-0.628-0.36-1.189-0.821-1.669-1.368c-0.182-0.208-0.161-0.524,0.046-0.707
		C16.875,7.904,17.191,7.922,17.374,8.131z M14.302,5.155c0.523,0.084,1.035,0.197,1.521,0.334c0.171,0.049,0.305,0.185,0.349,0.358
		c0.114,0.447,0.283,0.878,0.502,1.281c0.132,0.243,0.043,0.547-0.199,0.679c-0.076,0.042-0.158,0.062-0.239,0.062
		c-0.177,0-0.349-0.094-0.439-0.261c-0.212-0.388-0.384-0.8-0.514-1.226c-0.368-0.095-0.75-0.174-1.14-0.238
		c-0.272-0.044-0.458-0.3-0.414-0.574C13.772,5.296,14.026,5.103,14.302,5.155z M5.212,9.295c0.534-0.306,1.011-0.697,1.417-1.161
		c0.183-0.207,0.499-0.228,0.706-0.046C7.542,8.27,7.563,8.586,7.381,8.795c-0.479,0.547-1.042,1.008-1.673,1.369
		C5.63,10.209,5.544,10.23,5.46,10.23c-0.173,0-0.342-0.091-0.435-0.252C4.889,9.738,4.972,9.432,5.212,9.295z M4.715,13.887
		c-0.065,0.216-0.264,0.356-0.479,0.356c-0.047,0-0.096-0.007-0.144-0.022c-0.441-0.133-0.897-0.21-1.354-0.229
		c-0.205-0.009-0.384-0.143-0.451-0.337C2.101,13.118,2.004,12.568,2,12.021c0-0.007,0.003-0.012,0.004-0.019
		C2.003,11.995,2,11.99,2,11.983c0-0.552,0.097-1.105,0.287-1.642c0.068-0.192,0.247-0.324,0.45-0.333
		C3.195,9.99,3.65,9.913,4.09,9.779C4.356,9.7,4.633,9.849,4.713,10.114c0.08,0.264-0.069,0.544-0.333,0.624
		c-0.407,0.123-0.825,0.206-1.247,0.248C3.045,11.316,3,11.65,3,11.983c0,0.005-0.003,0.01-0.003,0.015
		C2.997,12.003,3,12.008,3,12.013c0.002,0.334,0.049,0.67,0.137,1.004c0.42,0.041,0.837,0.123,1.243,0.247
		C4.645,13.342,4.795,13.622,4.715,13.887z M6.617,15.848c-0.405-0.459-0.88-0.844-1.41-1.147c-0.24-0.137-0.324-0.442-0.188-0.683
		c0.136-0.241,0.441-0.327,0.682-0.188c0.626,0.356,1.187,0.812,1.665,1.354c0.183,0.206,0.164,0.523-0.043,0.706
		c-0.095,0.085-0.213,0.126-0.332,0.126C6.854,16.017,6.716,15.96,6.617,15.848z M9.776,18.817c-0.026,0-0.053-0.002-0.079-0.006
		c-0.521-0.083-1.033-0.196-1.522-0.334c-0.171-0.049-0.304-0.185-0.349-0.357c-0.114-0.444-0.285-0.875-0.508-1.279
		c-0.134-0.243-0.046-0.547,0.196-0.681c0.242-0.133,0.545-0.046,0.679,0.196c0.216,0.391,0.391,0.804,0.521,1.229
		c0.37,0.095,0.752,0.174,1.14,0.236c0.273,0.044,0.458,0.3,0.415,0.574C10.23,18.642,10.018,18.817,9.776,18.817z M9.864,6.143
		c-0.388,0.064-0.771,0.143-1.14,0.237c-0.129,0.427-0.302,0.838-0.515,1.23c-0.091,0.166-0.262,0.26-0.439,0.26
		c-0.081,0-0.163-0.02-0.239-0.062C7.288,7.675,7.199,7.37,7.332,7.128c0.22-0.404,0.389-0.835,0.502-1.282
		c0.044-0.173,0.178-0.311,0.35-0.359c0.488-0.137,1-0.249,1.521-0.333c0.273-0.052,0.529,0.141,0.573,0.414
		C10.322,5.842,10.136,6.098,9.864,6.143z M12.988,18.962C12.66,18.986,12.33,18.996,12,18.996s-0.66-0.011-0.989-0.034
		c-0.275-0.02-0.483-0.259-0.463-0.535c0.02-0.276,0.26-0.486,0.534-0.465c0.611,0.043,1.227,0.043,1.837,0
		c0.268-0.023,0.515,0.189,0.534,0.465C13.471,18.703,13.264,18.942,12.988,18.962z M12.919,6.004
		c-0.611-0.041-1.227-0.042-1.838,0.001c-0.012,0.001-0.024,0.001-0.036,0.001c-0.26,0-0.479-0.202-0.498-0.466
		c-0.02-0.276,0.188-0.516,0.463-0.535c0.657-0.047,1.318-0.046,1.976-0.001c0.276,0.019,0.484,0.258,0.465,0.534
		C13.433,5.814,13.196,6.028,12.919,6.004z M16.668,16.839c-0.22,0.404-0.389,0.835-0.502,1.282
		c-0.044,0.173-0.178,0.311-0.35,0.359c-0.488,0.137-1,0.249-1.521,0.333c-0.027,0.005-0.054,0.007-0.08,0.007
		c-0.241,0-0.454-0.175-0.493-0.421c-0.044-0.274,0.142-0.53,0.414-0.574c0.388-0.064,0.771-0.143,1.14-0.237
		c0.129-0.427,0.302-0.838,0.515-1.23c0.132-0.243,0.437-0.333,0.678-0.199C16.712,16.292,16.801,16.596,16.668,16.839z
		 M18.788,14.672c-0.534,0.306-1.011,0.697-1.417,1.161c-0.099,0.113-0.237,0.17-0.376,0.17c-0.117,0-0.235-0.041-0.33-0.124
		c-0.208-0.183-0.229-0.499-0.046-0.707c0.479-0.547,1.042-1.008,1.673-1.369c0.239-0.138,0.545-0.054,0.682,0.186
		C19.111,14.229,19.028,14.535,18.788,14.672z M21.713,13.625c-0.068,0.192-0.247,0.324-0.45,0.333
		c-0.458,0.019-0.913,0.096-1.353,0.23c-0.048,0.015-0.097,0.022-0.145,0.022c-0.215,0-0.413-0.139-0.479-0.356
		c-0.08-0.264,0.069-0.544,0.333-0.624c0.407-0.123,0.825-0.206,1.247-0.248C20.955,12.651,21,12.317,21,11.983
		s-0.045-0.667-0.133-0.998c-0.423-0.041-0.841-0.124-1.248-0.249c-0.264-0.081-0.413-0.361-0.332-0.625
		c0.08-0.265,0.358-0.413,0.624-0.334c0.438,0.134,0.893,0.212,1.352,0.231c0.204,0.009,0.382,0.141,0.45,0.333
		c0.19,0.537,0.287,1.09,0.287,1.642S21.903,13.088,21.713,13.625z"/>
</g>
<g id="Dashed_Frame_34">
</g>
</svg>
