<?xml version="1.0" encoding="iso-8859-1"?>
<!-- Generator: Adobe Illustrator 19.2.1, SVG Export Plug-In . SVG Version: 6.00 Build 0)  -->
<svg version="1.1" xmlns="http://www.w3.org/2000/svg" xmlns:xlink="http://www.w3.org/1999/xlink" x="0px" y="0px"
	 viewBox="0 0 30 30" style="enable-background:new 0 0 30 30;" xml:space="preserve">
<g id="Photo_frame">
</g>
<g id="Photo_frame_2">
</g>
<g id="Photo_frame_3">
</g>
<g id="Photo_frame__4">
</g>
<g id="Photo_frame_5">
</g>
<g id="Photo_frame_6">
</g>
<g id="Photo_frame_7">
</g>
<g id="Round_Frame_1">
</g>
<g id="Rectangle_Frame_1">
</g>
<g id="Square_Frame_1">
</g>
<g id="Rectangle_Frame_2">
</g>
<g id="Oval_Frame_1">
</g>
<g id="Round_Frame_2">
</g>
<g id="Rectangle_Frame_3">
</g>
<g id="Rectangle_Frame_4">
</g>
<g id="Rectangle_Frame_5">
</g>
<g id="Square_Frame_2">
</g>
<g id="Rectangle_Frame_6">
</g>
<g id="Rectangle_Frame_7">
</g>
<g id="Oval_Frame_2">
</g>
<g id="Round_Frame_3">
</g>
<g id="Rectangle_Frame_8">
</g>
<g id="Square_Frame_3">
</g>
<g id="Rectangle_Frame_9">
</g>
<g id="Rectangle_Frame_10">
</g>
<g id="Square_Frame_4">
</g>
<g id="Rectangle_Frame_11">
</g>
<g id="Rectangle_Frame_12">
</g>
<g id="Square_Frame_5">
</g>
<g id="Rectangle_Frame_13">
</g>
<g id="Round_Frame">
</g>
<g id="Frame_2">
</g>
<g id="Frame_1">
</g>
<g id="Frame_3">
</g>
<g id="Frame_4">
</g>
<g id="Frame_5">
</g>
<g id="Frame_6">
</g>
<g id="Frame_7">
</g>
<g id="Frame_8">
</g>
<g id="Frame_9">
</g>
<g id="Frame_10">
</g>
<g id="Frame_11">
</g>
<g id="Frame_12">
</g>
<g id="Frame_13">
</g>
<g id="Frame_14">
</g>
<g id="Frame_15">
</g>
<g id="Frame_16">
</g>
<g id="Frame_17">
</g>
<g id="Frame_18">
</g>
<g id="Frame_19">
</g>
<g id="Frame_20">
</g>
<g id="Frame_21">
</g>
<g id="Frame_22">
</g>
<g id="Frame_23">
</g>
<g id="Frame_24">
</g>
<g id="Frame_25">
</g>
<g id="Frame_26">
</g>
<g id="Frame_27">
</g>
<g id="Frame_28">
</g>
<g id="Frame_29">
</g>
<g id="Frame_30">
</g>
<g id="Frame_Hole_1">
</g>
<g id="Frame_Hole_2">
</g>
<g id="Frame_Hole_3">
</g>
<g id="Frame_Hole_4">
</g>
<g id="Frame_31">
</g>
<g id="Frame_32">
</g>
<g id="Frame_33">
</g>
<g id="Frame_34">
</g>
<g id="Frame_35">
</g>
<g id="Dashed_Frame_1">
</g>
<g id="Dashed_Frame_2">
</g>
<g id="Dashed_Frame_3">
</g>
<g id="Dashed_Frame_4">
</g>
<g id="Dashed_Frame_5">
</g>
<g id="Dashed_Frame_6">
</g>
<g id="Dashed_Frame_7">
	<path d="M29.778,14.584l-7.84-5.244l-6.583-6.657c-0.188-0.19-0.523-0.19-0.711,0L8.062,9.34l-7.84,5.244
		C0.083,14.677,0,14.833,0,15s0.083,0.323,0.222,0.416l7.84,5.245l6.583,6.656c0.094,0.095,0.222,0.148,0.355,0.148
		s0.262-0.054,0.355-0.148l6.573-6.648l7.85-5.252C29.917,15.323,30,15.167,30,15S29.917,14.677,29.778,14.584z M19.464,11.073
		c0.153-0.229,0.463-0.291,0.694-0.138l1.435,0.959c0.229,0.153,0.291,0.464,0.138,0.693c-0.097,0.144-0.255,0.222-0.416,0.222
		c-0.096,0-0.192-0.027-0.278-0.084l-1.435-0.959C19.372,11.613,19.311,11.302,19.464,11.073z M17.077,8.571
		c0.197-0.195,0.514-0.193,0.707,0.004l1.213,1.227c0.194,0.196,0.192,0.513-0.004,0.707c-0.098,0.097-0.225,0.145-0.352,0.145
		c-0.129,0-0.258-0.049-0.355-0.148l-1.213-1.227C16.879,9.082,16.881,8.765,17.077,8.571z M13.753,7.02l0.891-0.901
		c0.188-0.19,0.523-0.19,0.711,0l0.892,0.901c0.193,0.196,0.192,0.513-0.005,0.707c-0.097,0.097-0.224,0.145-0.351,0.145
		c-0.129,0-0.258-0.049-0.355-0.148L15,7.182l-0.536,0.542c-0.194,0.197-0.51,0.199-0.707,0.004
		C13.561,7.533,13.559,7.216,13.753,7.02z M5.716,16.205c-0.096,0-0.192-0.027-0.277-0.085l-1.054-0.705
		C4.247,15.323,4.163,15.167,4.163,15s0.083-0.323,0.222-0.416l1.054-0.705c0.229-0.154,0.54-0.092,0.693,0.138
		s0.092,0.54-0.138,0.693L5.562,15l0.432,0.289c0.229,0.153,0.292,0.464,0.138,0.693C6.036,16.127,5.877,16.205,5.716,16.205z
		 M7.667,17.008C7.57,17.152,7.412,17.23,7.25,17.23c-0.096,0-0.192-0.027-0.277-0.084l-0.625-0.418
		c-0.229-0.153-0.292-0.464-0.138-0.693c0.153-0.23,0.461-0.292,0.693-0.138l0.625,0.417C7.758,16.468,7.82,16.778,7.667,17.008z
		 M7.812,13.495c-0.085,0.057-0.182,0.084-0.277,0.084c-0.161,0-0.32-0.078-0.416-0.222c-0.154-0.229-0.092-0.54,0.138-0.693
		l1.434-0.959c0.227-0.154,0.54-0.093,0.693,0.138c0.154,0.229,0.092,0.54-0.138,0.693L7.812,13.495z M10.535,18.928
		c-0.096,0.144-0.255,0.222-0.416,0.222c-0.096,0-0.192-0.027-0.277-0.084l-1.434-0.959c-0.229-0.154-0.292-0.465-0.138-0.694
		c0.153-0.229,0.464-0.289,0.693-0.138l1.434,0.959C10.627,18.388,10.689,18.698,10.535,18.928z M10.384,11.638
		c-0.127,0-0.254-0.048-0.352-0.145c-0.196-0.194-0.198-0.511-0.004-0.707l1.213-1.227c0.194-0.197,0.511-0.198,0.707-0.004
		s0.198,0.511,0.004,0.707L10.74,11.49C10.642,11.589,10.513,11.638,10.384,11.638z M12.922,21.429
		c-0.097,0.097-0.225,0.145-0.352,0.145c-0.129,0-0.258-0.05-0.355-0.148l-1.213-1.227c-0.194-0.196-0.192-0.513,0.004-0.707
		c0.196-0.194,0.514-0.191,0.707,0.004l1.213,1.227C13.121,20.918,13.119,21.234,12.922,21.429z M12.811,9.184
		c-0.127,0-0.254-0.048-0.352-0.145c-0.196-0.194-0.198-0.511-0.004-0.707l0.529-0.535c0.194-0.197,0.51-0.197,0.707-0.004
		c0.196,0.194,0.198,0.511,0.004,0.707l-0.529,0.535C13.068,9.135,12.939,9.184,12.811,9.184z M16.246,22.98l-0.891,0.9
		c-0.094,0.095-0.222,0.148-0.355,0.148s-0.261-0.054-0.355-0.148l-0.891-0.9c-0.194-0.196-0.192-0.513,0.004-0.707
		c0.196-0.194,0.513-0.192,0.707,0.004L15,22.818l0.536-0.541c0.194-0.196,0.511-0.198,0.708-0.004S16.44,22.784,16.246,22.98z
		 M17.545,21.667l-0.529,0.535c-0.098,0.099-0.227,0.148-0.355,0.148c-0.127,0-0.254-0.048-0.352-0.145
		c-0.196-0.194-0.198-0.511-0.004-0.707l0.529-0.535c0.194-0.195,0.511-0.199,0.707-0.004
		C17.737,21.154,17.739,21.471,17.545,21.667z M19.972,19.214l-1.214,1.227c-0.098,0.099-0.227,0.148-0.355,0.148
		c-0.127,0-0.254-0.048-0.352-0.145c-0.196-0.194-0.198-0.511-0.004-0.707l1.214-1.227c0.194-0.195,0.51-0.199,0.707-0.004
		C20.164,18.701,20.166,19.018,19.972,19.214z M22.744,17.337l-1.435,0.959c-0.086,0.057-0.183,0.084-0.278,0.084
		c-0.161,0-0.319-0.078-0.416-0.222c-0.153-0.23-0.092-0.541,0.138-0.694l1.435-0.959c0.23-0.153,0.54-0.092,0.694,0.138
		C23.035,16.873,22.974,17.184,22.744,17.337z M23.374,14.188c-0.096,0-0.192-0.027-0.278-0.084l-0.625-0.418
		c-0.229-0.154-0.291-0.464-0.137-0.694c0.152-0.23,0.463-0.29,0.693-0.137l0.625,0.418c0.229,0.154,0.291,0.464,0.137,0.694
		C23.693,14.11,23.535,14.188,23.374,14.188z M25.615,15.416l-1.054,0.705c-0.086,0.058-0.183,0.085-0.278,0.085
		c-0.161,0-0.319-0.078-0.416-0.223c-0.153-0.229-0.092-0.54,0.138-0.693L24.437,15l-0.433-0.289
		c-0.229-0.153-0.291-0.464-0.138-0.693c0.154-0.229,0.464-0.291,0.694-0.138l1.054,0.705c0.139,0.093,0.222,0.249,0.222,0.416
		S25.754,15.323,25.615,15.416z"/>
</g>
<g id="Dashed_Frame_8">
</g>
<g id="Dashed_Frame_9">
</g>
<g id="Dashed_Frame_10">
</g>
<g id="Dashed_Frame_11">
</g>
<g id="Dashed_Frame_12">
</g>
<g id="Dashed_Frame_13">
</g>
<g id="Dashed_Frame_14">
</g>
<g id="Dashed_Frame_15">
</g>
<g id="Dashed_Frame_16">
</g>
<g id="Dashed_Frame_17">
</g>
<g id="Dashed_Frame_18">
</g>
<g id="Dashed_Frame_19">
</g>
<g id="Dashed_Frame_20">
</g>
<g id="Dashed_Frame_25">
</g>
<g id="Dashed_Frame_26">
</g>
<g id="Dashed_Frame_27">
</g>
<g id="Dashed_Frame_28">
</g>
<g id="Dashed_Frame_29">
</g>
<g id="Dashed_Frame_30">
</g>
<g id="Dashed_Frame_31">
</g>
<g id="Dashed_Frame_32">
</g>
<g id="Dashed_Frame_33">
</g>
<g id="Dashed_Frame_35">
</g>
</svg>
