<?xml version="1.0" encoding="iso-8859-1"?>
<!-- Generator: Adobe Illustrator 19.2.1, SVG Export Plug-In . SVG Version: 6.00 Build 0)  -->
<svg version="1.1" xmlns="http://www.w3.org/2000/svg" xmlns:xlink="http://www.w3.org/1999/xlink" x="0px" y="0px"
	 viewBox="0 0 30 30" style="enable-background:new 0 0 30 30;" xml:space="preserve">
<g id="Photo_frame">
</g>
<g id="Photo_frame_2">
</g>
<g id="Photo_frame_3">
</g>
<g id="Photo_frame__4">
</g>
<g id="Photo_frame_5">
</g>
<g id="Photo_frame_6">
</g>
<g id="Photo_frame_7">
</g>
<g id="Round_Frame_1">
</g>
<g id="Rectangle_Frame_1">
</g>
<g id="Square_Frame_1">
</g>
<g id="Rectangle_Frame_2">
</g>
<g id="Oval_Frame_1">
</g>
<g id="Round_Frame_2">
</g>
<g id="Rectangle_Frame_3">
</g>
<g id="Rectangle_Frame_4">
</g>
<g id="Rectangle_Frame_5">
</g>
<g id="Square_Frame_2">
</g>
<g id="Rectangle_Frame_6">
</g>
<g id="Rectangle_Frame_7">
</g>
<g id="Oval_Frame_2">
</g>
<g id="Round_Frame_3">
</g>
<g id="Rectangle_Frame_8">
</g>
<g id="Square_Frame_3">
</g>
<g id="Rectangle_Frame_9">
</g>
<g id="Rectangle_Frame_10">
</g>
<g id="Square_Frame_4">
</g>
<g id="Rectangle_Frame_11">
</g>
<g id="Rectangle_Frame_12">
</g>
<g id="Square_Frame_5">
</g>
<g id="Rectangle_Frame_13">
</g>
<g id="Round_Frame">
</g>
<g id="Frame_2">
</g>
<g id="Frame_1">
</g>
<g id="Frame_3">
</g>
<g id="Frame_4">
</g>
<g id="Frame_5">
</g>
<g id="Frame_6">
</g>
<g id="Frame_7">
</g>
<g id="Frame_8">
</g>
<g id="Frame_9">
</g>
<g id="Frame_10">
</g>
<g id="Frame_11">
</g>
<g id="Frame_12">
</g>
<g id="Frame_13">
</g>
<g id="Frame_14">
</g>
<g id="Frame_15">
</g>
<g id="Frame_16">
</g>
<g id="Frame_17">
</g>
<g id="Frame_18">
</g>
<g id="Frame_19">
</g>
<g id="Frame_20">
</g>
<g id="Frame_21">
</g>
<g id="Frame_22">
</g>
<g id="Frame_23">
</g>
<g id="Frame_24">
</g>
<g id="Frame_25">
</g>
<g id="Frame_26">
</g>
<g id="Frame_27">
</g>
<g id="Frame_28">
</g>
<g id="Frame_29">
</g>
<g id="Frame_30">
</g>
<g id="Frame_Hole_1">
</g>
<g id="Frame_Hole_2">
</g>
<g id="Frame_Hole_3">
</g>
<g id="Frame_Hole_4">
</g>
<g id="Frame_31">
</g>
<g id="Frame_32">
</g>
<g id="Frame_33">
</g>
<g id="Frame_34">
</g>
<g id="Frame_35">
</g>
<g id="Dashed_Frame_1">
</g>
<g id="Dashed_Frame_2">
</g>
<g id="Dashed_Frame_3">
</g>
<g id="Dashed_Frame_4">
</g>
<g id="Dashed_Frame_5">
</g>
<g id="Dashed_Frame_6">
</g>
<g id="Dashed_Frame_7">
</g>
<g id="Dashed_Frame_8">
</g>
<g id="Dashed_Frame_9">
</g>
<g id="Dashed_Frame_10">
</g>
<g id="Dashed_Frame_11">
</g>
<g id="Dashed_Frame_12">
</g>
<g id="Dashed_Frame_13">
</g>
<g id="Dashed_Frame_14">
</g>
<g id="Dashed_Frame_15">
	<g>
		<g>
			<path d="M15,29.5c-0.116,0-0.232-0.04-0.325-0.12c-2.67-2.289-6.313-3.2-9.748-2.438c-0.183,0.039-0.373-0.024-0.493-0.169
				c0,0-1.417-1.709-2.124-2.618c-0.103-0.132-0.133-0.308-0.079-0.467s0.184-0.28,0.347-0.323C4.027,22.984,5.591,19.678,5.591,15
				S4.027,7.016,2.578,6.635C2.415,6.592,2.285,6.471,2.231,6.312S2.207,5.977,2.31,5.845c0.707-0.909,2.124-2.618,2.124-2.618
				c0.12-0.145,0.31-0.208,0.493-0.169C8.36,3.822,12.003,2.91,14.675,0.62c0.187-0.16,0.464-0.16,0.65,0
				c2.67,2.29,6.314,3.202,9.748,2.438c0.184-0.039,0.374,0.024,0.493,0.169c0,0,1.417,1.709,2.124,2.618
				c0.103,0.132,0.133,0.308,0.079,0.467s-0.184,0.28-0.347,0.323c-1.449,0.381-3.013,3.688-3.013,8.365s1.564,7.984,3.013,8.365
				c0.163,0.043,0.293,0.164,0.347,0.323s0.024,0.335-0.079,0.467c-0.707,0.909-2.124,2.618-2.124,2.618
				c-0.12,0.145-0.31,0.207-0.493,0.169c-3.432-0.763-7.077,0.148-9.748,2.438C15.232,29.46,15.116,29.5,15,29.5z M7.34,25.679
				c2.759,0,5.479,0.933,7.66,2.673c2.795-2.23,6.479-3.135,9.988-2.448c0.321-0.389,0.983-1.194,1.515-1.859
				c-1.828-1.118-3.094-4.717-3.094-9.044s1.267-7.926,3.094-9.044c-0.532-0.665-1.194-1.471-1.515-1.859
				C21.479,4.784,17.794,3.879,15,1.648c-2.794,2.23-6.477,3.139-9.988,2.448C4.691,4.485,4.028,5.291,3.497,5.956
				C5.324,7.074,6.591,10.673,6.591,15s-1.267,7.926-3.094,9.044c0.532,0.665,1.194,1.471,1.515,1.859
				C5.783,25.752,6.563,25.679,7.34,25.679z"/>
		</g>
		<g>
			<g>
				<path d="M15,26c-0.093,0-0.186-0.025-0.268-0.077c-0.272-0.173-0.55-0.335-0.833-0.486c-0.243-0.13-0.335-0.434-0.205-0.677
					s0.433-0.337,0.677-0.204c0.212,0.113,0.421,0.232,0.628,0.356c0.207-0.124,0.416-0.243,0.628-0.356
					c0.244-0.133,0.547-0.038,0.677,0.204c0.13,0.243,0.039,0.547-0.205,0.677c-0.283,0.151-0.561,0.313-0.833,0.486
					C15.186,25.975,15.093,26,15,26z"/>
			</g>
			<g>
				<path d="M12.142,24.622c-0.054,0-0.109-0.009-0.164-0.027c-0.662-0.229-1.345-0.408-2.028-0.53
					c-0.272-0.049-0.453-0.309-0.404-0.58c0.049-0.272,0.306-0.449,0.58-0.404c0.735,0.132,1.469,0.323,2.18,0.569
					c0.261,0.091,0.399,0.376,0.309,0.637C12.543,24.492,12.349,24.622,12.142,24.622z"/>
			</g>
			<g>
				<path d="M6.871,23.876c-0.175,0-0.339-0.092-0.429-0.244c-0.096-0.159-0.094-0.359,0.003-0.518
					c0.162-0.263,0.312-0.542,0.452-0.833c0.12-0.248,0.419-0.355,0.667-0.233c0.249,0.119,0.354,0.418,0.234,0.667
					c-0.023,0.048-0.046,0.096-0.07,0.143l0.156,0.002c0.276,0.006,0.495,0.235,0.489,0.511c-0.006,0.275-0.199,0.479-0.511,0.489
					l-0.256-0.003c-0.236,0-0.472,0.006-0.708,0.019C6.889,23.876,6.88,23.876,6.871,23.876z"/>
			</g>
			<g>
				<path d="M8.117,20.941c-0.045,0-0.092-0.006-0.138-0.02c-0.266-0.076-0.419-0.353-0.343-0.618
					c0.188-0.655,0.341-1.357,0.455-2.088c0.042-0.272,0.294-0.457,0.572-0.417c0.272,0.043,0.459,0.299,0.417,0.571
					c-0.121,0.771-0.283,1.515-0.482,2.209C8.535,20.799,8.334,20.941,8.117,20.941z M8.81,16.605c-0.008,0-0.017,0-0.025-0.001
					c-0.276-0.014-0.488-0.248-0.475-0.524c0.018-0.361,0.027-0.723,0.028-1.081c0-0.354-0.009-0.71-0.027-1.067
					c-0.014-0.275,0.199-0.51,0.475-0.523c0.279-0.038,0.511,0.198,0.524,0.475C9.329,14.256,9.338,14.63,9.338,15
					c0,0.375-0.01,0.752-0.029,1.131C9.295,16.397,9.075,16.605,8.81,16.605z M8.587,12.22c-0.242,0-0.455-0.177-0.494-0.423
					c-0.113-0.728-0.266-1.431-0.454-2.09C7.564,9.441,7.718,9.165,7.983,9.09c0.266-0.079,0.542,0.078,0.618,0.344
					c0.199,0.698,0.36,1.441,0.48,2.209c0.042,0.273-0.145,0.528-0.417,0.571C8.638,12.218,8.612,12.22,8.587,12.22z"/>
			</g>
			<g>
				<path d="M7.348,8.002c-0.187,0-0.365-0.104-0.451-0.283c-0.14-0.291-0.29-0.57-0.452-0.833C6.347,6.728,6.346,6.527,6.441,6.368
					c0.095-0.16,0.274-0.265,0.457-0.243C7.134,6.138,7.37,6.144,7.606,6.144l0.256-0.003c0.004,0,0.008,0,0.011,0
					c0.271,0,0.494,0.217,0.5,0.489C8.379,6.905,8.16,7.135,7.884,7.141L7.728,7.143c0.024,0.047,0.047,0.095,0.07,0.143
					c0.12,0.249,0.015,0.548-0.234,0.667C7.494,7.986,7.42,8.002,7.348,8.002z"/>
			</g>
			<g>
				<path d="M10.039,6.928c-0.238,0-0.448-0.17-0.492-0.412C9.499,6.244,9.68,5.984,9.952,5.936
					c0.686-0.123,1.368-0.301,2.027-0.531c0.262-0.089,0.546,0.047,0.637,0.309c0.091,0.261-0.047,0.545-0.308,0.637
					c-0.709,0.246-1.442,0.438-2.18,0.57C10.098,6.925,10.068,6.928,10.039,6.928z"/>
			</g>
			<g>
				<path d="M15.864,5.504c-0.08,0-0.161-0.019-0.236-0.06C15.416,5.331,15.207,5.212,15,5.088
					c-0.207,0.124-0.416,0.243-0.628,0.356c-0.245,0.134-0.547,0.039-0.677-0.204s-0.039-0.547,0.205-0.677
					c0.283-0.151,0.561-0.313,0.833-0.486c0.163-0.104,0.372-0.104,0.535,0c0.272,0.173,0.55,0.335,0.833,0.486
					c0.243,0.13,0.335,0.434,0.205,0.677C16.215,5.408,16.042,5.504,15.864,5.504z"/>
			</g>
			<g>
				<path d="M19.962,6.928c-0.029,0-0.059-0.003-0.088-0.008c-0.735-0.132-1.469-0.323-2.18-0.569
					c-0.261-0.091-0.399-0.376-0.309-0.637c0.09-0.26,0.375-0.398,0.636-0.309c0.662,0.229,1.345,0.408,2.028,0.53
					c0.272,0.049,0.453,0.309,0.404,0.58C20.411,6.758,20.2,6.928,19.962,6.928z"/>
			</g>
			<g>
				<path d="M22.652,8.002c-0.073,0-0.146-0.016-0.216-0.05c-0.249-0.119-0.354-0.418-0.234-0.667
					c0.023-0.048,0.046-0.096,0.07-0.143l-0.156-0.002c-0.276-0.006-0.495-0.234-0.489-0.511c0.006-0.275,0.229-0.493,0.511-0.489
					l0.257,0.003c0.236,0,0.472-0.006,0.707-0.019c0.185-0.023,0.362,0.083,0.457,0.243c0.096,0.159,0.094,0.359-0.003,0.518
					c-0.162,0.263-0.312,0.542-0.452,0.833C23.018,7.897,22.839,8.002,22.652,8.002z"/>
			</g>
			<g>
				<path d="M21.879,20.93c-0.217,0-0.418-0.144-0.48-0.363c-0.199-0.698-0.36-1.441-0.48-2.209
					c-0.042-0.273,0.145-0.528,0.417-0.571c0.275-0.037,0.529,0.146,0.571,0.417c0.113,0.728,0.266,1.431,0.454,2.09
					c0.076,0.266-0.078,0.542-0.344,0.617C21.971,20.924,21.924,20.93,21.879,20.93z M21.189,16.593
					c-0.265,0-0.486-0.208-0.499-0.476c-0.019-0.373-0.028-0.747-0.028-1.117c0-0.375,0.01-0.752,0.029-1.131
					c0.014-0.275,0.242-0.512,0.524-0.474c0.276,0.014,0.488,0.248,0.475,0.524c-0.018,0.361-0.027,0.723-0.028,1.081
					c0,0.354,0.009,0.71,0.027,1.067c0.014,0.275-0.199,0.51-0.475,0.523C21.206,16.593,21.197,16.593,21.189,16.593z
					 M21.415,12.207c-0.025,0-0.052-0.002-0.078-0.006c-0.272-0.043-0.459-0.299-0.417-0.571c0.121-0.771,0.283-1.515,0.482-2.209
					c0.075-0.266,0.352-0.423,0.618-0.343c0.266,0.076,0.419,0.353,0.343,0.618c-0.188,0.655-0.341,1.357-0.455,2.088
					C21.87,12.031,21.657,12.207,21.415,12.207z"/>
			</g>
			<g>
				<path d="M23.129,23.876c-0.009,0-0.019,0-0.028-0.001c-0.235-0.013-0.471-0.019-0.708-0.019l-0.256,0.003
					c-0.318,0.032-0.504-0.213-0.511-0.489c-0.006-0.275,0.213-0.505,0.489-0.511l0.156-0.002c-0.024-0.047-0.047-0.095-0.07-0.143
					c-0.12-0.249-0.015-0.548,0.234-0.667c0.248-0.122,0.548-0.015,0.667,0.233c0.14,0.291,0.29,0.57,0.452,0.833
					c0.098,0.158,0.099,0.358,0.003,0.518C23.468,23.784,23.305,23.876,23.129,23.876z"/>
			</g>
			<g>
				<path d="M17.857,24.623c-0.207,0-0.4-0.129-0.472-0.336c-0.091-0.261,0.047-0.545,0.308-0.637
					c0.709-0.246,1.442-0.438,2.18-0.57c0.275-0.041,0.531,0.133,0.58,0.404s-0.132,0.531-0.404,0.58
					c-0.686,0.123-1.368,0.301-2.027,0.531C17.967,24.614,17.912,24.623,17.857,24.623z"/>
			</g>
		</g>
	</g>
</g>
<g id="Dashed_Frame_16">
</g>
<g id="Dashed_Frame_17">
</g>
<g id="Dashed_Frame_18">
</g>
<g id="Dashed_Frame_19">
</g>
<g id="Dashed_Frame_20">
</g>
<g id="Dashed_Frame_25">
</g>
<g id="Dashed_Frame_26">
</g>
<g id="Dashed_Frame_27">
</g>
<g id="Dashed_Frame_28">
</g>
<g id="Dashed_Frame_29">
</g>
<g id="Dashed_Frame_30">
</g>
<g id="Dashed_Frame_31">
</g>
<g id="Dashed_Frame_32">
</g>
<g id="Dashed_Frame_33">
</g>
<g id="Dashed_Frame_35">
</g>
</svg>
