<?xml version="1.0" encoding="iso-8859-1"?>
<!-- Generator: Adobe Illustrator 19.2.1, SVG Export Plug-In . SVG Version: 6.00 Build 0)  -->
<svg version="1.1" xmlns="http://www.w3.org/2000/svg" xmlns:xlink="http://www.w3.org/1999/xlink" x="0px" y="0px"
	 viewBox="0 0 24 24" style="enable-background:new 0 0 24 24;" xml:space="preserve">
<g id="Photo_frame">
</g>
<g id="Photo_frame_2">
</g>
<g id="Photo_frame_3">
</g>
<g id="Photo_frame__4">
</g>
<g id="Photo_frame_5">
</g>
<g id="Photo_frame_6">
</g>
<g id="Photo_frame_7">
</g>
<g id="Round_Frame_1">
</g>
<g id="Rectangle_Frame_1">
</g>
<g id="Square_Frame_1">
</g>
<g id="Rectangle_Frame_2">
</g>
<g id="Oval_Frame_1">
</g>
<g id="Round_Frame_2">
</g>
<g id="Rectangle_Frame_3">
</g>
<g id="Rectangle_Frame_4">
</g>
<g id="Rectangle_Frame_5">
</g>
<g id="Square_Frame_2">
</g>
<g id="Rectangle_Frame_6">
</g>
<g id="Rectangle_Frame_7">
</g>
<g id="Oval_Frame_2">
</g>
<g id="Round_Frame_3">
</g>
<g id="Rectangle_Frame_8">
</g>
<g id="Square_Frame_3">
</g>
<g id="Rectangle_Frame_9">
</g>
<g id="Rectangle_Frame_10">
</g>
<g id="Square_Frame_4">
</g>
<g id="Rectangle_Frame_11">
</g>
<g id="Rectangle_Frame_12">
</g>
<g id="Square_Frame_5">
</g>
<g id="Rectangle_Frame_13">
</g>
<g id="Round_Frame">
</g>
<g id="Frame_2">
</g>
<g id="Frame_1">
</g>
<g id="Frame_3">
</g>
<g id="Frame_4">
</g>
<g id="Frame_5">
</g>
<g id="Frame_6">
</g>
<g id="Frame_7">
</g>
<g id="Frame_8">
</g>
<g id="Frame_9">
</g>
<g id="Frame_10">
</g>
<g id="Frame_11">
</g>
<g id="Frame_12">
</g>
<g id="Frame_13">
</g>
<g id="Frame_14">
</g>
<g id="Frame_15">
</g>
<g id="Frame_16">
</g>
<g id="Frame_17">
</g>
<g id="Frame_18">
</g>
<g id="Frame_19">
</g>
<g id="Frame_20">
</g>
<g id="Frame_21">
</g>
<g id="Frame_22">
</g>
<g id="Frame_23">
</g>
<g id="Frame_24">
</g>
<g id="Frame_25">
</g>
<g id="Frame_26">
</g>
<g id="Frame_27">
</g>
<g id="Frame_28">
</g>
<g id="Frame_29">
</g>
<g id="Frame_30">
</g>
<g id="Frame_Hole_1">
</g>
<g id="Frame_Hole_2">
</g>
<g id="Frame_Hole_3">
</g>
<g id="Frame_Hole_4">
</g>
<g id="Frame_31">
</g>
<g id="Frame_32">
</g>
<g id="Frame_33">
</g>
<g id="Frame_34">
</g>
<g id="Frame_35">
</g>
<g id="Dashed_Frame_1">
</g>
<g id="Dashed_Frame_2">
</g>
<g id="Dashed_Frame_3">
</g>
<g id="Dashed_Frame_4">
</g>
<g id="Dashed_Frame_5">
</g>
<g id="Dashed_Frame_6">
</g>
<g id="Dashed_Frame_7">
</g>
<g id="Dashed_Frame_8">
	<path d="M22.5,4C22.224,4,22,3.775,22,3.5C22,2.673,21.327,2,20.5,2h-1C19.224,2,19,1.775,19,1.5C19,0.673,18.327,0,17.5,0h-11
		C5.673,0,5,0.673,5,1.5C5,1.775,4.776,2,4.5,2h-1C2.673,2,2,2.673,2,3.5C2,3.775,1.776,4,1.5,4C0.673,4,0,4.673,0,5.5v13
		C0,19.327,0.673,20,1.5,20C1.776,20,2,20.225,2,20.5C2,21.327,2.673,22,3.5,22h1C4.776,22,5,22.225,5,22.5
		C5,23.327,5.673,24,6.5,24h11c0.827,0,1.5-0.673,1.5-1.5c0-0.275,0.224-0.5,0.5-0.5h1c0.827,0,1.5-0.673,1.5-1.5
		c0-0.275,0.224-0.5,0.5-0.5c0.827,0,1.5-0.673,1.5-1.5v-13C24,4.673,23.327,4,22.5,4z M2,8.71c0-0.276,0.224-0.5,0.5-0.5
		S3,8.434,3,8.71v0.94c0,0.276-0.224,0.5-0.5,0.5S2,9.927,2,9.65V8.71z M2,11.53c0-0.276,0.224-0.5,0.5-0.5S3,11.254,3,11.53v0.94
		c0,0.276-0.224,0.5-0.5,0.5S2,12.747,2,12.471V11.53z M2,14.351c0-0.276,0.224-0.5,0.5-0.5s0.5,0.224,0.5,0.5v0.94
		c0,0.276-0.224,0.5-0.5,0.5S2,15.567,2,15.291V14.351z M3.395,18.124c-0.092,0.163-0.262,0.255-0.437,0.255
		c-0.083,0-0.167-0.021-0.245-0.064c-0.121-0.067-0.249-0.125-0.381-0.172C2.133,18.071,2,17.883,2,17.671v-0.5
		c0-0.276,0.224-0.5,0.5-0.5s0.5,0.224,0.5,0.5v0.166c0.069,0.033,0.137,0.068,0.204,0.106C3.445,17.578,3.53,17.883,3.395,18.124z
		 M3.204,6.557C3.137,6.595,3.069,6.63,3,6.663v0.166c0,0.276-0.224,0.5-0.5,0.5S2,7.105,2,6.829v-0.5
		c0-0.212,0.133-0.4,0.333-0.472c0.132-0.047,0.26-0.104,0.381-0.172c0.241-0.136,0.546-0.05,0.681,0.19
		C3.53,6.117,3.445,6.422,3.204,6.557z M17.924,3.438c0.123,0.101,0.256,0.189,0.396,0.265c0.243,0.132,0.334,0.435,0.203,0.678
		c-0.09,0.168-0.262,0.263-0.44,0.263c-0.08,0-0.161-0.02-0.237-0.06c-0.196-0.106-0.382-0.23-0.554-0.37
		c-0.214-0.175-0.246-0.489-0.072-0.703C17.395,3.296,17.71,3.266,17.924,3.438z M16.171,2h0.5c0.211,0,0.4,0.133,0.471,0.333
		c0.047,0.132,0.104,0.258,0.17,0.378c0.135,0.241,0.048,0.546-0.193,0.68c-0.077,0.043-0.161,0.063-0.243,0.063
		c-0.175,0-0.346-0.093-0.437-0.257C16.404,3.133,16.37,3.067,16.338,3h-0.167c-0.276,0-0.5-0.224-0.5-0.5S15.895,2,16.171,2z
		 M4.829,20.018c-0.018,0-0.036-0.001-0.055-0.003C4.684,20.005,4.592,20,4.5,20H4.329c-0.211,0-0.4-0.133-0.471-0.332
		c-0.047-0.133-0.105-0.262-0.173-0.383c-0.135-0.24-0.049-0.545,0.191-0.681c0.243-0.134,0.546-0.049,0.681,0.192
		c0.038,0.067,0.074,0.137,0.107,0.207c0.074,0.003,0.147,0.009,0.219,0.017c0.274,0.03,0.473,0.276,0.443,0.552
		C5.297,19.828,5.081,20.018,4.829,20.018z M4.882,4.979C4.811,4.987,4.737,4.993,4.664,4.996c-0.033,0.07-0.069,0.14-0.107,0.207
		C4.465,5.367,4.295,5.459,4.12,5.459c-0.083,0-0.167-0.021-0.244-0.063C3.635,5.26,3.549,4.955,3.685,4.715
		c0.068-0.121,0.126-0.25,0.173-0.383C3.928,4.133,4.117,4,4.329,4H4.5c0.092,0,0.184-0.005,0.274-0.015
		c0.277-0.03,0.521,0.168,0.551,0.442C5.355,4.703,5.157,4.949,4.882,4.979z M5.679,3.704C5.819,3.629,5.952,3.54,6.075,3.439
		C6.29,3.267,6.605,3.298,6.778,3.512C6.953,3.726,6.92,4.04,6.707,4.215c-0.172,0.14-0.357,0.264-0.553,0.37
		c-0.076,0.04-0.157,0.06-0.237,0.06c-0.178,0-0.35-0.095-0.44-0.263C5.345,4.139,5.436,3.836,5.679,3.704z M6.392,20.674
		c-0.111,0-0.223-0.037-0.315-0.112c-0.123-0.101-0.256-0.189-0.396-0.265c-0.243-0.132-0.334-0.435-0.203-0.678
		s0.433-0.333,0.677-0.203c0.196,0.106,0.382,0.23,0.554,0.37c0.214,0.175,0.246,0.489,0.072,0.703
		C6.681,20.611,6.537,20.674,6.392,20.674z M7.829,22h-0.5c-0.211,0-0.4-0.133-0.471-0.333c-0.047-0.132-0.104-0.258-0.17-0.378
		c-0.135-0.241-0.048-0.546,0.193-0.68c0.242-0.134,0.545-0.048,0.68,0.193c0.036,0.064,0.07,0.13,0.102,0.197h0.167
		c0.276,0,0.5,0.224,0.5,0.5S8.105,22,7.829,22z M7.829,3H7.662C7.63,3.067,7.596,3.133,7.56,3.197
		C7.469,3.361,7.298,3.454,7.123,3.454c-0.083,0-0.166-0.021-0.243-0.063c-0.241-0.134-0.328-0.438-0.193-0.68
		c0.067-0.12,0.124-0.246,0.17-0.378C6.928,2.133,7.117,2,7.329,2h0.5c0.276,0,0.5,0.224,0.5,0.5S8.105,3,7.829,3z M9.914,2h1.043
		c0.276,0,0.5,0.224,0.5,0.5S11.233,3,10.957,3H9.914c-0.276,0-0.5-0.224-0.5-0.5S9.638,2,9.914,2z M10.958,22H9.915
		c-0.276,0-0.5-0.224-0.5-0.5s0.224-0.5,0.5-0.5h1.043c0.276,0,0.5,0.224,0.5,0.5S11.234,22,10.958,22z M13.042,2h1.043
		c0.276,0,0.5,0.224,0.5,0.5S14.362,3,14.085,3h-1.043c-0.276,0-0.5-0.224-0.5-0.5S12.766,2,13.042,2z M14.086,22h-1.043
		c-0.276,0-0.5-0.224-0.5-0.5s0.224-0.5,0.5-0.5h1.043c0.276,0,0.5,0.224,0.5,0.5S14.362,22,14.086,22z M17.313,21.289
		c-0.067,0.12-0.124,0.246-0.17,0.378c-0.071,0.2-0.26,0.333-0.471,0.333h-0.5c-0.276,0-0.5-0.224-0.5-0.5s0.224-0.5,0.5-0.5h0.167
		c0.032-0.067,0.066-0.133,0.102-0.197c0.134-0.241,0.438-0.328,0.68-0.193C17.361,20.743,17.448,21.048,17.313,21.289z
		 M18.321,20.296c-0.141,0.075-0.273,0.164-0.396,0.265c-0.093,0.075-0.205,0.112-0.315,0.112c-0.146,0-0.29-0.063-0.388-0.185
		c-0.174-0.214-0.142-0.528,0.072-0.703c0.172-0.14,0.357-0.264,0.553-0.37c0.244-0.129,0.546-0.04,0.677,0.203
		C18.655,19.861,18.564,20.164,18.321,20.296z M20.315,19.285c-0.068,0.121-0.126,0.25-0.173,0.383
		C20.072,19.867,19.883,20,19.671,20H19.5c-0.092,0-0.184,0.005-0.274,0.015c-0.019,0.002-0.037,0.003-0.055,0.003
		c-0.252,0-0.469-0.189-0.497-0.445c-0.03-0.275,0.168-0.521,0.443-0.552c0.072-0.008,0.145-0.014,0.219-0.017
		c0.033-0.07,0.069-0.14,0.107-0.207c0.134-0.241,0.437-0.327,0.681-0.192C20.365,18.74,20.451,19.045,20.315,19.285z M20.124,5.396
		c-0.078,0.043-0.162,0.063-0.244,0.063c-0.175,0-0.345-0.092-0.437-0.256c-0.038-0.067-0.074-0.137-0.107-0.207
		c-0.074-0.003-0.147-0.009-0.219-0.017c-0.274-0.03-0.473-0.276-0.443-0.552c0.03-0.274,0.27-0.474,0.551-0.442
		C19.316,3.995,19.408,4,19.5,4h0.171c0.211,0,0.4,0.133,0.471,0.332c0.047,0.133,0.105,0.262,0.173,0.383
		C20.451,4.955,20.365,5.26,20.124,5.396z M22,17.671c0,0.212-0.133,0.4-0.333,0.472c-0.132,0.047-0.26,0.104-0.381,0.172
		c-0.078,0.044-0.162,0.064-0.245,0.064c-0.175,0-0.345-0.092-0.437-0.255c-0.135-0.241-0.05-0.546,0.191-0.681
		c0.067-0.038,0.135-0.073,0.204-0.106v-0.166c0-0.276,0.224-0.5,0.5-0.5s0.5,0.224,0.5,0.5V17.671z M22,15.29
		c0,0.276-0.224,0.5-0.5,0.5s-0.5-0.224-0.5-0.5v-0.94c0-0.276,0.224-0.5,0.5-0.5s0.5,0.224,0.5,0.5V15.29z M22,12.47
		c0,0.276-0.224,0.5-0.5,0.5s-0.5-0.224-0.5-0.5v-0.94c0-0.276,0.224-0.5,0.5-0.5s0.5,0.224,0.5,0.5V12.47z M22,9.649
		c0,0.276-0.224,0.5-0.5,0.5S21,9.926,21,9.649v-0.94c0-0.276,0.224-0.5,0.5-0.5s0.5,0.224,0.5,0.5V9.649z M22,6.829
		c0,0.276-0.224,0.5-0.5,0.5S21,7.105,21,6.829V6.663c-0.069-0.033-0.137-0.068-0.204-0.106c-0.241-0.135-0.326-0.439-0.191-0.681
		s0.44-0.327,0.681-0.19c0.121,0.067,0.249,0.125,0.381,0.172C21.867,5.929,22,6.117,22,6.329V6.829z"/>
</g>
<g id="Dashed_Frame_9">
</g>
<g id="Dashed_Frame_10">
</g>
<g id="Dashed_Frame_11">
</g>
<g id="Dashed_Frame_12">
</g>
<g id="Dashed_Frame_13">
</g>
<g id="Dashed_Frame_14">
</g>
<g id="Dashed_Frame_15">
</g>
<g id="Dashed_Frame_16">
</g>
<g id="Dashed_Frame_17">
</g>
<g id="Dashed_Frame_18">
</g>
<g id="Dashed_Frame_19">
</g>
<g id="Dashed_Frame_20">
</g>
<g id="Dashed_Frame_25">
</g>
<g id="Dashed_Frame_26">
</g>
<g id="Dashed_Frame_27">
</g>
<g id="Dashed_Frame_28">
</g>
<g id="Dashed_Frame_29">
</g>
<g id="Dashed_Frame_30">
</g>
<g id="Dashed_Frame_31">
</g>
<g id="Dashed_Frame_32">
</g>
<g id="Dashed_Frame_33">
</g>
<g id="Dashed_Frame_35">
</g>
</svg>
