<?xml version="1.0" encoding="iso-8859-1"?>
<!-- Generator: Adobe Illustrator 19.2.1, SVG Export Plug-In . SVG Version: 6.00 Build 0)  -->
<svg version="1.1" xmlns="http://www.w3.org/2000/svg" xmlns:xlink="http://www.w3.org/1999/xlink" x="0px" y="0px"
	 viewBox="0 0 24 24" style="enable-background:new 0 0 24 24;" xml:space="preserve">
<g id="Photo_frame">
</g>
<g id="Photo_frame_2">
</g>
<g id="Photo_frame_3">
</g>
<g id="Photo_frame__4">
</g>
<g id="Photo_frame_5">
</g>
<g id="Photo_frame_6">
</g>
<g id="Photo_frame_7">
</g>
<g id="Round_Frame_1">
</g>
<g id="Rectangle_Frame_1">
</g>
<g id="Square_Frame_1">
</g>
<g id="Rectangle_Frame_2">
</g>
<g id="Oval_Frame_1">
</g>
<g id="Round_Frame_2">
</g>
<g id="Rectangle_Frame_3">
</g>
<g id="Rectangle_Frame_4">
</g>
<g id="Rectangle_Frame_5">
</g>
<g id="Square_Frame_2">
</g>
<g id="Rectangle_Frame_6">
</g>
<g id="Rectangle_Frame_7">
</g>
<g id="Oval_Frame_2">
</g>
<g id="Round_Frame_3">
</g>
<g id="Rectangle_Frame_8">
</g>
<g id="Square_Frame_3">
</g>
<g id="Rectangle_Frame_9">
</g>
<g id="Rectangle_Frame_10">
</g>
<g id="Square_Frame_4">
</g>
<g id="Rectangle_Frame_11">
</g>
<g id="Rectangle_Frame_12">
</g>
<g id="Square_Frame_5">
</g>
<g id="Rectangle_Frame_13">
</g>
<g id="Round_Frame">
</g>
<g id="Frame_2">
</g>
<g id="Frame_1">
</g>
<g id="Frame_3">
</g>
<g id="Frame_4">
</g>
<g id="Frame_5">
</g>
<g id="Frame_6">
</g>
<g id="Frame_7">
</g>
<g id="Frame_8">
</g>
<g id="Frame_9">
</g>
<g id="Frame_10">
</g>
<g id="Frame_11">
</g>
<g id="Frame_12">
</g>
<g id="Frame_13">
</g>
<g id="Frame_14">
</g>
<g id="Frame_15">
</g>
<g id="Frame_16">
</g>
<g id="Frame_17">
</g>
<g id="Frame_18">
</g>
<g id="Frame_19">
</g>
<g id="Frame_20">
</g>
<g id="Frame_21">
</g>
<g id="Frame_22">
</g>
<g id="Frame_23">
</g>
<g id="Frame_24">
</g>
<g id="Frame_25">
</g>
<g id="Frame_26">
</g>
<g id="Frame_27">
</g>
<g id="Frame_28">
</g>
<g id="Frame_29">
</g>
<g id="Frame_30">
</g>
<g id="Frame_Hole_1">
</g>
<g id="Frame_Hole_2">
</g>
<g id="Frame_Hole_3">
</g>
<g id="Frame_Hole_4">
</g>
<g id="Frame_31">
</g>
<g id="Frame_32">
</g>
<g id="Frame_33">
</g>
<g id="Frame_34">
</g>
<g id="Frame_35">
</g>
<g id="Dashed_Frame_1">
</g>
<g id="Dashed_Frame_2">
</g>
<g id="Dashed_Frame_3">
</g>
<g id="Dashed_Frame_4">
</g>
<g id="Dashed_Frame_5">
</g>
<g id="Dashed_Frame_6">
</g>
<g id="Dashed_Frame_7">
</g>
<g id="Dashed_Frame_8">
</g>
<g id="Dashed_Frame_9">
</g>
<g id="Dashed_Frame_10">
	<path d="M22.719,14.965l-0.438-2.1l0.438-2.097c0.014-0.067,0.014-0.138,0-0.205L22.28,8.462l0.41-2.218
		c0.044-0.237-0.088-0.472-0.313-0.558l-2.231-0.854l-1.696-1.533c-0.048-0.044-0.105-0.077-0.166-0.1l-2.143-0.771l-1.688-1.527
		c-0.048-0.043-0.104-0.076-0.164-0.099l-2.117-0.771c-0.111-0.041-0.232-0.041-0.343,0L9.708,0.805
		C9.648,0.827,9.592,0.861,9.544,0.904L7.852,2.433L5.709,3.204c-0.061,0.022-0.118,0.057-0.166,0.1L3.851,4.835L1.622,5.689
		C1.398,5.775,1.266,6.008,1.309,6.244l0.412,2.281L1.28,10.711c-0.013,0.065-0.013,0.133,0,0.198l0.44,2.166l-0.44,2.166
		c-0.013,0.065-0.013,0.132,0,0.197l0.428,2.148c0.022,0.109,0.08,0.209,0.165,0.281l1.69,1.451c0.05,0.043,0.107,0.075,0.169,0.096
		l2.134,0.702l1.697,1.468c0.05,0.044,0.108,0.076,0.171,0.097l2.135,0.702l1.816,1.502C11.778,23.962,11.891,24,12.004,24
		c0.117,0,0.233-0.041,0.328-0.122l1.809-1.568l2.151-0.774c0.062-0.022,0.118-0.057,0.166-0.1l1.689-1.527l2.142-0.771
		c0.061-0.022,0.117-0.056,0.165-0.099l1.682-1.513c0.08-0.072,0.134-0.167,0.155-0.271l0.428-2.086
		C22.733,15.101,22.733,15.032,22.719,14.965z M20.576,10.086l0.1,0.478c0.014,0.067,0.014,0.138,0,0.205l-0.272,1.301
		c-0.049,0.235-0.257,0.397-0.489,0.397c-0.034,0-0.068-0.003-0.103-0.011c-0.27-0.057-0.443-0.321-0.387-0.592l0.25-1.198
		l-0.079-0.375c-0.057-0.271,0.116-0.535,0.387-0.592C20.253,9.64,20.519,9.816,20.576,10.086z M18.528,6.89
		c0.099-0.259,0.391-0.386,0.646-0.288l0.934,0.357c0.225,0.086,0.357,0.32,0.313,0.558L20.238,8.5
		c-0.044,0.241-0.255,0.409-0.491,0.409c-0.03,0-0.061-0.003-0.091-0.009c-0.272-0.05-0.451-0.311-0.401-0.582l0.106-0.574
		l-0.545-0.209C18.558,7.437,18.429,7.148,18.528,6.89z M12.408,2.778c0.094-0.26,0.382-0.394,0.641-0.299l0.188,0.068
		c0.061,0.022,0.116,0.056,0.164,0.099l1.244,1.125c0.205,0.186,0.221,0.502,0.035,0.706c-0.099,0.109-0.234,0.165-0.371,0.165
		c-0.12,0-0.24-0.043-0.335-0.129l-1.267-1.095C12.447,3.323,12.313,3.036,12.408,2.778z M3.885,6.964l0.934-0.357
		c0.256-0.099,0.547,0.03,0.646,0.288S5.434,7.442,5.176,7.54L4.629,7.749l0.104,0.577c0.049,0.271-0.131,0.531-0.403,0.581
		c-0.03,0.005-0.06,0.008-0.089,0.008c-0.237,0-0.448-0.169-0.492-0.411L3.571,7.52C3.529,7.283,3.66,7.05,3.885,6.964z
		 M3.441,10.11c0.055-0.271,0.316-0.45,0.589-0.392c0.271,0.055,0.446,0.318,0.392,0.589l-0.101,0.502l0.222,1.092
		c0.055,0.271-0.12,0.534-0.39,0.59c-0.034,0.007-0.067,0.01-0.1,0.01c-0.233,0-0.441-0.163-0.489-0.4l-0.242-1.191
		c-0.014-0.065-0.014-0.133,0-0.198L3.441,10.11z M3.956,16.074c-0.033,0.007-0.066,0.01-0.099,0.01
		c-0.233,0-0.442-0.164-0.49-0.402L3.32,15.443c-0.013-0.064-0.013-0.132,0-0.197l0.315-1.553c0.055-0.271,0.318-0.445,0.589-0.391
		c0.271,0.056,0.445,0.319,0.391,0.59L4.32,15.346l0.028,0.141C4.402,15.757,4.227,16.021,3.956,16.074z M6.945,17.841
		c-0.069,0.21-0.265,0.344-0.475,0.344c-0.052,0-0.104-0.008-0.156-0.025l-1.579-0.52c-0.063-0.021-0.12-0.053-0.17-0.096
		l-0.126-0.108c-0.209-0.18-0.233-0.496-0.053-0.705c0.18-0.211,0.496-0.232,0.705-0.053l0.051,0.043l1.484,0.489
		C6.888,17.296,7.031,17.578,6.945,17.841z M6.762,6.247C6.667,6.333,6.546,6.376,6.427,6.376c-0.136,0-0.272-0.056-0.371-0.164
		c-0.186-0.205-0.17-0.521,0.035-0.707l0.5-0.453c0.048-0.043,0.104-0.077,0.166-0.1l1.13-0.407c0.26-0.092,0.546,0.042,0.64,0.301
		c0.094,0.261-0.041,0.547-0.301,0.641L7.19,5.86L6.762,6.247z M9.965,19.784c-0.069,0.21-0.265,0.344-0.475,0.344
		c-0.052,0-0.104-0.008-0.156-0.025l-0.595-0.195c-0.063-0.021-0.121-0.053-0.171-0.097l-0.91-0.787
		c-0.209-0.181-0.231-0.496-0.051-0.705c0.18-0.21,0.496-0.231,0.705-0.051l0.834,0.722l0.5,0.164
		C9.909,19.24,10.051,19.522,9.965,19.784z M9.684,4.648c-0.136,0-0.272-0.056-0.371-0.165C9.128,4.279,9.144,3.962,9.348,3.777
		l1.248-1.128c0.048-0.043,0.104-0.077,0.165-0.099l0.183-0.066c0.26-0.094,0.546,0.039,0.641,0.299
		c0.095,0.26-0.04,0.547-0.299,0.641l-0.091,0.033l-1.175,1.063C9.923,4.605,9.803,4.648,9.684,4.648z M13.057,20.604l-0.756,0.654
		c-0.094,0.081-0.21,0.122-0.327,0.122c-0.113,0-0.226-0.038-0.319-0.115l-0.771-0.638c-0.213-0.176-0.242-0.491-0.066-0.703
		c0.177-0.213,0.492-0.242,0.704-0.066l0.444,0.367l0.436-0.377c0.207-0.181,0.524-0.159,0.705,0.051
		C13.288,20.108,13.266,20.423,13.057,20.604z M16.232,18.944l-0.823,0.744c-0.048,0.043-0.104,0.077-0.166,0.1l-0.666,0.24
		c-0.056,0.02-0.113,0.029-0.169,0.029c-0.205,0-0.397-0.127-0.47-0.33c-0.094-0.26,0.041-0.547,0.301-0.641l0.573-0.206l0.75-0.679
		c0.205-0.184,0.521-0.169,0.706,0.036C16.453,18.442,16.437,18.758,16.232,18.944z M15.765,5.482
		c-0.26-0.094-0.395-0.38-0.301-0.64c0.093-0.26,0.377-0.393,0.64-0.302l1.131,0.407c0.061,0.022,0.118,0.056,0.166,0.1l0.5,0.452
		C18.106,5.685,18.122,6,17.937,6.205c-0.099,0.109-0.235,0.165-0.371,0.165c-0.12,0-0.24-0.043-0.335-0.129l-0.428-0.386
		L15.765,5.482z M19.233,17.392l-1.709,0.615c-0.056,0.02-0.113,0.029-0.169,0.029c-0.205,0-0.397-0.127-0.471-0.331
		c-0.093-0.26,0.042-0.546,0.301-0.64l1.709-0.615c0.261-0.092,0.546,0.041,0.64,0.302C19.628,17.012,19.493,17.298,19.233,17.392z
		 M20.584,15.625c-0.049,0.236-0.257,0.399-0.489,0.399c-0.033,0-0.067-0.003-0.101-0.011c-0.271-0.056-0.445-0.319-0.389-0.59
		l0.072-0.352l-0.255-1.224c-0.057-0.271,0.117-0.535,0.387-0.592c0.267-0.063,0.535,0.117,0.591,0.387l0.277,1.325
		c0.014,0.067,0.014,0.137,0,0.203L20.584,15.625z"/>
</g>
<g id="Dashed_Frame_11">
</g>
<g id="Dashed_Frame_12">
</g>
<g id="Dashed_Frame_13">
</g>
<g id="Dashed_Frame_14">
</g>
<g id="Dashed_Frame_15">
</g>
<g id="Dashed_Frame_16">
</g>
<g id="Dashed_Frame_17">
</g>
<g id="Dashed_Frame_18">
</g>
<g id="Dashed_Frame_19">
</g>
<g id="Dashed_Frame_20">
</g>
<g id="Dashed_Frame_25">
</g>
<g id="Dashed_Frame_26">
</g>
<g id="Dashed_Frame_27">
</g>
<g id="Dashed_Frame_28">
</g>
<g id="Dashed_Frame_29">
</g>
<g id="Dashed_Frame_30">
</g>
<g id="Dashed_Frame_31">
</g>
<g id="Dashed_Frame_32">
</g>
<g id="Dashed_Frame_33">
</g>
<g id="Dashed_Frame_35">
</g>
</svg>
