<?xml version="1.0" encoding="iso-8859-1"?>
<!-- Generator: Adobe Illustrator 19.2.1, SVG Export Plug-In . SVG Version: 6.00 Build 0)  -->
<svg version="1.1" xmlns="http://www.w3.org/2000/svg" xmlns:xlink="http://www.w3.org/1999/xlink" x="0px" y="0px"
	 viewBox="0 0 24 24" style="enable-background:new 0 0 24 24;" xml:space="preserve">
<g id="Dashed_Frame_21">
	<path d="M23.453,9.995l-0.451-0.826V6.5c0-0.276-0.224-0.5-0.5-0.5h-1.085c-0.803-0.646-1.796-1-2.816-1H5.399
		c-1.02,0-2.013,0.354-2.816,1H1.498c-0.276,0-0.5,0.224-0.5,0.5v2.669L0.547,9.995c-0.678,1.243-0.729,2.754-0.135,4.041
		l0.586,1.269V17.5c0,0.276,0.224,0.5,0.5,0.5h1.261c0.801,0.646,1.797,1,2.825,1h12.833c1.028,0,2.023-0.354,2.825-1h1.261
		c0.276,0,0.5-0.224,0.5-0.5v-2.195l0.586-1.27C24.182,12.749,24.131,11.238,23.453,9.995z M2.998,8.5
		c0-0.19,0.106-0.355,0.263-0.44l0.493-0.432c0.074-0.064,0.149-0.124,0.229-0.179C4.209,7.29,4.521,7.349,4.678,7.576
		c0.157,0.227,0.101,0.538-0.126,0.695C4.504,8.305,4.458,8.341,4.413,8.38L3.998,8.743V9.5c0,0.276-0.224,0.5-0.5,0.5
		s-0.5-0.224-0.5-0.5V8.5z M2.634,13.376c-0.2,0-0.39-0.121-0.466-0.319c-0.112-0.29-0.169-0.595-0.169-0.906
		c0-0.418,0.105-0.833,0.304-1.198c0.132-0.242,0.453-0.358,0.694-0.231c0.243,0.132,0.349,0.404,0.218,0.646
		c-0.153,0.282-0.216,0.531-0.216,0.783c0,0.188,0.034,0.371,0.102,0.545c0.1,0.258-0.028,0.547-0.286,0.646
		C2.756,13.365,2.694,13.376,2.634,13.376z M4.66,16.341c-0.102,0.119-0.243,0.183-0.383,0.183c-0.105,0-0.21-0.035-0.3-0.111
		c-0.003-0.002-0.042-0.036-0.044-0.039L3.498,16c-0.276,0-0.5-0.224-0.5-0.5v-0.634l-0.062-0.133
		c-0.116-0.251-0.006-0.548,0.244-0.664c0.251-0.116,0.548-0.006,0.664,0.244l0.107,0.232c0.03,0.066,0.046,0.138,0.046,0.21v0.346
		c0.01,0.008,0.019,0.015,0.028,0.023l0.567,0.498C4.799,15.804,4.839,16.133,4.66,16.341z M8.652,17H6.42
		c-0.276,0-0.5-0.224-0.5-0.5S6.143,16,6.42,16h2.232c0.276,0,0.5,0.224,0.5,0.5S8.928,17,8.652,17z M8.66,8H6.429
		c-0.276,0-0.5-0.224-0.5-0.5S6.152,7,6.429,7H8.66c0.276,0,0.5,0.224,0.5,0.5S8.936,8,8.66,8z M13.115,17h-2.232
		c-0.276,0-0.5-0.224-0.5-0.5s0.224-0.5,0.5-0.5h2.232c0.276,0,0.5,0.224,0.5,0.5S13.391,17,13.115,17z M13.123,8h-2.231
		c-0.276,0-0.5-0.224-0.5-0.5s0.224-0.5,0.5-0.5h2.231c0.276,0,0.5,0.224,0.5,0.5S13.4,8,13.123,8z M17.578,17h-2.232
		c-0.276,0-0.5-0.224-0.5-0.5s0.224-0.5,0.5-0.5h2.232c0.276,0,0.5,0.224,0.5,0.5S17.855,17,17.578,17z M17.587,8h-2.232
		c-0.276,0-0.5-0.224-0.5-0.5s0.224-0.5,0.5-0.5h2.232c0.276,0,0.5,0.224,0.5,0.5S17.863,8,17.587,8z M19.322,7.576
		c0.157-0.228,0.467-0.286,0.696-0.127c0.079,0.055,0.155,0.114,0.229,0.179l0.522,0.457c0.139,0.09,0.234,0.242,0.234,0.415v1
		c0,0.276-0.224,0.5-0.5,0.5s-0.5-0.224-0.5-0.5V8.743L19.587,8.38c-0.044-0.039-0.091-0.075-0.139-0.108
		C19.221,8.114,19.164,7.803,19.322,7.576z M21.063,14.733l-0.062,0.133V15.5c0,0.276-0.224,0.5-0.5,0.5h-0.009l-0.425,0.373
		L19.7,16.03l-0.323-0.382l0.596-0.523c0.009-0.009,0.018-0.016,0.028-0.023v-0.346c0-0.072,0.016-0.144,0.046-0.21l0.107-0.232
		c0.116-0.25,0.412-0.359,0.664-0.244C21.07,14.186,21.179,14.482,21.063,14.733z M21.832,13.055
		c-0.077,0.198-0.266,0.319-0.466,0.319c-0.06,0-0.121-0.011-0.181-0.034c-0.257-0.1-0.385-0.389-0.286-0.646
		c0.067-0.173,0.101-0.355,0.101-0.543c0-0.251-0.063-0.5-0.182-0.72c-0.132-0.242-0.06-0.578,0.183-0.71
		c0.241-0.132,0.528-0.074,0.66,0.168l0.035,0.064c0.199,0.366,0.304,0.78,0.304,1.197C22.001,12.462,21.944,12.766,21.832,13.055z"
		/>
</g>
<g id="Dashed_Frame_22">
</g>
<g id="Dashed_Frame_23">
</g>
<g id="Dashed_Frame_24">
</g>
<g id="Dashed_Frame_34">
</g>
</svg>
