<?xml version="1.0" encoding="iso-8859-1"?>
<!-- Generator: Adobe Illustrator 19.2.1, SVG Export Plug-In . SVG Version: 6.00 Build 0)  -->
<svg version="1.1" xmlns="http://www.w3.org/2000/svg" xmlns:xlink="http://www.w3.org/1999/xlink" x="0px" y="0px"
	 viewBox="0 0 30 30" style="enable-background:new 0 0 30 30;" xml:space="preserve">
<g id="Photo_frame">
</g>
<g id="Photo_frame_2">
</g>
<g id="Photo_frame_3">
</g>
<g id="Photo_frame__4">
</g>
<g id="Photo_frame_5">
</g>
<g id="Photo_frame_6">
</g>
<g id="Photo_frame_7">
</g>
<g id="Round_Frame_1">
</g>
<g id="Rectangle_Frame_1">
</g>
<g id="Square_Frame_1">
</g>
<g id="Rectangle_Frame_2">
</g>
<g id="Oval_Frame_1">
</g>
<g id="Round_Frame_2">
</g>
<g id="Rectangle_Frame_3">
</g>
<g id="Rectangle_Frame_4">
</g>
<g id="Rectangle_Frame_5">
</g>
<g id="Square_Frame_2">
</g>
<g id="Rectangle_Frame_6">
</g>
<g id="Rectangle_Frame_7">
</g>
<g id="Oval_Frame_2">
</g>
<g id="Round_Frame_3">
</g>
<g id="Rectangle_Frame_8">
</g>
<g id="Square_Frame_3">
</g>
<g id="Rectangle_Frame_9">
</g>
<g id="Rectangle_Frame_10">
</g>
<g id="Square_Frame_4">
</g>
<g id="Rectangle_Frame_11">
</g>
<g id="Rectangle_Frame_12">
</g>
<g id="Square_Frame_5">
</g>
<g id="Rectangle_Frame_13">
</g>
<g id="Round_Frame">
</g>
<g id="Frame_2">
</g>
<g id="Frame_1">
</g>
<g id="Frame_3">
</g>
<g id="Frame_4">
</g>
<g id="Frame_5">
</g>
<g id="Frame_6">
</g>
<g id="Frame_7">
</g>
<g id="Frame_8">
</g>
<g id="Frame_9">
</g>
<g id="Frame_10">
</g>
<g id="Frame_11">
</g>
<g id="Frame_12">
</g>
<g id="Frame_13">
</g>
<g id="Frame_14">
</g>
<g id="Frame_15">
</g>
<g id="Frame_16">
</g>
<g id="Frame_17">
</g>
<g id="Frame_18">
</g>
<g id="Frame_19">
</g>
<g id="Frame_20">
</g>
<g id="Frame_21">
</g>
<g id="Frame_22">
</g>
<g id="Frame_23">
</g>
<g id="Frame_24">
</g>
<g id="Frame_25">
</g>
<g id="Frame_26">
</g>
<g id="Frame_27">
</g>
<g id="Frame_28">
</g>
<g id="Frame_29">
</g>
<g id="Frame_30">
</g>
<g id="Frame_Hole_1">
</g>
<g id="Frame_Hole_2">
</g>
<g id="Frame_Hole_3">
</g>
<g id="Frame_Hole_4">
</g>
<g id="Frame_31">
</g>
<g id="Frame_32">
</g>
<g id="Frame_33">
</g>
<g id="Frame_34">
</g>
<g id="Frame_35">
</g>
<g id="Dashed_Frame_1">
</g>
<g id="Dashed_Frame_2">
</g>
<g id="Dashed_Frame_3">
</g>
<g id="Dashed_Frame_4">
</g>
<g id="Dashed_Frame_5">
</g>
<g id="Dashed_Frame_6">
</g>
<g id="Dashed_Frame_7">
</g>
<g id="Dashed_Frame_8">
</g>
<g id="Dashed_Frame_9">
</g>
<g id="Dashed_Frame_10">
</g>
<g id="Dashed_Frame_11">
</g>
<g id="Dashed_Frame_12">
</g>
<g id="Dashed_Frame_13">
</g>
<g id="Dashed_Frame_14">
</g>
<g id="Dashed_Frame_15">
</g>
<g id="Dashed_Frame_16">
</g>
<g id="Dashed_Frame_17">
</g>
<g id="Dashed_Frame_18">
</g>
<g id="Dashed_Frame_19">
</g>
<g id="Dashed_Frame_20">
</g>
<g id="Dashed_Frame_25">
</g>
<g id="Dashed_Frame_26">
</g>
<g id="Dashed_Frame_27">
</g>
<g id="Dashed_Frame_28">
</g>
<g id="Dashed_Frame_29">
</g>
<g id="Dashed_Frame_30">
</g>
<g id="Dashed_Frame_31">
	<path d="M23,7.982V7.435c0-0.276-0.29-0.5-0.566-0.5c-2.495,0-5.212-0.884-6.922-2.253l-0.199-0.159
		c-0.183-0.146-0.441-0.146-0.624,0l-0.2,0.159C12.778,6.05,10.061,6.935,7.5,6.935c-0.276,0-0.5,0.224-0.5,0.5v0.547
		C2.608,9.329,0,11.934,0,15c0,3.065,2.608,5.671,7,7.019v0.547c0,0.276,0.29,0.5,0.566,0.5c2.494,0,5.211,0.884,6.922,2.253
		l0.199,0.159c0.091,0.073,0.202,0.109,0.312,0.109s0.221-0.036,0.312-0.109l0.2-0.159c1.71-1.369,4.427-2.253,6.988-2.253
		c0.276,0,0.5-0.224,0.5-0.5v-0.547c4.392-1.348,7-3.953,7-7.019C30,11.934,27.392,9.329,23,7.982z M2.815,13.881
		c0.287-0.524,0.751-1.037,1.382-1.524c0.219-0.17,0.533-0.127,0.701,0.09c0.169,0.218,0.129,0.532-0.09,0.701
		c-0.513,0.396-0.898,0.816-1.115,1.212c-0.091,0.166-0.263,0.26-0.439,0.26c-0.081,0-0.163-0.02-0.239-0.061
		C2.772,14.427,2.683,14.124,2.815,13.881z M4.911,17.561c-0.099,0.128-0.247,0.195-0.396,0.195c-0.106,0-0.214-0.034-0.305-0.104
		c-0.63-0.486-1.097-0.997-1.386-1.519c-0.134-0.242-0.046-0.546,0.195-0.68c0.241-0.133,0.546-0.046,0.68,0.195
		c0.219,0.396,0.607,0.815,1.121,1.21C5.039,17.028,5.079,17.343,4.911,17.561z M5.868,11.33c0.542-0.269,1.142-0.517,1.782-0.737
		c0.261-0.091,0.546,0.049,0.635,0.31c0.09,0.261-0.049,0.546-0.31,0.635c-0.6,0.207-1.159,0.438-1.663,0.687
		c-0.071,0.036-0.147,0.052-0.222,0.052c-0.184,0-0.361-0.102-0.448-0.278C5.519,11.752,5.621,11.453,5.868,11.33z M8.3,19.102
		c-0.071,0.207-0.265,0.338-0.473,0.338c-0.054,0-0.108-0.009-0.162-0.027c-0.638-0.219-1.238-0.466-1.783-0.734
		c-0.248-0.122-0.35-0.422-0.227-0.67c0.123-0.246,0.422-0.349,0.669-0.227c0.506,0.25,1.066,0.48,1.665,0.686
		C8.25,18.556,8.389,18.84,8.3,19.102z M12.033,20.654c-0.061,0.223-0.262,0.368-0.482,0.368c-0.044,0-0.088-0.006-0.132-0.018
		c-0.309-0.085-0.622-0.157-0.937-0.218c-0.235-0.046-0.405-0.252-0.405-0.491v-0.171l-0.6-0.171
		c-0.266-0.075-0.419-0.353-0.344-0.617c0.076-0.267,0.354-0.422,0.618-0.344l0.962,0.274c0.214,0.061,0.363,0.257,0.363,0.48v0.142
		c0.203,0.046,0.405,0.096,0.606,0.15C11.949,20.113,12.106,20.388,12.033,20.654z M11.685,9.959
		c-0.201,0.055-0.402,0.105-0.605,0.151v0.141c0,0.224-0.148,0.42-0.363,0.481l-0.962,0.274c-0.045,0.013-0.092,0.019-0.137,0.019
		c-0.217,0-0.418-0.143-0.48-0.363c-0.076-0.265,0.079-0.542,0.344-0.618l0.599-0.17V9.705c0-0.239,0.169-0.445,0.404-0.491
		c0.315-0.062,0.628-0.134,0.938-0.219c0.265-0.069,0.542,0.084,0.614,0.351S11.951,9.886,11.685,9.959z M13.898,8.036
		c0.286-0.146,0.566-0.303,0.842-0.471c0.16-0.096,0.361-0.097,0.52,0c0.274,0.167,0.555,0.324,0.841,0.47
		c0.246,0.126,0.344,0.427,0.218,0.673c-0.089,0.173-0.264,0.272-0.446,0.272c-0.077,0-0.154-0.018-0.227-0.055
		C15.427,8.814,15.211,8.697,15,8.574c-0.212,0.123-0.428,0.241-0.646,0.353c-0.246,0.124-0.546,0.028-0.673-0.218
		C13.555,8.463,13.652,8.162,13.898,8.036z M16.102,21.964c-0.286,0.146-0.567,0.304-0.841,0.471c-0.08,0.049-0.17,0.073-0.26,0.073
		c-0.09,0-0.18-0.024-0.26-0.073c-0.275-0.167-0.556-0.324-0.843-0.471c-0.246-0.126-0.343-0.428-0.217-0.673
		c0.126-0.246,0.426-0.342,0.673-0.218c0.218,0.112,0.434,0.229,0.646,0.353c0.212-0.123,0.428-0.24,0.646-0.353
		c0.248-0.124,0.547-0.027,0.673,0.218S16.348,21.838,16.102,21.964z M20.52,19.955l-0.599,0.171v0.17
		c0,0.239-0.17,0.445-0.404,0.491c-0.315,0.061-0.628,0.134-0.938,0.219c-0.044,0.012-0.089,0.018-0.132,0.018
		c-0.22,0-0.422-0.146-0.482-0.368c-0.072-0.267,0.084-0.541,0.351-0.614c0.2-0.055,0.402-0.105,0.605-0.151v-0.141
		c0-0.224,0.148-0.42,0.363-0.48l0.962-0.274c0.262-0.079,0.541,0.079,0.617,0.344S20.785,19.88,20.52,19.955z M20.866,10.663
		c-0.063,0.22-0.263,0.363-0.48,0.363c-0.045,0-0.091-0.006-0.137-0.019l-0.962-0.274c-0.215-0.061-0.363-0.257-0.363-0.48v-0.142
		c-0.203-0.045-0.405-0.096-0.607-0.151c-0.267-0.073-0.423-0.348-0.351-0.614c0.072-0.266,0.347-0.425,0.614-0.351
		c0.31,0.084,0.622,0.158,0.938,0.219c0.235,0.045,0.405,0.25,0.405,0.49v0.171l0.6,0.17C20.788,10.121,20.942,10.397,20.866,10.663
		z M21.7,10.899c0.09-0.261,0.374-0.4,0.635-0.311c0.641,0.22,1.24,0.467,1.783,0.735c0.247,0.123,0.349,0.422,0.227,0.67
		c-0.087,0.176-0.265,0.278-0.448,0.278c-0.075,0-0.15-0.017-0.222-0.052c-0.504-0.249-1.063-0.48-1.664-0.686
		C21.749,11.444,21.61,11.16,21.7,10.899z M24.132,18.67c-0.547,0.271-1.146,0.519-1.783,0.736
		c-0.054,0.019-0.108,0.027-0.162,0.027c-0.208,0-0.402-0.131-0.473-0.338c-0.09-0.262,0.05-0.546,0.311-0.635
		c0.596-0.204,1.155-0.436,1.662-0.688c0.249-0.121,0.547-0.021,0.671,0.226C24.479,18.247,24.379,18.547,24.132,18.67z
		 M25.089,12.439c0.169-0.219,0.482-0.259,0.701-0.091c0.632,0.486,1.098,0.997,1.386,1.518c0.134,0.242,0.046,0.546-0.195,0.68
		c-0.077,0.042-0.16,0.063-0.242,0.063c-0.176,0-0.347-0.093-0.438-0.258c-0.219-0.396-0.606-0.814-1.12-1.21
		C24.962,12.972,24.921,12.658,25.089,12.439z M27.184,16.119c-0.286,0.523-0.751,1.036-1.38,1.524
		c-0.092,0.07-0.199,0.104-0.307,0.104c-0.149,0-0.297-0.066-0.396-0.193c-0.169-0.219-0.129-0.532,0.089-0.702
		c0.514-0.397,0.899-0.817,1.116-1.213c0.133-0.243,0.438-0.331,0.679-0.198C27.228,15.573,27.316,15.877,27.184,16.119z"/>
</g>
<g id="Dashed_Frame_32">
</g>
<g id="Dashed_Frame_33">
</g>
<g id="Dashed_Frame_35">
</g>
</svg>
