<?xml version="1.0" encoding="iso-8859-1"?>
<!-- Generator: Adobe Illustrator 19.2.1, SVG Export Plug-In . SVG Version: 6.00 Build 0)  -->
<svg version="1.1" xmlns="http://www.w3.org/2000/svg" xmlns:xlink="http://www.w3.org/1999/xlink" x="0px" y="0px"
	 viewBox="0 0 30 30" style="enable-background:new 0 0 30 30;" xml:space="preserve">
<g id="Photo_frame">
</g>
<g id="Photo_frame_2">
</g>
<g id="Photo_frame_3">
</g>
<g id="Photo_frame__4">
</g>
<g id="Photo_frame_5">
</g>
<g id="Photo_frame_6">
</g>
<g id="Photo_frame_7">
</g>
<g id="Round_Frame_1">
</g>
<g id="Rectangle_Frame_1">
</g>
<g id="Square_Frame_1">
</g>
<g id="Rectangle_Frame_2">
</g>
<g id="Oval_Frame_1">
</g>
<g id="Round_Frame_2">
</g>
<g id="Rectangle_Frame_3">
</g>
<g id="Rectangle_Frame_4">
</g>
<g id="Rectangle_Frame_5">
</g>
<g id="Square_Frame_2">
</g>
<g id="Rectangle_Frame_6">
</g>
<g id="Rectangle_Frame_7">
</g>
<g id="Oval_Frame_2">
</g>
<g id="Round_Frame_3">
</g>
<g id="Rectangle_Frame_8">
</g>
<g id="Square_Frame_3">
</g>
<g id="Rectangle_Frame_9">
</g>
<g id="Rectangle_Frame_10">
</g>
<g id="Square_Frame_4">
</g>
<g id="Rectangle_Frame_11">
</g>
<g id="Rectangle_Frame_12">
</g>
<g id="Square_Frame_5">
</g>
<g id="Rectangle_Frame_13">
</g>
<g id="Round_Frame">
</g>
<g id="Frame_2">
</g>
<g id="Frame_1">
</g>
<g id="Frame_3">
</g>
<g id="Frame_4">
</g>
<g id="Frame_5">
</g>
<g id="Frame_6">
</g>
<g id="Frame_7">
</g>
<g id="Frame_8">
</g>
<g id="Frame_9">
</g>
<g id="Frame_10">
</g>
<g id="Frame_11">
</g>
<g id="Frame_12">
</g>
<g id="Frame_13">
</g>
<g id="Frame_14">
</g>
<g id="Frame_15">
</g>
<g id="Frame_16">
</g>
<g id="Frame_17">
</g>
<g id="Frame_18">
</g>
<g id="Frame_19">
</g>
<g id="Frame_20">
</g>
<g id="Frame_21">
</g>
<g id="Frame_22">
</g>
<g id="Frame_23">
</g>
<g id="Frame_24">
</g>
<g id="Frame_25">
</g>
<g id="Frame_26">
</g>
<g id="Frame_27">
</g>
<g id="Frame_28">
</g>
<g id="Frame_29">
</g>
<g id="Frame_30">
</g>
<g id="Frame_Hole_1">
</g>
<g id="Frame_Hole_2">
</g>
<g id="Frame_Hole_3">
</g>
<g id="Frame_Hole_4">
</g>
<g id="Frame_31">
</g>
<g id="Frame_32">
</g>
<g id="Frame_33">
</g>
<g id="Frame_34">
</g>
<g id="Frame_35">
</g>
<g id="Dashed_Frame_1">
</g>
<g id="Dashed_Frame_2">
</g>
<g id="Dashed_Frame_3">
</g>
<g id="Dashed_Frame_4">
</g>
<g id="Dashed_Frame_5">
</g>
<g id="Dashed_Frame_6">
</g>
<g id="Dashed_Frame_7">
</g>
<g id="Dashed_Frame_8">
</g>
<g id="Dashed_Frame_9">
</g>
<g id="Dashed_Frame_10">
</g>
<g id="Dashed_Frame_11">
</g>
<g id="Dashed_Frame_12">
</g>
<g id="Dashed_Frame_13">
</g>
<g id="Dashed_Frame_14">
</g>
<g id="Dashed_Frame_15">
</g>
<g id="Dashed_Frame_16">
</g>
<g id="Dashed_Frame_17">
</g>
<g id="Dashed_Frame_18">
</g>
<g id="Dashed_Frame_19">
</g>
<g id="Dashed_Frame_20">
</g>
<g id="Dashed_Frame_25">
</g>
<g id="Dashed_Frame_26">
	<path d="M28.337,8.721c-0.023-0.175-0.138-0.325-0.3-0.394c-0.164-0.068-0.35-0.047-0.493,0.059
		c-0.384,0.285-0.777,0.429-1.168,0.429c-1.467,0-2.66-1.76-2.66-3.923c0-1.209,0.388-2.34,1.064-3.101
		c0.118-0.134,0.157-0.32,0.101-0.49c-0.057-0.17-0.199-0.296-0.374-0.332c-6.308-1.291-12.706-1.292-19.014,0
		C5.318,1.004,5.176,1.131,5.119,1.301C5.063,1.47,5.101,1.657,5.22,1.79c0.676,0.761,1.064,1.891,1.064,3.101
		c0,2.163-1.193,3.923-2.66,3.923c-0.391,0-0.784-0.144-1.168-0.429C2.312,8.28,2.125,8.258,1.963,8.327
		C1.8,8.396,1.686,8.546,1.662,8.721c-0.557,4.167-0.557,8.392,0,12.558c0.023,0.175,0.138,0.325,0.301,0.393
		c0.162,0.07,0.349,0.047,0.492-0.058c0.384-0.284,0.778-0.429,1.168-0.429c1.467,0,2.66,1.759,2.66,3.923
		c0,1.21-0.388,2.34-1.064,3.102c-0.119,0.134-0.157,0.32-0.101,0.49c0.057,0.169,0.199,0.296,0.375,0.332
		C8.648,29.678,11.824,30,15,30c3.177,0,6.353-0.322,9.507-0.967c0.175-0.036,0.317-0.163,0.374-0.332
		c0.057-0.17,0.018-0.356-0.101-0.49c-0.677-0.762-1.064-1.893-1.064-3.102c0-2.163,1.193-3.923,2.66-3.923
		c0.392,0,0.784,0.144,1.168,0.429c0.144,0.105,0.329,0.127,0.493,0.059c0.162-0.069,0.276-0.22,0.3-0.394
		C28.895,17.113,28.895,12.888,28.337,8.721z M21.418,7.453c0.241,0.765,0.594,1.452,1.05,2.041c0.169,0.218,0.129,0.532-0.09,0.701
		c-0.091,0.07-0.198,0.104-0.306,0.104c-0.149,0-0.297-0.067-0.396-0.194c-0.528-0.683-0.937-1.475-1.212-2.353
		c-0.083-0.263,0.063-0.544,0.326-0.627C21.06,7.044,21.337,7.19,21.418,7.453z M19.251,2.992c0.504,0.049,1.007,0.106,1.509,0.173
		c0.135,0.018,0.257,0.09,0.338,0.2c0.08,0.11,0.112,0.248,0.089,0.382c-0.079,0.449-0.119,0.906-0.119,1.357
		c0,0.276-0.224,0.524-0.5,0.524s-0.5-0.199-0.5-0.475c0-0.37,0.02-0.72,0.059-1.062c-0.323-0.039-0.646-0.074-0.971-0.105
		c-0.275-0.026-0.477-0.271-0.45-0.546C18.733,3.166,19.001,2.974,19.251,2.992z M6.482,18.835
		c-0.088,0.174-0.264,0.274-0.447,0.274c-0.076,0-0.152-0.018-0.225-0.054c-0.404-0.203-0.833-0.343-1.274-0.412
		c-0.229-0.037-0.404-0.226-0.42-0.458c-0.037-0.505-0.065-1.009-0.084-1.515c-0.011-0.275,0.205-0.508,0.48-0.518
		c0.275-0.007,0.508,0.206,0.519,0.481c0.014,0.367,0.033,0.734,0.056,1.1c0.405,0.097,0.798,0.24,1.174,0.43
		C6.508,18.287,6.607,18.588,6.482,18.835z M6.261,11.836c-0.376,0.19-0.77,0.334-1.174,0.43c-0.023,0.367-0.042,0.734-0.056,1.101
		c-0.01,0.269-0.232,0.481-0.499,0.481c-0.006,0-0.013,0-0.02,0c-0.276-0.01-0.491-0.243-0.48-0.518
		c0.019-0.506,0.047-1.01,0.084-1.515c0.017-0.232,0.191-0.421,0.421-0.458c0.44-0.069,0.869-0.208,1.274-0.412
		c0.246-0.127,0.547-0.025,0.671,0.221C6.607,11.411,6.508,11.712,6.261,11.836z M7.529,9.5c0.457-0.59,0.81-1.276,1.051-2.04
		c0.083-0.264,0.362-0.407,0.627-0.327c0.263,0.083,0.41,0.364,0.327,0.627C9.258,8.637,8.849,9.428,8.32,10.112
		c-0.099,0.127-0.247,0.194-0.396,0.194c-0.107,0-0.214-0.034-0.306-0.104C7.4,10.032,7.36,9.718,7.529,9.5z M8.582,22.545
		c-0.24-0.764-0.593-1.452-1.049-2.041c-0.169-0.219-0.129-0.532,0.09-0.701c0.217-0.169,0.532-0.13,0.701,0.09
		c0.528,0.683,0.936,1.475,1.212,2.354c0.083,0.263-0.064,0.544-0.327,0.627c-0.05,0.016-0.101,0.022-0.15,0.022
		C8.846,22.896,8.649,22.759,8.582,22.545z M10.798,27.009c-0.016,0-0.032-0.001-0.048-0.002c-0.504-0.049-1.007-0.107-1.509-0.173
		c-0.135-0.019-0.257-0.091-0.338-0.201c-0.081-0.109-0.113-0.248-0.089-0.382c0.079-0.446,0.119-0.903,0.119-1.357
		c0-0.276,0.224-0.525,0.5-0.525s0.5,0.199,0.5,0.475c0,0.371-0.02,0.721-0.059,1.061c0.323,0.039,0.646,0.074,0.971,0.105
		c0.275,0.026,0.476,0.27,0.45,0.546C11.27,26.816,11.053,27.009,10.798,27.009z M10.846,3.987
		c-0.324,0.032-0.648,0.067-0.971,0.105c0.039,0.336,0.059,0.675,0.059,1.012c0,0.276-0.224,0.524-0.5,0.524s-0.5-0.199-0.5-0.475
		V5.105c0-0.454-0.04-0.911-0.119-1.357C8.79,3.614,8.822,3.475,8.903,3.365c0.081-0.11,0.203-0.183,0.338-0.2
		c0.502-0.066,1.004-0.124,1.508-0.173c0.277-0.021,0.52,0.175,0.546,0.449C11.322,3.716,11.12,3.961,10.846,3.987z M16.416,27.191
		c-0.472,0.015-0.944,0.022-1.416,0.022c-0.474,0-0.947-0.008-1.421-0.022c-0.276-0.009-0.493-0.239-0.484-0.515
		c0.009-0.276,0.237-0.498,0.516-0.484c0.924,0.028,1.85,0.029,2.774,0c0.274,0.014,0.507,0.209,0.516,0.484
		C16.909,26.952,16.693,27.183,16.416,27.191z M16.406,3.809c-0.005,0-0.011,0-0.017,0c-0.923-0.029-1.848-0.03-2.773,0
		C13.362,3.83,13.108,3.601,13.1,3.325c-0.009-0.276,0.208-0.507,0.483-0.515c0.947-0.031,1.893-0.031,2.839,0
		c0.275,0.009,0.492,0.24,0.483,0.515C16.897,3.596,16.674,3.809,16.406,3.809z M21.098,26.634c-0.081,0.109-0.203,0.182-0.338,0.2
		c-0.502,0.065-1.005,0.124-1.509,0.173c-0.017,0.001-0.032,0.002-0.049,0.002c-0.254,0-0.472-0.193-0.497-0.452
		c-0.026-0.275,0.176-0.519,0.45-0.546c0.324-0.031,0.647-0.066,0.971-0.105c-0.039-0.337-0.059-0.676-0.059-1.011
		c0-0.276,0.224-0.525,0.5-0.525s0.5,0.199,0.5,0.475v0.05c0,0.452,0.04,0.908,0.119,1.357
		C21.21,26.386,21.178,26.524,21.098,26.634z M22.472,20.5c-0.457,0.589-0.811,1.274-1.052,2.038
		c-0.066,0.213-0.264,0.349-0.477,0.349c-0.05,0-0.101-0.008-0.15-0.023c-0.263-0.083-0.409-0.363-0.326-0.627
		c0.275-0.877,0.685-1.667,1.214-2.351c0.17-0.219,0.482-0.257,0.702-0.089C22.601,19.968,22.641,20.282,22.472,20.5z
		 M25.885,18.186c-0.018,0.231-0.191,0.421-0.421,0.458c-0.44,0.069-0.87,0.208-1.275,0.412c-0.072,0.037-0.148,0.054-0.225,0.054
		c-0.183,0-0.358-0.101-0.446-0.275c-0.124-0.246-0.025-0.547,0.222-0.671c0.376-0.189,0.77-0.333,1.174-0.43
		c0.023-0.367,0.042-0.733,0.056-1.101c0.011-0.269,0.232-0.48,0.5-0.48c0.006,0,0.013,0,0.02,0c0.276,0.011,0.491,0.243,0.48,0.519
		C25.949,17.177,25.921,17.681,25.885,18.186z M25.489,13.847c-0.007,0-0.014,0-0.02,0c-0.268,0-0.489-0.211-0.5-0.48
		c-0.014-0.368-0.032-0.735-0.056-1.102c-0.403-0.096-0.797-0.24-1.174-0.429c-0.247-0.124-0.346-0.425-0.222-0.671
		c0.124-0.248,0.425-0.345,0.671-0.222c0.406,0.205,0.836,0.344,1.275,0.412c0.229,0.037,0.403,0.226,0.421,0.458
		c0.036,0.504,0.063,1.009,0.084,1.515C25.98,13.604,25.765,13.836,25.489,13.847z"/>
</g>
<g id="Dashed_Frame_27">
</g>
<g id="Dashed_Frame_28">
</g>
<g id="Dashed_Frame_29">
</g>
<g id="Dashed_Frame_30">
</g>
<g id="Dashed_Frame_31">
</g>
<g id="Dashed_Frame_32">
</g>
<g id="Dashed_Frame_33">
</g>
<g id="Dashed_Frame_35">
</g>
</svg>
