<?xml version="1.0" encoding="iso-8859-1"?>
<!-- Generator: Adobe Illustrator 19.2.1, SVG Export Plug-In . SVG Version: 6.00 Build 0)  -->
<svg version="1.1" xmlns="http://www.w3.org/2000/svg" xmlns:xlink="http://www.w3.org/1999/xlink" x="0px" y="0px"
	 viewBox="0 0 24 24" style="enable-background:new 0 0 24 24;" xml:space="preserve">
<g id="Photo_frame">
</g>
<g id="Photo_frame_2">
</g>
<g id="Photo_frame_3">
</g>
<g id="Photo_frame__4">
</g>
<g id="Photo_frame_5">
</g>
<g id="Photo_frame_6">
</g>
<g id="Photo_frame_7">
</g>
<g id="Round_Frame_1">
</g>
<g id="Rectangle_Frame_1">
</g>
<g id="Square_Frame_1">
</g>
<g id="Rectangle_Frame_2">
</g>
<g id="Oval_Frame_1">
</g>
<g id="Round_Frame_2">
</g>
<g id="Rectangle_Frame_3">
</g>
<g id="Rectangle_Frame_4">
</g>
<g id="Rectangle_Frame_5">
</g>
<g id="Square_Frame_2">
</g>
<g id="Rectangle_Frame_6">
</g>
<g id="Rectangle_Frame_7">
</g>
<g id="Oval_Frame_2">
</g>
<g id="Round_Frame_3">
</g>
<g id="Rectangle_Frame_8">
</g>
<g id="Square_Frame_3">
</g>
<g id="Rectangle_Frame_9">
</g>
<g id="Rectangle_Frame_10">
</g>
<g id="Square_Frame_4">
</g>
<g id="Rectangle_Frame_11">
</g>
<g id="Rectangle_Frame_12">
</g>
<g id="Square_Frame_5">
</g>
<g id="Rectangle_Frame_13">
</g>
<g id="Round_Frame">
</g>
<g id="Frame_2">
</g>
<g id="Frame_1">
</g>
<g id="Frame_3">
</g>
<g id="Frame_4">
</g>
<g id="Frame_5">
</g>
<g id="Frame_6">
</g>
<g id="Frame_7">
</g>
<g id="Frame_8">
</g>
<g id="Frame_9">
</g>
<g id="Frame_10">
</g>
<g id="Frame_11">
</g>
<g id="Frame_12">
</g>
<g id="Frame_13">
</g>
<g id="Frame_14">
</g>
<g id="Frame_15">
</g>
<g id="Frame_16">
</g>
<g id="Frame_17">
</g>
<g id="Frame_18">
</g>
<g id="Frame_19">
</g>
<g id="Frame_20">
</g>
<g id="Frame_21">
</g>
<g id="Frame_22">
</g>
<g id="Frame_23">
</g>
<g id="Frame_24">
</g>
<g id="Frame_25">
</g>
<g id="Frame_26">
</g>
<g id="Frame_27">
</g>
<g id="Frame_28">
</g>
<g id="Frame_29">
</g>
<g id="Frame_30">
</g>
<g id="Frame_Hole_1">
</g>
<g id="Frame_Hole_2">
</g>
<g id="Frame_Hole_3">
</g>
<g id="Frame_Hole_4">
</g>
<g id="Frame_31">
</g>
<g id="Frame_32">
</g>
<g id="Frame_33">
</g>
<g id="Frame_34">
</g>
<g id="Frame_35">
</g>
<g id="Dashed_Frame_1">
</g>
<g id="Dashed_Frame_2">
</g>
<g id="Dashed_Frame_3">
</g>
<g id="Dashed_Frame_4">
</g>
<g id="Dashed_Frame_5">
</g>
<g id="Dashed_Frame_6">
</g>
<g id="Dashed_Frame_7">
</g>
<g id="Dashed_Frame_8">
</g>
<g id="Dashed_Frame_9">
</g>
<g id="Dashed_Frame_10">
</g>
<g id="Dashed_Frame_11">
</g>
<g id="Dashed_Frame_12">
</g>
<g id="Dashed_Frame_13">
</g>
<g id="Dashed_Frame_14">
</g>
<g id="Dashed_Frame_15">
</g>
<g id="Dashed_Frame_16">
</g>
<g id="Dashed_Frame_17">
</g>
<g id="Dashed_Frame_18">
</g>
<g id="Dashed_Frame_19">
</g>
<g id="Dashed_Frame_20">
</g>
<g id="Dashed_Frame_25">
</g>
<g id="Dashed_Frame_26">
</g>
<g id="Dashed_Frame_27">
</g>
<g id="Dashed_Frame_28">
</g>
<g id="Dashed_Frame_29">
</g>
<g id="Dashed_Frame_30">
</g>
<g id="Dashed_Frame_31">
</g>
<g id="Dashed_Frame_32">
</g>
<g id="Dashed_Frame_33">
</g>
<g id="Dashed_Frame_35">
	<path d="M23.848,11.147c-0.539-0.521-0.848-1.25-0.848-2V8.508c0-1.245-0.915-2.279-2.173-2.468
		C20.151,3.103,17.55,1.011,14.5,1.011h-0.14c-0.742,0-1.466-0.304-2.007-0.853C12.26,0.064,12.132,0.012,12,0.012
		c-0.127-0.047-0.265,0.055-0.359,0.152c-0.522,0.538-1.252,0.847-2.001,0.847H9.5c-3.047,0-5.645,2.088-6.324,5.018
		C1.95,6.189,1,7.24,1,8.508v0.639c0,0.741-0.304,1.465-0.849,2.001C0.055,11.243,0,11.371,0,11.507
		c0,0.135,0.055,0.264,0.152,0.358c0.539,0.521,0.848,1.25,0.848,2v0.639c0,1.212,0.868,2.225,2.016,2.452
		C3.249,20.328,6.068,23,9.5,23h0.14c0.742,0,1.466,0.304,1.989,0.836l0.018,0.018C11.74,23.947,11.868,24,12,24
		c0.001,0,0.002,0,0.004,0c0.134-0.001,0.262-0.056,0.355-0.152C12.881,23.31,13.611,23,14.36,23h0.14
		c3.432,0,6.251-2.673,6.484-6.044C22.132,16.73,23,15.717,23,14.505v-0.639c0-0.742,0.303-1.465,0.849-2.001
		C23.945,11.77,24,11.641,24,11.505C24,11.37,23.945,11.242,23.848,11.147z M19.046,7.439l0.095,0.569h1.269
		c0.25,0,0.46,0.184,0.495,0.43l0.09,0.639c0.005,0.177,0.008,0.283,0.016,0.39c0.019,0.275-0.189,0.514-0.464,0.534
		c-0.012,0.001-0.023,0.001-0.035,0.001c-0.26,0-0.48-0.201-0.499-0.465C20.004,9.408,20,9.278,20,9.147l-0.021-0.14h-1.261
		c-0.244,0-0.453-0.177-0.493-0.417L18.06,7.605c-0.045-0.272,0.138-0.53,0.411-0.576C18.742,6.981,19,7.166,19.046,7.439z M3,9.147
		V8.508c0-0.276,0.224-0.5,0.5-0.5h1.291l0.13-0.585c0.06-0.269,0.33-0.434,0.597-0.38c0.27,0.06,0.439,0.327,0.38,0.596L5.68,8.616
		C5.629,8.844,5.426,9.007,5.192,9.007H4v0.14C4,9.28,3.995,9.411,3.986,9.542c-0.019,0.264-0.238,0.466-0.499,0.466
		c-0.012,0-0.023,0-0.035-0.001c-0.275-0.02-0.483-0.258-0.464-0.533C2.996,9.365,3,9.256,3,9.147z M2.492,11.726
		c-0.07-0.141-0.07-0.306,0-0.446c0.135-0.269,0.245-0.553,0.328-0.844c0.075-0.266,0.352-0.42,0.617-0.345
		c0.266,0.076,0.42,0.352,0.345,0.618c-0.077,0.27-0.174,0.537-0.289,0.795c0.115,0.258,0.211,0.523,0.288,0.792
		c0.075,0.265-0.079,0.542-0.345,0.618c-0.045,0.013-0.091,0.019-0.137,0.019c-0.218,0-0.418-0.143-0.48-0.363
		C2.736,12.279,2.627,11.996,2.492,11.726z M5,15.504v-0.5H4.5h-1c-0.276,0-0.5-0.224-0.5-0.5v-0.639
		c0-0.109-0.004-0.219-0.012-0.328c-0.019-0.275,0.189-0.513,0.464-0.533c0.271-0.021,0.514,0.189,0.534,0.465
		C3.995,13.6,4,13.733,4,13.865v0.14h0.5h1c0.276,0,0.5,0.224,0.5,0.5v1c0,0.276-0.224,0.5-0.5,0.5S5,15.78,5,15.504z M6.59,19.288
		c-0.09,0.067-0.194,0.1-0.298,0.1c-0.152,0-0.303-0.069-0.401-0.201c-0.397-0.533-0.675-1.157-0.804-1.806
		c-0.054-0.271,0.122-0.534,0.393-0.588c0.271-0.058,0.534,0.122,0.587,0.392c0.1,0.505,0.316,0.99,0.625,1.404
		C6.857,18.811,6.812,19.123,6.59,19.288z M6.262,6.188C6.184,6.384,5.996,6.502,5.798,6.502c-0.063,0-0.125-0.012-0.187-0.036
		c-0.256-0.103-0.38-0.394-0.277-0.65c0.224-0.554,0.55-1.051,0.971-1.475c0.194-0.196,0.51-0.198,0.707-0.004
		c0.196,0.194,0.197,0.51,0.003,0.707C6.689,5.373,6.436,5.758,6.262,6.188z M9.319,20.998c-0.008,0-0.015,0-0.023-0.001
		c-0.672-0.029-1.313-0.205-1.907-0.521c-0.244-0.13-0.336-0.432-0.206-0.676c0.13-0.244,0.432-0.336,0.677-0.206
		c0.461,0.246,0.959,0.383,1.481,0.406c0.276,0.012,0.489,0.245,0.477,0.521C9.806,20.789,9.584,20.998,9.319,20.998z M9.5,4.01
		c-0.004,0-0.005,0-0.007,0c-0.463,0-0.914,0.09-1.339,0.266C8.09,4.303,8.025,4.314,7.961,4.314c-0.196,0-0.382-0.116-0.462-0.308
		C7.394,3.751,7.515,3.459,7.77,3.353C8.318,3.125,8.897,3.01,9.493,3.01c0.002,0,0.005,0,0.008,0C9.777,3.011,10,3.235,10,3.511
		C10,3.786,9.776,4.01,9.5,4.01z M13.067,21.182c-0.291,0.082-0.574,0.191-0.842,0.325c-0.07,0.035-0.147,0.053-0.223,0.053
		s-0.152-0.018-0.223-0.052c-0.268-0.134-0.552-0.243-0.842-0.325c-0.266-0.076-0.42-0.352-0.345-0.618
		c0.075-0.265,0.354-0.421,0.617-0.345c0.271,0.077,0.536,0.173,0.792,0.287c0.257-0.114,0.522-0.211,0.793-0.288
		c0.264-0.073,0.542,0.079,0.617,0.345C13.487,20.83,13.333,21.106,13.067,21.182z M13.412,3.448
		c-0.063,0.22-0.263,0.363-0.48,0.363c-0.045,0-0.091-0.006-0.137-0.019C12.524,3.715,12.258,3.618,12,3.503
		c-0.259,0.116-0.525,0.213-0.794,0.288c-0.266,0.074-0.542-0.08-0.617-0.347c-0.075-0.265,0.081-0.542,0.346-0.616
		c0.286-0.08,0.569-0.189,0.841-0.325c0.141-0.07,0.306-0.07,0.446,0c0.271,0.135,0.554,0.245,0.843,0.326
		C13.333,2.906,13.487,3.182,13.412,3.448z M13.995,3.51c0-0.276,0.218-0.5,0.495-0.5H14.5c0.593,0,1.17,0.113,1.715,0.337
		c0.256,0.105,0.378,0.397,0.273,0.652c-0.079,0.193-0.266,0.31-0.462,0.31c-0.063,0-0.127-0.012-0.189-0.037
		C15.412,4.098,14.962,4.01,14.5,4.01C14.224,4.01,13.995,3.786,13.995,3.51z M16.625,20.468c-0.593,0.318-1.234,0.496-1.905,0.528
		c-0.008,0.001-0.016,0.001-0.024,0.001c-0.265,0-0.486-0.208-0.499-0.475c-0.013-0.276,0.2-0.51,0.476-0.523
		c0.521-0.025,1.019-0.164,1.479-0.411c0.242-0.129,0.546-0.04,0.677,0.204C16.96,20.034,16.869,20.337,16.625,20.468z
		 M16.975,4.324c0.196-0.194,0.512-0.193,0.707,0.001c0.421,0.423,0.749,0.916,0.975,1.468c0.104,0.256-0.018,0.548-0.273,0.652
		c-0.062,0.025-0.126,0.037-0.189,0.037c-0.197,0-0.383-0.117-0.463-0.31c-0.176-0.429-0.43-0.813-0.757-1.14
		C16.779,4.836,16.779,4.519,16.975,4.324z M18.119,19.175c-0.098,0.133-0.25,0.203-0.403,0.203c-0.103,0-0.207-0.032-0.296-0.098
		c-0.222-0.164-0.27-0.477-0.105-0.699c0.312-0.423,0.521-0.895,0.621-1.406c0.052-0.27,0.315-0.446,0.586-0.395
		c0.271,0.054,0.448,0.316,0.395,0.587C18.788,18.024,18.52,18.633,18.119,19.175z M21,13.865v0.639c0,0.276-0.224,0.5-0.5,0.5h-1
		H19v0.5c0,0.276-0.224,0.5-0.5,0.5s-0.5-0.224-0.5-0.5v-1c0-0.276,0.224-0.5,0.5-0.5h1H20v-0.14c0-0.133,0.005-0.265,0.014-0.395
		c0.02-0.275,0.256-0.485,0.534-0.465c0.275,0.02,0.483,0.258,0.464,0.533C21.004,13.648,21,13.756,21,13.865z M21.507,11.732
		c-0.136,0.272-0.246,0.556-0.328,0.845c-0.063,0.22-0.263,0.363-0.48,0.363c-0.045,0-0.091-0.006-0.137-0.019
		c-0.266-0.076-0.42-0.352-0.345-0.618c0.076-0.269,0.173-0.536,0.29-0.795c-0.115-0.257-0.211-0.523-0.288-0.793
		c-0.075-0.265,0.079-0.542,0.345-0.618c0.262-0.073,0.542,0.079,0.617,0.345c0.082,0.29,0.192,0.574,0.326,0.843
		C21.578,11.426,21.578,11.592,21.507,11.732z"/>
</g>
</svg>
