<?xml version="1.0" encoding="iso-8859-1"?>
<!-- Generator: Adobe Illustrator 19.2.1, SVG Export Plug-In . SVG Version: 6.00 Build 0)  -->
<svg version="1.1" xmlns="http://www.w3.org/2000/svg" xmlns:xlink="http://www.w3.org/1999/xlink" x="0px" y="0px"
	 viewBox="0 0 30 30" style="enable-background:new 0 0 30 30;" xml:space="preserve">
<g id="Photo_frame">
</g>
<g id="Photo_frame_2">
</g>
<g id="Photo_frame_3">
</g>
<g id="Photo_frame__4">
</g>
<g id="Photo_frame_5">
</g>
<g id="Photo_frame_6">
</g>
<g id="Photo_frame_7">
</g>
<g id="Round_Frame_1">
</g>
<g id="Rectangle_Frame_1">
</g>
<g id="Square_Frame_1">
</g>
<g id="Rectangle_Frame_2">
</g>
<g id="Oval_Frame_1">
</g>
<g id="Round_Frame_2">
</g>
<g id="Rectangle_Frame_3">
</g>
<g id="Rectangle_Frame_4">
</g>
<g id="Rectangle_Frame_5">
</g>
<g id="Square_Frame_2">
</g>
<g id="Rectangle_Frame_6">
</g>
<g id="Rectangle_Frame_7">
</g>
<g id="Oval_Frame_2">
</g>
<g id="Round_Frame_3">
</g>
<g id="Rectangle_Frame_8">
</g>
<g id="Square_Frame_3">
</g>
<g id="Rectangle_Frame_9">
</g>
<g id="Rectangle_Frame_10">
</g>
<g id="Square_Frame_4">
</g>
<g id="Rectangle_Frame_11">
</g>
<g id="Rectangle_Frame_12">
</g>
<g id="Square_Frame_5">
</g>
<g id="Rectangle_Frame_13">
</g>
<g id="Round_Frame">
</g>
<g id="Frame_2">
</g>
<g id="Frame_1">
</g>
<g id="Frame_3">
</g>
<g id="Frame_4">
</g>
<g id="Frame_5">
</g>
<g id="Frame_6">
</g>
<g id="Frame_7">
</g>
<g id="Frame_8">
</g>
<g id="Frame_9">
</g>
<g id="Frame_10">
</g>
<g id="Frame_11">
</g>
<g id="Frame_12">
</g>
<g id="Frame_13">
</g>
<g id="Frame_14">
</g>
<g id="Frame_15">
</g>
<g id="Frame_16">
</g>
<g id="Frame_17">
</g>
<g id="Frame_18">
</g>
<g id="Frame_19">
</g>
<g id="Frame_20">
</g>
<g id="Frame_21">
</g>
<g id="Frame_22">
</g>
<g id="Frame_23">
</g>
<g id="Frame_24">
</g>
<g id="Frame_25">
</g>
<g id="Frame_26">
</g>
<g id="Frame_27">
</g>
<g id="Frame_28">
</g>
<g id="Frame_29">
</g>
<g id="Frame_30">
</g>
<g id="Frame_Hole_1">
</g>
<g id="Frame_Hole_2">
</g>
<g id="Frame_Hole_3">
</g>
<g id="Frame_Hole_4">
</g>
<g id="Frame_31">
</g>
<g id="Frame_32">
</g>
<g id="Frame_33">
</g>
<g id="Frame_34">
</g>
<g id="Frame_35">
</g>
<g id="Dashed_Frame_1">
</g>
<g id="Dashed_Frame_2">
</g>
<g id="Dashed_Frame_3">
</g>
<g id="Dashed_Frame_4">
</g>
<g id="Dashed_Frame_5">
</g>
<g id="Dashed_Frame_6">
</g>
<g id="Dashed_Frame_7">
</g>
<g id="Dashed_Frame_8">
</g>
<g id="Dashed_Frame_9">
</g>
<g id="Dashed_Frame_10">
</g>
<g id="Dashed_Frame_11">
</g>
<g id="Dashed_Frame_12">
</g>
<g id="Dashed_Frame_13">
</g>
<g id="Dashed_Frame_14">
</g>
<g id="Dashed_Frame_15">
</g>
<g id="Dashed_Frame_16">
</g>
<g id="Dashed_Frame_17">
</g>
<g id="Dashed_Frame_18">
	<path d="M29.979,21.773c-0.014-0.044-1.282-4.432-1.282-6.773c0-2.345,1.271-6.729,1.284-6.772c0.044-0.151-0.01-0.314-0.104-0.44
		c-0.095-0.126-0.267-0.2-0.424-0.2c-1.11,0-2.014-0.903-2.014-2.014V5.166c0-0.152-0.069-0.296-0.188-0.391
		c-0.12-0.095-0.278-0.131-0.423-0.097C26.756,4.695,19.488,6.331,15,6.331S3.243,4.695,3.17,4.678
		C3.021,4.644,2.866,4.681,2.748,4.775C2.629,4.87,2.56,5.014,2.56,5.166v0.408c0,1.11-0.903,2.014-2.06,2.014
		c-0.157,0-0.306,0.074-0.4,0.2c-0.095,0.125-0.124,0.289-0.08,0.44C0.033,8.271,1.303,12.656,1.303,15
		c0,2.221-1.147,6.301-1.278,6.759c-0.043,0.15-0.018,0.33,0.077,0.455c0.094,0.126,0.242,0.199,0.399,0.199
		c1.135,0,2.059,0.924,2.059,2.059v0.362c0,0.142,0.06,0.277,0.166,0.372c0.092,0.083,0.211,0.128,0.334,0.128
		c0.018,0,0.036-0.001,0.053-0.003c0.124-0.013,0.517-0.089,1.103-0.204C6.428,24.69,11.609,23.67,15,23.67
		c3.391,0,8.573,1.021,10.786,1.457c0.585,0.115,0.978,0.191,1.101,0.204c0.149,0.017,0.283-0.03,0.388-0.125
		c0.105-0.095,0.166-0.23,0.166-0.372v-0.362c0-1.135,0.924-2.059,2.059-2.059c0.157,0,0.306-0.074,0.4-0.2
		C29.992,22.087,30.022,21.925,29.979,21.773z M4.21,9.676C4.663,9.348,5.051,8.92,5.333,8.44C5.441,8.257,5.653,8.16,5.86,8.203
		c0.303,0.059,0.629,0.12,0.975,0.184c0.271,0.049,0.452,0.31,0.402,0.582C7.187,9.24,6.928,9.423,6.655,9.37
		C6.43,9.329,6.211,9.289,6.003,9.249C5.74,9.631,5.421,9.98,5.063,10.278c0.05,0.217,0.1,0.443,0.149,0.674
		c0.058,0.27-0.114,0.536-0.384,0.593c-0.035,0.008-0.07,0.011-0.105,0.011c-0.231,0-0.438-0.161-0.488-0.396
		C4.163,10.825,4.09,10.5,4.018,10.197C3.971,10,4.047,9.795,4.21,9.676z M5.252,14.694c-0.013,0.001-0.025,0.001-0.038,0.001
		c-0.259,0-0.478-0.2-0.498-0.462c-0.035-0.457-0.099-0.973-0.19-1.534c-0.044-0.272,0.141-0.53,0.413-0.574
		c0.271-0.04,0.53,0.141,0.574,0.413c0.096,0.589,0.164,1.134,0.2,1.62C5.734,14.433,5.528,14.673,5.252,14.694z M5.712,15.822
		c-0.037,0.479-0.104,1.024-0.201,1.619c-0.04,0.245-0.252,0.42-0.493,0.42c-0.026,0-0.054-0.002-0.081-0.007
		C4.665,17.81,4.48,17.553,4.524,17.28c0.092-0.567,0.157-1.084,0.191-1.536c0.021-0.275,0.256-0.488,0.537-0.46
		C5.527,15.306,5.733,15.546,5.712,15.822z M6.838,21.614l-0.896,0.167c-0.035,0.007-0.072,0.01-0.11,0.01
		c-0.19,0-0.408-0.081-0.497-0.233c-0.289-0.494-0.67-0.918-1.133-1.259c-0.162-0.119-0.236-0.323-0.19-0.519
		c0.073-0.306,0.146-0.63,0.218-0.964c0.057-0.27,0.323-0.438,0.593-0.385c0.27,0.058,0.442,0.324,0.384,0.594
		c-0.049,0.23-0.1,0.456-0.15,0.675c0.365,0.307,0.683,0.658,0.95,1.052l0.649-0.122c0.274-0.044,0.532,0.131,0.582,0.402
		C7.29,21.304,7.11,21.564,6.838,21.614z M8.643,8.696C9.229,8.79,9.84,8.881,10.458,8.963c0.273,0.036,0.466,0.288,0.43,0.562
		c-0.033,0.251-0.248,0.434-0.495,0.434c-0.022,0-0.044-0.001-0.066-0.004C9.7,9.871,9.08,9.779,8.485,9.684
		C8.212,9.64,8.026,9.383,8.07,9.111C8.114,8.838,8.368,8.65,8.643,8.696z M10.47,21.023c-0.617,0.085-1.227,0.178-1.814,0.274
		c-0.028,0.005-0.055,0.007-0.082,0.007c-0.24,0-0.452-0.174-0.493-0.419c-0.045-0.272,0.139-0.529,0.412-0.574
		c0.596-0.099,1.216-0.193,1.841-0.278c0.27-0.036,0.526,0.153,0.563,0.428C10.935,20.734,10.743,20.986,10.47,21.023z
		 M12.276,9.172c0.621,0.06,1.232,0.104,1.816,0.128c0.276,0.011,0.49,0.244,0.479,0.52c-0.011,0.269-0.232,0.479-0.499,0.479
		c-0.007,0-0.014,0-0.021,0c-0.602-0.025-1.231-0.071-1.871-0.132c-0.275-0.026-0.476-0.271-0.45-0.545
		C11.757,9.346,12.006,9.141,12.276,9.172z M14.102,20.668c-0.581,0.026-1.191,0.073-1.814,0.137
		c-0.017,0.002-0.035,0.003-0.051,0.003c-0.253,0-0.471-0.191-0.497-0.449c-0.028-0.274,0.172-0.521,0.447-0.548
		c0.643-0.065,1.273-0.114,1.871-0.141c0.268-0.03,0.509,0.2,0.522,0.477C14.591,20.423,14.378,20.656,14.102,20.668z M23.166,8.386
		c0.346-0.063,0.671-0.125,0.975-0.183c0.204-0.043,0.418,0.055,0.525,0.237c0.288,0.49,0.667,0.908,1.125,1.242
		c0.163,0.119,0.239,0.324,0.192,0.521c-0.072,0.303-0.146,0.627-0.218,0.963c-0.05,0.235-0.258,0.396-0.488,0.396
		c-0.035,0-0.069-0.003-0.104-0.011c-0.271-0.058-0.443-0.323-0.386-0.593c0.049-0.231,0.1-0.457,0.15-0.674
		c-0.361-0.301-0.676-0.647-0.941-1.035c-0.209,0.04-0.426,0.081-0.652,0.122c-0.267,0.045-0.531-0.131-0.581-0.403
		C22.714,8.696,22.894,8.436,23.166,8.386z M24.749,15.286c0.271-0.021,0.517,0.184,0.537,0.459
		c0.038,0.489,0.106,1.009,0.191,1.535c0.045,0.272-0.141,0.529-0.413,0.573c-0.026,0.005-0.054,0.007-0.081,0.007
		c-0.24,0-0.452-0.174-0.492-0.42c-0.096-0.587-0.164-1.131-0.201-1.617C24.269,15.548,24.474,15.308,24.749,15.286z M24.288,14.159
		c0.037-0.482,0.104-1.026,0.2-1.616c0.043-0.274,0.303-0.457,0.573-0.414c0.272,0.044,0.458,0.301,0.413,0.573
		c-0.084,0.525-0.152,1.046-0.19,1.535c-0.02,0.262-0.239,0.461-0.497,0.461c-0.014,0-0.026,0-0.04-0.001
		C24.472,14.675,24.267,14.435,24.288,14.159z M15.899,9.301c0.583-0.023,1.194-0.068,1.815-0.128
		c0.277-0.028,0.519,0.174,0.546,0.45c0.026,0.275-0.176,0.519-0.45,0.545c-0.641,0.062-1.27,0.107-1.871,0.132
		c-0.007,0-0.014,0-0.021,0c-0.267,0-0.488-0.211-0.499-0.48C15.409,9.545,15.624,9.313,15.899,9.301z M17.772,20.808
		c-0.018,0-0.034-0.001-0.052-0.003c-0.623-0.063-1.234-0.111-1.813-0.136c-0.276-0.013-0.49-0.246-0.478-0.521
		c0.012-0.275,0.25-0.477,0.521-0.479c0.599,0.026,1.229,0.076,1.872,0.142c0.274,0.027,0.475,0.273,0.446,0.548
		C18.243,20.616,18.025,20.808,17.772,20.808z M19.534,8.964c0.617-0.082,1.229-0.173,1.814-0.266
		c0.274-0.048,0.529,0.142,0.573,0.415c0.043,0.272-0.143,0.529-0.415,0.572c-0.596,0.095-1.215,0.187-1.842,0.27
		c-0.022,0.003-0.044,0.004-0.066,0.004c-0.246,0-0.461-0.183-0.495-0.434C19.067,9.252,19.26,9,19.534,8.964z M21.435,21.306
		c-0.027,0-0.055-0.002-0.082-0.007c-0.588-0.096-1.198-0.189-1.814-0.275c-0.273-0.038-0.465-0.29-0.427-0.563
		c0.037-0.274,0.298-0.457,0.563-0.427c0.624,0.086,1.244,0.182,1.84,0.279c0.272,0.044,0.457,0.301,0.412,0.574
		C21.887,21.132,21.675,21.306,21.435,21.306z M25.797,20.3c-0.462,0.342-0.843,0.765-1.132,1.259
		c-0.091,0.154-0.256,0.247-0.432,0.247c-0.031,0-0.063-0.003-0.093-0.009l-0.978-0.183c-0.271-0.05-0.451-0.311-0.402-0.582
		c0.049-0.272,0.315-0.445,0.582-0.402l0.649,0.122c0.267-0.393,0.584-0.744,0.948-1.05c-0.05-0.218-0.101-0.443-0.15-0.675
		c-0.058-0.271,0.114-0.536,0.384-0.595c0.282-0.054,0.536,0.115,0.595,0.384c0.072,0.337,0.146,0.662,0.218,0.965
		C26.033,19.977,25.958,20.181,25.797,20.3z"/>
</g>
<g id="Dashed_Frame_19">
</g>
<g id="Dashed_Frame_20">
</g>
<g id="Dashed_Frame_25">
</g>
<g id="Dashed_Frame_26">
</g>
<g id="Dashed_Frame_27">
</g>
<g id="Dashed_Frame_28">
</g>
<g id="Dashed_Frame_29">
</g>
<g id="Dashed_Frame_30">
</g>
<g id="Dashed_Frame_31">
</g>
<g id="Dashed_Frame_32">
</g>
<g id="Dashed_Frame_33">
</g>
<g id="Dashed_Frame_35">
</g>
</svg>
