<?xml version="1.0" encoding="iso-8859-1"?>
<!-- Generator: Adobe Illustrator 19.2.1, SVG Export Plug-In . SVG Version: 6.00 Build 0)  -->
<svg version="1.1" xmlns="http://www.w3.org/2000/svg" xmlns:xlink="http://www.w3.org/1999/xlink" x="0px" y="0px"
	 viewBox="0 0 24 24" style="enable-background:new 0 0 24 24;" xml:space="preserve">
<g id="Photo_frame">
</g>
<g id="Photo_frame_2">
</g>
<g id="Photo_frame_3">
</g>
<g id="Photo_frame__4">
</g>
<g id="Photo_frame_5">
</g>
<g id="Photo_frame_6">
</g>
<g id="Photo_frame_7">
</g>
<g id="Round_Frame_1">
</g>
<g id="Rectangle_Frame_1">
</g>
<g id="Square_Frame_1">
</g>
<g id="Rectangle_Frame_2">
</g>
<g id="Oval_Frame_1">
</g>
<g id="Round_Frame_2">
</g>
<g id="Rectangle_Frame_3">
</g>
<g id="Rectangle_Frame_4">
</g>
<g id="Rectangle_Frame_5">
</g>
<g id="Square_Frame_2">
</g>
<g id="Rectangle_Frame_6">
</g>
<g id="Rectangle_Frame_7">
</g>
<g id="Oval_Frame_2">
</g>
<g id="Round_Frame_3">
</g>
<g id="Rectangle_Frame_8">
</g>
<g id="Square_Frame_3">
</g>
<g id="Rectangle_Frame_9">
</g>
<g id="Rectangle_Frame_10">
</g>
<g id="Square_Frame_4">
</g>
<g id="Rectangle_Frame_11">
</g>
<g id="Rectangle_Frame_12">
</g>
<g id="Square_Frame_5">
</g>
<g id="Rectangle_Frame_13">
</g>
<g id="Round_Frame">
</g>
<g id="Frame_2">
</g>
<g id="Frame_1">
</g>
<g id="Frame_3">
</g>
<g id="Frame_4">
</g>
<g id="Frame_5">
</g>
<g id="Frame_6">
</g>
<g id="Frame_7">
</g>
<g id="Frame_8">
</g>
<g id="Frame_9">
</g>
<g id="Frame_10">
</g>
<g id="Frame_11">
</g>
<g id="Frame_12">
</g>
<g id="Frame_13">
</g>
<g id="Frame_14">
</g>
<g id="Frame_15">
</g>
<g id="Frame_16">
</g>
<g id="Frame_17">
</g>
<g id="Frame_18">
</g>
<g id="Frame_19">
</g>
<g id="Frame_20">
</g>
<g id="Frame_21">
</g>
<g id="Frame_22">
</g>
<g id="Frame_23">
</g>
<g id="Frame_24">
</g>
<g id="Frame_25">
</g>
<g id="Frame_26">
</g>
<g id="Frame_27">
</g>
<g id="Frame_28">
</g>
<g id="Frame_29">
</g>
<g id="Frame_30">
</g>
<g id="Frame_Hole_1">
</g>
<g id="Frame_Hole_2">
</g>
<g id="Frame_Hole_3">
</g>
<g id="Frame_Hole_4">
</g>
<g id="Frame_31">
</g>
<g id="Frame_32">
</g>
<g id="Frame_33">
</g>
<g id="Frame_34">
</g>
<g id="Frame_35">
</g>
<g id="Dashed_Frame_1">
</g>
<g id="Dashed_Frame_2">
</g>
<g id="Dashed_Frame_3">
</g>
<g id="Dashed_Frame_4">
</g>
<g id="Dashed_Frame_5">
	<path d="M23.354,11.646C22.193,10.485,21.5,9.123,21.5,8V7c0-1.379-1.122-2.5-2.5-2.5h-3c-1.123,0-2.486-0.693-3.646-1.854
		c-0.195-0.195-0.512-0.195-0.707,0C10.486,3.807,9.123,4.5,8,4.5H4.999C3.621,4.5,2.5,5.621,2.5,7v1
		c0,1.123-0.693,2.485-1.854,3.646c-0.195,0.195-0.195,0.512,0,0.707C1.807,13.515,2.5,14.877,2.5,16v1c0,1.379,1.121,2.5,2.499,2.5
		H8c1.123,0,2.486,0.693,3.646,1.854C11.744,21.451,11.872,21.5,12,21.5s0.256-0.049,0.354-0.146C13.514,20.193,14.877,19.5,16,19.5
		h3.001c1.378,0,2.499-1.121,2.499-2.5v-1c0-1.123,0.693-2.485,1.854-3.646C23.549,12.158,23.549,11.842,23.354,11.646z
		 M19.624,9.104c0.056,0.254,0.13,0.509,0.22,0.765c0.092,0.26-0.044,0.546-0.304,0.639c-0.055,0.02-0.111,0.028-0.167,0.028
		c-0.206,0-0.398-0.128-0.471-0.333c-0.105-0.295-0.19-0.591-0.254-0.886c-0.059-0.27,0.112-0.536,0.381-0.595
		C19.295,8.665,19.565,8.834,19.624,9.104z M18.5,6.5H19c0.276,0,0.5,0.224,0.5,0.5v0.5C19.5,7.776,19.276,8,19,8
		s-0.5-0.224-0.5-0.5C18.224,7.5,18,7.276,18,7S18.224,6.5,18.5,6.5z M4.157,9.866c0.091-0.254,0.165-0.509,0.219-0.763
		c0.058-0.271,0.32-0.437,0.594-0.385c0.27,0.059,0.442,0.324,0.384,0.594c-0.063,0.297-0.149,0.593-0.254,0.89
		c-0.073,0.204-0.266,0.332-0.471,0.332c-0.056,0-0.112-0.009-0.168-0.029C4.2,10.412,4.064,10.126,4.157,9.866z M3.452,12.683
		c-0.083-0.133-0.169-0.266-0.261-0.397c-0.119-0.172-0.119-0.398,0-0.57c0.091-0.132,0.178-0.265,0.261-0.397
		c0.146-0.232,0.454-0.306,0.688-0.16c0.234,0.146,0.306,0.454,0.16,0.689C4.269,11.897,4.237,11.949,4.204,12
		c0.033,0.051,0.065,0.103,0.097,0.153c0.146,0.235,0.074,0.543-0.16,0.689c-0.082,0.051-0.173,0.075-0.264,0.075
		C3.71,12.918,3.547,12.834,3.452,12.683z M4.156,14.131c-0.092-0.26,0.044-0.546,0.304-0.639c0.258-0.091,0.545,0.044,0.638,0.305
		c0.105,0.295,0.19,0.591,0.254,0.886c0.059,0.27-0.112,0.536-0.381,0.595c-0.036,0.008-0.072,0.012-0.107,0.012
		c-0.23,0-0.437-0.159-0.488-0.394C4.321,14.642,4.247,14.387,4.156,14.131z M5.499,17.5h-0.5c-0.133,0-0.26-0.053-0.354-0.146
		c-0.094-0.094-0.146-0.222-0.146-0.354l0-0.5C4.5,16.224,4.724,16,5,16h0c0.276,0,0.5,0.224,0.5,0.5c0.276,0,0.5,0.224,0.5,0.5
		S5.775,17.5,5.499,17.5z M5.5,7.5C5.5,7.776,5.276,8,5,8S4.5,7.776,4.5,7.5V7c0-0.276,0.224-0.5,0.5-0.5h0.5C5.776,6.5,6,6.724,6,7
		S5.776,7.5,5.5,7.5z M9.753,17.259c-0.053,0.232-0.259,0.389-0.487,0.389c-0.037,0-0.075-0.004-0.112-0.013
		c-0.386-0.089-0.769-0.134-1.138-0.135c-0.276-0.001-0.5-0.225-0.499-0.501s0.225-0.499,0.5-0.499c0,0,0.001,0,0.001,0
		c0.444,0.001,0.901,0.055,1.359,0.16C9.646,16.722,9.815,16.99,9.753,17.259z M9.377,7.34C8.919,7.444,8.462,7.498,8.02,7.5
		c-0.001,0-0.001,0-0.002,0c-0.275,0-0.499-0.223-0.5-0.498S7.739,6.501,8.015,6.5c0.37-0.002,0.753-0.047,1.14-0.135
		c0.27-0.064,0.537,0.107,0.599,0.377C9.815,7.011,9.646,7.279,9.377,7.34z M12.681,18.549c-0.132,0.081-0.264,0.168-0.395,0.26
		c-0.086,0.06-0.187,0.09-0.287,0.09s-0.201-0.03-0.287-0.09c-0.13-0.092-0.262-0.179-0.395-0.26
		c-0.235-0.146-0.308-0.454-0.163-0.688c0.145-0.235,0.454-0.306,0.688-0.163c0.052,0.032,0.104,0.065,0.156,0.099
		c0.052-0.033,0.104-0.066,0.156-0.099c0.233-0.143,0.542-0.072,0.688,0.163C12.989,18.095,12.916,18.403,12.681,18.549z
		 M12.844,6.14c-0.095,0.153-0.258,0.237-0.426,0.237c-0.09,0-0.181-0.024-0.262-0.074C12.104,6.271,12.052,6.237,12,6.204
		c-0.052,0.033-0.104,0.066-0.156,0.099c-0.234,0.144-0.543,0.072-0.688-0.163c-0.145-0.234-0.072-0.543,0.163-0.688
		c0.132-0.081,0.264-0.168,0.395-0.26c0.172-0.119,0.401-0.119,0.573,0c0.13,0.092,0.262,0.179,0.395,0.26
		C12.916,5.597,12.989,5.905,12.844,6.14z M15.985,17.5c-0.37,0.002-0.753,0.047-1.14,0.135c-0.038,0.009-0.075,0.013-0.111,0.013
		c-0.228,0-0.435-0.157-0.487-0.39c-0.061-0.269,0.108-0.537,0.377-0.598c0.458-0.104,0.915-0.158,1.357-0.16
		c0.001,0,0.001,0,0.002,0c0.275,0,0.499,0.223,0.5,0.498S16.261,17.499,15.985,17.5z M15.982,7.5L15.982,7.5
		c-0.445-0.001-0.902-0.055-1.36-0.16c-0.269-0.062-0.438-0.33-0.375-0.6s0.332-0.438,0.599-0.375
		c0.386,0.089,0.769,0.134,1.138,0.135c0.276,0.001,0.5,0.225,0.499,0.501S16.258,7.5,15.982,7.5z M19.5,17
		c0,0.276-0.224,0.5-0.5,0.5h-0.5c-0.276,0-0.5-0.224-0.5-0.5s0.224-0.5,0.5-0.5c0-0.276,0.224-0.5,0.5-0.5s0.5,0.224,0.5,0.5V17z
		 M19.843,14.134c-0.091,0.254-0.165,0.509-0.219,0.763c-0.05,0.235-0.258,0.396-0.488,0.396c-0.035,0-0.07-0.004-0.105-0.011
		c-0.27-0.059-0.442-0.324-0.384-0.594c0.063-0.297,0.149-0.593,0.254-0.89c0.093-0.26,0.377-0.399,0.639-0.303
		C19.8,13.588,19.936,13.874,19.843,14.134z M20.809,12.285c-0.091,0.132-0.178,0.265-0.261,0.397
		c-0.095,0.151-0.258,0.235-0.425,0.235c-0.09,0-0.182-0.024-0.264-0.075c-0.234-0.146-0.306-0.454-0.16-0.689
		c0.032-0.051,0.064-0.103,0.097-0.153c-0.033-0.051-0.065-0.103-0.097-0.153c-0.146-0.235-0.074-0.543,0.16-0.689
		c0.233-0.146,0.542-0.072,0.688,0.16c0.083,0.133,0.169,0.266,0.261,0.397C20.928,11.887,20.928,12.113,20.809,12.285z"/>
</g>
<g id="Dashed_Frame_6">
</g>
<g id="Dashed_Frame_7">
</g>
<g id="Dashed_Frame_8">
</g>
<g id="Dashed_Frame_9">
</g>
<g id="Dashed_Frame_10">
</g>
<g id="Dashed_Frame_11">
</g>
<g id="Dashed_Frame_12">
</g>
<g id="Dashed_Frame_13">
</g>
<g id="Dashed_Frame_14">
</g>
<g id="Dashed_Frame_15">
</g>
<g id="Dashed_Frame_16">
</g>
<g id="Dashed_Frame_17">
</g>
<g id="Dashed_Frame_18">
</g>
<g id="Dashed_Frame_19">
</g>
<g id="Dashed_Frame_20">
</g>
<g id="Dashed_Frame_25">
</g>
<g id="Dashed_Frame_26">
</g>
<g id="Dashed_Frame_27">
</g>
<g id="Dashed_Frame_28">
</g>
<g id="Dashed_Frame_29">
</g>
<g id="Dashed_Frame_30">
</g>
<g id="Dashed_Frame_31">
</g>
<g id="Dashed_Frame_32">
</g>
<g id="Dashed_Frame_33">
</g>
<g id="Dashed_Frame_35">
</g>
</svg>
