<?xml version="1.0" encoding="iso-8859-1"?>
<!-- Generator: Adobe Illustrator 19.2.1, SVG Export Plug-In . SVG Version: 6.00 Build 0)  -->
<svg version="1.1" xmlns="http://www.w3.org/2000/svg" xmlns:xlink="http://www.w3.org/1999/xlink" x="0px" y="0px"
	 viewBox="0 0 30 30" style="enable-background:new 0 0 30 30;" xml:space="preserve">
<g id="Dashed_Frame_21">
</g>
<g id="Dashed_Frame_22">
</g>
<g id="Dashed_Frame_23">
</g>
<g id="Dashed_Frame_24">
	<g>
		<g>
			<path d="M15,26.229c-2.325,0-4.41-0.392-6.547-1.23C8.199,24.974,8,24.761,8,24.5C8,22.103,5.674,20,3.021,20H1.761
				c-0.151,0-0.295-0.068-0.39-0.187c-0.972-1.209-1.316-3.325-1.316-4.77c0-1.545,0.479-3.156,1.387-4.66
				c0.089-0.149,0.25-0.24,0.424-0.242l1.414-0.011C5.838,10.108,8,8.028,8,5.587C8,5.383,8.124,5.155,8.313,5.08
				C10.518,4.195,12.643,3.783,15,3.783s4.482,0.412,6.687,1.297C21.876,5.155,22,5.339,22,5.543c0,2.484,2.162,4.565,4.722,4.587
				l1.521,0.011c0.174,0.001,0.334,0.093,0.424,0.242C29.552,11.85,30,13.403,30,15c0,1.597-0.448,3.15-1.333,4.616
				c-0.09,0.149-0.25,0.241-0.424,0.242l-1.522,0.011C24.162,19.892,22,21.973,22,24.413c0,0.204-0.124,0.431-0.313,0.507
				C19.465,25.813,17.34,26.229,15,26.229z M8.985,24.132c1.959,0.747,3.879,1.097,6.015,1.097c2.132,0,4-0.346,6.012-1.118
				c0.189-2.866,2.723-5.215,5.7-5.241l1.239-0.009C28.647,17.624,29,16.326,29,15c0-1.327-0.353-2.624-1.049-3.86l-1.238-0.009
				c-2.992-0.026-5.535-2.397-5.704-5.243C19.015,5.125,17.147,4.783,15,4.783c-2.148,0-4.016,0.342-6.012,1.106
				c-0.189,2.867-2.723,5.215-5.7,5.242L2.157,11.14c-0.722,1.277-1.103,2.622-1.103,3.904c0,1.519,0.388,3.096,0.96,3.957h1.007
				C6.072,19,8.764,21.358,8.985,24.132z M28.239,19h0.01H28.239z"/>
		</g>
		<g>
			<g>
				<path d="M11.922,23.222c-0.03,0-0.061-0.003-0.091-0.008c-0.515-0.094-1.022-0.21-1.508-0.347
					c-0.171-0.048-0.304-0.185-0.349-0.356c-0.115-0.45-0.278-0.89-0.484-1.309c-0.122-0.248-0.021-0.547,0.228-0.669
					s0.547-0.021,0.669,0.228c0.193,0.392,0.354,0.8,0.478,1.217c0.372,0.097,0.757,0.182,1.146,0.252
					c0.271,0.05,0.451,0.31,0.402,0.582C12.369,23.053,12.158,23.222,11.922,23.222z"/>
			</g>
			<g>
				<path d="M8.936,19.955c-0.142,0-0.282-0.06-0.381-0.176c-0.559-0.657-1.223-1.197-1.976-1.605
					c-0.243-0.132-0.333-0.435-0.201-0.678c0.133-0.243,0.436-0.331,0.678-0.201c0.861,0.467,1.622,1.085,2.261,1.836
					c0.179,0.211,0.153,0.526-0.057,0.705C9.165,19.916,9.05,19.955,8.936,19.955z"/>
			</g>
			<g>
				<path d="M5.11,17.569c-0.04,0-0.082-0.005-0.123-0.016c-0.447-0.113-0.912-0.181-1.382-0.2
					c-0.205-0.009-0.384-0.143-0.451-0.337c-0.182-0.525-0.294-1.064-0.332-1.599c-0.02-0.275,0.188-0.515,0.464-0.534
					c0.247-0.027,0.515,0.187,0.534,0.463c0.024,0.343,0.085,0.688,0.181,1.03c0.418,0.036,0.831,0.105,1.232,0.208
					c0.268,0.067,0.43,0.34,0.361,0.607C5.538,17.419,5.334,17.569,5.11,17.569z"/>
			</g>
			<g>
				<path d="M3.319,15.159c-0.012,0-0.023,0-0.034-0.001c-0.275-0.019-0.484-0.257-0.466-0.533c0.036-0.542,0.149-1.082,0.336-1.603
					c0.068-0.192,0.246-0.323,0.449-0.332c0.465-0.02,0.93-0.087,1.382-0.202c0.268-0.068,0.54,0.095,0.606,0.362
					c0.068,0.268-0.094,0.54-0.362,0.607c-0.404,0.102-0.817,0.172-1.233,0.208c-0.096,0.337-0.156,0.681-0.18,1.026
					C3.8,14.957,3.58,15.159,3.319,15.159z"/>
			</g>
			<g>
				<path d="M6.821,12.803c-0.177,0-0.348-0.094-0.438-0.261C6.25,12.3,6.34,11.996,6.582,11.864
					c0.758-0.414,1.426-0.959,1.985-1.622c0.179-0.211,0.494-0.236,0.704-0.059c0.211,0.178,0.238,0.494,0.06,0.705
					c-0.64,0.757-1.403,1.381-2.271,1.854C6.984,12.783,6.902,12.803,6.821,12.803z"/>
			</g>
			<g>
				<path d="M9.955,9.519c-0.073,0-0.148-0.016-0.219-0.05c-0.248-0.121-0.352-0.42-0.231-0.668c0.205-0.421,0.366-0.863,0.48-1.312
					c0.044-0.174,0.177-0.311,0.349-0.359c0.487-0.137,0.994-0.253,1.508-0.346c0.265-0.047,0.531,0.13,0.581,0.403
					c0.049,0.271-0.132,0.532-0.403,0.581c-0.388,0.07-0.771,0.154-1.144,0.251c-0.122,0.417-0.28,0.825-0.471,1.218
					C10.318,9.416,10.141,9.519,9.955,9.519z"/>
			</g>
			<g>
				<path d="M16.322,7.551c-0.014,0-0.026,0-0.04-0.001c-0.852-0.066-1.712-0.066-2.563,0c-0.269,0.017-0.517-0.184-0.537-0.46
					c-0.021-0.275,0.184-0.516,0.459-0.537c0.906-0.07,1.817-0.07,2.72,0c0.275,0.021,0.48,0.262,0.459,0.538
					C16.8,7.352,16.58,7.551,16.322,7.551z"/>
			</g>
			<g>
				<path d="M20.053,9.521c-0.186,0-0.363-0.104-0.45-0.282c-0.19-0.393-0.348-0.801-0.471-1.217
					c-0.373-0.098-0.757-0.182-1.146-0.252c-0.271-0.05-0.451-0.31-0.402-0.582c0.05-0.273,0.313-0.452,0.582-0.403
					c0.514,0.094,1.021,0.21,1.508,0.348c0.172,0.049,0.305,0.185,0.349,0.358c0.114,0.449,0.276,0.891,0.48,1.313
					c0.12,0.249,0.017,0.547-0.232,0.668C20.2,9.505,20.126,9.521,20.053,9.521z"/>
			</g>
			<g>
				<path d="M23.177,12.799c-0.081,0-0.163-0.02-0.239-0.061c-0.866-0.473-1.628-1.097-2.267-1.855
					c-0.178-0.211-0.15-0.527,0.061-0.705c0.211-0.177,0.527-0.151,0.705,0.061c0.558,0.663,1.224,1.208,1.979,1.621
					c0.242,0.132,0.332,0.436,0.199,0.679C23.524,12.705,23.354,12.799,23.177,12.799z"/>
			</g>
			<g>
				<path d="M26.681,15.159c-0.261,0-0.48-0.202-0.498-0.466c-0.023-0.345-0.084-0.689-0.181-1.026
					c-0.415-0.037-0.829-0.106-1.232-0.208c-0.269-0.068-0.431-0.339-0.362-0.607c0.066-0.268,0.336-0.43,0.606-0.362
					c0.451,0.114,0.916,0.182,1.382,0.202c0.203,0.009,0.381,0.14,0.449,0.332c0.187,0.521,0.3,1.061,0.336,1.603
					c0.019,0.276-0.19,0.514-0.466,0.533C26.704,15.158,26.692,15.159,26.681,15.159z"/>
			</g>
			<g>
				<path d="M24.892,17.526c-0.224,0-0.427-0.15-0.484-0.377c-0.068-0.268,0.094-0.54,0.361-0.607
					c0.402-0.103,0.815-0.172,1.233-0.208c0.097-0.338,0.157-0.682,0.181-1.026c0.019-0.276,0.285-0.475,0.532-0.465
					c0.275,0.019,0.484,0.257,0.466,0.533c-0.036,0.542-0.149,1.082-0.336,1.604c-0.068,0.191-0.246,0.323-0.449,0.332
					c-0.469,0.02-0.934,0.087-1.381,0.2C24.974,17.521,24.932,17.526,24.892,17.526z"/>
			</g>
			<g>
				<path d="M21.051,19.936c-0.114,0-0.229-0.039-0.322-0.118c-0.211-0.178-0.238-0.493-0.06-0.704
					c0.64-0.758,1.403-1.382,2.271-1.854c0.242-0.133,0.546-0.045,0.678,0.199c0.133,0.242,0.043,0.546-0.199,0.678
					c-0.758,0.414-1.426,0.96-1.985,1.622C21.334,19.875,21.192,19.936,21.051,19.936z"/>
			</g>
			<g>
				<path d="M18.068,23.224c-0.236,0-0.447-0.169-0.491-0.41c-0.049-0.272,0.131-0.532,0.402-0.582
					c0.387-0.07,0.771-0.154,1.145-0.251c0.122-0.416,0.28-0.824,0.471-1.218c0.121-0.248,0.421-0.353,0.669-0.231
					s0.352,0.42,0.231,0.669c-0.205,0.421-0.366,0.862-0.48,1.312c-0.044,0.174-0.178,0.311-0.35,0.358
					c-0.488,0.136-0.994,0.252-1.506,0.346C18.129,23.221,18.099,23.224,18.068,23.224z"/>
			</g>
			<g>
				<path d="M15,23.5c-0.454,0-0.909-0.019-1.363-0.054c-0.275-0.021-0.48-0.262-0.459-0.537c0.021-0.275,0.271-0.499,0.537-0.459
					c0.852,0.066,1.713,0.064,2.566,0c0.27-0.019,0.516,0.187,0.537,0.461c0.021,0.275-0.186,0.516-0.461,0.537
					C15.906,23.482,15.452,23.5,15,23.5z"/>
			</g>
		</g>
	</g>
</g>
<g id="Dashed_Frame_34">
</g>
</svg>
