<?xml version="1.0" encoding="iso-8859-1"?>
<!-- Generator: Adobe Illustrator 19.2.1, SVG Export Plug-In . SVG Version: 6.00 Build 0)  -->
<svg version="1.1" xmlns="http://www.w3.org/2000/svg" xmlns:xlink="http://www.w3.org/1999/xlink" x="0px" y="0px"
	 viewBox="0 0 30 30" style="enable-background:new 0 0 30 30;" xml:space="preserve">
<g id="Dashed_Frame_21">
</g>
<g id="Dashed_Frame_22">
</g>
<g id="Dashed_Frame_23">
</g>
<g id="Dashed_Frame_24">
</g>
<g id="Dashed_Frame_34">
	<path d="M29.941,10.55c0.336-2.136-0.782-4.131-2.746-4.977V3.272c0-0.282-0.227-0.51-0.508-0.51h-6.261l-2.139-1.756
		c-1.944-1.385-4.524-1.338-6.586,0.133L9.584,2.762H3.315c-0.281,0-0.508,0.228-0.508,0.51v2.301
		c-1.965,0.846-3.084,2.844-2.748,4.965l0.416,3.392c0.094,0.592,0.075,1.239-0.065,2.145l-0.14,2.221
		c-0.378,2.393,0.591,4.619,2.537,5.881v2.551c0,0.282,0.227,0.51,0.508,0.51h6.26l2.139,1.756C12.657,29.665,13.747,30,14.856,30
		c1.18,0,2.381-0.38,3.445-1.138l2.116-1.624h6.271c0.281,0,0.508-0.228,0.508-0.51v-2.552c1.962-1.269,2.941-3.495,2.567-5.854
		l-0.237-2.272c-0.136-0.858-0.155-1.506-0.06-2.108L29.941,10.55z M2.856,11.492c-0.033-0.208-0.049-0.415-0.049-0.619
		c0-0.357,0.049-0.711,0.144-1.053c0.076-0.271,0.361-0.427,0.626-0.354c0.27,0.076,0.428,0.358,0.352,0.628
		c-0.07,0.252-0.106,0.514-0.106,0.778c0,0.152,0.012,0.305,0.036,0.46l0.077,0.488c0.044,0.278-0.145,0.54-0.422,0.584
		c-0.027,0.004-0.054,0.006-0.08,0.006c-0.246,0-0.461-0.179-0.501-0.43L2.856,11.492z M3.28,14.168l-0.039-0.247
		c-0.044-0.278,0.145-0.54,0.422-0.584c0.283-0.046,0.538,0.145,0.582,0.423l0.039,0.247c0.051,0.321,0.077,0.649,0.077,0.976
		c0,0.295-0.021,0.59-0.063,0.882c-0.036,0.254-0.254,0.438-0.503,0.438c-0.024,0-0.048-0.002-0.072-0.005
		c-0.278-0.04-0.471-0.298-0.431-0.577c0.035-0.244,0.053-0.491,0.053-0.738C3.344,14.711,3.323,14.436,3.28,14.168z M3.777,20.165
		c-0.048,0.014-0.097,0.021-0.145,0.021c-0.219,0-0.421-0.142-0.487-0.364c-0.138-0.465-0.209-0.948-0.209-1.435
		c0-0.24,0.017-0.483,0.053-0.727c0.04-0.279,0.295-0.47,0.576-0.432c0.277,0.041,0.47,0.3,0.43,0.578
		c-0.028,0.196-0.041,0.391-0.042,0.583c0,0.387,0.056,0.772,0.166,1.141C4.198,19.8,4.046,20.085,3.777,20.165z M6.364,25.198
		H5.347c-0.281,0-0.508-0.228-0.508-0.51v-1.02c0-0.114,0.044-0.213,0.107-0.298c-0.063-0.085-0.107-0.184-0.107-0.298v-0.761
		c-0.228-0.177-0.44-0.374-0.634-0.59c-0.188-0.209-0.171-0.532,0.037-0.72c0.208-0.19,0.528-0.172,0.718,0.037
		c0.201,0.224,0.428,0.423,0.674,0.594c0.138,0.095,0.22,0.252,0.22,0.42v1.02c0,0.114-0.044,0.213-0.107,0.298
		c0.063,0.085,0.107,0.184,0.107,0.298v0.51h0.508c0.281,0,0.508,0.228,0.508,0.51S6.644,25.198,6.364,25.198z M6.364,5.822H5.856
		v0.51c0,0.082-0.023,0.156-0.057,0.225c0.034,0.068,0.057,0.143,0.057,0.225V7.8c0,0.209-0.127,0.396-0.32,0.474
		C5.272,8.38,5.027,8.527,4.81,8.712C4.714,8.792,4.598,8.832,4.482,8.832c-0.144,0-0.288-0.061-0.389-0.18
		c-0.181-0.215-0.154-0.537,0.06-0.719c0.212-0.179,0.442-0.334,0.686-0.46V6.781c0-0.082,0.023-0.156,0.057-0.225
		C4.863,6.488,4.839,6.413,4.839,6.331v-1.02c0-0.282,0.227-0.51,0.508-0.51h1.016c0.281,0,0.508,0.228,0.508,0.51
		C6.872,5.593,6.644,5.822,6.364,5.822z M10.452,25.198H8.408c-0.281,0-0.508-0.228-0.508-0.51s0.227-0.51,0.508-0.51h2.044
		c0.281,0,0.508,0.228,0.508,0.51S10.733,25.198,10.452,25.198z M10.458,5.822H8.414c-0.281,0-0.508-0.228-0.508-0.51
		c0-0.282,0.227-0.51,0.508-0.51h2.044c0.281,0,0.508,0.228,0.508,0.51C10.966,5.593,10.739,5.822,10.458,5.822z M14.479,26.725
		c-0.059,0.23-0.265,0.382-0.491,0.382c-0.042,0-0.085-0.005-0.128-0.016c-0.547-0.142-1.061-0.382-1.526-0.715l-0.437-0.311
		c-0.229-0.163-0.282-0.482-0.12-0.711c0.163-0.23,0.479-0.282,0.709-0.122l0.438,0.312c0.364,0.261,0.765,0.448,1.191,0.559
		C14.386,26.175,14.549,26.453,14.479,26.725z M14.119,3.894c-0.428,0.11-0.83,0.298-1.196,0.559L12.49,4.762
		c-0.089,0.064-0.192,0.094-0.294,0.094c-0.159,0-0.316-0.075-0.415-0.215c-0.162-0.23-0.109-0.548,0.12-0.711l0.433-0.309
		c0.468-0.334,0.984-0.575,1.533-0.716c0.272-0.072,0.549,0.095,0.618,0.367C14.554,3.546,14.391,3.824,14.119,3.894z M23.638,4.802
		h1.016c0.281,0,0.508,0.228,0.508,0.51v1.02c0,0.082-0.023,0.156-0.057,0.225c0.034,0.069,0.057,0.143,0.057,0.225v0.693
		c0.244,0.126,0.473,0.28,0.686,0.459c0.214,0.182,0.242,0.503,0.061,0.719c-0.1,0.12-0.244,0.181-0.388,0.181
		c-0.116,0-0.232-0.039-0.327-0.12c-0.218-0.185-0.463-0.333-0.727-0.438c-0.193-0.077-0.32-0.265-0.32-0.474v-1.02
		c0-0.082,0.023-0.156,0.057-0.225c-0.034-0.069-0.057-0.143-0.057-0.225v-0.51h-0.508c-0.281,0-0.508-0.228-0.508-0.51
		C23.13,5.03,23.357,4.802,23.638,4.802z M26.707,15.723c0.04,0.279-0.153,0.538-0.431,0.578c-0.025,0.003-0.049,0.005-0.073,0.005
		c-0.248,0-0.465-0.183-0.502-0.437c-0.041-0.288-0.061-0.578-0.061-0.869c0-0.324,0.026-0.652,0.076-0.975l0.042-0.262
		c0.045-0.278,0.298-0.473,0.583-0.423c0.277,0.044,0.465,0.306,0.422,0.584l-0.042,0.262c-0.043,0.27-0.065,0.544-0.065,0.815
		C26.656,15.242,26.672,15.484,26.707,15.723z M18.101,26.067l-0.435,0.31c-0.467,0.333-0.981,0.574-1.529,0.715
		c-0.043,0.011-0.085,0.016-0.127,0.016c-0.226,0-0.433-0.152-0.492-0.382c-0.07-0.273,0.094-0.551,0.366-0.621
		c0.427-0.111,0.829-0.298,1.195-0.559l0.435-0.309c0.228-0.163,0.547-0.111,0.708,0.121C18.384,25.586,18.33,25.905,18.101,26.067z
		 M18.225,4.645c-0.098,0.14-0.255,0.215-0.414,0.215c-0.102,0-0.205-0.03-0.295-0.094l-0.439-0.313
		c-0.362-0.259-0.763-0.447-1.191-0.558c-0.271-0.071-0.435-0.349-0.364-0.621c0.07-0.273,0.35-0.439,0.619-0.365
		c0.548,0.142,1.061,0.382,1.525,0.714l0.439,0.313C18.334,4.098,18.388,4.416,18.225,4.645z M21.589,25.198h-2.044
		c-0.281,0-0.508-0.228-0.508-0.51s0.227-0.51,0.508-0.51h2.044c0.281,0,0.508,0.228,0.508,0.51S21.87,25.198,21.589,25.198z
		 M21.594,5.822H19.55c-0.281,0-0.508-0.228-0.508-0.51c0-0.282,0.227-0.51,0.508-0.51h2.044c0.281,0,0.508,0.228,0.508,0.51
		C22.102,5.593,21.875,5.822,21.594,5.822z M25.796,21.718c-0.194,0.217-0.406,0.415-0.633,0.591v0.761
		c0,0.114-0.044,0.214-0.107,0.299c0.063,0.085,0.107,0.185,0.107,0.299v1.02c0,0.282-0.227,0.51-0.508,0.51h-1.016
		c-0.281,0-0.508-0.228-0.508-0.51s0.227-0.51,0.508-0.51h0.508v-0.51c0-0.114,0.044-0.214,0.107-0.299
		c-0.063-0.085-0.107-0.185-0.107-0.299v-1.02c0-0.168,0.083-0.326,0.221-0.421c0.244-0.167,0.47-0.366,0.672-0.592
		c0.188-0.211,0.509-0.226,0.717-0.039C25.965,21.186,25.983,21.509,25.796,21.718z M26.854,19.823
		c-0.065,0.221-0.268,0.364-0.486,0.364c-0.049,0-0.097-0.007-0.146-0.022c-0.269-0.081-0.422-0.364-0.34-0.634
		c0.11-0.37,0.167-0.756,0.167-1.143c0-0.191-0.013-0.384-0.042-0.578c-0.042-0.279,0.149-0.538,0.427-0.58
		c0.276-0.038,0.537,0.149,0.578,0.428c0.037,0.245,0.054,0.488,0.054,0.729C27.065,18.874,26.994,19.358,26.854,19.823z
		 M27.146,11.492l-0.077,0.491c-0.04,0.251-0.256,0.43-0.501,0.43c-0.027,0-0.054-0.002-0.08-0.006
		c-0.277-0.044-0.466-0.305-0.423-0.583l0.077-0.492c0.025-0.154,0.037-0.307,0.037-0.457c0-0.264-0.036-0.526-0.106-0.777
		c-0.075-0.271,0.081-0.553,0.351-0.629c0.274-0.073,0.551,0.082,0.627,0.353c0.095,0.341,0.144,0.695,0.144,1.053
		C27.195,11.077,27.179,11.285,27.146,11.492z"/>
</g>
</svg>
