<?xml version="1.0" encoding="iso-8859-1"?>
<!-- Generator: Adobe Illustrator 19.2.1, SVG Export Plug-In . SVG Version: 6.00 Build 0)  -->
<svg version="1.1" xmlns="http://www.w3.org/2000/svg" xmlns:xlink="http://www.w3.org/1999/xlink" x="0px" y="0px"
	 viewBox="0 0 24 24" style="enable-background:new 0 0 24 24;" xml:space="preserve">
<g id="Photo_frame">
</g>
<g id="Photo_frame_2">
</g>
<g id="Photo_frame_3">
</g>
<g id="Photo_frame__4">
</g>
<g id="Photo_frame_5">
</g>
<g id="Photo_frame_6">
</g>
<g id="Photo_frame_7">
</g>
<g id="Round_Frame_1">
</g>
<g id="Rectangle_Frame_1">
</g>
<g id="Square_Frame_1">
</g>
<g id="Rectangle_Frame_2">
</g>
<g id="Oval_Frame_1">
</g>
<g id="Round_Frame_2">
</g>
<g id="Rectangle_Frame_3">
</g>
<g id="Rectangle_Frame_4">
</g>
<g id="Rectangle_Frame_5">
</g>
<g id="Square_Frame_2">
</g>
<g id="Rectangle_Frame_6">
</g>
<g id="Rectangle_Frame_7">
</g>
<g id="Oval_Frame_2">
</g>
<g id="Round_Frame_3">
</g>
<g id="Rectangle_Frame_8">
</g>
<g id="Square_Frame_3">
</g>
<g id="Rectangle_Frame_9">
</g>
<g id="Rectangle_Frame_10">
</g>
<g id="Square_Frame_4">
</g>
<g id="Rectangle_Frame_11">
</g>
<g id="Rectangle_Frame_12">
</g>
<g id="Square_Frame_5">
</g>
<g id="Rectangle_Frame_13">
</g>
<g id="Round_Frame">
</g>
<g id="Frame_2">
</g>
<g id="Frame_1">
</g>
<g id="Frame_3">
</g>
<g id="Frame_4">
</g>
<g id="Frame_5">
</g>
<g id="Frame_6">
</g>
<g id="Frame_7">
</g>
<g id="Frame_8">
</g>
<g id="Frame_9">
</g>
<g id="Frame_10">
</g>
<g id="Frame_11">
</g>
<g id="Frame_12">
</g>
<g id="Frame_13">
</g>
<g id="Frame_14">
</g>
<g id="Frame_15">
</g>
<g id="Frame_16">
</g>
<g id="Frame_17">
</g>
<g id="Frame_18">
</g>
<g id="Frame_19">
</g>
<g id="Frame_20">
</g>
<g id="Frame_21">
</g>
<g id="Frame_22">
</g>
<g id="Frame_23">
</g>
<g id="Frame_24">
</g>
<g id="Frame_25">
</g>
<g id="Frame_26">
</g>
<g id="Frame_27">
</g>
<g id="Frame_28">
</g>
<g id="Frame_29">
</g>
<g id="Frame_30">
</g>
<g id="Frame_Hole_1">
</g>
<g id="Frame_Hole_2">
</g>
<g id="Frame_Hole_3">
</g>
<g id="Frame_Hole_4">
</g>
<g id="Frame_31">
</g>
<g id="Frame_32">
</g>
<g id="Frame_33">
</g>
<g id="Frame_34">
</g>
<g id="Frame_35">
</g>
<g id="Dashed_Frame_1">
</g>
<g id="Dashed_Frame_2">
</g>
<g id="Dashed_Frame_3">
</g>
<g id="Dashed_Frame_4">
</g>
<g id="Dashed_Frame_5">
</g>
<g id="Dashed_Frame_6">
</g>
<g id="Dashed_Frame_7">
</g>
<g id="Dashed_Frame_8">
</g>
<g id="Dashed_Frame_9">
</g>
<g id="Dashed_Frame_10">
</g>
<g id="Dashed_Frame_11">
</g>
<g id="Dashed_Frame_12">
</g>
<g id="Dashed_Frame_13">
</g>
<g id="Dashed_Frame_14">
</g>
<g id="Dashed_Frame_15">
</g>
<g id="Dashed_Frame_16">
</g>
<g id="Dashed_Frame_17">
</g>
<g id="Dashed_Frame_18">
</g>
<g id="Dashed_Frame_19">
</g>
<g id="Dashed_Frame_20">
</g>
<g id="Dashed_Frame_25">
</g>
<g id="Dashed_Frame_26">
</g>
<g id="Dashed_Frame_27">
</g>
<g id="Dashed_Frame_28">
</g>
<g id="Dashed_Frame_29">
</g>
<g id="Dashed_Frame_30">
	<path d="M17.5,2h-3.011c-0.232,0-2.276-0.044-2.494-1.57C11.96,0.183,11.749,0,11.5,0c-0.001,0-0.002,0-0.003,0
		c-0.25,0.002-0.461,0.188-0.493,0.436C10.815,1.894,9.052,1.997,9,2H5.5C3.57,2,2,3.57,2,5.5v14C2,20.879,3.122,22,4.5,22h3.982
		c0.023,0,2.218,0.093,2.522,1.435c-0.019,0.142,0.024,0.285,0.118,0.394C11.217,23.938,11.355,24,11.5,24h0.023
		c0.147,0,0.281-0.102,0.376-0.215c0.067-0.079,0.104-0.196,0.112-0.31C12.302,22.02,14.392,22,14.5,22h0h4
		c1.378,0,2.5-1.121,2.5-2.5v-14C21,3.57,19.43,2,17.5,2z M4,5.5c0-0.08,0.006-0.158,0.018-0.233
		c0.042-0.272,0.299-0.458,0.57-0.418c0.273,0.042,0.46,0.297,0.418,0.57L5,7.535c0,0.276-0.224,0.5-0.5,0.5S4,7.812,4,7.535V5.5z
		 M4,9.728c0-0.276,0.224-0.5,0.5-0.5S5,9.451,5,9.728v2.193c0,0.276-0.224,0.5-0.5,0.5S4,12.197,4,11.921V9.728z M4,14.113
		c0-0.276,0.224-0.5,0.5-0.5s0.5,0.224,0.5,0.5v2.193c0,0.276-0.224,0.5-0.5,0.5S4,16.583,4,16.307V14.113z M5.5,20h-1
		C4.224,20,4,19.776,4,19.5v-1C4,18.224,4.224,18,4.5,18S5,18.224,5,18.5V19h0.5C5.776,19,6,19.224,6,19.5S5.776,20,5.5,20z
		 M5.78,4.5c0-0.276,0.224-0.5,0.5-0.5h2.193c0.276,0,0.5,0.224,0.5,0.5S8.749,5,8.473,5H6.28C6.003,5,5.78,4.776,5.78,4.5z
		 M8.897,20.021c-0.014,0-0.029-0.001-0.043-0.002c-0.105-0.009-0.207-0.016-0.303-0.019L7.196,20c-0.276,0-0.5-0.225-0.5-0.5
		c0-0.276,0.224-0.5,0.5-0.5h0l1.373,0.001c0.13,0.005,0.248,0.012,0.37,0.022c0.275,0.023,0.479,0.266,0.455,0.541
		C9.373,19.825,9.154,20.021,8.897,20.021z M12.54,20.342c-0.291,0.107-0.564,0.239-0.813,0.39c-0.08,0.049-0.17,0.073-0.26,0.073
		c-0.085,0-0.171-0.021-0.248-0.065c-0.255-0.146-0.535-0.273-0.833-0.381c-0.26-0.094-0.395-0.381-0.301-0.641
		c0.094-0.259,0.38-0.391,0.64-0.301c0.256,0.093,0.502,0.198,0.734,0.316c0.232-0.124,0.477-0.234,0.733-0.329
		c0.259-0.097,0.546,0.037,0.642,0.295C12.931,19.958,12.799,20.246,12.54,20.342z M12.911,4.324
		c-0.092,0.262-0.378,0.398-0.638,0.306c-0.256-0.091-0.501-0.196-0.732-0.314c-0.234,0.126-0.48,0.236-0.735,0.33
		c-0.057,0.021-0.115,0.03-0.172,0.03c-0.204,0-0.396-0.126-0.47-0.328c-0.095-0.26,0.039-0.547,0.298-0.642
		c0.287-0.104,0.56-0.236,0.812-0.391c0.158-0.095,0.356-0.098,0.514-0.005c0.249,0.146,0.524,0.272,0.819,0.376
		C12.866,3.778,13.003,4.064,12.911,4.324z M15.775,20H14.5c-0.137,0-0.275,0.005-0.413,0.015c-0.012,0.001-0.024,0.001-0.036,0.001
		c-0.26,0-0.479-0.201-0.498-0.464c-0.02-0.275,0.188-0.515,0.463-0.535C14.177,19.005,14.339,19,14.5,19h1.275
		c0.276,0,0.5,0.224,0.5,0.5S16.052,20,15.775,20z M14.588,5c-0.276,0-0.5-0.224-0.5-0.5s0.224-0.5,0.5-0.5h2.184
		c0.276,0,0.5,0.224,0.5,0.5S17.048,5,16.772,5H14.588z M19,19.5c0,0.276-0.224,0.5-0.5,0.5h-1c-0.276,0-0.5-0.224-0.5-0.5
		s0.224-0.5,0.5-0.5H18v-0.5c0-0.276,0.224-0.5,0.5-0.5s0.5,0.224,0.5,0.5V19.5z M19,16.307c0,0.276-0.224,0.5-0.5,0.5
		s-0.5-0.224-0.5-0.5v-2.185c0-0.276,0.224-0.5,0.5-0.5s0.5,0.224,0.5,0.5V16.307z M19,11.938c0,0.276-0.224,0.5-0.5,0.5
		s-0.5-0.224-0.5-0.5V9.754c0-0.276,0.224-0.5,0.5-0.5s0.5,0.224,0.5,0.5V11.938z M19,7.569c0,0.276-0.224,0.5-0.5,0.5
		S18,7.846,18,7.569V5.5c-0.033-0.274,0.162-0.551,0.437-0.583c0.275-0.038,0.521,0.136,0.554,0.41C18.997,5.385,19,5.445,19,5.506
		V7.569z"/>
</g>
<g id="Dashed_Frame_31">
</g>
<g id="Dashed_Frame_32">
</g>
<g id="Dashed_Frame_33">
</g>
<g id="Dashed_Frame_35">
</g>
</svg>
