<?xml version="1.0" encoding="iso-8859-1"?>
<!-- Generator: Adobe Illustrator 19.2.1, SVG Export Plug-In . SVG Version: 6.00 Build 0)  -->
<svg version="1.1" xmlns="http://www.w3.org/2000/svg" xmlns:xlink="http://www.w3.org/1999/xlink" x="0px" y="0px"
	 viewBox="0 0 30 30" style="enable-background:new 0 0 30 30;" xml:space="preserve">
<g id="Photo_frame">
</g>
<g id="Photo_frame_2">
</g>
<g id="Photo_frame_3">
</g>
<g id="Photo_frame__4">
</g>
<g id="Photo_frame_5">
</g>
<g id="Photo_frame_6">
</g>
<g id="Photo_frame_7">
</g>
<g id="Round_Frame_1">
</g>
<g id="Rectangle_Frame_1">
</g>
<g id="Square_Frame_1">
</g>
<g id="Rectangle_Frame_2">
</g>
<g id="Oval_Frame_1">
</g>
<g id="Round_Frame_2">
</g>
<g id="Rectangle_Frame_3">
</g>
<g id="Rectangle_Frame_4">
</g>
<g id="Rectangle_Frame_5">
</g>
<g id="Square_Frame_2">
</g>
<g id="Rectangle_Frame_6">
</g>
<g id="Rectangle_Frame_7">
</g>
<g id="Oval_Frame_2">
</g>
<g id="Round_Frame_3">
</g>
<g id="Rectangle_Frame_8">
</g>
<g id="Square_Frame_3">
</g>
<g id="Rectangle_Frame_9">
</g>
<g id="Rectangle_Frame_10">
</g>
<g id="Square_Frame_4">
</g>
<g id="Rectangle_Frame_11">
</g>
<g id="Rectangle_Frame_12">
</g>
<g id="Square_Frame_5">
</g>
<g id="Rectangle_Frame_13">
</g>
<g id="Round_Frame">
</g>
<g id="Frame_2">
</g>
<g id="Frame_1">
</g>
<g id="Frame_3">
</g>
<g id="Frame_4">
</g>
<g id="Frame_5">
</g>
<g id="Frame_6">
</g>
<g id="Frame_7">
</g>
<g id="Frame_8">
</g>
<g id="Frame_9">
</g>
<g id="Frame_10">
</g>
<g id="Frame_11">
</g>
<g id="Frame_12">
</g>
<g id="Frame_13">
</g>
<g id="Frame_14">
</g>
<g id="Frame_15">
</g>
<g id="Frame_16">
</g>
<g id="Frame_17">
</g>
<g id="Frame_18">
</g>
<g id="Frame_19">
</g>
<g id="Frame_20">
</g>
<g id="Frame_21">
</g>
<g id="Frame_22">
</g>
<g id="Frame_23">
</g>
<g id="Frame_24">
</g>
<g id="Frame_25">
</g>
<g id="Frame_26">
</g>
<g id="Frame_27">
</g>
<g id="Frame_28">
</g>
<g id="Frame_29">
</g>
<g id="Frame_30">
</g>
<g id="Frame_Hole_1">
</g>
<g id="Frame_Hole_2">
</g>
<g id="Frame_Hole_3">
</g>
<g id="Frame_Hole_4">
</g>
<g id="Frame_31">
</g>
<g id="Frame_32">
</g>
<g id="Frame_33">
</g>
<g id="Frame_34">
</g>
<g id="Frame_35">
</g>
<g id="Dashed_Frame_1">
</g>
<g id="Dashed_Frame_2">
</g>
<g id="Dashed_Frame_3">
</g>
<g id="Dashed_Frame_4">
</g>
<g id="Dashed_Frame_5">
</g>
<g id="Dashed_Frame_6">
</g>
<g id="Dashed_Frame_7">
</g>
<g id="Dashed_Frame_8">
</g>
<g id="Dashed_Frame_9">
</g>
<g id="Dashed_Frame_10">
</g>
<g id="Dashed_Frame_11">
</g>
<g id="Dashed_Frame_12">
</g>
<g id="Dashed_Frame_13">
</g>
<g id="Dashed_Frame_14">
</g>
<g id="Dashed_Frame_15">
</g>
<g id="Dashed_Frame_16">
</g>
<g id="Dashed_Frame_17">
</g>
<g id="Dashed_Frame_18">
</g>
<g id="Dashed_Frame_19">
</g>
<g id="Dashed_Frame_20">
	<g>
		<g>
			<path d="M15,24.52c-3.549,0-8.762-2.176-9.563-2.52H4.28C2.594,22,1,20.436,1,18.78v-0.726C0.386,17.463,0,16.307,0,15
				s0.386-2.463,1-3.055V11.22C1,9.564,2.594,8,4.28,8h1.156C6.238,7.656,11.451,5.48,15,5.48S23.762,7.656,24.563,8h1.156
				C27.406,8,29,9.564,29,11.22v0.726c0.614,0.592,1,1.748,1,3.055s-0.386,2.463-1,3.055v0.726c0,1.655-1.594,3.22-3.28,3.22h-1.156
				C23.762,22.344,18.549,24.52,15,24.52z M4.28,9C3.15,9,2,10.12,2,11.22v0.96c0,0.164-0.081,0.318-0.216,0.411
				C1.395,12.86,1,13.773,1,15s0.395,2.14,0.784,2.409C1.919,17.502,2,17.656,2,17.82v0.96C2,19.88,3.15,21,4.28,21h1.26
				c0.069,0,0.138,0.015,0.2,0.042c0.057,0.024,5.698,2.478,9.26,2.478c3.564,0,9.203-2.453,9.26-2.478
				C24.322,21.015,24.391,21,24.46,21h1.26c1.13,0,2.28-1.12,2.28-2.22v-0.96c0-0.164,0.081-0.318,0.216-0.411
				C28.605,17.14,29,16.227,29,15s-0.395-2.14-0.784-2.409C28.081,12.498,28,12.344,28,12.18v-0.96C28,10.12,26.85,9,25.72,9h-1.26
				c-0.069,0-0.138-0.015-0.2-0.042C24.203,8.934,18.562,6.48,15,6.48c-3.564,0-9.203,2.453-9.26,2.478C5.678,8.985,5.609,9,5.54,9
				H4.28z"/>
		</g>
		<g>
			<g>
				<path d="M26.235,14.241c-0.184,0-0.36-0.102-0.448-0.277c-0.115-0.234-0.237-0.321-0.287-0.321c-0.276,0-0.5-0.224-0.5-0.5
					v-0.929c0-0.272,0.217-0.53,0.489-0.536c0.274-0.033,0.498,0.172,0.509,0.444l0.001,0.645c0.271,0.142,0.509,0.399,0.685,0.752
					c0.122,0.248,0.021,0.548-0.226,0.671C26.386,14.225,26.311,14.241,26.235,14.241z"/>
			</g>
			<g>
				<path d="M5.681,11.02c-0.195,0-0.381-0.115-0.461-0.308c-0.106-0.254,0.014-0.547,0.269-0.653
					C5.807,9.925,6.147,9.857,6.5,9.857h0.905L7.59,9.785c0.257-0.101,0.548,0.026,0.646,0.285c0.101,0.258-0.027,0.547-0.285,0.646
					l-0.264,0.104c-0.06,0.023-0.123,0.036-0.188,0.036h-1c-0.22,0-0.431,0.042-0.627,0.123C5.811,11.007,5.745,11.02,5.681,11.02z
					 M24.307,11.015c-0.063,0-0.128-0.012-0.19-0.037c-0.192-0.08-0.4-0.12-0.616-0.12h-1c-0.064,0-0.128-0.013-0.188-0.036
					l-0.276-0.108c-0.258-0.1-0.386-0.389-0.287-0.646c0.101-0.257,0.386-0.386,0.646-0.287l0.199,0.078H23.5
					c0.347,0,0.683,0.065,0.997,0.194c0.255,0.105,0.377,0.397,0.272,0.653C24.689,10.897,24.503,11.015,24.307,11.015z
					 M9.785,10.043c-0.212,0-0.408-0.136-0.477-0.348C9.225,9.433,9.37,9.15,9.633,9.066c0.732-0.234,1.435-0.433,2.085-0.591
					c0.271-0.065,0.539,0.099,0.604,0.367c0.065,0.269-0.099,0.539-0.367,0.604C11.326,9.6,10.647,9.792,9.938,10.02
					C9.887,10.035,9.836,10.043,9.785,10.043z M20.203,10.038c-0.05,0-0.102-0.008-0.152-0.023
					c-0.703-0.225-1.383-0.418-2.018-0.573c-0.268-0.065-0.433-0.336-0.366-0.604C17.732,8.57,18,8.404,18.271,8.471
					c0.657,0.16,1.358,0.359,2.084,0.591c0.263,0.084,0.408,0.365,0.324,0.629C20.611,9.902,20.415,10.038,20.203,10.038z
					 M13.93,9.068c-0.25,0-0.466-0.188-0.495-0.441c-0.033-0.274,0.163-0.522,0.438-0.555C14.271,8.024,14.664,7.977,15.021,8
					c0.346,0,0.714,0.025,1.095,0.069c0.273,0.032,0.47,0.281,0.438,0.556c-0.033,0.273-0.274,0.467-0.556,0.438
					C15.652,9.022,15.349,9.003,15.001,9c-0.32,0-0.66,0.023-1.012,0.064C13.97,9.067,13.949,9.068,13.93,9.068z"/>
			</g>
			<g>
				<path d="M3.765,14.241c-0.075,0-0.15-0.017-0.223-0.052c-0.247-0.123-0.348-0.423-0.226-0.671
					C3.491,13.166,3.729,12.909,4,12.768v-0.554l0.502-0.072L5,12.214v0.929c0,0.276-0.224,0.5-0.5,0.5
					c-0.05,0-0.172,0.087-0.287,0.321C4.125,14.14,3.948,14.241,3.765,14.241z"/>
			</g>
			<g>
				<path d="M4.499,18.322c-0.267,0-0.486-0.176-0.497-0.444l-0.001-0.645c-0.271-0.142-0.509-0.399-0.685-0.752
					c-0.122-0.248-0.021-0.548,0.226-0.671c0.249-0.121,0.547-0.022,0.671,0.226c0.115,0.234,0.237,0.321,0.287,0.321
					c0.276,0,0.5,0.224,0.5,0.5v0.929c0,0.272-0.217,0.53-0.489,0.536C4.507,18.322,4.503,18.322,4.499,18.322z"/>
			</g>
			<g>
				<path d="M14.979,22c-0.346,0-0.714-0.025-1.095-0.069c-0.273-0.032-0.47-0.281-0.438-0.556c0.032-0.273,0.272-0.464,0.556-0.438
					C14.342,20.977,14.671,21,14.98,21c0.293,0.014,0.671-0.022,1.03-0.064c0.267-0.04,0.522,0.163,0.555,0.438
					c0.033,0.274-0.163,0.522-0.438,0.555C15.728,21.976,15.339,21.988,14.979,22z M11.848,21.544c-0.039,0-0.079-0.005-0.119-0.015
					c-0.657-0.16-1.358-0.359-2.084-0.591c-0.263-0.084-0.408-0.365-0.324-0.629c0.085-0.262,0.361-0.406,0.629-0.324
					c0.703,0.225,1.383,0.418,2.018,0.573c0.268,0.065,0.433,0.336,0.366,0.604C12.277,21.391,12.073,21.544,11.848,21.544z
					 M18.164,21.539c-0.226,0-0.431-0.153-0.485-0.382c-0.065-0.269,0.099-0.539,0.367-0.604c0.628-0.153,1.307-0.346,2.017-0.573
					c0.262-0.081,0.544,0.062,0.629,0.324c0.084,0.263-0.062,0.545-0.324,0.629c-0.732,0.234-1.435,0.433-2.085,0.591
					C18.242,21.534,18.203,21.539,18.164,21.539z M7.784,20.254c-0.06,0-0.12-0.011-0.18-0.033l-0.199-0.078H6.5
					c-0.347,0-0.683-0.065-0.997-0.194c-0.255-0.105-0.377-0.397-0.272-0.653c0.106-0.255,0.397-0.377,0.653-0.272
					c0.192,0.08,0.4,0.12,0.616,0.12h1c0.064,0,0.128,0.013,0.188,0.036l0.276,0.108c0.258,0.1,0.386,0.389,0.287,0.646
					C8.174,20.132,7.985,20.254,7.784,20.254z M22.229,20.249c-0.2,0-0.39-0.121-0.466-0.319c-0.101-0.258,0.027-0.547,0.285-0.646
					l0.264-0.104c0.06-0.023,0.123-0.036,0.188-0.036h1c0.22,0,0.431-0.042,0.627-0.123c0.252-0.105,0.547,0.013,0.653,0.269
					c0.106,0.254-0.014,0.547-0.269,0.653c-0.318,0.134-0.659,0.201-1.012,0.201h-0.905l-0.185,0.072
					C22.351,20.238,22.29,20.249,22.229,20.249z"/>
			</g>
			<g>
				<path d="M25.498,17.858L25,17.786v-0.929c0-0.276,0.224-0.5,0.5-0.5c0.05,0,0.172-0.087,0.287-0.321
					c0.124-0.248,0.423-0.347,0.671-0.226c0.247,0.123,0.348,0.423,0.226,0.671c-0.175,0.353-0.412,0.609-0.684,0.751v0.554
					L25.498,17.858z"/>
			</g>
		</g>
	</g>
</g>
<g id="Dashed_Frame_25">
</g>
<g id="Dashed_Frame_26">
</g>
<g id="Dashed_Frame_27">
</g>
<g id="Dashed_Frame_28">
</g>
<g id="Dashed_Frame_29">
</g>
<g id="Dashed_Frame_30">
</g>
<g id="Dashed_Frame_31">
</g>
<g id="Dashed_Frame_32">
</g>
<g id="Dashed_Frame_33">
</g>
<g id="Dashed_Frame_35">
</g>
</svg>
