<?xml version="1.0" encoding="iso-8859-1"?>
<!-- Generator: Adobe Illustrator 19.2.1, SVG Export Plug-In . SVG Version: 6.00 Build 0)  -->
<svg version="1.1" xmlns="http://www.w3.org/2000/svg" xmlns:xlink="http://www.w3.org/1999/xlink" x="0px" y="0px"
	 viewBox="0 0 24 24" style="enable-background:new 0 0 24 24;" xml:space="preserve">
<g id="Photo_frame">
</g>
<g id="Photo_frame_2">
</g>
<g id="Photo_frame_3">
</g>
<g id="Photo_frame__4">
</g>
<g id="Photo_frame_5">
</g>
<g id="Photo_frame_6">
</g>
<g id="Photo_frame_7">
</g>
<g id="Round_Frame_1">
</g>
<g id="Rectangle_Frame_1">
</g>
<g id="Square_Frame_1">
</g>
<g id="Rectangle_Frame_2">
</g>
<g id="Oval_Frame_1">
</g>
<g id="Round_Frame_2">
</g>
<g id="Rectangle_Frame_3">
</g>
<g id="Rectangle_Frame_4">
</g>
<g id="Rectangle_Frame_5">
</g>
<g id="Square_Frame_2">
</g>
<g id="Rectangle_Frame_6">
</g>
<g id="Rectangle_Frame_7">
</g>
<g id="Oval_Frame_2">
</g>
<g id="Round_Frame_3">
</g>
<g id="Rectangle_Frame_8">
</g>
<g id="Square_Frame_3">
</g>
<g id="Rectangle_Frame_9">
</g>
<g id="Rectangle_Frame_10">
</g>
<g id="Square_Frame_4">
</g>
<g id="Rectangle_Frame_11">
</g>
<g id="Rectangle_Frame_12">
</g>
<g id="Square_Frame_5">
</g>
<g id="Rectangle_Frame_13">
</g>
<g id="Round_Frame">
</g>
<g id="Frame_2">
</g>
<g id="Frame_1">
</g>
<g id="Frame_3">
</g>
<g id="Frame_4">
</g>
<g id="Frame_5">
</g>
<g id="Frame_6">
</g>
<g id="Frame_7">
</g>
<g id="Frame_8">
</g>
<g id="Frame_9">
</g>
<g id="Frame_10">
</g>
<g id="Frame_11">
</g>
<g id="Frame_12">
</g>
<g id="Frame_13">
</g>
<g id="Frame_14">
</g>
<g id="Frame_15">
</g>
<g id="Frame_16">
</g>
<g id="Frame_17">
</g>
<g id="Frame_18">
</g>
<g id="Frame_19">
</g>
<g id="Frame_20">
</g>
<g id="Frame_21">
</g>
<g id="Frame_22">
</g>
<g id="Frame_23">
</g>
<g id="Frame_24">
</g>
<g id="Frame_25">
</g>
<g id="Frame_26">
</g>
<g id="Frame_27">
</g>
<g id="Frame_28">
</g>
<g id="Frame_29">
</g>
<g id="Frame_30">
</g>
<g id="Frame_Hole_1">
</g>
<g id="Frame_Hole_2">
</g>
<g id="Frame_Hole_3">
</g>
<g id="Frame_Hole_4">
</g>
<g id="Frame_31">
</g>
<g id="Frame_32">
</g>
<g id="Frame_33">
</g>
<g id="Frame_34">
</g>
<g id="Frame_35">
</g>
<g id="Dashed_Frame_1">
</g>
<g id="Dashed_Frame_2">
</g>
<g id="Dashed_Frame_3">
</g>
<g id="Dashed_Frame_4">
</g>
<g id="Dashed_Frame_5">
</g>
<g id="Dashed_Frame_6">
</g>
<g id="Dashed_Frame_7">
</g>
<g id="Dashed_Frame_8">
</g>
<g id="Dashed_Frame_9">
</g>
<g id="Dashed_Frame_10">
</g>
<g id="Dashed_Frame_11">
</g>
<g id="Dashed_Frame_12">
</g>
<g id="Dashed_Frame_13">
</g>
<g id="Dashed_Frame_14">
</g>
<g id="Dashed_Frame_15">
</g>
<g id="Dashed_Frame_16">
</g>
<g id="Dashed_Frame_17">
</g>
<g id="Dashed_Frame_18">
</g>
<g id="Dashed_Frame_19">
</g>
<g id="Dashed_Frame_20">
</g>
<g id="Dashed_Frame_25">
</g>
<g id="Dashed_Frame_26">
</g>
<g id="Dashed_Frame_27">
</g>
<g id="Dashed_Frame_28">
	<path d="M23.818,11.614L22,10.112V8.5C22,8.224,21.776,8,21.5,8h-1.45l0.006-1.489c0.003-0.67-0.256-1.3-0.728-1.774
		C18.855,4.262,18.226,4,17.556,4h-2.956l-2.282-1.886c-0.185-0.152-0.452-0.152-0.637,0L9.399,4H6.5C5.122,4,4,5.121,4,6.5V8H2.5
		C2.224,8,2,8.224,2,8.5v1.612l-1.818,1.502C0.067,11.709,0,11.851,0,11.999c0,0.149,0.066,0.29,0.181,0.386L2,13.896V15.5
		C2,15.776,2.224,16,2.5,16H4v1.5C4,18.879,5.122,20,6.5,20h2.847l2.269,1.885C11.708,21.962,11.822,22,11.935,22
		c0.113,0,0.225-0.038,0.317-0.113L14.549,20h2.96c1.373,0,2.494-1.116,2.5-2.489L20.016,16H21.5c0.276,0,0.5-0.224,0.5-0.5v-1.621
		l1.817-1.492C23.933,12.292,24,12.15,24,12.001S23.934,11.71,23.818,11.614z M16.556,6h1c0.133,0,0.261,0.053,0.354,0.147
		c0.094,0.094,0.146,0.222,0.146,0.354l-0.004,1C18.051,7.777,17.827,8,17.552,8c0,0-0.001,0-0.001,0
		c-0.277-0.001-0.5-0.226-0.499-0.502L17.054,7h-0.498c-0.276,0-0.5-0.224-0.5-0.5S16.28,6,16.556,6z M4.5,14
		C4.224,14,4,13.776,4,13.5v-0.543l-0.685-0.568c-0.114-0.096-0.181-0.236-0.18-0.386c0-0.148,0.067-0.29,0.182-0.385L4,11.055V10.5
		C4,10.224,4.224,10,4.5,10h1H6V9.5C6,9.224,6.224,9,6.5,9S7,9.224,7,9.5v1C7,10.776,6.776,11,6.5,11h-1H5v0.29
		c0,0.149-0.066,0.291-0.182,0.386l-0.399,0.329l0.401,0.333C4.934,12.434,5,12.574,5,12.723V13h0.5h1C6.776,13,7,13.224,7,13.5v1
		C7,14.776,6.776,15,6.5,15S6,14.776,6,14.5V14H5.5H4.5z M7.5,18h-1C6.224,18,6,17.776,6,17.5v-1C6,16.224,6.224,16,6.5,16
		S7,16.224,7,16.5V17h0.5C7.776,17,8,17.224,8,17.5S7.776,18,7.5,18z M7.5,7H7v0.5C7,7.776,6.776,8,6.5,8S6,7.776,6,7.5v-1
		C6,6.224,6.224,6,6.5,6h1C7.776,6,8,6.224,8,6.5S7.776,7,7.5,7z M10.133,18H8.817c-0.276,0-0.5-0.224-0.5-0.5s0.224-0.5,0.5-0.5
		h1.316c0.276,0,0.5,0.224,0.5,0.5S10.41,18,10.133,18z M10.171,7H8.835c-0.276,0-0.5-0.224-0.5-0.5S8.559,6,8.835,6h1.335
		c0.276,0,0.5,0.224,0.5,0.5S10.447,7,10.171,7z M13.033,18.657l-0.773,0.635c-0.092,0.075-0.205,0.113-0.317,0.113
		c-0.113,0-0.227-0.038-0.319-0.115l-0.769-0.639c-0.212-0.177-0.242-0.492-0.065-0.704c0.177-0.213,0.492-0.241,0.704-0.065
		l0.452,0.375l0.454-0.373c0.214-0.176,0.529-0.144,0.704,0.069C13.277,18.167,13.246,18.481,13.033,18.657z M13.157,6.049
		c-0.099,0.12-0.242,0.182-0.386,0.182c-0.112,0-0.225-0.037-0.318-0.114L12,5.742l-0.453,0.374
		c-0.212,0.178-0.528,0.146-0.704-0.067c-0.176-0.213-0.146-0.528,0.067-0.704l0.771-0.637c0.185-0.152,0.452-0.152,0.637,0
		l0.771,0.637C13.302,5.521,13.333,5.836,13.157,6.049z M15.152,18h-1.356c-0.276,0-0.5-0.224-0.5-0.5s0.224-0.5,0.5-0.5h1.356
		c0.276,0,0.5,0.224,0.5,0.5S15.429,18,15.152,18z M15.202,7h-1.354c-0.276,0-0.5-0.224-0.5-0.5s0.224-0.5,0.5-0.5h1.354
		c0.276,0,0.5,0.224,0.5,0.5S15.479,7,15.202,7z M18.009,17.502C18.008,17.777,17.784,18,17.509,18h-1c-0.276,0-0.5-0.224-0.5-0.5
		s0.224-0.5,0.5-0.5h0.502l0.002-0.502c0.001-0.275,0.225-0.498,0.5-0.498c0.268,0.046,0.501,0.225,0.5,0.502L18.009,17.502z
		 M20.672,12.382L20,12.934V13.5c0,0.276-0.224,0.5-0.5,0.5h-1.476l-0.002,0.502C18.021,14.777,17.797,15,17.522,15
		c0,0-0.001,0-0.002,0c-0.276-0.001-0.499-0.226-0.498-0.502l0.004-1c0.001-0.275,0.225-0.498,0.5-0.498H19v-0.303
		c0-0.149,0.067-0.291,0.183-0.387l0.385-0.316l-0.386-0.318C19.067,11.581,19,11.439,19,11.29V11h-1.46
		c-0.133,0-0.26-0.053-0.354-0.147c-0.094-0.094-0.146-0.222-0.146-0.354l0.004-1C17.045,9.223,17.269,9,17.544,9
		c0,0,0.001,0,0.002,0c0.276,0.001,0.499,0.226,0.498,0.502L18.042,10H19.5c0.276,0,0.5,0.224,0.5,0.5v0.555l0.673,0.555
		c0.115,0.095,0.182,0.237,0.182,0.387S20.788,12.286,20.672,12.382z"/>
</g>
<g id="Dashed_Frame_29">
</g>
<g id="Dashed_Frame_30">
</g>
<g id="Dashed_Frame_31">
</g>
<g id="Dashed_Frame_32">
</g>
<g id="Dashed_Frame_33">
</g>
<g id="Dashed_Frame_35">
</g>
</svg>
