<?xml version="1.0" encoding="iso-8859-1"?>
<!-- Generator: Adobe Illustrator 19.2.1, SVG Export Plug-In . SVG Version: 6.00 Build 0)  -->
<svg version="1.1" xmlns="http://www.w3.org/2000/svg" xmlns:xlink="http://www.w3.org/1999/xlink" x="0px" y="0px"
	 viewBox="0 0 30 30" style="enable-background:new 0 0 30 30;" xml:space="preserve">
<g id="Photo_frame">
</g>
<g id="Photo_frame_2">
</g>
<g id="Photo_frame_3">
</g>
<g id="Photo_frame__4">
</g>
<g id="Photo_frame_5">
</g>
<g id="Photo_frame_6">
</g>
<g id="Photo_frame_7">
</g>
<g id="Round_Frame_1">
</g>
<g id="Rectangle_Frame_1">
</g>
<g id="Square_Frame_1">
</g>
<g id="Rectangle_Frame_2">
</g>
<g id="Oval_Frame_1">
</g>
<g id="Round_Frame_2">
</g>
<g id="Rectangle_Frame_3">
</g>
<g id="Rectangle_Frame_4">
</g>
<g id="Rectangle_Frame_5">
</g>
<g id="Square_Frame_2">
</g>
<g id="Rectangle_Frame_6">
</g>
<g id="Rectangle_Frame_7">
</g>
<g id="Oval_Frame_2">
</g>
<g id="Round_Frame_3">
</g>
<g id="Rectangle_Frame_8">
</g>
<g id="Square_Frame_3">
</g>
<g id="Rectangle_Frame_9">
</g>
<g id="Rectangle_Frame_10">
</g>
<g id="Square_Frame_4">
</g>
<g id="Rectangle_Frame_11">
</g>
<g id="Rectangle_Frame_12">
</g>
<g id="Square_Frame_5">
</g>
<g id="Rectangle_Frame_13">
</g>
<g id="Round_Frame">
</g>
<g id="Frame_2">
</g>
<g id="Frame_1">
</g>
<g id="Frame_3">
</g>
<g id="Frame_4">
</g>
<g id="Frame_5">
</g>
<g id="Frame_6">
</g>
<g id="Frame_7">
</g>
<g id="Frame_8">
</g>
<g id="Frame_9">
</g>
<g id="Frame_10">
</g>
<g id="Frame_11">
</g>
<g id="Frame_12">
</g>
<g id="Frame_13">
</g>
<g id="Frame_14">
</g>
<g id="Frame_15">
</g>
<g id="Frame_16">
</g>
<g id="Frame_17">
</g>
<g id="Frame_18">
</g>
<g id="Frame_19">
</g>
<g id="Frame_20">
</g>
<g id="Frame_21">
</g>
<g id="Frame_22">
</g>
<g id="Frame_23">
</g>
<g id="Frame_24">
</g>
<g id="Frame_25">
</g>
<g id="Frame_26">
</g>
<g id="Frame_27">
</g>
<g id="Frame_28">
</g>
<g id="Frame_29">
</g>
<g id="Frame_30">
</g>
<g id="Frame_Hole_1">
</g>
<g id="Frame_Hole_2">
</g>
<g id="Frame_Hole_3">
</g>
<g id="Frame_Hole_4">
</g>
<g id="Frame_31">
</g>
<g id="Frame_32">
</g>
<g id="Frame_33">
</g>
<g id="Frame_34">
</g>
<g id="Frame_35">
</g>
<g id="Dashed_Frame_1">
</g>
<g id="Dashed_Frame_2">
</g>
<g id="Dashed_Frame_3">
</g>
<g id="Dashed_Frame_4">
</g>
<g id="Dashed_Frame_5">
</g>
<g id="Dashed_Frame_6">
</g>
<g id="Dashed_Frame_7">
</g>
<g id="Dashed_Frame_8">
	<path d="M28.239,5H28c-0.44,0-1-0.338-1-0.717c0-0.03-0.003-0.06-0.008-0.088C26.957,3.662,26.767,3,25.718,3h-1.262
		C24.121,3,24,2.402,24,2V1.88C24,0.868,22.864,0,21.935,0H8.065C7.11,0,6,0.769,6,1.761V2c0,0.402-0.122,1-0.457,1H4.283
		C3.112,3,3.01,3.824,3.001,4.373C3,4.383,3,4.393,3,4.402c0,0.295-0.605,0.651-1.344,0.696C1.527,5.057,1.386,5.067,1.264,5.132
		C1.135,5.202,0,5.836,0,6.804v16.391C0,24.174,0.806,25,1.761,25H2c0.441,0,1,0.338,1,0.718c0,0.03,0.002,0.06,0.008,0.088
		C3.042,26.338,3.234,27,4.283,27h1.261C5.878,27,6,27.598,6,28v0.119C6,29.132,7.136,30,8.065,30h13.869
		C22.89,30,24,29.23,24,28.239V28c0-0.402,0.121-1,0.456-1h1.262c1.171,0,1.272-0.825,1.281-1.373C27,25.617,27,25.607,27,25.598
		c0-0.295,0.604-0.65,1.343-0.696c0.127,0.042,0.27,0.032,0.394-0.034C28.865,24.799,30,24.163,30,23.195V6.804
		C30,5.826,29.193,5,28.239,5z M20.155,3h0.5c0.212,0,0.401,0.134,0.472,0.333c0.048,0.136,0.104,0.268,0.171,0.394
		c0.127,0.245,0.031,0.547-0.214,0.674c-0.074,0.038-0.152,0.056-0.23,0.056c-0.181,0-0.354-0.098-0.444-0.27
		C20.378,4.126,20.348,4.063,20.318,4h-0.163c-0.276,0-0.5-0.224-0.5-0.5S19.879,3,20.155,3z M3,10.453c0-0.276,0.224-0.5,0.5-0.5
		s0.5,0.224,0.5,0.5v0.91c0,0.276-0.224,0.5-0.5,0.5S3,11.639,3,11.363V10.453z M3,13.181c0-0.276,0.224-0.5,0.5-0.5
		s0.5,0.224,0.5,0.5v0.909c0,0.276-0.224,0.5-0.5,0.5S3,14.367,3,14.09V13.181z M3,15.909c0-0.276,0.224-0.5,0.5-0.5
		s0.5,0.224,0.5,0.5v0.91c0,0.276-0.224,0.5-0.5,0.5S3,17.095,3,16.818V15.909z M3,18.637c0-0.276,0.224-0.5,0.5-0.5
		S4,18.36,4,18.637v0.909c0,0.276-0.224,0.5-0.5,0.5S3,19.822,3,19.546V18.637z M4.405,22.299c-0.089,0.171-0.263,0.268-0.443,0.268
		c-0.079,0-0.158-0.019-0.232-0.058c-0.126-0.066-0.258-0.124-0.394-0.172C3.135,22.268,3,22.078,3,21.865v-0.5
		c0-0.276,0.224-0.5,0.5-0.5s0.5,0.224,0.5,0.5v0.163c0.066,0.03,0.131,0.062,0.195,0.096C4.439,21.753,4.534,22.055,4.405,22.299z
		 M4.193,8.378C4.129,8.411,4.065,8.442,4,8.472v0.164c0,0.276-0.224,0.5-0.5,0.5S3,8.912,3,8.635v-0.5
		c0-0.212,0.133-0.4,0.333-0.471C3.471,7.615,3.604,7.557,3.732,7.49c0.245-0.126,0.546-0.032,0.674,0.213
		C4.533,7.949,4.438,8.25,4.193,8.378z M6.214,24.591c-0.014,0-0.027-0.001-0.041-0.002c-0.083-0.007-0.167-0.01-0.252-0.01H5.713
		c-0.212,0-0.401-0.134-0.472-0.335c-0.048-0.137-0.106-0.269-0.172-0.396c-0.128-0.244-0.034-0.547,0.211-0.675
		c0.246-0.126,0.547-0.033,0.675,0.212c0.034,0.064,0.066,0.13,0.096,0.196c0.068,0.002,0.136,0.006,0.203,0.012
		c0.275,0.022,0.48,0.264,0.458,0.538C6.69,24.393,6.472,24.591,6.214,24.591z M6.254,6.408C6.187,6.413,6.12,6.417,6.051,6.419
		c-0.03,0.066-0.062,0.132-0.096,0.197c-0.089,0.17-0.263,0.268-0.443,0.268c-0.078,0-0.157-0.018-0.231-0.057
		c-0.245-0.128-0.339-0.43-0.211-0.675c0.066-0.127,0.124-0.26,0.172-0.397c0.07-0.2,0.259-0.334,0.472-0.334h0.208
		c0.085,0,0.169-0.003,0.252-0.01c0.27-0.016,0.517,0.183,0.539,0.458C6.734,6.144,6.529,6.385,6.254,6.408z M7.383,5.058
		c0.186-0.099,0.363-0.216,0.525-0.351c0.214-0.174,0.529-0.145,0.704,0.067c0.176,0.213,0.146,0.528-0.067,0.704
		C8.33,5.656,8.097,5.812,7.852,5.942C7.777,5.981,7.697,6,7.618,6C7.438,6,7.265,5.903,7.175,5.734
		C7.046,5.49,7.139,5.188,7.383,5.058z M8.227,25.407c-0.112,0-0.224-0.037-0.317-0.114c-0.164-0.135-0.34-0.253-0.526-0.352
		c-0.244-0.13-0.336-0.433-0.207-0.676c0.129-0.243,0.431-0.338,0.676-0.207c0.245,0.13,0.478,0.286,0.692,0.463
		c0.213,0.176,0.244,0.49,0.068,0.704C8.514,25.345,8.371,25.407,8.227,25.407z M9.845,27h-0.5c-0.211,0-0.4-0.133-0.471-0.333
		c-0.048-0.137-0.106-0.269-0.172-0.396c-0.126-0.245-0.03-0.547,0.215-0.674c0.244-0.128,0.547-0.03,0.674,0.215
		C9.623,25.874,9.653,25.937,9.682,26h0.164c0.276,0,0.5,0.224,0.5,0.5S10.122,27,9.845,27z M9.845,4H9.682
		C9.653,4.063,9.623,4.126,9.59,4.188c-0.089,0.172-0.264,0.27-0.444,0.27c-0.078,0-0.156-0.018-0.229-0.056
		C8.671,4.274,8.576,3.973,8.703,3.728c0.066-0.127,0.123-0.259,0.171-0.395C8.945,3.133,9.134,3,9.345,3h0.5
		c0.276,0,0.5,0.224,0.5,0.5S10.122,4,9.845,4z M12.657,27H11.72c-0.276,0-0.5-0.224-0.5-0.5s0.224-0.5,0.5-0.5h0.937
		c0.276,0,0.5,0.224,0.5,0.5S12.933,27,12.657,27z M12.657,4H11.72c-0.276,0-0.5-0.224-0.5-0.5S11.443,3,11.72,3h0.937
		c0.276,0,0.5,0.224,0.5,0.5S12.933,4,12.657,4z M15.469,27h-0.938c-0.276,0-0.5-0.224-0.5-0.5s0.224-0.5,0.5-0.5h0.938
		c0.276,0,0.5,0.224,0.5,0.5S15.745,27,15.469,27z M15.469,4h-0.938c-0.276,0-0.5-0.224-0.5-0.5s0.224-0.5,0.5-0.5h0.938
		c0.276,0,0.5,0.224,0.5,0.5S15.745,4,15.469,4z M18.28,27h-0.938c-0.276,0-0.5-0.224-0.5-0.5s0.224-0.5,0.5-0.5h0.938
		c0.276,0,0.5,0.224,0.5,0.5S18.557,27,18.28,27z M18.28,4h-0.938c-0.276,0-0.5-0.224-0.5-0.5s0.224-0.5,0.5-0.5h0.938
		c0.276,0,0.5,0.224,0.5,0.5S18.557,4,18.28,4z M21.298,26.271c-0.065,0.127-0.123,0.258-0.171,0.395
		c-0.07,0.2-0.26,0.334-0.472,0.334h-0.5c-0.276,0-0.5-0.224-0.5-0.5s0.224-0.5,0.5-0.5h0.163c0.028-0.063,0.059-0.126,0.091-0.188
		c0.127-0.246,0.432-0.341,0.674-0.215C21.328,25.725,21.425,26.026,21.298,26.271z M22.616,24.942
		c-0.185,0.098-0.361,0.216-0.525,0.35c-0.093,0.077-0.205,0.114-0.317,0.114c-0.145,0-0.287-0.063-0.386-0.183
		c-0.176-0.213-0.146-0.528,0.068-0.703c0.215-0.178,0.448-0.333,0.693-0.463c0.242-0.128,0.546-0.036,0.676,0.209
		C22.954,24.51,22.86,24.813,22.616,24.942z M22.826,5.733C22.736,5.903,22.562,6,22.384,6c-0.079,0-0.159-0.019-0.233-0.058
		c-0.244-0.129-0.479-0.285-0.695-0.463c-0.213-0.175-0.243-0.491-0.067-0.704c0.176-0.214,0.49-0.242,0.704-0.068
		c0.164,0.135,0.341,0.253,0.525,0.35C22.861,5.187,22.955,5.489,22.826,5.733z M24.931,23.847
		c-0.066,0.128-0.124,0.261-0.173,0.399c-0.071,0.199-0.26,0.333-0.472,0.333h-0.207c-0.085,0-0.169,0.003-0.253,0.01
		c-0.014,0.001-0.027,0.002-0.041,0.002c-0.258,0-0.477-0.198-0.497-0.46c-0.022-0.275,0.183-0.517,0.458-0.538
		c0.066-0.006,0.135-0.01,0.202-0.012c0.03-0.066,0.063-0.131,0.096-0.195c0.127-0.246,0.432-0.342,0.674-0.213
		C24.963,23.3,25.059,23.602,24.931,23.847z M24.718,6.828c-0.073,0.038-0.152,0.056-0.23,0.056c-0.181,0-0.354-0.098-0.443-0.27
		c-0.033-0.064-0.065-0.129-0.096-0.195c-0.067-0.002-0.136-0.006-0.202-0.011c-0.275-0.022-0.48-0.264-0.458-0.539
		c0.021-0.275,0.267-0.475,0.538-0.458c0.084,0.007,0.168,0.01,0.253,0.01h0.207c0.212,0,0.4,0.133,0.472,0.333
		c0.049,0.138,0.106,0.271,0.173,0.399C25.059,6.398,24.963,6.7,24.718,6.828z M27,21.865c0,0.213-0.135,0.401-0.335,0.472
		c-0.136,0.048-0.268,0.105-0.395,0.172c-0.074,0.039-0.153,0.058-0.232,0.058c-0.18,0-0.353-0.097-0.442-0.268
		c-0.129-0.244-0.035-0.546,0.21-0.675c0.063-0.034,0.129-0.065,0.194-0.096v-0.163c0-0.276,0.224-0.5,0.5-0.5s0.5,0.224,0.5,0.5
		V21.865z M27,19.546c0,0.276-0.224,0.5-0.5,0.5s-0.5-0.224-0.5-0.5v-0.909c0-0.276,0.224-0.5,0.5-0.5s0.5,0.224,0.5,0.5V19.546z
		 M27,16.818c0,0.276-0.224,0.5-0.5,0.5s-0.5-0.224-0.5-0.5v-0.909c0-0.276,0.224-0.5,0.5-0.5s0.5,0.224,0.5,0.5V16.818z M27,14.091
		c0,0.276-0.224,0.5-0.5,0.5s-0.5-0.224-0.5-0.5v-0.91c0-0.276,0.224-0.5,0.5-0.5s0.5,0.224,0.5,0.5V14.091z M27,11.363
		c0,0.276-0.224,0.5-0.5,0.5s-0.5-0.224-0.5-0.5v-0.909c0-0.276,0.224-0.5,0.5-0.5s0.5,0.224,0.5,0.5V11.363z M27,8.635
		c0,0.276-0.224,0.5-0.5,0.5S26,8.912,26,8.635V8.472c-0.065-0.03-0.129-0.061-0.192-0.094c-0.245-0.127-0.341-0.429-0.213-0.674
		c0.127-0.245,0.432-0.339,0.674-0.213c0.128,0.067,0.262,0.125,0.399,0.174C26.867,7.735,27,7.924,27,8.135V8.635z"/>
</g>
<g id="Dashed_Frame_9">
</g>
<g id="Dashed_Frame_10">
</g>
<g id="Dashed_Frame_11">
</g>
<g id="Dashed_Frame_12">
</g>
<g id="Dashed_Frame_13">
</g>
<g id="Dashed_Frame_14">
</g>
<g id="Dashed_Frame_15">
</g>
<g id="Dashed_Frame_16">
</g>
<g id="Dashed_Frame_17">
</g>
<g id="Dashed_Frame_18">
</g>
<g id="Dashed_Frame_19">
</g>
<g id="Dashed_Frame_20">
</g>
<g id="Dashed_Frame_25">
</g>
<g id="Dashed_Frame_26">
</g>
<g id="Dashed_Frame_27">
</g>
<g id="Dashed_Frame_28">
</g>
<g id="Dashed_Frame_29">
</g>
<g id="Dashed_Frame_30">
</g>
<g id="Dashed_Frame_31">
</g>
<g id="Dashed_Frame_32">
</g>
<g id="Dashed_Frame_33">
</g>
<g id="Dashed_Frame_35">
</g>
</svg>
