<?xml version="1.0" encoding="iso-8859-1"?>
<!-- Generator: Adobe Illustrator 19.2.1, SVG Export Plug-In . SVG Version: 6.00 Build 0)  -->
<svg version="1.1" xmlns="http://www.w3.org/2000/svg" xmlns:xlink="http://www.w3.org/1999/xlink" x="0px" y="0px"
	 viewBox="0 0 30 30" style="enable-background:new 0 0 30 30;" xml:space="preserve">
<g id="Photo_frame">
</g>
<g id="Photo_frame_2">
</g>
<g id="Photo_frame_3">
</g>
<g id="Photo_frame__4">
</g>
<g id="Photo_frame_5">
</g>
<g id="Photo_frame_6">
</g>
<g id="Photo_frame_7">
</g>
<g id="Round_Frame_1">
</g>
<g id="Rectangle_Frame_1">
</g>
<g id="Square_Frame_1">
</g>
<g id="Rectangle_Frame_2">
</g>
<g id="Oval_Frame_1">
</g>
<g id="Round_Frame_2">
</g>
<g id="Rectangle_Frame_3">
</g>
<g id="Rectangle_Frame_4">
</g>
<g id="Rectangle_Frame_5">
</g>
<g id="Square_Frame_2">
</g>
<g id="Rectangle_Frame_6">
</g>
<g id="Rectangle_Frame_7">
</g>
<g id="Oval_Frame_2">
</g>
<g id="Round_Frame_3">
</g>
<g id="Rectangle_Frame_8">
</g>
<g id="Square_Frame_3">
</g>
<g id="Rectangle_Frame_9">
</g>
<g id="Rectangle_Frame_10">
</g>
<g id="Square_Frame_4">
</g>
<g id="Rectangle_Frame_11">
</g>
<g id="Rectangle_Frame_12">
</g>
<g id="Square_Frame_5">
</g>
<g id="Rectangle_Frame_13">
</g>
<g id="Round_Frame">
</g>
<g id="Frame_2">
</g>
<g id="Frame_1">
</g>
<g id="Frame_3">
</g>
<g id="Frame_4">
</g>
<g id="Frame_5">
</g>
<g id="Frame_6">
</g>
<g id="Frame_7">
</g>
<g id="Frame_8">
</g>
<g id="Frame_9">
</g>
<g id="Frame_10">
</g>
<g id="Frame_11">
</g>
<g id="Frame_12">
</g>
<g id="Frame_13">
</g>
<g id="Frame_14">
</g>
<g id="Frame_15">
</g>
<g id="Frame_16">
</g>
<g id="Frame_17">
</g>
<g id="Frame_18">
</g>
<g id="Frame_19">
</g>
<g id="Frame_20">
</g>
<g id="Frame_21">
</g>
<g id="Frame_22">
</g>
<g id="Frame_23">
</g>
<g id="Frame_24">
</g>
<g id="Frame_25">
</g>
<g id="Frame_26">
</g>
<g id="Frame_27">
</g>
<g id="Frame_28">
</g>
<g id="Frame_29">
</g>
<g id="Frame_30">
</g>
<g id="Frame_Hole_1">
</g>
<g id="Frame_Hole_2">
</g>
<g id="Frame_Hole_3">
</g>
<g id="Frame_Hole_4">
</g>
<g id="Frame_31">
</g>
<g id="Frame_32">
</g>
<g id="Frame_33">
</g>
<g id="Frame_34">
</g>
<g id="Frame_35">
</g>
<g id="Dashed_Frame_1">
</g>
<g id="Dashed_Frame_2">
</g>
<g id="Dashed_Frame_3">
</g>
<g id="Dashed_Frame_4">
</g>
<g id="Dashed_Frame_5">
</g>
<g id="Dashed_Frame_6">
	<g>
		<g>
			<g>
				<path d="M11.805,26.627c-0.042,0-0.086-0.006-0.129-0.017c-0.4-0.107-0.756-0.232-1.029-0.363
					c-0.173-0.084-0.283-0.259-0.283-0.451v-1.217h-0.5c-0.276,0-0.5-0.224-0.5-0.5s0.224-0.5,0.5-0.5h1c0.276,0,0.5,0.224,0.5,0.5
					v1.386c0.146,0.055,0.335,0.116,0.57,0.179c0.267,0.071,0.426,0.346,0.354,0.612C12.229,26.479,12.026,26.627,11.805,26.627z"/>
			</g>
			<g>
				<path d="M9.5,24.579h-1c-0.276,0-0.5-0.224-0.5-0.5v-1c0-0.276,0.224-0.5,0.5-0.5s0.5,0.224,0.5,0.5v0.5h0.5
					c0.276,0,0.5,0.224,0.5,0.5S9.776,24.579,9.5,24.579z"/>
			</g>
			<g>
				<path d="M8.5,21.783c-0.276,0-0.5-0.224-0.5-0.5v-1.795c0-0.276,0.224-0.5,0.5-0.5s0.5,0.224,0.5,0.5v1.795
					C9,21.56,8.776,21.783,8.5,21.783z M8.5,18.192c-0.276,0-0.5-0.224-0.5-0.5v-1.795c0-0.276,0.224-0.5,0.5-0.5s0.5,0.224,0.5,0.5
					v1.795C9,17.969,8.776,18.192,8.5,18.192z M8.5,14.602c-0.276,0-0.5-0.224-0.5-0.5v-1.795c0-0.276,0.224-0.5,0.5-0.5
					S9,12.03,9,12.307v1.795C9,14.378,8.776,14.602,8.5,14.602z M8.5,11.012c-0.276,0-0.5-0.224-0.5-0.5V8.716
					c0-0.276,0.224-0.5,0.5-0.5S9,8.439,9,8.716v1.796C9,10.788,8.776,11.012,8.5,11.012z"/>
			</g>
			<g>
				<path d="M8.5,7.421c-0.276,0-0.5-0.224-0.5-0.5v-1c0-0.276,0.224-0.5,0.5-0.5h1c0.276,0,0.5,0.224,0.5,0.5s-0.224,0.5-0.5,0.5H9
					v0.5C9,7.197,8.776,7.421,8.5,7.421z"/>
			</g>
			<g>
				<path d="M10.863,6.421h-1c-0.276,0-0.5-0.224-0.5-0.5s0.224-0.5,0.5-0.5h0.5V4.204c0-0.192,0.11-0.367,0.283-0.451
					c0.273-0.131,0.629-0.256,1.029-0.363c0.269-0.068,0.542,0.089,0.612,0.354c0.071,0.267-0.088,0.541-0.354,0.612
					c-0.235,0.063-0.424,0.124-0.57,0.179v1.386C11.363,6.197,11.14,6.421,10.863,6.421z"/>
			</g>
			<g>
				<path d="M16.072,4.037c-0.013,0-0.024,0-0.036-0.001c-0.647-0.045-1.429-0.045-2.076,0c-0.272,0.021-0.515-0.188-0.534-0.464
					c-0.019-0.275,0.188-0.515,0.464-0.534c0.694-0.049,1.526-0.049,2.217,0c0.275,0.02,0.483,0.259,0.464,0.534
					C16.552,3.836,16.332,4.037,16.072,4.037z"/>
			</g>
			<g>
				<path d="M20.137,6.421h-1c-0.276,0-0.5-0.224-0.5-0.5V4.535c-0.146-0.055-0.335-0.116-0.57-0.179
					c-0.267-0.071-0.426-0.346-0.354-0.612c0.071-0.266,0.343-0.423,0.612-0.354c0.4,0.107,0.756,0.232,1.029,0.363
					c0.173,0.084,0.283,0.259,0.283,0.451v1.217h0.5c0.276,0,0.5,0.224,0.5,0.5S20.413,6.421,20.137,6.421z"/>
			</g>
			<g>
				<path d="M21.5,7.421c-0.276,0-0.5-0.224-0.5-0.5v-0.5h-0.5c-0.276,0-0.5-0.224-0.5-0.5s0.224-0.5,0.5-0.5h1
					c0.276,0,0.5,0.224,0.5,0.5v1C22,7.197,21.776,7.421,21.5,7.421z"/>
			</g>
			<g>
				<path d="M21.5,21.784c-0.276,0-0.5-0.224-0.5-0.5v-1.796c0-0.276,0.224-0.5,0.5-0.5s0.5,0.224,0.5,0.5v1.796
					C22,21.561,21.776,21.784,21.5,21.784z M21.5,18.193c-0.276,0-0.5-0.224-0.5-0.5v-1.795c0-0.276,0.224-0.5,0.5-0.5
					s0.5,0.224,0.5,0.5v1.795C22,17.97,21.776,18.193,21.5,18.193z M21.5,14.603c-0.276,0-0.5-0.224-0.5-0.5v-1.795
					c0-0.276,0.224-0.5,0.5-0.5s0.5,0.224,0.5,0.5v1.795C22,14.379,21.776,14.603,21.5,14.603z M21.5,11.012
					c-0.276,0-0.5-0.224-0.5-0.5V8.717c0-0.276,0.224-0.5,0.5-0.5S22,8.44,22,8.717v1.795C22,10.788,21.776,11.012,21.5,11.012z"/>
			</g>
			<g>
				<path d="M21.5,24.579h-1c-0.276,0-0.5-0.224-0.5-0.5s0.224-0.5,0.5-0.5H21v-0.5c0-0.276,0.224-0.5,0.5-0.5s0.5,0.224,0.5,0.5v1
					C22,24.355,21.776,24.579,21.5,24.579z"/>
			</g>
			<g>
				<path d="M18.195,26.627c-0.222,0-0.424-0.147-0.483-0.371c-0.071-0.267,0.088-0.541,0.354-0.612
					c0.235-0.063,0.424-0.124,0.57-0.179v-1.386c0-0.276,0.224-0.5,0.5-0.5h1c0.276,0,0.5,0.224,0.5,0.5s-0.224,0.5-0.5,0.5h-0.5
					v1.217c0,0.192-0.11,0.367-0.283,0.451c-0.273,0.131-0.629,0.256-1.029,0.363C18.281,26.621,18.237,26.627,18.195,26.627z"/>
			</g>
			<g>
				<path d="M15,27c-0.393,0-0.762-0.014-1.106-0.038c-0.275-0.02-0.483-0.259-0.464-0.534c0.02-0.276,0.278-0.482,0.534-0.464
					c0.647,0.045,1.429,0.045,2.076,0c0.271-0.03,0.515,0.188,0.534,0.464c0.019,0.275-0.188,0.515-0.464,0.534
					C15.763,26.986,15.394,27,15,27z"/>
			</g>
		</g>
		<g>
			<path d="M15,30c-3.91,0-6.941-1.259-7.431-3H5.5C5.224,27,5,26.776,5,26.5v-23C5,3.224,5.224,3,5.5,3h2.069
				C8.059,1.259,11.09,0,15,0s6.941,1.259,7.431,3H24.5C24.776,3,25,3.224,25,3.5v23c0,0.276-0.224,0.5-0.5,0.5h-2.069
				C21.941,28.741,18.91,30,15,30z M6,26h2c0.276,0,0.5,0.224,0.5,0.5c0,1.183,2.67,2.5,6.5,2.5s6.5-1.317,6.5-2.5
				c0-0.276,0.224-0.5,0.5-0.5h2V4h-2c-0.276,0-0.5-0.224-0.5-0.5C21.5,2.317,18.83,1,15,1S8.5,2.317,8.5,3.5C8.5,3.776,8.276,4,8,4
				H6V26z M22.5,3.5h0.01H22.5z"/>
		</g>
	</g>
</g>
<g id="Dashed_Frame_7">
</g>
<g id="Dashed_Frame_8">
</g>
<g id="Dashed_Frame_9">
</g>
<g id="Dashed_Frame_10">
</g>
<g id="Dashed_Frame_11">
</g>
<g id="Dashed_Frame_12">
</g>
<g id="Dashed_Frame_13">
</g>
<g id="Dashed_Frame_14">
</g>
<g id="Dashed_Frame_15">
</g>
<g id="Dashed_Frame_16">
</g>
<g id="Dashed_Frame_17">
</g>
<g id="Dashed_Frame_18">
</g>
<g id="Dashed_Frame_19">
</g>
<g id="Dashed_Frame_20">
</g>
<g id="Dashed_Frame_25">
</g>
<g id="Dashed_Frame_26">
</g>
<g id="Dashed_Frame_27">
</g>
<g id="Dashed_Frame_28">
</g>
<g id="Dashed_Frame_29">
</g>
<g id="Dashed_Frame_30">
</g>
<g id="Dashed_Frame_31">
</g>
<g id="Dashed_Frame_32">
</g>
<g id="Dashed_Frame_33">
</g>
<g id="Dashed_Frame_35">
</g>
</svg>
