<?xml version="1.0" encoding="iso-8859-1"?>
<!-- Generator: Adobe Illustrator 19.2.1, SVG Export Plug-In . SVG Version: 6.00 Build 0)  -->
<svg version="1.1" xmlns="http://www.w3.org/2000/svg" xmlns:xlink="http://www.w3.org/1999/xlink" x="0px" y="0px"
	 viewBox="0 0 24 24" style="enable-background:new 0 0 24 24;" xml:space="preserve">
<g id="Photo_frame">
</g>
<g id="Photo_frame_2">
</g>
<g id="Photo_frame_3">
</g>
<g id="Photo_frame__4">
</g>
<g id="Photo_frame_5">
</g>
<g id="Photo_frame_6">
</g>
<g id="Photo_frame_7">
</g>
<g id="Round_Frame_1">
</g>
<g id="Rectangle_Frame_1">
</g>
<g id="Square_Frame_1">
</g>
<g id="Rectangle_Frame_2">
</g>
<g id="Oval_Frame_1">
</g>
<g id="Round_Frame_2">
</g>
<g id="Rectangle_Frame_3">
</g>
<g id="Rectangle_Frame_4">
</g>
<g id="Rectangle_Frame_5">
</g>
<g id="Square_Frame_2">
</g>
<g id="Rectangle_Frame_6">
</g>
<g id="Rectangle_Frame_7">
</g>
<g id="Oval_Frame_2">
</g>
<g id="Round_Frame_3">
</g>
<g id="Rectangle_Frame_8">
</g>
<g id="Square_Frame_3">
</g>
<g id="Rectangle_Frame_9">
</g>
<g id="Rectangle_Frame_10">
</g>
<g id="Square_Frame_4">
</g>
<g id="Rectangle_Frame_11">
</g>
<g id="Rectangle_Frame_12">
</g>
<g id="Square_Frame_5">
</g>
<g id="Rectangle_Frame_13">
</g>
<g id="Round_Frame">
</g>
<g id="Frame_2">
</g>
<g id="Frame_1">
</g>
<g id="Frame_3">
</g>
<g id="Frame_4">
</g>
<g id="Frame_5">
</g>
<g id="Frame_6">
</g>
<g id="Frame_7">
</g>
<g id="Frame_8">
</g>
<g id="Frame_9">
</g>
<g id="Frame_10">
</g>
<g id="Frame_11">
</g>
<g id="Frame_12">
</g>
<g id="Frame_13">
</g>
<g id="Frame_14">
</g>
<g id="Frame_15">
</g>
<g id="Frame_16">
</g>
<g id="Frame_17">
</g>
<g id="Frame_18">
</g>
<g id="Frame_19">
</g>
<g id="Frame_20">
</g>
<g id="Frame_21">
</g>
<g id="Frame_22">
</g>
<g id="Frame_23">
</g>
<g id="Frame_24">
</g>
<g id="Frame_25">
</g>
<g id="Frame_26">
</g>
<g id="Frame_27">
</g>
<g id="Frame_28">
</g>
<g id="Frame_29">
</g>
<g id="Frame_30">
</g>
<g id="Frame_Hole_1">
</g>
<g id="Frame_Hole_2">
</g>
<g id="Frame_Hole_3">
</g>
<g id="Frame_Hole_4">
</g>
<g id="Frame_31">
</g>
<g id="Frame_32">
</g>
<g id="Frame_33">
</g>
<g id="Frame_34">
</g>
<g id="Frame_35">
</g>
<g id="Dashed_Frame_1">
</g>
<g id="Dashed_Frame_2">
</g>
<g id="Dashed_Frame_3">
</g>
<g id="Dashed_Frame_4">
</g>
<g id="Dashed_Frame_5">
</g>
<g id="Dashed_Frame_6">
</g>
<g id="Dashed_Frame_7">
</g>
<g id="Dashed_Frame_8">
</g>
<g id="Dashed_Frame_9">
</g>
<g id="Dashed_Frame_10">
</g>
<g id="Dashed_Frame_11">
</g>
<g id="Dashed_Frame_12">
</g>
<g id="Dashed_Frame_13">
</g>
<g id="Dashed_Frame_14">
</g>
<g id="Dashed_Frame_15">
</g>
<g id="Dashed_Frame_16">
</g>
<g id="Dashed_Frame_17">
</g>
<g id="Dashed_Frame_18">
	<path d="M24.016,17.361c-0.01-0.035-1.016-3.511-1.016-5.36c0-1.851,1.007-5.325,1.017-5.36c0.044-0.15-0.004-0.313-0.099-0.439
		C23.825,6.075,23.658,6,23.501,6c-0.827,0-1.5-0.673-1.5-1.5V4.176c0-0.152-0.069-0.296-0.188-0.391s-0.274-0.132-0.422-0.097
		C21.332,3.702,15.561,5,12.001,5s-9.332-1.299-9.39-1.312C2.462,3.653,2.307,3.691,2.189,3.786S2.001,4.024,2.001,4.176V4.5
		c0,0.827-0.673,1.5-1.537,1.5c-0.157,0-0.306,0.074-0.4,0.2C-0.031,6.327-0.06,6.49-0.016,6.64c0.01,0.035,1.017,3.51,1.017,5.36
		c0,1.745-0.908,4.982-1.012,5.346c-0.043,0.151-0.018,0.33,0.077,0.455C0.16,17.927,0.308,18,0.465,18
		c0.847,0,1.536,0.689,1.536,1.536v0.288c0,0.142,0.061,0.277,0.166,0.372s0.245,0.141,0.388,0.125
		c0.099-0.011,0.414-0.071,0.882-0.163C5.194,19.812,9.311,19,12.001,19s6.806,0.812,8.564,1.158
		c0.469,0.092,0.784,0.152,0.882,0.163c0.018,0.002,0.036,0.003,0.054,0.003c0.123,0,0.242-0.045,0.334-0.128
		c0.105-0.095,0.166-0.23,0.166-0.372v-0.288c0-0.847,0.689-1.536,1.536-1.536c0.157,0,0.306-0.074,0.4-0.2
		S24.06,17.512,24.016,17.361z M18.98,6.21c0.348-0.063,0.674-0.124,0.974-0.183c0.206-0.039,0.419,0.055,0.526,0.238
		c0.246,0.419,0.57,0.776,0.963,1.063c0.163,0.119,0.238,0.324,0.191,0.521c-0.072,0.301-0.145,0.626-0.216,0.963
		c-0.049,0.235-0.257,0.397-0.489,0.397c-0.034,0-0.068-0.003-0.103-0.011c-0.271-0.057-0.443-0.321-0.387-0.592
		c0.049-0.233,0.099-0.46,0.149-0.679c-0.296-0.251-0.556-0.536-0.778-0.854c-0.208,0.04-0.427,0.08-0.655,0.121
		c-0.268,0.047-0.532-0.132-0.58-0.404C18.527,6.519,18.708,6.259,18.98,6.21z M21.066,13.061c0.03,0.275-0.168,0.521-0.443,0.552
		c-0.019,0.002-0.037,0.003-0.055,0.003c-0.252,0-0.469-0.189-0.497-0.445c-0.045-0.413-0.071-0.81-0.071-1.17
		c0-0.355,0.025-0.746,0.069-1.152c0.029-0.275,0.279-0.479,0.551-0.443c0.275,0.029,0.473,0.276,0.443,0.551
		c-0.04,0.369-0.063,0.723-0.063,1.045C21.001,12.327,21.025,12.687,21.066,13.061z M2.559,7.324
		c0.387-0.281,0.72-0.647,0.962-1.059c0.107-0.183,0.319-0.276,0.526-0.237c0.3,0.059,0.627,0.12,0.975,0.183
		c0.271,0.05,0.452,0.31,0.403,0.581C5.375,7.064,5.114,7.241,4.843,7.195C4.616,7.154,4.397,7.113,4.189,7.074
		C3.967,7.39,3.708,7.674,3.412,7.924c0.05,0.218,0.1,0.444,0.149,0.678c0.057,0.271-0.116,0.535-0.387,0.592
		C3.14,9.202,3.105,9.204,3.071,9.204c-0.231,0-0.439-0.162-0.489-0.397C2.511,8.47,2.438,8.145,2.366,7.844
		C2.319,7.647,2.396,7.442,2.559,7.324z M2.936,10.949c-0.03-0.274,0.168-0.521,0.443-0.551C3.652,10.37,3.9,10.566,3.93,10.841
		c0.044,0.409,0.07,0.802,0.07,1.159c0,0.359-0.026,0.754-0.071,1.166c-0.028,0.256-0.245,0.445-0.497,0.445
		c-0.018,0-0.037-0.001-0.055-0.003c-0.275-0.03-0.473-0.277-0.443-0.552c0.041-0.373,0.065-0.73,0.065-1.057
		C3.001,11.676,2.977,11.321,2.936,10.949z M5.025,17.819l-0.977,0.183c-0.031,0.006-0.063,0.009-0.094,0.009
		c-0.176,0-0.341-0.093-0.432-0.248c-0.247-0.424-0.573-0.786-0.969-1.078c-0.162-0.118-0.236-0.323-0.19-0.519
		c0.072-0.303,0.146-0.628,0.216-0.962c0.057-0.271,0.322-0.448,0.592-0.387c0.27,0.057,0.443,0.322,0.386,0.592
		c-0.049,0.232-0.099,0.459-0.149,0.679c0.299,0.256,0.563,0.546,0.786,0.869l0.652-0.122c0.274-0.047,0.532,0.132,0.582,0.403
		C5.477,17.509,5.296,17.769,5.025,17.819z M7.013,6.542c0.651,0.099,1.326,0.19,1.997,0.265c0.274,0.03,0.472,0.277,0.442,0.552
		C9.423,7.615,9.207,7.804,8.955,7.804c-0.018,0-0.037-0.001-0.056-0.003c-0.684-0.076-1.372-0.17-2.036-0.271
		C6.59,7.49,6.403,7.235,6.444,6.961C6.485,6.689,6.74,6.501,7.013,6.542z M9.017,17.206c-0.669,0.078-1.344,0.173-1.996,0.274
		c-0.026,0.004-0.052,0.006-0.078,0.006c-0.242,0-0.455-0.176-0.494-0.423c-0.042-0.273,0.145-0.528,0.417-0.571
		c0.665-0.104,1.353-0.2,2.034-0.28c0.275-0.024,0.523,0.165,0.555,0.438C9.488,16.925,9.292,17.174,9.017,17.206z M11.006,6.975
		C11.349,6.992,11.683,6.995,11.999,7c0.319,0,0.65-0.01,0.992-0.025c0.268-0.043,0.51,0.199,0.523,0.476
		c0.013,0.275-0.2,0.51-0.476,0.522C12.664,7.992,12.3,8,11.955,8c-0.32,0-0.654-0.01-0.998-0.027
		c-0.276-0.014-0.488-0.248-0.475-0.524C10.496,7.173,10.729,6.94,11.006,6.975z M12.992,17.029c-0.686-0.034-1.295-0.034-1.98,0
		c-0.009,0.001-0.018,0.001-0.027,0.001c-0.264,0-0.485-0.207-0.499-0.474c-0.014-0.275,0.197-0.511,0.473-0.525
		c0.722-0.04,1.362-0.04,2.086,0c0.276,0.015,0.487,0.25,0.473,0.525C13.503,16.831,13.276,17.05,12.992,17.029z M14.986,6.808
		c0.671-0.074,1.346-0.165,1.997-0.264c0.275-0.043,0.528,0.146,0.569,0.419c0.042,0.273-0.146,0.528-0.419,0.569
		c-0.664,0.101-1.352,0.193-2.036,0.27c-0.019,0.002-0.038,0.003-0.056,0.003c-0.251,0-0.468-0.189-0.497-0.445
		C14.514,7.085,14.711,6.838,14.986,6.808z M17.06,17.487c-0.025,0-0.051-0.002-0.078-0.006c-0.652-0.102-1.327-0.196-1.996-0.274
		c-0.274-0.032-0.471-0.281-0.438-0.556c0.032-0.273,0.287-0.463,0.555-0.438c0.682,0.08,1.37,0.177,2.034,0.28
		c0.272,0.043,0.459,0.298,0.417,0.571C17.515,17.311,17.302,17.487,17.06,17.487z M21.447,16.685
		c-0.396,0.292-0.722,0.654-0.968,1.077c-0.091,0.155-0.256,0.248-0.432,0.248c-0.031,0-0.063-0.003-0.094-0.009l-0.977-0.183
		c-0.271-0.05-0.452-0.31-0.403-0.581c0.05-0.271,0.304-0.45,0.582-0.403l0.652,0.122c0.223-0.322,0.485-0.612,0.784-0.868
		c-0.05-0.218-0.1-0.446-0.149-0.68c-0.057-0.271,0.116-0.535,0.387-0.592c0.267-0.062,0.535,0.116,0.592,0.387
		c0.071,0.337,0.144,0.662,0.216,0.963C21.683,16.362,21.609,16.566,21.447,16.685z"/>
</g>
<g id="Dashed_Frame_19">
</g>
<g id="Dashed_Frame_20">
</g>
<g id="Dashed_Frame_25">
</g>
<g id="Dashed_Frame_26">
</g>
<g id="Dashed_Frame_27">
</g>
<g id="Dashed_Frame_28">
</g>
<g id="Dashed_Frame_29">
</g>
<g id="Dashed_Frame_30">
</g>
<g id="Dashed_Frame_31">
</g>
<g id="Dashed_Frame_32">
</g>
<g id="Dashed_Frame_33">
</g>
<g id="Dashed_Frame_35">
</g>
</svg>
