<?xml version="1.0" encoding="iso-8859-1"?>
<!-- Generator: Adobe Illustrator 19.2.1, SVG Export Plug-In . SVG Version: 6.00 Build 0)  -->
<svg version="1.1" xmlns="http://www.w3.org/2000/svg" xmlns:xlink="http://www.w3.org/1999/xlink" x="0px" y="0px"
	 viewBox="0 0 30 30" style="enable-background:new 0 0 30 30;" xml:space="preserve">
<g id="Photo_frame">
</g>
<g id="Photo_frame_2">
</g>
<g id="Photo_frame_3">
</g>
<g id="Photo_frame__4">
</g>
<g id="Photo_frame_5">
</g>
<g id="Photo_frame_6">
</g>
<g id="Photo_frame_7">
</g>
<g id="Round_Frame_1">
</g>
<g id="Rectangle_Frame_1">
</g>
<g id="Square_Frame_1">
</g>
<g id="Rectangle_Frame_2">
</g>
<g id="Oval_Frame_1">
</g>
<g id="Round_Frame_2">
</g>
<g id="Rectangle_Frame_3">
</g>
<g id="Rectangle_Frame_4">
</g>
<g id="Rectangle_Frame_5">
</g>
<g id="Square_Frame_2">
</g>
<g id="Rectangle_Frame_6">
</g>
<g id="Rectangle_Frame_7">
</g>
<g id="Oval_Frame_2">
</g>
<g id="Round_Frame_3">
</g>
<g id="Rectangle_Frame_8">
</g>
<g id="Square_Frame_3">
</g>
<g id="Rectangle_Frame_9">
</g>
<g id="Rectangle_Frame_10">
</g>
<g id="Square_Frame_4">
</g>
<g id="Rectangle_Frame_11">
</g>
<g id="Rectangle_Frame_12">
</g>
<g id="Square_Frame_5">
</g>
<g id="Rectangle_Frame_13">
</g>
<g id="Round_Frame">
</g>
<g id="Frame_2">
</g>
<g id="Frame_1">
</g>
<g id="Frame_3">
</g>
<g id="Frame_4">
</g>
<g id="Frame_5">
</g>
<g id="Frame_6">
</g>
<g id="Frame_7">
</g>
<g id="Frame_8">
</g>
<g id="Frame_9">
</g>
<g id="Frame_10">
</g>
<g id="Frame_11">
</g>
<g id="Frame_12">
</g>
<g id="Frame_13">
</g>
<g id="Frame_14">
</g>
<g id="Frame_15">
</g>
<g id="Frame_16">
</g>
<g id="Frame_17">
</g>
<g id="Frame_18">
</g>
<g id="Frame_19">
</g>
<g id="Frame_20">
</g>
<g id="Frame_21">
</g>
<g id="Frame_22">
</g>
<g id="Frame_23">
</g>
<g id="Frame_24">
</g>
<g id="Frame_25">
</g>
<g id="Frame_26">
</g>
<g id="Frame_27">
</g>
<g id="Frame_28">
</g>
<g id="Frame_29">
</g>
<g id="Frame_30">
</g>
<g id="Frame_Hole_1">
</g>
<g id="Frame_Hole_2">
</g>
<g id="Frame_Hole_3">
</g>
<g id="Frame_Hole_4">
</g>
<g id="Frame_31">
</g>
<g id="Frame_32">
</g>
<g id="Frame_33">
</g>
<g id="Frame_34">
</g>
<g id="Frame_35">
</g>
<g id="Dashed_Frame_1">
</g>
<g id="Dashed_Frame_2">
</g>
<g id="Dashed_Frame_3">
</g>
<g id="Dashed_Frame_4">
</g>
<g id="Dashed_Frame_5">
</g>
<g id="Dashed_Frame_6">
</g>
<g id="Dashed_Frame_7">
</g>
<g id="Dashed_Frame_8">
</g>
<g id="Dashed_Frame_9">
</g>
<g id="Dashed_Frame_10">
</g>
<g id="Dashed_Frame_11">
</g>
<g id="Dashed_Frame_12">
</g>
<g id="Dashed_Frame_13">
</g>
<g id="Dashed_Frame_14">
</g>
<g id="Dashed_Frame_15">
</g>
<g id="Dashed_Frame_16">
	<path d="M29.995,8.569c0.021-0.143-0.022-0.288-0.118-0.397C29.782,8.063,29.645,8,29.5,8H27V5c0-0.143-0.061-0.278-0.167-0.373
		c-0.106-0.095-0.251-0.142-0.389-0.124L15,5.793L3.556,4.503c-0.144-0.014-0.283,0.03-0.389,0.124C3.061,4.722,3,4.857,3,5v3H0.5
		C0.355,8,0.218,8.063,0.123,8.172C0.028,8.281-0.015,8.426,0.005,8.569L0.908,15l-0.903,6.431c-0.02,0.144,0.023,0.288,0.118,0.397
		C0.218,21.938,0.355,22,0.5,22H3v3c0,0.143,0.061,0.278,0.167,0.373c0.105,0.095,0.242,0.136,0.389,0.124L15,24.207l11.444,1.29
		c0.019,0.002,0.037,0.003,0.056,0.003c0.122,0,0.241-0.045,0.333-0.127C26.939,25.278,27,25.143,27,25v-3h2.498
		c0.145,0,0.282-0.063,0.377-0.172c0.096-0.109,0.139-0.255,0.118-0.397l-0.902-6.409L29.995,8.569z M7.133,22.046l-0.995,0.106
		c-0.018,0.002-0.036,0.003-0.053,0.003c-0.123,0-0.242-0.045-0.334-0.128c-0.106-0.095-0.166-0.23-0.166-0.372v-1
		c0-0.092,0.032-0.174,0.075-0.248c-0.044-0.074-0.075-0.156-0.075-0.248v-0.5h-0.5c-0.015,0-0.028-0.007-0.043-0.009
		C5.028,19.652,5.015,19.659,5,19.659H4c-0.144,0-0.281-0.063-0.376-0.17c-0.095-0.108-0.139-0.253-0.12-0.396l0.131-0.991
		c0.036-0.274,0.285-0.468,0.561-0.431c0.274,0.036,0.466,0.288,0.43,0.562L4.57,18.659H5c0.015,0,0.028,0.007,0.043,0.009
		c0.015-0.001,0.028-0.009,0.043-0.009h1c0.276,0,0.5,0.224,0.5,0.5v1c0,0.092-0.032,0.174-0.075,0.248
		c0.044,0.074,0.075,0.156,0.075,0.248v0.443l0.441-0.047c0.283-0.023,0.521,0.17,0.55,0.444S7.408,22.017,7.133,22.046z
		 M3.914,14.009c-0.036-0.273,0.156-0.525,0.43-0.561c0.271-0.037,0.524,0.156,0.561,0.43l0.14,1.057
		c0.006,0.043,0.006,0.087,0,0.131l-0.139,1.056c-0.033,0.252-0.248,0.435-0.495,0.435c-0.021,0-0.043-0.001-0.066-0.004
		c-0.274-0.036-0.466-0.288-0.43-0.562L4.045,15L3.914,14.009z M7.027,8.948L6.585,8.901v0.444c0,0.092-0.032,0.174-0.075,0.248
		C6.554,9.667,6.585,9.748,6.585,9.84v1c0,0.276-0.224,0.5-0.5,0.5h-1c-0.015,0-0.028-0.007-0.043-0.009
		C5.028,11.333,5.015,11.34,5,11.34H4.57l0.056,0.426c0.036,0.274-0.156,0.525-0.43,0.561c-0.022,0.003-0.044,0.004-0.066,0.004
		c-0.247,0-0.462-0.183-0.495-0.435l-0.131-0.991c-0.019-0.143,0.025-0.287,0.12-0.395S3.856,10.34,4,10.34h1
		c0.015,0,0.028,0.007,0.043,0.009c0.015-0.001,0.028-0.009,0.043-0.009h0.5v-0.5c0-0.092,0.032-0.174,0.075-0.248
		C5.617,9.519,5.585,9.437,5.585,9.345v-1c0-0.142,0.06-0.277,0.166-0.372s0.245-0.142,0.387-0.125l0.995,0.106
		c0.275,0.029,0.474,0.275,0.444,0.55S7.296,8.977,7.027,8.948z M10.652,21.67l-1.76,0.188c-0.018,0.002-0.036,0.003-0.054,0.003
		c-0.252,0-0.469-0.19-0.497-0.446c-0.029-0.275,0.169-0.521,0.444-0.551l1.76-0.188c0.282-0.03,0.521,0.17,0.55,0.443
		C11.125,21.395,10.927,21.641,10.652,21.67z M10.6,9.328c-0.018,0-0.036-0.001-0.054-0.003l-1.76-0.188
		c-0.274-0.029-0.473-0.275-0.444-0.55c0.029-0.274,0.267-0.48,0.55-0.444l1.76,0.188c0.274,0.029,0.473,0.275,0.444,0.55
		C11.069,9.137,10.853,9.328,10.6,9.328z M14.172,21.293l-1.76,0.188c-0.018,0.002-0.036,0.003-0.054,0.003
		c-0.252,0-0.469-0.19-0.497-0.446c-0.029-0.275,0.169-0.521,0.444-0.551l1.76-0.188c0.279-0.028,0.521,0.17,0.55,0.443
		C14.646,21.018,14.447,21.264,14.172,21.293z M14.12,9.704c-0.018,0-0.036-0.001-0.054-0.003l-1.76-0.188
		c-0.274-0.029-0.473-0.275-0.444-0.55c0.029-0.274,0.272-0.473,0.55-0.444l1.76,0.188c0.274,0.029,0.473,0.275,0.444,0.55
		C14.589,9.513,14.372,9.704,14.12,9.704z M17.64,21.484c-0.019,0-0.036-0.001-0.055-0.003l-1.759-0.188
		c-0.274-0.029-0.473-0.275-0.444-0.551c0.029-0.274,0.271-0.478,0.55-0.443l1.76,0.188c0.274,0.029,0.473,0.275,0.443,0.551
		C18.108,21.294,17.892,21.484,17.64,21.484z M17.691,9.513l-1.759,0.188c-0.018,0.002-0.036,0.003-0.054,0.003
		c-0.252,0-0.469-0.19-0.497-0.447c-0.029-0.275,0.169-0.521,0.444-0.55l1.76-0.188c0.26-0.027,0.521,0.169,0.55,0.444
		S17.967,9.483,17.691,9.513z M21.159,21.86c-0.019,0-0.036-0.001-0.055-0.003l-1.76-0.188c-0.274-0.029-0.473-0.275-0.443-0.551
		c0.029-0.274,0.281-0.469,0.551-0.443l1.76,0.188c0.274,0.029,0.473,0.275,0.443,0.551C21.628,21.67,21.411,21.86,21.159,21.86z
		 M21.211,9.137l-1.76,0.188c-0.018,0.002-0.035,0.003-0.054,0.003c-0.252,0-0.469-0.19-0.496-0.447
		c-0.029-0.275,0.169-0.521,0.444-0.55l1.76-0.188c0.257-0.028,0.521,0.169,0.55,0.444S21.486,9.107,21.211,9.137z M26.372,19.489
		c-0.095,0.107-0.232,0.17-0.376,0.17h-1c-0.015,0-0.027-0.007-0.042-0.008c-0.014,0.001-0.027,0.008-0.042,0.008h-0.5v0.5
		c0,0.092-0.032,0.174-0.075,0.248c0.044,0.074,0.075,0.156,0.075,0.248v1c0,0.142-0.061,0.277-0.166,0.372
		c-0.092,0.083-0.211,0.128-0.334,0.128c-0.018,0-0.035-0.001-0.053-0.003l-0.995-0.106c-0.275-0.029-0.474-0.275-0.444-0.55
		c0.029-0.275,0.293-0.47,0.55-0.444l0.442,0.047v-0.443c0-0.092,0.032-0.174,0.075-0.248c-0.044-0.074-0.075-0.156-0.075-0.248v-1
		c0-0.276,0.224-0.5,0.5-0.5h1c0.015,0,0.027,0.007,0.042,0.008c0.014-0.001,0.027-0.008,0.042-0.008h0.43l-0.057-0.426
		c-0.036-0.273,0.157-0.525,0.431-0.562c0.265-0.039,0.525,0.155,0.562,0.431l0.131,0.991
		C26.511,19.236,26.467,19.381,26.372,19.489z M26.082,15.99c0.036,0.274-0.156,0.525-0.43,0.562
		c-0.022,0.003-0.045,0.004-0.067,0.004c-0.246,0-0.461-0.183-0.495-0.434l-0.138-1.035c-0.005-0.043-0.005-0.088,0-0.131
		l0.143-1.077c0.037-0.274,0.291-0.464,0.562-0.43c0.274,0.036,0.467,0.288,0.431,0.561l-0.135,1.012L26.082,15.99z M26.365,11.897
		c-0.033,0.251-0.248,0.435-0.495,0.435c-0.022,0-0.044-0.001-0.066-0.004c-0.273-0.036-0.467-0.287-0.431-0.561l0.057-0.426H25
		c-0.015,0-0.028-0.007-0.043-0.009c-0.015,0.001-0.028,0.009-0.043,0.009h-1c-0.276,0-0.5-0.224-0.5-0.5v-1
		c0-0.092,0.032-0.174,0.075-0.248c-0.043-0.074-0.075-0.156-0.075-0.248V8.901l-0.442,0.047c-0.271,0.027-0.521-0.17-0.55-0.444
		s0.17-0.521,0.444-0.55l0.995-0.106c0.14-0.016,0.282,0.031,0.387,0.125c0.105,0.095,0.166,0.23,0.166,0.372v1
		c0,0.092-0.032,0.174-0.075,0.248c0.043,0.074,0.075,0.156,0.075,0.248v0.5h0.5c0.015,0,0.028,0.007,0.043,0.009
		c0.015-0.001,0.028-0.009,0.043-0.009h1c0.144,0,0.281,0.062,0.376,0.17s0.139,0.252,0.12,0.395L26.365,11.897z"/>
</g>
<g id="Dashed_Frame_17">
</g>
<g id="Dashed_Frame_18">
</g>
<g id="Dashed_Frame_19">
</g>
<g id="Dashed_Frame_20">
</g>
<g id="Dashed_Frame_25">
</g>
<g id="Dashed_Frame_26">
</g>
<g id="Dashed_Frame_27">
</g>
<g id="Dashed_Frame_28">
</g>
<g id="Dashed_Frame_29">
</g>
<g id="Dashed_Frame_30">
</g>
<g id="Dashed_Frame_31">
</g>
<g id="Dashed_Frame_32">
</g>
<g id="Dashed_Frame_33">
</g>
<g id="Dashed_Frame_35">
</g>
</svg>
