<?xml version="1.0" encoding="iso-8859-1"?>
<!-- Generator: Adobe Illustrator 19.2.1, SVG Export Plug-In . SVG Version: 6.00 Build 0)  -->
<svg version="1.1" xmlns="http://www.w3.org/2000/svg" xmlns:xlink="http://www.w3.org/1999/xlink" x="0px" y="0px"
	 viewBox="0 0 30 30" style="enable-background:new 0 0 30 30;" xml:space="preserve">
<g id="Photo_frame">
</g>
<g id="Photo_frame_2">
</g>
<g id="Photo_frame_3">
</g>
<g id="Photo_frame__4">
</g>
<g id="Photo_frame_5">
</g>
<g id="Photo_frame_6">
</g>
<g id="Photo_frame_7">
</g>
<g id="Round_Frame_1">
</g>
<g id="Rectangle_Frame_1">
</g>
<g id="Square_Frame_1">
</g>
<g id="Rectangle_Frame_2">
</g>
<g id="Oval_Frame_1">
</g>
<g id="Round_Frame_2">
</g>
<g id="Rectangle_Frame_3">
</g>
<g id="Rectangle_Frame_4">
</g>
<g id="Rectangle_Frame_5">
</g>
<g id="Square_Frame_2">
</g>
<g id="Rectangle_Frame_6">
</g>
<g id="Rectangle_Frame_7">
</g>
<g id="Oval_Frame_2">
</g>
<g id="Round_Frame_3">
</g>
<g id="Rectangle_Frame_8">
</g>
<g id="Square_Frame_3">
</g>
<g id="Rectangle_Frame_9">
</g>
<g id="Rectangle_Frame_10">
</g>
<g id="Square_Frame_4">
</g>
<g id="Rectangle_Frame_11">
</g>
<g id="Rectangle_Frame_12">
</g>
<g id="Square_Frame_5">
</g>
<g id="Rectangle_Frame_13">
</g>
<g id="Round_Frame">
</g>
<g id="Frame_2">
</g>
<g id="Frame_1">
</g>
<g id="Frame_3">
</g>
<g id="Frame_4">
</g>
<g id="Frame_5">
</g>
<g id="Frame_6">
</g>
<g id="Frame_7">
</g>
<g id="Frame_8">
</g>
<g id="Frame_9">
</g>
<g id="Frame_10">
</g>
<g id="Frame_11">
</g>
<g id="Frame_12">
</g>
<g id="Frame_13">
</g>
<g id="Frame_14">
</g>
<g id="Frame_15">
</g>
<g id="Frame_16">
</g>
<g id="Frame_17">
</g>
<g id="Frame_18">
</g>
<g id="Frame_19">
</g>
<g id="Frame_20">
</g>
<g id="Frame_21">
</g>
<g id="Frame_22">
</g>
<g id="Frame_23">
</g>
<g id="Frame_24">
</g>
<g id="Frame_25">
</g>
<g id="Frame_26">
</g>
<g id="Frame_27">
</g>
<g id="Frame_28">
</g>
<g id="Frame_29">
</g>
<g id="Frame_30">
</g>
<g id="Frame_Hole_1">
</g>
<g id="Frame_Hole_2">
</g>
<g id="Frame_Hole_3">
</g>
<g id="Frame_Hole_4">
</g>
<g id="Frame_31">
</g>
<g id="Frame_32">
</g>
<g id="Frame_33">
</g>
<g id="Frame_34">
</g>
<g id="Frame_35">
</g>
<g id="Dashed_Frame_1">
</g>
<g id="Dashed_Frame_2">
</g>
<g id="Dashed_Frame_3">
	<g>
		<g>
			<path d="M15,29.782c-2.131,0-5.201-0.398-7.471-3.782H4.5C4.224,26,4,25.776,4,25.5v-3.029c-3.385-2.27-3.783-5.34-3.783-7.471
				S0.615,9.799,4,7.528V4.5C4,4.224,4.224,4,4.5,4h3.028c2.27-3.385,5.34-3.782,7.472-3.782S20.202,0.615,22.472,4H25.5
				C25.776,4,26,4.224,26,4.5v3.028c3.385,2.271,3.783,5.341,3.783,7.472S29.385,20.201,26,22.471V25.5c0,0.276-0.224,0.5-0.5,0.5
				h-3.029C20.201,29.384,17.131,29.782,15,29.782z M5,25h2.799c0.171,0,0.331,0.088,0.422,0.232c1.558,2.455,3.648,3.55,6.778,3.55
				s5.22-1.095,6.778-3.55C21.87,25.088,22.029,25,22.201,25H25v-2.8c0-0.171,0.087-0.33,0.232-0.422
				c2.456-1.559,3.551-3.648,3.551-6.778s-1.095-5.221-3.551-6.779C25.087,8.129,25,7.97,25,7.799V5h-2.799
				c-0.171,0-0.331-0.088-0.422-0.232C20.221,2.313,18.13,1.218,15,1.218s-5.221,1.095-6.778,3.55C8.13,4.912,7.971,5,7.799,5H5
				v2.799c0,0.171-0.087,0.33-0.232,0.422C2.313,9.779,1.217,11.87,1.217,15s1.095,5.22,3.551,6.778C4.913,21.87,5,22.029,5,22.2V25
				z"/>
		</g>
		<g>
			<g>
				<path d="M9.845,24.113c-0.146,0-0.29-0.248-0.389-0.369L9.001,23H8.279c-0.276,0-0.5-0.224-0.5-0.5s0.224-0.5,0.5-0.5h0.96
					c0.15,0,0.293,0.251,0.388,0.369l0.605,0.837c0.174,0.215,0.142,0.575-0.073,0.749C10.067,24.03,9.956,24.113,9.845,24.113z"/>
			</g>
			<g>
				<path d="M8.092,23.368h-0.96c-0.276,0-0.5-0.224-0.5-0.5v-0.96c0-0.276,0.224-0.5,0.5-0.5s0.5,0.224,0.5,0.5v0.46h0.46
					c0.276,0,0.5,0.224,0.5,0.5S8.368,23.368,8.092,23.368z"/>
			</g>
			<g>
				<path d="M7.5,22.222c-0.276,0-0.5-0.224-0.5-0.5v-0.723l-0.745-0.456c-0.214-0.175-0.338-0.489-0.164-0.703
					c0.174-0.215,0.444-0.245,0.658-0.072l0.906,0.606C7.771,20.469,8,20.611,8,20.762v0.96C8,21.998,7.776,22.222,7.5,22.222z"/>
			</g>
			<g>
				<path d="M4.469,18.6c-0.164,0-0.325-0.08-0.42-0.229c-0.399-0.618-0.689-1.266-0.861-1.926c-0.069-0.268,0.091-0.54,0.358-0.61
					c0.266-0.068,0.54,0.092,0.61,0.358C4.3,16.75,4.547,17.3,4.889,17.828c0.15,0.231,0.083,0.541-0.148,0.691
					C4.656,18.574,4.562,18.6,4.469,18.6z M3.746,13.921c-0.049,0-0.1-0.007-0.149-0.022c-0.264-0.083-0.41-0.363-0.328-0.627
					c0.203-0.648,0.52-1.281,0.941-1.882c0.158-0.226,0.47-0.281,0.696-0.122c0.226,0.158,0.281,0.471,0.122,0.696
					c-0.362,0.517-0.633,1.057-0.806,1.606C4.156,13.784,3.959,13.921,3.746,13.921z"/>
			</g>
			<g>
				<path d="M6.387,10.345c-0.146,0-0.29-0.063-0.388-0.185C5.825,9.946,6.041,9.632,6.255,9.457L7,9.001V8.278
					c0-0.276,0.224-0.5,0.5-0.5S8,8.002,8,8.278v0.96c0,0.15-0.252,0.293-0.368,0.388l-0.837,0.606
					C6.702,10.308,6.498,10.345,6.387,10.345z"/>
			</g>
			<g>
				<path d="M7.131,8.592c-0.276,0-0.5-0.224-0.5-0.5v-0.96c0-0.276,0.224-0.5,0.5-0.5h0.96c0.276,0,0.5,0.224,0.5,0.5
					s-0.224,0.5-0.5,0.5h-0.46v0.46C7.631,8.368,7.408,8.592,7.131,8.592z"/>
			</g>
			<g>
				<path d="M9.239,8h-0.96c-0.276,0-0.5-0.224-0.5-0.5S8.002,7,8.279,7h0.722l0.455-0.745c0.174-0.213,0.49-0.338,0.704-0.164
					c0.214,0.174,0.247,0.442,0.073,0.657L9.627,7.654C9.532,7.772,9.389,8,9.239,8z"/>
			</g>
			<g>
				<path d="M18.324,5.119c-0.099,0-0.199-0.029-0.286-0.091c-0.519-0.362-1.06-0.634-1.608-0.805
					c-0.263-0.083-0.41-0.363-0.328-0.627c0.082-0.264,0.361-0.412,0.626-0.328c0.646,0.202,1.279,0.519,1.882,0.941
					c0.226,0.158,0.281,0.47,0.123,0.696C18.637,5.045,18.481,5.119,18.324,5.119z M11.901,4.969c-0.164,0-0.325-0.08-0.42-0.229
					c-0.15-0.231-0.083-0.541,0.148-0.691c0.618-0.399,1.267-0.689,1.926-0.861c0.264-0.073,0.54,0.091,0.61,0.357
					c0.07,0.268-0.091,0.54-0.358,0.609c-0.556,0.146-1.106,0.393-1.635,0.734C12.088,4.943,11.994,4.969,11.901,4.969z"/>
			</g>
			<g>
				<path d="M21.721,8h-0.96c-0.15,0-0.293-0.251-0.388-0.369l-0.605-0.837c-0.174-0.215-0.142-0.575,0.073-0.749
					c0.215-0.174,0.529,0.02,0.704,0.233L20.999,7h0.722c0.276,0,0.5,0.224,0.5,0.5S21.998,8,21.721,8z"/>
			</g>
			<g>
				<path d="M22.869,8.592c-0.276,0-0.5-0.224-0.5-0.5v-0.46h-0.46c-0.276,0-0.5-0.224-0.5-0.5s0.224-0.5,0.5-0.5h0.96
					c0.276,0,0.5,0.224,0.5,0.5v0.96C23.369,8.368,23.145,8.592,22.869,8.592z"/>
			</g>
			<g>
				<path d="M23.613,10.345c-0.111,0-0.223-0.037-0.315-0.112l-0.929-0.606C22.252,9.531,22,9.389,22,9.238v-0.96
					c0-0.276,0.224-0.5,0.5-0.5s0.5,0.224,0.5,0.5v0.723l0.745,0.456c0.214,0.175,0.338,0.489,0.164,0.703
					C23.81,10.282,23.758,10.345,23.613,10.345z"/>
			</g>
			<g>
				<path d="M25.38,18.823c-0.099,0-0.199-0.029-0.287-0.091c-0.226-0.158-0.281-0.471-0.122-0.696
					c0.362-0.517,0.633-1.057,0.806-1.606c0.082-0.264,0.362-0.412,0.626-0.328c0.264,0.083,0.41,0.363,0.328,0.627
					c-0.203,0.648-0.52,1.281-0.941,1.882C25.692,18.749,25.537,18.823,25.38,18.823z M26.328,14.181
					c-0.222,0-0.425-0.149-0.483-0.374c-0.145-0.557-0.391-1.106-0.733-1.635c-0.15-0.231-0.083-0.541,0.148-0.691
					c0.231-0.152,0.541-0.085,0.691,0.148c0.399,0.618,0.689,1.266,0.861,1.926c0.069,0.268-0.091,0.54-0.358,0.61
					C26.412,14.176,26.37,14.181,26.328,14.181z"/>
			</g>
			<g>
				<path d="M22.5,22.222c-0.276,0-0.5-0.224-0.5-0.5v-0.96c0-0.15,0.252-0.293,0.368-0.388l0.837-0.606
					c0.214-0.173,0.576-0.143,0.75,0.072c0.174,0.214-0.019,0.528-0.233,0.703L23,20.999v0.723C23,21.998,22.776,22.222,22.5,22.222
					z"/>
			</g>
			<g>
				<path d="M22.869,23.368h-0.96c-0.276,0-0.5-0.224-0.5-0.5s0.224-0.5,0.5-0.5h0.46v-0.46c0-0.276,0.224-0.5,0.5-0.5
					s0.5,0.224,0.5,0.5v0.96C23.369,23.145,23.145,23.368,22.869,23.368z"/>
			</g>
			<g>
				<path d="M20.155,24.113c-0.111,0-0.222-0.037-0.315-0.112c-0.214-0.174-0.247-0.488-0.073-0.703l0.605-0.929
					C20.468,22.251,20.611,22,20.761,22h0.96c0.276,0,0.5,0.224,0.5,0.5s-0.224,0.5-0.5,0.5h-0.722l-0.455,0.745
					C20.445,23.866,20.301,24.113,20.155,24.113z"/>
			</g>
			<g>
				<path d="M16.318,26.829c-0.222,0-0.425-0.149-0.483-0.374c-0.07-0.268,0.091-0.54,0.358-0.609
					c0.556-0.146,1.106-0.393,1.635-0.734c0.231-0.152,0.542-0.085,0.691,0.148c0.15,0.231,0.083,0.541-0.148,0.691
					c-0.618,0.399-1.267,0.689-1.926,0.861C16.402,26.824,16.36,26.829,16.318,26.829z M13.421,26.754
					c-0.049,0-0.1-0.007-0.149-0.022c-0.646-0.202-1.279-0.519-1.882-0.941c-0.226-0.158-0.281-0.47-0.123-0.696
					c0.158-0.226,0.47-0.282,0.696-0.122c0.519,0.362,1.06,0.634,1.608,0.805c0.263,0.083,0.41,0.363,0.328,0.627
					C13.831,26.617,13.634,26.754,13.421,26.754z"/>
			</g>
		</g>
	</g>
</g>
<g id="Dashed_Frame_4">
</g>
<g id="Dashed_Frame_5">
</g>
<g id="Dashed_Frame_6">
</g>
<g id="Dashed_Frame_7">
</g>
<g id="Dashed_Frame_8">
</g>
<g id="Dashed_Frame_9">
</g>
<g id="Dashed_Frame_10">
</g>
<g id="Dashed_Frame_11">
</g>
<g id="Dashed_Frame_12">
</g>
<g id="Dashed_Frame_13">
</g>
<g id="Dashed_Frame_14">
</g>
<g id="Dashed_Frame_15">
</g>
<g id="Dashed_Frame_16">
</g>
<g id="Dashed_Frame_17">
</g>
<g id="Dashed_Frame_18">
</g>
<g id="Dashed_Frame_19">
</g>
<g id="Dashed_Frame_20">
</g>
<g id="Dashed_Frame_25">
</g>
<g id="Dashed_Frame_26">
</g>
<g id="Dashed_Frame_27">
</g>
<g id="Dashed_Frame_28">
</g>
<g id="Dashed_Frame_29">
</g>
<g id="Dashed_Frame_30">
</g>
<g id="Dashed_Frame_31">
</g>
<g id="Dashed_Frame_32">
</g>
<g id="Dashed_Frame_33">
</g>
<g id="Dashed_Frame_35">
</g>
</svg>
