<?xml version="1.0" encoding="iso-8859-1"?>
<!-- Generator: Adobe Illustrator 19.2.1, SVG Export Plug-In . SVG Version: 6.00 Build 0)  -->
<svg version="1.1" xmlns="http://www.w3.org/2000/svg" xmlns:xlink="http://www.w3.org/1999/xlink" x="0px" y="0px"
	 viewBox="0 0 24 24" style="enable-background:new 0 0 24 24;" xml:space="preserve">
<g id="Photo_frame">
</g>
<g id="Photo_frame_2">
</g>
<g id="Photo_frame_3">
</g>
<g id="Photo_frame__4">
</g>
<g id="Photo_frame_5">
</g>
<g id="Photo_frame_6">
</g>
<g id="Photo_frame_7">
</g>
<g id="Round_Frame_1">
</g>
<g id="Rectangle_Frame_1">
</g>
<g id="Square_Frame_1">
</g>
<g id="Rectangle_Frame_2">
</g>
<g id="Oval_Frame_1">
</g>
<g id="Round_Frame_2">
</g>
<g id="Rectangle_Frame_3">
</g>
<g id="Rectangle_Frame_4">
</g>
<g id="Rectangle_Frame_5">
</g>
<g id="Square_Frame_2">
</g>
<g id="Rectangle_Frame_6">
</g>
<g id="Rectangle_Frame_7">
</g>
<g id="Oval_Frame_2">
</g>
<g id="Round_Frame_3">
</g>
<g id="Rectangle_Frame_8">
</g>
<g id="Square_Frame_3">
</g>
<g id="Rectangle_Frame_9">
</g>
<g id="Rectangle_Frame_10">
</g>
<g id="Square_Frame_4">
</g>
<g id="Rectangle_Frame_11">
</g>
<g id="Rectangle_Frame_12">
</g>
<g id="Square_Frame_5">
</g>
<g id="Rectangle_Frame_13">
</g>
<g id="Round_Frame">
</g>
<g id="Frame_2">
</g>
<g id="Frame_1">
</g>
<g id="Frame_3">
</g>
<g id="Frame_4">
</g>
<g id="Frame_5">
</g>
<g id="Frame_6">
</g>
<g id="Frame_7">
</g>
<g id="Frame_8">
</g>
<g id="Frame_9">
</g>
<g id="Frame_10">
</g>
<g id="Frame_11">
</g>
<g id="Frame_12">
</g>
<g id="Frame_13">
</g>
<g id="Frame_14">
</g>
<g id="Frame_15">
</g>
<g id="Frame_16">
</g>
<g id="Frame_17">
</g>
<g id="Frame_18">
</g>
<g id="Frame_19">
</g>
<g id="Frame_20">
</g>
<g id="Frame_21">
</g>
<g id="Frame_22">
</g>
<g id="Frame_23">
</g>
<g id="Frame_24">
</g>
<g id="Frame_25">
</g>
<g id="Frame_26">
</g>
<g id="Frame_27">
</g>
<g id="Frame_28">
</g>
<g id="Frame_29">
</g>
<g id="Frame_30">
</g>
<g id="Frame_Hole_1">
</g>
<g id="Frame_Hole_2">
</g>
<g id="Frame_Hole_3">
</g>
<g id="Frame_Hole_4">
</g>
<g id="Frame_31">
</g>
<g id="Frame_32">
</g>
<g id="Frame_33">
</g>
<g id="Frame_34">
</g>
<g id="Frame_35">
</g>
<g id="Dashed_Frame_1">
</g>
<g id="Dashed_Frame_2">
</g>
<g id="Dashed_Frame_3">
</g>
<g id="Dashed_Frame_4">
</g>
<g id="Dashed_Frame_5">
</g>
<g id="Dashed_Frame_6">
	<path d="M19.5,1.987h-1.6c-1.092-2.631-10.708-2.631-11.8,0H4.5c-0.276,0-0.5,0.224-0.5,0.5v19c0,0.276,0.224,0.5,0.5,0.5h1.6
		c0.546,1.315,3.237,2,5.9,2s5.354-0.685,5.9-2h1.6c0.276,0,0.5-0.224,0.5-0.5v-19C20,2.21,19.776,1.987,19.5,1.987z M6,7.343
		c0-0.276,0.224-0.5,0.5-0.5S7,7.067,7,7.343V9.2c0,0.276-0.224,0.5-0.5,0.5S6,9.477,6,9.2V7.343z M6,11.058
		c0-0.276,0.224-0.5,0.5-0.5s0.5,0.224,0.5,0.5v1.857c0,0.276-0.224,0.5-0.5,0.5S6,13.192,6,12.915V11.058z M6,14.772
		c0-0.276,0.224-0.5,0.5-0.5s0.5,0.224,0.5,0.5v1.857c0,0.276-0.224,0.5-0.5,0.5S6,16.906,6,16.629V14.772z M9.935,21.332
		c-0.055,0.229-0.26,0.384-0.486,0.384c-0.039,0-0.078-0.004-0.116-0.014c-0.411-0.098-0.772-0.217-1.045-0.345
		C8.112,21.275,8,21.099,8,20.905v-0.918H7.5h-1c-0.276,0-0.5-0.224-0.5-0.5v-1c0-0.276,0.224-0.5,0.5-0.5S7,18.21,7,18.487v0.5h0.5
		h1c0.276,0,0.5,0.224,0.5,0.5v1.08c0.142,0.05,0.329,0.106,0.564,0.163C9.833,20.794,9.999,21.064,9.935,21.332z M9.564,3.243
		C9.329,3.3,9.142,3.357,9,3.406v1.08c0,0.276-0.224,0.5-0.5,0.5h-1H7v0.5c0,0.276-0.224,0.5-0.5,0.5S6,5.763,6,5.487v-1
		c0-0.276,0.224-0.5,0.5-0.5h1H8V3.069c0-0.194,0.112-0.37,0.288-0.453c0.273-0.128,0.634-0.247,1.045-0.345
		C9.6,2.204,9.871,2.372,9.935,2.641S9.833,3.179,9.564,3.243z M11.11,2.015c0.558-0.037,1.22-0.037,1.778,0
		c0.275,0.019,0.484,0.256,0.466,0.531c-0.018,0.276-0.262,0.486-0.532,0.467c-0.517-0.033-1.13-0.033-1.647,0
		c-0.011,0.001-0.022,0.001-0.033,0.001c-0.261,0-0.481-0.203-0.499-0.468C10.626,2.271,10.835,2.033,11.11,2.015z M12.89,21.958
		c-0.279,0.019-0.576,0.028-0.89,0.028c-0.313,0-0.609-0.01-0.888-0.028c-0.275-0.019-0.484-0.256-0.466-0.531
		c0.019-0.276,0.255-0.495,0.532-0.467c0.517,0.033,1.13,0.033,1.647,0c0.28-0.026,0.514,0.191,0.532,0.467
		S13.165,21.94,12.89,21.958z M18,19.487c0,0.276-0.224,0.5-0.5,0.5h-1H16v0.918c0,0.194-0.112,0.37-0.288,0.453
		c-0.273,0.128-0.634,0.247-1.045,0.345c-0.039,0.01-0.078,0.014-0.116,0.014c-0.226,0-0.431-0.154-0.486-0.384
		c-0.064-0.269,0.102-0.538,0.371-0.603c0.236-0.057,0.422-0.113,0.564-0.163v-1.08c0-0.276,0.224-0.5,0.5-0.5h1H17v-0.5
		c0-0.276,0.224-0.5,0.5-0.5s0.5,0.224,0.5,0.5V19.487z M18,16.63c0,0.276-0.224,0.5-0.5,0.5s-0.5-0.224-0.5-0.5v-1.857
		c0-0.276,0.224-0.5,0.5-0.5s0.5,0.224,0.5,0.5V16.63z M18,12.915c0,0.276-0.224,0.5-0.5,0.5s-0.5-0.224-0.5-0.5v-1.857
		c0-0.276,0.224-0.5,0.5-0.5s0.5,0.224,0.5,0.5V12.915z M18,9.201c0,0.276-0.224,0.5-0.5,0.5S17,9.478,17,9.201V7.344
		c0-0.276,0.224-0.5,0.5-0.5s0.5,0.224,0.5,0.5V9.201z M18,5.487c0,0.276-0.224,0.5-0.5,0.5S17,5.763,17,5.487v-0.5h-0.5h-1
		c-0.276,0-0.5-0.224-0.5-0.5v-1.08c-0.142-0.05-0.329-0.106-0.564-0.163c-0.269-0.064-0.435-0.334-0.371-0.603
		s0.339-0.437,0.602-0.37c0.411,0.098,0.772,0.217,1.045,0.345C15.888,2.698,16,2.874,16,3.069v0.918h0.5h1
		c0.276,0,0.5,0.224,0.5,0.5V5.487z"/>
</g>
<g id="Dashed_Frame_7">
</g>
<g id="Dashed_Frame_8">
</g>
<g id="Dashed_Frame_9">
</g>
<g id="Dashed_Frame_10">
</g>
<g id="Dashed_Frame_11">
</g>
<g id="Dashed_Frame_12">
</g>
<g id="Dashed_Frame_13">
</g>
<g id="Dashed_Frame_14">
</g>
<g id="Dashed_Frame_15">
</g>
<g id="Dashed_Frame_16">
</g>
<g id="Dashed_Frame_17">
</g>
<g id="Dashed_Frame_18">
</g>
<g id="Dashed_Frame_19">
</g>
<g id="Dashed_Frame_20">
</g>
<g id="Dashed_Frame_25">
</g>
<g id="Dashed_Frame_26">
</g>
<g id="Dashed_Frame_27">
</g>
<g id="Dashed_Frame_28">
</g>
<g id="Dashed_Frame_29">
</g>
<g id="Dashed_Frame_30">
</g>
<g id="Dashed_Frame_31">
</g>
<g id="Dashed_Frame_32">
</g>
<g id="Dashed_Frame_33">
</g>
<g id="Dashed_Frame_35">
</g>
</svg>
