<?xml version="1.0" encoding="iso-8859-1"?>
<!-- Generator: Adobe Illustrator 19.2.1, SVG Export Plug-In . SVG Version: 6.00 Build 0)  -->
<svg version="1.1" xmlns="http://www.w3.org/2000/svg" xmlns:xlink="http://www.w3.org/1999/xlink" x="0px" y="0px"
	 viewBox="0 0 30 30" style="enable-background:new 0 0 30 30;" xml:space="preserve">
<g id="Photo_frame">
</g>
<g id="Photo_frame_2">
</g>
<g id="Photo_frame_3">
</g>
<g id="Photo_frame__4">
</g>
<g id="Photo_frame_5">
</g>
<g id="Photo_frame_6">
</g>
<g id="Photo_frame_7">
</g>
<g id="Round_Frame_1">
</g>
<g id="Rectangle_Frame_1">
</g>
<g id="Square_Frame_1">
</g>
<g id="Rectangle_Frame_2">
</g>
<g id="Oval_Frame_1">
</g>
<g id="Round_Frame_2">
</g>
<g id="Rectangle_Frame_3">
</g>
<g id="Rectangle_Frame_4">
</g>
<g id="Rectangle_Frame_5">
</g>
<g id="Square_Frame_2">
</g>
<g id="Rectangle_Frame_6">
</g>
<g id="Rectangle_Frame_7">
</g>
<g id="Oval_Frame_2">
</g>
<g id="Round_Frame_3">
</g>
<g id="Rectangle_Frame_8">
</g>
<g id="Square_Frame_3">
</g>
<g id="Rectangle_Frame_9">
</g>
<g id="Rectangle_Frame_10">
</g>
<g id="Square_Frame_4">
</g>
<g id="Rectangle_Frame_11">
</g>
<g id="Rectangle_Frame_12">
</g>
<g id="Square_Frame_5">
</g>
<g id="Rectangle_Frame_13">
</g>
<g id="Round_Frame">
</g>
<g id="Frame_2">
</g>
<g id="Frame_1">
</g>
<g id="Frame_3">
</g>
<g id="Frame_4">
</g>
<g id="Frame_5">
</g>
<g id="Frame_6">
</g>
<g id="Frame_7">
</g>
<g id="Frame_8">
</g>
<g id="Frame_9">
</g>
<g id="Frame_10">
</g>
<g id="Frame_11">
</g>
<g id="Frame_12">
</g>
<g id="Frame_13">
</g>
<g id="Frame_14">
</g>
<g id="Frame_15">
</g>
<g id="Frame_16">
</g>
<g id="Frame_17">
</g>
<g id="Frame_18">
</g>
<g id="Frame_19">
</g>
<g id="Frame_20">
</g>
<g id="Frame_21">
</g>
<g id="Frame_22">
</g>
<g id="Frame_23">
</g>
<g id="Frame_24">
</g>
<g id="Frame_25">
</g>
<g id="Frame_26">
</g>
<g id="Frame_27">
</g>
<g id="Frame_28">
</g>
<g id="Frame_29">
</g>
<g id="Frame_30">
</g>
<g id="Frame_Hole_1">
</g>
<g id="Frame_Hole_2">
</g>
<g id="Frame_Hole_3">
</g>
<g id="Frame_Hole_4">
</g>
<g id="Frame_31">
</g>
<g id="Frame_32">
</g>
<g id="Frame_33">
</g>
<g id="Frame_34">
</g>
<g id="Frame_35">
</g>
<g id="Dashed_Frame_1">
</g>
<g id="Dashed_Frame_2">
</g>
<g id="Dashed_Frame_3">
</g>
<g id="Dashed_Frame_4">
</g>
<g id="Dashed_Frame_5">
</g>
<g id="Dashed_Frame_6">
</g>
<g id="Dashed_Frame_7">
</g>
<g id="Dashed_Frame_8">
</g>
<g id="Dashed_Frame_9">
</g>
<g id="Dashed_Frame_10">
</g>
<g id="Dashed_Frame_11">
</g>
<g id="Dashed_Frame_12">
</g>
<g id="Dashed_Frame_13">
</g>
<g id="Dashed_Frame_14">
</g>
<g id="Dashed_Frame_15">
</g>
<g id="Dashed_Frame_16">
</g>
<g id="Dashed_Frame_17">
</g>
<g id="Dashed_Frame_18">
</g>
<g id="Dashed_Frame_19">
</g>
<g id="Dashed_Frame_20">
</g>
<g id="Dashed_Frame_25">
	<g>
		<path d="M15,30c-1.984,0-3.718-0.775-4.525-2H7.06c-0.213,0-0.402-0.135-0.472-0.336c-0.687-1.977-2.276-3.565-4.252-4.251
			C2.135,23.343,2,23.153,2,22.94v-3.415C0.776,18.719,0,16.984,0,15s0.776-3.719,2-4.525V7.06c0-0.213,0.135-0.402,0.336-0.473
			c1.976-0.686,3.565-2.274,4.252-4.251C6.658,2.135,6.847,2,7.06,2h3.415C11.282,0.775,13.016,0,15,0s3.718,0.775,4.525,2h3.415
			c0.213,0,0.402,0.135,0.472,0.336c0.687,1.977,2.276,3.565,4.252,4.251C27.865,6.657,28,6.847,28,7.06v3.415
			c1.224,0.807,2,2.541,2,4.525s-0.776,3.719-2,4.525v3.415c0,0.213-0.135,0.402-0.336,0.473c-1.976,0.686-3.565,2.274-4.252,4.251
			C23.342,27.865,23.153,28,22.94,28h-3.415C18.718,29.225,16.984,30,15,30z M7.407,27h3.353c0.187,0,0.357,0.104,0.443,0.269
			C11.743,28.305,13.269,29,15,29s3.257-0.695,3.797-1.731C18.883,27.104,19.054,27,19.24,27h3.353
			c0.799-1.995,2.412-3.608,4.407-4.406V19.24c0-0.187,0.104-0.357,0.269-0.443C28.304,18.257,29,16.73,29,15
			s-0.696-3.257-1.731-3.797C27.104,11.117,27,10.946,27,10.76V7.406C25.005,6.608,23.393,4.995,22.593,3H19.24
			c-0.187,0-0.357-0.104-0.443-0.269C18.257,1.695,16.731,1,15,1s-3.257,0.695-3.797,1.731C11.117,2.896,10.946,3,10.76,3H7.407
			C6.607,4.995,4.995,6.608,3,7.406v3.354c0,0.187-0.104,0.357-0.269,0.443C1.696,11.743,1,13.27,1,15s0.696,3.257,1.731,3.797
			C2.896,18.883,3,19.054,3,19.24v3.354C4.995,23.392,6.607,25.005,7.407,27z"/>
	</g>
	<g>
		<path d="M14.604,26.484c-0.013,0-0.026,0-0.039-0.001c-0.789-0.061-1.521-0.283-2.118-0.645c-0.236-0.143-0.312-0.45-0.169-0.687
			c0.142-0.236,0.449-0.313,0.687-0.169c0.463,0.28,1.043,0.454,1.677,0.502c0.275,0.021,0.481,0.262,0.46,0.537
			C15.082,26.285,14.862,26.484,14.604,26.484z M16.575,26.245c-0.207,0-0.401-0.13-0.473-0.336
			c-0.09-0.262,0.048-0.546,0.309-0.637c0.608-0.211,1.077-0.546,1.319-0.944c0.144-0.235,0.45-0.31,0.687-0.168
			c0.236,0.144,0.311,0.451,0.167,0.688c-0.362,0.597-1.018,1.083-1.846,1.37C16.684,26.236,16.629,26.245,16.575,26.245z
			 M21.023,24.982h-0.927c-0.276,0-0.5-0.224-0.5-0.5s0.224-0.5,0.5-0.5h0.583c0.104-0.25,0.224-0.493,0.36-0.726
			c0.139-0.238,0.445-0.321,0.684-0.18c0.238,0.14,0.318,0.445,0.179,0.684c-0.164,0.28-0.3,0.578-0.407,0.886
			C21.426,24.848,21.236,24.982,21.023,24.982z M11.109,24.982h-2c-0.276,0-0.5-0.224-0.5-0.5s0.224-0.5,0.5-0.5h2
			c0.276,0,0.5,0.224,0.5,0.5S11.385,24.982,11.109,24.982z M8.083,23.354c-0.148,0-0.294-0.065-0.393-0.19
			c-0.378-0.48-0.835-0.885-1.356-1.203c-0.236-0.144-0.311-0.451-0.167-0.688c0.144-0.236,0.452-0.311,0.687-0.166
			c0.624,0.38,1.168,0.864,1.621,1.438c0.171,0.217,0.134,0.531-0.083,0.702C8.3,23.318,8.191,23.354,8.083,23.354z M22.76,22.493
			c-0.145,0-0.288-0.063-0.387-0.183c-0.175-0.213-0.145-0.528,0.068-0.703c0.544-0.448,1.154-0.796,1.813-1.033
			c0.297-0.158,0.729,0.078,0.729,0.438c0,0.213-0.135,0.414-0.335,0.483c-0.572,0.2-1.1,0.497-1.57,0.884
			C22.984,22.456,22.872,22.493,22.76,22.493z M5.517,20.717c-0.276,0-0.5-0.224-0.5-0.5v-1.721
			c-0.076-0.054-0.151-0.112-0.223-0.175c-0.208-0.183-0.229-0.498-0.047-0.706c0.181-0.209,0.498-0.228,0.706-0.048
			c0.096,0.084,0.196,0.153,0.297,0.206c0.165,0.087,0.268,0.257,0.268,0.443v2C6.017,20.493,5.793,20.717,5.517,20.717z
			 M24.483,19.512c-0.276,0-0.5-0.224-0.5-0.5v-0.795c0-0.187,0.104-0.357,0.269-0.443c0.248-0.129,0.482-0.354,0.678-0.651
			c0.152-0.231,0.462-0.295,0.693-0.144c0.23,0.152,0.294,0.462,0.143,0.692c-0.223,0.339-0.49,0.619-0.783,0.825v0.516
			C24.983,19.288,24.759,19.512,24.483,19.512z M4.151,16.729c-0.223,0-0.426-0.15-0.484-0.376C3.556,15.922,3.5,15.466,3.5,15
			c0-0.284,0.021-0.562,0.061-0.828c0.041-0.272,0.291-0.463,0.568-0.421c0.273,0.04,0.461,0.295,0.421,0.567
			C4.517,14.538,4.5,14.767,4.5,15c0,0.382,0.046,0.754,0.136,1.105c0.068,0.268-0.093,0.54-0.36,0.608
			C4.234,16.725,4.192,16.729,4.151,16.729z M25.975,16.017c-0.017,0-0.034-0.001-0.051-0.003c-0.274-0.027-0.475-0.273-0.447-0.548
			c0.016-0.151,0.023-0.307,0.023-0.465c0-0.462-0.065-0.902-0.194-1.312c-0.083-0.264,0.063-0.544,0.327-0.627
			c0.267-0.081,0.544,0.063,0.627,0.326c0.159,0.507,0.24,1.049,0.24,1.611c0,0.192-0.009,0.383-0.028,0.567
			C26.446,15.825,26.229,16.017,25.975,16.017z M4.792,12.908c-0.107,0-0.216-0.034-0.308-0.106
			c-0.217-0.17-0.256-0.484-0.086-0.701c0.187-0.239,0.395-0.439,0.619-0.597v-0.756c0-0.276,0.224-0.5,0.5-0.5s0.5,0.224,0.5,0.5
			v1.035c0,0.186-0.103,0.356-0.268,0.443c-0.202,0.105-0.392,0.271-0.563,0.489C5.087,12.842,4.94,12.908,4.792,12.908z
			 M24.687,12.407c-0.098,0-0.197-0.028-0.284-0.089c-0.05-0.034-0.102-0.065-0.155-0.094c-0.163-0.087-0.265-0.257-0.265-0.441
			v-1.76c0-0.276,0.224-0.5,0.5-0.5s0.5,0.224,0.5,0.5v1.48c0.218,0.159,0.271,0.464,0.116,0.688
			C25.002,12.332,24.846,12.407,24.687,12.407z M5.731,9.396c-0.199,0-0.388-0.12-0.465-0.316C5.165,8.823,5.291,8.532,5.547,8.432
			c0.567-0.224,1.085-0.545,1.541-0.953c0.205-0.185,0.521-0.168,0.706,0.038c0.185,0.206,0.167,0.521-0.038,0.706
			C7.212,8.711,6.592,9.095,5.915,9.361C5.854,9.386,5.792,9.396,5.731,9.396z M23.613,9.088c-0.082,0-0.165-0.021-0.241-0.063
			c-0.638-0.353-1.204-0.813-1.68-1.367c-0.18-0.21-0.156-0.525,0.053-0.705c0.211-0.179,0.526-0.157,0.705,0.053
			c0.399,0.465,0.872,0.85,1.406,1.145c0.242,0.134,0.33,0.438,0.196,0.68C23.959,8.995,23.789,9.088,23.613,9.088z M8.645,6.781
			c-0.079,0-0.158-0.019-0.232-0.058C8.168,6.596,8.074,6.293,8.203,6.049C8.32,5.825,8.421,5.593,8.504,5.354
			c0.07-0.201,0.259-0.336,0.472-0.336h1.167c0.276,0,0.5,0.224,0.5,0.5s-0.224,0.5-0.5,0.5H9.321
			C9.25,6.187,9.172,6.353,9.087,6.514C8.998,6.685,8.824,6.781,8.645,6.781z M21.06,6.118c-0.109,0-0.215-0.036-0.301-0.101h-1.627
			c-0.276,0-0.5-0.224-0.5-0.5s0.224-0.5,0.5-0.5h1.892c0.212,0,0.401,0.134,0.472,0.334l0.034,0.094
			c0.095,0.26-0.038,0.547-0.297,0.643C21.175,6.108,21.117,6.118,21.06,6.118z M11.979,5.717c-0.107,0-0.216-0.034-0.307-0.106
			c-0.218-0.17-0.256-0.483-0.086-0.701c0.425-0.544,1.111-0.973,1.932-1.207c0.263-0.078,0.542,0.076,0.618,0.343
			c0.076,0.266-0.078,0.543-0.344,0.618c-0.619,0.177-1.122,0.483-1.418,0.861C12.274,5.65,12.127,5.717,11.979,5.717z
			 M17.494,5.221c-0.101,0-0.202-0.03-0.291-0.094c-0.425-0.304-1.003-0.514-1.63-0.592c-0.274-0.034-0.468-0.284-0.434-0.558
			c0.035-0.274,0.28-0.472,0.558-0.435c0.8,0.1,1.522,0.366,2.088,0.771c0.225,0.16,0.276,0.473,0.116,0.697
			C17.804,5.148,17.65,5.221,17.494,5.221z"/>
	</g>
</g>
<g id="Dashed_Frame_26">
</g>
<g id="Dashed_Frame_27">
</g>
<g id="Dashed_Frame_28">
</g>
<g id="Dashed_Frame_29">
</g>
<g id="Dashed_Frame_30">
</g>
<g id="Dashed_Frame_31">
</g>
<g id="Dashed_Frame_32">
</g>
<g id="Dashed_Frame_33">
</g>
<g id="Dashed_Frame_35">
</g>
</svg>
