<?xml version="1.0" encoding="iso-8859-1"?>
<!-- Generator: Adobe Illustrator 19.2.1, SVG Export Plug-In . SVG Version: 6.00 Build 0)  -->
<svg version="1.1" xmlns="http://www.w3.org/2000/svg" xmlns:xlink="http://www.w3.org/1999/xlink" x="0px" y="0px"
	 viewBox="0 0 30 30" style="enable-background:new 0 0 30 30;" xml:space="preserve">
<g id="Photo_frame">
</g>
<g id="Photo_frame_2">
</g>
<g id="Photo_frame_3">
</g>
<g id="Photo_frame__4">
</g>
<g id="Photo_frame_5">
</g>
<g id="Photo_frame_6">
</g>
<g id="Photo_frame_7">
</g>
<g id="Round_Frame_1">
</g>
<g id="Rectangle_Frame_1">
</g>
<g id="Square_Frame_1">
</g>
<g id="Rectangle_Frame_2">
</g>
<g id="Oval_Frame_1">
</g>
<g id="Round_Frame_2">
</g>
<g id="Rectangle_Frame_3">
</g>
<g id="Rectangle_Frame_4">
</g>
<g id="Rectangle_Frame_5">
</g>
<g id="Square_Frame_2">
</g>
<g id="Rectangle_Frame_6">
</g>
<g id="Rectangle_Frame_7">
</g>
<g id="Oval_Frame_2">
</g>
<g id="Round_Frame_3">
</g>
<g id="Rectangle_Frame_8">
</g>
<g id="Square_Frame_3">
</g>
<g id="Rectangle_Frame_9">
</g>
<g id="Rectangle_Frame_10">
</g>
<g id="Square_Frame_4">
</g>
<g id="Rectangle_Frame_11">
</g>
<g id="Rectangle_Frame_12">
</g>
<g id="Square_Frame_5">
</g>
<g id="Rectangle_Frame_13">
</g>
<g id="Round_Frame">
</g>
<g id="Frame_2">
</g>
<g id="Frame_1">
</g>
<g id="Frame_3">
</g>
<g id="Frame_4">
</g>
<g id="Frame_5">
</g>
<g id="Frame_6">
</g>
<g id="Frame_7">
</g>
<g id="Frame_8">
</g>
<g id="Frame_9">
</g>
<g id="Frame_10">
</g>
<g id="Frame_11">
</g>
<g id="Frame_12">
</g>
<g id="Frame_13">
</g>
<g id="Frame_14">
</g>
<g id="Frame_15">
</g>
<g id="Frame_16">
</g>
<g id="Frame_17">
</g>
<g id="Frame_18">
</g>
<g id="Frame_19">
</g>
<g id="Frame_20">
</g>
<g id="Frame_21">
</g>
<g id="Frame_22">
</g>
<g id="Frame_23">
</g>
<g id="Frame_24">
</g>
<g id="Frame_25">
</g>
<g id="Frame_26">
</g>
<g id="Frame_27">
</g>
<g id="Frame_28">
</g>
<g id="Frame_29">
</g>
<g id="Frame_30">
</g>
<g id="Frame_Hole_1">
</g>
<g id="Frame_Hole_2">
</g>
<g id="Frame_Hole_3">
</g>
<g id="Frame_Hole_4">
</g>
<g id="Frame_31">
</g>
<g id="Frame_32">
</g>
<g id="Frame_33">
</g>
<g id="Frame_34">
</g>
<g id="Frame_35">
</g>
<g id="Dashed_Frame_1">
</g>
<g id="Dashed_Frame_2">
</g>
<g id="Dashed_Frame_3">
</g>
<g id="Dashed_Frame_4">
</g>
<g id="Dashed_Frame_5">
	<path d="M29.399,14.646C27.896,13.145,27,11.374,27,9.909V8.636C27,7.06,25.758,6,23.909,6h-3.818
		c-1.464,0-3.234-0.897-4.737-2.399c-0.195-0.195-0.512-0.195-0.707,0C13.145,5.103,11.374,6,9.909,6H6.09C4.242,6,3,7.06,3,8.636
		v1.273c0,1.464-0.897,3.235-2.399,4.737c-0.195,0.195-0.195,0.512,0,0.707C2.103,16.856,3,18.627,3,20.091v1.273
		C3,22.94,4.242,24,6.09,24h3.819c1.464,0,3.235,0.896,4.737,2.399c0.094,0.094,0.221,0.146,0.354,0.146s0.26-0.053,0.354-0.146
		C16.856,24.897,18.627,24,20.091,24h3.819c1.848,0,3.09-1.06,3.09-2.636v-1.273c0-1.464,0.897-3.234,2.399-4.737
		c0.094-0.094,0.146-0.221,0.146-0.354S29.493,14.74,29.399,14.646z M23.409,8.136h0.5c0.276,0,0.5,0.224,0.5,0.5v0.5
		c0,0.276-0.224,0.5-0.5,0.5s-0.5-0.224-0.5-0.5c-0.276,0-0.5-0.224-0.5-0.5S23.133,8.136,23.409,8.136z M5.138,12.354
		c0.125-0.347,0.225-0.696,0.299-1.039c0.058-0.27,0.32-0.443,0.594-0.384c0.27,0.058,0.442,0.324,0.384,0.594
		c-0.083,0.386-0.196,0.779-0.335,1.167c-0.074,0.204-0.266,0.331-0.471,0.331c-0.056,0-0.113-0.009-0.169-0.029
		C5.179,12.9,5.044,12.614,5.138,12.354z M5.011,15.15c0.147,0.233,0.078,0.542-0.156,0.689c-0.083,0.052-0.175,0.077-0.266,0.077
		c-0.166,0-0.328-0.083-0.423-0.233c-0.084-0.134-0.172-0.266-0.264-0.398c-0.12-0.172-0.12-0.399,0-0.571
		c0.092-0.132,0.18-0.264,0.264-0.398c0.147-0.233,0.458-0.303,0.689-0.156c0.234,0.147,0.304,0.456,0.156,0.689
		C4.979,14.9,4.947,14.95,4.915,15C4.947,15.05,4.979,15.1,5.011,15.15z M5.137,17.645c-0.093-0.26,0.042-0.546,0.302-0.64
		c0.258-0.093,0.545,0.041,0.64,0.302c0.14,0.389,0.252,0.781,0.335,1.167c0.058,0.27-0.114,0.535-0.384,0.594
		c-0.035,0.007-0.071,0.011-0.105,0.011c-0.23,0-0.438-0.16-0.488-0.396C5.362,18.341,5.262,17.991,5.137,17.645z M6.59,21.863h-0.5
		c-0.133,0-0.26-0.053-0.354-0.146c-0.094-0.094-0.146-0.222-0.146-0.354l0-0.5c0-0.275,0.224-0.499,0.5-0.499h0
		c0.276,0,0.5,0.224,0.5,0.5c0.276,0,0.5,0.224,0.5,0.5S6.866,21.863,6.59,21.863z M6.591,9.136c0,0.276-0.224,0.5-0.5,0.5
		s-0.5-0.224-0.5-0.5v-0.5c0-0.276,0.224-0.5,0.5-0.5h0.5c0.276,0,0.5,0.224,0.5,0.5S6.867,9.136,6.591,9.136z M9.883,22H8.847
		c-0.276,0-0.5-0.224-0.5-0.5S8.57,21,8.847,21h1.036c0.276,0,0.5,0.224,0.5,0.5S10.159,22,9.883,22z M10.042,8.999L9.909,9H9
		C8.724,9,8.5,8.776,8.5,8.5S8.724,8,9,8l1.03-0.001c0.232-0.009,0.502,0.218,0.506,0.494C10.539,8.77,10.318,8.996,10.042,8.999z
		 M13.391,22.241c-0.077,0.199-0.266,0.32-0.466,0.32c-0.06,0-0.121-0.011-0.18-0.033c-0.288-0.111-0.599-0.208-0.926-0.286
		c-0.268-0.064-0.434-0.335-0.369-0.604c0.065-0.268,0.337-0.428,0.604-0.369c0.37,0.089,0.724,0.198,1.052,0.325
		C13.362,21.694,13.49,21.984,13.391,22.241z M13.247,8.333c-0.34,0.134-0.688,0.249-1.036,0.343
		c-0.043,0.012-0.087,0.017-0.131,0.017c-0.22,0-0.422-0.146-0.482-0.37c-0.072-0.267,0.086-0.541,0.353-0.613
		c0.313-0.084,0.625-0.188,0.931-0.308c0.257-0.101,0.547,0.025,0.648,0.282C13.63,7.941,13.503,8.231,13.247,8.333z M15.685,23.288
		c-0.134,0.086-0.267,0.174-0.4,0.266c-0.085,0.06-0.185,0.089-0.285,0.089s-0.199-0.029-0.285-0.089
		c-0.133-0.092-0.266-0.18-0.4-0.266c-0.233-0.147-0.303-0.456-0.155-0.689s0.457-0.303,0.69-0.154
		c0.05,0.031,0.1,0.063,0.149,0.096c0.05-0.032,0.099-0.064,0.149-0.096c0.234-0.147,0.543-0.079,0.69,0.154
		C15.987,22.832,15.918,23.141,15.685,23.288z M15.839,7.402c-0.095,0.15-0.257,0.232-0.423,0.232c-0.092,0-0.184-0.025-0.267-0.078
		C15.099,7.525,15.05,7.493,15,7.46c-0.05,0.032-0.099,0.064-0.149,0.096c-0.233,0.147-0.542,0.079-0.69-0.155
		c-0.148-0.233-0.079-0.542,0.155-0.69c0.134-0.085,0.267-0.173,0.399-0.265c0.172-0.12,0.399-0.12,0.571,0
		c0.132,0.092,0.265,0.18,0.399,0.265C15.918,6.86,15.987,7.169,15.839,7.402z M18.051,22.29c-0.313,0.085-0.625,0.188-0.932,0.309
		c-0.06,0.023-0.122,0.034-0.183,0.034c-0.199,0-0.388-0.12-0.466-0.317c-0.101-0.257,0.026-0.547,0.283-0.648
		c0.34-0.133,0.688-0.247,1.035-0.342c0.271-0.072,0.541,0.086,0.613,0.352S18.317,22.218,18.051,22.29z M18.551,8.363
		c-0.056,0.229-0.26,0.382-0.485,0.382c-0.039,0-0.078-0.004-0.118-0.014c-0.372-0.091-0.726-0.2-1.051-0.326
		c-0.258-0.1-0.386-0.389-0.287-0.646C16.709,7.5,17,7.371,17.256,7.472c0.286,0.11,0.598,0.207,0.928,0.287
		C18.452,7.825,18.616,8.095,18.551,8.363z M21,22l-1.024,0.001c-0.004,0-0.008,0-0.012,0c-0.271,0-0.494-0.217-0.5-0.488
		c-0.006-0.276,0.213-0.505,0.488-0.512L21,21c0.276,0,0.5,0.224,0.5,0.5S21.276,22,21,22z M21.153,9h-1.036
		c-0.276,0-0.5-0.224-0.5-0.5s0.224-0.5,0.5-0.5h1.036c0.276,0,0.5,0.224,0.5,0.5S21.43,9,21.153,9z M24.409,21.363
		c0,0.276-0.224,0.5-0.5,0.5h-0.5c-0.276,0-0.5-0.224-0.5-0.5s0.224-0.5,0.5-0.5c0-0.276,0.224-0.5,0.5-0.5s0.5,0.224,0.5,0.5
		V21.363z M24.862,17.646c-0.125,0.35-0.226,0.699-0.3,1.039c-0.05,0.234-0.258,0.395-0.488,0.395c-0.034,0-0.07-0.004-0.105-0.012
		c-0.27-0.058-0.441-0.324-0.383-0.594c0.082-0.383,0.195-0.775,0.335-1.166c0.093-0.259,0.38-0.393,0.64-0.302
		C24.82,17.099,24.955,17.385,24.862,17.646z M24.562,12.996c-0.056,0.02-0.113,0.029-0.169,0.029c-0.205,0-0.397-0.127-0.471-0.332
		c-0.14-0.39-0.253-0.782-0.335-1.166c-0.059-0.27,0.113-0.536,0.383-0.594c0.272-0.06,0.536,0.114,0.594,0.383
		c0.074,0.341,0.175,0.691,0.3,1.04C24.956,12.616,24.821,12.902,24.562,12.996z M26.1,15.285c-0.092,0.133-0.181,0.266-0.267,0.4
		c-0.095,0.15-0.257,0.232-0.422,0.232c-0.092,0-0.185-0.025-0.268-0.078c-0.233-0.148-0.303-0.457-0.154-0.69
		c0.031-0.05,0.063-0.1,0.096-0.149c-0.032-0.05-0.064-0.099-0.096-0.149c-0.148-0.233-0.079-0.542,0.154-0.69
		c0.231-0.148,0.542-0.079,0.689,0.155c0.086,0.134,0.175,0.267,0.267,0.4C26.218,14.887,26.218,15.113,26.1,15.285z"/>
</g>
<g id="Dashed_Frame_6">
</g>
<g id="Dashed_Frame_7">
</g>
<g id="Dashed_Frame_8">
</g>
<g id="Dashed_Frame_9">
</g>
<g id="Dashed_Frame_10">
</g>
<g id="Dashed_Frame_11">
</g>
<g id="Dashed_Frame_12">
</g>
<g id="Dashed_Frame_13">
</g>
<g id="Dashed_Frame_14">
</g>
<g id="Dashed_Frame_15">
</g>
<g id="Dashed_Frame_16">
</g>
<g id="Dashed_Frame_17">
</g>
<g id="Dashed_Frame_18">
</g>
<g id="Dashed_Frame_19">
</g>
<g id="Dashed_Frame_20">
</g>
<g id="Dashed_Frame_25">
</g>
<g id="Dashed_Frame_26">
</g>
<g id="Dashed_Frame_27">
</g>
<g id="Dashed_Frame_28">
</g>
<g id="Dashed_Frame_29">
</g>
<g id="Dashed_Frame_30">
</g>
<g id="Dashed_Frame_31">
</g>
<g id="Dashed_Frame_32">
</g>
<g id="Dashed_Frame_33">
</g>
<g id="Dashed_Frame_35">
</g>
</svg>
