<?xml version="1.0" encoding="iso-8859-1"?>
<!-- Generator: Adobe Illustrator 19.2.1, SVG Export Plug-In . SVG Version: 6.00 Build 0)  -->
<svg version="1.1" xmlns="http://www.w3.org/2000/svg" xmlns:xlink="http://www.w3.org/1999/xlink" x="0px" y="0px"
	 viewBox="0 0 30 30" style="enable-background:new 0 0 30 30;" xml:space="preserve">
<g id="Photo_frame">
</g>
<g id="Photo_frame_2">
</g>
<g id="Photo_frame_3">
</g>
<g id="Photo_frame__4">
</g>
<g id="Photo_frame_5">
</g>
<g id="Photo_frame_6">
</g>
<g id="Photo_frame_7">
</g>
<g id="Round_Frame_1">
</g>
<g id="Rectangle_Frame_1">
</g>
<g id="Square_Frame_1">
</g>
<g id="Rectangle_Frame_2">
</g>
<g id="Oval_Frame_1">
</g>
<g id="Round_Frame_2">
</g>
<g id="Rectangle_Frame_3">
</g>
<g id="Rectangle_Frame_4">
</g>
<g id="Rectangle_Frame_5">
</g>
<g id="Square_Frame_2">
</g>
<g id="Rectangle_Frame_6">
</g>
<g id="Rectangle_Frame_7">
</g>
<g id="Oval_Frame_2">
</g>
<g id="Round_Frame_3">
</g>
<g id="Rectangle_Frame_8">
</g>
<g id="Square_Frame_3">
</g>
<g id="Rectangle_Frame_9">
</g>
<g id="Rectangle_Frame_10">
</g>
<g id="Square_Frame_4">
</g>
<g id="Rectangle_Frame_11">
</g>
<g id="Rectangle_Frame_12">
</g>
<g id="Square_Frame_5">
</g>
<g id="Rectangle_Frame_13">
</g>
<g id="Round_Frame">
</g>
<g id="Frame_2">
</g>
<g id="Frame_1">
</g>
<g id="Frame_3">
</g>
<g id="Frame_4">
</g>
<g id="Frame_5">
</g>
<g id="Frame_6">
</g>
<g id="Frame_7">
</g>
<g id="Frame_8">
</g>
<g id="Frame_9">
</g>
<g id="Frame_10">
</g>
<g id="Frame_11">
</g>
<g id="Frame_12">
</g>
<g id="Frame_13">
</g>
<g id="Frame_14">
</g>
<g id="Frame_15">
</g>
<g id="Frame_16">
</g>
<g id="Frame_17">
</g>
<g id="Frame_18">
</g>
<g id="Frame_19">
</g>
<g id="Frame_20">
</g>
<g id="Frame_21">
</g>
<g id="Frame_22">
</g>
<g id="Frame_23">
</g>
<g id="Frame_24">
</g>
<g id="Frame_25">
</g>
<g id="Frame_26">
</g>
<g id="Frame_27">
</g>
<g id="Frame_28">
</g>
<g id="Frame_29">
</g>
<g id="Frame_30">
</g>
<g id="Frame_Hole_1">
</g>
<g id="Frame_Hole_2">
</g>
<g id="Frame_Hole_3">
</g>
<g id="Frame_Hole_4">
</g>
<g id="Frame_31">
</g>
<g id="Frame_32">
</g>
<g id="Frame_33">
</g>
<g id="Frame_34">
</g>
<g id="Frame_35">
</g>
<g id="Dashed_Frame_1">
</g>
<g id="Dashed_Frame_2">
</g>
<g id="Dashed_Frame_3">
</g>
<g id="Dashed_Frame_4">
</g>
<g id="Dashed_Frame_5">
</g>
<g id="Dashed_Frame_6">
</g>
<g id="Dashed_Frame_7">
</g>
<g id="Dashed_Frame_8">
</g>
<g id="Dashed_Frame_9">
</g>
<g id="Dashed_Frame_10">
</g>
<g id="Dashed_Frame_11">
</g>
<g id="Dashed_Frame_12">
</g>
<g id="Dashed_Frame_13">
</g>
<g id="Dashed_Frame_14">
</g>
<g id="Dashed_Frame_15">
</g>
<g id="Dashed_Frame_16">
</g>
<g id="Dashed_Frame_17">
</g>
<g id="Dashed_Frame_18">
</g>
<g id="Dashed_Frame_19">
</g>
<g id="Dashed_Frame_20">
</g>
<g id="Dashed_Frame_25">
	<path d="M28,10.475V7.06c0-0.213-0.135-0.402-0.336-0.472c-1.977-0.687-3.565-2.276-4.251-4.252C23.343,2.135,23.153,2,22.94,2
		h-3.415C18.719,0.776,16.984,0,15,0s-3.718,0.776-4.525,2H7.06C6.847,2,6.658,2.135,6.588,2.336
		C5.901,4.312,4.312,5.901,2.336,6.588C2.135,6.658,2,6.847,2,7.06v3.415C0.776,11.282,0,13.016,0,15s0.776,3.719,2,4.525v3.415
		c0,0.213,0.135,0.402,0.336,0.473c1.976,0.686,3.565,2.274,4.252,4.251C6.658,27.865,6.847,28,7.06,28h3.415
		c0.807,1.225,2.541,2,4.525,2s3.719-0.775,4.525-2h3.415c0.213,0,0.402-0.135,0.473-0.336c0.686-1.977,2.274-3.565,4.251-4.251
		C27.865,23.343,28,23.153,28,22.94v-3.415c1.225-0.807,2-2.541,2-4.525S29.225,11.282,28,10.475z M24.482,9.523
		c0.276,0,0.5,0.224,0.5,0.5v1.481c0.218,0.159,0.271,0.464,0.116,0.688c-0.097,0.141-0.253,0.216-0.411,0.216
		c-0.099,0-0.197-0.029-0.284-0.089c-0.049-0.034-0.1-0.064-0.152-0.092c-0.165-0.086-0.269-0.257-0.269-0.443v-1.761
		C23.982,9.747,24.206,9.523,24.482,9.523z M21.744,6.953c0.208-0.178,0.525-0.156,0.705,0.053c0.399,0.464,0.873,0.849,1.406,1.145
		c0.242,0.134,0.329,0.438,0.195,0.68c-0.092,0.165-0.262,0.258-0.438,0.258c-0.082,0-0.166-0.02-0.242-0.063
		c-0.638-0.354-1.202-0.813-1.68-1.367C21.512,7.449,21.535,7.133,21.744,6.953z M8.203,6.048C8.32,5.826,8.421,5.593,8.504,5.353
		c0.07-0.201,0.259-0.336,0.472-0.336h1.167c0.276,0,0.5,0.224,0.5,0.5s-0.224,0.5-0.5,0.5H9.321
		c-0.07,0.17-0.148,0.336-0.233,0.497c-0.089,0.17-0.263,0.267-0.443,0.267c-0.079,0-0.158-0.019-0.232-0.058
		C8.167,6.595,8.074,6.292,8.203,6.048z M5.547,8.432c0.566-0.223,1.085-0.544,1.541-0.954c0.204-0.186,0.521-0.167,0.706,0.038
		c0.185,0.206,0.167,0.521-0.038,0.706c-0.545,0.489-1.165,0.873-1.842,1.14C5.854,9.386,5.792,9.397,5.731,9.397
		c-0.199,0-0.388-0.12-0.465-0.316C5.165,8.824,5.291,8.534,5.547,8.432z M4.275,16.714c-0.042,0.011-0.083,0.016-0.125,0.016
		c-0.223,0-0.426-0.15-0.484-0.376C3.556,15.921,3.5,15.466,3.5,15c0-0.285,0.021-0.562,0.061-0.828
		c0.042-0.273,0.297-0.454,0.568-0.421c0.273,0.041,0.461,0.295,0.421,0.568c-0.033,0.219-0.05,0.447-0.05,0.682
		c0,0.381,0.046,0.753,0.136,1.104C4.704,16.373,4.543,16.646,4.275,16.714z M6.017,20.217c0,0.276-0.224,0.5-0.5,0.5
		s-0.5-0.224-0.5-0.5v-1.721c-0.076-0.054-0.151-0.112-0.223-0.175c-0.208-0.183-0.229-0.498-0.047-0.706
		c0.181-0.208,0.498-0.229,0.706-0.048c0.096,0.084,0.196,0.153,0.297,0.206c0.165,0.087,0.268,0.257,0.268,0.443V20.217z
		 M6.017,11.784c0,0.186-0.104,0.357-0.269,0.443c-0.202,0.105-0.391,0.27-0.562,0.489c-0.099,0.126-0.246,0.193-0.395,0.193
		c-0.107,0-0.215-0.034-0.307-0.105c-0.218-0.169-0.257-0.484-0.087-0.702c0.187-0.24,0.394-0.44,0.619-0.598v-0.755
		c0-0.276,0.224-0.5,0.5-0.5s0.5,0.224,0.5,0.5V11.784z M8.392,23.246c-0.092,0.072-0.201,0.107-0.309,0.107
		c-0.148,0-0.294-0.065-0.393-0.19c-0.378-0.48-0.835-0.885-1.356-1.203c-0.236-0.144-0.311-0.451-0.167-0.688
		c0.145-0.235,0.453-0.31,0.687-0.166c0.624,0.38,1.168,0.864,1.621,1.438C8.646,22.761,8.609,23.075,8.392,23.246z M11.109,24.982
		h-2c-0.276,0-0.5-0.224-0.5-0.5s0.224-0.5,0.5-0.5h2c0.276,0,0.5,0.224,0.5,0.5S11.385,24.982,11.109,24.982z M11.67,5.61
		c-0.218-0.17-0.256-0.484-0.085-0.702c0.426-0.544,1.112-0.972,1.932-1.206c0.267-0.076,0.542,0.078,0.618,0.344
		c0.076,0.266-0.078,0.542-0.344,0.618c-0.619,0.176-1.122,0.482-1.419,0.86c-0.099,0.126-0.246,0.192-0.394,0.192
		C11.87,5.716,11.762,5.682,11.67,5.61z M14.604,26.484c-0.013,0-0.026,0-0.039-0.001c-0.789-0.061-1.521-0.283-2.118-0.645
		c-0.236-0.143-0.312-0.45-0.169-0.687c0.142-0.235,0.449-0.313,0.687-0.169c0.463,0.28,1.043,0.454,1.677,0.502
		c0.275,0.021,0.481,0.262,0.46,0.537C15.082,26.285,14.862,26.484,14.604,26.484z M15.139,3.977
		c0.034-0.274,0.284-0.468,0.558-0.434c0.8,0.1,1.521,0.366,2.088,0.77c0.226,0.161,0.277,0.473,0.117,0.698
		C17.805,5.147,17.65,5.22,17.495,5.22c-0.101,0-0.202-0.03-0.29-0.093c-0.426-0.304-1.006-0.514-1.632-0.592
		C15.299,4.5,15.105,4.25,15.139,3.977z M18.586,24.848c-0.363,0.597-1.019,1.083-1.848,1.37c-0.054,0.019-0.108,0.027-0.163,0.027
		c-0.207,0-0.401-0.13-0.473-0.337c-0.09-0.261,0.048-0.545,0.31-0.636c0.608-0.211,1.077-0.546,1.318-0.944
		c0.146-0.236,0.453-0.31,0.688-0.168C18.653,24.304,18.729,24.611,18.586,24.848z M19.132,6.017c-0.276,0-0.5-0.224-0.5-0.5
		s0.224-0.5,0.5-0.5h1.892c0.219,0,0.411,0.142,0.477,0.35c0.098,0.258-0.02,0.584-0.278,0.682
		c-0.067,0.025-0.136,0.038-0.201,0.038c-0.092,0-0.178-0.024-0.251-0.07H19.132z M21.902,23.761c-0.163,0.28-0.3,0.578-0.406,0.886
		c-0.07,0.201-0.26,0.336-0.473,0.336h-0.927c-0.276,0-0.5-0.224-0.5-0.5s0.224-0.5,0.5-0.5h0.582
		c0.104-0.25,0.225-0.492,0.36-0.726c0.139-0.239,0.446-0.321,0.684-0.18C21.961,23.216,22.042,23.521,21.902,23.761z
		 M24.647,21.495c-0.571,0.199-1.1,0.497-1.57,0.884c-0.093,0.077-0.205,0.114-0.317,0.114c-0.144,0-0.287-0.063-0.386-0.183
		c-0.176-0.213-0.146-0.528,0.068-0.703c0.543-0.447,1.151-0.795,1.81-1.032c0.297-0.161,0.73,0.076,0.73,0.436
		C24.982,21.224,24.848,21.426,24.647,21.495z M25.765,17.671c-0.223,0.339-0.489,0.619-0.782,0.825v0.515
		c0,0.276-0.224,0.5-0.5,0.5s-0.5-0.224-0.5-0.5v-0.794c0-0.187,0.104-0.357,0.27-0.443c0.248-0.129,0.481-0.354,0.677-0.651
		c0.151-0.232,0.461-0.295,0.692-0.144C25.852,17.13,25.916,17.44,25.765,17.671z M26.473,15.565
		c-0.026,0.258-0.243,0.452-0.497,0.452c-0.017,0-0.033-0.001-0.05-0.003c-0.275-0.027-0.476-0.272-0.449-0.546
		C25.492,15.314,25.5,15.159,25.5,15c0-0.459-0.065-0.9-0.194-1.312c-0.082-0.264,0.064-0.544,0.328-0.626
		c0.265-0.082,0.545,0.064,0.627,0.328c0.158,0.508,0.239,1.05,0.239,1.61C26.5,15.192,26.49,15.381,26.473,15.565z"/>
</g>
<g id="Dashed_Frame_26">
</g>
<g id="Dashed_Frame_27">
</g>
<g id="Dashed_Frame_28">
</g>
<g id="Dashed_Frame_29">
</g>
<g id="Dashed_Frame_30">
</g>
<g id="Dashed_Frame_31">
</g>
<g id="Dashed_Frame_32">
</g>
<g id="Dashed_Frame_33">
</g>
<g id="Dashed_Frame_35">
</g>
</svg>
