<?xml version="1.0" encoding="iso-8859-1"?>
<!-- Generator: Adobe Illustrator 19.2.1, SVG Export Plug-In . SVG Version: 6.00 Build 0)  -->
<svg version="1.1" xmlns="http://www.w3.org/2000/svg" xmlns:xlink="http://www.w3.org/1999/xlink" x="0px" y="0px"
	 viewBox="0 0 30 30" style="enable-background:new 0 0 30 30;" xml:space="preserve">
<g id="Photo_frame">
</g>
<g id="Photo_frame_2">
</g>
<g id="Photo_frame_3">
</g>
<g id="Photo_frame__4">
</g>
<g id="Photo_frame_5">
</g>
<g id="Photo_frame_6">
</g>
<g id="Photo_frame_7">
</g>
<g id="Round_Frame_1">
</g>
<g id="Rectangle_Frame_1">
</g>
<g id="Square_Frame_1">
</g>
<g id="Rectangle_Frame_2">
</g>
<g id="Oval_Frame_1">
</g>
<g id="Round_Frame_2">
</g>
<g id="Rectangle_Frame_3">
</g>
<g id="Rectangle_Frame_4">
</g>
<g id="Rectangle_Frame_5">
</g>
<g id="Square_Frame_2">
</g>
<g id="Rectangle_Frame_6">
</g>
<g id="Rectangle_Frame_7">
</g>
<g id="Oval_Frame_2">
</g>
<g id="Round_Frame_3">
</g>
<g id="Rectangle_Frame_8">
</g>
<g id="Square_Frame_3">
</g>
<g id="Rectangle_Frame_9">
</g>
<g id="Rectangle_Frame_10">
</g>
<g id="Square_Frame_4">
</g>
<g id="Rectangle_Frame_11">
</g>
<g id="Rectangle_Frame_12">
</g>
<g id="Square_Frame_5">
</g>
<g id="Rectangle_Frame_13">
</g>
<g id="Round_Frame">
</g>
<g id="Frame_2">
</g>
<g id="Frame_1">
</g>
<g id="Frame_3">
</g>
<g id="Frame_4">
</g>
<g id="Frame_5">
</g>
<g id="Frame_6">
</g>
<g id="Frame_7">
</g>
<g id="Frame_8">
</g>
<g id="Frame_9">
</g>
<g id="Frame_10">
</g>
<g id="Frame_11">
</g>
<g id="Frame_12">
</g>
<g id="Frame_13">
</g>
<g id="Frame_14">
</g>
<g id="Frame_15">
</g>
<g id="Frame_16">
</g>
<g id="Frame_17">
</g>
<g id="Frame_18">
</g>
<g id="Frame_19">
</g>
<g id="Frame_20">
</g>
<g id="Frame_21">
</g>
<g id="Frame_22">
</g>
<g id="Frame_23">
</g>
<g id="Frame_24">
</g>
<g id="Frame_25">
</g>
<g id="Frame_26">
</g>
<g id="Frame_27">
</g>
<g id="Frame_28">
</g>
<g id="Frame_29">
</g>
<g id="Frame_30">
</g>
<g id="Frame_Hole_1">
</g>
<g id="Frame_Hole_2">
</g>
<g id="Frame_Hole_3">
</g>
<g id="Frame_Hole_4">
</g>
<g id="Frame_31">
</g>
<g id="Frame_32">
</g>
<g id="Frame_33">
</g>
<g id="Frame_34">
</g>
<g id="Frame_35">
</g>
<g id="Dashed_Frame_1">
</g>
<g id="Dashed_Frame_2">
</g>
<g id="Dashed_Frame_3">
</g>
<g id="Dashed_Frame_4">
</g>
<g id="Dashed_Frame_5">
</g>
<g id="Dashed_Frame_6">
</g>
<g id="Dashed_Frame_7">
</g>
<g id="Dashed_Frame_8">
	<g>
		<path d="M21.935,30H8.065C7.136,30,6,29.132,6,28.119V28c0-0.402-0.121-1-0.456-1H4.282c-1.049,0-1.239-0.662-1.274-1.194
			C3.003,25.777,3,25.748,3,25.718C3,25.338,2.44,25,2,25H1.761C0.807,25,0,24.174,0,23.195V6.805c0-0.968,1.135-1.604,1.264-1.672
			c0.123-0.066,0.266-0.076,0.394-0.034C2.396,5.053,3,4.697,3,4.402c0-0.01,0-0.02,0.001-0.029C3.01,3.825,3.111,3,4.282,3h1.262
			C5.879,3,6,2.402,6,2V1.761C6,0.77,7.11,0,8.065,0h13.869C22.864,0,24,0.868,24,1.881V2c0,0.402,0.121,1,0.456,1h1.262
			c1.049,0,1.239,0.662,1.274,1.194C26.997,4.223,27,4.252,27,4.282C27,4.662,27.56,5,28,5h0.239C29.193,5,30,5.826,30,6.805v16.391
			c0,0.968-1.135,1.604-1.264,1.672c-0.124,0.066-0.268,0.075-0.394,0.034C27.604,24.947,27,25.303,27,25.598
			c0,0.01,0,0.02-0.001,0.029C26.99,26.175,26.889,27,25.718,27h-1.262C24.121,27,24,27.598,24,28v0.239
			C24,29.23,22.89,30,21.935,30z M4.05,25.978C4.058,25.978,4.121,26,4.282,26h1.262C6.415,26,7,26.804,7,28v0.119
			C7,28.498,7.607,29,8.065,29h13.869C22.423,29,23,28.588,23,28.239V28c0-1.196,0.585-2,1.456-2h1.262
			c0.189,0,0.243-0.031,0.243-0.031C25.969,25.95,26,25.847,26,25.479c0-0.071,0.015-0.14,0.042-0.201
			c0.226-0.837,1.319-1.352,2.367-1.38C28.691,23.71,29,23.412,29,23.195V6.805C29,6.376,28.645,6,28.239,6H28
			c-0.762,0-1.593-0.457-1.889-1.164C26.042,4.75,26,4.641,26,4.521c0-0.36-0.03-0.467-0.049-0.499H25.95
			C25.942,4.022,25.879,4,25.718,4h-1.262C23.585,4,23,3.196,23,2V1.881C23,1.502,22.393,1,21.935,1H8.065C7.577,1,7,1.412,7,1.761
			V2c0,1.196-0.585,2-1.456,2H4.282C4.093,4,4.039,4.031,4.039,4.031C4.031,4.05,4,4.153,4,4.521c0,0.071-0.015,0.14-0.042,0.201
			C3.732,5.56,2.639,6.074,1.591,6.103C1.309,6.29,1,6.588,1,6.805v16.391C1,23.624,1.355,24,1.761,24H2
			c0.762,0,1.593,0.457,1.889,1.164C3.958,25.25,4,25.359,4,25.479C4,25.839,4.03,25.945,4.05,25.978L4.05,25.978z"/>
	</g>
	<g>
		<g>
			<path d="M9.845,27h-0.5c-0.212,0-0.401-0.134-0.472-0.334c-0.048-0.137-0.105-0.268-0.171-0.395
				c-0.127-0.245-0.03-0.547,0.215-0.674c0.242-0.125,0.547-0.031,0.674,0.215C9.623,25.874,9.653,25.937,9.682,26h0.163
				c0.276,0,0.5,0.224,0.5,0.5S10.121,27,9.845,27z"/>
		</g>
		<g>
			<path d="M8.227,25.407c-0.112,0-0.226-0.038-0.319-0.115c-0.161-0.134-0.338-0.252-0.523-0.35
				c-0.244-0.13-0.338-0.433-0.209-0.676c0.13-0.245,0.435-0.336,0.676-0.209c0.247,0.131,0.48,0.287,0.695,0.465
				c0.212,0.176,0.242,0.491,0.065,0.704C8.513,25.346,8.37,25.407,8.227,25.407z"/>
		</g>
		<g>
			<path d="M6.215,24.591c-0.014,0-0.027-0.001-0.041-0.002c-0.084-0.007-0.168-0.01-0.253-0.01H5.714
				c-0.212,0-0.4-0.134-0.472-0.333c-0.049-0.139-0.106-0.271-0.173-0.399c-0.128-0.245-0.032-0.547,0.213-0.674
				c0.242-0.13,0.547-0.033,0.674,0.213c0.033,0.064,0.065,0.129,0.096,0.195c0.067,0.002,0.136,0.006,0.202,0.012
				c0.275,0.021,0.48,0.263,0.458,0.538C6.691,24.393,6.473,24.591,6.215,24.591z"/>
		</g>
		<g>
			<path d="M3.962,22.566c-0.079,0-0.158-0.019-0.232-0.058c-0.127-0.066-0.259-0.124-0.395-0.172C3.135,22.267,3,22.078,3,21.865
				v-0.5c0-0.276,0.224-0.5,0.5-0.5s0.5,0.224,0.5,0.5v0.163c0.065,0.03,0.131,0.062,0.194,0.096
				c0.245,0.129,0.339,0.431,0.21,0.675C4.314,22.47,4.142,22.566,3.962,22.566z"/>
		</g>
		<g>
			<path d="M3.5,20.046c-0.276,0-0.5-0.224-0.5-0.5v-0.909c0-0.276,0.224-0.5,0.5-0.5S4,18.36,4,18.637v0.909
				C4,19.822,3.776,20.046,3.5,20.046z M3.5,17.318c-0.276,0-0.5-0.224-0.5-0.5v-0.909c0-0.276,0.224-0.5,0.5-0.5s0.5,0.224,0.5,0.5
				v0.909C4,17.095,3.776,17.318,3.5,17.318z M3.5,14.591c-0.276,0-0.5-0.224-0.5-0.5v-0.91c0-0.276,0.224-0.5,0.5-0.5
				s0.5,0.224,0.5,0.5v0.91C4,14.367,3.776,14.591,3.5,14.591z M3.5,11.862c-0.276,0-0.5-0.224-0.5-0.5v-0.909
				c0-0.276,0.224-0.5,0.5-0.5s0.5,0.224,0.5,0.5v0.909C4,11.639,3.776,11.862,3.5,11.862z"/>
		</g>
		<g>
			<path d="M3.5,9.135c-0.276,0-0.5-0.224-0.5-0.5v-0.5c0-0.213,0.135-0.401,0.335-0.472c0.136-0.048,0.268-0.105,0.395-0.172
				c0.243-0.129,0.546-0.036,0.675,0.21c0.129,0.244,0.035,0.546-0.21,0.675C4.131,8.41,4.065,8.441,4,8.472v0.163
				C4,8.911,3.776,9.135,3.5,9.135z"/>
		</g>
		<g>
			<path d="M5.513,6.884c-0.078,0-0.157-0.018-0.23-0.057C5.037,6.7,4.941,6.398,5.069,6.153c0.066-0.128,0.124-0.261,0.173-0.399
				c0.071-0.199,0.26-0.333,0.472-0.333h0.207c0.085,0,0.169-0.003,0.253-0.01C6.447,5.391,6.69,5.594,6.712,5.869
				c0.022,0.275-0.183,0.517-0.458,0.538c-0.066,0.006-0.135,0.01-0.202,0.012C6.021,6.485,5.989,6.55,5.956,6.614
				C5.867,6.786,5.693,6.884,5.513,6.884z"/>
		</g>
		<g>
			<path d="M7.617,6C7.438,6,7.265,5.903,7.175,5.733C7.046,5.49,7.14,5.188,7.384,5.058c0.185-0.098,0.361-0.216,0.525-0.35
				c0.213-0.177,0.528-0.146,0.703,0.068c0.176,0.213,0.146,0.528-0.068,0.703C8.329,5.657,8.096,5.813,7.851,5.942
				C7.776,5.981,7.696,6,7.617,6z"/>
		</g>
		<g>
			<path d="M9.146,4.458c-0.078,0-0.156-0.018-0.229-0.056C8.672,4.275,8.575,3.974,8.702,3.729
				c0.065-0.127,0.123-0.258,0.171-0.395C8.943,3.134,9.133,3,9.345,3h0.5c0.276,0,0.5,0.224,0.5,0.5S10.121,4,9.845,4H9.682
				C9.653,4.063,9.623,4.126,9.591,4.188C9.502,4.359,9.327,4.458,9.146,4.458z"/>
		</g>
		<g>
			<path d="M18.28,4h-0.938c-0.276,0-0.5-0.224-0.5-0.5s0.224-0.5,0.5-0.5h0.938c0.276,0,0.5,0.224,0.5,0.5S18.557,4,18.28,4z
				 M15.469,4h-0.938c-0.276,0-0.5-0.224-0.5-0.5s0.224-0.5,0.5-0.5h0.938c0.276,0,0.5,0.224,0.5,0.5S15.745,4,15.469,4z M12.657,4
				H11.72c-0.276,0-0.5-0.224-0.5-0.5S11.443,3,11.72,3h0.938c0.276,0,0.5,0.224,0.5,0.5S12.934,4,12.657,4z"/>
		</g>
		<g>
			<path d="M20.854,4.458c-0.181,0-0.355-0.099-0.444-0.271C20.377,4.126,20.347,4.063,20.318,4h-0.163c-0.276,0-0.5-0.224-0.5-0.5
				s0.224-0.5,0.5-0.5h0.5c0.212,0,0.401,0.134,0.472,0.334c0.048,0.137,0.105,0.268,0.171,0.395
				c0.127,0.245,0.03,0.547-0.215,0.674C21.01,4.44,20.932,4.458,20.854,4.458z"/>
		</g>
		<g>
			<path d="M22.383,6c-0.079,0-0.159-0.019-0.233-0.058c-0.247-0.131-0.48-0.287-0.695-0.465c-0.212-0.176-0.242-0.491-0.065-0.704
				s0.491-0.241,0.704-0.065c0.161,0.134,0.338,0.252,0.523,0.35c0.244,0.13,0.338,0.433,0.209,0.676
				C22.735,5.903,22.562,6,22.383,6z"/>
		</g>
		<g>
			<path d="M24.487,6.884c-0.181,0-0.354-0.098-0.443-0.27c-0.033-0.064-0.065-0.129-0.096-0.195
				c-0.067-0.002-0.136-0.006-0.202-0.012c-0.275-0.021-0.48-0.263-0.458-0.538c0.021-0.275,0.271-0.48,0.538-0.458
				c0.084,0.007,0.168,0.01,0.253,0.01h0.207c0.212,0,0.4,0.134,0.472,0.333c0.049,0.139,0.106,0.271,0.173,0.399
				c0.128,0.245,0.032,0.547-0.213,0.674C24.645,6.866,24.565,6.884,24.487,6.884z"/>
		</g>
		<g>
			<path d="M26.5,9.135c-0.276,0-0.5-0.224-0.5-0.5V8.472c-0.065-0.03-0.131-0.062-0.194-0.096c-0.245-0.129-0.339-0.431-0.21-0.675
				c0.129-0.246,0.432-0.339,0.675-0.21c0.127,0.066,0.259,0.124,0.395,0.172C26.865,7.733,27,7.922,27,8.135v0.5
				C27,8.911,26.776,9.135,26.5,9.135z"/>
		</g>
		<g>
			<path d="M26.5,20.047c-0.276,0-0.5-0.224-0.5-0.5v-0.909c0-0.276,0.224-0.5,0.5-0.5s0.5,0.224,0.5,0.5v0.909
				C27,19.823,26.776,20.047,26.5,20.047z M26.5,17.319c-0.276,0-0.5-0.224-0.5-0.5v-0.91c0-0.276,0.224-0.5,0.5-0.5
				s0.5,0.224,0.5,0.5v0.91C27,17.096,26.776,17.319,26.5,17.319z M26.5,14.591c-0.276,0-0.5-0.224-0.5-0.5v-0.909
				c0-0.276,0.224-0.5,0.5-0.5s0.5,0.224,0.5,0.5v0.909C27,14.367,26.776,14.591,26.5,14.591z M26.5,11.863
				c-0.276,0-0.5-0.224-0.5-0.5v-0.909c0-0.276,0.224-0.5,0.5-0.5s0.5,0.224,0.5,0.5v0.909C27,11.64,26.776,11.863,26.5,11.863z"/>
		</g>
		<g>
			<path d="M26.038,22.566c-0.18,0-0.353-0.097-0.442-0.268c-0.129-0.244-0.035-0.546,0.21-0.675
				c0.063-0.034,0.129-0.065,0.194-0.096v-0.163c0-0.276,0.224-0.5,0.5-0.5s0.5,0.224,0.5,0.5v0.5c0,0.213-0.135,0.401-0.335,0.472
				c-0.136,0.048-0.268,0.105-0.395,0.172C26.196,22.548,26.117,22.566,26.038,22.566z"/>
		</g>
		<g>
			<path d="M23.785,24.591c-0.258,0-0.477-0.198-0.497-0.46c-0.022-0.275,0.183-0.517,0.458-0.538
				c0.066-0.006,0.135-0.01,0.202-0.012c0.03-0.066,0.063-0.131,0.096-0.195c0.127-0.246,0.432-0.343,0.674-0.213
				c0.245,0.127,0.341,0.429,0.213,0.674c-0.066,0.128-0.124,0.261-0.173,0.399c-0.071,0.199-0.26,0.333-0.472,0.333h-0.207
				c-0.085,0-0.169,0.003-0.253,0.01C23.813,24.59,23.799,24.591,23.785,24.591z"/>
		</g>
		<g>
			<path d="M21.773,25.406c-0.145,0-0.287-0.063-0.386-0.183c-0.176-0.213-0.146-0.528,0.068-0.703
				c0.215-0.178,0.448-0.333,0.693-0.463c0.242-0.127,0.546-0.036,0.676,0.209c0.129,0.243,0.035,0.546-0.209,0.676
				c-0.185,0.098-0.361,0.216-0.525,0.35C21.998,25.369,21.886,25.406,21.773,25.406z"/>
		</g>
		<g>
			<path d="M20.655,27h-0.5c-0.276,0-0.5-0.224-0.5-0.5s0.224-0.5,0.5-0.5h0.163c0.028-0.063,0.059-0.126,0.091-0.188
				c0.127-0.246,0.431-0.34,0.674-0.215c0.245,0.127,0.342,0.429,0.215,0.674c-0.065,0.127-0.123,0.258-0.171,0.395
				C21.057,26.866,20.867,27,20.655,27z"/>
		</g>
		<g>
			<path d="M18.28,27h-0.938c-0.276,0-0.5-0.224-0.5-0.5s0.224-0.5,0.5-0.5h0.938c0.276,0,0.5,0.224,0.5,0.5S18.557,27,18.28,27z
				 M15.469,27h-0.938c-0.276,0-0.5-0.224-0.5-0.5s0.224-0.5,0.5-0.5h0.938c0.276,0,0.5,0.224,0.5,0.5S15.745,27,15.469,27z
				 M12.657,27H11.72c-0.276,0-0.5-0.224-0.5-0.5s0.224-0.5,0.5-0.5h0.938c0.276,0,0.5,0.224,0.5,0.5S12.934,27,12.657,27z"/>
		</g>
	</g>
</g>
<g id="Dashed_Frame_9">
</g>
<g id="Dashed_Frame_10">
</g>
<g id="Dashed_Frame_11">
</g>
<g id="Dashed_Frame_12">
</g>
<g id="Dashed_Frame_13">
</g>
<g id="Dashed_Frame_14">
</g>
<g id="Dashed_Frame_15">
</g>
<g id="Dashed_Frame_16">
</g>
<g id="Dashed_Frame_17">
</g>
<g id="Dashed_Frame_18">
</g>
<g id="Dashed_Frame_19">
</g>
<g id="Dashed_Frame_20">
</g>
<g id="Dashed_Frame_25">
</g>
<g id="Dashed_Frame_26">
</g>
<g id="Dashed_Frame_27">
</g>
<g id="Dashed_Frame_28">
</g>
<g id="Dashed_Frame_29">
</g>
<g id="Dashed_Frame_30">
</g>
<g id="Dashed_Frame_31">
</g>
<g id="Dashed_Frame_32">
</g>
<g id="Dashed_Frame_33">
</g>
<g id="Dashed_Frame_35">
</g>
</svg>
