<?xml version="1.0" encoding="iso-8859-1"?>
<!-- Generator: Adobe Illustrator 19.2.1, SVG Export Plug-In . SVG Version: 6.00 Build 0)  -->
<svg version="1.1" xmlns="http://www.w3.org/2000/svg" xmlns:xlink="http://www.w3.org/1999/xlink" x="0px" y="0px"
	 viewBox="0 0 30 30" style="enable-background:new 0 0 30 30;" xml:space="preserve">
<g id="Photo_frame">
</g>
<g id="Photo_frame_2">
</g>
<g id="Photo_frame_3">
</g>
<g id="Photo_frame__4">
</g>
<g id="Photo_frame_5">
</g>
<g id="Photo_frame_6">
</g>
<g id="Photo_frame_7">
</g>
<g id="Round_Frame_1">
</g>
<g id="Rectangle_Frame_1">
</g>
<g id="Square_Frame_1">
</g>
<g id="Rectangle_Frame_2">
</g>
<g id="Oval_Frame_1">
</g>
<g id="Round_Frame_2">
</g>
<g id="Rectangle_Frame_3">
</g>
<g id="Rectangle_Frame_4">
</g>
<g id="Rectangle_Frame_5">
</g>
<g id="Square_Frame_2">
</g>
<g id="Rectangle_Frame_6">
</g>
<g id="Rectangle_Frame_7">
</g>
<g id="Oval_Frame_2">
</g>
<g id="Round_Frame_3">
</g>
<g id="Rectangle_Frame_8">
</g>
<g id="Square_Frame_3">
</g>
<g id="Rectangle_Frame_9">
</g>
<g id="Rectangle_Frame_10">
</g>
<g id="Square_Frame_4">
</g>
<g id="Rectangle_Frame_11">
</g>
<g id="Rectangle_Frame_12">
</g>
<g id="Square_Frame_5">
</g>
<g id="Rectangle_Frame_13">
</g>
<g id="Round_Frame">
</g>
<g id="Frame_2">
</g>
<g id="Frame_1">
</g>
<g id="Frame_3">
</g>
<g id="Frame_4">
</g>
<g id="Frame_5">
</g>
<g id="Frame_6">
</g>
<g id="Frame_7">
</g>
<g id="Frame_8">
</g>
<g id="Frame_9">
</g>
<g id="Frame_10">
</g>
<g id="Frame_11">
</g>
<g id="Frame_12">
</g>
<g id="Frame_13">
</g>
<g id="Frame_14">
</g>
<g id="Frame_15">
</g>
<g id="Frame_16">
</g>
<g id="Frame_17">
</g>
<g id="Frame_18">
</g>
<g id="Frame_19">
</g>
<g id="Frame_20">
</g>
<g id="Frame_21">
</g>
<g id="Frame_22">
</g>
<g id="Frame_23">
</g>
<g id="Frame_24">
</g>
<g id="Frame_25">
</g>
<g id="Frame_26">
</g>
<g id="Frame_27">
</g>
<g id="Frame_28">
</g>
<g id="Frame_29">
</g>
<g id="Frame_30">
</g>
<g id="Frame_Hole_1">
</g>
<g id="Frame_Hole_2">
</g>
<g id="Frame_Hole_3">
</g>
<g id="Frame_Hole_4">
</g>
<g id="Frame_31">
</g>
<g id="Frame_32">
</g>
<g id="Frame_33">
</g>
<g id="Frame_34">
</g>
<g id="Frame_35">
</g>
<g id="Dashed_Frame_1">
</g>
<g id="Dashed_Frame_2">
</g>
<g id="Dashed_Frame_3">
</g>
<g id="Dashed_Frame_4">
</g>
<g id="Dashed_Frame_5">
</g>
<g id="Dashed_Frame_6">
</g>
<g id="Dashed_Frame_7">
</g>
<g id="Dashed_Frame_8">
</g>
<g id="Dashed_Frame_9">
</g>
<g id="Dashed_Frame_10">
</g>
<g id="Dashed_Frame_11">
</g>
<g id="Dashed_Frame_12">
</g>
<g id="Dashed_Frame_13">
</g>
<g id="Dashed_Frame_14">
</g>
<g id="Dashed_Frame_15">
</g>
<g id="Dashed_Frame_16">
</g>
<g id="Dashed_Frame_17">
</g>
<g id="Dashed_Frame_18">
</g>
<g id="Dashed_Frame_19">
</g>
<g id="Dashed_Frame_20">
</g>
<g id="Dashed_Frame_25">
</g>
<g id="Dashed_Frame_26">
</g>
<g id="Dashed_Frame_27">
</g>
<g id="Dashed_Frame_28">
	<path d="M29.785,14.589L27,12.655V10.5c0-0.276-0.224-0.5-0.5-0.5h-1.481l0.009-1.987c0.003-0.803-0.306-1.557-0.87-2.124
		C23.586,5.316,22.822,5,22.006,5h-3.773l-2.914-2.407c-0.185-0.153-0.452-0.153-0.637,0L11.768,5H8.065C6.404,5,5,6.404,5,8.065V10
		H3.5C3.224,10,3,10.224,3,10.5v2.155l-2.785,1.934C0.081,14.683,0,14.836,0,15s0.08,0.317,0.214,0.411L3,17.355V19.5
		C3,19.776,3.224,20,3.5,20H5v1.935C5,23.597,6.404,25,8.065,25h3.637l2.896,2.406c0.092,0.077,0.206,0.115,0.319,0.115
		c0.112,0,0.225-0.038,0.317-0.113L18.167,25h3.778c1.658,0,3.015-1.34,3.022-2.987L24.977,20H26.5c0.276,0,0.5-0.224,0.5-0.5
		v-2.166l2.784-1.922C29.919,15.318,30,15.165,30,15S29.92,14.683,29.785,14.589z M8.948,11.896c0,0.276-0.224,0.5-0.5,0.5H7.569
		v1.167c0,0.164-0.08,0.317-0.215,0.411l-0.821,0.57c-0.08,0.056-0.171,0.078-0.261,0.082c-0.036,0.082-0.086,0.159-0.165,0.214
		l-0.231,0.161l0.231,0.162c0.08,0.056,0.131,0.134,0.166,0.218c0.091,0.004,0.183,0.025,0.264,0.081l0.82,0.573
		c0.134,0.094,0.213,0.247,0.213,0.41v1.158h0.879c0.276,0,0.5,0.224,0.5,0.5v1c0,0.276-0.224,0.5-0.5,0.5s-0.5-0.224-0.5-0.5v-0.5
		H7.069c-0.276,0-0.5-0.224-0.5-0.5v-1.397l-0.606-0.424c-0.079-0.055-0.129-0.133-0.165-0.216
		c-0.091-0.004-0.184-0.027-0.264-0.084l-0.82-0.573C4.58,15.316,4.5,15.163,4.5,15s0.081-0.317,0.215-0.41l0.821-0.57
		c0.08-0.056,0.17-0.076,0.26-0.08c0.036-0.083,0.086-0.161,0.166-0.216l0.606-0.421v-1.405c0-0.276,0.224-0.5,0.5-0.5h0.879v-0.5
		c0-0.276,0.224-0.5,0.5-0.5s0.5,0.224,0.5,0.5V11.896z M11.645,22.052h-1.427c-0.223,0-0.446-0.034-0.664-0.102
		c-0.264-0.082-0.411-0.362-0.329-0.626c0.082-0.263,0.359-0.413,0.626-0.329c0.121,0.037,0.244,0.057,0.367,0.057h1.427
		c0.276,0,0.5,0.224,0.5,0.5S11.921,22.052,11.645,22.052z M11.68,8.948h-1.462c-0.119,0-0.236,0.017-0.349,0.051
		C9.82,9.014,9.771,9.021,9.724,9.021c-0.215,0-0.413-0.139-0.479-0.355c-0.08-0.264,0.069-0.543,0.334-0.623
		C9.786,7.98,10,7.948,10.217,7.948h1.462c0.276,0,0.5,0.224,0.5,0.5S11.956,8.948,11.68,8.948z M16.033,23.043l-0.772,0.635
		c-0.092,0.075-0.205,0.113-0.317,0.113c-0.114,0-0.227-0.038-0.32-0.115l-0.769-0.64c-0.212-0.177-0.241-0.492-0.064-0.704
		c0.176-0.212,0.49-0.241,0.704-0.065l0.451,0.376l0.454-0.373c0.214-0.175,0.528-0.143,0.704,0.069
		C16.278,22.553,16.247,22.867,16.033,23.043z M16.156,7.665c-0.099,0.12-0.242,0.182-0.386,0.182c-0.112,0-0.225-0.038-0.318-0.115
		L15,7.357l-0.453,0.374c-0.213,0.177-0.528,0.146-0.704-0.067c-0.176-0.213-0.146-0.528,0.067-0.704l0.771-0.637
		c0.185-0.153,0.452-0.153,0.637,0l0.771,0.637C16.303,7.137,16.332,7.452,16.156,7.665z M20.393,21.972
		c-0.194,0.053-0.397,0.08-0.603,0.08h-1.503c-0.276,0-0.5-0.224-0.5-0.5s0.224-0.5,0.5-0.5h1.503c0.116,0,0.229-0.015,0.337-0.045
		c0.271-0.069,0.541,0.084,0.615,0.35C20.815,21.623,20.658,21.898,20.393,21.972z M20.789,8.648
		c-0.062,0.221-0.263,0.365-0.481,0.365c-0.045,0-0.09-0.006-0.135-0.019c-0.11-0.031-0.225-0.046-0.341-0.046h-1.493
		c-0.276,0-0.5-0.224-0.5-0.5s0.224-0.5,0.5-0.5h1.493c0.208,0,0.413,0.028,0.61,0.083C20.709,8.106,20.863,8.382,20.789,8.648z
		 M25.284,15.412l-0.823,0.568c-0.079,0.055-0.169,0.076-0.258,0.08c-0.036,0.081-0.086,0.157-0.165,0.211l-0.607,0.42v1.412
		c0,0.276-0.224,0.5-0.5,0.5h-0.896l-0.003,0.503c-0.001,0.274-0.225,0.497-0.5,0.497c-0.001,0-0.002,0-0.002,0
		c-0.276-0.001-0.499-0.227-0.498-0.503l0.005-1c0.001-0.274,0.225-0.497,0.5-0.497h0.894v-1.175c0-0.164,0.081-0.318,0.216-0.411
		l0.823-0.569c0.079-0.054,0.168-0.074,0.258-0.079c0.036-0.082,0.086-0.158,0.165-0.213l0.229-0.158l-0.229-0.159
		c-0.079-0.055-0.129-0.131-0.165-0.214c-0.091-0.004-0.182-0.026-0.262-0.082l-0.821-0.57c-0.135-0.093-0.215-0.247-0.215-0.411
		v-1.167h-0.867c-0.133,0-0.261-0.053-0.354-0.147s-0.146-0.222-0.146-0.355l0.004-1c0.001-0.275,0.225-0.498,0.5-0.498
		c0.001,0,0.001,0,0.002,0c0.276,0.001,0.499,0.226,0.498,0.502l-0.002,0.498h0.865c0.276,0,0.5,0.224,0.5,0.5v1.405l0.606,0.421
		c0.08,0.055,0.13,0.133,0.166,0.216c0.091,0.004,0.181,0.024,0.261,0.08l0.821,0.57C25.42,14.683,25.5,14.836,25.5,15
		S25.419,15.318,25.284,15.412z"/>
</g>
<g id="Dashed_Frame_29">
</g>
<g id="Dashed_Frame_30">
</g>
<g id="Dashed_Frame_31">
</g>
<g id="Dashed_Frame_32">
</g>
<g id="Dashed_Frame_33">
</g>
<g id="Dashed_Frame_35">
</g>
</svg>
