<?xml version="1.0" encoding="iso-8859-1"?>
<!-- Generator: Adobe Illustrator 19.2.1, SVG Export Plug-In . SVG Version: 6.00 Build 0)  -->
<svg version="1.1" xmlns="http://www.w3.org/2000/svg" xmlns:xlink="http://www.w3.org/1999/xlink" x="0px" y="0px"
	 viewBox="0 0 30 30" style="enable-background:new 0 0 30 30;" xml:space="preserve">
<g id="Photo_frame">
</g>
<g id="Photo_frame_2">
</g>
<g id="Photo_frame_3">
</g>
<g id="Photo_frame__4">
</g>
<g id="Photo_frame_5">
</g>
<g id="Photo_frame_6">
</g>
<g id="Photo_frame_7">
</g>
<g id="Round_Frame_1">
</g>
<g id="Rectangle_Frame_1">
</g>
<g id="Square_Frame_1">
</g>
<g id="Rectangle_Frame_2">
</g>
<g id="Oval_Frame_1">
</g>
<g id="Round_Frame_2">
</g>
<g id="Rectangle_Frame_3">
</g>
<g id="Rectangle_Frame_4">
</g>
<g id="Rectangle_Frame_5">
</g>
<g id="Square_Frame_2">
</g>
<g id="Rectangle_Frame_6">
</g>
<g id="Rectangle_Frame_7">
</g>
<g id="Oval_Frame_2">
</g>
<g id="Round_Frame_3">
</g>
<g id="Rectangle_Frame_8">
</g>
<g id="Square_Frame_3">
</g>
<g id="Rectangle_Frame_9">
</g>
<g id="Rectangle_Frame_10">
</g>
<g id="Square_Frame_4">
</g>
<g id="Rectangle_Frame_11">
</g>
<g id="Rectangle_Frame_12">
</g>
<g id="Square_Frame_5">
</g>
<g id="Rectangle_Frame_13">
</g>
<g id="Round_Frame">
</g>
<g id="Frame_2">
</g>
<g id="Frame_1">
</g>
<g id="Frame_3">
</g>
<g id="Frame_4">
</g>
<g id="Frame_5">
</g>
<g id="Frame_6">
</g>
<g id="Frame_7">
</g>
<g id="Frame_8">
</g>
<g id="Frame_9">
</g>
<g id="Frame_10">
</g>
<g id="Frame_11">
</g>
<g id="Frame_12">
</g>
<g id="Frame_13">
</g>
<g id="Frame_14">
</g>
<g id="Frame_15">
</g>
<g id="Frame_16">
</g>
<g id="Frame_17">
</g>
<g id="Frame_18">
</g>
<g id="Frame_19">
</g>
<g id="Frame_20">
</g>
<g id="Frame_21">
</g>
<g id="Frame_22">
</g>
<g id="Frame_23">
</g>
<g id="Frame_24">
</g>
<g id="Frame_25">
</g>
<g id="Frame_26">
</g>
<g id="Frame_27">
</g>
<g id="Frame_28">
</g>
<g id="Frame_29">
</g>
<g id="Frame_30">
</g>
<g id="Frame_Hole_1">
</g>
<g id="Frame_Hole_2">
</g>
<g id="Frame_Hole_3">
</g>
<g id="Frame_Hole_4">
</g>
<g id="Frame_31">
</g>
<g id="Frame_32">
</g>
<g id="Frame_33">
</g>
<g id="Frame_34">
</g>
<g id="Frame_35">
</g>
<g id="Dashed_Frame_1">
</g>
<g id="Dashed_Frame_2">
</g>
<g id="Dashed_Frame_3">
</g>
<g id="Dashed_Frame_4">
</g>
<g id="Dashed_Frame_5">
</g>
<g id="Dashed_Frame_6">
</g>
<g id="Dashed_Frame_7">
</g>
<g id="Dashed_Frame_8">
</g>
<g id="Dashed_Frame_9">
</g>
<g id="Dashed_Frame_10">
</g>
<g id="Dashed_Frame_11">
</g>
<g id="Dashed_Frame_12">
</g>
<g id="Dashed_Frame_13">
	<g>
		<g>
			<path d="M15,30c-2.261,0-4.136-1.085-5.189-2.99H9.326c-1.404,0-2.658-0.889-2.956-2H5.48c-0.229,0-0.429-0.156-0.485-0.378
				c-0.225-0.897-0.868-1.951-1.616-2.138C3.156,22.438,3,22.238,3,22.009V7.555c0-0.229,0.156-0.43,0.379-0.485
				c0.748-0.187,1.391-1.24,1.616-2.138C5.051,4.71,5.25,4.554,5.48,4.554h0.891c0.297-1.111,1.551-2,2.956-2h0.485
				C11.093,0.271,13.372,0,15,0c1.65,0,3.956,0.272,5.229,2.554h0.445c1.404,0,2.658,0.889,2.956,2h0.891
				c0.229,0,0.429,0.156,0.485,0.378c0.233,0.93,0.879,2.018,1.617,2.202C26.844,7.19,27,7.39,27,7.619v14.453
				c0,0.229-0.156,0.43-0.379,0.485c-0.767,0.191-1.394,1.188-1.616,2.074c-0.056,0.222-0.255,0.378-0.485,0.378h-0.884
				c-0.271,1.243-1.437,3-2.962,3h-0.623C18.996,28.998,17.164,30,15,30z M5.854,24.01h0.95c0.276,0,0.5,0.224,0.5,0.5
				c0,0.693,0.883,1.5,2.022,1.5h0.787c0.19,0,0.365,0.108,0.449,0.279C11.421,28.037,12.997,29,15,29
				c1.965,0,3.609-0.952,4.493-1.843c0.094-0.095,0.222-0.147,0.355-0.147h0.826c1.044,0,2.022-1.719,2.022-2.5
				c0-0.276,0.224-0.5,0.5-0.5h0.952c0.321-0.938,0.967-1.891,1.853-2.29V7.967c-0.87-0.417-1.527-1.441-1.854-2.413h-0.95
				c-0.276,0-0.5-0.224-0.5-0.5c0-0.693-0.883-1.5-2.022-1.5h-0.748c-0.191,0-0.366-0.109-0.45-0.281C18.712,1.701,17.332,1,15,1
				c-2.296,0-3.665,0.701-4.438,2.274c-0.084,0.171-0.258,0.279-0.449,0.279H9.326c-1.139,0-2.022,0.807-2.022,1.5
				c0,0.276-0.224,0.5-0.5,0.5h-0.95C5.528,6.521,4.881,7.5,4,7.906v13.751C4.881,22.063,5.528,23.043,5.854,24.01z"/>
		</g>
		<g>
			<g>
				<path d="M12.624,25.853c-0.153,0-0.305-0.07-0.403-0.203c-0.051-0.068-0.098-0.14-0.144-0.213l-0.525-0.857H9.9
					c-0.276,0-0.5-0.224-0.5-0.5v-1.921H7.911c-0.172,0-0.333-0.089-0.424-0.235c-0.339-0.544-0.769-1.003-1.276-1.364
					C6.078,20.465,6,20.313,6,20.151v-1.5c0-0.276,0.224-0.5,0.5-0.5s0.5,0.224,0.5,0.5V19.9c0.452,0.354,0.848,0.776,1.18,1.258
					H9.9c0.276,0,0.5,0.224,0.5,0.5v1.921h1.432c0.174,0,0.335,0.091,0.426,0.238l0.671,1.095c0.03,0.049,0.063,0.097,0.097,0.144
					c0.164,0.223,0.117,0.535-0.105,0.699C12.831,25.821,12.727,25.853,12.624,25.853z"/>
			</g>
			<g>
				<path d="M6.5,17.065c-0.276,0-0.5-0.224-0.5-0.5v-3.13c0-0.276,0.224-0.5,0.5-0.5s0.5,0.224,0.5,0.5v3.13
					C7,16.842,6.776,17.065,6.5,17.065z"/>
			</g>
			<g>
				<path d="M6.5,11.849c-0.276,0-0.5-0.224-0.5-0.5v-1.5c0-0.162,0.078-0.313,0.21-0.407c0.507-0.361,0.937-0.82,1.276-1.364
					c0.091-0.146,0.252-0.235,0.424-0.235H9.4V5.921c0-0.276,0.224-0.5,0.5-0.5h1.652l0.524-0.856
					c0.046-0.074,0.094-0.146,0.145-0.214c0.164-0.223,0.477-0.271,0.699-0.105c0.222,0.164,0.27,0.477,0.105,0.699
					c-0.034,0.047-0.067,0.095-0.098,0.145l-0.67,1.094c-0.091,0.147-0.252,0.238-0.426,0.238H10.4v1.921c0,0.276-0.224,0.5-0.5,0.5
					H8.18C7.848,9.323,7.452,9.745,7,10.1v1.249C7,11.625,6.776,11.849,6.5,11.849z"/>
			</g>
			<g>
				<path d="M16.177,4.229c-0.063,0-0.127-0.012-0.189-0.037c-0.607-0.248-1.319-0.256-1.938-0.015
					c-0.256,0.102-0.547-0.027-0.647-0.284c-0.1-0.258,0.027-0.548,0.285-0.647c0.856-0.335,1.835-0.323,2.678,0.021
					c0.256,0.104,0.378,0.396,0.274,0.652C16.561,4.111,16.374,4.229,16.177,4.229z"/>
			</g>
			<g>
				<path d="M23.5,11.909c-0.276,0-0.5-0.224-0.5-0.5v-1.25c-0.451-0.354-0.846-0.774-1.18-1.256H20.1c-0.276,0-0.5-0.224-0.5-0.5
					V6.482h-1.42c-0.177,0-0.34-0.093-0.43-0.245L17,4.983c-0.157-0.227-0.101-0.538,0.126-0.695
					c0.227-0.159,0.538-0.102,0.696,0.127c0.041,0.059,0.081,0.121,0.118,0.183l0.524,0.885H20.1c0.276,0,0.5,0.224,0.5,0.5v1.921
					h1.49c0.172,0,0.333,0.089,0.424,0.235c0.341,0.544,0.77,1.003,1.276,1.363C23.922,9.596,24,9.747,24,9.909v1.5
					C24,11.686,23.776,11.909,23.5,11.909z"/>
			</g>
			<g>
				<path d="M23.5,17.126c-0.276,0-0.5-0.224-0.5-0.5v-3.13c0-0.276,0.224-0.5,0.5-0.5s0.5,0.224,0.5,0.5v3.13
					C24,16.902,23.776,17.126,23.5,17.126z"/>
			</g>
			<g>
				<path d="M17.342,25.901c-0.106,0-0.213-0.034-0.304-0.104c-0.219-0.169-0.26-0.482-0.092-0.701
					c0.04-0.051,0.077-0.104,0.111-0.158l0.675-1.065c0.092-0.145,0.251-0.232,0.422-0.232H19.6V21.72c0-0.276,0.224-0.5,0.5-0.5
					h1.72c0.332-0.481,0.728-0.902,1.18-1.257v-1.25c0-0.276,0.224-0.5,0.5-0.5s0.5,0.224,0.5,0.5v1.5
					c0,0.162-0.078,0.313-0.21,0.407c-0.508,0.361-0.938,0.82-1.276,1.364c-0.091,0.146-0.252,0.235-0.424,0.235H20.6v1.921
					c0,0.276-0.224,0.5-0.5,0.5h-1.67l-0.526,0.831c-0.05,0.08-0.106,0.158-0.164,0.234C17.641,25.834,17.492,25.901,17.342,25.901z
					"/>
			</g>
			<g>
				<path d="M15,27c-0.463,0-0.914-0.086-1.339-0.255c-0.256-0.103-0.382-0.394-0.279-0.649c0.102-0.257,0.393-0.38,0.649-0.28
					c0.6,0.24,1.294,0.245,1.899,0.016c0.258-0.094,0.546,0.032,0.645,0.291c0.098,0.258-0.032,0.547-0.291,0.645
					C15.875,26.922,15.443,27,15,27z"/>
			</g>
		</g>
	</g>
</g>
<g id="Dashed_Frame_14">
</g>
<g id="Dashed_Frame_15">
</g>
<g id="Dashed_Frame_16">
</g>
<g id="Dashed_Frame_17">
</g>
<g id="Dashed_Frame_18">
</g>
<g id="Dashed_Frame_19">
</g>
<g id="Dashed_Frame_20">
</g>
<g id="Dashed_Frame_25">
</g>
<g id="Dashed_Frame_26">
</g>
<g id="Dashed_Frame_27">
</g>
<g id="Dashed_Frame_28">
</g>
<g id="Dashed_Frame_29">
</g>
<g id="Dashed_Frame_30">
</g>
<g id="Dashed_Frame_31">
</g>
<g id="Dashed_Frame_32">
</g>
<g id="Dashed_Frame_33">
</g>
<g id="Dashed_Frame_35">
</g>
</svg>
