<?xml version="1.0" encoding="iso-8859-1"?>
<!-- Generator: Adobe Illustrator 19.2.1, SVG Export Plug-In . SVG Version: 6.00 Build 0)  -->
<svg version="1.1" xmlns="http://www.w3.org/2000/svg" xmlns:xlink="http://www.w3.org/1999/xlink" x="0px" y="0px"
	 viewBox="0 0 30 30" style="enable-background:new 0 0 30 30;" xml:space="preserve">
<g id="Photo_frame">
</g>
<g id="Photo_frame_2">
</g>
<g id="Photo_frame_3">
</g>
<g id="Photo_frame__4">
</g>
<g id="Photo_frame_5">
</g>
<g id="Photo_frame_6">
</g>
<g id="Photo_frame_7">
</g>
<g id="Round_Frame_1">
</g>
<g id="Rectangle_Frame_1">
</g>
<g id="Square_Frame_1">
</g>
<g id="Rectangle_Frame_2">
</g>
<g id="Oval_Frame_1">
</g>
<g id="Round_Frame_2">
</g>
<g id="Rectangle_Frame_3">
</g>
<g id="Rectangle_Frame_4">
</g>
<g id="Rectangle_Frame_5">
</g>
<g id="Square_Frame_2">
</g>
<g id="Rectangle_Frame_6">
</g>
<g id="Rectangle_Frame_7">
</g>
<g id="Oval_Frame_2">
</g>
<g id="Round_Frame_3">
</g>
<g id="Rectangle_Frame_8">
</g>
<g id="Square_Frame_3">
</g>
<g id="Rectangle_Frame_9">
</g>
<g id="Rectangle_Frame_10">
</g>
<g id="Square_Frame_4">
</g>
<g id="Rectangle_Frame_11">
</g>
<g id="Rectangle_Frame_12">
</g>
<g id="Square_Frame_5">
</g>
<g id="Rectangle_Frame_13">
</g>
<g id="Round_Frame">
</g>
<g id="Frame_2">
</g>
<g id="Frame_1">
</g>
<g id="Frame_3">
</g>
<g id="Frame_4">
</g>
<g id="Frame_5">
</g>
<g id="Frame_6">
</g>
<g id="Frame_7">
</g>
<g id="Frame_8">
</g>
<g id="Frame_9">
</g>
<g id="Frame_10">
</g>
<g id="Frame_11">
</g>
<g id="Frame_12">
</g>
<g id="Frame_13">
</g>
<g id="Frame_14">
</g>
<g id="Frame_15">
</g>
<g id="Frame_16">
</g>
<g id="Frame_17">
</g>
<g id="Frame_18">
</g>
<g id="Frame_19">
</g>
<g id="Frame_20">
</g>
<g id="Frame_21">
</g>
<g id="Frame_22">
</g>
<g id="Frame_23">
</g>
<g id="Frame_24">
</g>
<g id="Frame_25">
</g>
<g id="Frame_26">
</g>
<g id="Frame_27">
</g>
<g id="Frame_28">
</g>
<g id="Frame_29">
</g>
<g id="Frame_30">
</g>
<g id="Frame_Hole_1">
</g>
<g id="Frame_Hole_2">
</g>
<g id="Frame_Hole_3">
</g>
<g id="Frame_Hole_4">
</g>
<g id="Frame_31">
</g>
<g id="Frame_32">
</g>
<g id="Frame_33">
</g>
<g id="Frame_34">
</g>
<g id="Frame_35">
</g>
<g id="Dashed_Frame_1">
</g>
<g id="Dashed_Frame_2">
</g>
<g id="Dashed_Frame_3">
</g>
<g id="Dashed_Frame_4">
</g>
<g id="Dashed_Frame_5">
</g>
<g id="Dashed_Frame_6">
</g>
<g id="Dashed_Frame_7">
</g>
<g id="Dashed_Frame_8">
</g>
<g id="Dashed_Frame_9">
</g>
<g id="Dashed_Frame_10">
	<g>
		<path d="M15.005,30c-0.113,0-0.226-0.038-0.318-0.114l-2.31-1.909l-2.716-0.894C9.599,27.063,9.54,27.03,9.49,26.986l-2.158-1.867
			l-2.716-0.894c-0.063-0.021-0.12-0.053-0.169-0.096l-2.131-1.828c-0.085-0.073-0.144-0.173-0.165-0.282l-0.54-2.709
			c-0.013-0.065-0.013-0.132,0-0.197l0.561-2.757l-0.561-2.758c-0.013-0.065-0.013-0.133,0-0.198l0.561-2.78l-0.524-2.9
			C1.604,7.483,1.736,7.25,1.961,7.164l2.833-1.085l2.152-1.947c0.048-0.043,0.104-0.077,0.166-0.1l2.727-0.981l2.152-1.946
			c0.048-0.043,0.104-0.076,0.164-0.099l2.674-0.976c0.109-0.041,0.232-0.041,0.342,0l2.669,0.973
			c0.061,0.022,0.117,0.056,0.165,0.099l2.147,1.944l2.726,0.98c0.062,0.022,0.118,0.056,0.166,0.1L25.2,6.075l2.837,1.086
			c0.226,0.086,0.356,0.32,0.313,0.558l-0.521,2.822l0.56,2.675c0.015,0.067,0.015,0.138,0,0.205l-0.559,2.67l0.559,2.675
			c0.014,0.067,0.015,0.136,0.001,0.203l-0.54,2.63c-0.021,0.104-0.076,0.199-0.156,0.271l-2.12,1.907
			c-0.048,0.043-0.104,0.076-0.165,0.099l-2.725,0.98l-2.149,1.944c-0.048,0.043-0.104,0.077-0.166,0.1l-2.735,0.984l-2.3,1.993
			C15.238,29.959,15.122,30,15.005,30z M10.068,26.165l2.711,0.892c0.06,0.02,0.114,0.05,0.162,0.089l2.056,1.699l2.051-1.776
			c0.046-0.04,0.1-0.071,0.158-0.093l2.729-0.982l2.149-1.944c0.048-0.043,0.104-0.077,0.166-0.1l2.726-0.981l1.925-1.731
			l0.486-2.367l-0.559-2.676c-0.015-0.067-0.015-0.138,0-0.205l0.559-2.67l-0.559-2.669c-0.014-0.063-0.015-0.13-0.002-0.193
			l0.464-2.51l-2.535-0.971c-0.058-0.021-0.11-0.055-0.156-0.096l-2.152-1.945l-2.727-0.981c-0.062-0.022-0.118-0.057-0.167-0.1
			l-2.147-1.944L15,1.032l-2.411,0.88l-2.153,1.947c-0.048,0.044-0.104,0.077-0.166,0.1L7.544,4.94L5.395,6.884
			C5.35,6.925,5.296,6.958,5.238,6.979l-2.533,0.97l0.468,2.587c0.011,0.063,0.011,0.126-0.002,0.188l-0.56,2.775l0.561,2.758
			c0.013,0.065,0.013,0.134,0,0.199l-0.561,2.758l0.487,2.441l1.924,1.651l2.717,0.895c0.063,0.021,0.121,0.053,0.171,0.097
			L10.068,26.165z"/>
	</g>
	<g>
		<g>
			<path d="M5.17,10.723c-0.237,0-0.447-0.17-0.491-0.411L4.501,9.327C4.458,9.091,4.59,8.857,4.814,8.771l0.934-0.357
				c0.257-0.098,0.547,0.029,0.646,0.288c0.099,0.258-0.03,0.547-0.288,0.646L5.559,9.557l0.104,0.577
				c0.049,0.271-0.132,0.532-0.403,0.581C5.229,10.72,5.2,10.723,5.17,10.723z"/>
		</g>
		<g>
			<path d="M7.496,8.21c-0.136,0-0.271-0.056-0.371-0.164C6.94,7.841,6.956,7.524,7.16,7.34l1.107-1.004
				c0.049-0.043,0.104-0.077,0.166-0.1l0.46-0.166c0.263-0.089,0.546,0.041,0.641,0.301c0.094,0.26-0.041,0.547-0.301,0.641
				L8.866,7.144L7.832,8.08C7.736,8.167,7.616,8.21,7.496,8.21z M22.495,8.203c-0.12,0-0.239-0.043-0.335-0.129l-1.036-0.937
				l-0.367-0.132c-0.26-0.094-0.395-0.381-0.301-0.641c0.095-0.259,0.379-0.391,0.641-0.301l0.46,0.166
				c0.061,0.022,0.117,0.057,0.165,0.1l1.108,1.002c0.205,0.186,0.221,0.502,0.036,0.706C22.768,8.147,22.632,8.203,22.495,8.203z
				 M10.93,6.369c-0.205,0-0.397-0.127-0.471-0.331c-0.093-0.26,0.042-0.546,0.302-0.64l0.399-0.144l1.011-0.913
				c0.204-0.185,0.521-0.17,0.706,0.036c0.185,0.205,0.169,0.521-0.036,0.706l-1.084,0.979c-0.048,0.044-0.104,0.077-0.166,0.1
				L11.099,6.34C11.043,6.359,10.985,6.369,10.93,6.369z M19.061,6.364c-0.057,0-0.113-0.01-0.17-0.029l-0.493-0.178
				c-0.061-0.022-0.117-0.057-0.166-0.1l-1.082-0.979c-0.204-0.186-0.22-0.502-0.035-0.707c0.186-0.204,0.504-0.218,0.707-0.035
				L18.83,5.25l0.4,0.144c0.26,0.094,0.395,0.381,0.301,0.641C19.457,6.237,19.266,6.364,19.061,6.364z M14.063,4.026
				c-0.204,0-0.396-0.126-0.47-0.329c-0.095-0.259,0.039-0.546,0.299-0.641l0.938-0.342c0.109-0.041,0.23-0.041,0.342,0l0.927,0.337
				c0.26,0.094,0.394,0.381,0.299,0.641c-0.094,0.26-0.381,0.394-0.641,0.299l-0.756-0.274l-0.767,0.279
				C14.179,4.017,14.12,4.026,14.063,4.026z"/>
		</g>
		<g>
			<path d="M24.816,10.716c-0.03,0-0.062-0.003-0.092-0.009c-0.271-0.05-0.451-0.311-0.4-0.582l0.105-0.574l-0.545-0.209
				c-0.258-0.099-0.387-0.388-0.288-0.646s0.39-0.386,0.646-0.288l0.934,0.357c0.226,0.086,0.356,0.32,0.313,0.558l-0.182,0.983
				C25.263,10.548,25.053,10.716,24.816,10.716z"/>
		</g>
		<g>
			<path d="M17.443,25.241c-0.205,0-0.396-0.127-0.471-0.33c-0.094-0.26,0.041-0.547,0.301-0.641l1.34-0.482l0.224-0.202
				c0.204-0.185,0.521-0.169,0.706,0.036c0.185,0.204,0.169,0.521-0.036,0.706l-0.296,0.268c-0.048,0.043-0.104,0.077-0.165,0.1
				l-1.433,0.517C17.557,25.231,17.5,25.241,17.443,25.241z M20.598,23.168c-0.137,0-0.272-0.056-0.371-0.165
				c-0.185-0.204-0.169-0.521,0.036-0.706l0.5-0.452c0.048-0.043,0.104-0.077,0.165-0.1l1.174-0.423
				c0.262-0.089,0.547,0.041,0.641,0.301c0.094,0.261-0.041,0.547-0.301,0.641l-1.081,0.389l-0.428,0.387
				C20.837,23.125,20.718,23.168,20.598,23.168z M24.046,21.585c-0.137,0-0.273-0.056-0.372-0.166
				c-0.185-0.205-0.168-0.521,0.038-0.706l0.887-0.797l0.08-0.393c0.056-0.271,0.317-0.445,0.591-0.39
				c0.271,0.056,0.444,0.32,0.39,0.591l-0.113,0.554c-0.021,0.104-0.076,0.2-0.156,0.271l-1.01,0.907
				C24.284,21.543,24.165,21.585,24.046,21.585z M25.086,18.242c-0.231,0-0.439-0.162-0.488-0.397l-0.345-1.651
				c-0.015-0.067-0.015-0.138,0-0.205l0.048-0.229c0.056-0.271,0.317-0.447,0.592-0.387c0.27,0.056,0.443,0.321,0.387,0.592
				l-0.026,0.127l0.323,1.549c0.057,0.271-0.117,0.535-0.387,0.592C25.154,18.239,25.12,18.242,25.086,18.242z M25.185,14.479
				c-0.034,0-0.069-0.003-0.104-0.011c-0.271-0.057-0.443-0.321-0.387-0.592l0.117-0.559l-0.233-1.117
				c-0.057-0.271,0.116-0.535,0.387-0.592c0.271-0.063,0.536,0.117,0.592,0.387l0.255,1.22c0.015,0.067,0.015,0.138,0,0.205
				l-0.139,0.661C25.623,14.317,25.416,14.479,25.185,14.479z"/>
		</g>
		<g>
			<path d="M14.967,26.696c-0.113,0-0.227-0.038-0.318-0.115l-0.771-0.638c-0.213-0.176-0.243-0.491-0.066-0.703
				c0.176-0.214,0.491-0.242,0.703-0.066l0.445,0.367l0.436-0.377c0.208-0.181,0.524-0.159,0.705,0.051
				c0.181,0.209,0.158,0.524-0.051,0.705l-0.756,0.654C15.2,26.655,15.084,26.696,14.967,26.696z"/>
		</g>
		<g>
			<path d="M12.437,25.315c-0.052,0-0.104-0.008-0.156-0.025l-1.351-0.444c-0.063-0.021-0.121-0.053-0.171-0.097l-0.388-0.335
				c-0.209-0.18-0.231-0.496-0.051-0.705s0.496-0.231,0.705-0.051l0.312,0.27l1.256,0.413c0.263,0.086,0.405,0.368,0.318,0.631
				C12.842,25.182,12.646,25.315,12.437,25.315z M9.235,23.271c-0.116,0-0.232-0.04-0.327-0.122L8.6,22.882l-1.259-0.414
				c-0.263-0.086-0.405-0.368-0.318-0.631c0.086-0.262,0.367-0.408,0.631-0.318l1.354,0.445c0.063,0.021,0.121,0.054,0.171,0.097
				l0.385,0.333c0.209,0.181,0.231,0.496,0.051,0.705C9.515,23.213,9.375,23.271,9.235,23.271z M5.736,21.755
				c-0.115,0-0.231-0.04-0.326-0.121l-0.792-0.681c-0.085-0.072-0.143-0.172-0.164-0.281L4.28,19.799
				c-0.054-0.271,0.122-0.534,0.393-0.588c0.268-0.057,0.534,0.121,0.588,0.393l0.141,0.704l0.661,0.568
				c0.209,0.18,0.233,0.495,0.053,0.705C6.017,21.696,5.877,21.755,5.736,21.755z M4.961,18.306c-0.033,0-0.067-0.003-0.101-0.01
				c-0.271-0.056-0.445-0.319-0.391-0.59l0.274-1.351l-0.07-0.344c-0.055-0.271,0.119-0.535,0.39-0.591
				c0.272-0.054,0.535,0.119,0.591,0.39l0.091,0.444c0.013,0.066,0.013,0.135,0,0.2l-0.295,1.45
				C5.401,18.143,5.193,18.306,4.961,18.306z M4.778,14.516c-0.232,0-0.44-0.163-0.489-0.4l-0.105-0.518
				c-0.013-0.065-0.013-0.133,0-0.198l0.278-1.378c0.055-0.271,0.323-0.447,0.589-0.392c0.271,0.055,0.446,0.318,0.392,0.589
				l-0.259,1.279l0.086,0.418c0.055,0.271-0.12,0.534-0.391,0.59C4.846,14.513,4.812,14.516,4.778,14.516z"/>
		</g>
	</g>
</g>
<g id="Dashed_Frame_11">
</g>
<g id="Dashed_Frame_12">
</g>
<g id="Dashed_Frame_13">
</g>
<g id="Dashed_Frame_14">
</g>
<g id="Dashed_Frame_15">
</g>
<g id="Dashed_Frame_16">
</g>
<g id="Dashed_Frame_17">
</g>
<g id="Dashed_Frame_18">
</g>
<g id="Dashed_Frame_19">
</g>
<g id="Dashed_Frame_20">
</g>
<g id="Dashed_Frame_25">
</g>
<g id="Dashed_Frame_26">
</g>
<g id="Dashed_Frame_27">
</g>
<g id="Dashed_Frame_28">
</g>
<g id="Dashed_Frame_29">
</g>
<g id="Dashed_Frame_30">
</g>
<g id="Dashed_Frame_31">
</g>
<g id="Dashed_Frame_32">
</g>
<g id="Dashed_Frame_33">
</g>
<g id="Dashed_Frame_35">
</g>
</svg>
