<?xml version="1.0" encoding="iso-8859-1"?>
<!-- Generator: Adobe Illustrator 19.2.1, SVG Export Plug-In . SVG Version: 6.00 Build 0)  -->
<svg version="1.1" xmlns="http://www.w3.org/2000/svg" xmlns:xlink="http://www.w3.org/1999/xlink" x="0px" y="0px"
	 viewBox="0 0 24 24" style="enable-background:new 0 0 24 24;" xml:space="preserve">
<g id="Photo_frame">
</g>
<g id="Photo_frame_2">
</g>
<g id="Photo_frame_3">
</g>
<g id="Photo_frame__4">
</g>
<g id="Photo_frame_5">
</g>
<g id="Photo_frame_6">
</g>
<g id="Photo_frame_7">
</g>
<g id="Round_Frame_1">
</g>
<g id="Rectangle_Frame_1">
</g>
<g id="Square_Frame_1">
</g>
<g id="Rectangle_Frame_2">
</g>
<g id="Oval_Frame_1">
</g>
<g id="Round_Frame_2">
</g>
<g id="Rectangle_Frame_3">
</g>
<g id="Rectangle_Frame_4">
</g>
<g id="Rectangle_Frame_5">
</g>
<g id="Square_Frame_2">
</g>
<g id="Rectangle_Frame_6">
</g>
<g id="Rectangle_Frame_7">
</g>
<g id="Oval_Frame_2">
</g>
<g id="Round_Frame_3">
</g>
<g id="Rectangle_Frame_8">
</g>
<g id="Square_Frame_3">
</g>
<g id="Rectangle_Frame_9">
</g>
<g id="Rectangle_Frame_10">
</g>
<g id="Square_Frame_4">
</g>
<g id="Rectangle_Frame_11">
</g>
<g id="Rectangle_Frame_12">
</g>
<g id="Square_Frame_5">
</g>
<g id="Rectangle_Frame_13">
</g>
<g id="Round_Frame">
</g>
<g id="Frame_2">
</g>
<g id="Frame_1">
</g>
<g id="Frame_3">
</g>
<g id="Frame_4">
</g>
<g id="Frame_5">
</g>
<g id="Frame_6">
</g>
<g id="Frame_7">
</g>
<g id="Frame_8">
</g>
<g id="Frame_9">
</g>
<g id="Frame_10">
</g>
<g id="Frame_11">
</g>
<g id="Frame_12">
</g>
<g id="Frame_13">
</g>
<g id="Frame_14">
</g>
<g id="Frame_15">
</g>
<g id="Frame_16">
</g>
<g id="Frame_17">
</g>
<g id="Frame_18">
</g>
<g id="Frame_19">
</g>
<g id="Frame_20">
</g>
<g id="Frame_21">
</g>
<g id="Frame_22">
</g>
<g id="Frame_23">
</g>
<g id="Frame_24">
</g>
<g id="Frame_25">
</g>
<g id="Frame_26">
</g>
<g id="Frame_27">
</g>
<g id="Frame_28">
</g>
<g id="Frame_29">
</g>
<g id="Frame_30">
</g>
<g id="Frame_Hole_1">
</g>
<g id="Frame_Hole_2">
</g>
<g id="Frame_Hole_3">
</g>
<g id="Frame_Hole_4">
</g>
<g id="Frame_31">
</g>
<g id="Frame_32">
</g>
<g id="Frame_33">
</g>
<g id="Frame_34">
</g>
<g id="Frame_35">
</g>
<g id="Dashed_Frame_1">
</g>
<g id="Dashed_Frame_2">
</g>
<g id="Dashed_Frame_3">
</g>
<g id="Dashed_Frame_4">
</g>
<g id="Dashed_Frame_5">
</g>
<g id="Dashed_Frame_6">
</g>
<g id="Dashed_Frame_7">
</g>
<g id="Dashed_Frame_8">
</g>
<g id="Dashed_Frame_9">
</g>
<g id="Dashed_Frame_10">
</g>
<g id="Dashed_Frame_11">
	<path d="M22,8.567V7.5C22,7.224,21.776,7,21.5,7C19.019,7,17,4.981,17,2.5C17,2.224,16.776,2,16.5,2h-1.067
		C15.117,0.846,13.722,0,12,0S8.883,0.846,8.567,2H7.5C7.224,2,7,2.224,7,2.5C7,4.981,4.981,7,2.5,7C2.224,7,2,7.224,2,7.5v1.067
		C0.846,8.883,0,10.277,0,12s0.846,3.117,2,3.433V16.5C2,16.776,2.224,17,2.5,17C4.981,17,7,19.019,7,21.5C7,21.776,7.224,22,7.5,22
		h1.067c0.315,1.154,1.71,2,3.433,2s3.117-0.846,3.433-2H16.5c0.276,0,0.5-0.224,0.5-0.5c0-2.481,2.019-4.5,4.5-4.5
		c0.276,0,0.5-0.224,0.5-0.5v-1.067c1.154-0.315,2-1.71,2-3.433S23.154,8.883,22,8.567z M16.398,6.522
		c0.315,0.398,0.677,0.762,1.078,1.079c0.217,0.171,0.253,0.485,0.082,0.702c-0.099,0.124-0.245,0.189-0.393,0.189
		c-0.108,0-0.218-0.035-0.31-0.108c-0.462-0.364-0.88-0.783-1.243-1.243c-0.171-0.217-0.134-0.531,0.083-0.702
		C15.913,6.269,16.228,6.306,16.398,6.522z M8.401,5.225c0.13-0.279,0.24-0.571,0.329-0.867C8.793,4.146,8.988,4,9.209,4H10.5V2.74
		c0-0.171,0.087-0.33,0.231-0.422C10.876,2.227,11.286,2.01,11.955,2c0.015,0,0.028,0.007,0.043,0.008
		c0.016-0.001,0.03-0.009,0.047-0.008c0.669,0.01,1.079,0.227,1.224,0.318C13.413,2.41,13.5,2.569,13.5,2.74V4h1.291
		c0.221,0,0.416,0.146,0.479,0.357c0.089,0.296,0.199,0.588,0.329,0.867c0.116,0.251,0.007,0.548-0.243,0.664
		c-0.068,0.032-0.14,0.047-0.21,0.047c-0.189,0-0.369-0.107-0.454-0.289C14.594,5.436,14.506,5.22,14.428,5H13
		c-0.276,0-0.5-0.224-0.5-0.5V3.066C12.379,3.031,12.22,3.003,12.03,3C12.02,3,12.011,2.994,12,2.993C11.989,2.994,11.98,3,11.97,3
		c-0.19,0.003-0.349,0.031-0.47,0.066V4.5C11.5,4.776,11.276,5,11,5H9.572C9.494,5.22,9.406,5.436,9.308,5.646
		C9.223,5.828,9.043,5.936,8.854,5.936c-0.07,0-0.142-0.015-0.21-0.047C8.394,5.772,8.285,5.476,8.401,5.225z M3,12.03
		c0.002,0.189,0.031,0.349,0.066,0.47H4.5C4.776,12.5,5,12.724,5,13v1.429c0.218,0.077,0.435,0.165,0.646,0.264
		c0.25,0.116,0.359,0.413,0.243,0.664c-0.085,0.182-0.265,0.289-0.454,0.289c-0.07,0-0.142-0.015-0.21-0.047
		c-0.282-0.131-0.574-0.241-0.867-0.328C4.146,15.207,4,15.013,4,14.791V13.5H2.74c-0.171,0-0.33-0.087-0.421-0.231
		C2.226,13.124,2.01,12.714,2,12.044C2,12.028,2.008,12.015,2.009,12C2.008,11.985,2,11.972,2,11.956
		c0.009-0.67,0.226-1.08,0.318-1.225C2.411,10.587,2.569,10.5,2.74,10.5H4V9.209c0-0.222,0.146-0.416,0.357-0.479
		c0.293-0.087,0.585-0.197,0.867-0.328c0.252-0.118,0.548-0.007,0.664,0.242c0.116,0.251,0.007,0.548-0.243,0.664
		C5.435,9.406,5.218,9.494,5,9.571V11c0,0.276-0.224,0.5-0.5,0.5H3.066C3.031,11.621,3.003,11.78,3,11.97
		c0,0.011-0.006,0.02-0.007,0.03C2.995,12.011,3,12.02,3,12.03z M6.522,7.603c0.398-0.314,0.761-0.677,1.078-1.077
		c0.172-0.215,0.487-0.253,0.703-0.081C8.52,6.615,8.556,6.93,8.385,7.146C8.02,7.607,7.602,8.025,7.142,8.388
		C7.05,8.46,6.941,8.495,6.833,8.495c-0.148,0-0.294-0.065-0.393-0.19C6.269,8.088,6.306,7.773,6.522,7.603z M7.995,17.668
		c-0.148,0-0.294-0.065-0.393-0.19c-0.315-0.398-0.677-0.762-1.078-1.079c-0.217-0.171-0.253-0.485-0.082-0.702
		c0.171-0.214,0.486-0.253,0.702-0.081c0.462,0.364,0.88,0.783,1.243,1.243c0.171,0.217,0.134,0.531-0.083,0.702
		C8.212,17.633,8.104,17.668,7.995,17.668z M15.599,18.775c-0.13,0.279-0.24,0.571-0.329,0.867C15.207,19.854,15.012,20,14.791,20
		H13.5v1.26c0,0.171-0.087,0.33-0.231,0.422c-0.145,0.092-0.555,0.309-1.224,0.318c-0.002,0-0.005,0-0.007,0
		c-0.013,0-0.025-0.006-0.038-0.008C11.987,21.994,11.976,22,11.962,22c-0.002,0-0.005,0-0.007,0
		c-0.669-0.01-1.079-0.227-1.224-0.318C10.587,21.59,10.5,21.431,10.5,21.26V20H9.209c-0.221,0-0.416-0.146-0.479-0.357
		c-0.089-0.296-0.199-0.588-0.329-0.867c-0.116-0.251-0.007-0.548,0.243-0.664c0.251-0.117,0.548-0.006,0.664,0.242
		C9.406,18.564,9.494,18.78,9.572,19H11c0.276,0,0.5,0.224,0.5,0.5v1.434c0.121,0.035,0.28,0.063,0.47,0.066
		c0.011,0,0.02,0.006,0.03,0.007C12.011,21.006,12.02,21,12.03,21c0.19-0.003,0.349-0.031,0.47-0.066V19.5
		c0-0.276,0.224-0.5,0.5-0.5h1.428c0.078-0.22,0.166-0.436,0.264-0.646c0.116-0.249,0.413-0.36,0.664-0.242
		C15.606,18.228,15.715,18.524,15.599,18.775z M17.478,16.397c-0.398,0.314-0.761,0.677-1.078,1.077
		c-0.099,0.124-0.245,0.189-0.393,0.189c-0.108,0-0.218-0.035-0.31-0.108c-0.216-0.171-0.253-0.485-0.082-0.702
		c0.365-0.461,0.783-0.879,1.243-1.241c0.217-0.171,0.532-0.134,0.702,0.083C17.731,15.912,17.694,16.227,17.478,16.397z M22,12.044
		c-0.009,0.67-0.226,1.08-0.318,1.225c-0.092,0.145-0.25,0.231-0.421,0.231H20v1.291c0,0.222-0.146,0.416-0.357,0.479
		c-0.293,0.087-0.585,0.197-0.867,0.328c-0.068,0.032-0.14,0.047-0.21,0.047c-0.189,0-0.369-0.107-0.454-0.289
		c-0.116-0.251-0.007-0.548,0.243-0.664c0.211-0.099,0.427-0.187,0.646-0.264V13c0-0.276,0.224-0.5,0.5-0.5h1.434
		c0.035-0.121,0.063-0.28,0.066-0.47c0-0.011,0.006-0.02,0.007-0.03C21.005,11.989,21,11.98,21,11.97
		c-0.002-0.189-0.031-0.349-0.066-0.47H19.5c-0.276,0-0.5-0.224-0.5-0.5V9.571c-0.218-0.077-0.435-0.165-0.646-0.264
		c-0.25-0.116-0.359-0.413-0.243-0.664c0.116-0.249,0.415-0.361,0.664-0.242c0.282,0.131,0.574,0.241,0.867,0.328
		C19.854,8.793,20,8.987,20,9.209V10.5h1.26c0.171,0,0.33,0.087,0.421,0.231c0.093,0.145,0.309,0.555,0.318,1.225
		c0,0.016-0.007,0.029-0.008,0.044C21.992,12.015,22,12.028,22,12.044z"/>
</g>
<g id="Dashed_Frame_12">
</g>
<g id="Dashed_Frame_13">
</g>
<g id="Dashed_Frame_14">
</g>
<g id="Dashed_Frame_15">
</g>
<g id="Dashed_Frame_16">
</g>
<g id="Dashed_Frame_17">
</g>
<g id="Dashed_Frame_18">
</g>
<g id="Dashed_Frame_19">
</g>
<g id="Dashed_Frame_20">
</g>
<g id="Dashed_Frame_25">
</g>
<g id="Dashed_Frame_26">
</g>
<g id="Dashed_Frame_27">
</g>
<g id="Dashed_Frame_28">
</g>
<g id="Dashed_Frame_29">
</g>
<g id="Dashed_Frame_30">
</g>
<g id="Dashed_Frame_31">
</g>
<g id="Dashed_Frame_32">
</g>
<g id="Dashed_Frame_33">
</g>
<g id="Dashed_Frame_35">
</g>
</svg>
