<?xml version="1.0" encoding="iso-8859-1"?>
<!-- Generator: Adobe Illustrator 19.2.1, SVG Export Plug-In . SVG Version: 6.00 Build 0)  -->
<svg version="1.1" xmlns="http://www.w3.org/2000/svg" xmlns:xlink="http://www.w3.org/1999/xlink" x="0px" y="0px"
	 viewBox="0 0 30 30" style="enable-background:new 0 0 30 30;" xml:space="preserve">
<g id="Photo_frame">
</g>
<g id="Photo_frame_2">
</g>
<g id="Photo_frame_3">
</g>
<g id="Photo_frame__4">
</g>
<g id="Photo_frame_5">
</g>
<g id="Photo_frame_6">
</g>
<g id="Photo_frame_7">
</g>
<g id="Round_Frame_1">
</g>
<g id="Rectangle_Frame_1">
</g>
<g id="Square_Frame_1">
</g>
<g id="Rectangle_Frame_2">
</g>
<g id="Oval_Frame_1">
</g>
<g id="Round_Frame_2">
</g>
<g id="Rectangle_Frame_3">
</g>
<g id="Rectangle_Frame_4">
</g>
<g id="Rectangle_Frame_5">
</g>
<g id="Square_Frame_2">
</g>
<g id="Rectangle_Frame_6">
</g>
<g id="Rectangle_Frame_7">
</g>
<g id="Oval_Frame_2">
</g>
<g id="Round_Frame_3">
</g>
<g id="Rectangle_Frame_8">
</g>
<g id="Square_Frame_3">
</g>
<g id="Rectangle_Frame_9">
</g>
<g id="Rectangle_Frame_10">
</g>
<g id="Square_Frame_4">
</g>
<g id="Rectangle_Frame_11">
</g>
<g id="Rectangle_Frame_12">
</g>
<g id="Square_Frame_5">
</g>
<g id="Rectangle_Frame_13">
</g>
<g id="Round_Frame">
</g>
<g id="Frame_2">
</g>
<g id="Frame_1">
</g>
<g id="Frame_3">
</g>
<g id="Frame_4">
</g>
<g id="Frame_5">
</g>
<g id="Frame_6">
</g>
<g id="Frame_7">
</g>
<g id="Frame_8">
</g>
<g id="Frame_9">
</g>
<g id="Frame_10">
</g>
<g id="Frame_11">
</g>
<g id="Frame_12">
</g>
<g id="Frame_13">
</g>
<g id="Frame_14">
</g>
<g id="Frame_15">
</g>
<g id="Frame_16">
</g>
<g id="Frame_17">
</g>
<g id="Frame_18">
</g>
<g id="Frame_19">
</g>
<g id="Frame_20">
</g>
<g id="Frame_21">
</g>
<g id="Frame_22">
</g>
<g id="Frame_23">
</g>
<g id="Frame_24">
</g>
<g id="Frame_25">
</g>
<g id="Frame_26">
</g>
<g id="Frame_27">
</g>
<g id="Frame_28">
</g>
<g id="Frame_29">
</g>
<g id="Frame_30">
</g>
<g id="Frame_Hole_1">
</g>
<g id="Frame_Hole_2">
</g>
<g id="Frame_Hole_3">
</g>
<g id="Frame_Hole_4">
</g>
<g id="Frame_31">
</g>
<g id="Frame_32">
</g>
<g id="Frame_33">
</g>
<g id="Frame_34">
</g>
<g id="Frame_35">
</g>
<g id="Dashed_Frame_1">
	<path d="M15,0C8.383,0,3,6.729,3,15c0,8.271,5.383,15,12,15c6.617,0,12-6.729,12-15C27,6.729,21.617,0,15,0z M23.824,12.63
		c0.051,0.337,0.091,0.68,0.12,1.027c0.023,0.275-0.181,0.517-0.456,0.54c-0.015,0.001-0.028,0.002-0.043,0.002
		c-0.257,0-0.476-0.197-0.497-0.458c-0.027-0.326-0.065-0.647-0.112-0.964c-0.041-0.273,0.147-0.527,0.42-0.568
		C23.536,12.174,23.783,12.357,23.824,12.63z M22.404,9.331c0.256-0.097,0.547,0.033,0.644,0.292
		c0.121,0.32,0.231,0.649,0.329,0.985c0.078,0.265-0.074,0.543-0.339,0.621c-0.047,0.014-0.095,0.02-0.141,0.02
		c-0.217,0-0.416-0.142-0.479-0.359c-0.092-0.312-0.194-0.617-0.306-0.915C22.015,9.716,22.146,9.428,22.404,9.331z M20.912,6.727
		c0.226-0.157,0.538-0.101,0.696,0.126c0.195,0.282,0.381,0.577,0.557,0.883c0.138,0.24,0.055,0.545-0.185,0.683
		c-0.079,0.045-0.164,0.066-0.249,0.066c-0.173,0-0.341-0.09-0.434-0.251c-0.162-0.282-0.332-0.553-0.512-0.812
		C20.629,7.196,20.686,6.884,20.912,6.727z M8.352,6.91c0.2-0.293,0.412-0.572,0.632-0.837C9.16,5.862,9.476,5.833,9.688,6.009
		C9.9,6.186,9.929,6.5,9.752,6.713C9.552,6.954,9.36,7.208,9.177,7.475C9.081,7.616,8.924,7.692,8.764,7.692
		c-0.097,0-0.195-0.028-0.282-0.087C8.254,7.449,8.196,7.138,8.352,6.91z M6.928,9.688C7.05,9.358,7.183,9.038,7.327,8.727
		c0.115-0.25,0.41-0.361,0.664-0.245c0.25,0.116,0.36,0.413,0.245,0.664c-0.133,0.288-0.256,0.585-0.369,0.89
		c-0.075,0.202-0.266,0.326-0.469,0.326c-0.058,0-0.117-0.01-0.174-0.031C6.964,10.234,6.832,9.946,6.928,9.688z M6.35,11.679
		c0.058-0.271,0.326-0.444,0.594-0.384c0.27,0.058,0.442,0.324,0.384,0.594c-0.067,0.312-0.125,0.63-0.172,0.953
		c-0.036,0.249-0.25,0.428-0.494,0.428c-0.024,0-0.048-0.001-0.073-0.005c-0.273-0.04-0.462-0.294-0.422-0.567
		C6.216,12.352,6.278,12.012,6.35,11.679z M6.02,15.792c-0.013-0.261-0.019-0.524-0.02-0.79l0.002-0.245
		c0.005-0.276,0.228-0.509,0.509-0.491c0.276,0.005,0.496,0.233,0.491,0.509L7,15c0.001,0.249,0.007,0.498,0.019,0.744
		c0.013,0.275-0.2,0.51-0.476,0.523c-0.008,0-0.016,0.001-0.024,0.001C6.254,16.269,6.033,16.06,6.02,15.792z M6.96,19.236
		c-0.223,0-0.426-0.15-0.484-0.377c-0.084-0.331-0.158-0.669-0.221-1.013c-0.05-0.272,0.13-0.532,0.402-0.582
		c0.27-0.043,0.532,0.131,0.581,0.402c0.059,0.322,0.127,0.637,0.206,0.946c0.068,0.268-0.093,0.539-0.361,0.607
		C7.043,19.231,7.001,19.236,6.96,19.236z M8.243,21.989c-0.073,0.038-0.151,0.056-0.228,0.056c-0.182,0-0.357-0.099-0.445-0.271
		c-0.156-0.305-0.302-0.619-0.438-0.943c-0.106-0.255,0.014-0.548,0.268-0.654c0.255-0.105,0.548,0.013,0.655,0.268
		c0.125,0.301,0.261,0.592,0.405,0.873C8.585,21.563,8.488,21.863,8.243,21.989z M10.062,24.374c-0.096,0.09-0.218,0.134-0.34,0.134
		c-0.134,0-0.268-0.054-0.366-0.159c-0.235-0.254-0.46-0.521-0.676-0.805c-0.167-0.22-0.125-0.533,0.095-0.7
		c0.219-0.168,0.534-0.124,0.701,0.095c0.195,0.256,0.399,0.5,0.612,0.729C10.276,23.87,10.264,24.187,10.062,24.374z M10.499,4.605
		c0.286-0.22,0.583-0.421,0.883-0.596c0.238-0.14,0.545-0.058,0.684,0.18c0.139,0.238,0.059,0.544-0.18,0.684
		c-0.267,0.156-0.526,0.332-0.776,0.525c-0.091,0.07-0.199,0.104-0.305,0.104c-0.15,0-0.298-0.067-0.396-0.194
		C10.24,5.088,10.28,4.774,10.499,4.605z M12.552,26.032c-0.086,0.178-0.264,0.28-0.449,0.28c-0.074,0-0.149-0.017-0.22-0.051
		c-0.313-0.154-0.625-0.334-0.925-0.536c-0.229-0.154-0.29-0.465-0.136-0.694c0.154-0.229,0.465-0.291,0.694-0.136
		c0.263,0.177,0.535,0.334,0.808,0.468C12.571,25.485,12.673,25.784,12.552,26.032z M12.994,3.803
		c-0.065-0.268,0.099-0.539,0.367-0.604c0.348-0.085,0.705-0.144,1.063-0.174c0.274-0.035,0.517,0.181,0.541,0.455
		c0.024,0.275-0.18,0.518-0.455,0.541c-0.307,0.026-0.614,0.077-0.912,0.15c-0.04,0.01-0.08,0.014-0.119,0.014
		C13.254,4.185,13.05,4.032,12.994,3.803z M15.067,27H15c-0.36,0-0.722-0.028-1.075-0.084c-0.273-0.043-0.459-0.3-0.416-0.572
		c0.043-0.272,0.301-0.457,0.572-0.416C14.383,25.976,14.692,26,15,26c0.276,0,0.534,0.224,0.534,0.5S15.343,27,15.067,27z
		 M15.968,3.554c0.063-0.268,0.329-0.434,0.601-0.373c0.345,0.081,0.689,0.19,1.025,0.324c0.257,0.103,0.381,0.394,0.278,0.65
		c-0.078,0.196-0.266,0.314-0.464,0.314c-0.062,0-0.125-0.011-0.186-0.036c-0.289-0.116-0.587-0.21-0.883-0.279
		C16.072,4.092,15.905,3.823,15.968,3.554z M18.183,26.229c-0.324,0.164-0.658,0.303-0.992,0.412
		c-0.052,0.018-0.104,0.025-0.156,0.025c-0.21,0-0.405-0.133-0.475-0.344c-0.087-0.262,0.056-0.545,0.318-0.631
		c0.286-0.095,0.574-0.214,0.854-0.355c0.245-0.123,0.547-0.025,0.672,0.221C18.527,25.804,18.429,26.104,18.183,26.229z
		 M18.745,4.659c0.168-0.22,0.482-0.262,0.7-0.096c0.278,0.211,0.547,0.44,0.805,0.688c0.199,0.191,0.206,0.507,0.016,0.707
		c-0.099,0.103-0.229,0.154-0.361,0.154c-0.124,0-0.249-0.046-0.346-0.139c-0.23-0.22-0.47-0.425-0.717-0.613
		C18.621,5.192,18.578,4.879,18.745,4.659z M20.692,24.296c-0.241,0.264-0.494,0.511-0.754,0.739
		c-0.096,0.083-0.213,0.124-0.33,0.124c-0.139,0-0.277-0.058-0.376-0.17c-0.182-0.208-0.161-0.523,0.046-0.706
		c0.234-0.205,0.46-0.427,0.678-0.663c0.188-0.204,0.505-0.215,0.706-0.03C20.866,23.776,20.879,24.093,20.692,24.296z
		 M22.461,21.712c-0.159,0.314-0.329,0.618-0.509,0.91c-0.095,0.153-0.259,0.237-0.426,0.237c-0.09,0-0.181-0.024-0.263-0.074
		c-0.234-0.146-0.308-0.453-0.163-0.688c0.166-0.269,0.322-0.549,0.47-0.838c0.124-0.247,0.427-0.344,0.672-0.219
		C22.488,21.165,22.587,21.466,22.461,21.712z M23.541,18.792c-0.085,0.34-0.181,0.672-0.286,0.996
		c-0.068,0.211-0.265,0.346-0.476,0.346c-0.051,0-0.103-0.008-0.154-0.024c-0.263-0.085-0.406-0.367-0.321-0.63
		c0.098-0.303,0.188-0.613,0.267-0.93c0.066-0.269,0.336-0.431,0.606-0.364C23.445,18.253,23.607,18.524,23.541,18.792z
		 M23.408,17.2c-0.02,0-0.038-0.001-0.058-0.003c-0.274-0.031-0.472-0.279-0.44-0.554c0.036-0.316,0.061-0.638,0.074-0.963
		c0.012-0.275,0.235-0.508,0.521-0.478c0.276,0.012,0.49,0.245,0.479,0.521c-0.016,0.349-0.042,0.694-0.08,1.034
		C23.875,17.012,23.659,17.2,23.408,17.2z"/>
</g>
<g id="Dashed_Frame_2">
</g>
<g id="Dashed_Frame_3">
</g>
<g id="Dashed_Frame_4">
</g>
<g id="Dashed_Frame_5">
</g>
<g id="Dashed_Frame_6">
</g>
<g id="Dashed_Frame_7">
</g>
<g id="Dashed_Frame_8">
</g>
<g id="Dashed_Frame_9">
</g>
<g id="Dashed_Frame_10">
</g>
<g id="Dashed_Frame_11">
</g>
<g id="Dashed_Frame_12">
</g>
<g id="Dashed_Frame_13">
</g>
<g id="Dashed_Frame_14">
</g>
<g id="Dashed_Frame_15">
</g>
<g id="Dashed_Frame_16">
</g>
<g id="Dashed_Frame_17">
</g>
<g id="Dashed_Frame_18">
</g>
<g id="Dashed_Frame_19">
</g>
<g id="Dashed_Frame_20">
</g>
<g id="Dashed_Frame_25">
</g>
<g id="Dashed_Frame_26">
</g>
<g id="Dashed_Frame_27">
</g>
<g id="Dashed_Frame_28">
</g>
<g id="Dashed_Frame_29">
</g>
<g id="Dashed_Frame_30">
</g>
<g id="Dashed_Frame_31">
</g>
<g id="Dashed_Frame_32">
</g>
<g id="Dashed_Frame_33">
</g>
<g id="Dashed_Frame_35">
</g>
</svg>
