<?xml version="1.0" encoding="iso-8859-1"?>
<!-- Generator: Adobe Illustrator 19.2.1, SVG Export Plug-In . SVG Version: 6.00 Build 0)  -->
<svg version="1.1" xmlns="http://www.w3.org/2000/svg" xmlns:xlink="http://www.w3.org/1999/xlink" x="0px" y="0px"
	 viewBox="0 0 30 30" style="enable-background:new 0 0 30 30;" xml:space="preserve">
<g id="Photo_frame">
</g>
<g id="Photo_frame_2">
</g>
<g id="Photo_frame_3">
</g>
<g id="Photo_frame__4">
</g>
<g id="Photo_frame_5">
</g>
<g id="Photo_frame_6">
</g>
<g id="Photo_frame_7">
</g>
<g id="Round_Frame_1">
</g>
<g id="Rectangle_Frame_1">
</g>
<g id="Square_Frame_1">
</g>
<g id="Rectangle_Frame_2">
</g>
<g id="Oval_Frame_1">
</g>
<g id="Round_Frame_2">
</g>
<g id="Rectangle_Frame_3">
</g>
<g id="Rectangle_Frame_4">
</g>
<g id="Rectangle_Frame_5">
</g>
<g id="Square_Frame_2">
</g>
<g id="Rectangle_Frame_6">
</g>
<g id="Rectangle_Frame_7">
</g>
<g id="Oval_Frame_2">
</g>
<g id="Round_Frame_3">
</g>
<g id="Rectangle_Frame_8">
</g>
<g id="Square_Frame_3">
</g>
<g id="Rectangle_Frame_9">
</g>
<g id="Rectangle_Frame_10">
</g>
<g id="Square_Frame_4">
</g>
<g id="Rectangle_Frame_11">
</g>
<g id="Rectangle_Frame_12">
</g>
<g id="Square_Frame_5">
</g>
<g id="Rectangle_Frame_13">
</g>
<g id="Round_Frame">
</g>
<g id="Frame_2">
</g>
<g id="Frame_1">
</g>
<g id="Frame_3">
</g>
<g id="Frame_4">
</g>
<g id="Frame_5">
</g>
<g id="Frame_6">
</g>
<g id="Frame_7">
</g>
<g id="Frame_8">
</g>
<g id="Frame_9">
</g>
<g id="Frame_10">
</g>
<g id="Frame_11">
</g>
<g id="Frame_12">
</g>
<g id="Frame_13">
</g>
<g id="Frame_14">
</g>
<g id="Frame_15">
</g>
<g id="Frame_16">
</g>
<g id="Frame_17">
</g>
<g id="Frame_18">
</g>
<g id="Frame_19">
</g>
<g id="Frame_20">
</g>
<g id="Frame_21">
</g>
<g id="Frame_22">
</g>
<g id="Frame_23">
</g>
<g id="Frame_24">
</g>
<g id="Frame_25">
</g>
<g id="Frame_26">
</g>
<g id="Frame_27">
</g>
<g id="Frame_28">
</g>
<g id="Frame_29">
</g>
<g id="Frame_30">
</g>
<g id="Frame_Hole_1">
</g>
<g id="Frame_Hole_2">
</g>
<g id="Frame_Hole_3">
</g>
<g id="Frame_Hole_4">
</g>
<g id="Frame_31">
</g>
<g id="Frame_32">
</g>
<g id="Frame_33">
</g>
<g id="Frame_34">
</g>
<g id="Frame_35">
</g>
<g id="Dashed_Frame_1">
</g>
<g id="Dashed_Frame_2">
</g>
<g id="Dashed_Frame_3">
</g>
<g id="Dashed_Frame_4">
	<g>
		<g>
			<g>
				<path d="M6.235,23h-0.5c-0.276,0-0.5-0.224-0.5-0.5V22c0-0.276,0.224-0.5,0.5-0.5s0.5,0.224,0.5,0.5c0.276,0,0.5,0.224,0.5,0.5
					S6.512,23,6.235,23z"/>
			</g>
			<g>
				<path d="M5.735,20.038c-0.276,0-0.5-0.224-0.5-0.5c-0.276,0-0.5-0.224-0.5-0.5s0.224-0.5,0.5-0.5h0.5c0.276,0,0.5,0.224,0.5,0.5
					v0.5C6.235,19.814,6.012,20.038,5.735,20.038z"/>
			</g>
			<g>
				<path d="M5,19.538H4.5c-0.276,0-0.5-0.224-0.5-0.5v-0.5c0-0.276,0.224-0.5,0.5-0.5s0.5,0.224,0.5,0.5c0.276,0,0.5,0.224,0.5,0.5
					S5.276,19.538,5,19.538z"/>
			</g>
			<g>
				<path d="M4.5,17.27c-0.276,0-0.5-0.224-0.5-0.5v-0.885c0-0.276,0.224-0.5,0.5-0.5s0.5,0.224,0.5,0.5v0.885
					C5,17.046,4.776,17.27,4.5,17.27z M4.5,14.615c-0.276,0-0.5-0.224-0.5-0.5v-0.884c0-0.276,0.224-0.5,0.5-0.5s0.5,0.224,0.5,0.5
					v0.884C5,14.392,4.776,14.615,4.5,14.615z"/>
			</g>
			<g>
				<path d="M4.5,11.962c-0.276,0-0.5-0.224-0.5-0.5v-0.5c0-0.276,0.224-0.5,0.5-0.5H5c0.276,0,0.5,0.224,0.5,0.5
					s-0.224,0.5-0.5,0.5C5,11.738,4.776,11.962,4.5,11.962z"/>
			</g>
			<g>
				<path d="M5.735,11.462h-0.5c-0.276,0-0.5-0.224-0.5-0.5s0.224-0.5,0.5-0.5c0-0.276,0.224-0.5,0.5-0.5s0.5,0.224,0.5,0.5v0.5
					C6.235,11.238,6.012,11.462,5.735,11.462z"/>
			</g>
			<g>
				<path d="M5.735,8.5c-0.276,0-0.5-0.224-0.5-0.5V7.5c0-0.276,0.224-0.5,0.5-0.5h0.5c0.276,0,0.5,0.224,0.5,0.5S6.512,8,6.235,8
					C6.235,8.276,6.012,8.5,5.735,8.5z"/>
			</g>
			<g>
				<path d="M21.702,8h-1.031c-0.276,0-0.5-0.224-0.5-0.5s0.224-0.5,0.5-0.5h1.031c0.276,0,0.5,0.224,0.5,0.5S21.979,8,21.702,8z
					 M18.609,8h-1.031c-0.276,0-0.5-0.224-0.5-0.5s0.224-0.5,0.5-0.5h1.031c0.276,0,0.5,0.224,0.5,0.5S18.885,8,18.609,8z M15.515,8
					h-1.031c-0.276,0-0.5-0.224-0.5-0.5s0.224-0.5,0.5-0.5h1.031c0.276,0,0.5,0.224,0.5,0.5S15.792,8,15.515,8z M12.422,8h-1.031
					c-0.276,0-0.5-0.224-0.5-0.5s0.224-0.5,0.5-0.5h1.031c0.276,0,0.5,0.224,0.5,0.5S12.698,8,12.422,8z M9.329,8H8.297
					c-0.276,0-0.5-0.224-0.5-0.5S8.021,7,8.297,7h1.031c0.276,0,0.5,0.224,0.5,0.5S9.605,8,9.329,8z"/>
			</g>
			<g>
				<path d="M24.265,8.5c-0.276,0-0.5-0.224-0.5-0.5c-0.276,0-0.5-0.224-0.5-0.5s0.224-0.5,0.5-0.5h0.5c0.276,0,0.5,0.224,0.5,0.5V8
					C24.765,8.276,24.541,8.5,24.265,8.5z"/>
			</g>
			<g>
				<path d="M24.765,11.462h-0.5c-0.276,0-0.5-0.224-0.5-0.5v-0.5c0-0.276,0.224-0.5,0.5-0.5s0.5,0.224,0.5,0.5
					c0.276,0,0.5,0.224,0.5,0.5S25.041,11.462,24.765,11.462z"/>
			</g>
			<g>
				<path d="M25.5,11.962c-0.276,0-0.5-0.224-0.5-0.5c-0.276,0-0.5-0.224-0.5-0.5s0.224-0.5,0.5-0.5h0.5c0.276,0,0.5,0.224,0.5,0.5
					v0.5C26,11.738,25.776,11.962,25.5,11.962z"/>
			</g>
			<g>
				<path d="M25.5,17.269c-0.276,0-0.5-0.224-0.5-0.5v-0.884c0-0.276,0.224-0.5,0.5-0.5s0.5,0.224,0.5,0.5v0.884
					C26,17.045,25.776,17.269,25.5,17.269z M25.5,14.615c-0.276,0-0.5-0.224-0.5-0.5V13.23c0-0.276,0.224-0.5,0.5-0.5
					s0.5,0.224,0.5,0.5v0.885C26,14.392,25.776,14.615,25.5,14.615z"/>
			</g>
			<g>
				<path d="M25.5,19.538H25c-0.276,0-0.5-0.224-0.5-0.5s0.224-0.5,0.5-0.5c0-0.276,0.224-0.5,0.5-0.5s0.5,0.224,0.5,0.5v0.5
					C26,19.314,25.776,19.538,25.5,19.538z"/>
			</g>
			<g>
				<path d="M24.265,20.038c-0.276,0-0.5-0.224-0.5-0.5v-0.5c0-0.276,0.224-0.5,0.5-0.5h0.5c0.276,0,0.5,0.224,0.5,0.5
					s-0.224,0.5-0.5,0.5C24.765,19.814,24.541,20.038,24.265,20.038z"/>
			</g>
			<g>
				<path d="M24.265,23h-0.5c-0.276,0-0.5-0.224-0.5-0.5s0.224-0.5,0.5-0.5c0-0.276,0.224-0.5,0.5-0.5s0.5,0.224,0.5,0.5v0.5
					C24.765,22.776,24.541,23,24.265,23z"/>
			</g>
			<g>
				<path d="M21.703,23h-1.031c-0.276,0-0.5-0.224-0.5-0.5s0.224-0.5,0.5-0.5h1.031c0.276,0,0.5,0.224,0.5,0.5S21.979,23,21.703,23z
					 M18.609,23h-1.031c-0.276,0-0.5-0.224-0.5-0.5s0.224-0.5,0.5-0.5h1.031c0.276,0,0.5,0.224,0.5,0.5S18.886,23,18.609,23z
					 M15.516,23h-1.031c-0.276,0-0.5-0.224-0.5-0.5s0.224-0.5,0.5-0.5h1.031c0.276,0,0.5,0.224,0.5,0.5S15.792,23,15.516,23z
					 M12.422,23h-1.031c-0.276,0-0.5-0.224-0.5-0.5s0.224-0.5,0.5-0.5h1.031c0.276,0,0.5,0.224,0.5,0.5S12.699,23,12.422,23z
					 M9.329,23H8.298c-0.276,0-0.5-0.224-0.5-0.5s0.224-0.5,0.5-0.5h1.031c0.276,0,0.5,0.224,0.5,0.5S9.605,23,9.329,23z"/>
			</g>
		</g>
		<g>
			<path d="M24.46,26H5.54C3.95,26,3,24.953,3,23.2V22H1.5C1.224,22,1,21.776,1,21.5v-3.275C0.371,17.487,0,16.303,0,15
				s0.371-2.487,1-3.225V8.5C1,8.224,1.224,8,1.5,8H3V6.8C3,5.047,3.95,4,5.54,4h18.92C26.05,4,27,5.047,27,6.8V8h1.5
				C28.776,8,29,8.224,29,8.5v3.275c0.629,0.737,1,1.922,1,3.225s-0.371,2.487-1,3.225V21.5c0,0.276-0.224,0.5-0.5,0.5H27v1.2
				C27,24.953,26.05,26,24.46,26z M2,21h1.5C3.776,21,4,21.224,4,21.5v1.7C4,25,5.159,25,5.54,25h18.92c0.381,0,1.54,0,1.54-1.8
				v-1.7c0-0.276,0.224-0.5,0.5-0.5H28v-2.97c0-0.133,0.053-0.26,0.146-0.354C28.665,17.158,29,16.107,29,15
				s-0.335-2.158-0.854-2.677C28.053,12.229,28,12.103,28,11.97V9h-1.5C26.224,9,26,8.776,26,8.5V6.8C26,5,24.841,5,24.46,5H5.54
				C5.159,5,4,5,4,6.8v1.7C4,8.776,3.776,9,3.5,9H2v2.97c0,0.133-0.053,0.26-0.146,0.354C1.335,12.842,1,13.893,1,15
				s0.335,2.158,0.854,2.677C1.947,17.771,2,17.897,2,18.03V21z"/>
		</g>
	</g>
</g>
<g id="Dashed_Frame_5">
</g>
<g id="Dashed_Frame_6">
</g>
<g id="Dashed_Frame_7">
</g>
<g id="Dashed_Frame_8">
</g>
<g id="Dashed_Frame_9">
</g>
<g id="Dashed_Frame_10">
</g>
<g id="Dashed_Frame_11">
</g>
<g id="Dashed_Frame_12">
</g>
<g id="Dashed_Frame_13">
</g>
<g id="Dashed_Frame_14">
</g>
<g id="Dashed_Frame_15">
</g>
<g id="Dashed_Frame_16">
</g>
<g id="Dashed_Frame_17">
</g>
<g id="Dashed_Frame_18">
</g>
<g id="Dashed_Frame_19">
</g>
<g id="Dashed_Frame_20">
</g>
<g id="Dashed_Frame_25">
</g>
<g id="Dashed_Frame_26">
</g>
<g id="Dashed_Frame_27">
</g>
<g id="Dashed_Frame_28">
</g>
<g id="Dashed_Frame_29">
</g>
<g id="Dashed_Frame_30">
</g>
<g id="Dashed_Frame_31">
</g>
<g id="Dashed_Frame_32">
</g>
<g id="Dashed_Frame_33">
</g>
<g id="Dashed_Frame_35">
</g>
</svg>
