<?xml version="1.0" encoding="iso-8859-1"?>
<!-- Generator: Adobe Illustrator 19.2.1, SVG Export Plug-In . SVG Version: 6.00 Build 0)  -->
<svg version="1.1" xmlns="http://www.w3.org/2000/svg" xmlns:xlink="http://www.w3.org/1999/xlink" x="0px" y="0px"
	 viewBox="0 0 30 30" style="enable-background:new 0 0 30 30;" xml:space="preserve">
<g id="Add_User">
</g>
<g id="Remove_User">
</g>
<g id="Delete_User">
</g>
<g id="Done">
</g>
<g id="At_Symbol">
</g>
<g id="Question">
</g>
<g id="Answer">
</g>
<g id="Bring_Up">
</g>
<g id="Bring_Down">
</g>
<g id="Dismiss_User">
</g>
<g id="User_Speed">
</g>
<g id="User_Settings">
</g>
<g id="User_Refresh">
</g>
<g id="User_Time">
</g>
<g id="Dollar">
</g>
<g id="Euro">
</g>
<g id="Pound">
</g>
<g id="Bitcoin">
</g>
<g id="Global_User">
</g>
<g id="Waiting_User">
</g>
<g id="Writing_User_2">
</g>
<g id="Search_User">
</g>
<g id="Lock_User">
</g>
<g id="Mark_User">
</g>
<g id="Share_User">
</g>
<g id="Shopping">
</g>
<g id="User_Download">
</g>
<g id="User_Upload">
</g>
<g id="User_Statistics">
</g>
<g id="User_Defense">
</g>
<g id="User_Car">
</g>
<g id="User_Home">
</g>
<g id="Park">
</g>
<g id="Recicle_User">
</g>
<g id="Wifi">
</g>
<g id="Attach_User">
</g>
<g id="Disabled_User">
</g>
<g id="User_Card">
</g>
<g id="Gaming">
</g>
<g id="User_Cloud">
</g>
<g id="User_Database">
</g>
<g id="Copyright">
</g>
<g id="No_Copyright">
</g>
<g id="Creative_Commun">
</g>
<g id="Eco-Friendly">
</g>
<g id="Percentage">
</g>
<g id="User_Love">
</g>
<g id="User_Place">
</g>
<g id="User_Key">
</g>
<g id="Sleeping">
</g>
<g id="Add_User_2">
</g>
<g id="Remove_User_2">
</g>
<g id="Delete_User_2">
</g>
<g id="Done_2">
</g>
<g id="At_Symbol_2">
</g>
<g id="Question_2">
</g>
<g id="Answer_2">
</g>
<g id="Bring_Up_2">
</g>
<g id="Bring_Down_2">
</g>
<g id="Dismiss_User_2">
</g>
<g id="User_Speed_2">
</g>
<g id="User_Settings_2">
</g>
<g id="Refresh_2">
</g>
<g id="Time_2">
</g>
<g id="Dollar_2">
</g>
<g id="Euro_2">
</g>
<g id="Pound_2">
</g>
<g id="Bitcoin_2">
</g>
<g id="Global_User_2">
</g>
<g id="Waiting_User_2">
</g>
<g id="Writing_User">
</g>
<g id="Search_User_2">
</g>
<g id="Lock_User_2">
</g>
<g id="Mark_User_2">
</g>
<g id="Share_User_2">
</g>
<g id="Shopping_2">
</g>
<g id="Download_2">
</g>
<g id="Upload_2">
</g>
<g id="User_Statistics_2">
</g>
<g id="User_Defense_2">
</g>
<g id="Car_2">
</g>
<g id="Home_2">
</g>
<g id="Park_2">
</g>
<g id="Recicle_User_2">
</g>
<g id="User_Wifi">
</g>
<g id="Attach_2">
</g>
<g id="Disabled_User_2">
</g>
<g id="User_Card_2">
</g>
<g id="Gaming_2">
</g>
<g id="Cloud_2">
</g>
<g id="Database_2">
	<g>
		<g>
			<g>
				<path d="M23.5,27c-1.93,0-3.5-1.57-3.5-3.5s1.57-3.5,3.5-3.5s3.5,1.57,3.5,3.5S25.43,27,23.5,27z M23.5,21
					c-1.378,0-2.5,1.121-2.5,2.5s1.122,2.5,2.5,2.5s2.5-1.121,2.5-2.5S24.878,21,23.5,21z"/>
			</g>
			<g>
				<path d="M28,26c-1.103,0-2-0.897-2-2v-0.5c0-0.276,0.224-0.5,0.5-0.5s0.5,0.224,0.5,0.5V24c0,0.552,0.449,1,1,1s1-0.448,1-1
					v-0.257c0-0.276,0.224-0.5,0.5-0.5s0.5,0.224,0.5,0.5V24C30,25.103,29.103,26,28,26z"/>
			</g>
			<g>
				<path d="M23.5,30c-3.584,0-6.5-2.916-6.5-6.5s2.916-6.5,6.5-6.5s6.5,2.916,6.5,6.5c0,0.06-0.003,0.119-0.008,0.179
					c-0.019,0.272-0.248,0.571-0.527,0.515c-0.273-0.014-0.486-0.194-0.477-0.467c0-0.006,0.006-0.11,0.006-0.116L29,23.5
					c0-3.032-2.467-5.5-5.5-5.5S18,20.468,18,23.5s2.467,5.5,5.5,5.5c1.557,0,3.049-0.67,4.094-1.837
					c0.104-0.116,0.257-0.175,0.414-0.165c0.267,0.022,0.486,0.253,0.475,0.521c-0.008,0.178-0.1,0.332-0.239,0.415
					C27.015,29.249,25.294,30,23.5,30z M27.979,27.507l0.002,0.002l0-0.011L27.979,27.507z"/>
			</g>
		</g>
		<g>
			<path d="M17.5,30h-17C0.224,30,0,29.776,0,29.5c0-2.96,1.884-6.646,4.927-7.438l4.548-1.185l0.441-1.836
				c-1.161-1.228-1.955-2.907-2.185-4.613c-0.726-0.117-1.308-0.719-1.4-1.49l-0.293-2.445c-0.06-0.5,0.095-1,0.425-1.372
				C6.68,8.875,6.96,8.702,7.266,8.617C7.184,7.89,7.043,6.57,7.043,6.002c0-2.309,0.672-4.676,5.617-4.776
				C14.398,0,16.275,0,17.088,0c2.043,0,3.516,0.695,4.379,2.068c0.885,1.407,0.868,2.638-0.052,3.657l-0.467,0.487l-0.114,2.438
				c0.271,0.094,0.518,0.258,0.712,0.479c0.324,0.37,0.476,0.866,0.417,1.361l-0.293,2.445c-0.086,0.722-0.602,1.296-1.263,1.462
				c-0.116,0.883-0.388,1.776-0.797,2.609c-0.12,0.249-0.419,0.351-0.669,0.229c-0.248-0.122-0.35-0.421-0.229-0.669
				c0.417-0.851,0.672-1.77,0.74-2.658c0.02-0.261,0.237-0.462,0.499-0.462c0.396,0,0.683-0.271,0.726-0.631l0.293-2.445
				c0.026-0.214-0.039-0.426-0.176-0.583c-0.127-0.146-0.299-0.227-0.485-0.229c-0.135-0.002-0.265-0.059-0.357-0.157
				c-0.093-0.099-0.142-0.23-0.136-0.366l0.143-3.06c0.006-0.121,0.055-0.235,0.139-0.323l0.587-0.611
				c0.399-0.442,0.763-1.131-0.063-2.443C19.953,1.538,18.764,1,17.088,1c-1.214,0-2.634,0.134-3.963,1.124
				c-0.085,0.063-0.188,0.098-0.293,0.099C8.41,2.269,8.043,4.036,8.043,6.002c0,0.729,0.271,2.974,0.274,2.996
				C8.334,9.141,8.29,9.283,8.195,9.391C8.1,9.497,7.964,9.559,7.821,9.559H7.699c-0.187,0-0.36,0.08-0.488,0.225
				c-0.14,0.158-0.206,0.373-0.18,0.59l0.293,2.445c0.043,0.359,0.33,0.631,0.668,0.631h0.191c0.261,0,0.479,0.201,0.499,0.462
				c0.131,1.715,0.929,3.442,2.134,4.619c0.126,0.123,0.178,0.303,0.137,0.475l-0.576,2.397c-0.043,0.179-0.182,0.32-0.36,0.366
				l-4.838,1.26C2.837,23.639,1.216,26.504,1.02,29H17.5c0.276,0,0.5,0.224,0.5,0.5S17.776,30,17.5,30z"/>
		</g>
	</g>
</g>
<g id="Copyright_2">
</g>
<g id="No_Copyright_2">
</g>
<g id="Creative_Commun_2">
</g>
<g id="Eco-Friendly_2">
</g>
<g id="Percentage_2">
</g>
<g id="User_Love_2">
</g>
<g id="User_Rate_2">
</g>
<g id="User_Key_2">
</g>
<g id="Sleeping_2">
</g>
</svg>
