<?xml version="1.0" encoding="iso-8859-1"?>
<!-- Generator: Adobe Illustrator 19.2.1, SVG Export Plug-In . SVG Version: 6.00 Build 0)  -->
<svg version="1.1" xmlns="http://www.w3.org/2000/svg" xmlns:xlink="http://www.w3.org/1999/xlink" x="0px" y="0px"
	 viewBox="0 0 24 24" style="enable-background:new 0 0 24 24;" xml:space="preserve">
<g id="Add_User">
</g>
<g id="Remove_User">
</g>
<g id="Delete_User">
</g>
<g id="Done">
</g>
<g id="At_Symbol">
</g>
<g id="Question">
</g>
<g id="Answer">
</g>
<g id="Bring_Up">
</g>
<g id="Bring_Down">
</g>
<g id="Dismiss_User">
</g>
<g id="User_Speed">
</g>
<g id="User_Settings">
</g>
<g id="User_Refresh">
</g>
<g id="User_Time">
</g>
<g id="Dollar">
</g>
<g id="Euro">
</g>
<g id="Pound">
</g>
<g id="Bitcoin">
</g>
<g id="Global_User">
</g>
<g id="Waiting_User">
</g>
<g id="Writing_User_2">
</g>
<g id="Search_User">
</g>
<g id="Lock_User">
</g>
<g id="Mark_User">
</g>
<g id="Share_User">
</g>
<g id="Shopping">
</g>
<g id="User_Download">
</g>
<g id="User_Upload">
</g>
<g id="User_Statistics">
</g>
<g id="User_Defense">
</g>
<g id="User_Car">
</g>
<g id="User_Home">
</g>
<g id="Park">
</g>
<g id="Recicle_User">
</g>
<g id="Wifi">
</g>
<g id="Attach_User">
</g>
<g id="Disabled_User">
</g>
<g id="User_Card">
</g>
<g id="Gaming">
</g>
<g id="User_Cloud">
</g>
<g id="User_Database">
</g>
<g id="Copyright">
</g>
<g id="No_Copyright">
</g>
<g id="Creative_Commun">
</g>
<g id="Eco-Friendly">
</g>
<g id="Percentage">
</g>
<g id="User_Love">
</g>
<g id="User_Place">
</g>
<g id="User_Key">
</g>
<g id="Sleeping">
</g>
<g id="Add_User_2">
</g>
<g id="Remove_User_2">
</g>
<g id="Delete_User_2">
</g>
<g id="Done_2">
</g>
<g id="At_Symbol_2">
</g>
<g id="Question_2">
</g>
<g id="Answer_2">
</g>
<g id="Bring_Up_2">
</g>
<g id="Bring_Down_2">
</g>
<g id="Dismiss_User_2">
</g>
<g id="User_Speed_2">
</g>
<g id="User_Settings_2">
</g>
<g id="Refresh_2">
</g>
<g id="Time_2">
</g>
<g id="Dollar_2">
</g>
<g id="Euro_2">
</g>
<g id="Pound_2">
</g>
<g id="Bitcoin_2">
</g>
<g id="Global_User_2">
</g>
<g id="Waiting_User_2">
</g>
<g id="Writing_User">
</g>
<g id="Search_User_2">
</g>
<g id="Lock_User_2">
</g>
<g id="Mark_User_2">
</g>
<g id="Share_User_2">
</g>
<g id="Shopping_2">
</g>
<g id="Download_2">
</g>
<g id="Upload_2">
</g>
<g id="User_Statistics_2">
</g>
<g id="User_Defense_2">
</g>
<g id="Car_2">
</g>
<g id="Home_2">
</g>
<g id="Park_2">
</g>
<g id="Recicle_User_2">
</g>
<g id="User_Wifi">
</g>
<g id="Attach_2">
</g>
<g id="Disabled_User_2">
</g>
<g id="User_Card_2">
</g>
<g id="Gaming_2">
</g>
<g id="Cloud_2">
</g>
<g id="Database_2">
	<g>
		<g>
			<path d="M13.5,21.893v-5.785c0-0.022,0.006-0.042,0.006-0.063c0-0.016-0.006-0.029-0.006-0.045c0-0.091,0.029-0.172,0.037-0.261
				c0.003-0.014,0.003-0.029,0.006-0.044c0.026-0.232,0.078-0.454,0.161-0.665C13.565,14.561,13.5,14.162,13.5,14
				c0.719-0.594,1.5-1.625,1.5-2.5s0.5-1,0.5-1s0.5-1.25,0.5-2c0,0-0.125-0.5-0.5-0.5c0-0.531,0-1.531,0-3c0-2.458-1.25-2.25-1-2.5
				c0-0.583-0.708-2-3.5-2C8.156,0.5,6.5,3.208,6.5,5c0,1.469,0,2.469,0,3C6.125,8,6,8.5,6,8.5c0,0.75,0.5,2,0.5,2s0.5,0.125,0.5,1
				s0.781,1.906,1.5,2.5c0,0.469-0.5,2.875-2,3.5l-4.438,1.479c-0.973,0.324-1.314,1.123-1.562,2.118V23.5h13.524
				C13.692,23.029,13.5,22.493,13.5,21.893z"/>
			<path d="M14.024,24H0.5C0.224,24,0,23.776,0,23.5v-2.402c0-0.041,0.005-0.082,0.015-0.121c0.261-1.044,0.67-2.065,1.889-2.472
				l4.438-1.479c1.043-0.436,1.531-2.162,1.636-2.817C7.213,13.506,6.5,12.449,6.5,11.5c0-0.354-0.105-0.5-0.161-0.527
				c-0.156-0.039-0.244-0.138-0.304-0.287C5.981,10.549,5.5,9.322,5.5,8.5c0-0.041,0.005-0.082,0.015-0.121
				C5.57,8.159,5.723,7.839,6,7.651V5c0-2.088,1.902-5,5-5c3.06,0,3.892,1.569,3.99,2.345C15.508,2.729,16,3.389,16,5v2.651
				c0.277,0.188,0.43,0.508,0.485,0.728C16.495,8.418,16.5,8.459,16.5,8.5c0,0.822-0.481,2.049-0.536,2.186
				c-0.06,0.149-0.188,0.261-0.343,0.3C15.605,11,15.5,11.146,15.5,11.5c0,0.949-0.712,2.005-1.476,2.706
				c0.026,0.161,0.076,0.398,0.161,0.683c0.032,0.108,0.026,0.224-0.015,0.327c-0.064,0.162-0.106,0.338-0.129,0.536
				c-0.011,0.089-0.02,0.139-0.029,0.189c0,0.009-0.004,0.105-0.004,0.115L14,21.893c0,0.469,0.146,0.912,0.433,1.319
				c0.107,0.152,0.121,0.353,0.035,0.519C14.382,23.896,14.21,24,14.024,24z M1,23h12.197C13.066,22.646,13,22.276,13,21.893v-5.785
				c0-0.012,0.001-0.031,0.003-0.051C13.001,16.039,13,16.021,13,16c0-0.087,0.013-0.169,0.029-0.251
				c0.001-0.017,0.014-0.092,0.018-0.107c0.025-0.226,0.069-0.433,0.133-0.628C13.069,14.607,13,14.222,13,14
				c0-0.149,0.066-0.29,0.182-0.386c0.655-0.541,1.318-1.441,1.318-2.114c0-0.747,0.309-1.161,0.601-1.357
				c0.144-0.392,0.373-1.104,0.397-1.567c-0.017-0.039-0.041-0.08-0.057-0.094C15.165,8.481,15,8.276,15,8V5
				c0-1.472-0.473-1.771-0.675-1.9C14.204,3.022,14,2.894,13.97,2.619c-0.006-0.06,0.002-0.127,0.022-0.195
				C13.921,2.027,13.321,1,11,1C8.558,1,7,3.369,7,5v3c0,0.276-0.224,0.5-0.5,0.5c0.024,0,0.015,0.034,0.002,0.072
				c0.023,0.466,0.253,1.179,0.397,1.57C7.191,10.338,7.5,10.753,7.5,11.5c0,0.673,0.663,1.573,1.318,2.114
				C8.934,13.71,9,13.851,9,14c0,0.635-0.577,3.24-2.308,3.962l-4.472,1.492C1.512,19.69,1.231,20.259,1,21.16V23z"/>
		</g>
		<path d="M15,17.865V19c0,1.374,2.333,2,4.5,2s4.5-0.626,4.5-2v-1.135C22.916,18.676,21.123,19,19.5,19S16.084,18.676,15,17.865z"
			/>
		<path d="M15,16c0,0.018,0.01,0.033,0.011,0.051l0,0C15.072,17.387,17.362,18,19.5,18c2.137,0,4.424-0.612,4.488-1.946l0,0
			C23.989,16.035,24,16.019,24,16C24,13.374,15,13.374,15,16z"/>
		<path d="M15,20.865v1.027C15,23.34,17.333,24,19.5,24s4.5-0.66,4.5-2.107v-1.027C22.916,21.676,21.123,22,19.5,22
			S16.084,21.676,15,20.865z"/>
	</g>
</g>
<g id="Copyright_2">
</g>
<g id="No_Copyright_2">
</g>
<g id="Creative_Commun_2">
</g>
<g id="Eco-Friendly_2">
</g>
<g id="Percentage_2">
</g>
<g id="User_Love_2">
</g>
<g id="User_Rate_2">
</g>
<g id="User_Key_2">
</g>
<g id="Sleeping_2">
</g>
</svg>
