<?xml version="1.0" encoding="iso-8859-1"?>
<!-- Generator: Adobe Illustrator 19.2.1, SVG Export Plug-In . SVG Version: 6.00 Build 0)  -->
<svg version="1.1" xmlns="http://www.w3.org/2000/svg" xmlns:xlink="http://www.w3.org/1999/xlink" x="0px" y="0px"
	 viewBox="0 0 30 30" style="enable-background:new 0 0 30 30;" xml:space="preserve">
<g id="Add_Users">
</g>
<g id="Remove_Users">
</g>
<g id="Delete_Users">
</g>
<g id="Done_3">
</g>
<g id="At_Symbol_3">
</g>
<g id="Question_3">
</g>
<g id="Answer_3">
</g>
<g id="Bring_Up_3">
</g>
<g id="Bring_Down_3">
</g>
<g id="Dismiss_Users">
</g>
<g id="Users_Speed_3">
</g>
<g id="Users_Settings">
</g>
<g id="Refresh_Users">
</g>
<g id="Time_3">
</g>
<g id="Dollar_3">
</g>
<g id="Euro_3">
</g>
<g id="Pound_3">
</g>
<g id="Bitcoin_3">
</g>
<g id="Global_Users">
</g>
<g id="Waiting_Users">
</g>
<g id="Writing_Users">
</g>
<g id="Search_Users">
</g>
<g id="Lock_Users">
</g>
<g id="Mark_Users">
</g>
<g id="Share_Users">
</g>
<g id="Shopping_3">
</g>
<g id="Download_3">
</g>
<g id="Upload_3">
</g>
<g id="Users_Statistics">
</g>
<g id="Users_Defense">
</g>
<g id="Car_3">
</g>
<g id="Home_3">
</g>
<g id="Park_3">
</g>
<g id="Recicle_Users">
</g>
<g id="Wifi_3">
</g>
<g id="Attach_3">
</g>
<g id="Disabled_Users">
</g>
<g id="Users_Card">
</g>
<g id="Gaming_3">
</g>
<g id="Cloud_3">
</g>
<g id="Database_3">
	<g>
		<g>
			<path d="M25.459,17.506c-0.04,0-0.081-0.005-0.122-0.015l-3.763-0.94c-0.179-0.045-0.319-0.185-0.364-0.364l-0.429-1.716
				c-0.045-0.18,0.013-0.369,0.151-0.493c0.96-0.861,1.595-2.144,1.696-3.43c0.021-0.261,0.238-0.461,0.499-0.461
				c0.252,0,0.429-0.155,0.455-0.362l0.229-1.826c0.015-0.117-0.02-0.23-0.098-0.319c-0.079-0.091-0.188-0.141-0.308-0.143
				c-0.136-0.002-0.265-0.059-0.358-0.157c-0.093-0.099-0.142-0.231-0.135-0.367l0.111-2.284c0.006-0.124,0.058-0.241,0.146-0.329
				l0.457-0.457c0.291-0.311,0.521-0.76-0.065-1.655c-0.497-0.758-1.391-1.143-2.658-1.143c-0.665,0-1.54,0.053-2.402,0.462
				c-0.25,0.117-0.548,0.012-0.666-0.238c-0.119-0.249-0.012-0.548,0.237-0.666c1.043-0.494,2.061-0.558,2.831-0.558
				c1.626,0,2.802,0.537,3.495,1.595c0.906,1.385,0.471,2.341-0.054,2.899l-0.331,0.331L23.931,6.54
				c0.204,0.083,0.388,0.212,0.536,0.382c0.263,0.302,0.386,0.703,0.336,1.101L24.574,9.85c-0.071,0.565-0.472,1.02-0.994,1.177
				c-0.195,1.298-0.831,2.56-1.757,3.485l0.285,1.142l3.472,0.867c0.268,0.067,0.431,0.339,0.364,0.606
				C25.887,17.354,25.684,17.506,25.459,17.506z"/>
		</g>
		<g>
			<path d="M0.5,22.041c-0.276,0-0.5-0.224-0.5-0.5c0-2.379,1.612-4.443,3.92-5.021l3.472-0.867l0.306-1.224
				c-0.872-0.909-1.475-2.129-1.669-3.375C5.454,10.93,5.001,10.453,4.926,9.85L4.697,8.023c-0.05-0.402,0.075-0.808,0.343-1.111
				c0.163-0.185,0.37-0.321,0.599-0.4C5.574,5.951,5.479,5.056,5.479,4.652c0-1.781,0.533-3.607,4.449-3.693
				c1.37-0.915,2.837-0.915,3.475-0.915c1.626,0,2.802,0.537,3.495,1.595c0.906,1.385,0.471,2.341-0.054,2.899l-0.331,0.331
				L16.431,6.54c0.204,0.083,0.388,0.212,0.536,0.382c0.263,0.302,0.386,0.703,0.336,1.101L17.074,9.85
				c-0.071,0.565-0.472,1.02-0.994,1.177c-0.195,1.298-0.831,2.56-1.757,3.485l0.285,1.142l3.472,0.867
				c0.918,0.229,1.764,0.722,2.446,1.424c0.192,0.198,0.188,0.515-0.01,0.707c-0.198,0.193-0.516,0.188-0.707-0.01
				c-0.553-0.568-1.234-0.967-1.972-1.15l-3.763-0.94c-0.179-0.045-0.319-0.185-0.364-0.364l-0.429-1.716
				c-0.045-0.18,0.013-0.369,0.151-0.493c0.96-0.861,1.595-2.144,1.696-3.43c0.021-0.261,0.238-0.461,0.499-0.461
				c0.252,0,0.429-0.155,0.455-0.362l0.229-1.826c0.015-0.117-0.02-0.23-0.098-0.319c-0.079-0.091-0.188-0.141-0.308-0.143
				c-0.136-0.002-0.265-0.059-0.358-0.157c-0.093-0.099-0.142-0.231-0.135-0.367l0.111-2.284c0.006-0.124,0.058-0.241,0.146-0.329
				l0.457-0.457c0.291-0.311,0.521-0.76-0.065-1.655c-0.497-0.758-1.391-1.143-2.658-1.143c-0.929,0-2.015,0.098-3.024,0.818
				c-0.083,0.061-0.184,0.093-0.286,0.094C6.755,1.989,6.479,3.251,6.479,4.652c0,0.444,0.153,1.753,0.211,2.22
				c0.018,0.143-0.026,0.285-0.121,0.394C6.474,7.373,6.337,7.435,6.194,7.435c-0.214,0-0.324,0.05-0.404,0.14
				S5.675,7.779,5.689,7.899l0.229,1.825c0.026,0.207,0.202,0.362,0.41,0.362h0.148c0.261,0,0.478,0.2,0.499,0.46
				c0.1,1.248,0.705,2.505,1.62,3.363c0.132,0.124,0.187,0.31,0.143,0.485l-0.448,1.791c-0.044,0.18-0.185,0.319-0.364,0.364
				l-3.763,0.94C2.3,17.957,1,19.622,1,21.541C1,21.817,0.776,22.041,0.5,22.041z"/>
		</g>
		<g>
			<path d="M24.5,24.044c-2.667,0-5.5-0.876-5.5-2.5s2.833-2.5,5.5-2.5s5.5,0.876,5.5,2.5S27.167,24.044,24.5,24.044z M24.5,20.044
				c-2.747,0-4.5,0.889-4.5,1.5s1.753,1.5,4.5,1.5s4.5-0.889,4.5-1.5S27.247,20.044,24.5,20.044z"/>
		</g>
		<g>
			<path d="M24.5,26c-2.667,0-5.5-0.876-5.5-2.5c0-0.276,0.224-0.5,0.5-0.5s0.5,0.224,0.5,0.5c0,0.611,1.753,1.5,4.5,1.5
				s4.5-0.889,4.5-1.5c0-0.276,0.224-0.5,0.5-0.5s0.5,0.224,0.5,0.5C30,25.124,27.167,26,24.5,26z"/>
		</g>
		<g>
			<path d="M24.5,28c-2.667,0-5.5-0.876-5.5-2.5c0-0.276,0.224-0.5,0.5-0.5s0.5,0.224,0.5,0.5c0,0.611,1.753,1.5,4.5,1.5
				s4.5-0.889,4.5-1.5c0-0.276,0.224-0.5,0.5-0.5s0.5,0.224,0.5,0.5C30,27.124,27.167,28,24.5,28z"/>
		</g>
		<g>
			<path d="M24.5,29.956c-2.649,0-5.5-0.769-5.5-2.456v-6c0-0.276,0.224-0.5,0.5-0.5s0.5,0.224,0.5,0.5v6
				c0,0.608,1.712,1.456,4.5,1.456S29,28.108,29,27.5v-6c0-0.276,0.224-0.5,0.5-0.5s0.5,0.224,0.5,0.5v6
				C30,29.188,27.149,29.956,24.5,29.956z"/>
		</g>
	</g>
</g>
<g id="Copyright_3">
</g>
<g id="No_Copzright_3">
</g>
<g id="Creative_Commun_3">
</g>
<g id="Eco-Friendly_3">
</g>
<g id="Percentage_3">
</g>
<g id="Users_Love">
</g>
<g id="Users_Place">
</g>
<g id="Users_Key">
</g>
<g id="Sleeping_3">
</g>
</svg>
