<?xml version="1.0" encoding="iso-8859-1"?>
<!-- Generator: Adobe Illustrator 19.2.1, SVG Export Plug-In . SVG Version: 6.00 Build 0)  -->
<svg version="1.1" xmlns="http://www.w3.org/2000/svg" xmlns:xlink="http://www.w3.org/1999/xlink" x="0px" y="0px"
	 viewBox="0 0 30 30" style="enable-background:new 0 0 30 30;" xml:space="preserve">
<g id="Credit_Card">
</g>
<g id="Banknote">
</g>
<g id="Wallet">
</g>
<g id="Compass">
</g>
<g id="Camera_1">
</g>
<g id="Photo">
</g>
<g id="Picture">
</g>
<g id="Camera_2">
</g>
<g id="No_Camera">
</g>
<g id="Video">
</g>
<g id="Audio">
</g>
<g id="Microphone_1">
</g>
<g id="Microphone_2">
</g>
<g id="No_Microphone">
</g>
<g id="Shopping_Cart">
</g>
<g id="Add_Shopping_Cart">
</g>
<g id="Remove_Shopping_Cart">
</g>
<g id="Shopping_Basket">
</g>
<g id="Jing-Jang">
</g>
<g id="Leaf">
</g>
<g id="Glass">
</g>
<g id="Cup">
</g>
<g id="Mug">
</g>
<g id="Refresh">
</g>
<g id="Login">
</g>
<g id="Logout">
</g>
<g id="Flowchart">
</g>
<g id="Pin_1">
</g>
<g id="Pin_2">
</g>
<g id="User_1">
</g>
<g id="User_2">
</g>
<g id="Users">
</g>
<g id="Adjustments">
</g>
<g id="Type">
</g>
<g id="Format_Size">
</g>
<g id="Menu_1">
</g>
<g id="Other">
</g>
<g id="Flash">
</g>
<g id="No_Flash">
</g>
<g id="Switch_Button_1">
</g>
<g id="Switch_Button_2">
</g>
<g id="Cut">
</g>
<g id="Crop">
</g>
<g id="Sun">
</g>
<g id="USB">
</g>
<g id="Pie_Chart_1">
</g>
<g id="Pie_Chart_2">
</g>
<g id="Line_Chart">
</g>
<g id="Bar_Chart">
</g>
<g id="Target">
</g>
<g id="Flashlight">
</g>
<g id="USB_Device">
</g>
<g id="Eject">
</g>
<g id="Lightbulb">
</g>
<g id="Information">
</g>
<g id="Deactivate_Protection">
	<g>
		<g>
			<path d="M15,30c-0.082,0-0.165-0.021-0.239-0.062C14.28,29.677,3,23.429,3,15.631V1.5C3,1.224,3.224,1,3.5,1h0.15
				c0.167,0,0.323,0.083,0.416,0.222c1.198,1.792,2.738,1.935,4.628,1.935c2.506,0,4.652-1.069,5.89-2.933
				C14.677,0.084,14.833,0,15.001,0l0,0c0.168,0,0.324,0.084,0.417,0.224c1.235,1.863,3.382,2.933,5.888,2.933
				c1.89,0,3.43-0.143,4.628-1.935C26.026,1.083,26.183,1,26.35,1h0.15C26.776,1,27,1.224,27,1.5v14.131
				c0,7.798-11.28,14.046-11.761,14.308C15.165,29.979,15.082,30,15,30z M4,2.709v12.922c0,6.616,9.369,12.347,11,13.294
				c1.63-0.947,11-6.683,11-13.294V2.709c-1.351,1.32-2.992,1.447-4.694,1.447c-2.586,0-4.846-1.017-6.307-2.813
				C13.54,3.14,11.281,4.156,8.694,4.156C6.992,4.156,5.351,4.029,4,2.709z"/>
		</g>
		<g>
			<path d="M19,18.5c-0.128,0-0.256-0.049-0.354-0.146l-8-8c-0.195-0.195-0.195-0.512,0-0.707s0.512-0.195,0.707,0l8,8
				c0.195,0.195,0.195,0.512,0,0.707C19.256,18.451,19.128,18.5,19,18.5z"/>
		</g>
		<g>
			<path d="M11,18.5c-0.128,0-0.256-0.049-0.354-0.146c-0.195-0.195-0.195-0.512,0-0.707l8-8c0.195-0.195,0.512-0.195,0.707,0
				s0.195,0.512,0,0.707l-8,8C11.256,18.451,11.128,18.5,11,18.5z"/>
		</g>
	</g>
</g>
<g id="Active_Protection">
</g>
<g id="Bug">
</g>
<g id="Protection">
</g>
<g id="Phone">
</g>
<g id="List">
</g>
<g id="Plugin_1">
</g>
<g id="Bookmarrk">
</g>
<g id="Handshake">
</g>
<g id="Minimize">
</g>
<g id="Maximize">
</g>
<g id="Diamond">
</g>
<g id="Stop">
</g>
<g id="Shuffle">
</g>
<g id="Undo">
</g>
<g id="Upgrade">
</g>
<g id="Coding">
</g>
<g id="Syncronizaion">
</g>
<g id="Radio">
</g>
<g id="Presentation">
</g>
<g id="Door">
</g>
<g id="Thumbs_Up">
</g>
<g id="Thumbs_Down">
</g>
<g id="Keyboard">
</g>
<g id="_x33_D_Cube">
</g>
<g id="Signal">
</g>
<g id="Dice">
</g>
<g id="Upload">
</g>
<g id="Download">
</g>
<g id="Plugin_2">
</g>
<g id="Shopping_Bag">
</g>
<g id="Lifebelt">
</g>
<g id="Glasses">
</g>
<g id="Parabolic_Antenna">
</g>
<g id="Loudspeaker">
</g>
<g id="Play">
</g>
<g id="Pause">
</g>
<g id="Signpost">
</g>
<g id="Bluetooth">
</g>
<g id="Present">
</g>
<g id="Ruler">
</g>
<g id="Connection">
</g>
<g id="Money">
</g>
<g id="Paper_Plane">
</g>
<g id="Wallet_2">
</g>
</svg>
