<?xml version="1.0" encoding="iso-8859-1"?>
<!-- Generator: Adobe Illustrator 19.2.1, SVG Export Plug-In . SVG Version: 6.00 Build 0)  -->
<svg version="1.1" xmlns="http://www.w3.org/2000/svg" xmlns:xlink="http://www.w3.org/1999/xlink" x="0px" y="0px"
	 viewBox="0 0 30 30" style="enable-background:new 0 0 30 30;" xml:space="preserve">
<g id="Sun_Light">
</g>
<g id="Sunglasses">
</g>
<g id="T-Shirt_1">
</g>
<g id="T-Shirt_2">
</g>
<g id="Mini_Dress">
</g>
<g id="Flip-Flops">
</g>
<g id="Temperature">
</g>
<g id="Hot_Temperature">
</g>
<g id="Ice_Lolly">
</g>
<g id="Icecream">
</g>
<g id="Limonade_1">
</g>
<g id="Limonade_2">
</g>
<g id="Hat">
</g>
<g id="Straw_Hat">
</g>
<g id="Deckchair">
	<path d="M29.91,5.832c-0.148-0.445-0.463-0.805-0.884-1.014L23.72,2.185c-0.868-0.43-1.925-0.08-2.354,0.773l-4.847,9.15
		L5.338,17.04c-0.066,0.028-0.125,0.071-0.172,0.125l-4.778,5.383c-0.333,0.413-0.46,0.948-0.347,1.467
		c0.114,0.521,0.455,0.956,0.934,1.194l5.254,2.607c0.249,0.123,0.518,0.183,0.784,0.183c0.521,0,1.03-0.227,1.361-0.638
		l2.929-3.321l2.835,1.407c0.07,0.034,0.146,0.052,0.222,0.052c0.118,0,0.235-0.042,0.329-0.123c0.152-0.133,0.21-0.345,0.146-0.536
		l-1.115-3.319l7.371-3.252l4.386,2.177c0.071,0.034,0.147,0.052,0.223,0.052c0.118,0,0.235-0.042,0.328-0.123
		c0.153-0.133,0.21-0.345,0.146-0.536l-1.191-3.548l4.828-9.114c0.002-0.003,0.004-0.006,0.005-0.009
		C30.024,6.75,30.059,6.275,29.91,5.832z M11.988,23.264l0.913-1.035l0.6,1.786L11.988,23.264z M22.281,17.744l1.858-0.819
		l0.702,2.09L22.281,17.744z"/>
</g>
<g id="Sunshade">
</g>
<g id="Suncream">
</g>
<g id="Suntan_Oil">
</g>
<g id="Swimming_Trunks">
</g>
<g id="Bikini">
</g>
<g id="Pool">
</g>
<g id="Pool_Ladder">
</g>
<g id="Grill">
</g>
<g id="Kite_1">
</g>
<g id="Kite_2">
</g>
<g id="Badminton">
</g>
<g id="Cooler">
</g>
<g id="Strand_Bag">
</g>
<g id="Towel">
</g>
<g id="Strand_Ball">
</g>
<g id="Beach_Sign">
</g>
<g id="Toos">
</g>
<g id="Bucket">
</g>
<g id="Sand_Castle">
</g>
<g id="Shell_1">
</g>
<g id="Shell_2">
</g>
<g id="Surf_Board">
</g>
<g id="Float">
</g>
<g id="Vacation_Photo">
</g>
<g id="Summer_Time">
</g>
<g id="Boat">
</g>
<g id="Lifebuoy">
</g>
<g id="Lighthouse">
</g>
<g id="Sunset">
</g>
<g id="Dolphin">
</g>
<g id="Starfish">
</g>
<g id="Diving_Mask">
</g>
<g id="Sailboat">
</g>
<g id="Captin_Hat">
</g>
<g id="Eudder">
</g>
</svg>
