<?xml version="1.0" encoding="iso-8859-1"?>
<!-- Generator: Adobe Illustrator 19.2.1, SVG Export Plug-In . SVG Version: 6.00 Build 0)  -->
<svg version="1.1" xmlns="http://www.w3.org/2000/svg" xmlns:xlink="http://www.w3.org/1999/xlink" x="0px" y="0px"
	 viewBox="0 0 30 30" style="enable-background:new 0 0 30 30;" xml:space="preserve">
<g id="Sun_Light">
</g>
<g id="Sunglasses">
</g>
<g id="T-Shirt_1">
</g>
<g id="T-Shirt_2">
</g>
<g id="Mini_Dress">
</g>
<g id="Flip-Flops">
</g>
<g id="Temperature">
</g>
<g id="Hot_Temperature">
</g>
<g id="Ice_Lolly">
</g>
<g id="Icecream">
</g>
<g id="Limonade_1">
</g>
<g id="Limonade_2">
</g>
<g id="Hat">
</g>
<g id="Straw_Hat">
</g>
<g id="Deckchair">
	<g>
		<g id="XMLID_137_">
			<path d="M7.013,27.999c-0.266,0-0.535-0.059-0.784-0.183l-5.254-2.607c-0.479-0.238-0.82-0.673-0.934-1.194
				c-0.113-0.519,0.013-1.054,0.347-1.468l4.778-5.382c0.048-0.054,0.106-0.097,0.172-0.125l11.18-4.932l4.847-9.15
				c0.429-0.854,1.487-1.204,2.354-0.773l5.306,2.633c0.422,0.209,0.736,0.569,0.885,1.015c0.148,0.443,0.114,0.918-0.097,1.336
				c-0.002,0.003-0.003,0.006-0.005,0.009L24.88,16.48c-0.053,0.1-0.137,0.178-0.24,0.224l-11.239,4.957l-5.028,5.7
				C8.042,27.772,7.533,27.998,7.013,27.999z M5.841,17.911l-4.69,5.282c-0.127,0.159-0.181,0.387-0.133,0.608
				c0.049,0.223,0.195,0.41,0.402,0.512l5.254,2.607c0.318,0.157,0.713,0.074,0.936-0.203l5.115-5.799
				c0.048-0.055,0.107-0.098,0.173-0.127l11.18-4.931l4.844-9.146c0.088-0.177,0.102-0.378,0.04-0.565
				c-0.063-0.191-0.199-0.345-0.38-0.436L23.275,3.08c-0.375-0.185-0.834-0.035-1.021,0.336l-4.933,9.313
				c-0.053,0.1-0.137,0.178-0.24,0.224L5.841,17.911z M29.367,6.943h0.01H29.367z"/>
		</g>
		<g id="XMLID_138_">
			<path d="M14.359,25.499c-0.076,0-0.152-0.017-0.222-0.052l-3.178-1.577c-0.248-0.123-0.349-0.423-0.226-0.67
				c0.122-0.247,0.423-0.348,0.67-0.226l2.098,1.041l-0.876-2.608c-0.088-0.262,0.053-0.545,0.315-0.633
				c0.263-0.085,0.545,0.054,0.633,0.315l1.26,3.751c0.064,0.191,0.007,0.403-0.146,0.536
				C14.595,25.457,14.478,25.499,14.359,25.499z"/>
		</g>
		<g id="XMLID_139_">
			<path d="M25.699,20.498c-0.076,0-0.152-0.017-0.222-0.052l-4.595-2.28c-0.248-0.123-0.349-0.422-0.226-0.67
				c0.122-0.247,0.423-0.349,0.67-0.226l3.515,1.744l-0.876-2.608c-0.088-0.262,0.053-0.545,0.315-0.633
				c0.263-0.086,0.545,0.053,0.633,0.315l1.26,3.751c0.064,0.191,0.007,0.403-0.146,0.536
				C25.935,20.456,25.817,20.498,25.699,20.498z"/>
		</g>
	</g>
</g>
<g id="Sunshade">
</g>
<g id="Suncream">
</g>
<g id="Suntan_Oil">
</g>
<g id="Swimming_Trunks">
</g>
<g id="Bikini">
</g>
<g id="Pool">
</g>
<g id="Pool_Ladder">
</g>
<g id="Grill">
</g>
<g id="Kite_1">
</g>
<g id="Kite_2">
</g>
<g id="Badminton">
</g>
<g id="Cooler">
</g>
<g id="Strand_Bag">
</g>
<g id="Towel">
</g>
<g id="Strand_Ball">
</g>
<g id="Beach_Sign">
</g>
<g id="Toos">
</g>
<g id="Bucket">
</g>
<g id="Sand_Castle">
</g>
<g id="Shell_1">
</g>
<g id="Shell_2">
</g>
<g id="Surf_Board">
</g>
<g id="Float">
</g>
<g id="Vacation_Photo">
</g>
<g id="Summer_Time">
</g>
<g id="Boat">
</g>
<g id="Lifebuoy">
</g>
<g id="Lighthouse">
</g>
<g id="Sunset">
</g>
<g id="Dolphin">
</g>
<g id="Starfish">
</g>
<g id="Diving_Mask">
</g>
<g id="Sailboat">
</g>
<g id="Captin_Hat">
</g>
<g id="Eudder">
</g>
</svg>
