<?xml version="1.0" encoding="iso-8859-1"?>
<!-- Generator: Adobe Illustrator 19.2.1, SVG Export Plug-In . SVG Version: 6.00 Build 0)  -->
<svg version="1.1" xmlns="http://www.w3.org/2000/svg" xmlns:xlink="http://www.w3.org/1999/xlink" x="0px" y="0px"
	 viewBox="0 0 30 30" style="enable-background:new 0 0 30 30;" xml:space="preserve">
<g id="Mail">
</g>
<g id="Open_Mail">
</g>
<g id="Mail_Attachmet">
</g>
<g id="Mails">
</g>
<g id="Trash">
</g>
<g id="Trash_Full">
</g>
<g id="Preferences_1">
</g>
<g id="Preferences_2">
</g>
<g id="Mouse">
</g>
<g id="Computer">
</g>
<g id="Notebook">
</g>
<g id="Mobile_Phone">
</g>
<g id="Print">
</g>
<g id="Calculator">
</g>
<g id="Tag">
</g>
<g id="Paperclip">
</g>
<g id="Heart">
</g>
<g id="Lock">
</g>
<g id="Lock_Open">
</g>
<g id="Key_1">
</g>
<g id="Star">
</g>
<g id="Add">
</g>
<g id="Remove">
</g>
<g id="Error">
</g>
<g id="Check_1">
</g>
<g id="Time">
</g>
<g id="Question_Mark">
</g>
<g id="Error_Mark">
</g>
<g id="Sand-Glass">
</g>
<g id="Battery_Full">
</g>
<g id="Battery_Charge">
</g>
<g id="Battery_Half">
</g>
<g id="Battery_Low">
</g>
<g id="No_Battery">
</g>
<g id="Key_2">
</g>
<g id="Link">
</g>
<g id="Brake_Link">
</g>
<g id="Pencil">
</g>
<g id="At">
</g>
<g id="Reply">
</g>
<g id="Accessible">
</g>
<g id="Up_Arrow">
</g>
<g id="Brush">
</g>
<g id="Design_Mug">
	<g>
		<g>
			<path d="M22.717,30H11.37C9.732,30,8,28.189,8,26.478V12.5C8,12.224,8.224,12,8.5,12h17c0.276,0,0.5,0.224,0.5,0.5v13.978
				C26,28.063,24.485,30,22.717,30z M9,13v13.478C9,27.633,10.285,29,11.37,29h11.348C23.784,29,25,27.657,25,26.478V13H9z"/>
		</g>
		<g>
			<path d="M18.5,13c-0.276,0-0.5-0.224-0.5-0.5V1h-4v11.5c0,0.276-0.224,0.5-0.5,0.5S13,12.776,13,12.5v-12
				C13,0.224,13.224,0,13.5,0h5C18.776,0,19,0.224,19,0.5v12C19,12.776,18.776,13,18.5,13z"/>
		</g>
		<g>
			<path d="M16,11h-2c-0.276,0-0.5-0.224-0.5-0.5S13.724,10,14,10h2c0.276,0,0.5,0.224,0.5,0.5S16.276,11,16,11z"/>
		</g>
		<g>
			<path d="M15,8h-1c-0.276,0-0.5-0.224-0.5-0.5S13.724,7,14,7h1c0.276,0,0.5,0.224,0.5,0.5S15.276,8,15,8z"/>
		</g>
		<g>
			<path d="M16,6h-2c-0.276,0-0.5-0.224-0.5-0.5S13.724,5,14,5h2c0.276,0,0.5,0.224,0.5,0.5S16.276,6,16,6z"/>
		</g>
		<g>
			<path d="M15,3h-1c-0.276,0-0.5-0.224-0.5-0.5S13.724,2,14,2h1c0.276,0,0.5,0.224,0.5,0.5S15.276,3,15,3z"/>
		</g>
		<g>
			<path d="M12.631,13c-0.174,0-0.344-0.091-0.436-0.253L9.043,7.181C8.907,6.941,8.991,6.636,9.231,6.5
				c0.241-0.136,0.546-0.051,0.682,0.188l3.152,5.565c0.136,0.24,0.052,0.545-0.188,0.682C12.799,12.979,12.714,13,12.631,13z"/>
		</g>
		<g>
			<path d="M10.109,13c-0.201,0-0.391-0.122-0.467-0.321L7.75,7.745C7.651,7.486,7.78,7.197,8.038,7.099
				C8.296,7,8.585,7.128,8.684,7.386l1.892,4.935c0.099,0.258-0.03,0.547-0.288,0.646C10.229,12.989,10.168,13,10.109,13z"/>
		</g>
		<g>
			<path d="M7.609,8C5.777,8,4.5,6.199,4.5,4.583C4.5,3.055,6.276,0,8.609,0c0.276,0,0.5,0.224,0.5,0.5v1.75
				c0,0.34,0.182,0.561,0.503,0.924C10.008,3.62,10.5,4.175,10.5,5.167C10.5,6.967,9.446,8,7.609,8z M8.109,1.074
				C6.683,1.488,5.5,3.553,5.5,4.583C5.5,5.593,6.302,7,7.609,7C8.899,7,9.5,6.417,9.5,5.167c0-0.612-0.295-0.944-0.636-1.33
				C8.51,3.438,8.109,2.986,8.109,2.25V1.074z"/>
		</g>
		<g>
			<path d="M24,13c-0.097,0-0.195-0.028-0.281-0.086c-0.229-0.156-0.288-0.467-0.132-0.695L26,8.672V5.737l-2.986,0.995
				l-4.125,5.083c-0.173,0.215-0.489,0.248-0.703,0.073c-0.214-0.174-0.247-0.489-0.073-0.703l4.217-5.196
				c0.06-0.074,0.14-0.129,0.23-0.159l3.783-1.261c0.152-0.053,0.319-0.026,0.451,0.068C26.923,4.732,27,4.883,27,5.043v3.783
				c0,0.1-0.03,0.198-0.086,0.281l-2.5,3.674C24.316,12.923,24.16,13,24,13z"/>
		</g>
		<g>
			<path d="M26.5,9.326c-0.095,0-0.191-0.027-0.277-0.084L22.44,6.72c-0.23-0.153-0.292-0.463-0.139-0.693
				c0.152-0.23,0.462-0.292,0.693-0.139l3.783,2.522c0.23,0.153,0.292,0.463,0.139,0.693C26.82,9.248,26.661,9.326,26.5,9.326z"/>
		</g>
		<g>
			<path d="M8.5,23H7.283c-2.299,0-4.121-1.647-4.272-3.802C3.003,19.166,3,19.132,3,19.098v-0.19c0-0.035,0.003-0.068,0.01-0.101
				C3.161,16.65,4.983,15,7.283,15H8.5C8.776,15,9,15.224,9,15.5S8.776,16,8.5,16H7.283c-1.838,0-3.232,1.284-3.281,3.002
				C4.051,20.718,5.445,22,7.283,22H8.5C8.776,22,9,22.224,9,22.5S8.776,23,8.5,23z"/>
		</g>
	</g>
</g>
<g id="Design">
</g>
<g id="Server">
</g>
<g id="Database">
</g>
<g id="Save">
</g>
<g id="Female">
</g>
<g id="Male">
</g>
<g id="Book">
</g>
<g id="Power">
</g>
<g id="Reload">
</g>
<g id="Map">
</g>
<g id="Loction_1">
</g>
<g id="Location_2">
</g>
<g id="Globe">
</g>
<g id="Suitcase">
</g>
<g id="Callendar">
</g>
<g id="Cloud_Off">
</g>
<g id="File_1">
</g>
<g id="File_2">
</g>
<g id="Folder">
</g>
<g id="Open_Folder">
</g>
<g id="Cloud">
</g>
<g id="Upload_Cloud">
</g>
<g id="Download_Cloud">
</g>
<g id="Eye">
</g>
<g id="Invisible">
</g>
<g id="Assignment">
</g>
<g id="Note_Book">
</g>
<g id="Webpage">
</g>
<g id="Mailbox">
</g>
<g id="Drive">
</g>
<g id="Disc">
</g>
<g id="Wifi_1">
</g>
<g id="Wifi_2">
</g>
<g id="Archive">
</g>
<g id="Archive_File">
</g>
<g id="News">
</g>
<g id="Home">
</g>
<g id="Collaboration">
</g>
<g id="Announcement">
</g>
<g id="Watch">
</g>
<g id="Clock">
</g>
<g id="Volume">
</g>
<g id="Mute">
</g>
<g id="Hand">
</g>
<g id="Layers">
</g>
<g id="Bell">
</g>
<g id="Speach_Bubble">
</g>
<g id="Speach_Bubbles">
</g>
<g id="Zoom_In">
</g>
<g id="Zoom_Out">
</g>
<g id="Search">
</g>
<g id="Back_Arrow">
</g>
<g id="Close">
</g>
<g id="Check_2">
</g>
<g id="Left_Arrow_2">
</g>
<g id="Right_Arrow_2">
</g>
</svg>
