<?xml version="1.0" encoding="iso-8859-1"?>
<!-- Generator: Adobe Illustrator 19.2.1, SVG Export Plug-In . SVG Version: 6.00 Build 0)  -->
<svg version="1.1" xmlns="http://www.w3.org/2000/svg" xmlns:xlink="http://www.w3.org/1999/xlink" x="0px" y="0px"
	 viewBox="0 0 30 30" style="enable-background:new 0 0 30 30;" xml:space="preserve">
<g id="Armchair_1">
</g>
<g id="Armchair_2">
</g>
<g id="Armchair_3">
</g>
<g id="Armchair_4">
</g>
<g id="Sofa_1">
</g>
<g id="Sofa_2">
</g>
<g id="Sofa_3">
</g>
<g id="Sofa_4">
</g>
<g id="Sofa_5">
</g>
<g id="Sofa_6">
</g>
<g id="Desk_1">
</g>
<g id="Desk_2">
</g>
<g id="Desk_3">
	<g id="XMLID_100_">
		<g id="XMLID_101_">
			<path d="M29.5,26h-9c-0.276,0-0.5-0.224-0.5-0.5V16c0-1.103-0.897-2-2-2H0.5C0.224,14,0,13.776,0,13.5v-11C0,2.224,0.224,2,0.5,2
				h29C29.776,2,30,2.224,30,2.5v23C30,25.776,29.776,26,29.5,26z M21,25h8V3H1v10h17c1.654,0,3,1.346,3,3V25z"/>
		</g>
		<g id="XMLID_102_">
			<path d="M13.5,27h-7C4.981,27,4,25.822,4,24v-5.5C4,17.533,4.533,17,5.5,17S7,17.533,7,18.5v4C7,22.916,7.084,23,7.5,23h5
				c0.416,0,0.5-0.084,0.5-0.5v-4c0-0.967,0.533-1.5,1.5-1.5s1.5,0.533,1.5,1.5V24C16,25.822,15.019,27,13.5,27z M5.5,18
				C5.084,18,5,18.084,5,18.5V24c0,0.602,0.146,2,1.5,2h7c1.354,0,1.5-1.398,1.5-2v-5.5c0-0.416-0.084-0.5-0.5-0.5
				S14,18.084,14,18.5v4c0,0.967-0.533,1.5-1.5,1.5h-5C6.533,24,6,23.467,6,22.5v-4C6,18.084,5.916,18,5.5,18z"/>
		</g>
		<g id="XMLID_103_">
			<path d="M13.25,19H7c-0.276,0-0.5-0.224-0.5-0.5S6.724,18,7,18h6.25c0.276,0,0.5,0.224,0.5,0.5S13.526,19,13.25,19z"/>
		</g>
	</g>
</g>
<g id="Lamp">
</g>
<g id="Bed_1">
</g>
<g id="Bunk_Beds">
</g>
<g id="Bed_2">
</g>
<g id="Bed_3">
</g>
<g id="Bed_4">
</g>
<g id="Bed_5">
</g>
<g id="Table_1">
</g>
<g id="Table_2">
</g>
<g id="Table_3">
</g>
<g id="Table_4">
</g>
<g id="Rug_1">
</g>
<g id="Rug_2">
</g>
<g id="Rug_3">
</g>
<g id="Tub_1">
</g>
<g id="Tub_2">
</g>
<g id="Jacuzzi">
</g>
<g id="Corner_Tub">
</g>
<g id="Shower_Tray">
</g>
<g id="Sink_1">
</g>
<g id="Sink_2">
</g>
<g id="Toilette">
</g>
<g id="Stove">
</g>
<g id="Kitchen_Sink">
</g>
<g id="Island">
</g>
<g id="Eat-in_Kitchen">
</g>
<g id="Tv_Stand">
</g>
</svg>
