<?xml version="1.0" encoding="iso-8859-1"?>
<!-- Generator: Adobe Illustrator 19.2.1, SVG Export Plug-In . SVG Version: 6.00 Build 0)  -->
<svg version="1.1" xmlns="http://www.w3.org/2000/svg" xmlns:xlink="http://www.w3.org/1999/xlink" x="0px" y="0px"
	 viewBox="0 0 30 30" style="enable-background:new 0 0 30 30;" xml:space="preserve">
<g id="Armchair_1">
</g>
<g id="Armchair_2">
</g>
<g id="Armchair_3">
</g>
<g id="Armchair_4">
</g>
<g id="Sofa_1">
</g>
<g id="Sofa_2">
</g>
<g id="Sofa_3">
</g>
<g id="Sofa_4">
</g>
<g id="Sofa_5">
</g>
<g id="Sofa_6">
</g>
<g id="Desk_1">
</g>
<g id="Desk_2">
</g>
<g id="Desk_3">
	<g>
		<path d="M29.5,2h-29C0.224,2,0,2.224,0,2.5v11C0,13.776,0.224,14,0.5,14H18c1.103,0,2,0.897,2,2v9.5c0,0.276,0.224,0.5,0.5,0.5h9
			c0.276,0,0.5-0.224,0.5-0.5v-23C30,2.224,29.776,2,29.5,2z"/>
		<path d="M14.5,17c-0.967,0-1.5,0.533-1.5,1.5v4c0,0.416-0.084,0.5-0.5,0.5h-5C7.084,23,7,22.916,7,22.5v-4
			C7,17.533,6.467,17,5.5,17S4,17.533,4,18.5V24c0,1.822,0.981,3,2.5,3h7c1.519,0,2.5-1.178,2.5-3v-5.5C16,17.533,15.467,17,14.5,17
			z"/>
		<path d="M11.998,22L12,18.5c0-0.175,0.016-0.34,0.042-0.5H7.958C7.984,18.16,8,18.325,8,18.5v3.498L11.998,22z"/>
	</g>
</g>
<g id="Lamp">
</g>
<g id="Bed_1">
</g>
<g id="Bunk_Beds">
</g>
<g id="Bed_2">
</g>
<g id="Bed_3">
</g>
<g id="Bed_4">
</g>
<g id="Bed_5">
</g>
<g id="Table_1">
</g>
<g id="Table_2">
</g>
<g id="Table_3">
</g>
<g id="Table_4">
</g>
<g id="Rug_1">
</g>
<g id="Rug_2">
</g>
<g id="Rug_3">
</g>
<g id="Tub_1">
</g>
<g id="Tub_2">
</g>
<g id="Jacuzzi">
</g>
<g id="Corner_Tub">
</g>
<g id="Shower_Tray">
</g>
<g id="Sink_1">
</g>
<g id="Sink_2">
</g>
<g id="Toilette">
</g>
<g id="Stove">
</g>
<g id="Kitchen_Sink">
</g>
<g id="Island">
</g>
<g id="Eat-in_Kitchen">
</g>
<g id="Tv_Stand">
</g>
</svg>
