<?xml version="1.0" encoding="iso-8859-1"?>
<!-- Generator: Adobe Illustrator 19.2.1, SVG Export Plug-In . SVG Version: 6.00 Build 0)  -->
<svg version="1.1" xmlns="http://www.w3.org/2000/svg" xmlns:xlink="http://www.w3.org/1999/xlink" x="0px" y="0px"
	 viewBox="0 0 24 24" style="enable-background:new 0 0 24 24;" xml:space="preserve">
<g id="Add_Users">
</g>
<g id="Remove_Users">
</g>
<g id="Delete_Users">
</g>
<g id="Done_3">
</g>
<g id="At_Symbol_3">
</g>
<g id="Question_3">
</g>
<g id="Answer_3">
</g>
<g id="Bring_Up_3">
</g>
<g id="Bring_Down_3">
</g>
<g id="Dismiss_Users">
</g>
<g id="Users_Speed_3">
</g>
<g id="Users_Settings">
</g>
<g id="Refresh_Users">
</g>
<g id="Time_3">
</g>
<g id="Dollar_3">
</g>
<g id="Euro_3">
</g>
<g id="Pound_3">
</g>
<g id="Bitcoin_3">
</g>
<g id="Global_Users">
</g>
<g id="Waiting_Users">
</g>
<g id="Writing_Users">
</g>
<g id="Search_Users">
</g>
<g id="Lock_Users">
</g>
<g id="Mark_Users">
</g>
<g id="Share_Users">
</g>
<g id="Shopping_3">
</g>
<g id="Download_3">
</g>
<g id="Upload_3">
</g>
<g id="Users_Statistics">
</g>
<g id="Users_Defense">
</g>
<g id="Car_3">
</g>
<g id="Home_3">
</g>
<g id="Park_3">
</g>
<g id="Recicle_Users">
</g>
<g id="Wifi_3">
</g>
<g id="Attach_3">
</g>
<g id="Disabled_Users">
	<g>
		<path d="M21.497,21.023c-0.261-0.093-0.546,0.046-0.638,0.306C20.509,22.329,19.56,23,18.5,23c-1.379,0-2.5-1.121-2.5-2.5
			c0-0.895,0.482-1.727,1.26-2.172c0.24-0.137,0.323-0.442,0.186-0.682c-0.137-0.24-0.444-0.323-0.682-0.186
			C15.676,18.083,15,19.247,15,20.5c0,1.93,1.57,3.5,3.5,3.5c1.484,0,2.812-0.94,3.303-2.339
			C21.894,21.4,21.757,21.115,21.497,21.023z"/>
		<path d="M23.975,22.342l-1-3C22.906,19.138,22.715,19,22.5,19h-2.64l-0.333-1H21.5c0.276,0,0.5-0.224,0.5-0.5S21.776,17,21.5,17
			h-2.306l-0.219-0.658c-0.088-0.262-0.369-0.404-0.633-0.316c-0.262,0.088-0.403,0.371-0.316,0.633l1,3
			C19.094,19.862,19.285,20,19.5,20h2.64l0.886,2.658C23.096,22.867,23.291,23,23.5,23c0.053,0,0.105-0.008,0.158-0.025
			C23.92,22.887,24.061,22.604,23.975,22.342z"/>
		<circle cx="18" cy="14.5" r="1"/>
		<path d="M15.004,8.17c-0.07,0.569-0.355,1.085-0.801,1.452c-0.079,0.064-0.136,0.152-0.164,0.25
			c-0.142,0.503-0.348,0.991-0.613,1.451c-0.079,0.136-0.089,0.301-0.027,0.445c0.061,0.145,0.187,0.252,0.339,0.29l1.262,0.315
			c0.419,0.104,0.844,0.28,1.301,0.537c0.076,0.043,0.161,0.064,0.245,0.064c0.104,0,0.206-0.032,0.293-0.095
			c0.186-0.134,0.4-0.235,0.64-0.301c0.262-0.072,0.418-0.34,0.353-0.603l-0.035-0.141c0.73-0.746,1.234-1.747,1.402-2.777
			c0.431-0.154,0.756-0.539,0.814-1.015l0.185-1.479C20.24,6.217,20.132,5.864,19.9,5.6c-0.113-0.13-0.252-0.234-0.405-0.306
			l0.061-1.251l0.243-0.244c0.449-0.477,0.822-1.291,0.054-2.464C19.273,0.449,18.295,0,16.944,0c-0.496,0-1.156,0.03-1.865,0.271
			c-0.142,0.048-0.255,0.157-0.308,0.298c-0.053,0.14-0.04,0.297,0.035,0.426c0.683,1.181,0.633,2.394-0.138,3.328
			c-0.154,0.187-0.152,0.457,0.004,0.642c0.405,0.478,0.593,1.106,0.516,1.727L15.004,8.17z"/>
		<path d="M16.244,16.604l-0.173-0.454l0.003-0.002l0.271,0.411c0.134-0.071,0.228-0.2,0.256-0.349
			c0.028-0.149-0.013-0.303-0.111-0.418C16.266,15.531,16,15.096,16,14.5c0-0.057,0.009-0.111,0.027-0.243
			c0.025-0.203-0.075-0.401-0.255-0.501c-0.354-0.194-0.688-0.33-1.018-0.412l-2.756-0.69l-0.203-0.816
			c0.729-0.746,1.233-1.747,1.401-2.777c0.431-0.154,0.756-0.539,0.814-1.015l0.185-1.479C14.24,6.217,14.132,5.864,13.9,5.6
			c-0.113-0.13-0.252-0.234-0.405-0.306l0.061-1.251l0.243-0.244c0.449-0.477,0.822-1.291,0.054-2.464
			C13.273,0.449,12.295,0,10.944,0c-0.521,0-1.716,0-2.843,0.742C4.855,0.823,4.434,2.429,4.434,3.826
			c0,0.317,0.069,0.984,0.122,1.442C4.385,5.341,4.229,5.45,4.103,5.594c-0.235,0.266-0.345,0.621-0.3,0.973l0.185,1.479
			c0.063,0.508,0.43,0.912,0.903,1.042c0.167,0.987,0.645,1.952,1.33,2.683l-0.221,0.884l-2.756,0.688
			C1.334,13.819,0,15.528,0,17.498c0,0.276,0.224,0.5,0.5,0.5L14.506,18c0.157,0,0.306-0.074,0.399-0.2
			C15.28,17.301,15.738,16.895,16.244,16.604z"/>
	</g>
</g>
<g id="Users_Card">
</g>
<g id="Gaming_3">
</g>
<g id="Cloud_3">
</g>
<g id="Database_3">
</g>
<g id="Copyright_3">
</g>
<g id="No_Copzright_3">
</g>
<g id="Creative_Commun_3">
</g>
<g id="Eco-Friendly_3">
</g>
<g id="Percentage_3">
</g>
<g id="Users_Love">
</g>
<g id="Users_Place">
</g>
<g id="Users_Key">
</g>
<g id="Sleeping_3">
</g>
</svg>
