<?xml version="1.0" encoding="iso-8859-1"?>
<!-- Generator: Adobe Illustrator 19.2.1, SVG Export Plug-In . SVG Version: 6.00 Build 0)  -->
<svg version="1.1" xmlns="http://www.w3.org/2000/svg" xmlns:xlink="http://www.w3.org/1999/xlink" x="0px" y="0px"
	 viewBox="0 0 30 30" style="enable-background:new 0 0 30 30;" xml:space="preserve">
<g id="Add_User">
</g>
<g id="Remove_User">
</g>
<g id="Delete_User">
</g>
<g id="Done">
</g>
<g id="At_Symbol">
</g>
<g id="Question">
</g>
<g id="Answer">
</g>
<g id="Bring_Up">
</g>
<g id="Bring_Down">
</g>
<g id="Dismiss_User">
</g>
<g id="User_Speed">
</g>
<g id="User_Settings">
</g>
<g id="User_Refresh">
</g>
<g id="User_Time">
</g>
<g id="Dollar">
</g>
<g id="Euro">
</g>
<g id="Pound">
</g>
<g id="Bitcoin">
</g>
<g id="Global_User">
</g>
<g id="Waiting_User">
</g>
<g id="Writing_User_2">
</g>
<g id="Search_User">
</g>
<g id="Lock_User">
</g>
<g id="Mark_User">
</g>
<g id="Share_User">
</g>
<g id="Shopping">
</g>
<g id="User_Download">
</g>
<g id="User_Upload">
</g>
<g id="User_Statistics">
</g>
<g id="User_Defense">
</g>
<g id="User_Car">
</g>
<g id="User_Home">
</g>
<g id="Park">
</g>
<g id="Recicle_User">
</g>
<g id="Wifi">
</g>
<g id="Attach_User">
</g>
<g id="Disabled_User">
	<g>
		<path d="M27.5,25c-0.796,0-1.499,0.381-1.957,0.963l-5.638-2.819C19.961,22.937,20,22.724,20,22.5c0-0.382-0.093-0.74-0.246-1.064
			l5.781-2.409C25.993,19.615,26.699,20,27.5,20c1.379,0,2.5-1.121,2.5-2.5S28.879,15,27.5,15S25,16.121,25,17.5
			c0,0.219,0.037,0.427,0.09,0.629l-5.782,2.409c-0.059,0.025-0.109,0.061-0.152,0.103C18.714,20.247,18.138,20,17.5,20
			c-1.379,0-2.5,1.121-2.5,2.5s1.121,2.5,2.5,2.5c0.796,0,1.499-0.381,1.957-0.963l5.638,2.819C25.039,27.063,25,27.276,25,27.5
			c0,1.379,1.121,2.5,2.5,2.5s2.5-1.121,2.5-2.5S28.879,25,27.5,25z"/>
		<path d="M24.024,27.718c-0.011-0.178-0.116-0.336-0.275-0.416l-3.826-1.913c-0.16-0.08-0.352-0.067-0.499,0.03
			C18.849,25.799,18.184,26,17.5,26c-1.93,0-3.5-1.57-3.5-3.5s1.57-3.5,3.443-3.504c0.179,0.027,0.384-0.041,0.495-0.182
			c0.095-0.12,0.129-0.277,0.094-0.426c-0.069-0.287-0.11-0.522-0.131-0.685c0.825-0.806,1.312-1.984,1.312-3.204
			c0-0.523,0.171-0.736,0.229-0.766c0.156-0.041,0.283-0.153,0.342-0.304c0.025-0.067,0.638-1.661,0.638-2.681
			c0-0.04-0.005-0.079-0.014-0.118c-0.064-0.265-0.25-0.66-0.591-0.868V6.375c0-1.992-0.593-2.782-1.212-3.243
			C18.536,2.157,17.626,0,14,0c-3.771,0-6.61,3.791-6.61,6.25c0,1.134-0.047,2.056-0.081,2.729C7.296,9.226,7.284,9.444,7.277,9.634
			C6.932,9.84,6.744,10.24,6.679,10.507c-0.009,0.039-0.014,0.078-0.014,0.118c0,1.02,0.612,2.613,0.638,2.681
			c0.059,0.15,0.154,0.253,0.311,0.294c0.09,0.039,0.26,0.252,0.26,0.775c0,1.43,1.367,2.83,1.932,3.347
			c-0.024,0.867-0.208,3.236-1.482,3.792l-5.614,1.365c-1.345,0.465-2.352,1.587-2.694,3.004C0.005,25.921,0,25.96,0,26v3.5
			C0,29.776,0.224,30,0.5,30h23.557c0.179,0,0.345-0.096,0.434-0.251s0.089-0.347-0.002-0.501
			C24.215,28.779,24.059,28.265,24.024,27.718z"/>
	</g>
</g>
<g id="User_Card">
</g>
<g id="Gaming">
</g>
<g id="User_Cloud">
</g>
<g id="User_Database">
</g>
<g id="Copyright">
</g>
<g id="No_Copyright">
</g>
<g id="Creative_Commun">
</g>
<g id="Eco-Friendly">
</g>
<g id="Percentage">
</g>
<g id="User_Love">
</g>
<g id="User_Place">
</g>
<g id="User_Key">
</g>
<g id="Sleeping">
</g>
<g id="Add_User_2">
</g>
<g id="Remove_User_2">
</g>
<g id="Delete_User_2">
</g>
<g id="Done_2">
</g>
<g id="At_Symbol_2">
</g>
<g id="Question_2">
</g>
<g id="Answer_2">
</g>
<g id="Bring_Up_2">
</g>
<g id="Bring_Down_2">
</g>
<g id="Dismiss_User_2">
</g>
<g id="User_Speed_2">
</g>
<g id="User_Settings_2">
</g>
<g id="Refresh_2">
</g>
<g id="Time_2">
</g>
<g id="Dollar_2">
</g>
<g id="Euro_2">
</g>
<g id="Pound_2">
</g>
<g id="Bitcoin_2">
</g>
<g id="Global_User_2">
</g>
<g id="Waiting_User_2">
</g>
<g id="Writing_User">
</g>
<g id="Search_User_2">
</g>
<g id="Lock_User_2">
</g>
<g id="Mark_User_2">
</g>
<g id="Share_User_2">
</g>
<g id="Shopping_2">
</g>
<g id="Download_2">
</g>
<g id="Upload_2">
</g>
<g id="User_Statistics_2">
</g>
<g id="User_Defense_2">
</g>
<g id="Car_2">
</g>
<g id="Home_2">
</g>
<g id="Park_2">
</g>
<g id="Recicle_User_2">
</g>
<g id="User_Wifi">
</g>
<g id="Attach_2">
</g>
<g id="Disabled_User_2">
</g>
<g id="User_Card_2">
</g>
<g id="Gaming_2">
</g>
<g id="Cloud_2">
</g>
<g id="Database_2">
</g>
<g id="Copyright_2">
</g>
<g id="No_Copyright_2">
</g>
<g id="Creative_Commun_2">
</g>
<g id="Eco-Friendly_2">
</g>
<g id="Percentage_2">
</g>
<g id="User_Love_2">
</g>
<g id="User_Rate_2">
</g>
<g id="User_Key_2">
</g>
<g id="Sleeping_2">
</g>
</svg>
