<?xml version="1.0" encoding="iso-8859-1"?>
<!-- Generator: Adobe Illustrator 19.2.1, SVG Export Plug-In . SVG Version: 6.00 Build 0)  -->
<svg version="1.1" xmlns="http://www.w3.org/2000/svg" xmlns:xlink="http://www.w3.org/1999/xlink" x="0px" y="0px"
	 viewBox="0 0 30 30" style="enable-background:new 0 0 30 30;" xml:space="preserve">
<g id="Add_Users">
</g>
<g id="Remove_Users">
</g>
<g id="Delete_Users">
</g>
<g id="Done_3">
</g>
<g id="At_Symbol_3">
</g>
<g id="Question_3">
</g>
<g id="Answer_3">
</g>
<g id="Bring_Up_3">
</g>
<g id="Bring_Down_3">
</g>
<g id="Dismiss_Users">
</g>
<g id="Users_Speed_3">
</g>
<g id="Users_Settings">
</g>
<g id="Refresh_Users">
</g>
<g id="Time_3">
</g>
<g id="Dollar_3">
</g>
<g id="Euro_3">
</g>
<g id="Pound_3">
</g>
<g id="Bitcoin_3">
</g>
<g id="Global_Users">
</g>
<g id="Waiting_Users">
</g>
<g id="Writing_Users">
</g>
<g id="Search_Users">
</g>
<g id="Lock_Users">
</g>
<g id="Mark_Users">
</g>
<g id="Share_Users">
</g>
<g id="Shopping_3">
</g>
<g id="Download_3">
</g>
<g id="Upload_3">
</g>
<g id="Users_Statistics">
</g>
<g id="Users_Defense">
</g>
<g id="Car_3">
</g>
<g id="Home_3">
</g>
<g id="Park_3">
</g>
<g id="Recicle_Users">
</g>
<g id="Wifi_3">
</g>
<g id="Attach_3">
</g>
<g id="Disabled_Users">
	<g>
		<path d="M28.985,24.379C28.93,24.156,28.729,24,28.5,24h-3.691l-1-2H26.5c0.276,0,0.5-0.224,0.5-0.5S26.776,21,26.5,21h-3.191
			l-0.362-0.724c-0.124-0.247-0.423-0.348-0.671-0.224c-0.247,0.124-0.347,0.424-0.224,0.671l2,4C24.138,24.893,24.31,25,24.5,25
			h3.609l0.905,3.621C29.071,28.849,29.275,29,29.5,29c0.04,0,0.081-0.005,0.121-0.015c0.269-0.067,0.431-0.339,0.364-0.606
			L28.985,24.379z"/>
		<path d="M20.5,18.5c0,0.552,0.448,1,1,1s1-0.448,1-1s-0.448-1-1-1S20.5,17.948,20.5,18.5z M21.5,18.5L21.5,18.5H22H21.5z"/>
		<path d="M27.324,26.741c-0.252-0.117-0.548-0.01-0.665,0.239C26.082,28.207,24.843,29,23.5,29c-1.93,0-3.5-1.57-3.5-3.5
			c0-1.122,0.527-2.15,1.446-2.82c0.223-0.163,0.271-0.476,0.109-0.699c-0.164-0.224-0.477-0.271-0.699-0.109
			C19.694,22.72,19,24.076,19,25.5c0,2.481,2.019,4.5,4.5,4.5c1.729,0,3.323-1.019,4.063-2.594
			C27.682,27.156,27.574,26.858,27.324,26.741z"/>
		<path d="M18.065,9.656c-0.082,0.642-0.434,1.231-0.964,1.617c-0.093,0.067-0.159,0.163-0.188,0.273
			c-0.207,0.763-0.557,1.516-1.012,2.177c-0.093,0.136-0.113,0.308-0.055,0.462c0.059,0.153,0.189,0.269,0.349,0.308l2.117,0.514
			c0.91,0.22,1.746,0.688,2.483,1.392c0.11,0.106,0.309,0.147,0.461,0.126c0.08-0.012,0.16-0.024,0.243-0.024c1.103,0,2,0.897,2,2
			c0,0.146-0.021,0.299-0.067,0.48c-0.042,0.17,0.007,0.35,0.13,0.475c0.089,0.089,0.166,0.188,0.228,0.296
			C23.879,19.905,24.044,20,24.223,20H26.5c0.827,0,1.5,0.673,1.5,1.5c0,0.276,0.224,0.5,0.5,0.5h1c0.276,0,0.5-0.224,0.5-0.5
			c0-2.199-1.5-4.936-3.923-5.522l-3.473-0.841l-0.279-1.084c0.922-0.896,1.556-2.115,1.753-3.372
			c0.523-0.154,0.925-0.599,0.996-1.152l0.229-1.772c0.049-0.385-0.069-0.774-0.326-1.069c-0.149-0.172-0.337-0.303-0.546-0.386
			l0.08-1.595l0.327-0.317c0.53-0.547,0.971-1.484,0.055-2.84C24.199,0.521,23.024,0,21.401,0c-0.897,0-2.076,0.086-3.236,0.752
			c-0.234,0.135-0.319,0.43-0.192,0.668c0.701,1.318,0.573,2.599-0.359,3.604c-0.081,0.087-0.128,0.199-0.133,0.316l-0.009,0.19
			c-0.007,0.141,0.046,0.277,0.146,0.377c0.04,0.04,0.078,0.082,0.114,0.122c0.443,0.51,0.648,1.186,0.563,1.854L18.065,9.656z"/>
		<path d="M19.424,21.835c0.275-0.306,0.552-0.558,0.844-0.771l0.104-0.059c0.146-0.088,0.237-0.245,0.241-0.416
			s-0.08-0.332-0.222-0.427C19.833,19.789,19.5,19.167,19.5,18.5c0-0.371,0.108-0.738,0.313-1.062
			c0.138-0.218,0.087-0.505-0.116-0.663c-0.506-0.391-1.051-0.659-1.62-0.798l-3.473-0.841l-0.279-1.084
			c0.922-0.896,1.556-2.115,1.753-3.372c0.523-0.154,0.925-0.599,0.996-1.152l0.229-1.772c0.049-0.385-0.069-0.774-0.326-1.069
			c-0.149-0.172-0.337-0.303-0.546-0.386l0.08-1.595l0.327-0.317c0.53-0.547,0.971-1.484,0.055-2.84C16.199,0.521,15.024,0,13.401,0
			c-0.637,0-2.102,0-3.47,0.888C6.012,0.97,5.478,2.749,5.478,4.484c0,0.389,0.094,1.244,0.159,1.789
			C5.404,6.353,5.193,6.491,5.028,6.679C4.767,6.976,4.647,7.368,4.697,7.757l0.229,1.771c0.076,0.592,0.529,1.06,1.104,1.181
			c0.196,1.205,0.797,2.385,1.665,3.266l-0.3,1.163l-3.472,0.841C1.5,16.564,0,19.301,0,21.5C0,21.776,0.224,22,0.5,22h18.553
			C19.194,22,19.329,21.939,19.424,21.835z"/>
	</g>
</g>
<g id="Users_Card">
</g>
<g id="Gaming_3">
</g>
<g id="Cloud_3">
</g>
<g id="Database_3">
</g>
<g id="Copyright_3">
</g>
<g id="No_Copzright_3">
</g>
<g id="Creative_Commun_3">
</g>
<g id="Eco-Friendly_3">
</g>
<g id="Percentage_3">
</g>
<g id="Users_Love">
</g>
<g id="Users_Place">
</g>
<g id="Users_Key">
</g>
<g id="Sleeping_3">
</g>
</svg>
