<?xml version="1.0" encoding="iso-8859-1"?>
<!-- Generator: Adobe Illustrator 19.2.1, SVG Export Plug-In . SVG Version: 6.00 Build 0)  -->
<svg version="1.1" xmlns="http://www.w3.org/2000/svg" xmlns:xlink="http://www.w3.org/1999/xlink" x="0px" y="0px"
	 viewBox="0 0 24 24" style="enable-background:new 0 0 24 24;" xml:space="preserve">
<g id="Add_User">
</g>
<g id="Remove_User">
</g>
<g id="Delete_User">
</g>
<g id="Done">
</g>
<g id="At_Symbol">
</g>
<g id="Question">
</g>
<g id="Answer">
</g>
<g id="Bring_Up">
</g>
<g id="Bring_Down">
</g>
<g id="Dismiss_User">
</g>
<g id="User_Speed">
</g>
<g id="User_Settings">
</g>
<g id="User_Refresh">
</g>
<g id="User_Time">
</g>
<g id="Dollar">
</g>
<g id="Euro">
</g>
<g id="Pound">
</g>
<g id="Bitcoin">
</g>
<g id="Global_User">
</g>
<g id="Waiting_User">
</g>
<g id="Writing_User_2">
</g>
<g id="Search_User">
</g>
<g id="Lock_User">
</g>
<g id="Mark_User">
</g>
<g id="Share_User">
</g>
<g id="Shopping">
</g>
<g id="User_Download">
</g>
<g id="User_Upload">
</g>
<g id="User_Statistics">
</g>
<g id="User_Defense">
</g>
<g id="User_Car">
</g>
<g id="User_Home">
</g>
<g id="Park">
</g>
<g id="Recicle_User">
</g>
<g id="Wifi">
</g>
<g id="Attach_User">
</g>
<g id="Disabled_User">
	<g>
		<path d="M21.492,21.023c-0.261-0.093-0.546,0.045-0.638,0.306c-0.351,1-1.299,1.671-2.359,1.671c-1.379,0-2.5-1.122-2.5-2.5
			c0-0.895,0.482-1.727,1.26-2.171c0.24-0.137,0.323-0.442,0.186-0.682c-0.137-0.242-0.444-0.323-0.682-0.186
			c-1.088,0.622-1.764,1.787-1.764,3.04c0,1.93,1.57,3.5,3.5,3.5c1.484,0,2.812-0.94,3.303-2.34
			C21.89,21.4,21.752,21.114,21.492,21.023z"/>
		<path d="M23.97,22.342l-1-3C22.901,19.138,22.71,19,22.495,19h-2.64l-0.333-1h1.973c0.276,0,0.5-0.224,0.5-0.5s-0.224-0.5-0.5-0.5
			h-2.306l-0.219-0.658c-0.088-0.263-0.369-0.403-0.633-0.316c-0.262,0.087-0.403,0.37-0.316,0.632l1,3
			C19.089,19.862,19.28,20,19.495,20h2.64l0.886,2.658C23.091,22.868,23.286,23,23.495,23c0.053,0,0.105-0.008,0.158-0.026
			C23.915,22.887,24.057,22.604,23.97,22.342z"/>
		<path d="M13.995,20.5c0-0.96,0.321-1.919,0.905-2.699c0.101-0.134,0.124-0.31,0.068-0.467l-0.409-1.639
			c0.877-0.906,1.506-2.102,1.77-3.343c0.093-0.075,0.158-0.184,0.178-0.309c0.005-0.033,0.01-0.065,0.015-0.097
			c0.571-0.158,1.013-0.647,1.089-1.26l0.25-2c0.053-0.422-0.077-0.849-0.357-1.169c-0.164-0.188-0.371-0.33-0.6-0.417l0.092-1.883
			l0.374-0.374c0.563-0.6,1.03-1.626,0.054-3.117C16.674,0.581,15.399,0,13.636,0c-0.695,0-2.298,0-3.791,1.002
			C5.584,1.091,5.005,3.07,5.005,5c0,0.449,0.109,1.46,0.181,2.07c-0.257,0.081-0.49,0.231-0.672,0.437
			C4.229,7.829,4.097,8.259,4.149,8.686l0.25,2c0.081,0.652,0.577,1.165,1.202,1.287c0.208,1.375,0.873,2.724,1.839,3.722
			l-0.348,1.393l-3.83,0.958C1.07,18.593,0.005,20.377,0.005,23.5c0,0.133,0.053,0.26,0.146,0.354C0.245,23.947,0.372,24,0.505,24
			l14.016-0.001c0.189,0,0.363-0.107,0.447-0.277c0.085-0.17,0.065-0.373-0.049-0.524C14.314,22.399,13.995,21.467,13.995,20.5z"/>
		<circle cx="17.995" cy="14.5" r="1"/>
	</g>
</g>
<g id="User_Card">
</g>
<g id="Gaming">
</g>
<g id="User_Cloud">
</g>
<g id="User_Database">
</g>
<g id="Copyright">
</g>
<g id="No_Copyright">
</g>
<g id="Creative_Commun">
</g>
<g id="Eco-Friendly">
</g>
<g id="Percentage">
</g>
<g id="User_Love">
</g>
<g id="User_Place">
</g>
<g id="User_Key">
</g>
<g id="Sleeping">
</g>
<g id="Add_User_2">
</g>
<g id="Remove_User_2">
</g>
<g id="Delete_User_2">
</g>
<g id="Done_2">
</g>
<g id="At_Symbol_2">
</g>
<g id="Question_2">
</g>
<g id="Answer_2">
</g>
<g id="Bring_Up_2">
</g>
<g id="Bring_Down_2">
</g>
<g id="Dismiss_User_2">
</g>
<g id="User_Speed_2">
</g>
<g id="User_Settings_2">
</g>
<g id="Refresh_2">
</g>
<g id="Time_2">
</g>
<g id="Dollar_2">
</g>
<g id="Euro_2">
</g>
<g id="Pound_2">
</g>
<g id="Bitcoin_2">
</g>
<g id="Global_User_2">
</g>
<g id="Waiting_User_2">
</g>
<g id="Writing_User">
</g>
<g id="Search_User_2">
</g>
<g id="Lock_User_2">
</g>
<g id="Mark_User_2">
</g>
<g id="Share_User_2">
</g>
<g id="Shopping_2">
</g>
<g id="Download_2">
</g>
<g id="Upload_2">
</g>
<g id="User_Statistics_2">
</g>
<g id="User_Defense_2">
</g>
<g id="Car_2">
</g>
<g id="Home_2">
</g>
<g id="Park_2">
</g>
<g id="Recicle_User_2">
</g>
<g id="User_Wifi">
</g>
<g id="Attach_2">
</g>
<g id="Disabled_User_2">
</g>
<g id="User_Card_2">
</g>
<g id="Gaming_2">
</g>
<g id="Cloud_2">
</g>
<g id="Database_2">
</g>
<g id="Copyright_2">
</g>
<g id="No_Copyright_2">
</g>
<g id="Creative_Commun_2">
</g>
<g id="Eco-Friendly_2">
</g>
<g id="Percentage_2">
</g>
<g id="User_Love_2">
</g>
<g id="User_Rate_2">
</g>
<g id="User_Key_2">
</g>
<g id="Sleeping_2">
</g>
</svg>
