<?xml version="1.0" encoding="iso-8859-1"?>
<!-- Generator: Adobe Illustrator 19.2.1, SVG Export Plug-In . SVG Version: 6.00 Build 0)  -->
<svg version="1.1" xmlns="http://www.w3.org/2000/svg" xmlns:xlink="http://www.w3.org/1999/xlink" x="0px" y="0px"
	 viewBox="0 0 30 30" style="enable-background:new 0 0 30 30;" xml:space="preserve">
<g id="Event">
</g>
<g id="Event_2">
</g>
<g id="Add_Event">
</g>
<g id="Remove_Event">
</g>
<g id="Event_Reminder">
</g>
<g id="Wine_Glass">
</g>
<g id="Toast">
</g>
<g id="Champagne">
</g>
<g id="Champagne_Open">
</g>
<g id="Alcohol_Drink">
</g>
<g id="Beer_Glass">
</g>
<g id="Party_Cake">
</g>
<g id="Pizza_Food">
</g>
<g id="Disco_Ball">
	<g>
		<g>
			<path d="M14.5,3C14.224,3,14,2.776,14,2.5v-2C14,0.224,14.224,0,14.5,0S15,0.224,15,0.5v2C15,2.776,14.776,3,14.5,3z"/>
		</g>
		<g>
			<path d="M14.5,29c-0.276,0-0.5-0.224-0.5-0.5v-2c0-0.276,0.224-0.5,0.5-0.5s0.5,0.224,0.5,0.5v2C15,28.776,14.776,29,14.5,29z"/>
		</g>
		<g>
			<path d="M25.914,24.414c-0.128,0-0.256-0.049-0.354-0.146l-1.414-1.414c-0.195-0.195-0.195-0.512,0-0.707s0.512-0.195,0.707,0
				l1.414,1.414c0.195,0.195,0.195,0.512,0,0.707C26.17,24.365,26.042,24.414,25.914,24.414z"/>
		</g>
		<g>
			<path d="M28.5,15h-2c-0.276,0-0.5-0.224-0.5-0.5s0.224-0.5,0.5-0.5h2c0.276,0,0.5,0.224,0.5,0.5S28.776,15,28.5,15z"/>
		</g>
		<g>
			<path d="M2.5,15h-2C0.224,15,0,14.776,0,14.5S0.224,14,0.5,14h2C2.776,14,3,14.224,3,14.5S2.776,15,2.5,15z"/>
		</g>
		<g>
			<path d="M3,24.5c-0.128,0-0.256-0.049-0.354-0.146c-0.195-0.195-0.195-0.512,0-0.707l1.5-1.5c0.195-0.195,0.512-0.195,0.707,0
				s0.195,0.512,0,0.707l-1.5,1.5C3.256,24.451,3.128,24.5,3,24.5z"/>
		</g>
		<g>
			<path d="M24.5,7c-0.128,0-0.256-0.049-0.354-0.146c-0.195-0.195-0.195-0.512,0-0.707l1.414-1.414
				c0.195-0.195,0.512-0.195,0.707,0s0.195,0.512,0,0.707l-1.414,1.414C24.756,6.951,24.628,7,24.5,7z"/>
		</g>
		<g>
			<path d="M4.5,7C4.372,7,4.244,6.951,4.146,6.854l-1.5-1.5c-0.195-0.195-0.195-0.512,0-0.707s0.512-0.195,0.707,0l1.5,1.5
				c0.195,0.195,0.195,0.512,0,0.707C4.756,6.951,4.628,7,4.5,7z"/>
		</g>
		<g>
			<path d="M4,14.5c0,1.233,2.393,2.569,6.17,3.172C10.058,16.63,10,15.559,10,14.5s0.058-2.13,0.17-3.172
				C6.393,11.931,4,13.267,4,14.5z"/>
			<path d="M14.5,10c1.059,0,2.13,0.058,3.172,0.17C17.069,6.393,15.733,4,14.5,4s-2.569,2.393-3.172,6.17
				C12.37,10.058,13.441,10,14.5,10z"/>
			<path d="M25,14.5c0-1.233-2.393-2.569-6.17-3.172C18.942,12.37,19,13.441,19,14.5s-0.058,2.13-0.17,3.172
				C22.607,17.069,25,15.733,25,14.5z"/>
			<path d="M14.5,19c-1.059,0-2.13-0.058-3.172-0.17C11.931,22.607,13.267,25,14.5,25s2.569-2.393,3.172-6.17
				C16.63,18.942,15.559,19,14.5,19z"/>
			<path d="M17.813,11.187C16.787,11.068,15.678,11,14.5,11s-2.287,0.068-3.313,0.187C11.068,12.213,11,13.322,11,14.5
				s0.068,2.287,0.187,3.313C12.213,17.932,13.322,18,14.5,18s2.287-0.068,3.313-0.187C17.932,16.787,18,15.678,18,14.5
				S17.932,12.213,17.813,11.187z"/>
			<path d="M10.3,18.7c-2.534-0.371-4.78-1.086-6.091-2.115c0.834,4.12,4.086,7.372,8.206,8.206
				C11.387,23.479,10.672,21.234,10.3,18.7z"/>
			<path d="M18.7,18.7c-0.371,2.534-1.086,4.78-2.115,6.091c4.12-0.834,7.372-4.086,8.206-8.206
				C23.479,17.613,21.234,18.328,18.7,18.7z"/>
			<path d="M10.3,10.3c0.371-2.534,1.086-4.78,2.115-6.091c-4.12,0.834-7.372,4.086-8.206,8.206
				C5.521,11.387,7.766,10.672,10.3,10.3z"/>
			<path d="M18.7,10.3c2.534,0.371,4.78,1.086,6.091,2.115c-0.834-4.12-4.086-7.372-8.206-8.206
				C17.613,5.521,18.328,7.766,18.7,10.3z"/>
		</g>
	</g>
</g>
<g id="Equalizer">
</g>
<g id="DJ">
</g>
<g id="Tent">
</g>
<g id="Firework_1">
</g>
<g id="Firework_2">
</g>
<g id="Party_Glasses">
</g>
<g id="Barbeque">
</g>
<g id="Horn">
</g>
<g id="Speaker">
</g>
<g id="VIP">
</g>
<g id="Event_Ticket">
</g>
<g id="VIP_Ticket">
</g>
<g id="Popcorn">
</g>
<g id="Cord">
</g>
<g id="Invitation_1">
</g>
<g id="Invitation_2">
</g>
</svg>
