<?xml version="1.0" encoding="iso-8859-1"?>
<!-- Generator: Adobe Illustrator 19.2.1, SVG Export Plug-In . SVG Version: 6.00 Build 0)  -->
<svg version="1.1" xmlns="http://www.w3.org/2000/svg" xmlns:xlink="http://www.w3.org/1999/xlink" x="0px" y="0px"
	 viewBox="0 0 30 30" style="enable-background:new 0 0 30 30;" xml:space="preserve">
<g id="Man_1">
</g>
<g id="Woman_1">
</g>
<g id="Man_2">
</g>
<g id="Woman_2">
</g>
<g id="Bald_Man">
</g>
<g id="Man_Glasses">
</g>
<g id="Woman_Glasses">
</g>
<g id="Man_Beard">
</g>
<g id="Man_Cap">
</g>
<g id="Woman_Cap">
</g>
<g id="Man_3">
</g>
<g id="Woman_3">
</g>
<g id="Men_4">
</g>
<g id="Woman_4">
</g>
<g id="Business_Man_1">
</g>
<g id="Business_Woman_1">
</g>
<g id="Firefigyhter">
</g>
<g id="Policeman">
</g>
<g id="Criminal">
</g>
<g id="Prisoner">
</g>
<g id="Woodsman">
</g>
<g id="Dispatcher_1">
</g>
<g id="Dispatcher_2">
	<g>
		<path d="M11.5,14h1c0.276,0,0.5-0.224,0.5-0.5S12.776,13,12.5,13h-1c-0.276,0-0.5,0.224-0.5,0.5S11.224,14,11.5,14z"/>
		<path d="M17.5,14h1c0.276,0,0.5-0.224,0.5-0.5S18.776,13,18.5,13h-1c-0.276,0-0.5,0.224-0.5,0.5S17.224,14,17.5,14z"/>
		<path d="M15,0C6.729,0,0,6.729,0,15c0,8.271,6.729,15,15,15c8.271,0,15-6.729,15-15C30,6.729,23.271,0,15,0z M15,1
			c7.72,0,14,6.28,14,14c0,3.198-1.09,6.14-2.901,8.499c-0.461-0.193-2.228-0.899-2.441-0.974l-1.493-0.497
			c-0.274-0.096-0.755-0.432-1.141-0.744l3.584-0.796c0.263-0.059,0.432-0.313,0.384-0.578l-0.995-5.464
			c-0.008-0.302-0.079-0.941-0.111-1.218C23.935,13.075,24,12.813,24,12.5C24,7.439,19.794,3,15,3c-4.794,0-9,4.439-9,9.5
			c0,0.313,0.065,0.575,0.115,0.728c-0.033,0.278-0.104,0.921-0.112,1.221L5.008,19.91c-0.048,0.265,0.121,0.52,0.383,0.578
			l3.582,0.796c-0.399,0.322-0.868,0.649-1.132,0.741l-1.507,0.503c-0.209,0.073-1.974,0.778-2.434,0.971C2.09,21.14,1,18.198,1,15
			C1,7.28,7.28,1,15,1z M7.099,13.071c0.609,0.128,1.191,0.383,1.199,0.386c0.151,0.068,0.327,0.056,0.467-0.033
			C8.905,13.337,8.993,13.186,9,13.021C9.037,12.105,9.292,11.104,9.5,11c0.817,0,3.342-0.569,4.206-2.257
			c1.188,1.108,3.715,2.142,6.351,2.249c0.21,0.987,0.928,2.131,1.022,2.278c0.095,0.147,0.255,0.23,0.421,0.23
			c0.07,0,0.141-0.015,0.208-0.045c0.196-0.09,0.691-0.278,1.194-0.382c-0.01,0.052-0.029,0.103-0.023,0.156
			C22.926,13.617,23,14.308,23,14.509c0,1.415-0.532,2.179-0.75,2.179c-0.025,0-0.096-0.029-0.195-0.139
			c-0.122-0.132-0.308-0.188-0.477-0.15c-0.175,0.038-0.315,0.167-0.369,0.337c-0.082,0.258-0.186,0.5-0.292,0.74
			c-0.878,1.407-2.804,1.516-4.134,1.523C16.432,18.641,15.701,18.5,15,18.5c-0.967,0-2,0.263-2,1s1.033,1,2,1
			c0.704,0,1.438-0.142,1.788-0.502c0.757-0.004,1.738-0.041,2.683-0.322c-0.96,1.038-2.104,1.759-3.132,2.083
			c-0.085,0.029-0.17,0.057-0.245,0.078c-0.12,0.029-0.239,0.06-0.366,0.082C15.43,21.975,15.183,22,14.948,22
			c-0.234,0-0.482-0.025-0.785-0.081c-0.122-0.021-0.241-0.052-0.35-0.079c-0.086-0.023-0.171-0.051-0.266-0.083
			c-2.136-0.676-4.002-2.646-4.756-5.021c-0.054-0.17-0.194-0.298-0.369-0.337c-0.173-0.039-0.355,0.019-0.476,0.15
			c-0.101,0.109-0.171,0.139-0.196,0.139c-0.218,0-0.75-0.764-0.75-2.179c0-0.201,0.074-0.891,0.122-1.279
			C7.128,13.177,7.11,13.124,7.099,13.071z M13.234,22.706c0.104,0.036,0.208,0.069,0.324,0.101
			c0.144,0.037,0.287,0.071,0.428,0.096C14.346,22.969,14.651,23,14.948,23s0.603-0.031,0.958-0.097
			c0.146-0.025,0.289-0.06,0.443-0.099c0.105-0.029,0.208-0.063,0.302-0.095c0.798-0.252,1.556-0.658,2.253-1.168L15,28.481
			l-3.858-6.859C11.795,22.095,12.498,22.473,13.234,22.706z M4.569,24.305c0.651-0.265,1.941-0.779,2.089-0.831l1.506-0.503
			c0.339-0.118,0.747-0.385,1.082-0.634L7.1,25.2c-0.088,0.116-0.12,0.266-0.088,0.408c0.032,0.143,0.124,0.264,0.253,0.333
			l5.315,2.834C9.417,28.221,6.623,26.605,4.569,24.305z M17.421,28.776l5.315-2.834c0.129-0.069,0.221-0.19,0.253-0.333
			c0.031-0.143-0.001-0.292-0.088-0.408l-2.145-2.86c0.333,0.245,0.743,0.515,1.087,0.635l1.493,0.497
			c0.152,0.054,1.444,0.569,2.096,0.834C23.377,26.605,20.583,28.221,17.421,28.776z"/>
	</g>
</g>
<g id="Soldier">
</g>
<g id="Astronaut">
</g>
<g id="Hipster_Guy">
</g>
<g id="Hipster_Girl">
</g>
<g id="Worker">
</g>
<g id="Old_Man">
</g>
<g id="Punk">
</g>
<g id="Diver">
</g>
<g id="Artist">
</g>
<g id="Dictator">
</g>
<g id="Man_Hat">
</g>
<g id="Woman_Hat">
</g>
<g id="Graduated_Man">
</g>
<g id="Graduated_Woman">
</g>
<g id="Avatar_Chef">
</g>
<g id="Waiter">
</g>
<g id="Waitress">
</g>
<g id="Bllboy">
</g>
<g id="Santa">
</g>
<g id="Doctor">
</g>
<g id="Nurse">
</g>
<g id="Captain">
</g>
<g id="Farmer">
</g>
<g id="Maid">
</g>
<g id="Business_Man_2">
</g>
<g id="Business_Woman_2">
</g>
<g id="Cowboy">
</g>
<g id="Anonymus">
</g>
<g id="Batman">
</g>
<g id="Superman">
</g>
<g id="Captain_America">
</g>
<g id="Darth_Vader">
</g>
<g id="Harry_Potter">
</g>
<g id="Anonymus_2">
</g>
<g id="Scream">
</g>
<g id="Jason">
</g>
<g id="Charlie_Chaplin">
</g>
</svg>
