<?xml version="1.0" encoding="iso-8859-1"?>
<!-- Generator: Adobe Illustrator 19.2.1, SVG Export Plug-In . SVG Version: 6.00 Build 0)  -->
<svg version="1.1" xmlns="http://www.w3.org/2000/svg" xmlns:xlink="http://www.w3.org/1999/xlink" x="0px" y="0px"
	 viewBox="0 0 30 30" style="enable-background:new 0 0 30 30;" xml:space="preserve">
<g id="Man_1">
</g>
<g id="Woman_1">
</g>
<g id="Man_2">
</g>
<g id="Woman_2">
</g>
<g id="Bald_Man">
</g>
<g id="Man_Glasses">
</g>
<g id="Woman_Glasses">
</g>
<g id="Man_Beard">
</g>
<g id="Man_Cap">
</g>
<g id="Woman_Cap">
</g>
<g id="Man_3">
</g>
<g id="Woman_3">
</g>
<g id="Men_4">
</g>
<g id="Woman_4">
</g>
<g id="Business_Man_1">
</g>
<g id="Business_Woman_1">
</g>
<g id="Firefigyhter">
</g>
<g id="Policeman">
</g>
<g id="Criminal">
</g>
<g id="Prisoner">
</g>
<g id="Woodsman">
</g>
<g id="Dispatcher_1">
</g>
<g id="Dispatcher_2">
	<g>
		<g>
			<g>
				<path d="M26,24.5c-0.068,0-0.138-0.014-0.205-0.044c-0.199-0.09-2.267-0.917-2.459-0.984l-1.494-0.498
					c-0.631-0.219-1.5-0.951-1.668-1.095l-1.027-1.025c-0.195-0.195-0.195-0.512,0-0.707s0.512-0.195,0.707,0l1,1
					c0.4,0.343,0.997,0.772,1.311,0.881l1.494,0.498c0.228,0.079,2.318,0.915,2.547,1.018c0.252,0.114,0.364,0.41,0.251,0.661
					C26.373,24.391,26.19,24.5,26,24.5z"/>
			</g>
			<g>
				<path d="M4,24.5c-0.191,0-0.373-0.109-0.457-0.295c-0.113-0.251-0.001-0.547,0.251-0.661c0.229-0.103,2.319-0.939,2.541-1.016
					l1.506-0.502c0.308-0.107,0.904-0.537,1.332-0.905l0.973-0.975c0.195-0.195,0.512-0.195,0.707,0s0.195,0.512,0,0.707l-1,1
					c-0.195,0.17-1.064,0.901-1.689,1.119l-1.506,0.502c-0.186,0.065-2.254,0.892-2.453,0.982C4.139,24.486,4.069,24.5,4,24.5z"/>
			</g>
			<g>
				<path d="M21.5,13.5c-0.166,0-0.327-0.083-0.421-0.23c-0.094-0.147-0.813-1.292-1.022-2.278c-2.636-0.106-5.163-1.14-6.351-2.249
					C12.842,10.431,10.317,11,9.5,11c-0.208,0.104-0.463,1.105-0.5,2.021c-0.007,0.165-0.095,0.316-0.235,0.404
					c-0.141,0.088-0.316,0.101-0.467,0.033C8.287,13.453,7.256,13,6.5,13C6.224,13,6,12.776,6,12.5S6.224,12,6.5,12
					c0.528,0,1.119,0.154,1.557,0.299C8.173,11.357,8.513,10,9.5,10c0.712,0,3.5-0.652,3.5-2.5C13,7.224,13.224,7,13.5,7
					S14,7.224,14,7.5c0.055,0.603,2.83,2.5,6.5,2.5c0.276,0,0.5,0.224,0.5,0.5c0,0.471,0.377,1.29,0.709,1.877
					C22.146,12.217,22.855,12,23.5,12c0.276,0,0.5,0.224,0.5,0.5S23.776,13,23.5,13c-0.653,0-1.515,0.328-1.792,0.455
					C21.641,13.485,21.57,13.5,21.5,13.5z"/>
			</g>
			<g>
				<path d="M14.948,23c-0.294,0-0.609-0.032-0.962-0.098c-0.14-0.024-0.284-0.059-0.429-0.096c-0.114-0.031-0.217-0.064-0.32-0.1
					c-2.242-0.709-4.224-2.663-5.182-5.065c-0.114,0.034-0.217,0.045-0.304,0.045c-0.998,0-1.75-1.367-1.75-3.179
					c0-0.272,0.08-0.987,0.115-1.281C6.065,13.075,6,12.813,6,12.5C6,7.439,10.206,3,15,3c0.276,0,0.5,0.224,0.5,0.5S15.276,4,15,4
					c-4.262,0-8,3.972-8,8.5c0,0.266,0.084,0.471,0.084,0.473c0.033,0.08,0.047,0.171,0.037,0.257C7.074,13.618,7,14.308,7,14.509
					c0,1.415,0.532,2.179,0.75,2.179c0.025,0,0.096-0.029,0.196-0.139c0.121-0.132,0.3-0.19,0.477-0.15
					c0.174,0.039,0.315,0.167,0.369,0.337c0.753,2.375,2.62,4.345,4.756,5.021c0.094,0.031,0.179,0.06,0.266,0.083
					c0.11,0.028,0.228,0.057,0.349,0.078C14.465,21.974,14.712,22,14.948,22c0.276,0,0.5,0.224,0.5,0.5S15.224,23,14.948,23z"/>
			</g>
			<g>
				<path d="M14.948,23c-0.276,0-0.5-0.224-0.5-0.5s0.224-0.5,0.5-0.5c0.236,0,0.483-0.026,0.779-0.081
					c0.127-0.022,0.246-0.051,0.364-0.081c0.078-0.021,0.164-0.05,0.249-0.078c1.816-0.575,4.02-2.35,4.869-5.024
					c0.054-0.17,0.194-0.298,0.369-0.337c0.176-0.04,0.356,0.019,0.477,0.15c0.1,0.109,0.17,0.139,0.196,0.139
					c0.218,0,0.75-0.764,0.75-2.179c0-0.201-0.074-0.892-0.122-1.279c-0.011-0.089,0.003-0.179,0.039-0.261l0,0
					c0,0,0.083-0.204,0.083-0.469C23,7.972,19.262,4,15,4c-0.276,0-0.5-0.224-0.5-0.5S14.724,3,15,3c4.794,0,9,4.439,9,9.5
					c0,0.313-0.065,0.575-0.115,0.728C23.92,13.521,24,14.236,24,14.509c0,1.812-0.752,3.179-1.75,3.179
					c-0.087,0-0.191-0.011-0.305-0.045c-0.959,2.382-2.98,4.336-5.294,5.068c-0.094,0.032-0.198,0.065-0.303,0.094
					c-0.153,0.04-0.297,0.074-0.445,0.099C15.557,22.968,15.242,23,14.948,23z"/>
			</g>
			<g>
				<path d="M12.5,14h-1c-0.276,0-0.5-0.224-0.5-0.5s0.224-0.5,0.5-0.5h1c0.276,0,0.5,0.224,0.5,0.5S12.776,14,12.5,14z"/>
			</g>
			<g>
				<path d="M18.5,14h-1c-0.276,0-0.5-0.224-0.5-0.5s0.224-0.5,0.5-0.5h1c0.276,0,0.5,0.224,0.5,0.5S18.776,14,18.5,14z"/>
			</g>
			<g>
				<path d="M15,30C6.729,30,0,23.271,0,15S6.729,0,15,0s15,6.729,15,15S23.271,30,15,30z M15,1C7.28,1,1,7.28,1,15s6.28,14,14,14
					s14-6.28,14-14S22.72,1,15,1z"/>
			</g>
			<g>
				<path d="M20,21.5c-0.229,0-0.436-0.159-0.488-0.392c-0.06-0.27,0.11-0.537,0.38-0.597l4.03-0.896l-0.914-5.018
					c-0.05-0.271,0.13-0.532,0.402-0.581c0.274-0.051,0.532,0.13,0.581,0.402l1,5.491c0.048,0.264-0.121,0.519-0.383,0.578l-4.5,1
					C20.072,21.496,20.036,21.5,20,21.5z"/>
			</g>
			<g>
				<path d="M10,21.5c-0.036,0-0.072-0.004-0.109-0.012l-4.5-1c-0.262-0.059-0.432-0.313-0.383-0.578l1-5.491
					c0.049-0.272,0.312-0.454,0.581-0.402c0.272,0.049,0.452,0.31,0.402,0.581l-0.914,5.018l4.03,0.896
					c0.27,0.06,0.439,0.327,0.38,0.597C10.437,21.341,10.229,21.5,10,21.5z"/>
			</g>
			<g>
				<path d="M15,30c-0.08,0-0.161-0.019-0.235-0.059l-7.5-4c-0.129-0.069-0.221-0.19-0.253-0.333c-0.031-0.143,0-0.292,0.088-0.408
					l3-4c0.102-0.135,0.268-0.205,0.433-0.199c0.168,0.011,0.32,0.106,0.403,0.254l4.5,8c0.109,0.193,0.077,0.436-0.078,0.595
					C15.261,29.948,15.131,30,15,30z M8.25,25.333l5.475,2.92l-3.285-5.84L8.25,25.333z"/>
			</g>
			<g>
				<path d="M15,30c-0.131,0-0.261-0.052-0.357-0.15c-0.155-0.159-0.188-0.401-0.078-0.595l4.5-8
					c0.083-0.147,0.234-0.243,0.403-0.254c0.173-0.006,0.332,0.064,0.433,0.199l3,4c0.088,0.117,0.12,0.266,0.088,0.408
					c-0.032,0.143-0.124,0.264-0.253,0.333l-7.5,4C15.161,29.981,15.08,30,15,30z M19.56,22.413l-3.285,5.84l5.475-2.92
					L19.56,22.413z"/>
			</g>
		</g>
		<g>
			<path d="M16.5,20c-0.276,0-0.5-0.224-0.5-0.5s0.224-0.5,0.5-0.5c1.38,0,3.691,0,4.553-1.724c0.124-0.247,0.424-0.347,0.671-0.224
				c0.247,0.124,0.347,0.424,0.224,0.671C20.809,20,18.006,20,16.5,20z"/>
		</g>
		<g>
			<path d="M15,20.5c-0.967,0-2-0.263-2-1s1.033-1,2-1s2,0.263,2,1S15.967,20.5,15,20.5z M16.073,19.698h0.01H16.073z M15,19.5h0.01
				H15z"/>
		</g>
	</g>
</g>
<g id="Soldier">
</g>
<g id="Astronaut">
</g>
<g id="Hipster_Guy">
</g>
<g id="Hipster_Girl">
</g>
<g id="Worker">
</g>
<g id="Old_Man">
</g>
<g id="Punk">
</g>
<g id="Diver">
</g>
<g id="Artist">
</g>
<g id="Dictator">
</g>
<g id="Man_Hat">
</g>
<g id="Woman_Hat">
</g>
<g id="Graduated_Man">
</g>
<g id="Graduated_Woman">
</g>
<g id="Avatar_Chef">
</g>
<g id="Waiter">
</g>
<g id="Waitress">
</g>
<g id="Bllboy">
</g>
<g id="Santa">
</g>
<g id="Doctor">
</g>
<g id="Nurse">
</g>
<g id="Captain">
</g>
<g id="Farmer">
</g>
<g id="Maid">
</g>
<g id="Business_Man_2">
</g>
<g id="Business_Woman_2">
</g>
<g id="Cowboy">
</g>
<g id="Anonymus">
</g>
<g id="Batman">
</g>
<g id="Superman">
</g>
<g id="Captain_America">
</g>
<g id="Darth_Vader">
</g>
<g id="Harry_Potter">
</g>
<g id="Anonymus_2">
</g>
<g id="Scream">
</g>
<g id="Jason">
</g>
<g id="Charlie_Chaplin">
</g>
</svg>
