<?xml version="1.0" encoding="iso-8859-1"?>
<!-- Generator: Adobe Illustrator 19.2.1, SVG Export Plug-In . SVG Version: 6.00 Build 0)  -->
<svg version="1.1" xmlns="http://www.w3.org/2000/svg" xmlns:xlink="http://www.w3.org/1999/xlink" x="0px" y="0px"
	 viewBox="0 0 30 30" style="enable-background:new 0 0 30 30;" xml:space="preserve">
<g id="Man_1">
</g>
<g id="Woman_1">
</g>
<g id="Man_2">
</g>
<g id="Woman_2">
</g>
<g id="Bald_Man">
</g>
<g id="Man_Glasses">
</g>
<g id="Woman_Glasses">
</g>
<g id="Man_Beard">
</g>
<g id="Man_Cap">
</g>
<g id="Woman_Cap">
</g>
<g id="Man_3">
</g>
<g id="Woman_3">
</g>
<g id="Men_4">
</g>
<g id="Woman_4">
</g>
<g id="Business_Man_1">
</g>
<g id="Business_Woman_1">
</g>
<g id="Firefigyhter">
</g>
<g id="Policeman">
</g>
<g id="Criminal">
</g>
<g id="Prisoner">
</g>
<g id="Woodsman">
</g>
<g id="Dispatcher_1">
</g>
<g id="Dispatcher_2">
</g>
<g id="Soldier">
</g>
<g id="Astronaut">
</g>
<g id="Hipster_Guy">
</g>
<g id="Hipster_Girl">
</g>
<g id="Worker">
</g>
<g id="Old_Man">
</g>
<g id="Punk">
</g>
<g id="Diver">
	<g>
		<path d="M15,0C6.729,0,0,6.729,0,15c0,4.264,1.797,8.108,4.662,10.842c0.032,0.032,0.058,0.067,0.097,0.088
			C7.443,28.446,11.04,30,15,30c3.961,0,7.557-1.554,10.241-4.07c0.039-0.022,0.065-0.057,0.097-0.088
			C28.203,23.108,30,19.264,30,15C30,6.729,23.271,0,15,0z M16.887,20.014C16.622,19.42,15.892,19,15,19
			c-0.892,0-1.622,0.42-1.887,1.014c-0.71,0.017-2.04,0.086-3.187,0.346c-0.395-0.665-0.726-1.357-0.952-2.022
			c-0.056-0.164-0.193-0.288-0.363-0.326C8.574,18.004,8.537,18,8.5,18c-0.133,0-0.262,0.053-0.357,0.15
			c-0.075,0.076-0.145,0.172-0.212,0.27c-0.007,0.01-0.014,0.021-0.022,0.031C7.589,18.21,7,17.139,7,16c0-1.241,0.485-2,0.75-2H8
			c0.267,0,0.486-0.209,0.5-0.475C8.718,9.165,11.452,6,15,6s6.282,3.165,6.501,7.525C21.514,13.791,21.733,14,22,14h0.25
			c0.265,0,0.75,0.759,0.75,2c0,1.143-0.593,2.217-0.907,2.453c-0.009-0.012-0.017-0.023-0.023-0.034
			c-0.067-0.097-0.138-0.192-0.212-0.269c-0.121-0.125-0.301-0.178-0.468-0.138c-0.17,0.038-0.307,0.162-0.363,0.326
			c-0.224,0.659-0.547,1.354-0.935,2.026C18.94,20.101,17.601,20.031,16.887,20.014z M19.508,21.273
			c-0.838,1.175-1.889,2.157-3.055,2.501c-0.085,0.027-0.17,0.053-0.248,0.073c-0.121,0.028-0.241,0.056-0.366,0.076
			c-0.605,0.104-0.966,0.104-1.574,0c-0.123-0.021-0.243-0.048-0.356-0.074c-0.086-0.022-0.171-0.048-0.267-0.078
			c-1.161-0.343-2.246-1.322-3.115-2.505c0.825-0.148,1.784-0.229,2.599-0.25C13.402,21.595,14.123,22,15,22
			c0.876,0,1.598-0.405,1.874-0.983C17.701,21.038,18.676,21.121,19.508,21.273z M9.481,21.525c0.173,0.254,0.356,0.5,0.549,0.739
			l-0.856,0.857c-0.35,0.301-0.805,0.633-1.13,0.806c0.073-0.602,0.269-1.533,0.81-2.074C8.978,21.729,9.205,21.621,9.481,21.525z
			 M15,26c-3.269,0-5.143-1.1-5.832-1.604c0.321-0.232,0.587-0.458,0.685-0.543l0.843-0.843c0.785,0.796,1.679,1.429,2.651,1.716
			c0.104,0.034,0.208,0.065,0.322,0.094c0.142,0.034,0.285,0.065,0.428,0.09c0.36,0.062,0.664,0.09,0.956,0.09
			c0.292,0,0.595-0.028,0.954-0.09c0.145-0.024,0.286-0.056,0.438-0.092c0.104-0.026,0.209-0.058,0.303-0.088
			c0.952-0.281,1.823-0.901,2.59-1.687l0.837,0.836c0.084,0.072,0.342,0.29,0.658,0.518C20.142,24.9,18.269,26,15,26z
			 M20.854,23.146l-0.856-0.856c0.193-0.243,0.375-0.494,0.548-0.755c0.262,0.094,0.48,0.198,0.601,0.318
			c0.541,0.541,0.737,1.472,0.81,2.074C21.628,23.752,21.179,23.425,20.854,23.146z M24.867,24.92
			c-0.068-0.022-0.136-0.045-0.204-0.065l-1.67-0.552c-0.027-0.555-0.185-2.201-1.139-3.156c-0.191-0.191-0.462-0.348-0.78-0.48
			c0.226-0.41,0.436-0.826,0.61-1.242C21.774,19.471,21.879,19.5,22,19.5c1.16,0,2-2.091,2-3.5c0-1.583-0.645-2.807-1.532-2.979
			C22.053,8.417,18.905,5,15,5c-3.906,0-7.053,3.417-7.468,8.021C6.645,13.193,6,14.417,6,16c0,1.409,0.84,3.5,2,3.5
			c0.122,0,0.228-0.03,0.319-0.077c0.175,0.411,0.39,0.826,0.623,1.237c-0.325,0.133-0.602,0.293-0.795,0.487
			c-0.954,0.954-1.112,2.599-1.139,3.155l-1.669,0.552c-0.069,0.021-0.138,0.044-0.206,0.066C2.582,22.383,1,18.873,1,15
			C1,7.28,7.28,1,15,1s14,6.28,14,14C29,18.873,27.418,22.383,24.867,24.92z"/>
		<path d="M21,15c0-1.654-1.346-3-3-3h-6.25C10.157,12,9,13.262,9,15c0,1.654,1.346,3,3,3h0.5c0.664,0,1.353-0.302,1.724-0.553
			l0.777-0.389l0.722,0.357C16.147,17.698,16.837,18,17.5,18H18C19.654,18,21,16.654,21,15z"/>
	</g>
</g>
<g id="Artist">
</g>
<g id="Dictator">
</g>
<g id="Man_Hat">
</g>
<g id="Woman_Hat">
</g>
<g id="Graduated_Man">
</g>
<g id="Graduated_Woman">
</g>
<g id="Avatar_Chef">
</g>
<g id="Waiter">
</g>
<g id="Waitress">
</g>
<g id="Bllboy">
</g>
<g id="Santa">
</g>
<g id="Doctor">
</g>
<g id="Nurse">
</g>
<g id="Captain">
</g>
<g id="Farmer">
</g>
<g id="Maid">
</g>
<g id="Business_Man_2">
</g>
<g id="Business_Woman_2">
</g>
<g id="Cowboy">
</g>
<g id="Anonymus">
</g>
<g id="Batman">
</g>
<g id="Superman">
</g>
<g id="Captain_America">
</g>
<g id="Darth_Vader">
</g>
<g id="Harry_Potter">
</g>
<g id="Anonymus_2">
</g>
<g id="Scream">
</g>
<g id="Jason">
</g>
<g id="Charlie_Chaplin">
</g>
</svg>
