<?xml version="1.0" encoding="iso-8859-1"?>
<!-- Generator: Adobe Illustrator 19.2.1, SVG Export Plug-In . SVG Version: 6.00 Build 0)  -->
<svg version="1.1" xmlns="http://www.w3.org/2000/svg" xmlns:xlink="http://www.w3.org/1999/xlink" x="0px" y="0px"
	 viewBox="0 0 30 30" style="enable-background:new 0 0 30 30;" xml:space="preserve">
<g id="Sun_Light">
</g>
<g id="Sunglasses">
</g>
<g id="T-Shirt_1">
</g>
<g id="T-Shirt_2">
</g>
<g id="Mini_Dress">
</g>
<g id="Flip-Flops">
</g>
<g id="Temperature">
</g>
<g id="Hot_Temperature">
</g>
<g id="Ice_Lolly">
</g>
<g id="Icecream">
</g>
<g id="Limonade_1">
</g>
<g id="Limonade_2">
</g>
<g id="Hat">
</g>
<g id="Straw_Hat">
</g>
<g id="Deckchair">
</g>
<g id="Sunshade">
</g>
<g id="Suncream">
</g>
<g id="Suntan_Oil">
</g>
<g id="Swimming_Trunks">
</g>
<g id="Bikini">
</g>
<g id="Pool">
</g>
<g id="Pool_Ladder">
</g>
<g id="Grill">
</g>
<g id="Kite_1">
</g>
<g id="Kite_2">
</g>
<g id="Badminton">
</g>
<g id="Cooler">
</g>
<g id="Strand_Bag">
</g>
<g id="Towel">
</g>
<g id="Strand_Ball">
</g>
<g id="Beach_Sign">
</g>
<g id="Toos">
</g>
<g id="Bucket">
</g>
<g id="Sand_Castle">
</g>
<g id="Shell_1">
</g>
<g id="Shell_2">
</g>
<g id="Surf_Board">
</g>
<g id="Float">
</g>
<g id="Vacation_Photo">
</g>
<g id="Summer_Time">
</g>
<g id="Boat">
</g>
<g id="Lifebuoy">
</g>
<g id="Lighthouse">
</g>
<g id="Sunset">
</g>
<g id="Dolphin">
</g>
<g id="Starfish">
</g>
<g id="Diving_Mask">
	<path d="M27.467,16.01C29.016,14.647,30,12.656,30,10.435C30,6.335,26.665,3,22.565,3H7.435C3.335,3,0,6.335,0,10.435
		c0,2.252,1.01,4.269,2.597,5.634l-0.646,3.23c-0.178,0.891,0.05,1.806,0.626,2.508c0.576,0.703,1.428,1.106,2.337,1.106h0.622
		c0.121,0.366,0.256,0.736,0.418,1.105c0.924,2.113,2.425,4.002,3.723,4.002c0.174,0,0.344-0.034,0.509-0.106
		c0.005-0.002,0.007-0.006,0.012-0.008c0.004-0.002,0.009-0.001,0.014-0.003l2.531-1.284c0.192-0.084,0.345-0.217,0.474-0.376
		c0.418,0.205,1.07,0.453,1.783,0.453c0.762,0,1.413-0.242,1.831-0.446c0.125,0.152,0.273,0.277,0.457,0.357l2.556,1.296
		c0.055,0.027,0.113,0.034,0.17,0.04c0.102,0.026,0.205,0.043,0.31,0.043c1.297,0,2.798-1.889,3.723-4.001
		c0.154-0.352,0.287-0.712,0.407-1.071h0.711c0.909,0,1.761-0.403,2.337-1.106s0.805-1.617,0.626-2.509L27.467,16.01z M2.522,10.435
		c0-2.709,2.204-4.913,4.913-4.913h1.892c0.276,0,0.5,0.224,0.5,0.5s-0.224,0.5-0.5,0.5H7.435c-2.157,0-3.913,1.755-3.913,3.913
		c0,0.276-0.224,0.5-0.5,0.5S2.522,10.711,2.522,10.435z M5.94,18.28c-0.044,0.022-0.076,0.055-0.11,0.087
		c-0.548,0.337-0.833,1.087-0.78,2.176c0.021,0.424,0.098,0.889,0.208,1.37H4.914c-0.608,0-1.178-0.27-1.563-0.74
		c-0.386-0.471-0.539-1.082-0.419-1.679l0.555-2.772c0.98,0.618,2.111,1.014,3.328,1.115L5.94,18.28z M9.789,26.995l-0.006,0.003
		c-0.41,0.171-1.808-0.859-2.912-3.38c-0.486-1.111-0.778-2.221-0.822-3.123c-0.038-0.793,0.132-1.229,0.318-1.311
		c0.029-0.013,0.063-0.02,0.104-0.02c0.22,0,0.604,0.196,1.075,0.675c0.633,0.645,1.25,1.612,1.736,2.724
		C10.385,25.084,10.195,26.808,9.789,26.995z M14.342,11.94c0.138-0.237,0.384-0.378,0.658-0.378c0.273,0,0.519,0.141,0.657,0.379
		l1.565,2.672c-0.567-0.158-1.289-0.266-2.222-0.266c-0.933,0-1.654,0.106-2.22,0.262L14.342,11.94z M19.241,17.844
		c-0.717,0.729-1.405,1.804-1.938,3.023c-0.689,1.574-1.057,3.287-0.849,4.454c-0.31,0.158-0.844,0.374-1.454,0.374
		c-0.558,0-1.089-0.22-1.403-0.38c0.211-1.171-0.156-2.879-0.844-4.448c-0.534-1.221-1.223-2.294-1.939-3.023
		c-0.112-0.114-0.223-0.216-0.334-0.31c0.518-0.259,0.968-0.649,1.268-1.163l0.077-0.132c0.17-0.217,0.878-0.891,3.174-0.891
		c2.285,0,3.006,0.684,3.174,0.89l0.077,0.132c0.31,0.532,0.782,0.929,1.324,1.187C19.463,17.651,19.353,17.73,19.241,17.844z
		 M23.13,23.584c-1.106,2.527-2.501,3.555-2.915,3.379c-0.409-0.179-0.602-1.906,0.504-4.435c0.486-1.111,1.103-2.078,1.735-2.723
		c0.471-0.479,0.855-0.676,1.075-0.676c0.031,0,0.055,0.007,0.08,0.015l0.04,0.02C24.046,19.385,24.22,21.093,23.13,23.584z
		 M26.727,21.173c-0.385,0.471-0.955,0.74-1.563,0.74h-0.429c0.362-1.549,0.293-2.929-0.459-3.504
		c-0.043-0.052-0.096-0.097-0.16-0.129l-0.055-0.028c-0.01-0.005-0.016-0.014-0.026-0.019c-0.006-0.003-0.013-0.001-0.019-0.004
		l-0.779-0.395c1.225-0.11,2.363-0.52,3.345-1.154l0.564,2.814C27.265,20.091,27.112,20.703,26.727,21.173z"/>
</g>
<g id="Sailboat">
</g>
<g id="Captin_Hat">
</g>
<g id="Eudder">
</g>
</svg>
