<?xml version="1.0" encoding="iso-8859-1"?>
<!-- Generator: Adobe Illustrator 19.2.1, SVG Export Plug-In . SVG Version: 6.00 Build 0)  -->
<svg version="1.1" xmlns="http://www.w3.org/2000/svg" xmlns:xlink="http://www.w3.org/1999/xlink" x="0px" y="0px"
	 viewBox="0 0 30 30" style="enable-background:new 0 0 30 30;" xml:space="preserve">
<g id="Event">
</g>
<g id="Event_2">
</g>
<g id="Add_Event">
</g>
<g id="Remove_Event">
</g>
<g id="Event_Reminder">
</g>
<g id="Wine_Glass">
</g>
<g id="Toast">
</g>
<g id="Champagne">
</g>
<g id="Champagne_Open">
</g>
<g id="Alcohol_Drink">
</g>
<g id="Beer_Glass">
</g>
<g id="Party_Cake">
</g>
<g id="Pizza_Food">
</g>
<g id="Disco_Ball">
</g>
<g id="Equalizer">
</g>
<g id="DJ">
	<g>
		<g>
			<path d="M4.5,14C4.224,14,4,13.776,4,13.5C4,8.706,8.706,4,13.5,4C13.776,4,14,4.224,14,4.5S13.776,5,13.5,5
				C9.29,5,5,9.29,5,13.5C5,13.776,4.776,14,4.5,14z"/>
		</g>
		<g>
			<path d="M2.5,14C2.224,14,2,13.776,2,13.5C2,7.374,7.374,2,13.5,2C13.776,2,14,2.224,14,2.5S13.776,3,13.5,3
				C7.906,3,3,7.907,3,13.5C3,13.776,2.776,14,2.5,14z"/>
		</g>
		<g>
			<path d="M13.5,23c-0.276,0-0.5-0.224-0.5-0.5s0.224-0.5,0.5-0.5c1.087,0,2.318,0,3.288-0.453c0.249-0.117,0.548-0.01,0.665,0.241
				c0.117,0.25,0.009,0.548-0.241,0.665C16.041,23,14.691,23,13.5,23z"/>
		</g>
		<g>
			<path d="M13.5,25c-0.276,0-0.5-0.224-0.5-0.5s0.224-0.5,0.5-0.5c1.446,0,2.731-0.035,3.815-0.465
				c0.257-0.104,0.547,0.023,0.649,0.28c0.102,0.257-0.023,0.548-0.28,0.649C16.436,24.96,15.051,25,13.5,25z"/>
		</g>
		<g>
			<path d="M24.5,30h-1.484c-2.378,0-4.438-1.505-5.191-3.722C16.417,26.758,14.965,27,13.5,27C6.056,27,0,20.944,0,13.5
				C0,6.056,6.056,0,13.5,0c7.378,0,13.392,5.948,13.499,13.301C27.32,13.627,27.5,14.053,27.5,14.5v0.919
				c0.228-0.108,0.481-0.169,0.75-0.169c0.965,0,1.75,0.785,1.75,1.75v7.5C30,27.532,27.532,30,24.5,30z M18.158,25.126
				c0.081,0,0.161,0.02,0.234,0.059c0.128,0.067,0.22,0.188,0.253,0.328C19.121,27.566,20.918,29,23.016,29H24.5
				c2.481,0,4.5-2.019,4.5-4.5V17c0-0.413-0.337-0.75-0.75-0.75S27.5,16.587,27.5,17c0,0.276-0.224,0.5-0.5,0.5s-0.5-0.224-0.5-0.5
				v-2.5c0-0.299-0.191-0.491-0.306-0.579c-0.123-0.094-0.195-0.241-0.195-0.396C26,6.607,20.393,1,13.5,1S1,6.607,1,13.5
				S6.607,26,13.5,26c1.521,0,3.027-0.283,4.479-0.841C18.037,25.137,18.098,25.126,18.158,25.126z"/>
		</g>
		<g>
			<path d="M13.5,15c-0.827,0-1.5-0.673-1.5-1.5s0.673-1.5,1.5-1.5s1.5,0.673,1.5,1.5S14.327,15,13.5,15z M13.5,13
				c-0.275,0-0.5,0.224-0.5,0.5s0.225,0.5,0.5,0.5s0.5-0.224,0.5-0.5S13.775,13,13.5,13z"/>
		</g>
		<g>
			<path d="M24.5,30h-1.484c-2.64,0-4.912-1.882-5.403-4.476l-1.081-5.692C16.511,19.725,16.5,19.614,16.5,19.5
				c0-0.965,0.785-1.75,1.75-1.75c0.269,0,0.522,0.061,0.75,0.169V14.5c0-0.965,0.785-1.75,1.75-1.75
				c0.279,0,0.544,0.066,0.778,0.183c0.15-0.814,0.865-1.433,1.722-1.433s1.571,0.619,1.722,1.433
				c0.234-0.117,0.499-0.183,0.778-0.183c0.965,0,1.75,0.785,1.75,1.75v0.919c0.228-0.108,0.481-0.169,0.75-0.169
				c0.965,0,1.75,0.785,1.75,1.75v7.5C30,27.532,27.532,30,24.5,30z M18.25,18.75c-0.413,0-0.75,0.337-0.75,0.75
				c0,0.05,0.005,0.098,0.014,0.145l1.081,5.693C18.997,27.46,20.856,29,23.016,29H24.5c2.481,0,4.5-2.019,4.5-4.5V17
				c0-0.413-0.337-0.75-0.75-0.75S27.5,16.587,27.5,17v3.75c0,0.276-0.224,0.5-0.5,0.5s-0.5-0.224-0.5-0.5V14.5
				c0-0.414-0.337-0.75-0.75-0.75S25,14.086,25,14.5v6.25c0,0.276-0.224,0.5-0.5,0.5s-0.5-0.224-0.5-0.5v-7.5
				c0-0.414-0.337-0.75-0.75-0.75s-0.75,0.336-0.75,0.75v7.5c0,0.276-0.224,0.5-0.5,0.5s-0.5-0.224-0.5-0.5V14.5
				c0-0.414-0.337-0.75-0.75-0.75S20,14.086,20,14.5v6.25c0,0.276-0.224,0.5-0.5,0.5s-0.5-0.224-0.5-0.5V19.5
				C19,19.087,18.663,18.75,18.25,18.75z"/>
		</g>
	</g>
</g>
<g id="Tent">
</g>
<g id="Firework_1">
</g>
<g id="Firework_2">
</g>
<g id="Party_Glasses">
</g>
<g id="Barbeque">
</g>
<g id="Horn">
</g>
<g id="Speaker">
</g>
<g id="VIP">
</g>
<g id="Event_Ticket">
</g>
<g id="VIP_Ticket">
</g>
<g id="Popcorn">
</g>
<g id="Cord">
</g>
<g id="Invitation_1">
</g>
<g id="Invitation_2">
</g>
</svg>
