<?xml version="1.0" encoding="iso-8859-1"?>
<!-- Generator: Adobe Illustrator 19.2.1, SVG Export Plug-In . SVG Version: 6.00 Build 0)  -->
<svg version="1.1" xmlns="http://www.w3.org/2000/svg" xmlns:xlink="http://www.w3.org/1999/xlink" x="0px" y="0px"
	 viewBox="0 0 30 30" style="enable-background:new 0 0 30 30;" xml:space="preserve">
<g id="Sun_Light">
</g>
<g id="Sunglasses">
</g>
<g id="T-Shirt_1">
</g>
<g id="T-Shirt_2">
</g>
<g id="Mini_Dress">
</g>
<g id="Flip-Flops">
</g>
<g id="Temperature">
</g>
<g id="Hot_Temperature">
</g>
<g id="Ice_Lolly">
</g>
<g id="Icecream">
</g>
<g id="Limonade_1">
</g>
<g id="Limonade_2">
</g>
<g id="Hat">
</g>
<g id="Straw_Hat">
</g>
<g id="Deckchair">
</g>
<g id="Sunshade">
</g>
<g id="Suncream">
</g>
<g id="Suntan_Oil">
</g>
<g id="Swimming_Trunks">
</g>
<g id="Bikini">
</g>
<g id="Pool">
</g>
<g id="Pool_Ladder">
</g>
<g id="Grill">
</g>
<g id="Kite_1">
</g>
<g id="Kite_2">
</g>
<g id="Badminton">
</g>
<g id="Cooler">
</g>
<g id="Strand_Bag">
</g>
<g id="Towel">
</g>
<g id="Strand_Ball">
</g>
<g id="Beach_Sign">
</g>
<g id="Toos">
</g>
<g id="Bucket">
</g>
<g id="Sand_Castle">
</g>
<g id="Shell_1">
</g>
<g id="Shell_2">
</g>
<g id="Surf_Board">
</g>
<g id="Float">
</g>
<g id="Vacation_Photo">
</g>
<g id="Summer_Time">
</g>
<g id="Boat">
</g>
<g id="Lifebuoy">
</g>
<g id="Lighthouse">
</g>
<g id="Sunset">
</g>
<g id="Dolphin">
	<g id="XMLID_470_">
		<g id="XMLID_472_">
			<path d="M15.63,18.001c-0.158,0-0.309-0.075-0.404-0.205c-0.112-0.154-0.127-0.357-0.04-0.526
				c0.335-0.643,1.204-2.529,1.204-3.519c0-0.276,0.224-0.5,0.5-0.5s0.5,0.224,0.5,0.5c0,0.887-0.48,2.154-0.862,3.021
				c1.359-0.39,3.645-1.302,3.645-3.021c0-0.276,0.224-0.5,0.5-0.5s0.5,0.224,0.5,0.5c0,3.274-5.236,4.205-5.459,4.243
				C15.687,17.999,15.658,18.001,15.63,18.001z"/>
		</g>
		<g id="XMLID_471_">
			<path d="M0.5,23c-0.105,0-0.209-0.033-0.296-0.098C0.076,22.809,0,22.659,0,22.5c0-2.668,1.475-4.481,2.916-5.335
				c0.037-0.107,0.06-0.174,0.123-0.322c1.243-2.965,4.283-5.797,7.824-7.321l-0.74-1.831c-0.061-0.151-0.044-0.322,0.044-0.459
				c0.088-0.137,0.237-0.222,0.399-0.229c0.128,0.001,3.038-0.104,4.781,1.341c0.572-0.063,1.067-0.092,1.543-0.092
				c5.74,0,9.081,1.832,10.49,5.761C29.54,15.061,30,16.48,30,17.501c0,0.275-0.223,0.499-0.498,0.5l-0.43,0.002
				c-0.002,0-0.004,0-0.007,0c-0.341,0-0.678-0.104-0.976-0.301c-1.703-1.124-4.358-1.823-7.891-2.079
				c-0.275-0.021-0.482-0.26-0.462-0.535s0.263-0.485,0.535-0.463c3.758,0.272,6.495,1.006,8.369,2.243
				c0.098,0.064,0.199,0.105,0.303,0.124c-0.2-0.871-0.928-1.597-2.172-2.161c-0.126-0.057-0.223-0.164-0.268-0.296
				c-0.761-2.268-2.586-5.283-9.613-5.283c-0.496,0-1.02,0.035-1.647,0.11c-0.142,0.02-0.294-0.03-0.402-0.132
				c-0.965-0.906-2.575-1.148-3.507-1.21l0.641,1.587c0.05,0.124,0.048,0.263-0.004,0.385c-0.053,0.123-0.152,0.22-0.276,0.269
				c-3.5,1.375-6.536,4.11-7.735,6.969c-0.051,0.121-0.069,0.176-0.1,0.265l-0.064,0.183c-0.042,0.116-0.125,0.212-0.233,0.271
				c-1.052,0.569-2.261,1.88-2.515,3.808c0.437-0.188,1.022-0.477,1.588-0.866c0.15-0.104,0.344-0.117,0.508-0.036
				c0.163,0.082,0.269,0.246,0.275,0.429c0.004,0.098,0.009,0.197,0.015,0.299c0.823-0.676,2.133-1.999,2.302-3.689
				c0.015-0.145,0.091-0.276,0.211-0.359c2.64-1.85,6.642-2.979,10.705-3.021c0.002,0,0.004,0,0.005,0
				c0.274,0,0.497,0.221,0.5,0.495c0.003,0.275-0.219,0.502-0.495,0.505c-3.776,0.04-7.479,1.053-9.961,2.716
				c-0.428,2.839-3.29,4.624-3.415,4.7c-0.143,0.089-0.322,0.099-0.474,0.026c-0.152-0.071-0.259-0.215-0.283-0.381
				c-0.02-0.141-0.037-0.276-0.051-0.409c-0.96,0.54-1.788,0.802-1.831,0.815C0.6,22.992,0.55,23,0.5,23z"/>
		</g>
	</g>
</g>
<g id="Starfish">
</g>
<g id="Diving_Mask">
</g>
<g id="Sailboat">
</g>
<g id="Captin_Hat">
</g>
<g id="Eudder">
</g>
</svg>
