<?xml version="1.0" encoding="iso-8859-1"?>
<!-- Generator: Adobe Illustrator 19.2.1, SVG Export Plug-In . SVG Version: 6.00 Build 0)  -->
<svg version="1.1" xmlns="http://www.w3.org/2000/svg" xmlns:xlink="http://www.w3.org/1999/xlink" x="0px" y="0px"
	 viewBox="0 0 24 24" style="enable-background:new 0 0 24 24;" xml:space="preserve">
<g id="Pompkin">
</g>
<g id="Layer_10">
</g>
<g id="Bat">
</g>
<g id="Ghost">
</g>
<g id="Bone_Hand">
</g>
<g id="Tree_Ghost">
</g>
<g id="Gate">
</g>
<g id="Cemetery_1">
</g>
<g id="Cemetery_2">
</g>
<g id="Devil_x27_s_Fork">
</g>
<g id="Night_Candle">
</g>
<g id="Canlestick">
</g>
<g id="Black_Cat">
</g>
<g id="Witch_Cauldron">
</g>
<g id="Corn_Candy">
</g>
<g id="Layer_29">
</g>
<g id="Bones">
</g>
<g id="Witch_Broom">
</g>
<g id="Owl">
</g>
<g id="Scythe">
</g>
<g id="Grim_Reaper">
</g>
<g id="Coffin">
</g>
<g id="Dracula">
	<g>
		<path d="M8,10.011c0.138,0,0.368,0.067,0.633,0.166C8.552,10.266,8.5,10.382,8.5,10.511c0,0.276,0.224,0.5,0.5,0.5h0.5
			c0.181,0,0.332-0.101,0.42-0.245c0.119,0.062,0.233,0.123,0.336,0.181c0.077,0.043,0.161,0.064,0.244,0.064
			c0.175,0,0.345-0.092,0.437-0.255c0.135-0.241,0.049-0.545-0.191-0.681C10.428,9.897,8.809,9.011,8,9.011
			c-0.276,0-0.5,0.224-0.5,0.5S7.724,10.011,8,10.011z"/>
		<path d="M13.5,11.011c0.083,0,0.167-0.021,0.244-0.064c0.102-0.057,0.217-0.119,0.336-0.181c0.088,0.144,0.239,0.245,0.42,0.245
			H15c0.276,0,0.5-0.224,0.5-0.5c0-0.13-0.052-0.245-0.133-0.334c0.265-0.1,0.495-0.166,0.633-0.166c0.276,0,0.5-0.224,0.5-0.5
			s-0.224-0.5-0.5-0.5c-0.809,0-2.428,0.886-2.745,1.064c-0.241,0.135-0.327,0.44-0.191,0.681
			C13.156,10.919,13.326,11.011,13.5,11.011z"/>
		<path d="M9.066,17.255c0.134,0.24,0.438,0.325,0.679,0.191C9.748,17.445,9.84,17.398,10,17.338v0.174c0,0.276,0.224,0.5,0.5,0.5
			s0.5-0.224,0.5-0.5v-0.426c0.288-0.044,0.62-0.074,1-0.074c0.38,0,0.712,0.03,1,0.074v0.426c0,0.276,0.224,0.5,0.5,0.5
			s0.5-0.224,0.5-0.5v-0.174c0.159,0.06,0.25,0.107,0.252,0.108c0.078,0.045,0.164,0.066,0.248,0.066
			c0.174,0,0.342-0.09,0.435-0.252c0.137-0.24,0.054-0.545-0.186-0.682c-0.041-0.023-1.01-0.566-2.748-0.566
			s-2.708,0.543-2.748,0.566C9.013,16.713,8.931,17.016,9.066,17.255z"/>
		<path d="M21.724,17.064l-2.56-1.28C20.26,15.154,21,13.364,21,12.511c0-1.075-0.348-1.8-1.018-2.242
			c0.247-1.594,0.677-5.321-1.449-7.82C17.158,0.832,14.959,0.011,12,0.011s-5.158,0.82-6.534,2.438
			c-2.126,2.499-1.695,6.226-1.449,7.82C3.348,10.711,3,11.436,3,12.511c0,0.852,0.74,2.643,1.837,3.273l-2.56,1.28
			C2.109,17.148,2.002,17.318,2,17.506s0.101,0.36,0.267,0.448l3.653,1.923c-0.027,0.092-0.036,0.19-0.004,0.289
			c0.334,1.034-0.422,2.353-0.85,3.097c-0.138,0.24-0.044,0.527,0.195,0.665c0.074,0.042,0.155,0.062,0.236,0.062
			c0.181,0,0.362-0.099,0.457-0.265c0.42-0.732,1.152-2.011,1.029-3.288l4.783,2.517c0.073,0.039,0.153,0.058,0.233,0.058
			s0.16-0.019,0.233-0.058l4.785-2.518c-0.136,1.291,0.689,2.58,1.182,3.346l0.817-0.578c-0.452-0.703-1.293-2.011-0.927-3.022
			c0.038-0.105,0.03-0.212,0-0.311l3.642-1.917c0.166-0.087,0.269-0.26,0.267-0.448S21.891,17.148,21.724,17.064z M4,12.511
			c0-1.064,0.366-1.37,0.762-1.542c0.01-0.004,0.016-0.013,0.026-0.018c0.016-0.008,0.026-0.019,0.041-0.029
			c0.076-0.049,0.136-0.113,0.175-0.19c0.003-0.007,0.011-0.009,0.014-0.016l0.222-0.491c2.202-4.89,2.81-6.023,6.547-4.262
			c0.135,0.063,0.291,0.063,0.426,0c3.737-1.761,4.345-0.628,6.547,4.26l0.222,0.493c0.004,0.008,0.013,0.012,0.017,0.02
			c0.034,0.066,0.083,0.121,0.144,0.167c0.018,0.014,0.034,0.026,0.054,0.037c0.015,0.009,0.026,0.022,0.042,0.029
			C19.634,11.142,20,11.447,20,12.511c0,0.785-0.927,2.5-1.625,2.5c-0.188,0-0.359,0.105-0.445,0.272l-0.051,0.101
			c-0.188,0.371-0.382,0.718-0.582,1.044c-0.015,0.024-0.031,0.049-0.046,0.074c-0.189,0.305-0.384,0.589-0.585,0.855
			c-0.015,0.02-0.029,0.041-0.045,0.061c-0.211,0.275-0.427,0.528-0.65,0.759c-0.081,0.084-0.174,0.159-0.259,0.24
			c-0.131,0.124-0.262,0.25-0.397,0.36c-0.158,0.128-0.329,0.242-0.5,0.355c-0.074,0.049-0.147,0.105-0.222,0.149
			c-0.185,0.11-0.383,0.202-0.582,0.291c-0.073,0.032-0.143,0.071-0.217,0.099c-0.205,0.08-0.422,0.137-0.642,0.19
			c-0.077,0.018-0.151,0.046-0.228,0.06c-0.296,0.056-0.603,0.089-0.925,0.089s-0.629-0.033-0.925-0.089
			c-0.077-0.014-0.152-0.042-0.228-0.06c-0.22-0.053-0.437-0.11-0.642-0.19c-0.073-0.028-0.144-0.068-0.217-0.099
			c-0.2-0.088-0.397-0.181-0.582-0.291c-0.075-0.045-0.148-0.101-0.222-0.149c-0.171-0.113-0.342-0.227-0.5-0.355
			c-0.135-0.11-0.265-0.236-0.397-0.36c-0.086-0.081-0.178-0.156-0.259-0.24c-0.222-0.231-0.439-0.484-0.65-0.759
			c-0.016-0.02-0.029-0.041-0.045-0.061c-0.2-0.265-0.395-0.55-0.585-0.855c-0.015-0.025-0.031-0.049-0.046-0.074
			c-0.2-0.327-0.394-0.673-0.582-1.044L6.07,15.284c-0.086-0.167-0.258-0.272-0.445-0.272C4.927,15.011,4,13.296,4,12.511z"/>
	</g>
</g>
<g id="Frankenstein">
</g>
<g id="Layer_40">
</g>
<g id="Toilet_Paper">
</g>
<g id="Skull">
</g>
<g id="Skull_Cake">
</g>
<g id="Eyeball">
</g>
<g id="Castle">
</g>
<g id="Witch_x27_s_Hat">
</g>
<g id="Cobweb_1">
</g>
<g id="Cobweb_2">
</g>
<g id="Spider">
</g>
<g id="Full_Moon">
</g>
<g id="Crescent">
</g>
<g id="Crow">
</g>
<g id="Candy_Holder">
</g>
<g id="Bloody_Knife">
</g>
<g id="Bloody_Axe">
</g>
</svg>
