<?xml version="1.0" encoding="iso-8859-1"?>
<!-- Generator: Adobe Illustrator 19.2.1, SVG Export Plug-In . SVG Version: 6.00 Build 0)  -->
<svg version="1.1" xmlns="http://www.w3.org/2000/svg" xmlns:xlink="http://www.w3.org/1999/xlink" x="0px" y="0px"
	 viewBox="0 0 24 24" style="enable-background:new 0 0 24 24;" xml:space="preserve">
<g id="Flag">
</g>
<g id="Umbrella">
</g>
<g id="Briefcase">
</g>
<g id="Box">
</g>
<g id="Magnet">
</g>
<g id="Percent">
</g>
<g id="Rocket">
</g>
<g id="Share">
</g>
<g id="Transmitter">
</g>
<g id="Record_2">
</g>
<g id="Record_1">
</g>
<g id="Anchor">
</g>
<g id="Airplane">
</g>
<g id="Car">
</g>
<g id="Newsfeed">
</g>
<g id="Wifi_Tethering">
</g>
<g id="No_Wifi_Tethering">
</g>
<g id="Bar_Chart_2">
</g>
<g id="Shop">
</g>
<g id="Alarm">
</g>
<g id="Sim_Card">
</g>
<g id="Radar">
</g>
<g id="Hand_2">
</g>
<g id="Palette">
</g>
<g id="Cake">
</g>
<g id="Blende">
</g>
<g id="Feather_Pen">
</g>
<g id="Ticket">
</g>
<g id="Medal">
</g>
<g id="Mouse_Pointer_1">
</g>
<g id="Mouse_Pointer_2">
</g>
<g id="Fingerprint">
</g>
<g id="Earth">
	<path d="M23.902,13.459C23.961,12.98,24,12.495,24,12c0-5.348-3.519-9.888-8.362-11.433c-0.014-0.006-0.027-0.011-0.041-0.015
		C14.461,0.194,13.253,0,12,0C6.606,0,2.034,3.578,0.528,8.485c-0.005,0.017-0.009,0.033-0.013,0.05C0.183,9.633,0,10.795,0,12
		c0,3.1,1.192,5.92,3.128,8.052c0.035,0.059,0.08,0.109,0.135,0.149C5.454,22.533,8.555,24,12,24
		c6.082,0,11.109-4.551,11.884-10.424C23.896,13.537,23.9,13.499,23.902,13.459z M12,23c-3.113,0-5.923-1.306-7.926-3.392
		c0.077-0.765,0.269-3.094-0.097-4.258c-0.181-0.575-0.572-0.967-0.917-1.312c-0.247-0.247-0.481-0.48-0.607-0.751
		c-0.291-0.619-0.713-3.045-0.94-4.602C2.923,4.235,7.09,1,12,1c0.831,0,1.637,0.1,2.415,0.276
		c-0.296,0.364-0.531,0.771-0.682,1.083c-0.582-0.214-1.399-0.457-1.854-0.344c-0.754,0.188-1.539,1.158-2.285,2.193
		c-0.112,0.155-0.269,0.47-0.388,0.727c-0.563-0.043-1.13,0.211-1.59,0.704c-0.451,0.483-0.794,1.23-0.543,1.808
		C7.227,7.798,7.564,8,8,8c0.458,0,0.888-0.251,1.344-0.518C9.745,7.248,10.16,7.005,10.507,7c1.807-0.039,2.729,0.416,3.001,0.836
		c0.074,0.114,0.099,0.226,0.075,0.341C13.22,8.245,12.191,8.14,11.49,8.069c-1.182-0.118-2.404-0.241-3.117-0.053
		c-0.885,0.233-1.4,0.843-2.292,2.21c-0.4,0.614-0.289,1.895-0.04,2.471c0.171,0.397,0.78,1.11,1.307,1.278
		c0.43,0.135,0.986,0.059,1.575-0.022c0.444-0.063,1.115-0.154,1.309-0.032C10.691,14.215,11,15.452,11,16.996
		c-0.006,0.083-0.125,0.325-0.195,0.47c-0.183,0.372-0.371,0.758-0.294,1.134c0.309,1.521,1.459,2.404,2.404,2.404
		c0.044,0,0.087-0.002,0.129-0.006c1.382-0.123,3.656-1.903,3.947-3.403c0.071-0.369,0.038-0.924,0.002-1.511
		c-0.033-0.545-0.07-1.163-0.004-1.481s0.589-1.27,0.938-1.842c0.125-0.206,0.087-0.471-0.093-0.632
		c-0.313-0.282-0.808-0.753-0.929-0.921c-0.114-0.159-0.304-0.524-0.493-0.918c0.15,0.053,0.268,0.101,0.325,0.136
		c0.563,0.348,1.911,1.851,2.384,2.4c0.117,0.137,0.297,0.2,0.476,0.165c0.744-0.146,0.84-0.913,0.902-1.421
		c0.023-0.183,0.065-0.522,0.119-0.584c0.408-0.093,0.936,0.733,1.358,1.403c0.292,0.464,0.574,0.9,0.892,1.22
		C22.086,18.912,17.517,23,12,23z"/>
</g>
</svg>
