<?xml version="1.0" encoding="iso-8859-1"?>
<!-- Generator: Adobe Illustrator 19.2.1, SVG Export Plug-In . SVG Version: 6.00 Build 0)  -->
<svg version="1.1" xmlns="http://www.w3.org/2000/svg" xmlns:xlink="http://www.w3.org/1999/xlink" x="0px" y="0px"
	 viewBox="0 0 30 30" style="enable-background:new 0 0 30 30;" xml:space="preserve">
<g id="Flag">
</g>
<g id="Umbrella">
</g>
<g id="Briefcase">
</g>
<g id="Box">
</g>
<g id="Magnet">
</g>
<g id="Percent">
</g>
<g id="Rocket">
</g>
<g id="Share">
</g>
<g id="Transmitter">
</g>
<g id="Record_2">
</g>
<g id="Record_1">
</g>
<g id="Anchor">
</g>
<g id="Airplane">
</g>
<g id="Car">
</g>
<g id="Newsfeed">
</g>
<g id="Wifi_Tethering">
</g>
<g id="No_Wifi_Tethering">
</g>
<g id="Bar_Chart_2">
</g>
<g id="Shop">
</g>
<g id="Alarm">
</g>
<g id="Sim_Card">
</g>
<g id="Radar">
</g>
<g id="Hand_2">
</g>
<g id="Palette">
</g>
<g id="Cake">
</g>
<g id="Blende">
</g>
<g id="Feather_Pen">
</g>
<g id="Ticket">
</g>
<g id="Medal">
</g>
<g id="Mouse_Pointer_1">
</g>
<g id="Mouse_Pointer_2">
</g>
<g id="Fingerprint">
</g>
<g id="Earth">
	<g>
		<g>
			<path d="M15,30C6.729,30,0,23.271,0,15S6.729,0,15,0s15,6.729,15,15S23.271,30,15,30z M15,1C7.28,1,1,7.28,1,15s6.28,14,14,14
				s14-6.28,14-14S22.72,1,15,1z"/>
		</g>
		<g>
			<path d="M4.347,25.336c-0.02,0-0.039-0.001-0.059-0.004c-0.274-0.032-0.47-0.28-0.438-0.555c0.004-0.037,0.429-3.711-0.044-5.214
				c-0.146-0.462-0.501-0.817-0.877-1.194c-0.367-0.366-0.747-0.746-0.99-1.265c-0.567-1.21-1.229-5.76-1.303-6.275
				c-0.039-0.272,0.151-0.526,0.424-0.565c0.27-0.035,0.527,0.15,0.566,0.425c0.194,1.357,0.792,5.081,1.218,5.99
				c0.169,0.361,0.472,0.663,0.792,0.983c0.424,0.425,0.905,0.905,1.124,1.601c0.537,1.707,0.102,5.473,0.083,5.632
				C4.813,25.148,4.597,25.336,4.347,25.336z"/>
		</g>
		<g>
			<path d="M16.152,26.223c-1.139,0-2.527-1.076-2.903-2.928c-0.087-0.431,0.141-0.896,0.361-1.347
				c0.097-0.198,0.26-0.53,0.26-0.644c0-2.026-0.404-3.593-1.029-3.991c-0.283-0.181-1.124-0.064-1.738,0.021
				c-0.727,0.101-1.414,0.197-1.928,0.033c-0.608-0.194-1.358-1.054-1.568-1.539c-0.269-0.621-0.458-2.229,0.04-2.993
				c1.104-1.695,1.739-2.449,2.813-2.732c0.875-0.232,2.405-0.078,3.885,0.07c0.95,0.095,2.362,0.235,2.758,0.117
				c0.069-0.207,0.039-0.412-0.091-0.611c-0.363-0.561-1.583-1.144-3.896-1.114c-0.472,0.007-1.011,0.321-1.532,0.626
				c-0.559,0.326-1.086,0.635-1.628,0.635c-0.495,0-0.877-0.227-1.048-0.62c-0.292-0.672,0.138-1.58,0.661-2.14
				c0.576-0.616,1.301-0.911,1.989-0.837c0.152-0.33,0.367-0.773,0.515-0.979c0.925-1.283,1.896-2.487,2.806-2.715
				c0.574-0.144,1.684,0.214,2.374,0.473c0.313-0.677,0.97-1.866,1.882-2.298c0.25-0.117,0.548-0.011,0.666,0.238
				c0.118,0.25,0.011,0.548-0.238,0.666c-0.735,0.348-1.398,1.749-1.573,2.213c-0.047,0.127-0.145,0.229-0.269,0.283
				c-0.125,0.054-0.266,0.055-0.391,0.003c-0.927-0.386-1.955-0.673-2.21-0.607c-0.68,0.17-1.842,1.782-2.225,2.313
				c-0.132,0.184-0.422,0.8-0.589,1.185c-0.105,0.241-0.38,0.362-0.626,0.271c-0.721-0.25-1.315,0.387-1.48,0.588
				C9.825,8.325,9.78,8.73,9.826,8.81c0.002-0.001,0.027,0.017,0.13,0.017c0.271,0,0.705-0.253,1.124-0.498
				c0.603-0.353,1.287-0.753,2.022-0.763c2.4-0.027,4.07,0.523,4.749,1.57c0.336,0.519,0.381,1.109,0.125,1.661
				c-0.316,0.682-1.435,0.6-3.731,0.372c-1.324-0.134-2.827-0.281-3.53-0.099c-0.646,0.17-1.08,0.545-2.23,2.312
				c-0.231,0.354-0.172,1.561,0.04,2.051c0.137,0.316,0.707,0.904,0.954,0.982c0.296,0.095,0.928,0.007,1.485-0.071
				c0.895-0.124,1.819-0.251,2.414,0.126c1.298,0.827,1.492,3.385,1.492,4.835c0,0.345-0.176,0.703-0.361,1.083
				c-0.108,0.221-0.289,0.59-0.278,0.713c0.284,1.395,1.357,2.185,1.987,2.119c1.386-0.124,3.721-2.114,3.966-3.38
				c0.063-0.327,0.023-0.986-0.016-1.624c-0.048-0.794-0.098-1.616,0.017-2.165c0.12-0.578,0.765-1.732,1.112-2.326
				c-0.332-0.31-0.834-0.793-1.029-1.063c-0.431-0.597-1.225-2.409-1.313-2.614c-0.076-0.175-0.046-0.377,0.077-0.522
				c0.123-0.145,0.319-0.207,0.503-0.162c0.258,0.065,1.566,0.402,2.033,0.691c0.786,0.485,2.249,2.093,2.927,2.86
				c0.048-0.173,0.078-0.412,0.101-0.597c0.079-0.631,0.187-1.495,1.003-1.694c1.31-0.32,2.172,1.053,2.937,2.265
				c0.385,0.61,0.783,1.242,1.15,1.511c0.223,0.163,0.271,0.477,0.107,0.699c-0.164,0.223-0.476,0.271-0.699,0.107
				c-0.52-0.382-0.949-1.063-1.404-1.784c-0.584-0.926-1.247-1.961-1.854-1.827c-0.147,0.036-0.208,0.524-0.248,0.848
				c-0.08,0.639-0.188,1.514-1.034,1.68c-0.174,0.039-0.358-0.027-0.476-0.164c-0.599-0.698-2.313-2.606-3.036-3.053
				c-0.121-0.075-0.403-0.179-0.728-0.282c0.27,0.574,0.581,1.197,0.766,1.454c0.167,0.232,0.818,0.849,1.19,1.183
				c0.179,0.161,0.218,0.427,0.092,0.633c-0.415,0.68-1.106,1.922-1.198,2.362c-0.087,0.419-0.04,1.207,0.002,1.901
				c0.044,0.732,0.086,1.424-0.001,1.874c-0.356,1.844-3.157,4.034-4.859,4.187C16.255,26.221,16.204,26.223,16.152,26.223z"/>
		</g>
	</g>
</g>
</svg>
