<?xml version="1.0" encoding="iso-8859-1"?>
<!-- Generator: Adobe Illustrator 19.2.1, SVG Export Plug-In . SVG Version: 6.00 Build 0)  -->
<svg version="1.1" xmlns="http://www.w3.org/2000/svg" xmlns:xlink="http://www.w3.org/1999/xlink" x="0px" y="0px"
	 viewBox="0 0 30 30" style="enable-background:new 0 0 30 30;" xml:space="preserve">
<g id="Egg">
</g>
<g id="Easter_Egg_1">
</g>
<g id="Easter_Egg_2">
</g>
<g id="Easter_Egg_3">
	<g>
		<path d="M4.636,15.898c1.296-1.224,3.401-1.223,4.695-0.002c0.917,0.865,2.406,0.867,3.322,0.002
			c1.295-1.221,3.401-1.223,4.695-0.002c0.917,0.865,2.405,0.868,3.322,0.002c1.295-1.221,3.4-1.222,4.694-0.002
			c0.376,0.354,0.861,0.564,1.381,0.623c-0.212-1.874-0.76-4.049-1.586-6.196c-0.973-0.871-2.553-0.87-3.524,0.005
			c-1.344,1.209-3.527,1.209-4.871,0c-0.973-0.877-2.557-0.878-3.529-0.001c-0.672,0.605-1.555,0.908-2.437,0.908
			c-0.881,0-1.762-0.302-2.433-0.906c-0.973-0.877-2.552-0.878-3.525-0.006c-0.827,2.148-1.374,4.323-1.586,6.197
			C3.776,16.462,4.261,16.253,4.636,15.898z"/>
		<path d="M9.033,9.584c0.976,0.878,2.559,0.878,3.531,0.002c1.344-1.211,3.528-1.21,4.87-0.002c0.975,0.878,2.56,0.877,3.532,0.001
			c0.969-0.873,2.374-1.106,3.588-0.718C22.448,4.172,19.046,0,15,0c-4.046,0-7.448,4.172-9.554,8.867
			C6.659,8.479,8.064,8.712,9.033,9.584z"/>
		<path d="M24.84,22.933c-0.936-0.87-2.454-0.87-3.392-0.002c-0.656,0.609-1.517,0.914-2.378,0.914c-0.859,0-1.72-0.304-2.374-0.912
			c-0.937-0.87-2.456-0.87-3.391-0.002c-1.312,1.218-3.443,1.219-4.752,0.002c-0.936-0.868-2.456-0.87-3.391-0.002
			c-0.224,0.208-0.479,0.373-0.747,0.513C6.363,27.324,10.37,30,15,30c4.63,0,8.638-2.676,10.586-6.557
			C25.315,23.302,25.06,23.138,24.84,22.933z"/>
		<path d="M24.681,16.626c-0.917-0.866-2.405-0.865-3.322-0.003c-1.296,1.224-3.4,1.224-4.694,0.002
			c-0.918-0.865-2.407-0.865-3.322-0.002c-1.297,1.224-3.402,1.223-4.695,0.002C7.729,15.76,6.24,15.76,5.325,16.623
			c-0.584,0.552-1.344,0.86-2.156,0.904c-0.01,0.214-0.016,0.423-0.016,0.625c0,1.549,0.307,3.024,0.85,4.381
			c0.171-0.094,0.334-0.201,0.477-0.334c1.312-1.219,3.442-1.221,4.752-0.002c0.937,0.869,2.458,0.869,3.391,0.002
			c1.311-1.219,3.441-1.221,4.752-0.002c0.935,0.871,2.456,0.87,3.392,0.002c1.311-1.219,3.442-1.219,4.751-0.002
			c0.144,0.134,0.308,0.241,0.48,0.336c0.543-1.357,0.85-2.833,0.85-4.381c0-0.201-0.006-0.409-0.016-0.622
			C26.021,17.484,25.26,17.172,24.681,16.626z"/>
	</g>
</g>
<g id="Eggs_1">
</g>
<g id="Eggs_2">
</g>
<g id="Bunny">
</g>
<g id="Sheep">
</g>
<g id="Bell_Alarm">
</g>
<g id="Calendar">
</g>
<g id="Tulip">
</g>
<g id="Chicken">
</g>
<g id="Chicken_2">
</g>
<g id="Baguette">
</g>
<g id="Ham">
</g>
<g id="Bell_2">
</g>
<g id="Bell_3">
</g>
<g id="Bell_4">
</g>
<g id="Easter_celebration">
</g>
<g id="Egg_painting">
</g>
<g id="Easter_willow">
</g>
<g id="Daffodil">
</g>
<g id="Easter_message">
</g>
<g id="Bunny_2">
</g>
<g id="Chicken_3">
</g>
<g id="Tulip_2">
</g>
<g id="Easter_basket">
</g>
<g id="Bread_and_wine">
</g>
<g id="Sheep_2">
</g>
<g id="Candle_Light">
</g>
</svg>
