<?xml version="1.0" encoding="iso-8859-1"?>
<!-- Generator: Adobe Illustrator 19.2.1, SVG Export Plug-In . SVG Version: 6.00 Build 0)  -->
<svg version="1.1" xmlns="http://www.w3.org/2000/svg" xmlns:xlink="http://www.w3.org/1999/xlink" x="0px" y="0px"
	 viewBox="0 0 24 24" style="enable-background:new 0 0 24 24;" xml:space="preserve">
<g id="Egg_1_">
</g>
<g id="Easter_Egg_1">
</g>
<g id="Easter_Egg_2">
</g>
<g id="Easter_Egg_3">
</g>
<g id="Eggs_1">
</g>
<g id="Eggs_2_1_">
</g>
<g id="Bunny">
</g>
<g id="Sheep">
</g>
<g id="Bell_Alarm">
</g>
<g id="Calendar">
</g>
<g id="Tulip">
</g>
<g id="Chicken">
</g>
<g id="Chicken_2">
</g>
<g id="Baguette">
</g>
<g id="Ham_1_">
</g>
<g id="Bell_2">
</g>
<g id="Bell_3">
</g>
<g id="Bell_4">
</g>
<g id="Easter_celebration">
</g>
<g id="Egg_painting">
</g>
<g id="Easter_willow">
	<path d="M18.5,8c-0.375,0-0.723,0.047-1.036,0.128c0.855-1.413,1.436-2.326,1.457-2.359c0.149-0.232,0.081-0.542-0.151-0.69
		c-0.233-0.15-0.542-0.082-0.69,0.151c-0.136,0.212-1.53,2.399-3.192,5.283C14.666,9.607,14.143,9,13.5,9
		c-0.855,0-1.5,1.075-1.5,2.5c0,1.14,0.416,2.045,1.019,2.366c-1.155,2.155-2.267,4.414-3.045,6.399
		c0.193-4.6,1.045-11.956,1.58-16.26c0.169,0.094,0.356,0.159,0.574,0.159c0.189,0,0.395-0.036,0.611-0.108
		c0.473-0.157,0.971-0.482,1.403-0.914s0.756-0.93,0.914-1.403c0.197-0.59,0.124-1.096-0.207-1.425
		c-0.329-0.33-0.835-0.403-1.426-0.207c-0.473,0.157-0.971,0.482-1.402,0.914c-0.036,0.036-0.066,0.074-0.1,0.111
		c0.045-0.344,0.072-0.547,0.075-0.565c0.037-0.273-0.155-0.525-0.429-0.563c-0.276-0.035-0.525,0.155-0.563,0.429
		c-0.028,0.208-0.229,1.702-0.495,3.848c-0.112-0.145-0.232-0.288-0.368-0.423C9.711,3.427,9.213,3.102,8.74,2.945
		C8.151,2.748,7.644,2.822,7.314,3.151S6.911,3.988,7.108,4.577C7.265,5.05,7.59,5.548,8.021,5.979
		c0.431,0.432,0.929,0.756,1.402,0.914c0.217,0.072,0.422,0.108,0.611,0.108c0.054,0,0.098-0.02,0.15-0.026
		c-0.372,3.162-0.781,6.965-1.027,10.228c-0.456-2.226-1.012-3.922-1.574-5.215C8.396,11.918,9,10.878,9,9.5C9,8.075,8.355,7,7.5,7
		C6.696,7,6.084,7.957,6.014,9.256c-0.705-0.893-1.23-1.173-1.29-1.203C4.481,7.932,4.186,8.029,4.06,8.272
		C3.934,8.514,4.03,8.815,4.27,8.944c0.015,0.008,0.587,0.34,1.338,1.465C5.323,10.204,5.027,10.04,4.74,9.945
		c-0.589-0.197-1.095-0.124-1.425,0.207c-0.33,0.33-0.403,0.836-0.207,1.426c0.157,0.473,0.482,0.971,0.914,1.402
		c0.431,0.432,0.929,0.756,1.402,0.914c0.217,0.072,0.422,0.108,0.611,0.108c0.327,0,0.606-0.106,0.814-0.315
		c0.091-0.091,0.158-0.198,0.21-0.314c0.812,2.201,1.579,5.438,1.943,10.166l0,0c0.001,0.005,0.001,0.011,0.001,0.016
		c0.001,0.01,0.007,0.018,0.008,0.028c0.005,0.028,0.015,0.053,0.024,0.079c0.008,0.021,0.01,0.045,0.02,0.065
		c0.006,0.012,0.015,0.021,0.022,0.032c0.014,0.023,0.031,0.042,0.048,0.062c0.014,0.016,0.024,0.036,0.039,0.05
		c0.011,0.01,0.025,0.015,0.036,0.024c0.021,0.016,0.043,0.028,0.067,0.041c0.017,0.009,0.031,0.023,0.05,0.03
		c0.017,0.007,0.036,0.006,0.054,0.011c0.014,0.004,0.025,0.013,0.039,0.016C9.441,23.998,9.47,24,9.499,24L9.5,24h0.001h0l0,0
		c0.012,0,0.025,0,0.038-0.001c0.001,0,0.002-0.001,0.003-0.001c0.005,0,0.009,0,0.014-0.001c0.017-0.002,0.03-0.011,0.047-0.015
		c0.035-0.007,0.068-0.016,0.1-0.03c0.011-0.005,0.023-0.007,0.034-0.013c0.014-0.008,0.025-0.019,0.038-0.028
		c0.028-0.018,0.052-0.039,0.076-0.062c0.011-0.011,0.024-0.019,0.034-0.031c0.008-0.01,0.013-0.022,0.021-0.033
		c0.019-0.026,0.033-0.055,0.046-0.085c0.008-0.017,0.019-0.032,0.025-0.05c0.004-0.011,0.004-0.023,0.007-0.034
		c0.002-0.01,0.008-0.017,0.01-0.027c0.361-1.986,1.679-4.943,3.195-7.88c0.205,0.189,0.468,0.292,0.779,0.292
		c0.189,0,0.395-0.036,0.611-0.108c0.473-0.157,0.971-0.482,1.402-0.914c0.432-0.431,0.756-0.929,0.914-1.402
		c0.197-0.589,0.124-1.096-0.206-1.426c-0.33-0.329-0.836-0.404-1.426-0.207c-0.014,0.005-0.028,0.013-0.042,0.017
		c0.355-0.627,0.702-1.229,1.034-1.796C16.648,10.667,17.481,11,18.5,11c1.425,0,2.5-0.645,2.5-1.5S19.926,8,18.5,8z"/>
</g>
<g id="Daffodil">
</g>
<g id="Easter_message">
</g>
<g id="Bunny_2">
</g>
<g id="Chicken_3">
</g>
<g id="Tulip_2">
</g>
<g id="Easter_basket">
</g>
<g id="Bread_and_wine">
</g>
<g id="Sheep_2">
</g>
<g id="Candle_Light">
</g>
</svg>
