<?xml version="1.0" encoding="iso-8859-1"?>
<!-- Generator: Adobe Illustrator 19.2.1, SVG Export Plug-In . SVG Version: 6.00 Build 0)  -->
<svg version="1.1" xmlns="http://www.w3.org/2000/svg" xmlns:xlink="http://www.w3.org/1999/xlink" x="0px" y="0px"
	 viewBox="0 0 30 30" style="enable-background:new 0 0 30 30;" xml:space="preserve">
<g id="Egg">
</g>
<g id="Easter_Egg_1">
</g>
<g id="Easter_Egg_2">
	<g>
		<path d="M24.145,8C22.022,3.671,18.795,0,15,0S7.978,3.671,5.855,8H24.145z"/>
		<path d="M26.513,15c-0.364-1.907-1.017-4.009-1.909-6.021C24.569,8.987,24.537,9,24.5,9h-19C5.463,9,5.431,8.987,5.396,8.979
			C4.504,10.991,3.851,13.093,3.487,15H26.513z M20.043,11.217c0.348,0,0.63,0.282,0.63,0.63c0,0.348-0.282,0.63-0.63,0.63
			c-0.348,0-0.63-0.282-0.63-0.63C19.413,11.5,19.695,11.217,20.043,11.217z M15,11.217c0.348,0,0.63,0.282,0.63,0.63
			c0,0.348-0.282,0.63-0.63,0.63s-0.63-0.282-0.63-0.63C14.37,11.5,14.652,11.217,15,11.217z M9.957,11.217
			c0.348,0,0.63,0.282,0.63,0.63c0,0.348-0.282,0.63-0.63,0.63c-0.348,0-0.63-0.282-0.63-0.63C9.326,11.5,9.608,11.217,9.957,11.217
			z"/>
		<path d="M4.709,24C6.75,27.578,10.594,30,15,30c4.406,0,8.25-2.422,10.291-6H4.709z"/>
		<path d="M3.321,16c-0.109,0.767-0.168,1.493-0.168,2.152c0,1.728,0.381,3.366,1.048,4.848h21.599
			c0.668-1.482,1.048-3.12,1.048-4.848c0-0.659-0.06-1.385-0.168-2.152H3.321z M7.435,20.043c-0.348,0-0.63-0.282-0.63-0.63
			s0.282-0.63,0.63-0.63c0.348,0,0.63,0.282,0.63,0.63S7.783,20.043,7.435,20.043z M12.478,20.043c-0.348,0-0.63-0.282-0.63-0.63
			s0.282-0.63,0.63-0.63c0.348,0,0.63,0.282,0.63,0.63S12.826,20.043,12.478,20.043z M17.522,20.043c-0.348,0-0.63-0.282-0.63-0.63
			s0.282-0.63,0.63-0.63c0.348,0,0.63,0.282,0.63,0.63S17.87,20.043,17.522,20.043z M22.565,20.043c-0.348,0-0.63-0.282-0.63-0.63
			s0.282-0.63,0.63-0.63c0.348,0,0.63,0.282,0.63,0.63S22.913,20.043,22.565,20.043z"/>
	</g>
</g>
<g id="Easter_Egg_3">
</g>
<g id="Eggs_1">
</g>
<g id="Eggs_2">
</g>
<g id="Bunny">
</g>
<g id="Sheep">
</g>
<g id="Bell_Alarm">
</g>
<g id="Calendar">
</g>
<g id="Tulip">
</g>
<g id="Chicken">
</g>
<g id="Chicken_2">
</g>
<g id="Baguette">
</g>
<g id="Ham">
</g>
<g id="Bell_2">
</g>
<g id="Bell_3">
</g>
<g id="Bell_4">
</g>
<g id="Easter_celebration">
</g>
<g id="Egg_painting">
</g>
<g id="Easter_willow">
</g>
<g id="Daffodil">
</g>
<g id="Easter_message">
</g>
<g id="Bunny_2">
</g>
<g id="Chicken_3">
</g>
<g id="Tulip_2">
</g>
<g id="Easter_basket">
</g>
<g id="Bread_and_wine">
</g>
<g id="Sheep_2">
</g>
<g id="Candle_Light">
</g>
</svg>
