<?xml version="1.0" encoding="iso-8859-1"?>
<!-- Generator: Adobe Illustrator 19.2.1, SVG Export Plug-In . SVG Version: 6.00 Build 0)  -->
<svg version="1.1" xmlns="http://www.w3.org/2000/svg" xmlns:xlink="http://www.w3.org/1999/xlink" x="0px" y="0px"
	 viewBox="0 0 30 30" style="enable-background:new 0 0 30 30;" xml:space="preserve">
<g id="Egg">
</g>
<g id="Easter_Egg_1">
</g>
<g id="Easter_Egg_2">
</g>
<g id="Easter_Egg_3_1_">
</g>
<g id="Eggs_1_1_">
</g>
<g id="Eggs_2">
</g>
<g id="Bunny_1_">
</g>
<g id="Sheep_1_">
</g>
<g id="Bell_Alarm">
</g>
<g id="Calendar">
</g>
<g id="Tulip">
</g>
<g id="Chicken">
</g>
<g id="Chicken_2_1_">
</g>
<g id="Baguette_1_">
</g>
<g id="Ham_1_">
</g>
<g id="Bell_2">
</g>
<g id="Bell_3">
</g>
<g id="Bell_4">
</g>
<g id="Easter_celebration">
</g>
<g id="Egg_painting">
</g>
<g id="Easter_willow">
</g>
<g id="Daffodil">
</g>
<g id="Easter_message">
</g>
<g id="Bunny_2">
</g>
<g id="Chicken_3">
</g>
<g id="Tulip_2">
</g>
<g id="Easter_basket">
	<g>
		<g>
			<path d="M15,30C8.495,30,3,23.817,3,16.5C3,16.224,3.224,16,3.5,16S4,16.224,4,16.5C4,23.159,9.141,29,15,29s11-5.841,11-12.5
				c0-0.276,0.224-0.5,0.5-0.5s0.5,0.224,0.5,0.5C27,23.817,21.505,30,15,30z"/>
		</g>
		<g>
			<path d="M15,19.195c-4.15,0-12-0.643-12-3.076s7.85-3.076,12-3.076s12,0.643,12,3.076S19.15,19.195,15,19.195z M15,14.043
				c-7.117,0-11,1.371-11,2.076s3.883,2.076,11,2.076s11-1.371,11-2.076S22.117,14.043,15,14.043z"/>
		</g>
		<g>
			<path d="M3.5,17.119c-0.276,0-0.5-0.224-0.5-0.5c0-0.353,0.075-8.685,6.601-13.288c0.226-0.16,0.538-0.107,0.696,0.12
				c0.159,0.226,0.105,0.537-0.12,0.696C4.07,8.456,4,16.538,4,16.619C4,16.896,3.776,17.119,3.5,17.119z"/>
		</g>
		<g>
			<path d="M26.5,17.119c-0.275,0-0.5-0.224-0.5-0.5c0-0.081-0.082-8.171-6.177-12.472c-0.226-0.159-0.279-0.471-0.12-0.696
				c0.159-0.228,0.471-0.28,0.696-0.12C26.925,7.935,27,16.267,27,16.619C27,16.896,26.776,17.119,26.5,17.119L26.5,17.119z"/>
		</g>
		<g>
			<path d="M15,23.072c-5.908,0-10.447-1.277-10.638-1.332c-0.265-0.075-0.419-0.353-0.343-0.618
				c0.075-0.264,0.348-0.424,0.618-0.343C4.683,20.792,9.239,22.072,15,22.072s10.317-1.28,10.362-1.293
				c0.267-0.08,0.543,0.079,0.618,0.343c0.076,0.266-0.078,0.543-0.343,0.618C25.447,21.795,20.908,23.072,15,23.072z"/>
		</g>
		<g>
			<path d="M15,26.934c-5.267,0-8.549-1.288-8.686-1.344c-0.257-0.103-0.381-0.393-0.278-0.649s0.396-0.378,0.649-0.279
				c0.031,0.013,3.256,1.272,8.314,1.272s8.283-1.26,8.314-1.272c0.252-0.099,0.547,0.022,0.649,0.279s-0.021,0.547-0.278,0.649
				C23.549,25.646,20.267,26.934,15,26.934z"/>
		</g>
		<g>
			<g>
				<path d="M15,6.815c-1.02,0-1.788-1.322-1.788-3.076S13.98,0.663,15,0.663s1.788,1.322,1.788,3.076S16.02,6.815,15,6.815z
					 M15,1.663c-0.278,0-0.788,0.788-0.788,2.076S14.722,5.815,15,5.815s0.788-0.788,0.788-2.076S15.278,1.663,15,1.663z"/>
			</g>
			<g>
				<path d="M20.339,7.476c-0.175,0-0.35-0.04-0.513-0.121l-3.762-1.88c-0.169-0.085-0.276-0.258-0.276-0.447V2.451
					c0-0.189,0.107-0.362,0.276-0.447l3.762-1.881c0.413-0.209,0.908-0.147,1.261,0.159c0.351,0.304,0.482,0.785,0.336,1.226
					l-0.729,2.276l0.729,2.186c0.146,0.44,0.015,0.922-0.336,1.226C20.874,7.381,20.607,7.476,20.339,7.476z M16.788,4.718
					l3.485,1.742c0.072,0.034,0.125,0.008,0.158-0.02c0.033-0.029,0.067-0.079,0.042-0.154l-0.729-2.186
					c-0.077-0.233-0.077-0.49,0-0.724l0.729-2.186c0.025-0.075-0.009-0.125-0.042-0.154c-0.033-0.028-0.086-0.059-0.158-0.02
					L16.788,2.76V4.718z"/>
			</g>
			<g>
				<path d="M9.661,7.476c-0.269,0-0.535-0.095-0.748-0.28C8.563,6.892,8.431,6.41,8.577,5.97l0.729-2.186L8.577,1.508
					c-0.146-0.44-0.015-0.922,0.336-1.226c0.352-0.306,0.848-0.367,1.261-0.159l3.762,1.881c0.169,0.085,0.276,0.258,0.276,0.447
					v2.576c0,0.189-0.107,0.362-0.276,0.447l-3.762,1.88C10.011,7.437,9.836,7.476,9.661,7.476z M9.66,1
					C9.621,1,9.59,1.019,9.568,1.037C9.535,1.066,9.501,1.116,9.526,1.191l0.729,2.186c0.077,0.233,0.077,0.49,0,0.724L9.526,6.286
					C9.501,6.361,9.535,6.411,9.568,6.44C9.6,6.468,9.652,6.497,9.727,6.46l3.485-1.742V2.76L9.727,1.018l0,0
					C9.702,1.005,9.68,1,9.66,1z"/>
			</g>
		</g>
	</g>
</g>
<g id="Bread_and_wine">
</g>
<g id="Sheep_2">
</g>
<g id="Candle_Light">
</g>
</svg>
