<?xml version="1.0" encoding="iso-8859-1"?>
<!-- Generator: Adobe Illustrator 19.2.1, SVG Export Plug-In . SVG Version: 6.00 Build 0)  -->
<svg version="1.1" xmlns="http://www.w3.org/2000/svg" xmlns:xlink="http://www.w3.org/1999/xlink" x="0px" y="0px"
	 viewBox="0 0 24 24" style="enable-background:new 0 0 24 24;" xml:space="preserve">
<g id="Egg_1_">
</g>
<g id="Easter_Egg_1">
</g>
<g id="Easter_Egg_2">
	<g>
		<path d="M2.5,14.5c0,1.237,0.245,2.415,0.677,3.5h17.647c0.432-1.085,0.677-2.263,0.677-3.5c0-0.461-0.046-0.971-0.113-1.5H2.613
			C2.546,13.529,2.5,14.039,2.5,14.5z M18,15c0.276,0,0.5,0.224,0.5,0.5c0,0.276-0.224,0.5-0.5,0.5s-0.5-0.224-0.5-0.5
			C17.5,15.224,17.724,15,18,15z M14,15c0.276,0,0.5,0.224,0.5,0.5c0,0.276-0.224,0.5-0.5,0.5s-0.5-0.224-0.5-0.5
			C13.5,15.224,13.724,15,14,15z M10,15c0.276,0,0.5,0.224,0.5,0.5c0,0.276-0.224,0.5-0.5,0.5s-0.5-0.224-0.5-0.5
			C9.5,15.224,9.724,15,10,15z M6,15c0.276,0,0.5,0.224,0.5,0.5C6.5,15.776,6.276,16,6,16s-0.5-0.224-0.5-0.5
			C5.5,15.224,5.724,15,6,15z"/>
		<path d="M4.386,7c-0.76,1.669-1.312,3.415-1.614,5h18.456c-0.302-1.585-0.854-3.331-1.614-5H4.386z M8,10
			c-0.276,0-0.5-0.224-0.5-0.5C7.5,9.224,7.724,9,8,9s0.5,0.224,0.5,0.5C8.5,9.776,8.276,10,8,10z M12,10
			c-0.276,0-0.5-0.224-0.5-0.5C11.5,9.224,11.724,9,12,9s0.5,0.224,0.5,0.5C12.5,9.776,12.276,10,12,10z M16,10
			c-0.276,0-0.5-0.224-0.5-0.5C15.5,9.224,15.724,9,16,9s0.5,0.224,0.5,0.5C16.5,9.776,16.276,10,16,10z"/>
		<path d="M3.636,19c1.607,2.974,4.753,5,8.364,5s6.757-2.026,8.364-5H3.636z"/>
		<path d="M19.127,6C17.424,2.717,14.926,0,12,0S6.576,2.717,4.873,6H19.127z"/>
	</g>
</g>
<g id="Easter_Egg_3">
</g>
<g id="Eggs_1">
</g>
<g id="Eggs_2_1_">
</g>
<g id="Bunny">
</g>
<g id="Sheep">
</g>
<g id="Bell_Alarm">
</g>
<g id="Calendar">
</g>
<g id="Tulip">
</g>
<g id="Chicken">
</g>
<g id="Chicken_2">
</g>
<g id="Baguette">
</g>
<g id="Ham_1_">
</g>
<g id="Bell_2">
</g>
<g id="Bell_3">
</g>
<g id="Bell_4">
</g>
<g id="Easter_celebration">
</g>
<g id="Egg_painting">
</g>
<g id="Easter_willow">
</g>
<g id="Daffodil">
</g>
<g id="Easter_message">
</g>
<g id="Bunny_2">
</g>
<g id="Chicken_3">
</g>
<g id="Tulip_2">
</g>
<g id="Easter_basket">
</g>
<g id="Bread_and_wine">
</g>
<g id="Sheep_2">
</g>
<g id="Candle_Light">
</g>
</svg>
