<?xml version="1.0" encoding="iso-8859-1"?>
<!-- Generator: Adobe Illustrator 19.2.1, SVG Export Plug-In . SVG Version: 6.00 Build 0)  -->
<svg version="1.1" xmlns="http://www.w3.org/2000/svg" xmlns:xlink="http://www.w3.org/1999/xlink" x="0px" y="0px"
	 viewBox="0 0 30 30" style="enable-background:new 0 0 30 30;" xml:space="preserve">
<g id="Egg">
</g>
<g id="Easter_Egg_1">
</g>
<g id="Easter_Egg_2">
</g>
<g id="Easter_Egg_3">
</g>
<g id="Eggs_1">
</g>
<g id="Eggs_2">
</g>
<g id="Bunny">
</g>
<g id="Sheep">
</g>
<g id="Bell_Alarm">
</g>
<g id="Calendar">
</g>
<g id="Tulip">
</g>
<g id="Chicken">
</g>
<g id="Chicken_2">
</g>
<g id="Baguette">
</g>
<g id="Ham">
</g>
<g id="Bell_2">
</g>
<g id="Bell_3">
</g>
<g id="Bell_4">
</g>
<g id="Easter_celebration">
</g>
<g id="Egg_painting">
</g>
<g id="Easter_willow">
</g>
<g id="Daffodil">
</g>
<g id="Easter_message">
</g>
<g id="Bunny_2">
</g>
<g id="Chicken_3">
</g>
<g id="Tulip_2">
</g>
<g id="Easter_basket">
	<g>
		<path d="M3.884,21.902c0.362,0.949,0.823,1.847,1.38,2.673c0.549,0.203,4.213,1.474,9.737,1.474c5.538,0,9.188-1.27,9.736-1.473
			c0.557-0.826,1.018-1.725,1.38-2.674c-1.865,0.433-6.101,1.264-11.116,1.264C9.985,23.166,5.749,22.335,3.884,21.902z"/>
		<path d="M6.355,25.966C8.554,28.429,11.635,30,15,30c3.365,0,6.446-1.57,8.645-4.033c-1.687,0.462-4.683,1.082-8.645,1.082
			S8.042,26.429,6.355,25.966z"/>
		<path d="M3.036,17.985c0.054,0.964,0.225,1.898,0.479,2.799C4.811,21.113,9.402,22.166,15,22.166
			c5.598,0,10.19-1.054,11.485-1.382c0.254-0.901,0.425-1.835,0.479-2.799c-2.485,1.953-8.856,2.21-11.964,2.21
			C11.892,20.195,5.521,19.938,3.036,17.985z"/>
		<path d="M8.805,5.286L8.577,5.97C8.43,6.411,8.562,6.892,8.913,7.196c0.213,0.185,0.479,0.28,0.749,0.28
			c0.174,0,0.349-0.04,0.512-0.121l3.414-1.707C13.909,6.362,14.409,6.815,15,6.815s1.091-0.453,1.413-1.167l3.414,1.707
			c0.163,0.082,0.338,0.121,0.512,0.121c0.27,0,0.536-0.095,0.749-0.28c0.351-0.304,0.482-0.786,0.336-1.226l-0.228-0.683
			c2.678,2.521,3.862,5.801,4.387,8.184c0.436,0.182,0.821,0.389,1.157,0.62c-0.487-2.829-1.897-7.408-6.01-10.501l0.694-2.082
			c0.146-0.44,0.015-0.922-0.336-1.226c-0.351-0.305-0.845-0.367-1.261-0.159l-3.414,1.707C16.091,1.115,15.591,0.663,15,0.663
			s-1.091,0.453-1.413,1.167l-3.414-1.707c-0.416-0.208-0.91-0.146-1.261,0.159C8.562,0.586,8.43,1.067,8.577,1.508l0.672,2.099
			C5.154,6.699,3.748,11.266,3.261,14.09c0.335-0.23,0.719-0.437,1.154-0.619C4.938,11.089,6.122,7.81,8.805,5.286z"/>
		<path d="M15,19.195c4.15,0,12-0.643,12-3.076c0-2.433-7.85-3.076-12-3.076S3,13.687,3,16.119C3,18.553,10.85,19.195,15,19.195z"/>
	</g>
</g>
<g id="Bread_and_wine">
</g>
<g id="Sheep_2">
</g>
<g id="Candle_Light">
</g>
</svg>
