<?xml version="1.0" encoding="iso-8859-1"?>
<!-- Generator: Adobe Illustrator 19.2.1, SVG Export Plug-In . SVG Version: 6.00 Build 0)  -->
<svg version="1.1" xmlns="http://www.w3.org/2000/svg" xmlns:xlink="http://www.w3.org/1999/xlink" x="0px" y="0px"
	 viewBox="0 0 24 24" style="enable-background:new 0 0 24 24;" xml:space="preserve">
<g id="Egg_1_">
</g>
<g id="Easter_Egg_1">
</g>
<g id="Easter_Egg_2">
</g>
<g id="Easter_Egg_3">
</g>
<g id="Eggs_1">
</g>
<g id="Eggs_2_1_">
</g>
<g id="Bunny">
</g>
<g id="Sheep">
</g>
<g id="Bell_Alarm">
</g>
<g id="Calendar">
</g>
<g id="Tulip">
</g>
<g id="Chicken">
</g>
<g id="Chicken_2">
</g>
<g id="Baguette">
</g>
<g id="Ham_1_">
</g>
<g id="Bell_2">
</g>
<g id="Bell_3">
</g>
<g id="Bell_4">
</g>
<g id="Easter_celebration">
</g>
<g id="Egg_painting">
</g>
<g id="Easter_willow">
</g>
<g id="Daffodil">
</g>
<g id="Easter_message">
	<g>
		<path d="M18.5,0h-14C2.019,0,0,2.019,0,4.5v19c0,0.21,0.132,0.398,0.33,0.47C0.385,23.99,0.443,24,0.5,24
			c0.146,0,0.287-0.063,0.384-0.18L5.734,18H18.5c2.481,0,4.5-2.019,4.5-4.5v-9C23,2.019,20.981,0,18.5,0z M11.5,14
			c-1.519,0-2.803-0.979-3.286-2.335c-0.064-0.092-0.099-0.195-0.094-0.302C8.049,11.085,8,10.799,8,10.5
			c0-0.9,0.34-2.193,0.913-3.301C8.917,7.19,8.922,7.182,8.926,7.174C9.552,5.975,10.452,5,11.5,5c2.022,0,3.5,3.617,3.5,5.5
			c0,0.361-0.071,0.703-0.173,1.031c-0.003,0.008-0.004,0.015-0.007,0.023C14.369,12.967,13.06,14,11.5,14z"/>
		<path d="M10.5,7.793l0.646-0.646c0.195-0.195,0.512-0.195,0.707,0L12.5,7.793l0.502-0.502C12.561,6.546,12.024,6,11.5,6
			s-1.061,0.546-1.502,1.291L10.5,7.793z"/>
		<path d="M12.854,8.854C12.756,8.951,12.628,9,12.5,9s-0.256-0.049-0.354-0.146L11.5,8.207l-0.646,0.646
			c-0.195,0.195-0.512,0.195-0.707,0L9.532,8.239C9.243,8.94,9.049,9.683,9.01,10.283l0.136-0.136c0.195-0.195,0.512-0.195,0.707,0
			l0.646,0.646l0.646-0.646c0.195-0.195,0.512-0.195,0.707,0l0.646,0.646l0.646-0.646c0.195-0.195,0.512-0.195,0.707,0l0.136,0.136
			c-0.039-0.599-0.233-1.342-0.521-2.044L12.854,8.854z"/>
		<path d="M13.5,11.207l-0.646,0.646C12.756,11.951,12.628,12,12.5,12s-0.256-0.049-0.354-0.146L11.5,11.207l-0.646,0.646
			c-0.195,0.195-0.512,0.195-0.707,0L9.5,11.207l-0.29,0.29C9.596,12.38,10.476,13,11.5,13s1.904-0.62,2.29-1.503L13.5,11.207z"/>
	</g>
</g>
<g id="Bunny_2">
</g>
<g id="Chicken_3">
</g>
<g id="Tulip_2">
</g>
<g id="Easter_basket">
</g>
<g id="Bread_and_wine">
</g>
<g id="Sheep_2">
</g>
<g id="Candle_Light">
</g>
</svg>
