<?xml version="1.0" encoding="iso-8859-1"?>
<!-- Generator: Adobe Illustrator 19.2.1, SVG Export Plug-In . SVG Version: 6.00 Build 0)  -->
<svg version="1.1" xmlns="http://www.w3.org/2000/svg" xmlns:xlink="http://www.w3.org/1999/xlink" x="0px" y="0px"
	 viewBox="0 0 30 30" style="enable-background:new 0 0 30 30;" xml:space="preserve">
<g id="Add_User">
</g>
<g id="Remove_User">
</g>
<g id="Delete_User">
</g>
<g id="Done">
</g>
<g id="At_Symbol">
</g>
<g id="Question">
</g>
<g id="Answer">
</g>
<g id="Bring_Up">
</g>
<g id="Bring_Down">
</g>
<g id="Dismiss_User">
</g>
<g id="User_Speed">
</g>
<g id="User_Settings">
</g>
<g id="User_Refresh">
</g>
<g id="User_Time">
</g>
<g id="Dollar">
</g>
<g id="Euro">
</g>
<g id="Pound">
</g>
<g id="Bitcoin">
</g>
<g id="Global_User">
</g>
<g id="Waiting_User">
</g>
<g id="Writing_User_2">
</g>
<g id="Search_User">
</g>
<g id="Lock_User">
</g>
<g id="Mark_User">
</g>
<g id="Share_User">
</g>
<g id="Shopping">
</g>
<g id="User_Download">
</g>
<g id="User_Upload">
</g>
<g id="User_Statistics">
</g>
<g id="User_Defense">
</g>
<g id="User_Car">
</g>
<g id="User_Home">
</g>
<g id="Park">
</g>
<g id="Recicle_User">
</g>
<g id="Wifi">
</g>
<g id="Attach_User">
</g>
<g id="Disabled_User">
</g>
<g id="User_Card">
</g>
<g id="Gaming">
</g>
<g id="User_Cloud">
</g>
<g id="User_Database">
</g>
<g id="Copyright">
</g>
<g id="No_Copyright">
</g>
<g id="Creative_Commun">
</g>
<g id="Eco-Friendly">
	<g>
		<g>
			<g>
				<path d="M27.5,25.5c-1.378,0-2.5-1.122-2.5-2.5s1.122-2.5,2.5-2.5S30,21.622,30,23S28.878,25.5,27.5,25.5z M27.5,21.5
					c-0.827,0-1.5,0.673-1.5,1.5s0.673,1.5,1.5,1.5S29,23.827,29,23S28.327,21.5,27.5,21.5z"/>
			</g>
			<g>
				<path d="M27.5,30c-0.276,0-0.5-0.224-0.5-0.5v-4c0-0.276,0.224-0.5,0.5-0.5s0.5,0.224,0.5,0.5v4C28,29.776,27.776,30,27.5,30z"
					/>
			</g>
			<g>
				<path d="M25.5,30c-0.276,0-0.5-0.224-0.5-0.5v-2.75c0-0.414-0.336-0.75-0.75-0.75h-2.5C21.336,26,21,26.336,21,26.75v2.75
					c0,0.276-0.224,0.5-0.5,0.5S20,29.776,20,29.5v-2.75c0-0.965,0.785-1.75,1.75-1.75h2.5c0.965,0,1.75,0.785,1.75,1.75v2.75
					C26,29.776,25.776,30,25.5,30z"/>
			</g>
			<g>
				<path d="M18.5,30h-18C0.224,30,0,29.776,0,29.5v-3.055c0-1.585,0.688-2.618,2.045-3.07l5.547-1.849
					c1.406-0.587,2.03-2.868,2.14-3.687C9.139,17.311,7.75,15.921,7.75,14.5c0-0.654-0.263-0.769-0.274-0.773
					C7.331,13.69,7.238,13.6,7.173,13.465C7.146,13.407,6.5,12.039,6.5,11C6.516,10.499,6.661,9.946,7,9.673V6.5
					C7,3.883,9.729,0,13.5,0c3.667,0,4.639,2.078,4.741,3.076C18.811,3.375,20,4.075,20,6.5v3.173
					c0.339,0.272,0.484,0.821,0.5,1.312c0,1.091-0.989,2.42-1.102,2.569c-0.069,0.09-0.167,0.154-0.277,0.182
					c0.015,0.004-0.246,0.083-0.246,0.765c0,1.223-0.503,2.403-1.358,3.21c0.106,0.841,0.732,3.227,2.176,3.828l4.014,1.4
					c0.261,0.091,0.398,0.376,0.308,0.637c-0.091,0.262-0.376,0.398-0.637,0.308l-4.042-1.411c-2.278-0.948-2.835-4.5-2.835-4.972
					c0-0.149,0.066-0.291,0.182-0.385c0.736-0.608,1.193-1.61,1.193-2.615c0-0.98,0.442-1.47,0.805-1.658
					c0.346-0.484,0.82-1.325,0.82-1.842c-0.006-0.174-0.055-0.407-0.105-0.511C19.169,10.44,19,10.24,19,10V6.5
					c0-1.902-0.831-2.334-1.277-2.566c-0.201-0.105-0.452-0.235-0.499-0.539c-0.01-0.067-0.001-0.147,0.022-0.226
					C17.187,2.526,16.43,1,13.5,1C10.142,1,8,4.611,8,6.5V10c0,0.24-0.169,0.441-0.395,0.489c-0.053,0.11-0.1,0.359-0.105,0.527
					c0,0.574,0.317,1.427,0.504,1.859c0.35,0.209,0.746,0.697,0.746,1.625c0,0.85,0.943,2.016,1.818,2.74
					c0.115,0.095,0.182,0.236,0.182,0.385c0,0.776-0.702,3.959-2.808,4.836l-5.581,1.862C1.42,24.637,1,25.292,1,26.445V29h17.5
					c0.276,0,0.5,0.224,0.5,0.5S18.776,30,18.5,30z"/>
			</g>
			<g>
				<path d="M25.5,29h-5c-0.276,0-0.5-0.224-0.5-0.5s0.224-0.5,0.5-0.5h5c0.276,0,0.5,0.224,0.5,0.5S25.776,29,25.5,29z"/>
			</g>
		</g>
	</g>
</g>
<g id="Percentage">
</g>
<g id="User_Love">
</g>
<g id="User_Place">
</g>
<g id="User_Key">
</g>
<g id="Sleeping">
</g>
<g id="Add_User_2">
</g>
<g id="Remove_User_2">
</g>
<g id="Delete_User_2">
</g>
<g id="Done_2">
</g>
<g id="At_Symbol_2">
</g>
<g id="Question_2">
</g>
<g id="Answer_2">
</g>
<g id="Bring_Up_2">
</g>
<g id="Bring_Down_2">
</g>
<g id="Dismiss_User_2">
</g>
<g id="User_Speed_2">
</g>
<g id="User_Settings_2">
</g>
<g id="Refresh_2">
</g>
<g id="Time_2">
</g>
<g id="Dollar_2">
</g>
<g id="Euro_2">
</g>
<g id="Pound_2">
</g>
<g id="Bitcoin_2">
</g>
<g id="Global_User_2">
</g>
<g id="Waiting_User_2">
</g>
<g id="Writing_User">
</g>
<g id="Search_User_2">
</g>
<g id="Lock_User_2">
</g>
<g id="Mark_User_2">
</g>
<g id="Share_User_2">
</g>
<g id="Shopping_2">
</g>
<g id="Download_2">
</g>
<g id="Upload_2">
</g>
<g id="User_Statistics_2">
</g>
<g id="User_Defense_2">
</g>
<g id="Car_2">
</g>
<g id="Home_2">
</g>
<g id="Park_2">
</g>
<g id="Recicle_User_2">
</g>
<g id="User_Wifi">
</g>
<g id="Attach_2">
</g>
<g id="Disabled_User_2">
</g>
<g id="User_Card_2">
</g>
<g id="Gaming_2">
</g>
<g id="Cloud_2">
</g>
<g id="Database_2">
</g>
<g id="Copyright_2">
</g>
<g id="No_Copyright_2">
</g>
<g id="Creative_Commun_2">
</g>
<g id="Eco-Friendly_2">
</g>
<g id="Percentage_2">
</g>
<g id="User_Love_2">
</g>
<g id="User_Rate_2">
</g>
<g id="User_Key_2">
</g>
<g id="Sleeping_2">
</g>
</svg>
