<?xml version="1.0" encoding="iso-8859-1"?>
<!-- Generator: Adobe Illustrator 19.2.1, SVG Export Plug-In . SVG Version: 6.00 Build 0)  -->
<svg version="1.1" xmlns="http://www.w3.org/2000/svg" xmlns:xlink="http://www.w3.org/1999/xlink" x="0px" y="0px"
	 viewBox="0 0 24 24" style="enable-background:new 0 0 24 24;" xml:space="preserve">
<g id="Add_User">
</g>
<g id="Remove_User">
</g>
<g id="Delete_User">
</g>
<g id="Done">
</g>
<g id="At_Symbol">
</g>
<g id="Question">
</g>
<g id="Answer">
</g>
<g id="Bring_Up">
</g>
<g id="Bring_Down">
</g>
<g id="Dismiss_User">
</g>
<g id="User_Speed">
</g>
<g id="User_Settings">
</g>
<g id="User_Refresh">
</g>
<g id="User_Time">
</g>
<g id="Dollar">
</g>
<g id="Euro">
</g>
<g id="Pound">
</g>
<g id="Bitcoin">
</g>
<g id="Global_User">
</g>
<g id="Waiting_User">
</g>
<g id="Writing_User_2">
</g>
<g id="Search_User">
</g>
<g id="Lock_User">
</g>
<g id="Mark_User">
</g>
<g id="Share_User">
</g>
<g id="Shopping">
</g>
<g id="User_Download">
</g>
<g id="User_Upload">
</g>
<g id="User_Statistics">
</g>
<g id="User_Defense">
</g>
<g id="User_Car">
</g>
<g id="User_Home">
</g>
<g id="Park">
</g>
<g id="Recicle_User">
</g>
<g id="Wifi">
</g>
<g id="Attach_User">
</g>
<g id="Disabled_User">
</g>
<g id="User_Card">
</g>
<g id="Gaming">
</g>
<g id="User_Cloud">
</g>
<g id="User_Database">
</g>
<g id="Copyright">
</g>
<g id="No_Copyright">
</g>
<g id="Creative_Commun">
</g>
<g id="Eco-Friendly">
</g>
<g id="Percentage">
</g>
<g id="User_Love">
</g>
<g id="User_Place">
</g>
<g id="User_Key">
</g>
<g id="Sleeping">
</g>
<g id="Add_User_2">
</g>
<g id="Remove_User_2">
</g>
<g id="Delete_User_2">
</g>
<g id="Done_2">
</g>
<g id="At_Symbol_2">
</g>
<g id="Question_2">
</g>
<g id="Answer_2">
</g>
<g id="Bring_Up_2">
</g>
<g id="Bring_Down_2">
</g>
<g id="Dismiss_User_2">
</g>
<g id="User_Speed_2">
</g>
<g id="User_Settings_2">
</g>
<g id="Refresh_2">
</g>
<g id="Time_2">
</g>
<g id="Dollar_2">
</g>
<g id="Euro_2">
</g>
<g id="Pound_2">
</g>
<g id="Bitcoin_2">
</g>
<g id="Global_User_2">
</g>
<g id="Waiting_User_2">
</g>
<g id="Writing_User">
</g>
<g id="Search_User_2">
</g>
<g id="Lock_User_2">
</g>
<g id="Mark_User_2">
</g>
<g id="Share_User_2">
</g>
<g id="Shopping_2">
</g>
<g id="Download_2">
</g>
<g id="Upload_2">
</g>
<g id="User_Statistics_2">
</g>
<g id="User_Defense_2">
</g>
<g id="Car_2">
</g>
<g id="Home_2">
</g>
<g id="Park_2">
</g>
<g id="Recicle_User_2">
</g>
<g id="User_Wifi">
</g>
<g id="Attach_2">
</g>
<g id="Disabled_User_2">
</g>
<g id="User_Card_2">
</g>
<g id="Gaming_2">
</g>
<g id="Cloud_2">
</g>
<g id="Database_2">
</g>
<g id="Copyright_2">
</g>
<g id="No_Copyright_2">
</g>
<g id="Creative_Commun_2">
</g>
<g id="Eco-Friendly_2">
	<g>
		<path d="M13,19.425c0-1.234,0.472-2.42,1.33-3.337c0.136-0.146,0.173-0.358,0.093-0.541c-0.228-0.523-0.353-1.044-0.4-1.339
			c0.765-0.702,1.478-1.759,1.478-2.708c0-0.354,0.105-0.5,0.121-0.515c0.156-0.039,0.284-0.15,0.343-0.3
			C16.019,10.549,16.5,9.322,16.5,8.5c0-0.041-0.005-0.082-0.015-0.121C16.43,8.159,16.277,7.839,16,7.651V5
			c0-1.611-0.492-2.271-1.01-2.655C14.892,1.569,14.06,0,11,0C7.902,0,6,2.912,6,5v2.651C5.723,7.839,5.57,8.159,5.515,8.379
			C5.505,8.418,5.5,8.459,5.5,8.5c0,0.822,0.481,2.049,0.536,2.186c0.06,0.149,0.148,0.248,0.304,0.287
			C6.395,11,6.5,11.146,6.5,11.5c0,0.949,0.713,2.006,1.478,2.708c-0.105,0.655-0.593,2.382-1.636,2.817l-4.438,1.479
			c-1.219,0.406-1.628,1.428-1.889,2.472C0.005,21.016,0,21.057,0,21.098V23.5C0,23.776,0.224,24,0.5,24h12
			c0.133,0,0.26-0.053,0.354-0.146S13,23.633,13,23.5c0-0.581,0.125-1.199,0.371-1.839c0.046-0.119,0.045-0.252-0.004-0.37
			C13.123,20.699,13,20.07,13,19.425z"/>
		<path d="M23.962,14.309C23.885,14.122,23.702,14,23.5,14c-3.354,0-6.79,1.094-8.355,2.66c-0.986,0.985-1.324,2.368-1.035,3.636
			C15.324,18.447,17.261,17,18.5,17c0.276,0,0.5,0.224,0.5,0.5S18.776,18,18.5,18c-1.341,0-4.5,2.877-4.5,5.5
			c0,0.276,0.224,0.5,0.5,0.5s0.5-0.224,0.5-0.5c0-0.413,0.099-0.826,0.261-1.225c0.67,0.589,1.588,0.731,2.263,0.731
			c1.302,0,2.64-0.463,3.329-1.152c1.228-1.228,1.539-2.739,1.813-4.073c0.242-1.176,0.451-2.191,1.187-2.927
			C23.997,14.71,24.039,14.496,23.962,14.309z"/>
	</g>
</g>
<g id="Percentage_2">
</g>
<g id="User_Love_2">
</g>
<g id="User_Rate_2">
</g>
<g id="User_Key_2">
</g>
<g id="Sleeping_2">
</g>
</svg>
