<?xml version="1.0" encoding="iso-8859-1"?>
<!-- Generator: Adobe Illustrator 19.2.1, SVG Export Plug-In . SVG Version: 6.00 Build 0)  -->
<svg version="1.1" xmlns="http://www.w3.org/2000/svg" xmlns:xlink="http://www.w3.org/1999/xlink" x="0px" y="0px"
	 viewBox="0 0 30 30" style="enable-background:new 0 0 30 30;" xml:space="preserve">
<g id="Add_Users">
</g>
<g id="Remove_Users">
</g>
<g id="Delete_Users">
</g>
<g id="Done_3">
</g>
<g id="At_Symbol_3">
</g>
<g id="Question_3">
</g>
<g id="Answer_3">
</g>
<g id="Bring_Up_3">
</g>
<g id="Bring_Down_3">
</g>
<g id="Dismiss_Users">
</g>
<g id="Users_Speed_3">
</g>
<g id="Users_Settings">
</g>
<g id="Refresh_Users">
</g>
<g id="Time_3">
</g>
<g id="Dollar_3">
</g>
<g id="Euro_3">
</g>
<g id="Pound_3">
</g>
<g id="Bitcoin_3">
</g>
<g id="Global_Users">
</g>
<g id="Waiting_Users">
</g>
<g id="Writing_Users">
</g>
<g id="Search_Users">
</g>
<g id="Lock_Users">
</g>
<g id="Mark_Users">
</g>
<g id="Share_Users">
</g>
<g id="Shopping_3">
</g>
<g id="Download_3">
</g>
<g id="Upload_3">
</g>
<g id="Users_Statistics">
</g>
<g id="Users_Defense">
</g>
<g id="Car_3">
</g>
<g id="Home_3">
</g>
<g id="Park_3">
</g>
<g id="Recicle_Users">
</g>
<g id="Wifi_3">
</g>
<g id="Attach_3">
</g>
<g id="Disabled_Users">
</g>
<g id="Users_Card">
</g>
<g id="Gaming_3">
</g>
<g id="Cloud_3">
</g>
<g id="Database_3">
</g>
<g id="Copyright_3">
</g>
<g id="No_Copzright_3">
</g>
<g id="Creative_Commun_3">
</g>
<g id="Eco-Friendly_3">
	<g>
		<g>
			<path d="M0.5,21.998c-0.276,0-0.5-0.224-0.5-0.5c0-2.38,1.612-4.444,3.92-5.021l3.472-0.868l0.306-1.223
				c-0.872-0.909-1.475-2.13-1.669-3.376c-0.575-0.125-1.027-0.601-1.103-1.204L4.697,7.98c-0.05-0.402,0.075-0.808,0.343-1.111
				c0.163-0.185,0.371-0.321,0.599-0.4c-0.065-0.562-0.161-1.457-0.161-1.86c0-1.782,0.533-3.608,4.449-3.692
				C11.298,0,12.764,0,13.402,0c1.626,0,2.802,0.537,3.495,1.595c0.905,1.385,0.47,2.341-0.054,2.899l-0.331,0.331l-0.082,1.672
				c0.204,0.082,0.387,0.211,0.535,0.38c0.264,0.302,0.387,0.704,0.337,1.103l-0.229,1.827c-0.071,0.564-0.472,1.019-0.994,1.176
				c-0.195,1.298-0.831,2.561-1.757,3.486l0.285,1.141l3.473,0.868c1.051,0.263,1.983,0.849,2.694,1.693
				c0.178,0.212,0.151,0.527-0.061,0.705c-0.212,0.179-0.528,0.149-0.704-0.061c-0.575-0.684-1.326-1.156-2.172-1.367l-3.764-0.941
				c-0.179-0.045-0.319-0.185-0.363-0.364l-0.429-1.715c-0.045-0.18,0.013-0.369,0.151-0.493c0.96-0.861,1.595-2.144,1.696-3.431
				c0.021-0.261,0.238-0.461,0.499-0.461c0.252,0,0.429-0.155,0.455-0.361l0.229-1.826c0.015-0.117-0.021-0.231-0.098-0.32
				c-0.079-0.09-0.188-0.141-0.307-0.142c-0.136-0.002-0.265-0.059-0.358-0.157s-0.142-0.231-0.136-0.367l0.111-2.285
				c0.006-0.124,0.058-0.241,0.146-0.329l0.457-0.456c0.291-0.311,0.521-0.761-0.065-1.656C15.563,1.385,14.669,1,13.402,1
				c-0.929,0-2.014,0.098-3.024,0.819c-0.083,0.061-0.184,0.093-0.286,0.094C6.755,1.946,6.479,3.207,6.479,4.608
				c0,0.444,0.153,1.754,0.211,2.221c0.018,0.143-0.026,0.285-0.121,0.394C6.474,7.33,6.337,7.392,6.194,7.392
				c-0.214,0-0.324,0.05-0.404,0.14S5.675,7.736,5.689,7.856l0.229,1.825c0.026,0.206,0.202,0.361,0.41,0.361h0.148
				c0.261,0,0.478,0.2,0.499,0.46c0.1,1.249,0.705,2.506,1.62,3.364c0.132,0.124,0.187,0.31,0.143,0.485l-0.448,1.79
				c-0.044,0.18-0.185,0.319-0.363,0.364l-3.763,0.941C2.3,17.913,1,19.578,1,21.498C1,21.774,0.776,21.998,0.5,21.998z"/>
		</g>
		<g id="XMLID_5_">
			<path d="M22.53,28.989c-1.204,0-2.23-0.408-2.902-1.155c-2.051-2.284-2.14-4.888-0.233-6.796C21.24,19.192,25.207,18,29.5,18
				c0.202,0,0.385,0.122,0.462,0.309c0.078,0.187,0.035,0.402-0.108,0.545c-0.99,0.99-1.242,2.244-1.534,3.696
				c-0.302,1.5-0.644,3.2-1.934,4.768L26,27l0.386,0.317c-0.821,0.998-2.254,1.639-3.74,1.671
				C22.607,28.989,22.568,28.989,22.53,28.989z M28.446,19.025c-3.58,0.175-6.849,1.224-8.345,2.72
				c-1.516,1.517-1.415,3.544,0.271,5.421c0.495,0.55,1.287,0.845,2.252,0.822c1.184-0.025,2.358-0.538,2.989-1.306l0,0
				c1.131-1.375,1.434-2.878,1.726-4.33C27.568,21.217,27.802,20.051,28.446,19.025z"/>
		</g>
		<g>
			<g>
				<path d="M22.969,11.923c-0.04,0-0.081-0.005-0.122-0.015c-0.268-0.067-0.431-0.339-0.364-0.606
					c0.06-0.241,0.125-0.523,0.146-0.798c0.02-0.26,0.237-0.461,0.499-0.461c0.252,0,0.429-0.155,0.455-0.361l0.229-1.826
					c0.015-0.117-0.021-0.231-0.098-0.32c-0.079-0.09-0.188-0.141-0.307-0.142c-0.136-0.002-0.265-0.059-0.358-0.157
					s-0.142-0.231-0.136-0.367l0.111-2.285c0.006-0.124,0.058-0.241,0.146-0.329l0.457-0.456c0.291-0.311,0.521-0.761-0.065-1.656
					C23.063,1.385,22.169,1,20.902,1c-0.664,0-1.538,0.053-2.402,0.462c-0.25,0.117-0.548,0.011-0.666-0.238
					c-0.118-0.25-0.011-0.548,0.238-0.666C19.117,0.063,20.133,0,20.902,0c1.626,0,2.802,0.537,3.495,1.595
					c0.905,1.385,0.471,2.341-0.054,2.899l-0.331,0.331l-0.082,1.672c0.204,0.082,0.387,0.211,0.535,0.38
					c0.264,0.302,0.387,0.704,0.337,1.103l-0.229,1.827c-0.071,0.566-0.475,1.021-1,1.178c-0.035,0.2-0.079,0.39-0.122,0.56
					C23.396,11.771,23.193,11.923,22.969,11.923z"/>
			</g>
			<g>
				<path d="M25.2,17.397c-0.04,0-0.081-0.005-0.122-0.015l-3.504-0.876c-0.179-0.045-0.319-0.185-0.364-0.364l-0.429-1.715
					c-0.045-0.18,0.013-0.37,0.151-0.493c0.741-0.665,1.292-1.6,1.55-2.633c0.067-0.269,0.341-0.427,0.606-0.364
					c0.268,0.067,0.431,0.339,0.363,0.606c-0.28,1.121-0.855,2.148-1.63,2.925l0.285,1.141l3.213,0.803
					c0.268,0.067,0.431,0.339,0.364,0.606C25.628,17.246,25.424,17.397,25.2,17.397z"/>
			</g>
		</g>
		<g id="XMLID_4_">
			<path d="M18.5,30c-0.276,0-0.5-0.224-0.5-0.5c0-3.339,4.002-6.5,5.5-6.5c0.276,0,0.5,0.224,0.5,0.5S23.776,24,23.5,24
				c-0.951,0-4.5,2.796-4.5,5.5C19,29.776,18.776,30,18.5,30z"/>
		</g>
	</g>
</g>
<g id="Percentage_3">
</g>
<g id="Users_Love">
</g>
<g id="Users_Place">
</g>
<g id="Users_Key">
</g>
<g id="Sleeping_3">
</g>
</svg>
