<?xml version="1.0" encoding="iso-8859-1"?>
<!-- Generator: Adobe Illustrator 19.2.1, SVG Export Plug-In . SVG Version: 6.00 Build 0)  -->
<svg version="1.1" xmlns="http://www.w3.org/2000/svg" xmlns:xlink="http://www.w3.org/1999/xlink" x="0px" y="0px"
	 viewBox="0 0 30 30" style="enable-background:new 0 0 30 30;" xml:space="preserve">
<g id="Retro_Bot_1">
</g>
<g id="Retro_Bot_2">
</g>
<g id="Retro_Bot_3">
</g>
<g id="Retro_Bot_4">
</g>
<g id="Wall-E">
</g>
<g id="Eva">
</g>
<g id="Iron_Giant">
</g>
<g id="Marvin">
</g>
<g id="Atlas">
</g>
<g id="Claptrap">
</g>
<g id="Android">
</g>
<g id="Bender">
</g>
<g id="Roberto">
</g>
<g id="Robot_Devil">
</g>
<g id="Robocop">
</g>
<g id="ED_209">
	<g>
		<path d="M17.036,8.186c-0.024-0.06-0.034-0.122-0.034-0.184l-4.005,0.001c0,0.061-0.01,0.123-0.034,0.182L12.238,10H10.5
			c-0.276,0-0.5,0.224-0.5,0.5v2.986C10,14.321,10.68,15,11.515,15h6.971C19.32,15,20,14.321,20,13.486V10.5
			c0-0.276-0.224-0.5-0.5-0.5h-1.738L17.036,8.186z"/>
		<path d="M11.174,9.97l0.787-1.967L7.656,8.005C8.39,9.113,9.677,9.87,11.174,9.97z"/>
		<path d="M22.347,8l-4.308,0.001l0.787,1.969C20.325,9.87,21.613,9.111,22.347,8z"/>
		<circle cx="27" cy="8" r="0.5"/>
		<path d="M27,5c-0.443,0-0.86,0.102-1.239,0.275c-0.379-0.748-1.241-1.598-2.823-1.739C22.637,1.544,20.773,0,18.5,0h-7
			C9.423,0,7.688,1.292,7.172,3.033C5.453,3.17,4.561,4.302,4.198,5.253C3.83,5.092,3.426,5,3,5C1.346,5,0,6.346,0,8s1.346,3,3,3
			c1.364,0,2.505-0.92,2.868-2.168c0.246-0.234,0.429-0.541,0.604-0.843c0.339-0.591,0.581-0.951,1.031-0.984L22.479,7
			c0.463,0.023,0.705,0.389,1.049,0.988c0.174,0.302,0.357,0.61,0.604,0.843C24.495,10.08,25.636,11,27,11c1.654,0,3-1.346,3-3
			S28.654,5,27,5z M3,10c-1.103,0-2-0.897-2-2s0.897-2,2-2s2,0.897,2,2S4.103,10,3,10z M27,10c-1.103,0-2-0.897-2-2s0.897-2,2-2
			s2,0.897,2,2S28.103,10,27,10z"/>
		<circle cx="3" cy="8" r="0.5"/>
		<path d="M9,13.486V10.5c0-0.176,0.036-0.343,0.092-0.5H6.5C6.224,10,6,10.224,6,10.5v3c0,0.167,0.084,0.323,0.223,0.416
			l1.299,0.866l0.473,5.663L6.07,26.698L4.2,28.1C4.074,28.194,4,28.343,4,28.5v1C4,29.776,4.224,30,4.5,30h8
			c0.276,0,0.5-0.224,0.5-0.5v-1c0-0.157-0.074-0.306-0.2-0.4l-1.719-1.289l1.896-6.164C12.992,20.6,13,20.55,13,20.5V16h-1.485
			C10.128,16,9,14.872,9,13.486z"/>
		<path d="M23.93,26.698l-1.924-6.252l0.473-5.663l1.299-0.866C23.916,13.823,24,13.667,24,13.5v-3c0-0.276-0.224-0.5-0.5-0.5
			h-2.592C20.964,10.157,21,10.324,21,10.5v2.986C21,14.872,19.872,16,18.485,16H17v4.5c0,0.05,0.008,0.1,0.022,0.147l1.896,6.164
			L17.2,28.1c-0.126,0.094-0.2,0.243-0.2,0.4v1c0,0.276,0.224,0.5,0.5,0.5h8c0.276,0,0.5-0.224,0.5-0.5v-1
			c0-0.157-0.074-0.306-0.2-0.4L23.93,26.698z"/>
	</g>
</g>
<g id="Optimus_Prime">
</g>
<g id="Robot_1">
</g>
<g id="Robot_2">
</g>
<g id="Robot_3">
</g>
<g id="Robot_Arm_1">
</g>
<g id="Robot_Arm_2">
</g>
<g id="Robot_Arm_3">
</g>
<g id="Robot_Arm_4">
</g>
<g id="Robot_Arm_5">
</g>
<g id="K5_Robot">
</g>
<g id="Robot_Machine_1">
</g>
<g id="Robot_Machine_2">
</g>
<g id="Artifical_Intelligence_1">
</g>
<g id="Artifical_Intelligence_2">
</g>
<g id="Robot_4">
</g>
<g id="Robot_5">
</g>
<g id="Robot_6">
</g>
<g id="Robot_7">
</g>
<g id="Robot_8">
</g>
<g id="Robot_9">
</g>
<g id="Robot_10">
</g>
<g id="Robot_11">
</g>
<g id="Robot_12">
</g>
<g id="Robot_13">
</g>
</svg>
