<?xml version="1.0" encoding="iso-8859-1"?>
<!-- Generator: Adobe Illustrator 19.2.1, SVG Export Plug-In . SVG Version: 6.00 Build 0)  -->
<svg version="1.1" xmlns="http://www.w3.org/2000/svg" xmlns:xlink="http://www.w3.org/1999/xlink" x="0px" y="0px"
	 viewBox="0 0 24 24" style="enable-background:new 0 0 24 24;" xml:space="preserve">
<g id="Retro_Bot_1">
</g>
<g id="Retro_Bot_2">
</g>
<g id="Retro_Bot_3">
</g>
<g id="Retro_Bot_4">
</g>
<g id="Wall-E">
</g>
<g id="Eva">
</g>
<g id="Iron_Giant">
</g>
<g id="Marvin">
</g>
<g id="Atlas">
</g>
<g id="Claptrap">
</g>
<g id="Android">
</g>
<g id="Bender">
</g>
<g id="Roberto">
</g>
<g id="Robot_Devil">
</g>
<g id="Robocop">
</g>
<g id="ED_209">
	<g>
		<path d="M9.305,7.003L6.764,7.003C7.104,7.51,7.55,7.938,8.062,8.271C8.026,8.341,8,8.416,8,8.5v2C8,11.327,8.673,12,9.5,12h5
			c0.827,0,1.5-0.673,1.5-1.5v-2c0-0.084-0.026-0.16-0.062-0.229c0.513-0.333,0.959-0.763,1.3-1.271l-2.544,0.001l0.28,0.841
			C14.992,7.894,14.994,7.947,14.994,8h-1.021L13.64,7.001l-3.28,0.001L10.027,8H9.006c0-0.053,0.002-0.106,0.019-0.158L9.305,7.003
			z"/>
		<circle cx="2.5" cy="6.5" r="0.5"/>
		<path d="M21.5,4c-0.367,0-0.712,0.084-1.026,0.226c-0.438-0.587-1.408-1.563-2.945-1.692C16.796,1.04,15.273,0,13.5,0h-3
			C8.727,0,7.204,1.04,6.471,2.534C4.935,2.663,3.965,3.64,3.526,4.226C3.212,4.084,2.867,4,2.5,4C1.121,4,0,5.122,0,6.5
			S1.121,9,2.5,9c1.325,0,2.401-1.038,2.484-2.342c0.502-0.399,1.059-0.625,1.665-0.654l3.312-0.001c0.001,0,0.001,0,0.002,0
			L17.336,6c0.005,0,0.009,0.003,0.014,0.003c0.606,0.029,1.164,0.255,1.666,0.654C19.099,7.962,20.175,9,21.5,9
			C22.879,9,24,7.878,24,6.5S22.879,4,21.5,4z M2.5,8C1.673,8,1,7.327,1,6.5S1.673,5,2.5,5S4,5.673,4,6.5S3.327,8,2.5,8z M21.5,8
			C20.673,8,20,7.327,20,6.5S20.673,5,21.5,5S23,5.673,23,6.5S22.327,8,21.5,8z"/>
		<circle cx="21.5" cy="6.5" r="0.5"/>
		<path d="M10.724,22.053L9.1,21.241l1.379-4.597c0.02-0.063,0.025-0.128,0.019-0.193L10.152,13H9.5C8.121,13,7,11.878,7,10.5v-2
			C7,8.324,7.036,8.157,7.092,8H5.5C5.224,8,5,8.224,5,8.5v2c0,0.133,0.053,0.26,0.146,0.354l0.874,0.874l0.472,4.724l-1.409,4.698
			l-1.807,0.903C3.107,22.138,3,22.311,3,22.5v1C3,23.776,3.224,24,3.5,24h7c0.276,0,0.5-0.224,0.5-0.5v-1
			C11,22.311,10.893,22.138,10.724,22.053z"/>
		<path d="M20.724,22.053l-1.807-0.903l-1.409-4.698l0.472-4.724l0.874-0.874C18.947,10.76,19,10.633,19,10.5v-2
			C19,8.224,18.776,8,18.5,8h-1.592C16.964,8.157,17,8.324,17,8.5v2c0,1.378-1.121,2.5-2.5,2.5h-0.652l-0.345,3.45
			c-0.007,0.065-0.001,0.131,0.019,0.193l1.379,4.597l-1.624,0.812C13.107,22.138,13,22.311,13,22.5v1c0,0.276,0.224,0.5,0.5,0.5h7
			c0.276,0,0.5-0.224,0.5-0.5v-1C21,22.311,20.893,22.138,20.724,22.053z"/>
	</g>
</g>
<g id="Optimus_Prime">
</g>
<g id="Robot_1">
</g>
<g id="Robot_2">
</g>
<g id="Robot_3">
</g>
<g id="Robot_Arm_1">
</g>
<g id="Robot_Arm_2">
</g>
<g id="Robot_Arm_3">
</g>
<g id="Robot_Arm_4">
</g>
<g id="Robot_Arm_5">
</g>
<g id="K5_Robot">
</g>
<g id="Robot_Machine_1">
</g>
<g id="Robot_Machine_2">
</g>
<g id="Artifical_Intelligence_1">
</g>
<g id="Artifical_Intelligence_2">
</g>
<g id="Robot_4">
</g>
<g id="Robot_5">
</g>
<g id="Robot_6">
</g>
<g id="Robot_7">
</g>
<g id="Robot_8">
</g>
<g id="Robot_9">
</g>
<g id="Robot_10">
</g>
<g id="Robot_11">
</g>
<g id="Robot_12">
</g>
<g id="Robot_13">
</g>
</svg>
