<?xml version="1.0" encoding="iso-8859-1"?>
<!-- Generator: Adobe Illustrator 19.2.1, SVG Export Plug-In . SVG Version: 6.00 Build 0)  -->
<svg version="1.1" xmlns="http://www.w3.org/2000/svg" xmlns:xlink="http://www.w3.org/1999/xlink" x="0px" y="0px"
	 viewBox="0 0 30 30" style="enable-background:new 0 0 30 30;" xml:space="preserve">
<g id="Cutting_Board_1">
</g>
<g id="Cutting_Board_2">
</g>
<g id="Chef_x27_s_Hat_1">
</g>
<g id="Chef_x27_s_Hat_2">
</g>
<g id="Kitchen_Scale">
</g>
<g id="Measuring_Cup">
</g>
<g id="Pot_1">
</g>
<g id="Pot_2">
</g>
<g id="Wok_1">
</g>
<g id="Wok_2">
</g>
<g id="Teapot">
</g>
<g id="Plate">
</g>
<g id="Sauce_Boat">
</g>
<g id="Cauldron">
</g>
<g id="Cookbook">
</g>
<g id="Salt_Pot">
</g>
<g id="Pepper_Pot_1">
</g>
<g id="Pepper_Pot_2">
</g>
<g id="Egg_Timer">
	<g>
		<g>
			<g>
				<path d="M14,21c-0.13,0-13-0.023-13-2c0-0.276,0.224-0.5,0.5-0.5c0.21,0,0.39,0.129,0.464,0.313C2.633,19.245,7.155,20,14,20
					c6.551,0,12.219-0.711,13.047-1.211c0.08-0.17,0.253-0.289,0.453-0.289c0.276,0,0.5,0.224,0.5,0.5C28,20.946,14.14,21,14,21z"/>
			</g>
			<g>
				<path d="M15.5,25h-2c-0.202,0-0.385-0.122-0.462-0.309s-0.034-0.402,0.108-0.545l1-1c0.195-0.195,0.512-0.195,0.707,0l1,1
					c0.143,0.143,0.186,0.358,0.108,0.545S15.702,25,15.5,25z"/>
			</g>
			<g>
				<path d="M22.5,20.5c-0.276,0-0.5-0.224-0.5-0.5v-3.5c0-0.276,0.224-0.5,0.5-0.5s0.5,0.224,0.5,0.5V20
					C23,20.276,22.776,20.5,22.5,20.5z"/>
			</g>
			<g>
				<path d="M14.5,21c-0.276,0-0.5-0.224-0.5-0.5v-4c0-0.276,0.224-0.5,0.5-0.5s0.5,0.224,0.5,0.5v4C15,20.776,14.776,21,14.5,21z"
					/>
			</g>
			<g>
				<path d="M16.5,20.5c-0.276,0-0.5-0.224-0.5-0.5v-1.5c0-0.276,0.224-0.5,0.5-0.5s0.5,0.224,0.5,0.5V20
					C17,20.276,16.776,20.5,16.5,20.5z"/>
			</g>
			<g>
				<path d="M18.5,20.5c-0.276,0-0.5-0.224-0.5-0.5v-3.5c0-0.276,0.224-0.5,0.5-0.5s0.5,0.224,0.5,0.5V20
					C19,20.276,18.776,20.5,18.5,20.5z"/>
			</g>
			<g>
				<path d="M6.5,20.5C6.224,20.5,6,20.276,6,20v-1.5C6,18.224,6.224,18,6.5,18S7,18.224,7,18.5V20C7,20.276,6.776,20.5,6.5,20.5z"
					/>
			</g>
			<g>
				<path d="M8.5,20.5C8.224,20.5,8,20.276,8,20v-3.5C8,16.224,8.224,16,8.5,16S9,16.224,9,16.5V20C9,20.276,8.776,20.5,8.5,20.5z"
					/>
			</g>
			<g>
				<path d="M10.5,20.5c-0.276,0-0.5-0.224-0.5-0.5v-1.5c0-0.276,0.224-0.5,0.5-0.5s0.5,0.224,0.5,0.5V20
					C11,20.276,10.776,20.5,10.5,20.5z"/>
			</g>
			<g>
				<path d="M14.5,15c-0.827,0-1.5-0.673-1.5-1.5v-2c0-0.827,0.673-1.5,1.5-1.5s1.5,0.673,1.5,1.5v2C16,14.327,15.327,15,14.5,15z
					 M14.5,11c-0.275,0-0.5,0.224-0.5,0.5v2c0,0.276,0.225,0.5,0.5,0.5s0.5-0.224,0.5-0.5v-2C15,11.224,14.775,11,14.5,11z"/>
			</g>
		</g>
		<g>
			<path d="M20.5,20.5c-0.276,0-0.5-0.224-0.5-0.5v-1.5c0-0.276,0.224-0.5,0.5-0.5s0.5,0.224,0.5,0.5V20
				C21,20.276,20.776,20.5,20.5,20.5z"/>
		</g>
		<g>
			<g>
				<path d="M25.197,30H3.803c-0.191,0-0.366-0.109-0.45-0.282C1.813,26.549,1,22.843,1,19C1,8.523,7.056,0,14.5,0S28,8.523,28,19
					c0,3.843-0.813,7.549-2.353,10.718C25.563,29.891,25.389,30,25.197,30z M4.118,29h20.764C26.269,26.028,27,22.579,27,19
					c0-9.925-5.607-18-12.5-18S2,9.075,2,19C2,22.579,2.731,26.028,4.118,29z"/>
			</g>
		</g>
		<g>
			<path d="M24.5,20c-0.276,0-0.5-0.224-0.5-0.5v-1c0-0.276,0.224-0.5,0.5-0.5s0.5,0.224,0.5,0.5v1C25,19.776,24.776,20,24.5,20z"/>
		</g>
		<g>
			<path d="M4.5,20C4.224,20,4,19.776,4,19.5v-3C4,16.224,4.224,16,4.5,16S5,16.224,5,16.5v3C5,19.776,4.776,20,4.5,20z"/>
		</g>
	</g>
</g>
<g id="Olive_Oil_Pot">
</g>
<g id="Pancake_Griddle">
</g>
<g id="Pan">
</g>
<g id="Kettle">
</g>
<g id="Microwave">
</g>
<g id="Cooker">
</g>
<g id="Meat_Grinder">
</g>
<g id="Coffee_Maker">
</g>
<g id="Household_Mixer">
</g>
<g id="Stand_Mixer">
</g>
<g id="Hand_Blender">
</g>
<g id="Blender">
</g>
<g id="Cooker_Hood">
</g>
<g id="Refrigerator">
</g>
<g id="Freezer">
</g>
<g id="Apron">
</g>
<g id="Oven_Gloves">
</g>
<g id="Rolling_Pin">
</g>
<g id="Sieve">
</g>
<g id="Tea_Sieve">
</g>
<g id="Grater">
</g>
<g id="Knife_Holder">
</g>
<g id="Funnel">
</g>
<g id="Kitchen_Clock">
</g>
<g id="Lemon_Juicer">
</g>
<g id="Pastry_Bag_1">
</g>
<g id="Pastry_Bag_2">
</g>
<g id="Corkscrew">
</g>
<g id="Bottle_Opener">
</g>
<g id="Service">
</g>
<g id="Chopsticks">
</g>
<g id="Hatchet">
</g>
<g id="Filleting_Knife">
</g>
<g id="Bread_Knife">
</g>
<g id="Herb_Knife">
</g>
<g id="Whetting">
</g>
<g id="Cake_Knife">
</g>
<g id="Layer_58">
</g>
<g id="Ladle">
</g>
<g id="Sauce_Spoon">
</g>
<g id="Egg_Beater">
</g>
<g id="Meat_Fork">
</g>
<g id="Kitchen_Spoon_1">
</g>
<g id="Kitchen_Spoon_2">
</g>
<g id="Pizza_Cutter">
</g>
<g id="Potato_Musher">
</g>
<g id="Peeler">
</g>
<g id="Honey_Dipper">
</g>
<g id="Fork">
</g>
<g id="Knife">
</g>
<g id="Spoon">
</g>
<g id="Cutlery_Set">
</g>
<g id="Sugar_Bowl">
</g>
<g id="Matches">
</g>
<g id="Cezve">
</g>
</svg>
