<?xml version="1.0" encoding="iso-8859-1"?>
<!-- Generator: Adobe Illustrator 19.2.1, SVG Export Plug-In . SVG Version: 6.00 Build 0)  -->
<svg version="1.1" xmlns="http://www.w3.org/2000/svg" xmlns:xlink="http://www.w3.org/1999/xlink" x="0px" y="0px"
	 viewBox="0 0 30 30" style="enable-background:new 0 0 30 30;" xml:space="preserve">
<g id="Cutting_Board_1">
</g>
<g id="Cutting_Board_2">
</g>
<g id="Chef_x27_s_Hat_1">
</g>
<g id="Chef_x27_s_Hat_2">
</g>
<g id="Kitchen_Scale">
</g>
<g id="Measuring_Cup">
</g>
<g id="Pot_1">
</g>
<g id="Pot_2">
</g>
<g id="Wok_1">
</g>
<g id="Wok_2">
</g>
<g id="Teapot">
</g>
<g id="Plate">
</g>
<g id="Sauce_Boat">
</g>
<g id="Cauldron">
</g>
<g id="Cookbook">
</g>
<g id="Salt_Pot">
</g>
<g id="Pepper_Pot_1">
</g>
<g id="Pepper_Pot_2">
</g>
<g id="Egg_Timer">
	<g>
		<path d="M14.5,15c0.827,0,1.5-0.673,1.5-1.5v-2c0-0.827-0.673-1.5-1.5-1.5S13,10.673,13,11.5v2C13,14.327,13.673,15,14.5,15z
			 M14,11.5c0-0.276,0.225-0.5,0.5-0.5s0.5,0.224,0.5,0.5v2c0,0.276-0.225,0.5-0.5,0.5S14,13.776,14,13.5V11.5z"/>
		<path d="M14.5,0C7.056,0,1,8.523,1,19c0,0.106,0.004,0.212,0.008,0.317l0.006,0.207l0,0.001c0,0,0,0.001,0,0.001
			c0.071,3.665,0.881,7.19,2.339,10.193C3.437,29.891,3.611,30,3.803,30h21.395c0.191,0,0.366-0.109,0.45-0.282
			c1.465-3.017,2.274-6.556,2.34-10.234v0l0.006-0.187C27.996,19.199,28,19.1,28,19C28,8.523,21.944,0,14.5,0z M14.5,1
			C21.393,1,27,9.075,27,19l-0.002,0.072c-0.007,0.001-0.012,0.003-0.02,0.004c-0.068,0.014-0.144,0.028-0.217,0.042
			c-0.083,0.016-0.164,0.032-0.254,0.048c-0.081,0.014-0.17,0.029-0.256,0.043c-0.092,0.015-0.183,0.031-0.281,0.046
			c-0.093,0.014-0.194,0.029-0.292,0.043c-0.102,0.015-0.203,0.03-0.31,0.044c-0.104,0.014-0.214,0.028-0.322,0.042
			c-0.015,0.002-0.031,0.004-0.047,0.006V18.5c0-0.276-0.224-0.5-0.5-0.5S24,18.224,24,18.5v1c0,0.002,0.001,0.004,0.001,0.006
			c-0.005,0.001-0.01,0.001-0.015,0.002c-0.122,0.013-0.247,0.026-0.373,0.039c-0.131,0.013-0.264,0.026-0.399,0.039
			c-0.07,0.007-0.142,0.013-0.214,0.02V16.5c0-0.276-0.224-0.5-0.5-0.5S22,16.224,22,16.5v3.192c-0.006,0-0.013,0.001-0.019,0.002
			c-0.152,0.012-0.307,0.024-0.464,0.035c-0.141,0.01-0.282,0.021-0.426,0.031c-0.03,0.002-0.061,0.004-0.092,0.006V18.5
			c0-0.276-0.224-0.5-0.5-0.5S20,18.224,20,18.5v1.328c-0.119,0.007-0.238,0.013-0.358,0.02c-0.146,0.008-0.291,0.016-0.439,0.023
			c-0.067,0.003-0.136,0.006-0.203,0.009V16.5c0-0.276-0.224-0.5-0.5-0.5S18,16.224,18,16.5v3.422
			c-0.129,0.005-0.259,0.01-0.39,0.014c-0.141,0.005-0.281,0.01-0.424,0.014c-0.061,0.002-0.124,0.003-0.186,0.005V18.5
			c0-0.276-0.224-0.5-0.5-0.5S16,18.224,16,18.5v1.48c-0.199,0.004-0.4,0.007-0.601,0.009c-0.114,0.002-0.227,0.004-0.342,0.005
			c-0.019,0-0.038,0-0.057,0V16.5c0-0.276-0.224-0.5-0.5-0.5S14,16.224,14,16.5V20c-0.013,0-0.025,0-0.038,0
			c-0.659,0-1.3-0.007-1.925-0.019c-0.047-0.001-0.096-0.001-0.143-0.002c-0.307-0.006-0.596-0.018-0.894-0.026V18.5
			c0-0.276-0.224-0.5-0.5-0.5S10,18.224,10,18.5v1.422c-0.014-0.001-0.028-0.001-0.042-0.002C9.627,19.907,9.317,19.889,9,19.873
			V16.5C9,16.224,8.776,16,8.5,16S8,16.224,8,16.5v3.318c-0.344-0.022-0.676-0.045-1-0.07V18.5C7,18.224,6.776,18,6.5,18
			S6,18.224,6,18.5v1.164c-0.236-0.021-0.481-0.042-0.703-0.065c-0.07-0.007-0.138-0.015-0.207-0.022
			c-0.387-0.041-0.755-0.084-1.095-0.129c-0.052-0.007-0.101-0.014-0.152-0.021c-0.341-0.046-0.662-0.093-0.95-0.141
			c-0.031-0.005-0.058-0.01-0.089-0.016c-0.295-0.05-0.566-0.101-0.798-0.152c-0.002,0-0.003-0.001-0.005-0.001
			C2.001,19.078,2,19.039,2,19C2,9.075,7.607,1,14.5,1z M15.962,24.691C15.885,24.878,15.702,25,15.5,25h-2
			c-0.202,0-0.385-0.122-0.462-0.309s-0.034-0.402,0.108-0.545l1-1c0.195-0.195,0.512-0.195,0.707,0l1,1
			C15.996,24.29,16.039,24.504,15.962,24.691z"/>
	</g>
	<g>
		<path d="M5,20c-0.276,0-0.5-0.224-0.5-0.5v-3C4.5,16.224,4.724,16,5,16s0.5,0.224,0.5,0.5v3C5.5,19.776,5.276,20,5,20z"/>
	</g>
</g>
<g id="Olive_Oil_Pot">
</g>
<g id="Pancake_Griddle">
</g>
<g id="Pan">
</g>
<g id="Kettle">
</g>
<g id="Microwave">
</g>
<g id="Cooker">
</g>
<g id="Meat_Grinder">
</g>
<g id="Coffee_Maker">
</g>
<g id="Household_Mixer">
</g>
<g id="Stand_Mixer">
</g>
<g id="Hand_Blender">
</g>
<g id="Blender">
</g>
<g id="Cooker_Hood">
</g>
<g id="Refrigerator">
</g>
<g id="Freezer">
</g>
<g id="Apron">
</g>
<g id="Oven_Gloves">
</g>
<g id="Rolling_Pin">
</g>
<g id="Sieve">
</g>
<g id="Tea_Sieve">
</g>
<g id="Grater">
</g>
<g id="Knife_Holder">
</g>
<g id="Funnel">
</g>
<g id="Kitchen_Clock">
</g>
<g id="Lemon_Juicer">
</g>
<g id="Pastry_Bag_1">
</g>
<g id="Pastry_Bag_2">
</g>
<g id="Corkscrew">
</g>
<g id="Bottle_Opener">
</g>
<g id="Service">
</g>
<g id="Chopsticks">
</g>
<g id="Hatchet">
</g>
<g id="Filleting_Knife">
</g>
<g id="Bread_Knife">
</g>
<g id="Herb_Knife">
</g>
<g id="Whetting">
</g>
<g id="Cake_Knife">
</g>
<g id="Layer_58">
</g>
<g id="Ladle">
</g>
<g id="Sauce_Spoon">
</g>
<g id="Egg_Beater">
</g>
<g id="Meat_Fork">
</g>
<g id="Kitchen_Spoon_1">
</g>
<g id="Kitchen_Spoon_2">
</g>
<g id="Pizza_Cutter">
</g>
<g id="Potato_Musher">
</g>
<g id="Peeler">
</g>
<g id="Honey_Dipper">
</g>
<g id="Fork">
</g>
<g id="Knife">
</g>
<g id="Spoon">
</g>
<g id="Cutlery_Set">
</g>
<g id="Sugar_Bowl">
</g>
<g id="Matches">
</g>
<g id="Cezve">
</g>
</svg>
