<?xml version="1.0" encoding="iso-8859-1"?>
<!-- Generator: Adobe Illustrator 19.2.1, SVG Export Plug-In . SVG Version: 6.00 Build 0)  -->
<svg version="1.1" xmlns="http://www.w3.org/2000/svg" xmlns:xlink="http://www.w3.org/1999/xlink" x="0px" y="0px"
	 viewBox="0 0 30 30" style="enable-background:new 0 0 30 30;" xml:space="preserve">
<g id="Egg">
</g>
<g id="Easter_Egg_1">
</g>
<g id="Easter_Egg_2">
</g>
<g id="Easter_Egg_3">
</g>
<g id="Eggs_1">
</g>
<g id="Eggs_2">
</g>
<g id="Bunny">
</g>
<g id="Sheep">
</g>
<g id="Bell_Alarm">
</g>
<g id="Calendar">
</g>
<g id="Tulip">
</g>
<g id="Chicken">
</g>
<g id="Chicken_2">
</g>
<g id="Baguette">
</g>
<g id="Ham">
</g>
<g id="Bell_2">
</g>
<g id="Bell_3">
</g>
<g id="Bell_4">
</g>
<g id="Easter_celebration">
</g>
<g id="Egg_painting">
	<g>
		<path d="M29.484,0.516c-0.687-0.686-1.804-0.686-2.488-0.002L20.38,7.064l2.371,2.371l6.733-6.43
			C30.171,2.32,30.171,1.203,29.484,0.516z"/>
		<path d="M1.754,17.331c0.089,0.079,0.26,0.081,0.349,0l0.419-0.369c0.467-0.415,1.203-0.413,1.672,0l0.418,0.369
			c0.09,0.078,0.26,0.078,0.349,0l0.417-0.369c0.47-0.414,1.204-0.414,1.672,0l0.418,0.369c0.09,0.081,0.26,0.081,0.349,0
			l0.419-0.369c0.468-0.414,1.203-0.414,1.671,0l0.606,0.535c0.028-0.057,0.047-0.118,0.082-0.172
			c0.284-0.432,1.013-1.798,1.013-2.956c0-1.525,1.013-2.97,2.521-3.594c0.004-0.001,0.007-0.002,0.011-0.003
			c-0.402,0.094-0.844,0.022-1.166-0.249l-0.439-0.369c-0.106-0.09-0.311-0.09-0.417,0l-0.439,0.369
			c-0.239,0.201-0.545,0.301-0.852,0.301s-0.613-0.1-0.852-0.301l-0.439-0.369c-0.106-0.09-0.311-0.09-0.417,0l-0.439,0.369
			c-0.479,0.401-1.226,0.401-1.704,0l-0.439-0.369c-0.106-0.09-0.311-0.09-0.417,0l-0.439,0.369c-0.479,0.401-1.226,0.401-1.704,0
			L3.273,9.935c-1.156,2.006-2.052,4.351-2.613,6.483c0.061,0.02,0.119,0.053,0.17,0.098L1.754,17.331z"/>
		<path d="M14.347,10.711c0.462-0.163,0.929-0.252,1.382-0.238l-0.241-0.629l-0.809,0.68C14.579,10.607,14.464,10.662,14.347,10.711
			z"/>
		<path d="M5.035,9.758l0.439-0.369c0.479-0.401,1.226-0.401,1.704,0l0.439,0.369c0.106,0.09,0.311,0.09,0.417,0l0.439-0.369
			c0.479-0.401,1.226-0.401,1.704,0l0.439,0.369c0.106,0.09,0.311,0.09,0.417,0l0.439-0.369c0.479-0.401,1.226-0.401,1.704,0
			l0.439,0.369c0.106,0.09,0.311,0.09,0.417,0l0.948-0.796c-1.623-2.591-3.521-3.918-5.656-3.918c-2.115,0-4.006,1.694-5.523,4.03
			l0.815,0.685C4.725,9.848,4.928,9.848,5.035,9.758z"/>
		<path d="M18.232,16.996c-0.09,0.117-0.182,0.228-0.28,0.326c-0.055,0.055-0.109,0.116-0.168,0.182
			c-0.931,1.041-2.232,2.149-5.937,2.149c-0.554,0-1.06-0.303-1.322-0.791c-0.038-0.07-0.056-0.145-0.082-0.219
			c-0.098-0.011-0.195-0.044-0.275-0.115l-0.923-0.815c-0.088-0.079-0.259-0.08-0.348,0l-0.419,0.369
			c-0.469,0.414-1.204,0.413-1.672,0l-0.418-0.369c-0.09-0.079-0.26-0.078-0.349,0l-0.417,0.369c-0.47,0.414-1.204,0.414-1.672,0
			l-0.418-0.369c-0.089-0.079-0.259-0.08-0.349,0l-0.419,0.369c-0.468,0.414-1.203,0.414-1.671,0l-0.688-0.607
			C0.141,18.688,0,19.794,0,20.674C0,25.816,4.184,30,9.326,30s9.326-4.184,9.326-9.326c0-0.171,0.01-0.393,0.021-0.64
			c0.026-0.623,0.06-1.399-0.026-1.958L18.232,16.996z"/>
		<path d="M14.5,15c0-1.412-1.252-1.497-1.503-1.5c-0.076-0.001-0.146-0.021-0.21-0.052c-0.112,0.296-0.178,0.606-0.178,0.922
			c0,1.712-1.166,3.488-1.178,3.505c-0.102,0.154-0.111,0.352-0.024,0.514s0.256,0.264,0.44,0.264c2.666,0,3.886-0.611,4.602-1.221
			C15.58,17.247,14.5,16.61,14.5,15z"/>
		<path d="M17.266,16.589c0.796-0.823,1.46-2.983-0.021-4.464c-0.68-0.68-1.728-0.843-2.733-0.425
			c-0.457,0.189-0.85,0.478-1.161,0.826C14.243,12.651,15.5,13.266,15.5,15c0,1.411,1.252,1.497,1.503,1.5
			C17.102,16.501,17.188,16.538,17.266,16.589z"/>
		<path d="M16.747,10.663c0.447,0.158,0.859,0.408,1.206,0.755c0.504,0.504,0.806,1.077,0.981,1.665l3.095-2.956L19.67,7.768
			L16.747,10.663z"/>
	</g>
</g>
<g id="Easter_willow">
</g>
<g id="Daffodil">
</g>
<g id="Easter_message">
</g>
<g id="Bunny_2">
</g>
<g id="Chicken_3">
</g>
<g id="Tulip_2">
</g>
<g id="Easter_basket">
</g>
<g id="Bread_and_wine">
</g>
<g id="Sheep_2">
</g>
<g id="Candle_Light">
</g>
</svg>
