<?xml version="1.0" encoding="iso-8859-1"?>
<!-- Generator: Adobe Illustrator 19.2.1, SVG Export Plug-In . SVG Version: 6.00 Build 0)  -->
<svg version="1.1" xmlns="http://www.w3.org/2000/svg" xmlns:xlink="http://www.w3.org/1999/xlink" x="0px" y="0px"
	 viewBox="0 0 30 30" style="enable-background:new 0 0 30 30;" xml:space="preserve">
<g id="Egg">
	<g>
		<path d="M24.956,16.5c0-0.276-0.224-0.5-0.5-0.5H5.543c-0.276,0-0.5,0.224-0.5,0.5c0,3.646,1.862,6.576,5.268,8.33
			c-0.922,0.818-1.485,2.039-1.485,3.312c0,1.008,0.806,1.858,1.761,1.858h8.826c0.971,0,1.761-0.79,1.761-1.761
			c0-1.299-0.576-2.573-1.492-3.405C23.091,23.08,24.956,20.148,24.956,16.5z M12.757,22.824c-0.082,0.188-0.266,0.301-0.459,0.301
			c-0.066,0-0.134-0.014-0.199-0.041c-1.594-0.692-2.973-1.943-3.783-3.432c-0.132-0.243-0.042-0.547,0.201-0.679
			c0.242-0.132,0.546-0.041,0.678,0.2c0.705,1.297,1.909,2.388,3.302,2.992C12.751,22.276,12.867,22.571,12.757,22.824z"/>
		<path d="M15,0C9.896,0,6,10.65,6,15h18C24,10.65,20.104,0,15,0z"/>
	</g>
</g>
<g id="Easter_Egg_1">
</g>
<g id="Easter_Egg_2">
</g>
<g id="Easter_Egg_3">
</g>
<g id="Eggs_1">
</g>
<g id="Eggs_2">
</g>
<g id="Bunny">
</g>
<g id="Sheep">
</g>
<g id="Bell_Alarm">
</g>
<g id="Calendar">
</g>
<g id="Tulip">
</g>
<g id="Chicken">
</g>
<g id="Chicken_2">
</g>
<g id="Baguette">
</g>
<g id="Ham">
</g>
<g id="Bell_2">
</g>
<g id="Bell_3">
</g>
<g id="Bell_4">
</g>
<g id="Easter_celebration">
</g>
<g id="Egg_painting">
</g>
<g id="Easter_willow">
</g>
<g id="Daffodil">
</g>
<g id="Easter_message">
</g>
<g id="Bunny_2">
</g>
<g id="Chicken_3">
</g>
<g id="Tulip_2">
</g>
<g id="Easter_basket">
</g>
<g id="Bread_and_wine">
</g>
<g id="Sheep_2">
</g>
<g id="Candle_Light">
</g>
</svg>
