<?xml version="1.0" encoding="iso-8859-1"?>
<!-- Generator: Adobe Illustrator 19.2.1, SVG Export Plug-In . SVG Version: 6.00 Build 0)  -->
<svg version="1.1" xmlns="http://www.w3.org/2000/svg" xmlns:xlink="http://www.w3.org/1999/xlink" x="0px" y="0px"
	 viewBox="0 0 30 30" style="enable-background:new 0 0 30 30;" xml:space="preserve">
<g id="Egg">
</g>
<g id="Easter_Egg_1">
</g>
<g id="Easter_Egg_2">
</g>
<g id="Easter_Egg_3_1_">
</g>
<g id="Eggs_1_1_">
</g>
<g id="Eggs_2">
	<g>
		<g>
			<path d="M11.377,19.744c-0.216,0-0.414-0.14-0.479-0.356c-0.12-0.399-0.181-0.815-0.181-1.235c0-2.33,1.809-6.805,4.282-6.805
				s4.282,4.475,4.282,6.805c0,0.412-0.059,0.818-0.173,1.208c-0.077,0.265-0.352,0.418-0.621,0.338
				c-0.265-0.078-0.416-0.356-0.338-0.621c0.088-0.298,0.132-0.609,0.132-0.925c0-2.081-1.654-5.805-3.282-5.805
				s-3.282,3.724-3.282,5.805c0,0.323,0.047,0.642,0.138,0.948c0.08,0.265-0.07,0.543-0.335,0.623
				C11.473,19.737,11.424,19.744,11.377,19.744z"/>
		</g>
		<g>
			<path d="M23.824,19.085c-0.003,0-0.006,0-0.009,0c-0.275-0.005-0.496-0.232-0.491-0.508c0.037-2.169-0.636-4.605-1.825-4.93
				c-0.692-0.192-1.683,0.333-2.704,1.438c-0.187,0.203-0.504,0.216-0.706,0.028c-0.203-0.188-0.216-0.503-0.028-0.707
				c1.302-1.409,2.617-2.022,3.702-1.725c1.82,0.496,2.604,3.412,2.562,5.911C24.319,18.867,24.097,19.085,23.824,19.085z"/>
		</g>
		<g>
			<path d="M6.176,19.125c-0.271,0-0.494-0.217-0.5-0.49c-0.053-2.516,0.727-5.452,2.562-5.953c1.084-0.297,2.4,0.316,3.702,1.725
				c0.188,0.203,0.175,0.519-0.028,0.707c-0.202,0.188-0.518,0.175-0.706-0.028c-1.021-1.105-2.014-1.63-2.704-1.438
				C7.3,13.975,6.63,16.43,6.676,18.615c0.006,0.276-0.214,0.504-0.489,0.51C6.183,19.125,6.179,19.125,6.176,19.125z"/>
		</g>
		<g>
			<path d="M15,19.913c-1.213,0-11.848-0.067-11.848-2.391c0-0.77,0.967-1.301,3.135-1.722c0.265-0.053,0.533,0.124,0.587,0.396
				c0.053,0.271-0.125,0.533-0.396,0.586c-1.593,0.31-2.118,0.617-2.277,0.745C4.78,18.035,8.361,18.913,15,18.913
				s10.22-0.878,10.799-1.386c-0.159-0.128-0.685-0.436-2.277-0.745c-0.271-0.053-0.448-0.315-0.396-0.586
				c0.054-0.271,0.318-0.449,0.587-0.396c2.168,0.421,3.135,0.952,3.135,1.722C26.848,19.846,16.213,19.913,15,19.913z"/>
		</g>
		<g>
			<path d="M15,24.926c-4.077,0-7.771-0.352-9.884-0.941c-0.266-0.074-0.421-0.35-0.347-0.616c0.074-0.265,0.351-0.42,0.616-0.347
				c1.999,0.558,5.683,0.904,9.614,0.904c3.93,0,7.613-0.346,9.613-0.903c0.267-0.077,0.541,0.081,0.615,0.347
				s-0.081,0.542-0.348,0.616C22.769,24.575,19.075,24.926,15,24.926z"/>
		</g>
		<g>
			<path d="M15,30C8.578,30,3.152,24.286,3.152,17.522c0-0.276,0.224-0.5,0.5-0.5s0.5,0.224,0.5,0.5C4.152,23.636,9.222,29,15,29
				s10.848-5.364,10.848-11.478c0-0.276,0.224-0.5,0.5-0.5s0.5,0.224,0.5,0.5C26.848,24.286,21.422,30,15,30z"/>
		</g>
		<g>
			<path d="M26.348,18.022c-0.075,0-0.152-0.017-0.224-0.053c-0.247-0.124-0.347-0.424-0.224-0.671
				c0.813-1.624,1.208-3.201,1.208-4.82C27.108,6.149,21.677,1,15,1S2.892,6.149,2.892,12.478c0,1.622,0.396,3.199,1.208,4.82
				c0.123,0.247,0.023,0.547-0.224,0.671c-0.242,0.122-0.547,0.024-0.671-0.223c-0.884-1.764-1.313-3.487-1.313-5.268
				C1.892,5.598,7.772,0,15,0s13.108,5.598,13.108,12.478c0,1.778-0.43,3.501-1.313,5.268C26.707,17.921,26.53,18.022,26.348,18.022
				z"/>
		</g>
	</g>
</g>
<g id="Bunny_1_">
</g>
<g id="Sheep_1_">
</g>
<g id="Bell_Alarm">
</g>
<g id="Calendar">
</g>
<g id="Tulip">
</g>
<g id="Chicken">
</g>
<g id="Chicken_2_1_">
</g>
<g id="Baguette_1_">
</g>
<g id="Ham_1_">
</g>
<g id="Bell_2">
</g>
<g id="Bell_3">
</g>
<g id="Bell_4">
</g>
<g id="Easter_celebration">
</g>
<g id="Egg_painting">
</g>
<g id="Easter_willow">
</g>
<g id="Daffodil">
</g>
<g id="Easter_message">
</g>
<g id="Bunny_2">
</g>
<g id="Chicken_3">
</g>
<g id="Tulip_2">
</g>
<g id="Easter_basket">
</g>
<g id="Bread_and_wine">
</g>
<g id="Sheep_2">
</g>
<g id="Candle_Light">
</g>
</svg>
