<?xml version="1.0" encoding="iso-8859-1"?>
<!-- Generator: Adobe Illustrator 19.2.1, SVG Export Plug-In . SVG Version: 6.00 Build 0)  -->
<svg version="1.1" xmlns="http://www.w3.org/2000/svg" xmlns:xlink="http://www.w3.org/1999/xlink" x="0px" y="0px"
	 viewBox="0 0 24 24" style="enable-background:new 0 0 24 24;" xml:space="preserve">
<g id="Egg_1_">
</g>
<g id="Easter_Egg_1">
</g>
<g id="Easter_Egg_2">
</g>
<g id="Easter_Egg_3">
</g>
<g id="Eggs_1">
	<g>
		<path d="M0.65,11.266c0.124,0.801,0.34,1.57,0.621,2.308C2.66,14.264,7.12,15,12,15c4.875,0,9.335-0.737,10.729-1.426
			c0.28-0.738,0.496-1.507,0.621-2.308C21.171,12.658,16.278,13,12,13S2.829,12.658,0.65,11.266z"/>
		<path d="M1.848,14.853c0.421,0.797,0.932,1.536,1.52,2.209C5.721,17.525,9.137,18,12,18c2.863,0,6.279-0.475,8.632-0.938
			c0.588-0.673,1.099-1.412,1.52-2.209C19.93,15.52,15.853,16,12,16C8.144,16,4.068,15.52,1.848,14.853z"/>
		<path d="M4.63,18.306C6.626,19.984,9.193,21,12,21c2.807,0,5.374-1.016,7.37-2.694C17.132,18.679,14.383,19,12,19
			C9.617,19,6.868,18.679,4.63,18.306z"/>
		<path d="M10.935,5.201C10.444,4.556,9.787,4,8.969,4C8.306,4,7.661,4.388,7.084,5.1c0.751,0.189,1.485,0.68,2.174,1.434
			C9.826,5.81,10.408,5.406,10.935,5.201z"/>
		<path d="M14.669,6.522c0.795-0.871,1.552-1.274,2.181-1.431C16.275,4.382,15.63,4,14.969,4c-0.819,0-1.476,0.556-1.967,1.201
			C13.526,5.404,14.104,5.805,14.669,6.522z"/>
		<path d="M20.227,9.314c-0.051-0.22-0.128-0.435-0.173-0.666C19.929,8.01,19.5,7.5,19.609,7.551
			c-0.408-0.781-0.984-1.401-1.773-1.528c-0.924-0.146-1.942,0.458-2.875,1.71c-0.513,0.688-0.936,1.495-1.203,2.239
			C16.557,9.891,18.743,9.624,20.227,9.314z"/>
		<path d="M11.034,9.412c0.077,0.197,0.14,0.39,0.198,0.581C11.485,9.996,11.737,10,12,10c0.238,0,0.464-0.004,0.694-0.007
			c0.058-0.192,0.122-0.387,0.2-0.585l0.015,0c0.276-0.704,0.659-1.425,1.125-2.082C13.525,6.615,12.836,6,11.969,6
			c-0.87,0-1.562,0.619-2.07,1.334c0.464,0.656,0.846,1.375,1.121,2.078L11.034,9.412z"/>
		<path d="M3.867,8.665C3.76,8.864,3.75,9.093,3.701,9.305c1.471,0.308,3.654,0.58,6.465,0.665c-0.267-0.744-0.69-1.55-1.202-2.237
			C8.032,6.48,7.012,5.876,6.089,6.022C5.296,6.151,4.654,6.747,4.31,7.564C3.927,8.472,3.967,8.478,3.867,8.665z"/>
		<path d="M20.86,7.8c0.078,0.192,0.259,0.955,0.295,1.109c0.947,0.265,1.3,0.497,1.352,0.551c-0.109,0.221-0.781,0.511-1.952,0.78
			c-0.042,0.015-0.079,0.043-0.123,0.053c-0.857,0.179-2.173,0.391-3.988,0.535c-0.06,0.005-0.12,0.01-0.18,0.015
			c-0.176,0.013-0.358,0.026-0.544,0.038c-0.215,0.014-0.434,0.028-0.659,0.039c-0.073,0.004-0.148,0.007-0.223,0.011
			c-0.331,0.016-0.671,0.029-1.022,0.04c-0.01,0-0.019,0.001-0.029,0.001c-0.008,0-0.016,0-0.025,0C13.198,10.989,12.615,11,12,11
			c-0.641,0-1.247-0.012-1.834-0.03l0,0c-0.01,0-0.02,0-0.03,0c-0.013,0-0.025-0.001-0.038-0.002
			c-0.34-0.011-0.671-0.024-0.992-0.04c-0.074-0.004-0.15-0.007-0.223-0.011c-0.226-0.012-0.445-0.026-0.662-0.041
			c-0.165-0.011-0.33-0.021-0.487-0.033c-0.079-0.006-0.155-0.013-0.232-0.019c-1.82-0.147-3.143-0.36-4.005-0.541
			c-0.026-0.005-0.047-0.024-0.072-0.031C2.265,9.997,1.601,9.728,1.493,9.54c0.048-0.098,0.383-0.337,1.271-0.602
			C2.808,8.749,3.14,7.915,3.182,7.79C0.809,8.348,0.5,9.019,0.5,9.5C0.5,11.972,11.53,12,12,12s11.5-0.028,11.5-2.5
			C23.5,9.015,23.184,8.352,20.86,7.8z"/>
	</g>
</g>
<g id="Eggs_2_1_">
</g>
<g id="Bunny">
</g>
<g id="Sheep">
</g>
<g id="Bell_Alarm">
</g>
<g id="Calendar">
</g>
<g id="Tulip">
</g>
<g id="Chicken">
</g>
<g id="Chicken_2">
</g>
<g id="Baguette">
</g>
<g id="Ham_1_">
</g>
<g id="Bell_2">
</g>
<g id="Bell_3">
</g>
<g id="Bell_4">
</g>
<g id="Easter_celebration">
</g>
<g id="Egg_painting">
</g>
<g id="Easter_willow">
</g>
<g id="Daffodil">
</g>
<g id="Easter_message">
</g>
<g id="Bunny_2">
</g>
<g id="Chicken_3">
</g>
<g id="Tulip_2">
</g>
<g id="Easter_basket">
</g>
<g id="Bread_and_wine">
</g>
<g id="Sheep_2">
</g>
<g id="Candle_Light">
</g>
</svg>
