<?xml version="1.0" encoding="iso-8859-1"?>
<!-- Generator: Adobe Illustrator 19.2.1, SVG Export Plug-In . SVG Version: 6.00 Build 0)  -->
<svg version="1.1" xmlns="http://www.w3.org/2000/svg" xmlns:xlink="http://www.w3.org/1999/xlink" x="0px" y="0px"
	 viewBox="0 0 30 30" style="enable-background:new 0 0 30 30;" xml:space="preserve">
<g id="Egg">
</g>
<g id="Easter_Egg_1">
</g>
<g id="Easter_Egg_2">
</g>
<g id="Easter_Egg_3">
</g>
<g id="Eggs_1">
	<g>
		<path d="M1.05,16.252c0.505,1.255,1.182,2.42,1.999,3.473c2.995,0.562,7.123,0.884,11.451,0.884c4.327,0,8.455-0.322,11.451-0.884
			c0.817-1.054,1.495-2.218,2-3.473c-2.563,0.937-7.651,1.526-13.45,1.526C8.7,17.778,3.612,17.189,1.05,16.252z"/>
		<path d="M4.072,20.913c2.639,2.738,6.335,4.45,10.428,4.45c4.094,0,7.789-1.712,10.429-4.45
			c-2.911,0.444-6.597,0.696-10.429,0.696C10.668,21.609,6.982,21.357,4.072,20.913z"/>
		<path d="M0.124,12.679c0.101,0.783,0.257,1.548,0.476,2.288l0.127,0.065c2.022,1.044,7.558,1.746,13.773,1.746
			c6.209,0,11.742-0.701,13.77-1.744l0.13-0.067c0.219-0.74,0.376-1.505,0.476-2.288c-2.719,1.897-9.781,2.23-14.376,2.23
			C9.905,14.909,2.843,14.576,0.124,12.679z"/>
		<path d="M17.871,7.708c0.429-0.521,0.899-0.982,1.397-1.34c0.505-0.363,1.023-0.597,1.54-0.72C20.044,4.576,19.17,4,18.278,4
			c-1.118,0-1.995,0.865-2.618,1.785C16.353,6.061,17.125,6.624,17.871,7.708z"/>
		<path d="M11.042,7.72c0.749-1.092,1.524-1.657,2.218-1.935C12.637,4.865,11.76,4,10.642,4C9.749,4,8.875,4.577,8.11,5.652
			C9.109,5.897,10.115,6.594,11.042,7.72z"/>
		<path d="M11.666,8.593c0.704,1.053,1.255,2.242,1.534,3.3c0.427,0.007,0.848,0.016,1.3,0.016c0.419,0,0.806-0.009,1.203-0.015
			c0.269-1.029,0.806-2.234,1.536-3.324c-0.643-1.031-1.574-2.024-2.779-2.024C13.245,6.545,12.31,7.552,11.666,8.593z"/>
		<path d="M16.737,11.874c3.742-0.11,6.457-0.481,8.189-0.851c-0.396-1.97-1.359-4.182-3.02-4.451
			C19.698,6.208,17.452,9.514,16.737,11.874z"/>
		<path d="M7,6.572C5.345,6.84,4.381,9.039,3.983,11.004c1.714,0.373,4.426,0.751,8.184,0.866C11.449,9.511,9.201,6.214,7,6.572z"/>
		<path d="M14.5,13.909c5.016,0,14.5-0.637,14.5-3.045c0-0.349-0.012-1.335-3.717-2.132c0.157,0.385,0.284,0.765,0.384,1.113
			c1.771,0.439,2.301,0.872,2.333,1.015c-0.151,0.715-4.921,2.049-13.5,2.049c-8.579,0-13.349-1.334-13.5-2.042
			c0.031-0.146,0.539-0.566,2.232-0.998C3.331,9.52,3.458,9.138,3.616,8.75C0.412,9.446,0,10.274,0,10.864
			C0,13.272,9.485,13.909,14.5,13.909z"/>
	</g>
</g>
<g id="Eggs_2">
</g>
<g id="Bunny">
</g>
<g id="Sheep">
</g>
<g id="Bell_Alarm">
</g>
<g id="Calendar">
</g>
<g id="Tulip">
</g>
<g id="Chicken">
</g>
<g id="Chicken_2">
</g>
<g id="Baguette">
</g>
<g id="Ham">
</g>
<g id="Bell_2">
</g>
<g id="Bell_3">
</g>
<g id="Bell_4">
</g>
<g id="Easter_celebration">
</g>
<g id="Egg_painting">
</g>
<g id="Easter_willow">
</g>
<g id="Daffodil">
</g>
<g id="Easter_message">
</g>
<g id="Bunny_2">
</g>
<g id="Chicken_3">
</g>
<g id="Tulip_2">
</g>
<g id="Easter_basket">
</g>
<g id="Bread_and_wine">
</g>
<g id="Sheep_2">
</g>
<g id="Candle_Light">
</g>
</svg>
