<?xml version="1.0" encoding="iso-8859-1"?>
<!-- Generator: Adobe Illustrator 19.2.1, SVG Export Plug-In . SVG Version: 6.00 Build 0)  -->
<svg version="1.1" xmlns="http://www.w3.org/2000/svg" xmlns:xlink="http://www.w3.org/1999/xlink" x="0px" y="0px"
	 viewBox="0 0 24 24" style="enable-background:new 0 0 24 24;" xml:space="preserve">
<g id="Egg_1_">
</g>
<g id="Easter_Egg_1">
</g>
<g id="Easter_Egg_2">
</g>
<g id="Easter_Egg_3">
</g>
<g id="Eggs_1">
</g>
<g id="Eggs_2_1_">
	<g id="Eggs_2">
		<g>
			<path d="M3,14.5c-0.183,0-0.359-0.101-0.447-0.276C1.845,12.812,1.5,11.43,1.5,10C1.5,4.486,6.21,0,12,0s10.5,4.486,10.5,10
				c0,1.427-0.345,2.809-1.053,4.224c-0.124,0.248-0.427,0.346-0.671,0.224c-0.247-0.124-0.347-0.424-0.224-0.671
				C21.19,12.503,21.5,11.268,21.5,10c0-4.962-4.262-9-9.5-9s-9.5,4.038-9.5,9c0,1.271,0.31,2.506,0.947,3.776
				c0.123,0.247,0.023,0.547-0.223,0.671C3.152,14.483,3.076,14.5,3,14.5z"/>
		</g>
		<g>
			<path d="M12,19.978c2.857,0,6.215-0.402,8.043-0.768c0.628-1.055,1.081-2.231,1.299-3.484C20.087,16.408,17.469,17,12,17
				s-8.087-0.592-9.342-1.274c0.217,1.252,0.671,2.428,1.299,3.484C5.783,19.576,9.141,19.978,12,19.978z"/>
			<path d="M12,20.978c-2.381,0-5.223-0.276-7.249-0.607C6.507,22.573,9.127,24,12,24c2.873,0,5.494-1.427,7.25-3.63
				C17.222,20.701,14.38,20.978,12,20.978z"/>
		</g>
		<path d="M7.558,13.792c0.123-1.001,0.481-2.188,1.057-3.236c-0.708-0.481-1.397-0.66-2.005-0.495
			c-1.124,0.307-1.766,1.707-2.003,3.242C5.172,13.464,6.161,13.651,7.558,13.792z"/>
		<path d="M12,16c-1.586,0-9.5-0.096-9.5-2c0-0.678,1.33-0.109,1.125,0.004C4.338,14.397,7.164,15,12,15s7.662-0.603,8.375-0.996
			C20.17,13.891,21.5,13.322,21.5,14C21.5,15.904,13.586,16,12,16z M20.53,14.112h0.01H20.53z"/>
		<path d="M19.394,13.304c-0.238-1.534-0.881-2.937-2.003-3.242c-0.613-0.167-1.304,0.016-2.006,0.492
			c0.577,1.048,0.934,2.237,1.058,3.238C17.84,13.651,18.828,13.464,19.394,13.304z"/>
		<path d="M12,14c1.318,0,2.456-0.05,3.452-0.123C15.191,11.919,13.818,9,12,9s-3.191,2.919-3.452,4.877
			C9.544,13.95,10.682,14,12,14z"/>
	</g>
</g>
<g id="Bunny">
</g>
<g id="Sheep">
</g>
<g id="Bell_Alarm">
</g>
<g id="Calendar">
</g>
<g id="Tulip">
</g>
<g id="Chicken">
</g>
<g id="Chicken_2">
</g>
<g id="Baguette">
</g>
<g id="Ham_1_">
</g>
<g id="Bell_2">
</g>
<g id="Bell_3">
</g>
<g id="Bell_4">
</g>
<g id="Easter_celebration">
</g>
<g id="Egg_painting">
</g>
<g id="Easter_willow">
</g>
<g id="Daffodil">
</g>
<g id="Easter_message">
</g>
<g id="Bunny_2">
</g>
<g id="Chicken_3">
</g>
<g id="Tulip_2">
</g>
<g id="Easter_basket">
</g>
<g id="Bread_and_wine">
</g>
<g id="Sheep_2">
</g>
<g id="Candle_Light">
</g>
</svg>
