<?xml version="1.0" encoding="iso-8859-1"?>
<!-- Generator: Adobe Illustrator 19.2.1, SVG Export Plug-In . SVG Version: 6.00 Build 0)  -->
<svg version="1.1" xmlns="http://www.w3.org/2000/svg" xmlns:xlink="http://www.w3.org/1999/xlink" x="0px" y="0px"
	 viewBox="0 0 30 30" style="enable-background:new 0 0 30 30;" xml:space="preserve">
<g id="Engagement_1">
	<g>
		<path d="M17.417,15.248c-0.153-0.231-0.465-0.292-0.692-0.14c-0.23,0.153-0.293,0.463-0.14,0.693C17.511,17.194,18,18.818,18,20.5
			c0,4.687-3.813,8.5-8.5,8.5S1,25.187,1,20.5C1,15.813,4.813,12,9.5,12c1.152,0,2.269,0.226,3.32,0.673
			c0.252,0.107,0.547-0.011,0.656-0.265c0.108-0.254-0.011-0.548-0.265-0.656C12.035,11.253,10.787,11,9.5,11
			C4.262,11,0,15.262,0,20.5S4.262,30,9.5,30s9.5-4.262,9.5-9.5C19,18.621,18.453,16.805,17.417,15.248z"/>
		<path d="M20.5,11c-5.238,0-9.5,4.262-9.5,9.5c0,1.877,0.547,3.692,1.582,5.251c0.152,0.23,0.463,0.291,0.693,0.141
			c0.23-0.153,0.293-0.464,0.14-0.693C12.489,23.804,12,22.18,12,20.5c0-4.687,3.813-8.5,8.5-8.5c4.687,0,8.5,3.813,8.5,8.5
			c0,4.687-3.813,8.5-8.5,8.5c-1.147,0-2.26-0.225-3.306-0.667c-0.252-0.104-0.547,0.011-0.655,0.267
			c-0.107,0.254,0.012,0.547,0.267,0.655C17.976,29.749,19.218,30,20.5,30c5.238,0,9.5-4.262,9.5-9.5S25.738,11,20.5,11z"/>
		<path d="M14.63,9.662c0.095,0.104,0.229,0.164,0.37,0.164s0.275-0.06,0.37-0.164c0.115-0.126,2.816-3.104,3.699-4.182
			c0.552-0.674,0.844-1.452,0.844-2.248C19.913,1.45,18.57,0,16.919,0C16.209,0,15.534,0.268,15,0.75
			C14.466,0.268,13.791,0,13.081,0c-1.651,0-2.994,1.45-2.994,3.232c0,0.796,0.292,1.574,0.844,2.249
			C11.813,6.558,14.515,9.536,14.63,9.662z"/>
	</g>
</g>
<g id="Engagement_2">
</g>
<g id="Wedding_Ring">
</g>
<g id="Church">
</g>
<g id="Church_Bells">
</g>
<g id="Wedding_Altar_1">
</g>
<g id="Wedding_Altar_2">
</g>
<g id="Bow-Tie">
</g>
<g id="Wedding_Tiara">
</g>
<g id="Wedding_Bouquet">
</g>
<g id="Wedding_Decoration_1">
</g>
<g id="Wedding_Decoration_2">
</g>
<g id="Wedding_Way_Sign">
</g>
<g id="Wedding_Date">
</g>
<g id="Wedding_Invitation">
</g>
<g id="Wedding_Invitation_2">
</g>
<g id="Bride">
</g>
<g id="Groom">
</g>
<g id="Mariage_Couple">
</g>
<g id="Wedding_Planner_Book">
</g>
<g id="Wedding_Cake_1">
</g>
<g id="Wedding_Cake_2">
</g>
<g id="Wedding_Cake_3">
</g>
<g id="Cake_Slice">
</g>
<g id="Marriage_Settlement">
</g>
<g id="Glass_Decoration">
</g>
<g id="Cutlery_Decoration">
</g>
<g id="Celebration_Glasses">
</g>
<g id="Wedding_Photo">
</g>
<g id="Wedding_Present_1">
</g>
<g id="Wedding_Present_2">
</g>
<g id="Wedding_Bouquet_2">
</g>
<g id="Hands_with_rings">
</g>
<g id="Wedding_Car">
</g>
<g id="Wedding_music">
</g>
<g id="wedding_party">
</g>
<g id="Confetti_1">
</g>
<g id="Confetti_2">
</g>
</svg>
