<?xml version="1.0" encoding="iso-8859-1"?>
<!-- Generator: Adobe Illustrator 19.2.1, SVG Export Plug-In . SVG Version: 6.00 Build 0)  -->
<svg version="1.1" xmlns="http://www.w3.org/2000/svg" xmlns:xlink="http://www.w3.org/1999/xlink" x="0px" y="0px"
	 viewBox="0 0 30 30" style="enable-background:new 0 0 30 30;" xml:space="preserve">
<g id="Engagement_1">
</g>
<g id="Engagement_2">
	<g>
		<path d="M17.417,9.248c-0.154-0.23-0.465-0.293-0.693-0.14c-0.23,0.153-0.292,0.463-0.14,0.693C17.51,11.194,18,12.819,18,14.5
			c0,4.687-3.813,8.5-8.5,8.5S1,19.187,1,14.5S4.813,6,9.5,6c1.152,0,2.269,0.226,3.32,0.673c0.252,0.106,0.547-0.01,0.656-0.265
			c0.108-0.254-0.011-0.548-0.265-0.656C12.035,5.253,10.787,5,9.5,5C4.262,5,0,9.262,0,14.5S4.262,24,9.5,24s9.5-4.262,9.5-9.5
			C19,12.622,18.453,10.805,17.417,9.248z"/>
		<path d="M20.5,5C15.262,5,11,9.262,11,14.5c0,1.877,0.547,3.693,1.582,5.251c0.152,0.229,0.462,0.292,0.693,0.14
			c0.23-0.153,0.292-0.463,0.14-0.693C12.489,17.804,12,16.18,12,14.5C12,9.813,15.813,6,20.5,6S29,9.813,29,14.5S25.187,23,20.5,23
			c-1.146,0-2.259-0.224-3.305-0.667c-0.255-0.107-0.548,0.012-0.655,0.266c-0.107,0.254,0.011,0.548,0.266,0.655
			C17.976,23.749,19.219,24,20.5,24c5.238,0,9.5-4.262,9.5-9.5S25.738,5,20.5,5z"/>
	</g>
</g>
<g id="Wedding_Ring">
</g>
<g id="Church">
</g>
<g id="Church_Bells">
</g>
<g id="Wedding_Altar_1">
</g>
<g id="Wedding_Altar_2">
</g>
<g id="Bow-Tie">
</g>
<g id="Wedding_Tiara">
</g>
<g id="Wedding_Bouquet">
</g>
<g id="Wedding_Decoration_1">
</g>
<g id="Wedding_Decoration_2">
</g>
<g id="Wedding_Way_Sign">
</g>
<g id="Wedding_Date">
</g>
<g id="Wedding_Invitation">
</g>
<g id="Wedding_Invitation_2">
</g>
<g id="Bride">
</g>
<g id="Groom">
</g>
<g id="Mariage_Couple">
</g>
<g id="Wedding_Planner_Book">
</g>
<g id="Wedding_Cake_1">
</g>
<g id="Wedding_Cake_2">
</g>
<g id="Wedding_Cake_3">
</g>
<g id="Cake_Slice">
</g>
<g id="Marriage_Settlement">
</g>
<g id="Glass_Decoration">
</g>
<g id="Cutlery_Decoration">
</g>
<g id="Celebration_Glasses">
</g>
<g id="Wedding_Photo">
</g>
<g id="Wedding_Present_1">
</g>
<g id="Wedding_Present_2">
</g>
<g id="Wedding_Bouquet_2">
</g>
<g id="Hands_with_rings">
</g>
<g id="Wedding_Car">
</g>
<g id="Wedding_music">
</g>
<g id="wedding_party">
</g>
<g id="Confetti_1">
</g>
<g id="Confetti_2">
</g>
</svg>
