<?xml version="1.0" encoding="iso-8859-1"?>
<!-- Generator: Adobe Illustrator 19.2.1, SVG Export Plug-In . SVG Version: 6.00 Build 0)  -->
<svg version="1.1" xmlns="http://www.w3.org/2000/svg" xmlns:xlink="http://www.w3.org/1999/xlink" x="0px" y="0px"
	 viewBox="0 0 30 30" style="enable-background:new 0 0 30 30;" xml:space="preserve">
<g id="Add_User">
</g>
<g id="Remove_User">
</g>
<g id="Delete_User">
</g>
<g id="Done">
</g>
<g id="At_Symbol">
</g>
<g id="Question">
</g>
<g id="Answer">
</g>
<g id="Bring_Up">
</g>
<g id="Bring_Down">
</g>
<g id="Dismiss_User">
</g>
<g id="User_Speed">
</g>
<g id="User_Settings">
</g>
<g id="User_Refresh">
</g>
<g id="User_Time">
</g>
<g id="Dollar">
</g>
<g id="Euro">
</g>
<g id="Pound">
</g>
<g id="Bitcoin">
</g>
<g id="Global_User">
</g>
<g id="Waiting_User">
</g>
<g id="Writing_User_2">
</g>
<g id="Search_User">
</g>
<g id="Lock_User">
</g>
<g id="Mark_User">
</g>
<g id="Share_User">
</g>
<g id="Shopping">
</g>
<g id="User_Download">
</g>
<g id="User_Upload">
</g>
<g id="User_Statistics">
</g>
<g id="User_Defense">
</g>
<g id="User_Car">
</g>
<g id="User_Home">
</g>
<g id="Park">
</g>
<g id="Recicle_User">
</g>
<g id="Wifi">
</g>
<g id="Attach_User">
</g>
<g id="Disabled_User">
</g>
<g id="User_Card">
</g>
<g id="Gaming">
</g>
<g id="User_Cloud">
</g>
<g id="User_Database">
</g>
<g id="Copyright">
</g>
<g id="No_Copyright">
</g>
<g id="Creative_Commun">
</g>
<g id="Eco-Friendly">
</g>
<g id="Percentage">
</g>
<g id="User_Love">
</g>
<g id="User_Place">
</g>
<g id="User_Key">
</g>
<g id="Sleeping">
</g>
<g id="Add_User_2">
</g>
<g id="Remove_User_2">
</g>
<g id="Delete_User_2">
</g>
<g id="Done_2">
</g>
<g id="At_Symbol_2">
</g>
<g id="Question_2">
</g>
<g id="Answer_2">
</g>
<g id="Bring_Up_2">
</g>
<g id="Bring_Down_2">
</g>
<g id="Dismiss_User_2">
</g>
<g id="User_Speed_2">
</g>
<g id="User_Settings_2">
</g>
<g id="Refresh_2">
</g>
<g id="Time_2">
</g>
<g id="Dollar_2">
</g>
<g id="Euro_2">
	<g>
		<path d="M29.854,29.146l-4-4C26.559,24.284,27,23.198,27,22c0-2.757-2.243-5-5-5s-5,2.243-5,5s2.243,5,5,5
			c1.198,0,2.284-0.441,3.146-1.146l4,4C29.244,29.951,29.372,30,29.5,30s0.256-0.049,0.354-0.146
			C30.049,29.658,30.049,29.342,29.854,29.146z M22,26c-2.206,0-4-1.794-4-4s1.794-4,4-4s4,1.794,4,4S24.206,26,22,26z"/>
		<path d="M25.308,27.429c-0.154-0.154-0.39-0.19-0.582-0.091C23.87,27.777,22.953,28,22,28c-3.309,0-6-2.691-6-6
			c0-2.424,1.449-4.597,3.69-5.537c0.128-0.054,0.229-0.158,0.276-0.289c0.214-0.586,0.361-1.181,0.439-1.774
			c0.661-0.167,1.176-0.74,1.263-1.462l0.293-2.445c0.06-0.496-0.092-0.992-0.417-1.362c-0.194-0.222-0.441-0.386-0.712-0.479
			l0.114-2.438l0.467-0.487c0.633-0.701,1.155-1.904,0.052-3.658C20.604,0.696,19.131,0,17.088,0c-0.813,0-2.69,0-4.427,1.225
			C7.716,1.326,7.043,3.693,7.043,6.002c0,0.568,0.14,1.888,0.223,2.616C6.96,8.702,6.68,8.875,6.463,9.12
			c-0.33,0.373-0.485,0.873-0.425,1.373l0.293,2.445c0.092,0.771,0.674,1.373,1.4,1.49c0.229,1.705,1.023,3.385,2.185,4.612
			l-0.441,1.836l-4.548,1.184C1.884,22.854,0,26.54,0,29.5C0,29.776,0.224,30,0.5,30h26.172c0.202,0,0.385-0.122,0.462-0.309
			c0.078-0.187,0.035-0.402-0.108-0.545L25.308,27.429z"/>
	</g>
</g>
<g id="Pound_2">
</g>
<g id="Bitcoin_2">
</g>
<g id="Global_User_2">
</g>
<g id="Waiting_User_2">
</g>
<g id="Writing_User">
</g>
<g id="Search_User_2">
</g>
<g id="Lock_User_2">
</g>
<g id="Mark_User_2">
</g>
<g id="Share_User_2">
</g>
<g id="Shopping_2">
</g>
<g id="Download_2">
</g>
<g id="Upload_2">
</g>
<g id="User_Statistics_2">
</g>
<g id="User_Defense_2">
</g>
<g id="Car_2">
</g>
<g id="Home_2">
</g>
<g id="Park_2">
</g>
<g id="Recicle_User_2">
</g>
<g id="User_Wifi">
</g>
<g id="Attach_2">
</g>
<g id="Disabled_User_2">
</g>
<g id="User_Card_2">
</g>
<g id="Gaming_2">
</g>
<g id="Cloud_2">
</g>
<g id="Database_2">
</g>
<g id="Copyright_2">
</g>
<g id="No_Copyright_2">
</g>
<g id="Creative_Commun_2">
</g>
<g id="Eco-Friendly_2">
</g>
<g id="Percentage_2">
</g>
<g id="User_Love_2">
</g>
<g id="User_Rate_2">
</g>
<g id="User_Key_2">
</g>
<g id="Sleeping_2">
</g>
</svg>
