<?xml version="1.0" encoding="iso-8859-1"?>
<!-- Generator: Adobe Illustrator 19.2.1, SVG Export Plug-In . SVG Version: 6.00 Build 0)  -->
<svg version="1.1" xmlns="http://www.w3.org/2000/svg" xmlns:xlink="http://www.w3.org/1999/xlink" x="0px" y="0px"
	 viewBox="0 0 30 30" style="enable-background:new 0 0 30 30;" xml:space="preserve">
<g id="Add_User">
</g>
<g id="Remove_User">
</g>
<g id="Delete_User">
</g>
<g id="Done">
</g>
<g id="At_Symbol">
</g>
<g id="Question">
</g>
<g id="Answer">
</g>
<g id="Bring_Up">
</g>
<g id="Bring_Down">
</g>
<g id="Dismiss_User">
</g>
<g id="User_Speed">
</g>
<g id="User_Settings">
</g>
<g id="User_Refresh">
</g>
<g id="User_Time">
</g>
<g id="Dollar">
</g>
<g id="Euro">
</g>
<g id="Pound">
</g>
<g id="Bitcoin">
</g>
<g id="Global_User">
</g>
<g id="Waiting_User">
</g>
<g id="Writing_User_2">
</g>
<g id="Search_User">
</g>
<g id="Lock_User">
</g>
<g id="Mark_User">
</g>
<g id="Share_User">
</g>
<g id="Shopping">
</g>
<g id="User_Download">
</g>
<g id="User_Upload">
</g>
<g id="User_Statistics">
</g>
<g id="User_Defense">
</g>
<g id="User_Car">
</g>
<g id="User_Home">
</g>
<g id="Park">
</g>
<g id="Recicle_User">
</g>
<g id="Wifi">
</g>
<g id="Attach_User">
</g>
<g id="Disabled_User">
</g>
<g id="User_Card">
</g>
<g id="Gaming">
</g>
<g id="User_Cloud">
</g>
<g id="User_Database">
</g>
<g id="Copyright">
</g>
<g id="No_Copyright">
</g>
<g id="Creative_Commun">
</g>
<g id="Eco-Friendly">
</g>
<g id="Percentage">
</g>
<g id="User_Love">
</g>
<g id="User_Place">
</g>
<g id="User_Key">
</g>
<g id="Sleeping">
</g>
<g id="Add_User_2">
</g>
<g id="Remove_User_2">
</g>
<g id="Delete_User_2">
</g>
<g id="Done_2">
</g>
<g id="At_Symbol_2">
</g>
<g id="Question_2">
</g>
<g id="Answer_2">
</g>
<g id="Bring_Up_2">
</g>
<g id="Bring_Down_2">
</g>
<g id="Dismiss_User_2">
</g>
<g id="User_Speed_2">
</g>
<g id="User_Settings_2">
</g>
<g id="Refresh_2">
</g>
<g id="Time_2">
</g>
<g id="Dollar_2">
</g>
<g id="Euro_2">
	<g>
		<g>
			<g>
				<g>
					<g>
						<path d="M22,27c-2.757,0-5-2.243-5-5s2.243-5,5-5s5,2.243,5,5S24.757,27,22,27z M22,18c-2.206,0-4,1.794-4,4s1.794,4,4,4
							s4-1.794,4-4S24.206,18,22,18z"/>
					</g>
					<g>
						<path d="M29.5,30c-0.128,0-0.256-0.049-0.354-0.146l-4-4c-0.195-0.195-0.195-0.512,0-0.707s0.512-0.195,0.707,0l4,4
							c0.195,0.195,0.195,0.512,0,0.707C29.756,29.951,29.628,30,29.5,30z"/>
					</g>
					<g>
						<path d="M24.5,30h-24C0.224,30,0,29.776,0,29.5c0-2.96,1.884-6.646,4.927-7.438l4.549-1.185l0.44-1.836
							c-1.161-1.227-1.955-2.907-2.185-4.613c-0.726-0.117-1.308-0.719-1.399-1.49l-0.294-2.445
							c-0.06-0.501,0.096-1.001,0.426-1.373C6.681,8.875,6.96,8.702,7.266,8.617C7.183,7.89,7.043,6.57,7.043,6.002
							c0-2.309,0.672-4.676,5.618-4.776C14.398,0,16.274,0,17.088,0c2.043,0,3.516,0.695,4.378,2.068
							c0.886,1.407,0.868,2.638-0.052,3.657l-0.467,0.487l-0.114,2.438c0.271,0.094,0.518,0.258,0.712,0.48
							c0.324,0.37,0.477,0.866,0.417,1.36l-0.294,2.445c-0.086,0.722-0.601,1.295-1.262,1.462c-0.077,0.593-0.225,1.188-0.439,1.774
							c-0.095,0.26-0.384,0.393-0.642,0.298c-0.26-0.095-0.393-0.383-0.298-0.642c0.233-0.637,0.376-1.282,0.424-1.919
							c0.021-0.261,0.237-0.462,0.499-0.462c0.395,0,0.683-0.271,0.726-0.631l0.294-2.445c0.025-0.213-0.039-0.426-0.177-0.583
							c-0.127-0.145-0.3-0.227-0.485-0.229c-0.136-0.002-0.265-0.059-0.358-0.157c-0.093-0.099-0.142-0.23-0.135-0.366l0.144-3.06
							c0.005-0.121,0.055-0.235,0.138-0.322l0.586-0.611c0.399-0.443,0.764-1.132-0.062-2.444C19.952,1.538,18.764,1,17.088,1
							c-1.214,0-2.635,0.134-3.963,1.124c-0.085,0.063-0.188,0.098-0.294,0.099C8.409,2.269,8.043,4.036,8.043,6.002
							c0,0.729,0.271,2.974,0.273,2.996c0.018,0.143-0.027,0.285-0.122,0.393C8.1,9.497,7.964,9.559,7.82,9.559H7.699
							c-0.187,0-0.359,0.08-0.487,0.225c-0.142,0.158-0.207,0.373-0.182,0.59l0.294,2.445c0.043,0.359,0.331,0.631,0.669,0.631h0.19
							c0.262,0,0.479,0.201,0.499,0.462c0.131,1.716,0.929,3.442,2.134,4.619c0.126,0.123,0.178,0.303,0.137,0.474l-0.575,2.397
							c-0.043,0.18-0.182,0.321-0.36,0.367l-4.839,1.26C2.837,23.639,1.216,26.504,1.02,29H24.5c0.276,0,0.5,0.224,0.5,0.5
							S24.776,30,24.5,30z"/>
					</g>
				</g>
			</g>
		</g>
	</g>
</g>
<g id="Pound_2">
</g>
<g id="Bitcoin_2">
</g>
<g id="Global_User_2">
</g>
<g id="Waiting_User_2">
</g>
<g id="Writing_User">
</g>
<g id="Search_User_2">
</g>
<g id="Lock_User_2">
</g>
<g id="Mark_User_2">
</g>
<g id="Share_User_2">
</g>
<g id="Shopping_2">
</g>
<g id="Download_2">
</g>
<g id="Upload_2">
</g>
<g id="User_Statistics_2">
</g>
<g id="User_Defense_2">
</g>
<g id="Car_2">
</g>
<g id="Home_2">
</g>
<g id="Park_2">
</g>
<g id="Recicle_User_2">
</g>
<g id="User_Wifi">
</g>
<g id="Attach_2">
</g>
<g id="Disabled_User_2">
</g>
<g id="User_Card_2">
</g>
<g id="Gaming_2">
</g>
<g id="Cloud_2">
</g>
<g id="Database_2">
</g>
<g id="Copyright_2">
</g>
<g id="No_Copyright_2">
</g>
<g id="Creative_Commun_2">
</g>
<g id="Eco-Friendly_2">
</g>
<g id="Percentage_2">
</g>
<g id="User_Love_2">
</g>
<g id="User_Rate_2">
</g>
<g id="User_Key_2">
</g>
<g id="Sleeping_2">
</g>
</svg>
