<?xml version="1.0" encoding="iso-8859-1"?>
<!-- Generator: Adobe Illustrator 19.2.1, SVG Export Plug-In . SVG Version: 6.00 Build 0)  -->
<svg version="1.1" xmlns="http://www.w3.org/2000/svg" xmlns:xlink="http://www.w3.org/1999/xlink" x="0px" y="0px"
	 viewBox="0 0 24 24" style="enable-background:new 0 0 24 24;" xml:space="preserve">
<g id="Retro_Bot_1">
</g>
<g id="Retro_Bot_2">
</g>
<g id="Retro_Bot_3">
</g>
<g id="Retro_Bot_4">
</g>
<g id="Wall-E">
</g>
<g id="Eva">
	<g>
		<path d="M18.594,9.434c-0.131-0.106-0.305-0.14-0.462-0.091C16.783,9.754,14.49,10,12,10c-2.494,0-4.788-0.246-6.135-0.658
			C5.597,9.257,5.321,9.41,5.24,9.673C5.215,9.759,5.212,9.847,5.23,9.928C6.038,18.348,8.756,24,12,24
			c3.253,0,5.976-5.679,6.775-14.132C18.791,9.702,18.723,9.54,18.594,9.434z M8.5,13C8.224,13,8,12.776,8,12.5
			C8,12.224,8.224,12,8.5,12S9,12.224,9,12.5C9,12.776,8.776,13,8.5,13z M10.5,13c-0.276,0-0.5-0.224-0.5-0.5
			c0-0.276,0.224-0.5,0.5-0.5s0.5,0.224,0.5,0.5C11,12.776,10.776,13,10.5,13z M12.5,13c-0.276,0-0.5-0.224-0.5-0.5
			c0-0.276,0.224-0.5,0.5-0.5s0.5,0.224,0.5,0.5C13,12.776,12.776,13,12.5,13z"/>
		<path d="M12,9c5.221,0,6-2.193,6-3.5C18,2.855,15.706,0,12,0C8.085,0,6,3.194,6,5.5C6,6.807,6.779,9,12,9z M13.114,5.182
			c0.055-0.066,0.554-0.646,1.325-0.677c0.504-0.026,0.984,0.197,1.42,0.647c0.192,0.198,0.187,0.515-0.012,0.707
			C15.751,5.953,15.625,6,15.5,6c-0.131,0-0.261-0.051-0.359-0.152c-0.227-0.234-0.431-0.331-0.656-0.343
			c-0.335,0.01-0.599,0.314-0.602,0.317c-0.179,0.208-0.49,0.236-0.703,0.059C12.97,5.704,12.939,5.394,13.114,5.182z M8.112,5.184
			C8.166,5.118,8.66,4.538,9.43,4.504c0.509-0.025,0.989,0.196,1.429,0.647c0.192,0.198,0.188,0.515-0.01,0.707
			c-0.198,0.193-0.515,0.189-0.707-0.01C9.909,5.61,9.692,5.491,9.474,5.503C9.15,5.517,8.89,5.813,8.888,5.816
			C8.789,5.937,8.645,6,8.5,6C8.389,6,8.277,5.963,8.185,5.888C7.97,5.713,7.937,5.398,8.112,5.184z"/>
		<path d="M4.405,11.437c-0.035-0.274-0.288-0.467-0.56-0.433c-0.273,0.035-0.468,0.285-0.433,0.559
			c0.604,4.75,1.846,8.733,3.499,11.214C7.009,22.922,7.167,23,7.328,23c0.096,0,0.192-0.027,0.277-0.084
			c0.229-0.153,0.292-0.463,0.139-0.693C6.175,19.868,4.989,16.037,4.405,11.437z"/>
		<path d="M20.154,11.004c-0.27-0.034-0.524,0.159-0.56,0.433c-0.584,4.6-1.77,8.431-3.339,10.786
			c-0.153,0.23-0.091,0.541,0.139,0.693C16.479,22.973,16.576,23,16.672,23c0.161,0,0.319-0.078,0.416-0.223
			c1.653-2.481,2.896-6.464,3.499-11.214C20.622,11.289,20.428,11.039,20.154,11.004z"/>
	</g>
</g>
<g id="Iron_Giant">
</g>
<g id="Marvin">
</g>
<g id="Atlas">
</g>
<g id="Claptrap">
</g>
<g id="Android">
</g>
<g id="Bender">
</g>
<g id="Roberto">
</g>
<g id="Robot_Devil">
</g>
<g id="Robocop">
</g>
<g id="ED_209">
</g>
<g id="Optimus_Prime">
</g>
<g id="Robot_1">
</g>
<g id="Robot_2">
</g>
<g id="Robot_3">
</g>
<g id="Robot_Arm_1">
</g>
<g id="Robot_Arm_2">
</g>
<g id="Robot_Arm_3">
</g>
<g id="Robot_Arm_4">
</g>
<g id="Robot_Arm_5">
</g>
<g id="K5_Robot">
</g>
<g id="Robot_Machine_1">
</g>
<g id="Robot_Machine_2">
</g>
<g id="Artifical_Intelligence_1">
</g>
<g id="Artifical_Intelligence_2">
</g>
<g id="Robot_4">
</g>
<g id="Robot_5">
</g>
<g id="Robot_6">
</g>
<g id="Robot_7">
</g>
<g id="Robot_8">
</g>
<g id="Robot_9">
</g>
<g id="Robot_10">
</g>
<g id="Robot_11">
</g>
<g id="Robot_12">
</g>
<g id="Robot_13">
</g>
</svg>
