<?xml version="1.0" encoding="iso-8859-1"?>
<!-- Generator: Adobe Illustrator 19.2.1, SVG Export Plug-In . SVG Version: 6.00 Build 0)  -->
<svg version="1.1" xmlns="http://www.w3.org/2000/svg" xmlns:xlink="http://www.w3.org/1999/xlink" x="0px" y="0px"
	 viewBox="0 0 24 24" style="enable-background:new 0 0 24 24;" xml:space="preserve">
<g id="Event">
</g>
<g id="Event_2">
</g>
<g id="Add_Event">
</g>
<g id="Remove_Event">
</g>
<g id="Event_Reminder">
</g>
<g id="Wine_Glass">
</g>
<g id="Toast">
</g>
<g id="Champagne">
</g>
<g id="Champagne_Open">
</g>
<g id="Alcohol_Drink">
</g>
<g id="Beer_Glass">
</g>
<g id="Party_Cake">
</g>
<g id="Pizza_Food">
</g>
<g id="Disco_Ball">
</g>
<g id="Equalizer">
</g>
<g id="DJ">
</g>
<g id="Tent">
</g>
<g id="Firework_1">
</g>
<g id="Firework_2">
</g>
<g id="Party_Glasses">
</g>
<g id="Barbeque">
</g>
<g id="Horn">
</g>
<g id="Speaker">
</g>
<g id="VIP">
</g>
<g id="Event_Ticket">
	<path d="M22.5,10c0.276,0,0.5-0.224,0.5-0.5v-4C23,5.224,22.776,5,22.5,5h-22C0.224,5,0,5.224,0,5.5v4C0,9.776,0.224,10,0.5,10
		C1.327,10,2,10.673,2,11.5S1.327,13,0.5,13C0.224,13,0,13.224,0,13.5v4C0,17.776,0.224,18,0.5,18h22c0.276,0,0.5-0.224,0.5-0.5v-4
		c0-0.276-0.224-0.5-0.5-0.5c-0.827,0-1.5-0.673-1.5-1.5S21.673,10,22.5,10z M17.5,14h-12C5.224,14,5,13.776,5,13.5S5.224,13,5.5,13
		h12c0.276,0,0.5,0.224,0.5,0.5S17.776,14,17.5,14z M17.5,12h-12C5.224,12,5,11.776,5,11.5S5.224,11,5.5,11h12
		c0.276,0,0.5,0.224,0.5,0.5S17.776,12,17.5,12z M17.5,10h-12C5.224,10,5,9.776,5,9.5S5.224,9,5.5,9h12C17.776,9,18,9.224,18,9.5
		S17.776,10,17.5,10z"/>
</g>
<g id="VIP_Ticket">
</g>
<g id="Popcorn">
</g>
<g id="Cord">
</g>
<g id="Invitation_1">
</g>
<g id="Invitation_2">
</g>
</svg>
