<?xml version="1.0" encoding="iso-8859-1"?>
<!-- Generator: Adobe Illustrator 19.2.1, SVG Export Plug-In . SVG Version: 6.00 Build 0)  -->
<svg version="1.1" xmlns="http://www.w3.org/2000/svg" xmlns:xlink="http://www.w3.org/1999/xlink" x="0px" y="0px"
	 viewBox="0 0 24 24" style="enable-background:new 0 0 24 24;" xml:space="preserve">
<g id="Pompkin">
</g>
<g id="Layer_10">
</g>
<g id="Bat">
</g>
<g id="Ghost">
</g>
<g id="Bone_Hand">
</g>
<g id="Tree_Ghost">
</g>
<g id="Gate">
</g>
<g id="Cemetery_1">
</g>
<g id="Cemetery_2">
</g>
<g id="Devil_x27_s_Fork">
</g>
<g id="Night_Candle">
</g>
<g id="Canlestick">
</g>
<g id="Black_Cat">
</g>
<g id="Witch_Cauldron">
</g>
<g id="Corn_Candy">
</g>
<g id="Layer_29">
</g>
<g id="Bones">
</g>
<g id="Witch_Broom">
</g>
<g id="Owl">
</g>
<g id="Scythe">
</g>
<g id="Grim_Reaper">
</g>
<g id="Coffin">
</g>
<g id="Dracula">
</g>
<g id="Frankenstein">
</g>
<g id="Layer_40">
</g>
<g id="Toilet_Paper">
</g>
<g id="Skull">
</g>
<g id="Skull_Cake">
</g>
<g id="Eyeball">
	<g>
		<path d="M7.5,13.983c1.93,0,3.5-1.57,3.5-3.5s-1.57-3.5-3.5-3.5S4,8.553,4,10.483S5.57,13.983,7.5,13.983z M7.5,9.483
			c0.551,0,1,0.449,1,1s-0.449,1-1,1s-1-0.449-1-1S6.949,9.483,7.5,9.483z"/>
		<path d="M21.547,15.037C21.832,14.409,22,13.717,22,12.983c0-2.757-2.243-5-5-5c-1.16,0-2.261,0.407-3.146,1.138
			C13.226,6.189,10.617,3.983,7.5,3.983c-3.584,0-6.5,2.916-6.5,6.5c0,1.246,0.359,2.407,0.969,3.397
			C0.715,14.011,0,14.757,0,15.983c0,3.061,10.29,3.912,11.463,3.999c0.316,0.023,0.669,0.035,1.052,0.035
			c3.446,0,10.579-1.014,11.454-3.359C23.989,16.602,24,16.543,24,16.483C24,15.965,23.555,15.532,21.547,15.037z M13.997,10.371
			C14.763,9.487,15.848,8.983,17,8.983c1.999,0,3.645,1.478,3.939,3.396c-0.28-1.366-1.491-2.396-2.939-2.396c-1.654,0-3,1.346-3,3
			s1.346,3,3,3c1.447,0,2.659-1.03,2.939-2.396c-0.085,0.553-0.277,1.068-0.564,1.523c-0.065,0.103-0.139,0.198-0.212,0.293
			c-0.063,0.083-0.129,0.163-0.199,0.241c-0.07,0.078-0.139,0.158-0.214,0.23c-0.142,0.135-0.292,0.26-0.452,0.373
			c-0.059,0.042-0.122,0.079-0.183,0.118c-0.148,0.093-0.301,0.178-0.461,0.251c-0.046,0.021-0.091,0.046-0.138,0.066
			c-0.205,0.084-0.419,0.149-0.64,0.199c-0.053,0.012-0.107,0.021-0.161,0.031c-0.233,0.042-0.47,0.072-0.715,0.072
			c-0.229,0-0.452-0.022-0.671-0.058c-0.098-0.017-0.192-0.047-0.288-0.071c-0.114-0.028-0.23-0.053-0.34-0.091
			c-0.125-0.043-0.243-0.099-0.362-0.154c-0.072-0.033-0.146-0.062-0.215-0.099c-0.136-0.073-0.266-0.158-0.392-0.247
			c-0.042-0.03-0.086-0.057-0.128-0.088c-0.139-0.106-0.27-0.223-0.395-0.347c-0.021-0.02-0.042-0.04-0.062-0.061
			c-0.133-0.139-0.257-0.288-0.37-0.447c-0.007-0.009-0.014-0.018-0.02-0.028c-0.117-0.168-0.223-0.346-0.315-0.534
			c-0.002-0.003-0.003-0.006-0.004-0.009c-0.091-0.187-0.168-0.384-0.231-0.589c-0.038-0.126-0.084-0.247-0.111-0.378
			c0.008-0.013,0.012-0.026,0.02-0.039c0.271-0.464,0.485-0.964,0.634-1.492c0.015-0.052,0.027-0.104,0.04-0.156
			c0.052-0.204,0.095-0.412,0.127-0.624c0.01-0.065,0.022-0.13,0.03-0.196C13.979,11.014,14,10.751,14,10.483
			C14,10.448,13.999,10.414,13.997,10.371z M20,12.983c0,0.551-0.449,1-1,1s-1-0.449-1-1s0.449-1,1-1S20,12.432,20,12.983z M5,5.59
			v0.893c0,0.276,0.224,0.5,0.5,0.5S6,6.76,6,6.483V5.196c0.478-0.136,0.979-0.213,1.5-0.213c0.251,0,0.496,0.023,0.738,0.055
			L7.646,5.63c-0.195,0.195-0.195,0.512,0,0.707C7.744,6.434,7.872,6.483,8,6.483c0.087,0,0.17-0.031,0.247-0.076
			C8.258,6.414,8.265,6.425,8.276,6.43l1,0.5C9.348,6.966,9.424,6.983,9.5,6.983c0.184,0,0.36-0.101,0.448-0.276
			c0.124-0.247,0.023-0.547-0.224-0.671L9.011,5.679l0.343-0.343c0.006-0.006,0.008-0.014,0.013-0.02
			c1.059,0.384,1.966,1.081,2.61,1.983l-0.83,0.83c-0.195,0.195-0.195,0.512,0,0.707c0.098,0.098,0.226,0.146,0.354,0.146
			s0.256-0.049,0.354-0.146l0.642-0.642c0.287,0.623,0.458,1.307,0.492,2.028c0,0.001-0.001,0.003,0,0.004
			c0,0.002,0.002,0.039,0.004,0.071C12.993,10.36,13,10.421,13,10.483c0,0.236-0.02,0.47-0.05,0.702
			c-0.002,0.012-0.004,0.024-0.005,0.036l-0.091-0.091c-0.195-0.195-0.512-0.195-0.707,0s-0.195,0.512,0,0.707l0.5,0.5
			c0.003,0.003,0.008,0.004,0.012,0.008c-0.046,0.126-0.084,0.255-0.139,0.377c-0.004,0.008-0.008,0.017-0.012,0.025
			c-0.1,0.22-0.216,0.435-0.346,0.642c-0.122,0.194-0.251,0.383-0.395,0.56c-0.124,0.152-0.254,0.297-0.391,0.433
			c-0.036,0.035-0.075,0.067-0.112,0.101c-0.101,0.095-0.204,0.189-0.311,0.276c-0.066,0.054-0.137,0.103-0.206,0.154
			c-0.013,0.009-0.026,0.018-0.039,0.027l0.266-0.799c0.087-0.262-0.054-0.545-0.316-0.632c-0.263-0.089-0.545,0.055-0.632,0.316
			l-0.5,1.5c-0.03,0.09-0.025,0.18-0.005,0.266c-0.017,0.007-0.033,0.014-0.05,0.021c-0.083,0.032-0.166,0.064-0.251,0.092
			c-0.105,0.034-0.211,0.063-0.318,0.091c-0.078,0.021-0.155,0.043-0.234,0.06c-0.125,0.027-0.253,0.046-0.381,0.065
			c-0.065,0.009-0.128,0.023-0.194,0.03c-0.131,0.014-0.263,0.017-0.396,0.022l-0.271-0.271l0.733-0.244
			c0.262-0.087,0.403-0.37,0.316-0.632c-0.087-0.262-0.368-0.404-0.632-0.316l-1.207,0.402L5.854,14.13
			c-0.195-0.195-0.512-0.195-0.707,0s-0.195,0.512,0,0.707l0.959,0.959c-0.106-0.028-0.212-0.054-0.315-0.088
			c-0.055-0.018-0.108-0.04-0.162-0.06c-0.124-0.045-0.247-0.092-0.367-0.146c-0.057-0.026-0.113-0.054-0.169-0.082
			c-0.114-0.056-0.226-0.114-0.335-0.177c-0.057-0.033-0.112-0.067-0.168-0.102c-0.105-0.066-0.209-0.136-0.31-0.209
			c-0.053-0.039-0.106-0.077-0.157-0.118c-0.102-0.08-0.2-0.164-0.297-0.251c-0.044-0.04-0.089-0.079-0.132-0.12
			c-0.106-0.102-0.207-0.21-0.306-0.321c-0.563-0.636-0.979-1.401-1.201-2.246l0.461,0.461C2.744,12.434,2.872,12.483,3,12.483
			s0.256-0.049,0.354-0.146c0.195-0.195,0.195-0.512,0-0.707l-0.745-0.745l0.339-0.678C3.071,9.96,2.971,9.659,2.724,9.536
			c-0.248-0.122-0.546-0.024-0.67,0.223c0.073-0.551,0.227-1.076,0.452-1.564l0.642,0.642C3.244,8.934,3.372,8.983,3.5,8.983
			s0.256-0.049,0.354-0.146c0.195-0.195,0.195-0.512,0-0.707l-0.83-0.83C3.535,6.583,4.212,5.995,5,5.59z"/>
	</g>
</g>
<g id="Castle">
</g>
<g id="Witch_x27_s_Hat">
</g>
<g id="Cobweb_1">
</g>
<g id="Cobweb_2">
</g>
<g id="Spider">
</g>
<g id="Full_Moon">
</g>
<g id="Crescent">
</g>
<g id="Crow">
</g>
<g id="Candy_Holder">
</g>
<g id="Bloody_Knife">
</g>
<g id="Bloody_Axe">
</g>
</svg>
