<?xml version="1.0" encoding="iso-8859-1"?>
<!-- Generator: Adobe Illustrator 19.2.1, SVG Export Plug-In . SVG Version: 6.00 Build 0)  -->
<svg version="1.1" xmlns="http://www.w3.org/2000/svg" xmlns:xlink="http://www.w3.org/1999/xlink" x="0px" y="0px"
	 viewBox="0 0 24 24" style="enable-background:new 0 0 24 24;" xml:space="preserve">
<g id="Man_1">
</g>
<g id="Woman_1">
</g>
<g id="Man_2">
</g>
<g id="Woman_2">
</g>
<g id="Bald_Man">
</g>
<g id="Man_Glasses">
</g>
<g id="Woman_Glasses">
</g>
<g id="Man_Beard">
</g>
<g id="Man_Cap">
</g>
<g id="Woman_Cap">
</g>
<g id="Man_3">
</g>
<g id="Woman_3">
</g>
<g id="Men_4">
</g>
<g id="Woman_4">
</g>
<g id="Business_Man_1">
</g>
<g id="Business_Woman_1">
</g>
<g id="Firefigyhter">
</g>
<g id="Policeman">
</g>
<g id="Criminal">
</g>
<g id="Prisoner">
</g>
<g id="Woodsman">
</g>
<g id="Dispatcher_1">
</g>
<g id="Dispatcher_2">
</g>
<g id="Soldier">
</g>
<g id="Astronaut">
</g>
<g id="Hipster_Guy">
</g>
<g id="Hipster_Girl">
</g>
<g id="Worker">
</g>
<g id="Old_Man">
</g>
<g id="Punk">
</g>
<g id="Diver">
</g>
<g id="Artist">
</g>
<g id="Dictator">
</g>
<g id="Man_Hat">
</g>
<g id="Woman_Hat">
</g>
<g id="Graduated_Man">
</g>
<g id="Graduated_Woman">
</g>
<g id="Avatar_Chef">
</g>
<g id="Waiter">
</g>
<g id="Waitress">
</g>
<g id="Bllboy">
</g>
<g id="Santa">
</g>
<g id="Doctor">
</g>
<g id="Nurse">
</g>
<g id="Captain">
</g>
<g id="Farmer">
	<g>
		<path d="M24,12c0-6.617-5.383-12-12-12S0,5.383,0,12s5.383,12,12,12c3.172,0,6.052-1.246,8.199-3.262
			c0.009-0.005,0.013-0.014,0.021-0.019C22.542,18.529,24,15.435,24,12z M1,12C1,5.935,5.935,1,12,1s11,4.935,11,11
			c0,3-1.21,5.72-3.164,7.707c-0.068-0.026-0.133-0.057-0.202-0.081L18,19.058v2.15c-0.322,0.21-0.656,0.402-1,0.578v-3.189
			c-0.03-0.022-0.063-0.039-0.093-0.062c-0.279,0.334-0.587,0.627-0.907,0.9v2.8C14.758,22.723,13.412,23,12,23
			c-1.413,0-2.76-0.277-4.002-0.765v-2.794c-0.321-0.274-0.629-0.569-0.909-0.905C7.06,18.558,7.029,18.574,7,18.595v3.191
			c-0.344-0.176-0.678-0.368-1-0.578v-2.151l-1.637,0.569c-0.068,0.024-0.133,0.054-0.2,0.08C2.21,17.719,1,14.999,1,12z"/>
		<path d="M10.5,12h-1C9.224,12,9,12.224,9,12.5S9.224,13,9.5,13h1c0.276,0,0.5-0.224,0.5-0.5S10.776,12,10.5,12z"/>
		<path d="M14.5,12h-1c-0.276,0-0.5,0.224-0.5,0.5s0.224,0.5,0.5,0.5h1c0.276,0,0.5-0.224,0.5-0.5S14.776,12,14.5,12z"/>
		<path d="M13.39,20.819c-0.166,0.04-0.308,0.07-0.451,0.095C12.606,20.972,12.296,21,11.998,21c-0.296,0-0.606-0.028-0.949-0.088
			c-0.136-0.022-0.276-0.053-0.417-0.087c-0.122-0.03-0.227-0.063-0.332-0.096c-0.455-0.134-0.885-0.342-1.302-0.583v1.474
			C9.535,21.758,10.657,22,12,22c1.329,0,2.458-0.242,3-0.38V20.14c-0.426,0.247-0.867,0.46-1.335,0.599
			C13.603,20.761,13.496,20.791,13.39,20.819z"/>
		<path d="M5.691,11.378C5.27,11.81,4.998,12.579,4.998,13.5c0,1.425,0.645,2.5,1.5,2.5c0.057,0,0.123-0.008,0.194-0.022
			c0.096,0.227,0.201,0.446,0.314,0.658c0.008,0.016,0.016,0.032,0.025,0.047c0.107,0.198,0.222,0.388,0.344,0.571
			c0.02,0.03,0.04,0.06,0.061,0.091c0.115,0.167,0.234,0.328,0.36,0.482c0.036,0.044,0.072,0.086,0.109,0.128
			c0.117,0.136,0.236,0.268,0.362,0.392c0.056,0.056,0.114,0.107,0.172,0.16c0.114,0.105,0.228,0.209,0.348,0.303
			c0.081,0.064,0.166,0.121,0.249,0.181c0.105,0.074,0.208,0.151,0.316,0.218c0.116,0.071,0.236,0.131,0.355,0.193
			c0.084,0.044,0.166,0.093,0.252,0.132c0.21,0.095,0.425,0.177,0.645,0.242c0.086,0.027,0.171,0.054,0.265,0.077
			c0.117,0.028,0.234,0.054,0.351,0.073C11.474,19.971,11.733,20,11.998,20c0.266,0,0.525-0.029,0.778-0.073
			c0.119-0.02,0.236-0.045,0.36-0.075c0.086-0.022,0.171-0.047,0.245-0.071c0.221-0.065,0.437-0.148,0.649-0.243
			c0.086-0.039,0.167-0.088,0.251-0.131c0.121-0.063,0.243-0.123,0.36-0.195c0.108-0.066,0.211-0.143,0.316-0.217
			c0.084-0.06,0.169-0.117,0.251-0.182c0.12-0.095,0.234-0.198,0.348-0.303c0.058-0.053,0.116-0.105,0.172-0.161
			c0.125-0.124,0.244-0.255,0.361-0.391c0.038-0.044,0.075-0.087,0.112-0.132c0.125-0.153,0.244-0.313,0.359-0.48
			c0.021-0.031,0.042-0.062,0.062-0.093c0.122-0.183,0.236-0.372,0.343-0.57c0.009-0.016,0.017-0.032,0.025-0.048
			c0.113-0.212,0.219-0.431,0.314-0.658C17.375,15.992,17.441,16,17.498,16c0.855,0,1.5-1.075,1.5-2.5
			c0-0.919-0.271-1.687-0.696-2.12C20.059,10.982,22,10.261,22,9c0-1.97-5.03-3-10-3S2,7.03,2,9C2,10.258,3.932,10.979,5.691,11.378
			z M11,16.5c0-0.276,0.224-0.5,0.5-0.5h1c0.276,0,0.5,0.224,0.5,0.5S12.776,17,12.5,17h-1C11.224,17,11,16.776,11,16.5z
			 M17.507,14.998l-0.014-0.082c-0.026-0.156-0.126-0.29-0.267-0.362c-0.143-0.072-0.309-0.072-0.45-0.001
			C15.882,15,15.478,15,14.5,15c-0.419,0-0.7-0.099-1.025-0.214C13.093,14.652,12.66,14.5,12,14.5s-1.093,0.152-1.475,0.286
			C10.2,14.901,9.919,15,9.401,15c-0.938-0.008-1.322,0.001-2.169-0.443c-0.143-0.072-0.31-0.077-0.452-0.006
			c-0.143,0.07-0.244,0.204-0.272,0.36l-0.015,0.085c-0.129-0.012-0.494-0.539-0.494-1.496c0-0.968,0.376-1.5,0.52-1.5
			c0.267,0,0.486-0.209,0.499-0.476c0.033-0.676,0.142-1.308,0.285-1.825l0.042-0.063C7.635,9.404,9.219,9,12,9
			c2.854,0,4.458,0.43,4.648,0.59c0.186,0.592,0.297,1.243,0.332,1.936C16.993,11.791,17.231,12,17.498,12
			c0.124,0,0.5,0.532,0.5,1.5C17.998,14.462,17.628,14.991,17.507,14.998z"/>
		<path d="M16.452,5.285C15.435,3.88,13.792,3,12,3c-1.793,0-3.434,0.88-4.452,2.285C9.491,5.031,11.291,5,12,5
			C12.709,5,14.509,5.031,16.452,5.285z"/>
	</g>
</g>
<g id="Maid">
</g>
<g id="Business_Man_2">
</g>
<g id="Business_Woman_2">
</g>
<g id="Cowboy">
</g>
<g id="Anonymus">
</g>
<g id="Batman">
</g>
<g id="Superman">
</g>
<g id="Captain_America">
</g>
<g id="Darth_Vader">
</g>
<g id="Harry_Potter">
</g>
<g id="Anonymus_2">
</g>
<g id="Scream">
</g>
<g id="Jason">
</g>
<g id="Charlie_Chaplin">
</g>
</svg>
