<?xml version="1.0" encoding="iso-8859-1"?>
<!-- Generator: Adobe Illustrator 19.2.1, SVG Export Plug-In . SVG Version: 6.00 Build 0)  -->
<svg version="1.1" xmlns="http://www.w3.org/2000/svg" xmlns:xlink="http://www.w3.org/1999/xlink" x="0px" y="0px"
	 viewBox="0 0 30 30" style="enable-background:new 0 0 30 30;" xml:space="preserve">
<g id="Flag">
</g>
<g id="Umbrella">
</g>
<g id="Briefcase">
</g>
<g id="Box">
</g>
<g id="Magnet">
</g>
<g id="Percent">
</g>
<g id="Rocket">
</g>
<g id="Share">
</g>
<g id="Transmitter">
</g>
<g id="Record_2">
</g>
<g id="Record_1">
</g>
<g id="Anchor">
</g>
<g id="Airplane">
</g>
<g id="Car">
</g>
<g id="Newsfeed">
</g>
<g id="Wifi_Tethering">
</g>
<g id="No_Wifi_Tethering">
</g>
<g id="Bar_Chart_2">
</g>
<g id="Shop">
</g>
<g id="Alarm">
</g>
<g id="Sim_Card">
</g>
<g id="Radar">
</g>
<g id="Hand_2">
</g>
<g id="Palette">
</g>
<g id="Cake">
</g>
<g id="Blende">
</g>
<g id="Feather_Pen">
	<g>
		<g>
			<path d="M0.5,30c-0.068,0-0.138-0.014-0.205-0.044c-0.252-0.113-0.364-0.408-0.251-0.661c2.353-5.246,5.715-9.89,11.241-15.525
				c0.195-0.198,0.512-0.199,0.707-0.008c0.197,0.193,0.201,0.511,0.008,0.707C6.561,20.017,3.258,24.572,0.956,29.705
				C0.873,29.89,0.69,30,0.5,30z"/>
		</g>
		<g>
			<path d="M3.537,24.435c-0.276,0-0.5-0.224-0.5-0.5c0-13.218,10.974-23.971,24.463-23.971c0.276,0,0.5,0.224,0.5,0.5
				c0,2.603-0.443,5.215-1.319,7.764c-0.04,0.116-0.121,0.214-0.229,0.274L21.988,11h2.706c0.173,0,0.334,0.09,0.425,0.236
				c0.092,0.147,0.1,0.331,0.023,0.486C21.249,19.563,12.971,24.435,3.537,24.435z M26.994,0.969
				C14.461,1.229,4.314,11.16,4.043,23.43C12.59,23.266,20.081,18.938,23.87,12h-3.799c-0.228,0-0.427-0.153-0.483-0.374
				c-0.058-0.22,0.041-0.451,0.239-0.563l5.969-3.341C26.54,5.501,26.942,3.232,26.994,0.969z"/>
		</g>
	</g>
</g>
<g id="Ticket">
</g>
<g id="Medal">
</g>
<g id="Mouse_Pointer_1">
</g>
<g id="Mouse_Pointer_2">
</g>
<g id="Fingerprint">
</g>
<g id="Earth">
</g>
</svg>
