<?xml version="1.0" encoding="iso-8859-1"?>
<!-- Generator: Adobe Illustrator 19.2.1, SVG Export Plug-In . SVG Version: 6.00 Build 0)  -->
<svg version="1.1" xmlns="http://www.w3.org/2000/svg" xmlns:xlink="http://www.w3.org/1999/xlink" x="0px" y="0px"
	 viewBox="0 0 24 24" style="enable-background:new 0 0 24 24;" xml:space="preserve">
<g id="Cutting_Board_1">
</g>
<g id="Cutting_Board_2">
</g>
<g id="Chef_x27_s_Hat_1">
</g>
<g id="Chef_x27_s_Hat_2">
</g>
<g id="Kitchen_Scale">
</g>
<g id="Measuring_Cup">
</g>
<g id="Pot_1">
</g>
<g id="Pot_2">
</g>
<g id="Wok_1">
</g>
<g id="Wok_2">
</g>
<g id="Teapot">
</g>
<g id="Plate">
</g>
<g id="Sauce_Boat">
</g>
<g id="Cauldron">
</g>
<g id="Cookbook">
</g>
<g id="Salt_Pot">
</g>
<g id="Pepper_Pot_1">
</g>
<g id="Pepper_Pot_2">
</g>
<g id="Egg_Timer">
</g>
<g id="Olive_Oil_Pot">
</g>
<g id="Pancake_Griddle">
</g>
<g id="Pan">
</g>
<g id="Kettle">
</g>
<g id="Microwave">
</g>
<g id="Cooker">
</g>
<g id="Meat_Grinder">
</g>
<g id="Coffee_Maker">
</g>
<g id="Household_Mixer">
</g>
<g id="Stand_Mixer">
</g>
<g id="Hand_Blender">
</g>
<g id="Blender">
</g>
<g id="Cooker_Hood">
</g>
<g id="Refrigerator">
</g>
<g id="Freezer">
</g>
<g id="Apron">
</g>
<g id="Oven_Gloves">
</g>
<g id="Rolling_Pin">
</g>
<g id="Sieve">
</g>
<g id="Tea_Sieve">
</g>
<g id="Grater">
</g>
<g id="Knife_Holder">
</g>
<g id="Funnel">
</g>
<g id="Kitchen_Clock">
</g>
<g id="Lemon_Juicer">
</g>
<g id="Pastry_Bag_1">
</g>
<g id="Pastry_Bag_2">
</g>
<g id="Corkscrew">
</g>
<g id="Bottle_Opener">
</g>
<g id="Service">
</g>
<g id="Chopsticks">
</g>
<g id="Hatchet">
</g>
<g id="Filleting_Knife">
	<path d="M23.483,2.68c-0.083-0.798-0.473-1.514-1.095-2.019c-0.533-0.432-1.203-0.669-1.887-0.669c-0.91,0-1.76,0.405-2.341,1.123
		l-6.228,8.159l0,0.001c-0.658,0.814-1.703,2.246-2.912,3.903c-1.672,2.292-3.567,4.89-5.187,6.891c-1.565,1.933-3.1,3-3.115,3.011
		c-0.176,0.121-0.255,0.34-0.199,0.546c0.057,0.205,0.238,0.352,0.45,0.365c0.032,0.002,0.255,0.016,0.6,0.016
		c0.958,0,2.859-0.103,4.205-0.833c1.627-0.882,7.065-6.193,9.444-10.637c0.069,0.035,0.143,0.059,0.221,0.059
		c0.021,0,0.041-0.001,0.061-0.004c0.135-0.017,0.257-0.087,0.338-0.195l4.829-6.418c0.85-0.045,1.632-0.44,2.166-1.099
		C23.335,4.258,23.567,3.476,23.483,2.68z M5.296,22.295c-0.833,0.452-1.969,0.621-2.859,0.681c0.604-0.536,1.381-1.299,2.173-2.277
		c1.636-2.02,3.539-4.628,5.217-6.93c1.03-1.412,1.937-2.655,2.581-3.483l2.008,1.626C12.205,16.156,6.82,21.468,5.296,22.295z
		 M21.277,3.623c-0.19,0.235-0.474,0.37-0.777,0.37c-0.228,0-0.452-0.079-0.629-0.223c-0.428-0.348-0.495-0.978-0.148-1.406
		c0.334-0.414,0.993-0.483,1.407-0.148c0.208,0.168,0.337,0.407,0.365,0.674C21.522,3.155,21.445,3.416,21.277,3.623z"/>
</g>
<g id="Bread_Knife">
</g>
<g id="Herb_Knife">
</g>
<g id="Whetting">
</g>
<g id="Cake_Knife">
</g>
<g id="Layer_58">
</g>
<g id="Ladle">
</g>
<g id="Sauce_Spoon">
</g>
<g id="Egg_Beater">
</g>
<g id="Meat_Fork">
</g>
<g id="Kitchen_Spoon_1">
</g>
<g id="Kitchen_Spoon_2">
</g>
<g id="Pizza_Cutter">
</g>
<g id="Potato_Musher">
</g>
<g id="Peeler">
</g>
<g id="Honey_Dipper">
</g>
<g id="Fork">
</g>
<g id="Knife">
</g>
<g id="Spoon">
</g>
<g id="Cutlery_Set">
</g>
<g id="Sugar_Bowl">
</g>
<g id="Matches">
</g>
<g id="Cezve">
</g>
</svg>
