<?xml version="1.0" encoding="iso-8859-1"?>
<!-- Generator: Adobe Illustrator 19.2.1, SVG Export Plug-In . SVG Version: 6.00 Build 0)  -->
<svg version="1.1" xmlns="http://www.w3.org/2000/svg" xmlns:xlink="http://www.w3.org/1999/xlink" x="0px" y="0px"
	 viewBox="0 0 24 24" style="enable-background:new 0 0 24 24;" xml:space="preserve">
<g id="Man_1">
</g>
<g id="Woman_1">
</g>
<g id="Man_2">
</g>
<g id="Woman_2">
</g>
<g id="Bald_Man">
</g>
<g id="Man_Glasses">
</g>
<g id="Woman_Glasses">
</g>
<g id="Man_Beard">
</g>
<g id="Man_Cap">
</g>
<g id="Woman_Cap">
</g>
<g id="Man_3">
</g>
<g id="Woman_3">
</g>
<g id="Men_4">
</g>
<g id="Woman_4">
</g>
<g id="Business_Man_1">
</g>
<g id="Business_Woman_1">
</g>
<g id="Firefigyhter">
	<path d="M12,0C5.383,0,0,5.383,0,12c0,3.263,1.313,6.222,3.433,8.387c0.001,0.002,0.001,0.004,0.002,0.006
		c0.004,0.006,0.011,0.008,0.015,0.014c1.994,2.028,4.702,3.342,7.712,3.551C11.439,23.984,11.718,24,12,24
		c0.277,0,0.55-0.017,0.821-0.042c2.83-0.193,5.389-1.367,7.344-3.19l0.023-0.01c0.11-0.044,0.186-0.13,0.24-0.23
		c0.046-0.045,0.089-0.091,0.134-0.137c0.004-0.006,0.011-0.008,0.015-0.014c0.001-0.002,0.001-0.004,0.002-0.005
		C22.692,18.209,24,15.256,24,12C24,5.383,18.617,0,12,0z M16.529,17.866C15.27,19.242,13.661,20,12,20s-3.27-0.758-4.545-2.149
		c-0.234-0.234-0.267-0.437-0.105-0.658c0.186-0.256,0.505-0.348,0.582-0.312C9.013,18.213,10.452,19,12,19
		c1.556,0,3-0.797,4.083-2.14c0.081-0.031,0.392,0.063,0.572,0.318C16.813,17.403,16.778,17.617,16.529,17.866z M18.001,11.232
		L18,11.5c0,0.966-0.368,1.521-0.529,1.478c-0.136-0.085-0.305-0.099-0.452-0.039c-0.147,0.061-0.258,0.188-0.297,0.343
		C16.021,16.104,14.124,18,12,18s-4.021-1.896-4.722-4.718c-0.039-0.155-0.164-0.271-0.312-0.332C6.817,12.89,6.635,12.916,6.5,13
		C6.376,13,6,12.468,6,11.5l-0.001-0.268C5.997,10.791,5.995,10.2,6.072,9.994C6.089,9.991,6.104,9.981,6.12,9.977l1.899,1.187
		C8.895,11.711,9.902,12,10.934,12h2.133c1.031,0,2.039-0.289,2.914-0.836l1.899-1.187c0.017,0.004,0.031,0.014,0.048,0.017
		C18.005,10.2,18.003,10.791,18.001,11.232z M11,7V3.272C11.208,3.157,11.569,3,12,3s0.793,0.157,1,0.272V7c0,0.551-0.448,1-1,1
		S11,7.551,11,7z M20.075,19.444l-1.435-0.955l1.084-0.542C19.893,17.862,20,17.689,20,17.5v-2c0-4.105-0.776-6.118-1-6.613V8.5
		c0-2.864-2.201-5.221-5-5.475V3c0-0.152-0.069-0.295-0.188-0.391C13.781,2.584,13.038,2,12,2s-1.781,0.584-1.813,0.609
		C10.069,2.705,10,2.848,10,3v0.025C7.201,3.279,5,5.636,5,8.5v0.387C4.776,9.382,4,11.395,4,15.5v2
		c0,0.189,0.107,0.362,0.276,0.447l1.092,0.546l-1.433,0.962C2.12,17.493,1,14.878,1,12C1,5.935,5.935,1,12,1s11,4.935,11,11
		C23,14.872,21.884,17.483,20.075,19.444z"/>
</g>
<g id="Policeman">
</g>
<g id="Criminal">
</g>
<g id="Prisoner">
</g>
<g id="Woodsman">
</g>
<g id="Dispatcher_1">
</g>
<g id="Dispatcher_2">
</g>
<g id="Soldier">
</g>
<g id="Astronaut">
</g>
<g id="Hipster_Guy">
</g>
<g id="Hipster_Girl">
</g>
<g id="Worker">
</g>
<g id="Old_Man">
</g>
<g id="Punk">
</g>
<g id="Diver">
</g>
<g id="Artist">
</g>
<g id="Dictator">
</g>
<g id="Man_Hat">
</g>
<g id="Woman_Hat">
</g>
<g id="Graduated_Man">
</g>
<g id="Graduated_Woman">
</g>
<g id="Avatar_Chef">
</g>
<g id="Waiter">
</g>
<g id="Waitress">
</g>
<g id="Bllboy">
</g>
<g id="Santa">
</g>
<g id="Doctor">
</g>
<g id="Nurse">
</g>
<g id="Captain">
</g>
<g id="Farmer">
</g>
<g id="Maid">
</g>
<g id="Business_Man_2">
</g>
<g id="Business_Woman_2">
</g>
<g id="Cowboy">
</g>
<g id="Anonymus">
</g>
<g id="Batman">
</g>
<g id="Superman">
</g>
<g id="Captain_America">
</g>
<g id="Darth_Vader">
</g>
<g id="Harry_Potter">
</g>
<g id="Anonymus_2">
</g>
<g id="Scream">
</g>
<g id="Jason">
</g>
<g id="Charlie_Chaplin">
</g>
</svg>
