<?xml version="1.0" encoding="iso-8859-1"?>
<!-- Generator: Adobe Illustrator 19.2.1, SVG Export Plug-In . SVG Version: 6.00 Build 0)  -->
<svg version="1.1" xmlns="http://www.w3.org/2000/svg" xmlns:xlink="http://www.w3.org/1999/xlink" x="0px" y="0px"
	 viewBox="0 0 30 30" style="enable-background:new 0 0 30 30;" xml:space="preserve">
<g id="Man_1">
</g>
<g id="Woman_1">
</g>
<g id="Man_2">
</g>
<g id="Woman_2">
</g>
<g id="Bald_Man">
</g>
<g id="Man_Glasses">
</g>
<g id="Woman_Glasses">
</g>
<g id="Man_Beard">
</g>
<g id="Man_Cap">
</g>
<g id="Woman_Cap">
</g>
<g id="Man_3">
</g>
<g id="Woman_3">
</g>
<g id="Men_4">
</g>
<g id="Woman_4">
</g>
<g id="Business_Man_1">
</g>
<g id="Business_Woman_1">
</g>
<g id="Firefigyhter">
	<g>
		<g>
			<path d="M15,24c-2.988,0-6.197-3.042-7.348-6.878C7.266,17.129,6,16.976,6,14.5c0-0.255-0.007-0.502-0.013-0.733
				c-0.025-0.927-0.043-1.597,0.345-1.996C6.505,11.594,6.735,11.5,7,11.5c0.276,0,0.5,0.224,0.5,0.5S7.276,12.5,7,12.5V12
				l-0.009,0.5c-0.035,0.104-0.018,0.76-0.005,1.239C6.993,13.98,7,14.235,7,14.5c0,0.985,0.248,1.622,0.633,1.622
				c0,0,0.029-0.001,0.104-0.048c0.137-0.083,0.306-0.097,0.451-0.037c0.148,0.06,0.259,0.188,0.297,0.342
				C9.392,20.03,12.313,23,15,23s5.608-2.97,6.515-6.621c0.038-0.155,0.148-0.282,0.297-0.342c0.148-0.062,0.315-0.046,0.451,0.037
				c0.075,0.046,0.104,0.048,0.104,0.048c0.385,0,0.633-0.637,0.633-1.622c0-0.265,0.007-0.52,0.014-0.76
				c0.013-0.479,0.03-1.135-0.068-1.278c-0.276,0-0.473-0.205-0.473-0.481c0-0.276,0.251-0.48,0.527-0.48
				c0.265,0,0.495,0.094,0.668,0.271c0.388,0.399,0.37,1.069,0.345,1.996C24.007,13.998,24,14.245,24,14.5
				c0,2.477-1.253,2.635-1.652,2.622C21.197,20.958,17.988,24,15,24z"/>
		</g>
		<g>
			<path d="M15,11c-1.654,0-3-1.346-3-3V3.5c0-0.162,0.078-0.313,0.21-0.408C12.367,2.98,13.782,2,15,2s2.633,0.98,2.79,1.092
				C17.922,3.187,18,3.338,18,3.5V8C18,9.654,16.654,11,15,11z M13,3.768V8c0,1.103,0.897,2,2,2s2-0.897,2-2V3.768
				C16.529,3.471,15.646,3,15,3C14.351,3,13.47,3.47,13,3.768z"/>
		</g>
		<g>
			<path d="M16.5,15h-3c-1.285,0-2.202-0.412-3.265-1.076l-3.959-1.977C6.107,11.862,6,11.689,6,11.5v-1C6,6.794,8.794,4,12.5,4
				C12.776,4,13,4.224,13,4.5S12.776,5,12.5,5C9.313,5,7,7.313,7,10.5v0.691l3.724,1.862C11.701,13.661,12.449,14,13.5,14h3
				c1.063,0,2.115-0.568,3.005-1.124L23,11.187V10.5C23,7.313,20.687,5,17.5,5C17.224,5,17,4.776,17,4.5S17.224,4,17.5,4
				c3.706,0,6.5,2.794,6.5,6.5v1c0,0.192-0.11,0.367-0.283,0.45l-3.73,1.8C19.025,14.355,17.816,15,16.5,15z"/>
		</g>
		<g>
			<path d="M7.5,23.5c-0.104,0-0.21-0.033-0.3-0.1l-2-1.5C5.074,21.806,5,21.657,5,21.5v-2c0-5.822,1.002-8.111,1.044-8.206
				c0.114-0.252,0.412-0.361,0.661-0.25c0.252,0.113,0.363,0.408,0.252,0.66l0,0C6.947,11.725,6,13.938,6,19.5v1.75l1.8,1.35
				c0.221,0.166,0.266,0.479,0.101,0.7C7.802,23.431,7.651,23.5,7.5,23.5z"/>
		</g>
		<g>
			<path d="M22.5,23.5c-0.151,0-0.302-0.069-0.4-0.2c-0.165-0.221-0.12-0.534,0.101-0.7l1.8-1.35v-2c0-5.583-0.954-8.04-0.964-8.063
				c-0.103-0.256,0.021-0.547,0.277-0.65c0.259-0.104,0.547,0.021,0.65,0.276C24.006,10.917,25,13.438,25,19.25v2.25
				c0,0.157-0.074,0.306-0.2,0.4l-2,1.5C22.71,23.467,22.604,23.5,22.5,23.5z M24.5,21.5h0.01H24.5z"/>
		</g>
		<g>
			<path d="M15,26c-2.412,0-5.108-1.241-6.868-3.162c-0.048-0.052-0.084-0.113-0.106-0.18c-0.379-1.139,0.085-1.912,0.598-2.229
				c0.557-0.345,1.255-0.26,1.73,0.217c0.195,0.195,0.195,0.512,0,0.707c-0.195,0.195-0.512,0.195-0.707,0
				c-0.147-0.148-0.334-0.176-0.498-0.074c-0.19,0.118-0.35,0.438-0.204,0.964C10.524,23.921,12.889,25,15,25
				s4.476-1.079,6.056-2.756c0.146-0.526-0.014-0.846-0.204-0.964c-0.165-0.102-0.352-0.074-0.498,0.074
				c-0.195,0.195-0.512,0.195-0.707,0c-0.195-0.195-0.195-0.512,0-0.707c0.476-0.477,1.174-0.562,1.73-0.217
				c0.513,0.317,0.977,1.09,0.598,2.229c-0.022,0.066-0.059,0.128-0.106,0.18C20.108,24.759,17.412,26,15,26z"/>
		</g>
		<g>
			<path d="M5,25.5c-0.155,0-0.31-0.073-0.407-0.209c-0.16-0.225-0.108-0.537,0.116-0.697l3.5-2.5
				c0.227-0.161,0.537-0.109,0.698,0.116c0.16,0.225,0.108,0.537-0.116,0.697l-3.5,2.5C5.202,25.47,5.101,25.5,5,25.5z"/>
		</g>
		<g>
			<path d="M25.5,25.5c-0.091,0-0.183-0.024-0.265-0.076l-4-2.5c-0.234-0.146-0.306-0.455-0.159-0.689s0.458-0.304,0.688-0.159
				l4,2.5c0.234,0.146,0.306,0.455,0.159,0.689C25.829,25.417,25.666,25.5,25.5,25.5z"/>
		</g>
		<g>
			<path d="M15,30C6.729,30,0,23.271,0,15S6.729,0,15,0s15,6.729,15,15S23.271,30,15,30z M15,1C7.28,1,1,7.28,1,15s6.28,14,14,14
				s14-6.28,14-14S22.72,1,15,1z"/>
		</g>
	</g>
</g>
<g id="Policeman">
</g>
<g id="Criminal">
</g>
<g id="Prisoner">
</g>
<g id="Woodsman">
</g>
<g id="Dispatcher_1">
</g>
<g id="Dispatcher_2">
</g>
<g id="Soldier">
</g>
<g id="Astronaut">
</g>
<g id="Hipster_Guy">
</g>
<g id="Hipster_Girl">
</g>
<g id="Worker">
</g>
<g id="Old_Man">
</g>
<g id="Punk">
</g>
<g id="Diver">
</g>
<g id="Artist">
</g>
<g id="Dictator">
</g>
<g id="Man_Hat">
</g>
<g id="Woman_Hat">
</g>
<g id="Graduated_Man">
</g>
<g id="Graduated_Woman">
</g>
<g id="Avatar_Chef">
</g>
<g id="Waiter">
</g>
<g id="Waitress">
</g>
<g id="Bllboy">
</g>
<g id="Santa">
</g>
<g id="Doctor">
</g>
<g id="Nurse">
</g>
<g id="Captain">
</g>
<g id="Farmer">
</g>
<g id="Maid">
</g>
<g id="Business_Man_2">
</g>
<g id="Business_Woman_2">
</g>
<g id="Cowboy">
</g>
<g id="Anonymus">
</g>
<g id="Batman">
</g>
<g id="Superman">
</g>
<g id="Captain_America">
</g>
<g id="Darth_Vader">
</g>
<g id="Harry_Potter">
</g>
<g id="Anonymus_2">
</g>
<g id="Scream">
</g>
<g id="Jason">
</g>
<g id="Charlie_Chaplin">
</g>
</svg>
