<?xml version="1.0" encoding="iso-8859-1"?>
<!-- Generator: Adobe Illustrator 19.2.1, SVG Export Plug-In . SVG Version: 6.00 Build 0)  -->
<svg version="1.1" xmlns="http://www.w3.org/2000/svg" xmlns:xlink="http://www.w3.org/1999/xlink" x="0px" y="0px"
	 viewBox="0 0 24 24" style="enable-background:new 0 0 24 24;" xml:space="preserve">
<g id="Event">
</g>
<g id="Event_2">
</g>
<g id="Add_Event">
</g>
<g id="Remove_Event">
</g>
<g id="Event_Reminder">
</g>
<g id="Wine_Glass">
</g>
<g id="Toast">
</g>
<g id="Champagne">
</g>
<g id="Champagne_Open">
</g>
<g id="Alcohol_Drink">
</g>
<g id="Beer_Glass">
</g>
<g id="Party_Cake">
</g>
<g id="Pizza_Food">
</g>
<g id="Disco_Ball">
</g>
<g id="Equalizer">
</g>
<g id="DJ">
</g>
<g id="Tent">
</g>
<g id="Firework_1">
	<g>
		<path d="M23.5,0h-10c-0.202,0-0.385,0.122-0.462,0.309s-0.034,0.402,0.108,0.545l10,10C23.242,10.949,23.37,11,23.5,11
			c0.064,0,0.13-0.012,0.191-0.038C23.878,10.885,24,10.702,24,10.5v-10C24,0.224,23.776,0,23.5,0z"/>
		<path d="M3.737,13.555C3.601,13.692,3.488,13.843,3.39,14H16.5c0.061,0,0.118,0.015,0.172,0.035L18.707,12H5.293L3.737,13.555z"/>
		<path d="M4.501,17.854l0.974,0.974l-4.329,4.318c-0.195,0.195-0.195,0.512,0,0.707C1.244,23.951,1.372,24,1.5,24
			s0.256-0.049,0.354-0.146l4.329-4.318l0.727,0.726c0.473,0.472,1.101,0.732,1.768,0.732c0.668,0,1.296-0.26,1.768-0.732L12.707,18
			H4.854C4.716,18,4.591,17.944,4.501,17.854z"/>
		<path d="M3.531,16.827c-0.378,1.003-1.016,1.411-1.549,1.578c-0.018-0.094-0.055-0.186-0.128-0.259
			c-0.195-0.195-0.512-0.195-0.707,0L1,18.293l-0.146-0.146c-0.195-0.195-0.512-0.195-0.707,0s-0.195,0.512,0,0.707L0.293,19
			l-0.146,0.146c-0.195,0.195-0.195,0.512,0,0.707C0.244,19.951,0.372,20,0.5,20s0.256-0.049,0.354-0.146L1,19.707l0.146,0.146
			C1.244,19.951,1.372,20,1.5,20s0.256-0.049,0.354-0.146c0.113-0.113,0.153-0.266,0.135-0.413c0.789-0.173,1.695-0.682,2.274-1.825
			l0.237,0.237c-0.09-0.09-0.146-0.215-0.146-0.353c0-0.05,0.015-0.095,0.028-0.14c0.019-0.043,0.041-0.08,0.058-0.125
			C4.529,17.097,4.677,17,4.854,17H13.5c0.061,0,0.118,0.015,0.172,0.035L15.707,15H3.038C2.955,15.637,3.126,16.292,3.531,16.827z"
			/>
		<path d="M8.293,9l-2,2H19.5c0.061,0,0.118,0.015,0.172,0.035l1.121-1.121L19.879,9H8.293z"/>
		<polygon points="16.879,6 11.293,6 9.293,8 18.879,8 		"/>
		<polygon points="12.293,5 15.879,5 14.086,3.207 		"/>
	</g>
</g>
<g id="Firework_2">
</g>
<g id="Party_Glasses">
</g>
<g id="Barbeque">
</g>
<g id="Horn">
</g>
<g id="Speaker">
</g>
<g id="VIP">
</g>
<g id="Event_Ticket">
</g>
<g id="VIP_Ticket">
</g>
<g id="Popcorn">
</g>
<g id="Cord">
</g>
<g id="Invitation_1">
</g>
<g id="Invitation_2">
</g>
</svg>
