<?xml version="1.0" encoding="iso-8859-1"?>
<!-- Generator: Adobe Illustrator 19.2.1, SVG Export Plug-In . SVG Version: 6.00 Build 0)  -->
<svg version="1.1" xmlns="http://www.w3.org/2000/svg" xmlns:xlink="http://www.w3.org/1999/xlink" x="0px" y="0px"
	 viewBox="0 0 30 30" style="enable-background:new 0 0 30 30;" xml:space="preserve">
<g id="Event">
</g>
<g id="Event_2">
</g>
<g id="Add_Event">
</g>
<g id="Remove_Event">
</g>
<g id="Event_Reminder">
</g>
<g id="Wine_Glass">
</g>
<g id="Toast">
</g>
<g id="Champagne">
</g>
<g id="Champagne_Open">
</g>
<g id="Alcohol_Drink">
</g>
<g id="Beer_Glass">
</g>
<g id="Party_Cake">
</g>
<g id="Pizza_Food">
</g>
<g id="Disco_Ball">
</g>
<g id="Equalizer">
</g>
<g id="DJ">
</g>
<g id="Tent">
</g>
<g id="Firework_1">
</g>
<g id="Firework_2">
	<g>
		<path d="M23,14.5c0-0.276-0.224-0.5-0.5-0.5h-2c-0.276,0-0.5,0.224-0.5,0.5s0.224,0.5,0.5,0.5h2C22.776,15,23,14.777,23,14.5z"/>
		<path d="M26.5,14h-2c-0.276,0-0.5,0.224-0.5,0.5s0.224,0.5,0.5,0.5h2c0.276,0,0.5-0.224,0.5-0.5S26.776,14,26.5,14z"/>
		<path d="M6,14H5.5C5.224,14,5,14.224,5,14.5S5.224,15,5.5,15H6c0.276,0,0.5-0.224,0.5-0.5S6.276,14,6,14z"/>
		<path d="M7.6,14c-0.276,0-0.5,0.224-0.5,0.5S7.323,15,7.6,15h0.8c0.276,0,0.5-0.224,0.5-0.5S8.676,14,8.4,14H7.6z"/>
		<path d="M10,15h0.5c0.276,0,0.5-0.224,0.5-0.5S10.776,14,10.5,14H10c-0.276,0-0.5,0.224-0.5,0.5S9.724,15,10,15z"/>
		<path d="M15.5,5C15.776,5,16,4.777,16,4.5v-1C16,3.224,15.776,3,15.5,3S15,3.224,15,3.5v1C15,4.777,15.224,5,15.5,5z"/>
		<path d="M15.5,8C15.776,8,16,7.777,16,7.5v-1C16,6.224,15.776,6,15.5,6S15,6.224,15,6.5v1C15,7.777,15.224,8,15.5,8z"/>
		<path d="M15.5,2C15.776,2,16,1.777,16,1.5v-1C16,0.224,15.776,0,15.5,0S15,0.224,15,0.5v1C15,1.777,15.224,2,15.5,2z"/>
		<path d="M15.5,19c-0.276,0-0.5,0.224-0.5,0.5v2c0,0.276,0.224,0.5,0.5,0.5s0.5-0.224,0.5-0.5v-2C16,19.224,15.776,19,15.5,19z"/>
		<path d="M15.5,23c-0.276,0-0.5,0.224-0.5,0.5v2c0,0.276,0.224,0.5,0.5,0.5s0.5-0.224,0.5-0.5v-2C16,23.224,15.776,23,15.5,23z"/>
		<path d="M19.147,10.147c-0.195,0.195-0.195,0.512,0,0.707C19.244,10.951,19.372,11,19.5,11s0.256-0.049,0.354-0.146l0.707-0.707
			c0.195-0.195,0.195-0.512,0-0.707s-0.512-0.195-0.707,0L19.147,10.147z"/>
		<path d="M21.725,8.776c0.128,0,0.256-0.049,0.354-0.146l1.517-1.517c0.195-0.195,0.195-0.512,0-0.707s-0.512-0.195-0.707,0
			l-1.517,1.517c-0.195,0.195-0.195,0.512,0,0.707C21.469,8.727,21.597,8.776,21.725,8.776z"/>
		<path d="M24.759,5.741c0.128,0,0.256-0.049,0.354-0.146l1.517-1.517c0.195-0.195,0.195-0.512,0-0.707s-0.512-0.195-0.707,0
			l-1.517,1.517c-0.195,0.195-0.195,0.512,0,0.707C24.503,5.693,24.631,5.741,24.759,5.741z"/>
		<path d="M27.793,2.707c0.128,0,0.256-0.049,0.354-0.146l0.707-0.707c0.195-0.195,0.195-0.512,0-0.707s-0.512-0.195-0.707,0
			L27.44,1.854c-0.195,0.195-0.195,0.512,0,0.707C27.537,2.658,27.665,2.707,27.793,2.707z"/>
		<path d="M11.82,18.884c0.212-0.177,0.24-0.493,0.063-0.704c-0.178-0.212-0.491-0.242-0.704-0.063
			c-0.191,0.16-4.719,4.003-6.417,11.27c-0.063,0.269,0.104,0.538,0.373,0.601C5.175,29.996,5.213,30,5.25,30
			c0.228,0,0.433-0.156,0.487-0.386C7.356,22.688,11.776,18.921,11.82,18.884z"/>
		<path d="M5.854,5.561c0.098,0.098,0.226,0.146,0.354,0.146s0.256-0.049,0.354-0.146c0.195-0.195,0.195-0.512,0-0.707L5.854,4.147
			c-0.195-0.195-0.512-0.195-0.707,0s-0.195,0.512,0,0.707L5.854,5.561z"/>
		<path d="M9.035,8.743c0.098,0.098,0.226,0.146,0.354,0.146s0.256-0.049,0.354-0.146c0.195-0.195,0.195-0.512,0-0.707L8.151,6.445
			c-0.195-0.195-0.512-0.195-0.707,0s-0.195,0.512,0,0.707L9.035,8.743z"/>
		<path d="M11.688,11.187c0.128,0,0.256-0.049,0.354-0.146c0.195-0.195,0.195-0.512,0-0.707l-0.707-0.707
			c-0.195-0.195-0.512-0.195-0.707,0s-0.195,0.512,0,0.707l0.707,0.707C11.432,11.138,11.56,11.187,11.688,11.187z"/>
		<path d="M23.389,21.682c-0.195-0.195-0.512-0.195-0.707,0s-0.195,0.512,0,0.707l1.415,1.414c0.098,0.098,0.226,0.146,0.354,0.146
			s0.256-0.049,0.354-0.146c0.195-0.195,0.195-0.512,0-0.707L23.389,21.682z"/>
		<path d="M19.147,18.147c-0.195,0.195-0.195,0.512,0,0.707l1.414,1.414c0.098,0.098,0.226,0.146,0.354,0.146
			s0.256-0.049,0.354-0.146c0.195-0.195,0.195-0.512,0-0.707l-1.414-1.414C19.658,17.951,19.342,17.951,19.147,18.147z"/>
		<path d="M21.261,11.681l-0.937,0.351c-0.258,0.097-0.39,0.385-0.292,0.644C20.108,12.877,20.298,13,20.5,13
			c0.059,0,0.118-0.01,0.176-0.032l0.937-0.351c0.258-0.097,0.39-0.385,0.292-0.644C21.808,11.714,21.518,11.586,21.261,11.681z"/>
		<path d="M25.345,10.149l-2.042,0.766c-0.259,0.097-0.39,0.385-0.292,0.644c0.075,0.201,0.266,0.324,0.468,0.324
			c0.059,0,0.118-0.01,0.176-0.032l2.042-0.766c0.259-0.097,0.39-0.385,0.292-0.644C25.892,10.182,25.601,10.054,25.345,10.149z"/>
		<path d="M28.324,9.032l-0.937,0.351c-0.258,0.097-0.39,0.385-0.292,0.644c0.075,0.201,0.266,0.325,0.468,0.325
			c0.059,0,0.118-0.01,0.176-0.032l0.937-0.351c0.258-0.097,0.39-0.385,0.292-0.644C28.87,9.066,28.58,8.937,28.324,9.032z"/>
		<path d="M10.653,16.976c0.263-0.085,0.407-0.367,0.322-0.629s-0.364-0.405-0.628-0.323c-0.221,0.071-5.435,1.803-9.276,8.219
			c-0.143,0.237-0.065,0.544,0.172,0.686C1.323,24.977,1.412,25,1.5,25c0.17,0,0.335-0.087,0.429-0.243
			C5.567,18.682,10.604,16.992,10.653,16.976z"/>
		<path d="M9.246,1.16c0.083,0.187,0.266,0.297,0.457,0.297c0.068,0,0.137-0.014,0.203-0.043c0.252-0.112,0.366-0.408,0.254-0.66
			L9.957,0.297C9.844,0.044,9.55-0.069,9.297,0.043c-0.252,0.112-0.366,0.408-0.254,0.66L9.246,1.16z"/>
		<path d="M11.492,6.214l0.449,1.011c0.083,0.187,0.266,0.297,0.457,0.297c0.068,0,0.137-0.014,0.203-0.043
			c0.252-0.112,0.366-0.408,0.254-0.66l-0.449-1.011c-0.113-0.253-0.407-0.366-0.66-0.254C11.494,5.666,11.38,5.962,11.492,6.214z"
			/>
		<path d="M10.145,3.182l0.449,1.011c0.083,0.187,0.266,0.297,0.457,0.297c0.068,0,0.137-0.014,0.203-0.043
			c0.252-0.112,0.366-0.408,0.254-0.66l-0.449-1.011c-0.112-0.253-0.408-0.366-0.66-0.254C10.147,2.634,10.032,2.929,10.145,3.182z"
			/>
		<path d="M12.84,9.246l0.203,0.457C13.126,9.89,13.309,10,13.5,10c0.068,0,0.137-0.014,0.203-0.043
			c0.252-0.112,0.366-0.408,0.254-0.66L13.754,8.84c-0.112-0.253-0.408-0.365-0.66-0.254C12.842,8.698,12.728,8.994,12.84,9.246z"/>
		<path d="M17.947,19.277c-0.124-0.248-0.423-0.347-0.671-0.224c-0.247,0.124-0.347,0.424-0.224,0.671l0.447,0.895
			c0.088,0.175,0.265,0.276,0.447,0.276c0.075,0,0.151-0.017,0.224-0.053c0.247-0.124,0.347-0.424,0.224-0.671L17.947,19.277z"/>
		<path d="M19.43,22.241c-0.124-0.248-0.423-0.347-0.671-0.224c-0.247,0.124-0.347,0.424-0.224,0.671l1.035,2.07
			c0.088,0.175,0.265,0.276,0.447,0.276c0.075,0,0.151-0.017,0.224-0.053c0.247-0.124,0.347-0.424,0.224-0.671L19.43,22.241z"/>
		<path d="M21.5,26.382c-0.124-0.248-0.424-0.346-0.671-0.224c-0.247,0.124-0.347,0.424-0.224,0.671l0.447,0.895
			C21.141,27.899,21.318,28,21.5,28c0.075,0,0.151-0.017,0.224-0.053c0.247-0.124,0.347-0.424,0.224-0.671L21.5,26.382z"/>
		<path d="M18.8,6.251c0.061,0.024,0.124,0.036,0.186,0.036c0.198,0,0.386-0.119,0.464-0.314l0.515-1.286
			c0.103-0.256-0.021-0.547-0.278-0.65c-0.256-0.104-0.547,0.022-0.649,0.279l-0.515,1.286C18.419,5.857,18.543,6.148,18.8,6.251z"
			/>
		<path d="M17.315,9.965C17.375,9.989,17.439,10,17.5,10c0.198,0,0.386-0.119,0.464-0.314l0.743-1.857
			c0.103-0.256-0.021-0.547-0.278-0.65c-0.255-0.103-0.547,0.022-0.649,0.279l-0.743,1.857C16.934,9.571,17.058,9.862,17.315,9.965z
			"/>
		<path d="M12.618,21.264c-0.246-0.122-0.546-0.024-0.671,0.224l-0.895,1.789c-0.123,0.247-0.023,0.547,0.224,0.671
			C11.349,23.983,11.425,24,11.5,24c0.183,0,0.359-0.101,0.447-0.276l0.895-1.789C12.965,21.688,12.865,21.387,12.618,21.264z"/>
		<path d="M13.724,19.053c-0.249-0.123-0.547-0.023-0.671,0.224l-0.211,0.422c-0.123,0.247-0.023,0.547,0.224,0.671
			c0.072,0.036,0.148,0.053,0.224,0.053c0.183,0,0.359-0.101,0.447-0.276l0.211-0.422C14.07,19.477,13.971,19.177,13.724,19.053z"/>
		<path d="M4.342,10.974l0.475,0.158c0.053,0.018,0.105,0.026,0.158,0.026c0.209,0,0.404-0.132,0.475-0.342
			c0.087-0.262-0.055-0.545-0.316-0.632l-0.475-0.158C4.398,9.94,4.113,10.08,4.026,10.342C3.939,10.604,4.08,10.887,4.342,10.974z"
			/>
		<path d="M6.521,11.174c-0.087,0.262,0.055,0.545,0.316,0.632l1.011,0.337c0.053,0.018,0.105,0.026,0.158,0.026
			c0.209,0,0.404-0.132,0.475-0.342c0.087-0.262-0.055-0.545-0.316-0.632l-1.011-0.337C6.893,10.771,6.61,10.911,6.521,11.174z"/>
		<path d="M9.867,12.816l0.475,0.158C10.395,12.992,10.447,13,10.5,13c0.209,0,0.404-0.132,0.475-0.342
			c0.087-0.262-0.055-0.545-0.316-0.632l-0.475-0.158c-0.262-0.086-0.545,0.054-0.633,0.316C9.464,12.446,9.606,12.729,9.867,12.816
			z"/>
		<path d="M21.261,17.32c0.058,0.021,0.117,0.032,0.176,0.032c0.202,0,0.393-0.124,0.468-0.325c0.098-0.258-0.034-0.546-0.292-0.644
			l-0.937-0.351c-0.258-0.097-0.547,0.034-0.644,0.293c-0.098,0.258,0.034,0.546,0.292,0.644L21.261,17.32z"/>
		<path d="M25.696,17.915l-2.042-0.766c-0.258-0.095-0.547,0.034-0.644,0.292c-0.098,0.259,0.033,0.547,0.292,0.644l2.042,0.766
			c0.058,0.021,0.117,0.032,0.176,0.032c0.202,0,0.393-0.124,0.468-0.324C26.086,18.301,25.955,18.012,25.696,17.915z"/>
		<path d="M28.676,19.032l-0.937-0.351c-0.258-0.097-0.547,0.034-0.644,0.293c-0.098,0.258,0.034,0.546,0.292,0.644l0.937,0.351
			C28.382,19.99,28.442,20,28.5,20c0.202,0,0.393-0.124,0.468-0.325C29.066,19.417,28.934,19.129,28.676,19.032z"/>
		<circle cx="15.5" cy="14.5" r="1.5"/>
	</g>
</g>
<g id="Party_Glasses">
</g>
<g id="Barbeque">
</g>
<g id="Horn">
</g>
<g id="Speaker">
</g>
<g id="VIP">
</g>
<g id="Event_Ticket">
</g>
<g id="VIP_Ticket">
</g>
<g id="Popcorn">
</g>
<g id="Cord">
</g>
<g id="Invitation_1">
</g>
<g id="Invitation_2">
</g>
</svg>
