<?xml version="1.0" encoding="iso-8859-1"?>
<!-- Generator: Adobe Illustrator 19.2.1, SVG Export Plug-In . SVG Version: 6.00 Build 0)  -->
<svg version="1.1" xmlns="http://www.w3.org/2000/svg" xmlns:xlink="http://www.w3.org/1999/xlink" x="0px" y="0px"
	 viewBox="0 0 30 30" style="enable-background:new 0 0 30 30;" xml:space="preserve">
<g id="Flag">
	<g>
		<g>
			<path d="M4.5,30C4.224,30,4,29.776,4,29.5v-29C4,0.224,4.224,0,4.5,0S5,0.224,5,0.5v29C5,29.776,4.776,30,4.5,30z"/>
		</g>
		<g>
			<path d="M24.5,17H17c-0.893,0-1.552-0.483-1.712-1.212c-0.024-0.059-0.038-0.123-0.038-0.19c0-0.569-0.625-0.598-0.75-0.598h-10
				C4.224,15,4,14.776,4,14.5S4.224,14,4.5,14h10c0.879,0,1.55,0.505,1.712,1.244c0.024,0.059,0.038,0.123,0.038,0.191
				C16.25,15.945,16.774,16,17,16h7V4h-8.5C15.224,4,15,3.776,15,3.5V1.761C15,1.256,14.832,1,14.5,1h-10C4.224,1,4,0.776,4,0.5
				S4.224,0,4.5,0h10C15.411,0,16,0.691,16,1.761V3h8.5C24.776,3,25,3.224,25,3.5v13C25,16.776,24.776,17,24.5,17z"/>
		</g>
		<g>
			<path d="M15.5,8.5C15.224,8.5,15,8.276,15,8V2c0-0.276,0.224-0.5,0.5-0.5S16,1.724,16,2v6C16,8.276,15.776,8.5,15.5,8.5z"/>
		</g>
	</g>
</g>
<g id="Umbrella">
</g>
<g id="Briefcase">
</g>
<g id="Box">
</g>
<g id="Magnet">
</g>
<g id="Percent">
</g>
<g id="Rocket">
</g>
<g id="Share">
</g>
<g id="Transmitter">
</g>
<g id="Record_2">
</g>
<g id="Record_1">
</g>
<g id="Anchor">
</g>
<g id="Airplane">
</g>
<g id="Car">
</g>
<g id="Newsfeed">
</g>
<g id="Wifi_Tethering">
</g>
<g id="No_Wifi_Tethering">
</g>
<g id="Bar_Chart_2">
</g>
<g id="Shop">
</g>
<g id="Alarm">
</g>
<g id="Sim_Card">
</g>
<g id="Radar">
</g>
<g id="Hand_2">
</g>
<g id="Palette">
</g>
<g id="Cake">
</g>
<g id="Blende">
</g>
<g id="Feather_Pen">
</g>
<g id="Ticket">
</g>
<g id="Medal">
</g>
<g id="Mouse_Pointer_1">
</g>
<g id="Mouse_Pointer_2">
</g>
<g id="Fingerprint">
</g>
<g id="Earth">
</g>
</svg>
