<?xml version="1.0" encoding="iso-8859-1"?>
<!-- Generator: Adobe Illustrator 19.2.1, SVG Export Plug-In . SVG Version: 6.00 Build 0)  -->
<svg version="1.1" xmlns="http://www.w3.org/2000/svg" xmlns:xlink="http://www.w3.org/1999/xlink" x="0px" y="0px"
	 viewBox="0 0 30 30" style="enable-background:new 0 0 30 30;" xml:space="preserve">
<g id="Sun_Light">
</g>
<g id="Sunglasses">
</g>
<g id="T-Shirt_1">
</g>
<g id="T-Shirt_2">
</g>
<g id="Mini_Dress">
</g>
<g id="Flip-Flops">
	<g>
		<path d="M8.167,0C4.94,0,1,4.304,1,9.326c0,0.634,0.041,1.294,0.097,1.97C3.052,7.905,7.02,6.641,8,6.377V4.5
			C8,4.224,8.224,4,8.5,4S9,4.224,9,4.5v1.922c1.126,0.288,3.48,1.297,4.641,4.655C13.844,9.889,14,8.551,14,6.804
			C14,3.18,11.274,0,8.167,0z"/>
		<path d="M8.176,9.826c-0.175,0.007-4.215,0.232-6.691,4.893c0.016,0.12,0.03,0.231,0.046,0.353
			c0.376,2.844,0.803,6.069,0.803,10.015C2.333,27.75,4.7,30,7.5,30c2.849,0,5.167-2.204,5.167-4.913v-6.935
			c0-1.484,0.136-2.638,0.322-3.71C11.48,9.821,8.206,9.835,8.176,9.826z"/>
		<path d="M8.149,8.827c0.139-0.012,2.758-0.012,4.651,2.854C11.625,7.867,8.829,7.366,8.377,7.31
			c-0.692,0.165-5.472,1.443-6.946,5.583C4.187,9.015,7.961,8.833,8.149,8.827z"/>
		<path d="M21.833,0C18.726,0,16,3.18,16,6.804c0,1.747,0.156,3.085,0.359,4.273C17.52,7.719,19.874,6.71,21,6.422V4.5
			C21,4.224,21.224,4,21.5,4S22,4.224,22,4.5v1.877c0.98,0.264,4.948,1.528,6.903,4.919C28.959,10.62,29,9.96,29,9.326
			C29,4.304,25.06,0,21.833,0z"/>
		<path d="M21.824,9.826c-0.03,0.009-3.303-0.005-4.812,4.617c0.186,1.071,0.322,2.226,0.322,3.71v6.935
			c0,2.709,2.318,4.913,5.167,4.913c2.8,0,5.167-2.25,5.167-4.913c0-3.946,0.426-7.171,0.803-10.015
			c0.016-0.121,0.03-0.233,0.046-0.353C26.039,10.058,21.998,9.833,21.824,9.826z"/>
		<path d="M21.623,7.31c-0.452,0.056-3.248,0.557-4.423,4.371c1.893-2.866,4.512-2.866,4.651-2.854
			c0.188,0.006,3.962,0.188,6.718,4.066C27.095,8.753,22.315,7.475,21.623,7.31z"/>
	</g>
</g>
<g id="Temperature">
</g>
<g id="Hot_Temperature">
</g>
<g id="Ice_Lolly">
</g>
<g id="Icecream">
</g>
<g id="Limonade_1">
</g>
<g id="Limonade_2">
</g>
<g id="Hat">
</g>
<g id="Straw_Hat">
</g>
<g id="Deckchair">
</g>
<g id="Sunshade">
</g>
<g id="Suncream">
</g>
<g id="Suntan_Oil">
</g>
<g id="Swimming_Trunks">
</g>
<g id="Bikini">
</g>
<g id="Pool">
</g>
<g id="Pool_Ladder">
</g>
<g id="Grill">
</g>
<g id="Kite_1">
</g>
<g id="Kite_2">
</g>
<g id="Badminton">
</g>
<g id="Cooler">
</g>
<g id="Strand_Bag">
</g>
<g id="Towel">
</g>
<g id="Strand_Ball">
</g>
<g id="Beach_Sign">
</g>
<g id="Toos">
</g>
<g id="Bucket">
</g>
<g id="Sand_Castle">
</g>
<g id="Shell_1">
</g>
<g id="Shell_2">
</g>
<g id="Surf_Board">
</g>
<g id="Float">
</g>
<g id="Vacation_Photo">
</g>
<g id="Summer_Time">
</g>
<g id="Boat">
</g>
<g id="Lifebuoy">
</g>
<g id="Lighthouse">
</g>
<g id="Sunset">
</g>
<g id="Dolphin">
</g>
<g id="Starfish">
</g>
<g id="Diving_Mask">
</g>
<g id="Sailboat">
</g>
<g id="Captin_Hat">
</g>
<g id="Eudder">
</g>
</svg>
