<?xml version="1.0" encoding="iso-8859-1"?>
<!-- Generator: Adobe Illustrator 19.2.1, SVG Export Plug-In . SVG Version: 6.00 Build 0)  -->
<svg version="1.1" xmlns="http://www.w3.org/2000/svg" xmlns:xlink="http://www.w3.org/1999/xlink" x="0px" y="0px"
	 viewBox="0 0 30 30" style="enable-background:new 0 0 30 30;" xml:space="preserve">
<g id="Sun_Light">
</g>
<g id="Sunglasses">
</g>
<g id="T-Shirt_1">
</g>
<g id="T-Shirt_2">
</g>
<g id="Mini_Dress">
</g>
<g id="Flip-Flops">
</g>
<g id="Temperature">
</g>
<g id="Hot_Temperature">
</g>
<g id="Ice_Lolly">
</g>
<g id="Icecream">
</g>
<g id="Limonade_1">
</g>
<g id="Limonade_2">
</g>
<g id="Hat">
</g>
<g id="Straw_Hat">
</g>
<g id="Deckchair">
</g>
<g id="Sunshade">
</g>
<g id="Suncream">
</g>
<g id="Suntan_Oil">
</g>
<g id="Swimming_Trunks">
</g>
<g id="Bikini">
</g>
<g id="Pool">
</g>
<g id="Pool_Ladder">
</g>
<g id="Grill">
</g>
<g id="Kite_1">
</g>
<g id="Kite_2">
</g>
<g id="Badminton">
</g>
<g id="Cooler">
</g>
<g id="Strand_Bag">
</g>
<g id="Towel">
</g>
<g id="Strand_Ball">
</g>
<g id="Beach_Sign">
</g>
<g id="Toos">
</g>
<g id="Bucket">
</g>
<g id="Sand_Castle">
</g>
<g id="Shell_1">
</g>
<g id="Shell_2">
</g>
<g id="Surf_Board">
</g>
<g id="Float">
	<g id="XMLID_309_">
		<g id="XMLID_308_">
			<path d="M15,13.75c-2.993,0-9.956-0.171-9.956-1.75c0-0.276,0.224-0.5,0.5-0.5c0.222,0,0.409,0.144,0.475,0.343
				C6.579,12.233,9.906,12.75,15,12.75s8.421-0.517,8.981-0.907c0.065-0.199,0.253-0.343,0.475-0.343c0.276,0,0.5,0.224,0.5,0.5
				C24.956,13.579,17.993,13.75,15,13.75z"/>
		</g>
		<g id="XMLID_315_">
			<path d="M15,20c-6.058,0-8.356-0.386-10.948-1.197C1.439,17.984,0,16.457,0,14.5c0-1.346,0.701-3.184,4.043-4.301
				C6.53,9.37,8.703,9,15,9c6.579,0,8.605,0.474,10.946,1.196C28.561,11.005,30,12.533,30,14.5s-1.439,3.495-4.054,4.303
				C23.606,19.526,21.581,20,15,20z M15,10c-6.158,0-8.26,0.354-10.641,1.148C2.13,11.893,1,13.021,1,14.5
				c0,2.001,2.1,2.956,3.351,3.348C6.505,18.522,8.529,19,15,19c6.44,0,8.398-0.456,10.651-1.152C26.902,17.461,29,16.513,29,14.5
				c0-2.012-2.099-2.962-3.349-3.349C23.397,10.456,21.438,10,15,10z"/>
		</g>
	</g>
</g>
<g id="Vacation_Photo">
</g>
<g id="Summer_Time">
</g>
<g id="Boat">
</g>
<g id="Lifebuoy">
</g>
<g id="Lighthouse">
</g>
<g id="Sunset">
</g>
<g id="Dolphin">
</g>
<g id="Starfish">
</g>
<g id="Diving_Mask">
</g>
<g id="Sailboat">
</g>
<g id="Captin_Hat">
</g>
<g id="Eudder">
</g>
</svg>
