<?xml version="1.0" encoding="iso-8859-1"?>
<!-- Generator: Adobe Illustrator 19.2.1, SVG Export Plug-In . SVG Version: 6.00 Build 0)  -->
<svg version="1.1" xmlns="http://www.w3.org/2000/svg" xmlns:xlink="http://www.w3.org/1999/xlink" x="0px" y="0px"
	 viewBox="0 0 30 30" style="enable-background:new 0 0 30 30;" xml:space="preserve">
<g id="Credit_Card">
</g>
<g id="Banknote">
</g>
<g id="Wallet">
</g>
<g id="Compass">
</g>
<g id="Camera_1">
</g>
<g id="Photo">
</g>
<g id="Picture">
</g>
<g id="Camera_2">
</g>
<g id="No_Camera">
</g>
<g id="Video">
</g>
<g id="Audio">
</g>
<g id="Microphone_1">
</g>
<g id="Microphone_2">
</g>
<g id="No_Microphone">
</g>
<g id="Shopping_Cart">
</g>
<g id="Add_Shopping_Cart">
</g>
<g id="Remove_Shopping_Cart">
</g>
<g id="Shopping_Basket">
</g>
<g id="Jing-Jang">
</g>
<g id="Leaf">
</g>
<g id="Glass">
</g>
<g id="Cup">
</g>
<g id="Mug">
</g>
<g id="Refresh">
</g>
<g id="Login">
</g>
<g id="Logout">
</g>
<g id="Flowchart">
	<g>
		<g>
			<path d="M17.5,12h-6C10.121,12,9,10.878,9,9.5v-6C9,2.122,10.121,1,11.5,1h6C18.879,1,20,2.122,20,3.5v6
				C20,10.878,18.879,12,17.5,12z M11.5,2C10.673,2,10,2.673,10,3.5v6c0,0.827,0.673,1.5,1.5,1.5h6c0.827,0,1.5-0.673,1.5-1.5v-6
				C19,2.673,18.327,2,17.5,2H11.5z"/>
		</g>
		<g>
			<path d="M16.2,30h-3.4c-0.717,0-1.3-0.583-1.3-1.3v-3.4c0-0.717,0.583-1.3,1.3-1.3h3.4c0.717,0,1.3,0.583,1.3,1.3v3.4
				C17.5,29.417,16.917,30,16.2,30z M12.8,25c-0.165,0-0.3,0.134-0.3,0.3v3.4c0,0.166,0.135,0.3,0.3,0.3h3.4
				c0.165,0,0.3-0.134,0.3-0.3v-3.4c0-0.166-0.135-0.3-0.3-0.3H12.8z"/>
		</g>
		<g>
			<path d="M27.7,30h-3.4c-0.717,0-1.3-0.583-1.3-1.3v-3.4c0-0.717,0.583-1.3,1.3-1.3h3.4c0.717,0,1.3,0.583,1.3,1.3v3.4
				C29,29.417,28.417,30,27.7,30z M24.3,25c-0.165,0-0.3,0.134-0.3,0.3v3.4c0,0.166,0.135,0.3,0.3,0.3h3.4
				c0.165,0,0.3-0.134,0.3-0.3v-3.4c0-0.166-0.135-0.3-0.3-0.3H24.3z"/>
		</g>
		<g>
			<path d="M4.7,30H1.3C0.583,30,0,29.417,0,28.7v-3.4C0,24.583,0.583,24,1.3,24h3.4C5.417,24,6,24.583,6,25.3v3.4
				C6,29.417,5.417,30,4.7,30z M1.3,25C1.135,25,1,25.134,1,25.3v3.4C1,28.866,1.135,29,1.3,29h3.4C4.865,29,5,28.866,5,28.7v-3.4
				C5,25.134,4.865,25,4.7,25H1.3z"/>
		</g>
		<g>
			<path d="M14.5,22c-0.276,0-0.5-0.224-0.5-0.5v-8c0-0.276,0.224-0.5,0.5-0.5s0.5,0.224,0.5,0.5v8C15,21.776,14.776,22,14.5,22z"/>
		</g>
		<g>
			<path d="M25.954,22.705c-0.276,0-0.5-0.224-0.5-0.5c0-1.797-1.457-3.205-3.317-3.205H6.863c-1.892,0-3.317,1.329-3.317,3.091
				c0,0.276-0.224,0.5-0.5,0.5s-0.5-0.224-0.5-0.5C2.546,19.759,4.402,18,6.863,18h15.273c2.421,0,4.317,1.847,4.317,4.205
				C26.454,22.481,26.23,22.705,25.954,22.705z"/>
		</g>
	</g>
</g>
<g id="Pin_1">
</g>
<g id="Pin_2">
</g>
<g id="User_1">
</g>
<g id="User_2">
</g>
<g id="Users">
</g>
<g id="Adjustments">
</g>
<g id="Type">
</g>
<g id="Format_Size">
</g>
<g id="Menu_1">
</g>
<g id="Other">
</g>
<g id="Flash">
</g>
<g id="No_Flash">
</g>
<g id="Switch_Button_1">
</g>
<g id="Switch_Button_2">
</g>
<g id="Cut">
</g>
<g id="Crop">
</g>
<g id="Sun">
</g>
<g id="USB">
</g>
<g id="Pie_Chart_1">
</g>
<g id="Pie_Chart_2">
</g>
<g id="Line_Chart">
</g>
<g id="Bar_Chart">
</g>
<g id="Target">
</g>
<g id="Flashlight">
</g>
<g id="USB_Device">
</g>
<g id="Eject">
</g>
<g id="Lightbulb">
</g>
<g id="Information">
</g>
<g id="Deactivate_Protection">
</g>
<g id="Active_Protection">
</g>
<g id="Bug">
</g>
<g id="Protection">
</g>
<g id="Phone">
</g>
<g id="List">
</g>
<g id="Plugin_1">
</g>
<g id="Bookmarrk">
</g>
<g id="Handshake">
</g>
<g id="Minimize">
</g>
<g id="Maximize">
</g>
<g id="Diamond">
</g>
<g id="Stop">
</g>
<g id="Shuffle">
</g>
<g id="Undo">
</g>
<g id="Upgrade">
</g>
<g id="Coding">
</g>
<g id="Syncronizaion">
</g>
<g id="Radio">
</g>
<g id="Presentation">
</g>
<g id="Door">
</g>
<g id="Thumbs_Up">
</g>
<g id="Thumbs_Down">
</g>
<g id="Keyboard">
</g>
<g id="_x33_D_Cube">
</g>
<g id="Signal">
</g>
<g id="Dice">
</g>
<g id="Upload">
</g>
<g id="Download">
</g>
<g id="Plugin_2">
</g>
<g id="Shopping_Bag">
</g>
<g id="Lifebelt">
</g>
<g id="Glasses">
</g>
<g id="Parabolic_Antenna">
</g>
<g id="Loudspeaker">
</g>
<g id="Play">
</g>
<g id="Pause">
</g>
<g id="Signpost">
</g>
<g id="Bluetooth">
</g>
<g id="Present">
</g>
<g id="Ruler">
</g>
<g id="Connection">
</g>
<g id="Money">
</g>
<g id="Paper_Plane">
</g>
<g id="Wallet_2">
</g>
</svg>
