<?xml version="1.0" encoding="iso-8859-1"?>
<!-- Generator: Adobe Illustrator 19.2.1, SVG Export Plug-In . SVG Version: 6.00 Build 0)  -->
<svg version="1.1" xmlns="http://www.w3.org/2000/svg" xmlns:xlink="http://www.w3.org/1999/xlink" x="0px" y="0px"
	 viewBox="0 0 30 30" style="enable-background:new 0 0 30 30;" xml:space="preserve">
<g id="Restaurant_sign_1">
</g>
<g id="Restaurant_Sign_2">
</g>
<g id="Restaurant_Sign_3">
</g>
<g id="Hot_Drink_1">
</g>
<g id="Hot_Drink_2">
</g>
<g id="Cocktail">
</g>
<g id="Shot_Glasses">
</g>
<g id="Chilled_Champagne">
</g>
<g id="Wine">
</g>
<g id="Wine_List">
</g>
<g id="Menu">
</g>
<g id="Menu_2">
</g>
<g id="Salver">
</g>
<g id="Soup">
</g>
<g id="Sushi">
</g>
<g id="Pizza">
</g>
<g id="Pizza_Slice">
</g>
<g id="Fish">
</g>
<g id="Sausage">
</g>
<g id="Course">
</g>
<g id="Dessert">
</g>
<g id="Cutlery">
</g>
<g id="Napkin">
</g>
<g id="Table">
</g>
<g id="Spices">
</g>
<g id="Hot_Sauce">
</g>
<g id="Reserved_1">
</g>
<g id="Reserved_2">
</g>
<g id="Open">
</g>
<g id="Food_Photo">
	<g>
		<path d="M26.5,0h-26C0.224,0,0,0.224,0,0.5v29C0,29.776,0.224,30,0.5,30h26c0.276,0,0.5-0.224,0.5-0.5v-29
			C27,0.224,26.776,0,26.5,0z M24,21.5c0,0.276-0.224,0.5-0.5,0.5h-20C3.224,22,3,21.776,3,21.5v-18C3,3.224,3.224,3,3.5,3h20
			C23.776,3,24,3.224,24,3.5V21.5z"/>
		<path d="M11.369,6.328c-0.13-0.042-0.27-0.028-0.39,0.037C10.86,6.429,10.772,6.54,10.735,6.67L7.583,18.019
			c-0.048,0.174,0.001,0.36,0.128,0.487c0.095,0.095,0.223,0.146,0.354,0.146c0.044,0,0.09-0.006,0.134-0.019l11.348-3.152
			c0.131-0.037,0.241-0.125,0.306-0.244c0.064-0.12,0.078-0.26,0.037-0.39C18.604,10.799,15.418,7.614,11.369,6.328z M11,15H9.46
			l0.278-1H11c0.276,0,0.5,0.224,0.5,0.5S11.276,15,11,15z M13.739,14.239c-0.971,0-1.761-0.79-1.761-1.761
			c0-0.971,0.79-1.761,1.761-1.761c0.971,0,1.761,0.79,1.761,1.761C15.5,13.449,14.71,14.239,13.739,14.239z"/>
	</g>
</g>
<g id="Chef">
</g>
<g id="Bill">
</g>
<g id="Bill_2">
</g>
<g id="Paying_1">
</g>
<g id="Paying_2">
</g>
<g id="Restaurant_Place">
</g>
</svg>
