<?xml version="1.0" encoding="iso-8859-1"?>
<!-- Generator: Adobe Illustrator 19.2.1, SVG Export Plug-In . SVG Version: 6.00 Build 0)  -->
<svg version="1.1" xmlns="http://www.w3.org/2000/svg" xmlns:xlink="http://www.w3.org/1999/xlink" x="0px" y="0px"
	 viewBox="0 0 30 30" style="enable-background:new 0 0 30 30;" xml:space="preserve">
<g id="Photo_frame">
</g>
<g id="Photo_frame_2">
</g>
<g id="Photo_frame_3">
</g>
<g id="Photo_frame__4">
</g>
<g id="Photo_frame_5">
</g>
<g id="Photo_frame_6">
</g>
<g id="Photo_frame_7">
</g>
<g id="Round_Frame_1">
</g>
<g id="Rectangle_Frame_1">
</g>
<g id="Square_Frame_1">
</g>
<g id="Rectangle_Frame_2">
</g>
<g id="Oval_Frame_1">
</g>
<g id="Round_Frame_2">
</g>
<g id="Rectangle_Frame_3">
</g>
<g id="Rectangle_Frame_4">
</g>
<g id="Rectangle_Frame_5">
</g>
<g id="Square_Frame_2">
</g>
<g id="Rectangle_Frame_6">
</g>
<g id="Rectangle_Frame_7">
</g>
<g id="Oval_Frame_2">
</g>
<g id="Round_Frame_3">
</g>
<g id="Rectangle_Frame_8">
</g>
<g id="Square_Frame_3">
</g>
<g id="Rectangle_Frame_9">
</g>
<g id="Rectangle_Frame_10">
</g>
<g id="Square_Frame_4">
</g>
<g id="Rectangle_Frame_11">
</g>
<g id="Rectangle_Frame_12">
</g>
<g id="Square_Frame_5">
</g>
<g id="Rectangle_Frame_13">
</g>
<g id="Round_Frame">
</g>
<g id="Frame_2">
</g>
<g id="Frame_1">
</g>
<g id="Frame_3">
</g>
<g id="Frame_4">
</g>
<g id="Frame_5">
</g>
<g id="Frame_6">
</g>
<g id="Frame_7">
</g>
<g id="Frame_8">
</g>
<g id="Frame_9">
</g>
<g id="Frame_10">
</g>
<g id="Frame_11">
</g>
<g id="Frame_12">
</g>
<g id="Frame_13">
</g>
<g id="Frame_14">
</g>
<g id="Frame_15">
</g>
<g id="Frame_16">
</g>
<g id="Frame_17">
</g>
<g id="Frame_18">
</g>
<g id="Frame_19">
</g>
<g id="Frame_20">
	<g>
		<path d="M15,30c-0.043,0-0.086-0.006-0.129-0.017c-0.157-0.042-0.282-0.157-0.339-0.307c-0.757-0.705-1.753-0.856-2.469-0.856
			H11.89c-4.233,0-7.833-3.451-8.08-7.635c-1.448-0.249-2.63-1.579-2.63-3.075v-0.796c0-1.021-0.365-1.936-1.027-2.577
			c-0.131-0.127-0.183-0.313-0.135-0.489c0.042-0.156,0.157-0.281,0.306-0.338c0.705-0.757,0.856-1.754,0.856-2.469v-0.796
			c0-1.571,1.429-2.442,2.935-2.548C4.899,4.064,8.11,1.18,11.89,1.18h0.174c1.02,0,1.936-0.365,2.578-1.027
			c0.126-0.13,0.314-0.18,0.488-0.136c0.157,0.042,0.282,0.157,0.339,0.307c0.757,0.705,1.753,0.856,2.469,0.856h0.174
			c3.779,0,6.99,2.885,7.775,6.918c1.505,0.105,2.935,0.977,2.935,2.548v0.796c0,1.021,0.365,1.937,1.027,2.577
			c0.13,0.126,0.183,0.313,0.135,0.489c-0.042,0.156-0.157,0.281-0.306,0.338c-0.705,0.757-0.856,1.754-0.856,2.469v0.796
			c0,1.496-1.182,2.826-2.63,3.075c-0.247,4.184-3.846,7.635-8.08,7.635h-0.174c-1.02,0-1.936,0.365-2.578,1.027
			C15.264,29.946,15.133,30,15,30z M1.209,14.416c0.629,0.789,0.971,1.8,0.971,2.898v0.796c0,1.088,1.029,2.117,2.117,2.117
			c0.276,0,0.5,0.224,0.5,0.5c0,3.845,3.249,7.093,7.093,7.093h0.174c1.183,0,2.202,0.334,2.975,0.971
			c0.79-0.629,1.799-0.971,2.898-0.971h0.174c3.845,0,7.093-3.248,7.093-7.093c0-0.276,0.224-0.5,0.5-0.5
			c1.088,0,2.117-1.029,2.117-2.117v-0.796c0-1.183,0.334-2.202,0.971-2.975c-0.629-0.789-0.971-1.799-0.971-2.898v-0.796
			c0-1.071-1.164-1.559-2.246-1.559h-0.112c-0.248,0-0.458-0.181-0.495-0.426C24.403,4.905,21.519,2.18,18.11,2.18h-0.174
			c-1.183,0-2.202-0.334-2.975-0.971c-0.79,0.629-1.799,0.971-2.898,0.971H11.89c-3.409,0-6.293,2.726-6.858,6.481
			C4.995,8.906,4.785,9.087,4.537,9.087H4.425c-1.082,0-2.246,0.487-2.246,1.559v0.796C2.18,12.624,1.845,13.644,1.209,14.416z"/>
	</g>
</g>
<g id="Frame_21">
</g>
<g id="Frame_22">
</g>
<g id="Frame_23">
</g>
<g id="Frame_24">
</g>
<g id="Frame_25">
</g>
<g id="Frame_26">
</g>
<g id="Frame_27">
</g>
<g id="Frame_28">
</g>
<g id="Frame_29">
</g>
<g id="Frame_30">
</g>
<g id="Frame_Hole_1">
</g>
<g id="Frame_Hole_2">
</g>
<g id="Frame_Hole_3">
</g>
<g id="Frame_Hole_4">
</g>
<g id="Frame_31">
</g>
<g id="Frame_32">
</g>
<g id="Frame_33">
</g>
<g id="Frame_34">
</g>
<g id="Frame_35">
</g>
<g id="Dashed_Frame_1">
</g>
<g id="Dashed_Frame_2">
</g>
<g id="Dashed_Frame_3">
</g>
<g id="Dashed_Frame_4">
</g>
<g id="Dashed_Frame_5">
</g>
<g id="Dashed_Frame_6">
</g>
<g id="Dashed_Frame_7">
</g>
<g id="Dashed_Frame_8">
</g>
<g id="Dashed_Frame_9">
</g>
<g id="Dashed_Frame_10">
</g>
<g id="Dashed_Frame_11">
</g>
<g id="Dashed_Frame_12">
</g>
<g id="Dashed_Frame_13">
</g>
<g id="Dashed_Frame_14">
</g>
<g id="Dashed_Frame_15">
</g>
<g id="Dashed_Frame_16">
</g>
<g id="Dashed_Frame_17">
</g>
<g id="Dashed_Frame_18">
</g>
<g id="Dashed_Frame_19">
</g>
<g id="Dashed_Frame_20">
</g>
<g id="Dashed_Frame_25">
</g>
<g id="Dashed_Frame_26">
</g>
<g id="Dashed_Frame_27">
</g>
<g id="Dashed_Frame_28">
</g>
<g id="Dashed_Frame_29">
</g>
<g id="Dashed_Frame_30">
</g>
<g id="Dashed_Frame_31">
</g>
<g id="Dashed_Frame_32">
</g>
<g id="Dashed_Frame_33">
</g>
<g id="Dashed_Frame_35">
</g>
</svg>
