<?xml version="1.0" encoding="iso-8859-1"?>
<!-- Generator: Adobe Illustrator 19.2.1, SVG Export Plug-In . SVG Version: 6.00 Build 0)  -->
<svg version="1.1" xmlns="http://www.w3.org/2000/svg" xmlns:xlink="http://www.w3.org/1999/xlink" x="0px" y="0px"
	 viewBox="0 0 30 30" style="enable-background:new 0 0 30 30;" xml:space="preserve">
<g id="Photo_frame">
</g>
<g id="Photo_frame_2">
</g>
<g id="Photo_frame_3">
</g>
<g id="Photo_frame__4">
</g>
<g id="Photo_frame_5">
</g>
<g id="Photo_frame_6">
</g>
<g id="Photo_frame_7">
</g>
<g id="Round_Frame_1">
</g>
<g id="Rectangle_Frame_1">
</g>
<g id="Square_Frame_1">
</g>
<g id="Rectangle_Frame_2">
</g>
<g id="Oval_Frame_1">
</g>
<g id="Round_Frame_2">
</g>
<g id="Rectangle_Frame_3">
</g>
<g id="Rectangle_Frame_4">
</g>
<g id="Rectangle_Frame_5">
</g>
<g id="Square_Frame_2">
</g>
<g id="Rectangle_Frame_6">
</g>
<g id="Rectangle_Frame_7">
</g>
<g id="Oval_Frame_2">
</g>
<g id="Round_Frame_3">
</g>
<g id="Rectangle_Frame_8">
</g>
<g id="Square_Frame_3">
</g>
<g id="Rectangle_Frame_9">
</g>
<g id="Rectangle_Frame_10">
</g>
<g id="Square_Frame_4">
</g>
<g id="Rectangle_Frame_11">
</g>
<g id="Rectangle_Frame_12">
</g>
<g id="Square_Frame_5">
</g>
<g id="Rectangle_Frame_13">
</g>
<g id="Round_Frame">
</g>
<g id="Frame_2">
</g>
<g id="Frame_1">
</g>
<g id="Frame_3">
</g>
<g id="Frame_4">
</g>
<g id="Frame_5">
</g>
<g id="Frame_6">
	<g>
		<path d="M15,30c-2.262,0-4.136-1.085-5.189-2.99H9.326c-1.404,0-2.657-0.889-2.955-2H5.479c-0.229,0-0.43-0.156-0.485-0.379
			c-0.224-0.896-0.866-1.95-1.616-2.138C3.156,22.438,3,22.238,3,22.008V7.555C3,7.326,3.156,7.126,3.379,7.07
			c0.749-0.188,1.392-1.242,1.615-2.138C5.05,4.71,5.25,4.554,5.479,4.554h0.892c0.298-1.111,1.551-2,2.955-2h0.485
			C11.093,0.272,13.371,0,15,0c1.65,0,3.955,0.272,5.229,2.554h0.445c1.404,0,2.657,0.889,2.955,2h0.892
			c0.229,0,0.43,0.156,0.485,0.379c0.232,0.929,0.877,2.016,1.615,2.201C26.844,7.189,27,7.389,27,7.619v14.453
			c0,0.229-0.156,0.429-0.378,0.485c-0.77,0.193-1.396,1.19-1.616,2.075c-0.056,0.223-0.256,0.379-0.485,0.379h-0.885
			c-0.271,1.243-1.437,3-2.962,3h-0.623C18.995,28.999,17.164,30,15,30z M5.854,24.01h0.951c0.276,0,0.5,0.224,0.5,0.5
			c0,0.694,0.883,1.5,2.021,1.5h0.787c0.19,0,0.364,0.108,0.449,0.28C11.421,28.038,12.997,29,15,29
			c1.965,0,3.609-0.952,4.493-1.842c0.094-0.095,0.222-0.148,0.354-0.148h0.826c1.044,0,2.021-1.719,2.021-2.5
			c0-0.276,0.224-0.5,0.5-0.5h0.952c0.32-0.938,0.966-1.891,1.853-2.291V7.966c-0.871-0.416-1.528-1.441-1.854-2.413h-0.951
			c-0.276,0-0.5-0.224-0.5-0.5c0-0.694-0.883-1.5-2.021-1.5h-0.748c-0.191,0-0.366-0.109-0.449-0.281C18.712,1.701,17.331,1,15,1
			c-2.297,0-3.665,0.701-4.438,2.274c-0.085,0.171-0.259,0.28-0.449,0.28H9.326c-1.139,0-2.021,0.806-2.021,1.5
			c0,0.276-0.224,0.5-0.5,0.5H5.854C5.529,6.52,4.882,7.5,4,7.906v13.751C4.882,22.064,5.529,23.044,5.854,24.01z"/>
	</g>
</g>
<g id="Frame_7">
</g>
<g id="Frame_8">
</g>
<g id="Frame_9">
</g>
<g id="Frame_10">
</g>
<g id="Frame_11">
</g>
<g id="Frame_12">
</g>
<g id="Frame_13">
</g>
<g id="Frame_14">
</g>
<g id="Frame_15">
</g>
<g id="Frame_16">
</g>
<g id="Frame_17">
</g>
<g id="Frame_18">
</g>
<g id="Frame_19">
</g>
<g id="Frame_20">
</g>
<g id="Frame_21">
</g>
<g id="Frame_22">
</g>
<g id="Frame_23">
</g>
<g id="Frame_24">
</g>
<g id="Frame_25">
</g>
<g id="Frame_26">
</g>
<g id="Frame_27">
</g>
<g id="Frame_28">
</g>
<g id="Frame_29">
</g>
<g id="Frame_30">
</g>
<g id="Frame_Hole_1">
</g>
<g id="Frame_Hole_2">
</g>
<g id="Frame_Hole_3">
</g>
<g id="Frame_Hole_4">
</g>
<g id="Frame_31">
</g>
<g id="Frame_32">
</g>
<g id="Frame_33">
</g>
<g id="Frame_34">
</g>
<g id="Frame_35">
</g>
<g id="Dashed_Frame_1">
</g>
<g id="Dashed_Frame_2">
</g>
<g id="Dashed_Frame_3">
</g>
<g id="Dashed_Frame_4">
</g>
<g id="Dashed_Frame_5">
</g>
<g id="Dashed_Frame_6">
</g>
<g id="Dashed_Frame_7">
</g>
<g id="Dashed_Frame_8">
</g>
<g id="Dashed_Frame_9">
</g>
<g id="Dashed_Frame_10">
</g>
<g id="Dashed_Frame_11">
</g>
<g id="Dashed_Frame_12">
</g>
<g id="Dashed_Frame_13">
</g>
<g id="Dashed_Frame_14">
</g>
<g id="Dashed_Frame_15">
</g>
<g id="Dashed_Frame_16">
</g>
<g id="Dashed_Frame_17">
</g>
<g id="Dashed_Frame_18">
</g>
<g id="Dashed_Frame_19">
</g>
<g id="Dashed_Frame_20">
</g>
<g id="Dashed_Frame_25">
</g>
<g id="Dashed_Frame_26">
</g>
<g id="Dashed_Frame_27">
</g>
<g id="Dashed_Frame_28">
</g>
<g id="Dashed_Frame_29">
</g>
<g id="Dashed_Frame_30">
</g>
<g id="Dashed_Frame_31">
</g>
<g id="Dashed_Frame_32">
</g>
<g id="Dashed_Frame_33">
</g>
<g id="Dashed_Frame_35">
</g>
</svg>
