<?xml version="1.0" encoding="iso-8859-1"?>
<!-- Generator: Adobe Illustrator 19.2.1, SVG Export Plug-In . SVG Version: 6.00 Build 0)  -->
<svg version="1.1" xmlns="http://www.w3.org/2000/svg" xmlns:xlink="http://www.w3.org/1999/xlink" x="0px" y="0px"
	 viewBox="0 0 24 24" style="enable-background:new 0 0 24 24;" xml:space="preserve">
<g id="Photo_frame">
</g>
<g id="Photo_frame_2">
</g>
<g id="Photo_frame_3">
</g>
<g id="Photo_frame__4">
</g>
<g id="Photo_frame_5">
</g>
<g id="Photo_frame_6">
</g>
<g id="Photo_frame_7">
</g>
<g id="Round_Frame_1">
</g>
<g id="Rectangle_Frame_1">
</g>
<g id="Square_Frame_1">
</g>
<g id="Rectangle_Frame_2">
</g>
<g id="Oval_Frame_1">
</g>
<g id="Round_Frame_2">
</g>
<g id="Rectangle_Frame_3">
</g>
<g id="Rectangle_Frame_4">
</g>
<g id="Rectangle_Frame_5">
</g>
<g id="Square_Frame_2">
</g>
<g id="Rectangle_Frame_6">
</g>
<g id="Rectangle_Frame_7">
</g>
<g id="Oval_Frame_2">
</g>
<g id="Round_Frame_3">
</g>
<g id="Rectangle_Frame_8">
</g>
<g id="Square_Frame_3">
</g>
<g id="Rectangle_Frame_9">
</g>
<g id="Rectangle_Frame_10">
</g>
<g id="Square_Frame_4">
</g>
<g id="Rectangle_Frame_11">
</g>
<g id="Rectangle_Frame_12">
</g>
<g id="Square_Frame_5">
</g>
<g id="Rectangle_Frame_13">
</g>
<g id="Round_Frame">
</g>
<g id="Frame_2">
</g>
<g id="Frame_1">
	<path d="M22.584,9.517c-0.114-0.288-0.228-0.572-0.32-0.857c-0.097-0.297-0.176-0.604-0.256-0.91
		c-0.21-0.807-0.428-1.641-0.939-2.345c-0.515-0.708-1.241-1.17-1.943-1.618c-0.267-0.17-0.533-0.339-0.784-0.522
		c-0.247-0.18-0.486-0.378-0.728-0.578c-0.643-0.532-1.307-1.082-2.15-1.356c-0.666-0.217-1.554-0.222-2.499-0.165
		c-0.643,0.038-1.289,0.038-1.932,0C10.087,1.11,9.2,1.115,8.535,1.332c-0.844,0.274-1.508,0.824-2.15,1.355
		c-0.241,0.2-0.481,0.399-0.729,0.579C5.406,3.449,5.139,3.619,4.872,3.789C4.17,4.237,3.445,4.699,2.931,5.406
		C2.418,6.11,2.201,6.945,1.99,7.753c-0.08,0.306-0.159,0.611-0.255,0.908C1.643,8.945,1.53,9.23,1.416,9.517
		c-0.308,0.775-0.625,1.577-0.625,2.479c0,0.902,0.318,1.704,0.625,2.479c0.114,0.288,0.228,0.572,0.32,0.857
		c0.097,0.297,0.176,0.604,0.256,0.91c0.21,0.807,0.428,1.641,0.939,2.345c0.515,0.708,1.241,1.17,1.943,1.618
		c0.267,0.17,0.533,0.339,0.784,0.522c0.247,0.18,0.486,0.378,0.728,0.578c0.643,0.532,1.307,1.082,2.15,1.356
		c0.665,0.216,1.552,0.22,2.499,0.165c0.643-0.038,1.289-0.038,1.932,0c0.337,0.02,0.673,0.039,1.002,0.039h0
		c0.593,0,1.069-0.064,1.497-0.204c0.844-0.274,1.508-0.824,2.15-1.355c0.241-0.2,0.481-0.399,0.729-0.579
		c0.251-0.183,0.518-0.353,0.785-0.523c0.701-0.447,1.426-0.909,1.941-1.617c0.512-0.704,0.73-1.539,0.94-2.347
		c0.08-0.306,0.159-0.611,0.255-0.908c0.092-0.284,0.206-0.569,0.32-0.856c0.308-0.775,0.625-1.577,0.625-2.479
		C23.21,11.094,22.892,10.292,22.584,9.517z M19.851,12.967c0.055,0.573,0.106,1.115-0.041,1.567
		c-0.154,0.476-0.52,0.885-0.906,1.319c-0.211,0.238-0.421,0.474-0.601,0.722c-0.183,0.252-0.346,0.527-0.508,0.803
		c-0.294,0.5-0.571,0.971-0.969,1.261c-0.394,0.287-0.929,0.406-1.495,0.532c-0.313,0.069-0.625,0.14-0.923,0.236
		c-0.285,0.093-0.569,0.217-0.857,0.343c-0.534,0.234-1.038,0.456-1.551,0.456s-1.017-0.222-1.551-0.456
		c-0.288-0.126-0.572-0.25-0.857-0.343c-0.298-0.097-0.61-0.167-0.922-0.236c-0.566-0.126-1.101-0.245-1.496-0.532
		c-0.397-0.29-0.675-0.761-0.969-1.261c-0.162-0.276-0.325-0.551-0.508-0.803c-0.18-0.248-0.39-0.483-0.601-0.721
		c-0.387-0.434-0.752-0.844-0.906-1.32c-0.147-0.453-0.096-0.994-0.041-1.567c0.031-0.323,0.061-0.649,0.061-0.971
		s-0.03-0.647-0.061-0.971C4.094,10.452,4.042,9.91,4.19,9.458c0.154-0.476,0.52-0.885,0.906-1.319
		c0.211-0.238,0.421-0.474,0.601-0.722C5.88,7.165,6.043,6.89,6.205,6.614c0.294-0.5,0.571-0.971,0.969-1.261
		c0.394-0.287,0.929-0.406,1.495-0.532c0.313-0.069,0.625-0.14,0.923-0.236c0.285-0.093,0.569-0.217,0.857-0.343
		C10.983,4.008,11.487,3.786,12,3.786s1.017,0.222,1.551,0.456c0.288,0.126,0.572,0.25,0.857,0.343
		c0.298,0.097,0.61,0.167,0.922,0.236c0.566,0.126,1.101,0.245,1.496,0.532c0.397,0.29,0.675,0.761,0.969,1.261
		c0.162,0.276,0.325,0.551,0.508,0.803c0.18,0.248,0.39,0.483,0.601,0.721c0.387,0.434,0.752,0.844,0.906,1.32
		c0.147,0.453,0.096,0.994,0.041,1.567c-0.031,0.323-0.061,0.649-0.061,0.971S19.82,12.643,19.851,12.967z"/>
</g>
<g id="Frame_3">
</g>
<g id="Frame_4">
</g>
<g id="Frame_5">
</g>
<g id="Frame_6">
</g>
<g id="Frame_7">
</g>
<g id="Frame_8">
</g>
<g id="Frame_9">
</g>
<g id="Frame_10">
</g>
<g id="Frame_11">
</g>
<g id="Frame_12">
</g>
<g id="Frame_13">
</g>
<g id="Frame_14">
</g>
<g id="Frame_15">
</g>
<g id="Frame_16">
</g>
<g id="Frame_17">
</g>
<g id="Frame_18">
</g>
<g id="Frame_19">
</g>
<g id="Frame_20">
</g>
<g id="Frame_21">
</g>
<g id="Frame_22">
</g>
<g id="Frame_23">
</g>
<g id="Frame_24">
</g>
<g id="Frame_25">
</g>
<g id="Frame_26">
</g>
<g id="Frame_27">
</g>
<g id="Frame_28">
</g>
<g id="Frame_29">
</g>
<g id="Frame_30">
</g>
<g id="Frame_Hole_1">
</g>
<g id="Frame_Hole_2">
</g>
<g id="Frame_Hole_3">
</g>
<g id="Frame_Hole_4">
</g>
<g id="Frame_31">
</g>
<g id="Frame_32">
</g>
<g id="Frame_33">
</g>
<g id="Frame_34">
</g>
<g id="Frame_35">
</g>
<g id="Dashed_Frame_1">
</g>
<g id="Dashed_Frame_2">
</g>
<g id="Dashed_Frame_3">
</g>
<g id="Dashed_Frame_4">
</g>
<g id="Dashed_Frame_5">
</g>
<g id="Dashed_Frame_6">
</g>
<g id="Dashed_Frame_7">
</g>
<g id="Dashed_Frame_8">
</g>
<g id="Dashed_Frame_9">
</g>
<g id="Dashed_Frame_10">
</g>
<g id="Dashed_Frame_11">
</g>
<g id="Dashed_Frame_12">
</g>
<g id="Dashed_Frame_13">
</g>
<g id="Dashed_Frame_14">
</g>
<g id="Dashed_Frame_15">
</g>
<g id="Dashed_Frame_16">
</g>
<g id="Dashed_Frame_17">
</g>
<g id="Dashed_Frame_18">
</g>
<g id="Dashed_Frame_19">
</g>
<g id="Dashed_Frame_20">
</g>
<g id="Dashed_Frame_25">
</g>
<g id="Dashed_Frame_26">
</g>
<g id="Dashed_Frame_27">
</g>
<g id="Dashed_Frame_28">
</g>
<g id="Dashed_Frame_29">
</g>
<g id="Dashed_Frame_30">
</g>
<g id="Dashed_Frame_31">
</g>
<g id="Dashed_Frame_32">
</g>
<g id="Dashed_Frame_33">
</g>
<g id="Dashed_Frame_35">
</g>
</svg>
