<?xml version="1.0" encoding="iso-8859-1"?>
<!-- Generator: Adobe Illustrator 19.2.1, SVG Export Plug-In . SVG Version: 6.00 Build 0)  -->
<svg version="1.1" xmlns="http://www.w3.org/2000/svg" xmlns:xlink="http://www.w3.org/1999/xlink" x="0px" y="0px"
	 viewBox="0 0 30 30" style="enable-background:new 0 0 30 30;" xml:space="preserve">
<g id="Cutting_Board_1">
</g>
<g id="Cutting_Board_2">
</g>
<g id="Chef_x27_s_Hat_1">
</g>
<g id="Chef_x27_s_Hat_2">
</g>
<g id="Kitchen_Scale">
</g>
<g id="Measuring_Cup">
</g>
<g id="Pot_1">
</g>
<g id="Pot_2">
</g>
<g id="Wok_1">
</g>
<g id="Wok_2">
</g>
<g id="Teapot">
</g>
<g id="Plate">
</g>
<g id="Sauce_Boat">
</g>
<g id="Cauldron">
</g>
<g id="Cookbook">
</g>
<g id="Salt_Pot">
</g>
<g id="Pepper_Pot_1">
</g>
<g id="Pepper_Pot_2">
</g>
<g id="Egg_Timer">
</g>
<g id="Olive_Oil_Pot">
</g>
<g id="Pancake_Griddle">
</g>
<g id="Pan">
</g>
<g id="Kettle">
</g>
<g id="Microwave">
</g>
<g id="Cooker">
</g>
<g id="Meat_Grinder">
</g>
<g id="Coffee_Maker">
</g>
<g id="Household_Mixer">
</g>
<g id="Stand_Mixer">
</g>
<g id="Hand_Blender">
</g>
<g id="Blender">
</g>
<g id="Cooker_Hood">
</g>
<g id="Refrigerator">
</g>
<g id="Freezer">
	<g>
		<g>
			<g>
				<path d="M6.5,30C6.224,30,6,29.776,6,29.5v-1C6,28.224,6.224,28,6.5,28S7,28.224,7,28.5v1C7,29.776,6.776,30,6.5,30z"/>
			</g>
			<g>
				<path d="M23.5,30c-0.276,0-0.5-0.224-0.5-0.5v-1c0-0.276,0.224-0.5,0.5-0.5s0.5,0.224,0.5,0.5v1C24,29.776,23.776,30,23.5,30z"
					/>
			</g>
			<g>
				<path d="M24.5,17h-19C5.224,17,5,16.776,5,16.5S5.224,16,5.5,16h19c0.276,0,0.5,0.224,0.5,0.5S24.776,17,24.5,17z"/>
			</g>
			<g>
				<path d="M21.5,14h-1c-0.276,0-0.5-0.224-0.5-0.5s0.224-0.5,0.5-0.5H21V9.5C21,9.224,21.224,9,21.5,9S22,9.224,22,9.5v4
					C22,13.776,21.776,14,21.5,14z"/>
			</g>
			<g>
				<path d="M21.5,24h-1c-0.276,0-0.5-0.224-0.5-0.5s0.224-0.5,0.5-0.5H21v-3.5c0-0.276,0.224-0.5,0.5-0.5s0.5,0.224,0.5,0.5v4
					C22,23.776,21.776,24,21.5,24z"/>
			</g>
		</g>
		<g>
			<path d="M23.5,29h-17C5.673,29,5,28.327,5,27.5v-26C5,0.673,5.673,0,6.5,0h17C24.327,0,25,0.673,25,1.5v26
				C25,28.327,24.327,29,23.5,29z M6.5,1C6.224,1,6,1.224,6,1.5v26C6,27.776,6.224,28,6.5,28h17c0.276,0,0.5-0.224,0.5-0.5v-26
				C24,1.224,23.776,1,23.5,1H6.5z"/>
		</g>
	</g>
</g>
<g id="Apron">
</g>
<g id="Oven_Gloves">
</g>
<g id="Rolling_Pin">
</g>
<g id="Sieve">
</g>
<g id="Tea_Sieve">
</g>
<g id="Grater">
</g>
<g id="Knife_Holder">
</g>
<g id="Funnel">
</g>
<g id="Kitchen_Clock">
</g>
<g id="Lemon_Juicer">
</g>
<g id="Pastry_Bag_1">
</g>
<g id="Pastry_Bag_2">
</g>
<g id="Corkscrew">
</g>
<g id="Bottle_Opener">
</g>
<g id="Service">
</g>
<g id="Chopsticks">
</g>
<g id="Hatchet">
</g>
<g id="Filleting_Knife">
</g>
<g id="Bread_Knife">
</g>
<g id="Herb_Knife">
</g>
<g id="Whetting">
</g>
<g id="Cake_Knife">
</g>
<g id="Layer_58">
</g>
<g id="Ladle">
</g>
<g id="Sauce_Spoon">
</g>
<g id="Egg_Beater">
</g>
<g id="Meat_Fork">
</g>
<g id="Kitchen_Spoon_1">
</g>
<g id="Kitchen_Spoon_2">
</g>
<g id="Pizza_Cutter">
</g>
<g id="Potato_Musher">
</g>
<g id="Peeler">
</g>
<g id="Honey_Dipper">
</g>
<g id="Fork">
</g>
<g id="Knife">
</g>
<g id="Spoon">
</g>
<g id="Cutlery_Set">
</g>
<g id="Sugar_Bowl">
</g>
<g id="Matches">
</g>
<g id="Cezve">
</g>
</svg>
