<?xml version="1.0" encoding="iso-8859-1"?>
<!-- Generator: Adobe Illustrator 19.2.1, SVG Export Plug-In . SVG Version: 6.00 Build 0)  -->
<svg version="1.1" xmlns="http://www.w3.org/2000/svg" xmlns:xlink="http://www.w3.org/1999/xlink" x="0px" y="0px"
	 viewBox="0 0 24 24" style="enable-background:new 0 0 24 24;" xml:space="preserve">
<g id="Pompkin">
</g>
<g id="Layer_10">
</g>
<g id="Bat">
</g>
<g id="Ghost">
</g>
<g id="Bone_Hand">
</g>
<g id="Tree_Ghost">
</g>
<g id="Gate">
</g>
<g id="Cemetery_1">
</g>
<g id="Cemetery_2">
</g>
<g id="Devil_x27_s_Fork">
</g>
<g id="Night_Candle">
</g>
<g id="Canlestick">
</g>
<g id="Black_Cat">
</g>
<g id="Witch_Cauldron">
</g>
<g id="Corn_Candy">
</g>
<g id="Layer_29">
</g>
<g id="Bones">
</g>
<g id="Witch_Broom">
</g>
<g id="Owl">
</g>
<g id="Scythe">
</g>
<g id="Grim_Reaper">
</g>
<g id="Coffin">
</g>
<g id="Dracula">
</g>
<g id="Frankenstein">
</g>
<g id="Layer_40">
</g>
<g id="Toilet_Paper">
</g>
<g id="Skull">
</g>
<g id="Skull_Cake">
</g>
<g id="Eyeball">
</g>
<g id="Castle">
</g>
<g id="Witch_x27_s_Hat">
</g>
<g id="Cobweb_1">
</g>
<g id="Cobweb_2">
</g>
<g id="Spider">
</g>
<g id="Full_Moon">
	<g>
		<path d="M13.951,22.323c-0.333-0.166-0.58-0.414-0.714-0.717c-0.105-0.237-0.372-0.354-0.619-0.271
			c-0.395,0.135-0.84,0.099-1.207-0.102c-0.476-0.26-0.775-0.757-0.781-1.299c-0.003-0.254-0.196-0.466-0.449-0.492
			c-0.017-0.001-0.124-0.007-0.141-0.007c-0.046,0-0.091,0.006-0.135,0.019c-0.663,0.186-1.376-0.121-1.71-0.716
			c-0.066-0.117-0.175-0.202-0.305-0.237c-0.49-0.133-1.535-0.081-2.235-0.009c-0.475,0.048-0.931-0.128-1.249-0.466
			c-0.318-0.34-0.462-0.816-0.385-1.275c0.622-3.708,2.942-4.598,5.448-5.559c0.452-0.173,0.936-0.359,1.449-0.575
			c0.624-0.263,1.389-0.05,1.79,0.491c0.046,0.063,0.086,0.127,0.122,0.195c0.097,0.185,0.295,0.297,0.504,0.265
			c0.304-0.033,0.612,0.026,0.879,0.17c0.156,0.083,0.346,0.079,0.5-0.015c0.3-0.185,0.653-0.262,1.008-0.208
			c0.208,0.028,0.405-0.067,0.507-0.246c0.026-0.046,0.056-0.09,0.087-0.133c0.41-0.556,1.153-0.781,1.769-0.52
			c0.513,0.216,0.997,0.402,1.498,0.594c0.904,0.347,1.839,0.706,2.657,1.211c0.083,0.051,0.169,0.073,0.273,0.075
			c0.248,0.006,0.51-0.22,0.51-0.5c0-0.05-0.007-0.098-0.021-0.144C22.921,5.581,17.792,0.5,11.5,0.5C5.159,0.5,0,5.659,0,12
			s5.159,11.5,11.5,11.5c0.774,0,1.558-0.081,2.329-0.24c0.209-0.043,0.367-0.214,0.395-0.425
			C14.251,22.624,14.142,22.418,13.951,22.323z M11.5,2.5C12.327,2.5,13,3.173,13,4s-0.673,1.5-1.5,1.5S10,4.827,10,4
			S10.673,2.5,11.5,2.5z M6.5,5.5C7.878,5.5,9,6.622,9,8s-1.122,2.5-2.5,2.5S4,9.378,4,8S5.122,5.5,6.5,5.5z"/>
		<path d="M19.223,12.146c-0.476-0.182-0.986-0.378-1.529-0.606c-0.209-0.088-0.458-0.022-0.596,0.164
			c-0.137,0.186-0.129,0.441,0.02,0.618c0.492,0.586,0.325,0.959,0.27,1.082c-0.202,0.451-0.814,0.839-1.388,1.008
			C15.999,13.819,16,13,16,13c0-0.232-0.159-0.434-0.385-0.487c-0.229-0.057-0.459,0.055-0.563,0.263l-0.355,0.71
			c-0.13,0-0.274-0.001-0.404,0.001l-0.353-0.663c-0.107-0.203-0.339-0.307-0.563-0.25C13.156,12.63,12.999,12.83,13,13.06
			c0,0,0.001,0.778,0.001,1.351c-0.573-0.168-1.186-0.557-1.388-1.008c-0.055-0.123-0.222-0.496,0.27-1.082
			c0.148-0.177,0.157-0.432,0.02-0.618c-0.138-0.186-0.385-0.252-0.596-0.164c-0.543,0.229-1.053,0.424-1.529,0.606
			c-2.463,0.944-4.243,1.627-4.771,4.771c-0.026,0.154,0.021,0.311,0.128,0.425c0.107,0.114,0.263,0.169,0.416,0.156
			c0.403-0.042,0.929-0.089,1.426-0.089c1.538,0,1.915,0.453,2.065,0.793c0.101,0.228,0.353,0.35,0.594,0.279
			c0.391-0.11,1.362-0.043,1.8,0.469c0.192,0.225,0.257,0.516,0.199,0.89c-0.033,0.208,0.069,0.415,0.254,0.516
			c0.185,0.101,0.414,0.075,0.572-0.065c0.161-0.143,0.444-0.235,0.723-0.235c0.345,0,0.924,0.123,0.924,0.944
			c0,0.276,0.224,0.5,0.5,0.5s0.5-0.224,0.5-0.5c0-0.869,0.646-0.962,0.924-0.962c0.279,0,0.553,0.094,0.713,0.245
			c0.098,0.091,0.236,0.133,0.352,0.135c0.273,0.027,0.51-0.22,0.51-0.5c0-0.057-0.009-0.111-0.026-0.161
			c0.004-0.25,0.104-0.482,0.296-0.693c0.359-0.395,0.932-0.602,1.311-0.602c0.086,0,0.144,0.011,0.176,0.02
			c0.192,0.055,0.4-0.011,0.526-0.168c0.462-0.577,1.373-0.908,2.498-0.908c0.339,0,0.685,0.03,1.028,0.088
			c0.16,0.027,0.323-0.025,0.438-0.139c0.115-0.114,0.167-0.277,0.14-0.437C23.465,13.772,21.686,13.09,19.223,12.146z"/>
	</g>
</g>
<g id="Crescent">
</g>
<g id="Crow">
</g>
<g id="Candy_Holder">
</g>
<g id="Bloody_Knife">
</g>
<g id="Bloody_Axe">
</g>
</svg>
