<?xml version="1.0" encoding="iso-8859-1"?>
<!-- Generator: Adobe Illustrator 19.2.1, SVG Export Plug-In . SVG Version: 6.00 Build 0)  -->
<svg version="1.1" xmlns="http://www.w3.org/2000/svg" xmlns:xlink="http://www.w3.org/1999/xlink" x="0px" y="0px"
	 viewBox="0 0 30 30" style="enable-background:new 0 0 30 30;" xml:space="preserve">
<g id="Cutting_Board_1">
</g>
<g id="Cutting_Board_2">
</g>
<g id="Chef_x27_s_Hat_1">
</g>
<g id="Chef_x27_s_Hat_2">
</g>
<g id="Kitchen_Scale">
</g>
<g id="Measuring_Cup">
</g>
<g id="Pot_1">
</g>
<g id="Pot_2">
</g>
<g id="Wok_1">
</g>
<g id="Wok_2">
</g>
<g id="Teapot">
</g>
<g id="Plate">
</g>
<g id="Sauce_Boat">
</g>
<g id="Cauldron">
</g>
<g id="Cookbook">
</g>
<g id="Salt_Pot">
</g>
<g id="Pepper_Pot_1">
</g>
<g id="Pepper_Pot_2">
</g>
<g id="Egg_Timer">
</g>
<g id="Olive_Oil_Pot">
</g>
<g id="Pancake_Griddle">
</g>
<g id="Pan">
</g>
<g id="Kettle">
</g>
<g id="Microwave">
</g>
<g id="Cooker">
</g>
<g id="Meat_Grinder">
</g>
<g id="Coffee_Maker">
</g>
<g id="Household_Mixer">
</g>
<g id="Stand_Mixer">
</g>
<g id="Hand_Blender">
</g>
<g id="Blender">
</g>
<g id="Cooker_Hood">
</g>
<g id="Refrigerator">
</g>
<g id="Freezer">
</g>
<g id="Apron">
</g>
<g id="Oven_Gloves">
</g>
<g id="Rolling_Pin">
</g>
<g id="Sieve">
</g>
<g id="Tea_Sieve">
</g>
<g id="Grater">
</g>
<g id="Knife_Holder">
</g>
<g id="Funnel">
	<g>
		<g>
			<g>
				<path d="M11.516,30c-0.069,0-0.138-0.015-0.203-0.043c-0.166-0.074-0.279-0.232-0.295-0.413l-1.016-11.5
					c-0.308-3.411-1.775-6.188-4.242-8.031C2.78,7.786,1,4.229,1,0.5C1,0.224,1.224,0,1.5,0h22.536c0.276,0,0.5,0.224,0.5,0.5
					c0,3.532-1.551,6.853-4.256,9.109c-2.123,1.773-3.466,4.417-3.783,7.442L16,26.526c-0.008,0.147-0.081,0.284-0.199,0.373
					l-3.984,3C11.729,29.966,11.623,30,11.516,30z M2.011,1c0.145,3.271,1.711,6.242,4.348,8.212
					c2.701,2.017,4.305,5.04,4.639,8.743l0.937,10.604l3.078-2.317l0.487-9.268c0.346-3.312,1.814-6.19,4.139-8.132
					c2.349-1.96,3.747-4.796,3.886-7.842H2.011z"/>
			</g>
			<g>
				<path d="M7.256,8.51c-0.104,0-0.209-0.032-0.298-0.1C5.043,6.981,3.716,4.92,3.221,2.604c-0.058-0.27,0.114-0.536,0.384-0.594
					c0.267-0.053,0.536,0.113,0.593,0.385c0.445,2.078,1.637,3.93,3.356,5.214c0.222,0.165,0.267,0.479,0.102,0.699
					C7.559,8.44,7.408,8.51,7.256,8.51z"/>
			</g>
		</g>
		<g>
			<path d="M25,7h-2.5C22.224,7,22,6.776,22,6.5S22.224,6,22.5,6H25c1.103,0,2-0.897,2-2s-0.897-2-2-2h-1
				c-0.276,0-0.5-0.224-0.5-0.5S23.724,1,24,1h1c1.654,0,3,1.346,3,3S26.654,7,25,7z"/>
		</g>
	</g>
</g>
<g id="Kitchen_Clock">
</g>
<g id="Lemon_Juicer">
</g>
<g id="Pastry_Bag_1">
</g>
<g id="Pastry_Bag_2">
</g>
<g id="Corkscrew">
</g>
<g id="Bottle_Opener">
</g>
<g id="Service">
</g>
<g id="Chopsticks">
</g>
<g id="Hatchet">
</g>
<g id="Filleting_Knife">
</g>
<g id="Bread_Knife">
</g>
<g id="Herb_Knife">
</g>
<g id="Whetting">
</g>
<g id="Cake_Knife">
</g>
<g id="Layer_58">
</g>
<g id="Ladle">
</g>
<g id="Sauce_Spoon">
</g>
<g id="Egg_Beater">
</g>
<g id="Meat_Fork">
</g>
<g id="Kitchen_Spoon_1">
</g>
<g id="Kitchen_Spoon_2">
</g>
<g id="Pizza_Cutter">
</g>
<g id="Potato_Musher">
</g>
<g id="Peeler">
</g>
<g id="Honey_Dipper">
</g>
<g id="Fork">
</g>
<g id="Knife">
</g>
<g id="Spoon">
</g>
<g id="Cutlery_Set">
</g>
<g id="Sugar_Bowl">
</g>
<g id="Matches">
</g>
<g id="Cezve">
</g>
</svg>
