<?xml version="1.0" encoding="iso-8859-1"?>
<!-- Generator: Adobe Illustrator 19.2.1, SVG Export Plug-In . SVG Version: 6.00 Build 0)  -->
<svg version="1.1" xmlns="http://www.w3.org/2000/svg" xmlns:xlink="http://www.w3.org/1999/xlink" x="0px" y="0px"
	 viewBox="0 0 24 24" style="enable-background:new 0 0 24 24;" xml:space="preserve">
<g id="Cutting_Board_1">
</g>
<g id="Cutting_Board_2">
</g>
<g id="Chef_x27_s_Hat_1">
</g>
<g id="Chef_x27_s_Hat_2">
</g>
<g id="Kitchen_Scale">
</g>
<g id="Measuring_Cup">
</g>
<g id="Pot_1">
</g>
<g id="Pot_2">
</g>
<g id="Wok_1">
</g>
<g id="Wok_2">
</g>
<g id="Teapot">
</g>
<g id="Plate">
</g>
<g id="Sauce_Boat">
</g>
<g id="Cauldron">
</g>
<g id="Cookbook">
</g>
<g id="Salt_Pot">
</g>
<g id="Pepper_Pot_1">
</g>
<g id="Pepper_Pot_2">
</g>
<g id="Egg_Timer">
</g>
<g id="Olive_Oil_Pot">
</g>
<g id="Pancake_Griddle">
</g>
<g id="Pan">
</g>
<g id="Kettle">
</g>
<g id="Microwave">
</g>
<g id="Cooker">
</g>
<g id="Meat_Grinder">
</g>
<g id="Coffee_Maker">
</g>
<g id="Household_Mixer">
</g>
<g id="Stand_Mixer">
</g>
<g id="Hand_Blender">
</g>
<g id="Blender">
</g>
<g id="Cooker_Hood">
</g>
<g id="Refrigerator">
</g>
<g id="Freezer">
</g>
<g id="Apron">
</g>
<g id="Oven_Gloves">
</g>
<g id="Rolling_Pin">
</g>
<g id="Sieve">
</g>
<g id="Tea_Sieve">
</g>
<g id="Grater">
</g>
<g id="Knife_Holder">
</g>
<g id="Funnel">
	<path d="M22.508,2.186C22.049,1.443,21.254,1,20.381,1h-0.292c0.009-0.167,0.028-0.332,0.028-0.5c0-0.276-0.224-0.5-0.5-0.5h-18
		c-0.276,0-0.5,0.224-0.5,0.5c0,2.992,1.437,5.844,3.844,7.628c2.158,1.601,3.468,3.818,3.687,6.224l0.47,9.173
		c0.009,0.18,0.114,0.341,0.275,0.421C9.463,23.982,9.54,24,9.617,24c0.097,0,0.194-0.028,0.277-0.084l3-2
		c0.131-0.087,0.214-0.232,0.222-0.39l0.421-7.996c0.232-2.205,1.349-4.238,3.143-5.726c0.661-0.548,1.226-1.182,1.707-1.868
		C18.457,5.974,18.533,6,18.617,6h1.764c0.953,0,1.809-0.529,2.236-1.382C23.007,3.837,22.967,2.928,22.508,2.186z M6.852,6.418
		c-0.098,0.132-0.25,0.202-0.402,0.202c-0.104,0-0.208-0.032-0.297-0.098C4.827,5.54,3.884,4.198,3.424,2.642
		C3.346,2.377,3.497,2.099,3.762,2.021c0.266-0.08,0.542,0.073,0.621,0.338c0.398,1.346,1.216,2.509,2.365,3.36
		C6.969,5.883,7.016,6.197,6.852,6.418z M21.722,4.171C21.467,4.682,20.952,5,20.381,5h-1.414c0.504-0.932,0.848-1.943,1.017-3
		h0.397c0.523,0,1,0.266,1.276,0.711S21.957,3.703,21.722,4.171z"/>
</g>
<g id="Kitchen_Clock">
</g>
<g id="Lemon_Juicer">
</g>
<g id="Pastry_Bag_1">
</g>
<g id="Pastry_Bag_2">
</g>
<g id="Corkscrew">
</g>
<g id="Bottle_Opener">
</g>
<g id="Service">
</g>
<g id="Chopsticks">
</g>
<g id="Hatchet">
</g>
<g id="Filleting_Knife">
</g>
<g id="Bread_Knife">
</g>
<g id="Herb_Knife">
</g>
<g id="Whetting">
</g>
<g id="Cake_Knife">
</g>
<g id="Layer_58">
</g>
<g id="Ladle">
</g>
<g id="Sauce_Spoon">
</g>
<g id="Egg_Beater">
</g>
<g id="Meat_Fork">
</g>
<g id="Kitchen_Spoon_1">
</g>
<g id="Kitchen_Spoon_2">
</g>
<g id="Pizza_Cutter">
</g>
<g id="Potato_Musher">
</g>
<g id="Peeler">
</g>
<g id="Honey_Dipper">
</g>
<g id="Fork">
</g>
<g id="Knife">
</g>
<g id="Spoon">
</g>
<g id="Cutlery_Set">
</g>
<g id="Sugar_Bowl">
</g>
<g id="Matches">
</g>
<g id="Cezve">
</g>
</svg>
