<?xml version="1.0" encoding="iso-8859-1"?>
<!-- Generator: Adobe Illustrator 19.2.1, SVG Export Plug-In . SVG Version: 6.00 Build 0)  -->
<svg version="1.1" xmlns="http://www.w3.org/2000/svg" xmlns:xlink="http://www.w3.org/1999/xlink" x="0px" y="0px"
	 viewBox="0 0 24 24" style="enable-background:new 0 0 24 24;" xml:space="preserve">
<g id="Add_User">
</g>
<g id="Remove_User">
</g>
<g id="Delete_User">
</g>
<g id="Done">
</g>
<g id="At_Symbol">
</g>
<g id="Question">
</g>
<g id="Answer">
</g>
<g id="Bring_Up">
</g>
<g id="Bring_Down">
</g>
<g id="Dismiss_User">
</g>
<g id="User_Speed">
</g>
<g id="User_Settings">
</g>
<g id="User_Refresh">
</g>
<g id="User_Time">
</g>
<g id="Dollar">
</g>
<g id="Euro">
</g>
<g id="Pound">
</g>
<g id="Bitcoin">
</g>
<g id="Global_User">
</g>
<g id="Waiting_User">
</g>
<g id="Writing_User_2">
</g>
<g id="Search_User">
</g>
<g id="Lock_User">
</g>
<g id="Mark_User">
</g>
<g id="Share_User">
</g>
<g id="Shopping">
</g>
<g id="User_Download">
</g>
<g id="User_Upload">
</g>
<g id="User_Statistics">
</g>
<g id="User_Defense">
</g>
<g id="User_Car">
</g>
<g id="User_Home">
</g>
<g id="Park">
</g>
<g id="Recicle_User">
</g>
<g id="Wifi">
</g>
<g id="Attach_User">
</g>
<g id="Disabled_User">
</g>
<g id="User_Card">
</g>
<g id="Gaming">
	<g>
		<path d="M8,20.5c0-2.002,1.54-7.5,6.5-7.5h1.272c0.229,0,0.429-0.155,0.484-0.377c0.023-0.091,0.044-0.18,0.063-0.268
			c0.095-0.075,0.161-0.185,0.182-0.312c0.005-0.033,0.01-0.065,0.015-0.097c0.571-0.158,1.013-0.647,1.089-1.26l0.25-2
			c0.053-0.422-0.077-0.849-0.357-1.169c-0.164-0.188-0.371-0.33-0.6-0.417l0.092-1.883l0.374-0.374
			c0.563-0.6,1.03-1.626,0.054-3.117C16.669,0.581,15.395,0,13.631,0c-0.695,0-2.298,0-3.791,1.002C5.579,1.091,5,3.07,5,5
			c0,0.449,0.109,1.46,0.181,2.07C4.924,7.151,4.69,7.301,4.509,7.507C4.225,7.829,4.092,8.259,4.145,8.686l0.25,2
			c0.081,0.652,0.577,1.165,1.202,1.287c0.208,1.375,0.873,2.724,1.839,3.722l-0.348,1.393l-3.83,0.958
			C1.065,18.593,0,20.377,0,23.5c0,0.133,0.053,0.26,0.146,0.354S0.367,24,0.5,24l7.532-0.001c0.17,0,0.327-0.086,0.42-0.228
			c0.092-0.142,0.105-0.321,0.036-0.476C8.164,22.569,8,21.629,8,20.5z"/>
		<path d="M18.5,14h-4C10.304,14,9,18.765,9,20.5c0,2.322,0.673,3.5,2,3.5c2.074,0,3.095-1.946,3.385-2.616
			C14.729,21.256,15.541,21,16.5,21s1.771,0.256,2.115,0.384C18.905,22.054,19.926,24,22,24c1.327,0,2-1.178,2-3.5
			C24,18.765,22.696,14,18.5,14z M14.5,18H14v0.5c0,0.276-0.224,0.5-0.5,0.5S13,18.776,13,18.5V18h-0.5c-0.276,0-0.5-0.224-0.5-0.5
			s0.224-0.5,0.5-0.5H13v-0.5c0-0.276,0.224-0.5,0.5-0.5s0.5,0.224,0.5,0.5V17h0.5c0.276,0,0.5,0.224,0.5,0.5S14.776,18,14.5,18z
			 M19.5,16c0.276,0,0.5,0.224,0.5,0.5c0,0.276-0.224,0.5-0.5,0.5S19,16.776,19,16.5C19,16.224,19.224,16,19.5,16z M18.5,18
			c-0.276,0-0.5-0.224-0.5-0.5c0-0.276,0.224-0.5,0.5-0.5s0.5,0.224,0.5,0.5C19,17.776,18.776,18,18.5,18z M19.5,19
			c-0.276,0-0.5-0.224-0.5-0.5c0-0.276,0.224-0.5,0.5-0.5s0.5,0.224,0.5,0.5C20,18.776,19.776,19,19.5,19z M20.5,18
			c-0.276,0-0.5-0.224-0.5-0.5c0-0.276,0.224-0.5,0.5-0.5s0.5,0.224,0.5,0.5C21,17.776,20.776,18,20.5,18z"/>
	</g>
</g>
<g id="User_Cloud">
</g>
<g id="User_Database">
</g>
<g id="Copyright">
</g>
<g id="No_Copyright">
</g>
<g id="Creative_Commun">
</g>
<g id="Eco-Friendly">
</g>
<g id="Percentage">
</g>
<g id="User_Love">
</g>
<g id="User_Place">
</g>
<g id="User_Key">
</g>
<g id="Sleeping">
</g>
<g id="Add_User_2">
</g>
<g id="Remove_User_2">
</g>
<g id="Delete_User_2">
</g>
<g id="Done_2">
</g>
<g id="At_Symbol_2">
</g>
<g id="Question_2">
</g>
<g id="Answer_2">
</g>
<g id="Bring_Up_2">
</g>
<g id="Bring_Down_2">
</g>
<g id="Dismiss_User_2">
</g>
<g id="User_Speed_2">
</g>
<g id="User_Settings_2">
</g>
<g id="Refresh_2">
</g>
<g id="Time_2">
</g>
<g id="Dollar_2">
</g>
<g id="Euro_2">
</g>
<g id="Pound_2">
</g>
<g id="Bitcoin_2">
</g>
<g id="Global_User_2">
</g>
<g id="Waiting_User_2">
</g>
<g id="Writing_User">
</g>
<g id="Search_User_2">
</g>
<g id="Lock_User_2">
</g>
<g id="Mark_User_2">
</g>
<g id="Share_User_2">
</g>
<g id="Shopping_2">
</g>
<g id="Download_2">
</g>
<g id="Upload_2">
</g>
<g id="User_Statistics_2">
</g>
<g id="User_Defense_2">
</g>
<g id="Car_2">
</g>
<g id="Home_2">
</g>
<g id="Park_2">
</g>
<g id="Recicle_User_2">
</g>
<g id="User_Wifi">
</g>
<g id="Attach_2">
</g>
<g id="Disabled_User_2">
</g>
<g id="User_Card_2">
</g>
<g id="Gaming_2">
</g>
<g id="Cloud_2">
</g>
<g id="Database_2">
</g>
<g id="Copyright_2">
</g>
<g id="No_Copyright_2">
</g>
<g id="Creative_Commun_2">
</g>
<g id="Eco-Friendly_2">
</g>
<g id="Percentage_2">
</g>
<g id="User_Love_2">
</g>
<g id="User_Rate_2">
</g>
<g id="User_Key_2">
</g>
<g id="Sleeping_2">
</g>
</svg>
