<?xml version="1.0" encoding="iso-8859-1"?>
<!-- Generator: Adobe Illustrator 19.2.1, SVG Export Plug-In . SVG Version: 6.00 Build 0)  -->
<svg version="1.1" xmlns="http://www.w3.org/2000/svg" xmlns:xlink="http://www.w3.org/1999/xlink" x="0px" y="0px"
	 viewBox="0 0 30 30" style="enable-background:new 0 0 30 30;" xml:space="preserve">
<g id="Present_1">
</g>
<g id="Present_2">
</g>
<g id="Present_3">
</g>
<g id="Present_Cake">
</g>
<g id="Present_4">
</g>
<g id="Birthday_Cake_1">
</g>
<g id="Birthday_Cake_2">
</g>
<g id="Cake_Piece">
</g>
<g id="Cupcake">
</g>
<g id="Lollipop">
</g>
<g id="Birthday_Greetings_1">
</g>
<g id="Party_Greetings_2">
</g>
<g id="Birthday_Invitation">
</g>
<g id="Birthday_1">
</g>
<g id="Birthday_2">
</g>
<g id="Birthday_Message_1">
</g>
<g id="Birthday_Message_2">
</g>
<g id="Birthyday_Hat_1">
</g>
<g id="Birthay_Hat_2">
</g>
<g id="Birthday_Hat3">
</g>
<g id="Birthday_Decoration_1">
</g>
<g id="Birthday_Decoration_2">
</g>
<g id="Birthday_Decoration_3">
</g>
<g id="Horn_1">
</g>
<g id="Horn_2">
</g>
<g id="Baloon">
</g>
<g id="Balloons_1">
</g>
<g id="Balloons_2">
</g>
<g id="Birthday_Picture">
</g>
<g id="Kid_x27_s_Champagne">
</g>
<g id="Candy">
</g>
<g id="Birthday_Card">
</g>
<g id="Flowers">
</g>
<g id="Birthday_Song">
</g>
<g id="Candle">
</g>
<g id="Sweet_16">
</g>
<g id="Clown">
</g>
<g id="Clown_2">
</g>
<g id="Birthday_Party">
</g>
<g id="Giving_Gift">
	<g>
		<path d="M7.148,15.073c-1.076-1.019-5.702-1.343-6.618-1.397c-0.14-0.004-0.272,0.041-0.373,0.135C0.057,13.906,0,14.038,0,14.175
			v11.348c0,0.276,0.224,0.5,0.5,0.5h3.783c0.216,0,0.408-0.139,0.475-0.345c0.092-0.281,2.26-6.936,2.544-10.199
			C7.315,15.328,7.259,15.178,7.148,15.073z"/>
		<path d="M25.625,21.648l-6.526,1.632c-0.611,0.153-1.26,0.169-1.878,0.045L11.75,22.23c-0.271-0.054-0.446-0.317-0.392-0.588
			c0.054-0.271,0.316-0.448,0.588-0.393l5.47,1.095c0.474,0.095,0.971,0.082,1.44-0.035l2.29-0.573
			c-0.136-1.602-1.032-2.543-2.885-3.007L8.182,16.491c-0.423,2.805-1.653,6.897-2.204,8.654l8.215,2.737
			c1.039,0.393,1.758,0.62,2.567,0.62c1.264,0,2.747-0.554,6.013-1.894l6.935-3.151c0.123-0.056,0.219-0.16,0.265-0.288
			c0.005-0.016,0.003-0.032,0.007-0.048C29.28,21.959,26.992,21.301,25.625,21.648z"/>
		<path d="M29.5,5h-5.217c0.14-0.058,0.3-0.105,0.428-0.169c1.114-0.557,1.754-1.352,1.754-2.181C26.465,1.694,25.62,1,24.456,1
			C22.697,1,21.021,2.552,20,3.725V10h9.5c0.276,0,0.5-0.224,0.5-0.5v-4C30,5.224,29.776,5,29.5,5z M20.43,4.758
			C21.377,3.597,23.002,2,24.456,2c0.594,0,1.009,0.267,1.009,0.649c0,0.332-0.315,0.844-1.201,1.287
			C23.598,4.269,22.415,4.657,20.43,4.758z"/>
		<path d="M9.5,10H19V3.923C18.003,2.737,16.229,1,14.37,1c-1.164,0-2.008,0.694-2.008,1.649c0,0.829,0.639,1.624,1.754,2.181
			C14.243,4.895,14.403,4.942,14.544,5H9.5C9.224,5,9,5.224,9,5.5v4C9,9.776,9.224,10,9.5,10z M13.361,2.649
			C13.361,2.267,13.776,2,14.37,2c1.455,0,3.08,1.597,4.027,2.758c-1.985-0.101-3.168-0.489-3.834-0.822
			C13.677,3.494,13.361,2.981,13.361,2.649z"/>
		<path d="M18.478,17.754c0.185,0.046,0.352,0.104,0.522,0.159V11h-9v4.871L18.478,17.754z"/>
		<path d="M22.127,21.492l3.255-0.813c1.036-0.263,2.445-0.09,3.618,0.437V11h-9v7.323C21.263,18.996,21.962,20.041,22.127,21.492z"
			/>
	</g>
</g>
<g id="Present_5">
</g>
<g id="Champagne_in_ice_bucket">
</g>
<g id="Beer">
</g>
<g id="Truffles">
</g>
<g id="Pinata">
</g>
</svg>
