<?xml version="1.0" encoding="iso-8859-1"?>
<!-- Generator: Adobe Illustrator 19.2.1, SVG Export Plug-In . SVG Version: 6.00 Build 0)  -->
<svg version="1.1" xmlns="http://www.w3.org/2000/svg" xmlns:xlink="http://www.w3.org/1999/xlink" x="0px" y="0px"
	 viewBox="0 0 30 30" style="enable-background:new 0 0 30 30;" xml:space="preserve">
<g id="Add_User">
</g>
<g id="Remove_User">
</g>
<g id="Delete_User">
</g>
<g id="Done">
</g>
<g id="At_Symbol">
</g>
<g id="Question">
</g>
<g id="Answer">
</g>
<g id="Bring_Up">
</g>
<g id="Bring_Down">
</g>
<g id="Dismiss_User">
</g>
<g id="User_Speed">
</g>
<g id="User_Settings">
</g>
<g id="User_Refresh">
</g>
<g id="User_Time">
</g>
<g id="Dollar">
</g>
<g id="Euro">
</g>
<g id="Pound">
</g>
<g id="Bitcoin">
</g>
<g id="Global_User">
</g>
<g id="Waiting_User">
</g>
<g id="Writing_User_2">
</g>
<g id="Search_User">
</g>
<g id="Lock_User">
</g>
<g id="Mark_User">
</g>
<g id="Share_User">
</g>
<g id="Shopping">
</g>
<g id="User_Download">
</g>
<g id="User_Upload">
</g>
<g id="User_Statistics">
</g>
<g id="User_Defense">
</g>
<g id="User_Car">
</g>
<g id="User_Home">
</g>
<g id="Park">
</g>
<g id="Recicle_User">
</g>
<g id="Wifi">
</g>
<g id="Attach_User">
</g>
<g id="Disabled_User">
</g>
<g id="User_Card">
</g>
<g id="Gaming">
</g>
<g id="User_Cloud">
</g>
<g id="User_Database">
</g>
<g id="Copyright">
</g>
<g id="No_Copyright">
</g>
<g id="Creative_Commun">
</g>
<g id="Eco-Friendly">
</g>
<g id="Percentage">
</g>
<g id="User_Love">
</g>
<g id="User_Place">
</g>
<g id="User_Key">
</g>
<g id="Sleeping">
</g>
<g id="Add_User_2">
</g>
<g id="Remove_User_2">
</g>
<g id="Delete_User_2">
</g>
<g id="Done_2">
</g>
<g id="At_Symbol_2">
</g>
<g id="Question_2">
</g>
<g id="Answer_2">
</g>
<g id="Bring_Up_2">
</g>
<g id="Bring_Down_2">
</g>
<g id="Dismiss_User_2">
</g>
<g id="User_Speed_2">
</g>
<g id="User_Settings_2">
</g>
<g id="Refresh_2">
</g>
<g id="Time_2">
</g>
<g id="Dollar_2">
</g>
<g id="Euro_2">
</g>
<g id="Pound_2">
</g>
<g id="Bitcoin_2">
</g>
<g id="Global_User_2">
	<g>
		<g>
			<g>
				<path d="M17,25c-1.379,0-2.5-1.121-2.5-2.5S15.621,20,17,20s2.5,1.121,2.5,2.5S18.379,25,17,25z M17,21
					c-0.827,0-1.5,0.673-1.5,1.5S16.173,24,17,24s1.5-0.673,1.5-1.5S17.827,21,17,21z"/>
			</g>
			<g>
				<path d="M27,20c-1.379,0-2.5-1.121-2.5-2.5S25.621,15,27,15s2.5,1.121,2.5,2.5S28.379,20,27,20z M27,16
					c-0.827,0-1.5,0.673-1.5,1.5S26.173,19,27,19s1.5-0.673,1.5-1.5S27.827,16,27,16z"/>
			</g>
			<g>
				<path d="M27,30c-1.379,0-2.5-1.121-2.5-2.5S25.621,25,27,25s2.5,1.121,2.5,2.5S28.379,30,27,30z M27,26
					c-0.827,0-1.5,0.673-1.5,1.5S26.173,29,27,29s1.5-0.673,1.5-1.5S27.827,26,27,26z"/>
			</g>
			<g>
				<path d="M19,21.5c-0.195,0-0.382-0.115-0.462-0.308c-0.105-0.255,0.015-0.548,0.27-0.654l6-2.5
					c0.252-0.103,0.548,0.014,0.654,0.27c0.105,0.255-0.015,0.548-0.27,0.654l-6,2.5C19.13,21.487,19.064,21.5,19,21.5z"/>
			</g>
			<g>
				<path d="M25,27c-0.075,0-0.151-0.017-0.224-0.053l-6-3c-0.247-0.124-0.347-0.424-0.224-0.671
					c0.124-0.246,0.425-0.347,0.671-0.224l6,3c0.247,0.124,0.347,0.424,0.224,0.671C25.359,26.898,25.183,27,25,27z"/>
			</g>
			<g>
				<path d="M23.557,30H1c-0.276,0-0.5-0.224-0.5-0.5c0-2.96,1.884-6.646,4.927-7.438l4.549-1.185l0.44-1.836
					c-1.161-1.227-1.955-2.907-2.185-4.613c-0.726-0.117-1.308-0.719-1.399-1.49l-0.294-2.445c-0.06-0.501,0.096-1.001,0.426-1.373
					C7.181,8.875,7.46,8.702,7.766,8.617C7.683,7.89,7.543,6.57,7.543,6.002c0-2.309,0.672-4.676,5.618-4.776
					C14.898,0,16.774,0,17.588,0c2.043,0,3.516,0.695,4.378,2.068c0.886,1.407,0.868,2.638-0.052,3.657l-0.467,0.487l-0.114,2.438
					c0.271,0.094,0.518,0.258,0.712,0.48c0.324,0.37,0.477,0.866,0.417,1.36l-0.294,2.445c-0.086,0.722-0.601,1.295-1.262,1.462
					c-0.226,1.739-1.031,3.427-2.246,4.684c-0.19,0.199-0.506,0.204-0.707,0.012c-0.198-0.191-0.204-0.508-0.012-0.707
					c1.135-1.174,1.886-2.848,2.01-4.477c0.021-0.261,0.237-0.462,0.499-0.462c0.395,0,0.683-0.271,0.726-0.631l0.294-2.445
					c0.025-0.213-0.039-0.426-0.177-0.583c-0.127-0.145-0.3-0.227-0.485-0.229c-0.136-0.002-0.265-0.059-0.358-0.157
					c-0.093-0.099-0.142-0.23-0.135-0.366l0.144-3.06c0.005-0.121,0.055-0.235,0.138-0.322l0.586-0.611
					c0.399-0.443,0.764-1.132-0.062-2.444C20.452,1.538,19.264,1,17.588,1c-1.214,0-2.635,0.134-3.963,1.124
					c-0.085,0.063-0.188,0.098-0.294,0.099C8.909,2.269,8.543,4.036,8.543,6.002c0,0.729,0.271,2.974,0.273,2.996
					c0.018,0.143-0.027,0.285-0.122,0.393C8.6,9.497,8.464,9.559,8.32,9.559H8.199c-0.187,0-0.359,0.08-0.487,0.225
					c-0.142,0.158-0.207,0.373-0.182,0.59l0.294,2.445c0.043,0.359,0.331,0.631,0.669,0.631h0.19c0.262,0,0.479,0.201,0.499,0.462
					c0.131,1.716,0.929,3.442,2.134,4.619c0.126,0.123,0.178,0.303,0.137,0.474l-0.575,2.397c-0.043,0.18-0.182,0.321-0.36,0.367
					l-4.839,1.26C3.337,23.639,1.716,26.504,1.52,29h22.037c0.276,0,0.5,0.224,0.5,0.5S23.833,30,23.557,30z"/>
			</g>
		</g>
	</g>
</g>
<g id="Waiting_User_2">
</g>
<g id="Writing_User">
</g>
<g id="Search_User_2">
</g>
<g id="Lock_User_2">
</g>
<g id="Mark_User_2">
</g>
<g id="Share_User_2">
</g>
<g id="Shopping_2">
</g>
<g id="Download_2">
</g>
<g id="Upload_2">
</g>
<g id="User_Statistics_2">
</g>
<g id="User_Defense_2">
</g>
<g id="Car_2">
</g>
<g id="Home_2">
</g>
<g id="Park_2">
</g>
<g id="Recicle_User_2">
</g>
<g id="User_Wifi">
</g>
<g id="Attach_2">
</g>
<g id="Disabled_User_2">
</g>
<g id="User_Card_2">
</g>
<g id="Gaming_2">
</g>
<g id="Cloud_2">
</g>
<g id="Database_2">
</g>
<g id="Copyright_2">
</g>
<g id="No_Copyright_2">
</g>
<g id="Creative_Commun_2">
</g>
<g id="Eco-Friendly_2">
</g>
<g id="Percentage_2">
</g>
<g id="User_Love_2">
</g>
<g id="User_Rate_2">
</g>
<g id="User_Key_2">
</g>
<g id="Sleeping_2">
</g>
</svg>
