<?xml version="1.0" encoding="iso-8859-1"?>
<!-- Generator: Adobe Illustrator 19.2.1, SVG Export Plug-In . SVG Version: 6.00 Build 0)  -->
<svg version="1.1" xmlns="http://www.w3.org/2000/svg" xmlns:xlink="http://www.w3.org/1999/xlink" x="0px" y="0px"
	 viewBox="0 0 30 30" style="enable-background:new 0 0 30 30;" xml:space="preserve">
<g id="Mail">
</g>
<g id="Open_Mail">
</g>
<g id="Mail_Attachmet">
</g>
<g id="Mails">
</g>
<g id="Trash">
</g>
<g id="Trash_Full">
</g>
<g id="Preferences_1">
</g>
<g id="Preferences_2">
</g>
<g id="Mouse">
</g>
<g id="Computer">
</g>
<g id="Notebook">
</g>
<g id="Mobile_Phone">
</g>
<g id="Print">
</g>
<g id="Calculator">
</g>
<g id="Tag">
</g>
<g id="Paperclip">
</g>
<g id="Heart">
</g>
<g id="Lock">
</g>
<g id="Lock_Open">
</g>
<g id="Key_1">
</g>
<g id="Star">
</g>
<g id="Add">
</g>
<g id="Remove">
</g>
<g id="Error">
</g>
<g id="Check_1">
</g>
<g id="Time">
</g>
<g id="Question_Mark">
</g>
<g id="Error_Mark">
</g>
<g id="Sand-Glass">
</g>
<g id="Battery_Full">
</g>
<g id="Battery_Charge">
</g>
<g id="Battery_Half">
</g>
<g id="Battery_Low">
</g>
<g id="No_Battery">
</g>
<g id="Key_2">
</g>
<g id="Link">
</g>
<g id="Brake_Link">
</g>
<g id="Pencil">
</g>
<g id="At">
</g>
<g id="Reply">
</g>
<g id="Accessible">
</g>
<g id="Up_Arrow">
</g>
<g id="Brush">
</g>
<g id="Design_Mug">
</g>
<g id="Design">
</g>
<g id="Server">
</g>
<g id="Database">
</g>
<g id="Save">
</g>
<g id="Female">
</g>
<g id="Male">
</g>
<g id="Book">
</g>
<g id="Power">
</g>
<g id="Reload">
</g>
<g id="Map">
</g>
<g id="Loction_1">
</g>
<g id="Location_2">
</g>
<g id="Globe">
	<path d="M27.448,22h-5.685c0.514-1.817,0.818-3.848,0.859-6h6.352C28.901,18.153,28.362,20.184,27.448,22z M8.57,23H14v5.952
		C11.739,28.654,9.765,26.368,8.57,23z M0.025,16h6.353c0.041,2.152,0.345,4.183,0.859,6H1.552C0.638,20.184,0.099,18.153,0.025,16z
		 M1.552,9h5.686c-0.514,1.817-0.818,3.848-0.859,6H0.025C0.099,12.847,0.638,10.816,1.552,9z M20.43,8H15V2.048
		C17.261,2.346,19.236,4.632,20.43,8z M20.752,9c0.523,1.792,0.83,3.832,0.872,6H15V9H20.752z M14,8H8.57
		C9.765,4.632,11.739,2.346,14,2.048V8z M14,9v6H7.377c0.042-2.168,0.349-4.208,0.872-6H14z M7.377,16H14v6H8.249
		C7.726,20.209,7.419,18.168,7.377,16z M15,23h5.43c-1.194,3.368-3.169,5.654-5.43,5.952V23z M15,22v-6h6.623
		c-0.042,2.168-0.349,4.209-0.872,6H15z M22.622,15c-0.041-2.152-0.345-4.183-0.859-6h5.685c0.913,1.816,1.453,3.847,1.527,6H22.622
		z M14.5,1c5.259,0,9.85,2.809,12.392,7H21.45C20.022,3.812,17.445,1,14.5,1S8.978,3.812,7.55,8H2.108C4.65,3.809,9.241,1,14.5,1z
		 M14.5,30c-5.259,0-9.85-2.809-12.392-7H7.55C8.978,27.188,11.555,30,14.5,30s5.522-2.812,6.95-7h5.442
		C24.35,27.191,19.759,30,14.5,30z"/>
</g>
<g id="Suitcase">
</g>
<g id="Callendar">
</g>
<g id="Cloud_Off">
</g>
<g id="File_1">
</g>
<g id="File_2">
</g>
<g id="Folder">
</g>
<g id="Open_Folder">
</g>
<g id="Cloud">
</g>
<g id="Upload_Cloud">
</g>
<g id="Download_Cloud">
</g>
<g id="Eye">
</g>
<g id="Invisible">
</g>
<g id="Assignment">
</g>
<g id="Note_Book">
</g>
<g id="Webpage">
</g>
<g id="Mailbox">
</g>
<g id="Drive">
</g>
<g id="Disc">
</g>
<g id="Wifi_1">
</g>
<g id="Wifi_2">
</g>
<g id="Archive">
</g>
<g id="Archive_File">
</g>
<g id="News">
</g>
<g id="Home">
</g>
<g id="Collaboration">
</g>
<g id="Announcement">
</g>
<g id="Watch">
</g>
<g id="Clock">
</g>
<g id="Volume">
</g>
<g id="Mute">
</g>
<g id="Hand">
</g>
<g id="Layers">
</g>
<g id="Bell">
</g>
<g id="Speach_Bubble">
</g>
<g id="Speach_Bubbles">
</g>
<g id="Zoom_In">
</g>
<g id="Zoom_Out">
</g>
<g id="Search">
</g>
<g id="Back_Arrow">
</g>
<g id="Close">
</g>
<g id="Check_2">
</g>
<g id="Left_Arrow_2">
</g>
<g id="Right_Arrow_2">
</g>
</svg>
