<?xml version="1.0" encoding="iso-8859-1"?>
<!-- Generator: Adobe Illustrator 19.2.1, SVG Export Plug-In . SVG Version: 6.00 Build 0)  -->
<svg version="1.1" xmlns="http://www.w3.org/2000/svg" xmlns:xlink="http://www.w3.org/1999/xlink" x="0px" y="0px"
	 viewBox="0 0 24 24" style="enable-background:new 0 0 24 24;" xml:space="preserve">
<g id="Add_User">
</g>
<g id="Remove_User">
</g>
<g id="Delete_User">
</g>
<g id="Done">
</g>
<g id="At_Symbol">
</g>
<g id="Question">
</g>
<g id="Answer">
</g>
<g id="Bring_Up">
</g>
<g id="Bring_Down">
</g>
<g id="Dismiss_User">
</g>
<g id="User_Speed">
</g>
<g id="User_Settings">
</g>
<g id="User_Refresh">
</g>
<g id="User_Time">
</g>
<g id="Dollar">
</g>
<g id="Euro">
</g>
<g id="Pound">
</g>
<g id="Bitcoin">
</g>
<g id="Global_User">
</g>
<g id="Waiting_User">
</g>
<g id="Writing_User_2">
</g>
<g id="Search_User">
</g>
<g id="Lock_User">
</g>
<g id="Mark_User">
</g>
<g id="Share_User">
</g>
<g id="Shopping">
</g>
<g id="User_Download">
</g>
<g id="User_Upload">
</g>
<g id="User_Statistics">
</g>
<g id="User_Defense">
</g>
<g id="User_Car">
</g>
<g id="User_Home">
</g>
<g id="Park">
</g>
<g id="Recicle_User">
</g>
<g id="Wifi">
</g>
<g id="Attach_User">
</g>
<g id="Disabled_User">
</g>
<g id="User_Card">
</g>
<g id="Gaming">
</g>
<g id="User_Cloud">
</g>
<g id="User_Database">
</g>
<g id="Copyright">
</g>
<g id="No_Copyright">
</g>
<g id="Creative_Commun">
</g>
<g id="Eco-Friendly">
</g>
<g id="Percentage">
</g>
<g id="User_Love">
</g>
<g id="User_Place">
</g>
<g id="User_Key">
</g>
<g id="Sleeping">
</g>
<g id="Add_User_2">
</g>
<g id="Remove_User_2">
</g>
<g id="Delete_User_2">
</g>
<g id="Done_2">
</g>
<g id="At_Symbol_2">
</g>
<g id="Question_2">
</g>
<g id="Answer_2">
</g>
<g id="Bring_Up_2">
</g>
<g id="Bring_Down_2">
</g>
<g id="Dismiss_User_2">
</g>
<g id="User_Speed_2">
</g>
<g id="User_Settings_2">
</g>
<g id="Refresh_2">
</g>
<g id="Time_2">
</g>
<g id="Dollar_2">
</g>
<g id="Euro_2">
</g>
<g id="Pound_2">
</g>
<g id="Bitcoin_2">
</g>
<g id="Global_User_2">
	<g>
		<path d="M13,18.5c0,0.376,1.065,1.012,3.05,1.32C16.018,19.385,16,18.942,16,18.5s0.018-0.885,0.05-1.32
			C14.065,17.488,13,18.124,13,18.5z"/>
		<path d="M18.5,17c-0.517,0-0.989,0.026-1.437,0.063C17.026,17.511,17,17.983,17,18.5s0.026,0.989,0.063,1.437
			C17.511,19.974,17.983,20,18.5,20s0.989-0.026,1.437-0.063C19.974,19.489,20,19.017,20,18.5s-0.026-0.989-0.063-1.437
			C19.489,17.026,19.017,17,18.5,17z"/>
		<path d="M17.18,20.95C17.488,22.935,18.124,24,18.5,24s1.012-1.065,1.32-3.05C19.385,20.982,18.942,21,18.5,21
			S17.615,20.982,17.18,20.95z"/>
		<path d="M20.95,17.18C20.982,17.615,21,18.058,21,18.5s-0.018,0.885-0.05,1.32C22.935,19.512,24,18.876,24,18.5
			S22.935,17.488,20.95,17.18z"/>
		<path d="M13.218,20.018c0.522,1.813,1.951,3.241,3.763,3.763c-0.392-0.751-0.668-1.789-0.826-2.938
			C15.007,20.687,13.969,20.41,13.218,20.018z"/>
		<path d="M19.827,16.086C19.521,14.076,18.878,13,18.5,13s-1.021,1.076-1.327,3.086C18.047,16.024,18.953,16.024,19.827,16.086z"/>
		<path d="M20.019,23.782c1.812-0.522,3.241-1.951,3.763-3.763c-0.751,0.392-1.789,0.668-2.938,0.826
			C20.687,21.992,20.41,23.03,20.019,23.782z"/>
		<path d="M13.215,16.993c0.75-0.385,1.786-0.653,2.937-0.805c0.157-1.161,0.434-2.211,0.83-2.97
			C15.165,13.741,13.734,15.175,13.215,16.993z"/>
		<path d="M23.785,16.993c-0.519-1.818-1.95-3.252-3.766-3.775c0.395,0.758,0.673,1.809,0.83,2.97
			C21.998,16.34,23.035,16.608,23.785,16.993z"/>
		<path d="M12,18.5c0-2.179,1.086-4.203,2.904-5.413c0.064-0.042,0.118-0.1,0.156-0.167c0.292-0.508,0.439-0.986,0.439-1.419
			c0-0.354,0.105-0.5,0.121-0.515c0.156-0.039,0.283-0.15,0.343-0.299C16.02,10.549,16.5,9.323,16.5,8.5
			c0-0.041-0.005-0.082-0.015-0.121C16.431,8.16,16.277,7.839,16,7.651V5c0-1.611-0.492-2.272-1.011-2.655
			C14.892,1.569,14.06,0,11,0C7.902,0,6,2.912,6,5v2.651C5.723,7.839,5.569,8.16,5.515,8.379C5.505,8.418,5.5,8.459,5.5,8.5
			c0,0.823,0.48,2.049,0.536,2.186c0.06,0.149,0.147,0.248,0.304,0.287C6.395,11,6.5,11.146,6.5,11.5
			c0,0.95,0.713,2.006,1.478,2.708c-0.104,0.655-0.593,2.382-1.636,2.818l-4.438,1.479c-1.219,0.406-1.628,1.428-1.89,2.471
			C0.005,21.016,0,21.057,0,21.098V23.5C0,23.776,0.224,24,0.5,24h13.105c0.203,0,0.386-0.123,0.463-0.311s0.032-0.404-0.113-0.546
			C12.694,21.908,12,20.26,12,18.5z"/>
	</g>
</g>
<g id="Waiting_User_2">
</g>
<g id="Writing_User">
</g>
<g id="Search_User_2">
</g>
<g id="Lock_User_2">
</g>
<g id="Mark_User_2">
</g>
<g id="Share_User_2">
</g>
<g id="Shopping_2">
</g>
<g id="Download_2">
</g>
<g id="Upload_2">
</g>
<g id="User_Statistics_2">
</g>
<g id="User_Defense_2">
</g>
<g id="Car_2">
</g>
<g id="Home_2">
</g>
<g id="Park_2">
</g>
<g id="Recicle_User_2">
</g>
<g id="User_Wifi">
</g>
<g id="Attach_2">
</g>
<g id="Disabled_User_2">
</g>
<g id="User_Card_2">
</g>
<g id="Gaming_2">
</g>
<g id="Cloud_2">
</g>
<g id="Database_2">
</g>
<g id="Copyright_2">
</g>
<g id="No_Copyright_2">
</g>
<g id="Creative_Commun_2">
</g>
<g id="Eco-Friendly_2">
</g>
<g id="Percentage_2">
</g>
<g id="User_Love_2">
</g>
<g id="User_Rate_2">
</g>
<g id="User_Key_2">
</g>
<g id="Sleeping_2">
</g>
</svg>
