<?xml version="1.0" encoding="iso-8859-1"?>
<!-- Generator: Adobe Illustrator 19.2.1, SVG Export Plug-In . SVG Version: 6.00 Build 0)  -->
<svg version="1.1" xmlns="http://www.w3.org/2000/svg" xmlns:xlink="http://www.w3.org/1999/xlink" x="0px" y="0px"
	 viewBox="0 0 24 24" style="enable-background:new 0 0 24 24;" xml:space="preserve">
<g id="Sun_Light">
</g>
<g id="Sunglasses">
</g>
<g id="T-Shirt_1">
</g>
<g id="T-Shirt_2">
</g>
<g id="Mini_Dress">
</g>
<g id="Flip-Flops">
</g>
<g id="Temperature">
</g>
<g id="Hot_Temperature">
</g>
<g id="Ice_Lolly">
</g>
<g id="Icecream">
</g>
<g id="Limonade_1">
</g>
<g id="Limonade_2">
</g>
<g id="Hat">
</g>
<g id="Straw_Hat">
</g>
<g id="Deckchair">
</g>
<g id="Sunshade">
</g>
<g id="Suncream">
</g>
<g id="Suntan_Oil">
</g>
<g id="Swimming_Trunks">
</g>
<g id="Bikini">
</g>
<g id="Pool">
</g>
<g id="Pool_Ladder">
</g>
<g id="Grill">
	<path d="M15.528,14.951c1.786-1.16,2.972-3.168,2.972-5.451C18.5,9.224,18.276,9,18,9L7.816,8.997l8.613-5.151
		c0.002-0.001,0.003-0.003,0.005-0.005c0.001-0.001,0.002,0,0.003-0.001c0.721-0.45,1.945-1.344,2.06-2.279
		c0.034-0.274-0.161-0.523-0.436-0.557c-0.264-0.033-0.522,0.161-0.557,0.436c-0.036,0.294-0.522,0.804-1.202,1.287
		C15.082,1.016,13.152,0,11.024,0c-3.645,0-6.5,2.855-6.5,6.5c0,1.075,0.327,2.104,0.98,3.139c0.047,2.282,1.213,4.236,2.987,5.355
		l-1.242,3.186c-0.072,0.085-0.12,0.192-0.122,0.313l-0.589,1.511C6.525,20.004,6.513,20,6.5,20c-1.103,0-2,0.897-2,2s0.897,2,2,2
		s2-0.897,2-2c0-0.735-0.403-1.372-0.996-1.72L8.003,19h7.887l1.639,4.666C17.601,23.871,17.794,24,18,24
		c0.055,0,0.111-0.009,0.166-0.028c0.26-0.092,0.397-0.377,0.306-0.638L15.528,14.951z M8.393,18l0.988-2.534
		C10.179,15.808,11.062,16,12,16c0.939,0,1.831-0.205,2.638-0.565L15.539,18H8.393z"/>
</g>
<g id="Kite_1">
</g>
<g id="Kite_2">
</g>
<g id="Badminton">
</g>
<g id="Cooler">
</g>
<g id="Strand_Bag">
</g>
<g id="Towel">
</g>
<g id="Strand_Ball">
</g>
<g id="Beach_Sign">
</g>
<g id="Toos">
</g>
<g id="Bucket">
</g>
<g id="Sand_Castle">
</g>
<g id="Shell_1">
</g>
<g id="Shell_2">
</g>
<g id="Surf_Board">
</g>
<g id="Float">
</g>
<g id="Vacation_Photo">
</g>
<g id="Summer_Time">
</g>
<g id="Boat">
</g>
<g id="Lifebuoy">
</g>
<g id="Lighthouse">
</g>
<g id="Sunset">
</g>
<g id="Dolphin">
</g>
<g id="Starfish">
</g>
<g id="Diving_Mask">
</g>
<g id="Sailboat">
</g>
<g id="Captin_Hat">
</g>
<g id="Eudder">
</g>
</svg>
