<?xml version="1.0" encoding="iso-8859-1"?>
<!-- Generator: Adobe Illustrator 19.2.1, SVG Export Plug-In . SVG Version: 6.00 Build 0)  -->
<svg version="1.1" xmlns="http://www.w3.org/2000/svg" xmlns:xlink="http://www.w3.org/1999/xlink" x="0px" y="0px"
	 viewBox="0 0 24 24" style="enable-background:new 0 0 24 24;" xml:space="preserve">
<g id="Pompkin">
</g>
<g id="Layer_10">
</g>
<g id="Bat">
</g>
<g id="Ghost">
</g>
<g id="Bone_Hand">
</g>
<g id="Tree_Ghost">
</g>
<g id="Gate">
</g>
<g id="Cemetery_1">
</g>
<g id="Cemetery_2">
</g>
<g id="Devil_x27_s_Fork">
</g>
<g id="Night_Candle">
</g>
<g id="Canlestick">
</g>
<g id="Black_Cat">
</g>
<g id="Witch_Cauldron">
</g>
<g id="Corn_Candy">
</g>
<g id="Layer_29">
</g>
<g id="Bones">
</g>
<g id="Witch_Broom">
</g>
<g id="Owl">
</g>
<g id="Scythe">
</g>
<g id="Grim_Reaper">
	<g>
		<path d="M4.495,10.969c0.084,0,0.169-0.021,0.248-0.066c0.24-0.137,0.323-0.442,0.186-0.682L2.927,6.719
			c0.007-0.012,0.013-0.024,0.019-0.036C4.869,2.62,16.127,1.806,22.482,1.969c0.304,0.014,0.484-0.189,0.51-0.449
			c0.026-0.26-0.151-0.497-0.408-0.543C6.35-1.967,0.415,2.881,0.171,3.088c-0.184,0.156-0.23,0.42-0.11,0.629l4,7
			C4.152,10.879,4.321,10.969,4.495,10.969z"/>
		<path d="M23.441,21.511c-0.563-1.422-1.335-3.369-1.447-5.567c-0.235-4.63-2.751-11.975-8.5-11.975
			c-5.904,0-8.309,8.223-8.5,11.975c-0.112,2.198-0.883,4.145-1.447,5.567c-0.405,1.021-0.649,1.638-0.539,2.08
			c0.056,0.223,0.255,0.379,0.485,0.379h20c0.229,0,0.429-0.156,0.485-0.379C24.09,23.148,23.845,22.532,23.441,21.511z
			 M16.994,16.688v1.781c0,0.276-0.224,0.5-0.5,0.5h-1.5v-0.5c0-0.276-0.224-0.5-0.5-0.5s-0.5,0.224-0.5,0.5v0.5h-1v-0.5
			c0-0.276-0.224-0.5-0.5-0.5s-0.5,0.224-0.5,0.5v0.5h-1.5c-0.276,0-0.5-0.224-0.5-0.5v-1.781c-1.274-1.054-2-2.578-2-4.219
			c0-3.033,2.467-5.5,5.5-5.5s5.5,2.467,5.5,5.5C18.994,14.111,18.269,15.635,16.994,16.688z"/>
		<path d="M15.928,11.969c-0.771,0-1.833,0.8-1.928,1.45c-0.059,0.403,0.049,0.788,0.305,1.083c0.276,0.319,0.707,0.503,1.181,0.503
			c0.382,0,0.749-0.19,1.033-0.537c0.367-0.446,0.547-1.082,0.449-1.581C16.854,12.312,16.465,11.969,15.928,11.969z"/>
		<path d="M11.048,11.969c-0.54,0-0.93,0.343-1.044,0.917c-0.099,0.496,0.08,1.129,0.446,1.576c0.287,0.35,0.658,0.543,1.044,0.543
			c0.479,0,0.913-0.185,1.191-0.506c0.255-0.295,0.363-0.679,0.304-1.081C12.894,12.768,11.823,11.969,11.048,11.969z"/>
	</g>
</g>
<g id="Coffin">
</g>
<g id="Dracula">
</g>
<g id="Frankenstein">
</g>
<g id="Layer_40">
</g>
<g id="Toilet_Paper">
</g>
<g id="Skull">
</g>
<g id="Skull_Cake">
</g>
<g id="Eyeball">
</g>
<g id="Castle">
</g>
<g id="Witch_x27_s_Hat">
</g>
<g id="Cobweb_1">
</g>
<g id="Cobweb_2">
</g>
<g id="Spider">
</g>
<g id="Full_Moon">
</g>
<g id="Crescent">
</g>
<g id="Crow">
</g>
<g id="Candy_Holder">
</g>
<g id="Bloody_Knife">
</g>
<g id="Bloody_Axe">
</g>
</svg>
