<?xml version="1.0" encoding="iso-8859-1"?>
<!-- Generator: Adobe Illustrator 19.2.1, SVG Export Plug-In . SVG Version: 6.00 Build 0)  -->
<svg version="1.1" xmlns="http://www.w3.org/2000/svg" xmlns:xlink="http://www.w3.org/1999/xlink" x="0px" y="0px"
	 viewBox="0 0 30 30" style="enable-background:new 0 0 30 30;" xml:space="preserve">
<g id="Egg">
</g>
<g id="Easter_Egg_1">
</g>
<g id="Easter_Egg_2">
</g>
<g id="Easter_Egg_3_1_">
</g>
<g id="Eggs_1_1_">
</g>
<g id="Eggs_2">
</g>
<g id="Bunny_1_">
</g>
<g id="Sheep_1_">
</g>
<g id="Bell_Alarm">
</g>
<g id="Calendar">
</g>
<g id="Tulip">
</g>
<g id="Chicken">
</g>
<g id="Chicken_2_1_">
</g>
<g id="Baguette_1_">
</g>
<g id="Ham_1_">
	<g id="Ham">
		<g>
			<path d="M14.37,11.087c-0.276,0-0.5-0.224-0.5-0.5s0.224-0.5,0.5-0.5c2.402,0,3.932-1.555,6.981-4.651
				c0.461-0.468,0.956-0.971,1.491-1.506c1.069-1.069,1.114-1.438,1.114-2.168C23.957,0.56,25.383,0,26.348,0
				c1.587,0,2.392,0.805,2.392,2.391c0,0.276-0.224,0.5-0.5,0.5s-0.5-0.224-0.5-0.5c0-1.287-0.63-1.391-1.392-1.391
				c-0.472,0-1.391,0.269-1.391,0.761c0,1.036-0.195,1.664-1.407,2.875c-0.534,0.534-1.026,1.034-1.486,1.501
				C18.921,9.329,17.19,11.087,14.37,11.087z"/>
		</g>
		<g>
			<path d="M21.935,17.392c-0.276,0-0.5-0.224-0.5-0.5l-0.005-0.706c-0.03-2.823-0.06-5.741,3.934-9.735
				c0.913-0.913,1.542-1.407,2.245-1.407C27.751,5.043,29,5.022,29,4.283c0-0.78-0.334-1.392-0.761-1.392
				c-0.148,0-0.179,0.033-0.308,0.171c-0.161,0.172-0.43,0.46-0.953,0.46c-0.276,0-0.5-0.224-0.5-0.5s0.224-0.5,0.5-0.5
				c0.082,0,0.093-0.004,0.223-0.143c0.17-0.183,0.456-0.488,1.038-0.488C29.243,1.891,30,2.919,30,4.283
				c0,1.216-1.201,1.761-2.391,1.761c-0.372,0-0.959,0.536-1.538,1.114c-3.697,3.697-3.67,6.281-3.641,9.017l0.005,0.717
				C22.435,17.168,22.211,17.392,21.935,17.392z"/>
		</g>
		<g>
			<path d="M12.74,29.998c-0.8,0-1.617-0.063-2.375-0.166c-3.12-0.424-5.831-1.525-7.251-2.945c-1.494-1.493-2.537-3.27-2.937-4.999
				c-0.42-1.815-0.091-3.375,0.927-4.393c1.018-1.019,2.579-1.347,4.393-0.928c1.73,0.4,3.505,1.443,4.999,2.938l0,0
				c0.623,0.622,1.343,1.279,2.105,1.975c2.471,2.253,4.804,4.381,4.844,6.116c0.012,0.503-0.165,0.94-0.525,1.301
				C16.109,29.706,14.463,29.998,12.74,29.998z M4.025,17.391c-0.914,0-1.678,0.275-2.214,0.812c-0.765,0.765-1,1.993-0.66,3.46
				c0.359,1.55,1.307,3.154,2.67,4.518c1.252,1.252,3.812,2.271,6.679,2.662c2.624,0.356,4.972,0.088,5.712-0.652
				c0.164-0.164,0.238-0.346,0.233-0.57c-0.03-1.309-2.519-3.578-4.518-5.401c-0.771-0.703-1.5-1.367-2.138-2.006l0,0
				c-1.363-1.363-2.967-2.312-4.518-2.67C4.832,17.44,4.415,17.391,4.025,17.391z"/>
		</g>
		<g>
			<path d="M6.804,24.956c-0.971,0-1.761-0.79-1.761-1.761s0.79-1.761,1.761-1.761c0.971,0,1.761,0.79,1.761,1.761
				S7.775,24.956,6.804,24.956z M6.804,22.435c-0.419,0-0.761,0.341-0.761,0.761s0.341,0.761,0.761,0.761
				c0.42,0,0.761-0.341,0.761-0.761S7.224,22.435,6.804,22.435z"/>
		</g>
		<g>
			<path d="M16.261,29.369c-0.179,0-0.352-0.096-0.442-0.265c-0.13-0.244-0.038-0.547,0.206-0.677
				c7.915-4.221,6.156-9.243,5.577-10.894c-0.067-0.193-0.116-0.332-0.143-0.449c-1.249-1.756-4.762-5.998-7.09-5.998
				c-5.929,0-11.314,3.649-12.44,6.924c-0.09,0.262-0.375,0.399-0.635,0.311c-0.261-0.09-0.4-0.374-0.31-0.635
				c1.261-3.67,6.941-7.6,13.385-7.6c3.374,0,7.788,6.252,7.975,6.518c0.059,0.084,0.09,0.185,0.09,0.287
				c0.01,0.034,0.056,0.151,0.112,0.312c1.74,4.965-0.296,9.038-6.05,12.107C16.421,29.351,16.34,29.369,16.261,29.369z"/>
		</g>
	</g>
</g>
<g id="Bell_2">
</g>
<g id="Bell_3">
</g>
<g id="Bell_4">
</g>
<g id="Easter_celebration">
</g>
<g id="Egg_painting">
</g>
<g id="Easter_willow">
</g>
<g id="Daffodil">
</g>
<g id="Easter_message">
</g>
<g id="Bunny_2">
</g>
<g id="Chicken_3">
</g>
<g id="Tulip_2">
</g>
<g id="Easter_basket">
</g>
<g id="Bread_and_wine">
</g>
<g id="Sheep_2">
</g>
<g id="Candle_Light">
</g>
</svg>
