<?xml version="1.0" encoding="iso-8859-1"?>
<!-- Generator: Adobe Illustrator 19.2.1, SVG Export Plug-In . SVG Version: 6.00 Build 0)  -->
<svg version="1.1" xmlns="http://www.w3.org/2000/svg" xmlns:xlink="http://www.w3.org/1999/xlink" x="0px" y="0px"
	 viewBox="0 0 30 30" style="enable-background:new 0 0 30 30;" xml:space="preserve">
<g id="Credit_Card">
</g>
<g id="Banknote">
</g>
<g id="Wallet">
</g>
<g id="Compass">
</g>
<g id="Camera_1">
</g>
<g id="Photo">
</g>
<g id="Picture">
</g>
<g id="Camera_2">
</g>
<g id="No_Camera">
</g>
<g id="Video">
</g>
<g id="Audio">
</g>
<g id="Microphone_1">
</g>
<g id="Microphone_2">
</g>
<g id="No_Microphone">
</g>
<g id="Shopping_Cart">
</g>
<g id="Add_Shopping_Cart">
</g>
<g id="Remove_Shopping_Cart">
</g>
<g id="Shopping_Basket">
</g>
<g id="Jing-Jang">
</g>
<g id="Leaf">
</g>
<g id="Glass">
</g>
<g id="Cup">
</g>
<g id="Mug">
</g>
<g id="Refresh">
</g>
<g id="Login">
</g>
<g id="Logout">
</g>
<g id="Flowchart">
</g>
<g id="Pin_1">
</g>
<g id="Pin_2">
</g>
<g id="User_1">
</g>
<g id="User_2">
</g>
<g id="Users">
</g>
<g id="Adjustments">
</g>
<g id="Type">
</g>
<g id="Format_Size">
</g>
<g id="Menu_1">
</g>
<g id="Other">
</g>
<g id="Flash">
</g>
<g id="No_Flash">
</g>
<g id="Switch_Button_1">
</g>
<g id="Switch_Button_2">
</g>
<g id="Cut">
</g>
<g id="Crop">
</g>
<g id="Sun">
</g>
<g id="USB">
</g>
<g id="Pie_Chart_1">
</g>
<g id="Pie_Chart_2">
</g>
<g id="Line_Chart">
</g>
<g id="Bar_Chart">
</g>
<g id="Target">
</g>
<g id="Flashlight">
</g>
<g id="USB_Device">
</g>
<g id="Eject">
</g>
<g id="Lightbulb">
</g>
<g id="Information">
</g>
<g id="Deactivate_Protection">
</g>
<g id="Active_Protection">
</g>
<g id="Bug">
</g>
<g id="Protection">
</g>
<g id="Phone">
</g>
<g id="List">
</g>
<g id="Plugin_1">
</g>
<g id="Bookmarrk">
</g>
<g id="Handshake">
	<g>
		<path d="M29.709,2.045c-0.18-0.081-0.387-0.052-0.535,0.075l-4.303,3.695c-2.189,0.303-3.768-0.217-5.162-0.678
			c-0.951-0.314-1.851-0.611-2.817-0.611c-1.663,0-2.886,0.805-3.966,1.515c-0.24,0.158-0.474,0.312-0.705,0.451
			c-0.035,0.021-0.068,0.046-0.097,0.076L8.785,9.914c-0.794,0.795-0.99,2.006-0.488,3.012c0.444,0.89,1.337,1.443,2.331,1.443
			h0.505c0.598,0,1.181-0.207,1.643-0.583c0.243-0.198,0.523-0.433,0.823-0.685c1.024-0.858,2.387-2,3.208-2.434l9.213,8
			c0.094,0.081,0.211,0.122,0.328,0.122c0.089,0,0.178-0.023,0.258-0.071l3.152-1.895C29.908,16.732,30,16.57,30,16.395V2.5
			C30,2.305,29.887,2.127,29.709,2.045z"/>
		<path d="M14.87,22.299V22.05c0-0.956-0.777-1.734-1.775-1.734c-0.272,0-0.537,0.065-0.776,0.185
			c-0.138-0.82-0.85-1.448-1.746-1.448c-0.271,0-0.537,0.065-0.775,0.184c-0.138-0.82-0.85-1.448-1.746-1.448
			c-0.272,0-0.537,0.065-0.776,0.185c-0.137-0.82-0.846-1.448-1.703-1.448c-0.581,0-1.12,0.289-1.441,0.772l-0.688,1.034
			c-0.19,0.285-0.291,0.618-0.291,0.962v0.287c0,0.956,0.777,1.733,1.732,1.733c0.054,0,0.106-0.015,0.159-0.02v0.181
			c0,0.956,0.777,1.734,1.775,1.734c0.272,0,0.537-0.065,0.776-0.185c0.138,0.82,0.85,1.448,1.746,1.448
			c0.272,0,0.537-0.065,0.776-0.184c0.138,0.82,0.85,1.448,1.746,1.448c0.542,0,1.06-0.26,1.386-0.694l1.275-1.703
			C14.747,23.041,14.87,22.672,14.87,22.299z"/>
		<path d="M15.495,23.666c-0.053,0.093-0.106,0.186-0.171,0.272l-0.907,1.21l0.662,0.616c0.313,0.313,0.803,0.3,1.088,0.013
			c0.357-0.357,0.51-1.048,0.291-1.29L15.495,23.666z"/>
		<path d="M25.365,19.424l-8.656-7.517c-0.75,0.522-1.75,1.359-2.465,1.958c-0.307,0.257-0.59,0.495-0.837,0.695
			c-0.64,0.521-1.448,0.808-2.275,0.808h-0.505c-1.375,0-2.611-0.765-3.226-1.997c-0.694-1.39-0.423-3.064,0.675-4.165l3.339-3.346
			C11.49,5.787,11.58,5.72,11.674,5.66C9.83,5.432,7.772,5.509,5.525,5.906C4.304,6.121,2.53,5.681,1.579,4.887L0.82,4.254
			C0.495,3.982,0,4.214,0,4.638v10.826c0,0.394,0.232,0.752,0.592,0.913l2.275,1.018l0.432-0.649
			c0.507-0.763,1.357-1.219,2.273-1.219c0.961,0,1.817,0.497,2.304,1.269c1.039-0.072,1.995,0.445,2.519,1.264
			c1.041-0.068,1.997,0.444,2.521,1.263c1.582-0.106,2.955,1.162,2.955,2.729v0.249c0,0.117-0.013,0.233-0.028,0.348l1.895,1.616
			c0.378,0.303,0.866,0.475,1.363,0.475c0.593,0,1.074-0.483,1.074-1.077c0-0.321-0.141-0.623-0.387-0.828l-5.738-4.79
			c-0.212-0.177-0.241-0.492-0.063-0.704c0.176-0.211,0.492-0.241,0.704-0.063l7.088,5.917c0.218,0.183,0.493,0.282,0.777,0.282
			h0.187c0.669,0,1.214-0.546,1.214-1.218c0-0.367-0.159-0.708-0.437-0.939l-6.948-5.801c-0.212-0.177-0.24-0.492-0.063-0.704
			c0.178-0.212,0.493-0.24,0.704-0.063l7.085,5.915c0.22,0.185,0.498,0.285,0.785,0.285h0.169c0.657,0,1.185-0.523,1.216-1.174
			c-0.04,0.003-0.079,0.016-0.12,0.016C25.987,19.789,25.639,19.659,25.365,19.424z"/>
	</g>
</g>
<g id="Minimize">
</g>
<g id="Maximize">
</g>
<g id="Diamond">
</g>
<g id="Stop">
</g>
<g id="Shuffle">
</g>
<g id="Undo">
</g>
<g id="Upgrade">
</g>
<g id="Coding">
</g>
<g id="Syncronizaion">
</g>
<g id="Radio">
</g>
<g id="Presentation">
</g>
<g id="Door">
</g>
<g id="Thumbs_Up">
</g>
<g id="Thumbs_Down">
</g>
<g id="Keyboard">
</g>
<g id="_x33_D_Cube">
</g>
<g id="Signal">
</g>
<g id="Dice">
</g>
<g id="Upload">
</g>
<g id="Download">
</g>
<g id="Plugin_2">
</g>
<g id="Shopping_Bag">
</g>
<g id="Lifebelt">
</g>
<g id="Glasses">
</g>
<g id="Parabolic_Antenna">
</g>
<g id="Loudspeaker">
</g>
<g id="Play">
</g>
<g id="Pause">
</g>
<g id="Signpost">
</g>
<g id="Bluetooth">
</g>
<g id="Present">
</g>
<g id="Ruler">
</g>
<g id="Connection">
</g>
<g id="Money">
</g>
<g id="Paper_Plane">
</g>
<g id="Wallet_2">
</g>
</svg>
