<?xml version="1.0" encoding="iso-8859-1"?>
<!-- Generator: Adobe Illustrator 19.2.1, SVG Export Plug-In . SVG Version: 6.00 Build 0)  -->
<svg version="1.1" xmlns="http://www.w3.org/2000/svg" xmlns:xlink="http://www.w3.org/1999/xlink" x="0px" y="0px"
	 viewBox="0 0 30 30" style="enable-background:new 0 0 30 30;" xml:space="preserve">
<g id="Engagement_1">
</g>
<g id="Engagement_2">
</g>
<g id="Wedding_Ring">
</g>
<g id="Church">
</g>
<g id="Church_Bells">
</g>
<g id="Wedding_Altar_1">
</g>
<g id="Wedding_Altar_2">
</g>
<g id="Bow-Tie">
</g>
<g id="Wedding_Tiara">
</g>
<g id="Wedding_Bouquet">
</g>
<g id="Wedding_Decoration_1">
</g>
<g id="Wedding_Decoration_2">
</g>
<g id="Wedding_Way_Sign">
</g>
<g id="Wedding_Date">
</g>
<g id="Wedding_Invitation">
</g>
<g id="Wedding_Invitation_2">
</g>
<g id="Bride">
</g>
<g id="Groom">
</g>
<g id="Mariage_Couple">
</g>
<g id="Wedding_Planner_Book">
</g>
<g id="Wedding_Cake_1">
</g>
<g id="Wedding_Cake_2">
</g>
<g id="Wedding_Cake_3">
</g>
<g id="Cake_Slice">
</g>
<g id="Marriage_Settlement">
</g>
<g id="Glass_Decoration">
</g>
<g id="Cutlery_Decoration">
</g>
<g id="Celebration_Glasses">
</g>
<g id="Wedding_Photo">
</g>
<g id="Wedding_Present_1">
</g>
<g id="Wedding_Present_2">
</g>
<g id="Wedding_Bouquet_2">
</g>
<g id="Hands_with_rings">
	<path d="M26.187,15.154c2.967-3.338,2.862-8.464-0.336-11.662c-3.205-3.204-8.343-3.304-11.68-0.319
		c-3.337-2.985-8.476-2.884-11.68,0.319c-3.317,3.317-3.317,8.715,0,12.033l0.03,0.03c-0.536,0.066-1.052,0.286-1.445,0.679
		c-0.473,0.472-0.733,1.101-0.733,1.769s0.261,1.297,0.733,1.77s1.101,0.733,1.769,0.733c0.124,0,0.245-0.018,0.366-0.036
		c-0.111,0.756,0.116,1.554,0.696,2.134c0.488,0.487,1.129,0.731,1.77,0.731c0.122,0,0.244-0.017,0.365-0.035
		c-0.018,0.12-0.036,0.241-0.036,0.365c0,0.668,0.26,1.297,0.733,1.77s1.101,0.733,1.77,0.733c0.124,0,0.245-0.018,0.366-0.036
		c-0.111,0.756,0.116,1.554,0.696,2.134c0.488,0.487,1.129,0.731,1.77,0.731s1.281-0.244,1.769-0.731
		c0.4-0.4,0.627-0.904,0.699-1.426l0.482,0.482c0.488,0.488,1.128,0.731,1.77,0.731c0.641,0,1.282-0.243,1.77-0.731
		c0.578-0.579,0.813-1.372,0.706-2.125c0.752,0.105,1.546-0.129,2.125-0.706c0.578-0.578,0.814-1.372,0.707-2.125
		c0.747,0.105,1.547-0.128,2.125-0.707s0.813-1.372,0.706-2.125c0.753,0.104,1.546-0.128,2.125-0.706
		c0.976-0.976,0.976-2.563,0-3.539L26.187,15.154z M25.145,4.199c2.807,2.808,2.914,7.301,0.336,10.248l-7.963-7.963
		C17.489,6.456,17.453,6.44,17.42,6.42c-0.02-0.033-0.035-0.068-0.064-0.096c-0.195-0.195-0.512-0.195-0.707,0l-4.905,4.905
		c-0.356,0.356-0.863,0.508-1.357,0.411c-0.553-0.11-0.98-0.499-1.143-1.038S9.222,9.503,9.62,9.104l4.905-4.905
		C17.453,1.271,22.217,1.272,25.145,4.199z M5.353,18.386c-0.014,0.002-0.028,0.002-0.043,0.004
		c0.002-0.014,0.002-0.028,0.004-0.042L5.353,18.386z M1.784,19.065c-0.284-0.284-0.44-0.661-0.44-1.063s0.157-0.778,0.44-1.062
		c0.284-0.284,0.661-0.44,1.062-0.44s0.778,0.156,1.062,0.44c0.284,0.283,0.44,0.66,0.44,1.062s-0.157,0.778-0.44,1.063
		C3.34,19.634,2.351,19.634,1.784,19.065z M4.615,21.897c-0.585-0.586-0.585-1.539,0-2.125c0.566-0.568,1.557-0.569,2.125,0
		c0.586,0.586,0.586,1.539,0,2.125C6.154,22.481,5.201,22.481,4.615,21.897z M8.185,21.218C8.17,21.22,8.156,21.22,8.141,21.222
		c0.002-0.015,0.002-0.029,0.004-0.044L8.185,21.218z M11.016,24.049c-0.014,0.002-0.028,0.002-0.043,0.004
		c0.002-0.014,0.002-0.028,0.004-0.042L11.016,24.049z M7.446,24.729c-0.284-0.284-0.44-0.661-0.44-1.063s0.156-0.778,0.44-1.062
		c0.566-0.568,1.556-0.569,2.125,0c0.284,0.283,0.44,0.66,0.44,1.062s-0.157,0.778-0.44,1.063
		C9.003,25.298,8.015,25.297,7.446,24.729z M12.402,27.561c-0.585,0.584-1.539,0.584-2.125,0c-0.585-0.586-0.585-1.539,0-2.125
		c0.566-0.569,1.556-0.569,2.125,0C12.988,26.021,12.988,26.975,12.402,27.561z M25.616,18.122c-0.586,0.584-1.538,0.586-2.124,0
		l-1.416-1.416c-0.195-0.195-0.512-0.195-0.707,0c-0.098,0.098-0.146,0.226-0.146,0.354s0.049,0.256,0.146,0.354l1.416,1.416
		c0.585,0.585,0.585,1.538,0,2.124c-0.586,0.586-1.539,0.586-2.125,0l-1.416-1.416c-0.195-0.195-0.512-0.195-0.707,0
		c-0.098,0.098-0.146,0.226-0.146,0.354s0.049,0.256,0.146,0.354l0.179,0.179c-0.193-0.106-0.434-0.083-0.594,0.082l-1.296,1.335
		c-0.192,0.198-0.188,0.515,0.01,0.707c0.098,0.095,0.223,0.142,0.349,0.142c0.131,0,0.261-0.051,0.358-0.151l1.296-1.335
		c0.155-0.16,0.176-0.393,0.077-0.58l1.037,1.037c0.586,0.586,0.586,1.539,0,2.125s-1.538,0.586-2.124,0l-1.416-1.416
		c-0.195-0.195-0.512-0.195-0.707,0c-0.098,0.098-0.146,0.226-0.146,0.354s0.049,0.256,0.146,0.354l1.416,1.416
		c0.585,0.585,0.585,1.538,0,2.124c-0.586,0.586-1.539,0.586-2.125,0L3.199,14.818c-2.927-2.928-2.927-7.691,0-10.619
		c2.808-2.808,7.302-2.915,10.248-0.336L8.913,8.397C8.25,9.061,8.016,9.994,8.288,10.892c0.272,0.898,0.984,1.544,1.904,1.728
		c0.823,0.165,1.667-0.091,2.26-0.684l4.552-4.552l8.613,8.613C26.202,16.583,26.202,17.536,25.616,18.122z"/>
</g>
<g id="Wedding_Car">
</g>
<g id="Wedding_music">
</g>
<g id="wedding_party">
</g>
<g id="Confetti_1">
</g>
<g id="Confetti_2">
</g>
</svg>
