<?xml version="1.0" encoding="iso-8859-1"?>
<!-- Generator: Adobe Illustrator 19.2.1, SVG Export Plug-In . SVG Version: 6.00 Build 0)  -->
<svg version="1.1" xmlns="http://www.w3.org/2000/svg" xmlns:xlink="http://www.w3.org/1999/xlink" x="0px" y="0px"
	 viewBox="0 0 30 30" style="enable-background:new 0 0 30 30;" xml:space="preserve">
<g id="Credit_Card">
</g>
<g id="Banknote">
</g>
<g id="Wallet">
</g>
<g id="Compass">
</g>
<g id="Camera_1">
</g>
<g id="Photo">
</g>
<g id="Picture">
</g>
<g id="Camera_2">
</g>
<g id="No_Camera">
</g>
<g id="Video">
</g>
<g id="Audio">
</g>
<g id="Microphone_1">
</g>
<g id="Microphone_2">
</g>
<g id="No_Microphone">
</g>
<g id="Shopping_Cart">
</g>
<g id="Add_Shopping_Cart">
</g>
<g id="Remove_Shopping_Cart">
</g>
<g id="Shopping_Basket">
</g>
<g id="Jing-Jang">
</g>
<g id="Leaf">
</g>
<g id="Glass">
</g>
<g id="Cup">
</g>
<g id="Mug">
</g>
<g id="Refresh">
</g>
<g id="Login">
</g>
<g id="Logout">
</g>
<g id="Flowchart">
</g>
<g id="Pin_1">
</g>
<g id="Pin_2">
</g>
<g id="User_1">
</g>
<g id="User_2">
</g>
<g id="Users">
</g>
<g id="Adjustments">
</g>
<g id="Type">
</g>
<g id="Format_Size">
</g>
<g id="Menu_1">
</g>
<g id="Other">
</g>
<g id="Flash">
</g>
<g id="No_Flash">
</g>
<g id="Switch_Button_1">
</g>
<g id="Switch_Button_2">
</g>
<g id="Cut">
</g>
<g id="Crop">
</g>
<g id="Sun">
</g>
<g id="USB">
</g>
<g id="Pie_Chart_1">
</g>
<g id="Pie_Chart_2">
</g>
<g id="Line_Chart">
</g>
<g id="Bar_Chart">
</g>
<g id="Target">
</g>
<g id="Flashlight">
</g>
<g id="USB_Device">
</g>
<g id="Eject">
</g>
<g id="Lightbulb">
</g>
<g id="Information">
</g>
<g id="Deactivate_Protection">
</g>
<g id="Active_Protection">
</g>
<g id="Bug">
</g>
<g id="Protection">
</g>
<g id="Phone">
</g>
<g id="List">
</g>
<g id="Plugin_1">
</g>
<g id="Bookmarrk">
</g>
<g id="Handshake">
	<g>
		<g>
			<path d="M3.652,18.789c-0.088,0-0.176-0.023-0.257-0.071l-3.152-1.895c-0.237-0.143-0.313-0.449-0.171-0.687
				c0.142-0.238,0.448-0.313,0.686-0.171L3.91,17.86c0.237,0.143,0.313,0.449,0.171,0.687C3.987,18.703,3.822,18.789,3.652,18.789z"
				/>
		</g>
		<g>
			<path d="M14.138,6.16c-0.048,0-0.098-0.007-0.146-0.021c-2.258-0.692-4.944-0.798-7.984-0.313
				c-1.23,0.191-2.48-0.146-3.429-0.939L0.18,2.884C-0.032,2.707-0.061,2.392,0.116,2.18C0.292,1.969,0.608,1.938,0.82,2.116
				L3.22,4.119c0.727,0.606,1.684,0.872,2.632,0.719c3.19-0.506,6.028-0.392,8.433,0.344c0.264,0.081,0.413,0.36,0.332,0.625
				C14.55,6.021,14.353,6.16,14.138,6.16z"/>
		</g>
		<g>
			<path d="M19.1,25.737c-0.724,0-1.434-0.25-2-0.703l-3.054-2.604c-0.21-0.18-0.235-0.495-0.056-0.705
				c0.179-0.21,0.496-0.235,0.705-0.057l3.042,2.594c0.378,0.303,0.866,0.475,1.363,0.475c0.592,0,1.074-0.483,1.074-1.077
				c0-0.321-0.141-0.623-0.387-0.828l-5.738-4.79c-0.212-0.177-0.241-0.492-0.063-0.704c0.176-0.212,0.493-0.241,0.704-0.063
				l7.088,5.917c0.218,0.182,0.494,0.282,0.777,0.282h0.186c0.67,0,1.215-0.546,1.215-1.218c0-0.366-0.16-0.707-0.438-0.939
				l-6.948-5.801c-0.212-0.177-0.241-0.492-0.063-0.704c0.176-0.211,0.492-0.24,0.704-0.063l7.085,5.914
				c0.22,0.184,0.499,0.285,0.786,0.285h0.169c0.677,0,1.227-0.552,1.227-1.23c0-0.363-0.154-0.702-0.424-0.937l-9.493-8.325
				c-0.208-0.183-0.229-0.498-0.046-0.706c0.183-0.207,0.499-0.227,0.706-0.046l9.491,8.324c0.486,0.423,0.766,1.037,0.766,1.684
				c0,1.235-0.999,2.236-2.227,2.236h-0.169c-0.049,0-0.098-0.002-0.147-0.005c0.014,0.102,0.021,0.205,0.021,0.31
				c0,1.227-0.994,2.222-2.215,2.222h-0.186c-0.512,0-1.01-0.179-1.405-0.504C21.001,24.969,20.138,25.737,19.1,25.737z"/>
		</g>
		<g>
			<path d="M15.63,27c-0.471,0-0.913-0.184-1.246-0.517l-1.617-1.513c-0.202-0.188-0.212-0.505-0.024-0.707
				c0.189-0.203,0.505-0.212,0.707-0.023l1.63,1.524c0.313,0.313,0.801,0.3,1.087,0.013c0.362-0.362,0.515-1.066,0.282-1.299
				c-0.195-0.195-0.195-0.512,0-0.707s0.512-0.195,0.707,0c0.752,0.753,0.343,2.087-0.281,2.712C16.544,26.816,16.102,27,15.63,27z"
				/>
		</g>
		<g>
			<path d="M26.348,18.789c-0.17,0-0.335-0.086-0.429-0.242c-0.142-0.237-0.065-0.544,0.171-0.687l3.152-1.895
				c0.235-0.142,0.543-0.067,0.686,0.171c0.142,0.237,0.065,0.544-0.171,0.687l-3.152,1.895
				C26.524,18.766,26.436,18.789,26.348,18.789z"/>
		</g>
		<g>
			<path d="M11.132,14.368h-0.505c-0.994,0-1.887-0.553-2.331-1.443c-0.502-1.006-0.306-2.216,0.488-3.012l3.339-3.346
				c0.029-0.028,0.062-0.054,0.097-0.075c0.231-0.139,0.466-0.293,0.707-0.452c1.079-0.709,2.302-1.514,3.964-1.514
				c0.967,0,1.866,0.297,2.818,0.611c1.391,0.46,2.965,0.979,5.163,0.678l4.303-3.694c0.209-0.179,0.525-0.155,0.705,0.053
				c0.18,0.21,0.156,0.525-0.054,0.705l-4.413,3.789c-0.071,0.062-0.158,0.102-0.25,0.115c-2.505,0.382-4.238-0.19-5.767-0.696
				c-0.911-0.301-1.698-0.561-2.504-0.561c-1.362,0-2.405,0.687-3.414,1.35c-0.234,0.154-0.463,0.304-0.688,0.441L9.493,10.62
				c-0.49,0.49-0.611,1.237-0.301,1.858c0.273,0.549,0.824,0.89,1.436,0.89h0.505c0.374,0,0.724-0.124,1.011-0.358
				c0.243-0.197,0.521-0.431,0.821-0.682c1.261-1.057,2.83-2.371,3.751-2.717c0.256-0.1,0.546,0.033,0.644,0.292
				c0.097,0.259-0.034,0.547-0.292,0.644c-0.761,0.286-2.321,1.594-3.46,2.548c-0.303,0.254-0.586,0.49-0.832,0.69
				C12.313,14.161,11.73,14.368,11.132,14.368z"/>
		</g>
		<g>
			<path d="M4.884,21.315c-0.955,0-1.732-0.777-1.732-1.733v-0.287c0-0.344,0.101-0.677,0.291-0.962l0.688-1.034
				c0.321-0.483,0.86-0.772,1.441-0.772c0.955,0,1.732,0.778,1.732,1.734v0.287c0,0.343-0.1,0.675-0.29,0.961l-0.689,1.035
				C6.003,21.027,5.464,21.315,4.884,21.315z M5.572,17.526c-0.245,0-0.473,0.122-0.608,0.326l-0.689,1.035
				c-0.08,0.12-0.123,0.261-0.123,0.407v0.287c0,0.404,0.328,0.733,0.732,0.733c0.245,0,0.473-0.122,0.609-0.326l0.688-1.034
				c0.08-0.12,0.123-0.262,0.123-0.407v-0.287C6.304,17.855,5.976,17.526,5.572,17.526z"/>
		</g>
		<g>
			<path d="M6.819,23.211c-0.999,0-1.775-0.778-1.775-1.734v-0.249c0-0.373,0.123-0.742,0.346-1.041l1.275-1.703
				c0.326-0.435,0.844-0.694,1.386-0.694c0.999,0,1.775,0.778,1.775,1.734v0.249c0,0.373-0.123,0.742-0.346,1.041l-1.275,1.703
				C7.879,22.951,7.361,23.211,6.819,23.211z M8.094,18.789c-0.272,0-0.491,0.109-0.628,0.294L6.19,20.786
				c-0.096,0.128-0.147,0.281-0.147,0.441v0.249c0,0.405,0.328,0.734,0.732,0.734c0.272,0,0.491-0.109,0.628-0.294l1.275-1.703
				c0.096-0.128,0.147-0.281,0.147-0.441v-0.249C8.826,19.118,8.498,18.789,8.094,18.789z"/>
		</g>
		<g>
			<path d="M9.34,24.474c-0.998,0-1.775-0.778-1.775-1.734V22.49c0-0.372,0.123-0.741,0.345-1.039l1.276-1.705
				c0.326-0.435,0.844-0.693,1.386-0.693c0.999,0,1.775,0.778,1.775,1.734v0.249c0,0.372-0.123,0.741-0.345,1.039l-1.276,1.705
				C10.401,24.215,9.883,24.474,9.34,24.474z M10.616,20.053c-0.272,0-0.491,0.109-0.629,0.293L8.712,22.05
				c-0.094,0.126-0.146,0.283-0.146,0.44v0.249c0,0.405,0.328,0.734,0.732,0.734c0.272,0,0.491-0.109,0.629-0.293l1.275-1.704
				c0.094-0.126,0.146-0.283,0.146-0.44v-0.249C11.348,20.382,11.02,20.053,10.616,20.053z"/>
		</g>
		<g>
			<path d="M11.862,25.737c-0.999,0-1.775-0.778-1.775-1.734v-0.249c0-0.373,0.123-0.742,0.346-1.041l1.275-1.703
				c0.326-0.435,0.844-0.694,1.386-0.694c0.999,0,1.775,0.778,1.775,1.734v0.249c0,0.373-0.123,0.742-0.346,1.041l-1.275,1.703
				C12.922,25.478,12.404,25.737,11.862,25.737z M13.138,21.315c-0.272,0-0.491,0.109-0.628,0.294l-1.275,1.703
				c-0.096,0.128-0.147,0.281-0.147,0.441v0.249c0,0.405,0.328,0.734,0.732,0.734c0.272,0,0.491-0.109,0.628-0.294l1.275-1.703
				c0.096-0.128,0.147-0.281,0.147-0.441V22.05C13.87,21.645,13.542,21.315,13.138,21.315z"/>
		</g>
	</g>
</g>
<g id="Minimize">
</g>
<g id="Maximize">
</g>
<g id="Diamond">
</g>
<g id="Stop">
</g>
<g id="Shuffle">
</g>
<g id="Undo">
</g>
<g id="Upgrade">
</g>
<g id="Coding">
</g>
<g id="Syncronizaion">
</g>
<g id="Radio">
</g>
<g id="Presentation">
</g>
<g id="Door">
</g>
<g id="Thumbs_Up">
</g>
<g id="Thumbs_Down">
</g>
<g id="Keyboard">
</g>
<g id="_x33_D_Cube">
</g>
<g id="Signal">
</g>
<g id="Dice">
</g>
<g id="Upload">
</g>
<g id="Download">
</g>
<g id="Plugin_2">
</g>
<g id="Shopping_Bag">
</g>
<g id="Lifebelt">
</g>
<g id="Glasses">
</g>
<g id="Parabolic_Antenna">
</g>
<g id="Loudspeaker">
</g>
<g id="Play">
</g>
<g id="Pause">
</g>
<g id="Signpost">
</g>
<g id="Bluetooth">
</g>
<g id="Present">
</g>
<g id="Ruler">
</g>
<g id="Connection">
</g>
<g id="Money">
</g>
<g id="Paper_Plane">
</g>
<g id="Wallet_2">
</g>
</svg>
