<?xml version="1.0" encoding="iso-8859-1"?>
<!-- Generator: Adobe Illustrator 19.2.1, SVG Export Plug-In . SVG Version: 6.00 Build 0)  -->
<svg version="1.1" xmlns="http://www.w3.org/2000/svg" xmlns:xlink="http://www.w3.org/1999/xlink" x="0px" y="0px"
	 viewBox="0 0 30 30" style="enable-background:new 0 0 30 30;" xml:space="preserve">
<g id="Man_1">
</g>
<g id="Woman_1">
</g>
<g id="Man_2">
</g>
<g id="Woman_2">
</g>
<g id="Bald_Man">
</g>
<g id="Man_Glasses">
</g>
<g id="Woman_Glasses">
</g>
<g id="Man_Beard">
</g>
<g id="Man_Cap">
</g>
<g id="Woman_Cap">
</g>
<g id="Man_3">
</g>
<g id="Woman_3">
</g>
<g id="Men_4">
</g>
<g id="Woman_4">
</g>
<g id="Business_Man_1">
</g>
<g id="Business_Woman_1">
</g>
<g id="Firefigyhter">
</g>
<g id="Policeman">
</g>
<g id="Criminal">
</g>
<g id="Prisoner">
</g>
<g id="Woodsman">
</g>
<g id="Dispatcher_1">
</g>
<g id="Dispatcher_2">
</g>
<g id="Soldier">
</g>
<g id="Astronaut">
</g>
<g id="Hipster_Guy">
</g>
<g id="Hipster_Girl">
</g>
<g id="Worker">
</g>
<g id="Old_Man">
</g>
<g id="Punk">
</g>
<g id="Diver">
</g>
<g id="Artist">
</g>
<g id="Dictator">
</g>
<g id="Man_Hat">
</g>
<g id="Woman_Hat">
</g>
<g id="Graduated_Man">
</g>
<g id="Graduated_Woman">
</g>
<g id="Avatar_Chef">
</g>
<g id="Waiter">
</g>
<g id="Waitress">
</g>
<g id="Bllboy">
</g>
<g id="Santa">
</g>
<g id="Doctor">
</g>
<g id="Nurse">
</g>
<g id="Captain">
</g>
<g id="Farmer">
</g>
<g id="Maid">
</g>
<g id="Business_Man_2">
</g>
<g id="Business_Woman_2">
</g>
<g id="Cowboy">
</g>
<g id="Anonymus">
</g>
<g id="Batman">
</g>
<g id="Superman">
</g>
<g id="Captain_America">
</g>
<g id="Darth_Vader">
</g>
<g id="Harry_Potter">
	<g>
		<path d="M15,4c-4.907,0-9.052,4.122-9.052,9c0,0.313,0.065,0.575,0.115,0.728c-0.035,0.293-0.115,1.008-0.115,1.281
			c0,1.813,0.752,3.179,1.75,3.179c0.086,0,0.189-0.011,0.302-0.045c1.021,2.608,3.171,4.896,5.287,5.564
			c0.104,0.035,0.208,0.068,0.324,0.1c0.144,0.037,0.287,0.071,0.428,0.097C14.398,23.969,14.704,24,15,24s0.602-0.031,0.958-0.097
			c0.146-0.025,0.289-0.06,0.443-0.099c0.105-0.029,0.21-0.063,0.302-0.095c2.101-0.664,4.171-2.906,5.195-5.566
			c0.112,0.033,0.215,0.044,0.301,0.044c0.998,0,1.75-1.366,1.75-3.179c0-0.272-0.08-0.987-0.114-1.281
			c0.049-0.153,0.114-0.415,0.114-0.728C23.948,8.038,19.935,4,15,4z M9.448,11.5c0.817,0,3.342-0.569,4.206-2.257
			c1.188,1.108,3.712,2.141,6.347,2.248c0.143,0.757,0.539,1.717,0.79,2.279l-0.988,0.494C19.509,13.525,18.79,13,17.948,13
			c-0.749,0-1.396,0.419-1.738,1.031c-0.239-0.254-0.661-0.531-1.262-0.531c-0.601,0-1.022,0.277-1.262,0.531
			C13.344,13.419,12.697,13,11.948,13c-0.842,0-1.561,0.525-1.855,1.263L8.966,13.7C9.037,12.657,9.271,11.632,9.448,11.5z
			 M18.948,15c0,0.551-0.448,1-1,1s-1-0.449-1-1s0.448-1,1-1S18.948,14.449,18.948,15z M12.948,15c0,0.551-0.449,1-1,1s-1-0.449-1-1
			s0.449-1,1-1S12.948,14.449,12.948,15z M22.198,17.188c-0.025,0-0.096-0.029-0.195-0.139c-0.122-0.132-0.308-0.189-0.477-0.15
			c-0.175,0.038-0.315,0.167-0.369,0.337c-0.821,2.588-2.821,4.909-4.768,5.525c-0.084,0.028-0.169,0.056-0.244,0.077
			c-0.12,0.029-0.239,0.06-0.365,0.081c-0.597,0.111-0.959,0.111-1.565,0c-0.122-0.021-0.241-0.052-0.35-0.079
			c-0.086-0.023-0.171-0.051-0.267-0.083c-1.97-0.623-4.059-2.996-4.86-5.521c-0.054-0.17-0.194-0.298-0.369-0.337
			c-0.036-0.008-0.072-0.012-0.108-0.012c-0.138,0-0.272,0.058-0.368,0.162c-0.101,0.109-0.171,0.139-0.196,0.139
			c-0.218,0-0.75-0.764-0.75-2.179c0-0.159,0.046-0.618,0.089-0.997c0.63,0.033,1.096,0.377,1.099,0.379
			c0.009,0.007,0.021,0.004,0.03,0.01c0.021,0.015,0.036,0.035,0.059,0.046l1.757,0.878C10.137,16.273,10.956,17,11.948,17
			c1.103,0,2-0.897,2-2c0-0.005-0.002-0.01-0.002-0.016c0.165,0,0.328-0.073,0.425-0.219c0.018-0.027,0.187-0.265,0.576-0.265
			s0.558,0.238,0.57,0.255C15.611,14.913,15.777,15,15.948,15c0,1.103,0.897,2,2,2c0.991,0,1.81-0.727,1.967-1.674l1.757-0.878
			c0.02-0.01,0.033-0.028,0.051-0.04c0.014-0.009,0.031-0.011,0.043-0.021c0.005-0.004,0.447-0.343,1.093-0.375
			c0.043,0.379,0.089,0.839,0.089,0.998C22.948,16.424,22.416,17.188,22.198,17.188z"/>
		<path d="M11.724,12.947C11.796,12.983,11.872,13,11.947,13c0.184,0,0.36-0.101,0.448-0.276L12.757,12h0.691
			c0.189,0,0.362-0.107,0.447-0.276l0.5-1c0.124-0.247,0.023-0.547-0.224-0.671c-0.247-0.123-0.546-0.023-0.671,0.224L13.139,11
			h-0.691c-0.189,0-0.362,0.107-0.447,0.276l-0.5,1C11.377,12.523,11.477,12.824,11.724,12.947z"/>
		<path d="M15,0C6.729,0,0,6.729,0,15c0,8.271,6.729,15,15,15c8.271,0,15-6.729,15-15C30,6.729,23.271,0,15,0z M24.907,24.881
			c-0.098-0.068-0.209-0.148-0.327-0.232c-0.557-0.396-0.801-0.563-0.908-0.597l-1.059-0.524c-0.485-0.17-1.577-0.682-1.812-0.882
			l-0.335-0.335c-1.035,1.122-2.232,1.963-3.463,2.352c-0.082,0.029-0.208,0.069-0.336,0.105c-0.202,0.051-0.369,0.091-0.539,0.12
			C15.719,24.964,15.357,25,15,25c-0.355,0-0.717-0.036-1.141-0.113c-0.164-0.029-0.331-0.068-0.5-0.112
			c-0.147-0.039-0.271-0.078-0.394-0.12c-1.123-0.355-2.245-1.098-3.238-2.088l-0.055,0.055c-0.263,0.226-1.354,0.738-1.897,0.932
			l-0.941,0.476c-0.167,0.058-0.41,0.226-0.969,0.622c-0.248,0.176-0.48,0.345-0.578,0.396c-0.004,0.002-0.006,0.005-0.009,0.007
			C2.646,22.506,1,18.944,1,15C1,7.28,7.28,1,15,1s14,6.28,14,14C29,18.853,27.435,22.347,24.907,24.881z"/>
	</g>
</g>
<g id="Anonymus_2">
</g>
<g id="Scream">
</g>
<g id="Jason">
</g>
<g id="Charlie_Chaplin">
</g>
</svg>
