<?xml version="1.0" encoding="iso-8859-1"?>
<!-- Generator: Adobe Illustrator 19.2.1, SVG Export Plug-In . SVG Version: 6.00 Build 0)  -->
<svg version="1.1" xmlns="http://www.w3.org/2000/svg" xmlns:xlink="http://www.w3.org/1999/xlink" x="0px" y="0px"
	 viewBox="0 0 30 30" style="enable-background:new 0 0 30 30;" xml:space="preserve">
<g id="Cutting_Board_1">
</g>
<g id="Cutting_Board_2">
</g>
<g id="Chef_x27_s_Hat_1">
</g>
<g id="Chef_x27_s_Hat_2">
</g>
<g id="Kitchen_Scale">
</g>
<g id="Measuring_Cup">
</g>
<g id="Pot_1">
</g>
<g id="Pot_2">
</g>
<g id="Wok_1">
</g>
<g id="Wok_2">
</g>
<g id="Teapot">
</g>
<g id="Plate">
</g>
<g id="Sauce_Boat">
</g>
<g id="Cauldron">
</g>
<g id="Cookbook">
</g>
<g id="Salt_Pot">
</g>
<g id="Pepper_Pot_1">
</g>
<g id="Pepper_Pot_2">
</g>
<g id="Egg_Timer">
</g>
<g id="Olive_Oil_Pot">
</g>
<g id="Pancake_Griddle">
</g>
<g id="Pan">
</g>
<g id="Kettle">
</g>
<g id="Microwave">
</g>
<g id="Cooker">
</g>
<g id="Meat_Grinder">
</g>
<g id="Coffee_Maker">
</g>
<g id="Household_Mixer">
</g>
<g id="Stand_Mixer">
</g>
<g id="Hand_Blender">
</g>
<g id="Blender">
</g>
<g id="Cooker_Hood">
</g>
<g id="Refrigerator">
</g>
<g id="Freezer">
</g>
<g id="Apron">
</g>
<g id="Oven_Gloves">
</g>
<g id="Rolling_Pin">
</g>
<g id="Sieve">
</g>
<g id="Tea_Sieve">
</g>
<g id="Grater">
</g>
<g id="Knife_Holder">
</g>
<g id="Funnel">
</g>
<g id="Kitchen_Clock">
</g>
<g id="Lemon_Juicer">
</g>
<g id="Pastry_Bag_1">
</g>
<g id="Pastry_Bag_2">
</g>
<g id="Corkscrew">
</g>
<g id="Bottle_Opener">
</g>
<g id="Service">
</g>
<g id="Chopsticks">
</g>
<g id="Hatchet">
</g>
<g id="Filleting_Knife">
</g>
<g id="Bread_Knife">
</g>
<g id="Herb_Knife">
	<path d="M29.429,19.743l-2.976-4.96c0.006-1.455,0.866-4.209,1.449-6.066C28.316,7.396,28.5,6.799,28.5,6.5c0-1.467-2.093-2-3.5-2
		s-3.5,0.533-3.5,2c0,0.3,0.183,0.9,0.597,2.229c0.574,1.845,1.423,4.582,1.448,6.068C23.517,14.86,23.5,14.927,23.5,15
		c0,1.419-3.491,3-8.5,3s-8.5-1.581-8.5-3c0-0.074-0.018-0.143-0.047-0.207c0.003-1.452,0.865-4.215,1.449-6.076
		C8.316,7.396,8.5,6.799,8.5,6.5c0-1.467-2.093-2-3.5-2s-3.5,0.533-3.5,2c0,0.3,0.183,0.9,0.597,2.229
		C2.67,10.57,3.516,13.3,3.544,14.788l-2.973,4.955C0.524,19.82,0.5,19.909,0.5,20c0,3.084,6.369,5.5,14.5,5.5s14.5-2.416,14.5-5.5
		C29.5,19.909,29.476,19.82,29.429,19.743z M25,6.5c0.276,0,0.5,0.224,0.5,0.5c0,0.276-0.224,0.5-0.5,0.5S24.5,7.276,24.5,7
		C24.5,6.724,24.724,6.5,25,6.5z M5,6.5c0.276,0,0.5,0.224,0.5,0.5c0,0.276-0.224,0.5-0.5,0.5S4.5,7.276,4.5,7
		C4.5,6.724,4.724,6.5,5,6.5z M15,24.5c-7.797,0-13.278-2.278-13.494-4.372L4.283,15.5h1.284C6.116,17.527,9.988,19,15,19
		s8.884-1.473,9.433-3.5h1.284l2.777,4.628C28.278,22.222,22.797,24.5,15,24.5z"/>
</g>
<g id="Whetting">
</g>
<g id="Cake_Knife">
</g>
<g id="Layer_58">
</g>
<g id="Ladle">
</g>
<g id="Sauce_Spoon">
</g>
<g id="Egg_Beater">
</g>
<g id="Meat_Fork">
</g>
<g id="Kitchen_Spoon_1">
</g>
<g id="Kitchen_Spoon_2">
</g>
<g id="Pizza_Cutter">
</g>
<g id="Potato_Musher">
</g>
<g id="Peeler">
</g>
<g id="Honey_Dipper">
</g>
<g id="Fork">
</g>
<g id="Knife">
</g>
<g id="Spoon">
</g>
<g id="Cutlery_Set">
</g>
<g id="Sugar_Bowl">
</g>
<g id="Matches">
</g>
<g id="Cezve">
</g>
</svg>
