<?xml version="1.0" encoding="iso-8859-1"?>
<!-- Generator: Adobe Illustrator 19.2.1, SVG Export Plug-In . SVG Version: 6.00 Build 0)  -->
<svg version="1.1" xmlns="http://www.w3.org/2000/svg" xmlns:xlink="http://www.w3.org/1999/xlink" x="0px" y="0px"
	 viewBox="0 0 30 30" style="enable-background:new 0 0 30 30;" xml:space="preserve">
<g id="Man_1">
</g>
<g id="Woman_1">
</g>
<g id="Man_2">
</g>
<g id="Woman_2">
</g>
<g id="Bald_Man">
</g>
<g id="Man_Glasses">
</g>
<g id="Woman_Glasses">
</g>
<g id="Man_Beard">
</g>
<g id="Man_Cap">
</g>
<g id="Woman_Cap">
</g>
<g id="Man_3">
</g>
<g id="Woman_3">
</g>
<g id="Men_4">
</g>
<g id="Woman_4">
</g>
<g id="Business_Man_1">
</g>
<g id="Business_Woman_1">
</g>
<g id="Firefigyhter">
</g>
<g id="Policeman">
</g>
<g id="Criminal">
</g>
<g id="Prisoner">
</g>
<g id="Woodsman">
</g>
<g id="Dispatcher_1">
</g>
<g id="Dispatcher_2">
</g>
<g id="Soldier">
</g>
<g id="Astronaut">
</g>
<g id="Hipster_Guy">
	<g>
		<g>
			<path d="M5,26c-0.19,0-0.373-0.11-0.456-0.295c-0.113-0.252-0.001-0.548,0.251-0.661c0.151-0.068,0.566-0.202,1.136-0.385
				c0.185-0.059,0.339-0.108,0.405-0.131l1.506-0.502c0.308-0.107,0.904-0.537,1.332-0.905l0.473-0.475
				c0.195-0.195,0.512-0.195,0.707,0s0.195,0.512,0,0.707l-0.5,0.5c-0.195,0.17-1.064,0.901-1.689,1.119l-1.506,0.502
				c-0.064,0.022-0.227,0.075-0.423,0.138c-0.382,0.122-0.9,0.286-1.03,0.344C5.139,25.986,5.068,26,5,26z"/>
		</g>
		<g>
			<path d="M10.5,16c-0.053,0-0.105-0.008-0.158-0.026l-3-1c-0.262-0.087-0.403-0.37-0.316-0.632
				c0.088-0.262,0.371-0.401,0.633-0.316l3,1c0.262,0.087,0.403,0.37,0.316,0.632C10.904,15.868,10.709,16,10.5,16z"/>
		</g>
		<g>
			<path d="M7.5,12c-0.203,0-0.392-0.124-0.467-0.321c-0.09-0.234,0.008-0.498,0.228-0.618C7.49,10.936,12.946,8,19,8
				c2.514,0,4.132,0.539,4.809,1.602c0.645,1.011,0.165,2.065,0.145,2.11c-0.097,0.208-0.317,0.323-0.548,0.28
				C23.354,11.981,18.221,11,15,11c-3.21,0-7.343,0.977-7.384,0.986C7.577,11.996,7.538,12,7.5,12z M15,10
				c2.78,0,6.786,0.68,8.137,0.924c0.025-0.222,0.005-0.515-0.177-0.794C22.486,9.401,21.08,9,19,9c-2.56,0-5.045,0.568-7.026,1.205
				C12.97,10.084,14.019,10,15,10z"/>
		</g>
		<g>
			<path d="M7.501,12c-0.035,0-0.069-0.003-0.104-0.011c-0.271-0.057-0.442-0.322-0.386-0.593C7.513,9.021,9.761,5,15,5
				c2.908,0,5.757,1.332,6.926,3.239c0.145,0.235,0.071,0.543-0.164,0.688c-0.234,0.144-0.543,0.072-0.688-0.165
				C20.258,7.432,18.009,6,15,6c-4.6,0-6.571,3.522-7.011,5.604C7.939,11.839,7.731,12,7.501,12z"/>
		</g>
		<g>
			<path d="M25,26c-0.068,0-0.139-0.014-0.205-0.044c-0.13-0.059-0.648-0.222-1.03-0.344c-0.196-0.063-0.358-0.115-0.429-0.14
				l-1.494-0.498c-0.631-0.219-1.5-0.951-1.668-1.095l-0.527-0.525c-0.195-0.195-0.195-0.512,0-0.707s0.512-0.195,0.707,0l0.5,0.5
				c0.4,0.343,0.997,0.772,1.311,0.881l1.494,0.498c0.072,0.025,0.227,0.074,0.411,0.133c0.569,0.183,0.984,0.317,1.136,0.385
				c0.252,0.113,0.364,0.409,0.251,0.661C25.373,25.89,25.19,26,25,26z"/>
		</g>
		<g>
			<path d="M15,30C6.729,30,0,23.271,0,15S6.729,0,15,0s15,6.729,15,15S23.271,30,15,30z M15,1C7.28,1,1,7.28,1,15s6.28,14,14,14
				s14-6.28,14-14S22.72,1,15,1z"/>
		</g>
		<g>
			<path d="M15,27c-0.35,0-0.627-0.043-0.903-0.091c-0.142-0.022-0.285-0.054-0.43-0.089c-0.111-0.028-0.214-0.06-0.317-0.092
				C10.914,26.009,8.954,22.193,8.146,20H8c-1.047,0-2-1.43-2-3c0-1.604,0.387-2.631,1.076-2.918c0.18-0.829,0.582-2.448,1.07-2.936
				c0.195-0.195,0.512-0.195,0.707,0s0.195,0.512,0,0.707c-0.234,0.235-0.636,1.608-0.863,2.745C7.943,14.832,7.738,15,7.5,15
				C7.331,15,7,15.604,7,17c0,1.224,0.703,2,1,2h0.5c0.214,0,0.404,0.136,0.474,0.339c0.926,2.724,2.876,5.904,4.668,6.433
				c0.095,0.03,0.18,0.056,0.267,0.078c0.112,0.027,0.23,0.054,0.353,0.073C14.553,25.973,14.754,26,15,26
				c0.248,0,0.561-0.028,0.838-0.076c0.127-0.021,0.245-0.047,0.364-0.076c0.08-0.021,0.166-0.046,0.252-0.074
				c1.824-0.539,3.647-3.713,4.572-6.435c0.056-0.164,0.193-0.288,0.362-0.326c0.11-0.025,0.224-0.012,0.323,0.035
				C21.797,19.021,21.891,19,22,19c0.297,0,1-0.776,1-2c0-1.396-0.331-2-0.5-2c-0.238,0-0.443-0.168-0.49-0.402
				c-0.228-1.136-0.629-2.51-0.863-2.745c-0.195-0.195-0.195-0.512,0-0.707s0.512-0.195,0.707,0c0.488,0.488,0.891,2.107,1.07,2.936
				C23.613,14.369,24,15.396,24,17c0,1.57-0.953,3-2,3c-0.041,0.016-0.098,0.036-0.165,0.052c-0.855,2.326-2.746,5.987-5.089,6.679
				c-0.095,0.03-0.198,0.062-0.303,0.088c-0.151,0.037-0.295,0.068-0.441,0.092C15.673,26.967,15.306,27,15,27z"/>
		</g>
		<g>
			<path d="M21.5,20c-0.276,0-0.5-0.224-0.5-0.5v-0.18C20.204,19.733,19.619,20,18.5,20c-0.741,0-1.321-0.27-1.882-0.53
				C16.099,19.228,15.607,19,15,19s-1.099,0.228-1.618,0.47C12.821,19.73,12.241,20,11.5,20c-1.116,0-1.701-0.248-2.5-0.668V19.5
				C9,19.776,8.776,20,8.5,20S8,19.776,8,19.5v-1c0-0.175,0.092-0.337,0.241-0.428c0.148-0.09,0.335-0.096,0.491-0.015l0.435,0.231
				C10.08,18.777,10.497,19,11.5,19c0.52,0,0.956-0.203,1.46-0.437C13.527,18.299,14.171,18,15,18s1.473,0.299,2.04,0.563
				C17.544,18.797,17.98,19,18.5,19c0.952,0,1.372-0.219,2.208-0.655c0.173-0.09,0.36-0.188,0.568-0.292
				c0.155-0.078,0.339-0.069,0.486,0.022S22,18.327,22,18.5v1C22,19.776,21.776,20,21.5,20z"/>
		</g>
		<g>
			<path d="M15.5,21h-1c-0.276,0-0.5-0.224-0.5-0.5s0.224-0.5,0.5-0.5h1c0.276,0,0.5,0.224,0.5,0.5S15.776,21,15.5,21z"/>
		</g>
		<g>
			<path d="M15.5,15h-1c-0.276,0-0.5-0.224-0.5-0.5s0.224-0.5,0.5-0.5h1c0.276,0,0.5,0.224,0.5,0.5S15.776,15,15.5,15z"/>
		</g>
		<g>
			<path d="M19.5,16c-0.209,0-0.404-0.132-0.475-0.342c-0.087-0.262,0.055-0.545,0.316-0.632l3-1
				c0.263-0.086,0.545,0.054,0.633,0.316c0.087,0.262-0.055,0.545-0.316,0.632l-3,1C19.605,15.992,19.553,16,19.5,16z"/>
		</g>
		<g>
			<path d="M17.5,18c-1.379,0-2.5-1.122-2.5-2.5s1.121-2.5,2.5-2.5s2.5,1.122,2.5,2.5S18.879,18,17.5,18z M17.5,14
				c-0.827,0-1.5,0.673-1.5,1.5s0.673,1.5,1.5,1.5s1.5-0.673,1.5-1.5S18.327,14,17.5,14z"/>
		</g>
		<g>
			<path d="M12.5,18c-1.379,0-2.5-1.122-2.5-2.5s1.121-2.5,2.5-2.5s2.5,1.122,2.5,2.5S13.879,18,12.5,18z M12.5,14
				c-0.827,0-1.5,0.673-1.5,1.5s0.673,1.5,1.5,1.5s1.5-0.673,1.5-1.5S13.327,14,12.5,14z"/>
		</g>
	</g>
</g>
<g id="Hipster_Girl">
</g>
<g id="Worker">
</g>
<g id="Old_Man">
</g>
<g id="Punk">
</g>
<g id="Diver">
</g>
<g id="Artist">
</g>
<g id="Dictator">
</g>
<g id="Man_Hat">
</g>
<g id="Woman_Hat">
</g>
<g id="Graduated_Man">
</g>
<g id="Graduated_Woman">
</g>
<g id="Avatar_Chef">
</g>
<g id="Waiter">
</g>
<g id="Waitress">
</g>
<g id="Bllboy">
</g>
<g id="Santa">
</g>
<g id="Doctor">
</g>
<g id="Nurse">
</g>
<g id="Captain">
</g>
<g id="Farmer">
</g>
<g id="Maid">
</g>
<g id="Business_Man_2">
</g>
<g id="Business_Woman_2">
</g>
<g id="Cowboy">
</g>
<g id="Anonymus">
</g>
<g id="Batman">
</g>
<g id="Superman">
</g>
<g id="Captain_America">
</g>
<g id="Darth_Vader">
</g>
<g id="Harry_Potter">
</g>
<g id="Anonymus_2">
</g>
<g id="Scream">
</g>
<g id="Jason">
</g>
<g id="Charlie_Chaplin">
</g>
</svg>
