<?xml version="1.0" encoding="iso-8859-1"?>
<!-- Generator: Adobe Illustrator 19.2.1, SVG Export Plug-In . SVG Version: 6.00 Build 0)  -->
<svg version="1.1" xmlns="http://www.w3.org/2000/svg" xmlns:xlink="http://www.w3.org/1999/xlink" x="0px" y="0px"
	 viewBox="0 0 30 30" style="enable-background:new 0 0 30 30;" xml:space="preserve">
<g id="Man_1">
</g>
<g id="Woman_1">
</g>
<g id="Man_2">
</g>
<g id="Woman_2">
</g>
<g id="Bald_Man">
</g>
<g id="Man_Glasses">
</g>
<g id="Woman_Glasses">
</g>
<g id="Man_Beard">
</g>
<g id="Man_Cap">
</g>
<g id="Woman_Cap">
</g>
<g id="Man_3">
</g>
<g id="Woman_3">
</g>
<g id="Men_4">
</g>
<g id="Woman_4">
</g>
<g id="Business_Man_1">
</g>
<g id="Business_Woman_1">
</g>
<g id="Firefigyhter">
</g>
<g id="Policeman">
</g>
<g id="Criminal">
</g>
<g id="Prisoner">
</g>
<g id="Woodsman">
</g>
<g id="Dispatcher_1">
</g>
<g id="Dispatcher_2">
</g>
<g id="Soldier">
</g>
<g id="Astronaut">
</g>
<g id="Hipster_Guy">
	<g>
		<path d="M21.974,8.37c-0.012-0.045-0.023-0.09-0.048-0.131C20.757,6.332,17.908,5,15,5c-5.24,0-7.487,4.021-7.989,6.396
			c-0.003,0.016,0.001,0.03,0,0.046c-0.004,0.037-0.005,0.072-0.001,0.11c0.003,0.029,0.008,0.055,0.016,0.083
			c0.004,0.015,0.003,0.03,0.008,0.045c0.004,0.011,0.015,0.015,0.02,0.025c0.038,0.082,0.089,0.156,0.165,0.208
			c0.002,0.002,0.005,0.002,0.008,0.003c0.051,0.034,0.107,0.06,0.171,0.074C7.431,11.997,7.466,12,7.5,12l0,0h0h0
			c0,0,0.001,0,0.001,0c0.038,0,0.076-0.004,0.115-0.013c0.003-0.001,0.028-0.007,0.067-0.016c-0.272,0.682-0.488,1.566-0.606,2.111
			C6.387,14.369,6,15.396,6,17c0,1.57,0.953,3,2,3h0.147c0.807,2.193,2.767,6.009,5.2,6.727c0.104,0.034,0.208,0.065,0.322,0.094
			c0.142,0.034,0.285,0.065,0.428,0.09C14.375,26.957,14.653,27,15,27c0.305,0,0.672-0.033,1.006-0.09
			c0.145-0.024,0.286-0.056,0.438-0.092c0.104-0.026,0.209-0.058,0.303-0.088c2.342-0.691,4.233-4.353,5.089-6.679
			C21.902,20.036,21.959,20.016,22,20c1.047,0,2-1.43,2-3c0-1.604-0.387-2.631-1.076-2.918c-0.129-0.597-0.376-1.599-0.685-2.298
			c0.7,0.119,1.151,0.205,1.166,0.208c0.231,0.043,0.451-0.072,0.548-0.28c0.021-0.044,0.5-1.099-0.145-2.11
			C23.455,9.046,22.836,8.637,21.974,8.37z M8.854,11.854c0.044-0.044,0.075-0.096,0.1-0.15C10.442,11.412,12.913,11,15,11
			c1.816,0,4.239,0.312,6.017,0.586c0.017,0.098,0.054,0.193,0.13,0.268c0.205,0.206,0.539,1.285,0.771,2.314L19.9,14.84
			C19.609,13.783,18.649,13,17.5,13c-0.815,0-1.533,0.397-1.989,1.002C15.507,14.002,15.504,14,15.5,14h-1
			c-0.004,0-0.007,0.002-0.011,0.002C14.032,13.397,13.315,13,12.5,13c-1.148,0-2.108,0.783-2.4,1.84l-2.018-0.672
			C8.315,13.139,8.648,12.059,8.854,11.854z M19,15.5c0,0.827-0.673,1.5-1.5,1.5S16,16.327,16,15.5s0.673-1.5,1.5-1.5
			S19,14.673,19,15.5z M14,15.5c0,0.827-0.673,1.5-1.5,1.5S11,16.327,11,15.5s0.673-1.5,1.5-1.5S14,14.673,14,15.5z M15.5,21h-1
			c-0.276,0-0.5-0.224-0.5-0.5s0.224-0.5,0.5-0.5h1c0.276,0,0.5,0.224,0.5,0.5S15.776,21,15.5,21z M22.536,15.015
			C22.712,15.089,23,15.694,23,17c0,1.224-0.703,2-1,2v-0.5c0-0.173-0.09-0.334-0.237-0.425c-0.146-0.092-0.332-0.101-0.486-0.022
			c-0.209,0.104-0.396,0.202-0.57,0.293C19.87,18.781,19.451,19,18.5,19c-0.52,0-0.956-0.202-1.46-0.438
			C16.473,18.299,15.829,18,15,18s-1.472,0.299-2.04,0.563C12.456,18.798,12.02,19,11.5,19c-1.003,0-1.421-0.224-2.335-0.713
			l-0.433-0.229c-0.155-0.084-0.341-0.076-0.491,0.015S8,18.325,8,18.5V19c-0.297,0-1-0.776-1-2c0-1.306,0.288-1.911,0.464-1.985
			l2.574,0.858C10.219,17.074,11.249,18,12.5,18c1.378,0,2.5-1.121,2.5-2.5c0-0.171-0.018-0.338-0.051-0.5h0.101
			C15.018,15.162,15,15.329,15,15.5c0,1.379,1.121,2.5,2.5,2.5c1.251,0,2.281-0.926,2.462-2.127L22.536,15.015z M23.137,10.924
			C21.786,10.68,17.78,10,15,10c-0.981,0-2.03,0.084-3.027,0.205C13.955,9.568,16.44,9,19,9c2.08,0,3.486,0.401,3.96,1.13
			C23.142,10.409,23.162,10.702,23.137,10.924z"/>
		<path d="M15,0C6.729,0,0,6.729,0,15c0,4.264,1.797,8.108,4.662,10.842c0.032,0.032,0.058,0.067,0.097,0.088
			C7.443,28.446,11.04,30,15,30c3.963,0,7.561-1.556,10.246-4.075c0.059-0.034,0.109-0.08,0.15-0.137C28.228,23.059,30,19.236,30,15
			C30,6.729,23.271,0,15,0z M24.866,24.921c-0.232-0.079-0.527-0.175-0.781-0.257c-0.191-0.061-0.352-0.112-0.427-0.139
			l-1.493-0.497c-0.204-0.072-0.527-0.281-0.838-0.51c-1.001,1.76-2.452,3.626-4.298,4.171c-0.089,0.029-0.215,0.066-0.341,0.099
			c-0.187,0.045-0.35,0.08-0.516,0.108C15.784,27.962,15.356,28,15,28c-0.419,0-0.745-0.049-1.069-0.104
			c-0.167-0.028-0.332-0.064-0.496-0.104c-0.146-0.037-0.273-0.075-0.4-0.116c-1.859-0.548-3.332-2.432-4.341-4.176
			c-0.322,0.24-0.65,0.454-0.852,0.524l-1.507,0.503c-0.068,0.023-0.229,0.075-0.419,0.136c-0.32,0.102-0.582,0.187-0.783,0.256
			C2.582,22.383,1,18.873,1,15C1,7.28,7.28,1,15,1s14,6.28,14,14C29,18.874,27.417,22.384,24.866,24.921z"/>
	</g>
</g>
<g id="Hipster_Girl">
</g>
<g id="Worker">
</g>
<g id="Old_Man">
</g>
<g id="Punk">
</g>
<g id="Diver">
</g>
<g id="Artist">
</g>
<g id="Dictator">
</g>
<g id="Man_Hat">
</g>
<g id="Woman_Hat">
</g>
<g id="Graduated_Man">
</g>
<g id="Graduated_Woman">
</g>
<g id="Avatar_Chef">
</g>
<g id="Waiter">
</g>
<g id="Waitress">
</g>
<g id="Bllboy">
</g>
<g id="Santa">
</g>
<g id="Doctor">
</g>
<g id="Nurse">
</g>
<g id="Captain">
</g>
<g id="Farmer">
</g>
<g id="Maid">
</g>
<g id="Business_Man_2">
</g>
<g id="Business_Woman_2">
</g>
<g id="Cowboy">
</g>
<g id="Anonymus">
</g>
<g id="Batman">
</g>
<g id="Superman">
</g>
<g id="Captain_America">
</g>
<g id="Darth_Vader">
</g>
<g id="Harry_Potter">
</g>
<g id="Anonymus_2">
</g>
<g id="Scream">
</g>
<g id="Jason">
</g>
<g id="Charlie_Chaplin">
</g>
</svg>
