<?xml version="1.0" encoding="iso-8859-1"?>
<!-- Generator: Adobe Illustrator 19.2.1, SVG Export Plug-In . SVG Version: 6.00 Build 0)  -->
<svg version="1.1" xmlns="http://www.w3.org/2000/svg" xmlns:xlink="http://www.w3.org/1999/xlink" x="0px" y="0px"
	 viewBox="0 0 30 30" style="enable-background:new 0 0 30 30;" xml:space="preserve">
<g id="Man_1">
</g>
<g id="Woman_1">
</g>
<g id="Man_2">
</g>
<g id="Woman_2">
</g>
<g id="Bald_Man">
</g>
<g id="Man_Glasses">
</g>
<g id="Woman_Glasses">
</g>
<g id="Man_Beard">
</g>
<g id="Man_Cap">
</g>
<g id="Woman_Cap">
</g>
<g id="Man_3">
</g>
<g id="Woman_3">
</g>
<g id="Men_4">
</g>
<g id="Woman_4">
</g>
<g id="Business_Man_1">
</g>
<g id="Business_Woman_1">
</g>
<g id="Firefigyhter">
</g>
<g id="Policeman">
</g>
<g id="Criminal">
</g>
<g id="Prisoner">
</g>
<g id="Woodsman">
</g>
<g id="Dispatcher_1">
</g>
<g id="Dispatcher_2">
</g>
<g id="Soldier">
</g>
<g id="Astronaut">
</g>
<g id="Hipster_Guy">
</g>
<g id="Hipster_Girl">
	<g>
		<path d="M23.886,15.228C23.935,15.075,24,14.813,24,14.5c0-0.054-0.009-0.107-0.025-0.158l-0.451-1.347
			c0.066-0.003,0.132-0.014,0.195-0.045C25.233,12.21,25.5,11.571,25.5,10.5c0-1.363-1.467-2.512-3.564-3.308
			C21.418,4.493,18.978,3,15,3c-3.961,0-6.401,1.493-6.935,4.191C5.968,7.988,4.5,9.136,4.5,10.5c0,1.07,0.267,1.71,1.781,2.449
			C6.343,12.98,6.408,12.996,6.473,13l-0.447,1.342C6.009,14.393,6,14.446,6,14.5c0,0.313,0.065,0.575,0.115,0.728
			c-0.033,0.277-0.104,0.92-0.112,1.221L5.008,21.91c-0.025,0.138,0.008,0.279,0.092,0.391s0.211,0.183,0.35,0.196l4.917,0.492
			c0.851,0.784,1.829,1.389,2.868,1.717c0.104,0.036,0.208,0.069,0.324,0.101c0.144,0.037,0.287,0.071,0.428,0.096
			C14.346,24.969,14.651,25,14.948,25s0.603-0.031,0.958-0.097c0.146-0.025,0.289-0.06,0.443-0.099
			c0.105-0.029,0.208-0.063,0.302-0.095c1.064-0.336,2.059-0.94,2.924-1.715l4.975-0.497c0.139-0.014,0.266-0.085,0.35-0.196
			s0.117-0.253,0.093-0.391l-0.995-5.465C23.989,16.143,23.918,15.504,23.886,15.228z M22.25,18.688
			c-0.025,0-0.096-0.029-0.195-0.139c-0.122-0.132-0.308-0.188-0.477-0.15c-0.175,0.038-0.315,0.167-0.369,0.337
			c-0.849,2.676-3.053,4.45-4.87,5.024c-0.085,0.029-0.17,0.057-0.245,0.078c-0.12,0.029-0.239,0.06-0.366,0.082
			c-0.595,0.109-0.959,0.111-1.565-0.001c-0.122-0.021-0.241-0.052-0.35-0.079c-0.086-0.023-0.171-0.051-0.266-0.083
			c-2.136-0.676-4.002-2.646-4.756-5.021c-0.054-0.17-0.194-0.298-0.369-0.337c-0.036-0.008-0.072-0.012-0.108-0.012
			c-0.138,0-0.272,0.058-0.368,0.162c-0.101,0.109-0.171,0.139-0.196,0.139c-0.218,0-0.75-0.764-0.75-2.179
			c0-0.2,0.074-0.891,0.122-1.279c0.006-0.053-0.012-0.105-0.023-0.159c0.609,0.128,1.191,0.383,1.199,0.386
			c0.139,0.062,0.297,0.049,0.43-0.021l1.31,0.437C10.219,17.074,11.249,18,12.5,18c1.378,0,2.5-1.121,2.5-2.5
			c0-0.171-0.018-0.338-0.051-0.5h0.101C15.018,15.162,15,15.329,15,15.5c0,1.379,1.121,2.5,2.5,2.5
			c1.251,0,2.281-0.926,2.462-2.127l1.3-0.433c0.073,0.039,0.155,0.061,0.238,0.061c0.07,0,0.141-0.015,0.208-0.045
			c0.196-0.09,0.691-0.278,1.194-0.382c-0.01,0.052-0.029,0.103-0.023,0.156C22.926,15.618,23,16.309,23,16.509
			C23,17.924,22.468,18.688,22.25,18.688z M17.5,13c-0.815,0-1.533,0.397-1.989,1.002C15.507,14.002,15.504,14,15.5,14h-1
			c-0.004,0-0.007,0.002-0.011,0.002C14.032,13.397,13.315,13,12.5,13c-1.148,0-2.108,0.783-2.4,1.84l-1.054-0.351
			C9.135,13.753,9.332,13.083,9.5,13c1.654,0,3.53-0.499,4.223-1.822c1.196,0.969,3.714,1.737,6.334,1.815
			c0.117,0.548,0.388,1.139,0.624,1.586L19.9,14.84C19.609,13.783,18.649,13,17.5,13z M19,15.5c0,0.827-0.673,1.5-1.5,1.5
			S16,16.327,16,15.5s0.673-1.5,1.5-1.5S19,14.673,19,15.5z M14,15.5c0,0.827-0.673,1.5-1.5,1.5S11,16.327,11,15.5
			s0.673-1.5,1.5-1.5S14,14.673,14,15.5z M23.223,12.095l-0.267-0.799C22.387,10.024,18.139,9,15,9
			c-3.254,0-7.255,1.131-7.928,2.241c-0.019,0.032-0.035,0.065-0.046,0.101l-0.251,0.752c-0.02-0.013-0.034-0.032-0.056-0.043
			C5.5,11.456,5.5,11.136,5.5,10.5C5.5,8.924,9.884,7,15,7s9.5,1.924,9.5,3.5c0,0.636,0,0.956-1.219,1.551
			C23.258,12.062,23.244,12.081,23.223,12.095z"/>
		<path d="M21.716,23.785l-1.727,0.173c-0.934,0.784-1.979,1.371-3.038,1.705c-0.087,0.031-0.209,0.07-0.335,0.105
			c-0.202,0.051-0.369,0.09-0.539,0.12C15.667,25.964,15.306,26,14.948,26s-0.721-0.036-1.143-0.114
			c-0.156-0.027-0.326-0.066-0.497-0.111c-0.15-0.04-0.276-0.08-0.401-0.124c-1.017-0.32-2.042-0.908-2.962-1.699l-1.66-0.166
			c-0.17,0.108-0.328,0.2-0.442,0.24l-0.53,0.177C9.396,25.946,12.076,27,15,27c2.924,0,5.604-1.054,7.688-2.797l-0.523-0.174
			C22.048,23.987,21.887,23.894,21.716,23.785z"/>
		<path d="M15,0C6.729,0,0,6.729,0,15c0,4.264,1.797,8.108,4.662,10.842c0.032,0.032,0.058,0.067,0.097,0.088
			C7.443,28.446,11.04,30,15,30c3.963,0,7.561-1.556,10.246-4.075c0.059-0.034,0.109-0.08,0.15-0.137C28.228,23.059,30,19.236,30,15
			C30,6.729,23.271,0,15,0z M24.866,24.921c-0.232-0.079-0.527-0.175-0.781-0.257c-0.126-0.04-0.227-0.073-0.311-0.1
			C21.459,26.69,18.383,28,15,28c-3.383,0-6.459-1.31-8.774-3.436c-0.082,0.027-0.183,0.059-0.31,0.1
			c-0.32,0.102-0.582,0.187-0.783,0.256C2.582,22.383,1,18.873,1,15C1,7.28,7.28,1,15,1s14,6.28,14,14
			C29,18.874,27.417,22.384,24.866,24.921z"/>
	</g>
</g>
<g id="Worker">
</g>
<g id="Old_Man">
</g>
<g id="Punk">
</g>
<g id="Diver">
</g>
<g id="Artist">
</g>
<g id="Dictator">
</g>
<g id="Man_Hat">
</g>
<g id="Woman_Hat">
</g>
<g id="Graduated_Man">
</g>
<g id="Graduated_Woman">
</g>
<g id="Avatar_Chef">
</g>
<g id="Waiter">
</g>
<g id="Waitress">
</g>
<g id="Bllboy">
</g>
<g id="Santa">
</g>
<g id="Doctor">
</g>
<g id="Nurse">
</g>
<g id="Captain">
</g>
<g id="Farmer">
</g>
<g id="Maid">
</g>
<g id="Business_Man_2">
</g>
<g id="Business_Woman_2">
</g>
<g id="Cowboy">
</g>
<g id="Anonymus">
</g>
<g id="Batman">
</g>
<g id="Superman">
</g>
<g id="Captain_America">
</g>
<g id="Darth_Vader">
</g>
<g id="Harry_Potter">
</g>
<g id="Anonymus_2">
</g>
<g id="Scream">
</g>
<g id="Jason">
</g>
<g id="Charlie_Chaplin">
</g>
</svg>
