<?xml version="1.0" encoding="iso-8859-1"?>
<!-- Generator: Adobe Illustrator 19.2.1, SVG Export Plug-In . SVG Version: 6.00 Build 0)  -->
<svg version="1.1" xmlns="http://www.w3.org/2000/svg" xmlns:xlink="http://www.w3.org/1999/xlink" x="0px" y="0px"
	 viewBox="0 0 30 30" style="enable-background:new 0 0 30 30;" xml:space="preserve">
<g id="Present_1">
</g>
<g id="Present_2">
</g>
<g id="Present_3">
</g>
<g id="Present_Cake">
</g>
<g id="Present_4">
</g>
<g id="Birthday_Cake_1">
</g>
<g id="Birthday_Cake_2">
</g>
<g id="Cake_Piece">
</g>
<g id="Cupcake">
</g>
<g id="Lollipop">
</g>
<g id="Birthday_Greetings_1">
</g>
<g id="Party_Greetings_2">
</g>
<g id="Birthday_Invitation">
</g>
<g id="Birthday_1">
</g>
<g id="Birthday_2">
</g>
<g id="Birthday_Message_1">
</g>
<g id="Birthday_Message_2">
</g>
<g id="Birthyday_Hat_1">
</g>
<g id="Birthay_Hat_2">
</g>
<g id="Birthday_Hat3">
</g>
<g id="Birthday_Decoration_1">
</g>
<g id="Birthday_Decoration_2">
</g>
<g id="Birthday_Decoration_3">
</g>
<g id="Horn_1">
</g>
<g id="Horn_2">
	<g>
		<g>
			<path d="M3.604,29.863c-0.414,0-0.829-0.161-1.145-0.477c0,0,0,0,0,0c-0.533-0.534-0.627-1.354-0.229-1.993l4.922-8.976
				c0.27-0.45,0.707-0.735,1.208-0.797c0.502-0.064,0.996,0.107,1.354,0.466l4.043,4.043c0.358,0.357,0.528,0.852,0.466,1.354
				c-0.062,0.503-0.347,0.94-0.78,1.2l-9.016,4.945C4.176,29.786,3.89,29.863,3.604,29.863z M8.562,18.608
				c-0.026,0-0.053,0.002-0.079,0.005c-0.194,0.024-0.363,0.134-0.464,0.302l-4.926,8.982c-0.165,0.268-0.129,0.579,0.073,0.781
				l-0.354,0.354l0.354-0.353c0.202,0.202,0.514,0.239,0.757,0.086l9.023-4.949c0.151-0.091,0.261-0.261,0.285-0.455
				s-0.042-0.386-0.18-0.524l-4.043-4.043C8.887,18.674,8.728,18.608,8.562,18.608z"/>
		</g>
		<g>
			<path d="M3.604,29.863c-0.414,0-0.829-0.161-1.145-0.477c-0.534-0.534-0.628-1.354-0.229-1.993l4.922-8.976
				c0.003-0.006,0.006-0.012,0.01-0.017c0.26-0.434,0.697-0.719,1.199-0.78c0.502-0.064,0.996,0.107,1.354,0.466l4.043,4.043
				c0.358,0.357,0.528,0.852,0.466,1.354c-0.062,0.503-0.347,0.94-0.78,1.2l-9.016,4.945C4.176,29.786,3.89,29.863,3.604,29.863z
				 M8.023,18.908l-4.931,8.989c-0.165,0.268-0.129,0.579,0.073,0.781c0.202,0.203,0.513,0.238,0.757,0.087l9.023-4.949
				c0.151-0.091,0.261-0.261,0.285-0.455s-0.042-0.386-0.18-0.524l-4.043-4.043c-0.139-0.139-0.333-0.202-0.525-0.181
				C8.291,18.637,8.124,18.744,8.023,18.908z"/>
		</g>
		<g>
			<path d="M9.986,18.608c-0.128,0-0.256-0.049-0.354-0.146c-0.195-0.195-0.195-0.512,0-0.707l10-10
				c0.195-0.195,0.512-0.195,0.707,0s0.195,0.512,0,0.707l-10,10C10.242,18.56,10.114,18.608,9.986,18.608z"/>
		</g>
		<g>
			<path d="M21.435,9.582c-0.129,0-0.258-0.049-0.355-0.148L17.4,5.715c-0.773-0.781-0.417-2.365,0.811-3.606
				c1.219-1.232,2.683-1.967,3.916-1.967c0,0,0,0,0.001,0c0.646,0,1.193,0.208,1.582,0.602l3.68,3.718
				c0.194,0.196,0.192,0.513-0.004,0.707c-0.196,0.194-0.514,0.193-0.707-0.004l-3.68-3.718c-0.2-0.203-0.494-0.305-0.872-0.305
				c0,0,0,0,0,0c-0.957,0-2.185,0.64-3.205,1.67c-0.841,0.851-1.126,1.881-0.811,2.2l3.68,3.719
				c0.194,0.196,0.192,0.513-0.004,0.707C21.689,9.534,21.562,9.582,21.435,9.582z"/>
		</g>
		<g>
			<path d="M13.736,22.358c-0.128,0-0.256-0.049-0.354-0.146c-0.195-0.195-0.195-0.512,0-0.707L25.451,9.452
				c1.54-1.556,1.925-3.583,1.228-4.289c-0.545-0.55-1.859-0.308-3.044,0.501l1.295,1.273c0.398,0.403,0.282,1.122-0.266,1.676
				c-1.196,1.209-2.823,1.588-3.584,0.819c-0.773-0.782-0.417-2.366,0.811-3.606c0.194-0.197,0.396-0.381,0.6-0.551
				c0.005-0.006,0.011-0.012,0.017-0.018c0.032-0.033,0.068-0.061,0.106-0.083c1.725-1.376,3.783-1.719,4.776-0.715
				c1.195,1.208,0.631,3.817-1.23,5.697l-12.07,12.054C13.992,22.31,13.864,22.358,13.736,22.358z M22.847,6.292
				c-0.083,0.077-0.165,0.156-0.245,0.237c-0.841,0.85-1.127,1.881-0.811,2.2C21.872,8.812,22,8.853,22.171,8.853
				c0.515,0,1.214-0.37,1.781-0.943c0.129-0.131,0.189-0.256,0.208-0.326L22.847,6.292z"/>
		</g>
		<g>
			<path d="M3.111,29.233c-0.128,0-0.256-0.049-0.354-0.146c-0.195-0.195-0.195-0.512,0-0.707l1.875-1.875
				c0.195-0.195,0.512-0.195,0.707,0s0.195,0.512,0,0.707l-1.875,1.875C3.367,29.185,3.239,29.233,3.111,29.233z"/>
		</g>
	</g>
</g>
<g id="Baloon">
</g>
<g id="Balloons_1">
</g>
<g id="Balloons_2">
</g>
<g id="Birthday_Picture">
</g>
<g id="Kid_x27_s_Champagne">
</g>
<g id="Candy">
</g>
<g id="Birthday_Card">
</g>
<g id="Flowers">
</g>
<g id="Birthday_Song">
</g>
<g id="Candle">
</g>
<g id="Sweet_16">
</g>
<g id="Clown">
</g>
<g id="Clown_2">
</g>
<g id="Birthday_Party">
</g>
<g id="Giving_Gift">
</g>
<g id="Present_5">
</g>
<g id="Champagne_in_ice_bucket">
</g>
<g id="Beer">
</g>
<g id="Truffles">
</g>
<g id="Pinata">
</g>
</svg>
