<?xml version="1.0" encoding="iso-8859-1"?>
<!-- Generator: Adobe Illustrator 19.2.1, SVG Export Plug-In . SVG Version: 6.00 Build 0)  -->
<svg version="1.1" xmlns="http://www.w3.org/2000/svg" xmlns:xlink="http://www.w3.org/1999/xlink" x="0px" y="0px"
	 viewBox="0 0 30 30" style="enable-background:new 0 0 30 30;" xml:space="preserve">
<g id="Event">
</g>
<g id="Event_2">
</g>
<g id="Add_Event">
</g>
<g id="Remove_Event">
</g>
<g id="Event_Reminder">
</g>
<g id="Wine_Glass">
</g>
<g id="Toast">
</g>
<g id="Champagne">
</g>
<g id="Champagne_Open">
</g>
<g id="Alcohol_Drink">
</g>
<g id="Beer_Glass">
</g>
<g id="Party_Cake">
</g>
<g id="Pizza_Food">
</g>
<g id="Disco_Ball">
</g>
<g id="Equalizer">
</g>
<g id="DJ">
</g>
<g id="Tent">
</g>
<g id="Firework_1">
</g>
<g id="Firework_2">
</g>
<g id="Party_Glasses">
</g>
<g id="Barbeque">
</g>
<g id="Horn">
	<g>
		<path d="M8.147,8.147c-1.454,1.454,1.204,5.911,4.5,9.207c2.662,2.662,6.081,4.907,8.064,4.907c0.472,0,0.863-0.127,1.143-0.407
			c1.454-1.454-1.204-5.911-4.5-9.207C14.057,9.351,9.601,6.69,8.147,8.147z"/>
		<path d="M10.5,2C10.776,2,11,1.777,11,1.5v-1C11,0.224,10.776,0,10.5,0S10,0.224,10,0.5v1C10,1.777,10.224,2,10.5,2z"/>
		<path d="M10.5,6C10.776,6,11,5.777,11,5.5v-2C11,3.224,10.776,3,10.5,3S10,3.224,10,3.5v2C10,5.777,10.224,6,10.5,6z"/>
		<path d="M29.5,19h-1c-0.276,0-0.5,0.224-0.5,0.5s0.224,0.5,0.5,0.5h1c0.276,0,0.5-0.224,0.5-0.5S29.776,19,29.5,19z"/>
		<path d="M26.5,19h-2c-0.276,0-0.5,0.224-0.5,0.5s0.224,0.5,0.5,0.5h2c0.276,0,0.5-0.224,0.5-0.5S26.776,19,26.5,19z"/>
		<path d="M16.025,1.923c0.053,0.018,0.106,0.026,0.158,0.026c0.209,0,0.404-0.132,0.474-0.342l0.316-0.949
			c0.087-0.262-0.054-0.545-0.316-0.632c-0.265-0.089-0.545,0.055-0.632,0.316l-0.316,0.949C15.622,1.553,15.764,1.836,16.025,1.923
			z"/>
		<path d="M15.114,4.658c0.053,0.018,0.106,0.026,0.158,0.026c0.209,0,0.404-0.132,0.474-0.342l0.456-1.368
			c0.087-0.262-0.054-0.545-0.316-0.632c-0.263-0.089-0.545,0.054-0.632,0.316l-0.456,1.368C14.71,4.288,14.852,4.572,15.114,4.658z
			"/>
		<path d="M14.342,6.974C14.395,6.992,14.448,7,14.5,7c0.209,0,0.404-0.132,0.474-0.342l0.316-0.949
			c0.087-0.262-0.054-0.545-0.316-0.632c-0.264-0.089-0.545,0.055-0.632,0.316l-0.316,0.949C13.938,6.604,14.08,6.887,14.342,6.974z
			"/>
		<path d="M20.42,6.696c0.144,0,0.286-0.061,0.385-0.18l0.64-0.768c0.177-0.212,0.148-0.528-0.064-0.705
			c-0.213-0.177-0.528-0.148-0.705,0.064l-0.64,0.768C19.859,6.088,19.888,6.403,20.1,6.58C20.194,6.657,20.307,6.696,20.42,6.696z"
			/>
		<path d="M23.366,3.443c0.177-0.212,0.148-0.528-0.064-0.705c-0.213-0.177-0.528-0.148-0.705,0.064l-0.64,0.768
			c-0.177,0.212-0.148,0.528,0.064,0.705c0.094,0.078,0.207,0.116,0.32,0.116c0.144,0,0.286-0.061,0.385-0.18L23.366,3.443z"/>
		<path d="M18.5,9c0.144,0,0.286-0.061,0.385-0.18l0.64-0.768c0.177-0.212,0.148-0.528-0.064-0.705
			c-0.213-0.176-0.528-0.148-0.705,0.064l-0.64,0.768c-0.177,0.212-0.148,0.528,0.064,0.705C18.273,8.962,18.387,9,18.5,9z"/>
		<path d="M21.174,11.121c-0.209,0.18-0.233,0.496-0.054,0.705C21.22,11.941,21.359,12,21.5,12c0.116,0,0.231-0.04,0.326-0.121
			l0.167-0.143c0.209-0.18,0.233-0.496,0.054-0.705c-0.18-0.21-0.495-0.232-0.705-0.054L21.174,11.121z"/>
		<path d="M25.463,8.603c0.115,0,0.231-0.04,0.325-0.121l0.759-0.651c0.21-0.18,0.234-0.495,0.054-0.705
			c-0.18-0.21-0.495-0.234-0.705-0.054l-0.759,0.651c-0.21,0.18-0.234,0.495-0.054,0.705C25.182,8.544,25.322,8.603,25.463,8.603z"
			/>
		<path d="M23.51,10.435l0.759-0.651c0.21-0.18,0.234-0.495,0.054-0.705c-0.18-0.21-0.495-0.234-0.705-0.054L22.86,9.677
			c-0.21,0.18-0.234,0.495-0.054,0.705c0.099,0.116,0.239,0.175,0.379,0.175C23.3,10.556,23.416,10.516,23.51,10.435z"/>
		<path d="M28.825,5.88c0.21-0.18,0.234-0.495,0.054-0.705c-0.18-0.21-0.495-0.234-0.705-0.054l-0.759,0.651
			c-0.21,0.18-0.234,0.495-0.054,0.705c0.099,0.116,0.239,0.175,0.379,0.175c0.115,0,0.231-0.04,0.325-0.121L28.825,5.88z"/>
		<path d="M28.021,13.747c0.041,0.244,0.252,0.417,0.493,0.417c0.027,0,0.055-0.002,0.083-0.007l0.987-0.165
			c0.272-0.045,0.456-0.303,0.411-0.576c-0.045-0.272-0.303-0.459-0.575-0.411l-0.987,0.165
			C28.159,13.217,27.975,13.475,28.021,13.747z"/>
		<path d="M27.089,13.395l-1.342,0.224c-0.272,0.045-0.457,0.303-0.411,0.575c0.041,0.245,0.252,0.418,0.493,0.418
			c0.027,0,0.055-0.002,0.083-0.007l1.342-0.224c0.272-0.045,0.457-0.303,0.411-0.575C27.62,13.533,27.363,13.345,27.089,13.395z"/>
		<path d="M24.98,14.253c-0.045-0.272-0.302-0.458-0.575-0.411l-0.987,0.165c-0.272,0.045-0.456,0.303-0.411,0.576
			C23.048,14.827,23.259,15,23.5,15c0.027,0,0.055-0.002,0.083-0.007l0.987-0.165C24.841,14.783,25.025,14.526,24.98,14.253z"/>
		<path d="M7.036,10.938L0.033,29.322c-0.07,0.185-0.025,0.393,0.114,0.532C0.242,29.949,0.37,30,0.5,30
			c0.06,0,0.12-0.011,0.178-0.033l18.4-7.01c-2.293-0.757-5.074-2.832-7.139-4.897C10.252,16.373,7.87,13.451,7.036,10.938z"/>
	</g>
</g>
<g id="Speaker">
</g>
<g id="VIP">
</g>
<g id="Event_Ticket">
</g>
<g id="VIP_Ticket">
</g>
<g id="Popcorn">
</g>
<g id="Cord">
</g>
<g id="Invitation_1">
</g>
<g id="Invitation_2">
</g>
</svg>
