<?xml version="1.0" encoding="iso-8859-1"?>
<!-- Generator: Adobe Illustrator 19.2.1, SVG Export Plug-In . SVG Version: 6.00 Build 0)  -->
<svg version="1.1" xmlns="http://www.w3.org/2000/svg" xmlns:xlink="http://www.w3.org/1999/xlink" x="0px" y="0px"
	 viewBox="0 0 24 24" style="enable-background:new 0 0 24 24;" xml:space="preserve">
<g id="Event">
</g>
<g id="Event_2">
</g>
<g id="Add_Event">
</g>
<g id="Remove_Event">
</g>
<g id="Event_Reminder">
</g>
<g id="Wine_Glass">
</g>
<g id="Toast">
</g>
<g id="Champagne">
</g>
<g id="Champagne_Open">
</g>
<g id="Alcohol_Drink">
</g>
<g id="Beer_Glass">
</g>
<g id="Party_Cake">
</g>
<g id="Pizza_Food">
</g>
<g id="Disco_Ball">
</g>
<g id="Equalizer">
</g>
<g id="DJ">
</g>
<g id="Tent">
</g>
<g id="Firework_1">
</g>
<g id="Firework_2">
</g>
<g id="Party_Glasses">
</g>
<g id="Barbeque">
</g>
<g id="Horn">
	<g>
		<path d="M6.343,6.343c-1.193,1.193,1.196,4.668,3.92,7.393c2.23,2.23,4.963,4.235,6.536,4.235c0.349,0,0.641-0.099,0.857-0.315
			c1.193-1.193-1.196-4.668-3.92-7.393C11.011,7.538,7.534,5.15,6.343,6.343z"/>
		<path d="M8.435,1.011c0.02,0.003,0.04,0.004,0.06,0.004c0.25,0,0.469-0.198,0.501-0.452c0.035-0.274-0.159-0.524-0.433-0.559
			C8.29-0.021,8.039,0.164,8.004,0.437L8,0.468C7.965,0.742,8.161,0.977,8.435,1.011z"/>
		<path d="M7.938,4.996C7.959,4.999,7.98,5,8.001,5c0.249,0,0.464-0.185,0.496-0.438l0.248-1.984C8.778,2.304,8.584,2.054,8.31,2.02
			C8.038,1.985,7.786,2.18,7.752,2.454L7.504,4.438C7.47,4.712,7.664,4.962,7.938,4.996z"/>
		<path d="M21.422,15.256l-1.984,0.248c-0.274,0.034-0.468,0.284-0.434,0.558c0.032,0.253,0.247,0.438,0.496,0.438
			c0.021,0,0.042-0.001,0.063-0.004l1.984-0.248c0.274-0.034,0.468-0.284,0.434-0.558C21.946,15.417,21.701,15.226,21.422,15.256z"
			/>
		<path d="M23.437,15.004l-0.031,0.004c-0.274,0.035-0.453,0.283-0.417,0.557c0.032,0.252,0.26,0.435,0.51,0.435
			c0.021,0,0.043-0.001,0.064-0.004c0.274-0.035,0.468-0.285,0.433-0.559C23.961,15.163,23.711,14.975,23.437,15.004z"/>
		<path d="M12.917,1.882c0.063,0.027,0.129,0.04,0.194,0.04c0.195,0,0.38-0.115,0.46-0.306l0.389-0.921
			c0.107-0.254-0.012-0.548-0.266-0.655c-0.253-0.108-0.548,0.011-0.655,0.266l-0.389,0.921C12.543,1.482,12.663,1.775,12.917,1.882
			z"/>
		<path d="M11.397,5.481c0.064,0.027,0.13,0.04,0.195,0.04c0.195,0,0.38-0.115,0.46-0.305l0.389-0.921
			c0.107-0.254-0.011-0.548-0.266-0.655c-0.256-0.108-0.548,0.012-0.655,0.266l-0.389,0.921C11.024,5.08,11.143,5.374,11.397,5.481z
			"/>
		<path d="M14.5,7.5c0.145,0,0.289-0.063,0.387-0.184l0.633-0.774c0.175-0.213,0.144-0.528-0.07-0.703
			c-0.213-0.175-0.529-0.144-0.703,0.07l-0.633,0.774c-0.175,0.213-0.144,0.528,0.07,0.703C14.276,7.463,14.388,7.5,14.5,7.5z"/>
		<path d="M18.299,2.857c0.145,0,0.289-0.063,0.387-0.184l0.633-0.774c0.175-0.213,0.144-0.528-0.07-0.703
			c-0.213-0.175-0.529-0.144-0.703,0.07L17.913,2.04c-0.175,0.213-0.144,0.528,0.07,0.703C18.076,2.819,18.188,2.857,18.299,2.857z"
			/>
		<path d="M16.399,5.178c0.145,0,0.289-0.063,0.388-0.184l0.633-0.774c0.175-0.214,0.143-0.529-0.071-0.704
			c-0.214-0.174-0.528-0.144-0.704,0.071l-0.633,0.774c-0.175,0.214-0.143,0.529,0.071,0.704
			C16.176,5.141,16.288,5.178,16.399,5.178z"/>
		<path d="M22.887,4.684c-0.175-0.214-0.49-0.246-0.703-0.07L21.41,5.247c-0.214,0.175-0.246,0.49-0.07,0.703
			c0.099,0.121,0.242,0.184,0.387,0.184c0.111,0,0.223-0.037,0.316-0.113l0.774-0.633C23.03,5.212,23.062,4.897,22.887,4.684z"/>
		<path d="M17.54,8.413l-0.774,0.633c-0.214,0.175-0.246,0.49-0.07,0.703c0.099,0.121,0.242,0.184,0.387,0.184
			c0.111,0,0.223-0.037,0.316-0.113l0.774-0.633c0.214-0.175,0.246-0.49,0.07-0.703C18.068,8.268,17.753,8.237,17.54,8.413z"/>
		<path d="M19.017,7.849c0.099,0.121,0.243,0.184,0.388,0.184c0.111,0,0.223-0.037,0.316-0.113l0.774-0.633
			c0.214-0.175,0.246-0.49,0.071-0.704c-0.175-0.215-0.49-0.246-0.704-0.071l-0.774,0.633C18.874,7.32,18.842,7.635,19.017,7.849z"
			/>
		<path d="M23.978,10.353c-0.081-0.264-0.36-0.411-0.625-0.33l-0.956,0.295c-0.264,0.081-0.412,0.361-0.33,0.625
			c0.066,0.215,0.264,0.353,0.478,0.353c0.049,0,0.098-0.007,0.147-0.022l0.956-0.295C23.911,10.897,24.059,10.616,23.978,10.353z"
			/>
		<path d="M20.085,12.078c0.264-0.081,0.412-0.361,0.33-0.625c-0.081-0.264-0.36-0.41-0.625-0.33l-0.956,0.295
			c-0.264,0.081-0.412,0.361-0.33,0.625c0.066,0.215,0.264,0.353,0.478,0.353c0.049,0,0.098-0.007,0.147-0.022L20.085,12.078z"/>
		<path d="M5.371,8.725L0.03,23.328c-0.067,0.183-0.021,0.388,0.116,0.525C0.242,23.949,0.37,24,0.5,24
			c0.058,0,0.116-0.01,0.172-0.03l14.592-5.335c-2.282-0.896-4.848-3.331-5.708-4.192C8.58,13.467,6.243,10.97,5.371,8.725z"/>
	</g>
</g>
<g id="Speaker">
</g>
<g id="VIP">
</g>
<g id="Event_Ticket">
</g>
<g id="VIP_Ticket">
</g>
<g id="Popcorn">
</g>
<g id="Cord">
</g>
<g id="Invitation_1">
</g>
<g id="Invitation_2">
</g>
</svg>
