<?xml version="1.0" encoding="iso-8859-1"?>
<!-- Generator: Adobe Illustrator 19.2.1, SVG Export Plug-In . SVG Version: 6.00 Build 0)  -->
<svg version="1.1" xmlns="http://www.w3.org/2000/svg" xmlns:xlink="http://www.w3.org/1999/xlink" x="0px" y="0px"
	 viewBox="0 0 30 30" style="enable-background:new 0 0 30 30;" xml:space="preserve">
<g id="Present_1">
</g>
<g id="Present_2">
</g>
<g id="Present_3">
</g>
<g id="Present_Cake">
</g>
<g id="Present_4">
</g>
<g id="Birthday_Cake_1">
</g>
<g id="Birthday_Cake_2">
</g>
<g id="Cake_Piece">
</g>
<g id="Cupcake">
</g>
<g id="Lollipop">
</g>
<g id="Birthday_Greetings_1">
</g>
<g id="Party_Greetings_2">
</g>
<g id="Birthday_Invitation">
</g>
<g id="Birthday_1">
</g>
<g id="Birthday_2">
</g>
<g id="Birthday_Message_1">
</g>
<g id="Birthday_Message_2">
</g>
<g id="Birthyday_Hat_1">
</g>
<g id="Birthay_Hat_2">
</g>
<g id="Birthday_Hat3">
</g>
<g id="Birthday_Decoration_1">
</g>
<g id="Birthday_Decoration_2">
</g>
<g id="Birthday_Decoration_3">
</g>
<g id="Horn_1">
	<g>
		<path d="M16.499,13.501c-1.292-1.291-2.703-2.318-3.974-2.892c-1.419-0.642-2.549-0.648-3.179-0.018
			c-0.63,0.629-0.624,1.759,0.018,3.18c0.574,1.271,1.601,2.683,2.893,3.974c1.863,1.862,4.249,3.381,5.886,3.381
			c0.506,0,0.941-0.146,1.267-0.471c0.63-0.63,0.624-1.759-0.018-3.18C18.817,16.203,17.79,14.792,16.499,13.501z"/>
		<path d="M8.452,14.182c-0.213-0.472-0.341-0.888-0.432-1.277L0.175,29.157c-0.093,0.192-0.054,0.421,0.097,0.571
			c0.096,0.096,0.224,0.146,0.354,0.146c0.074,0,0.148-0.017,0.217-0.05l16.253-7.846c-1.921-0.46-4.048-2.03-5.546-3.528
			C10.175,17.077,9.075,15.561,8.452,14.182z"/>
		<path d="M29.822,17.901c-0.124-0.247-0.423-0.348-0.671-0.224l-1.488,0.744c-0.494,0.246-1.082,0.246-1.576,0l-0.477-0.238
			c-0.773-0.387-1.697-0.387-2.471,0l-1.488,0.744c-0.247,0.124-0.347,0.424-0.224,0.671c0.088,0.175,0.265,0.276,0.447,0.276
			c0.075,0,0.151-0.017,0.224-0.053l1.488-0.744c0.494-0.246,1.082-0.246,1.576,0l0.477,0.238c0.773,0.387,1.697,0.387,2.471,0
			l1.488-0.744C29.846,18.448,29.945,18.148,29.822,17.901z"/>
		<path d="M10.401,8.572c0.072,0.036,0.148,0.053,0.223,0.053c0.184,0,0.36-0.101,0.448-0.276l0.744-1.489
			c0.387-0.773,0.387-1.696,0-2.469l-0.238-0.478c-0.247-0.493-0.247-1.082,0-1.575l0.744-1.489
			c0.124-0.247,0.023-0.547-0.224-0.671c-0.248-0.124-0.547-0.024-0.671,0.224L10.684,1.89c-0.387,0.773-0.387,1.696,0,2.469
			l0.238,0.478c0.247,0.493,0.247,1.082,0,1.575l-0.744,1.489C10.054,8.148,10.154,8.449,10.401,8.572z"/>
		<path d="M15.625,11.125c0.276,0,0.5-0.224,0.5-0.5V8.272c0-0.671,0.373-1.275,0.974-1.575c0.941-0.471,1.526-1.417,1.526-2.47
			V3.631c0-0.552,0.264-1.079,0.704-1.409l1.596-1.197c0.221-0.166,0.266-0.479,0.101-0.7c-0.167-0.222-0.479-0.265-0.7-0.1
			l-1.596,1.197c-0.691,0.518-1.104,1.344-1.104,2.209v0.597c0,0.671-0.373,1.275-0.974,1.575c-0.941,0.471-1.526,1.417-1.526,2.47
			v2.353C15.125,10.901,15.349,11.125,15.625,11.125z"/>
		<path d="M28.975,9.075l-1.195,1.595c-0.332,0.441-0.858,0.705-1.41,0.705h-0.597c-1.053,0-1.999,0.585-2.47,1.526
			c-0.3,0.601-0.903,0.974-1.575,0.974h-2.353c-0.276,0-0.5,0.224-0.5,0.5s0.224,0.5,0.5,0.5h2.353c1.053,0,1.999-0.585,2.47-1.526
			c0.3-0.601,0.903-0.974,1.575-0.974h0.597c0.864,0,1.69-0.413,2.21-1.104l1.196-1.596c0.165-0.221,0.12-0.534-0.101-0.7
			C29.456,8.81,29.142,8.854,28.975,9.075z"/>
		<path d="M19.927,10.616c-0.257,0.103-0.381,0.394-0.278,0.65c0.078,0.195,0.266,0.314,0.464,0.314
			c0.062,0,0.125-0.011,0.186-0.036c0.871-0.349,1.5-1.105,1.683-2.023l0.127-0.637c0.124-0.618,0.572-1.126,1.171-1.326
			l1.213-0.404C25.464,6.831,26.173,6,26.342,4.989l0.229-1.377c0.085-0.51,0.389-0.955,0.831-1.221l2.229-1.338
			c0.237-0.142,0.314-0.449,0.172-0.686c-0.142-0.237-0.45-0.312-0.686-0.171l-2.229,1.338c-0.694,0.417-1.17,1.114-1.304,1.914
			l-0.229,1.377C25.248,5.47,24.796,6,24.175,6.207l-1.213,0.404c-0.938,0.313-1.641,1.109-1.835,2.078L21,9.326
			C20.883,9.912,20.482,10.394,19.927,10.616z"/>
	</g>
</g>
<g id="Horn_2">
</g>
<g id="Baloon">
</g>
<g id="Balloons_1">
</g>
<g id="Balloons_2">
</g>
<g id="Birthday_Picture">
</g>
<g id="Kid_x27_s_Champagne">
</g>
<g id="Candy">
</g>
<g id="Birthday_Card">
</g>
<g id="Flowers">
</g>
<g id="Birthday_Song">
</g>
<g id="Candle">
</g>
<g id="Sweet_16">
</g>
<g id="Clown">
</g>
<g id="Clown_2">
</g>
<g id="Birthday_Party">
</g>
<g id="Giving_Gift">
</g>
<g id="Present_5">
</g>
<g id="Champagne_in_ice_bucket">
</g>
<g id="Beer">
</g>
<g id="Truffles">
</g>
<g id="Pinata">
</g>
</svg>
