<?xml version="1.0" encoding="iso-8859-1"?>
<!-- Generator: Adobe Illustrator 19.2.1, SVG Export Plug-In . SVG Version: 6.00 Build 0)  -->
<svg version="1.1" xmlns="http://www.w3.org/2000/svg" xmlns:xlink="http://www.w3.org/1999/xlink" x="0px" y="0px"
	 viewBox="0 0 30 30" style="enable-background:new 0 0 30 30;" xml:space="preserve">
<g id="Snowflake_1">
</g>
<g id="Snowflake_2">
</g>
<g id="Snowflake_3">
</g>
<g id="Snowflake_4">
</g>
<g id="Winter_Cap_1">
</g>
<g id="Winter_Cap_2">
</g>
<g id="Glowes">
</g>
<g id="Sweater_1">
</g>
<g id="Sweater_2">
</g>
<g id="Sweater_3">
</g>
<g id="Scarf">
</g>
<g id="Winter_Socks">
</g>
<g id="Winter_Sock">
</g>
<g id="Winter_Coat">
</g>
<g id="Winter_Calendar">
</g>
<g id="Thermometer_1">
</g>
<g id="Thermometer_2">
</g>
<g id="Cold">
</g>
<g id="Icicle">
</g>
<g id="Snowing">
</g>
<g id="Snow_Shoes_1">
</g>
<g id="Snow_Shoes_2">
</g>
<g id="Sledge">
</g>
<g id="Snow_Boots">
</g>
<g id="Snowcapped_Mountains">
</g>
<g id="Skis">
</g>
<g id="Sky_Glasses">
</g>
<g id="Snowboard">
</g>
<g id="Ice_Skate">
</g>
<g id="Wooden_House">
</g>
<g id="Snowcapped_House">
</g>
<g id="Hot_Drink">
</g>
<g id="Hot_Chocolate">
	<g>
		<g>
			<path d="M16.675,8c-0.131,0-0.262-0.052-0.36-0.153c-1.11-1.155-1.11-3.036,0-4.192c0.746-0.775,0.746-2.034,0.002-2.808
				c-0.191-0.199-0.185-0.516,0.014-0.707c0.2-0.192,0.515-0.185,0.707,0.014c1.11,1.155,1.11,3.036,0,4.192
				c-0.746,0.775-0.746,2.034-0.002,2.808c0.191,0.199,0.185,0.516-0.014,0.707C16.924,7.954,16.799,8,16.675,8z"/>
		</g>
		<g>
			<path d="M12.469,8c-0.131,0-0.262-0.052-0.36-0.153c-1.11-1.155-1.11-3.036,0-4.192c0.746-0.775,0.746-2.034,0.002-2.808
				c-0.191-0.199-0.185-0.516,0.014-0.707c0.199-0.192,0.516-0.185,0.707,0.014c1.11,1.155,1.11,3.036,0,4.192
				c-0.746,0.775-0.746,2.034-0.002,2.808c0.191,0.199,0.185,0.516-0.014,0.707C12.719,7.954,12.594,8,12.469,8z"/>
		</g>
		<g>
			<path d="M8.275,8c-0.131,0-0.262-0.052-0.36-0.153c-1.11-1.155-1.11-3.036,0-4.192C8.66,2.879,8.66,1.62,7.917,0.847
				C7.725,0.647,7.731,0.331,7.93,0.14c0.2-0.192,0.516-0.185,0.707,0.014c1.11,1.155,1.11,3.036,0,4.192
				C7.892,5.121,7.892,6.38,8.635,7.153C8.827,7.353,8.82,7.669,8.622,7.86C8.524,7.954,8.399,8,8.275,8z"/>
		</g>
		<g>
			<path d="M17.142,30H7.814c-0.756,0-1.396-0.566-1.488-1.317L3.982,9.561C3.964,9.419,4.009,9.276,4.104,9.169
				C4.199,9.062,4.335,9,4.478,9h16c0.143,0,0.279,0.062,0.375,0.169c0.095,0.107,0.139,0.25,0.122,0.392L18.63,28.683
				C18.539,29.434,17.898,30,17.142,30z M5.043,10l2.275,18.562C7.349,28.812,7.563,29,7.814,29h9.328
				c0.252,0,0.465-0.188,0.496-0.438L19.913,10H5.043z"/>
		</g>
		<g>
			<path d="M19.02,21.91c-0.2,0-0.389-0.121-0.466-0.318c-0.1-0.258,0.027-0.547,0.284-0.647c1.525-0.594,6.474-2.734,6.146-5.342
				c-0.082-0.648-0.323-1.071-0.738-1.295c-0.957-0.518-2.779,0.029-4.165,0.712c-0.249,0.121-0.547,0.02-0.669-0.229
				c-0.122-0.248-0.02-0.548,0.228-0.67c1.002-0.491,3.501-1.545,5.081-0.694c0.71,0.383,1.133,1.072,1.256,2.051
				c0.393,3.118-4.076,5.347-6.774,6.398C19.142,21.899,19.081,21.91,19.02,21.91z"/>
		</g>
	</g>
</g>
<g id="Lantern">
</g>
<g id="Snow_Shovel">
</g>
<g id="Snowman">
</g>
<g id="Reindeer">
</g>
<g id="Snowmobile">
</g>
<g id="Snow_Chain">
</g>
<g id="Slippery_Road">
</g>
</svg>
