<?xml version="1.0" encoding="iso-8859-1"?>
<!-- Generator: Adobe Illustrator 19.2.1, SVG Export Plug-In . SVG Version: 6.00 Build 0)  -->
<svg version="1.1" xmlns="http://www.w3.org/2000/svg" xmlns:xlink="http://www.w3.org/1999/xlink" x="0px" y="0px"
	 viewBox="0 0 30 30" style="enable-background:new 0 0 30 30;" xml:space="preserve">
<g id="Restaurant_sign_1">
</g>
<g id="Restaurant_Sign_2">
</g>
<g id="Restaurant_Sign_3">
</g>
<g id="Hot_Drink_1">
</g>
<g id="Hot_Drink_2">
	<g>
		<path d="M27.479,14.403c0-1.129-0.363-1.964-1.079-2.484c-1.128-0.819-2.84-0.608-4.074-0.29c0.049-0.858,0.077-1.514,0.094-2.09
			c0.012-0.406-0.138-0.791-0.422-1.083C21.712,8.162,21.329,8,20.919,8H6.556C6.148,8,5.767,8.16,5.482,8.45
			C5.199,8.739,5.047,9.122,5.055,9.528v0C5.155,14.349,5.724,22.491,8.271,26H2.5c-0.184,0-0.354,0.102-0.441,0.264
			c-0.087,0.162-0.078,0.359,0.024,0.513l1.185,1.78C3.964,29.461,4.886,30,5.735,30h15.529c0.85,0,1.771-0.539,2.486-1.471
			l1.165-1.752c0.103-0.154,0.111-0.352,0.024-0.514S24.685,26,24.5,26h-5.302c0.712-1.042,1.319-2.611,1.838-4.753
			C25.312,19.626,27.479,17.324,27.479,14.403z M20.717,18.041c0.153-1.004,0.255-1.932,0.36-3.016
			c0.019-0.181,0.133-0.338,0.301-0.411c0.163-0.07,0.309-0.121,0.45-0.169c0.087-0.03,0.171-0.059,0.256-0.092
			c0.806-0.321,1.375-0.511,2.43-0.485c0.271,0.008,0.486,0.229,0.486,0.5c0,1.958-1.937,3.358-3.561,4.193
			c-0.072,0.037-0.15,0.056-0.229,0.056c-0.103,0-0.205-0.032-0.292-0.094C20.767,18.412,20.688,18.227,20.717,18.041z"/>
		<path d="M17.639,5.847C17.737,5.949,17.868,6,17.999,6c0.125,0,0.25-0.046,0.347-0.14c0.199-0.191,0.205-0.508,0.014-0.707
			c-0.48-0.498-0.48-1.307,0.002-1.807c0.849-0.88,0.849-2.313,0-3.193c-0.192-0.198-0.509-0.205-0.707-0.013
			c-0.199,0.191-0.205,0.508-0.014,0.707c0.48,0.498,0.48,1.307-0.002,1.807C16.79,3.534,16.79,4.967,17.639,5.847z"/>
		<path d="M13.639,5.847C13.737,5.949,13.868,6,13.999,6c0.125,0,0.25-0.046,0.347-0.14c0.199-0.192,0.205-0.508,0.013-0.707
			c-0.48-0.498-0.48-1.307,0.002-1.807c0.849-0.88,0.849-2.313,0-3.193c-0.191-0.198-0.507-0.205-0.707-0.013
			c-0.199,0.192-0.205,0.508-0.013,0.707c0.48,0.498,0.48,1.307-0.002,1.807C12.79,3.534,12.79,4.967,13.639,5.847z"/>
		<path d="M9.639,5.847C9.737,5.949,9.868,6,9.999,6c0.125,0,0.25-0.046,0.347-0.14c0.199-0.192,0.205-0.508,0.013-0.707
			c-0.48-0.498-0.48-1.307,0.002-1.807c0.849-0.88,0.849-2.313,0-3.193C10.169-0.045,9.853-0.052,9.654,0.14
			C9.455,0.332,9.449,0.648,9.641,0.847c0.48,0.498,0.48,1.307-0.002,1.807C8.79,3.534,8.79,4.967,9.639,5.847z"/>
	</g>
</g>
<g id="Cocktail">
</g>
<g id="Shot_Glasses">
</g>
<g id="Chilled_Champagne">
</g>
<g id="Wine">
</g>
<g id="Wine_List">
</g>
<g id="Menu">
</g>
<g id="Menu_2">
</g>
<g id="Salver">
</g>
<g id="Soup">
</g>
<g id="Sushi">
</g>
<g id="Pizza">
</g>
<g id="Pizza_Slice">
</g>
<g id="Fish">
</g>
<g id="Sausage">
</g>
<g id="Course">
</g>
<g id="Dessert">
</g>
<g id="Cutlery">
</g>
<g id="Napkin">
</g>
<g id="Table">
</g>
<g id="Spices">
</g>
<g id="Hot_Sauce">
</g>
<g id="Reserved_1">
</g>
<g id="Reserved_2">
</g>
<g id="Open">
</g>
<g id="Food_Photo">
</g>
<g id="Chef">
</g>
<g id="Bill">
</g>
<g id="Bill_2">
</g>
<g id="Paying_1">
</g>
<g id="Paying_2">
</g>
<g id="Restaurant_Place">
</g>
</svg>
