<?xml version="1.0" encoding="iso-8859-1"?>
<!-- Generator: Adobe Illustrator 19.2.1, SVG Export Plug-In . SVG Version: 6.00 Build 0)  -->
<svg version="1.1" xmlns="http://www.w3.org/2000/svg" xmlns:xlink="http://www.w3.org/1999/xlink" x="0px" y="0px"
	 viewBox="0 0 30 30" style="enable-background:new 0 0 30 30;" xml:space="preserve">
<g id="Restaurant_sign_1">
</g>
<g id="Restaurant_Sign_2">
</g>
<g id="Restaurant_Sign_3">
</g>
<g id="Hot_Drink_1">
	<g>
		<path d="M17.652,6.283c0,0.627,0.286,1.211,0.807,1.645c0.094,0.078,0.207,0.116,0.32,0.116c0.143,0,0.285-0.061,0.384-0.18
			c0.177-0.212,0.148-0.527-0.063-0.704c-0.288-0.24-0.447-0.551-0.447-0.876c0-0.325,0.159-0.636,0.449-0.877
			c0.521-0.434,0.807-1.018,0.807-1.645c0-0.627-0.286-1.211-0.807-1.645C18.89,1.94,18.575,1.967,18.397,2.18
			c-0.177,0.212-0.148,0.527,0.063,0.704c0.288,0.24,0.447,0.551,0.447,0.876c0,0.325-0.159,0.637-0.449,0.878
			C17.938,5.072,17.652,5.656,17.652,6.283z"/>
		<path d="M13.865,6.283c0,0.627,0.287,1.211,0.807,1.645c0.093,0.078,0.207,0.116,0.319,0.116c0.144,0,0.286-0.061,0.385-0.18
			c0.177-0.212,0.148-0.527-0.064-0.704c-0.288-0.24-0.447-0.551-0.447-0.876c0-0.325,0.159-0.636,0.448-0.877
			c0.521-0.434,0.807-1.018,0.807-1.645c0-0.627-0.287-1.211-0.807-1.645c-0.212-0.176-0.527-0.147-0.704,0.064
			s-0.148,0.527,0.064,0.704c0.288,0.24,0.447,0.551,0.447,0.876c0,0.325-0.159,0.637-0.448,0.878
			C14.151,5.072,13.865,5.656,13.865,6.283z"/>
		<path d="M10.087,6.283c0,0.627,0.287,1.211,0.807,1.645c0.093,0.078,0.207,0.116,0.319,0.116c0.144,0,0.286-0.061,0.385-0.18
			c0.177-0.212,0.148-0.527-0.064-0.704c-0.288-0.24-0.447-0.551-0.447-0.876c0-0.325,0.159-0.636,0.449-0.877
			c0.521-0.434,0.807-1.018,0.807-1.645c0-0.627-0.287-1.211-0.807-1.645c-0.212-0.176-0.527-0.147-0.704,0.064
			s-0.148,0.527,0.064,0.704c0.288,0.24,0.447,0.551,0.447,0.876c0,0.325-0.159,0.637-0.449,0.878
			C10.374,5.072,10.087,5.656,10.087,6.283z"/>
		<path d="M28.5,23h-6.87c1.308-0.913,2.213-2.366,2.351-4.044C24.582,19.311,25.273,19.5,26,19.5c2.206,0,4-1.794,4-4
			c0-2.206-1.794-4-4-4c-0.719,0-1.403,0.185-2,0.533V11c0-1.103-0.897-2-2-2H7c-1.103,0-2,0.897-2,2v7.5
			c0,1.86,0.93,3.504,2.348,4.5H0.5c-0.16,0-0.311,0.077-0.405,0.206c-0.094,0.13-0.12,0.297-0.07,0.449l0.248,0.741
			C1.065,25.954,2.625,27,4.157,27h20.686c1.531,0,3.093-1.046,3.914-2.675l0.219-0.67c0.05-0.152,0.023-0.319-0.071-0.449
			C28.811,23.077,28.66,23,28.5,23z M26,14c0.827,0,1.5,0.673,1.5,1.5S26.827,17,26,17s-1.5-0.673-1.5-1.5S25.173,14,26,14z"/>
	</g>
</g>
<g id="Hot_Drink_2">
</g>
<g id="Cocktail">
</g>
<g id="Shot_Glasses">
</g>
<g id="Chilled_Champagne">
</g>
<g id="Wine">
</g>
<g id="Wine_List">
</g>
<g id="Menu">
</g>
<g id="Menu_2">
</g>
<g id="Salver">
</g>
<g id="Soup">
</g>
<g id="Sushi">
</g>
<g id="Pizza">
</g>
<g id="Pizza_Slice">
</g>
<g id="Fish">
</g>
<g id="Sausage">
</g>
<g id="Course">
</g>
<g id="Dessert">
</g>
<g id="Cutlery">
</g>
<g id="Napkin">
</g>
<g id="Table">
</g>
<g id="Spices">
</g>
<g id="Hot_Sauce">
</g>
<g id="Reserved_1">
</g>
<g id="Reserved_2">
</g>
<g id="Open">
</g>
<g id="Food_Photo">
</g>
<g id="Chef">
</g>
<g id="Bill">
</g>
<g id="Bill_2">
</g>
<g id="Paying_1">
</g>
<g id="Paying_2">
</g>
<g id="Restaurant_Place">
</g>
</svg>
