<?xml version="1.0" encoding="iso-8859-1"?>
<!-- Generator: Adobe Illustrator 19.2.1, SVG Export Plug-In . SVG Version: 6.00 Build 0)  -->
<svg version="1.1" xmlns="http://www.w3.org/2000/svg" xmlns:xlink="http://www.w3.org/1999/xlink" x="0px" y="0px"
	 viewBox="0 0 30 30" style="enable-background:new 0 0 30 30;" xml:space="preserve">
<g id="Snowflake_1">
</g>
<g id="Snowflake_2">
</g>
<g id="Snowflake_3">
</g>
<g id="Snowflake_4">
</g>
<g id="Winter_Cap_1">
</g>
<g id="Winter_Cap_2">
</g>
<g id="Glowes">
</g>
<g id="Sweater_1">
</g>
<g id="Sweater_2">
</g>
<g id="Sweater_3">
</g>
<g id="Scarf">
</g>
<g id="Winter_Socks">
</g>
<g id="Winter_Sock">
</g>
<g id="Winter_Coat">
</g>
<g id="Winter_Calendar">
</g>
<g id="Thermometer_1">
</g>
<g id="Thermometer_2">
</g>
<g id="Cold">
</g>
<g id="Icicle">
</g>
<g id="Snowing">
</g>
<g id="Snow_Shoes_1">
</g>
<g id="Snow_Shoes_2">
</g>
<g id="Sledge">
</g>
<g id="Snow_Boots">
</g>
<g id="Snowcapped_Mountains">
</g>
<g id="Skis">
</g>
<g id="Sky_Glasses">
</g>
<g id="Snowboard">
</g>
<g id="Ice_Skate">
</g>
<g id="Wooden_House">
</g>
<g id="Snowcapped_House">
</g>
<g id="Hot_Drink">
	<g>
		<path d="M23.862,17.775C24.505,18.519,25.443,19,26.5,19c1.93,0,3.5-1.57,3.5-3.5S28.43,12,26.5,12c-0.98,0-1.864,0.407-2.5,1.058
			V10.5c0-0.276-0.224-0.5-0.5-0.5h-18C5.224,10,5,10.224,5,10.5v5.65C5,19,6.117,21.801,8.095,24H0.5
			c-0.195,0-0.373,0.113-0.454,0.291c-0.082,0.177-0.053,0.386,0.074,0.534l1.44,1.682C2.26,27.207,3.054,28,4.283,28h20.173
			c1.229,0,2.022-0.793,2.749-1.521l1.414-1.653c0.127-0.148,0.156-0.357,0.074-0.534C28.611,24.113,28.435,24,28.239,24h-7.382
			C22.481,22.219,23.519,20.046,23.862,17.775z M26.5,13c1.379,0,2.5,1.122,2.5,2.5c0,1.379-1.121,2.5-2.5,2.5S24,16.879,24,15.5
			C24,14.122,25.121,13,26.5,13z"/>
		<path d="M18.386,8.802C18.484,8.932,18.634,9,18.784,9c0.105,0,0.212-0.033,0.302-0.102c0.221-0.167,0.264-0.48,0.097-0.7
			c-0.696-0.92-0.696-2.475,0.002-3.398c0.978-1.29,0.978-3.312,0-4.602c-0.168-0.221-0.482-0.263-0.7-0.097
			c-0.221,0.167-0.264,0.48-0.097,0.7c0.696,0.92,0.696,2.475-0.002,3.398C17.408,5.49,17.408,7.512,18.386,8.802z"/>
		<path d="M14.598,8.802C14.696,8.932,14.846,9,14.997,9c0.105,0,0.211-0.033,0.301-0.102c0.22-0.167,0.264-0.48,0.097-0.7
			c-0.696-0.92-0.696-2.475,0.002-3.398c0.977-1.29,0.977-3.312,0-4.602c-0.167-0.22-0.48-0.264-0.7-0.097
			c-0.22,0.167-0.264,0.48-0.097,0.7c0.696,0.92,0.696,2.475-0.002,3.398C13.621,5.49,13.621,7.512,14.598,8.802z"/>
		<path d="M10.82,8.802C10.918,8.932,11.068,9,11.219,9c0.105,0,0.211-0.033,0.301-0.102c0.22-0.167,0.264-0.48,0.097-0.7
			c-0.696-0.92-0.696-2.475,0.002-3.398c0.977-1.29,0.977-3.312,0-4.602c-0.167-0.22-0.481-0.264-0.7-0.097
			c-0.22,0.167-0.264,0.48-0.097,0.7c0.696,0.92,0.696,2.475-0.002,3.398C9.843,5.49,9.843,7.512,10.82,8.802z"/>
	</g>
</g>
<g id="Hot_Chocolate">
</g>
<g id="Lantern">
</g>
<g id="Snow_Shovel">
</g>
<g id="Snowman">
</g>
<g id="Reindeer">
</g>
<g id="Snowmobile">
</g>
<g id="Snow_Chain">
</g>
<g id="Slippery_Road">
</g>
</svg>
