<?xml version="1.0" encoding="iso-8859-1"?>
<!-- Generator: Adobe Illustrator 19.2.1, SVG Export Plug-In . SVG Version: 6.00 Build 0)  -->
<svg version="1.1" xmlns="http://www.w3.org/2000/svg" xmlns:xlink="http://www.w3.org/1999/xlink" x="0px" y="0px"
	 viewBox="0 0 30 30" style="enable-background:new 0 0 30 30;" xml:space="preserve">
<g id="Cad_1">
</g>
<g id="Cad_2">
</g>
<g id="Cad_Pencil">
</g>
<g id="Cad_Compasses">
</g>
<g id="Tools_1">
</g>
<g id="Tools_2">
</g>
<g id="Ruler_1">
</g>
<g id="Ruler_2">
</g>
<g id="Workspace_1">
</g>
<g id="Workspace_2">
</g>
<g id="Cad_3">
</g>
<g id="_x33_D_Box">
</g>
<g id="Section_Symbol">
</g>
<g id="Outlet_Symbol">
</g>
<g id="Cad_File">
</g>
<g id="Blueprint">
</g>
<g id="Construction_Plan">
</g>
<g id="Roof_Plan">
</g>
<g id="House_Construction">
</g>
<g id="Building_Construction">
</g>
<g id="Work_Table">
</g>
<g id="Table_Cad">
</g>
<g id="House_Plan">
	<g>
		<path d="M27,12c0-0.276-0.224-0.5-0.5-0.5S26,11.724,26,12v1c0,0.276,0.224,0.5,0.5,0.5S27,13.276,27,13V12z"/>
		<path d="M27,15.167c0-0.276-0.224-0.5-0.5-0.5s-0.5,0.224-0.5,0.5v2.167c0,0.276,0.224,0.5,0.5,0.5s0.5-0.224,0.5-0.5V15.167z"/>
		<path d="M26.5,19c-0.276,0-0.5,0.224-0.5,0.5V20h-0.5c-0.276,0-0.5,0.224-0.5,0.5s0.224,0.5,0.5,0.5h1c0.276,0,0.5-0.224,0.5-0.5
			v-1C27,19.224,26.776,19,26.5,19z"/>
		<path d="M18.8,21h1.675c0.276,0,0.5-0.224,0.5-0.5s-0.224-0.5-0.5-0.5H18.8c-0.276,0-0.5,0.224-0.5,0.5S18.524,21,18.8,21z"/>
		<path d="M22.15,21h1.675c0.276,0,0.5-0.224,0.5-0.5s-0.224-0.5-0.5-0.5H22.15c-0.276,0-0.5,0.224-0.5,0.5S21.874,21,22.15,21z"/>
		<path d="M16.125,20c-0.276,0-0.5,0.224-0.5,0.5s0.224,0.5,0.5,0.5h1c0.276,0,0.5-0.224,0.5-0.5s-0.224-0.5-0.5-0.5H16.125z"/>
		<path d="M19.673,1.569L20,1.226l0.327,0.343c0.098,0.104,0.23,0.156,0.362,0.156c0.124,0,0.248-0.045,0.344-0.138
			c0.2-0.19,0.208-0.506,0.018-0.707l-0.689-0.725c-0.188-0.199-0.536-0.199-0.725,0l-0.689,0.725
			c-0.19,0.2-0.182,0.517,0.018,0.707C19.167,1.779,19.483,1.77,19.673,1.569z"/>
		<path d="M23.576,4.989c0.098,0.104,0.23,0.156,0.362,0.156c0.124,0,0.248-0.045,0.344-0.138c0.2-0.19,0.208-0.506,0.018-0.707
			l-1.625-1.71c-0.189-0.199-0.505-0.208-0.707-0.018c-0.2,0.19-0.208,0.506-0.018,0.707L23.576,4.989z"/>
		<path d="M26.825,8.409c0.098,0.104,0.23,0.156,0.362,0.156c0.124,0,0.248-0.045,0.344-0.138c0.2-0.19,0.208-0.506,0.018-0.707
			l-1.625-1.71c-0.189-0.2-0.506-0.208-0.707-0.018c-0.2,0.19-0.208,0.506-0.018,0.707L26.825,8.409z"/>
		<path d="M28.5,11h1c0.2,0,0.38-0.119,0.459-0.303c0.079-0.184,0.041-0.397-0.097-0.542l-0.689-0.725
			c-0.189-0.2-0.505-0.209-0.707-0.018c-0.168,0.16-0.201,0.409-0.094,0.604C28.158,10.072,28,10.268,28,10.5
			C28,10.776,28.224,11,28.5,11z"/>
		<path d="M19.556,10.5c0-0.276-0.224-0.5-0.5-0.5h-1.889c-0.276,0-0.5,0.224-0.5,0.5s0.224,0.5,0.5,0.5h1.889
			C19.332,11,19.556,10.776,19.556,10.5z"/>
		<path d="M12.889,10.5c0,0.276,0.224,0.5,0.5,0.5h1.889c0.276,0,0.5-0.224,0.5-0.5s-0.224-0.5-0.5-0.5h-1.889
			C13.113,10,12.889,10.224,12.889,10.5z"/>
		<path d="M23.333,10.5c0-0.276-0.224-0.5-0.5-0.5h-1.889c-0.276,0-0.5,0.224-0.5,0.5s0.224,0.5,0.5,0.5h1.889
			C23.11,11,23.333,10.776,23.333,10.5z"/>
		<path d="M24.223,10.5c0,0.276,0.224,0.5,0.5,0.5h1.889c0.276,0,0.5-0.224,0.5-0.5s-0.224-0.5-0.5-0.5h-1.889
			C24.446,10,24.223,10.224,24.223,10.5z"/>
		<path d="M10.5,11h1c0.276,0,0.5-0.224,0.5-0.5c0-0.232-0.158-0.428-0.373-0.484c0.107-0.194,0.075-0.444-0.094-0.604
			c-0.201-0.191-0.517-0.182-0.707,0.018l-0.689,0.725C10,10.3,9.962,10.514,10.041,10.697C10.12,10.881,10.3,11,10.5,11z"/>
		<path d="M16.062,5.145c0.132,0,0.264-0.052,0.362-0.156l1.625-1.71c0.19-0.2,0.182-0.517-0.018-0.707
			c-0.2-0.191-0.517-0.181-0.707,0.018L15.7,4.301c-0.19,0.2-0.182,0.517,0.018,0.707C15.815,5.1,15.939,5.145,16.062,5.145z"/>
		<path d="M12.813,8.565c0.132,0,0.264-0.052,0.362-0.156l1.625-1.71c0.19-0.2,0.182-0.517-0.018-0.707
			c-0.2-0.191-0.517-0.182-0.707,0.018l-1.625,1.71c-0.19,0.2-0.182,0.517,0.018,0.707C12.566,8.52,12.69,8.565,12.813,8.565z"/>
		<path d="M11.718,23.693l-1.518-2.783c-0.271-0.496-0.898-0.67-1.385-0.383l-8.568,5.043c-0.236,0.139-0.316,0.441-0.18,0.679
			l2,3.5C2.158,29.91,2.327,30,2.5,30c0.084,0,0.169-0.021,0.247-0.065l8.587-4.894C11.808,24.771,11.979,24.171,11.718,23.693z"/>
		<path d="M14.046,20.002c0,0-1.442-0.127-2.437-0.211c-0.397-0.033-0.669,0.388-0.479,0.738l1.326,2.43
			c0.194,0.355,0.705,0.348,0.885-0.014c0.454-0.912,1.107-2.224,1.107-2.224c0.072-0.148,0.068-0.322-0.012-0.465
			C14.356,20.112,14.21,20.018,14.046,20.002z"/>
		<path d="M6,19H2.5C2.224,19,2,18.776,2,18.5S2.224,18,2.5,18H6v-2H3.5C3.224,16,3,15.776,3,15.5S3.224,15,3.5,15H6v-2H3.5
			C3.224,13,3,12.776,3,12.5S3.224,12,3.5,12H6v-2H2.5C2.224,10,2,9.776,2,9.5S2.224,9,2.5,9H6V7H3.5C3.224,7,3,6.776,3,6.5
			S3.224,6,3.5,6H6V4H3.5C3.224,4,3,3.776,3,3.5S3.224,3,3.5,3H6V0.5C6,0.224,5.776,0,5.5,0h-5C0.224,0,0,0.224,0,0.5v24.054
			l6-3.532V19z"/>
		<path d="M29.5,24H27v3.5c0,0.276-0.224,0.5-0.5,0.5S26,27.776,26,27.5V24h-2v2.5c0,0.276-0.224,0.5-0.5,0.5S23,26.776,23,26.5V24
			h-2v2.5c0,0.276-0.224,0.5-0.5,0.5S20,26.776,20,26.5V24h-2v3.5c0,0.276-0.224,0.5-0.5,0.5S17,27.776,17,27.5V24h-3.052
			l-0.064,0.129c-0.186,0.477-0.619,0.966-1.157,1.269L4.652,30H29.5c0.276,0,0.5-0.224,0.5-0.5v-5C30,24.224,29.776,24,29.5,24z"/>
	</g>
</g>
<g id="Tape_Measure">
</g>
<g id="Cad_Paper">
</g>
<g id="Cad_Papers">
</g>
<g id="Stairs">
</g>
<g id="Pillar">
</g>
<g id="Bricks">
</g>
<g id="Pantheon">
</g>
<g id="House">
</g>
<g id="Skyscraper">
</g>
<g id="Building">
</g>
</svg>
