<?xml version="1.0" encoding="iso-8859-1"?>
<!-- Generator: Adobe Illustrator 19.2.1, SVG Export Plug-In . SVG Version: 6.00 Build 0)  -->
<svg version="1.1" xmlns="http://www.w3.org/2000/svg" xmlns:xlink="http://www.w3.org/1999/xlink" x="0px" y="0px"
	 viewBox="0 0 30 30" style="enable-background:new 0 0 30 30;" xml:space="preserve">
<g id="Cad_1">
</g>
<g id="Cad_2">
</g>
<g id="Cad_Pencil">
</g>
<g id="Cad_Compasses">
</g>
<g id="Tools_1">
</g>
<g id="Tools_2">
</g>
<g id="Ruler_1">
</g>
<g id="Ruler_2">
</g>
<g id="Workspace_1">
</g>
<g id="Workspace_2">
</g>
<g id="Cad_3">
</g>
<g id="_x33_D_Box">
</g>
<g id="Section_Symbol">
</g>
<g id="Outlet_Symbol">
</g>
<g id="Cad_File">
</g>
<g id="Blueprint">
</g>
<g id="Construction_Plan">
</g>
<g id="Roof_Plan">
</g>
<g id="House_Construction">
</g>
<g id="Building_Construction">
</g>
<g id="Work_Table">
</g>
<g id="Table_Cad">
</g>
<g id="House_Plan">
	<g>
		<g>
			<g>
				<path d="M26.5,13.5c-0.276,0-0.5-0.224-0.5-0.5v-1c0-0.276,0.224-0.5,0.5-0.5S27,11.724,27,12v1
					C27,13.276,26.776,13.5,26.5,13.5z"/>
			</g>
			<g>
				<path d="M26.5,17.834c-0.276,0-0.5-0.224-0.5-0.5v-2.167c0-0.276,0.224-0.5,0.5-0.5s0.5,0.224,0.5,0.5v2.167
					C27,17.61,26.776,17.834,26.5,17.834z"/>
			</g>
			<g>
				<path d="M26.5,21h-1c-0.276,0-0.5-0.224-0.5-0.5s0.224-0.5,0.5-0.5H26v-0.5c0-0.276,0.224-0.5,0.5-0.5s0.5,0.224,0.5,0.5v1
					C27,20.776,26.776,21,26.5,21z"/>
			</g>
			<g>
				<path d="M23.825,21H22.15c-0.276,0-0.5-0.224-0.5-0.5s0.224-0.5,0.5-0.5h1.675c0.276,0,0.5,0.224,0.5,0.5S24.102,21,23.825,21z
					 M20.475,21H18.8c-0.276,0-0.5-0.224-0.5-0.5s0.224-0.5,0.5-0.5h1.675c0.276,0,0.5,0.224,0.5,0.5S20.751,21,20.475,21z"/>
			</g>
			<g>
				<path d="M17.125,21h-1c-0.276,0-0.5-0.224-0.5-0.5s0.224-0.5,0.5-0.5h1c0.276,0,0.5,0.224,0.5,0.5S17.401,21,17.125,21z"/>
			</g>
		</g>
		<g>
			<g>
				<path d="M20.689,1.725c-0.132,0-0.264-0.052-0.362-0.155L20,1.226l-0.327,0.344c-0.19,0.2-0.506,0.207-0.707,0.018
					c-0.2-0.19-0.208-0.507-0.018-0.707l0.689-0.725c0.188-0.197,0.536-0.197,0.725,0l0.689,0.725c0.19,0.2,0.182,0.517-0.018,0.707
					C20.937,1.679,20.813,1.725,20.689,1.725z"/>
			</g>
			<g>
				<path d="M27.187,8.564c-0.132,0-0.264-0.052-0.362-0.155L25.2,6.699c-0.19-0.2-0.182-0.518,0.019-0.707
					c0.201-0.189,0.517-0.183,0.707,0.018l1.624,1.71c0.19,0.2,0.182,0.518-0.018,0.707C27.434,8.519,27.31,8.564,27.187,8.564z
					 M23.938,5.145c-0.132,0-0.264-0.052-0.362-0.155l-1.625-1.71c-0.19-0.2-0.182-0.517,0.018-0.707
					c0.201-0.189,0.517-0.183,0.707,0.018L24.3,4.3c0.19,0.2,0.182,0.517-0.018,0.707C24.186,5.099,24.062,5.145,23.938,5.145z"/>
			</g>
			<g>
				<path d="M29.5,11h-1c-0.276,0-0.5-0.224-0.5-0.5c0-0.232,0.158-0.428,0.373-0.483c-0.107-0.194-0.074-0.443,0.094-0.604
					c0.201-0.189,0.516-0.183,0.707,0.018l0.689,0.725c0.138,0.146,0.176,0.358,0.097,0.542S29.7,11,29.5,11z"/>
			</g>
			<g>
				<path d="M26.611,11h-1.889c-0.276,0-0.5-0.224-0.5-0.5s0.224-0.5,0.5-0.5h1.889c0.276,0,0.5,0.224,0.5,0.5S26.888,11,26.611,11z
					 M22.833,11h-1.889c-0.276,0-0.5-0.224-0.5-0.5s0.224-0.5,0.5-0.5h1.889c0.276,0,0.5,0.224,0.5,0.5S23.11,11,22.833,11z
					 M19.056,11h-1.889c-0.276,0-0.5-0.224-0.5-0.5s0.224-0.5,0.5-0.5h1.889c0.276,0,0.5,0.224,0.5,0.5S19.332,11,19.056,11z
					 M15.278,11h-1.889c-0.276,0-0.5-0.224-0.5-0.5s0.224-0.5,0.5-0.5h1.889c0.276,0,0.5,0.224,0.5,0.5S15.554,11,15.278,11z"/>
			</g>
			<g>
				<path d="M11.5,11h-1c-0.2,0-0.381-0.119-0.459-0.303S10,10.301,10.138,10.155l0.689-0.725c0.19-0.2,0.506-0.207,0.707-0.018
					c0.168,0.16,0.201,0.409,0.094,0.604C11.842,10.072,12,10.268,12,10.5C12,10.776,11.776,11,11.5,11z"/>
			</g>
			<g>
				<path d="M12.813,8.565c-0.124,0-0.248-0.046-0.344-0.138c-0.2-0.19-0.208-0.507-0.018-0.707l1.625-1.71
					c0.189-0.2,0.506-0.207,0.707-0.018c0.2,0.19,0.208,0.507,0.018,0.707l-1.625,1.71C13.078,8.514,12.946,8.565,12.813,8.565z
					 M16.063,5.146c-0.124,0-0.248-0.046-0.344-0.138c-0.2-0.189-0.208-0.507-0.019-0.707l1.625-1.71
					c0.189-0.201,0.506-0.208,0.707-0.018c0.2,0.189,0.208,0.507,0.018,0.707l-1.624,1.71C16.327,5.094,16.195,5.146,16.063,5.146z"
					/>
			</g>
		</g>
		<g>
			<path d="M2.5,30c-0.174,0-0.342-0.091-0.435-0.252l-2-3.5c-0.136-0.237-0.055-0.54,0.181-0.679l9.596-5.647
				c0.373-0.21,0.799-0.278,1.209-0.196l2.994,0.276c0.164,0.016,0.31,0.11,0.39,0.254c0.08,0.144,0.084,0.317,0.012,0.465
				l-1.461,2.966c-0.132,0.335-0.405,0.646-0.751,0.84l-9.488,5.408C2.669,29.979,2.584,30,2.5,30z M1.179,26.181l1.507,2.638
				l9.057-5.162c0.151-0.085,0.268-0.218,0.331-0.376l1.157-2.35l-2.323-0.217c-0.227-0.044-0.41-0.012-0.566,0.074L1.179,26.181z"
				/>
		</g>
		<g>
			<path d="M12.072,24.555c-0.184,0-0.36-0.102-0.448-0.276l-1.875-3.75c-0.124-0.247-0.023-0.547,0.224-0.671
				c0.247-0.124,0.547-0.022,0.671,0.224l1.875,3.75c0.124,0.247,0.023,0.547-0.224,0.671
				C12.223,24.538,12.147,24.555,12.072,24.555z"/>
		</g>
		<g>
			<g>
				<path d="M0.5,23C0.224,23,0,22.776,0,22.5v-22C0,0.224,0.224,0,0.5,0h5C5.776,0,6,0.224,6,0.5v19C6,19.776,5.776,20,5.5,20
					S5,19.776,5,19.5V1H1v21.5C1,22.776,0.776,23,0.5,23z"/>
			</g>
			<g>
				<path d="M29.5,30h-22C7.224,30,7,29.776,7,29.5S7.224,29,7.5,29H29v-4H14.5c-0.276,0-0.5-0.224-0.5-0.5s0.224-0.5,0.5-0.5h15
					c0.276,0,0.5,0.224,0.5,0.5v5C30,29.776,29.776,30,29.5,30z"/>
			</g>
		</g>
		<g>
			<path d="M5.5,4h-2C3.224,4,3,3.776,3,3.5S3.224,3,3.5,3h2C5.776,3,6,3.224,6,3.5S5.776,4,5.5,4z"/>
		</g>
		<g>
			<path d="M5.5,7h-2C3.224,7,3,6.776,3,6.5S3.224,6,3.5,6h2C5.776,6,6,6.224,6,6.5S5.776,7,5.5,7z"/>
		</g>
		<g>
			<path d="M5.5,10h-3C2.224,10,2,9.776,2,9.5S2.224,9,2.5,9h3C5.776,9,6,9.224,6,9.5S5.776,10,5.5,10z"/>
		</g>
		<g>
			<path d="M5.5,13h-2C3.224,13,3,12.776,3,12.5S3.224,12,3.5,12h2C5.776,12,6,12.224,6,12.5S5.776,13,5.5,13z"/>
		</g>
		<g>
			<path d="M5.5,16h-2C3.224,16,3,15.776,3,15.5S3.224,15,3.5,15h2C5.776,15,6,15.224,6,15.5S5.776,16,5.5,16z"/>
		</g>
		<g>
			<path d="M5.5,19h-3C2.224,19,2,18.776,2,18.5S2.224,18,2.5,18h3C5.776,18,6,18.224,6,18.5S5.776,19,5.5,19z"/>
		</g>
		<g>
			<path d="M17.5,28c-0.276,0-0.5-0.224-0.5-0.5v-3c0-0.276,0.224-0.5,0.5-0.5s0.5,0.224,0.5,0.5v3C18,27.776,17.776,28,17.5,28z"/>
		</g>
		<g>
			<path d="M20.5,27c-0.276,0-0.5-0.224-0.5-0.5v-2c0-0.276,0.224-0.5,0.5-0.5s0.5,0.224,0.5,0.5v2C21,26.776,20.776,27,20.5,27z"/>
		</g>
		<g>
			<path d="M23.5,27c-0.276,0-0.5-0.224-0.5-0.5v-2c0-0.276,0.224-0.5,0.5-0.5s0.5,0.224,0.5,0.5v2C24,26.776,23.776,27,23.5,27z"/>
		</g>
		<g>
			<path d="M26.5,28c-0.276,0-0.5-0.224-0.5-0.5v-3c0-0.276,0.224-0.5,0.5-0.5s0.5,0.224,0.5,0.5v3C27,27.776,26.776,28,26.5,28z"/>
		</g>
	</g>
</g>
<g id="Tape_Measure">
</g>
<g id="Cad_Paper">
</g>
<g id="Cad_Papers">
</g>
<g id="Stairs">
</g>
<g id="Pillar">
</g>
<g id="Bricks">
</g>
<g id="Pantheon">
</g>
<g id="House">
</g>
<g id="Skyscraper">
</g>
<g id="Building">
</g>
</svg>
