<?xml version="1.0" encoding="iso-8859-1"?>
<!-- Generator: Adobe Illustrator 19.2.1, SVG Export Plug-In . SVG Version: 6.00 Build 0)  -->
<svg version="1.1" xmlns="http://www.w3.org/2000/svg" xmlns:xlink="http://www.w3.org/1999/xlink" x="0px" y="0px"
	 viewBox="0 0 30 30" style="enable-background:new 0 0 30 30;" xml:space="preserve">
<g id="Cad_1">
</g>
<g id="Cad_2">
</g>
<g id="Cad_Pencil">
</g>
<g id="Cad_Compasses">
</g>
<g id="Tools_1">
</g>
<g id="Tools_2">
</g>
<g id="Ruler_1">
</g>
<g id="Ruler_2">
</g>
<g id="Workspace_1">
</g>
<g id="Workspace_2">
</g>
<g id="Cad_3">
</g>
<g id="_x33_D_Box">
</g>
<g id="Section_Symbol">
</g>
<g id="Outlet_Symbol">
</g>
<g id="Cad_File">
</g>
<g id="Blueprint">
</g>
<g id="Construction_Plan">
</g>
<g id="Roof_Plan">
</g>
<g id="House_Construction">
</g>
<g id="Building_Construction">
</g>
<g id="Work_Table">
</g>
<g id="Table_Cad">
</g>
<g id="House_Plan">
</g>
<g id="Tape_Measure">
</g>
<g id="Cad_Paper">
</g>
<g id="Cad_Papers">
</g>
<g id="Stairs">
</g>
<g id="Pillar">
</g>
<g id="Bricks">
</g>
<g id="Pantheon">
</g>
<g id="House">
	<g>
		<g>
			<path d="M25.5,30h-22C3.224,30,3,29.776,3,29.5v-15C3,14.224,3.224,14,3.5,14S4,14.224,4,14.5V29h21V14.5
				c0-0.276,0.224-0.5,0.5-0.5s0.5,0.224,0.5,0.5v15C26,29.776,25.776,30,25.5,30z"/>
		</g>
		<g>
			<path d="M28.5,15h-28c-0.202,0-0.385-0.122-0.462-0.309c-0.078-0.187-0.035-0.402,0.108-0.545l14-14
				c0.195-0.195,0.512-0.195,0.707,0l14,14c0.143,0.143,0.186,0.358,0.108,0.545C28.885,14.878,28.702,15,28.5,15z M1.707,14h25.586
				L14.5,1.207L1.707,14z"/>
		</g>
		<g>
			<path d="M21.5,30h-5c-0.276,0-0.5-0.224-0.5-0.5v-10c0-0.276,0.224-0.5,0.5-0.5h5c0.276,0,0.5,0.224,0.5,0.5v10
				C22,29.776,21.776,30,21.5,30z M17,29h4v-9h-4V29z"/>
		</g>
		<g>
			<path d="M11.5,24h-4C7.224,24,7,23.776,7,23.5v-4C7,19.224,7.224,19,7.5,19h4c0.276,0,0.5,0.224,0.5,0.5v4
				C12,23.776,11.776,24,11.5,24z M8,23h3v-3H8V23z"/>
		</g>
	</g>
</g>
<g id="Skyscraper">
</g>
<g id="Building">
</g>
</svg>
