<?xml version="1.0" encoding="iso-8859-1"?>
<!-- Generator: Adobe Illustrator 19.2.1, SVG Export Plug-In . SVG Version: 6.00 Build 0)  -->
<svg version="1.1" xmlns="http://www.w3.org/2000/svg" xmlns:xlink="http://www.w3.org/1999/xlink" x="0px" y="0px"
	 viewBox="0 0 30 30" style="enable-background:new 0 0 30 30;" xml:space="preserve">
<g id="Cutting_Board_1">
</g>
<g id="Cutting_Board_2">
</g>
<g id="Chef_x27_s_Hat_1">
</g>
<g id="Chef_x27_s_Hat_2">
</g>
<g id="Kitchen_Scale">
</g>
<g id="Measuring_Cup">
</g>
<g id="Pot_1">
</g>
<g id="Pot_2">
</g>
<g id="Wok_1">
</g>
<g id="Wok_2">
</g>
<g id="Teapot">
</g>
<g id="Plate">
</g>
<g id="Sauce_Boat">
</g>
<g id="Cauldron">
</g>
<g id="Cookbook">
</g>
<g id="Salt_Pot">
</g>
<g id="Pepper_Pot_1">
</g>
<g id="Pepper_Pot_2">
</g>
<g id="Egg_Timer">
</g>
<g id="Olive_Oil_Pot">
</g>
<g id="Pancake_Griddle">
</g>
<g id="Pan">
</g>
<g id="Kettle">
</g>
<g id="Microwave">
</g>
<g id="Cooker">
</g>
<g id="Meat_Grinder">
</g>
<g id="Coffee_Maker">
</g>
<g id="Household_Mixer">
	<g>
		<g>
			<g>
				<path d="M5.652,20c-0.276,0-0.5-0.224-0.5-0.5v-4c0-0.276,0.224-0.5,0.5-0.5s0.5,0.224,0.5,0.5v4
					C6.152,19.776,5.929,20,5.652,20z"/>
			</g>
			<g>
				<path d="M13.652,1h-1c-0.276,0-0.5-0.224-0.5-0.5s0.224-0.5,0.5-0.5h1c0.276,0,0.5,0.224,0.5,0.5S13.929,1,13.652,1z"/>
			</g>
			<g>
				<path d="M6.652,13c-0.827,0-1.5-0.673-1.5-1.5s0.673-1.5,1.5-1.5s1.5,0.673,1.5,1.5S7.479,13,6.652,13z M6.652,11
					c-0.275,0-0.5,0.224-0.5,0.5s0.225,0.5,0.5,0.5s0.5-0.224,0.5-0.5S6.928,11,6.652,11z"/>
			</g>
		</g>
		<g>
			<path d="M27.347,16H0.652c-0.276,0-0.5-0.224-0.5-0.5v-4c0-5.79,4.71-10.5,10.5-10.5h17c0.249,0,0.46,0.183,0.495,0.429
				l1.675,11.717c0.103,0.718-0.111,1.443-0.587,1.991S28.071,16,27.347,16z M1.152,15h26.194c0.436,0,0.849-0.188,1.134-0.518
				c0.285-0.329,0.413-0.764,0.352-1.194L27.219,2H10.652c-5.238,0-9.5,4.262-9.5,9.5V15z"/>
		</g>
		<g>
			<path d="M25.652,10h-15c-0.276,0-0.5-0.224-0.5-0.5v-2c0-1.93,1.57-3.5,3.5-3.5h12c0.276,0,0.5,0.224,0.5,0.5v5
				C26.152,9.776,25.929,10,25.652,10z M11.152,9h14V5h-11.5c-1.379,0-2.5,1.122-2.5,2.5V9z"/>
		</g>
		<g>
			<path d="M5.652,30c-2.481,0-4.5-2.467-4.5-5.5s2.019-5.5,4.5-5.5s4.5,2.467,4.5,5.5S8.134,30,5.652,30z M5.652,20
				c-1.93,0-3.5,2.019-3.5,4.5s1.57,4.5,3.5,4.5s3.5-2.019,3.5-4.5S7.582,20,5.652,20z"/>
		</g>
		<g>
			<path d="M5.652,30c-1.624,0-2.5-2.833-2.5-5.5s0.876-5.5,2.5-5.5s2.5,2.833,2.5,5.5S7.276,30,5.652,30z M5.652,20
				c-0.611,0-1.5,1.753-1.5,4.5s0.889,4.5,1.5,4.5s1.5-1.753,1.5-4.5S6.264,20,5.652,20z"/>
		</g>
	</g>
</g>
<g id="Stand_Mixer">
</g>
<g id="Hand_Blender">
</g>
<g id="Blender">
</g>
<g id="Cooker_Hood">
</g>
<g id="Refrigerator">
</g>
<g id="Freezer">
</g>
<g id="Apron">
</g>
<g id="Oven_Gloves">
</g>
<g id="Rolling_Pin">
</g>
<g id="Sieve">
</g>
<g id="Tea_Sieve">
</g>
<g id="Grater">
</g>
<g id="Knife_Holder">
</g>
<g id="Funnel">
</g>
<g id="Kitchen_Clock">
</g>
<g id="Lemon_Juicer">
</g>
<g id="Pastry_Bag_1">
</g>
<g id="Pastry_Bag_2">
</g>
<g id="Corkscrew">
</g>
<g id="Bottle_Opener">
</g>
<g id="Service">
</g>
<g id="Chopsticks">
</g>
<g id="Hatchet">
</g>
<g id="Filleting_Knife">
</g>
<g id="Bread_Knife">
</g>
<g id="Herb_Knife">
</g>
<g id="Whetting">
</g>
<g id="Cake_Knife">
</g>
<g id="Layer_58">
</g>
<g id="Ladle">
</g>
<g id="Sauce_Spoon">
</g>
<g id="Egg_Beater">
</g>
<g id="Meat_Fork">
</g>
<g id="Kitchen_Spoon_1">
</g>
<g id="Kitchen_Spoon_2">
</g>
<g id="Pizza_Cutter">
</g>
<g id="Potato_Musher">
</g>
<g id="Peeler">
</g>
<g id="Honey_Dipper">
</g>
<g id="Fork">
</g>
<g id="Knife">
</g>
<g id="Spoon">
</g>
<g id="Cutlery_Set">
</g>
<g id="Sugar_Bowl">
</g>
<g id="Matches">
</g>
<g id="Cezve">
</g>
</svg>
