<?xml version="1.0" encoding="iso-8859-1"?>
<!-- Generator: Adobe Illustrator 19.2.1, SVG Export Plug-In . SVG Version: 6.00 Build 0)  -->
<svg version="1.1" xmlns="http://www.w3.org/2000/svg" xmlns:xlink="http://www.w3.org/1999/xlink" x="0px" y="0px"
	 viewBox="0 0 30 30" style="enable-background:new 0 0 30 30;" xml:space="preserve">
<g id="Sun_Light">
</g>
<g id="Sunglasses">
</g>
<g id="T-Shirt_1">
</g>
<g id="T-Shirt_2">
</g>
<g id="Mini_Dress">
</g>
<g id="Flip-Flops">
</g>
<g id="Temperature">
</g>
<g id="Hot_Temperature">
</g>
<g id="Ice_Lolly">
	<g>
		<g>
			<path d="M14.892,30h-0.783C12.966,30,12,29.084,12,28v-6.5c0-0.276,0.224-0.5,0.5-0.5h4c0.276,0,0.5,0.224,0.5,0.5V28
				C17,29.084,16.034,30,14.892,30z M13,22v6c0,0.523,0.528,1,1.108,1h0.783C15.472,29,16,28.523,16,28v-6H13z"/>
		</g>
		<g>
			<path d="M20.228,22H8.772C7.712,22,7,21.38,7,20.457L9.107,3.72C9.394,1.598,11.233,0,13.389,0h2.223
				c2.199,0,3.999,1.517,4.28,3.607l2.104,16.788C22,21.38,21.288,22,20.228,22z M13.389,1c-1.657,0-3.071,1.225-3.29,2.85
				L7.996,20.519C8,20.929,8.484,21,8.772,21h11.455C20.516,21,21,20.929,21,20.457L18.9,3.736C18.688,2.152,17.304,1,15.611,1
				H13.389z"/>
		</g>
		<g id="XMLID_102_">
			<path d="M11.979,18.652c-0.008,0-0.017,0-0.025,0c-0.275-0.014-0.487-0.249-0.474-0.524l0.63-12.609
				c0.013-0.276,0.211-0.488,0.524-0.475c0.275,0.014,0.487,0.249,0.474,0.524l-0.63,12.609
				C12.465,18.445,12.243,18.652,11.979,18.652z"/>
		</g>
		<g id="XMLID_103_">
			<path d="M17.021,18.652c-0.265,0-0.486-0.208-0.499-0.475l-0.63-12.609c-0.014-0.276,0.198-0.511,0.474-0.524
				c0.313-0.015,0.512,0.199,0.524,0.475l0.63,12.609c0.014,0.276-0.198,0.511-0.474,0.524
				C17.038,18.652,17.029,18.652,17.021,18.652z"/>
		</g>
	</g>
</g>
<g id="Icecream">
</g>
<g id="Limonade_1">
</g>
<g id="Limonade_2">
</g>
<g id="Hat">
</g>
<g id="Straw_Hat">
</g>
<g id="Deckchair">
</g>
<g id="Sunshade">
</g>
<g id="Suncream">
</g>
<g id="Suntan_Oil">
</g>
<g id="Swimming_Trunks">
</g>
<g id="Bikini">
</g>
<g id="Pool">
</g>
<g id="Pool_Ladder">
</g>
<g id="Grill">
</g>
<g id="Kite_1">
</g>
<g id="Kite_2">
</g>
<g id="Badminton">
</g>
<g id="Cooler">
</g>
<g id="Strand_Bag">
</g>
<g id="Towel">
</g>
<g id="Strand_Ball">
</g>
<g id="Beach_Sign">
</g>
<g id="Toos">
</g>
<g id="Bucket">
</g>
<g id="Sand_Castle">
</g>
<g id="Shell_1">
</g>
<g id="Shell_2">
</g>
<g id="Surf_Board">
</g>
<g id="Float">
</g>
<g id="Vacation_Photo">
</g>
<g id="Summer_Time">
</g>
<g id="Boat">
</g>
<g id="Lifebuoy">
</g>
<g id="Lighthouse">
</g>
<g id="Sunset">
</g>
<g id="Dolphin">
</g>
<g id="Starfish">
</g>
<g id="Diving_Mask">
</g>
<g id="Sailboat">
</g>
<g id="Captin_Hat">
</g>
<g id="Eudder">
</g>
</svg>
