<?xml version="1.0" encoding="iso-8859-1"?>
<!-- Generator: Adobe Illustrator 19.2.1, SVG Export Plug-In . SVG Version: 6.00 Build 0)  -->
<svg version="1.1" xmlns="http://www.w3.org/2000/svg" xmlns:xlink="http://www.w3.org/1999/xlink" x="0px" y="0px"
	 viewBox="0 0 30 30" style="enable-background:new 0 0 30 30;" xml:space="preserve">
<g id="Sun_Light">
</g>
<g id="Sunglasses">
</g>
<g id="T-Shirt_1">
</g>
<g id="T-Shirt_2">
</g>
<g id="Mini_Dress">
</g>
<g id="Flip-Flops">
</g>
<g id="Temperature">
</g>
<g id="Hot_Temperature">
</g>
<g id="Ice_Lolly">
</g>
<g id="Icecream">
	<g>
		<g>
			<path d="M14.5,30L14.5,30c-0.219,0-0.412-0.142-0.478-0.351l-4.89-15.64c-0.082-0.264,0.064-0.544,0.328-0.626
				c0.27-0.083,0.544,0.065,0.627,0.328L14.5,27.825l4.412-14.104c0.083-0.264,0.363-0.409,0.627-0.328
				c0.264,0.083,0.41,0.363,0.328,0.626l-4.89,15.63C14.912,29.858,14.719,30,14.5,30z"/>
		</g>
		<g>
			<path d="M20.528,15.002c-0.655,0-1.238-0.543-1.609-0.888c-0.195-0.183-0.381-0.355-0.537-0.45
				c-0.527-0.322-1.157-0.398-1.73-0.207c-0.06,0.033-0.183,0.12-0.317,0.212c-0.428,0.291-1.013,0.69-1.834,0.69
				c-0.026,0-0.053-0.002-0.078-0.006c-0.78-0.024-1.343-0.407-1.757-0.689c-0.135-0.092-0.258-0.178-0.376-0.235
				c-0.512-0.167-1.144-0.092-1.671,0.23c-0.156,0.096-0.342,0.268-0.537,0.451c-0.558,0.519-1.594,1.488-2.638,0.378
				c-0.626-0.667-0.361-1.421-0.149-2.028c0.168-0.479,0.326-0.931,0.194-1.424c-0.022-0.064-0.07-0.181-0.121-0.308
				C7.195,10.301,7,9.817,7,9.403C7,7.678,8.018,6.14,9.572,5.455C9.555,5.287,9.546,5.122,9.546,4.952C9.546,2.221,11.769,0,14.5,0
				c0.025,0,0.05,0.002,0.074,0.005c2.697,0.04,4.88,2.246,4.88,4.951c0,0.17-0.009,0.335-0.026,0.503
				C20.982,6.145,22,7.683,22,9.408c0,0.414-0.195,0.898-0.367,1.325c-0.051,0.127-0.099,0.244-0.132,0.341
				c-0.121,0.46,0.037,0.913,0.205,1.391c0.212,0.607,0.477,1.362-0.149,2.028C21.208,14.864,20.858,15.002,20.528,15.002z
				 M17.309,12.36c0.563,0,1.108,0.154,1.593,0.45c0.244,0.148,0.476,0.364,0.699,0.573c0.781,0.728,0.94,0.731,1.228,0.425
				c0.184-0.196,0.151-0.392-0.066-1.013c-0.19-0.544-0.427-1.222-0.217-2.012c0.049-0.145,0.103-0.279,0.16-0.424
				C20.823,10.068,21,9.628,21,9.408c0-1.436-0.918-2.702-2.283-3.151c-0.239-0.079-0.383-0.323-0.335-0.57
				c0.05-0.255,0.072-0.487,0.072-0.73c0-2.179-1.773-3.952-3.954-3.952c-0.022,0-0.045-0.001-0.066-0.004
				c-2.149,0.036-3.888,1.794-3.888,3.951c0,0.244,0.022,0.476,0.072,0.73c0.048,0.247-0.096,0.491-0.335,0.57
				C8.918,6.701,8,7.967,8,9.403c0,0.22,0.177,0.66,0.295,0.951c0.058,0.146,0.111,0.28,0.149,0.391
				c0.221,0.823-0.016,1.5-0.206,2.045c-0.218,0.621-0.25,0.817-0.066,1.013c0.287,0.306,0.445,0.304,1.228-0.425
				c0.224-0.209,0.455-0.425,0.699-0.573c0.78-0.475,1.716-0.584,2.566-0.301c0.217,0.101,0.384,0.211,0.563,0.334
				c0.373,0.254,0.759,0.517,1.271,0.517c0.021,0,0.041,0.001,0.061,0.003c0.482-0.02,0.853-0.271,1.21-0.515
				c0.181-0.123,0.348-0.233,0.506-0.31C16.62,12.417,16.968,12.36,17.309,12.36z"/>
		</g>
		<g id="XMLID_106_">
			<path d="M19.373,6.282c-0.052,0-0.104-0.008-0.156-0.025c-0.332-0.109-0.681-0.165-1.035-0.165c-0.276,0-0.5-0.224-0.5-0.5
				s0.224-0.5,0.5-0.5c0.461,0,0.914,0.072,1.348,0.214c0.262,0.086,0.405,0.369,0.318,0.631
				C19.779,6.148,19.583,6.282,19.373,6.282z"/>
		</g>
		<g>
			<path d="M10.668,6.235c-0.21,0-0.406-0.133-0.475-0.344c-0.087-0.262,0.057-0.545,0.318-0.631
				c0.431-0.141,0.881-0.213,1.337-0.213c0.276,0,0.5,0.224,0.5,0.5s-0.224,0.5-0.5,0.5c-0.351,0-0.695,0.055-1.024,0.163
				C10.772,6.228,10.72,6.235,10.668,6.235z"/>
		</g>
		<g>
			<path d="M18.25,18.02c-0.037,0-0.075-0.004-0.112-0.013l-8.08-1.87c-0.27-0.063-0.438-0.331-0.375-0.6
				c0.063-0.269,0.336-0.436,0.6-0.375l8.08,1.87c0.27,0.063,0.438,0.331,0.375,0.6C18.684,17.864,18.478,18.02,18.25,18.02z"/>
		</g>
		<g>
			<path d="M17.15,21.54c-0.037,0-0.074-0.004-0.112-0.013l-5.7-1.31c-0.269-0.062-0.437-0.33-0.375-0.599
				c0.062-0.269,0.328-0.436,0.6-0.375l5.7,1.31c0.269,0.062,0.437,0.33,0.375,0.599C17.585,21.383,17.379,21.54,17.15,21.54z"/>
		</g>
		<g>
			<path d="M16.04,25.07c-0.036,0-0.074-0.004-0.111-0.013l-3.32-0.76c-0.27-0.062-0.438-0.33-0.376-0.599
				c0.061-0.269,0.326-0.439,0.599-0.376l3.32,0.76c0.27,0.062,0.438,0.33,0.376,0.599C16.475,24.913,16.269,25.07,16.04,25.07z"/>
		</g>
	</g>
</g>
<g id="Limonade_1">
</g>
<g id="Limonade_2">
</g>
<g id="Hat">
</g>
<g id="Straw_Hat">
</g>
<g id="Deckchair">
</g>
<g id="Sunshade">
</g>
<g id="Suncream">
</g>
<g id="Suntan_Oil">
</g>
<g id="Swimming_Trunks">
</g>
<g id="Bikini">
</g>
<g id="Pool">
</g>
<g id="Pool_Ladder">
</g>
<g id="Grill">
</g>
<g id="Kite_1">
</g>
<g id="Kite_2">
</g>
<g id="Badminton">
</g>
<g id="Cooler">
</g>
<g id="Strand_Bag">
</g>
<g id="Towel">
</g>
<g id="Strand_Ball">
</g>
<g id="Beach_Sign">
</g>
<g id="Toos">
</g>
<g id="Bucket">
</g>
<g id="Sand_Castle">
</g>
<g id="Shell_1">
</g>
<g id="Shell_2">
</g>
<g id="Surf_Board">
</g>
<g id="Float">
</g>
<g id="Vacation_Photo">
</g>
<g id="Summer_Time">
</g>
<g id="Boat">
</g>
<g id="Lifebuoy">
</g>
<g id="Lighthouse">
</g>
<g id="Sunset">
</g>
<g id="Dolphin">
</g>
<g id="Starfish">
</g>
<g id="Diving_Mask">
</g>
<g id="Sailboat">
</g>
<g id="Captin_Hat">
</g>
<g id="Eudder">
</g>
</svg>
