<?xml version="1.0" encoding="iso-8859-1"?>
<!-- Generator: Adobe Illustrator 19.2.1, SVG Export Plug-In . SVG Version: 6.00 Build 0)  -->
<svg version="1.1" xmlns="http://www.w3.org/2000/svg" xmlns:xlink="http://www.w3.org/1999/xlink" x="0px" y="0px"
	 viewBox="0 0 24 24" style="enable-background:new 0 0 24 24;" xml:space="preserve">
<g id="Snowflake_1">
</g>
<g id="Snowflake_2">
</g>
<g id="Snowflake_3">
</g>
<g id="Snowflake_4">
</g>
<g id="Winter_Cap_1">
</g>
<g id="Winter_Cap_2">
</g>
<g id="Glowes">
</g>
<g id="Sweater_1">
</g>
<g id="Sweater_2">
</g>
<g id="Sweater_3">
</g>
<g id="Scarf">
</g>
<g id="Winter_Socks">
</g>
<g id="Winter_Sock">
</g>
<g id="Winter_Coat">
</g>
<g id="Winter_Calendar">
</g>
<g id="Thermometer_1">
</g>
<g id="Thermometer_2">
</g>
<g id="Cold">
</g>
<g id="Icicle">
	<path d="M23.57,0.005c-0.27-0.04-0.526,0.151-0.565,0.424l-0.639,4.473l-0.381-1.523c-0.051-0.203-0.223-0.353-0.431-0.376
		c-0.216-0.024-0.409,0.087-0.502,0.273L20.5,4.382l-1.553-3.105c-0.096-0.19-0.293-0.3-0.514-0.272
		c-0.212,0.028-0.382,0.188-0.424,0.397L16.5,8.951l-1.51-7.549C14.942,1.163,14.761,1.004,14.484,1
		c-0.244,0.008-0.447,0.19-0.479,0.433l-2.417,17.72l-1.591-16.7C9.974,2.201,9.765,2.006,9.512,2
		C9.256,2.013,9.041,2.179,9.005,2.429L7.462,13.23L5.993,4.418C5.956,4.191,5.768,4.02,5.539,4.001
		c-0.222-0.01-0.44,0.123-0.513,0.34L4.621,5.556L3.99,2.402C3.943,2.168,3.738,2,3.5,2S3.057,2.168,3.01,2.402L1.704,8.93
		L0.998,0.458c-0.022-0.275-0.262-0.487-0.54-0.457c-0.275,0.023-0.479,0.264-0.457,0.54l1,12c0.021,0.249,0.221,0.443,0.47,0.458
		c0.231,0.01,0.47-0.157,0.519-0.401L3.5,5.049l0.51,2.549C4.054,7.82,4.243,7.985,4.469,7.999c0.228,0.002,0.434-0.126,0.505-0.341
		l0.364-1.09l1.669,10.014C7.047,16.823,7.256,17,7.5,17c0.002,0,0.004,0,0.006,0c0.247-0.003,0.454-0.186,0.489-0.43l1.406-9.839
		l1.602,16.817C11.026,23.8,11.236,23.995,11.49,24c0.003,0,0.007,0,0.01,0c0.25,0,0.461-0.185,0.496-0.433l2.598-19.051
		l1.416,7.082C16.057,11.832,16.262,12,16.5,12s0.443-0.168,0.49-0.402l1.714-8.571l1.349,2.697c0.17,0.339,0.725,0.339,0.895,0
		l0.396-0.791l0.672,2.688C22.073,7.854,22.289,8.012,22.525,8c0.239-0.013,0.436-0.192,0.47-0.429l1-7
		C24.034,0.297,23.844,0.044,23.57,0.005z"/>
</g>
<g id="Snowing">
</g>
<g id="Snow_Shoes_1">
</g>
<g id="Snow_Shoes_2">
</g>
<g id="Sledge">
</g>
<g id="Snow_Boots">
</g>
<g id="Snowcapped_Mountains">
</g>
<g id="Skis">
</g>
<g id="Sky_Glasses">
</g>
<g id="Snowboard">
</g>
<g id="Ice_Skate">
</g>
<g id="Wooden_House">
</g>
<g id="Snowcapped_House">
</g>
<g id="Hot_Drink">
</g>
<g id="Hot_Chocolate">
</g>
<g id="Lantern">
</g>
<g id="Snow_Shovel">
</g>
<g id="Snowman">
</g>
<g id="Reindeer">
</g>
<g id="Snowmobile">
</g>
<g id="Snow_Chain">
</g>
<g id="Slippery_Road">
</g>
</svg>
