<?xml version="1.0" encoding="iso-8859-1"?>
<!-- Generator: Adobe Illustrator 19.2.1, SVG Export Plug-In . SVG Version: 6.00 Build 0)  -->
<svg version="1.1" xmlns="http://www.w3.org/2000/svg" xmlns:xlink="http://www.w3.org/1999/xlink" x="0px" y="0px"
	 viewBox="0 0 30 30" style="enable-background:new 0 0 30 30;" xml:space="preserve">
<g id="Mail">
</g>
<g id="Open_Mail">
</g>
<g id="Mail_Attachmet">
</g>
<g id="Mails">
</g>
<g id="Trash">
</g>
<g id="Trash_Full">
</g>
<g id="Preferences_1">
</g>
<g id="Preferences_2">
</g>
<g id="Mouse">
</g>
<g id="Computer">
</g>
<g id="Notebook">
</g>
<g id="Mobile_Phone">
</g>
<g id="Print">
</g>
<g id="Calculator">
</g>
<g id="Tag">
</g>
<g id="Paperclip">
</g>
<g id="Heart">
</g>
<g id="Lock">
</g>
<g id="Lock_Open">
</g>
<g id="Key_1">
</g>
<g id="Star">
</g>
<g id="Add">
</g>
<g id="Remove">
</g>
<g id="Error">
</g>
<g id="Check_1">
</g>
<g id="Time">
</g>
<g id="Question_Mark">
</g>
<g id="Error_Mark">
</g>
<g id="Sand-Glass">
</g>
<g id="Battery_Full">
</g>
<g id="Battery_Charge">
</g>
<g id="Battery_Half">
</g>
<g id="Battery_Low">
</g>
<g id="No_Battery">
</g>
<g id="Key_2">
</g>
<g id="Link">
</g>
<g id="Brake_Link">
</g>
<g id="Pencil">
</g>
<g id="At">
</g>
<g id="Reply">
</g>
<g id="Accessible">
</g>
<g id="Up_Arrow">
</g>
<g id="Brush">
</g>
<g id="Design_Mug">
</g>
<g id="Design">
</g>
<g id="Server">
</g>
<g id="Database">
</g>
<g id="Save">
</g>
<g id="Female">
</g>
<g id="Male">
</g>
<g id="Book">
</g>
<g id="Power">
</g>
<g id="Reload">
</g>
<g id="Map">
</g>
<g id="Loction_1">
</g>
<g id="Location_2">
</g>
<g id="Globe">
</g>
<g id="Suitcase">
</g>
<g id="Callendar">
</g>
<g id="Cloud_Off">
</g>
<g id="File_1">
</g>
<g id="File_2">
</g>
<g id="Folder">
</g>
<g id="Open_Folder">
</g>
<g id="Cloud">
</g>
<g id="Upload_Cloud">
</g>
<g id="Download_Cloud">
</g>
<g id="Eye">
</g>
<g id="Invisible">
	<g>
		<g>
			<path d="M6.66,21.03H6.65c-0.1,0-0.197-0.03-0.28-0.086c-3.659-2.473-6.153-5.5-6.257-5.628c-0.15-0.184-0.151-0.448-0.001-0.633
				C0.401,14.329,7.281,6,15,6l0,0c1.673,0,3.352,0.3,4.99,0.89c0.26,0.094,0.395,0.381,0.301,0.641
				c-0.095,0.26-0.378,0.391-0.641,0.301C18.122,7.279,16.558,7,15,7C8.576,7,2.496,13.479,1.159,15
				c0.734,0.836,2.899,3.171,5.749,5.101c0.147,0.088,0.247,0.247,0.247,0.43C7.155,20.807,6.937,21.03,6.66,21.03z"/>
		</g>
		<g>
			<path d="M15,24c-2.149,0-4.451-0.66-6.839-1.961c-0.242-0.133-0.332-0.437-0.2-0.679s0.436-0.33,0.679-0.2
				C10.879,22.381,13.02,23,15,23c6.465,0,12.58-6.561,13.866-8.028c-0.748-1.012-3.378-4.305-7.305-6.316
				c-0.245-0.126-0.343-0.428-0.217-0.674c0.126-0.244,0.428-0.342,0.674-0.217c4.899,2.512,7.777,6.777,7.897,6.958
				c0.122,0.183,0.11,0.423-0.028,0.594C29.599,15.671,22.719,24,15,24z"/>
		</g>
		<g>
			<path d="M10.74,16.94c-0.206,0-0.398-0.128-0.471-0.332C10.091,16.106,10,15.565,10,15c0-2.757,2.243-5,5-5
				c0.565,0,1.106,0.091,1.608,0.27c0.26,0.092,0.396,0.378,0.303,0.639c-0.092,0.26-0.376,0.399-0.639,0.303
				C15.879,11.071,15.45,11,15,11c-2.206,0-4,1.794-4,4c0,0.45,0.071,0.879,0.211,1.272c0.093,0.261-0.043,0.547-0.303,0.639
				C10.853,16.932,10.796,16.94,10.74,16.94z"/>
		</g>
		<g>
			<path d="M15,20c-1.345,0-2.601-0.521-3.535-1.469c-0.194-0.197-0.192-0.514,0.004-0.707c0.197-0.195,0.514-0.191,0.707,0.004
				C12.922,18.584,13.925,19,15,19c2.206,0,4-1.794,4-4c0-1.075-0.416-2.078-1.172-2.824c-0.196-0.193-0.198-0.51-0.004-0.707
				c0.194-0.196,0.511-0.198,0.707-0.004C19.479,12.399,20,13.655,20,15C20,17.757,17.757,20,15,20z"/>
		</g>
		<g>
			<path d="M4.5,26c-0.128,0-0.256-0.049-0.354-0.146c-0.195-0.195-0.195-0.512,0-0.707l22-22c0.195-0.195,0.512-0.195,0.707,0
				s0.195,0.512,0,0.707l-22,22C4.756,25.951,4.628,26,4.5,26z"/>
		</g>
	</g>
</g>
<g id="Assignment">
</g>
<g id="Note_Book">
</g>
<g id="Webpage">
</g>
<g id="Mailbox">
</g>
<g id="Drive">
</g>
<g id="Disc">
</g>
<g id="Wifi_1">
</g>
<g id="Wifi_2">
</g>
<g id="Archive">
</g>
<g id="Archive_File">
</g>
<g id="News">
</g>
<g id="Home">
</g>
<g id="Collaboration">
</g>
<g id="Announcement">
</g>
<g id="Watch">
</g>
<g id="Clock">
</g>
<g id="Volume">
</g>
<g id="Mute">
</g>
<g id="Hand">
</g>
<g id="Layers">
</g>
<g id="Bell">
</g>
<g id="Speach_Bubble">
</g>
<g id="Speach_Bubbles">
</g>
<g id="Zoom_In">
</g>
<g id="Zoom_Out">
</g>
<g id="Search">
</g>
<g id="Back_Arrow">
</g>
<g id="Close">
</g>
<g id="Check_2">
</g>
<g id="Left_Arrow_2">
</g>
<g id="Right_Arrow_2">
</g>
</svg>
