<?xml version="1.0" encoding="iso-8859-1"?>
<!-- Generator: Adobe Illustrator 19.2.1, SVG Export Plug-In . SVG Version: 6.00 Build 0)  -->
<svg version="1.1" xmlns="http://www.w3.org/2000/svg" xmlns:xlink="http://www.w3.org/1999/xlink" x="0px" y="0px"
	 viewBox="0 0 24 24" style="enable-background:new 0 0 24 24;" xml:space="preserve">
<g id="Event">
</g>
<g id="Event_2">
</g>
<g id="Add_Event">
</g>
<g id="Remove_Event">
</g>
<g id="Event_Reminder">
</g>
<g id="Wine_Glass">
</g>
<g id="Toast">
</g>
<g id="Champagne">
</g>
<g id="Champagne_Open">
</g>
<g id="Alcohol_Drink">
</g>
<g id="Beer_Glass">
</g>
<g id="Party_Cake">
</g>
<g id="Pizza_Food">
</g>
<g id="Disco_Ball">
</g>
<g id="Equalizer">
</g>
<g id="DJ">
</g>
<g id="Tent">
</g>
<g id="Firework_1">
</g>
<g id="Firework_2">
</g>
<g id="Party_Glasses">
</g>
<g id="Barbeque">
</g>
<g id="Horn">
</g>
<g id="Speaker">
</g>
<g id="VIP">
</g>
<g id="Event_Ticket">
</g>
<g id="VIP_Ticket">
</g>
<g id="Popcorn">
</g>
<g id="Cord">
</g>
<g id="Invitation_1">
	<g>
		<path d="M8.553,16.673l0.856-0.669l-7.216-5.608C2.067,10.297,2.008,10.149,2.008,10H2V6.599L0.539,7.816
			C0.196,8.102,0,8.522,0,8.968V22.5c0,0.261,0.073,0.502,0.19,0.716L8.553,16.673L8.553,16.673z"/>
		<path d="M12.764,15.38L20,9.756V0H3v9.756l7.237,5.624C11.018,14.881,11.986,14.881,12.764,15.38z M10.629,3.165
			C10.724,3.06,10.858,3,11,3h1c0.142,0,0.276,0.06,0.371,0.165c0.095,0.104,0.141,0.245,0.126,0.385l-0.5,5
			C11.972,8.805,11.757,9,11.5,9s-0.472-0.195-0.497-0.45l-0.5-5C10.488,3.409,10.534,3.269,10.629,3.165z M11.5,10.5
			c0.552,0,1,0.449,1,1s-0.448,1-1,1s-1-0.449-1-1S10.948,10.5,11.5,10.5z"/>
		<path d="M22.461,7.816L21,6.599V10h-0.008c0,0.149-0.058,0.297-0.185,0.395l-7.213,5.606l1.851,1.437l7.388,5.736
			C22.936,22.97,23,22.744,23,22.5V8.968C23,8.522,22.804,8.102,22.461,7.816z"/>
		<path d="M10.678,16.28l-9.728,7.612C1.12,23.96,1.305,24,1.5,24h20c0.214,0,0.417-0.047,0.601-0.128l-9.783-7.595
			C11.831,15.907,11.169,15.907,10.678,16.28z"/>
	</g>
</g>
<g id="Invitation_2">
</g>
</svg>
