<?xml version="1.0" encoding="iso-8859-1"?>
<!-- Generator: Adobe Illustrator 19.2.1, SVG Export Plug-In . SVG Version: 6.00 Build 0)  -->
<svg version="1.1" xmlns="http://www.w3.org/2000/svg" xmlns:xlink="http://www.w3.org/1999/xlink" x="0px" y="0px"
	 viewBox="0 0 24 24" style="enable-background:new 0 0 24 24;" xml:space="preserve">
<g id="Armchair_1">
</g>
<g id="Armchair_2">
</g>
<g id="Armchair_3">
</g>
<g id="Armchair_4">
</g>
<g id="Sofa_1">
</g>
<g id="Sofa_2">
</g>
<g id="Sofa_3">
</g>
<g id="Sofa_4">
</g>
<g id="Sofa_5">
</g>
<g id="Sofa_6">
</g>
<g id="Desk_1">
</g>
<g id="Desk_2">
</g>
<g id="Desk_3">
</g>
<g id="Lamp">
</g>
<g id="Bed_1">
</g>
<g id="Bunk_Beds">
</g>
<g id="Bed_2">
</g>
<g id="Bed_3">
</g>
<g id="Bed_4">
</g>
<g id="Bed_5">
</g>
<g id="Table_1">
</g>
<g id="Table_2">
</g>
<g id="Table_3">
</g>
<g id="Table_4">
</g>
<g id="Rug_1">
</g>
<g id="Rug_2">
</g>
<g id="Rug_3">
</g>
<g id="Tub_1">
</g>
<g id="Tub_2">
</g>
<g id="Jacuzzi">
</g>
<g id="Corner_Tub">
</g>
<g id="Shower_Tray">
</g>
<g id="Sink_1">
</g>
<g id="Sink_2">
</g>
<g id="Toilette">
</g>
<g id="Stove">
</g>
<g id="Kitchen_Sink">
</g>
<g id="Island">
	<g>
		<path d="M19.5,17h-5c-0.15,0-0.293,0.068-0.388,0.185s-0.133,0.27-0.102,0.417l0.518,2.485C14.763,21.213,15.629,22,16.635,22
			h0.73c1.006,0,1.872-0.787,2.106-1.913l0.518-2.485c0.031-0.147-0.007-0.301-0.102-0.417S19.65,17,19.5,17z"/>
		<path d="M8.5,17h-5c-0.15,0-0.293,0.068-0.388,0.185s-0.133,0.27-0.102,0.417l0.518,2.485C3.763,21.213,4.629,22,5.635,22h0.73
			c1.006,0,1.872-0.787,2.106-1.913l0.518-2.485c0.031-0.147-0.007-0.301-0.102-0.417S8.65,17,8.5,17z"/>
		<circle cx="6" cy="9" r="1"/>
		<circle cx="12" cy="9" r="1"/>
		<path d="M23.5,2h-23C0.224,2,0,2.224,0,2.5v13C0,15.776,0.224,16,0.5,16h23c0.276,0,0.5-0.224,0.5-0.5v-13
			C24,2.224,23.776,2,23.5,2z M6,11c-1.103,0-2-0.897-2-2s0.897-2,2-2s2,0.897,2,2S7.103,11,6,11z M12,11c-1.103,0-2-0.897-2-2
			s0.897-2,2-2s2,0.897,2,2S13.103,11,12,11z M18,11c-1.103,0-2-0.897-2-2s0.897-2,2-2s2,0.897,2,2S19.103,11,18,11z"/>
		<circle cx="18" cy="9" r="1"/>
	</g>
</g>
<g id="Eat-in_Kitchen">
</g>
<g id="Tv_Stand">
</g>
</svg>
