<?xml version="1.0" encoding="iso-8859-1"?>
<!-- Generator: Adobe Illustrator 19.2.1, SVG Export Plug-In . SVG Version: 6.00 Build 0)  -->
<svg version="1.1" xmlns="http://www.w3.org/2000/svg" xmlns:xlink="http://www.w3.org/1999/xlink" x="0px" y="0px"
	 viewBox="0 0 30 30" style="enable-background:new 0 0 30 30;" xml:space="preserve">
<g id="Man_1">
</g>
<g id="Woman_1">
</g>
<g id="Man_2">
</g>
<g id="Woman_2">
</g>
<g id="Bald_Man">
</g>
<g id="Man_Glasses">
</g>
<g id="Woman_Glasses">
</g>
<g id="Man_Beard">
</g>
<g id="Man_Cap">
</g>
<g id="Woman_Cap">
</g>
<g id="Man_3">
</g>
<g id="Woman_3">
</g>
<g id="Men_4">
</g>
<g id="Woman_4">
</g>
<g id="Business_Man_1">
</g>
<g id="Business_Woman_1">
</g>
<g id="Firefigyhter">
</g>
<g id="Policeman">
</g>
<g id="Criminal">
</g>
<g id="Prisoner">
</g>
<g id="Woodsman">
</g>
<g id="Dispatcher_1">
</g>
<g id="Dispatcher_2">
</g>
<g id="Soldier">
</g>
<g id="Astronaut">
</g>
<g id="Hipster_Guy">
</g>
<g id="Hipster_Girl">
</g>
<g id="Worker">
</g>
<g id="Old_Man">
</g>
<g id="Punk">
</g>
<g id="Diver">
</g>
<g id="Artist">
</g>
<g id="Dictator">
</g>
<g id="Man_Hat">
</g>
<g id="Woman_Hat">
</g>
<g id="Graduated_Man">
</g>
<g id="Graduated_Woman">
</g>
<g id="Avatar_Chef">
</g>
<g id="Waiter">
</g>
<g id="Waitress">
</g>
<g id="Bllboy">
</g>
<g id="Santa">
</g>
<g id="Doctor">
</g>
<g id="Nurse">
</g>
<g id="Captain">
</g>
<g id="Farmer">
</g>
<g id="Maid">
</g>
<g id="Business_Man_2">
</g>
<g id="Business_Woman_2">
</g>
<g id="Cowboy">
</g>
<g id="Anonymus">
</g>
<g id="Batman">
</g>
<g id="Superman">
</g>
<g id="Captain_America">
</g>
<g id="Darth_Vader">
</g>
<g id="Harry_Potter">
</g>
<g id="Anonymus_2">
</g>
<g id="Scream">
</g>
<g id="Jason">
	<g>
		<path d="M20.855,23.148c-1.098,1.165-2.45,2.056-3.903,2.515c-0.088,0.031-0.21,0.07-0.336,0.105
			c-0.202,0.051-0.369,0.09-0.539,0.12C15.667,25.964,15.306,26,14.948,26s-0.721-0.036-1.143-0.114
			c-0.156-0.027-0.326-0.066-0.497-0.111c-0.15-0.04-0.276-0.08-0.401-0.124c-1.398-0.441-2.711-1.323-3.786-2.486
			c-0.423,0.357-0.983,0.758-1.279,0.861l-0.227,0.076c1.839,1.48,4.807,3.49,7.386,3.49c2.564,0,5.537-2.01,7.381-3.491
			l-0.216-0.072C21.851,23.918,21.254,23.489,20.855,23.148z"/>
		<path d="M15,0C6.729,0,0,6.729,0,15c0,4.264,1.797,8.108,4.662,10.842c0.032,0.032,0.058,0.067,0.097,0.088
			C7.443,28.446,11.04,30,15,30c3.963,0,7.561-1.556,10.246-4.075c0.059-0.034,0.109-0.08,0.15-0.137C28.228,23.059,30,19.236,30,15
			C30,6.729,23.271,0,15,0z M24.866,24.921c-0.232-0.079-0.527-0.175-0.781-0.257c-0.191-0.061-0.352-0.112-0.427-0.139l-0.15-0.05
			C21.64,26.05,18.14,28.591,15,28.591c-3.157,0-6.648-2.539-8.511-4.114l-0.154,0.051c-0.068,0.023-0.229,0.075-0.419,0.136
			c-0.32,0.102-0.582,0.187-0.783,0.256C2.582,22.383,1,18.873,1,15C1,7.28,7.28,1,15,1s14,6.28,14,14
			C29,18.874,27.417,22.384,24.866,24.921z"/>
		<path d="M15,24.5c3.99,0,7-4.084,7-9.5v-3c0-4.206-3.075-7.5-7-7.5c-3.925,0-7,3.294-7,7.5v3C8,20.416,11.009,24.5,15,24.5z M9,12
			c0-3.645,2.636-6.5,6-6.5s6,2.855,6,6.5v3c0,4.846-2.579,8.5-6,8.5c-3.42,0-6-3.654-6-8.5V12z"/>
		<path d="M16,13.5c0,0.972,1.028,2,2,2s2-1.028,2-2c0-1-1.252-1-2-1S16,12.5,16,13.5z M18,13.5c0.266,0,0.791,0,0.994,0.073
			C18.933,13.978,18.388,14.5,18,14.5s-0.933-0.522-0.994-0.927C17.209,13.5,17.734,13.5,18,13.5z"/>
		<path d="M12,15.5c0.972,0,2-1.028,2-2c0-1-1.252-1-2-1s-2,0-2,1C10,14.472,11.028,15.5,12,15.5z M12,13.5
			c0.266,0,0.791,0,0.994,0.073C12.932,13.978,12.387,14.5,12,14.5s-0.932-0.522-0.994-0.927C11.209,13.5,11.734,13.5,12,13.5z"/>
		<path d="M13.084,10.723c-0.153,0.23-0.091,0.54,0.139,0.693l1.5,1C14.807,12.472,14.903,12.5,15,12.5s0.193-0.028,0.277-0.084
			l1.5-1c0.229-0.153,0.292-0.463,0.139-0.693c-0.155-0.23-0.466-0.291-0.693-0.139L15,11.399l-1.223-0.815
			C13.545,10.431,13.236,10.492,13.084,10.723z"/>
		<circle cx="13.5" cy="8" r="0.5"/>
		<circle cx="11.5" cy="10" r="0.5"/>
		<circle cx="16.5" cy="8" r="0.5"/>
		<circle cx="18.5" cy="10" r="0.5"/>
		<circle cx="15" cy="17" r="0.5"/>
		<circle cx="16.5" cy="19" r="0.5"/>
		<circle cx="16.5" cy="21" r="0.5"/>
		<circle cx="13.5" cy="21" r="0.5"/>
		<circle cx="19.5" cy="17" r="0.5"/>
		<circle cx="10.5" cy="17" r="0.5"/>
		<circle cx="13.5" cy="19" r="0.5"/>
	</g>
</g>
<g id="Charlie_Chaplin">
</g>
</svg>
