<?xml version="1.0" encoding="iso-8859-1"?>
<!-- Generator: Adobe Illustrator 19.2.1, SVG Export Plug-In . SVG Version: 6.00 Build 0)  -->
<svg version="1.1" xmlns="http://www.w3.org/2000/svg" xmlns:xlink="http://www.w3.org/1999/xlink" x="0px" y="0px"
	 viewBox="0 0 30 30" style="enable-background:new 0 0 30 30;" xml:space="preserve">
<g id="Armchair_1">
</g>
<g id="Armchair_2">
</g>
<g id="Armchair_3">
</g>
<g id="Armchair_4">
</g>
<g id="Sofa_1">
</g>
<g id="Sofa_2">
</g>
<g id="Sofa_3">
</g>
<g id="Sofa_4">
</g>
<g id="Sofa_5">
</g>
<g id="Sofa_6">
</g>
<g id="Desk_1">
</g>
<g id="Desk_2">
</g>
<g id="Desk_3">
</g>
<g id="Lamp">
</g>
<g id="Bed_1">
</g>
<g id="Bunk_Beds">
</g>
<g id="Bed_2">
</g>
<g id="Bed_3">
</g>
<g id="Bed_4">
</g>
<g id="Bed_5">
</g>
<g id="Table_1">
</g>
<g id="Table_2">
</g>
<g id="Table_3">
</g>
<g id="Table_4">
</g>
<g id="Rug_1">
</g>
<g id="Rug_2">
</g>
<g id="Rug_3">
</g>
<g id="Tub_1">
</g>
<g id="Tub_2">
</g>
<g id="Jacuzzi">
</g>
<g id="Corner_Tub">
</g>
<g id="Shower_Tray">
</g>
<g id="Sink_1">
</g>
<g id="Sink_2">
</g>
<g id="Toilette">
</g>
<g id="Stove">
</g>
<g id="Kitchen_Sink">
	<path d="M28,7H11v1.5c0,0.057-0.015,0.109-0.032,0.159C11.439,8.914,12,9.48,12,10.5c0,0.276-0.224,0.5-0.5,0.5S11,10.776,11,10.5
		c0-0.701-0.412-0.934-0.581-1H9v3C9,12.776,8.776,13,8.5,13S8,12.776,8,12.5v-3H6.595C6.431,9.576,6,9.838,6,10.5
		C6,10.776,5.776,11,5.5,11S5,10.776,5,10.5c0-0.985,0.568-1.563,1.034-1.83C6.015,8.616,6,8.56,6,8.5V7H2C1.028,7,0,8.028,0,9v12
		c0,0.972,1.028,2,2,2h26c0.972,0,2-1.028,2-2V9C30,8.028,28.972,7,28,7z M5.5,17C5.776,17,6,17.224,6,17.5
		C6,17.776,5.776,18,5.5,18S5,17.776,5,17.5C5,17.224,5.224,17,5.5,17z M15,18c0,1.654-1.346,3-3,3H5c-1.654,0-3-1.346-3-3v-4.955
		c0-0.596,0.339-1.4,0.566-1.795c0.138-0.239,0.442-0.322,0.684-0.183c0.239,0.138,0.321,0.444,0.184,0.683
		C3.229,12.105,3,12.725,3,13.045V18c0,1.103,0.897,2,2,2h7c1.103,0,2-0.897,2-2v-4.955c0-0.321-0.229-0.94-0.434-1.295
		c-0.138-0.239-0.056-0.545,0.184-0.683c0.239-0.139,0.545-0.056,0.684,0.183C14.661,11.646,15,12.45,15,13.045V18z M26.5,20h-9
		c-0.276,0-0.5-0.224-0.5-0.5s0.224-0.5,0.5-0.5h9c0.276,0,0.5,0.224,0.5,0.5S26.776,20,26.5,20z M26.5,17h-9
		c-0.276,0-0.5-0.224-0.5-0.5s0.224-0.5,0.5-0.5h9c0.276,0,0.5,0.224,0.5,0.5S26.776,17,26.5,17z M26.5,14h-9
		c-0.276,0-0.5-0.224-0.5-0.5s0.224-0.5,0.5-0.5h9c0.276,0,0.5,0.224,0.5,0.5S26.776,14,26.5,14z M26.5,11h-9
		c-0.276,0-0.5-0.224-0.5-0.5s0.224-0.5,0.5-0.5h9c0.276,0,0.5,0.224,0.5,0.5S26.776,11,26.5,11z"/>
</g>
<g id="Island">
</g>
<g id="Eat-in_Kitchen">
</g>
<g id="Tv_Stand">
</g>
</svg>
