<?xml version="1.0" encoding="iso-8859-1"?>
<!-- Generator: Adobe Illustrator 19.2.1, SVG Export Plug-In . SVG Version: 6.00 Build 0)  -->
<svg version="1.1" xmlns="http://www.w3.org/2000/svg" xmlns:xlink="http://www.w3.org/1999/xlink" x="0px" y="0px"
	 viewBox="0 0 24 24" style="enable-background:new 0 0 24 24;" xml:space="preserve">
<g id="Cutting_Board_1">
</g>
<g id="Cutting_Board_2">
</g>
<g id="Chef_x27_s_Hat_1">
</g>
<g id="Chef_x27_s_Hat_2">
</g>
<g id="Kitchen_Scale">
</g>
<g id="Measuring_Cup">
</g>
<g id="Pot_1">
</g>
<g id="Pot_2">
</g>
<g id="Wok_1">
</g>
<g id="Wok_2">
</g>
<g id="Teapot">
</g>
<g id="Plate">
</g>
<g id="Sauce_Boat">
</g>
<g id="Cauldron">
</g>
<g id="Cookbook">
</g>
<g id="Salt_Pot">
</g>
<g id="Pepper_Pot_1">
</g>
<g id="Pepper_Pot_2">
</g>
<g id="Egg_Timer">
</g>
<g id="Olive_Oil_Pot">
</g>
<g id="Pancake_Griddle">
</g>
<g id="Pan">
</g>
<g id="Kettle">
</g>
<g id="Microwave">
</g>
<g id="Cooker">
</g>
<g id="Meat_Grinder">
</g>
<g id="Coffee_Maker">
</g>
<g id="Household_Mixer">
</g>
<g id="Stand_Mixer">
</g>
<g id="Hand_Blender">
</g>
<g id="Blender">
</g>
<g id="Cooker_Hood">
</g>
<g id="Refrigerator">
</g>
<g id="Freezer">
</g>
<g id="Apron">
</g>
<g id="Oven_Gloves">
</g>
<g id="Rolling_Pin">
</g>
<g id="Sieve">
</g>
<g id="Tea_Sieve">
</g>
<g id="Grater">
</g>
<g id="Knife_Holder">
</g>
<g id="Funnel">
</g>
<g id="Kitchen_Clock">
	<g>
		<path d="M22,13.5c0-5.621-4.443-10.211-10-10.475V1h0.5C12.776,1,13,0.776,13,0.5S12.776,0,12.5,0h-2C10.224,0,10,0.224,10,0.5
			S10.224,1,10.5,1H11v2.025C5.443,3.289,1,7.879,1,13.5c0,3.278,1.512,6.208,3.873,8.135l-0.82,1.641
			c-0.124,0.247-0.023,0.547,0.224,0.671C4.348,23.983,4.424,24,4.5,24c0.184,0,0.36-0.101,0.448-0.276l0.743-1.485
			C7.355,23.349,9.352,24,11.5,24s4.145-0.651,5.81-1.761l0.743,1.485C18.141,23.899,18.317,24,18.5,24
			c0.075,0,0.151-0.017,0.223-0.053c0.247-0.124,0.347-0.424,0.224-0.671l-0.82-1.641C20.488,19.708,22,16.778,22,13.5z M14.051,14
			H12v1.5v2c0,0.276-0.224,0.5-0.5,0.5S11,17.776,11,17.5v-2V14H7.5C7.224,14,7,13.776,7,13.5S7.224,13,7.5,13H11v-2
			c0-0.977-0.066-1.359-0.854-2.146C10.053,8.76,10,8.633,10,8.5v-3C10,5.224,10.224,5,10.5,5S11,5.224,11,5.5v2.797
			c0.206,0.218,0.369,0.421,0.5,0.62c0.131-0.199,0.294-0.402,0.5-0.62V5.5C12,5.224,12.224,5,12.5,5S13,5.224,13,5.5v3
			c0,0.133-0.053,0.26-0.146,0.354C12.066,9.641,12,10.023,12,11v2h2.051c0.232-1.14,1.242-2,2.449-2c1.202,0,3.5,0.974,3.5,2.5
			S17.702,16,16.5,16C15.293,16,14.283,15.14,14.051,14z"/>
		<path d="M18,0c-1.395,0-2.693,0.571-3.655,1.607c-0.119,0.128-0.163,0.309-0.115,0.477c0.047,0.168,0.179,0.299,0.347,0.346
			c2.86,0.793,5.274,2.641,6.8,5.203c0.089,0.149,0.25,0.242,0.424,0.244c0.001,0,0.003,0,0.005,0c0.172,0,0.333-0.088,0.424-0.235
			C22.734,6.838,23,5.924,23,5C23,2.243,20.757,0,18,0z"/>
		<path d="M1.199,7.877c0.174-0.002,0.335-0.095,0.424-0.244c1.525-2.562,3.94-4.41,6.8-5.203c0.168-0.047,0.3-0.178,0.347-0.346
			c0.048-0.168,0.004-0.349-0.115-0.477C7.693,0.571,6.395,0,5,0C2.243,0,0,2.243,0,5c0,0.924,0.266,1.838,0.77,2.642
			c0.091,0.146,0.252,0.235,0.424,0.235C1.195,7.877,1.197,7.877,1.199,7.877z"/>
	</g>
</g>
<g id="Lemon_Juicer">
</g>
<g id="Pastry_Bag_1">
</g>
<g id="Pastry_Bag_2">
</g>
<g id="Corkscrew">
</g>
<g id="Bottle_Opener">
</g>
<g id="Service">
</g>
<g id="Chopsticks">
</g>
<g id="Hatchet">
</g>
<g id="Filleting_Knife">
</g>
<g id="Bread_Knife">
</g>
<g id="Herb_Knife">
</g>
<g id="Whetting">
</g>
<g id="Cake_Knife">
</g>
<g id="Layer_58">
</g>
<g id="Ladle">
</g>
<g id="Sauce_Spoon">
</g>
<g id="Egg_Beater">
</g>
<g id="Meat_Fork">
</g>
<g id="Kitchen_Spoon_1">
</g>
<g id="Kitchen_Spoon_2">
</g>
<g id="Pizza_Cutter">
</g>
<g id="Potato_Musher">
</g>
<g id="Peeler">
</g>
<g id="Honey_Dipper">
</g>
<g id="Fork">
</g>
<g id="Knife">
</g>
<g id="Spoon">
</g>
<g id="Cutlery_Set">
</g>
<g id="Sugar_Bowl">
</g>
<g id="Matches">
</g>
<g id="Cezve">
</g>
</svg>
