<?xml version="1.0" encoding="iso-8859-1"?>
<!-- Generator: Adobe Illustrator 19.2.1, SVG Export Plug-In . SVG Version: 6.00 Build 0)  -->
<svg version="1.1" xmlns="http://www.w3.org/2000/svg" xmlns:xlink="http://www.w3.org/1999/xlink" x="0px" y="0px"
	 viewBox="0 0 30 30" style="enable-background:new 0 0 30 30;" xml:space="preserve">
<g id="Sun_Light">
</g>
<g id="Sunglasses">
</g>
<g id="T-Shirt_1">
</g>
<g id="T-Shirt_2">
</g>
<g id="Mini_Dress">
</g>
<g id="Flip-Flops">
</g>
<g id="Temperature">
</g>
<g id="Hot_Temperature">
</g>
<g id="Ice_Lolly">
</g>
<g id="Icecream">
</g>
<g id="Limonade_1">
</g>
<g id="Limonade_2">
</g>
<g id="Hat">
</g>
<g id="Straw_Hat">
</g>
<g id="Deckchair">
</g>
<g id="Sunshade">
</g>
<g id="Suncream">
</g>
<g id="Suntan_Oil">
</g>
<g id="Swimming_Trunks">
</g>
<g id="Bikini">
</g>
<g id="Pool">
</g>
<g id="Pool_Ladder">
</g>
<g id="Grill">
</g>
<g id="Kite_1">
	<g>
		<polygon points="28.051,1.242 14.594,0.018 21.935,7.358 		"/>
		<polygon points="9.582,21.125 29.346,16.184 21.935,8.772 		"/>
		<polygon points="29.982,15.406 28.758,1.948 22.642,8.065 		"/>
		<path d="M9.519,21.135c0.255-0.106,0.375-0.399,0.269-0.654c-0.107-0.254-0.399-0.373-0.654-0.268
			c-0.037,0.016-0.065,0.033-0.101,0.049L21.227,8.065l-7.411-7.411L8.898,20.326c-1.387,0.621-2.217,1.345-2.776,2.111
			l-0.856-0.856c-0.114-0.114-0.271-0.168-0.434-0.14c-0.159,0.025-0.295,0.126-0.367,0.27l-0.63,1.261
			c-0.078,0.155-0.069,0.339,0.022,0.486s0.252,0.237,0.425,0.237H5.4c-0.121,0.267-0.234,0.534-0.343,0.8
			c-0.299,0.735-0.593,1.452-1.13,2.14l-0.441-1.103c-0.06-0.149-0.188-0.261-0.343-0.3c-0.155-0.037-0.321,0-0.443,0.104
			l-1.146,0.967c-0.136,0.114-0.201,0.293-0.17,0.469c0.031,0.176,0.153,0.321,0.32,0.383l1.242,0.454
			c-0.631,0.497-1.466,0.974-2.627,1.426c-0.257,0.1-0.384,0.39-0.284,0.647C0.111,29.879,0.3,30,0.5,30
			c0.061,0,0.122-0.011,0.182-0.034c1.249-0.486,2.17-1.017,2.873-1.57l0.264,0.659C3.877,29.2,4,29.311,4.151,29.352
			c0.043,0.012,0.087,0.018,0.131,0.018c0.109,0,0.217-0.036,0.306-0.104l1.146-0.885c0.144-0.111,0.216-0.292,0.188-0.472
			c-0.028-0.181-0.151-0.331-0.322-0.394l-0.851-0.312c0.604-0.784,0.93-1.58,1.235-2.331c0.113-0.279,0.227-0.547,0.349-0.811
			l0.749,0.749c0.095,0.095,0.222,0.146,0.354,0.146c0.026,0,0.053-0.002,0.08-0.007c0.159-0.025,0.295-0.126,0.367-0.27
			l0.631-1.261c0.078-0.155,0.069-0.339-0.022-0.486c-0.091-0.147-0.252-0.237-0.425-0.237h-0.87
			C7.697,22.127,8.399,21.604,9.519,21.135z"/>
	</g>
</g>
<g id="Kite_2">
</g>
<g id="Badminton">
</g>
<g id="Cooler">
</g>
<g id="Strand_Bag">
</g>
<g id="Towel">
</g>
<g id="Strand_Ball">
</g>
<g id="Beach_Sign">
</g>
<g id="Toos">
</g>
<g id="Bucket">
</g>
<g id="Sand_Castle">
</g>
<g id="Shell_1">
</g>
<g id="Shell_2">
</g>
<g id="Surf_Board">
</g>
<g id="Float">
</g>
<g id="Vacation_Photo">
</g>
<g id="Summer_Time">
</g>
<g id="Boat">
</g>
<g id="Lifebuoy">
</g>
<g id="Lighthouse">
</g>
<g id="Sunset">
</g>
<g id="Dolphin">
</g>
<g id="Starfish">
</g>
<g id="Diving_Mask">
</g>
<g id="Sailboat">
</g>
<g id="Captin_Hat">
</g>
<g id="Eudder">
</g>
</svg>
