<?xml version="1.0" encoding="iso-8859-1"?>
<!-- Generator: Adobe Illustrator 19.2.1, SVG Export Plug-In . SVG Version: 6.00 Build 0)  -->
<svg version="1.1" xmlns="http://www.w3.org/2000/svg" xmlns:xlink="http://www.w3.org/1999/xlink" x="0px" y="0px"
	 viewBox="0 0 30 30" style="enable-background:new 0 0 30 30;" xml:space="preserve">
<g id="Cutting_Board_1">
</g>
<g id="Cutting_Board_2">
</g>
<g id="Chef_x27_s_Hat_1">
</g>
<g id="Chef_x27_s_Hat_2">
</g>
<g id="Kitchen_Scale">
</g>
<g id="Measuring_Cup">
</g>
<g id="Pot_1">
</g>
<g id="Pot_2">
</g>
<g id="Wok_1">
</g>
<g id="Wok_2">
</g>
<g id="Teapot">
</g>
<g id="Plate">
</g>
<g id="Sauce_Boat">
</g>
<g id="Cauldron">
</g>
<g id="Cookbook">
</g>
<g id="Salt_Pot">
</g>
<g id="Pepper_Pot_1">
</g>
<g id="Pepper_Pot_2">
</g>
<g id="Egg_Timer">
</g>
<g id="Olive_Oil_Pot">
</g>
<g id="Pancake_Griddle">
</g>
<g id="Pan">
</g>
<g id="Kettle">
</g>
<g id="Microwave">
</g>
<g id="Cooker">
</g>
<g id="Meat_Grinder">
</g>
<g id="Coffee_Maker">
</g>
<g id="Household_Mixer">
</g>
<g id="Stand_Mixer">
</g>
<g id="Hand_Blender">
</g>
<g id="Blender">
</g>
<g id="Cooker_Hood">
</g>
<g id="Refrigerator">
</g>
<g id="Freezer">
</g>
<g id="Apron">
</g>
<g id="Oven_Gloves">
</g>
<g id="Rolling_Pin">
</g>
<g id="Sieve">
</g>
<g id="Tea_Sieve">
</g>
<g id="Grater">
</g>
<g id="Knife_Holder">
	<g>
		<path d="M28.983,3.044c-1.321-1.322-3.628-1.322-4.949,0l-7.085,7.084c-0.094,0.094-0.146,0.221-0.146,0.354
			s0.053,0.26,0.146,0.354l3.536,3.536c0.094,0.094,0.221,0.146,0.354,0.146s0.26-0.053,0.354-0.146l5.363-5.364
			c0.914-0.011,1.789-0.374,2.428-1.014c0.661-0.661,1.025-1.54,1.025-2.475S29.644,3.705,28.983,3.044z M26.837,4.853
			c-0.191,0.195-0.5,0.195-0.691,0c-0.191-0.195-0.191-0.51,0-0.705c0.191-0.195,0.5-0.195,0.691,0
			C27.028,4.342,27.028,4.658,26.837,4.853z"/>
		<path d="M14.845,10.146c-0.195-0.195-0.512-0.195-0.707,0l-14,14C0.044,24.24-0.008,24.367-0.008,24.5v4
			c0,0.276,0.224,0.5,0.5,0.5h0.5v0.5c0,0.276,0.224,0.5,0.5,0.5s0.5-0.224,0.5-0.5V29h10v0.5c0,0.276,0.224,0.5,0.5,0.5
			s0.5-0.224,0.5-0.5V29h0.5c0.142,0,0.277-0.06,0.372-0.166l9-10c0.178-0.198,0.17-0.5-0.018-0.688L14.845,10.146z M14.845,14.854
			l-9,9C5.748,23.951,5.62,24,5.492,24s-0.256-0.049-0.354-0.146c-0.195-0.195-0.195-0.512,0-0.707l9-9
			c0.195-0.195,0.512-0.195,0.707,0S15.041,14.658,14.845,14.854z"/>
	</g>
</g>
<g id="Funnel">
</g>
<g id="Kitchen_Clock">
</g>
<g id="Lemon_Juicer">
</g>
<g id="Pastry_Bag_1">
</g>
<g id="Pastry_Bag_2">
</g>
<g id="Corkscrew">
</g>
<g id="Bottle_Opener">
</g>
<g id="Service">
</g>
<g id="Chopsticks">
</g>
<g id="Hatchet">
</g>
<g id="Filleting_Knife">
</g>
<g id="Bread_Knife">
</g>
<g id="Herb_Knife">
</g>
<g id="Whetting">
</g>
<g id="Cake_Knife">
</g>
<g id="Layer_58">
</g>
<g id="Ladle">
</g>
<g id="Sauce_Spoon">
</g>
<g id="Egg_Beater">
</g>
<g id="Meat_Fork">
</g>
<g id="Kitchen_Spoon_1">
</g>
<g id="Kitchen_Spoon_2">
</g>
<g id="Pizza_Cutter">
</g>
<g id="Potato_Musher">
</g>
<g id="Peeler">
</g>
<g id="Honey_Dipper">
</g>
<g id="Fork">
</g>
<g id="Knife">
</g>
<g id="Spoon">
</g>
<g id="Cutlery_Set">
</g>
<g id="Sugar_Bowl">
</g>
<g id="Matches">
</g>
<g id="Cezve">
</g>
</svg>
