<?xml version="1.0" encoding="iso-8859-1"?>
<!-- Generator: Adobe Illustrator 19.2.1, SVG Export Plug-In . SVG Version: 6.00 Build 0)  -->
<svg version="1.1" xmlns="http://www.w3.org/2000/svg" xmlns:xlink="http://www.w3.org/1999/xlink" x="0px" y="0px"
	 viewBox="0 0 30 30" style="enable-background:new 0 0 30 30;" xml:space="preserve">
<g id="Cutting_Board_1">
</g>
<g id="Cutting_Board_2">
</g>
<g id="Chef_x27_s_Hat_1">
</g>
<g id="Chef_x27_s_Hat_2">
</g>
<g id="Kitchen_Scale">
</g>
<g id="Measuring_Cup">
</g>
<g id="Pot_1">
</g>
<g id="Pot_2">
</g>
<g id="Wok_1">
</g>
<g id="Wok_2">
</g>
<g id="Teapot">
</g>
<g id="Plate">
</g>
<g id="Sauce_Boat">
</g>
<g id="Cauldron">
</g>
<g id="Cookbook">
</g>
<g id="Salt_Pot">
</g>
<g id="Pepper_Pot_1">
</g>
<g id="Pepper_Pot_2">
</g>
<g id="Egg_Timer">
</g>
<g id="Olive_Oil_Pot">
</g>
<g id="Pancake_Griddle">
</g>
<g id="Pan">
</g>
<g id="Kettle">
</g>
<g id="Microwave">
</g>
<g id="Cooker">
</g>
<g id="Meat_Grinder">
</g>
<g id="Coffee_Maker">
</g>
<g id="Household_Mixer">
</g>
<g id="Stand_Mixer">
</g>
<g id="Hand_Blender">
</g>
<g id="Blender">
</g>
<g id="Cooker_Hood">
</g>
<g id="Refrigerator">
</g>
<g id="Freezer">
</g>
<g id="Apron">
</g>
<g id="Oven_Gloves">
</g>
<g id="Rolling_Pin">
</g>
<g id="Sieve">
</g>
<g id="Tea_Sieve">
</g>
<g id="Grater">
</g>
<g id="Knife_Holder">
	<g>
		<g>
			<path d="M13.5,26.977h-13c-0.276,0-0.5-0.224-0.5-0.5v-4c0-0.132,0.052-0.258,0.144-0.352l13.826-14
				c0.095-0.096,0.208-0.157,0.359-0.148c0.135,0.001,0.264,0.057,0.357,0.153l8.174,8.5c0.185,0.192,0.187,0.497,0.002,0.69l-9,9.5
				C13.769,26.92,13.637,26.977,13.5,26.977z M1,25.977h12.285l8.523-8.997l-7.487-7.786L1,22.682V25.977z"/>
		</g>
		<g>
			<path d="M7.5,21.977c-0.117,0-0.234-0.041-0.329-0.124c-0.208-0.182-0.229-0.497-0.047-0.705l7-8
				c0.182-0.208,0.498-0.229,0.706-0.047c0.208,0.182,0.229,0.497,0.047,0.705l-7,8C7.777,21.919,7.639,21.977,7.5,21.977z"/>
		</g>
		<g>
			<path d="M1.5,27.977c-0.276,0-0.5-0.224-0.5-0.5v-1c0-0.276,0.224-0.5,0.5-0.5S2,26.2,2,26.477v1
				C2,27.753,1.776,27.977,1.5,27.977z"/>
		</g>
		<g>
			<path d="M12.5,27.977c-0.276,0-0.5-0.224-0.5-0.5v-1c0-0.276,0.224-0.5,0.5-0.5s0.5,0.224,0.5,0.5v1
				C13,27.753,12.776,27.977,12.5,27.977z"/>
		</g>
		<g>
			<path d="M19.875,14.769c-0.137,0-0.267-0.056-0.362-0.155l-3.021-3.167c-0.187-0.195-0.184-0.505,0.007-0.697l5.828-5.856
				c0.186-0.651,0.521-1.235,0.974-1.696l0,0c0.741-0.757,1.727-1.173,2.776-1.173c0,0,0,0,0,0c1.049,0,2.035,0.416,2.776,1.173
				c1.523,1.554,1.523,4.082,0,5.636c-1.168,1.191-2.926,1.493-4.405,0.801l-4.193,4.959c-0.092,0.108-0.225,0.172-0.367,0.177
				C19.885,14.769,19.88,14.769,19.875,14.769z M17.552,11.109l2.3,2.411l4.095-4.843c0.159-0.187,0.432-0.233,0.642-0.104
				c1.148,0.7,2.608,0.519,3.551-0.441c1.145-1.168,1.145-3.069,0-4.237c-0.551-0.563-1.284-0.872-2.062-0.872h0
				c-0.778,0-1.511,0.31-2.063,0.872c0,0.001,0,0.001,0,0.001c-0.365,0.371-0.619,0.835-0.755,1.376
				c-0.022,0.088-0.067,0.168-0.13,0.231L17.552,11.109z M23.659,3.546h0.01H23.659z"/>
		</g>
		<g>
			<path d="M26.857,5.123c0.191,0.195,0.191,0.51,0,0.705c-0.191,0.195-0.5,0.195-0.691,0c-0.191-0.195-0.191-0.51,0-0.705
				C26.356,4.928,26.666,4.928,26.857,5.123z"/>
		</g>
	</g>
</g>
<g id="Funnel">
</g>
<g id="Kitchen_Clock">
</g>
<g id="Lemon_Juicer">
</g>
<g id="Pastry_Bag_1">
</g>
<g id="Pastry_Bag_2">
</g>
<g id="Corkscrew">
</g>
<g id="Bottle_Opener">
</g>
<g id="Service">
</g>
<g id="Chopsticks">
</g>
<g id="Hatchet">
</g>
<g id="Filleting_Knife">
</g>
<g id="Bread_Knife">
</g>
<g id="Herb_Knife">
</g>
<g id="Whetting">
</g>
<g id="Cake_Knife">
</g>
<g id="Layer_58">
</g>
<g id="Ladle">
</g>
<g id="Sauce_Spoon">
</g>
<g id="Egg_Beater">
</g>
<g id="Meat_Fork">
</g>
<g id="Kitchen_Spoon_1">
</g>
<g id="Kitchen_Spoon_2">
</g>
<g id="Pizza_Cutter">
</g>
<g id="Potato_Musher">
</g>
<g id="Peeler">
</g>
<g id="Honey_Dipper">
</g>
<g id="Fork">
</g>
<g id="Knife">
</g>
<g id="Spoon">
</g>
<g id="Cutlery_Set">
</g>
<g id="Sugar_Bowl">
</g>
<g id="Matches">
</g>
<g id="Cezve">
</g>
</svg>
