<?xml version="1.0" encoding="iso-8859-1"?>
<!-- Generator: Adobe Illustrator 19.2.1, SVG Export Plug-In . SVG Version: 6.00 Build 0)  -->
<svg version="1.1" xmlns="http://www.w3.org/2000/svg" xmlns:xlink="http://www.w3.org/1999/xlink" x="0px" y="0px"
	 viewBox="0 0 30 30" style="enable-background:new 0 0 30 30;" xml:space="preserve">
<g id="Armchair_1">
</g>
<g id="Armchair_2">
</g>
<g id="Armchair_3">
</g>
<g id="Armchair_4">
</g>
<g id="Sofa_1">
</g>
<g id="Sofa_2">
</g>
<g id="Sofa_3">
</g>
<g id="Sofa_4">
</g>
<g id="Sofa_5">
</g>
<g id="Sofa_6">
</g>
<g id="Desk_1">
</g>
<g id="Desk_2">
</g>
<g id="Desk_3">
</g>
<g id="Lamp">
	<path d="M25.938,25.231C28.449,22.548,30,18.956,30,15s-1.551-7.548-4.062-10.231l1.915-1.915c0.195-0.195,0.195-0.512,0-0.707
		s-0.512-0.195-0.707,0l-1.915,1.915C22.548,1.551,18.956,0,15,0S7.452,1.551,4.769,4.062L2.854,2.146
		c-0.195-0.195-0.512-0.195-0.707,0s-0.195,0.512,0,0.707l1.915,1.915C1.551,7.452,0,11.044,0,15s1.551,7.548,4.062,10.231
		l-1.915,1.915c-0.195,0.195-0.195,0.512,0,0.707C2.244,27.951,2.372,28,2.5,28s0.256-0.049,0.354-0.146l1.915-1.915
		C7.452,28.449,11.044,30,15,30s7.548-1.551,10.231-4.062l1.915,1.915C27.244,27.951,27.372,28,27.5,28s0.256-0.049,0.354-0.146
		c0.195-0.195,0.195-0.512,0-0.707L25.938,25.231z M18.88,10.432c-0.019,0.014-0.04,0.021-0.057,0.038l-3.181,3.181
		C15.447,13.557,15.231,13.5,15,13.5s-0.447,0.057-0.643,0.15l-3.228-3.228C12.175,9.537,13.525,9,15,9
		C16.479,9,17.833,9.541,18.88,10.432z M10.423,11.13l3.228,3.228C13.557,14.553,13.5,14.769,13.5,15s0.057,0.447,0.15,0.643
		l-3.228,3.228C9.537,17.825,9,16.475,9,15S9.537,12.175,10.423,11.13z M11.13,19.577l3.228-3.228
		c0.196,0.094,0.412,0.15,0.643,0.15s0.447-0.057,0.643-0.15l3.228,3.228C17.825,20.463,16.475,21,15,21S12.175,20.463,11.13,19.577
		z M19.577,18.87l-3.228-3.228c0.094-0.196,0.15-0.412,0.15-0.643s-0.057-0.447-0.15-0.643l3.181-3.181
		c0.017-0.017,0.024-0.039,0.038-0.057C20.459,12.167,21,13.521,21,15C21,16.475,20.463,17.825,19.577,18.87z"/>
</g>
<g id="Bed_1">
</g>
<g id="Bunk_Beds">
</g>
<g id="Bed_2">
</g>
<g id="Bed_3">
</g>
<g id="Bed_4">
</g>
<g id="Bed_5">
</g>
<g id="Table_1">
</g>
<g id="Table_2">
</g>
<g id="Table_3">
</g>
<g id="Table_4">
</g>
<g id="Rug_1">
</g>
<g id="Rug_2">
</g>
<g id="Rug_3">
</g>
<g id="Tub_1">
</g>
<g id="Tub_2">
</g>
<g id="Jacuzzi">
</g>
<g id="Corner_Tub">
</g>
<g id="Shower_Tray">
</g>
<g id="Sink_1">
</g>
<g id="Sink_2">
</g>
<g id="Toilette">
</g>
<g id="Stove">
</g>
<g id="Kitchen_Sink">
</g>
<g id="Island">
</g>
<g id="Eat-in_Kitchen">
</g>
<g id="Tv_Stand">
</g>
</svg>
