<?xml version="1.0" encoding="iso-8859-1"?>
<!-- Generator: Adobe Illustrator 19.2.1, SVG Export Plug-In . SVG Version: 6.00 Build 0)  -->
<svg version="1.1" xmlns="http://www.w3.org/2000/svg" xmlns:xlink="http://www.w3.org/1999/xlink" x="0px" y="0px"
	 viewBox="0 0 24 24" style="enable-background:new 0 0 24 24;" xml:space="preserve">
<g id="Credit_Card">
</g>
<g id="Banknote">
</g>
<g id="Wallet">
</g>
<g id="Compass">
</g>
<g id="Camera_1">
</g>
<g id="Photo">
</g>
<g id="Picture">
</g>
<g id="Camera_2">
</g>
<g id="No_Camera">
</g>
<g id="Video">
</g>
<g id="Audio">
</g>
<g id="Microphone_1">
</g>
<g id="Microphone_2">
</g>
<g id="No_Microphone">
</g>
<g id="Shopping_Cart">
</g>
<g id="Add_Shopping_Cart">
</g>
<g id="Remove_Shopping_Cart">
</g>
<g id="Shopping_Basket">
</g>
<g id="Jing-Jang">
</g>
<g id="Leaf">
</g>
<g id="Glass">
</g>
<g id="Cup">
</g>
<g id="Mug">
</g>
<g id="Refresh">
</g>
<g id="Login">
</g>
<g id="Logout">
</g>
<g id="Flowchart">
</g>
<g id="Pin_1">
</g>
<g id="Pin_2">
</g>
<g id="User_1">
</g>
<g id="User_2">
</g>
<g id="Users">
</g>
<g id="Adjustments">
</g>
<g id="Type">
</g>
<g id="Format_Size">
</g>
<g id="Menu_1">
</g>
<g id="Other">
</g>
<g id="Flash">
</g>
<g id="No_Flash">
</g>
<g id="Switch_Button_1">
</g>
<g id="Switch_Button_2">
</g>
<g id="Cut">
</g>
<g id="Crop">
</g>
<g id="Sun">
</g>
<g id="USB">
</g>
<g id="Pie_Chart_1">
</g>
<g id="Pie_Chart_2">
</g>
<g id="Line_Chart">
</g>
<g id="Bar_Chart">
</g>
<g id="Target">
</g>
<g id="Flashlight">
</g>
<g id="USB_Device">
</g>
<g id="Eject">
</g>
<g id="Lightbulb">
</g>
<g id="Information">
</g>
<g id="Deactivate_Protection">
</g>
<g id="Active_Protection">
</g>
<g id="Bug">
</g>
<g id="Protection">
</g>
<g id="Phone">
</g>
<g id="List">
</g>
<g id="Plugin_1">
</g>
<g id="Bookmarrk">
</g>
<g id="Handshake">
</g>
<g id="Minimize">
</g>
<g id="Maximize">
</g>
<g id="Diamond">
</g>
<g id="Stop">
</g>
<g id="Shuffle">
</g>
<g id="Undo">
</g>
<g id="Upgrade">
</g>
<g id="Coding">
</g>
<g id="Syncronizaion">
</g>
<g id="Radio">
</g>
<g id="Presentation">
</g>
<g id="Door">
</g>
<g id="Thumbs_Up">
</g>
<g id="Thumbs_Down">
</g>
<g id="Keyboard">
</g>
<g id="_x33_D_Cube">
</g>
<g id="Signal">
</g>
<g id="Dice">
</g>
<g id="Upload">
</g>
<g id="Download">
</g>
<g id="Plugin_2">
</g>
<g id="Shopping_Bag">
</g>
<g id="Lifebelt">
	<path d="M22.176,18.329C23.325,16.489,24,14.325,24,12c0-2.324-0.675-4.489-1.824-6.329c-0.024-0.071-0.059-0.139-0.116-0.196
		c-0.002-0.002-0.004-0.002-0.006-0.004c-0.917-1.408-2.12-2.61-3.528-3.527c-0.001-0.001-0.002-0.003-0.003-0.004
		c-0.056-0.056-0.123-0.092-0.194-0.115C16.49,0.675,14.325,0,12,0C9.676,0,7.511,0.675,5.671,1.824
		C5.6,1.847,5.532,1.883,5.475,1.939C5.473,1.941,5.473,1.944,5.471,1.945C4.064,2.862,2.862,4.064,1.945,5.472
		C1.943,5.473,1.941,5.474,1.94,5.475C1.883,5.532,1.848,5.599,1.824,5.67C0.675,7.51,0,9.675,0,12c0,2.325,0.675,4.49,1.825,6.33
		c0.024,0.071,0.059,0.138,0.115,0.194c0.001,0.001,0.003,0.002,0.004,0.003c0.917,1.408,2.119,2.61,3.527,3.528
		c0.002,0.002,0.002,0.004,0.004,0.006c0.057,0.057,0.125,0.092,0.196,0.116C7.511,23.325,9.676,24,12,24
		c2.325,0,4.489-0.675,6.329-1.824c0.071-0.024,0.138-0.059,0.195-0.116c0.001-0.001,0.002-0.003,0.003-0.005
		c1.408-0.917,2.611-2.12,3.528-3.528c0.001-0.001,0.003-0.002,0.005-0.003C22.117,18.468,22.152,18.4,22.176,18.329z M12,17
		c-2.757,0-5-2.243-5-5s2.243-5,5-5s5,2.243,5,5S14.757,17,12,17z M21.057,5.772L17.409,9.42c-0.592-1.236-1.593-2.236-2.828-2.828
		l3.648-3.648C19.335,3.706,20.294,4.665,21.057,5.772z M5.772,2.943L9.42,6.591C8.184,7.183,7.183,8.184,6.591,9.42L2.943,5.771
		C3.706,4.665,4.666,3.706,5.772,2.943z M2.943,18.228l3.648-3.648c0.592,1.236,1.592,2.236,2.828,2.828l-3.648,3.648
		C4.665,20.294,3.706,19.335,2.943,18.228z M18.228,21.057l-3.648-3.648c1.236-0.592,2.237-1.592,2.829-2.829l3.649,3.648
		C20.294,19.335,19.335,20.294,18.228,21.057z"/>
</g>
<g id="Glasses">
</g>
<g id="Parabolic_Antenna">
</g>
<g id="Loudspeaker">
</g>
<g id="Play">
</g>
<g id="Pause">
</g>
<g id="Signpost">
</g>
<g id="Bluetooth">
</g>
<g id="Present">
</g>
<g id="Ruler">
</g>
<g id="Connection">
</g>
<g id="Money">
</g>
<g id="Paper_Plane">
</g>
<g id="Wallet_2">
</g>
</svg>
