<?xml version="1.0" encoding="iso-8859-1"?>
<!-- Generator: Adobe Illustrator 19.2.1, SVG Export Plug-In . SVG Version: 6.00 Build 0)  -->
<svg version="1.1" xmlns="http://www.w3.org/2000/svg" xmlns:xlink="http://www.w3.org/1999/xlink" x="0px" y="0px"
	 viewBox="0 0 30 30" style="enable-background:new 0 0 30 30;" xml:space="preserve">
<g id="Credit_Card">
</g>
<g id="Banknote">
</g>
<g id="Wallet">
</g>
<g id="Compass">
</g>
<g id="Camera_1">
</g>
<g id="Photo">
</g>
<g id="Picture">
</g>
<g id="Camera_2">
</g>
<g id="No_Camera">
</g>
<g id="Video">
</g>
<g id="Audio">
</g>
<g id="Microphone_1">
</g>
<g id="Microphone_2">
</g>
<g id="No_Microphone">
</g>
<g id="Shopping_Cart">
</g>
<g id="Add_Shopping_Cart">
</g>
<g id="Remove_Shopping_Cart">
</g>
<g id="Shopping_Basket">
</g>
<g id="Jing-Jang">
</g>
<g id="Leaf">
</g>
<g id="Glass">
</g>
<g id="Cup">
</g>
<g id="Mug">
</g>
<g id="Refresh">
</g>
<g id="Login">
</g>
<g id="Logout">
</g>
<g id="Flowchart">
</g>
<g id="Pin_1">
</g>
<g id="Pin_2">
</g>
<g id="User_1">
</g>
<g id="User_2">
</g>
<g id="Users">
</g>
<g id="Adjustments">
</g>
<g id="Type">
</g>
<g id="Format_Size">
</g>
<g id="Menu_1">
</g>
<g id="Other">
</g>
<g id="Flash">
</g>
<g id="No_Flash">
</g>
<g id="Switch_Button_1">
</g>
<g id="Switch_Button_2">
</g>
<g id="Cut">
</g>
<g id="Crop">
</g>
<g id="Sun">
</g>
<g id="USB">
</g>
<g id="Pie_Chart_1">
</g>
<g id="Pie_Chart_2">
</g>
<g id="Line_Chart">
</g>
<g id="Bar_Chart">
</g>
<g id="Target">
</g>
<g id="Flashlight">
</g>
<g id="USB_Device">
</g>
<g id="Eject">
</g>
<g id="Lightbulb">
</g>
<g id="Information">
</g>
<g id="Deactivate_Protection">
</g>
<g id="Active_Protection">
</g>
<g id="Bug">
</g>
<g id="Protection">
</g>
<g id="Phone">
</g>
<g id="List">
</g>
<g id="Plugin_1">
</g>
<g id="Bookmarrk">
</g>
<g id="Handshake">
</g>
<g id="Minimize">
</g>
<g id="Maximize">
</g>
<g id="Diamond">
</g>
<g id="Stop">
</g>
<g id="Shuffle">
</g>
<g id="Undo">
</g>
<g id="Upgrade">
</g>
<g id="Coding">
</g>
<g id="Syncronizaion">
</g>
<g id="Radio">
</g>
<g id="Presentation">
</g>
<g id="Door">
</g>
<g id="Thumbs_Up">
</g>
<g id="Thumbs_Down">
</g>
<g id="Keyboard">
</g>
<g id="_x33_D_Cube">
</g>
<g id="Signal">
</g>
<g id="Dice">
</g>
<g id="Upload">
</g>
<g id="Download">
</g>
<g id="Plugin_2">
</g>
<g id="Shopping_Bag">
</g>
<g id="Lifebelt">
	<g>
		<g>
			<path d="M15,30C6.729,30,0,23.271,0,15S6.729,0,15,0s15,6.729,15,15S23.271,30,15,30z M15,1C7.28,1,1,7.28,1,15s6.28,14,14,14
				s14-6.28,14-14S22.72,1,15,1z"/>
		</g>
		<g>
			<path d="M15,22.435c-4.1,0-7.435-3.335-7.435-7.435S10.9,7.565,15,7.565S22.435,10.9,22.435,15S19.1,22.435,15,22.435z M15,8.565
				c-3.548,0-6.435,2.887-6.435,6.435s2.887,6.435,6.435,6.435s6.435-2.887,6.435-6.435S18.548,8.565,15,8.565z"/>
		</g>
		<g>
			<path d="M8.402,13.36c-0.128,0-0.256-0.049-0.354-0.146L2.407,7.572c-0.195-0.195-0.195-0.512,0-0.707s0.512-0.195,0.707,0
				l5.642,5.642c0.195,0.195,0.195,0.512,0,0.707C8.658,13.312,8.53,13.36,8.402,13.36z"/>
		</g>
		<g>
			<path d="M12.86,8.902c-0.128,0-0.256-0.049-0.354-0.146L6.865,3.114c-0.195-0.195-0.195-0.512,0-0.707s0.512-0.195,0.707,0
				l5.642,5.642c0.195,0.195,0.195,0.512,0,0.707C13.116,8.854,12.988,8.902,12.86,8.902z"/>
		</g>
		<g>
			<path d="M22.781,27.739c-0.128,0-0.256-0.049-0.354-0.146l-5.643-5.642c-0.195-0.195-0.195-0.512,0-0.707s0.512-0.195,0.707,0
				l5.643,5.642c0.195,0.195,0.195,0.512,0,0.707C23.037,27.69,22.909,27.739,22.781,27.739z"/>
		</g>
		<g>
			<path d="M27.239,23.28c-0.128,0-0.256-0.049-0.354-0.146l-5.642-5.641c-0.195-0.195-0.195-0.512,0-0.707s0.512-0.195,0.707,0
				l5.642,5.641c0.195,0.195,0.195,0.512,0,0.707C27.495,23.231,27.367,23.28,27.239,23.28z"/>
		</g>
		<g>
			<path d="M2.761,23.281c-0.128,0-0.256-0.049-0.354-0.146c-0.195-0.195-0.195-0.512,0-0.707l5.642-5.642
				c0.195-0.195,0.512-0.195,0.707,0s0.195,0.512,0,0.707l-5.642,5.642C3.017,23.232,2.889,23.281,2.761,23.281z"/>
		</g>
		<g>
			<path d="M7.219,27.739c-0.128,0-0.256-0.049-0.354-0.146c-0.195-0.195-0.195-0.512,0-0.707l5.642-5.642
				c0.195-0.195,0.512-0.195,0.707,0s0.195,0.512,0,0.707l-5.642,5.642C7.475,27.69,7.347,27.739,7.219,27.739z"/>
		</g>
		<g>
			<path d="M17.14,8.902c-0.128,0-0.256-0.049-0.354-0.146c-0.195-0.195-0.195-0.512,0-0.707l5.642-5.642
				c0.195-0.195,0.512-0.195,0.707,0s0.195,0.512,0,0.707l-5.642,5.642C17.396,8.854,17.268,8.902,17.14,8.902z"/>
		</g>
		<g>
			<path d="M21.598,13.36c-0.128,0-0.256-0.049-0.354-0.146c-0.195-0.195-0.195-0.512,0-0.707l5.642-5.642
				c0.195-0.195,0.512-0.195,0.707,0s0.195,0.512,0,0.707l-5.642,5.642C21.854,13.312,21.726,13.36,21.598,13.36z"/>
		</g>
	</g>
</g>
<g id="Glasses">
</g>
<g id="Parabolic_Antenna">
</g>
<g id="Loudspeaker">
</g>
<g id="Play">
</g>
<g id="Pause">
</g>
<g id="Signpost">
</g>
<g id="Bluetooth">
</g>
<g id="Present">
</g>
<g id="Ruler">
</g>
<g id="Connection">
</g>
<g id="Money">
</g>
<g id="Paper_Plane">
</g>
<g id="Wallet_2">
</g>
</svg>
