<?xml version="1.0" encoding="iso-8859-1"?>
<!-- Generator: Adobe Illustrator 19.2.1, SVG Export Plug-In . SVG Version: 6.00 Build 0)  -->
<svg version="1.1" xmlns="http://www.w3.org/2000/svg" xmlns:xlink="http://www.w3.org/1999/xlink" x="0px" y="0px"
	 viewBox="0 0 30 30" style="enable-background:new 0 0 30 30;" xml:space="preserve">
<g id="Sun_Light">
</g>
<g id="Sunglasses">
</g>
<g id="T-Shirt_1">
</g>
<g id="T-Shirt_2">
</g>
<g id="Mini_Dress">
</g>
<g id="Flip-Flops">
</g>
<g id="Temperature">
</g>
<g id="Hot_Temperature">
</g>
<g id="Ice_Lolly">
</g>
<g id="Icecream">
</g>
<g id="Limonade_1">
</g>
<g id="Limonade_2">
	<g>
		<path d="M29.874,13.168C29.779,13.062,29.644,13,29.5,13h-8c-0.144,0-0.279,0.062-0.374,0.168s-0.14,0.25-0.122,0.392l1.333,11
			C22.367,24.812,22.58,25,22.833,25h5.334c0.253,0,0.466-0.188,0.496-0.439l1.333-11C30.014,13.418,29.969,13.275,29.874,13.168z
			 M24.456,20.086c-0.348,0-0.63-0.282-0.63-0.63s0.282-0.63,0.63-0.63s0.631,0.282,0.631,0.63S24.804,20.086,24.456,20.086z
			 M26.978,21.347c-0.348,0-0.631-0.282-0.631-0.63c0-0.348,0.282-0.631,0.631-0.631c0.348,0,0.63,0.282,0.63,0.631
			C27.608,21.065,27.326,21.347,26.978,21.347z M26.978,18.825c-0.348,0-0.631-0.282-0.631-0.631s0.282-0.63,0.631-0.63
			c0.348,0,0.63,0.282,0.63,0.63S27.326,18.825,26.978,18.825z M28.693,16h-6.386l-0.242-2h6.871L28.693,16z"/>
		<path d="M8.563,20.086c0,0.768,0.625,1.392,1.392,1.392c0.198,0,0.39-0.041,0.565-0.119l-1.837-1.838
			C8.604,19.696,8.563,19.888,8.563,20.086z"/>
		<path d="M17.955,15.252c-0.15-0.351-0.311-0.683-0.471-1.011c-0.658-1.346-1.338-2.737-1.338-5.567
			c0-0.674,1.366-2.024,2.336-2.768c0.194-0.149,0.253-0.416,0.138-0.632c-0.114-0.215-0.368-0.316-0.601-0.239
			c-2.574,0.865-4.004,0.606-5.66,0.308C10.565,5.018,8.528,4.65,4.755,5.658C4.59,5.702,4.459,5.827,4.408,5.99
			C4.356,6.153,4.391,6.331,4.501,6.462c0.496,0.593,1.783,2.374,1.783,3.478c0,0.557-0.164,1.213-0.402,1.922
			c-1.02-0.376-3.365-0.995-5.078,0.456c-0.493,0.417-0.77,1.092-0.801,1.951c-0.06,1.661,0.776,3.681,2.035,4.915
			c0.587,0.576,1.358,0.728,1.837,0.765c0.585,2.818,3.111,4.849,3.231,4.945C7.195,24.962,7.304,25,7.417,25h7.597
			c0.104,0,0.207-0.033,0.292-0.094c0.138-0.099,3.374-2.461,3.374-6.104c0-1.474-0.297-2.522-0.674-3.43
			C17.993,15.329,17.977,15.29,17.955,15.252z M5.134,13.823c-0.198,0.489-0.396,0.983-0.581,1.476
			c-0.003,0.006-0.004,0.012-0.006,0.018c-0.444,1.192-0.795,2.38-0.795,3.486c0,0.043,0.006,0.083,0.007,0.126
			c-0.314-0.047-0.718-0.164-1.021-0.461c-1.056-1.034-1.786-2.785-1.735-4.164c0.014-0.397,0.104-0.933,0.448-1.225
			c1.309-1.11,3.253-0.583,4.091-0.277C5.411,13.136,5.274,13.477,5.134,13.823z M11.646,21.777c-0.451,0.451-1.052,0.7-1.691,0.7
			c-1.319,0-2.392-1.073-2.392-2.392c0-0.64,0.249-1.24,0.701-1.691c0.195-0.193,0.511-0.194,0.707,0.001l2.675,2.675
			C11.84,21.266,11.84,21.582,11.646,21.777z M11.846,18.825c-0.348,0-0.63-0.282-0.63-0.631s0.282-0.63,0.63-0.63
			s0.63,0.282,0.63,0.63S12.194,18.825,11.846,18.825z M14.368,20.086c-0.348,0-0.63-0.282-0.63-0.63s0.282-0.63,0.63-0.63
			c0.348,0,0.631,0.282,0.631,0.63S14.716,20.086,14.368,20.086z M5.739,15c0.106-0.268,0.213-0.536,0.321-0.802
			c0.629-1.552,1.223-3.018,1.223-4.259c0-1.193-0.934-2.67-1.536-3.499c3.084-0.72,4.785-0.412,6.434-0.114
			c1.267,0.229,2.481,0.448,4.161,0.167c-0.626,0.672-1.196,1.478-1.196,2.18c0,3.062,0.765,4.626,1.438,6.006
			c0.053,0.108,0.104,0.214,0.155,0.32H5.739z"/>
	</g>
</g>
<g id="Hat">
</g>
<g id="Straw_Hat">
</g>
<g id="Deckchair">
</g>
<g id="Sunshade">
</g>
<g id="Suncream">
</g>
<g id="Suntan_Oil">
</g>
<g id="Swimming_Trunks">
</g>
<g id="Bikini">
</g>
<g id="Pool">
</g>
<g id="Pool_Ladder">
</g>
<g id="Grill">
</g>
<g id="Kite_1">
</g>
<g id="Kite_2">
</g>
<g id="Badminton">
</g>
<g id="Cooler">
</g>
<g id="Strand_Bag">
</g>
<g id="Towel">
</g>
<g id="Strand_Ball">
</g>
<g id="Beach_Sign">
</g>
<g id="Toos">
</g>
<g id="Bucket">
</g>
<g id="Sand_Castle">
</g>
<g id="Shell_1">
</g>
<g id="Shell_2">
</g>
<g id="Surf_Board">
</g>
<g id="Float">
</g>
<g id="Vacation_Photo">
</g>
<g id="Summer_Time">
</g>
<g id="Boat">
</g>
<g id="Lifebuoy">
</g>
<g id="Lighthouse">
</g>
<g id="Sunset">
</g>
<g id="Dolphin">
</g>
<g id="Starfish">
</g>
<g id="Diving_Mask">
</g>
<g id="Sailboat">
</g>
<g id="Captin_Hat">
</g>
<g id="Eudder">
</g>
</svg>
