<?xml version="1.0" encoding="iso-8859-1"?>
<!-- Generator: Adobe Illustrator 19.2.1, SVG Export Plug-In . SVG Version: 6.00 Build 0)  -->
<svg version="1.1" xmlns="http://www.w3.org/2000/svg" xmlns:xlink="http://www.w3.org/1999/xlink" x="0px" y="0px"
	 viewBox="0 0 30 30" style="enable-background:new 0 0 30 30;" xml:space="preserve">
<g id="Sun_Light">
</g>
<g id="Sunglasses">
</g>
<g id="T-Shirt_1">
</g>
<g id="T-Shirt_2">
</g>
<g id="Mini_Dress">
</g>
<g id="Flip-Flops">
</g>
<g id="Temperature">
</g>
<g id="Hot_Temperature">
</g>
<g id="Ice_Lolly">
</g>
<g id="Icecream">
</g>
<g id="Limonade_1">
</g>
<g id="Limonade_2">
	<g>
		<g>
			<path d="M15.013,25H7.417c-0.112,0-0.222-0.038-0.31-0.107c-0.137-0.108-3.355-2.69-3.355-6.09c0-1.568,0.703-3.303,1.382-4.979
				c0.591-1.459,1.15-2.837,1.15-3.883c0-1.104-1.287-2.885-1.783-3.478C4.391,6.331,4.356,6.153,4.408,5.99
				C4.459,5.827,4.59,5.702,4.755,5.658c3.772-1.008,5.809-0.641,7.604-0.316c1.656,0.298,3.085,0.557,5.66-0.308
				c0.229-0.078,0.486,0.023,0.601,0.239c0.115,0.216,0.057,0.483-0.137,0.632c-0.97,0.744-2.336,2.094-2.336,2.768
				c0,2.83,0.68,4.222,1.337,5.567c0.587,1.202,1.195,2.445,1.195,4.562c0,3.643-3.236,6.005-3.374,6.104
				C15.22,24.967,15.118,25,15.013,25z M7.599,24h7.244c0.557-0.446,2.836-2.443,2.836-5.198c0-1.885-0.507-2.922-1.093-4.123
				c-0.674-1.38-1.439-2.945-1.439-6.006c0-0.702,0.57-1.507,1.196-2.18c-1.68,0.281-2.895,0.062-4.161-0.167
				c-1.649-0.298-3.35-0.605-6.434,0.114C6.35,7.269,7.284,8.747,7.284,9.939c0,1.241-0.594,2.707-1.223,4.259
				c-0.644,1.588-1.309,3.23-1.309,4.604C4.751,21.371,7.028,23.506,7.599,24z"/>
		</g>
		<g id="XMLID_120_">
			<path d="M4.147,19.96c-0.399,0-1.394-0.076-2.11-0.777c-1.258-1.233-2.095-3.254-2.035-4.915
				c0.031-0.859,0.308-1.534,0.801-1.951c2.199-1.863,5.449-0.313,5.586-0.247c0.248,0.121,0.351,0.42,0.23,0.668
				c-0.12,0.248-0.418,0.354-0.668,0.231c-0.028-0.013-2.804-1.329-4.502,0.11c-0.344,0.292-0.434,0.827-0.448,1.225
				c-0.05,1.378,0.68,3.13,1.735,4.164c0.563,0.551,1.488,0.489,1.5,0.49c0.28-0.033,0.517,0.181,0.54,0.457
				c0.023,0.275-0.181,0.517-0.457,0.54C4.31,19.955,4.247,19.96,4.147,19.96z"/>
		</g>
		<g>
			<path d="M17.53,16H5.01c-0.276,0-0.5-0.224-0.5-0.5S4.733,15,5.01,15h12.52c0.276,0,0.5,0.224,0.5,0.5S17.806,16,17.53,16z"/>
		</g>
		<g id="XMLID_122_">
			<circle cx="11.846" cy="18.195" r="0.631"/>
		</g>
		<g id="XMLID_123_">
			<circle cx="14.368" cy="19.456" r="0.631"/>
		</g>
		<g id="XMLID_124_">
			<circle cx="26.978" cy="18.195" r="0.631"/>
		</g>
		<g id="XMLID_125_">
			<circle cx="24.456" cy="19.456" r="0.631"/>
		</g>
		<g id="XMLID_126_">
			<circle cx="26.978" cy="20.717" r="0.631"/>
		</g>
		<g id="XMLID_127_">
			<path d="M28.167,25h-5.333c-0.253,0-0.466-0.189-0.497-0.44l-1.333-11c-0.017-0.142,0.027-0.285,0.123-0.392
				C21.221,13.062,21.357,13,21.5,13h8c0.143,0,0.279,0.062,0.374,0.168c0.095,0.107,0.14,0.25,0.123,0.392l-1.333,11
				C28.632,24.811,28.419,25,28.167,25z M23.276,24h4.447l1.212-10h-6.871L23.276,24z"/>
		</g>
		<g id="XMLID_128_">
			<path d="M9.954,22.478c-1.319,0-2.392-1.073-2.392-2.392c0-0.639,0.249-1.24,0.701-1.691c0.195-0.194,0.512-0.195,0.707,0
				l2.675,2.675c0.195,0.195,0.195,0.512,0,0.707C11.193,22.229,10.593,22.478,9.954,22.478z M8.682,19.521
				c-0.078,0.176-0.119,0.367-0.119,0.565c0,0.768,0.625,1.392,1.392,1.392c0.198,0,0.39-0.041,0.565-0.119L8.682,19.521z"/>
		</g>
		<g>
			<path d="M29.14,17h-7.28c-0.276,0-0.5-0.224-0.5-0.5s0.224-0.5,0.5-0.5h7.28c0.276,0,0.5,0.224,0.5,0.5S29.417,17,29.14,17z"/>
		</g>
	</g>
</g>
<g id="Hat">
</g>
<g id="Straw_Hat">
</g>
<g id="Deckchair">
</g>
<g id="Sunshade">
</g>
<g id="Suncream">
</g>
<g id="Suntan_Oil">
</g>
<g id="Swimming_Trunks">
</g>
<g id="Bikini">
</g>
<g id="Pool">
</g>
<g id="Pool_Ladder">
</g>
<g id="Grill">
</g>
<g id="Kite_1">
</g>
<g id="Kite_2">
</g>
<g id="Badminton">
</g>
<g id="Cooler">
</g>
<g id="Strand_Bag">
</g>
<g id="Towel">
</g>
<g id="Strand_Ball">
</g>
<g id="Beach_Sign">
</g>
<g id="Toos">
</g>
<g id="Bucket">
</g>
<g id="Sand_Castle">
</g>
<g id="Shell_1">
</g>
<g id="Shell_2">
</g>
<g id="Surf_Board">
</g>
<g id="Float">
</g>
<g id="Vacation_Photo">
</g>
<g id="Summer_Time">
</g>
<g id="Boat">
</g>
<g id="Lifebuoy">
</g>
<g id="Lighthouse">
</g>
<g id="Sunset">
</g>
<g id="Dolphin">
</g>
<g id="Starfish">
</g>
<g id="Diving_Mask">
</g>
<g id="Sailboat">
</g>
<g id="Captin_Hat">
</g>
<g id="Eudder">
</g>
</svg>
