<?xml version="1.0" encoding="iso-8859-1"?>
<!-- Generator: Adobe Illustrator 19.2.1, SVG Export Plug-In . SVG Version: 6.00 Build 0)  -->
<svg version="1.1" xmlns="http://www.w3.org/2000/svg" xmlns:xlink="http://www.w3.org/1999/xlink" x="0px" y="0px"
	 viewBox="0 0 24 24" style="enable-background:new 0 0 24 24;" xml:space="preserve">
<g id="Sun_Light">
</g>
<g id="Sunglasses">
</g>
<g id="T-Shirt_1">
</g>
<g id="T-Shirt_2">
</g>
<g id="Mini_Dress">
</g>
<g id="Flip-Flops">
</g>
<g id="Temperature">
</g>
<g id="Hot_Temperature">
</g>
<g id="Ice_Lolly">
</g>
<g id="Icecream">
</g>
<g id="Limonade_1">
</g>
<g id="Limonade_2">
	<g>
		<path d="M12.999,7.003c0-0.43,0.933-1.435,1.804-2.103c0.194-0.149,0.252-0.416,0.138-0.632c-0.115-0.216-0.367-0.317-0.601-0.239
			c-2.009,0.675-3.126,0.473-4.418,0.24C8.493,4.011,6.872,3.718,3.87,4.521C3.705,4.564,3.573,4.69,3.522,4.853
			C3.47,5.015,3.505,5.193,3.615,5.324c0.359,0.429,1.383,1.842,1.383,2.679c0,0.393-0.107,0.854-0.267,1.353
			c-0.865-0.306-2.7-0.743-4.056,0.407c-0.414,0.35-0.646,0.911-0.671,1.623c-0.049,1.343,0.627,2.978,1.645,3.975
			c0.464,0.455,1.061,0.59,1.46,0.629c0.493,2.233,2.484,3.83,2.58,3.906c0.088,0.069,0.198,0.107,0.31,0.107h6
			c0.104,0,0.207-0.033,0.291-0.094c0.111-0.079,2.709-1.976,2.709-4.906c0-1.696-0.485-2.688-0.954-3.649
			C13.53,10.302,12.999,9.214,12.999,7.003z M4.098,11.031c-0.535,1.321-1.085,2.685-1.096,3.934
			c-0.215-0.044-0.463-0.132-0.654-0.319c-0.818-0.802-1.384-2.157-1.346-3.224c0.015-0.417,0.128-0.734,0.319-0.896
			C2.284,9.71,3.71,10.061,4.39,10.299C4.296,10.539,4.199,10.782,4.098,11.031z M9.413,17.417c-0.378,0.378-0.88,0.586-1.414,0.586
			c-1.103,0-2-0.897-2-2c0-0.534,0.208-1.036,0.586-1.414c0.195-0.195,0.512-0.195,0.707,0l2.121,2.121
			C9.608,16.905,9.608,17.222,9.413,17.417z M9.499,15.003c-0.276,0-0.5-0.224-0.5-0.5s0.224-0.5,0.5-0.5s0.5,0.224,0.5,0.5
			S9.775,15.003,9.499,15.003z M11.499,16.003c-0.276,0-0.5-0.224-0.5-0.5s0.224-0.5,0.5-0.5s0.5,0.224,0.5,0.5
			S11.775,16.003,11.499,16.003z M4.787,12.003c0.079-0.199,0.157-0.399,0.238-0.597c0.5-1.235,0.974-2.402,0.974-3.403
			c0-0.91-0.661-2.014-1.141-2.696c2.318-0.518,3.622-0.283,4.886-0.054c0.938,0.169,1.836,0.331,3.036,0.176
			c-0.427,0.5-0.781,1.066-0.781,1.575c0,2.442,0.61,3.689,1.148,4.79c0.035,0.071,0.068,0.141,0.102,0.21H4.787z"/>
		<path d="M6.999,16.003c0,0.641,0.658,1.125,1.259,0.966l-1.226-1.225C7.01,15.827,6.999,15.914,6.999,16.003z"/>
		<path d="M23.872,10.17c-0.096-0.106-0.23-0.167-0.373-0.167h-6c-0.143,0-0.277,0.061-0.373,0.167
			c-0.095,0.106-0.14,0.248-0.124,0.389l1,9c0.028,0.253,0.242,0.444,0.497,0.444h4c0.255,0,0.469-0.191,0.497-0.444l1-9
			C24.012,10.417,23.967,10.276,23.872,10.17z M19.499,16.003c-0.276,0-0.5-0.224-0.5-0.5s0.224-0.5,0.5-0.5s0.5,0.224,0.5,0.5
			S19.775,16.003,19.499,16.003z M21.499,17.003c-0.276,0-0.5-0.224-0.5-0.5s0.224-0.5,0.5-0.5s0.5,0.224,0.5,0.5
			S21.775,17.003,21.499,17.003z M21.499,15.003c-0.276,0-0.5-0.224-0.5-0.5s0.224-0.5,0.5-0.5s0.5,0.224,0.5,0.5
			S21.775,15.003,21.499,15.003z M22.718,13.003H18.28l-0.222-2h4.883L22.718,13.003z"/>
	</g>
</g>
<g id="Hat">
</g>
<g id="Straw_Hat">
</g>
<g id="Deckchair">
</g>
<g id="Sunshade">
</g>
<g id="Suncream">
</g>
<g id="Suntan_Oil">
</g>
<g id="Swimming_Trunks">
</g>
<g id="Bikini">
</g>
<g id="Pool">
</g>
<g id="Pool_Ladder">
</g>
<g id="Grill">
</g>
<g id="Kite_1">
</g>
<g id="Kite_2">
</g>
<g id="Badminton">
</g>
<g id="Cooler">
</g>
<g id="Strand_Bag">
</g>
<g id="Towel">
</g>
<g id="Strand_Ball">
</g>
<g id="Beach_Sign">
</g>
<g id="Toos">
</g>
<g id="Bucket">
</g>
<g id="Sand_Castle">
</g>
<g id="Shell_1">
</g>
<g id="Shell_2">
</g>
<g id="Surf_Board">
</g>
<g id="Float">
</g>
<g id="Vacation_Photo">
</g>
<g id="Summer_Time">
</g>
<g id="Boat">
</g>
<g id="Lifebuoy">
</g>
<g id="Lighthouse">
</g>
<g id="Sunset">
</g>
<g id="Dolphin">
</g>
<g id="Starfish">
</g>
<g id="Diving_Mask">
</g>
<g id="Sailboat">
</g>
<g id="Captin_Hat">
</g>
<g id="Eudder">
</g>
</svg>
