<?xml version="1.0" encoding="iso-8859-1"?>
<!-- Generator: Adobe Illustrator 19.2.1, SVG Export Plug-In . SVG Version: 6.00 Build 0)  -->
<svg version="1.1" xmlns="http://www.w3.org/2000/svg" xmlns:xlink="http://www.w3.org/1999/xlink" x="0px" y="0px"
	 viewBox="0 0 30 30" style="enable-background:new 0 0 30 30;" xml:space="preserve">
<g id="Mail">
</g>
<g id="Open_Mail">
</g>
<g id="Mail_Attachmet">
</g>
<g id="Mails">
</g>
<g id="Trash">
</g>
<g id="Trash_Full">
</g>
<g id="Preferences_1">
</g>
<g id="Preferences_2">
</g>
<g id="Mouse">
</g>
<g id="Computer">
</g>
<g id="Notebook">
</g>
<g id="Mobile_Phone">
</g>
<g id="Print">
</g>
<g id="Calculator">
</g>
<g id="Tag">
</g>
<g id="Paperclip">
</g>
<g id="Heart">
</g>
<g id="Lock">
</g>
<g id="Lock_Open">
</g>
<g id="Key_1">
</g>
<g id="Star">
</g>
<g id="Add">
</g>
<g id="Remove">
</g>
<g id="Error">
</g>
<g id="Check_1">
</g>
<g id="Time">
</g>
<g id="Question_Mark">
</g>
<g id="Error_Mark">
</g>
<g id="Sand-Glass">
</g>
<g id="Battery_Full">
</g>
<g id="Battery_Charge">
</g>
<g id="Battery_Half">
</g>
<g id="Battery_Low">
</g>
<g id="No_Battery">
</g>
<g id="Key_2">
</g>
<g id="Link">
	<path d="M28.376,2.057l-0.433-0.433C26.896,0.577,25.504,0,24.023,0s-2.873,0.577-3.921,1.624l-3.337,3.337
		c-2.103,2.103-2.143,5.478-0.155,7.65l-3.978,4.016c-1.028-0.95-2.345-1.485-3.751-1.485c-1.48,0-2.873,0.577-3.92,1.624
		l-3.337,3.337c-2.162,2.162-2.162,5.679,0,7.84l0.433,0.433C3.104,29.423,4.496,30,5.977,30s2.873-0.577,3.921-1.624l3.337-3.337
		c2.121-2.12,2.148-5.538,0.108-7.708l3.968-4.005c1.035,0.982,2.377,1.532,3.808,1.532c1.48,0,2.873-0.577,3.92-1.624l3.337-3.337
		C30.538,7.735,30.538,4.218,28.376,2.057z M13.858,21.119c0,1.213-0.473,2.354-1.331,3.213L9.19,27.669
		C8.332,28.527,7.19,29,5.977,29s-2.354-0.473-3.213-1.331l-0.433-0.433C1.473,26.378,1,25.237,1,24.023
		c0-1.213,0.473-2.354,1.331-3.213l3.337-3.337c0.858-0.858,1.999-1.331,3.213-1.331c1.141,0,2.21,0.431,3.048,1.195l-2.944,2.972
		c-0.194,0.196-0.192,0.513,0.004,0.707c0.097,0.097,0.225,0.145,0.352,0.145c0.129,0,0.258-0.049,0.355-0.148l2.944-2.971
		C13.419,18.884,13.858,19.965,13.858,21.119z M27.669,9.19l-3.337,3.337c-0.858,0.858-1.999,1.331-3.213,1.331
		c-1.166,0-2.259-0.446-3.105-1.242l2.925-2.953c0.194-0.196,0.192-0.513-0.004-0.707c-0.194-0.195-0.513-0.193-0.707,0.003
		l-2.915,2.942c-0.748-0.834-1.172-1.891-1.172-3.02c0-1.213,0.473-2.354,1.331-3.213l3.337-3.337C21.668,1.473,22.81,1,24.023,1
		s2.354,0.473,3.213,1.331l0.433,0.433C28.527,3.622,29,4.763,29,5.977C29,7.19,28.527,8.332,27.669,9.19z"/>
</g>
<g id="Brake_Link">
</g>
<g id="Pencil">
</g>
<g id="At">
</g>
<g id="Reply">
</g>
<g id="Accessible">
</g>
<g id="Up_Arrow">
</g>
<g id="Brush">
</g>
<g id="Design_Mug">
</g>
<g id="Design">
</g>
<g id="Server">
</g>
<g id="Database">
</g>
<g id="Save">
</g>
<g id="Female">
</g>
<g id="Male">
</g>
<g id="Book">
</g>
<g id="Power">
</g>
<g id="Reload">
</g>
<g id="Map">
</g>
<g id="Loction_1">
</g>
<g id="Location_2">
</g>
<g id="Globe">
</g>
<g id="Suitcase">
</g>
<g id="Callendar">
</g>
<g id="Cloud_Off">
</g>
<g id="File_1">
</g>
<g id="File_2">
</g>
<g id="Folder">
</g>
<g id="Open_Folder">
</g>
<g id="Cloud">
</g>
<g id="Upload_Cloud">
</g>
<g id="Download_Cloud">
</g>
<g id="Eye">
</g>
<g id="Invisible">
</g>
<g id="Assignment">
</g>
<g id="Note_Book">
</g>
<g id="Webpage">
</g>
<g id="Mailbox">
</g>
<g id="Drive">
</g>
<g id="Disc">
</g>
<g id="Wifi_1">
</g>
<g id="Wifi_2">
</g>
<g id="Archive">
</g>
<g id="Archive_File">
</g>
<g id="News">
</g>
<g id="Home">
</g>
<g id="Collaboration">
</g>
<g id="Announcement">
</g>
<g id="Watch">
</g>
<g id="Clock">
</g>
<g id="Volume">
</g>
<g id="Mute">
</g>
<g id="Hand">
</g>
<g id="Layers">
</g>
<g id="Bell">
</g>
<g id="Speach_Bubble">
</g>
<g id="Speach_Bubbles">
</g>
<g id="Zoom_In">
</g>
<g id="Zoom_Out">
</g>
<g id="Search">
</g>
<g id="Back_Arrow">
</g>
<g id="Close">
</g>
<g id="Check_2">
</g>
<g id="Left_Arrow_2">
</g>
<g id="Right_Arrow_2">
</g>
</svg>
