<?xml version="1.0" encoding="iso-8859-1"?>
<!-- Generator: Adobe Illustrator 19.2.1, SVG Export Plug-In . SVG Version: 6.00 Build 0)  -->
<svg version="1.1" xmlns="http://www.w3.org/2000/svg" xmlns:xlink="http://www.w3.org/1999/xlink" x="0px" y="0px"
	 viewBox="0 0 24 24" style="enable-background:new 0 0 24 24;" xml:space="preserve">
<g id="Mail">
</g>
<g id="Open_Mail">
</g>
<g id="Mail_Attachmet">
</g>
<g id="Mails">
</g>
<g id="Trash">
</g>
<g id="Trash_Full">
</g>
<g id="Preferences_1">
</g>
<g id="Preferences_2">
</g>
<g id="Mouse">
</g>
<g id="Computer">
</g>
<g id="Notebook">
</g>
<g id="Mobile_Phone">
</g>
<g id="Print">
</g>
<g id="Calculator">
</g>
<g id="Tag">
</g>
<g id="Paperclip">
</g>
<g id="Heart">
</g>
<g id="Lock">
</g>
<g id="Lock_Open">
</g>
<g id="Key_1">
</g>
<g id="Star">
</g>
<g id="Add">
</g>
<g id="Remove">
</g>
<g id="Error">
</g>
<g id="Check_1">
</g>
<g id="Time">
</g>
<g id="Question_Mark">
</g>
<g id="Error_Mark">
</g>
<g id="Sand-Glass">
</g>
<g id="Battery_Full">
</g>
<g id="Battery_Charge">
</g>
<g id="Battery_Half">
</g>
<g id="Battery_Low">
</g>
<g id="No_Battery">
</g>
<g id="Key_2">
</g>
<g id="Link">
	<path d="M22.681,1.662l-0.343-0.343c-1.755-1.754-4.609-1.754-6.364,0l-2.646,2.646c-0.85,0.85-1.318,1.979-1.318,3.182
		c0,1.101,0.409,2.132,1.129,2.952l-3.023,3.052c-1.766-1.559-4.461-1.511-6.149,0.175l-2.646,2.646
		c-0.85,0.85-1.318,1.979-1.318,3.182s0.468,2.332,1.318,3.183l0.343,0.343c0.877,0.877,2.03,1.315,3.182,1.315
		c1.152,0,2.305-0.438,3.182-1.315l2.646-2.646c0.85-0.85,1.318-1.979,1.318-3.182c0-1.121-0.421-2.17-1.166-2.998l3.015-3.044
		c0.855,0.775,1.93,1.177,3.012,1.177c1.152,0,2.305-0.438,3.182-1.315l2.646-2.646c0.85-0.85,1.318-1.979,1.318-3.182
		S23.531,2.513,22.681,1.662z M10.991,16.853c0,0.935-0.364,1.813-1.025,2.475l-2.646,2.646c-1.364,1.363-3.585,1.363-4.95,0
		l-0.343-0.343c-0.661-0.661-1.025-1.54-1.025-2.476c0-0.935,0.364-1.813,1.025-2.475l2.646-2.646
		c0.682-0.682,1.579-1.023,2.475-1.023c0.81,0,1.612,0.294,2.264,0.851l-2.255,2.276c-0.194,0.196-0.193,0.513,0.003,0.707
		c0.098,0.097,0.225,0.145,0.352,0.145c0.129,0,0.257-0.05,0.355-0.148l2.254-2.276C10.675,15.202,10.991,15.999,10.991,16.853z
		 M21.974,7.319l-2.646,2.646c-1.313,1.313-3.411,1.347-4.784,0.135l2.239-2.26c0.194-0.196,0.193-0.513-0.003-0.707
		c-0.196-0.194-0.513-0.192-0.707,0.004l-2.231,2.252c-0.53-0.63-0.833-1.409-0.833-2.242c0-0.935,0.364-1.813,1.025-2.475
		l2.646-2.646c0.682-0.682,1.579-1.023,2.475-1.023c0.896,0,1.793,0.342,2.475,1.023l0.343,0.343
		c0.661,0.661,1.025,1.54,1.025,2.476C22.999,5.779,22.635,6.658,21.974,7.319z"/>
</g>
<g id="Brake_Link">
</g>
<g id="Pencil">
</g>
<g id="At">
</g>
<g id="Reply">
</g>
<g id="Accessible">
</g>
<g id="Up_Arrow">
</g>
<g id="Brush">
</g>
<g id="Design_Mug">
</g>
<g id="Design">
</g>
<g id="Server">
</g>
<g id="Database">
</g>
<g id="Save">
</g>
<g id="Female">
</g>
<g id="Male">
</g>
<g id="Book">
</g>
<g id="Power">
</g>
<g id="Reload">
</g>
<g id="Map">
</g>
<g id="Loction_1">
</g>
<g id="Location_2">
</g>
<g id="Globe">
</g>
<g id="Suitcase">
</g>
<g id="Callendar">
</g>
<g id="Cloud_Off">
</g>
<g id="File_1">
</g>
<g id="File_2">
</g>
<g id="Folder">
</g>
<g id="Open_Folder">
</g>
<g id="Cloud">
</g>
<g id="Upload_Cloud">
</g>
<g id="Download_Cloud">
</g>
<g id="Eye">
</g>
<g id="Invisible">
</g>
<g id="Assignment">
</g>
<g id="Note_Book">
</g>
<g id="Webpage">
</g>
<g id="Mailbox">
</g>
<g id="Drive">
</g>
<g id="Disc">
</g>
<g id="Wifi_1">
</g>
<g id="Wifi_2">
</g>
<g id="Archive">
</g>
<g id="Archive_File">
</g>
<g id="News">
</g>
<g id="Home">
</g>
<g id="Collaboration">
</g>
<g id="Announcement">
</g>
<g id="Watch">
</g>
<g id="Clock">
</g>
<g id="Volume">
</g>
<g id="Mute">
</g>
<g id="Hand">
</g>
<g id="Layers">
</g>
<g id="Bell">
</g>
<g id="Speach_Bubble">
</g>
<g id="Speach_Bubbles">
</g>
<g id="Zoom_In">
</g>
<g id="Zoom_Out">
</g>
<g id="Search">
</g>
<g id="Back_Arrow">
</g>
<g id="Close">
</g>
<g id="Check_2">
</g>
<g id="Left_Arrow_2">
</g>
<g id="Right_Arrow_2">
</g>
</svg>
