<?xml version="1.0" encoding="iso-8859-1"?>
<!-- Generator: Adobe Illustrator 19.2.1, SVG Export Plug-In . SVG Version: 6.00 Build 0)  -->
<svg version="1.1" xmlns="http://www.w3.org/2000/svg" xmlns:xlink="http://www.w3.org/1999/xlink" x="0px" y="0px"
	 viewBox="0 0 30 30" style="enable-background:new 0 0 30 30;" xml:space="preserve">
<g id="Add_Users">
</g>
<g id="Remove_Users">
</g>
<g id="Delete_Users">
</g>
<g id="Done_3">
</g>
<g id="At_Symbol_3">
</g>
<g id="Question_3">
</g>
<g id="Answer_3">
</g>
<g id="Bring_Up_3">
</g>
<g id="Bring_Down_3">
</g>
<g id="Dismiss_Users">
</g>
<g id="Users_Speed_3">
</g>
<g id="Users_Settings">
</g>
<g id="Refresh_Users">
</g>
<g id="Time_3">
</g>
<g id="Dollar_3">
</g>
<g id="Euro_3">
</g>
<g id="Pound_3">
</g>
<g id="Bitcoin_3">
</g>
<g id="Global_Users">
</g>
<g id="Waiting_Users">
</g>
<g id="Writing_Users">
</g>
<g id="Search_Users">
</g>
<g id="Lock_Users">
	<g>
		<polygon points="24.89,25 25,25 24.89,25 		"/>
		<path d="M29.5,22H29v-0.5c0-2.481-2.019-4.5-4.5-4.5S20,19.019,20,21.5V22h-0.5c-0.276,0-0.5,0.224-0.5,0.5v7
			c0,0.276,0.224,0.5,0.5,0.5h10c0.276,0,0.5-0.224,0.5-0.5v-7C30,22.224,29.776,22,29.5,22z M21,21.5c0-1.93,1.57-3.5,3.5-3.5
			s3.5,1.57,3.5,3.5V22h-7V21.5z M25,25.846V26.5c0,0.276-0.224,0.5-0.5,0.5S24,26.776,24,26.5v-0.654
			c-0.293-0.174-0.5-0.481-0.5-0.846c0-0.552,0.449-1,1-1s1,0.448,1,1C25.5,25.366,25.293,25.672,25,25.846z"/>
		<path d="M17.721,6.077c0.448,0.491,0.658,1.142,0.575,1.784l-0.229,1.772c-0.079,0.614-0.424,1.181-0.946,1.553
			c-0.095,0.068-0.163,0.166-0.193,0.279c-0.217,0.816-0.599,1.617-1.104,2.316c-0.098,0.135-0.122,0.31-0.064,0.466
			s0.189,0.273,0.352,0.313l2.222,0.538c1.017,0.246,1.93,0.789,2.713,1.612c0.097,0.102,0.229,0.155,0.362,0.155
			c0.089,0,0.179-0.023,0.259-0.072c0.427-0.258,0.887-0.457,1.369-0.591c0.219-0.061,0.37-0.262,0.366-0.49
			c-0.004-0.228-0.161-0.424-0.382-0.478l-0.415-0.1l-0.279-1.084c0.922-0.896,1.555-2.116,1.752-3.372
			c0.522-0.154,0.924-0.599,0.996-1.152l0.229-1.772c0.049-0.385-0.069-0.774-0.326-1.069c-0.149-0.172-0.337-0.303-0.545-0.385
			l0.08-1.596l0.326-0.317c0.53-0.547,0.971-1.484,0.056-2.841C24.199,0.521,23.024,0,21.402,0c-0.904,0-2.091,0.087-3.258,0.765
			c-0.235,0.137-0.318,0.435-0.188,0.673c0.708,1.29,0.587,2.54-0.337,3.519c-0.082,0.087-0.13,0.2-0.136,0.319l-0.016,0.315
			c-0.007,0.143,0.048,0.282,0.15,0.382L17.721,6.077z"/>
		<path d="M20.288,17.97c0.164-0.195,0.155-0.482-0.021-0.667c-0.648-0.677-1.405-1.135-2.19-1.325l-3.472-0.841l-0.279-1.084
			c0.922-0.896,1.555-2.116,1.752-3.372c0.522-0.154,0.924-0.599,0.996-1.152l0.229-1.772c0.049-0.385-0.069-0.774-0.326-1.069
			c-0.149-0.172-0.337-0.303-0.545-0.385l0.08-1.596l0.326-0.317c0.53-0.547,0.971-1.484,0.056-2.841
			C16.199,0.521,15.024,0,13.402,0c-0.637,0-2.103,0-3.471,0.888C6.012,0.97,5.479,2.749,5.479,4.484
			c0,0.389,0.094,1.243,0.159,1.789C5.405,6.353,5.194,6.49,5.029,6.678C4.769,6.975,4.647,7.367,4.697,7.757l0.229,1.771
			c0.077,0.591,0.53,1.059,1.104,1.18c0.197,1.205,0.797,2.385,1.665,3.266l-0.3,1.163l-3.472,0.841C1.5,16.564,0,19.301,0,21.5
			C0,21.776,0.224,22,0.5,22h17.277c0.178,0,0.343-0.095,0.432-0.249c0.137-0.235,0.338-0.431,0.582-0.563
			c0.142-0.077,0.237-0.218,0.257-0.377C19.18,19.761,19.609,18.778,20.288,17.97z"/>
	</g>
</g>
<g id="Mark_Users">
</g>
<g id="Share_Users">
</g>
<g id="Shopping_3">
</g>
<g id="Download_3">
</g>
<g id="Upload_3">
</g>
<g id="Users_Statistics">
</g>
<g id="Users_Defense">
</g>
<g id="Car_3">
</g>
<g id="Home_3">
</g>
<g id="Park_3">
</g>
<g id="Recicle_Users">
</g>
<g id="Wifi_3">
</g>
<g id="Attach_3">
</g>
<g id="Disabled_Users">
</g>
<g id="Users_Card">
</g>
<g id="Gaming_3">
</g>
<g id="Cloud_3">
</g>
<g id="Database_3">
</g>
<g id="Copyright_3">
</g>
<g id="No_Copzright_3">
</g>
<g id="Creative_Commun_3">
</g>
<g id="Eco-Friendly_3">
</g>
<g id="Percentage_3">
</g>
<g id="Users_Love">
</g>
<g id="Users_Place">
</g>
<g id="Users_Key">
</g>
<g id="Sleeping_3">
</g>
</svg>
