<?xml version="1.0" encoding="iso-8859-1"?>
<!-- Generator: Adobe Illustrator 19.2.1, SVG Export Plug-In . SVG Version: 6.00 Build 0)  -->
<svg version="1.1" xmlns="http://www.w3.org/2000/svg" xmlns:xlink="http://www.w3.org/1999/xlink" x="0px" y="0px"
	 viewBox="0 0 30 30" style="enable-background:new 0 0 30 30;" xml:space="preserve">
<g id="Flag">
</g>
<g id="Umbrella">
</g>
<g id="Briefcase">
</g>
<g id="Box">
</g>
<g id="Magnet">
	<g>
		<g>
			<path d="M15,30C6.729,30,0,23.271,0,15V2c0-1.103,0.897-2,2-2h6c1.103,0,2,0.897,2,2v13c0,2.879,2.201,5.139,5.021,5.173
				C17.818,20.139,20,17.879,20,15V2c0-1.103,0.897-2,2-2h6c1.103,0,2,0.897,2,2v13C30,23.271,23.271,30,15,30z M2,1
				C1.449,1,1,1.449,1,2v13c0,7.72,6.28,14,14,14s14-6.28,14-14V2c0-0.551-0.449-1-1-1h-6c-0.551,0-1,0.449-1,1v13
				c0,3.4-2.56,6.076-5.862,6.171c-0.017,0.001-0.034,0.002-0.051,0.002h-0.13c-0.017,0-0.034-0.001-0.051-0.002
				C11.58,21.077,9,18.4,9,15V2c0-0.551-0.449-1-1-1H2z"/>
		</g>
		<g>
			<path d="M9.5,9h-9C0.224,9,0,8.776,0,8.5S0.224,8,0.5,8h9C9.776,8,10,8.224,10,8.5S9.776,9,9.5,9z"/>
		</g>
		<g>
			<path d="M29.5,9h-9C20.224,9,20,8.776,20,8.5S20.224,8,20.5,8h9C29.776,8,30,8.224,30,8.5S29.776,9,29.5,9z"/>
		</g>
	</g>
</g>
<g id="Percent">
</g>
<g id="Rocket">
</g>
<g id="Share">
</g>
<g id="Transmitter">
</g>
<g id="Record_2">
</g>
<g id="Record_1">
</g>
<g id="Anchor">
</g>
<g id="Airplane">
</g>
<g id="Car">
</g>
<g id="Newsfeed">
</g>
<g id="Wifi_Tethering">
</g>
<g id="No_Wifi_Tethering">
</g>
<g id="Bar_Chart_2">
</g>
<g id="Shop">
</g>
<g id="Alarm">
</g>
<g id="Sim_Card">
</g>
<g id="Radar">
</g>
<g id="Hand_2">
</g>
<g id="Palette">
</g>
<g id="Cake">
</g>
<g id="Blende">
</g>
<g id="Feather_Pen">
</g>
<g id="Ticket">
</g>
<g id="Medal">
</g>
<g id="Mouse_Pointer_1">
</g>
<g id="Mouse_Pointer_2">
</g>
<g id="Fingerprint">
</g>
<g id="Earth">
</g>
</svg>
