<?xml version="1.0" encoding="iso-8859-1"?>
<!-- Generator: Adobe Illustrator 19.2.1, SVG Export Plug-In . SVG Version: 6.00 Build 0)  -->
<svg version="1.1" xmlns="http://www.w3.org/2000/svg" xmlns:xlink="http://www.w3.org/1999/xlink" x="0px" y="0px"
	 viewBox="0 0 24 24" style="enable-background:new 0 0 24 24;" xml:space="preserve">
<g id="Man_1">
</g>
<g id="Woman_1">
</g>
<g id="Man_2">
</g>
<g id="Woman_2">
</g>
<g id="Bald_Man">
</g>
<g id="Man_Glasses">
</g>
<g id="Woman_Glasses">
</g>
<g id="Man_Beard">
</g>
<g id="Man_Cap">
</g>
<g id="Woman_Cap">
</g>
<g id="Man_3">
</g>
<g id="Woman_3">
</g>
<g id="Men_4">
</g>
<g id="Woman_4">
</g>
<g id="Business_Man_1">
</g>
<g id="Business_Woman_1">
</g>
<g id="Firefigyhter">
</g>
<g id="Policeman">
</g>
<g id="Criminal">
</g>
<g id="Prisoner">
</g>
<g id="Woodsman">
</g>
<g id="Dispatcher_1">
</g>
<g id="Dispatcher_2">
</g>
<g id="Soldier">
</g>
<g id="Astronaut">
</g>
<g id="Hipster_Guy">
</g>
<g id="Hipster_Girl">
</g>
<g id="Worker">
</g>
<g id="Old_Man">
</g>
<g id="Punk">
</g>
<g id="Diver">
</g>
<g id="Artist">
</g>
<g id="Dictator">
</g>
<g id="Man_Hat">
</g>
<g id="Woman_Hat">
</g>
<g id="Graduated_Man">
</g>
<g id="Graduated_Woman">
</g>
<g id="Avatar_Chef">
</g>
<g id="Waiter">
</g>
<g id="Waitress">
</g>
<g id="Bllboy">
</g>
<g id="Santa">
</g>
<g id="Doctor">
</g>
<g id="Nurse">
</g>
<g id="Captain">
</g>
<g id="Farmer">
</g>
<g id="Maid">
	<g>
		<path d="M24,12c0-6.617-5.383-12-12-12S0,5.383,0,12c0,4.701,2.723,8.767,6.669,10.735c0.083,0.043,0.161,0.088,0.248,0.13
			c0-0.004-0.001-0.008-0.002-0.011c0.346,0.163,0.701,0.309,1.064,0.438c0.001,0.006,0.002,0.016,0.003,0.021
			c0.128,0.046,0.271,0.085,0.405,0.128c0.03,0.009,0.06,0.019,0.09,0.028c0.342,0.106,0.702,0.201,1.084,0.279
			c0.011,0.002,0.023,0.005,0.034,0.008c0.364,0.074,0.742,0.134,1.143,0.175c0.015,0.002,0.03,0.005,0.045,0.006
			C11.172,23.976,11.575,24,12,24c0.425,0,0.83-0.024,1.22-0.062c0.01-0.001,0.019-0.003,0.029-0.004
			c0.854-0.085,1.618-0.256,2.307-0.472c0.007-0.002,0.013-0.004,0.02-0.006c0.148-0.047,0.303-0.089,0.443-0.14
			c0.001-0.006,0.002-0.017,0.003-0.024c0.363-0.13,0.717-0.275,1.063-0.438c0,0.003-0.001,0.006-0.001,0.009
			c0.062-0.03,0.114-0.062,0.174-0.092c1.082-0.53,2.073-1.216,2.943-2.033c0.014-0.007,0.021-0.022,0.034-0.031
			C22.546,18.519,24,15.43,24,12z M16.167,22.175c0.167-1.185,0.437-2.817,0.76-3.628c-0.026-0.02-0.056-0.036-0.082-0.057
			c-0.871,1.068-1.95,1.846-3.152,2.227c-0.071,0.025-0.181,0.06-0.29,0.09c-0.154,0.04-0.301,0.074-0.447,0.1
			C12.606,20.97,12.302,21,12,21c-0.301,0-0.608-0.03-0.966-0.095c-0.138-0.025-0.285-0.06-0.431-0.098
			c-0.111-0.029-0.22-0.063-0.327-0.101c-1.185-0.375-2.256-1.15-3.123-2.216c-0.025,0.021-0.055,0.036-0.081,0.056
			c0.322,0.811,0.593,2.444,0.76,3.628c-0.373-0.153-0.738-0.323-1.089-0.515c-0.172-1.101-0.38-2.166-0.565-2.664l-1.813,0.63
			c-0.069,0.024-0.134,0.054-0.202,0.08C2.21,17.72,1,15,1,12C1,5.935,5.935,1,12,1s11,4.935,11,11c0,3-1.21,5.72-3.164,7.707
			c-0.068-0.026-0.133-0.057-0.202-0.081l-1.814-0.63c-0.186,0.498-0.393,1.563-0.565,2.665
			C16.904,21.852,16.54,22.021,16.167,22.175z"/>
		<path d="M10.5,12h-1C9.224,12,9,12.224,9,12.5S9.224,13,9.5,13h1c0.276,0,0.5-0.224,0.5-0.5S10.776,12,10.5,12z"/>
		<path d="M13.5,13h1c0.276,0,0.5-0.224,0.5-0.5S14.776,12,14.5,12h-1c-0.276,0-0.5,0.224-0.5,0.5S13.224,13,13.5,13z"/>
		<path d="M19.911,17.784c0.079-0.114,0.106-0.255,0.077-0.391C19.979,17.349,19,12.837,19,11.5c0-0.004-0.002-0.007-0.002-0.011
			c0-0.009,0.002-0.016,0.002-0.025c0-0.88-0.16-1.739-0.439-2.553c-0.078,0.113-0.174,0.211-0.269,0.308
			c-0.065,0.068-0.136,0.13-0.209,0.19c-0.08,0.065-0.162,0.127-0.249,0.183C17.447,9.843,16.995,10,16.5,10
			c-0.145,0-0.289-0.021-0.427-0.063C14.551,9.487,12.56,9,12,9c-0.135,0-0.358,0.03-0.634,0.079
			c0.994,0.872,2.737,1.689,4.682,1.801c0.129,0.685,0.473,1.291,0.521,1.372c0.067,0.117,0.181,0.201,0.312,0.233
			c0.04,0.01,0.08,0.015,0.12,0.015c0.093,0,0.185-0.026,0.265-0.076c0.105-0.065,0.363-0.197,0.648-0.297
			C17.935,12.315,18,12.879,18,13.071c0,1.064-0.383,1.614-0.486,1.645c-0.009-0.003-0.045-0.023-0.096-0.08
			c-0.121-0.132-0.307-0.188-0.477-0.15c-0.175,0.038-0.315,0.167-0.369,0.337c-0.638,2.009-1.939,3.5-3.491,3.991
			c-0.064,0.021-0.129,0.043-0.194,0.061c-0.091,0.023-0.182,0.046-0.281,0.063C12.407,18.974,12.206,19,12,19
			s-0.407-0.026-0.611-0.064c-0.094-0.016-0.185-0.038-0.273-0.062c-0.067-0.018-0.132-0.039-0.206-0.063
			c-1.542-0.488-2.844-1.979-3.481-3.988c-0.054-0.17-0.194-0.299-0.369-0.337c-0.168-0.036-0.355,0.019-0.477,0.15
			c-0.051,0.056-0.086,0.076-0.078,0.078C6.382,14.685,6,14.135,6,13.071c0-0.193,0.066-0.758,0.088-0.945
			c0.28,0.099,0.535,0.229,0.647,0.299c0.146,0.09,0.324,0.099,0.479,0.026c0.153-0.072,0.26-0.218,0.282-0.386
			C7.597,11.299,7.869,10.463,8,10.357c0.701,0,2.198-0.256,2.986-1.203c-0.866,0.179-2.06,0.488-3.06,0.784
			C7.789,9.979,7.645,10,7.5,10c-0.495,0-0.947-0.157-1.333-0.407C6.079,9.537,5.997,9.475,5.917,9.41
			c-0.072-0.06-0.143-0.122-0.208-0.19c-0.096-0.098-0.192-0.195-0.27-0.308C5.16,9.725,5,10.584,5,11.464
			c0,0.009,0.002,0.016,0.002,0.025C5.002,11.493,5,11.496,5,11.5c0,1.337-0.979,5.849-0.988,5.894
			c-0.029,0.136-0.002,0.276,0.077,0.391c0.078,0.114,0.2,0.19,0.338,0.21c0.12,0.019,2.972,0.442,4.044,0.505
			C8.48,18.5,8.49,18.5,8.5,18.5c0.008,0,0.015-0.006,0.023-0.006c0.62,0.587,1.32,1.028,2.076,1.267
			c0.086,0.029,0.172,0.057,0.261,0.08c0.118,0.031,0.238,0.06,0.354,0.08C11.509,19.975,11.759,20,12,20s0.491-0.025,0.781-0.078
			c0.121-0.021,0.241-0.05,0.361-0.081c0.087-0.023,0.173-0.051,0.249-0.077c0.76-0.24,1.463-0.683,2.084-1.27
			c0.008,0,0.016,0.006,0.024,0.006c0.01,0,0.02,0,0.029-0.001c1.072-0.063,3.924-0.486,4.044-0.505
			C19.711,17.975,19.833,17.898,19.911,17.784z"/>
		<path d="M7.5,9c0.048,0,0.096-0.007,0.142-0.021C8.562,8.707,11.137,8,12,8s3.438,0.707,4.358,0.979C16.404,8.993,16.452,9,16.5,9
			C17.327,9,18,8.327,18,7.5S17.327,6,16.5,6c-0.113,0-0.372-0.09-0.507-0.17C15.906,4.807,15.046,4,14,4c0-1.103-0.897-2-2-2
			s-2,0.897-2,2C8.954,4,8.094,4.807,8.007,5.83C7.872,5.91,7.613,6,7.5,6C6.673,6,6,6.673,6,7.5S6.673,9,7.5,9z"/>
		<path d="M10.909,16.213c-0.152-0.217-0.448-0.277-0.674-0.137c-0.234,0.146-0.306,0.455-0.159,0.688
			C10.152,16.888,10.606,17.5,12,17.5s1.848-0.612,1.924-0.735c0.146-0.233,0.084-0.555-0.15-0.701s-0.534-0.088-0.681,0.146
			C13.091,16.213,12.844,16.5,12,16.5C11.198,16.5,10.936,16.24,10.909,16.213z"/>
	</g>
</g>
<g id="Business_Man_2">
</g>
<g id="Business_Woman_2">
</g>
<g id="Cowboy">
</g>
<g id="Anonymus">
</g>
<g id="Batman">
</g>
<g id="Superman">
</g>
<g id="Captain_America">
</g>
<g id="Darth_Vader">
</g>
<g id="Harry_Potter">
</g>
<g id="Anonymus_2">
</g>
<g id="Scream">
</g>
<g id="Jason">
</g>
<g id="Charlie_Chaplin">
</g>
</svg>
