<?xml version="1.0" encoding="iso-8859-1"?>
<!-- Generator: Adobe Illustrator 19.2.1, SVG Export Plug-In . SVG Version: 6.00 Build 0)  -->
<svg version="1.1" xmlns="http://www.w3.org/2000/svg" xmlns:xlink="http://www.w3.org/1999/xlink" x="0px" y="0px"
	 viewBox="0 0 24 24" style="enable-background:new 0 0 24 24;" xml:space="preserve">
<g id="Man_1">
</g>
<g id="Woman_1">
</g>
<g id="Man_2">
</g>
<g id="Woman_2">
</g>
<g id="Bald_Man">
</g>
<g id="Man_Glasses">
</g>
<g id="Woman_Glasses">
</g>
<g id="Man_Beard">
	<g>
		<path d="M24,12c0-6.617-5.383-12-12-12S0,5.383,0,12c0,3.369,1.401,6.414,3.644,8.596c0.037,0.042,0.072,0.084,0.121,0.11
			c1.942,1.838,4.491,3.032,7.315,3.248C11.367,23.981,11.656,24,11.95,24c0.009,0,0.018-0.001,0.027-0.001
			C11.985,23.999,11.992,24,12,24c0.073,0,0.144-0.01,0.216-0.011c0.174-0.005,0.347-0.011,0.518-0.026
			C19.009,23.58,24,18.369,24,12z M12,1c6.065,0,11,4.935,11,11c0,3.002-1.212,5.725-3.168,7.712
			c-0.072-0.028-0.141-0.06-0.214-0.085l-2.033-0.707c-0.278-0.097-0.531-0.244-0.758-0.43c-0.858,1.066-1.923,1.845-3.133,2.227
			c-0.071,0.024-0.179,0.06-0.288,0.089c-0.165,0.042-0.307,0.076-0.452,0.101C12.608,20.97,12.303,21,12,21
			s-0.611-0.03-0.968-0.096c-0.133-0.023-0.277-0.056-0.42-0.093c-0.127-0.035-0.227-0.067-0.329-0.101
			c-1.204-0.381-2.267-1.163-3.124-2.235c-0.232,0.194-0.493,0.346-0.779,0.445l-2.034,0.707c-0.064,0.022-0.124,0.05-0.187,0.075
			C2.208,17.715,1,14.997,1,12C1,5.935,5.935,1,12,1z"/>
		<path d="M5,13.071c0,1.531,0.631,2.643,1.5,2.643c0.074,0,0.142-0.031,0.215-0.045c0.79,2.07,2.182,3.553,3.885,4.091
			c0.085,0.028,0.168,0.056,0.263,0.082c0.117,0.03,0.235,0.058,0.35,0.078C11.508,19.975,11.758,20,12,20
			c0.241,0,0.491-0.025,0.781-0.079c0.12-0.021,0.237-0.049,0.363-0.081c0.087-0.023,0.172-0.051,0.247-0.077
			c1.71-0.541,3.103-2.024,3.894-4.094c0.072,0.014,0.141,0.045,0.215,0.045c0.869,0,1.5-1.112,1.5-2.643
			c0-0.218-0.061-0.758-0.09-1.015c0.035-0.116,0.072-0.298,0.082-0.507C18.994,11.538,19,11.529,19,11.518l0.018-0.5
			c0.002-0.074-0.012-0.147-0.04-0.214l-0.01-0.023C18.642,6.984,15.643,4,12,4c-3.699,0-6.729,3.078-6.976,6.957
			c-0.001,0.009-0.006,0.017-0.007,0.025l-0.015,0.43C5.002,11.43,5,11.447,5,11.464c0,0.002,0,0.003,0,0.005l0,0.013
			c0,0.007,0.003,0.013,0.003,0.02c0.005,0.231,0.048,0.429,0.087,0.554C5.06,12.313,5,12.853,5,13.071z M12.518,17h-1
			c-0.276,0-0.5-0.224-0.5-0.5s0.224-0.5,0.5-0.5h1c0.276,0,0.5,0.224,0.5,0.5S12.794,17,12.518,17z M17.5,14.714
			c-0.041,0-0.102-0.019-0.131-0.051c-0.009-0.01-0.021-0.014-0.031-0.023c-0.006-0.006-0.007-0.015-0.013-0.02
			c-0.011-0.009-0.026-0.008-0.037-0.016c-0.06-0.043-0.125-0.072-0.195-0.086c-0.017-0.003-0.03-0.01-0.047-0.011
			c-0.084-0.008-0.167,0.007-0.246,0.042c-0.007,0.003-0.016,0-0.023,0.004C15.882,15,15.478,15,14.5,15
			c-0.419,0-0.7-0.099-1.025-0.213C13.093,14.652,12.66,14.5,12,14.5s-1.093,0.152-1.475,0.287C10.2,14.901,9.919,15,9.401,15
			c-0.929-0.003-1.322,0-2.169-0.443c-0.008-0.004-0.017-0.001-0.026-0.005c-0.078-0.036-0.161-0.054-0.246-0.047
			c-0.018,0.001-0.033,0.009-0.05,0.012c-0.07,0.013-0.134,0.041-0.194,0.083c-0.012,0.008-0.027,0.007-0.038,0.016
			c-0.007,0.006-0.007,0.015-0.014,0.021c-0.01,0.009-0.024,0.014-0.033,0.024c-0.03,0.033-0.091,0.053-0.128,0.053
			C6.383,14.686,6,14.135,6,13.071c0-0.192,0.066-0.758,0.088-0.946c0.28,0.099,0.535,0.229,0.647,0.299
			c0.146,0.089,0.323,0.1,0.479,0.027c0.153-0.073,0.26-0.218,0.282-0.386C7.598,11.298,7.87,10.462,8,10.357
			c0.759,0,2.462-0.289,3.176-1.443c0.952,0.931,2.804,1.847,4.872,1.966c0.129,0.685,0.473,1.292,0.521,1.372
			c0.068,0.118,0.183,0.203,0.315,0.234C16.922,12.496,16.961,12.5,17,12.5c0.095,0,0.189-0.027,0.271-0.08
			c0.004-0.003,0.288-0.179,0.64-0.303c0.022,0.178,0.09,0.758,0.09,0.954C18,14.074,17.646,14.678,17.5,14.714z"/>
		<path d="M10.5,12h-1C9.224,12,9,12.224,9,12.5S9.224,13,9.5,13h1c0.276,0,0.5-0.224,0.5-0.5S10.776,12,10.5,12z"/>
		<path d="M14.5,12h-1c-0.276,0-0.5,0.224-0.5,0.5s0.224,0.5,0.5,0.5h1c0.276,0,0.5-0.224,0.5-0.5S14.776,12,14.5,12z"/>
	</g>
</g>
<g id="Man_Cap">
</g>
<g id="Woman_Cap">
</g>
<g id="Man_3">
</g>
<g id="Woman_3">
</g>
<g id="Men_4">
</g>
<g id="Woman_4">
</g>
<g id="Business_Man_1">
</g>
<g id="Business_Woman_1">
</g>
<g id="Firefigyhter">
</g>
<g id="Policeman">
</g>
<g id="Criminal">
</g>
<g id="Prisoner">
</g>
<g id="Woodsman">
</g>
<g id="Dispatcher_1">
</g>
<g id="Dispatcher_2">
</g>
<g id="Soldier">
</g>
<g id="Astronaut">
</g>
<g id="Hipster_Guy">
</g>
<g id="Hipster_Girl">
</g>
<g id="Worker">
</g>
<g id="Old_Man">
</g>
<g id="Punk">
</g>
<g id="Diver">
</g>
<g id="Artist">
</g>
<g id="Dictator">
</g>
<g id="Man_Hat">
</g>
<g id="Woman_Hat">
</g>
<g id="Graduated_Man">
</g>
<g id="Graduated_Woman">
</g>
<g id="Avatar_Chef">
</g>
<g id="Waiter">
</g>
<g id="Waitress">
</g>
<g id="Bllboy">
</g>
<g id="Santa">
</g>
<g id="Doctor">
</g>
<g id="Nurse">
</g>
<g id="Captain">
</g>
<g id="Farmer">
</g>
<g id="Maid">
</g>
<g id="Business_Man_2">
</g>
<g id="Business_Woman_2">
</g>
<g id="Cowboy">
</g>
<g id="Anonymus">
</g>
<g id="Batman">
</g>
<g id="Superman">
</g>
<g id="Captain_America">
</g>
<g id="Darth_Vader">
</g>
<g id="Harry_Potter">
</g>
<g id="Anonymus_2">
</g>
<g id="Scream">
</g>
<g id="Jason">
</g>
<g id="Charlie_Chaplin">
</g>
</svg>
