<?xml version="1.0" encoding="iso-8859-1"?>
<!-- Generator: Adobe Illustrator 19.2.1, SVG Export Plug-In . SVG Version: 6.00 Build 0)  -->
<svg version="1.1" xmlns="http://www.w3.org/2000/svg" xmlns:xlink="http://www.w3.org/1999/xlink" x="0px" y="0px"
	 viewBox="0 0 24 24" style="enable-background:new 0 0 24 24;" xml:space="preserve">
<g id="Engagement_1">
</g>
<g id="Engagement_2">
</g>
<g id="Wedding_Ring">
</g>
<g id="Church">
</g>
<g id="Church_Bells">
</g>
<g id="Wedding_Altar_1">
</g>
<g id="Wedding_Altar_2">
</g>
<g id="Bow-Tie">
</g>
<g id="Wedding_Tiara">
</g>
<g id="Wedding_Bouquet">
</g>
<g id="Wedding_Decoration_1">
</g>
<g id="Wedding_Decoration_2">
</g>
<g id="Wedding_Way_Sign">
</g>
<g id="Wedding_Date">
</g>
<g id="Wedding_Invitation">
</g>
<g id="Wedding_Invitation_2">
</g>
<g id="Bride">
</g>
<g id="Groom">
</g>
<g id="Mariage_Couple">
	<g>
		<circle cx="4.5" cy="3.5" r="2.5"/>
		<path d="M5.276,6.053L4.5,6.441L3.724,6.053c-0.155-0.077-0.339-0.07-0.486,0.022C3.09,6.166,3,6.327,3,6.5v1
			c0,0.173,0.09,0.334,0.237,0.425c0.147,0.091,0.331,0.098,0.486,0.022L4.5,7.559l0.776,0.388C5.347,7.982,5.423,8,5.5,8
			c0.091,0,0.183-0.025,0.263-0.075C5.91,7.834,6,7.673,6,7.5v-1c0-0.173-0.09-0.334-0.237-0.425
			C5.616,5.982,5.431,5.975,5.276,6.053z"/>
		<circle cx="16.5" cy="3.5" r="2.5"/>
		<path d="M23.726,12.507l-3.222-5.459c-0.322-0.452-0.802-0.787-1.351-0.944c-0.16-0.044-0.328-0.01-0.454,0.094
			c-1.285,1.05-3.114,1.051-4.399-0.001c-0.127-0.104-0.297-0.138-0.453-0.094c-0.549,0.156-1.03,0.492-1.376,0.981l-1.985,3.367
			L8.722,7.361c-0.22-0.423-0.555-0.774-0.971-1.016C7.675,6.301,7.588,6.277,7.5,6.277H6.972C6.983,6.351,7,6.424,7,6.5v1
			c0,0.523-0.266,1-0.711,1.275C5.86,9.042,5.29,9.071,4.832,8.843L4.5,8.677L4.171,8.842C3.954,8.948,3.724,9,3.496,9
			C3.222,9,2.95,8.924,2.709,8.775C2.266,8.5,2,8.023,2,7.5v-1c0-0.076,0.017-0.149,0.028-0.223H1.5
			c-0.088,0-0.175,0.023-0.251,0.068C0.479,6.794,0,7.62,0,8.5v6C0,15.327,0.673,16,1.5,16c0.175,0,0.344-0.03,0.5-0.085V22.5
			C2,23.327,2.673,24,3.5,24c0.384,0,0.734-0.145,1-0.383C4.766,23.855,5.116,24,5.5,24C6.327,24,7,23.327,7,22.5l0.006-11.873
			l2.175,3.588C9.444,14.7,9.95,15,10.5,15c0.537,0,1.005-0.286,1.27-0.711c0.005-0.008,0.013-0.012,0.017-0.02l1.581-2.701
			c-0.251,2.417-0.984,6.246-3.121,7.5c-0.135,0.079-0.225,0.217-0.244,0.372s0.037,0.31,0.148,0.419
			c0.07,0.067,1.383,1.293,3.848,1.857L13.999,22.5c0,0.827,0.673,1.5,1.5,1.5c0.386,0,0.734-0.15,1-0.39
			c0.266,0.24,0.614,0.39,1,0.39c0.827,0,1.5-0.673,1.5-1.499L19,21.718c2.481-0.563,3.782-1.794,3.851-1.862
			c0.112-0.11,0.166-0.267,0.146-0.423c-0.021-0.155-0.114-0.292-0.251-0.369c-2.1-1.182-2.842-4.928-3.104-7.367l1.447,2.62
			c0.451,0.645,1.322,0.866,2.026,0.514c0.419-0.209,0.725-0.59,0.837-1.045C24.065,13.331,23.974,12.852,23.726,12.507z"/>
	</g>
</g>
<g id="Wedding_Planner_Book">
</g>
<g id="Wedding_Cake_1">
</g>
<g id="Wedding_Cake_2">
</g>
<g id="Wedding_Cake_3">
</g>
<g id="Cake_Slice">
</g>
<g id="Marriage_Settlement">
</g>
<g id="Glass_Decoration">
</g>
<g id="Cutlery_Decoration">
</g>
<g id="Celebration_Glasses">
</g>
<g id="Wedding_Photo">
</g>
<g id="Wedding_Present_1">
</g>
<g id="Wedding_Present_2">
</g>
<g id="Wedding_Bouquet_2">
</g>
<g id="Hands_with_rings">
</g>
<g id="Wedding_Car">
</g>
<g id="Wedding_music">
</g>
<g id="wedding_party">
</g>
<g id="Confetti_1">
</g>
<g id="Confetti_2">
</g>
</svg>
