<?xml version="1.0" encoding="iso-8859-1"?>
<!-- Generator: Adobe Illustrator 19.2.1, SVG Export Plug-In . SVG Version: 6.00 Build 0)  -->
<svg version="1.1" xmlns="http://www.w3.org/2000/svg" xmlns:xlink="http://www.w3.org/1999/xlink" x="0px" y="0px"
	 viewBox="0 0 30 30" style="enable-background:new 0 0 30 30;" xml:space="preserve">
<g id="Engagement_1">
</g>
<g id="Engagement_2">
</g>
<g id="Wedding_Ring">
</g>
<g id="Church">
</g>
<g id="Church_Bells">
</g>
<g id="Wedding_Altar_1">
</g>
<g id="Wedding_Altar_2">
</g>
<g id="Bow-Tie">
</g>
<g id="Wedding_Tiara">
</g>
<g id="Wedding_Bouquet">
</g>
<g id="Wedding_Decoration_1">
</g>
<g id="Wedding_Decoration_2">
</g>
<g id="Wedding_Way_Sign">
</g>
<g id="Wedding_Date">
</g>
<g id="Wedding_Invitation">
</g>
<g id="Wedding_Invitation_2">
</g>
<g id="Bride">
</g>
<g id="Groom">
</g>
<g id="Mariage_Couple">
	<g>
		<g>
			<path d="M20.5,6c-1.654,0-3-1.346-3-3s1.346-3,3-3s3,1.346,3,3S22.154,6,20.5,6z M20.5,1c-1.103,0-2,0.897-2,2s0.897,2,2,2
				s2-0.897,2-2S21.603,1,20.5,1z"/>
		</g>
		<g>
			<path d="M5.5,6c-1.654,0-3-1.346-3-3s1.346-3,3-3s3,1.346,3,3S7.154,6,5.5,6z M5.5,1c-1.103,0-2,0.897-2,2s0.897,2,2,2
				s2-0.897,2-2S6.603,1,5.5,1z"/>
		</g>
		<g>
			<path d="M4.282,9.196C4.19,9.196,4.1,9.171,4.02,9.121C3.872,9.03,3.782,8.869,3.782,8.696V7.435c0-0.173,0.09-0.334,0.237-0.425
				c0.146-0.091,0.331-0.1,0.486-0.022l1.038,0.519l1.037-0.519c0.154-0.078,0.34-0.069,0.486,0.022
				C7.215,7.1,7.305,7.261,7.305,7.435v1.261c0,0.173-0.09,0.334-0.237,0.425C6.921,9.212,6.735,9.22,6.581,9.143L5.544,8.625
				L4.506,9.143C4.436,9.178,4.358,9.196,4.282,9.196z"/>
		</g>
		<g>
			<path d="M5.5,28.5C5.224,28.5,5,28.276,5,28v-8c0-0.276,0.224-0.5,0.5-0.5S6,19.724,6,20v8C6,28.276,5.776,28.5,5.5,28.5z"/>
		</g>
		<g>
			<path d="M20.673,26.848c-5.107,0-7.801-2.554-7.912-2.663c-0.112-0.108-0.167-0.264-0.148-0.418
				c0.019-0.155,0.108-0.292,0.243-0.372c1.938-1.137,4.797-5.754,4.797-8.395c0-1.277-0.107-2.11-0.223-2.637l-2.811,4.802
				c-0.14,0.239-0.445,0.317-0.685,0.179c-0.238-0.14-0.318-0.446-0.179-0.684l3.333-5.695c0.078-0.134,0.214-0.224,0.367-0.244
				c0.152-0.018,0.308,0.032,0.418,0.142c0.183,0.182,0.778,1.019,0.778,4.137c0,2.793-2.578,7.14-4.712,8.853
				c0.94,0.674,3.229,1.995,6.732,1.995c3.522,0,5.794-1.313,6.729-1.988c-2.135-1.68-4.707-6.014-4.707-8.86
				c0-3.117,0.593-3.954,0.775-4.136c0.11-0.111,0.275-0.166,0.423-0.142c0.156,0.022,0.292,0.116,0.368,0.253l3.152,5.713
				c0.228,0.319,0.7,0.438,1.096,0.239c0.232-0.116,0.401-0.327,0.464-0.579s0.012-0.518-0.14-0.729l-4.056-6.875
				c-0.193-0.269-0.49-0.499-0.839-0.643c-1.932,1.434-4.599,1.434-6.532,0c-0.349,0.145-0.65,0.38-0.864,0.68l-3.03,5.144
				c-0.14,0.239-0.447,0.316-0.685,0.177c-0.238-0.14-0.317-0.447-0.177-0.685l3.054-5.181c0.415-0.584,0.996-0.99,1.659-1.178
				c0.157-0.042,0.327-0.009,0.453,0.094c1.669,1.366,4.046,1.363,5.713,0c0.126-0.104,0.294-0.138,0.454-0.094
				c0.662,0.189,1.242,0.595,1.632,1.141l4.056,6.875c0.298,0.413,0.405,0.979,0.271,1.515c-0.133,0.536-0.492,0.985-0.986,1.232
				c-0.83,0.414-1.857,0.155-2.39-0.605l-2.66-4.815c-0.11,0.526-0.212,1.35-0.212,2.598c0,2.695,2.854,7.301,4.789,8.391
				c0.137,0.077,0.229,0.214,0.251,0.37c0.021,0.156-0.033,0.312-0.146,0.422C28.479,24.292,25.823,26.848,20.673,26.848z"/>
		</g>
		<g>
			<path d="M7,30c-0.597,0-1.133-0.263-1.5-0.679C5.133,29.737,4.597,30,4,30c-1.103,0-2-0.897-2-2V12c0-0.276,0.224-0.5,0.5-0.5
				S3,11.724,3,12v16c0,0.551,0.448,1,1,1s1-0.449,1-1c0-0.276,0.224-0.5,0.5-0.5S6,27.724,6,28c0,0.551,0.448,1,1,1s1-0.449,1-1
				V12.626c0-1.021,0.639-1.131,0.913-1.131c0.544,0,0.766,0.383,0.871,0.567l2.7,4.545c0.147,0.27,0.381,0.415,0.651,0.415
				c0.419,0,0.747-0.334,0.747-0.761c0-0.142-0.045-0.262-0.091-0.349c-0.011-0.015-0.021-0.03-0.03-0.046L9.896,9.095
				c-0.01-0.015-0.02-0.031-0.027-0.048C9.742,8.802,9.563,8.692,9.203,8.486L9.075,8.412c-0.239-0.139-0.32-0.445-0.182-0.684
				c0.139-0.24,0.445-0.319,0.684-0.181l0.122,0.07c0.379,0.217,0.771,0.441,1.037,0.933c0.002,0.003,0.004,0.006,0.006,0.009
				l3.854,6.75c0.006,0.009,0.012,0.018,0.018,0.027c0.176,0.283,0.269,0.603,0.269,0.924c0,0.971-0.784,1.761-1.747,1.761
				c-0.64,0-1.208-0.344-1.521-0.921L9,12.699V28C9,29.103,8.103,30,7,30z"/>
		</g>
		<g>
			<path d="M22.5,30c-0.597,0-1.133-0.263-1.5-0.679C20.633,29.737,20.097,30,19.5,30c-1.103,0-2-0.897-2-2v-1.91
				c0-0.276,0.224-0.5,0.5-0.5s0.5,0.224,0.5,0.5V28c0,0.551,0.448,1,1,1s1-0.449,1-1c0-0.276,0.224-0.5,0.5-0.5s0.5,0.224,0.5,0.5
				c0,0.551,0.448,1,1,1s1-0.449,1-1v-2.05c0-0.276,0.224-0.5,0.5-0.5s0.5,0.224,0.5,0.5V28C24.5,29.103,23.603,30,22.5,30z"/>
		</g>
		<g>
			<path d="M1.5,20C0.673,20,0,19.327,0,18.5V9.957c0-1.193,0.684-1.688,1.509-2.169c0.236-0.139,0.544-0.059,0.684,0.18
				c0.14,0.239,0.059,0.545-0.18,0.684C1.24,9.101,1,9.34,1,9.957V18.5C1,18.776,1.225,19,1.5,19S2,18.776,2,18.5
				C2,18.224,2.224,18,2.5,18S3,18.224,3,18.5C3,19.327,2.327,20,1.5,20z"/>
		</g>
		<g>
			<path d="M21,28.5c-0.276,0-0.5-0.224-0.5-0.5v-1.66c0-0.276,0.224-0.5,0.5-0.5s0.5,0.224,0.5,0.5V28
				C21.5,28.276,21.276,28.5,21,28.5z"/>
		</g>
	</g>
</g>
<g id="Wedding_Planner_Book">
</g>
<g id="Wedding_Cake_1">
</g>
<g id="Wedding_Cake_2">
</g>
<g id="Wedding_Cake_3">
</g>
<g id="Cake_Slice">
</g>
<g id="Marriage_Settlement">
</g>
<g id="Glass_Decoration">
</g>
<g id="Cutlery_Decoration">
</g>
<g id="Celebration_Glasses">
</g>
<g id="Wedding_Photo">
</g>
<g id="Wedding_Present_1">
</g>
<g id="Wedding_Present_2">
</g>
<g id="Wedding_Bouquet_2">
</g>
<g id="Hands_with_rings">
</g>
<g id="Wedding_Car">
</g>
<g id="Wedding_music">
</g>
<g id="wedding_party">
</g>
<g id="Confetti_1">
</g>
<g id="Confetti_2">
</g>
</svg>
