<?xml version="1.0" encoding="iso-8859-1"?>
<!-- Generator: Adobe Illustrator 19.2.1, SVG Export Plug-In . SVG Version: 6.00 Build 0)  -->
<svg version="1.1" xmlns="http://www.w3.org/2000/svg" xmlns:xlink="http://www.w3.org/1999/xlink" x="0px" y="0px"
	 viewBox="0 0 24 24" style="enable-background:new 0 0 24 24;" xml:space="preserve">
<g id="Add_User">
</g>
<g id="Remove_User">
</g>
<g id="Delete_User">
</g>
<g id="Done">
</g>
<g id="At_Symbol">
</g>
<g id="Question">
</g>
<g id="Answer">
</g>
<g id="Bring_Up">
</g>
<g id="Bring_Down">
</g>
<g id="Dismiss_User">
</g>
<g id="User_Speed">
</g>
<g id="User_Settings">
</g>
<g id="User_Refresh">
</g>
<g id="User_Time">
</g>
<g id="Dollar">
</g>
<g id="Euro">
</g>
<g id="Pound">
</g>
<g id="Bitcoin">
</g>
<g id="Global_User">
</g>
<g id="Waiting_User">
</g>
<g id="Writing_User_2">
</g>
<g id="Search_User">
</g>
<g id="Lock_User">
</g>
<g id="Mark_User">
</g>
<g id="Share_User">
</g>
<g id="Shopping">
</g>
<g id="User_Download">
</g>
<g id="User_Upload">
</g>
<g id="User_Statistics">
</g>
<g id="User_Defense">
</g>
<g id="User_Car">
</g>
<g id="User_Home">
</g>
<g id="Park">
</g>
<g id="Recicle_User">
</g>
<g id="Wifi">
</g>
<g id="Attach_User">
</g>
<g id="Disabled_User">
</g>
<g id="User_Card">
</g>
<g id="Gaming">
</g>
<g id="User_Cloud">
</g>
<g id="User_Database">
</g>
<g id="Copyright">
</g>
<g id="No_Copyright">
</g>
<g id="Creative_Commun">
</g>
<g id="Eco-Friendly">
</g>
<g id="Percentage">
</g>
<g id="User_Love">
</g>
<g id="User_Place">
</g>
<g id="User_Key">
</g>
<g id="Sleeping">
</g>
<g id="Add_User_2">
</g>
<g id="Remove_User_2">
</g>
<g id="Delete_User_2">
</g>
<g id="Done_2">
</g>
<g id="At_Symbol_2">
</g>
<g id="Question_2">
</g>
<g id="Answer_2">
</g>
<g id="Bring_Up_2">
</g>
<g id="Bring_Down_2">
</g>
<g id="Dismiss_User_2">
</g>
<g id="User_Speed_2">
</g>
<g id="User_Settings_2">
</g>
<g id="Refresh_2">
</g>
<g id="Time_2">
</g>
<g id="Dollar_2">
</g>
<g id="Euro_2">
</g>
<g id="Pound_2">
</g>
<g id="Bitcoin_2">
</g>
<g id="Global_User_2">
</g>
<g id="Waiting_User_2">
</g>
<g id="Writing_User">
</g>
<g id="Search_User_2">
</g>
<g id="Lock_User_2">
</g>
<g id="Mark_User_2">
	<g>
		<path d="M10.91,17.932c-0.527-0.383-0.747-1.058-0.545-1.678c0.202-0.619,0.775-1.036,1.427-1.036h1.924c0.003,0,0.007,0,0.01,0
			c0.279,0.004,0.51-0.22,0.51-0.5c0-0.088-0.023-0.171-0.063-0.243c-0.023-0.104-0.04-0.193-0.052-0.268
			c0.765-0.702,1.477-1.758,1.477-2.707c0-0.354,0.105-0.5,0.121-0.515c0.156-0.039,0.284-0.15,0.343-0.3
			c0.055-0.137,0.536-1.363,0.536-2.186c0-0.041-0.005-0.082-0.015-0.121c-0.055-0.22-0.208-0.54-0.485-0.728V5
			c0-1.611-0.492-2.271-1.01-2.655C14.99,1.569,14.158,0,11.098,0c-3.098,0-5,2.912-5,5v2.651c-0.277,0.188-0.43,0.508-0.485,0.728
			C5.603,8.418,5.598,8.459,5.598,8.5c0,0.822,0.481,2.049,0.536,2.186c0.06,0.149,0.148,0.248,0.304,0.287
			C6.493,11,6.598,11.146,6.598,11.5c0,0.949,0.713,2.006,1.478,2.708c-0.105,0.655-0.593,2.382-1.636,2.817l-4.438,1.479
			c-1.219,0.406-1.628,1.428-1.889,2.472c-0.01,0.039-0.015,0.08-0.015,0.121V23.5c0,0.276,0.224,0.5,0.5,0.5h11.504
			c0.276,0,0.5-0.224,0.5-0.5c0-0.161,0.021-0.309,0.061-0.44l0.863-2.812c0.063-0.204-0.011-0.426-0.184-0.551L10.91,17.932z"/>
		<path d="M23.877,16.563c-0.067-0.206-0.259-0.346-0.476-0.346h-4.071l-1.258-3.872c-0.134-0.412-0.817-0.412-0.951,0l-1.258,3.872
			h-4.071c-0.217,0-0.409,0.14-0.476,0.346s0.006,0.432,0.182,0.559l3.299,2.396l-1.178,3.836c-0.063,0.206,0.013,0.429,0.188,0.554
			C13.894,23.969,13.995,24,14.097,24c0.104,0,0.208-0.032,0.295-0.097l3.205-2.349l3.205,2.349c0.174,0.127,0.41,0.128,0.585,0.004
			c0.176-0.125,0.251-0.348,0.188-0.554l-1.178-3.836l3.298-2.396C23.871,16.995,23.944,16.77,23.877,16.563z"/>
	</g>
</g>
<g id="Share_User_2">
</g>
<g id="Shopping_2">
</g>
<g id="Download_2">
</g>
<g id="Upload_2">
</g>
<g id="User_Statistics_2">
</g>
<g id="User_Defense_2">
</g>
<g id="Car_2">
</g>
<g id="Home_2">
</g>
<g id="Park_2">
</g>
<g id="Recicle_User_2">
</g>
<g id="User_Wifi">
</g>
<g id="Attach_2">
</g>
<g id="Disabled_User_2">
</g>
<g id="User_Card_2">
</g>
<g id="Gaming_2">
</g>
<g id="Cloud_2">
</g>
<g id="Database_2">
</g>
<g id="Copyright_2">
</g>
<g id="No_Copyright_2">
</g>
<g id="Creative_Commun_2">
</g>
<g id="Eco-Friendly_2">
</g>
<g id="Percentage_2">
</g>
<g id="User_Love_2">
</g>
<g id="User_Rate_2">
</g>
<g id="User_Key_2">
</g>
<g id="Sleeping_2">
</g>
</svg>
