<?xml version="1.0" encoding="iso-8859-1"?>
<!-- Generator: Adobe Illustrator 19.2.1, SVG Export Plug-In . SVG Version: 6.00 Build 0)  -->
<svg version="1.1" xmlns="http://www.w3.org/2000/svg" xmlns:xlink="http://www.w3.org/1999/xlink" x="0px" y="0px"
	 viewBox="0 0 24 24" style="enable-background:new 0 0 24 24;" xml:space="preserve">
<g id="Add_User">
</g>
<g id="Remove_User">
</g>
<g id="Delete_User">
</g>
<g id="Done">
</g>
<g id="At_Symbol">
</g>
<g id="Question">
</g>
<g id="Answer">
</g>
<g id="Bring_Up">
</g>
<g id="Bring_Down">
</g>
<g id="Dismiss_User">
</g>
<g id="User_Speed">
</g>
<g id="User_Settings">
</g>
<g id="User_Refresh">
</g>
<g id="User_Time">
</g>
<g id="Dollar">
</g>
<g id="Euro">
</g>
<g id="Pound">
</g>
<g id="Bitcoin">
</g>
<g id="Global_User">
</g>
<g id="Waiting_User">
</g>
<g id="Writing_User_2">
</g>
<g id="Search_User">
</g>
<g id="Lock_User">
</g>
<g id="Mark_User">
	<g>
		<path d="M10.911,17.931c-0.528-0.383-0.747-1.057-0.545-1.677c0.202-0.62,0.775-1.037,1.427-1.037h2.981
			c0.217,0,0.409-0.14,0.476-0.346l0.921-2.835c0.165-0.508,0.592-0.876,1.143-0.985c0.211-0.042,0.372-0.215,0.399-0.429
			l0.242-1.937c0.053-0.422-0.077-0.849-0.357-1.169c-0.164-0.188-0.371-0.33-0.6-0.417l0.092-1.883l0.374-0.375
			c0.563-0.599,1.03-1.626,0.054-3.116C16.767,0.58,15.492,0,13.729,0c-0.696,0-2.298,0-3.79,1.002C5.678,1.091,5.098,3.07,5.098,5
			c0,0.449,0.109,1.46,0.181,2.07c-0.257,0.081-0.49,0.231-0.672,0.438C4.322,7.829,4.19,8.259,4.243,8.686l0.25,2
			c0.082,0.652,0.577,1.165,1.203,1.287c0.207,1.375,0.873,2.724,1.839,3.722l-0.348,1.393l-3.83,0.958
			c-2.192,0.548-3.258,2.332-3.258,5.455c0,0.133,0.053,0.26,0.146,0.354S0.466,24,0.598,24l11.504-0.001
			c0.276,0,0.5-0.223,0.5-0.499c0-0.165,0.021-0.309,0.061-0.441l0.863-2.811c0.063-0.205-0.011-0.426-0.184-0.551L10.911,17.931z"
			/>
		<path d="M23.877,16.563c-0.067-0.206-0.259-0.346-0.476-0.346h-4.071l-1.258-3.872c-0.134-0.412-0.817-0.412-0.951,0l-1.258,3.872
			h-4.071c-0.217,0-0.409,0.14-0.476,0.346s0.006,0.432,0.182,0.559l3.299,2.397l-1.178,3.834c-0.063,0.206,0.013,0.43,0.188,0.554
			c0.175,0.126,0.411,0.124,0.585-0.004l3.205-2.349l3.205,2.349C20.889,23.968,20.993,24,21.097,24c0.102,0,0.203-0.031,0.29-0.092
			c0.176-0.125,0.251-0.349,0.188-0.555l-1.178-3.834l3.298-2.397C23.871,16.994,23.944,16.768,23.877,16.563z"/>
	</g>
</g>
<g id="Share_User">
</g>
<g id="Shopping">
</g>
<g id="User_Download">
</g>
<g id="User_Upload">
</g>
<g id="User_Statistics">
</g>
<g id="User_Defense">
</g>
<g id="User_Car">
</g>
<g id="User_Home">
</g>
<g id="Park">
</g>
<g id="Recicle_User">
</g>
<g id="Wifi">
</g>
<g id="Attach_User">
</g>
<g id="Disabled_User">
</g>
<g id="User_Card">
</g>
<g id="Gaming">
</g>
<g id="User_Cloud">
</g>
<g id="User_Database">
</g>
<g id="Copyright">
</g>
<g id="No_Copyright">
</g>
<g id="Creative_Commun">
</g>
<g id="Eco-Friendly">
</g>
<g id="Percentage">
</g>
<g id="User_Love">
</g>
<g id="User_Place">
</g>
<g id="User_Key">
</g>
<g id="Sleeping">
</g>
<g id="Add_User_2">
</g>
<g id="Remove_User_2">
</g>
<g id="Delete_User_2">
</g>
<g id="Done_2">
</g>
<g id="At_Symbol_2">
</g>
<g id="Question_2">
</g>
<g id="Answer_2">
</g>
<g id="Bring_Up_2">
</g>
<g id="Bring_Down_2">
</g>
<g id="Dismiss_User_2">
</g>
<g id="User_Speed_2">
</g>
<g id="User_Settings_2">
</g>
<g id="Refresh_2">
</g>
<g id="Time_2">
</g>
<g id="Dollar_2">
</g>
<g id="Euro_2">
</g>
<g id="Pound_2">
</g>
<g id="Bitcoin_2">
</g>
<g id="Global_User_2">
</g>
<g id="Waiting_User_2">
</g>
<g id="Writing_User">
</g>
<g id="Search_User_2">
</g>
<g id="Lock_User_2">
</g>
<g id="Mark_User_2">
</g>
<g id="Share_User_2">
</g>
<g id="Shopping_2">
</g>
<g id="Download_2">
</g>
<g id="Upload_2">
</g>
<g id="User_Statistics_2">
</g>
<g id="User_Defense_2">
</g>
<g id="Car_2">
</g>
<g id="Home_2">
</g>
<g id="Park_2">
</g>
<g id="Recicle_User_2">
</g>
<g id="User_Wifi">
</g>
<g id="Attach_2">
</g>
<g id="Disabled_User_2">
</g>
<g id="User_Card_2">
</g>
<g id="Gaming_2">
</g>
<g id="Cloud_2">
</g>
<g id="Database_2">
</g>
<g id="Copyright_2">
</g>
<g id="No_Copyright_2">
</g>
<g id="Creative_Commun_2">
</g>
<g id="Eco-Friendly_2">
</g>
<g id="Percentage_2">
</g>
<g id="User_Love_2">
</g>
<g id="User_Rate_2">
</g>
<g id="User_Key_2">
</g>
<g id="Sleeping_2">
</g>
</svg>
