<?xml version="1.0" encoding="iso-8859-1"?>
<!-- Generator: Adobe Illustrator 19.2.1, SVG Export Plug-In . SVG Version: 6.00 Build 0)  -->
<svg version="1.1" xmlns="http://www.w3.org/2000/svg" xmlns:xlink="http://www.w3.org/1999/xlink" x="0px" y="0px"
	 viewBox="0 0 30 30" style="enable-background:new 0 0 30 30;" xml:space="preserve">
<g id="Engagement_1">
</g>
<g id="Engagement_2">
</g>
<g id="Wedding_Ring">
</g>
<g id="Church">
</g>
<g id="Church_Bells">
</g>
<g id="Wedding_Altar_1">
</g>
<g id="Wedding_Altar_2">
</g>
<g id="Bow-Tie">
</g>
<g id="Wedding_Tiara">
</g>
<g id="Wedding_Bouquet">
</g>
<g id="Wedding_Decoration_1">
</g>
<g id="Wedding_Decoration_2">
</g>
<g id="Wedding_Way_Sign">
</g>
<g id="Wedding_Date">
</g>
<g id="Wedding_Invitation">
</g>
<g id="Wedding_Invitation_2">
</g>
<g id="Bride">
</g>
<g id="Groom">
</g>
<g id="Mariage_Couple">
</g>
<g id="Wedding_Planner_Book">
</g>
<g id="Wedding_Cake_1">
</g>
<g id="Wedding_Cake_2">
</g>
<g id="Wedding_Cake_3">
</g>
<g id="Cake_Slice">
</g>
<g id="Marriage_Settlement">
	<g>
		<path d="M17.678,20.516c-0.06,0.18-0.013,0.378,0.121,0.512c0.096,0.096,0.223,0.146,0.354,0.146c0.053,0,0.106-0.009,0.158-0.025
			l3.489-1.163l-2.959-2.959L17.678,20.516z"/>
		<path d="M22.642,19.413l6.69-6.69c0.888-0.888,0.888-2.333-0.008-3.229c-0.89-0.889-2.334-0.887-3.222,0l-6.689,6.69
			L22.642,19.413z"/>
		<path d="M29.5,25H25H11v1.5c0,1.379-1.122,2.5-2.5,2.5C8.224,29,8,28.776,8,28.5S8.224,28,8.5,28c0.827,0,1.5-0.673,1.5-1.5v-2
			c0-0.276,0.224-0.5,0.5-0.5H25v-5.531l-1.651,1.651c-0.179,0.179-0.411,0.266-0.645,0.281c-0.114,0.248-0.322,0.444-0.587,0.533
			l-3.489,1.163c-0.162,0.053-0.318,0.077-0.475,0.077c-0.4,0-0.777-0.156-1.061-0.439c-0.404-0.403-0.543-0.991-0.363-1.533
			l1.164-3.491c0.088-0.264,0.284-0.472,0.532-0.587c0.015-0.235,0.102-0.466,0.281-0.645L25,9.183V3c0-1.654-1.346-3-3.07-3H3.018
			H3.005H3C2.998,0,2.995,0,2.993,0C1.341,0.01,0,1.362,0,3.022V4.5C0,4.776,0.224,5,0.5,5H4V3c0-0.551-0.449-1-1-1
			C2.724,2,2.5,1.776,2.5,1.5S2.724,1,3,1c1.103,0,2,0.897,2,2v24c0,1.654,1.346,3,3,3h19c1.654,0,3-1.346,3-3v-1.5
			C30,25.224,29.776,25,29.5,25z M11.5,5h6C17.776,5,18,5.224,18,5.5S17.776,6,17.5,6h-6C11.224,6,11,5.776,11,5.5S11.224,5,11.5,5z
			 M8.5,9h12C20.776,9,21,9.224,21,9.5S20.776,10,20.5,10h-12C8.224,10,8,9.776,8,9.5S8.224,9,8.5,9z M8.5,13h10
			c0.276,0,0.5,0.224,0.5,0.5S18.776,14,18.5,14h-10C8.224,14,8,13.776,8,13.5S8.224,13,8.5,13z M8.5,16h8
			c0.276,0,0.5,0.224,0.5,0.5S16.776,17,16.5,17h-8C8.224,17,8,16.776,8,16.5S8.224,16,8.5,16z"/>
	</g>
</g>
<g id="Glass_Decoration">
</g>
<g id="Cutlery_Decoration">
</g>
<g id="Celebration_Glasses">
</g>
<g id="Wedding_Photo">
</g>
<g id="Wedding_Present_1">
</g>
<g id="Wedding_Present_2">
</g>
<g id="Wedding_Bouquet_2">
</g>
<g id="Hands_with_rings">
</g>
<g id="Wedding_Car">
</g>
<g id="Wedding_music">
</g>
<g id="wedding_party">
</g>
<g id="Confetti_1">
</g>
<g id="Confetti_2">
</g>
</svg>
