<?xml version="1.0" encoding="iso-8859-1"?>
<!-- Generator: Adobe Illustrator 19.2.1, SVG Export Plug-In . SVG Version: 6.00 Build 0)  -->
<svg version="1.1" xmlns="http://www.w3.org/2000/svg" xmlns:xlink="http://www.w3.org/1999/xlink" x="0px" y="0px"
	 viewBox="0 0 24 24" style="enable-background:new 0 0 24 24;" xml:space="preserve">
<g id="Cutting_Board_1">
</g>
<g id="Cutting_Board_2">
</g>
<g id="Chef_x27_s_Hat_1">
</g>
<g id="Chef_x27_s_Hat_2">
</g>
<g id="Kitchen_Scale">
</g>
<g id="Measuring_Cup">
	<path d="M20.5,0h-20C0.298,0,0.115,0.122,0.038,0.309C-0.039,0.496,0.004,0.71,0.147,0.854l1.536,1.536
		C2.532,3.239,3,4.369,3,5.571V21.5C3,22.878,4.122,24,5.5,24h10c1.378,0,2.5-1.122,2.5-2.5v-17C18,4.224,18.224,4,18.5,4
		S19,4.224,19,4.5V11c0,1.103,0.897,2,2,2s2-0.897,2-2V2.5C23,1.122,21.879,0,20.5,0z M11.5,22h-2C9.224,22,9,21.776,9,21.5
		S9.224,21,9.5,21h2c0.276,0,0.5,0.224,0.5,0.5S11.776,22,11.5,22z M11.5,20h-3C8.224,20,8,19.776,8,19.5S8.224,19,8.5,19h3
		c0.276,0,0.5,0.224,0.5,0.5S11.776,20,11.5,20z M11.5,18h-2C9.224,18,9,17.776,9,17.5S9.224,17,9.5,17h2c0.276,0,0.5,0.224,0.5,0.5
		S11.776,18,11.5,18z M11.5,16h-3C8.224,16,8,15.776,8,15.5S8.224,15,8.5,15h3c0.276,0,0.5,0.224,0.5,0.5S11.776,16,11.5,16z
		 M11.5,14h-2C9.224,14,9,13.776,9,13.5S9.224,13,9.5,13h2c0.276,0,0.5,0.224,0.5,0.5S11.776,14,11.5,14z M11.5,12h-3
		C8.224,12,8,11.776,8,11.5S8.224,11,8.5,11h3c0.276,0,0.5,0.224,0.5,0.5S11.776,12,11.5,12z M11.5,10h-2C9.224,10,9,9.776,9,9.5
		S9.224,9,9.5,9h2C11.776,9,12,9.224,12,9.5S11.776,10,11.5,10z M11.5,8h-3C8.224,8,8,7.776,8,7.5S8.224,7,8.5,7h3
		C11.776,7,12,7.224,12,7.5S11.776,8,11.5,8z"/>
</g>
<g id="Pot_1">
</g>
<g id="Pot_2">
</g>
<g id="Wok_1">
</g>
<g id="Wok_2">
</g>
<g id="Teapot">
</g>
<g id="Plate">
</g>
<g id="Sauce_Boat">
</g>
<g id="Cauldron">
</g>
<g id="Cookbook">
</g>
<g id="Salt_Pot">
</g>
<g id="Pepper_Pot_1">
</g>
<g id="Pepper_Pot_2">
</g>
<g id="Egg_Timer">
</g>
<g id="Olive_Oil_Pot">
</g>
<g id="Pancake_Griddle">
</g>
<g id="Pan">
</g>
<g id="Kettle">
</g>
<g id="Microwave">
</g>
<g id="Cooker">
</g>
<g id="Meat_Grinder">
</g>
<g id="Coffee_Maker">
</g>
<g id="Household_Mixer">
</g>
<g id="Stand_Mixer">
</g>
<g id="Hand_Blender">
</g>
<g id="Blender">
</g>
<g id="Cooker_Hood">
</g>
<g id="Refrigerator">
</g>
<g id="Freezer">
</g>
<g id="Apron">
</g>
<g id="Oven_Gloves">
</g>
<g id="Rolling_Pin">
</g>
<g id="Sieve">
</g>
<g id="Tea_Sieve">
</g>
<g id="Grater">
</g>
<g id="Knife_Holder">
</g>
<g id="Funnel">
</g>
<g id="Kitchen_Clock">
</g>
<g id="Lemon_Juicer">
</g>
<g id="Pastry_Bag_1">
</g>
<g id="Pastry_Bag_2">
</g>
<g id="Corkscrew">
</g>
<g id="Bottle_Opener">
</g>
<g id="Service">
</g>
<g id="Chopsticks">
</g>
<g id="Hatchet">
</g>
<g id="Filleting_Knife">
</g>
<g id="Bread_Knife">
</g>
<g id="Herb_Knife">
</g>
<g id="Whetting">
</g>
<g id="Cake_Knife">
</g>
<g id="Layer_58">
</g>
<g id="Ladle">
</g>
<g id="Sauce_Spoon">
</g>
<g id="Egg_Beater">
</g>
<g id="Meat_Fork">
</g>
<g id="Kitchen_Spoon_1">
</g>
<g id="Kitchen_Spoon_2">
</g>
<g id="Pizza_Cutter">
</g>
<g id="Potato_Musher">
</g>
<g id="Peeler">
</g>
<g id="Honey_Dipper">
</g>
<g id="Fork">
</g>
<g id="Knife">
</g>
<g id="Spoon">
</g>
<g id="Cutlery_Set">
</g>
<g id="Sugar_Bowl">
</g>
<g id="Matches">
</g>
<g id="Cezve">
</g>
</svg>
