<?xml version="1.0" encoding="iso-8859-1"?>
<!-- Generator: Adobe Illustrator 19.2.1, SVG Export Plug-In . SVG Version: 6.00 Build 0)  -->
<svg version="1.1" xmlns="http://www.w3.org/2000/svg" xmlns:xlink="http://www.w3.org/1999/xlink" x="0px" y="0px"
	 viewBox="0 0 24 24" style="enable-background:new 0 0 24 24;" xml:space="preserve">
<g id="Cutting_Board_1">
</g>
<g id="Cutting_Board_2">
</g>
<g id="Chef_x27_s_Hat_1">
</g>
<g id="Chef_x27_s_Hat_2">
</g>
<g id="Kitchen_Scale">
</g>
<g id="Measuring_Cup">
</g>
<g id="Pot_1">
</g>
<g id="Pot_2">
</g>
<g id="Wok_1">
</g>
<g id="Wok_2">
</g>
<g id="Teapot">
</g>
<g id="Plate">
</g>
<g id="Sauce_Boat">
</g>
<g id="Cauldron">
</g>
<g id="Cookbook">
</g>
<g id="Salt_Pot">
</g>
<g id="Pepper_Pot_1">
</g>
<g id="Pepper_Pot_2">
</g>
<g id="Egg_Timer">
</g>
<g id="Olive_Oil_Pot">
</g>
<g id="Pancake_Griddle">
</g>
<g id="Pan">
</g>
<g id="Kettle">
</g>
<g id="Microwave">
</g>
<g id="Cooker">
</g>
<g id="Meat_Grinder">
	<path d="M11.5,9h-2C9.224,9,9,9.224,9,9.5V10H8V4h0.5C10.43,4,12,2.43,12,0.5C12,0.224,11.776,0,11.5,0h-11C0.224,0,0,0.224,0,0.5
		C0,2.43,1.57,4,3.5,4H4v6H2.908C2.701,9.419,2.151,9,1.5,9C0.673,9,0,9.673,0,10.5v3C0,14.327,0.673,15,1.5,15
		c0.651,0,1.201-0.419,1.408-1H9v8.5C9,22.776,9.224,23,9.5,23H11v0.5c0,0.276,0.224,0.5,0.5,0.5s0.5-0.224,0.5-0.5V23h9v0.5
		c0,0.276,0.224,0.5,0.5,0.5s0.5-0.224,0.5-0.5V23h1.5c0.276,0,0.5-0.224,0.5-0.5v-1C24,14.607,18.393,9,11.5,9z M13.5,19
		c-0.276,0-0.5-0.224-0.5-0.5c0-0.276,0.224-0.5,0.5-0.5s0.5,0.224,0.5,0.5C14,18.776,13.776,19,13.5,19z M13.5,16
		c-0.827,0-1.5-0.673-1.5-1.5s0.673-1.5,1.5-1.5s1.5,0.673,1.5,1.5S14.327,16,13.5,16z"/>
</g>
<g id="Coffee_Maker">
</g>
<g id="Household_Mixer">
</g>
<g id="Stand_Mixer">
</g>
<g id="Hand_Blender">
</g>
<g id="Blender">
</g>
<g id="Cooker_Hood">
</g>
<g id="Refrigerator">
</g>
<g id="Freezer">
</g>
<g id="Apron">
</g>
<g id="Oven_Gloves">
</g>
<g id="Rolling_Pin">
</g>
<g id="Sieve">
</g>
<g id="Tea_Sieve">
</g>
<g id="Grater">
</g>
<g id="Knife_Holder">
</g>
<g id="Funnel">
</g>
<g id="Kitchen_Clock">
</g>
<g id="Lemon_Juicer">
</g>
<g id="Pastry_Bag_1">
</g>
<g id="Pastry_Bag_2">
</g>
<g id="Corkscrew">
</g>
<g id="Bottle_Opener">
</g>
<g id="Service">
</g>
<g id="Chopsticks">
</g>
<g id="Hatchet">
</g>
<g id="Filleting_Knife">
</g>
<g id="Bread_Knife">
</g>
<g id="Herb_Knife">
</g>
<g id="Whetting">
</g>
<g id="Cake_Knife">
</g>
<g id="Layer_58">
</g>
<g id="Ladle">
</g>
<g id="Sauce_Spoon">
</g>
<g id="Egg_Beater">
</g>
<g id="Meat_Fork">
</g>
<g id="Kitchen_Spoon_1">
</g>
<g id="Kitchen_Spoon_2">
</g>
<g id="Pizza_Cutter">
</g>
<g id="Potato_Musher">
</g>
<g id="Peeler">
</g>
<g id="Honey_Dipper">
</g>
<g id="Fork">
</g>
<g id="Knife">
</g>
<g id="Spoon">
</g>
<g id="Cutlery_Set">
</g>
<g id="Sugar_Bowl">
</g>
<g id="Matches">
</g>
<g id="Cezve">
</g>
</svg>
