<?xml version="1.0" encoding="iso-8859-1"?>
<!-- Generator: Adobe Illustrator 19.2.1, SVG Export Plug-In . SVG Version: 6.00 Build 0)  -->
<svg version="1.1" xmlns="http://www.w3.org/2000/svg" xmlns:xlink="http://www.w3.org/1999/xlink" x="0px" y="0px"
	 viewBox="0 0 30 30" style="enable-background:new 0 0 30 30;" xml:space="preserve">
<g id="Flag">
</g>
<g id="Umbrella">
</g>
<g id="Briefcase">
</g>
<g id="Box">
</g>
<g id="Magnet">
</g>
<g id="Percent">
</g>
<g id="Rocket">
</g>
<g id="Share">
</g>
<g id="Transmitter">
</g>
<g id="Record_2">
</g>
<g id="Record_1">
</g>
<g id="Anchor">
</g>
<g id="Airplane">
</g>
<g id="Car">
</g>
<g id="Newsfeed">
</g>
<g id="Wifi_Tethering">
</g>
<g id="No_Wifi_Tethering">
</g>
<g id="Bar_Chart_2">
</g>
<g id="Shop">
</g>
<g id="Alarm">
</g>
<g id="Sim_Card">
</g>
<g id="Radar">
</g>
<g id="Hand_2">
</g>
<g id="Palette">
</g>
<g id="Cake">
</g>
<g id="Blende">
</g>
<g id="Feather_Pen">
</g>
<g id="Ticket">
</g>
<g id="Medal">
	<g>
		<path d="M24.974,18.197c-0.061-0.181-0.22-0.311-0.408-0.336l-6.22-0.817l-2.899-5.769C15.362,11.106,15.189,11,15,11
			s-0.362,0.106-0.447,0.275l-2.899,5.769l-6.22,0.817c-0.189,0.025-0.347,0.155-0.408,0.336s-0.014,0.381,0.122,0.515l4.559,4.524
			l-1.242,6.165c-0.038,0.187,0.035,0.379,0.186,0.495c0.152,0.116,0.356,0.136,0.526,0.052L15,27.059l5.823,2.89
			C20.895,29.982,20.97,30,21.046,30c0.108,0,0.216-0.035,0.305-0.104c0.151-0.116,0.224-0.309,0.186-0.495l-1.243-6.165l4.56-4.524
			C24.987,18.578,25.035,18.378,24.974,18.197z"/>
		<path d="M19.001,16.121l2.003,0.263l3.541-14.193c0.133-0.533,0.017-1.085-0.32-1.516C23.89,0.246,23.385,0,22.84,0h-3.493
			l-1.68,13.466L19.001,16.121z"/>
		<path d="M8.996,16.384l2.003-0.263l1.344-2.673L10.653,0H7.16C6.615,0,6.11,0.246,5.775,0.675
			c-0.336,0.431-0.453,0.983-0.32,1.516L8.996,16.384z"/>
		<path d="M13.66,10.826C13.916,10.316,14.43,10,15,10s1.084,0.316,1.34,0.826l0.52,1.034L18.339,0h-6.678l1.487,11.843
			L13.66,10.826z"/>
	</g>
</g>
<g id="Mouse_Pointer_1">
</g>
<g id="Mouse_Pointer_2">
</g>
<g id="Fingerprint">
</g>
<g id="Earth">
</g>
</svg>
