<?xml version="1.0" encoding="iso-8859-1"?>
<!-- Generator: Adobe Illustrator 19.2.1, SVG Export Plug-In . SVG Version: 6.00 Build 0)  -->
<svg version="1.1" xmlns="http://www.w3.org/2000/svg" xmlns:xlink="http://www.w3.org/1999/xlink" x="0px" y="0px"
	 viewBox="0 0 24 24" style="enable-background:new 0 0 24 24;" xml:space="preserve">
<g id="Flag">
</g>
<g id="Umbrella">
</g>
<g id="Briefcase">
</g>
<g id="Box">
</g>
<g id="Magnet">
</g>
<g id="Percent">
</g>
<g id="Rocket">
</g>
<g id="Share">
</g>
<g id="Transmitter">
</g>
<g id="Record_2">
</g>
<g id="Record_1">
</g>
<g id="Anchor">
</g>
<g id="Airplane">
</g>
<g id="Car">
</g>
<g id="Newsfeed">
</g>
<g id="Wifi_Tethering">
</g>
<g id="No_Wifi_Tethering">
</g>
<g id="Bar_Chart_2">
</g>
<g id="Shop">
</g>
<g id="Alarm">
</g>
<g id="Sim_Card">
</g>
<g id="Radar">
</g>
<g id="Hand_2">
</g>
<g id="Palette">
</g>
<g id="Cake">
</g>
<g id="Blende">
</g>
<g id="Feather_Pen">
</g>
<g id="Ticket">
</g>
<g id="Medal">
	<g>
		<path d="M19.975,14.675c-0.062-0.182-0.221-0.313-0.41-0.338l-4.856-0.629l-2.263-4.435c-0.171-0.335-0.72-0.335-0.891,0
			l-2.263,4.435l-4.856,0.629c-0.19,0.024-0.349,0.156-0.41,0.338c-0.061,0.182-0.012,0.382,0.125,0.516l3.555,3.477l-0.968,4.732
			c-0.038,0.188,0.033,0.379,0.184,0.496C7.01,23.965,7.118,24,7.227,24c0.075,0,0.15-0.017,0.22-0.051L12,21.724l4.553,2.226
			c0.172,0.084,0.376,0.064,0.525-0.054c0.151-0.117,0.223-0.309,0.185-0.496l-0.968-4.732l3.555-3.477
			C19.986,15.057,20.035,14.856,19.975,14.675z"/>
		<path d="M15.359,12.784l1.536,0.199l2.78-11.12c0.112-0.451,0.013-0.92-0.273-1.287C19.114,0.21,18.684,0,18.219,0H15.5
			l-1.225,10.659L15.359,12.784z"/>
		<path d="M7.105,12.983l1.535-0.199l1.089-2.134L8.499,0H5.781C5.316,0,4.885,0.21,4.599,0.577
			C4.312,0.943,4.213,1.413,4.326,1.864L7.105,12.983z"/>
		<path d="M10.664,8.818c0.25-0.491,0.763-0.796,1.336-0.796s1.085,0.305,1.336,0.796l0.118,0.231L14.494,0H9.506l1.044,9.041
			L10.664,8.818z"/>
	</g>
</g>
<g id="Mouse_Pointer_1">
</g>
<g id="Mouse_Pointer_2">
</g>
<g id="Fingerprint">
</g>
<g id="Earth">
</g>
</svg>
