<?xml version="1.0" encoding="iso-8859-1"?>
<!-- Generator: Adobe Illustrator 19.2.1, SVG Export Plug-In . SVG Version: 6.00 Build 0)  -->
<svg version="1.1" xmlns="http://www.w3.org/2000/svg" xmlns:xlink="http://www.w3.org/1999/xlink" x="0px" y="0px"
	 viewBox="0 0 30 30" style="enable-background:new 0 0 30 30;" xml:space="preserve">
<g id="Restaurant_sign_1">
</g>
<g id="Restaurant_Sign_2">
</g>
<g id="Restaurant_Sign_3">
</g>
<g id="Hot_Drink_1">
</g>
<g id="Hot_Drink_2">
</g>
<g id="Cocktail">
</g>
<g id="Shot_Glasses">
</g>
<g id="Chilled_Champagne">
</g>
<g id="Wine">
</g>
<g id="Wine_List">
</g>
<g id="Menu">
</g>
<g id="Menu_2">
	<g>
		<g id="XMLID_85_">
			<path d="M6.396,13.723c-0.81,0-1.684-0.452-2.199-1.757c-0.634-1.606-0.482-3.735,0.75-4.222
				c1.231-0.489,2.797,0.964,3.432,2.571c0.296,0.75,0.335,1.453,0.111,2.034c-0.213,0.554-0.645,0.973-1.247,1.21
				C6.983,13.662,6.694,13.723,6.396,13.723z M5.458,8.648c-0.053,0-0.102,0.008-0.145,0.025c-0.496,0.196-0.679,1.678-0.187,2.925
				c0.379,0.959,1,1.324,1.749,1.031c0.233-0.092,0.542-0.278,0.681-0.64c0.132-0.343,0.094-0.795-0.108-1.308l0,0
				C6.999,9.545,6.006,8.648,5.458,8.648z"/>
		</g>
		<g id="XMLID_124_">
			<path d="M14.498,25.014C14.222,25.014,14,24.776,14,24.5c-0.113-0.263-1.397-0.75-2.045-0.75l-11.4,1.247
				c-0.141,0.015-0.283-0.03-0.388-0.125C0.061,24.777,0,24.642,0,24.5V5.75c0-0.255,0.192-0.469,0.446-0.497L11.9,4.003
				c0.002,0,0.004,0,0.006,0c0.544,0,1.865,0.273,2.593,0.857C15.226,4.273,16.543,4,17.045,4l11.509,1.253
				C28.808,5.281,29,5.495,29,5.75V24.5c0,0.142-0.061,0.277-0.166,0.372c-0.106,0.095-0.25,0.139-0.388,0.125l-11.455-1.25
				C16.402,23.75,15.138,24.228,15,24.52c-0.001,0.023-0.003,0.045-0.007,0.067C14.963,24.833,14.754,25.014,14.498,25.014z
				 M17.045,22.75L28,23.942V6.198L16.991,4.997C16.402,5,15.138,5.478,15,5.77c-0.001,0.023-0.003,0.045-0.007,0.067
				c-0.029,0.247-0.238,0.427-0.495,0.427C14.222,6.264,14,6.026,14,5.75C13.887,5.487,12.603,5,11.955,5L1,6.198v17.744l10.9-1.189
				c0.002,0,0.004,0,0.006,0c0.544,0,1.865,0.273,2.593,0.857C15.226,23.023,16.543,22.75,17.045,22.75z"/>
		</g>
		<g id="XMLID_123_">
			<path d="M14.5,25.182c-0.276,0-0.5-0.224-0.5-0.5V5.591c0-0.276,0.224-0.5,0.5-0.5s0.5,0.224,0.5,0.5v19.091
				C15,24.958,14.776,25.182,14.5,25.182z"/>
		</g>
		<g id="XMLID_125_">
			<path d="M25.955,21.364c-0.04,0-0.081-0.005-0.122-0.015c-0.278-0.069-0.71-0.15-1.234-0.237
				c-0.272-0.045-0.457-0.303-0.411-0.575c0.044-0.272,0.299-0.459,0.575-0.411c0.558,0.093,1.017,0.18,1.313,0.254
				c0.268,0.067,0.431,0.338,0.364,0.606C26.383,21.212,26.179,21.364,25.955,21.364z"/>
		</g>
		<g id="XMLID_88_">
			<path d="M22.137,20.739c-0.022,0-0.045-0.001-0.069-0.005c-2.454-0.337-5.082-0.647-5.082-0.647l0.117-0.993
				c0,0,2.638,0.311,5.101,0.65c0.273,0.038,0.465,0.29,0.427,0.563C22.598,20.558,22.383,20.739,22.137,20.739z"/>
		</g>
		<g id="XMLID_122_">
			<path d="M25.955,17.545c-0.04,0-0.081-0.005-0.122-0.015c-0.278-0.069-0.709-0.15-1.234-0.237
				c-0.272-0.045-0.457-0.303-0.411-0.575c0.045-0.272,0.298-0.463,0.575-0.411c0.558,0.093,1.016,0.18,1.312,0.254
				c0.268,0.067,0.431,0.338,0.364,0.606C26.383,17.394,26.179,17.545,25.955,17.545z"/>
		</g>
		<g id="XMLID_87_">
			<path d="M22.136,16.921c-0.022,0-0.045-0.001-0.069-0.005c-2.453-0.337-5.081-0.646-5.081-0.646l0.117-0.993
				c0,0,2.637,0.31,5.1,0.649c0.273,0.038,0.465,0.29,0.427,0.563C22.597,16.74,22.382,16.921,22.136,16.921z"/>
		</g>
		<g id="XMLID_107_">
			<path d="M25.955,13.727c-0.04,0-0.081-0.005-0.122-0.015c-0.278-0.069-0.71-0.15-1.234-0.237
				c-0.272-0.045-0.457-0.303-0.411-0.575c0.045-0.273,0.301-0.457,0.575-0.411c0.559,0.093,1.017,0.18,1.313,0.254
				c0.268,0.067,0.431,0.338,0.364,0.606C26.383,13.576,26.179,13.727,25.955,13.727z"/>
		</g>
		<g id="XMLID_86_">
			<path d="M22.135,13.103c-0.022,0-0.045-0.001-0.069-0.005c-2.452-0.337-5.078-0.646-5.079-0.646
				c-0.274-0.032-0.47-0.281-0.438-0.555s0.281-0.47,0.555-0.438c0,0,2.636,0.31,5.099,0.649c0.273,0.038,0.465,0.29,0.427,0.563
				C22.595,12.921,22.381,13.103,22.135,13.103z"/>
		</g>
		<g id="XMLID_91_">
			<path d="M25.955,9.909c-0.04,0-0.081-0.005-0.122-0.015c-0.278-0.069-0.709-0.15-1.234-0.237
				c-0.272-0.045-0.457-0.303-0.411-0.575c0.044-0.272,0.299-0.461,0.575-0.411c0.558,0.093,1.017,0.18,1.313,0.254
				c0.268,0.067,0.431,0.338,0.364,0.606C26.383,9.758,26.179,9.909,25.955,9.909z"/>
		</g>
		<g id="XMLID_90_">
			<path d="M22.135,9.285c-0.022,0-0.045-0.001-0.069-0.005c-2.452-0.338-5.077-0.647-5.079-0.647
				c-0.274-0.032-0.47-0.281-0.438-0.555s0.281-0.472,0.555-0.438c0,0,2.636,0.31,5.099,0.65c0.273,0.038,0.465,0.29,0.427,0.563
				C22.595,9.104,22.381,9.285,22.135,9.285z"/>
		</g>
		<g id="XMLID_84_">
			<path d="M10.045,20.727c-0.195,0-0.381-0.115-0.461-0.307l-2.986-7.133c-0.106-0.254,0.014-0.547,0.269-0.654
				c0.254-0.106,0.547,0.013,0.654,0.269l2.986,7.133c0.106,0.254-0.014,0.547-0.269,0.654
				C10.175,20.715,10.11,20.727,10.045,20.727z"/>
		</g>
	</g>
</g>
<g id="Salver">
</g>
<g id="Soup">
</g>
<g id="Sushi">
</g>
<g id="Pizza">
</g>
<g id="Pizza_Slice">
</g>
<g id="Fish">
</g>
<g id="Sausage">
</g>
<g id="Course">
</g>
<g id="Dessert">
</g>
<g id="Cutlery">
</g>
<g id="Napkin">
</g>
<g id="Table">
</g>
<g id="Spices">
</g>
<g id="Hot_Sauce">
</g>
<g id="Reserved_1">
</g>
<g id="Reserved_2">
</g>
<g id="Open">
</g>
<g id="Food_Photo">
</g>
<g id="Chef">
</g>
<g id="Bill">
</g>
<g id="Bill_2">
</g>
<g id="Paying_1">
</g>
<g id="Paying_2">
</g>
<g id="Restaurant_Place">
</g>
</svg>
