<?xml version="1.0" encoding="iso-8859-1"?>
<!-- Generator: Adobe Illustrator 19.2.1, SVG Export Plug-In . SVG Version: 6.00 Build 0)  -->
<svg version="1.1" xmlns="http://www.w3.org/2000/svg" xmlns:xlink="http://www.w3.org/1999/xlink" x="0px" y="0px"
	 viewBox="0 0 30 30" style="enable-background:new 0 0 30 30;" xml:space="preserve">
<g id="Restaurant_sign_1">
</g>
<g id="Restaurant_Sign_2">
</g>
<g id="Restaurant_Sign_3">
</g>
<g id="Hot_Drink_1">
</g>
<g id="Hot_Drink_2">
</g>
<g id="Cocktail">
</g>
<g id="Shot_Glasses">
</g>
<g id="Chilled_Champagne">
</g>
<g id="Wine">
</g>
<g id="Wine_List">
</g>
<g id="Menu">
</g>
<g id="Menu_2">
	<g>
		<path d="M28.555,5.253L17.046,4C16.645,4,15.725,4.178,15,4.548v19.971c0.14-0.292,1.403-0.769,1.991-0.772l11.454,1.25
			c0.148,0.015,0.282-0.03,0.389-0.125C28.939,24.777,29,24.642,29,24.5V5.75C29,5.495,28.808,5.281,28.555,5.253z M24.764,8.67
			c0.558,0.093,1.016,0.18,1.312,0.254c0.269,0.067,0.431,0.338,0.364,0.606c-0.057,0.228-0.261,0.379-0.485,0.379
			c-0.04,0-0.08-0.005-0.121-0.015c-0.278-0.069-0.709-0.15-1.233-0.237c-0.272-0.045-0.456-0.303-0.411-0.575
			C24.234,8.809,24.488,8.62,24.764,8.67z M24.764,12.488c0.558,0.093,1.016,0.18,1.312,0.254c0.269,0.067,0.431,0.338,0.364,0.606
			c-0.057,0.228-0.261,0.379-0.485,0.379c-0.04,0-0.08-0.005-0.121-0.015c-0.278-0.069-0.709-0.15-1.233-0.237
			c-0.272-0.045-0.457-0.303-0.411-0.576S24.497,12.438,24.764,12.488z M17.104,15.276c0,0,2.637,0.31,5.1,0.649
			c0.273,0.038,0.465,0.29,0.427,0.563c-0.034,0.25-0.249,0.432-0.494,0.432c-0.023,0-0.046-0.002-0.069-0.005
			c-2.453-0.338-5.08-0.646-5.08-0.646L17.104,15.276z M16.987,12.451l0.117-0.993c0,0,2.636,0.31,5.099,0.649
			c0.273,0.038,0.465,0.29,0.427,0.563c-0.034,0.25-0.249,0.432-0.494,0.432c-0.023,0-0.046-0.001-0.069-0.005
			C19.613,12.76,16.987,12.451,16.987,12.451z M16.55,8.078c0.031-0.274,0.286-0.474,0.555-0.438c0,0,2.636,0.31,5.099,0.65
			c0.273,0.038,0.465,0.29,0.427,0.563c-0.034,0.25-0.249,0.432-0.494,0.432c-0.023,0-0.046-0.001-0.069-0.005
			c-2.452-0.338-5.077-0.647-5.079-0.647C16.713,8.601,16.517,8.352,16.55,8.078z M22.138,20.739c-0.023,0-0.046-0.002-0.069-0.005
			c-2.454-0.338-5.081-0.647-5.081-0.647l0.117-0.992c0,0,2.637,0.31,5.101,0.649c0.273,0.037,0.465,0.29,0.427,0.563
			C22.598,20.558,22.383,20.739,22.138,20.739z M26.439,20.983c-0.057,0.228-0.261,0.38-0.485,0.38c-0.039,0-0.08-0.005-0.12-0.015
			c-0.278-0.069-0.71-0.15-1.235-0.237c-0.272-0.045-0.456-0.303-0.411-0.575c0.044-0.272,0.298-0.461,0.575-0.411
			c0.559,0.093,1.016,0.18,1.312,0.253C26.343,20.444,26.506,20.716,26.439,20.983z M26.438,17.168
			c-0.057,0.227-0.261,0.378-0.484,0.378c-0.04,0-0.081-0.005-0.122-0.016c-0.277-0.069-0.709-0.15-1.232-0.237
			c-0.272-0.045-0.456-0.303-0.411-0.575c0.046-0.272,0.3-0.461,0.575-0.411c0.559,0.093,1.018,0.18,1.313,0.255
			C26.345,16.629,26.507,16.9,26.438,17.168z"/>
		<path d="M7.556,11.99c0.132-0.343,0.094-0.795-0.108-1.308c-0.449-1.137-1.442-2.034-1.99-2.034c-0.053,0-0.102,0.008-0.145,0.025
			c-0.496,0.196-0.679,1.678-0.187,2.925c0.379,0.959,0.999,1.323,1.749,1.031C7.109,12.537,7.417,12.351,7.556,11.99z"/>
		<path d="M14,4.551c-0.728-0.369-1.658-0.548-2.093-0.548c-0.002,0-0.004,0-0.006,0L0.446,5.253C0.192,5.281,0,5.495,0,5.75V24.5
			c0,0.142,0.061,0.277,0.166,0.372c0.106,0.096,0.247,0.139,0.388,0.125l11.4-1.247c0.648,0,1.932,0.487,2.045,0.75V4.551z
			 M10.238,20.688c-0.063,0.026-0.128,0.039-0.193,0.039c-0.195,0-0.381-0.115-0.461-0.307l-2.819-6.734
			c-0.121,0.02-0.243,0.037-0.369,0.037c-0.81,0-1.684-0.452-2.199-1.757c-0.634-1.606-0.482-3.735,0.75-4.222
			c1.229-0.488,2.797,0.965,3.432,2.571c0.296,0.75,0.335,1.453,0.111,2.034c-0.155,0.402-0.427,0.73-0.793,0.972l2.811,6.714
			C10.613,20.289,10.493,20.582,10.238,20.688z"/>
	</g>
</g>
<g id="Salver">
</g>
<g id="Soup">
</g>
<g id="Sushi">
</g>
<g id="Pizza">
</g>
<g id="Pizza_Slice">
</g>
<g id="Fish">
</g>
<g id="Sausage">
</g>
<g id="Course">
</g>
<g id="Dessert">
</g>
<g id="Cutlery">
</g>
<g id="Napkin">
</g>
<g id="Table">
</g>
<g id="Spices">
</g>
<g id="Hot_Sauce">
</g>
<g id="Reserved_1">
</g>
<g id="Reserved_2">
</g>
<g id="Open">
</g>
<g id="Food_Photo">
</g>
<g id="Chef">
</g>
<g id="Bill">
</g>
<g id="Bill_2">
</g>
<g id="Paying_1">
</g>
<g id="Paying_2">
</g>
<g id="Restaurant_Place">
</g>
</svg>
