<?xml version="1.0" encoding="iso-8859-1"?>
<!-- Generator: Adobe Illustrator 19.2.1, SVG Export Plug-In . SVG Version: 6.00 Build 0)  -->
<svg version="1.1" xmlns="http://www.w3.org/2000/svg" xmlns:xlink="http://www.w3.org/1999/xlink" x="0px" y="0px"
	 viewBox="0 0 30 30" style="enable-background:new 0 0 30 30;" xml:space="preserve">
<g id="Restaurant_sign_1">
</g>
<g id="Restaurant_Sign_2">
</g>
<g id="Restaurant_Sign_3">
</g>
<g id="Hot_Drink_1">
</g>
<g id="Hot_Drink_2">
</g>
<g id="Cocktail">
</g>
<g id="Shot_Glasses">
</g>
<g id="Chilled_Champagne">
</g>
<g id="Wine">
</g>
<g id="Wine_List">
</g>
<g id="Menu">
	<g>
		<g id="XMLID_139_">
			<path d="M4.5,6h-4C0.224,6,0,5.776,0,5.5S0.224,5,0.5,5h4C4.776,5,5,5.224,5,5.5S4.776,6,4.5,6z"/>
		</g>
		<g id="XMLID_121_">
			<path d="M4.5,11h-4C0.224,11,0,10.776,0,10.5S0.224,10,0.5,10h4C4.776,10,5,10.224,5,10.5S4.776,11,4.5,11z"/>
		</g>
		<g id="XMLID_120_">
			<path d="M4.5,16h-4C0.224,16,0,15.776,0,15.5S0.224,15,0.5,15h4C4.776,15,5,15.224,5,15.5S4.776,16,4.5,16z"/>
		</g>
		<g id="XMLID_119_">
			<path d="M4.5,21h-4C0.224,21,0,20.776,0,20.5S0.224,20,0.5,20h4C4.776,20,5,20.224,5,20.5S4.776,21,4.5,21z"/>
		</g>
		<g id="XMLID_118_">
			<path d="M4.5,26h-4C0.224,26,0,25.776,0,25.5S0.224,25,0.5,25h4C4.776,25,5,25.224,5,25.5S4.776,26,4.5,26z"/>
		</g>
		<g id="XMLID_83_">
			<path d="M24.5,30h-20C3.122,30,2,28.878,2,27.5v-24C2,2.122,3.122,1,4.5,1h20C25.878,1,27,2.122,27,3.5v24
				C27,28.878,25.878,30,24.5,30z M4.5,2C3.673,2,3,2.673,3,3.5v24C3,28.327,3.673,29,4.5,29h20c0.827,0,1.5-0.673,1.5-1.5v-24
				C26,2.673,25.327,2,24.5,2H4.5z"/>
		</g>
		<g id="XMLID_116_">
			<path d="M9.5,16C9.224,16,9,15.776,9,15.5v-3.333l-0.583,0.884c-0.185,0.281-0.65,0.281-0.835,0L7,12.167V15.5
				C7,15.776,6.776,16,6.5,16S6,15.776,6,15.5v-5c0-0.221,0.145-0.416,0.356-0.479c0.212-0.062,0.439,0.02,0.561,0.204L8,11.868
				l1.083-1.643c0.121-0.185,0.35-0.267,0.561-0.204C9.855,10.084,10,10.279,10,10.5v5C10,15.776,9.776,16,9.5,16z"/>
		</g>
		<g id="XMLID_117_">
			<path d="M13.5,16h-2c-0.276,0-0.5-0.224-0.5-0.5v-5c0-0.276,0.224-0.5,0.5-0.5h2c0.276,0,0.5,0.224,0.5,0.5S13.776,11,13.5,11H12
				v4h1.5c0.276,0,0.5,0.224,0.5,0.5S13.776,16,13.5,16z"/>
		</g>
		<g id="XMLID_141_">
			<path d="M13.5,13h-2c-0.276,0-0.5-0.224-0.5-0.5s0.224-0.5,0.5-0.5h2c0.276,0,0.5,0.224,0.5,0.5S13.776,13,13.5,13z"/>
		</g>
		<g id="XMLID_142_">
			<path d="M18.5,16c-0.172,0-0.337-0.089-0.429-0.243L16,12.305V15.5c0,0.276-0.224,0.5-0.5,0.5S15,15.776,15,15.5v-5
				c0-0.225,0.15-0.422,0.367-0.482c0.215-0.058,0.447,0.032,0.562,0.225L18,13.695V10.5c0-0.276,0.224-0.5,0.5-0.5
				s0.5,0.224,0.5,0.5v5c0,0.225-0.15,0.422-0.367,0.482C18.589,15.994,18.544,16,18.5,16z"/>
		</g>
		<g id="XMLID_143_">
			<path d="M22.182,16h-0.205C21.044,16,20,15.242,20,14.227V10.5c0-0.276,0.224-0.5,0.5-0.5s0.5,0.224,0.5,0.5v3.727
				C21,14.603,21.502,15,21.977,15h0.205C22.618,15,23,14.639,23,14.227V10.5c0-0.276,0.224-0.5,0.5-0.5s0.5,0.224,0.5,0.5v3.727
				C24,15.188,23.167,16,22.182,16z"/>
		</g>
	</g>
</g>
<g id="Menu_2">
</g>
<g id="Salver">
</g>
<g id="Soup">
</g>
<g id="Sushi">
</g>
<g id="Pizza">
</g>
<g id="Pizza_Slice">
</g>
<g id="Fish">
</g>
<g id="Sausage">
</g>
<g id="Course">
</g>
<g id="Dessert">
</g>
<g id="Cutlery">
</g>
<g id="Napkin">
</g>
<g id="Table">
</g>
<g id="Spices">
</g>
<g id="Hot_Sauce">
</g>
<g id="Reserved_1">
</g>
<g id="Reserved_2">
</g>
<g id="Open">
</g>
<g id="Food_Photo">
</g>
<g id="Chef">
</g>
<g id="Bill">
</g>
<g id="Bill_2">
</g>
<g id="Paying_1">
</g>
<g id="Paying_2">
</g>
<g id="Restaurant_Place">
</g>
</svg>
