<?xml version="1.0" encoding="iso-8859-1"?>
<!-- Generator: Adobe Illustrator 19.2.1, SVG Export Plug-In . SVG Version: 6.00 Build 0)  -->
<svg version="1.1" xmlns="http://www.w3.org/2000/svg" xmlns:xlink="http://www.w3.org/1999/xlink" x="0px" y="0px"
	 viewBox="0 0 30 30" style="enable-background:new 0 0 30 30;" xml:space="preserve">
<g id="Cutting_Board_1">
</g>
<g id="Cutting_Board_2">
</g>
<g id="Chef_x27_s_Hat_1">
</g>
<g id="Chef_x27_s_Hat_2">
</g>
<g id="Kitchen_Scale">
</g>
<g id="Measuring_Cup">
</g>
<g id="Pot_1">
</g>
<g id="Pot_2">
</g>
<g id="Wok_1">
</g>
<g id="Wok_2">
</g>
<g id="Teapot">
</g>
<g id="Plate">
</g>
<g id="Sauce_Boat">
</g>
<g id="Cauldron">
</g>
<g id="Cookbook">
</g>
<g id="Salt_Pot">
</g>
<g id="Pepper_Pot_1">
</g>
<g id="Pepper_Pot_2">
</g>
<g id="Egg_Timer">
</g>
<g id="Olive_Oil_Pot">
</g>
<g id="Pancake_Griddle">
</g>
<g id="Pan">
</g>
<g id="Kettle">
</g>
<g id="Microwave">
	<g>
		<path d="M27.5,3h-25C1.122,3,0,4.122,0,5.5v19c0,1.207,0.86,2.217,2,2.449V27.5C2,27.776,2.224,28,2.5,28S3,27.776,3,27.5V27h24
			v0.5c0,0.276,0.224,0.5,0.5,0.5s0.5-0.224,0.5-0.5v-0.551c1.14-0.232,2-1.242,2-2.449v-19C30,4.122,28.878,3,27.5,3z M24,23.5
			c0,0.276-0.224,0.5-0.5,0.5h-21C2.224,24,2,23.776,2,23.5v-17C2,6.224,2.224,6,2.5,6h21C23.776,6,24,6.224,24,6.5V23.5z M28,21.5
			c0,0.276-0.224,0.5-0.5,0.5h-2c-0.276,0-0.5-0.224-0.5-0.5v-3c0-0.276,0.224-0.5,0.5-0.5h2c0.276,0,0.5,0.224,0.5,0.5V21.5z
			 M26.5,16c-0.827,0-1.5-0.673-1.5-1.5s0.673-1.5,1.5-1.5s1.5,0.673,1.5,1.5S27.327,16,26.5,16z M26.5,11
			c-0.827,0-1.5-0.673-1.5-1.5S25.673,8,26.5,8S28,8.673,28,9.5S27.327,11,26.5,11z"/>
		<path d="M13.5,10c-1.11,0-2.408,0.464-3.783,0.955C8.279,11.469,6.792,12,5.5,12C5.224,12,5,12.224,5,12.5S5.224,13,5.5,13
			c1.465,0,3.036-0.561,4.554-1.104C11.344,11.436,12.563,11,13.5,11c0.276,0,0.5-0.224,0.5-0.5S13.776,10,13.5,10z"/>
		<path d="M13.5,17c-1.11,0-2.408,0.464-3.783,0.955C8.279,18.469,6.792,19,5.5,19C5.224,19,5,19.224,5,19.5S5.224,20,5.5,20
			c1.465,0,3.036-0.561,4.554-1.104C11.344,18.436,12.563,18,13.5,18c0.276,0,0.5-0.224,0.5-0.5S13.776,17,13.5,17z"/>
		<path d="M20.5,8C19.673,8,19,8.673,19,9.5v11c0,0.827,0.673,1.5,1.5,1.5s1.5-0.673,1.5-1.5v-11C22,8.673,21.327,8,20.5,8z"/>
	</g>
</g>
<g id="Cooker">
</g>
<g id="Meat_Grinder">
</g>
<g id="Coffee_Maker">
</g>
<g id="Household_Mixer">
</g>
<g id="Stand_Mixer">
</g>
<g id="Hand_Blender">
</g>
<g id="Blender">
</g>
<g id="Cooker_Hood">
</g>
<g id="Refrigerator">
</g>
<g id="Freezer">
</g>
<g id="Apron">
</g>
<g id="Oven_Gloves">
</g>
<g id="Rolling_Pin">
</g>
<g id="Sieve">
</g>
<g id="Tea_Sieve">
</g>
<g id="Grater">
</g>
<g id="Knife_Holder">
</g>
<g id="Funnel">
</g>
<g id="Kitchen_Clock">
</g>
<g id="Lemon_Juicer">
</g>
<g id="Pastry_Bag_1">
</g>
<g id="Pastry_Bag_2">
</g>
<g id="Corkscrew">
</g>
<g id="Bottle_Opener">
</g>
<g id="Service">
</g>
<g id="Chopsticks">
</g>
<g id="Hatchet">
</g>
<g id="Filleting_Knife">
</g>
<g id="Bread_Knife">
</g>
<g id="Herb_Knife">
</g>
<g id="Whetting">
</g>
<g id="Cake_Knife">
</g>
<g id="Layer_58">
</g>
<g id="Ladle">
</g>
<g id="Sauce_Spoon">
</g>
<g id="Egg_Beater">
</g>
<g id="Meat_Fork">
</g>
<g id="Kitchen_Spoon_1">
</g>
<g id="Kitchen_Spoon_2">
</g>
<g id="Pizza_Cutter">
</g>
<g id="Potato_Musher">
</g>
<g id="Peeler">
</g>
<g id="Honey_Dipper">
</g>
<g id="Fork">
</g>
<g id="Knife">
</g>
<g id="Spoon">
</g>
<g id="Cutlery_Set">
</g>
<g id="Sugar_Bowl">
</g>
<g id="Matches">
</g>
<g id="Cezve">
</g>
</svg>
