<?xml version="1.0" encoding="iso-8859-1"?>
<!-- Generator: Adobe Illustrator 19.2.1, SVG Export Plug-In . SVG Version: 6.00 Build 0)  -->
<svg version="1.1" xmlns="http://www.w3.org/2000/svg" xmlns:xlink="http://www.w3.org/1999/xlink" x="0px" y="0px"
	 viewBox="0 0 30 30" style="enable-background:new 0 0 30 30;" xml:space="preserve">
<g id="Sun_Light">
</g>
<g id="Sunglasses">
</g>
<g id="T-Shirt_1">
</g>
<g id="T-Shirt_2">
</g>
<g id="Mini_Dress">
	<g>
		<g>
			<path d="M15,30c-7.398,0-10.557-1.244-10.688-1.297c-0.132-0.053-0.235-0.16-0.283-0.294c-0.048-0.134-0.037-0.282,0.03-0.407
				l4.679-8.675c0.217-0.451,0.214-0.7,0.206-1.366l-0.003-0.438c0-1.73-0.248-2.702-0.983-5.585
				c-0.358-1.405-0.463-2.426-0.36-3.394C7.676,7.797,7.716,7,7.716,6.174c0-1.876-0.213-3.652-0.555-4.636
				C7.117,1.411,7.126,1.271,7.186,1.15C7.254,0.992,7.288,0.916,7.33,0.847C7.641,0.325,8.214,0,8.824,0h0.618
				c0.202,0,0.384,0.122,0.462,0.308C11.576,4.334,14.138,6.708,15,7.426c0.862-0.721,3.43-3.104,5.097-7.118
				C20.174,0.122,20.356,0,20.559,0h0.618c0.61,0,1.183,0.325,1.495,0.848c0.041,0.068,0.075,0.145,0.107,0.221
				c0.06,0.121,0.105,0.342,0.061,0.469c-0.342,0.983-0.555,2.76-0.555,4.636c0,0.826,0.04,1.624,0.118,2.37
				c0.103,0.967-0.002,1.988-0.339,3.31c-0.756,2.967-1.004,3.939-1.004,5.669l-0.003,0.438c-0.008,0.666-0.012,0.915,0.216,1.386
				l4.669,8.655c0.067,0.125,0.079,0.273,0.03,0.407c-0.048,0.134-0.151,0.241-0.283,0.294C25.557,28.756,22.398,30,15,30z
				 M5.225,27.949C6.392,28.288,9.504,29,15,29s8.608-0.712,9.775-1.051l-4.395-8.148c-0.34-0.703-0.335-1.136-0.326-1.854
				l0.003-0.426c0-1.855,0.276-2.938,1.014-5.833c0.328-1.285,0.424-2.197,0.335-3.041c-0.083-0.781-0.124-1.613-0.124-2.475
				c0-1.899,0.204-3.66,0.548-4.775c-0.006-0.013-0.012-0.026-0.019-0.038C21.68,1.138,21.436,1,21.176,1h-0.287
				c-2.14,4.928-5.453,7.367-5.596,7.47c-0.176,0.127-0.411,0.127-0.587,0C14.564,8.367,11.251,5.928,9.111,1H8.824
				C8.564,1,8.32,1.138,8.188,1.36C8.18,1.373,8.174,1.386,8.168,1.399c0.345,1.115,0.548,2.876,0.548,4.775
				c0,0.861-0.042,1.693-0.124,2.474C8.503,9.493,8.6,10.405,8.906,11.606c0.759,2.978,1.035,4.061,1.035,5.916l0.003,0.426
				c0.009,0.718,0.015,1.15-0.315,1.833L5.225,27.949z"/>
		</g>
		<g>
			<path d="M15,20c-2.739,0-5.061-0.46-5.707-0.602c-0.27-0.059-0.441-0.325-0.382-0.595c0.059-0.27,0.327-0.443,0.595-0.382
				C10.128,18.557,12.361,19,15,19c2.2,0,4.205-0.315,5.5-0.58c0.27-0.054,0.535,0.119,0.59,0.39s-0.119,0.535-0.39,0.59
				C19.36,19.674,17.283,20,15,20z"/>
		</g>
		<g>
			<path d="M15,18c-2.278,0-4.34-0.321-5.669-0.59c-0.271-0.055-0.446-0.319-0.391-0.589c0.055-0.271,0.319-0.448,0.589-0.391
				C10.813,16.69,12.805,17,15,17c2.311,0,4.419-0.357,5.471-0.57c0.273-0.054,0.534,0.121,0.589,0.391
				c0.055,0.271-0.12,0.534-0.391,0.589C19.581,17.63,17.397,18,15,18z"/>
		</g>
	</g>
</g>
<g id="Flip-Flops">
</g>
<g id="Temperature">
</g>
<g id="Hot_Temperature">
</g>
<g id="Ice_Lolly">
</g>
<g id="Icecream">
</g>
<g id="Limonade_1">
</g>
<g id="Limonade_2">
</g>
<g id="Hat">
</g>
<g id="Straw_Hat">
</g>
<g id="Deckchair">
</g>
<g id="Sunshade">
</g>
<g id="Suncream">
</g>
<g id="Suntan_Oil">
</g>
<g id="Swimming_Trunks">
</g>
<g id="Bikini">
</g>
<g id="Pool">
</g>
<g id="Pool_Ladder">
</g>
<g id="Grill">
</g>
<g id="Kite_1">
</g>
<g id="Kite_2">
</g>
<g id="Badminton">
</g>
<g id="Cooler">
</g>
<g id="Strand_Bag">
</g>
<g id="Towel">
</g>
<g id="Strand_Ball">
</g>
<g id="Beach_Sign">
</g>
<g id="Toos">
</g>
<g id="Bucket">
</g>
<g id="Sand_Castle">
</g>
<g id="Shell_1">
</g>
<g id="Shell_2">
</g>
<g id="Surf_Board">
</g>
<g id="Float">
</g>
<g id="Vacation_Photo">
</g>
<g id="Summer_Time">
</g>
<g id="Boat">
</g>
<g id="Lifebuoy">
</g>
<g id="Lighthouse">
</g>
<g id="Sunset">
</g>
<g id="Dolphin">
</g>
<g id="Starfish">
</g>
<g id="Diving_Mask">
</g>
<g id="Sailboat">
</g>
<g id="Captin_Hat">
</g>
<g id="Eudder">
</g>
</svg>
