<?xml version="1.0" encoding="iso-8859-1"?>
<!-- Generator: Adobe Illustrator 19.2.1, SVG Export Plug-In . SVG Version: 6.00 Build 0)  -->
<svg version="1.1" xmlns="http://www.w3.org/2000/svg" xmlns:xlink="http://www.w3.org/1999/xlink" x="0px" y="0px"
	 viewBox="0 0 30 30" style="enable-background:new 0 0 30 30;" xml:space="preserve">
<g id="Sun_Light">
</g>
<g id="Sunglasses">
</g>
<g id="T-Shirt_1">
</g>
<g id="T-Shirt_2">
</g>
<g id="Mini_Dress">
	<g>
		<path d="M7.716,6.174c0,0.826-0.04,1.624-0.118,2.369c-0.103,0.968,0.002,1.989,0.36,3.394c0.553,2.17,0.83,3.258,0.934,4.4
			c0.074-0.017,0.151-0.022,0.229-0.003C9.148,16.341,11.827,17,15,17c3.146,0,5.854-0.659,5.88-0.666
			c0.078-0.02,0.155-0.015,0.228,0.001c0.104-1.144,0.385-2.247,0.954-4.482c0.337-1.32,0.441-2.34,0.34-3.311
			c-0.078-0.736-0.118-1.533-0.118-2.369c0-1.876,0.212-3.653,0.555-4.636c0.044-0.127-0.002-0.35-0.062-0.471
			c-0.032-0.075-0.064-0.149-0.106-0.22C22.357,0.325,21.785,0,21.177,0h-0.618c-0.202,0-0.384,0.122-0.462,0.308
			C18.429,4.323,15.861,6.705,15,7.426c-0.861-0.719-3.424-3.092-5.096-7.118C9.826,0.122,9.644,0,9.441,0H8.824
			C8.214,0,7.641,0.325,7.33,0.847C7.288,0.916,7.254,0.992,7.186,1.15c-0.06,0.121-0.069,0.261-0.025,0.388
			C7.503,2.521,7.716,4.298,7.716,6.174z"/>
		<path d="M25.94,28.002l-4.669-8.655c-0.017-0.035-0.024-0.063-0.039-0.095c-0.036,0.02-0.071,0.043-0.112,0.053
			C21.006,19.333,18.273,20,15,20c-3.301,0-6.008-0.667-6.121-0.695c-0.041-0.01-0.074-0.033-0.11-0.052
			c-0.012,0.026-0.017,0.048-0.03,0.075L4.06,28.002c-0.067,0.125-0.079,0.273-0.03,0.406c0.048,0.134,0.151,0.241,0.283,0.295
			C4.443,28.756,7.602,30,15,30s10.557-1.244,10.687-1.297c0.132-0.054,0.234-0.161,0.283-0.294
			C26.019,28.275,26.008,28.127,25.94,28.002z"/>
		<path d="M8.937,17.319c0.001,0.068,0.004,0.132,0.004,0.203l0.003,0.438c0.002,0.141,0.002,0.256,0.002,0.366
			c0.057-0.006,0.116-0.007,0.175,0.008C9.148,18.341,11.827,19,15,19c3.146,0,5.854-0.659,5.88-0.666
			c0.059-0.015,0.117-0.014,0.174-0.008c-0.001-0.109,0-0.223,0.001-0.364l0.004-0.44c0-0.071,0.003-0.134,0.004-0.203
			C20.642,17.418,18.058,18,15,18C11.919,18,9.358,17.419,8.937,17.319z"/>
	</g>
</g>
<g id="Flip-Flops">
</g>
<g id="Temperature">
</g>
<g id="Hot_Temperature">
</g>
<g id="Ice_Lolly">
</g>
<g id="Icecream">
</g>
<g id="Limonade_1">
</g>
<g id="Limonade_2">
</g>
<g id="Hat">
</g>
<g id="Straw_Hat">
</g>
<g id="Deckchair">
</g>
<g id="Sunshade">
</g>
<g id="Suncream">
</g>
<g id="Suntan_Oil">
</g>
<g id="Swimming_Trunks">
</g>
<g id="Bikini">
</g>
<g id="Pool">
</g>
<g id="Pool_Ladder">
</g>
<g id="Grill">
</g>
<g id="Kite_1">
</g>
<g id="Kite_2">
</g>
<g id="Badminton">
</g>
<g id="Cooler">
</g>
<g id="Strand_Bag">
</g>
<g id="Towel">
</g>
<g id="Strand_Ball">
</g>
<g id="Beach_Sign">
</g>
<g id="Toos">
</g>
<g id="Bucket">
</g>
<g id="Sand_Castle">
</g>
<g id="Shell_1">
</g>
<g id="Shell_2">
</g>
<g id="Surf_Board">
</g>
<g id="Float">
</g>
<g id="Vacation_Photo">
</g>
<g id="Summer_Time">
</g>
<g id="Boat">
</g>
<g id="Lifebuoy">
</g>
<g id="Lighthouse">
</g>
<g id="Sunset">
</g>
<g id="Dolphin">
</g>
<g id="Starfish">
</g>
<g id="Diving_Mask">
</g>
<g id="Sailboat">
</g>
<g id="Captin_Hat">
</g>
<g id="Eudder">
</g>
</svg>
