<?xml version="1.0" encoding="iso-8859-1"?>
<!-- Generator: Adobe Illustrator 19.2.1, SVG Export Plug-In . SVG Version: 6.00 Build 0)  -->
<svg version="1.1" xmlns="http://www.w3.org/2000/svg" xmlns:xlink="http://www.w3.org/1999/xlink" x="0px" y="0px"
	 viewBox="0 0 30 30" style="enable-background:new 0 0 30 30;" xml:space="preserve">
<g id="Flag">
</g>
<g id="Umbrella">
</g>
<g id="Briefcase">
</g>
<g id="Box">
</g>
<g id="Magnet">
</g>
<g id="Percent">
</g>
<g id="Rocket">
</g>
<g id="Share">
</g>
<g id="Transmitter">
</g>
<g id="Record_2">
</g>
<g id="Record_1">
</g>
<g id="Anchor">
</g>
<g id="Airplane">
</g>
<g id="Car">
</g>
<g id="Newsfeed">
</g>
<g id="Wifi_Tethering">
</g>
<g id="No_Wifi_Tethering">
</g>
<g id="Bar_Chart_2">
</g>
<g id="Shop">
</g>
<g id="Alarm">
</g>
<g id="Sim_Card">
</g>
<g id="Radar">
</g>
<g id="Hand_2">
</g>
<g id="Palette">
</g>
<g id="Cake">
</g>
<g id="Blende">
</g>
<g id="Feather_Pen">
</g>
<g id="Ticket">
</g>
<g id="Medal">
</g>
<g id="Mouse_Pointer_1">
	<g>
		<path d="M15.011,30c-0.188,0-0.369-0.107-0.453-0.29l-3.468-7.474l-5.204,6.32C5.752,28.721,5.53,28.78,5.331,28.71
			C5.133,28.639,5,28.45,5,28.239V0.5c0-0.202,0.122-0.385,0.309-0.462c0.187-0.076,0.402-0.035,0.545,0.108l19,19
			c0.143,0.143,0.186,0.358,0.108,0.545S24.702,20,24.5,20h-8.063l3.456,7.441c0.058,0.124,0.063,0.265,0.013,0.392
			c-0.049,0.127-0.147,0.229-0.273,0.281l-4.429,1.848C15.141,29.987,15.075,30,15.011,30z M11.209,20.805
			c0.021,0,0.042,0.001,0.063,0.004c0.171,0.021,0.317,0.13,0.39,0.286l3.6,7.759l3.505-1.462L15.2,19.711
			c-0.072-0.155-0.061-0.336,0.031-0.479C15.323,19.087,15.482,19,15.653,19h7.64L6,1.707v25.139l4.823-5.858
			C10.919,20.871,11.061,20.805,11.209,20.805z"/>
	</g>
</g>
<g id="Mouse_Pointer_2">
</g>
<g id="Fingerprint">
</g>
<g id="Earth">
</g>
</svg>
