<?xml version="1.0" encoding="iso-8859-1"?>
<!-- Generator: Adobe Illustrator 19.2.1, SVG Export Plug-In . SVG Version: 6.00 Build 0)  -->
<svg version="1.1" xmlns="http://www.w3.org/2000/svg" xmlns:xlink="http://www.w3.org/1999/xlink" x="0px" y="0px"
	 viewBox="0 0 30 30" style="enable-background:new 0 0 30 30;" xml:space="preserve">
<g id="Flag">
</g>
<g id="Umbrella">
</g>
<g id="Briefcase">
</g>
<g id="Box">
</g>
<g id="Magnet">
</g>
<g id="Percent">
</g>
<g id="Rocket">
</g>
<g id="Share">
</g>
<g id="Transmitter">
</g>
<g id="Record_2">
</g>
<g id="Record_1">
</g>
<g id="Anchor">
</g>
<g id="Airplane">
</g>
<g id="Car">
</g>
<g id="Newsfeed">
</g>
<g id="Wifi_Tethering">
</g>
<g id="No_Wifi_Tethering">
</g>
<g id="Bar_Chart_2">
</g>
<g id="Shop">
</g>
<g id="Alarm">
</g>
<g id="Sim_Card">
</g>
<g id="Radar">
</g>
<g id="Hand_2">
</g>
<g id="Palette">
</g>
<g id="Cake">
</g>
<g id="Blende">
</g>
<g id="Feather_Pen">
</g>
<g id="Ticket">
</g>
<g id="Medal">
</g>
<g id="Mouse_Pointer_1">
</g>
<g id="Mouse_Pointer_2">
	<g>
		<path d="M4.5,30c-0.058,0-0.115-0.01-0.171-0.03C4.131,29.897,4,29.71,4,29.5v-29c0-0.202,0.122-0.385,0.309-0.462
			C4.496-0.038,4.71,0.003,4.854,0.146l20,20c0.143,0.143,0.186,0.358,0.108,0.545C24.885,20.878,24.702,21,24.5,21H12.298
			l-7.416,8.821C4.786,29.937,4.645,30,4.5,30z M5,1.707v26.421l6.515-7.75C11.57,20.161,11.766,20,12,20h0.062
			c0.002,0,0.003,0,0.007,0h11.224L5,1.707z"/>
	</g>
</g>
<g id="Fingerprint">
</g>
<g id="Earth">
</g>
</svg>
