<?xml version="1.0" encoding="iso-8859-1"?>
<!-- Generator: Adobe Illustrator 19.2.1, SVG Export Plug-In . SVG Version: 6.00 Build 0)  -->
<svg version="1.1" xmlns="http://www.w3.org/2000/svg" xmlns:xlink="http://www.w3.org/1999/xlink" x="0px" y="0px"
	 viewBox="0 0 30 30" style="enable-background:new 0 0 30 30;" xml:space="preserve">
<g id="Credit_Card">
</g>
<g id="Banknote">
</g>
<g id="Wallet">
</g>
<g id="Compass">
</g>
<g id="Camera_1">
</g>
<g id="Photo">
</g>
<g id="Picture">
</g>
<g id="Camera_2">
</g>
<g id="No_Camera">
</g>
<g id="Video">
</g>
<g id="Audio">
</g>
<g id="Microphone_1">
</g>
<g id="Microphone_2">
</g>
<g id="No_Microphone">
</g>
<g id="Shopping_Cart">
</g>
<g id="Add_Shopping_Cart">
</g>
<g id="Remove_Shopping_Cart">
</g>
<g id="Shopping_Basket">
</g>
<g id="Jing-Jang">
</g>
<g id="Leaf">
</g>
<g id="Glass">
</g>
<g id="Cup">
</g>
<g id="Mug">
	<g>
		<g>
			<path d="M18.389,24.979c-0.19,0-0.372-0.108-0.456-0.292c-0.114-0.251-0.003-0.548,0.248-0.663
				C21.771,22.388,24,19.155,24,15.586v-2.608c0-0.551-0.449-1-1-1H6c-0.551,0-1,0.449-1,1v2.608c0,3.59,2.2,6.822,5.742,8.437
				c0.251,0.115,0.362,0.411,0.248,0.663c-0.114,0.251-0.41,0.362-0.663,0.248C6.424,23.154,4,19.573,4,15.586v-2.608
				c0-1.103,0.897-2,2-2h17c1.103,0,2,0.897,2,2v2.608c0,3.965-2.454,7.547-6.404,9.347C18.529,24.964,18.458,24.979,18.389,24.979z
				"/>
		</g>
		<g>
			<path d="M24.373,28H4.627c-1.345,0-2.489-0.935-3.052-1.492l-1.454-1.681c-0.128-0.148-0.158-0.357-0.076-0.535S0.304,24,0.5,24
				h28c0.196,0,0.373,0.114,0.455,0.292s0.052,0.387-0.076,0.535l-1.427,1.653C26.862,27.065,25.718,28,24.373,28z M1.592,25
				l0.713,0.826C2.732,26.247,3.64,27,4.627,27h19.746c0.987,0,1.895-0.753,2.348-1.202L27.409,25H1.592z"/>
		</g>
		<g>
			<path d="M21.487,23.044c-0.234,0-0.443-0.165-0.49-0.403c-0.053-0.271,0.123-0.534,0.394-0.587l0.447-0.088
				C23.832,21.586,29,20.028,29,17.413c0-0.858-0.235-1.444-0.7-1.744c-1-0.646-2.965,0.004-3.637,0.308
				c-0.252,0.112-0.547,0.003-0.662-0.248c-0.114-0.251-0.003-0.547,0.248-0.662c0.119-0.054,2.924-1.31,4.591-0.239
				c0.77,0.495,1.16,1.365,1.16,2.585c0,3.974-7.646,5.473-7.972,5.535l-0.443,0.087C21.552,23.042,21.519,23.044,21.487,23.044z"/>
		</g>
		<g>
			<path d="M18.285,10c-0.169,0-0.335-0.086-0.429-0.242c-0.763-1.266-0.763-3.249,0-4.515c0.571-0.947,0.571-2.541,0.001-3.485
				c-0.143-0.236-0.066-0.544,0.17-0.687c0.236-0.143,0.543-0.067,0.687,0.17c0.764,1.266,0.764,3.249,0,4.515
				c-0.57,0.947-0.57,2.541-0.001,3.485c0.143,0.237,0.066,0.544-0.17,0.687C18.461,9.977,18.373,10,18.285,10z"/>
		</g>
		<g>
			<path d="M14.785,10c-0.169,0-0.335-0.086-0.429-0.242c-0.763-1.266-0.763-3.249,0-4.515c0.571-0.947,0.571-2.541,0.001-3.485
				c-0.143-0.236-0.066-0.544,0.17-0.687c0.237-0.143,0.543-0.067,0.687,0.17c0.764,1.266,0.764,3.249,0,4.515
				c-0.57,0.947-0.57,2.541-0.001,3.485c0.143,0.237,0.066,0.544-0.17,0.687C14.961,9.977,14.873,10,14.785,10z"/>
		</g>
		<g>
			<path d="M11.285,10c-0.169,0-0.335-0.086-0.429-0.242c-0.763-1.266-0.763-3.249,0-4.515c0.571-0.947,0.571-2.541,0.001-3.485
				c-0.143-0.236-0.066-0.544,0.17-0.687c0.237-0.143,0.542-0.067,0.687,0.17c0.764,1.266,0.764,3.249,0,4.515
				c-0.57,0.947-0.57,2.541-0.001,3.485c0.143,0.237,0.066,0.544-0.17,0.687C11.461,9.977,11.373,10,11.285,10z"/>
		</g>
	</g>
</g>
<g id="Refresh">
</g>
<g id="Login">
</g>
<g id="Logout">
</g>
<g id="Flowchart">
</g>
<g id="Pin_1">
</g>
<g id="Pin_2">
</g>
<g id="User_1">
</g>
<g id="User_2">
</g>
<g id="Users">
</g>
<g id="Adjustments">
</g>
<g id="Type">
</g>
<g id="Format_Size">
</g>
<g id="Menu_1">
</g>
<g id="Other">
</g>
<g id="Flash">
</g>
<g id="No_Flash">
</g>
<g id="Switch_Button_1">
</g>
<g id="Switch_Button_2">
</g>
<g id="Cut">
</g>
<g id="Crop">
</g>
<g id="Sun">
</g>
<g id="USB">
</g>
<g id="Pie_Chart_1">
</g>
<g id="Pie_Chart_2">
</g>
<g id="Line_Chart">
</g>
<g id="Bar_Chart">
</g>
<g id="Target">
</g>
<g id="Flashlight">
</g>
<g id="USB_Device">
</g>
<g id="Eject">
</g>
<g id="Lightbulb">
</g>
<g id="Information">
</g>
<g id="Deactivate_Protection">
</g>
<g id="Active_Protection">
</g>
<g id="Bug">
</g>
<g id="Protection">
</g>
<g id="Phone">
</g>
<g id="List">
</g>
<g id="Plugin_1">
</g>
<g id="Bookmarrk">
</g>
<g id="Handshake">
</g>
<g id="Minimize">
</g>
<g id="Maximize">
</g>
<g id="Diamond">
</g>
<g id="Stop">
</g>
<g id="Shuffle">
</g>
<g id="Undo">
</g>
<g id="Upgrade">
</g>
<g id="Coding">
</g>
<g id="Syncronizaion">
</g>
<g id="Radio">
</g>
<g id="Presentation">
</g>
<g id="Door">
</g>
<g id="Thumbs_Up">
</g>
<g id="Thumbs_Down">
</g>
<g id="Keyboard">
</g>
<g id="_x33_D_Cube">
</g>
<g id="Signal">
</g>
<g id="Dice">
</g>
<g id="Upload">
</g>
<g id="Download">
</g>
<g id="Plugin_2">
</g>
<g id="Shopping_Bag">
</g>
<g id="Lifebelt">
</g>
<g id="Glasses">
</g>
<g id="Parabolic_Antenna">
</g>
<g id="Loudspeaker">
</g>
<g id="Play">
</g>
<g id="Pause">
</g>
<g id="Signpost">
</g>
<g id="Bluetooth">
</g>
<g id="Present">
</g>
<g id="Ruler">
</g>
<g id="Connection">
</g>
<g id="Money">
</g>
<g id="Paper_Plane">
</g>
<g id="Wallet_2">
</g>
</svg>
