<?xml version="1.0" encoding="iso-8859-1"?>
<!-- Generator: Adobe Illustrator 19.2.1, SVG Export Plug-In . SVG Version: 6.00 Build 0)  -->
<svg version="1.1" xmlns="http://www.w3.org/2000/svg" xmlns:xlink="http://www.w3.org/1999/xlink" x="0px" y="0px"
	 viewBox="0 0 30 30" style="enable-background:new 0 0 30 30;" xml:space="preserve">
<g id="Credit_Card">
</g>
<g id="Banknote">
</g>
<g id="Wallet">
</g>
<g id="Compass">
</g>
<g id="Camera_1">
</g>
<g id="Photo">
</g>
<g id="Picture">
</g>
<g id="Camera_2">
</g>
<g id="No_Camera">
</g>
<g id="Video">
</g>
<g id="Audio">
</g>
<g id="Microphone_1">
</g>
<g id="Microphone_2">
</g>
<g id="No_Microphone">
</g>
<g id="Shopping_Cart">
</g>
<g id="Add_Shopping_Cart">
</g>
<g id="Remove_Shopping_Cart">
</g>
<g id="Shopping_Basket">
</g>
<g id="Jing-Jang">
</g>
<g id="Leaf">
</g>
<g id="Glass">
</g>
<g id="Cup">
</g>
<g id="Mug">
	<g>
		<path d="M28.5,24h-8.23c0.446-0.295,0.864-0.616,1.253-0.96c0.02-0.001,0.04-0.002,0.061-0.006l0.444-0.087
			C22.354,22.886,30,21.387,30,17.413c0-1.221-0.391-2.09-1.16-2.585c-1.159-0.745-2.866-0.365-3.84-0.046v-1.803
			c0-1.103-0.897-2-2-2H6c-1.103,0-2,0.897-2,2v2.608C4,18.969,5.749,22.054,8.661,24H0.5c-0.196,0-0.373,0.114-0.455,0.292
			s-0.052,0.387,0.076,0.535l1.454,1.682C2.138,27.065,3.282,28,4.627,28h19.746c1.344,0,2.488-0.935,3.079-1.521l1.427-1.653
			c0.127-0.147,0.157-0.356,0.076-0.534C28.873,24.114,28.695,24,28.5,24z M28.299,15.669C28.771,15.972,29,16.543,29,17.413
			c0,2.273-3.906,3.747-6.237,4.343c1.375-1.69,2.168-3.738,2.227-5.913C25.832,15.524,27.424,15.106,28.299,15.669z"/>
		<path d="M17.855,9.758C17.95,9.914,18.115,10,18.284,10c0.088,0,0.178-0.023,0.258-0.072c0.236-0.143,0.313-0.45,0.171-0.686
			c-0.569-0.944-0.569-2.539,0.002-3.486c0.762-1.266,0.762-3.249,0-4.514c-0.144-0.237-0.451-0.312-0.687-0.17
			c-0.236,0.143-0.313,0.45-0.171,0.686c0.569,0.944,0.569,2.539-0.002,3.486C17.094,6.509,17.094,8.492,17.855,9.758z"/>
		<path d="M14.356,9.758C14.45,9.914,14.615,10,14.785,10c0.088,0,0.177-0.023,0.258-0.072c0.236-0.143,0.313-0.45,0.17-0.687
			c-0.569-0.944-0.569-2.538,0.001-3.485c0.764-1.266,0.764-3.249,0-4.515c-0.144-0.237-0.45-0.313-0.687-0.17
			c-0.236,0.143-0.313,0.45-0.17,0.687c0.569,0.944,0.569,2.538-0.001,3.485C13.593,6.509,13.593,8.492,14.356,9.758z"/>
		<path d="M10.856,9.758C10.95,9.914,11.115,10,11.285,10c0.088,0,0.177-0.023,0.258-0.072c0.236-0.143,0.313-0.45,0.17-0.687
			c-0.569-0.944-0.569-2.538,0.001-3.485c0.764-1.266,0.764-3.249,0-4.515c-0.144-0.237-0.449-0.313-0.687-0.17
			c-0.236,0.143-0.313,0.45-0.17,0.687c0.569,0.944,0.569,2.538-0.001,3.485C10.093,6.509,10.093,8.492,10.856,9.758z"/>
	</g>
</g>
<g id="Refresh">
</g>
<g id="Login">
</g>
<g id="Logout">
</g>
<g id="Flowchart">
</g>
<g id="Pin_1">
</g>
<g id="Pin_2">
</g>
<g id="User_1">
</g>
<g id="User_2">
</g>
<g id="Users">
</g>
<g id="Adjustments">
</g>
<g id="Type">
</g>
<g id="Format_Size">
</g>
<g id="Menu_1">
</g>
<g id="Other">
</g>
<g id="Flash">
</g>
<g id="No_Flash">
</g>
<g id="Switch_Button_1">
</g>
<g id="Switch_Button_2">
</g>
<g id="Cut">
</g>
<g id="Crop">
</g>
<g id="Sun">
</g>
<g id="USB">
</g>
<g id="Pie_Chart_1">
</g>
<g id="Pie_Chart_2">
</g>
<g id="Line_Chart">
</g>
<g id="Bar_Chart">
</g>
<g id="Target">
</g>
<g id="Flashlight">
</g>
<g id="USB_Device">
</g>
<g id="Eject">
</g>
<g id="Lightbulb">
</g>
<g id="Information">
</g>
<g id="Deactivate_Protection">
</g>
<g id="Active_Protection">
</g>
<g id="Bug">
</g>
<g id="Protection">
</g>
<g id="Phone">
</g>
<g id="List">
</g>
<g id="Plugin_1">
</g>
<g id="Bookmarrk">
</g>
<g id="Handshake">
</g>
<g id="Minimize">
</g>
<g id="Maximize">
</g>
<g id="Diamond">
</g>
<g id="Stop">
</g>
<g id="Shuffle">
</g>
<g id="Undo">
</g>
<g id="Upgrade">
</g>
<g id="Coding">
</g>
<g id="Syncronizaion">
</g>
<g id="Radio">
</g>
<g id="Presentation">
</g>
<g id="Door">
</g>
<g id="Thumbs_Up">
</g>
<g id="Thumbs_Down">
</g>
<g id="Keyboard">
</g>
<g id="_x33_D_Cube">
</g>
<g id="Signal">
</g>
<g id="Dice">
</g>
<g id="Upload">
</g>
<g id="Download">
</g>
<g id="Plugin_2">
</g>
<g id="Shopping_Bag">
</g>
<g id="Lifebelt">
</g>
<g id="Glasses">
</g>
<g id="Parabolic_Antenna">
</g>
<g id="Loudspeaker">
</g>
<g id="Play">
</g>
<g id="Pause">
</g>
<g id="Signpost">
</g>
<g id="Bluetooth">
</g>
<g id="Present">
</g>
<g id="Ruler">
</g>
<g id="Connection">
</g>
<g id="Money">
</g>
<g id="Paper_Plane">
</g>
<g id="Wallet_2">
</g>
</svg>
