<?xml version="1.0" encoding="iso-8859-1"?>
<!-- Generator: Adobe Illustrator 19.2.1, SVG Export Plug-In . SVG Version: 6.00 Build 0)  -->
<svg version="1.1" xmlns="http://www.w3.org/2000/svg" xmlns:xlink="http://www.w3.org/1999/xlink" x="0px" y="0px"
	 viewBox="0 0 24 24" style="enable-background:new 0 0 24 24;" xml:space="preserve">
<g id="Credit_Card">
</g>
<g id="Banknote">
</g>
<g id="Wallet">
</g>
<g id="Compass">
</g>
<g id="Camera_1">
</g>
<g id="Photo">
</g>
<g id="Picture">
</g>
<g id="Camera_2">
</g>
<g id="No_Camera">
</g>
<g id="Video">
</g>
<g id="Audio">
</g>
<g id="Microphone_1">
</g>
<g id="Microphone_2">
</g>
<g id="No_Microphone">
</g>
<g id="Shopping_Cart">
</g>
<g id="Add_Shopping_Cart">
</g>
<g id="Remove_Shopping_Cart">
</g>
<g id="Shopping_Basket">
</g>
<g id="Jing-Jang">
</g>
<g id="Leaf">
</g>
<g id="Glass">
</g>
<g id="Cup">
</g>
<g id="Mug">
	<g>
		<path d="M17.373,18.033l0.221-0.043C17.854,17.94,24,16.735,24,13.499c0-1.006-0.325-1.725-0.968-2.138
			c-0.928-0.598-2.228-0.336-3.032-0.08v-0.782c0-0.827-0.673-1.5-1.5-1.5h-14c-0.827,0-1.5,0.673-1.5,1.5v1
			c0,2.983,1.391,5.72,3.695,7.5H0.5c-0.202,0-0.385,0.122-0.462,0.309c-0.078,0.187-0.035,0.402,0.108,0.545l1.121,1.121
			c0.662,0.661,1.541,1.025,2.475,1.025h15.515c0.921,0,1.823-0.374,2.475-1.025l1.121-1.121c0.143-0.143,0.186-0.358,0.108-0.545
			s-0.26-0.309-0.462-0.309h-6.196C16.688,18.703,17.043,18.38,17.373,18.033z M22.491,12.203C22.834,12.422,23,12.847,23,13.499
			c0,1.663-2.78,2.776-4.617,3.278c0.872-1.302,1.413-2.812,1.558-4.419C20.573,12.118,21.835,11.778,22.491,12.203z"/>
		<path d="M14.61,7.812c0.1,0.124,0.244,0.188,0.391,0.188c0.11,0,0.221-0.036,0.313-0.11c0.216-0.172,0.25-0.487,0.078-0.703
			c-0.516-0.643-0.516-1.73,0.002-2.375c0.813-1.016,0.813-2.607,0-3.623c-0.175-0.216-0.489-0.249-0.703-0.078
			c-0.216,0.172-0.25,0.487-0.078,0.703c0.516,0.643,0.516,1.73-0.002,2.375C13.797,5.204,13.797,6.796,14.61,7.812z"/>
		<path d="M11.607,7.812c0.099,0.124,0.244,0.188,0.391,0.188c0.109,0,0.22-0.036,0.312-0.11c0.215-0.172,0.25-0.487,0.078-0.703
			c-0.515-0.643-0.515-1.73,0.001-2.375c0.814-1.016,0.814-2.607,0-3.623c-0.172-0.215-0.486-0.25-0.703-0.078
			c-0.216,0.172-0.25,0.487-0.078,0.703c0.515,0.643,0.515,1.73-0.001,2.375C10.793,5.204,10.793,6.796,11.607,7.812z"/>
		<path d="M8.611,7.812C8.71,7.935,8.855,7.999,9.002,7.999c0.109,0,0.22-0.036,0.312-0.11c0.216-0.172,0.25-0.487,0.078-0.703
			c-0.515-0.643-0.515-1.73,0.001-2.375c0.813-1.016,0.813-2.607,0-3.623C9.221,0.973,8.906,0.937,8.69,1.111
			C8.475,1.283,8.44,1.598,8.613,1.813c0.515,0.643,0.515,1.73-0.001,2.375C7.797,5.204,7.797,6.796,8.611,7.812z"/>
	</g>
</g>
<g id="Refresh">
</g>
<g id="Login">
</g>
<g id="Logout">
</g>
<g id="Flowchart">
</g>
<g id="Pin_1">
</g>
<g id="Pin_2">
</g>
<g id="User_1">
</g>
<g id="User_2">
</g>
<g id="Users">
</g>
<g id="Adjustments">
</g>
<g id="Type">
</g>
<g id="Format_Size">
</g>
<g id="Menu_1">
</g>
<g id="Other">
</g>
<g id="Flash">
</g>
<g id="No_Flash">
</g>
<g id="Switch_Button_1">
</g>
<g id="Switch_Button_2">
</g>
<g id="Cut">
</g>
<g id="Crop">
</g>
<g id="Sun">
</g>
<g id="USB">
</g>
<g id="Pie_Chart_1">
</g>
<g id="Pie_Chart_2">
</g>
<g id="Line_Chart">
</g>
<g id="Bar_Chart">
</g>
<g id="Target">
</g>
<g id="Flashlight">
</g>
<g id="USB_Device">
</g>
<g id="Eject">
</g>
<g id="Lightbulb">
</g>
<g id="Information">
</g>
<g id="Deactivate_Protection">
</g>
<g id="Active_Protection">
</g>
<g id="Bug">
</g>
<g id="Protection">
</g>
<g id="Phone">
</g>
<g id="List">
</g>
<g id="Plugin_1">
</g>
<g id="Bookmarrk">
</g>
<g id="Handshake">
</g>
<g id="Minimize">
</g>
<g id="Maximize">
</g>
<g id="Diamond">
</g>
<g id="Stop">
</g>
<g id="Shuffle">
</g>
<g id="Undo">
</g>
<g id="Upgrade">
</g>
<g id="Coding">
</g>
<g id="Syncronizaion">
</g>
<g id="Radio">
</g>
<g id="Presentation">
</g>
<g id="Door">
</g>
<g id="Thumbs_Up">
</g>
<g id="Thumbs_Down">
</g>
<g id="Keyboard">
</g>
<g id="_x33_D_Cube">
</g>
<g id="Signal">
</g>
<g id="Dice">
</g>
<g id="Upload">
</g>
<g id="Download">
</g>
<g id="Plugin_2">
</g>
<g id="Shopping_Bag">
</g>
<g id="Lifebelt">
</g>
<g id="Glasses">
</g>
<g id="Parabolic_Antenna">
</g>
<g id="Loudspeaker">
</g>
<g id="Play">
</g>
<g id="Pause">
</g>
<g id="Signpost">
</g>
<g id="Bluetooth">
</g>
<g id="Present">
</g>
<g id="Ruler">
</g>
<g id="Connection">
</g>
<g id="Money">
</g>
<g id="Paper_Plane">
</g>
<g id="Wallet_2">
</g>
</svg>
