<?xml version="1.0" encoding="iso-8859-1"?>
<!-- Generator: Adobe Illustrator 19.2.1, SVG Export Plug-In . SVG Version: 6.00 Build 0)  -->
<svg version="1.1" xmlns="http://www.w3.org/2000/svg" xmlns:xlink="http://www.w3.org/1999/xlink" x="0px" y="0px"
	 viewBox="0 0 30 30" style="enable-background:new 0 0 30 30;" xml:space="preserve">
<g id="Flag">
</g>
<g id="Umbrella">
</g>
<g id="Briefcase">
</g>
<g id="Box">
</g>
<g id="Magnet">
</g>
<g id="Percent">
</g>
<g id="Rocket">
</g>
<g id="Share">
</g>
<g id="Transmitter">
</g>
<g id="Record_2">
</g>
<g id="Record_1">
</g>
<g id="Anchor">
</g>
<g id="Airplane">
</g>
<g id="Car">
</g>
<g id="Newsfeed">
	<g>
		<path d="M0.5,0C0.224,0,0,0.224,0,0.5v5.043c0,0.276,0.224,0.5,0.5,0.5c12.934,0,23.457,10.522,23.457,23.457
			c0,0.276,0.224,0.5,0.5,0.5H29.5c0.276,0,0.5-0.224,0.5-0.5C30,13.233,16.767,0,0.5,0z"/>
		<path d="M0.5,10.087c-0.276,0-0.5,0.224-0.5,0.5v5.043c0,0.276,0.224,0.5,0.5,0.5c7.372,0,13.37,5.998,13.37,13.37
			c0,0.276,0.224,0.5,0.5,0.5h5.043c0.276,0,0.5-0.224,0.5-0.5C19.913,18.795,11.205,10.087,0.5,10.087z"/>
		<circle cx="4.5" cy="25.5" r="4.5"/>
	</g>
</g>
<g id="Wifi_Tethering">
</g>
<g id="No_Wifi_Tethering">
</g>
<g id="Bar_Chart_2">
</g>
<g id="Shop">
</g>
<g id="Alarm">
</g>
<g id="Sim_Card">
</g>
<g id="Radar">
</g>
<g id="Hand_2">
</g>
<g id="Palette">
</g>
<g id="Cake">
</g>
<g id="Blende">
</g>
<g id="Feather_Pen">
</g>
<g id="Ticket">
</g>
<g id="Medal">
</g>
<g id="Mouse_Pointer_1">
</g>
<g id="Mouse_Pointer_2">
</g>
<g id="Fingerprint">
</g>
<g id="Earth">
</g>
</svg>
