<?xml version="1.0" encoding="iso-8859-1"?>
<!-- Generator: Adobe Illustrator 19.2.1, SVG Export Plug-In . SVG Version: 6.00 Build 0)  -->
<svg version="1.1" xmlns="http://www.w3.org/2000/svg" xmlns:xlink="http://www.w3.org/1999/xlink" x="0px" y="0px"
	 viewBox="0 0 24 24" style="enable-background:new 0 0 24 24;" xml:space="preserve">
<g id="Pompkin">
</g>
<g id="Layer_10">
</g>
<g id="Bat">
</g>
<g id="Ghost">
</g>
<g id="Bone_Hand">
</g>
<g id="Tree_Ghost">
</g>
<g id="Gate">
</g>
<g id="Cemetery_1">
</g>
<g id="Cemetery_2">
</g>
<g id="Devil_x27_s_Fork">
</g>
<g id="Night_Candle">
	<path d="M22,17.5c0-1.378-1.122-2.5-2.5-2.5S17,16.121,17,17.5c0,0.565,0.195,1.081,0.513,1.5H15V9.966V8.5
		C15,7.673,14.327,7,13.5,7H11V6.933c0.803-0.19,1.539-0.811,1.886-1.649c0.386-0.933,0.188-1.918-0.532-2.638
		c-1.408-1.408-1.387-1.996-1.383-1.978c0.085-0.237-0.02-0.501-0.245-0.615c-0.227-0.113-0.501-0.042-0.642,0.169
		C10.068,0.246,9.687,0.82,8.567,2.749c-0.64,1.102-0.721,2.23-0.224,3.095C8.689,6.443,9.282,6.819,10,6.943V7H7.5
		C6.673,7,6,7.673,6,8.5v1.865V19H1.5C1.224,19,1,19.223,1,19.5C1,21.981,3.019,24,5.5,24h10c2.326,0,4.223-1.78,4.454-4.046
		C21.116,19.739,22,18.723,22,17.5z M7,8.5C7,8.224,7.224,8,7.5,8h6C13.776,8,14,8.224,14,8.5v1.289
		c-0.002,0.003-0.004,0.005-0.006,0.007c-0.05,0.061-0.105,0.123-0.15,0.168c-0.09-0.051-0.22-0.138-0.322-0.206
		C13.042,9.438,12.385,9,11.625,9c-0.821,0-1.196,0.906-1.559,1.783c-0.052,0.125-0.135,0.327-0.23,0.531
		C9.679,11.654,9.492,12,9.374,12c-0.209-0.066-0.463-0.99-0.571-1.384C8.575,9.784,8.36,9,7.687,9C7.55,9,7.429,9.025,7.317,9.065
		C7.278,9.079,7.246,9.102,7.209,9.12C7.142,9.153,7.075,9.184,7.017,9.225C7.012,9.229,7.005,9.231,7,9.235V8.5z M19.5,19
		c-0.827,0-1.5-0.673-1.5-1.5s0.673-1.5,1.5-1.5s1.5,0.673,1.5,1.5S20.327,19,19.5,19z"/>
</g>
<g id="Canlestick">
</g>
<g id="Black_Cat">
</g>
<g id="Witch_Cauldron">
</g>
<g id="Corn_Candy">
</g>
<g id="Layer_29">
</g>
<g id="Bones">
</g>
<g id="Witch_Broom">
</g>
<g id="Owl">
</g>
<g id="Scythe">
</g>
<g id="Grim_Reaper">
</g>
<g id="Coffin">
</g>
<g id="Dracula">
</g>
<g id="Frankenstein">
</g>
<g id="Layer_40">
</g>
<g id="Toilet_Paper">
</g>
<g id="Skull">
</g>
<g id="Skull_Cake">
</g>
<g id="Eyeball">
</g>
<g id="Castle">
</g>
<g id="Witch_x27_s_Hat">
</g>
<g id="Cobweb_1">
</g>
<g id="Cobweb_2">
</g>
<g id="Spider">
</g>
<g id="Full_Moon">
</g>
<g id="Crescent">
</g>
<g id="Crow">
</g>
<g id="Candy_Holder">
</g>
<g id="Bloody_Knife">
</g>
<g id="Bloody_Axe">
</g>
</svg>
