<?xml version="1.0" encoding="iso-8859-1"?>
<!-- Generator: Adobe Illustrator 19.2.1, SVG Export Plug-In . SVG Version: 6.00 Build 0)  -->
<svg version="1.1" xmlns="http://www.w3.org/2000/svg" xmlns:xlink="http://www.w3.org/1999/xlink" x="0px" y="0px"
	 viewBox="0 0 24 24" style="enable-background:new 0 0 24 24;" xml:space="preserve">
<g id="Credit_Card">
</g>
<g id="Banknote">
</g>
<g id="Wallet">
</g>
<g id="Compass">
</g>
<g id="Camera_1">
</g>
<g id="Photo">
</g>
<g id="Picture">
</g>
<g id="Camera_2">
</g>
<g id="No_Camera">
</g>
<g id="Video">
</g>
<g id="Audio">
</g>
<g id="Microphone_1">
</g>
<g id="Microphone_2">
</g>
<g id="No_Microphone">
	<g>
		<path d="M16,5.125V3.501c0-1.93-1.57-3.5-3.5-3.5h-2c-1.93,0-3.5,1.57-3.5,3.5V13.5c0,0.312,0.054,0.609,0.131,0.897L16,5.125z"/>
		<path d="M10.5,17h2c1.93,0,3.5-1.57,3.5-3.5V8.019l6.861-7.173c0.19-0.2,0.184-0.516-0.016-0.707s-0.516-0.183-0.707,0.016l-22,23
			c-0.191,0.199-0.184,0.517,0.016,0.707C0.251,23.954,0.375,24,0.5,24c0.132,0,0.263-0.052,0.361-0.154l5.714-5.974
			C7.364,18.56,8.373,19,9.5,19H11v4H7.5C7.224,23,7,23.224,7,23.5S7.224,24,7.5,24h8c0.276,0,0.5-0.224,0.5-0.5S15.776,23,15.5,23
			H12v-4h1.5c2.481,0,4.5-2.019,4.5-4.5v-5C18,9.224,17.776,9,17.5,9S17,9.224,17,9.5v5c0,1.93-1.57,3.5-3.5,3.5h-4
			c-0.859,0-1.63-0.329-2.237-0.847l0.977-1.021C8.85,16.662,9.629,17,10.5,17z"/>
		<path d="M6.142,15.431C6.059,15.133,6,14.825,6,14.5v-5C6,9.224,5.776,9,5.5,9S5,9.224,5,9.5v5c0,0.622,0.127,1.214,0.356,1.753
			L6.142,15.431z"/>
	</g>
</g>
<g id="Shopping_Cart">
</g>
<g id="Add_Shopping_Cart">
</g>
<g id="Remove_Shopping_Cart">
</g>
<g id="Shopping_Basket">
</g>
<g id="Jing-Jang">
</g>
<g id="Leaf">
</g>
<g id="Glass">
</g>
<g id="Cup">
</g>
<g id="Mug">
</g>
<g id="Refresh">
</g>
<g id="Login">
</g>
<g id="Logout">
</g>
<g id="Flowchart">
</g>
<g id="Pin_1">
</g>
<g id="Pin_2">
</g>
<g id="User_1">
</g>
<g id="User_2">
</g>
<g id="Users">
</g>
<g id="Adjustments">
</g>
<g id="Type">
</g>
<g id="Format_Size">
</g>
<g id="Menu_1">
</g>
<g id="Other">
</g>
<g id="Flash">
</g>
<g id="No_Flash">
</g>
<g id="Switch_Button_1">
</g>
<g id="Switch_Button_2">
</g>
<g id="Cut">
</g>
<g id="Crop">
</g>
<g id="Sun">
</g>
<g id="USB">
</g>
<g id="Pie_Chart_1">
</g>
<g id="Pie_Chart_2">
</g>
<g id="Line_Chart">
</g>
<g id="Bar_Chart">
</g>
<g id="Target">
</g>
<g id="Flashlight">
</g>
<g id="USB_Device">
</g>
<g id="Eject">
</g>
<g id="Lightbulb">
</g>
<g id="Information">
</g>
<g id="Deactivate_Protection">
</g>
<g id="Active_Protection">
</g>
<g id="Bug">
</g>
<g id="Protection">
</g>
<g id="Phone">
</g>
<g id="List">
</g>
<g id="Plugin_1">
</g>
<g id="Bookmarrk">
</g>
<g id="Handshake">
</g>
<g id="Minimize">
</g>
<g id="Maximize">
</g>
<g id="Diamond">
</g>
<g id="Stop">
</g>
<g id="Shuffle">
</g>
<g id="Undo">
</g>
<g id="Upgrade">
</g>
<g id="Coding">
</g>
<g id="Syncronizaion">
</g>
<g id="Radio">
</g>
<g id="Presentation">
</g>
<g id="Door">
</g>
<g id="Thumbs_Up">
</g>
<g id="Thumbs_Down">
</g>
<g id="Keyboard">
</g>
<g id="_x33_D_Cube">
</g>
<g id="Signal">
</g>
<g id="Dice">
</g>
<g id="Upload">
</g>
<g id="Download">
</g>
<g id="Plugin_2">
</g>
<g id="Shopping_Bag">
</g>
<g id="Lifebelt">
</g>
<g id="Glasses">
</g>
<g id="Parabolic_Antenna">
</g>
<g id="Loudspeaker">
</g>
<g id="Play">
</g>
<g id="Pause">
</g>
<g id="Signpost">
</g>
<g id="Bluetooth">
</g>
<g id="Present">
</g>
<g id="Ruler">
</g>
<g id="Connection">
</g>
<g id="Money">
</g>
<g id="Paper_Plane">
</g>
<g id="Wallet_2">
</g>
</svg>
