<?xml version="1.0" encoding="iso-8859-1"?>
<!-- Generator: Adobe Illustrator 19.2.1, SVG Export Plug-In . SVG Version: 6.00 Build 0)  -->
<svg version="1.1" xmlns="http://www.w3.org/2000/svg" xmlns:xlink="http://www.w3.org/1999/xlink" x="0px" y="0px"
	 viewBox="0 0 30 30" style="enable-background:new 0 0 30 30;" xml:space="preserve">
<g id="Man_1">
</g>
<g id="Woman_1">
</g>
<g id="Man_2">
</g>
<g id="Woman_2">
</g>
<g id="Bald_Man">
</g>
<g id="Man_Glasses">
</g>
<g id="Woman_Glasses">
</g>
<g id="Man_Beard">
</g>
<g id="Man_Cap">
</g>
<g id="Woman_Cap">
</g>
<g id="Man_3">
</g>
<g id="Woman_3">
</g>
<g id="Men_4">
</g>
<g id="Woman_4">
</g>
<g id="Business_Man_1">
</g>
<g id="Business_Woman_1">
</g>
<g id="Firefigyhter">
</g>
<g id="Policeman">
</g>
<g id="Criminal">
</g>
<g id="Prisoner">
</g>
<g id="Woodsman">
</g>
<g id="Dispatcher_1">
</g>
<g id="Dispatcher_2">
</g>
<g id="Soldier">
</g>
<g id="Astronaut">
</g>
<g id="Hipster_Guy">
</g>
<g id="Hipster_Girl">
</g>
<g id="Worker">
</g>
<g id="Old_Man">
</g>
<g id="Punk">
</g>
<g id="Diver">
</g>
<g id="Artist">
</g>
<g id="Dictator">
</g>
<g id="Man_Hat">
</g>
<g id="Woman_Hat">
</g>
<g id="Graduated_Man">
</g>
<g id="Graduated_Woman">
</g>
<g id="Avatar_Chef">
</g>
<g id="Waiter">
</g>
<g id="Waitress">
</g>
<g id="Bllboy">
</g>
<g id="Santa">
</g>
<g id="Doctor">
</g>
<g id="Nurse">
	<g>
		<g>
			<path d="M25,26c-0.068,0-0.138-0.014-0.205-0.044c-0.128-0.058-0.635-0.218-1.015-0.34c-0.203-0.064-0.373-0.119-0.445-0.145
				l-1.493-0.497c-0.633-0.221-1.5-0.951-1.668-1.096l-1.027-1.025c-0.195-0.195-0.195-0.512,0-0.707s0.512-0.195,0.707,0l1,1
				c0.4,0.342,0.997,0.771,1.311,0.882l1.494,0.497c0.075,0.026,0.235,0.078,0.426,0.139c0.562,0.18,0.971,0.313,1.121,0.38
				c0.252,0.113,0.364,0.409,0.251,0.661C25.373,25.891,25.19,26,25,26z"/>
		</g>
		<g>
			<path d="M5,26c-0.191,0-0.373-0.109-0.457-0.295c-0.113-0.252-0.001-0.548,0.251-0.661c0.149-0.067,0.559-0.2,1.121-0.38
				c0.191-0.061,0.352-0.112,0.419-0.136l1.507-0.503c0.308-0.107,0.905-0.537,1.332-0.904l0.973-0.975
				c0.195-0.195,0.512-0.195,0.707,0s0.195,0.512,0,0.707l-1,1c-0.195,0.17-1.063,0.9-1.689,1.118l-1.506,0.503
				c-0.065,0.022-0.235,0.077-0.438,0.142c-0.38,0.122-0.887,0.282-1.015,0.34C5.139,25.986,5.069,26,5,26z"/>
		</g>
		<g>
			<path d="M21.5,15.5c-0.166,0-0.327-0.083-0.421-0.23c-0.094-0.146-0.811-1.288-1.021-2.274c-2.615-0.056-5.29-0.602-6.455-1.499
				C12.6,13,10.326,13,9.5,13c-0.208,0.104-0.463,1.105-0.5,2.021c-0.007,0.165-0.095,0.316-0.235,0.404s-0.316,0.1-0.467,0.032
				C8.287,15.452,7.256,15,6.5,15C6.224,15,6,14.776,6,14.5S6.224,14,6.5,14c0.528,0,1.119,0.154,1.557,0.299
				C8.173,13.357,8.513,12,9.5,12c1.335,0,3.152-0.168,3.515-1.621c0.062-0.245,0.297-0.411,0.546-0.375
				C13.812,10.034,14,10.247,14,10.5c0.101,0.43,2.505,1.5,6.5,1.5c0.276,0,0.5,0.224,0.5,0.5c0,0.471,0.377,1.29,0.709,1.877
				C22.146,14.217,22.855,14,23.5,14c0.276,0,0.5,0.224,0.5,0.5S23.776,15,23.5,15c-0.653,0-1.515,0.328-1.792,0.455
				C21.641,15.485,21.57,15.5,21.5,15.5z"/>
		</g>
		<g>
			<path d="M14.948,25c-0.297,0-0.602-0.031-0.961-0.098c-0.142-0.024-0.285-0.059-0.428-0.096c-0.116-0.031-0.22-0.064-0.324-0.101
				c-2.24-0.708-4.222-2.661-5.18-5.064c-0.114,0.034-0.217,0.046-0.304,0.046c-0.998,0-1.75-1.366-1.75-3.179
				c0-0.272,0.08-0.987,0.115-1.28C6.065,15.075,6,14.813,6,14.5c0-2.11,0.732-4.068,2.176-5.818
				c0.176-0.213,0.49-0.244,0.704-0.067C9.093,8.79,9.124,9.105,8.948,9.318C7.655,10.885,7,12.628,7,14.5
				c0,0.267,0.084,0.472,0.085,0.474c0.033,0.08,0.047,0.171,0.037,0.256C7.074,15.618,7,16.309,7,16.509
				c0,1.415,0.532,2.179,0.75,2.179c0.025,0,0.095-0.029,0.196-0.139c0.121-0.132,0.304-0.188,0.476-0.15
				c0.174,0.039,0.315,0.167,0.369,0.337c0.753,2.375,2.62,4.346,4.756,5.021c0.095,0.032,0.18,0.06,0.266,0.083
				c0.109,0.027,0.228,0.058,0.35,0.079C14.466,23.975,14.713,24,14.948,24c0.276,0,0.5,0.224,0.5,0.5S15.224,25,14.948,25z"/>
		</g>
		<g>
			<path d="M14.948,25c-0.276,0-0.5-0.224-0.5-0.5s0.224-0.5,0.5-0.5c0.235,0,0.482-0.025,0.78-0.08
				c0.126-0.022,0.246-0.052,0.365-0.082c0.076-0.021,0.161-0.049,0.246-0.077c1.818-0.575,4.022-2.35,4.871-5.025
				c0.054-0.17,0.194-0.298,0.369-0.337c0.17-0.037,0.355,0.019,0.476,0.15c0.101,0.109,0.171,0.139,0.196,0.139
				c0.218,0,0.75-0.764,0.75-2.179c0-0.201-0.074-0.891-0.122-1.279c-0.011-0.088,0.002-0.178,0.039-0.26l0,0
				c0,0,0.083-0.205,0.083-0.47c0-2.049-0.77-4.063-2.169-5.671c-0.181-0.208-0.159-0.524,0.049-0.705
				c0.208-0.183,0.523-0.159,0.706,0.049C23.143,9.964,24,12.21,24,14.5c0,0.313-0.065,0.575-0.115,0.729
				C23.92,15.521,24,16.236,24,16.509c0,1.813-0.752,3.179-1.75,3.179c-0.087,0-0.191-0.012-0.305-0.046
				c-0.959,2.384-2.98,4.337-5.294,5.068c-0.093,0.032-0.197,0.065-0.303,0.095c-0.154,0.038-0.297,0.073-0.443,0.099
				C15.55,24.969,15.245,25,14.948,25z"/>
		</g>
		<g>
			<path d="M12.5,16h-1c-0.276,0-0.5-0.224-0.5-0.5s0.224-0.5,0.5-0.5h1c0.276,0,0.5,0.224,0.5,0.5S12.776,16,12.5,16z"/>
		</g>
		<g>
			<path d="M18.5,16h-1c-0.276,0-0.5-0.224-0.5-0.5s0.224-0.5,0.5-0.5h1c0.276,0,0.5,0.224,0.5,0.5S18.776,16,18.5,16z"/>
		</g>
		<g>
			<path d="M15,30C6.729,30,0,23.271,0,15S6.729,0,15,0s15,6.729,15,15S23.271,30,15,30z M15,1C7.28,1,1,7.28,1,15s6.28,14,14,14
				s14-6.28,14-14S22.72,1,15,1z"/>
		</g>
		<g>
			<path d="M20,23.5c-0.229,0-0.436-0.158-0.488-0.392c-0.06-0.27,0.11-0.536,0.38-0.597l4.03-0.896l-0.914-5.018
				c-0.05-0.271,0.13-0.532,0.402-0.582c0.272-0.044,0.532,0.131,0.581,0.402l1,5.491c0.048,0.265-0.121,0.52-0.383,0.578l-4.5,1
				C20.072,23.496,20.036,23.5,20,23.5z"/>
		</g>
		<g>
			<path d="M10,23.5c-0.036,0-0.072-0.004-0.109-0.012l-4.5-1C5.129,22.43,4.96,22.175,5.008,21.91l1-5.491
				c0.05-0.271,0.31-0.446,0.581-0.402c0.272,0.05,0.452,0.311,0.402,0.582l-0.914,5.018l4.03,0.896
				c0.27,0.061,0.439,0.327,0.38,0.597C10.437,23.342,10.229,23.5,10,23.5z"/>
		</g>
		<g>
			<path d="M17.933,27.065c-0.207,0-0.408-0.03-0.591-0.091L15,26.038l-2.314,0.926c-0.582,0.197-1.307,0.091-1.87-0.256
				c-0.458-0.283-0.747-0.688-0.811-1.138L10,23.121c0-0.276,0.224-0.5,0.5-0.5s0.5,0.224,0.5,0.5V25.5
				c0.016,0.078,0.143,0.234,0.341,0.357c0.306,0.188,0.727,0.261,1,0.168l2.473-0.989c0.119-0.049,0.252-0.049,0.371,0l2.5,1
				c0.245,0.081,0.666,0.01,0.973-0.179c0.199-0.123,0.325-0.279,0.346-0.428L19,23c0-0.276,0.224-0.5,0.5-0.5S20,22.724,20,23v2.5
				c-0.069,0.521-0.357,0.925-0.816,1.208C18.806,26.941,18.356,27.065,17.933,27.065z"/>
		</g>
		<g>
			<path d="M20.5,11h-11c-0.215,0-0.406-0.138-0.474-0.342l-2-6C6.949,4.429,7.048,4.177,7.261,4.061C7.416,3.977,11.089,2,15,2
				s7.584,1.977,7.739,2.061c0.212,0.116,0.312,0.368,0.235,0.598l-2,6C20.906,10.862,20.715,11,20.5,11z M9.86,10H20.14
				l1.749-5.248C20.879,4.266,17.964,3,15,3c-2.971,0-5.88,1.266-6.889,1.752L9.86,10z"/>
		</g>
		<g>
			<path d="M15,8c-0.276,0-0.5-0.224-0.5-0.5v-2C14.5,5.224,14.724,5,15,5s0.5,0.224,0.5,0.5v2C15.5,7.776,15.276,8,15,8z"/>
		</g>
		<g>
			<path d="M16,7h-2c-0.276,0-0.5-0.224-0.5-0.5S13.724,6,14,6h2c0.276,0,0.5,0.224,0.5,0.5S16.276,7,16,7z"/>
		</g>
	</g>
</g>
<g id="Captain">
</g>
<g id="Farmer">
</g>
<g id="Maid">
</g>
<g id="Business_Man_2">
</g>
<g id="Business_Woman_2">
</g>
<g id="Cowboy">
</g>
<g id="Anonymus">
</g>
<g id="Batman">
</g>
<g id="Superman">
</g>
<g id="Captain_America">
</g>
<g id="Darth_Vader">
</g>
<g id="Harry_Potter">
</g>
<g id="Anonymus_2">
</g>
<g id="Scream">
</g>
<g id="Jason">
</g>
<g id="Charlie_Chaplin">
</g>
</svg>
