<?xml version="1.0" encoding="iso-8859-1"?>
<!-- Generator: Adobe Illustrator 19.2.1, SVG Export Plug-In . SVG Version: 6.00 Build 0)  -->
<svg version="1.1" xmlns="http://www.w3.org/2000/svg" xmlns:xlink="http://www.w3.org/1999/xlink" x="0px" y="0px"
	 viewBox="0 0 24 24" style="enable-background:new 0 0 24 24;" xml:space="preserve">
<g id="Man_1">
</g>
<g id="Woman_1">
</g>
<g id="Man_2">
</g>
<g id="Woman_2">
</g>
<g id="Bald_Man">
</g>
<g id="Man_Glasses">
</g>
<g id="Woman_Glasses">
</g>
<g id="Man_Beard">
</g>
<g id="Man_Cap">
</g>
<g id="Woman_Cap">
</g>
<g id="Man_3">
</g>
<g id="Woman_3">
</g>
<g id="Men_4">
</g>
<g id="Woman_4">
</g>
<g id="Business_Man_1">
</g>
<g id="Business_Woman_1">
</g>
<g id="Firefigyhter">
</g>
<g id="Policeman">
</g>
<g id="Criminal">
</g>
<g id="Prisoner">
</g>
<g id="Woodsman">
</g>
<g id="Dispatcher_1">
</g>
<g id="Dispatcher_2">
</g>
<g id="Soldier">
</g>
<g id="Astronaut">
</g>
<g id="Hipster_Guy">
</g>
<g id="Hipster_Girl">
</g>
<g id="Worker">
</g>
<g id="Old_Man">
</g>
<g id="Punk">
</g>
<g id="Diver">
</g>
<g id="Artist">
</g>
<g id="Dictator">
</g>
<g id="Man_Hat">
</g>
<g id="Woman_Hat">
</g>
<g id="Graduated_Man">
</g>
<g id="Graduated_Woman">
</g>
<g id="Avatar_Chef">
</g>
<g id="Waiter">
</g>
<g id="Waitress">
</g>
<g id="Bllboy">
</g>
<g id="Santa">
</g>
<g id="Doctor">
</g>
<g id="Nurse">
	<g>
		<path d="M9.5,12C9.224,12,9,12.224,9,12.5S9.224,13,9.5,13h1c0.276,0,0.5-0.224,0.5-0.5S10.776,12,10.5,12H9.5z"/>
		<path d="M13.5,13h1c0.276,0,0.5-0.224,0.5-0.5S14.776,12,14.5,12h-1c-0.276,0-0.5,0.224-0.5,0.5S13.224,13,13.5,13z"/>
		<path d="M7.01,8.598C7.057,8.832,7.262,9,7.5,9h9c0.238,0,0.443-0.168,0.49-0.402l1-5c0.047-0.234-0.079-0.47-0.3-0.561
			C17.586,2.995,15.125,2,12,2S6.414,2.995,6.31,3.037c-0.221,0.091-0.347,0.326-0.3,0.561L7.01,8.598z M11,5h0.5V4.5
			C11.5,4.224,11.724,4,12,4s0.5,0.224,0.5,0.5V5H13c0.276,0,0.5,0.224,0.5,0.5S13.276,6,13,6h-0.5v0.5C12.5,6.776,12.276,7,12,7
			s-0.5-0.224-0.5-0.5V6H11c-0.276,0-0.5-0.224-0.5-0.5S10.724,5,11,5z"/>
		<path d="M4.426,17.994c0.121,0.019,2.972,0.442,4.044,0.505C8.48,18.5,8.49,18.5,8.5,18.5c0.008,0,0.015-0.006,0.023-0.006
			c0.62,0.587,1.321,1.028,2.076,1.267c0.086,0.029,0.171,0.057,0.261,0.081c0.119,0.03,0.237,0.059,0.353,0.079
			C11.509,19.975,11.759,20,12,20s0.491-0.025,0.782-0.079c0.121-0.021,0.239-0.049,0.361-0.08c0.086-0.023,0.171-0.051,0.249-0.077
			c0.76-0.24,1.463-0.683,2.084-1.27c0.008,0,0.015,0.007,0.023,0.007c0.01,0,0.02,0,0.029-0.001
			c1.072-0.063,3.923-0.486,4.044-0.505c0.137-0.02,0.259-0.096,0.338-0.21s0.106-0.255,0.077-0.391
			C19.979,17.349,19,12.837,19,11.5c0-0.004-0.002-0.007-0.002-0.011c0-0.009,0.002-0.016,0.002-0.025
			c0-1.254-0.301-2.471-0.852-3.555l-0.091,0.454v0l-0.086,0.431c-0.027,0.135-0.086,0.255-0.145,0.373
			c-0.047,0.083-0.097,0.165-0.155,0.24C17.392,9.763,16.974,10,16.5,10h-3.727c0.923,0.461,2.05,0.81,3.275,0.88
			c0.128,0.685,0.473,1.291,0.52,1.372c0.068,0.117,0.181,0.201,0.313,0.233c0.04,0.01,0.08,0.015,0.12,0.015
			c0.093,0,0.185-0.026,0.265-0.076c0.104-0.065,0.362-0.196,0.646-0.297C17.934,12.314,18,12.879,18,13.071
			c0,1.063-0.383,1.613-0.486,1.645c-0.009-0.003-0.045-0.023-0.097-0.08c-0.121-0.132-0.305-0.188-0.476-0.15
			c-0.174,0.039-0.315,0.167-0.369,0.337c-0.637,2.009-1.938,3.5-3.489,3.991c-0.065,0.021-0.131,0.043-0.194,0.06
			c-0.092,0.024-0.184,0.047-0.282,0.063C12.407,18.974,12.206,19,12,19s-0.407-0.026-0.611-0.063
			c-0.093-0.017-0.185-0.039-0.273-0.063c-0.067-0.018-0.132-0.039-0.206-0.063c-1.542-0.488-2.844-1.979-3.481-3.988
			c-0.054-0.17-0.195-0.299-0.369-0.337s-0.355,0.019-0.477,0.15c-0.05,0.056-0.086,0.076-0.078,0.078
			C6.382,14.684,6,14.134,6,13.071c0-0.193,0.066-0.758,0.089-0.945c0.28,0.099,0.535,0.229,0.647,0.299
			C6.816,12.475,6.908,12.5,7,12.5c0.073,0,0.146-0.017,0.214-0.049c0.153-0.072,0.26-0.218,0.282-0.386
			C7.596,11.299,7.869,10.463,8,10.357c0.44,0,1.124-0.094,1.773-0.357H7.5c-0.474,0-0.892-0.237-1.17-0.594
			C6.272,9.331,6.221,9.25,6.175,9.167c-0.06-0.118-0.118-0.238-0.145-0.373L5.852,7.909c-0.455,0.894-0.728,1.88-0.813,2.902
			C5.014,10.871,5,10.935,5,11v0.5c0,1.337-0.979,5.849-0.989,5.894c-0.029,0.136-0.001,0.276,0.077,0.391S4.29,17.975,4.426,17.994
			z"/>
		<path d="M24,12c0-6.617-5.383-12-12-12S0,5.383,0,12c0,6.34,4.945,11.533,11.179,11.958C11.449,23.983,11.723,24,12,24
			c0.282,0,0.561-0.016,0.837-0.042c2.84-0.198,5.407-1.384,7.364-3.221c0.014-0.007,0.021-0.022,0.034-0.031
			C22.548,18.516,24,15.428,24,12z M1,12C1,5.935,5.935,1,12,1s11,4.935,11,11c0,3.002-1.215,5.719-3.173,7.703
			c-0.064-0.025-0.126-0.054-0.191-0.077l-2.033-0.707c-0.24-0.083-0.458-0.21-0.661-0.36l-0.284,2.271
			c-0.079,0.552-0.328,1.043-0.7,1.421h0c-0.139,0.142-0.292,0.271-0.465,0.378c-0.395,0.244-0.849,0.374-1.313,0.374
			c-0.123,0-0.245-0.012-0.366-0.029c-0.12-0.019-0.238-0.047-0.354-0.082c-0.024-0.007-0.048-0.01-0.072-0.018
			c-0.047-0.016-0.092-0.034-0.136-0.057l-1.25-0.635l-1.183,0.604c-0.042,0.021-0.084,0.039-0.127,0.055
			c-0.059,0.02-0.118,0.029-0.177,0.046h0c-0.116,0.032-0.232,0.058-0.347,0.076c-0.123,0.018-0.246,0.032-0.368,0.032
			c-0.457,0-0.903-0.127-1.292-0.367c-0.173-0.107-0.327-0.236-0.466-0.378l0,0c-0.371-0.376-0.619-0.861-0.695-1.396l-0.287-2.297
			c-0.203,0.15-0.421,0.277-0.66,0.36l-2.033,0.707c-0.065,0.023-0.127,0.052-0.192,0.076C2.215,17.719,1,15.002,1,12z"/>
		<path d="M13.405,20.806c-0.164,0.042-0.308,0.076-0.456,0.102C12.61,20.97,12.304,21,12,21c-0.301,0-0.608-0.03-0.966-0.095
			c-0.135-0.024-0.278-0.058-0.421-0.095c-0.125-0.033-0.23-0.067-0.337-0.104c-0.75-0.237-1.451-0.64-2.088-1.167l0.147,1.174
			c0.063,0.442,0.317,0.83,0.697,1.064c0.38,0.234,0.839,0.289,1.332,0.118L12,21.061l1.705,0.865
			c0.155,0.052,0.316,0.077,0.475,0.077c0.275,0,0.548-0.076,0.788-0.225c0.379-0.234,0.633-0.622,0.698-1.072l0.146-1.171
			c-0.643,0.533-1.354,0.941-2.118,1.182C13.618,20.743,13.513,20.777,13.405,20.806z"/>
	</g>
</g>
<g id="Captain">
</g>
<g id="Farmer">
</g>
<g id="Maid">
</g>
<g id="Business_Man_2">
</g>
<g id="Business_Woman_2">
</g>
<g id="Cowboy">
</g>
<g id="Anonymus">
</g>
<g id="Batman">
</g>
<g id="Superman">
</g>
<g id="Captain_America">
</g>
<g id="Darth_Vader">
</g>
<g id="Harry_Potter">
</g>
<g id="Anonymus_2">
</g>
<g id="Scream">
</g>
<g id="Jason">
</g>
<g id="Charlie_Chaplin">
</g>
</svg>
