<?xml version="1.0" encoding="iso-8859-1"?>
<!-- Generator: Adobe Illustrator 19.2.1, SVG Export Plug-In . SVG Version: 6.00 Build 0)  -->
<svg version="1.1" xmlns="http://www.w3.org/2000/svg" xmlns:xlink="http://www.w3.org/1999/xlink" x="0px" y="0px"
	 viewBox="0 0 30 30" style="enable-background:new 0 0 30 30;" xml:space="preserve">
<g id="Restaurant_sign_1">
</g>
<g id="Restaurant_Sign_2">
</g>
<g id="Restaurant_Sign_3">
</g>
<g id="Hot_Drink_1">
</g>
<g id="Hot_Drink_2">
</g>
<g id="Cocktail">
</g>
<g id="Shot_Glasses">
</g>
<g id="Chilled_Champagne">
</g>
<g id="Wine">
</g>
<g id="Wine_List">
</g>
<g id="Menu">
</g>
<g id="Menu_2">
</g>
<g id="Salver">
</g>
<g id="Soup">
</g>
<g id="Sushi">
</g>
<g id="Pizza">
</g>
<g id="Pizza_Slice">
</g>
<g id="Fish">
</g>
<g id="Sausage">
</g>
<g id="Course">
</g>
<g id="Dessert">
</g>
<g id="Cutlery">
</g>
<g id="Napkin">
</g>
<g id="Table">
</g>
<g id="Spices">
</g>
<g id="Hot_Sauce">
</g>
<g id="Reserved_1">
</g>
<g id="Reserved_2">
</g>
<g id="Open">
	<g>
		<path d="M25.5,4h-1.894l-8.903-3.957c-0.129-0.058-0.277-0.058-0.406,0L5.394,4H3.5C1.57,4,0,5.57,0,7.5v19
			C0,28.43,1.57,30,3.5,30h22c1.93,0,3.5-1.57,3.5-3.5v-19C29,5.57,27.43,4,25.5,4z M14.5,1.047L21.144,4H7.856L14.5,1.047z
			 M17.5,10c0.276,0,0.5,0.224,0.5,0.5S17.776,11,17.5,11H16v2h1.5c0.276,0,0.5,0.224,0.5,0.5S17.776,14,17.5,14h-2
			c-0.276,0-0.5-0.224-0.5-0.5v-5C15,8.224,15.224,8,15.5,8h2C17.776,8,18,8.224,18,8.5S17.776,9,17.5,9H16v1H17.5z M14,10
			c0,1.103-0.897,2-2,2h-1v1.5c0,0.276-0.224,0.5-0.5,0.5S10,13.776,10,13.5v-5C10,8.224,10.224,8,10.5,8H12
			C13.103,8,14,8.897,14,10z M7.5,14h-1C5.673,14,5,13.327,5,12.5v-3C5,8.673,5.673,8,6.5,8h1C8.327,8,9,8.673,9,9.5v3
			C9,13.327,8.327,14,7.5,14z M18.836,25.13c0.204,0.185,0.22,0.501,0.034,0.706C18.771,25.944,18.636,26,18.5,26
			c-0.12,0-0.24-0.043-0.336-0.13l-3.781-3.426l-3.536,3.415C10.75,25.953,10.625,26,10.5,26c-0.131,0-0.262-0.051-0.36-0.152
			c-0.191-0.199-0.186-0.516,0.013-0.707l3.488-3.369l-1.444-1.308c-0.274,0.146-0.58,0.227-0.89,0.227
			c-0.477,0-0.953-0.173-1.299-0.519c-0.528-0.529-1.714-2.667-0.892-3.49c0.825-0.824,2.961,0.363,3.49,0.892
			c0.328,0.328,0.516,0.801,0.516,1.299c0,0.315-0.083,0.616-0.221,0.881l1.46,1.323l4.704-4.544
			c0.157-0.151,0.394-0.184,0.584-0.081c0.191,0.103,0.295,0.316,0.256,0.53c-0.047,0.253-0.478,2.493-1.399,3.416
			c-0.489,0.489-1.582,0.319-2.187,0.177l-1.216,1.174L18.836,25.13z M23,13.5c0,0.225-0.15,0.422-0.366,0.482
			C22.589,13.994,22.544,14,22.5,14c-0.173,0-0.337-0.089-0.429-0.243L20,10.305V13.5c0,0.276-0.224,0.5-0.5,0.5S19,13.776,19,13.5
			v-5c0-0.225,0.15-0.422,0.366-0.482c0.221-0.061,0.447,0.032,0.563,0.225L22,11.695V8.5C22,8.224,22.224,8,22.5,8S23,8.224,23,8.5
			V13.5z"/>
		<path d="M17.814,19.677c0.244-0.245,0.459-0.686,0.635-1.159l-1.232,1.19C17.5,19.734,17.73,19.727,17.814,19.677z"/>
		<path d="M7.5,9h-1C6.224,9,6,9.224,6,9.5v3C6,12.776,6.224,13,6.5,13h1C7.776,13,8,12.776,8,12.5v-3C8,9.224,7.776,9,7.5,9z"/>
		<path d="M11,9v2h1c0.551,0,1-0.449,1-1s-0.449-1-1-1H11z"/>
		<path d="M11.899,18.28c-0.4-0.4-1.529-0.896-1.973-0.896c-0.051,0-0.093,0.007-0.124,0.021c-0.098,0.26,0.467,1.612,0.914,2.06
			c0.298,0.299,0.885,0.299,1.184,0c0.142-0.142,0.223-0.358,0.223-0.593S12.041,18.422,11.899,18.28z"/>
	</g>
</g>
<g id="Food_Photo">
</g>
<g id="Chef">
</g>
<g id="Bill">
</g>
<g id="Bill_2">
</g>
<g id="Paying_1">
</g>
<g id="Paying_2">
</g>
<g id="Restaurant_Place">
</g>
</svg>
