<?xml version="1.0" encoding="iso-8859-1"?>
<!-- Generator: Adobe Illustrator 19.2.1, SVG Export Plug-In . SVG Version: 6.00 Build 0)  -->
<svg version="1.1" xmlns="http://www.w3.org/2000/svg" xmlns:xlink="http://www.w3.org/1999/xlink" x="0px" y="0px"
	 viewBox="0 0 24 24" style="enable-background:new 0 0 24 24;" xml:space="preserve">
<g id="Restaurant_sign_1">
</g>
<g id="Restaurant_Sign_2">
</g>
<g id="Restaurant_Sign_3">
</g>
<g id="Hot_Drink_1">
</g>
<g id="Hot_Drink_2">
</g>
<g id="Cocktail">
</g>
<g id="Shot_Glasses">
</g>
<g id="Chilled_Champagne">
</g>
<g id="Wine">
</g>
<g id="Wine_List">
</g>
<g id="Menu">
</g>
<g id="Menu_2">
</g>
<g id="Salver">
</g>
<g id="Soup">
</g>
<g id="Sushi">
</g>
<g id="Pizza">
</g>
<g id="Pizza_Slice">
</g>
<g id="Fish">
</g>
<g id="Sausage">
</g>
<g id="Course">
</g>
<g id="Dessert">
</g>
<g id="Cutlery">
</g>
<g id="Napkin">
</g>
<g id="Table">
</g>
<g id="Spices">
</g>
<g id="Hot_Sauce">
</g>
<g id="Reserved_1">
</g>
<g id="Reserved_2">
</g>
<g id="Open">
	<g>
		<path d="M5.99,22.521c0.017,0.83,0.675,1.48,1.498,1.48h8.024c0.823,0,1.481-0.65,1.498-1.48c0.011-0.518,0.032-1.022,0.058-1.52
			H5.932C5.958,21.499,5.979,22.003,5.99,22.521z"/>
		<path d="M19.5,9.001h-1h-14h-1c-0.276,0-0.5,0.224-0.5,0.5s0.224,0.5,0.5,0.5h0.63c0.31,1.041,1.239,4.44,1.659,9h11.42
			c0.419-4.568,1.349-7.961,1.66-9H19.5c0.276,0,0.5-0.224,0.5-0.5S19.776,9.001,19.5,9.001z"/>
		<path d="M4.226,4.475C4.886,5.818,5.193,6.948,5.396,8h5.823c-0.304-0.352-0.619-0.687-0.942-1.031
			C9.283,5.915,8.256,4.824,7.333,2.948L6.248,0.737C5.927,0.084,5.134-0.187,4.479,0.135L3.743,0.497
			C3.09,0.818,2.819,1.611,3.14,2.265L4.226,4.475z"/>
	</g>
</g>
<g id="Food_Photo">
</g>
<g id="Chef">
</g>
<g id="Bill">
</g>
<g id="Bill_2">
</g>
<g id="Paying_1">
</g>
<g id="Paying_2">
</g>
<g id="Restaurant_Place">
</g>
</svg>
