<?xml version="1.0" encoding="iso-8859-1"?>
<!-- Generator: Adobe Illustrator 19.2.1, SVG Export Plug-In . SVG Version: 6.00 Build 0)  -->
<svg version="1.1" xmlns="http://www.w3.org/2000/svg" xmlns:xlink="http://www.w3.org/1999/xlink" x="0px" y="0px"
	 viewBox="0 0 30 30" style="enable-background:new 0 0 30 30;" xml:space="preserve">
<g id="Mail">
</g>
<g id="Open_Mail">
</g>
<g id="Mail_Attachmet">
</g>
<g id="Mails">
</g>
<g id="Trash">
</g>
<g id="Trash_Full">
</g>
<g id="Preferences_1">
</g>
<g id="Preferences_2">
</g>
<g id="Mouse">
</g>
<g id="Computer">
</g>
<g id="Notebook">
</g>
<g id="Mobile_Phone">
</g>
<g id="Print">
</g>
<g id="Calculator">
</g>
<g id="Tag">
</g>
<g id="Paperclip">
</g>
<g id="Heart">
</g>
<g id="Lock">
</g>
<g id="Lock_Open">
</g>
<g id="Key_1">
</g>
<g id="Star">
</g>
<g id="Add">
</g>
<g id="Remove">
</g>
<g id="Error">
</g>
<g id="Check_1">
</g>
<g id="Time">
</g>
<g id="Question_Mark">
</g>
<g id="Error_Mark">
</g>
<g id="Sand-Glass">
</g>
<g id="Battery_Full">
</g>
<g id="Battery_Charge">
</g>
<g id="Battery_Half">
</g>
<g id="Battery_Low">
</g>
<g id="No_Battery">
</g>
<g id="Key_2">
</g>
<g id="Link">
</g>
<g id="Brake_Link">
</g>
<g id="Pencil">
</g>
<g id="At">
</g>
<g id="Reply">
</g>
<g id="Accessible">
</g>
<g id="Up_Arrow">
</g>
<g id="Brush">
</g>
<g id="Design_Mug">
</g>
<g id="Design">
</g>
<g id="Server">
</g>
<g id="Database">
</g>
<g id="Save">
</g>
<g id="Female">
</g>
<g id="Male">
</g>
<g id="Book">
</g>
<g id="Power">
</g>
<g id="Reload">
</g>
<g id="Map">
</g>
<g id="Loction_1">
</g>
<g id="Location_2">
</g>
<g id="Globe">
</g>
<g id="Suitcase">
</g>
<g id="Callendar">
</g>
<g id="Cloud_Off">
</g>
<g id="File_1">
</g>
<g id="File_2">
</g>
<g id="Folder">
</g>
<g id="Open_Folder">
	<g>
		<g>
			<path d="M26.552,26H3.357c-0.726,0-1.347-0.519-1.476-1.233L0.049,14.626c-0.164-0.9,0.083-1.825,0.677-2.536
				C1.304,11.397,2.141,11,3.023,11h6.672c0.615,0,1.082-0.09,1.468-0.283l3.472-1.506c0.504-0.253,1.055-0.234,1.542-0.219
				C16.292,8.996,16.409,9,16.525,9h10.452c0.939,0,1.802,0.378,2.367,1.037c0.528,0.615,0.749,1.413,0.62,2.247l-1.93,12.445
				C27.92,25.466,27.297,26,26.552,26z M3.023,12c-0.585,0-1.142,0.266-1.529,0.73c-0.403,0.482-0.571,1.108-0.46,1.717
				l1.833,10.142C2.909,24.827,3.115,25,3.357,25h23.195c0.248,0,0.456-0.178,0.494-0.423l1.93-12.445
				c0.083-0.54-0.056-1.053-0.391-1.443C28.21,10.251,27.624,10,26.977,10H16.525c-0.128,0-0.255-0.004-0.382-0.008
				c-0.421-0.016-0.784-0.026-1.086,0.125l-3.472,1.506C11.08,11.877,10.471,12,9.695,12H3.023z"/>
		</g>
		<g>
			<path d="M3.5,12C3.224,12,3,11.776,3,11.5v-5C3,5.121,4.122,4,5.5,4h5.088c0.712,0,1.523,0.052,2.137,0.666l1.016,0.866
				C14.075,5.864,14.516,6,15.2,6h10.3C26.327,6,27,6.673,27,7.5v2c0,0.276-0.224,0.5-0.5,0.5S26,9.776,26,9.5v-2
				C26,7.225,25.776,7,25.5,7H15.2c-0.603,0-1.479-0.076-2.137-0.734l-1.016-0.866C11.706,5.061,11.257,5,10.588,5H5.5
				C4.673,5,4,5.673,4,6.5v5C4,11.776,3.776,12,3.5,12z"/>
		</g>
	</g>
</g>
<g id="Cloud">
</g>
<g id="Upload_Cloud">
</g>
<g id="Download_Cloud">
</g>
<g id="Eye">
</g>
<g id="Invisible">
</g>
<g id="Assignment">
</g>
<g id="Note_Book">
</g>
<g id="Webpage">
</g>
<g id="Mailbox">
</g>
<g id="Drive">
</g>
<g id="Disc">
</g>
<g id="Wifi_1">
</g>
<g id="Wifi_2">
</g>
<g id="Archive">
</g>
<g id="Archive_File">
</g>
<g id="News">
</g>
<g id="Home">
</g>
<g id="Collaboration">
</g>
<g id="Announcement">
</g>
<g id="Watch">
</g>
<g id="Clock">
</g>
<g id="Volume">
</g>
<g id="Mute">
</g>
<g id="Hand">
</g>
<g id="Layers">
</g>
<g id="Bell">
</g>
<g id="Speach_Bubble">
</g>
<g id="Speach_Bubbles">
</g>
<g id="Zoom_In">
</g>
<g id="Zoom_Out">
</g>
<g id="Search">
</g>
<g id="Back_Arrow">
</g>
<g id="Close">
</g>
<g id="Check_2">
</g>
<g id="Left_Arrow_2">
</g>
<g id="Right_Arrow_2">
</g>
</svg>
