<?xml version="1.0" encoding="iso-8859-1"?>
<!-- Generator: Adobe Illustrator 19.2.1, SVG Export Plug-In . SVG Version: 6.00 Build 0)  -->
<svg version="1.1" xmlns="http://www.w3.org/2000/svg" xmlns:xlink="http://www.w3.org/1999/xlink" x="0px" y="0px"
	 viewBox="0 0 24 24" style="enable-background:new 0 0 24 24;" xml:space="preserve">
<g id="Retro_Bot_1">
</g>
<g id="Retro_Bot_2">
</g>
<g id="Retro_Bot_3">
</g>
<g id="Retro_Bot_4">
</g>
<g id="Wall-E">
</g>
<g id="Eva">
</g>
<g id="Iron_Giant">
</g>
<g id="Marvin">
</g>
<g id="Atlas">
</g>
<g id="Claptrap">
</g>
<g id="Android">
</g>
<g id="Bender">
</g>
<g id="Roberto">
</g>
<g id="Robot_Devil">
</g>
<g id="Robocop">
</g>
<g id="ED_209">
</g>
<g id="Optimus_Prime">
	<path d="M19.814,15.536l2.297-0.919l1.88-10.024c0.049-0.261-0.114-0.514-0.371-0.578c-0.259-0.063-0.521,0.086-0.598,0.338
		L22.18,7.091l0.816-6.529c0.018-0.142-0.026-0.286-0.121-0.393S22.644,0,22.5,0h-1c-0.215,0-0.406,0.138-0.475,0.342L19.79,4.047
		c-1.588-1.462-3.569-2.451-5.685-2.845l-0.11-0.773C13.96,0.183,13.749,0,13.5,0h-3c-0.249,0-0.46,0.183-0.495,0.429L9.896,1.193
		C7.753,1.589,5.803,2.572,4.209,4.046L2.975,0.342C2.906,0.138,2.715,0,2.5,0h-1C1.356,0,1.22,0.062,1.125,0.169
		S0.986,0.42,1.004,0.562l0.821,6.547L0.978,4.353C0.9,4.101,0.639,3.952,0.38,4.015C0.123,4.078-0.04,4.332,0.009,4.592
		l1.88,10.024l2.297,0.919c0.257,0.103,0.381,0.394,0.278,0.65C4.386,16.381,4.198,16.5,4,16.5c-0.062,0-0.125-0.011-0.186-0.036
		l-1.708-0.683l0.192,1.022l1.882,0.73c0.258,0.1,0.386,0.39,0.285,0.647C4.39,18.379,4.2,18.5,4,18.5
		c-0.061,0-0.121-0.011-0.181-0.034L2.515,17.96l0.195,1.041L4.17,19.53c0.26,0.094,0.395,0.381,0.3,0.641
		C4.396,20.374,4.204,20.5,4,20.5c-0.057,0-0.114-0.009-0.17-0.03l-0.906-0.328l0.084,0.45C3.031,20.715,3.1,20.825,3.2,20.9l4,3
		C7.288,23.966,7.394,24,7.5,24c0.076,0,0.153-0.018,0.224-0.053l1.799-0.9l2.282,0.913c0,0,0,0,0.001,0l0.009,0.004
		C11.874,23.988,11.937,24,12,24s0.126-0.012,0.186-0.036l0.009-0.004c0,0,0,0,0,0l2.282-0.913l1.799,0.9
		C16.347,23.982,16.424,24,16.5,24c0.106,0,0.212-0.034,0.3-0.1l4-3c0.101-0.075,0.169-0.185,0.191-0.308l0.084-0.45L20.17,20.47
		c-0.056,0.021-0.113,0.03-0.17,0.03c-0.204,0-0.396-0.126-0.47-0.33c-0.095-0.26,0.04-0.546,0.3-0.641l1.459-0.528l0.195-1.041
		l-1.304,0.506C20.121,18.489,20.061,18.5,20,18.5c-0.2,0-0.39-0.121-0.466-0.319c-0.101-0.257,0.027-0.547,0.285-0.647l1.882-0.73
		l0.192-1.022l-1.708,0.683C20.125,16.489,20.062,16.5,20,16.5c-0.198,0-0.386-0.119-0.464-0.314
		C19.434,15.929,19.558,15.638,19.814,15.536z M10.026,7.351L10.076,7h3.847l0.05,0.351L13.432,8h-2.865L10.026,7.351z M12.599,9
		L12,9.719L11.401,9H12.599z M13.781,6h-3.561l0.143-1h3.276L13.781,6z M13.495,4h-2.99l0.143-1h2.704L13.495,4z M10.403,10.878
		c0.003,0,0.007,0.001,0.01,0.001l-0.56,0.56c-0.195,0.195-0.512,0.195-0.707,0l-0.953-0.953L10.403,10.878z M13.608,10.876
		l2.199-0.391l-0.953,0.953c-0.195,0.195-0.512,0.195-0.707,0l-0.56-0.56C13.594,10.878,13.601,10.878,13.608,10.876z M13.066,1
		l0.143,1h-2.419l0.143-1H13.066z M14.036,22.147L12.5,22.761V15.86l2.32-0.773L14.036,22.147z M11.5,22.761l-1.536-0.614
		l-0.784-7.06l2.32,0.773V22.761z M15.276,13.053c-0.151,0.076-0.255,0.224-0.273,0.392l-0.063,0.569
		c-0.033,0.004-0.065,0.001-0.098,0.012L12,14.973l-2.842-0.947c-0.032-0.011-0.065-0.008-0.098-0.012l-0.063-0.569
		c-0.019-0.168-0.122-0.316-0.273-0.392l-1.814-0.907L6.24,10.139l0.299,0.053c0.024,0.058,0.06,0.114,0.107,0.161l1.793,1.793
		c0.292,0.292,0.677,0.438,1.061,0.438s0.769-0.146,1.061-0.438l1.157-1.157c0.188,0.005,0.377,0.005,0.565,0l1.157,1.157
		c0.292,0.292,0.677,0.438,1.061,0.438s0.769-0.146,1.061-0.438l1.557-1.557l0.477,0.045l-0.069,0.208l0,0l-0.435,1.303
		L15.276,13.053z"/>
</g>
<g id="Robot_1">
</g>
<g id="Robot_2">
</g>
<g id="Robot_3">
</g>
<g id="Robot_Arm_1">
</g>
<g id="Robot_Arm_2">
</g>
<g id="Robot_Arm_3">
</g>
<g id="Robot_Arm_4">
</g>
<g id="Robot_Arm_5">
</g>
<g id="K5_Robot">
</g>
<g id="Robot_Machine_1">
</g>
<g id="Robot_Machine_2">
</g>
<g id="Artifical_Intelligence_1">
</g>
<g id="Artifical_Intelligence_2">
</g>
<g id="Robot_4">
</g>
<g id="Robot_5">
</g>
<g id="Robot_6">
</g>
<g id="Robot_7">
</g>
<g id="Robot_8">
</g>
<g id="Robot_9">
</g>
<g id="Robot_10">
</g>
<g id="Robot_11">
</g>
<g id="Robot_12">
</g>
<g id="Robot_13">
</g>
</svg>
