<?xml version="1.0" encoding="iso-8859-1"?>
<!-- Generator: Adobe Illustrator 19.2.1, SVG Export Plug-In . SVG Version: 6.00 Build 0)  -->
<svg version="1.1" xmlns="http://www.w3.org/2000/svg" xmlns:xlink="http://www.w3.org/1999/xlink" x="0px" y="0px"
	 viewBox="0 0 24 24" style="enable-background:new 0 0 24 24;" xml:space="preserve">
<g id="Pompkin">
</g>
<g id="Layer_10">
</g>
<g id="Bat">
</g>
<g id="Ghost">
</g>
<g id="Bone_Hand">
</g>
<g id="Tree_Ghost">
</g>
<g id="Gate">
</g>
<g id="Cemetery_1">
</g>
<g id="Cemetery_2">
</g>
<g id="Devil_x27_s_Fork">
</g>
<g id="Night_Candle">
</g>
<g id="Canlestick">
</g>
<g id="Black_Cat">
</g>
<g id="Witch_Cauldron">
</g>
<g id="Corn_Candy">
</g>
<g id="Layer_29">
</g>
<g id="Bones">
</g>
<g id="Witch_Broom">
</g>
<g id="Owl">
	<g>
		<path d="M9,7c0.389,0,0.759-0.08,1.101-0.216c0.016,0.023,0.026,0.049,0.046,0.069l1,1C11.244,7.951,11.372,8,11.5,8
			s0.256-0.049,0.354-0.146l1-1c0.02-0.02,0.03-0.046,0.046-0.069C13.241,6.92,13.611,7,14,7c1.654,0,3-1.346,3-3
			c0-0.883-0.391-1.67-1-2.22V0.5c0-0.185-0.102-0.354-0.264-0.441c-0.162-0.086-0.36-0.077-0.513,0.025l-1.341,0.894
			c-1.565-0.285-3.199-0.285-4.764,0L7.777,0.084C7.625-0.018,7.426-0.027,7.264,0.059C7.102,0.146,7,0.315,7,0.5v1.28
			C6.391,2.33,6,3.117,6,4C6,5.654,7.346,7,9,7z M9,5C8.449,5,8,4.551,8,4s0.449-1,1-1s1,0.449,1,1S9.551,5,9,5z M11.5,6.793
			l-0.54-0.54c0.204-0.178,0.39-0.374,0.54-0.601c0.15,0.226,0.336,0.423,0.54,0.601L11.5,6.793z M14,5c-0.551,0-1-0.449-1-1
			s0.449-1,1-1s1,0.449,1,1S14.551,5,14,5z M12.001,1.779c-0.188,0.17-0.36,0.356-0.501,0.568c-0.141-0.212-0.313-0.398-0.501-0.568
			C11.333,1.766,11.667,1.766,12.001,1.779z"/>
		<path d="M8.713,12.78l-0.012-0.258C8.689,12.246,8.903,12.013,9.179,12c0.285-0.014,0.51,0.202,0.521,0.478l0.012,0.256
			c0.087,1.895,0.206,4.962-1.458,7.119C9.21,20.578,10.317,21,11.5,21c1.151,0,2.232-0.398,3.171-1.087
			c-1.714-2.159-1.594-5.266-1.506-7.178l0.012-0.256c0.012-0.276,0.262-0.489,0.521-0.478c0.276,0.012,0.49,0.246,0.478,0.521
			l-0.012,0.258c-0.081,1.756-0.192,4.605,1.262,6.478C16.986,17.704,18,15.257,18,12.5c0-1.767-0.419-3.468-1.211-4.919
			c-0.066-0.121-0.178-0.209-0.311-0.244c-0.133-0.036-0.274-0.015-0.391,0.058c-0.776,0.478-1.688,0.683-2.527,0.563l-0.104-0.015
			c-0.156-0.019-0.311,0.032-0.421,0.142L12.56,8.56c-0.565,0.567-1.554,0.567-2.121,0L9.964,8.085
			c-0.11-0.11-0.265-0.161-0.421-0.142L9.439,7.957c-0.84,0.119-1.751-0.085-2.527-0.563C6.796,7.322,6.654,7.301,6.522,7.336
			C6.389,7.371,6.277,7.46,6.211,7.58C5.419,9.032,5,10.733,5,12.5c0,2.716,0.983,5.133,2.505,6.69
			C8.903,17.316,8.793,14.515,8.713,12.78z"/>
		<path d="M15.168,21.457c-0.056-0.13-0.163-0.23-0.297-0.276c-0.134-0.047-0.281-0.033-0.404,0.035
			c-1.892,1.041-4.044,1.041-5.936,0c-0.124-0.068-0.27-0.081-0.404-0.035c-0.134,0.046-0.241,0.146-0.297,0.276l-0.791,1.846
			c-0.066,0.154-0.05,0.332,0.042,0.472C7.175,23.915,7.332,24,7.5,24h8c0.007,0,0.013,0,0.02,0c0.276,0,0.5-0.224,0.5-0.5
			c0-0.119-0.042-0.228-0.11-0.313L15.168,21.457z"/>
	</g>
</g>
<g id="Scythe">
</g>
<g id="Grim_Reaper">
</g>
<g id="Coffin">
</g>
<g id="Dracula">
</g>
<g id="Frankenstein">
</g>
<g id="Layer_40">
</g>
<g id="Toilet_Paper">
</g>
<g id="Skull">
</g>
<g id="Skull_Cake">
</g>
<g id="Eyeball">
</g>
<g id="Castle">
</g>
<g id="Witch_x27_s_Hat">
</g>
<g id="Cobweb_1">
</g>
<g id="Cobweb_2">
</g>
<g id="Spider">
</g>
<g id="Full_Moon">
</g>
<g id="Crescent">
</g>
<g id="Crow">
</g>
<g id="Candy_Holder">
</g>
<g id="Bloody_Knife">
</g>
<g id="Bloody_Axe">
</g>
</svg>
