<?xml version="1.0" encoding="iso-8859-1"?>
<!-- Generator: Adobe Illustrator 19.2.1, SVG Export Plug-In . SVG Version: 6.00 Build 0)  -->
<svg version="1.1" xmlns="http://www.w3.org/2000/svg" xmlns:xlink="http://www.w3.org/1999/xlink" x="0px" y="0px"
	 viewBox="0 0 30 30" style="enable-background:new 0 0 30 30;" xml:space="preserve">
<g id="Flag">
</g>
<g id="Umbrella">
</g>
<g id="Briefcase">
</g>
<g id="Box">
</g>
<g id="Magnet">
</g>
<g id="Percent">
</g>
<g id="Rocket">
</g>
<g id="Share">
</g>
<g id="Transmitter">
</g>
<g id="Record_2">
</g>
<g id="Record_1">
</g>
<g id="Anchor">
</g>
<g id="Airplane">
</g>
<g id="Car">
</g>
<g id="Newsfeed">
</g>
<g id="Wifi_Tethering">
</g>
<g id="No_Wifi_Tethering">
</g>
<g id="Bar_Chart_2">
</g>
<g id="Shop">
</g>
<g id="Alarm">
</g>
<g id="Sim_Card">
</g>
<g id="Radar">
</g>
<g id="Hand_2">
</g>
<g id="Palette">
	<g>
		<g>
			<path d="M14.369,30c-0.047,0-0.094-0.007-0.137-0.02C6.221,29.582,0,23.071,0,15c0-4.114,1.633-7.952,4.598-10.807
				c2.963-2.854,6.855-4.329,10.986-4.183c7.87,0.299,14.336,6.954,14.416,14.836c0.011,1.128,0.034,3.475-2.104,4.976
				c-2.919,2.05-6.057,1.265-8.578,0.633c-1.112-0.279-2.163-0.542-3.057-0.542c-0.767,0-1.391,0.624-1.391,1.392
				c0,0.075,0.006,0.15,0.018,0.224c0.101,1.169,0.46,1.652,1.114,2.53c0.239,0.322,0.508,0.684,0.801,1.128
				c0.003,0.004,0.007,0.009,0.01,0.013c0.379,0.519,0.579,1.134,0.579,1.779c0,1.536-1.152,2.808-2.638,2.997
				c-0.049,0.014-0.107,0.019-0.151,0.02c-0.013-0.001-0.026-0.001-0.039-0.001C14.499,29.998,14.434,30,14.369,30z M14.995,1
				c-3.643,0-7.071,1.378-9.705,3.914C2.523,7.578,1,11.16,1,15c0,7.62,5.941,13.75,13.542,13.993
				c1.035-0.088,1.85-0.958,1.85-2.015c0-0.423-0.128-0.826-0.371-1.168c-0.012-0.015-0.023-0.029-0.034-0.045
				c-0.289-0.439-0.553-0.795-0.788-1.11c-0.687-0.923-1.184-1.591-1.301-2.996c-0.018-0.093-0.028-0.223-0.028-0.354
				c0-1.318,1.073-2.392,2.391-2.392c1.018,0,2.126,0.277,3.3,0.571c2.443,0.612,5.215,1.306,7.761-0.48
				c1.707-1.199,1.688-3.117,1.678-4.147C28.925,7.5,22.89,1.289,15.545,1.011C15.362,1.003,15.178,1,14.995,1z"/>
		</g>
		<g>
			<path d="M23,16c-1.654,0-3-1.346-3-3s1.346-3,3-3s3,1.346,3,3S24.654,16,23,16z M23,11c-1.103,0-2,0.897-2,2s0.897,2,2,2
				s2-0.897,2-2S24.103,11,23,11z"/>
		</g>
		<g>
			<path d="M17,9c-1.654,0-3-1.346-3-3s1.346-3,3-3s3,1.346,3,3S18.654,9,17,9z M17,4c-1.103,0-2,0.897-2,2s0.897,2,2,2s2-0.897,2-2
				S18.103,4,17,4z"/>
		</g>
		<g>
			<path d="M8,13c-1.654,0-3-1.346-3-3s1.346-3,3-3s3,1.346,3,3S9.654,13,8,13z M8,8c-1.103,0-2,0.897-2,2s0.897,2,2,2s2-0.897,2-2
				S9.103,8,8,8z"/>
		</g>
		<g>
			<path d="M7,21.652c-1.654,0-3-1.346-3-3s1.346-3,3-3s3,1.346,3,3S8.654,21.652,7,21.652z M7,16.652c-1.103,0-2,0.897-2,2
				s0.897,2,2,2s2-0.897,2-2S8.103,16.652,7,16.652z"/>
		</g>
	</g>
</g>
<g id="Cake">
</g>
<g id="Blende">
</g>
<g id="Feather_Pen">
</g>
<g id="Ticket">
</g>
<g id="Medal">
</g>
<g id="Mouse_Pointer_1">
</g>
<g id="Mouse_Pointer_2">
</g>
<g id="Fingerprint">
</g>
<g id="Earth">
</g>
</svg>
