<?xml version="1.0" encoding="iso-8859-1"?>
<!-- Generator: Adobe Illustrator 19.2.1, SVG Export Plug-In . SVG Version: 6.00 Build 0)  -->
<svg version="1.1" xmlns="http://www.w3.org/2000/svg" xmlns:xlink="http://www.w3.org/1999/xlink" x="0px" y="0px"
	 viewBox="0 0 24 24" style="enable-background:new 0 0 24 24;" xml:space="preserve">
<g id="Flag">
</g>
<g id="Umbrella">
</g>
<g id="Briefcase">
</g>
<g id="Box">
</g>
<g id="Magnet">
</g>
<g id="Percent">
</g>
<g id="Rocket">
</g>
<g id="Share">
</g>
<g id="Transmitter">
</g>
<g id="Record_2">
</g>
<g id="Record_1">
</g>
<g id="Anchor">
</g>
<g id="Airplane">
</g>
<g id="Car">
</g>
<g id="Newsfeed">
</g>
<g id="Wifi_Tethering">
</g>
<g id="No_Wifi_Tethering">
</g>
<g id="Bar_Chart_2">
</g>
<g id="Shop">
</g>
<g id="Alarm">
</g>
<g id="Sim_Card">
</g>
<g id="Radar">
</g>
<g id="Hand_2">
</g>
<g id="Palette">
	<path d="M23.999,11.877C23.936,5.572,18.763,0.248,12.467,0.009c-3.301-0.128-6.419,1.063-8.79,3.346C1.306,5.638,0,8.708,0,12
		c0,6.453,4.972,11.659,11.375,11.984C11.414,23.994,11.456,24,11.5,24c0.052,0,0.104-0.002,0.156-0.005
		c0.009,0,0.017,0.001,0.026,0.001c0.048,0.003,0.098-0.005,0.144-0.018C13.05,23.819,14,22.769,14,21.5
		c0-0.503-0.147-0.984-0.473-1.451l0.005-0.003c-0.24-0.365-0.46-0.66-0.655-0.923c-0.507-0.682-0.787-1.057-0.865-1.959
		C12.004,17.11,12,17.056,12,17c0-0.552,0.449-1,1-1c0.697,0,1.524,0.207,2.4,0.427c2.019,0.505,4.532,1.134,6.888-0.518
		C24.026,14.688,24.008,12.79,23.999,11.877z M5.5,17C4.121,17,3,15.879,3,14.5S4.121,12,5.5,12S8,13.121,8,14.5S6.878,17,5.5,17z
		 M6.5,10C5.121,10,4,8.878,4,7.5S5.121,5,6.5,5S9,6.122,9,7.5S7.878,10,6.5,10z M13.5,8C12.121,8,11,6.878,11,5.5S12.121,3,13.5,3
		S16,4.122,16,5.5S14.879,8,13.5,8z M18.5,13c-1.379,0-2.5-1.122-2.5-2.5S17.121,8,18.5,8S21,9.122,21,10.5S19.879,13,18.5,13z"/>
</g>
<g id="Cake">
</g>
<g id="Blende">
</g>
<g id="Feather_Pen">
</g>
<g id="Ticket">
</g>
<g id="Medal">
</g>
<g id="Mouse_Pointer_1">
</g>
<g id="Mouse_Pointer_2">
</g>
<g id="Fingerprint">
</g>
<g id="Earth">
</g>
</svg>
