<?xml version="1.0" encoding="iso-8859-1"?>
<!-- Generator: Adobe Illustrator 19.2.1, SVG Export Plug-In . SVG Version: 6.00 Build 0)  -->
<svg version="1.1" xmlns="http://www.w3.org/2000/svg" xmlns:xlink="http://www.w3.org/1999/xlink" x="0px" y="0px"
	 viewBox="0 0 24 24" style="enable-background:new 0 0 24 24;" xml:space="preserve">
<g id="Cutting_Board_1">
</g>
<g id="Cutting_Board_2">
</g>
<g id="Chef_x27_s_Hat_1">
</g>
<g id="Chef_x27_s_Hat_2">
</g>
<g id="Kitchen_Scale">
</g>
<g id="Measuring_Cup">
</g>
<g id="Pot_1">
</g>
<g id="Pot_2">
</g>
<g id="Wok_1">
</g>
<g id="Wok_2">
</g>
<g id="Teapot">
</g>
<g id="Plate">
</g>
<g id="Sauce_Boat">
</g>
<g id="Cauldron">
</g>
<g id="Cookbook">
</g>
<g id="Salt_Pot">
</g>
<g id="Pepper_Pot_1">
</g>
<g id="Pepper_Pot_2">
</g>
<g id="Egg_Timer">
</g>
<g id="Olive_Oil_Pot">
</g>
<g id="Pancake_Griddle">
</g>
<g id="Pan">
	<path d="M23,7c-0.039,0-0.078,0.004-0.116,0.014l-9.91,2.359C12.712,8.185,8.845,8,6.5,8C4.072,8,0,8.195,0,9.5l0.004,5.434
		C0.222,16.682,1.715,18,3.477,18h6.047c1.762,0,3.254-1.318,3.477-3.128v-4.418L23,9.5c0.561,0,1-0.549,1-1.25S23.561,7,23,7z
		 M11.628,9.498c-0.033,0.01-0.061,0.02-0.097,0.03c-0.044,0.012-0.089,0.024-0.139,0.037c-0.093,0.023-0.198,0.046-0.31,0.07
		c-0.051,0.01-0.097,0.021-0.152,0.031c-0.173,0.033-0.362,0.065-0.573,0.096c-0.024,0.004-0.054,0.007-0.079,0.01
		c-0.19,0.027-0.395,0.052-0.614,0.075c-0.08,0.009-0.168,0.016-0.253,0.024C9.234,9.888,9.047,9.904,8.85,9.918
		C8.747,9.926,8.642,9.933,8.534,9.939C8.328,9.952,8.11,9.962,7.886,9.971C7.78,9.975,7.677,9.98,7.568,9.983
		C7.229,9.993,6.876,10,6.5,10S5.771,9.993,5.432,9.983C5.322,9.98,5.22,9.975,5.114,9.971C4.89,9.962,4.672,9.952,4.466,9.939
		C4.358,9.933,4.253,9.926,4.15,9.918c-0.197-0.014-0.383-0.03-0.562-0.047C3.503,9.863,3.415,9.856,3.335,9.847
		C3.116,9.823,2.911,9.798,2.721,9.772c-0.025-0.003-0.055-0.007-0.079-0.01C2.431,9.731,2.242,9.698,2.07,9.665
		c-0.055-0.01-0.101-0.021-0.152-0.032C1.806,9.611,1.701,9.588,1.608,9.564C1.559,9.552,1.513,9.54,1.469,9.528
		c-0.036-0.01-0.064-0.02-0.097-0.03C2.146,9.266,3.873,9,6.5,9S10.854,9.266,11.628,9.498z"/>
</g>
<g id="Kettle">
</g>
<g id="Microwave">
</g>
<g id="Cooker">
</g>
<g id="Meat_Grinder">
</g>
<g id="Coffee_Maker">
</g>
<g id="Household_Mixer">
</g>
<g id="Stand_Mixer">
</g>
<g id="Hand_Blender">
</g>
<g id="Blender">
</g>
<g id="Cooker_Hood">
</g>
<g id="Refrigerator">
</g>
<g id="Freezer">
</g>
<g id="Apron">
</g>
<g id="Oven_Gloves">
</g>
<g id="Rolling_Pin">
</g>
<g id="Sieve">
</g>
<g id="Tea_Sieve">
</g>
<g id="Grater">
</g>
<g id="Knife_Holder">
</g>
<g id="Funnel">
</g>
<g id="Kitchen_Clock">
</g>
<g id="Lemon_Juicer">
</g>
<g id="Pastry_Bag_1">
</g>
<g id="Pastry_Bag_2">
</g>
<g id="Corkscrew">
</g>
<g id="Bottle_Opener">
</g>
<g id="Service">
</g>
<g id="Chopsticks">
</g>
<g id="Hatchet">
</g>
<g id="Filleting_Knife">
</g>
<g id="Bread_Knife">
</g>
<g id="Herb_Knife">
</g>
<g id="Whetting">
</g>
<g id="Cake_Knife">
</g>
<g id="Layer_58">
</g>
<g id="Ladle">
</g>
<g id="Sauce_Spoon">
</g>
<g id="Egg_Beater">
</g>
<g id="Meat_Fork">
</g>
<g id="Kitchen_Spoon_1">
</g>
<g id="Kitchen_Spoon_2">
</g>
<g id="Pizza_Cutter">
</g>
<g id="Potato_Musher">
</g>
<g id="Peeler">
</g>
<g id="Honey_Dipper">
</g>
<g id="Fork">
</g>
<g id="Knife">
</g>
<g id="Spoon">
</g>
<g id="Cutlery_Set">
</g>
<g id="Sugar_Bowl">
</g>
<g id="Matches">
</g>
<g id="Cezve">
</g>
</svg>
