<?xml version="1.0" encoding="iso-8859-1"?>
<!-- Generator: Adobe Illustrator 19.2.1, SVG Export Plug-In . SVG Version: 6.00 Build 0)  -->
<svg version="1.1" xmlns="http://www.w3.org/2000/svg" xmlns:xlink="http://www.w3.org/1999/xlink" x="0px" y="0px"
	 viewBox="0 0 24 24" style="enable-background:new 0 0 24 24;" xml:space="preserve">
<g id="Present_1">
</g>
<g id="Present_2">
</g>
<g id="Present_3">
</g>
<g id="Present_Cake">
</g>
<g id="Present_4">
</g>
<g id="Birthday_Cake_1">
</g>
<g id="Birthday_Cake_2">
</g>
<g id="Cake_Piece">
</g>
<g id="Cupcake">
</g>
<g id="Lollipop">
</g>
<g id="Birthday_Greetings_1">
</g>
<g id="Party_Greetings_2">
	<g>
		<path d="M23.46,7.816L23,7.432V9.5c0,0.162-0.079,0.314-0.21,0.408L22,10.468l0,0l-7.81,5.541l6.085,4.49l0,0l3.522,2.598
			c0.02,0.015,0.031,0.036,0.048,0.053C23.941,22.953,24,22.734,24,22.5V8.968C24,8.522,23.803,8.102,23.46,7.816z"/>
		<path d="M18.59,20.498l-5.71-4.214c-0.525-0.382-1.234-0.381-1.762,0.002L0.864,23.853C1.057,23.945,1.272,24,1.5,24h21
			c0.228,0,0.443-0.055,0.636-0.147L18.59,20.498L18.59,20.498z"/>
		<path d="M2,10.468L2,10.468l-0.79-0.56C1.079,9.814,1,9.662,1,9.5V7.433L0.54,7.816C0.197,8.102,0,8.522,0,8.968V22.5
			c0,0.234,0.059,0.453,0.155,0.651c0.017-0.017,0.028-0.039,0.048-0.053l9.607-7.089L2,10.468z"/>
		<path d="M10,9c0-0.276,0.224-0.5,0.5-0.5S11,8.724,11,9c0,0.551,0.449,1,1,1s1-0.449,1-1c0-0.276,0.224-0.5,0.5-0.5S14,8.724,14,9
			c0,0.551,0.449,1,1,1s1-0.449,1-1V8.5C16,8.224,15.776,8,15.5,8h-3h-1h-3C8.224,8,8,8.224,8,8.5V9c0,0.551,0.449,1,1,1
			S10,9.551,10,9z"/>
		<path d="M13.331,15.393L22,9.242V6.599V5.5v-5C22,0.224,21.776,0,21.5,0h-19C2.224,0,2,0.224,2,0.5v4v2.099v2.643l8.669,6.151
			C11.487,14.877,12.515,14.877,13.331,15.393z M8,11.5v-0.778C7.405,10.375,7,9.737,7,9V8.5C7,7.673,7.673,7,8.5,7H11V6.833V5
			c0-0.276,0.224-0.5,0.5-0.5H12c-0.551,0-1-0.449-1-1c0-0.357,0.32-0.896,0.589-1.284c0.187-0.271,0.636-0.271,0.822,0
			C12.68,2.604,13,3.143,13,3.5c0,0.551-0.449,1-1,1h0.5C12.776,4.5,13,4.724,13,5v1.833V7h2.5C16.327,7,17,7.673,17,8.5V9
			c0,0.737-0.405,1.375-1,1.722V11.5c0,0.827-0.673,1.5-1.5,1.5h-5C8.673,13,8,12.327,8,11.5z"/>
		<path d="M15,11.5V11c-0.597,0-1.133-0.263-1.5-0.679C13.133,10.737,12.597,11,12,11s-1.133-0.263-1.5-0.679
			C10.133,10.737,9.597,11,9,11v0.5C9,11.776,9.224,12,9.5,12h5C14.776,12,15,11.776,15,11.5z"/>
	</g>
</g>
<g id="Birthday_Invitation">
</g>
<g id="Birthday_1">
</g>
<g id="Birthday_2">
</g>
<g id="Birthday_Message_1">
</g>
<g id="Birthday_Message_2">
</g>
<g id="Birthyday_Hat_1">
</g>
<g id="Birthay_Hat_2">
</g>
<g id="Birthday_Hat3">
</g>
<g id="Birthday_Decoration_1">
</g>
<g id="Birthday_Decoration_2">
</g>
<g id="Birthday_Decoration_3">
</g>
<g id="Horn_1">
</g>
<g id="Horn_2">
</g>
<g id="Baloon">
</g>
<g id="Balloons_1">
</g>
<g id="Balloons_2">
</g>
<g id="Birthday_Picture">
</g>
<g id="Kid_x27_s_Champagne">
</g>
<g id="Candy">
</g>
<g id="Birthday_Card">
</g>
<g id="Flowers">
</g>
<g id="Birthday_Song">
</g>
<g id="Candle">
</g>
<g id="Sweet_16">
</g>
<g id="Clown">
</g>
<g id="Clown_2">
</g>
<g id="Birthday_Party">
</g>
<g id="Giving_Gift">
</g>
<g id="Present_5">
</g>
<g id="Champagne_in_ice_bucket">
</g>
<g id="Beer">
</g>
<g id="Truffles">
</g>
<g id="Pinata">
</g>
</svg>
