<?xml version="1.0" encoding="iso-8859-1"?>
<!-- Generator: Adobe Illustrator 19.2.1, SVG Export Plug-In . SVG Version: 6.00 Build 0)  -->
<svg version="1.1" xmlns="http://www.w3.org/2000/svg" xmlns:xlink="http://www.w3.org/1999/xlink" x="0px" y="0px"
	 viewBox="0 0 24 24" style="enable-background:new 0 0 24 24;" xml:space="preserve">
<g id="Event">
</g>
<g id="Event_2">
</g>
<g id="Add_Event">
</g>
<g id="Remove_Event">
</g>
<g id="Event_Reminder">
</g>
<g id="Wine_Glass">
</g>
<g id="Toast">
</g>
<g id="Champagne">
</g>
<g id="Champagne_Open">
</g>
<g id="Alcohol_Drink">
</g>
<g id="Beer_Glass">
</g>
<g id="Party_Cake">
	<path d="M24,5c0-1.654-1.346-3-3-3c-0.518,0-1.025,0.138-1.475,0.396C18.983,1.542,18.032,1,17,1c-0.518,0-1.025,0.138-1.475,0.396
		C14.983,0.542,14.032,0,13,0c-1.654,0-3,1.346-3,3c0,0.646,0.209,1.241,0.558,1.731L0.155,14.638
		c-0.002,0.002-0.002,0.004-0.004,0.005c-0.012,0.012-0.02,0.028-0.031,0.042c-0.003,0.004-0.005,0.008-0.008,0.011
		c-0.013,0.016-0.022,0.031-0.032,0.048c-0.011,0.016-0.025,0.031-0.033,0.049c-0.008,0.018-0.011,0.038-0.017,0.058
		c-0.013,0.04-0.022,0.08-0.025,0.122C0.005,14.983,0,14.99,0,15v4v4.5c0,0.163,0.08,0.316,0.213,0.41C0.298,23.969,0.399,24,0.5,24
		c0.058,0,0.115-0.01,0.171-0.03l22-8C22.869,15.898,23,15.71,23,15.5V11V7.22C23.609,6.67,24,5.883,24,5z M22,10.65L1,18.286V15.35
		l20.295-7.38C21.54,7.946,21.776,7.896,22,7.816V10.65z M22.228,6.567l-1.176,0.428C21.034,6.995,21.018,7,21,7
		c-0.192,0-0.379-0.035-0.558-0.088l-0.615-0.308c-0.31-0.229-0.559-0.542-0.697-0.92c-0.057-0.156-0.188-0.273-0.349-0.313
		c-0.04-0.01-0.081-0.015-0.121-0.015c-0.122,0-0.241,0.044-0.333,0.127C17.955,5.816,17.483,6,17,6
		c-0.831,0-1.582-0.529-1.87-1.315c-0.057-0.156-0.188-0.273-0.349-0.313c-0.16-0.042-0.331,0.001-0.455,0.112
		C13.955,4.816,13.483,5,13,5c-1.103,0-2-0.897-2-2s0.897-2,2-2c0.831,0,1.582,0.529,1.87,1.315
		c0.057,0.156,0.188,0.273,0.349,0.313c0.16,0.042,0.331-0.001,0.455-0.112C16.045,2.184,16.517,2,17,2
		c0.831,0,1.582,0.529,1.87,1.315c0.057,0.156,0.188,0.273,0.349,0.313c0.16,0.042,0.331-0.001,0.455-0.112
		C20.045,3.184,20.517,3,21,3c1.103,0,2,0.897,2,2C23,5.638,22.694,6.201,22.228,6.567z"/>
</g>
<g id="Pizza_Food">
</g>
<g id="Disco_Ball">
</g>
<g id="Equalizer">
</g>
<g id="DJ">
</g>
<g id="Tent">
</g>
<g id="Firework_1">
</g>
<g id="Firework_2">
</g>
<g id="Party_Glasses">
</g>
<g id="Barbeque">
</g>
<g id="Horn">
</g>
<g id="Speaker">
</g>
<g id="VIP">
</g>
<g id="Event_Ticket">
</g>
<g id="VIP_Ticket">
</g>
<g id="Popcorn">
</g>
<g id="Cord">
</g>
<g id="Invitation_1">
</g>
<g id="Invitation_2">
</g>
</svg>
