<?xml version="1.0" encoding="iso-8859-1"?>
<!-- Generator: Adobe Illustrator 19.2.1, SVG Export Plug-In . SVG Version: 6.00 Build 0)  -->
<svg version="1.1" xmlns="http://www.w3.org/2000/svg" xmlns:xlink="http://www.w3.org/1999/xlink" x="0px" y="0px"
	 viewBox="0 0 24 24" style="enable-background:new 0 0 24 24;" xml:space="preserve">
<g id="Event">
</g>
<g id="Event_2">
</g>
<g id="Add_Event">
</g>
<g id="Remove_Event">
</g>
<g id="Event_Reminder">
</g>
<g id="Wine_Glass">
</g>
<g id="Toast">
</g>
<g id="Champagne">
</g>
<g id="Champagne_Open">
</g>
<g id="Alcohol_Drink">
</g>
<g id="Beer_Glass">
</g>
<g id="Party_Cake">
</g>
<g id="Pizza_Food">
</g>
<g id="Disco_Ball">
</g>
<g id="Equalizer">
</g>
<g id="DJ">
</g>
<g id="Tent">
</g>
<g id="Firework_1">
</g>
<g id="Firework_2">
</g>
<g id="Party_Glasses">
	<path d="M23.707,9.414c-0.013-0.074-0.041-0.14-0.083-0.199c-0.166-0.38-0.368-0.743-0.643-1.054C22.321,7.412,21.438,7,20.496,7
		H3.503C2.562,7,1.679,7.412,1.019,8.161C0.744,8.472,0.542,8.835,0.376,9.216C0.334,9.274,0.307,9.34,0.293,9.414
		c-0.241,0.643-0.345,1.345-0.256,2.063l0.021,0.161c0.092,0.736,0.337,1.407,0.677,2.003c0.026,0.087,0.069,0.164,0.134,0.224
		C1.694,15.156,3.028,16,4.514,16h1.265c1.751,0,3.372-0.802,4.565-2.142c0.006-0.006,0.01-0.012,0.016-0.018
		c0.528-0.597,0.969-1.297,1.297-2.09c0.019-0.033,0.035-0.066,0.047-0.103c0.018-0.045,0.043-0.086,0.06-0.132
		c0.245-0.652,0.27-1.341,0.133-1.995c0-0.007,0.004-0.013,0.004-0.02c0-0.086-0.027-0.163-0.065-0.233
		c-0.103-0.355-0.241-0.7-0.456-1.01C11.316,8.167,11.25,8.081,11.181,8h1.638c-0.069,0.081-0.136,0.167-0.197,0.256
		c-0.215,0.31-0.353,0.655-0.456,1.01C12.127,9.337,12.1,9.414,12.1,9.5c0,0.007,0.004,0.013,0.004,0.02
		c-0.137,0.654-0.111,1.344,0.135,2c0.016,0.043,0.039,0.081,0.056,0.124c0.012,0.039,0.029,0.075,0.05,0.109
		c0.32,0.776,0.751,1.463,1.266,2.052c0.017,0.022,0.032,0.043,0.053,0.062C14.856,15.201,16.474,16,18.221,16h1.265
		c1.486,0,2.82-0.844,3.645-2.136c0.065-0.06,0.108-0.137,0.134-0.224c0.339-0.596,0.585-1.267,0.677-2.003l0.021-0.163
		C24.052,10.758,23.948,10.056,23.707,9.414z M3.503,8h5.577c0.574,0,1.112,0.301,1.476,0.826C10.594,8.88,10.614,8.943,10.646,9
		H1.644C1.688,8.942,1.72,8.877,1.768,8.822C2.237,8.292,2.853,8,3.503,8z M9.765,13H1.514c-0.159-0.309-0.278-0.644-0.363-1h9.297
		C10.252,12.366,10.017,12.692,9.765,13z M1.021,11c-0.008-0.343,0.019-0.682,0.11-1h9.842c0.032,0.333-0.009,0.672-0.107,1H1.021z
		 M4.514,15c-0.864,0-1.669-0.376-2.288-1h6.505c-0.865,0.637-1.882,1-2.952,1H4.514z M22.486,13h-8.25
		c-0.252-0.307-0.487-0.634-0.684-1h9.297C22.764,12.356,22.645,12.691,22.486,13z M13.133,11c-0.098-0.327-0.139-0.666-0.107-1
		h9.842c0.091,0.318,0.118,0.657,0.11,1H13.133z M14.919,8h5.576c0.651,0,1.268,0.292,1.736,0.823
		c0.048,0.054,0.08,0.12,0.124,0.177h-9.003c0.033-0.057,0.053-0.12,0.09-0.174C13.807,8.301,14.345,8,14.919,8z M19.486,15h-1.265
		c-1.07,0-2.086-0.363-2.951-1h6.504C21.155,14.624,20.35,15,19.486,15z"/>
</g>
<g id="Barbeque">
</g>
<g id="Horn">
</g>
<g id="Speaker">
</g>
<g id="VIP">
</g>
<g id="Event_Ticket">
</g>
<g id="VIP_Ticket">
</g>
<g id="Popcorn">
</g>
<g id="Cord">
</g>
<g id="Invitation_1">
</g>
<g id="Invitation_2">
</g>
</svg>
