<?xml version="1.0" encoding="iso-8859-1"?>
<!-- Generator: Adobe Illustrator 19.2.1, SVG Export Plug-In . SVG Version: 6.00 Build 0)  -->
<svg version="1.1" xmlns="http://www.w3.org/2000/svg" xmlns:xlink="http://www.w3.org/1999/xlink" x="0px" y="0px"
	 viewBox="0 0 30 30" style="enable-background:new 0 0 30 30;" xml:space="preserve">
<g id="Cutting_Board_1">
</g>
<g id="Cutting_Board_2">
</g>
<g id="Chef_x27_s_Hat_1">
</g>
<g id="Chef_x27_s_Hat_2">
</g>
<g id="Kitchen_Scale">
</g>
<g id="Measuring_Cup">
</g>
<g id="Pot_1">
</g>
<g id="Pot_2">
</g>
<g id="Wok_1">
</g>
<g id="Wok_2">
</g>
<g id="Teapot">
</g>
<g id="Plate">
</g>
<g id="Sauce_Boat">
</g>
<g id="Cauldron">
</g>
<g id="Cookbook">
</g>
<g id="Salt_Pot">
</g>
<g id="Pepper_Pot_1">
</g>
<g id="Pepper_Pot_2">
</g>
<g id="Egg_Timer">
</g>
<g id="Olive_Oil_Pot">
</g>
<g id="Pancake_Griddle">
</g>
<g id="Pan">
</g>
<g id="Kettle">
</g>
<g id="Microwave">
</g>
<g id="Cooker">
</g>
<g id="Meat_Grinder">
</g>
<g id="Coffee_Maker">
</g>
<g id="Household_Mixer">
</g>
<g id="Stand_Mixer">
</g>
<g id="Hand_Blender">
</g>
<g id="Blender">
</g>
<g id="Cooker_Hood">
</g>
<g id="Refrigerator">
</g>
<g id="Freezer">
</g>
<g id="Apron">
</g>
<g id="Oven_Gloves">
</g>
<g id="Rolling_Pin">
</g>
<g id="Sieve">
</g>
<g id="Tea_Sieve">
</g>
<g id="Grater">
</g>
<g id="Knife_Holder">
</g>
<g id="Funnel">
</g>
<g id="Kitchen_Clock">
</g>
<g id="Lemon_Juicer">
</g>
<g id="Pastry_Bag_1">
	<g>
		<g>
			<path d="M14,30c-0.178,0-0.343-0.095-0.432-0.248L5.076,15.165c-1.135-1.949-0.535-4.45,1.366-5.693l3.903-3.091L7.571,1.757
				C7.497,1.633,7.479,1.481,7.525,1.344c0.045-0.139,0.149-0.25,0.283-0.306C7.911,0.996,10.356,0,14,0
				c3.37,0,6.062,0.989,6.175,1.031c0.139,0.052,0.248,0.163,0.297,0.304c0.049,0.14,0.034,0.295-0.043,0.422l-2.774,4.624
				l3.939,3.116c1.865,1.218,2.465,3.719,1.33,5.668l-8.492,14.587C14.343,29.905,14.178,30,14,30z M8.745,1.77l2.684,4.474
				c0.129,0.215,0.079,0.493-0.119,0.649l-4.284,3.39c-1.492,0.979-1.953,2.891-1.086,4.379L14,28.506l8.06-13.845
				c0.867-1.488,0.406-3.4-1.05-4.354l-4.32-3.415c-0.197-0.156-0.248-0.435-0.119-0.649l2.677-4.461C18.302,1.5,16.298,1,14,1
				C11.542,1,9.637,1.488,8.745,1.77z"/>
		</g>
		<g>
			<path d="M17,7h-6c-0.276,0-0.5-0.224-0.5-0.5S10.724,6,11,6h6c0.276,0,0.5,0.224,0.5,0.5S17.276,7,17,7z"/>
		</g>
		<g>
			<path d="M11,12c-0.062,0-0.125-0.012-0.186-0.036c-0.256-0.103-0.381-0.394-0.279-0.649l2-5c0.103-0.256,0.395-0.382,0.65-0.278
				c0.256,0.103,0.381,0.394,0.279,0.649l-2,5C11.386,11.881,11.198,12,11,12z"/>
		</g>
		<g>
			<path d="M17,12c-0.198,0-0.386-0.119-0.464-0.314l-2-5c-0.103-0.256,0.022-0.547,0.279-0.649c0.254-0.104,0.547,0.022,0.65,0.278
				l2,5c0.103,0.256-0.022,0.547-0.279,0.649C17.125,11.988,17.062,12,17,12z"/>
		</g>
		<g>
			<path d="M16.5,25h-5c-0.276,0-0.5-0.224-0.5-0.5s0.224-0.5,0.5-0.5h5c0.276,0,0.5,0.224,0.5,0.5S16.776,25,16.5,25z"/>
		</g>
	</g>
</g>
<g id="Pastry_Bag_2">
</g>
<g id="Corkscrew">
</g>
<g id="Bottle_Opener">
</g>
<g id="Service">
</g>
<g id="Chopsticks">
</g>
<g id="Hatchet">
</g>
<g id="Filleting_Knife">
</g>
<g id="Bread_Knife">
</g>
<g id="Herb_Knife">
</g>
<g id="Whetting">
</g>
<g id="Cake_Knife">
</g>
<g id="Layer_58">
</g>
<g id="Ladle">
</g>
<g id="Sauce_Spoon">
</g>
<g id="Egg_Beater">
</g>
<g id="Meat_Fork">
</g>
<g id="Kitchen_Spoon_1">
</g>
<g id="Kitchen_Spoon_2">
</g>
<g id="Pizza_Cutter">
</g>
<g id="Potato_Musher">
</g>
<g id="Peeler">
</g>
<g id="Honey_Dipper">
</g>
<g id="Fork">
</g>
<g id="Knife">
</g>
<g id="Spoon">
</g>
<g id="Cutlery_Set">
</g>
<g id="Sugar_Bowl">
</g>
<g id="Matches">
</g>
<g id="Cezve">
</g>
</svg>
