<?xml version="1.0" encoding="iso-8859-1"?>
<!-- Generator: Adobe Illustrator 19.2.1, SVG Export Plug-In . SVG Version: 6.00 Build 0)  -->
<svg version="1.1" xmlns="http://www.w3.org/2000/svg" xmlns:xlink="http://www.w3.org/1999/xlink" x="0px" y="0px"
	 viewBox="0 0 24 24" style="enable-background:new 0 0 24 24;" xml:space="preserve">
<g id="Restaurant_sign_1">
</g>
<g id="Restaurant_Sign_2">
</g>
<g id="Restaurant_Sign_3">
</g>
<g id="Hot_Drink_1">
</g>
<g id="Hot_Drink_2">
</g>
<g id="Cocktail">
</g>
<g id="Shot_Glasses">
</g>
<g id="Chilled_Champagne">
</g>
<g id="Wine">
</g>
<g id="Wine_List">
</g>
<g id="Menu">
</g>
<g id="Menu_2">
</g>
<g id="Salver">
</g>
<g id="Soup">
</g>
<g id="Sushi">
</g>
<g id="Pizza">
</g>
<g id="Pizza_Slice">
</g>
<g id="Fish">
</g>
<g id="Sausage">
</g>
<g id="Course">
</g>
<g id="Dessert">
</g>
<g id="Cutlery">
</g>
<g id="Napkin">
</g>
<g id="Table">
</g>
<g id="Spices">
</g>
<g id="Hot_Sauce">
</g>
<g id="Reserved_1">
</g>
<g id="Reserved_2">
</g>
<g id="Open">
</g>
<g id="Food_Photo">
</g>
<g id="Chef">
</g>
<g id="Bill">
</g>
<g id="Bill_2">
</g>
<g id="Paying_1">
</g>
<g id="Paying_2">
	<g>
		<path d="M23.846,11.139l-11.5-11c-0.193-0.185-0.498-0.185-0.691,0l-11.5,11c-0.147,0.141-0.194,0.358-0.118,0.547
			C0.112,11.876,0.296,12,0.5,12H3v11.5C3,23.776,3.224,24,3.5,24h17c0.276,0,0.5-0.224,0.5-0.5V12h2.5
			c0.204,0,0.388-0.124,0.464-0.314C24.04,11.497,23.993,11.28,23.846,11.139z M18.854,17.854l-0.414,0.414
			C17.967,18.74,17.34,19,16.672,19H7.329c-0.668,0-1.296-0.26-1.768-0.732l-0.414-0.414c-0.195-0.195-0.195-0.512,0-0.707
			s0.512-0.195,0.707,0l0.186,0.186c0.297-2.669,2.352-4.81,4.978-5.245C11.015,12.057,11,12.031,11,12c0-0.551,0.449-1,1-1
			s1,0.449,1,1c0,0.031-0.015,0.057-0.018,0.088c2.626,0.435,4.681,2.575,4.978,5.245l0.186-0.186c0.195-0.195,0.512-0.195,0.707,0
			S19.049,17.658,18.854,17.854z"/>
		<path d="M12,13c-2.744,0-4.975,2.223-4.996,4.962C7.11,17.985,7.218,18,7.329,18h9.343c0.11,0,0.218-0.015,0.324-0.039
			C16.974,15.223,14.743,13,12,13z M11.56,15.031c-0.991,0.147-1.84,0.777-2.272,1.687c-0.086,0.18-0.265,0.285-0.452,0.285
			c-0.072,0-0.145-0.016-0.214-0.049c-0.249-0.118-0.355-0.416-0.237-0.666c0.576-1.21,1.708-2.05,3.029-2.245
			c0.275-0.038,0.528,0.148,0.568,0.421C12.022,14.737,11.833,14.991,11.56,15.031z"/>
		<polygon points="12.5,12 12,11.999 12,12 		"/>
	</g>
</g>
<g id="Restaurant_Place">
</g>
</svg>
