<?xml version="1.0" encoding="iso-8859-1"?>
<!-- Generator: Adobe Illustrator 19.2.1, SVG Export Plug-In . SVG Version: 6.00 Build 0)  -->
<svg version="1.1" xmlns="http://www.w3.org/2000/svg" xmlns:xlink="http://www.w3.org/1999/xlink" x="0px" y="0px"
	 viewBox="0 0 24 24" style="enable-background:new 0 0 24 24;" xml:space="preserve">
<g id="Restaurant_sign_1">
</g>
<g id="Restaurant_Sign_2">
</g>
<g id="Restaurant_Sign_3">
</g>
<g id="Hot_Drink_1">
</g>
<g id="Hot_Drink_2">
</g>
<g id="Cocktail">
</g>
<g id="Shot_Glasses">
</g>
<g id="Chilled_Champagne">
</g>
<g id="Wine">
</g>
<g id="Wine_List">
</g>
<g id="Menu">
</g>
<g id="Menu_2">
</g>
<g id="Salver">
</g>
<g id="Soup">
</g>
<g id="Sushi">
</g>
<g id="Pizza">
</g>
<g id="Pizza_Slice">
</g>
<g id="Fish">
</g>
<g id="Sausage">
</g>
<g id="Course">
</g>
<g id="Dessert">
</g>
<g id="Cutlery">
</g>
<g id="Napkin">
</g>
<g id="Table">
</g>
<g id="Spices">
</g>
<g id="Hot_Sauce">
</g>
<g id="Reserved_1">
</g>
<g id="Reserved_2">
</g>
<g id="Open">
</g>
<g id="Food_Photo">
</g>
<g id="Chef">
</g>
<g id="Bill">
</g>
<g id="Bill_2">
</g>
<g id="Paying_1">
	<g>
		<polygon points="12.5,11 12,10.999 12,11 		"/>
		<path d="M12,12c-2.929,0-5.435,2.156-5.931,5h11.863C17.437,14.156,14.931,12,12,12z M11.555,13.997
			c-1.153,0.127-2.207,0.781-2.89,1.794c-0.097,0.143-0.254,0.22-0.415,0.22c-0.096,0-0.193-0.027-0.279-0.086
			c-0.229-0.154-0.289-0.465-0.135-0.694c0.849-1.256,2.164-2.068,3.61-2.228c0.282-0.03,0.521,0.168,0.552,0.442
			S11.829,13.967,11.555,13.997z"/>
		<path d="M5.309,18l0.085,0.171C5.65,18.683,6.164,19,6.736,19h10.528c0.572,0,1.086-0.317,1.342-0.829L18.691,18H5.309z"/>
		<path d="M21.5,6h-1.824l-7.363-5.891c-0.183-0.146-0.442-0.146-0.625,0L4.324,6H2.5C1.122,6,0,7.122,0,8.5v13
			C0,22.879,1.122,24,2.5,24h19c1.379,0,2.5-1.121,2.5-2.5v-13C24,7.122,22.879,6,21.5,6z M12,1.14L18.074,6H5.926L12,1.14z
			 M19.947,17.724L19.5,18.618C19.074,19.471,18.217,20,17.264,20H6.736c-0.953,0-1.81-0.529-2.236-1.382l-0.447-0.895
			c-0.078-0.155-0.069-0.339,0.022-0.486S4.327,17,4.5,17h0.561c0.458-3.072,2.919-5.485,5.955-5.922C11.014,11.051,11,11.028,11,11
			c0-0.551,0.449-1,1-1s1,0.449,1,1c0,0.028-0.014,0.051-0.016,0.078c3.036,0.437,5.498,2.85,5.954,5.922H19.5
			c0.173,0,0.334,0.09,0.426,0.237C20.017,17.385,20.024,17.568,19.947,17.724z"/>
	</g>
</g>
<g id="Paying_2">
</g>
<g id="Restaurant_Place">
</g>
</svg>
