<?xml version="1.0" encoding="iso-8859-1"?>
<!-- Generator: Adobe Illustrator 19.2.1, SVG Export Plug-In . SVG Version: 6.00 Build 0)  -->
<svg version="1.1" xmlns="http://www.w3.org/2000/svg" xmlns:xlink="http://www.w3.org/1999/xlink" x="0px" y="0px"
	 viewBox="0 0 30 30" style="enable-background:new 0 0 30 30;" xml:space="preserve">
<g id="Cutting_Board_1">
</g>
<g id="Cutting_Board_2">
</g>
<g id="Chef_x27_s_Hat_1">
</g>
<g id="Chef_x27_s_Hat_2">
</g>
<g id="Kitchen_Scale">
</g>
<g id="Measuring_Cup">
</g>
<g id="Pot_1">
</g>
<g id="Pot_2">
</g>
<g id="Wok_1">
</g>
<g id="Wok_2">
</g>
<g id="Teapot">
</g>
<g id="Plate">
</g>
<g id="Sauce_Boat">
</g>
<g id="Cauldron">
</g>
<g id="Cookbook">
</g>
<g id="Salt_Pot">
</g>
<g id="Pepper_Pot_1">
</g>
<g id="Pepper_Pot_2">
	<g>
		<g>
			<path d="M15,30c-3.371,0-7-0.748-7-2.391v-3.783c0-2.073,0.374-3.854,0.735-5.575c0.096-0.455,0.189-0.902,0.273-1.345
				c0.243-1.275,0.046-3.393-0.489-5.269C8.304,11.073,8,10.19,8,9.5C8,6.103,11.634,4,15,4s7,2.103,7,5.5
				c0,0.69-0.304,1.573-0.532,2.177c-0.604,2.124-0.591,4.044-0.47,5.274l0,0c0.078,0.802,0.247,1.62,0.426,2.485
				C21.707,20.805,22,22.219,22,23.826v3.783C22,29.252,18.371,30,15,30z M15,5c-2.897,0-6,1.808-6,4.5
				c0,0.587,0.352,1.518,0.468,1.823c0.588,2.052,0.793,4.355,0.523,5.771c-0.085,0.448-0.181,0.901-0.277,1.363
				C9.363,20.128,9,21.857,9,23.826v3.783C9,28.025,11.041,29,15,29s6-0.975,6-1.391v-3.783c0-1.504-0.282-2.868-0.555-4.187
				c-0.185-0.893-0.359-1.735-0.443-2.59c-0.129-1.317-0.144-3.372,0.518-5.686C20.648,11.018,21,10.087,21,9.5
				C21,6.808,17.897,5,15,5z"/>
		</g>
		<g>
			<path d="M10.5,23c-0.276,0-0.5-0.224-0.5-0.5c0-1.29,0.168-1.875,0.381-2.617c0.097-0.337,0.205-0.713,0.312-1.221l0.021-0.103
				c0.091-0.432,0.18-0.857,0.26-1.278c0.052-0.272,0.311-0.45,0.585-0.398c0.271,0.052,0.449,0.313,0.397,0.584
				c-0.081,0.427-0.172,0.859-0.264,1.297l-0.021,0.103c-0.112,0.538-0.227,0.935-0.329,1.292C11.144,20.851,11,21.351,11,22.5
				C11,22.776,10.776,23,10.5,23z"/>
		</g>
		<g>
			<path d="M15,12c-2.707,0-5.655-0.924-6.857-2.15C7.949,9.653,7.953,9.336,8.149,9.143C8.349,8.949,8.664,8.954,8.857,9.15
				C9.857,10.17,12.613,11,15,11s5.143-0.83,6.143-1.85c0.195-0.196,0.511-0.201,0.708-0.007c0.196,0.193,0.2,0.51,0.007,0.707
				C20.655,11.076,17.707,12,15,12z"/>
		</g>
		<g>
			<path d="M15,26.217c-2.866,0-5.486-0.77-6.838-2.008c-0.203-0.187-0.217-0.503-0.03-0.707c0.188-0.204,0.504-0.216,0.706-0.031
				c1.156,1.061,3.575,1.746,6.162,1.746s5.006-0.686,6.162-1.746c0.203-0.186,0.52-0.172,0.706,0.031
				c0.187,0.204,0.173,0.52-0.03,0.707C20.487,25.447,17.867,26.217,15,26.217z"/>
		</g>
		<g>
			<path d="M15,6.043c-0.276,0-0.5-0.224-0.5-0.5V3.5C14.5,3.224,14.724,3,15,3s0.5,0.224,0.5,0.5v2.043
				C15.5,5.82,15.276,6.043,15,6.043z"/>
		</g>
		<g>
			<path d="M15,4c-1.103,0-2-0.897-2-2s0.897-2,2-2s2,0.897,2,2S16.103,4,15,4z M15,1c-0.552,0-1,0.449-1,1s0.448,1,1,1s1-0.449,1-1
				S15.552,1,15,1z"/>
		</g>
	</g>
</g>
<g id="Egg_Timer">
</g>
<g id="Olive_Oil_Pot">
</g>
<g id="Pancake_Griddle">
</g>
<g id="Pan">
</g>
<g id="Kettle">
</g>
<g id="Microwave">
</g>
<g id="Cooker">
</g>
<g id="Meat_Grinder">
</g>
<g id="Coffee_Maker">
</g>
<g id="Household_Mixer">
</g>
<g id="Stand_Mixer">
</g>
<g id="Hand_Blender">
</g>
<g id="Blender">
</g>
<g id="Cooker_Hood">
</g>
<g id="Refrigerator">
</g>
<g id="Freezer">
</g>
<g id="Apron">
</g>
<g id="Oven_Gloves">
</g>
<g id="Rolling_Pin">
</g>
<g id="Sieve">
</g>
<g id="Tea_Sieve">
</g>
<g id="Grater">
</g>
<g id="Knife_Holder">
</g>
<g id="Funnel">
</g>
<g id="Kitchen_Clock">
</g>
<g id="Lemon_Juicer">
</g>
<g id="Pastry_Bag_1">
</g>
<g id="Pastry_Bag_2">
</g>
<g id="Corkscrew">
</g>
<g id="Bottle_Opener">
</g>
<g id="Service">
</g>
<g id="Chopsticks">
</g>
<g id="Hatchet">
</g>
<g id="Filleting_Knife">
</g>
<g id="Bread_Knife">
</g>
<g id="Herb_Knife">
</g>
<g id="Whetting">
</g>
<g id="Cake_Knife">
</g>
<g id="Layer_58">
</g>
<g id="Ladle">
</g>
<g id="Sauce_Spoon">
</g>
<g id="Egg_Beater">
</g>
<g id="Meat_Fork">
</g>
<g id="Kitchen_Spoon_1">
</g>
<g id="Kitchen_Spoon_2">
</g>
<g id="Pizza_Cutter">
</g>
<g id="Potato_Musher">
</g>
<g id="Peeler">
</g>
<g id="Honey_Dipper">
</g>
<g id="Fork">
</g>
<g id="Knife">
</g>
<g id="Spoon">
</g>
<g id="Cutlery_Set">
</g>
<g id="Sugar_Bowl">
</g>
<g id="Matches">
</g>
<g id="Cezve">
</g>
</svg>
