<?xml version="1.0" encoding="iso-8859-1"?>
<!-- Generator: Adobe Illustrator 19.2.1, SVG Export Plug-In . SVG Version: 6.00 Build 0)  -->
<svg version="1.1" xmlns="http://www.w3.org/2000/svg" xmlns:xlink="http://www.w3.org/1999/xlink" x="0px" y="0px"
	 viewBox="0 0 24 24" style="enable-background:new 0 0 24 24;" xml:space="preserve">
<g id="Cutting_Board_1">
</g>
<g id="Cutting_Board_2">
</g>
<g id="Chef_x27_s_Hat_1">
</g>
<g id="Chef_x27_s_Hat_2">
</g>
<g id="Kitchen_Scale">
</g>
<g id="Measuring_Cup">
</g>
<g id="Pot_1">
</g>
<g id="Pot_2">
</g>
<g id="Wok_1">
</g>
<g id="Wok_2">
</g>
<g id="Teapot">
</g>
<g id="Plate">
</g>
<g id="Sauce_Boat">
</g>
<g id="Cauldron">
</g>
<g id="Cookbook">
</g>
<g id="Salt_Pot">
</g>
<g id="Pepper_Pot_1">
</g>
<g id="Pepper_Pot_2">
	<g>
		<path d="M9,18.5c0.276,0,0.5-0.224,0.5-0.5c0-1.388,0.211-1.95,0.676-3.183l0.167-0.445c0.097-0.259-0.034-0.547-0.292-0.644
			s-0.546,0.034-0.644,0.292l-0.167,0.446C8.763,15.732,8.5,16.43,8.5,18C8.5,18.276,8.724,18.5,9,18.5z"/>
		<path d="M16.78,14.575c-0.104-0.406-0.206-0.801-0.292-1.185c-0.264-1.173-0.183-2.637,0.217-4.084
			c0.093-0.254,0.165-0.517,0.217-0.787l0-0.001C16.975,8.245,17,7.994,17,7.75c0-2.456-1.98-4.46-4.5-4.702v-0.14
			c0.581-0.207,1-0.757,1-1.408C13.5,0.673,12.827,0,12,0s-1.5,0.673-1.5,1.5c0,0.651,0.419,1.201,1,1.408v0.14
			C8.98,3.29,7,5.294,7,7.75c0,0.242,0.025,0.493,0.077,0.767l0,0c0,0,0,0.001,0,0.001c0.052,0.27,0.125,0.533,0.206,0.75
			c0.477,1.72,0.568,3.199,0.249,4.058C6.856,15.142,6.5,17.104,6.5,19v0.595V22c0,1.374,2.851,2,5.5,2s5.5-0.626,5.5-2v-2.405V19
			C17.5,17.382,17.117,15.891,16.78,14.575z M8.469,13.674c0.479-1.289,0.173-3.109-0.129-4.314
			c0.285,0.111,0.594,0.203,0.913,0.284c0.195,0.051,0.401,0.088,0.606,0.128c0.111,0.021,0.221,0.042,0.334,0.059
			C10.774,9.924,11.374,9.989,12,9.989c0.624,0,1.223-0.065,1.802-0.158c0.118-0.018,0.231-0.04,0.346-0.061
			c0.201-0.039,0.402-0.075,0.594-0.125c0.321-0.081,0.631-0.173,0.917-0.285c-0.372,1.519-0.425,3.015-0.147,4.249
			c0.088,0.393,0.192,0.797,0.299,1.213C16.15,16.144,16.5,17.509,16.5,19v0.246c-0.115,0.046-0.236,0.089-0.359,0.13
			c-0.179,0.06-0.354,0.123-0.548,0.173c-0.079,0.021-0.165,0.037-0.246,0.057c-2.019,0.475-4.676,0.475-6.695,0
			c-0.081-0.02-0.167-0.036-0.246-0.057c-0.194-0.051-0.368-0.113-0.547-0.173c-0.123-0.042-0.244-0.085-0.359-0.131V19
			C7.5,16.753,8.027,14.863,8.469,13.674z"/>
	</g>
</g>
<g id="Egg_Timer">
</g>
<g id="Olive_Oil_Pot">
</g>
<g id="Pancake_Griddle">
</g>
<g id="Pan">
</g>
<g id="Kettle">
</g>
<g id="Microwave">
</g>
<g id="Cooker">
</g>
<g id="Meat_Grinder">
</g>
<g id="Coffee_Maker">
</g>
<g id="Household_Mixer">
</g>
<g id="Stand_Mixer">
</g>
<g id="Hand_Blender">
</g>
<g id="Blender">
</g>
<g id="Cooker_Hood">
</g>
<g id="Refrigerator">
</g>
<g id="Freezer">
</g>
<g id="Apron">
</g>
<g id="Oven_Gloves">
</g>
<g id="Rolling_Pin">
</g>
<g id="Sieve">
</g>
<g id="Tea_Sieve">
</g>
<g id="Grater">
</g>
<g id="Knife_Holder">
</g>
<g id="Funnel">
</g>
<g id="Kitchen_Clock">
</g>
<g id="Lemon_Juicer">
</g>
<g id="Pastry_Bag_1">
</g>
<g id="Pastry_Bag_2">
</g>
<g id="Corkscrew">
</g>
<g id="Bottle_Opener">
</g>
<g id="Service">
</g>
<g id="Chopsticks">
</g>
<g id="Hatchet">
</g>
<g id="Filleting_Knife">
</g>
<g id="Bread_Knife">
</g>
<g id="Herb_Knife">
</g>
<g id="Whetting">
</g>
<g id="Cake_Knife">
</g>
<g id="Layer_58">
</g>
<g id="Ladle">
</g>
<g id="Sauce_Spoon">
</g>
<g id="Egg_Beater">
</g>
<g id="Meat_Fork">
</g>
<g id="Kitchen_Spoon_1">
</g>
<g id="Kitchen_Spoon_2">
</g>
<g id="Pizza_Cutter">
</g>
<g id="Potato_Musher">
</g>
<g id="Peeler">
</g>
<g id="Honey_Dipper">
</g>
<g id="Fork">
</g>
<g id="Knife">
</g>
<g id="Spoon">
</g>
<g id="Cutlery_Set">
</g>
<g id="Sugar_Bowl">
</g>
<g id="Matches">
</g>
<g id="Cezve">
</g>
</svg>
