<?xml version="1.0" encoding="iso-8859-1"?>
<!-- Generator: Adobe Illustrator 19.2.1, SVG Export Plug-In . SVG Version: 6.00 Build 0)  -->
<svg version="1.1" xmlns="http://www.w3.org/2000/svg" xmlns:xlink="http://www.w3.org/1999/xlink" x="0px" y="0px"
	 viewBox="0 0 30 30" style="enable-background:new 0 0 30 30;" xml:space="preserve">
<g id="Credit_Card">
</g>
<g id="Banknote">
</g>
<g id="Wallet">
</g>
<g id="Compass">
</g>
<g id="Camera_1">
</g>
<g id="Photo">
</g>
<g id="Picture">
	<g>
		<g>
			<path d="M29.5,30h-29C0.224,30,0,29.776,0,29.5v-29C0,0.224,0.224,0,0.5,0h29C29.776,0,30,0.224,30,0.5v29
				C30,29.776,29.776,30,29.5,30z M1,29h28V1H1V29z"/>
		</g>
		<g>
			<path d="M29.5,23.135c-0.145,0-0.288-0.063-0.387-0.184L20.67,12.633l-2.62,3.145c-0.176,0.213-0.491,0.24-0.704,0.064
				c-0.212-0.177-0.24-0.492-0.063-0.705l3.008-3.609c0.095-0.114,0.235-0.18,0.384-0.18c0.001,0,0.002,0,0.002,0
				c0.149,0,0.291,0.068,0.385,0.184l8.826,10.788c0.175,0.213,0.144,0.528-0.07,0.704C29.724,23.098,29.611,23.135,29.5,23.135z"/>
		</g>
		<g>
			<path d="M21.935,21.174c-0.145,0-0.288-0.063-0.387-0.184L10.587,7.594l-9.7,11.855c-0.174,0.215-0.49,0.245-0.703,0.071
				c-0.214-0.175-0.245-0.49-0.07-0.704L10.2,6.488c0.189-0.232,0.584-0.232,0.773,0l11.348,13.87
				c0.175,0.213,0.144,0.528-0.07,0.704C22.158,21.137,22.046,21.174,21.935,21.174z"/>
		</g>
	</g>
</g>
<g id="Camera_2">
</g>
<g id="No_Camera">
</g>
<g id="Video">
</g>
<g id="Audio">
</g>
<g id="Microphone_1">
</g>
<g id="Microphone_2">
</g>
<g id="No_Microphone">
</g>
<g id="Shopping_Cart">
</g>
<g id="Add_Shopping_Cart">
</g>
<g id="Remove_Shopping_Cart">
</g>
<g id="Shopping_Basket">
</g>
<g id="Jing-Jang">
</g>
<g id="Leaf">
</g>
<g id="Glass">
</g>
<g id="Cup">
</g>
<g id="Mug">
</g>
<g id="Refresh">
</g>
<g id="Login">
</g>
<g id="Logout">
</g>
<g id="Flowchart">
</g>
<g id="Pin_1">
</g>
<g id="Pin_2">
</g>
<g id="User_1">
</g>
<g id="User_2">
</g>
<g id="Users">
</g>
<g id="Adjustments">
</g>
<g id="Type">
</g>
<g id="Format_Size">
</g>
<g id="Menu_1">
</g>
<g id="Other">
</g>
<g id="Flash">
</g>
<g id="No_Flash">
</g>
<g id="Switch_Button_1">
</g>
<g id="Switch_Button_2">
</g>
<g id="Cut">
</g>
<g id="Crop">
</g>
<g id="Sun">
</g>
<g id="USB">
</g>
<g id="Pie_Chart_1">
</g>
<g id="Pie_Chart_2">
</g>
<g id="Line_Chart">
</g>
<g id="Bar_Chart">
</g>
<g id="Target">
</g>
<g id="Flashlight">
</g>
<g id="USB_Device">
</g>
<g id="Eject">
</g>
<g id="Lightbulb">
</g>
<g id="Information">
</g>
<g id="Deactivate_Protection">
</g>
<g id="Active_Protection">
</g>
<g id="Bug">
</g>
<g id="Protection">
</g>
<g id="Phone">
</g>
<g id="List">
</g>
<g id="Plugin_1">
</g>
<g id="Bookmarrk">
</g>
<g id="Handshake">
</g>
<g id="Minimize">
</g>
<g id="Maximize">
</g>
<g id="Diamond">
</g>
<g id="Stop">
</g>
<g id="Shuffle">
</g>
<g id="Undo">
</g>
<g id="Upgrade">
</g>
<g id="Coding">
</g>
<g id="Syncronizaion">
</g>
<g id="Radio">
</g>
<g id="Presentation">
</g>
<g id="Door">
</g>
<g id="Thumbs_Up">
</g>
<g id="Thumbs_Down">
</g>
<g id="Keyboard">
</g>
<g id="_x33_D_Cube">
</g>
<g id="Signal">
</g>
<g id="Dice">
</g>
<g id="Upload">
</g>
<g id="Download">
</g>
<g id="Plugin_2">
</g>
<g id="Shopping_Bag">
</g>
<g id="Lifebelt">
</g>
<g id="Glasses">
</g>
<g id="Parabolic_Antenna">
</g>
<g id="Loudspeaker">
</g>
<g id="Play">
</g>
<g id="Pause">
</g>
<g id="Signpost">
</g>
<g id="Bluetooth">
</g>
<g id="Present">
</g>
<g id="Ruler">
</g>
<g id="Connection">
</g>
<g id="Money">
</g>
<g id="Paper_Plane">
</g>
<g id="Wallet_2">
</g>
</svg>
