<?xml version="1.0" encoding="iso-8859-1"?>
<!-- Generator: Adobe Illustrator 19.2.1, SVG Export Plug-In . SVG Version: 6.00 Build 0)  -->
<svg version="1.1" xmlns="http://www.w3.org/2000/svg" xmlns:xlink="http://www.w3.org/1999/xlink" x="0px" y="0px"
	 viewBox="0 0 24 24" style="enable-background:new 0 0 24 24;" xml:space="preserve">
<g id="Cad_1">
</g>
<g id="Cad_2">
</g>
<g id="Cad_Pencil">
</g>
<g id="Cad_Compasses">
</g>
<g id="Tools_1">
</g>
<g id="Tools_2">
</g>
<g id="Ruler_1">
</g>
<g id="Ruler_2">
</g>
<g id="Workspace_1">
</g>
<g id="Workspace_2">
</g>
<g id="Cad_3">
</g>
<g id="_x33_D_Box">
</g>
<g id="Section_Symbol">
</g>
<g id="Outlet_Symbol">
</g>
<g id="Cad_File">
</g>
<g id="Blueprint">
</g>
<g id="Construction_Plan">
</g>
<g id="Roof_Plan">
</g>
<g id="House_Construction">
</g>
<g id="Building_Construction">
</g>
<g id="Work_Table">
</g>
<g id="Table_Cad">
</g>
<g id="House_Plan">
</g>
<g id="Tape_Measure">
</g>
<g id="Cad_Paper">
</g>
<g id="Cad_Papers">
</g>
<g id="Stairs">
</g>
<g id="Pillar">
	<g>
		<path d="M3.131,1.088C3.415,1.038,3.703,1,4,1h16c0.297,0,0.585,0.038,0.869,0.088l0.117-0.467
			c0.037-0.149,0.004-0.308-0.091-0.429C20.8,0.071,20.654,0,20.5,0h-17C3.346,0,3.2,0.071,3.105,0.192
			C3.011,0.313,2.978,0.472,3.015,0.621L3.131,1.088z"/>
		<circle cx="20" cy="6" r="1"/>
		<path d="M20,2H4C1.794,2,0,3.794,0,6s1.794,4,4,4s4-1.794,4-4h8c0,2.206,1.794,4,4,4s4-1.794,4-4S22.206,2,20,2z M4,8
			C2.897,8,2,7.103,2,6s0.897-2,2-2s2,0.897,2,2S5.103,8,4,8z M20,8c-1.103,0-2-0.897-2-2s0.897-2,2-2s2,0.897,2,2S21.103,8,20,8z"
			/>
		<circle cx="4" cy="6" r="1"/>
		<path d="M8.899,7C8.828,7.349,8.715,7.682,8.574,8h6.852c-0.141-0.318-0.254-0.651-0.325-1H8.899z"/>
		<path d="M17.08,10.024c-0.2-0.147-0.392-0.303-0.568-0.477c-0.18-0.176-0.351-0.359-0.503-0.56C15.985,8.99,15.963,9,15.937,9
			H8.062C8.037,9,8.015,8.99,7.991,8.987c-0.152,0.2-0.323,0.384-0.503,0.56C7.312,9.72,7.12,9.877,6.92,10.023
			c-0.066,0.048-0.13,0.099-0.199,0.144C5.939,10.687,5.009,11,4,11v12.5C4,23.776,4.224,24,4.5,24H7V11.5C7,11.224,7.224,11,7.5,11
			S8,11.224,8,11.5V24h2V11.5c0-0.276,0.224-0.5,0.5-0.5s0.5,0.224,0.5,0.5V24h2V11.5c0-0.276,0.224-0.5,0.5-0.5s0.5,0.224,0.5,0.5
			V24h2V11.5c0-0.276,0.224-0.5,0.5-0.5s0.5,0.224,0.5,0.5V24h2.5c0.276,0,0.5-0.224,0.5-0.5V11c-1.009,0-1.939-0.314-2.722-0.833
			C17.21,10.122,17.146,10.072,17.08,10.024z"/>
	</g>
</g>
<g id="Bricks">
</g>
<g id="Pantheon">
</g>
<g id="House">
</g>
<g id="Skyscraper">
</g>
<g id="Building">
</g>
</svg>
