<?xml version="1.0" encoding="iso-8859-1"?>
<!-- Generator: Adobe Illustrator 19.2.1, SVG Export Plug-In . SVG Version: 6.00 Build 0)  -->
<svg version="1.1" xmlns="http://www.w3.org/2000/svg" xmlns:xlink="http://www.w3.org/1999/xlink" x="0px" y="0px"
	 viewBox="0 0 30 30" style="enable-background:new 0 0 30 30;" xml:space="preserve">
<g id="Cad_1">
</g>
<g id="Cad_2">
</g>
<g id="Cad_Pencil">
</g>
<g id="Cad_Compasses">
</g>
<g id="Tools_1">
</g>
<g id="Tools_2">
</g>
<g id="Ruler_1">
</g>
<g id="Ruler_2">
</g>
<g id="Workspace_1">
</g>
<g id="Workspace_2">
</g>
<g id="Cad_3">
</g>
<g id="_x33_D_Box">
</g>
<g id="Section_Symbol">
</g>
<g id="Outlet_Symbol">
</g>
<g id="Cad_File">
</g>
<g id="Blueprint">
</g>
<g id="Construction_Plan">
</g>
<g id="Roof_Plan">
</g>
<g id="House_Construction">
</g>
<g id="Building_Construction">
</g>
<g id="Work_Table">
</g>
<g id="Table_Cad">
</g>
<g id="House_Plan">
</g>
<g id="Tape_Measure">
</g>
<g id="Cad_Paper">
</g>
<g id="Cad_Papers">
</g>
<g id="Stairs">
</g>
<g id="Pillar">
	<g>
		<g>
			<path d="M25,3H5C4.771,3,4.57,2.844,4.515,2.621l-0.5-2C3.978,0.472,4.011,0.313,4.105,0.192S4.346,0,4.5,0h21
				c0.154,0,0.3,0.071,0.395,0.192s0.128,0.279,0.091,0.429l-0.5,2C25.43,2.844,25.229,3,25,3z M5.391,2h19.219l0.25-1H5.141
				L5.391,2z"/>
		</g>
		<g>
			<path d="M5.5,30C5.224,30,5,29.776,5,29.5v-17C5,12.224,5.224,12,5.5,12S6,12.224,6,12.5v17C6,29.776,5.776,30,5.5,30z"/>
		</g>
		<g>
			<path d="M24.5,30c-0.276,0-0.5-0.224-0.5-0.5v-17c0-0.276,0.224-0.5,0.5-0.5s0.5,0.224,0.5,0.5v17C25,29.776,24.776,30,24.5,30z"
				/>
		</g>
		<g>
			<path d="M9.5,30C9.224,30,9,29.776,9,29.5v-15C9,14.224,9.224,14,9.5,14s0.5,0.224,0.5,0.5v15C10,29.776,9.776,30,9.5,30z"/>
		</g>
		<g>
			<path d="M12.5,30c-0.276,0-0.5-0.224-0.5-0.5v-15c0-0.276,0.224-0.5,0.5-0.5s0.5,0.224,0.5,0.5v15C13,29.776,12.776,30,12.5,30z"
				/>
		</g>
		<g>
			<path d="M17.5,30c-0.276,0-0.5-0.224-0.5-0.5v-15c0-0.276,0.224-0.5,0.5-0.5s0.5,0.224,0.5,0.5v15C18,29.776,17.776,30,17.5,30z"
				/>
		</g>
		<g>
			<path d="M20.5,30c-0.276,0-0.5-0.224-0.5-0.5v-15c0-0.276,0.224-0.5,0.5-0.5s0.5,0.224,0.5,0.5v15C21,29.776,20.776,30,20.5,30z"
				/>
		</g>
		<g>
			<path d="M17,9h-4c-0.276,0-0.5-0.224-0.5-0.5S12.724,8,13,8h4c0.276,0,0.5,0.224,0.5,0.5S17.276,9,17,9z"/>
		</g>
		<g>
			<path d="M18.5,11h-7c-0.276,0-0.5-0.224-0.5-0.5s0.224-0.5,0.5-0.5h7c0.276,0,0.5,0.224,0.5,0.5S18.776,11,18.5,11z"/>
		</g>
		<g>
			<path d="M24.5,10C23.121,10,22,8.879,22,7.5S23.121,5,24.5,5S27,6.121,27,7.5S25.879,10,24.5,10z M24.5,6
				C23.673,6,23,6.673,23,7.5S23.673,9,24.5,9S26,8.327,26,7.5S25.327,6,24.5,6z"/>
		</g>
		<g>
			<path d="M24.5,13c-3.032,0-5.5-2.468-5.5-5.5C19,7.224,19.224,7,19.5,7S20,7.224,20,7.5c0,2.481,2.019,4.5,4.5,4.5
				S29,9.981,29,7.5S26.981,3,24.5,3C24.224,3,24,2.776,24,2.5S24.224,2,24.5,2C27.532,2,30,4.468,30,7.5S27.532,13,24.5,13z"/>
		</g>
		<g>
			<path d="M5.5,10C4.121,10,3,8.879,3,7.5S4.121,5,5.5,5S8,6.121,8,7.5S6.879,10,5.5,10z M5.5,6C4.673,6,4,6.673,4,7.5
				S4.673,9,5.5,9S7,8.327,7,7.5S6.327,6,5.5,6z"/>
		</g>
		<g>
			<path d="M5.5,13C2.468,13,0,10.532,0,7.5S2.468,2,5.5,2C5.776,2,6,2.224,6,2.5S5.776,3,5.5,3C3.019,3,1,5.019,1,7.5
				S3.019,12,5.5,12S10,9.981,10,7.5C10,7.224,10.224,7,10.5,7S11,7.224,11,7.5C11,10.532,8.532,13,5.5,13z"/>
		</g>
	</g>
</g>
<g id="Bricks">
</g>
<g id="Pantheon">
</g>
<g id="House">
</g>
<g id="Skyscraper">
</g>
<g id="Building">
</g>
</svg>
