<?xml version="1.0" encoding="iso-8859-1"?>
<!-- Generator: Adobe Illustrator 19.2.1, SVG Export Plug-In . SVG Version: 6.00 Build 0)  -->
<svg version="1.1" xmlns="http://www.w3.org/2000/svg" xmlns:xlink="http://www.w3.org/1999/xlink" x="0px" y="0px"
	 viewBox="0 0 30 30" style="enable-background:new 0 0 30 30;" xml:space="preserve">
<g id="Present_1">
</g>
<g id="Present_2">
</g>
<g id="Present_3">
</g>
<g id="Present_Cake">
</g>
<g id="Present_4">
</g>
<g id="Birthday_Cake_1">
</g>
<g id="Birthday_Cake_2">
</g>
<g id="Cake_Piece">
</g>
<g id="Cupcake">
</g>
<g id="Lollipop">
</g>
<g id="Birthday_Greetings_1">
</g>
<g id="Party_Greetings_2">
</g>
<g id="Birthday_Invitation">
</g>
<g id="Birthday_1">
</g>
<g id="Birthday_2">
</g>
<g id="Birthday_Message_1">
</g>
<g id="Birthday_Message_2">
</g>
<g id="Birthyday_Hat_1">
</g>
<g id="Birthay_Hat_2">
</g>
<g id="Birthday_Hat3">
</g>
<g id="Birthday_Decoration_1">
</g>
<g id="Birthday_Decoration_2">
</g>
<g id="Birthday_Decoration_3">
</g>
<g id="Horn_1">
</g>
<g id="Horn_2">
</g>
<g id="Baloon">
</g>
<g id="Balloons_1">
</g>
<g id="Balloons_2">
</g>
<g id="Birthday_Picture">
</g>
<g id="Kid_x27_s_Champagne">
</g>
<g id="Candy">
</g>
<g id="Birthday_Card">
</g>
<g id="Flowers">
</g>
<g id="Birthday_Song">
</g>
<g id="Candle">
</g>
<g id="Sweet_16">
</g>
<g id="Clown">
</g>
<g id="Clown_2">
</g>
<g id="Birthday_Party">
</g>
<g id="Giving_Gift">
</g>
<g id="Present_5">
</g>
<g id="Champagne_in_ice_bucket">
</g>
<g id="Beer">
</g>
<g id="Truffles">
</g>
<g id="Pinata">
	<g>
		<g>
			<path d="M10.5,11C9.673,11,9,10.327,9,9.5S9.673,8,10.5,8S12,8.673,12,9.5S11.327,11,10.5,11z M10.5,9C10.224,9,10,9.225,10,9.5
				s0.224,0.5,0.5,0.5S11,9.775,11,9.5S10.776,9,10.5,9z"/>
		</g>
		<g>
			<path d="M6.5,21.152c-0.186,0-0.364-0.104-0.451-0.282c-0.12-0.249-0.016-0.548,0.233-0.668l2.588-1.25
				c0.137-0.066,0.298-0.066,0.435,0l2.371,1.145l2.371-1.145c0.137-0.066,0.298-0.066,0.435,0l2.371,1.145l2.371-1.145
				c0.137-0.066,0.298-0.066,0.435,0l2.371,1.145l2.371-1.145c0.137-0.066,0.298-0.066,0.435,0l2.274,1.099l1.043-1.008
				c0.198-0.191,0.517-0.187,0.707,0.012c0.192,0.199,0.187,0.516-0.012,0.707l-1.294,1.25c-0.15,0.146-0.376,0.182-0.564,0.091
				l-2.371-1.145l-2.371,1.145c-0.137,0.066-0.298,0.066-0.435,0l-2.371-1.145l-2.371,1.145c-0.137,0.066-0.298,0.066-0.435,0
				l-2.371-1.145l-2.371,1.145c-0.137,0.066-0.298,0.066-0.435,0l-2.371-1.145l-2.371,1.145C6.647,21.137,6.573,21.152,6.5,21.152z"
				/>
		</g>
		<g>
			<path d="M6.5,17.402c-0.186,0-0.364-0.104-0.451-0.282c-0.12-0.249-0.016-0.548,0.233-0.668l2.588-1.25
				c0.137-0.066,0.298-0.066,0.435,0l2.371,1.145l2.371-1.145c0.137-0.066,0.298-0.066,0.435,0l2.371,1.145l2.371-1.145
				c0.137-0.066,0.298-0.066,0.435,0l2.371,1.145l2.371-1.145c0.137-0.066,0.298-0.066,0.435,0l2.274,1.099l1.043-1.008
				c0.198-0.191,0.517-0.187,0.707,0.012c0.192,0.199,0.187,0.516-0.012,0.707l-1.294,1.25c-0.15,0.147-0.376,0.181-0.564,0.091
				l-2.371-1.145l-2.371,1.145c-0.137,0.066-0.298,0.066-0.435,0l-2.371-1.145l-2.371,1.145c-0.137,0.066-0.298,0.066-0.435,0
				l-2.371-1.145l-2.371,1.145c-0.137,0.066-0.298,0.066-0.435,0l-2.371-1.145l-2.371,1.145C6.647,17.387,6.573,17.402,6.5,17.402z"
				/>
		</g>
		<g>
			<path d="M19.5,12c-0.276,0-0.5-0.224-0.5-0.5v-11C19,0.224,19.224,0,19.5,0S20,0.224,20,0.5v11C20,11.776,19.776,12,19.5,12z"/>
		</g>
		<g>
			<path d="M9,6C8.724,6,8.5,5.776,8.5,5.5v-4C8.5,1.224,8.724,1,9,1s0.5,0.224,0.5,0.5v4C9.5,5.776,9.276,6,9,6z"/>
		</g>
		<g>
			<path d="M6.804,12.348c-0.128,0-0.256-0.049-0.354-0.146c-0.195-0.195-0.195-0.512,0-0.707c0.901-0.9,1.178-1.896,0.825-2.955
				c-0.27-0.812-0.819-1.375-0.825-1.381c-0.195-0.195-0.195-0.512,0-0.707s0.512-0.195,0.707,0C7.187,6.48,7.875,7.177,8.224,8.223
				c0.333,0.996,0.417,2.495-1.066,3.979C7.06,12.299,6.932,12.348,6.804,12.348z"/>
		</g>
		<g>
			<path d="M26,30c-1.654,0-3-1.355-3-3.021V24H12v2.979C12,28.645,10.654,30,9,30s-3-1.355-3-3.021V12.24l-3.51-0.862
				C1.584,11.151,1,10.347,1,9.326c0-0.999,0.613-1.823,1.526-2.052L6,6.413V1.75C6,0.785,6.785,0,7.75,0
				C8.239,0,8.682,0.202,9,0.526C9.318,0.202,9.761,0,10.25,0C11.215,0,12,0.785,12,1.75c0,0.043-0.005,0.085-0.016,0.125
				C11.995,1.915,12,1.957,12,2v3.066c2.067,0.195,3,1.603,3,2.999V11h9.457C26.792,11,29,13.251,29,15.631v11.348
				C29,28.645,27.654,30,26,30z M11.5,23h12c0.276,0,0.5,0.224,0.5,0.5v3.479C24,28.093,24.897,29,26,29s2-0.907,2-2.021V15.631
				C28,13.799,26.245,12,24.457,12H14.5c-0.276,0-0.5-0.224-0.5-0.5V8.065c0-1.266-0.935-2.021-2.5-2.021
				c-0.276,0-0.5-0.224-0.5-0.5V2c0-0.043,0.005-0.085,0.016-0.125C11.005,1.835,11,1.793,11,1.75C11,1.337,10.664,1,10.25,1
				S9.5,1.337,9.5,1.75c0,0.276-0.224,0.5-0.5,0.5s-0.5-0.224-0.5-0.5C8.5,1.337,8.164,1,7.75,1S7,1.337,7,1.75v5.055
				c0,0.229-0.157,0.43-0.38,0.485L2.767,8.245C2.302,8.361,2,8.786,2,9.326c0,0.435,0.192,0.946,0.73,1.081l3.889,0.955
				C6.843,11.417,7,11.617,7,11.848v15.131C7,28.093,7.897,29,9,29s2-0.907,2-2.021V23.5C11,23.224,11.224,23,11.5,23z"/>
		</g>
	</g>
</g>
</svg>
