<?xml version="1.0" encoding="iso-8859-1"?>
<!-- Generator: Adobe Illustrator 19.2.1, SVG Export Plug-In . SVG Version: 6.00 Build 0)  -->
<svg version="1.1" xmlns="http://www.w3.org/2000/svg" xmlns:xlink="http://www.w3.org/1999/xlink" x="0px" y="0px"
	 viewBox="0 0 24 24" style="enable-background:new 0 0 24 24;" xml:space="preserve">
<g id="Present_1">
</g>
<g id="Present_2">
</g>
<g id="Present_3">
</g>
<g id="Present_Cake">
</g>
<g id="Present_4">
</g>
<g id="Birthday_Cake_1">
</g>
<g id="Birthday_Cake_2">
</g>
<g id="Cake_Piece">
</g>
<g id="Cupcake">
</g>
<g id="Lollipop">
</g>
<g id="Birthday_Greetings_1">
</g>
<g id="Party_Greetings_2">
</g>
<g id="Birthday_Invitation">
</g>
<g id="Birthday_1">
</g>
<g id="Birthday_2">
</g>
<g id="Birthday_Message_1">
</g>
<g id="Birthday_Message_2">
</g>
<g id="Birthyday_Hat_1">
</g>
<g id="Birthay_Hat_2">
</g>
<g id="Birthday_Hat3">
</g>
<g id="Birthday_Decoration_1">
</g>
<g id="Birthday_Decoration_2">
</g>
<g id="Birthday_Decoration_3">
</g>
<g id="Horn_1">
</g>
<g id="Horn_2">
</g>
<g id="Baloon">
</g>
<g id="Balloons_1">
</g>
<g id="Balloons_2">
</g>
<g id="Birthday_Picture">
</g>
<g id="Kid_x27_s_Champagne">
</g>
<g id="Candy">
</g>
<g id="Birthday_Card">
</g>
<g id="Flowers">
</g>
<g id="Birthday_Song">
</g>
<g id="Candle">
</g>
<g id="Sweet_16">
</g>
<g id="Clown">
</g>
<g id="Clown_2">
</g>
<g id="Birthday_Party">
</g>
<g id="Giving_Gift">
</g>
<g id="Present_5">
</g>
<g id="Champagne_in_ice_bucket">
</g>
<g id="Beer">
</g>
<g id="Truffles">
</g>
<g id="Pinata">
	<g>
		<circle cx="8.5" cy="7.5" r="0.5"/>
		<path d="M5,10.688v2.003l0.5,0.25l2-1l2,1l2-1l2,1l2-1l2,1l2-1l2,1l1.47-0.735C22.818,10.416,21.329,9,19.5,9H15V0.5
			C15,0.224,14.776,0,14.5,0S14,0.224,14,0.5V9h-2V6.5c0-1.208-0.86-2.217-2-2.45V1.5C10,0.673,9.327,0,8.5,0
			C8.324,0,8.157,0.038,8,0.094V4.5C8,4.776,7.776,5,7.5,5S7,4.776,7,4.5V0.094C6.843,0.038,6.676,0,6.5,0C5.673,0,5,0.673,5,1.5
			v2.849C5.909,5.708,6.934,8.56,5,10.688z M8.5,6C9.327,6,10,6.673,10,7.5S9.327,9,8.5,9S7,8.327,7,7.5S7.673,6,8.5,6z"/>
		<polygon points="21.5,14.059 19.5,13.059 17.5,14.059 15.5,13.059 13.5,14.059 11.5,13.059 9.5,14.059 7.5,13.059 5.5,14.059 
			5,13.809 5,15.691 5.5,15.941 7.5,14.941 9.5,15.941 11.5,14.941 13.5,15.941 15.5,14.941 17.5,15.941 19.5,14.941 21.5,15.941 
			23,15.191 23,13.309 		"/>
		<path d="M19.5,16.059l-2,1l-2-1l-2,1l-2-1l-2,1l-2-1l-2,1L5,16.809V21.5C5,22.878,6.122,24,7.5,24s2.5-1.122,2.5-2.5V19h8v2.5
			c0,1.378,1.122,2.5,2.5,2.5s2.5-1.122,2.5-2.5v-5.191l-1.5,0.75L19.5,16.059z"/>
		<path d="M4.382,5.264L2.349,5.772C1.555,5.971,1,6.681,1,7.5s0.555,1.529,1.349,1.728L4.479,9.76
			C5.699,8.129,4.874,6.154,4.382,5.264z"/>
	</g>
</g>
</svg>
