<?xml version="1.0" encoding="iso-8859-1"?>
<!-- Generator: Adobe Illustrator 19.2.1, SVG Export Plug-In . SVG Version: 6.00 Build 0)  -->
<svg version="1.1" xmlns="http://www.w3.org/2000/svg" xmlns:xlink="http://www.w3.org/1999/xlink" x="0px" y="0px"
	 viewBox="0 0 24 24" style="enable-background:new 0 0 24 24;" xml:space="preserve">
<g id="Restaurant_sign_1">
</g>
<g id="Restaurant_Sign_2">
</g>
<g id="Restaurant_Sign_3">
</g>
<g id="Hot_Drink_1">
</g>
<g id="Hot_Drink_2">
</g>
<g id="Cocktail">
</g>
<g id="Shot_Glasses">
</g>
<g id="Chilled_Champagne">
</g>
<g id="Wine">
</g>
<g id="Wine_List">
</g>
<g id="Menu">
</g>
<g id="Menu_2">
</g>
<g id="Salver">
</g>
<g id="Soup">
</g>
<g id="Sushi">
</g>
<g id="Pizza">
</g>
<g id="Pizza_Slice">
	<g>
		<path d="M12.218,17.062c-0.127-0.064-0.221-0.18-0.258-0.317C11.844,16.306,11.449,16,11,16c0.024,0.005-0.023,0.014-0.072,0.017
			c-0.241,0.026-0.428-0.125-0.501-0.336C10.285,15.268,9.921,15,9.5,15c-0.465,0-0.875,0.33-0.975,0.785
			c-0.035,0.16-0.147,0.293-0.299,0.355c-0.152,0.062-0.326,0.046-0.462-0.044C7.663,16.03,7.579,16,7.5,16
			C7.224,16,7,16.225,7,16.5c0,0.21,0.144,0.34,0.23,0.399c0.128,0.088,0.208,0.23,0.216,0.386c0.008,0.155-0.056,0.305-0.174,0.406
			c-0.019,0.016-0.041,0.039-0.063,0.062c-0.005,0.006-0.007,0.014-0.012,0.02c-0.005,0.005-0.012,0.007-0.017,0.011
			C7.091,17.888,7,18.043,7,18.25C7,18.663,7.336,19,7.75,19c0.233,0,0.366,0.13,0.587,0.345C8.504,19.507,9.012,20,9.25,20
			c0.149,0,0.295-0.057,0.445-0.172c0.09-0.069,0.197-0.104,0.305-0.104s0.215,0.034,0.305,0.104
			c0.566,0.434,1.195-0.016,1.195-0.578c0-0.217-0.106-0.383-0.195-0.485c-0.149-0.17-0.166-0.42-0.039-0.608
			c0.126-0.188,0.363-0.269,0.578-0.193c0.388,0.136,0.656-0.144,0.656-0.463C12.5,17.281,12.354,17.13,12.218,17.062z"/>
		<path d="M12.72,13.002c-1.717,0-5.94-0.895-6.618-4.759C5.386,9.36,5,10.657,5,12c0,1.391,0.408,2.712,1.159,3.843
			c0.289-0.575,0.934-0.949,1.597-0.819C8.104,14.408,8.768,14,9.5,14c0.716,0,1.368,0.395,1.718,1.012
			c0.739,0.082,1.375,0.574,1.643,1.272C13.26,16.563,13.5,17.012,13.5,17.5c0,0.664-0.434,1.228-1.032,1.425
			c0.003,0.016,0.002,0.032,0.005,0.048c1.937-0.128,3.705-1.043,4.945-2.569c-0.065-0.103-0.154-0.216-0.315-0.377
			C15.221,14.145,13.987,13.002,12.72,13.002z"/>
		<path d="M12.72,12.002c0.617,0,1.194,0.175,1.783,0.501c0.212-0.25,0.55-0.444,1.056-0.444c0.124,0,0.204-0.011,0.257-0.023
			c-0.529-0.759-0.814-1.468-0.814-2.264C15.002,9.715,14.87,4,10.152,4C8.491,4,7,6.141,7,7.152
			C7,11.87,12.663,12.002,12.72,12.002z"/>
		<path d="M12,0C5.373,0,0,5.373,0,12c0,6.627,5.373,12,12,12s12-5.373,12-12C24,5.373,18.627,0,12,0z M20.356,16.971
			C20.262,17.459,19.939,18,18.979,18c-0.456,0-0.928-0.166-1.201-0.477c-1.428,1.504-3.357,2.372-5.443,2.458
			C12.057,20.581,11.453,21,10.75,21c-0.26,0-0.511-0.062-0.75-0.185C9.761,20.938,9.51,21,9.25,21c-0.645,0-1.249-0.588-1.61-0.938
			c-0.027-0.026-0.051-0.05-0.073-0.071C6.688,19.899,6,19.153,6,18.25c0-0.272,0.078-0.528,0.199-0.764C4.783,15.993,4,14.065,4,12
			c0-1.976,0.733-3.864,2.06-5.339C6.39,5.101,8.159,3,10.152,3c1.487,0,2.613,0.471,3.461,1.175C17.323,4.936,20,8.196,20,12
			c0,0.861-0.149,1.711-0.426,2.535C20.282,14.539,21,14.93,21,15.674C21,16.359,20.713,16.782,20.356,16.971z"/>
		<path d="M18.75,13.824C18.913,13.227,19,12.616,19,12c0-2.811-1.681-5.264-4.154-6.367c0.885,1.468,1.156,3.187,1.156,4.139
			C16.002,10.96,16.997,12.063,18.75,13.824z"/>
		<path d="M18.289,14.779c-0.731-0.732-1.344-1.359-1.842-1.939c-0.198,0.13-0.479,0.218-0.888,0.218
			c-0.079,0-0.129,0.018-0.18,0.035c0.731,0.559,1.511,1.307,2.431,2.227c0.623,0.622,0.732,1.01,0.732,1.595
			C18.575,16.925,18.803,17,18.979,17c0.309,0,0.413,0,0.413-0.413c0-0.268,0.229-0.488,0.496-0.5
			C19.921,16.065,20,15.937,20,15.674c-0.035-0.063-0.262-0.14-0.444-0.14C19.083,15.534,18.687,15.177,18.289,14.779z"/>
	</g>
</g>
<g id="Fish">
</g>
<g id="Sausage">
</g>
<g id="Course">
</g>
<g id="Dessert">
</g>
<g id="Cutlery">
</g>
<g id="Napkin">
</g>
<g id="Table">
</g>
<g id="Spices">
</g>
<g id="Hot_Sauce">
</g>
<g id="Reserved_1">
</g>
<g id="Reserved_2">
</g>
<g id="Open">
</g>
<g id="Food_Photo">
</g>
<g id="Chef">
</g>
<g id="Bill">
</g>
<g id="Bill_2">
</g>
<g id="Paying_1">
</g>
<g id="Paying_2">
</g>
<g id="Restaurant_Place">
</g>
</svg>
