<?xml version="1.0" encoding="iso-8859-1"?>
<!-- Generator: Adobe Illustrator 19.2.1, SVG Export Plug-In . SVG Version: 6.00 Build 0)  -->
<svg version="1.1" xmlns="http://www.w3.org/2000/svg" xmlns:xlink="http://www.w3.org/1999/xlink" x="0px" y="0px"
	 viewBox="0 0 30 30" style="enable-background:new 0 0 30 30;" xml:space="preserve">
<g id="Cutting_Board_1">
</g>
<g id="Cutting_Board_2">
</g>
<g id="Chef_x27_s_Hat_1">
</g>
<g id="Chef_x27_s_Hat_2">
</g>
<g id="Kitchen_Scale">
</g>
<g id="Measuring_Cup">
</g>
<g id="Pot_1">
</g>
<g id="Pot_2">
</g>
<g id="Wok_1">
</g>
<g id="Wok_2">
</g>
<g id="Teapot">
</g>
<g id="Plate">
</g>
<g id="Sauce_Boat">
</g>
<g id="Cauldron">
</g>
<g id="Cookbook">
</g>
<g id="Salt_Pot">
</g>
<g id="Pepper_Pot_1">
</g>
<g id="Pepper_Pot_2">
</g>
<g id="Egg_Timer">
</g>
<g id="Olive_Oil_Pot">
</g>
<g id="Pancake_Griddle">
</g>
<g id="Pan">
</g>
<g id="Kettle">
</g>
<g id="Microwave">
</g>
<g id="Cooker">
</g>
<g id="Meat_Grinder">
</g>
<g id="Coffee_Maker">
</g>
<g id="Household_Mixer">
</g>
<g id="Stand_Mixer">
</g>
<g id="Hand_Blender">
</g>
<g id="Blender">
</g>
<g id="Cooker_Hood">
</g>
<g id="Refrigerator">
</g>
<g id="Freezer">
</g>
<g id="Apron">
</g>
<g id="Oven_Gloves">
</g>
<g id="Rolling_Pin">
</g>
<g id="Sieve">
</g>
<g id="Tea_Sieve">
</g>
<g id="Grater">
</g>
<g id="Knife_Holder">
</g>
<g id="Funnel">
</g>
<g id="Kitchen_Clock">
</g>
<g id="Lemon_Juicer">
</g>
<g id="Pastry_Bag_1">
</g>
<g id="Pastry_Bag_2">
</g>
<g id="Corkscrew">
</g>
<g id="Bottle_Opener">
</g>
<g id="Service">
</g>
<g id="Chopsticks">
</g>
<g id="Hatchet">
</g>
<g id="Filleting_Knife">
</g>
<g id="Bread_Knife">
</g>
<g id="Herb_Knife">
</g>
<g id="Whetting">
</g>
<g id="Cake_Knife">
</g>
<g id="Layer_58">
</g>
<g id="Ladle">
</g>
<g id="Sauce_Spoon">
</g>
<g id="Egg_Beater">
</g>
<g id="Meat_Fork">
</g>
<g id="Kitchen_Spoon_1">
</g>
<g id="Kitchen_Spoon_2">
</g>
<g id="Pizza_Cutter">
	<g>
		<g>
			<circle cx="8.484" cy="21.5" r="0.5"/>
		</g>
		<g>
			<path d="M24.484,14c-0.128,0-0.256-0.049-0.354-0.146l-8-8c-0.195-0.195-0.195-0.512,0-0.707s0.512-0.195,0.707,0l8,8
				c0.195,0.195,0.195,0.512,0,0.707C24.74,13.951,24.612,14,24.484,14z"/>
		</g>
		<g>
			<path d="M10.484,30c-5.79,0-10.5-4.71-10.5-10.5S4.695,9,10.484,9c1.874,0,3.723,0.51,5.347,1.475
				c0.133,0.079,0.222,0.214,0.241,0.367s-0.033,0.307-0.143,0.416L7.57,19.617c-0.78,0.779-0.78,2.049,0,2.828
				c0.756,0.756,2.072,0.756,2.828,0l0,0l8.352-8.352c0.109-0.11,0.258-0.165,0.417-0.143c0.153,0.02,0.289,0.109,0.368,0.243
				c0.948,1.614,1.45,3.449,1.45,5.306C20.984,25.29,16.274,30,10.484,30z M10.484,10c-5.238,0-9.5,4.262-9.5,9.5s4.262,9.5,9.5,9.5
				s9.5-4.262,9.5-9.5c0-1.463-0.344-2.911-1-4.226l-7.878,7.878c-1.133,1.133-3.109,1.133-4.242,0c-1.169-1.17-1.169-3.072,0-4.242
				l7.888-7.889C13.426,10.352,11.964,10,10.484,10z"/>
		</g>
		<g>
			<path d="M8.984,24.031c-0.801,0-1.555-0.313-2.121-0.879c-1.169-1.17-1.169-3.072,0-4.242L24.895,0.879
				c1.133-1.133,3.109-1.133,4.242,0c1.169,1.17,1.169,3.072,0,4.242L11.105,23.152C10.539,23.719,9.786,24.031,8.984,24.031z
				 M27.016,1c-0.534,0-1.036,0.208-1.414,0.586L7.57,19.617c-0.78,0.779-0.78,2.049,0,2.828c0.756,0.756,2.072,0.756,2.828,0
				L28.43,4.414c0.78-0.779,0.78-2.049,0-2.828C28.052,1.208,27.55,1,27.016,1z"/>
		</g>
	</g>
</g>
<g id="Potato_Musher">
</g>
<g id="Peeler">
</g>
<g id="Honey_Dipper">
</g>
<g id="Fork">
</g>
<g id="Knife">
</g>
<g id="Spoon">
</g>
<g id="Cutlery_Set">
</g>
<g id="Sugar_Bowl">
</g>
<g id="Matches">
</g>
<g id="Cezve">
</g>
</svg>
