<?xml version="1.0" encoding="iso-8859-1"?>
<!-- Generator: Adobe Illustrator 19.2.1, SVG Export Plug-In . SVG Version: 6.00 Build 0)  -->
<svg version="1.1" xmlns="http://www.w3.org/2000/svg" xmlns:xlink="http://www.w3.org/1999/xlink" x="0px" y="0px"
	 viewBox="0 0 30 30" style="enable-background:new 0 0 30 30;" xml:space="preserve">
<g id="Credit_Card">
</g>
<g id="Banknote">
</g>
<g id="Wallet">
</g>
<g id="Compass">
</g>
<g id="Camera_1">
</g>
<g id="Photo">
</g>
<g id="Picture">
</g>
<g id="Camera_2">
</g>
<g id="No_Camera">
</g>
<g id="Video">
</g>
<g id="Audio">
</g>
<g id="Microphone_1">
</g>
<g id="Microphone_2">
</g>
<g id="No_Microphone">
</g>
<g id="Shopping_Cart">
</g>
<g id="Add_Shopping_Cart">
</g>
<g id="Remove_Shopping_Cart">
</g>
<g id="Shopping_Basket">
</g>
<g id="Jing-Jang">
</g>
<g id="Leaf">
</g>
<g id="Glass">
</g>
<g id="Cup">
</g>
<g id="Mug">
</g>
<g id="Refresh">
</g>
<g id="Login">
</g>
<g id="Logout">
</g>
<g id="Flowchart">
</g>
<g id="Pin_1">
</g>
<g id="Pin_2">
</g>
<g id="User_1">
</g>
<g id="User_2">
</g>
<g id="Users">
</g>
<g id="Adjustments">
</g>
<g id="Type">
</g>
<g id="Format_Size">
</g>
<g id="Menu_1">
</g>
<g id="Other">
</g>
<g id="Flash">
</g>
<g id="No_Flash">
</g>
<g id="Switch_Button_1">
</g>
<g id="Switch_Button_2">
</g>
<g id="Cut">
</g>
<g id="Crop">
</g>
<g id="Sun">
</g>
<g id="USB">
</g>
<g id="Pie_Chart_1">
</g>
<g id="Pie_Chart_2">
</g>
<g id="Line_Chart">
</g>
<g id="Bar_Chart">
</g>
<g id="Target">
</g>
<g id="Flashlight">
</g>
<g id="USB_Device">
</g>
<g id="Eject">
</g>
<g id="Lightbulb">
</g>
<g id="Information">
</g>
<g id="Deactivate_Protection">
</g>
<g id="Active_Protection">
</g>
<g id="Bug">
</g>
<g id="Protection">
</g>
<g id="Phone">
</g>
<g id="List">
</g>
<g id="Plugin_1">
	<g>
		<g>
			<path d="M14.964,10.496c-0.128,0-0.256-0.049-0.354-0.146c-0.195-0.195-0.195-0.512,0-0.707l6.457-6.456
				c0.498-0.498,0.498-1.308,0-1.806c-0.497-0.496-1.33-0.488-1.813-0.007l-6.462,6.462c-0.195,0.195-0.512,0.195-0.707,0
				s-0.195-0.512,0-0.707l6.462-6.462c0.859-0.86,2.36-0.861,3.219,0c0.895,0.895,0.895,2.339,0.007,3.227l-6.457,6.456
				C15.22,10.447,15.092,10.496,14.964,10.496z"/>
		</g>
		<g>
			<path d="M22.542,18.036c-0.128,0-0.256-0.049-0.354-0.146c-0.195-0.195-0.195-0.512,0-0.707l6.438-6.438
				C28.867,10.504,29,10.184,29,9.843s-0.133-0.661-0.374-0.902c-0.505-0.505-1.315-0.505-1.813-0.008l-6.444,6.444
				c-0.195,0.195-0.512,0.195-0.707,0s-0.195-0.512,0-0.707l6.444-6.444c0.888-0.886,2.332-0.887,3.219,0
				C29.763,8.663,30,9.234,30,9.843s-0.237,1.18-0.667,1.609l-6.438,6.438C22.797,17.987,22.669,18.036,22.542,18.036z"/>
		</g>
		<g>
			<path d="M0.5,27.48c-0.128,0-0.256-0.049-0.354-0.146c-0.195-0.195-0.195-0.512,0-0.707l4.409-4.409
				c0.195-0.195,0.512-0.195,0.707,0s0.195,0.512,0,0.707l-4.409,4.409C0.756,27.432,0.628,27.48,0.5,27.48z"/>
		</g>
		<g>
			<path d="M3.02,30c-0.128,0-0.256-0.049-0.354-0.146c-0.195-0.195-0.195-0.512,0-0.707l4.409-4.409
				c0.195-0.195,0.512-0.195,0.707,0s0.195,0.512,0,0.707l-4.409,4.409C3.275,29.951,3.147,30,3.02,30z"/>
		</g>
		<g>
			<path d="M11.838,27.391c-1.816,0-3.523-0.707-4.807-1.991l-2.43-2.43c-2.651-2.651-2.651-6.964,0-9.615l4.011-4.011L7.705,8.438
				c-0.195-0.195-0.195-0.512,0-0.707l2.486-2.486c0.195-0.195,0.511-0.194,0.706-0.001l13.925,13.857
				c0.095,0.095,0.148,0.224,0.147,0.357c-0.001,0.134-0.055,0.262-0.151,0.355L22.265,22.3c-0.196,0.19-0.509,0.188-0.702-0.005
				l-0.906-0.906l-4.011,4.011C15.361,26.684,13.654,27.391,11.838,27.391z M8.766,8.084L9.672,8.99
				c0.195,0.195,0.195,0.512,0,0.707l-4.364,4.364c-2.261,2.261-2.261,5.94,0,8.201l2.43,2.43c1.095,1.096,2.551,1.698,4.1,1.698
				s3.005-0.603,4.101-1.698l4.365-4.364c0.195-0.195,0.512-0.195,0.707,0l0.911,0.911l1.835-1.788L10.545,6.304L8.766,8.084z"/>
		</g>
	</g>
</g>
<g id="Bookmarrk">
</g>
<g id="Handshake">
</g>
<g id="Minimize">
</g>
<g id="Maximize">
</g>
<g id="Diamond">
</g>
<g id="Stop">
</g>
<g id="Shuffle">
</g>
<g id="Undo">
</g>
<g id="Upgrade">
</g>
<g id="Coding">
</g>
<g id="Syncronizaion">
</g>
<g id="Radio">
</g>
<g id="Presentation">
</g>
<g id="Door">
</g>
<g id="Thumbs_Up">
</g>
<g id="Thumbs_Down">
</g>
<g id="Keyboard">
</g>
<g id="_x33_D_Cube">
</g>
<g id="Signal">
</g>
<g id="Dice">
</g>
<g id="Upload">
</g>
<g id="Download">
</g>
<g id="Plugin_2">
</g>
<g id="Shopping_Bag">
</g>
<g id="Lifebelt">
</g>
<g id="Glasses">
</g>
<g id="Parabolic_Antenna">
</g>
<g id="Loudspeaker">
</g>
<g id="Play">
</g>
<g id="Pause">
</g>
<g id="Signpost">
</g>
<g id="Bluetooth">
</g>
<g id="Present">
</g>
<g id="Ruler">
</g>
<g id="Connection">
</g>
<g id="Money">
</g>
<g id="Paper_Plane">
</g>
<g id="Wallet_2">
</g>
</svg>
