<?xml version="1.0" encoding="iso-8859-1"?>
<!-- Generator: Adobe Illustrator 19.2.1, SVG Export Plug-In . SVG Version: 6.00 Build 0)  -->
<svg version="1.1" xmlns="http://www.w3.org/2000/svg" xmlns:xlink="http://www.w3.org/1999/xlink" x="0px" y="0px"
	 viewBox="0 0 30 30" style="enable-background:new 0 0 30 30;" xml:space="preserve">
<g id="Sun_Light">
</g>
<g id="Sunglasses">
</g>
<g id="T-Shirt_1">
</g>
<g id="T-Shirt_2">
</g>
<g id="Mini_Dress">
</g>
<g id="Flip-Flops">
</g>
<g id="Temperature">
</g>
<g id="Hot_Temperature">
</g>
<g id="Ice_Lolly">
</g>
<g id="Icecream">
</g>
<g id="Limonade_1">
</g>
<g id="Limonade_2">
</g>
<g id="Hat">
</g>
<g id="Straw_Hat">
</g>
<g id="Deckchair">
</g>
<g id="Sunshade">
</g>
<g id="Suncream">
</g>
<g id="Suntan_Oil">
</g>
<g id="Swimming_Trunks">
</g>
<g id="Bikini">
</g>
<g id="Pool">
</g>
<g id="Pool_Ladder">
	<g>
		<g id="XMLID_159_">
			<path d="M26.5,10h-16C10.224,10,10,9.776,10,9.5S10.224,9,10.5,9h16C26.776,9,27,9.224,27,9.5S26.776,10,26.5,10z"/>
		</g>
		<g id="XMLID_165_">
			<path d="M26.5,13h-16c-0.276,0-0.5-0.224-0.5-0.5s0.224-0.5,0.5-0.5h16c0.276,0,0.5,0.224,0.5,0.5S26.776,13,26.5,13z"/>
		</g>
		<g id="XMLID_166_">
			<path d="M26.5,17h-16c-0.276,0-0.5-0.224-0.5-0.5s0.224-0.5,0.5-0.5h16c0.276,0,0.5,0.224,0.5,0.5S26.776,17,26.5,17z"/>
		</g>
		<g id="XMLID_167_">
			<path d="M26.5,20h-16c-0.276,0-0.5-0.224-0.5-0.5s0.224-0.5,0.5-0.5h16c0.276,0,0.5,0.224,0.5,0.5S26.776,20,26.5,20z"/>
		</g>
		<g id="XMLID_168_">
			<path d="M26.5,27h-16c-0.276,0-0.5-0.224-0.5-0.5s0.224-0.5,0.5-0.5h16c0.276,0,0.5,0.224,0.5,0.5S26.776,27,26.5,27z"/>
		</g>
		<g id="XMLID_169_">
			<path d="M26.5,24h-16c-0.276,0-0.5-0.224-0.5-0.5s0.224-0.5,0.5-0.5h16c0.276,0,0.5,0.224,0.5,0.5S26.776,24,26.5,24z"/>
		</g>
		<g id="XMLID_170_">
			<path d="M10.5,30c-0.276,0-0.5-0.224-0.5-0.5V4.283C10,2.38,8.738,1,7,1S4,2.38,4,4.283V6c0,0.276-0.224,0.5-0.5,0.5S3,6.276,3,6
				V4.283C3,1.841,4.72,0,7,0s4,1.841,4,4.283V29.5C11,29.776,10.776,30,10.5,30z"/>
		</g>
		<g id="XMLID_171_">
			<path d="M26.5,30c-0.276,0-0.5-0.224-0.5-0.5V4.283C26,2.38,24.738,1,23,1s-3,1.38-3,3.283V6c0,0.276-0.224,0.5-0.5,0.5
				S19,6.276,19,6V4.283C19,1.841,20.72,0,23,0s4,1.841,4,4.283V29.5C27,29.776,26.776,30,26.5,30z"/>
		</g>
	</g>
</g>
<g id="Grill">
</g>
<g id="Kite_1">
</g>
<g id="Kite_2">
</g>
<g id="Badminton">
</g>
<g id="Cooler">
</g>
<g id="Strand_Bag">
</g>
<g id="Towel">
</g>
<g id="Strand_Ball">
</g>
<g id="Beach_Sign">
</g>
<g id="Toos">
</g>
<g id="Bucket">
</g>
<g id="Sand_Castle">
</g>
<g id="Shell_1">
</g>
<g id="Shell_2">
</g>
<g id="Surf_Board">
</g>
<g id="Float">
</g>
<g id="Vacation_Photo">
</g>
<g id="Summer_Time">
</g>
<g id="Boat">
</g>
<g id="Lifebuoy">
</g>
<g id="Lighthouse">
</g>
<g id="Sunset">
</g>
<g id="Dolphin">
</g>
<g id="Starfish">
</g>
<g id="Diving_Mask">
</g>
<g id="Sailboat">
</g>
<g id="Captin_Hat">
</g>
<g id="Eudder">
</g>
</svg>
