<?xml version="1.0" encoding="iso-8859-1"?>
<!-- Generator: Adobe Illustrator 19.2.1, SVG Export Plug-In . SVG Version: 6.00 Build 0)  -->
<svg version="1.1" xmlns="http://www.w3.org/2000/svg" xmlns:xlink="http://www.w3.org/1999/xlink" x="0px" y="0px"
	 viewBox="0 0 30 30" style="enable-background:new 0 0 30 30;" xml:space="preserve">
<g id="Sun_Light">
</g>
<g id="Sunglasses">
</g>
<g id="T-Shirt_1">
</g>
<g id="T-Shirt_2">
</g>
<g id="Mini_Dress">
</g>
<g id="Flip-Flops">
</g>
<g id="Temperature">
</g>
<g id="Hot_Temperature">
</g>
<g id="Ice_Lolly">
</g>
<g id="Icecream">
</g>
<g id="Limonade_1">
</g>
<g id="Limonade_2">
</g>
<g id="Hat">
</g>
<g id="Straw_Hat">
</g>
<g id="Deckchair">
</g>
<g id="Sunshade">
</g>
<g id="Suncream">
</g>
<g id="Suntan_Oil">
</g>
<g id="Swimming_Trunks">
</g>
<g id="Bikini">
</g>
<g id="Pool">
	<path d="M28.808,11.393c-0.001-0.002-0.003-0.004-0.004-0.006c-0.019-0.024-0.032-0.052-0.051-0.076
		c-0.013-0.016-0.032-0.025-0.047-0.039C27.074,9.141,20.885,8,15,8S2.926,9.141,1.293,11.273c-0.015,0.014-0.034,0.022-0.047,0.039
		c-0.019,0.024-0.032,0.052-0.051,0.076c-0.001,0.002-0.003,0.004-0.004,0.006C0.427,12.377,0,13.602,0,14.865
		c0,2.213,1.272,4.209,3.241,5.096c0.001,0.001,0.002,0.002,0.003,0.003c0.003,0.002,0.007,0.003,0.01,0.005
		c0.003,0.001,0.005,0.003,0.008,0.004c0.001,0,0.002,0,0.003,0.001C5.688,21.223,10.179,22,15,22c4.82,0,9.306-0.775,11.728-2.024
		c0.002-0.001,0.004,0,0.006-0.001c0.006-0.003,0.011-0.006,0.017-0.009c0.004-0.002,0.009-0.004,0.013-0.006
		c0.002-0.001,0.003-0.003,0.004-0.003C28.731,19.065,30,17.073,30,14.865C30,13.602,29.574,12.377,28.808,11.393z M15,15.8
		c-4.311,0-7.728-0.558-10-1.291c1.565-0.851,5.157-1.608,10-1.608c4.833,0,8.431,0.759,9.998,1.609
		C22.726,15.243,19.309,15.8,15,15.8z M26.153,14.086C24.575,12.766,20.233,11.9,15,11.9c-5.154,0-9.568,0.884-11.15,2.187
		c-1.289-0.553-1.983-1.159-1.983-1.687C1.867,10.98,6.863,9,15,9s13.133,1.98,13.133,3.4
		C28.133,12.928,27.439,13.533,26.153,14.086z"/>
</g>
<g id="Pool_Ladder">
</g>
<g id="Grill">
</g>
<g id="Kite_1">
</g>
<g id="Kite_2">
</g>
<g id="Badminton">
</g>
<g id="Cooler">
</g>
<g id="Strand_Bag">
</g>
<g id="Towel">
</g>
<g id="Strand_Ball">
</g>
<g id="Beach_Sign">
</g>
<g id="Toos">
</g>
<g id="Bucket">
</g>
<g id="Sand_Castle">
</g>
<g id="Shell_1">
</g>
<g id="Shell_2">
</g>
<g id="Surf_Board">
</g>
<g id="Float">
</g>
<g id="Vacation_Photo">
</g>
<g id="Summer_Time">
</g>
<g id="Boat">
</g>
<g id="Lifebuoy">
</g>
<g id="Lighthouse">
</g>
<g id="Sunset">
</g>
<g id="Dolphin">
</g>
<g id="Starfish">
</g>
<g id="Diving_Mask">
</g>
<g id="Sailboat">
</g>
<g id="Captin_Hat">
</g>
<g id="Eudder">
</g>
</svg>
