<?xml version="1.0" encoding="iso-8859-1"?>
<!-- Generator: Adobe Illustrator 19.2.1, SVG Export Plug-In . SVG Version: 6.00 Build 0)  -->
<svg version="1.1" xmlns="http://www.w3.org/2000/svg" xmlns:xlink="http://www.w3.org/1999/xlink" x="0px" y="0px"
	 viewBox="0 0 24 24" style="enable-background:new 0 0 24 24;" xml:space="preserve">
<g id="Sun_Light">
</g>
<g id="Sunglasses">
</g>
<g id="T-Shirt_1">
</g>
<g id="T-Shirt_2">
</g>
<g id="Mini_Dress">
</g>
<g id="Flip-Flops">
</g>
<g id="Temperature">
</g>
<g id="Hot_Temperature">
</g>
<g id="Ice_Lolly">
</g>
<g id="Icecream">
</g>
<g id="Limonade_1">
</g>
<g id="Limonade_2">
</g>
<g id="Hat">
</g>
<g id="Straw_Hat">
</g>
<g id="Deckchair">
</g>
<g id="Sunshade">
</g>
<g id="Suncream">
</g>
<g id="Suntan_Oil">
</g>
<g id="Swimming_Trunks">
</g>
<g id="Bikini">
</g>
<g id="Pool">
	<path d="M24,11.896c0-0.982-0.339-1.934-0.942-2.704c-0.001-0.002-0.002-0.003-0.003-0.005c-0.026-0.033-0.044-0.07-0.071-0.103
		c-0.013-0.016-0.031-0.023-0.045-0.037C21.602,7.373,16.783,6.5,12,6.5c-4.783,0-9.603,0.873-10.938,2.548
		C1.047,9.062,1.029,9.069,1.017,9.084C0.99,9.117,0.971,9.154,0.945,9.187C0.944,9.189,0.943,9.19,0.942,9.192
		C0.339,9.962,0,10.914,0,11.896c0,1.747,1.032,3.323,2.63,4.024c0.002,0.001,0.003,0.003,0.004,0.003
		c0.004,0.002,0.009,0.004,0.013,0.006c0.002,0.001,0.004,0.002,0.006,0.003c0.001,0,0.002,0,0.002,0C4.589,16.9,8.165,17.5,12,17.5
		c3.835,0,7.408-0.601,9.342-1.566c0.001,0,0.001,0,0.002,0c0.001-0.001,0.003-0.002,0.004-0.002
		c0.007-0.004,0.017-0.007,0.024-0.01c0.003-0.002,0.005-0.005,0.008-0.006C22.972,15.21,24,13.639,24,11.896z M22.312,10
		c0,0.362-0.514,0.781-1.447,1.172C19.393,10.02,15.465,9.5,12,9.5c-3.472,0-7.392,0.521-8.865,1.672
		C2.202,10.781,1.687,10.362,1.687,10c0-1.02,4.017-2.5,10.313-2.5C18.295,7.5,22.312,8.98,22.312,10z M19.622,11.601
		C17.827,12.114,15.213,12.5,12,12.5c-3.214,0-5.829-0.387-7.624-0.9c1.362-0.598,4.147-1.1,7.623-1.1
		C15.467,10.5,18.257,11.003,19.622,11.601z"/>
</g>
<g id="Pool_Ladder">
</g>
<g id="Grill">
</g>
<g id="Kite_1">
</g>
<g id="Kite_2">
</g>
<g id="Badminton">
</g>
<g id="Cooler">
</g>
<g id="Strand_Bag">
</g>
<g id="Towel">
</g>
<g id="Strand_Ball">
</g>
<g id="Beach_Sign">
</g>
<g id="Toos">
</g>
<g id="Bucket">
</g>
<g id="Sand_Castle">
</g>
<g id="Shell_1">
</g>
<g id="Shell_2">
</g>
<g id="Surf_Board">
</g>
<g id="Float">
</g>
<g id="Vacation_Photo">
</g>
<g id="Summer_Time">
</g>
<g id="Boat">
</g>
<g id="Lifebuoy">
</g>
<g id="Lighthouse">
</g>
<g id="Sunset">
</g>
<g id="Dolphin">
</g>
<g id="Starfish">
</g>
<g id="Diving_Mask">
</g>
<g id="Sailboat">
</g>
<g id="Captin_Hat">
</g>
<g id="Eudder">
</g>
</svg>
