<?xml version="1.0" encoding="iso-8859-1"?>
<!-- Generator: Adobe Illustrator 19.2.1, SVG Export Plug-In . SVG Version: 6.00 Build 0)  -->
<svg version="1.1" xmlns="http://www.w3.org/2000/svg" xmlns:xlink="http://www.w3.org/1999/xlink" x="0px" y="0px"
	 viewBox="0 0 30 30" style="enable-background:new 0 0 30 30;" xml:space="preserve">
<g id="Cutting_Board_1">
</g>
<g id="Cutting_Board_2">
</g>
<g id="Chef_x27_s_Hat_1">
</g>
<g id="Chef_x27_s_Hat_2">
</g>
<g id="Kitchen_Scale">
</g>
<g id="Measuring_Cup">
</g>
<g id="Pot_1">
</g>
<g id="Pot_2">
	<g>
		<path d="M28.952,13.346c-0.118-0.25-0.417-0.358-0.665-0.239L27,13.712V12.5c0-0.276-0.224-0.5-0.5-0.5h-23
			C3.224,12,3,12.224,3,12.5v1.212l-1.287-0.606c-0.248-0.119-0.547-0.011-0.665,0.239s-0.011,0.548,0.239,0.666L3,14.817V21.5
			C3,24.533,5.468,27,8.5,27h13c3.032,0,5.5-2.467,5.5-5.5v-6.683l1.713-0.806C28.963,13.894,29.07,13.596,28.952,13.346z M8.5,25
			C6.57,25,5,23.43,5,21.5C5,21.224,5.224,21,5.5,21S6,21.224,6,21.5C6,22.878,7.121,24,8.5,24C8.776,24,9,24.224,9,24.5
			S8.776,25,8.5,25z"/>
		<path d="M3.642,11h22.717c0.154,0,0.301-0.072,0.396-0.194c0.095-0.123,0.127-0.282,0.089-0.432C26.327,8.388,24.542,7,22.5,7
			h-3.551c-0.245-1.692-1.691-3-3.449-3s-3.204,1.308-3.449,3H7.5c-2.042,0-3.827,1.388-4.343,3.375
			c-0.038,0.15-0.006,0.309,0.089,0.432C3.341,10.928,3.487,11,3.642,11z M15.5,5c1.208,0,2.217,0.86,2.449,2h-4.899
			C13.283,5.86,14.292,5,15.5,5z"/>
	</g>
</g>
<g id="Wok_1">
</g>
<g id="Wok_2">
</g>
<g id="Teapot">
</g>
<g id="Plate">
</g>
<g id="Sauce_Boat">
</g>
<g id="Cauldron">
</g>
<g id="Cookbook">
</g>
<g id="Salt_Pot">
</g>
<g id="Pepper_Pot_1">
</g>
<g id="Pepper_Pot_2">
</g>
<g id="Egg_Timer">
</g>
<g id="Olive_Oil_Pot">
</g>
<g id="Pancake_Griddle">
</g>
<g id="Pan">
</g>
<g id="Kettle">
</g>
<g id="Microwave">
</g>
<g id="Cooker">
</g>
<g id="Meat_Grinder">
</g>
<g id="Coffee_Maker">
</g>
<g id="Household_Mixer">
</g>
<g id="Stand_Mixer">
</g>
<g id="Hand_Blender">
</g>
<g id="Blender">
</g>
<g id="Cooker_Hood">
</g>
<g id="Refrigerator">
</g>
<g id="Freezer">
</g>
<g id="Apron">
</g>
<g id="Oven_Gloves">
</g>
<g id="Rolling_Pin">
</g>
<g id="Sieve">
</g>
<g id="Tea_Sieve">
</g>
<g id="Grater">
</g>
<g id="Knife_Holder">
</g>
<g id="Funnel">
</g>
<g id="Kitchen_Clock">
</g>
<g id="Lemon_Juicer">
</g>
<g id="Pastry_Bag_1">
</g>
<g id="Pastry_Bag_2">
</g>
<g id="Corkscrew">
</g>
<g id="Bottle_Opener">
</g>
<g id="Service">
</g>
<g id="Chopsticks">
</g>
<g id="Hatchet">
</g>
<g id="Filleting_Knife">
</g>
<g id="Bread_Knife">
</g>
<g id="Herb_Knife">
</g>
<g id="Whetting">
</g>
<g id="Cake_Knife">
</g>
<g id="Layer_58">
</g>
<g id="Ladle">
</g>
<g id="Sauce_Spoon">
</g>
<g id="Egg_Beater">
</g>
<g id="Meat_Fork">
</g>
<g id="Kitchen_Spoon_1">
</g>
<g id="Kitchen_Spoon_2">
</g>
<g id="Pizza_Cutter">
</g>
<g id="Potato_Musher">
</g>
<g id="Peeler">
</g>
<g id="Honey_Dipper">
</g>
<g id="Fork">
</g>
<g id="Knife">
</g>
<g id="Spoon">
</g>
<g id="Cutlery_Set">
</g>
<g id="Sugar_Bowl">
</g>
<g id="Matches">
</g>
<g id="Cezve">
</g>
</svg>
