<?xml version="1.0" encoding="iso-8859-1"?>
<!-- Generator: Adobe Illustrator 19.2.1, SVG Export Plug-In . SVG Version: 6.00 Build 0)  -->
<svg version="1.1" xmlns="http://www.w3.org/2000/svg" xmlns:xlink="http://www.w3.org/1999/xlink" x="0px" y="0px"
	 viewBox="0 0 30 30" style="enable-background:new 0 0 30 30;" xml:space="preserve">
<g id="Cutting_Board_1">
</g>
<g id="Cutting_Board_2">
</g>
<g id="Chef_x27_s_Hat_1">
</g>
<g id="Chef_x27_s_Hat_2">
</g>
<g id="Kitchen_Scale">
</g>
<g id="Measuring_Cup">
</g>
<g id="Pot_1">
</g>
<g id="Pot_2">
	<g>
		<g>
			<g>
				<path d="M26.5,14.5c-0.188,0-0.367-0.106-0.452-0.287c-0.118-0.25-0.011-0.548,0.239-0.666l2-0.941
					c0.248-0.118,0.548-0.01,0.665,0.239c0.118,0.25,0.011,0.548-0.239,0.666l-2,0.941C26.645,14.485,26.571,14.5,26.5,14.5z"/>
			</g>
			<g>
				<path d="M3.5,14.5c-0.071,0-0.145-0.015-0.213-0.048l-2-0.941c-0.25-0.118-0.357-0.416-0.239-0.666
					c0.117-0.25,0.418-0.357,0.665-0.239l2,0.941c0.25,0.118,0.357,0.416,0.239,0.666C3.867,14.394,3.688,14.5,3.5,14.5z"/>
			</g>
		</g>
		<g>
			<path d="M21.5,26.5h-13C5.468,26.5,3,24.033,3,21v-9c0-0.276,0.224-0.5,0.5-0.5h23c0.276,0,0.5,0.224,0.5,0.5v9
				C27,24.033,24.532,26.5,21.5,26.5z M4,12.5V21c0,2.481,2.019,4.5,4.5,4.5h13c2.481,0,4.5-2.019,4.5-4.5v-8.5H4z"/>
		</g>
		<g>
			<path d="M8.5,24.5C6.57,24.5,5,22.93,5,21c0-0.276,0.224-0.5,0.5-0.5S6,20.724,6,21c0,1.378,1.121,2.5,2.5,2.5
				C8.776,23.5,9,23.724,9,24S8.776,24.5,8.5,24.5z"/>
		</g>
		<g>
			<path d="M26.5,12.5h-23C3.224,12.5,3,12.276,3,12v-1c0-2.481,2.019-4.5,4.5-4.5h15c2.481,0,4.5,2.019,4.5,4.5v1
				C27,12.276,26.776,12.5,26.5,12.5z M4,11.5h22V11c0-1.93-1.57-3.5-3.5-3.5h-15C5.57,7.5,4,9.07,4,11V11.5z"/>
		</g>
		<g>
			<path d="M18.5,7.5C18.224,7.5,18,7.276,18,7c0-1.378-1.121-2.5-2.5-2.5S13,5.622,13,7c0,0.276-0.224,0.5-0.5,0.5S12,7.276,12,7
				c0-1.93,1.57-3.5,3.5-3.5S19,5.07,19,7C19,7.276,18.776,7.5,18.5,7.5z"/>
		</g>
	</g>
</g>
<g id="Wok_1">
</g>
<g id="Wok_2">
</g>
<g id="Teapot">
</g>
<g id="Plate">
</g>
<g id="Sauce_Boat">
</g>
<g id="Cauldron">
</g>
<g id="Cookbook">
</g>
<g id="Salt_Pot">
</g>
<g id="Pepper_Pot_1">
</g>
<g id="Pepper_Pot_2">
</g>
<g id="Egg_Timer">
</g>
<g id="Olive_Oil_Pot">
</g>
<g id="Pancake_Griddle">
</g>
<g id="Pan">
</g>
<g id="Kettle">
</g>
<g id="Microwave">
</g>
<g id="Cooker">
</g>
<g id="Meat_Grinder">
</g>
<g id="Coffee_Maker">
</g>
<g id="Household_Mixer">
</g>
<g id="Stand_Mixer">
</g>
<g id="Hand_Blender">
</g>
<g id="Blender">
</g>
<g id="Cooker_Hood">
</g>
<g id="Refrigerator">
</g>
<g id="Freezer">
</g>
<g id="Apron">
</g>
<g id="Oven_Gloves">
</g>
<g id="Rolling_Pin">
</g>
<g id="Sieve">
</g>
<g id="Tea_Sieve">
</g>
<g id="Grater">
</g>
<g id="Knife_Holder">
</g>
<g id="Funnel">
</g>
<g id="Kitchen_Clock">
</g>
<g id="Lemon_Juicer">
</g>
<g id="Pastry_Bag_1">
</g>
<g id="Pastry_Bag_2">
</g>
<g id="Corkscrew">
</g>
<g id="Bottle_Opener">
</g>
<g id="Service">
</g>
<g id="Chopsticks">
</g>
<g id="Hatchet">
</g>
<g id="Filleting_Knife">
</g>
<g id="Bread_Knife">
</g>
<g id="Herb_Knife">
</g>
<g id="Whetting">
</g>
<g id="Cake_Knife">
</g>
<g id="Layer_58">
</g>
<g id="Ladle">
</g>
<g id="Sauce_Spoon">
</g>
<g id="Egg_Beater">
</g>
<g id="Meat_Fork">
</g>
<g id="Kitchen_Spoon_1">
</g>
<g id="Kitchen_Spoon_2">
</g>
<g id="Pizza_Cutter">
</g>
<g id="Potato_Musher">
</g>
<g id="Peeler">
</g>
<g id="Honey_Dipper">
</g>
<g id="Fork">
</g>
<g id="Knife">
</g>
<g id="Spoon">
</g>
<g id="Cutlery_Set">
</g>
<g id="Sugar_Bowl">
</g>
<g id="Matches">
</g>
<g id="Cezve">
</g>
</svg>
