<?xml version="1.0" encoding="iso-8859-1"?>
<!-- Generator: Adobe Illustrator 19.2.1, SVG Export Plug-In . SVG Version: 6.00 Build 0)  -->
<svg version="1.1" xmlns="http://www.w3.org/2000/svg" xmlns:xlink="http://www.w3.org/1999/xlink" x="0px" y="0px"
	 viewBox="0 0 30 30" style="enable-background:new 0 0 30 30;" xml:space="preserve">
<g id="Add_User">
</g>
<g id="Remove_User">
</g>
<g id="Delete_User">
</g>
<g id="Done">
</g>
<g id="At_Symbol">
</g>
<g id="Question">
</g>
<g id="Answer">
</g>
<g id="Bring_Up">
</g>
<g id="Bring_Down">
</g>
<g id="Dismiss_User">
</g>
<g id="User_Speed">
</g>
<g id="User_Settings">
</g>
<g id="User_Refresh">
</g>
<g id="User_Time">
</g>
<g id="Dollar">
</g>
<g id="Euro">
</g>
<g id="Pound">
	<g>
		<g>
			<g>
				<g>
					<g>
						<g>
							<g>
								<path d="M23.5,30c-3.584,0-6.5-2.916-6.5-6.5s2.916-6.5,6.5-6.5s6.5,2.916,6.5,6.5S27.084,30,23.5,30z M23.5,18
									c-3.032,0-5.5,2.467-5.5,5.5s2.468,5.5,5.5,5.5s5.5-2.467,5.5-5.5S26.532,18,23.5,18z"/>
							</g>
							<g>
								<path d="M23.5,26c-0.276,0-0.5-0.224-0.5-0.5v-6c0-0.276,0.224-0.5,0.5-0.5s0.5,0.224,0.5,0.5v6
									C24,25.776,23.776,26,23.5,26z"/>
							</g>
						</g>
					</g>
				</g>
			</g>
		</g>
		<g>
			<path d="M18.216,29.991C18.216,29.991,18.216,29.991,18.216,29.991l-17.717-0.02C0.224,29.97,0,29.747,0,29.471v-3.026
				c0-1.585,0.688-2.618,2.045-3.07l5.547-1.849c1.406-0.587,2.03-2.868,2.14-3.687C9.14,17.311,7.75,15.922,7.75,14.5
				c0-0.654-0.264-0.769-0.274-0.773C7.331,13.69,7.237,13.6,7.174,13.465C7.146,13.407,6.5,12.039,6.5,11
				C6.516,10.499,6.661,9.946,7,9.673V6.5C7,3.882,9.729,0,13.5,0c3.667,0,4.639,2.078,4.74,3.076C18.811,3.375,20,4.075,20,6.5
				v3.173c0.339,0.272,0.484,0.821,0.5,1.312c0,1.091-0.989,2.42-1.103,2.569c-0.068,0.09-0.166,0.154-0.276,0.182h0.001
				c0.008,0-0.247,0.121-0.247,0.765c0,1.222-0.503,2.401-1.356,3.208c0.024,0.179,0.073,0.446,0.156,0.765
				c0.069,0.268-0.092,0.54-0.359,0.609c-0.271,0.073-0.54-0.092-0.609-0.358C16.581,18.241,16.5,17.76,16.5,17.5
				c0-0.149,0.066-0.291,0.182-0.385c0.736-0.608,1.193-1.61,1.193-2.615c0-0.98,0.441-1.47,0.805-1.658
				c0.346-0.484,0.82-1.325,0.82-1.842c-0.007-0.174-0.055-0.407-0.105-0.511C19.169,10.44,19,10.24,19,10V6.5
				c0-1.902-0.831-2.334-1.277-2.567c-0.201-0.104-0.451-0.234-0.498-0.539c-0.011-0.067-0.001-0.147,0.021-0.226
				C17.187,2.526,16.43,1,13.5,1C10.142,1,8,4.611,8,6.5V10c0,0.24-0.169,0.441-0.396,0.489c-0.053,0.11-0.1,0.359-0.104,0.527
				c0,0.574,0.316,1.427,0.504,1.859C8.354,13.084,8.75,13.572,8.75,14.5c0,0.85,0.942,2.016,1.818,2.74
				c0.115,0.095,0.182,0.236,0.182,0.385c0,0.776-0.702,3.959-2.808,4.836l-5.581,1.862C1.42,24.637,1,25.292,1,26.445v2.526
				l17.217,0.02c0.275,0,0.499,0.225,0.499,0.5S18.491,29.991,18.216,29.991z"/>
		</g>
		<g>
			<circle cx="23.5" cy="27.5" r="0.5"/>
		</g>
	</g>
</g>
<g id="Bitcoin">
</g>
<g id="Global_User">
</g>
<g id="Waiting_User">
</g>
<g id="Writing_User_2">
</g>
<g id="Search_User">
</g>
<g id="Lock_User">
</g>
<g id="Mark_User">
</g>
<g id="Share_User">
</g>
<g id="Shopping">
</g>
<g id="User_Download">
</g>
<g id="User_Upload">
</g>
<g id="User_Statistics">
</g>
<g id="User_Defense">
</g>
<g id="User_Car">
</g>
<g id="User_Home">
</g>
<g id="Park">
</g>
<g id="Recicle_User">
</g>
<g id="Wifi">
</g>
<g id="Attach_User">
</g>
<g id="Disabled_User">
</g>
<g id="User_Card">
</g>
<g id="Gaming">
</g>
<g id="User_Cloud">
</g>
<g id="User_Database">
</g>
<g id="Copyright">
</g>
<g id="No_Copyright">
</g>
<g id="Creative_Commun">
</g>
<g id="Eco-Friendly">
</g>
<g id="Percentage">
</g>
<g id="User_Love">
</g>
<g id="User_Place">
</g>
<g id="User_Key">
</g>
<g id="Sleeping">
</g>
<g id="Add_User_2">
</g>
<g id="Remove_User_2">
</g>
<g id="Delete_User_2">
</g>
<g id="Done_2">
</g>
<g id="At_Symbol_2">
</g>
<g id="Question_2">
</g>
<g id="Answer_2">
</g>
<g id="Bring_Up_2">
</g>
<g id="Bring_Down_2">
</g>
<g id="Dismiss_User_2">
</g>
<g id="User_Speed_2">
</g>
<g id="User_Settings_2">
</g>
<g id="Refresh_2">
</g>
<g id="Time_2">
</g>
<g id="Dollar_2">
</g>
<g id="Euro_2">
</g>
<g id="Pound_2">
</g>
<g id="Bitcoin_2">
</g>
<g id="Global_User_2">
</g>
<g id="Waiting_User_2">
</g>
<g id="Writing_User">
</g>
<g id="Search_User_2">
</g>
<g id="Lock_User_2">
</g>
<g id="Mark_User_2">
</g>
<g id="Share_User_2">
</g>
<g id="Shopping_2">
</g>
<g id="Download_2">
</g>
<g id="Upload_2">
</g>
<g id="User_Statistics_2">
</g>
<g id="User_Defense_2">
</g>
<g id="Car_2">
</g>
<g id="Home_2">
</g>
<g id="Park_2">
</g>
<g id="Recicle_User_2">
</g>
<g id="User_Wifi">
</g>
<g id="Attach_2">
</g>
<g id="Disabled_User_2">
</g>
<g id="User_Card_2">
</g>
<g id="Gaming_2">
</g>
<g id="Cloud_2">
</g>
<g id="Database_2">
</g>
<g id="Copyright_2">
</g>
<g id="No_Copyright_2">
</g>
<g id="Creative_Commun_2">
</g>
<g id="Eco-Friendly_2">
</g>
<g id="Percentage_2">
</g>
<g id="User_Love_2">
</g>
<g id="User_Rate_2">
</g>
<g id="User_Key_2">
</g>
<g id="Sleeping_2">
</g>
</svg>
