<?xml version="1.0" encoding="iso-8859-1"?>
<!-- Generator: Adobe Illustrator 19.2.1, SVG Export Plug-In . SVG Version: 6.00 Build 0)  -->
<svg version="1.1" xmlns="http://www.w3.org/2000/svg" xmlns:xlink="http://www.w3.org/1999/xlink" x="0px" y="0px"
	 viewBox="0 0 30 30" style="enable-background:new 0 0 30 30;" xml:space="preserve">
<g id="Mail">
</g>
<g id="Open_Mail">
</g>
<g id="Mail_Attachmet">
</g>
<g id="Mails">
</g>
<g id="Trash">
</g>
<g id="Trash_Full">
</g>
<g id="Preferences_1">
	<path d="M28.883,13.687c-0.09-0.698-0.485-1.305-1.085-1.667c-0.592-0.357-1.302-0.424-1.963-0.175
		c-0.614,0.23-1.317-0.083-1.601-0.711c-0.292-0.652-0.652-1.278-1.073-1.863c-0.409-0.568-0.331-1.315,0.183-1.737
		c0.534-0.438,0.833-1.086,0.818-1.776c-0.014-0.702-0.346-1.349-0.909-1.775c-0.961-0.727-2.013-1.333-3.126-1.8
		c-0.655-0.275-1.388-0.238-2.004,0.103c-0.603,0.332-1.014,0.912-1.127,1.59c-0.109,0.658-0.723,1.107-1.427,1.025
		c-0.703-0.072-1.434-0.073-2.138,0c-0.705,0.07-1.317-0.368-1.427-1.025c-0.113-0.678-0.524-1.258-1.127-1.59
		c-0.618-0.341-1.349-0.378-2.005-0.103c-1.113,0.467-2.165,1.073-3.125,1.8C5.183,4.409,4.852,5.056,4.837,5.757
		c-0.014,0.69,0.285,1.338,0.82,1.777C6.17,7.956,6.249,8.702,5.838,9.271c-0.419,0.582-0.78,1.208-1.073,1.862
		c-0.282,0.629-0.986,0.942-1.614,0.707c-0.647-0.243-1.358-0.176-1.949,0.18c-0.6,0.361-0.996,0.969-1.086,1.667
		C0.04,14.289,0,14.899,0,15.5c0,0.601,0.04,1.211,0.117,1.813c0.09,0.698,0.486,1.306,1.086,1.667
		c0.591,0.355,1.301,0.42,1.962,0.175c0.614-0.232,1.317,0.083,1.6,0.712c0.294,0.655,0.655,1.282,1.073,1.861
		c0.41,0.569,0.331,1.316-0.182,1.738c-0.534,0.438-0.833,1.084-0.819,1.773c0.014,0.702,0.345,1.351,0.91,1.778
		c0.963,0.728,2.015,1.333,3.125,1.799c0.656,0.275,1.388,0.238,2.004-0.102c0.603-0.333,1.014-0.913,1.127-1.592
		c0.109-0.658,0.72-1.095,1.427-1.024c0.703,0.074,1.436,0.074,2.138,0c0.7-0.064,1.318,0.367,1.427,1.024
		c0.113,0.68,0.524,1.26,1.127,1.592c0.344,0.189,0.723,0.285,1.104,0.285c0.304,0,0.609-0.062,0.9-0.184
		c1.11-0.466,2.162-1.071,3.126-1.8c0.564-0.427,0.896-1.074,0.909-1.776c0.014-0.689-0.285-1.337-0.819-1.774
		c-0.513-0.422-0.591-1.169-0.182-1.738c0.42-0.582,0.78-1.208,1.073-1.861c0.283-0.63,0.987-0.943,1.601-0.712l0.014,0.005
		c0.649,0.242,1.358,0.175,1.949-0.18c0.6-0.362,0.995-0.97,1.085-1.667C28.961,16.713,29,16.103,29,15.5
		S28.961,14.288,28.883,13.687z M14.5,21C11.467,21,9,18.532,9,15.5c0-3.033,2.467-5.5,5.5-5.5c3.032,0,5.5,2.467,5.5,5.5
		C20,18.532,17.532,21,14.5,21z"/>
</g>
<g id="Preferences_2">
</g>
<g id="Mouse">
</g>
<g id="Computer">
</g>
<g id="Notebook">
</g>
<g id="Mobile_Phone">
</g>
<g id="Print">
</g>
<g id="Calculator">
</g>
<g id="Tag">
</g>
<g id="Paperclip">
</g>
<g id="Heart">
</g>
<g id="Lock">
</g>
<g id="Lock_Open">
</g>
<g id="Key_1">
</g>
<g id="Star">
</g>
<g id="Add">
</g>
<g id="Remove">
</g>
<g id="Error">
</g>
<g id="Check_1">
</g>
<g id="Time">
</g>
<g id="Question_Mark">
</g>
<g id="Error_Mark">
</g>
<g id="Sand-Glass">
</g>
<g id="Battery_Full">
</g>
<g id="Battery_Charge">
</g>
<g id="Battery_Half">
</g>
<g id="Battery_Low">
</g>
<g id="No_Battery">
</g>
<g id="Key_2">
</g>
<g id="Link">
</g>
<g id="Brake_Link">
</g>
<g id="Pencil">
</g>
<g id="At">
</g>
<g id="Reply">
</g>
<g id="Accessible">
</g>
<g id="Up_Arrow">
</g>
<g id="Brush">
</g>
<g id="Design_Mug">
</g>
<g id="Design">
</g>
<g id="Server">
</g>
<g id="Database">
</g>
<g id="Save">
</g>
<g id="Female">
</g>
<g id="Male">
</g>
<g id="Book">
</g>
<g id="Power">
</g>
<g id="Reload">
</g>
<g id="Map">
</g>
<g id="Loction_1">
</g>
<g id="Location_2">
</g>
<g id="Globe">
</g>
<g id="Suitcase">
</g>
<g id="Callendar">
</g>
<g id="Cloud_Off">
</g>
<g id="File_1">
</g>
<g id="File_2">
</g>
<g id="Folder">
</g>
<g id="Open_Folder">
</g>
<g id="Cloud">
</g>
<g id="Upload_Cloud">
</g>
<g id="Download_Cloud">
</g>
<g id="Eye">
</g>
<g id="Invisible">
</g>
<g id="Assignment">
</g>
<g id="Note_Book">
</g>
<g id="Webpage">
</g>
<g id="Mailbox">
</g>
<g id="Drive">
</g>
<g id="Disc">
</g>
<g id="Wifi_1">
</g>
<g id="Wifi_2">
</g>
<g id="Archive">
</g>
<g id="Archive_File">
</g>
<g id="News">
</g>
<g id="Home">
</g>
<g id="Collaboration">
</g>
<g id="Announcement">
</g>
<g id="Watch">
</g>
<g id="Clock">
</g>
<g id="Volume">
</g>
<g id="Mute">
</g>
<g id="Hand">
</g>
<g id="Layers">
</g>
<g id="Bell">
</g>
<g id="Speach_Bubble">
</g>
<g id="Speach_Bubbles">
</g>
<g id="Zoom_In">
</g>
<g id="Zoom_Out">
</g>
<g id="Search">
</g>
<g id="Back_Arrow">
</g>
<g id="Close">
</g>
<g id="Check_2">
</g>
<g id="Left_Arrow_2">
</g>
<g id="Right_Arrow_2">
</g>
</svg>
