<?xml version="1.0" encoding="iso-8859-1"?>
<!-- Generator: Adobe Illustrator 19.2.1, SVG Export Plug-In . SVG Version: 6.00 Build 0)  -->
<svg version="1.1" xmlns="http://www.w3.org/2000/svg" xmlns:xlink="http://www.w3.org/1999/xlink" x="0px" y="0px"
	 viewBox="0 0 30 30" style="enable-background:new 0 0 30 30;" xml:space="preserve">
<g id="Mail">
</g>
<g id="Open_Mail">
</g>
<g id="Mail_Attachmet">
</g>
<g id="Mails">
</g>
<g id="Trash">
</g>
<g id="Trash_Full">
</g>
<g id="Preferences_1">
</g>
<g id="Preferences_2">
	<g>
		<path d="M29.065,25.359L12.578,9.321c-0.468-0.456-0.686-1.121-0.581-1.78c0.363-2.287-0.232-4.226-1.769-5.761
			C9.047,0.6,7.566-0.034,6.042,0.001C4.69,0.031,3.401,0.51,2.314,1.388C2.187,1.491,2.118,1.648,2.129,1.812
			c0.012,0.163,0.102,0.31,0.242,0.394L6.294,4.56C6.199,5.812,5.463,6.916,4.326,7.485l-0.021,0.01L0.793,5.389
			C0.642,5.298,0.429,5.308,0.274,5.39C0.121,5.472,0.021,5.628,0.011,5.802c-0.101,1.721,0.492,3.357,1.67,4.607
			c1.162,1.232,2.799,1.939,4.492,1.939c0.271,0,0.67-0.074,1.256-0.231c0.705-0.193,1.459,0.018,1.97,0.542L25.365,29.07
			c0.599,0.6,1.395,0.93,2.243,0.93C28.927,30,30,28.927,30,27.607C30,26.759,29.67,25.963,29.065,25.359z"/>
		<path d="M25.294,7.304h1.685c0.189,0,0.362-0.107,0.447-0.276l2.521-5.043c0.097-0.192,0.059-0.425-0.094-0.577l-1.261-1.261
			c-0.152-0.152-0.384-0.189-0.577-0.094l-5.044,2.521c-0.169,0.085-0.276,0.258-0.276,0.447v1.685l-6.62,6.623l2.633,2.561
			L25.294,7.304z"/>
		<path d="M10.065,15.869c-0.124,0-0.243,0.046-0.335,0.129l-8.693,7.843C0.368,24.51,0,25.398,0,26.348
			c0,0.932,0.378,1.844,1.028,2.493l0.117,0.123C1.814,29.632,2.703,30,3.652,30c0.945,0,1.833-0.368,2.515-1.05
			c0,0,7.797-8.416,7.923-8.55c0.095-0.094,0.149-0.223,0.149-0.356c0-0.279,0.058-0.548,0.17-0.802l-3.478-3.575
			C10.663,15.795,10.371,15.869,10.065,15.869z"/>
	</g>
</g>
<g id="Mouse">
</g>
<g id="Computer">
</g>
<g id="Notebook">
</g>
<g id="Mobile_Phone">
</g>
<g id="Print">
</g>
<g id="Calculator">
</g>
<g id="Tag">
</g>
<g id="Paperclip">
</g>
<g id="Heart">
</g>
<g id="Lock">
</g>
<g id="Lock_Open">
</g>
<g id="Key_1">
</g>
<g id="Star">
</g>
<g id="Add">
</g>
<g id="Remove">
</g>
<g id="Error">
</g>
<g id="Check_1">
</g>
<g id="Time">
</g>
<g id="Question_Mark">
</g>
<g id="Error_Mark">
</g>
<g id="Sand-Glass">
</g>
<g id="Battery_Full">
</g>
<g id="Battery_Charge">
</g>
<g id="Battery_Half">
</g>
<g id="Battery_Low">
</g>
<g id="No_Battery">
</g>
<g id="Key_2">
</g>
<g id="Link">
</g>
<g id="Brake_Link">
</g>
<g id="Pencil">
</g>
<g id="At">
</g>
<g id="Reply">
</g>
<g id="Accessible">
</g>
<g id="Up_Arrow">
</g>
<g id="Brush">
</g>
<g id="Design_Mug">
</g>
<g id="Design">
</g>
<g id="Server">
</g>
<g id="Database">
</g>
<g id="Save">
</g>
<g id="Female">
</g>
<g id="Male">
</g>
<g id="Book">
</g>
<g id="Power">
</g>
<g id="Reload">
</g>
<g id="Map">
</g>
<g id="Loction_1">
</g>
<g id="Location_2">
</g>
<g id="Globe">
</g>
<g id="Suitcase">
</g>
<g id="Callendar">
</g>
<g id="Cloud_Off">
</g>
<g id="File_1">
</g>
<g id="File_2">
</g>
<g id="Folder">
</g>
<g id="Open_Folder">
</g>
<g id="Cloud">
</g>
<g id="Upload_Cloud">
</g>
<g id="Download_Cloud">
</g>
<g id="Eye">
</g>
<g id="Invisible">
</g>
<g id="Assignment">
</g>
<g id="Note_Book">
</g>
<g id="Webpage">
</g>
<g id="Mailbox">
</g>
<g id="Drive">
</g>
<g id="Disc">
</g>
<g id="Wifi_1">
</g>
<g id="Wifi_2">
</g>
<g id="Archive">
</g>
<g id="Archive_File">
</g>
<g id="News">
</g>
<g id="Home">
</g>
<g id="Collaboration">
</g>
<g id="Announcement">
</g>
<g id="Watch">
</g>
<g id="Clock">
</g>
<g id="Volume">
</g>
<g id="Mute">
</g>
<g id="Hand">
</g>
<g id="Layers">
</g>
<g id="Bell">
</g>
<g id="Speach_Bubble">
</g>
<g id="Speach_Bubbles">
</g>
<g id="Zoom_In">
</g>
<g id="Zoom_Out">
</g>
<g id="Search">
</g>
<g id="Back_Arrow">
</g>
<g id="Close">
</g>
<g id="Check_2">
</g>
<g id="Left_Arrow_2">
</g>
<g id="Right_Arrow_2">
</g>
</svg>
