<?xml version="1.0" encoding="iso-8859-1"?>
<!-- Generator: Adobe Illustrator 19.2.1, SVG Export Plug-In . SVG Version: 6.00 Build 0)  -->
<svg version="1.1" xmlns="http://www.w3.org/2000/svg" xmlns:xlink="http://www.w3.org/1999/xlink" x="0px" y="0px"
	 viewBox="0 0 30 30" style="enable-background:new 0 0 30 30;" xml:space="preserve">
<g id="Mail">
</g>
<g id="Open_Mail">
</g>
<g id="Mail_Attachmet">
</g>
<g id="Mails">
</g>
<g id="Trash">
</g>
<g id="Trash_Full">
</g>
<g id="Preferences_1">
	<g>
		<g>
			<path d="M9.772,29c-0.304,0-0.609-0.061-0.899-0.183c-1.112-0.466-2.163-1.072-3.126-1.8c-0.563-0.426-0.896-1.073-0.909-1.775
				c-0.015-0.69,0.284-1.337,0.818-1.776c0.514-0.422,0.592-1.169,0.183-1.737c-0.42-0.583-0.781-1.209-1.074-1.862
				c-0.28-0.629-0.979-0.943-1.6-0.712c-0.662,0.248-1.372,0.181-1.963-0.175c-0.6-0.362-0.995-0.969-1.085-1.667
				C0.039,16.712,0,16.103,0,15.5s0.039-1.212,0.117-1.813c0.09-0.697,0.485-1.305,1.085-1.667c0.591-0.355,1.303-0.422,1.949-0.18
				c0.627,0.234,1.33-0.078,1.613-0.706c0.293-0.654,0.654-1.28,1.073-1.863c0.41-0.569,0.333-1.315-0.181-1.737
				C5.122,7.095,4.823,6.447,4.838,5.757c0.014-0.701,0.346-1.348,0.909-1.774c0.963-0.728,2.014-1.334,3.126-1.8
				c0.654-0.275,1.385-0.238,2.004,0.103c0.603,0.332,1.014,0.912,1.127,1.59c0.11,0.659,0.727,1.104,1.428,1.025
				c0.703-0.073,1.434-0.073,2.137,0c0.699,0.08,1.318-0.367,1.428-1.025c0.113-0.678,0.524-1.258,1.127-1.59
				c0.618-0.34,1.35-0.378,2.004-0.103c1.113,0.467,2.165,1.073,3.126,1.8c0.563,0.426,0.896,1.073,0.909,1.775
				c0.015,0.69-0.284,1.337-0.818,1.776c-0.514,0.422-0.592,1.169-0.183,1.737c0.421,0.584,0.781,1.211,1.073,1.863
				c0.283,0.629,0.986,0.943,1.601,0.711c0.661-0.249,1.371-0.182,1.963,0.175c0.6,0.362,0.995,0.969,1.085,1.667
				C28.961,14.288,29,14.897,29,15.5s-0.039,1.212-0.117,1.813c-0.09,0.697-0.485,1.305-1.085,1.667
				c-0.591,0.357-1.302,0.422-1.949,0.18l-0.014-0.005c-0.614-0.23-1.317,0.083-1.601,0.711c-0.292,0.652-0.652,1.278-1.072,1.862
				c-0.41,0.569-0.333,1.315,0.181,1.737c0.535,0.439,0.834,1.087,0.819,1.777c-0.014,0.701-0.346,1.348-0.909,1.774
				c-0.961,0.727-2.013,1.333-3.126,1.8c-0.654,0.275-1.386,0.238-2.004-0.103c-0.603-0.332-1.014-0.912-1.127-1.59
				c-0.109-0.658-0.724-1.095-1.428-1.025c-0.703,0.073-1.434,0.073-2.137,0c-0.706-0.082-1.318,0.366-1.428,1.025
				c-0.113,0.678-0.524,1.258-1.127,1.59C10.533,28.905,10.154,29,9.772,29z M15.728,25.091c1.124,0,2.07,0.767,2.255,1.869
				c0.063,0.375,0.29,0.696,0.624,0.88c0.349,0.192,0.762,0.211,1.134,0.056c1.036-0.435,2.015-0.999,2.909-1.676
				c0.318-0.24,0.506-0.604,0.514-0.997c0.008-0.382-0.158-0.74-0.454-0.983c-0.928-0.761-1.082-2.092-0.358-3.095
				c0.38-0.529,0.707-1.096,0.972-1.687c0.497-1.108,1.756-1.652,2.858-1.24l0.011,0.004c0.37,0.138,0.764,0.1,1.09-0.098
				c0.337-0.203,0.559-0.545,0.609-0.938C27.963,16.626,28,16.06,28,15.5s-0.037-1.126-0.109-1.685
				c-0.051-0.394-0.272-0.736-0.609-0.939c-0.327-0.198-0.722-0.235-1.083-0.1c-1.119,0.421-2.378-0.124-2.876-1.234
				c-0.265-0.591-0.592-1.158-0.973-1.688c-0.723-1.002-0.568-2.333,0.358-3.093c0.297-0.244,0.462-0.603,0.455-0.984
				c-0.009-0.394-0.195-0.757-0.514-0.997c-0.895-0.677-1.873-1.241-2.909-1.676c-0.373-0.156-0.785-0.137-1.134,0.056
				c-0.334,0.184-0.562,0.504-0.624,0.88c-0.198,1.187-1.279,1.986-2.518,1.854c-0.633-0.065-1.297-0.066-1.93,0
				c-1.227,0.119-2.318-0.668-2.518-1.855c-0.063-0.375-0.29-0.696-0.624-0.88c-0.35-0.192-0.761-0.212-1.134-0.056
				C8.226,3.539,7.246,4.103,6.351,4.78c-0.318,0.24-0.506,0.604-0.514,0.997c-0.008,0.382,0.158,0.74,0.454,0.983
				c0.928,0.761,1.082,2.092,0.358,3.095c-0.379,0.528-0.707,1.096-0.973,1.688c-0.496,1.109-1.754,1.654-2.861,1.238
				c-0.373-0.139-0.768-0.103-1.097,0.095c-0.337,0.203-0.559,0.545-0.609,0.938C1.037,14.374,1,14.94,1,15.5
				s0.037,1.126,0.109,1.685c0.051,0.394,0.272,0.736,0.609,0.939c0.327,0.198,0.721,0.235,1.083,0.1
				c1.12-0.417,2.379,0.125,2.875,1.234c0.266,0.591,0.594,1.159,0.974,1.687c0.723,1.002,0.568,2.333-0.358,3.093
				c-0.297,0.244-0.462,0.603-0.455,0.984c0.009,0.394,0.195,0.757,0.514,0.997c0.896,0.678,1.875,1.242,2.909,1.676
				c0.372,0.155,0.784,0.135,1.134-0.056c0.334-0.184,0.562-0.504,0.624-0.88c0.198-1.187,1.282-1.986,2.518-1.854
				c0.633,0.065,1.297,0.066,1.93,0C15.553,25.096,15.641,25.091,15.728,25.091z"/>
		</g>
		<g>
			<path d="M14.5,21C11.468,21,9,18.533,9,15.5s2.468-5.5,5.5-5.5s5.5,2.467,5.5,5.5S17.532,21,14.5,21z M14.5,11
				c-2.481,0-4.5,2.019-4.5,4.5s2.019,4.5,4.5,4.5s4.5-2.019,4.5-4.5S16.981,11,14.5,11z"/>
		</g>
	</g>
</g>
<g id="Preferences_2">
</g>
<g id="Mouse">
</g>
<g id="Computer">
</g>
<g id="Notebook">
</g>
<g id="Mobile_Phone">
</g>
<g id="Print">
</g>
<g id="Calculator">
</g>
<g id="Tag">
</g>
<g id="Paperclip">
</g>
<g id="Heart">
</g>
<g id="Lock">
</g>
<g id="Lock_Open">
</g>
<g id="Key_1">
</g>
<g id="Star">
</g>
<g id="Add">
</g>
<g id="Remove">
</g>
<g id="Error">
</g>
<g id="Check_1">
</g>
<g id="Time">
</g>
<g id="Question_Mark">
</g>
<g id="Error_Mark">
</g>
<g id="Sand-Glass">
</g>
<g id="Battery_Full">
</g>
<g id="Battery_Charge">
</g>
<g id="Battery_Half">
</g>
<g id="Battery_Low">
</g>
<g id="No_Battery">
</g>
<g id="Key_2">
</g>
<g id="Link">
</g>
<g id="Brake_Link">
</g>
<g id="Pencil">
</g>
<g id="At">
</g>
<g id="Reply">
</g>
<g id="Accessible">
</g>
<g id="Up_Arrow">
</g>
<g id="Brush">
</g>
<g id="Design_Mug">
</g>
<g id="Design">
</g>
<g id="Server">
</g>
<g id="Database">
</g>
<g id="Save">
</g>
<g id="Female">
</g>
<g id="Male">
</g>
<g id="Book">
</g>
<g id="Power">
</g>
<g id="Reload">
</g>
<g id="Map">
</g>
<g id="Loction_1">
</g>
<g id="Location_2">
</g>
<g id="Globe">
</g>
<g id="Suitcase">
</g>
<g id="Callendar">
</g>
<g id="Cloud_Off">
</g>
<g id="File_1">
</g>
<g id="File_2">
</g>
<g id="Folder">
</g>
<g id="Open_Folder">
</g>
<g id="Cloud">
</g>
<g id="Upload_Cloud">
</g>
<g id="Download_Cloud">
</g>
<g id="Eye">
</g>
<g id="Invisible">
</g>
<g id="Assignment">
</g>
<g id="Note_Book">
</g>
<g id="Webpage">
</g>
<g id="Mailbox">
</g>
<g id="Drive">
</g>
<g id="Disc">
</g>
<g id="Wifi_1">
</g>
<g id="Wifi_2">
</g>
<g id="Archive">
</g>
<g id="Archive_File">
</g>
<g id="News">
</g>
<g id="Home">
</g>
<g id="Collaboration">
</g>
<g id="Announcement">
</g>
<g id="Watch">
</g>
<g id="Clock">
</g>
<g id="Volume">
</g>
<g id="Mute">
</g>
<g id="Hand">
</g>
<g id="Layers">
</g>
<g id="Bell">
</g>
<g id="Speach_Bubble">
</g>
<g id="Speach_Bubbles">
</g>
<g id="Zoom_In">
</g>
<g id="Zoom_Out">
</g>
<g id="Search">
</g>
<g id="Back_Arrow">
</g>
<g id="Close">
</g>
<g id="Check_2">
</g>
<g id="Left_Arrow_2">
</g>
<g id="Right_Arrow_2">
</g>
</svg>
