<?xml version="1.0" encoding="iso-8859-1"?>
<!-- Generator: Adobe Illustrator 19.2.1, SVG Export Plug-In . SVG Version: 6.00 Build 0)  -->
<svg version="1.1" xmlns="http://www.w3.org/2000/svg" xmlns:xlink="http://www.w3.org/1999/xlink" x="0px" y="0px"
	 viewBox="0 0 24 24" style="enable-background:new 0 0 24 24;" xml:space="preserve">
<g id="Present_1">
</g>
<g id="Present_2">
	<g>
		<path d="M13.827,8.478C13.278,8.802,12.663,9,12,9s-1.278-0.198-1.827-0.522c-0.046,0.06-0.081,0.128-0.14,0.178
			C10.023,8.665,10.011,8.67,10,8.679V11v1v1v1v10h4V14v-1v-1v-1V8.679c-0.011-0.009-0.023-0.015-0.033-0.023
			C13.907,8.607,13.872,8.539,13.827,8.478z"/>
		<path d="M3,6.5C3,5.894,3.133,5.395,3.27,5H0.5C0.224,5,0,5.224,0,5.5v6C0,11.776,0.224,12,0.5,12H9V9.338
			C8.208,9.764,7.363,10,6.5,10C4.202,10,3,8.239,3,6.5z"/>
		<path d="M23.5,5h-2.77C20.868,5.395,21,5.895,21,6.5c0,1.739-1.202,3.5-3.5,3.5c-0.863,0-1.708-0.236-2.5-0.662V12h8.5
			c0.276,0,0.5-0.224,0.5-0.5v-6C24,5.224,23.776,5,23.5,5z"/>
		<path d="M1,23.5C1,23.776,1.224,24,1.5,24H9V13H1V23.5z"/>
		<path d="M15,24h7.5c0.276,0,0.5-0.224,0.5-0.5V13h-8V24z"/>
		<ellipse cx="12" cy="4.5" rx="3" ry="3.5"/>
		<path d="M9.394,1.114C8.635,0.483,7.643,0,6.5,0C4.782,0,4,1.296,4,2.5c0,0.652,0.205,1.171,0.355,1.55
			C4.423,4.222,4.5,4.417,4.5,4.5S4.423,4.778,4.355,4.95C4.205,5.329,4,5.848,4,6.5C4,7.704,4.782,9,6.5,9
			c1.143,0,2.135-0.483,2.894-1.114C8.548,7.061,8,5.857,8,4.5S8.548,1.939,9.394,1.114z"/>
		<path d="M20,6.5c0-0.652-0.205-1.171-0.355-1.55C19.577,4.778,19.5,4.583,19.5,4.5s0.077-0.278,0.145-0.45
			C19.795,3.671,20,3.152,20,2.5C20,1.296,19.218,0,17.5,0c-1.143,0-2.135,0.483-2.894,1.114C15.452,1.939,16,3.143,16,4.5
			s-0.548,2.561-1.394,3.386C15.365,8.517,16.357,9,17.5,9C19.218,9,20,7.704,20,6.5z"/>
	</g>
</g>
<g id="Present_3">
</g>
<g id="Present_Cake">
</g>
<g id="Present_4">
</g>
<g id="Birthday_Cake_1">
</g>
<g id="Birthday_Cake_2">
</g>
<g id="Cake_Piece">
</g>
<g id="Cupcake">
</g>
<g id="Lollipop">
</g>
<g id="Birthday_Greetings_1">
</g>
<g id="Party_Greetings_2">
</g>
<g id="Birthday_Invitation">
</g>
<g id="Birthday_1">
</g>
<g id="Birthday_2">
</g>
<g id="Birthday_Message_1">
</g>
<g id="Birthday_Message_2">
</g>
<g id="Birthyday_Hat_1">
</g>
<g id="Birthay_Hat_2">
</g>
<g id="Birthday_Hat3">
</g>
<g id="Birthday_Decoration_1">
</g>
<g id="Birthday_Decoration_2">
</g>
<g id="Birthday_Decoration_3">
</g>
<g id="Horn_1">
</g>
<g id="Horn_2">
</g>
<g id="Baloon">
</g>
<g id="Balloons_1">
</g>
<g id="Balloons_2">
</g>
<g id="Birthday_Picture">
</g>
<g id="Kid_x27_s_Champagne">
</g>
<g id="Candy">
</g>
<g id="Birthday_Card">
</g>
<g id="Flowers">
</g>
<g id="Birthday_Song">
</g>
<g id="Candle">
</g>
<g id="Sweet_16">
</g>
<g id="Clown">
</g>
<g id="Clown_2">
</g>
<g id="Birthday_Party">
</g>
<g id="Giving_Gift">
</g>
<g id="Present_5">
</g>
<g id="Champagne_in_ice_bucket">
</g>
<g id="Beer">
</g>
<g id="Truffles">
</g>
<g id="Pinata">
</g>
</svg>
