<?xml version="1.0" encoding="iso-8859-1"?>
<!-- Generator: Adobe Illustrator 19.2.1, SVG Export Plug-In . SVG Version: 6.00 Build 0)  -->
<svg version="1.1" xmlns="http://www.w3.org/2000/svg" xmlns:xlink="http://www.w3.org/1999/xlink" x="0px" y="0px"
	 viewBox="0 0 30 30" style="enable-background:new 0 0 30 30;" xml:space="preserve">
<g id="Present_1">
</g>
<g id="Present_2">
</g>
<g id="Present_3">
</g>
<g id="Present_Cake">
	<g>
		<path d="M20.501,17H9c-1.028,0-2,0.972-2,2c0,1.046,0.635,1.853,1.581,2.007c0.469,0.074,0.973-0.091,1.418-0.47
			C10.598,20.027,11,19.209,11,18.5c0-0.276,0.224-0.5,0.5-0.5s0.5,0.224,0.5,0.5c0,1.098,1.402,2.5,2.5,2.5s2.5-1.402,2.5-2.5
			c0-0.276,0.224-0.5,0.5-0.5s0.5,0.224,0.5,0.5c0,0.709,0.402,1.527,1.001,2.037c0.446,0.378,0.951,0.543,1.419,0.47
			c0.945-0.154,1.58-0.961,1.58-2.007C22.001,18.005,21.537,17,20.501,17z"/>
		<path d="M18.354,21.299c-0.366-0.312-0.675-0.702-0.904-1.128C16.781,21.197,15.605,22,14.5,22s-2.28-0.803-2.949-1.829
			c-0.229,0.426-0.538,0.816-0.904,1.128c-0.559,0.476-1.2,0.726-1.838,0.727c-0.13,0-0.26-0.011-0.389-0.032
			C8.275,21.969,8.137,21.929,8,21.885V25.5C8,25.775,8.225,26,8.5,26h12c0.275,0,0.5-0.225,0.5-0.5v-3.615
			c-0.136,0.044-0.274,0.085-0.42,0.108C19.821,22.121,19.027,21.871,18.354,21.299z"/>
		<path d="M28.989,26.392l-4-18C24.938,8.163,24.735,8,24.501,8h-1.5V4.5c0-2.481-2.019-4.5-4.5-4.5h-8C8.019,0,6,2.019,6,4.5V8v3.5
			C6,11.776,5.777,12,5.5,12S5,11.776,5,11.5V8H4.5C4.266,8,4.062,8.164,4.012,8.393L0.046,26.479
			c-0.155,0.876,0.084,1.769,0.656,2.45C1.274,29.609,2.111,30,3,30h23c0.884,0,1.725-0.399,2.309-1.095
			C28.899,28.203,29.148,27.295,28.989,26.392z M7,4.5C7,2.57,8.571,1,10.5,1h8c1.93,0,3.5,1.57,3.5,3.5V8v3.5
			c0,0.276-0.224,0.5-0.5,0.5s-0.5-0.224-0.5-0.5V8H7V4.5z M22.001,21.5v4c0,0.827-0.673,1.5-1.5,1.5h-12C7.673,27,7,26.327,7,25.5
			v-4c0-0.053,0.015-0.102,0.03-0.151C6.39,20.798,6,19.957,6,19c0-1.57,1.43-3,3-3h5v-1.092c-0.581-0.207-1-0.757-1-1.408
			c0-0.639,0.761-1.81,1.088-2.284c0.188-0.271,0.636-0.271,0.823,0C15.239,11.69,16,12.861,16,13.5c0,0.651-0.419,1.201-1,1.408V16
			h5.5c1.472,0,2.5,1.233,2.5,3c0,0.957-0.39,1.798-1.03,2.349C21.986,21.398,22.001,21.447,22.001,21.5z"/>
	</g>
</g>
<g id="Present_4">
</g>
<g id="Birthday_Cake_1">
</g>
<g id="Birthday_Cake_2">
</g>
<g id="Cake_Piece">
</g>
<g id="Cupcake">
</g>
<g id="Lollipop">
</g>
<g id="Birthday_Greetings_1">
</g>
<g id="Party_Greetings_2">
</g>
<g id="Birthday_Invitation">
</g>
<g id="Birthday_1">
</g>
<g id="Birthday_2">
</g>
<g id="Birthday_Message_1">
</g>
<g id="Birthday_Message_2">
</g>
<g id="Birthyday_Hat_1">
</g>
<g id="Birthay_Hat_2">
</g>
<g id="Birthday_Hat3">
</g>
<g id="Birthday_Decoration_1">
</g>
<g id="Birthday_Decoration_2">
</g>
<g id="Birthday_Decoration_3">
</g>
<g id="Horn_1">
</g>
<g id="Horn_2">
</g>
<g id="Baloon">
</g>
<g id="Balloons_1">
</g>
<g id="Balloons_2">
</g>
<g id="Birthday_Picture">
</g>
<g id="Kid_x27_s_Champagne">
</g>
<g id="Candy">
</g>
<g id="Birthday_Card">
</g>
<g id="Flowers">
</g>
<g id="Birthday_Song">
</g>
<g id="Candle">
</g>
<g id="Sweet_16">
</g>
<g id="Clown">
</g>
<g id="Clown_2">
</g>
<g id="Birthday_Party">
</g>
<g id="Giving_Gift">
</g>
<g id="Present_5">
</g>
<g id="Champagne_in_ice_bucket">
</g>
<g id="Beer">
</g>
<g id="Truffles">
</g>
<g id="Pinata">
</g>
</svg>
