<?xml version="1.0" encoding="iso-8859-1"?>
<!-- Generator: Adobe Illustrator 19.2.1, SVG Export Plug-In . SVG Version: 6.00 Build 0)  -->
<svg version="1.1" xmlns="http://www.w3.org/2000/svg" xmlns:xlink="http://www.w3.org/1999/xlink" x="0px" y="0px"
	 viewBox="0 0 30 30" style="enable-background:new 0 0 30 30;" xml:space="preserve">
<g id="Present_1">
</g>
<g id="Present_2">
</g>
<g id="Present_3">
</g>
<g id="Present_Cake">
	<g>
		<g>
			<path d="M22.5,12c-0.276,0-0.5-0.224-0.5-0.5v-7C22,2.57,20.43,1,18.5,1h-8C8.571,1,7,2.57,7,4.5v7C7,11.776,6.777,12,6.5,12
				S6,11.776,6,11.5v-7C6,2.019,8.019,0,10.5,0h8C20.982,0,23,2.019,23,4.5v7C23,11.776,22.777,12,22.5,12z"/>
		</g>
		<g>
			<path d="M19.5,9h-10C9.224,9,9,8.776,9,8.5S9.224,8,9.5,8h10C19.776,8,20,8.224,20,8.5S19.776,9,19.5,9z"/>
		</g>
		<g>
			<path d="M26,30H3c-0.889,0-1.727-0.391-2.298-1.072c-0.572-0.681-0.811-1.574-0.656-2.45L4.012,8.393
				c0.059-0.271,0.324-0.441,0.595-0.381c0.27,0.059,0.44,0.326,0.381,0.595L1.027,26.672c-0.099,0.563,0.061,1.159,0.442,1.613
				C1.85,28.74,2.408,29,3,29h23c0.587,0,1.15-0.269,1.544-0.738c0.399-0.476,0.568-1.086,0.464-1.675L24.012,8.608
				c-0.06-0.27,0.11-0.537,0.38-0.597c0.269-0.058,0.537,0.11,0.597,0.38l4,18c0.16,0.902-0.089,1.81-0.678,2.513
				C27.727,29.601,26.884,30,26,30z"/>
		</g>
		<g>
			<path d="M20.5,27h-12C7.673,27,7,26.327,7,25.5v-4C7,21.224,7.224,21,7.5,21S8,21.224,8,21.5v4C8,25.776,8.225,26,8.5,26h12
				c0.276,0,0.5-0.224,0.5-0.5v-4c0-0.276,0.224-0.5,0.5-0.5s0.5,0.224,0.5,0.5v4C22,26.327,21.328,27,20.5,27z"/>
		</g>
		<g>
			<path d="M20.192,22.025c-0.638,0-1.279-0.25-1.838-0.726c-0.366-0.312-0.675-0.702-0.904-1.128C16.781,21.197,15.605,22,14.5,22
				s-2.28-0.803-2.949-1.829c-0.229,0.426-0.538,0.816-0.904,1.128c-0.673,0.572-1.464,0.819-2.227,0.695
				C6.996,21.762,6,20.531,6,19c0-1.57,1.43-3,3-3h11.5c1.472,0,2.5,1.233,2.5,3c0,1.531-0.995,2.762-2.42,2.994
				C20.452,22.015,20.322,22.025,20.192,22.025z M18,18.5c0,0.709,0.402,1.527,1.001,2.037c0.446,0.379,0.949,0.545,1.418,0.469
				C21.365,20.853,22,20.046,22,19c0-0.996-0.464-2-1.5-2H9c-1.028,0-2,0.972-2,2c0,1.046,0.635,1.853,1.58,2.006
				c0.474,0.077,0.973-0.09,1.419-0.469C10.598,20.028,11,19.209,11,18.5c0-0.276,0.224-0.5,0.5-0.5s0.5,0.224,0.5,0.5
				c0,1.098,1.402,2.5,2.5,2.5s2.5-1.402,2.5-2.5c0-0.276,0.224-0.5,0.5-0.5S18,18.224,18,18.5z"/>
		</g>
		<g>
			<path d="M14.5,17c-0.276,0-0.5-0.224-0.5-0.5v-2c0-0.276,0.224-0.5,0.5-0.5s0.5,0.224,0.5,0.5v2C15,16.776,14.777,17,14.5,17z"/>
		</g>
		<g>
			<path d="M14.5,15c-0.827,0-1.5-0.673-1.5-1.5c0-0.639,0.761-1.81,1.088-2.284c0.188-0.271,0.636-0.271,0.823,0
				C15.239,11.69,16,12.861,16,13.5C16,14.327,15.328,15,14.5,15z M14.5,12.427c-0.288,0.485-0.496,0.921-0.5,1.074
				c0,0.275,0.224,0.5,0.5,0.5c0.275,0,0.5-0.224,0.5-0.5C14.996,13.347,14.788,12.911,14.5,12.427z"/>
		</g>
	</g>
</g>
<g id="Present_4">
</g>
<g id="Birthday_Cake_1">
</g>
<g id="Birthday_Cake_2">
</g>
<g id="Cake_Piece">
</g>
<g id="Cupcake">
</g>
<g id="Lollipop">
</g>
<g id="Birthday_Greetings_1">
</g>
<g id="Party_Greetings_2">
</g>
<g id="Birthday_Invitation">
</g>
<g id="Birthday_1">
</g>
<g id="Birthday_2">
</g>
<g id="Birthday_Message_1">
</g>
<g id="Birthday_Message_2">
</g>
<g id="Birthyday_Hat_1">
</g>
<g id="Birthay_Hat_2">
</g>
<g id="Birthday_Hat3">
</g>
<g id="Birthday_Decoration_1">
</g>
<g id="Birthday_Decoration_2">
</g>
<g id="Birthday_Decoration_3">
</g>
<g id="Horn_1">
</g>
<g id="Horn_2">
</g>
<g id="Baloon">
</g>
<g id="Balloons_1">
</g>
<g id="Balloons_2">
</g>
<g id="Birthday_Picture">
</g>
<g id="Kid_x27_s_Champagne">
</g>
<g id="Candy">
</g>
<g id="Birthday_Card">
</g>
<g id="Flowers">
</g>
<g id="Birthday_Song">
</g>
<g id="Candle">
</g>
<g id="Sweet_16">
</g>
<g id="Clown">
</g>
<g id="Clown_2">
</g>
<g id="Birthday_Party">
</g>
<g id="Giving_Gift">
</g>
<g id="Present_5">
</g>
<g id="Champagne_in_ice_bucket">
</g>
<g id="Beer">
</g>
<g id="Truffles">
</g>
<g id="Pinata">
</g>
</svg>
