<?xml version="1.0" encoding="iso-8859-1"?>
<!-- Generator: Adobe Illustrator 19.2.1, SVG Export Plug-In . SVG Version: 6.00 Build 0)  -->
<svg version="1.1" xmlns="http://www.w3.org/2000/svg" xmlns:xlink="http://www.w3.org/1999/xlink" x="0px" y="0px"
	 viewBox="0 0 30 30" style="enable-background:new 0 0 30 30;" xml:space="preserve">
<g id="Present_1">
	<g>
		<path d="M1,15.51v13c0,0.827,0.673,1.5,1.5,1.5H14v-15H1.5C1.224,15.01,1,15.233,1,15.51z"/>
		<path d="M27.5,15.01H15v15h11.5c0.827,0,1.5-0.673,1.5-1.5v-13C28,15.233,27.776,15.01,27.5,15.01z"/>
		<path d="M27.5,8.01h-8.435c1.758-0.572,3.543-1.438,4.349-2.718C23.78,4.753,24,4.087,24,3.51c0-0.891-0.62-2.037-1.509-2.787
			c-0.674-0.569-1.41-0.821-2.075-0.706c-2.763,0.471-4.891,3.361-5.916,6.467c-1.025-3.106-3.153-5.996-5.916-6.467
			C7.92-0.096,7.183,0.154,6.509,0.723C5.621,1.473,5,2.619,5,3.51c0,0.576,0.219,1.242,0.577,1.766
			c0.812,1.29,2.603,2.16,4.366,2.734H1.5C0.673,8.01,0,8.683,0,9.51v4c0,0.276,0.224,0.5,0.5,0.5H14V8.937
			c0.244,0.035,0.405,0.054,0.444,0.059c0.019,0.002,0.038,0.003,0.056,0.003s0.037-0.001,0.056-0.003
			c0.038-0.004,0.2-0.024,0.444-0.059v5.073h13.5c0.276,0,0.5-0.224,0.5-0.5v-4C29,8.683,28.327,8.01,27.5,8.01z M20.584,1.002
			c0.05-0.008,0.102-0.013,0.153-0.013c0.337,0,0.724,0.173,1.108,0.498C22.493,2.033,23,2.922,23,3.51
			c0,0.452-0.213,0.926-0.423,1.233c-1.261,2.002-5.715,2.887-7.442,3.161C15.788,5.18,17.626,1.507,20.584,1.002z M6.413,4.728
			C6.213,4.435,6,3.961,6,3.51c0-0.588,0.507-1.477,1.154-2.022C7.539,1.163,7.926,0.99,8.262,0.99c0.053,0,0.104,0.004,0.154,0.013
			c2.96,0.505,4.798,4.181,5.45,6.905C11.7,7.572,7.583,6.587,6.413,4.728z"/>
	</g>
</g>
<g id="Present_2">
</g>
<g id="Present_3">
</g>
<g id="Present_Cake">
</g>
<g id="Present_4">
</g>
<g id="Birthday_Cake_1">
</g>
<g id="Birthday_Cake_2">
</g>
<g id="Cake_Piece">
</g>
<g id="Cupcake">
</g>
<g id="Lollipop">
</g>
<g id="Birthday_Greetings_1">
</g>
<g id="Party_Greetings_2">
</g>
<g id="Birthday_Invitation">
</g>
<g id="Birthday_1">
</g>
<g id="Birthday_2">
</g>
<g id="Birthday_Message_1">
</g>
<g id="Birthday_Message_2">
</g>
<g id="Birthyday_Hat_1">
</g>
<g id="Birthay_Hat_2">
</g>
<g id="Birthday_Hat3">
</g>
<g id="Birthday_Decoration_1">
</g>
<g id="Birthday_Decoration_2">
</g>
<g id="Birthday_Decoration_3">
</g>
<g id="Horn_1">
</g>
<g id="Horn_2">
</g>
<g id="Baloon">
</g>
<g id="Balloons_1">
</g>
<g id="Balloons_2">
</g>
<g id="Birthday_Picture">
</g>
<g id="Kid_x27_s_Champagne">
</g>
<g id="Candy">
</g>
<g id="Birthday_Card">
</g>
<g id="Flowers">
</g>
<g id="Birthday_Song">
</g>
<g id="Candle">
</g>
<g id="Sweet_16">
</g>
<g id="Clown">
</g>
<g id="Clown_2">
</g>
<g id="Birthday_Party">
</g>
<g id="Giving_Gift">
</g>
<g id="Present_5">
</g>
<g id="Champagne_in_ice_bucket">
</g>
<g id="Beer">
</g>
<g id="Truffles">
</g>
<g id="Pinata">
</g>
</svg>
