<?xml version="1.0" encoding="iso-8859-1"?>
<!-- Generator: Adobe Illustrator 19.2.1, SVG Export Plug-In . SVG Version: 6.00 Build 0)  -->
<svg version="1.1" xmlns="http://www.w3.org/2000/svg" xmlns:xlink="http://www.w3.org/1999/xlink" x="0px" y="0px"
	 viewBox="0 0 30 30" style="enable-background:new 0 0 30 30;" xml:space="preserve">
<g id="Man_1">
</g>
<g id="Woman_1">
</g>
<g id="Man_2">
</g>
<g id="Woman_2">
</g>
<g id="Bald_Man">
</g>
<g id="Man_Glasses">
</g>
<g id="Woman_Glasses">
</g>
<g id="Man_Beard">
</g>
<g id="Man_Cap">
</g>
<g id="Woman_Cap">
</g>
<g id="Man_3">
</g>
<g id="Woman_3">
</g>
<g id="Men_4">
</g>
<g id="Woman_4">
</g>
<g id="Business_Man_1">
</g>
<g id="Business_Woman_1">
</g>
<g id="Firefigyhter">
</g>
<g id="Policeman">
</g>
<g id="Criminal">
</g>
<g id="Prisoner">
</g>
<g id="Woodsman">
</g>
<g id="Dispatcher_1">
</g>
<g id="Dispatcher_2">
</g>
<g id="Soldier">
</g>
<g id="Astronaut">
</g>
<g id="Hipster_Guy">
</g>
<g id="Hipster_Girl">
</g>
<g id="Worker">
</g>
<g id="Old_Man">
</g>
<g id="Punk">
	<g>
		<path d="M15,0C6.729,0,0,6.729,0,15c0,4.264,1.797,8.108,4.662,10.842c0.032,0.032,0.058,0.067,0.097,0.088
			C7.443,28.446,11.04,30,15,30c3.963,0,7.561-1.556,10.246-4.075c0.059-0.034,0.109-0.08,0.15-0.137C28.228,23.059,30,19.236,30,15
			C30,6.729,23.271,0,15,0z M24.866,24.921c-0.232-0.079-0.527-0.175-0.781-0.257c-0.191-0.061-0.352-0.112-0.427-0.139
			l-1.493-0.497c-0.314-0.11-0.911-0.539-1.31-0.881c-1.098,1.165-2.45,2.056-3.903,2.515c-0.088,0.031-0.21,0.07-0.336,0.105
			c-0.202,0.051-0.369,0.09-0.539,0.12C15.667,25.964,15.306,26,14.948,26s-0.721-0.036-1.143-0.114
			c-0.156-0.027-0.326-0.066-0.497-0.111c-0.15-0.04-0.276-0.08-0.401-0.124c-1.398-0.441-2.711-1.323-3.786-2.486
			c-0.423,0.357-0.983,0.758-1.279,0.861l-1.507,0.503c-0.068,0.023-0.229,0.075-0.419,0.136c-0.32,0.102-0.582,0.187-0.783,0.256
			C2.582,22.383,1,18.873,1,15C1,7.28,7.28,1,15,1s14,6.28,14,14C29,18.874,27.417,22.384,24.866,24.921z"/>
		<path d="M18.5,14h-1c-0.276,0-0.5,0.224-0.5,0.5s0.224,0.5,0.5,0.5h1c0.276,0,0.5-0.224,0.5-0.5S18.776,14,18.5,14z"/>
		<path d="M12.5,14h-1c-0.276,0-0.5,0.224-0.5,0.5s0.224,0.5,0.5,0.5h1c0.276,0,0.5-0.224,0.5-0.5S12.776,14,12.5,14z"/>
		<path d="M22.468,12.521C22.138,8.852,20.077,6.153,17,5.299V4.5C17,4.224,16.776,4,16.5,4h-3C13.224,4,13,4.224,13,4.5v0.799
			c-3.077,0.854-5.138,3.553-5.468,7.222C6.645,12.693,6,13.917,6,15.5c0,1.71,0.752,3,1.75,3c0.171,0,0.352-0.071,0.521-0.173
			c0.873,2.226,2.76,5.717,5.076,6.399c0.104,0.034,0.208,0.065,0.322,0.094c0.142,0.034,0.285,0.065,0.428,0.09
			c0.36,0.062,0.664,0.09,0.956,0.09c0.292,0,0.595-0.028,0.954-0.09c0.145-0.024,0.286-0.056,0.438-0.092
			c0.104-0.026,0.209-0.058,0.303-0.088c2.251-0.665,4.086-4.072,4.984-6.401c0.169,0.1,0.349,0.171,0.52,0.171
			c0.998,0,1.75-1.29,1.75-3C24,13.917,23.355,12.693,22.468,12.521z M22.314,17.508c-0.075-0.025-0.291-0.188-0.457-0.357
			c-0.121-0.125-0.301-0.178-0.468-0.138c-0.17,0.038-0.307,0.162-0.363,0.326c-0.925,2.723-2.748,5.896-4.574,6.436
			c-0.085,0.027-0.17,0.053-0.248,0.073c-0.121,0.028-0.241,0.056-0.366,0.076c-0.605,0.104-0.966,0.104-1.574,0
			c-0.123-0.021-0.243-0.048-0.356-0.074c-0.086-0.022-0.171-0.048-0.267-0.078c-1.792-0.529-3.742-3.709-4.668-6.433
			c-0.056-0.164-0.193-0.288-0.363-0.326C8.574,17.004,8.537,17,8.5,17c-0.133,0-0.262,0.053-0.357,0.15
			c-0.17,0.173-0.381,0.331-0.393,0.35c-0.265,0-0.75-0.76-0.75-2c0-1.241,0.485-2,0.75-2H8c0.267,0,0.486-0.209,0.5-0.475
			c0.167-3.339,1.873-5.85,4.5-6.706V7.5c0,0.066,0.013,0.133,0.039,0.194C13.501,8.792,14,10.177,14,10.5
			c0,0.276,0.224,0.5,0.5,0.5h1c0.276,0,0.5-0.224,0.5-0.5c0-0.315,0.499-1.702,0.961-2.807C16.987,7.632,17,7.566,17,7.5V6.319
			c2.628,0.856,4.333,3.367,4.501,6.706C21.514,13.291,21.733,13.5,22,13.5h0.25c0.265,0,0.75,0.759,0.75,2
			C23,16.74,22.515,17.5,22.314,17.508z"/>
	</g>
</g>
<g id="Diver">
</g>
<g id="Artist">
</g>
<g id="Dictator">
</g>
<g id="Man_Hat">
</g>
<g id="Woman_Hat">
</g>
<g id="Graduated_Man">
</g>
<g id="Graduated_Woman">
</g>
<g id="Avatar_Chef">
</g>
<g id="Waiter">
</g>
<g id="Waitress">
</g>
<g id="Bllboy">
</g>
<g id="Santa">
</g>
<g id="Doctor">
</g>
<g id="Nurse">
</g>
<g id="Captain">
</g>
<g id="Farmer">
</g>
<g id="Maid">
</g>
<g id="Business_Man_2">
</g>
<g id="Business_Woman_2">
</g>
<g id="Cowboy">
</g>
<g id="Anonymus">
</g>
<g id="Batman">
</g>
<g id="Superman">
</g>
<g id="Captain_America">
</g>
<g id="Darth_Vader">
</g>
<g id="Harry_Potter">
</g>
<g id="Anonymus_2">
</g>
<g id="Scream">
</g>
<g id="Jason">
</g>
<g id="Charlie_Chaplin">
</g>
</svg>
