<?xml version="1.0" encoding="iso-8859-1"?>
<!-- Generator: Adobe Illustrator 19.2.1, SVG Export Plug-In . SVG Version: 6.00 Build 0)  -->
<svg version="1.1" xmlns="http://www.w3.org/2000/svg" xmlns:xlink="http://www.w3.org/1999/xlink" x="0px" y="0px"
	 viewBox="0 0 30 30" style="enable-background:new 0 0 30 30;" xml:space="preserve">
<g id="Add_User">
</g>
<g id="Remove_User">
</g>
<g id="Delete_User">
</g>
<g id="Done">
</g>
<g id="At_Symbol">
</g>
<g id="Question">
</g>
<g id="Answer">
</g>
<g id="Bring_Up">
</g>
<g id="Bring_Down">
</g>
<g id="Dismiss_User">
</g>
<g id="User_Speed">
</g>
<g id="User_Settings">
</g>
<g id="User_Refresh">
</g>
<g id="User_Time">
</g>
<g id="Dollar">
</g>
<g id="Euro">
</g>
<g id="Pound">
</g>
<g id="Bitcoin">
</g>
<g id="Global_User">
</g>
<g id="Waiting_User">
</g>
<g id="Writing_User_2">
</g>
<g id="Search_User">
</g>
<g id="Lock_User">
</g>
<g id="Mark_User">
</g>
<g id="Share_User">
</g>
<g id="Shopping">
</g>
<g id="User_Download">
</g>
<g id="User_Upload">
</g>
<g id="User_Statistics">
</g>
<g id="User_Defense">
</g>
<g id="User_Car">
</g>
<g id="User_Home">
</g>
<g id="Park">
</g>
<g id="Recicle_User">
</g>
<g id="Wifi">
</g>
<g id="Attach_User">
</g>
<g id="Disabled_User">
</g>
<g id="User_Card">
</g>
<g id="Gaming">
</g>
<g id="User_Cloud">
</g>
<g id="User_Database">
</g>
<g id="Copyright">
</g>
<g id="No_Copyright">
</g>
<g id="Creative_Commun">
</g>
<g id="Eco-Friendly">
</g>
<g id="Percentage">
</g>
<g id="User_Love">
</g>
<g id="User_Place">
</g>
<g id="User_Key">
</g>
<g id="Sleeping">
</g>
<g id="Add_User_2">
</g>
<g id="Remove_User_2">
</g>
<g id="Delete_User_2">
</g>
<g id="Done_2">
</g>
<g id="At_Symbol_2">
</g>
<g id="Question_2">
	<g>
		<g id="XMLID_1_">
			<g id="XMLID_3_">
				<path d="M22.529,28.989c-1.203,0-2.23-0.408-2.901-1.155c-2.051-2.284-2.141-4.888-0.233-6.796C21.24,19.192,25.207,18,29.5,18
					c0.202,0,0.385,0.122,0.462,0.309s0.034,0.402-0.108,0.545c-0.99,0.99-1.242,2.244-1.534,3.696
					c-0.302,1.5-0.643,3.2-1.934,4.768l0,0c-0.821,0.999-2.255,1.639-3.74,1.671C22.606,28.989,22.568,28.989,22.529,28.989z
					 M28.446,19.025c-3.58,0.175-6.849,1.224-8.345,2.72c-1.516,1.517-1.415,3.544,0.271,5.421c0.495,0.551,1.302,0.851,2.252,0.822
					c1.185-0.025,2.357-0.538,2.99-1.306c1.131-1.375,1.433-2.877,1.725-4.33C27.567,21.217,27.802,20.052,28.446,19.025z M26,27
					h0.01H26z"/>
			</g>
			<g>
				<path d="M16.5,30h-16C0.224,30,0,29.776,0,29.5v-3.055c0-1.585,0.688-2.618,2.045-3.071l5.547-1.849
					c1.406-0.587,2.03-2.867,2.14-3.687C9.14,17.311,7.75,15.922,7.75,14.5c0-0.654-0.264-0.769-0.274-0.773
					C7.331,13.69,7.237,13.6,7.174,13.465C7.146,13.407,6.5,12.038,6.5,11C6.516,10.499,6.661,9.946,7,9.673V6.5
					C7,3.883,9.729,0,13.5,0c3.667,0,4.639,2.077,4.74,3.076C18.811,3.375,20,4.074,20,6.5v3.173c0.339,0.272,0.484,0.821,0.5,1.312
					c0,1.091-0.989,2.421-1.103,2.568c-0.068,0.091-0.166,0.155-0.276,0.183h0.001c0.008,0-0.247,0.121-0.247,0.765
					c0,1.222-0.503,2.401-1.356,3.208c0.064,0.476,0.3,1.543,0.831,2.482c0.136,0.24,0.051,0.546-0.189,0.682
					c-0.24,0.134-0.546,0.051-0.682-0.189c-0.683-1.21-0.979-2.693-0.979-3.183c0-0.149,0.066-0.29,0.182-0.386
					c0.736-0.607,1.193-1.609,1.193-2.614c0-0.98,0.441-1.47,0.805-1.658c0.346-0.483,0.82-1.324,0.82-1.842
					c-0.007-0.174-0.055-0.407-0.105-0.511C19.169,10.44,19,10.24,19,10V6.5c0-1.902-0.831-2.335-1.277-2.566
					c-0.201-0.104-0.451-0.235-0.498-0.539c-0.011-0.067-0.001-0.147,0.021-0.226C17.187,2.526,16.43,1,13.5,1
					C10.142,1,8,4.611,8,6.5V10c0,0.24-0.169,0.44-0.396,0.489c-0.053,0.109-0.1,0.358-0.104,0.526c0,0.574,0.316,1.427,0.504,1.859
					C8.354,13.084,8.75,13.572,8.75,14.5c0,0.851,0.942,2.016,1.818,2.739c0.115,0.096,0.182,0.236,0.182,0.386
					c0,0.776-0.702,3.959-2.808,4.837l-5.581,1.861C1.42,24.638,1,25.292,1,26.445V29h15.5c0.276,0,0.5,0.224,0.5,0.5
					S16.776,30,16.5,30z"/>
			</g>
			<g id="XMLID_2_">
				<path d="M18.5,30c-0.276,0-0.5-0.224-0.5-0.5c0-3.339,4.002-6.5,5.5-6.5c0.276,0,0.5,0.224,0.5,0.5S23.776,24,23.5,24
					c-0.951,0-4.5,2.796-4.5,5.5C19,29.776,18.776,30,18.5,30z"/>
			</g>
		</g>
	</g>
</g>
<g id="Answer_2">
</g>
<g id="Bring_Up_2">
</g>
<g id="Bring_Down_2">
</g>
<g id="Dismiss_User_2">
</g>
<g id="User_Speed_2">
</g>
<g id="User_Settings_2">
</g>
<g id="Refresh_2">
</g>
<g id="Time_2">
</g>
<g id="Dollar_2">
</g>
<g id="Euro_2">
</g>
<g id="Pound_2">
</g>
<g id="Bitcoin_2">
</g>
<g id="Global_User_2">
</g>
<g id="Waiting_User_2">
</g>
<g id="Writing_User">
</g>
<g id="Search_User_2">
</g>
<g id="Lock_User_2">
</g>
<g id="Mark_User_2">
</g>
<g id="Share_User_2">
</g>
<g id="Shopping_2">
</g>
<g id="Download_2">
</g>
<g id="Upload_2">
</g>
<g id="User_Statistics_2">
</g>
<g id="User_Defense_2">
</g>
<g id="Car_2">
</g>
<g id="Home_2">
</g>
<g id="Park_2">
</g>
<g id="Recicle_User_2">
</g>
<g id="User_Wifi">
</g>
<g id="Attach_2">
</g>
<g id="Disabled_User_2">
</g>
<g id="User_Card_2">
</g>
<g id="Gaming_2">
</g>
<g id="Cloud_2">
</g>
<g id="Database_2">
</g>
<g id="Copyright_2">
</g>
<g id="No_Copyright_2">
</g>
<g id="Creative_Commun_2">
</g>
<g id="Eco-Friendly_2">
</g>
<g id="Percentage_2">
</g>
<g id="User_Love_2">
</g>
<g id="User_Rate_2">
</g>
<g id="User_Key_2">
</g>
<g id="Sleeping_2">
</g>
</svg>
