<?xml version="1.0" encoding="iso-8859-1"?>
<!-- Generator: Adobe Illustrator 19.2.1, SVG Export Plug-In . SVG Version: 6.00 Build 0)  -->
<svg version="1.1" xmlns="http://www.w3.org/2000/svg" xmlns:xlink="http://www.w3.org/1999/xlink" x="0px" y="0px"
	 viewBox="0 0 24 24" style="enable-background:new 0 0 24 24;" xml:space="preserve">
<g id="Flag">
</g>
<g id="Umbrella">
</g>
<g id="Briefcase">
</g>
<g id="Box">
</g>
<g id="Magnet">
</g>
<g id="Percent">
</g>
<g id="Rocket">
</g>
<g id="Share">
</g>
<g id="Transmitter">
</g>
<g id="Record_2">
</g>
<g id="Record_1">
</g>
<g id="Anchor">
</g>
<g id="Airplane">
</g>
<g id="Car">
</g>
<g id="Newsfeed">
</g>
<g id="Wifi_Tethering">
</g>
<g id="No_Wifi_Tethering">
</g>
<g id="Bar_Chart_2">
</g>
<g id="Shop">
</g>
<g id="Alarm">
</g>
<g id="Sim_Card">
</g>
<g id="Radar">
	<path d="M19.632,3.368c-0.195-0.195-0.512-0.195-0.707,0s-0.195,0.512,0,0.707C20.908,6.059,22,8.696,22,11.5
		C22,17.29,17.29,22,11.5,22S1,17.29,1,11.5C1,5.878,5.441,1.273,11,1.012v2.014C6.546,3.286,3,6.982,3,11.5
		c0,4.687,3.813,8.5,8.5,8.5s8.5-3.813,8.5-8.5c0-2.271-0.884-4.405-2.49-6.01c-0.195-0.195-0.512-0.195-0.707,0
		s-0.195,0.512,0,0.707C18.22,7.613,19,9.497,19,11.5c0,4.136-3.364,7.5-7.5,7.5S4,15.636,4,11.5c0-3.967,3.098-7.216,7-7.475v2
		C8.201,6.279,6,8.636,6,11.5c0,3.033,2.467,5.5,5.5,5.5s5.5-2.467,5.5-5.5c0-1.469-0.572-2.85-1.611-3.889
		c-0.195-0.195-0.512-0.195-0.707,0s-0.195,0.512,0,0.707C15.532,9.168,16,10.298,16,11.5c0,2.481-2.019,4.5-4.5,4.5
		S7,13.981,7,11.5c0-2.31,1.756-4.197,4-4.449v3.042c-0.581,0.207-1,0.757-1,1.408c0,0.827,0.673,1.5,1.5,1.5s1.5-0.673,1.5-1.5
		c0-0.651-0.419-1.201-1-1.408V0.5C12,0.224,11.776,0,11.5,0C5.159,0,0,5.159,0,11.5S5.159,23,11.5,23S23,17.841,23,11.5
		C23,8.429,21.804,5.541,19.632,3.368z"/>
</g>
<g id="Hand_2">
</g>
<g id="Palette">
</g>
<g id="Cake">
</g>
<g id="Blende">
</g>
<g id="Feather_Pen">
</g>
<g id="Ticket">
</g>
<g id="Medal">
</g>
<g id="Mouse_Pointer_1">
</g>
<g id="Mouse_Pointer_2">
</g>
<g id="Fingerprint">
</g>
<g id="Earth">
</g>
</svg>
