<?xml version="1.0" encoding="iso-8859-1"?>
<!-- Generator: Adobe Illustrator 19.2.1, SVG Export Plug-In . SVG Version: 6.00 Build 0)  -->
<svg version="1.1" xmlns="http://www.w3.org/2000/svg" xmlns:xlink="http://www.w3.org/1999/xlink" x="0px" y="0px"
	 viewBox="0 0 30 30" style="enable-background:new 0 0 30 30;" xml:space="preserve">
<g id="Flag">
</g>
<g id="Umbrella">
</g>
<g id="Briefcase">
</g>
<g id="Box">
</g>
<g id="Magnet">
</g>
<g id="Percent">
</g>
<g id="Rocket">
</g>
<g id="Share">
</g>
<g id="Transmitter">
</g>
<g id="Record_2">
	<g>
		<path d="M22,11c-2.206,0-4,1.794-4,4c0,2.206,1.794,4,4,4s4-1.794,4-4C26,12.794,24.206,11,22,11z M23.854,16.146
			c0.195,0.195,0.195,0.512,0,0.707C23.756,16.951,23.628,17,23.5,17s-0.256-0.049-0.354-0.146L22,15.707l-1.146,1.146
			C20.756,16.951,20.628,17,20.5,17s-0.256-0.049-0.354-0.146c-0.195-0.195-0.195-0.512,0-0.707L21.293,15l-1.146-1.146
			c-0.195-0.195-0.195-0.512,0-0.707s0.512-0.195,0.707,0L22,14.293l1.146-1.146c0.195-0.195,0.512-0.195,0.707,0
			s0.195,0.512,0,0.707L22.707,15L23.854,16.146z"/>
		<path d="M12,15c0-2.206-1.794-4-4-4s-4,1.794-4,4c0,2.206,1.794,4,4,4S12,17.206,12,15z M6.5,17c-0.128,0-0.256-0.049-0.354-0.146
			c-0.195-0.195-0.195-0.512,0-0.707L7.293,15l-1.146-1.146c-0.195-0.195-0.195-0.512,0-0.707s0.512-0.195,0.707,0L8,14.293
			l1.146-1.146c0.195-0.195,0.512-0.195,0.707,0s0.195,0.512,0,0.707L8.707,15l1.146,1.146c0.195,0.195,0.195,0.512,0,0.707
			C9.756,16.951,9.628,17,9.5,17s-0.256-0.049-0.354-0.146L8,15.707l-1.146,1.146C6.756,16.951,6.628,17,6.5,17z"/>
		<path d="M26.5,5h-23C1.57,5,0,6.57,0,8.5v13C0,23.43,1.57,25,3.5,25h23c1.93,0,3.5-1.57,3.5-3.5v-13C30,6.57,28.43,5,26.5,5z
			 M22,20H8c-2.757,0-5-2.243-5-5s2.243-5,5-5s5,2.243,5,5c0,1.641-0.806,3.088-2.031,4h8.062C17.806,18.088,17,16.641,17,15
			c0-2.757,2.243-5,5-5s5,2.243,5,5S24.757,20,22,20z"/>
	</g>
</g>
<g id="Record_1">
</g>
<g id="Anchor">
</g>
<g id="Airplane">
</g>
<g id="Car">
</g>
<g id="Newsfeed">
</g>
<g id="Wifi_Tethering">
</g>
<g id="No_Wifi_Tethering">
</g>
<g id="Bar_Chart_2">
</g>
<g id="Shop">
</g>
<g id="Alarm">
</g>
<g id="Sim_Card">
</g>
<g id="Radar">
</g>
<g id="Hand_2">
</g>
<g id="Palette">
</g>
<g id="Cake">
</g>
<g id="Blende">
</g>
<g id="Feather_Pen">
</g>
<g id="Ticket">
</g>
<g id="Medal">
</g>
<g id="Mouse_Pointer_1">
</g>
<g id="Mouse_Pointer_2">
</g>
<g id="Fingerprint">
</g>
<g id="Earth">
</g>
</svg>
