<?xml version="1.0" encoding="iso-8859-1"?>
<!-- Generator: Adobe Illustrator 19.2.1, SVG Export Plug-In . SVG Version: 6.00 Build 0)  -->
<svg version="1.1" xmlns="http://www.w3.org/2000/svg" xmlns:xlink="http://www.w3.org/1999/xlink" x="0px" y="0px"
	 viewBox="0 0 30 30" style="enable-background:new 0 0 30 30;" xml:space="preserve">
<g id="Flag">
</g>
<g id="Umbrella">
</g>
<g id="Briefcase">
</g>
<g id="Box">
</g>
<g id="Magnet">
</g>
<g id="Percent">
</g>
<g id="Rocket">
</g>
<g id="Share">
</g>
<g id="Transmitter">
</g>
<g id="Record_2">
</g>
<g id="Record_1">
	<path d="M23.5,8c-3.584,0-6.5,2.916-6.5,6.5c0,2.317,1.222,4.349,3.052,5.5H9.948C11.778,18.849,13,16.817,13,14.5
		C13,10.916,10.084,8,6.5,8S0,10.916,0,14.5S2.916,21,6.5,21h17c3.584,0,6.5-2.916,6.5-6.5S27.084,8,23.5,8z M1,14.5
		C1,11.467,3.467,9,6.5,9s5.5,2.467,5.5,5.5S9.533,20,6.5,20S1,17.533,1,14.5z M23.5,20c-3.033,0-5.5-2.467-5.5-5.5S20.467,9,23.5,9
		s5.5,2.467,5.5,5.5S26.533,20,23.5,20z"/>
</g>
<g id="Anchor">
</g>
<g id="Airplane">
</g>
<g id="Car">
</g>
<g id="Newsfeed">
</g>
<g id="Wifi_Tethering">
</g>
<g id="No_Wifi_Tethering">
</g>
<g id="Bar_Chart_2">
</g>
<g id="Shop">
</g>
<g id="Alarm">
</g>
<g id="Sim_Card">
</g>
<g id="Radar">
</g>
<g id="Hand_2">
</g>
<g id="Palette">
</g>
<g id="Cake">
</g>
<g id="Blende">
</g>
<g id="Feather_Pen">
</g>
<g id="Ticket">
</g>
<g id="Medal">
</g>
<g id="Mouse_Pointer_1">
</g>
<g id="Mouse_Pointer_2">
</g>
<g id="Fingerprint">
</g>
<g id="Earth">
</g>
</svg>
