<?xml version="1.0" encoding="iso-8859-1"?>
<!-- Generator: Adobe Illustrator 19.2.1, SVG Export Plug-In . SVG Version: 6.00 Build 0)  -->
<svg version="1.1" xmlns="http://www.w3.org/2000/svg" xmlns:xlink="http://www.w3.org/1999/xlink" x="0px" y="0px"
	 viewBox="0 0 30 30" style="enable-background:new 0 0 30 30;" xml:space="preserve">
<g id="Cutting_Board_1">
</g>
<g id="Cutting_Board_2">
</g>
<g id="Chef_x27_s_Hat_1">
</g>
<g id="Chef_x27_s_Hat_2">
</g>
<g id="Kitchen_Scale">
</g>
<g id="Measuring_Cup">
</g>
<g id="Pot_1">
</g>
<g id="Pot_2">
</g>
<g id="Wok_1">
</g>
<g id="Wok_2">
</g>
<g id="Teapot">
</g>
<g id="Plate">
</g>
<g id="Sauce_Boat">
</g>
<g id="Cauldron">
</g>
<g id="Cookbook">
</g>
<g id="Salt_Pot">
</g>
<g id="Pepper_Pot_1">
</g>
<g id="Pepper_Pot_2">
</g>
<g id="Egg_Timer">
</g>
<g id="Olive_Oil_Pot">
</g>
<g id="Pancake_Griddle">
</g>
<g id="Pan">
</g>
<g id="Kettle">
</g>
<g id="Microwave">
</g>
<g id="Cooker">
</g>
<g id="Meat_Grinder">
</g>
<g id="Coffee_Maker">
</g>
<g id="Household_Mixer">
</g>
<g id="Stand_Mixer">
</g>
<g id="Hand_Blender">
</g>
<g id="Blender">
</g>
<g id="Cooker_Hood">
</g>
<g id="Refrigerator">
	<g>
		<g>
			<g>
				<path d="M17.5,28.739c-0.276,0-0.5-0.224-0.5-0.5V0.5C17,0.224,17.224,0,17.5,0S18,0.224,18,0.5v27.739
					C18,28.516,17.776,28.739,17.5,28.739z"/>
			</g>
			<g>
				<path d="M11.5,18h-6C5.224,18,5,17.776,5,17.5v-7C5,10.224,5.224,10,5.5,10h6c0.276,0,0.5,0.224,0.5,0.5v7
					C12,17.776,11.776,18,11.5,18z M6,17h5v-6H6V17z"/>
			</g>
			<g>
				<path d="M14.5,21c-0.276,0-0.5-0.224-0.5-0.5v-12C14,8.224,14.224,8,14.5,8S15,8.224,15,8.5v12C15,20.776,14.776,21,14.5,21z"/>
			</g>
			<g>
				<path d="M20.5,21c-0.276,0-0.5-0.224-0.5-0.5v-12C20,8.224,20.224,8,20.5,8S21,8.224,21,8.5v12C21,20.776,20.776,21,20.5,21z"/>
			</g>
			<g>
				<path d="M8.5,13C8.224,13,8,12.776,8,12.5v-2C8,10.224,8.224,10,8.5,10S9,10.224,9,10.5v2C9,12.776,8.776,13,8.5,13z"/>
			</g>
			<g>
				<path d="M3.5,30C3.224,30,3,29.776,3,29.5v-1C3,28.224,3.224,28,3.5,28S4,28.224,4,28.5v1C4,29.776,3.776,30,3.5,30z"/>
			</g>
			<g>
				<path d="M26.5,30c-0.276,0-0.5-0.224-0.5-0.5v-1c0-0.276,0.224-0.5,0.5-0.5s0.5,0.224,0.5,0.5v1C27,29.776,26.776,30,26.5,30z"
					/>
			</g>
		</g>
		<g>
			<path d="M26.5,29h-23C2.673,29,2,28.327,2,27.5v-26C2,0.673,2.673,0,3.5,0h23C27.327,0,28,0.673,28,1.5v26
				C28,28.327,27.327,29,26.5,29z M3.5,1C3.224,1,3,1.224,3,1.5v26C3,27.776,3.224,28,3.5,28h23c0.276,0,0.5-0.224,0.5-0.5v-26
				C27,1.224,26.776,1,26.5,1H3.5z"/>
		</g>
	</g>
</g>
<g id="Freezer">
</g>
<g id="Apron">
</g>
<g id="Oven_Gloves">
</g>
<g id="Rolling_Pin">
</g>
<g id="Sieve">
</g>
<g id="Tea_Sieve">
</g>
<g id="Grater">
</g>
<g id="Knife_Holder">
</g>
<g id="Funnel">
</g>
<g id="Kitchen_Clock">
</g>
<g id="Lemon_Juicer">
</g>
<g id="Pastry_Bag_1">
</g>
<g id="Pastry_Bag_2">
</g>
<g id="Corkscrew">
</g>
<g id="Bottle_Opener">
</g>
<g id="Service">
</g>
<g id="Chopsticks">
</g>
<g id="Hatchet">
</g>
<g id="Filleting_Knife">
</g>
<g id="Bread_Knife">
</g>
<g id="Herb_Knife">
</g>
<g id="Whetting">
</g>
<g id="Cake_Knife">
</g>
<g id="Layer_58">
</g>
<g id="Ladle">
</g>
<g id="Sauce_Spoon">
</g>
<g id="Egg_Beater">
</g>
<g id="Meat_Fork">
</g>
<g id="Kitchen_Spoon_1">
</g>
<g id="Kitchen_Spoon_2">
</g>
<g id="Pizza_Cutter">
</g>
<g id="Potato_Musher">
</g>
<g id="Peeler">
</g>
<g id="Honey_Dipper">
</g>
<g id="Fork">
</g>
<g id="Knife">
</g>
<g id="Spoon">
</g>
<g id="Cutlery_Set">
</g>
<g id="Sugar_Bowl">
</g>
<g id="Matches">
</g>
<g id="Cezve">
</g>
</svg>
