<?xml version="1.0" encoding="iso-8859-1"?>
<!-- Generator: Adobe Illustrator 19.2.1, SVG Export Plug-In . SVG Version: 6.00 Build 0)  -->
<svg version="1.1" xmlns="http://www.w3.org/2000/svg" xmlns:xlink="http://www.w3.org/1999/xlink" x="0px" y="0px"
	 viewBox="0 0 30 30" style="enable-background:new 0 0 30 30;" xml:space="preserve">
<g id="Add_Users">
</g>
<g id="Remove_Users">
</g>
<g id="Delete_Users">
</g>
<g id="Done_3">
</g>
<g id="At_Symbol_3">
</g>
<g id="Question_3">
</g>
<g id="Answer_3">
</g>
<g id="Bring_Up_3">
</g>
<g id="Bring_Down_3">
</g>
<g id="Dismiss_Users">
</g>
<g id="Users_Speed_3">
</g>
<g id="Users_Settings">
</g>
<g id="Refresh_Users">
	<g>
		<path d="M29.5,19c-0.276,0-0.5,0.224-0.5,0.5v1.932C27.949,20.183,26.184,19,24.25,19C21.257,19,19,21.364,19,24.5
			c0,3.032,2.467,5.5,5.5,5.5c0.276,0,0.5-0.224,0.5-0.5S24.776,29,24.5,29c-2.481,0-4.5-2.019-4.5-4.5c0-2.565,1.827-4.5,4.25-4.5
			c2.166,0,4.063,1.908,4.596,3H25.5c-0.276,0-0.5,0.224-0.5,0.5s0.224,0.5,0.5,0.5h4c0.276,0,0.5-0.224,0.5-0.5v-4
			C30,19.224,29.776,19,29.5,19z"/>
		<path d="M17.721,6.077c0.448,0.491,0.658,1.142,0.575,1.784l-0.229,1.772c-0.079,0.614-0.424,1.181-0.946,1.553
			c-0.095,0.068-0.163,0.166-0.193,0.279c-0.217,0.816-0.599,1.617-1.104,2.316c-0.098,0.135-0.122,0.31-0.064,0.466
			s0.189,0.273,0.352,0.313l2.221,0.538c1.492,0.361,2.798,1.394,3.678,2.904c0.115,0.195,0.347,0.293,0.566,0.229
			c1.619-0.452,3.303-0.229,4.952,0.704c0.078,0.045,0.163,0.065,0.246,0.065c0.173,0,0.341-0.09,0.434-0.25
			c0.083-0.145,0.19-0.272,0.316-0.383c0.204-0.176,0.232-0.481,0.063-0.691c-0.716-0.889-1.584-1.477-2.511-1.701l-3.472-0.841
			l-0.279-1.084c0.922-0.896,1.555-2.116,1.752-3.372c0.522-0.154,0.924-0.599,0.996-1.152l0.229-1.772
			c0.049-0.385-0.069-0.774-0.326-1.069c-0.149-0.172-0.337-0.303-0.545-0.385l0.08-1.596l0.326-0.317
			c0.53-0.547,0.971-1.484,0.056-2.841C24.199,0.521,23.024,0,21.402,0c-0.904,0-2.091,0.087-3.258,0.765
			c-0.235,0.137-0.318,0.435-0.188,0.673c0.708,1.29,0.587,2.54-0.337,3.519c-0.082,0.087-0.13,0.2-0.136,0.319l-0.016,0.315
			c-0.007,0.143,0.048,0.282,0.15,0.382L17.721,6.077z"/>
		<path d="M20.889,18.996c0.228-0.148,0.295-0.45,0.153-0.682c-0.756-1.227-1.81-2.056-2.965-2.337l-3.472-0.841l-0.279-1.084
			c0.922-0.896,1.555-2.116,1.752-3.372c0.522-0.154,0.924-0.599,0.996-1.152l0.229-1.772c0.049-0.385-0.069-0.774-0.326-1.069
			c-0.149-0.172-0.337-0.303-0.545-0.385l0.08-1.596l0.326-0.317c0.53-0.547,0.971-1.484,0.056-2.841
			C16.199,0.521,15.024,0,13.402,0c-0.637,0-2.103,0-3.471,0.888C6.012,0.97,5.479,2.749,5.479,4.484
			c0,0.389,0.094,1.243,0.159,1.789C5.405,6.353,5.194,6.49,5.029,6.678C4.769,6.975,4.647,7.367,4.697,7.757l0.229,1.771
			c0.077,0.591,0.53,1.059,1.104,1.18c0.197,1.205,0.797,2.385,1.665,3.266l-0.3,1.163l-3.472,0.841C1.5,16.564,0,19.301,0,21.5
			C0,21.776,0.224,22,0.5,22h17.637c0.197,0,0.376-0.116,0.457-0.296C19.094,20.585,19.888,19.648,20.889,18.996z"/>
	</g>
</g>
<g id="Time_3">
</g>
<g id="Dollar_3">
</g>
<g id="Euro_3">
</g>
<g id="Pound_3">
</g>
<g id="Bitcoin_3">
</g>
<g id="Global_Users">
</g>
<g id="Waiting_Users">
</g>
<g id="Writing_Users">
</g>
<g id="Search_Users">
</g>
<g id="Lock_Users">
</g>
<g id="Mark_Users">
</g>
<g id="Share_Users">
</g>
<g id="Shopping_3">
</g>
<g id="Download_3">
</g>
<g id="Upload_3">
</g>
<g id="Users_Statistics">
</g>
<g id="Users_Defense">
</g>
<g id="Car_3">
</g>
<g id="Home_3">
</g>
<g id="Park_3">
</g>
<g id="Recicle_Users">
</g>
<g id="Wifi_3">
</g>
<g id="Attach_3">
</g>
<g id="Disabled_Users">
</g>
<g id="Users_Card">
</g>
<g id="Gaming_3">
</g>
<g id="Cloud_3">
</g>
<g id="Database_3">
</g>
<g id="Copyright_3">
</g>
<g id="No_Copzright_3">
</g>
<g id="Creative_Commun_3">
</g>
<g id="Eco-Friendly_3">
</g>
<g id="Percentage_3">
</g>
<g id="Users_Love">
</g>
<g id="Users_Place">
</g>
<g id="Users_Key">
</g>
<g id="Sleeping_3">
</g>
</svg>
