<?xml version="1.0" encoding="iso-8859-1"?>
<!-- Generator: Adobe Illustrator 19.2.1, SVG Export Plug-In . SVG Version: 6.00 Build 0)  -->
<svg version="1.1" xmlns="http://www.w3.org/2000/svg" xmlns:xlink="http://www.w3.org/1999/xlink" x="0px" y="0px"
	 viewBox="0 0 30 30" style="enable-background:new 0 0 30 30;" xml:space="preserve">
<g id="Restaurant_sign_1">
</g>
<g id="Restaurant_Sign_2">
</g>
<g id="Restaurant_Sign_3">
</g>
<g id="Hot_Drink_1">
</g>
<g id="Hot_Drink_2">
</g>
<g id="Cocktail">
</g>
<g id="Shot_Glasses">
</g>
<g id="Chilled_Champagne">
</g>
<g id="Wine">
</g>
<g id="Wine_List">
</g>
<g id="Menu">
</g>
<g id="Menu_2">
</g>
<g id="Salver">
</g>
<g id="Soup">
</g>
<g id="Sushi">
</g>
<g id="Pizza">
</g>
<g id="Pizza_Slice">
</g>
<g id="Fish">
</g>
<g id="Sausage">
</g>
<g id="Course">
</g>
<g id="Dessert">
</g>
<g id="Cutlery">
</g>
<g id="Napkin">
</g>
<g id="Table">
</g>
<g id="Spices">
</g>
<g id="Hot_Sauce">
</g>
<g id="Reserved_1">
</g>
<g id="Reserved_2">
	<g>
		<g id="XMLID_336_">
			<path d="M14.5,16c-1.654,0-3-1.346-3-3s1.346-3,3-3s3,1.346,3,3S16.154,16,14.5,16z M14.5,11c-1.103,0-2,0.897-2,2s0.897,2,2,2
				s2-0.897,2-2S15.603,11,14.5,11z"/>
		</g>
		<g id="XMLID_335_">
			<path d="M23.5,14H17c-0.276,0-0.5-0.224-0.5-0.5S16.724,13,17,13h6.5c0.827,0,1.5-0.673,1.5-1.5v-9C25,1.673,24.327,1,23.5,1h-18
				C4.673,1,4,1.673,4,2.5v9C4,12.327,4.673,13,5.5,13H12c0.276,0,0.5,0.224,0.5,0.5S12.276,14,12,14H5.5C4.121,14,3,12.879,3,11.5
				v-9C3,1.121,4.121,0,5.5,0h18C24.879,0,26,1.121,26,2.5v9C26,12.879,24.879,14,23.5,14z"/>
		</g>
		<g id="XMLID_269_">
			<path d="M14.5,27c-0.276,0-0.5-0.224-0.5-0.5v-11c0-0.276,0.224-0.5,0.5-0.5s0.5,0.224,0.5,0.5v11C15,26.776,14.776,27,14.5,27z"
				/>
		</g>
		<g id="XMLID_235_">
			<path d="M19.5,30h-10C9.224,30,9,29.776,9,29.5c0-1.963,2.416-3.5,5.5-3.5s5.5,1.537,5.5,3.5C20,29.776,19.776,30,19.5,30z
				 M10.095,29h8.811c-0.431-1.125-2.273-2-4.405-2S10.525,27.875,10.095,29z"/>
		</g>
		<g id="XMLID_234_">
			<path d="M21.5,5h-14C7.224,5,7,4.776,7,4.5S7.224,4,7.5,4h14C21.776,4,22,4.224,22,4.5S21.776,5,21.5,5z"/>
		</g>
		<g id="XMLID_233_">
			<path d="M19.5,7h-10C9.224,7,9,6.776,9,6.5S9.224,6,9.5,6h10C19.776,6,20,6.224,20,6.5S19.776,7,19.5,7z"/>
		</g>
	</g>
</g>
<g id="Open">
</g>
<g id="Food_Photo">
</g>
<g id="Chef">
</g>
<g id="Bill">
</g>
<g id="Bill_2">
</g>
<g id="Paying_1">
</g>
<g id="Paying_2">
</g>
<g id="Restaurant_Place">
</g>
</svg>
