<?xml version="1.0" encoding="iso-8859-1"?>
<!-- Generator: Adobe Illustrator 19.2.1, SVG Export Plug-In . SVG Version: 6.00 Build 0)  -->
<svg version="1.1" xmlns="http://www.w3.org/2000/svg" xmlns:xlink="http://www.w3.org/1999/xlink" x="0px" y="0px"
	 viewBox="0 0 24 24" style="enable-background:new 0 0 24 24;" xml:space="preserve">
<g id="Restaurant_sign_1">
</g>
<g id="Restaurant_Sign_2">
</g>
<g id="Restaurant_Sign_3">
</g>
<g id="Hot_Drink_1">
</g>
<g id="Hot_Drink_2">
</g>
<g id="Cocktail">
</g>
<g id="Shot_Glasses">
</g>
<g id="Chilled_Champagne">
</g>
<g id="Wine">
</g>
<g id="Wine_List">
</g>
<g id="Menu">
</g>
<g id="Menu_2">
</g>
<g id="Salver">
</g>
<g id="Soup">
</g>
<g id="Sushi">
</g>
<g id="Pizza">
</g>
<g id="Pizza_Slice">
</g>
<g id="Fish">
</g>
<g id="Sausage">
</g>
<g id="Course">
</g>
<g id="Dessert">
</g>
<g id="Cutlery">
</g>
<g id="Napkin">
</g>
<g id="Table">
</g>
<g id="Spices">
</g>
<g id="Hot_Sauce">
</g>
<g id="Reserved_1">
</g>
<g id="Reserved_2">
	<g>
		<path d="M22.5,15h-6c-0.276,0-0.5,0.224-0.5,0.5v1c0,1.758,1.308,3.204,3,3.449V23h-1.5c-0.276,0-0.5,0.224-0.5,0.5
			s0.224,0.5,0.5,0.5h4c0.276,0,0.5-0.224,0.5-0.5S21.776,23,21.5,23H20v-3.051c1.692-0.245,3-1.691,3-3.449v-1
			C23,15.224,22.776,15,22.5,15z"/>
		<path d="M6.5,15h-6C0.224,15,0,15.224,0,15.5v1c0,1.758,1.308,3.204,3,3.449V23H1.5C1.224,23,1,23.224,1,23.5S1.224,24,1.5,24h4
			C5.776,24,6,23.776,6,23.5S5.776,23,5.5,23H4v-3.051c1.692-0.245,3-1.691,3-3.449v-1C7,15.224,6.776,15,6.5,15z"/>
		<path d="M13.618,6.618l-0.342-0.171C13.106,6.362,13,6.191,13,6V3h-3v3c0,0.191-0.106,0.362-0.276,0.447L9.382,6.618
			C8.53,7.044,8,7.901,8,8.854V13v4.5v5C8,23.327,8.673,24,9.5,24h4c0.827,0,1.5-0.673,1.5-1.5v-5V13V8.854
			C15,7.901,14.47,7.044,13.618,6.618z M14,17H9v-3.614C9.566,13.246,10.677,13,11.5,13c0.83,0,1.937,0.246,2.5,0.386V17z"/>
		<path d="M13,0.5C13,0.224,12.776,0,12.5,0h-2C10.224,0,10,0.224,10,0.5V2h3V0.5z"/>
	</g>
</g>
<g id="Open">
</g>
<g id="Food_Photo">
</g>
<g id="Chef">
</g>
<g id="Bill">
</g>
<g id="Bill_2">
</g>
<g id="Paying_1">
</g>
<g id="Paying_2">
</g>
<g id="Restaurant_Place">
</g>
</svg>
