<?xml version="1.0" encoding="iso-8859-1"?>
<!-- Generator: Adobe Illustrator 19.2.1, SVG Export Plug-In . SVG Version: 6.00 Build 0)  -->
<svg version="1.1" xmlns="http://www.w3.org/2000/svg" xmlns:xlink="http://www.w3.org/1999/xlink" x="0px" y="0px"
	 viewBox="0 0 30 30" style="enable-background:new 0 0 30 30;" xml:space="preserve">
<g id="Restaurant_sign_1">
	<g>
		<path d="M20.18,16.962c1.06-1.076,1.504-2.869,1.689-4.107l-4.192,4.259C18.485,17.36,19.619,17.53,20.18,16.962z"/>
		<path d="M26.5,8h-2.832L16.42,2.527C16.467,2.358,16.5,2.184,16.5,2c0-1.103-0.897-2-2-2s-2,0.897-2,2
			c0,0.184,0.033,0.358,0.08,0.527L5.333,8H2.5C1.122,8,0,9.122,0,10.5v17C0,28.879,1.122,30,2.5,30h24c1.379,0,2.5-1.121,2.5-2.5
			v-17C29,9.122,27.879,8,26.5,8z M13.078,3.404C13.441,3.771,13.944,4,14.5,4s1.059-0.229,1.422-0.596L22.008,8H6.992L13.078,3.404
			z M21.6,25.149c0.193,0.196,0.191,0.514-0.006,0.707C21.496,25.952,21.37,26,21.243,26c-0.129,0-0.259-0.05-0.356-0.149l-5.904-6
			l-5.9,5.995c-0.098,0.1-0.227,0.149-0.356,0.149c-0.126,0-0.253-0.048-0.351-0.144c-0.197-0.193-0.2-0.511-0.006-0.707
			l5.911-6.006l-1.21-1.23c-0.46,0.328-0.991,0.503-1.563,0.503c-0.97,0.001-1.969-0.493-2.889-1.429
			c-1.278-1.299-2.286-4.128-1.059-5.375c0.375-0.38,0.921-0.582,1.581-0.582c1.217,0,2.787,0.697,3.732,1.658
			c1.763,1.792,1.63,3.465,0.901,4.514l1.207,1.227l7.161-7.276c0.143-0.146,0.361-0.19,0.55-0.11
			c0.189,0.079,0.311,0.266,0.307,0.47c-0.003,0.167-0.1,4.113-2.107,6.154c-1.14,1.157-3.191,0.543-3.992,0.239l-1.216,1.236
			L21.6,25.149z"/>
		<path d="M12.161,13.385c-0.762-0.775-2.061-1.359-3.02-1.359c-0.391,0-0.684,0.095-0.868,0.283c-0.688,0.7,0.033,2.93,1.059,3.973
			c1.216,1.236,2.561,1.464,3.416,0.597C13.627,15.986,13.403,14.647,12.161,13.385z"/>
	</g>
</g>
<g id="Restaurant_Sign_2">
</g>
<g id="Restaurant_Sign_3">
</g>
<g id="Hot_Drink_1">
</g>
<g id="Hot_Drink_2">
</g>
<g id="Cocktail">
</g>
<g id="Shot_Glasses">
</g>
<g id="Chilled_Champagne">
</g>
<g id="Wine">
</g>
<g id="Wine_List">
</g>
<g id="Menu">
</g>
<g id="Menu_2">
</g>
<g id="Salver">
</g>
<g id="Soup">
</g>
<g id="Sushi">
</g>
<g id="Pizza">
</g>
<g id="Pizza_Slice">
</g>
<g id="Fish">
</g>
<g id="Sausage">
</g>
<g id="Course">
</g>
<g id="Dessert">
</g>
<g id="Cutlery">
</g>
<g id="Napkin">
</g>
<g id="Table">
</g>
<g id="Spices">
</g>
<g id="Hot_Sauce">
</g>
<g id="Reserved_1">
</g>
<g id="Reserved_2">
</g>
<g id="Open">
</g>
<g id="Food_Photo">
</g>
<g id="Chef">
</g>
<g id="Bill">
</g>
<g id="Bill_2">
</g>
<g id="Paying_1">
</g>
<g id="Paying_2">
</g>
<g id="Restaurant_Place">
</g>
</svg>
