<?xml version="1.0" encoding="iso-8859-1"?>
<!-- Generator: Adobe Illustrator 19.2.1, SVG Export Plug-In . SVG Version: 6.00 Build 0)  -->
<svg version="1.1" xmlns="http://www.w3.org/2000/svg" xmlns:xlink="http://www.w3.org/1999/xlink" x="0px" y="0px"
	 viewBox="0 0 24 24" style="enable-background:new 0 0 24 24;" xml:space="preserve">
<g id="Restaurant_sign_1">
	<g>
		<path d="M23.5,21h-23c-0.173,0-0.334,0.09-0.425,0.237s-0.1,0.331-0.022,0.486C0.755,23.128,2.167,24,3.736,24h16.527
			c1.569,0,2.98-0.872,3.684-2.276c0.077-0.155,0.069-0.339-0.021-0.486C23.834,21.09,23.673,21,23.5,21z"/>
		<path d="M19.914,15.901c-0.03-0.04-0.067-0.075-0.108-0.104l-0.292-0.204C19.236,15.851,18.881,16,18.5,16
			c-0.455,0-0.881-0.203-1.168-0.559c-0.338-0.422-1.185-1.503-2.106-2.851l-0.084-0.059c-0.042-0.029-0.088-0.052-0.137-0.067
			c-0.536-0.169-1.082-0.288-1.633-0.365c0.081-0.184,0.127-0.386,0.127-0.6c0-0.827-0.673-1.5-1.5-1.5s-1.5,0.673-1.5,1.5
			c0,0.215,0.047,0.418,0.129,0.603C6.43,12.68,3.05,15.856,2.211,20h19.587C21.495,18.52,20.857,17.123,19.914,15.901z
			 M11.533,14.999c-2.798,0.185-5.207,2.011-6.135,4.652c-0.072,0.205-0.266,0.334-0.472,0.334c-0.055,0-0.111-0.009-0.166-0.028
			c-0.26-0.092-0.397-0.377-0.306-0.638c1.062-3.019,3.814-5.106,7.012-5.318c0.277-0.029,0.514,0.19,0.532,0.466
			C12.017,14.742,11.809,14.98,11.533,14.999z M12,12c-0.276,0-0.5-0.224-0.5-0.5S11.724,11,12,11s0.5,0.224,0.5,0.5
			S12.276,12,12,12z"/>
		<path d="M18.5,15c0.151,0,0.295-0.069,0.391-0.188C19.099,14.553,24,8.403,24,5.5C24,2.467,21.532,0,18.5,0S13,2.467,13,5.5
			c0,2.903,4.901,9.053,5.109,9.313C18.205,14.931,18.349,15,18.5,15z M16,5.5C16,4.122,17.121,3,18.5,3S21,4.122,21,5.5
			S19.879,8,18.5,8S16,6.878,16,5.5z"/>
	</g>
</g>
<g id="Restaurant_Sign_2">
</g>
<g id="Restaurant_Sign_3">
</g>
<g id="Hot_Drink_1">
</g>
<g id="Hot_Drink_2">
</g>
<g id="Cocktail">
</g>
<g id="Shot_Glasses">
</g>
<g id="Chilled_Champagne">
</g>
<g id="Wine">
</g>
<g id="Wine_List">
</g>
<g id="Menu">
</g>
<g id="Menu_2">
</g>
<g id="Salver">
</g>
<g id="Soup">
</g>
<g id="Sushi">
</g>
<g id="Pizza">
</g>
<g id="Pizza_Slice">
</g>
<g id="Fish">
</g>
<g id="Sausage">
</g>
<g id="Course">
</g>
<g id="Dessert">
</g>
<g id="Cutlery">
</g>
<g id="Napkin">
</g>
<g id="Table">
</g>
<g id="Spices">
</g>
<g id="Hot_Sauce">
</g>
<g id="Reserved_1">
</g>
<g id="Reserved_2">
</g>
<g id="Open">
</g>
<g id="Food_Photo">
</g>
<g id="Chef">
</g>
<g id="Bill">
</g>
<g id="Bill_2">
</g>
<g id="Paying_1">
</g>
<g id="Paying_2">
</g>
<g id="Restaurant_Place">
</g>
</svg>
