<?xml version="1.0" encoding="iso-8859-1"?>
<!-- Generator: Adobe Illustrator 19.2.1, SVG Export Plug-In . SVG Version: 6.00 Build 0)  -->
<svg version="1.1" xmlns="http://www.w3.org/2000/svg" xmlns:xlink="http://www.w3.org/1999/xlink" x="0px" y="0px"
	 viewBox="0 0 30 30" style="enable-background:new 0 0 30 30;" xml:space="preserve">
<g id="Retro_Bot_1">
</g>
<g id="Retro_Bot_2">
</g>
<g id="Retro_Bot_3">
</g>
<g id="Retro_Bot_4">
	<g id="Retro_bot_4_1_">
		<g>
			<path d="M23.5,30h-17C6.224,30,6,29.776,6,29.5v-29C6,0.224,6.224,0,6.5,0h17C23.776,0,24,0.224,24,0.5v29
				C24,29.776,23.776,30,23.5,30z M7,29h16V1H7V29z"/>
		</g>
		<g>
			<path d="M13.5,8h-4C9.224,8,9,7.776,9,7.5v-3C9,4.224,9.224,4,9.5,4h4C13.776,4,14,4.224,14,4.5v3C14,7.776,13.776,8,13.5,8z
				 M10,7h3V5h-3V7z"/>
		</g>
		<g>
			<path d="M20.5,8h-4C16.224,8,16,7.776,16,7.5v-3C16,4.224,16.224,4,16.5,4h4C20.776,4,21,4.224,21,4.5v3
				C21,7.776,20.776,8,20.5,8z M17,7h3V5h-3V7z"/>
		</g>
		<g>
			<path d="M13.5,21h-4C9.224,21,9,20.776,9,20.5v-4C9,16.224,9.224,16,9.5,16h4c0.276,0,0.5,0.224,0.5,0.5v4
				C14,20.776,13.776,21,13.5,21z M10,20h3v-3h-3V20z"/>
		</g>
		<g>
			<path d="M20.5,21c-0.276,0-0.5-0.224-0.5-0.5v-4c0-0.276,0.224-0.5,0.5-0.5s0.5,0.224,0.5,0.5v4C21,20.776,20.776,21,20.5,21z"/>
		</g>
		<g>
			<path d="M18.5,21c-0.276,0-0.5-0.224-0.5-0.5v-4c0-0.276,0.224-0.5,0.5-0.5s0.5,0.224,0.5,0.5v4C19,20.776,18.776,21,18.5,21z"/>
		</g>
		<g>
			<path d="M16.5,21c-0.276,0-0.5-0.224-0.5-0.5v-4c0-0.276,0.224-0.5,0.5-0.5s0.5,0.224,0.5,0.5v4C17,20.776,16.776,21,16.5,21z"/>
		</g>
		<g>
			<path d="M20.5,24h-6c-0.276,0-0.5-0.224-0.5-0.5s0.224-0.5,0.5-0.5h6c0.276,0,0.5,0.224,0.5,0.5S20.776,24,20.5,24z"/>
		</g>
		<g>
			<path d="M20.5,27c-0.276,0-0.5-0.224-0.5-0.5V26H10v0.5c0,0.276-0.224,0.5-0.5,0.5S9,26.776,9,26.5v-1C9,25.224,9.224,25,9.5,25
				h11c0.276,0,0.5,0.224,0.5,0.5v1C21,26.776,20.776,27,20.5,27z"/>
		</g>
		<g>
			<path d="M19.5,13c-0.128,0-0.256-0.049-0.354-0.146L18.5,12.207l-0.646,0.646c-0.195,0.195-0.512,0.195-0.707,0L16.5,12.207
				l-0.646,0.646c-0.195,0.195-0.512,0.195-0.707,0L14.5,12.207l-0.646,0.646c-0.195,0.195-0.512,0.195-0.707,0L12.5,12.207
				l-0.646,0.646c-0.195,0.195-0.512,0.195-0.707,0L10.5,12.207l-0.646,0.646c-0.195,0.195-0.512,0.195-0.707,0
				s-0.195-0.512,0-0.707l1-1c0.195-0.195,0.512-0.195,0.707,0l0.646,0.646l0.646-0.646c0.195-0.195,0.512-0.195,0.707,0
				l0.646,0.646l0.646-0.646c0.195-0.195,0.512-0.195,0.707,0l0.646,0.646l0.646-0.646c0.195-0.195,0.512-0.195,0.707,0l0.646,0.646
				l0.646-0.646c0.195-0.195,0.512-0.195,0.707,0l0.646,0.646l0.646-0.646c0.195-0.195,0.512-0.195,0.707,0s0.195,0.512,0,0.707
				l-1,1C19.756,12.951,19.628,13,19.5,13z"/>
		</g>
		<g>
			<circle cx="9.5" cy="23.5" r="0.5"/>
		</g>
		<g>
			<circle cx="11.5" cy="23.5" r="0.5"/>
		</g>
	</g>
</g>
<g id="Wall-E">
</g>
<g id="Eva">
</g>
<g id="Iron_Giant">
</g>
<g id="Marvin">
</g>
<g id="Atlas">
</g>
<g id="Claptrap">
</g>
<g id="Android">
</g>
<g id="Bender">
</g>
<g id="Roberto">
</g>
<g id="Robot_Devil">
</g>
<g id="Robocop">
</g>
<g id="ED_209">
</g>
<g id="Optimus_Prime">
</g>
<g id="Robot_1">
</g>
<g id="Robot_2">
</g>
<g id="Robot_3">
</g>
<g id="Robot_Arm_1">
</g>
<g id="Robot_Arm_2">
</g>
<g id="Robot_Arm_3">
</g>
<g id="Robot_Arm_4">
</g>
<g id="Robot_Arm_5">
</g>
<g id="K5_Robot">
</g>
<g id="Robot_Machine_1">
</g>
<g id="Robot_Machine_2">
</g>
<g id="Artifical_Intelligence_1">
</g>
<g id="Artifical_Intelligence_2">
</g>
<g id="Robot_4">
</g>
<g id="Robot_5">
</g>
<g id="Robot_6">
</g>
<g id="Robot_7">
</g>
<g id="Robot_8">
</g>
<g id="Robot_9">
</g>
<g id="Robot_10">
</g>
<g id="Robot_11">
</g>
<g id="Robot_12">
</g>
<g id="Robot_13">
</g>
</svg>
