<?xml version="1.0" encoding="iso-8859-1"?>
<!-- Generator: Adobe Illustrator 19.2.1, SVG Export Plug-In . SVG Version: 6.00 Build 0)  -->
<svg version="1.1" xmlns="http://www.w3.org/2000/svg" xmlns:xlink="http://www.w3.org/1999/xlink" x="0px" y="0px"
	 viewBox="0 0 30 30" style="enable-background:new 0 0 30 30;" xml:space="preserve">
<g id="Retro_Bot_1">
</g>
<g id="Retro_Bot_2">
	<g>
		<path d="M14.5,2C13.542,2,12,3.542,12,4.5C12,4.776,12.224,5,12.5,5S13,4.776,13,4.5C13,4.093,14.093,3,14.5,3
			C14.776,3,15,2.776,15,2.5S14.776,2,14.5,2z"/>
		<rect x="7" y="13" width="2" height="3"/>
		<rect x="17" y="13" width="2" height="3"/>
		<rect x="10" y="13" width="2" height="3"/>
		<rect x="20" y="13" width="2" height="3"/>
		<path d="M25.5,9h-3.548C21.721,7.518,20.518,6,19,6V4c0-2.206-2.019-4-4.5-4S10,1.794,10,4v2C8.482,6,7.279,7.518,7.048,9H3.5
			C2.673,9,2,9.673,2,10.5v18C2,29.327,2.673,30,3.5,30h22c0.827,0,1.5-0.673,1.5-1.5v-18C27,9.673,26.327,9,25.5,9z M16.5,20
			c0.276,0,0.5,0.224,0.5,0.5S16.776,21,16.5,21h-4c-0.276,0-0.5-0.224-0.5-0.5s0.224-0.5,0.5-0.5H14v-1.5
			c0-0.276,0.224-0.5,0.5-0.5s0.5,0.224,0.5,0.5V20H16.5z M11,4c0-1.853,1.817-3,3.5-3S18,2.147,18,4v2h-7V4z M6,12.5
			C6,12.224,6.224,12,6.5,12h6c0.276,0,0.5,0.224,0.5,0.5v4c0,0.276-0.224,0.5-0.5,0.5h-6C6.224,17,6,16.776,6,16.5V12.5z M22.5,25
			H22v0.5c0,0.276-0.224,0.5-0.5,0.5S21,25.776,21,25.5V25h-1v0.5c0,0.276-0.224,0.5-0.5,0.5S19,25.776,19,25.5V25h-1v0.5
			c0,0.276-0.224,0.5-0.5,0.5S17,25.776,17,25.5V25h-1v0.5c0,0.276-0.224,0.5-0.5,0.5S15,25.776,15,25.5V25h-1v0.5
			c0,0.276-0.224,0.5-0.5,0.5S13,25.776,13,25.5V25h-1v0.5c0,0.276-0.224,0.5-0.5,0.5S11,25.776,11,25.5V25h-1v0.5
			c0,0.276-0.224,0.5-0.5,0.5S9,25.776,9,25.5V25H8v0.5C8,25.776,7.776,26,7.5,26S7,25.776,7,25.5V25H6.5C6.224,25,6,24.776,6,24.5
			S6.224,24,6.5,24H7v-0.5C7,23.224,7.224,23,7.5,23S8,23.224,8,23.5V24h1v-0.5C9,23.224,9.224,23,9.5,23s0.5,0.224,0.5,0.5V24h1
			v-0.5c0-0.276,0.224-0.5,0.5-0.5s0.5,0.224,0.5,0.5V24h1v-0.5c0-0.276,0.224-0.5,0.5-0.5s0.5,0.224,0.5,0.5V24h1v-0.5
			c0-0.276,0.224-0.5,0.5-0.5s0.5,0.224,0.5,0.5V24h1v-0.5c0-0.276,0.224-0.5,0.5-0.5s0.5,0.224,0.5,0.5V24h1v-0.5
			c0-0.276,0.224-0.5,0.5-0.5s0.5,0.224,0.5,0.5V24h1v-0.5c0-0.276,0.224-0.5,0.5-0.5s0.5,0.224,0.5,0.5V24h0.5
			c0.276,0,0.5,0.224,0.5,0.5S22.776,25,22.5,25z M23,16.5c0,0.276-0.224,0.5-0.5,0.5h-6c-0.276,0-0.5-0.224-0.5-0.5v-4
			c0-0.276,0.224-0.5,0.5-0.5h6c0.276,0,0.5,0.224,0.5,0.5V16.5z"/>
	</g>
</g>
<g id="Retro_Bot_3">
</g>
<g id="Retro_Bot_4">
</g>
<g id="Wall-E">
</g>
<g id="Eva">
</g>
<g id="Iron_Giant">
</g>
<g id="Marvin">
</g>
<g id="Atlas">
</g>
<g id="Claptrap">
</g>
<g id="Android">
</g>
<g id="Bender">
</g>
<g id="Roberto">
</g>
<g id="Robot_Devil">
</g>
<g id="Robocop">
</g>
<g id="ED_209">
</g>
<g id="Optimus_Prime">
</g>
<g id="Robot_1">
</g>
<g id="Robot_2">
</g>
<g id="Robot_3">
</g>
<g id="Robot_Arm_1">
</g>
<g id="Robot_Arm_2">
</g>
<g id="Robot_Arm_3">
</g>
<g id="Robot_Arm_4">
</g>
<g id="Robot_Arm_5">
</g>
<g id="K5_Robot">
</g>
<g id="Robot_Machine_1">
</g>
<g id="Robot_Machine_2">
</g>
<g id="Artifical_Intelligence_1">
</g>
<g id="Artifical_Intelligence_2">
</g>
<g id="Robot_4">
</g>
<g id="Robot_5">
</g>
<g id="Robot_6">
</g>
<g id="Robot_7">
</g>
<g id="Robot_8">
</g>
<g id="Robot_9">
</g>
<g id="Robot_10">
</g>
<g id="Robot_11">
</g>
<g id="Robot_12">
</g>
<g id="Robot_13">
</g>
</svg>
