<?xml version="1.0" encoding="iso-8859-1"?>
<!-- Generator: Adobe Illustrator 19.2.1, SVG Export Plug-In . SVG Version: 6.00 Build 0)  -->
<svg version="1.1" xmlns="http://www.w3.org/2000/svg" xmlns:xlink="http://www.w3.org/1999/xlink" x="0px" y="0px"
	 viewBox="0 0 30 30" style="enable-background:new 0 0 30 30;" xml:space="preserve">
<g id="Retro_Bot_1">
</g>
<g id="Retro_Bot_2">
</g>
<g id="Retro_Bot_3">
	<g>
		<path d="M22,12.55V11.5c0-0.276-0.224-0.5-0.5-0.5H18v-1h2.5c0.276,0,0.5-0.224,0.5-0.5V6.89c0.655-0.278,1-1.084,1-1.89
			s-0.345-1.612-1-1.89V0.5C21,0.224,20.776,0,20.5,0h-11C9.224,0,9,0.224,9,0.5v2.61C8.345,3.388,8,4.193,8,5s0.345,1.612,1,1.89
			V9.5C9,9.776,9.224,10,9.5,10H12v1H8.5C8.224,11,8,11.224,8,11.5v1.05c-1.229,0.234-2,1.338-2,2.95v5C6,20.776,6.224,21,6.5,21
			S7,20.776,7,20.5v-5c0-0.516,0.113-1.614,1-1.917V23.5C8,23.776,8.224,24,8.5,24H11v2.551C9.86,26.783,9,27.793,9,29v0.5
			C9,29.776,9.224,30,9.5,30h4c0.276,0,0.5-0.224,0.5-0.5V29c0-1.207-0.86-2.217-2-2.449V24h6v2.551c-1.14,0.232-2,1.242-2,2.449
			v0.5c0,0.276,0.224,0.5,0.5,0.5h4c0.276,0,0.5-0.224,0.5-0.5V29c0-1.207-0.86-2.217-2-2.449V24h2.5c0.276,0,0.5-0.224,0.5-0.5
			v-9.917c0.887,0.302,1,1.4,1,1.917v5c0,0.276,0.224,0.5,0.5,0.5s0.5-0.224,0.5-0.5v-5C24,13.887,23.229,12.783,22,12.55z M13,7.5
			C13,7.224,13.224,7,13.5,7h3C16.776,7,17,7.224,17,7.5S16.776,8,16.5,8h-3C13.224,8,13,7.776,13,7.5z M17,3c0.552,0,1,0.448,1,1
			c0,0.552-0.448,1-1,1s-1-0.448-1-1C16,3.448,16.448,3,17,3z M13,3c0.552,0,1,0.448,1,1c0,0.552-0.448,1-1,1s-1-0.448-1-1
			C12,3.448,12.448,3,13,3z M17,18.5c0,0.276-0.224,0.5-0.5,0.5h-5c-0.276,0-0.5-0.224-0.5-0.5v-4c0-0.276,0.224-0.5,0.5-0.5h5
			c0.276,0,0.5,0.224,0.5,0.5V18.5z M18.5,18c-0.276,0-0.5-0.224-0.5-0.5c0-0.276,0.224-0.5,0.5-0.5s0.5,0.224,0.5,0.5
			C19,17.776,18.776,18,18.5,18z M18.5,16c-0.276,0-0.5-0.224-0.5-0.5c0-0.276,0.224-0.5,0.5-0.5s0.5,0.224,0.5,0.5
			C19,15.776,18.776,16,18.5,16z"/>
		<rect x="12" y="15" width="4" height="3"/>
	</g>
</g>
<g id="Retro_Bot_4">
</g>
<g id="Wall-E">
</g>
<g id="Eva">
</g>
<g id="Iron_Giant">
</g>
<g id="Marvin">
</g>
<g id="Atlas">
</g>
<g id="Claptrap">
</g>
<g id="Android">
</g>
<g id="Bender">
</g>
<g id="Roberto">
</g>
<g id="Robot_Devil">
</g>
<g id="Robocop">
</g>
<g id="ED_209">
</g>
<g id="Optimus_Prime">
</g>
<g id="Robot_1">
</g>
<g id="Robot_2">
</g>
<g id="Robot_3">
</g>
<g id="Robot_Arm_1">
</g>
<g id="Robot_Arm_2">
</g>
<g id="Robot_Arm_3">
</g>
<g id="Robot_Arm_4">
</g>
<g id="Robot_Arm_5">
</g>
<g id="K5_Robot">
</g>
<g id="Robot_Machine_1">
</g>
<g id="Robot_Machine_2">
</g>
<g id="Artifical_Intelligence_1">
</g>
<g id="Artifical_Intelligence_2">
</g>
<g id="Robot_4">
</g>
<g id="Robot_5">
</g>
<g id="Robot_6">
</g>
<g id="Robot_7">
</g>
<g id="Robot_8">
</g>
<g id="Robot_9">
</g>
<g id="Robot_10">
</g>
<g id="Robot_11">
</g>
<g id="Robot_12">
</g>
<g id="Robot_13">
</g>
</svg>
