<?xml version="1.0" encoding="iso-8859-1"?>
<!-- Generator: Adobe Illustrator 19.2.1, SVG Export Plug-In . SVG Version: 6.00 Build 0)  -->
<svg version="1.1" xmlns="http://www.w3.org/2000/svg" xmlns:xlink="http://www.w3.org/1999/xlink" x="0px" y="0px"
	 viewBox="0 0 30 30" style="enable-background:new 0 0 30 30;" xml:space="preserve">
<g id="Retro_Bot_1">
</g>
<g id="Retro_Bot_2">
</g>
<g id="Retro_Bot_3">
	<g>
		<g>
			<path d="M20.5,10h-11C9.224,10,9,9.776,9,9.5v-9C9,0.224,9.224,0,9.5,0h11C20.776,0,21,0.224,21,0.5v9
				C21,9.776,20.776,10,20.5,10z M10,9h10V1H10V9z"/>
		</g>
		<g>
			<path d="M17.5,12h-5c-0.276,0-0.5-0.224-0.5-0.5v-2C12,9.224,12.224,9,12.5,9h5C17.776,9,18,9.224,18,9.5v2
				C18,11.776,17.776,12,17.5,12z M13,11h4v-1h-4V11z"/>
		</g>
		<g>
			<path d="M21.5,24h-13C8.224,24,8,23.776,8,23.5v-12C8,11.224,8.224,11,8.5,11h13c0.276,0,0.5,0.224,0.5,0.5v12
				C22,23.776,21.776,24,21.5,24z M9,23h12V12H9V23z"/>
		</g>
		<g>
			<path d="M13.5,30h-4C9.224,30,9,29.776,9,29.5V29c0-1.378,1.122-2.5,2.5-2.5S14,27.622,14,29v0.5C14,29.776,13.776,30,13.5,30z
				 M10,29h3c0-0.827-0.673-1.5-1.5-1.5S10,28.173,10,29z"/>
		</g>
		<g>
			<path d="M20.5,30h-4c-0.276,0-0.5-0.224-0.5-0.5V29c0-1.378,1.122-2.5,2.5-2.5S21,27.622,21,29v0.5C21,29.776,20.776,30,20.5,30z
				 M17,29h3c0-0.827-0.673-1.5-1.5-1.5S17,28.173,17,29z"/>
		</g>
		<g>
			<path d="M11.5,27.5c-0.276,0-0.5-0.224-0.5-0.5v-3.5c0-0.276,0.224-0.5,0.5-0.5s0.5,0.224,0.5,0.5V27
				C12,27.276,11.776,27.5,11.5,27.5z"/>
		</g>
		<g>
			<path d="M18.5,27.5c-0.276,0-0.5-0.224-0.5-0.5v-3.5c0-0.276,0.224-0.5,0.5-0.5s0.5,0.224,0.5,0.5V27
				C19,27.276,18.776,27.5,18.5,27.5z"/>
		</g>
		<g>
			<path d="M6.5,21C6.224,21,6,20.776,6,20.5v-5c0-1.822,0.981-3,2.5-3C8.776,12.5,9,12.724,9,13s-0.224,0.5-0.5,0.5
				c-1.354,0-1.5,1.398-1.5,2v5C7,20.776,6.776,21,6.5,21z"/>
		</g>
		<g>
			<path d="M23.5,21c-0.276,0-0.5-0.224-0.5-0.5v-5c0-0.602-0.146-2-1.5-2c-0.276,0-0.5-0.224-0.5-0.5s0.224-0.5,0.5-0.5
				c1.519,0,2.5,1.178,2.5,3v5C24,20.776,23.776,21,23.5,21z"/>
		</g>
		<g>
			<path d="M16.5,19h-5c-0.276,0-0.5-0.224-0.5-0.5v-4c0-0.276,0.224-0.5,0.5-0.5h5c0.276,0,0.5,0.224,0.5,0.5v4
				C17,18.776,16.776,19,16.5,19z M12,18h4v-3h-4V18z"/>
		</g>
		<g>
			<circle cx="18.5" cy="15.5" r="0.5"/>
		</g>
		<g>
			<circle cx="18.5" cy="17.5" r="0.5"/>
		</g>
		<g>
			<path d="M16.5,8h-3C13.224,8,13,7.776,13,7.5S13.224,7,13.5,7h3C16.776,7,17,7.224,17,7.5S16.776,8,16.5,8z"/>
		</g>
		<g>
			<path d="M9.5,7C8.515,7,8,5.994,8,5s0.515-2,1.5-2C9.776,3,10,3.224,10,3.5S9.776,4,9.5,4C9.159,4,9,4.597,9,5s0.159,1,0.5,1
				C9.776,6,10,6.224,10,6.5S9.776,7,9.5,7z"/>
		</g>
		<g>
			<path d="M20.5,7C20.224,7,20,6.776,20,6.5S20.224,6,20.5,6C20.841,6,21,5.403,21,5s-0.159-1-0.5-1C20.224,4,20,3.776,20,3.5
				S20.224,3,20.5,3C21.485,3,22,4.006,22,5S21.485,7,20.5,7z"/>
		</g>
		<g>
			<circle cx="17" cy="4" r="1"/>
		</g>
		<g>
			<circle cx="13" cy="4" r="1"/>
		</g>
	</g>
</g>
<g id="Retro_Bot_4">
</g>
<g id="Wall-E">
</g>
<g id="Eva">
</g>
<g id="Iron_Giant">
</g>
<g id="Marvin">
</g>
<g id="Atlas">
</g>
<g id="Claptrap">
</g>
<g id="Android">
</g>
<g id="Bender">
</g>
<g id="Roberto">
</g>
<g id="Robot_Devil">
</g>
<g id="Robocop">
</g>
<g id="ED_209">
</g>
<g id="Optimus_Prime">
</g>
<g id="Robot_1">
</g>
<g id="Robot_2">
</g>
<g id="Robot_3">
</g>
<g id="Robot_Arm_1">
</g>
<g id="Robot_Arm_2">
</g>
<g id="Robot_Arm_3">
</g>
<g id="Robot_Arm_4">
</g>
<g id="Robot_Arm_5">
</g>
<g id="K5_Robot">
</g>
<g id="Robot_Machine_1">
</g>
<g id="Robot_Machine_2">
</g>
<g id="Artifical_Intelligence_1">
</g>
<g id="Artifical_Intelligence_2">
</g>
<g id="Robot_4">
</g>
<g id="Robot_5">
</g>
<g id="Robot_6">
</g>
<g id="Robot_7">
</g>
<g id="Robot_8">
</g>
<g id="Robot_9">
</g>
<g id="Robot_10">
</g>
<g id="Robot_11">
</g>
<g id="Robot_12">
</g>
<g id="Robot_13">
</g>
</svg>
