<?xml version="1.0" encoding="iso-8859-1"?>
<!-- Generator: Adobe Illustrator 19.2.1, SVG Export Plug-In . SVG Version: 6.00 Build 0)  -->
<svg version="1.1" xmlns="http://www.w3.org/2000/svg" xmlns:xlink="http://www.w3.org/1999/xlink" x="0px" y="0px"
	 viewBox="0 0 30 30" style="enable-background:new 0 0 30 30;" xml:space="preserve">
<g id="Retro_Bot_1">
	<g id="Retro_bot_1">
		<g>
			<path d="M23.5,30h-18C4.122,30,3,28.878,3,27.5v-19C3,7.122,4.122,6,5.5,6h18C24.878,6,26,7.122,26,8.5v19
				C26,28.878,24.878,30,23.5,30z M5.5,7C4.673,7,4,7.673,4,8.5v19C4,28.327,4.673,29,5.5,29h18c0.827,0,1.5-0.673,1.5-1.5v-19
				C25,7.673,24.327,7,23.5,7H5.5z"/>
		</g>
		<g>
			<path d="M3.5,21h-2C0.673,21,0,20.327,0,19.5v-5C0,13.673,0.673,13,1.5,13h2C3.776,13,4,13.224,4,13.5v7
				C4,20.776,3.776,21,3.5,21z M1.5,14C1.224,14,1,14.224,1,14.5v5C1,19.776,1.224,20,1.5,20H3v-6H1.5z"/>
		</g>
		<g>
			<path d="M1.5,14C1.224,14,1,13.776,1,13.5v-11C1,2.224,1.224,2,1.5,2S2,2.224,2,2.5v11C2,13.776,1.776,14,1.5,14z"/>
		</g>
		<g>
			<path d="M22.5,26h-16C6.224,26,6,25.776,6,25.5v-2C6,23.224,6.224,23,6.5,23h16c0.276,0,0.5,0.224,0.5,0.5v2
				C23,25.776,22.776,26,22.5,26z M7,25h15v-1H7V25z"/>
		</g>
		<g>
			<path d="M16.5,22h-4c-0.185,0-0.354-0.102-0.441-0.264s-0.077-0.36,0.025-0.513l2-3c0.186-0.278,0.646-0.278,0.832,0l2,3
				c0.102,0.153,0.112,0.351,0.025,0.513S16.685,22,16.5,22z M13.434,21h2.132L14.5,19.401L13.434,21z"/>
		</g>
		<g>
			<path d="M10.5,26h-2C8.224,26,8,25.776,8,25.5v-2C8,23.224,8.224,23,8.5,23h2c0.276,0,0.5,0.224,0.5,0.5v2
				C11,25.776,10.776,26,10.5,26z M9,25h1v-1H9V25z"/>
		</g>
		<g>
			<path d="M20.5,26h-2c-0.276,0-0.5-0.224-0.5-0.5v-2c0-0.276,0.224-0.5,0.5-0.5h2c0.276,0,0.5,0.224,0.5,0.5v2
				C21,25.776,20.776,26,20.5,26z M19,25h1v-1h-1V25z"/>
		</g>
		<g>
			<path d="M12.5,26c-0.276,0-0.5-0.224-0.5-0.5v-2c0-0.276,0.224-0.5,0.5-0.5s0.5,0.224,0.5,0.5v2C13,25.776,12.776,26,12.5,26z"/>
		</g>
		<g>
			<path d="M16.5,26c-0.276,0-0.5-0.224-0.5-0.5v-2c0-0.276,0.224-0.5,0.5-0.5s0.5,0.224,0.5,0.5v2C17,25.776,16.776,26,16.5,26z"/>
		</g>
		<g>
			<path d="M14.5,26c-0.276,0-0.5-0.224-0.5-0.5v-2c0-0.276,0.224-0.5,0.5-0.5s0.5,0.224,0.5,0.5v2C15,25.776,14.776,26,14.5,26z"/>
		</g>
		<g>
			<path d="M1.5,3C0.673,3,0,2.327,0,1.5S0.673,0,1.5,0S3,0.673,3,1.5S2.327,3,1.5,3z M1.5,1C1.224,1,1,1.224,1,1.5S1.224,2,1.5,2
				S2,1.776,2,1.5S1.776,1,1.5,1z"/>
		</g>
		<g>
			<path d="M27.5,21h-2c-0.276,0-0.5-0.224-0.5-0.5v-7c0-0.276,0.224-0.5,0.5-0.5h2c0.827,0,1.5,0.673,1.5,1.5v5
				C29,20.327,28.327,21,27.5,21z M26,20h1.5c0.276,0,0.5-0.224,0.5-0.5v-5c0-0.276-0.224-0.5-0.5-0.5H26V20z"/>
		</g>
		<g>
			<path d="M27.5,14c-0.276,0-0.5-0.224-0.5-0.5v-11C27,2.224,27.224,2,27.5,2S28,2.224,28,2.5v11C28,13.776,27.776,14,27.5,14z"/>
		</g>
		<g>
			<path d="M27.5,3C26.673,3,26,2.327,26,1.5S26.673,0,27.5,0S29,0.673,29,1.5S28.327,3,27.5,3z M27.5,1C27.224,1,27,1.224,27,1.5
				S27.224,2,27.5,2S28,1.776,28,1.5S27.776,1,27.5,1z"/>
		</g>
		<g>
			<circle cx="19.5" cy="13.5" r="1.5"/>
		</g>
		<g>
			<circle cx="9.5" cy="13.5" r="1.5"/>
		</g>
		<g>
			<path d="M19.5,18c-2.481,0-4.5-2.019-4.5-4.5S17.019,9,19.5,9s4.5,2.019,4.5,4.5S21.981,18,19.5,18z M19.5,10
				c-1.93,0-3.5,1.57-3.5,3.5s1.57,3.5,3.5,3.5s3.5-1.57,3.5-3.5S21.43,10,19.5,10z"/>
		</g>
		<g>
			<path d="M9.5,18C7.019,18,5,15.981,5,13.5S7.019,9,9.5,9s4.5,2.019,4.5,4.5S11.981,18,9.5,18z M9.5,10C7.57,10,6,11.57,6,13.5
				S7.57,17,9.5,17s3.5-1.57,3.5-3.5S11.43,10,9.5,10z"/>
		</g>
	</g>
</g>
<g id="Retro_Bot_2">
</g>
<g id="Retro_Bot_3">
</g>
<g id="Retro_Bot_4">
</g>
<g id="Wall-E">
</g>
<g id="Eva">
</g>
<g id="Iron_Giant">
</g>
<g id="Marvin">
</g>
<g id="Atlas">
</g>
<g id="Claptrap">
</g>
<g id="Android">
</g>
<g id="Bender">
</g>
<g id="Roberto">
</g>
<g id="Robot_Devil">
</g>
<g id="Robocop">
</g>
<g id="ED_209">
</g>
<g id="Optimus_Prime">
</g>
<g id="Robot_1">
</g>
<g id="Robot_2">
</g>
<g id="Robot_3">
</g>
<g id="Robot_Arm_1">
</g>
<g id="Robot_Arm_2">
</g>
<g id="Robot_Arm_3">
</g>
<g id="Robot_Arm_4">
</g>
<g id="Robot_Arm_5">
</g>
<g id="K5_Robot">
</g>
<g id="Robot_Machine_1">
</g>
<g id="Robot_Machine_2">
</g>
<g id="Artifical_Intelligence_1">
</g>
<g id="Artifical_Intelligence_2">
</g>
<g id="Robot_4">
</g>
<g id="Robot_5">
</g>
<g id="Robot_6">
</g>
<g id="Robot_7">
</g>
<g id="Robot_8">
</g>
<g id="Robot_9">
</g>
<g id="Robot_10">
</g>
<g id="Robot_11">
</g>
<g id="Robot_12">
</g>
<g id="Robot_13">
</g>
</svg>
