<?xml version="1.0" encoding="iso-8859-1"?>
<!-- Generator: Adobe Illustrator 19.2.1, SVG Export Plug-In . SVG Version: 6.00 Build 0)  -->
<svg version="1.1" xmlns="http://www.w3.org/2000/svg" xmlns:xlink="http://www.w3.org/1999/xlink" x="0px" y="0px"
	 viewBox="0 0 30 30" style="enable-background:new 0 0 30 30;" xml:space="preserve">
<g id="Retro_Bot_1">
	<g>
		<path d="M28,13.092V2.908c0.581-0.207,1-0.757,1-1.408C29,0.673,28.327,0,27.5,0S26,0.673,26,1.5c0,0.651,0.419,1.201,1,1.408V13
			h-1V8.5C26,7.122,24.878,6,23.5,6h-18C4.122,6,3,7.122,3,8.5V13H2V2.908C2.581,2.701,3,2.151,3,1.5C3,0.673,2.327,0,1.5,0
			S0,0.673,0,1.5c0,0.651,0.419,1.201,1,1.408v10.184c-0.581,0.207-1,0.757-1,1.408v5C0,20.327,0.673,21,1.5,21H3v6.5
			C3,28.878,4.122,30,5.5,30h18c1.378,0,2.5-1.122,2.5-2.5V21h1.5c0.827,0,1.5-0.673,1.5-1.5v-5C29,13.849,28.581,13.299,28,13.092z
			 M14.916,18.223l2,3c0.102,0.153,0.112,0.351,0.025,0.513S16.685,22,16.5,22h-4c-0.185,0-0.354-0.102-0.441-0.264
			s-0.077-0.36,0.025-0.513l2-3C14.27,17.944,14.73,17.944,14.916,18.223z M5,13.5C5,11.019,7.019,9,9.5,9s4.5,2.019,4.5,4.5
			S11.981,18,9.5,18S5,15.981,5,13.5z M23,25.5c0,0.276-0.224,0.5-0.5,0.5h-2h-2h-8h-2h-2C6.224,26,6,25.776,6,25.5v-2
			C6,23.224,6.224,23,6.5,23h2h2h8h2h2c0.276,0,0.5,0.224,0.5,0.5V25.5z M19.5,18c-2.481,0-4.5-2.019-4.5-4.5S17.019,9,19.5,9
			s4.5,2.019,4.5,4.5S21.981,18,19.5,18z"/>
		<rect x="9" y="24" width="1" height="1"/>
		<rect x="7" y="24" width="1" height="1"/>
		<rect x="15" y="24" width="1" height="1"/>
		<rect x="17" y="24" width="1" height="1"/>
		<rect x="11" y="24" width="1" height="1"/>
		<rect x="13" y="24" width="1" height="1"/>
		<path d="M9.5,17c1.93,0,3.5-1.57,3.5-3.5S11.43,10,9.5,10S6,11.57,6,13.5S7.57,17,9.5,17z M9.5,12c0.828,0,1.5,0.672,1.5,1.5
			S10.328,15,9.5,15S8,14.328,8,13.5S8.672,12,9.5,12z"/>
		<path d="M19.5,10c-1.93,0-3.5,1.57-3.5,3.5s1.57,3.5,3.5,3.5s3.5-1.57,3.5-3.5S21.43,10,19.5,10z M19.5,15
			c-0.828,0-1.5-0.672-1.5-1.5s0.672-1.5,1.5-1.5s1.5,0.672,1.5,1.5S20.328,15,19.5,15z"/>
		<rect x="19" y="24" width="1" height="1"/>
		<rect x="21" y="24" width="1" height="1"/>
	</g>
</g>
<g id="Retro_Bot_2">
</g>
<g id="Retro_Bot_3">
</g>
<g id="Retro_Bot_4">
</g>
<g id="Wall-E">
</g>
<g id="Eva">
</g>
<g id="Iron_Giant">
</g>
<g id="Marvin">
</g>
<g id="Atlas">
</g>
<g id="Claptrap">
</g>
<g id="Android">
</g>
<g id="Bender">
</g>
<g id="Roberto">
</g>
<g id="Robot_Devil">
</g>
<g id="Robocop">
</g>
<g id="ED_209">
</g>
<g id="Optimus_Prime">
</g>
<g id="Robot_1">
</g>
<g id="Robot_2">
</g>
<g id="Robot_3">
</g>
<g id="Robot_Arm_1">
</g>
<g id="Robot_Arm_2">
</g>
<g id="Robot_Arm_3">
</g>
<g id="Robot_Arm_4">
</g>
<g id="Robot_Arm_5">
</g>
<g id="K5_Robot">
</g>
<g id="Robot_Machine_1">
</g>
<g id="Robot_Machine_2">
</g>
<g id="Artifical_Intelligence_1">
</g>
<g id="Artifical_Intelligence_2">
</g>
<g id="Robot_4">
</g>
<g id="Robot_5">
</g>
<g id="Robot_6">
</g>
<g id="Robot_7">
</g>
<g id="Robot_8">
</g>
<g id="Robot_9">
</g>
<g id="Robot_10">
</g>
<g id="Robot_11">
</g>
<g id="Robot_12">
</g>
<g id="Robot_13">
</g>
</svg>
