<?xml version="1.0" encoding="iso-8859-1"?>
<!-- Generator: Adobe Illustrator 19.2.1, SVG Export Plug-In . SVG Version: 6.00 Build 0)  -->
<svg version="1.1" xmlns="http://www.w3.org/2000/svg" xmlns:xlink="http://www.w3.org/1999/xlink" x="0px" y="0px"
	 viewBox="0 0 30 30" style="enable-background:new 0 0 30 30;" xml:space="preserve">
<g id="Retro_Bot_1">
</g>
<g id="Retro_Bot_2">
</g>
<g id="Retro_Bot_3">
</g>
<g id="Retro_Bot_4">
</g>
<g id="Wall-E">
</g>
<g id="Eva">
</g>
<g id="Iron_Giant">
</g>
<g id="Marvin">
</g>
<g id="Atlas">
</g>
<g id="Claptrap">
</g>
<g id="Android">
</g>
<g id="Bender">
</g>
<g id="Roberto">
	<g>
		<path d="M24,2c-2.605,0-5.009,1.661-5.862,4h-6.271C11.035,3.661,8.63,2,6,2C2.691,2,0,4.691,0,8s2.691,6,6,6
			c1.819,0,3.533-0.799,4.692-2.068L9.934,18H11v4h-0.5c-0.154,0-0.299,0.071-0.394,0.192c-0.095,0.121-0.128,0.279-0.091,0.429l1,4
			C11.071,26.844,11.271,27,11.5,27h7c0.229,0,0.429-0.156,0.485-0.379l1-4c0.038-0.149,0.004-0.308-0.091-0.429
			C19.799,22.071,19.654,22,19.5,22H19v-4h1.066l-0.757-6.057C20.465,13.206,22.177,14,24,14c3.309,0,6-2.691,6-6S27.309,2,24,2z
			 M6,12c-2.206,0-4-1.794-4-4s1.794-4,4-4s4,1.794,4,4S8.206,12,6,12z M14.5,10h1c0.276,0,0.5,0.224,0.5,0.5S15.776,11,15.5,11h-1
			c-0.276,0-0.5-0.224-0.5-0.5S14.224,10,14.5,10z M12,22v-1h6v1H12z M18,20h-6v-2h6V20z M24,12c-2.206,0-4-1.794-4-4s1.794-4,4-4
			s4,1.794,4,4S26.206,12,24,12z"/>
		<circle cx="24" cy="8" r="1"/>
		<circle cx="6" cy="8" r="1"/>
	</g>
</g>
<g id="Robot_Devil">
</g>
<g id="Robocop">
</g>
<g id="ED_209">
</g>
<g id="Optimus_Prime">
</g>
<g id="Robot_1">
</g>
<g id="Robot_2">
</g>
<g id="Robot_3">
</g>
<g id="Robot_Arm_1">
</g>
<g id="Robot_Arm_2">
</g>
<g id="Robot_Arm_3">
</g>
<g id="Robot_Arm_4">
</g>
<g id="Robot_Arm_5">
</g>
<g id="K5_Robot">
</g>
<g id="Robot_Machine_1">
</g>
<g id="Robot_Machine_2">
</g>
<g id="Artifical_Intelligence_1">
</g>
<g id="Artifical_Intelligence_2">
</g>
<g id="Robot_4">
</g>
<g id="Robot_5">
</g>
<g id="Robot_6">
</g>
<g id="Robot_7">
</g>
<g id="Robot_8">
</g>
<g id="Robot_9">
</g>
<g id="Robot_10">
</g>
<g id="Robot_11">
</g>
<g id="Robot_12">
</g>
<g id="Robot_13">
</g>
</svg>
