<?xml version="1.0" encoding="iso-8859-1"?>
<!-- Generator: Adobe Illustrator 19.2.1, SVG Export Plug-In . SVG Version: 6.00 Build 0)  -->
<svg version="1.1" xmlns="http://www.w3.org/2000/svg" xmlns:xlink="http://www.w3.org/1999/xlink" x="0px" y="0px"
	 viewBox="0 0 30 30" style="enable-background:new 0 0 30 30;" xml:space="preserve">
<g id="Retro_Bot_1">
</g>
<g id="Retro_Bot_2">
</g>
<g id="Retro_Bot_3">
</g>
<g id="Retro_Bot_4">
</g>
<g id="Wall-E">
</g>
<g id="Eva">
</g>
<g id="Iron_Giant">
</g>
<g id="Marvin">
</g>
<g id="Atlas">
</g>
<g id="Claptrap">
</g>
<g id="Android">
</g>
<g id="Bender">
</g>
<g id="Roberto">
	<g id="Roberto_1_">
		<g>
			<path d="M19.5,18.5h-9c-0.144,0-0.28-0.062-0.375-0.169c-0.095-0.107-0.139-0.251-0.121-0.393l1-8
				c0.034-0.273,0.284-0.464,0.558-0.434c0.274,0.034,0.468,0.284,0.434,0.558l-0.93,7.438h7.867l-0.93-7.438
				c-0.034-0.274,0.16-0.524,0.434-0.558c0.274-0.03,0.524,0.161,0.558,0.434l1,8c0.018,0.142-0.026,0.286-0.121,0.393
				C19.78,18.438,19.644,18.5,19.5,18.5z"/>
		</g>
		<g>
			<path d="M18.5,27.5h-7c-0.229,0-0.429-0.156-0.485-0.379l-1-4c-0.038-0.149-0.004-0.308,0.091-0.429
				c0.095-0.122,0.24-0.192,0.394-0.192h9c0.154,0,0.299,0.071,0.394,0.192c0.095,0.121,0.128,0.279,0.091,0.429l-1,4
				C18.929,27.344,18.729,27.5,18.5,27.5z M11.891,26.5h6.219l0.75-3h-7.719L11.891,26.5z"/>
		</g>
		<g>
			<path d="M11.5,23.5c-0.276,0-0.5-0.224-0.5-0.5v-5c0-0.276,0.224-0.5,0.5-0.5S12,17.724,12,18v5C12,23.276,11.776,23.5,11.5,23.5
				z"/>
		</g>
		<g>
			<path d="M18.5,23.5c-0.276,0-0.5-0.224-0.5-0.5v-5c0-0.276,0.224-0.5,0.5-0.5S19,17.724,19,18v5C19,23.276,18.776,23.5,18.5,23.5
				z"/>
		</g>
		<g>
			<path d="M18,21.5h-6.25c-0.276,0-0.5-0.224-0.5-0.5s0.224-0.5,0.5-0.5H18c0.276,0,0.5,0.224,0.5,0.5S18.276,21.5,18,21.5z"/>
		</g>
		<g>
			<path d="M15.5,11.5h-1c-0.276,0-0.5-0.224-0.5-0.5s0.224-0.5,0.5-0.5h1c0.276,0,0.5,0.224,0.5,0.5S15.776,11.5,15.5,11.5z"/>
		</g>
		<g>
			<circle cx="24" cy="8.5" r="1"/>
		</g>
		<g>
			<circle cx="6" cy="8.5" r="1"/>
		</g>
		<g>
			<path d="M24,14.5c-2.772,0-5.289-1.837-5.982-4.368c-0.073-0.267,0.084-0.542,0.35-0.615c0.266-0.072,0.542,0.083,0.615,0.35
				C19.559,11.973,21.669,13.5,24,13.5c2.757,0,5-2.243,5-5s-2.243-5-5-5c-2.264,0-4.422,1.564-5.02,3.638
				c-0.076,0.266-0.351,0.419-0.619,0.342c-0.266-0.077-0.419-0.354-0.342-0.619C18.748,4.334,21.263,2.5,24,2.5
				c3.309,0,6,2.691,6,6S27.309,14.5,24,14.5z"/>
		</g>
		<g>
			<path d="M6,14.5c-3.309,0-6-2.691-6-6s2.691-6,6-6c2.766,0,5.282,1.836,5.982,4.367c0.074,0.266-0.083,0.542-0.349,0.615
				C11.37,7.555,11.092,7.4,11.018,7.133C10.436,5.028,8.325,3.5,6,3.5c-2.757,0-5,2.243-5,5s2.243,5,5,5
				c2.319,0,4.429-1.529,5.019-3.635c0.075-0.266,0.354-0.42,0.616-0.347c0.266,0.074,0.421,0.35,0.347,0.616
				C11.274,12.664,8.758,14.5,6,14.5z"/>
		</g>
		<g>
			<path d="M6,12.5c-2.206,0-4-1.794-4-4s1.794-4,4-4s4,1.794,4,4S8.206,12.5,6,12.5z M6,5.5c-1.654,0-3,1.346-3,3s1.346,3,3,3
				s3-1.346,3-3S7.654,5.5,6,5.5z"/>
		</g>
		<g>
			<path d="M24,12.5c-2.206,0-4-1.794-4-4s1.794-4,4-4s4,1.794,4,4S26.206,12.5,24,12.5z M24,5.5c-1.654,0-3,1.346-3,3s1.346,3,3,3
				s3-1.346,3-3S25.654,5.5,24,5.5z"/>
		</g>
		<g>
			<path d="M18.5,7.5h-7C11.224,7.5,11,7.276,11,7s0.224-0.5,0.5-0.5h7C18.776,6.5,19,6.724,19,7S18.776,7.5,18.5,7.5z"/>
		</g>
	</g>
</g>
<g id="Robot_Devil">
</g>
<g id="Robocop">
</g>
<g id="ED_209">
</g>
<g id="Optimus_Prime">
</g>
<g id="Robot_1">
</g>
<g id="Robot_2">
</g>
<g id="Robot_3">
</g>
<g id="Robot_Arm_1">
</g>
<g id="Robot_Arm_2">
</g>
<g id="Robot_Arm_3">
</g>
<g id="Robot_Arm_4">
</g>
<g id="Robot_Arm_5">
</g>
<g id="K5_Robot">
</g>
<g id="Robot_Machine_1">
</g>
<g id="Robot_Machine_2">
</g>
<g id="Artifical_Intelligence_1">
</g>
<g id="Artifical_Intelligence_2">
</g>
<g id="Robot_4">
</g>
<g id="Robot_5">
</g>
<g id="Robot_6">
</g>
<g id="Robot_7">
</g>
<g id="Robot_8">
</g>
<g id="Robot_9">
</g>
<g id="Robot_10">
</g>
<g id="Robot_11">
</g>
<g id="Robot_12">
</g>
<g id="Robot_13">
</g>
</svg>
