<?xml version="1.0" encoding="iso-8859-1"?>
<!-- Generator: Adobe Illustrator 19.2.1, SVG Export Plug-In . SVG Version: 6.00 Build 0)  -->
<svg version="1.1" xmlns="http://www.w3.org/2000/svg" xmlns:xlink="http://www.w3.org/1999/xlink" x="0px" y="0px"
	 viewBox="0 0 30 30" style="enable-background:new 0 0 30 30;" xml:space="preserve">
<g id="Retro_Bot_1">
</g>
<g id="Retro_Bot_2">
</g>
<g id="Retro_Bot_3">
</g>
<g id="Retro_Bot_4">
</g>
<g id="Wall-E">
</g>
<g id="Eva">
</g>
<g id="Iron_Giant">
</g>
<g id="Marvin">
</g>
<g id="Atlas">
</g>
<g id="Claptrap">
</g>
<g id="Android">
</g>
<g id="Bender">
</g>
<g id="Roberto">
</g>
<g id="Robot_Devil">
</g>
<g id="Robocop">
</g>
<g id="ED_209">
</g>
<g id="Optimus_Prime">
</g>
<g id="Robot_1">
</g>
<g id="Robot_2">
</g>
<g id="Robot_3">
</g>
<g id="Robot_Arm_1">
</g>
<g id="Robot_Arm_2">
</g>
<g id="Robot_Arm_3">
</g>
<g id="Robot_Arm_4">
</g>
<g id="Robot_Arm_5">
</g>
<g id="K5_Robot">
</g>
<g id="Robot_Machine_1">
</g>
<g id="Robot_Machine_2">
</g>
<g id="Artifical_Intelligence_1">
</g>
<g id="Artifical_Intelligence_2">
</g>
<g id="Robot_4">
	<g>
		<path d="M24.25,5c0.276,0,0.5-0.224,0.5-0.5v-2c0-1.378-1.122-2.5-2.5-2.5h-8c-0.276,0-0.5,0.224-0.5,0.5v14
			c0,2.481,2.019,4.5,4.5,4.5h6c0.276,0,0.5-0.224,0.5-0.5V17h-4.5c-0.276,0-0.5-0.224-0.5-0.5s0.224-0.5,0.5-0.5h4.5v-1h-4.5
			c-0.276,0-0.5-0.224-0.5-0.5s0.224-0.5,0.5-0.5h4.5v-1h-4.5c-0.276,0-0.5-0.224-0.5-0.5s0.224-0.5,0.5-0.5h4.5v-1.5
			c0-0.276-0.224-0.5-0.5-0.5h-0.5V5H24.25z M22.75,10h-2V5h2V10z"/>
		<circle cx="5.25" cy="15.5" r="2"/>
		<path d="M18.25,26c0.152,0,0.301-0.069,0.399-0.198c0.159-0.21,0.127-0.506-0.071-0.679L8.19,16.09
			c-0.203,1.016-0.924,1.841-1.873,2.205l11.66,7.624C18.061,25.974,18.156,26,18.25,26z"/>
		<path d="M8.198,14.982l4.552-3.642V3.606l-7,8.945C6.997,12.762,7.979,13.738,8.198,14.982z"/>
		<path d="M18.25,21c-0.803,0-1.547,0.229-2.2,0.599l3.185,2.769c0.592,0.517,0.686,1.411,0.212,2.037
			C19.164,26.778,18.716,27,18.25,27c-0.293,0-0.577-0.085-0.822-0.246l-3.538-2.314c-0.083,0.341-0.139,0.693-0.139,1.059
			c0,2.481,2.019,4.5,4.5,4.5s4.5-2.019,4.5-4.5S20.731,21,18.25,21z"/>
	</g>
</g>
<g id="Robot_5">
</g>
<g id="Robot_6">
</g>
<g id="Robot_7">
</g>
<g id="Robot_8">
</g>
<g id="Robot_9">
</g>
<g id="Robot_10">
</g>
<g id="Robot_11">
</g>
<g id="Robot_12">
</g>
<g id="Robot_13">
</g>
</svg>
