<?xml version="1.0" encoding="iso-8859-1"?>
<!-- Generator: Adobe Illustrator 19.2.1, SVG Export Plug-In . SVG Version: 6.00 Build 0)  -->
<svg version="1.1" xmlns="http://www.w3.org/2000/svg" xmlns:xlink="http://www.w3.org/1999/xlink" x="0px" y="0px"
	 viewBox="0 0 24 24" style="enable-background:new 0 0 24 24;" xml:space="preserve">
<g id="Retro_Bot_1">
</g>
<g id="Retro_Bot_2">
</g>
<g id="Retro_Bot_3">
</g>
<g id="Retro_Bot_4">
</g>
<g id="Wall-E">
</g>
<g id="Eva">
</g>
<g id="Iron_Giant">
</g>
<g id="Marvin">
</g>
<g id="Atlas">
</g>
<g id="Claptrap">
</g>
<g id="Android">
</g>
<g id="Bender">
</g>
<g id="Roberto">
</g>
<g id="Robot_Devil">
</g>
<g id="Robocop">
</g>
<g id="ED_209">
</g>
<g id="Optimus_Prime">
</g>
<g id="Robot_1">
	<g>
		<circle cx="11.5" cy="3" r="0.5"/>
		<path d="M15,3.5C15,1.57,13.43,0,11.5,0S8,1.57,8,3.5V6h7V3.5z M11.5,4.5C10.673,4.5,10,3.827,10,3s0.673-1.5,1.5-1.5
			S13,2.173,13,3S12.327,4.5,11.5,4.5z"/>
		<path d="M10.5,11h2h3H16V9.5v-2V7h-1.5h-6H7v0.5v2V11h0.5H10.5z M14,8.5C14,8.224,14.224,8,14.5,8S15,8.224,15,8.5v1
			c0,0.276-0.224,0.5-0.5,0.5S14,9.776,14,9.5V8.5z M12,8.5C12,8.224,12.224,8,12.5,8S13,8.224,13,8.5v1c0,0.276-0.224,0.5-0.5,0.5
			S12,9.776,12,9.5V8.5z M10,8.5C10,8.224,10.224,8,10.5,8S11,8.224,11,8.5v1c0,0.276-0.224,0.5-0.5,0.5S10,9.776,10,9.5V8.5z
			 M8,8.5C8,8.224,8.224,8,8.5,8S9,8.224,9,8.5v1C9,9.776,8.776,10,8.5,10S8,9.776,8,9.5V8.5z"/>
		<rect x="7" y="16" width="4" height="1"/>
		<rect x="7" y="12" width="4" height="3"/>
		<rect x="12" y="16" width="4" height="1"/>
		<rect x="12" y="12" width="4" height="3"/>
		<path d="M20.5,12h-2c-0.827,0-1.5,0.673-1.5,1.5v1v1c0,0.276,0.224,0.5,0.5,0.5s0.5-0.224,0.5-0.5V15h1v0.5
			c0,0.276,0.224,0.5,0.5,0.5s0.5-0.224,0.5-0.5V15h1v0.5c0,0.276,0.224,0.5,0.5,0.5s0.5-0.224,0.5-0.5v-1v-1
			C22,12.673,21.327,12,20.5,12z"/>
		<path d="M4.5,12h-2C1.673,12,1,12.673,1,13.5v1v1C1,15.776,1.224,16,1.5,16S2,15.776,2,15.5V15h1v0.5C3,15.776,3.224,16,3.5,16
			S4,15.776,4,15.5V15h1v0.5C5,15.776,5.224,16,5.5,16S6,15.776,6,15.5v-1v-1C6,12.673,5.327,12,4.5,12z"/>
		<path d="M2,10.5v0.551C2.162,11.018,2.329,11,2.5,11h2c0.171,0,0.338,0.018,0.5,0.051V10.5C5,10.224,5.225,10,5.5,10H6V7H5.5
			C3.57,7,2,8.57,2,10.5z"/>
		<path d="M18,10.5v0.551C18.162,11.018,18.329,11,18.5,11h2c0.171,0,0.338,0.018,0.5,0.051V10.5C21,8.57,19.43,7,17.5,7H17v3h0.5
			C17.775,10,18,10.224,18,10.5z"/>
		<path d="M9.5,20.5c0.538,0,1.05,0.147,1.5,0.412V18H7v2.917C7.443,20.659,7.951,20.5,8.5,20.5H9.5z"/>
		<path d="M12,20.912c0.45-0.264,0.962-0.412,1.5-0.412h1c0.549,0,1.057,0.159,1.5,0.417V18h-4V20.912z"/>
		<path d="M14.5,21.5h-1c-0.631,0-1.214,0.296-1.599,0.814L11.5,22.852l-0.401-0.538C10.714,21.796,10.131,21.5,9.5,21.5h-1
			c-1.103,0-2,0.897-2,2h10C16.5,22.397,15.603,21.5,14.5,21.5z"/>
	</g>
</g>
<g id="Robot_2">
</g>
<g id="Robot_3">
</g>
<g id="Robot_Arm_1">
</g>
<g id="Robot_Arm_2">
</g>
<g id="Robot_Arm_3">
</g>
<g id="Robot_Arm_4">
</g>
<g id="Robot_Arm_5">
</g>
<g id="K5_Robot">
</g>
<g id="Robot_Machine_1">
</g>
<g id="Robot_Machine_2">
</g>
<g id="Artifical_Intelligence_1">
</g>
<g id="Artifical_Intelligence_2">
</g>
<g id="Robot_4">
</g>
<g id="Robot_5">
</g>
<g id="Robot_6">
</g>
<g id="Robot_7">
</g>
<g id="Robot_8">
</g>
<g id="Robot_9">
</g>
<g id="Robot_10">
</g>
<g id="Robot_11">
</g>
<g id="Robot_12">
</g>
<g id="Robot_13">
</g>
</svg>
