<?xml version="1.0" encoding="iso-8859-1"?>
<!-- Generator: Adobe Illustrator 19.2.1, SVG Export Plug-In . SVG Version: 6.00 Build 0)  -->
<svg version="1.1" xmlns="http://www.w3.org/2000/svg" xmlns:xlink="http://www.w3.org/1999/xlink" x="0px" y="0px"
	 viewBox="0 0 30 30" style="enable-background:new 0 0 30 30;" xml:space="preserve">
<g id="Retro_Bot_1">
</g>
<g id="Retro_Bot_2">
</g>
<g id="Retro_Bot_3">
</g>
<g id="Retro_Bot_4">
</g>
<g id="Wall-E">
</g>
<g id="Eva">
</g>
<g id="Iron_Giant">
</g>
<g id="Marvin">
</g>
<g id="Atlas">
</g>
<g id="Claptrap">
</g>
<g id="Android">
</g>
<g id="Bender">
</g>
<g id="Roberto">
</g>
<g id="Robot_Devil">
</g>
<g id="Robocop">
</g>
<g id="ED_209">
</g>
<g id="Optimus_Prime">
</g>
<g id="Robot_1">
</g>
<g id="Robot_2">
</g>
<g id="Robot_3">
</g>
<g id="Robot_Arm_1">
</g>
<g id="Robot_Arm_2">
</g>
<g id="Robot_Arm_3">
</g>
<g id="Robot_Arm_4">
</g>
<g id="Robot_Arm_5">
</g>
<g id="K5_Robot">
</g>
<g id="Robot_Machine_1">
</g>
<g id="Robot_Machine_2">
	<path d="M27.007,26.438L28.998,1.54c0.016-0.191-0.079-0.374-0.245-0.471c-0.165-0.097-0.371-0.092-0.53,0.015l-6,4
		c-0.093,0.062-0.162,0.152-0.197,0.258L21.139,8H19V4.5C19,2.019,16.981,0,14.5,0S10,2.019,10,4.5V8H7.86L6.974,5.342
		C6.939,5.236,6.87,5.146,6.777,5.084l-6-4C0.616,0.977,0.41,0.972,0.247,1.069C0.081,1.166-0.014,1.349,0.002,1.54l1.991,24.898
		l-0.968,2.903c-0.087,0.262,0.055,0.545,0.316,0.632C1.394,29.992,1.447,30,1.5,30c0.209,0,0.404-0.132,0.475-0.342L2.5,28.082
		l0.525,1.576C3.095,29.868,3.291,30,3.5,30c0.053,0,0.105-0.008,0.158-0.026c0.262-0.087,0.403-0.37,0.316-0.632l-0.982-2.945
		L1.081,2.488L6.08,5.821L6.806,8H5.5C5.223,8,5,8.224,5,8.5v7C5,15.776,5.223,16,5.5,16h1.359l-0.845,3.379
		c-0.042,0.17,0.008,0.351,0.132,0.475l1,1c0.001,0.001,0.003,0.002,0.004,0.003C7.057,21.052,7,21.269,7,21.5
		C7,22.327,7.673,23,8.5,23s1.5-0.673,1.5-1.5S9.327,20,8.5,20c-0.231,0-0.448,0.057-0.644,0.151
		c-0.001-0.001-0.002-0.003-0.003-0.004l-0.8-0.8L7.89,16h13.219l0.837,3.347l-0.8,0.8c-0.001,0.001-0.002,0.003-0.003,0.004
		C20.948,20.057,20.731,20,20.5,20c-0.827,0-1.5,0.673-1.5,1.5s0.673,1.5,1.5,1.5s1.5-0.673,1.5-1.5
		c0-0.231-0.057-0.448-0.151-0.644c0.001-0.001,0.003-0.002,0.004-0.003l1-1c0.124-0.124,0.174-0.304,0.132-0.475L22.14,16H23.5
		c0.276,0,0.5-0.224,0.5-0.5v-7C24,8.224,23.776,8,23.5,8h-1.306l0.726-2.179l4.999-3.333l-1.912,23.909l-0.982,2.945
		c-0.087,0.262,0.055,0.545,0.316,0.632C25.394,29.992,25.447,30,25.5,30c0.209,0,0.404-0.132,0.475-0.342l0.525-1.576l0.525,1.576
		C27.095,29.868,27.291,30,27.5,30c0.053,0,0.105-0.008,0.158-0.026c0.262-0.087,0.403-0.37,0.316-0.632L27.007,26.438z M14.5,2
		C14.776,2,15,2.224,15,2.5S14.776,3,14.5,3C14.093,3,13,4.093,13,4.5C13,4.776,12.776,5,12.5,5S12,4.776,12,4.5
		C12,3.542,13.542,2,14.5,2z M9,12.5C9,12.776,8.776,13,8.5,13S8,12.776,8,12.5v-1C8,11.224,8.223,11,8.5,11S9,11.224,9,11.5V12.5z
		 M11,12.5c0,0.276-0.224,0.5-0.5,0.5S10,12.776,10,12.5v-1c0-0.276,0.224-0.5,0.5-0.5s0.5,0.224,0.5,0.5V12.5z M12.5,13
		c-0.276,0-0.5-0.224-0.5-0.5c0-0.276,0.224-0.5,0.5-0.5s0.5,0.224,0.5,0.5C13,12.776,12.776,13,12.5,13z M14.5,13
		c-0.276,0-0.5-0.224-0.5-0.5c0-0.276,0.224-0.5,0.5-0.5s0.5,0.224,0.5,0.5C15,12.776,14.776,13,14.5,13z M16.5,13
		c-0.276,0-0.5-0.224-0.5-0.5c0-0.276,0.224-0.5,0.5-0.5s0.5,0.224,0.5,0.5C17,12.776,16.776,13,16.5,13z M18.5,13
		c-0.276,0-0.5-0.224-0.5-0.5c0-0.276,0.224-0.5,0.5-0.5s0.5,0.224,0.5,0.5C19,12.776,18.776,13,18.5,13z M20.5,13
		c-0.276,0-0.5-0.224-0.5-0.5c0-0.276,0.224-0.5,0.5-0.5s0.5,0.224,0.5,0.5C21,12.776,20.776,13,20.5,13z"/>
</g>
<g id="Artifical_Intelligence_1">
</g>
<g id="Artifical_Intelligence_2">
</g>
<g id="Robot_4">
</g>
<g id="Robot_5">
</g>
<g id="Robot_6">
</g>
<g id="Robot_7">
</g>
<g id="Robot_8">
</g>
<g id="Robot_9">
</g>
<g id="Robot_10">
</g>
<g id="Robot_11">
</g>
<g id="Robot_12">
</g>
<g id="Robot_13">
</g>
</svg>
