<?xml version="1.0" encoding="iso-8859-1"?>
<!-- Generator: Adobe Illustrator 19.2.1, SVG Export Plug-In . SVG Version: 6.00 Build 0)  -->
<svg version="1.1" xmlns="http://www.w3.org/2000/svg" xmlns:xlink="http://www.w3.org/1999/xlink" x="0px" y="0px"
	 viewBox="0 0 24 24" style="enable-background:new 0 0 24 24;" xml:space="preserve">
<g id="Retro_Bot_1">
</g>
<g id="Retro_Bot_2">
</g>
<g id="Retro_Bot_3">
</g>
<g id="Retro_Bot_4">
</g>
<g id="Wall-E">
</g>
<g id="Eva">
</g>
<g id="Iron_Giant">
</g>
<g id="Marvin">
</g>
<g id="Atlas">
</g>
<g id="Claptrap">
</g>
<g id="Android">
</g>
<g id="Bender">
</g>
<g id="Roberto">
</g>
<g id="Robot_Devil">
</g>
<g id="Robocop">
</g>
<g id="ED_209">
</g>
<g id="Optimus_Prime">
</g>
<g id="Robot_1">
</g>
<g id="Robot_2">
</g>
<g id="Robot_3">
</g>
<g id="Robot_Arm_1">
</g>
<g id="Robot_Arm_2">
</g>
<g id="Robot_Arm_3">
</g>
<g id="Robot_Arm_4">
</g>
<g id="Robot_Arm_5">
</g>
<g id="K5_Robot">
</g>
<g id="Robot_Machine_1">
</g>
<g id="Robot_Machine_2">
</g>
<g id="Artifical_Intelligence_1">
</g>
<g id="Artifical_Intelligence_2">
</g>
<g id="Robot_4">
</g>
<g id="Robot_5">
</g>
<g id="Robot_6">
</g>
<g id="Robot_7">
</g>
<g id="Robot_8">
</g>
<g id="Robot_9">
	<g>
		<path d="M23.899,17.199C22.862,15.822,21.218,15,19.5,15H19v-3.5C19,9.019,16.981,7,14.5,7C14.776,7,15,6.776,15,6.5
			S14.776,6,14.5,6C15.327,6,16,5.327,16,4.5v-3C16,0.673,15.327,0,14.5,0h-5C8.673,0,8,0.673,8,1.5v3C8,5.327,8.673,6,9.5,6
			C9.224,6,9,6.224,9,6.5S9.224,7,9.5,7C7.018,7,5,9.019,5,11.5V15H4.5c-1.75,0-3.354,0.802-4.4,2.2
			c-0.165,0.221-0.12,0.535,0.101,0.7C0.29,17.968,0.395,18,0.5,18c0.151,0,0.302-0.069,0.4-0.2C1.757,16.656,3.068,16,4.5,16h1h13
			h1c1.405,0,2.752,0.673,3.601,1.801c0.167,0.221,0.481,0.264,0.7,0.099C24.021,17.733,24.065,17.42,23.899,17.199z M10.5,2
			C10.776,2,11,2.224,11,2.5C11,2.224,11.224,2,11.5,2S12,2.224,12,2.5C12,2.224,12.224,2,12.5,2S13,2.224,13,2.5
			C13,2.224,13.224,2,13.5,2S14,2.224,14,2.5C14,2.776,13.776,3,13.5,3S13,2.776,13,2.5C13,2.776,12.776,3,12.5,3S12,2.776,12,2.5
			C12,2.776,11.776,3,11.5,3S11,2.776,11,2.5C11,2.776,10.776,3,10.5,3S10,2.776,10,2.5C10,2.224,10.224,2,10.5,2z M8,11.5v-2
			C8,9.224,8.224,9,8.5,9h2h3h2C15.776,9,16,9.224,16,9.5v2v2c0,0.276-0.224,0.5-0.5,0.5h-2h-3h-2C8.224,14,8,13.776,8,13.5V11.5z"
			/>
		<circle cx="14.5" cy="20.5" r="0.5"/>
		<circle cx="4.5" cy="20.5" r="0.5"/>
		<circle cx="9.5" cy="20.5" r="0.5"/>
		<circle cx="19.5" cy="20.5" r="0.5"/>
		<path d="M19.5,17h-15C2.57,17,1,18.57,1,20.5S2.57,24,4.5,24h15c1.93,0,3.5-1.57,3.5-3.5S21.43,17,19.5,17z M4.5,22
			C3.673,22,3,21.327,3,20.5S3.673,19,4.5,19S6,19.673,6,20.5S5.327,22,4.5,22z M9.5,22C8.673,22,8,21.327,8,20.5S8.673,19,9.5,19
			s1.5,0.673,1.5,1.5S10.327,22,9.5,22z M14.5,22c-0.827,0-1.5-0.673-1.5-1.5s0.673-1.5,1.5-1.5s1.5,0.673,1.5,1.5
			S15.327,22,14.5,22z M19.5,22c-0.827,0-1.5-0.673-1.5-1.5s0.673-1.5,1.5-1.5s1.5,0.673,1.5,1.5S20.327,22,19.5,22z"/>
		<polygon points="13,11.5 13,10 11,10 11,11.5 11,13 13,13 		"/>
		<rect x="9" y="12" width="1" height="1"/>
		<rect x="9" y="10" width="1" height="1"/>
		<rect x="14" y="10" width="1" height="1"/>
		<rect x="14" y="12" width="1" height="1"/>
	</g>
</g>
<g id="Robot_10">
</g>
<g id="Robot_11">
</g>
<g id="Robot_12">
</g>
<g id="Robot_13">
</g>
</svg>
