<?xml version="1.0" encoding="iso-8859-1"?>
<!-- Generator: Adobe Illustrator 19.2.1, SVG Export Plug-In . SVG Version: 6.00 Build 0)  -->
<svg version="1.1" xmlns="http://www.w3.org/2000/svg" xmlns:xlink="http://www.w3.org/1999/xlink" x="0px" y="0px"
	 viewBox="0 0 30 30" style="enable-background:new 0 0 30 30;" xml:space="preserve">
<g id="Retro_Bot_1">
</g>
<g id="Retro_Bot_2">
</g>
<g id="Retro_Bot_3">
</g>
<g id="Retro_Bot_4">
</g>
<g id="Wall-E">
</g>
<g id="Eva">
</g>
<g id="Iron_Giant">
</g>
<g id="Marvin">
</g>
<g id="Atlas">
</g>
<g id="Claptrap">
</g>
<g id="Android">
</g>
<g id="Bender">
</g>
<g id="Roberto">
</g>
<g id="Robot_Devil">
</g>
<g id="Robocop">
	<g>
		<path d="M14.999,21.922c-0.409-0.189-1.188-0.383-2.221,0.13c-0.247,0.123-0.348,0.423-0.225,0.67
			C12.641,22.898,12.817,23,13.001,23c0.075,0,0.151-0.017,0.223-0.052c0.923-0.459,1.442-0.075,1.455-0.065
			c0.183,0.153,0.453,0.149,0.638,0.005c0.021-0.017,0.545-0.412,1.456,0.057c0.245,0.126,0.546,0.029,0.673-0.216
			c0.127-0.246,0.03-0.547-0.216-0.674C16.196,21.524,15.411,21.727,14.999,21.922z"/>
		<path d="M12.097,17.207c-0.215,0.295-2.096,2.928-2.096,4.293c0,0.276,0.224,0.5,0.5,0.5s0.5-0.224,0.5-0.5
			c0-0.786,1.168-2.69,1.904-3.707c0.162-0.224,0.112-0.536-0.11-0.698C12.572,16.934,12.26,16.982,12.097,17.207z"/>
		<path d="M19.501,22c0.276,0,0.5-0.224,0.5-0.5c0-1.366-1.881-3.998-2.096-4.293c-0.162-0.224-0.476-0.272-0.698-0.111
			c-0.224,0.162-0.272,0.475-0.11,0.698c0.736,1.016,1.904,2.919,1.904,3.707C19.001,21.776,19.225,22,19.501,22z"/>
		<path d="M3.874,11c0.01,0.519,0.044,1.04,0.13,1.559L4.527,17h20.947l0.521-4.43c0.087-0.524,0.12-1.048,0.13-1.57H3.874z
			 M20.001,16h-10c-1.103,0-2-0.897-2-2s0.897-2,2-2h10c1.103,0,2,0.897,2,2S21.103,16,20.001,16z"/>
		<path d="M23.58,3.821C21.523,1.393,18.517,0,15.335,0h-0.669c-3.183,0-6.188,1.393-8.244,3.821C4.928,5.584,4.064,7.753,3.897,10
			h22.205C25.935,7.747,25.072,5.582,23.58,3.821z"/>
		<path d="M19.501,27c-1.02,0-1.729-0.27-2.414-0.531C16.452,26.228,15.852,26,15.001,26c-0.486,0-1.023,0.185-1.645,0.399
			C12.54,26.681,11.614,27,10.501,27c-2.376,0-3.215-6.385-3.458-9H4.645l0.944,8.026C5.855,28.292,7.776,30,10.058,30h9.886
			c2.282,0,4.203-1.708,4.469-3.974L25.357,18h-2.4C22.705,20.614,21.847,27,19.501,27z"/>
	</g>
</g>
<g id="ED_209">
</g>
<g id="Optimus_Prime">
</g>
<g id="Robot_1">
</g>
<g id="Robot_2">
</g>
<g id="Robot_3">
</g>
<g id="Robot_Arm_1">
</g>
<g id="Robot_Arm_2">
</g>
<g id="Robot_Arm_3">
</g>
<g id="Robot_Arm_4">
</g>
<g id="Robot_Arm_5">
</g>
<g id="K5_Robot">
</g>
<g id="Robot_Machine_1">
</g>
<g id="Robot_Machine_2">
</g>
<g id="Artifical_Intelligence_1">
</g>
<g id="Artifical_Intelligence_2">
</g>
<g id="Robot_4">
</g>
<g id="Robot_5">
</g>
<g id="Robot_6">
</g>
<g id="Robot_7">
</g>
<g id="Robot_8">
</g>
<g id="Robot_9">
</g>
<g id="Robot_10">
</g>
<g id="Robot_11">
</g>
<g id="Robot_12">
</g>
<g id="Robot_13">
</g>
</svg>
