<?xml version="1.0" encoding="iso-8859-1"?>
<!-- Generator: Adobe Illustrator 19.2.1, SVG Export Plug-In . SVG Version: 6.00 Build 0)  -->
<svg version="1.1" xmlns="http://www.w3.org/2000/svg" xmlns:xlink="http://www.w3.org/1999/xlink" x="0px" y="0px"
	 viewBox="0 0 24 24" style="enable-background:new 0 0 24 24;" xml:space="preserve">
<g id="Retro_Bot_1">
</g>
<g id="Retro_Bot_2">
</g>
<g id="Retro_Bot_3">
</g>
<g id="Retro_Bot_4">
</g>
<g id="Wall-E">
</g>
<g id="Eva">
</g>
<g id="Iron_Giant">
</g>
<g id="Marvin">
</g>
<g id="Atlas">
</g>
<g id="Claptrap">
</g>
<g id="Android">
</g>
<g id="Bender">
</g>
<g id="Roberto">
</g>
<g id="Robot_Devil">
</g>
<g id="Robocop">
</g>
<g id="ED_209">
</g>
<g id="Optimus_Prime">
</g>
<g id="Robot_1">
</g>
<g id="Robot_2">
</g>
<g id="Robot_3">
</g>
<g id="Robot_Arm_1">
</g>
<g id="Robot_Arm_2">
</g>
<g id="Robot_Arm_3">
	<g>
		<path d="M21.5,0h-6h-7h-6C1.122,0,0,1.122,0,2.5S1.122,5,2.5,5H8v0.5C8,5.776,8.224,6,8.5,6h7C15.776,6,16,5.776,16,5.5V5h5.5
			C22.878,5,24,3.878,24,2.5S22.878,0,21.5,0z M8.5,3h-6C2.224,3,2,2.776,2,2.5S2.224,2,2.5,2h6C8.776,2,9,2.224,9,2.5
			S8.776,3,8.5,3z M21.5,3h-6C15.224,3,15,2.776,15,2.5S15.224,2,15.5,2h6C21.776,2,22,2.224,22,2.5S21.776,3,21.5,3z"/>
		<path d="M13.973,17.266C13.985,17.178,14,17.091,14,17v-0.5c0-0.276-0.224-0.5-0.5-0.5h-3c-0.276,0-0.5,0.224-0.5,0.5V17
			c0,0.091,0.015,0.178,0.027,0.266l-1.88,1.88c-0.152,0.152-0.19,0.385-0.094,0.577l2,4c0.103,0.208,0.338,0.314,0.562,0.263
			C10.84,23.934,11,23.732,11,23.5V21h2v2.5c0,0.232,0.16,0.434,0.385,0.487C13.423,23.996,13.462,24,13.5,24
			c0.186,0,0.361-0.104,0.447-0.276l2-4c0.096-0.192,0.059-0.425-0.094-0.577L13.973,17.266z M14,21.382V20.5
			c0-0.276-0.224-0.5-0.5-0.5h-3c-0.276,0-0.5,0.224-0.5,0.5v0.882l-0.892-1.783l1.346-1.346C10.821,18.705,11.374,19,12,19
			s1.179-0.295,1.546-0.747l1.346,1.346L14,21.382z"/>
		<path d="M9.753,12.306l0.392,2.741C10.259,15.019,10.377,15,10.5,15h3c0.123,0,0.241,0.019,0.356,0.047l0.392-2.742
			C13.606,12.743,12.833,13,12,13C11.167,13,10.394,12.743,9.753,12.306z"/>
		<path d="M15,7H9v2c0,1.654,1.346,3,3,3s3-1.346,3-3V7z"/>
	</g>
</g>
<g id="Robot_Arm_4">
</g>
<g id="Robot_Arm_5">
</g>
<g id="K5_Robot">
</g>
<g id="Robot_Machine_1">
</g>
<g id="Robot_Machine_2">
</g>
<g id="Artifical_Intelligence_1">
</g>
<g id="Artifical_Intelligence_2">
</g>
<g id="Robot_4">
</g>
<g id="Robot_5">
</g>
<g id="Robot_6">
</g>
<g id="Robot_7">
</g>
<g id="Robot_8">
</g>
<g id="Robot_9">
</g>
<g id="Robot_10">
</g>
<g id="Robot_11">
</g>
<g id="Robot_12">
</g>
<g id="Robot_13">
</g>
</svg>
