<?xml version="1.0" encoding="iso-8859-1"?>
<!-- Generator: Adobe Illustrator 19.2.1, SVG Export Plug-In . SVG Version: 6.00 Build 0)  -->
<svg version="1.1" xmlns="http://www.w3.org/2000/svg" xmlns:xlink="http://www.w3.org/1999/xlink" x="0px" y="0px"
	 viewBox="0 0 30 30" style="enable-background:new 0 0 30 30;" xml:space="preserve">
<g id="Retro_Bot_1">
</g>
<g id="Retro_Bot_2">
</g>
<g id="Retro_Bot_3">
</g>
<g id="Retro_Bot_4">
</g>
<g id="Wall-E">
</g>
<g id="Eva">
</g>
<g id="Iron_Giant">
</g>
<g id="Marvin">
</g>
<g id="Atlas">
</g>
<g id="Claptrap">
</g>
<g id="Android">
</g>
<g id="Bender">
</g>
<g id="Roberto">
</g>
<g id="Robot_Devil">
</g>
<g id="Robocop">
</g>
<g id="ED_209">
</g>
<g id="Optimus_Prime">
</g>
<g id="Robot_1">
</g>
<g id="Robot_2">
	<g id="Flying_Robot_1">
		<g>
			<path d="M20.5,23h-12c-0.251,0-0.463-0.186-0.496-0.434l-2-15C5.985,7.423,6.029,7.279,6.124,7.17C6.219,7.062,6.355,7,6.5,7h16
				c0.145,0,0.281,0.062,0.376,0.17c0.095,0.109,0.139,0.253,0.12,0.396l-2,15C20.963,22.814,20.751,23,20.5,23z M8.938,22h11.125
				l1.866-14H7.071L8.938,22z"/>
		</g>
		<g>
			<path d="M15.5,30h-2c-1.93,0-3.5-1.57-3.5-3.5v-2c0-0.276,0.224-0.5,0.5-0.5h8c0.276,0,0.5,0.224,0.5,0.5v2
				C19,28.43,17.43,30,15.5,30z M11,25v1.5c0,1.378,1.121,2.5,2.5,2.5h2c1.379,0,2.5-1.122,2.5-2.5V25H11z"/>
		</g>
		<g>
			<path d="M18.5,25h-8C9.673,25,9,24.327,9,23.5v-1C9,22.224,9.224,22,9.5,22h10c0.276,0,0.5,0.224,0.5,0.5v1
				C20,24.327,19.327,25,18.5,25z M10,23v0.5c0,0.276,0.225,0.5,0.5,0.5h8c0.275,0,0.5-0.224,0.5-0.5V23H10z"/>
		</g>
		<g>
			<path d="M13.5,27c-0.276,0-0.5-0.224-0.5-0.5v-2c0-0.276,0.224-0.5,0.5-0.5s0.5,0.224,0.5,0.5v2C14,26.776,13.776,27,13.5,27z"/>
		</g>
		<g>
			<path d="M15.5,27c-0.276,0-0.5-0.224-0.5-0.5v-2c0-0.276,0.224-0.5,0.5-0.5s0.5,0.224,0.5,0.5v2C16,26.776,15.776,27,15.5,27z"/>
		</g>
		<g>
			<path d="M18.5,8h-8C10.224,8,10,7.776,10,7.5V3c0-1.387,1.092-3,2.5-3h4C17.908,0,19,1.613,19,3v4.5C19,7.776,18.776,8,18.5,8z
				 M11,7h7V3c0-0.873-0.728-2-1.5-2h-4C11.728,1,11,2.127,11,3V7z"/>
		</g>
		<g>
			<path d="M10.5,19c-0.276,0-0.5-0.224-0.5-0.5v-7c0-0.276,0.224-0.5,0.5-0.5s0.5,0.224,0.5,0.5v7C11,18.776,10.776,19,10.5,19z"/>
		</g>
		<g>
			<path d="M12.5,19c-0.276,0-0.5-0.224-0.5-0.5v-7c0-0.276,0.224-0.5,0.5-0.5s0.5,0.224,0.5,0.5v7C13,18.776,12.776,19,12.5,19z"/>
		</g>
		<g>
			<path d="M14.5,19c-0.276,0-0.5-0.224-0.5-0.5v-7c0-0.276,0.224-0.5,0.5-0.5s0.5,0.224,0.5,0.5v7C15,18.776,14.776,19,14.5,19z"/>
		</g>
		<g>
			<path d="M16.5,19c-0.276,0-0.5-0.224-0.5-0.5v-7c0-0.276,0.224-0.5,0.5-0.5s0.5,0.224,0.5,0.5v7C17,18.776,16.776,19,16.5,19z"/>
		</g>
		<g>
			<path d="M18.5,19c-0.276,0-0.5-0.224-0.5-0.5v-7c0-0.276,0.224-0.5,0.5-0.5s0.5,0.224,0.5,0.5v7C19,18.776,18.776,19,18.5,19z"/>
		</g>
		<g>
			<path d="M4.5,21C4.224,21,4,20.776,4,20.5v-7C4,11.761,4.858,10,6.5,10C6.776,10,7,10.224,7,10.5S6.776,11,6.5,11
				C5.407,11,5,12.533,5,13.5v7C5,20.776,4.776,21,4.5,21z"/>
		</g>
		<g>
			<path d="M5.5,22C5.224,22,5,21.776,5,21.5C5,21.084,4.916,21,4.5,21S4,21.084,4,21.5C4,21.776,3.776,22,3.5,22S3,21.776,3,21.5
				C3,20.533,3.532,20,4.5,20S6,20.533,6,21.5C6,21.776,5.776,22,5.5,22z"/>
		</g>
		<g>
			<path d="M24.5,21c-0.276,0-0.5-0.224-0.5-0.5v-7c0-0.967-0.407-2.5-1.5-2.5c-0.276,0-0.5-0.224-0.5-0.5s0.224-0.5,0.5-0.5
				c1.642,0,2.5,1.761,2.5,3.5v7C25,20.776,24.776,21,24.5,21z"/>
		</g>
		<g>
			<path d="M25.5,22c-0.276,0-0.5-0.224-0.5-0.5c0-0.416-0.084-0.5-0.5-0.5S24,21.084,24,21.5c0,0.276-0.224,0.5-0.5,0.5
				S23,21.776,23,21.5c0-0.967,0.532-1.5,1.5-1.5s1.5,0.533,1.5,1.5C26,21.776,25.776,22,25.5,22z"/>
		</g>
		<g>
			<path d="M16,6h-3c-0.276,0-0.5-0.224-0.5-0.5S12.724,5,13,5h3c0.276,0,0.5,0.224,0.5,0.5S16.276,6,16,6z"/>
		</g>
		<g>
			<circle cx="16" cy="3" r="0.5"/>
		</g>
		<g>
			<circle cx="13" cy="3" r="0.5"/>
		</g>
	</g>
</g>
<g id="Robot_3">
</g>
<g id="Robot_Arm_1">
</g>
<g id="Robot_Arm_2">
</g>
<g id="Robot_Arm_3">
</g>
<g id="Robot_Arm_4">
</g>
<g id="Robot_Arm_5">
</g>
<g id="K5_Robot">
</g>
<g id="Robot_Machine_1">
</g>
<g id="Robot_Machine_2">
</g>
<g id="Artifical_Intelligence_1">
</g>
<g id="Artifical_Intelligence_2">
</g>
<g id="Robot_4">
</g>
<g id="Robot_5">
</g>
<g id="Robot_6">
</g>
<g id="Robot_7">
</g>
<g id="Robot_8">
</g>
<g id="Robot_9">
</g>
<g id="Robot_10">
</g>
<g id="Robot_11">
</g>
<g id="Robot_12">
</g>
<g id="Robot_13">
</g>
</svg>
