<?xml version="1.0" encoding="iso-8859-1"?>
<!-- Generator: Adobe Illustrator 19.2.1, SVG Export Plug-In . SVG Version: 6.00 Build 0)  -->
<svg version="1.1" xmlns="http://www.w3.org/2000/svg" xmlns:xlink="http://www.w3.org/1999/xlink" x="0px" y="0px"
	 viewBox="0 0 30 30" style="enable-background:new 0 0 30 30;" xml:space="preserve">
<g id="Retro_Bot_1">
</g>
<g id="Retro_Bot_2">
</g>
<g id="Retro_Bot_3">
</g>
<g id="Retro_Bot_4">
</g>
<g id="Wall-E">
</g>
<g id="Eva">
</g>
<g id="Iron_Giant">
</g>
<g id="Marvin">
</g>
<g id="Atlas">
</g>
<g id="Claptrap">
</g>
<g id="Android">
</g>
<g id="Bender">
</g>
<g id="Roberto">
</g>
<g id="Robot_Devil">
</g>
<g id="Robocop">
</g>
<g id="ED_209">
</g>
<g id="Optimus_Prime">
</g>
<g id="Robot_1">
</g>
<g id="Robot_2">
</g>
<g id="Robot_3">
</g>
<g id="Robot_Arm_1">
</g>
<g id="Robot_Arm_2">
	<g>
		<path d="M21.5,26h-14C7.224,26,7,26.224,7,26.5v3C7,29.776,7.224,30,7.5,30h14c0.276,0,0.5-0.224,0.5-0.5v-3
			C22,26.224,21.776,26,21.5,26z"/>
		<path d="M9,6.5C9,6.776,9.224,7,9.5,7h2C11.776,7,12,6.776,12,6.5v-6C12,0.224,11.776,0,11.5,0h-2C9.224,0,9,0.224,9,0.5V1H6.5
			C6.224,1,6,1.224,6,1.5V3H2.5C2.224,3,2,3.224,2,3.5S2.224,4,2.5,4H6v1.5C6,5.776,6.224,6,6.5,6H9V6.5z"/>
		<circle cx="23.5" cy="3.5" r="3.5"/>
		<path d="M8.182,25h12.637c-0.68-2.862-3.251-5-6.318-5S8.862,22.138,8.182,25z"/>
		<path d="M20.621,6.929l-8.098,12.36C13.158,19.116,13.815,19,14.5,19c2.362,0,4.482,1.106,5.866,2.865l4.249-14.022
			C24.257,7.936,23.887,8,23.5,8C22.4,8,21.404,7.588,20.621,6.929z"/>
		<path d="M19,3.5c0-0.87,0.259-1.675,0.688-2.365L13,1.84V5.16l6.688,0.704C19.259,5.175,19,4.37,19,3.5z"/>
	</g>
</g>
<g id="Robot_Arm_3">
</g>
<g id="Robot_Arm_4">
</g>
<g id="Robot_Arm_5">
</g>
<g id="K5_Robot">
</g>
<g id="Robot_Machine_1">
</g>
<g id="Robot_Machine_2">
</g>
<g id="Artifical_Intelligence_1">
</g>
<g id="Artifical_Intelligence_2">
</g>
<g id="Robot_4">
</g>
<g id="Robot_5">
</g>
<g id="Robot_6">
</g>
<g id="Robot_7">
</g>
<g id="Robot_8">
</g>
<g id="Robot_9">
</g>
<g id="Robot_10">
</g>
<g id="Robot_11">
</g>
<g id="Robot_12">
</g>
<g id="Robot_13">
</g>
</svg>
