<?xml version="1.0" encoding="iso-8859-1"?>
<!-- Generator: Adobe Illustrator 19.2.1, SVG Export Plug-In . SVG Version: 6.00 Build 0)  -->
<svg version="1.1" xmlns="http://www.w3.org/2000/svg" xmlns:xlink="http://www.w3.org/1999/xlink" x="0px" y="0px"
	 viewBox="0 0 30 30" style="enable-background:new 0 0 30 30;" xml:space="preserve">
<g id="Retro_Bot_1">
</g>
<g id="Retro_Bot_2">
</g>
<g id="Retro_Bot_3">
</g>
<g id="Retro_Bot_4">
</g>
<g id="Wall-E">
</g>
<g id="Eva">
</g>
<g id="Iron_Giant">
</g>
<g id="Marvin">
</g>
<g id="Atlas">
</g>
<g id="Claptrap">
</g>
<g id="Android">
</g>
<g id="Bender">
</g>
<g id="Roberto">
</g>
<g id="Robot_Devil">
</g>
<g id="Robocop">
</g>
<g id="ED_209">
</g>
<g id="Optimus_Prime">
</g>
<g id="Robot_1">
</g>
<g id="Robot_2">
</g>
<g id="Robot_3">
</g>
<g id="Robot_Arm_1">
</g>
<g id="Robot_Arm_2">
</g>
<g id="Robot_Arm_3">
</g>
<g id="Robot_Arm_4">
</g>
<g id="Robot_Arm_5">
</g>
<g id="K5_Robot">
</g>
<g id="Robot_Machine_1">
</g>
<g id="Robot_Machine_2">
</g>
<g id="Artifical_Intelligence_1">
</g>
<g id="Artifical_Intelligence_2">
</g>
<g id="Robot_4">
</g>
<g id="Robot_5">
</g>
<g id="Robot_6">
</g>
<g id="Robot_7">
</g>
<g id="Robot_8">
	<g>
		<path d="M16.5,29h-4c-0.276,0-0.5,0.224-0.5,0.5s0.224,0.5,0.5,0.5h4c0.276,0,0.5-0.224,0.5-0.5S16.776,29,16.5,29z"/>
		<path d="M23.5,11H22v-0.5c0-0.276-0.224-0.5-0.5-0.5H18V9h0.5C19.879,9,21,7.878,21,6.5v-6C21,0.224,20.776,0,20.5,0h-12
			C8.224,0,8,0.224,8,0.5v6C8,7.878,9.121,9,10.5,9H11v1H7.5C7.224,10,7,10.224,7,10.5V11H5.5C4.673,11,4,11.673,4,12.5v6
			C4,19.878,5.121,21,6.5,21H7v1.5C7,22.776,7.224,23,7.5,23h14c0.276,0,0.5-0.224,0.5-0.5V21h0.5c1.379,0,2.5-1.122,2.5-2.5v-6
			C25,11.673,24.327,11,23.5,11z M18.5,13c0.276,0,0.5,0.224,0.5,0.5c0,0.276-0.224,0.5-0.5,0.5S18,13.776,18,13.5
			C18,13.224,18.224,13,18.5,13z M11.5,2h6C17.776,2,18,2.224,18,2.5S17.776,3,17.5,3H16v1.5C16,4.776,15.776,5,15.5,5
			S15,4.776,15,4.5V3h-1v1.5C14,4.776,13.776,5,13.5,5S13,4.776,13,4.5V3h-1.5C11.224,3,11,2.776,11,2.5S11.224,2,11.5,2z M12,9h5v1
			h-5V9z M17,13.5c0,0.276-0.224,0.5-0.5,0.5S16,13.776,16,13.5c0-0.276,0.224-0.5,0.5-0.5S17,13.224,17,13.5z M15,13.5
			c0,0.276-0.224,0.5-0.5,0.5S14,13.776,14,13.5c0-0.276,0.224-0.5,0.5-0.5S15,13.224,15,13.5z M12.5,13c0.276,0,0.5,0.224,0.5,0.5
			c0,0.276-0.224,0.5-0.5,0.5S12,13.776,12,13.5C12,13.224,12.224,13,12.5,13z M10.5,13c0.276,0,0.5,0.224,0.5,0.5
			c0,0.276-0.224,0.5-0.5,0.5S10,13.776,10,13.5C10,13.224,10.224,13,10.5,13z M6.5,20C5.673,20,5,19.327,5,18.5v-6
			C5,12.224,5.225,12,5.5,12H7v8H6.5z M20,20H9v-1h11V20z M24,18.5c0,0.827-0.673,1.5-1.5,1.5H22v-8h1.5c0.275,0,0.5,0.224,0.5,0.5
			V18.5z"/>
		<path d="M18.5,25h-8c-0.276,0-0.5,0.224-0.5,0.5s0.224,0.5,0.5,0.5h8c0.276,0,0.5-0.224,0.5-0.5S18.776,25,18.5,25z"/>
		<path d="M17.5,27h-6c-0.276,0-0.5,0.224-0.5,0.5s0.224,0.5,0.5,0.5h6c0.276,0,0.5-0.224,0.5-0.5S17.776,27,17.5,27z"/>
	</g>
</g>
<g id="Robot_9">
</g>
<g id="Robot_10">
</g>
<g id="Robot_11">
</g>
<g id="Robot_12">
</g>
<g id="Robot_13">
</g>
</svg>
