<?xml version="1.0" encoding="iso-8859-1"?>
<!-- Generator: Adobe Illustrator 19.2.1, SVG Export Plug-In . SVG Version: 6.00 Build 0)  -->
<svg version="1.1" xmlns="http://www.w3.org/2000/svg" xmlns:xlink="http://www.w3.org/1999/xlink" x="0px" y="0px"
	 viewBox="0 0 24 24" style="enable-background:new 0 0 24 24;" xml:space="preserve">
<g id="Retro_Bot_1">
</g>
<g id="Retro_Bot_2">
</g>
<g id="Retro_Bot_3">
</g>
<g id="Retro_Bot_4">
</g>
<g id="Wall-E">
</g>
<g id="Eva">
</g>
<g id="Iron_Giant">
</g>
<g id="Marvin">
</g>
<g id="Atlas">
</g>
<g id="Claptrap">
</g>
<g id="Android">
</g>
<g id="Bender">
</g>
<g id="Roberto">
</g>
<g id="Robot_Devil">
</g>
<g id="Robocop">
</g>
<g id="ED_209">
</g>
<g id="Optimus_Prime">
</g>
<g id="Robot_1">
</g>
<g id="Robot_2">
</g>
<g id="Robot_3">
</g>
<g id="Robot_Arm_1">
</g>
<g id="Robot_Arm_2">
</g>
<g id="Robot_Arm_3">
</g>
<g id="Robot_Arm_4">
</g>
<g id="Robot_Arm_5">
</g>
<g id="K5_Robot">
</g>
<g id="Robot_Machine_1">
</g>
<g id="Robot_Machine_2">
</g>
<g id="Artifical_Intelligence_1">
</g>
<g id="Artifical_Intelligence_2">
</g>
<g id="Robot_4">
</g>
<g id="Robot_5">
</g>
<g id="Robot_6">
</g>
<g id="Robot_7">
</g>
<g id="Robot_8">
</g>
<g id="Robot_9">
</g>
<g id="Robot_10">
	<g>
		<rect x="11" y="9" width="2" height="3"/>
		<rect x="9" y="9" width="1" height="3"/>
		<rect x="14" y="9" width="1" height="3"/>
		<path d="M17.274,2C15.864,0.759,14.021,0,12,0S8.136,0.759,6.726,2H17.274z"/>
		<path d="M18.235,3H5.765C4.663,4.371,4,6.109,4,8v14.5C4,23.327,4.673,24,5.5,24h13c0.827,0,1.5-0.673,1.5-1.5V8
			C20,6.109,19.337,4.371,18.235,3z M10,18.5c0,0.276-0.224,0.5-0.5,0.5S9,18.776,9,18.5v-1C9,17.224,9.224,17,9.5,17
			s0.5,0.224,0.5,0.5V18.5z M12,19.5c0,0.276-0.224,0.5-0.5,0.5S11,19.776,11,19.5v-3c0-0.276,0.224-0.5,0.5-0.5s0.5,0.224,0.5,0.5
			V19.5z M14,19.5c0,0.276-0.224,0.5-0.5,0.5S13,19.776,13,19.5v-3c0-0.276,0.224-0.5,0.5-0.5s0.5,0.224,0.5,0.5V19.5z M16,18.5
			c0,0.276-0.224,0.5-0.5,0.5S15,18.776,15,18.5v-1c0-0.276,0.224-0.5,0.5-0.5s0.5,0.224,0.5,0.5V18.5z M17.5,12
			c0.276,0,0.5,0.224,0.5,0.5S17.776,13,17.5,13h-2h-2h-3h-2h-2C6.224,13,6,12.776,6,12.5S6.224,12,6.5,12H8V9H6.5
			C6.224,9,6,8.776,6,8.5S6.224,8,6.5,8h2h2h3h2h2C17.776,8,18,8.224,18,8.5S17.776,9,17.5,9H16v3H17.5z"/>
	</g>
</g>
<g id="Robot_11">
</g>
<g id="Robot_12">
</g>
<g id="Robot_13">
</g>
</svg>
