<?xml version="1.0" encoding="iso-8859-1"?>
<!-- Generator: Adobe Illustrator 19.2.1, SVG Export Plug-In . SVG Version: 6.00 Build 0)  -->
<svg version="1.1" xmlns="http://www.w3.org/2000/svg" xmlns:xlink="http://www.w3.org/1999/xlink" x="0px" y="0px"
	 viewBox="0 0 24 24" style="enable-background:new 0 0 24 24;" xml:space="preserve">
<g id="Retro_Bot_1">
</g>
<g id="Retro_Bot_2">
</g>
<g id="Retro_Bot_3">
</g>
<g id="Retro_Bot_4">
</g>
<g id="Wall-E">
</g>
<g id="Eva">
</g>
<g id="Iron_Giant">
</g>
<g id="Marvin">
</g>
<g id="Atlas">
</g>
<g id="Claptrap">
</g>
<g id="Android">
</g>
<g id="Bender">
</g>
<g id="Roberto">
</g>
<g id="Robot_Devil">
</g>
<g id="Robocop">
</g>
<g id="ED_209">
</g>
<g id="Optimus_Prime">
</g>
<g id="Robot_1">
</g>
<g id="Robot_2">
</g>
<g id="Robot_3">
</g>
<g id="Robot_Arm_1">
</g>
<g id="Robot_Arm_2">
</g>
<g id="Robot_Arm_3">
</g>
<g id="Robot_Arm_4">
</g>
<g id="Robot_Arm_5">
</g>
<g id="K5_Robot">
</g>
<g id="Robot_Machine_1">
</g>
<g id="Robot_Machine_2">
</g>
<g id="Artifical_Intelligence_1">
</g>
<g id="Artifical_Intelligence_2">
</g>
<g id="Robot_4">
</g>
<g id="Robot_5">
</g>
<g id="Robot_6">
</g>
<g id="Robot_7">
</g>
<g id="Robot_8">
</g>
<g id="Robot_9">
</g>
<g id="Robot_10">
</g>
<g id="Robot_11">
</g>
<g id="Robot_12">
	<g>
		<path d="M17.5,17h-3c-0.827,0-1.5,0.673-1.5,1.5V20h-0.092c-0.151-0.424-0.484-0.757-0.908-0.908v-1.219
			c0.065-0.056,0.125-0.12,0.155-0.205C12.511,16.67,13.453,16,14.5,16c0.827,0,1.5-0.673,1.5-1.5V8.051
			c1.692,0.245,3,1.691,3,3.449c0,0.843-0.306,1.633-0.841,2.261C17.982,13.603,17.755,13.5,17.5,13.5c-0.552,0-1,0.449-1,1
			s0.448,1,1,1c0.386,0,0.711-0.226,0.878-0.547C19.408,14.094,20,12.844,20,11.5c0-2.337-1.797-4.241-4.079-4.457
			C15.726,6.44,15.167,6,14.5,6H14V3h-2v1.5C12,4.776,11.776,5,11.5,5S11,4.776,11,4.5V3H9v3H8.5C7.833,6,7.274,6.44,7.079,7.043
			C4.797,7.259,3,9.163,3,11.5c0,1.344,0.592,2.594,1.622,3.453C4.789,15.274,5.114,15.5,5.5,15.5c0.552,0,1-0.449,1-1s-0.448-1-1-1
			c-0.255,0-0.482,0.103-0.659,0.261C4.306,13.133,4,12.343,4,11.5c0-1.758,1.308-3.204,3-3.449V14.5C7,15.327,7.673,16,8.5,16
			c1.047,0,1.989,0.67,2.345,1.668c0.03,0.085,0.09,0.149,0.155,0.205v1.219c-0.424,0.151-0.757,0.484-0.908,0.908H10v-1.5
			c0-0.827-0.673-1.5-1.5-1.5h-3C4.673,17,4,17.673,4,18.5v4C4,23.327,4.673,24,5.5,24h3c0.827,0,1.5-0.673,1.5-1.5V21h0.092
			c0.207,0.581,0.757,1,1.408,1s1.201-0.419,1.408-1H13v1.5c0,0.827,0.673,1.5,1.5,1.5h3c0.827,0,1.5-0.673,1.5-1.5v-4
			C19,17.673,18.327,17,17.5,17z M17.5,14.499h0.009c0,0,0,0.001,0,0.001L17.5,14.499C17.5,14.5,17.5,14.5,17.5,14.499z M5.5,14.501
			H5.492l0-0.001L5.5,14.501C5.5,14.5,5.5,14.5,5.5,14.501z M7.5,22h-1C6.224,22,6,21.776,6,21.5S6.224,21,6.5,21h1
			C7.776,21,8,21.224,8,21.5S7.776,22,7.5,22z M7.5,20h-1C6.224,20,6,19.776,6,19.5S6.224,19,6.5,19h1C7.776,19,8,19.224,8,19.5
			S7.776,20,7.5,20z M14,11.5c0,0.276-0.224,0.5-0.5,0.5h-2c-0.276,0-0.5-0.224-0.5-0.5s0.224-0.5,0.5-0.5H13v-1h-1.5
			C11.224,10,11,9.776,11,9.5S11.224,9,11.5,9h2C13.776,9,14,9.224,14,9.5V11.5z M9.5,9C9.776,9,10,9.224,10,9.5
			C10,9.776,9.776,10,9.5,10S9,9.776,9,9.5C9,9.224,9.224,9,9.5,9z M9.5,11c0.276,0,0.5,0.224,0.5,0.5c0,0.276-0.224,0.5-0.5,0.5
			S9,11.776,9,11.5C9,11.224,9.224,11,9.5,11z M9.5,14C9.224,14,9,13.776,9,13.5S9.224,13,9.5,13h4c0.276,0,0.5,0.224,0.5,0.5
			S13.776,14,13.5,14H9.5z M11.5,21c-0.275,0-0.5-0.224-0.5-0.5s0.225-0.5,0.5-0.5s0.5,0.224,0.5,0.5S11.775,21,11.5,21z M16.5,22
			h-1c-0.276,0-0.5-0.224-0.5-0.5s0.224-0.5,0.5-0.5h1c0.276,0,0.5,0.224,0.5,0.5S16.776,22,16.5,22z M16.5,20h-1
			c-0.276,0-0.5-0.224-0.5-0.5s0.224-0.5,0.5-0.5h1c0.276,0,0.5,0.224,0.5,0.5S16.776,20,16.5,20z"/>
		<path d="M14,0.5C14,0.224,13.776,0,13.5,0h-4C9.224,0,9,0.224,9,0.5V2h5V0.5z"/>
	</g>
</g>
<g id="Robot_13">
</g>
</svg>
