<?xml version="1.0" encoding="iso-8859-1"?>
<!-- Generator: Adobe Illustrator 19.2.1, SVG Export Plug-In . SVG Version: 6.00 Build 0)  -->
<svg version="1.1" xmlns="http://www.w3.org/2000/svg" xmlns:xlink="http://www.w3.org/1999/xlink" x="0px" y="0px"
	 viewBox="0 0 30 30" style="enable-background:new 0 0 30 30;" xml:space="preserve">
<g id="Retro_Bot_1">
</g>
<g id="Retro_Bot_2">
</g>
<g id="Retro_Bot_3">
</g>
<g id="Retro_Bot_4">
</g>
<g id="Wall-E">
</g>
<g id="Eva">
</g>
<g id="Iron_Giant">
</g>
<g id="Marvin">
</g>
<g id="Atlas">
</g>
<g id="Claptrap">
</g>
<g id="Android">
</g>
<g id="Bender">
</g>
<g id="Roberto">
</g>
<g id="Robot_Devil">
</g>
<g id="Robocop">
</g>
<g id="ED_209">
</g>
<g id="Optimus_Prime">
</g>
<g id="Robot_1">
</g>
<g id="Robot_2">
</g>
<g id="Robot_3">
</g>
<g id="Robot_Arm_1">
</g>
<g id="Robot_Arm_2">
</g>
<g id="Robot_Arm_3">
</g>
<g id="Robot_Arm_4">
</g>
<g id="Robot_Arm_5">
</g>
<g id="K5_Robot">
</g>
<g id="Robot_Machine_1">
</g>
<g id="Robot_Machine_2">
</g>
<g id="Artifical_Intelligence_1">
</g>
<g id="Artifical_Intelligence_2">
</g>
<g id="Robot_4">
	<g>
		<g>
			<path d="M19.5,26c-0.094,0-0.189-0.026-0.273-0.081l-13-8.5c-0.231-0.151-0.296-0.462-0.145-0.692
				c0.151-0.23,0.461-0.294,0.692-0.146l6.886,4.503l-5.987-5.207C7.56,15.78,7.497,15.638,7.5,15.49
				c0.003-0.148,0.072-0.288,0.188-0.381l7.5-6c0.216-0.172,0.53-0.137,0.703,0.078c0.172,0.216,0.137,0.53-0.078,0.703L8.78,15.516
				l11.048,9.607c0.198,0.172,0.229,0.469,0.071,0.679C19.801,25.931,19.651,26,19.5,26z"/>
		</g>
		<g>
			<path d="M6.5,14.5c-0.107,0-0.216-0.035-0.308-0.106c-0.217-0.17-0.256-0.484-0.085-0.702l9-11.5
				c0.17-0.217,0.483-0.255,0.702-0.085c0.217,0.17,0.256,0.484,0.085,0.702l-9,11.5C6.795,14.435,6.648,14.5,6.5,14.5z"/>
		</g>
		<g>
			<path d="M25.5,19h-6c-2.481,0-4.5-2.019-4.5-4.5v-14C15,0.224,15.224,0,15.5,0h8C24.878,0,26,1.121,26,2.5v2
				C26,4.776,25.776,5,25.5,5H22v5h3.5c0.276,0,0.5,0.224,0.5,0.5v8C26,18.776,25.776,19,25.5,19z M16,1v13.5
				c0,1.93,1.57,3.5,3.5,3.5H25v-7h-3.5c-0.276,0-0.5-0.224-0.5-0.5v-6C21,4.224,21.224,4,21.5,4H25V2.5C25,1.673,24.327,1,23.5,1
				H16z"/>
		</g>
		<g>
			<path d="M24.5,11c-0.276,0-0.5-0.224-0.5-0.5v-6C24,4.224,24.224,4,24.5,4S25,4.224,25,4.5v6C25,10.776,24.776,11,24.5,11z"/>
		</g>
		<g>
			<path d="M25.5,13h-4c-0.276,0-0.5-0.224-0.5-0.5s0.224-0.5,0.5-0.5h4c0.276,0,0.5,0.224,0.5,0.5S25.776,13,25.5,13z"/>
		</g>
		<g>
			<path d="M25.5,15h-4c-0.276,0-0.5-0.224-0.5-0.5s0.224-0.5,0.5-0.5h4c0.276,0,0.5,0.224,0.5,0.5S25.776,15,25.5,15z"/>
		</g>
		<g>
			<path d="M25.5,17h-4c-0.276,0-0.5-0.224-0.5-0.5s0.224-0.5,0.5-0.5h4c0.276,0,0.5,0.224,0.5,0.5S25.776,17,25.5,17z"/>
		</g>
		<g>
			<path d="M6.5,17.5c-1.103,0-2-0.897-2-2s0.897-2,2-2s2,0.897,2,2S7.603,17.5,6.5,17.5z M6.5,14.5c-0.551,0-1,0.448-1,1
				s0.449,1,1,1s1-0.448,1-1S7.051,14.5,6.5,14.5z"/>
		</g>
		<g>
			<path d="M19.5,30c-2.481,0-4.5-2.019-4.5-4.5s2.019-4.5,4.5-4.5s4.5,2.019,4.5,4.5S21.981,30,19.5,30z M19.5,22
				c-1.93,0-3.5,1.57-3.5,3.5s1.57,3.5,3.5,3.5s3.5-1.57,3.5-3.5S21.43,22,19.5,22z"/>
		</g>
	</g>
</g>
<g id="Robot_5">
</g>
<g id="Robot_6">
</g>
<g id="Robot_7">
</g>
<g id="Robot_8">
</g>
<g id="Robot_9">
</g>
<g id="Robot_10">
</g>
<g id="Robot_11">
</g>
<g id="Robot_12">
</g>
<g id="Robot_13">
</g>
</svg>
