<?xml version="1.0" encoding="iso-8859-1"?>
<!-- Generator: Adobe Illustrator 19.2.1, SVG Export Plug-In . SVG Version: 6.00 Build 0)  -->
<svg version="1.1" xmlns="http://www.w3.org/2000/svg" xmlns:xlink="http://www.w3.org/1999/xlink" x="0px" y="0px"
	 viewBox="0 0 24 24" style="enable-background:new 0 0 24 24;" xml:space="preserve">
<g id="Retro_Bot_1">
</g>
<g id="Retro_Bot_2">
</g>
<g id="Retro_Bot_3">
</g>
<g id="Retro_Bot_4">
</g>
<g id="Wall-E">
</g>
<g id="Eva">
</g>
<g id="Iron_Giant">
</g>
<g id="Marvin">
</g>
<g id="Atlas">
</g>
<g id="Claptrap">
</g>
<g id="Android">
</g>
<g id="Bender">
</g>
<g id="Roberto">
</g>
<g id="Robot_Devil">
</g>
<g id="Robocop">
</g>
<g id="ED_209">
</g>
<g id="Optimus_Prime">
</g>
<g id="Robot_1">
</g>
<g id="Robot_2">
</g>
<g id="Robot_3">
</g>
<g id="Robot_Arm_1">
</g>
<g id="Robot_Arm_2">
</g>
<g id="Robot_Arm_3">
</g>
<g id="Robot_Arm_4">
</g>
<g id="Robot_Arm_5">
</g>
<g id="K5_Robot">
</g>
<g id="Robot_Machine_1">
</g>
<g id="Robot_Machine_2">
</g>
<g id="Artifical_Intelligence_1">
</g>
<g id="Artifical_Intelligence_2">
</g>
<g id="Robot_4">
</g>
<g id="Robot_5">
</g>
<g id="Robot_6">
</g>
<g id="Robot_7">
</g>
<g id="Robot_8">
</g>
<g id="Robot_9">
</g>
<g id="Robot_10">
</g>
<g id="Robot_11">
</g>
<g id="Robot_12">
</g>
<g id="Robot_13">
	<g>
		<path d="M17.5,8H17V0.5C17,0.224,16.776,0,16.5,0h-10C6.224,0,6,0.224,6,0.5V8H5.5C5.224,8,5,8.224,5,8.5V20h0.5
			C5.776,20,6,20.224,6,20.5S5.776,21,5.5,21H5v2.5C5,23.776,5.224,24,5.5,24h12c0.276,0,0.5-0.224,0.5-0.5V21h-0.5
			c-0.276,0-0.5-0.224-0.5-0.5s0.224-0.5,0.5-0.5H18V8.5C18,8.224,17.776,8,17.5,8z M13.5,2.5c0.552,0,1,0.449,1,1s-0.448,1-1,1
			s-1-0.449-1-1S12.948,2.5,13.5,2.5z M9.5,2.5c0.552,0,1,0.449,1,1s-0.448,1-1,1s-1-0.449-1-1S8.948,2.5,9.5,2.5z M8.5,6h6
			C14.776,6,15,6.224,15,6.5S14.776,7,14.5,7h-6C8.224,7,8,6.776,8,6.5S8.224,6,8.5,6z M12,11.5v4c0,0.276-0.224,0.5-0.5,0.5
			S11,15.776,11,15.5v-4c0-0.276,0.224-0.5,0.5-0.5S12,11.224,12,11.5z M11.5,21C9.019,21,7,18.981,7,16.5
			c0-1.584,0.861-3.07,2.248-3.877c0.237-0.139,0.543-0.059,0.685,0.181c0.139,0.239,0.058,0.545-0.181,0.684
			C8.654,14.125,8,15.251,8,16.5c0,1.93,1.57,3.5,3.5,3.5s3.5-1.57,3.5-3.5c0-1.249-0.654-2.375-1.752-3.013
			c-0.238-0.139-0.319-0.445-0.181-0.684c0.14-0.24,0.446-0.319,0.685-0.181C15.139,13.43,16,14.916,16,16.5
			C16,18.981,13.981,21,11.5,21z"/>
		<path d="M19,10.351V23h0.5c0.827,0,1.5-0.673,1.5-1.5v-8C21,12.109,20.178,10.915,19,10.351z"/>
		<path d="M2,13.5v8C2,22.327,2.673,23,3.5,23H4V10.351C2.822,10.915,2,12.109,2,13.5z"/>
	</g>
</g>
</svg>
