<?xml version="1.0" encoding="iso-8859-1"?>
<!-- Generator: Adobe Illustrator 19.2.1, SVG Export Plug-In . SVG Version: 6.00 Build 0)  -->
<svg version="1.1" xmlns="http://www.w3.org/2000/svg" xmlns:xlink="http://www.w3.org/1999/xlink" x="0px" y="0px"
	 viewBox="0 0 24 24" style="enable-background:new 0 0 24 24;" xml:space="preserve">
<g id="Retro_Bot_1">
</g>
<g id="Retro_Bot_2">
</g>
<g id="Retro_Bot_3">
</g>
<g id="Retro_Bot_4">
</g>
<g id="Wall-E">
</g>
<g id="Eva">
</g>
<g id="Iron_Giant">
</g>
<g id="Marvin">
</g>
<g id="Atlas">
</g>
<g id="Claptrap">
</g>
<g id="Android">
</g>
<g id="Bender">
</g>
<g id="Roberto">
</g>
<g id="Robot_Devil">
</g>
<g id="Robocop">
</g>
<g id="ED_209">
</g>
<g id="Optimus_Prime">
</g>
<g id="Robot_1">
</g>
<g id="Robot_2">
</g>
<g id="Robot_3">
</g>
<g id="Robot_Arm_1">
</g>
<g id="Robot_Arm_2">
</g>
<g id="Robot_Arm_3">
</g>
<g id="Robot_Arm_4">
</g>
<g id="Robot_Arm_5">
</g>
<g id="K5_Robot">
</g>
<g id="Robot_Machine_1">
</g>
<g id="Robot_Machine_2">
</g>
<g id="Artifical_Intelligence_1">
</g>
<g id="Artifical_Intelligence_2">
</g>
<g id="Robot_4">
	<g>
		<path d="M19.5,4C19.776,4,20,3.776,20,3.5v-1C20,1.122,18.878,0,17.5,0h-6C11.224,0,11,0.224,11,0.5v10c0,2.481,2.019,4.5,4.5,4.5
			h4c0.276,0,0.5-0.224,0.5-0.5V13h-3.5c-0.276,0-0.5-0.224-0.5-0.5s0.224-0.5,0.5-0.5H20v-1h-3.5c-0.276,0-0.5-0.224-0.5-0.5
			s0.224-0.5,0.5-0.5H20V8.5C20,8.224,19.776,8,19.5,8H19V4H19.5z M18,8h-1V4h1V8z"/>
		<path d="M14.5,17c-0.485,0-0.946,0.1-1.366,0.278l2.363,2.1c0.589,0.522,0.672,1.42,0.187,2.043C15.397,21.789,14.965,22,14.5,22
			c-0.3,0-0.591-0.089-0.841-0.258l-2.605-1.771C11.027,20.145,11,20.319,11,20.5c0,1.93,1.57,3.5,3.5,3.5s3.5-1.57,3.5-3.5
			S16.43,17,14.5,17z"/>
		<path d="M14.5,21c0.149,0,0.297-0.067,0.395-0.193c0.162-0.208,0.135-0.506-0.063-0.681l-7.911-7.032
			c-0.204,0.828-0.818,1.488-1.617,1.761l8.915,6.058C14.305,20.972,14.403,21,14.5,21z"/>
		<circle cx="4.5" cy="12.5" r="1.5"/>
		<path d="M6.936,11.955L10,9.401V3.524l-5.384,6.487C5.754,10.065,6.694,10.875,6.936,11.955z"/>
	</g>
</g>
<g id="Robot_5">
</g>
<g id="Robot_6">
</g>
<g id="Robot_7">
</g>
<g id="Robot_8">
</g>
<g id="Robot_9">
</g>
<g id="Robot_10">
</g>
<g id="Robot_11">
</g>
<g id="Robot_12">
</g>
<g id="Robot_13">
</g>
</svg>
