<?xml version="1.0" encoding="iso-8859-1"?>
<!-- Generator: Adobe Illustrator 19.2.1, SVG Export Plug-In . SVG Version: 6.00 Build 0)  -->
<svg version="1.1" xmlns="http://www.w3.org/2000/svg" xmlns:xlink="http://www.w3.org/1999/xlink" x="0px" y="0px"
	 viewBox="0 0 24 24" style="enable-background:new 0 0 24 24;" xml:space="preserve">
<g id="Retro_Bot_1">
</g>
<g id="Retro_Bot_2">
</g>
<g id="Retro_Bot_3">
</g>
<g id="Retro_Bot_4">
</g>
<g id="Wall-E">
</g>
<g id="Eva">
</g>
<g id="Iron_Giant">
</g>
<g id="Marvin">
</g>
<g id="Atlas">
</g>
<g id="Claptrap">
</g>
<g id="Android">
</g>
<g id="Bender">
</g>
<g id="Roberto">
</g>
<g id="Robot_Devil">
</g>
<g id="Robocop">
</g>
<g id="ED_209">
</g>
<g id="Optimus_Prime">
</g>
<g id="Robot_1">
</g>
<g id="Robot_2">
</g>
<g id="Robot_3">
</g>
<g id="Robot_Arm_1">
</g>
<g id="Robot_Arm_2">
</g>
<g id="Robot_Arm_3">
</g>
<g id="Robot_Arm_4">
</g>
<g id="Robot_Arm_5">
	<g>
		<path d="M10.5,17h2c0.276,0,0.5-0.224,0.5-0.5V14h-3v2.5C10,16.776,10.224,17,10.5,17z"/>
		<rect x="7" y="22" width="9" height="2"/>
		<path d="M16,12.5c0,0.827-0.673,1.5-1.5,1.5H14v2.5c0,0.827-0.673,1.5-1.5,1.5H12v1.5c0,0.276-0.224,0.5-0.5,0.5
			S11,19.776,11,19.5V18h-0.5C9.673,18,9,17.327,9,16.5V14H8.5C7.673,14,7,13.327,7,12.5V7H0v16.5C0,23.776,0.224,24,0.5,24H6v-2.5
			C6,21.224,6.224,21,6.5,21h10c0.276,0,0.5,0.224,0.5,0.5V24h5.5c0.276,0,0.5-0.224,0.5-0.5V7h-7V12.5z"/>
		<path d="M22.5,3H22v1.5C22,4.776,21.776,5,21.5,5S21,4.776,21,4.5V3h-1v1.5C20,4.776,19.776,5,19.5,5S19,4.776,19,4.5V3h-1v1.5
			C18,4.776,17.776,5,17.5,5S17,4.776,17,4.5V3h-1.051C15.982,3.162,16,3.329,16,3.5V6h7V3.5C23,3.224,22.776,3,22.5,3z"/>
		<path d="M8.5,13h6c0.276,0,0.5-0.224,0.5-0.5v-9c0-0.667-0.44-1.226-1.043-1.421C13.756,0.901,12.734,0,11.5,0
			S9.244,0.901,9.043,2.079C8.44,2.274,8,2.833,8,3.5v9C8,12.776,8.224,13,8.5,13z M12.5,11h-2c-0.276,0-0.5-0.224-0.5-0.5
			s0.224-0.5,0.5-0.5h2c0.276,0,0.5,0.224,0.5,0.5S12.776,11,12.5,11z M12.5,9h-2C10.224,9,10,8.776,10,8.5S10.224,8,10.5,8h2
			C12.776,8,13,8.224,13,8.5S12.776,9,12.5,9z M12.5,7h-2C10.224,7,10,6.776,10,6.5S10.224,6,10.5,6h2C12.776,6,13,6.224,13,6.5
			S12.776,7,12.5,7z M12.5,5h-2C10.224,5,10,4.776,10,4.5S10.224,4,10.5,4h2C12.776,4,13,4.224,13,4.5S12.776,5,12.5,5z M11.5,1
			c0.652,0,1.208,0.418,1.415,1h-2.829C10.292,1.418,10.848,1,11.5,1z"/>
		<path d="M7,3.5C7,3.329,7.018,3.162,7.051,3H6v1.5C6,4.776,5.776,5,5.5,5S5,4.776,5,4.5V3H4v1.5C4,4.776,3.776,5,3.5,5
			S3,4.776,3,4.5V3H2v1.5C2,4.776,1.776,5,1.5,5S1,4.776,1,4.5V3H0.5C0.224,3,0,3.224,0,3.5V6h7V3.5z"/>
	</g>
</g>
<g id="K5_Robot">
</g>
<g id="Robot_Machine_1">
</g>
<g id="Robot_Machine_2">
</g>
<g id="Artifical_Intelligence_1">
</g>
<g id="Artifical_Intelligence_2">
</g>
<g id="Robot_4">
</g>
<g id="Robot_5">
</g>
<g id="Robot_6">
</g>
<g id="Robot_7">
</g>
<g id="Robot_8">
</g>
<g id="Robot_9">
</g>
<g id="Robot_10">
</g>
<g id="Robot_11">
</g>
<g id="Robot_12">
</g>
<g id="Robot_13">
</g>
</svg>
