<?xml version="1.0" encoding="iso-8859-1"?>
<!-- Generator: Adobe Illustrator 19.2.1, SVG Export Plug-In . SVG Version: 6.00 Build 0)  -->
<svg version="1.1" xmlns="http://www.w3.org/2000/svg" xmlns:xlink="http://www.w3.org/1999/xlink" x="0px" y="0px"
	 viewBox="0 0 24 24" style="enable-background:new 0 0 24 24;" xml:space="preserve">
<g id="Retro_Bot_1">
</g>
<g id="Retro_Bot_2">
</g>
<g id="Retro_Bot_3">
</g>
<g id="Retro_Bot_4">
</g>
<g id="Wall-E">
</g>
<g id="Eva">
</g>
<g id="Iron_Giant">
</g>
<g id="Marvin">
</g>
<g id="Atlas">
</g>
<g id="Claptrap">
</g>
<g id="Android">
</g>
<g id="Bender">
</g>
<g id="Roberto">
</g>
<g id="Robot_Devil">
</g>
<g id="Robocop">
</g>
<g id="ED_209">
</g>
<g id="Optimus_Prime">
</g>
<g id="Robot_1">
</g>
<g id="Robot_2">
</g>
<g id="Robot_3">
</g>
<g id="Robot_Arm_1">
</g>
<g id="Robot_Arm_2">
</g>
<g id="Robot_Arm_3">
</g>
<g id="Robot_Arm_4">
</g>
<g id="Robot_Arm_5">
</g>
<g id="K5_Robot">
</g>
<g id="Robot_Machine_1">
</g>
<g id="Robot_Machine_2">
</g>
<g id="Artifical_Intelligence_1">
</g>
<g id="Artifical_Intelligence_2">
</g>
<g id="Robot_4">
</g>
<g id="Robot_5">
</g>
<g id="Robot_6">
</g>
<g id="Robot_7">
	<g>
		<path d="M14.949,5.5h1C15.716,3.422,14.075,1.782,12,1.547V1h0.5C12.776,1,13,0.776,13,0.5S12.776,0,12.5,0h-2
			C10.224,0,10,0.224,10,0.5S10.224,1,10.5,1H11v0.547C8.925,1.782,7.284,3.422,7.051,5.5h1H14.949z M12.5,2.5
			C12.776,2.5,13,2.724,13,3v1c0,0.276-0.224,0.5-0.5,0.5S12,4.276,12,4V3C12,2.724,12.224,2.5,12.5,2.5z M10,3
			c0-0.276,0.224-0.5,0.5-0.5S11,2.724,11,3v1c0,0.276-0.224,0.5-0.5,0.5S10,4.276,10,4V3z"/>
		<path d="M19.5,15H19v-3.5c0-0.686-0.465-1.259-1.095-1.437l0.05-0.199c0.113-0.451,0.013-0.92-0.273-1.287
			c-0.264-0.338-0.653-0.535-1.076-0.565l0.377-1.381c0.012-0.043,0.005-0.087,0.005-0.131H16.5H12v11.458
			c0.526-0.086,1.009-0.311,1.418-0.631C13.778,17.608,14,18.029,14,18.5v5c0,0.276,0.224,0.5,0.5,0.5h1c0.276,0,0.5-0.224,0.5-0.5
			S15.776,23,15.5,23H15v-4.5c0-0.755-0.339-1.44-0.9-1.907c0.178-0.27,0.32-0.567,0.408-0.891L15.246,13H16
			c0.689,0,1.288-0.467,1.455-1.136l0.208-0.831C17.858,11.101,18,11.282,18,11.5V15h-0.5c-0.276,0-0.5,0.224-0.5,0.5v1
			c0,0.276,0.224,0.5,0.5,0.5s0.5-0.224,0.5-0.5V16h1v0.5c0,0.276,0.224,0.5,0.5,0.5s0.5-0.224,0.5-0.5v-1
			C20,15.224,19.776,15,19.5,15z M16.985,9.622l-0.5,2C16.429,11.844,16.229,12,16,12h-0.481l0.818-3H16.5
			c0.155,0,0.299,0.07,0.394,0.192C16.989,9.314,17.022,9.471,16.985,9.622z"/>
		<path d="M6.013,6.5c0,0.044-0.007,0.088,0.005,0.131l0.377,1.381c-0.423,0.03-0.812,0.227-1.076,0.565
			C5.032,8.943,4.933,9.413,5.045,9.864l0.05,0.199C4.465,10.241,4,10.814,4,11.5V15H3.5C3.224,15,3,15.224,3,15.5v1
			C3,16.776,3.224,17,3.5,17S4,16.776,4,16.5V16h1v0.5C5,16.776,5.224,17,5.5,17S6,16.776,6,16.5v-1C6,15.224,5.776,15,5.5,15H5
			v-3.5c0-0.218,0.142-0.399,0.338-0.467l0.208,0.831C5.712,12.533,6.311,13,7,13h0.754l0.737,2.702
			c0.088,0.324,0.23,0.621,0.409,0.891C8.339,17.061,8,17.745,8,18.5V23H7.5C7.224,23,7,23.224,7,23.5S7.224,24,7.5,24h1
			C8.776,24,9,23.776,9,23.5v-5c0-0.47,0.222-0.892,0.582-1.173c0.409,0.32,0.892,0.545,1.418,0.631V6.5H6.5H6.013z M7,12
			c-0.23,0-0.429-0.156-0.485-0.378l-0.5-2c-0.038-0.15-0.004-0.307,0.091-0.429C6.202,9.07,6.346,9,6.5,9h0.163l0.818,3H7z"/>
	</g>
</g>
<g id="Robot_8">
</g>
<g id="Robot_9">
</g>
<g id="Robot_10">
</g>
<g id="Robot_11">
</g>
<g id="Robot_12">
</g>
<g id="Robot_13">
</g>
</svg>
