<?xml version="1.0" encoding="iso-8859-1"?>
<!-- Generator: Adobe Illustrator 19.2.1, SVG Export Plug-In . SVG Version: 6.00 Build 0)  -->
<svg version="1.1" xmlns="http://www.w3.org/2000/svg" xmlns:xlink="http://www.w3.org/1999/xlink" x="0px" y="0px"
	 viewBox="0 0 30 30" style="enable-background:new 0 0 30 30;" xml:space="preserve">
<g id="Retro_Bot_1">
</g>
<g id="Retro_Bot_2">
</g>
<g id="Retro_Bot_3">
</g>
<g id="Retro_Bot_4">
</g>
<g id="Wall-E">
</g>
<g id="Eva">
</g>
<g id="Iron_Giant">
</g>
<g id="Marvin">
</g>
<g id="Atlas">
</g>
<g id="Claptrap">
</g>
<g id="Android">
</g>
<g id="Bender">
</g>
<g id="Roberto">
</g>
<g id="Robot_Devil">
</g>
<g id="Robocop">
</g>
<g id="ED_209">
</g>
<g id="Optimus_Prime">
</g>
<g id="Robot_1">
</g>
<g id="Robot_2">
</g>
<g id="Robot_3">
</g>
<g id="Robot_Arm_1">
</g>
<g id="Robot_Arm_2">
</g>
<g id="Robot_Arm_3">
</g>
<g id="Robot_Arm_4">
</g>
<g id="Robot_Arm_5">
</g>
<g id="K5_Robot">
</g>
<g id="Robot_Machine_1">
</g>
<g id="Robot_Machine_2">
</g>
<g id="Artifical_Intelligence_1">
</g>
<g id="Artifical_Intelligence_2">
</g>
<g id="Robot_4">
</g>
<g id="Robot_5">
</g>
<g id="Robot_6">
</g>
<g id="Robot_7">
</g>
<g id="Robot_8">
</g>
<g id="Robot_9">
</g>
<g id="Robot_10">
</g>
<g id="Robot_11">
</g>
<g id="Robot_12">
</g>
<g id="Robot_13">
	<g>
		<path d="M22.5,10H22V0.5C22,0.224,21.776,0,21.5,0h-14C7.224,0,7,0.224,7,0.5V10H6.5C6.224,10,6,10.224,6,10.5V25h0.5
			C6.776,25,7,25.224,7,25.5S6.776,26,6.5,26H6v3.5C6,29.776,6.224,30,6.5,30h16c0.276,0,0.5-0.224,0.5-0.5V26h-0.5
			c-0.276,0-0.5-0.224-0.5-0.5s0.224-0.5,0.5-0.5H23V10.5C23,10.224,22.776,10,22.5,10z M17,3c0.828,0,1.5,0.672,1.5,1.5
			S17.828,6,17,6s-1.5-0.672-1.5-1.5S16.172,3,17,3z M12,3c0.828,0,1.5,0.672,1.5,1.5S12.828,6,12,6s-1.5-0.672-1.5-1.5
			S11.172,3,12,3z M10.5,8h8C18.776,8,19,8.224,19,8.5S18.776,9,18.5,9h-8C10.224,9,10,8.776,10,8.5S10.224,8,10.5,8z M15,13.5v6
			c0,0.276-0.224,0.5-0.5,0.5S14,19.776,14,19.5v-6c0-0.276,0.224-0.5,0.5-0.5S15,13.224,15,13.5z M14.5,27
			C10.916,27,8,24.084,8,20.5c0-0.788,0.14-1.558,0.414-2.287c0,0,0-0.001,0-0.001c0.63-1.674,1.831-2.978,3.382-3.669
			c0.249-0.113,0.547,0,0.66,0.253c0.112,0.252-0.001,0.548-0.254,0.66c-1.305,0.582-2.318,1.686-2.853,3.108l0,0.001
			C9.118,19.182,9,19.833,9,20.5c0,3.033,2.468,5.5,5.5,5.5s5.5-2.467,5.5-5.5c0-2.207-1.257-4.186-3.201-5.042
			c-0.253-0.111-0.368-0.406-0.257-0.659c0.112-0.253,0.407-0.366,0.659-0.256C19.509,15.559,21,17.897,21,20.5
			C21,24.084,18.084,27,14.5,27z"/>
		<path d="M2,15.5v12C2,28.327,2.673,29,3.5,29H5V12.051C3.308,12.296,2,13.742,2,15.5z"/>
		<path d="M24,12.051V29h1.5c0.827,0,1.5-0.673,1.5-1.5v-12C27,13.742,25.692,12.296,24,12.051z"/>
	</g>
</g>
</svg>
