<?xml version="1.0" encoding="iso-8859-1"?>
<!-- Generator: Adobe Illustrator 19.2.1, SVG Export Plug-In . SVG Version: 6.00 Build 0)  -->
<svg version="1.1" xmlns="http://www.w3.org/2000/svg" xmlns:xlink="http://www.w3.org/1999/xlink" x="0px" y="0px"
	 viewBox="0 0 30 30" style="enable-background:new 0 0 30 30;" xml:space="preserve">
<g id="Retro_Bot_1">
</g>
<g id="Retro_Bot_2">
</g>
<g id="Retro_Bot_3">
</g>
<g id="Retro_Bot_4">
</g>
<g id="Wall-E">
</g>
<g id="Eva">
</g>
<g id="Iron_Giant">
</g>
<g id="Marvin">
</g>
<g id="Atlas">
</g>
<g id="Claptrap">
</g>
<g id="Android">
</g>
<g id="Bender">
</g>
<g id="Roberto">
</g>
<g id="Robot_Devil">
</g>
<g id="Robocop">
</g>
<g id="ED_209">
</g>
<g id="Optimus_Prime">
</g>
<g id="Robot_1">
</g>
<g id="Robot_2">
</g>
<g id="Robot_3">
</g>
<g id="Robot_Arm_1">
</g>
<g id="Robot_Arm_2">
</g>
<g id="Robot_Arm_3">
</g>
<g id="Robot_Arm_4">
</g>
<g id="Robot_Arm_5">
</g>
<g id="K5_Robot">
</g>
<g id="Robot_Machine_1">
</g>
<g id="Robot_Machine_2">
</g>
<g id="Artifical_Intelligence_1">
</g>
<g id="Artifical_Intelligence_2">
</g>
<g id="Robot_4">
</g>
<g id="Robot_5">
</g>
<g id="Robot_6">
</g>
<g id="Robot_7">
</g>
<g id="Robot_8">
</g>
<g id="Robot_9">
</g>
<g id="Robot_10">
	<g>
		<rect x="13" y="11" width="4" height="4"/>
		<rect x="10" y="11" width="2" height="4"/>
		<rect x="18" y="11" width="2" height="4"/>
		<path d="M5.768,4C4.66,5.554,4,7.45,4,9.5v20C4,29.776,4.224,30,4.5,30h21c0.276,0,0.5-0.224,0.5-0.5v-20
			c0-2.05-0.66-3.946-1.768-5.5H5.768z M12,23.5c0,0.276-0.224,0.5-0.5,0.5S11,23.776,11,23.5v-2c0-0.276,0.224-0.5,0.5-0.5
			s0.5,0.224,0.5,0.5V23.5z M14,24.5c0,0.276-0.224,0.5-0.5,0.5S13,24.776,13,24.5v-4c0-0.276,0.224-0.5,0.5-0.5s0.5,0.224,0.5,0.5
			V24.5z M17,24.5c0,0.276-0.224,0.5-0.5,0.5S16,24.776,16,24.5v-4c0-0.276,0.224-0.5,0.5-0.5s0.5,0.224,0.5,0.5V24.5z M19,23.5
			c0,0.276-0.224,0.5-0.5,0.5S18,23.776,18,23.5v-2c0-0.276,0.224-0.5,0.5-0.5s0.5,0.224,0.5,0.5V23.5z M22.5,15
			c0.276,0,0.5,0.224,0.5,0.5S22.776,16,22.5,16h-2h-3h-5h-3h-2C7.224,16,7,15.776,7,15.5S7.224,15,7.5,15H9v-4H7.5
			C7.224,11,7,10.776,7,10.5S7.224,10,7.5,10h2h3h5h3h2c0.276,0,0.5,0.224,0.5,0.5S22.776,11,22.5,11H21v4H22.5z"/>
		<path d="M23.409,3c-1.734-1.842-4.186-3-6.909-3h-3c-2.723,0-5.175,1.158-6.909,3H23.409z"/>
	</g>
</g>
<g id="Robot_11">
</g>
<g id="Robot_12">
</g>
<g id="Robot_13">
</g>
</svg>
