<?xml version="1.0" encoding="iso-8859-1"?>
<!-- Generator: Adobe Illustrator 19.2.1, SVG Export Plug-In . SVG Version: 6.00 Build 0)  -->
<svg version="1.1" xmlns="http://www.w3.org/2000/svg" xmlns:xlink="http://www.w3.org/1999/xlink" x="0px" y="0px"
	 viewBox="0 0 24 24" style="enable-background:new 0 0 24 24;" xml:space="preserve">
<g id="Retro_Bot_1">
</g>
<g id="Retro_Bot_2">
</g>
<g id="Retro_Bot_3">
</g>
<g id="Retro_Bot_4">
</g>
<g id="Wall-E">
</g>
<g id="Eva">
</g>
<g id="Iron_Giant">
</g>
<g id="Marvin">
</g>
<g id="Atlas">
</g>
<g id="Claptrap">
</g>
<g id="Android">
</g>
<g id="Bender">
</g>
<g id="Roberto">
</g>
<g id="Robot_Devil">
</g>
<g id="Robocop">
</g>
<g id="ED_209">
</g>
<g id="Optimus_Prime">
</g>
<g id="Robot_1">
</g>
<g id="Robot_2">
</g>
<g id="Robot_3">
</g>
<g id="Robot_Arm_1">
</g>
<g id="Robot_Arm_2">
</g>
<g id="Robot_Arm_3">
</g>
<g id="Robot_Arm_4">
</g>
<g id="Robot_Arm_5">
</g>
<g id="K5_Robot">
</g>
<g id="Robot_Machine_1">
</g>
<g id="Robot_Machine_2">
</g>
<g id="Artifical_Intelligence_1">
</g>
<g id="Artifical_Intelligence_2">
</g>
<g id="Robot_4">
</g>
<g id="Robot_5">
</g>
<g id="Robot_6">
</g>
<g id="Robot_7">
</g>
<g id="Robot_8">
</g>
<g id="Robot_9">
</g>
<g id="Robot_10">
</g>
<g id="Robot_11">
	<g>
		<path d="M10.5,9h2C13.327,9,14,8.327,14,7.5v-2C14,4.673,13.327,4,12.5,4h-2C9.673,4,9,4.673,9,5.5v2C9,8.327,9.673,9,10.5,9z
			 M11.5,5C12.327,5,13,5.673,13,6.5S12.327,8,11.5,8S10,7.327,10,6.5S10.673,5,11.5,5z"/>
		<circle cx="11.5" cy="6.5" r="0.5"/>
		<path d="M19.5,11h-0.511C18.871,4.906,15.561,0,11.5,0S4.129,4.906,4.011,11H3.5C3.224,11,3,11.224,3,11.5v2
			C3,13.776,3.224,14,3.5,14H5v5.382l-0.947,1.895c-0.123,0.247-0.023,0.547,0.224,0.671c0.248,0.122,0.548,0.024,0.671-0.224
			L5.5,20.618l0.553,1.105C6.141,21.899,6.317,22,6.5,22c0.075,0,0.151-0.017,0.224-0.053c0.247-0.124,0.347-0.424,0.224-0.671
			L6,19.382V14h0.109l1.25,5H9.5c0.276,0,0.5,0.224,0.5,0.5S9.776,20,9.5,20H7.609l0.405,1.621C8.07,21.844,8.271,22,8.5,22h0.551
			c0.232,1.14,1.242,2,2.449,2s2.217-0.86,2.449-2H14.5c0.229,0,0.43-0.156,0.485-0.379L15.391,20H13.5c-0.276,0-0.5-0.224-0.5-0.5
			s0.224-0.5,0.5-0.5h2.141l1.25-5H17v5.382l-0.947,1.895c-0.123,0.247-0.023,0.547,0.224,0.671
			c0.248,0.122,0.548,0.024,0.671-0.224l0.553-1.105l0.553,1.105C18.141,21.899,18.317,22,18.5,22c0.075,0,0.151-0.017,0.224-0.053
			c0.247-0.124,0.347-0.424,0.224-0.671L18,19.382V14h1.5c0.276,0,0.5-0.224,0.5-0.5v-2C20,11.224,19.776,11,19.5,11z M8,5.5
			C8,4.122,9.121,3,10.5,3h2C13.879,3,15,4.122,15,5.5v2c0,1.378-1.121,2.5-2.5,2.5h-2C9.121,10,8,8.878,8,7.5V5.5z M11.5,23
			c-0.652,0-1.208-0.418-1.414-1h2.828C12.708,22.582,12.152,23,11.5,23z M19,13h-2.5h-10H4v-1h15V13z"/>
	</g>
</g>
<g id="Robot_12">
</g>
<g id="Robot_13">
</g>
</svg>
