<?xml version="1.0" encoding="iso-8859-1"?>
<!-- Generator: Adobe Illustrator 19.2.1, SVG Export Plug-In . SVG Version: 6.00 Build 0)  -->
<svg version="1.1" xmlns="http://www.w3.org/2000/svg" xmlns:xlink="http://www.w3.org/1999/xlink" x="0px" y="0px"
	 viewBox="0 0 30 30" style="enable-background:new 0 0 30 30;" xml:space="preserve">
<g id="Retro_Bot_1">
</g>
<g id="Retro_Bot_2">
</g>
<g id="Retro_Bot_3">
</g>
<g id="Retro_Bot_4">
</g>
<g id="Wall-E">
</g>
<g id="Eva">
</g>
<g id="Iron_Giant">
</g>
<g id="Marvin">
</g>
<g id="Atlas">
</g>
<g id="Claptrap">
</g>
<g id="Android">
</g>
<g id="Bender">
</g>
<g id="Roberto">
</g>
<g id="Robot_Devil">
</g>
<g id="Robocop">
</g>
<g id="ED_209">
</g>
<g id="Optimus_Prime">
</g>
<g id="Robot_1">
</g>
<g id="Robot_2">
</g>
<g id="Robot_3">
</g>
<g id="Robot_Arm_1">
</g>
<g id="Robot_Arm_2">
</g>
<g id="Robot_Arm_3">
</g>
<g id="Robot_Arm_4">
</g>
<g id="Robot_Arm_5">
</g>
<g id="K5_Robot">
</g>
<g id="Robot_Machine_1">
</g>
<g id="Robot_Machine_2">
</g>
<g id="Artifical_Intelligence_1">
</g>
<g id="Artifical_Intelligence_2">
</g>
<g id="Robot_4">
</g>
<g id="Robot_5">
</g>
<g id="Robot_6">
</g>
<g id="Robot_7">
</g>
<g id="Robot_8">
</g>
<g id="Robot_9">
	<g>
		<g>
			<path d="M29.5,23c-0.151,0-0.301-0.068-0.399-0.199C27.779,21.047,26.06,20,24.5,20h-19c-1.568,0-3.288,1.047-4.6,2.8
				c-0.166,0.222-0.479,0.266-0.7,0.101s-0.266-0.479-0.101-0.7c0.72-0.962,2.688-3.2,5.4-3.2h19c2.698,0,4.675,2.237,5.399,3.199
				c0.166,0.221,0.122,0.534-0.099,0.7C29.711,22.967,29.605,23,29.5,23z"/>
		</g>
		<g>
			<path d="M18.5,9h-7C11.224,9,11,8.776,11,8.5S11.224,8,11.5,8h7C18.776,8,19,8.224,19,8.5S18.776,9,18.5,9z"/>
		</g>
		<g>
			<path d="M19.5,15h-3c-0.276,0-0.5-0.224-0.5-0.5v-3c0-0.276,0.224-0.5,0.5-0.5h3c0.276,0,0.5,0.224,0.5,0.5v3
				C20,14.776,19.776,15,19.5,15z M17,14h2v-2h-2V14z"/>
		</g>
		<g>
			<path d="M19.5,18h-3c-0.276,0-0.5-0.224-0.5-0.5v-3c0-0.276,0.224-0.5,0.5-0.5h3c0.276,0,0.5,0.224,0.5,0.5v3
				C20,17.776,19.776,18,19.5,18z M17,17h2v-2h-2V17z"/>
		</g>
		<g>
			<path d="M13.5,18h-3c-0.276,0-0.5-0.224-0.5-0.5v-3c0-0.276,0.224-0.5,0.5-0.5h3c0.276,0,0.5,0.224,0.5,0.5v3
				C14,17.776,13.776,18,13.5,18z M11,17h2v-2h-2V17z"/>
		</g>
		<g>
			<path d="M13.5,15h-3c-0.276,0-0.5-0.224-0.5-0.5v-3c0-0.276,0.224-0.5,0.5-0.5h3c0.276,0,0.5,0.224,0.5,0.5v3
				C14,14.776,13.776,15,13.5,15z M11,14h2v-2h-2V14z"/>
		</g>
		<g>
			<path d="M24.5,30h-19C3.019,30,1,27.981,1,25.5S3.019,21,5.5,21h19c2.481,0,4.5,2.019,4.5,4.5S26.981,30,24.5,30z M5.5,22
				C3.57,22,2,23.57,2,25.5S3.57,29,5.5,29h19c1.93,0,3.5-1.57,3.5-3.5S26.43,22,24.5,22H5.5z"/>
		</g>
		<g>
			<path d="M5.5,27C4.673,27,4,26.327,4,25.5S4.673,24,5.5,24S7,24.673,7,25.5S6.327,27,5.5,27z M5.5,25C5.225,25,5,25.225,5,25.5
				S5.225,26,5.5,26S6,25.775,6,25.5S5.775,25,5.5,25z"/>
		</g>
		<g>
			<path d="M10.5,27C9.673,27,9,26.327,9,25.5S9.673,24,10.5,24s1.5,0.673,1.5,1.5S11.327,27,10.5,27z M10.5,25
				c-0.275,0-0.5,0.225-0.5,0.5s0.225,0.5,0.5,0.5s0.5-0.225,0.5-0.5S10.775,25,10.5,25z"/>
		</g>
		<g>
			<path d="M15.5,27c-0.827,0-1.5-0.673-1.5-1.5s0.673-1.5,1.5-1.5s1.5,0.673,1.5,1.5S16.327,27,15.5,27z M15.5,25
				c-0.275,0-0.5,0.225-0.5,0.5s0.225,0.5,0.5,0.5s0.5-0.225,0.5-0.5S15.775,25,15.5,25z"/>
		</g>
		<g>
			<path d="M20.5,27c-0.827,0-1.5-0.673-1.5-1.5s0.673-1.5,1.5-1.5s1.5,0.673,1.5,1.5S21.327,27,20.5,27z M20.5,25
				c-0.275,0-0.5,0.225-0.5,0.5s0.225,0.5,0.5,0.5s0.5-0.225,0.5-0.5S20.775,25,20.5,25z"/>
		</g>
		<g>
			<path d="M25.5,27c-0.827,0-1.5-0.673-1.5-1.5s0.673-1.5,1.5-1.5s1.5,0.673,1.5,1.5S26.327,27,25.5,27z M25.5,25
				c-0.275,0-0.5,0.225-0.5,0.5s0.225,0.5,0.5,0.5s0.5-0.225,0.5-0.5S25.775,25,25.5,25z"/>
		</g>
		<g>
			<path d="M22.5,20h-15C7.224,20,7,19.776,7,19.5v-5C7,11.468,9.468,9,12.5,9h5c3.032,0,5.5,2.468,5.5,5.5v5
				C23,19.776,22.776,20,22.5,20z M8,19h14v-4.5c0-2.481-2.019-4.5-4.5-4.5h-5C10.019,10,8,12.019,8,14.5V19z"/>
		</g>
		<g>
			<path d="M19.5,18h-9c-0.276,0-0.5-0.224-0.5-0.5v-6c0-0.276,0.224-0.5,0.5-0.5h9c0.276,0,0.5,0.224,0.5,0.5v6
				C20,17.776,19.776,18,19.5,18z M11,17h8v-5h-8V17z"/>
		</g>
		<g>
			<path d="M18.5,8h-7C10.673,8,10,7.327,10,6.5v-5C10,0.673,10.673,0,11.5,0h7C19.327,0,20,0.673,20,1.5v5
				C20,7.327,19.327,8,18.5,8z M11.5,1C11.225,1,11,1.225,11,1.5v5C11,6.775,11.225,7,11.5,7h7C18.775,7,19,6.775,19,6.5v-5
				C19,1.225,18.775,1,18.5,1H11.5z"/>
		</g>
		<g>
			<circle cx="13.5" cy="3.5" r="0.5"/>
		</g>
		<g>
			<circle cx="14.5" cy="3.5" r="0.5"/>
		</g>
		<g>
			<circle cx="15.5" cy="3.5" r="0.5"/>
		</g>
		<g>
			<circle cx="16.5" cy="3.5" r="0.5"/>
		</g>
	</g>
</g>
<g id="Robot_10">
</g>
<g id="Robot_11">
</g>
<g id="Robot_12">
</g>
<g id="Robot_13">
</g>
</svg>
