<?xml version="1.0" encoding="iso-8859-1"?>
<!-- Generator: Adobe Illustrator 19.2.1, SVG Export Plug-In . SVG Version: 6.00 Build 0)  -->
<svg version="1.1" xmlns="http://www.w3.org/2000/svg" xmlns:xlink="http://www.w3.org/1999/xlink" x="0px" y="0px"
	 viewBox="0 0 30 30" style="enable-background:new 0 0 30 30;" xml:space="preserve">
<g id="Flag">
</g>
<g id="Umbrella">
</g>
<g id="Briefcase">
</g>
<g id="Box">
</g>
<g id="Magnet">
</g>
<g id="Percent">
</g>
<g id="Rocket">
	<g>
		<path d="M7.086,22.771c-1.175-1.147-2.3-1.548-3.344-1.19c-2.796,0.959-3.65,7.153-3.738,7.856
			c-0.018,0.143,0.068,0.284,0.163,0.392s0.273,0.167,0.417,0.167c0.703-0.088,6.897-0.942,7.856-3.738
			c0.365-1.065-0.059-2.214-1.261-3.416C7.152,22.814,7.121,22.791,7.086,22.771z"/>
		<path d="M29.5,0c-7.479,0-14.425,6.138-18.979,11.352c-9.797,0.043-10.514,9.197-10.52,9.29c-0.011,0.169,0.064,0.332,0.201,0.434
			c0.087,0.065,0.192,0.099,0.298,0.099c0.059,0,0.119-0.011,0.176-0.032l4.742-1.778l5.219,5.219l-1.778,4.742
			c-0.06,0.159-0.034,0.338,0.067,0.474C9.02,29.926,9.168,30,9.326,30c0.011,0,0.022,0,0.033-0.001
			c0.093-0.006,9.247-0.723,9.29-10.521C23.862,14.924,30,7.978,30,0.5C30,0.224,29.776,0,29.5,0z M20.044,13.609
			c-2.014,0-3.652-1.639-3.652-3.652s1.639-3.652,3.652-3.652s3.651,1.639,3.651,3.652S22.058,13.609,20.044,13.609z"/>
	</g>
</g>
<g id="Share">
</g>
<g id="Transmitter">
</g>
<g id="Record_2">
</g>
<g id="Record_1">
</g>
<g id="Anchor">
</g>
<g id="Airplane">
</g>
<g id="Car">
</g>
<g id="Newsfeed">
</g>
<g id="Wifi_Tethering">
</g>
<g id="No_Wifi_Tethering">
</g>
<g id="Bar_Chart_2">
</g>
<g id="Shop">
</g>
<g id="Alarm">
</g>
<g id="Sim_Card">
</g>
<g id="Radar">
</g>
<g id="Hand_2">
</g>
<g id="Palette">
</g>
<g id="Cake">
</g>
<g id="Blende">
</g>
<g id="Feather_Pen">
</g>
<g id="Ticket">
</g>
<g id="Medal">
</g>
<g id="Mouse_Pointer_1">
</g>
<g id="Mouse_Pointer_2">
</g>
<g id="Fingerprint">
</g>
<g id="Earth">
</g>
</svg>
