<?xml version="1.0" encoding="iso-8859-1"?>
<!-- Generator: Adobe Illustrator 19.2.1, SVG Export Plug-In . SVG Version: 6.00 Build 0)  -->
<svg version="1.1" xmlns="http://www.w3.org/2000/svg" xmlns:xlink="http://www.w3.org/1999/xlink" x="0px" y="0px"
	 viewBox="0 0 24 24" style="enable-background:new 0 0 24 24;" xml:space="preserve">
<g id="Flag">
</g>
<g id="Umbrella">
</g>
<g id="Briefcase">
</g>
<g id="Box">
</g>
<g id="Magnet">
</g>
<g id="Percent">
</g>
<g id="Rocket">
	<g>
		<path d="M5.788,18.081c-0.959-0.933-1.884-1.256-2.75-0.959c-2.277,0.78-2.963,5.751-3.034,6.315
			c-0.018,0.143,0.066,0.284,0.161,0.392c0.095,0.107,0.271,0.167,0.415,0.167c0.564-0.07,5.535-0.757,6.316-3.034
			c0.304-0.885-0.041-1.832-1.024-2.815C5.846,18.122,5.818,18.1,5.788,18.081z"/>
		<path d="M23.5,0C17.548,0,12.027,4.863,8.401,9.006c-7.819,0.065-8.395,7.387-8.4,7.462c-0.011,0.169,0.064,0.332,0.201,0.434
			C0.29,16.967,0.394,17,0.5,17c0.059,0,0.119-0.011,0.176-0.032l3.698-1.387l4.045,4.045l-1.387,3.698
			c-0.06,0.159-0.034,0.338,0.067,0.474C7.193,23.926,7.342,24,7.5,24c0.011,0,0.021,0,0.033-0.001
			c0.074-0.005,7.396-0.581,7.461-8.399C19.137,11.974,24,6.452,24,0.5C24,0.224,23.776,0,23.5,0z M16,11c-1.654,0-3-1.346-3-3
			s1.346-3,3-3s3,1.346,3,3S17.654,11,16,11z"/>
		<circle cx="16" cy="8" r="2"/>
	</g>
</g>
<g id="Share">
</g>
<g id="Transmitter">
</g>
<g id="Record_2">
</g>
<g id="Record_1">
</g>
<g id="Anchor">
</g>
<g id="Airplane">
</g>
<g id="Car">
</g>
<g id="Newsfeed">
</g>
<g id="Wifi_Tethering">
</g>
<g id="No_Wifi_Tethering">
</g>
<g id="Bar_Chart_2">
</g>
<g id="Shop">
</g>
<g id="Alarm">
</g>
<g id="Sim_Card">
</g>
<g id="Radar">
</g>
<g id="Hand_2">
</g>
<g id="Palette">
</g>
<g id="Cake">
</g>
<g id="Blende">
</g>
<g id="Feather_Pen">
</g>
<g id="Ticket">
</g>
<g id="Medal">
</g>
<g id="Mouse_Pointer_1">
</g>
<g id="Mouse_Pointer_2">
</g>
<g id="Fingerprint">
</g>
<g id="Earth">
</g>
</svg>
