<?xml version="1.0" encoding="iso-8859-1"?>
<!-- Generator: Adobe Illustrator 19.2.1, SVG Export Plug-In . SVG Version: 6.00 Build 0)  -->
<svg version="1.1" xmlns="http://www.w3.org/2000/svg" xmlns:xlink="http://www.w3.org/1999/xlink" x="0px" y="0px"
	 viewBox="0 0 30 30" style="enable-background:new 0 0 30 30;" xml:space="preserve">
<g id="Cutting_Board_1">
</g>
<g id="Cutting_Board_2">
</g>
<g id="Chef_x27_s_Hat_1">
</g>
<g id="Chef_x27_s_Hat_2">
</g>
<g id="Kitchen_Scale">
</g>
<g id="Measuring_Cup">
</g>
<g id="Pot_1">
</g>
<g id="Pot_2">
</g>
<g id="Wok_1">
</g>
<g id="Wok_2">
</g>
<g id="Teapot">
</g>
<g id="Plate">
</g>
<g id="Sauce_Boat">
</g>
<g id="Cauldron">
</g>
<g id="Cookbook">
</g>
<g id="Salt_Pot">
</g>
<g id="Pepper_Pot_1">
</g>
<g id="Pepper_Pot_2">
</g>
<g id="Egg_Timer">
</g>
<g id="Olive_Oil_Pot">
</g>
<g id="Pancake_Griddle">
</g>
<g id="Pan">
</g>
<g id="Kettle">
</g>
<g id="Microwave">
</g>
<g id="Cooker">
</g>
<g id="Meat_Grinder">
</g>
<g id="Coffee_Maker">
</g>
<g id="Household_Mixer">
</g>
<g id="Stand_Mixer">
</g>
<g id="Hand_Blender">
</g>
<g id="Blender">
</g>
<g id="Cooker_Hood">
</g>
<g id="Refrigerator">
</g>
<g id="Freezer">
</g>
<g id="Apron">
</g>
<g id="Oven_Gloves">
</g>
<g id="Rolling_Pin">
	<path d="M29.411,26.559c-0.103-0.103-0.401-0.401-3.007-1.98l0.872-0.872c0.587-0.587,0.587-1.543,0-2.13l-1.142-1.142
		c0.265-0.559,0.18-1.243-0.282-1.705L10.905,3.783C10.62,3.498,10.242,3.341,9.84,3.341c-0.001,0-0.001,0-0.001,0
		c-0.229,0-0.447,0.056-0.647,0.152L8.058,2.359c-0.568-0.568-1.56-0.57-2.131,0v0L5.142,3.143C3.943,1.186,3.591,0.74,3.431,0.58
		c-0.758-0.76-2.082-0.761-2.842,0C0.209,0.959,0,1.463,0,2s0.209,1.042,0.589,1.421c0.104,0.104,0.368,0.368,2.564,1.711
		L2.368,5.917C2.083,6.202,1.927,6.58,1.927,6.983c0,0.402,0.156,0.781,0.441,1.065l1.134,1.134c-0.096,0.2-0.152,0.419-0.152,0.648
		c0,0.403,0.156,0.781,0.441,1.065l14.947,14.948c0.294,0.293,0.68,0.44,1.065,0.44c0.221,0,0.436-0.062,0.64-0.159l1.141,1.142
		c0.285,0.284,0.663,0.441,1.065,0.441c0.403,0,0.781-0.157,1.065-0.441l0.872-0.872c1.581,2.608,1.868,2.895,1.98,3.006
		c0.379,0.38,0.884,0.589,1.421,0.589c0.536,0,1.041-0.209,1.421-0.589C29.791,29.022,30,28.518,30,27.981
		S29.791,26.939,29.411,26.559z"/>
</g>
<g id="Sieve">
</g>
<g id="Tea_Sieve">
</g>
<g id="Grater">
</g>
<g id="Knife_Holder">
</g>
<g id="Funnel">
</g>
<g id="Kitchen_Clock">
</g>
<g id="Lemon_Juicer">
</g>
<g id="Pastry_Bag_1">
</g>
<g id="Pastry_Bag_2">
</g>
<g id="Corkscrew">
</g>
<g id="Bottle_Opener">
</g>
<g id="Service">
</g>
<g id="Chopsticks">
</g>
<g id="Hatchet">
</g>
<g id="Filleting_Knife">
</g>
<g id="Bread_Knife">
</g>
<g id="Herb_Knife">
</g>
<g id="Whetting">
</g>
<g id="Cake_Knife">
</g>
<g id="Layer_58">
</g>
<g id="Ladle">
</g>
<g id="Sauce_Spoon">
</g>
<g id="Egg_Beater">
</g>
<g id="Meat_Fork">
</g>
<g id="Kitchen_Spoon_1">
</g>
<g id="Kitchen_Spoon_2">
</g>
<g id="Pizza_Cutter">
</g>
<g id="Potato_Musher">
</g>
<g id="Peeler">
</g>
<g id="Honey_Dipper">
</g>
<g id="Fork">
</g>
<g id="Knife">
</g>
<g id="Spoon">
</g>
<g id="Cutlery_Set">
</g>
<g id="Sugar_Bowl">
</g>
<g id="Matches">
</g>
<g id="Cezve">
</g>
</svg>
