<?xml version="1.0" encoding="iso-8859-1"?>
<!-- Generator: Adobe Illustrator 19.2.1, SVG Export Plug-In . SVG Version: 6.00 Build 0)  -->
<svg version="1.1" xmlns="http://www.w3.org/2000/svg" xmlns:xlink="http://www.w3.org/1999/xlink" x="0px" y="0px"
	 viewBox="0 0 24 24" style="enable-background:new 0 0 24 24;" xml:space="preserve">
<g id="Armchair_1">
</g>
<g id="Armchair_2">
</g>
<g id="Armchair_3">
</g>
<g id="Armchair_4">
</g>
<g id="Sofa_1">
</g>
<g id="Sofa_2">
</g>
<g id="Sofa_3">
</g>
<g id="Sofa_4">
</g>
<g id="Sofa_5">
</g>
<g id="Sofa_6">
</g>
<g id="Desk_1">
</g>
<g id="Desk_2">
</g>
<g id="Desk_3">
</g>
<g id="Lamp">
</g>
<g id="Bed_1">
</g>
<g id="Bunk_Beds">
</g>
<g id="Bed_2">
</g>
<g id="Bed_3">
</g>
<g id="Bed_4">
</g>
<g id="Bed_5">
</g>
<g id="Table_1">
</g>
<g id="Table_2">
</g>
<g id="Table_3">
</g>
<g id="Table_4">
</g>
<g id="Rug_1">
</g>
<g id="Rug_2">
</g>
<g id="Rug_3">
	<g>
		<path d="M16,0c-2.137,0-4.146,0.832-5.657,2.343l-7.999,8C0.832,11.854,0,13.863,0,16c0,4.411,3.589,8,8,8
			c2.137,0,4.146-0.832,5.657-2.343l8-8C23.168,12.146,24,10.137,24,8C24,3.589,20.411,0,16,0z M18.829,10.828l-8,8
			C10.073,19.584,9.068,20,8,20c-2.206,0-4-1.794-4-4c0-1.068,0.416-2.073,1.171-2.828l8-8c0.007-0.006,0.013-0.013,0.02-0.019
			C13.943,4.409,14.939,4,16,4c2.206,0,4,1.794,4,4C20,9.068,19.584,10.073,18.829,10.828z"/>
		<path d="M16,5c-0.802,0-1.555,0.312-2.12,0.878c-0.006,0.006-0.013,0.012-0.02,0.018l-7.982,7.983C5.312,14.445,5,15.199,5,16
			c0,1.654,1.346,3,3,3c0.802,0,1.556-0.312,2.122-0.879l8-8C18.688,9.555,19,8.801,19,8C19,6.346,17.654,5,16,5z"/>
	</g>
</g>
<g id="Tub_1">
</g>
<g id="Tub_2">
</g>
<g id="Jacuzzi">
</g>
<g id="Corner_Tub">
</g>
<g id="Shower_Tray">
</g>
<g id="Sink_1">
</g>
<g id="Sink_2">
</g>
<g id="Toilette">
</g>
<g id="Stove">
</g>
<g id="Kitchen_Sink">
</g>
<g id="Island">
</g>
<g id="Eat-in_Kitchen">
</g>
<g id="Tv_Stand">
</g>
</svg>
