<?xml version="1.0" encoding="iso-8859-1"?>
<!-- Generator: Adobe Illustrator 19.2.1, SVG Export Plug-In . SVG Version: 6.00 Build 0)  -->
<svg version="1.1" xmlns="http://www.w3.org/2000/svg" xmlns:xlink="http://www.w3.org/1999/xlink" x="0px" y="0px"
	 viewBox="0 0 30 30" style="enable-background:new 0 0 30 30;" xml:space="preserve">
<g id="Cad_1">
</g>
<g id="Cad_2">
</g>
<g id="Cad_Pencil">
</g>
<g id="Cad_Compasses">
</g>
<g id="Tools_1">
</g>
<g id="Tools_2">
</g>
<g id="Ruler_1">
</g>
<g id="Ruler_2">
	<g>
		<g>
			<path d="M5.5,30h-5C0.224,30,0,29.776,0,29.5v-29C0,0.224,0.224,0,0.5,0h5C5.776,0,6,0.224,6,0.5v24C6,24.776,5.776,25,5.5,25
				S5,24.776,5,24.5V1H1v28h4.5C5.776,29,6,29.224,6,29.5S5.776,30,5.5,30z"/>
		</g>
		<g>
			<path d="M29.5,30h-24C5.224,30,5,29.776,5,29.5S5.224,29,5.5,29H29v-4H5.5C5.224,25,5,24.776,5,24.5S5.224,24,5.5,24h24
				c0.276,0,0.5,0.224,0.5,0.5v5C30,29.776,29.776,30,29.5,30z"/>
		</g>
		<g>
			<path d="M13.248,22.252c-0.131,0-0.259-0.052-0.354-0.146c-0.124-0.124-0.174-0.304-0.132-0.475l1.166-4.664
				c0.077-0.307,0.236-0.589,0.461-0.813L25.03,5.513c0.682-0.683,1.793-0.683,2.475,0l1.982,1.982c0.683,0.682,0.683,1.793,0,2.475
				L18.847,20.61c-0.224,0.224-0.505,0.383-0.813,0.46l-4.665,1.166C13.329,22.247,13.288,22.252,13.248,22.252z M26.268,6
				c-0.192,0-0.384,0.073-0.53,0.219L15.097,16.86c-0.097,0.097-0.165,0.217-0.197,0.348l-0.964,3.856l3.855-0.964
				c0.132-0.033,0.253-0.102,0.349-0.198L28.78,9.263c0.292-0.292,0.292-0.769,0-1.061L26.798,6.22l0,0
				C26.651,6.074,26.46,6,26.268,6z"/>
		</g>
		<g>
			<path d="M18.214,20.967c-0.128,0-0.256-0.049-0.354-0.146L14.18,17.14c-0.195-0.195-0.195-0.512,0-0.707s0.512-0.195,0.707,0
				l3.681,3.681c0.195,0.195,0.195,0.512,0,0.707C18.47,20.918,18.342,20.967,18.214,20.967z"/>
		</g>
	</g>
	<g>
		<path d="M25.5,28c-0.276,0-0.5-0.224-0.5-0.5v-3c0-0.276,0.224-0.5,0.5-0.5s0.5,0.224,0.5,0.5v3C26,27.776,25.776,28,25.5,28z"/>
	</g>
	<g>
		<path d="M22.5,27c-0.276,0-0.5-0.224-0.5-0.5v-2c0-0.276,0.224-0.5,0.5-0.5s0.5,0.224,0.5,0.5v2C23,26.776,22.776,27,22.5,27z"/>
	</g>
	<g>
		<path d="M19.5,27c-0.276,0-0.5-0.224-0.5-0.5v-2c0-0.276,0.224-0.5,0.5-0.5s0.5,0.224,0.5,0.5v2C20,26.776,19.776,27,19.5,27z"/>
	</g>
	<g>
		<path d="M16.5,28c-0.276,0-0.5-0.224-0.5-0.5v-3c0-0.276,0.224-0.5,0.5-0.5s0.5,0.224,0.5,0.5v3C17,27.776,16.776,28,16.5,28z"/>
	</g>
	<g>
		<path d="M13.5,27c-0.276,0-0.5-0.224-0.5-0.5v-2c0-0.276,0.224-0.5,0.5-0.5s0.5,0.224,0.5,0.5v2C14,26.776,13.776,27,13.5,27z"/>
	</g>
	<g>
		<path d="M10.5,27c-0.276,0-0.5-0.224-0.5-0.5v-2c0-0.276,0.224-0.5,0.5-0.5s0.5,0.224,0.5,0.5v2C11,26.776,10.776,27,10.5,27z"/>
	</g>
	<g>
		<path d="M7.5,28C7.224,28,7,27.776,7,27.5v-3C7,24.224,7.224,24,7.5,24S8,24.224,8,24.5v3C8,27.776,7.776,28,7.5,28z"/>
	</g>
	<g>
		<path d="M5.5,23h-3C2.224,23,2,22.776,2,22.5S2.224,22,2.5,22h3C5.776,22,6,22.224,6,22.5S5.776,23,5.5,23z"/>
	</g>
	<g>
		<path d="M5.5,20h-2C3.224,20,3,19.776,3,19.5S3.224,19,3.5,19h2C5.776,19,6,19.224,6,19.5S5.776,20,5.5,20z"/>
	</g>
	<g>
		<path d="M5.5,17h-2C3.224,17,3,16.776,3,16.5S3.224,16,3.5,16h2C5.776,16,6,16.224,6,16.5S5.776,17,5.5,17z"/>
	</g>
	<g>
		<path d="M5.5,14h-3C2.224,14,2,13.776,2,13.5S2.224,13,2.5,13h3C5.776,13,6,13.224,6,13.5S5.776,14,5.5,14z"/>
	</g>
	<g>
		<path d="M5.5,11h-2C3.224,11,3,10.776,3,10.5S3.224,10,3.5,10h2C5.776,10,6,10.224,6,10.5S5.776,11,5.5,11z"/>
	</g>
	<g>
		<path d="M5.5,8h-2C3.224,8,3,7.776,3,7.5S3.224,7,3.5,7h2C5.776,7,6,7.224,6,7.5S5.776,8,5.5,8z"/>
	</g>
	<g>
		<path d="M5.5,5h-3C2.224,5,2,4.776,2,4.5S2.224,4,2.5,4h3C5.776,4,6,4.224,6,4.5S5.776,5,5.5,5z"/>
	</g>
</g>
<g id="Workspace_1">
</g>
<g id="Workspace_2">
</g>
<g id="Cad_3">
</g>
<g id="_x33_D_Box">
</g>
<g id="Section_Symbol">
</g>
<g id="Outlet_Symbol">
</g>
<g id="Cad_File">
</g>
<g id="Blueprint">
</g>
<g id="Construction_Plan">
</g>
<g id="Roof_Plan">
</g>
<g id="House_Construction">
</g>
<g id="Building_Construction">
</g>
<g id="Work_Table">
</g>
<g id="Table_Cad">
</g>
<g id="House_Plan">
</g>
<g id="Tape_Measure">
</g>
<g id="Cad_Paper">
</g>
<g id="Cad_Papers">
</g>
<g id="Stairs">
</g>
<g id="Pillar">
</g>
<g id="Bricks">
</g>
<g id="Pantheon">
</g>
<g id="House">
</g>
<g id="Skyscraper">
</g>
<g id="Building">
</g>
</svg>
