<?xml version="1.0" encoding="iso-8859-1"?>
<!-- Generator: Adobe Illustrator 19.2.1, SVG Export Plug-In . SVG Version: 6.00 Build 0)  -->
<svg version="1.1" xmlns="http://www.w3.org/2000/svg" xmlns:xlink="http://www.w3.org/1999/xlink" x="0px" y="0px"
	 viewBox="0 0 30 30" style="enable-background:new 0 0 30 30;" xml:space="preserve">
<g id="Credit_Card">
</g>
<g id="Banknote">
</g>
<g id="Wallet">
</g>
<g id="Compass">
</g>
<g id="Camera_1">
</g>
<g id="Photo">
</g>
<g id="Picture">
</g>
<g id="Camera_2">
</g>
<g id="No_Camera">
</g>
<g id="Video">
</g>
<g id="Audio">
</g>
<g id="Microphone_1">
</g>
<g id="Microphone_2">
</g>
<g id="No_Microphone">
</g>
<g id="Shopping_Cart">
</g>
<g id="Add_Shopping_Cart">
</g>
<g id="Remove_Shopping_Cart">
</g>
<g id="Shopping_Basket">
</g>
<g id="Jing-Jang">
</g>
<g id="Leaf">
</g>
<g id="Glass">
</g>
<g id="Cup">
</g>
<g id="Mug">
</g>
<g id="Refresh">
</g>
<g id="Login">
</g>
<g id="Logout">
</g>
<g id="Flowchart">
</g>
<g id="Pin_1">
</g>
<g id="Pin_2">
</g>
<g id="User_1">
</g>
<g id="User_2">
</g>
<g id="Users">
</g>
<g id="Adjustments">
</g>
<g id="Type">
</g>
<g id="Format_Size">
</g>
<g id="Menu_1">
</g>
<g id="Other">
</g>
<g id="Flash">
</g>
<g id="No_Flash">
</g>
<g id="Switch_Button_1">
</g>
<g id="Switch_Button_2">
</g>
<g id="Cut">
</g>
<g id="Crop">
</g>
<g id="Sun">
</g>
<g id="USB">
</g>
<g id="Pie_Chart_1">
</g>
<g id="Pie_Chart_2">
</g>
<g id="Line_Chart">
</g>
<g id="Bar_Chart">
</g>
<g id="Target">
</g>
<g id="Flashlight">
</g>
<g id="USB_Device">
</g>
<g id="Eject">
</g>
<g id="Lightbulb">
</g>
<g id="Information">
</g>
<g id="Deactivate_Protection">
</g>
<g id="Active_Protection">
</g>
<g id="Bug">
</g>
<g id="Protection">
</g>
<g id="Phone">
</g>
<g id="List">
</g>
<g id="Plugin_1">
</g>
<g id="Bookmarrk">
</g>
<g id="Handshake">
</g>
<g id="Minimize">
</g>
<g id="Maximize">
</g>
<g id="Diamond">
</g>
<g id="Stop">
</g>
<g id="Shuffle">
</g>
<g id="Undo">
</g>
<g id="Upgrade">
</g>
<g id="Coding">
</g>
<g id="Syncronizaion">
</g>
<g id="Radio">
</g>
<g id="Presentation">
</g>
<g id="Door">
</g>
<g id="Thumbs_Up">
</g>
<g id="Thumbs_Down">
</g>
<g id="Keyboard">
</g>
<g id="_x33_D_Cube">
</g>
<g id="Signal">
</g>
<g id="Dice">
</g>
<g id="Upload">
</g>
<g id="Download">
</g>
<g id="Plugin_2">
</g>
<g id="Shopping_Bag">
</g>
<g id="Lifebelt">
</g>
<g id="Glasses">
</g>
<g id="Parabolic_Antenna">
</g>
<g id="Loudspeaker">
</g>
<g id="Play">
</g>
<g id="Pause">
</g>
<g id="Signpost">
</g>
<g id="Bluetooth">
</g>
<g id="Present">
</g>
<g id="Ruler">
	<g>
		<path d="M29.5,24H26v1.5c0,0.276-0.224,0.5-0.5,0.5S25,25.776,25,25.5V24h-3v1.5c0,0.276-0.224,0.5-0.5,0.5S21,25.776,21,25.5V24
			h-2v2.479c0,0.276-0.224,0.5-0.5,0.5s-0.5-0.224-0.5-0.5V24h-3v1.5c0,0.276-0.224,0.5-0.5,0.5S14,25.776,14,25.5V24h-3v1.5
			c0,0.276-0.224,0.5-0.5,0.5S10,25.776,10,25.5V24H7v2.5C7,26.776,6.776,27,6.5,27S6,26.776,6,26.5V24H3.5
			C3.224,24,3,23.776,3,23.5S3.224,23,3.5,23H6v-3H4.5C4.224,20,4,19.776,4,19.5S4.224,19,4.5,19H6v-3H4.5C4.224,16,4,15.776,4,15.5
			S4.224,15,4.5,15H6v-3H3.522c-0.276,0-0.5-0.224-0.5-0.5s0.224-0.5,0.5-0.5H6V9H4.5C4.224,9,4,8.776,4,8.5S4.224,8,4.5,8H6V5H4.5
			C4.224,5,4,4.776,4,4.5S4.224,4,4.5,4H6V0.5C6,0.224,5.776,0,5.5,0h-5C0.224,0,0,0.224,0,0.5v29C0,29.776,0.224,30,0.5,30h29
			c0.276,0,0.5-0.224,0.5-0.5v-5C30,24.224,29.776,24,29.5,24z"/>
		<path d="M8.5,19C8.224,19,8,19.224,8,19.5S8.224,20,8.5,20H10v1.5c0,0.276,0.224,0.5,0.5,0.5s0.5-0.224,0.5-0.5V20h7v1.5
			c0,0.276,0.224,0.5,0.5,0.5s0.5-0.224,0.5-0.5V20h7v1.5c0,0.276,0.224,0.5,0.5,0.5s0.5-0.224,0.5-0.5V20h1.5
			c0.276,0,0.5-0.224,0.5-0.5S28.776,19,28.5,19H27v-7h1.5c0.276,0,0.5-0.224,0.5-0.5S28.776,11,28.5,11H27V5h1.5
			C28.776,5,29,4.776,29,4.5S28.776,4,28.5,4H27V1.5C27,1.224,26.776,1,26.5,1S26,1.224,26,1.5V4h-7V1.5C19,1.224,18.776,1,18.5,1
			S18,1.224,18,1.5V4h-7V1.5C11,1.224,10.776,1,10.5,1S10,1.224,10,1.5V4H8.5C8.224,4,8,4.224,8,4.5S8.224,5,8.5,5H10v6H8.5
			C8.224,11,8,11.224,8,11.5S8.224,12,8.5,12H10v7H8.5z M19,5h7v6h-7V5z M19,12h7v7h-7V12z M11,5h7v6h-7V5z M11,12h7v7h-7V12z"/>
	</g>
</g>
<g id="Connection">
</g>
<g id="Money">
</g>
<g id="Paper_Plane">
</g>
<g id="Wallet_2">
</g>
</svg>
