<?xml version="1.0" encoding="iso-8859-1"?>
<!-- Generator: Adobe Illustrator 19.2.1, SVG Export Plug-In . SVG Version: 6.00 Build 0)  -->
<svg version="1.1" xmlns="http://www.w3.org/2000/svg" xmlns:xlink="http://www.w3.org/1999/xlink" x="0px" y="0px"
	 viewBox="0 0 24 24" style="enable-background:new 0 0 24 24;" xml:space="preserve">
<g id="Sun_Light">
</g>
<g id="Sunglasses">
</g>
<g id="T-Shirt_1">
</g>
<g id="T-Shirt_2">
</g>
<g id="Mini_Dress">
</g>
<g id="Flip-Flops">
</g>
<g id="Temperature">
</g>
<g id="Hot_Temperature">
</g>
<g id="Ice_Lolly">
</g>
<g id="Icecream">
</g>
<g id="Limonade_1">
</g>
<g id="Limonade_2">
</g>
<g id="Hat">
</g>
<g id="Straw_Hat">
</g>
<g id="Deckchair">
</g>
<g id="Sunshade">
</g>
<g id="Suncream">
</g>
<g id="Suntan_Oil">
</g>
<g id="Swimming_Trunks">
</g>
<g id="Bikini">
</g>
<g id="Pool">
</g>
<g id="Pool_Ladder">
</g>
<g id="Grill">
</g>
<g id="Kite_1">
</g>
<g id="Kite_2">
</g>
<g id="Badminton">
</g>
<g id="Cooler">
</g>
<g id="Strand_Bag">
</g>
<g id="Towel">
</g>
<g id="Strand_Ball">
</g>
<g id="Beach_Sign">
</g>
<g id="Toos">
</g>
<g id="Bucket">
</g>
<g id="Sand_Castle">
</g>
<g id="Shell_1">
</g>
<g id="Shell_2">
</g>
<g id="Surf_Board">
</g>
<g id="Float">
</g>
<g id="Vacation_Photo">
</g>
<g id="Summer_Time">
</g>
<g id="Boat">
</g>
<g id="Lifebuoy">
</g>
<g id="Lighthouse">
</g>
<g id="Sunset">
</g>
<g id="Dolphin">
</g>
<g id="Starfish">
</g>
<g id="Diving_Mask">
</g>
<g id="Sailboat">
	<g>
		<path d="M23.5,19h-6.691l-0.862-1.724C15.862,17.107,15.689,17,15.5,17H11v-1.5v-15c0-0.243-0.175-0.451-0.414-0.493
			c-0.244-0.039-0.475,0.095-0.557,0.323c-0.027,0.076-2.814,7.667-9.885,14.818c-0.142,0.144-0.184,0.358-0.105,0.544
			C0.116,15.879,0.298,16,0.5,16H10v1H7.5c-0.229,0-0.43,0.156-0.485,0.379L6.609,19H0.5c-0.154,0-0.3,0.071-0.395,0.192
			c-0.095,0.121-0.128,0.279-0.091,0.429l0.621,2.485C0.915,23.221,1.912,24,3.062,24h13.334c1.471,0,2.912-0.506,4.061-1.424
			l3.356-2.685c0.166-0.133,0.229-0.356,0.159-0.556S23.712,19,23.5,19z"/>
		<path d="M11.507,15.418c-0.027,0.165,0.029,0.333,0.152,0.447c0.122,0.114,0.292,0.159,0.456,0.121
			c7.381-1.748,10.991,1.826,11.026,1.862c0.098,0.1,0.228,0.15,0.358,0.15c0.106,0,0.214-0.034,0.304-0.103
			c0.201-0.154,0.256-0.433,0.127-0.65C17.588,6.523,12.437,0.244,12.386,0.182c-0.144-0.172-0.383-0.229-0.588-0.139
			c-0.205,0.091-0.325,0.307-0.293,0.529C12.637,8.395,11.519,15.349,11.507,15.418z"/>
	</g>
</g>
<g id="Captin_Hat">
</g>
<g id="Eudder">
</g>
</svg>
