<?xml version="1.0" encoding="iso-8859-1"?>
<!-- Generator: Adobe Illustrator 19.2.1, SVG Export Plug-In . SVG Version: 6.00 Build 0)  -->
<svg version="1.1" xmlns="http://www.w3.org/2000/svg" xmlns:xlink="http://www.w3.org/1999/xlink" x="0px" y="0px"
	 viewBox="0 0 30 30" style="enable-background:new 0 0 30 30;" xml:space="preserve">
<g id="Sun_Light">
</g>
<g id="Sunglasses">
</g>
<g id="T-Shirt_1">
</g>
<g id="T-Shirt_2">
</g>
<g id="Mini_Dress">
</g>
<g id="Flip-Flops">
</g>
<g id="Temperature">
</g>
<g id="Hot_Temperature">
</g>
<g id="Ice_Lolly">
</g>
<g id="Icecream">
</g>
<g id="Limonade_1">
</g>
<g id="Limonade_2">
</g>
<g id="Hat">
</g>
<g id="Straw_Hat">
</g>
<g id="Deckchair">
</g>
<g id="Sunshade">
</g>
<g id="Suncream">
</g>
<g id="Suntan_Oil">
</g>
<g id="Swimming_Trunks">
</g>
<g id="Bikini">
</g>
<g id="Pool">
</g>
<g id="Pool_Ladder">
</g>
<g id="Grill">
</g>
<g id="Kite_1">
</g>
<g id="Kite_2">
</g>
<g id="Badminton">
</g>
<g id="Cooler">
</g>
<g id="Strand_Bag">
</g>
<g id="Towel">
</g>
<g id="Strand_Ball">
</g>
<g id="Beach_Sign">
</g>
<g id="Toos">
</g>
<g id="Bucket">
</g>
<g id="Sand_Castle">
</g>
<g id="Shell_1">
</g>
<g id="Shell_2">
</g>
<g id="Surf_Board">
</g>
<g id="Float">
</g>
<g id="Vacation_Photo">
</g>
<g id="Summer_Time">
</g>
<g id="Boat">
</g>
<g id="Lifebuoy">
</g>
<g id="Lighthouse">
</g>
<g id="Sunset">
</g>
<g id="Dolphin">
</g>
<g id="Starfish">
</g>
<g id="Diving_Mask">
</g>
<g id="Sailboat">
	<g>
		<path d="M29.5,24h-8.354c-0.008-0.028-0.008-0.057-0.021-0.085l-1.261-2.631C19.781,21.11,19.605,21,19.413,21H14v-1.5V19V0.5
			c0-0.241-0.171-0.447-0.408-0.491c-0.238-0.044-0.471,0.086-0.559,0.31C12.996,0.418,9.084,10.321,0.149,19.145
			c-0.145,0.143-0.188,0.357-0.111,0.545C0.114,19.878,0.297,20,0.5,20H13v1H9.326c-0.233,0-0.435,0.161-0.487,0.388L8.238,24H0.5
			c-0.154,0-0.3,0.071-0.395,0.192c-0.095,0.122-0.128,0.28-0.09,0.43l0.783,3.11c0.299,1.195,1.298,2.062,2.503,2.232
			C3.441,29.988,3.584,30,3.73,30h0h16.812h0c1.843,0,3.632-0.62,5.037-1.744l4.232-3.364c0.166-0.133,0.23-0.355,0.16-0.557
			C29.902,24.135,29.713,24,29.5,24z"/>
		<path d="M14.507,19.332c-0.027,0.165,0.03,0.332,0.152,0.446c0.123,0.115,0.296,0.158,0.457,0.121
			c9.388-2.226,13.981,2.337,14.026,2.384c0.098,0.1,0.228,0.15,0.358,0.15c0.106,0,0.214-0.033,0.304-0.103
			c0.201-0.154,0.256-0.434,0.127-0.651C21.938,8.17,15.45,0.26,15.386,0.182c-0.143-0.172-0.384-0.231-0.588-0.139
			c-0.205,0.09-0.325,0.307-0.292,0.529C15.936,10.457,14.521,19.244,14.507,19.332z"/>
	</g>
</g>
<g id="Captin_Hat">
</g>
<g id="Eudder">
</g>
</svg>
