<?xml version="1.0" encoding="iso-8859-1"?>
<!-- Generator: Adobe Illustrator 19.2.1, SVG Export Plug-In . SVG Version: 6.00 Build 0)  -->
<svg version="1.1" xmlns="http://www.w3.org/2000/svg" xmlns:xlink="http://www.w3.org/1999/xlink" x="0px" y="0px"
	 viewBox="0 0 30 30" style="enable-background:new 0 0 30 30;" xml:space="preserve">
<g id="Cutting_Board_1">
</g>
<g id="Cutting_Board_2">
</g>
<g id="Chef_x27_s_Hat_1">
</g>
<g id="Chef_x27_s_Hat_2">
</g>
<g id="Kitchen_Scale">
</g>
<g id="Measuring_Cup">
</g>
<g id="Pot_1">
</g>
<g id="Pot_2">
</g>
<g id="Wok_1">
</g>
<g id="Wok_2">
</g>
<g id="Teapot">
</g>
<g id="Plate">
</g>
<g id="Sauce_Boat">
</g>
<g id="Cauldron">
</g>
<g id="Cookbook">
</g>
<g id="Salt_Pot">
	<g>
		<g>
			<path d="M20.242,30H9.614c-1.335,0-2.9-0.659-3.808-1.603c-0.56-0.583-0.842-1.246-0.815-1.917l1.85-18.191
				c0.058-1.467,0.88-2.838,2.165-3.619C9.177,2.069,11.354,0,13.991,0h1c2.626,0,4.755,1.984,4.973,4.571
				c1.319,0.727,2.199,2.068,2.32,3.567l1.705,18.316c0.068,0.853-0.221,1.672-0.813,2.314C22.464,29.54,21.367,30,20.242,30z
				 M13.991,1c-2.188,0-3.98,1.782-3.996,3.971c-0.001,0.185-0.104,0.354-0.269,0.44C8.611,5.993,7.888,7.123,7.838,8.36
				l-1.85,18.191c-0.014,0.368,0.167,0.767,0.539,1.153C7.237,28.443,8.564,29,9.614,29h10.628c0.851,0,1.673-0.34,2.199-0.911
				c0.283-0.307,0.609-0.825,0.552-1.549L21.288,8.228c0-0.002,0-0.004,0-0.006c-0.1-1.244-0.873-2.348-2.019-2.882
				c-0.172-0.08-0.284-0.25-0.289-0.44C18.925,2.712,17.172,1,14.991,1H13.991z"/>
		</g>
		<g>
			<path d="M20.242,30H9.614c-1.335,0-2.9-0.659-3.808-1.603c-0.56-0.583-0.842-1.246-0.815-1.917L6.841,8.29
				C6.936,5.898,8.91,4,11.335,4h6.464c2.33,0,4.3,1.819,4.485,4.141l1.705,18.313c0.068,0.853-0.221,1.672-0.813,2.314
				C22.464,29.54,21.367,30,20.242,30z M11.335,5C9.449,5,7.913,6.476,7.838,8.36l-1.85,18.19c-0.014,0.368,0.167,0.767,0.539,1.153
				C7.237,28.443,8.564,29,9.614,29h10.628c0.851,0,1.673-0.34,2.199-0.911c0.283-0.307,0.609-0.825,0.552-1.549L21.288,8.228
				C21.144,6.415,19.611,5,17.799,5H11.335z"/>
		</g>
		<g>
			<path d="M15.491,24h-1c-1.93,0-3.5-1.57-3.5-3.5c0-0.276,0.224-0.5,0.5-0.5s0.5,0.224,0.5,0.5c0,1.378,1.121,2.5,2.5,2.5h1
				c1.379,0,2.5-1.122,2.5-2.5s-1.121-2.5-2.5-2.5h-1c-1.93,0-3.5-1.57-3.5-3.5s1.57-3.5,3.5-3.5h1c1.93,0,3.5,1.57,3.5,3.5
				c0,0.276-0.224,0.5-0.5,0.5s-0.5-0.224-0.5-0.5c0-1.378-1.121-2.5-2.5-2.5h-1c-1.379,0-2.5,1.122-2.5,2.5s1.121,2.5,2.5,2.5h1
				c1.93,0,3.5,1.57,3.5,3.5S17.421,24,15.491,24z"/>
		</g>
	</g>
</g>
<g id="Pepper_Pot_1">
</g>
<g id="Pepper_Pot_2">
</g>
<g id="Egg_Timer">
</g>
<g id="Olive_Oil_Pot">
</g>
<g id="Pancake_Griddle">
</g>
<g id="Pan">
</g>
<g id="Kettle">
</g>
<g id="Microwave">
</g>
<g id="Cooker">
</g>
<g id="Meat_Grinder">
</g>
<g id="Coffee_Maker">
</g>
<g id="Household_Mixer">
</g>
<g id="Stand_Mixer">
</g>
<g id="Hand_Blender">
</g>
<g id="Blender">
</g>
<g id="Cooker_Hood">
</g>
<g id="Refrigerator">
</g>
<g id="Freezer">
</g>
<g id="Apron">
</g>
<g id="Oven_Gloves">
</g>
<g id="Rolling_Pin">
</g>
<g id="Sieve">
</g>
<g id="Tea_Sieve">
</g>
<g id="Grater">
</g>
<g id="Knife_Holder">
</g>
<g id="Funnel">
</g>
<g id="Kitchen_Clock">
</g>
<g id="Lemon_Juicer">
</g>
<g id="Pastry_Bag_1">
</g>
<g id="Pastry_Bag_2">
</g>
<g id="Corkscrew">
</g>
<g id="Bottle_Opener">
</g>
<g id="Service">
</g>
<g id="Chopsticks">
</g>
<g id="Hatchet">
</g>
<g id="Filleting_Knife">
</g>
<g id="Bread_Knife">
</g>
<g id="Herb_Knife">
</g>
<g id="Whetting">
</g>
<g id="Cake_Knife">
</g>
<g id="Layer_58">
</g>
<g id="Ladle">
</g>
<g id="Sauce_Spoon">
</g>
<g id="Egg_Beater">
</g>
<g id="Meat_Fork">
</g>
<g id="Kitchen_Spoon_1">
</g>
<g id="Kitchen_Spoon_2">
</g>
<g id="Pizza_Cutter">
</g>
<g id="Potato_Musher">
</g>
<g id="Peeler">
</g>
<g id="Honey_Dipper">
</g>
<g id="Fork">
</g>
<g id="Knife">
</g>
<g id="Spoon">
</g>
<g id="Cutlery_Set">
</g>
<g id="Sugar_Bowl">
</g>
<g id="Matches">
</g>
<g id="Cezve">
</g>
</svg>
