<?xml version="1.0" encoding="iso-8859-1"?>
<!-- Generator: Adobe Illustrator 19.2.1, SVG Export Plug-In . SVG Version: 6.00 Build 0)  -->
<svg version="1.1" xmlns="http://www.w3.org/2000/svg" xmlns:xlink="http://www.w3.org/1999/xlink" x="0px" y="0px"
	 viewBox="0 0 24 24" style="enable-background:new 0 0 24 24;" xml:space="preserve">
<g id="Cutting_Board_1">
</g>
<g id="Cutting_Board_2">
</g>
<g id="Chef_x27_s_Hat_1">
</g>
<g id="Chef_x27_s_Hat_2">
</g>
<g id="Kitchen_Scale">
</g>
<g id="Measuring_Cup">
</g>
<g id="Pot_1">
</g>
<g id="Pot_2">
</g>
<g id="Wok_1">
</g>
<g id="Wok_2">
</g>
<g id="Teapot">
</g>
<g id="Plate">
</g>
<g id="Sauce_Boat">
</g>
<g id="Cauldron">
</g>
<g id="Cookbook">
</g>
<g id="Salt_Pot">
	<g>
		<path d="M8.646,2.07c0.024,0,0.049-0.002,0.074-0.005C8.943,2.031,9.168,2,9.4,2h4.57c0.232,0,0.457,0.031,0.68,0.065
			c0.029,0.004,0.062,0.008,0.085,0.005c0.257-0.026,0.509-0.221,0.509-0.5c0-0.192-0.109-0.36-0.269-0.443
			C14.122,0.41,12.929,0,11.685,0c-1.283,0-2.512,0.436-3.371,1.196C8.149,1.343,8.099,1.581,8.193,1.782
			C8.276,1.959,8.454,2.07,8.646,2.07z"/>
		<path d="M17.453,6.152C17.273,4.355,15.776,3,13.97,3H9.4C7.594,3,6.097,4.355,5.917,6.152l-1.4,14
			c-0.098,0.982,0.225,1.965,0.887,2.696C6.067,23.58,7.013,24,8,24h7.37c0.987,0,1.933-0.42,2.595-1.151
			c0.662-0.732,0.985-1.715,0.887-2.697L17.453,6.152z M11.5,13.5c1.93,0,3.5,1.233,3.5,2.75S13.429,19,11.5,19S8,17.767,8,16.25
			c0-0.276,0.224-0.5,0.5-0.5S9,15.974,9,16.25C9,17.199,10.145,18,11.5,18s2.5-0.801,2.5-1.75s-1.145-1.75-2.5-1.75
			c-1.93,0-3.5-1.233-3.5-2.75S9.57,9,11.5,9s3.5,1.233,3.5,2.75c0,0.276-0.224,0.5-0.5,0.5s-0.5-0.224-0.5-0.5
			c0-0.949-1.145-1.75-2.5-1.75S9,10.801,9,11.75S10.145,13.5,11.5,13.5z"/>
	</g>
</g>
<g id="Pepper_Pot_1">
</g>
<g id="Pepper_Pot_2">
</g>
<g id="Egg_Timer">
</g>
<g id="Olive_Oil_Pot">
</g>
<g id="Pancake_Griddle">
</g>
<g id="Pan">
</g>
<g id="Kettle">
</g>
<g id="Microwave">
</g>
<g id="Cooker">
</g>
<g id="Meat_Grinder">
</g>
<g id="Coffee_Maker">
</g>
<g id="Household_Mixer">
</g>
<g id="Stand_Mixer">
</g>
<g id="Hand_Blender">
</g>
<g id="Blender">
</g>
<g id="Cooker_Hood">
</g>
<g id="Refrigerator">
</g>
<g id="Freezer">
</g>
<g id="Apron">
</g>
<g id="Oven_Gloves">
</g>
<g id="Rolling_Pin">
</g>
<g id="Sieve">
</g>
<g id="Tea_Sieve">
</g>
<g id="Grater">
</g>
<g id="Knife_Holder">
</g>
<g id="Funnel">
</g>
<g id="Kitchen_Clock">
</g>
<g id="Lemon_Juicer">
</g>
<g id="Pastry_Bag_1">
</g>
<g id="Pastry_Bag_2">
</g>
<g id="Corkscrew">
</g>
<g id="Bottle_Opener">
</g>
<g id="Service">
</g>
<g id="Chopsticks">
</g>
<g id="Hatchet">
</g>
<g id="Filleting_Knife">
</g>
<g id="Bread_Knife">
</g>
<g id="Herb_Knife">
</g>
<g id="Whetting">
</g>
<g id="Cake_Knife">
</g>
<g id="Layer_58">
</g>
<g id="Ladle">
</g>
<g id="Sauce_Spoon">
</g>
<g id="Egg_Beater">
</g>
<g id="Meat_Fork">
</g>
<g id="Kitchen_Spoon_1">
</g>
<g id="Kitchen_Spoon_2">
</g>
<g id="Pizza_Cutter">
</g>
<g id="Potato_Musher">
</g>
<g id="Peeler">
</g>
<g id="Honey_Dipper">
</g>
<g id="Fork">
</g>
<g id="Knife">
</g>
<g id="Spoon">
</g>
<g id="Cutlery_Set">
</g>
<g id="Sugar_Bowl">
</g>
<g id="Matches">
</g>
<g id="Cezve">
</g>
</svg>
