<?xml version="1.0" encoding="iso-8859-1"?>
<!-- Generator: Adobe Illustrator 19.2.1, SVG Export Plug-In . SVG Version: 6.00 Build 0)  -->
<svg version="1.1" xmlns="http://www.w3.org/2000/svg" xmlns:xlink="http://www.w3.org/1999/xlink" x="0px" y="0px"
	 viewBox="0 0 24 24" style="enable-background:new 0 0 24 24;" xml:space="preserve">
<g id="Restaurant_sign_1">
</g>
<g id="Restaurant_Sign_2">
</g>
<g id="Restaurant_Sign_3">
</g>
<g id="Hot_Drink_1">
</g>
<g id="Hot_Drink_2">
</g>
<g id="Cocktail">
</g>
<g id="Shot_Glasses">
</g>
<g id="Chilled_Champagne">
</g>
<g id="Wine">
</g>
<g id="Wine_List">
</g>
<g id="Menu">
</g>
<g id="Menu_2">
</g>
<g id="Salver">
	<g>
		<path d="M14.224,16.553L12.5,15.691V9.5H18c0.276,0,0.5-0.224,0.5-0.5S18.276,8.5,18,8.5H6C5.724,8.5,5.5,8.724,5.5,9
			S5.724,9.5,6,9.5h5.5v6.191l-1.724,0.862c-0.247,0.124-0.347,0.424-0.224,0.671C9.641,17.399,9.817,17.5,10,17.5
			c0.075,0,0.151-0.017,0.223-0.053L12,16.559l1.776,0.888C13.848,17.483,13.924,17.5,14,17.5c0.184,0,0.36-0.101,0.448-0.276
			C14.571,16.977,14.471,16.676,14.224,16.553z"/>
		<path d="M23.485,16.879L22.51,12.98l0.983-5.898c0.045-0.272-0.139-0.53-0.411-0.575c-0.272-0.049-0.53,0.139-0.575,0.411
			l-0.93,5.582H17.5c-0.252,0-0.465,0.188-0.496,0.438l-0.5,4c-0.034,0.274,0.16,0.524,0.434,0.558
			c0.276,0.029,0.524-0.161,0.558-0.434l0.195-1.562h4.418l0.406,1.621C22.572,17.349,22.775,17.5,23,17.5
			c0.04,0,0.081-0.005,0.122-0.015C23.389,17.418,23.552,17.146,23.485,16.879z"/>
		<path d="M6.5,12.5H2.424l-0.93-5.582c-0.045-0.272-0.304-0.46-0.575-0.411C0.646,6.552,0.461,6.81,0.507,7.082L1.49,12.98
			l-0.975,3.899c-0.067,0.268,0.096,0.539,0.364,0.606C0.919,17.495,0.96,17.5,1,17.5c0.224,0,0.428-0.151,0.484-0.379L1.89,15.5
			h4.418l0.195,1.562c0.034,0.273,0.282,0.463,0.558,0.434c0.274-0.034,0.468-0.284,0.434-0.558l-0.5-4
			C6.965,12.688,6.752,12.5,6.5,12.5z"/>
	</g>
</g>
<g id="Soup">
</g>
<g id="Sushi">
</g>
<g id="Pizza">
</g>
<g id="Pizza_Slice">
</g>
<g id="Fish">
</g>
<g id="Sausage">
</g>
<g id="Course">
</g>
<g id="Dessert">
</g>
<g id="Cutlery">
</g>
<g id="Napkin">
</g>
<g id="Table">
</g>
<g id="Spices">
</g>
<g id="Hot_Sauce">
</g>
<g id="Reserved_1">
</g>
<g id="Reserved_2">
</g>
<g id="Open">
</g>
<g id="Food_Photo">
</g>
<g id="Chef">
</g>
<g id="Bill">
</g>
<g id="Bill_2">
</g>
<g id="Paying_1">
</g>
<g id="Paying_2">
</g>
<g id="Restaurant_Place">
</g>
</svg>
