<?xml version="1.0" encoding="iso-8859-1"?>
<!-- Generator: Adobe Illustrator 19.2.1, SVG Export Plug-In . SVG Version: 6.00 Build 0)  -->
<svg version="1.1" xmlns="http://www.w3.org/2000/svg" xmlns:xlink="http://www.w3.org/1999/xlink" x="0px" y="0px"
	 viewBox="0 0 30 30" style="enable-background:new 0 0 30 30;" xml:space="preserve">
<g id="Sun_Light">
</g>
<g id="Sunglasses">
</g>
<g id="T-Shirt_1">
</g>
<g id="T-Shirt_2">
</g>
<g id="Mini_Dress">
</g>
<g id="Flip-Flops">
</g>
<g id="Temperature">
</g>
<g id="Hot_Temperature">
</g>
<g id="Ice_Lolly">
</g>
<g id="Icecream">
</g>
<g id="Limonade_1">
</g>
<g id="Limonade_2">
</g>
<g id="Hat">
</g>
<g id="Straw_Hat">
</g>
<g id="Deckchair">
</g>
<g id="Sunshade">
</g>
<g id="Suncream">
</g>
<g id="Suntan_Oil">
</g>
<g id="Swimming_Trunks">
</g>
<g id="Bikini">
</g>
<g id="Pool">
</g>
<g id="Pool_Ladder">
</g>
<g id="Grill">
</g>
<g id="Kite_1">
</g>
<g id="Kite_2">
</g>
<g id="Badminton">
</g>
<g id="Cooler">
</g>
<g id="Strand_Bag">
</g>
<g id="Towel">
</g>
<g id="Strand_Ball">
</g>
<g id="Beach_Sign">
</g>
<g id="Toos">
</g>
<g id="Bucket">
</g>
<g id="Sand_Castle">
	<g id="XMLID_276_">
		<g id="XMLID_277_">
			<path d="M20.674,10H9.326C7.617,10,6,8.447,6,6.805V2.392C6,1.096,7.155,0,8.522,0h0.13C9.969,0,11,1.051,11,2.392v0.63
				c0,0.384,0.447,0.761,0.902,0.761h0.141C12.508,3.782,13,3.392,13,3.021v-0.63c0-1.215,0.608-2.091,1.56-2.328
				C14.632,0.023,14.715,0,14.804,0h0.293c0.088,0,0.172,0.023,0.244,0.063C16.329,0.305,17,1.21,17,2.392v0.63
				c0,0.37,0.503,0.761,0.978,0.761h0.218C18.624,3.782,19,3.427,19,3.021v-0.63C19,1.073,20.087,0,21.424,0
				C22.812,0,24,1.117,24,2.392v4.413C24,8.447,22.383,10,20.674,10z M8.522,1C7.711,1,7,1.65,7,2.392v4.413
				C7,7.893,8.174,9,9.326,9h11.348C21.826,9,23,7.893,23,6.805V2.392C23,1.663,22.264,1,21.457,1C20.652,1,20,1.638,20,2.392v0.63
				c0,0.954-0.826,1.761-1.804,1.761h-0.218C17.044,4.782,16,4.029,16,3.021v-0.63c0-0.649-0.325-1.305-1.046-1.384
				C14.254,1.089,14,1.761,14,2.392v0.63c0,1.008-1.033,1.761-1.957,1.761h-0.141C10.889,4.782,10,3.959,10,3.021v-0.63
				C10,1.611,9.408,1,8.652,1H8.522z"/>
		</g>
		<g id="XMLID_278_">
			<path d="M29.5,30h-29C0.224,30,0,29.776,0,29.5V15.515c0-0.848,0.249-1.669,0.719-2.375l0.837-1.257
				c0.327-0.491,0.875-0.784,1.465-0.784c0.59,0,1.138,0.293,1.465,0.784l0.819,1.262C5.759,13.823,6,14.645,6,15.515v4.063
				c0,0.323,0.283,0.596,0.618,0.596c0.259,0,0.552-0.11,0.6-0.419L8.832,9.423C8.87,9.18,9.08,9,9.326,9h11.348
				c0.247,0,0.456,0.18,0.494,0.423l1.603,10.331c0.038,0.249,0.232,0.425,0.496,0.458c0.038-0.011,0.077-0.017,0.115-0.017
				c0.329,0,0.618-0.288,0.618-0.617v-4.063c0-0.87,0.241-1.691,0.698-2.375l0.824-1.254c0.329-0.494,0.876-0.787,1.464-0.787
				s1.135,0.293,1.462,0.784l0.835,1.258C29.752,13.842,30,14.663,30,15.515V29.5C30,29.776,29.776,30,29.5,30z M1,29h28V15.515
				c0-0.653-0.19-1.282-0.549-1.82l-0.835-1.258c-0.286-0.428-0.973-0.429-1.26,0.001l-0.824,1.254
				C25.183,14.214,25,14.843,25,15.515v4.063c0,0.833-0.67,1.544-1.489,1.612c-0.05,0.018-0.101,0.027-0.15,0.027
				c-0.798,0-1.461-0.552-1.578-1.311L20.246,10H9.754l-1.547,9.908c-0.115,0.745-0.768,1.266-1.588,1.266
				C5.726,21.174,5,20.458,5,19.578v-4.063c0-0.672-0.183-1.301-0.53-1.82l-0.819-1.262c-0.28-0.42-0.976-0.425-1.263,0.005
				l-0.837,1.257C1.19,14.235,1,14.865,1,15.515V29z"/>
		</g>
		<g id="XMLID_279_">
			<path d="M18.572,27c-0.026,0-0.053,0-0.079,0h-6.907c-0.509-0.007-0.995,0.003-1.318-0.319C10.146,26.559,10,26.337,10,25.979
				v-5.587C10,18.093,11.948,16,14.087,16h1.826C18.052,16,20,18.093,20,20.392v5.587c0,0.358-0.146,0.58-0.269,0.702
				C19.428,26.983,18.98,27,18.572,27z M14.087,17C12.5,17,11,18.648,11,20.392v5.587c0.036,0.022,0.327,0.021,0.503,0.021h6.91
				c0.263,0.001,0.551,0.002,0.628-0.041L19,20.392C19,18.648,17.5,17,15.913,17H14.087z"/>
		</g>
	</g>
</g>
<g id="Shell_1">
</g>
<g id="Shell_2">
</g>
<g id="Surf_Board">
</g>
<g id="Float">
</g>
<g id="Vacation_Photo">
</g>
<g id="Summer_Time">
</g>
<g id="Boat">
</g>
<g id="Lifebuoy">
</g>
<g id="Lighthouse">
</g>
<g id="Sunset">
</g>
<g id="Dolphin">
</g>
<g id="Starfish">
</g>
<g id="Diving_Mask">
</g>
<g id="Sailboat">
</g>
<g id="Captin_Hat">
</g>
<g id="Eudder">
</g>
</svg>
