<?xml version="1.0" encoding="iso-8859-1"?>
<!-- Generator: Adobe Illustrator 19.2.1, SVG Export Plug-In . SVG Version: 6.00 Build 0)  -->
<svg version="1.1" xmlns="http://www.w3.org/2000/svg" xmlns:xlink="http://www.w3.org/1999/xlink" x="0px" y="0px"
	 viewBox="0 0 30 30" style="enable-background:new 0 0 30 30;" xml:space="preserve">
<g id="Man_1">
</g>
<g id="Woman_1">
</g>
<g id="Man_2">
</g>
<g id="Woman_2">
</g>
<g id="Bald_Man">
</g>
<g id="Man_Glasses">
</g>
<g id="Woman_Glasses">
</g>
<g id="Man_Beard">
</g>
<g id="Man_Cap">
</g>
<g id="Woman_Cap">
</g>
<g id="Man_3">
</g>
<g id="Woman_3">
</g>
<g id="Men_4">
</g>
<g id="Woman_4">
</g>
<g id="Business_Man_1">
</g>
<g id="Business_Woman_1">
</g>
<g id="Firefigyhter">
</g>
<g id="Policeman">
</g>
<g id="Criminal">
</g>
<g id="Prisoner">
</g>
<g id="Woodsman">
</g>
<g id="Dispatcher_1">
</g>
<g id="Dispatcher_2">
</g>
<g id="Soldier">
</g>
<g id="Astronaut">
</g>
<g id="Hipster_Guy">
</g>
<g id="Hipster_Girl">
</g>
<g id="Worker">
</g>
<g id="Old_Man">
</g>
<g id="Punk">
</g>
<g id="Diver">
</g>
<g id="Artist">
</g>
<g id="Dictator">
</g>
<g id="Man_Hat">
</g>
<g id="Woman_Hat">
</g>
<g id="Graduated_Man">
</g>
<g id="Graduated_Woman">
</g>
<g id="Avatar_Chef">
</g>
<g id="Waiter">
</g>
<g id="Waitress">
</g>
<g id="Bllboy">
</g>
<g id="Santa">
	<g>
		<path d="M16.523,21.009c-0.265,0.017-0.501,0.2-0.522,0.47C15.994,21.565,15.913,22,15,22c-0.906,0-0.992-0.428-1-0.52
			c-0.01-0.27-0.227-0.499-0.507-0.48c-0.276,0.004-0.497,0.231-0.492,0.508C13.008,22.024,13.437,23,15,23s1.992-0.976,2-1.492
			C17.004,21.238,16.793,21.021,16.523,21.009z"/>
		<path d="M23,8c-0.091,0-0.179,0.015-0.267,0.027C22.035,7.342,18.45,4,15,4c-3.516,0-5.588,3.401-5.94,5.052
			C8.849,9.022,8.655,9,8.5,9C8.332,9,8.175,9.084,8.083,9.225C8.039,9.292,7,10.884,7,12.5c0,0.09,0.032,0.173,0.077,0.25
			C7.032,12.824,7,12.907,7,13v1.162c-0.471,0.23-1,0.669-1,1.338c0,0.561,0.306,1.867,0.981,2.332
			c-0.017,0.188-0.045,0.41-0.074,0.648c-0.179,1.469-0.279,2.646,0.184,3.307c0.375,0.534,0.997,0.95,1.6,1.354
			c0.377,0.251,0.732,0.489,0.957,0.713C10.372,24.579,12.761,26,15,26c2.238,0,4.629-1.421,5.354-2.146
			c0.224-0.224,0.58-0.462,0.956-0.713c0.603-0.403,1.226-0.819,1.6-1.354c0.463-0.661,0.363-1.838,0.184-3.307
			c-0.028-0.238-0.057-0.46-0.074-0.648C23.694,17.367,24,16.061,24,15.5c0-0.669-0.529-1.108-1-1.338V13
			c0-0.093-0.032-0.176-0.077-0.251C22.968,12.673,23,12.59,23,12.5V12c1.103,0,2-0.897,2-2S24.103,8,23,8z M8.772,10.019
			c0.403,0.047,1.004,0.176,1.677,0.321C11.815,10.634,13.516,11,15,11c1.49,0,3.015-0.367,4.238-0.663
			C19.989,10.156,20.638,10,21,10c0,0.737,0.405,1.375,1,1.722v0.493C21.082,12.581,17.452,13,15,13
			c-2.445,0-6.061-0.417-6.987-0.778C8.094,11.325,8.538,10.435,8.772,10.019z M8,13.25C9.768,13.766,13.506,14,15,14
			c1.495,0,5.232-0.234,7-0.75v1.005c-0.222,0.24-0.474,0.672-0.896,1.403C20.527,16.658,19.177,19,18.5,19
			c-0.622,0-1.12-0.349-1.647-0.717C16.302,17.898,15.732,17.5,15,17.5s-1.301,0.398-1.852,0.783C12.621,18.651,12.123,19,11.5,19
			c-0.676,0-2.027-2.342-2.604-3.342C8.474,14.926,8.222,14.495,8,14.255V13.25z M23,15.5c0,0.598-0.356,1.411-0.5,1.5
			c-0.133,0-0.26,0.053-0.354,0.146S22,17.367,22,17.5c0,0.277,0.047,0.659,0.101,1.102c0.101,0.827,0.27,2.212-0.01,2.611
			c-0.268,0.382-0.811,0.744-1.336,1.096c-0.419,0.28-0.814,0.544-1.108,0.838C19.119,23.674,16.962,25,15,25
			s-4.119-1.326-4.646-1.854c-0.293-0.294-0.689-0.558-1.108-0.838c-0.526-0.352-1.069-0.714-1.336-1.096
			c-0.28-0.399-0.111-1.784-0.01-2.611C7.954,18.159,8,17.777,8,17.5c0-0.276-0.176-0.491-0.452-0.491C7.356,16.911,7,16.098,7,15.5
			c0-0.155,0.194-0.304,0.388-0.407c0.166,0.244,0.422,0.684,0.642,1.065C9.285,18.335,10.338,20,11.5,20
			c0.938,0,1.619-0.477,2.221-0.897C14.184,18.779,14.583,18.5,15,18.5s0.816,0.279,1.279,0.603C16.881,19.523,17.563,20,18.5,20
			c1.161,0,2.215-1.665,3.471-3.843c0.22-0.38,0.474-0.82,0.641-1.064C22.799,15.193,23,15.338,23,15.5z M23,11
			c-0.552,0-1-0.449-1-1s0.448-1,1-1s1,0.449,1,1S23.552,11,23,11z"/>
		<path d="M11.5,16h1c0.276,0,0.5-0.224,0.5-0.5S12.776,15,12.5,15h-1c-0.276,0-0.5,0.224-0.5,0.5S11.224,16,11.5,16z"/>
		<path d="M17.5,16h1c0.276,0,0.5-0.224,0.5-0.5S18.776,15,18.5,15h-1c-0.276,0-0.5,0.224-0.5,0.5S17.224,16,17.5,16z"/>
		<path d="M15,0C6.729,0,0,6.729,0,15c0,4.235,1.772,8.058,4.604,10.789c0.042,0.057,0.091,0.103,0.151,0.137
			C7.439,28.444,11.037,30,15,30c3.954,0,7.545-1.549,10.228-4.058c0.093-0.042,0.169-0.107,0.22-0.2C28.251,23.015,30,19.211,30,15
			C30,6.729,23.271,0,15,0z M24.995,24.785c-0.098-0.104-0.218-0.207-0.406-0.271l-1.924-0.485l-0.175-0.061
			c-0.177-0.06-0.29-0.1-0.393-0.154c-0.075,0.051-0.152,0.104-0.225,0.153c-0.312,0.209-0.656,0.438-0.812,0.594
			C20.212,25.411,17.562,27,15,27c-2.56,0-5.211-1.589-6.061-2.439c-0.158-0.158-0.5-0.386-0.803-0.588
			c-0.077-0.051-0.156-0.107-0.235-0.16c-0.106,0.056-0.219,0.097-0.391,0.155l-2.14,0.558c-0.161,0.056-0.272,0.156-0.366,0.258
			C2.531,22.257,1,18.806,1,15C1,7.28,7.28,1,15,1s14,6.28,14,14C29,18.806,27.469,22.259,24.995,24.785z"/>
	</g>
</g>
<g id="Doctor">
</g>
<g id="Nurse">
</g>
<g id="Captain">
</g>
<g id="Farmer">
</g>
<g id="Maid">
</g>
<g id="Business_Man_2">
</g>
<g id="Business_Woman_2">
</g>
<g id="Cowboy">
</g>
<g id="Anonymus">
</g>
<g id="Batman">
</g>
<g id="Superman">
</g>
<g id="Captain_America">
</g>
<g id="Darth_Vader">
</g>
<g id="Harry_Potter">
</g>
<g id="Anonymus_2">
</g>
<g id="Scream">
</g>
<g id="Jason">
</g>
<g id="Charlie_Chaplin">
</g>
</svg>
