<?xml version="1.0" encoding="iso-8859-1"?>
<!-- Generator: Adobe Illustrator 19.2.1, SVG Export Plug-In . SVG Version: 6.00 Build 0)  -->
<svg version="1.1" xmlns="http://www.w3.org/2000/svg" xmlns:xlink="http://www.w3.org/1999/xlink" x="0px" y="0px"
	 viewBox="0 0 30 30" style="enable-background:new 0 0 30 30;" xml:space="preserve">
<g id="Cutting_Board_1">
</g>
<g id="Cutting_Board_2">
</g>
<g id="Chef_x27_s_Hat_1">
</g>
<g id="Chef_x27_s_Hat_2">
</g>
<g id="Kitchen_Scale">
</g>
<g id="Measuring_Cup">
</g>
<g id="Pot_1">
</g>
<g id="Pot_2">
</g>
<g id="Wok_1">
</g>
<g id="Wok_2">
</g>
<g id="Teapot">
</g>
<g id="Plate">
</g>
<g id="Sauce_Boat">
	<path d="M29.196,7.948c-0.976-0.989-4.535-0.941-6.436,0.8c-1.946,0.555-6.659,0.966-9.664,0.966c-1.706,0-3.671-0.325-5.406-0.611
		C6.384,8.887,5.257,8.7,4.5,8.7c-1.763,0-4.102,1.012-4.2,1.056c-0.217,0.095-0.337,0.329-0.289,0.56
		c0.048,0.232,0.252,0.398,0.489,0.398c1.523,0,2.657,0.808,3.485,1.397c0.255,0.182,0.48,0.341,0.675,0.452
		c0.133,0.076,0.552,0.467,0.958,0.846c1.148,1.072,2.998,2.801,5.043,3.923l-2.513,2.513C8.057,19.936,8,20.062,8,20.2
		c0,1.262,2.972,2.5,6,2.5s6-1.238,6-2.57c0-0.211-0.13-0.383-0.314-0.451l-2.36-2.36c0.655-0.39,1.298-0.877,1.91-1.418
		c0.163,0.655,0.555,1.353,1.001,1.849c0.582,0.646,1.255,0.987,1.934,0.987c0.146,0,0.292-0.016,0.438-0.048
		c0.27-0.059,0.44-0.325,0.381-0.595c-0.059-0.269-0.323-0.44-0.595-0.381c-0.752,0.163-1.379-0.559-1.614-0.878
		c-0.575-0.778-0.684-1.557-0.658-1.663c5.528-1.103,9.186-2.93,9.786-4.886C30.079,9.723,30.096,8.861,29.196,7.948z M28.95,9.992
		c-0.436,1.423-3.458,2.927-7.821,3.937c1.32-1.613,2.234-3.322,2.35-4.484c1.64-1.458,4.538-1.265,5.004-0.794
		C28.935,9.108,29.087,9.547,28.95,9.992z"/>
</g>
<g id="Cauldron">
</g>
<g id="Cookbook">
</g>
<g id="Salt_Pot">
</g>
<g id="Pepper_Pot_1">
</g>
<g id="Pepper_Pot_2">
</g>
<g id="Egg_Timer">
</g>
<g id="Olive_Oil_Pot">
</g>
<g id="Pancake_Griddle">
</g>
<g id="Pan">
</g>
<g id="Kettle">
</g>
<g id="Microwave">
</g>
<g id="Cooker">
</g>
<g id="Meat_Grinder">
</g>
<g id="Coffee_Maker">
</g>
<g id="Household_Mixer">
</g>
<g id="Stand_Mixer">
</g>
<g id="Hand_Blender">
</g>
<g id="Blender">
</g>
<g id="Cooker_Hood">
</g>
<g id="Refrigerator">
</g>
<g id="Freezer">
</g>
<g id="Apron">
</g>
<g id="Oven_Gloves">
</g>
<g id="Rolling_Pin">
</g>
<g id="Sieve">
</g>
<g id="Tea_Sieve">
</g>
<g id="Grater">
</g>
<g id="Knife_Holder">
</g>
<g id="Funnel">
</g>
<g id="Kitchen_Clock">
</g>
<g id="Lemon_Juicer">
</g>
<g id="Pastry_Bag_1">
</g>
<g id="Pastry_Bag_2">
</g>
<g id="Corkscrew">
</g>
<g id="Bottle_Opener">
</g>
<g id="Service">
</g>
<g id="Chopsticks">
</g>
<g id="Hatchet">
</g>
<g id="Filleting_Knife">
</g>
<g id="Bread_Knife">
</g>
<g id="Herb_Knife">
</g>
<g id="Whetting">
</g>
<g id="Cake_Knife">
</g>
<g id="Layer_58">
</g>
<g id="Ladle">
</g>
<g id="Sauce_Spoon">
</g>
<g id="Egg_Beater">
</g>
<g id="Meat_Fork">
</g>
<g id="Kitchen_Spoon_1">
</g>
<g id="Kitchen_Spoon_2">
</g>
<g id="Pizza_Cutter">
</g>
<g id="Potato_Musher">
</g>
<g id="Peeler">
</g>
<g id="Honey_Dipper">
</g>
<g id="Fork">
</g>
<g id="Knife">
</g>
<g id="Spoon">
</g>
<g id="Cutlery_Set">
</g>
<g id="Sugar_Bowl">
</g>
<g id="Matches">
</g>
<g id="Cezve">
</g>
</svg>
