<?xml version="1.0" encoding="iso-8859-1"?>
<!-- Generator: Adobe Illustrator 19.2.1, SVG Export Plug-In . SVG Version: 6.00 Build 0)  -->
<svg version="1.1" xmlns="http://www.w3.org/2000/svg" xmlns:xlink="http://www.w3.org/1999/xlink" x="0px" y="0px"
	 viewBox="0 0 30 30" style="enable-background:new 0 0 30 30;" xml:space="preserve">
<g id="Snowflake_1">
</g>
<g id="Snowflake_2">
</g>
<g id="Snowflake_3">
</g>
<g id="Snowflake_4">
</g>
<g id="Winter_Cap_1">
</g>
<g id="Winter_Cap_2">
</g>
<g id="Glowes">
</g>
<g id="Sweater_1">
</g>
<g id="Sweater_2">
</g>
<g id="Sweater_3">
</g>
<g id="Scarf">
	<g>
		<g>
			<path d="M23.196,24.435c-0.077,0-0.153-0.018-0.224-0.053l-5.043-2.521c-0.235-0.118-0.339-0.398-0.237-0.641l6.476-15.451
				c0.251-0.632,0.177-1.317-0.204-1.881C23.581,3.324,22.97,3,22.289,3H7.711C7.03,3,6.419,3.324,6.037,3.888
				C5.655,4.453,5.581,5.14,5.834,5.773l6.474,15.447c0.102,0.243-0.002,0.523-0.237,0.641l-5.043,2.521
				c-0.124,0.061-0.267,0.07-0.394,0.023c-0.129-0.047-0.233-0.144-0.288-0.27l-6.11-13.955C-0.135,9.29-0.061,8.274,0.431,7.455
				l1.658-2.764C3.085,3.031,4.907,2,6.842,2h16.315c1.936,0,3.757,1.031,4.753,2.691l1.658,2.764
				c0.492,0.819,0.566,1.834,0.198,2.717l-6.114,13.963c-0.055,0.125-0.159,0.223-0.288,0.27
				C23.311,24.425,23.253,24.435,23.196,24.435z M5.229,3.299C4.29,3.658,3.476,4.324,2.946,5.206L1.288,7.97
				C0.959,8.518,0.91,9.197,1.155,9.788l5.896,13.464l4.154-2.077L4.909,6.152c-0.376-0.94-0.263-1.993,0.3-2.824
				C5.216,3.318,5.222,3.309,5.229,3.299z M18.794,21.175l4.154,2.077l5.899-13.473c0.242-0.582,0.192-1.262-0.136-1.81
				l-1.658-2.764c-0.529-0.882-1.343-1.548-2.282-1.907c0.006,0.009,0.013,0.019,0.019,0.028c0.563,0.831,0.676,1.884,0.304,2.816
				c-0.001,0.002-0.002,0.005-0.003,0.008L18.794,21.175z M24.63,5.958h0.01H24.63z"/>
		</g>
		<g>
			<path d="M23.56,9H6.44c-0.276,0-0.5-0.224-0.5-0.5S6.164,8,6.44,8h17.12c0.276,0,0.5,0.224,0.5,0.5S23.836,9,23.56,9z"/>
		</g>
		<g>
			<path d="M13.109,25.065c-0.198,0-0.386-0.119-0.464-0.314l-1.261-3.152c-0.103-0.256,0.022-0.547,0.279-0.65
				c0.253-0.103,0.547,0.021,0.65,0.279l1.261,3.152c0.103,0.256-0.022,0.547-0.279,0.65C13.234,25.054,13.171,25.065,13.109,25.065
				z"/>
		</g>
		<g>
			<path d="M10.587,26.326c-0.198,0-0.386-0.119-0.464-0.314l-1.261-3.152c-0.103-0.256,0.022-0.547,0.279-0.65
				c0.254-0.102,0.547,0.021,0.65,0.279l1.261,3.152c0.103,0.256-0.022,0.547-0.279,0.65C10.712,26.315,10.649,26.326,10.587,26.326
				z"/>
		</g>
		<g>
			<path d="M8.065,27.587c-0.198,0-0.386-0.119-0.464-0.314L6.34,24.12c-0.103-0.256,0.022-0.547,0.279-0.65
				c0.254-0.102,0.547,0.021,0.65,0.279l1.261,3.152c0.103,0.256-0.022,0.547-0.279,0.65C8.19,27.576,8.127,27.587,8.065,27.587z"/>
		</g>
		<g>
			<path d="M16.891,25.065c-0.062,0-0.125-0.011-0.186-0.036c-0.256-0.103-0.381-0.394-0.279-0.65l1.261-3.152
				c0.103-0.257,0.396-0.382,0.65-0.279c0.256,0.103,0.381,0.394,0.279,0.65l-1.261,3.152
				C17.277,24.947,17.089,25.065,16.891,25.065z"/>
		</g>
		<g>
			<path d="M19.413,26.326c-0.062,0-0.125-0.011-0.186-0.036c-0.256-0.103-0.381-0.394-0.279-0.65l1.261-3.152
				c0.103-0.257,0.395-0.381,0.65-0.279c0.256,0.103,0.381,0.394,0.279,0.65l-1.261,3.152
				C19.799,26.208,19.611,26.326,19.413,26.326z"/>
		</g>
		<g>
			<path d="M21.935,27.587c-0.062,0-0.125-0.011-0.186-0.036c-0.256-0.103-0.381-0.394-0.279-0.65l1.261-3.152
				c0.103-0.257,0.395-0.381,0.65-0.279c0.256,0.103,0.381,0.394,0.279,0.65l-1.261,3.152
				C22.321,27.468,22.133,27.587,21.935,27.587z"/>
		</g>
	</g>
</g>
<g id="Winter_Socks">
</g>
<g id="Winter_Sock">
</g>
<g id="Winter_Coat">
</g>
<g id="Winter_Calendar">
</g>
<g id="Thermometer_1">
</g>
<g id="Thermometer_2">
</g>
<g id="Cold">
</g>
<g id="Icicle">
</g>
<g id="Snowing">
</g>
<g id="Snow_Shoes_1">
</g>
<g id="Snow_Shoes_2">
</g>
<g id="Sledge">
</g>
<g id="Snow_Boots">
</g>
<g id="Snowcapped_Mountains">
</g>
<g id="Skis">
</g>
<g id="Sky_Glasses">
</g>
<g id="Snowboard">
</g>
<g id="Ice_Skate">
</g>
<g id="Wooden_House">
</g>
<g id="Snowcapped_House">
</g>
<g id="Hot_Drink">
</g>
<g id="Hot_Chocolate">
</g>
<g id="Lantern">
</g>
<g id="Snow_Shovel">
</g>
<g id="Snowman">
</g>
<g id="Reindeer">
</g>
<g id="Snowmobile">
</g>
<g id="Snow_Chain">
</g>
<g id="Slippery_Road">
</g>
</svg>
