<?xml version="1.0" encoding="iso-8859-1"?>
<!-- Generator: Adobe Illustrator 19.2.1, SVG Export Plug-In . SVG Version: 6.00 Build 0)  -->
<svg version="1.1" xmlns="http://www.w3.org/2000/svg" xmlns:xlink="http://www.w3.org/1999/xlink" x="0px" y="0px"
	 viewBox="0 0 30 30" style="enable-background:new 0 0 30 30;" xml:space="preserve">
<g id="Man_1">
</g>
<g id="Woman_1">
</g>
<g id="Man_2">
</g>
<g id="Woman_2">
</g>
<g id="Bald_Man">
</g>
<g id="Man_Glasses">
</g>
<g id="Woman_Glasses">
</g>
<g id="Man_Beard">
</g>
<g id="Man_Cap">
</g>
<g id="Woman_Cap">
</g>
<g id="Man_3">
</g>
<g id="Woman_3">
</g>
<g id="Men_4">
</g>
<g id="Woman_4">
</g>
<g id="Business_Man_1">
</g>
<g id="Business_Woman_1">
</g>
<g id="Firefigyhter">
</g>
<g id="Policeman">
</g>
<g id="Criminal">
</g>
<g id="Prisoner">
</g>
<g id="Woodsman">
</g>
<g id="Dispatcher_1">
</g>
<g id="Dispatcher_2">
</g>
<g id="Soldier">
</g>
<g id="Astronaut">
</g>
<g id="Hipster_Guy">
</g>
<g id="Hipster_Girl">
</g>
<g id="Worker">
</g>
<g id="Old_Man">
</g>
<g id="Punk">
</g>
<g id="Diver">
</g>
<g id="Artist">
</g>
<g id="Dictator">
</g>
<g id="Man_Hat">
</g>
<g id="Woman_Hat">
</g>
<g id="Graduated_Man">
</g>
<g id="Graduated_Woman">
</g>
<g id="Avatar_Chef">
</g>
<g id="Waiter">
</g>
<g id="Waitress">
</g>
<g id="Bllboy">
</g>
<g id="Santa">
</g>
<g id="Doctor">
</g>
<g id="Nurse">
</g>
<g id="Captain">
</g>
<g id="Farmer">
</g>
<g id="Maid">
</g>
<g id="Business_Man_2">
</g>
<g id="Business_Woman_2">
</g>
<g id="Cowboy">
</g>
<g id="Anonymus">
</g>
<g id="Batman">
</g>
<g id="Superman">
</g>
<g id="Captain_America">
</g>
<g id="Darth_Vader">
</g>
<g id="Harry_Potter">
</g>
<g id="Anonymus_2">
</g>
<g id="Scream">
	<g>
		<path d="M13.543,9.002c-0.25-0.025-0.49,0.156-0.536,0.411c-0.355,2.012-2.071,2.418-3.332,2.55C9.457,11.985,9,12.033,9,12.5
			c0,0.302,0.032,0.61,0.261,0.825c0.176,0.166,0.384,0.201,0.598,0.201c0.083,0,0.167-0.005,0.25-0.011
			c0.109-0.007,0.239-0.016,0.392-0.016c1.145,0,3.5-2.471,3.5-4C14,9.241,13.802,9.024,13.543,9.002z"/>
		<path d="M20.323,11.963c-1.26-0.131-2.976-0.538-3.331-2.55c-0.044-0.254-0.263-0.437-0.536-0.411C16.198,9.024,16,9.241,16,9.5
			c0,1.529,2.355,4,3.5,4c0.152,0,0.282,0.009,0.392,0.016c0.083,0.005,0.167,0.011,0.25,0.011c0.213,0,0.421-0.036,0.598-0.201
			C20.969,13.11,21,12.802,21,12.5C21,12.033,20.543,11.985,20.323,11.963z"/>
		<path d="M14.276,14.947c0.247,0.124,0.547,0.024,0.671-0.224L15,14.618l0.053,0.105C15.141,14.899,15.317,15,15.5,15
			c0.075,0,0.151-0.017,0.223-0.053c0.247-0.124,0.347-0.424,0.224-0.671l-0.5-1c-0.17-0.339-0.725-0.339-0.895,0l-0.5,1
			C13.929,14.523,14.029,14.824,14.276,14.947z"/>
		<path d="M15,17c-0.492,0-0.861,0.152-1.098,0.451c-0.437,0.552-0.247,1.352-0.064,2.126C13.917,19.915,14,20.264,14,20.5
			l-0.002,0.399c-0.019,2.221,0.053,3.432,0.504,3.887C14.639,24.924,14.815,25,15,25s0.361-0.076,0.499-0.214
			c0.451-0.455,0.523-1.666,0.504-3.887L16,20.5c0-0.236,0.083-0.585,0.162-0.923c0.184-0.773,0.373-1.574-0.063-2.126
			C15.861,17.152,15.492,17,15,17z"/>
		<path d="M15,0C6.729,0,0,6.729,0,15c0,8.271,6.729,15,15,15c8.271,0,15-6.729,15-15C30,6.729,23.271,0,15,0z M19.016,17.375
			l-0.158,0.643C16.963,25.833,15.627,27,15,27s-1.963-1.168-3.859-8.987l-0.157-0.638c-0.23-0.892-1.01-1.316-1.765-1.728
			C8.297,15.144,7.5,14.708,7.5,13.5c0-0.102,0.023-2.5,2-2.5c0.276,0,0.5-0.224,0.5-0.5c0-3.898,2.563-6.17,4.566-6.465
			C14.711,4.024,14.852,4,15,4c0.148,0,0.289,0.024,0.434,0.035C17.437,4.33,20,6.603,20,10.5c0,0.276,0.224,0.5,0.5,0.5
			c1.978,0,2,2.398,2,2.5c0,1.209-0.797,1.644-1.72,2.147C20.026,16.059,19.246,16.483,19.016,17.375z M24.722,25.052l-3.881-1.941
			C22.042,20.84,24,16.724,24,14c0-3.614-2.984-10.518-8.456-10.958C15.359,3.017,15.177,3,15,3c-0.177,0-0.359,0.017-0.544,0.042
			C8.984,3.482,6,10.386,6,14c0,2.724,1.958,6.84,3.159,9.111l-3.881,1.941C2.645,22.505,1,18.944,1,15C1,7.28,7.28,1,15,1
			s14,6.28,14,14C29,18.944,27.355,22.505,24.722,25.052z"/>
	</g>
</g>
<g id="Jason">
</g>
<g id="Charlie_Chaplin">
</g>
</svg>
