<?xml version="1.0" encoding="iso-8859-1"?>
<!-- Generator: Adobe Illustrator 19.2.1, SVG Export Plug-In . SVG Version: 6.00 Build 0)  -->
<svg version="1.1" xmlns="http://www.w3.org/2000/svg" xmlns:xlink="http://www.w3.org/1999/xlink" x="0px" y="0px"
	 viewBox="0 0 30 30" style="enable-background:new 0 0 30 30;" xml:space="preserve">
<g id="Cad_1">
</g>
<g id="Cad_2">
</g>
<g id="Cad_Pencil">
</g>
<g id="Cad_Compasses">
</g>
<g id="Tools_1">
</g>
<g id="Tools_2">
</g>
<g id="Ruler_1">
</g>
<g id="Ruler_2">
</g>
<g id="Workspace_1">
</g>
<g id="Workspace_2">
</g>
<g id="Cad_3">
</g>
<g id="_x33_D_Box">
</g>
<g id="Section_Symbol">
	<path d="M28.895,18.188l-14-18c-0.189-0.243-0.6-0.243-0.789,0l-14,18c-0.117,0.151-0.139,0.355-0.055,0.527s0.258,0.28,0.449,0.28
		h2.525c0.265,6.109,5.302,11,11.475,11s11.21-4.891,11.475-11H28.5c0.191,0,0.365-0.109,0.449-0.28S29.012,18.339,28.895,18.188z
		 M15,28.969V18.495c0-0.276-0.224-0.5-0.5-0.5s-0.5,0.224-0.5,0.5v10.475C8.443,28.706,4,24.116,4,18.495
		c0-5.79,4.71-10.5,10.5-10.5s10.5,4.71,10.5,10.5C25,24.116,20.557,28.706,15,28.969z"/>
</g>
<g id="Outlet_Symbol">
</g>
<g id="Cad_File">
</g>
<g id="Blueprint">
</g>
<g id="Construction_Plan">
</g>
<g id="Roof_Plan">
</g>
<g id="House_Construction">
</g>
<g id="Building_Construction">
</g>
<g id="Work_Table">
</g>
<g id="Table_Cad">
</g>
<g id="House_Plan">
</g>
<g id="Tape_Measure">
</g>
<g id="Cad_Paper">
</g>
<g id="Cad_Papers">
</g>
<g id="Stairs">
</g>
<g id="Pillar">
</g>
<g id="Bricks">
</g>
<g id="Pantheon">
</g>
<g id="House">
</g>
<g id="Skyscraper">
</g>
<g id="Building">
</g>
</svg>
