<?xml version="1.0" encoding="iso-8859-1"?>
<!-- Generator: Adobe Illustrator 19.2.1, SVG Export Plug-In . SVG Version: 6.00 Build 0)  -->
<svg version="1.1" xmlns="http://www.w3.org/2000/svg" xmlns:xlink="http://www.w3.org/1999/xlink" x="0px" y="0px"
	 viewBox="0 0 30 30" style="enable-background:new 0 0 30 30;" xml:space="preserve">
<g id="Mail">
</g>
<g id="Open_Mail">
</g>
<g id="Mail_Attachmet">
</g>
<g id="Mails">
</g>
<g id="Trash">
</g>
<g id="Trash_Full">
</g>
<g id="Preferences_1">
</g>
<g id="Preferences_2">
</g>
<g id="Mouse">
</g>
<g id="Computer">
</g>
<g id="Notebook">
</g>
<g id="Mobile_Phone">
</g>
<g id="Print">
</g>
<g id="Calculator">
</g>
<g id="Tag">
</g>
<g id="Paperclip">
</g>
<g id="Heart">
</g>
<g id="Lock">
</g>
<g id="Lock_Open">
</g>
<g id="Key_1">
</g>
<g id="Star">
</g>
<g id="Add">
</g>
<g id="Remove">
</g>
<g id="Error">
</g>
<g id="Check_1">
</g>
<g id="Time">
</g>
<g id="Question_Mark">
</g>
<g id="Error_Mark">
</g>
<g id="Sand-Glass">
</g>
<g id="Battery_Full">
</g>
<g id="Battery_Charge">
</g>
<g id="Battery_Half">
</g>
<g id="Battery_Low">
</g>
<g id="No_Battery">
</g>
<g id="Key_2">
</g>
<g id="Link">
</g>
<g id="Brake_Link">
</g>
<g id="Pencil">
</g>
<g id="At">
</g>
<g id="Reply">
</g>
<g id="Accessible">
</g>
<g id="Up_Arrow">
</g>
<g id="Brush">
</g>
<g id="Design_Mug">
</g>
<g id="Design">
</g>
<g id="Server">
	<path d="M27.5,12c1.379,0,2.5-1.122,2.5-2.5v-4C30,4.122,28.879,3,27.5,3h-25C1.122,3,0,4.122,0,5.5v4C0,10.878,1.122,12,2.5,12H11
		v1H2.5C1.122,13,0,14.122,0,15.5v4C0,20.878,1.122,22,2.5,22H11v1H9.5C9.224,23,9,23.224,9,23.5V24H8.5C8.224,24,8,24.224,8,24.5
		V26H2.5C2.224,26,2,26.224,2,26.5S2.224,27,2.5,27H8v0.5C8,27.776,8.224,28,8.5,28h6c0.276,0,0.5-0.224,0.5-0.5V27h6.5
		c0.276,0,0.5-0.224,0.5-0.5S21.776,26,21.5,26H15v-1.5c0-0.276-0.224-0.5-0.5-0.5H14v-0.5c0-0.276-0.224-0.5-0.5-0.5H12v-1h15.5
		c1.379,0,2.5-1.122,2.5-2.5v-4c0-1.378-1.121-2.5-2.5-2.5H12v-1H27.5z M5,19.5c-1.103,0-2-0.897-2-2s0.897-2,2-2s2,0.897,2,2
		S6.103,19.5,5,19.5z M25,15.5c0-0.276,0.224-0.5,0.5-0.5s0.5,0.224,0.5,0.5v4c0,0.276-0.224,0.5-0.5,0.5S25,19.776,25,19.5V15.5z
		 M23,15.5c0-0.276,0.224-0.5,0.5-0.5s0.5,0.224,0.5,0.5v4c0,0.276-0.224,0.5-0.5,0.5S23,19.776,23,19.5V15.5z M20,15.5
		c0-0.276,0.224-0.5,0.5-0.5s0.5,0.224,0.5,0.5v4c0,0.276-0.224,0.5-0.5,0.5S20,19.776,20,19.5V15.5z M18,15.5
		c0-0.276,0.224-0.5,0.5-0.5s0.5,0.224,0.5,0.5v4c0,0.276-0.224,0.5-0.5,0.5S18,19.776,18,19.5V15.5z M25,5.5
		C25,5.224,25.224,5,25.5,5S26,5.224,26,5.5v4c0,0.276-0.224,0.5-0.5,0.5S25,9.776,25,9.5V5.5z M23,5.5C23,5.224,23.224,5,23.5,5
		S24,5.224,24,5.5v4c0,0.276-0.224,0.5-0.5,0.5S23,9.776,23,9.5V5.5z M20,5.5C20,5.224,20.224,5,20.5,5S21,5.224,21,5.5v4
		c0,0.276-0.224,0.5-0.5,0.5S20,9.776,20,9.5V5.5z M18,5.5C18,5.224,18.224,5,18.5,5S19,5.224,19,5.5v4c0,0.276-0.224,0.5-0.5,0.5
		S18,9.776,18,9.5V5.5z M5,9.5c-1.103,0-2-0.897-2-2s0.897-2,2-2s2,0.897,2,2S6.103,9.5,5,9.5z"/>
</g>
<g id="Database">
</g>
<g id="Save">
</g>
<g id="Female">
</g>
<g id="Male">
</g>
<g id="Book">
</g>
<g id="Power">
</g>
<g id="Reload">
</g>
<g id="Map">
</g>
<g id="Loction_1">
</g>
<g id="Location_2">
</g>
<g id="Globe">
</g>
<g id="Suitcase">
</g>
<g id="Callendar">
</g>
<g id="Cloud_Off">
</g>
<g id="File_1">
</g>
<g id="File_2">
</g>
<g id="Folder">
</g>
<g id="Open_Folder">
</g>
<g id="Cloud">
</g>
<g id="Upload_Cloud">
</g>
<g id="Download_Cloud">
</g>
<g id="Eye">
</g>
<g id="Invisible">
</g>
<g id="Assignment">
</g>
<g id="Note_Book">
</g>
<g id="Webpage">
</g>
<g id="Mailbox">
</g>
<g id="Drive">
</g>
<g id="Disc">
</g>
<g id="Wifi_1">
</g>
<g id="Wifi_2">
</g>
<g id="Archive">
</g>
<g id="Archive_File">
</g>
<g id="News">
</g>
<g id="Home">
</g>
<g id="Collaboration">
</g>
<g id="Announcement">
</g>
<g id="Watch">
</g>
<g id="Clock">
</g>
<g id="Volume">
</g>
<g id="Mute">
</g>
<g id="Hand">
</g>
<g id="Layers">
</g>
<g id="Bell">
</g>
<g id="Speach_Bubble">
</g>
<g id="Speach_Bubbles">
</g>
<g id="Zoom_In">
</g>
<g id="Zoom_Out">
</g>
<g id="Search">
</g>
<g id="Back_Arrow">
</g>
<g id="Close">
</g>
<g id="Check_2">
</g>
<g id="Left_Arrow_2">
</g>
<g id="Right_Arrow_2">
</g>
</svg>
