<?xml version="1.0" encoding="iso-8859-1"?>
<!-- Generator: Adobe Illustrator 19.2.1, SVG Export Plug-In . SVG Version: 6.00 Build 0)  -->
<svg version="1.1" xmlns="http://www.w3.org/2000/svg" xmlns:xlink="http://www.w3.org/1999/xlink" x="0px" y="0px"
	 viewBox="0 0 30 30" style="enable-background:new 0 0 30 30;" xml:space="preserve">
<g id="Flag">
</g>
<g id="Umbrella">
</g>
<g id="Briefcase">
</g>
<g id="Box">
</g>
<g id="Magnet">
</g>
<g id="Percent">
</g>
<g id="Rocket">
</g>
<g id="Share">
	<g>
		<g>
			<path d="M25,10c-2.757,0-5-2.243-5-5s2.243-5,5-5s5,2.243,5,5S27.757,10,25,10z M25,1c-2.206,0-4,1.794-4,4s1.794,4,4,4
				s4-1.794,4-4S27.206,1,25,1z"/>
		</g>
		<g>
			<path d="M25,30c-2.757,0-5-2.243-5-5s2.243-5,5-5s5,2.243,5,5S27.757,30,25,30z M25,21c-2.206,0-4,1.794-4,4s1.794,4,4,4
				s4-1.794,4-4S27.206,21,25,21z"/>
		</g>
		<g>
			<path d="M5,20c-2.757,0-5-2.243-5-5s2.243-5,5-5s5,2.243,5,5S7.757,20,5,20z M5,11c-2.206,0-4,1.794-4,4s1.794,4,4,4s4-1.794,4-4
				S7.206,11,5,11z"/>
		</g>
		<g>
			<path d="M20.98,23.49c-0.075,0-0.151-0.017-0.224-0.053l-11.961-5.98c-0.247-0.124-0.347-0.424-0.224-0.671
				c0.124-0.247,0.424-0.345,0.671-0.224l11.961,5.98c0.247,0.124,0.347,0.424,0.224,0.671C21.34,23.389,21.163,23.49,20.98,23.49z"
				/>
		</g>
		<g>
			<path d="M9.02,13.49c-0.183,0-0.359-0.101-0.447-0.276c-0.123-0.247-0.023-0.547,0.224-0.671l11.961-5.98
				c0.247-0.122,0.547-0.023,0.671,0.224c0.123,0.247,0.023,0.547-0.224,0.671l-11.961,5.98C9.171,13.473,9.095,13.49,9.02,13.49z"
				/>
		</g>
	</g>
</g>
<g id="Transmitter">
</g>
<g id="Record_2">
</g>
<g id="Record_1">
</g>
<g id="Anchor">
</g>
<g id="Airplane">
</g>
<g id="Car">
</g>
<g id="Newsfeed">
</g>
<g id="Wifi_Tethering">
</g>
<g id="No_Wifi_Tethering">
</g>
<g id="Bar_Chart_2">
</g>
<g id="Shop">
</g>
<g id="Alarm">
</g>
<g id="Sim_Card">
</g>
<g id="Radar">
</g>
<g id="Hand_2">
</g>
<g id="Palette">
</g>
<g id="Cake">
</g>
<g id="Blende">
</g>
<g id="Feather_Pen">
</g>
<g id="Ticket">
</g>
<g id="Medal">
</g>
<g id="Mouse_Pointer_1">
</g>
<g id="Mouse_Pointer_2">
</g>
<g id="Fingerprint">
</g>
<g id="Earth">
</g>
</svg>
