<?xml version="1.0" encoding="iso-8859-1"?>
<!-- Generator: Adobe Illustrator 19.2.1, SVG Export Plug-In . SVG Version: 6.00 Build 0)  -->
<svg version="1.1" xmlns="http://www.w3.org/2000/svg" xmlns:xlink="http://www.w3.org/1999/xlink" x="0px" y="0px"
	 viewBox="0 0 30 30" style="enable-background:new 0 0 30 30;" xml:space="preserve">
<g id="Egg">
</g>
<g id="Easter_Egg_1">
</g>
<g id="Easter_Egg_2">
</g>
<g id="Easter_Egg_3">
</g>
<g id="Eggs_1">
</g>
<g id="Eggs_2">
</g>
<g id="Bunny">
</g>
<g id="Sheep">
</g>
<g id="Bell_Alarm">
</g>
<g id="Calendar">
</g>
<g id="Tulip">
</g>
<g id="Chicken">
</g>
<g id="Chicken_2">
</g>
<g id="Baguette">
</g>
<g id="Ham">
</g>
<g id="Bell_2">
</g>
<g id="Bell_3">
</g>
<g id="Bell_4">
</g>
<g id="Easter_celebration">
</g>
<g id="Egg_painting">
</g>
<g id="Easter_willow">
</g>
<g id="Daffodil">
</g>
<g id="Easter_message">
</g>
<g id="Bunny_2">
</g>
<g id="Chicken_3">
</g>
<g id="Tulip_2">
</g>
<g id="Easter_basket">
</g>
<g id="Bread_and_wine">
</g>
<g id="Sheep_2">
	<g>
		<path d="M5.789,15.357c0.306,0.742,1.016,1.24,1.842,1.24c0.299,0,0.59-0.066,0.856-0.192c0.525,0.865,1.468,1.414,2.503,1.414
			c0.989,0,1.886-0.486,2.429-1.294c0.943,0.217,1.899-0.064,2.586-0.678c0.435,0.469,1.052,0.75,1.706,0.75
			c0.742,0,1.431-0.36,1.863-0.94c0.356,0.215,0.764,0.329,1.19,0.329c1.214,0,2.214-0.931,2.323-2.117
			c0.603-0.323,1.033-0.894,1.178-1.554c0.944,0.064,1.765-0.446,2.072-1.27c0.258-0.69,0.091-1.426-0.443-2.025
			c0.278-0.786,0.872-2.83,0.126-4.238c-0.359-0.678-0.963-1.116-1.793-1.301c-0.085-0.224-0.218-0.428-0.398-0.607
			c-0.031-0.031-0.087-0.055-0.125-0.077c-0.03-0.039-0.099-0.111-0.14-0.14c-0.488-0.339-1.215-0.531-1.901-0.501
			c-0.685,0.025-1.317,0.287-1.789,0.729c-0.37-0.139-0.742-0.155-1.116-0.054c-0.61-0.803-1.563-1.287-2.574-1.287
			c-1.146,0-2.191,0.616-2.769,1.57c-0.65-0.611-1.511-0.959-2.424-0.959c-1.141,0-2.204,0.557-2.869,1.479
			C7.662,3.464,7.19,3.378,6.714,3.378c-2.296,0-4.165,1.869-4.165,4.165c0,0.986,0.359,1.938,1.002,2.688
			c-0.629,0.552-1.002,1.35-1.002,2.199C2.549,14.151,4.017,15.563,5.789,15.357z"/>
		<path d="M25.181,13.21c-0.067,0.017-0.128,0.049-0.196,0.061c-0.229,0.47-0.566,0.881-0.987,1.199
			c-0.364,1.465-1.675,2.515-3.232,2.515c-0.326,0-0.647-0.048-0.956-0.14c-1.062,0.865-2.674,0.976-3.845,0.251
			c-0.647,0.361-1.386,0.531-2.121,0.494c-0.735,0.777-1.762,1.228-2.853,1.228c-1.094,0-2.141-0.469-2.877-1.26
			c-1.096,0.18-2.245-0.299-2.895-1.188c-0.492-0.028-0.963-0.158-1.403-0.365l0,0.04C3.815,21.688,8.383,28,14.497,28
			s10.682-6.312,10.682-11.954L25.181,13.21z M10.106,20.926l-0.373,0.318c-0.094,0.08-0.209,0.119-0.324,0.119
			c-0.141,0-0.282-0.06-0.38-0.176c-0.179-0.21-0.154-0.525,0.056-0.705l0.373-0.317c0.686-0.586,1.761-0.587,2.449,0.001
			l0.372,0.316c0.21,0.179,0.235,0.494,0.057,0.705c-0.179,0.21-0.493,0.236-0.705,0.057l-0.373-0.317
			C10.945,20.659,10.417,20.661,10.106,20.926z M13.227,25.454c-0.276,0-0.5-0.224-0.5-0.5c0-0.426-0.347-0.772-0.772-0.772
			c-0.276,0-0.5-0.224-0.5-0.5s0.224-0.5,0.5-0.5c0.978,0,1.772,0.795,1.772,1.772C13.727,25.23,13.503,25.454,13.227,25.454z
			 M17.046,24.182c-0.426,0-0.772,0.347-0.772,0.772c0,0.276-0.225,0.5-0.5,0.5c-0.276,0-0.5-0.224-0.5-0.5
			c0-0.978,0.795-1.772,1.773-1.772c0.276,0,0.5,0.224,0.5,0.5S17.322,24.182,17.046,24.182z M19.972,20.188
			c-0.18,0.211-0.493,0.235-0.705,0.057l-0.373-0.317c-0.312-0.268-0.84-0.268-1.15-0.001l-0.373,0.318
			c-0.094,0.08-0.209,0.119-0.324,0.119c-0.141,0-0.281-0.06-0.381-0.176c-0.179-0.21-0.153-0.525,0.057-0.705l0.372-0.317
			c0.687-0.588,1.763-0.587,2.449,0.001l0.372,0.316C20.125,19.661,20.15,19.977,19.972,20.188z"/>
		<path d="M24.517,22.322c1.574,0.549,3.568,0.585,3.949,0.587c-0.654-1.854-1.752-3.19-2.638-4.039
			C25.549,20.056,25.105,21.222,24.517,22.322z"/>
		<path d="M2.949,17.718c-0.079-0.56-0.134-1.119-0.134-1.672l0.004-1.703c-0.044,0.023-0.091,0.041-0.128,0.077
			c-0.103,0.103-2.396,2.452-2.665,7.095C0.889,19.698,2.08,18.459,2.949,17.718z"/>
		<path d="M26.179,16.047c0,0.551-0.054,1.109-0.133,1.666c0.866,0.737,2.054,1.97,2.917,3.778
			c-0.234-3.265-1.682-5.207-2.783-6.229L26.179,16.047z"/>
		<path d="M0.533,22.909c0.379-0.001,2.371-0.038,3.944-0.585c-0.588-1.099-1.032-2.264-1.311-3.45
			C2.281,19.724,1.187,21.058,0.533,22.909z"/>
	</g>
</g>
<g id="Candle_Light">
</g>
</svg>
