<?xml version="1.0" encoding="iso-8859-1"?>
<!-- Generator: Adobe Illustrator 19.2.1, SVG Export Plug-In . SVG Version: 6.00 Build 0)  -->
<svg version="1.1" xmlns="http://www.w3.org/2000/svg" xmlns:xlink="http://www.w3.org/1999/xlink" x="0px" y="0px"
	 viewBox="0 0 24 24" style="enable-background:new 0 0 24 24;" xml:space="preserve">
<g id="Egg_1_">
</g>
<g id="Easter_Egg_1">
</g>
<g id="Easter_Egg_2">
</g>
<g id="Easter_Egg_3">
</g>
<g id="Eggs_1">
</g>
<g id="Eggs_2_1_">
</g>
<g id="Bunny">
</g>
<g id="Sheep">
</g>
<g id="Bell_Alarm">
</g>
<g id="Calendar">
</g>
<g id="Tulip">
</g>
<g id="Chicken">
</g>
<g id="Chicken_2">
</g>
<g id="Baguette">
</g>
<g id="Ham_1_">
</g>
<g id="Bell_2">
</g>
<g id="Bell_3">
</g>
<g id="Bell_4">
</g>
<g id="Easter_celebration">
</g>
<g id="Egg_painting">
</g>
<g id="Easter_willow">
</g>
<g id="Daffodil">
</g>
<g id="Easter_message">
</g>
<g id="Bunny_2">
</g>
<g id="Chicken_3">
</g>
<g id="Tulip_2">
</g>
<g id="Easter_basket">
</g>
<g id="Bread_and_wine">
</g>
<g id="Sheep_2">
	<g>
		<path d="M5.089,12.573c0.36,0.772,1.343,1.168,2.145,0.844c0.44,0.666,1.189,1.083,2.009,1.083c0.788,0,1.506-0.376,1.956-1.004
			c0.712,0.142,1.438-0.063,1.978-0.505c0.766,0.742,2.161,0.661,2.838-0.158c0.277,0.148,0.586,0.227,0.909,0.227
			c0.989,0,1.809-0.745,1.925-1.704c0.437-0.252,0.756-0.667,0.894-1.177c0.748,0.018,1.411-0.401,1.661-1.071
			c0.209-0.563,0.086-1.16-0.327-1.65C21.312,6.78,21.74,5.22,21.146,4.1c-0.285-0.539-0.776-0.905-1.425-1.063
			c-0.072-0.169-0.178-0.325-0.317-0.462c-0.03-0.03-0.107-0.094-0.144-0.115c-0.023-0.025-0.049-0.047-0.077-0.066
			c-0.401-0.279-0.965-0.437-1.56-0.413C17.083,2,16.581,2.199,16.198,2.538c-0.269-0.089-0.542-0.101-0.812-0.041
			C14.886,1.874,14.127,1.5,13.322,1.5c-0.894,0-1.713,0.458-2.197,1.177C10.607,2.232,9.943,1.98,9.242,1.98
			c-0.904,0-1.748,0.428-2.292,1.141C6.601,3.001,6.243,2.94,5.883,2.94c-1.863,0-3.38,1.516-3.38,3.38
			c0,0.767,0.267,1.506,0.747,2.102c-0.471,0.45-0.747,1.075-0.747,1.738C2.503,11.549,3.671,12.688,5.089,12.573z"/>
		<path d="M20.499,11.084c-0.021,0.005-0.039,0.017-0.06,0.021c-0.178,0.323-0.413,0.608-0.695,0.841
			c-0.36,1.232-1.499,2.113-2.821,2.113c-0.237,0-0.469-0.027-0.693-0.082c-0.487,0.337-1.086,0.522-1.723,0.522
			c-0.485,0-0.946-0.108-1.354-0.313c-0.466,0.23-0.981,0.354-1.504,0.354c-0.012,0-0.024,0-0.037,0
			c-0.433,0.419-0.975,0.705-1.558,0.849l0.27,0.23c0.21,0.179,0.235,0.495,0.056,0.705C10.281,16.44,10.141,16.5,10,16.5
			c-0.115,0-0.23-0.039-0.324-0.12l-0.293-0.25c-0.205-0.174-0.561-0.174-0.766,0l-0.293,0.25C8.116,16.559,7.8,16.536,7.62,16.325
			c-0.18-0.21-0.154-0.526,0.056-0.705l0.293-0.25c0.04-0.035,0.092-0.048,0.136-0.078c-0.465-0.166-0.894-0.42-1.25-0.769
			c-0.071,0.006-0.144,0.008-0.216,0.008c-0.808,0-1.583-0.371-2.09-0.967c-0.368-0.037-0.714-0.145-1.038-0.292
			c0.142,4.413,3.719,9.228,8.487,9.228c4.865,0,8.5-5.016,8.5-9.5L20.499,11.084z M11,20.5c-0.276,0-0.5-0.224-0.5-0.5
			c0-0.276-0.225-0.5-0.5-0.5c-0.276,0-0.5-0.224-0.5-0.5s0.224-0.5,0.5-0.5c0.827,0,1.5,0.673,1.5,1.5
			C11.5,20.276,11.276,20.5,11,20.5z M14,19.5c-0.275,0-0.5,0.224-0.5,0.5c0,0.276-0.224,0.5-0.5,0.5s-0.5-0.224-0.5-0.5
			c0-0.827,0.673-1.5,1.5-1.5c0.276,0,0.5,0.224,0.5,0.5S14.276,19.5,14,19.5z M16.38,16.325C16.281,16.44,16.141,16.5,16,16.5
			c-0.115,0-0.23-0.039-0.324-0.12l-0.293-0.25c-0.205-0.174-0.561-0.174-0.766,0l-0.293,0.25c-0.208,0.178-0.524,0.156-0.704-0.056
			c-0.18-0.21-0.154-0.526,0.056-0.705l0.293-0.25c0.578-0.494,1.484-0.494,2.063,0l0.293,0.25
			C16.534,15.799,16.56,16.114,16.38,16.325z"/>
		<path d="M2.512,13.304c-0.007-0.212,0.06-0.413,0.174-0.584c-0.177-0.157-0.348-0.321-0.491-0.512C1.565,13.084,0.5,14.999,0.5,18
			c0,0.007,0.004,0.012,0.004,0.019c-0.002-0.059,0.002-0.118,0.022-0.177c0.557-1.671,1.403-2.749,2.096-3.412
			C2.564,14.053,2.524,13.677,2.512,13.304z"/>
		<path d="M1.475,18.158C1.404,18.368,1.209,18.5,1,18.5c0.223,0,1.636-0.016,2.869-0.374c-0.43-0.799-0.762-1.642-0.994-2.497
			C2.381,16.212,1.852,17.026,1.475,18.158z"/>
		<path d="M21.498,12.551l0,0.451c0,0.473-0.045,0.951-0.118,1.429c0.692,0.664,1.539,1.741,2.095,3.412
			c0.02,0.059,0.024,0.119,0.022,0.177c0-0.007,0.004-0.012,0.004-0.019C23.5,15.21,22.419,13.503,21.498,12.551z"/>
		<path d="M22.525,18.158c-0.376-1.129-0.903-1.942-1.397-2.525c-0.234,0.855-0.572,1.695-1.003,2.491
			C21.36,18.484,22.777,18.5,23,18.5C22.791,18.5,22.596,18.368,22.525,18.158z"/>
	</g>
</g>
<g id="Candle_Light">
</g>
</svg>
