<?xml version="1.0" encoding="iso-8859-1"?>
<!-- Generator: Adobe Illustrator 19.2.1, SVG Export Plug-In . SVG Version: 6.00 Build 0)  -->
<svg version="1.1" xmlns="http://www.w3.org/2000/svg" xmlns:xlink="http://www.w3.org/1999/xlink" x="0px" y="0px"
	 viewBox="0 0 30 30" style="enable-background:new 0 0 30 30;" xml:space="preserve">
<g id="Egg">
</g>
<g id="Easter_Egg_1">
</g>
<g id="Easter_Egg_2">
</g>
<g id="Easter_Egg_3">
</g>
<g id="Eggs_1">
</g>
<g id="Eggs_2">
</g>
<g id="Bunny">
</g>
<g id="Sheep">
	<g>
		<path d="M24.456,5.042c-0.528,0-1.215,0.127-1.77,0.313c-0.192-0.462-0.462-0.947-0.707-1.192c-0.36-0.361-0.814-0.47-1.283-0.302
			c-0.297,0.106-0.589,0.313-0.946,0.671c-0.047,0.047-0.081,0.1-0.119,0.151c0.663,0.081,1.279,0.301,1.767,0.64
			c0.066,0.046,0.13,0.098,0.188,0.154l0.001,0.001c0.074,0.051,0.144,0.109,0.208,0.173c0.556,0.55,0.838,1.288,0.79,2.073
			c-0.015,0.25-0.094,0.487-0.222,0.693l0.832,2.804c0.12,0.057,0.234,0.129,0.338,0.219l0.003,0.002
			c0.687,0.596,1.076,1.361,1.14,2.15C26.974,13.446,30,11.056,30,8.694C30,6.203,26.691,5.042,24.456,5.042z M24.457,8.694
			c-0.348,0-0.63-0.282-0.63-0.63c0-0.348,0.282-0.63,0.63-0.63c0.348,0,0.63,0.282,0.63,0.63
			C25.087,8.412,24.805,8.694,24.457,8.694z"/>
		<path d="M22.415,12.106L21.23,8.11c0.192-0.059,0.345-0.23,0.358-0.445c0.03-0.501-0.143-0.953-0.499-1.306
			C21.06,6.33,21.026,6.304,20.99,6.283c-0.005-0.003-0.074-0.064-0.08-0.067c-0.024-0.026-0.052-0.05-0.082-0.071
			c-0.485-0.337-1.183-0.522-1.888-0.497c-0.679,0.024-1.306,0.283-1.773,0.721c-0.368-0.137-0.734-0.152-1.103-0.053
			c-0.606-0.795-1.549-1.274-2.552-1.274c-1.135,0-2.169,0.609-2.744,1.553c-0.645-0.604-1.497-0.948-2.401-0.948
			c-1.131,0-2.184,0.551-2.843,1.463C5.069,6.943,4.603,6.858,4.131,6.858C1.854,6.858,0,8.711,0,10.989
			c0,0.976,0.355,1.918,0.991,2.662C0.369,14.2,0,14.99,0,15.831c0,1.707,1.451,3.107,3.211,2.904
			c0.304,0.734,1.008,1.228,1.828,1.228c0.296,0,0.584-0.065,0.847-0.188c0.522,0.856,1.456,1.399,2.482,1.399
			c0.979,0,1.869-0.481,2.408-1.281c0.935,0.213,1.88-0.064,2.559-0.671c0.432,0.464,1.043,0.741,1.69,0.741
			c0.736,0,1.419-0.357,1.849-0.932c0.354,0.211,0.762,0.326,1.178,0.326c1.203,0,2.195-0.923,2.306-2.099
			c0.596-0.32,1.021-0.884,1.166-1.538c0.921,0.059,1.749-0.445,2.054-1.261c0.292-0.785,0.032-1.63-0.695-2.26
			C22.748,12.084,22.573,12.06,22.415,12.106z"/>
		<path d="M5.512,20.925c-1.09,0.173-2.224-0.297-2.869-1.177c-0.074-0.004-0.146-0.023-0.219-0.031l-0.53,5.737
			c-0.013,0.14,0.034,0.279,0.128,0.383S2.25,26,2.391,26h1.381c0.944,0,1.665-0.607,1.738-1.402l0.788-3.043
			C6.014,21.375,5.744,21.173,5.512,20.925z"/>
		<path d="M7.714,22.104c-0.168-0.029-0.329-0.076-0.491-0.127L6.496,24.78c-0.051,0.387-0.201,0.738-0.414,1.048
			C6.324,25.936,6.6,26,6.915,26h1.151c0.154,0,0.3-0.071,0.395-0.193s0.127-0.281,0.089-0.431L7.714,22.104z"/>
		<path d="M13.794,20.712c-0.173-0.067-0.341-0.146-0.499-0.244c-0.35,0.195-0.726,0.33-1.114,0.411l-1.173,4.495
			c-0.039,0.149-0.006,0.309,0.088,0.432S11.336,26,11.491,26h1.151c0.706,0,1.252-0.282,1.518-0.764l0.079-0.12
			c-0.06-0.19-0.107-0.388-0.128-0.597L13.794,20.712z"/>
		<path d="M17.108,20.218c-0.639,0.518-1.475,0.757-2.293,0.711l0.291,3.491C15.2,25.351,15.884,26,16.771,26H18.5
			c0.276,0,0.5-0.224,0.5-0.5v-5.289c-0.302,0.089-0.618,0.146-0.948,0.146C17.731,20.356,17.414,20.31,17.108,20.218z"/>
	</g>
</g>
<g id="Bell_Alarm">
</g>
<g id="Calendar">
</g>
<g id="Tulip">
</g>
<g id="Chicken">
</g>
<g id="Chicken_2">
</g>
<g id="Baguette">
</g>
<g id="Ham">
</g>
<g id="Bell_2">
</g>
<g id="Bell_3">
</g>
<g id="Bell_4">
</g>
<g id="Easter_celebration">
</g>
<g id="Egg_painting">
</g>
<g id="Easter_willow">
</g>
<g id="Daffodil">
</g>
<g id="Easter_message">
</g>
<g id="Bunny_2">
</g>
<g id="Chicken_3">
</g>
<g id="Tulip_2">
</g>
<g id="Easter_basket">
</g>
<g id="Bread_and_wine">
</g>
<g id="Sheep_2">
</g>
<g id="Candle_Light">
</g>
</svg>
