<?xml version="1.0" encoding="iso-8859-1"?>
<!-- Generator: Adobe Illustrator 19.2.1, SVG Export Plug-In . SVG Version: 6.00 Build 0)  -->
<svg version="1.1" xmlns="http://www.w3.org/2000/svg" xmlns:xlink="http://www.w3.org/1999/xlink" x="0px" y="0px"
	 viewBox="0 0 30 30" style="enable-background:new 0 0 30 30;" xml:space="preserve">
<g id="Sun_Light">
</g>
<g id="Sunglasses">
</g>
<g id="T-Shirt_1">
</g>
<g id="T-Shirt_2">
</g>
<g id="Mini_Dress">
</g>
<g id="Flip-Flops">
</g>
<g id="Temperature">
</g>
<g id="Hot_Temperature">
</g>
<g id="Ice_Lolly">
</g>
<g id="Icecream">
</g>
<g id="Limonade_1">
</g>
<g id="Limonade_2">
</g>
<g id="Hat">
</g>
<g id="Straw_Hat">
</g>
<g id="Deckchair">
</g>
<g id="Sunshade">
</g>
<g id="Suncream">
</g>
<g id="Suntan_Oil">
</g>
<g id="Swimming_Trunks">
</g>
<g id="Bikini">
</g>
<g id="Pool">
</g>
<g id="Pool_Ladder">
</g>
<g id="Grill">
</g>
<g id="Kite_1">
</g>
<g id="Kite_2">
</g>
<g id="Badminton">
</g>
<g id="Cooler">
</g>
<g id="Strand_Bag">
</g>
<g id="Towel">
</g>
<g id="Strand_Ball">
</g>
<g id="Beach_Sign">
</g>
<g id="Toos">
</g>
<g id="Bucket">
</g>
<g id="Sand_Castle">
</g>
<g id="Shell_1">
</g>
<g id="Shell_2">
	<g>
		<path d="M5.709,21.513c-0.163-0.196-0.396-0.306-0.648-0.306c-0.023,0-0.046,0.001-0.07,0.003
			c-0.278,0.022-0.52,0.173-0.662,0.413l-4.225,7.121c-0.167,0.301-0.137,0.653,0.088,0.932c0.223,0.278,0.562,0.382,0.904,0.281
			c0.007-0.003,0.014-0.005,0.021-0.006l8.296-2.096c0.289-0.073,0.507-0.277,0.599-0.561c0.092-0.283,0.035-0.576-0.155-0.805
			L5.709,21.513z"/>
		<path d="M9.762,14.69c-0.181-0.204-0.439-0.309-0.713-0.281c-0.271,0.025-0.508,0.174-0.648,0.408l-2.115,3.523
			c-0.48,0.801-0.401,1.819,0.196,2.536l4.336,5.204c0.583,0.701,1.519,0.965,2.381,0.678l4.404-1.468
			c0.275-0.092,0.476-0.305,0.551-0.585c0.075-0.281,0.008-0.566-0.186-0.783L9.762,14.69z"/>
		<path d="M28.958,1.761c-1.041-1.166-2.795-1.756-5.213-1.756c-7.949,0-9.796,6.964-10.169,9.032
			c0.942-0.026,1.937,0.227,2.963,0.498c3.367,0.89,7.555,1.987,13.456-4.841C30.01,4.266,29.972,2.895,28.958,1.761z"/>
		<path d="M16.284,10.502c-0.991-0.261-1.836-0.484-2.58-0.484c-0.655,0-1.231,0.173-1.759,0.645l-0.878,0.879
			c-0.821,0.821-0.86,2.144-0.089,3.012l7.724,8.688c0.653,0.735,1.721,0.944,2.601,0.517c0.009-0.004,0.017-0.009,0.024-0.013
			c4.355-2.177,6.391-6.397,7.331-9.555c0.539-1.811,0.978-5.693,1.189-7.837C23.99,12.534,19.564,11.368,16.284,10.502z"/>
	</g>
</g>
<g id="Surf_Board">
</g>
<g id="Float">
</g>
<g id="Vacation_Photo">
</g>
<g id="Summer_Time">
</g>
<g id="Boat">
</g>
<g id="Lifebuoy">
</g>
<g id="Lighthouse">
</g>
<g id="Sunset">
</g>
<g id="Dolphin">
</g>
<g id="Starfish">
</g>
<g id="Diving_Mask">
</g>
<g id="Sailboat">
</g>
<g id="Captin_Hat">
</g>
<g id="Eudder">
</g>
</svg>
