<?xml version="1.0" encoding="iso-8859-1"?>
<!-- Generator: Adobe Illustrator 19.2.1, SVG Export Plug-In . SVG Version: 6.00 Build 0)  -->
<svg version="1.1" xmlns="http://www.w3.org/2000/svg" xmlns:xlink="http://www.w3.org/1999/xlink" x="0px" y="0px"
	 viewBox="0 0 30 30" style="enable-background:new 0 0 30 30;" xml:space="preserve">
<g id="Sun_Light">
</g>
<g id="Sunglasses">
</g>
<g id="T-Shirt_1">
</g>
<g id="T-Shirt_2">
</g>
<g id="Mini_Dress">
</g>
<g id="Flip-Flops">
</g>
<g id="Temperature">
</g>
<g id="Hot_Temperature">
</g>
<g id="Ice_Lolly">
</g>
<g id="Icecream">
</g>
<g id="Limonade_1">
</g>
<g id="Limonade_2">
</g>
<g id="Hat">
</g>
<g id="Straw_Hat">
</g>
<g id="Deckchair">
</g>
<g id="Sunshade">
</g>
<g id="Suncream">
</g>
<g id="Suntan_Oil">
</g>
<g id="Swimming_Trunks">
</g>
<g id="Bikini">
</g>
<g id="Pool">
</g>
<g id="Pool_Ladder">
</g>
<g id="Grill">
</g>
<g id="Kite_1">
</g>
<g id="Kite_2">
</g>
<g id="Badminton">
</g>
<g id="Cooler">
</g>
<g id="Strand_Bag">
</g>
<g id="Towel">
</g>
<g id="Strand_Ball">
</g>
<g id="Beach_Sign">
</g>
<g id="Toos">
</g>
<g id="Bucket">
</g>
<g id="Sand_Castle">
</g>
<g id="Shell_1">
	<g>
		<g>
			<path d="M13.81,29h-2.92c-1.04,0-2.142-0.506-3.023-1.387l-1.595-1.634C5.477,25.185,5,24.027,5,22.89v-2.51
				c0-0.276,0.224-0.5,0.5-0.5S6,20.104,6,20.38v2.51c0,0.879,0.368,1.771,0.983,2.387l1.595,1.634C9.269,27.602,10.113,28,10.89,28
				h2.92c0.276,0,0.5,0.224,0.5,0.5S14.086,29,13.81,29z"/>
		</g>
		<g>
			<path d="M19.11,29h-2.92c-0.276,0-0.5-0.224-0.5-0.5s0.224-0.5,0.5-0.5h2.92c0.777,0,1.621-0.398,2.316-1.094l1.586-1.626
				C23.632,24.66,24,23.769,24,22.89v-2.5c0-0.276,0.224-0.5,0.5-0.5s0.5,0.224,0.5,0.5v2.5c0,1.138-0.477,2.295-1.276,3.094
				l-1.586,1.626C21.252,28.494,20.15,29,19.11,29z"/>
		</g>
		<g id="XMLID_283_">
			<path d="M9.327,12.979c-0.177,0-0.349-0.095-0.44-0.261L5.475,6.444c-0.423-0.778-0.191-1.763,0.54-2.291
				c1.293-0.935,2.721-1.658,4.243-2.149c0.498-0.16,1.036-0.093,1.478,0.182c0.443,0.275,0.741,0.728,0.817,1.241
				c0.041,0.273-0.148,0.527-0.421,0.567c-0.27,0.045-0.527-0.147-0.568-0.421C11.53,3.351,11.4,3.154,11.208,3.035
				c-0.193-0.12-0.428-0.148-0.644-0.08c-1.422,0.46-2.755,1.136-3.964,2.009c-0.329,0.238-0.433,0.66-0.247,1.002l3.412,6.273
				c0.132,0.243,0.042,0.547-0.201,0.679C9.489,12.959,9.407,12.979,9.327,12.979z"/>
		</g>
		<g id="XMLID_284_">
			<path d="M16.892,10.826c-0.026,0-0.052-0.002-0.078-0.006c-0.273-0.043-0.459-0.299-0.417-0.572l1.143-7.247
				c0.032-0.204-0.019-0.407-0.143-0.573c-0.129-0.172-0.318-0.282-0.534-0.31c-1.21-0.154-2.452-0.157-3.659-0.008
				c-0.213,0.026-0.402,0.135-0.531,0.305c-0.125,0.165-0.178,0.368-0.147,0.572l1.078,7.266c0.041,0.273-0.148,0.527-0.421,0.567
				c-0.27,0.044-0.526-0.147-0.568-0.421l-1.078-7.266c-0.07-0.473,0.051-0.942,0.34-1.323c0.293-0.387,0.721-0.632,1.204-0.692
				c1.291-0.159,2.616-0.157,3.909,0.008c0.486,0.063,0.915,0.312,1.207,0.701c0.288,0.384,0.406,0.856,0.332,1.33l-1.143,7.247
				C17.346,10.65,17.133,10.826,16.892,10.826z"/>
		</g>
		<g id="XMLID_285_">
			<path d="M6.804,16.131c-0.127,0-0.255-0.049-0.353-0.146l-4.599-4.568c-0.547-0.544-0.687-1.356-0.349-2.021
				c0.604-1.186,1.375-2.288,2.292-3.278C4.181,5.701,4.727,5.5,5.296,5.574c0.567,0.071,1.068,0.411,1.34,0.911
				c0.132,0.243,0.042,0.547-0.201,0.679c-0.242,0.131-0.546,0.041-0.678-0.2c-0.12-0.221-0.333-0.366-0.585-0.397
				C4.931,6.537,4.694,6.62,4.529,6.798C3.674,7.72,2.957,8.747,2.396,9.85c-0.139,0.272-0.072,0.625,0.162,0.858l4.599,4.568
				c0.196,0.194,0.197,0.511,0.002,0.707C7.061,16.082,6.933,16.131,6.804,16.131z"/>
		</g>
		<g id="XMLID_286_">
			<path d="M15,30c-0.315,0-0.628-0.069-0.956-0.211c-0.11-0.048-0.199-0.133-0.251-0.24c-2.494-5.114-7.076-8.856-12.569-10.267
				c-0.081-0.021-0.155-0.062-0.216-0.118l-0.291-0.269c-0.064-0.06-0.111-0.134-0.138-0.217C0.363,17.996,0,16.693,0,15.628
				c0-1.132,0.142-2.261,0.42-3.356c0.151-0.597,0.602-1.053,1.204-1.22c0.619-0.168,1.281,0.002,1.732,0.45
				c0.196,0.194,0.197,0.511,0.003,0.707c-0.194,0.197-0.511,0.196-0.707,0.002c-0.2-0.198-0.486-0.27-0.761-0.195
				c-0.121,0.034-0.412,0.149-0.502,0.502C1.131,13.533,1,14.579,1,15.628C1,16.5,1.292,17.6,1.493,18.251l0.103,0.095
				c5.66,1.49,10.385,5.338,13.008,10.588c0.276,0.088,0.516,0.088,0.792,0c2.623-5.25,7.349-9.098,13.008-10.588l0.094-0.09
				C28.674,17.665,29,16.461,29,15.628c0-1.042-0.128-2.082-0.381-3.09c-0.088-0.354-0.379-0.47-0.5-0.504
				c-0.275-0.077-0.56-0.006-0.761,0.192c-0.196,0.194-0.512,0.191-0.707-0.004c-0.194-0.197-0.192-0.514,0.005-0.707
				c0.452-0.447,1.115-0.619,1.732-0.444c0.602,0.168,1.051,0.626,1.201,1.223C29.862,13.382,30,14.504,30,15.628
				c0,0.995-0.366,2.335-0.583,3.045c-0.025,0.081-0.07,0.155-0.131,0.214l-0.283,0.271c-0.063,0.06-0.139,0.103-0.223,0.124
				c-5.495,1.409-10.078,5.151-12.573,10.268c-0.052,0.107-0.141,0.192-0.251,0.24C15.628,29.931,15.315,30,15,30z"/>
		</g>
		<g id="XMLID_287_">
			<path d="M20.673,12.979c-0.081,0-0.163-0.02-0.239-0.061c-0.242-0.133-0.332-0.437-0.2-0.679l3.419-6.278
				c0.187-0.343,0.083-0.765-0.246-1.003C22.215,4.098,20.9,3.43,19.5,2.973c-0.213-0.069-0.448-0.041-0.641,0.076
				c-0.192,0.118-0.323,0.313-0.358,0.535C18.458,3.856,18.204,4.044,17.929,4c-0.272-0.043-0.459-0.299-0.416-0.572
				c0.081-0.511,0.381-0.96,0.823-1.231c0.443-0.271,0.98-0.334,1.474-0.175c1.499,0.489,2.906,1.204,4.183,2.126
				c0.731,0.528,0.963,1.514,0.539,2.292l-3.419,6.278C21.022,12.884,20.851,12.979,20.673,12.979z"/>
		</g>
		<g id="XMLID_288_">
			<path d="M23.196,16.131c-0.129,0-0.258-0.05-0.356-0.148c-0.194-0.197-0.192-0.514,0.005-0.707l4.613-4.551
				c0.235-0.232,0.303-0.585,0.165-0.857c-0.561-1.112-1.281-2.147-2.142-3.076c-0.165-0.179-0.398-0.27-0.644-0.231
				c-0.251,0.031-0.465,0.176-0.584,0.396c-0.132,0.241-0.436,0.331-0.678,0.2c-0.243-0.132-0.333-0.436-0.201-0.679
				c0.272-0.499,0.773-0.84,1.34-0.91c0.569-0.074,1.116,0.127,1.501,0.544c0.924,0.998,1.698,2.109,2.301,3.305
				c0.332,0.656,0.186,1.486-0.355,2.021l-4.613,4.55C23.45,16.083,23.323,16.131,23.196,16.131z"/>
		</g>
	</g>
</g>
<g id="Shell_2">
</g>
<g id="Surf_Board">
</g>
<g id="Float">
</g>
<g id="Vacation_Photo">
</g>
<g id="Summer_Time">
</g>
<g id="Boat">
</g>
<g id="Lifebuoy">
</g>
<g id="Lighthouse">
</g>
<g id="Sunset">
</g>
<g id="Dolphin">
</g>
<g id="Starfish">
</g>
<g id="Diving_Mask">
</g>
<g id="Sailboat">
</g>
<g id="Captin_Hat">
</g>
<g id="Eudder">
</g>
</svg>
