<?xml version="1.0" encoding="iso-8859-1"?>
<!-- Generator: Adobe Illustrator 19.2.1, SVG Export Plug-In . SVG Version: 6.00 Build 0)  -->
<svg version="1.1" xmlns="http://www.w3.org/2000/svg" xmlns:xlink="http://www.w3.org/1999/xlink" x="0px" y="0px"
	 viewBox="0 0 30 30" style="enable-background:new 0 0 30 30;" xml:space="preserve">
<g id="Flag">
</g>
<g id="Umbrella">
</g>
<g id="Briefcase">
</g>
<g id="Box">
</g>
<g id="Magnet">
</g>
<g id="Percent">
</g>
<g id="Rocket">
</g>
<g id="Share">
</g>
<g id="Transmitter">
</g>
<g id="Record_2">
</g>
<g id="Record_1">
</g>
<g id="Anchor">
</g>
<g id="Airplane">
</g>
<g id="Car">
</g>
<g id="Newsfeed">
</g>
<g id="Wifi_Tethering">
</g>
<g id="No_Wifi_Tethering">
</g>
<g id="Bar_Chart_2">
</g>
<g id="Shop">
	<g>
		<path d="M22.931,14.164c-1.099,1.092-2.571,1.706-4.148,1.706c-1.4,0-2.731-0.489-3.782-1.369
			c-1.051,0.879-2.382,1.369-3.783,1.369c-1.577,0-3.049-0.613-4.147-1.705c-0.696,0.281-1.429,0.428-2.157,0.428
			c-0.311,0-0.615-0.031-0.913-0.078V26.5C4,26.776,4.224,27,4.5,27h21c0.276,0,0.5-0.224,0.5-0.5V14.515
			c-0.298,0.046-0.602,0.078-0.913,0.078C24.359,14.592,23.626,14.446,22.931,14.164z M15,21.5c0,0.276-0.224,0.5-0.5,0.5h-8
			C6.224,22,6,21.776,6,21.5v-5C6,16.224,6.224,16,6.5,16h8c0.276,0,0.5,0.224,0.5,0.5V21.5z M24,25.5c0,0.276-0.224,0.5-0.5,0.5h-7
			c-0.276,0-0.5-0.224-0.5-0.5v-9c0-0.276,0.224-0.5,0.5-0.5h7c0.276,0,0.5,0.224,0.5,0.5V25.5z"/>
		<polygon points="14.5,8 14.5,3 10.299,3 8.212,8 		"/>
		<path d="M29.805,8l-3.691-4.805C26.02,3.072,25.873,3,25.718,3h-4.932l2.086,5H29.805z"/>
		<path d="M9.215,3H4.283C4.129,3,3.985,3.07,3.89,3.191L0.107,7.995C0.106,7.997,0.106,7.998,0.105,8h7.024L9.215,3z"/>
		<polygon points="19.701,3 15.5,3 15.5,8 21.787,8 		"/>
		<path d="M22,13.656V9h-6.5v4.602c0.887,0.805,2.039,1.268,3.282,1.268C19.992,14.87,21.121,14.427,22,13.656z"/>
		<path d="M7,13.092V9H0.031c0.161,2.556,2.278,4.592,4.882,4.592C5.639,13.592,6.343,13.41,7,13.092z"/>
		<path d="M23,9v4.091c0.657,0.318,1.361,0.501,2.087,0.501c2.604,0,4.721-2.036,4.882-4.592H23z"/>
		<path d="M8,13.656c0.879,0.771,2.008,1.213,3.217,1.213c1.243,0,2.396-0.463,3.283-1.268V9H8V13.656z"/>
	</g>
</g>
<g id="Alarm">
</g>
<g id="Sim_Card">
</g>
<g id="Radar">
</g>
<g id="Hand_2">
</g>
<g id="Palette">
</g>
<g id="Cake">
</g>
<g id="Blende">
</g>
<g id="Feather_Pen">
</g>
<g id="Ticket">
</g>
<g id="Medal">
</g>
<g id="Mouse_Pointer_1">
</g>
<g id="Mouse_Pointer_2">
</g>
<g id="Fingerprint">
</g>
<g id="Earth">
</g>
</svg>
