<?xml version="1.0" encoding="iso-8859-1"?>
<!-- Generator: Adobe Illustrator 19.2.1, SVG Export Plug-In . SVG Version: 6.00 Build 0)  -->
<svg version="1.1" xmlns="http://www.w3.org/2000/svg" xmlns:xlink="http://www.w3.org/1999/xlink" x="0px" y="0px"
	 viewBox="0 0 30 30" style="enable-background:new 0 0 30 30;" xml:space="preserve">
<g id="Cutting_Board_1">
</g>
<g id="Cutting_Board_2">
</g>
<g id="Chef_x27_s_Hat_1">
</g>
<g id="Chef_x27_s_Hat_2">
</g>
<g id="Kitchen_Scale">
</g>
<g id="Measuring_Cup">
</g>
<g id="Pot_1">
</g>
<g id="Pot_2">
</g>
<g id="Wok_1">
</g>
<g id="Wok_2">
</g>
<g id="Teapot">
</g>
<g id="Plate">
</g>
<g id="Sauce_Boat">
</g>
<g id="Cauldron">
</g>
<g id="Cookbook">
</g>
<g id="Salt_Pot">
</g>
<g id="Pepper_Pot_1">
</g>
<g id="Pepper_Pot_2">
</g>
<g id="Egg_Timer">
</g>
<g id="Olive_Oil_Pot">
</g>
<g id="Pancake_Griddle">
</g>
<g id="Pan">
</g>
<g id="Kettle">
</g>
<g id="Microwave">
</g>
<g id="Cooker">
</g>
<g id="Meat_Grinder">
</g>
<g id="Coffee_Maker">
</g>
<g id="Household_Mixer">
</g>
<g id="Stand_Mixer">
</g>
<g id="Hand_Blender">
</g>
<g id="Blender">
</g>
<g id="Cooker_Hood">
</g>
<g id="Refrigerator">
</g>
<g id="Freezer">
</g>
<g id="Apron">
</g>
<g id="Oven_Gloves">
</g>
<g id="Rolling_Pin">
</g>
<g id="Sieve">
	<g>
		<g>
			<g>
				<path d="M25.999,10c-0.25,0-0.466-0.188-0.496-0.443c-0.031-0.274,0.165-0.522,0.439-0.554c1.324-0.153,2.236-0.347,2.689-0.841
					c0.186-0.204,0.505-0.215,0.706-0.031c0.203,0.187,0.218,0.503,0.03,0.707c-0.734,0.802-1.985,1.006-3.311,1.159
					C26.038,9.999,26.019,10,25.999,10z"/>
			</g>
			<g>
				<path d="M4.001,10c-0.02,0-0.039-0.001-0.059-0.003C2.617,9.844,1.366,9.64,0.632,8.838c-0.188-0.204-0.173-0.52,0.03-0.707
					c0.203-0.185,0.519-0.173,0.706,0.031c0.453,0.494,1.365,0.688,2.689,0.841c0.274,0.032,0.471,0.28,0.439,0.554
					C4.467,9.812,4.251,10,4.001,10z"/>
			</g>
			<g>
				<circle cx="7" cy="10.5" r="0.5"/>
			</g>
			<g>
				<circle cx="11" cy="10.5" r="0.5"/>
			</g>
			<g>
				<circle cx="15" cy="10.5" r="0.5"/>
			</g>
			<g>
				<circle cx="19" cy="10.5" r="0.5"/>
			</g>
			<g>
				<circle cx="9" cy="13.5" r="0.5"/>
			</g>
			<g>
				<circle cx="13" cy="13.5" r="0.5"/>
			</g>
			<g>
				<circle cx="17" cy="13.5" r="0.5"/>
			</g>
			<g>
				<circle cx="21" cy="13.5" r="0.5"/>
			</g>
			<g>
				<circle cx="11.5" cy="16.5" r="0.5"/>
			</g>
			<g>
				<circle cx="15" cy="16.5" r="0.5"/>
			</g>
			<g>
				<circle cx="18.5" cy="16.5" r="0.5"/>
			</g>
			<g>
				<circle cx="23" cy="10.5" r="0.5"/>
			</g>
		</g>
		<g>
			<path d="M15,20C8.659,20,3.5,14.841,3.5,8.5C3.5,8.224,3.724,8,4,8h22c0.276,0,0.5,0.224,0.5,0.5C26.5,14.841,21.341,20,15,20z
				 M4.512,9C4.773,14.559,9.378,19,15,19s10.227-4.441,10.488-10H4.512z"/>
		</g>
		<g>
			<path d="M20,23H10c-0.185,0-0.354-0.102-0.44-0.264c-0.088-0.163-0.078-0.36,0.024-0.513l2-3C11.677,19.083,11.833,19,12,19h6.5
				c0.189,0,0.362,0.107,0.447,0.276l1.5,3c0.077,0.155,0.069,0.339-0.021,0.486C20.334,22.91,20.173,23,20,23z M10.935,22h8.257
				l-1-2h-5.924L10.935,22z"/>
		</g>
	</g>
</g>
<g id="Tea_Sieve">
</g>
<g id="Grater">
</g>
<g id="Knife_Holder">
</g>
<g id="Funnel">
</g>
<g id="Kitchen_Clock">
</g>
<g id="Lemon_Juicer">
</g>
<g id="Pastry_Bag_1">
</g>
<g id="Pastry_Bag_2">
</g>
<g id="Corkscrew">
</g>
<g id="Bottle_Opener">
</g>
<g id="Service">
</g>
<g id="Chopsticks">
</g>
<g id="Hatchet">
</g>
<g id="Filleting_Knife">
</g>
<g id="Bread_Knife">
</g>
<g id="Herb_Knife">
</g>
<g id="Whetting">
</g>
<g id="Cake_Knife">
</g>
<g id="Layer_58">
</g>
<g id="Ladle">
</g>
<g id="Sauce_Spoon">
</g>
<g id="Egg_Beater">
</g>
<g id="Meat_Fork">
</g>
<g id="Kitchen_Spoon_1">
</g>
<g id="Kitchen_Spoon_2">
</g>
<g id="Pizza_Cutter">
</g>
<g id="Potato_Musher">
</g>
<g id="Peeler">
</g>
<g id="Honey_Dipper">
</g>
<g id="Fork">
</g>
<g id="Knife">
</g>
<g id="Spoon">
</g>
<g id="Cutlery_Set">
</g>
<g id="Sugar_Bowl">
</g>
<g id="Matches">
</g>
<g id="Cezve">
</g>
</svg>
