<?xml version="1.0" encoding="iso-8859-1"?>
<!-- Generator: Adobe Illustrator 19.2.1, SVG Export Plug-In . SVG Version: 6.00 Build 0)  -->
<svg version="1.1" xmlns="http://www.w3.org/2000/svg" xmlns:xlink="http://www.w3.org/1999/xlink" x="0px" y="0px"
	 viewBox="0 0 30 30" style="enable-background:new 0 0 30 30;" xml:space="preserve">
<g id="Flag">
</g>
<g id="Umbrella">
</g>
<g id="Briefcase">
</g>
<g id="Box">
</g>
<g id="Magnet">
</g>
<g id="Percent">
</g>
<g id="Rocket">
</g>
<g id="Share">
</g>
<g id="Transmitter">
</g>
<g id="Record_2">
</g>
<g id="Record_1">
</g>
<g id="Anchor">
</g>
<g id="Airplane">
</g>
<g id="Car">
</g>
<g id="Newsfeed">
</g>
<g id="Wifi_Tethering">
</g>
<g id="No_Wifi_Tethering">
</g>
<g id="Bar_Chart_2">
</g>
<g id="Shop">
</g>
<g id="Alarm">
</g>
<g id="Sim_Card">
	<g>
		<g>
			<path d="M24.5,30h-20C3.122,30,2,28.879,2,27.5v-25C2,1.121,3.122,0,4.5,0h15.674c0.132,0,0.259,0.053,0.353,0.146l6.326,6.305
				C26.947,6.544,27,6.672,27,6.805V27.5C27,28.879,25.878,30,24.5,30z M4.5,1C3.673,1,3,1.673,3,2.5v25C3,28.327,3.673,29,4.5,29
				h20c0.827,0,1.5-0.673,1.5-1.5V7.013L19.967,1H4.5z"/>
		</g>
		<g>
			<path d="M18.5,27h-11C6.122,27,5,25.879,5,24.5v-16C5,7.121,6.122,6,7.5,6h11C19.878,6,21,7.121,21,8.5v16
				C21,25.879,19.878,27,18.5,27z M7.5,7C6.673,7,6,7.673,6,8.5v16C6,25.327,6.673,26,7.5,26h11c0.827,0,1.5-0.673,1.5-1.5v-16
				C20,7.673,19.327,7,18.5,7H7.5z"/>
		</g>
		<g>
			<path d="M10.5,27c-0.276,0-0.5-0.224-0.5-0.5v-5c0-0.276,0.224-0.5,0.5-0.5s0.5,0.224,0.5,0.5v5C11,26.776,10.776,27,10.5,27z"/>
		</g>
		<g>
			<path d="M15.5,27c-0.276,0-0.5-0.224-0.5-0.5v-5c0-0.276,0.224-0.5,0.5-0.5s0.5,0.224,0.5,0.5v5C16,26.776,15.776,27,15.5,27z"/>
		</g>
		<g>
			<path d="M10.5,12c-0.276,0-0.5-0.224-0.5-0.5v-5C10,6.224,10.224,6,10.5,6S11,6.224,11,6.5v5C11,11.776,10.776,12,10.5,12z"/>
		</g>
		<g>
			<path d="M15.5,12c-0.276,0-0.5-0.224-0.5-0.5v-5C15,6.224,15.224,6,15.5,6S16,6.224,16,6.5v5C16,11.776,15.776,12,15.5,12z"/>
		</g>
		<g>
			<path d="M8.5,17h-3C5.224,17,5,16.776,5,16.5S5.224,16,5.5,16h3C8.776,16,9,16.224,9,16.5S8.776,17,8.5,17z"/>
		</g>
		<g>
			<path d="M20.5,17h-3c-0.276,0-0.5-0.224-0.5-0.5s0.224-0.5,0.5-0.5h3c0.276,0,0.5,0.224,0.5,0.5S20.776,17,20.5,17z"/>
		</g>
	</g>
</g>
<g id="Radar">
</g>
<g id="Hand_2">
</g>
<g id="Palette">
</g>
<g id="Cake">
</g>
<g id="Blende">
</g>
<g id="Feather_Pen">
</g>
<g id="Ticket">
</g>
<g id="Medal">
</g>
<g id="Mouse_Pointer_1">
</g>
<g id="Mouse_Pointer_2">
</g>
<g id="Fingerprint">
</g>
<g id="Earth">
</g>
</svg>
