<?xml version="1.0" encoding="iso-8859-1"?>
<!-- Generator: Adobe Illustrator 19.2.1, SVG Export Plug-In . SVG Version: 6.00 Build 0)  -->
<svg version="1.1" xmlns="http://www.w3.org/2000/svg" xmlns:xlink="http://www.w3.org/1999/xlink" x="0px" y="0px"
	 viewBox="0 0 24 24" style="enable-background:new 0 0 24 24;" xml:space="preserve">
<g id="Armchair_1">
</g>
<g id="Armchair_2">
</g>
<g id="Armchair_3">
</g>
<g id="Armchair_4">
</g>
<g id="Sofa_1">
</g>
<g id="Sofa_2">
</g>
<g id="Sofa_3">
</g>
<g id="Sofa_4">
</g>
<g id="Sofa_5">
</g>
<g id="Sofa_6">
</g>
<g id="Desk_1">
</g>
<g id="Desk_2">
</g>
<g id="Desk_3">
</g>
<g id="Lamp">
</g>
<g id="Bed_1">
</g>
<g id="Bunk_Beds">
</g>
<g id="Bed_2">
</g>
<g id="Bed_3">
</g>
<g id="Bed_4">
</g>
<g id="Bed_5">
</g>
<g id="Table_1">
</g>
<g id="Table_2">
</g>
<g id="Table_3">
</g>
<g id="Table_4">
</g>
<g id="Rug_1">
</g>
<g id="Rug_2">
</g>
<g id="Rug_3">
</g>
<g id="Tub_1">
</g>
<g id="Tub_2">
</g>
<g id="Jacuzzi">
</g>
<g id="Corner_Tub">
</g>
<g id="Shower_Tray">
</g>
<g id="Sink_1">
	<g>
		<path d="M9.5,4h4C13.776,4,14,3.776,14,3.5V2H9v1.5C9,3.776,9.224,4,9.5,4z"/>
		<path d="M21.5,2H15v1.5c0,0.566-0.319,1.054-0.783,1.309C14.391,4.989,14.5,5.231,14.5,5.5c0,0.551-0.449,1-1,1s-1-0.449-1-1
			c0-0.186,0.065-0.351,0.154-0.5H12v4.5c0,0.276-0.224,0.5-0.5,0.5S11,9.776,11,9.5V5h-0.654C10.435,5.149,10.5,5.314,10.5,5.5
			c0,0.551-0.449,1-1,1s-1-0.449-1-1c0-0.269,0.109-0.511,0.283-0.691C8.319,4.554,8,4.066,8,3.5V2H1.5C0.673,2,0,2.673,0,3.5v5.82
			c0,5.562,3.971,10.32,9.443,11.314c0.683,0.125,1.37,0.187,2.057,0.187c0.687,0,1.375-0.062,2.057-0.187
			C19.029,19.64,23,14.881,23,9.32V3.5C23,2.673,22.327,2,21.5,2z M14.162,18.44c-0.882,0.255-1.771,0.383-2.661,0.383
			c-0.868,0-1.737-0.122-2.601-0.364C4.837,17.317,2,13.434,2,9.016V8.908C2,7.305,3.305,6,4.908,6h2.304c0.276,0,0.5,0.224,0.5,0.5
			S7.488,7,7.212,7H4.908C3.856,7,3,7.856,3,8.908v0.107c0,3.972,2.538,7.459,6.171,8.48c1.566,0.44,3.152,0.435,4.713-0.017
			C17.485,16.438,20,12.951,20,9c0-1.137-0.856-2-1.908-2h-2.304c-0.276,0-0.5-0.224-0.5-0.5s0.224-0.5,0.5-0.5h2.304
			C19.695,6,21,7.311,21,8.923C21,13.394,18.188,17.275,14.162,18.44z"/>
	</g>
</g>
<g id="Sink_2">
</g>
<g id="Toilette">
</g>
<g id="Stove">
</g>
<g id="Kitchen_Sink">
</g>
<g id="Island">
</g>
<g id="Eat-in_Kitchen">
</g>
<g id="Tv_Stand">
</g>
</svg>
