<?xml version="1.0" encoding="iso-8859-1"?>
<!-- Generator: Adobe Illustrator 19.2.1, SVG Export Plug-In . SVG Version: 6.00 Build 0)  -->
<svg version="1.1" xmlns="http://www.w3.org/2000/svg" xmlns:xlink="http://www.w3.org/1999/xlink" x="0px" y="0px"
	 viewBox="0 0 24 24" style="enable-background:new 0 0 24 24;" xml:space="preserve">
<g id="Armchair_1">
</g>
<g id="Armchair_2">
</g>
<g id="Armchair_3">
</g>
<g id="Armchair_4">
</g>
<g id="Sofa_1">
</g>
<g id="Sofa_2">
</g>
<g id="Sofa_3">
</g>
<g id="Sofa_4">
</g>
<g id="Sofa_5">
</g>
<g id="Sofa_6">
</g>
<g id="Desk_1">
</g>
<g id="Desk_2">
</g>
<g id="Desk_3">
</g>
<g id="Lamp">
</g>
<g id="Bed_1">
</g>
<g id="Bunk_Beds">
</g>
<g id="Bed_2">
</g>
<g id="Bed_3">
</g>
<g id="Bed_4">
</g>
<g id="Bed_5">
</g>
<g id="Table_1">
</g>
<g id="Table_2">
</g>
<g id="Table_3">
</g>
<g id="Table_4">
</g>
<g id="Rug_1">
</g>
<g id="Rug_2">
</g>
<g id="Rug_3">
</g>
<g id="Tub_1">
</g>
<g id="Tub_2">
</g>
<g id="Jacuzzi">
</g>
<g id="Corner_Tub">
</g>
<g id="Shower_Tray">
</g>
<g id="Sink_1">
</g>
<g id="Sink_2">
	<g>
		<path d="M9.501,4H13.5C13.66,3.978,14,3.41,14,3H9C9,3.41,9.34,3.978,9.501,4z"/>
		<path d="M22.5,3H15c0,0.58-0.32,1.371-0.841,1.761C14.365,4.944,14.5,5.204,14.5,5.5c0,0.551-0.449,1-1,1s-1-0.449-1-1
			c0-0.186,0.065-0.351,0.154-0.5H12v4.5c0,0.276-0.224,0.5-0.5,0.5S11,9.776,11,9.5V5h-0.654C10.435,5.149,10.5,5.314,10.5,5.5
			c0,0.551-0.449,1-1,1s-1-0.449-1-1c0-0.296,0.135-0.556,0.341-0.739C8.32,4.371,8,3.58,8,3H0.5C0.224,3,0,3.224,0,3.5v17
			C0,20.776,0.224,21,0.5,21h22c0.276,0,0.5-0.224,0.5-0.5v-17C23,3.224,22.776,3,22.5,3z M21,17.5c0,0.827-0.673,1.5-1.5,1.5h-16
			C2.673,19,2,18.327,2,17.5v-9C2,7.673,2.673,7,3.5,7h4.516c0.276,0,0.5,0.224,0.5,0.5S8.292,8,8.016,8H3.5C3.224,8,3,8.224,3,8.5
			v9C3,17.776,3.224,18,3.5,18h16c0.276,0,0.5-0.224,0.5-0.5v-9C20,8.224,19.776,8,19.5,8h-4.516c-0.276,0-0.5-0.224-0.5-0.5
			s0.224-0.5,0.5-0.5H19.5C20.327,7,21,7.673,21,8.5V17.5z"/>
	</g>
</g>
<g id="Toilette">
</g>
<g id="Stove">
</g>
<g id="Kitchen_Sink">
</g>
<g id="Island">
</g>
<g id="Eat-in_Kitchen">
</g>
<g id="Tv_Stand">
</g>
</svg>
