<?xml version="1.0" encoding="iso-8859-1"?>
<!-- Generator: Adobe Illustrator 19.2.1, SVG Export Plug-In . SVG Version: 6.00 Build 0)  -->
<svg version="1.1" xmlns="http://www.w3.org/2000/svg" xmlns:xlink="http://www.w3.org/1999/xlink" x="0px" y="0px"
	 viewBox="0 0 30 30" style="enable-background:new 0 0 30 30;" xml:space="preserve">
<g id="Snowflake_1">
</g>
<g id="Snowflake_2">
</g>
<g id="Snowflake_3">
</g>
<g id="Snowflake_4">
</g>
<g id="Winter_Cap_1">
</g>
<g id="Winter_Cap_2">
</g>
<g id="Glowes">
</g>
<g id="Sweater_1">
</g>
<g id="Sweater_2">
</g>
<g id="Sweater_3">
</g>
<g id="Scarf">
</g>
<g id="Winter_Socks">
</g>
<g id="Winter_Sock">
</g>
<g id="Winter_Coat">
</g>
<g id="Winter_Calendar">
</g>
<g id="Thermometer_1">
</g>
<g id="Thermometer_2">
</g>
<g id="Cold">
</g>
<g id="Icicle">
</g>
<g id="Snowing">
</g>
<g id="Snow_Shoes_1">
</g>
<g id="Snow_Shoes_2">
</g>
<g id="Sledge">
</g>
<g id="Snow_Boots">
</g>
<g id="Snowcapped_Mountains">
</g>
<g id="Skis">
	<g>
		<g>
			<path d="M27,6h-2.5C24.224,6,24,5.776,24,5.5V3c0-0.276,0.224-0.5,0.5-0.5S25,2.724,25,3v2h2c0.276,0,0.5,0.224,0.5,0.5
				S27.276,6,27,6z"/>
		</g>
		<g>
			<path d="M4.5,28.5C4.224,28.5,4,28.276,4,28v-2H2c-0.276,0-0.5-0.224-0.5-0.5S1.724,25,2,25h2.5C4.776,25,5,25.224,5,25.5V28
				C5,28.276,4.776,28.5,4.5,28.5z"/>
		</g>
		<g>
			<path d="M27.502,29.999c-0.451,0-0.902-0.172-1.245-0.515L3.298,6.525C1.325,4.554,0.077,0.814,0.025,0.656
				c-0.06-0.18-0.013-0.377,0.122-0.511c0.133-0.134,0.331-0.178,0.511-0.12c0.159,0.054,3.916,1.32,5.867,3.272l22.959,22.959
				c0.687,0.687,0.687,1.803,0,2.489l-0.738,0.738C28.403,29.827,27.952,29.999,27.502,29.999z M1.357,1.358
				c0.494,1.22,1.438,3.252,2.647,4.46l22.959,22.959c0.298,0.298,0.779,0.296,1.075,0l0.738-0.738c0.296-0.297,0.296-0.778,0-1.075
				L5.818,4.005C4.619,2.806,2.58,1.857,1.357,1.358z"/>
		</g>
		<g>
			<path d="M27.502,29.999c-0.451,0-0.902-0.172-1.245-0.515L3.298,6.525C1.325,4.554,0.077,0.814,0.025,0.656
				c-0.06-0.18-0.013-0.377,0.122-0.511c0.133-0.134,0.331-0.178,0.511-0.12c0.159,0.054,3.916,1.32,5.867,3.272l22.959,22.959
				c0.687,0.687,0.687,1.803,0,2.489l-0.738,0.738C28.403,29.827,27.952,29.999,27.502,29.999z M1.357,1.358
				c0.494,1.22,1.438,3.252,2.647,4.46l22.959,22.959c0.298,0.298,0.779,0.296,1.075,0l0.738-0.738c0.296-0.297,0.296-0.778,0-1.075
				L5.818,4.005C4.619,2.806,2.58,1.857,1.357,1.358z"/>
		</g>
		<g>
			<g>
				<path d="M19.417,13.604c-0.128,0-0.256-0.049-0.354-0.146c-0.195-0.195-0.195-0.512,0-0.707l6.932-6.932
					c1.209-1.208,2.152-3.239,2.647-4.459c-1.224,0.499-3.264,1.448-4.461,2.646l-6.932,6.932c-0.195,0.195-0.512,0.195-0.707,0
					s-0.195-0.512,0-0.707l6.932-6.932c1.951-1.952,5.708-3.219,5.867-3.272c0.18-0.056,0.378-0.013,0.511,0.12
					c0.135,0.134,0.182,0.331,0.122,0.511c-0.052,0.158-1.3,3.897-3.272,5.869l-6.932,6.932
					C19.673,13.555,19.545,13.604,19.417,13.604z"/>
			</g>
			<g>
				<path d="M2.499,29.999c-0.451,0-0.902-0.172-1.245-0.515l-0.738-0.738c-0.687-0.687-0.687-1.803,0-2.489l9.726-9.726
					c0.195-0.195,0.512-0.195,0.707,0s0.195,0.512,0,0.707l-9.726,9.726c-0.296,0.297-0.296,0.778,0,1.075l0.738,0.738
					c0.298,0.298,0.778,0.296,1.075,0l9.726-9.726c0.195-0.195,0.512-0.195,0.707,0s0.195,0.512,0,0.707l-9.726,9.726
					C3.4,29.827,2.949,29.999,2.499,29.999z"/>
			</g>
		</g>
		<g>
			<path d="M16.589,19.275c-0.276,0-0.5-0.224-0.5-0.5s0.224-0.5,0.5-0.5c0.788,0,1.687-0.866,1.687-1.627
				c0-0.276,0.224-0.5,0.5-0.5s0.5,0.224,0.5,0.5C19.275,17.949,17.92,19.275,16.589,19.275z"/>
		</g>
		<g>
			<path d="M13.733,16.755c-0.128,0-0.256-0.049-0.354-0.146c-0.844-0.844-1.462-3.026-0.63-3.858
				c0.833-0.835,3.014-0.215,3.858,0.63c0.195,0.195,0.195,0.512,0,0.707s-0.512,0.195-0.707,0c-0.644-0.644-2.166-0.908-2.444-0.63
				c-0.277,0.277-0.014,1.801,0.63,2.444c0.195,0.195,0.195,0.512,0,0.707C13.989,16.706,13.861,16.755,13.733,16.755z"/>
		</g>
		<g>
			<path d="M5.5,6H3C2.724,6,2.5,5.776,2.5,5.5S2.724,5,3,5h2V3c0-0.276,0.224-0.5,0.5-0.5S6,2.724,6,3v2.5C6,5.776,5.776,6,5.5,6z"
				/>
		</g>
		<g>
			<path d="M25.5,28.5c-0.276,0-0.5-0.224-0.5-0.5v-2.5c0-0.276,0.224-0.5,0.5-0.5H28c0.276,0,0.5,0.224,0.5,0.5S28.276,26,28,26h-2
				v2C26,28.276,25.776,28.5,25.5,28.5z"/>
		</g>
	</g>
</g>
<g id="Sky_Glasses">
</g>
<g id="Snowboard">
</g>
<g id="Ice_Skate">
</g>
<g id="Wooden_House">
</g>
<g id="Snowcapped_House">
</g>
<g id="Hot_Drink">
</g>
<g id="Hot_Chocolate">
</g>
<g id="Lantern">
</g>
<g id="Snow_Shovel">
</g>
<g id="Snowman">
</g>
<g id="Reindeer">
</g>
<g id="Snowmobile">
</g>
<g id="Snow_Chain">
</g>
<g id="Slippery_Road">
</g>
</svg>
