<?xml version="1.0" encoding="iso-8859-1"?>
<!-- Generator: Adobe Illustrator 19.2.1, SVG Export Plug-In . SVG Version: 6.00 Build 0)  -->
<svg version="1.1" xmlns="http://www.w3.org/2000/svg" xmlns:xlink="http://www.w3.org/1999/xlink" x="0px" y="0px"
	 viewBox="0 0 30 30" style="enable-background:new 0 0 30 30;" xml:space="preserve">
<g id="Snowflake_1">
</g>
<g id="Snowflake_2">
</g>
<g id="Snowflake_3">
</g>
<g id="Snowflake_4">
</g>
<g id="Winter_Cap_1">
</g>
<g id="Winter_Cap_2">
</g>
<g id="Glowes">
</g>
<g id="Sweater_1">
</g>
<g id="Sweater_2">
</g>
<g id="Sweater_3">
</g>
<g id="Scarf">
</g>
<g id="Winter_Socks">
</g>
<g id="Winter_Sock">
</g>
<g id="Winter_Coat">
</g>
<g id="Winter_Calendar">
</g>
<g id="Thermometer_1">
</g>
<g id="Thermometer_2">
</g>
<g id="Cold">
</g>
<g id="Icicle">
</g>
<g id="Snowing">
</g>
<g id="Snow_Shoes_1">
</g>
<g id="Snow_Shoes_2">
</g>
<g id="Sledge">
</g>
<g id="Snow_Boots">
</g>
<g id="Snowcapped_Mountains">
</g>
<g id="Skis">
</g>
<g id="Sky_Glasses">
	<g>
		<g>
			<path d="M24.456,26h-3.415c-1.17,0-2.304-0.487-3.11-1.338l-2.033-2.147c-0.165-0.197-0.379-0.297-0.605-0.297h-0.584
				c-0.227,0-0.44,0.1-0.585,0.273l-2.054,2.171C11.263,25.513,10.129,26,8.959,26H5.544C2.487,26,0,23.513,0,20.456v-2.417
				c0-2.253,1.335-4.261,3.4-5.116c2.874-1.189,6.776-1.792,11.6-1.792c4.816,0,8.718,0.604,11.596,1.797
				C28.664,13.784,30,15.794,30,18.046v2.41C30,23.513,27.513,26,24.456,26z M14.708,21.218h0.584c0.524,0,1.018,0.23,1.353,0.633
				l2.013,2.124C19.274,24.626,20.144,25,21.041,25h3.415C26.962,25,29,22.962,29,20.456v-2.41c0-1.847-1.094-3.493-2.787-4.194
				c-2.717-1.126-6.595-1.721-11.213-1.721c-4.625,0-8.504,0.594-11.217,1.716C2.093,14.547,1,16.192,1,18.039v2.417
				C1,22.962,3.038,25,5.544,25h3.415c0.897,0,1.767-0.374,2.384-1.025l2.033-2.147C13.69,21.448,14.184,21.218,14.708,21.218z"/>
		</g>
		<g>
			<path d="M24.079,23.065H20.8c-0.464,0-0.913-0.184-1.233-0.504l-1.912-1.906c-0.607-0.652-1.468-1.019-2.374-1.019H14.72
				c-0.906,0-1.767,0.366-2.361,1.005l-1.925,1.92c-0.32,0.32-0.77,0.504-1.233,0.504H5.921c-1.61,0-2.921-1.25-2.921-2.786v-2.191
				c0-1.138,0.703-2.147,1.792-2.572c1.69-0.661,4.834-1.45,10.208-1.45s8.518,0.789,10.209,1.45C26.297,15.94,27,16.95,27,18.088
				v2.191C27,21.815,25.689,23.065,24.079,23.065z M14.72,18.637h0.561c1.183,0,2.311,0.482,3.094,1.323l1.899,1.894
				c0.134,0.135,0.326,0.212,0.526,0.212h3.279c1.06,0,1.921-0.801,1.921-1.786v-2.191c0-0.723-0.453-1.366-1.155-1.641
				c-1.611-0.631-4.627-1.382-9.845-1.382s-8.233,0.751-9.844,1.382C4.453,16.722,4,17.365,4,18.088v2.191
				c0,0.985,0.861,1.786,1.921,1.786H9.2c0.2,0,0.393-0.077,0.526-0.211l1.912-1.907C12.409,19.119,13.537,18.637,14.72,18.637z"/>
		</g>
		<g>
			<path d="M24.456,26c-0.276,0-0.5-0.224-0.5-0.5s0.224-0.5,0.5-0.5C26.962,25,29,22.962,29,20.456v-2.41
				c0-1.847-1.094-3.493-2.787-4.194c-2.717-1.126-6.595-1.721-11.213-1.721c-4.625,0-8.504,0.594-11.217,1.716
				C2.093,14.547,1,16.192,1,18.039v2.417C1,22.962,3.038,25,5.544,25h3.415c0.897,0,1.767-0.374,2.384-1.025l2.033-2.147
				c0.314-0.379,0.808-0.609,1.332-0.609h0.584c0.524,0,1.018,0.23,1.353,0.633l2.013,2.124c0.189,0.2,0.181,0.517-0.02,0.707
				c-0.201,0.19-0.517,0.18-0.707-0.02l-2.033-2.147c-0.165-0.197-0.379-0.297-0.605-0.297h-0.584c-0.227,0-0.44,0.1-0.585,0.273
				l-2.054,2.171C11.263,25.513,10.129,26,8.959,26H5.544C2.487,26,0,23.513,0,20.456v-2.417c0-2.253,1.335-4.261,3.4-5.116
				c2.874-1.189,6.776-1.792,11.6-1.792c4.816,0,8.718,0.604,11.596,1.797C28.664,13.784,30,15.794,30,18.046v2.41
				C30,23.513,27.513,26,24.456,26z"/>
		</g>
		<g>
			<path d="M29.5,18.044c-0.276,0-0.5-0.224-0.5-0.5c0-4.204-3.785-10.294-6.072-11.746c-1.452-0.922-3.61-1.545-6.079-1.756
				l-3.74,0.002c-2.423,0.21-4.582,0.834-6.036,1.755C4.784,7.246,1,13.335,1,17.544c0,0.276-0.224,0.5-0.5,0.5S0,17.82,0,17.544
				C0,12.878,3.956,6.587,6.537,4.953c1.588-1.005,3.906-1.682,6.528-1.907l3.826-0.002c2.668,0.226,4.986,0.903,6.571,1.91
				C26.045,6.592,30,12.884,30,17.544C30,17.82,29.776,18.044,29.5,18.044z"/>
		</g>
		<g>
			<path d="M2.291,14.723c-0.077,0-0.154-0.018-0.228-0.055c-0.246-0.126-0.344-0.427-0.218-0.673
				C3.2,11.342,5.087,8.951,6.54,8.045c4.197-2.613,12.736-2.614,16.92,0.001c1.434,0.896,3.304,3.256,4.654,5.875
				c0.127,0.246,0.03,0.547-0.215,0.674c-0.244,0.128-0.546,0.031-0.674-0.215c-1.255-2.435-3.021-4.69-4.295-5.486
				C19.082,6.488,10.928,6.489,7.069,8.895c-1.293,0.805-3.074,3.089-4.333,5.556C2.648,14.623,2.473,14.723,2.291,14.723z"/>
		</g>
		<g>
			<path d="M12.5,7.23c-0.276,0-0.5-0.224-0.5-0.5V3.61c0-0.276,0.224-0.5,0.5-0.5S13,3.334,13,3.61v3.12
				C13,7.007,12.776,7.23,12.5,7.23z"/>
		</g>
		<g>
			<path d="M17.5,7.23c-0.276,0-0.5-0.224-0.5-0.5V3.61c0-0.276,0.224-0.5,0.5-0.5S18,3.334,18,3.61v3.12
				C18,7.007,17.776,7.23,17.5,7.23z"/>
		</g>
	</g>
</g>
<g id="Snowboard">
</g>
<g id="Ice_Skate">
</g>
<g id="Wooden_House">
</g>
<g id="Snowcapped_House">
</g>
<g id="Hot_Drink">
</g>
<g id="Hot_Chocolate">
</g>
<g id="Lantern">
</g>
<g id="Snow_Shovel">
</g>
<g id="Snowman">
</g>
<g id="Reindeer">
</g>
<g id="Snowmobile">
</g>
<g id="Snow_Chain">
</g>
<g id="Slippery_Road">
</g>
</svg>
