<?xml version="1.0" encoding="iso-8859-1"?>
<!-- Generator: Adobe Illustrator 19.2.1, SVG Export Plug-In . SVG Version: 6.00 Build 0)  -->
<svg version="1.1" xmlns="http://www.w3.org/2000/svg" xmlns:xlink="http://www.w3.org/1999/xlink" x="0px" y="0px"
	 viewBox="0 0 30 30" style="enable-background:new 0 0 30 30;" xml:space="preserve">
<g id="Cad_1">
</g>
<g id="Cad_2">
</g>
<g id="Cad_Pencil">
</g>
<g id="Cad_Compasses">
</g>
<g id="Tools_1">
</g>
<g id="Tools_2">
</g>
<g id="Ruler_1">
</g>
<g id="Ruler_2">
</g>
<g id="Workspace_1">
</g>
<g id="Workspace_2">
</g>
<g id="Cad_3">
</g>
<g id="_x33_D_Box">
</g>
<g id="Section_Symbol">
</g>
<g id="Outlet_Symbol">
</g>
<g id="Cad_File">
</g>
<g id="Blueprint">
</g>
<g id="Construction_Plan">
</g>
<g id="Roof_Plan">
</g>
<g id="House_Construction">
</g>
<g id="Building_Construction">
</g>
<g id="Work_Table">
</g>
<g id="Table_Cad">
</g>
<g id="House_Plan">
</g>
<g id="Tape_Measure">
</g>
<g id="Cad_Paper">
</g>
<g id="Cad_Papers">
</g>
<g id="Stairs">
</g>
<g id="Pillar">
</g>
<g id="Bricks">
</g>
<g id="Pantheon">
</g>
<g id="House">
</g>
<g id="Skyscraper">
	<g id="Skyscraper_1_">
		<g>
			<path d="M18.5,27h-8c-0.276,0-0.5-0.224-0.5-0.5v-13c0-0.276,0.224-0.5,0.5-0.5h8c0.276,0,0.5,0.224,0.5,0.5v13
				C19,26.776,18.776,27,18.5,27z M11,26h7V14h-7V26z"/>
		</g>
		<g>
			<path d="M19.5,30h-10C9.224,30,9,29.776,9,29.5v-3C9,26.224,9.224,26,9.5,26h10c0.276,0,0.5,0.224,0.5,0.5v3
				C20,29.776,19.776,30,19.5,30z M10,29h9v-2h-9V29z"/>
		</g>
		<g>
			<path d="M17.5,14h-6c-0.276,0-0.5-0.224-0.5-0.5v-8C11,5.224,11.224,5,11.5,5h6C17.776,5,18,5.224,18,5.5v8
				C18,13.776,17.776,14,17.5,14z M12,13h5V6h-5V13z"/>
		</g>
		<g>
			<path d="M15.5,6h-2C13.224,6,13,5.776,13,5.5v-5C13,0.224,13.224,0,13.5,0h2C15.776,0,16,0.224,16,0.5v5
				C16,5.776,15.776,6,15.5,6z M14,5h1V1h-1V5z"/>
		</g>
		<g>
			<path d="M14.5,13.75c-0.276,0-0.5-0.224-0.5-0.5V8.5C14,8.224,14.224,8,14.5,8S15,8.224,15,8.5v4.75
				C15,13.526,14.776,13.75,14.5,13.75z"/>
		</g>
		<g>
			<path d="M13.5,25c-0.276,0-0.5-0.224-0.5-0.5v-1c0-0.276,0.224-0.5,0.5-0.5s0.5,0.224,0.5,0.5v1C14,24.776,13.776,25,13.5,25z"/>
		</g>
		<g>
			<path d="M15.5,25c-0.276,0-0.5-0.224-0.5-0.5v-1c0-0.276,0.224-0.5,0.5-0.5s0.5,0.224,0.5,0.5v1C16,24.776,15.776,25,15.5,25z"/>
		</g>
		<g>
			<path d="M13.5,21c-0.276,0-0.5-0.224-0.5-0.5v-1c0-0.276,0.224-0.5,0.5-0.5s0.5,0.224,0.5,0.5v1C14,20.776,13.776,21,13.5,21z"/>
		</g>
		<g>
			<path d="M15.5,21c-0.276,0-0.5-0.224-0.5-0.5v-1c0-0.276,0.224-0.5,0.5-0.5s0.5,0.224,0.5,0.5v1C16,20.776,15.776,21,15.5,21z"/>
		</g>
		<g>
			<path d="M13.5,17c-0.276,0-0.5-0.224-0.5-0.5v-1c0-0.276,0.224-0.5,0.5-0.5s0.5,0.224,0.5,0.5v1C14,16.776,13.776,17,13.5,17z"/>
		</g>
		<g>
			<path d="M15.5,17c-0.276,0-0.5-0.224-0.5-0.5v-1c0-0.276,0.224-0.5,0.5-0.5s0.5,0.224,0.5,0.5v1C16,16.776,15.776,17,15.5,17z"/>
		</g>
	</g>
</g>
<g id="Building">
</g>
</svg>
