<?xml version="1.0" encoding="iso-8859-1"?>
<!-- Generator: Adobe Illustrator 19.2.1, SVG Export Plug-In . SVG Version: 6.00 Build 0)  -->
<svg version="1.1" xmlns="http://www.w3.org/2000/svg" xmlns:xlink="http://www.w3.org/1999/xlink" x="0px" y="0px"
	 viewBox="0 0 30 30" style="enable-background:new 0 0 30 30;" xml:space="preserve">
<g id="Snowflake_1">
</g>
<g id="Snowflake_2">
</g>
<g id="Snowflake_3">
</g>
<g id="Snowflake_4">
</g>
<g id="Winter_Cap_1">
</g>
<g id="Winter_Cap_2">
</g>
<g id="Glowes">
</g>
<g id="Sweater_1">
</g>
<g id="Sweater_2">
</g>
<g id="Sweater_3">
</g>
<g id="Scarf">
</g>
<g id="Winter_Socks">
</g>
<g id="Winter_Sock">
</g>
<g id="Winter_Coat">
</g>
<g id="Winter_Calendar">
</g>
<g id="Thermometer_1">
</g>
<g id="Thermometer_2">
</g>
<g id="Cold">
</g>
<g id="Icicle">
</g>
<g id="Snowing">
</g>
<g id="Snow_Shoes_1">
</g>
<g id="Snow_Shoes_2">
</g>
<g id="Sledge">
	<g>
		<g>
			<path d="M26,14H10c-1.103,0-2-0.897-2-2s0.897-2,2-2h16c1.103,0,2,0.897,2,2S27.103,14,26,14z M10,11c-0.551,0-1,0.448-1,1
				s0.449,1,1,1h16c0.551,0,1-0.448,1-1s-0.449-1-1-1H10z"/>
		</g>
		<g>
			<path d="M23.5,20c-0.276,0-0.5-0.224-0.5-0.5v-6c0-0.276,0.224-0.5,0.5-0.5s0.5,0.224,0.5,0.5v6C24,19.776,23.776,20,23.5,20z"/>
		</g>
		<g>
			<path d="M11.5,20c-0.276,0-0.5-0.224-0.5-0.5v-6c0-0.276,0.224-0.5,0.5-0.5s0.5,0.224,0.5,0.5v6C12,19.776,11.776,20,11.5,20z"/>
		</g>
		<g>
			<path d="M29.5,20H5.543C2.487,20,0,17.513,0,14.456c0-1.969,1.059-3.807,2.763-4.797c0.238-0.139,0.543-0.059,0.684,0.182
				c0.139,0.238,0.057,0.545-0.182,0.684C1.868,11.336,1,12.842,1,14.456C1,16.962,3.038,19,5.543,19H29.5
				c0.276,0,0.5,0.224,0.5,0.5S29.776,20,29.5,20z"/>
		</g>
	</g>
</g>
<g id="Snow_Boots">
</g>
<g id="Snowcapped_Mountains">
</g>
<g id="Skis">
</g>
<g id="Sky_Glasses">
</g>
<g id="Snowboard">
</g>
<g id="Ice_Skate">
</g>
<g id="Wooden_House">
</g>
<g id="Snowcapped_House">
</g>
<g id="Hot_Drink">
</g>
<g id="Hot_Chocolate">
</g>
<g id="Lantern">
</g>
<g id="Snow_Shovel">
</g>
<g id="Snowman">
</g>
<g id="Reindeer">
</g>
<g id="Snowmobile">
</g>
<g id="Snow_Chain">
</g>
<g id="Slippery_Road">
</g>
</svg>
