<?xml version="1.0" encoding="iso-8859-1"?>
<!-- Generator: Adobe Illustrator 19.2.1, SVG Export Plug-In . SVG Version: 6.00 Build 0)  -->
<svg version="1.1" xmlns="http://www.w3.org/2000/svg" xmlns:xlink="http://www.w3.org/1999/xlink" x="0px" y="0px"
	 viewBox="0 0 24 24" style="enable-background:new 0 0 24 24;" xml:space="preserve">
<g id="Snowflake_1">
</g>
<g id="Snowflake_2">
</g>
<g id="Snowflake_3">
</g>
<g id="Snowflake_4">
</g>
<g id="Winter_Cap_1">
</g>
<g id="Winter_Cap_2">
</g>
<g id="Glowes">
</g>
<g id="Sweater_1">
</g>
<g id="Sweater_2">
</g>
<g id="Sweater_3">
</g>
<g id="Scarf">
</g>
<g id="Winter_Socks">
</g>
<g id="Winter_Sock">
</g>
<g id="Winter_Coat">
</g>
<g id="Winter_Calendar">
</g>
<g id="Thermometer_1">
</g>
<g id="Thermometer_2">
</g>
<g id="Cold">
</g>
<g id="Icicle">
</g>
<g id="Snowing">
</g>
<g id="Snow_Shoes_1">
</g>
<g id="Snow_Shoes_2">
</g>
<g id="Sledge">
</g>
<g id="Snow_Boots">
</g>
<g id="Snowcapped_Mountains">
</g>
<g id="Skis">
</g>
<g id="Sky_Glasses">
</g>
<g id="Snowboard">
</g>
<g id="Ice_Skate">
</g>
<g id="Wooden_House">
</g>
<g id="Snowcapped_House">
</g>
<g id="Hot_Drink">
</g>
<g id="Hot_Chocolate">
</g>
<g id="Lantern">
</g>
<g id="Snow_Shovel">
</g>
<g id="Snowman">
</g>
<g id="Reindeer">
</g>
<g id="Snowmobile">
</g>
<g id="Snow_Chain">
</g>
<g id="Slippery_Road">
	<g>
		<polygon points="13.609,9 10.391,9 10.141,10 13.859,10 		"/>
		<path d="M23.686,19.023L14.447,1.51C13.981,0.575,13.043-0.005,12-0.005c0,0,0,0,0,0c-1.043,0-1.981,0.581-2.443,1.505
			L0.308,19.033c-0.428,0.857-0.383,1.854,0.121,2.669C0.931,22.515,1.801,23,2.755,23h18.487c0.955,0,1.825-0.485,2.327-1.298
			C24.073,20.888,24.118,19.891,23.686,19.023z M7.917,18.405c0.487,0.123,1.039,0.263,1.508,0.641
			c0.562,0.453,0.615,1.177,0.558,1.533C9.944,20.825,9.731,21,9.49,21c-0.026,0-0.053-0.002-0.08-0.006
			c-0.273-0.044-0.458-0.301-0.415-0.573c0,0,0.05-0.396-0.198-0.596c-0.299-0.241-0.719-0.348-1.125-0.45
			c-0.71-0.18-1.683-0.426-1.683-1.617c0-1.207,0.972-1.453,1.683-1.633c0.406-0.103,0.826-0.209,1.125-0.45
			c0.25-0.2,0.199-0.592,0.199-0.596c-0.044-0.272,0.142-0.529,0.415-0.573c0.273-0.04,0.528,0.142,0.573,0.415
			c0.057,0.356,0.004,1.08-0.559,1.533c-0.469,0.378-1.021,0.518-1.507,0.641C7.12,17.297,6.99,17.388,6.99,17.742
			C6.99,18.112,7.12,18.203,7.917,18.405z M12.927,18.405c0.487,0.123,1.039,0.263,1.508,0.642c0.562,0.452,0.615,1.176,0.559,1.532
			C14.954,20.825,14.742,21,14.501,21c-0.026,0-0.053-0.002-0.08-0.006c-0.272-0.044-0.458-0.3-0.415-0.573
			c0,0,0.051-0.396-0.198-0.596c-0.299-0.241-0.719-0.348-1.125-0.45C11.972,19.195,11,18.949,11,17.758
			c0-1.207,0.972-1.453,1.682-1.633c0.407-0.103,0.827-0.209,1.125-0.449c0.25-0.201,0.199-0.599,0.199-0.603
			c-0.037-0.271,0.15-0.524,0.422-0.564c0.27-0.04,0.522,0.143,0.566,0.412c0.057,0.356,0.003,1.08-0.56,1.533
			c-0.469,0.378-1.021,0.518-1.507,0.641C12.13,17.297,12,17.388,12,17.742C12,18.112,12.13,18.203,12.927,18.405z M16,12.5
			c0,0.276-0.224,0.5-0.5,0.5H15v0.5c0,0.276-0.224,0.5-0.5,0.5S14,13.776,14,13.5V13h-4v0.5c0,0.276-0.224,0.5-0.5,0.5
			S9,13.776,9,13.5V13H8.5C8.224,13,8,12.776,8,12.5v-1c0-0.686,0.465-1.259,1.094-1.437l0.421-1.684C9.571,8.156,9.771,8,10,8h4
			c0.229,0,0.43,0.156,0.485,0.379l0.421,1.684C15.535,10.241,16,10.815,16,11.5V12.5z"/>
	</g>
</g>
</svg>
