<?xml version="1.0" encoding="iso-8859-1"?>
<!-- Generator: Adobe Illustrator 19.2.1, SVG Export Plug-In . SVG Version: 6.00 Build 0)  -->
<svg version="1.1" xmlns="http://www.w3.org/2000/svg" xmlns:xlink="http://www.w3.org/1999/xlink" x="0px" y="0px"
	 viewBox="0 0 30 30" style="enable-background:new 0 0 30 30;" xml:space="preserve">
<g id="Snowflake_1">
</g>
<g id="Snowflake_2">
</g>
<g id="Snowflake_3">
</g>
<g id="Snowflake_4">
</g>
<g id="Winter_Cap_1">
</g>
<g id="Winter_Cap_2">
</g>
<g id="Glowes">
</g>
<g id="Sweater_1">
</g>
<g id="Sweater_2">
</g>
<g id="Sweater_3">
</g>
<g id="Scarf">
</g>
<g id="Winter_Socks">
</g>
<g id="Winter_Sock">
</g>
<g id="Winter_Coat">
</g>
<g id="Winter_Calendar">
</g>
<g id="Thermometer_1">
</g>
<g id="Thermometer_2">
</g>
<g id="Cold">
</g>
<g id="Icicle">
</g>
<g id="Snowing">
</g>
<g id="Snow_Shoes_1">
</g>
<g id="Snow_Shoes_2">
</g>
<g id="Sledge">
</g>
<g id="Snow_Boots">
</g>
<g id="Snowcapped_Mountains">
</g>
<g id="Skis">
</g>
<g id="Sky_Glasses">
</g>
<g id="Snowboard">
</g>
<g id="Ice_Skate">
</g>
<g id="Wooden_House">
</g>
<g id="Snowcapped_House">
</g>
<g id="Hot_Drink">
</g>
<g id="Hot_Chocolate">
</g>
<g id="Lantern">
</g>
<g id="Snow_Shovel">
	<path d="M29.854,3.929l-3.782-3.783c-0.195-0.195-0.512-0.195-0.707,0l-0.739,0.739c-1.094,1.094-1.158,2.818-0.22,4.003
		L11.848,17.445l-4.69-4.69c-0.195-0.195-0.512-0.195-0.707,0L0.516,18.69c-0.687,0.687-0.687,1.804,0,2.49l8.304,8.304
		c0.343,0.343,0.794,0.515,1.245,0.515c0.451,0,0.902-0.172,1.246-0.515l5.936-5.936c0.195-0.195,0.195-0.512,0-0.707l-4.69-4.69
		L25.111,5.596c0.532,0.422,1.178,0.664,1.867,0.664c0.807,0,1.565-0.314,2.137-0.885l0.738-0.738
		C30.049,4.441,30.049,4.125,29.854,3.929z M4.391,20.436c-0.128,0-0.256-0.049-0.354-0.146c-0.195-0.195-0.195-0.512,0-0.707
		l2.415-2.414c0.195-0.195,0.512-0.195,0.707,0s0.195,0.512,0,0.707l-2.415,2.414C4.646,20.387,4.519,20.436,4.391,20.436z
		 M6.282,22.327c-0.128,0-0.256-0.049-0.354-0.146c-0.195-0.195-0.195-0.512,0-0.707l2.415-2.415c0.195-0.195,0.512-0.195,0.707,0
		s0.195,0.512,0,0.707l-2.415,2.415C6.538,22.278,6.41,22.327,6.282,22.327z M8.527,24.071c-0.098,0.098-0.226,0.146-0.354,0.146
		s-0.256-0.049-0.354-0.146c-0.195-0.195-0.195-0.512,0-0.707l2.414-2.414c0.195-0.195,0.512-0.195,0.707,0s0.195,0.512,0,0.707
		L8.527,24.071z M12.833,22.842c0.195,0.195,0.195,0.512,0,0.707l-2.415,2.414c-0.098,0.098-0.226,0.146-0.354,0.146
		s-0.256-0.049-0.354-0.146c-0.195-0.195-0.195-0.512,0-0.707l2.415-2.414C12.321,22.646,12.637,22.646,12.833,22.842z
		 M28.408,4.667c-0.764,0.764-2.096,0.764-2.859,0l-0.217-0.216c-0.788-0.789-0.788-2.071,0-2.859l0.386-0.385l3.075,3.076
		L28.408,4.667z"/>
</g>
<g id="Snowman">
</g>
<g id="Reindeer">
</g>
<g id="Snowmobile">
</g>
<g id="Snow_Chain">
</g>
<g id="Slippery_Road">
</g>
</svg>
