<?xml version="1.0" encoding="iso-8859-1"?>
<!-- Generator: Adobe Illustrator 19.2.1, SVG Export Plug-In . SVG Version: 6.00 Build 0)  -->
<svg version="1.1" xmlns="http://www.w3.org/2000/svg" xmlns:xlink="http://www.w3.org/1999/xlink" x="0px" y="0px"
	 viewBox="0 0 24 24" style="enable-background:new 0 0 24 24;" xml:space="preserve">
<g id="Snowflake_1">
</g>
<g id="Snowflake_2">
</g>
<g id="Snowflake_3">
</g>
<g id="Snowflake_4">
</g>
<g id="Winter_Cap_1">
</g>
<g id="Winter_Cap_2">
</g>
<g id="Glowes">
</g>
<g id="Sweater_1">
</g>
<g id="Sweater_2">
</g>
<g id="Sweater_3">
</g>
<g id="Scarf">
</g>
<g id="Winter_Socks">
</g>
<g id="Winter_Sock">
</g>
<g id="Winter_Coat">
</g>
<g id="Winter_Calendar">
</g>
<g id="Thermometer_1">
</g>
<g id="Thermometer_2">
</g>
<g id="Cold">
</g>
<g id="Icicle">
</g>
<g id="Snowing">
</g>
<g id="Snow_Shoes_1">
</g>
<g id="Snow_Shoes_2">
</g>
<g id="Sledge">
</g>
<g id="Snow_Boots">
</g>
<g id="Snowcapped_Mountains">
</g>
<g id="Skis">
</g>
<g id="Sky_Glasses">
</g>
<g id="Snowboard">
</g>
<g id="Ice_Skate">
</g>
<g id="Wooden_House">
</g>
<g id="Snowcapped_House">
</g>
<g id="Hot_Drink">
</g>
<g id="Hot_Chocolate">
</g>
<g id="Lantern">
</g>
<g id="Snow_Shovel">
</g>
<g id="Snowman">
</g>
<g id="Reindeer">
</g>
<g id="Snowmobile">
	<g>
		<path d="M23.724,16.053c-0.246-0.122-0.547-0.023-0.671,0.224l-0.224,0.448C22.744,16.895,22.573,17,22.382,17h-0.675
			l-2.246-2.246c1.003-0.202,1.986-0.523,2.918-0.991l1.379-0.836c0.123-0.075,0.208-0.199,0.233-0.34s-0.012-0.288-0.102-0.4
			l-2.198-2.748c-0.369-0.462-0.798-0.856-1.263-1.195C18.596,4.953,15.612,5.001,15.486,5c-0.151,0.004-0.293,0.077-0.385,0.198
			s-0.123,0.276-0.087,0.423l0.354,1.417c-0.045,0.013-0.094,0.013-0.133,0.038l-0.53,0.331l-0.79-1.185
			C13.823,6.083,13.667,6,13.5,6h-1C12.224,6,12,6.224,12,6.5S12.224,7,12.5,7h0.732l0.625,0.937l-2.343,1.464
			C11.811,9.676,12,10.065,12,10.5c0,0.827-0.673,1.5-1.5,1.5h-9c-0.26,0-0.501-0.072-0.714-0.189l-0.733,1.466
			c-0.075,0.15-0.07,0.328,0.014,0.474s0.235,0.239,0.403,0.249l2.116,0.129l-1.523,0.609C0.417,14.995,0,15.611,0,16.31
			C0,17.241,0.758,18,1.69,18h7.4c1.053,0,1.91-0.856,1.91-1.916c0-0.51-0.199-0.99-0.56-1.351l-0.135-0.135l6.292,0.383
			c0.2,0.011,0.399,0.016,0.599,0.016c0.346,0,0.69-0.029,1.034-0.06L20.293,17H18.5c-0.276,0-0.5,0.224-0.5,0.5s0.224,0.5,0.5,0.5
			h3.882c0.572,0,1.087-0.318,1.342-0.829l0.224-0.447C24.07,16.477,23.971,16.177,23.724,16.053z M7.941,15.736
			C7.854,15.898,7.685,16,7.5,16h-3C4.224,16,4,15.776,4,15.5S4.224,15,4.5,15h2.066l-0.482-0.723
			c-0.153-0.229-0.091-0.54,0.139-0.693c0.229-0.154,0.541-0.091,0.693,0.139l1,1.5C8.018,15.376,8.028,15.573,7.941,15.736z
			 M16.616,7h-0.226L16.16,6.077c0.564,0.119,1.419,0.428,2.24,1.18C17.827,7.094,17.23,7,16.616,7z"/>
		<path d="M2,11h8c0.552,0,1-0.448,1-1c0-0.552-0.448-1-1-1H2c-0.552,0-1,0.448-1,1C1,10.552,1.448,11,2,11z"/>
	</g>
</g>
<g id="Snow_Chain">
</g>
<g id="Slippery_Road">
</g>
</svg>
