<?xml version="1.0" encoding="iso-8859-1"?>
<!-- Generator: Adobe Illustrator 19.2.1, SVG Export Plug-In . SVG Version: 6.00 Build 0)  -->
<svg version="1.1" xmlns="http://www.w3.org/2000/svg" xmlns:xlink="http://www.w3.org/1999/xlink" x="0px" y="0px"
	 viewBox="0 0 30 30" style="enable-background:new 0 0 30 30;" xml:space="preserve">
<g id="Snowflake_1">
</g>
<g id="Snowflake_2">
</g>
<g id="Snowflake_3">
</g>
<g id="Snowflake_4">
</g>
<g id="Winter_Cap_1">
</g>
<g id="Winter_Cap_2">
</g>
<g id="Glowes">
</g>
<g id="Sweater_1">
</g>
<g id="Sweater_2">
</g>
<g id="Sweater_3">
</g>
<g id="Scarf">
</g>
<g id="Winter_Socks">
</g>
<g id="Winter_Sock">
</g>
<g id="Winter_Coat">
</g>
<g id="Winter_Calendar">
</g>
<g id="Thermometer_1">
</g>
<g id="Thermometer_2">
</g>
<g id="Cold">
</g>
<g id="Icicle">
</g>
<g id="Snowing">
</g>
<g id="Snow_Shoes_1">
	<path d="M29.854,29.146l-7.427-7.427c-0.075-1.522-0.741-10.827-5.93-16.016c-0.15-0.15-0.305-0.287-0.457-0.431
		c-0.043-0.065-0.099-0.119-0.167-0.158c-0.655-0.609-1.329-1.167-2.016-1.674c-0.008-0.008-0.018-0.013-0.027-0.02
		c-2.73-2.008-5.624-3.189-8.062-3.361C5.699,0.024,5.625,0,5.543,0c-0.067,0-0.13,0.014-0.188,0.038
		C3.738-0.001,2.346,0.421,1.389,1.38C0.368,2.401-0.041,3.821,0.023,5.432C0.014,5.469,0,5.504,0,5.543
		C0,5.62,0.02,5.691,0.051,5.755C0.295,8.94,2.298,12.794,5.082,15.82c0.045,0.11,0.131,0.195,0.235,0.249
		c0.132,0.139,0.26,0.283,0.395,0.418c5.188,5.188,14.485,5.862,16.007,5.939l7.428,7.428C29.244,29.951,29.372,30,29.5,30
		s0.256-0.049,0.354-0.146C30.049,29.658,30.049,29.342,29.854,29.146z M14,18h4v2.966c-1.2-0.213-2.577-0.523-4-0.967V18z
		 M13,19.664c-1.239-0.439-2.485-0.982-3.653-1.664H13V19.664z M14,17v-1.027C14.056,15.978,14.11,16,14.167,16
		C15.178,16,16,15.178,16,14.167c0-0.386-0.123-0.614-0.277-0.903l-0.052-0.098c-0.004-0.008-0.009-0.016-0.014-0.024L15.571,13H18
		v4H14z M3.39,12c-1.3-2.062-2.1-4.155-2.307-5.957h3.96V12H3.39z M5.043,13v1.26C4.699,13.845,4.367,13.426,4.063,13H5.043z
		 M6.043,6.043H13v2.692l-0.167-0.277c-0.015-0.025-0.033-0.048-0.052-0.07C12.189,7.518,11.217,7,10.167,7C8.42,7,7,8.42,7,10.167
		C7,10.833,7.216,11.468,7.601,12H6.043V6.043z M6.043,1.082C8.138,1.32,10.625,2.357,13,4.052v0.991H6.043V1.082z M14,4.824
		c0.093,0.075,0.187,0.143,0.279,0.219H14V4.824z M19,13h0.671c0.49,1.386,0.849,2.758,1.105,4H19V13z M19,12v-0.701
		c0.103,0.233,0.198,0.466,0.292,0.701H19z M18,9.326V12h-3.032L14,10.394v-4.35h1.392c0.131,0.125,0.268,0.238,0.397,0.367
		C16.651,7.272,17.38,8.266,18,9.326z M2.096,2.087c0.709-0.709,1.736-1.046,2.948-1.066v4.023h-4.01
		C1.053,3.829,1.386,2.797,2.096,2.087z M6.043,15.383V13h2.687c0.418,0.252,0.82,0.414,1.241,0.577
		c0.838,0.327,1.708,0.673,3.029,1.945V17H7.853c-0.504-0.377-0.99-0.776-1.434-1.22C6.289,15.65,6.169,15.515,6.043,15.383z
		 M19,21.129V18h1.968c0.266,1.508,0.385,2.736,0.434,3.402C20.891,21.365,20.044,21.283,19,21.129z"/>
</g>
<g id="Snow_Shoes_2">
</g>
<g id="Sledge">
</g>
<g id="Snow_Boots">
</g>
<g id="Snowcapped_Mountains">
</g>
<g id="Skis">
</g>
<g id="Sky_Glasses">
</g>
<g id="Snowboard">
</g>
<g id="Ice_Skate">
</g>
<g id="Wooden_House">
</g>
<g id="Snowcapped_House">
</g>
<g id="Hot_Drink">
</g>
<g id="Hot_Chocolate">
</g>
<g id="Lantern">
</g>
<g id="Snow_Shovel">
</g>
<g id="Snowman">
</g>
<g id="Reindeer">
</g>
<g id="Snowmobile">
</g>
<g id="Snow_Chain">
</g>
<g id="Slippery_Road">
</g>
</svg>
