<?xml version="1.0" encoding="iso-8859-1"?>
<!-- Generator: Adobe Illustrator 19.2.1, SVG Export Plug-In . SVG Version: 6.00 Build 0)  -->
<svg version="1.1" xmlns="http://www.w3.org/2000/svg" xmlns:xlink="http://www.w3.org/1999/xlink" x="0px" y="0px"
	 viewBox="0 0 30 30" style="enable-background:new 0 0 30 30;" xml:space="preserve">
<g id="Snowflake_1">
</g>
<g id="Snowflake_2">
</g>
<g id="Snowflake_3">
</g>
<g id="Snowflake_4">
</g>
<g id="Winter_Cap_1">
</g>
<g id="Winter_Cap_2">
</g>
<g id="Glowes">
</g>
<g id="Sweater_1">
</g>
<g id="Sweater_2">
</g>
<g id="Sweater_3">
</g>
<g id="Scarf">
</g>
<g id="Winter_Socks">
</g>
<g id="Winter_Sock">
</g>
<g id="Winter_Coat">
</g>
<g id="Winter_Calendar">
</g>
<g id="Thermometer_1">
</g>
<g id="Thermometer_2">
</g>
<g id="Cold">
</g>
<g id="Icicle">
</g>
<g id="Snowing">
</g>
<g id="Snow_Shoes_1">
</g>
<g id="Snow_Shoes_2">
</g>
<g id="Sledge">
</g>
<g id="Snow_Boots">
</g>
<g id="Snowcapped_Mountains">
</g>
<g id="Skis">
</g>
<g id="Sky_Glasses">
</g>
<g id="Snowboard">
</g>
<g id="Ice_Skate">
</g>
<g id="Wooden_House">
</g>
<g id="Snowcapped_House">
</g>
<g id="Hot_Drink">
</g>
<g id="Hot_Chocolate">
</g>
<g id="Lantern">
</g>
<g id="Snow_Shovel">
	<g>
		<g>
			<path d="M10.064,29.999c-0.451,0-0.901-0.172-1.245-0.515l-8.304-8.304c-0.687-0.687-0.687-1.804,0-2.49l5.936-5.936
				c0.195-0.195,0.512-0.195,0.707,0l10.086,10.087c0.195,0.195,0.195,0.512,0,0.707l-5.936,5.936
				C10.966,29.827,10.515,29.999,10.064,29.999z M6.805,13.815l-5.583,5.582c-0.297,0.297-0.297,0.779,0,1.076l8.304,8.304
				c0.297,0.297,0.779,0.297,1.076,0l5.582-5.582L6.805,13.815z"/>
		</g>
		<g>
			<path d="M11.849,18.651c-0.128,0-0.256-0.049-0.354-0.146c-0.195-0.195-0.195-0.512,0-0.707L24.733,4.56
				c0.195-0.195,0.512-0.195,0.707,0s0.195,0.512,0,0.707L12.202,18.505C12.104,18.603,11.977,18.651,11.849,18.651z"/>
		</g>
		<g>
			<path d="M26.979,6.259c-0.774,0-1.547-0.295-2.137-0.884l-0.217-0.217c-0.57-0.57-0.885-1.329-0.885-2.137
				c0-0.807,0.314-1.565,0.885-2.137l0.738-0.738c0.195-0.195,0.512-0.195,0.707,0l3.783,3.782c0.195,0.195,0.195,0.512,0,0.707
				l-0.739,0.739C28.526,5.964,27.752,6.259,26.979,6.259z M25.717,1.207l-0.385,0.385c-0.382,0.382-0.592,0.89-0.592,1.43
				s0.21,1.048,0.592,1.43l0.217,0.217c0.788,0.789,2.07,0.787,2.858,0l0.385-0.386L25.717,1.207z"/>
		</g>
		<g>
			<path d="M4.391,20.436c-0.128,0-0.256-0.049-0.354-0.146c-0.195-0.195-0.195-0.512,0-0.707l2.415-2.414
				c0.195-0.195,0.512-0.195,0.707,0s0.195,0.512,0,0.707l-2.415,2.414C4.646,20.387,4.519,20.436,4.391,20.436z"/>
		</g>
		<g>
			<path d="M10.064,26.109c-0.128,0-0.256-0.049-0.354-0.146c-0.195-0.195-0.195-0.512,0-0.707l2.415-2.414
				c0.195-0.195,0.512-0.195,0.707,0s0.195,0.512,0,0.707l-2.415,2.414C10.32,26.061,10.192,26.109,10.064,26.109z"/>
		</g>
		<g>
			<path d="M8.173,24.218c-0.128,0-0.256-0.049-0.354-0.146c-0.195-0.195-0.195-0.512,0-0.707l2.414-2.414
				c0.195-0.195,0.512-0.195,0.707,0s0.195,0.512,0,0.707l-2.414,2.414C8.429,24.169,8.301,24.218,8.173,24.218z"/>
		</g>
		<g>
			<path d="M6.282,22.327c-0.128,0-0.256-0.049-0.354-0.146c-0.195-0.195-0.195-0.512,0-0.707l2.415-2.415
				c0.195-0.195,0.512-0.195,0.707,0s0.195,0.512,0,0.707l-2.415,2.415C6.538,22.278,6.41,22.327,6.282,22.327z"/>
		</g>
	</g>
</g>
<g id="Snowman">
</g>
<g id="Reindeer">
</g>
<g id="Snowmobile">
</g>
<g id="Snow_Chain">
</g>
<g id="Slippery_Road">
</g>
</svg>
