<?xml version="1.0" encoding="iso-8859-1"?>
<!-- Generator: Adobe Illustrator 19.2.1, SVG Export Plug-In . SVG Version: 6.00 Build 0)  -->
<svg version="1.1" xmlns="http://www.w3.org/2000/svg" xmlns:xlink="http://www.w3.org/1999/xlink" x="0px" y="0px"
	 viewBox="0 0 24 24" style="enable-background:new 0 0 24 24;" xml:space="preserve">
<g id="Snowflake_1">
</g>
<g id="Snowflake_2">
</g>
<g id="Snowflake_3">
</g>
<g id="Snowflake_4">
</g>
<g id="Winter_Cap_1">
</g>
<g id="Winter_Cap_2">
</g>
<g id="Glowes">
</g>
<g id="Sweater_1">
</g>
<g id="Sweater_2">
</g>
<g id="Sweater_3">
</g>
<g id="Scarf">
</g>
<g id="Winter_Socks">
</g>
<g id="Winter_Sock">
</g>
<g id="Winter_Coat">
</g>
<g id="Winter_Calendar">
</g>
<g id="Thermometer_1">
</g>
<g id="Thermometer_2">
</g>
<g id="Cold">
</g>
<g id="Icicle">
</g>
<g id="Snowing">
</g>
<g id="Snow_Shoes_1">
</g>
<g id="Snow_Shoes_2">
</g>
<g id="Sledge">
</g>
<g id="Snow_Boots">
</g>
<g id="Snowcapped_Mountains">
</g>
<g id="Skis">
</g>
<g id="Sky_Glasses">
</g>
<g id="Snowboard">
</g>
<g id="Ice_Skate">
</g>
<g id="Wooden_House">
</g>
<g id="Snowcapped_House">
</g>
<g id="Hot_Drink">
</g>
<g id="Hot_Chocolate">
</g>
<g id="Lantern">
</g>
<g id="Snow_Shovel">
</g>
<g id="Snowman">
	<g>
		<path d="M22.5,12h-1.793l1.146-1.146c0.195-0.195,0.195-0.512,0-0.707s-0.512-0.195-0.707,0l-1.976,1.976l-2.312,1.734
			c-0.393-0.574-0.871-1.089-1.429-1.516C14.431,13.363,13.039,14,11.5,14s-2.931-0.637-3.93-1.66
			c-0.558,0.426-1.036,0.942-1.429,1.516l-2.312-1.734l-1.976-1.976c-0.195-0.195-0.512-0.195-0.707,0s-0.195,0.512,0,0.707
			L2.293,12H0.5C0.224,12,0,12.224,0,12.5S0.224,13,0.5,13h2.833l2.305,1.729C5.231,15.58,5,16.522,5,17.5
			c0,3.584,2.916,6.5,6.5,6.5s6.5-2.916,6.5-6.5c0-0.978-0.231-1.92-0.638-2.771L19.667,13H22.5c0.276,0,0.5-0.224,0.5-0.5
			S22.776,12,22.5,12z M11.5,20c-0.276,0-0.5-0.224-0.5-0.5c0-0.276,0.224-0.5,0.5-0.5s0.5,0.224,0.5,0.5
			C12,19.776,11.776,20,11.5,20z M11.5,18c-0.276,0-0.5-0.224-0.5-0.5c0-0.276,0.224-0.5,0.5-0.5s0.5,0.224,0.5,0.5
			C12,17.776,11.776,18,11.5,18z M11.5,16c-0.276,0-0.5-0.224-0.5-0.5c0-0.276,0.224-0.5,0.5-0.5s0.5,0.224,0.5,0.5
			C12,15.776,11.776,16,11.5,16z"/>
		<path d="M7.146,7.45C7.059,7.793,7,8.143,7,8.5c0,2.481,2.019,4.5,4.5,4.5S16,10.981,16,8.5c0-0.357-0.059-0.707-0.146-1.05
			C16.786,6.856,17,6.209,17,5.75c0-0.902-0.799-1.667-2.062-2.162l-0.349-2.094c-0.096-0.569-0.495-1.025-1.041-1.189
			C13.086,0.166,12.356,0,11.5,0c-0.799,0-1.499,0.092-2.08,0.275C8.896,0.439,8.512,0.89,8.418,1.451L8.062,3.588
			C6.799,4.083,6,4.848,6,5.75C6,6.209,6.214,6.855,7.146,7.45z M10,7.5C10,7.224,10.224,7,10.5,7S11,7.224,11,7.5
			C11,7.776,10.776,8,10.5,8S10,7.776,10,7.5z M12.474,9.658l-0.5,1.5C11.906,11.362,11.715,11.5,11.5,11.5
			s-0.406-0.138-0.474-0.342l-0.5-1.5c-0.087-0.262,0.054-0.545,0.316-0.632c0.264-0.087,0.545,0.054,0.632,0.316L11.5,9.419
			l0.026-0.077c0.087-0.262,0.367-0.403,0.632-0.316C12.42,9.113,12.562,9.396,12.474,9.658z M12.5,8C12.224,8,12,7.776,12,7.5
			C12,7.224,12.224,7,12.5,7S13,7.224,13,7.5C13,7.776,12.776,8,12.5,8z M11.5,4C14.076,4,16,4.924,16,5.75
			c0,0.234-0.185,0.49-0.507,0.733c-0.127-0.242-0.271-0.478-0.443-0.701c-0.047-0.061-0.108-0.11-0.178-0.144
			c-1.67-0.811-5.074-0.811-6.744,0C8.059,5.671,7.998,5.721,7.95,5.782C7.778,6.005,7.634,6.241,7.507,6.483
			C7.185,6.24,7,5.984,7,5.75C7,4.924,8.924,4,11.5,4z"/>
	</g>
</g>
<g id="Reindeer">
</g>
<g id="Snowmobile">
</g>
<g id="Snow_Chain">
</g>
<g id="Slippery_Road">
</g>
</svg>
