<?xml version="1.0" encoding="iso-8859-1"?>
<!-- Generator: Adobe Illustrator 19.2.1, SVG Export Plug-In . SVG Version: 6.00 Build 0)  -->
<svg version="1.1" xmlns="http://www.w3.org/2000/svg" xmlns:xlink="http://www.w3.org/1999/xlink" x="0px" y="0px"
	 viewBox="0 0 30 30" style="enable-background:new 0 0 30 30;" xml:space="preserve">
<g id="Snowflake_1">
</g>
<g id="Snowflake_2">
</g>
<g id="Snowflake_3">
</g>
<g id="Snowflake_4">
</g>
<g id="Winter_Cap_1">
</g>
<g id="Winter_Cap_2">
</g>
<g id="Glowes">
</g>
<g id="Sweater_1">
</g>
<g id="Sweater_2">
</g>
<g id="Sweater_3">
</g>
<g id="Scarf">
</g>
<g id="Winter_Socks">
</g>
<g id="Winter_Sock">
</g>
<g id="Winter_Coat">
</g>
<g id="Winter_Calendar">
</g>
<g id="Thermometer_1">
</g>
<g id="Thermometer_2">
</g>
<g id="Cold">
</g>
<g id="Icicle">
</g>
<g id="Snowing">
</g>
<g id="Snow_Shoes_1">
</g>
<g id="Snow_Shoes_2">
	<g>
		<g>
			<path d="M7.565,23c-0.158,0-0.306-0.074-0.4-0.2c-0.208-0.279-5.1-6.89-5.1-12.594C2.065,5.277,4.275,0,7.565,0
				s5.5,5.277,5.5,10.206c0,5.704-4.891,12.314-5.1,12.594C7.872,22.926,7.723,23,7.565,23z M7.565,1c-2.355,0-4.5,4.388-4.5,9.206
				c0,4.453,3.33,9.715,4.5,11.427c1.17-1.713,4.5-6.979,4.5-11.427C12.065,5.302,9.962,1,7.565,1z"/>
		</g>
		<g>
			<path d="M7.5,30C7.224,30,7,29.776,7,29.5v-7.09c0-0.276,0.224-0.5,0.5-0.5S8,22.134,8,22.41v7.09C8,29.776,7.776,30,7.5,30z"/>
		</g>
		<g>
			<path d="M12.54,9.765c-0.165,0-0.312-0.078-0.403-0.2L4.756,2.184c-0.195-0.195-0.195-0.512,0-0.707s0.512-0.195,0.707,0
				l7.43,7.43C12.987,9,13.04,9.127,13.04,9.26C13.04,9.536,12.816,9.765,12.54,9.765z"/>
		</g>
		<g>
			<path d="M2.6,9.75c-0.128,0-0.256-0.049-0.354-0.146c-0.195-0.195-0.195-0.512,0-0.707l7.429-7.429
				c0.196-0.196,0.512-0.195,0.708-0.002c0.195,0.195,0.196,0.512,0.001,0.707L2.954,9.604C2.856,9.701,2.728,9.75,2.6,9.75z"/>
		</g>
		<g>
			<path d="M11.634,15.156c-0.128,0-0.256-0.049-0.354-0.146l-3.005-3.005c-0.195-0.195-0.195-0.512,0-0.707s0.512-0.195,0.707,0
				l3.005,3.005c0.195,0.195,0.195,0.512,0,0.707C11.89,15.107,11.762,15.156,11.634,15.156z"/>
		</g>
		<g>
			<path d="M5.67,9.2c-0.128,0-0.256-0.049-0.354-0.146l-2.59-2.59c-0.195-0.195-0.195-0.512,0-0.707s0.512-0.195,0.707,0l2.59,2.59
				c0.195,0.195,0.195,0.512,0,0.707C5.926,9.151,5.798,9.2,5.67,9.2z"/>
		</g>
		<g>
			<path d="M3.493,15.159c-0.128,0-0.256-0.049-0.354-0.146c-0.195-0.195-0.195-0.512,0-0.707l2.773-2.773
				c0.195-0.195,0.512-0.195,0.707,0s0.195,0.512,0,0.707l-2.773,2.773C3.749,15.11,3.621,15.159,3.493,15.159z"/>
		</g>
		<g>
			<path d="M9.46,9.2c-0.128,0-0.256-0.049-0.354-0.146c-0.195-0.195-0.195-0.512,0-0.707l2.599-2.609
				c0.195-0.193,0.512-0.197,0.707-0.002c0.196,0.194,0.197,0.511,0.003,0.707L9.813,9.054C9.716,9.151,9.588,9.2,9.46,9.2z"/>
		</g>
		<g>
			<path d="M9.58,19.405c-0.128,0-0.256-0.049-0.354-0.146l-6.852-6.851c-0.195-0.195-0.195-0.512,0-0.707s0.512-0.195,0.707,0
				l6.852,6.851c0.195,0.195,0.195,0.512,0,0.707C9.835,19.356,9.708,19.405,9.58,19.405z"/>
		</g>
		<g>
			<path d="M5.556,19.4c-0.128,0-0.256-0.049-0.354-0.146c-0.195-0.195-0.195-0.512,0-0.707l6.833-6.833
				c0.195-0.195,0.512-0.195,0.707,0s0.195,0.512,0,0.707l-6.833,6.833C5.812,19.352,5.684,19.4,5.556,19.4z"/>
		</g>
		<g>
			<path d="M7.566,14.869c-0.757,0-1.24-0.45-1.434-1.339l-0.185-0.824c-0.283-1.254-0.671-2.971-0.77-3.962
				c-0.059-0.591,0.139-1.17,0.555-1.63c0.459-0.507,1.145-0.81,1.833-0.81c1.319,0,2.392,1.072,2.392,2.391
				c0,0.56-0.167,0.95-0.343,1.362c-0.269,0.63-0.603,1.413-0.603,3.366C9.012,14.221,8.364,14.869,7.566,14.869z M7.566,7.305
				c-0.411,0-0.819,0.18-1.092,0.481C6.25,8.034,6.143,8.339,6.173,8.646c0.092,0.93,0.472,2.611,0.75,3.84l0.186,0.832
				c0.121,0.552,0.292,0.552,0.458,0.552c0.246,0,0.446-0.2,0.446-0.445c0-2.157,0.395-3.083,0.684-3.759
				c0.158-0.37,0.262-0.614,0.262-0.97C8.958,7.929,8.333,7.305,7.566,7.305z"/>
		</g>
		<g>
			<path d="M22.565,23c-0.158,0-0.306-0.074-0.4-0.2c-0.208-0.279-5.1-6.89-5.1-12.594c0-4.929,2.21-10.206,5.5-10.206
				s5.5,5.277,5.5,10.206c0,5.704-4.891,12.314-5.1,12.594C22.872,22.926,22.723,23,22.565,23z M22.565,1
				c-2.355,0-4.5,4.388-4.5,9.206c0,4.453,3.33,9.715,4.5,11.427c1.17-1.713,4.5-6.979,4.5-11.427C27.065,5.302,24.962,1,22.565,1z"
				/>
		</g>
		<g>
			<path d="M22.5,30c-0.276,0-0.5-0.224-0.5-0.5v-7.09c0-0.276,0.224-0.5,0.5-0.5s0.5,0.224,0.5,0.5v7.09
				C23,29.776,22.776,30,22.5,30z"/>
		</g>
		<g>
			<path d="M27.54,9.765c-0.165,0-0.312-0.078-0.403-0.2l-7.381-7.381c-0.195-0.195-0.195-0.512,0-0.707s0.512-0.195,0.707,0
				l7.43,7.43C27.987,9,28.04,9.127,28.04,9.26C28.04,9.536,27.816,9.765,27.54,9.765z"/>
		</g>
		<g>
			<path d="M17.6,9.75c-0.128,0-0.256-0.049-0.354-0.146c-0.195-0.195-0.195-0.512,0-0.707l7.429-7.429
				c0.196-0.196,0.512-0.195,0.708-0.002c0.195,0.195,0.196,0.512,0.001,0.707l-7.431,7.431C17.856,9.701,17.728,9.75,17.6,9.75z"/>
		</g>
		<g>
			<path d="M26.634,15.156c-0.128,0-0.256-0.049-0.354-0.146l-3.005-3.005c-0.195-0.195-0.195-0.512,0-0.707s0.512-0.195,0.707,0
				l3.005,3.005c0.195,0.195,0.195,0.512,0,0.707C26.89,15.107,26.762,15.156,26.634,15.156z"/>
		</g>
		<g>
			<path d="M20.67,9.2c-0.128,0-0.256-0.049-0.354-0.146l-2.59-2.59c-0.195-0.195-0.195-0.512,0-0.707s0.512-0.195,0.707,0
				l2.59,2.59c0.195,0.195,0.195,0.512,0,0.707C20.926,9.151,20.798,9.2,20.67,9.2z"/>
		</g>
		<g>
			<path d="M18.493,15.159c-0.128,0-0.256-0.049-0.354-0.146c-0.195-0.195-0.195-0.512,0-0.707l2.773-2.773
				c0.195-0.195,0.512-0.195,0.707,0s0.195,0.512,0,0.707l-2.773,2.773C18.749,15.11,18.621,15.159,18.493,15.159z"/>
		</g>
		<g>
			<path d="M24.46,9.2c-0.128,0-0.256-0.049-0.354-0.146c-0.195-0.195-0.195-0.512,0-0.707l2.599-2.609
				c0.195-0.193,0.511-0.197,0.707-0.002c0.196,0.194,0.197,0.511,0.003,0.707l-2.602,2.611C24.716,9.151,24.588,9.2,24.46,9.2z"/>
		</g>
		<g>
			<path d="M24.58,19.405c-0.128,0-0.256-0.049-0.354-0.146l-6.852-6.851c-0.195-0.195-0.195-0.512,0-0.707s0.512-0.195,0.707,0
				l6.852,6.851c0.195,0.195,0.195,0.512,0,0.707C24.835,19.356,24.708,19.405,24.58,19.405z"/>
		</g>
		<g>
			<path d="M20.556,19.4c-0.128,0-0.256-0.049-0.354-0.146c-0.195-0.195-0.195-0.512,0-0.707l6.833-6.833
				c0.195-0.195,0.512-0.195,0.707,0s0.195,0.512,0,0.707l-6.833,6.833C20.812,19.352,20.684,19.4,20.556,19.4z"/>
		</g>
		<g>
			<path d="M22.566,14.869c-0.757,0-1.24-0.45-1.434-1.339l-0.185-0.824c-0.283-1.254-0.671-2.971-0.77-3.962
				c-0.059-0.591,0.139-1.17,0.555-1.63c0.459-0.507,1.145-0.81,1.833-0.81c1.319,0,2.392,1.072,2.392,2.391
				c0,0.56-0.167,0.95-0.343,1.362c-0.269,0.63-0.603,1.413-0.603,3.366C24.012,14.221,23.364,14.869,22.566,14.869z M22.566,7.305
				c-0.411,0-0.819,0.18-1.092,0.481c-0.225,0.248-0.332,0.553-0.301,0.859c0.092,0.93,0.472,2.611,0.75,3.84l0.186,0.832
				c0.121,0.552,0.292,0.552,0.458,0.552c0.246,0,0.446-0.2,0.446-0.445c0-2.157,0.395-3.083,0.684-3.759
				c0.158-0.37,0.262-0.614,0.262-0.97C23.958,7.929,23.333,7.305,22.566,7.305z"/>
		</g>
	</g>
</g>
<g id="Sledge">
</g>
<g id="Snow_Boots">
</g>
<g id="Snowcapped_Mountains">
</g>
<g id="Skis">
</g>
<g id="Sky_Glasses">
</g>
<g id="Snowboard">
</g>
<g id="Ice_Skate">
</g>
<g id="Wooden_House">
</g>
<g id="Snowcapped_House">
</g>
<g id="Hot_Drink">
</g>
<g id="Hot_Chocolate">
</g>
<g id="Lantern">
</g>
<g id="Snow_Shovel">
</g>
<g id="Snowman">
</g>
<g id="Reindeer">
</g>
<g id="Snowmobile">
</g>
<g id="Snow_Chain">
</g>
<g id="Slippery_Road">
</g>
</svg>
