<?xml version="1.0" encoding="iso-8859-1"?>
<!-- Generator: Adobe Illustrator 19.2.1, SVG Export Plug-In . SVG Version: 6.00 Build 0)  -->
<svg version="1.1" xmlns="http://www.w3.org/2000/svg" xmlns:xlink="http://www.w3.org/1999/xlink" x="0px" y="0px"
	 viewBox="0 0 30 30" style="enable-background:new 0 0 30 30;" xml:space="preserve">
<g id="Snowflake_1">
	<path d="M29.354,16.413l-6.605,2.003L16.538,15l6.212-3.417l6.605,2.004c0.049,0.015,0.098,0.021,0.146,0.021
		c0.215,0,0.413-0.139,0.479-0.355c0.08-0.264-0.069-0.543-0.333-0.624l-5.671-1.721l4.375-2.406
		c0.242-0.133,0.33-0.437,0.197-0.679c-0.135-0.243-0.438-0.33-0.68-0.197l-4.384,2.411l1.648-5.715
		c0.076-0.266-0.076-0.542-0.342-0.619c-0.27-0.075-0.542,0.077-0.619,0.342l-1.924,6.672L16,14.154V7.011l4.897-4.897
		c0.195-0.195,0.195-0.512,0-0.707s-0.512-0.195-0.707,0L16,5.597V0.5C16,0.224,15.776,0,15.5,0S15,0.224,15,0.5v5.097l-4.19-4.19
		c-0.195-0.195-0.512-0.195-0.707,0s-0.195,0.512,0,0.707L15,7.011v7.143L8.754,10.72L6.829,4.046
		C6.752,3.782,6.479,3.628,6.21,3.705C5.945,3.781,5.792,4.058,5.868,4.324l1.649,5.715L3.132,7.627
		c-0.24-0.132-0.546-0.044-0.679,0.197C2.32,8.066,2.408,8.371,2.65,8.503l4.375,2.406L1.355,12.63
		c-0.264,0.08-0.414,0.359-0.333,0.624c0.065,0.216,0.264,0.355,0.479,0.355c0.048,0,0.097-0.007,0.145-0.021l6.605-2.004L14.462,15
		L8.25,18.416l-6.605-2.003c-0.264-0.08-0.543,0.069-0.624,0.333c-0.08,0.265,0.069,0.544,0.333,0.624l5.671,1.72L2.65,21.496
		c-0.242,0.134-0.331,0.438-0.197,0.68c0.091,0.165,0.262,0.259,0.438,0.259c0.082,0,0.164-0.02,0.24-0.062l4.385-2.412
		l-1.649,5.715c-0.077,0.266,0.077,0.543,0.342,0.619c0.046,0.014,0.093,0.02,0.139,0.02c0.217,0,0.417-0.143,0.48-0.361
		l1.925-6.673L15,15.846v7.143l-4.897,4.897c-0.195,0.195-0.195,0.512,0,0.707s0.512,0.195,0.707,0l4.19-4.19V29.5
		c0,0.276,0.224,0.5,0.5,0.5s0.5-0.224,0.5-0.5v-5.098l4.19,4.19c0.098,0.098,0.226,0.146,0.354,0.146s0.256-0.049,0.354-0.146
		c0.195-0.195,0.195-0.512,0-0.707L16,22.988v-7.142l6.247,3.436l1.924,6.672c0.063,0.219,0.263,0.361,0.48,0.361
		c0.046,0,0.093-0.006,0.139-0.02c0.266-0.076,0.418-0.354,0.342-0.619l-1.648-5.715l4.383,2.411
		c0.077,0.042,0.159,0.062,0.241,0.062c0.176,0,0.347-0.094,0.438-0.259c0.133-0.242,0.045-0.546-0.197-0.68l-4.375-2.406
		l5.671-1.72c0.264-0.08,0.413-0.359,0.333-0.624C29.898,16.482,29.623,16.332,29.354,16.413z"/>
</g>
<g id="Snowflake_2">
</g>
<g id="Snowflake_3">
</g>
<g id="Snowflake_4">
</g>
<g id="Winter_Cap_1">
</g>
<g id="Winter_Cap_2">
</g>
<g id="Glowes">
</g>
<g id="Sweater_1">
</g>
<g id="Sweater_2">
</g>
<g id="Sweater_3">
</g>
<g id="Scarf">
</g>
<g id="Winter_Socks">
</g>
<g id="Winter_Sock">
</g>
<g id="Winter_Coat">
</g>
<g id="Winter_Calendar">
</g>
<g id="Thermometer_1">
</g>
<g id="Thermometer_2">
</g>
<g id="Cold">
</g>
<g id="Icicle">
</g>
<g id="Snowing">
</g>
<g id="Snow_Shoes_1">
</g>
<g id="Snow_Shoes_2">
</g>
<g id="Sledge">
</g>
<g id="Snow_Boots">
</g>
<g id="Snowcapped_Mountains">
</g>
<g id="Skis">
</g>
<g id="Sky_Glasses">
</g>
<g id="Snowboard">
</g>
<g id="Ice_Skate">
</g>
<g id="Wooden_House">
</g>
<g id="Snowcapped_House">
</g>
<g id="Hot_Drink">
</g>
<g id="Hot_Chocolate">
</g>
<g id="Lantern">
</g>
<g id="Snow_Shovel">
</g>
<g id="Snowman">
</g>
<g id="Reindeer">
</g>
<g id="Snowmobile">
</g>
<g id="Snow_Chain">
</g>
<g id="Slippery_Road">
</g>
</svg>
