<?xml version="1.0" encoding="iso-8859-1"?>
<!-- Generator: Adobe Illustrator 19.2.1, SVG Export Plug-In . SVG Version: 6.00 Build 0)  -->
<svg version="1.1" xmlns="http://www.w3.org/2000/svg" xmlns:xlink="http://www.w3.org/1999/xlink" x="0px" y="0px"
	 viewBox="0 0 30 30" style="enable-background:new 0 0 30 30;" xml:space="preserve">
<g id="Snowflake_1">
</g>
<g id="Snowflake_2">
</g>
<g id="Snowflake_3">
</g>
<g id="Snowflake_4">
</g>
<g id="Winter_Cap_1">
</g>
<g id="Winter_Cap_2">
</g>
<g id="Glowes">
</g>
<g id="Sweater_1">
</g>
<g id="Sweater_2">
</g>
<g id="Sweater_3">
</g>
<g id="Scarf">
</g>
<g id="Winter_Socks">
</g>
<g id="Winter_Sock">
</g>
<g id="Winter_Coat">
</g>
<g id="Winter_Calendar">
</g>
<g id="Thermometer_1">
</g>
<g id="Thermometer_2">
</g>
<g id="Cold">
</g>
<g id="Icicle">
</g>
<g id="Snowing">
</g>
<g id="Snow_Shoes_1">
	<g>
		<g>
			<path d="M21.935,22.435c-0.005,0-0.011,0-0.016,0c-0.433-0.015-10.665-0.405-16.207-5.947c-2.396-2.396-4.271-5.37-5.145-8.16
				c-0.942-3.009-0.65-5.476,0.822-6.947c2.922-2.925,9.841-0.943,15.107,4.323c5.542,5.542,5.925,15.782,5.938,16.216
				c0.004,0.138-0.048,0.271-0.146,0.369C22.194,22.382,22.067,22.435,21.935,22.435z M5.154,1.013
				c-1.262,0-2.327,0.344-3.058,1.074C0.9,3.282,0.696,5.393,1.521,8.028c0.827,2.642,2.612,5.467,4.897,7.752
				c4.559,4.559,12.791,5.46,14.983,5.622c-0.161-2.195-1.059-10.438-5.613-14.992C12.396,3.017,8.202,1.013,5.154,1.013z"/>
		</g>
		<g>
			<path d="M29.5,30c-0.128,0-0.256-0.049-0.354-0.146l-7.565-7.565c-0.195-0.195-0.195-0.512,0-0.707s0.512-0.195,0.707,0
				l7.565,7.565c0.195,0.195,0.195,0.512,0,0.707C29.756,29.951,29.628,30,29.5,30z"/>
		</g>
		<g>
			<path d="M5.543,16.131c-0.276,0-0.5-0.224-0.5-0.5V0.5c0-0.276,0.224-0.5,0.5-0.5s0.5,0.224,0.5,0.5v15.131
				C6.043,15.907,5.82,16.131,5.543,16.131z"/>
		</g>
		<g>
			<path d="M15.63,6.044H0.5c-0.276,0-0.5-0.224-0.5-0.5s0.224-0.5,0.5-0.5h15.13c0.276,0,0.5,0.224,0.5,0.5
				S15.907,6.044,15.63,6.044z"/>
		</g>
		<g>
			<path d="M18.5,22.06c-0.276,0-0.5-0.224-0.5-0.5V9.18c0-0.276,0.224-0.5,0.5-0.5S19,8.903,19,9.18v12.38
				C19,21.836,18.776,22.06,18.5,22.06z"/>
		</g>
		<g>
			<path d="M21.39,18H7.67c-0.276,0-0.5-0.224-0.5-0.5S7.394,17,7.67,17h13.72c0.276,0,0.5,0.224,0.5,0.5S21.667,18,21.39,18z"/>
		</g>
		<g>
			<path d="M14.167,16c-0.348,0-0.69-0.114-1.02-0.339c-1.407-1.396-2.307-1.746-3.176-2.084c-0.516-0.201-1.003-0.391-1.529-0.761
				l0.161-0.463l-0.006-0.006l-0.269,0.389l-0.123-0.085c-0.044-0.031-0.083-0.068-0.115-0.11C7.396,11.937,7,11.078,7,10.167
				C7,8.421,8.42,7,10.167,7c1.052,0,2.025,0.519,2.617,1.391c0.018,0.021,0.035,0.044,0.049,0.068l2.824,4.684
				c0.005,0.008,0.009,0.016,0.014,0.023l0.053,0.1C15.878,13.554,16,13.781,16,14.167C16,15.178,15.178,16,14.167,16z
				 M8.868,11.895l0.029,0.02c0.001,0.001,0.12,0.084,0.121,0.084c0.426,0.301,0.838,0.461,1.315,0.646
				c0.921,0.358,1.965,0.766,3.45,2.25C13.873,14.946,14.022,15,14.167,15C14.626,15,15,14.626,15,14.167
				c0-0.125-0.022-0.175-0.158-0.429l-0.049-0.091l-2.785-4.619C12,9.017,11.99,9.004,11.982,8.991C11.58,8.37,10.901,8,10.167,8
				C8.972,8,8,8.972,8,10.167c0,0.647,0.296,1.258,0.813,1.676C8.833,11.858,8.851,11.876,8.868,11.895z"/>
		</g>
		<g>
			<path d="M13.5,20.87c-0.276,0-0.5-0.224-0.5-0.5v-5.08c0-0.276,0.224-0.5,0.5-0.5s0.5,0.224,0.5,0.5v5.08
				C14,20.646,13.776,20.87,13.5,20.87z"/>
		</g>
		<g>
			<path d="M13.5,11.04c-0.276,0-0.5-0.224-0.5-0.5V3.79c0-0.276,0.224-0.5,0.5-0.5S14,3.514,14,3.79v6.75
				C14,10.816,13.776,11.04,13.5,11.04z"/>
		</g>
		<g>
			<path d="M20.03,13h-5.34c-0.276,0-0.5-0.224-0.5-0.5s0.224-0.5,0.5-0.5h5.34c0.276,0,0.5,0.224,0.5,0.5S20.306,13,20.03,13z"/>
		</g>
		<g>
			<path d="M8.87,13H3.13c-0.276,0-0.5-0.224-0.5-0.5S2.854,12,3.13,12h5.74c0.276,0,0.5,0.224,0.5,0.5S9.146,13,8.87,13z"/>
		</g>
	</g>
</g>
<g id="Snow_Shoes_2">
</g>
<g id="Sledge">
</g>
<g id="Snow_Boots">
</g>
<g id="Snowcapped_Mountains">
</g>
<g id="Skis">
</g>
<g id="Sky_Glasses">
</g>
<g id="Snowboard">
</g>
<g id="Ice_Skate">
</g>
<g id="Wooden_House">
</g>
<g id="Snowcapped_House">
</g>
<g id="Hot_Drink">
</g>
<g id="Hot_Chocolate">
</g>
<g id="Lantern">
</g>
<g id="Snow_Shovel">
</g>
<g id="Snowman">
</g>
<g id="Reindeer">
</g>
<g id="Snowmobile">
</g>
<g id="Snow_Chain">
</g>
<g id="Slippery_Road">
</g>
</svg>
