<?xml version="1.0" encoding="iso-8859-1"?>
<!-- Generator: Adobe Illustrator 19.2.1, SVG Export Plug-In . SVG Version: 6.00 Build 0)  -->
<svg version="1.1" xmlns="http://www.w3.org/2000/svg" xmlns:xlink="http://www.w3.org/1999/xlink" x="0px" y="0px"
	 viewBox="0 0 30 30" style="enable-background:new 0 0 30 30;" xml:space="preserve">
<g id="Snowflake_1">
</g>
<g id="Snowflake_2">
</g>
<g id="Snowflake_3">
</g>
<g id="Snowflake_4">
</g>
<g id="Winter_Cap_1">
</g>
<g id="Winter_Cap_2">
</g>
<g id="Glowes">
</g>
<g id="Sweater_1">
</g>
<g id="Sweater_2">
</g>
<g id="Sweater_3">
</g>
<g id="Scarf">
</g>
<g id="Winter_Socks">
</g>
<g id="Winter_Sock">
</g>
<g id="Winter_Coat">
</g>
<g id="Winter_Calendar">
</g>
<g id="Thermometer_1">
</g>
<g id="Thermometer_2">
</g>
<g id="Cold">
</g>
<g id="Icicle">
</g>
<g id="Snowing">
</g>
<g id="Snow_Shoes_1">
</g>
<g id="Snow_Shoes_2">
</g>
<g id="Sledge">
</g>
<g id="Snow_Boots">
</g>
<g id="Snowcapped_Mountains">
</g>
<g id="Skis">
</g>
<g id="Sky_Glasses">
</g>
<g id="Snowboard">
	<path d="M28.492,21.48c-0.05-0.037-5.032-3.777-10.61-9.355C13.561,7.804,8.56,1.558,8.473,1.454C7.536,0.517,6.289,0,4.964,0
		c-1.326,0-2.572,0.517-3.51,1.454S0,3.638,0,4.964c0,1.325,0.517,2.572,1.506,3.555c0.05,0.037,5.019,3.807,10.597,9.386
		c4.322,4.322,9.339,10.539,9.425,10.642C22.464,29.483,23.711,30,25.036,30c1.326,0,2.572-0.517,3.51-1.454S30,26.362,30,25.036
		C30,23.711,29.483,22.464,28.492,21.48z M17.506,20.335c0.175-0.559,0.581-1.184,1.113-1.716s1.157-0.938,1.716-1.113
		c0.197-0.063,0.38-0.094,0.536-0.094c0.191,0,0.344,0.047,0.437,0.14c0.168,0.168,0.186,0.531,0.046,0.973
		c-0.175,0.559-0.581,1.184-1.113,1.716s-1.157,0.938-1.716,1.113c-0.439,0.139-0.804,0.122-0.973-0.046
		C17.384,21.14,17.366,20.776,17.506,20.335z M8.663,11.492c0.175-0.559,0.581-1.184,1.113-1.716s1.157-0.938,1.716-1.113
		c0.197-0.063,0.38-0.094,0.536-0.094c0.191,0,0.344,0.047,0.437,0.14c0.168,0.168,0.186,0.531,0.046,0.973
		c-0.175,0.559-0.581,1.184-1.113,1.716s-1.157,0.938-1.716,1.113c-0.438,0.14-0.804,0.123-0.973-0.046
		C8.541,12.297,8.523,11.934,8.663,11.492z"/>
</g>
<g id="Ice_Skate">
</g>
<g id="Wooden_House">
</g>
<g id="Snowcapped_House">
</g>
<g id="Hot_Drink">
</g>
<g id="Hot_Chocolate">
</g>
<g id="Lantern">
</g>
<g id="Snow_Shovel">
</g>
<g id="Snowman">
</g>
<g id="Reindeer">
</g>
<g id="Snowmobile">
</g>
<g id="Snow_Chain">
</g>
<g id="Slippery_Road">
</g>
</svg>
