<?xml version="1.0" encoding="iso-8859-1"?>
<!-- Generator: Adobe Illustrator 19.2.1, SVG Export Plug-In . SVG Version: 6.00 Build 0)  -->
<svg version="1.1" xmlns="http://www.w3.org/2000/svg" xmlns:xlink="http://www.w3.org/1999/xlink" x="0px" y="0px"
	 viewBox="0 0 30 30" style="enable-background:new 0 0 30 30;" xml:space="preserve">
<g id="Snowflake_1">
</g>
<g id="Snowflake_2">
</g>
<g id="Snowflake_3">
</g>
<g id="Snowflake_4">
	<path d="M28.5,14h-4.712l2.444-1.629c0.229-0.153,0.292-0.464,0.139-0.693c-0.154-0.23-0.466-0.292-0.693-0.139L21.985,14h-4.49
		c-0.078-0.467-0.258-0.896-0.523-1.266l3.174-3.174l4.351-0.87c0.271-0.054,0.447-0.317,0.393-0.588
		c-0.055-0.272-0.331-0.446-0.588-0.392l-2.881,0.576l3.332-3.332c0.195-0.195,0.195-0.512,0-0.707s-0.512-0.195-0.707,0
		l-3.332,3.332l0.576-2.88c0.055-0.271-0.121-0.534-0.393-0.588c-0.26-0.057-0.533,0.121-0.588,0.392l-0.871,4.351l-3.174,3.174
		c-0.369-0.264-0.799-0.445-1.265-0.522v-4.49l2.462-3.692c0.153-0.229,0.091-0.54-0.139-0.693
		c-0.228-0.153-0.539-0.092-0.693,0.139L15,5.213V0.5C15,0.224,14.776,0,14.5,0S14,0.224,14,0.5v4.712l-1.629-2.444
		c-0.153-0.23-0.463-0.292-0.693-0.139c-0.23,0.153-0.292,0.463-0.139,0.693L14,7.015v4.49c-0.466,0.078-0.896,0.258-1.265,0.523
		L9.561,8.854L8.69,4.502C8.636,4.232,8.377,4.055,8.102,4.11C7.832,4.165,7.656,4.428,7.71,4.699l0.576,2.88L4.954,4.247
		c-0.195-0.195-0.512-0.195-0.707,0s-0.195,0.512,0,0.707l3.332,3.332L4.699,7.71C4.424,7.652,4.164,7.831,4.11,8.102
		C4.056,8.373,4.232,8.636,4.502,8.69l4.351,0.87l3.174,3.174c-0.265,0.369-0.445,0.799-0.523,1.265h-4.49l-3.692-2.461
		c-0.231-0.153-0.541-0.092-0.693,0.139c-0.153,0.23-0.091,0.54,0.139,0.693L5.212,14H0.5C0.224,14,0,14.224,0,14.5S0.224,15,0.5,15
		h4.713l-2.444,1.63c-0.23,0.153-0.292,0.464-0.139,0.693c0.096,0.145,0.255,0.223,0.417,0.223c0.095,0,0.191-0.027,0.277-0.084
		L7.015,15h4.49c0.078,0.467,0.258,0.896,0.523,1.266l-3.173,3.173L4.502,20.31c-0.271,0.054-0.446,0.317-0.392,0.588
		c0.054,0.271,0.319,0.448,0.588,0.393l2.881-0.576l-3.332,3.332c-0.195,0.195-0.195,0.512,0,0.707
		c0.098,0.098,0.226,0.146,0.354,0.146s0.256-0.049,0.354-0.146l3.332-3.332L7.71,24.302c-0.054,0.271,0.122,0.534,0.392,0.588
		c0.033,0.007,0.066,0.01,0.099,0.01c0.233,0,0.442-0.164,0.49-0.402l0.87-4.35l3.175-3.174c0.369,0.265,0.799,0.445,1.265,0.523
		v4.49l-2.461,3.691c-0.153,0.229-0.091,0.54,0.139,0.693c0.085,0.057,0.182,0.084,0.277,0.084c0.162,0,0.32-0.078,0.417-0.223
		L14,23.788V28.5c0,0.276,0.224,0.5,0.5,0.5s0.5-0.224,0.5-0.5v-4.712l1.63,2.444c0.154,0.23,0.465,0.29,0.693,0.139
		c0.229-0.153,0.292-0.464,0.139-0.693L15,21.985v-4.49c0.467-0.078,0.896-0.258,1.266-0.523l3.173,3.173l0.871,4.351
		c0.048,0.238,0.256,0.402,0.489,0.402c0.033,0,0.066-0.003,0.099-0.01c0.271-0.054,0.447-0.317,0.393-0.588l-0.576-2.881
		l3.332,3.332c0.098,0.098,0.226,0.146,0.354,0.146s0.256-0.049,0.354-0.146c0.195-0.195,0.195-0.512,0-0.707l-3.332-3.332
		l2.881,0.576c0.257,0.054,0.533-0.12,0.588-0.393c0.055-0.271-0.121-0.534-0.393-0.588l-4.351-0.871l-3.173-3.173
		c0.265-0.37,0.445-0.799,0.523-1.266h4.49l3.691,2.462c0.085,0.057,0.182,0.084,0.277,0.084c0.161,0,0.319-0.078,0.416-0.223
		c0.153-0.229,0.091-0.54-0.139-0.693L23.788,15H28.5c0.276,0,0.5-0.224,0.5-0.5S28.776,14,28.5,14z"/>
</g>
<g id="Winter_Cap_1">
</g>
<g id="Winter_Cap_2">
</g>
<g id="Glowes">
</g>
<g id="Sweater_1">
</g>
<g id="Sweater_2">
</g>
<g id="Sweater_3">
</g>
<g id="Scarf">
</g>
<g id="Winter_Socks">
</g>
<g id="Winter_Sock">
</g>
<g id="Winter_Coat">
</g>
<g id="Winter_Calendar">
</g>
<g id="Thermometer_1">
</g>
<g id="Thermometer_2">
</g>
<g id="Cold">
</g>
<g id="Icicle">
</g>
<g id="Snowing">
</g>
<g id="Snow_Shoes_1">
</g>
<g id="Snow_Shoes_2">
</g>
<g id="Sledge">
</g>
<g id="Snow_Boots">
</g>
<g id="Snowcapped_Mountains">
</g>
<g id="Skis">
</g>
<g id="Sky_Glasses">
</g>
<g id="Snowboard">
</g>
<g id="Ice_Skate">
</g>
<g id="Wooden_House">
</g>
<g id="Snowcapped_House">
</g>
<g id="Hot_Drink">
</g>
<g id="Hot_Chocolate">
</g>
<g id="Lantern">
</g>
<g id="Snow_Shovel">
</g>
<g id="Snowman">
</g>
<g id="Reindeer">
</g>
<g id="Snowmobile">
</g>
<g id="Snow_Chain">
</g>
<g id="Slippery_Road">
</g>
</svg>
