<?xml version="1.0" encoding="iso-8859-1"?>
<!-- Generator: Adobe Illustrator 19.2.1, SVG Export Plug-In . SVG Version: 6.00 Build 0)  -->
<svg version="1.1" xmlns="http://www.w3.org/2000/svg" xmlns:xlink="http://www.w3.org/1999/xlink" x="0px" y="0px"
	 viewBox="0 0 30 30" style="enable-background:new 0 0 30 30;" xml:space="preserve">
<g id="Snowflake_1">
</g>
<g id="Snowflake_2">
</g>
<g id="Snowflake_3">
</g>
<g id="Snowflake_4">
</g>
<g id="Winter_Cap_1">
</g>
<g id="Winter_Cap_2">
</g>
<g id="Glowes">
</g>
<g id="Sweater_1">
</g>
<g id="Sweater_2">
</g>
<g id="Sweater_3">
</g>
<g id="Scarf">
</g>
<g id="Winter_Socks">
</g>
<g id="Winter_Sock">
</g>
<g id="Winter_Coat">
</g>
<g id="Winter_Calendar">
</g>
<g id="Thermometer_1">
</g>
<g id="Thermometer_2">
</g>
<g id="Cold">
</g>
<g id="Icicle">
</g>
<g id="Snowing">
</g>
<g id="Snow_Shoes_1">
</g>
<g id="Snow_Shoes_2">
</g>
<g id="Sledge">
</g>
<g id="Snow_Boots">
</g>
<g id="Snowcapped_Mountains">
	<g>
		<g>
			<path d="M0.5,25c-0.087,0-0.174-0.022-0.254-0.07c-0.238-0.141-0.316-0.447-0.175-0.685L7.795,11.21
				c0.32-0.539,0.887-0.86,1.519-0.86c0.002,0,0.005,0,0.008,0c0.635,0.003,1.203,0.329,1.52,0.874l3.96,6.82
				c0.139,0.238,0.057,0.545-0.182,0.684c-0.238,0.14-0.545,0.058-0.684-0.182l-3.96-6.82c-0.136-0.235-0.39-0.366-0.663-0.376
				c-0.275,0-0.521,0.138-0.659,0.37L0.93,24.755C0.837,24.912,0.67,25,0.5,25z"/>
		</g>
		<g>
			<path d="M29.5,25c-0.192,0-0.375-0.11-0.458-0.297L21.372,7.446c-0.248-0.559-1.148-0.559-1.396,0l-7.671,17.257
				c-0.112,0.253-0.408,0.367-0.66,0.254c-0.252-0.112-0.366-0.408-0.254-0.66L19.062,7.04C19.347,6.398,19.965,6,20.674,6
				S22,6.398,22.286,7.04l7.671,17.257c0.112,0.252-0.001,0.548-0.254,0.66C29.637,24.986,29.568,25,29.5,25z"/>
		</g>
		<g>
			<path d="M11.848,17.555c-0.958,0-1.344-0.734-1.599-1.22c-0.265-0.505-0.374-0.642-0.634-0.642c-0.152,0-0.244,0.063-0.438,0.203
				c-0.243,0.176-0.576,0.417-1.112,0.417c-0.815,0-1.658-1.168-1.982-1.67C5.933,14.412,6,14.103,6.231,13.952
				c0.232-0.147,0.541-0.083,0.691,0.148c0.385,0.594,0.943,1.184,1.149,1.213c0.196,0,0.307-0.073,0.518-0.227
				c0.229-0.166,0.542-0.394,1.025-0.394c0.901,0,1.258,0.681,1.519,1.177c0.261,0.497,0.39,0.685,0.713,0.685
				c0.493,0,0.506-0.862,0.506-0.871c0.002-0.274,0.226-0.497,0.5-0.497c0,0,0.001,0,0.002,0c0.275,0.001,0.498,0.224,0.498,0.499
				C13.354,16.332,13.039,17.555,11.848,17.555z"/>
		</g>
		<g>
			<path d="M19.092,15.072c-0.875,0-1.373-0.643-1.773-1.158c-0.198-0.256-0.385-0.497-0.597-0.657
				c-0.22-0.167-0.264-0.48-0.097-0.7c0.166-0.22,0.479-0.265,0.7-0.097c0.317,0.24,0.554,0.546,0.784,0.841
				c0.371,0.479,0.617,0.771,0.982,0.771c1.023,0,1.597-0.311,2.205-0.639c0.548-0.296,1.115-0.603,1.934-0.603
				c0.662,0,1.062,0.07,1.354,0.121c0.271,0.048,0.5,0.313,0.454,0.585c-0.046,0.272-0.259,0.467-0.53,0.417
				c-0.367-0.064-0.704-0.123-1.278-0.123c-0.566,0-0.96,0.213-1.458,0.482C21.147,14.651,20.369,15.072,19.092,15.072z"/>
		</g>
	</g>
</g>
<g id="Skis">
</g>
<g id="Sky_Glasses">
</g>
<g id="Snowboard">
</g>
<g id="Ice_Skate">
</g>
<g id="Wooden_House">
</g>
<g id="Snowcapped_House">
</g>
<g id="Hot_Drink">
</g>
<g id="Hot_Chocolate">
</g>
<g id="Lantern">
</g>
<g id="Snow_Shovel">
</g>
<g id="Snowman">
</g>
<g id="Reindeer">
</g>
<g id="Snowmobile">
</g>
<g id="Snow_Chain">
</g>
<g id="Slippery_Road">
</g>
</svg>
