<?xml version="1.0" encoding="iso-8859-1"?>
<!-- Generator: Adobe Illustrator 19.2.1, SVG Export Plug-In . SVG Version: 6.00 Build 0)  -->
<svg version="1.1" xmlns="http://www.w3.org/2000/svg" xmlns:xlink="http://www.w3.org/1999/xlink" x="0px" y="0px"
	 viewBox="0 0 30 30" style="enable-background:new 0 0 30 30;" xml:space="preserve">
<g id="Armchair_1">
</g>
<g id="Armchair_2">
</g>
<g id="Armchair_3">
</g>
<g id="Armchair_4">
</g>
<g id="Sofa_1">
</g>
<g id="Sofa_2">
</g>
<g id="Sofa_3">
</g>
<g id="Sofa_4">
</g>
<g id="Sofa_5">
	<g id="XMLID_107_">
		<g id="XMLID_108_">
			<path d="M5.505,30.005H3.014c-0.911,0-1.758-0.356-2.324-0.977c-0.512-0.561-0.754-1.295-0.683-2.069
				C1.314,12.873,12.687,1.286,26.459,0.007c0.883-0.085,1.851,0.251,2.559,0.896c0.637,0.58,0.987,1.327,0.987,2.102v2.5
				c0,0.276-0.224,0.5-0.5,0.5c-12.738,0-23.5,10.762-23.5,23.5C6.005,29.782,5.781,30.005,5.505,30.005z M26.735,0.995
				c-0.062,0-0.123,0.003-0.185,0.009C13.25,2.238,2.267,13.436,1.003,27.052c-0.046,0.497,0.101,0.947,0.425,1.303
				c0.378,0.414,0.955,0.651,1.586,0.651H5.01C5.284,16.111,16.11,5.284,29.005,5.011V3.005c0-0.491-0.234-0.975-0.66-1.363
				C27.892,1.229,27.302,0.995,26.735,0.995z"/>
		</g>
		<g id="XMLID_109_">
			<path d="M12.005,30.005h-6.5c-0.276,0-0.5-0.224-0.5-0.5s0.224-0.5,0.5-0.5h6.5c1.036,0,1.879-0.66,2.005-1.568
				c0.498-3.586,1.94-6.661,4.172-8.892c2.521-2.521,5.548-4.089,8.755-4.535c0.956-0.133,2.068-1.038,2.068-2.005v-6.5
				c0-0.276,0.224-0.5,0.5-0.5s0.5,0.224,0.5,0.5v6.5c0,1.525-1.545,2.802-2.931,2.995c-2.989,0.415-5.82,1.885-8.186,4.251
				c-2.076,2.076-3.42,4.954-3.889,8.322C14.806,28.983,13.546,30.005,12.005,30.005z"/>
		</g>
	</g>
</g>
<g id="Sofa_6">
</g>
<g id="Desk_1">
</g>
<g id="Desk_2">
</g>
<g id="Desk_3">
</g>
<g id="Lamp">
</g>
<g id="Bed_1">
</g>
<g id="Bunk_Beds">
</g>
<g id="Bed_2">
</g>
<g id="Bed_3">
</g>
<g id="Bed_4">
</g>
<g id="Bed_5">
</g>
<g id="Table_1">
</g>
<g id="Table_2">
</g>
<g id="Table_3">
</g>
<g id="Table_4">
</g>
<g id="Rug_1">
</g>
<g id="Rug_2">
</g>
<g id="Rug_3">
</g>
<g id="Tub_1">
</g>
<g id="Tub_2">
</g>
<g id="Jacuzzi">
</g>
<g id="Corner_Tub">
</g>
<g id="Shower_Tray">
</g>
<g id="Sink_1">
</g>
<g id="Sink_2">
</g>
<g id="Toilette">
</g>
<g id="Stove">
</g>
<g id="Kitchen_Sink">
</g>
<g id="Island">
</g>
<g id="Eat-in_Kitchen">
</g>
<g id="Tv_Stand">
</g>
</svg>
