<?xml version="1.0" encoding="iso-8859-1"?>
<!-- Generator: Adobe Illustrator 19.2.1, SVG Export Plug-In . SVG Version: 6.00 Build 0)  -->
<svg version="1.1" xmlns="http://www.w3.org/2000/svg" xmlns:xlink="http://www.w3.org/1999/xlink" x="0px" y="0px"
	 viewBox="0 0 24 24" style="enable-background:new 0 0 24 24;" xml:space="preserve">
<g id="Armchair_1">
</g>
<g id="Armchair_2">
</g>
<g id="Armchair_3">
</g>
<g id="Armchair_4">
</g>
<g id="Sofa_1">
</g>
<g id="Sofa_2">
</g>
<g id="Sofa_3">
	<g>
		<path d="M23.5,7h-23C0.224,7,0,7.224,0,7.5v3C0,10.776,0.224,11,0.5,11h23c0.276,0,0.5-0.224,0.5-0.5v-3C24,7.224,23.776,7,23.5,7
			z"/>
		<path d="M2,16c0,0.133,0.053,0.26,0.146,0.354l0.5,0.5C2.74,16.947,2.867,17,3,17h4.5C7.776,17,8,16.776,8,16.5V12H2V16z"/>
		<path d="M16,16.5c0,0.276,0.224,0.5,0.5,0.5H21c0.133,0,0.26-0.053,0.354-0.146l0.5-0.5C21.947,16.26,22,16.133,22,16v-4h-6V16.5z
			"/>
		<path d="M9,16.5C9,16.776,9.224,17,9.5,17h5c0.276,0,0.5-0.224,0.5-0.5V12H9V16.5z"/>
		<path d="M0,11.908V15.5C0,15.776,0.224,16,0.5,16H1v-4H0.5C0.324,12,0.157,11.964,0,11.908z"/>
		<path d="M23,12v4h0.5c0.276,0,0.5-0.224,0.5-0.5v-3.592C23.843,11.964,23.676,12,23.5,12H23z"/>
	</g>
</g>
<g id="Sofa_4">
</g>
<g id="Sofa_5">
</g>
<g id="Sofa_6">
</g>
<g id="Desk_1">
</g>
<g id="Desk_2">
</g>
<g id="Desk_3">
</g>
<g id="Lamp">
</g>
<g id="Bed_1">
</g>
<g id="Bunk_Beds">
</g>
<g id="Bed_2">
</g>
<g id="Bed_3">
</g>
<g id="Bed_4">
</g>
<g id="Bed_5">
</g>
<g id="Table_1">
</g>
<g id="Table_2">
</g>
<g id="Table_3">
</g>
<g id="Table_4">
</g>
<g id="Rug_1">
</g>
<g id="Rug_2">
</g>
<g id="Rug_3">
</g>
<g id="Tub_1">
</g>
<g id="Tub_2">
</g>
<g id="Jacuzzi">
</g>
<g id="Corner_Tub">
</g>
<g id="Shower_Tray">
</g>
<g id="Sink_1">
</g>
<g id="Sink_2">
</g>
<g id="Toilette">
</g>
<g id="Stove">
</g>
<g id="Kitchen_Sink">
</g>
<g id="Island">
</g>
<g id="Eat-in_Kitchen">
</g>
<g id="Tv_Stand">
</g>
</svg>
