<?xml version="1.0" encoding="iso-8859-1"?>
<!-- Generator: Adobe Illustrator 19.2.1, SVG Export Plug-In . SVG Version: 6.00 Build 0)  -->
<svg version="1.1" xmlns="http://www.w3.org/2000/svg" xmlns:xlink="http://www.w3.org/1999/xlink" x="0px" y="0px"
	 viewBox="0 0 30 30" style="enable-background:new 0 0 30 30;" xml:space="preserve">
<g id="Armchair_1">
</g>
<g id="Armchair_2">
</g>
<g id="Armchair_3">
</g>
<g id="Armchair_4">
</g>
<g id="Sofa_1">
</g>
<g id="Sofa_2">
</g>
<g id="Sofa_3">
	<g id="XMLID_84_">
		<path d="M29.5,9h-29C0.224,9,0,9.224,0,9.5v4C0,13.776,0.224,14,0.5,14h29c0.276,0,0.5-0.224,0.5-0.5v-4C30,9.224,29.776,9,29.5,9
			z"/>
		<g>
			<path d="M2,15v4.5c0,0.133,0.053,0.26,0.146,0.354l1,1C3.24,20.947,3.367,21,3.5,21H10v-6H2z"/>
			<path d="M20,15v6h6.5c0.133,0,0.26-0.053,0.354-0.146l1-1C27.947,19.76,28,19.633,28,19.5V15H20z"/>
			<path d="M11,15v5.975C11.041,20.986,11.082,21,11.125,21H19v-6H11z"/>
		</g>
		<path d="M1,19.5V15H0.5c-0.176,0-0.343-0.036-0.5-0.092V19.5C0,19.776,0.224,20,0.5,20h0.591C1.035,19.841,1,19.674,1,19.5z"/>
		<path d="M29.5,15H29v4.5c0,0.174-0.035,0.341-0.091,0.5H29.5c0.276,0,0.5-0.224,0.5-0.5v-4.592C29.843,14.964,29.676,15,29.5,15z"
			/>
	</g>
</g>
<g id="Sofa_4">
</g>
<g id="Sofa_5">
</g>
<g id="Sofa_6">
</g>
<g id="Desk_1">
</g>
<g id="Desk_2">
</g>
<g id="Desk_3">
</g>
<g id="Lamp">
</g>
<g id="Bed_1">
</g>
<g id="Bunk_Beds">
</g>
<g id="Bed_2">
</g>
<g id="Bed_3">
</g>
<g id="Bed_4">
</g>
<g id="Bed_5">
</g>
<g id="Table_1">
</g>
<g id="Table_2">
</g>
<g id="Table_3">
</g>
<g id="Table_4">
</g>
<g id="Rug_1">
</g>
<g id="Rug_2">
</g>
<g id="Rug_3">
</g>
<g id="Tub_1">
</g>
<g id="Tub_2">
</g>
<g id="Jacuzzi">
</g>
<g id="Corner_Tub">
</g>
<g id="Shower_Tray">
</g>
<g id="Sink_1">
</g>
<g id="Sink_2">
</g>
<g id="Toilette">
</g>
<g id="Stove">
</g>
<g id="Kitchen_Sink">
</g>
<g id="Island">
</g>
<g id="Eat-in_Kitchen">
</g>
<g id="Tv_Stand">
</g>
</svg>
