<?xml version="1.0" encoding="iso-8859-1"?>
<!-- Generator: Adobe Illustrator 19.2.1, SVG Export Plug-In . SVG Version: 6.00 Build 0)  -->
<svg version="1.1" xmlns="http://www.w3.org/2000/svg" xmlns:xlink="http://www.w3.org/1999/xlink" x="0px" y="0px"
	 viewBox="0 0 24 24" style="enable-background:new 0 0 24 24;" xml:space="preserve">
<g id="Restaurant_sign_1">
</g>
<g id="Restaurant_Sign_2">
</g>
<g id="Restaurant_Sign_3">
</g>
<g id="Hot_Drink_1">
</g>
<g id="Hot_Drink_2">
</g>
<g id="Cocktail">
</g>
<g id="Shot_Glasses">
</g>
<g id="Chilled_Champagne">
</g>
<g id="Wine">
</g>
<g id="Wine_List">
</g>
<g id="Menu">
</g>
<g id="Menu_2">
</g>
<g id="Salver">
</g>
<g id="Soup">
	<g>
		<path d="M7.475,4.361C6.944,3.97,6.314,3.894,5.792,4.158C5.298,4.408,5.003,4.91,5.003,5.501v16.994
			c0,0.62,0.373,1.168,0.95,1.396c0.18,0.071,0.367,0.105,0.552,0.105c0.407,0,0.806-0.168,1.102-0.485l8.922-9.971
			c0.31-0.283,0.487-0.687,0.486-1.107c0-0.419-0.178-0.822-0.52-1.132L7.475,4.361z"/>
		<path d="M18.489,9.095L7.502,0.378c-0.471-0.397-1.1-0.488-1.644-0.235C5.331,0.388,5.003,0.907,5.003,1.497v2.004
			c0.11-0.082,0.212-0.173,0.337-0.236c0.865-0.437,1.886-0.329,2.728,0.29l9.101,7.005c0.419,0.382,0.69,0.864,0.795,1.389
			l0.568-0.634c0.304-0.304,0.474-0.719,0.464-1.139C18.987,9.769,18.817,9.393,18.489,9.095z"/>
	</g>
</g>
<g id="Sushi">
</g>
<g id="Pizza">
</g>
<g id="Pizza_Slice">
</g>
<g id="Fish">
</g>
<g id="Sausage">
</g>
<g id="Course">
</g>
<g id="Dessert">
</g>
<g id="Cutlery">
</g>
<g id="Napkin">
</g>
<g id="Table">
</g>
<g id="Spices">
</g>
<g id="Hot_Sauce">
</g>
<g id="Reserved_1">
</g>
<g id="Reserved_2">
</g>
<g id="Open">
</g>
<g id="Food_Photo">
</g>
<g id="Chef">
</g>
<g id="Bill">
</g>
<g id="Bill_2">
</g>
<g id="Paying_1">
</g>
<g id="Paying_2">
</g>
<g id="Restaurant_Place">
</g>
</svg>
