<?xml version="1.0" encoding="iso-8859-1"?>
<!-- Generator: Adobe Illustrator 19.2.1, SVG Export Plug-In . SVG Version: 6.00 Build 0)  -->
<svg version="1.1" xmlns="http://www.w3.org/2000/svg" xmlns:xlink="http://www.w3.org/1999/xlink" x="0px" y="0px"
	 viewBox="0 0 30 30" style="enable-background:new 0 0 30 30;" xml:space="preserve">
<g id="Sun_Light">
</g>
<g id="Sunglasses">
</g>
<g id="T-Shirt_1">
</g>
<g id="T-Shirt_2">
</g>
<g id="Mini_Dress">
</g>
<g id="Flip-Flops">
</g>
<g id="Temperature">
</g>
<g id="Hot_Temperature">
</g>
<g id="Ice_Lolly">
</g>
<g id="Icecream">
</g>
<g id="Limonade_1">
</g>
<g id="Limonade_2">
</g>
<g id="Hat">
</g>
<g id="Straw_Hat">
</g>
<g id="Deckchair">
</g>
<g id="Sunshade">
</g>
<g id="Suncream">
</g>
<g id="Suntan_Oil">
</g>
<g id="Swimming_Trunks">
</g>
<g id="Bikini">
</g>
<g id="Pool">
</g>
<g id="Pool_Ladder">
</g>
<g id="Grill">
</g>
<g id="Kite_1">
</g>
<g id="Kite_2">
</g>
<g id="Badminton">
</g>
<g id="Cooler">
</g>
<g id="Strand_Bag">
</g>
<g id="Towel">
</g>
<g id="Strand_Ball">
</g>
<g id="Beach_Sign">
</g>
<g id="Toos">
</g>
<g id="Bucket">
</g>
<g id="Sand_Castle">
</g>
<g id="Shell_1">
</g>
<g id="Shell_2">
</g>
<g id="Surf_Board">
</g>
<g id="Float">
</g>
<g id="Vacation_Photo">
</g>
<g id="Summer_Time">
</g>
<g id="Boat">
</g>
<g id="Lifebuoy">
</g>
<g id="Lighthouse">
</g>
<g id="Sunset">
</g>
<g id="Dolphin">
</g>
<g id="Starfish">
	<path d="M29.902,12.744c-0.264-0.811-0.985-1.335-1.838-1.335l-8.302,0.002l-2.953-8.75c-0.265-0.81-0.985-1.332-1.837-1.332
		c-0.853,0-1.574,0.524-1.837,1.332l-2.915,8.75l-8.286-0.002c-0.853,0-1.574,0.524-1.838,1.335
		c-0.263,0.811,0.012,1.659,0.706,2.163l6.675,4.763l-2.4,7.794c-0.263,0.812,0.012,1.659,0.702,2.16
		c0.347,0.253,0.746,0.378,1.142,0.378c0.39,0,0.777-0.121,1.108-0.363l6.962-4.528l6.903,4.514c0.692,0.503,1.584,0.501,2.271,0
		c0.69-0.501,0.966-1.349,0.705-2.151l-2.364-7.801l6.694-4.768C29.891,14.403,30.166,13.555,29.902,12.744z M5.541,15.062
		c-0.348,0-0.63-0.282-0.63-0.63c0-0.348,0.282-0.63,0.63-0.63c0.348,0,0.63,0.282,0.63,0.63C6.171,14.78,5.889,15.062,5.541,15.062
		z M7.863,15.94c-0.331-0.108-0.511-0.464-0.403-0.795c0.108-0.331,0.464-0.511,0.795-0.403c0.331,0.108,0.511,0.464,0.403,0.795
		S8.194,16.048,7.863,15.94z M9.448,25.571c-0.216,0.273-0.612,0.319-0.885,0.103C8.29,25.459,8.244,25.063,8.46,24.79
		c0.216-0.273,0.612-0.319,0.885-0.103S9.664,25.299,9.448,25.571z M10.582,23.883c-0.348,0-0.63-0.282-0.63-0.63
		c0-0.348,0.282-0.63,0.63-0.63c0.348,0,0.63,0.282,0.63,0.63C11.212,23.601,10.93,23.883,10.582,23.883z M10.082,16.322
		c0-0.623,0.507-1.13,1.13-1.13s1.13,0.507,1.13,1.13s-0.507,1.13-1.13,1.13S10.082,16.945,10.082,16.322z M12.472,21.863
		c-0.623,0-1.13-0.507-1.13-1.131c0-0.623,0.507-1.13,1.13-1.13s1.13,0.507,1.13,1.13C13.602,21.356,13.095,21.863,12.472,21.863z
		 M18.773,15.192c0.623,0,1.13,0.507,1.13,1.13s-0.507,1.13-1.13,1.13c-0.624,0-1.131-0.507-1.131-1.13S18.149,15.192,18.773,15.192
		z M14.992,7.501c0.348,0,0.63,0.282,0.63,0.63c0,0.348-0.282,0.63-0.63,0.63c-0.348,0-0.63-0.282-0.63-0.63
		C14.362,7.783,14.645,7.501,14.992,7.501z M14.992,10.021c0.348,0,0.63,0.282,0.63,0.63c0,0.348-0.282,0.63-0.63,0.63
		c-0.348,0-0.63-0.282-0.63-0.63C14.362,10.303,14.645,10.021,14.992,10.021z M14.993,14.932c-0.623,0-1.13-0.507-1.13-1.13
		s0.507-1.13,1.13-1.13s1.129,0.507,1.129,1.13S15.616,14.932,14.993,14.932z M17.513,21.863c-0.623,0-1.13-0.507-1.13-1.131
		c0-0.623,0.507-1.13,1.13-1.13s1.13,0.507,1.13,1.13C18.643,21.356,18.136,21.863,17.513,21.863z M19.403,23.883
		c-0.348,0-0.63-0.282-0.63-0.63c0-0.348,0.282-0.63,0.63-0.63s0.63,0.282,0.63,0.63C20.033,23.601,19.751,23.883,19.403,23.883z
		 M21.422,25.675c-0.273,0.216-0.669,0.17-0.885-0.103c-0.216-0.273-0.17-0.669,0.103-0.885s0.669-0.17,0.885,0.103
		C21.741,25.063,21.695,25.459,21.422,25.675z M22.122,15.94c-0.331,0.108-0.687-0.072-0.795-0.403
		c-0.108-0.331,0.072-0.687,0.403-0.795c0.331-0.108,0.687,0.072,0.795,0.403C22.633,15.476,22.452,15.831,22.122,15.94z
		 M24.444,15.062c-0.348,0-0.63-0.282-0.63-0.63c0-0.348,0.282-0.63,0.63-0.63c0.348,0,0.63,0.282,0.63,0.63
		C25.074,14.78,24.792,15.062,24.444,15.062z"/>
</g>
<g id="Diving_Mask">
</g>
<g id="Sailboat">
</g>
<g id="Captin_Hat">
</g>
<g id="Eudder">
</g>
</svg>
