<?xml version="1.0" encoding="iso-8859-1"?>
<!-- Generator: Adobe Illustrator 19.2.1, SVG Export Plug-In . SVG Version: 6.00 Build 0)  -->
<svg version="1.1" xmlns="http://www.w3.org/2000/svg" xmlns:xlink="http://www.w3.org/1999/xlink" x="0px" y="0px"
	 viewBox="0 0 30 30" style="enable-background:new 0 0 30 30;" xml:space="preserve">
<g id="Credit_Card">
</g>
<g id="Banknote">
</g>
<g id="Wallet">
</g>
<g id="Compass">
</g>
<g id="Camera_1">
</g>
<g id="Photo">
</g>
<g id="Picture">
</g>
<g id="Camera_2">
</g>
<g id="No_Camera">
</g>
<g id="Video">
</g>
<g id="Audio">
</g>
<g id="Microphone_1">
</g>
<g id="Microphone_2">
</g>
<g id="No_Microphone">
</g>
<g id="Shopping_Cart">
</g>
<g id="Add_Shopping_Cart">
</g>
<g id="Remove_Shopping_Cart">
</g>
<g id="Shopping_Basket">
</g>
<g id="Jing-Jang">
</g>
<g id="Leaf">
</g>
<g id="Glass">
</g>
<g id="Cup">
</g>
<g id="Mug">
</g>
<g id="Refresh">
</g>
<g id="Login">
</g>
<g id="Logout">
</g>
<g id="Flowchart">
</g>
<g id="Pin_1">
</g>
<g id="Pin_2">
</g>
<g id="User_1">
</g>
<g id="User_2">
</g>
<g id="Users">
</g>
<g id="Adjustments">
</g>
<g id="Type">
</g>
<g id="Format_Size">
</g>
<g id="Menu_1">
</g>
<g id="Other">
</g>
<g id="Flash">
</g>
<g id="No_Flash">
</g>
<g id="Switch_Button_1">
</g>
<g id="Switch_Button_2">
</g>
<g id="Cut">
</g>
<g id="Crop">
</g>
<g id="Sun">
</g>
<g id="USB">
</g>
<g id="Pie_Chart_1">
</g>
<g id="Pie_Chart_2">
</g>
<g id="Line_Chart">
</g>
<g id="Bar_Chart">
</g>
<g id="Target">
</g>
<g id="Flashlight">
</g>
<g id="USB_Device">
</g>
<g id="Eject">
</g>
<g id="Lightbulb">
</g>
<g id="Information">
</g>
<g id="Deactivate_Protection">
</g>
<g id="Active_Protection">
</g>
<g id="Bug">
</g>
<g id="Protection">
</g>
<g id="Phone">
</g>
<g id="List">
</g>
<g id="Plugin_1">
</g>
<g id="Bookmarrk">
</g>
<g id="Handshake">
</g>
<g id="Minimize">
</g>
<g id="Maximize">
</g>
<g id="Diamond">
</g>
<g id="Stop">
	<g>
		<path d="M17.5,11c-0.827,0-1.5,0.673-1.5,1.5v5c0,0.827,0.673,1.5,1.5,1.5s1.5-0.673,1.5-1.5v-5C19,11.673,18.327,11,17.5,11z"/>
		<path d="M25.456,11H23v4h2.456C25.719,15,26,14.951,26,14.37v-2.522C26,11.761,25.984,11,25.456,11z"/>
		<path d="M29.115,7.902l-7.017-7.017C21.527,0.314,20.769,0,19.962,0h-9.923C9.231,0,8.472,0.314,7.902,0.885L0.885,7.902
			C0.314,8.472,0,9.231,0,10.039v9.923c0,0.807,0.314,1.565,0.885,2.137l7.017,7.017C8.472,29.686,9.231,30,10.039,30h9.923
			c0.807,0,1.564-0.314,2.137-0.885l7.017-7.017c0.57-0.572,0.885-1.33,0.885-2.137v-9.923C30,9.231,29.686,8.472,29.115,7.902z
			 M5.499,20c-1.319,0-2.417-1.133-2.498-2.578c-0.016-0.276,0.195-0.512,0.471-0.527c0.264-0.037,0.512,0.196,0.527,0.471
			C4.051,18.282,4.709,19,5.499,19C6.327,19,7,18.216,7,17.251c0-1.161-0.775-1.531-1.533-1.74l-0.113-0.033
			C3.764,15.04,3,14.129,3,12.75C3,11.233,4.122,10,5.501,10c1.319,0,2.417,1.132,2.498,2.578c0.016,0.275-0.195,0.512-0.471,0.527
			c-0.278,0.01-0.512-0.195-0.527-0.471C6.949,11.718,6.291,11,5.501,11C4.673,11,4,11.785,4,12.75c0,1.161,0.777,1.531,1.537,1.741
			l0.112,0.032C7.237,14.962,8,15.872,8,17.251C8,18.767,6.878,20,5.499,20z M14,11h-2v8.5c0,0.276-0.224,0.5-0.5,0.5
			S11,19.776,11,19.5V11H9c-0.276,0-0.5-0.224-0.5-0.5S8.724,10,9,10h5c0.276,0,0.5,0.224,0.5,0.5S14.276,11,14,11z M20,17.5
			c0,1.379-1.121,2.5-2.5,2.5S15,18.879,15,17.5v-5c0-1.378,1.121-2.5,2.5-2.5s2.5,1.122,2.5,2.5V17.5z M27,14.37
			c0,1.006-0.592,1.63-1.544,1.63H23v3.5c0,0.276-0.224,0.5-0.5,0.5S22,19.776,22,19.5v-9c0-0.276,0.224-0.5,0.5-0.5h2.956
			C26.365,10,27,10.76,27,11.848V14.37z"/>
	</g>
</g>
<g id="Shuffle">
</g>
<g id="Undo">
</g>
<g id="Upgrade">
</g>
<g id="Coding">
</g>
<g id="Syncronizaion">
</g>
<g id="Radio">
</g>
<g id="Presentation">
</g>
<g id="Door">
</g>
<g id="Thumbs_Up">
</g>
<g id="Thumbs_Down">
</g>
<g id="Keyboard">
</g>
<g id="_x33_D_Cube">
</g>
<g id="Signal">
</g>
<g id="Dice">
</g>
<g id="Upload">
</g>
<g id="Download">
</g>
<g id="Plugin_2">
</g>
<g id="Shopping_Bag">
</g>
<g id="Lifebelt">
</g>
<g id="Glasses">
</g>
<g id="Parabolic_Antenna">
</g>
<g id="Loudspeaker">
</g>
<g id="Play">
</g>
<g id="Pause">
</g>
<g id="Signpost">
</g>
<g id="Bluetooth">
</g>
<g id="Present">
</g>
<g id="Ruler">
</g>
<g id="Connection">
</g>
<g id="Money">
</g>
<g id="Paper_Plane">
</g>
<g id="Wallet_2">
</g>
</svg>
