<?xml version="1.0" encoding="iso-8859-1"?>
<!-- Generator: Adobe Illustrator 19.2.1, SVG Export Plug-In . SVG Version: 6.00 Build 0)  -->
<svg version="1.1" xmlns="http://www.w3.org/2000/svg" xmlns:xlink="http://www.w3.org/1999/xlink" x="0px" y="0px"
	 viewBox="0 0 24 24" style="enable-background:new 0 0 24 24;" xml:space="preserve">
<g id="Credit_Card">
</g>
<g id="Banknote">
</g>
<g id="Wallet">
</g>
<g id="Compass">
</g>
<g id="Camera_1">
</g>
<g id="Photo">
</g>
<g id="Picture">
</g>
<g id="Camera_2">
</g>
<g id="No_Camera">
</g>
<g id="Video">
</g>
<g id="Audio">
</g>
<g id="Microphone_1">
</g>
<g id="Microphone_2">
</g>
<g id="No_Microphone">
</g>
<g id="Shopping_Cart">
</g>
<g id="Add_Shopping_Cart">
</g>
<g id="Remove_Shopping_Cart">
</g>
<g id="Shopping_Basket">
</g>
<g id="Jing-Jang">
</g>
<g id="Leaf">
</g>
<g id="Glass">
</g>
<g id="Cup">
</g>
<g id="Mug">
</g>
<g id="Refresh">
</g>
<g id="Login">
</g>
<g id="Logout">
</g>
<g id="Flowchart">
</g>
<g id="Pin_1">
</g>
<g id="Pin_2">
</g>
<g id="User_1">
</g>
<g id="User_2">
</g>
<g id="Users">
</g>
<g id="Adjustments">
</g>
<g id="Type">
</g>
<g id="Format_Size">
</g>
<g id="Menu_1">
</g>
<g id="Other">
</g>
<g id="Flash">
</g>
<g id="No_Flash">
</g>
<g id="Switch_Button_1">
</g>
<g id="Switch_Button_2">
</g>
<g id="Cut">
</g>
<g id="Crop">
</g>
<g id="Sun">
</g>
<g id="USB">
</g>
<g id="Pie_Chart_1">
</g>
<g id="Pie_Chart_2">
</g>
<g id="Line_Chart">
</g>
<g id="Bar_Chart">
</g>
<g id="Target">
</g>
<g id="Flashlight">
</g>
<g id="USB_Device">
</g>
<g id="Eject">
</g>
<g id="Lightbulb">
</g>
<g id="Information">
</g>
<g id="Deactivate_Protection">
</g>
<g id="Active_Protection">
</g>
<g id="Bug">
</g>
<g id="Protection">
</g>
<g id="Phone">
</g>
<g id="List">
</g>
<g id="Plugin_1">
</g>
<g id="Bookmarrk">
</g>
<g id="Handshake">
</g>
<g id="Minimize">
</g>
<g id="Maximize">
</g>
<g id="Diamond">
</g>
<g id="Stop">
	<g>
		<path d="M14,9c-0.552,0-1,0.449-1,1v4c0,0.552,0.448,1,1,1s1-0.448,1-1v-4C15,9.449,14.552,9,14,9z"/>
		<path d="M19.5,9H18v3h1.5c0.275,0,0.5-0.224,0.5-0.5v-2C20,9.224,19.775,9,19.5,9z"/>
		<path d="M23.268,6.297l-5.564-5.565C17.23,0.26,16.603,0,15.935,0h-7.87C7.397,0,6.77,0.26,6.297,0.732L0.732,6.297
			C0.26,6.77,0,7.397,0,8.065v7.87c0,0.668,0.26,1.296,0.732,1.769l5.565,5.564C6.77,23.74,7.397,24,8.065,24h7.87
			c0.668,0,1.296-0.26,1.769-0.732l5.564-5.564C23.74,17.23,24,16.603,24,15.935v-7.87C24,7.397,23.74,6.77,23.268,6.297z M4.999,16
			C3.942,16,3.064,15.072,3,13.889c-0.015-0.276,0.197-0.512,0.473-0.526C3.745,13.327,3.984,13.558,4,13.834
			C4.035,14.488,4.474,15,4.999,15C5.551,15,6,14.439,6,13.75c0-0.828-0.511-1.089-1.063-1.247l-0.01-0.524l-0.137,0.48
			C3.311,12.037,3,11.024,3,10.25C3,9.009,3.897,8,5.001,8c1.056,0,1.934,0.927,1.998,2.11c0.015,0.276-0.196,0.512-0.472,0.526
			c-0.283,0.018-0.512-0.196-0.526-0.472C5.965,9.512,5.526,9,5.001,9C4.449,9,4,9.561,4,10.25c0,0.83,0.512,1.09,1.065,1.248
			l0.148,0.044C6.69,11.965,7,12.976,7,13.75C7,14.99,6.103,16,4.999,16z M11.5,9H10v6.5c0,0.276-0.224,0.5-0.5,0.5S9,15.776,9,15.5
			V9H7.5C7.224,9,7,8.776,7,8.5S7.224,8,7.5,8h4C11.776,8,12,8.224,12,8.5S11.776,9,11.5,9z M16,14c0,1.103-0.897,2-2,2
			c-1.103,0-2-0.897-2-2v-4c0-1.103,0.897-2,2-2c1.103,0,2,0.897,2,2V14z M21,11.5c0,0.827-0.673,1.5-1.5,1.5H18v2.5
			c0,0.276-0.224,0.5-0.5,0.5S17,15.776,17,15.5v-7C17,8.224,17.224,8,17.5,8h2C20.327,8,21,8.673,21,9.5V11.5z"/>
	</g>
</g>
<g id="Shuffle">
</g>
<g id="Undo">
</g>
<g id="Upgrade">
</g>
<g id="Coding">
</g>
<g id="Syncronizaion">
</g>
<g id="Radio">
</g>
<g id="Presentation">
</g>
<g id="Door">
</g>
<g id="Thumbs_Up">
</g>
<g id="Thumbs_Down">
</g>
<g id="Keyboard">
</g>
<g id="_x33_D_Cube">
</g>
<g id="Signal">
</g>
<g id="Dice">
</g>
<g id="Upload">
</g>
<g id="Download">
</g>
<g id="Plugin_2">
</g>
<g id="Shopping_Bag">
</g>
<g id="Lifebelt">
</g>
<g id="Glasses">
</g>
<g id="Parabolic_Antenna">
</g>
<g id="Loudspeaker">
</g>
<g id="Play">
</g>
<g id="Pause">
</g>
<g id="Signpost">
</g>
<g id="Bluetooth">
</g>
<g id="Present">
</g>
<g id="Ruler">
</g>
<g id="Connection">
</g>
<g id="Money">
</g>
<g id="Paper_Plane">
</g>
<g id="Wallet_2">
</g>
</svg>
