<?xml version="1.0" encoding="iso-8859-1"?>
<!-- Generator: Adobe Illustrator 19.2.1, SVG Export Plug-In . SVG Version: 6.00 Build 0)  -->
<svg version="1.1" xmlns="http://www.w3.org/2000/svg" xmlns:xlink="http://www.w3.org/1999/xlink" x="0px" y="0px"
	 viewBox="0 0 30 30" style="enable-background:new 0 0 30 30;" xml:space="preserve">
<g id="Armchair_1">
</g>
<g id="Armchair_2">
</g>
<g id="Armchair_3">
</g>
<g id="Armchair_4">
</g>
<g id="Sofa_1">
</g>
<g id="Sofa_2">
</g>
<g id="Sofa_3">
</g>
<g id="Sofa_4">
</g>
<g id="Sofa_5">
</g>
<g id="Sofa_6">
</g>
<g id="Desk_1">
</g>
<g id="Desk_2">
</g>
<g id="Desk_3">
</g>
<g id="Lamp">
</g>
<g id="Bed_1">
</g>
<g id="Bunk_Beds">
</g>
<g id="Bed_2">
</g>
<g id="Bed_3">
</g>
<g id="Bed_4">
</g>
<g id="Bed_5">
</g>
<g id="Table_1">
</g>
<g id="Table_2">
</g>
<g id="Table_3">
</g>
<g id="Table_4">
</g>
<g id="Rug_1">
</g>
<g id="Rug_2">
</g>
<g id="Rug_3">
</g>
<g id="Tub_1">
</g>
<g id="Tub_2">
</g>
<g id="Jacuzzi">
</g>
<g id="Corner_Tub">
</g>
<g id="Shower_Tray">
</g>
<g id="Sink_1">
</g>
<g id="Sink_2">
</g>
<g id="Toilette">
</g>
<g id="Stove">
	<g>
		<circle cx="21.5" cy="21.5" r="2.5"/>
		<circle cx="8.5" cy="21.5" r="3.5"/>
		<circle cx="8.5" cy="8.5" r="4.5"/>
		<circle cx="21.5" cy="8.5" r="3.5"/>
		<path d="M28.5,0h-28C0.224,0,0,0.224,0,0.5v28C0,28.776,0.224,29,0.5,29h28c0.276,0,0.5-0.224,0.5-0.5v-28
			C29,0.224,28.776,0,28.5,0z M8.5,26C6.019,26,4,23.981,4,21.5S6.019,17,8.5,17s4.5,2.019,4.5,4.5S10.981,26,8.5,26z M8.5,14
			C5.468,14,3,11.533,3,8.5S5.468,3,8.5,3S14,5.467,14,8.5S11.532,14,8.5,14z M21.5,25c-1.93,0-3.5-1.57-3.5-3.5s1.57-3.5,3.5-3.5
			s3.5,1.57,3.5,3.5S23.43,25,21.5,25z M21.5,13c-2.481,0-4.5-2.019-4.5-4.5S19.019,4,21.5,4S26,6.019,26,8.5S23.981,13,21.5,13z"/>
	</g>
</g>
<g id="Kitchen_Sink">
</g>
<g id="Island">
</g>
<g id="Eat-in_Kitchen">
</g>
<g id="Tv_Stand">
</g>
</svg>
