<?xml version="1.0" encoding="iso-8859-1"?>
<!-- Generator: Adobe Illustrator 19.2.1, SVG Export Plug-In . SVG Version: 6.00 Build 0)  -->
<svg version="1.1" xmlns="http://www.w3.org/2000/svg" xmlns:xlink="http://www.w3.org/1999/xlink" x="0px" y="0px"
	 viewBox="0 0 30 30" style="enable-background:new 0 0 30 30;" xml:space="preserve">
<g id="Sun_Light">
</g>
<g id="Sunglasses">
</g>
<g id="T-Shirt_1">
</g>
<g id="T-Shirt_2">
</g>
<g id="Mini_Dress">
</g>
<g id="Flip-Flops">
</g>
<g id="Temperature">
</g>
<g id="Hot_Temperature">
</g>
<g id="Ice_Lolly">
</g>
<g id="Icecream">
</g>
<g id="Limonade_1">
</g>
<g id="Limonade_2">
</g>
<g id="Hat">
</g>
<g id="Straw_Hat">
</g>
<g id="Deckchair">
</g>
<g id="Sunshade">
</g>
<g id="Suncream">
</g>
<g id="Suntan_Oil">
</g>
<g id="Swimming_Trunks">
</g>
<g id="Bikini">
</g>
<g id="Pool">
</g>
<g id="Pool_Ladder">
</g>
<g id="Grill">
</g>
<g id="Kite_1">
</g>
<g id="Kite_2">
</g>
<g id="Badminton">
</g>
<g id="Cooler">
</g>
<g id="Strand_Bag">
</g>
<g id="Towel">
</g>
<g id="Strand_Ball">
	<g id="XMLID_242_">
		<g id="XMLID_243_">
			<path d="M15,30C6.729,30,0,23.271,0,15C0,6.729,6.729,0,15,0s15,6.729,15,15C30,23.271,23.271,30,15,30z M15,1
				C7.28,1,1,7.28,1,15s6.28,14,14,14s14-6.28,14-14S22.72,1,15,1z"/>
		</g>
		<g id="XMLID_244_">
			<path d="M11.218,16.131c-2.709,0-4.913-2.205-4.913-4.914s2.204-4.913,4.913-4.913s4.913,2.204,4.913,4.913
				S13.927,16.131,11.218,16.131z M11.218,7.304c-2.157,0-3.913,1.755-3.913,3.913s1.756,3.913,3.913,3.913s3.913-1.755,3.913-3.913
				S13.375,7.304,11.218,7.304z"/>
		</g>
		<g id="XMLID_245_">
			<path d="M20.379,28.97c-0.099,0-0.197-0.028-0.283-0.088l-0.335-0.23c-0.203-0.108-6.008-3.379-8.398-12.899
				c-0.066-0.268,0.096-0.539,0.363-0.606c0.271-0.07,0.539,0.096,0.607,0.363c2.276,9.069,7.896,12.261,7.952,12.292l0.377,0.257
				c0.228,0.156,0.285,0.468,0.129,0.695C20.694,28.895,20.537,28.97,20.379,28.97z"/>
		</g>
		<g id="XMLID_246_">
			<path d="M28.458,20.908c-0.169,0-0.335-0.086-0.429-0.242l-0.219-0.364c-0.041-0.073-3.232-5.692-12.302-7.969
				c-0.268-0.067-0.43-0.339-0.363-0.606c0.067-0.268,0.337-0.433,0.607-0.363c9.52,2.39,12.79,8.195,12.925,8.441l0.209,0.347
				c0.143,0.237,0.065,0.544-0.171,0.687C28.635,20.885,28.546,20.908,28.458,20.908z"/>
		</g>
		<g id="XMLID_247_">
			<path d="M14.929,9.329c-0.08,0-0.161-0.019-0.236-0.06c-0.243-0.13-0.335-0.434-0.204-0.677l0.071-0.133
				c3.054-4.889,8.324-5.889,8.547-5.93c0.267-0.05,0.531,0.131,0.58,0.403c0.05,0.271-0.131,0.532-0.402,0.582
				c-0.05,0.009-5.063,0.972-7.86,5.447l-0.055,0.104C15.279,9.233,15.106,9.329,14.929,9.329z"/>
		</g>
		<g id="XMLID_248_">
			<path d="M3.022,23.695c-0.03,0-0.06-0.003-0.09-0.008c-0.271-0.049-0.452-0.31-0.403-0.581c0.04-0.223,1.042-5.493,5.901-8.53
				l0.132-0.08c0.235-0.142,0.543-0.067,0.687,0.169c0.143,0.236,0.067,0.544-0.169,0.687l-0.126,0.076
				c-4.481,2.802-5.432,7.807-5.44,7.856C3.47,23.525,3.26,23.695,3.022,23.695z"/>
		</g>
		<g id="XMLID_249_">
			<path d="M10.587,7.327c-0.276,0-0.5-0.201-0.5-0.478c0-4.045,1.297-5.929,1.353-6.007l0.238-0.337
				c0.161-0.226,0.475-0.277,0.696-0.12c0.226,0.159,0.279,0.471,0.12,0.697l-0.238,0.337c-0.01,0.015-1.169,1.735-1.169,5.385
				C11.087,7.081,10.863,7.327,10.587,7.327z"/>
		</g>
		<g id="XMLID_250_">
			<path d="M0.79,12.601c-0.152,0-0.304-0.07-0.401-0.202c-0.165-0.222-0.118-0.535,0.104-0.699l0.341-0.253
				c0.088-0.063,1.972-1.359,5.972-1.359c0.276,0,0.521,0.224,0.521,0.5s-0.201,0.5-0.478,0.5c-3.694,0-5.415,1.159-5.432,1.171
				l-0.329,0.244C0.998,12.568,0.894,12.601,0.79,12.601z"/>
		</g>
	</g>
</g>
<g id="Beach_Sign">
</g>
<g id="Toos">
</g>
<g id="Bucket">
</g>
<g id="Sand_Castle">
</g>
<g id="Shell_1">
</g>
<g id="Shell_2">
</g>
<g id="Surf_Board">
</g>
<g id="Float">
</g>
<g id="Vacation_Photo">
</g>
<g id="Summer_Time">
</g>
<g id="Boat">
</g>
<g id="Lifebuoy">
</g>
<g id="Lighthouse">
</g>
<g id="Sunset">
</g>
<g id="Dolphin">
</g>
<g id="Starfish">
</g>
<g id="Diving_Mask">
</g>
<g id="Sailboat">
</g>
<g id="Captin_Hat">
</g>
<g id="Eudder">
</g>
</svg>
