<?xml version="1.0" encoding="iso-8859-1"?>
<!-- Generator: Adobe Illustrator 19.2.1, SVG Export Plug-In . SVG Version: 6.00 Build 0)  -->
<svg version="1.1" xmlns="http://www.w3.org/2000/svg" xmlns:xlink="http://www.w3.org/1999/xlink" x="0px" y="0px"
	 viewBox="0 0 30 30" style="enable-background:new 0 0 30 30;" xml:space="preserve">
<g id="Sun_Light">
</g>
<g id="Sunglasses">
</g>
<g id="T-Shirt_1">
</g>
<g id="T-Shirt_2">
</g>
<g id="Mini_Dress">
</g>
<g id="Flip-Flops">
</g>
<g id="Temperature">
</g>
<g id="Hot_Temperature">
</g>
<g id="Ice_Lolly">
</g>
<g id="Icecream">
</g>
<g id="Limonade_1">
</g>
<g id="Limonade_2">
</g>
<g id="Hat">
</g>
<g id="Straw_Hat">
</g>
<g id="Deckchair">
</g>
<g id="Sunshade">
</g>
<g id="Suncream">
</g>
<g id="Suntan_Oil">
</g>
<g id="Swimming_Trunks">
</g>
<g id="Bikini">
</g>
<g id="Pool">
</g>
<g id="Pool_Ladder">
</g>
<g id="Grill">
</g>
<g id="Kite_1">
</g>
<g id="Kite_2">
</g>
<g id="Badminton">
</g>
<g id="Cooler">
</g>
<g id="Strand_Bag">
	<g>
		<path d="M2.679,24.109l0.319,1.255c0.572,2.128,2.318,3.726,4.448,4.069C9.762,29.81,12.304,30,15,30
			c2.695,0,5.237-0.19,7.555-0.566c2.131-0.346,3.877-1.942,4.449-4.076l0.254-0.999c-2.462,0.39-5.972,0.597-10.236,0.597
			C11.637,24.956,6.107,24.627,2.679,24.109z"/>
		<path d="M2.011,21.482l0.399,1.573c3.333,0.548,9.043,0.902,14.611,0.902c4.399,0,8.118-0.233,10.504-0.654l0.402-1.582
			c-2.438,0.46-6.255,0.714-10.906,0.714C11.221,22.435,5.334,22.056,2.011,21.482z"/>
		<path d="M29.992,13.464c-0.003-0.039-0.012-0.075-0.024-0.112C29.63,12.157,25.228,11.568,21,11.28V8.022
			c0-2.543-1.916-4.626-4.377-4.937c-0.248-0.601-0.615-1.149-1.088-1.617C14.6,0.521,13.345,0,12,0C9.243,0,7,2.243,7,5v6.204
			c-3.507,0.266-6.668,0.86-6.956,2.113c-0.019,0.048-0.033,0.097-0.036,0.15C0.007,13.479,0,13.489,0,13.5
			c0,0.02,0.01,0.038,0.012,0.058c0.003,0.022-0.002,0.043,0.003,0.065l1.725,6.79c3.115,0.603,9.349,1.021,15.281,1.021
			c4.903,0,8.852-0.281,11.179-0.788l1.784-7.024c0.006-0.025,0.001-0.049,0.004-0.074C29.989,13.532,30,13.517,30,13.5
			C30,13.488,29.993,13.477,29.992,13.464z M15.87,4.035C15.947,4.348,16,4.668,16,5v6.048C14.312,11.002,13.153,11,13.109,11
			c-0.353,0-0.726,0.002-1.109,0.006V8.022C12,5.861,13.726,4.105,15.87,4.035z M11,14.846c-5.371-0.286-9.177-0.916-9.939-1.403
			c0.392-0.381,2.292-0.971,6.434-1.264c0.002,0,0.003,0.001,0.005,0.001c0.004,0,0.007-0.002,0.011-0.002
			c1.022-0.072,2.183-0.125,3.489-0.153V14.846z M11,11.022c-0.967,0.02-1.986,0.055-3,0.115V5c0-2.206,1.794-4,4-4
			c1.075,0,2.078,0.416,2.829,1.175c0.27,0.267,0.479,0.575,0.659,0.898C12.974,3.334,11,5.44,11,8.022V11.022z M20,14.949
			C19.049,14.981,18.021,15,16.892,15c-1.724,0-3.361-0.04-4.892-0.107v-2.885C12.363,12.004,12.725,12,13.109,12
			c2.501,0,4.826,0.082,6.891,0.214V14.949z M20,11.216c-1.057-0.062-2.079-0.106-3-0.137V5c0-0.293-0.035-0.58-0.084-0.862
			C18.68,4.555,20,6.133,20,8.022V11.216z M21,14.911v-2.628c4.299,0.32,7.275,0.85,7.939,1.274
			C28.502,13.981,26.206,14.667,21,14.911z"/>
	</g>
</g>
<g id="Towel">
</g>
<g id="Strand_Ball">
</g>
<g id="Beach_Sign">
</g>
<g id="Toos">
</g>
<g id="Bucket">
</g>
<g id="Sand_Castle">
</g>
<g id="Shell_1">
</g>
<g id="Shell_2">
</g>
<g id="Surf_Board">
</g>
<g id="Float">
</g>
<g id="Vacation_Photo">
</g>
<g id="Summer_Time">
</g>
<g id="Boat">
</g>
<g id="Lifebuoy">
</g>
<g id="Lighthouse">
</g>
<g id="Sunset">
</g>
<g id="Dolphin">
</g>
<g id="Starfish">
</g>
<g id="Diving_Mask">
</g>
<g id="Sailboat">
</g>
<g id="Captin_Hat">
</g>
<g id="Eudder">
</g>
</svg>
