<?xml version="1.0" encoding="iso-8859-1"?>
<!-- Generator: Adobe Illustrator 19.2.1, SVG Export Plug-In . SVG Version: 6.00 Build 0)  -->
<svg version="1.1" xmlns="http://www.w3.org/2000/svg" xmlns:xlink="http://www.w3.org/1999/xlink" x="0px" y="0px"
	 viewBox="0 0 24 24" style="enable-background:new 0 0 24 24;" xml:space="preserve">
<g id="Sun_Light">
</g>
<g id="Sunglasses">
</g>
<g id="T-Shirt_1">
</g>
<g id="T-Shirt_2">
</g>
<g id="Mini_Dress">
</g>
<g id="Flip-Flops">
</g>
<g id="Temperature">
</g>
<g id="Hot_Temperature">
</g>
<g id="Ice_Lolly">
</g>
<g id="Icecream">
</g>
<g id="Limonade_1">
</g>
<g id="Limonade_2">
</g>
<g id="Hat">
</g>
<g id="Straw_Hat">
</g>
<g id="Deckchair">
</g>
<g id="Sunshade">
</g>
<g id="Suncream">
</g>
<g id="Suntan_Oil">
</g>
<g id="Swimming_Trunks">
</g>
<g id="Bikini">
</g>
<g id="Pool">
</g>
<g id="Pool_Ladder">
</g>
<g id="Grill">
</g>
<g id="Kite_1">
</g>
<g id="Kite_2">
</g>
<g id="Badminton">
</g>
<g id="Cooler">
</g>
<g id="Strand_Bag">
</g>
<g id="Towel">
</g>
<g id="Strand_Ball">
	<path d="M24,12c0,1.336-0.228,2.617-0.631,3.817c-0.505-0.827-3.327-4.934-10.37-6.812C13,9.003,13,9.002,13,9
		c0-0.725-0.209-1.396-0.547-1.983c2.307-3.667,6.422-4.461,6.464-4.469l0.369-0.068C22.147,4.674,24,8.117,24,12z M9,12
		c-1.654,0-3-1.346-3-3s1.346-3,3-3c0.919,0,1.733,0.424,2.284,1.078l-0.006,0.011l0.026,0.014C11.732,7.621,12,8.276,12,9
		C12,10.654,10.654,12,9,12z M18.147,1.708c-1.265,0.353-4.276,1.478-6.323,4.463C11.1,5.448,10.102,5,9,5
		C8.95,5,8.903,5.013,8.853,5.015c0.04-2.867,0.942-4.231,0.95-4.242l0.445-0.63C10.821,0.058,11.403,0,12,0
		C14.25,0,16.347,0.631,18.147,1.708z M8.844,0.433c-0.3,0.541-0.988,2.069-0.997,4.756C6.574,5.576,5.577,6.573,5.19,7.846
		C2.516,7.848,0.985,8.538,0.433,8.845C1.546,4.758,4.757,1.546,8.844,0.433z M0.138,10.274l0.632-0.471
		c0.014-0.009,1.368-0.902,4.244-0.949C5.013,8.904,5,8.95,5,9c0,1.101,0.447,2.099,1.169,2.823
		c-2.983,2.034-4.108,5.056-4.461,6.325C0.631,16.348,0,14.25,0,12C0,11.412,0.056,10.839,0.138,10.274z M2.481,19.287l0.068-0.37
		c0.008-0.042,0.802-4.161,4.468-6.464C7.604,12.791,8.275,13,9,13c0.002,0,0.004-0.001,0.006-0.001
		c1.902,7.13,6.092,9.938,6.811,10.37C14.617,23.772,13.336,24,12,24C8.117,24,4.674,22.147,2.481,19.287z M16.948,22.923
		l-0.5-0.342c-0.046-0.025-4.493-2.572-6.444-9.724c1.396-0.364,2.489-1.458,2.853-2.853c7.153,1.952,9.7,6.399,9.735,6.461
		l0.314,0.521C21.702,19.614,19.581,21.728,16.948,22.923z"/>
</g>
<g id="Beach_Sign">
</g>
<g id="Toos">
</g>
<g id="Bucket">
</g>
<g id="Sand_Castle">
</g>
<g id="Shell_1">
</g>
<g id="Shell_2">
</g>
<g id="Surf_Board">
</g>
<g id="Float">
</g>
<g id="Vacation_Photo">
</g>
<g id="Summer_Time">
</g>
<g id="Boat">
</g>
<g id="Lifebuoy">
</g>
<g id="Lighthouse">
</g>
<g id="Sunset">
</g>
<g id="Dolphin">
</g>
<g id="Starfish">
</g>
<g id="Diving_Mask">
</g>
<g id="Sailboat">
</g>
<g id="Captin_Hat">
</g>
<g id="Eudder">
</g>
</svg>
