<?xml version="1.0" encoding="iso-8859-1"?>
<!-- Generator: Adobe Illustrator 19.2.1, SVG Export Plug-In . SVG Version: 6.00 Build 0)  -->
<svg version="1.1" xmlns="http://www.w3.org/2000/svg" xmlns:xlink="http://www.w3.org/1999/xlink" x="0px" y="0px"
	 viewBox="0 0 30 30" style="enable-background:new 0 0 30 30;" xml:space="preserve">
<g id="Cutting_Board_1">
</g>
<g id="Cutting_Board_2">
</g>
<g id="Chef_x27_s_Hat_1">
</g>
<g id="Chef_x27_s_Hat_2">
</g>
<g id="Kitchen_Scale">
</g>
<g id="Measuring_Cup">
</g>
<g id="Pot_1">
</g>
<g id="Pot_2">
</g>
<g id="Wok_1">
</g>
<g id="Wok_2">
</g>
<g id="Teapot">
</g>
<g id="Plate">
</g>
<g id="Sauce_Boat">
</g>
<g id="Cauldron">
</g>
<g id="Cookbook">
</g>
<g id="Salt_Pot">
</g>
<g id="Pepper_Pot_1">
</g>
<g id="Pepper_Pot_2">
</g>
<g id="Egg_Timer">
</g>
<g id="Olive_Oil_Pot">
</g>
<g id="Pancake_Griddle">
</g>
<g id="Pan">
</g>
<g id="Kettle">
</g>
<g id="Microwave">
</g>
<g id="Cooker">
</g>
<g id="Meat_Grinder">
</g>
<g id="Coffee_Maker">
</g>
<g id="Household_Mixer">
</g>
<g id="Stand_Mixer">
</g>
<g id="Hand_Blender">
</g>
<g id="Blender">
</g>
<g id="Cooker_Hood">
</g>
<g id="Refrigerator">
</g>
<g id="Freezer">
</g>
<g id="Apron">
</g>
<g id="Oven_Gloves">
</g>
<g id="Rolling_Pin">
</g>
<g id="Sieve">
</g>
<g id="Tea_Sieve">
</g>
<g id="Grater">
</g>
<g id="Knife_Holder">
</g>
<g id="Funnel">
</g>
<g id="Kitchen_Clock">
</g>
<g id="Lemon_Juicer">
</g>
<g id="Pastry_Bag_1">
</g>
<g id="Pastry_Bag_2">
</g>
<g id="Corkscrew">
</g>
<g id="Bottle_Opener">
</g>
<g id="Service">
</g>
<g id="Chopsticks">
</g>
<g id="Hatchet">
</g>
<g id="Filleting_Knife">
</g>
<g id="Bread_Knife">
</g>
<g id="Herb_Knife">
</g>
<g id="Whetting">
</g>
<g id="Cake_Knife">
</g>
<g id="Layer_58">
</g>
<g id="Ladle">
</g>
<g id="Sauce_Spoon">
</g>
<g id="Egg_Beater">
</g>
<g id="Meat_Fork">
</g>
<g id="Kitchen_Spoon_1">
</g>
<g id="Kitchen_Spoon_2">
</g>
<g id="Pizza_Cutter">
</g>
<g id="Potato_Musher">
</g>
<g id="Peeler">
</g>
<g id="Honey_Dipper">
</g>
<g id="Fork">
</g>
<g id="Knife">
</g>
<g id="Spoon">
</g>
<g id="Cutlery_Set">
</g>
<g id="Sugar_Bowl">
	<path d="M22.501,18.539C21.387,16.293,20,13.497,20,9.5c0-1.413-1.844-2.846-4-3.329V2.5c0-0.133-0.053-0.26-0.146-0.354l-2-2
		c-0.143-0.143-0.356-0.185-0.545-0.108C13.122,0.115,13,0.297,13,0.5V6.17C10.844,6.653,9,8.087,9,9.5
		c0,3.997-1.387,6.793-2.501,9.039C5.694,20.159,5,21.558,5,23c0,3.229,1.814,7,6.929,7h5.143C22.186,30,24,26.229,24,23
		C24,21.558,23.306,20.159,22.501,18.539z M14.5,7c1.892,0,3.81,1.045,4.35,2h-8.7C10.69,8.045,12.608,7,14.5,7z M9.186,19.873
		C8.576,21.101,8,22.261,8,23c0,0.612,0.084,1.504,0.488,2.273c0.128,0.245,0.034,0.547-0.211,0.676
		c-0.074,0.038-0.153,0.057-0.231,0.057c-0.18,0-0.354-0.098-0.443-0.268C7.104,24.788,7,23.724,7,23
		c0-0.973,0.598-2.178,1.29-3.572c0.123-0.247,0.422-0.347,0.67-0.226C9.208,19.325,9.309,19.625,9.186,19.873z"/>
</g>
<g id="Matches">
</g>
<g id="Cezve">
</g>
</svg>
