<?xml version="1.0" encoding="iso-8859-1"?>
<!-- Generator: Adobe Illustrator 19.2.1, SVG Export Plug-In . SVG Version: 6.00 Build 0)  -->
<svg version="1.1" xmlns="http://www.w3.org/2000/svg" xmlns:xlink="http://www.w3.org/1999/xlink" x="0px" y="0px"
	 viewBox="0 0 30 30" style="enable-background:new 0 0 30 30;" xml:space="preserve">
<g id="Sun_Light">
</g>
<g id="Sunglasses">
</g>
<g id="T-Shirt_1">
</g>
<g id="T-Shirt_2">
</g>
<g id="Mini_Dress">
</g>
<g id="Flip-Flops">
</g>
<g id="Temperature">
</g>
<g id="Hot_Temperature">
</g>
<g id="Ice_Lolly">
</g>
<g id="Icecream">
</g>
<g id="Limonade_1">
</g>
<g id="Limonade_2">
</g>
<g id="Hat">
</g>
<g id="Straw_Hat">
</g>
<g id="Deckchair">
</g>
<g id="Sunshade">
</g>
<g id="Suncream">
</g>
<g id="Suntan_Oil">
</g>
<g id="Swimming_Trunks">
</g>
<g id="Bikini">
</g>
<g id="Pool">
</g>
<g id="Pool_Ladder">
</g>
<g id="Grill">
</g>
<g id="Kite_1">
</g>
<g id="Kite_2">
</g>
<g id="Badminton">
</g>
<g id="Cooler">
</g>
<g id="Strand_Bag">
</g>
<g id="Towel">
</g>
<g id="Strand_Ball">
</g>
<g id="Beach_Sign">
</g>
<g id="Toos">
</g>
<g id="Bucket">
</g>
<g id="Sand_Castle">
</g>
<g id="Shell_1">
</g>
<g id="Shell_2">
</g>
<g id="Surf_Board">
</g>
<g id="Float">
</g>
<g id="Vacation_Photo">
</g>
<g id="Summer_Time">
	<g>
		<path d="M7,6c1.103,0,2-0.897,2-2V2c0-1.103-0.897-2-2-2S5,0.897,5,2v2C5,5.103,5.897,6,7,6z"/>
		<path d="M22,6c1.103,0,2-0.897,2-2V2c0-1.103-0.897-2-2-2s-2,0.897-2,2v2C20,5.103,20.897,6,22,6z"/>
		<path d="M25.5,3H25v1c0,1.654-1.346,3-3,3s-3-1.346-3-3V3h-9v1c0,1.654-1.346,3-3,3S4,5.654,4,4V3H3.5C1.57,3,0,4.57,0,6.5v20
			C0,28.43,1.57,30,3.5,30h22c1.93,0,3.5-1.57,3.5-3.5v-20C29,4.57,27.43,3,25.5,3z M28,26.5c0,1.379-1.121,2.5-2.5,2.5h-22
			C2.122,29,1,27.879,1,26.5V10h27V26.5z"/>
		<circle cx="14.5" cy="19.5" r="4.5"/>
		<path d="M14.5,13.5c0.276,0,0.5-0.224,0.5-0.5v-1c0-0.276-0.224-0.5-0.5-0.5S14,11.724,14,12v1C14,13.276,14.224,13.5,14.5,13.5z"
			/>
		<path d="M14.5,25.5c-0.276,0-0.5,0.224-0.5,0.5v1c0,0.276,0.224,0.5,0.5,0.5S15,27.276,15,27v-1C15,25.724,14.776,25.5,14.5,25.5z
			"/>
		<path d="M21,20h1c0.276,0,0.5-0.224,0.5-0.5S22.276,19,22,19h-1c-0.276,0-0.5,0.224-0.5,0.5S20.724,20,21,20z"/>
		<path d="M7,20h1c0.276,0,0.5-0.224,0.5-0.5S8.276,19,8,19H7c-0.276,0-0.5,0.224-0.5,0.5S6.724,20,7,20z"/>
		<path d="M18.827,15.455c0.128,0,0.256-0.049,0.354-0.146l0.892-0.892c0.195-0.195,0.195-0.512,0-0.707s-0.512-0.195-0.707,0
			l-0.892,0.892c-0.195,0.195-0.195,0.512,0,0.707C18.571,15.406,18.699,15.455,18.827,15.455z"/>
		<path d="M9.02,25.263c0.128,0,0.256-0.049,0.354-0.146l0.892-0.892c0.195-0.195,0.195-0.512,0-0.707s-0.512-0.195-0.707,0
			l-0.892,0.892c-0.195,0.195-0.195,0.512,0,0.707C8.764,25.214,8.892,25.263,9.02,25.263z"/>
		<path d="M9.558,15.309c0.098,0.098,0.226,0.146,0.354,0.146s0.256-0.049,0.354-0.146c0.195-0.195,0.195-0.512,0-0.707L9.374,13.71
			c-0.195-0.195-0.512-0.195-0.707,0s-0.195,0.512,0,0.707L9.558,15.309z"/>
		<path d="M19.181,23.518c-0.195-0.195-0.512-0.195-0.707,0s-0.195,0.512,0,0.707l0.892,0.892c0.098,0.098,0.226,0.146,0.354,0.146
			s0.256-0.049,0.354-0.146c0.195-0.195,0.195-0.512,0-0.707L19.181,23.518z"/>
	</g>
</g>
<g id="Boat">
</g>
<g id="Lifebuoy">
</g>
<g id="Lighthouse">
</g>
<g id="Sunset">
</g>
<g id="Dolphin">
</g>
<g id="Starfish">
</g>
<g id="Diving_Mask">
</g>
<g id="Sailboat">
</g>
<g id="Captin_Hat">
</g>
<g id="Eudder">
</g>
</svg>
