<?xml version="1.0" encoding="iso-8859-1"?>
<!-- Generator: Adobe Illustrator 19.2.1, SVG Export Plug-In . SVG Version: 6.00 Build 0)  -->
<svg version="1.1" xmlns="http://www.w3.org/2000/svg" xmlns:xlink="http://www.w3.org/1999/xlink" x="0px" y="0px"
	 viewBox="0 0 24 24" style="enable-background:new 0 0 24 24;" xml:space="preserve">
<g id="Sun_Light">
	<g>
		<path d="M11.5,5C7.916,5,5,7.916,5,11.5S7.916,18,11.5,18s6.5-2.916,6.5-6.5S15.084,5,11.5,5z"/>
		<path d="M11.5,4C11.776,4,12,3.776,12,3.5v-3C12,0.224,11.776,0,11.5,0S11,0.224,11,0.5v3C11,3.776,11.224,4,11.5,4z"/>
		<path d="M11.5,19c-0.276,0-0.5,0.224-0.5,0.5v3c0,0.276,0.224,0.5,0.5,0.5s0.5-0.224,0.5-0.5v-3C12,19.224,11.776,19,11.5,19z"/>
		<path d="M4,11.5C4,11.224,3.776,11,3.5,11h-3C0.224,11,0,11.224,0,11.5S0.224,12,0.5,12h3C3.776,12,4,11.776,4,11.5z"/>
		<path d="M22.5,11h-3c-0.276,0-0.5,0.224-0.5,0.5s0.224,0.5,0.5,0.5h3c0.276,0,0.5-0.224,0.5-0.5S22.776,11,22.5,11z"/>
		<path d="M5.49,6.197c0.098,0.098,0.226,0.146,0.354,0.146s0.256-0.049,0.354-0.146c0.195-0.195,0.195-0.512,0-0.707L4.075,3.368
			c-0.195-0.195-0.512-0.195-0.707,0s-0.195,0.512,0,0.707L5.49,6.197z"/>
		<path d="M17.511,16.804c-0.195-0.195-0.512-0.195-0.707,0s-0.195,0.512,0,0.707l2.121,2.121c0.098,0.098,0.226,0.146,0.354,0.146
			s0.256-0.049,0.354-0.146c0.195-0.195,0.195-0.512,0-0.707L17.511,16.804z"/>
		<path d="M5.49,16.804l-2.122,2.121c-0.195,0.195-0.195,0.512,0,0.707c0.098,0.098,0.226,0.146,0.354,0.146
			s0.256-0.049,0.354-0.146l2.122-2.121c0.195-0.195,0.195-0.512,0-0.707S5.685,16.608,5.49,16.804z"/>
		<path d="M17.157,6.343c0.128,0,0.256-0.049,0.354-0.146l2.121-2.122c0.195-0.195,0.195-0.512,0-0.707s-0.512-0.195-0.707,0
			L16.804,5.49c-0.195,0.195-0.195,0.512,0,0.707C16.901,6.294,17.029,6.343,17.157,6.343z"/>
	</g>
</g>
<g id="Sunglasses">
</g>
<g id="T-Shirt_1">
</g>
<g id="T-Shirt_2">
</g>
<g id="Mini_Dress">
</g>
<g id="Flip-Flops">
</g>
<g id="Temperature">
</g>
<g id="Hot_Temperature">
</g>
<g id="Ice_Lolly">
</g>
<g id="Icecream">
</g>
<g id="Limonade_1">
</g>
<g id="Limonade_2">
</g>
<g id="Hat">
</g>
<g id="Straw_Hat">
</g>
<g id="Deckchair">
</g>
<g id="Sunshade">
</g>
<g id="Suncream">
</g>
<g id="Suntan_Oil">
</g>
<g id="Swimming_Trunks">
</g>
<g id="Bikini">
</g>
<g id="Pool">
</g>
<g id="Pool_Ladder">
</g>
<g id="Grill">
</g>
<g id="Kite_1">
</g>
<g id="Kite_2">
</g>
<g id="Badminton">
</g>
<g id="Cooler">
</g>
<g id="Strand_Bag">
</g>
<g id="Towel">
</g>
<g id="Strand_Ball">
</g>
<g id="Beach_Sign">
</g>
<g id="Toos">
</g>
<g id="Bucket">
</g>
<g id="Sand_Castle">
</g>
<g id="Shell_1">
</g>
<g id="Shell_2">
</g>
<g id="Surf_Board">
</g>
<g id="Float">
</g>
<g id="Vacation_Photo">
</g>
<g id="Summer_Time">
</g>
<g id="Boat">
</g>
<g id="Lifebuoy">
</g>
<g id="Lighthouse">
</g>
<g id="Sunset">
</g>
<g id="Dolphin">
</g>
<g id="Starfish">
</g>
<g id="Diving_Mask">
</g>
<g id="Sailboat">
</g>
<g id="Captin_Hat">
</g>
<g id="Eudder">
</g>
</svg>
