<?xml version="1.0" encoding="iso-8859-1"?>
<!-- Generator: Adobe Illustrator 19.2.1, SVG Export Plug-In . SVG Version: 6.00 Build 0)  -->
<svg version="1.1" xmlns="http://www.w3.org/2000/svg" xmlns:xlink="http://www.w3.org/1999/xlink" x="0px" y="0px"
	 viewBox="0 0 30 30" style="enable-background:new 0 0 30 30;" xml:space="preserve">
<g id="Credit_Card">
</g>
<g id="Banknote">
</g>
<g id="Wallet">
</g>
<g id="Compass">
</g>
<g id="Camera_1">
</g>
<g id="Photo">
</g>
<g id="Picture">
</g>
<g id="Camera_2">
</g>
<g id="No_Camera">
</g>
<g id="Video">
</g>
<g id="Audio">
</g>
<g id="Microphone_1">
</g>
<g id="Microphone_2">
</g>
<g id="No_Microphone">
</g>
<g id="Shopping_Cart">
</g>
<g id="Add_Shopping_Cart">
</g>
<g id="Remove_Shopping_Cart">
</g>
<g id="Shopping_Basket">
</g>
<g id="Jing-Jang">
</g>
<g id="Leaf">
</g>
<g id="Glass">
</g>
<g id="Cup">
</g>
<g id="Mug">
</g>
<g id="Refresh">
</g>
<g id="Login">
</g>
<g id="Logout">
</g>
<g id="Flowchart">
</g>
<g id="Pin_1">
</g>
<g id="Pin_2">
</g>
<g id="User_1">
</g>
<g id="User_2">
</g>
<g id="Users">
</g>
<g id="Adjustments">
</g>
<g id="Type">
</g>
<g id="Format_Size">
</g>
<g id="Menu_1">
</g>
<g id="Other">
</g>
<g id="Flash">
</g>
<g id="No_Flash">
</g>
<g id="Switch_Button_1">
</g>
<g id="Switch_Button_2">
</g>
<g id="Cut">
</g>
<g id="Crop">
</g>
<g id="Sun">
	<g>
		<g>
			<path d="M14.5,21C10.916,21,8,18.084,8,14.5S10.916,8,14.5,8s6.5,2.916,6.5,6.5S18.084,21,14.5,21z M14.5,9
				C11.467,9,9,11.467,9,14.5s2.467,5.5,5.5,5.5s5.5-2.467,5.5-5.5S17.533,9,14.5,9z"/>
		</g>
		<g>
			<path d="M14.5,6.091c-0.276,0-0.5-0.224-0.5-0.5V0.5C14,0.224,14.224,0,14.5,0S15,0.224,15,0.5v5.091
				C15,5.867,14.776,6.091,14.5,6.091z"/>
		</g>
		<g>
			<path d="M14.5,29c-0.276,0-0.5-0.224-0.5-0.5v-5.091c0-0.276,0.224-0.5,0.5-0.5s0.5,0.224,0.5,0.5V28.5
				C15,28.776,14.776,29,14.5,29z"/>
		</g>
		<g>
			<path d="M28.5,15h-5.091c-0.276,0-0.5-0.224-0.5-0.5s0.224-0.5,0.5-0.5H28.5c0.276,0,0.5,0.224,0.5,0.5S28.776,15,28.5,15z"/>
		</g>
		<g>
			<path d="M5.591,15H0.5C0.224,15,0,14.776,0,14.5S0.224,14,0.5,14h5.091c0.276,0,0.5,0.224,0.5,0.5S5.867,15,5.591,15z"/>
		</g>
		<g>
			<path d="M24.399,24.899c-0.128,0-0.256-0.049-0.354-0.146l-3.6-3.6c-0.195-0.195-0.195-0.512,0-0.707s0.512-0.195,0.707,0
				l3.6,3.6c0.195,0.195,0.195,0.512,0,0.707C24.655,24.851,24.527,24.899,24.399,24.899z"/>
		</g>
		<g>
			<path d="M8.2,8.7c-0.128,0-0.256-0.049-0.354-0.146l-3.6-3.6c-0.195-0.195-0.195-0.512,0-0.707s0.512-0.195,0.707,0l3.6,3.6
				c0.195,0.195,0.195,0.512,0,0.707C8.456,8.651,8.328,8.7,8.2,8.7z"/>
		</g>
		<g>
			<path d="M20.8,8.7c-0.128,0-0.256-0.049-0.354-0.146c-0.195-0.195-0.195-0.512,0-0.707l3.6-3.6c0.195-0.195,0.512-0.195,0.707,0
				s0.195,0.512,0,0.707l-3.6,3.6C21.056,8.651,20.928,8.7,20.8,8.7z"/>
		</g>
		<g>
			<path d="M4.601,24.899c-0.128,0-0.256-0.049-0.354-0.146c-0.195-0.195-0.195-0.512,0-0.707l3.6-3.6
				c0.195-0.195,0.512-0.195,0.707,0s0.195,0.512,0,0.707l-3.6,3.6C4.856,24.851,4.729,24.899,4.601,24.899z"/>
		</g>
	</g>
</g>
<g id="USB">
</g>
<g id="Pie_Chart_1">
</g>
<g id="Pie_Chart_2">
</g>
<g id="Line_Chart">
</g>
<g id="Bar_Chart">
</g>
<g id="Target">
</g>
<g id="Flashlight">
</g>
<g id="USB_Device">
</g>
<g id="Eject">
</g>
<g id="Lightbulb">
</g>
<g id="Information">
</g>
<g id="Deactivate_Protection">
</g>
<g id="Active_Protection">
</g>
<g id="Bug">
</g>
<g id="Protection">
</g>
<g id="Phone">
</g>
<g id="List">
</g>
<g id="Plugin_1">
</g>
<g id="Bookmarrk">
</g>
<g id="Handshake">
</g>
<g id="Minimize">
</g>
<g id="Maximize">
</g>
<g id="Diamond">
</g>
<g id="Stop">
</g>
<g id="Shuffle">
</g>
<g id="Undo">
</g>
<g id="Upgrade">
</g>
<g id="Coding">
</g>
<g id="Syncronizaion">
</g>
<g id="Radio">
</g>
<g id="Presentation">
</g>
<g id="Door">
</g>
<g id="Thumbs_Up">
</g>
<g id="Thumbs_Down">
</g>
<g id="Keyboard">
</g>
<g id="_x33_D_Cube">
</g>
<g id="Signal">
</g>
<g id="Dice">
</g>
<g id="Upload">
</g>
<g id="Download">
</g>
<g id="Plugin_2">
</g>
<g id="Shopping_Bag">
</g>
<g id="Lifebelt">
</g>
<g id="Glasses">
</g>
<g id="Parabolic_Antenna">
</g>
<g id="Loudspeaker">
</g>
<g id="Play">
</g>
<g id="Pause">
</g>
<g id="Signpost">
</g>
<g id="Bluetooth">
</g>
<g id="Present">
</g>
<g id="Ruler">
</g>
<g id="Connection">
</g>
<g id="Money">
</g>
<g id="Paper_Plane">
</g>
<g id="Wallet_2">
</g>
</svg>
