<?xml version="1.0" encoding="iso-8859-1"?>
<!-- Generator: Adobe Illustrator 19.2.1, SVG Export Plug-In . SVG Version: 6.00 Build 0)  -->
<svg version="1.1" xmlns="http://www.w3.org/2000/svg" xmlns:xlink="http://www.w3.org/1999/xlink" x="0px" y="0px"
	 viewBox="0 0 24 24" style="enable-background:new 0 0 24 24;" xml:space="preserve">
<g id="Sun_Light">
</g>
<g id="Sunglasses">
</g>
<g id="T-Shirt_1">
</g>
<g id="T-Shirt_2">
</g>
<g id="Mini_Dress">
</g>
<g id="Flip-Flops">
</g>
<g id="Temperature">
</g>
<g id="Hot_Temperature">
</g>
<g id="Ice_Lolly">
</g>
<g id="Icecream">
</g>
<g id="Limonade_1">
</g>
<g id="Limonade_2">
</g>
<g id="Hat">
</g>
<g id="Straw_Hat">
</g>
<g id="Deckchair">
</g>
<g id="Sunshade">
</g>
<g id="Suncream">
	<g>
		<path d="M14,1.5C14,0.672,13.328,0,12.5,0h-2C9.672,0,9,0.672,9,1.5V3h5V1.5z"/>
		<path d="M6,20h11V9H6V20z M8.5,14h0.551c0.065-0.319,0.192-0.614,0.366-0.877l-0.391-0.391c-0.195-0.195-0.195-0.512,0-0.707
			s0.512-0.195,0.707,0l0.391,0.391c0.262-0.174,0.558-0.301,0.877-0.366V11.5c0-0.276,0.224-0.5,0.5-0.5s0.5,0.224,0.5,0.5v0.551
			c0.319,0.065,0.614,0.192,0.877,0.366l0.391-0.391c0.195-0.195,0.512-0.195,0.707,0s0.195,0.512,0,0.707l-0.391,0.391
			c0.174,0.262,0.301,0.558,0.366,0.877H14.5c0.276,0,0.5,0.224,0.5,0.5S14.776,15,14.5,15h-0.551
			c-0.065,0.319-0.192,0.614-0.366,0.877l0.391,0.391c0.195,0.195,0.195,0.512,0,0.707c-0.098,0.098-0.226,0.146-0.354,0.146
			s-0.256-0.049-0.354-0.146l-0.391-0.391c-0.262,0.174-0.558,0.301-0.877,0.366V17.5c0,0.276-0.224,0.5-0.5,0.5S11,17.776,11,17.5
			v-0.551c-0.319-0.065-0.614-0.192-0.877-0.366l-0.391,0.391c-0.098,0.098-0.226,0.146-0.354,0.146s-0.256-0.049-0.354-0.146
			c-0.195-0.195-0.195-0.512,0-0.707l0.391-0.391C9.243,15.614,9.116,15.319,9.051,15H8.5C8.224,15,8,14.776,8,14.5S8.224,14,8.5,14
			z"/>
		<circle cx="11.5" cy="14.5" r="1.5"/>
		<path d="M13.5,4h-4C7.57,4,6,5.57,6,7.5V8h11V7.5C17,5.57,15.43,4,13.5,4z"/>
		<path d="M6,22.5C6,23.327,6.673,24,7.5,24h8c0.827,0,1.5-0.673,1.5-1.5V21H6V22.5z"/>
	</g>
</g>
<g id="Suntan_Oil">
</g>
<g id="Swimming_Trunks">
</g>
<g id="Bikini">
</g>
<g id="Pool">
</g>
<g id="Pool_Ladder">
</g>
<g id="Grill">
</g>
<g id="Kite_1">
</g>
<g id="Kite_2">
</g>
<g id="Badminton">
</g>
<g id="Cooler">
</g>
<g id="Strand_Bag">
</g>
<g id="Towel">
</g>
<g id="Strand_Ball">
</g>
<g id="Beach_Sign">
</g>
<g id="Toos">
</g>
<g id="Bucket">
</g>
<g id="Sand_Castle">
</g>
<g id="Shell_1">
</g>
<g id="Shell_2">
</g>
<g id="Surf_Board">
</g>
<g id="Float">
</g>
<g id="Vacation_Photo">
</g>
<g id="Summer_Time">
</g>
<g id="Boat">
</g>
<g id="Lifebuoy">
</g>
<g id="Lighthouse">
</g>
<g id="Sunset">
</g>
<g id="Dolphin">
</g>
<g id="Starfish">
</g>
<g id="Diving_Mask">
</g>
<g id="Sailboat">
</g>
<g id="Captin_Hat">
</g>
<g id="Eudder">
</g>
</svg>
