<?xml version="1.0" encoding="iso-8859-1"?>
<!-- Generator: Adobe Illustrator 19.2.1, SVG Export Plug-In . SVG Version: 6.00 Build 0)  -->
<svg version="1.1" xmlns="http://www.w3.org/2000/svg" xmlns:xlink="http://www.w3.org/1999/xlink" x="0px" y="0px"
	 viewBox="0 0 30 30" style="enable-background:new 0 0 30 30;" xml:space="preserve">
<g id="Sun_Light">
</g>
<g id="Sunglasses">
</g>
<g id="T-Shirt_1">
</g>
<g id="T-Shirt_2">
</g>
<g id="Mini_Dress">
</g>
<g id="Flip-Flops">
</g>
<g id="Temperature">
</g>
<g id="Hot_Temperature">
</g>
<g id="Ice_Lolly">
</g>
<g id="Icecream">
</g>
<g id="Limonade_1">
</g>
<g id="Limonade_2">
</g>
<g id="Hat">
</g>
<g id="Straw_Hat">
</g>
<g id="Deckchair">
</g>
<g id="Sunshade">
</g>
<g id="Suncream">
</g>
<g id="Suntan_Oil">
</g>
<g id="Swimming_Trunks">
</g>
<g id="Bikini">
</g>
<g id="Pool">
</g>
<g id="Pool_Ladder">
</g>
<g id="Grill">
</g>
<g id="Kite_1">
</g>
<g id="Kite_2">
</g>
<g id="Badminton">
</g>
<g id="Cooler">
</g>
<g id="Strand_Bag">
</g>
<g id="Towel">
</g>
<g id="Strand_Ball">
</g>
<g id="Beach_Sign">
</g>
<g id="Toos">
</g>
<g id="Bucket">
</g>
<g id="Sand_Castle">
</g>
<g id="Shell_1">
</g>
<g id="Shell_2">
</g>
<g id="Surf_Board">
</g>
<g id="Float">
</g>
<g id="Vacation_Photo">
</g>
<g id="Summer_Time">
</g>
<g id="Boat">
</g>
<g id="Lifebuoy">
</g>
<g id="Lighthouse">
</g>
<g id="Sunset">
	<g>
		<path d="M29.5,17.459c-0.737,0-1.119-0.219-1.603-0.496c-0.625-0.358-1.333-0.765-2.811-0.765c-0.647,0-1.147,0.082-1.565,0.2
			c-0.428-4.335-4.133-7.765-8.555-7.765c-4.416,0-8.118,3.421-8.553,7.749c-0.406-0.109-0.887-0.183-1.5-0.183
			c-1.477,0-2.186,0.406-2.811,0.765C1.619,17.24,1.237,17.459,0.5,17.459c-0.276,0-0.5,0.224-0.5,0.5s0.224,0.5,0.5,0.5
			c1.003,0,1.561-0.319,2.1-0.628c0.567-0.325,1.103-0.633,2.313-0.633c1.136,0,1.675,0.268,2.299,0.578
			c0.644,0.32,1.374,0.683,2.744,0.683c1.369,0,2.096-0.362,2.736-0.682c0.624-0.311,1.162-0.579,2.307-0.579
			c1.134,0,1.67,0.268,2.29,0.576c0.644,0.321,1.373,0.685,2.754,0.685c1.379,0,2.104-0.363,2.745-0.684
			c0.62-0.31,1.155-0.577,2.298-0.577c1.211,0,1.746,0.307,2.313,0.632c0.539,0.31,1.096,0.629,2.1,0.629c0.276,0,0.5-0.224,0.5-0.5
			S29.776,17.459,29.5,17.459z"/>
		<path d="M25.718,21.218h-0.631c-1.136,0-1.675-0.269-2.299-0.578c-0.644-0.32-1.373-0.684-2.744-0.684
			c-1.37,0-2.097,0.362-2.737,0.683c-0.624,0.311-1.162,0.579-2.307,0.579c-1.134,0-1.67-0.268-2.29-0.577
			c-0.644-0.32-1.373-0.685-2.753-0.685c-1.379,0-2.105,0.363-2.746,0.684c-0.62,0.311-1.155,0.578-2.298,0.578h-0.63
			c-0.276,0-0.5,0.224-0.5,0.5s0.224,0.5,0.5,0.5h0.63c1.379,0,2.104-0.363,2.745-0.684c0.62-0.311,1.155-0.578,2.298-0.578
			c1.145,0,1.683,0.269,2.307,0.58c0.641,0.319,1.368,0.682,2.737,0.682c1.38,0,2.109-0.363,2.753-0.685
			c0.62-0.31,1.156-0.577,2.291-0.577c1.136,0,1.675,0.269,2.299,0.578c0.644,0.32,1.373,0.684,2.744,0.684h0.631
			c0.276,0,0.5-0.224,0.5-0.5S25.994,21.218,25.718,21.218z"/>
		<path d="M20.674,25h-0.63c-1.146,0-1.684-0.269-2.308-0.579c-0.641-0.319-1.367-0.682-2.736-0.682c-1.38,0-2.11,0.363-2.753,0.685
			C11.626,24.732,11.09,25,9.957,25h-0.63c-0.276,0-0.5,0.224-0.5,0.5S9.05,26,9.326,26h0.63c1.369,0,2.096-0.362,2.736-0.682
			c0.624-0.311,1.162-0.579,2.307-0.579c1.134,0,1.67,0.268,2.29,0.576C17.934,25.637,18.663,26,20.044,26h0.63
			c0.276,0,0.5-0.224,0.5-0.5S20.95,25,20.674,25z"/>
		<path d="M17.112,6.765c0.034,0.007,0.069,0.011,0.104,0.011c0.23,0,0.438-0.161,0.488-0.396l0.59-2.775
			c0.058-0.27-0.115-0.536-0.386-0.593c-0.256-0.055-0.535,0.115-0.593,0.385l-0.59,2.775C16.669,6.441,16.842,6.707,17.112,6.765z"
			/>
		<path d="M12.298,6.38c0.05,0.235,0.257,0.396,0.488,0.396c0.035,0,0.07-0.003,0.105-0.011c0.27-0.058,0.442-0.323,0.384-0.593
			l-0.592-2.775c-0.058-0.271-0.325-0.447-0.593-0.384c-0.27,0.058-0.442,0.323-0.384,0.593L12.298,6.38z"/>
		<path d="M21.154,9.055c0.156,0,0.312-0.074,0.408-0.211l1.637-2.318c0.159-0.226,0.105-0.538-0.12-0.697
			c-0.222-0.157-0.537-0.106-0.696,0.12l-1.637,2.318c-0.159,0.226-0.105,0.538,0.12,0.697C20.953,9.025,21.054,9.055,21.154,9.055z
			"/>
		<path d="M8.437,8.843c0.098,0.138,0.252,0.211,0.409,0.211c0.1,0,0.2-0.03,0.288-0.091c0.226-0.16,0.279-0.472,0.12-0.697
			L7.617,5.948C7.458,5.723,7.146,5.668,6.92,5.828C6.694,5.987,6.641,6.299,6.8,6.525L8.437,8.843z"/>
		<path d="M24.361,12.607c0.086,0,0.172-0.021,0.251-0.067l2.456-1.422c0.238-0.138,0.32-0.444,0.182-0.683
			c-0.14-0.241-0.447-0.32-0.684-0.182l-2.456,1.422c-0.238,0.138-0.32,0.444-0.182,0.683
			C24.021,12.518,24.189,12.607,24.361,12.607z"/>
		<path d="M2.969,11.073l2.482,1.375c0.077,0.042,0.16,0.063,0.242,0.063c0.176,0,0.347-0.093,0.438-0.258
			c0.134-0.241,0.046-0.546-0.195-0.68l-2.482-1.375c-0.241-0.134-0.545-0.046-0.68,0.195C2.64,10.634,2.728,10.939,2.969,11.073z"
			/>
	</g>
</g>
<g id="Dolphin">
</g>
<g id="Starfish">
</g>
<g id="Diving_Mask">
</g>
<g id="Sailboat">
</g>
<g id="Captin_Hat">
</g>
<g id="Eudder">
</g>
</svg>
