<?xml version="1.0" encoding="iso-8859-1"?>
<!-- Generator: Adobe Illustrator 19.2.1, SVG Export Plug-In . SVG Version: 6.00 Build 0)  -->
<svg version="1.1" xmlns="http://www.w3.org/2000/svg" xmlns:xlink="http://www.w3.org/1999/xlink" x="0px" y="0px"
	 viewBox="0 0 30 30" style="enable-background:new 0 0 30 30;" xml:space="preserve">
<g id="Man_1">
</g>
<g id="Woman_1">
</g>
<g id="Man_2">
</g>
<g id="Woman_2">
</g>
<g id="Bald_Man">
</g>
<g id="Man_Glasses">
</g>
<g id="Woman_Glasses">
</g>
<g id="Man_Beard">
</g>
<g id="Man_Cap">
</g>
<g id="Woman_Cap">
</g>
<g id="Man_3">
</g>
<g id="Woman_3">
</g>
<g id="Men_4">
</g>
<g id="Woman_4">
</g>
<g id="Business_Man_1">
</g>
<g id="Business_Woman_1">
</g>
<g id="Firefigyhter">
</g>
<g id="Policeman">
</g>
<g id="Criminal">
</g>
<g id="Prisoner">
</g>
<g id="Woodsman">
</g>
<g id="Dispatcher_1">
</g>
<g id="Dispatcher_2">
</g>
<g id="Soldier">
</g>
<g id="Astronaut">
</g>
<g id="Hipster_Guy">
</g>
<g id="Hipster_Girl">
</g>
<g id="Worker">
</g>
<g id="Old_Man">
</g>
<g id="Punk">
</g>
<g id="Diver">
</g>
<g id="Artist">
</g>
<g id="Dictator">
</g>
<g id="Man_Hat">
</g>
<g id="Woman_Hat">
</g>
<g id="Graduated_Man">
</g>
<g id="Graduated_Woman">
</g>
<g id="Avatar_Chef">
</g>
<g id="Waiter">
</g>
<g id="Waitress">
</g>
<g id="Bllboy">
</g>
<g id="Santa">
</g>
<g id="Doctor">
</g>
<g id="Nurse">
</g>
<g id="Captain">
</g>
<g id="Farmer">
</g>
<g id="Maid">
</g>
<g id="Business_Man_2">
</g>
<g id="Business_Woman_2">
</g>
<g id="Cowboy">
</g>
<g id="Anonymus">
</g>
<g id="Batman">
</g>
<g id="Superman">
	<g>
		<g>
			<path d="M5.001,26c-0.19,0-0.371-0.109-0.454-0.294c-0.114-0.251-0.001-0.547,0.248-0.662c0.07-0.032,0.163-0.106,0.262-0.178
				c0.196-0.143,0.38-0.276,0.564-0.341l2.173-0.981c0.207-0.074,0.404-0.118,0.608-0.163c0.28-0.062,0.629-0.138,0.771-0.26
				l1.014-0.922c0.205-0.185,0.521-0.172,0.707,0.034c0.186,0.204,0.17,0.521-0.034,0.706L9.836,23.87
				c-0.344,0.296-0.81,0.397-1.221,0.487c-0.162,0.036-0.319,0.068-0.451,0.114l-2.173,0.982c-0.095,0.038-0.253,0.152-0.347,0.221
				c-0.155,0.113-0.302,0.22-0.441,0.281C5.138,25.986,5.069,26,5.001,26z"/>
		</g>
		<g>
			<path d="M25,26c-0.068,0-0.138-0.014-0.205-0.044c-0.085-0.039-0.235-0.117-0.399-0.204c-0.209-0.11-0.446-0.24-0.561-0.28
				l-2.521-1.008c-0.369-0.128-0.523-0.267-0.715-0.462c-0.056-0.058-0.121-0.125-0.217-0.207l-1.184-0.896
				c-0.22-0.167-0.264-0.48-0.097-0.7c0.166-0.221,0.479-0.265,0.7-0.097l1.208,0.915c0.148,0.126,0.233,0.212,0.306,0.287
				c0.123,0.126,0.152,0.155,0.349,0.225l2.521,1.008c0.122,0.042,0.418,0.195,0.678,0.332c0.141,0.074,0.269,0.143,0.341,0.176
				c0.252,0.113,0.364,0.409,0.251,0.661C25.373,25.891,25.19,26,25,26z"/>
		</g>
		<g>
			<path d="M21.5,15c-0.007,0-0.014,0-0.021,0c-0.184-0.009-0.348-0.116-0.428-0.282c-0.093-0.191-0.809-1.689-1.002-2.753
				c-0.782-0.126-1.351-0.574-1.688-1.145c-0.05,0.047-0.102,0.093-0.157,0.139c-1.109,0.91-3.174,1.354-4.801,1.031l-0.136-0.026
				c-1.378-0.273-2.007-0.38-2.482-0.053c-0.437,0.303-1.338,1.828-1.838,2.814c-0.081,0.161-0.243,0.265-0.422,0.273
				c-0.174,0.009-0.35-0.081-0.447-0.232C7.941,14.554,7.484,14,7,14c-0.276,0-0.5-0.224-0.5-0.5S6.724,13,7,13
				c0.588,0,1.068,0.307,1.402,0.615c0.455-0.83,1.225-2.12,1.813-2.526c0.844-0.582,1.8-0.394,3.246-0.106l0.136,0.027
				c1.498,0.296,3.195-0.186,3.972-0.824C17.766,10.024,18,9.774,18,9.5C18,9.224,18.224,9,18.5,9S19,9.224,19,9.5
				c0,0.723,0.469,1.5,1.5,1.5c0.276,0,0.5,0.224,0.5,0.5c0,0.442,0.318,1.336,0.633,2.079C21.963,13.283,22.428,13,23,13
				c0.276,0,0.5,0.224,0.5,0.5S23.276,14,23,14c-0.593,0-1.066,0.748-1.07,0.756C21.839,14.907,21.676,15,21.5,15z"/>
		</g>
		<g>
			<path d="M17.5,25h-5c-0.133,0-0.26-0.053-0.354-0.146l-3-3c-0.055-0.055-0.096-0.121-0.12-0.194c0,0-0.438-1.301-0.744-2.219
				C8.2,19.478,8.106,19.5,8,19.5c-0.966,0-2-1.205-2-3c0-0.302,0.273-1.295,0.469-1.966C6.287,14.11,6,13.385,6,13
				c0-4.963,4.038-9,9-9c1.552,0,3.209,0.611,4.113,1.004c0.198-0.038,0.439-0.071,0.667,0.081C22.229,6.733,23.75,9.766,23.75,13
				c0,0.358-0.161,1.144-0.234,1.482C23.712,15.152,24,16.19,24,16.5c0,1.795-1.034,3-2,3c-0.106,0-0.2-0.022-0.283-0.06
				c-0.307,0.926-0.744,2.22-0.744,2.22c-0.024,0.072-0.065,0.139-0.12,0.193l-3,3C17.76,24.947,17.633,25,17.5,25z M12.707,24
				h4.586l2.771-2.771c0.162-0.479,0.799-2.372,0.96-2.881c0.054-0.17,0.194-0.298,0.369-0.337c0.172-0.039,0.355,0.018,0.476,0.15
				c0.068,0.073,0.131,0.162,0.193,0.251c0.014,0.02,0.03,0.044,0.047,0.066C22.47,18.352,23,17.623,23,16.5
				c-0.011-0.178-0.257-1.105-0.479-1.858c-0.024-0.081-0.027-0.168-0.008-0.251c0.099-0.441,0.238-1.164,0.238-1.391
				c0-2.861-1.311-5.537-3.429-7.017c-0.173,0.032-0.344,0.053-0.524-0.026C17.989,5.6,16.421,5,15,5c-4.336,0-8,3.663-8,8
				c0.003,0.155,0.217,0.761,0.457,1.296c0.048,0.108,0.057,0.231,0.023,0.346C7.257,15.395,7.011,16.322,7,16.507
				c0,1.116,0.53,1.845,0.892,1.973c0.017-0.022,0.033-0.047,0.047-0.066C8,18.324,8.064,18.235,8.132,18.162
				c0.121-0.133,0.304-0.189,0.476-0.15c0.174,0.039,0.315,0.167,0.369,0.337c0.146,0.458,0.796,2.395,0.96,2.881L12.707,24z"/>
		</g>
		<g>
			<path d="M14.201,15.271c-0.382,0-0.768-0.143-1.046-0.409c-0.2-0.19-0.207-0.507-0.017-0.706c0.191-0.2,0.508-0.208,0.707-0.017
				c0.128,0.121,0.37,0.167,0.526,0.1C14.438,14.21,14.5,14.161,14.5,14c-0.049-0.063-0.425-0.326-0.566-0.426
				c-0.128-0.09-0.23-0.165-0.281-0.214c-0.444-0.428-0.45-0.808-0.376-1.052c0.176-0.584,0.912-0.761,1.133-0.801
				c0.272-0.045,0.532,0.131,0.581,0.402c0.05,0.272-0.13,0.532-0.402,0.582c-0.096,0.019-0.212,0.058-0.292,0.097
				c0.014,0.016,0.03,0.032,0.049,0.051c0.03,0.026,0.09,0.066,0.161,0.116C14.927,13.049,15.5,13.451,15.5,14
				c0,0.528-0.275,0.961-0.735,1.158C14.587,15.233,14.395,15.271,14.201,15.271z"/>
		</g>
		<g>
			<path d="M18.5,28c-0.077,0-0.154-0.018-0.226-0.054c-0.208-0.105-0.315-0.341-0.259-0.567l1-4
				c0.066-0.269,0.336-0.431,0.606-0.364c0.268,0.067,0.431,0.339,0.364,0.606l-0.536,2.145C20.352,24.913,21.542,24,22.5,24
				c0.276,0,0.5,0.224,0.5,0.5S22.776,25,22.5,25c-0.926,0-2.709,1.729-3.615,2.819C18.787,27.937,18.645,28,18.5,28z"/>
		</g>
		<g>
			<path d="M11.5,28c-0.145,0-0.286-0.063-0.384-0.18C10.205,26.73,8.417,25,7.5,25C7.224,25,7,24.776,7,24.5S7.224,24,7.5,24
				c0.953,0,2.147,0.918,3.052,1.771l-0.537-2.15c-0.067-0.268,0.096-0.539,0.364-0.606c0.265-0.065,0.539,0.096,0.606,0.364l1,4
				c0.057,0.226-0.05,0.461-0.258,0.566C11.655,27.982,11.577,28,11.5,28z"/>
		</g>
		<g>
			<path d="M15,30C6.729,30,0,23.271,0,15S6.729,0,15,0s15,6.729,15,15S23.271,30,15,30z M15,1C7.28,1,1,7.28,1,15s6.28,14,14,14
				s14-6.28,14-14S22.72,1,15,1z"/>
		</g>
		<g>
			<path d="M12.5,17h-1c-0.276,0-0.5-0.224-0.5-0.5s0.224-0.5,0.5-0.5h1c0.276,0,0.5,0.224,0.5,0.5S12.776,17,12.5,17z"/>
		</g>
		<g>
			<path d="M18.5,17h-1c-0.276,0-0.5-0.224-0.5-0.5s0.224-0.5,0.5-0.5h1c0.276,0,0.5,0.224,0.5,0.5S18.776,17,18.5,17z"/>
		</g>
	</g>
</g>
<g id="Captain_America">
</g>
<g id="Darth_Vader">
</g>
<g id="Harry_Potter">
</g>
<g id="Anonymus_2">
</g>
<g id="Scream">
</g>
<g id="Jason">
</g>
<g id="Charlie_Chaplin">
</g>
</svg>
