<?xml version="1.0" encoding="iso-8859-1"?>
<!-- Generator: Adobe Illustrator 19.2.1, SVG Export Plug-In . SVG Version: 6.00 Build 0)  -->
<svg version="1.1" xmlns="http://www.w3.org/2000/svg" xmlns:xlink="http://www.w3.org/1999/xlink" x="0px" y="0px"
	 viewBox="0 0 30 30" style="enable-background:new 0 0 30 30;" xml:space="preserve">
<g id="Sun_Light">
</g>
<g id="Sunglasses">
</g>
<g id="T-Shirt_1">
</g>
<g id="T-Shirt_2">
</g>
<g id="Mini_Dress">
</g>
<g id="Flip-Flops">
</g>
<g id="Temperature">
</g>
<g id="Hot_Temperature">
</g>
<g id="Ice_Lolly">
</g>
<g id="Icecream">
</g>
<g id="Limonade_1">
</g>
<g id="Limonade_2">
</g>
<g id="Hat">
</g>
<g id="Straw_Hat">
</g>
<g id="Deckchair">
</g>
<g id="Sunshade">
</g>
<g id="Suncream">
</g>
<g id="Suntan_Oil">
</g>
<g id="Swimming_Trunks">
</g>
<g id="Bikini">
</g>
<g id="Pool">
</g>
<g id="Pool_Ladder">
</g>
<g id="Grill">
</g>
<g id="Kite_1">
</g>
<g id="Kite_2">
</g>
<g id="Badminton">
</g>
<g id="Cooler">
</g>
<g id="Strand_Bag">
</g>
<g id="Towel">
</g>
<g id="Strand_Ball">
</g>
<g id="Beach_Sign">
</g>
<g id="Toos">
</g>
<g id="Bucket">
</g>
<g id="Sand_Castle">
</g>
<g id="Shell_1">
</g>
<g id="Shell_2">
</g>
<g id="Surf_Board">
	<g id="XMLID_294_">
		<g id="XMLID_295_">
			<path d="M3.232,29.999c-0.758,0-1.573-0.367-2.23-1.028c-0.809-0.811-1.167-1.863-0.936-2.747
				c0.947-3.615,5.548-10.078,11.188-15.718c4.654-4.654,9.111-7.321,11.354-8.496c1.703-0.893,5.796-2.834,7.007-1.623
				c1.25,1.25-0.907,5.696-1.598,7.03c-1.169,2.255-3.823,6.731-8.472,11.38C13.938,24.405,7.453,28.984,3.777,29.932
				C3.602,29.977,3.419,29.999,3.232,29.999z M28.461,0.991c-0.812,0-2.637,0.463-5.389,1.904c-2.191,1.148-6.55,3.757-11.11,8.317
				C6.435,16.739,1.94,23.017,1.033,26.478c-0.142,0.541,0.117,1.227,0.677,1.788c0.561,0.563,1.277,0.838,1.817,0.697
				c3.465-0.893,9.904-5.466,15.312-10.873c4.553-4.553,7.148-8.93,8.291-11.134c1.843-3.557,2.067-5.573,1.778-5.862
				C28.844,1.029,28.694,0.991,28.461,0.991z"/>
		</g>
		<g id="XMLID_296_">
			<path d="M7.437,23.065c-0.128,0-0.256-0.049-0.354-0.146c-0.195-0.195-0.195-0.512,0-0.707L28.908,0.387
				c0.195-0.195,0.512-0.195,0.707,0s0.195,0.512,0,0.707L7.79,22.919C7.692,23.017,7.564,23.065,7.437,23.065z"/>
		</g>
		<g id="XMLID_297_">
			<path d="M7.433,24.961c-0.511,0-1.104-0.27-1.613-0.778c-0.824-0.823-1.021-1.869-0.459-2.431c0.561-0.561,1.605-0.365,2.43,0.46
				c0.353,0.353,0.607,0.772,0.717,1.182c0.133,0.498,0.039,0.953-0.257,1.249C8.035,24.857,7.75,24.961,7.433,24.961z
				 M6.169,22.435c-0.051,0-0.086,0.009-0.102,0.024c-0.069,0.069-0.017,0.54,0.459,1.017c0.478,0.477,0.945,0.529,1.017,0.46
				c0.019-0.019,0.043-0.113-0.003-0.284c-0.063-0.238-0.229-0.506-0.457-0.732C6.713,22.549,6.346,22.435,6.169,22.435z"/>
		</g>
		<g id="XMLID_298_">
			<path d="M1.371,29.131c-0.128,0-0.256-0.049-0.354-0.146c-0.195-0.195-0.195-0.512,0-0.707l4.803-4.803
				c0.195-0.195,0.512-0.195,0.707,0s0.195,0.512,0,0.707l-4.803,4.803C1.627,29.082,1.499,29.131,1.371,29.131z"/>
		</g>
	</g>
</g>
<g id="Float">
</g>
<g id="Vacation_Photo">
</g>
<g id="Summer_Time">
</g>
<g id="Boat">
</g>
<g id="Lifebuoy">
</g>
<g id="Lighthouse">
</g>
<g id="Sunset">
</g>
<g id="Dolphin">
</g>
<g id="Starfish">
</g>
<g id="Diving_Mask">
</g>
<g id="Sailboat">
</g>
<g id="Captin_Hat">
</g>
<g id="Eudder">
</g>
</svg>
