<?xml version="1.0" encoding="iso-8859-1"?>
<!-- Generator: Adobe Illustrator 19.2.1, SVG Export Plug-In . SVG Version: 6.00 Build 0)  -->
<svg version="1.1" xmlns="http://www.w3.org/2000/svg" xmlns:xlink="http://www.w3.org/1999/xlink" x="0px" y="0px"
	 viewBox="0 0 24 24" style="enable-background:new 0 0 24 24;" xml:space="preserve">
<g id="Sun_Light">
</g>
<g id="Sunglasses">
</g>
<g id="T-Shirt_1">
</g>
<g id="T-Shirt_2">
</g>
<g id="Mini_Dress">
</g>
<g id="Flip-Flops">
</g>
<g id="Temperature">
</g>
<g id="Hot_Temperature">
</g>
<g id="Ice_Lolly">
</g>
<g id="Icecream">
</g>
<g id="Limonade_1">
</g>
<g id="Limonade_2">
</g>
<g id="Hat">
</g>
<g id="Straw_Hat">
</g>
<g id="Deckchair">
</g>
<g id="Sunshade">
</g>
<g id="Suncream">
</g>
<g id="Suntan_Oil">
</g>
<g id="Swimming_Trunks">
</g>
<g id="Bikini">
</g>
<g id="Pool">
</g>
<g id="Pool_Ladder">
</g>
<g id="Grill">
</g>
<g id="Kite_1">
</g>
<g id="Kite_2">
</g>
<g id="Badminton">
</g>
<g id="Cooler">
</g>
<g id="Strand_Bag">
</g>
<g id="Towel">
</g>
<g id="Strand_Ball">
</g>
<g id="Beach_Sign">
</g>
<g id="Toos">
</g>
<g id="Bucket">
</g>
<g id="Sand_Castle">
</g>
<g id="Shell_1">
</g>
<g id="Shell_2">
</g>
<g id="Surf_Board">
	<g>
		<path d="M4.29,17.275c0.4-0.399,1.07-0.358,1.681,0.049L23.186,0.109c-2.164-0.621-8.841,2.873-14.226,8.257
			c-4.48,4.48-8.136,9.62-8.89,12.498c-0.158,0.605,0.028,1.296,0.464,1.896l3.804-3.804C3.931,18.345,3.891,17.675,4.29,17.275z"/>
		<path d="M23.907,0.802L6.678,18.031c0.408,0.611,0.448,1.281,0.049,1.681c-0.185,0.185-0.437,0.28-0.721,0.28
			c-0.119,0-0.242-0.017-0.369-0.05c-0.199-0.053-0.396-0.157-0.587-0.283l-3.816,3.816c0.455,0.329,0.963,0.511,1.446,0.511
			c0.155,0,0.309-0.019,0.456-0.057c2.927-0.754,8.083-4.393,12.539-8.848c3.692-3.692,5.801-7.249,6.729-9.041
			C23.032,4.83,24.306,2.121,23.907,0.802z"/>
	</g>
</g>
<g id="Float">
</g>
<g id="Vacation_Photo">
</g>
<g id="Summer_Time">
</g>
<g id="Boat">
</g>
<g id="Lifebuoy">
</g>
<g id="Lighthouse">
</g>
<g id="Sunset">
</g>
<g id="Dolphin">
</g>
<g id="Starfish">
</g>
<g id="Diving_Mask">
</g>
<g id="Sailboat">
</g>
<g id="Captin_Hat">
</g>
<g id="Eudder">
</g>
</svg>
