<?xml version="1.0" encoding="iso-8859-1"?>
<!-- Generator: Adobe Illustrator 19.2.1, SVG Export Plug-In . SVG Version: 6.00 Build 0)  -->
<svg version="1.1" xmlns="http://www.w3.org/2000/svg" xmlns:xlink="http://www.w3.org/1999/xlink" x="0px" y="0px"
	 viewBox="0 0 30 30" style="enable-background:new 0 0 30 30;" xml:space="preserve">
<g id="Restaurant_sign_1">
</g>
<g id="Restaurant_Sign_2">
</g>
<g id="Restaurant_Sign_3">
</g>
<g id="Hot_Drink_1">
</g>
<g id="Hot_Drink_2">
</g>
<g id="Cocktail">
</g>
<g id="Shot_Glasses">
</g>
<g id="Chilled_Champagne">
</g>
<g id="Wine">
</g>
<g id="Wine_List">
</g>
<g id="Menu">
</g>
<g id="Menu_2">
</g>
<g id="Salver">
</g>
<g id="Soup">
</g>
<g id="Sushi">
	<g>
		<g id="XMLID_198_">
			<path d="M7,11c-3.925,0-7-1.538-7-3.5S3.075,4,7,4s7,1.538,7,3.5S10.925,11,7,11z M7,5C3.464,5,1,6.317,1,7.5S3.464,10,7,10
				s6-1.317,6-2.5S10.536,5,7,5z"/>
		</g>
		<g id="XMLID_197_">
			<path d="M7,19c-3.86,0-7-1.652-7-3.684V7.5C0,7.224,0.224,7,0.5,7S1,7.224,1,7.5v7.816C1,16.583,3.566,18,7,18s6-1.417,6-2.684
				V7.5C13,7.224,13.224,7,13.5,7S14,7.224,14,7.5v7.816C14,17.348,10.86,19,7,19z"/>
		</g>
		<g id="XMLID_196_">
			<path d="M7,9C5.555,9,4,8.531,4,7.5S5.555,6,7,6s3,0.469,3,1.5S8.445,9,7,9z M7,7C5.758,7,5.063,7.377,4.996,7.527
				C5.063,7.623,5.758,8,7,8c1.174,0,1.859-0.336,1.987-0.5C8.859,7.336,8.174,7,7,7z M9.004,7.527h0.01H9.004z"/>
		</g>
		<g id="XMLID_195_">
			<path d="M23,8c-3.925,0-7-1.538-7-3.5S19.075,1,23,1s7,1.538,7,3.5S26.925,8,23,8z M23,2c-3.536,0-6,1.317-6,2.5S19.464,7,23,7
				s6-1.317,6-2.5S26.536,2,23,2z"/>
		</g>
		<g id="XMLID_194_">
			<path d="M23,16c-3.86,0-7-1.724-7-3.844V4.5C16,4.224,16.224,4,16.5,4S17,4.224,17,4.5v7.656C17,13.671,19.804,15,23,15
				s6-1.329,6-2.844V4.5C29,4.224,29.224,4,29.5,4S30,4.224,30,4.5v7.656C30,14.276,26.86,16,23,16z"/>
		</g>
		<g id="XMLID_193_">
			<path d="M23,6c-1.445,0-3-0.469-3-1.5S21.555,3,23,3s3,0.469,3,1.5S24.445,6,23,6z M23,4c-1.242,0-1.937,0.377-2.004,0.527
				C21.063,4.623,21.758,5,23,5c1.174,0,1.859-0.336,1.987-0.5C24.859,4.336,24.174,4,23,4z M25.004,4.527h0.01H25.004z"/>
		</g>
		<g id="XMLID_192_">
			<path d="M1.5,28c-0.207,0-0.401-0.13-0.473-0.336c-0.09-0.261,0.048-0.546,0.309-0.636l26-9c0.262-0.09,0.545,0.048,0.636,0.309
				c0.09,0.261-0.048,0.546-0.309,0.636l-26,9C1.609,27.991,1.554,28,1.5,28z"/>
		</g>
		<g id="XMLID_191_">
			<path d="M29.5,25h-29C0.224,25,0,24.776,0,24.5S0.224,24,0.5,24h29c0.276,0,0.5,0.224,0.5,0.5S29.776,25,29.5,25z"/>
		</g>
	</g>
</g>
<g id="Pizza">
</g>
<g id="Pizza_Slice">
</g>
<g id="Fish">
</g>
<g id="Sausage">
</g>
<g id="Course">
</g>
<g id="Dessert">
</g>
<g id="Cutlery">
</g>
<g id="Napkin">
</g>
<g id="Table">
</g>
<g id="Spices">
</g>
<g id="Hot_Sauce">
</g>
<g id="Reserved_1">
</g>
<g id="Reserved_2">
</g>
<g id="Open">
</g>
<g id="Food_Photo">
</g>
<g id="Chef">
</g>
<g id="Bill">
</g>
<g id="Bill_2">
</g>
<g id="Paying_1">
</g>
<g id="Paying_2">
</g>
<g id="Restaurant_Place">
</g>
</svg>
