<?xml version="1.0" encoding="iso-8859-1"?>
<!-- Generator: Adobe Illustrator 19.2.1, SVG Export Plug-In . SVG Version: 6.00 Build 0)  -->
<svg version="1.1" xmlns="http://www.w3.org/2000/svg" xmlns:xlink="http://www.w3.org/1999/xlink" x="0px" y="0px"
	 viewBox="0 0 30 30" style="enable-background:new 0 0 30 30;" xml:space="preserve">
<g id="Snowflake_1">
</g>
<g id="Snowflake_2">
</g>
<g id="Snowflake_3">
</g>
<g id="Snowflake_4">
</g>
<g id="Winter_Cap_1">
</g>
<g id="Winter_Cap_2">
</g>
<g id="Glowes">
</g>
<g id="Sweater_1">
</g>
<g id="Sweater_2">
</g>
<g id="Sweater_3">
	<g>
		<path d="M14.146,5.101c0.195-0.195,0.512-0.195,0.707,0l2.039,2.039l1.927-4.171c-0.594,0.678-2.229,1.577-4.331,1.577
			c-2.032,0-3.636-0.842-4.277-1.511l1.897,4.105L14.146,5.101z"/>
		<path d="M28.985,21.056L27.126,7.962c-0.425-3.384-3.325-5.937-6.758-5.96L17.5,8.209c-0.068,0.148-0.205,0.254-0.366,0.283
			C17.104,8.498,17.075,8.5,17.046,8.5c-0.132,0-0.259-0.052-0.354-0.146L14.5,6.162l-2.192,2.192
			c-0.116,0.116-0.281,0.169-0.441,0.139C11.706,8.463,11.569,8.358,11.5,8.21L8.632,2.001c-3.444,0.012-6.357,2.572-6.78,5.958
			L0.015,21.062c-0.123,0.944,0.521,1.809,1.467,1.967l1.387,0.226c0.909,0.155,1.652-0.413,1.85-1.406l1.28-6.6V24.5
			C6,25.879,7.119,27,8.493,27h0H9v-1.5C9,25.224,9.224,25,9.5,25s0.5,0.224,0.5,0.5V27h1v-1.5c0-0.276,0.224-0.5,0.5-0.5
			s0.5,0.224,0.5,0.5V27h2v-1.5c0-0.276,0.224-0.5,0.5-0.5s0.5,0.224,0.5,0.5V27h2v-1.5c0-0.276,0.224-0.5,0.5-0.5
			s0.5,0.224,0.5,0.5V27h1v-1.5c0-0.276,0.224-0.5,0.5-0.5s0.5,0.224,0.5,0.5V27h0.483h0c0,0,0,0,0,0C21.871,27,23,25.879,23,24.5
			v-9.228l1.27,6.574c0.191,0.968,1.01,1.557,1.936,1.401l1.339-0.231C28.49,22.859,29.11,22.02,28.985,21.056z M8.655,3l0.001,0h0
			L8.655,3z M18.803,14.144c-0.007,0.011-0.009,0.023-0.017,0.034c-0.012,0.015-0.03,0.021-0.044,0.035
			c-0.344,0.418-0.755,0.784-1.217,1.091l0.169,0.479l0.958-0.479c0.248-0.123,0.547-0.024,0.671,0.224
			c0.123,0.247,0.023,0.547-0.224,0.671l-1.069,0.534l0.462,1.308c0.013,0.036,0.021,0.073,0.025,0.11
			c0.154,0.453,0.232,0.907,0.232,1.35c0,0.721-0.197,1.39-0.515,1.985c-0.019,0.086-0.063,0.164-0.125,0.23
			c-0.749,1.215-2.08,2.034-3.61,2.034c-1.534,0-2.868-0.824-3.616-2.046c-0.056-0.063-0.097-0.134-0.116-0.214
			c-0.32-0.597-0.518-1.267-0.518-1.99c0-0.443,0.079-0.897,0.233-1.352c0.004-0.036,0.012-0.073,0.024-0.108l0.463-1.308
			l-1.069-0.535c-0.247-0.124-0.347-0.424-0.224-0.671s0.424-0.346,0.671-0.224l0.958,0.479l0.169-0.479
			c-0.467-0.31-0.882-0.68-1.229-1.102c-0.009-0.01-0.023-0.014-0.031-0.025c-0.006-0.007-0.007-0.016-0.012-0.024
			C9.439,13.196,9,12.003,9,10.75c0-0.276,0.224-0.5,0.5-0.5s0.5,0.224,0.5,0.5c0,0.849,0.252,1.662,0.693,2.363
			c0.425-0.434,0.807-1.022,0.807-1.738c0-0.276,0.224-0.5,0.5-0.5s0.5,0.224,0.5,0.5c0,0.907-0.426,1.763-1.194,2.511
			c0.17,0.172,0.354,0.331,0.552,0.476c0.513-0.975,1.528-1.612,2.642-1.612c1.113,0,2.128,0.637,2.642,1.611
			c0.198-0.145,0.382-0.304,0.552-0.475c-0.768-0.748-1.194-1.603-1.194-2.511c0-0.276,0.224-0.5,0.5-0.5s0.5,0.224,0.5,0.5
			c0,0.716,0.381,1.304,0.807,1.738C18.748,12.412,19,11.599,19,10.75c0-0.276,0.224-0.5,0.5-0.5s0.5,0.224,0.5,0.5
			C20,11.998,19.564,13.189,18.803,14.144z"/>
		<path d="M16.401,15.125c-0.014-0.023-0.025-0.047-0.034-0.072c-0.292-0.779-1.042-1.303-1.867-1.303
			c-0.827,0-1.577,0.525-1.868,1.308c-0.01,0.026-0.022,0.051-0.036,0.075l-1.108,3.133c-0.004,0.039-0.013,0.077-0.026,0.114
			c-0.141,0.382-0.212,0.758-0.212,1.12c0,0.304,0.056,0.593,0.134,0.873C12.18,19.514,13.306,19,14.5,19
			c1.195,0,2.32,0.513,3.116,1.372c0.078-0.279,0.134-0.568,0.134-0.872c0-0.362-0.071-0.738-0.212-1.12
			c-0.015-0.038-0.023-0.077-0.028-0.117L16.401,15.125z M13.25,17.625c-0.345,0-0.625-0.28-0.625-0.625
			c0-0.345,0.28-0.625,0.625-0.625c0.345,0,0.625,0.28,0.625,0.625C13.875,17.345,13.595,17.625,13.25,17.625z M15.75,17.625
			c-0.345,0-0.625-0.28-0.625-0.625c0-0.345,0.28-0.625,0.625-0.625c0.345,0,0.625,0.28,0.625,0.625
			C16.375,17.345,16.095,17.625,15.75,17.625z"/>
		<path d="M14.5,20c-1.055,0-2.04,0.522-2.647,1.373c0.589,0.83,1.553,1.377,2.647,1.377c1.093,0,2.057-0.546,2.646-1.376
			C16.54,20.522,15.555,20,14.5,20z"/>
	</g>
</g>
<g id="Scarf">
</g>
<g id="Winter_Socks">
</g>
<g id="Winter_Sock">
</g>
<g id="Winter_Coat">
</g>
<g id="Winter_Calendar">
</g>
<g id="Thermometer_1">
</g>
<g id="Thermometer_2">
</g>
<g id="Cold">
</g>
<g id="Icicle">
</g>
<g id="Snowing">
</g>
<g id="Snow_Shoes_1">
</g>
<g id="Snow_Shoes_2">
</g>
<g id="Sledge">
</g>
<g id="Snow_Boots">
</g>
<g id="Snowcapped_Mountains">
</g>
<g id="Skis">
</g>
<g id="Sky_Glasses">
</g>
<g id="Snowboard">
</g>
<g id="Ice_Skate">
</g>
<g id="Wooden_House">
</g>
<g id="Snowcapped_House">
</g>
<g id="Hot_Drink">
</g>
<g id="Hot_Chocolate">
</g>
<g id="Lantern">
</g>
<g id="Snow_Shovel">
</g>
<g id="Snowman">
</g>
<g id="Reindeer">
</g>
<g id="Snowmobile">
</g>
<g id="Snow_Chain">
</g>
<g id="Slippery_Road">
</g>
</svg>
