<?xml version="1.0" encoding="iso-8859-1"?>
<!-- Generator: Adobe Illustrator 19.2.1, SVG Export Plug-In . SVG Version: 6.00 Build 0)  -->
<svg version="1.1" xmlns="http://www.w3.org/2000/svg" xmlns:xlink="http://www.w3.org/1999/xlink" x="0px" y="0px"
	 viewBox="0 0 24 24" style="enable-background:new 0 0 24 24;" xml:space="preserve">
<g id="Present_1">
</g>
<g id="Present_2">
</g>
<g id="Present_3">
</g>
<g id="Present_Cake">
</g>
<g id="Present_4">
</g>
<g id="Birthday_Cake_1">
</g>
<g id="Birthday_Cake_2">
</g>
<g id="Cake_Piece">
</g>
<g id="Cupcake">
</g>
<g id="Lollipop">
</g>
<g id="Birthday_Greetings_1">
</g>
<g id="Party_Greetings_2">
</g>
<g id="Birthday_Invitation">
</g>
<g id="Birthday_1">
</g>
<g id="Birthday_2">
</g>
<g id="Birthday_Message_1">
</g>
<g id="Birthday_Message_2">
</g>
<g id="Birthyday_Hat_1">
</g>
<g id="Birthay_Hat_2">
</g>
<g id="Birthday_Hat3">
</g>
<g id="Birthday_Decoration_1">
</g>
<g id="Birthday_Decoration_2">
</g>
<g id="Birthday_Decoration_3">
</g>
<g id="Horn_1">
</g>
<g id="Horn_2">
</g>
<g id="Baloon">
</g>
<g id="Balloons_1">
</g>
<g id="Balloons_2">
</g>
<g id="Birthday_Picture">
</g>
<g id="Kid_x27_s_Champagne">
</g>
<g id="Candy">
</g>
<g id="Birthday_Card">
</g>
<g id="Flowers">
</g>
<g id="Birthday_Song">
</g>
<g id="Candle">
</g>
<g id="Sweet_16">
	<g>
		<circle cx="13.5" cy="18" r="0.5"/>
		<path d="M23.773,1.581c-0.142-0.092-0.319-0.106-0.476-0.039C23.254,1.562,18.785,3.5,12,3.5C5.143,3.5,0.749,1.563,0.705,1.544
			C0.55,1.475,0.37,1.489,0.229,1.58C0.086,1.672,0,1.83,0,2v18c0,0.197,0.115,0.375,0.295,0.456C0.479,20.539,4.911,22.5,12,22.5
			c6.994,0,11.513-1.959,11.702-2.042C23.883,20.377,24,20.198,24,20V2C24,1.831,23.915,1.673,23.773,1.581z M2.001,10.095
			C1.983,9.819,2.192,9.582,2.469,9.564c0.27-0.009,0.514,0.192,0.53,0.467c0.017,0.263,0.236,0.468,0.5,0.468
			C3.775,10.5,4,10.276,4,10c0-0.224-0.095-0.386-0.569-0.502l0.021-0.51L3.334,9.474C2.231,9.204,2,8.523,2,8
			c0-0.827,0.674-1.5,1.501-1.5c0.79,0,1.448,0.617,1.498,1.404C5.017,8.18,4.808,8.417,4.531,8.435
			c-0.3,0.008-0.513-0.193-0.53-0.467C3.984,7.705,3.765,7.5,3.501,7.5C3.225,7.5,3,7.724,3,8c0,0.224,0.096,0.386,0.571,0.502
			L3.67,8.527C4.77,8.797,5,9.477,5,10c0,0.827-0.674,1.5-1.501,1.5C2.709,11.5,2.051,10.883,2.001,10.095z M7.504,17.254
			c-0.021,0-0.042-0.001-0.063-0.004c-1.423-0.178-2.791-0.433-4.063-0.758c-0.268-0.068-0.43-0.34-0.361-0.608
			c0.067-0.267,0.338-0.431,0.607-0.361c1.233,0.314,2.56,0.561,3.942,0.734c0.273,0.034,0.468,0.284,0.434,0.558
			C7.968,17.069,7.752,17.254,7.504,17.254z M8.525,11.158L8,9.581l-0.525,1.577c-0.073,0.222-0.291,0.361-0.523,0.339
			c-0.232-0.023-0.418-0.204-0.447-0.436l-0.5-4C5.97,6.788,6.164,6.538,6.437,6.504c0.271-0.029,0.524,0.159,0.559,0.434
			L7.223,8.75l0.303-0.909c0.137-0.408,0.813-0.408,0.949,0L8.777,8.75l0.227-1.812c0.034-0.275,0.289-0.463,0.559-0.434
			c0.273,0.034,0.468,0.284,0.434,0.558l-0.5,4c-0.029,0.232-0.215,0.413-0.447,0.436C9.032,11.499,9.017,11.5,9,11.5
			C8.786,11.5,8.594,11.364,8.525,11.158z M11,19c0,0.276-0.224,0.5-0.5,0.5S10,19.276,10,19v-2.793l-0.146,0.146
			c-0.195,0.195-0.512,0.195-0.707,0s-0.195-0.512,0-0.707l1-1c0.144-0.143,0.36-0.187,0.545-0.108C10.878,14.615,11,14.798,11,15
			V19z M11.5,11.5c-0.276,0-0.5-0.224-0.5-0.5V7c0-0.276,0.224-0.5,0.5-0.5h2C13.776,6.5,14,6.724,14,7s-0.224,0.5-0.5,0.5H12v1h1
			c0.276,0,0.5,0.224,0.5,0.5S13.276,9.5,13,9.5h-1v1h1.5c0.276,0,0.5,0.224,0.5,0.5s-0.224,0.5-0.5,0.5H11.5z M13.5,16.5
			c0.827,0,1.5,0.673,1.5,1.5s-0.673,1.5-1.5,1.5S12,18.827,12,18v-1c0-1.378,1.121-2.5,2.5-2.5c0.276,0,0.5,0.224,0.5,0.5
			s-0.224,0.5-0.5,0.5c-0.677,0-1.244,0.453-1.43,1.07C13.207,16.529,13.35,16.5,13.5,16.5z M15,11V7c0-0.276,0.224-0.5,0.5-0.5h2
			C17.776,6.5,18,6.724,18,7s-0.224,0.5-0.5,0.5H16v1h1c0.276,0,0.5,0.224,0.5,0.5S17.276,9.5,17,9.5h-1v1h1.5
			c0.276,0,0.5,0.224,0.5,0.5s-0.224,0.5-0.5,0.5h-2C15.224,11.5,15,11.276,15,11z M20.626,16.484
			c-1.275,0.325-2.642,0.581-4.061,0.761c-0.021,0.002-0.042,0.004-0.063,0.004c-0.248,0-0.463-0.185-0.495-0.437
			c-0.035-0.274,0.159-0.524,0.434-0.559c1.378-0.175,2.703-0.423,3.939-0.737c0.27-0.072,0.539,0.094,0.607,0.361
			C21.056,16.144,20.894,16.416,20.626,16.484z M21.5,7.5H21V11c0,0.276-0.224,0.5-0.5,0.5S20,11.276,20,11V7.5h-0.5
			C19.224,7.5,19,7.276,19,7s0.224-0.5,0.5-0.5h2C21.776,6.5,22,6.724,22,7S21.776,7.5,21.5,7.5z"/>
	</g>
</g>
<g id="Clown">
</g>
<g id="Clown_2">
</g>
<g id="Birthday_Party">
</g>
<g id="Giving_Gift">
</g>
<g id="Present_5">
</g>
<g id="Champagne_in_ice_bucket">
</g>
<g id="Beer">
</g>
<g id="Truffles">
</g>
<g id="Pinata">
</g>
</svg>
