<?xml version="1.0" encoding="iso-8859-1"?>
<!-- Generator: Adobe Illustrator 19.2.1, SVG Export Plug-In . SVG Version: 6.00 Build 0)  -->
<svg version="1.1" xmlns="http://www.w3.org/2000/svg" xmlns:xlink="http://www.w3.org/1999/xlink" x="0px" y="0px"
	 viewBox="0 0 24 24" style="enable-background:new 0 0 24 24;" xml:space="preserve">
<g id="Sun_Light">
</g>
<g id="Sunglasses">
</g>
<g id="T-Shirt_1">
</g>
<g id="T-Shirt_2">
</g>
<g id="Mini_Dress">
</g>
<g id="Flip-Flops">
</g>
<g id="Temperature">
</g>
<g id="Hot_Temperature">
</g>
<g id="Ice_Lolly">
</g>
<g id="Icecream">
</g>
<g id="Limonade_1">
</g>
<g id="Limonade_2">
</g>
<g id="Hat">
</g>
<g id="Straw_Hat">
</g>
<g id="Deckchair">
</g>
<g id="Sunshade">
</g>
<g id="Suncream">
</g>
<g id="Suntan_Oil">
</g>
<g id="Swimming_Trunks">
	<g>
		<path d="M14.846,5c0.799,1.919,0.685,5.112,0.666,5.522C15.5,10.791,15.278,11,15.013,11c-0.007,0-0.015,0-0.022,0
			c-0.276-0.013-0.489-0.246-0.477-0.522C14.565,9.34,14.505,6.265,13.714,5H10.31c-0.79,1.265-0.849,4.34-0.798,5.478
			C9.524,10.753,9.311,10.987,9.035,11c-0.007,0-0.015,0-0.023,0c-0.266,0-0.487-0.209-0.499-0.477C8.495,10.112,8.381,6.919,9.18,5
			H1.237C0.938,6.857,0.5,9.929,0.5,12c0,3.062,0.963,10.262,1.004,10.566c0.03,0.226,0.208,0.401,0.434,0.43l8,1
			c0.143,0.022,0.286-0.026,0.393-0.121C10.438,23.78,10.5,23.644,10.5,23.5c0-2.641,0.914-6.707,1.5-9.043
			c0.586,2.333,1.5,6.392,1.5,9.043c0,0.144,0.062,0.28,0.169,0.375C13.761,23.956,13.879,24,14,24c0.021,0,0.041-0.001,0.062-0.004
			l8-1c0.225-0.028,0.402-0.204,0.433-0.43C22.536,22.262,23.5,15.062,23.5,12c0-2.081-0.443-5.174-0.739-7H14.846z"/>
		<path d="M1.404,4h21.188c-0.052-0.292-0.086-0.477-0.092-0.5v-2C22.5,0.673,21.827,0,21,0H3C2.173,0,1.5,0.673,1.5,1.5l0.008,1.91
			C1.501,3.451,1.462,3.664,1.404,4z"/>
	</g>
</g>
<g id="Bikini">
</g>
<g id="Pool">
</g>
<g id="Pool_Ladder">
</g>
<g id="Grill">
</g>
<g id="Kite_1">
</g>
<g id="Kite_2">
</g>
<g id="Badminton">
</g>
<g id="Cooler">
</g>
<g id="Strand_Bag">
</g>
<g id="Towel">
</g>
<g id="Strand_Ball">
</g>
<g id="Beach_Sign">
</g>
<g id="Toos">
</g>
<g id="Bucket">
</g>
<g id="Sand_Castle">
</g>
<g id="Shell_1">
</g>
<g id="Shell_2">
</g>
<g id="Surf_Board">
</g>
<g id="Float">
</g>
<g id="Vacation_Photo">
</g>
<g id="Summer_Time">
</g>
<g id="Boat">
</g>
<g id="Lifebuoy">
</g>
<g id="Lighthouse">
</g>
<g id="Sunset">
</g>
<g id="Dolphin">
</g>
<g id="Starfish">
</g>
<g id="Diving_Mask">
</g>
<g id="Sailboat">
</g>
<g id="Captin_Hat">
</g>
<g id="Eudder">
</g>
</svg>
