<?xml version="1.0" encoding="iso-8859-1"?>
<!-- Generator: Adobe Illustrator 19.2.1, SVG Export Plug-In . SVG Version: 6.00 Build 0)  -->
<svg version="1.1" xmlns="http://www.w3.org/2000/svg" xmlns:xlink="http://www.w3.org/1999/xlink" x="0px" y="0px"
	 viewBox="0 0 30 30" style="enable-background:new 0 0 30 30;" xml:space="preserve">
<g id="Sun_Light">
</g>
<g id="Sunglasses">
</g>
<g id="T-Shirt_1">
</g>
<g id="T-Shirt_2">
	<g>
		<path d="M23.767,9H6.232c-0.071,1.112-0.196,2.124-0.366,3h18.268C23.963,11.123,23.838,10.112,23.767,9z"/>
		<path d="M25.611,16c-0.163-0.517-0.364-1.005-0.636-1.447c-0.232-0.377-0.435-0.914-0.61-1.553H5.635
			c-0.175,0.64-0.378,1.177-0.61,1.553C4.753,14.995,4.552,15.483,4.389,16H25.611z"/>
		<path d="M26,18.667c0-0.599-0.06-1.145-0.15-1.667H4.15C4.06,17.522,4,18.068,4,18.667V20h22V18.667z"/>
		<rect x="4" y="21" width="22" height="4"/>
		<path d="M10.241,4C9.965,2.897,9.826,1.699,9.826,0.5c0-0.276-0.224-0.5-0.5-0.5H6.174c-0.15,0-0.292,0.067-0.387,0.184
			C5.691,0.3,5.654,0.453,5.684,0.6C5.688,0.621,5.981,2.075,6.163,4H10.241z"/>
		<path d="M4,26v3.5C4,29.776,4.224,30,4.5,30h21c0.276,0,0.5-0.224,0.5-0.5V26H4z"/>
		<path d="M23.837,4c0.182-1.925,0.475-3.379,0.48-3.4c0.029-0.147-0.008-0.3-0.103-0.417C24.118,0.067,23.977,0,23.826,0h-3.152
			c-0.276,0-0.5,0.224-0.5,0.5c0,1.155-0.126,2.368-0.401,3.5H23.837z"/>
		<path d="M6.242,5C6.28,5.584,6.304,6.192,6.304,6.804c0,0.407-0.008,0.805-0.021,1.196h6.267c-0.898-0.684-1.565-1.742-2.012-3
			H6.242z"/>
		<path d="M23.716,8c-0.013-0.391-0.021-0.789-0.021-1.196c0-0.612,0.024-1.22,0.062-1.804h-4.279c-0.429,1.238-1.073,2.309-1.982,3
			H23.716z"/>
	</g>
</g>
<g id="Mini_Dress">
</g>
<g id="Flip-Flops">
</g>
<g id="Temperature">
</g>
<g id="Hot_Temperature">
</g>
<g id="Ice_Lolly">
</g>
<g id="Icecream">
</g>
<g id="Limonade_1">
</g>
<g id="Limonade_2">
</g>
<g id="Hat">
</g>
<g id="Straw_Hat">
</g>
<g id="Deckchair">
</g>
<g id="Sunshade">
</g>
<g id="Suncream">
</g>
<g id="Suntan_Oil">
</g>
<g id="Swimming_Trunks">
</g>
<g id="Bikini">
</g>
<g id="Pool">
</g>
<g id="Pool_Ladder">
</g>
<g id="Grill">
</g>
<g id="Kite_1">
</g>
<g id="Kite_2">
</g>
<g id="Badminton">
</g>
<g id="Cooler">
</g>
<g id="Strand_Bag">
</g>
<g id="Towel">
</g>
<g id="Strand_Ball">
</g>
<g id="Beach_Sign">
</g>
<g id="Toos">
</g>
<g id="Bucket">
</g>
<g id="Sand_Castle">
</g>
<g id="Shell_1">
</g>
<g id="Shell_2">
</g>
<g id="Surf_Board">
</g>
<g id="Float">
</g>
<g id="Vacation_Photo">
</g>
<g id="Summer_Time">
</g>
<g id="Boat">
</g>
<g id="Lifebuoy">
</g>
<g id="Lighthouse">
</g>
<g id="Sunset">
</g>
<g id="Dolphin">
</g>
<g id="Starfish">
</g>
<g id="Diving_Mask">
</g>
<g id="Sailboat">
</g>
<g id="Captin_Hat">
</g>
<g id="Eudder">
</g>
</svg>
