<?xml version="1.0" encoding="iso-8859-1"?>
<!-- Generator: Adobe Illustrator 19.2.1, SVG Export Plug-In . SVG Version: 6.00 Build 0)  -->
<svg version="1.1" xmlns="http://www.w3.org/2000/svg" xmlns:xlink="http://www.w3.org/1999/xlink" x="0px" y="0px"
	 viewBox="0 0 24 24" style="enable-background:new 0 0 24 24;" xml:space="preserve">
<g id="Sun_Light">
</g>
<g id="Sunglasses">
</g>
<g id="T-Shirt_1">
</g>
<g id="T-Shirt_2">
	<g>
		<path d="M4.948,7c-0.045,0.711-0.12,1.387-0.224,2h14.551c-0.104-0.613-0.178-1.289-0.224-2H4.948z"/>
		<rect x="3" y="19" width="18" height="2"/>
		<path d="M21,14.908c0-0.66-0.105-1.3-0.291-1.908H3.291C3.105,13.608,3,14.248,3,14.908V15h18V14.908z"/>
		<rect x="3" y="16" width="18" height="2"/>
		<path d="M3.915,11.591C3.834,11.722,3.772,11.863,3.702,12h16.596c-0.07-0.137-0.132-0.278-0.213-0.409
			c-0.233-0.379-0.436-0.929-0.602-1.591H4.516C4.35,10.662,4.148,11.212,3.915,11.591z"/>
		<path d="M3,22v1.5C3,23.776,3.224,24,3.5,24h17c0.276,0,0.5-0.224,0.5-0.5V22H3z"/>
		<path d="M9.712,6c-0.501-0.52-0.89-1.208-1.167-2H4.943C4.976,4.485,5,4.989,5,5.5C5,5.669,4.993,5.833,4.99,6H9.712z"/>
		<path d="M8.265,3C8.088,2.204,8,1.352,8,0.5C8,0.224,7.776,0,7.5,0H5C4.85,0,4.708,0.067,4.613,0.184
			C4.518,0.3,4.48,0.453,4.51,0.6C4.513,0.616,4.715,1.626,4.858,3H8.265z"/>
		<path d="M19.142,3c0.144-1.374,0.345-2.384,0.349-2.4c0.029-0.147-0.008-0.3-0.103-0.417C19.292,0.067,19.15,0,19,0h-2.5
			C16.224,0,16,0.224,16,0.5c0,0.824-0.083,1.683-0.259,2.5H19.142z"/>
		<path d="M19.057,4h-3.59c-0.266,0.78-0.642,1.475-1.144,2h4.687C19.007,5.833,19,5.669,19,5.5C19,4.989,19.024,4.485,19.057,4z"/>
	</g>
</g>
<g id="Mini_Dress">
</g>
<g id="Flip-Flops">
</g>
<g id="Temperature">
</g>
<g id="Hot_Temperature">
</g>
<g id="Ice_Lolly">
</g>
<g id="Icecream">
</g>
<g id="Limonade_1">
</g>
<g id="Limonade_2">
</g>
<g id="Hat">
</g>
<g id="Straw_Hat">
</g>
<g id="Deckchair">
</g>
<g id="Sunshade">
</g>
<g id="Suncream">
</g>
<g id="Suntan_Oil">
</g>
<g id="Swimming_Trunks">
</g>
<g id="Bikini">
</g>
<g id="Pool">
</g>
<g id="Pool_Ladder">
</g>
<g id="Grill">
</g>
<g id="Kite_1">
</g>
<g id="Kite_2">
</g>
<g id="Badminton">
</g>
<g id="Cooler">
</g>
<g id="Strand_Bag">
</g>
<g id="Towel">
</g>
<g id="Strand_Ball">
</g>
<g id="Beach_Sign">
</g>
<g id="Toos">
</g>
<g id="Bucket">
</g>
<g id="Sand_Castle">
</g>
<g id="Shell_1">
</g>
<g id="Shell_2">
</g>
<g id="Surf_Board">
</g>
<g id="Float">
</g>
<g id="Vacation_Photo">
</g>
<g id="Summer_Time">
</g>
<g id="Boat">
</g>
<g id="Lifebuoy">
</g>
<g id="Lighthouse">
</g>
<g id="Sunset">
</g>
<g id="Dolphin">
</g>
<g id="Starfish">
</g>
<g id="Diving_Mask">
</g>
<g id="Sailboat">
</g>
<g id="Captin_Hat">
</g>
<g id="Eudder">
</g>
</svg>
