<?xml version="1.0" encoding="iso-8859-1"?>
<!-- Generator: Adobe Illustrator 19.2.1, SVG Export Plug-In . SVG Version: 6.00 Build 0)  -->
<svg version="1.1" xmlns="http://www.w3.org/2000/svg" xmlns:xlink="http://www.w3.org/1999/xlink" x="0px" y="0px"
	 viewBox="0 0 30 30" style="enable-background:new 0 0 30 30;" xml:space="preserve">
<g id="Sun_Light">
</g>
<g id="Sunglasses">
</g>
<g id="T-Shirt_1">
	<g id="XMLID_66_">
		<path d="M24.457,30H5.543c-0.138,0-0.271-0.057-0.365-0.158c-0.094-0.101-0.143-0.237-0.134-0.375l1.193-17.901l-2.938,1.959
			c-0.125,0.083-0.281,0.105-0.426,0.062c-0.144-0.045-0.26-0.152-0.316-0.292L0.036,6.99c-0.074-0.186-0.031-0.397,0.111-0.539
			l4.458-4.458C5.889,0.708,7.598,0,9.416,0h1.171c0.276,0,0.5,0.224,0.5,0.5c0,0.977,1.572,2.022,3.913,2.022
			s3.913-1.045,3.913-2.022c0-0.276,0.224-0.5,0.5-0.5h1.171c1.818,0,3.526,0.708,4.811,1.993l4.458,4.458
			c0.142,0.142,0.185,0.354,0.111,0.539l-2.522,6.305c-0.056,0.14-0.172,0.247-0.316,0.292c-0.145,0.044-0.301,0.022-0.426-0.062
			l-2.938-1.959l1.193,17.901c0.009,0.138-0.04,0.274-0.134,0.375C24.727,29.943,24.595,30,24.457,30z M6.078,29h17.844
			l-1.225-18.38c-0.013-0.19,0.084-0.371,0.249-0.466c0.164-0.096,0.369-0.088,0.528,0.017l3.27,2.18l2.17-5.426L24.688,2.7l0,0
			C23.592,1.604,22.135,1,20.584,1h-0.735C19.472,2.449,17.478,3.522,15,3.522S10.528,2.449,10.151,1H9.416
			c-1.55,0-3.008,0.604-4.104,1.7L1.087,6.925l2.17,5.426l3.27-2.18c0.158-0.105,0.364-0.112,0.528-0.017
			c0.165,0.095,0.261,0.276,0.249,0.466L6.078,29z"/>
	</g>
</g>
<g id="T-Shirt_2">
</g>
<g id="Mini_Dress">
</g>
<g id="Flip-Flops">
</g>
<g id="Temperature">
</g>
<g id="Hot_Temperature">
</g>
<g id="Ice_Lolly">
</g>
<g id="Icecream">
</g>
<g id="Limonade_1">
</g>
<g id="Limonade_2">
</g>
<g id="Hat">
</g>
<g id="Straw_Hat">
</g>
<g id="Deckchair">
</g>
<g id="Sunshade">
</g>
<g id="Suncream">
</g>
<g id="Suntan_Oil">
</g>
<g id="Swimming_Trunks">
</g>
<g id="Bikini">
</g>
<g id="Pool">
</g>
<g id="Pool_Ladder">
</g>
<g id="Grill">
</g>
<g id="Kite_1">
</g>
<g id="Kite_2">
</g>
<g id="Badminton">
</g>
<g id="Cooler">
</g>
<g id="Strand_Bag">
</g>
<g id="Towel">
</g>
<g id="Strand_Ball">
</g>
<g id="Beach_Sign">
</g>
<g id="Toos">
</g>
<g id="Bucket">
</g>
<g id="Sand_Castle">
</g>
<g id="Shell_1">
</g>
<g id="Shell_2">
</g>
<g id="Surf_Board">
</g>
<g id="Float">
</g>
<g id="Vacation_Photo">
</g>
<g id="Summer_Time">
</g>
<g id="Boat">
</g>
<g id="Lifebuoy">
</g>
<g id="Lighthouse">
</g>
<g id="Sunset">
</g>
<g id="Dolphin">
</g>
<g id="Starfish">
</g>
<g id="Diving_Mask">
</g>
<g id="Sailboat">
</g>
<g id="Captin_Hat">
</g>
<g id="Eudder">
</g>
</svg>
