<?xml version="1.0" encoding="iso-8859-1"?>
<!-- Generator: Adobe Illustrator 19.2.1, SVG Export Plug-In . SVG Version: 6.00 Build 0)  -->
<svg version="1.1" xmlns="http://www.w3.org/2000/svg" xmlns:xlink="http://www.w3.org/1999/xlink" x="0px" y="0px"
	 viewBox="0 0 24 24" style="enable-background:new 0 0 24 24;" xml:space="preserve">
<g id="Cad_1">
</g>
<g id="Cad_2">
</g>
<g id="Cad_Pencil">
</g>
<g id="Cad_Compasses">
</g>
<g id="Tools_1">
</g>
<g id="Tools_2">
</g>
<g id="Ruler_1">
</g>
<g id="Ruler_2">
</g>
<g id="Workspace_1">
</g>
<g id="Workspace_2">
</g>
<g id="Cad_3">
</g>
<g id="_x33_D_Box">
</g>
<g id="Section_Symbol">
</g>
<g id="Outlet_Symbol">
</g>
<g id="Cad_File">
</g>
<g id="Blueprint">
</g>
<g id="Construction_Plan">
</g>
<g id="Roof_Plan">
</g>
<g id="House_Construction">
</g>
<g id="Building_Construction">
</g>
<g id="Work_Table">
</g>
<g id="Table_Cad">
	<path d="M22.974,12.342l-4-12C18.906,0.138,18.715,0,18.5,0h-14C4.285,0,4.094,0.138,4.026,0.342l-4,12
		c-0.051,0.152-0.025,0.32,0.068,0.451C0.189,12.923,0.339,13,0.5,13H5v10.5C5,23.776,5.224,24,5.5,24S6,23.776,6,23.5V19h11v4.5
		c0,0.276,0.224,0.5,0.5,0.5s0.5-0.224,0.5-0.5V13h4.5c0.161,0,0.312-0.077,0.406-0.208C23,12.662,23.025,12.494,22.974,12.342z
		 M5.025,9.342l0.336-1.01c0.087-0.262,0.37-0.402,0.632-0.317c0.262,0.087,0.404,0.371,0.317,0.632L6.193,9H11V8.5
		C11,8.224,11.224,8,11.5,8S12,8.224,12,8.5V9h4.806L16.14,7H14.5C14.224,7,14,6.776,14,6.5S14.224,6,14.5,6h1.306L15.14,4H12v2h0.5
		c0.276,0,0.5,0.224,0.5,0.5S12.777,7,12.501,7h-2c-0.276,0-0.5-0.224-0.5-0.5s0.224-0.5,0.5-0.5H11V4H7.86L7.194,6H8.5
		C8.776,6,9,6.224,9,6.5S8.776,7,8.5,7h-2C6.472,7,6.447,6.988,6.42,6.984C6.394,6.98,6.368,6.983,6.342,6.974
		c-0.006-0.002-0.01-0.007-0.016-0.009C6.291,6.952,6.261,6.931,6.231,6.91C6.207,6.895,6.181,6.882,6.16,6.863
		C6.136,6.84,6.12,6.812,6.1,6.785C6.082,6.76,6.062,6.737,6.049,6.709C6.036,6.681,6.032,6.651,6.024,6.621
		C6.016,6.587,6.005,6.555,6.004,6.52C6.004,6.513,6,6.507,6,6.5c0-0.029,0.012-0.054,0.016-0.082
		c0.004-0.026,0.001-0.051,0.009-0.077l1-3C7.094,3.138,7.285,3,7.5,3h8c0.215,0,0.406,0.138,0.474,0.342l2,6
		c0.051,0.152,0.025,0.32-0.068,0.451C17.812,9.923,17.661,10,17.5,10h-12c-0.161,0-0.312-0.077-0.406-0.208
		C5.001,9.662,4.975,9.495,5.025,9.342z M17,18H6v-5h11V18z"/>
</g>
<g id="House_Plan">
</g>
<g id="Tape_Measure">
</g>
<g id="Cad_Paper">
</g>
<g id="Cad_Papers">
</g>
<g id="Stairs">
</g>
<g id="Pillar">
</g>
<g id="Bricks">
</g>
<g id="Pantheon">
</g>
<g id="House">
</g>
<g id="Skyscraper">
</g>
<g id="Building">
</g>
</svg>
