<?xml version="1.0" encoding="iso-8859-1"?>
<!-- Generator: Adobe Illustrator 19.2.1, SVG Export Plug-In . SVG Version: 6.00 Build 0)  -->
<svg version="1.1" xmlns="http://www.w3.org/2000/svg" xmlns:xlink="http://www.w3.org/1999/xlink" x="0px" y="0px"
	 viewBox="0 0 24 24" style="enable-background:new 0 0 24 24;" xml:space="preserve">
<g id="Restaurant_sign_1">
</g>
<g id="Restaurant_Sign_2">
</g>
<g id="Restaurant_Sign_3">
</g>
<g id="Hot_Drink_1">
</g>
<g id="Hot_Drink_2">
</g>
<g id="Cocktail">
</g>
<g id="Shot_Glasses">
</g>
<g id="Chilled_Champagne">
</g>
<g id="Wine">
</g>
<g id="Wine_List">
</g>
<g id="Menu">
</g>
<g id="Menu_2">
</g>
<g id="Salver">
</g>
<g id="Soup">
</g>
<g id="Sushi">
</g>
<g id="Pizza">
</g>
<g id="Pizza_Slice">
</g>
<g id="Fish">
</g>
<g id="Sausage">
</g>
<g id="Course">
</g>
<g id="Dessert">
</g>
<g id="Cutlery">
</g>
<g id="Napkin">
</g>
<g id="Table">
	<g>
		<path d="M23.926,17.237C23.834,17.09,23.673,17,23.5,17h-23c-0.173,0-0.334,0.09-0.425,0.237s-0.1,0.331-0.022,0.486
			C0.755,19.128,2.166,20,3.736,20h16.528c1.569,0,2.98-0.872,3.684-2.276C24.024,17.568,24.017,17.385,23.926,17.237z"/>
		<path d="M13.371,7.104C13.453,6.919,13.5,6.715,13.5,6.5C13.5,5.673,12.827,5,12,5s-1.5,0.673-1.5,1.5
			c0,0.215,0.047,0.419,0.129,0.604C6.098,7.727,2.52,11.375,2.061,16h19.877C21.479,11.377,17.9,7.727,13.371,7.104z M11.533,9.999
			c-2.797,0.185-5.206,2.011-6.135,4.652c-0.072,0.205-0.266,0.334-0.472,0.334c-0.055,0-0.111-0.009-0.166-0.028
			c-0.26-0.092-0.397-0.377-0.306-0.638c1.062-3.02,3.815-5.107,7.013-5.318c0.265-0.017,0.513,0.19,0.532,0.466
			C12.017,9.743,11.809,9.981,11.533,9.999z"/>
	</g>
</g>
<g id="Spices">
</g>
<g id="Hot_Sauce">
</g>
<g id="Reserved_1">
</g>
<g id="Reserved_2">
</g>
<g id="Open">
</g>
<g id="Food_Photo">
</g>
<g id="Chef">
</g>
<g id="Bill">
</g>
<g id="Bill_2">
</g>
<g id="Paying_1">
</g>
<g id="Paying_2">
</g>
<g id="Restaurant_Place">
</g>
</svg>
