<?xml version="1.0" encoding="iso-8859-1"?>
<!-- Generator: Adobe Illustrator 19.2.1, SVG Export Plug-In . SVG Version: 6.00 Build 0)  -->
<svg version="1.1" xmlns="http://www.w3.org/2000/svg" xmlns:xlink="http://www.w3.org/1999/xlink" x="0px" y="0px"
	 viewBox="0 0 30 30" style="enable-background:new 0 0 30 30;" xml:space="preserve">
<g id="Armchair_1">
</g>
<g id="Armchair_2">
</g>
<g id="Armchair_3">
</g>
<g id="Armchair_4">
</g>
<g id="Sofa_1">
</g>
<g id="Sofa_2">
</g>
<g id="Sofa_3">
</g>
<g id="Sofa_4">
</g>
<g id="Sofa_5">
</g>
<g id="Sofa_6">
</g>
<g id="Desk_1">
</g>
<g id="Desk_2">
</g>
<g id="Desk_3">
</g>
<g id="Lamp">
</g>
<g id="Bed_1">
</g>
<g id="Bunk_Beds">
</g>
<g id="Bed_2">
</g>
<g id="Bed_3">
</g>
<g id="Bed_4">
</g>
<g id="Bed_5">
</g>
<g id="Table_1">
</g>
<g id="Table_2">
</g>
<g id="Table_3">
	<g id="XMLID_200_">
		<g id="XMLID_206_">
			<g id="XMLID_207_">
				<path d="M4.231,11.231c-0.162,0-0.32-0.078-0.417-0.223l-3-4.5c-1.116-1.704-1.091-3.478,0.063-4.631l1-1
					c1.153-1.154,2.925-1.181,4.627-0.064l4.533,3.523c0.218,0.169,0.257,0.483,0.087,0.701c-0.169,0.219-0.483,0.26-0.702,0.088
					l-4.5-3.5c-1.248-0.814-2.54-0.84-3.339-0.041l-1,1C0.785,3.384,0.81,4.676,1.649,5.957l2.998,4.497
					c0.153,0.229,0.091,0.54-0.139,0.693C4.423,11.204,4.327,11.231,4.231,11.231z"/>
			</g>
			<g id="XMLID_208_">
				<path d="M1.231,6.722c-0.007,0-0.014,0-0.021-0.001C0.941,6.709,0.73,6.498,0.731,6.229c0-0.202,0.107-1.313,2.146-3.352
					c2.03-2.03,3.146-2.145,3.348-2.146c0.002,0,0.004,0,0.005,0c0.274,0,0.497,0.221,0.5,0.495c0.003,0.27-0.209,0.492-0.478,0.504
					C6.205,1.737,5.298,1.87,3.584,3.585C1.826,5.344,1.731,6.244,1.73,6.253C1.708,6.514,1.49,6.722,1.231,6.722z"/>
			</g>
			<g id="XMLID_209_">
				<path d="M3.731,10.231c-0.128,0-0.256-0.049-0.354-0.146c-0.195-0.195-0.195-0.512,0-0.707l5.5-5.5
					c0.195-0.195,0.512-0.195,0.707,0s0.195,0.512,0,0.707l-5.5,5.5C3.987,10.183,3.859,10.231,3.731,10.231z"/>
			</g>
		</g>
		<g id="XMLID_62_">
			<g id="XMLID_68_">
				<path d="M25.769,11.231c-0.095,0-0.191-0.027-0.277-0.084c-0.23-0.153-0.292-0.464-0.139-0.693l3-4.5
					c0.837-1.278,0.862-2.57,0.063-3.369l-1-1c-0.8-0.8-2.092-0.774-3.373,0.064l-4.467,3.477c-0.218,0.172-0.532,0.131-0.702-0.088
					c-0.17-0.218-0.13-0.532,0.087-0.701l4.5-3.5c1.733-1.138,3.507-1.112,4.661,0.041l1,1c1.154,1.153,1.179,2.927,0.065,4.628
					l-3.002,4.503C26.089,11.153,25.93,11.231,25.769,11.231z"/>
			</g>
			<g id="XMLID_64_">
				<path d="M28.769,6.731c-0.275,0-0.499-0.223-0.5-0.498l0,0c-0.001,0-0.105-0.901-1.854-2.648
					c-1.754-1.755-2.662-1.854-2.671-1.854c-0.268-0.023-0.478-0.255-0.465-0.523c0.013-0.268,0.222-0.484,0.495-0.476
					c0.203,0.002,1.318,0.116,3.348,2.146c2.039,2.038,2.146,3.149,2.146,3.352c0.001,0.276-0.222,0.501-0.499,0.502
					C28.77,6.731,28.77,6.731,28.769,6.731z"/>
			</g>
			<g id="XMLID_63_">
				<path d="M26.269,10.231c-0.128,0-0.256-0.049-0.354-0.146l-5.5-5.5c-0.195-0.195-0.195-0.512,0-0.707s0.512-0.195,0.707,0
					l5.5,5.5c0.195,0.195,0.195,0.512,0,0.707C26.525,10.183,26.397,10.231,26.269,10.231z"/>
			</g>
		</g>
		<g id="XMLID_79_">
			<g id="XMLID_82_">
				<path d="M25.769,11.231c-0.095,0-0.191-0.027-0.277-0.084c-0.23-0.153-0.292-0.464-0.139-0.693l3-4.5
					c0.837-1.278,0.862-2.57,0.063-3.369l-1-1c-0.8-0.8-2.092-0.774-3.373,0.064l-4.467,3.477c-0.218,0.172-0.532,0.131-0.702-0.088
					c-0.17-0.218-0.13-0.532,0.087-0.701l4.5-3.5c1.733-1.138,3.507-1.112,4.661,0.041l1,1c1.154,1.153,1.179,2.927,0.065,4.628
					l-3.002,4.503C26.089,11.153,25.93,11.231,25.769,11.231z"/>
			</g>
			<g id="XMLID_81_">
				<path d="M28.769,6.731c-0.275,0-0.499-0.223-0.5-0.498l0,0c-0.001,0-0.105-0.901-1.854-2.648
					c-1.754-1.755-2.662-1.854-2.671-1.854c-0.268-0.023-0.478-0.255-0.465-0.523c0.013-0.268,0.222-0.484,0.495-0.476
					c0.203,0.002,1.318,0.116,3.348,2.146c2.039,2.038,2.146,3.149,2.146,3.352c0.001,0.276-0.222,0.501-0.499,0.502
					C28.77,6.731,28.77,6.731,28.769,6.731z"/>
			</g>
			<g id="XMLID_80_">
				<path d="M26.269,10.231c-0.128,0-0.256-0.049-0.354-0.146l-5.5-5.5c-0.195-0.195-0.195-0.512,0-0.707s0.512-0.195,0.707,0
					l5.5,5.5c0.195,0.195,0.195,0.512,0,0.707C26.525,10.183,26.397,10.231,26.269,10.231z"/>
			</g>
		</g>
		<g id="XMLID_69_">
			<g id="XMLID_72_">
				<path d="M4.231,11.231c-0.162,0-0.32-0.078-0.417-0.223l-3-4.5c-1.116-1.704-1.091-3.478,0.063-4.631l1-1
					c1.153-1.154,2.925-1.181,4.627-0.064l4.533,3.523c0.218,0.169,0.257,0.483,0.087,0.701c-0.169,0.219-0.483,0.26-0.702,0.088
					l-4.5-3.5c-1.248-0.814-2.54-0.84-3.339-0.041l-1,1C0.785,3.384,0.81,4.676,1.649,5.957l2.998,4.497
					c0.153,0.229,0.091,0.54-0.139,0.693C4.423,11.204,4.327,11.231,4.231,11.231z"/>
			</g>
			<g id="XMLID_71_">
				<path d="M1.231,6.722c-0.007,0-0.014,0-0.021-0.001C0.941,6.709,0.73,6.498,0.731,6.229c0-0.202,0.107-1.313,2.146-3.352
					c2.03-2.03,3.146-2.145,3.348-2.146c0.002,0,0.004,0,0.005,0c0.274,0,0.497,0.221,0.5,0.495c0.003,0.27-0.209,0.492-0.478,0.504
					C6.205,1.737,5.298,1.87,3.584,3.585C1.826,5.344,1.731,6.244,1.73,6.253C1.708,6.514,1.49,6.722,1.231,6.722z"/>
			</g>
			<g id="XMLID_70_">
				<path d="M3.731,10.231c-0.128,0-0.256-0.049-0.354-0.146c-0.195-0.195-0.195-0.512,0-0.707l5.5-5.5
					c0.195-0.195,0.512-0.195,0.707,0s0.195,0.512,0,0.707l-5.5,5.5C3.987,10.183,3.859,10.231,3.731,10.231z"/>
			</g>
		</g>
		<g id="XMLID_98_">
			<g id="XMLID_105_">
				<path d="M25.966,30.006c-0.787,0-1.638-0.272-2.471-0.819l-4.533-3.523c-0.218-0.169-0.257-0.483-0.087-0.701
					c0.17-0.217,0.483-0.258,0.702-0.088l4.5,3.5c1.248,0.815,2.541,0.842,3.339,0.041l1-1c0.799-0.799,0.774-2.091-0.065-3.372
					l-2.998-4.497c-0.153-0.229-0.091-0.54,0.139-0.693c0.23-0.153,0.54-0.091,0.693,0.139l3,4.5
					c1.116,1.704,1.091,3.478-0.063,4.631l-1,1C27.534,29.711,26.785,30.006,25.966,30.006z"/>
			</g>
			<g id="XMLID_104_">
				<path d="M23.769,29.269c-0.274,0-0.497-0.221-0.5-0.495c-0.003-0.27,0.209-0.492,0.478-0.504
					c0.049-0.007,0.955-0.14,2.669-1.854c1.759-1.759,1.854-2.659,1.854-2.668c0.022-0.269,0.248-0.518,0.521-0.468
					c0.268,0.012,0.479,0.223,0.479,0.491c0,0.202-0.107,1.313-2.146,3.352c-2.03,2.03-3.146,2.145-3.348,2.146
					C23.772,29.269,23.771,29.269,23.769,29.269z"/>
			</g>
			<g id="XMLID_99_">
				<path d="M20.769,26.269c-0.128,0-0.256-0.049-0.354-0.146c-0.195-0.195-0.195-0.512,0-0.707l5.5-5.5
					c0.195-0.195,0.512-0.195,0.707,0s0.195,0.512,0,0.707l-5.5,5.5C21.025,26.22,20.897,26.269,20.769,26.269z"/>
			</g>
		</g>
		<g id="XMLID_83_">
			<g id="XMLID_97_">
				<path d="M4.025,30.002c-0.818,0-1.563-0.295-2.147-0.88l-1-1c-1.154-1.153-1.179-2.927-0.065-4.628l3.002-4.503
					c0.153-0.229,0.462-0.292,0.693-0.139c0.23,0.153,0.292,0.464,0.139,0.693l-3,4.5c-0.837,1.278-0.862,2.57-0.063,3.369l1,1
					c0.799,0.799,2.091,0.774,3.373-0.064l4.467-3.477c0.219-0.17,0.532-0.129,0.702,0.088c0.17,0.218,0.13,0.532-0.087,0.701
					l-4.5,3.5C5.684,29.724,4.82,30.002,4.025,30.002z"/>
			</g>
			<g id="XMLID_96_">
				<path d="M6.231,29.269c-0.002,0-0.003,0-0.005,0c-0.203-0.002-1.318-0.116-3.348-2.146c-2.039-2.038-2.146-3.149-2.146-3.352
					c-0.001-0.276,0.222-0.501,0.499-0.502c0,0,0.001,0,0.001,0c0.275,0,0.499,0.223,0.5,0.498l0,0c0.001,0,0.105,0.901,1.854,2.648
					c1.754,1.755,2.662,1.854,2.671,1.854c0.268,0.023,0.478,0.255,0.465,0.523C6.708,29.059,6.497,29.269,6.231,29.269z"/>
			</g>
			<g id="XMLID_95_">
				<path d="M9.231,26.269c-0.128,0-0.256-0.049-0.354-0.146l-5.5-5.5c-0.195-0.195-0.195-0.512,0-0.707s0.512-0.195,0.707,0
					l5.5,5.5c0.195,0.195,0.195,0.512,0,0.707C9.487,26.22,9.359,26.269,9.231,26.269z"/>
			</g>
		</g>
		<g>
			<path d="M15,24c-4.962,0-9-4.037-9-9s4.038-9,9-9s9,4.037,9,9S19.962,24,15,24z M15,7c-4.411,0-8,3.589-8,8s3.589,8,8,8
				s8-3.589,8-8S19.411,7,15,7z"/>
		</g>
	</g>
</g>
<g id="Table_4">
</g>
<g id="Rug_1">
</g>
<g id="Rug_2">
</g>
<g id="Rug_3">
</g>
<g id="Tub_1">
</g>
<g id="Tub_2">
</g>
<g id="Jacuzzi">
</g>
<g id="Corner_Tub">
</g>
<g id="Shower_Tray">
</g>
<g id="Sink_1">
</g>
<g id="Sink_2">
</g>
<g id="Toilette">
</g>
<g id="Stove">
</g>
<g id="Kitchen_Sink">
</g>
<g id="Island">
</g>
<g id="Eat-in_Kitchen">
</g>
<g id="Tv_Stand">
</g>
</svg>
