<?xml version="1.0" encoding="iso-8859-1"?>
<!-- Generator: Adobe Illustrator 19.2.1, SVG Export Plug-In . SVG Version: 6.00 Build 0)  -->
<svg version="1.1" xmlns="http://www.w3.org/2000/svg" xmlns:xlink="http://www.w3.org/1999/xlink" x="0px" y="0px"
	 viewBox="0 0 30 30" style="enable-background:new 0 0 30 30;" xml:space="preserve">
<g id="Armchair_1">
</g>
<g id="Armchair_2">
</g>
<g id="Armchair_3">
</g>
<g id="Armchair_4">
</g>
<g id="Sofa_1">
</g>
<g id="Sofa_2">
</g>
<g id="Sofa_3">
</g>
<g id="Sofa_4">
</g>
<g id="Sofa_5">
</g>
<g id="Sofa_6">
</g>
<g id="Desk_1">
</g>
<g id="Desk_2">
</g>
<g id="Desk_3">
</g>
<g id="Lamp">
</g>
<g id="Bed_1">
</g>
<g id="Bunk_Beds">
</g>
<g id="Bed_2">
</g>
<g id="Bed_3">
</g>
<g id="Bed_4">
</g>
<g id="Bed_5">
</g>
<g id="Table_1">
</g>
<g id="Table_2">
	<g>
		<path d="M29.644,12.521L27.907,12H28.5c0.276,0,0.5-0.224,0.5-0.5S28.776,11,28.5,11h-4c-0.009,0-0.017,0.005-0.026,0.005
			c-0.036,0.002-0.069,0.011-0.104,0.021c-0.029,0.008-0.058,0.013-0.084,0.026c-0.029,0.014-0.054,0.034-0.08,0.054
			c-0.025,0.019-0.051,0.036-0.072,0.059c-0.02,0.022-0.035,0.049-0.051,0.075c-0.018,0.03-0.037,0.058-0.049,0.091
			c-0.003,0.009-0.01,0.015-0.013,0.024c-0.007,0.024-0.003,0.048-0.007,0.073C24.011,11.453,24,11.475,24,11.5
			c0,0.009,0.005,0.017,0.005,0.026c0.002,0.035,0.011,0.067,0.02,0.101c0.008,0.03,0.014,0.06,0.027,0.088
			c0.014,0.028,0.033,0.051,0.051,0.076c0.02,0.027,0.037,0.053,0.062,0.076c0.022,0.02,0.048,0.034,0.073,0.049
			c0.03,0.019,0.059,0.037,0.093,0.05c0.009,0.003,0.015,0.01,0.024,0.013L25,12.172v5.656l-0.644,0.193
			c-0.009,0.003-0.015,0.01-0.024,0.013c-0.034,0.012-0.063,0.031-0.093,0.05c-0.026,0.016-0.052,0.03-0.073,0.049
			c-0.024,0.022-0.042,0.049-0.062,0.076c-0.018,0.025-0.038,0.048-0.051,0.076c-0.013,0.028-0.019,0.058-0.027,0.088
			c-0.009,0.034-0.018,0.066-0.02,0.101c0,0.009-0.005,0.017-0.005,0.026c0,0.025,0.011,0.047,0.014,0.071
			c0.003,0.024-0.001,0.048,0.007,0.073c0.002,0.007,0.009,0.009,0.011,0.016c0.031,0.09,0.085,0.165,0.158,0.224
			c0.015,0.012,0.029,0.02,0.045,0.03C24.313,18.963,24.4,19,24.5,19h4c0.276,0,0.5-0.224,0.5-0.5S28.776,18,28.5,18h-0.593
			l1.737-0.521C29.855,17.416,30,17.221,30,17v-4C30,12.779,29.855,12.584,29.644,12.521z M29,16.628l-3,0.9v-5.056l3,0.9V16.628z"
			/>
		<path d="M5.766,18.913c0.016-0.01,0.03-0.018,0.045-0.03c0.072-0.059,0.127-0.134,0.158-0.224
			c0.002-0.006,0.009-0.009,0.011-0.016c0.007-0.024,0.003-0.048,0.007-0.073C5.989,18.547,6,18.525,6,18.5
			c0-0.009-0.005-0.017-0.005-0.026c-0.002-0.035-0.011-0.067-0.02-0.101c-0.008-0.03-0.014-0.06-0.027-0.088
			c-0.014-0.028-0.033-0.051-0.051-0.076c-0.02-0.027-0.037-0.053-0.062-0.076c-0.022-0.02-0.048-0.034-0.073-0.049
			c-0.03-0.019-0.059-0.037-0.093-0.05c-0.009-0.003-0.015-0.01-0.024-0.013L5,17.828v-5.656l0.644-0.193
			c0.009-0.003,0.015-0.01,0.024-0.013c0.034-0.012,0.063-0.031,0.093-0.05c0.026-0.016,0.052-0.03,0.073-0.049
			c0.024-0.022,0.042-0.049,0.062-0.076c0.018-0.025,0.038-0.048,0.051-0.076c0.013-0.028,0.019-0.058,0.027-0.088
			c0.009-0.034,0.018-0.066,0.02-0.101C5.995,11.517,6,11.509,6,11.5c0-0.025-0.011-0.047-0.014-0.071
			c-0.003-0.024,0.001-0.048-0.007-0.073c-0.003-0.009-0.01-0.015-0.013-0.024c-0.012-0.034-0.031-0.062-0.049-0.092
			c-0.016-0.026-0.03-0.052-0.05-0.075c-0.021-0.024-0.047-0.041-0.073-0.06c-0.026-0.019-0.05-0.04-0.08-0.054
			c-0.026-0.013-0.055-0.018-0.084-0.026c-0.034-0.01-0.068-0.019-0.104-0.021C5.517,11.005,5.509,11,5.5,11h-4
			C1.224,11,1,11.224,1,11.5S1.224,12,1.5,12h0.593l-1.737,0.521C0.145,12.584,0,12.779,0,13v4c0,0.221,0.145,0.416,0.356,0.479
			L2.093,18H1.5C1.224,18,1,18.224,1,18.5S1.224,19,1.5,19h4C5.6,19,5.687,18.963,5.766,18.913z M1,13.372l3-0.9v5.056l-3-0.9
			V13.372z"/>
		<path d="M7.005,10.25c0.002,0.003,0.005,0.004,0.007,0.007c0.041,0.068,0.097,0.12,0.163,0.161
			c0.015,0.009,0.029,0.017,0.044,0.024c0.068,0.034,0.14,0.058,0.219,0.058l0.001,0l0,0c0,0,0,0,0,0
			c0.038,0,0.076-0.004,0.114-0.013c0.034-0.008,0.06-0.028,0.091-0.042c0.014-0.007,0.03-0.004,0.044-0.012
			c0.008-0.005,0.013-0.013,0.02-0.018c0.03-0.019,0.053-0.044,0.078-0.069c0.022-0.022,0.044-0.042,0.061-0.067
			c0.018-0.026,0.029-0.056,0.042-0.085c0.013-0.03,0.027-0.057,0.034-0.089c0.007-0.03,0.005-0.06,0.006-0.091
			C7.93,9.981,7.932,9.947,7.926,9.912C7.924,9.903,7.927,9.894,7.925,9.885L7.77,9.231l4.898-2.828l0.489,0.461
			c0.02,0.019,0.044,0.027,0.066,0.041c0.021,0.014,0.039,0.027,0.061,0.038c0.062,0.03,0.127,0.048,0.194,0.051
			C13.486,6.995,13.493,7,13.5,7c0.002,0,0.003-0.001,0.005-0.001c0.077-0.001,0.152-0.023,0.222-0.06
			c0.007-0.004,0.015-0.002,0.022-0.006c0.022-0.013,0.036-0.034,0.056-0.049c0.019-0.015,0.041-0.023,0.058-0.041
			c0.006-0.007,0.008-0.015,0.014-0.022c0.024-0.028,0.039-0.059,0.056-0.09c0.014-0.026,0.03-0.051,0.039-0.079
			c0.01-0.031,0.012-0.063,0.016-0.096c0.003-0.031,0.009-0.061,0.006-0.092c-0.002-0.031-0.012-0.06-0.021-0.091
			c-0.009-0.033-0.017-0.065-0.032-0.096c-0.004-0.008-0.004-0.018-0.009-0.026l-2-3.464c-0.139-0.24-0.445-0.322-0.683-0.183
			c-0.239,0.138-0.321,0.444-0.183,0.683L11.363,3.8l-1.319-1.243c-0.161-0.151-0.401-0.18-0.593-0.069l-3.464,2
			C5.795,4.597,5.699,4.82,5.75,5.035l0.417,1.763L5.871,6.286C5.732,6.047,5.426,5.965,5.188,6.103
			C4.949,6.241,4.867,6.547,5.005,6.786L7.005,10.25z M9.629,3.539l2.279,2.148L7.53,8.214L6.809,5.167L9.629,3.539z"/>
		<path d="M16.012,6.635c0.004,0.033,0.006,0.065,0.016,0.096c0.009,0.028,0.025,0.053,0.039,0.079
			c0.017,0.032,0.033,0.063,0.056,0.09c0.006,0.007,0.008,0.016,0.014,0.022c0.017,0.018,0.039,0.026,0.058,0.042
			C16.214,6.98,16.228,7,16.25,7.013c0.007,0.004,0.015,0.002,0.021,0.006c0.07,0.037,0.145,0.059,0.223,0.06
			c0.002,0,0.003,0.001,0.005,0.001c0.008,0,0.015-0.006,0.023-0.006c0.067-0.003,0.131-0.021,0.193-0.051
			c0.022-0.011,0.041-0.024,0.061-0.038c0.022-0.015,0.046-0.023,0.066-0.041l0.489-0.461l4.898,2.828l-0.155,0.654
			c-0.002,0.009,0.001,0.018-0.001,0.027c-0.006,0.035-0.005,0.068-0.003,0.103c0.001,0.031,0,0.061,0.006,0.091
			c0.007,0.031,0.021,0.059,0.034,0.089c0.013,0.029,0.023,0.059,0.042,0.085c0.017,0.025,0.04,0.045,0.061,0.067
			c0.025,0.025,0.048,0.049,0.078,0.069c0.008,0.005,0.012,0.013,0.02,0.018c0.014,0.008,0.03,0.005,0.044,0.012
			c0.03,0.014,0.057,0.034,0.091,0.042c0.039,0.009,0.076,0.013,0.114,0.013c0,0,0,0,0.001,0l0,0l0.001,0
			c0.078,0,0.151-0.024,0.219-0.058c0.016-0.008,0.03-0.015,0.044-0.024c0.065-0.041,0.122-0.094,0.163-0.161
			c0.002-0.003,0.005-0.004,0.007-0.007l2-3.464c0.138-0.239,0.056-0.545-0.183-0.683s-0.545-0.056-0.683,0.183l-0.296,0.512
			l0.417-1.763c0.051-0.215-0.045-0.438-0.237-0.548l-3.464-2c-0.191-0.11-0.433-0.083-0.593,0.069L18.637,3.88l0.296-0.513
			c0.138-0.239,0.056-0.545-0.183-0.683c-0.239-0.139-0.545-0.057-0.683,0.183l-2,3.464c-0.005,0.008-0.005,0.018-0.009,0.026
			c-0.016,0.031-0.023,0.063-0.032,0.096c-0.008,0.031-0.018,0.06-0.021,0.091C16.003,6.574,16.008,6.604,16.012,6.635z
			 M20.371,3.619l2.82,1.628L22.47,8.295l-4.378-2.528L20.371,3.619z"/>
		<path d="M13.988,23.445c-0.004-0.033-0.006-0.065-0.016-0.096c-0.009-0.028-0.025-0.053-0.039-0.079
			c-0.017-0.032-0.033-0.063-0.056-0.09c-0.006-0.007-0.008-0.016-0.014-0.022c-0.017-0.018-0.039-0.026-0.058-0.041
			c-0.02-0.016-0.034-0.037-0.056-0.05c-0.008-0.005-0.018-0.005-0.026-0.009c-0.031-0.016-0.063-0.023-0.095-0.032
			c-0.031-0.008-0.061-0.019-0.092-0.021c-0.03-0.002-0.059,0.003-0.089,0.006c-0.034,0.004-0.067,0.006-0.1,0.016
			c-0.027,0.009-0.051,0.024-0.076,0.037c-0.033,0.017-0.064,0.034-0.093,0.058c-0.007,0.006-0.015,0.008-0.022,0.014l-0.489,0.461
			L7.77,20.769l0.155-0.654c0.002-0.009-0.001-0.018,0.001-0.027c0.006-0.035,0.005-0.068,0.003-0.103
			c-0.001-0.031,0-0.061-0.006-0.091c-0.007-0.031-0.021-0.059-0.034-0.089c-0.013-0.029-0.023-0.059-0.042-0.085
			c-0.017-0.025-0.04-0.045-0.061-0.066c-0.025-0.025-0.048-0.049-0.078-0.069c-0.008-0.005-0.012-0.013-0.02-0.018
			c-0.021-0.012-0.045-0.014-0.068-0.023c-0.023-0.009-0.042-0.025-0.067-0.031c-0.009-0.002-0.018,0.001-0.028-0.001
			c-0.035-0.006-0.069-0.005-0.104-0.003c-0.031,0.001-0.062,0-0.092,0.006c-0.029,0.006-0.055,0.02-0.083,0.031
			c-0.032,0.013-0.064,0.025-0.092,0.045c-0.022,0.015-0.04,0.036-0.06,0.055c-0.027,0.026-0.053,0.052-0.074,0.084
			c-0.005,0.007-0.012,0.011-0.017,0.019l-2,3.464c-0.138,0.239-0.056,0.545,0.183,0.683c0.079,0.045,0.165,0.067,0.25,0.067
			c0.173,0,0.341-0.089,0.434-0.25l0.296-0.512L5.75,24.965c-0.051,0.215,0.045,0.438,0.237,0.548l3.464,2
			c0.078,0.045,0.164,0.067,0.25,0.067c0.125,0,0.248-0.046,0.343-0.136l1.319-1.243l-0.296,0.513
			c-0.138,0.239-0.056,0.545,0.183,0.683c0.079,0.045,0.165,0.067,0.25,0.067c0.173,0,0.341-0.089,0.434-0.25l2-3.464
			c0.005-0.008,0.005-0.018,0.009-0.026c0.016-0.031,0.023-0.063,0.032-0.096c0.008-0.031,0.018-0.06,0.021-0.091
			C13.997,23.506,13.992,23.476,13.988,23.445z M9.629,26.461l-2.82-1.628l0.721-3.047l4.378,2.528L9.629,26.461z"/>
		<path d="M22.995,19.75c-0.005-0.008-0.013-0.012-0.017-0.02c-0.02-0.031-0.045-0.055-0.071-0.08
			c-0.021-0.021-0.04-0.043-0.064-0.059c-0.027-0.019-0.058-0.03-0.088-0.043c-0.029-0.012-0.056-0.026-0.086-0.033
			c-0.03-0.007-0.06-0.005-0.091-0.006c-0.035-0.001-0.069-0.003-0.104,0.003c-0.009,0.002-0.018-0.001-0.027,0.001
			c-0.025,0.006-0.044,0.021-0.066,0.031c-0.023,0.009-0.047,0.01-0.068,0.023c-0.008,0.005-0.012,0.013-0.02,0.018
			c-0.03,0.02-0.054,0.044-0.078,0.069c-0.022,0.022-0.044,0.041-0.061,0.066c-0.018,0.026-0.029,0.056-0.042,0.085
			c-0.013,0.03-0.027,0.057-0.034,0.089c-0.007,0.03-0.005,0.06-0.006,0.091c-0.001,0.035-0.003,0.068,0.003,0.103
			c0.002,0.009-0.001,0.018,0.001,0.027l0.155,0.654l-4.898,2.828l-0.489-0.461c-0.007-0.006-0.015-0.008-0.022-0.014
			c-0.028-0.024-0.059-0.04-0.091-0.057c-0.026-0.014-0.051-0.029-0.078-0.038c-0.032-0.01-0.065-0.012-0.098-0.016
			c-0.03-0.003-0.059-0.008-0.089-0.006c-0.032,0.002-0.062,0.012-0.093,0.021c-0.032,0.009-0.064,0.016-0.094,0.032
			c-0.008,0.004-0.018,0.004-0.026,0.009c-0.023,0.013-0.036,0.034-0.056,0.049c-0.019,0.015-0.041,0.023-0.058,0.041
			c-0.006,0.007-0.008,0.015-0.014,0.022c-0.024,0.028-0.039,0.059-0.056,0.09c-0.014,0.026-0.03,0.051-0.039,0.079
			c-0.01,0.031-0.012,0.063-0.016,0.096c-0.003,0.031-0.009,0.061-0.006,0.092c0.002,0.031,0.012,0.06,0.021,0.091
			c0.009,0.033,0.017,0.065,0.032,0.096c0.004,0.008,0.004,0.018,0.009,0.026l2,3.464c0.093,0.161,0.261,0.25,0.434,0.25
			c0.085,0,0.171-0.021,0.25-0.067c0.239-0.138,0.321-0.444,0.183-0.683L18.637,26.2l1.319,1.243
			c0.095,0.09,0.218,0.136,0.343,0.136c0.086,0,0.172-0.022,0.25-0.067l3.464-2c0.191-0.11,0.288-0.333,0.237-0.548l-0.417-1.763
			l0.296,0.512c0.093,0.161,0.261,0.25,0.434,0.25c0.085,0,0.171-0.021,0.25-0.067c0.239-0.138,0.321-0.444,0.183-0.683
			L22.995,19.75z M20.371,26.461l-2.279-2.148l4.378-2.528l0.721,3.047L20.371,26.461z"/>
		<path d="M24,15c0-3.729-4.206-7-9-7s-9,3.271-9,7s4.206,7,9,7S24,18.729,24,15z"/>
	</g>
</g>
<g id="Table_3">
</g>
<g id="Table_4">
</g>
<g id="Rug_1">
</g>
<g id="Rug_2">
</g>
<g id="Rug_3">
</g>
<g id="Tub_1">
</g>
<g id="Tub_2">
</g>
<g id="Jacuzzi">
</g>
<g id="Corner_Tub">
</g>
<g id="Shower_Tray">
</g>
<g id="Sink_1">
</g>
<g id="Sink_2">
</g>
<g id="Toilette">
</g>
<g id="Stove">
</g>
<g id="Kitchen_Sink">
</g>
<g id="Island">
</g>
<g id="Eat-in_Kitchen">
</g>
<g id="Tv_Stand">
</g>
</svg>
