<?xml version="1.0" encoding="iso-8859-1"?>
<!-- Generator: Adobe Illustrator 19.2.1, SVG Export Plug-In . SVG Version: 6.00 Build 0)  -->
<svg version="1.1" xmlns="http://www.w3.org/2000/svg" xmlns:xlink="http://www.w3.org/1999/xlink" x="0px" y="0px"
	 viewBox="0 0 30 30" style="enable-background:new 0 0 30 30;" xml:space="preserve">
<g id="Armchair_1">
</g>
<g id="Armchair_2">
</g>
<g id="Armchair_3">
</g>
<g id="Armchair_4">
</g>
<g id="Sofa_1">
</g>
<g id="Sofa_2">
</g>
<g id="Sofa_3">
</g>
<g id="Sofa_4">
</g>
<g id="Sofa_5">
</g>
<g id="Sofa_6">
</g>
<g id="Desk_1">
</g>
<g id="Desk_2">
</g>
<g id="Desk_3">
</g>
<g id="Lamp">
</g>
<g id="Bed_1">
</g>
<g id="Bunk_Beds">
</g>
<g id="Bed_2">
</g>
<g id="Bed_3">
</g>
<g id="Bed_4">
</g>
<g id="Bed_5">
</g>
<g id="Table_1">
</g>
<g id="Table_2">
</g>
<g id="Table_3">
</g>
<g id="Table_4">
	<g id="XMLID_394_">
		<g id="XMLID_399_">
			<path d="M20.5,22h-12C7.673,22,7,21.327,7,20.5v-12C7,7.673,7.673,7,8.5,7h12C21.327,7,22,7.673,22,8.5v12
				C22,21.327,21.327,22,20.5,22z M8.5,8C8.224,8,8,8.225,8,8.5v12C8,20.775,8.224,21,8.5,21h12c0.276,0,0.5-0.225,0.5-0.5v-12
				C21,8.225,20.776,8,20.5,8H8.5z"/>
		</g>
		<g id="XMLID_398_">
			<path d="M3,17.5c-1.654,0-3-1.346-3-3s1.346-3,3-3s3,1.346,3,3S4.654,17.5,3,17.5z M3,12.5c-1.103,0-2,0.897-2,2s0.897,2,2,2
				s2-0.897,2-2S4.103,12.5,3,12.5z"/>
		</g>
		<g id="XMLID_397_">
			<path d="M26,17.5c-1.654,0-3-1.346-3-3s1.346-3,3-3s3,1.346,3,3S27.654,17.5,26,17.5z M26,12.5c-1.103,0-2,0.897-2,2s0.897,2,2,2
				s2-0.897,2-2S27.103,12.5,26,12.5z"/>
		</g>
		<g id="XMLID_396_">
			<path d="M14.5,6c-1.654,0-3-1.346-3-3s1.346-3,3-3s3,1.346,3,3S16.154,6,14.5,6z M14.5,1c-1.103,0-2,0.897-2,2s0.897,2,2,2
				s2-0.897,2-2S15.603,1,14.5,1z"/>
		</g>
		<g id="XMLID_395_">
			<path d="M14.5,29c-1.654,0-3-1.346-3-3s1.346-3,3-3s3,1.346,3,3S16.154,29,14.5,29z M14.5,24c-1.103,0-2,0.897-2,2s0.897,2,2,2
				s2-0.897,2-2S15.603,24,14.5,24z"/>
		</g>
	</g>
</g>
<g id="Rug_1">
</g>
<g id="Rug_2">
</g>
<g id="Rug_3">
</g>
<g id="Tub_1">
</g>
<g id="Tub_2">
</g>
<g id="Jacuzzi">
</g>
<g id="Corner_Tub">
</g>
<g id="Shower_Tray">
</g>
<g id="Sink_1">
</g>
<g id="Sink_2">
</g>
<g id="Toilette">
</g>
<g id="Stove">
</g>
<g id="Kitchen_Sink">
</g>
<g id="Island">
</g>
<g id="Eat-in_Kitchen">
</g>
<g id="Tv_Stand">
</g>
</svg>
