<?xml version="1.0" encoding="iso-8859-1"?>
<!-- Generator: Adobe Illustrator 19.2.1, SVG Export Plug-In . SVG Version: 6.00 Build 0)  -->
<svg version="1.1" xmlns="http://www.w3.org/2000/svg" xmlns:xlink="http://www.w3.org/1999/xlink" x="0px" y="0px"
	 viewBox="0 0 30 30" style="enable-background:new 0 0 30 30;" xml:space="preserve">
<g id="Cad_1">
</g>
<g id="Cad_2">
</g>
<g id="Cad_Pencil">
</g>
<g id="Cad_Compasses">
</g>
<g id="Tools_1">
</g>
<g id="Tools_2">
</g>
<g id="Ruler_1">
</g>
<g id="Ruler_2">
</g>
<g id="Workspace_1">
</g>
<g id="Workspace_2">
</g>
<g id="Cad_3">
</g>
<g id="_x33_D_Box">
</g>
<g id="Section_Symbol">
</g>
<g id="Outlet_Symbol">
</g>
<g id="Cad_File">
</g>
<g id="Blueprint">
</g>
<g id="Construction_Plan">
</g>
<g id="Roof_Plan">
</g>
<g id="House_Construction">
</g>
<g id="Building_Construction">
</g>
<g id="Work_Table">
</g>
<g id="Table_Cad">
	<path d="M28.974,15.342l-5-15C23.906,0.138,23.715,0,23.5,0h-18C5.285,0,5.094,0.138,5.026,0.342l-5,15
		c-0.051,0.152-0.025,0.32,0.068,0.451C0.189,15.923,0.339,16,0.5,16H6v13.5C6,29.776,6.224,30,6.5,30S7,29.776,7,29.5V24h15v5.5
		c0,0.276,0.224,0.5,0.5,0.5s0.5-0.224,0.5-0.5V16h5.5c0.161,0,0.312-0.077,0.406-0.208C29,15.662,29.025,15.494,28.974,15.342z
		 M7.015,12.379l0.5-2c0.066-0.269,0.336-0.434,0.606-0.364c0.268,0.067,0.431,0.338,0.364,0.606L8.141,12H14v-1.5
		c0-0.276,0.224-0.5,0.5-0.5s0.5,0.224,0.5,0.5V12h6.32l-0.938-3H18.5C18.224,9,18,8.776,18,8.5S18.224,8,18.5,8h1.57l-0.938-3H15v3
		h0.5C15.776,8,16,8.224,16,8.5S15.776,9,15.5,9h-2C13.224,9,13,8.776,13,8.5S13.224,8,13.5,8H14V5H9.891L9.14,8h1.36
		C10.776,8,11,8.224,11,8.5S10.776,9,10.5,9h-2C8.478,9,8.458,8.99,8.437,8.987C8.417,8.985,8.398,8.99,8.379,8.985
		C8.366,8.982,8.357,8.973,8.345,8.969C8.311,8.957,8.281,8.942,8.251,8.924c-0.026-0.016-0.052-0.03-0.074-0.05
		C8.151,8.852,8.132,8.828,8.111,8.802C8.092,8.777,8.074,8.753,8.059,8.725C8.045,8.697,8.037,8.668,8.028,8.637
		c-0.01-0.033-0.017-0.064-0.02-0.099C8.007,8.525,8,8.514,8,8.5c0-0.022,0.01-0.04,0.012-0.061c0.003-0.02-0.002-0.04,0.003-0.06
		l1-4C9.071,4.156,9.271,4,9.5,4h10c0.219,0,0.412,0.142,0.477,0.351l2.5,8c0.048,0.151,0.02,0.317-0.074,0.445
		C22.309,12.924,22.159,13,22,13H7.5c-0.154,0-0.299-0.071-0.394-0.192C7.011,12.687,6.978,12.528,7.015,12.379z M22,23H7v-7h15V23z
		"/>
</g>
<g id="House_Plan">
</g>
<g id="Tape_Measure">
</g>
<g id="Cad_Paper">
</g>
<g id="Cad_Papers">
</g>
<g id="Stairs">
</g>
<g id="Pillar">
</g>
<g id="Bricks">
</g>
<g id="Pantheon">
</g>
<g id="House">
</g>
<g id="Skyscraper">
</g>
<g id="Building">
</g>
</svg>
