<?xml version="1.0" encoding="iso-8859-1"?>
<!-- Generator: Adobe Illustrator 19.2.1, SVG Export Plug-In . SVG Version: 6.00 Build 0)  -->
<svg version="1.1" xmlns="http://www.w3.org/2000/svg" xmlns:xlink="http://www.w3.org/1999/xlink" x="0px" y="0px"
	 viewBox="0 0 24 24" style="enable-background:new 0 0 24 24;" xml:space="preserve">
<g id="Sun_Light">
</g>
<g id="Sunglasses">
</g>
<g id="T-Shirt_1">
</g>
<g id="T-Shirt_2">
</g>
<g id="Mini_Dress">
</g>
<g id="Flip-Flops">
</g>
<g id="Temperature">
	<g>
		<path d="M13.254,15.483C13.095,15.392,13,15.231,13,15.055V3.5C13,2.673,12.327,2,11.5,2S10,2.673,10,3.5v11.556
			c0,0.175-0.091,0.335-0.237,0.418c-1.322,0.756-1.988,2.216-1.695,3.721c0.269,1.389,1.386,2.492,2.779,2.746
			c0.216,0.039,0.432,0.059,0.647,0.059c0.82,0,1.614-0.282,2.248-0.811C14.541,20.521,15,19.541,15,18.5
			C15,17.264,14.331,16.107,13.254,15.483z M12,9h-1V3.5C11,3.224,11.224,3,11.5,3S12,3.224,12,3.5V9z"/>
		<path d="M11.5,0C8.467,0,6,2.467,6,5.5v13c0,3.032,2.467,5.5,5.5,5.5c3.032,0,5.5-2.468,5.5-5.5v-13C17,2.467,14.532,0,11.5,0z
			 M11.5,23C9.019,23,7,20.981,7,18.5v-13C7,3.019,9.019,1,11.5,1c2.31,0,4.197,1.756,4.449,4H14.5C14.224,5,14,5.224,14,5.5
			S14.224,6,14.5,6H16v3h-1.5C14.224,9,14,9.224,14,9.5s0.224,0.5,0.5,0.5H16v3h-1.5c-0.276,0-0.5,0.224-0.5,0.5s0.224,0.5,0.5,0.5
			H16v4.5C16,20.981,13.981,23,11.5,23z"/>
	</g>
</g>
<g id="Hot_Temperature">
</g>
<g id="Ice_Lolly">
</g>
<g id="Icecream">
</g>
<g id="Limonade_1">
</g>
<g id="Limonade_2">
</g>
<g id="Hat">
</g>
<g id="Straw_Hat">
</g>
<g id="Deckchair">
</g>
<g id="Sunshade">
</g>
<g id="Suncream">
</g>
<g id="Suntan_Oil">
</g>
<g id="Swimming_Trunks">
</g>
<g id="Bikini">
</g>
<g id="Pool">
</g>
<g id="Pool_Ladder">
</g>
<g id="Grill">
</g>
<g id="Kite_1">
</g>
<g id="Kite_2">
</g>
<g id="Badminton">
</g>
<g id="Cooler">
</g>
<g id="Strand_Bag">
</g>
<g id="Towel">
</g>
<g id="Strand_Ball">
</g>
<g id="Beach_Sign">
</g>
<g id="Toos">
</g>
<g id="Bucket">
</g>
<g id="Sand_Castle">
</g>
<g id="Shell_1">
</g>
<g id="Shell_2">
</g>
<g id="Surf_Board">
</g>
<g id="Float">
</g>
<g id="Vacation_Photo">
</g>
<g id="Summer_Time">
</g>
<g id="Boat">
</g>
<g id="Lifebuoy">
</g>
<g id="Lighthouse">
</g>
<g id="Sunset">
</g>
<g id="Dolphin">
</g>
<g id="Starfish">
</g>
<g id="Diving_Mask">
</g>
<g id="Sailboat">
</g>
<g id="Captin_Hat">
</g>
<g id="Eudder">
</g>
</svg>
