<?xml version="1.0" encoding="iso-8859-1"?>
<!-- Generator: Adobe Illustrator 19.2.1, SVG Export Plug-In . SVG Version: 6.00 Build 0)  -->
<svg version="1.1" xmlns="http://www.w3.org/2000/svg" xmlns:xlink="http://www.w3.org/1999/xlink" x="0px" y="0px"
	 viewBox="0 0 30 30" style="enable-background:new 0 0 30 30;" xml:space="preserve">
<g id="Sun_Light">
</g>
<g id="Sunglasses">
</g>
<g id="T-Shirt_1">
</g>
<g id="T-Shirt_2">
</g>
<g id="Mini_Dress">
</g>
<g id="Flip-Flops">
</g>
<g id="Temperature">
	<g>
		<path d="M17.448,19.684C17.447,19.684,17.447,19.684,17.448,19.684C17.213,19.521,17,19.137,17,18.879V4.996
			C17,3.895,16.103,3,15,3c-1.103,0-2,0.897-2,2v13.853c0,0.274-0.15,0.527-0.402,0.677c-1.558,0.923-2.347,2.685-2.01,4.486
			c0.298,1.592,1.544,2.927,3.101,3.322c0.371,0.095,0.745,0.141,1.116,0.141c0.978,0,1.931-0.322,2.723-0.938
			c1.059-0.824,1.666-2.043,1.666-3.346C19.193,21.736,18.558,20.456,17.448,19.684z M14,5c0-0.551,0.449-1,1-1s1,0.447,1,0.996V11
			h-2V5z"/>
		<path d="M22,6.5c0-0.06-0.015-0.115-0.034-0.168C21.629,2.785,18.634,0,15,0c-3.86,0-7,3.14-7,7v16c0,3.859,3.14,7,7,7
			c3.859,0,7-3.141,7-7V7c0-0.135-0.013-0.267-0.02-0.4C21.987,6.567,22,6.536,22,6.5z M21,11h-1.5c-0.276,0-0.5,0.224-0.5,0.5
			s0.224,0.5,0.5,0.5H21v4h-1.5c-0.276,0-0.5,0.224-0.5,0.5s0.224,0.5,0.5,0.5H21v6c0,3.309-2.691,6-6,6s-6-2.691-6-6V7
			c0-3.309,2.691-6,6-6c2.967,0,5.431,2.167,5.91,5H19.5C19.224,6,19,6.224,19,6.5S19.224,7,19.5,7H21V11z"/>
	</g>
</g>
<g id="Hot_Temperature">
</g>
<g id="Ice_Lolly">
</g>
<g id="Icecream">
</g>
<g id="Limonade_1">
</g>
<g id="Limonade_2">
</g>
<g id="Hat">
</g>
<g id="Straw_Hat">
</g>
<g id="Deckchair">
</g>
<g id="Sunshade">
</g>
<g id="Suncream">
</g>
<g id="Suntan_Oil">
</g>
<g id="Swimming_Trunks">
</g>
<g id="Bikini">
</g>
<g id="Pool">
</g>
<g id="Pool_Ladder">
</g>
<g id="Grill">
</g>
<g id="Kite_1">
</g>
<g id="Kite_2">
</g>
<g id="Badminton">
</g>
<g id="Cooler">
</g>
<g id="Strand_Bag">
</g>
<g id="Towel">
</g>
<g id="Strand_Ball">
</g>
<g id="Beach_Sign">
</g>
<g id="Toos">
</g>
<g id="Bucket">
</g>
<g id="Sand_Castle">
</g>
<g id="Shell_1">
</g>
<g id="Shell_2">
</g>
<g id="Surf_Board">
</g>
<g id="Float">
</g>
<g id="Vacation_Photo">
</g>
<g id="Summer_Time">
</g>
<g id="Boat">
</g>
<g id="Lifebuoy">
</g>
<g id="Lighthouse">
</g>
<g id="Sunset">
</g>
<g id="Dolphin">
</g>
<g id="Starfish">
</g>
<g id="Diving_Mask">
</g>
<g id="Sailboat">
</g>
<g id="Captin_Hat">
</g>
<g id="Eudder">
</g>
</svg>
