<?xml version="1.0" encoding="iso-8859-1"?>
<!-- Generator: Adobe Illustrator 19.2.1, SVG Export Plug-In . SVG Version: 6.00 Build 0)  -->
<svg version="1.1" xmlns="http://www.w3.org/2000/svg" xmlns:xlink="http://www.w3.org/1999/xlink" x="0px" y="0px"
	 viewBox="0 0 30 30" style="enable-background:new 0 0 30 30;" xml:space="preserve">
<g id="Snowflake_1">
</g>
<g id="Snowflake_2">
</g>
<g id="Snowflake_3">
</g>
<g id="Snowflake_4">
</g>
<g id="Winter_Cap_1">
</g>
<g id="Winter_Cap_2">
</g>
<g id="Glowes">
</g>
<g id="Sweater_1">
</g>
<g id="Sweater_2">
</g>
<g id="Sweater_3">
</g>
<g id="Scarf">
</g>
<g id="Winter_Socks">
</g>
<g id="Winter_Sock">
</g>
<g id="Winter_Coat">
</g>
<g id="Winter_Calendar">
</g>
<g id="Thermometer_1">
</g>
<g id="Thermometer_2">
	<path d="M17.264,18.443C17.106,18.38,17,18.203,17,18.003V17h1.5c0.276,0,0.5-0.224,0.5-0.5S18.776,16,18.5,16H17v-5h1.5
		c0.276,0,0.5-0.224,0.5-0.5S18.776,10,18.5,10H17V5h1.5C18.776,5,19,4.776,19,4.5S18.776,4,18.5,4H17V2c0-1.103-0.897-2-2-2
		c-1.103,0-2,0.897-2,2v16.003c0,0.2-0.106,0.377-0.265,0.441C10.466,19.367,9,21.548,9,24c0,3.309,2.691,6,6,6s6-2.691,6-6
		C21,21.548,19.534,19.367,17.264,18.443z M15,1c0.551,0,1,0.449,1,1v14h-2V2C14,1.449,14.449,1,15,1z"/>
</g>
<g id="Cold">
</g>
<g id="Icicle">
</g>
<g id="Snowing">
</g>
<g id="Snow_Shoes_1">
</g>
<g id="Snow_Shoes_2">
</g>
<g id="Sledge">
</g>
<g id="Snow_Boots">
</g>
<g id="Snowcapped_Mountains">
</g>
<g id="Skis">
</g>
<g id="Sky_Glasses">
</g>
<g id="Snowboard">
</g>
<g id="Ice_Skate">
</g>
<g id="Wooden_House">
</g>
<g id="Snowcapped_House">
</g>
<g id="Hot_Drink">
</g>
<g id="Hot_Chocolate">
</g>
<g id="Lantern">
</g>
<g id="Snow_Shovel">
</g>
<g id="Snowman">
</g>
<g id="Reindeer">
</g>
<g id="Snowmobile">
</g>
<g id="Snow_Chain">
</g>
<g id="Slippery_Road">
</g>
</svg>
