<?xml version="1.0" encoding="iso-8859-1"?>
<!-- Generator: Adobe Illustrator 19.2.1, SVG Export Plug-In . SVG Version: 6.00 Build 0)  -->
<svg version="1.1" xmlns="http://www.w3.org/2000/svg" xmlns:xlink="http://www.w3.org/1999/xlink" x="0px" y="0px"
	 viewBox="0 0 30 30" style="enable-background:new 0 0 30 30;" xml:space="preserve">
<g id="Credit_Card">
</g>
<g id="Banknote">
</g>
<g id="Wallet">
</g>
<g id="Compass">
</g>
<g id="Camera_1">
</g>
<g id="Photo">
</g>
<g id="Picture">
</g>
<g id="Camera_2">
</g>
<g id="No_Camera">
</g>
<g id="Video">
</g>
<g id="Audio">
</g>
<g id="Microphone_1">
</g>
<g id="Microphone_2">
</g>
<g id="No_Microphone">
</g>
<g id="Shopping_Cart">
</g>
<g id="Add_Shopping_Cart">
</g>
<g id="Remove_Shopping_Cart">
</g>
<g id="Shopping_Basket">
</g>
<g id="Jing-Jang">
</g>
<g id="Leaf">
</g>
<g id="Glass">
</g>
<g id="Cup">
</g>
<g id="Mug">
</g>
<g id="Refresh">
</g>
<g id="Login">
</g>
<g id="Logout">
</g>
<g id="Flowchart">
</g>
<g id="Pin_1">
</g>
<g id="Pin_2">
</g>
<g id="User_1">
</g>
<g id="User_2">
</g>
<g id="Users">
</g>
<g id="Adjustments">
</g>
<g id="Type">
</g>
<g id="Format_Size">
</g>
<g id="Menu_1">
</g>
<g id="Other">
</g>
<g id="Flash">
</g>
<g id="No_Flash">
</g>
<g id="Switch_Button_1">
</g>
<g id="Switch_Button_2">
</g>
<g id="Cut">
</g>
<g id="Crop">
</g>
<g id="Sun">
</g>
<g id="USB">
</g>
<g id="Pie_Chart_1">
</g>
<g id="Pie_Chart_2">
</g>
<g id="Line_Chart">
</g>
<g id="Bar_Chart">
</g>
<g id="Target">
</g>
<g id="Flashlight">
</g>
<g id="USB_Device">
</g>
<g id="Eject">
</g>
<g id="Lightbulb">
</g>
<g id="Information">
</g>
<g id="Deactivate_Protection">
</g>
<g id="Active_Protection">
</g>
<g id="Bug">
</g>
<g id="Protection">
</g>
<g id="Phone">
</g>
<g id="List">
</g>
<g id="Plugin_1">
</g>
<g id="Bookmarrk">
</g>
<g id="Handshake">
</g>
<g id="Minimize">
</g>
<g id="Maximize">
</g>
<g id="Diamond">
</g>
<g id="Stop">
</g>
<g id="Shuffle">
</g>
<g id="Undo">
</g>
<g id="Upgrade">
</g>
<g id="Coding">
</g>
<g id="Syncronizaion">
</g>
<g id="Radio">
</g>
<g id="Presentation">
</g>
<g id="Door">
</g>
<g id="Thumbs_Up">
</g>
<g id="Thumbs_Down">
	<g>
		<path d="M16.326,30c-1.295,0-2.143-0.828-2.179-0.863C14.053,29.043,14,28.915,14,28.782v-4.478l-3.643-7.938L10,16.185V16.5
			c0,1.379-1.121,2.5-2.5,2.5h-5C1.121,19,0,17.879,0,16.5v-13C0,2.121,1.121,1,2.5,1h4.305c1.316,0,2.438,0.847,2.853,2.023
			C10.668,2.42,12.159,2,13.108,2h11.453c1.014,0,1.957,0.496,2.463,1.295c0.636,1.009,0.548,2.113,0.1,2.925
			c0.959,0.425,1.615,1.39,1.615,2.498c0,0.471-0.123,0.931-0.35,1.335c0.957,0.423,1.61,1.378,1.61,2.472
			c0,0.774-0.327,1.493-0.884,1.999c0.613,0.657,0.957,1.626,0.871,2.563C29.842,18.666,28.395,20,26.828,20h-7.957
			c0.379,1.078,1.042,3.223,1.042,5C19.913,27.48,17.826,30,16.326,30z M15,28.547C15.229,28.715,15.709,29,16.326,29
			c0.709,0,2.587-1.816,2.587-4c0-2.238-1.213-5.283-1.225-5.313c-0.062-0.154-0.043-0.329,0.05-0.467S17.986,19,18.152,19h8.676
			c1.054,0,2.064-0.937,2.163-2.005c0.074-0.804-0.338-1.698-0.959-2.081c-0.153-0.095-0.244-0.265-0.237-0.445
			c0.008-0.181,0.111-0.343,0.271-0.426C28.643,13.748,29,13.166,29,12.524c0-0.866-0.65-1.594-1.514-1.692
			c-0.193-0.022-0.356-0.154-0.418-0.339c-0.062-0.186-0.01-0.389,0.132-0.522c0.343-0.322,0.539-0.779,0.539-1.253
			c0-0.866-0.665-1.62-1.514-1.717c-0.193-0.022-0.356-0.154-0.418-0.339s-0.01-0.388,0.131-0.521c0.529-0.5,0.781-1.454,0.24-2.312
			C25.855,3.318,25.235,3,24.562,3H13.108c-0.902,0-2.548,0.516-3.293,1.123C9.769,4.351,9.567,4.521,9.326,4.521
			c-0.276,0-0.5-0.224-0.5-0.5C8.826,2.907,7.919,2,6.805,2H2.5C1.673,2,1,2.673,1,3.5v13C1,17.327,1.673,18,2.5,18h5
			C8.327,18,9,17.327,9,16.5v-1.131c0-0.174,0.091-0.335,0.238-0.427c0.149-0.091,0.335-0.099,0.488-0.019l1.239,0.631
			c0.101,0.051,0.181,0.135,0.228,0.236l3.761,8.195C14.984,24.052,15,24.123,15,24.195V28.547z"/>
	</g>
</g>
<g id="Keyboard">
</g>
<g id="_x33_D_Cube">
</g>
<g id="Signal">
</g>
<g id="Dice">
</g>
<g id="Upload">
</g>
<g id="Download">
</g>
<g id="Plugin_2">
</g>
<g id="Shopping_Bag">
</g>
<g id="Lifebelt">
</g>
<g id="Glasses">
</g>
<g id="Parabolic_Antenna">
</g>
<g id="Loudspeaker">
</g>
<g id="Play">
</g>
<g id="Pause">
</g>
<g id="Signpost">
</g>
<g id="Bluetooth">
</g>
<g id="Present">
</g>
<g id="Ruler">
</g>
<g id="Connection">
</g>
<g id="Money">
</g>
<g id="Paper_Plane">
</g>
<g id="Wallet_2">
</g>
</svg>
