<?xml version="1.0" encoding="iso-8859-1"?>
<!-- Generator: Adobe Illustrator 19.2.1, SVG Export Plug-In . SVG Version: 6.00 Build 0)  -->
<svg version="1.1" xmlns="http://www.w3.org/2000/svg" xmlns:xlink="http://www.w3.org/1999/xlink" x="0px" y="0px"
	 viewBox="0 0 30 30" style="enable-background:new 0 0 30 30;" xml:space="preserve">
<g id="Credit_Card">
</g>
<g id="Banknote">
</g>
<g id="Wallet">
</g>
<g id="Compass">
</g>
<g id="Camera_1">
</g>
<g id="Photo">
</g>
<g id="Picture">
</g>
<g id="Camera_2">
</g>
<g id="No_Camera">
</g>
<g id="Video">
</g>
<g id="Audio">
</g>
<g id="Microphone_1">
</g>
<g id="Microphone_2">
</g>
<g id="No_Microphone">
</g>
<g id="Shopping_Cart">
</g>
<g id="Add_Shopping_Cart">
</g>
<g id="Remove_Shopping_Cart">
</g>
<g id="Shopping_Basket">
</g>
<g id="Jing-Jang">
</g>
<g id="Leaf">
</g>
<g id="Glass">
</g>
<g id="Cup">
</g>
<g id="Mug">
</g>
<g id="Refresh">
</g>
<g id="Login">
</g>
<g id="Logout">
</g>
<g id="Flowchart">
</g>
<g id="Pin_1">
</g>
<g id="Pin_2">
</g>
<g id="User_1">
</g>
<g id="User_2">
</g>
<g id="Users">
</g>
<g id="Adjustments">
</g>
<g id="Type">
</g>
<g id="Format_Size">
</g>
<g id="Menu_1">
</g>
<g id="Other">
</g>
<g id="Flash">
</g>
<g id="No_Flash">
</g>
<g id="Switch_Button_1">
</g>
<g id="Switch_Button_2">
</g>
<g id="Cut">
</g>
<g id="Crop">
</g>
<g id="Sun">
</g>
<g id="USB">
</g>
<g id="Pie_Chart_1">
</g>
<g id="Pie_Chart_2">
</g>
<g id="Line_Chart">
</g>
<g id="Bar_Chart">
</g>
<g id="Target">
</g>
<g id="Flashlight">
</g>
<g id="USB_Device">
</g>
<g id="Eject">
</g>
<g id="Lightbulb">
</g>
<g id="Information">
</g>
<g id="Deactivate_Protection">
</g>
<g id="Active_Protection">
</g>
<g id="Bug">
</g>
<g id="Protection">
</g>
<g id="Phone">
</g>
<g id="List">
</g>
<g id="Plugin_1">
</g>
<g id="Bookmarrk">
</g>
<g id="Handshake">
</g>
<g id="Minimize">
</g>
<g id="Maximize">
</g>
<g id="Diamond">
</g>
<g id="Stop">
</g>
<g id="Shuffle">
</g>
<g id="Undo">
</g>
<g id="Upgrade">
</g>
<g id="Coding">
</g>
<g id="Syncronizaion">
</g>
<g id="Radio">
</g>
<g id="Presentation">
</g>
<g id="Door">
</g>
<g id="Thumbs_Up">
	<g>
		<path d="M6.805,30H2.5C1.121,30,0,28.879,0,27.5v-13C0,13.121,1.121,12,2.5,12h5c1.379,0,2.5,1.121,2.5,2.5v0.315l0.357-0.182
			L14,6.695V2.218c0-0.133,0.053-0.261,0.147-0.354C14.184,1.828,15.031,1,16.326,1c1.5,0,3.587,2.52,3.587,5
			c0,1.777-0.663,3.922-1.042,5h7.957c1.566,0,3.014,1.334,3.159,2.913c0.086,0.938-0.258,1.906-0.871,2.563
			C29.673,16.982,30,17.701,30,18.476c0,1.094-0.653,2.049-1.61,2.472c0.227,0.404,0.35,0.864,0.35,1.335
			c0,1.108-0.656,2.073-1.615,2.498c0.448,0.812,0.537,1.916-0.1,2.924C26.519,28.504,25.575,29,24.562,29H13.108
			c-0.949,0-2.44-0.42-3.451-1.023C9.243,29.153,8.121,30,6.805,30z M2.5,13C1.673,13,1,13.673,1,14.5v13C1,28.327,1.673,29,2.5,29
			h4.305c1.114,0,2.021-0.907,2.021-2.021c0-0.276,0.224-0.5,0.5-0.5c0.241,0,0.442,0.171,0.489,0.398
			C10.561,27.484,12.206,28,13.108,28h11.453c0.674,0,1.294-0.318,1.617-0.83c0.541-0.856,0.289-1.811-0.24-2.311
			c-0.141-0.134-0.192-0.337-0.131-0.521s0.225-0.316,0.418-0.339c0.849-0.097,1.514-0.851,1.514-1.717
			c0-0.474-0.196-0.931-0.539-1.253c-0.142-0.134-0.193-0.337-0.132-0.522c0.062-0.185,0.225-0.316,0.418-0.339
			C28.35,20.069,29,19.342,29,18.476c0-0.642-0.357-1.224-0.934-1.519c-0.16-0.083-0.264-0.245-0.271-0.426
			c-0.007-0.181,0.084-0.351,0.237-0.445c0.621-0.383,1.033-1.277,0.959-2.081C28.893,12.937,27.882,12,26.828,12h-8.676
			c-0.166,0-0.321-0.082-0.414-0.22s-0.111-0.313-0.05-0.467C17.7,11.283,18.913,8.238,18.913,6c0-2.184-1.878-4-2.587-4
			C15.71,2,15.23,2.284,15,2.453v4.352c0,0.072-0.016,0.144-0.046,0.209l-3.761,8.195c-0.047,0.102-0.127,0.186-0.228,0.236
			l-1.239,0.631c-0.156,0.08-0.34,0.071-0.488-0.019C9.091,15.966,9,15.805,9,15.631V14.5C9,13.673,8.327,13,7.5,13H2.5z"/>
	</g>
</g>
<g id="Thumbs_Down">
</g>
<g id="Keyboard">
</g>
<g id="_x33_D_Cube">
</g>
<g id="Signal">
</g>
<g id="Dice">
</g>
<g id="Upload">
</g>
<g id="Download">
</g>
<g id="Plugin_2">
</g>
<g id="Shopping_Bag">
</g>
<g id="Lifebelt">
</g>
<g id="Glasses">
</g>
<g id="Parabolic_Antenna">
</g>
<g id="Loudspeaker">
</g>
<g id="Play">
</g>
<g id="Pause">
</g>
<g id="Signpost">
</g>
<g id="Bluetooth">
</g>
<g id="Present">
</g>
<g id="Ruler">
</g>
<g id="Connection">
</g>
<g id="Money">
</g>
<g id="Paper_Plane">
</g>
<g id="Wallet_2">
</g>
</svg>
