<?xml version="1.0" encoding="iso-8859-1"?>
<!-- Generator: Adobe Illustrator 19.2.1, SVG Export Plug-In . SVG Version: 6.00 Build 0)  -->
<svg version="1.1" xmlns="http://www.w3.org/2000/svg" xmlns:xlink="http://www.w3.org/1999/xlink" x="0px" y="0px"
	 viewBox="0 0 30 30" style="enable-background:new 0 0 30 30;" xml:space="preserve">
<g id="Flag">
</g>
<g id="Umbrella">
</g>
<g id="Briefcase">
</g>
<g id="Box">
</g>
<g id="Magnet">
</g>
<g id="Percent">
</g>
<g id="Rocket">
</g>
<g id="Share">
</g>
<g id="Transmitter">
</g>
<g id="Record_2">
</g>
<g id="Record_1">
</g>
<g id="Anchor">
</g>
<g id="Airplane">
</g>
<g id="Car">
</g>
<g id="Newsfeed">
</g>
<g id="Wifi_Tethering">
</g>
<g id="No_Wifi_Tethering">
</g>
<g id="Bar_Chart_2">
</g>
<g id="Shop">
</g>
<g id="Alarm">
</g>
<g id="Sim_Card">
</g>
<g id="Radar">
</g>
<g id="Hand_2">
</g>
<g id="Palette">
</g>
<g id="Cake">
</g>
<g id="Blende">
</g>
<g id="Feather_Pen">
</g>
<g id="Ticket">
	<g>
		<g>
			<path d="M9.326,30c-0.128,0-0.256-0.049-0.354-0.146l-8.81-8.81C0.062,20.951,0,20.816,0,20.674c0-0.184,0.1-0.351,0.258-0.438
				c0.901-0.76,12.431-12.368,20.061-20.088C20.412,0.054,20.539,0,20.673,0h0.001c0.133,0,0.26,0.053,0.354,0.146l1.63,1.63
				c0.195,0.195,0.195,0.511,0.001,0.706c-0.145,0.145-0.224,0.336-0.224,0.539c0,0.42,0.341,0.761,0.761,0.761
				c0.204,0,0.395-0.079,0.537-0.222c0.094-0.095,0.221-0.147,0.354-0.147c0.001,0,0.001,0,0.001,0c0.133,0,0.26,0.053,0.354,0.146
				l2,2c0.094,0.094,0.146,0.222,0.146,0.354s-0.053,0.26-0.147,0.354c-0.143,0.143-0.222,0.333-0.222,0.537
				c0,0.42,0.341,0.761,0.761,0.761c0.203,0,0.395-0.079,0.539-0.224c0.195-0.193,0.511-0.194,0.706,0.001l1.63,1.63
				c0.195,0.195,0.195,0.512,0,0.707L9.68,29.854C9.582,29.951,9.454,30,9.326,30z M1.197,20.664l8.129,8.129L28.793,9.326
				l-0.974-0.974c-0.256,0.139-0.543,0.213-0.841,0.213c-0.971,0-1.761-0.79-1.761-1.761c0-0.299,0.073-0.587,0.213-0.841
				l-1.395-1.395c-0.254,0.14-0.542,0.213-0.841,0.213c-0.971,0-1.761-0.79-1.761-1.761c0-0.298,0.074-0.585,0.213-0.841
				l-0.972-0.972C6.939,15.105,2.667,19.396,1.197,20.664z"/>
		</g>
		<g>
			<path d="M5.544,21.174c-0.128,0-0.256-0.049-0.354-0.146c-0.195-0.195-0.195-0.512,0-0.707l6.304-6.305
				c0.195-0.195,0.512-0.195,0.707,0s0.195,0.512,0,0.707l-6.304,6.305C5.8,21.125,5.672,21.174,5.544,21.174z"/>
		</g>
		<g>
			<path d="M8.065,23.695c-0.128,0-0.256-0.049-0.354-0.146c-0.195-0.195-0.195-0.512,0-0.707L19.06,11.494
				c0.195-0.195,0.512-0.195,0.707,0s0.195,0.512,0,0.707L8.419,23.549C8.321,23.646,8.193,23.695,8.065,23.695z"/>
		</g>
	</g>
</g>
<g id="Medal">
</g>
<g id="Mouse_Pointer_1">
</g>
<g id="Mouse_Pointer_2">
</g>
<g id="Fingerprint">
</g>
<g id="Earth">
</g>
</svg>
