<?xml version="1.0" encoding="iso-8859-1"?>
<!-- Generator: Adobe Illustrator 19.2.1, SVG Export Plug-In . SVG Version: 6.00 Build 0)  -->
<svg version="1.1" xmlns="http://www.w3.org/2000/svg" xmlns:xlink="http://www.w3.org/1999/xlink" x="0px" y="0px"
	 viewBox="0 0 24 24" style="enable-background:new 0 0 24 24;" xml:space="preserve">
<g id="Flag">
</g>
<g id="Umbrella">
</g>
<g id="Briefcase">
</g>
<g id="Box">
</g>
<g id="Magnet">
</g>
<g id="Percent">
</g>
<g id="Rocket">
</g>
<g id="Share">
</g>
<g id="Transmitter">
</g>
<g id="Record_2">
</g>
<g id="Record_1">
</g>
<g id="Anchor">
</g>
<g id="Airplane">
</g>
<g id="Car">
</g>
<g id="Newsfeed">
</g>
<g id="Wifi_Tethering">
</g>
<g id="No_Wifi_Tethering">
</g>
<g id="Bar_Chart_2">
</g>
<g id="Shop">
</g>
<g id="Alarm">
</g>
<g id="Sim_Card">
</g>
<g id="Radar">
</g>
<g id="Hand_2">
</g>
<g id="Palette">
</g>
<g id="Cake">
</g>
<g id="Blende">
</g>
<g id="Feather_Pen">
</g>
<g id="Ticket">
	<path d="M23.854,7.146l-1.293-1.293c-0.094-0.094-0.221-0.146-0.354-0.146s-0.261,0.053-0.354,0.147C21.565,6.142,21,5.91,21,5.5
		c0-0.133,0.052-0.259,0.147-0.354c0.194-0.195,0.194-0.512-0.001-0.707l-1.586-1.586c-0.094-0.094-0.221-0.146-0.354-0.146
		s-0.261,0.053-0.354,0.147C18.565,3.142,18,2.909,18,2.5c0-0.133,0.052-0.259,0.147-0.354c0.194-0.195,0.194-0.512-0.001-0.707
		l-1.293-1.293C16.76,0.053,16.633,0,16.5,0h-0.001c-0.134,0-0.261,0.054-0.354,0.148c-6.035,6.106-15.169,15.303-15.9,15.923
		c-0.059,0.034-0.109,0.081-0.15,0.139c-0.143,0.199-0.12,0.47,0.053,0.643l7,7C7.244,23.951,7.372,24,7.5,24
		s0.256-0.049,0.354-0.146l16-16C24.049,7.658,24.049,7.342,23.854,7.146z M4.5,17c-0.128,0-0.256-0.049-0.354-0.146
		c-0.195-0.195-0.195-0.512,0-0.707l5-5c0.195-0.195,0.512-0.195,0.707,0s0.195,0.512,0,0.707l-5,5C4.756,16.951,4.628,17,4.5,17z
		 M15.854,9.854l-9,9C6.756,18.951,6.628,19,6.5,19s-0.256-0.049-0.354-0.146c-0.195-0.195-0.195-0.512,0-0.707l9-9
		c0.195-0.195,0.512-0.195,0.707,0S16.049,9.658,15.854,9.854z"/>
</g>
<g id="Medal">
</g>
<g id="Mouse_Pointer_1">
</g>
<g id="Mouse_Pointer_2">
</g>
<g id="Fingerprint">
</g>
<g id="Earth">
</g>
</svg>
