<?xml version="1.0" encoding="iso-8859-1"?>
<!-- Generator: Adobe Illustrator 19.2.1, SVG Export Plug-In . SVG Version: 6.00 Build 0)  -->
<svg version="1.1" xmlns="http://www.w3.org/2000/svg" xmlns:xlink="http://www.w3.org/1999/xlink" x="0px" y="0px"
	 viewBox="0 0 30 30" style="enable-background:new 0 0 30 30;" xml:space="preserve">
<g id="Add_Users">
</g>
<g id="Remove_Users">
</g>
<g id="Delete_Users">
</g>
<g id="Done_3">
</g>
<g id="At_Symbol_3">
</g>
<g id="Question_3">
</g>
<g id="Answer_3">
</g>
<g id="Bring_Up_3">
</g>
<g id="Bring_Down_3">
</g>
<g id="Dismiss_Users">
</g>
<g id="Users_Speed_3">
</g>
<g id="Users_Settings">
</g>
<g id="Refresh_Users">
</g>
<g id="Time_3">
	<g>
		<path d="M29.223,17.916C29.308,17.973,29.404,18,29.499,18c0.162,0,0.32-0.078,0.417-0.223c0.153-0.229,0.091-0.54-0.139-0.693
			l-3-2c-0.23-0.154-0.541-0.091-0.693,0.139c-0.153,0.229-0.091,0.54,0.139,0.693L29.223,17.916z"/>
		<path d="M20.223,15.084l-3,2c-0.23,0.153-0.292,0.464-0.139,0.693C17.18,17.922,17.339,18,17.5,18
			c0.095,0,0.191-0.027,0.277-0.084l3-2c0.23-0.153,0.292-0.464,0.139-0.693S20.453,14.93,20.223,15.084z"/>
		<path d="M23.5,17c-3.584,0-6.5,2.916-6.5,6.5s2.916,6.5,6.5,6.5s6.5-2.916,6.5-6.5S27.084,17,23.5,17z M26.849,26.858
			C26.751,26.953,26.625,27,26.5,27c-0.13,0-0.261-0.051-0.358-0.151l-3-3.087C23.051,23.668,23,23.543,23,23.413V19.5
			c0-0.276,0.224-0.5,0.5-0.5s0.5,0.224,0.5,0.5v3.71l2.858,2.941C27.051,26.35,27.046,26.666,26.849,26.858z"/>
		<path d="M17.721,6.077c0.448,0.491,0.658,1.142,0.575,1.784l-0.229,1.772c-0.079,0.614-0.424,1.181-0.946,1.553
			c-0.095,0.068-0.163,0.166-0.193,0.279c-0.217,0.816-0.599,1.617-1.104,2.316c-0.098,0.135-0.122,0.31-0.064,0.466
			s0.189,0.273,0.352,0.313l2.055,0.498c0.039,0.009,0.078,0.014,0.118,0.014c0.098,0,0.194-0.028,0.277-0.084l1.106-0.737
			c0,0,0,0,0.001,0c0.549-0.37,1.288-0.321,1.798,0.113c0.165,0.14,0.392,0.111,0.577-0.005c0.075-0.047,0.131-0.118,0.169-0.201
			c0.983-0.904,1.66-2.172,1.865-3.479c0.522-0.154,0.924-0.599,0.996-1.152l0.229-1.772c0.049-0.385-0.069-0.774-0.326-1.069
			c-0.149-0.172-0.337-0.303-0.545-0.385l0.08-1.596l0.326-0.317c0.53-0.547,0.971-1.484,0.056-2.841
			C24.199,0.521,23.024,0,21.402,0c-0.904,0-2.091,0.087-3.258,0.765c-0.235,0.137-0.318,0.435-0.188,0.673
			c0.708,1.29,0.587,2.54-0.337,3.519c-0.082,0.087-0.13,0.2-0.136,0.319l-0.016,0.315c-0.007,0.143,0.048,0.282,0.15,0.382
			L17.721,6.077z"/>
		<path d="M17.171,19.169c-0.043-0.138-0.143-0.251-0.275-0.309c-0.274-0.121-0.491-0.299-0.644-0.528
			c-0.412-0.618-0.31-1.432,0.243-1.935c0.137-0.125,0.194-0.314,0.148-0.494c-0.046-0.179-0.187-0.318-0.367-0.362l-1.671-0.404
			l-0.279-1.084c0.922-0.896,1.555-2.116,1.752-3.372c0.522-0.154,0.924-0.599,0.996-1.152l0.229-1.772
			c0.049-0.385-0.069-0.774-0.326-1.069c-0.149-0.172-0.337-0.303-0.545-0.385l0.08-1.596l0.326-0.317
			c0.53-0.547,0.971-1.484,0.056-2.841C16.199,0.521,15.024,0,13.402,0c-0.637,0-2.103,0-3.471,0.888
			C6.012,0.97,5.478,2.749,5.478,4.484c0,0.389,0.094,1.243,0.159,1.789C5.405,6.353,5.194,6.49,5.029,6.678
			C4.768,6.975,4.647,7.367,4.697,7.757l0.229,1.771c0.077,0.591,0.53,1.059,1.104,1.18c0.197,1.205,0.797,2.385,1.665,3.266
			l-0.3,1.163l-3.472,0.841C1.5,16.564,0,19.301,0,21.5C0,21.776,0.224,22,0.5,22h15.263c0.228,0,0.427-0.154,0.484-0.375
			c0.188-0.723,0.481-1.411,0.872-2.045C17.195,19.457,17.214,19.307,17.171,19.169z"/>
	</g>
</g>
<g id="Dollar_3">
</g>
<g id="Euro_3">
</g>
<g id="Pound_3">
</g>
<g id="Bitcoin_3">
</g>
<g id="Global_Users">
</g>
<g id="Waiting_Users">
</g>
<g id="Writing_Users">
</g>
<g id="Search_Users">
</g>
<g id="Lock_Users">
</g>
<g id="Mark_Users">
</g>
<g id="Share_Users">
</g>
<g id="Shopping_3">
</g>
<g id="Download_3">
</g>
<g id="Upload_3">
</g>
<g id="Users_Statistics">
</g>
<g id="Users_Defense">
</g>
<g id="Car_3">
</g>
<g id="Home_3">
</g>
<g id="Park_3">
</g>
<g id="Recicle_Users">
</g>
<g id="Wifi_3">
</g>
<g id="Attach_3">
</g>
<g id="Disabled_Users">
</g>
<g id="Users_Card">
</g>
<g id="Gaming_3">
</g>
<g id="Cloud_3">
</g>
<g id="Database_3">
</g>
<g id="Copyright_3">
</g>
<g id="No_Copzright_3">
</g>
<g id="Creative_Commun_3">
</g>
<g id="Eco-Friendly_3">
</g>
<g id="Percentage_3">
</g>
<g id="Users_Love">
</g>
<g id="Users_Place">
</g>
<g id="Users_Key">
</g>
<g id="Sleeping_3">
</g>
</svg>
