<?xml version="1.0" encoding="iso-8859-1"?>
<!-- Generator: Adobe Illustrator 19.2.1, SVG Export Plug-In . SVG Version: 6.00 Build 0)  -->
<svg version="1.1" xmlns="http://www.w3.org/2000/svg" xmlns:xlink="http://www.w3.org/1999/xlink" x="0px" y="0px"
	 viewBox="0 0 30 30" style="enable-background:new 0 0 30 30;" xml:space="preserve">
<g id="Add_Users">
</g>
<g id="Remove_Users">
</g>
<g id="Delete_Users">
</g>
<g id="Done_3">
</g>
<g id="At_Symbol_3">
</g>
<g id="Question_3">
</g>
<g id="Answer_3">
</g>
<g id="Bring_Up_3">
</g>
<g id="Bring_Down_3">
</g>
<g id="Dismiss_Users">
</g>
<g id="Users_Speed_3">
</g>
<g id="Users_Settings">
</g>
<g id="Refresh_Users">
</g>
<g id="Time_3">
	<g>
		<g>
			<path d="M23,11c-0.276,0-0.5-0.224-0.5-0.5S22.724,10,23,10c0.274,0,0.565-0.182,0.582-0.318l0.229-1.826
				c0.015-0.117-0.02-0.231-0.098-0.32c-0.078-0.09-0.188-0.14-0.308-0.142c-0.136-0.001-0.265-0.059-0.358-0.157
				c-0.093-0.099-0.142-0.231-0.135-0.367l0.111-2.285c0.006-0.124,0.058-0.242,0.146-0.329l0.457-0.457
				c0.291-0.311,0.521-0.76-0.065-1.655C23.063,1.385,22.169,1,20.902,1c-0.665,0-1.539,0.053-2.402,0.462
				c-0.25,0.119-0.548,0.012-0.666-0.237c-0.119-0.25-0.012-0.548,0.237-0.666C19.115,0.063,20.132,0,20.902,0
				c1.625,0,2.801,0.537,3.495,1.596c0.906,1.384,0.471,2.341-0.054,2.899l-0.331,0.332l-0.081,1.67
				c0.204,0.083,0.388,0.212,0.535,0.381c0.264,0.302,0.387,0.704,0.337,1.102l-0.229,1.827C24.482,10.543,23.686,11,23,11z"/>
		</g>
		<g>
			<path d="M23,11c-0.13,0-0.26-0.05-0.35-0.15c-0.05-0.04-0.09-0.1-0.11-0.16c-0.03-0.06-0.04-0.13-0.04-0.19
				c0-0.13,0.05-0.26,0.15-0.35c0.18-0.19,0.52-0.19,0.7,0c0.1,0.09,0.15,0.22,0.15,0.35c0,0.06-0.01,0.13-0.04,0.19
				c-0.02,0.06-0.06,0.12-0.11,0.16C23.26,10.95,23.13,11,23,11z"/>
		</g>
		<g>
			<path d="M22.016,14c-0.137,0-0.273-0.056-0.372-0.166c-0.185-0.206-0.167-0.522,0.038-0.706c0.714-0.64,0.733-1.035,0.779-1.99
				c0.01-0.207,0.021-0.431,0.041-0.677c0.022-0.275,0.254-0.48,0.538-0.459c0.275,0.022,0.48,0.263,0.459,0.538
				c-0.019,0.235-0.029,0.449-0.039,0.646c-0.05,1.026-0.086,1.768-1.11,2.686C22.254,13.958,22.135,14,22.016,14z"/>
		</g>
		<g>
			<path d="M23.5,30c-3.584,0-6.5-2.916-6.5-6.5s2.916-6.5,6.5-6.5s6.5,2.916,6.5,6.5S27.084,30,23.5,30z M23.5,18
				c-3.033,0-5.5,2.467-5.5,5.5s2.467,5.5,5.5,5.5s5.5-2.467,5.5-5.5S26.533,18,23.5,18z"/>
		</g>
		<g>
			<path d="M29.5,18c-0.095,0-0.191-0.027-0.277-0.084l-3-2c-0.23-0.153-0.292-0.463-0.139-0.693
				c0.152-0.23,0.462-0.292,0.693-0.139l3,2c0.23,0.153,0.292,0.463,0.139,0.693C29.82,17.922,29.661,18,29.5,18z"/>
		</g>
		<g>
			<path d="M0.5,21.998c-0.276,0-0.5-0.224-0.5-0.5c0-2.378,1.612-4.443,3.92-5.02l3.472-0.868l0.306-1.223
				c-0.872-0.909-1.475-2.129-1.669-3.375c-0.575-0.125-1.027-0.602-1.103-1.206L4.697,7.979c-0.05-0.402,0.075-0.807,0.343-1.111
				c0.163-0.185,0.371-0.322,0.599-0.4C5.574,5.907,5.479,5.012,5.479,4.609c0-1.782,0.533-3.608,4.449-3.693
				C11.297,0,12.764,0,13.402,0c1.625,0,2.801,0.537,3.495,1.596c0.906,1.384,0.471,2.341-0.054,2.899l-0.331,0.332l-0.081,1.67
				c0.204,0.083,0.388,0.212,0.535,0.381c0.264,0.302,0.387,0.704,0.337,1.102l-0.229,1.827c-0.071,0.565-0.472,1.02-0.994,1.178
				c-0.195,1.297-0.831,2.56-1.757,3.485l0.285,1.141l1.329,0.333c0.268,0.067,0.431,0.338,0.363,0.606
				c-0.067,0.268-0.339,0.428-0.606,0.363l-1.62-0.405c-0.179-0.044-0.319-0.185-0.363-0.363l-0.429-1.715
				c-0.045-0.18,0.013-0.37,0.151-0.494c0.96-0.86,1.594-2.143,1.696-3.43c0.021-0.26,0.238-0.46,0.499-0.46
				c0.252,0,0.429-0.156,0.455-0.362l0.229-1.826c0.015-0.117-0.02-0.231-0.098-0.32c-0.078-0.09-0.188-0.14-0.308-0.142
				c-0.136-0.001-0.265-0.059-0.358-0.157c-0.093-0.099-0.142-0.231-0.135-0.367l0.111-2.285c0.006-0.124,0.058-0.242,0.146-0.329
				l0.457-0.457c0.291-0.311,0.521-0.76-0.065-1.655C15.563,1.385,14.669,1,13.402,1c-0.929,0-2.015,0.097-3.024,0.82
				c-0.083,0.06-0.184,0.092-0.286,0.093C6.755,1.946,6.479,3.207,6.479,4.609c0,0.444,0.153,1.753,0.211,2.22
				c0.018,0.143-0.026,0.286-0.121,0.393C6.474,7.33,6.337,7.391,6.194,7.391c-0.214,0-0.324,0.05-0.404,0.14
				c-0.08,0.09-0.115,0.206-0.101,0.325l0.229,1.826c0.026,0.206,0.202,0.362,0.41,0.362h0.148c0.261,0,0.478,0.2,0.499,0.46
				c0.1,1.249,0.705,2.505,1.62,3.363c0.132,0.124,0.187,0.31,0.143,0.486l-0.448,1.79c-0.044,0.179-0.185,0.319-0.364,0.364
				l-3.763,0.941C2.3,17.913,1,19.579,1,21.498C1,21.774,0.776,21.998,0.5,21.998z"/>
		</g>
		<g>
			<path d="M17.5,18c-0.162,0-0.32-0.078-0.417-0.223c-0.153-0.23-0.091-0.54,0.139-0.693l3-2c0.229-0.154,0.541-0.091,0.693,0.139
				c0.153,0.23,0.091,0.54-0.139,0.693l-3,2C17.692,17.973,17.596,18,17.5,18z"/>
		</g>
		<g>
			<path d="M26.5,27c-0.13,0-0.261-0.051-0.358-0.151l-3-3.087C23.051,23.668,23,23.543,23,23.413V19.5c0-0.276,0.224-0.5,0.5-0.5
				s0.5,0.224,0.5,0.5v3.71l2.858,2.941c0.192,0.198,0.188,0.515-0.01,0.707C26.751,26.953,26.625,27,26.5,27z"/>
		</g>
	</g>
</g>
<g id="Dollar_3">
</g>
<g id="Euro_3">
</g>
<g id="Pound_3">
</g>
<g id="Bitcoin_3">
</g>
<g id="Global_Users">
</g>
<g id="Waiting_Users">
</g>
<g id="Writing_Users">
</g>
<g id="Search_Users">
</g>
<g id="Lock_Users">
</g>
<g id="Mark_Users">
</g>
<g id="Share_Users">
</g>
<g id="Shopping_3">
</g>
<g id="Download_3">
</g>
<g id="Upload_3">
</g>
<g id="Users_Statistics">
</g>
<g id="Users_Defense">
</g>
<g id="Car_3">
</g>
<g id="Home_3">
</g>
<g id="Park_3">
</g>
<g id="Recicle_Users">
</g>
<g id="Wifi_3">
</g>
<g id="Attach_3">
</g>
<g id="Disabled_Users">
</g>
<g id="Users_Card">
</g>
<g id="Gaming_3">
</g>
<g id="Cloud_3">
</g>
<g id="Database_3">
</g>
<g id="Copyright_3">
</g>
<g id="No_Copzright_3">
</g>
<g id="Creative_Commun_3">
</g>
<g id="Eco-Friendly_3">
</g>
<g id="Percentage_3">
</g>
<g id="Users_Love">
</g>
<g id="Users_Place">
</g>
<g id="Users_Key">
</g>
<g id="Sleeping_3">
</g>
</svg>
