<?xml version="1.0" encoding="iso-8859-1"?>
<!-- Generator: Adobe Illustrator 19.2.1, SVG Export Plug-In . SVG Version: 6.00 Build 0)  -->
<svg version="1.1" xmlns="http://www.w3.org/2000/svg" xmlns:xlink="http://www.w3.org/1999/xlink" x="0px" y="0px"
	 viewBox="0 0 24 24" style="enable-background:new 0 0 24 24;" xml:space="preserve">
<g id="Add_Users">
</g>
<g id="Remove_Users">
</g>
<g id="Delete_Users">
</g>
<g id="Done_3">
</g>
<g id="At_Symbol_3">
</g>
<g id="Question_3">
</g>
<g id="Answer_3">
</g>
<g id="Bring_Up_3">
</g>
<g id="Bring_Down_3">
</g>
<g id="Dismiss_Users">
</g>
<g id="Users_Speed_3">
</g>
<g id="Users_Settings">
</g>
<g id="Refresh_Users">
</g>
<g id="Time_3">
	<g>
		<path d="M23.2,13.9c0.09,0.067,0.195,0.1,0.299,0.1c0.152,0,0.302-0.069,0.4-0.2c0.166-0.221,0.121-0.534-0.1-0.7l-2-1.5
			c-0.22-0.165-0.534-0.12-0.7,0.101s-0.121,0.534,0.1,0.7L23.2,13.9z"/>
		<path d="M15.2,11.6l-2,1.5c-0.221,0.166-0.266,0.479-0.1,0.7c0.098,0.131,0.248,0.2,0.4,0.2c0.104,0,0.209-0.032,0.299-0.1l2-1.5
			c0.221-0.166,0.266-0.479,0.1-0.7C15.734,11.479,15.421,11.434,15.2,11.6z"/>
		<path d="M15.004,8.17c-0.071,0.569-0.355,1.085-0.802,1.452c-0.078,0.064-0.135,0.151-0.163,0.249
			c-0.016,0.055-0.036,0.108-0.056,0.162l-0.053,0.146c-0.068,0.202,0,0.426,0.169,0.556c0.168,0.13,0.401,0.139,0.581,0.021
			c0.644-0.425,1.561-0.269,2.02,0.345c0.104,0.139,0.181,0.306,0.235,0.51c0.046,0.174,0.182,0.31,0.355,0.355
			c0.042,0.011,0.085,0.017,0.128,0.017c0.132,0,0.261-0.053,0.356-0.149c0.748-0.76,1.254-1.753,1.422-2.772
			c0.431-0.153,0.756-0.539,0.815-1.014l0.185-1.479c0.043-0.349-0.064-0.701-0.295-0.967c-0.114-0.13-0.253-0.233-0.407-0.306
			l0.062-1.251l0.243-0.244c0.449-0.477,0.823-1.291,0.055-2.464C19.273,0.449,18.295,0,16.944,0c-0.496,0-1.156,0.03-1.865,0.271
			c-0.142,0.048-0.255,0.157-0.308,0.298c-0.053,0.14-0.04,0.297,0.035,0.427c0.684,1.179,0.633,2.392-0.138,3.327
			c-0.154,0.188-0.152,0.458,0.005,0.642c0.405,0.478,0.593,1.106,0.515,1.726L15.004,8.17z"/>
		<path d="M12.3,14.4c-0.27-0.36-0.359-0.824-0.244-1.272c0.021-0.08,0.021-0.165,0-0.245l-0.262-1.046
			c0.73-0.746,1.234-1.747,1.402-2.777c0.43-0.154,0.755-0.539,0.814-1.014l0.185-1.479c0.043-0.349-0.064-0.701-0.295-0.967
			c-0.114-0.13-0.253-0.233-0.407-0.306l0.062-1.251l0.243-0.244c0.449-0.477,0.823-1.291,0.055-2.464
			C13.273,0.449,12.295,0,10.944,0c-0.521,0-1.716,0-2.842,0.742C4.856,0.823,4.435,2.429,4.435,3.826
			c0,0.317,0.07,0.984,0.123,1.442C4.385,5.341,4.229,5.45,4.104,5.593C3.869,5.859,3.759,6.214,3.803,6.567l0.185,1.478
			c0.063,0.508,0.43,0.913,0.903,1.042c0.167,0.988,0.645,1.953,1.33,2.683l-0.221,0.884l-2.755,0.688
			C1.334,13.819,0,15.528,0,17.498c0,0.276,0.224,0.5,0.5,0.5l11.078,0.001c0.249,0,0.459-0.183,0.495-0.429
			c0.113-0.781,0.359-1.521,0.732-2.196c0.124-0.225,0.058-0.506-0.153-0.652C12.495,14.613,12.383,14.512,12.3,14.4z"/>
		<path d="M18.5,13c-3.033,0-5.5,2.468-5.5,5.5s2.467,5.5,5.5,5.5s5.5-2.468,5.5-5.5S21.533,13,18.5,13z M20.853,20.854
			C20.756,20.951,20.628,21,20.5,21s-0.256-0.049-0.354-0.146l-2-2C18.053,18.76,18,18.633,18,18.5v-3c0-0.276,0.224-0.5,0.5-0.5
			s0.5,0.224,0.5,0.5v2.793l1.854,1.854C21.049,20.342,21.049,20.658,20.853,20.854z"/>
	</g>
</g>
<g id="Dollar_3">
</g>
<g id="Euro_3">
</g>
<g id="Pound_3">
</g>
<g id="Bitcoin_3">
</g>
<g id="Global_Users">
</g>
<g id="Waiting_Users">
</g>
<g id="Writing_Users">
</g>
<g id="Search_Users">
</g>
<g id="Lock_Users">
</g>
<g id="Mark_Users">
</g>
<g id="Share_Users">
</g>
<g id="Shopping_3">
</g>
<g id="Download_3">
</g>
<g id="Upload_3">
</g>
<g id="Users_Statistics">
</g>
<g id="Users_Defense">
</g>
<g id="Car_3">
</g>
<g id="Home_3">
</g>
<g id="Park_3">
</g>
<g id="Recicle_Users">
</g>
<g id="Wifi_3">
</g>
<g id="Attach_3">
</g>
<g id="Disabled_Users">
</g>
<g id="Users_Card">
</g>
<g id="Gaming_3">
</g>
<g id="Cloud_3">
</g>
<g id="Database_3">
</g>
<g id="Copyright_3">
</g>
<g id="No_Copzright_3">
</g>
<g id="Creative_Commun_3">
</g>
<g id="Eco-Friendly_3">
</g>
<g id="Percentage_3">
</g>
<g id="Users_Love">
</g>
<g id="Users_Place">
</g>
<g id="Users_Key">
</g>
<g id="Sleeping_3">
</g>
</svg>
