<?xml version="1.0" encoding="iso-8859-1"?>
<!-- Generator: Adobe Illustrator 19.2.1, SVG Export Plug-In . SVG Version: 6.00 Build 0)  -->
<svg version="1.1" xmlns="http://www.w3.org/2000/svg" xmlns:xlink="http://www.w3.org/1999/xlink" x="0px" y="0px"
	 viewBox="0 0 24 24" style="enable-background:new 0 0 24 24;" xml:space="preserve">
<g id="Pompkin">
</g>
<g id="Layer_10">
</g>
<g id="Bat">
</g>
<g id="Ghost">
</g>
<g id="Bone_Hand">
</g>
<g id="Tree_Ghost">
</g>
<g id="Gate">
</g>
<g id="Cemetery_1">
</g>
<g id="Cemetery_2">
</g>
<g id="Devil_x27_s_Fork">
</g>
<g id="Night_Candle">
</g>
<g id="Canlestick">
</g>
<g id="Black_Cat">
</g>
<g id="Witch_Cauldron">
</g>
<g id="Corn_Candy">
</g>
<g id="Layer_29">
</g>
<g id="Bones">
</g>
<g id="Witch_Broom">
</g>
<g id="Owl">
</g>
<g id="Scythe">
</g>
<g id="Grim_Reaper">
</g>
<g id="Coffin">
</g>
<g id="Dracula">
</g>
<g id="Frankenstein">
</g>
<g id="Layer_40">
</g>
<g id="Toilet_Paper">
	<g>
		<path d="M19.5,0h-15C1.977,0,0,4.393,0,10v11.5c0,0.24,0.17,0.446,0.405,0.491c0.233,0.042,0.47-0.083,0.559-0.306l1.457-3.642
			l1.599,5.594C4.082,23.855,4.274,23.984,4.509,24c0.226-0.004,0.422-0.159,0.477-0.379l1.059-4.235l0.978,3.257
			c0.056,0.186,0.213,0.322,0.404,0.351c0.196,0.024,0.383-0.057,0.49-0.217L9.5,20.401l1.584,2.376
			c0.104,0.155,0.283,0.241,0.468,0.22c0.185-0.019,0.344-0.139,0.412-0.312l1.493-3.732l1.568,4.705
			C15.095,23.865,15.288,24,15.5,24c0.026,0,0.053-0.002,0.08-0.006C15.822,23.954,16,23.745,16,23.5V20h3.5
			c2.523,0,4.5-4.393,4.5-10S22.023,0,19.5,0z M16,16.35c0.408,1.116,0.926,2.018,1.518,2.65H16V16.35z M19.5,19
			c-1.655,0-3.5-3.696-3.5-9c0-0.18,0.007-0.353,0.011-0.53c0.007-0.31,0.021-0.615,0.04-0.912c0-0.002,0-0.004,0-0.006
			c0.02-0.299,0.045-0.59,0.076-0.875c0.001-0.009,0.002-0.018,0.003-0.027c0.03-0.273,0.065-0.54,0.105-0.8
			c0.004-0.025,0.008-0.05,0.012-0.074c0.037-0.24,0.079-0.473,0.124-0.7c0.01-0.048,0.02-0.095,0.029-0.143
			c0.042-0.201,0.086-0.398,0.134-0.589c0.017-0.068,0.035-0.135,0.052-0.202c0.043-0.165,0.088-0.328,0.135-0.484
			c0.026-0.086,0.053-0.169,0.081-0.253c0.043-0.132,0.086-0.262,0.131-0.387c0.036-0.098,0.073-0.192,0.11-0.286
			c0.041-0.104,0.082-0.207,0.124-0.306c0.044-0.103,0.091-0.2,0.137-0.297c0.039-0.081,0.077-0.164,0.117-0.241
			c0.052-0.1,0.105-0.193,0.159-0.286c0.037-0.065,0.074-0.133,0.112-0.194c0.057-0.092,0.116-0.176,0.175-0.26
			c0.037-0.052,0.073-0.108,0.11-0.157c0.06-0.079,0.122-0.149,0.183-0.219c0.038-0.043,0.075-0.09,0.113-0.13
			c0.062-0.065,0.125-0.118,0.188-0.174c0.039-0.034,0.077-0.073,0.116-0.103c0.065-0.05,0.13-0.089,0.195-0.129
			c0.038-0.023,0.075-0.052,0.113-0.072c0.069-0.036,0.138-0.059,0.208-0.084c0.034-0.012,0.067-0.03,0.101-0.039
			C19.296,1.015,19.398,1,19.5,1c1.655,0,3.5,3.696,3.5,9S21.155,19,19.5,19z"/>
		<path d="M19.5,6.5C18.464,6.5,18,8.258,18,10s0.464,3.5,1.5,3.5S21,11.742,21,10S20.536,6.5,19.5,6.5z"/>
	</g>
</g>
<g id="Skull">
</g>
<g id="Skull_Cake">
</g>
<g id="Eyeball">
</g>
<g id="Castle">
</g>
<g id="Witch_x27_s_Hat">
</g>
<g id="Cobweb_1">
</g>
<g id="Cobweb_2">
</g>
<g id="Spider">
</g>
<g id="Full_Moon">
</g>
<g id="Crescent">
</g>
<g id="Crow">
</g>
<g id="Candy_Holder">
</g>
<g id="Bloody_Knife">
</g>
<g id="Bloody_Axe">
</g>
</svg>
