<?xml version="1.0" encoding="iso-8859-1"?>
<!-- Generator: Adobe Illustrator 19.2.1, SVG Export Plug-In . SVG Version: 6.00 Build 0)  -->
<svg version="1.1" xmlns="http://www.w3.org/2000/svg" xmlns:xlink="http://www.w3.org/1999/xlink" x="0px" y="0px"
	 viewBox="0 0 30 30" style="enable-background:new 0 0 30 30;" xml:space="preserve">
<g id="Cad_1">
</g>
<g id="Cad_2">
</g>
<g id="Cad_Pencil">
</g>
<g id="Cad_Compasses">
</g>
<g id="Tools_1">
	<g>
		<g>
			<path d="M29.5,30h-29c-0.202,0-0.385-0.122-0.462-0.309c-0.078-0.187-0.035-0.402,0.108-0.545l29-29
				c0.143-0.144,0.358-0.186,0.545-0.108C29.878,0.115,30,0.298,30,0.5v29C30,29.776,29.776,30,29.5,30z M1.707,29H29V1.707
				L1.707,29z"/>
		</g>
		<g>
			<path d="M29.5,13h-1c-0.276,0-0.5-0.224-0.5-0.5s0.224-0.5,0.5-0.5h1c0.276,0,0.5,0.224,0.5,0.5S29.776,13,29.5,13z"/>
		</g>
		<g>
			<path d="M29.5,10h-1C28.224,10,28,9.776,28,9.5S28.224,9,28.5,9h1C29.776,9,30,9.224,30,9.5S29.776,10,29.5,10z"/>
		</g>
		<g>
			<path d="M29.5,7h-1C28.224,7,28,6.776,28,6.5S28.224,6,28.5,6h1C29.776,6,30,6.224,30,6.5S29.776,7,29.5,7z"/>
		</g>
		<g>
			<path d="M29.5,4h-1C28.224,4,28,3.776,28,3.5S28.224,3,28.5,3h1C29.776,3,30,3.224,30,3.5S29.776,4,29.5,4z"/>
		</g>
		<g>
			<path d="M29.5,16h-1c-0.276,0-0.5-0.224-0.5-0.5s0.224-0.5,0.5-0.5h1c0.276,0,0.5,0.224,0.5,0.5S29.776,16,29.5,16z"/>
		</g>
		<g>
			<path d="M29.5,19h-1c-0.276,0-0.5-0.224-0.5-0.5s0.224-0.5,0.5-0.5h1c0.276,0,0.5,0.224,0.5,0.5S29.776,19,29.5,19z"/>
		</g>
		<g>
			<path d="M29.5,22h-1c-0.276,0-0.5-0.224-0.5-0.5s0.224-0.5,0.5-0.5h1c0.276,0,0.5,0.224,0.5,0.5S29.776,22,29.5,22z"/>
		</g>
		<g>
			<path d="M29.5,25h-1c-0.276,0-0.5-0.224-0.5-0.5s0.224-0.5,0.5-0.5h1c0.276,0,0.5,0.224,0.5,0.5S29.776,25,29.5,25z"/>
		</g>
		<g>
			<path d="M29.5,28h-1c-0.276,0-0.5-0.224-0.5-0.5s0.224-0.5,0.5-0.5h1c0.276,0,0.5,0.224,0.5,0.5S29.776,28,29.5,28z"/>
		</g>
		<g>
			<path d="M24.5,25H13c-0.202,0-0.385-0.122-0.462-0.309c-0.078-0.187-0.035-0.402,0.108-0.545l11.5-11.5
				c0.143-0.143,0.357-0.187,0.545-0.108C24.878,12.615,25,12.798,25,13v11.5C25,24.776,24.776,25,24.5,25z M14.207,24H24v-9.793
				L14.207,24z"/>
		</g>
	</g>
</g>
<g id="Tools_2">
</g>
<g id="Ruler_1">
</g>
<g id="Ruler_2">
</g>
<g id="Workspace_1">
</g>
<g id="Workspace_2">
</g>
<g id="Cad_3">
</g>
<g id="_x33_D_Box">
</g>
<g id="Section_Symbol">
</g>
<g id="Outlet_Symbol">
</g>
<g id="Cad_File">
</g>
<g id="Blueprint">
</g>
<g id="Construction_Plan">
</g>
<g id="Roof_Plan">
</g>
<g id="House_Construction">
</g>
<g id="Building_Construction">
</g>
<g id="Work_Table">
</g>
<g id="Table_Cad">
</g>
<g id="House_Plan">
</g>
<g id="Tape_Measure">
</g>
<g id="Cad_Paper">
</g>
<g id="Cad_Papers">
</g>
<g id="Stairs">
</g>
<g id="Pillar">
</g>
<g id="Bricks">
</g>
<g id="Pantheon">
</g>
<g id="House">
</g>
<g id="Skyscraper">
</g>
<g id="Building">
</g>
</svg>
