<?xml version="1.0" encoding="iso-8859-1"?>
<!-- Generator: Adobe Illustrator 19.2.1, SVG Export Plug-In . SVG Version: 6.00 Build 0)  -->
<svg version="1.1" xmlns="http://www.w3.org/2000/svg" xmlns:xlink="http://www.w3.org/1999/xlink" x="0px" y="0px"
	 viewBox="0 0 24 24" style="enable-background:new 0 0 24 24;" xml:space="preserve">
<g id="Cad_1">
</g>
<g id="Cad_2">
</g>
<g id="Cad_Pencil">
</g>
<g id="Cad_Compasses">
</g>
<g id="Tools_1">
</g>
<g id="Tools_2">
	<g>
		<path d="M23.956,17.295l-4.478-9.981C19.803,6.783,20,6.166,20,5.5c0-1.758-1.308-3.204-3-3.449V0.5C17,0.224,16.776,0,16.5,0
			S16,0.224,16,0.5v1.551c-1.692,0.245-3,1.691-3,3.449c0,0.684,0.205,1.318,0.545,1.857l-1.554,3.432
			c-0.111,0.245-0.009,0.534,0.233,0.654l2.016,1c0.07,0.036,0.146,0.052,0.222,0.052c0.172,0,0.34-0.089,0.432-0.248L16.5,9.492
			l6.568,11.26C23.159,20.908,23.325,21,23.5,21c0.043,0,0.087-0.005,0.131-0.017C23.849,20.924,24,20.726,24,20.5v-3
			C24,17.43,23.985,17.36,23.956,17.295z M16.5,6.5c-0.552,0-1-0.449-1-1s0.448-1,1-1s1,0.449,1,1S17.052,6.5,16.5,6.5z"/>
		<path d="M18.5,19h-1.517c-0.258-3.903-3.516-7-7.483-7s-7.226,3.097-7.483,7H0.5C0.224,19,0,19.224,0,19.5v4
			C0,23.776,0.224,24,0.5,24H2v-1.5C2,22.224,2.224,22,2.5,22S3,22.224,3,22.5V24h1v-2.5C4,21.224,4.224,21,4.5,21S5,21.224,5,21.5
			V24h1v-1.5C6,22.224,6.224,22,6.5,22S7,22.224,7,22.5V24h1v-1.5C8,22.224,8.224,22,8.5,22S9,22.224,9,22.5V24h1v-2.5
			c0-0.276,0.224-0.5,0.5-0.5s0.5,0.224,0.5,0.5V24h1v-1.5c0-0.276,0.224-0.5,0.5-0.5s0.5,0.224,0.5,0.5V24h1v-1.5
			c0-0.276,0.224-0.5,0.5-0.5s0.5,0.224,0.5,0.5V24h1v-2.5c0-0.276,0.224-0.5,0.5-0.5s0.5,0.224,0.5,0.5V24h1.5
			c0.276,0,0.5-0.224,0.5-0.5v-4C19,19.224,18.776,19,18.5,19z M12.5,20h-6C6.224,20,6,19.776,6,19.5C6,17.57,7.57,16,9.5,16
			s3.5,1.57,3.5,3.5C13,19.776,12.776,20,12.5,20z"/>
	</g>
</g>
<g id="Ruler_1">
</g>
<g id="Ruler_2">
</g>
<g id="Workspace_1">
</g>
<g id="Workspace_2">
</g>
<g id="Cad_3">
</g>
<g id="_x33_D_Box">
</g>
<g id="Section_Symbol">
</g>
<g id="Outlet_Symbol">
</g>
<g id="Cad_File">
</g>
<g id="Blueprint">
</g>
<g id="Construction_Plan">
</g>
<g id="Roof_Plan">
</g>
<g id="House_Construction">
</g>
<g id="Building_Construction">
</g>
<g id="Work_Table">
</g>
<g id="Table_Cad">
</g>
<g id="House_Plan">
</g>
<g id="Tape_Measure">
</g>
<g id="Cad_Paper">
</g>
<g id="Cad_Papers">
</g>
<g id="Stairs">
</g>
<g id="Pillar">
</g>
<g id="Bricks">
</g>
<g id="Pantheon">
</g>
<g id="House">
</g>
<g id="Skyscraper">
</g>
<g id="Building">
</g>
</svg>
