<?xml version="1.0" encoding="iso-8859-1"?>
<!-- Generator: Adobe Illustrator 19.2.1, SVG Export Plug-In . SVG Version: 6.00 Build 0)  -->
<svg version="1.1" xmlns="http://www.w3.org/2000/svg" xmlns:xlink="http://www.w3.org/1999/xlink" x="0px" y="0px"
	 viewBox="0 0 30 30" style="enable-background:new 0 0 30 30;" xml:space="preserve">
<g id="Sun_Light">
</g>
<g id="Sunglasses">
</g>
<g id="T-Shirt_1">
</g>
<g id="T-Shirt_2">
</g>
<g id="Mini_Dress">
</g>
<g id="Flip-Flops">
</g>
<g id="Temperature">
</g>
<g id="Hot_Temperature">
</g>
<g id="Ice_Lolly">
</g>
<g id="Icecream">
</g>
<g id="Limonade_1">
</g>
<g id="Limonade_2">
</g>
<g id="Hat">
</g>
<g id="Straw_Hat">
</g>
<g id="Deckchair">
</g>
<g id="Sunshade">
</g>
<g id="Suncream">
</g>
<g id="Suntan_Oil">
</g>
<g id="Swimming_Trunks">
</g>
<g id="Bikini">
</g>
<g id="Pool">
</g>
<g id="Pool_Ladder">
</g>
<g id="Grill">
</g>
<g id="Kite_1">
</g>
<g id="Kite_2">
</g>
<g id="Badminton">
</g>
<g id="Cooler">
</g>
<g id="Strand_Bag">
</g>
<g id="Towel">
</g>
<g id="Strand_Ball">
</g>
<g id="Beach_Sign">
</g>
<g id="Toos">
	<g id="XMLID_268_">
		<path d="M13.109,30H3.022C2.067,30,1,29.247,1,28.239v-8.826C1,17.723,2.657,16,4.283,16H6V1.761C6,0.823,6.894,0,7.913,0h0.163
			C8.986,0,10,0.723,10,1.761V16h1.848C13.623,16,15,17.835,15,19.413v8.826C15,29.177,14.116,30,13.109,30z M4.283,17
			C3.195,17,2,18.263,2,19.413v8.826C2,28.595,2.544,29,3.022,29h10.087C13.559,29,14,28.623,14,28.239v-8.826
			C14,18.24,12.894,17,11.848,17H9.5C9.224,17,9,16.776,9,16.5V1.761C9,1.384,8.534,1,8.076,1H7.913C7.452,1,7,1.377,7,1.761V16.5
			C7,16.776,6.776,17,6.5,17H4.283z"/>
	</g>
	<g id="XMLID_269_">
		<path d="M11.5,27.5c-0.276,0-0.5-0.224-0.5-0.5v-7H5v7c0,0.276-0.224,0.5-0.5,0.5S4,27.276,4,27v-7.5C4,19.224,4.224,19,4.5,19h7
			c0.276,0,0.5,0.224,0.5,0.5V27C12,27.276,11.776,27.5,11.5,27.5z"/>
	</g>
	<g id="XMLID_5_">
		<path d="M22.239,30h-0.392C20.829,30,20,29.171,20,28.152V10h-1.848C16.414,10,15,8.586,15,6.848V1.913
			C15,0.858,15.858,0,16.913,0h0.152C18.132,0,19,0.868,19,1.935V4.5C19,4.775,19.224,5,19.5,5S20,4.775,20,4.5V1.761
			C20,0.79,20.79,0,21.761,0h0.326C23.142,0,24,0.858,24,1.913V4.5C24,4.775,24.224,5,24.5,5S25,4.775,25,4.5V1.761
			C25,0.79,25.79,0,26.761,0h0.479C28.21,0,29,0.79,29,1.761v5.044C29,8.566,27.566,10,25.804,10H24v18.239
			C24,29.21,23.21,30,22.239,30z M16.913,1C16.41,1,16,1.409,16,1.913v4.935C16,8.034,16.965,9,18.152,9H20.5
			C20.776,9,21,9.224,21,9.5v18.652C21,28.62,21.38,29,21.848,29h0.392C22.659,29,23,28.659,23,28.239V9.5C23,9.224,23.224,9,23.5,9
			h2.304C27.015,9,28,8.016,28,6.805V1.761C28,1.341,27.659,1,27.239,1h-0.479C26.341,1,26,1.341,26,1.761V4.5
			C26,5.327,25.327,6,24.5,6S23,5.327,23,4.5V1.913C23,1.409,22.59,1,22.087,1h-0.326C21.341,1,21,1.341,21,1.761V4.5
			C21,5.327,20.327,6,19.5,6S18,5.327,18,4.5V1.935C18,1.419,17.581,1,17.065,1H16.913z"/>
	</g>
</g>
<g id="Bucket">
</g>
<g id="Sand_Castle">
</g>
<g id="Shell_1">
</g>
<g id="Shell_2">
</g>
<g id="Surf_Board">
</g>
<g id="Float">
</g>
<g id="Vacation_Photo">
</g>
<g id="Summer_Time">
</g>
<g id="Boat">
</g>
<g id="Lifebuoy">
</g>
<g id="Lighthouse">
</g>
<g id="Sunset">
</g>
<g id="Dolphin">
</g>
<g id="Starfish">
</g>
<g id="Diving_Mask">
</g>
<g id="Sailboat">
</g>
<g id="Captin_Hat">
</g>
<g id="Eudder">
</g>
</svg>
