<?xml version="1.0" encoding="iso-8859-1"?>
<!-- Generator: Adobe Illustrator 19.2.1, SVG Export Plug-In . SVG Version: 6.00 Build 0)  -->
<svg version="1.1" xmlns="http://www.w3.org/2000/svg" xmlns:xlink="http://www.w3.org/1999/xlink" x="0px" y="0px"
	 viewBox="0 0 24 24" style="enable-background:new 0 0 24 24;" xml:space="preserve">
<g id="Sun_Light">
</g>
<g id="Sunglasses">
</g>
<g id="T-Shirt_1">
</g>
<g id="T-Shirt_2">
</g>
<g id="Mini_Dress">
</g>
<g id="Flip-Flops">
</g>
<g id="Temperature">
</g>
<g id="Hot_Temperature">
</g>
<g id="Ice_Lolly">
</g>
<g id="Icecream">
</g>
<g id="Limonade_1">
</g>
<g id="Limonade_2">
</g>
<g id="Hat">
</g>
<g id="Straw_Hat">
</g>
<g id="Deckchair">
</g>
<g id="Sunshade">
</g>
<g id="Suncream">
</g>
<g id="Suntan_Oil">
</g>
<g id="Swimming_Trunks">
</g>
<g id="Bikini">
</g>
<g id="Pool">
</g>
<g id="Pool_Ladder">
</g>
<g id="Grill">
</g>
<g id="Kite_1">
</g>
<g id="Kite_2">
</g>
<g id="Badminton">
</g>
<g id="Cooler">
</g>
<g id="Strand_Bag">
</g>
<g id="Towel">
</g>
<g id="Strand_Ball">
</g>
<g id="Beach_Sign">
</g>
<g id="Toos">
	<g>
		<path d="M9.5,13H8V1.5C8,0.673,7.327,0,6.5,0S5,0.673,5,1.5V13H3.5C2.122,13,1,14.121,1,15.5v7C1,23.327,1.673,24,2.5,24h8
			c0.827,0,1.5-0.673,1.5-1.5v-7C12,14.121,10.878,13,9.5,13z M10,21.5c0,0.276-0.224,0.5-0.5,0.5S9,21.776,9,21.5V16H4v5.5
			C4,21.776,3.776,22,3.5,22S3,21.776,3,21.5v-6C3,15.224,3.224,15,3.5,15h6c0.276,0,0.5,0.224,0.5,0.5V21.5z"/>
		<path d="M21.5,0C20.673,0,20,0.673,20,1.5v2C20,3.776,19.775,4,19.5,4S19,3.776,19,3.5v-2C19,0.673,18.327,0,17.5,0
			S16,0.673,16,1.5v2C16,3.776,15.775,4,15.5,4S15,3.776,15,3.5v-2C15,0.673,14.327,0,13.5,0S12,0.673,12,1.5v4
			C12,6.878,13.121,8,14.5,8H16v14.5c0,0.827,0.673,1.5,1.5,1.5s1.5-0.673,1.5-1.5V8h1.5C21.879,8,23,6.878,23,5.5v-4
			C23,0.673,22.327,0,21.5,0z"/>
	</g>
</g>
<g id="Bucket">
</g>
<g id="Sand_Castle">
</g>
<g id="Shell_1">
</g>
<g id="Shell_2">
</g>
<g id="Surf_Board">
</g>
<g id="Float">
</g>
<g id="Vacation_Photo">
</g>
<g id="Summer_Time">
</g>
<g id="Boat">
</g>
<g id="Lifebuoy">
</g>
<g id="Lighthouse">
</g>
<g id="Sunset">
</g>
<g id="Dolphin">
</g>
<g id="Starfish">
</g>
<g id="Diving_Mask">
</g>
<g id="Sailboat">
</g>
<g id="Captin_Hat">
</g>
<g id="Eudder">
</g>
</svg>
