<?xml version="1.0" encoding="iso-8859-1"?>
<!-- Generator: Adobe Illustrator 19.2.1, SVG Export Plug-In . SVG Version: 6.00 Build 0)  -->
<svg version="1.1" xmlns="http://www.w3.org/2000/svg" xmlns:xlink="http://www.w3.org/1999/xlink" x="0px" y="0px"
	 viewBox="0 0 30 30" style="enable-background:new 0 0 30 30;" xml:space="preserve">
<g id="Flag">
</g>
<g id="Umbrella">
</g>
<g id="Briefcase">
</g>
<g id="Box">
</g>
<g id="Magnet">
</g>
<g id="Percent">
</g>
<g id="Rocket">
</g>
<g id="Share">
</g>
<g id="Transmitter">
	<g>
		<path d="M14.5,5c-1.654,0-3,1.346-3,3c0,1.483,1.084,2.71,2.5,2.949V29.5c0,0.276,0.224,0.5,0.5,0.5s0.5-0.224,0.5-0.5V10.949
			c1.416-0.24,2.5-1.466,2.5-2.949C17.5,6.346,16.154,5,14.5,5z"/>
		<path d="M9.801,4.199C9.57,4.05,9.26,4.114,9.108,4.345C8.383,5.457,8,6.734,8,8.04c0,1.303,0.382,2.579,1.105,3.689
			c0.096,0.147,0.256,0.227,0.419,0.227c0.094,0,0.188-0.026,0.272-0.081c0.231-0.15,0.297-0.46,0.146-0.692
			C9.326,10.236,9,9.149,9,8.04c0-1.111,0.327-2.2,0.946-3.148C10.097,4.66,10.032,4.35,9.801,4.199z"/>
		<path d="M5,8.04c0-1.839,0.529-3.631,1.53-5.183c0.15-0.232,0.083-0.542-0.149-0.691C6.148,2.016,5.839,2.083,5.69,2.315
			C4.584,4.028,4,6.008,4,8.04c0,2.046,0.592,4.037,1.712,5.758c0.096,0.147,0.256,0.228,0.419,0.228
			c0.093,0,0.188-0.026,0.272-0.081c0.231-0.15,0.297-0.46,0.146-0.691C5.536,11.694,5,9.892,5,8.04z"/>
		<path d="M3.013,0.081C2.782-0.07,2.472-0.004,2.322,0.228C0.803,2.563,0,5.265,0,8.04c0,2.773,0.802,5.473,2.318,7.808
			c0.096,0.147,0.256,0.228,0.42,0.228c0.093,0,0.188-0.026,0.272-0.081c0.231-0.15,0.297-0.46,0.147-0.692
			C1.746,13.131,1,10.619,1,8.04c0-2.581,0.747-5.094,2.16-7.268C3.311,0.541,3.245,0.231,3.013,0.081z"/>
		<path d="M19.199,4.238c-0.231,0.151-0.296,0.461-0.146,0.692C19.673,5.878,20,6.967,20,8.078c0,1.108-0.326,2.195-0.942,3.144
			c-0.15,0.231-0.085,0.541,0.146,0.692c0.084,0.055,0.179,0.081,0.272,0.081c0.163,0,0.323-0.08,0.419-0.228
			C20.618,10.656,21,9.38,21,8.078c0-1.306-0.384-2.583-1.108-3.695C19.741,4.152,19.433,4.088,19.199,4.238z"/>
		<path d="M22.618,2.204c-0.231,0.149-0.299,0.459-0.148,0.691C23.471,4.446,24,6.238,24,8.078c0,1.851-0.536,3.654-1.55,5.213
			c-0.15,0.231-0.085,0.541,0.146,0.691c0.084,0.055,0.179,0.081,0.272,0.081c0.163,0,0.323-0.08,0.419-0.228
			C24.408,12.114,25,10.123,25,8.078c0-2.033-0.585-4.012-1.69-5.725C23.16,2.12,22.851,2.056,22.618,2.204z"/>
		<path d="M26.679,0.266c-0.15-0.232-0.462-0.296-0.691-0.147c-0.231,0.15-0.297,0.46-0.146,0.692C27.253,2.985,28,5.498,28,8.078
			c0,2.579-0.746,5.09-2.157,7.263c-0.15,0.231-0.085,0.542,0.146,0.692c0.084,0.055,0.179,0.081,0.272,0.081
			c0.163,0,0.323-0.081,0.419-0.228C28.198,13.551,29,10.851,29,8.078C29,5.304,28.197,2.603,26.679,0.266z"/>
	</g>
</g>
<g id="Record_2">
</g>
<g id="Record_1">
</g>
<g id="Anchor">
</g>
<g id="Airplane">
</g>
<g id="Car">
</g>
<g id="Newsfeed">
</g>
<g id="Wifi_Tethering">
</g>
<g id="No_Wifi_Tethering">
</g>
<g id="Bar_Chart_2">
</g>
<g id="Shop">
</g>
<g id="Alarm">
</g>
<g id="Sim_Card">
</g>
<g id="Radar">
</g>
<g id="Hand_2">
</g>
<g id="Palette">
</g>
<g id="Cake">
</g>
<g id="Blende">
</g>
<g id="Feather_Pen">
</g>
<g id="Ticket">
</g>
<g id="Medal">
</g>
<g id="Mouse_Pointer_1">
</g>
<g id="Mouse_Pointer_2">
</g>
<g id="Fingerprint">
</g>
<g id="Earth">
</g>
</svg>
