<?xml version="1.0" encoding="iso-8859-1"?>
<!-- Generator: Adobe Illustrator 19.2.1, SVG Export Plug-In . SVG Version: 6.00 Build 0)  -->
<svg version="1.1" xmlns="http://www.w3.org/2000/svg" xmlns:xlink="http://www.w3.org/1999/xlink" x="0px" y="0px"
	 viewBox="0 0 30 30" style="enable-background:new 0 0 30 30;" xml:space="preserve">
<g id="Flag">
</g>
<g id="Umbrella">
</g>
<g id="Briefcase">
</g>
<g id="Box">
</g>
<g id="Magnet">
</g>
<g id="Percent">
</g>
<g id="Rocket">
</g>
<g id="Share">
</g>
<g id="Transmitter">
	<g>
		<g>
			<path d="M14.5,30c-0.276,0-0.5-0.224-0.5-0.5v-19c0-0.276,0.224-0.5,0.5-0.5s0.5,0.224,0.5,0.5v19C15,29.776,14.776,30,14.5,30z"
				/>
		</g>
		<g>
			<path d="M14.5,11c-1.654,0-3-1.346-3-3s1.346-3,3-3s3,1.346,3,3S16.154,11,14.5,11z M14.5,6c-1.103,0-2,0.897-2,2s0.897,2,2,2
				s2-0.897,2-2S15.603,6,14.5,6z"/>
		</g>
		<g>
			<path d="M9.523,11.956c-0.163,0-0.323-0.08-0.419-0.228C8.382,10.618,8,9.342,8,8.04c0-1.306,0.384-2.583,1.108-3.695
				C9.26,4.114,9.568,4.05,9.801,4.199c0.231,0.151,0.296,0.461,0.146,0.692C9.327,5.84,9,6.929,9,8.04
				c0,1.108,0.326,2.195,0.942,3.144c0.15,0.231,0.085,0.541-0.146,0.692C9.712,11.93,9.617,11.956,9.523,11.956z"/>
		</g>
		<g>
			<path d="M6.131,14.025c-0.163,0-0.323-0.08-0.419-0.228C4.592,12.076,4,10.085,4,8.04c0-2.033,0.585-4.012,1.69-5.725
				c0.15-0.233,0.461-0.298,0.691-0.149C6.613,2.315,6.681,2.625,6.53,2.857C5.529,4.408,5,6.2,5,8.04
				c0,1.851,0.536,3.654,1.55,5.213c0.15,0.231,0.085,0.541-0.146,0.691C6.319,14,6.225,14.025,6.131,14.025z"/>
		</g>
		<g>
			<path d="M2.738,16.076c-0.163,0-0.323-0.08-0.419-0.228C0.802,13.513,0,10.813,0,8.04c0-2.774,0.803-5.476,2.321-7.813
				c0.151-0.232,0.463-0.296,0.691-0.147c0.231,0.15,0.297,0.46,0.146,0.692C1.747,2.947,1,5.46,1,8.04
				c0,2.579,0.746,5.09,2.157,7.263c0.15,0.231,0.085,0.542-0.146,0.692C2.927,16.05,2.832,16.076,2.738,16.076z"/>
		</g>
		<g>
			<path d="M19.477,11.994c-0.094,0-0.188-0.026-0.272-0.081c-0.231-0.151-0.297-0.46-0.146-0.692C19.674,10.273,20,9.186,20,8.078
				c0-1.111-0.327-2.2-0.946-3.148c-0.15-0.231-0.086-0.542,0.146-0.692c0.232-0.149,0.541-0.085,0.692,0.146
				C20.616,5.495,21,6.772,21,8.078c0,1.302-0.382,2.578-1.104,3.688C19.8,11.914,19.64,11.994,19.477,11.994z"/>
		</g>
		<g>
			<path d="M22.869,14.064c-0.094,0-0.188-0.026-0.272-0.081c-0.231-0.15-0.297-0.46-0.146-0.691C23.464,11.732,24,9.929,24,8.078
				c0-1.84-0.529-3.632-1.53-5.183c-0.15-0.232-0.083-0.542,0.148-0.691c0.231-0.149,0.541-0.084,0.691,0.149
				C24.415,4.066,25,6.045,25,8.078c0,2.045-0.592,4.036-1.712,5.758C23.192,13.984,23.032,14.064,22.869,14.064z"/>
		</g>
		<g>
			<path d="M26.262,16.114c-0.094,0-0.188-0.026-0.272-0.081c-0.231-0.15-0.297-0.46-0.146-0.692C27.254,13.168,28,10.657,28,8.078
				c0-2.58-0.747-5.093-2.159-7.268c-0.15-0.231-0.085-0.542,0.146-0.692c0.229-0.15,0.54-0.085,0.691,0.147
				C28.197,2.603,29,5.304,29,8.078c0,2.772-0.802,5.473-2.319,7.808C26.585,16.034,26.425,16.114,26.262,16.114z"/>
		</g>
	</g>
</g>
<g id="Record_2">
</g>
<g id="Record_1">
</g>
<g id="Anchor">
</g>
<g id="Airplane">
</g>
<g id="Car">
</g>
<g id="Newsfeed">
</g>
<g id="Wifi_Tethering">
</g>
<g id="No_Wifi_Tethering">
</g>
<g id="Bar_Chart_2">
</g>
<g id="Shop">
</g>
<g id="Alarm">
</g>
<g id="Sim_Card">
</g>
<g id="Radar">
</g>
<g id="Hand_2">
</g>
<g id="Palette">
</g>
<g id="Cake">
</g>
<g id="Blende">
</g>
<g id="Feather_Pen">
</g>
<g id="Ticket">
</g>
<g id="Medal">
</g>
<g id="Mouse_Pointer_1">
</g>
<g id="Mouse_Pointer_2">
</g>
<g id="Fingerprint">
</g>
<g id="Earth">
</g>
</svg>
