<?xml version="1.0" encoding="iso-8859-1"?>
<!-- Generator: Adobe Illustrator 19.2.1, SVG Export Plug-In . SVG Version: 6.00 Build 0)  -->
<svg version="1.1" xmlns="http://www.w3.org/2000/svg" xmlns:xlink="http://www.w3.org/1999/xlink" x="0px" y="0px"
	 viewBox="0 0 24 24" style="enable-background:new 0 0 24 24;" xml:space="preserve">
<g id="Mail">
</g>
<g id="Open_Mail">
</g>
<g id="Mail_Attachmet">
</g>
<g id="Mails">
</g>
<g id="Trash">
</g>
<g id="Trash_Full">
	<path d="M23.854,12.167l-0.389-0.389c0.27-0.405,0.414-0.881,0.414-1.379c0-0.668-0.26-1.296-0.732-1.768l-7.778-7.778
		C14.515,0,13.191-0.104,12.222,0.536l-0.39-0.389c-0.195-0.195-0.512-0.195-0.707,0L9.711,1.561
		C9.618,1.654,9.565,1.781,9.565,1.914s0.053,0.26,0.146,0.354L14.444,7h-1.495c-0.232-1.14-1.242-2-2.449-2H8.95
		C8.717,3.86,7.708,3,6.5,3S4.283,3.86,4.05,5H3.5C2.293,5,1.283,5.86,1.051,7H0.5C0.224,7,0,7.224,0,7.5v14
		C0,22.879,1.122,24,2.5,24h11c1.379,0,2.5-1.121,2.5-2.5V8.556l5.732,5.732c0.098,0.098,0.226,0.146,0.354,0.146
		s0.256-0.049,0.354-0.146l1.414-1.414C24.049,12.679,24.049,12.363,23.854,12.167z M2.092,7C2.299,6.419,2.849,6,3.5,6h1
		C4.776,6,5,5.776,5,5.5C5,4.673,5.673,4,6.5,4S8,4.673,8,5.5C8,5.776,8.224,6,8.5,6h2c0.651,0,1.201,0.419,1.408,1H2.092z M4,20.5
		C4,20.776,3.776,21,3.5,21S3,20.776,3,20.5v-10C3,10.224,3.224,10,3.5,10S4,10.224,4,10.5V20.5z M8.5,20.5
		C8.5,20.776,8.276,21,8,21s-0.5-0.224-0.5-0.5v-10C7.5,10.224,7.724,10,8,10s0.5,0.224,0.5,0.5V20.5z M13,20.5
		c0,0.276-0.224,0.5-0.5,0.5S12,20.776,12,20.5v-10c0-0.276,0.224-0.5,0.5-0.5s0.5,0.224,0.5,0.5V20.5z"/>
</g>
<g id="Preferences_1">
</g>
<g id="Preferences_2">
</g>
<g id="Mouse">
</g>
<g id="Computer">
</g>
<g id="Notebook">
</g>
<g id="Mobile_Phone">
</g>
<g id="Print">
</g>
<g id="Calculator">
</g>
<g id="Tag">
</g>
<g id="Paperclip">
</g>
<g id="Heart">
</g>
<g id="Lock">
</g>
<g id="Lock_Open">
</g>
<g id="Key_1">
</g>
<g id="Star">
</g>
<g id="Add">
</g>
<g id="Remove">
</g>
<g id="Error">
</g>
<g id="Check_1">
</g>
<g id="Time">
</g>
<g id="Question_Mark">
</g>
<g id="Error_Mark">
</g>
<g id="Sand-Glass">
</g>
<g id="Battery_Full">
</g>
<g id="Battery_Charge">
</g>
<g id="Battery_Half">
</g>
<g id="Battery_Low">
</g>
<g id="No_Battery">
</g>
<g id="Key_2">
</g>
<g id="Link">
</g>
<g id="Brake_Link">
</g>
<g id="Pencil">
</g>
<g id="At">
</g>
<g id="Reply">
</g>
<g id="Accessible">
</g>
<g id="Up_Arrow">
</g>
<g id="Brush">
</g>
<g id="Design_Mug">
</g>
<g id="Design">
</g>
<g id="Server">
</g>
<g id="Database">
</g>
<g id="Save">
</g>
<g id="Female">
</g>
<g id="Male">
</g>
<g id="Book">
</g>
<g id="Power">
</g>
<g id="Reload">
</g>
<g id="Map">
</g>
<g id="Loction_1">
</g>
<g id="Location_2">
</g>
<g id="Globe">
</g>
<g id="Suitcase">
</g>
<g id="Callendar">
</g>
<g id="Cloud_Off">
</g>
<g id="File_1">
</g>
<g id="File_2">
</g>
<g id="Folder">
</g>
<g id="Open_Folder">
</g>
<g id="Cloud">
</g>
<g id="Upload_Cloud">
</g>
<g id="Download_Cloud">
</g>
<g id="Eye">
</g>
<g id="Invisible">
</g>
<g id="Assignment">
</g>
<g id="Note_Book">
</g>
<g id="Webpage">
</g>
<g id="Mailbox">
</g>
<g id="Drive">
</g>
<g id="Disc">
</g>
<g id="Wifi_1">
</g>
<g id="Wifi_2">
</g>
<g id="Archive">
</g>
<g id="Archive_File">
</g>
<g id="News">
</g>
<g id="Home">
</g>
<g id="Collaboration">
</g>
<g id="Announcement">
</g>
<g id="Watch">
</g>
<g id="Clock">
</g>
<g id="Volume">
</g>
<g id="Mute">
</g>
<g id="Hand">
</g>
<g id="Layers">
</g>
<g id="Bell">
</g>
<g id="Speach_Bubble">
</g>
<g id="Speach_Bubbles">
</g>
<g id="Zoom_In">
</g>
<g id="Zoom_Out">
</g>
<g id="Search">
</g>
<g id="Back_Arrow">
</g>
<g id="Close">
</g>
<g id="Check_2">
</g>
<g id="Left_Arrow_2">
</g>
<g id="Right_Arrow_2">
</g>
</svg>
