<?xml version="1.0" encoding="iso-8859-1"?>
<!-- Generator: Adobe Illustrator 19.2.1, SVG Export Plug-In . SVG Version: 6.00 Build 0)  -->
<svg version="1.1" xmlns="http://www.w3.org/2000/svg" xmlns:xlink="http://www.w3.org/1999/xlink" x="0px" y="0px"
	 viewBox="0 0 24 24" style="enable-background:new 0 0 24 24;" xml:space="preserve">
<g id="Pompkin">
</g>
<g id="Layer_10">
</g>
<g id="Bat">
</g>
<g id="Ghost">
</g>
<g id="Bone_Hand">
</g>
<g id="Tree_Ghost">
	<path d="M22.997,4.056c0.03-0.274-0.168-0.521-0.442-0.552c-0.283-0.033-0.521,0.168-0.552,0.442
		c-0.072,0.652-0.311,1.314-0.679,1.958l-0.331-1.985c-0.045-0.272-0.303-0.46-0.575-0.411c-0.272,0.045-0.457,0.303-0.411,0.575
		l0.496,2.978c-1.222,1.434-3.068,2.662-5.132,3.309c-0.11-2.28-0.229-4.938-0.355-7.981L15,1.001c0-0.177-0.093-0.34-0.245-0.43
		c-0.151-0.088-0.34-0.092-0.495-0.009l-1.476,0.806l-0.574-0.69c-0.095-0.114-0.236-0.18-0.384-0.18c0,0,0,0,0,0
		c-0.148,0-0.29,0.066-0.384,0.181l-0.449,0.542L10.544,0.68c-0.095-0.115-0.236-0.181-0.385-0.181h0
		c-0.149,0-0.291,0.067-0.385,0.182L9.33,1.219L8.886,0.68C8.751,0.518,8.529,0.458,8.331,0.528C8.132,0.599,8,0.788,8,0.999
		l0.003,1.058c0.133,1.194,0.195,5.663,0.186,9.862c-1.097-0.231-2.601-0.982-4.06-2.11C4.367,8.936,4.12,7.382,2.904,5.708
		c-0.162-0.223-0.474-0.274-0.698-0.11c-0.223,0.162-0.273,0.475-0.11,0.698C2.93,7.444,3.174,8.424,3.207,9.034
		C2.745,8.614,2.294,8.169,1.883,7.68C1.704,7.468,1.389,7.44,1.178,7.619C0.967,7.796,0.939,8.112,1.117,8.323
		c0.606,0.72,1.276,1.369,1.97,1.943c0.019,0.03,0.033,0.063,0.06,0.089c0.06,0.06,0.134,0.095,0.21,0.119
		c1.715,1.358,3.519,2.228,4.829,2.455c-0.015,3.001-0.067,5.709-0.156,6.767c-1.521,0.896-2.859,2.06-3.759,2.843l-0.098,0.085
		c-0.164,0.143-0.217,0.374-0.132,0.573c0.084,0.199,0.286,0.318,0.504,0.302c1.497-0.134,2.543-0.471,3.307-0.718
		c0.655-0.211,1.106-0.372,1.561-0.288c1.116,0.199,3.404,0.974,3.427,0.981c0.207,0.069,0.435-0.001,0.564-0.178
		c0.092-0.125,0.499-0.535,1.873-0.535c1.063,0,2.437,0.242,4.085,0.72c0.046,0.013,0.093,0.02,0.139,0.02
		c0.183,0,0.356-0.101,0.444-0.271c0.109-0.212,0.054-0.472-0.133-0.621c-1.009-0.804-1.878-1.014-2.512-1.168
		c-0.846-0.205-1.13-0.274-1.304-1.511c-0.152-1.083-0.344-3.95-0.573-8.535C19.427,10.237,22.66,7.127,22.997,4.056z
		 M11.328,15.879c-0.093,0.081-0.21,0.122-0.328,0.122c-0.076,0-0.153-0.018-0.224-0.053l-1-0.5
		c-0.247-0.124-0.347-0.424-0.224-0.671l0.5-1c0.09-0.181,0.278-0.289,0.483-0.275c0.202,0.014,0.375,0.148,0.438,0.34l0.5,1.5
		C11.538,15.535,11.48,15.747,11.328,15.879z M14.224,15.449l-1,0.5c-0.071,0.035-0.147,0.053-0.224,0.053
		c-0.118,0-0.235-0.042-0.328-0.122c-0.153-0.133-0.21-0.344-0.146-0.536l0.5-1.5c0.064-0.192,0.237-0.326,0.438-0.34
		c0.21-0.015,0.393,0.094,0.483,0.275l0.5,1C14.571,15.025,14.471,15.325,14.224,15.449z"/>
</g>
<g id="Gate">
</g>
<g id="Cemetery_1">
</g>
<g id="Cemetery_2">
</g>
<g id="Devil_x27_s_Fork">
</g>
<g id="Night_Candle">
</g>
<g id="Canlestick">
</g>
<g id="Black_Cat">
</g>
<g id="Witch_Cauldron">
</g>
<g id="Corn_Candy">
</g>
<g id="Layer_29">
</g>
<g id="Bones">
</g>
<g id="Witch_Broom">
</g>
<g id="Owl">
</g>
<g id="Scythe">
</g>
<g id="Grim_Reaper">
</g>
<g id="Coffin">
</g>
<g id="Dracula">
</g>
<g id="Frankenstein">
</g>
<g id="Layer_40">
</g>
<g id="Toilet_Paper">
</g>
<g id="Skull">
</g>
<g id="Skull_Cake">
</g>
<g id="Eyeball">
</g>
<g id="Castle">
</g>
<g id="Witch_x27_s_Hat">
</g>
<g id="Cobweb_1">
</g>
<g id="Cobweb_2">
</g>
<g id="Spider">
</g>
<g id="Full_Moon">
</g>
<g id="Crescent">
</g>
<g id="Crow">
</g>
<g id="Candy_Holder">
</g>
<g id="Bloody_Knife">
</g>
<g id="Bloody_Axe">
</g>
</svg>
