<?xml version="1.0" encoding="iso-8859-1"?>
<!-- Generator: Adobe Illustrator 19.2.1, SVG Export Plug-In . SVG Version: 6.00 Build 0)  -->
<svg version="1.1" xmlns="http://www.w3.org/2000/svg" xmlns:xlink="http://www.w3.org/1999/xlink" x="0px" y="0px"
	 viewBox="0 0 24 24" style="enable-background:new 0 0 24 24;" xml:space="preserve">
<g id="Egg_1_">
</g>
<g id="Easter_Egg_1">
</g>
<g id="Easter_Egg_2">
</g>
<g id="Easter_Egg_3">
</g>
<g id="Eggs_1">
</g>
<g id="Eggs_2_1_">
</g>
<g id="Bunny">
</g>
<g id="Sheep">
</g>
<g id="Bell_Alarm">
</g>
<g id="Calendar">
</g>
<g id="Tulip">
</g>
<g id="Chicken">
</g>
<g id="Chicken_2">
</g>
<g id="Baguette">
</g>
<g id="Ham_1_">
</g>
<g id="Bell_2">
</g>
<g id="Bell_3">
</g>
<g id="Bell_4">
</g>
<g id="Easter_celebration">
</g>
<g id="Egg_painting">
</g>
<g id="Easter_willow">
</g>
<g id="Daffodil">
</g>
<g id="Easter_message">
</g>
<g id="Bunny_2">
</g>
<g id="Chicken_3">
</g>
<g id="Tulip_2">
	<g>
		<path d="M19.5,12.107c0-4.024-6.852-11.053-7.144-11.35L12,0.393l-0.356,0.364C11.352,1.054,4.5,8.083,4.5,12.107
			c0,3.523,2.359,5.365,7,5.488v3.812c-0.801-0.877-2.184-1.8-4.5-1.8c-0.147,0-0.286,0.064-0.382,0.177
			c-0.095,0.112-0.136,0.26-0.111,0.405c0.006,0.034,0.626,3.418,5.493,3.418c0.012,0,0.023,0,0.035-0.001
			c7.38-0.527,7.465-4.336,7.465-4.499c0-0.257-0.194-0.472-0.45-0.498c-3.346-0.336-5.448,1.448-6.55,2.82v-3.834
			C17.141,17.471,19.5,15.63,19.5,12.107z"/>
		<path d="M10.042,0.442L9.694,0.711c-0.247,0.19-6.047,4.731-6.109,9.884c-0.002,0.175,0.014,0.347,0.025,0.519
			c0.714-3.701,5.004-8.592,6.698-10.406L10.042,0.442z"/>
		<path d="M14.306,0.711l-0.348-0.269l-0.266,0.266c1.694,1.813,5.984,6.705,6.698,10.406c0.011-0.172,0.027-0.344,0.025-0.519
			C20.353,5.442,14.553,0.902,14.306,0.711z"/>
	</g>
</g>
<g id="Easter_basket">
</g>
<g id="Bread_and_wine">
</g>
<g id="Sheep_2">
</g>
<g id="Candle_Light">
</g>
</svg>
