<?xml version="1.0" encoding="iso-8859-1"?>
<!-- Generator: Adobe Illustrator 19.2.1, SVG Export Plug-In . SVG Version: 6.00 Build 0)  -->
<svg version="1.1" xmlns="http://www.w3.org/2000/svg" xmlns:xlink="http://www.w3.org/1999/xlink" x="0px" y="0px"
	 viewBox="0 0 30 30" style="enable-background:new 0 0 30 30;" xml:space="preserve">
<g id="Armchair_1">
</g>
<g id="Armchair_2">
</g>
<g id="Armchair_3">
</g>
<g id="Armchair_4">
</g>
<g id="Sofa_1">
</g>
<g id="Sofa_2">
</g>
<g id="Sofa_3">
</g>
<g id="Sofa_4">
</g>
<g id="Sofa_5">
</g>
<g id="Sofa_6">
</g>
<g id="Desk_1">
</g>
<g id="Desk_2">
</g>
<g id="Desk_3">
</g>
<g id="Lamp">
</g>
<g id="Bed_1">
</g>
<g id="Bunk_Beds">
</g>
<g id="Bed_2">
</g>
<g id="Bed_3">
</g>
<g id="Bed_4">
</g>
<g id="Bed_5">
</g>
<g id="Table_1">
</g>
<g id="Table_2">
</g>
<g id="Table_3">
</g>
<g id="Table_4">
</g>
<g id="Rug_1">
</g>
<g id="Rug_2">
</g>
<g id="Rug_3">
</g>
<g id="Tub_1">
</g>
<g id="Tub_2">
</g>
<g id="Jacuzzi">
</g>
<g id="Corner_Tub">
</g>
<g id="Shower_Tray">
</g>
<g id="Sink_1">
</g>
<g id="Sink_2">
</g>
<g id="Toilette">
</g>
<g id="Stove">
</g>
<g id="Kitchen_Sink">
</g>
<g id="Island">
</g>
<g id="Eat-in_Kitchen">
</g>
<g id="Tv_Stand">
	<g>
		<polygon points="13.652,13 16.348,13 15,12.101 		"/>
		<path d="M29.5,7h-29C0.224,7,0,7.224,0,7.5v12C0,19.776,0.224,20,0.5,20h11.153c-0.089,0.149-0.153,0.314-0.153,0.5
			c0,0.552,0.448,1,1,1s1-0.448,1-1c0-0.186-0.065-0.351-0.153-0.5h3.307c-0.089,0.149-0.153,0.314-0.153,0.5c0,0.552,0.448,1,1,1
			s1-0.448,1-1c0-0.186-0.065-0.351-0.153-0.5H29.5c0.276,0,0.5-0.224,0.5-0.5v-12C30,7.224,29.776,7,29.5,7z M25.5,14h-5.849
			l0.126,0.084c0.229,0.153,0.292,0.463,0.139,0.693C19.819,14.922,19.661,15,19.5,15c-0.096,0-0.192-0.027-0.277-0.084L17.849,14
			h-5.697l-1.374,0.916c-0.229,0.151-0.54,0.091-0.693-0.139s-0.091-0.54,0.139-0.693L10.349,14H4.5C4.224,14,4,13.776,4,13.5
			S4.224,13,4.5,13h7.349l2.874-1.916c0.168-0.112,0.387-0.112,0.555,0L18.151,13H25.5c0.276,0,0.5,0.224,0.5,0.5S25.776,14,25.5,14
			z"/>
	</g>
</g>
</svg>
