<?xml version="1.0" encoding="iso-8859-1"?>
<!-- Generator: Adobe Illustrator 19.2.1, SVG Export Plug-In . SVG Version: 6.00 Build 0)  -->
<svg version="1.1" xmlns="http://www.w3.org/2000/svg" xmlns:xlink="http://www.w3.org/1999/xlink" x="0px" y="0px"
	 viewBox="0 0 24 24" style="enable-background:new 0 0 24 24;" xml:space="preserve">
<g id="Flag">
</g>
<g id="Umbrella">
	<path d="M12,0C6.504,0,1.892,4.377,1.501,9.965c-0.016,0.225,0.121,0.433,0.333,0.507c0.215,0.076,0.448-0.001,0.577-0.187
		C2.822,9.692,3.615,9,4.5,9c0.921,0,1.679,0.658,2.082,1.273c0.185,0.283,0.652,0.283,0.837,0C7.821,9.658,8.579,9,9.5,9
		c0.865,0,1.582,0.58,2,1.161V21.5c0,1.379,1.122,2.5,2.5,2.5s2.5-1.121,2.5-2.5c0-0.276-0.224-0.5-0.5-0.5s-0.5,0.224-0.5,0.5
		c0,0.827-0.673,1.5-1.5,1.5s-1.5-0.673-1.5-1.5V10.161C12.918,9.58,13.635,9,14.5,9c0.921,0,1.679,0.658,2.082,1.273
		c0.185,0.283,0.652,0.283,0.837,0C17.821,9.658,18.579,9,19.5,9c0.885,0,1.678,0.692,2.089,1.285
		C21.685,10.423,21.839,10.5,22,10.5c0.055,0,0.111-0.009,0.166-0.028c0.212-0.074,0.349-0.282,0.333-0.507
		C22.108,4.377,17.496,0,12,0z"/>
</g>
<g id="Briefcase">
</g>
<g id="Box">
</g>
<g id="Magnet">
</g>
<g id="Percent">
</g>
<g id="Rocket">
</g>
<g id="Share">
</g>
<g id="Transmitter">
</g>
<g id="Record_2">
</g>
<g id="Record_1">
</g>
<g id="Anchor">
</g>
<g id="Airplane">
</g>
<g id="Car">
</g>
<g id="Newsfeed">
</g>
<g id="Wifi_Tethering">
</g>
<g id="No_Wifi_Tethering">
</g>
<g id="Bar_Chart_2">
</g>
<g id="Shop">
</g>
<g id="Alarm">
</g>
<g id="Sim_Card">
</g>
<g id="Radar">
</g>
<g id="Hand_2">
</g>
<g id="Palette">
</g>
<g id="Cake">
</g>
<g id="Blende">
</g>
<g id="Feather_Pen">
</g>
<g id="Ticket">
</g>
<g id="Medal">
</g>
<g id="Mouse_Pointer_1">
</g>
<g id="Mouse_Pointer_2">
</g>
<g id="Fingerprint">
</g>
<g id="Earth">
</g>
</svg>
