<?xml version="1.0" encoding="iso-8859-1"?>
<!-- Generator: Adobe Illustrator 19.2.1, SVG Export Plug-In . SVG Version: 6.00 Build 0)  -->
<svg version="1.1" xmlns="http://www.w3.org/2000/svg" xmlns:xlink="http://www.w3.org/1999/xlink" x="0px" y="0px"
	 viewBox="0 0 24 24" style="enable-background:new 0 0 24 24;" xml:space="preserve">
<g id="Add_User">
</g>
<g id="Remove_User">
</g>
<g id="Delete_User">
</g>
<g id="Done">
</g>
<g id="At_Symbol">
</g>
<g id="Question">
</g>
<g id="Answer">
</g>
<g id="Bring_Up">
</g>
<g id="Bring_Down">
</g>
<g id="Dismiss_User">
</g>
<g id="User_Speed">
</g>
<g id="User_Settings">
</g>
<g id="User_Refresh">
</g>
<g id="User_Time">
</g>
<g id="Dollar">
</g>
<g id="Euro">
</g>
<g id="Pound">
</g>
<g id="Bitcoin">
</g>
<g id="Global_User">
</g>
<g id="Waiting_User">
</g>
<g id="Writing_User_2">
</g>
<g id="Search_User">
</g>
<g id="Lock_User">
</g>
<g id="Mark_User">
</g>
<g id="Share_User">
</g>
<g id="Shopping">
</g>
<g id="User_Download">
</g>
<g id="User_Upload">
</g>
<g id="User_Statistics">
</g>
<g id="User_Defense">
</g>
<g id="User_Car">
</g>
<g id="User_Home">
</g>
<g id="Park">
</g>
<g id="Recicle_User">
</g>
<g id="Wifi">
</g>
<g id="Attach_User">
</g>
<g id="Disabled_User">
</g>
<g id="User_Card">
</g>
<g id="Gaming">
</g>
<g id="User_Cloud">
</g>
<g id="User_Database">
</g>
<g id="Copyright">
</g>
<g id="No_Copyright">
</g>
<g id="Creative_Commun">
</g>
<g id="Eco-Friendly">
</g>
<g id="Percentage">
</g>
<g id="User_Love">
</g>
<g id="User_Place">
</g>
<g id="User_Key">
</g>
<g id="Sleeping">
</g>
<g id="Add_User_2">
</g>
<g id="Remove_User_2">
</g>
<g id="Delete_User_2">
</g>
<g id="Done_2">
</g>
<g id="At_Symbol_2">
</g>
<g id="Question_2">
</g>
<g id="Answer_2">
</g>
<g id="Bring_Up_2">
</g>
<g id="Bring_Down_2">
</g>
<g id="Dismiss_User_2">
</g>
<g id="User_Speed_2">
</g>
<g id="User_Settings_2">
</g>
<g id="Refresh_2">
</g>
<g id="Time_2">
</g>
<g id="Dollar_2">
</g>
<g id="Euro_2">
</g>
<g id="Pound_2">
</g>
<g id="Bitcoin_2">
</g>
<g id="Global_User_2">
</g>
<g id="Waiting_User_2">
</g>
<g id="Writing_User">
</g>
<g id="Search_User_2">
</g>
<g id="Lock_User_2">
</g>
<g id="Mark_User_2">
</g>
<g id="Share_User_2">
</g>
<g id="Shopping_2">
</g>
<g id="Download_2">
</g>
<g id="Upload_2">
	<g>
		<path d="M17.854,18.854L19,17.707V21.5c0,0.276,0.224,0.5,0.5,0.5s0.5-0.224,0.5-0.5v-3.793l1.146,1.146
			C21.244,18.951,21.372,19,21.5,19s0.256-0.049,0.354-0.146c0.195-0.195,0.195-0.512,0-0.707l-2-2
			c-0.047-0.047-0.101-0.08-0.157-0.105c-0.002-0.001-0.003-0.003-0.005-0.004c0,0-0.001,0-0.001,0
			c-0.082-0.034-0.169-0.037-0.255-0.025c-0.021,0.003-0.039,0.006-0.06,0.012c-0.083,0.022-0.163,0.057-0.229,0.122l-2,2
			c-0.195,0.195-0.195,0.512,0,0.707S17.658,19.049,17.854,18.854z"/>
		<path d="M23.5,21c-0.276,0-0.5,0.224-0.5,0.5V23h-7v-1.5c0-0.276-0.224-0.5-0.5-0.5S15,21.224,15,21.5v2
			c0,0.276,0.224,0.5,0.5,0.5h8c0.276,0,0.5-0.224,0.5-0.5v-2C24,21.224,23.776,21,23.5,21z"/>
		<path d="M15.722,20.024c0.027,0.003,0.056,0.004,0.081,0.005c0.32,0.02,0.509-0.221,0.509-0.5c0-0.136-0.054-0.26-0.142-0.35
			c-0.216-0.424-0.213-0.939,0.011-1.37c0.067-0.129,0.075-0.282,0.021-0.418c-0.056-0.136-0.167-0.24-0.306-0.287l-0.203-0.066
			c-1.073-0.446-1.564-2.175-1.67-2.83c0.765-0.702,1.478-1.759,1.478-2.708c0-0.354,0.105-0.5,0.121-0.515
			c0.156-0.039,0.283-0.15,0.343-0.3C16.02,10.549,16.5,9.322,16.5,8.5c0-0.041-0.005-0.082-0.015-0.121
			c-0.055-0.22-0.208-0.54-0.485-0.728V5c0-1.611-0.492-2.271-1.011-2.655C14.892,1.569,14.061,0,11,0C7.902,0,6,2.912,6,5v2.651
			C5.723,7.839,5.569,8.159,5.515,8.379C5.505,8.418,5.5,8.459,5.5,8.5c0,0.822,0.48,2.049,0.536,2.186
			c0.06,0.149,0.147,0.248,0.304,0.287C6.395,11,6.5,11.146,6.5,11.5c0,0.949,0.713,2.006,1.478,2.708
			c-0.104,0.655-0.593,2.382-1.636,2.817l-4.438,1.479c-1.219,0.406-1.628,1.428-1.89,2.472C0.005,21.016,0,21.057,0,21.098V23.5
			C0,23.776,0.224,24,0.5,24h13c0.276,0,0.5-0.224,0.5-0.5v-2c0-0.827,0.673-1.5,1.5-1.5C15.565,20,15.628,20.011,15.722,20.024z"/>
	</g>
</g>
<g id="User_Statistics_2">
</g>
<g id="User_Defense_2">
</g>
<g id="Car_2">
</g>
<g id="Home_2">
</g>
<g id="Park_2">
</g>
<g id="Recicle_User_2">
</g>
<g id="User_Wifi">
</g>
<g id="Attach_2">
</g>
<g id="Disabled_User_2">
</g>
<g id="User_Card_2">
</g>
<g id="Gaming_2">
</g>
<g id="Cloud_2">
</g>
<g id="Database_2">
</g>
<g id="Copyright_2">
</g>
<g id="No_Copyright_2">
</g>
<g id="Creative_Commun_2">
</g>
<g id="Eco-Friendly_2">
</g>
<g id="Percentage_2">
</g>
<g id="User_Love_2">
</g>
<g id="User_Rate_2">
</g>
<g id="User_Key_2">
</g>
<g id="Sleeping_2">
</g>
</svg>
