<?xml version="1.0" encoding="iso-8859-1"?>
<!-- Generator: Adobe Illustrator 19.2.1, SVG Export Plug-In . SVG Version: 6.00 Build 0)  -->
<svg version="1.1" xmlns="http://www.w3.org/2000/svg" xmlns:xlink="http://www.w3.org/1999/xlink" x="0px" y="0px"
	 viewBox="0 0 30 30" style="enable-background:new 0 0 30 30;" xml:space="preserve">
<g id="Add_User">
</g>
<g id="Remove_User">
</g>
<g id="Delete_User">
</g>
<g id="Done">
</g>
<g id="At_Symbol">
</g>
<g id="Question">
</g>
<g id="Answer">
</g>
<g id="Bring_Up">
</g>
<g id="Bring_Down">
</g>
<g id="Dismiss_User">
</g>
<g id="User_Speed">
</g>
<g id="User_Settings">
</g>
<g id="User_Refresh">
</g>
<g id="User_Time">
</g>
<g id="Dollar">
</g>
<g id="Euro">
</g>
<g id="Pound">
</g>
<g id="Bitcoin">
</g>
<g id="Global_User">
</g>
<g id="Waiting_User">
</g>
<g id="Writing_User_2">
</g>
<g id="Search_User">
</g>
<g id="Lock_User">
</g>
<g id="Mark_User">
</g>
<g id="Share_User">
</g>
<g id="Shopping">
</g>
<g id="User_Download">
</g>
<g id="User_Upload">
</g>
<g id="User_Statistics">
</g>
<g id="User_Defense">
</g>
<g id="User_Car">
</g>
<g id="User_Home">
</g>
<g id="Park">
</g>
<g id="Recicle_User">
</g>
<g id="Wifi">
</g>
<g id="Attach_User">
</g>
<g id="Disabled_User">
</g>
<g id="User_Card">
</g>
<g id="Gaming">
</g>
<g id="User_Cloud">
</g>
<g id="User_Database">
</g>
<g id="Copyright">
</g>
<g id="No_Copyright">
</g>
<g id="Creative_Commun">
</g>
<g id="Eco-Friendly">
</g>
<g id="Percentage">
</g>
<g id="User_Love">
</g>
<g id="User_Place">
</g>
<g id="User_Key">
</g>
<g id="Sleeping">
</g>
<g id="Add_User_2">
</g>
<g id="Remove_User_2">
</g>
<g id="Delete_User_2">
</g>
<g id="Done_2">
</g>
<g id="At_Symbol_2">
</g>
<g id="Question_2">
</g>
<g id="Answer_2">
</g>
<g id="Bring_Up_2">
</g>
<g id="Bring_Down_2">
</g>
<g id="Dismiss_User_2">
</g>
<g id="User_Speed_2">
</g>
<g id="User_Settings_2">
</g>
<g id="Refresh_2">
</g>
<g id="Time_2">
</g>
<g id="Dollar_2">
</g>
<g id="Euro_2">
</g>
<g id="Pound_2">
</g>
<g id="Bitcoin_2">
</g>
<g id="Global_User_2">
</g>
<g id="Waiting_User_2">
</g>
<g id="Writing_User">
</g>
<g id="Search_User_2">
</g>
<g id="Lock_User_2">
</g>
<g id="Mark_User_2">
</g>
<g id="Share_User_2">
</g>
<g id="Shopping_2">
</g>
<g id="Download_2">
</g>
<g id="Upload_2">
	<g>
		<g>
			<g>
				<path d="M20.5,22c-0.128,0-0.256-0.049-0.354-0.146c-0.195-0.195-0.195-0.512,0-0.707l1.646-1.646l-1.646-1.646
					c-0.195-0.195-0.195-0.512,0-0.707s0.512-0.195,0.707,0l2,2c0.195,0.195,0.195,0.512,0,0.707l-2,2
					C20.756,21.951,20.628,22,20.5,22z"/>
			</g>
			<g>
				<path d="M24.5,30c-0.128,0-0.256-0.049-0.354-0.146l-2-2c-0.195-0.195-0.195-0.512,0-0.707l2-2c0.195-0.195,0.512-0.195,0.707,0
					s0.195,0.512,0,0.707L23.207,27.5l1.646,1.646c0.195,0.195,0.195,0.512,0,0.707C24.756,29.951,24.628,30,24.5,30z"/>
			</g>
			<g>
				<path d="M25.5,28h-3c-0.276,0-0.5-0.224-0.5-0.5s0.224-0.5,0.5-0.5h3c1.93,0,3.5-1.57,3.5-3.5S27.43,20,25.5,20
					c-0.276,0-0.5-0.224-0.5-0.5s0.224-0.5,0.5-0.5c2.481,0,4.5,2.019,4.5,4.5S27.981,28,25.5,28z"/>
			</g>
			<g>
				<path d="M19.5,28c-2.481,0-4.5-2.019-4.5-4.5s2.019-4.5,4.5-4.5h3c0.276,0,0.5,0.224,0.5,0.5S22.776,20,22.5,20h-3
					c-1.93,0-3.5,1.57-3.5,3.5s1.57,3.5,3.5,3.5c0.276,0,0.5,0.224,0.5,0.5S19.776,28,19.5,28z"/>
			</g>
		</g>
		<g>
			<g>
				<path d="M18.5,30h-18C0.224,30,0,29.776,0,29.5c0-3.197,2.024-5.971,4.923-6.749l4.55-1.222l0.446-1.917
					c-1.165-1.266-1.962-3.003-2.189-4.765c-0.726-0.122-1.307-0.737-1.398-1.525l-0.294-2.521c-0.06-0.521,0.101-1.037,0.441-1.419
					c0.218-0.245,0.489-0.414,0.789-0.497C7.186,8.139,7.044,6.764,7.044,6.174c0-2.373,0.672-4.805,5.612-4.91
					C14.395,0,16.273,0,17.088,0c2.046,0,3.521,0.717,4.383,2.132c0.878,1.44,0.86,2.699-0.051,3.74L20.948,6.38l-0.115,2.539
					c0.264,0.093,0.503,0.254,0.697,0.476c0.335,0.38,0.492,0.893,0.433,1.406l-0.294,2.521c-0.086,0.739-0.602,1.326-1.264,1.496
					c-0.041,0.299-0.103,0.614-0.187,0.955c-0.065,0.268-0.329,0.432-0.605,0.365c-0.268-0.066-0.432-0.337-0.365-0.605
					c0.109-0.445,0.177-0.839,0.203-1.201c0.02-0.261,0.237-0.463,0.499-0.463c0.394,0,0.682-0.284,0.725-0.662l0.294-2.521
					c0.027-0.233-0.042-0.463-0.189-0.631c-0.126-0.144-0.294-0.224-0.472-0.226c-0.136-0.002-0.265-0.059-0.357-0.157
					c-0.094-0.099-0.143-0.23-0.136-0.365l0.144-3.155c0.005-0.119,0.052-0.231,0.133-0.318l0.587-0.631
					c0.372-0.425,0.782-1.166-0.061-2.551C19.949,1.556,18.762,1,17.088,1c-1.213,0-2.631,0.138-3.957,1.157
					c-0.086,0.066-0.191,0.103-0.3,0.104C8.41,2.309,8.044,4.139,8.044,6.174c0,0.754,0.271,3.071,0.273,3.094
					C8.334,9.41,8.289,9.552,8.194,9.658C8.099,9.766,7.963,9.826,7.82,9.826H7.699c-0.179,0-0.348,0.078-0.475,0.222
					c-0.15,0.169-0.221,0.401-0.193,0.638l0.294,2.521c0.043,0.378,0.331,0.662,0.668,0.662h0.19c0.262,0,0.479,0.202,0.499,0.463
					c0.132,1.775,0.932,3.562,2.139,4.777c0.121,0.122,0.172,0.298,0.133,0.466l-0.575,2.473c-0.042,0.18-0.18,0.321-0.357,0.369
					l-4.839,1.3C2.87,24.338,1.213,26.472,1.019,29H18.5c0.276,0,0.5,0.224,0.5,0.5S18.776,30,18.5,30z"/>
			</g>
		</g>
	</g>
</g>
<g id="User_Statistics_2">
</g>
<g id="User_Defense_2">
</g>
<g id="Car_2">
</g>
<g id="Home_2">
</g>
<g id="Park_2">
</g>
<g id="Recicle_User_2">
</g>
<g id="User_Wifi">
</g>
<g id="Attach_2">
</g>
<g id="Disabled_User_2">
</g>
<g id="User_Card_2">
</g>
<g id="Gaming_2">
</g>
<g id="Cloud_2">
</g>
<g id="Database_2">
</g>
<g id="Copyright_2">
</g>
<g id="No_Copyright_2">
</g>
<g id="Creative_Commun_2">
</g>
<g id="Eco-Friendly_2">
</g>
<g id="Percentage_2">
</g>
<g id="User_Love_2">
</g>
<g id="User_Rate_2">
</g>
<g id="User_Key_2">
</g>
<g id="Sleeping_2">
</g>
</svg>
