<?xml version="1.0" encoding="iso-8859-1"?>
<!-- Generator: Adobe Illustrator 19.2.1, SVG Export Plug-In . SVG Version: 6.00 Build 0)  -->
<svg version="1.1" xmlns="http://www.w3.org/2000/svg" xmlns:xlink="http://www.w3.org/1999/xlink" x="0px" y="0px"
	 viewBox="0 0 30 30" style="enable-background:new 0 0 30 30;" xml:space="preserve">
<g id="Add_User">
</g>
<g id="Remove_User">
</g>
<g id="Delete_User">
</g>
<g id="Done">
</g>
<g id="At_Symbol">
</g>
<g id="Question">
</g>
<g id="Answer">
</g>
<g id="Bring_Up">
</g>
<g id="Bring_Down">
</g>
<g id="Dismiss_User">
</g>
<g id="User_Speed">
</g>
<g id="User_Settings">
</g>
<g id="User_Refresh">
</g>
<g id="User_Time">
</g>
<g id="Dollar">
</g>
<g id="Euro">
</g>
<g id="Pound">
</g>
<g id="Bitcoin">
</g>
<g id="Global_User">
</g>
<g id="Waiting_User">
</g>
<g id="Writing_User_2">
</g>
<g id="Search_User">
</g>
<g id="Lock_User">
</g>
<g id="Mark_User">
</g>
<g id="Share_User">
</g>
<g id="Shopping">
</g>
<g id="User_Download">
</g>
<g id="User_Upload">
</g>
<g id="User_Statistics">
</g>
<g id="User_Defense">
</g>
<g id="User_Car">
</g>
<g id="User_Home">
</g>
<g id="Park">
</g>
<g id="Recicle_User">
</g>
<g id="Wifi">
</g>
<g id="Attach_User">
</g>
<g id="Disabled_User">
</g>
<g id="User_Card">
</g>
<g id="Gaming">
</g>
<g id="User_Cloud">
</g>
<g id="User_Database">
</g>
<g id="Copyright">
</g>
<g id="No_Copyright">
</g>
<g id="Creative_Commun">
</g>
<g id="Eco-Friendly">
</g>
<g id="Percentage">
</g>
<g id="User_Love">
</g>
<g id="User_Place">
</g>
<g id="User_Key">
</g>
<g id="Sleeping">
</g>
<g id="Add_User_2">
</g>
<g id="Remove_User_2">
</g>
<g id="Delete_User_2">
</g>
<g id="Done_2">
</g>
<g id="At_Symbol_2">
</g>
<g id="Question_2">
</g>
<g id="Answer_2">
</g>
<g id="Bring_Up_2">
</g>
<g id="Bring_Down_2">
</g>
<g id="Dismiss_User_2">
</g>
<g id="User_Speed_2">
</g>
<g id="User_Settings_2">
</g>
<g id="Refresh_2">
</g>
<g id="Time_2">
</g>
<g id="Dollar_2">
</g>
<g id="Euro_2">
</g>
<g id="Pound_2">
</g>
<g id="Bitcoin_2">
</g>
<g id="Global_User_2">
</g>
<g id="Waiting_User_2">
</g>
<g id="Writing_User">
</g>
<g id="Search_User_2">
</g>
<g id="Lock_User_2">
</g>
<g id="Mark_User_2">
</g>
<g id="Share_User_2">
</g>
<g id="Shopping_2">
</g>
<g id="Download_2">
</g>
<g id="Upload_2">
</g>
<g id="User_Statistics_2">
</g>
<g id="User_Defense_2">
</g>
<g id="Car_2">
</g>
<g id="Home_2">
</g>
<g id="Park_2">
</g>
<g id="Recicle_User_2">
</g>
<g id="User_Wifi">
</g>
<g id="Attach_2">
</g>
<g id="Disabled_User_2">
</g>
<g id="User_Card_2">
</g>
<g id="Gaming_2">
</g>
<g id="Cloud_2">
</g>
<g id="Database_2">
</g>
<g id="Copyright_2">
</g>
<g id="No_Copyright_2">
</g>
<g id="Creative_Commun_2">
</g>
<g id="Eco-Friendly_2">
</g>
<g id="Percentage_2">
</g>
<g id="User_Love_2">
	<g>
		<g>
			<g>
				<path d="M23.5,30c-3.584,0-6.5-2.916-6.5-6.5s2.916-6.5,6.5-6.5s6.5,2.916,6.5,6.5S27.084,30,23.5,30z M23.5,18
					c-3.032,0-5.5,2.468-5.5,5.5s2.468,5.5,5.5,5.5s5.5-2.468,5.5-5.5S26.532,18,23.5,18z"/>
			</g>
			<g>
				<path d="M23.5,26c-0.841,0-1.5-0.513-1.5-1.167v-2.666C22,21.513,22.659,21,23.5,21s1.5,0.513,1.5,1.167
					c0,0.276-0.224,0.5-0.5,0.5c-0.273,0-0.495-0.219-0.5-0.491C23.972,22.122,23.793,22,23.5,22c-0.301,0-0.481,0.129-0.502,0.181
					L23,24.833C23.019,24.871,23.199,25,23.5,25s0.481-0.129,0.502-0.181c0-0.275,0.223-0.493,0.499-0.493S25,24.557,25,24.833
					C25,25.487,24.341,26,23.5,26z"/>
			</g>
		</g>
		<g>
			<path d="M18.227,30H0.5C0.224,30,0,29.776,0,29.5c0-3.197,2.024-5.971,4.923-6.749l4.55-1.222l0.446-1.917
				c-1.165-1.266-1.962-3.003-2.189-4.765c-0.726-0.122-1.307-0.737-1.398-1.525l-0.294-2.521c-0.06-0.521,0.101-1.037,0.441-1.419
				c0.218-0.244,0.489-0.414,0.789-0.497C7.185,8.139,7.043,6.764,7.043,6.174c0-2.373,0.672-4.805,5.613-4.91
				C14.395,0,16.273,0,17.088,0c2.046,0,3.52,0.717,4.382,2.132c0.879,1.44,0.861,2.699-0.051,3.74L20.948,6.38l-0.115,2.539
				c0.264,0.093,0.503,0.254,0.697,0.476c0.335,0.38,0.492,0.893,0.433,1.406l-0.294,2.521c-0.086,0.738-0.601,1.324-1.262,1.496
				c-0.083,0.657-0.247,1.318-0.489,1.97c-0.097,0.259-0.382,0.391-0.644,0.294c-0.259-0.097-0.391-0.385-0.294-0.644
				c0.261-0.699,0.419-1.408,0.471-2.106c0.02-0.261,0.237-0.463,0.499-0.463c0.394,0,0.682-0.284,0.725-0.662l0.294-2.521
				c0.027-0.233-0.042-0.463-0.189-0.631c-0.126-0.144-0.294-0.224-0.472-0.226c-0.136-0.002-0.265-0.059-0.357-0.157
				c-0.094-0.099-0.143-0.23-0.136-0.365l0.144-3.155c0.005-0.118,0.052-0.231,0.133-0.317l0.586-0.631
				c0.373-0.426,0.783-1.167-0.061-2.551C19.948,1.556,18.761,1,17.088,1c-1.213,0-2.631,0.138-3.957,1.157
				c-0.086,0.066-0.191,0.103-0.3,0.104C8.409,2.309,8.043,4.139,8.043,6.174c0,0.754,0.271,3.07,0.274,3.094
				c0.017,0.142-0.028,0.284-0.123,0.391C8.099,9.766,7.963,9.826,7.82,9.826H7.699c-0.179,0-0.348,0.078-0.475,0.222
				c-0.15,0.169-0.221,0.401-0.193,0.638l0.294,2.521c0.043,0.378,0.331,0.662,0.668,0.662h0.19c0.262,0,0.479,0.202,0.499,0.463
				c0.132,1.775,0.932,3.562,2.139,4.777c0.121,0.122,0.172,0.298,0.133,0.466l-0.575,2.473c-0.042,0.18-0.18,0.321-0.357,0.369
				l-4.839,1.3C2.87,24.338,1.213,26.472,1.019,29h17.208c0.276,0,0.5,0.224,0.5,0.5S18.503,30,18.227,30z"/>
		</g>
	</g>
</g>
<g id="User_Rate_2">
</g>
<g id="User_Key_2">
</g>
<g id="Sleeping_2">
</g>
</svg>
