<?xml version="1.0" encoding="iso-8859-1"?>
<!-- Generator: Adobe Illustrator 19.2.1, SVG Export Plug-In . SVG Version: 6.00 Build 0)  -->
<svg version="1.1" xmlns="http://www.w3.org/2000/svg" xmlns:xlink="http://www.w3.org/1999/xlink" x="0px" y="0px"
	 viewBox="0 0 24 24" style="enable-background:new 0 0 24 24;" xml:space="preserve">
<g id="Add_User">
</g>
<g id="Remove_User">
</g>
<g id="Delete_User">
</g>
<g id="Done">
</g>
<g id="At_Symbol">
</g>
<g id="Question">
</g>
<g id="Answer">
</g>
<g id="Bring_Up">
</g>
<g id="Bring_Down">
</g>
<g id="Dismiss_User">
</g>
<g id="User_Speed">
</g>
<g id="User_Settings">
</g>
<g id="User_Refresh">
</g>
<g id="User_Time">
</g>
<g id="Dollar">
</g>
<g id="Euro">
</g>
<g id="Pound">
</g>
<g id="Bitcoin">
</g>
<g id="Global_User">
</g>
<g id="Waiting_User">
</g>
<g id="Writing_User_2">
</g>
<g id="Search_User">
</g>
<g id="Lock_User">
</g>
<g id="Mark_User">
</g>
<g id="Share_User">
</g>
<g id="Shopping">
</g>
<g id="User_Download">
</g>
<g id="User_Upload">
</g>
<g id="User_Statistics">
</g>
<g id="User_Defense">
</g>
<g id="User_Car">
</g>
<g id="User_Home">
</g>
<g id="Park">
</g>
<g id="Recicle_User">
</g>
<g id="Wifi">
</g>
<g id="Attach_User">
</g>
<g id="Disabled_User">
</g>
<g id="User_Card">
</g>
<g id="Gaming">
</g>
<g id="User_Cloud">
</g>
<g id="User_Database">
</g>
<g id="Copyright">
</g>
<g id="No_Copyright">
</g>
<g id="Creative_Commun">
</g>
<g id="Eco-Friendly">
</g>
<g id="Percentage">
</g>
<g id="User_Love">
</g>
<g id="User_Place">
	<g>
		<path d="M15.036,17.443c-0.011-0.078-0.047-0.152-0.099-0.216l-0.383-1.532c0.877-0.906,1.506-2.102,1.77-3.343
			c0.093-0.075,0.158-0.184,0.178-0.309c0.005-0.033,0.01-0.065,0.015-0.097c0.571-0.158,1.013-0.647,1.089-1.26l0.25-2
			c0.053-0.422-0.077-0.849-0.357-1.169c-0.164-0.188-0.371-0.33-0.6-0.417l0.092-1.883l0.374-0.374
			c0.563-0.6,1.03-1.626,0.054-3.117C16.669,0.581,15.395,0,13.631,0c-0.695,0-2.298,0-3.791,1.002C5.579,1.091,5,3.07,5,5
			c0,0.449,0.109,1.46,0.181,2.07C4.924,7.151,4.69,7.301,4.509,7.507C4.225,7.829,4.092,8.259,4.145,8.686l0.25,2
			c0.081,0.652,0.577,1.165,1.202,1.287c0.208,1.375,0.873,2.724,1.839,3.722l-0.348,1.393l-3.83,0.958
			C1.065,18.593,0,20.377,0,23.5c0,0.133,0.053,0.26,0.146,0.354S0.367,24,0.5,24l10.495-0.001l6.523,0
			c0.187,0,0.358-0.104,0.444-0.27c0.086-0.166,0.072-0.366-0.036-0.518C16.253,20.839,15.227,18.79,15.036,17.443z"/>
		<path d="M20,13c-2.206,0-4,1.794-4,4c0,2.043,3.234,6.323,3.604,6.804C19.697,23.928,19.845,24,20,24s0.303-0.072,0.396-0.196
			C20.766,23.323,24,19.043,24,17C24,14.794,22.206,13,20,13z M20,15c1.104,0,2,0.896,2,2s-0.896,2-2,2s-2-0.896-2-2
			S18.896,15,20,15z"/>
	</g>
</g>
<g id="User_Key">
</g>
<g id="Sleeping">
</g>
<g id="Add_User_2">
</g>
<g id="Remove_User_2">
</g>
<g id="Delete_User_2">
</g>
<g id="Done_2">
</g>
<g id="At_Symbol_2">
</g>
<g id="Question_2">
</g>
<g id="Answer_2">
</g>
<g id="Bring_Up_2">
</g>
<g id="Bring_Down_2">
</g>
<g id="Dismiss_User_2">
</g>
<g id="User_Speed_2">
</g>
<g id="User_Settings_2">
</g>
<g id="Refresh_2">
</g>
<g id="Time_2">
</g>
<g id="Dollar_2">
</g>
<g id="Euro_2">
</g>
<g id="Pound_2">
</g>
<g id="Bitcoin_2">
</g>
<g id="Global_User_2">
</g>
<g id="Waiting_User_2">
</g>
<g id="Writing_User">
</g>
<g id="Search_User_2">
</g>
<g id="Lock_User_2">
</g>
<g id="Mark_User_2">
</g>
<g id="Share_User_2">
</g>
<g id="Shopping_2">
</g>
<g id="Download_2">
</g>
<g id="Upload_2">
</g>
<g id="User_Statistics_2">
</g>
<g id="User_Defense_2">
</g>
<g id="Car_2">
</g>
<g id="Home_2">
</g>
<g id="Park_2">
</g>
<g id="Recicle_User_2">
</g>
<g id="User_Wifi">
</g>
<g id="Attach_2">
</g>
<g id="Disabled_User_2">
</g>
<g id="User_Card_2">
</g>
<g id="Gaming_2">
</g>
<g id="Cloud_2">
</g>
<g id="Database_2">
</g>
<g id="Copyright_2">
</g>
<g id="No_Copyright_2">
</g>
<g id="Creative_Commun_2">
</g>
<g id="Eco-Friendly_2">
</g>
<g id="Percentage_2">
</g>
<g id="User_Love_2">
</g>
<g id="User_Rate_2">
</g>
<g id="User_Key_2">
</g>
<g id="Sleeping_2">
</g>
</svg>
