<?xml version="1.0" encoding="iso-8859-1"?>
<!-- Generator: Adobe Illustrator 19.2.1, SVG Export Plug-In . SVG Version: 6.00 Build 0)  -->
<svg version="1.1" xmlns="http://www.w3.org/2000/svg" xmlns:xlink="http://www.w3.org/1999/xlink" x="0px" y="0px"
	 viewBox="0 0 24 24" style="enable-background:new 0 0 24 24;" xml:space="preserve">
<g id="Add_User">
</g>
<g id="Remove_User">
</g>
<g id="Delete_User">
</g>
<g id="Done">
</g>
<g id="At_Symbol">
</g>
<g id="Question">
</g>
<g id="Answer">
</g>
<g id="Bring_Up">
</g>
<g id="Bring_Down">
</g>
<g id="Dismiss_User">
</g>
<g id="User_Speed">
</g>
<g id="User_Settings">
	<path d="M13.818,22.959c-0.063-0.058-0.127-0.116-0.185-0.181c-0.236-0.269-0.369-0.614-0.374-0.972
		c-0.002-0.173-0.095-0.333-0.244-0.422c-0.306-0.183-0.538-0.469-0.652-0.807C12.119,19.856,12,19.177,12,18.5
		s0.119-1.356,0.364-2.078c0.114-0.337,0.346-0.624,0.652-0.807c0.149-0.089,0.241-0.249,0.244-0.422
		c0.005-0.358,0.138-0.703,0.374-0.972c0.714-0.811,1.573-1.414,2.554-1.791c0.167-0.064,0.286-0.211,0.314-0.387
		c0.005-0.033,0.01-0.065,0.016-0.098c0.571-0.158,1.012-0.647,1.088-1.26l0.25-2c0.053-0.422-0.077-0.849-0.357-1.169
		c-0.164-0.188-0.371-0.33-0.6-0.417l0.092-1.883l0.374-0.375c0.563-0.599,1.03-1.626,0.054-3.116C16.668,0.581,15.394,0,13.63,0
		c-0.696,0-2.298,0-3.79,1.002C5.58,1.091,5,3.07,5,5c0,0.449,0.109,1.46,0.181,2.07C4.924,7.151,4.69,7.301,4.508,7.507
		C4.224,7.83,4.091,8.259,4.145,8.686l0.25,2c0.082,0.652,0.577,1.165,1.203,1.287c0.207,1.375,0.873,2.724,1.839,3.722
		l-0.348,1.393l-3.83,0.958C1.066,18.593,0,20.377,0,23.5c0,0.133,0.053,0.26,0.146,0.354S0.368,24,0.5,24l13.104-0.001
		c0.237,0,0.451-0.211,0.499-0.444c0.034-0.166-0.018-0.337-0.138-0.456L13.818,22.959z"/>
	<path d="M23.689,16.744c-0.045-0.132-0.142-0.239-0.269-0.295c-0.126-0.057-0.271-0.059-0.4-0.004
		c-0.23,0.1-0.503,0.014-0.624-0.194c-0.124-0.214-0.063-0.482,0.144-0.638c0.111-0.084,0.183-0.21,0.197-0.349
		c0.014-0.138-0.03-0.276-0.122-0.381c-0.815-0.928-1.866-1.542-3.038-1.774c-0.138-0.031-0.282,0.004-0.395,0.088
		c-0.113,0.083-0.186,0.211-0.201,0.351C18.956,13.806,18.749,14,18.5,14s-0.456-0.194-0.482-0.453
		c-0.015-0.14-0.087-0.268-0.201-0.351c-0.113-0.084-0.258-0.118-0.395-0.088c-1.172,0.233-2.223,0.847-3.038,1.774
		c-0.092,0.104-0.136,0.243-0.122,0.381s0.085,0.265,0.196,0.348c0.207,0.156,0.268,0.425,0.145,0.638
		c-0.12,0.208-0.394,0.292-0.624,0.194c-0.129-0.055-0.273-0.053-0.4,0.004c-0.127,0.057-0.224,0.164-0.269,0.295
		C13.102,17.36,13,17.935,13,18.5s0.102,1.14,0.311,1.756c0.045,0.132,0.142,0.239,0.269,0.295c0.126,0.057,0.271,0.059,0.4,0.004
		c0.231-0.098,0.504-0.013,0.624,0.194c0.124,0.213,0.063,0.482-0.145,0.638c-0.111,0.083-0.182,0.21-0.196,0.348
		s0.03,0.276,0.122,0.381c0.815,0.928,1.866,1.542,3.038,1.774c0.136,0.027,0.281-0.005,0.395-0.088
		c0.113-0.083,0.186-0.211,0.201-0.351C18.044,23.194,18.251,23,18.5,23s0.456,0.194,0.482,0.453
		c0.015,0.14,0.087,0.268,0.201,0.351c0.086,0.064,0.191,0.098,0.297,0.098c0.033,0,0.065-0.003,0.098-0.01
		c1.172-0.233,2.223-0.847,3.038-1.774c0.092-0.104,0.136-0.243,0.122-0.381c-0.014-0.139-0.085-0.265-0.197-0.349
		c-0.207-0.156-0.268-0.424-0.144-0.638c0.119-0.208,0.392-0.293,0.624-0.194c0.128,0.054,0.273,0.052,0.4-0.004
		c0.127-0.057,0.224-0.164,0.269-0.295C23.898,19.64,24,19.065,24,18.5S23.898,17.36,23.689,16.744z M20,18.5
		c0,0.827-0.673,1.5-1.5,1.5S17,19.327,17,18.5s0.673-1.5,1.5-1.5S20,17.673,20,18.5z"/>
</g>
<g id="User_Refresh">
</g>
<g id="User_Time">
</g>
<g id="Dollar">
</g>
<g id="Euro">
</g>
<g id="Pound">
</g>
<g id="Bitcoin">
</g>
<g id="Global_User">
</g>
<g id="Waiting_User">
</g>
<g id="Writing_User_2">
</g>
<g id="Search_User">
</g>
<g id="Lock_User">
</g>
<g id="Mark_User">
</g>
<g id="Share_User">
</g>
<g id="Shopping">
</g>
<g id="User_Download">
</g>
<g id="User_Upload">
</g>
<g id="User_Statistics">
</g>
<g id="User_Defense">
</g>
<g id="User_Car">
</g>
<g id="User_Home">
</g>
<g id="Park">
</g>
<g id="Recicle_User">
</g>
<g id="Wifi">
</g>
<g id="Attach_User">
</g>
<g id="Disabled_User">
</g>
<g id="User_Card">
</g>
<g id="Gaming">
</g>
<g id="User_Cloud">
</g>
<g id="User_Database">
</g>
<g id="Copyright">
</g>
<g id="No_Copyright">
</g>
<g id="Creative_Commun">
</g>
<g id="Eco-Friendly">
</g>
<g id="Percentage">
</g>
<g id="User_Love">
</g>
<g id="User_Place">
</g>
<g id="User_Key">
</g>
<g id="Sleeping">
</g>
<g id="Add_User_2">
</g>
<g id="Remove_User_2">
</g>
<g id="Delete_User_2">
</g>
<g id="Done_2">
</g>
<g id="At_Symbol_2">
</g>
<g id="Question_2">
</g>
<g id="Answer_2">
</g>
<g id="Bring_Up_2">
</g>
<g id="Bring_Down_2">
</g>
<g id="Dismiss_User_2">
</g>
<g id="User_Speed_2">
</g>
<g id="User_Settings_2">
</g>
<g id="Refresh_2">
</g>
<g id="Time_2">
</g>
<g id="Dollar_2">
</g>
<g id="Euro_2">
</g>
<g id="Pound_2">
</g>
<g id="Bitcoin_2">
</g>
<g id="Global_User_2">
</g>
<g id="Waiting_User_2">
</g>
<g id="Writing_User">
</g>
<g id="Search_User_2">
</g>
<g id="Lock_User_2">
</g>
<g id="Mark_User_2">
</g>
<g id="Share_User_2">
</g>
<g id="Shopping_2">
</g>
<g id="Download_2">
</g>
<g id="Upload_2">
</g>
<g id="User_Statistics_2">
</g>
<g id="User_Defense_2">
</g>
<g id="Car_2">
</g>
<g id="Home_2">
</g>
<g id="Park_2">
</g>
<g id="Recicle_User_2">
</g>
<g id="User_Wifi">
</g>
<g id="Attach_2">
</g>
<g id="Disabled_User_2">
</g>
<g id="User_Card_2">
</g>
<g id="Gaming_2">
</g>
<g id="Cloud_2">
</g>
<g id="Database_2">
</g>
<g id="Copyright_2">
</g>
<g id="No_Copyright_2">
</g>
<g id="Creative_Commun_2">
</g>
<g id="Eco-Friendly_2">
</g>
<g id="Percentage_2">
</g>
<g id="User_Love_2">
</g>
<g id="User_Rate_2">
</g>
<g id="User_Key_2">
</g>
<g id="Sleeping_2">
</g>
</svg>
