<?xml version="1.0" encoding="iso-8859-1"?>
<!-- Generator: Adobe Illustrator 19.2.1, SVG Export Plug-In . SVG Version: 6.00 Build 0)  -->
<svg version="1.1" xmlns="http://www.w3.org/2000/svg" xmlns:xlink="http://www.w3.org/1999/xlink" x="0px" y="0px"
	 viewBox="0 0 30 30" style="enable-background:new 0 0 30 30;" xml:space="preserve">
<g id="Add_User">
</g>
<g id="Remove_User">
</g>
<g id="Delete_User">
</g>
<g id="Done">
</g>
<g id="At_Symbol">
</g>
<g id="Question">
</g>
<g id="Answer">
</g>
<g id="Bring_Up">
</g>
<g id="Bring_Down">
</g>
<g id="Dismiss_User">
</g>
<g id="User_Speed">
</g>
<g id="User_Settings">
</g>
<g id="User_Refresh">
</g>
<g id="User_Time">
</g>
<g id="Dollar">
</g>
<g id="Euro">
</g>
<g id="Pound">
</g>
<g id="Bitcoin">
</g>
<g id="Global_User">
</g>
<g id="Waiting_User">
</g>
<g id="Writing_User_2">
</g>
<g id="Search_User">
</g>
<g id="Lock_User">
</g>
<g id="Mark_User">
</g>
<g id="Share_User">
</g>
<g id="Shopping">
</g>
<g id="User_Download">
</g>
<g id="User_Upload">
</g>
<g id="User_Statistics">
	<g>
		<g>
			<path d="M23.5,29.25c-3.584,0-6.5-2.916-6.5-6.5s2.916-6.5,6.5-6.5s6.5,2.916,6.5,6.5S27.084,29.25,23.5,29.25z M23.5,17.25
				c-3.032,0-5.5,2.467-5.5,5.5s2.468,5.5,5.5,5.5s5.5-2.467,5.5-5.5S26.532,17.25,23.5,17.25z"/>
		</g>
		<g>
			<path d="M23.5,29.25c-1.642,0-2.5-3.27-2.5-6.5s0.858-6.5,2.5-6.5s2.5,3.27,2.5,6.5S25.142,29.25,23.5,29.25z M23.5,17.25
				c-0.509,0-1.5,1.941-1.5,5.5s0.991,5.5,1.5,5.5s1.5-1.941,1.5-5.5S24.009,17.25,23.5,17.25z"/>
		</g>
		<g>
			<path d="M18,29.25H0.5c-0.276,0-0.5-0.224-0.5-0.5s0.224-0.5,0.5-0.5H18c0.276,0,0.5,0.224,0.5,0.5S18.276,29.25,18,29.25z"/>
		</g>
		<g>
			<path d="M0.5,29.221c-0.276,0-0.5-0.224-0.5-0.5v-3.026c0-0.276,0.224-0.5,0.5-0.5s0.5,0.224,0.5,0.5v3.026
				C1,28.997,0.776,29.221,0.5,29.221z"/>
		</g>
		<g>
			<path d="M0.5,26.195c-0.276,0-0.5-0.224-0.5-0.5c0-1.585,0.688-2.618,2.045-3.07c0.262-0.084,0.545,0.054,0.633,0.316
				c0.087,0.262-0.055,0.545-0.316,0.633C1.42,23.887,1,24.542,1,25.695C1,25.971,0.776,26.195,0.5,26.195z"/>
		</g>
		<g>
			<path d="M2.203,23.599c-0.209,0-0.404-0.132-0.475-0.342c-0.087-0.262,0.055-0.545,0.316-0.632l5.547-1.849
				c0.262-0.087,0.545,0.053,0.633,0.316c0.087,0.262-0.055,0.545-0.316,0.632l-5.547,1.849C2.309,23.591,2.256,23.599,2.203,23.599
				z"/>
		</g>
		<g>
			<path d="M7.75,21.75c-0.195,0-0.382-0.116-0.462-0.308c-0.105-0.255,0.015-0.548,0.27-0.654c1.596-0.665,2.192-3.405,2.192-3.914
				c0-0.276,0.224-0.5,0.5-0.5s0.5,0.224,0.5,0.5c0,0.776-0.702,3.959-2.808,4.836C7.88,21.738,7.814,21.75,7.75,21.75z"/>
		</g>
		<g>
			<path d="M10.25,17.375c-0.112,0-0.226-0.038-0.318-0.115c-0.364-0.301-2.182-1.884-2.182-3.51c0-0.276,0.224-0.5,0.5-0.5
				s0.5,0.224,0.5,0.5c0,0.85,0.942,2.016,1.818,2.74c0.213,0.176,0.243,0.491,0.067,0.704
				C10.536,17.313,10.394,17.375,10.25,17.375z"/>
		</g>
		<g>
			<path d="M8.25,14.25c-0.276,0-0.5-0.224-0.5-0.5c0-0.654-0.264-0.769-0.274-0.773c-0.268-0.067-0.417-0.334-0.35-0.602
				c0.067-0.268,0.354-0.429,0.62-0.359c0.373,0.093,1.004,0.563,1.004,1.735C8.75,14.026,8.526,14.25,8.25,14.25z"/>
		</g>
		<g>
			<path d="M7.625,13c-0.187,0-0.366-0.105-0.451-0.285C7.146,12.657,6.5,11.289,6.5,10.25c0-0.276,0.224-0.5,0.5-0.5
				s0.5,0.224,0.5,0.5c0,0.673,0.416,1.698,0.576,2.035c0.119,0.25,0.013,0.548-0.236,0.667C7.771,12.984,7.697,13,7.625,13z"/>
		</g>
		<g>
			<path d="M7,10.75c-0.005,0-0.011,0-0.016,0c-0.276-0.009-0.493-0.24-0.484-0.516C6.521,9.55,6.796,8.75,7.5,8.75
				c0.276,0,0.5,0.224,0.5,0.5c0,0.24-0.169,0.441-0.396,0.489c-0.053,0.11-0.1,0.359-0.104,0.527C7.491,10.536,7.27,10.75,7,10.75z
				"/>
		</g>
		<g>
			<path d="M7.5,9.75C7.224,9.75,7,9.526,7,9.25v-3.5c0-0.276,0.224-0.5,0.5-0.5S8,5.474,8,5.75v3.5C8,9.526,7.776,9.75,7.5,9.75z"
				/>
		</g>
		<g>
			<path d="M7.5,6.25C7.224,6.25,7,6.026,7,5.75c0-2.617,2.729-6.5,6.5-6.5c0.276,0,0.5,0.224,0.5,0.5s-0.224,0.5-0.5,0.5
				c-3.358,0-5.5,3.611-5.5,5.5C8,6.026,7.776,6.25,7.5,6.25z"/>
		</g>
		<g>
			<path d="M17.75,3c-0.276,0-0.5-0.224-0.5-0.5c0-0.583-0.688-2.25-3.75-2.25c-0.276,0-0.5-0.224-0.5-0.5s0.224-0.5,0.5-0.5
				c3.896,0,4.75,2.346,4.75,3.25C18.25,2.776,18.026,3,17.75,3z"/>
		</g>
		<g>
			<path d="M19.5,6.25c-0.276,0-0.5-0.224-0.5-0.5c0-1.902-0.831-2.334-1.277-2.566c-0.201-0.105-0.451-0.235-0.498-0.539
				c-0.024-0.157,0.06-0.385,0.172-0.498c0.195-0.195,0.512-0.195,0.707,0c0.049,0.049,0.085,0.105,0.109,0.165
				C18.771,2.603,20,3.285,20,5.75C20,6.026,19.776,6.25,19.5,6.25z"/>
		</g>
		<g>
			<path d="M19.5,9.75c-0.276,0-0.5-0.224-0.5-0.5v-3.5c0-0.276,0.224-0.5,0.5-0.5S20,5.474,20,5.75v3.5
				C20,9.526,19.776,9.75,19.5,9.75z"/>
		</g>
		<g>
			<path d="M20,10.75c-0.269,0-0.49-0.213-0.5-0.483c-0.007-0.188-0.055-0.424-0.105-0.528C19.169,9.69,19,9.49,19,9.25
				c0-0.276,0.224-0.5,0.5-0.5c0.704,0,0.979,0.8,1,1.484c0.009,0.275-0.208,0.505-0.483,0.515C20.011,10.75,20.006,10.75,20,10.75z
				"/>
		</g>
		<g>
			<path d="M19,13c-0.105,0-0.212-0.033-0.303-0.102c-0.22-0.167-0.262-0.481-0.096-0.701c0.348-0.457,0.898-1.39,0.898-1.947
				c0-0.276,0.224-0.5,0.5-0.5s0.5,0.224,0.5,0.5c0,1.075-0.989,2.405-1.103,2.553C19.3,12.932,19.15,13,19,13z"/>
		</g>
		<g>
			<path d="M18.375,14.25c-0.276,0-0.5-0.224-0.5-0.5c0-1.171,0.631-1.642,1.004-1.735c0.262-0.068,0.539,0.095,0.606,0.364
				c0.066,0.268-0.096,0.539-0.364,0.606h0.001c0.008,0-0.247,0.121-0.247,0.765C18.875,14.026,18.651,14.25,18.375,14.25z"/>
		</g>
		<g>
			<path d="M17,17.25c-0.144,0-0.286-0.062-0.386-0.182c-0.176-0.213-0.146-0.528,0.067-0.704c0.736-0.608,1.193-1.61,1.193-2.615
				c0-0.276,0.224-0.5,0.5-0.5s0.5,0.224,0.5,0.5c0,1.315-0.582,2.58-1.557,3.385C17.226,17.212,17.112,17.25,17,17.25z"/>
		</g>
		<g>
			<path d="M23.5,25.25c-3.23,0-6.5-0.859-6.5-2.5c0-3.282,13-3.282,13,0C30,24.391,26.73,25.25,23.5,25.25z M23.5,21.25
				c-3.559,0-5.5,0.991-5.5,1.5s1.941,1.5,5.5,1.5s5.5-0.991,5.5-1.5S27.059,21.25,23.5,21.25z"/>
		</g>
	</g>
</g>
<g id="User_Defense">
</g>
<g id="User_Car">
</g>
<g id="User_Home">
</g>
<g id="Park">
</g>
<g id="Recicle_User">
</g>
<g id="Wifi">
</g>
<g id="Attach_User">
</g>
<g id="Disabled_User">
</g>
<g id="User_Card">
</g>
<g id="Gaming">
</g>
<g id="User_Cloud">
</g>
<g id="User_Database">
</g>
<g id="Copyright">
</g>
<g id="No_Copyright">
</g>
<g id="Creative_Commun">
</g>
<g id="Eco-Friendly">
</g>
<g id="Percentage">
</g>
<g id="User_Love">
</g>
<g id="User_Place">
</g>
<g id="User_Key">
</g>
<g id="Sleeping">
</g>
<g id="Add_User_2">
</g>
<g id="Remove_User_2">
</g>
<g id="Delete_User_2">
</g>
<g id="Done_2">
</g>
<g id="At_Symbol_2">
</g>
<g id="Question_2">
</g>
<g id="Answer_2">
</g>
<g id="Bring_Up_2">
</g>
<g id="Bring_Down_2">
</g>
<g id="Dismiss_User_2">
</g>
<g id="User_Speed_2">
</g>
<g id="User_Settings_2">
</g>
<g id="Refresh_2">
</g>
<g id="Time_2">
</g>
<g id="Dollar_2">
</g>
<g id="Euro_2">
</g>
<g id="Pound_2">
</g>
<g id="Bitcoin_2">
</g>
<g id="Global_User_2">
</g>
<g id="Waiting_User_2">
</g>
<g id="Writing_User">
</g>
<g id="Search_User_2">
</g>
<g id="Lock_User_2">
</g>
<g id="Mark_User_2">
</g>
<g id="Share_User_2">
</g>
<g id="Shopping_2">
</g>
<g id="Download_2">
</g>
<g id="Upload_2">
</g>
<g id="User_Statistics_2">
</g>
<g id="User_Defense_2">
</g>
<g id="Car_2">
</g>
<g id="Home_2">
</g>
<g id="Park_2">
</g>
<g id="Recicle_User_2">
</g>
<g id="User_Wifi">
</g>
<g id="Attach_2">
</g>
<g id="Disabled_User_2">
</g>
<g id="User_Card_2">
</g>
<g id="Gaming_2">
</g>
<g id="Cloud_2">
</g>
<g id="Database_2">
</g>
<g id="Copyright_2">
</g>
<g id="No_Copyright_2">
</g>
<g id="Creative_Commun_2">
</g>
<g id="Eco-Friendly_2">
</g>
<g id="Percentage_2">
</g>
<g id="User_Love_2">
</g>
<g id="User_Rate_2">
</g>
<g id="User_Key_2">
</g>
<g id="Sleeping_2">
</g>
</svg>
