<?xml version="1.0" encoding="iso-8859-1"?>
<!-- Generator: Adobe Illustrator 19.2.1, SVG Export Plug-In . SVG Version: 6.00 Build 0)  -->
<svg version="1.1" xmlns="http://www.w3.org/2000/svg" xmlns:xlink="http://www.w3.org/1999/xlink" x="0px" y="0px"
	 viewBox="0 0 30 30" style="enable-background:new 0 0 30 30;" xml:space="preserve">
<g id="Add_User">
</g>
<g id="Remove_User">
</g>
<g id="Delete_User">
</g>
<g id="Done">
</g>
<g id="At_Symbol">
</g>
<g id="Question">
</g>
<g id="Answer">
</g>
<g id="Bring_Up">
</g>
<g id="Bring_Down">
</g>
<g id="Dismiss_User">
</g>
<g id="User_Speed">
</g>
<g id="User_Settings">
</g>
<g id="User_Refresh">
</g>
<g id="User_Time">
</g>
<g id="Dollar">
</g>
<g id="Euro">
</g>
<g id="Pound">
</g>
<g id="Bitcoin">
</g>
<g id="Global_User">
</g>
<g id="Waiting_User">
</g>
<g id="Writing_User_2">
</g>
<g id="Search_User">
</g>
<g id="Lock_User">
</g>
<g id="Mark_User">
</g>
<g id="Share_User">
</g>
<g id="Shopping">
</g>
<g id="User_Download">
</g>
<g id="User_Upload">
</g>
<g id="User_Statistics">
</g>
<g id="User_Defense">
</g>
<g id="User_Car">
</g>
<g id="User_Home">
</g>
<g id="Park">
</g>
<g id="Recicle_User">
</g>
<g id="Wifi">
</g>
<g id="Attach_User">
</g>
<g id="Disabled_User">
</g>
<g id="User_Card">
</g>
<g id="Gaming">
</g>
<g id="User_Cloud">
</g>
<g id="User_Database">
</g>
<g id="Copyright">
</g>
<g id="No_Copyright">
</g>
<g id="Creative_Commun">
</g>
<g id="Eco-Friendly">
</g>
<g id="Percentage">
</g>
<g id="User_Love">
</g>
<g id="User_Place">
</g>
<g id="User_Key">
</g>
<g id="Sleeping">
</g>
<g id="Add_User_2">
</g>
<g id="Remove_User_2">
</g>
<g id="Delete_User_2">
</g>
<g id="Done_2">
</g>
<g id="At_Symbol_2">
</g>
<g id="Question_2">
</g>
<g id="Answer_2">
</g>
<g id="Bring_Up_2">
</g>
<g id="Bring_Down_2">
</g>
<g id="Dismiss_User_2">
</g>
<g id="User_Speed_2">
</g>
<g id="User_Settings_2">
</g>
<g id="Refresh_2">
</g>
<g id="Time_2">
</g>
<g id="Dollar_2">
</g>
<g id="Euro_2">
</g>
<g id="Pound_2">
</g>
<g id="Bitcoin_2">
</g>
<g id="Global_User_2">
</g>
<g id="Waiting_User_2">
</g>
<g id="Writing_User">
</g>
<g id="Search_User_2">
</g>
<g id="Lock_User_2">
</g>
<g id="Mark_User_2">
</g>
<g id="Share_User_2">
</g>
<g id="Shopping_2">
</g>
<g id="Download_2">
</g>
<g id="Upload_2">
</g>
<g id="User_Statistics_2">
</g>
<g id="User_Defense_2">
	<g>
		<g>
			<path d="M21.551,30H0.5C0.224,30,0,29.776,0,29.5c0-2.96,1.884-6.646,4.927-7.438l4.549-1.185l0.44-1.836
				c-1.161-1.227-1.955-2.907-2.185-4.613c-0.726-0.117-1.308-0.719-1.399-1.49l-0.294-2.445c-0.06-0.501,0.096-1.001,0.426-1.373
				C6.681,8.875,6.96,8.702,7.266,8.617C7.183,7.89,7.043,6.57,7.043,6.002c0-2.309,0.672-4.676,5.618-4.776
				C14.398,0,16.274,0,17.088,0c2.043,0,3.516,0.695,4.378,2.068c0.886,1.407,0.868,2.638-0.052,3.657l-0.467,0.487l-0.114,2.438
				c0.271,0.094,0.518,0.258,0.712,0.48c0.324,0.37,0.477,0.866,0.417,1.36l-0.294,2.445c-0.086,0.722-0.601,1.295-1.262,1.462
				c-0.229,1.756-1.053,3.474-2.265,4.717l0.445,1.173c0.098,0.259-0.032,0.547-0.29,0.646c-0.257,0.094-0.547-0.031-0.646-0.29
				l-0.562-1.479c-0.071-0.19-0.021-0.404,0.126-0.543c1.266-1.183,2.102-2.944,2.235-4.712c0.021-0.261,0.237-0.462,0.499-0.462
				c0.395,0,0.683-0.271,0.726-0.631l0.294-2.445c0.025-0.213-0.039-0.426-0.177-0.583c-0.127-0.145-0.3-0.227-0.485-0.229
				c-0.136-0.002-0.265-0.059-0.358-0.157c-0.093-0.099-0.142-0.23-0.135-0.366l0.144-3.06c0.005-0.121,0.055-0.235,0.138-0.322
				l0.586-0.611c0.399-0.443,0.764-1.132-0.062-2.444C19.952,1.538,18.764,1,17.088,1c-1.214,0-2.635,0.134-3.963,1.124
				c-0.085,0.063-0.188,0.098-0.294,0.099C8.409,2.269,8.043,4.036,8.043,6.002c0,0.729,0.271,2.974,0.273,2.996
				c0.018,0.143-0.027,0.285-0.122,0.393C8.1,9.497,7.964,9.559,7.82,9.559H7.699c-0.187,0-0.359,0.08-0.487,0.225
				c-0.142,0.158-0.207,0.373-0.182,0.59l0.294,2.445c0.043,0.359,0.331,0.631,0.669,0.631h0.19c0.262,0,0.479,0.201,0.498,0.462
				c0.132,1.716,0.93,3.442,2.135,4.619c0.126,0.123,0.178,0.303,0.137,0.474l-0.575,2.397c-0.043,0.18-0.182,0.321-0.36,0.367
				l-4.839,1.26C2.837,23.639,1.216,26.504,1.02,29h20.531c0.276,0,0.5,0.224,0.5,0.5S21.827,30,21.551,30z"/>
		</g>
		<g>
			<g>
				<path d="M26,26.753c-0.127,0-0.255-0.048-0.352-0.145c-0.819-0.812-2.146-0.81-2.964,0c-0.195,0.195-0.514,0.191-0.707-0.004
					c-0.194-0.195-0.192-0.513,0.004-0.707c1.206-1.194,3.166-1.192,4.37,0c0.196,0.194,0.198,0.512,0.004,0.707
					C26.258,26.703,26.129,26.753,26,26.753z"/>
			</g>
			<g>
				<path d="M27.667,25.078c-0.127,0-0.255-0.048-0.353-0.145c-1.826-1.814-4.803-1.814-6.629,0
					c-0.196,0.195-0.512,0.19-0.708-0.003c-0.194-0.196-0.192-0.513,0.003-0.708c2.217-2.197,5.822-2.197,8.039,0
					c0.195,0.195,0.197,0.512,0.003,0.708C27.924,25.028,27.796,25.078,27.667,25.078z"/>
			</g>
			<g>
				<path d="M29.5,23.26c-0.127,0-0.255-0.048-0.353-0.145c-2.838-2.816-7.457-2.816-10.295,0c-0.197,0.195-0.514,0.19-0.707-0.003
					c-0.195-0.196-0.193-0.513,0.002-0.707c3.229-3.201,8.477-3.201,11.705,0c0.195,0.194,0.197,0.511,0.002,0.707
					C29.757,23.21,29.629,23.26,29.5,23.26z"/>
			</g>
			<g>
				<path d="M24,30c-0.552,0-1-0.448-1-1s0.448-1,1-1s1,0.448,1,1S24.552,30,24,30z M24,28.999L24,28.999L24.5,29L24,28.999z"/>
			</g>
		</g>
	</g>
</g>
<g id="Car_2">
</g>
<g id="Home_2">
</g>
<g id="Park_2">
</g>
<g id="Recicle_User_2">
</g>
<g id="User_Wifi">
</g>
<g id="Attach_2">
</g>
<g id="Disabled_User_2">
</g>
<g id="User_Card_2">
</g>
<g id="Gaming_2">
</g>
<g id="Cloud_2">
</g>
<g id="Database_2">
</g>
<g id="Copyright_2">
</g>
<g id="No_Copyright_2">
</g>
<g id="Creative_Commun_2">
</g>
<g id="Eco-Friendly_2">
</g>
<g id="Percentage_2">
</g>
<g id="User_Love_2">
</g>
<g id="User_Rate_2">
</g>
<g id="User_Key_2">
</g>
<g id="Sleeping_2">
</g>
</svg>
