<?xml version="1.0" encoding="iso-8859-1"?>
<!-- Generator: Adobe Illustrator 19.2.1, SVG Export Plug-In . SVG Version: 6.00 Build 0)  -->
<svg version="1.1" xmlns="http://www.w3.org/2000/svg" xmlns:xlink="http://www.w3.org/1999/xlink" x="0px" y="0px"
	 viewBox="0 0 24 24" style="enable-background:new 0 0 24 24;" xml:space="preserve">
<g id="Add_Users">
</g>
<g id="Remove_Users">
</g>
<g id="Delete_Users">
</g>
<g id="Done_3">
</g>
<g id="At_Symbol_3">
</g>
<g id="Question_3">
</g>
<g id="Answer_3">
</g>
<g id="Bring_Up_3">
</g>
<g id="Bring_Down_3">
</g>
<g id="Dismiss_Users">
</g>
<g id="Users_Speed_3">
</g>
<g id="Users_Settings">
</g>
<g id="Refresh_Users">
</g>
<g id="Time_3">
</g>
<g id="Dollar_3">
</g>
<g id="Euro_3">
</g>
<g id="Pound_3">
</g>
<g id="Bitcoin_3">
</g>
<g id="Global_Users">
</g>
<g id="Waiting_Users">
</g>
<g id="Writing_Users">
</g>
<g id="Search_Users">
</g>
<g id="Lock_Users">
</g>
<g id="Mark_Users">
</g>
<g id="Share_Users">
</g>
<g id="Shopping_3">
</g>
<g id="Download_3">
</g>
<g id="Upload_3">
</g>
<g id="Users_Statistics">
</g>
<g id="Users_Defense">
</g>
<g id="Car_3">
</g>
<g id="Home_3">
</g>
<g id="Park_3">
</g>
<g id="Recicle_Users">
</g>
<g id="Wifi_3">
</g>
<g id="Attach_3">
</g>
<g id="Disabled_Users">
</g>
<g id="Users_Card">
</g>
<g id="Gaming_3">
</g>
<g id="Cloud_3">
</g>
<g id="Database_3">
</g>
<g id="Copyright_3">
</g>
<g id="No_Copzright_3">
</g>
<g id="Creative_Commun_3">
</g>
<g id="Eco-Friendly_3">
</g>
<g id="Percentage_3">
</g>
<g id="Users_Love">
</g>
<g id="Users_Place">
	<g>
		<path d="M20,13c-2.206,0-4,1.794-4,4c0,2.043,3.234,6.323,3.604,6.804C19.697,23.928,19.845,24,20,24s0.303-0.072,0.396-0.196
			C20.766,23.323,24,19.043,24,17C24,14.794,22.206,13,20,13z M20,19c-1.103,0-2-0.897-2-2s0.897-2,2-2s2,0.897,2,2S21.103,19,20,19
			z"/>
		<path d="M15.004,8.17c-0.07,0.569-0.355,1.085-0.801,1.452c-0.079,0.064-0.136,0.152-0.164,0.25
			c-0.142,0.503-0.348,0.991-0.613,1.451c-0.079,0.136-0.089,0.301-0.027,0.445c0.061,0.145,0.187,0.252,0.339,0.29l1.262,0.315
			c0.502,0.125,0.999,0.338,1.479,0.633c0.08,0.05,0.171,0.074,0.262,0.074c0.104,0,0.209-0.033,0.298-0.098
			c0.181-0.135,0.368-0.261,0.566-0.37c0.199-0.109,0.3-0.339,0.245-0.56l-0.055-0.217c0.73-0.746,1.234-1.747,1.402-2.777
			c0.431-0.154,0.756-0.539,0.814-1.015l0.185-1.479C20.24,6.217,20.132,5.864,19.9,5.6c-0.113-0.13-0.252-0.234-0.405-0.306
			l0.061-1.251l0.243-0.244c0.449-0.477,0.822-1.291,0.054-2.464C19.273,0.449,18.295,0,16.944,0c-0.496,0-1.156,0.03-1.865,0.271
			c-0.142,0.048-0.255,0.157-0.308,0.298c-0.053,0.14-0.04,0.297,0.035,0.426c0.683,1.181,0.633,2.394-0.138,3.328
			c-0.154,0.187-0.152,0.457,0.004,0.642c0.405,0.478,0.593,1.106,0.516,1.727L15.004,8.17z"/>
		<path d="M15.557,13.64c-0.284-0.136-0.547-0.232-0.802-0.296l-2.756-0.69l-0.203-0.816c0.729-0.746,1.233-1.747,1.401-2.777
			c0.431-0.154,0.756-0.539,0.814-1.015l0.185-1.479C14.24,6.217,14.132,5.864,13.9,5.6c-0.113-0.13-0.252-0.234-0.405-0.306
			l0.061-1.251l0.243-0.244c0.449-0.477,0.822-1.291,0.054-2.464C13.273,0.449,12.295,0,10.944,0c-0.521,0-1.716,0-2.843,0.742
			C4.855,0.823,4.435,2.429,4.435,3.826c0,0.317,0.069,0.984,0.122,1.442C4.385,5.341,4.229,5.45,4.104,5.594
			c-0.235,0.266-0.345,0.621-0.3,0.973l0.185,1.479c0.063,0.508,0.43,0.912,0.903,1.042c0.167,0.987,0.645,1.952,1.33,2.683
			l-0.221,0.884l-2.756,0.688C1.334,13.819,0,15.528,0,17.498c0,0.276,0.224,0.5,0.5,0.5L14.539,18c0.145,0,0.282-0.063,0.377-0.172
			c0.096-0.109,0.139-0.255,0.118-0.398C15.013,17.281,15,17.138,15,17c0-0.932,0.265-1.846,0.765-2.644
			c0.075-0.121,0.096-0.269,0.057-0.405C15.781,13.814,15.686,13.701,15.557,13.64z"/>
	</g>
</g>
<g id="Users_Key">
</g>
<g id="Sleeping_3">
</g>
</svg>
