<?xml version="1.0" encoding="iso-8859-1"?>
<!-- Generator: Adobe Illustrator 19.2.1, SVG Export Plug-In . SVG Version: 6.00 Build 0)  -->
<svg version="1.1" xmlns="http://www.w3.org/2000/svg" xmlns:xlink="http://www.w3.org/1999/xlink" x="0px" y="0px"
	 viewBox="0 0 24 24" style="enable-background:new 0 0 24 24;" xml:space="preserve">
<g id="Add_User">
</g>
<g id="Remove_User">
</g>
<g id="Delete_User">
</g>
<g id="Done">
</g>
<g id="At_Symbol">
</g>
<g id="Question">
</g>
<g id="Answer">
</g>
<g id="Bring_Up">
</g>
<g id="Bring_Down">
</g>
<g id="Dismiss_User">
</g>
<g id="User_Speed">
</g>
<g id="User_Settings">
</g>
<g id="User_Refresh">
</g>
<g id="User_Time">
</g>
<g id="Dollar">
</g>
<g id="Euro">
</g>
<g id="Pound">
</g>
<g id="Bitcoin">
</g>
<g id="Global_User">
</g>
<g id="Waiting_User">
</g>
<g id="Writing_User_2">
</g>
<g id="Search_User">
</g>
<g id="Lock_User">
</g>
<g id="Mark_User">
</g>
<g id="Share_User">
</g>
<g id="Shopping">
</g>
<g id="User_Download">
</g>
<g id="User_Upload">
</g>
<g id="User_Statistics">
</g>
<g id="User_Defense">
</g>
<g id="User_Car">
</g>
<g id="User_Home">
</g>
<g id="Park">
</g>
<g id="Recicle_User">
</g>
<g id="Wifi">
</g>
<g id="Attach_User">
</g>
<g id="Disabled_User">
</g>
<g id="User_Card">
</g>
<g id="Gaming">
</g>
<g id="User_Cloud">
</g>
<g id="User_Database">
</g>
<g id="Copyright">
</g>
<g id="No_Copyright">
</g>
<g id="Creative_Commun">
</g>
<g id="Eco-Friendly">
</g>
<g id="Percentage">
</g>
<g id="User_Love">
</g>
<g id="User_Place">
</g>
<g id="User_Key">
</g>
<g id="Sleeping">
</g>
<g id="Add_User_2">
</g>
<g id="Remove_User_2">
</g>
<g id="Delete_User_2">
</g>
<g id="Done_2">
</g>
<g id="At_Symbol_2">
</g>
<g id="Question_2">
</g>
<g id="Answer_2">
</g>
<g id="Bring_Up_2">
</g>
<g id="Bring_Down_2">
</g>
<g id="Dismiss_User_2">
</g>
<g id="User_Speed_2">
	<g>
		<path d="M15.809,17.076l-0.117-0.038c-1.073-0.447-1.564-2.175-1.67-2.831C14.787,13.506,15.5,12.45,15.5,11.5
			c0-0.354,0.105-0.5,0.121-0.515c0.156-0.039,0.284-0.15,0.343-0.299C16.019,10.549,16.5,9.323,16.5,8.5
			c0-0.041-0.005-0.082-0.015-0.121C16.43,8.16,16.277,7.839,16,7.651V5c0-1.611-0.492-2.272-1.01-2.655C14.891,1.569,14.06,0,11,0
			C7.902,0,6,2.912,6,5v2.651C5.723,7.839,5.57,8.16,5.515,8.379C5.505,8.418,5.5,8.459,5.5,8.5c0,0.823,0.481,2.049,0.536,2.186
			c0.06,0.149,0.148,0.248,0.304,0.287C6.395,11,6.5,11.146,6.5,11.5c0,0.95,0.713,2.006,1.478,2.708
			c-0.105,0.655-0.593,2.382-1.636,2.818l-4.438,1.479c-1.219,0.406-1.628,1.428-1.889,2.471C0.005,21.016,0,21.057,0,21.098V23.5
			C0,23.776,0.224,24,0.5,24h14.003c0.275,0,0.499-0.223,0.5-0.498c0-0.098,0.006-0.197,0.026-0.296l1.111-5.558
			C16.19,17.401,16.048,17.156,15.809,17.076z"/>
		<path d="M23.658,13.026l-3-1c-0.144-0.048-0.3-0.028-0.428,0.053c-0.127,0.082-0.211,0.216-0.228,0.366l-0.421,3.787l-1.358-0.679
			c-0.139-0.07-0.303-0.07-0.443-0.002c-0.14,0.068-0.24,0.198-0.271,0.351l-1.5,7.5c-0.047,0.234,0.078,0.469,0.299,0.56
			C16.371,23.988,16.435,24,16.5,24c0.163,0,0.321-0.08,0.416-0.223l2.755-4.133l1.605,0.803c0.132,0.066,0.286,0.072,0.42,0.012
			c0.135-0.058,0.238-0.172,0.281-0.313l2-6.5C24.058,13.387,23.916,13.111,23.658,13.026z"/>
	</g>
</g>
<g id="User_Settings_2">
</g>
<g id="Refresh_2">
</g>
<g id="Time_2">
</g>
<g id="Dollar_2">
</g>
<g id="Euro_2">
</g>
<g id="Pound_2">
</g>
<g id="Bitcoin_2">
</g>
<g id="Global_User_2">
</g>
<g id="Waiting_User_2">
</g>
<g id="Writing_User">
</g>
<g id="Search_User_2">
</g>
<g id="Lock_User_2">
</g>
<g id="Mark_User_2">
</g>
<g id="Share_User_2">
</g>
<g id="Shopping_2">
</g>
<g id="Download_2">
</g>
<g id="Upload_2">
</g>
<g id="User_Statistics_2">
</g>
<g id="User_Defense_2">
</g>
<g id="Car_2">
</g>
<g id="Home_2">
</g>
<g id="Park_2">
</g>
<g id="Recicle_User_2">
</g>
<g id="User_Wifi">
</g>
<g id="Attach_2">
</g>
<g id="Disabled_User_2">
</g>
<g id="User_Card_2">
</g>
<g id="Gaming_2">
</g>
<g id="Cloud_2">
</g>
<g id="Database_2">
</g>
<g id="Copyright_2">
</g>
<g id="No_Copyright_2">
</g>
<g id="Creative_Commun_2">
</g>
<g id="Eco-Friendly_2">
</g>
<g id="Percentage_2">
</g>
<g id="User_Love_2">
</g>
<g id="User_Rate_2">
</g>
<g id="User_Key_2">
</g>
<g id="Sleeping_2">
</g>
</svg>
