<?xml version="1.0" encoding="iso-8859-1"?>
<!-- Generator: Adobe Illustrator 19.2.1, SVG Export Plug-In . SVG Version: 6.00 Build 0)  -->
<svg version="1.1" xmlns="http://www.w3.org/2000/svg" xmlns:xlink="http://www.w3.org/1999/xlink" x="0px" y="0px"
	 viewBox="0 0 30 30" style="enable-background:new 0 0 30 30;" xml:space="preserve">
<g id="Add_Users">
</g>
<g id="Remove_Users">
</g>
<g id="Delete_Users">
</g>
<g id="Done_3">
</g>
<g id="At_Symbol_3">
</g>
<g id="Question_3">
</g>
<g id="Answer_3">
</g>
<g id="Bring_Up_3">
</g>
<g id="Bring_Down_3">
</g>
<g id="Dismiss_Users">
</g>
<g id="Users_Speed_3">
</g>
<g id="Users_Settings">
</g>
<g id="Refresh_Users">
</g>
<g id="Time_3">
</g>
<g id="Dollar_3">
</g>
<g id="Euro_3">
</g>
<g id="Pound_3">
</g>
<g id="Bitcoin_3">
</g>
<g id="Global_Users">
</g>
<g id="Waiting_Users">
</g>
<g id="Writing_Users">
</g>
<g id="Search_Users">
</g>
<g id="Lock_Users">
</g>
<g id="Mark_Users">
</g>
<g id="Share_Users">
</g>
<g id="Shopping_3">
</g>
<g id="Download_3">
</g>
<g id="Upload_3">
</g>
<g id="Users_Statistics">
	<g>
		<path d="M21.5,24H24v3c0,0.145,0.062,0.281,0.171,0.377c0.092,0.08,0.209,0.123,0.329,0.123c0.022,0,0.045-0.002,0.067-0.005
			c1.23-0.167,2.353-0.968,3.022-1.446l0.197-0.14C27.92,25.816,28,25.663,28,25.5v-2c0-0.276-0.224-0.5-0.5-0.5H25v-2.5
			c0-0.276-0.224-0.5-0.5-0.5h-3c-0.276,0-0.5,0.224-0.5,0.5v3C21,23.776,21.224,24,21.5,24z"/>
		<path d="M29.5,18h-10c-0.276,0-0.5,0.224-0.5,0.5v7.333c0,1.871,4.425,3.769,5.312,4.13C24.372,29.987,24.436,30,24.5,30
			s0.128-0.013,0.188-0.037C25.575,29.602,30,27.704,30,25.833V18.5C30,18.224,29.776,18,29.5,18z M29,25.833
			c0,0.775-2.3,2.202-4.5,3.126c-2.2-0.923-4.5-2.35-4.5-3.126V19h9V25.833z"/>
		<path d="M17.721,6.077c0.448,0.491,0.658,1.142,0.575,1.784l-0.229,1.772c-0.079,0.614-0.424,1.181-0.946,1.553
			c-0.095,0.068-0.162,0.166-0.192,0.279c-0.217,0.816-0.599,1.617-1.104,2.316c-0.098,0.135-0.121,0.31-0.063,0.466
			s0.189,0.273,0.351,0.313l2.222,0.538c1.052,0.255,2.028,0.854,2.824,1.735C21.252,16.94,21.387,17,21.528,17h4.529
			c0.249,0,0.467-0.182,0.502-0.429c0.034-0.247-0.111-0.479-0.352-0.549c-0.025-0.011-0.104-0.038-0.131-0.045l-3.473-0.841
			l-0.279-1.084c0.922-0.896,1.556-2.115,1.753-3.372c0.523-0.154,0.925-0.599,0.996-1.152l0.229-1.772
			c0.049-0.385-0.069-0.774-0.326-1.069c-0.149-0.172-0.337-0.303-0.546-0.386l0.08-1.595l0.327-0.317
			c0.53-0.547,0.971-1.484,0.055-2.84C24.199,0.521,23.024,0,21.401,0c-0.903,0-2.09,0.087-3.258,0.765
			c-0.234,0.137-0.318,0.436-0.188,0.673c0.708,1.29,0.588,2.54-0.337,3.519c-0.082,0.087-0.13,0.2-0.136,0.319l-0.016,0.315
			c-0.008,0.143,0.047,0.282,0.149,0.382L17.721,6.077z"/>
		<path d="M19.126,16.705c-0.002-0.193-0.113-0.367-0.288-0.449c-0.285-0.133-0.527-0.222-0.761-0.278l-3.473-0.841l-0.279-1.084
			c0.922-0.896,1.556-2.115,1.753-3.372c0.523-0.154,0.925-0.599,0.996-1.152l0.229-1.772c0.049-0.385-0.069-0.774-0.326-1.069
			c-0.149-0.172-0.337-0.303-0.546-0.386l0.08-1.595l0.327-0.317c0.53-0.547,0.971-1.484,0.055-2.84C16.199,0.521,15.024,0,13.401,0
			c-0.637,0-2.102,0-3.47,0.888C6.012,0.97,5.479,2.749,5.479,4.484c0,0.389,0.094,1.244,0.159,1.789
			C5.404,6.353,5.193,6.491,5.028,6.679C4.768,6.976,4.647,7.368,4.697,7.757l0.229,1.771c0.076,0.592,0.529,1.06,1.104,1.181
			c0.196,1.205,0.797,2.385,1.665,3.266l-0.3,1.163l-3.472,0.841C1.5,16.564,0,19.301,0,21.5C0,21.776,0.224,22,0.5,22h17
			c0.276,0,0.5-0.224,0.5-0.5v-3c0-0.572,0.324-1.087,0.846-1.342C19.019,17.073,19.128,16.897,19.126,16.705z"/>
	</g>
</g>
<g id="Users_Defense">
</g>
<g id="Car_3">
</g>
<g id="Home_3">
</g>
<g id="Park_3">
</g>
<g id="Recicle_Users">
</g>
<g id="Wifi_3">
</g>
<g id="Attach_3">
</g>
<g id="Disabled_Users">
</g>
<g id="Users_Card">
</g>
<g id="Gaming_3">
</g>
<g id="Cloud_3">
</g>
<g id="Database_3">
</g>
<g id="Copyright_3">
</g>
<g id="No_Copzright_3">
</g>
<g id="Creative_Commun_3">
</g>
<g id="Eco-Friendly_3">
</g>
<g id="Percentage_3">
</g>
<g id="Users_Love">
</g>
<g id="Users_Place">
</g>
<g id="Users_Key">
</g>
<g id="Sleeping_3">
</g>
</svg>
