<?xml version="1.0" encoding="iso-8859-1"?>
<!-- Generator: Adobe Illustrator 19.2.1, SVG Export Plug-In . SVG Version: 6.00 Build 0)  -->
<svg version="1.1" xmlns="http://www.w3.org/2000/svg" xmlns:xlink="http://www.w3.org/1999/xlink" x="0px" y="0px"
	 viewBox="0 0 30 30" style="enable-background:new 0 0 30 30;" xml:space="preserve">
<g id="Add_User">
</g>
<g id="Remove_User">
</g>
<g id="Delete_User">
</g>
<g id="Done">
</g>
<g id="At_Symbol">
</g>
<g id="Question">
</g>
<g id="Answer">
</g>
<g id="Bring_Up">
</g>
<g id="Bring_Down">
</g>
<g id="Dismiss_User">
</g>
<g id="User_Speed">
</g>
<g id="User_Settings">
</g>
<g id="User_Refresh">
</g>
<g id="User_Time">
</g>
<g id="Dollar">
</g>
<g id="Euro">
</g>
<g id="Pound">
</g>
<g id="Bitcoin">
</g>
<g id="Global_User">
</g>
<g id="Waiting_User">
</g>
<g id="Writing_User_2">
</g>
<g id="Search_User">
</g>
<g id="Lock_User">
</g>
<g id="Mark_User">
</g>
<g id="Share_User">
</g>
<g id="Shopping">
</g>
<g id="User_Download">
</g>
<g id="User_Upload">
</g>
<g id="User_Statistics">
</g>
<g id="User_Defense">
</g>
<g id="User_Car">
	<g>
		<g>
			<path d="M20.318,30H17.49c-0.276,0-0.5-0.224-0.5-0.5v-2.829c0-0.133,0.053-0.26,0.146-0.354l9.192-9.192
				c0.094-0.094,0.221-0.146,0.354-0.146l0,0c0.133,0,0.26,0.053,0.354,0.146l2.828,2.829c0.195,0.195,0.195,0.512,0,0.707
				l-9.192,9.192C20.578,29.947,20.451,30,20.318,30z M17.99,29h2.121l8.692-8.692l-2.121-2.122l-8.692,8.692V29z"/>
		</g>
		<g>
			<path d="M15.49,30h-15c-0.276,0-0.5-0.224-0.5-0.5v-3.055c0-1.585,0.688-2.618,2.044-3.07l5.547-1.849
				c1.406-0.587,2.03-2.868,2.14-3.687C9.129,17.311,7.74,15.922,7.74,14.5c0-0.654-0.263-0.769-0.274-0.773
				C7.32,13.69,7.228,13.6,7.163,13.465C7.136,13.407,6.49,12.039,6.49,11c0.016-0.501,0.161-1.054,0.5-1.327V6.5
				c0-2.617,2.729-6.5,6.5-6.5c3.667,0,4.639,2.078,4.741,3.076c0.57,0.299,1.759,0.999,1.759,3.424v3.173
				c0.339,0.272,0.484,0.821,0.5,1.312c0,1.091-0.989,2.42-1.102,2.569c-0.069,0.09-0.167,0.154-0.277,0.182
				c0.013,0.001-0.246,0.083-0.246,0.765c0,1.223-0.503,2.403-1.358,3.21c0.105,0.818,0.708,3.126,2.094,3.786
				c0.25,0.119,0.355,0.417,0.237,0.667c-0.119,0.249-0.417,0.354-0.667,0.237c-2.011-0.957-2.682-4.132-2.682-4.899
				c0-0.149,0.066-0.291,0.182-0.385c0.736-0.608,1.193-1.61,1.193-2.615c0-0.98,0.442-1.47,0.805-1.658
				c0.346-0.484,0.82-1.325,0.82-1.842c-0.006-0.174-0.055-0.407-0.105-0.511C19.159,10.44,18.99,10.24,18.99,10V6.5
				c0-1.902-0.831-2.334-1.277-2.566c-0.201-0.105-0.452-0.235-0.499-0.539c-0.01-0.067-0.001-0.147,0.022-0.226
				C17.176,2.526,16.419,1,13.49,1c-3.358,0-5.5,3.611-5.5,5.5V10c0,0.24-0.169,0.441-0.395,0.489
				c-0.053,0.11-0.1,0.359-0.105,0.527c0,0.574,0.317,1.427,0.504,1.859c0.35,0.209,0.746,0.697,0.746,1.625
				c0,0.85,0.943,2.016,1.818,2.74c0.115,0.095,0.182,0.236,0.182,0.385c0,0.776-0.702,3.959-2.808,4.836l-5.582,1.862
				c-0.941,0.314-1.361,0.968-1.361,2.122V29h14.5c0.276,0,0.5,0.224,0.5,0.5S15.766,30,15.49,30z"/>
		</g>
		<g>
			<path d="M27.49,22.479c-0.128,0-0.256-0.049-0.354-0.146l-2.5-2.5c-0.195-0.195-0.195-0.512,0-0.707s0.512-0.195,0.707,0l2.5,2.5
				c0.195,0.195,0.195,0.512,0,0.707C27.746,22.43,27.618,22.479,27.49,22.479z"/>
		</g>
	</g>
</g>
<g id="User_Home">
</g>
<g id="Park">
</g>
<g id="Recicle_User">
</g>
<g id="Wifi">
</g>
<g id="Attach_User">
</g>
<g id="Disabled_User">
</g>
<g id="User_Card">
</g>
<g id="Gaming">
</g>
<g id="User_Cloud">
</g>
<g id="User_Database">
</g>
<g id="Copyright">
</g>
<g id="No_Copyright">
</g>
<g id="Creative_Commun">
</g>
<g id="Eco-Friendly">
</g>
<g id="Percentage">
</g>
<g id="User_Love">
</g>
<g id="User_Place">
</g>
<g id="User_Key">
</g>
<g id="Sleeping">
</g>
<g id="Add_User_2">
</g>
<g id="Remove_User_2">
</g>
<g id="Delete_User_2">
</g>
<g id="Done_2">
</g>
<g id="At_Symbol_2">
</g>
<g id="Question_2">
</g>
<g id="Answer_2">
</g>
<g id="Bring_Up_2">
</g>
<g id="Bring_Down_2">
</g>
<g id="Dismiss_User_2">
</g>
<g id="User_Speed_2">
</g>
<g id="User_Settings_2">
</g>
<g id="Refresh_2">
</g>
<g id="Time_2">
</g>
<g id="Dollar_2">
</g>
<g id="Euro_2">
</g>
<g id="Pound_2">
</g>
<g id="Bitcoin_2">
</g>
<g id="Global_User_2">
</g>
<g id="Waiting_User_2">
</g>
<g id="Writing_User">
</g>
<g id="Search_User_2">
</g>
<g id="Lock_User_2">
</g>
<g id="Mark_User_2">
</g>
<g id="Share_User_2">
</g>
<g id="Shopping_2">
</g>
<g id="Download_2">
</g>
<g id="Upload_2">
</g>
<g id="User_Statistics_2">
</g>
<g id="User_Defense_2">
</g>
<g id="Car_2">
</g>
<g id="Home_2">
</g>
<g id="Park_2">
</g>
<g id="Recicle_User_2">
</g>
<g id="User_Wifi">
</g>
<g id="Attach_2">
</g>
<g id="Disabled_User_2">
</g>
<g id="User_Card_2">
</g>
<g id="Gaming_2">
</g>
<g id="Cloud_2">
</g>
<g id="Database_2">
</g>
<g id="Copyright_2">
</g>
<g id="No_Copyright_2">
</g>
<g id="Creative_Commun_2">
</g>
<g id="Eco-Friendly_2">
</g>
<g id="Percentage_2">
</g>
<g id="User_Love_2">
</g>
<g id="User_Rate_2">
</g>
<g id="User_Key_2">
</g>
<g id="Sleeping_2">
</g>
</svg>
