<?xml version="1.0" encoding="iso-8859-1"?>
<!-- Generator: Adobe Illustrator 19.2.1, SVG Export Plug-In . SVG Version: 6.00 Build 0)  -->
<svg version="1.1" xmlns="http://www.w3.org/2000/svg" xmlns:xlink="http://www.w3.org/1999/xlink" x="0px" y="0px"
	 viewBox="0 0 30 30" style="enable-background:new 0 0 30 30;" xml:space="preserve">
<g id="Add_User">
</g>
<g id="Remove_User">
</g>
<g id="Delete_User">
</g>
<g id="Done">
</g>
<g id="At_Symbol">
</g>
<g id="Question">
</g>
<g id="Answer">
</g>
<g id="Bring_Up">
</g>
<g id="Bring_Down">
</g>
<g id="Dismiss_User">
</g>
<g id="User_Speed">
</g>
<g id="User_Settings">
</g>
<g id="User_Refresh">
</g>
<g id="User_Time">
</g>
<g id="Dollar">
</g>
<g id="Euro">
</g>
<g id="Pound">
</g>
<g id="Bitcoin">
</g>
<g id="Global_User">
</g>
<g id="Waiting_User">
</g>
<g id="Writing_User_2">
</g>
<g id="Search_User">
</g>
<g id="Lock_User">
</g>
<g id="Mark_User">
</g>
<g id="Share_User">
</g>
<g id="Shopping">
</g>
<g id="User_Download">
</g>
<g id="User_Upload">
</g>
<g id="User_Statistics">
</g>
<g id="User_Defense">
</g>
<g id="User_Car">
</g>
<g id="User_Home">
</g>
<g id="Park">
</g>
<g id="Recicle_User">
</g>
<g id="Wifi">
</g>
<g id="Attach_User">
</g>
<g id="Disabled_User">
</g>
<g id="User_Card">
	<g>
		<g>
			<path d="M18.5,27c-0.209,0-0.404-0.132-0.475-0.342L15.14,18H13.5c-0.276,0-0.5-0.224-0.5-0.5s0.224-0.5,0.5-0.5h2
				c0.215,0,0.406,0.138,0.475,0.342l3,9c0.087,0.262-0.055,0.545-0.316,0.632C18.605,26.992,18.553,27,18.5,27z"/>
		</g>
		<g>
			<path d="M17.999,25c-0.255,0-0.472-0.194-0.497-0.453c-0.026-0.275,0.176-0.519,0.45-0.545l10.131-0.965L28.89,19H16
				c-0.276,0-0.5-0.224-0.5-0.5S15.724,18,16,18h13.5c0.149,0,0.292,0.067,0.387,0.183s0.133,0.268,0.104,0.415l-1,5
				c-0.043,0.216-0.224,0.379-0.442,0.399l-10.5,1C18.031,25,18.016,25,17.999,25z"/>
		</g>
		<g>
			<path d="M20.5,30c-0.827,0-1.5-0.673-1.5-1.5s0.673-1.5,1.5-1.5s1.5,0.673,1.5,1.5S21.327,30,20.5,30z M20.5,28
				c-0.275,0-0.5,0.224-0.5,0.5s0.225,0.5,0.5,0.5s0.5-0.224,0.5-0.5S20.775,28,20.5,28z"/>
		</g>
		<g>
			<path d="M17.685,30H0.5C0.224,30,0,29.776,0,29.5v-3.055c0-1.585,0.688-2.618,2.045-3.07l5.547-1.849
				c1.406-0.587,2.03-2.868,2.14-3.687C9.14,17.311,7.75,15.922,7.75,14.5c0-0.654-0.264-0.769-0.274-0.773
				C7.331,13.69,7.237,13.6,7.174,13.465C7.146,13.407,6.5,12.039,6.5,11C6.516,10.499,6.661,9.946,7,9.673V6.5
				C7,3.883,9.729,0,13.5,0c3.667,0,4.639,2.078,4.74,3.076C18.811,3.375,20,4.075,20,6.5v3.173c0.339,0.272,0.484,0.821,0.5,1.312
				c0,1.091-0.989,2.42-1.103,2.569c-0.068,0.09-0.166,0.154-0.276,0.182h0.001c0.008,0-0.247,0.121-0.247,0.765
				c0,0.759-0.219,1.538-0.632,2.251c-0.14,0.239-0.446,0.319-0.684,0.182c-0.238-0.139-0.32-0.444-0.182-0.684
				c0.32-0.553,0.497-1.174,0.497-1.749c0-0.98,0.441-1.47,0.805-1.658c0.346-0.484,0.82-1.325,0.82-1.842
				c-0.007-0.174-0.055-0.407-0.105-0.511C19.169,10.44,19,10.24,19,10V6.5c0-1.902-0.831-2.334-1.277-2.566
				c-0.201-0.105-0.451-0.235-0.498-0.539c-0.011-0.067-0.001-0.147,0.021-0.226C17.187,2.526,16.43,1,13.5,1
				C10.142,1,8,4.611,8,6.5V10c0,0.24-0.169,0.441-0.396,0.489c-0.053,0.11-0.1,0.359-0.104,0.527c0,0.574,0.316,1.427,0.504,1.859
				C8.354,13.084,8.75,13.572,8.75,14.5c0,0.85,0.942,2.016,1.818,2.74c0.115,0.095,0.182,0.236,0.182,0.385
				c0,0.776-0.702,3.959-2.808,4.836l-5.581,1.862C1.42,24.637,1,25.292,1,26.445V29h16.685c0.276,0,0.5,0.224,0.5,0.5
				S17.961,30,17.685,30z"/>
		</g>
		<g>
			<path d="M25.5,30c-0.827,0-1.5-0.673-1.5-1.5s0.673-1.5,1.5-1.5s1.5,0.673,1.5,1.5S26.327,30,25.5,30z M25.5,28
				c-0.275,0-0.5,0.224-0.5,0.5s0.225,0.5,0.5,0.5s0.5-0.224,0.5-0.5S25.775,28,25.5,28z"/>
		</g>
	</g>
</g>
<g id="Gaming">
</g>
<g id="User_Cloud">
</g>
<g id="User_Database">
</g>
<g id="Copyright">
</g>
<g id="No_Copyright">
</g>
<g id="Creative_Commun">
</g>
<g id="Eco-Friendly">
</g>
<g id="Percentage">
</g>
<g id="User_Love">
</g>
<g id="User_Place">
</g>
<g id="User_Key">
</g>
<g id="Sleeping">
</g>
<g id="Add_User_2">
</g>
<g id="Remove_User_2">
</g>
<g id="Delete_User_2">
</g>
<g id="Done_2">
</g>
<g id="At_Symbol_2">
</g>
<g id="Question_2">
</g>
<g id="Answer_2">
</g>
<g id="Bring_Up_2">
</g>
<g id="Bring_Down_2">
</g>
<g id="Dismiss_User_2">
</g>
<g id="User_Speed_2">
</g>
<g id="User_Settings_2">
</g>
<g id="Refresh_2">
</g>
<g id="Time_2">
</g>
<g id="Dollar_2">
</g>
<g id="Euro_2">
</g>
<g id="Pound_2">
</g>
<g id="Bitcoin_2">
</g>
<g id="Global_User_2">
</g>
<g id="Waiting_User_2">
</g>
<g id="Writing_User">
</g>
<g id="Search_User_2">
</g>
<g id="Lock_User_2">
</g>
<g id="Mark_User_2">
</g>
<g id="Share_User_2">
</g>
<g id="Shopping_2">
</g>
<g id="Download_2">
</g>
<g id="Upload_2">
</g>
<g id="User_Statistics_2">
</g>
<g id="User_Defense_2">
</g>
<g id="Car_2">
</g>
<g id="Home_2">
</g>
<g id="Park_2">
</g>
<g id="Recicle_User_2">
</g>
<g id="User_Wifi">
</g>
<g id="Attach_2">
</g>
<g id="Disabled_User_2">
</g>
<g id="User_Card_2">
</g>
<g id="Gaming_2">
</g>
<g id="Cloud_2">
</g>
<g id="Database_2">
</g>
<g id="Copyright_2">
</g>
<g id="No_Copyright_2">
</g>
<g id="Creative_Commun_2">
</g>
<g id="Eco-Friendly_2">
</g>
<g id="Percentage_2">
</g>
<g id="User_Love_2">
</g>
<g id="User_Rate_2">
</g>
<g id="User_Key_2">
</g>
<g id="Sleeping_2">
</g>
</svg>
