<?xml version="1.0" encoding="iso-8859-1"?>
<!-- Generator: Adobe Illustrator 19.2.1, SVG Export Plug-In . SVG Version: 6.00 Build 0)  -->
<svg version="1.1" xmlns="http://www.w3.org/2000/svg" xmlns:xlink="http://www.w3.org/1999/xlink" x="0px" y="0px"
	 viewBox="0 0 30 30" style="enable-background:new 0 0 30 30;" xml:space="preserve">
<g id="Add_User">
</g>
<g id="Remove_User">
</g>
<g id="Delete_User">
</g>
<g id="Done">
</g>
<g id="At_Symbol">
</g>
<g id="Question">
</g>
<g id="Answer">
</g>
<g id="Bring_Up">
</g>
<g id="Bring_Down">
</g>
<g id="Dismiss_User">
</g>
<g id="User_Speed">
</g>
<g id="User_Settings">
</g>
<g id="User_Refresh">
</g>
<g id="User_Time">
</g>
<g id="Dollar">
</g>
<g id="Euro">
</g>
<g id="Pound">
</g>
<g id="Bitcoin">
</g>
<g id="Global_User">
</g>
<g id="Waiting_User">
</g>
<g id="Writing_User_2">
</g>
<g id="Search_User">
</g>
<g id="Lock_User">
</g>
<g id="Mark_User">
</g>
<g id="Share_User">
</g>
<g id="Shopping">
</g>
<g id="User_Download">
</g>
<g id="User_Upload">
</g>
<g id="User_Statistics">
</g>
<g id="User_Defense">
</g>
<g id="User_Car">
</g>
<g id="User_Home">
</g>
<g id="Park">
</g>
<g id="Recicle_User">
</g>
<g id="Wifi">
</g>
<g id="Attach_User">
</g>
<g id="Disabled_User">
</g>
<g id="User_Card">
</g>
<g id="Gaming">
</g>
<g id="User_Cloud">
</g>
<g id="User_Database">
</g>
<g id="Copyright">
</g>
<g id="No_Copyright">
</g>
<g id="Creative_Commun">
</g>
<g id="Eco-Friendly">
</g>
<g id="Percentage">
</g>
<g id="User_Love">
</g>
<g id="User_Place">
</g>
<g id="User_Key">
</g>
<g id="Sleeping">
</g>
<g id="Add_User_2">
</g>
<g id="Remove_User_2">
</g>
<g id="Delete_User_2">
</g>
<g id="Done_2">
</g>
<g id="At_Symbol_2">
</g>
<g id="Question_2">
</g>
<g id="Answer_2">
</g>
<g id="Bring_Up_2">
</g>
<g id="Bring_Down_2">
</g>
<g id="Dismiss_User_2">
</g>
<g id="User_Speed_2">
</g>
<g id="User_Settings_2">
	<g>
		<g>
			<g id="XMLID_208_">
				<g id="XMLID_210_">
					<path d="M22.53,28.989c-1.204,0-2.23-0.408-2.902-1.155c-2.051-2.284-2.14-4.888-0.233-6.796C21.24,19.192,25.207,18,29.5,18
						c0.202,0,0.385,0.122,0.462,0.309c0.078,0.187,0.035,0.402-0.108,0.545c-0.99,0.99-1.242,2.244-1.534,3.696
						c-0.302,1.5-0.644,3.2-1.934,4.768L26,27l0.386,0.317c-0.821,0.998-2.254,1.639-3.74,1.671
						C22.607,28.989,22.568,28.989,22.53,28.989z M28.446,19.025c-3.58,0.175-6.849,1.224-8.345,2.72
						c-1.516,1.517-1.415,3.544,0.271,5.421c0.495,0.55,1.281,0.844,2.252,0.822c1.184-0.025,2.358-0.538,2.989-1.306l0,0
						c1.131-1.375,1.434-2.878,1.726-4.33C27.568,21.217,27.802,20.051,28.446,19.025z"/>
				</g>
				<g id="XMLID_209_">
					<path d="M18.5,30c-0.276,0-0.5-0.224-0.5-0.5c0-3.339,4.002-6.5,5.5-6.5c0.276,0,0.5,0.224,0.5,0.5S23.776,24,23.5,24
						c-0.951,0-4.5,2.796-4.5,5.5C19,29.776,18.776,30,18.5,30z"/>
				</g>
			</g>
		</g>
		<g>
			<path d="M16.5,30h-16C0.224,30,0,29.776,0,29.5c0-3.197,2.024-5.971,4.923-6.749l4.549-1.222l0.446-1.917
				c-1.166-1.267-1.961-3.003-2.188-4.765c-0.726-0.121-1.307-0.736-1.398-1.525l-0.293-2.521c-0.061-0.52,0.1-1.036,0.439-1.418
				c0.215-0.241,0.49-0.412,0.79-0.497C7.186,8.141,7.043,6.764,7.043,6.174c0-2.373,0.671-4.805,5.613-4.91
				C14.394,0,16.273,0,17.088,0c2.046,0,3.521,0.717,4.382,2.132c0.879,1.44,0.862,2.699-0.051,3.74L20.948,6.38l-0.115,2.539
				c0.264,0.092,0.503,0.254,0.699,0.476c0.333,0.381,0.491,0.893,0.431,1.406l-0.293,2.521c-0.085,0.738-0.6,1.324-1.261,1.496
				c-0.228,1.829-1.066,3.619-2.301,4.904l0.176,0.754c0.063,0.269-0.104,0.537-0.374,0.601c-0.267,0.063-0.538-0.104-0.6-0.374
				l-0.239-1.024c-0.04-0.171,0.013-0.352,0.14-0.474c1.268-1.221,2.106-3.043,2.241-4.873c0.019-0.261,0.237-0.463,0.499-0.463
				c0.395,0,0.682-0.284,0.726-0.662l0.293-2.521c0.027-0.233-0.042-0.463-0.189-0.631c-0.126-0.144-0.294-0.224-0.473-0.226
				c-0.135-0.002-0.264-0.059-0.357-0.157c-0.093-0.098-0.142-0.23-0.136-0.365l0.143-3.155c0.005-0.118,0.053-0.231,0.133-0.318
				l0.587-0.631c0.373-0.425,0.784-1.166-0.061-2.55C19.948,1.556,18.761,1,17.088,1c-1.212,0-2.631,0.138-3.957,1.157
				c-0.086,0.066-0.191,0.103-0.299,0.104C8.41,2.309,8.043,4.139,8.043,6.174c0,0.754,0.271,3.07,0.274,3.094
				c0.017,0.142-0.028,0.284-0.123,0.391C8.1,9.766,7.963,9.826,7.821,9.826H7.699c-0.179,0-0.348,0.079-0.475,0.222
				c-0.15,0.169-0.22,0.401-0.193,0.638l0.293,2.521c0.044,0.378,0.331,0.662,0.668,0.662h0.191c0.262,0,0.479,0.202,0.499,0.463
				c0.132,1.775,0.931,3.562,2.14,4.777c0.121,0.122,0.171,0.298,0.132,0.466l-0.576,2.473c-0.042,0.18-0.179,0.321-0.357,0.369
				l-4.838,1.3C2.87,24.338,1.212,26.472,1.019,29H16.5c0.276,0,0.5,0.224,0.5,0.5S16.776,30,16.5,30z"/>
		</g>
	</g>
</g>
<g id="Refresh_2">
</g>
<g id="Time_2">
</g>
<g id="Dollar_2">
</g>
<g id="Euro_2">
</g>
<g id="Pound_2">
</g>
<g id="Bitcoin_2">
</g>
<g id="Global_User_2">
</g>
<g id="Waiting_User_2">
</g>
<g id="Writing_User">
</g>
<g id="Search_User_2">
</g>
<g id="Lock_User_2">
</g>
<g id="Mark_User_2">
</g>
<g id="Share_User_2">
</g>
<g id="Shopping_2">
</g>
<g id="Download_2">
</g>
<g id="Upload_2">
</g>
<g id="User_Statistics_2">
</g>
<g id="User_Defense_2">
</g>
<g id="Car_2">
</g>
<g id="Home_2">
</g>
<g id="Park_2">
</g>
<g id="Recicle_User_2">
</g>
<g id="User_Wifi">
</g>
<g id="Attach_2">
</g>
<g id="Disabled_User_2">
</g>
<g id="User_Card_2">
</g>
<g id="Gaming_2">
</g>
<g id="Cloud_2">
</g>
<g id="Database_2">
</g>
<g id="Copyright_2">
</g>
<g id="No_Copyright_2">
</g>
<g id="Creative_Commun_2">
</g>
<g id="Eco-Friendly_2">
</g>
<g id="Percentage_2">
</g>
<g id="User_Love_2">
</g>
<g id="User_Rate_2">
</g>
<g id="User_Key_2">
</g>
<g id="Sleeping_2">
</g>
</svg>
