<?xml version="1.0" encoding="iso-8859-1"?>
<!-- Generator: Adobe Illustrator 19.2.1, SVG Export Plug-In . SVG Version: 6.00 Build 0)  -->
<svg version="1.1" xmlns="http://www.w3.org/2000/svg" xmlns:xlink="http://www.w3.org/1999/xlink" x="0px" y="0px"
	 viewBox="0 0 24 24" style="enable-background:new 0 0 24 24;" xml:space="preserve">
<g id="Sun_Light">
</g>
<g id="Sunglasses">
</g>
<g id="T-Shirt_1">
</g>
<g id="T-Shirt_2">
</g>
<g id="Mini_Dress">
</g>
<g id="Flip-Flops">
</g>
<g id="Temperature">
</g>
<g id="Hot_Temperature">
</g>
<g id="Ice_Lolly">
</g>
<g id="Icecream">
</g>
<g id="Limonade_1">
</g>
<g id="Limonade_2">
</g>
<g id="Hat">
</g>
<g id="Straw_Hat">
</g>
<g id="Deckchair">
</g>
<g id="Sunshade">
</g>
<g id="Suncream">
</g>
<g id="Suntan_Oil">
</g>
<g id="Swimming_Trunks">
</g>
<g id="Bikini">
</g>
<g id="Pool">
</g>
<g id="Pool_Ladder">
</g>
<g id="Grill">
</g>
<g id="Kite_1">
</g>
<g id="Kite_2">
</g>
<g id="Badminton">
</g>
<g id="Cooler">
</g>
<g id="Strand_Bag">
</g>
<g id="Towel">
</g>
<g id="Strand_Ball">
</g>
<g id="Beach_Sign">
</g>
<g id="Toos">
</g>
<g id="Bucket">
</g>
<g id="Sand_Castle">
</g>
<g id="Shell_1">
</g>
<g id="Shell_2">
</g>
<g id="Surf_Board">
</g>
<g id="Float">
</g>
<g id="Vacation_Photo">
	<g>
		<path d="M21.5,0h-20C1.224,0,1,0.224,1,0.5v23C1,23.776,1.224,24,1.5,24h20c0.276,0,0.5-0.224,0.5-0.5v-23
			C22,0.224,21.776,0,21.5,0z M20,17.5c0,0.276-0.224,0.5-0.5,0.5h-16C3.224,18,3,17.776,3,17.5v-15C3,2.224,3.224,2,3.5,2h16
			C19.776,2,20,2.224,20,2.5V17.5z"/>
		<path d="M17.641,4.109c-0.19-0.115-0.691-0.421-2.354,1.164c-0.593,0.565-1.754,1.789-2.865,3.627
			c-1.14,1.885-2.336,4.418-2.44,5.831c-0.031,0.416,0.194,0.823,0.587,1.062c0.208,0.126,0.435,0.189,0.656,0.189
			c0.2,0,0.396-0.053,0.565-0.157c1.042-0.643,2.707-2.64,4.048-4.857C17.273,8.595,18.688,4.743,17.641,4.109z"/>
		<path d="M10.146,11.023c0.067-0.268-0.095-0.54-0.362-0.607c-0.973-0.245-1.99-0.208-2.941,0.11l-1.5,0.5
			c-0.262,0.087-0.403,0.37-0.316,0.632C5.096,11.868,5.291,12,5.5,12c0.052,0,0.105-0.008,0.158-0.026l1.5-0.5
			c0.77-0.256,1.593-0.287,2.38-0.088C9.803,11.452,10.078,11.291,10.146,11.023z"/>
		<path d="M5.5,9c0.052,0,0.105-0.008,0.158-0.026l1.5-0.5c0.865-0.288,1.818-0.288,2.684,0c0.385,0.128,0.785,0.212,1.19,0.249
			c0.282,0.029,0.518-0.178,0.543-0.453c0.024-0.275-0.178-0.518-0.453-0.543c-0.328-0.029-0.652-0.097-0.963-0.201
			c-1.07-0.358-2.248-0.358-3.316,0l-1.5,0.5C5.08,8.113,4.938,8.396,5.026,8.658C5.096,8.868,5.291,9,5.5,9z"/>
		<path d="M5.5,6c0.052,0,0.105-0.008,0.158-0.026l1.5-0.5c0.865-0.288,1.818-0.288,2.684,0c1.068,0.356,2.246,0.356,3.316,0
			c0.182-0.061,0.367-0.108,0.554-0.144c0.271-0.051,0.45-0.313,0.398-0.584c-0.051-0.272-0.319-0.449-0.584-0.398
			c-0.231,0.043-0.46,0.103-0.685,0.178c-0.865,0.288-1.818,0.288-2.684,0c-1.07-0.358-2.248-0.358-3.316,0l-1.5,0.5
			C5.08,5.113,4.938,5.396,5.026,5.658C5.096,5.868,5.291,6,5.5,6z"/>
	</g>
</g>
<g id="Summer_Time">
</g>
<g id="Boat">
</g>
<g id="Lifebuoy">
</g>
<g id="Lighthouse">
</g>
<g id="Sunset">
</g>
<g id="Dolphin">
</g>
<g id="Starfish">
</g>
<g id="Diving_Mask">
</g>
<g id="Sailboat">
</g>
<g id="Captin_Hat">
</g>
<g id="Eudder">
</g>
</svg>
