<?xml version="1.0" encoding="iso-8859-1"?>
<!-- Generator: Adobe Illustrator 19.2.1, SVG Export Plug-In . SVG Version: 6.00 Build 0)  -->
<svg version="1.1" xmlns="http://www.w3.org/2000/svg" xmlns:xlink="http://www.w3.org/1999/xlink" x="0px" y="0px"
	 viewBox="0 0 30 30" style="enable-background:new 0 0 30 30;" xml:space="preserve">
<g id="Event">
</g>
<g id="Event_2">
</g>
<g id="Add_Event">
</g>
<g id="Remove_Event">
</g>
<g id="Event_Reminder">
</g>
<g id="Wine_Glass">
</g>
<g id="Toast">
</g>
<g id="Champagne">
</g>
<g id="Champagne_Open">
</g>
<g id="Alcohol_Drink">
</g>
<g id="Beer_Glass">
</g>
<g id="Party_Cake">
</g>
<g id="Pizza_Food">
</g>
<g id="Disco_Ball">
</g>
<g id="Equalizer">
</g>
<g id="DJ">
</g>
<g id="Tent">
</g>
<g id="Firework_1">
</g>
<g id="Firework_2">
</g>
<g id="Party_Glasses">
</g>
<g id="Barbeque">
</g>
<g id="Horn">
</g>
<g id="Speaker">
</g>
<g id="VIP">
</g>
<g id="Event_Ticket">
</g>
<g id="VIP_Ticket">
	<g>
		<g>
			<g>
				<path d="M28.5,23h-28C0.224,23,0,22.776,0,22.5v-5C0,17.224,0.224,17,0.5,17C1.593,17,2,15.467,2,14.5S1.593,12,0.5,12
					C0.224,12,0,11.776,0,11.5v-5C0,6.224,0.224,6,0.5,6h28C28.776,6,29,6.224,29,6.5v5c0,0.276-0.224,0.5-0.5,0.5
					c-1.093,0-1.5,1.533-1.5,2.5s0.407,2.5,1.5,2.5c0.276,0,0.5,0.224,0.5,0.5v5C29,22.776,28.776,23,28.5,23z M1,22h27v-4.059
					c-1.315-0.318-2-1.889-2-3.441s0.685-3.123,2-3.441V7H1v4.059c1.315,0.318,2,1.889,2,3.441s-0.685,3.123-2,3.441V22z"/>
			</g>
		</g>
		<g>
			<path d="M11,18c-0.229,0-0.43-0.156-0.485-0.379l-1.5-6c-0.066-0.268,0.096-0.539,0.364-0.606
				c0.264-0.066,0.54,0.096,0.606,0.364L11,15.438l1.015-4.06c0.066-0.269,0.333-0.43,0.606-0.364
				c0.269,0.067,0.431,0.339,0.364,0.606l-1.5,6C11.43,17.844,11.229,18,11,18z"/>
		</g>
		<g>
			<path d="M14.5,18c-0.276,0-0.5-0.224-0.5-0.5v-6c0-0.276,0.224-0.5,0.5-0.5s0.5,0.224,0.5,0.5v6C15,17.776,14.776,18,14.5,18z"/>
		</g>
		<g>
			<path d="M16.5,18c-0.276,0-0.5-0.224-0.5-0.5v-6c0-0.276,0.224-0.5,0.5-0.5h1.75c1.002,0,1.75,1.056,1.75,2s-0.748,2-1.75,2H17
				v2.5C17,17.776,16.776,18,16.5,18z M17,14h1.25c0.357,0,0.75-0.523,0.75-1s-0.393-1-0.75-1H17V14z"/>
		</g>
	</g>
</g>
<g id="Popcorn">
</g>
<g id="Cord">
</g>
<g id="Invitation_1">
</g>
<g id="Invitation_2">
</g>
</svg>
