<?xml version="1.0" encoding="iso-8859-1"?>
<!-- Generator: Adobe Illustrator 19.2.1, SVG Export Plug-In . SVG Version: 6.00 Build 0)  -->
<svg version="1.1" xmlns="http://www.w3.org/2000/svg" xmlns:xlink="http://www.w3.org/1999/xlink" x="0px" y="0px"
	 viewBox="0 0 30 30" style="enable-background:new 0 0 30 30;" xml:space="preserve">
<g id="Event">
</g>
<g id="Event_2">
</g>
<g id="Add_Event">
</g>
<g id="Remove_Event">
</g>
<g id="Event_Reminder">
</g>
<g id="Wine_Glass">
</g>
<g id="Toast">
</g>
<g id="Champagne">
</g>
<g id="Champagne_Open">
</g>
<g id="Alcohol_Drink">
</g>
<g id="Beer_Glass">
</g>
<g id="Party_Cake">
</g>
<g id="Pizza_Food">
</g>
<g id="Disco_Ball">
</g>
<g id="Equalizer">
</g>
<g id="DJ">
</g>
<g id="Tent">
</g>
<g id="Firework_1">
</g>
<g id="Firework_2">
</g>
<g id="Party_Glasses">
</g>
<g id="Barbeque">
</g>
<g id="Horn">
</g>
<g id="Speaker">
</g>
<g id="VIP">
</g>
<g id="Event_Ticket">
</g>
<g id="VIP_Ticket">
	<g>
		<path d="M18.25,12H17v2h1.25c0.357,0,0.75-0.523,0.75-1S18.607,12,18.25,12z"/>
		<path d="M28.5,12c0.276,0,0.5-0.224,0.5-0.5v-5C29,6.224,28.776,6,28.5,6h-28C0.224,6,0,6.224,0,6.5v5C0,11.776,0.224,12,0.5,12
			C1.593,12,2,13.533,2,14.5S1.593,17,0.5,17C0.224,17,0,17.224,0,17.5v5C0,22.776,0.224,23,0.5,23h28c0.276,0,0.5-0.224,0.5-0.5v-5
			c0-0.276-0.224-0.5-0.5-0.5c-1.093,0-1.5-1.533-1.5-2.5S27.407,12,28.5,12z M12.985,11.621l-1.5,6C11.43,17.844,11.229,18,11,18
			s-0.43-0.156-0.485-0.379l-1.5-6c-0.066-0.268,0.096-0.539,0.364-0.606c0.263-0.068,0.539,0.095,0.606,0.364L11,15.438l1.015-4.06
			c0.066-0.269,0.335-0.432,0.606-0.364C12.89,11.082,13.052,11.354,12.985,11.621z M15,17.5c0,0.276-0.224,0.5-0.5,0.5
			S14,17.776,14,17.5v-6c0-0.276,0.224-0.5,0.5-0.5s0.5,0.224,0.5,0.5V17.5z M18.25,15H17v2.5c0,0.276-0.224,0.5-0.5,0.5
			S16,17.776,16,17.5v-6c0-0.276,0.224-0.5,0.5-0.5h1.75c1.002,0,1.75,1.056,1.75,2S19.252,15,18.25,15z"/>
	</g>
</g>
<g id="Popcorn">
</g>
<g id="Cord">
</g>
<g id="Invitation_1">
</g>
<g id="Invitation_2">
</g>
</svg>
