<?xml version="1.0" encoding="iso-8859-1"?>
<!-- Generator: Adobe Illustrator 19.2.1, SVG Export Plug-In . SVG Version: 6.00 Build 0)  -->
<svg version="1.1" xmlns="http://www.w3.org/2000/svg" xmlns:xlink="http://www.w3.org/1999/xlink" x="0px" y="0px"
	 viewBox="0 0 30 30" style="enable-background:new 0 0 30 30;" xml:space="preserve">
<g id="Event">
</g>
<g id="Event_2">
</g>
<g id="Add_Event">
</g>
<g id="Remove_Event">
</g>
<g id="Event_Reminder">
</g>
<g id="Wine_Glass">
</g>
<g id="Toast">
</g>
<g id="Champagne">
</g>
<g id="Champagne_Open">
</g>
<g id="Alcohol_Drink">
</g>
<g id="Beer_Glass">
</g>
<g id="Party_Cake">
</g>
<g id="Pizza_Food">
</g>
<g id="Disco_Ball">
</g>
<g id="Equalizer">
</g>
<g id="DJ">
</g>
<g id="Tent">
</g>
<g id="Firework_1">
</g>
<g id="Firework_2">
</g>
<g id="Party_Glasses">
</g>
<g id="Barbeque">
</g>
<g id="Horn">
</g>
<g id="Speaker">
</g>
<g id="VIP">
	<g>
		<path d="M19,19c0-0.403-0.159-1-0.5-1H17v2h1.5C18.841,20,19,19.403,19,19z"/>
		<path d="M23.5,6h-5.119l2.566-5.276c0.124-0.247,0.023-0.547-0.224-0.671c-0.248-0.123-0.547-0.023-0.671,0.224l-4,8.224
			c-0.004,0.009-0.003,0.018-0.007,0.027l-0.467,0.935C15.838,9.731,16,10.097,16,10.5c0,0.827-0.673,1.5-1.5,1.5S13,11.327,13,10.5
			S13.673,9,14.5,9c0.062,0,0.122,0.011,0.182,0.018L16.191,6h-3.382L9.947,0.276C9.824,0.029,9.523-0.07,9.276,0.053
			C9.029,0.176,8.929,0.477,9.053,0.724L11.691,6H5.5C5.224,6,5,6.224,5,6.5v23C5,29.776,5.224,30,5.5,30h18
			c0.276,0,0.5-0.224,0.5-0.5v-23C24,6.224,23.776,6,23.5,6z M20.5,26h-12C8.224,26,8,25.776,8,25.5S8.224,25,8.5,25h12
			c0.276,0,0.5,0.224,0.5,0.5S20.776,26,20.5,26z M9.379,17.015c0.267-0.069,0.539,0.096,0.606,0.364L11,21.438l1.015-4.06
			c0.066-0.268,0.336-0.434,0.606-0.364c0.268,0.067,0.431,0.338,0.364,0.606l-1.5,6C11.429,23.844,11.229,24,11,24
			s-0.429-0.156-0.485-0.379l-1.5-6C8.948,17.354,9.111,17.082,9.379,17.015z M14,23.5v-6c0-0.276,0.224-0.5,0.5-0.5
			s0.5,0.224,0.5,0.5v6c0,0.276-0.224,0.5-0.5,0.5S14,23.776,14,23.5z M16,23.5v-6c0-0.276,0.224-0.5,0.5-0.5h2
			c0.985,0,1.5,1.006,1.5,2s-0.515,2-1.5,2H17v2.5c0,0.276-0.224,0.5-0.5,0.5S16,23.776,16,23.5z M20.5,16h-12
			C8.224,16,8,15.776,8,15.5S8.224,15,8.5,15h12c0.276,0,0.5,0.224,0.5,0.5S20.776,16,20.5,16z"/>
	</g>
</g>
<g id="Event_Ticket">
</g>
<g id="VIP_Ticket">
</g>
<g id="Popcorn">
</g>
<g id="Cord">
</g>
<g id="Invitation_1">
</g>
<g id="Invitation_2">
</g>
</svg>
