<?xml version="1.0" encoding="iso-8859-1"?>
<!-- Generator: Adobe Illustrator 19.2.1, SVG Export Plug-In . SVG Version: 6.00 Build 0)  -->
<svg version="1.1" xmlns="http://www.w3.org/2000/svg" xmlns:xlink="http://www.w3.org/1999/xlink" x="0px" y="0px"
	 viewBox="0 0 24 24" style="enable-background:new 0 0 24 24;" xml:space="preserve">
<g id="Event">
</g>
<g id="Event_2">
</g>
<g id="Add_Event">
</g>
<g id="Remove_Event">
</g>
<g id="Event_Reminder">
</g>
<g id="Wine_Glass">
</g>
<g id="Toast">
</g>
<g id="Champagne">
</g>
<g id="Champagne_Open">
</g>
<g id="Alcohol_Drink">
</g>
<g id="Beer_Glass">
</g>
<g id="Party_Cake">
</g>
<g id="Pizza_Food">
</g>
<g id="Disco_Ball">
</g>
<g id="Equalizer">
</g>
<g id="DJ">
</g>
<g id="Tent">
</g>
<g id="Firework_1">
</g>
<g id="Firework_2">
</g>
<g id="Party_Glasses">
</g>
<g id="Barbeque">
</g>
<g id="Horn">
</g>
<g id="Speaker">
</g>
<g id="VIP">
	<g>
		<path d="M18.959,7.096C18.765,5.91,17.74,5,16.5,5h-1.526l1.98-4.291c0.116-0.25,0.006-0.548-0.245-0.664
			c-0.251-0.115-0.548-0.006-0.664,0.245L13.872,5h-0.063l-1.231,2.462C12.838,7.732,13,8.097,13,8.5c0,0.827-0.673,1.5-1.5,1.5
			S10,9.327,10,8.5S10.673,7,11.5,7c0.062,0,0.122,0.011,0.182,0.018L12.691,5h-2.382L7.947,0.276
			C7.824,0.029,7.523-0.07,7.276,0.053C7.029,0.176,6.929,0.477,7.053,0.724L9.191,5H6.5C5.122,5,4,6.122,4,7.5v14
			C4,22.878,5.122,24,6.5,24h10c1.24,0,2.265-0.91,2.459-2.096C18.986,21.773,19,21.638,19,21.5v-14
			C19,7.362,18.986,7.227,18.959,7.096z M16.5,21h-10C6.224,21,6,20.776,6,20.5S6.224,20,6.5,20h10c0.276,0,0.5,0.224,0.5,0.5
			S16.776,21,16.5,21z M7.379,14.015c0.267-0.068,0.539,0.096,0.606,0.364l0.515,2.06l0.515-2.06
			c0.067-0.268,0.337-0.433,0.606-0.364c0.268,0.067,0.431,0.338,0.364,0.606l-1,4C8.929,18.844,8.729,19,8.5,19
			s-0.429-0.156-0.485-0.379l-1-4C6.948,14.354,7.111,14.082,7.379,14.015z M11,18.5v-4c0-0.276,0.224-0.5,0.5-0.5
			s0.5,0.224,0.5,0.5v4c0,0.276-0.224,0.5-0.5,0.5S11,18.776,11,18.5z M13,18.5v-4c0-0.276,0.224-0.5,0.5-0.5h1
			c0.827,0,1.5,0.673,1.5,1.5c0,0.827-0.673,1.5-1.5,1.5H14v1.5c0,0.276-0.224,0.5-0.5,0.5S13,18.776,13,18.5z M16.5,13h-10
			C6.224,13,6,12.776,6,12.5S6.224,12,6.5,12h10c0.276,0,0.5,0.224,0.5,0.5S16.776,13,16.5,13z"/>
		<path d="M15,15.5c0-0.276-0.224-0.5-0.5-0.5H14v1h0.5C14.776,16,15,15.776,15,15.5z"/>
	</g>
</g>
<g id="Event_Ticket">
</g>
<g id="VIP_Ticket">
</g>
<g id="Popcorn">
</g>
<g id="Cord">
</g>
<g id="Invitation_1">
</g>
<g id="Invitation_2">
</g>
</svg>
