<?xml version="1.0" encoding="iso-8859-1"?>
<!-- Generator: Adobe Illustrator 19.2.1, SVG Export Plug-In . SVG Version: 6.00 Build 0)  -->
<svg version="1.1" xmlns="http://www.w3.org/2000/svg" xmlns:xlink="http://www.w3.org/1999/xlink" x="0px" y="0px"
	 viewBox="0 0 30 30" style="enable-background:new 0 0 30 30;" xml:space="preserve">
<g id="Mail">
</g>
<g id="Open_Mail">
</g>
<g id="Mail_Attachmet">
</g>
<g id="Mails">
</g>
<g id="Trash">
</g>
<g id="Trash_Full">
</g>
<g id="Preferences_1">
</g>
<g id="Preferences_2">
</g>
<g id="Mouse">
</g>
<g id="Computer">
</g>
<g id="Notebook">
</g>
<g id="Mobile_Phone">
</g>
<g id="Print">
</g>
<g id="Calculator">
</g>
<g id="Tag">
</g>
<g id="Paperclip">
</g>
<g id="Heart">
</g>
<g id="Lock">
</g>
<g id="Lock_Open">
</g>
<g id="Key_1">
</g>
<g id="Star">
</g>
<g id="Add">
</g>
<g id="Remove">
</g>
<g id="Error">
</g>
<g id="Check_1">
</g>
<g id="Time">
</g>
<g id="Question_Mark">
</g>
<g id="Error_Mark">
</g>
<g id="Sand-Glass">
</g>
<g id="Battery_Full">
</g>
<g id="Battery_Charge">
</g>
<g id="Battery_Half">
</g>
<g id="Battery_Low">
</g>
<g id="No_Battery">
</g>
<g id="Key_2">
</g>
<g id="Link">
</g>
<g id="Brake_Link">
</g>
<g id="Pencil">
</g>
<g id="At">
</g>
<g id="Reply">
</g>
<g id="Accessible">
</g>
<g id="Up_Arrow">
</g>
<g id="Brush">
</g>
<g id="Design_Mug">
</g>
<g id="Design">
</g>
<g id="Server">
</g>
<g id="Database">
</g>
<g id="Save">
</g>
<g id="Female">
</g>
<g id="Male">
</g>
<g id="Book">
</g>
<g id="Power">
</g>
<g id="Reload">
</g>
<g id="Map">
</g>
<g id="Loction_1">
</g>
<g id="Location_2">
</g>
<g id="Globe">
</g>
<g id="Suitcase">
</g>
<g id="Callendar">
</g>
<g id="Cloud_Off">
</g>
<g id="File_1">
</g>
<g id="File_2">
</g>
<g id="Folder">
</g>
<g id="Open_Folder">
</g>
<g id="Cloud">
</g>
<g id="Upload_Cloud">
</g>
<g id="Download_Cloud">
</g>
<g id="Eye">
</g>
<g id="Invisible">
</g>
<g id="Assignment">
</g>
<g id="Note_Book">
</g>
<g id="Webpage">
</g>
<g id="Mailbox">
</g>
<g id="Drive">
</g>
<g id="Disc">
</g>
<g id="Wifi_1">
</g>
<g id="Wifi_2">
</g>
<g id="Archive">
</g>
<g id="Archive_File">
</g>
<g id="News">
</g>
<g id="Home">
</g>
<g id="Collaboration">
</g>
<g id="Announcement">
</g>
<g id="Watch">
</g>
<g id="Clock">
</g>
<g id="Volume">
	<g>
		<path d="M16.7,0.042c-0.183-0.08-0.395-0.043-0.54,0.092L6.608,9H2.5C1.122,9,0,10.122,0,11.5v7C0,19.879,1.122,21,2.5,21h4.108
			l9.552,8.866C16.254,29.954,16.376,30,16.5,30c0.067,0,0.136-0.014,0.2-0.042c0.182-0.079,0.3-0.259,0.3-0.458v-29
			C17,0.301,16.882,0.121,16.7,0.042z"/>
		<path d="M21.277,10.358c-0.268,0.07-0.428,0.343-0.357,0.61c0.342,1.309,0.515,2.665,0.515,4.031c0,1.363-0.173,2.719-0.514,4.028
			c-0.07,0.268,0.09,0.54,0.357,0.609c0.042,0.012,0.085,0.017,0.126,0.017c0.223,0,0.425-0.149,0.483-0.374
			c0.363-1.392,0.547-2.832,0.547-4.28c0-1.452-0.185-2.893-0.548-4.284C21.817,10.45,21.547,10.29,21.277,10.358z"/>
		<path d="M23.997,6.82c-0.255,0.106-0.376,0.398-0.271,0.653c0.989,2.388,1.491,4.919,1.491,7.526c0,2.604-0.501,5.136-1.49,7.523
			c-0.105,0.255,0.016,0.548,0.271,0.653c0.063,0.026,0.128,0.038,0.191,0.038c0.196,0,0.382-0.116,0.462-0.309
			c1.039-2.51,1.566-5.17,1.566-7.906c0-2.739-0.527-5.4-1.567-7.909C24.544,6.835,24.249,6.716,23.997,6.82z"/>
		<path d="M27.243,3.709c-0.127-0.245-0.43-0.339-0.675-0.212c-0.244,0.128-0.34,0.43-0.212,0.675C28.086,7.488,29,11.232,29,15
			c0,3.766-0.913,7.509-2.641,10.822c-0.128,0.245-0.032,0.547,0.212,0.675c0.074,0.038,0.153,0.057,0.231,0.057
			c0.18,0,0.354-0.098,0.443-0.269C29.048,22.828,30,18.927,30,15C30,11.071,29.047,7.167,27.243,3.709z"/>
	</g>
</g>
<g id="Mute">
</g>
<g id="Hand">
</g>
<g id="Layers">
</g>
<g id="Bell">
</g>
<g id="Speach_Bubble">
</g>
<g id="Speach_Bubbles">
</g>
<g id="Zoom_In">
</g>
<g id="Zoom_Out">
</g>
<g id="Search">
</g>
<g id="Back_Arrow">
</g>
<g id="Close">
</g>
<g id="Check_2">
</g>
<g id="Left_Arrow_2">
</g>
<g id="Right_Arrow_2">
</g>
</svg>
