<?xml version="1.0" encoding="iso-8859-1"?>
<!-- Generator: Adobe Illustrator 19.2.1, SVG Export Plug-In . SVG Version: 6.00 Build 0)  -->
<svg version="1.1" xmlns="http://www.w3.org/2000/svg" xmlns:xlink="http://www.w3.org/1999/xlink" x="0px" y="0px"
	 viewBox="0 0 30 30" style="enable-background:new 0 0 30 30;" xml:space="preserve">
<g id="Man_1">
</g>
<g id="Woman_1">
</g>
<g id="Man_2">
</g>
<g id="Woman_2">
</g>
<g id="Bald_Man">
</g>
<g id="Man_Glasses">
</g>
<g id="Woman_Glasses">
</g>
<g id="Man_Beard">
</g>
<g id="Man_Cap">
</g>
<g id="Woman_Cap">
</g>
<g id="Man_3">
</g>
<g id="Woman_3">
</g>
<g id="Men_4">
</g>
<g id="Woman_4">
</g>
<g id="Business_Man_1">
</g>
<g id="Business_Woman_1">
</g>
<g id="Firefigyhter">
</g>
<g id="Policeman">
</g>
<g id="Criminal">
</g>
<g id="Prisoner">
</g>
<g id="Woodsman">
</g>
<g id="Dispatcher_1">
</g>
<g id="Dispatcher_2">
</g>
<g id="Soldier">
</g>
<g id="Astronaut">
</g>
<g id="Hipster_Guy">
</g>
<g id="Hipster_Girl">
</g>
<g id="Worker">
</g>
<g id="Old_Man">
</g>
<g id="Punk">
</g>
<g id="Diver">
</g>
<g id="Artist">
</g>
<g id="Dictator">
</g>
<g id="Man_Hat">
</g>
<g id="Woman_Hat">
</g>
<g id="Graduated_Man">
</g>
<g id="Graduated_Woman">
</g>
<g id="Avatar_Chef">
</g>
<g id="Waiter">
</g>
<g id="Waitress">
	<g>
		<path d="M12.5,13h-1c-0.276,0-0.5,0.224-0.5,0.5s0.224,0.5,0.5,0.5h1c0.276,0,0.5-0.224,0.5-0.5S12.776,13,12.5,13z"/>
		<path d="M18.5,13h-1c-0.276,0-0.5,0.224-0.5,0.5s0.224,0.5,0.5,0.5h1c0.276,0,0.5-0.224,0.5-0.5S18.776,13,18.5,13z"/>
		<path d="M15,0C6.729,0,0,6.729,0,15c0,8.271,6.729,15,15,15c8.271,0,15-6.729,15-15C30,6.729,23.271,0,15,0z M4.569,24.305
			c0.469-0.191,1.255-0.506,1.725-0.691c0.299,0.632,0.523,1.842,0.642,2.81C6.067,25.81,5.276,25.097,4.569,24.305z M23.065,26.424
			c0.119-0.968,0.343-2.178,0.641-2.81c0.47,0.184,1.256,0.5,1.725,0.691C24.724,25.097,23.933,25.81,23.065,26.424z M23.658,22.525
			l-1.506-0.502c-0.17-0.054-0.46-0.227-0.738-0.44c-0.215-0.163-0.52-0.127-0.691,0.082L15,28.707l-5.722-7.042
			c-0.17-0.209-0.476-0.247-0.692-0.082c-0.279,0.214-0.569,0.387-0.745,0.442l-1.5,0.5c-0.207,0.07-1.984,0.783-2.44,0.974
			C2.09,21.14,1,18.198,1,15C1,7.28,7.28,1,15,1s14,6.28,14,14c0,3.198-1.089,6.139-2.901,8.499
			C25.642,23.308,23.866,22.595,23.658,22.525z"/>
		<path d="M23.886,13.228C23.935,13.075,24,12.813,24,12.5C24,7.439,19.794,3,15,3c-4.794,0-9,4.439-9,9.5
			c0,0.313,0.065,0.575,0.115,0.728c-0.033,0.278-0.104,0.921-0.112,1.221L5.008,19.91c-0.025,0.138,0.008,0.279,0.092,0.391
			s0.211,0.183,0.35,0.196l4.917,0.492c0.851,0.784,1.829,1.389,2.868,1.717c0.104,0.036,0.208,0.069,0.324,0.101
			c0.144,0.037,0.287,0.071,0.428,0.096C14.346,22.969,14.651,23,14.948,23s0.603-0.031,0.958-0.097
			c0.146-0.025,0.289-0.06,0.443-0.099c0.105-0.029,0.208-0.063,0.302-0.095c1.064-0.336,2.059-0.94,2.924-1.715l4.975-0.497
			c0.139-0.014,0.266-0.085,0.35-0.196s0.117-0.253,0.093-0.391l-0.995-5.464C23.989,14.144,23.918,13.505,23.886,13.228z
			 M22.25,16.688c-0.025,0-0.096-0.029-0.195-0.139c-0.122-0.132-0.308-0.188-0.477-0.15c-0.175,0.038-0.315,0.167-0.369,0.337
			c-0.849,2.676-3.053,4.45-4.87,5.024c-0.085,0.029-0.17,0.057-0.245,0.078c-0.12,0.029-0.239,0.06-0.366,0.082
			C15.43,21.975,15.183,22,14.948,22c-0.234,0-0.482-0.025-0.785-0.081c-0.122-0.021-0.241-0.052-0.35-0.079
			c-0.086-0.023-0.171-0.051-0.266-0.083c-2.136-0.676-4.002-2.646-4.756-5.021c-0.054-0.17-0.194-0.298-0.369-0.337
			c-0.173-0.039-0.355,0.019-0.476,0.15c-0.101,0.109-0.171,0.139-0.196,0.139c-0.218,0-0.75-0.764-0.75-2.179
			c0-0.201,0.074-0.891,0.122-1.279c0.006-0.053-0.012-0.105-0.023-0.159c0.609,0.128,1.191,0.383,1.199,0.386
			c0.151,0.068,0.327,0.056,0.467-0.033C8.905,13.337,8.993,13.186,9,13.021C9.037,12.105,9.292,11.104,9.5,11
			c0.817,0,3.342-0.569,4.206-2.257c1.188,1.108,3.715,2.142,6.351,2.249c0.21,0.987,0.928,2.131,1.022,2.278
			c0.095,0.147,0.255,0.23,0.421,0.23c0.07,0,0.141-0.015,0.208-0.045c0.196-0.09,0.691-0.278,1.194-0.382
			c-0.01,0.052-0.029,0.103-0.023,0.156C22.926,13.617,23,14.308,23,14.509C23,15.924,22.468,16.688,22.25,16.688z"/>
		<path d="M16.342,23.525L15,23.973l-1.342-0.447c-0.154-0.05-0.32-0.025-0.451,0.069C13.077,23.688,13,23.839,13,24v1
			c0,0.161,0.077,0.312,0.208,0.405c0.131,0.095,0.297,0.117,0.451,0.069L15,25.027l1.342,0.447
			c0.052,0.017,0.105,0.025,0.158,0.025c0.104,0,0.206-0.032,0.292-0.095C16.923,25.312,17,25.161,17,25v-1
			c0-0.161-0.077-0.312-0.208-0.405C16.662,23.5,16.494,23.477,16.342,23.525z"/>
	</g>
</g>
<g id="Bllboy">
</g>
<g id="Santa">
</g>
<g id="Doctor">
</g>
<g id="Nurse">
</g>
<g id="Captain">
</g>
<g id="Farmer">
</g>
<g id="Maid">
</g>
<g id="Business_Man_2">
</g>
<g id="Business_Woman_2">
</g>
<g id="Cowboy">
</g>
<g id="Anonymus">
</g>
<g id="Batman">
</g>
<g id="Superman">
</g>
<g id="Captain_America">
</g>
<g id="Darth_Vader">
</g>
<g id="Harry_Potter">
</g>
<g id="Anonymus_2">
</g>
<g id="Scream">
</g>
<g id="Jason">
</g>
<g id="Charlie_Chaplin">
</g>
</svg>
