<?xml version="1.0" encoding="iso-8859-1"?>
<!-- Generator: Adobe Illustrator 19.2.1, SVG Export Plug-In . SVG Version: 6.00 Build 0)  -->
<svg version="1.1" xmlns="http://www.w3.org/2000/svg" xmlns:xlink="http://www.w3.org/1999/xlink" x="0px" y="0px"
	 viewBox="0 0 24 24" style="enable-background:new 0 0 24 24;" xml:space="preserve">
<g id="Man_1">
</g>
<g id="Woman_1">
</g>
<g id="Man_2">
</g>
<g id="Woman_2">
</g>
<g id="Bald_Man">
</g>
<g id="Man_Glasses">
</g>
<g id="Woman_Glasses">
</g>
<g id="Man_Beard">
</g>
<g id="Man_Cap">
</g>
<g id="Woman_Cap">
</g>
<g id="Man_3">
</g>
<g id="Woman_3">
</g>
<g id="Men_4">
</g>
<g id="Woman_4">
</g>
<g id="Business_Man_1">
</g>
<g id="Business_Woman_1">
</g>
<g id="Firefigyhter">
</g>
<g id="Policeman">
</g>
<g id="Criminal">
</g>
<g id="Prisoner">
</g>
<g id="Woodsman">
</g>
<g id="Dispatcher_1">
</g>
<g id="Dispatcher_2">
</g>
<g id="Soldier">
</g>
<g id="Astronaut">
</g>
<g id="Hipster_Guy">
</g>
<g id="Hipster_Girl">
</g>
<g id="Worker">
</g>
<g id="Old_Man">
</g>
<g id="Punk">
</g>
<g id="Diver">
</g>
<g id="Artist">
</g>
<g id="Dictator">
</g>
<g id="Man_Hat">
</g>
<g id="Woman_Hat">
</g>
<g id="Graduated_Man">
</g>
<g id="Graduated_Woman">
</g>
<g id="Avatar_Chef">
</g>
<g id="Waiter">
	<g>
		<path d="M24,12c0-6.617-5.383-12-12-12S0,5.383,0,12c0,4.085,2.055,7.695,5.182,9.863c0.031,0.028,0.052,0.065,0.091,0.084
			C5.284,21.953,5.325,21.973,5.38,22c1.899,1.261,4.174,2,6.62,2c0.176,0,0.359-0.011,0.546-0.028
			c2.241-0.102,4.326-0.809,6.084-1.979c0.047-0.023,0.082-0.04,0.093-0.046c0.032-0.016,0.048-0.048,0.075-0.07
			C21.937,19.711,24,16.093,24,12z M12,1c6.065,0,11,4.935,11,11c0,2.269-0.691,4.38-1.873,6.133
			c-0.503-0.17-1.373-0.465-1.493-0.507l-2.033-0.707c-0.277-0.096-0.529-0.243-0.756-0.429c-0.005,0.007-0.011,0.012-0.017,0.018
			c-0.092-0.058-0.193-0.098-0.279-0.101c-0.161,0.003-0.311,0.083-0.402,0.216L12,22.621l-4.15-5.998
			c-0.156-0.227-0.467-0.281-0.692-0.128c-0.001-0.002-0.003-0.003-0.004-0.005c-0.227,0.185-0.479,0.333-0.756,0.429l-1.686,0.586
			l-0.001,0l-0.347,0.121c-0.116,0.04-0.943,0.356-1.458,0.552C1.704,16.416,1,14.289,1,12C1,5.935,5.935,1,12,1z M3.531,19.01
			c0.448-0.171,0.964-0.367,1.117-0.423c0.189,0.479,0.288,1.2,0.329,1.87C4.451,20.02,3.967,19.536,3.531,19.01z M19.019,20.462
			c0.04-0.672,0.14-1.395,0.33-1.876c0.157,0.054,0.691,0.235,1.149,0.39C20.053,19.517,19.557,20.014,19.019,20.462z"/>
		<path d="M5,11.071c0,1.532,0.631,2.643,1.5,2.643c0.053,0,0.112-0.004,0.177-0.017c0.796,2.03,2.234,3.529,3.922,4.063
			c0.085,0.029,0.17,0.057,0.264,0.082c0.117,0.03,0.235,0.058,0.351,0.078C11.509,17.975,11.759,18,12,18s0.491-0.025,0.781-0.079
			c0.121-0.021,0.239-0.049,0.363-0.081c0.087-0.023,0.172-0.051,0.247-0.077c1.697-0.536,3.136-2.036,3.932-4.066
			c0.064,0.013,0.124,0.017,0.177,0.017c0.869,0,1.5-1.111,1.5-2.643c0-0.218-0.06-0.758-0.09-1.016
			c0.037-0.12,0.077-0.31,0.084-0.529C18.995,9.518,19,9.51,19,9.5v0v0V9c0-0.041-0.018-0.078-0.028-0.117
			C18.692,5.039,15.675,2,12,2C8.332,2,5.319,5.027,5.029,8.861C5.015,8.906,5,8.952,5,9v0.5v0v0c0,0.01,0.005,0.018,0.005,0.027
			c0.008,0.219,0.047,0.409,0.084,0.529C5.06,10.313,5,10.853,5,11.071z M17.515,12.716c-0.01-0.003-0.045-0.023-0.097-0.08
			c-0.12-0.131-0.296-0.189-0.477-0.151c-0.174,0.038-0.315,0.167-0.369,0.337c-0.638,2.009-1.939,3.5-3.491,3.991
			c-0.065,0.022-0.131,0.044-0.191,0.061c-0.092,0.023-0.185,0.046-0.284,0.063C12.407,16.974,12.206,17,12,17
			s-0.407-0.026-0.611-0.064c-0.094-0.016-0.187-0.039-0.271-0.061c-0.067-0.019-0.133-0.041-0.208-0.065
			c-1.542-0.488-2.844-1.979-3.481-3.988c-0.054-0.17-0.195-0.299-0.369-0.337c-0.179-0.039-0.356,0.02-0.477,0.151
			c-0.051,0.055-0.086,0.076-0.078,0.078C6.382,12.685,6,12.135,6,11.071c0-0.192,0.066-0.758,0.088-0.946
			c0.28,0.099,0.535,0.229,0.647,0.299c0.073,0.045,0.154,0.07,0.236,0.075c0.045,0.003,0.087-0.016,0.131-0.026
			c0.037-0.008,0.076-0.005,0.112-0.022c0.153-0.073,0.26-0.218,0.282-0.386C7.598,9.298,7.87,8.462,8,8.357
			c0.474,0,1.318-0.113,2.057-0.479c0.133-0.066,0.26-0.143,0.384-0.225c0.014-0.01,0.03-0.016,0.044-0.026
			c0.097-0.068,0.184-0.148,0.271-0.228c0.035-0.032,0.076-0.058,0.109-0.092c0.025-0.025,0.042-0.057,0.066-0.083
			c0.088-0.097,0.174-0.196,0.245-0.31c0.952,0.931,2.804,1.847,4.872,1.966c0.129,0.685,0.473,1.292,0.521,1.372
			c0.061,0.104,0.16,0.176,0.274,0.215c0.014,0.005,0.026,0.016,0.041,0.019h0c0,0,0,0,0,0C16.922,10.496,16.961,10.5,17,10.5
			c0.095,0,0.189-0.027,0.271-0.08c0.004-0.003,0.289-0.18,0.641-0.303C17.932,10.296,18,10.876,18,11.071
			C18,12.135,17.617,12.686,17.515,12.716z"/>
		<path d="M10.5,10h-1C9.224,10,9,10.224,9,10.5S9.224,11,9.5,11h1c0.276,0,0.5-0.224,0.5-0.5S10.776,10,10.5,10z"/>
		<path d="M14.5,10h-1c-0.276,0-0.5,0.224-0.5,0.5s0.224,0.5,0.5,0.5h1c0.276,0,0.5-0.224,0.5-0.5S14.776,10,14.5,10z"/>
		<path d="M13.342,18.026L12,18.473l-1.342-0.447c-0.154-0.053-0.32-0.026-0.45,0.068C10.077,18.188,10,18.339,10,18.5v1
			c0,0.161,0.077,0.312,0.208,0.406c0.13,0.093,0.296,0.12,0.45,0.068L12,19.527l1.342,0.447C13.394,19.992,13.447,20,13.5,20
			c0.104,0,0.206-0.032,0.292-0.094C13.923,19.812,14,19.661,14,19.5v-1c0-0.161-0.077-0.312-0.208-0.406
			S13.495,17.973,13.342,18.026z"/>
	</g>
</g>
<g id="Waitress">
</g>
<g id="Bllboy">
</g>
<g id="Santa">
</g>
<g id="Doctor">
</g>
<g id="Nurse">
</g>
<g id="Captain">
</g>
<g id="Farmer">
</g>
<g id="Maid">
</g>
<g id="Business_Man_2">
</g>
<g id="Business_Woman_2">
</g>
<g id="Cowboy">
</g>
<g id="Anonymus">
</g>
<g id="Batman">
</g>
<g id="Superman">
</g>
<g id="Captain_America">
</g>
<g id="Darth_Vader">
</g>
<g id="Harry_Potter">
</g>
<g id="Anonymus_2">
</g>
<g id="Scream">
</g>
<g id="Jason">
</g>
<g id="Charlie_Chaplin">
</g>
</svg>
