<?xml version="1.0" encoding="iso-8859-1"?>
<!-- Generator: Adobe Illustrator 19.2.1, SVG Export Plug-In . SVG Version: 6.00 Build 0)  -->
<svg version="1.1" xmlns="http://www.w3.org/2000/svg" xmlns:xlink="http://www.w3.org/1999/xlink" x="0px" y="0px"
	 viewBox="0 0 24 24" style="enable-background:new 0 0 24 24;" xml:space="preserve">
<g id="Man_1">
</g>
<g id="Woman_1">
</g>
<g id="Man_2">
</g>
<g id="Woman_2">
</g>
<g id="Bald_Man">
</g>
<g id="Man_Glasses">
</g>
<g id="Woman_Glasses">
</g>
<g id="Man_Beard">
</g>
<g id="Man_Cap">
</g>
<g id="Woman_Cap">
</g>
<g id="Man_3">
</g>
<g id="Woman_3">
</g>
<g id="Men_4">
</g>
<g id="Woman_4">
</g>
<g id="Business_Man_1">
</g>
<g id="Business_Woman_1">
</g>
<g id="Firefigyhter">
</g>
<g id="Policeman">
</g>
<g id="Criminal">
</g>
<g id="Prisoner">
</g>
<g id="Woodsman">
</g>
<g id="Dispatcher_1">
</g>
<g id="Dispatcher_2">
</g>
<g id="Soldier">
</g>
<g id="Astronaut">
</g>
<g id="Hipster_Guy">
</g>
<g id="Hipster_Girl">
</g>
<g id="Worker">
</g>
<g id="Old_Man">
</g>
<g id="Punk">
</g>
<g id="Diver">
</g>
<g id="Artist">
</g>
<g id="Dictator">
</g>
<g id="Man_Hat">
</g>
<g id="Woman_Hat">
</g>
<g id="Graduated_Man">
</g>
<g id="Graduated_Woman">
</g>
<g id="Avatar_Chef">
</g>
<g id="Waiter">
</g>
<g id="Waitress">
	<g>
		<path d="M24,12c0-6.617-5.383-12-12-12S0,5.383,0,12c0,4.55,2.546,8.517,6.288,10.551c0.01,0.005,0.019,0.01,0.029,0.014
			C8.01,23.479,9.945,24,12,24c2.051,0,3.982-0.519,5.672-1.429c0.073-0.024,0.14-0.06,0.194-0.113C21.522,20.399,24,16.486,24,12z
			 M5.672,19.436c0.141,0.394,0.244,1.059,0.294,1.751c-0.574-0.378-1.109-0.81-1.601-1.286c0.147-0.057,0.275-0.107,0.329-0.125
			L5.672,19.436z M18.346,19.429l0.992,0.345c0.051,0.018,0.169,0.065,0.305,0.119c-0.49,0.474-1.022,0.905-1.592,1.283
			C18.101,20.484,18.204,19.821,18.346,19.429z M12,1c6.065,0,11,4.935,11,11c0,2.712-0.991,5.193-2.624,7.113
			c-0.267-0.109-0.607-0.247-0.709-0.283l-2.033-0.708c-0.045-0.016-0.085-0.009-0.122,0.006l-0.371-0.108
			c-0.179-0.053-0.365-0.003-0.494,0.126L12,22.793l-4.646-4.646c-0.081-0.081-0.186-0.117-0.296-0.13
			C7.054,18.012,7.051,18.005,7.047,18l-0.02,0.017c-0.057-0.003-0.113-0.013-0.169,0.003l-0.262,0.078
			c-0.055-0.005-0.117-0.002-0.197,0.026l-0.624,0.217l-0.006,0.002c0,0-0.001,0.001-0.001,0.001l-1.402,0.488
			c-0.102,0.035-0.461,0.176-0.738,0.285C1.993,17.197,1,14.714,1,12C1,5.935,5.935,1,12,1z"/>
		<path d="M10.5,11h-1C9.224,11,9,11.224,9,11.5S9.224,12,9.5,12h1c0.276,0,0.5-0.224,0.5-0.5S10.776,11,10.5,11z"/>
		<path d="M14.5,11h-1c-0.276,0-0.5,0.224-0.5,0.5s0.224,0.5,0.5,0.5h1c0.276,0,0.5-0.224,0.5-0.5S14.776,11,14.5,11z"/>
		<path d="M4.089,16.784c0.078,0.114,0.2,0.19,0.338,0.21c0.12,0.018,2.972,0.441,4.044,0.504C8.48,17.5,8.49,17.5,8.5,17.5
			c0.008,0,0.015-0.006,0.023-0.006c0.62,0.586,1.321,1.027,2.076,1.266c0.085,0.029,0.17,0.057,0.264,0.082
			c0.117,0.03,0.235,0.058,0.351,0.078C11.509,18.975,11.759,19,12,19s0.491-0.025,0.781-0.079c0.121-0.021,0.239-0.049,0.363-0.081
			c0.087-0.023,0.172-0.051,0.247-0.077c0.76-0.24,1.463-0.682,2.085-1.27c0.008,0,0.015,0.007,0.023,0.007
			c0.01,0,0.02,0,0.029-0.001c1.072-0.063,3.924-0.486,4.044-0.504c0.138-0.021,0.26-0.097,0.338-0.21
			c0.079-0.114,0.106-0.255,0.077-0.391C19.979,16.348,19,11.837,19,10.5V10c0-0.041-0.018-0.078-0.028-0.117
			C18.692,6.039,15.675,3,12,3C8.332,3,5.319,6.027,5.029,9.861C5.015,9.906,5,9.952,5,10v0.5c0,1.336-0.979,5.848-0.988,5.894
			C3.982,16.529,4.01,16.67,4.089,16.784z M13.081,17.813c-0.065,0.022-0.131,0.044-0.191,0.061
			c-0.092,0.023-0.185,0.046-0.284,0.063C12.407,17.974,12.206,18,12,18s-0.407-0.026-0.611-0.064
			c-0.094-0.016-0.187-0.039-0.271-0.061c-0.067-0.019-0.133-0.041-0.208-0.065c-1.542-0.488-2.844-1.979-3.481-3.988
			c-0.054-0.17-0.195-0.299-0.369-0.337c-0.178-0.039-0.356,0.02-0.477,0.151c-0.051,0.055-0.086,0.076-0.078,0.078
			C6.382,13.685,6,13.135,6,12.071c0-0.192,0.066-0.758,0.088-0.946c0.28,0.099,0.535,0.229,0.647,0.299
			c0.021,0.013,0.046,0.012,0.068,0.021c0.125,0.055,0.263,0.064,0.388,0.01c0.007-0.003,0.015-0.001,0.022-0.004
			c0.153-0.073,0.26-0.218,0.282-0.386C7.598,10.298,7.87,9.462,8,9.357c0.759,0,2.462-0.289,3.176-1.443
			c0.743,0.727,2.039,1.44,3.556,1.776c0.425,0.094,0.864,0.164,1.316,0.19c0.129,0.685,0.473,1.292,0.521,1.372
			c0.034,0.058,0.08,0.109,0.133,0.149c0.023,0.017,0.053,0.024,0.079,0.037c0.033,0.017,0.063,0.038,0.1,0.047c0,0,0.001,0,0.002,0
			l0.002,0.001C16.922,11.496,16.961,11.5,17,11.5c0.093,0,0.185-0.026,0.265-0.076c0.105-0.065,0.363-0.197,0.648-0.297
			C17.935,11.314,18,11.879,18,12.071c0,1.064-0.383,1.614-0.485,1.645c-0.01-0.003-0.045-0.023-0.097-0.08
			c-0.119-0.132-0.298-0.19-0.477-0.151c-0.174,0.038-0.315,0.167-0.369,0.337C15.935,15.832,14.633,17.322,13.081,17.813z"/>
		<path d="M13.342,19.026L12,19.473l-1.342-0.447c-0.153-0.053-0.321-0.025-0.45,0.068C10.077,19.188,10,19.339,10,19.5v1
			c0,0.161,0.077,0.312,0.208,0.406c0.129,0.093,0.297,0.12,0.45,0.068L12,20.527l1.342,0.447C13.394,20.992,13.447,21,13.5,21
			c0.104,0,0.206-0.032,0.292-0.094C13.923,20.812,14,20.661,14,20.5v-1c0-0.161-0.077-0.312-0.208-0.406
			C13.662,19,13.494,18.973,13.342,19.026z"/>
	</g>
</g>
<g id="Bllboy">
</g>
<g id="Santa">
</g>
<g id="Doctor">
</g>
<g id="Nurse">
</g>
<g id="Captain">
</g>
<g id="Farmer">
</g>
<g id="Maid">
</g>
<g id="Business_Man_2">
</g>
<g id="Business_Woman_2">
</g>
<g id="Cowboy">
</g>
<g id="Anonymus">
</g>
<g id="Batman">
</g>
<g id="Superman">
</g>
<g id="Captain_America">
</g>
<g id="Darth_Vader">
</g>
<g id="Harry_Potter">
</g>
<g id="Anonymus_2">
</g>
<g id="Scream">
</g>
<g id="Jason">
</g>
<g id="Charlie_Chaplin">
</g>
</svg>
