<?xml version="1.0" encoding="iso-8859-1"?>
<!-- Generator: Adobe Illustrator 19.2.1, SVG Export Plug-In . SVG Version: 6.00 Build 0)  -->
<svg version="1.1" xmlns="http://www.w3.org/2000/svg" xmlns:xlink="http://www.w3.org/1999/xlink" x="0px" y="0px"
	 viewBox="0 0 30 30" style="enable-background:new 0 0 30 30;" xml:space="preserve">
<g id="Retro_Bot_1">
</g>
<g id="Retro_Bot_2">
</g>
<g id="Retro_Bot_3">
</g>
<g id="Retro_Bot_4">
</g>
<g id="Wall-E">
	<g id="Wall-e">
		<g>
			<path d="M21.5,26h-14C7.224,26,7,25.776,7,25.5v-14C7,11.224,7.224,11,7.5,11h14c0.276,0,0.5,0.224,0.5,0.5v14
				C22,25.776,21.776,26,21.5,26z M8,25h13V12H8V25z"/>
		</g>
		<g>
			<path d="M27.5,30h-5c-0.967,0-1.5-0.533-1.5-1.5v-10c0-0.967,0.533-1.5,1.5-1.5h5c0.967,0,1.5,0.533,1.5,1.5v10
				C29,29.467,28.467,30,27.5,30z M22.5,18c-0.416,0-0.5,0.084-0.5,0.5v10c0,0.416,0.084,0.5,0.5,0.5h5c0.416,0,0.5-0.084,0.5-0.5
				v-10c0-0.416-0.084-0.5-0.5-0.5H22.5z"/>
		</g>
		<g>
			<path d="M6.5,30h-5C0.533,30,0,29.467,0,28.5v-10C0,17.533,0.533,17,1.5,17h5C7.467,17,8,17.533,8,18.5v10
				C8,29.467,7.467,30,6.5,30z M1.5,18C1.084,18,1,18.084,1,18.5v10C1,28.916,1.084,29,1.5,29h5C6.916,29,7,28.916,7,28.5v-10
				C7,18.084,6.916,18,6.5,18H1.5z"/>
		</g>
		<g>
			<path d="M15.5,12h-2c-0.276,0-0.5-0.224-0.5-0.5v-5C13,6.224,13.224,6,13.5,6h2C15.776,6,16,6.224,16,6.5v5
				C16,11.776,15.776,12,15.5,12z M14,11h1V7h-1V11z"/>
		</g>
		<g>
			<path style="fill:#FFFFFF;" d="M8.5,5.5c-1.381,0-3-1.619-3-3s0.619-2,2-2h6v0C13.5,3.261,11.261,5.5,8.5,5.5L8.5,5.5z"/>
			<path d="M8.5,6C6.832,6,5,4.168,5,2.5C5,0.841,5.841,0,7.5,0h6C13.776,0,14,0.224,14,0.5C14,3.533,11.533,6,8.5,6z M7.5,1
				C6.393,1,6,1.393,6,2.5C6,3.598,7.402,5,8.5,5c2.313,0,4.223-1.753,4.472-4H7.5z"/>
		</g>
		<g>
			<path style="fill:#FFFFFF;" d="M20.5,5.5c1.381,0,3-1.619,3-3s-0.619-2-2-2h-6v0C15.5,3.261,17.739,5.5,20.5,5.5L20.5,5.5z"/>
			<path d="M20.5,6C17.467,6,15,3.533,15,0.5C15,0.224,15.224,0,15.5,0h6C23.159,0,24,0.841,24,2.5C24,4.168,22.168,6,20.5,6z
				 M16.028,1c0.25,2.247,2.16,4,4.472,4C21.598,5,23,3.598,23,2.5C23,1.393,22.607,1,21.5,1H16.028z"/>
		</g>
		<g>
			<path d="M14.5,7C14.224,7,14,6.776,14,6.5V1.583c0-0.276,0.224-0.5,0.5-0.5s0.5,0.224,0.5,0.5V6.5C15,6.776,14.776,7,14.5,7z"/>
		</g>
		<g>
			<path d="M15.5,2h-2C13.224,2,13,1.776,13,1.5S13.224,1,13.5,1h2C15.776,1,16,1.224,16,1.5S15.776,2,15.5,2z"/>
		</g>
		<g>
			<path d="M25.5,20h-1c-0.276,0-0.5-0.224-0.5-0.5s0.224-0.5,0.5-0.5h1c0.276,0,0.5,0.224,0.5,0.5S25.776,20,25.5,20z"/>
		</g>
		<g>
			<path d="M25.5,22h-1c-0.276,0-0.5-0.224-0.5-0.5s0.224-0.5,0.5-0.5h1c0.276,0,0.5,0.224,0.5,0.5S25.776,22,25.5,22z"/>
		</g>
		<g>
			<path d="M25.5,24h-1c-0.276,0-0.5-0.224-0.5-0.5s0.224-0.5,0.5-0.5h1c0.276,0,0.5,0.224,0.5,0.5S25.776,24,25.5,24z"/>
		</g>
		<g>
			<path d="M25.5,26h-1c-0.276,0-0.5-0.224-0.5-0.5s0.224-0.5,0.5-0.5h1c0.276,0,0.5,0.224,0.5,0.5S25.776,26,25.5,26z"/>
		</g>
		<g>
			<path d="M25.5,28h-1c-0.276,0-0.5-0.224-0.5-0.5s0.224-0.5,0.5-0.5h1c0.276,0,0.5,0.224,0.5,0.5S25.776,28,25.5,28z"/>
		</g>
		<g>
			<path d="M4.5,20h-1C3.224,20,3,19.776,3,19.5S3.224,19,3.5,19h1C4.776,19,5,19.224,5,19.5S4.776,20,4.5,20z"/>
		</g>
		<g>
			<path d="M4.5,22h-1C3.224,22,3,21.776,3,21.5S3.224,21,3.5,21h1C4.776,21,5,21.224,5,21.5S4.776,22,4.5,22z"/>
		</g>
		<g>
			<path d="M4.5,24h-1C3.224,24,3,23.776,3,23.5S3.224,23,3.5,23h1C4.776,23,5,23.224,5,23.5S4.776,24,4.5,24z"/>
		</g>
		<g>
			<path d="M4.5,26h-1C3.224,26,3,25.776,3,25.5S3.224,25,3.5,25h1C4.776,25,5,25.224,5,25.5S4.776,26,4.5,26z"/>
		</g>
		<g>
			<path d="M4.5,28h-1C3.224,28,3,27.776,3,27.5S3.224,27,3.5,27h1C4.776,27,5,27.224,5,27.5S4.776,28,4.5,28z"/>
		</g>
		<g>
			<path d="M19.5,18h-3c-0.276,0-0.5-0.224-0.5-0.5v-3c0-0.276,0.224-0.5,0.5-0.5h3c0.276,0,0.5,0.224,0.5,0.5v3
				C20,17.776,19.776,18,19.5,18z M17,17h2v-2h-2V17z"/>
		</g>
		<g>
			<path d="M14.5,15h-5C9.224,15,9,14.776,9,14.5S9.224,14,9.5,14h5c0.276,0,0.5,0.224,0.5,0.5S14.776,15,14.5,15z"/>
		</g>
		<g>
			<path d="M14.5,18h-5C9.224,18,9,17.776,9,17.5S9.224,17,9.5,17h5c0.276,0,0.5,0.224,0.5,0.5S14.776,18,14.5,18z"/>
		</g>
		<g>
			<circle style="fill:#FFFFFF;" cx="20" cy="2.5" r="1"/>
			<path d="M20,4c-0.827,0-1.5-0.673-1.5-1.5S19.173,1,20,1s1.5,0.673,1.5,1.5S20.827,4,20,4z M20,2c-0.276,0-0.5,0.224-0.5,0.5
				S19.724,3,20,3s0.5-0.224,0.5-0.5S20.276,2,20,2z"/>
		</g>
		<g>
			<circle style="fill:#FFFFFF;" cx="9" cy="2.5" r="1"/>
			<path d="M9,4C8.173,4,7.5,3.327,7.5,2.5S8.173,1,9,1s1.5,0.673,1.5,1.5S9.827,4,9,4z M9,2C8.724,2,8.5,2.224,8.5,2.5S8.724,3,9,3
				s0.5-0.224,0.5-0.5S9.276,2,9,2z"/>
		</g>
	</g>
</g>
<g id="Eva">
</g>
<g id="Iron_Giant">
</g>
<g id="Marvin">
</g>
<g id="Atlas">
</g>
<g id="Claptrap">
</g>
<g id="Android">
</g>
<g id="Bender">
</g>
<g id="Roberto">
</g>
<g id="Robot_Devil">
</g>
<g id="Robocop">
</g>
<g id="ED_209">
</g>
<g id="Optimus_Prime">
</g>
<g id="Robot_1">
</g>
<g id="Robot_2">
</g>
<g id="Robot_3">
</g>
<g id="Robot_Arm_1">
</g>
<g id="Robot_Arm_2">
</g>
<g id="Robot_Arm_3">
</g>
<g id="Robot_Arm_4">
</g>
<g id="Robot_Arm_5">
</g>
<g id="K5_Robot">
</g>
<g id="Robot_Machine_1">
</g>
<g id="Robot_Machine_2">
</g>
<g id="Artifical_Intelligence_1">
</g>
<g id="Artifical_Intelligence_2">
</g>
<g id="Robot_4">
</g>
<g id="Robot_5">
</g>
<g id="Robot_6">
</g>
<g id="Robot_7">
</g>
<g id="Robot_8">
</g>
<g id="Robot_9">
</g>
<g id="Robot_10">
</g>
<g id="Robot_11">
</g>
<g id="Robot_12">
</g>
<g id="Robot_13">
</g>
</svg>
