<?xml version="1.0" encoding="iso-8859-1"?>
<!-- Generator: Adobe Illustrator 19.2.1, SVG Export Plug-In . SVG Version: 6.00 Build 0)  -->
<svg version="1.1" xmlns="http://www.w3.org/2000/svg" xmlns:xlink="http://www.w3.org/1999/xlink" x="0px" y="0px"
	 viewBox="0 0 24 24" style="enable-background:new 0 0 24 24;" xml:space="preserve">
<g id="Retro_Bot_1">
</g>
<g id="Retro_Bot_2">
</g>
<g id="Retro_Bot_3">
</g>
<g id="Retro_Bot_4">
</g>
<g id="Wall-E">
	<g>
		<path d="M4.5,13h-3C0.673,13,0,13.673,0,14.5v8C0,23.327,0.673,24,1.5,24h3C5.327,24,6,23.327,6,22.5v-8C6,13.673,5.327,13,4.5,13
			z M3.5,22h-1C2.224,22,2,21.776,2,21.5S2.224,21,2.5,21h1C3.776,21,4,21.224,4,21.5S3.776,22,3.5,22z M3.5,20h-1
			C2.224,20,2,19.776,2,19.5S2.224,19,2.5,19h1C3.776,19,4,19.224,4,19.5S3.776,20,3.5,20z M3.5,18h-1C2.224,18,2,17.776,2,17.5
			S2.224,17,2.5,17h1C3.776,17,4,17.224,4,17.5S3.776,18,3.5,18z M3.5,16h-1C2.224,16,2,15.776,2,15.5S2.224,15,2.5,15h1
			C3.776,15,4,15.224,4,15.5S3.776,16,3.5,16z"/>
		<path d="M21.5,13h-3c-0.827,0-1.5,0.673-1.5,1.5v8c0,0.827,0.673,1.5,1.5,1.5h3c0.827,0,1.5-0.673,1.5-1.5v-8
			C23,13.673,22.327,13,21.5,13z M20.5,22h-1c-0.276,0-0.5-0.224-0.5-0.5s0.224-0.5,0.5-0.5h1c0.276,0,0.5,0.224,0.5,0.5
			S20.776,22,20.5,22z M20.5,20h-1c-0.276,0-0.5-0.224-0.5-0.5s0.224-0.5,0.5-0.5h1c0.276,0,0.5,0.224,0.5,0.5S20.776,20,20.5,20z
			 M20.5,18h-1c-0.276,0-0.5-0.224-0.5-0.5s0.224-0.5,0.5-0.5h1c0.276,0,0.5,0.224,0.5,0.5S20.776,18,20.5,18z M20.5,16h-1
			c-0.276,0-0.5-0.224-0.5-0.5s0.224-0.5,0.5-0.5h1c0.276,0,0.5,0.224,0.5,0.5S20.776,16,20.5,16z"/>
		<rect x="14" y="12" width="1" height="1"/>
		<path d="M18,9.5C18,9.224,17.776,9,17.5,9H13V5.5C13,5.224,12.776,5,12.5,5H12V2h0.276c0.621,1.742,2.271,3,4.224,3
			C17.878,5,19,3.878,19,2.5S17.878,0,16.5,0h-4C12.224,0,12,0.224,12,0.5c0,0.171,0.032,0.334,0.051,0.5h-1.101
			C10.968,0.834,11,0.671,11,0.5C11,0.224,10.776,0,10.5,0h-4C5.122,0,4,1.122,4,2.5S5.122,5,6.5,5c1.953,0,3.602-1.258,4.224-3H11
			v3h-0.5C10.224,5,10,5.224,10,5.5V9H5.5C5.224,9,5,9.224,5,9.5v2.551c1.14,0.232,2,1.242,2,2.449V21h9v-6.5
			c0-1.207,0.86-2.217,2-2.449V9.5z M15.75,1C16.439,1,17,1.561,17,2.25S16.439,3.5,15.75,3.5S14.5,2.939,14.5,2.25
			S15.061,1,15.75,1z M7.25,3.5C6.561,3.5,6,2.939,6,2.25S6.561,1,7.25,1S8.5,1.561,8.5,2.25S7.939,3.5,7.25,3.5z M11.5,14h-4
			C7.224,14,7,13.776,7,13.5S7.224,13,7.5,13h4c0.276,0,0.5,0.224,0.5,0.5S11.776,14,11.5,14z M11.5,12h-4C7.224,12,7,11.776,7,11.5
			S7.224,11,7.5,11h4c0.276,0,0.5,0.224,0.5,0.5S11.776,12,11.5,12z M16,13.5c0,0.276-0.224,0.5-0.5,0.5h-2
			c-0.276,0-0.5-0.224-0.5-0.5v-2c0-0.276,0.224-0.5,0.5-0.5h2c0.276,0,0.5,0.224,0.5,0.5V13.5z"/>
	</g>
</g>
<g id="Eva">
</g>
<g id="Iron_Giant">
</g>
<g id="Marvin">
</g>
<g id="Atlas">
</g>
<g id="Claptrap">
</g>
<g id="Android">
</g>
<g id="Bender">
</g>
<g id="Roberto">
</g>
<g id="Robot_Devil">
</g>
<g id="Robocop">
</g>
<g id="ED_209">
</g>
<g id="Optimus_Prime">
</g>
<g id="Robot_1">
</g>
<g id="Robot_2">
</g>
<g id="Robot_3">
</g>
<g id="Robot_Arm_1">
</g>
<g id="Robot_Arm_2">
</g>
<g id="Robot_Arm_3">
</g>
<g id="Robot_Arm_4">
</g>
<g id="Robot_Arm_5">
</g>
<g id="K5_Robot">
</g>
<g id="Robot_Machine_1">
</g>
<g id="Robot_Machine_2">
</g>
<g id="Artifical_Intelligence_1">
</g>
<g id="Artifical_Intelligence_2">
</g>
<g id="Robot_4">
</g>
<g id="Robot_5">
</g>
<g id="Robot_6">
</g>
<g id="Robot_7">
</g>
<g id="Robot_8">
</g>
<g id="Robot_9">
</g>
<g id="Robot_10">
</g>
<g id="Robot_11">
</g>
<g id="Robot_12">
</g>
<g id="Robot_13">
</g>
</svg>
