<?xml version="1.0" encoding="iso-8859-1"?>
<!-- Generator: Adobe Illustrator 19.2.1, SVG Export Plug-In . SVG Version: 6.00 Build 0)  -->
<svg version="1.1" xmlns="http://www.w3.org/2000/svg" xmlns:xlink="http://www.w3.org/1999/xlink" x="0px" y="0px"
	 viewBox="0 0 30 30" style="enable-background:new 0 0 30 30;" xml:space="preserve">
<g id="Retro_Bot_1">
</g>
<g id="Retro_Bot_2">
</g>
<g id="Retro_Bot_3">
</g>
<g id="Retro_Bot_4">
</g>
<g id="Wall-E">
	<g>
		<path d="M27.5,17h-5c-0.968,0-1.5,0.533-1.5,1.5v10c0,0.967,0.532,1.5,1.5,1.5h5c0.968,0,1.5-0.533,1.5-1.5v-10
			C29,17.533,28.468,17,27.5,17z M25.5,28h-1c-0.276,0-0.5-0.224-0.5-0.5s0.224-0.5,0.5-0.5h1c0.276,0,0.5,0.224,0.5,0.5
			S25.776,28,25.5,28z M25.5,26h-1c-0.276,0-0.5-0.224-0.5-0.5s0.224-0.5,0.5-0.5h1c0.276,0,0.5,0.224,0.5,0.5S25.776,26,25.5,26z
			 M25.5,24h-1c-0.276,0-0.5-0.224-0.5-0.5s0.224-0.5,0.5-0.5h1c0.276,0,0.5,0.224,0.5,0.5S25.776,24,25.5,24z M25.5,22h-1
			c-0.276,0-0.5-0.224-0.5-0.5s0.224-0.5,0.5-0.5h1c0.276,0,0.5,0.224,0.5,0.5S25.776,22,25.5,22z M25.5,20h-1
			c-0.276,0-0.5-0.224-0.5-0.5s0.224-0.5,0.5-0.5h1c0.276,0,0.5,0.224,0.5,0.5S25.776,20,25.5,20z"/>
		<path d="M6.5,17h-5C0.532,17,0,17.533,0,18.5v10C0,29.467,0.532,30,1.5,30h5C7.468,30,8,29.467,8,28.5v-10
			C8,17.533,7.468,17,6.5,17z M4.5,28h-1C3.224,28,3,27.776,3,27.5S3.224,27,3.5,27h1C4.776,27,5,27.224,5,27.5S4.776,28,4.5,28z
			 M4.5,26h-1C3.224,26,3,25.776,3,25.5S3.224,25,3.5,25h1C4.776,25,5,25.224,5,25.5S4.776,26,4.5,26z M4.5,24h-1
			C3.224,24,3,23.776,3,23.5S3.224,23,3.5,23h1C4.776,23,5,23.224,5,23.5S4.776,24,4.5,24z M4.5,22h-1C3.224,22,3,21.776,3,21.5
			S3.224,21,3.5,21h1C4.776,21,5,21.224,5,21.5S4.776,22,4.5,22z M4.5,20h-1C3.224,20,3,19.776,3,19.5S3.224,19,3.5,19h1
			C4.776,19,5,19.224,5,19.5S4.776,20,4.5,20z"/>
		<rect x="17" y="15" width="2" height="2"/>
		<path d="M22,11.5c0-0.276-0.224-0.5-0.5-0.5H16V6.5C16,6.224,15.776,6,15.5,6H15V2h0.213c0.655,2.305,2.775,4,5.287,4
			C22.168,6,24,4.168,24,2.5C24,0.841,23.159,0,21.5,0h-6C15.224,0,15,0.224,15,0.5c0,0.169,0.01,0.335,0.025,0.5h-1.051
			C13.99,0.835,14,0.669,14,0.5C14,0.224,13.776,0,13.5,0h-6C5.841,0,5,0.841,5,2.5C5,4.168,6.832,6,8.5,6
			c2.512,0,4.631-1.695,5.287-4H14v4h-0.5C13.224,6,13,6.224,13,6.5V11H7.5C7.224,11,7,11.224,7,11.5v4.542
			c1.229,0.195,2,1.115,2,2.458V26h11v-7.5c0-1.344,0.771-2.264,2-2.458V11.5z M20,1c0.827,0,1.5,0.673,1.5,1.5S20.827,4,20,4
			s-1.5-0.673-1.5-1.5S19.173,1,20,1z M9,4C8.173,4,7.5,3.327,7.5,2.5S8.173,1,9,1s1.5,0.673,1.5,1.5S9.827,4,9,4z M14.5,18h-5
			C9.224,18,9,17.776,9,17.5S9.224,17,9.5,17h5c0.276,0,0.5,0.224,0.5,0.5S14.776,18,14.5,18z M14.5,15h-5C9.224,15,9,14.776,9,14.5
			S9.224,14,9.5,14h5c0.276,0,0.5,0.224,0.5,0.5S14.776,15,14.5,15z M20,17.5c0,0.276-0.224,0.5-0.5,0.5h-3
			c-0.276,0-0.5-0.224-0.5-0.5v-3c0-0.276,0.224-0.5,0.5-0.5h3c0.276,0,0.5,0.224,0.5,0.5V17.5z"/>
	</g>
</g>
<g id="Eva">
</g>
<g id="Iron_Giant">
</g>
<g id="Marvin">
</g>
<g id="Atlas">
</g>
<g id="Claptrap">
</g>
<g id="Android">
</g>
<g id="Bender">
</g>
<g id="Roberto">
</g>
<g id="Robot_Devil">
</g>
<g id="Robocop">
</g>
<g id="ED_209">
</g>
<g id="Optimus_Prime">
</g>
<g id="Robot_1">
</g>
<g id="Robot_2">
</g>
<g id="Robot_3">
</g>
<g id="Robot_Arm_1">
</g>
<g id="Robot_Arm_2">
</g>
<g id="Robot_Arm_3">
</g>
<g id="Robot_Arm_4">
</g>
<g id="Robot_Arm_5">
</g>
<g id="K5_Robot">
</g>
<g id="Robot_Machine_1">
</g>
<g id="Robot_Machine_2">
</g>
<g id="Artifical_Intelligence_1">
</g>
<g id="Artifical_Intelligence_2">
</g>
<g id="Robot_4">
</g>
<g id="Robot_5">
</g>
<g id="Robot_6">
</g>
<g id="Robot_7">
</g>
<g id="Robot_8">
</g>
<g id="Robot_9">
</g>
<g id="Robot_10">
</g>
<g id="Robot_11">
</g>
<g id="Robot_12">
</g>
<g id="Robot_13">
</g>
</svg>
