<?xml version="1.0" encoding="iso-8859-1"?>
<!-- Generator: Adobe Illustrator 19.2.1, SVG Export Plug-In . SVG Version: 6.00 Build 0)  -->
<svg version="1.1" xmlns="http://www.w3.org/2000/svg" xmlns:xlink="http://www.w3.org/1999/xlink" x="0px" y="0px"
	 viewBox="0 0 30 30" style="enable-background:new 0 0 30 30;" xml:space="preserve">
<g id="Engagement_1">
</g>
<g id="Engagement_2">
</g>
<g id="Wedding_Ring">
</g>
<g id="Church">
</g>
<g id="Church_Bells">
</g>
<g id="Wedding_Altar_1">
</g>
<g id="Wedding_Altar_2">
</g>
<g id="Bow-Tie">
</g>
<g id="Wedding_Tiara">
</g>
<g id="Wedding_Bouquet">
	<g>
		<g>
			<g>
				<path d="M13.285,17.504c-0.177,0-0.356-0.035-0.53-0.105c-0.516-0.21-0.846-0.687-0.861-1.243l-0.029-1.033
					c-0.005-0.168-0.117-0.313-0.279-0.359l-0.994-0.284c-0.535-0.153-0.915-0.591-0.991-1.143s0.172-1.076,0.646-1.368l0.879-0.542
					c0.144-0.088,0.213-0.258,0.172-0.422l-0.251-1.001c-0.136-0.54,0.054-1.088,0.493-1.43c0.441-0.342,1.019-0.39,1.508-0.125
					l0.91,0.491c0.149,0.081,0.328,0.055,0.45-0.063l0.743-0.719c0.399-0.388,0.969-0.499,1.484-0.287
					c0.517,0.209,0.847,0.686,0.863,1.243l0.029,1.034c0.005,0.168,0.116,0.313,0.279,0.359l0.994,0.284
					c0.535,0.153,0.915,0.591,0.991,1.143s-0.172,1.076-0.646,1.368l-0.879,0.542c-0.145,0.088-0.213,0.257-0.172,0.421l0.251,1.003
					c0.135,0.541-0.055,1.089-0.494,1.43s-1.017,0.391-1.507,0.125l-0.91-0.491c-0.15-0.08-0.329-0.055-0.45,0.062l-0.743,0.719
					C13.976,17.369,13.635,17.504,13.285,17.504z M12.388,9.278c-0.11,0-0.195,0.053-0.234,0.084
					c-0.06,0.046-0.192,0.178-0.137,0.397l0.251,1.002c0.146,0.59-0.103,1.198-0.617,1.516l-0.88,0.542
					c-0.193,0.119-0.19,0.305-0.18,0.38c0.01,0.075,0.058,0.255,0.274,0.317l0.995,0.284c0.582,0.167,0.985,0.686,1.004,1.292
					l0.029,1.034c0.006,0.226,0.169,0.317,0.239,0.345c0.071,0.029,0.251,0.076,0.413-0.08l0.743-0.719
					c0.435-0.421,1.088-0.511,1.62-0.223l0.91,0.491l0,0c0.198,0.108,0.359,0.012,0.419-0.034s0.192-0.178,0.137-0.398l-0.251-1.002
					c-0.147-0.589,0.102-1.198,0.618-1.516l0.879-0.542c0.193-0.119,0.19-0.305,0.18-0.38c-0.01-0.075-0.058-0.255-0.274-0.317
					l-0.995-0.284c-0.583-0.167-0.987-0.686-1.004-1.292l-0.029-1.033c-0.007-0.226-0.17-0.317-0.24-0.345
					c-0.067-0.029-0.247-0.078-0.412,0.08l-0.743,0.719c-0.436,0.421-1.087,0.512-1.62,0.224l-0.91-0.491
					C12.506,9.292,12.443,9.278,12.388,9.278z"/>
			</g>
			<g>
				<path d="M21.931,14.825c-0.36,0-0.709-0.143-0.977-0.413l-0.728-0.734c-0.121-0.121-0.301-0.149-0.449-0.072l-0.92,0.472
					c-0.423,0.216-0.904,0.203-1.321-0.04c-0.126-0.074-0.214-0.199-0.24-0.343c-0.025-0.144,0.013-0.292,0.105-0.406
					c0.097-0.118,0.212-0.218,0.342-0.298l0.878-0.542c0.193-0.119,0.19-0.305,0.18-0.38c-0.01-0.075-0.058-0.255-0.274-0.317
					l-0.995-0.284c-0.034-0.01-0.156-0.063-0.188-0.08c-0.079-0.042-0.188-0.126-0.235-0.203c-0.038-0.062-0.073-0.104-0.109-0.126
					l-0.123-0.079c-0.07-0.045-0.128-0.107-0.168-0.181c-0.116-0.211-0.175-0.416-0.181-0.625l-0.029-1.033
					c-0.003-0.115-0.05-0.209-0.138-0.281c-0.146-0.119-0.212-0.31-0.172-0.493c0.04-0.184,0.179-0.33,0.361-0.377l0.979-0.258
					c0.163-0.043,0.278-0.185,0.287-0.354l0.052-1.032c0.027-0.556,0.367-1.026,0.888-1.225c0.521-0.201,1.087-0.077,1.479,0.319
					l0.728,0.735c0.118,0.118,0.298,0.148,0.45,0.071l0.919-0.471c0.498-0.254,1.073-0.193,1.505,0.157
					c0.433,0.351,0.609,0.903,0.463,1.439L24.026,8.37c-0.044,0.162,0.021,0.333,0.162,0.424l0.869,0.562
					c0.004,0.003,0.009,0.006,0.013,0.008c0.378,0.261,0.57,0.726,0.516,1.244c-0.059,0.561-0.39,1.032-0.862,1.229l-1.065,0.285
					c-0.162,0.043-0.277,0.185-0.286,0.354l-0.052,1.032c-0.027,0.556-0.367,1.025-0.888,1.224
					C22.268,14.794,22.098,14.825,21.931,14.825z M19.954,12.563c0.36,0,0.715,0.142,0.982,0.411l0.728,0.734
					c0.159,0.16,0.341,0.116,0.411,0.089s0.235-0.114,0.247-0.34l0.052-1.033c0.03-0.606,0.444-1.116,1.03-1.27l1-0.263
					c0.086-0.041,0.171-0.229,0.188-0.389c0.015-0.139-0.02-0.263-0.086-0.313l-0.859-0.555c-0.51-0.328-0.745-0.942-0.585-1.528
					l0.272-0.998c0.06-0.218-0.07-0.352-0.128-0.399c-0.059-0.048-0.221-0.147-0.418-0.044l-0.92,0.472
					c-0.54,0.277-1.189,0.173-1.617-0.257l-0.728-0.735c-0.157-0.159-0.338-0.116-0.41-0.088c-0.07,0.027-0.235,0.114-0.247,0.341
					l-0.052,1.032c-0.03,0.606-0.444,1.116-1.031,1.271L17.45,8.787c0.028,0.105,0.045,0.214,0.048,0.327l0.029,1.033
					c0,0.021,0.005,0.045,0.013,0.071h0.001c0.116,0.075,0.218,0.169,0.31,0.285l0.95,0.288c0.535,0.153,0.915,0.591,0.991,1.143
					c0.031,0.226,0.008,0.446-0.063,0.648C19.804,12.569,19.879,12.563,19.954,12.563z"/>
			</g>
			<g>
				<path d="M10.115,13.45c-0.132,0-0.26-0.052-0.355-0.148L9.134,12.67c-0.119-0.12-0.298-0.148-0.449-0.071L7.766,13.07
					c-0.496,0.254-1.072,0.195-1.505-0.157c-0.433-0.351-0.61-0.902-0.464-1.439l0.272-0.998c0.045-0.163-0.021-0.333-0.162-0.425
					l-0.868-0.56C4.57,9.188,4.335,8.659,4.423,8.108c0.088-0.549,0.477-0.979,1.015-1.12l1-0.263
					C6.601,6.682,6.716,6.54,6.725,6.372L6.775,5.34c0.028-0.557,0.369-1.026,0.89-1.225c0.518-0.199,1.086-0.077,1.478,0.319
					L9.87,5.168c0.118,0.12,0.299,0.148,0.448,0.072l0.92-0.472c0.497-0.256,1.072-0.194,1.505,0.157
					c0.433,0.351,0.61,0.902,0.464,1.44l-0.272,0.998c-0.044,0.162,0.021,0.333,0.163,0.425l0.868,0.561
					c0.38,0.246,0.608,0.649,0.627,1.106c0.005,0.141-0.049,0.277-0.148,0.376s-0.241,0.155-0.378,0.144
					C13.842,9.961,13.65,9.91,13.48,9.817l-0.908-0.49c-0.199-0.106-0.36-0.012-0.419,0.035c-0.06,0.046-0.193,0.178-0.138,0.398
					l0.252,1.002c0.146,0.59-0.103,1.198-0.617,1.516l-0.88,0.542H10.77c-0.088,0.054-0.143,0.133-0.167,0.24
					c-0.04,0.178-0.174,0.32-0.35,0.371C10.208,13.444,10.161,13.45,10.115,13.45z M10.508,12.395h0.01H10.508z M8.166,5.022
					c-0.062,0-0.114,0.015-0.145,0.027C7.951,5.076,7.785,5.163,7.773,5.39L7.723,6.421c-0.03,0.606-0.444,1.116-1.031,1.271
					l-1,0.263C5.474,8.013,5.422,8.192,5.41,8.267s-0.02,0.261,0.171,0.384l0.868,0.56c0.51,0.331,0.744,0.944,0.585,1.529
					l-0.272,0.998c-0.06,0.218,0.07,0.352,0.129,0.4c0.059,0.046,0.219,0.145,0.418,0.043l0.92-0.472
					c0.541-0.277,1.189-0.173,1.616,0.257l0.175,0.177c0.068-0.065,0.144-0.124,0.226-0.174l0.88-0.542
					c0.144-0.088,0.213-0.258,0.172-0.421l-0.252-1.002C10.91,9.462,11.1,8.914,11.54,8.572c0.197-0.153,0.423-0.248,0.655-0.281
					c-0.251-0.334-0.341-0.771-0.226-1.193l0.272-0.997c0.06-0.218-0.07-0.353-0.129-0.4c-0.059-0.047-0.217-0.149-0.418-0.043
					l-0.92,0.472c-0.542,0.276-1.189,0.172-1.616-0.257L8.432,5.138C8.343,5.047,8.246,5.022,8.166,5.022z"/>
			</g>
			<g>
				<path d="M13.694,9.268c-0.049,0-0.1-0.007-0.149-0.023c-0.264-0.082-0.41-0.363-0.328-0.626c1.578-5.046-0.98-7.653-1.091-7.761
					c-0.195-0.194-0.198-0.51-0.006-0.707c0.193-0.196,0.508-0.201,0.705-0.009c0.128,0.125,3.116,3.116,1.347,8.775
					C14.104,9.131,13.907,9.268,13.694,9.268z"/>
			</g>
			<g>
				<path d="M14.998,9.196c-0.035,0-0.072-0.004-0.108-0.012c-0.27-0.06-0.439-0.327-0.38-0.597
					c1.193-5.348,1.249-8.067,1.249-8.094C15.763,0.219,15.986,0,16.259,0c0.002,0,0.005,0,0.008,0
					c0.275,0.004,0.496,0.231,0.492,0.507c-0.002,0.113-0.054,2.833-1.272,8.297C15.435,9.038,15.228,9.196,14.998,9.196z"/>
			</g>
			<g>
				<path d="M16.26,8.565c-0.026,0-0.052-0.002-0.078-0.006c-0.272-0.042-0.459-0.298-0.417-0.571
					c0.728-4.682,3.798-7.72,3.929-7.847c0.196-0.192,0.514-0.189,0.706,0.009c0.193,0.197,0.189,0.514-0.008,0.707
					c-0.03,0.029-2.965,2.943-3.639,7.284C16.715,8.389,16.502,8.565,16.26,8.565z"/>
			</g>
			<g>
				<circle cx="14.368" cy="12.478" r="0.63"/>
				<path d="M14.368,13.609c-0.624,0-1.131-0.507-1.131-1.131s0.507-1.13,1.131-1.13c0.623,0,1.13,0.507,1.13,1.13
					S14.991,13.609,14.368,13.609z M14.368,12.348c-0.072,0-0.131,0.059-0.131,0.13c0,0.144,0.262,0.146,0.261,0
					C14.498,12.406,14.439,12.348,14.368,12.348z"/>
			</g>
			<g>
				<circle cx="8.694" cy="8.065" r="0.63"/>
				<path d="M8.694,9.196c-0.624,0-1.131-0.507-1.131-1.13c0-0.624,0.507-1.131,1.131-1.131c0.623,0,1.13,0.507,1.13,1.131
					C9.824,8.688,9.317,9.196,8.694,9.196z M8.694,7.935c-0.072,0-0.131,0.059-0.131,0.131c0.001,0.143,0.261,0.145,0.261,0
					C8.824,7.993,8.766,7.935,8.694,7.935z"/>
			</g>
			<g>
				<circle cx="21.303" cy="9.326" r="0.63"/>
				<path d="M21.303,10.457c-0.624,0-1.131-0.507-1.131-1.13s0.507-1.13,1.131-1.13s1.131,0.507,1.131,1.13
					S21.927,10.457,21.303,10.457z M21.303,9.196c-0.072,0-0.131,0.059-0.131,0.13c0,0.144,0.262,0.144,0.262,0
					C21.434,9.254,21.375,9.196,21.303,9.196z"/>
			</g>
		</g>
		<g>
			<path d="M16.5,30h-4c-0.276,0-0.5-0.224-0.5-0.5v-5.673c0-2.724-0.944-5.405-2.66-7.548l-2.296-2.856
				c-0.173-0.215-0.139-0.53,0.076-0.703c0.215-0.172,0.529-0.14,0.703,0.076l2.297,2.857c1.857,2.321,2.88,5.224,2.88,8.174V29h3
				v-3.936c0-3.802,1.557-7.366,4.271-9.779l1.382-1.282c0.201-0.187,0.517-0.177,0.706,0.027c0.188,0.202,0.177,0.519-0.026,0.707
				l-1.39,1.289C18.435,18.256,17,21.548,17,25.064V29.5C17,29.776,16.776,30,16.5,30z"/>
		</g>
	</g>
</g>
<g id="Wedding_Decoration_1">
</g>
<g id="Wedding_Decoration_2">
</g>
<g id="Wedding_Way_Sign">
</g>
<g id="Wedding_Date">
</g>
<g id="Wedding_Invitation">
</g>
<g id="Wedding_Invitation_2">
</g>
<g id="Bride">
</g>
<g id="Groom">
</g>
<g id="Mariage_Couple">
</g>
<g id="Wedding_Planner_Book">
</g>
<g id="Wedding_Cake_1">
</g>
<g id="Wedding_Cake_2">
</g>
<g id="Wedding_Cake_3">
</g>
<g id="Cake_Slice">
</g>
<g id="Marriage_Settlement">
</g>
<g id="Glass_Decoration">
</g>
<g id="Cutlery_Decoration">
</g>
<g id="Celebration_Glasses">
</g>
<g id="Wedding_Photo">
</g>
<g id="Wedding_Present_1">
</g>
<g id="Wedding_Present_2">
</g>
<g id="Wedding_Bouquet_2">
</g>
<g id="Hands_with_rings">
</g>
<g id="Wedding_Car">
</g>
<g id="Wedding_music">
</g>
<g id="wedding_party">
</g>
<g id="Confetti_1">
</g>
<g id="Confetti_2">
</g>
</svg>
