<?xml version="1.0" encoding="iso-8859-1"?>
<!-- Generator: Adobe Illustrator 19.2.1, SVG Export Plug-In . SVG Version: 6.00 Build 0)  -->
<svg version="1.1" xmlns="http://www.w3.org/2000/svg" xmlns:xlink="http://www.w3.org/1999/xlink" x="0px" y="0px"
	 viewBox="0 0 30 30" style="enable-background:new 0 0 30 30;" xml:space="preserve">
<g id="Engagement_1">
</g>
<g id="Engagement_2">
</g>
<g id="Wedding_Ring">
</g>
<g id="Church">
</g>
<g id="Church_Bells">
</g>
<g id="Wedding_Altar_1">
</g>
<g id="Wedding_Altar_2">
</g>
<g id="Bow-Tie">
</g>
<g id="Wedding_Tiara">
</g>
<g id="Wedding_Bouquet">
</g>
<g id="Wedding_Decoration_1">
</g>
<g id="Wedding_Decoration_2">
</g>
<g id="Wedding_Way_Sign">
</g>
<g id="Wedding_Date">
</g>
<g id="Wedding_Invitation">
</g>
<g id="Wedding_Invitation_2">
</g>
<g id="Bride">
</g>
<g id="Groom">
</g>
<g id="Mariage_Couple">
</g>
<g id="Wedding_Planner_Book">
</g>
<g id="Wedding_Cake_1">
	<g>
		<g>
			<path d="M14.5,30c-0.276,0-0.5-0.224-0.5-0.5v-4c0-0.276,0.224-0.5,0.5-0.5s0.5,0.224,0.5,0.5v4C15,29.776,14.776,30,14.5,30z"/>
		</g>
		<g>
			<path d="M18.5,30h-8c-0.276,0-0.5-0.224-0.5-0.5s0.224-0.5,0.5-0.5h8c0.276,0,0.5,0.224,0.5,0.5S18.776,30,18.5,30z"/>
		</g>
		<g>
			<path d="M23.542,26H5.458c-0.902,0-1.621-0.261-2.137-0.776l-0.479-0.376c-0.216-0.172-0.253-0.486-0.081-0.702
				c0.172-0.217,0.485-0.253,0.702-0.081l0.522,0.414C4.354,24.842,4.821,25,5.458,25h18.085c0.636,0,1.104-0.158,1.43-0.483
				l0.542-0.486c0.205-0.186,0.521-0.168,0.706,0.038c0.184,0.206,0.167,0.522-0.039,0.706l-0.522,0.468
				C25.164,25.739,24.445,26,23.542,26z"/>
		</g>
		<g>
			<path d="M23.5,26h-18C5.224,26,5,25.776,5,25.5v-3.565C5,19.691,6.916,18,9.457,18h10.087C22.084,18,24,19.691,24,21.935V25.5
				C24,25.776,23.776,26,23.5,26z M6,25h17v-3.065C23,20.028,21.219,19,19.543,19H9.457C7.781,19,6,20.028,6,21.935V25z"/>
		</g>
		<g>
			<path d="M14.5,19c-0.276,0-0.5-0.224-0.5-0.5v-4c0-0.276,0.224-0.5,0.5-0.5s0.5,0.224,0.5,0.5v4C15,18.776,14.776,19,14.5,19z"/>
		</g>
		<g>
			<path d="M19.76,15H9.24c-0.753,0-1.532-0.347-2.137-0.95L6.561,13.44c-0.184-0.206-0.165-0.522,0.042-0.706
				c0.206-0.183,0.521-0.165,0.706,0.042l0.522,0.588C8.229,13.761,8.75,14,9.24,14h10.52c0.49,0,1.012-0.239,1.43-0.657
				l0.512-0.544c0.189-0.201,0.505-0.211,0.707-0.021s0.21,0.506,0.021,0.707l-0.522,0.555C21.292,14.653,20.513,15,19.76,15z"/>
		</g>
		<g>
			<path d="M14.5,9C14.224,9,14,8.776,14,8.5v-4C14,4.224,14.224,4,14.5,4S15,4.224,15,4.5v4C15,8.776,14.776,9,14.5,9z"/>
		</g>
		<g>
			<path d="M17.238,5h-5.477c-0.996,0-1.766-0.623-2.137-0.994L9.071,3.341C8.896,3.128,8.925,2.813,9.138,2.637
				C9.35,2.46,9.665,2.489,9.842,2.702l0.522,0.631C10.777,3.744,11.298,4,11.762,4h5.477c0.463,0,0.984-0.256,1.429-0.701
				l0.506-0.559c0.186-0.204,0.502-0.22,0.707-0.034c0.205,0.186,0.22,0.501,0.035,0.706l-0.522,0.576
				C19.004,4.377,18.234,5,17.238,5z"/>
		</g>
		<g>
			<path d="M19.5,15h-10C9.224,15,9,14.776,9,14.5v-3.913C9,9.016,10.169,8,11.978,8h5.044C18.831,8,20,9.016,20,10.587V14.5
				C20,14.776,19.776,15,19.5,15z M10,14h9v-3.413C19,9.154,17.617,9,17.022,9h-5.044C11.383,9,10,9.154,10,10.587V14z"/>
		</g>
		<g>
			<path d="M17.5,5h-6C11.224,5,11,4.776,11,4.5V1.761C11,0.702,12.348,0,13.239,0h2.521C16.652,0,18,0.702,18,1.761V4.5
				C18,4.776,17.776,5,17.5,5z M12,4h5V1.761C17,1.44,16.282,1,15.761,1h-2.521C12.718,1,12,1.44,12,1.761V4z"/>
		</g>
		<g>
			<path d="M19.643,22.435c-0.583,0-1.152-0.271-1.646-0.783c-0.305-0.316-0.616-0.478-0.925-0.478h0
				c-0.309,0-0.621,0.161-0.925,0.478c-0.987,1.025-2.305,1.025-3.292,0c-0.61-0.632-1.241-0.634-1.851,0
				c-0.989,1.026-2.305,1.024-3.292,0c-0.305-0.316-0.616-0.478-0.925-0.478h0c-0.309,0-0.621,0.161-0.925,0.478
				c-0.191,0.198-0.509,0.204-0.707,0.014c-0.199-0.191-0.205-0.508-0.014-0.707c0.494-0.513,1.063-0.784,1.646-0.784c0,0,0,0,0,0
				c0.583,0,1.152,0.271,1.646,0.784c0.609,0.632,1.241,0.634,1.852,0c0.986-1.025,2.303-1.025,3.292,0
				c0.609,0.633,1.241,0.633,1.851,0c0.493-0.513,1.063-0.784,1.646-0.784c0,0,0,0,0,0c0.583,0,1.152,0.271,1.646,0.784
				c0.61,0.634,1.242,0.632,1.852,0c0.986-1.025,2.303-1.025,3.292,0c0.191,0.199,0.186,0.516-0.014,0.707
				c-0.197,0.19-0.515,0.187-0.707-0.014c-0.609-0.632-1.241-0.634-1.851,0C20.795,22.164,20.226,22.435,19.643,22.435z"/>
		</g>
		<g>
			<path d="M19.5,12.348c-0.573,0-1.132-0.272-1.615-0.788c-0.202-0.216-0.519-0.473-0.885-0.473h0
				c-0.366,0-0.683,0.257-0.885,0.473c-0.966,1.032-2.264,1.031-3.23,0c-0.202-0.216-0.519-0.473-0.885-0.473h0
				c-0.366,0-0.683,0.257-0.885,0.473c-0.483,0.516-1.042,0.788-1.615,0.788c-0.276,0-0.5-0.224-0.5-0.5s0.224-0.5,0.5-0.5
				c0.366,0,0.684-0.257,0.885-0.472c0.483-0.516,1.042-0.789,1.615-0.789c0,0,0,0,0,0c0.573,0,1.132,0.273,1.615,0.789
				c0.201,0.215,0.519,0.472,0.885,0.472c0.366,0,0.683-0.257,0.885-0.472c0.483-0.516,1.042-0.789,1.615-0.789c0,0,0,0,0,0
				c0.573,0,1.132,0.273,1.615,0.789c0.201,0.215,0.519,0.472,0.885,0.472c0.276,0,0.5,0.224,0.5,0.5S19.776,12.348,19.5,12.348z"/>
		</g>
		<g>
			<path d="M14.5,2.892c-0.577,0-1.138-0.272-1.625-0.788c-0.261-0.275-0.528-0.434-0.792-0.467
				c-0.274-0.035-0.468-0.285-0.433-0.56c0.036-0.272,0.286-0.465,0.559-0.433c0.5,0.063,0.969,0.324,1.393,0.772
				c0.204,0.217,0.525,0.475,0.897,0.475s0.693-0.258,0.897-0.474c0.421-0.446,0.906-0.713,1.402-0.773
				c0.276-0.035,0.523,0.161,0.557,0.436c0.033,0.274-0.162,0.523-0.436,0.557c-0.262,0.032-0.538,0.193-0.796,0.468
				C15.638,2.619,15.077,2.892,14.5,2.892z"/>
		</g>
	</g>
</g>
<g id="Wedding_Cake_2">
</g>
<g id="Wedding_Cake_3">
</g>
<g id="Cake_Slice">
</g>
<g id="Marriage_Settlement">
</g>
<g id="Glass_Decoration">
</g>
<g id="Cutlery_Decoration">
</g>
<g id="Celebration_Glasses">
</g>
<g id="Wedding_Photo">
</g>
<g id="Wedding_Present_1">
</g>
<g id="Wedding_Present_2">
</g>
<g id="Wedding_Bouquet_2">
</g>
<g id="Hands_with_rings">
</g>
<g id="Wedding_Car">
</g>
<g id="Wedding_music">
</g>
<g id="wedding_party">
</g>
<g id="Confetti_1">
</g>
<g id="Confetti_2">
</g>
</svg>
