<?xml version="1.0" encoding="iso-8859-1"?>
<!-- Generator: Adobe Illustrator 19.2.1, SVG Export Plug-In . SVG Version: 6.00 Build 0)  -->
<svg version="1.1" xmlns="http://www.w3.org/2000/svg" xmlns:xlink="http://www.w3.org/1999/xlink" x="0px" y="0px"
	 viewBox="0 0 24 24" style="enable-background:new 0 0 24 24;" xml:space="preserve">
<g id="Engagement_1">
</g>
<g id="Engagement_2">
</g>
<g id="Wedding_Ring">
</g>
<g id="Church">
</g>
<g id="Church_Bells">
</g>
<g id="Wedding_Altar_1">
</g>
<g id="Wedding_Altar_2">
</g>
<g id="Bow-Tie">
</g>
<g id="Wedding_Tiara">
	<g>
		<circle cx="7" cy="12.5" r="1"/>
		<circle cx="12" cy="11.5" r="2"/>
		<circle cx="17" cy="12.5" r="1"/>
		<path d="M23.767,15.577c-4.131-2.601-3.789-5.385-3.772-5.499c0.023-0.147-0.021-0.298-0.12-0.41
			c-0.099-0.112-0.231-0.171-0.392-0.168C15.157,9.639,15.004,7.092,15,6.988C14.993,6.716,14.771,6.5,14.5,6.5
			c-0.002,0-0.004,0-0.006,0C14.22,6.503,14,6.726,14,7c0,0.249-0.618,0.5-2,0.5S10,7.249,10,7c0-0.272-0.218-0.492-0.489-0.498
			c-0.004,0-0.008,0-0.011,0c-0.268,0-0.488,0.213-0.5,0.481C8.996,7.092,8.88,9.638,4.518,9.5C4.368,9.486,4.225,9.556,4.126,9.668
			c-0.1,0.112-0.144,0.262-0.12,0.41c0.005,0.028,0.4,2.871-3.772,5.499C0.088,15.668,0,15.828,0,16v1
			c0,0.18,0.097,0.346,0.254,0.435c0.155,0.089,0.349,0.087,0.504-0.007C0.807,17.399,5.705,14.5,12,14.5c-1.654,0-3-1.346-3-3
			s1.346-3,3-3s3,1.346,3,3s-1.346,3-3,3c6.256,0,11.194,2.9,11.244,2.929c0.078,0.047,0.167,0.071,0.256,0.071
			c0.085,0,0.17-0.022,0.247-0.065C23.903,17.346,24,17.18,24,17v-1C24,15.828,23.912,15.668,23.767,15.577z M7,14.5
			c-1.103,0-2-0.897-2-2s0.897-2,2-2s2,0.897,2,2S8.103,14.5,7,14.5z M17,14.5c-1.103,0-2-0.897-2-2s0.897-2,2-2s2,0.897,2,2
			S18.103,14.5,17,14.5z"/>
	</g>
</g>
<g id="Wedding_Bouquet">
</g>
<g id="Wedding_Decoration_1">
</g>
<g id="Wedding_Decoration_2">
</g>
<g id="Wedding_Way_Sign">
</g>
<g id="Wedding_Date">
</g>
<g id="Wedding_Invitation">
</g>
<g id="Wedding_Invitation_2">
</g>
<g id="Bride">
</g>
<g id="Groom">
</g>
<g id="Mariage_Couple">
</g>
<g id="Wedding_Planner_Book">
</g>
<g id="Wedding_Cake_1">
</g>
<g id="Wedding_Cake_2">
</g>
<g id="Wedding_Cake_3">
</g>
<g id="Cake_Slice">
</g>
<g id="Marriage_Settlement">
</g>
<g id="Glass_Decoration">
</g>
<g id="Cutlery_Decoration">
</g>
<g id="Celebration_Glasses">
</g>
<g id="Wedding_Photo">
</g>
<g id="Wedding_Present_1">
</g>
<g id="Wedding_Present_2">
</g>
<g id="Wedding_Bouquet_2">
</g>
<g id="Hands_with_rings">
</g>
<g id="Wedding_Car">
</g>
<g id="Wedding_music">
</g>
<g id="wedding_party">
</g>
<g id="Confetti_1">
</g>
<g id="Confetti_2">
</g>
</svg>
