<?xml version="1.0" encoding="iso-8859-1"?>
<!-- Generator: Adobe Illustrator 19.2.1, SVG Export Plug-In . SVG Version: 6.00 Build 0)  -->
<svg version="1.1" xmlns="http://www.w3.org/2000/svg" xmlns:xlink="http://www.w3.org/1999/xlink" x="0px" y="0px"
	 viewBox="0 0 30 30" style="enable-background:new 0 0 30 30;" xml:space="preserve">
<g id="Engagement_1">
</g>
<g id="Engagement_2">
</g>
<g id="Wedding_Ring">
</g>
<g id="Church">
</g>
<g id="Church_Bells">
</g>
<g id="Wedding_Altar_1">
</g>
<g id="Wedding_Altar_2">
</g>
<g id="Bow-Tie">
</g>
<g id="Wedding_Tiara">
</g>
<g id="Wedding_Bouquet">
</g>
<g id="Wedding_Decoration_1">
</g>
<g id="Wedding_Decoration_2">
</g>
<g id="Wedding_Way_Sign">
</g>
<g id="Wedding_Date">
</g>
<g id="Wedding_Invitation">
</g>
<g id="Wedding_Invitation_2">
</g>
<g id="Bride">
</g>
<g id="Groom">
</g>
<g id="Mariage_Couple">
</g>
<g id="Wedding_Planner_Book">
</g>
<g id="Wedding_Cake_1">
</g>
<g id="Wedding_Cake_2">
</g>
<g id="Wedding_Cake_3">
</g>
<g id="Cake_Slice">
</g>
<g id="Marriage_Settlement">
</g>
<g id="Glass_Decoration">
</g>
<g id="Cutlery_Decoration">
</g>
<g id="Celebration_Glasses">
</g>
<g id="Wedding_Photo">
</g>
<g id="Wedding_Present_1">
</g>
<g id="Wedding_Present_2">
</g>
<g id="Wedding_Bouquet_2">
</g>
<g id="Hands_with_rings">
</g>
<g id="Wedding_Car">
</g>
<g id="Wedding_music">
	<g>
		<path d="M28.807,19.104c-0.123-0.095-0.281-0.129-0.432-0.089l-5,1.286C23.154,20.358,23,20.558,23,20.786v5.416
			C22.706,26.077,22.369,26,22,26c-1.121,0-2,0.659-2,1.5s0.879,1.5,2,1.5s2-0.659,2-1.5v-6.326l4-1.029v5.058
			C27.706,25.077,27.369,25,27,25c-1.121,0-2,0.659-2,1.5s0.879,1.5,2,1.5s2-0.659,2-1.5v-7C29,19.346,28.929,19.199,28.807,19.104z
			"/>
		<path d="M19.673,14H21c0.276,0,0.5-0.224,0.5-0.5v-1.214c0-0.111-0.037-0.219-0.105-0.307l-1-1.286
			C20.3,10.571,20.154,10.5,20,10.5h-1.5c-0.276,0-0.5,0.224-0.5,0.5v0.989c-0.681-0.441-1.487-0.703-2.357-0.703
			c-2.403,0-4.357,1.955-4.357,4.357c0,0.276,0.224,0.5,0.5,0.5s0.5-0.224,0.5-0.5c0-1.851,1.506-3.357,3.357-3.357
			c0.918,0,1.75,0.372,2.357,0.972V13.5c0,0.276,0.224,0.5,0.5,0.5h0.052C18.829,14.488,19,15.043,19,15.643
			C19,17.494,17.494,19,15.643,19c-0.276,0-0.5,0.224-0.5,0.5s0.224,0.5,0.5,0.5C18.046,20,20,18.046,20,15.643
			C20,15.061,19.881,14.508,19.673,14z"/>
		<path d="M10.5,12.286c0.276,0,0.5-0.224,0.5-0.5s-0.224-0.5-0.5-0.5c-2.402,0-4.357,1.955-4.357,4.357S8.098,20,10.5,20
			s4.357-1.954,4.357-4.357c0-0.276-0.224-0.5-0.5-0.5s-0.5,0.224-0.5,0.5c0,1.851-1.506,3.357-3.357,3.357
			s-3.357-1.506-3.357-3.357S8.649,12.286,10.5,12.286z"/>
		<path d="M16,24H5.357C3.475,24,2,22.588,2,20.786V7h22v9c0,0.276,0.224,0.5,0.5,0.5S25,16.276,25,16V6.643
			c0-0.033-0.009-0.064-0.009-0.097C24.992,6.53,25,6.516,25,6.5c0-0.045-0.014-0.086-0.026-0.127C24.84,3.978,22.987,2,20.786,2H19
			V1.5C19,1.224,18.776,1,18.5,1S18,1.224,18,1.5V2v1.5C18,3.776,17.776,4,17.5,4S17,3.776,17,3.5V2H8V1.5C8,1.224,7.776,1,7.5,1
			S7,1.224,7,1.5V2v1.5C7,3.776,6.776,4,6.5,4S6,3.776,6,3.5V2H5.357C3.128,2,1.181,4.006,1.029,6.356C1.015,6.402,1,6.449,1,6.5
			c0,0.017,0.008,0.031,0.01,0.048C1.009,6.58,1,6.611,1,6.643v14.143C1,23.149,2.914,25,5.357,25H16c0.276,0,0.5-0.224,0.5-0.5
			S16.276,24,16,24z"/>
	</g>
</g>
<g id="wedding_party">
</g>
<g id="Confetti_1">
</g>
<g id="Confetti_2">
</g>
</svg>
