<?xml version="1.0" encoding="iso-8859-1"?>
<!-- Generator: Adobe Illustrator 19.2.1, SVG Export Plug-In . SVG Version: 6.00 Build 0)  -->
<svg version="1.1" xmlns="http://www.w3.org/2000/svg" xmlns:xlink="http://www.w3.org/1999/xlink" x="0px" y="0px"
	 viewBox="0 0 30 30" style="enable-background:new 0 0 30 30;" xml:space="preserve">
<g id="Engagement_1">
</g>
<g id="Engagement_2">
</g>
<g id="Wedding_Ring">
</g>
<g id="Church">
</g>
<g id="Church_Bells">
</g>
<g id="Wedding_Altar_1">
</g>
<g id="Wedding_Altar_2">
</g>
<g id="Bow-Tie">
</g>
<g id="Wedding_Tiara">
</g>
<g id="Wedding_Bouquet">
</g>
<g id="Wedding_Decoration_1">
</g>
<g id="Wedding_Decoration_2">
</g>
<g id="Wedding_Way_Sign">
</g>
<g id="Wedding_Date">
</g>
<g id="Wedding_Invitation">
</g>
<g id="Wedding_Invitation_2">
</g>
<g id="Bride">
</g>
<g id="Groom">
</g>
<g id="Mariage_Couple">
</g>
<g id="Wedding_Planner_Book">
</g>
<g id="Wedding_Cake_1">
</g>
<g id="Wedding_Cake_2">
</g>
<g id="Wedding_Cake_3">
</g>
<g id="Cake_Slice">
</g>
<g id="Marriage_Settlement">
</g>
<g id="Glass_Decoration">
</g>
<g id="Cutlery_Decoration">
</g>
<g id="Celebration_Glasses">
</g>
<g id="Wedding_Photo">
</g>
<g id="Wedding_Present_1">
</g>
<g id="Wedding_Present_2">
</g>
<g id="Wedding_Bouquet_2">
</g>
<g id="Hands_with_rings">
</g>
<g id="Wedding_Car">
	<g>
		<path d="M23.38,25.934l-2.49,2.49l1.43,1.429C22.414,29.947,22.541,30,22.674,30s0.26-0.053,0.354-0.146l1.782-1.783
			c0.195-0.195,0.195-0.512,0-0.707L23.38,25.934z"/>
		<path d="M6.451,27.363c-0.094,0.094-0.146,0.221-0.146,0.354s0.053,0.26,0.146,0.354l1.783,1.783C8.332,29.951,8.459,30,8.587,30
			s0.256-0.049,0.354-0.146l1.43-1.43l-2.49-2.49L6.451,27.363z"/>
		<path d="M24.838,11.83L23.69,13h6.212c-0.102-0.763-0.291-1.43-0.58-2H26.26C25.86,11,25.369,11.287,24.838,11.83z"/>
		<path d="M5.877,11.13l1.98,2.02c0.009,0.009,0.009,0.024,0.018,0.034c0.018,0.021,0.04,0.036,0.055,0.06L8.979,15H10.5H11h8h0.5
			h1.521l1.05-1.756c0.014-0.024,0.036-0.038,0.053-0.059c0.009-0.01,0.009-0.025,0.018-0.035l1.98-2.02
			C24.857,10.38,25.576,10,26.26,10h2.372c-0.346-0.38-0.756-0.71-1.244-0.987c-0.765-1.756-3.071-6.956-3.868-7.633
			C22.503,0.516,19.554,0,15.63,0H14.37C10.446,0,7.497,0.516,6.48,1.38C5.687,2.054,3.396,7.214,2.623,8.991
			C2.124,9.272,1.708,9.61,1.357,10H3.74C4.424,10,5.143,10.38,5.877,11.13z M17.5,14h-5c-0.276,0-0.5-0.224-0.5-0.5
			s0.224-0.5,0.5-0.5h5c0.276,0,0.5,0.224,0.5,0.5S17.776,14,17.5,14z M7.128,2.142C7.796,1.573,10.295,1,14.37,1h1.261
			c4.075,0,6.573,0.573,7.241,1.142c0.395,0.339,1.843,3.311,3.18,6.318C23.979,7.86,20.401,7.576,15,7.576
			c-5.404,0-8.981,0.278-11.044,0.868C5.291,5.443,6.734,2.48,7.128,2.142z"/>
		<path d="M29.984,14h-7.201l-1.05,1.756C21.644,15.908,21.48,16,21.305,16H20v2.5c0,0.276-0.224,0.5-0.5,0.5h-9
			c-0.276,0-0.5-0.224-0.5-0.5V16H8.696c-0.176,0-0.339-0.092-0.429-0.244L7.216,14h-7.2C0.012,14.139,0,14.27,0,14.416
			c0,2.712,0.62,5.111,0.646,5.211C0.693,19.803,0.831,19.932,1,19.978V22c0,1.103,0.897,2,2,2h4c1.103,0,2-0.897,2-2v-1.091
			l0.142,0.056C9.201,20.988,9.263,21,9.326,21h3.25c-0.079,0.445-0.38,1.467-1.401,3.249l-0.006-0.006
			c-0.44-0.441-1.158-0.441-1.599,0l-0.984,0.984l2.49,2.49l0.984-0.984c0.441-0.44,0.441-1.158,0-1.599l-0.153-0.153
			c1.278-2.18,1.607-3.416,1.679-3.982h1.347c-0.335,0.793-0.892,2.344-1.027,4.019C13.402,25.068,13,25.481,13,26v3.5
			c0,0.276,0.224,0.5,0.5,0.5h2c0.276,0,0.5-0.224,0.5-0.5V26c0-0.552-0.449-1-1-1h-0.088c0.171-1.844,0.914-3.568,1.114-4h1.63
			c0.034,0.735,0.27,2.485,1.646,4.031l-0.103,0.103c-0.44,0.44-0.44,1.158,0,1.599l0.984,0.984l2.49-2.49l-0.984-0.984
			c-0.442-0.442-1.158-0.44-1.599,0l-0.07,0.07c-1.104-1.276-1.325-2.71-1.36-3.314h2.014c0.063,0,0.126-0.012,0.185-0.035
			L21,20.909V22c0,1.103,0.897,2,2,2h4c1.103,0,2-0.897,2-2v-2.022c0.169-0.046,0.306-0.175,0.353-0.351
			C29.379,19.526,30,17.126,30,14.413C30,14.269,29.988,14.139,29.984,14z"/>
		<rect x="11" y="16" width="8" height="2"/>
		<path d="M5.163,11.83C4.631,11.287,4.139,11,3.74,11H0.671c-0.287,0.57-0.472,1.238-0.573,2H6.31L5.163,11.83z"/>
	</g>
</g>
<g id="Wedding_music">
</g>
<g id="wedding_party">
</g>
<g id="Confetti_1">
</g>
<g id="Confetti_2">
</g>
</svg>
