<?xml version="1.0" encoding="iso-8859-1"?>
<!-- Generator: Adobe Illustrator 19.2.1, SVG Export Plug-In . SVG Version: 6.00 Build 0)  -->
<svg version="1.1" xmlns="http://www.w3.org/2000/svg" xmlns:xlink="http://www.w3.org/1999/xlink" x="0px" y="0px"
	 viewBox="0 0 30 30" style="enable-background:new 0 0 30 30;" xml:space="preserve">
<g id="Engagement_1">
</g>
<g id="Engagement_2">
</g>
<g id="Wedding_Ring">
</g>
<g id="Church">
</g>
<g id="Church_Bells">
</g>
<g id="Wedding_Altar_1">
	<g>
		<g>
			<path d="M15,7.304c-0.141,0-0.275-0.06-0.37-0.164c-0.082-0.09-2.015-2.22-2.646-2.993c-0.416-0.507-0.636-1.093-0.636-1.696
				C11.348,1.1,12.371,0,13.63,0c0.501,0,0.979,0.174,1.37,0.491C15.391,0.174,15.869,0,16.37,0c1.259,0,2.282,1.1,2.282,2.451
				c0,0.603-0.22,1.189-0.636,1.697C17.385,4.92,15.452,7.05,15.37,7.14C15.275,7.245,15.141,7.304,15,7.304z M13.63,1
				c-0.707,0-1.282,0.651-1.282,1.451c0,0.466,0.223,0.835,0.409,1.063C13.209,4.067,14.393,5.386,15,6.059
				c0.607-0.673,1.791-1.992,2.243-2.544c0.187-0.228,0.409-0.597,0.409-1.063c0-0.8-0.575-1.451-1.282-1.451
				c-0.373,0-0.727,0.185-0.972,0.507c-0.189,0.249-0.607,0.249-0.797,0C14.356,1.185,14.003,1,13.63,1z"/>
		</g>
		<g>
			<path d="M6.5,17h-2c-1.103,0-2-0.897-2-2s0.897-2,2-2h2c1.103,0,2,0.897,2,2S7.603,17,6.5,17z M4.5,14c-0.552,0-1,0.449-1,1
				s0.448,1,1,1h2c0.552,0,1-0.449,1-1s-0.448-1-1-1H4.5z"/>
		</g>
		<g>
			<path d="M25.5,17h-2c-1.103,0-2-0.897-2-2s0.897-2,2-2h2c1.103,0,2,0.897,2,2S26.603,17,25.5,17z M23.5,14c-0.552,0-1,0.449-1,1
				s0.448,1,1,1h2c0.552,0,1-0.449,1-1s-0.448-1-1-1H23.5z"/>
		</g>
		<g>
			<path d="M25.69,14H23.2c-0.248,0-0.474-0.252-0.51-0.498l0,0c-0.01-0.033-0.017-0.068-0.019-0.104
				c-0.286-3.692-3.089-6.713-6.667-7.183c-0.275,0-0.518-0.222-0.518-0.498c0-0.276,0.206-0.498,0.482-0.498
				c0.021,0,0.145,0.001,0.166,0.004c3.938,0.517,7.047,3.762,7.502,7.775h1.514c-0.429-4.324-3.196-7.695-7.331-8.88h-0.04
				c-0.276,0-0.5-0.224-0.5-0.5s0.224-0.5,0.5-0.5h0.109c0.046,0,0.091,0.006,0.135,0.019c4.764,1.334,7.893,5.294,8.165,10.334
				c0.008,0.137-0.042,0.271-0.136,0.371C25.959,13.943,25.828,14,25.69,14z"/>
		</g>
		<g>
			<path d="M6.8,14H4.31c-0.138,0-0.269-0.057-0.363-0.156c-0.094-0.1-0.144-0.234-0.136-0.371c0.272-5.041,3.401-9,8.165-10.334
				C12.02,3.126,12.064,3.12,12.11,3.12h0.109c0.276,0,0.5,0.224,0.5,0.5s-0.224,0.5-0.5,0.5h-0.04
				C8.045,5.305,5.277,8.676,4.849,13h1.508c0.433-3.959,3.55-7.167,7.51-7.676l0.205-0.013L14.11,6.31l-0.152,0.009
				c-3.547,0.458-6.351,3.416-6.63,7.03c-0.002,0.028-0.006,0.056-0.013,0.083C7.25,13.949,6.935,14,6.8,14z"/>
		</g>
		<g>
			<path d="M6.5,27H3.021c-0.144,0-0.28-0.062-0.375-0.169c-0.095-0.107-0.139-0.25-0.121-0.393l1.261-10
				C3.817,16.188,4.03,16,4.282,16H6.5C6.776,16,7,16.224,7,16.5v10C7,26.776,6.776,27,6.5,27z M3.589,26H6v-9H4.724L3.589,26z"/>
		</g>
		<g>
			<path d="M26.979,27H23.5c-0.276,0-0.5-0.224-0.5-0.5v-10c0-0.276,0.224-0.5,0.5-0.5h2.218c0.252,0,0.465,0.188,0.496,0.438
				l1.261,10c0.018,0.143-0.026,0.286-0.121,0.393C27.259,26.938,27.122,27,26.979,27z M24,26h2.411l-1.135-9H24V26z"/>
		</g>
		<g>
			<path d="M29.5,30h-29C0.224,30,0,29.776,0,29.5v-3C0,26.224,0.224,26,0.5,26h29c0.276,0,0.5,0.224,0.5,0.5v3
				C30,29.776,29.776,30,29.5,30z M1,29h28v-2H1V29z"/>
		</g>
	</g>
</g>
<g id="Wedding_Altar_2">
</g>
<g id="Bow-Tie">
</g>
<g id="Wedding_Tiara">
</g>
<g id="Wedding_Bouquet">
</g>
<g id="Wedding_Decoration_1">
</g>
<g id="Wedding_Decoration_2">
</g>
<g id="Wedding_Way_Sign">
</g>
<g id="Wedding_Date">
</g>
<g id="Wedding_Invitation">
</g>
<g id="Wedding_Invitation_2">
</g>
<g id="Bride">
</g>
<g id="Groom">
</g>
<g id="Mariage_Couple">
</g>
<g id="Wedding_Planner_Book">
</g>
<g id="Wedding_Cake_1">
</g>
<g id="Wedding_Cake_2">
</g>
<g id="Wedding_Cake_3">
</g>
<g id="Cake_Slice">
</g>
<g id="Marriage_Settlement">
</g>
<g id="Glass_Decoration">
</g>
<g id="Cutlery_Decoration">
</g>
<g id="Celebration_Glasses">
</g>
<g id="Wedding_Photo">
</g>
<g id="Wedding_Present_1">
</g>
<g id="Wedding_Present_2">
</g>
<g id="Wedding_Bouquet_2">
</g>
<g id="Hands_with_rings">
</g>
<g id="Wedding_Car">
</g>
<g id="Wedding_music">
</g>
<g id="wedding_party">
</g>
<g id="Confetti_1">
</g>
<g id="Confetti_2">
</g>
</svg>
