<?xml version="1.0" encoding="iso-8859-1"?>
<!-- Generator: Adobe Illustrator 19.2.1, SVG Export Plug-In . SVG Version: 6.00 Build 0)  -->
<svg version="1.1" xmlns="http://www.w3.org/2000/svg" xmlns:xlink="http://www.w3.org/1999/xlink" x="0px" y="0px"
	 viewBox="0 0 30 30" style="enable-background:new 0 0 30 30;" xml:space="preserve">
<g id="Engagement_1">
</g>
<g id="Engagement_2">
</g>
<g id="Wedding_Ring">
</g>
<g id="Church">
</g>
<g id="Church_Bells">
</g>
<g id="Wedding_Altar_1">
</g>
<g id="Wedding_Altar_2">
</g>
<g id="Bow-Tie">
</g>
<g id="Wedding_Tiara">
</g>
<g id="Wedding_Bouquet">
</g>
<g id="Wedding_Decoration_1">
</g>
<g id="Wedding_Decoration_2">
</g>
<g id="Wedding_Way_Sign">
</g>
<g id="Wedding_Date">
</g>
<g id="Wedding_Invitation">
</g>
<g id="Wedding_Invitation_2">
</g>
<g id="Bride">
</g>
<g id="Groom">
</g>
<g id="Mariage_Couple">
</g>
<g id="Wedding_Planner_Book">
</g>
<g id="Wedding_Cake_1">
</g>
<g id="Wedding_Cake_2">
</g>
<g id="Wedding_Cake_3">
	<g>
		<g>
			<path d="M25.5,30h-21C4.224,30,4,29.776,4,29.5v-6.17C4,20.983,5.932,19,8.219,19h13.575C24.074,19,26,20.983,26,23.33v6.17
				C26,29.776,25.776,30,25.5,30z M5,29h20v-5.67c0-1.805-1.468-3.33-3.207-3.33H8.219C6.474,20,5,21.525,5,23.33V29z"/>
		</g>
		<g>
			<path d="M21.5,20h-13C8.224,20,8,19.776,8,19.5v-4.809C8,13.057,9.055,12,10.687,12h8.638C20.95,12,22,13.057,22,14.691V19.5
				C22,19.776,21.776,20,21.5,20z M9,19h12v-4.309C21,13.601,20.405,13,19.325,13h-8.638C9.599,13,9,13.601,9,14.691V19z"/>
		</g>
		<g>
			<path d="M19.5,13h-9c-0.276,0-0.5-0.224-0.5-0.5V7.287C10,6.7,10.333,6,11.921,6h6.17C19.669,6,20,6.7,20,7.287V12.5
				C20,12.776,19.776,13,19.5,13z M11,12h8V7.287C19,7.209,19,7,18.091,7h-6.17C11,7,11,7.216,11,7.287V12z"/>
		</g>
		<g>
			<path d="M5.134,23.831c-0.286,0-0.573-0.068-0.853-0.207c-0.247-0.123-0.348-0.424-0.225-0.671s0.422-0.347,0.67-0.226
				c0.424,0.212,0.854,0.092,1.277-0.357c0.956-1.014,2.239-1.014,3.196,0c0.198,0.209,0.51,0.46,0.87,0.46s0.672-0.251,0.871-0.461
				c0.956-1.012,2.24-1.013,3.195,0.001c0.198,0.209,0.51,0.46,0.87,0.46c0.361,0,0.673-0.251,0.871-0.461
				c0.955-1.012,2.239-1.013,3.195,0.001c0.198,0.209,0.51,0.46,0.871,0.46c0.36,0,0.672-0.251,0.871-0.461
				c0.956-1.012,2.24-1.013,3.195,0.001c0.42,0.446,0.846,0.566,1.269,0.362c0.25-0.12,0.547-0.017,0.668,0.23
				c0.121,0.248,0.018,0.548-0.231,0.668c-0.824,0.4-1.711,0.192-2.434-0.575c-0.198-0.21-0.51-0.46-0.871-0.46
				c-0.36,0-0.672,0.25-0.87,0.46c-0.958,1.015-2.24,1.012-3.195,0.001c-0.199-0.211-0.511-0.461-0.871-0.461s-0.672,0.25-0.87,0.46
				c-0.957,1.013-2.239,1.014-3.195,0.001c-0.199-0.211-0.511-0.461-0.871-0.461c-0.36,0-0.672,0.25-0.87,0.46
				c-0.957,1.014-2.239,1.013-3.195,0.001c-0.199-0.211-0.511-0.461-0.871-0.461c-0.36,0-0.672,0.25-0.871,0.46
				C6.249,23.567,5.694,23.831,5.134,23.831z"/>
		</g>
		<g>
			<path d="M19.739,16.4c-0.55,0-1.084-0.259-1.547-0.749c-0.187-0.198-0.481-0.435-0.819-0.435c-0.338,0-0.633,0.236-0.82,0.436
				c-0.925,0.979-2.169,0.979-3.094-0.001c-0.187-0.198-0.481-0.435-0.819-0.435c-0.338,0-0.633,0.236-0.82,0.436
				c-0.925,0.979-2.169,0.979-3.094-0.001c-0.145-0.153-0.295-0.269-0.444-0.342c-0.248-0.121-0.351-0.42-0.23-0.669
				c0.121-0.246,0.42-0.349,0.668-0.229c0.258,0.126,0.505,0.313,0.733,0.555c0.187,0.198,0.481,0.435,0.819,0.435
				s0.632-0.236,0.819-0.435c0.925-0.98,2.167-0.98,3.094-0.001c0.187,0.199,0.481,0.436,0.819,0.436s0.632-0.236,0.819-0.435
				c0.925-0.98,2.167-0.98,3.094-0.001c0.187,0.199,0.481,0.436,0.819,0.436s0.632-0.236,0.819-0.435
				c0.225-0.238,0.467-0.422,0.72-0.548c0.247-0.125,0.548-0.022,0.67,0.225c0.123,0.247,0.022,0.547-0.225,0.67
				c-0.147,0.074-0.295,0.188-0.438,0.34C20.823,16.142,20.289,16.4,19.739,16.4z"/>
		</g>
		<g>
			<path d="M15.006,10.256c-0.582,0-1.15-0.266-1.644-0.767c-0.306-0.311-0.62-0.468-0.932-0.468l0,0
				c-0.312,0-0.626,0.157-0.932,0.468c-0.246,0.25-0.511,0.441-0.787,0.571c-0.252,0.117-0.548,0.009-0.665-0.241
				c-0.117-0.25-0.01-0.547,0.24-0.665c0.169-0.079,0.337-0.202,0.5-0.367c0.493-0.501,1.062-0.766,1.644-0.766l0,0
				c0.582,0,1.15,0.265,1.644,0.767c0.611,0.619,1.25,0.619,1.863,0c0.986-1.003,2.3-1.004,3.288,0
				c0.16,0.161,0.324,0.283,0.489,0.36c0.25,0.118,0.356,0.417,0.237,0.666c-0.118,0.25-0.414,0.355-0.666,0.238
				c-0.27-0.128-0.529-0.317-0.771-0.563C17.9,8.867,17.262,8.868,16.65,9.489C16.156,9.99,15.588,10.256,15.006,10.256z"/>
		</g>
		<g>
			<path d="M13.5,7C13.224,7,13,6.776,13,6.5v-3C13,3.224,13.224,3,13.5,3S14,3.224,14,3.5v3C14,6.776,13.776,7,13.5,7z"/>
		</g>
		<g>
			<circle cx="13.5" cy="0.75" r="0.75"/>
		</g>
		<g>
			<circle cx="16.5" cy="0.75" r="0.75"/>
		</g>
		<g>
			<path d="M17.25,4.5h-1.5c-0.173,0-0.334-0.09-0.425-0.237c-0.091-0.147-0.1-0.331-0.022-0.486l0.751-1.5
				C16.139,2.106,16.312,2,16.501,2c0,0,0,0,0,0c0.189,0,0.362,0.107,0.447,0.276l0.749,1.5c0.078,0.155,0.069,0.339-0.022,0.486
				S17.423,4.5,17.25,4.5z"/>
		</g>
		<g>
			<path d="M14.25,4.5h-1.5c-0.276,0-0.5-0.224-0.5-0.5V2.5c0-0.276,0.224-0.5,0.5-0.5h1.5c0.276,0,0.5,0.224,0.5,0.5V4
				C14.75,4.276,14.526,4.5,14.25,4.5z M13.25,3.5h0.5V3h-0.5V3.5z"/>
		</g>
		<g>
			<path d="M16.5,6.5C16.224,6.5,16,6.276,16,6V4c0-0.276,0.224-0.5,0.5-0.5S17,3.724,17,4v2C17,6.276,16.776,6.5,16.5,6.5z"/>
		</g>
	</g>
</g>
<g id="Cake_Slice">
</g>
<g id="Marriage_Settlement">
</g>
<g id="Glass_Decoration">
</g>
<g id="Cutlery_Decoration">
</g>
<g id="Celebration_Glasses">
</g>
<g id="Wedding_Photo">
</g>
<g id="Wedding_Present_1">
</g>
<g id="Wedding_Present_2">
</g>
<g id="Wedding_Bouquet_2">
</g>
<g id="Hands_with_rings">
</g>
<g id="Wedding_Car">
</g>
<g id="Wedding_music">
</g>
<g id="wedding_party">
</g>
<g id="Confetti_1">
</g>
<g id="Confetti_2">
</g>
</svg>
