<?xml version="1.0" encoding="iso-8859-1"?>
<!-- Generator: Adobe Illustrator 19.2.1, SVG Export Plug-In . SVG Version: 6.00 Build 0)  -->
<svg version="1.1" xmlns="http://www.w3.org/2000/svg" xmlns:xlink="http://www.w3.org/1999/xlink" x="0px" y="0px"
	 viewBox="0 0 24 24" style="enable-background:new 0 0 24 24;" xml:space="preserve">
<g id="Engagement_1">
</g>
<g id="Engagement_2">
</g>
<g id="Wedding_Ring">
</g>
<g id="Church">
</g>
<g id="Church_Bells">
</g>
<g id="Wedding_Altar_1">
</g>
<g id="Wedding_Altar_2">
</g>
<g id="Bow-Tie">
</g>
<g id="Wedding_Tiara">
</g>
<g id="Wedding_Bouquet">
</g>
<g id="Wedding_Decoration_1">
</g>
<g id="Wedding_Decoration_2">
</g>
<g id="Wedding_Way_Sign">
</g>
<g id="Wedding_Date">
</g>
<g id="Wedding_Invitation">
</g>
<g id="Wedding_Invitation_2">
</g>
<g id="Bride">
</g>
<g id="Groom">
</g>
<g id="Mariage_Couple">
</g>
<g id="Wedding_Planner_Book">
</g>
<g id="Wedding_Cake_1">
	<path d="M20.854,19.146c-0.195-0.195-0.512-0.195-0.707,0l-0.414,0.414c-0.201,0.201-0.458,0.337-0.732,0.399V17.5
		c0-0.115-0.023-0.223-0.034-0.336c0.051-0.145,0.029-0.304-0.059-0.437C18.554,15.169,17.163,14,15.5,14H12v-2h3.5h0.171
		c0.667,0,1.295-0.26,1.768-0.732l0.414-0.414c0.195-0.195,0.195-0.512,0-0.707s-0.512-0.195-0.707,0l-0.414,0.414
		c-0.204,0.204-0.457,0.339-0.732,0.4V8.5C16,7.122,14.878,6,13.5,6H12V4h1.5h0.171c0.668,0,1.296-0.26,1.768-0.732l0.414-0.414
		c0.195-0.195,0.195-0.512,0-0.707s-0.512-0.195-0.707,0l-0.414,0.414C14.528,2.764,14.275,2.9,14,2.961V1.5
		c0-0.254-0.069-0.489-0.181-0.699c-0.012-0.026-0.024-0.049-0.039-0.072C13.517,0.294,13.044,0,12.5,0h-2
		C9.947,0,9.469,0.304,9.208,0.75C9.204,0.757,9.201,0.765,9.197,0.772C9.075,0.989,9,1.235,9,1.5v1.461
		C8.725,2.9,8.472,2.764,8.268,2.561L7.854,2.146c-0.195-0.195-0.512-0.195-0.707,0s-0.195,0.512,0,0.707l0.414,0.414
		C8.033,3.74,8.661,4,9.329,4H9.5H11v2H9.5C8.122,6,7,7.122,7,8.5v0.998c0,0,0,0.002,0,0.002s0,0.002,0,0.002v1.459
		c-0.275-0.061-0.528-0.197-0.732-0.4l-0.414-0.414c-0.195-0.195-0.512-0.195-0.707,0s-0.195,0.512,0,0.707l0.414,0.414
		C6.033,11.74,6.661,12,7.329,12H7.5H11v2H7.5c-1.663,0-3.054,1.169-3.408,2.727c-0.088,0.132-0.109,0.292-0.059,0.437
		C4.023,17.276,4,17.385,4,17.5v2.461c-0.275-0.061-0.528-0.197-0.732-0.4l-0.414-0.414c-0.195-0.195-0.512-0.195-0.707,0
		s-0.195,0.512,0,0.707l0.414,0.414C3.033,20.74,3.661,21,4.329,21H4.5H11v2H8.5C8.224,23,8,23.224,8,23.5S8.224,24,8.5,24h6
		c0.276,0,0.5-0.224,0.5-0.5S14.776,23,14.5,23H12v-2h6.5h0.172c0.668,0,1.295-0.26,1.768-0.732l0.414-0.414
		C21.049,19.658,21.049,19.342,20.854,19.146z M12.307,1c-0.057,0.051-0.116,0.099-0.171,0.157C11.989,1.313,11.758,1.5,11.5,1.5
		s-0.489-0.187-0.637-0.343C10.808,1.098,10.75,1.051,10.693,1H12.307z M9.5,7h4C14.327,7,15,7.673,15,8.5v0.285
		c-0.051-0.042-0.097-0.086-0.137-0.128c-0.812-0.859-1.916-0.859-2.728,0C11.988,8.813,11.758,9,11.5,9s-0.489-0.187-0.636-0.343
		c-0.812-0.859-1.917-0.859-2.727,0C8.097,8.699,8.05,8.742,8,8.784V8.5C8,7.673,8.673,7,9.5,7z M7.5,15h8
		c0.819,0,1.541,0.401,1.997,1.012c-0.478,0.001-0.956,0.216-1.361,0.645C15.988,16.813,15.758,17,15.5,17s-0.488-0.187-0.636-0.343
		c-0.812-0.861-1.916-0.861-2.728,0C11.988,16.813,11.758,17,11.5,17s-0.488-0.187-0.636-0.343c-0.812-0.861-1.916-0.861-2.728,0
		C7.988,16.813,7.758,17,7.5,17s-0.488-0.187-0.636-0.343c-0.405-0.43-0.883-0.645-1.361-0.646C5.959,15.401,6.681,15,7.5,15z"/>
</g>
<g id="Wedding_Cake_2">
</g>
<g id="Wedding_Cake_3">
</g>
<g id="Cake_Slice">
</g>
<g id="Marriage_Settlement">
</g>
<g id="Glass_Decoration">
</g>
<g id="Cutlery_Decoration">
</g>
<g id="Celebration_Glasses">
</g>
<g id="Wedding_Photo">
</g>
<g id="Wedding_Present_1">
</g>
<g id="Wedding_Present_2">
</g>
<g id="Wedding_Bouquet_2">
</g>
<g id="Hands_with_rings">
</g>
<g id="Wedding_Car">
</g>
<g id="Wedding_music">
</g>
<g id="wedding_party">
</g>
<g id="Confetti_1">
</g>
<g id="Confetti_2">
</g>
</svg>
