<?xml version="1.0" encoding="iso-8859-1"?>
<!-- Generator: Adobe Illustrator 19.2.1, SVG Export Plug-In . SVG Version: 6.00 Build 0)  -->
<svg version="1.1" xmlns="http://www.w3.org/2000/svg" xmlns:xlink="http://www.w3.org/1999/xlink" x="0px" y="0px"
	 viewBox="0 0 30 30" style="enable-background:new 0 0 30 30;" xml:space="preserve">
<g id="Engagement_1">
</g>
<g id="Engagement_2">
</g>
<g id="Wedding_Ring">
	<g>
		<path d="M20.674,12.717c-0.49,0-0.954-0.109-1.375-0.298C20.362,13.839,21,15.594,21,17.5c0,4.687-3.813,8.5-8.5,8.5
			C7.813,26,4,22.187,4,17.5C4,12.813,7.813,9,12.5,9c1.906,0,3.661,0.638,5.08,1.701c-0.188-0.421-0.298-0.885-0.298-1.375
			c0-1.107,0.541-2.083,1.365-2.703C16.831,5.595,14.736,5,12.5,5C5.596,5,0,10.596,0,17.5S5.596,30,12.5,30S25,24.404,25,17.5
			c0-2.237-0.595-4.331-1.624-6.147C22.757,12.176,21.781,12.717,20.674,12.717z"/>
		<path d="M30,8.065V4.283c0-0.133-0.053-0.26-0.146-0.354l-3.782-3.783c-0.131-0.131-0.319-0.179-0.497-0.125
			C25.237,0.049,23.499,0.033,21.945,0c-0.004,0-0.008,0-0.011,0c-0.065,0-0.127,0.013-0.184,0.036
			c-0.012,0.005-0.022,0.015-0.033,0.02c-0.046,0.022-0.089,0.048-0.125,0.083c-0.003,0.003-0.008,0.004-0.011,0.007
			c-0.013,0.013-0.018,0.03-0.029,0.043c-0.026,0.032-0.051,0.065-0.068,0.103c-0.012,0.026-0.017,0.052-0.024,0.078
			c-0.007,0.024-0.019,0.046-0.022,0.072l-0.749,6.493c-0.005,0-0.01-0.002-0.015-0.002c-1.318,0-2.392,1.073-2.392,2.392
			c0,1.318,1.073,2.391,2.392,2.391s2.392-1.073,2.392-2.391c0-0.005-0.001-0.01-0.002-0.015l6.494-0.749
			c0.025-0.003,0.045-0.015,0.069-0.021c0.028-0.007,0.055-0.013,0.081-0.025c0.038-0.017,0.069-0.042,0.101-0.067
			c0.014-0.011,0.031-0.016,0.045-0.03c0.003-0.003,0.004-0.008,0.007-0.011c0.034-0.036,0.06-0.078,0.082-0.123
			c0.006-0.012,0.016-0.022,0.021-0.035C29.987,8.192,30,8.13,30,8.065z M25.532,1.021L29,4.49v2.369l-5.835-5.835
			C24.469,1.046,25.158,1.047,25.532,1.021z M21.67,7.159l0.642-5.574l6.102,6.102L22.841,8.33
			C22.603,7.813,22.187,7.398,21.67,7.159z"/>
	</g>
</g>
<g id="Church">
</g>
<g id="Church_Bells">
</g>
<g id="Wedding_Altar_1">
</g>
<g id="Wedding_Altar_2">
</g>
<g id="Bow-Tie">
</g>
<g id="Wedding_Tiara">
</g>
<g id="Wedding_Bouquet">
</g>
<g id="Wedding_Decoration_1">
</g>
<g id="Wedding_Decoration_2">
</g>
<g id="Wedding_Way_Sign">
</g>
<g id="Wedding_Date">
</g>
<g id="Wedding_Invitation">
</g>
<g id="Wedding_Invitation_2">
</g>
<g id="Bride">
</g>
<g id="Groom">
</g>
<g id="Mariage_Couple">
</g>
<g id="Wedding_Planner_Book">
</g>
<g id="Wedding_Cake_1">
</g>
<g id="Wedding_Cake_2">
</g>
<g id="Wedding_Cake_3">
</g>
<g id="Cake_Slice">
</g>
<g id="Marriage_Settlement">
</g>
<g id="Glass_Decoration">
</g>
<g id="Cutlery_Decoration">
</g>
<g id="Celebration_Glasses">
</g>
<g id="Wedding_Photo">
</g>
<g id="Wedding_Present_1">
</g>
<g id="Wedding_Present_2">
</g>
<g id="Wedding_Bouquet_2">
</g>
<g id="Hands_with_rings">
</g>
<g id="Wedding_Car">
</g>
<g id="Wedding_music">
</g>
<g id="wedding_party">
</g>
<g id="Confetti_1">
</g>
<g id="Confetti_2">
</g>
</svg>
