<?xml version="1.0" encoding="iso-8859-1"?>
<!-- Generator: Adobe Illustrator 19.2.1, SVG Export Plug-In . SVG Version: 6.00 Build 0)  -->
<svg version="1.1" xmlns="http://www.w3.org/2000/svg" xmlns:xlink="http://www.w3.org/1999/xlink" x="0px" y="0px"
	 viewBox="0 0 30 30" style="enable-background:new 0 0 30 30;" xml:space="preserve">
<g id="Engagement_1">
</g>
<g id="Engagement_2">
</g>
<g id="Wedding_Ring">
</g>
<g id="Church">
</g>
<g id="Church_Bells">
</g>
<g id="Wedding_Altar_1">
</g>
<g id="Wedding_Altar_2">
</g>
<g id="Bow-Tie">
</g>
<g id="Wedding_Tiara">
</g>
<g id="Wedding_Bouquet">
</g>
<g id="Wedding_Decoration_1">
</g>
<g id="Wedding_Decoration_2">
	<g>
		<g>
			<path d="M15,24.325c-0.141,0-0.275-0.06-0.37-0.164c-0.147-0.162-3.619-3.988-4.751-5.372c-0.688-0.84-1.052-1.808-1.052-2.8
				c0-2.212,1.663-4.013,3.707-4.013c0.919,0,1.792,0.365,2.467,1.017c0.675-0.652,1.547-1.017,2.467-1.017
				c2.044,0,3.707,1.8,3.707,4.013c0,0.992-0.364,1.96-1.053,2.8c-1.132,1.383-4.604,5.209-4.751,5.371
				C15.275,24.266,15.141,24.325,15,24.325z M12.533,12.977c-1.493,0-2.707,1.352-2.707,3.013c0,0.958,0.449,1.707,0.826,2.167
				c0.901,1.102,3.4,3.876,4.348,4.924c0.947-1.048,3.446-3.822,4.347-4.923c0.377-0.46,0.827-1.209,0.827-2.167
				c0-1.661-1.214-3.013-2.707-3.013c-0.798,0-1.552,0.391-2.068,1.071c-0.189,0.249-0.607,0.249-0.797,0
				C14.085,13.368,13.331,12.977,12.533,12.977z"/>
		</g>
		<g>
			<g>
				<path d="M15.599,23.663c-0.266,0-0.488-0.21-0.499-0.479c-0.012-0.276,0.202-0.509,0.478-0.521
					c7.294-0.312,13.057-6.344,13.406-13.875c-1.888,2.316-6.106,3.906-10.097,4.516c-0.277,0.04-0.528-0.146-0.57-0.418
					c-0.042-0.273,0.146-0.528,0.418-0.57C24.587,11.421,29,8.781,29,6.175c0-0.276,0.224-0.5,0.5-0.5s0.5,0.224,0.5,0.5v1.889
					c0,8.402-6.316,15.254-14.379,15.599C15.613,23.663,15.606,23.663,15.599,23.663z"/>
			</g>
			<g>
				<path d="M14.401,23.663c-0.007,0-0.015,0-0.022,0C6.316,23.318,0,16.466,0,8.064V6.175c0-0.276,0.224-0.5,0.5-0.5
					S1,5.898,1,6.175c0,2.609,4.412,5.25,10.263,6.142c0.273,0.042,0.461,0.296,0.419,0.569c-0.042,0.273-0.298,0.461-0.569,0.419
					c-3.991-0.608-8.208-2.197-10.095-4.514c0.35,7.529,6.112,13.561,13.405,13.873c0.276,0.012,0.49,0.245,0.478,0.521
					C14.889,23.453,14.667,23.663,14.401,23.663z"/>
			</g>
		</g>
		<g>
			<path d="M23.196,16.76c-0.162,0-0.32-0.078-0.417-0.223c-0.153-0.23-0.091-0.54,0.139-0.693C26.954,13.153,29,10.112,29,6.803
				c0-0.276,0.224-0.5,0.5-0.5s0.5,0.224,0.5,0.5c0,3.664-2.196,6.985-6.527,9.873C23.388,16.732,23.292,16.76,23.196,16.76z"/>
		</g>
		<g>
			<path d="M6.804,16.76c-0.095,0-0.191-0.027-0.277-0.084C2.196,13.789,0,10.467,0,6.803c0-0.276,0.224-0.5,0.5-0.5
				S1,6.527,1,6.803c0,3.309,2.046,6.35,6.082,9.041c0.23,0.153,0.292,0.463,0.139,0.693C7.124,16.682,6.965,16.76,6.804,16.76z"/>
		</g>
	</g>
</g>
<g id="Wedding_Way_Sign">
</g>
<g id="Wedding_Date">
</g>
<g id="Wedding_Invitation">
</g>
<g id="Wedding_Invitation_2">
</g>
<g id="Bride">
</g>
<g id="Groom">
</g>
<g id="Mariage_Couple">
</g>
<g id="Wedding_Planner_Book">
</g>
<g id="Wedding_Cake_1">
</g>
<g id="Wedding_Cake_2">
</g>
<g id="Wedding_Cake_3">
</g>
<g id="Cake_Slice">
</g>
<g id="Marriage_Settlement">
</g>
<g id="Glass_Decoration">
</g>
<g id="Cutlery_Decoration">
</g>
<g id="Celebration_Glasses">
</g>
<g id="Wedding_Photo">
</g>
<g id="Wedding_Present_1">
</g>
<g id="Wedding_Present_2">
</g>
<g id="Wedding_Bouquet_2">
</g>
<g id="Hands_with_rings">
</g>
<g id="Wedding_Car">
</g>
<g id="Wedding_music">
</g>
<g id="wedding_party">
</g>
<g id="Confetti_1">
</g>
<g id="Confetti_2">
</g>
</svg>
