<?xml version="1.0" encoding="iso-8859-1"?>
<!-- Generator: Adobe Illustrator 19.2.1, SVG Export Plug-In . SVG Version: 6.00 Build 0)  -->
<svg version="1.1" xmlns="http://www.w3.org/2000/svg" xmlns:xlink="http://www.w3.org/1999/xlink" x="0px" y="0px"
	 viewBox="0 0 30 30" style="enable-background:new 0 0 30 30;" xml:space="preserve">
<g id="Engagement_1">
</g>
<g id="Engagement_2">
</g>
<g id="Wedding_Ring">
</g>
<g id="Church">
</g>
<g id="Church_Bells">
</g>
<g id="Wedding_Altar_1">
</g>
<g id="Wedding_Altar_2">
</g>
<g id="Bow-Tie">
</g>
<g id="Wedding_Tiara">
</g>
<g id="Wedding_Bouquet">
</g>
<g id="Wedding_Decoration_1">
</g>
<g id="Wedding_Decoration_2">
	<g>
		<path d="M21.174,15.99c0-2.212-1.663-4.013-3.707-4.013c-0.92,0-1.792,0.365-2.467,1.017c-0.675-0.652-1.547-1.017-2.467-1.017
			c-2.044,0-3.707,1.8-3.707,4.013c0,0.991,0.364,1.959,1.053,2.8c1.132,1.383,4.604,5.209,4.751,5.371
			c0.095,0.104,0.229,0.164,0.37,0.164s0.275-0.06,0.37-0.164c0.147-0.162,3.619-3.988,4.751-5.371
			C20.81,17.948,21.174,16.979,21.174,15.99z"/>
		<path d="M22.112,15.34c3.704-1.434,6.275-5.804,6.787-8.82c-0.617,2.232-4.265,4.324-8.897,5.259
			C21.141,12.56,21.928,13.847,22.112,15.34z"/>
		<path d="M7.888,15.34c0.184-1.494,0.971-2.781,2.11-3.561C5.366,10.844,1.717,8.752,1.101,6.52
			C1.613,9.537,4.184,13.906,7.888,15.34z"/>
		<path d="M7.863,16.402c-4.669-1.58-7.685-7.208-7.848-10.621C0.011,5.807,0,5.831,0,5.859V7.75
			c0,6.846,4.395,13.001,10.687,14.968c0.049,0.015,0.1,0.022,0.149,0.022c0.08,0,0.16-0.02,0.233-0.058
			c0.117-0.063,0.205-0.168,0.244-0.296l0.096-0.312c-0.898-1.009-1.812-2.05-2.304-2.651C8.363,18.518,7.952,17.479,7.863,16.402z"
			/>
		<path d="M29.984,5.781c-0.163,3.414-3.179,9.042-7.848,10.621c-0.089,1.076-0.5,2.114-1.241,3.021
			c-0.492,0.602-1.406,1.642-2.305,2.652l0.096,0.312c0.039,0.128,0.127,0.233,0.244,0.296c0.073,0.038,0.153,0.058,0.233,0.058
			c0.05,0,0.101-0.008,0.149-0.022C25.605,20.751,30,14.596,30,7.75V5.859C30,5.831,29.989,5.807,29.984,5.781z"/>
	</g>
</g>
<g id="Wedding_Way_Sign">
</g>
<g id="Wedding_Date">
</g>
<g id="Wedding_Invitation">
</g>
<g id="Wedding_Invitation_2">
</g>
<g id="Bride">
</g>
<g id="Groom">
</g>
<g id="Mariage_Couple">
</g>
<g id="Wedding_Planner_Book">
</g>
<g id="Wedding_Cake_1">
</g>
<g id="Wedding_Cake_2">
</g>
<g id="Wedding_Cake_3">
</g>
<g id="Cake_Slice">
</g>
<g id="Marriage_Settlement">
</g>
<g id="Glass_Decoration">
</g>
<g id="Cutlery_Decoration">
</g>
<g id="Celebration_Glasses">
</g>
<g id="Wedding_Photo">
</g>
<g id="Wedding_Present_1">
</g>
<g id="Wedding_Present_2">
</g>
<g id="Wedding_Bouquet_2">
</g>
<g id="Hands_with_rings">
</g>
<g id="Wedding_Car">
</g>
<g id="Wedding_music">
</g>
<g id="wedding_party">
</g>
<g id="Confetti_1">
</g>
<g id="Confetti_2">
</g>
</svg>
