<?xml version="1.0" encoding="iso-8859-1"?>
<!-- Generator: Adobe Illustrator 19.2.1, SVG Export Plug-In . SVG Version: 6.00 Build 0)  -->
<svg version="1.1" xmlns="http://www.w3.org/2000/svg" xmlns:xlink="http://www.w3.org/1999/xlink" x="0px" y="0px"
	 viewBox="0 0 30 30" style="enable-background:new 0 0 30 30;" xml:space="preserve">
<g id="Engagement_1">
</g>
<g id="Engagement_2">
</g>
<g id="Wedding_Ring">
</g>
<g id="Church">
</g>
<g id="Church_Bells">
</g>
<g id="Wedding_Altar_1">
</g>
<g id="Wedding_Altar_2">
</g>
<g id="Bow-Tie">
</g>
<g id="Wedding_Tiara">
</g>
<g id="Wedding_Bouquet">
</g>
<g id="Wedding_Decoration_1">
</g>
<g id="Wedding_Decoration_2">
</g>
<g id="Wedding_Way_Sign">
</g>
<g id="Wedding_Date">
</g>
<g id="Wedding_Invitation">
</g>
<g id="Wedding_Invitation_2">
	<g>
		<path d="M0.818,5.114C0.668,4.991,0.461,4.965,0.287,5.048S0,5.307,0,5.5v11c0,0.163,0.08,0.316,0.213,0.409l10,7
			C10.299,23.97,10.399,24,10.5,24c0.079,0,0.158-0.019,0.231-0.057C10.896,23.857,11,23.687,11,23.5v-9.761
			c0-0.149-0.067-0.291-0.182-0.386L0.818,5.114z"/>
		<polygon points="24,19.688 24,20.239 24,21 25,21 25,20.239 25,19.688 24.5,19.373 		"/>
		<path d="M29.5,13H11.796C11.924,13.223,12,13.474,12,13.739V23.5c0,0.175-0.039,0.341-0.096,0.5H29.5c0.276,0,0.5-0.224,0.5-0.5
			v-10C30,13.224,29.776,13,29.5,13z M13.5,17h4c0.276,0,0.5,0.224,0.5,0.5S17.776,18,17.5,18h-4c-0.276,0-0.5-0.224-0.5-0.5
			S13.224,17,13.5,17z M19.5,21h-6c-0.276,0-0.5-0.224-0.5-0.5s0.224-0.5,0.5-0.5h6c0.276,0,0.5,0.224,0.5,0.5S19.776,21,19.5,21z
			 M28,21.5c0,0.276-0.224,0.5-0.5,0.5h-2h-2h-2c-0.276,0-0.5-0.224-0.5-0.5v-0.631c0-0.219,0.142-0.411,0.35-0.477l1.65-0.52v-0.46
			c0-0.172,0.088-0.331,0.233-0.423L24,18.507V17h-0.5c-0.276,0-0.5-0.224-0.5-0.5s0.224-0.5,0.5-0.5H24v-0.5
			c0-0.276,0.224-0.5,0.5-0.5s0.5,0.224,0.5,0.5V16h0.5c0.276,0,0.5,0.224,0.5,0.5S25.776,17,25.5,17H25v1.507l0.767,0.484
			C25.912,19.082,26,19.241,26,19.413v0.46l1.65,0.52C27.858,20.458,28,20.65,28,20.869V21.5z"/>
	</g>
</g>
<g id="Bride">
</g>
<g id="Groom">
</g>
<g id="Mariage_Couple">
</g>
<g id="Wedding_Planner_Book">
</g>
<g id="Wedding_Cake_1">
</g>
<g id="Wedding_Cake_2">
</g>
<g id="Wedding_Cake_3">
</g>
<g id="Cake_Slice">
</g>
<g id="Marriage_Settlement">
</g>
<g id="Glass_Decoration">
</g>
<g id="Cutlery_Decoration">
</g>
<g id="Celebration_Glasses">
</g>
<g id="Wedding_Photo">
</g>
<g id="Wedding_Present_1">
</g>
<g id="Wedding_Present_2">
</g>
<g id="Wedding_Bouquet_2">
</g>
<g id="Hands_with_rings">
</g>
<g id="Wedding_Car">
</g>
<g id="Wedding_music">
</g>
<g id="wedding_party">
</g>
<g id="Confetti_1">
</g>
<g id="Confetti_2">
</g>
</svg>
