<?xml version="1.0" encoding="iso-8859-1"?>
<!-- Generator: Adobe Illustrator 19.2.1, SVG Export Plug-In . SVG Version: 6.00 Build 0)  -->
<svg version="1.1" xmlns="http://www.w3.org/2000/svg" xmlns:xlink="http://www.w3.org/1999/xlink" x="0px" y="0px"
	 viewBox="0 0 24 24" style="enable-background:new 0 0 24 24;" xml:space="preserve">
<g id="Engagement_1">
</g>
<g id="Engagement_2">
</g>
<g id="Wedding_Ring">
</g>
<g id="Church">
</g>
<g id="Church_Bells">
</g>
<g id="Wedding_Altar_1">
	<g>
		<path d="M11.63,5.836C11.725,5.94,11.859,6,12,6s0.275-0.06,0.37-0.164c0.065-0.072,1.6-1.763,2.103-2.377
			C14.817,3.037,15,2.549,15,2.048C15,0.918,14.142,0,13.087,0C12.692,0,12.315,0.128,12,0.362C11.685,0.128,11.308,0,10.913,0
			C9.858,0,9,0.918,9,2.048c0,0.501,0.183,0.989,0.527,1.411C10.03,4.073,11.564,5.764,11.63,5.836z"/>
		<path d="M3.5,13h2C6.327,13,7,12.327,7,11.5S6.327,10,5.5,10h-2C2.673,10,2,10.673,2,11.5S2.673,13,3.5,13z"/>
		<path d="M18.5,10c-0.827,0-1.5,0.673-1.5,1.5s0.673,1.5,1.5,1.5h2c0.827,0,1.5-0.673,1.5-1.5S21.327,10,20.5,10H18.5z"/>
		<path d="M23.5,21h-23C0.224,21,0,21.224,0,21.5v2C0,23.776,0.224,24,0.5,24h23c0.276,0,0.5-0.224,0.5-0.5v-2
			C24,21.224,23.776,21,23.5,21z"/>
		<path d="M20.5,14h-2c-0.171,0-0.338-0.018-0.5-0.051V20h3.837l-0.678-6.099C20.948,13.959,20.729,14,20.5,14z"/>
		<path d="M3.5,14c-0.229,0-0.448-0.041-0.659-0.099L2.163,20H6.08l0-6.075C5.893,13.97,5.7,14,5.5,14H3.5z"/>
		<path d="M5.5,9c0.289,0,0.562,0.059,0.82,0.149c0.564-1.721,1.886-3.102,3.577-3.745C9.462,4.917,8.997,4.389,8.754,4.092
			c-0.299-0.365-0.5-0.771-0.622-1.195C5.647,4.083,3.83,6.339,3.228,9.028C3.318,9.018,3.407,9,3.5,9H5.5z"/>
		<path d="M17.68,9.149C17.938,9.059,18.211,9,18.5,9h2c0.093,0,0.182,0.018,0.272,0.028c-0.602-2.688-2.42-4.945-4.904-6.13
			c-0.122,0.424-0.324,0.83-0.622,1.195c-0.243,0.297-0.708,0.825-1.143,1.312C15.794,6.047,17.116,7.429,17.68,9.149z"/>
	</g>
</g>
<g id="Wedding_Altar_2">
</g>
<g id="Bow-Tie">
</g>
<g id="Wedding_Tiara">
</g>
<g id="Wedding_Bouquet">
</g>
<g id="Wedding_Decoration_1">
</g>
<g id="Wedding_Decoration_2">
</g>
<g id="Wedding_Way_Sign">
</g>
<g id="Wedding_Date">
</g>
<g id="Wedding_Invitation">
</g>
<g id="Wedding_Invitation_2">
</g>
<g id="Bride">
</g>
<g id="Groom">
</g>
<g id="Mariage_Couple">
</g>
<g id="Wedding_Planner_Book">
</g>
<g id="Wedding_Cake_1">
</g>
<g id="Wedding_Cake_2">
</g>
<g id="Wedding_Cake_3">
</g>
<g id="Cake_Slice">
</g>
<g id="Marriage_Settlement">
</g>
<g id="Glass_Decoration">
</g>
<g id="Cutlery_Decoration">
</g>
<g id="Celebration_Glasses">
</g>
<g id="Wedding_Photo">
</g>
<g id="Wedding_Present_1">
</g>
<g id="Wedding_Present_2">
</g>
<g id="Wedding_Bouquet_2">
</g>
<g id="Hands_with_rings">
</g>
<g id="Wedding_Car">
</g>
<g id="Wedding_music">
</g>
<g id="wedding_party">
</g>
<g id="Confetti_1">
</g>
<g id="Confetti_2">
</g>
</svg>
