<?xml version="1.0" encoding="iso-8859-1"?>
<!-- Generator: Adobe Illustrator 19.2.1, SVG Export Plug-In . SVG Version: 6.00 Build 0)  -->
<svg version="1.1" xmlns="http://www.w3.org/2000/svg" xmlns:xlink="http://www.w3.org/1999/xlink" x="0px" y="0px"
	 viewBox="0 0 30 30" style="enable-background:new 0 0 30 30;" xml:space="preserve">
<g id="Engagement_1">
</g>
<g id="Engagement_2">
</g>
<g id="Wedding_Ring">
</g>
<g id="Church">
</g>
<g id="Church_Bells">
</g>
<g id="Wedding_Altar_1">
</g>
<g id="Wedding_Altar_2">
</g>
<g id="Bow-Tie">
</g>
<g id="Wedding_Tiara">
</g>
<g id="Wedding_Bouquet">
	<g>
		<path d="M19.146,13.301c0.475-0.292,0.723-0.816,0.646-1.368s-0.456-0.99-0.991-1.143l-0.994-0.284
			c-0.163-0.046-0.274-0.19-0.279-0.359l-0.029-1.034c-0.017-0.557-0.347-1.033-0.863-1.243C16.12,7.659,15.551,7.77,15.15,8.158
			l-0.743,0.719c-0.121,0.117-0.302,0.144-0.45,0.063l-0.91-0.491c-0.49-0.265-1.067-0.217-1.507,0.125
			c-0.44,0.341-0.629,0.89-0.494,1.431l0.251,1.002c0.041,0.164-0.028,0.333-0.171,0.421l-0.88,0.542
			c-0.474,0.292-0.722,0.816-0.646,1.369c0.076,0.552,0.456,0.989,0.992,1.142l0.994,0.284c0.162,0.046,0.274,0.19,0.278,0.359
			l0.03,1.033c0.016,0.557,0.346,1.033,0.862,1.243c0.173,0.07,0.352,0.104,0.528,0.104c0.35,0,0.69-0.135,0.957-0.393l0.743-0.719
			c0.121-0.117,0.302-0.141,0.451-0.062l0.91,0.491c0.49,0.265,1.067,0.215,1.507-0.125c0.439-0.342,0.629-0.89,0.494-1.43
			l-0.251-1.003c-0.041-0.164,0.027-0.333,0.172-0.421L19.146,13.301z M14.368,13.609c-0.624,0-1.13-0.507-1.13-1.131
			s0.507-1.13,1.13-1.13s1.131,0.507,1.131,1.13S14.991,13.609,14.368,13.609z"/>
		<path d="M16.759,0.507C16.763,0.231,16.542,0.004,16.267,0c-0.003,0-0.006,0-0.008,0c-0.272,0-0.496,0.219-0.5,0.493
			c0,0.024-0.049,2.276-0.949,6.689c0.336-0.225,0.707-0.356,1.099-0.389C16.717,2.673,16.757,0.605,16.759,0.507z"/>
		<path d="M17.008,6.944c0.957-3.669,3.356-6.06,3.383-6.086c0.197-0.193,0.201-0.51,0.008-0.707
			c-0.192-0.198-0.51-0.201-0.706-0.009c-0.119,0.116-2.675,2.654-3.678,6.646C16.346,6.776,16.682,6.811,17.008,6.944z"/>
		<path d="M13.493,7.557c0.01,0.005,0.02,0.006,0.03,0.011l0.513,0.277l0.419-0.406c0.027-0.026,0.06-0.039,0.088-0.064
			c0.841-4.655-1.602-7.121-1.718-7.233c-0.197-0.191-0.512-0.188-0.705,0.009c-0.193,0.197-0.19,0.513,0.006,0.707
			C12.228,0.957,14.429,3.209,13.493,7.557z"/>
		<path d="M8.663,12.61c0.139-0.608,0.497-1.148,1.058-1.493l0.497-0.306l-0.142-0.565c-0.233-0.932,0.093-1.875,0.852-2.463
			c0.589-0.456,1.319-0.598,2.01-0.43l0.269-0.987c0.146-0.538-0.031-1.089-0.463-1.44c-0.432-0.35-1.008-0.41-1.504-0.157
			l-0.92,0.472c-0.15,0.076-0.331,0.048-0.45-0.072L9.142,4.434C8.75,4.037,8.183,3.915,7.663,4.115
			c-0.52,0.199-0.86,0.668-0.888,1.224L6.724,6.372C6.716,6.54,6.601,6.682,6.437,6.725L5.438,6.988
			C4.899,7.129,4.51,7.559,4.422,8.109c-0.088,0.55,0.148,1.08,0.617,1.382l0.868,0.561c0.142,0.091,0.207,0.262,0.163,0.425
			l-0.272,0.997c-0.146,0.537,0.031,1.089,0.463,1.44c0.433,0.351,1.009,0.412,1.504,0.157L8.663,12.61z M8.694,6.935
			c0.623,0,1.13,0.507,1.13,1.131c0,0.623-0.507,1.13-1.13,1.13s-1.13-0.507-1.13-1.13C7.563,7.442,8.071,6.935,8.694,6.935z"/>
		<path d="M25.07,9.363c-0.004-0.002-0.009-0.005-0.013-0.008l-0.869-0.562c-0.142-0.091-0.206-0.262-0.162-0.424l0.272-0.998
			c0.146-0.537-0.03-1.088-0.463-1.439s-1.007-0.412-1.505-0.157l-0.919,0.471c-0.152,0.077-0.332,0.048-0.45-0.071l-0.728-0.735
			c-0.392-0.396-0.958-0.52-1.479-0.319c-0.521,0.199-0.86,0.668-0.888,1.225l-0.052,1.032c-0.002,0.035-0.025,0.061-0.036,0.094
			c0.426,0.419,0.698,0.977,0.717,1.611l0.017,0.584l0.561,0.161c0.922,0.263,1.576,1.017,1.707,1.967
			c0.097,0.701-0.113,1.374-0.556,1.882c0,0,0,0,0.001,0l0.728,0.734c0.268,0.271,0.616,0.413,0.977,0.413
			c0.167,0,0.337-0.031,0.502-0.094c0.521-0.199,0.86-0.668,0.888-1.224l0.052-1.032c0.009-0.168,0.124-0.311,0.286-0.354
			l1.065-0.285c0.473-0.197,0.804-0.667,0.862-1.229C25.641,10.089,25.448,9.625,25.07,9.363z M21.303,10.457
			c-0.624,0-1.131-0.507-1.131-1.13s0.507-1.13,1.131-1.13s1.131,0.507,1.131,1.13S21.927,10.457,21.303,10.457z"/>
		<path d="M19.434,14.298l-0.26,0.16l0.142,0.566c0.232,0.931-0.094,1.874-0.85,2.462c-0.762,0.588-1.756,0.671-2.596,0.216
			l-0.515-0.277l-0.419,0.405c-0.448,0.435-1.035,0.674-1.652,0.674c-0.31,0-0.614-0.06-0.905-0.178
			c-0.888-0.362-1.457-1.182-1.485-2.141l-0.017-0.584l-0.561-0.16c-0.836-0.239-1.43-0.891-1.636-1.716l-0.46,0.235
			c-0.187,0.097-0.382,0.162-0.579,0.207l1.698,2.111c1.715,2.145,2.66,4.825,2.66,7.549V29.5c0,0.276,0.224,0.5,0.5,0.5h4
			c0.276,0,0.5-0.224,0.5-0.5v-4.436c0-3.517,1.435-6.809,3.943-9.039l0.329-0.306c-0.383-0.112-0.738-0.31-1.03-0.605
			L19.434,14.298z"/>
	</g>
</g>
<g id="Wedding_Decoration_1">
</g>
<g id="Wedding_Decoration_2">
</g>
<g id="Wedding_Way_Sign">
</g>
<g id="Wedding_Date">
</g>
<g id="Wedding_Invitation">
</g>
<g id="Wedding_Invitation_2">
</g>
<g id="Bride">
</g>
<g id="Groom">
</g>
<g id="Mariage_Couple">
</g>
<g id="Wedding_Planner_Book">
</g>
<g id="Wedding_Cake_1">
</g>
<g id="Wedding_Cake_2">
</g>
<g id="Wedding_Cake_3">
</g>
<g id="Cake_Slice">
</g>
<g id="Marriage_Settlement">
</g>
<g id="Glass_Decoration">
</g>
<g id="Cutlery_Decoration">
</g>
<g id="Celebration_Glasses">
</g>
<g id="Wedding_Photo">
</g>
<g id="Wedding_Present_1">
</g>
<g id="Wedding_Present_2">
</g>
<g id="Wedding_Bouquet_2">
</g>
<g id="Hands_with_rings">
</g>
<g id="Wedding_Car">
</g>
<g id="Wedding_music">
</g>
<g id="wedding_party">
</g>
<g id="Confetti_1">
</g>
<g id="Confetti_2">
</g>
</svg>
