<?xml version="1.0" encoding="iso-8859-1"?>
<!-- Generator: Adobe Illustrator 19.2.1, SVG Export Plug-In . SVG Version: 6.00 Build 0)  -->
<svg version="1.1" xmlns="http://www.w3.org/2000/svg" xmlns:xlink="http://www.w3.org/1999/xlink" x="0px" y="0px"
	 viewBox="0 0 30 30" style="enable-background:new 0 0 30 30;" xml:space="preserve">
<g id="Engagement_1">
</g>
<g id="Engagement_2">
</g>
<g id="Wedding_Ring">
</g>
<g id="Church">
</g>
<g id="Church_Bells">
</g>
<g id="Wedding_Altar_1">
</g>
<g id="Wedding_Altar_2">
</g>
<g id="Bow-Tie">
</g>
<g id="Wedding_Tiara">
</g>
<g id="Wedding_Bouquet">
</g>
<g id="Wedding_Decoration_1">
</g>
<g id="Wedding_Decoration_2">
</g>
<g id="Wedding_Way_Sign">
</g>
<g id="Wedding_Date">
</g>
<g id="Wedding_Invitation">
</g>
<g id="Wedding_Invitation_2">
</g>
<g id="Bride">
</g>
<g id="Groom">
</g>
<g id="Mariage_Couple">
</g>
<g id="Wedding_Planner_Book">
</g>
<g id="Wedding_Cake_1">
</g>
<g id="Wedding_Cake_2">
</g>
<g id="Wedding_Cake_3">
</g>
<g id="Cake_Slice">
</g>
<g id="Marriage_Settlement">
</g>
<g id="Glass_Decoration">
</g>
<g id="Cutlery_Decoration">
</g>
<g id="Celebration_Glasses">
</g>
<g id="Wedding_Photo">
</g>
<g id="Wedding_Present_1">
</g>
<g id="Wedding_Present_2">
</g>
<g id="Wedding_Bouquet_2">
</g>
<g id="Hands_with_rings">
</g>
<g id="Wedding_Car">
</g>
<g id="Wedding_music">
</g>
<g id="wedding_party">
	<g>
		<path d="M29.935,29.252l-5.044-8.826c-0.006-0.011-0.02-0.013-0.027-0.023c-0.112-0.168-0.309-0.252-0.506-0.21
			c-0.01,0.002-0.02-0.005-0.03-0.002c-0.01,0.003-0.017,0.009-0.026,0.012c-0.007,0.002-0.014,0.001-0.022,0.004
			c-0.054,0.02-5.367,2.096-5.367,9.294c0,0.016,0.008,0.03,0.009,0.046c0.002,0.023-0.001,0.046,0.004,0.069
			c0.004,0.016,0.013,0.028,0.018,0.043c0.008,0.025,0.018,0.047,0.03,0.07c0.017,0.032,0.036,0.06,0.059,0.088
			c0.016,0.019,0.03,0.037,0.048,0.053c0.029,0.026,0.061,0.046,0.096,0.064c0.019,0.01,0.035,0.023,0.055,0.03
			C19.289,29.986,19.349,30,19.413,30H29.5c0.179,0,0.343-0.095,0.433-0.249C30.021,29.597,30.022,29.406,29.935,29.252z
			 M19.954,28.576c0.309-4.341,2.726-6.331,3.962-7.068C23.612,25.477,21.217,27.683,19.954,28.576z"/>
		<path d="M16.892,26.479H15.63c-0.276,0-0.5,0.224-0.5,0.5s0.224,0.5,0.5,0.5h1.261c0.276,0,0.5-0.224,0.5-0.5
			S17.168,26.479,16.892,26.479z"/>
		<path d="M21.435,18.152v1.261c0,0.276,0.224,0.5,0.5,0.5s0.5-0.224,0.5-0.5v-1.261c0-0.276-0.224-0.5-0.5-0.5
			S21.435,17.876,21.435,18.152z"/>
		<path d="M19.413,23.695c0.128,0,0.256-0.049,0.354-0.146c0.195-0.195,0.195-0.512,0-0.707l-1.261-1.261
			c-0.195-0.195-0.512-0.195-0.707,0s-0.195,0.512,0,0.707l1.261,1.261C19.157,23.646,19.285,23.695,19.413,23.695z"/>
		<circle cx="19.413" cy="19.413" r="0.63"/>
		<circle cx="16.891" cy="24.456" r="0.63"/>
		<path d="M19.5,13.5v-1.214c0-0.111-0.037-0.219-0.105-0.307l-1-1.286C18.3,10.571,18.154,10.5,18,10.5h-1.5
			c-0.276,0-0.5,0.224-0.5,0.5v0.989c-0.681-0.441-1.487-0.703-2.357-0.703c-2.403,0-4.357,1.955-4.357,4.357
			c0,0.276,0.224,0.5,0.5,0.5s0.5-0.224,0.5-0.5c0-1.851,1.506-3.357,3.357-3.357c0.918,0,1.75,0.372,2.357,0.972V13.5
			c0,0.276,0.224,0.5,0.5,0.5h0.052C16.829,14.488,17,15.043,17,15.643C17,17.494,15.494,19,13.643,19c-0.276,0-0.5,0.224-0.5,0.5
			s0.224,0.5,0.5,0.5C16.046,20,18,18.046,18,15.643c0-0.582-0.119-1.135-0.327-1.643H19C19.276,14,19.5,13.776,19.5,13.5z"/>
		<path d="M8.5,12.286c0.276,0,0.5-0.224,0.5-0.5s-0.224-0.5-0.5-0.5c-2.402,0-4.357,1.955-4.357,4.357S6.098,20,8.5,20
			s4.357-1.954,4.357-4.357c0-0.276-0.224-0.5-0.5-0.5s-0.5,0.224-0.5,0.5C11.857,17.494,10.351,19,8.5,19s-3.357-1.506-3.357-3.357
			S6.649,12.286,8.5,12.286z"/>
		<path d="M15.5,24.5c0-0.276-0.224-0.5-0.5-0.5H4.357C2.475,24,1,22.588,1,20.786V7h22v9c0,0.276,0.224,0.5,0.5,0.5
			S24,16.276,24,16V6.643c0-0.033-0.009-0.064-0.009-0.097C23.992,6.53,24,6.516,24,6.5c0-0.045-0.014-0.086-0.026-0.127
			C23.84,3.978,21.987,2,19.786,2H18V1.5C18,1.224,17.776,1,17.5,1S17,1.224,17,1.5V2v1.5C17,3.776,16.776,4,16.5,4S16,3.776,16,3.5
			V2H7V1.5C7,1.224,6.776,1,6.5,1S6,1.224,6,1.5V2v1.5C6,3.776,5.776,4,5.5,4S5,3.776,5,3.5V2H4.357
			C2.128,2,0.181,4.006,0.029,6.356C0.015,6.402,0,6.449,0,6.5c0,0.017,0.008,0.031,0.01,0.048C0.009,6.58,0,6.611,0,6.643v14.143
			C0,23.149,1.914,25,4.357,25H15C15.276,25,15.5,24.776,15.5,24.5z"/>
	</g>
</g>
<g id="Confetti_1">
</g>
<g id="Confetti_2">
</g>
</svg>
