<?xml version="1.0" encoding="iso-8859-1"?>
<!-- Generator: Adobe Illustrator 19.2.1, SVG Export Plug-In . SVG Version: 6.00 Build 0)  -->
<svg version="1.1" xmlns="http://www.w3.org/2000/svg" xmlns:xlink="http://www.w3.org/1999/xlink" x="0px" y="0px"
	 viewBox="0 0 30 30" style="enable-background:new 0 0 30 30;" xml:space="preserve">
<g id="Engagement_1">
</g>
<g id="Engagement_2">
</g>
<g id="Wedding_Ring">
</g>
<g id="Church">
</g>
<g id="Church_Bells">
</g>
<g id="Wedding_Altar_1">
</g>
<g id="Wedding_Altar_2">
</g>
<g id="Bow-Tie">
</g>
<g id="Wedding_Tiara">
</g>
<g id="Wedding_Bouquet">
</g>
<g id="Wedding_Decoration_1">
</g>
<g id="Wedding_Decoration_2">
</g>
<g id="Wedding_Way_Sign">
</g>
<g id="Wedding_Date">
</g>
<g id="Wedding_Invitation">
</g>
<g id="Wedding_Invitation_2">
</g>
<g id="Bride">
</g>
<g id="Groom">
</g>
<g id="Mariage_Couple">
</g>
<g id="Wedding_Planner_Book">
</g>
<g id="Wedding_Cake_1">
</g>
<g id="Wedding_Cake_2">
</g>
<g id="Wedding_Cake_3">
</g>
<g id="Cake_Slice">
</g>
<g id="Marriage_Settlement">
</g>
<g id="Glass_Decoration">
</g>
<g id="Cutlery_Decoration">
</g>
<g id="Celebration_Glasses">
</g>
<g id="Wedding_Photo">
</g>
<g id="Wedding_Present_1">
</g>
<g id="Wedding_Present_2">
</g>
<g id="Wedding_Bouquet_2">
	<g>
		<path d="M10.848,10.587c0,0.342,0.1,0.667,0.288,0.947c-0.186,0.281-0.288,0.608-0.288,0.944c0,1.038,0.945,1.876,1.96,1.749
			C13.02,14.961,13.698,15.5,14.5,15.5s1.48-0.539,1.692-1.273c1.008,0.122,1.96-0.71,1.96-1.749c0-0.341-0.1-0.665-0.286-0.945
			c0.187-0.281,0.286-0.604,0.286-0.946c0-1.038-0.946-1.873-1.96-1.748C15.98,8.104,15.302,7.565,14.5,7.565
			s-1.48,0.539-1.692,1.273C11.793,8.71,10.848,9.549,10.848,10.587z M14.5,11.217c0.348,0,0.63,0.282,0.63,0.63
			c0,0.348-0.282,0.63-0.63,0.63s-0.63-0.282-0.63-0.63C13.87,11.5,14.152,11.217,14.5,11.217z"/>
		<path d="M10.793,8.519c0.394-0.347,0.869-0.571,1.367-0.655c0.015-0.024,0.038-0.042,0.054-0.066
			c-0.009-0.015-0.013-0.033-0.022-0.047c0.187-0.28,0.286-0.604,0.286-0.946c0-1.038-0.946-1.877-1.959-1.748
			c-0.212-0.734-0.891-1.273-1.692-1.273s-1.48,0.539-1.692,1.273c-1.024-0.128-1.959,0.71-1.96,1.748
			c0,0.341,0.1,0.665,0.287,0.946C5.273,8.031,5.174,8.354,5.174,8.696c0,1.038,0.935,1.874,1.96,1.748
			c0.212,0.734,0.891,1.273,1.692,1.273c0.433,0,0.818-0.169,1.125-0.43c-0.061-0.228-0.103-0.461-0.103-0.7
			C9.848,9.802,10.192,9.048,10.793,8.519z M8.957,8.696c-0.348,0-0.63-0.282-0.63-0.63c0-0.348,0.282-0.63,0.63-0.63
			c0.348,0,0.63,0.282,0.63,0.63C9.587,8.413,9.305,8.696,8.957,8.696z"/>
		<path d="M10.792,14.544c-0.031-0.028-0.054-0.063-0.084-0.092c1.175,6.099,2.023,14.979,2.034,15.094
			C12.766,29.806,12.984,30,13.239,30c0.016,0,0.032-0.001,0.047-0.002c0.275-0.026,0.477-0.271,0.451-0.545
			c-0.042-0.449-0.797-8.345-1.889-14.351C11.467,14.989,11.101,14.817,10.792,14.544z"/>
		<path d="M23.826,6.804c0-1.038-0.948-1.875-1.96-1.748c-0.212-0.734-0.891-1.273-1.692-1.273s-1.48,0.539-1.692,1.273
			c-1.011-0.133-1.96,0.71-1.96,1.748c0,0.341,0.1,0.665,0.287,0.946c-0.01,0.015-0.013,0.033-0.023,0.048
			c0.016,0.024,0.039,0.042,0.055,0.067c0.5,0.085,0.977,0.311,1.371,0.66c0.598,0.529,0.94,1.281,0.94,2.063
			c0,0.239-0.042,0.472-0.103,0.7c0.306,0.261,0.691,0.43,1.124,0.43c0.802,0,1.48-0.539,1.692-1.273
			c1.006,0.121,1.96-0.71,1.96-1.748c0-0.341-0.1-0.666-0.286-0.946C23.727,7.47,23.826,7.146,23.826,6.804z M20.304,8.696
			c-0.348,0-0.63-0.282-0.63-0.63c0-0.348,0.282-0.63,0.63-0.63c0.348,0,0.63,0.282,0.63,0.63
			C20.935,8.413,20.653,8.696,20.304,8.696z"/>
		<path d="M14,16.435V29.5c0,0.276,0.224,0.5,0.5,0.5s0.5-0.224,0.5-0.5V16.435c-0.165,0.031-0.329,0.065-0.5,0.065
			S14.165,16.466,14,16.435z"/>
		<path d="M17.153,15.099c-1.093,6.006-1.847,13.905-1.89,14.354c-0.026,0.274,0.176,0.519,0.451,0.545
			C15.729,29.999,15.746,30,15.761,30c0.255,0,0.473-0.194,0.498-0.453c0.011-0.115,0.859-8.998,2.035-15.098
			c-0.029,0.027-0.05,0.06-0.08,0.087C17.903,14.811,17.536,14.985,17.153,15.099z"/>
		<path d="M17.068,4.338c0.384-1.447,0.901-2.817,1.568-3.484c0.195-0.195,0.195-0.512,0-0.707s-0.512-0.195-0.707,0
			c-1.174,1.174-1.878,3.814-2.266,5.844c0.152-0.478,0.42-0.918,0.81-1.261C16.655,4.57,16.858,4.444,17.068,4.338z"/>
		<path d="M11.932,4.339c0.212,0.107,0.416,0.235,0.599,0.397c0.388,0.342,0.655,0.782,0.806,1.258
			c-0.387-2.031-1.092-4.673-2.267-5.848c-0.195-0.195-0.512-0.195-0.707,0s-0.195,0.512,0,0.707
			C11.031,1.521,11.548,2.892,11.932,4.339z"/>
		<path d="M15.528,6.749c-0.002,0.012-0.005,0.026-0.007,0.038c0.001,0,0.002,0.001,0.003,0.001
			C15.523,6.775,15.527,6.762,15.528,6.749z"/>
		<path d="M15,6.631V0.5C15,0.224,14.776,0,14.5,0S14,0.224,14,0.5v6.131c0.165-0.031,0.329-0.065,0.5-0.065S14.835,6.6,15,6.631z"
			/>
		<path d="M13.479,6.787c-0.002-0.014-0.006-0.031-0.008-0.046c0,0.016,0.005,0.031,0.005,0.047
			C13.477,6.788,13.478,6.787,13.479,6.787z"/>
	</g>
</g>
<g id="Hands_with_rings">
</g>
<g id="Wedding_Car">
</g>
<g id="Wedding_music">
</g>
<g id="wedding_party">
</g>
<g id="Confetti_1">
</g>
<g id="Confetti_2">
</g>
</svg>
