<?xml version="1.0" encoding="iso-8859-1"?>
<!-- Generator: Adobe Illustrator 19.2.1, SVG Export Plug-In . SVG Version: 6.00 Build 0)  -->
<svg version="1.1" xmlns="http://www.w3.org/2000/svg" xmlns:xlink="http://www.w3.org/1999/xlink" x="0px" y="0px"
	 viewBox="0 0 24 24" style="enable-background:new 0 0 24 24;" xml:space="preserve">
<g id="Engagement_1">
</g>
<g id="Engagement_2">
</g>
<g id="Wedding_Ring">
</g>
<g id="Church">
</g>
<g id="Church_Bells">
</g>
<g id="Wedding_Altar_1">
</g>
<g id="Wedding_Altar_2">
</g>
<g id="Bow-Tie">
</g>
<g id="Wedding_Tiara">
</g>
<g id="Wedding_Bouquet">
</g>
<g id="Wedding_Decoration_1">
</g>
<g id="Wedding_Decoration_2">
</g>
<g id="Wedding_Way_Sign">
</g>
<g id="Wedding_Date">
</g>
<g id="Wedding_Invitation">
</g>
<g id="Wedding_Invitation_2">
</g>
<g id="Bride">
</g>
<g id="Groom">
</g>
<g id="Mariage_Couple">
</g>
<g id="Wedding_Planner_Book">
</g>
<g id="Wedding_Cake_1">
</g>
<g id="Wedding_Cake_2">
</g>
<g id="Wedding_Cake_3">
</g>
<g id="Cake_Slice">
</g>
<g id="Marriage_Settlement">
</g>
<g id="Glass_Decoration">
</g>
<g id="Cutlery_Decoration">
</g>
<g id="Celebration_Glasses">
</g>
<g id="Wedding_Photo">
</g>
<g id="Wedding_Present_1">
	<g>
		<path d="M22.5,5h-6.81c1.159-0.416,2.259-0.977,2.84-1.715c0.006-0.006,0.011-0.013,0.017-0.019C18.839,2.91,19,2.459,19,1.996
			c0-0.59-0.248-1.145-0.68-1.52c-0.441-0.382-1.04-0.543-1.682-0.451c-2.338,0.332-4.23,2.12-5.139,4.015
			c-0.908-1.895-2.801-3.683-5.139-4.015C5.722-0.065,5.122,0.094,4.68,0.477C4.248,0.852,4,1.406,4,1.996
			c0,0.463,0.161,0.914,0.453,1.27C4.459,3.272,4.464,3.279,4.47,3.285C5.051,4.024,6.151,4.584,7.31,5H0.5C0.224,5,0,5.224,0,5.5v4
			C0,9.776,0.224,10,0.5,10h22c0.276,0,0.5-0.224,0.5-0.5v-4C23,5.224,22.776,5,22.5,5z M16.779,1.016
			C16.853,1.005,16.923,1,16.991,1c0.267,0,0.497,0.079,0.673,0.232C17.875,1.414,18,1.7,18,1.996c0,0.223-0.07,0.432-0.203,0.606
			c-0.013,0.013-0.023,0.026-0.034,0.041c-0.87,1.151-3.822,1.91-5.554,2.232C12.888,3.128,14.648,1.318,16.779,1.016z M5.203,2.603
			C5.07,2.428,5,2.219,5,1.996C5,1.7,5.125,1.414,5.336,1.232C5.558,1.04,5.864,0.967,6.221,1.016
			c2.131,0.303,3.892,2.112,4.57,3.86C9.06,4.553,6.107,3.794,5.237,2.644C5.227,2.629,5.216,2.616,5.203,2.603z"/>
		<path d="M1,23.5C1,23.776,1.224,24,1.5,24h20c0.276,0,0.5-0.224,0.5-0.5V11H1V23.5z M12.772,13c0.64,0,1.249,0.237,1.735,0.664
			C14.994,13.237,15.604,13,16.243,13C17.764,13,19,14.335,19,15.976c0,0.733-0.268,1.448-0.774,2.067
			c-0.798,0.978-3.243,3.678-3.348,3.792C14.783,21.94,14.649,22,14.508,22c-0.141,0-0.275-0.06-0.37-0.164
			c0,0-0.991-1.094-1.93-2.153c-0.184-0.207-0.164-0.523,0.043-0.706c0.204-0.183,0.522-0.164,0.705,0.043
			c0.58,0.654,1.18,1.322,1.552,1.734c0.731-0.812,2.344-2.609,2.943-3.343C17.702,17.104,18,16.607,18,15.976
			C18,14.886,17.212,14,16.243,14c-0.514,0-1.001,0.254-1.337,0.696c-0.189,0.25-0.607,0.25-0.797,0
			C13.773,14.254,13.286,14,12.772,14c-0.969,0-1.757,0.886-1.757,1.976c0,0.276-0.224,0.5-0.5,0.5s-0.5-0.224-0.5-0.5
			C10.016,14.335,11.252,13,12.772,13z M6.766,13c0.643,0,1.254,0.237,1.742,0.665c0.293-0.257,0.633-0.446,1.003-0.557
			c0.262-0.081,0.543,0.072,0.622,0.336c0.078,0.265-0.072,0.543-0.337,0.622c-0.347,0.104-0.655,0.322-0.89,0.631
			c-0.189,0.248-0.606,0.249-0.796,0C7.772,14.254,7.282,14,6.766,14C5.792,14,5,14.886,5,15.976c0,0.631,0.299,1.128,0.55,1.434
			c0.604,0.735,2.224,2.534,2.958,3.345c0.734-0.811,2.354-2.61,2.958-3.346c0.251-0.306,0.55-0.803,0.55-1.434
			c0-0.276,0.224-0.5,0.5-0.5s0.5,0.224,0.5,0.5c0,0.733-0.269,1.448-0.776,2.068c-0.803,0.979-3.258,3.678-3.361,3.792
			C8.783,21.94,8.648,22,8.508,22s-0.275-0.06-0.37-0.164c-0.104-0.114-2.559-2.814-3.361-3.792C4.269,17.424,4,16.709,4,15.976
			C4,14.335,5.24,13,6.766,13z"/>
	</g>
</g>
<g id="Wedding_Present_2">
</g>
<g id="Wedding_Bouquet_2">
</g>
<g id="Hands_with_rings">
</g>
<g id="Wedding_Car">
</g>
<g id="Wedding_music">
</g>
<g id="wedding_party">
</g>
<g id="Confetti_1">
</g>
<g id="Confetti_2">
</g>
</svg>
