<?xml version="1.0" encoding="iso-8859-1"?>
<!-- Generator: Adobe Illustrator 19.2.1, SVG Export Plug-In . SVG Version: 6.00 Build 0)  -->
<svg version="1.1" xmlns="http://www.w3.org/2000/svg" xmlns:xlink="http://www.w3.org/1999/xlink" x="0px" y="0px"
	 viewBox="0 0 30 30" style="enable-background:new 0 0 30 30;" xml:space="preserve">
<g id="Engagement_1">
</g>
<g id="Engagement_2">
</g>
<g id="Wedding_Ring">
</g>
<g id="Church">
</g>
<g id="Church_Bells">
</g>
<g id="Wedding_Altar_1">
</g>
<g id="Wedding_Altar_2">
</g>
<g id="Bow-Tie">
</g>
<g id="Wedding_Tiara">
</g>
<g id="Wedding_Bouquet">
</g>
<g id="Wedding_Decoration_1">
</g>
<g id="Wedding_Decoration_2">
</g>
<g id="Wedding_Way_Sign">
</g>
<g id="Wedding_Date">
</g>
<g id="Wedding_Invitation">
	<g>
		<path d="M29.973,10.95l-12.448,9.1l12.278,9.178C29.925,29.012,30,28.766,30,28.5V11.15C30,11.082,29.983,11.017,29.973,10.95z"/>
		<path d="M13.811,20.3L0.97,29.899C1.136,29.961,1.313,30,1.5,30h27c0.187,0,0.364-0.038,0.529-0.101l-12.846-9.603
			C15.479,19.784,14.522,19.78,13.811,20.3z"/>
		<path d="M0.027,10.95C0.017,11.017,0,11.082,0,11.15V28.5c0,0.266,0.075,0.512,0.197,0.729l12.277-9.178L0.027,10.95z"/>
		<path d="M16.679,19.431L27,11.885V0.5C27,0.224,26.776,0,26.5,0h-23C3.224,0,3,0.224,3,0.5V1v10.885l10.321,7.546
			C14.345,18.746,15.662,18.747,16.679,19.431z M17.5,2.957c3.057,0,5.544,2.487,5.544,5.543s-2.487,5.543-5.544,5.543
			c-0.236,0-0.469-0.015-0.697-0.043c-0.274-0.035-0.468-0.285-0.434-0.559c0.035-0.274,0.297-0.462,0.559-0.433
			c0.188,0.024,0.379,0.036,0.572,0.036c2.506,0,4.544-2.038,4.544-4.543S20.006,3.957,17.5,3.957c-2.505,0-4.543,2.038-4.543,4.543
			c0,0.597,0.114,1.177,0.338,1.725c0.105,0.256-0.017,0.548-0.272,0.652c-0.253,0.106-0.548-0.017-0.652-0.272
			c-0.274-0.669-0.414-1.377-0.414-2.104C11.957,5.443,14.443,2.957,17.5,2.957z M5.957,8.5c0-3.057,2.487-5.543,5.543-5.543
			c0.236,0,0.469,0.015,0.697,0.043c0.274,0.035,0.468,0.285,0.433,0.559s-0.281,0.468-0.559,0.433
			c-0.187-0.024-0.378-0.036-0.571-0.036c-2.505,0-4.543,2.038-4.543,4.543s2.038,4.543,4.543,4.543s4.544-2.038,4.544-4.543
			c0-0.596-0.114-1.177-0.339-1.727c-0.105-0.255,0.017-0.547,0.273-0.652c0.253-0.105,0.548,0.017,0.652,0.273
			c0.274,0.67,0.414,1.379,0.414,2.106c0,3.057-2.487,5.543-5.544,5.543C8.443,14.043,5.957,11.557,5.957,8.5z"/>
		<path d="M2,9.114L0.733,9.871C0.646,9.923,0.572,9.99,0.499,10.056L2,11.154V9.114z"/>
		<path d="M29.267,9.871L28,9.114v2.04l1.501-1.098C29.428,9.989,29.354,9.923,29.267,9.871z"/>
	</g>
</g>
<g id="Wedding_Invitation_2">
</g>
<g id="Bride">
</g>
<g id="Groom">
</g>
<g id="Mariage_Couple">
</g>
<g id="Wedding_Planner_Book">
</g>
<g id="Wedding_Cake_1">
</g>
<g id="Wedding_Cake_2">
</g>
<g id="Wedding_Cake_3">
</g>
<g id="Cake_Slice">
</g>
<g id="Marriage_Settlement">
</g>
<g id="Glass_Decoration">
</g>
<g id="Cutlery_Decoration">
</g>
<g id="Celebration_Glasses">
</g>
<g id="Wedding_Photo">
</g>
<g id="Wedding_Present_1">
</g>
<g id="Wedding_Present_2">
</g>
<g id="Wedding_Bouquet_2">
</g>
<g id="Hands_with_rings">
</g>
<g id="Wedding_Car">
</g>
<g id="Wedding_music">
</g>
<g id="wedding_party">
</g>
<g id="Confetti_1">
</g>
<g id="Confetti_2">
</g>
</svg>
