<?xml version="1.0" encoding="iso-8859-1"?>
<!-- Generator: Adobe Illustrator 19.2.1, SVG Export Plug-In . SVG Version: 6.00 Build 0)  -->
<svg version="1.1" xmlns="http://www.w3.org/2000/svg" xmlns:xlink="http://www.w3.org/1999/xlink" x="0px" y="0px"
	 viewBox="0 0 30 30" style="enable-background:new 0 0 30 30;" xml:space="preserve">
<g id="Engagement_1">
</g>
<g id="Engagement_2">
</g>
<g id="Wedding_Ring">
	<g>
		<g>
			<path d="M12.5,27C7.262,27,3,22.738,3,17.5S7.262,8,12.5,8s9.5,4.262,9.5,9.5S17.738,27,12.5,27z M12.5,9
				C7.813,9,4,12.813,4,17.5S7.813,26,12.5,26s8.5-3.813,8.5-8.5S17.187,9,12.5,9z"/>
		</g>
		<g>
			<path d="M12.5,30C5.607,30,0,24.393,0,17.5S5.607,5,12.5,5c2.665,0,5.208,0.825,7.354,2.386c0.224,0.162,0.273,0.475,0.11,0.698
				c-0.162,0.223-0.476,0.272-0.698,0.11C17.292,6.759,14.952,6,12.5,6C6.159,6,1,11.159,1,17.5S6.159,29,12.5,29S24,23.841,24,17.5
				c0-2.452-0.759-4.792-2.194-6.766c-0.163-0.223-0.113-0.536,0.11-0.698c0.224-0.162,0.536-0.113,0.698,0.11
				C24.175,12.292,25,14.835,25,17.5C25,24.393,19.393,30,12.5,30z"/>
		</g>
		<g>
			<path d="M29.5,8.565c-0.128,0-0.256-0.049-0.354-0.146l-7.565-7.565c-0.195-0.195-0.195-0.512,0-0.707s0.512-0.195,0.707,0
				l7.565,7.565c0.195,0.195,0.195,0.512,0,0.707C29.756,8.517,29.628,8.565,29.5,8.565z"/>
		</g>
		<g>
			<path d="M20.674,11.717c-1.318,0-2.391-1.073-2.391-2.391c0-1.319,1.073-2.392,2.391-2.392c1.319,0,2.392,1.073,2.392,2.392
				C23.065,10.645,21.993,11.717,20.674,11.717z M20.674,7.935c-0.767,0-1.391,0.625-1.391,1.392s0.624,1.391,1.391,1.391
				s1.392-0.624,1.392-1.391S21.441,7.935,20.674,7.935z"/>
		</g>
		<g>
			<path d="M22.504,9.373c-0.25,0-0.467-0.188-0.496-0.443c-0.032-0.274,0.165-0.522,0.439-0.554L29,7.62V4.49l-3.468-3.468
				c-0.444,0.029-1.319,0.024-3.153-0.012l-0.755,6.543c-0.031,0.274-0.277,0.479-0.554,0.439c-0.274-0.032-0.471-0.28-0.439-0.554
				l0.807-6.996C21.467,0.187,21.69-0.005,21.945,0c1.555,0.032,3.29,0.048,3.629,0.021c0.173-0.052,0.366-0.005,0.497,0.125
				l3.783,3.783C29.947,4.023,30,4.15,30,4.283v3.783c0,0.254-0.19,0.468-0.443,0.497l-6.996,0.807
				C22.542,9.372,22.523,9.373,22.504,9.373z"/>
		</g>
	</g>
</g>
<g id="Church">
</g>
<g id="Church_Bells">
</g>
<g id="Wedding_Altar_1">
</g>
<g id="Wedding_Altar_2">
</g>
<g id="Bow-Tie">
</g>
<g id="Wedding_Tiara">
</g>
<g id="Wedding_Bouquet">
</g>
<g id="Wedding_Decoration_1">
</g>
<g id="Wedding_Decoration_2">
</g>
<g id="Wedding_Way_Sign">
</g>
<g id="Wedding_Date">
</g>
<g id="Wedding_Invitation">
</g>
<g id="Wedding_Invitation_2">
</g>
<g id="Bride">
</g>
<g id="Groom">
</g>
<g id="Mariage_Couple">
</g>
<g id="Wedding_Planner_Book">
</g>
<g id="Wedding_Cake_1">
</g>
<g id="Wedding_Cake_2">
</g>
<g id="Wedding_Cake_3">
</g>
<g id="Cake_Slice">
</g>
<g id="Marriage_Settlement">
</g>
<g id="Glass_Decoration">
</g>
<g id="Cutlery_Decoration">
</g>
<g id="Celebration_Glasses">
</g>
<g id="Wedding_Photo">
</g>
<g id="Wedding_Present_1">
</g>
<g id="Wedding_Present_2">
</g>
<g id="Wedding_Bouquet_2">
</g>
<g id="Hands_with_rings">
</g>
<g id="Wedding_Car">
</g>
<g id="Wedding_music">
</g>
<g id="wedding_party">
</g>
<g id="Confetti_1">
</g>
<g id="Confetti_2">
</g>
</svg>
