<?xml version="1.0" encoding="iso-8859-1"?>
<!-- Generator: Adobe Illustrator 19.2.1, SVG Export Plug-In . SVG Version: 6.00 Build 0)  -->
<svg version="1.1" xmlns="http://www.w3.org/2000/svg" xmlns:xlink="http://www.w3.org/1999/xlink" x="0px" y="0px"
	 viewBox="0 0 30 30" style="enable-background:new 0 0 30 30;" xml:space="preserve">
<g id="Engagement_1">
</g>
<g id="Engagement_2">
</g>
<g id="Wedding_Ring">
</g>
<g id="Church">
</g>
<g id="Church_Bells">
</g>
<g id="Wedding_Altar_1">
</g>
<g id="Wedding_Altar_2">
</g>
<g id="Bow-Tie">
</g>
<g id="Wedding_Tiara">
	<g>
		<g>
			<path d="M0.5,21c-0.085,0-0.17-0.021-0.246-0.064C0.097,20.847,0,20.68,0,20.5v-1.261c0-0.172,0.088-0.332,0.233-0.423
				c5.334-3.358,4.822-7.027,4.816-7.064c-0.023-0.147,0.021-0.298,0.12-0.41c0.099-0.112,0.239-0.186,0.392-0.168
				c2.18,0.074,3.774-0.365,4.777-1.31c0.956-0.901,1.009-1.976,1.009-1.986c0.007-0.271,0.229-0.488,0.5-0.488
				c0.002,0,0.004,0,0.006,0c0.274,0.003,0.494,0.226,0.494,0.5c0,0.477,0.991,0.761,2.652,0.761s2.652-0.285,2.652-0.761
				c0-0.274,0.22-0.497,0.494-0.5c0.002,0,0.004,0,0.006,0c0.271,0,0.493,0.216,0.5,0.488c0.005,0.139,0.231,3.489,5.786,3.295
				c0.154-0.007,0.293,0.057,0.392,0.168c0.1,0.112,0.144,0.262,0.12,0.41c-0.021,0.148-0.475,3.732,4.816,7.064
				C29.912,18.908,30,19.067,30,19.239V20.5c0,0.18-0.097,0.346-0.253,0.435c-0.158,0.088-0.351,0.087-0.503-0.005
				c-0.063-0.037-6.317-3.712-14.244-3.712c-7.99,0-14.181,3.674-14.242,3.711C0.679,20.976,0.59,21,0.5,21z M15,16.217
				c6.672,0,12.069,2.439,14,3.439v-0.144c-4.452-2.897-5.031-6.048-5.064-7.331c-2.179-0.006-3.846-0.54-4.96-1.59
				c-0.523-0.493-0.84-1.025-1.031-1.485C17.066,9.652,15.611,9.652,15,9.652s-2.066,0-2.944-0.545
				c-0.191,0.46-0.508,0.993-1.031,1.485c-1.114,1.05-2.781,1.583-4.96,1.59C6.031,13.464,5.452,16.616,1,19.513v0.141
				C2.925,18.652,8.293,16.217,15,16.217z"/>
		</g>
		<g>
			<path d="M15,17.217c-2.014,0-3.652-1.638-3.652-3.652S12.986,9.913,15,9.913s3.652,1.639,3.652,3.652S17.014,17.217,15,17.217z
				 M15,10.913c-1.463,0-2.652,1.19-2.652,2.652s1.189,2.652,2.652,2.652s2.652-1.189,2.652-2.652S16.463,10.913,15,10.913z"/>
		</g>
		<g>
			<path d="M21.305,17.217c-1.318,0-2.392-1.073-2.392-2.391c0-1.319,1.073-2.392,2.392-2.392s2.391,1.073,2.391,2.392
				C23.695,16.145,22.623,17.217,21.305,17.217z M21.305,13.435c-0.768,0-1.392,0.625-1.392,1.392s0.624,1.391,1.392,1.391
				c0.767,0,1.391-0.624,1.391-1.391S22.071,13.435,21.305,13.435z"/>
		</g>
		<g>
			<path d="M8.695,17.217c-1.318,0-2.391-1.073-2.391-2.391c0-1.319,1.072-2.392,2.391-2.392s2.392,1.073,2.392,2.392
				C11.087,16.145,10.014,17.217,8.695,17.217z M8.695,13.435c-0.767,0-1.391,0.625-1.391,1.392s0.624,1.391,1.391,1.391
				c0.768,0,1.392-0.624,1.392-1.391S9.463,13.435,8.695,13.435z"/>
		</g>
	</g>
</g>
<g id="Wedding_Bouquet">
</g>
<g id="Wedding_Decoration_1">
</g>
<g id="Wedding_Decoration_2">
</g>
<g id="Wedding_Way_Sign">
</g>
<g id="Wedding_Date">
</g>
<g id="Wedding_Invitation">
</g>
<g id="Wedding_Invitation_2">
</g>
<g id="Bride">
</g>
<g id="Groom">
</g>
<g id="Mariage_Couple">
</g>
<g id="Wedding_Planner_Book">
</g>
<g id="Wedding_Cake_1">
</g>
<g id="Wedding_Cake_2">
</g>
<g id="Wedding_Cake_3">
</g>
<g id="Cake_Slice">
</g>
<g id="Marriage_Settlement">
</g>
<g id="Glass_Decoration">
</g>
<g id="Cutlery_Decoration">
</g>
<g id="Celebration_Glasses">
</g>
<g id="Wedding_Photo">
</g>
<g id="Wedding_Present_1">
</g>
<g id="Wedding_Present_2">
</g>
<g id="Wedding_Bouquet_2">
</g>
<g id="Hands_with_rings">
</g>
<g id="Wedding_Car">
</g>
<g id="Wedding_music">
</g>
<g id="wedding_party">
</g>
<g id="Confetti_1">
</g>
<g id="Confetti_2">
</g>
</svg>
