<?xml version="1.0" encoding="iso-8859-1"?>
<!-- Generator: Adobe Illustrator 19.2.1, SVG Export Plug-In . SVG Version: 6.00 Build 0)  -->
<svg version="1.1" xmlns="http://www.w3.org/2000/svg" xmlns:xlink="http://www.w3.org/1999/xlink" x="0px" y="0px"
	 viewBox="0 0 30 30" style="enable-background:new 0 0 30 30;" xml:space="preserve">
<g id="Engagement_1">
</g>
<g id="Engagement_2">
</g>
<g id="Wedding_Ring">
</g>
<g id="Church">
</g>
<g id="Church_Bells">
</g>
<g id="Wedding_Altar_1">
</g>
<g id="Wedding_Altar_2">
</g>
<g id="Bow-Tie">
</g>
<g id="Wedding_Tiara">
</g>
<g id="Wedding_Bouquet">
</g>
<g id="Wedding_Decoration_1">
</g>
<g id="Wedding_Decoration_2">
</g>
<g id="Wedding_Way_Sign">
</g>
<g id="Wedding_Date">
	<g>
		<g>
			<path d="M29.5,10h-29C0.224,10,0,9.776,0,9.5S0.224,9,0.5,9h29C29.776,9,30,9.224,30,9.5S29.776,10,29.5,10z"/>
		</g>
		<g>
			<path d="M21.5,4h-13C8.224,4,8,3.776,8,3.5S8.224,3,8.5,3h13C21.776,3,22,3.224,22,3.5S21.776,4,21.5,4z"/>
		</g>
		<g>
			<path d="M26.98,30H3.02C1.355,30,0,28.645,0,26.98V5.54C0,3.997,1.186,3,3.02,3H5.5C5.776,3,6,3.224,6,3.5S5.776,4,5.5,4H3.02
				C2.413,4,1,4.15,1,5.54v21.44C1,28.094,1.906,29,3.02,29h23.96c1.114,0,2.02-0.906,2.02-2.02V5.54C29,4.15,27.587,4,26.98,4H24.5
				C24.224,4,24,3.776,24,3.5S24.224,3,24.5,3h2.48C28.814,3,30,3.997,30,5.54v21.44C30,28.645,28.645,30,26.98,30z"/>
		</g>
		<g>
			<path d="M7,6C5.897,6,5,5.103,5,4V2c0-1.103,0.897-2,2-2s2,0.897,2,2v2C9,5.103,8.103,6,7,6z M7,1C6.449,1,6,1.449,6,2v2
				c0,0.551,0.449,1,1,1s1-0.449,1-1V2C8,1.449,7.551,1,7,1z"/>
		</g>
		<g>
			<path d="M23,6c-1.103,0-2-0.897-2-2V2c0-1.103,0.897-2,2-2s2,0.897,2,2v2C25,5.103,24.103,6,23,6z M23,1c-0.551,0-1,0.449-1,1v2
				c0,0.551,0.449,1,1,1s1-0.449,1-1V2C24,1.449,23.551,1,23,1z"/>
		</g>
		<g>
			<path d="M12.5,25.043c-3.057,0-5.543-2.487-5.543-5.543s2.487-5.543,5.543-5.543c0.236,0,0.469,0.015,0.697,0.043
				c0.274,0.035,0.468,0.285,0.433,0.559c-0.035,0.274-0.278,0.467-0.559,0.433c-0.187-0.024-0.378-0.036-0.571-0.036
				c-2.505,0-4.543,2.038-4.543,4.543s2.038,4.543,4.543,4.543s4.543-2.038,4.543-4.543c0-0.598-0.114-1.179-0.339-1.726
				c-0.105-0.255,0.017-0.548,0.272-0.653c0.257-0.102,0.548,0.017,0.653,0.272c0.275,0.668,0.415,1.377,0.415,2.107
				C18.043,22.557,15.557,25.043,12.5,25.043z"/>
		</g>
		<g>
			<path d="M18.5,25.043c-0.236,0-0.469-0.015-0.697-0.043c-0.274-0.035-0.468-0.285-0.433-0.559
				c0.035-0.273,0.287-0.462,0.559-0.433c0.187,0.024,0.378,0.036,0.571,0.036c2.505,0,4.543-2.038,4.543-4.543
				s-2.038-4.543-4.543-4.543s-4.543,2.038-4.543,4.543c0,0.597,0.114,1.177,0.338,1.725c0.105,0.256-0.017,0.548-0.272,0.652
				c-0.254,0.105-0.547-0.017-0.652-0.272c-0.274-0.669-0.414-1.377-0.414-2.104c0-3.057,2.487-5.543,5.543-5.543
				s5.543,2.487,5.543,5.543S21.557,25.043,18.5,25.043z"/>
		</g>
	</g>
</g>
<g id="Wedding_Invitation">
</g>
<g id="Wedding_Invitation_2">
</g>
<g id="Bride">
</g>
<g id="Groom">
</g>
<g id="Mariage_Couple">
</g>
<g id="Wedding_Planner_Book">
</g>
<g id="Wedding_Cake_1">
</g>
<g id="Wedding_Cake_2">
</g>
<g id="Wedding_Cake_3">
</g>
<g id="Cake_Slice">
</g>
<g id="Marriage_Settlement">
</g>
<g id="Glass_Decoration">
</g>
<g id="Cutlery_Decoration">
</g>
<g id="Celebration_Glasses">
</g>
<g id="Wedding_Photo">
</g>
<g id="Wedding_Present_1">
</g>
<g id="Wedding_Present_2">
</g>
<g id="Wedding_Bouquet_2">
</g>
<g id="Hands_with_rings">
</g>
<g id="Wedding_Car">
</g>
<g id="Wedding_music">
</g>
<g id="wedding_party">
</g>
<g id="Confetti_1">
</g>
<g id="Confetti_2">
</g>
</svg>
