<?xml version="1.0" encoding="iso-8859-1"?>
<!-- Generator: Adobe Illustrator 19.2.1, SVG Export Plug-In . SVG Version: 6.00 Build 0)  -->
<svg version="1.1" xmlns="http://www.w3.org/2000/svg" xmlns:xlink="http://www.w3.org/1999/xlink" x="0px" y="0px"
	 viewBox="0 0 30 30" style="enable-background:new 0 0 30 30;" xml:space="preserve">
<g id="Engagement_1">
</g>
<g id="Engagement_2">
</g>
<g id="Wedding_Ring">
</g>
<g id="Church">
</g>
<g id="Church_Bells">
</g>
<g id="Wedding_Altar_1">
</g>
<g id="Wedding_Altar_2">
</g>
<g id="Bow-Tie">
</g>
<g id="Wedding_Tiara">
</g>
<g id="Wedding_Bouquet">
</g>
<g id="Wedding_Decoration_1">
</g>
<g id="Wedding_Decoration_2">
</g>
<g id="Wedding_Way_Sign">
</g>
<g id="Wedding_Date">
</g>
<g id="Wedding_Invitation">
</g>
<g id="Wedding_Invitation_2">
</g>
<g id="Bride">
</g>
<g id="Groom">
</g>
<g id="Mariage_Couple">
</g>
<g id="Wedding_Planner_Book">
</g>
<g id="Wedding_Cake_1">
</g>
<g id="Wedding_Cake_2">
</g>
<g id="Wedding_Cake_3">
</g>
<g id="Cake_Slice">
</g>
<g id="Marriage_Settlement">
</g>
<g id="Glass_Decoration">
</g>
<g id="Cutlery_Decoration">
</g>
<g id="Celebration_Glasses">
</g>
<g id="Wedding_Photo">
</g>
<g id="Wedding_Present_1">
	<g>
		<path d="M28.5,6h-8.671c0.662-0.252,1.216-0.501,1.507-0.676c1.261-0.759,2.139-2.702,1.38-4.07
			c-0.306-0.551-0.854-0.957-1.545-1.142c-0.861-0.231-1.848-0.1-2.577,0.339c-0.5,0.301-3.019,2.324-4.094,4.073
			c-1.075-1.749-3.594-3.772-4.094-4.073c-0.73-0.44-1.717-0.57-2.577-0.339c-0.69,0.185-1.239,0.59-1.545,1.142
			c-0.758,1.368,0.119,3.312,1.38,4.071C7.955,5.499,8.509,5.748,9.171,6H0.5C0.224,6,0,6.224,0,6.5v5C0,11.776,0.224,12,0.5,12h28
			c0.276,0,0.5-0.224,0.5-0.5v-5C29,6.224,28.776,6,28.5,6z M19.109,1.308L19.109,1.308C19.443,1.106,19.872,1,20.299,1
			c0.209,0,0.417,0.025,0.613,0.078c0.302,0.081,0.708,0.261,0.929,0.661c0.474,0.854-0.165,2.214-1.021,2.729
			C19.843,5.055,17.363,5.846,15.965,6h-0.717c-0.11-0.021-0.199-0.053-0.244-0.106C14.74,5.234,17.757,2.121,19.109,1.308z
			 M8.18,4.468C7.325,3.953,6.686,2.593,7.159,1.738c0.221-0.399,0.627-0.58,0.929-0.66C8.284,1.025,8.492,1,8.701,1
			c0.426,0,0.855,0.106,1.19,0.308v0c1.353,0.813,4.37,3.926,4.107,4.581C13.952,5.945,13.858,5.979,13.74,6h-0.691
			C11.652,5.852,9.16,5.057,8.18,4.468z"/>
		<path d="M2,29.5C2,29.776,2.224,30,2.5,30h24c0.276,0,0.5-0.224,0.5-0.5V13H2V29.5z M16.326,15c0.808,0,1.574,0.313,2.174,0.874
			C19.1,15.313,19.866,15,20.674,15C22.508,15,24,16.613,24,18.596c0,0.888-0.325,1.754-0.941,2.506
			C22.061,22.32,19,25.693,18.87,25.836C18.775,25.94,18.641,26,18.5,26s-0.275-0.06-0.37-0.164c0,0-1.24-1.366-2.416-2.689
			c-0.183-0.206-0.165-0.522,0.042-0.706c0.206-0.182,0.521-0.165,0.706,0.042c0.777,0.875,1.584,1.77,2.038,2.272
			c0.865-0.958,3.005-3.335,3.785-4.287C22.611,20.069,23,19.422,23,18.596C23,17.164,21.956,16,20.674,16
			c-0.685,0-1.331,0.336-1.775,0.921c-0.189,0.248-0.607,0.248-0.797,0C17.657,16.336,17.011,16,16.326,16
			C15.043,16,14,17.164,14,18.596c0,0.276-0.224,0.5-0.5,0.5s-0.5-0.224-0.5-0.5C13,16.613,14.492,15,16.326,15z M8.326,15
			c0.808,0,1.574,0.313,2.174,0.874c0.371-0.347,0.808-0.601,1.286-0.744c0.265-0.079,0.543,0.071,0.622,0.336
			c0.079,0.265-0.071,0.543-0.336,0.622c-0.458,0.137-0.864,0.425-1.174,0.833c-0.094,0.124-0.242,0.197-0.398,0.197
			s-0.304-0.073-0.398-0.197C9.658,16.336,9.011,16,8.326,16C7.043,16,6,17.164,6,18.596c0,0.826,0.389,1.474,0.714,1.872
			c0.78,0.952,2.92,3.33,3.786,4.287c0.865-0.958,3.006-3.335,3.786-4.287C14.611,20.069,15,19.422,15,18.596
			c0-0.276,0.224-0.5,0.5-0.5s0.5,0.224,0.5,0.5c0,0.887-0.325,1.754-0.941,2.505c-0.999,1.22-4.059,4.593-4.189,4.735
			C10.775,25.94,10.641,26,10.5,26s-0.275-0.06-0.37-0.164c-0.13-0.143-3.19-3.516-4.189-4.735C5.325,20.35,5,19.482,5,18.596
			C5,16.613,6.492,15,8.326,15z"/>
	</g>
</g>
<g id="Wedding_Present_2">
</g>
<g id="Wedding_Bouquet_2">
</g>
<g id="Hands_with_rings">
</g>
<g id="Wedding_Car">
</g>
<g id="Wedding_music">
</g>
<g id="wedding_party">
</g>
<g id="Confetti_1">
</g>
<g id="Confetti_2">
</g>
</svg>
