<?xml version="1.0" encoding="iso-8859-1"?>
<!-- Generator: Adobe Illustrator 19.2.1, SVG Export Plug-In . SVG Version: 6.00 Build 0)  -->
<svg version="1.1" xmlns="http://www.w3.org/2000/svg" xmlns:xlink="http://www.w3.org/1999/xlink" x="0px" y="0px"
	 viewBox="0 0 30 30" style="enable-background:new 0 0 30 30;" xml:space="preserve">
<g id="Engagement_1">
</g>
<g id="Engagement_2">
</g>
<g id="Wedding_Ring">
</g>
<g id="Church">
</g>
<g id="Church_Bells">
</g>
<g id="Wedding_Altar_1">
</g>
<g id="Wedding_Altar_2">
</g>
<g id="Bow-Tie">
</g>
<g id="Wedding_Tiara">
</g>
<g id="Wedding_Bouquet">
</g>
<g id="Wedding_Decoration_1">
</g>
<g id="Wedding_Decoration_2">
</g>
<g id="Wedding_Way_Sign">
</g>
<g id="Wedding_Date">
</g>
<g id="Wedding_Invitation">
</g>
<g id="Wedding_Invitation_2">
</g>
<g id="Bride">
</g>
<g id="Groom">
</g>
<g id="Mariage_Couple">
</g>
<g id="Wedding_Planner_Book">
</g>
<g id="Wedding_Cake_1">
</g>
<g id="Wedding_Cake_2">
</g>
<g id="Wedding_Cake_3">
</g>
<g id="Cake_Slice">
</g>
<g id="Marriage_Settlement">
</g>
<g id="Glass_Decoration">
</g>
<g id="Cutlery_Decoration">
</g>
<g id="Celebration_Glasses">
</g>
<g id="Wedding_Photo">
</g>
<g id="Wedding_Present_1">
</g>
<g id="Wedding_Present_2">
	<g>
		<path d="M29.513,7.031l-2.511,2.009l-0.133-0.4c-0.01-0.044-0.01-0.089-0.015-0.089c0,0,0,0-0.001,0.001l0.301-0.915l1.606-1.285
			C28.388,6.134,27.961,6,27.5,6h-0.105c-0.085-0.24-0.234-0.461-0.443-0.641c-0.502-0.434-1.246-0.564-1.978-0.295L23.305,6h-2.741
			l-1.747-0.971c-0.654-0.234-1.399-0.104-1.901,0.33C16.708,5.538,16.559,5.756,16.475,6H2.5C2.039,6,1.612,6.134,1.241,6.352
			l11.571,9.257c1.268,1.016,3.107,1.016,4.375,0L19,14.16v1.281L18.301,16L19,16.559v1.281l-1.528-1.223
			C16.726,17.109,15.867,17.37,15,17.37s-1.725-0.261-2.471-0.752l-11.287,9.03C1.612,25.866,2.039,26,2.5,26h17h5h3
			c0.461,0,0.888-0.134,1.259-0.352L25,22.641v-1.281l4.513,3.61C29.815,24.556,30,24.051,30,23.5v-15
			C30,7.949,29.815,7.444,29.513,7.031z M25.387,5.971c0.362-0.129,0.72-0.021,0.911,0.146c0.1,0.086,0.21,0.229,0.187,0.365
			l-0.597,1.813c-0.037,0.182-0.037,0.365,0.016,0.604l0.565,1.689c0.039,0.195-0.071,0.338-0.171,0.424
			c-0.191,0.166-0.552,0.275-0.835,0.18l-2.125-1.187c0.219-0.398,0.353-0.891,0.353-1.438c0-0.547-0.134-1.04-0.354-1.439
			L25.387,5.971z M21.93,7.177c0.359,0,0.761,0.595,0.761,1.39s-0.401,1.39-0.761,1.39s-0.761-0.594-0.761-1.39
			S21.57,7.177,21.93,7.177z M21.22,10.758c0.216,0.126,0.456,0.198,0.71,0.198c0.254,0,0.493-0.072,0.709-0.197L24,11.515V25h-4
			V11.443L21.22,10.758z M17.568,6.116c0.179-0.154,0.523-0.284,0.836-0.18l2.122,1.185c-0.222,0.4-0.357,0.895-0.357,1.445
			c0,0.546,0.133,1.039,0.353,1.437l-1.21,0.684c-0.009,0.004-0.017,0.01-0.026,0.015l-0.805,0.455
			c-0.387,0.138-0.733,0.008-0.912-0.146c-0.1-0.086-0.21-0.229-0.187-0.365l0.597-1.813c0.037-0.181,0.037-0.365-0.016-0.604
			l-0.565-1.689C17.358,6.345,17.469,6.202,17.568,6.116z"/>
		<path d="M0.487,7.031C0.185,7.444,0,7.949,0,8.5v15c0,0.551,0.185,1.056,0.487,1.469L11.699,16L0.487,7.031z"/>
	</g>
</g>
<g id="Wedding_Bouquet_2">
</g>
<g id="Hands_with_rings">
</g>
<g id="Wedding_Car">
</g>
<g id="Wedding_music">
</g>
<g id="wedding_party">
</g>
<g id="Confetti_1">
</g>
<g id="Confetti_2">
</g>
</svg>
