<?xml version="1.0" encoding="iso-8859-1"?>
<!-- Generator: Adobe Illustrator 19.2.1, SVG Export Plug-In . SVG Version: 6.00 Build 0)  -->
<svg version="1.1" xmlns="http://www.w3.org/2000/svg" xmlns:xlink="http://www.w3.org/1999/xlink" x="0px" y="0px"
	 viewBox="0 0 24 24" style="enable-background:new 0 0 24 24;" xml:space="preserve">
<g id="Engagement_1">
</g>
<g id="Engagement_2">
</g>
<g id="Wedding_Ring">
</g>
<g id="Church">
</g>
<g id="Church_Bells">
</g>
<g id="Wedding_Altar_1">
</g>
<g id="Wedding_Altar_2">
</g>
<g id="Bow-Tie">
</g>
<g id="Wedding_Tiara">
</g>
<g id="Wedding_Bouquet">
</g>
<g id="Wedding_Decoration_1">
</g>
<g id="Wedding_Decoration_2">
</g>
<g id="Wedding_Way_Sign">
</g>
<g id="Wedding_Date">
</g>
<g id="Wedding_Invitation">
	<g>
		<path d="M23.46,7.816L23,7.432V9.5c0,0.162-0.079,0.314-0.21,0.408l-8.599,6.102l9.607,7.088c0.02,0.015,0.031,0.036,0.048,0.053
			C23.941,22.953,24,22.734,24,22.5V8.968C24,8.522,23.803,8.102,23.46,7.816z"/>
		<path d="M13.331,15.393L22,9.242V6.599V5.5v-5C22,0.224,21.776,0,21.5,0h-19C2.224,0,2,0.224,2,0.5v5v1.099v2.643l8.669,6.151
			C11.487,14.877,12.515,14.877,13.331,15.393z M14.5,3C16.981,3,19,5.019,19,7.5c0,0.278-0.034,0.548-0.082,0.812
			c-0.019,0.1-0.047,0.197-0.072,0.295c-0.039,0.154-0.086,0.305-0.141,0.453c-0.045,0.118-0.091,0.235-0.145,0.348
			c-0.053,0.112-0.115,0.219-0.177,0.326c-0.07,0.121-0.136,0.245-0.217,0.359l0,0C17.35,11.242,16.015,12,14.5,12
			c-0.191,0-0.38-0.012-0.565-0.035c-0.274-0.034-0.469-0.284-0.435-0.558c0.034-0.274,0.285-0.47,0.558-0.435
			C14.203,10.991,14.351,11,14.5,11c1.398,0,2.598-0.83,3.158-2.017c0.008-0.018,0.019-0.033,0.028-0.051
			c0.084-0.185,0.147-0.38,0.197-0.581c0.01-0.039,0.027-0.076,0.036-0.116C17.97,7.998,18,7.753,18,7.5C18,5.57,16.43,4,14.5,4
			S11,5.57,11,7.5c0,0.46,0.088,0.907,0.261,1.329c0.105,0.255-0.017,0.547-0.272,0.652c-0.254,0.104-0.548-0.017-0.652-0.272
			C10.113,8.666,10,8.091,10,7.5C10,5.019,12.019,3,14.5,3z M5.831,10.088L5.831,10.088C5.752,9.978,5.688,9.857,5.62,9.739
			c-0.064-0.11-0.128-0.22-0.182-0.335C5.385,9.292,5.339,9.177,5.295,9.061C5.24,8.912,5.193,8.76,5.153,8.604
			C5.128,8.507,5.101,8.411,5.082,8.312C5.034,8.048,5,7.778,5,7.5C5,5.019,7.019,3,9.5,3c0.191,0,0.38,0.012,0.565,0.035
			c0.274,0.034,0.469,0.284,0.435,0.558c-0.034,0.275-0.276,0.478-0.558,0.435C9.797,4.009,9.649,4,9.5,4C7.57,4,6,5.57,6,7.5
			c0,0.253,0.03,0.498,0.081,0.735C6.089,8.274,6.106,8.31,6.116,8.348C6.167,8.549,6.229,8.745,6.313,8.93
			C6.321,8.948,6.332,8.963,6.34,8.98c0.2,0.424,0.481,0.798,0.826,1.109l0,0l0,0C7.787,10.649,8.6,11,9.5,11
			c1.399,0,2.599-0.83,3.159-2.019c0.008-0.017,0.019-0.032,0.027-0.049c0.084-0.186,0.147-0.381,0.197-0.582
			c0.01-0.039,0.027-0.075,0.035-0.114C12.97,7.998,13,7.753,13,7.5c0-0.226-0.022-0.448-0.064-0.667l0,0
			c-0.044-0.227-0.109-0.448-0.197-0.663c-0.105-0.255,0.017-0.548,0.272-0.652c0.253-0.106,0.548,0.017,0.652,0.272
			C13.887,6.334,14,6.909,14,7.5c0,0.278-0.034,0.548-0.082,0.812c-0.019,0.1-0.046,0.196-0.072,0.294
			C13.807,8.76,13.76,8.912,13.705,9.06c-0.044,0.117-0.09,0.234-0.144,0.346c-0.054,0.114-0.117,0.221-0.179,0.33
			c-0.07,0.12-0.135,0.242-0.214,0.355l0,0C12.352,11.242,11.015,12,9.5,12C7.984,12,6.646,11.241,5.831,10.088z"/>
		<path d="M1.21,9.908C1.079,9.814,1,9.662,1,9.5V7.433L0.54,7.816C0.197,8.102,0,8.522,0,8.968V22.5
			c0,0.234,0.059,0.453,0.155,0.651c0.017-0.017,0.028-0.039,0.048-0.053l9.607-7.089L1.21,9.908z"/>
		<path d="M11.118,16.287L0.864,23.853C1.057,23.945,1.272,24,1.5,24h21c0.228,0,0.443-0.055,0.636-0.147l-10.257-7.568
			C12.354,15.903,11.645,15.904,11.118,16.287z"/>
	</g>
</g>
<g id="Wedding_Invitation_2">
</g>
<g id="Bride">
</g>
<g id="Groom">
</g>
<g id="Mariage_Couple">
</g>
<g id="Wedding_Planner_Book">
</g>
<g id="Wedding_Cake_1">
</g>
<g id="Wedding_Cake_2">
</g>
<g id="Wedding_Cake_3">
</g>
<g id="Cake_Slice">
</g>
<g id="Marriage_Settlement">
</g>
<g id="Glass_Decoration">
</g>
<g id="Cutlery_Decoration">
</g>
<g id="Celebration_Glasses">
</g>
<g id="Wedding_Photo">
</g>
<g id="Wedding_Present_1">
</g>
<g id="Wedding_Present_2">
</g>
<g id="Wedding_Bouquet_2">
</g>
<g id="Hands_with_rings">
</g>
<g id="Wedding_Car">
</g>
<g id="Wedding_music">
</g>
<g id="wedding_party">
</g>
<g id="Confetti_1">
</g>
<g id="Confetti_2">
</g>
</svg>
