<?xml version="1.0" encoding="iso-8859-1"?>
<!-- Generator: Adobe Illustrator 19.2.1, SVG Export Plug-In . SVG Version: 6.00 Build 0)  -->
<svg version="1.1" xmlns="http://www.w3.org/2000/svg" xmlns:xlink="http://www.w3.org/1999/xlink" x="0px" y="0px"
	 viewBox="0 0 30 30" style="enable-background:new 0 0 30 30;" xml:space="preserve">
<g id="Engagement_1">
</g>
<g id="Engagement_2">
</g>
<g id="Wedding_Ring">
</g>
<g id="Church">
</g>
<g id="Church_Bells">
</g>
<g id="Wedding_Altar_1">
</g>
<g id="Wedding_Altar_2">
</g>
<g id="Bow-Tie">
</g>
<g id="Wedding_Tiara">
</g>
<g id="Wedding_Bouquet">
</g>
<g id="Wedding_Decoration_1">
</g>
<g id="Wedding_Decoration_2">
</g>
<g id="Wedding_Way_Sign">
</g>
<g id="Wedding_Date">
</g>
<g id="Wedding_Invitation">
</g>
<g id="Wedding_Invitation_2">
</g>
<g id="Bride">
</g>
<g id="Groom">
</g>
<g id="Mariage_Couple">
</g>
<g id="Wedding_Planner_Book">
	<g>
		<path d="M13.5,12.863c0.498-0.553,1.36-1.515,1.699-1.929c0.2-0.244,0.301-0.505,0.301-0.778c0-0.578-0.41-1.047-0.913-1.047
			c-0.264,0-0.514,0.132-0.688,0.361c-0.189,0.249-0.607,0.249-0.797,0c-0.174-0.229-0.425-0.361-0.688-0.361
			c-0.503,0-0.913,0.47-0.913,1.047c0,0.272,0.101,0.534,0.301,0.777C12.14,11.348,13.002,12.311,13.5,12.863z"/>
		<path d="M21.305,4H3.051C3.033,4.124,3,4.246,3,4.371v22.607C3,28.616,4.454,30,6.174,30h15.131c0.667,0,1.244-0.226,1.695-0.612
			V5.543C23,4.476,22.478,4,21.305,4z M12.413,8.109c0.395,0,0.771,0.128,1.087,0.362c0.315-0.234,0.692-0.362,1.087-0.362
			c1.055,0,1.913,0.918,1.913,2.047c0,0.502-0.183,0.99-0.527,1.411c-0.503,0.615-2.038,2.306-2.103,2.377
			c-0.095,0.104-0.229,0.164-0.37,0.164s-0.275-0.06-0.37-0.164c-0.065-0.072-1.6-1.763-2.103-2.378
			c-0.345-0.42-0.527-0.908-0.527-1.411C10.5,9.027,11.358,8.109,12.413,8.109z M10.5,24.5C8.019,24.5,6,22.481,6,20
			s2.019-4.5,4.5-4.5c0.276,0,0.5,0.224,0.5,0.5s-0.224,0.5-0.5,0.5C8.57,16.5,7,18.07,7,20s1.57,3.5,3.5,3.5S14,21.93,14,20
			c0-0.276,0.224-0.5,0.5-0.5S15,19.724,15,20C15,22.481,12.981,24.5,10.5,24.5z M16.5,24c-0.276,0-0.5-0.224-0.5-0.5
			s0.224-0.5,0.5-0.5c1.93,0,3.5-1.57,3.5-3.5S18.43,16,16.5,16S13,17.57,13,19.5c0,0.276-0.224,0.5-0.5,0.5S12,19.776,12,19.5
			c0-2.481,2.019-4.5,4.5-4.5s4.5,2.019,4.5,4.5S18.981,24,16.5,24z"/>
		<path d="M23.826,0H8.198c-0.605,0-1.23,0.185-1.711,0.505L4.422,1.857C3.974,2.155,3.616,2.554,3.37,3h17.935
			C23.018,3,24,3.927,24,5.543v21.981c0.032-0.015,0.064-0.03,0.093-0.052c1.595-0.1,2.907-1.44,2.907-3.017V3.022
			C27,1.384,25.547,0,23.826,0z"/>
	</g>
</g>
<g id="Wedding_Cake_1">
</g>
<g id="Wedding_Cake_2">
</g>
<g id="Wedding_Cake_3">
</g>
<g id="Cake_Slice">
</g>
<g id="Marriage_Settlement">
</g>
<g id="Glass_Decoration">
</g>
<g id="Cutlery_Decoration">
</g>
<g id="Celebration_Glasses">
</g>
<g id="Wedding_Photo">
</g>
<g id="Wedding_Present_1">
</g>
<g id="Wedding_Present_2">
</g>
<g id="Wedding_Bouquet_2">
</g>
<g id="Hands_with_rings">
</g>
<g id="Wedding_Car">
</g>
<g id="Wedding_music">
</g>
<g id="wedding_party">
</g>
<g id="Confetti_1">
</g>
<g id="Confetti_2">
</g>
</svg>
