<?xml version="1.0" encoding="iso-8859-1"?>
<!-- Generator: Adobe Illustrator 19.2.1, SVG Export Plug-In . SVG Version: 6.00 Build 0)  -->
<svg version="1.1" xmlns="http://www.w3.org/2000/svg" xmlns:xlink="http://www.w3.org/1999/xlink" x="0px" y="0px"
	 viewBox="0 0 30 30" style="enable-background:new 0 0 30 30;" xml:space="preserve">
<g id="Flag">
</g>
<g id="Umbrella">
</g>
<g id="Briefcase">
</g>
<g id="Box">
</g>
<g id="Magnet">
</g>
<g id="Percent">
</g>
<g id="Rocket">
</g>
<g id="Share">
</g>
<g id="Transmitter">
</g>
<g id="Record_2">
</g>
<g id="Record_1">
</g>
<g id="Anchor">
</g>
<g id="Airplane">
</g>
<g id="Car">
</g>
<g id="Newsfeed">
</g>
<g id="Wifi_Tethering">
	<g>
		<g>
			<path d="M6.814,27.454c-0.098,0-0.196-0.028-0.282-0.087C2.441,24.563,0,19.94,0,15C0,6.729,6.729,0,15,0s15,6.729,15,15
				c0,4.938-2.44,9.56-6.528,12.364c-0.229,0.157-0.539,0.1-0.695-0.129c-0.156-0.228-0.099-0.539,0.129-0.695
				C26.722,23.922,29,19.608,29,15c0-7.72-6.28-14-14-14S1,7.28,1,15c0,4.61,2.279,8.925,6.097,11.542
				c0.229,0.156,0.286,0.467,0.13,0.695C7.13,27.378,6.974,27.454,6.814,27.454z"/>
		</g>
		<g>
			<path d="M9.072,24.156c-0.098,0-0.196-0.028-0.282-0.087C5.79,22.013,4,18.623,4,15C4,8.935,8.935,4,15,4s11,4.935,11,11
				c0,3.622-1.79,7.012-4.788,9.068c-0.228,0.156-0.539,0.1-0.695-0.13c-0.156-0.228-0.099-0.539,0.129-0.695
				C23.372,21.374,25,18.292,25,15c0-5.514-4.486-10-10-10S5,9.486,5,15c0,3.293,1.628,6.375,4.354,8.244
				c0.229,0.156,0.286,0.468,0.13,0.695C9.388,24.08,9.231,24.156,9.072,24.156z"/>
		</g>
		<g>
			<path d="M11.331,20.859c-0.098,0-0.196-0.028-0.282-0.087C9.14,19.463,8,17.305,8,15c0-3.86,3.141-7,7-7s7,3.14,7,7
				c0,2.305-1.139,4.462-3.046,5.77c-0.228,0.157-0.539,0.1-0.695-0.129c-0.156-0.228-0.099-0.539,0.129-0.695
				C20.023,18.824,21,16.975,21,15c0-3.309-2.691-6-6-6s-6,2.691-6,6c0,1.976,0.978,3.825,2.614,4.946
				c0.228,0.156,0.285,0.468,0.129,0.695C11.646,20.783,11.49,20.859,11.331,20.859z"/>
		</g>
		<g>
			<path d="M15,17.5c-1.379,0-2.5-1.122-2.5-2.5s1.121-2.5,2.5-2.5s2.5,1.122,2.5,2.5S16.379,17.5,15,17.5z M15,13.5
				c-0.827,0-1.5,0.673-1.5,1.5s0.673,1.5,1.5,1.5s1.5-0.673,1.5-1.5S15.827,13.5,15,13.5z"/>
		</g>
	</g>
</g>
<g id="No_Wifi_Tethering">
</g>
<g id="Bar_Chart_2">
</g>
<g id="Shop">
</g>
<g id="Alarm">
</g>
<g id="Sim_Card">
</g>
<g id="Radar">
</g>
<g id="Hand_2">
</g>
<g id="Palette">
</g>
<g id="Cake">
</g>
<g id="Blende">
</g>
<g id="Feather_Pen">
</g>
<g id="Ticket">
</g>
<g id="Medal">
</g>
<g id="Mouse_Pointer_1">
</g>
<g id="Mouse_Pointer_2">
</g>
<g id="Fingerprint">
</g>
<g id="Earth">
</g>
</svg>
