<?xml version="1.0" encoding="iso-8859-1"?>
<!-- Generator: Adobe Illustrator 19.2.1, SVG Export Plug-In . SVG Version: 6.00 Build 0)  -->
<svg version="1.1" xmlns="http://www.w3.org/2000/svg" xmlns:xlink="http://www.w3.org/1999/xlink" x="0px" y="0px"
	 viewBox="0 0 30 30" style="enable-background:new 0 0 30 30;" xml:space="preserve">
<g id="Add_Users">
</g>
<g id="Remove_Users">
</g>
<g id="Delete_Users">
</g>
<g id="Done_3">
</g>
<g id="At_Symbol_3">
</g>
<g id="Question_3">
</g>
<g id="Answer_3">
</g>
<g id="Bring_Up_3">
</g>
<g id="Bring_Down_3">
</g>
<g id="Dismiss_Users">
</g>
<g id="Users_Speed_3">
</g>
<g id="Users_Settings">
</g>
<g id="Refresh_Users">
</g>
<g id="Time_3">
</g>
<g id="Dollar_3">
</g>
<g id="Euro_3">
</g>
<g id="Pound_3">
</g>
<g id="Bitcoin_3">
</g>
<g id="Global_Users">
</g>
<g id="Waiting_Users">
</g>
<g id="Writing_Users">
</g>
<g id="Search_Users">
</g>
<g id="Lock_Users">
</g>
<g id="Mark_Users">
</g>
<g id="Share_Users">
</g>
<g id="Shopping_3">
</g>
<g id="Download_3">
</g>
<g id="Upload_3">
</g>
<g id="Users_Statistics">
</g>
<g id="Users_Defense">
</g>
<g id="Car_3">
</g>
<g id="Home_3">
</g>
<g id="Park_3">
</g>
<g id="Recicle_Users">
</g>
<g id="Wifi_3">
	<g>
		<g>
			<path d="M22.333,26.753c-0.128,0-0.257-0.05-0.355-0.147c-0.194-0.196-0.193-0.513,0.003-0.708c1.205-1.193,3.166-1.193,4.371,0
				c0.196,0.194,0.197,0.512,0.003,0.707c-0.194,0.196-0.51,0.198-0.707,0.004c-0.816-0.811-2.146-0.811-2.962,0
				C22.588,26.705,22.461,26.753,22.333,26.753z"/>
		</g>
		<g>
			<path d="M27.667,25.078c-0.127,0-0.254-0.048-0.352-0.146c-1.828-1.813-4.801-1.813-6.629,0
				c-0.196,0.196-0.513,0.192-0.707-0.002c-0.194-0.196-0.193-0.513,0.003-0.707c2.216-2.199,5.821-2.199,8.037,0
				c0.196,0.194,0.197,0.511,0.003,0.707C27.924,25.028,27.795,25.078,27.667,25.078z"/>
		</g>
		<g>
			<path d="M29.5,23.26c-0.127,0-0.254-0.048-0.352-0.145c-2.839-2.816-7.457-2.816-10.296,0c-0.196,0.194-0.513,0.191-0.707-0.003
				c-0.194-0.196-0.193-0.513,0.003-0.708c3.227-3.199,8.478-3.199,11.704,0c0.196,0.195,0.197,0.512,0.003,0.708
				C29.757,23.21,29.628,23.26,29.5,23.26z"/>
		</g>
		<g>
			<g>
				<path d="M27,18.176c-0.099,0-0.199-0.029-0.287-0.091c-0.432-0.303-0.895-0.517-1.376-0.637l-3.764-0.941
					c-0.179-0.045-0.319-0.185-0.363-0.364l-0.429-1.715c-0.045-0.18,0.013-0.369,0.151-0.493c0.96-0.861,1.595-2.144,1.696-3.431
					c0.021-0.261,0.238-0.461,0.499-0.461c0.006-0.001,0.039-0.009,0.073-0.013c0.276-0.036,0.524,0.16,0.558,0.434
					c0.021,0.172-0.046,0.334-0.167,0.439c-0.181,1.325-0.823,2.621-1.769,3.565l0.285,1.141l3.473,0.868
					c0.6,0.149,1.174,0.415,1.708,0.789c0.226,0.158,0.281,0.47,0.123,0.696C27.313,18.102,27.158,18.176,27,18.176z"/>
			</g>
			<g>
				<path d="M23.262,11.026c-0.254,0-0.471-0.192-0.497-0.45c-0.027-0.274,0.173-0.52,0.448-0.547
					c0.194-0.02,0.346-0.162,0.369-0.348l0.229-1.826c0.015-0.117-0.021-0.231-0.098-0.32c-0.079-0.09-0.188-0.141-0.307-0.142
					c-0.136-0.002-0.265-0.059-0.358-0.157s-0.142-0.231-0.136-0.367l0.111-2.285c0.006-0.124,0.058-0.241,0.146-0.329l0.457-0.456
					c0.291-0.311,0.521-0.761-0.065-1.656C23.063,1.385,22.169,1,20.902,1c-0.664,0-1.538,0.053-2.402,0.462
					c-0.25,0.117-0.548,0.011-0.666-0.238c-0.118-0.25-0.011-0.548,0.238-0.666C19.117,0.063,20.133,0,20.902,0
					c1.626,0,2.802,0.537,3.495,1.595c0.905,1.385,0.471,2.341-0.054,2.899l-0.332,0.331l-0.081,1.671
					c0.204,0.083,0.387,0.212,0.535,0.381c0.264,0.302,0.387,0.704,0.337,1.103l-0.229,1.827c-0.082,0.65-0.6,1.15-1.262,1.217
					C23.296,11.025,23.279,11.026,23.262,11.026z"/>
			</g>
			<g>
				<path d="M28.601,20.146c-0.193,0-0.377-0.112-0.459-0.301c-0.309-0.713-0.802-1.321-1.428-1.76
					c-0.226-0.158-0.281-0.47-0.122-0.696c0.158-0.226,0.469-0.282,0.696-0.122c0.777,0.544,1.389,1.299,1.771,2.18
					c0.109,0.254-0.007,0.548-0.26,0.658C28.735,20.133,28.667,20.146,28.601,20.146z"/>
			</g>
		</g>
		<g>
			<path d="M0.5,21.998c-0.276,0-0.5-0.224-0.5-0.5c0-2.38,1.612-4.444,3.92-5.021l3.472-0.868l0.306-1.223
				c-0.872-0.909-1.475-2.13-1.669-3.376c-0.575-0.125-1.027-0.601-1.103-1.204L4.697,7.98c-0.05-0.402,0.075-0.808,0.343-1.111
				c0.163-0.185,0.371-0.321,0.599-0.4c-0.065-0.562-0.161-1.457-0.161-1.86c0-1.782,0.533-3.608,4.449-3.692
				C11.298,0,12.764,0,13.402,0c1.626,0,2.802,0.537,3.495,1.595c0.905,1.385,0.471,2.341-0.054,2.899l-0.332,0.331l-0.081,1.671
				c0.204,0.083,0.387,0.212,0.535,0.381c0.264,0.302,0.387,0.704,0.337,1.103l-0.229,1.827c-0.071,0.564-0.472,1.019-0.994,1.176
				c-0.195,1.298-0.831,2.561-1.757,3.486l0.285,1.141l3.473,0.868c1.305,0.326,2.419,1.146,3.137,2.311
				c0.145,0.235,0.072,0.543-0.163,0.688c-0.236,0.143-0.543,0.072-0.688-0.163c-0.581-0.94-1.479-1.604-2.529-1.865l-3.764-0.941
				c-0.179-0.045-0.319-0.185-0.363-0.364l-0.429-1.715c-0.045-0.18,0.013-0.369,0.151-0.493c0.96-0.861,1.595-2.144,1.696-3.431
				c0.021-0.261,0.238-0.461,0.499-0.461c0.252,0,0.429-0.155,0.455-0.361l0.229-1.826c0.015-0.117-0.021-0.231-0.098-0.32
				c-0.079-0.09-0.188-0.141-0.307-0.142c-0.136-0.002-0.265-0.059-0.358-0.157s-0.142-0.231-0.136-0.367l0.111-2.285
				c0.006-0.124,0.058-0.241,0.146-0.329l0.457-0.456c0.291-0.311,0.521-0.761-0.065-1.656C15.563,1.385,14.669,1,13.402,1
				c-0.929,0-2.014,0.098-3.024,0.819c-0.083,0.061-0.184,0.093-0.286,0.094C6.755,1.946,6.479,3.207,6.479,4.608
				c0,0.444,0.153,1.754,0.211,2.221c0.018,0.143-0.026,0.285-0.121,0.394C6.474,7.33,6.337,7.392,6.194,7.392
				c-0.214,0-0.324,0.05-0.404,0.14S5.675,7.736,5.689,7.856l0.229,1.825c0.026,0.206,0.202,0.361,0.41,0.361h0.148
				c0.261,0,0.478,0.2,0.499,0.46c0.1,1.249,0.705,2.506,1.62,3.364c0.132,0.124,0.187,0.31,0.143,0.485l-0.448,1.79
				c-0.044,0.18-0.185,0.319-0.363,0.364l-3.763,0.941C2.3,17.913,1,19.578,1,21.498C1,21.774,0.776,21.998,0.5,21.998z"/>
		</g>
		<g>
			<path d="M24,30c-0.551,0-1-0.448-1-1s0.449-1,1-1s1,0.448,1,1S24.551,30,24,30z M24,28.999C24,28.999,24,29,24,28.999L24.5,29
				L24,28.999z"/>
		</g>
	</g>
</g>
<g id="Attach_3">
</g>
<g id="Disabled_Users">
</g>
<g id="Users_Card">
</g>
<g id="Gaming_3">
</g>
<g id="Cloud_3">
</g>
<g id="Database_3">
</g>
<g id="Copyright_3">
</g>
<g id="No_Copzright_3">
</g>
<g id="Creative_Commun_3">
</g>
<g id="Eco-Friendly_3">
</g>
<g id="Percentage_3">
</g>
<g id="Users_Love">
</g>
<g id="Users_Place">
</g>
<g id="Users_Key">
</g>
<g id="Sleeping_3">
</g>
</svg>
