<?xml version="1.0" encoding="iso-8859-1"?>
<!-- Generator: Adobe Illustrator 19.2.1, SVG Export Plug-In . SVG Version: 6.00 Build 0)  -->
<svg version="1.1" xmlns="http://www.w3.org/2000/svg" xmlns:xlink="http://www.w3.org/1999/xlink" x="0px" y="0px"
	 viewBox="0 0 24 24" style="enable-background:new 0 0 24 24;" xml:space="preserve">
<g id="Add_User">
</g>
<g id="Remove_User">
</g>
<g id="Delete_User">
</g>
<g id="Done">
</g>
<g id="At_Symbol">
</g>
<g id="Question">
</g>
<g id="Answer">
</g>
<g id="Bring_Up">
</g>
<g id="Bring_Down">
</g>
<g id="Dismiss_User">
</g>
<g id="User_Speed">
</g>
<g id="User_Settings">
</g>
<g id="User_Refresh">
</g>
<g id="User_Time">
</g>
<g id="Dollar">
</g>
<g id="Euro">
</g>
<g id="Pound">
</g>
<g id="Bitcoin">
</g>
<g id="Global_User">
</g>
<g id="Waiting_User">
</g>
<g id="Writing_User_2">
</g>
<g id="Search_User">
</g>
<g id="Lock_User">
</g>
<g id="Mark_User">
</g>
<g id="Share_User">
</g>
<g id="Shopping">
</g>
<g id="User_Download">
</g>
<g id="User_Upload">
</g>
<g id="User_Statistics">
</g>
<g id="User_Defense">
</g>
<g id="User_Car">
</g>
<g id="User_Home">
</g>
<g id="Park">
</g>
<g id="Recicle_User">
</g>
<g id="Wifi">
	<g>
		<path d="M17.361,20.732c-0.195,0.195-0.195,0.512,0,0.707c0.195,0.195,0.512,0.195,0.707,0c0.566-0.566,1.555-0.566,2.121,0
			c0.098,0.098,0.226,0.146,0.354,0.146s0.256-0.049,0.354-0.146c0.195-0.195,0.195-0.512,0-0.707
			C19.953,19.788,18.304,19.788,17.361,20.732z"/>
		<path d="M15.947,19.318c-0.195,0.195-0.195,0.512,0,0.707s0.512,0.195,0.707,0c1.364-1.364,3.586-1.364,4.95,0
			c0.098,0.098,0.226,0.146,0.354,0.146s0.256-0.049,0.354-0.146c0.195-0.195,0.195-0.512,0-0.707
			C20.556,17.564,17.701,17.564,15.947,19.318z"/>
		<path d="M23.725,17.904c-2.534-2.534-6.658-2.534-9.192,0c-0.195,0.195-0.195,0.512,0,0.707s0.512,0.195,0.707,0
			c2.145-2.145,5.634-2.145,7.778,0c0.098,0.098,0.226,0.146,0.354,0.146s0.256-0.049,0.354-0.146
			C23.92,18.416,23.92,18.099,23.725,17.904z"/>
		<path d="M17.149,22.822c0.017-0.187-0.072-0.368-0.231-0.468c-0.104-0.066-0.19-0.133-0.264-0.207
			c-0.183-0.183-0.311-0.411-0.381-0.678c-0.046-0.174-0.182-0.311-0.356-0.356c-0.267-0.07-0.495-0.199-0.677-0.381
			c-0.182-0.182-0.31-0.41-0.381-0.677c-0.046-0.174-0.182-0.31-0.355-0.355c-0.267-0.071-0.495-0.199-0.677-0.381
			c-0.283-0.283-0.439-0.66-0.439-1.061s0.156-0.777,0.439-1.061c0.212-0.212,0.453-0.419,0.759-0.653
			c0.158-0.122,0.23-0.325,0.181-0.519l-0.083-0.331c0.877-0.906,1.506-2.102,1.771-3.343c0.091-0.075,0.156-0.182,0.176-0.306
			c0.006-0.034,0.011-0.067,0.016-0.1c0.571-0.158,1.013-0.647,1.089-1.26l0.25-2c0.053-0.422-0.077-0.849-0.357-1.169
			c-0.164-0.188-0.371-0.33-0.6-0.417l0.092-1.883l0.374-0.375c0.563-0.599,1.03-1.626,0.054-3.116C16.797,0.581,15.523,0,13.759,0
			c-0.696,0-2.298,0-3.79,1.002C5.708,1.091,5.129,3.07,5.129,5c0,0.449,0.109,1.46,0.181,2.07c-0.257,0.081-0.49,0.231-0.672,0.438
			C4.352,7.83,4.22,8.259,4.273,8.686l0.25,2c0.082,0.652,0.577,1.165,1.203,1.287c0.207,1.375,0.873,2.724,1.839,3.722
			l-0.348,1.393l-3.83,0.958c-2.192,0.548-3.258,2.332-3.258,5.455c0,0.133,0.053,0.26,0.146,0.354S0.496,24,0.629,24l10.495-0.001
			l5.556,0c0.15,0,0.292-0.067,0.388-0.184c0.095-0.116,0.132-0.27,0.102-0.417c-0.027-0.131-0.041-0.265-0.032-0.476
			C17.138,22.917,17.148,22.829,17.149,22.822z"/>
		<circle cx="19.129" cy="23" r="1"/>
	</g>
</g>
<g id="Attach_User">
</g>
<g id="Disabled_User">
</g>
<g id="User_Card">
</g>
<g id="Gaming">
</g>
<g id="User_Cloud">
</g>
<g id="User_Database">
</g>
<g id="Copyright">
</g>
<g id="No_Copyright">
</g>
<g id="Creative_Commun">
</g>
<g id="Eco-Friendly">
</g>
<g id="Percentage">
</g>
<g id="User_Love">
</g>
<g id="User_Place">
</g>
<g id="User_Key">
</g>
<g id="Sleeping">
</g>
<g id="Add_User_2">
</g>
<g id="Remove_User_2">
</g>
<g id="Delete_User_2">
</g>
<g id="Done_2">
</g>
<g id="At_Symbol_2">
</g>
<g id="Question_2">
</g>
<g id="Answer_2">
</g>
<g id="Bring_Up_2">
</g>
<g id="Bring_Down_2">
</g>
<g id="Dismiss_User_2">
</g>
<g id="User_Speed_2">
</g>
<g id="User_Settings_2">
</g>
<g id="Refresh_2">
</g>
<g id="Time_2">
</g>
<g id="Dollar_2">
</g>
<g id="Euro_2">
</g>
<g id="Pound_2">
</g>
<g id="Bitcoin_2">
</g>
<g id="Global_User_2">
</g>
<g id="Waiting_User_2">
</g>
<g id="Writing_User">
</g>
<g id="Search_User_2">
</g>
<g id="Lock_User_2">
</g>
<g id="Mark_User_2">
</g>
<g id="Share_User_2">
</g>
<g id="Shopping_2">
</g>
<g id="Download_2">
</g>
<g id="Upload_2">
</g>
<g id="User_Statistics_2">
</g>
<g id="User_Defense_2">
</g>
<g id="Car_2">
</g>
<g id="Home_2">
</g>
<g id="Park_2">
</g>
<g id="Recicle_User_2">
</g>
<g id="User_Wifi">
</g>
<g id="Attach_2">
</g>
<g id="Disabled_User_2">
</g>
<g id="User_Card_2">
</g>
<g id="Gaming_2">
</g>
<g id="Cloud_2">
</g>
<g id="Database_2">
</g>
<g id="Copyright_2">
</g>
<g id="No_Copyright_2">
</g>
<g id="Creative_Commun_2">
</g>
<g id="Eco-Friendly_2">
</g>
<g id="Percentage_2">
</g>
<g id="User_Love_2">
</g>
<g id="User_Rate_2">
</g>
<g id="User_Key_2">
</g>
<g id="Sleeping_2">
</g>
</svg>
