<?xml version="1.0" encoding="iso-8859-1"?>
<!-- Generator: Adobe Illustrator 19.2.1, SVG Export Plug-In . SVG Version: 6.00 Build 0)  -->
<svg version="1.1" xmlns="http://www.w3.org/2000/svg" xmlns:xlink="http://www.w3.org/1999/xlink" x="0px" y="0px"
	 viewBox="0 0 30 30" style="enable-background:new 0 0 30 30;" xml:space="preserve">
<g id="Flag">
</g>
<g id="Umbrella">
</g>
<g id="Briefcase">
</g>
<g id="Box">
</g>
<g id="Magnet">
</g>
<g id="Percent">
</g>
<g id="Rocket">
</g>
<g id="Share">
</g>
<g id="Transmitter">
</g>
<g id="Record_2">
</g>
<g id="Record_1">
</g>
<g id="Anchor">
</g>
<g id="Airplane">
</g>
<g id="Car">
</g>
<g id="Newsfeed">
</g>
<g id="Wifi_Tethering">
	<g>
		<path d="M15,0C6.729,0,0,6.729,0,15c0,4.94,2.442,9.563,6.532,12.366c0.086,0.06,0.185,0.088,0.282,0.088
			c0.159,0,0.316-0.076,0.413-0.218c0.156-0.228,0.098-0.538-0.13-0.694C3.279,23.925,1,19.61,1,15C1,7.28,7.28,1,15,1
			s14,6.28,14,14c0,4.607-2.278,8.922-6.095,11.54c-0.228,0.156-0.285,0.467-0.129,0.695c0.156,0.228,0.467,0.286,0.695,0.129
			C27.56,24.56,30,19.938,30,15C30,6.729,23.271,0,15,0z"/>
		<path d="M26,15c0-6.065-4.935-11-11-11S4,8.935,4,15c0,3.623,1.791,7.013,4.79,9.068c0.086,0.06,0.185,0.088,0.282,0.088
			c0.159,0,0.316-0.076,0.413-0.218c0.156-0.228,0.098-0.538-0.13-0.694C6.628,21.375,5,18.293,5,15C5,9.486,9.486,5,15,5
			c5.514,0,10,4.486,10,10c0,3.291-1.628,6.373-4.354,8.243c-0.228,0.156-0.285,0.467-0.129,0.695
			c0.157,0.228,0.468,0.286,0.695,0.129C24.21,22.011,26,18.621,26,15z"/>
		<path d="M15,8c-3.86,0-7,3.14-7,7c0,2.306,1.14,4.463,3.048,5.771c0.086,0.06,0.185,0.088,0.282,0.088
			c0.159,0,0.316-0.076,0.413-0.218c0.156-0.228,0.098-0.539-0.13-0.694C9.977,18.825,9,16.976,9,15c0-3.309,2.691-6,6-6
			s6,2.691,6,6c0,1.976-0.977,3.824-2.611,4.945c-0.229,0.156-0.286,0.467-0.13,0.694c0.156,0.229,0.47,0.287,0.694,0.13
			C20.861,19.463,22,17.306,22,15C22,11.14,18.859,8,15,8z"/>
		<circle cx="15" cy="15" r="2.5"/>
	</g>
</g>
<g id="No_Wifi_Tethering">
</g>
<g id="Bar_Chart_2">
</g>
<g id="Shop">
</g>
<g id="Alarm">
</g>
<g id="Sim_Card">
</g>
<g id="Radar">
</g>
<g id="Hand_2">
</g>
<g id="Palette">
</g>
<g id="Cake">
</g>
<g id="Blende">
</g>
<g id="Feather_Pen">
</g>
<g id="Ticket">
</g>
<g id="Medal">
</g>
<g id="Mouse_Pointer_1">
</g>
<g id="Mouse_Pointer_2">
</g>
<g id="Fingerprint">
</g>
<g id="Earth">
</g>
</svg>
