<?xml version="1.0" encoding="iso-8859-1"?>
<!-- Generator: Adobe Illustrator 19.2.1, SVG Export Plug-In . SVG Version: 6.00 Build 0)  -->
<svg version="1.1" xmlns="http://www.w3.org/2000/svg" xmlns:xlink="http://www.w3.org/1999/xlink" x="0px" y="0px"
	 viewBox="0 0 30 30" style="enable-background:new 0 0 30 30;" xml:space="preserve">
<g id="Event">
</g>
<g id="Event_2">
</g>
<g id="Add_Event">
</g>
<g id="Remove_Event">
</g>
<g id="Event_Reminder">
</g>
<g id="Wine_Glass">
	<g>
		<g>
			<path d="M14.5,27c-0.276,0-0.5-0.224-0.5-0.5v-8c0-0.276,0.224-0.5,0.5-0.5s0.5,0.224,0.5,0.5v8C15,26.776,14.776,27,14.5,27z"/>
		</g>
		<g>
			<path d="M19.5,30h-10C9.224,30,9,29.776,9,29.5c0-1.962,2.416-3.5,5.5-3.5s5.5,1.538,5.5,3.5C20,29.776,19.776,30,19.5,30z
				 M10.095,29h8.811c-0.431-1.125-2.273-2-4.405-2S10.525,27.875,10.095,29z"/>
		</g>
		<g>
			<path d="M18,11h-6.75c-0.276,0-0.5-0.224-0.5-0.5s0.224-0.5,0.5-0.5H18c0.276,0,0.5,0.224,0.5,0.5S18.276,11,18,11z"/>
		</g>
		<g>
			<path d="M14.5,19c-2.355,0-4.5-2.145-4.5-4.5c0-2.068,0.961-13.554,1.002-14.042C11.023,0.199,11.24,0,11.5,0h6
				c0.26,0,0.477,0.199,0.498,0.458C18.039,0.946,19,12.432,19,14.5C19,16.855,16.855,19,14.5,19z M11.96,1
				C11.777,3.208,11,12.702,11,14.5c0,1.799,1.701,3.5,3.5,3.5s3.5-1.701,3.5-3.5c0-1.798-0.777-11.292-0.96-13.5H11.96z"/>
		</g>
	</g>
</g>
<g id="Toast">
</g>
<g id="Champagne">
</g>
<g id="Champagne_Open">
</g>
<g id="Alcohol_Drink">
</g>
<g id="Beer_Glass">
</g>
<g id="Party_Cake">
</g>
<g id="Pizza_Food">
</g>
<g id="Disco_Ball">
</g>
<g id="Equalizer">
</g>
<g id="DJ">
</g>
<g id="Tent">
</g>
<g id="Firework_1">
</g>
<g id="Firework_2">
</g>
<g id="Party_Glasses">
</g>
<g id="Barbeque">
</g>
<g id="Horn">
</g>
<g id="Speaker">
</g>
<g id="VIP">
</g>
<g id="Event_Ticket">
</g>
<g id="VIP_Ticket">
</g>
<g id="Popcorn">
</g>
<g id="Cord">
</g>
<g id="Invitation_1">
</g>
<g id="Invitation_2">
</g>
</svg>
