<?xml version="1.0" encoding="iso-8859-1"?>
<!-- Generator: Adobe Illustrator 19.2.1, SVG Export Plug-In . SVG Version: 6.00 Build 0)  -->
<svg version="1.1" xmlns="http://www.w3.org/2000/svg" xmlns:xlink="http://www.w3.org/1999/xlink" x="0px" y="0px"
	 viewBox="0 0 30 30" style="enable-background:new 0 0 30 30;" xml:space="preserve">
<g id="Restaurant_sign_1">
</g>
<g id="Restaurant_Sign_2">
</g>
<g id="Restaurant_Sign_3">
</g>
<g id="Hot_Drink_1">
</g>
<g id="Hot_Drink_2">
</g>
<g id="Cocktail">
</g>
<g id="Shot_Glasses">
</g>
<g id="Chilled_Champagne">
</g>
<g id="Wine">
</g>
<g id="Wine_List">
	<g>
		<g id="XMLID_175_">
			<path d="M27.5,30h-24C3.224,30,3,29.776,3,29.5v-29C3,0.224,3.224,0,3.5,0h24C27.776,0,28,0.224,28,0.5v29
				C28,29.776,27.776,30,27.5,30z M4,29h23V1H4V29z"/>
		</g>
		<g id="XMLID_176_">
			<path d="M15.5,8C13.503,8,12,5.877,12,4.5C12,4.224,12.224,4,12.5,4h6C18.776,4,19,4.224,19,4.5C19,5.877,17.497,8,15.5,8z
				 M13.085,5c0.288,0.918,1.277,2,2.415,2s2.127-1.082,2.415-2H13.085z"/>
		</g>
		<g id="XMLID_179_">
			<path d="M15.5,10C15.224,10,15,9.776,15,9.5v-2C15,7.224,15.224,7,15.5,7S16,7.224,16,7.5v2C16,9.776,15.776,10,15.5,10z"/>
		</g>
		<g id="XMLID_180_">
			<path d="M17,10h-3c-0.276,0-0.5-0.224-0.5-0.5S13.724,9,14,9h3c0.276,0,0.5,0.224,0.5,0.5S17.276,10,17,10z"/>
		</g>
		<g id="XMLID_181_">
			<path d="M16.5,15h-8C8.224,15,8,14.776,8,14.5S8.224,14,8.5,14h8c0.276,0,0.5,0.224,0.5,0.5S16.776,15,16.5,15z"/>
		</g>
		<g id="XMLID_182_">
			<path d="M22.5,15h-1c-0.276,0-0.5-0.224-0.5-0.5s0.224-0.5,0.5-0.5h1c0.276,0,0.5,0.224,0.5,0.5S22.776,15,22.5,15z"/>
		</g>
		<g id="XMLID_184_">
			<path d="M16.5,19h-8C8.224,19,8,18.776,8,18.5S8.224,18,8.5,18h8c0.276,0,0.5,0.224,0.5,0.5S16.776,19,16.5,19z"/>
		</g>
		<g id="XMLID_183_">
			<path d="M22.5,19h-1c-0.276,0-0.5-0.224-0.5-0.5s0.224-0.5,0.5-0.5h1c0.276,0,0.5,0.224,0.5,0.5S22.776,19,22.5,19z"/>
		</g>
		<g id="XMLID_186_">
			<path d="M16.5,22h-8C8.224,22,8,21.776,8,21.5S8.224,21,8.5,21h8c0.276,0,0.5,0.224,0.5,0.5S16.776,22,16.5,22z"/>
		</g>
		<g id="XMLID_185_">
			<path d="M22.5,22h-1c-0.276,0-0.5-0.224-0.5-0.5s0.224-0.5,0.5-0.5h1c0.276,0,0.5,0.224,0.5,0.5S22.776,22,22.5,22z"/>
		</g>
		<g id="XMLID_188_">
			<path d="M16.5,26h-8C8.224,26,8,25.776,8,25.5S8.224,25,8.5,25h8c0.276,0,0.5,0.224,0.5,0.5S16.776,26,16.5,26z"/>
		</g>
		<g id="XMLID_187_">
			<path d="M22.5,26h-1c-0.276,0-0.5-0.224-0.5-0.5s0.224-0.5,0.5-0.5h1c0.276,0,0.5,0.224,0.5,0.5S22.776,26,22.5,26z"/>
		</g>
	</g>
</g>
<g id="Menu">
</g>
<g id="Menu_2">
</g>
<g id="Salver">
</g>
<g id="Soup">
</g>
<g id="Sushi">
</g>
<g id="Pizza">
</g>
<g id="Pizza_Slice">
</g>
<g id="Fish">
</g>
<g id="Sausage">
</g>
<g id="Course">
</g>
<g id="Dessert">
</g>
<g id="Cutlery">
</g>
<g id="Napkin">
</g>
<g id="Table">
</g>
<g id="Spices">
</g>
<g id="Hot_Sauce">
</g>
<g id="Reserved_1">
</g>
<g id="Reserved_2">
</g>
<g id="Open">
</g>
<g id="Food_Photo">
</g>
<g id="Chef">
</g>
<g id="Bill">
</g>
<g id="Bill_2">
</g>
<g id="Paying_1">
</g>
<g id="Paying_2">
</g>
<g id="Restaurant_Place">
</g>
</svg>
