<?xml version="1.0" encoding="iso-8859-1"?>
<!-- Generator: Adobe Illustrator 19.2.1, SVG Export Plug-In . SVG Version: 6.00 Build 0)  -->
<svg version="1.1" xmlns="http://www.w3.org/2000/svg" xmlns:xlink="http://www.w3.org/1999/xlink" x="0px" y="0px"
	 viewBox="0 0 24 24" style="enable-background:new 0 0 24 24;" xml:space="preserve">
<g id="Event">
</g>
<g id="Event_2">
</g>
<g id="Add_Event">
</g>
<g id="Remove_Event">
</g>
<g id="Event_Reminder">
</g>
<g id="Wine_Glass">
	<path d="M12,21.026v-6.077c1.692-0.245,3-1.691,3-3.449c0-1.664-0.962-10.67-1.003-11.053C13.97,0.193,13.756,0,13.5,0h-4
		C9.244,0,9.03,0.193,9.003,0.447C8.962,0.83,8,9.836,8,11.5c0,1.758,1.308,3.204,3,3.449v6.077C8.692,21.158,7,22.17,7,23.5
		C7,23.776,7.224,24,7.5,24h8c0.276,0,0.5-0.224,0.5-0.5C16,22.17,14.308,21.158,12,21.026z M9.95,1h3.1
		c0.123,1.166,0.459,4.387,0.697,7H9.253C9.491,5.387,9.827,2.166,9.95,1z"/>
</g>
<g id="Toast">
</g>
<g id="Champagne">
</g>
<g id="Champagne_Open">
</g>
<g id="Alcohol_Drink">
</g>
<g id="Beer_Glass">
</g>
<g id="Party_Cake">
</g>
<g id="Pizza_Food">
</g>
<g id="Disco_Ball">
</g>
<g id="Equalizer">
</g>
<g id="DJ">
</g>
<g id="Tent">
</g>
<g id="Firework_1">
</g>
<g id="Firework_2">
</g>
<g id="Party_Glasses">
</g>
<g id="Barbeque">
</g>
<g id="Horn">
</g>
<g id="Speaker">
</g>
<g id="VIP">
</g>
<g id="Event_Ticket">
</g>
<g id="VIP_Ticket">
</g>
<g id="Popcorn">
</g>
<g id="Cord">
</g>
<g id="Invitation_1">
</g>
<g id="Invitation_2">
</g>
</svg>
