<?xml version="1.0" encoding="iso-8859-1"?>
<!-- Generator: Adobe Illustrator 19.2.1, SVG Export Plug-In . SVG Version: 6.00 Build 0)  -->
<svg version="1.1" xmlns="http://www.w3.org/2000/svg" xmlns:xlink="http://www.w3.org/1999/xlink" x="0px" y="0px"
	 viewBox="0 0 30 30" style="enable-background:new 0 0 30 30;" xml:space="preserve">
<g id="Snowflake_1">
</g>
<g id="Snowflake_2">
</g>
<g id="Snowflake_3">
</g>
<g id="Snowflake_4">
</g>
<g id="Winter_Cap_1">
</g>
<g id="Winter_Cap_2">
	<g>
		<g>
			<path d="M22.5,16h-15C6.673,16,6,15.327,6,14.5v-3C6,10.673,6.673,10,7.5,10h15c0.827,0,1.5,0.673,1.5,1.5v3
				C24,15.327,23.327,16,22.5,16z M7.5,11C7.225,11,7,11.224,7,11.5v3C7,14.776,7.225,15,7.5,15h15c0.275,0,0.5-0.224,0.5-0.5v-3
				c0-0.276-0.225-0.5-0.5-0.5H7.5z"/>
		</g>
		<g>
			<path d="M26.337,23.696c-3.637,0-4.788-7.175-4.908-7.993c-0.039-0.273,0.149-0.527,0.423-0.567
				c0.267-0.038,0.526,0.148,0.567,0.422c0.29,1.985,1.561,7.138,3.918,7.138c0.114,0,0.151-0.02,0.151-0.02
				c0.115-0.232-0.277-1.418-0.624-2.465c-0.764-2.308-1.919-5.795-1.919-10.254C23.945,5.021,19.934,1.006,15,1
				c-4.934,0.006-8.945,4.021-8.945,8.957c0,4.402-1.15,7.893-1.911,10.202c-0.332,1.008-0.744,2.26-0.615,2.528
				c0.003-0.007,0.052,0.009,0.135,0.009c2.36,0,3.629-5.152,3.918-7.138c0.041-0.274,0.299-0.466,0.567-0.422
				c0.273,0.04,0.462,0.293,0.423,0.567c-0.12,0.818-1.271,7.993-4.908,7.993c-0.425,0-0.742-0.141-0.943-0.418
				c-0.451-0.624-0.122-1.621,0.475-3.432c0.74-2.249,1.86-5.648,1.86-9.889c0-5.48,4.451-9.941,9.929-9.957
				c0.005-0.001,0.01,0,0.017,0c0.005,0,0.011-0.001,0.017,0c5.478,0.015,9.929,4.476,9.929,9.957c0,4.298,1.124,7.693,1.868,9.94
				c0.59,1.782,0.915,2.763,0.469,3.381C27.082,23.555,26.764,23.696,26.337,23.696z"/>
		</g>
		<g>
			<path d="M25.5,30c-0.276,0-0.5-0.224-0.5-0.5V23c0-0.276,0.224-0.5,0.5-0.5S26,22.724,26,23v6.5C26,29.776,25.776,30,25.5,30z"/>
		</g>
		<g>
			<path d="M4.5,30C4.224,30,4,29.776,4,29.5V23c0-0.276,0.224-0.5,0.5-0.5S5,22.724,5,23v6.5C5,29.776,4.776,30,4.5,30z"/>
		</g>
		<g>
			<path d="M5.5,28h-2C3.224,28,3,27.776,3,27.5S3.224,27,3.5,27h2C5.776,27,6,27.224,6,27.5S5.776,28,5.5,28z"/>
		</g>
		<g>
			<path d="M26.5,28h-2c-0.276,0-0.5-0.224-0.5-0.5s0.224-0.5,0.5-0.5h2c0.276,0,0.5,0.224,0.5,0.5S26.776,28,26.5,28z"/>
		</g>
	</g>
</g>
<g id="Glowes">
</g>
<g id="Sweater_1">
</g>
<g id="Sweater_2">
</g>
<g id="Sweater_3">
</g>
<g id="Scarf">
</g>
<g id="Winter_Socks">
</g>
<g id="Winter_Sock">
</g>
<g id="Winter_Coat">
</g>
<g id="Winter_Calendar">
</g>
<g id="Thermometer_1">
</g>
<g id="Thermometer_2">
</g>
<g id="Cold">
</g>
<g id="Icicle">
</g>
<g id="Snowing">
</g>
<g id="Snow_Shoes_1">
</g>
<g id="Snow_Shoes_2">
</g>
<g id="Sledge">
</g>
<g id="Snow_Boots">
</g>
<g id="Snowcapped_Mountains">
</g>
<g id="Skis">
</g>
<g id="Sky_Glasses">
</g>
<g id="Snowboard">
</g>
<g id="Ice_Skate">
</g>
<g id="Wooden_House">
</g>
<g id="Snowcapped_House">
</g>
<g id="Hot_Drink">
</g>
<g id="Hot_Chocolate">
</g>
<g id="Lantern">
</g>
<g id="Snow_Shovel">
</g>
<g id="Snowman">
</g>
<g id="Reindeer">
</g>
<g id="Snowmobile">
</g>
<g id="Snow_Chain">
</g>
<g id="Slippery_Road">
</g>
</svg>
