<?xml version="1.0" encoding="iso-8859-1"?>
<!-- Generator: Adobe Illustrator 19.2.1, SVG Export Plug-In . SVG Version: 6.00 Build 0)  -->
<svg version="1.1" xmlns="http://www.w3.org/2000/svg" xmlns:xlink="http://www.w3.org/1999/xlink" x="0px" y="0px"
	 viewBox="0 0 30 30" style="enable-background:new 0 0 30 30;" xml:space="preserve">
<g id="Snowflake_1">
</g>
<g id="Snowflake_2">
</g>
<g id="Snowflake_3">
</g>
<g id="Snowflake_4">
</g>
<g id="Winter_Cap_1">
</g>
<g id="Winter_Cap_2">
</g>
<g id="Glowes">
</g>
<g id="Sweater_1">
</g>
<g id="Sweater_2">
</g>
<g id="Sweater_3">
</g>
<g id="Scarf">
</g>
<g id="Winter_Socks">
	<g>
		<path d="M15,5.5C15,4.673,14.327,4,13.5,4h-8C4.673,4,4,4.673,4,5.5v3C4,9.327,4.673,10,5.5,10h8c0.827,0,1.5-0.673,1.5-1.5V5.5z"
			/>
		<path d="M4.32,22.632c-1.08-1.08-2.297-1.882-3.428-2.258L0.75,20.327C0.326,20.86,0,21.525,0,22.5
			c0,0.028,0.002,0.057,0.007,0.083C0.051,24.946,1.938,27,4.109,27c0.915,0,1.793-0.313,2.501-0.846l-0.034-0.102
			C6.199,24.925,5.398,23.71,4.32,22.632z"/>
		<path d="M5,15.891c0,0.168-0.031,0.258-0.198,0.426l-3.308,3.227c1.191,0.455,2.434,1.28,3.534,2.381
			c1.097,1.097,1.92,2.335,2.376,3.522l3.245-3.186l-0.11-0.11c-0.852-0.85-1.321-1.98-1.321-3.184c0-2.481,2.019-4.5,4.5-4.5H14V11
			H5V15.891z"/>
		<path d="M10.217,18.967c0,0.936,0.365,1.815,1.027,2.477l0.117,0.117l1.185-1.164C13.09,19.854,14,18.738,14,17.368v-1.901h-0.283
			C11.788,15.467,10.217,17.037,10.217,18.967z"/>
		<path d="M28.5,4h-8C19.673,4,19,4.673,19,5.5v3c0,0.827,0.673,1.5,1.5,1.5h8c0.827,0,1.5-0.673,1.5-1.5v-3
			C30,4.673,29.327,4,28.5,4z"/>
		<path d="M19.32,22.632c-1.08-1.08-2.297-1.882-3.428-2.258l-0.142-0.047C15.326,20.86,15,21.525,15,22.5
			c0,0.028,0.002,0.057,0.007,0.083C15.051,24.946,16.938,27,19.109,27c0.915,0,1.793-0.313,2.501-0.846l-0.034-0.102
			C21.199,24.925,20.398,23.71,19.32,22.632z"/>
		<path d="M20,15.891c0,0.168-0.031,0.258-0.198,0.426l-3.308,3.227c1.191,0.455,2.434,1.28,3.534,2.381
			c1.097,1.097,1.92,2.335,2.376,3.522l3.245-3.186l-0.11-0.11c-0.852-0.85-1.321-1.98-1.321-3.184c0-2.481,2.019-4.5,4.5-4.5H29V11
			h-9V15.891z"/>
		<path d="M25.217,18.967c0,0.936,0.365,1.815,1.027,2.477l0.117,0.117l1.185-1.164C28.09,19.854,29,18.738,29,17.368v-1.901h-0.283
			C26.788,15.467,25.217,17.037,25.217,18.967z"/>
	</g>
</g>
<g id="Winter_Sock">
</g>
<g id="Winter_Coat">
</g>
<g id="Winter_Calendar">
</g>
<g id="Thermometer_1">
</g>
<g id="Thermometer_2">
</g>
<g id="Cold">
</g>
<g id="Icicle">
</g>
<g id="Snowing">
</g>
<g id="Snow_Shoes_1">
</g>
<g id="Snow_Shoes_2">
</g>
<g id="Sledge">
</g>
<g id="Snow_Boots">
</g>
<g id="Snowcapped_Mountains">
</g>
<g id="Skis">
</g>
<g id="Sky_Glasses">
</g>
<g id="Snowboard">
</g>
<g id="Ice_Skate">
</g>
<g id="Wooden_House">
</g>
<g id="Snowcapped_House">
</g>
<g id="Hot_Drink">
</g>
<g id="Hot_Chocolate">
</g>
<g id="Lantern">
</g>
<g id="Snow_Shovel">
</g>
<g id="Snowman">
</g>
<g id="Reindeer">
</g>
<g id="Snowmobile">
</g>
<g id="Snow_Chain">
</g>
<g id="Slippery_Road">
</g>
</svg>
