<?xml version="1.0" encoding="iso-8859-1"?>
<!-- Generator: Adobe Illustrator 19.2.1, SVG Export Plug-In . SVG Version: 6.00 Build 0)  -->
<svg version="1.1" xmlns="http://www.w3.org/2000/svg" xmlns:xlink="http://www.w3.org/1999/xlink" x="0px" y="0px"
	 viewBox="0 0 24 24" style="enable-background:new 0 0 24 24;" xml:space="preserve">
<g id="Snowflake_1">
</g>
<g id="Snowflake_2">
</g>
<g id="Snowflake_3">
</g>
<g id="Snowflake_4">
</g>
<g id="Winter_Cap_1">
</g>
<g id="Winter_Cap_2">
</g>
<g id="Glowes">
</g>
<g id="Sweater_1">
</g>
<g id="Sweater_2">
</g>
<g id="Sweater_3">
</g>
<g id="Scarf">
</g>
<g id="Winter_Socks">
</g>
<g id="Winter_Sock">
	<g>
		<path d="M17.5,0h-9C7.673,0,7,0.673,7,1.5v2C7,4.327,7.673,5,8.5,5h9C18.327,5,19,4.327,19,3.5v-2C19,0.673,18.327,0,17.5,0z"/>
		<path d="M11.626,14.557C11.985,14.83,12.467,15,13,15c0.533,0,1.015-0.17,1.374-0.443C14.006,14.206,13.519,14,13,14
			C12.482,14,11.995,14.206,11.626,14.557z"/>
		<path d="M13,13c0.727,0,1.417,0.267,1.956,0.731C14.984,13.624,15,13.514,15,13.4c0-0.151-0.035-0.312-0.107-0.49
			c-0.017-0.041-0.028-0.083-0.033-0.126l-0.729-2.092c-0.014-0.021-0.026-0.044-0.037-0.068C13.932,10.25,13.492,10,13,10
			c-0.492,0-0.932,0.25-1.094,0.624c-0.011,0.026-0.024,0.051-0.04,0.074l-0.72,2.073c-0.005,0.042-0.017,0.084-0.034,0.124
			C11.037,13.075,11,13.241,11,13.4c0,0.114,0.016,0.224,0.044,0.331C11.583,13.267,12.273,13,13,13z M12.04,11.31
			c0.02-0.06,0.06-0.12,0.11-0.16c0.04-0.05,0.1-0.09,0.16-0.11c0.12-0.05,0.26-0.05,0.38,0c0.06,0.02,0.12,0.06,0.16,0.11
			c0.05,0.04,0.09,0.1,0.11,0.16C12.99,11.37,13,11.44,13,11.5c0-0.07,0.01-0.13,0.04-0.19c0.02-0.06,0.06-0.12,0.109-0.16
			c0.04-0.05,0.101-0.09,0.16-0.11c0.181-0.08,0.4-0.03,0.54,0.11C13.95,11.24,14,11.37,14,11.5c0,0.06-0.01,0.13-0.04,0.19
			c-0.021,0.06-0.061,0.12-0.11,0.16C13.76,11.95,13.63,12,13.5,12c-0.061,0-0.13-0.01-0.19-0.04c-0.06-0.02-0.12-0.06-0.16-0.11
			C13.05,11.76,13,11.63,13,11.5c0,0.06-0.01,0.13-0.04,0.19c-0.02,0.06-0.06,0.12-0.11,0.16c-0.04,0.05-0.1,0.09-0.16,0.11
			C12.63,11.99,12.56,12,12.5,12c-0.07,0-0.13-0.01-0.19-0.04c-0.06-0.02-0.12-0.06-0.16-0.11C12.05,11.76,12,11.63,12,11.5
			C12,11.43,12.01,11.37,12.04,11.31z"/>
		<path d="M4.012,16.348c-0.464,0.602-0.801,1.296-0.935,2.046c-0.583,3.28,2.232,6.102,5.514,5.532
			c0.756-0.131,1.455-0.47,2.06-0.939C9.767,19.768,7.231,17.233,4.012,16.348z"/>
		<path d="M8,12.086c0,0.133-0.053,0.26-0.146,0.353l-3.088,3.087c3.165,1.039,5.668,3.542,6.708,6.707
			c1.421-1.421,4.051-4.051,5.505-5.504C17.634,16.073,18,15.186,18,14.258V6H8V12.086z M10.146,10.854
			c-0.195-0.195-0.195-0.512,0-0.707s0.512-0.195,0.707,0l0.109,0.109c0.02-0.055,0.047-0.105,0.083-0.148
			c0.042-0.08,0.106-0.144,0.158-0.216c-0.265-0.199-0.496-0.436-0.68-0.706c-0.003-0.003-0.007-0.005-0.009-0.008
			c-0.002-0.003-0.002-0.006-0.004-0.009C10.185,8.685,10,8.108,10,7.5C10,7.224,10.224,7,10.5,7S11,7.224,11,7.5
			c0,0.103,0.029,0.199,0.044,0.298C11.122,7.623,11.296,7.5,11.5,7.5C11.776,7.5,12,7.724,12,8c0,0.335-0.137,0.651-0.375,0.93
			c0.119,0.115,0.255,0.209,0.403,0.292C12.324,9.089,12.649,9,13,9c0.351,0,0.676,0.089,0.973,0.223
			c0.147-0.083,0.283-0.178,0.403-0.293C14.137,8.651,14,8.335,14,8c0-0.276,0.224-0.5,0.5-0.5c0.204,0,0.378,0.123,0.456,0.298
			C14.971,7.699,15,7.603,15,7.5C15,7.224,15.224,7,15.5,7S16,7.224,16,7.5c0,0.608-0.186,1.185-0.511,1.669
			c-0.002,0.003-0.002,0.006-0.004,0.008c-0.002,0.004-0.007,0.005-0.009,0.008c-0.184,0.27-0.415,0.506-0.68,0.705
			c0.055,0.077,0.122,0.145,0.165,0.229c0.032,0.04,0.057,0.086,0.076,0.136l0.109-0.109c0.195-0.195,0.512-0.195,0.707,0
			s0.195,0.512,0,0.707l-0.45,0.45l0.436,1.254c0.01,0.029,0.017,0.058,0.021,0.087C15.954,12.904,16,13.152,16,13.4
			c0,0.539-0.191,1.04-0.516,1.456c-0.005,0.007-0.013,0.012-0.018,0.019C14.924,15.553,14.022,16,13,16
			c-1.025,0-1.931-0.449-2.472-1.131c-0.003-0.005-0.009-0.008-0.012-0.013C10.191,14.44,10,13.939,10,13.4
			c0-0.262,0.049-0.522,0.151-0.791c0.004-0.024,0.011-0.049,0.019-0.073l0.428-1.232L10.146,10.854z"/>
	</g>
</g>
<g id="Winter_Coat">
</g>
<g id="Winter_Calendar">
</g>
<g id="Thermometer_1">
</g>
<g id="Thermometer_2">
</g>
<g id="Cold">
</g>
<g id="Icicle">
</g>
<g id="Snowing">
</g>
<g id="Snow_Shoes_1">
</g>
<g id="Snow_Shoes_2">
</g>
<g id="Sledge">
</g>
<g id="Snow_Boots">
</g>
<g id="Snowcapped_Mountains">
</g>
<g id="Skis">
</g>
<g id="Sky_Glasses">
</g>
<g id="Snowboard">
</g>
<g id="Ice_Skate">
</g>
<g id="Wooden_House">
</g>
<g id="Snowcapped_House">
</g>
<g id="Hot_Drink">
</g>
<g id="Hot_Chocolate">
</g>
<g id="Lantern">
</g>
<g id="Snow_Shovel">
</g>
<g id="Snowman">
</g>
<g id="Reindeer">
</g>
<g id="Snowmobile">
</g>
<g id="Snow_Chain">
</g>
<g id="Slippery_Road">
</g>
</svg>
