<?xml version="1.0" encoding="iso-8859-1"?>
<!-- Generator: Adobe Illustrator 19.2.1, SVG Export Plug-In . SVG Version: 6.00 Build 0)  -->
<svg version="1.1" xmlns="http://www.w3.org/2000/svg" xmlns:xlink="http://www.w3.org/1999/xlink" x="0px" y="0px"
	 viewBox="0 0 30 30" style="enable-background:new 0 0 30 30;" xml:space="preserve">
<g id="Snowflake_1">
</g>
<g id="Snowflake_2">
</g>
<g id="Snowflake_3">
</g>
<g id="Snowflake_4">
</g>
<g id="Winter_Cap_1">
</g>
<g id="Winter_Cap_2">
</g>
<g id="Glowes">
</g>
<g id="Sweater_1">
</g>
<g id="Sweater_2">
</g>
<g id="Sweater_3">
</g>
<g id="Scarf">
</g>
<g id="Winter_Socks">
</g>
<g id="Winter_Sock">
</g>
<g id="Winter_Coat">
</g>
<g id="Winter_Calendar">
	<g>
		<path d="M7,6C5.897,6,5,5.103,5,4V2c0-1.103,0.897-2,2-2s2,0.897,2,2v2C9,5.103,8.103,6,7,6z M7,1C6.449,1,6,1.449,6,2v2
			c0,0.551,0.449,1,1,1s1-0.449,1-1V2C8,1.449,7.551,1,7,1z"/>
	</g>
	<g>
		<path d="M22,6c-1.103,0-2-0.897-2-2V2c0-1.103,0.897-2,2-2s2,0.897,2,2v2C24,5.103,23.103,6,22,6z M22,1c-0.551,0-1,0.449-1,1v2
			c0,0.551,0.449,1,1,1s1-0.449,1-1V2C23,1.449,22.551,1,22,1z"/>
	</g>
	<g>
		<path d="M24.68,29H4.32C1.938,29,0,27.062,0,24.68V6.86C0,4.587,1.776,3,4.32,3H5.5C5.776,3,6,3.224,6,3.5S5.776,4,5.5,4H4.32
			C2.667,4,1,4.884,1,6.86v17.82C1,26.511,2.489,28,4.32,28h20.36c1.831,0,3.32-1.489,3.32-3.32V6.86C28,4.884,26.333,4,24.68,4
			H23.5C23.224,4,23,3.776,23,3.5S23.224,3,23.5,3h1.18C27.224,3,29,4.587,29,6.86v17.82C29,27.062,27.062,29,24.68,29z"/>
	</g>
	<g>
		<path d="M20.5,4h-12C8.224,4,8,3.776,8,3.5S8.224,3,8.5,3h12C20.776,3,21,3.224,21,3.5S20.776,4,20.5,4z"/>
	</g>
	<g>
		<path d="M28.5,10h-28C0.224,10,0,9.776,0,9.5S0.224,9,0.5,9h28C28.776,9,29,9.224,29,9.5S28.776,10,28.5,10z"/>
	</g>
	<g>
		<path d="M14.5,25.5c-0.276,0-0.5-0.224-0.5-0.5V13c0-0.276,0.224-0.5,0.5-0.5S15,12.724,15,13v12C15,25.276,14.776,25.5,14.5,25.5
			z"/>
	</g>
	<g>
		<path d="M9.41,22.636c-0.167,0-0.33-0.083-0.424-0.235c-0.146-0.234-0.075-0.543,0.159-0.689l10.182-6.363
			c0.234-0.147,0.543-0.076,0.689,0.159c0.146,0.234,0.075,0.543-0.159,0.689L9.674,22.56C9.592,22.612,9.5,22.636,9.41,22.636z"/>
	</g>
	<g>
		<path d="M19.59,22.636c-0.09,0-0.182-0.024-0.265-0.076L9.144,16.197c-0.234-0.146-0.305-0.455-0.159-0.689
			c0.146-0.235,0.454-0.306,0.689-0.159l10.182,6.363c0.234,0.146,0.305,0.455,0.159,0.689C19.92,22.553,19.757,22.636,19.59,22.636
			z"/>
	</g>
	<g>
		<path d="M14.5,16.273c-0.128,0-0.256-0.049-0.354-0.146l-1.273-1.273c-0.195-0.195-0.195-0.512,0-0.707s0.512-0.195,0.707,0
			l0.919,0.919l0.919-0.919c0.195-0.195,0.512-0.195,0.707,0s0.195,0.512,0,0.707l-1.273,1.273
			C14.756,16.224,14.628,16.273,14.5,16.273z"/>
	</g>
	<g>
		<path d="M15.773,23.909c-0.128,0-0.256-0.049-0.354-0.146L14.5,22.843l-0.919,0.919c-0.195,0.195-0.512,0.195-0.707,0
			s-0.195-0.512,0-0.707l1.273-1.273c0.195-0.195,0.512-0.195,0.707,0l1.273,1.273c0.195,0.195,0.195,0.512,0,0.707
			C16.029,23.86,15.901,23.909,15.773,23.909z"/>
	</g>
	<g>
		<path d="M18.954,18.177c-0.038,0-0.075-0.004-0.113-0.013l-1.753-0.406c-0.129-0.03-0.241-0.11-0.312-0.223
			c-0.07-0.113-0.093-0.249-0.063-0.377l0.407-1.753c0.063-0.269,0.336-0.435,0.6-0.375c0.269,0.063,0.437,0.331,0.375,0.6
			L17.8,16.897l1.266,0.293c0.269,0.063,0.437,0.331,0.375,0.6C19.387,18.021,19.181,18.177,18.954,18.177z"/>
	</g>
	<g>
		<path d="M11.394,22.892c-0.038,0-0.076-0.004-0.113-0.013c-0.269-0.063-0.437-0.331-0.375-0.6l0.294-1.267l-1.266-0.293
			c-0.269-0.063-0.437-0.331-0.375-0.6c0.063-0.269,0.331-0.436,0.6-0.375l1.753,0.406c0.129,0.03,0.241,0.11,0.312,0.223
			c0.07,0.113,0.093,0.249,0.063,0.377l-0.407,1.753C11.827,22.735,11.622,22.892,11.394,22.892z"/>
	</g>
	<g>
		<path d="M10.046,18.177c-0.228,0-0.433-0.156-0.487-0.387c-0.062-0.269,0.105-0.538,0.375-0.6l1.266-0.293l-0.294-1.267
			c-0.062-0.269,0.105-0.538,0.375-0.6c0.267-0.06,0.538,0.106,0.6,0.375l0.407,1.753c0.03,0.129,0.007,0.265-0.063,0.377
			c-0.07,0.112-0.182,0.192-0.312,0.223l-1.753,0.406C10.122,18.173,10.084,18.177,10.046,18.177z"/>
	</g>
	<g>
		<path d="M17.606,22.892c-0.228,0-0.433-0.156-0.487-0.387l-0.407-1.753c-0.03-0.129-0.007-0.265,0.063-0.377
			c0.07-0.112,0.182-0.192,0.312-0.223l1.753-0.406c0.269-0.061,0.538,0.106,0.6,0.375c0.062,0.269-0.105,0.538-0.375,0.6
			L17.8,21.012l0.294,1.267c0.062,0.269-0.105,0.538-0.375,0.6C17.682,22.888,17.644,22.892,17.606,22.892z"/>
	</g>
</g>
<g id="Thermometer_1">
</g>
<g id="Thermometer_2">
</g>
<g id="Cold">
</g>
<g id="Icicle">
</g>
<g id="Snowing">
</g>
<g id="Snow_Shoes_1">
</g>
<g id="Snow_Shoes_2">
</g>
<g id="Sledge">
</g>
<g id="Snow_Boots">
</g>
<g id="Snowcapped_Mountains">
</g>
<g id="Skis">
</g>
<g id="Sky_Glasses">
</g>
<g id="Snowboard">
</g>
<g id="Ice_Skate">
</g>
<g id="Wooden_House">
</g>
<g id="Snowcapped_House">
</g>
<g id="Hot_Drink">
</g>
<g id="Hot_Chocolate">
</g>
<g id="Lantern">
</g>
<g id="Snow_Shovel">
</g>
<g id="Snowman">
</g>
<g id="Reindeer">
</g>
<g id="Snowmobile">
</g>
<g id="Snow_Chain">
</g>
<g id="Slippery_Road">
</g>
</svg>
