<?xml version="1.0" encoding="iso-8859-1"?>
<!-- Generator: Adobe Illustrator 19.2.1, SVG Export Plug-In . SVG Version: 6.00 Build 0)  -->
<svg version="1.1" xmlns="http://www.w3.org/2000/svg" xmlns:xlink="http://www.w3.org/1999/xlink" x="0px" y="0px"
	 viewBox="0 0 24 24" style="enable-background:new 0 0 24 24;" xml:space="preserve">
<g id="Pompkin">
</g>
<g id="Layer_10">
</g>
<g id="Bat">
</g>
<g id="Ghost">
</g>
<g id="Bone_Hand">
</g>
<g id="Tree_Ghost">
</g>
<g id="Gate">
</g>
<g id="Cemetery_1">
</g>
<g id="Cemetery_2">
</g>
<g id="Devil_x27_s_Fork">
</g>
<g id="Night_Candle">
</g>
<g id="Canlestick">
</g>
<g id="Black_Cat">
</g>
<g id="Witch_Cauldron">
</g>
<g id="Corn_Candy">
</g>
<g id="Layer_29">
</g>
<g id="Bones">
</g>
<g id="Witch_Broom">
</g>
<g id="Owl">
</g>
<g id="Scythe">
</g>
<g id="Grim_Reaper">
</g>
<g id="Coffin">
</g>
<g id="Dracula">
</g>
<g id="Frankenstein">
</g>
<g id="Layer_40">
</g>
<g id="Toilet_Paper">
</g>
<g id="Skull">
</g>
<g id="Skull_Cake">
</g>
<g id="Eyeball">
</g>
<g id="Castle">
</g>
<g id="Witch_x27_s_Hat">
	<g>
		<path d="M9.5,14.887v-0.983c-1.115-0.114-2.186-0.329-2.945-0.676c-0.013,0.266-0.026,0.531-0.036,0.787
			C6.669,14.27,7.726,14.69,9.5,14.887z"/>
		<path d="M13.5,14.891c1.345-0.145,2.316-0.42,2.792-0.697c-0.07-0.25-0.14-0.504-0.21-0.761c-0.691,0.227-1.584,0.394-2.582,0.49
			V14.891z"/>
		<path d="M10.706,13.995H10.5v0.972c0.328,0.017,0.672,0.028,1.035,0.028c0.336,0,0.656-0.009,0.965-0.024v-0.976h-0.066
			c-0.281,0.011-0.565,0.019-0.854,0.019C11.298,14.014,11.005,14.008,10.706,13.995z"/>
		<path d="M12.418,12.995c1.351-0.055,2.564-0.243,3.401-0.529c-0.601-2.252-1.159-4.57-1.322-6.027
			c-0.178-1.581-0.043-2.633,0.398-3.127c0.572-0.642,1.887-0.408,3.874,0.626c0.202,0.105,0.452,0.06,0.604-0.111
			c0.152-0.171,0.169-0.424,0.04-0.614c-1.054-1.545-3.321-3.209-5.81-3.209c-0.823,0-1.605,0.183-2.327,0.543
			C8.013,2.18,6.954,7.554,6.624,12.13c0.484,0.358,1.936,0.782,4.182,0.865H12.418z"/>
		<path d="M17.191,17.349l-0.065-0.225c-0.163-0.564-0.354-1.226-0.557-1.942c-0.757,0.359-1.943,0.622-3.325,0.741
			c-0.073,0.042-0.154,0.073-0.244,0.073h-3c-0.097,0-0.183-0.035-0.259-0.083c-1.184-0.107-2.42-0.331-3.251-0.736
			c-0.014,0.841-0.011,1.593-0.004,2.22c0,0,0,0,0,0c0,0.027,0.001,0.048,0.001,0.075c0.003,0.219,0.005,0.422,0.008,0.605
			L6.5,18.495c0,0.113,0.043,0.215,0.103,0.312c0,0.001,0.001,0.002,0.002,0.002c0.192,0.304,0.652,0.532,1.235,0.7
			c0.89,0.276,2.175,0.446,3.714,0.475c0.264,0.009,0.436,0.011,0.445,0.011c0.276,0,0.5,0.224,0.5,0.5s-0.224,0.5-0.5,0.5
			c-2.428,0-6.5-0.325-6.5-2.5l-0.006-0.403c-0.002-0.159-0.005-0.333-0.007-0.518C3.351,17.997,0.5,18.865,0.5,20.495
			c0,2.298,5.785,3.5,11.5,3.5s11.5-1.202,11.5-3.5C23.5,18.514,19.32,17.657,17.191,17.349z"/>
	</g>
</g>
<g id="Cobweb_1">
</g>
<g id="Cobweb_2">
</g>
<g id="Spider">
</g>
<g id="Full_Moon">
</g>
<g id="Crescent">
</g>
<g id="Crow">
</g>
<g id="Candy_Holder">
</g>
<g id="Bloody_Knife">
</g>
<g id="Bloody_Axe">
</g>
</svg>
