<?xml version="1.0" encoding="iso-8859-1"?>
<!-- Generator: Adobe Illustrator 19.2.1, SVG Export Plug-In . SVG Version: 6.00 Build 0)  -->
<svg version="1.1" xmlns="http://www.w3.org/2000/svg" xmlns:xlink="http://www.w3.org/1999/xlink" x="0px" y="0px"
	 viewBox="0 0 24 24" style="enable-background:new 0 0 24 24;" xml:space="preserve">
<g id="Pompkin">
</g>
<g id="Layer_10">
</g>
<g id="Bat">
</g>
<g id="Ghost">
</g>
<g id="Bone_Hand">
</g>
<g id="Tree_Ghost">
</g>
<g id="Gate">
</g>
<g id="Cemetery_1">
</g>
<g id="Cemetery_2">
</g>
<g id="Devil_x27_s_Fork">
</g>
<g id="Night_Candle">
</g>
<g id="Canlestick">
</g>
<g id="Black_Cat">
</g>
<g id="Witch_Cauldron">
</g>
<g id="Corn_Candy">
</g>
<g id="Layer_29">
</g>
<g id="Bones">
</g>
<g id="Witch_Broom">
	<g>
		<path d="M12.633,13.34l0.707-0.707c0.585-0.585,0.585-1.537,0-2.122c-0.568-0.566-1.555-0.565-2.121,0l-0.708,0.708
			c-0.584,0.584-0.584,1.536,0,2.121c0.283,0.283,0.66,0.439,1.061,0.439C11.973,13.78,12.35,13.624,12.633,13.34z"/>
		<path d="M19.906,13.737c-1.178-0.862-2.913-1.699-4.528-2.184c-0.138-0.041-0.288-0.02-0.411,0.056
			c-0.122,0.077-0.205,0.204-0.227,0.347c-0.083,0.535-0.322,1.013-0.693,1.384l-0.707,0.707c-0.371,0.372-0.85,0.611-1.384,0.693
			c-0.143,0.022-0.269,0.105-0.347,0.227c-0.077,0.123-0.098,0.272-0.056,0.411c0.484,1.615,1.321,3.35,2.184,4.528
			c1.45,1.981,3.991,4.015,6.398,4.093c0.005,0,0.011,0,0.016,0c0.007,0,0.014,0,0.02,0c0.276,0,0.5-0.224,0.5-0.5
			c0-0.213-0.134-0.396-0.322-0.467c-0.325-0.219-0.765-0.629-0.794-0.92c-0.004-0.04-0.013-0.133,0.138-0.276
			c0.313-0.294,0.96,0.266,1.44,0.627c0.474,0.355,0.847,0.637,1.237,0.637c0,0,0,0,0,0c0.203,0,0.39-0.08,0.526-0.225
			c0.5-0.531,0.043-1.378-0.485-2.359c-0.061-0.113-0.132-0.245-0.201-0.377c0.038,0.025,0.073,0.05,0.106,0.072
			c0.48,0.33,0.767,0.517,1.071,0.517c0.269,0,0.499-0.164,0.585-0.416c0.02-0.058,0.029-0.118,0.026-0.178
			C23.921,17.729,21.887,15.188,19.906,13.737z"/>
		<path d="M10.659,9.684c0.002-0.002,0.078-0.061,0.08-0.063c0.211-0.168,0.251-0.475,0.088-0.691
			C10.275,8.195,9.82,7.667,9.435,7.315C9.014,6.929,8.585,6.588,8.158,6.249c-0.632-0.502-1.23-0.977-1.789-1.587
			C5.486,3.699,4.095,0.909,3.99,0.399c-0.029-0.14-0.116-0.26-0.24-0.332C3.626-0.005,3.477-0.02,3.342,0.026l-3,1
			c-0.228,0.076-0.369,0.302-0.337,0.54c0.154,1.156,2.484,4.572,2.583,4.716C3.17,7.134,4.071,7.609,5.115,8.158
			c0.682,0.359,1.456,0.767,2.28,1.348c0.553,0.39,1.046,0.8,1.509,1.252c0.094,0.092,0.219,0.143,0.35,0.143
			c0.01,0,0.02,0,0.029-0.001c0.141-0.008,0.271-0.075,0.36-0.185c0.003-0.003,0.066-0.085,0.069-0.088
			c0.029-0.039,0.058-0.079,0.093-0.114l0.707-0.707C10.557,9.76,10.608,9.722,10.659,9.684z"/>
	</g>
</g>
<g id="Owl">
</g>
<g id="Scythe">
</g>
<g id="Grim_Reaper">
</g>
<g id="Coffin">
</g>
<g id="Dracula">
</g>
<g id="Frankenstein">
</g>
<g id="Layer_40">
</g>
<g id="Toilet_Paper">
</g>
<g id="Skull">
</g>
<g id="Skull_Cake">
</g>
<g id="Eyeball">
</g>
<g id="Castle">
</g>
<g id="Witch_x27_s_Hat">
</g>
<g id="Cobweb_1">
</g>
<g id="Cobweb_2">
</g>
<g id="Spider">
</g>
<g id="Full_Moon">
</g>
<g id="Crescent">
</g>
<g id="Crow">
</g>
<g id="Candy_Holder">
</g>
<g id="Bloody_Knife">
</g>
<g id="Bloody_Axe">
</g>
</svg>
