<?xml version="1.0" encoding="iso-8859-1"?>
<!-- Generator: Adobe Illustrator 19.2.1, SVG Export Plug-In . SVG Version: 6.00 Build 0)  -->
<svg version="1.1" xmlns="http://www.w3.org/2000/svg" xmlns:xlink="http://www.w3.org/1999/xlink" x="0px" y="0px"
	 viewBox="0 0 24 24" style="enable-background:new 0 0 24 24;" xml:space="preserve">
<g id="Cutting_Board_1">
</g>
<g id="Cutting_Board_2">
</g>
<g id="Chef_x27_s_Hat_1">
</g>
<g id="Chef_x27_s_Hat_2">
</g>
<g id="Kitchen_Scale">
</g>
<g id="Measuring_Cup">
</g>
<g id="Pot_1">
</g>
<g id="Pot_2">
</g>
<g id="Wok_1">
	<path d="M23,11c-0.276,0-0.5,0.224-0.5,0.5v0.066l-0.404-0.269c0.109-0.393,0.202-0.793,0.265-1.204
		C22.443,9.903,22.5,9.708,22.5,9.5C22.5,7.202,17.218,6,12,6S1.5,7.202,1.5,9.5c0,0.208,0.057,0.403,0.139,0.593
		c0.063,0.411,0.155,0.811,0.265,1.204L1.5,11.566V11.5C1.5,11.224,1.276,11,1,11s-0.5,0.224-0.5,0.5v1
		c0,0.185,0.102,0.354,0.264,0.441C0.838,12.98,0.919,13,1,13c0.097,0,0.194-0.028,0.277-0.084l0.954-0.636
		C3.769,16.232,7.624,19,12,19s8.231-2.768,9.769-6.72l0.954,0.636C22.806,12.972,22.903,13,23,13c0.081,0,0.162-0.02,0.236-0.059
		c0.163-0.087,0.264-0.256,0.264-0.441v-1C23.5,11.224,23.276,11,23,11z M12,7c5.886,0,9.5,1.456,9.5,2.5
		c0,0.058-0.015,0.117-0.037,0.177c-0.009,0.014-0.022,0.025-0.03,0.04c-0.468,0.96-3.399,1.986-7.563,2.229
		c-0.031,0.002-0.063,0.003-0.094,0.004c-0.26,0.014-0.523,0.026-0.792,0.034C12.663,11.994,12.336,12,12,12
		s-0.663-0.006-0.985-0.015c-0.269-0.008-0.532-0.02-0.792-0.034c-0.031-0.002-0.063-0.003-0.094-0.004
		c-4.163-0.243-7.094-1.269-7.563-2.229c-0.008-0.016-0.021-0.026-0.03-0.041C2.515,9.617,2.5,9.558,2.5,9.5C2.5,8.456,6.114,7,12,7
		z"/>
</g>
<g id="Wok_2">
</g>
<g id="Teapot">
</g>
<g id="Plate">
</g>
<g id="Sauce_Boat">
</g>
<g id="Cauldron">
</g>
<g id="Cookbook">
</g>
<g id="Salt_Pot">
</g>
<g id="Pepper_Pot_1">
</g>
<g id="Pepper_Pot_2">
</g>
<g id="Egg_Timer">
</g>
<g id="Olive_Oil_Pot">
</g>
<g id="Pancake_Griddle">
</g>
<g id="Pan">
</g>
<g id="Kettle">
</g>
<g id="Microwave">
</g>
<g id="Cooker">
</g>
<g id="Meat_Grinder">
</g>
<g id="Coffee_Maker">
</g>
<g id="Household_Mixer">
</g>
<g id="Stand_Mixer">
</g>
<g id="Hand_Blender">
</g>
<g id="Blender">
</g>
<g id="Cooker_Hood">
</g>
<g id="Refrigerator">
</g>
<g id="Freezer">
</g>
<g id="Apron">
</g>
<g id="Oven_Gloves">
</g>
<g id="Rolling_Pin">
</g>
<g id="Sieve">
</g>
<g id="Tea_Sieve">
</g>
<g id="Grater">
</g>
<g id="Knife_Holder">
</g>
<g id="Funnel">
</g>
<g id="Kitchen_Clock">
</g>
<g id="Lemon_Juicer">
</g>
<g id="Pastry_Bag_1">
</g>
<g id="Pastry_Bag_2">
</g>
<g id="Corkscrew">
</g>
<g id="Bottle_Opener">
</g>
<g id="Service">
</g>
<g id="Chopsticks">
</g>
<g id="Hatchet">
</g>
<g id="Filleting_Knife">
</g>
<g id="Bread_Knife">
</g>
<g id="Herb_Knife">
</g>
<g id="Whetting">
</g>
<g id="Cake_Knife">
</g>
<g id="Layer_58">
</g>
<g id="Ladle">
</g>
<g id="Sauce_Spoon">
</g>
<g id="Egg_Beater">
</g>
<g id="Meat_Fork">
</g>
<g id="Kitchen_Spoon_1">
</g>
<g id="Kitchen_Spoon_2">
</g>
<g id="Pizza_Cutter">
</g>
<g id="Potato_Musher">
</g>
<g id="Peeler">
</g>
<g id="Honey_Dipper">
</g>
<g id="Fork">
</g>
<g id="Knife">
</g>
<g id="Spoon">
</g>
<g id="Cutlery_Set">
</g>
<g id="Sugar_Bowl">
</g>
<g id="Matches">
</g>
<g id="Cezve">
</g>
</svg>
