<?xml version="1.0" encoding="iso-8859-1"?>
<!-- Generator: Adobe Illustrator 19.2.1, SVG Export Plug-In . SVG Version: 6.00 Build 0)  -->
<svg version="1.1" xmlns="http://www.w3.org/2000/svg" xmlns:xlink="http://www.w3.org/1999/xlink" x="0px" y="0px"
	 viewBox="0 0 30 30" style="enable-background:new 0 0 30 30;" xml:space="preserve">
<g id="Man_1">
</g>
<g id="Woman_1">
</g>
<g id="Man_2">
</g>
<g id="Woman_2">
</g>
<g id="Bald_Man">
</g>
<g id="Man_Glasses">
</g>
<g id="Woman_Glasses">
</g>
<g id="Man_Beard">
</g>
<g id="Man_Cap">
</g>
<g id="Woman_Cap">
</g>
<g id="Man_3">
</g>
<g id="Woman_3">
</g>
<g id="Men_4">
</g>
<g id="Woman_4">
	<g>
		<g>
			<path d="M25,26c-0.068,0-0.138-0.014-0.205-0.044c-0.13-0.059-0.649-0.222-1.031-0.345c-0.196-0.063-0.358-0.115-0.428-0.139
				l-1.494-0.498c-0.631-0.219-1.5-0.951-1.668-1.095l-1.027-1.025c-0.195-0.195-0.195-0.512,0-0.707s0.512-0.195,0.707,0l1,1
				c0.4,0.343,0.997,0.772,1.311,0.881l1.494,0.498c0.072,0.025,0.226,0.074,0.411,0.133c0.57,0.183,0.985,0.317,1.136,0.385
				c0.252,0.114,0.364,0.41,0.251,0.661C25.373,25.891,25.19,26,25,26z"/>
		</g>
		<g>
			<path d="M5,26c-0.191,0-0.373-0.109-0.457-0.295c-0.113-0.251-0.001-0.547,0.251-0.661c0.151-0.068,0.566-0.202,1.136-0.385
				c0.185-0.059,0.338-0.108,0.405-0.131l1.506-0.502c0.308-0.107,0.904-0.537,1.332-0.905l0.973-0.975
				c0.195-0.195,0.512-0.195,0.707,0s0.195,0.512,0,0.707l-1,1c-0.195,0.17-1.064,0.901-1.689,1.119l-1.506,0.502
				c-0.064,0.022-0.227,0.075-0.422,0.137c-0.382,0.123-0.9,0.286-1.031,0.345C5.139,25.986,5.069,26,5,26z"/>
		</g>
		<g>
			<path d="M14.948,25c-0.294,0-0.609-0.032-0.962-0.098c-0.14-0.024-0.284-0.059-0.429-0.096c-0.114-0.031-0.217-0.064-0.32-0.1
				c-2.242-0.709-4.224-2.663-5.182-5.065c-0.114,0.034-0.217,0.045-0.304,0.045c-0.998,0-1.75-1.367-1.75-3.179
				c0-0.272,0.08-0.987,0.115-1.281C6.065,15.075,6,14.813,6,14.5C6,14.224,6.224,14,6.5,14S7,14.224,7,14.5
				c0,0.266,0.084,0.471,0.084,0.473c0.033,0.08,0.047,0.171,0.037,0.257C7.074,15.618,7,16.308,7,16.509
				c0,1.415,0.532,2.179,0.75,2.179c0.025,0,0.096-0.029,0.196-0.139c0.12-0.131,0.3-0.19,0.477-0.15
				c0.174,0.039,0.315,0.167,0.369,0.337c0.753,2.375,2.62,4.345,4.756,5.021c0.094,0.031,0.179,0.06,0.266,0.083
				c0.11,0.028,0.228,0.057,0.349,0.078C14.465,23.974,14.712,24,14.948,24c0.276,0,0.5,0.224,0.5,0.5S15.224,25,14.948,25z"/>
		</g>
		<g>
			<path d="M14.948,25c-0.276,0-0.5-0.224-0.5-0.5s0.224-0.5,0.5-0.5c0.236,0,0.483-0.026,0.779-0.081
				c0.127-0.022,0.246-0.051,0.364-0.081c0.078-0.021,0.164-0.05,0.249-0.078c1.816-0.575,4.02-2.35,4.869-5.024
				c0.054-0.17,0.194-0.298,0.369-0.337c0.177-0.04,0.356,0.019,0.477,0.15c0.1,0.109,0.17,0.139,0.196,0.139
				c0.218,0,0.75-0.764,0.75-2.179c0-0.201-0.074-0.892-0.122-1.279c-0.011-0.089,0.003-0.179,0.039-0.261l0,0
				c0,0,0.083-0.204,0.083-0.469c0-0.276,0.224-0.5,0.5-0.5s0.5,0.224,0.5,0.5c0,0.313-0.065,0.575-0.115,0.728
				C23.92,15.521,24,16.236,24,16.509c0,1.812-0.752,3.179-1.75,3.179c-0.087,0-0.191-0.011-0.305-0.045
				c-0.959,2.382-2.98,4.336-5.294,5.068c-0.094,0.032-0.198,0.065-0.303,0.094c-0.153,0.04-0.297,0.074-0.445,0.099
				C15.557,24.968,15.242,25,14.948,25z"/>
		</g>
		<g>
			<path d="M12.5,16h-1c-0.276,0-0.5-0.224-0.5-0.5s0.224-0.5,0.5-0.5h1c0.276,0,0.5,0.224,0.5,0.5S12.776,16,12.5,16z"/>
		</g>
		<g>
			<path d="M18.5,16h-1c-0.276,0-0.5-0.224-0.5-0.5s0.224-0.5,0.5-0.5h1c0.276,0,0.5,0.224,0.5,0.5S18.776,16,18.5,16z"/>
		</g>
		<g>
			<path d="M15,30C6.729,30,0,23.271,0,15S6.729,0,15,0s15,6.729,15,15S23.271,30,15,30z M15,1C7.28,1,1,7.28,1,15s6.28,14,14,14
				s14-6.28,14-14S22.72,1,15,1z"/>
		</g>
		<g>
			<path d="M8.5,16c-0.593,0-0.982-0.339-1.296-0.611C6.918,15.141,6.745,15,6.5,15C6.224,15,6,14.776,6,14.5S6.224,14,6.5,14
				c0.631,0,1.035,0.352,1.36,0.634C8.129,14.868,8.292,15,8.5,15c0.878,0,1.56-0.473,2.606-1.809
				c0.385-0.491,0.672-0.949,0.949-1.393C13.033,10.235,13.805,9,17.5,9C17.776,9,18,9.224,18,9.5
				c0.023,0.616,2.479,3.431,4.264,4.771C22.527,14.137,22.933,14,23.5,14c0.276,0,0.5,0.224,0.5,0.5S23.776,15,23.5,15
				c-0.628,0-0.895,0.23-0.906,0.24c-0.172,0.153-0.438,0.18-0.628,0.049c-1.284-0.887-4.226-3.73-4.849-5.285
				c-2.802,0.066-3.314,0.886-4.214,2.325c-0.278,0.444-0.592,0.947-1.01,1.479C10.833,15.162,9.895,16,8.5,16z"/>
		</g>
		<g>
			<path d="M20.5,24c-0.263,0-0.483-0.205-0.499-0.471c-0.016-0.275,0.194-0.512,0.47-0.528c2.467-0.145,2.992-0.582,3.103-0.763
				c0.696-1.133,0.557-4.347,0.474-6.268C24.022,15.387,24,14.878,24,14.5c0-3.762-2.781-7.132-6.612-8.013
				c-0.034,0.001-0.086,0.034-0.125,0.059c-0.402,0.254-0.888,0.456-1.989-0.1c-0.034-0.017-0.065-0.038-0.095-0.062
				c-1-0.835-2.481-0.336-3.273,0.035C9.118,7.726,6,11.458,6,14.5c0,0.378-0.022,0.887-0.047,1.471
				c-0.083,1.92-0.222,5.134,0.474,6.268c0.111,0.181,0.636,0.618,3.103,0.763c0.276,0.016,0.486,0.253,0.47,0.528
				s-0.261,0.485-0.528,0.47c-2.251-0.132-3.453-0.514-3.897-1.237c-0.855-1.394-0.719-4.539-0.62-6.834
				C4.979,15.361,5,14.867,5,14.5c0-3.506,3.416-7.55,6.482-8.986c1.713-0.803,3.235-0.781,4.291,0.063
				c0.646,0.319,0.791,0.227,0.958,0.122c0.169-0.106,0.452-0.286,0.881-0.187C21.893,6.497,25,10.277,25,14.5
				c0,0.367,0.021,0.861,0.046,1.428c0.099,2.295,0.235,5.44-0.62,6.834c-0.444,0.723-1.646,1.105-3.897,1.237
				C20.52,24,20.509,24,20.5,24z"/>
		</g>
	</g>
</g>
<g id="Business_Man_1">
</g>
<g id="Business_Woman_1">
</g>
<g id="Firefigyhter">
</g>
<g id="Policeman">
</g>
<g id="Criminal">
</g>
<g id="Prisoner">
</g>
<g id="Woodsman">
</g>
<g id="Dispatcher_1">
</g>
<g id="Dispatcher_2">
</g>
<g id="Soldier">
</g>
<g id="Astronaut">
</g>
<g id="Hipster_Guy">
</g>
<g id="Hipster_Girl">
</g>
<g id="Worker">
</g>
<g id="Old_Man">
</g>
<g id="Punk">
</g>
<g id="Diver">
</g>
<g id="Artist">
</g>
<g id="Dictator">
</g>
<g id="Man_Hat">
</g>
<g id="Woman_Hat">
</g>
<g id="Graduated_Man">
</g>
<g id="Graduated_Woman">
</g>
<g id="Avatar_Chef">
</g>
<g id="Waiter">
</g>
<g id="Waitress">
</g>
<g id="Bllboy">
</g>
<g id="Santa">
</g>
<g id="Doctor">
</g>
<g id="Nurse">
</g>
<g id="Captain">
</g>
<g id="Farmer">
</g>
<g id="Maid">
</g>
<g id="Business_Man_2">
</g>
<g id="Business_Woman_2">
</g>
<g id="Cowboy">
</g>
<g id="Anonymus">
</g>
<g id="Batman">
</g>
<g id="Superman">
</g>
<g id="Captain_America">
</g>
<g id="Darth_Vader">
</g>
<g id="Harry_Potter">
</g>
<g id="Anonymus_2">
</g>
<g id="Scream">
</g>
<g id="Jason">
</g>
<g id="Charlie_Chaplin">
</g>
</svg>
