<?xml version="1.0" encoding="iso-8859-1"?>
<!-- Generator: Adobe Illustrator 19.2.1, SVG Export Plug-In . SVG Version: 6.00 Build 0)  -->
<svg version="1.1" xmlns="http://www.w3.org/2000/svg" xmlns:xlink="http://www.w3.org/1999/xlink" x="0px" y="0px"
	 viewBox="0 0 30 30" style="enable-background:new 0 0 30 30;" xml:space="preserve">
<g id="Man_1">
</g>
<g id="Woman_1">
	<g>
		<g>
			<path d="M23.5,27c-0.042,0-0.084-0.005-0.126-0.016l-2.137-0.557c-1.168-0.32-2.144-1.122-2.683-2.2l-0.502-1.003
				c-0.07-0.141-0.07-0.307,0-0.447l0.625-1.25c0.076-0.151,0.222-0.253,0.39-0.273c0.025-0.003,2.303-0.275,3.688-0.915
				C22.151,19.472,21,17.554,21,15.5c0-3.136-0.824-8.37-6.295-8.498l-0.476,0.476c-0.094,0.094-0.221,0.146-0.354,0.146
				C11.887,7.625,9,10.693,9,15.5c0,2.053-1.15,3.971-1.755,4.837c1.153,0.528,2.99,0.835,3.688,0.916
				c0.167,0.02,0.314,0.122,0.39,0.273l0.625,1.25c0.07,0.141,0.07,0.307,0,0.447l-0.506,1.012c-0.536,1.072-1.505,1.872-2.66,2.193
				l-2.157,0.556c-0.261,0.069-0.54-0.092-0.609-0.36c-0.069-0.267,0.092-0.54,0.36-0.609l2.147-0.553
				c0.873-0.243,1.614-0.854,2.024-1.674L10.941,23l-0.395-0.789c-0.792-0.112-3.105-0.494-4.321-1.294
				c-0.119-0.078-0.198-0.203-0.219-0.343c-0.021-0.14,0.018-0.283,0.108-0.393C6.133,20.159,8,17.862,8,15.5
				c0-4.949,2.944-8.679,5.661-8.868l0.486-0.486C14.24,6.053,14.367,6,14.5,6c4.767,0,7.5,3.462,7.5,9.5
				c0,2.371,1.867,4.659,1.886,4.682c0.09,0.109,0.13,0.252,0.109,0.393c-0.021,0.141-0.101,0.266-0.22,0.343
				c-1.216,0.8-3.529,1.182-4.321,1.294L19.059,23l0.39,0.78c0.412,0.825,1.158,1.437,2.046,1.681l2.13,0.556
				c0.268,0.07,0.428,0.343,0.358,0.61C23.925,26.851,23.722,27,23.5,27z"/>
		</g>
		<g>
			<path d="M15,30C6.729,30,0,23.271,0,15S6.729,0,15,0s15,6.729,15,15S23.271,30,15,30z M15,1C7.28,1,1,7.28,1,15s6.28,14,14,14
				s14-6.28,14-14S22.72,1,15,1z"/>
		</g>
	</g>
</g>
<g id="Man_2">
</g>
<g id="Woman_2">
</g>
<g id="Bald_Man">
</g>
<g id="Man_Glasses">
</g>
<g id="Woman_Glasses">
</g>
<g id="Man_Beard">
</g>
<g id="Man_Cap">
</g>
<g id="Woman_Cap">
</g>
<g id="Man_3">
</g>
<g id="Woman_3">
</g>
<g id="Men_4">
</g>
<g id="Woman_4">
</g>
<g id="Business_Man_1">
</g>
<g id="Business_Woman_1">
</g>
<g id="Firefigyhter">
</g>
<g id="Policeman">
</g>
<g id="Criminal">
</g>
<g id="Prisoner">
</g>
<g id="Woodsman">
</g>
<g id="Dispatcher_1">
</g>
<g id="Dispatcher_2">
</g>
<g id="Soldier">
</g>
<g id="Astronaut">
</g>
<g id="Hipster_Guy">
</g>
<g id="Hipster_Girl">
</g>
<g id="Worker">
</g>
<g id="Old_Man">
</g>
<g id="Punk">
</g>
<g id="Diver">
</g>
<g id="Artist">
</g>
<g id="Dictator">
</g>
<g id="Man_Hat">
</g>
<g id="Woman_Hat">
</g>
<g id="Graduated_Man">
</g>
<g id="Graduated_Woman">
</g>
<g id="Avatar_Chef">
</g>
<g id="Waiter">
</g>
<g id="Waitress">
</g>
<g id="Bllboy">
</g>
<g id="Santa">
</g>
<g id="Doctor">
</g>
<g id="Nurse">
</g>
<g id="Captain">
</g>
<g id="Farmer">
</g>
<g id="Maid">
</g>
<g id="Business_Man_2">
</g>
<g id="Business_Woman_2">
</g>
<g id="Cowboy">
</g>
<g id="Anonymus">
</g>
<g id="Batman">
</g>
<g id="Superman">
</g>
<g id="Captain_America">
</g>
<g id="Darth_Vader">
</g>
<g id="Harry_Potter">
</g>
<g id="Anonymus_2">
</g>
<g id="Scream">
</g>
<g id="Jason">
</g>
<g id="Charlie_Chaplin">
</g>
</svg>
