<?xml version="1.0" encoding="iso-8859-1"?>
<!-- Generator: Adobe Illustrator 19.2.1, SVG Export Plug-In . SVG Version: 6.00 Build 0)  -->
<svg version="1.1" xmlns="http://www.w3.org/2000/svg" xmlns:xlink="http://www.w3.org/1999/xlink" x="0px" y="0px"
	 viewBox="0 0 30 30" style="enable-background:new 0 0 30 30;" xml:space="preserve">
<g id="Man_1">
</g>
<g id="Woman_1">
</g>
<g id="Man_2">
</g>
<g id="Woman_2">
</g>
<g id="Bald_Man">
</g>
<g id="Man_Glasses">
</g>
<g id="Woman_Glasses">
</g>
<g id="Man_Beard">
</g>
<g id="Man_Cap">
</g>
<g id="Woman_Cap">
</g>
<g id="Man_3">
</g>
<g id="Woman_3">
</g>
<g id="Men_4">
</g>
<g id="Woman_4">
	<g>
		<path d="M15,0C6.729,0,0,6.729,0,15c0,4.264,1.797,8.108,4.662,10.842c0.032,0.032,0.058,0.067,0.097,0.088
			C7.443,28.446,11.04,30,15,30c3.963,0,7.561-1.556,10.246-4.075c0.059-0.034,0.109-0.08,0.15-0.137C28.228,23.059,30,19.236,30,15
			C30,6.729,23.271,0,15,0z M24.866,24.921c-0.232-0.079-0.527-0.175-0.781-0.257c-0.191-0.061-0.352-0.112-0.427-0.139
			l-1.493-0.497c-0.117-0.041-0.278-0.134-0.449-0.243l-1.727,0.173c-0.934,0.784-1.979,1.371-3.038,1.705
			c-0.087,0.031-0.209,0.07-0.335,0.105c-0.202,0.051-0.369,0.09-0.539,0.12C15.667,25.964,15.306,26,14.948,26
			s-0.721-0.036-1.143-0.114c-0.156-0.027-0.326-0.066-0.497-0.111c-0.15-0.04-0.276-0.08-0.401-0.124
			c-1.017-0.32-2.042-0.908-2.962-1.699l-1.66-0.166c-0.17,0.108-0.328,0.2-0.442,0.24l-1.507,0.503
			c-0.068,0.023-0.229,0.075-0.419,0.136c-0.32,0.102-0.582,0.187-0.783,0.256C2.582,22.383,1,18.873,1,15C1,7.28,7.28,1,15,1
			s14,6.28,14,14C29,18.874,27.417,22.384,24.866,24.921z"/>
		<path d="M12.5,15h-1c-0.276,0-0.5,0.224-0.5,0.5s0.224,0.5,0.5,0.5h1c0.276,0,0.5-0.224,0.5-0.5S12.776,15,12.5,15z"/>
		<path d="M18.5,15h-1c-0.276,0-0.5,0.224-0.5,0.5s0.224,0.5,0.5,0.5h1c0.276,0,0.5-0.224,0.5-0.5S18.776,15,18.5,15z"/>
		<path d="M25.046,15.928C25.021,15.361,25,14.867,25,14.5c0-4.223-3.107-8.003-7.388-8.987c-0.434-0.101-0.713,0.08-0.882,0.187
			c-0.166,0.104-0.313,0.196-0.958-0.122c-1.055-0.844-2.578-0.867-4.291-0.063C8.416,6.95,5,10.994,5,14.5
			c0,0.367-0.021,0.861-0.046,1.428c-0.099,2.296-0.235,5.439,0.621,6.834c0.414,0.675,1.991,1.009,5.816,1.232l0.038-0.171
			c0.572,0.378,1.176,0.684,1.806,0.883c0.104,0.036,0.208,0.069,0.324,0.101c0.144,0.037,0.287,0.071,0.428,0.096
			C14.346,24.969,14.651,25,14.948,25s0.603-0.031,0.958-0.097c0.146-0.025,0.289-0.06,0.443-0.099
			c0.105-0.029,0.208-0.063,0.302-0.095c0.585-0.185,1.152-0.45,1.687-0.778c0.076,0.037,0.156,0.064,0.241,0.064
			c0.01,0,0.02,0,0.03-0.001c3.826-0.224,5.402-0.558,5.816-1.232C25.282,21.367,25.146,18.224,25.046,15.928z M22.25,18.688
			c-0.025,0-0.096-0.029-0.195-0.139c-0.122-0.132-0.308-0.188-0.477-0.15c-0.175,0.038-0.315,0.167-0.369,0.337
			c-0.849,2.676-3.053,4.45-4.87,5.024c-0.085,0.029-0.17,0.057-0.245,0.078c-0.12,0.029-0.239,0.06-0.366,0.082
			C15.43,23.975,15.183,24,14.948,24c-0.234,0-0.482-0.025-0.785-0.081c-0.122-0.021-0.241-0.052-0.35-0.079
			c-0.086-0.023-0.171-0.051-0.266-0.083c-2.136-0.676-4.002-2.646-4.756-5.021c-0.054-0.17-0.194-0.298-0.369-0.337
			c-0.173-0.039-0.355,0.019-0.476,0.15c-0.101,0.109-0.171,0.139-0.196,0.139c-0.218,0-0.75-0.764-0.75-2.179
			c0-0.187,0.064-0.796,0.112-1.193c0.033,0.028,0.057,0.041,0.093,0.072C7.518,15.661,7.907,16,8.5,16
			c1.395,0,2.333-0.838,3.394-2.191c0.418-0.533,0.732-1.036,1.01-1.479c0.899-1.438,1.412-2.258,4.214-2.325
			c0.623,1.555,3.564,4.398,4.849,5.285c0.189,0.131,0.455,0.104,0.628-0.049c0.007-0.006,0.11-0.082,0.305-0.148
			c-0.007,0.046-0.026,0.09-0.02,0.137C22.926,15.618,23,16.309,23,16.509C23,17.924,22.468,18.688,22.25,18.688z"/>
	</g>
</g>
<g id="Business_Man_1">
</g>
<g id="Business_Woman_1">
</g>
<g id="Firefigyhter">
</g>
<g id="Policeman">
</g>
<g id="Criminal">
</g>
<g id="Prisoner">
</g>
<g id="Woodsman">
</g>
<g id="Dispatcher_1">
</g>
<g id="Dispatcher_2">
</g>
<g id="Soldier">
</g>
<g id="Astronaut">
</g>
<g id="Hipster_Guy">
</g>
<g id="Hipster_Girl">
</g>
<g id="Worker">
</g>
<g id="Old_Man">
</g>
<g id="Punk">
</g>
<g id="Diver">
</g>
<g id="Artist">
</g>
<g id="Dictator">
</g>
<g id="Man_Hat">
</g>
<g id="Woman_Hat">
</g>
<g id="Graduated_Man">
</g>
<g id="Graduated_Woman">
</g>
<g id="Avatar_Chef">
</g>
<g id="Waiter">
</g>
<g id="Waitress">
</g>
<g id="Bllboy">
</g>
<g id="Santa">
</g>
<g id="Doctor">
</g>
<g id="Nurse">
</g>
<g id="Captain">
</g>
<g id="Farmer">
</g>
<g id="Maid">
</g>
<g id="Business_Man_2">
</g>
<g id="Business_Woman_2">
</g>
<g id="Cowboy">
</g>
<g id="Anonymus">
</g>
<g id="Batman">
</g>
<g id="Superman">
</g>
<g id="Captain_America">
</g>
<g id="Darth_Vader">
</g>
<g id="Harry_Potter">
</g>
<g id="Anonymus_2">
</g>
<g id="Scream">
</g>
<g id="Jason">
</g>
<g id="Charlie_Chaplin">
</g>
</svg>
