<?xml version="1.0" encoding="iso-8859-1"?>
<!-- Generator: Adobe Illustrator 19.2.1, SVG Export Plug-In . SVG Version: 6.00 Build 0)  -->
<svg version="1.1" xmlns="http://www.w3.org/2000/svg" xmlns:xlink="http://www.w3.org/1999/xlink" x="0px" y="0px"
	 viewBox="0 0 24 24" style="enable-background:new 0 0 24 24;" xml:space="preserve">
<g id="Man_1">
</g>
<g id="Woman_1">
	<path d="M24,12c0-6.617-5.383-12-12-12S0,5.383,0,12c0,4.008,1.982,7.553,5.01,9.734c0.012,0.011,0.015,0.028,0.028,0.039
		l0.153,0.121c0.019,0.015,0.04,0.029,0.061,0.041c0.019,0.011,0.091,0.051,0.209,0.114C7.344,23.278,9.588,24,12,24
		c0.067,0,0.131-0.009,0.198-0.01C12.299,23.993,12.399,24,12.5,24c0.041,0,0.082-0.005,0.121-0.015
		c0.011-0.003,0.04-0.01,0.081-0.02c2.187-0.128,4.22-0.831,5.94-1.978c0.026-0.013,0.056-0.026,0.082-0.039
		c0.034-0.017,0.066-0.038,0.096-0.063l0.16-0.133c0.006-0.005,0.007-0.014,0.013-0.019C22.019,19.551,24,16.006,24,12z
		 M18.548,20.818l-1.625-0.447c-0.684-0.187-1.257-0.658-1.574-1.292l-0.29-0.579l0.27-0.54c0.685-0.099,2.482-0.409,3.446-1.042
		c0.226-0.148,0.292-0.45,0.151-0.68C18.912,16.215,17.5,13.894,17.5,12c0-4.645-2.019-7-6-7c-0.133,0-0.26,0.053-0.354,0.146
		l-0.361,0.361C8.669,5.651,6.5,7.916,6.5,12c0,1.894-1.412,4.215-1.426,4.238C4.933,16.468,5,16.77,5.225,16.918
		c0.964,0.633,2.762,0.943,3.446,1.042l0.27,0.54l-0.293,0.586c-0.315,0.63-0.885,1.101-1.564,1.29l-1.619,0.452
		C2.762,18.821,1,15.617,1,12C1,5.935,5.935,1,12,1s11,4.935,11,11C23,15.611,21.243,18.811,18.548,20.818z"/>
</g>
<g id="Man_2">
</g>
<g id="Woman_2">
</g>
<g id="Bald_Man">
</g>
<g id="Man_Glasses">
</g>
<g id="Woman_Glasses">
</g>
<g id="Man_Beard">
</g>
<g id="Man_Cap">
</g>
<g id="Woman_Cap">
</g>
<g id="Man_3">
</g>
<g id="Woman_3">
</g>
<g id="Men_4">
</g>
<g id="Woman_4">
</g>
<g id="Business_Man_1">
</g>
<g id="Business_Woman_1">
</g>
<g id="Firefigyhter">
</g>
<g id="Policeman">
</g>
<g id="Criminal">
</g>
<g id="Prisoner">
</g>
<g id="Woodsman">
</g>
<g id="Dispatcher_1">
</g>
<g id="Dispatcher_2">
</g>
<g id="Soldier">
</g>
<g id="Astronaut">
</g>
<g id="Hipster_Guy">
</g>
<g id="Hipster_Girl">
</g>
<g id="Worker">
</g>
<g id="Old_Man">
</g>
<g id="Punk">
</g>
<g id="Diver">
</g>
<g id="Artist">
</g>
<g id="Dictator">
</g>
<g id="Man_Hat">
</g>
<g id="Woman_Hat">
</g>
<g id="Graduated_Man">
</g>
<g id="Graduated_Woman">
</g>
<g id="Avatar_Chef">
</g>
<g id="Waiter">
</g>
<g id="Waitress">
</g>
<g id="Bllboy">
</g>
<g id="Santa">
</g>
<g id="Doctor">
</g>
<g id="Nurse">
</g>
<g id="Captain">
</g>
<g id="Farmer">
</g>
<g id="Maid">
</g>
<g id="Business_Man_2">
</g>
<g id="Business_Woman_2">
</g>
<g id="Cowboy">
</g>
<g id="Anonymus">
</g>
<g id="Batman">
</g>
<g id="Superman">
</g>
<g id="Captain_America">
</g>
<g id="Darth_Vader">
</g>
<g id="Harry_Potter">
</g>
<g id="Anonymus_2">
</g>
<g id="Scream">
</g>
<g id="Jason">
</g>
<g id="Charlie_Chaplin">
</g>
</svg>
