<?xml version="1.0" encoding="iso-8859-1"?>
<!-- Generator: Adobe Illustrator 19.2.1, SVG Export Plug-In . SVG Version: 6.00 Build 0)  -->
<svg version="1.1" xmlns="http://www.w3.org/2000/svg" xmlns:xlink="http://www.w3.org/1999/xlink" x="0px" y="0px"
	 viewBox="0 0 30 30" style="enable-background:new 0 0 30 30;" xml:space="preserve">
<g id="Snowflake_1">
</g>
<g id="Snowflake_2">
</g>
<g id="Snowflake_3">
</g>
<g id="Snowflake_4">
</g>
<g id="Winter_Cap_1">
</g>
<g id="Winter_Cap_2">
</g>
<g id="Glowes">
</g>
<g id="Sweater_1">
</g>
<g id="Sweater_2">
</g>
<g id="Sweater_3">
</g>
<g id="Scarf">
</g>
<g id="Winter_Socks">
</g>
<g id="Winter_Sock">
</g>
<g id="Winter_Coat">
</g>
<g id="Winter_Calendar">
</g>
<g id="Thermometer_1">
</g>
<g id="Thermometer_2">
</g>
<g id="Cold">
</g>
<g id="Icicle">
</g>
<g id="Snowing">
</g>
<g id="Snow_Shoes_1">
</g>
<g id="Snow_Shoes_2">
</g>
<g id="Sledge">
</g>
<g id="Snow_Boots">
</g>
<g id="Snowcapped_Mountains">
</g>
<g id="Skis">
</g>
<g id="Sky_Glasses">
</g>
<g id="Snowboard">
</g>
<g id="Ice_Skate">
</g>
<g id="Wooden_House">
	<g>
		<path d="M1.758,27.479c-0.323,0-0.642-0.09-0.923-0.265c-0.825-0.51-1.082-1.597-0.572-2.423L13.502,3.357
			C13.809,2.859,14.369,2.562,15,2.562s1.191,0.298,1.498,0.797l13.239,21.434c0.51,0.826,0.253,1.913-0.573,2.424
			c-0.796,0.497-1.93,0.229-2.423-0.574L15,7.751L3.258,26.644c-0.246,0.399-0.635,0.68-1.094,0.788
			C2.029,27.464,1.893,27.479,1.758,27.479z M15,3.562c-0.281,0-0.523,0.12-0.646,0.32L1.114,25.317
			c-0.107,0.173-0.141,0.377-0.094,0.575c0.047,0.197,0.168,0.365,0.341,0.472c0.174,0.108,0.378,0.142,0.573,0.095
			c0.198-0.047,0.366-0.168,0.473-0.342L14.575,6.54c0.184-0.295,0.666-0.295,0.85,0l12.167,19.576
			c0.214,0.348,0.701,0.464,1.046,0.249c0.174-0.107,0.295-0.275,0.342-0.473c0.047-0.198,0.014-0.402-0.094-0.575L15.646,3.883
			C15.523,3.682,15.281,3.562,15,3.562z"/>
	</g>
	<g>
		<path d="M26.5,30h-23C3.224,30,3,29.776,3,29.5v-4.2c0-0.276,0.224-0.5,0.5-0.5S4,25.023,4,25.3V29h22v-3.7
			c0-0.276,0.224-0.5,0.5-0.5s0.5,0.224,0.5,0.5v4.2C27,29.776,26.776,30,26.5,30z"/>
	</g>
	<g>
		<path d="M18.5,30h-7c-0.276,0-0.5-0.224-0.5-0.5v-9c0-0.276,0.224-0.5,0.5-0.5h7c0.276,0,0.5,0.224,0.5,0.5v9
			C19,29.776,18.776,30,18.5,30z M12,29h6v-8h-6V29z"/>
	</g>
	<g>
		<path d="M23.5,16.15c-0.276,0-0.5-0.224-0.5-0.5V7h-2v3.79c0,0.276-0.224,0.5-0.5,0.5s-0.5-0.224-0.5-0.5V6.5
			C20,6.224,20.224,6,20.5,6h3C23.776,6,24,6.224,24,6.5v9.15C24,15.927,23.776,16.15,23.5,16.15z"/>
	</g>
	<g>
		<path d="M21.999,5c-0.112,0-0.226-0.038-0.319-0.115C21.241,4.521,21,4.029,21,3.501c0-0.529,0.241-1.021,0.68-1.385
			C21.887,1.944,22,1.726,22,1.499c0-0.226-0.113-0.444-0.318-0.614c-0.213-0.177-0.242-0.491-0.065-0.704
			c0.176-0.212,0.49-0.241,0.704-0.065C22.759,0.479,23,0.971,23,1.499c0,0.529-0.241,1.021-0.68,1.385
			C22.113,3.056,22,3.274,22,3.501c0,0.226,0.113,0.444,0.318,0.614c0.213,0.177,0.242,0.491,0.065,0.704
			C22.285,4.938,22.143,5,21.999,5z"/>
	</g>
</g>
<g id="Snowcapped_House">
</g>
<g id="Hot_Drink">
</g>
<g id="Hot_Chocolate">
</g>
<g id="Lantern">
</g>
<g id="Snow_Shovel">
</g>
<g id="Snowman">
</g>
<g id="Reindeer">
</g>
<g id="Snowmobile">
</g>
<g id="Snow_Chain">
</g>
<g id="Slippery_Road">
</g>
</svg>
