<?xml version="1.0" encoding="iso-8859-1"?>
<!-- Generator: Adobe Illustrator 19.2.1, SVG Export Plug-In . SVG Version: 6.00 Build 0)  -->
<svg version="1.1" xmlns="http://www.w3.org/2000/svg" xmlns:xlink="http://www.w3.org/1999/xlink" x="0px" y="0px"
	 viewBox="0 0 24 24" style="enable-background:new 0 0 24 24;" xml:space="preserve">
<g id="Man_1">
</g>
<g id="Woman_1">
</g>
<g id="Man_2">
</g>
<g id="Woman_2">
</g>
<g id="Bald_Man">
</g>
<g id="Man_Glasses">
</g>
<g id="Woman_Glasses">
</g>
<g id="Man_Beard">
</g>
<g id="Man_Cap">
</g>
<g id="Woman_Cap">
</g>
<g id="Man_3">
</g>
<g id="Woman_3">
</g>
<g id="Men_4">
</g>
<g id="Woman_4">
</g>
<g id="Business_Man_1">
</g>
<g id="Business_Woman_1">
</g>
<g id="Firefigyhter">
</g>
<g id="Policeman">
</g>
<g id="Criminal">
</g>
<g id="Prisoner">
</g>
<g id="Woodsman">
	<g>
		<path d="M24,12c0-6.617-5.383-12-12-12S0,5.383,0,12c0,3.33,1.365,6.345,3.562,8.521c0.054,0.105,0.14,0.175,0.242,0.22
			c1.93,1.811,4.452,2.991,7.245,3.211C11.341,23.981,11.634,24,11.932,24c0.013,0,0.025-0.001,0.037-0.002
			C11.98,23.998,11.99,24,12,24c0.099,0,0.196-0.013,0.295-0.015c0.136-0.006,0.273-0.009,0.408-0.021
			c2.9-0.169,5.522-1.366,7.511-3.24c0.029-0.017,0.048-0.044,0.073-0.066C22.57,18.472,24,15.403,24,12z M12,1
			c6.065,0,11,4.935,11,11c0,3-1.21,5.721-3.164,7.707c-0.068-0.026-0.133-0.056-0.203-0.081l-2.032-0.707
			c-0.146,0.304-0.308,0.594-0.484,0.873c0,0,0.001,0,0.001,0C15.907,21.714,14.029,23,12,23c-2.029,0-3.907-1.287-5.118-3.208l0,0
			c-0.152-0.241-0.288-0.495-0.418-0.754c-0.023-0.045-0.051-0.086-0.072-0.132c-0.01,0.004-0.019,0.01-0.029,0.013l-2.034,0.707
			c-0.06,0.021-0.116,0.047-0.175,0.07C2.206,17.711,1,14.995,1,12C1,5.935,5.935,1,12,1z"/>
		<path d="M6.499,16c0.026,0,0.047-0.011,0.072-0.014C6.985,19.24,9.383,22,12,22s5.015-2.76,5.43-6.014
			C17.454,15.989,17.473,16,17.499,16c0.855,0,1.5-1.075,1.5-2.5c0-1.152-0.421-2.075-1.044-2.387
			c-0.01-0.118-0.029-0.23-0.044-0.345C17.963,10.688,18,10.599,18,10.5v-2c0-0.212-0.134-0.402-0.334-0.472
			C17.545,7.986,14.7,7,12,7C9.299,7,6.455,7.986,6.334,8.028C6.134,8.099,6,8.288,6,8.5v2c0,0.097,0.036,0.185,0.087,0.265
			c-0.014,0.115-0.033,0.226-0.044,0.344c-0.619,0.307-1.044,1.233-1.044,2.392C4.999,14.925,5.644,16,6.499,16z M12.5,17h-1
			c-0.276,0-0.5-0.224-0.5-0.5s0.224-0.5,0.5-0.5h1c0.276,0,0.5,0.224,0.5,0.5S12.776,17,12.5,17z M6.517,12
			c0.267,0,0.486-0.209,0.5-0.475c0.012-0.24,0.044-0.464,0.074-0.69C7.964,10.568,10.051,10,12,10c1.942,0,4.029,0.567,4.906,0.835
			c0.03,0.226,0.062,0.45,0.074,0.69C16.993,11.791,17.232,12,17.499,12c0.125,0,0.5,0.532,0.5,1.5c0,0.784-0.246,1.282-0.406,1.443
			c-0.019-0.025-0.038-0.049-0.053-0.069c-0.065-0.087-0.129-0.169-0.184-0.224c-0.019-0.019-0.043-0.028-0.064-0.043
			c-0.012-0.009-0.017-0.023-0.03-0.031c-0.009-0.006-0.02-0.004-0.029-0.009c-0.058-0.032-0.12-0.051-0.184-0.057
			c-0.012-0.001-0.022-0.006-0.034-0.007c-0.076-0.002-0.15,0.015-0.221,0.047c-0.006,0.003-0.012,0.001-0.018,0.004
			C15.882,15,15.478,15,14.5,15c-0.419,0-0.7-0.099-1.026-0.213C13.093,14.652,12.66,14.5,12,14.5s-1.093,0.152-1.474,0.287
			C10.2,14.901,9.919,15,9.401,15c-0.936,0.001-1.322,0.001-2.169-0.443c-0.007-0.003-0.015-0.002-0.021-0.005
			c-0.071-0.034-0.147-0.053-0.224-0.051c-0.005,0-0.008,0.002-0.013,0.003c-0.072,0.004-0.14,0.026-0.205,0.06
			c-0.009,0.005-0.019,0.003-0.027,0.008c-0.013,0.008-0.018,0.023-0.03,0.031c-0.022,0.016-0.048,0.026-0.067,0.046
			c-0.054,0.055-0.117,0.134-0.182,0.221c-0.016,0.021-0.036,0.047-0.056,0.074c-0.16-0.16-0.407-0.659-0.407-1.444
			C5.999,12.532,6.374,12,6.517,12z"/>
		<path d="M9.5,13h1c0.276,0,0.5-0.224,0.5-0.5S10.776,12,10.5,12h-1C9.224,12,9,12.224,9,12.5S9.224,13,9.5,13z"/>
		<path d="M13.5,13h1c0.276,0,0.5-0.224,0.5-0.5S14.776,12,14.5,12h-1c-0.276,0-0.5,0.224-0.5,0.5S13.224,13,13.5,13z"/>
		<path d="M17.066,6.794C16.237,4.343,14.484,3,12,3c-1.825,0-4.074,0.702-5.088,3.8C8.041,6.476,10.032,6,12,6
			C13.955,6,15.933,6.47,17.066,6.794z"/>
	</g>
</g>
<g id="Dispatcher_1">
</g>
<g id="Dispatcher_2">
</g>
<g id="Soldier">
</g>
<g id="Astronaut">
</g>
<g id="Hipster_Guy">
</g>
<g id="Hipster_Girl">
</g>
<g id="Worker">
</g>
<g id="Old_Man">
</g>
<g id="Punk">
</g>
<g id="Diver">
</g>
<g id="Artist">
</g>
<g id="Dictator">
</g>
<g id="Man_Hat">
</g>
<g id="Woman_Hat">
</g>
<g id="Graduated_Man">
</g>
<g id="Graduated_Woman">
</g>
<g id="Avatar_Chef">
</g>
<g id="Waiter">
</g>
<g id="Waitress">
</g>
<g id="Bllboy">
</g>
<g id="Santa">
</g>
<g id="Doctor">
</g>
<g id="Nurse">
</g>
<g id="Captain">
</g>
<g id="Farmer">
</g>
<g id="Maid">
</g>
<g id="Business_Man_2">
</g>
<g id="Business_Woman_2">
</g>
<g id="Cowboy">
</g>
<g id="Anonymus">
</g>
<g id="Batman">
</g>
<g id="Superman">
</g>
<g id="Captain_America">
</g>
<g id="Darth_Vader">
</g>
<g id="Harry_Potter">
</g>
<g id="Anonymus_2">
</g>
<g id="Scream">
</g>
<g id="Jason">
</g>
<g id="Charlie_Chaplin">
</g>
</svg>
