<?xml version="1.0" encoding="iso-8859-1"?>
<!-- Generator: Adobe Illustrator 19.2.1, SVG Export Plug-In . SVG Version: 6.00 Build 0)  -->
<svg version="1.1" xmlns="http://www.w3.org/2000/svg" xmlns:xlink="http://www.w3.org/1999/xlink" x="0px" y="0px"
	 viewBox="0 0 30 30" style="enable-background:new 0 0 30 30;" xml:space="preserve">
<g id="Cad_1">
</g>
<g id="Cad_2">
</g>
<g id="Cad_Pencil">
</g>
<g id="Cad_Compasses">
</g>
<g id="Tools_1">
</g>
<g id="Tools_2">
</g>
<g id="Ruler_1">
</g>
<g id="Ruler_2">
</g>
<g id="Workspace_1">
</g>
<g id="Workspace_2">
	<g>
		<g>
			<path d="M5.5,30h-5C0.224,30,0,29.776,0,29.5v-29C0,0.224,0.224,0,0.5,0h5C5.776,0,6,0.224,6,0.5v24C6,24.776,5.776,25,5.5,25
				S5,24.776,5,24.5V1H1v28h4.5C5.776,29,6,29.224,6,29.5S5.776,30,5.5,30z"/>
		</g>
		<g>
			<path d="M29.5,30h-24C5.224,30,5,29.776,5,29.5S5.224,29,5.5,29H29v-4H5.5C5.224,25,5,24.776,5,24.5S5.224,24,5.5,24h24
				c0.276,0,0.5,0.224,0.5,0.5v5C30,29.776,29.776,30,29.5,30z"/>
		</g>
		<g>
			<path d="M25.5,28c-0.276,0-0.5-0.224-0.5-0.5v-3c0-0.276,0.224-0.5,0.5-0.5s0.5,0.224,0.5,0.5v3C26,27.776,25.776,28,25.5,28z"/>
		</g>
		<g>
			<path d="M22.5,27c-0.276,0-0.5-0.224-0.5-0.5v-2c0-0.276,0.224-0.5,0.5-0.5s0.5,0.224,0.5,0.5v2C23,26.776,22.776,27,22.5,27z"/>
		</g>
		<g>
			<path d="M19.5,27c-0.276,0-0.5-0.224-0.5-0.5v-2c0-0.276,0.224-0.5,0.5-0.5s0.5,0.224,0.5,0.5v2C20,26.776,19.776,27,19.5,27z"/>
		</g>
		<g>
			<path d="M16.5,28c-0.276,0-0.5-0.224-0.5-0.5v-3c0-0.276,0.224-0.5,0.5-0.5s0.5,0.224,0.5,0.5v3C17,27.776,16.776,28,16.5,28z"/>
		</g>
		<g>
			<path d="M13.5,27c-0.276,0-0.5-0.224-0.5-0.5v-2c0-0.276,0.224-0.5,0.5-0.5s0.5,0.224,0.5,0.5v2C14,26.776,13.776,27,13.5,27z"/>
		</g>
		<g>
			<path d="M10.5,27c-0.276,0-0.5-0.224-0.5-0.5v-2c0-0.276,0.224-0.5,0.5-0.5s0.5,0.224,0.5,0.5v2C11,26.776,10.776,27,10.5,27z"/>
		</g>
		<g>
			<path d="M7.5,28C7.224,28,7,27.776,7,27.5v-3C7,24.224,7.224,24,7.5,24S8,24.224,8,24.5v3C8,27.776,7.776,28,7.5,28z"/>
		</g>
		<g>
			<path d="M5.5,23h-3C2.224,23,2,22.776,2,22.5S2.224,22,2.5,22h3C5.776,22,6,22.224,6,22.5S5.776,23,5.5,23z"/>
		</g>
		<g>
			<path d="M5.5,20h-2C3.224,20,3,19.776,3,19.5S3.224,19,3.5,19h2C5.776,19,6,19.224,6,19.5S5.776,20,5.5,20z"/>
		</g>
		<g>
			<path d="M5.5,17h-2C3.224,17,3,16.776,3,16.5S3.224,16,3.5,16h2C5.776,16,6,16.224,6,16.5S5.776,17,5.5,17z"/>
		</g>
		<g>
			<path d="M5.5,14h-3C2.224,14,2,13.776,2,13.5S2.224,13,2.5,13h3C5.776,13,6,13.224,6,13.5S5.776,14,5.5,14z"/>
		</g>
		<g>
			<path d="M5.5,11h-2C3.224,11,3,10.776,3,10.5S3.224,10,3.5,10h2C5.776,10,6,10.224,6,10.5S5.776,11,5.5,11z"/>
		</g>
		<g>
			<path d="M5.5,8h-2C3.224,8,3,7.776,3,7.5S3.224,7,3.5,7h2C5.776,7,6,7.224,6,7.5S5.776,8,5.5,8z"/>
		</g>
		<g>
			<path d="M5.5,5h-3C2.224,5,2,4.776,2,4.5S2.224,4,2.5,4h3C5.776,4,6,4.224,6,4.5S5.776,5,5.5,5z"/>
		</g>
		<g>
			<g>
				<path d="M10.5,4h-1C9.224,4,9,3.776,9,3.5S9.224,3,9.5,3h1C10.776,3,11,3.224,11,3.5S10.776,4,10.5,4z"/>
			</g>
			<g>
				<path d="M23.356,4h-2.143c-0.276,0-0.5-0.224-0.5-0.5s0.224-0.5,0.5-0.5h2.143c0.276,0,0.5,0.224,0.5,0.5S23.633,4,23.356,4z
					 M19.071,4h-2.143c-0.276,0-0.5-0.224-0.5-0.5s0.224-0.5,0.5-0.5h2.143c0.276,0,0.5,0.224,0.5,0.5S19.348,4,19.071,4z M14.785,4
					h-2.143c-0.276,0-0.5-0.224-0.5-0.5s0.224-0.5,0.5-0.5h2.143c0.276,0,0.5,0.224,0.5,0.5S15.062,4,14.785,4z"/>
			</g>
			<g>
				<path d="M26.5,5C26.224,5,26,4.776,26,4.5V4h-0.5C25.224,4,25,3.776,25,3.5S25.224,3,25.5,3h1C26.776,3,27,3.224,27,3.5v1
					C27,4.776,26.776,5,26.5,5z"/>
			</g>
			<g>
				<path d="M26.5,19.222c-0.276,0-0.5-0.224-0.5-0.5v-1.778c0-0.276,0.224-0.5,0.5-0.5s0.5,0.224,0.5,0.5v1.778
					C27,18.999,26.776,19.222,26.5,19.222z M26.5,15.667c-0.276,0-0.5-0.224-0.5-0.5v-1.777c0-0.276,0.224-0.5,0.5-0.5
					s0.5,0.224,0.5,0.5v1.777C27,15.443,26.776,15.667,26.5,15.667z M26.5,12.111c-0.276,0-0.5-0.224-0.5-0.5V9.833
					c0-0.276,0.224-0.5,0.5-0.5s0.5,0.224,0.5,0.5v1.778C27,11.888,26.776,12.111,26.5,12.111z M26.5,8.556
					c-0.276,0-0.5-0.224-0.5-0.5V6.278c0-0.276,0.224-0.5,0.5-0.5s0.5,0.224,0.5,0.5v1.778C27,8.332,26.776,8.556,26.5,8.556z"/>
			</g>
			<g>
				<path d="M26.5,22c-0.276,0-0.5-0.224-0.5-0.5v-1c0-0.276,0.224-0.5,0.5-0.5s0.5,0.224,0.5,0.5v1C27,21.776,26.776,22,26.5,22z"
					/>
			</g>
		</g>
		<g>
			<g>
				<path d="M18.5,13c-0.276,0-0.5-0.224-0.5-0.5V12h-0.5c-0.276,0-0.5-0.224-0.5-0.5s0.224-0.5,0.5-0.5h1
					c0.276,0,0.5,0.224,0.5,0.5v1C19,12.776,18.776,13,18.5,13z"/>
			</g>
			<g>
				<path d="M15.5,12h-2c-0.276,0-0.5-0.224-0.5-0.5s0.224-0.5,0.5-0.5h2c0.276,0,0.5,0.224,0.5,0.5S15.776,12,15.5,12z"/>
			</g>
			<g>
				<path d="M10.5,13c-0.276,0-0.5-0.224-0.5-0.5v-1c0-0.276,0.224-0.5,0.5-0.5h1c0.276,0,0.5,0.224,0.5,0.5S11.776,12,11.5,12H11
					v0.5C11,12.776,10.776,13,10.5,13z"/>
			</g>
			<g>
				<path d="M10.5,17c-0.276,0-0.5-0.224-0.5-0.5v-2c0-0.276,0.224-0.5,0.5-0.5s0.5,0.224,0.5,0.5v2C11,16.776,10.776,17,10.5,17z"
					/>
			</g>
			<g>
				<path d="M11.5,20h-1c-0.276,0-0.5-0.224-0.5-0.5v-1c0-0.276,0.224-0.5,0.5-0.5s0.5,0.224,0.5,0.5V19h0.5
					c0.276,0,0.5,0.224,0.5,0.5S11.776,20,11.5,20z"/>
			</g>
			<g>
				<path d="M15.5,20h-2c-0.276,0-0.5-0.224-0.5-0.5s0.224-0.5,0.5-0.5h2c0.276,0,0.5,0.224,0.5,0.5S15.776,20,15.5,20z"/>
			</g>
			<g>
				<path d="M18.5,20h-1c-0.276,0-0.5-0.224-0.5-0.5s0.224-0.5,0.5-0.5H18v-0.5c0-0.276,0.224-0.5,0.5-0.5s0.5,0.224,0.5,0.5v1
					C19,19.776,18.776,20,18.5,20z"/>
			</g>
			<g>
				<path d="M18.5,17c-0.276,0-0.5-0.224-0.5-0.5v-2c0-0.276,0.224-0.5,0.5-0.5s0.5,0.224,0.5,0.5v2C19,16.776,18.776,17,18.5,17z"
					/>
			</g>
		</g>
	</g>
</g>
<g id="Cad_3">
</g>
<g id="_x33_D_Box">
</g>
<g id="Section_Symbol">
</g>
<g id="Outlet_Symbol">
</g>
<g id="Cad_File">
</g>
<g id="Blueprint">
</g>
<g id="Construction_Plan">
</g>
<g id="Roof_Plan">
</g>
<g id="House_Construction">
</g>
<g id="Building_Construction">
</g>
<g id="Work_Table">
</g>
<g id="Table_Cad">
</g>
<g id="House_Plan">
</g>
<g id="Tape_Measure">
</g>
<g id="Cad_Paper">
</g>
<g id="Cad_Papers">
</g>
<g id="Stairs">
</g>
<g id="Pillar">
</g>
<g id="Bricks">
</g>
<g id="Pantheon">
</g>
<g id="House">
</g>
<g id="Skyscraper">
</g>
<g id="Building">
</g>
</svg>
