<?xml version="1.0" encoding="iso-8859-1"?>
<!-- Generator: Adobe Illustrator 19.2.1, SVG Export Plug-In . SVG Version: 6.00 Build 0)  -->
<svg version="1.1" xmlns="http://www.w3.org/2000/svg" xmlns:xlink="http://www.w3.org/1999/xlink" x="0px" y="0px"
	 viewBox="0 0 30 30" style="enable-background:new 0 0 30 30;" xml:space="preserve">
<g id="Cad_1">
</g>
<g id="Cad_2">
</g>
<g id="Cad_Pencil">
</g>
<g id="Cad_Compasses">
</g>
<g id="Tools_1">
</g>
<g id="Tools_2">
</g>
<g id="Ruler_1">
</g>
<g id="Ruler_2">
</g>
<g id="Workspace_1">
</g>
<g id="Workspace_2">
</g>
<g id="Cad_3">
</g>
<g id="_x33_D_Box">
</g>
<g id="Section_Symbol">
</g>
<g id="Outlet_Symbol">
</g>
<g id="Cad_File">
</g>
<g id="Blueprint">
</g>
<g id="Construction_Plan">
</g>
<g id="Roof_Plan">
</g>
<g id="House_Construction">
</g>
<g id="Building_Construction">
</g>
<g id="Work_Table">
	<g>
		<g>
			<path d="M28.5,16h-28c-0.161,0-0.312-0.077-0.406-0.208c-0.094-0.13-0.12-0.298-0.068-0.45l5-15C5.094,0.138,5.285,0,5.5,0h18
				c0.215,0,0.406,0.138,0.474,0.342l5,15c0.051,0.152,0.025,0.32-0.068,0.45C28.812,15.923,28.661,16,28.5,16z M1.194,15h26.612
				L23.14,1H5.86L1.194,15z"/>
		</g>
		<g>
			<path d="M6.5,30C6.224,30,6,29.776,6,29.5V15.75c0-0.276,0.224-0.5,0.5-0.5S7,15.474,7,15.75V29.5C7,29.776,6.776,30,6.5,30z"/>
		</g>
		<g>
			<path d="M22.5,30c-0.276,0-0.5-0.224-0.5-0.5V15.75c0-0.276,0.224-0.5,0.5-0.5s0.5,0.224,0.5,0.5V29.5
				C23,29.776,22.776,30,22.5,30z"/>
		</g>
		<g>
			<path d="M22,24H7c-0.276,0-0.5-0.224-0.5-0.5S6.724,23,7,23h15c0.276,0,0.5,0.224,0.5,0.5S22.276,24,22,24z"/>
		</g>
		<g>
			<path d="M23.5,14h-7.205c-0.271,0-0.541-0.063-0.783-0.185l-2.273-1.389C13.09,12.336,13,12.174,13,12s0.09-0.336,0.239-0.427
				l2.236-1.368C15.754,10.063,16.024,10,16.295,10H23.5c0.276,0,0.5,0.224,0.5,0.5v3C24,13.776,23.776,14,23.5,14z M14.458,12
				l1.539,0.941C16.063,12.973,16.179,13,16.295,13H23v-2h-6.705c-0.116,0-0.232,0.027-0.335,0.079L14.458,12z"/>
		</g>
		<g>
			<path d="M10.5,14h-4c-0.15,0-0.292-0.067-0.387-0.183c-0.095-0.116-0.133-0.269-0.104-0.415l2-10C8.057,3.168,8.262,3,8.5,3h4
				c0.15,0,0.292,0.067,0.387,0.183c0.095,0.116,0.133,0.269,0.104,0.415l-2,10C10.943,13.832,10.738,14,10.5,14z M7.11,13h2.98
				l1.8-9H8.91L7.11,13z"/>
		</g>
		<g>
			<path d="M12,6h-1.5C10.224,6,10,5.776,10,5.5S10.224,5,10.5,5H12c0.276,0,0.5,0.224,0.5,0.5S12.276,6,12,6z"/>
		</g>
		<g>
			<path d="M11.5,8H10C9.724,8,9.5,7.776,9.5,7.5S9.724,7,10,7h1.5C11.776,7,12,7.224,12,7.5S11.776,8,11.5,8z"/>
		</g>
		<g>
			<path d="M11,10H9.5C9.224,10,9,9.776,9,9.5S9.224,9,9.5,9H11c0.276,0,0.5,0.224,0.5,0.5S11.276,10,11,10z"/>
		</g>
		<g>
			<path d="M10.5,12H9c-0.276,0-0.5-0.224-0.5-0.5S8.724,11,9,11h1.5c0.276,0,0.5,0.224,0.5,0.5S10.776,12,10.5,12z"/>
		</g>
	</g>
</g>
<g id="Table_Cad">
</g>
<g id="House_Plan">
</g>
<g id="Tape_Measure">
</g>
<g id="Cad_Paper">
</g>
<g id="Cad_Papers">
</g>
<g id="Stairs">
</g>
<g id="Pillar">
</g>
<g id="Bricks">
</g>
<g id="Pantheon">
</g>
<g id="House">
</g>
<g id="Skyscraper">
</g>
<g id="Building">
</g>
</svg>
