<?xml version="1.0" encoding="iso-8859-1"?>
<!-- Generator: Adobe Illustrator 19.2.1, SVG Export Plug-In . SVG Version: 6.00 Build 0)  -->
<svg version="1.1" xmlns="http://www.w3.org/2000/svg" xmlns:xlink="http://www.w3.org/1999/xlink" x="0px" y="0px"
	 viewBox="0 0 30 30" style="enable-background:new 0 0 30 30;" xml:space="preserve">
<g id="Man_1">
</g>
<g id="Woman_1">
</g>
<g id="Man_2">
</g>
<g id="Woman_2">
</g>
<g id="Bald_Man">
</g>
<g id="Man_Glasses">
</g>
<g id="Woman_Glasses">
</g>
<g id="Man_Beard">
</g>
<g id="Man_Cap">
</g>
<g id="Woman_Cap">
</g>
<g id="Man_3">
</g>
<g id="Woman_3">
</g>
<g id="Men_4">
</g>
<g id="Woman_4">
</g>
<g id="Business_Man_1">
</g>
<g id="Business_Woman_1">
</g>
<g id="Firefigyhter">
</g>
<g id="Policeman">
</g>
<g id="Criminal">
</g>
<g id="Prisoner">
</g>
<g id="Woodsman">
</g>
<g id="Dispatcher_1">
</g>
<g id="Dispatcher_2">
</g>
<g id="Soldier">
</g>
<g id="Astronaut">
</g>
<g id="Hipster_Guy">
</g>
<g id="Hipster_Girl">
</g>
<g id="Worker">
	<g>
		<path d="M15,0C6.729,0,0,6.729,0,15c0,8.271,6.729,15,15,15c8.271,0,15-6.729,15-15C30,6.729,23.271,0,15,0z M24.866,24.921
			c-0.232-0.079-0.526-0.175-0.781-0.257c-0.191-0.061-0.352-0.112-0.427-0.139l-1.493-0.497c-0.046-0.016-0.108-0.051-0.165-0.08
			v3.157c-0.325,0.189-0.659,0.362-1,0.524v-4.243c0-0.037,0.013-0.07,0.021-0.105c-0.014-0.011-0.028-0.023-0.042-0.034
			c-0.578,0.62-1.246,1.146-1.979,1.577v3.586c-0.328,0.098-0.662,0.184-1,0.258v-3.332c-0.315,0.134-0.637,0.255-0.971,0.353
			c-0.089,0.029-0.215,0.066-0.341,0.099c-0.187,0.045-0.35,0.08-0.516,0.108C15.784,25.962,15.356,26,15,26
			c-0.419,0-0.745-0.049-1.069-0.104c-0.167-0.028-0.332-0.064-0.496-0.104c-0.146-0.037-0.273-0.075-0.4-0.116
			c-0.356-0.105-0.7-0.236-1.035-0.381v3.372c-0.338-0.074-0.672-0.16-1-0.258v-3.626c-0.727-0.427-1.391-0.943-1.964-1.551
			c-0.019,0.016-0.038,0.031-0.057,0.046C8.986,23.316,9,23.349,9,23.387v4.243c-0.341-0.163-0.675-0.335-1-0.524v-3.157
			c-0.054,0.027-0.114,0.062-0.158,0.077l-1.507,0.503c-0.068,0.023-0.229,0.075-0.419,0.136c-0.323,0.103-0.582,0.188-0.783,0.256
			C2.582,22.383,1,18.873,1,15C1,7.28,7.28,1,15,1s14,6.28,14,14C29,18.874,27.417,22.384,24.866,24.921z"/>
		<path d="M23.164,14.227l0.56-0.28c0.144-0.072,0.244-0.208,0.27-0.367c0.026-0.159-0.026-0.32-0.14-0.434l-0.856-0.856
			c-0.1-3.396-2.603-7.072-6.195-7.271c0.1,0.157,0.154,0.277,0.16,0.293C16.987,5.372,17,5.436,17,5.5V8
			c0,0.499-0.19,0.949-0.493,1.3C17.967,9.897,19,11.328,19,13c0,2.206-1.794,4-4,4h1.5c1.286,0,2.203-0.412,3.224-1.053
			l2.035-1.018C21.831,14.97,21.911,15,22,15h0.5c0.169,0,0.5,0.604,0.5,2c0,1.224-0.703,2-1,2c-0.109,0-0.203,0.021-0.288,0.047
			c-0.101-0.045-0.214-0.06-0.322-0.034c-0.17,0.038-0.307,0.162-0.363,0.326c-0.74,2.18-2.404,3.795-4.574,4.436
			c-0.085,0.027-0.17,0.053-0.248,0.073c-0.121,0.028-0.241,0.056-0.366,0.076C15.561,23.972,15.247,24,15,24
			c-0.246,0-0.44-0.025-0.736-0.076c-0.123-0.021-0.243-0.048-0.356-0.074c-0.086-0.022-0.171-0.048-0.267-0.078
			c-2.233-0.659-3.935-2.275-4.668-4.433C8.904,19.137,8.714,19,8.5,19H8c-0.297,0-1-0.776-1-2c0-1.396,0.331-2,0.5-2H8
			c0.09,0,0.169-0.03,0.242-0.071l1.993,0.995C11.297,16.588,12.214,17,13.5,17H15c-2.206,0-4-1.794-4-4
			c0-1.672,1.033-3.103,2.492-3.7C13.19,8.949,13,8.499,13,8V5.5c0-0.064,0.013-0.128,0.037-0.188
			c0.006-0.016,0.061-0.136,0.161-0.293C9.606,5.218,7.103,8.894,7.003,12.29l-0.856,0.856c-0.114,0.114-0.166,0.275-0.14,0.434
			s0.126,0.295,0.27,0.367l0.56,0.28C6.299,14.637,6,15.595,6,17c0,1.57,0.953,3,2,3h0.15c0.897,2.299,2.776,4.013,5.197,4.727
			c0.104,0.034,0.208,0.065,0.322,0.094c0.142,0.034,0.285,0.065,0.428,0.09C14.375,24.957,14.653,25,15,25
			c0.305,0,0.672-0.033,1.006-0.09c0.145-0.024,0.286-0.056,0.438-0.092c0.104-0.026,0.209-0.058,0.303-0.088
			c2.344-0.692,4.176-2.385,5.083-4.678C21.899,20.037,21.958,20.016,22,20c1.047,0,2-1.43,2-3
			C24,15.596,23.701,14.637,23.164,14.227z"/>
		<circle cx="15" cy="13" r="3"/>
		<path d="M15,9c0.551,0,1-0.449,1-1V5.616C15.901,5.438,15.595,5,15,5c-0.599,0-0.902,0.437-1,0.614V8C14,8.551,14.449,9,15,9z"/>
	</g>
</g>
<g id="Old_Man">
</g>
<g id="Punk">
</g>
<g id="Diver">
</g>
<g id="Artist">
</g>
<g id="Dictator">
</g>
<g id="Man_Hat">
</g>
<g id="Woman_Hat">
</g>
<g id="Graduated_Man">
</g>
<g id="Graduated_Woman">
</g>
<g id="Avatar_Chef">
</g>
<g id="Waiter">
</g>
<g id="Waitress">
</g>
<g id="Bllboy">
</g>
<g id="Santa">
</g>
<g id="Doctor">
</g>
<g id="Nurse">
</g>
<g id="Captain">
</g>
<g id="Farmer">
</g>
<g id="Maid">
</g>
<g id="Business_Man_2">
</g>
<g id="Business_Woman_2">
</g>
<g id="Cowboy">
</g>
<g id="Anonymus">
</g>
<g id="Batman">
</g>
<g id="Superman">
</g>
<g id="Captain_America">
</g>
<g id="Darth_Vader">
</g>
<g id="Harry_Potter">
</g>
<g id="Anonymus_2">
</g>
<g id="Scream">
</g>
<g id="Jason">
</g>
<g id="Charlie_Chaplin">
</g>
</svg>
