<?xml version="1.0" encoding="iso-8859-1"?>
<!-- Generator: Adobe Illustrator 19.2.1, SVG Export Plug-In . SVG Version: 6.00 Build 0)  -->
<svg version="1.1" xmlns="http://www.w3.org/2000/svg" xmlns:xlink="http://www.w3.org/1999/xlink" x="0px" y="0px"
	 viewBox="0 0 30 30" style="enable-background:new 0 0 30 30;" xml:space="preserve">
<g id="Cad_1">
</g>
<g id="Cad_2">
</g>
<g id="Cad_Pencil">
</g>
<g id="Cad_Compasses">
</g>
<g id="Tools_1">
</g>
<g id="Tools_2">
</g>
<g id="Ruler_1">
</g>
<g id="Ruler_2">
</g>
<g id="Workspace_1">
</g>
<g id="Workspace_2">
	<g>
		<path d="M29.5,24H26v3.5c0,0.276-0.224,0.5-0.5,0.5S25,27.776,25,27.5V24h-2v2.5c0,0.276-0.224,0.5-0.5,0.5S22,26.776,22,26.5V24
			h-2v2.5c0,0.276-0.224,0.5-0.5,0.5S19,26.776,19,26.5V24h-2v3.5c0,0.276-0.224,0.5-0.5,0.5S16,27.776,16,27.5V24h-2v2.5
			c0,0.276-0.224,0.5-0.5,0.5S13,26.776,13,26.5V24h-2v2.5c0,0.276-0.224,0.5-0.5,0.5S10,26.776,10,26.5V24H8v3.5
			C8,27.776,7.776,28,7.5,28S7,27.776,7,27.5V24H6v-1H2.5C2.224,23,2,22.776,2,22.5S2.224,22,2.5,22H6v-2H3.5
			C3.224,20,3,19.776,3,19.5S3.224,19,3.5,19H6v-2H3.5C3.224,17,3,16.776,3,16.5S3.224,16,3.5,16H6v-2H2.5C2.224,14,2,13.776,2,13.5
			S2.224,13,2.5,13H6v-2H3.5C3.224,11,3,10.776,3,10.5S3.224,10,3.5,10H6V8H3.5C3.224,8,3,7.776,3,7.5S3.224,7,3.5,7H6V5H2.5
			C2.224,5,2,4.776,2,4.5S2.224,4,2.5,4H6V0.5C6,0.224,5.776,0,5.5,0h-5C0.224,0,0,0.224,0,0.5v29C0,29.776,0.224,30,0.5,30h5h24
			c0.276,0,0.5-0.224,0.5-0.5v-5C30,24.224,29.776,24,29.5,24z"/>
		<g>
			<path d="M11,3.5C11,3.224,10.776,3,10.5,3h-1C9.224,3,9,3.224,9,3.5S9.224,4,9.5,4h1C10.776,4,11,3.776,11,3.5z"/>
			<path d="M19.071,3h-2.143c-0.276,0-0.5,0.224-0.5,0.5s0.224,0.5,0.5,0.5h2.143c0.276,0,0.5-0.224,0.5-0.5S19.348,3,19.071,3z"/>
			<path d="M23.356,3h-2.143c-0.276,0-0.5,0.224-0.5,0.5s0.224,0.5,0.5,0.5h2.143c0.276,0,0.5-0.224,0.5-0.5S23.633,3,23.356,3z"/>
			<path d="M15.285,3.5c0-0.276-0.224-0.5-0.5-0.5h-2.143c-0.276,0-0.5,0.224-0.5,0.5s0.224,0.5,0.5,0.5h2.143
				C15.062,4,15.285,3.776,15.285,3.5z"/>
			<path d="M26.5,3h-1C25.224,3,25,3.224,25,3.5S25.224,4,25.5,4H26v0.5C26,4.776,26.224,5,26.5,5S27,4.776,27,4.5v-1
				C27,3.224,26.776,3,26.5,3z"/>
			<path d="M26.5,9.333c-0.276,0-0.5,0.224-0.5,0.5v1.778c0,0.276,0.224,0.5,0.5,0.5s0.5-0.224,0.5-0.5V9.833
				C27,9.557,26.776,9.333,26.5,9.333z"/>
			<path d="M26.5,12.889c-0.276,0-0.5,0.224-0.5,0.5v1.777c0,0.276,0.224,0.5,0.5,0.5s0.5-0.224,0.5-0.5v-1.777
				C27,13.113,26.776,12.889,26.5,12.889z"/>
			<path d="M26.5,5.778c-0.276,0-0.5,0.224-0.5,0.5v1.778c0,0.276,0.224,0.5,0.5,0.5s0.5-0.224,0.5-0.5V6.278
				C27,6.001,26.776,5.778,26.5,5.778z"/>
			<path d="M26.5,16.444c-0.276,0-0.5,0.224-0.5,0.5v1.778c0,0.276,0.224,0.5,0.5,0.5s0.5-0.224,0.5-0.5v-1.778
				C27,16.668,26.776,16.444,26.5,16.444z"/>
			<path d="M26.5,20c-0.276,0-0.5,0.224-0.5,0.5v1c0,0.276,0.224,0.5,0.5,0.5s0.5-0.224,0.5-0.5v-1C27,20.224,26.776,20,26.5,20z"/>
			<path d="M18.5,11h-1c-0.276,0-0.5,0.224-0.5,0.5s0.224,0.5,0.5,0.5H18v0.5c0,0.276,0.224,0.5,0.5,0.5s0.5-0.224,0.5-0.5v-1
				C19,11.224,18.776,11,18.5,11z"/>
			<path d="M15.5,11h-2c-0.276,0-0.5,0.224-0.5,0.5s0.224,0.5,0.5,0.5h2c0.276,0,0.5-0.224,0.5-0.5S15.776,11,15.5,11z"/>
			<path d="M11.5,11h-1c-0.276,0-0.5,0.224-0.5,0.5v1c0,0.276,0.224,0.5,0.5,0.5s0.5-0.224,0.5-0.5V12h0.5
				c0.276,0,0.5-0.224,0.5-0.5S11.776,11,11.5,11z"/>
			<path d="M10.5,17c0.276,0,0.5-0.224,0.5-0.5v-2c0-0.276-0.224-0.5-0.5-0.5S10,14.224,10,14.5v2C10,16.776,10.224,17,10.5,17z"/>
			<path d="M11.5,19H11v-0.5c0-0.276-0.224-0.5-0.5-0.5S10,18.224,10,18.5v1c0,0.276,0.224,0.5,0.5,0.5h1c0.276,0,0.5-0.224,0.5-0.5
				S11.776,19,11.5,19z"/>
			<path d="M15.5,19h-2c-0.276,0-0.5,0.224-0.5,0.5s0.224,0.5,0.5,0.5h2c0.276,0,0.5-0.224,0.5-0.5S15.776,19,15.5,19z"/>
			<path d="M18.5,18c-0.276,0-0.5,0.224-0.5,0.5V19h-0.5c-0.276,0-0.5,0.224-0.5,0.5s0.224,0.5,0.5,0.5h1c0.276,0,0.5-0.224,0.5-0.5
				v-1C19,18.224,18.776,18,18.5,18z"/>
			<path d="M18.5,14c-0.276,0-0.5,0.224-0.5,0.5v2c0,0.276,0.224,0.5,0.5,0.5s0.5-0.224,0.5-0.5v-2C19,14.224,18.776,14,18.5,14z"/>
		</g>
	</g>
</g>
<g id="Cad_3">
</g>
<g id="_x33_D_Box">
</g>
<g id="Section_Symbol">
</g>
<g id="Outlet_Symbol">
</g>
<g id="Cad_File">
</g>
<g id="Blueprint">
</g>
<g id="Construction_Plan">
</g>
<g id="Roof_Plan">
</g>
<g id="House_Construction">
</g>
<g id="Building_Construction">
</g>
<g id="Work_Table">
</g>
<g id="Table_Cad">
</g>
<g id="House_Plan">
</g>
<g id="Tape_Measure">
</g>
<g id="Cad_Paper">
</g>
<g id="Cad_Papers">
</g>
<g id="Stairs">
</g>
<g id="Pillar">
</g>
<g id="Bricks">
</g>
<g id="Pantheon">
</g>
<g id="House">
</g>
<g id="Skyscraper">
</g>
<g id="Building">
</g>
</svg>
