<?xml version="1.0" encoding="iso-8859-1"?>
<!-- Generator: Adobe Illustrator 19.2.1, SVG Export Plug-In . SVG Version: 6.00 Build 0)  -->
<svg version="1.1" xmlns="http://www.w3.org/2000/svg" xmlns:xlink="http://www.w3.org/1999/xlink" x="0px" y="0px"
	 viewBox="0 0 30 30" style="enable-background:new 0 0 30 30;" xml:space="preserve">
<g id="Cutting_Board_1">
</g>
<g id="Cutting_Board_2">
</g>
<g id="Chef_x27_s_Hat_1">
</g>
<g id="Chef_x27_s_Hat_2">
</g>
<g id="Kitchen_Scale">
</g>
<g id="Measuring_Cup">
</g>
<g id="Pot_1">
</g>
<g id="Pot_2">
</g>
<g id="Wok_1">
</g>
<g id="Wok_2">
</g>
<g id="Teapot">
</g>
<g id="Plate">
</g>
<g id="Sauce_Boat">
</g>
<g id="Cauldron">
</g>
<g id="Cookbook">
</g>
<g id="Salt_Pot">
</g>
<g id="Pepper_Pot_1">
</g>
<g id="Pepper_Pot_2">
</g>
<g id="Egg_Timer">
</g>
<g id="Olive_Oil_Pot">
</g>
<g id="Pancake_Griddle">
</g>
<g id="Pan">
</g>
<g id="Kettle">
</g>
<g id="Microwave">
</g>
<g id="Cooker">
</g>
<g id="Meat_Grinder">
</g>
<g id="Coffee_Maker">
</g>
<g id="Household_Mixer">
</g>
<g id="Stand_Mixer">
</g>
<g id="Hand_Blender">
</g>
<g id="Blender">
	<g>
		<g>
			<path d="M18.715,30h-7.43c-0.981,0-1.923-0.416-2.584-1.14c-0.662-0.725-0.99-1.7-0.901-2.677l0.537-5.91
				C8.455,18.978,9.525,18,10.827,18h8.347c1.302,0,2.372,0.978,2.49,2.273l0.537,5.91c0.089,0.977-0.24,1.953-0.901,2.677
				C20.638,29.584,19.696,30,18.715,30z M10.827,19c-0.781,0-1.423,0.586-1.494,1.364l-0.537,5.91
				c-0.064,0.708,0.164,1.387,0.644,1.912C9.918,28.711,10.574,29,11.285,29h7.43c0.711,0,1.367-0.289,1.846-0.814
				c0.479-0.525,0.708-1.204,0.644-1.912l-0.537-5.91C20.597,19.586,19.955,19,19.173,19H10.827z"/>
		</g>
		<g>
			<path d="M16.983,19h-3.536c-1.817,0-3.315-1.364-3.485-3.173L8.717,2.547c-0.013-0.14,0.034-0.279,0.128-0.383
				C8.94,2.059,9.075,2,9.215,2h12c0.141,0,0.275,0.059,0.37,0.164c0.095,0.104,0.141,0.243,0.128,0.383l-1.245,13.28
				C20.298,17.636,18.8,19,16.983,19z M9.764,3l1.194,12.733C11.079,17.025,12.149,18,13.447,18h3.536
				c1.298,0,2.368-0.975,2.489-2.267L20.666,3H9.764z"/>
		</g>
		<g>
			<path d="M21.215,3c-0.276,0-0.5-0.224-0.5-0.5c0-0.509-1.941-1.5-5.5-1.5s-5.5,0.991-5.5,1.5c0,0.276-0.224,0.5-0.5,0.5
				s-0.5-0.224-0.5-0.5c0-3.282,13-3.282,13,0C21.715,2.776,21.492,3,21.215,3z"/>
		</g>
		<g>
			<path d="M12.215,5h-2.5c-0.276,0-0.5-0.224-0.5-0.5S9.439,4,9.715,4h2.5c0.276,0,0.5,0.224,0.5,0.5S12.492,5,12.215,5z"/>
		</g>
		<g>
			<path d="M12.215,7h-2.5c-0.276,0-0.5-0.224-0.5-0.5S9.439,6,9.715,6h2.5c0.276,0,0.5,0.224,0.5,0.5S12.492,7,12.215,7z"/>
		</g>
		<g>
			<path d="M12.215,9h-2c-0.276,0-0.5-0.224-0.5-0.5S9.939,8,10.215,8h2c0.276,0,0.5,0.224,0.5,0.5S12.492,9,12.215,9z"/>
		</g>
		<g>
			<path d="M12.215,11h-2c-0.276,0-0.5-0.224-0.5-0.5s0.224-0.5,0.5-0.5h2c0.276,0,0.5,0.224,0.5,0.5S12.492,11,12.215,11z"/>
		</g>
		<g>
			<path d="M12.215,13h-2c-0.276,0-0.5-0.224-0.5-0.5s0.224-0.5,0.5-0.5h2c0.276,0,0.5,0.224,0.5,0.5S12.492,13,12.215,13z"/>
		</g>
		<g>
			<path d="M12.215,15h-1.5c-0.276,0-0.5-0.224-0.5-0.5s0.224-0.5,0.5-0.5h1.5c0.276,0,0.5,0.224,0.5,0.5S12.492,15,12.215,15z"/>
		</g>
		<g>
			<path d="M12.215,17h-1.5c-0.276,0-0.5-0.224-0.5-0.5s0.224-0.5,0.5-0.5h1.5c0.276,0,0.5,0.224,0.5,0.5S12.492,17,12.215,17z"/>
		</g>
		<g>
			<path d="M15.215,26c-1.378,0-2.5-1.122-2.5-2.5s1.122-2.5,2.5-2.5s2.5,1.122,2.5,2.5S16.594,26,15.215,26z M15.215,22
				c-0.827,0-1.5,0.673-1.5,1.5s0.673,1.5,1.5,1.5s1.5-0.673,1.5-1.5S16.042,22,15.215,22z"/>
		</g>
		<g>
			<path d="M10.715,22c-0.551,0-1-0.449-1-1s0.449-1,1-1s1,0.449,1,1S11.267,22,10.715,22z M10.715,21
				C10.715,21,10.715,21,10.715,21l0.5,0L10.715,21z"/>
		</g>
	</g>
</g>
<g id="Cooker_Hood">
</g>
<g id="Refrigerator">
</g>
<g id="Freezer">
</g>
<g id="Apron">
</g>
<g id="Oven_Gloves">
</g>
<g id="Rolling_Pin">
</g>
<g id="Sieve">
</g>
<g id="Tea_Sieve">
</g>
<g id="Grater">
</g>
<g id="Knife_Holder">
</g>
<g id="Funnel">
</g>
<g id="Kitchen_Clock">
</g>
<g id="Lemon_Juicer">
</g>
<g id="Pastry_Bag_1">
</g>
<g id="Pastry_Bag_2">
</g>
<g id="Corkscrew">
</g>
<g id="Bottle_Opener">
</g>
<g id="Service">
</g>
<g id="Chopsticks">
</g>
<g id="Hatchet">
</g>
<g id="Filleting_Knife">
</g>
<g id="Bread_Knife">
</g>
<g id="Herb_Knife">
</g>
<g id="Whetting">
</g>
<g id="Cake_Knife">
</g>
<g id="Layer_58">
</g>
<g id="Ladle">
</g>
<g id="Sauce_Spoon">
</g>
<g id="Egg_Beater">
</g>
<g id="Meat_Fork">
</g>
<g id="Kitchen_Spoon_1">
</g>
<g id="Kitchen_Spoon_2">
</g>
<g id="Pizza_Cutter">
</g>
<g id="Potato_Musher">
</g>
<g id="Peeler">
</g>
<g id="Honey_Dipper">
</g>
<g id="Fork">
</g>
<g id="Knife">
</g>
<g id="Spoon">
</g>
<g id="Cutlery_Set">
</g>
<g id="Sugar_Bowl">
</g>
<g id="Matches">
</g>
<g id="Cezve">
</g>
</svg>
