<?xml version="1.0" encoding="iso-8859-1"?>
<!-- Generator: Adobe Illustrator 19.2.1, SVG Export Plug-In . SVG Version: 6.00 Build 0)  -->
<svg version="1.1" xmlns="http://www.w3.org/2000/svg" xmlns:xlink="http://www.w3.org/1999/xlink" x="0px" y="0px"
	 viewBox="0 0 30 30" style="enable-background:new 0 0 30 30;" xml:space="preserve">
<g id="Cutting_Board_1">
</g>
<g id="Cutting_Board_2">
</g>
<g id="Chef_x27_s_Hat_1">
</g>
<g id="Chef_x27_s_Hat_2">
</g>
<g id="Kitchen_Scale">
</g>
<g id="Measuring_Cup">
</g>
<g id="Pot_1">
</g>
<g id="Pot_2">
</g>
<g id="Wok_1">
</g>
<g id="Wok_2">
</g>
<g id="Teapot">
</g>
<g id="Plate">
</g>
<g id="Sauce_Boat">
</g>
<g id="Cauldron">
</g>
<g id="Cookbook">
</g>
<g id="Salt_Pot">
</g>
<g id="Pepper_Pot_1">
</g>
<g id="Pepper_Pot_2">
</g>
<g id="Egg_Timer">
</g>
<g id="Olive_Oil_Pot">
</g>
<g id="Pancake_Griddle">
</g>
<g id="Pan">
</g>
<g id="Kettle">
</g>
<g id="Microwave">
</g>
<g id="Cooker">
</g>
<g id="Meat_Grinder">
</g>
<g id="Coffee_Maker">
</g>
<g id="Household_Mixer">
</g>
<g id="Stand_Mixer">
</g>
<g id="Hand_Blender">
</g>
<g id="Blender">
</g>
<g id="Cooker_Hood">
</g>
<g id="Refrigerator">
</g>
<g id="Freezer">
</g>
<g id="Apron">
</g>
<g id="Oven_Gloves">
</g>
<g id="Rolling_Pin">
</g>
<g id="Sieve">
</g>
<g id="Tea_Sieve">
</g>
<g id="Grater">
</g>
<g id="Knife_Holder">
</g>
<g id="Funnel">
</g>
<g id="Kitchen_Clock">
</g>
<g id="Lemon_Juicer">
</g>
<g id="Pastry_Bag_1">
</g>
<g id="Pastry_Bag_2">
</g>
<g id="Corkscrew">
</g>
<g id="Bottle_Opener">
	<g>
		<g>
			<path d="M14.5,30c-1.409,0-3.5-0.84-3.5-2l0.019-0.264c0.326-4.432,0.636-8.617-0.396-12.361
				c-0.479-1.738-1.256-3.386-2.31-4.896c-0.521-0.747-0.813-1.4-0.873-1.94L7.026,4.755C6.893,3.532,7.284,2.309,8.1,1.399
				C8.896,0.51,10.033,0,11.218,0h6.564c1.185,0,2.321,0.51,3.118,1.399c0.815,0.909,1.207,2.133,1.073,3.355l-0.413,3.783
				c-0.06,0.542-0.354,1.195-0.874,1.941c-1.054,1.511-1.83,3.157-2.308,4.894c-1.033,3.745-0.724,7.932-0.396,12.364l0.017,0.226
				C18,29.16,15.909,30,14.5,30z M11.218,1c-0.914,0-1.757,0.379-2.374,1.066C8.218,2.766,7.918,3.705,8.021,4.646l0.413,3.783
				c0.028,0.257,0.172,0.721,0.699,1.478c1.119,1.604,1.944,3.354,2.454,5.203c1.077,3.911,0.762,8.181,0.429,12.7l-0.017,0.228
				C12.047,28.271,13.229,29,14.5,29s2.453-0.729,2.5-1.005l-0.016-0.184c-0.333-4.521-0.648-8.793,0.43-12.704
				c0.509-1.846,1.333-3.596,2.452-5.2c0.412-0.59,0.66-1.115,0.7-1.479l0.413-3.783c0.103-0.94-0.197-1.88-0.823-2.579
				C19.539,1.379,18.696,1,17.782,1H11.218z"/>
		</g>
		<g>
			<circle cx="14.5" cy="26.5" r="0.5"/>
		</g>
		<g>
			<path d="M16.86,10H15.5C15.224,10,15,9.776,15,9.5V9h-1v0.5c0,0.276-0.224,0.5-0.5,0.5h-1.36c-1.188,0-2.219-0.845-2.451-2.01
				L9.01,4.598C9,3.121,10.121,2,11.5,2h6C18.879,2,20,3.121,20,4.5l-0.688,3.49C19.079,9.155,18.048,10,16.86,10z M16,9h0.86
				c0.713,0,1.331-0.507,1.471-1.205l0.679-3.393C19,3.673,18.327,3,17.5,3h-6C10.673,3,10,3.673,10,4.5l0.669,3.295
				C10.809,8.493,11.427,9,12.14,9H13V8.5C13,8.224,13.224,8,13.5,8h2C15.776,8,16,8.224,16,8.5V9z"/>
		</g>
	</g>
</g>
<g id="Service">
</g>
<g id="Chopsticks">
</g>
<g id="Hatchet">
</g>
<g id="Filleting_Knife">
</g>
<g id="Bread_Knife">
</g>
<g id="Herb_Knife">
</g>
<g id="Whetting">
</g>
<g id="Cake_Knife">
</g>
<g id="Layer_58">
</g>
<g id="Ladle">
</g>
<g id="Sauce_Spoon">
</g>
<g id="Egg_Beater">
</g>
<g id="Meat_Fork">
</g>
<g id="Kitchen_Spoon_1">
</g>
<g id="Kitchen_Spoon_2">
</g>
<g id="Pizza_Cutter">
</g>
<g id="Potato_Musher">
</g>
<g id="Peeler">
</g>
<g id="Honey_Dipper">
</g>
<g id="Fork">
</g>
<g id="Knife">
</g>
<g id="Spoon">
</g>
<g id="Cutlery_Set">
</g>
<g id="Sugar_Bowl">
</g>
<g id="Matches">
</g>
<g id="Cezve">
</g>
</svg>
