<?xml version="1.0" encoding="iso-8859-1"?>
<!-- Generator: Adobe Illustrator 19.2.1, SVG Export Plug-In . SVG Version: 6.00 Build 0)  -->
<svg version="1.1" xmlns="http://www.w3.org/2000/svg" xmlns:xlink="http://www.w3.org/1999/xlink" x="0px" y="0px"
	 viewBox="0 0 30 30" style="enable-background:new 0 0 30 30;" xml:space="preserve">
<g id="Cutting_Board_1">
</g>
<g id="Cutting_Board_2">
</g>
<g id="Chef_x27_s_Hat_1">
</g>
<g id="Chef_x27_s_Hat_2">
</g>
<g id="Kitchen_Scale">
</g>
<g id="Measuring_Cup">
</g>
<g id="Pot_1">
</g>
<g id="Pot_2">
</g>
<g id="Wok_1">
</g>
<g id="Wok_2">
</g>
<g id="Teapot">
</g>
<g id="Plate">
</g>
<g id="Sauce_Boat">
</g>
<g id="Cauldron">
</g>
<g id="Cookbook">
</g>
<g id="Salt_Pot">
</g>
<g id="Pepper_Pot_1">
</g>
<g id="Pepper_Pot_2">
</g>
<g id="Egg_Timer">
</g>
<g id="Olive_Oil_Pot">
</g>
<g id="Pancake_Griddle">
</g>
<g id="Pan">
</g>
<g id="Kettle">
</g>
<g id="Microwave">
</g>
<g id="Cooker">
	<g>
		<g>
			<path d="M28.5,29h-27C0.673,29,0,28.327,0,27.5v-25C0,1.673,0.673,1,1.5,1h27C29.327,1,30,1.673,30,2.5v25
				C30,28.327,29.327,29,28.5,29z M1.5,2C1.224,2,1,2.224,1,2.5v25C1,27.776,1.224,28,1.5,28h27c0.276,0,0.5-0.224,0.5-0.5v-25
				C29,2.224,28.776,2,28.5,2H1.5z"/>
		</g>
		<g>
			<path d="M6.5,13C4.019,13,2,10.981,2,8.5S4.019,4,6.5,4S11,6.019,11,8.5S8.981,13,6.5,13z M6.5,5C4.57,5,3,6.57,3,8.5
				S4.57,12,6.5,12S10,10.43,10,8.5S8.43,5,6.5,5z"/>
		</g>
		<g>
			<path d="M19.5,13c-2.481,0-4.5-2.019-4.5-4.5S17.019,4,19.5,4S24,6.019,24,8.5S21.981,13,19.5,13z M19.5,5
				C17.57,5,16,6.57,16,8.5s1.57,3.5,3.5,3.5S23,10.43,23,8.5S21.43,5,19.5,5z"/>
		</g>
		<g>
			<path d="M19.5,25c-2.481,0-4.5-2.019-4.5-4.5s2.019-4.5,4.5-4.5s4.5,2.019,4.5,4.5S21.981,25,19.5,25z M19.5,17
				c-1.93,0-3.5,1.57-3.5,3.5s1.57,3.5,3.5,3.5s3.5-1.57,3.5-3.5S21.43,17,19.5,17z"/>
		</g>
		<g>
			<circle cx="27" cy="9" r="1"/>
		</g>
		<g>
			<circle cx="27" cy="13" r="1"/>
		</g>
		<g>
			<circle cx="27" cy="17" r="1"/>
		</g>
		<g>
			<circle cx="27" cy="21" r="1"/>
		</g>
		<g>
			<path d="M8.5,25h-2C4.019,25,2,22.981,2,20.5S4.019,16,6.5,16h2c2.481,0,4.5,2.019,4.5,4.5S10.981,25,8.5,25z M6.5,17
				C4.57,17,3,18.57,3,20.5S4.57,24,6.5,24h2c1.93,0,3.5-1.57,3.5-3.5S10.43,17,8.5,17H6.5z"/>
		</g>
	</g>
</g>
<g id="Meat_Grinder">
</g>
<g id="Coffee_Maker">
</g>
<g id="Household_Mixer">
</g>
<g id="Stand_Mixer">
</g>
<g id="Hand_Blender">
</g>
<g id="Blender">
</g>
<g id="Cooker_Hood">
</g>
<g id="Refrigerator">
</g>
<g id="Freezer">
</g>
<g id="Apron">
</g>
<g id="Oven_Gloves">
</g>
<g id="Rolling_Pin">
</g>
<g id="Sieve">
</g>
<g id="Tea_Sieve">
</g>
<g id="Grater">
</g>
<g id="Knife_Holder">
</g>
<g id="Funnel">
</g>
<g id="Kitchen_Clock">
</g>
<g id="Lemon_Juicer">
</g>
<g id="Pastry_Bag_1">
</g>
<g id="Pastry_Bag_2">
</g>
<g id="Corkscrew">
</g>
<g id="Bottle_Opener">
</g>
<g id="Service">
</g>
<g id="Chopsticks">
</g>
<g id="Hatchet">
</g>
<g id="Filleting_Knife">
</g>
<g id="Bread_Knife">
</g>
<g id="Herb_Knife">
</g>
<g id="Whetting">
</g>
<g id="Cake_Knife">
</g>
<g id="Layer_58">
</g>
<g id="Ladle">
</g>
<g id="Sauce_Spoon">
</g>
<g id="Egg_Beater">
</g>
<g id="Meat_Fork">
</g>
<g id="Kitchen_Spoon_1">
</g>
<g id="Kitchen_Spoon_2">
</g>
<g id="Pizza_Cutter">
</g>
<g id="Potato_Musher">
</g>
<g id="Peeler">
</g>
<g id="Honey_Dipper">
</g>
<g id="Fork">
</g>
<g id="Knife">
</g>
<g id="Spoon">
</g>
<g id="Cutlery_Set">
</g>
<g id="Sugar_Bowl">
</g>
<g id="Matches">
</g>
<g id="Cezve">
</g>
</svg>
