<?xml version="1.0" encoding="iso-8859-1"?>
<!-- Generator: Adobe Illustrator 19.2.1, SVG Export Plug-In . SVG Version: 6.00 Build 0)  -->
<svg version="1.1" xmlns="http://www.w3.org/2000/svg" xmlns:xlink="http://www.w3.org/1999/xlink" x="0px" y="0px"
	 viewBox="0 0 30 30" style="enable-background:new 0 0 30 30;" xml:space="preserve">
<g id="Cutting_Board_1">
</g>
<g id="Cutting_Board_2">
</g>
<g id="Chef_x27_s_Hat_1">
</g>
<g id="Chef_x27_s_Hat_2">
</g>
<g id="Kitchen_Scale">
</g>
<g id="Measuring_Cup">
</g>
<g id="Pot_1">
</g>
<g id="Pot_2">
</g>
<g id="Wok_1">
</g>
<g id="Wok_2">
</g>
<g id="Teapot">
</g>
<g id="Plate">
</g>
<g id="Sauce_Boat">
</g>
<g id="Cauldron">
</g>
<g id="Cookbook">
	<g>
		<g>
			<g>
				<path d="M26.5,30H6.337C4.404,30,3,28.464,3,26.348V4c0-0.276,0.224-0.5,0.5-0.5S4,3.724,4,4v22.348C4,27.668,4.723,29,6.337,29
					H26V6.5C26,6.224,26.224,6,26.5,6S27,6.224,27,6.5v23C27,29.776,26.776,30,26.5,30z"/>
			</g>
			<g>
				<path d="M26.5,7H6.348C4.502,7,3,5.498,3,3.652C3,1.57,4.505,0,6.5,0h20c0.203,0,0.386,0.123,0.462,0.31
					c0.077,0.188,0.033,0.403-0.111,0.546c-0.616,0.607-0.909,1.693-0.804,2.979c0.097,1.185,0.5,2.086,0.741,2.257
					c0.178,0.126,0.254,0.352,0.188,0.56S26.718,7,26.5,7z M6.5,1C5.075,1,4,2.14,4,3.652C4,4.947,5.053,6,6.348,6h19.206
					c-0.276-0.619-0.447-1.407-0.502-2.084C24.993,3.202,25.003,2.017,25.526,1H6.5z"/>
			</g>
			<g>
				<path d="M25,4H6.5C6.224,4,6,3.776,6,3.5S6.224,3,6.5,3H25c0.276,0,0.5,0.224,0.5,0.5S25.276,4,25,4z"/>
			</g>
		</g>
		<g>
			<g>
				<path d="M22.5,27c-0.123,0-0.246-0.045-0.343-0.136l-8.5-8c-1.121-1.106-1.62-2.355-1.655-4.155l-3.855-3.855
					c-0.195-0.195-0.195-0.512,0-0.707s0.512-0.195,0.707,0l4,4C12.947,14.24,13,14.367,13,14.5c0,1.642,0.392,2.697,1.351,3.644
					l8.492,7.992c0.201,0.189,0.21,0.506,0.021,0.707C22.766,26.947,22.633,27,22.5,27z"/>
			</g>
		</g>
		<g>
			<g>
				<path d="M22.5,27c-0.123,0-0.246-0.045-0.343-0.136l-8.5-8C12.66,17.88,11.637,17.5,10,17.5c-0.133,0-0.26-0.053-0.354-0.146
					l-4-4c-0.195-0.195-0.195-0.512,0-0.707s0.512-0.195,0.707,0l3.855,3.855c1.791,0.034,3.002,0.518,4.142,1.642l8.492,7.992
					c0.201,0.189,0.21,0.506,0.021,0.707C22.766,26.947,22.633,27,22.5,27z"/>
			</g>
		</g>
		<g>
			<path d="M20.715,18c-0.993,0-1.925-0.387-2.627-1.088S17,15.277,17,14.285s0.387-1.926,1.088-2.627
				c0.698-0.698,1.839-1.285,2.976-1.531c1.36-0.296,2.491-0.074,3.188,0.622c0.696,0.695,0.917,1.828,0.622,3.188
				c-0.246,1.137-0.833,2.278-1.531,2.976C22.641,17.613,21.708,18,20.715,18z M22.174,11c-0.277,0-0.579,0.034-0.898,0.103
				c-0.945,0.205-1.919,0.7-2.48,1.261C18.283,12.877,18,13.559,18,14.285c0,0.725,0.283,1.407,0.795,1.92
				c1.026,1.026,2.815,1.026,3.84,0c0.562-0.562,1.057-1.535,1.261-2.48c0.217-1.001,0.088-1.829-0.352-2.269
				C23.245,11.155,22.766,11,22.174,11z"/>
		</g>
		<g>
			<path d="M7.5,27c-0.136,0-0.271-0.055-0.37-0.164c-0.186-0.205-0.17-0.521,0.034-0.707l10.942-9.942
				c0.205-0.185,0.521-0.17,0.707,0.034c0.186,0.205,0.17,0.521-0.034,0.707L7.836,26.87C7.74,26.957,7.62,27,7.5,27z"/>
		</g>
	</g>
</g>
<g id="Salt_Pot">
</g>
<g id="Pepper_Pot_1">
</g>
<g id="Pepper_Pot_2">
</g>
<g id="Egg_Timer">
</g>
<g id="Olive_Oil_Pot">
</g>
<g id="Pancake_Griddle">
</g>
<g id="Pan">
</g>
<g id="Kettle">
</g>
<g id="Microwave">
</g>
<g id="Cooker">
</g>
<g id="Meat_Grinder">
</g>
<g id="Coffee_Maker">
</g>
<g id="Household_Mixer">
</g>
<g id="Stand_Mixer">
</g>
<g id="Hand_Blender">
</g>
<g id="Blender">
</g>
<g id="Cooker_Hood">
</g>
<g id="Refrigerator">
</g>
<g id="Freezer">
</g>
<g id="Apron">
</g>
<g id="Oven_Gloves">
</g>
<g id="Rolling_Pin">
</g>
<g id="Sieve">
</g>
<g id="Tea_Sieve">
</g>
<g id="Grater">
</g>
<g id="Knife_Holder">
</g>
<g id="Funnel">
</g>
<g id="Kitchen_Clock">
</g>
<g id="Lemon_Juicer">
</g>
<g id="Pastry_Bag_1">
</g>
<g id="Pastry_Bag_2">
</g>
<g id="Corkscrew">
</g>
<g id="Bottle_Opener">
</g>
<g id="Service">
</g>
<g id="Chopsticks">
</g>
<g id="Hatchet">
</g>
<g id="Filleting_Knife">
</g>
<g id="Bread_Knife">
</g>
<g id="Herb_Knife">
</g>
<g id="Whetting">
</g>
<g id="Cake_Knife">
</g>
<g id="Layer_58">
</g>
<g id="Ladle">
</g>
<g id="Sauce_Spoon">
</g>
<g id="Egg_Beater">
</g>
<g id="Meat_Fork">
</g>
<g id="Kitchen_Spoon_1">
</g>
<g id="Kitchen_Spoon_2">
</g>
<g id="Pizza_Cutter">
</g>
<g id="Potato_Musher">
</g>
<g id="Peeler">
</g>
<g id="Honey_Dipper">
</g>
<g id="Fork">
</g>
<g id="Knife">
</g>
<g id="Spoon">
</g>
<g id="Cutlery_Set">
</g>
<g id="Sugar_Bowl">
</g>
<g id="Matches">
</g>
<g id="Cezve">
</g>
</svg>
