<?xml version="1.0" encoding="iso-8859-1"?>
<!-- Generator: Adobe Illustrator 19.2.1, SVG Export Plug-In . SVG Version: 6.00 Build 0)  -->
<svg version="1.1" xmlns="http://www.w3.org/2000/svg" xmlns:xlink="http://www.w3.org/1999/xlink" x="0px" y="0px"
	 viewBox="0 0 30 30" style="enable-background:new 0 0 30 30;" xml:space="preserve">
<g id="Cutting_Board_1">
</g>
<g id="Cutting_Board_2">
</g>
<g id="Chef_x27_s_Hat_1">
</g>
<g id="Chef_x27_s_Hat_2">
</g>
<g id="Kitchen_Scale">
</g>
<g id="Measuring_Cup">
</g>
<g id="Pot_1">
</g>
<g id="Pot_2">
</g>
<g id="Wok_1">
</g>
<g id="Wok_2">
</g>
<g id="Teapot">
</g>
<g id="Plate">
</g>
<g id="Sauce_Boat">
</g>
<g id="Cauldron">
</g>
<g id="Cookbook">
</g>
<g id="Salt_Pot">
</g>
<g id="Pepper_Pot_1">
</g>
<g id="Pepper_Pot_2">
</g>
<g id="Egg_Timer">
</g>
<g id="Olive_Oil_Pot">
</g>
<g id="Pancake_Griddle">
</g>
<g id="Pan">
</g>
<g id="Kettle">
</g>
<g id="Microwave">
</g>
<g id="Cooker">
</g>
<g id="Meat_Grinder">
</g>
<g id="Coffee_Maker">
</g>
<g id="Household_Mixer">
</g>
<g id="Stand_Mixer">
</g>
<g id="Hand_Blender">
</g>
<g id="Blender">
</g>
<g id="Cooker_Hood">
	<g>
		<g>
			<path d="M19.5,7h-10C9.224,7,9,6.776,9,6.5v-6C9,0.224,9.224,0,9.5,0h10C19.776,0,20,0.224,20,0.5v6C20,6.776,19.776,7,19.5,7z
				 M10,6h9V1h-9V6z"/>
		</g>
		<g>
			<path d="M1.5,17c-0.109,0-0.22-0.036-0.312-0.109c-0.215-0.173-0.25-0.487-0.078-0.703l8-10c0.173-0.214,0.487-0.25,0.703-0.078
				c0.215,0.173,0.25,0.487,0.078,0.703l-8,10C1.792,16.936,1.646,17,1.5,17z"/>
		</g>
		<g>
			<path d="M27.5,17c-0.147,0-0.292-0.064-0.391-0.188l-8-10c-0.172-0.216-0.137-0.53,0.078-0.703
				c0.216-0.173,0.53-0.136,0.703,0.078l8,10c0.172,0.216,0.137,0.53-0.078,0.703C27.72,16.964,27.61,17,27.5,17z"/>
		</g>
		<g>
			<path d="M3.5,30.003c-0.276,0-0.5-0.227-0.5-0.503c0-0.349,0.203-0.686,0.438-1.076C3.701,27.986,4,27.489,4,27
				c0-0.324-0.129-0.488-0.344-0.761C3.379,25.888,3,25.408,3,24.5C3,24.224,3.224,24,3.5,24S4,24.224,4,24.5
				c0,0.561,0.195,0.808,0.441,1.12C4.69,25.936,5,26.329,5,27c0,0.767-0.391,1.417-0.706,1.94C4.175,29.139,4.011,29.411,4,29.507
				C4,29.783,3.776,30.003,3.5,30.003z"/>
		</g>
		<g>
			<path d="M10.5,30.003c-0.276,0-0.5-0.227-0.5-0.503c0-0.349,0.203-0.686,0.438-1.076C10.701,27.986,11,27.489,11,27
				c0-0.324-0.129-0.488-0.344-0.761C10.379,25.888,10,25.408,10,24.5c0-0.276,0.224-0.5,0.5-0.5s0.5,0.224,0.5,0.5
				c0,0.561,0.195,0.808,0.441,1.12C11.69,25.936,12,26.329,12,27c0,0.767-0.391,1.417-0.706,1.94
				c-0.12,0.199-0.284,0.471-0.295,0.567C11,29.783,10.776,30.003,10.5,30.003z"/>
		</g>
		<g>
			<path d="M17.5,30.003c-0.276,0-0.5-0.227-0.5-0.503c0-0.349,0.203-0.686,0.438-1.076C17.701,27.986,18,27.489,18,27
				c0-0.324-0.129-0.488-0.344-0.761C17.379,25.888,17,25.408,17,24.5c0-0.276,0.224-0.5,0.5-0.5s0.5,0.224,0.5,0.5
				c0,0.561,0.195,0.808,0.441,1.12C18.69,25.936,19,26.329,19,27c0,0.767-0.391,1.417-0.706,1.94
				c-0.12,0.199-0.284,0.471-0.295,0.567C18,29.783,17.776,30.003,17.5,30.003z"/>
		</g>
		<g>
			<path d="M24.5,30.003c-0.276,0-0.5-0.227-0.5-0.503c0-0.349,0.203-0.686,0.438-1.076C24.701,27.986,25,27.489,25,27
				c0-0.324-0.129-0.488-0.344-0.761C24.379,25.888,24,25.408,24,24.5c0-0.276,0.224-0.5,0.5-0.5s0.5,0.224,0.5,0.5
				c0,0.561,0.195,0.808,0.441,1.12C25.69,25.936,26,26.329,26,27c0,0.767-0.391,1.417-0.706,1.94
				c-0.12,0.199-0.284,0.471-0.295,0.567C25,29.783,24.776,30.003,24.5,30.003z"/>
		</g>
		<g>
			<circle cx="24.5" cy="19.5" r="0.5"/>
		</g>
		<g>
			<circle cx="19.5" cy="19.5" r="0.5"/>
		</g>
		<g>
			<path d="M7.5,20h-5C2.224,20,2,19.776,2,19.5S2.224,19,2.5,19h5C7.776,19,8,19.224,8,19.5S7.776,20,7.5,20z"/>
		</g>
		<g>
			<path d="M27.5,23h-26C0.673,23,0,22.327,0,21.5v-4C0,16.673,0.673,16,1.5,16h26c0.827,0,1.5,0.673,1.5,1.5v4
				C29,22.327,28.327,23,27.5,23z M1.5,17C1.224,17,1,17.224,1,17.5v4C1,21.776,1.224,22,1.5,22h26c0.276,0,0.5-0.224,0.5-0.5v-4
				c0-0.276-0.224-0.5-0.5-0.5H1.5z"/>
		</g>
	</g>
</g>
<g id="Refrigerator">
</g>
<g id="Freezer">
</g>
<g id="Apron">
</g>
<g id="Oven_Gloves">
</g>
<g id="Rolling_Pin">
</g>
<g id="Sieve">
</g>
<g id="Tea_Sieve">
</g>
<g id="Grater">
</g>
<g id="Knife_Holder">
</g>
<g id="Funnel">
</g>
<g id="Kitchen_Clock">
</g>
<g id="Lemon_Juicer">
</g>
<g id="Pastry_Bag_1">
</g>
<g id="Pastry_Bag_2">
</g>
<g id="Corkscrew">
</g>
<g id="Bottle_Opener">
</g>
<g id="Service">
</g>
<g id="Chopsticks">
</g>
<g id="Hatchet">
</g>
<g id="Filleting_Knife">
</g>
<g id="Bread_Knife">
</g>
<g id="Herb_Knife">
</g>
<g id="Whetting">
</g>
<g id="Cake_Knife">
</g>
<g id="Layer_58">
</g>
<g id="Ladle">
</g>
<g id="Sauce_Spoon">
</g>
<g id="Egg_Beater">
</g>
<g id="Meat_Fork">
</g>
<g id="Kitchen_Spoon_1">
</g>
<g id="Kitchen_Spoon_2">
</g>
<g id="Pizza_Cutter">
</g>
<g id="Potato_Musher">
</g>
<g id="Peeler">
</g>
<g id="Honey_Dipper">
</g>
<g id="Fork">
</g>
<g id="Knife">
</g>
<g id="Spoon">
</g>
<g id="Cutlery_Set">
</g>
<g id="Sugar_Bowl">
</g>
<g id="Matches">
</g>
<g id="Cezve">
</g>
</svg>
