<?xml version="1.0" encoding="iso-8859-1"?>
<!-- Generator: Adobe Illustrator 19.2.1, SVG Export Plug-In . SVG Version: 6.00 Build 0)  -->
<svg version="1.1" xmlns="http://www.w3.org/2000/svg" xmlns:xlink="http://www.w3.org/1999/xlink" x="0px" y="0px"
	 viewBox="0 0 30 30" style="enable-background:new 0 0 30 30;" xml:space="preserve">
<g id="Cutting_Board_1">
</g>
<g id="Cutting_Board_2">
</g>
<g id="Chef_x27_s_Hat_1">
</g>
<g id="Chef_x27_s_Hat_2">
</g>
<g id="Kitchen_Scale">
</g>
<g id="Measuring_Cup">
</g>
<g id="Pot_1">
</g>
<g id="Pot_2">
</g>
<g id="Wok_1">
</g>
<g id="Wok_2">
</g>
<g id="Teapot">
</g>
<g id="Plate">
</g>
<g id="Sauce_Boat">
</g>
<g id="Cauldron">
</g>
<g id="Cookbook">
</g>
<g id="Salt_Pot">
</g>
<g id="Pepper_Pot_1">
</g>
<g id="Pepper_Pot_2">
</g>
<g id="Egg_Timer">
</g>
<g id="Olive_Oil_Pot">
</g>
<g id="Pancake_Griddle">
</g>
<g id="Pan">
</g>
<g id="Kettle">
</g>
<g id="Microwave">
</g>
<g id="Cooker">
</g>
<g id="Meat_Grinder">
</g>
<g id="Coffee_Maker">
</g>
<g id="Household_Mixer">
</g>
<g id="Stand_Mixer">
</g>
<g id="Hand_Blender">
</g>
<g id="Blender">
</g>
<g id="Cooker_Hood">
</g>
<g id="Refrigerator">
</g>
<g id="Freezer">
</g>
<g id="Apron">
</g>
<g id="Oven_Gloves">
</g>
<g id="Rolling_Pin">
</g>
<g id="Sieve">
</g>
<g id="Tea_Sieve">
</g>
<g id="Grater">
</g>
<g id="Knife_Holder">
</g>
<g id="Funnel">
</g>
<g id="Kitchen_Clock">
</g>
<g id="Lemon_Juicer">
</g>
<g id="Pastry_Bag_1">
</g>
<g id="Pastry_Bag_2">
</g>
<g id="Corkscrew">
	<g>
		<g>
			<path d="M14.5,30c-0.276,0-0.5-0.224-0.5-0.5v-1c0-0.133,0.053-0.26,0.146-0.354l0.555-0.555l-1.51-0.941
				c-0.404-0.16-0.681-0.534-0.712-0.97c-0.032-0.459,0.214-0.887,0.628-1.092l2.449-1.214c0.051-0.025,0.075-0.065,0.073-0.12
				c-0.002-0.038-0.018-0.09-0.085-0.116l-3.319-1.315c-0.458-0.182-0.738-0.615-0.714-1.106s0.348-0.896,0.824-1.031l4.834-1.368
				c0.024-0.007,0.099-0.027,0.098-0.127c-0.002-0.1-0.077-0.118-0.103-0.124l-5.406-1.339c-0.516-0.128-0.861-0.568-0.861-1.098
				c0-0.528,0.346-0.969,0.861-1.097l6.043-1.496c0.061-0.015,0.096-0.054,0.102-0.113c0.007-0.059-0.018-0.103-0.072-0.129
				l-2.599-0.82C14.495,11.741,14,11.066,14,10.298V8.5C14,8.224,14.224,8,14.5,8S15,8.224,15,8.5v1.798
				c0,0.331,0.215,0.622,0.535,0.724l2.669,0.849c0.501,0.241,0.745,0.687,0.693,1.161c-0.052,0.477-0.387,0.86-0.854,0.977
				l-6.044,1.496c-0.025,0.006-0.102,0.025-0.102,0.126c0,0.102,0.076,0.121,0.102,0.127l5.406,1.339
				c0.507,0.125,0.854,0.559,0.861,1.078c0.009,0.52-0.323,0.965-0.825,1.106l-4.834,1.368c-0.062,0.018-0.094,0.058-0.097,0.119
				c-0.004,0.061,0.024,0.103,0.083,0.126l3.32,1.315c0.422,0.168,0.696,0.553,0.715,1.005c0.019,0.451-0.223,0.856-0.629,1.058
				l-2.449,1.214c-0.053,0.026-0.078,0.068-0.073,0.124c0.004,0.057,0.034,0.096,0.091,0.114c0.038,0.012,0.074,0.029,0.108,0.051
				l2.088,1.302c0.129,0.08,0.215,0.216,0.232,0.367c0.017,0.151-0.036,0.303-0.144,0.41L15,28.707V29.5
				C15,29.776,14.776,30,14.5,30z"/>
		</g>
		<g>
			<path d="M25.5,10c-1.09,0-2.101-0.708-2.758-1.913l-8.187,0.91c-0.037,0.004-0.074,0.004-0.111,0l-8.187-0.91
				C5.601,9.292,4.59,10,3.5,10C1.537,10,0,7.804,0,5s1.537-5,3.5-5c1.09,0,2.101,0.708,2.758,1.913l8.187-0.91
				c0.037-0.004,0.074-0.004,0.111,0l8.187,0.91C23.399,0.708,24.41,0,25.5,0C27.463,0,29,2.196,29,5S27.463,10,25.5,10z
				 M23.032,7.052c0.193,0,0.372,0.112,0.454,0.291C23.964,8.381,24.717,9,25.5,9C26.855,9,28,7.168,28,5s-1.145-4-2.5-4
				c-0.783,0-1.536,0.619-2.014,1.657c-0.09,0.196-0.295,0.313-0.51,0.288L14.5,2.003L6.023,2.945
				c-0.209,0.025-0.42-0.092-0.51-0.288C5.036,1.619,4.283,1,3.5,1C2.145,1,1,2.832,1,5s1.145,4,2.5,4
				c0.783,0,1.536-0.619,2.014-1.657c0.09-0.195,0.301-0.313,0.51-0.288L14.5,7.997l8.477-0.942
				C22.995,7.053,23.014,7.052,23.032,7.052z"/>
		</g>
	</g>
</g>
<g id="Bottle_Opener">
</g>
<g id="Service">
</g>
<g id="Chopsticks">
</g>
<g id="Hatchet">
</g>
<g id="Filleting_Knife">
</g>
<g id="Bread_Knife">
</g>
<g id="Herb_Knife">
</g>
<g id="Whetting">
</g>
<g id="Cake_Knife">
</g>
<g id="Layer_58">
</g>
<g id="Ladle">
</g>
<g id="Sauce_Spoon">
</g>
<g id="Egg_Beater">
</g>
<g id="Meat_Fork">
</g>
<g id="Kitchen_Spoon_1">
</g>
<g id="Kitchen_Spoon_2">
</g>
<g id="Pizza_Cutter">
</g>
<g id="Potato_Musher">
</g>
<g id="Peeler">
</g>
<g id="Honey_Dipper">
</g>
<g id="Fork">
</g>
<g id="Knife">
</g>
<g id="Spoon">
</g>
<g id="Cutlery_Set">
</g>
<g id="Sugar_Bowl">
</g>
<g id="Matches">
</g>
<g id="Cezve">
</g>
</svg>
