<?xml version="1.0" encoding="iso-8859-1"?>
<!-- Generator: Adobe Illustrator 19.2.1, SVG Export Plug-In . SVG Version: 6.00 Build 0)  -->
<svg version="1.1" xmlns="http://www.w3.org/2000/svg" xmlns:xlink="http://www.w3.org/1999/xlink" x="0px" y="0px"
	 viewBox="0 0 30 30" style="enable-background:new 0 0 30 30;" xml:space="preserve">
<g id="Cutting_Board_1">
</g>
<g id="Cutting_Board_2">
</g>
<g id="Chef_x27_s_Hat_1">
</g>
<g id="Chef_x27_s_Hat_2">
</g>
<g id="Kitchen_Scale">
</g>
<g id="Measuring_Cup">
</g>
<g id="Pot_1">
</g>
<g id="Pot_2">
</g>
<g id="Wok_1">
</g>
<g id="Wok_2">
</g>
<g id="Teapot">
</g>
<g id="Plate">
</g>
<g id="Sauce_Boat">
</g>
<g id="Cauldron">
</g>
<g id="Cookbook">
</g>
<g id="Salt_Pot">
</g>
<g id="Pepper_Pot_1">
</g>
<g id="Pepper_Pot_2">
</g>
<g id="Egg_Timer">
</g>
<g id="Olive_Oil_Pot">
</g>
<g id="Pancake_Griddle">
</g>
<g id="Pan">
</g>
<g id="Kettle">
</g>
<g id="Microwave">
</g>
<g id="Cooker">
</g>
<g id="Meat_Grinder">
</g>
<g id="Coffee_Maker">
</g>
<g id="Household_Mixer">
</g>
<g id="Stand_Mixer">
</g>
<g id="Hand_Blender">
</g>
<g id="Blender">
</g>
<g id="Cooker_Hood">
</g>
<g id="Refrigerator">
</g>
<g id="Freezer">
</g>
<g id="Apron">
</g>
<g id="Oven_Gloves">
</g>
<g id="Rolling_Pin">
</g>
<g id="Sieve">
</g>
<g id="Tea_Sieve">
</g>
<g id="Grater">
</g>
<g id="Knife_Holder">
</g>
<g id="Funnel">
</g>
<g id="Kitchen_Clock">
</g>
<g id="Lemon_Juicer">
</g>
<g id="Pastry_Bag_1">
</g>
<g id="Pastry_Bag_2">
</g>
<g id="Corkscrew">
</g>
<g id="Bottle_Opener">
</g>
<g id="Service">
</g>
<g id="Chopsticks">
</g>
<g id="Hatchet">
</g>
<g id="Filleting_Knife">
</g>
<g id="Bread_Knife">
</g>
<g id="Herb_Knife">
</g>
<g id="Whetting">
</g>
<g id="Cake_Knife">
</g>
<g id="Layer_58">
</g>
<g id="Ladle">
</g>
<g id="Sauce_Spoon">
</g>
<g id="Egg_Beater">
</g>
<g id="Meat_Fork">
</g>
<g id="Kitchen_Spoon_1">
</g>
<g id="Kitchen_Spoon_2">
</g>
<g id="Pizza_Cutter">
</g>
<g id="Potato_Musher">
</g>
<g id="Peeler">
</g>
<g id="Honey_Dipper">
</g>
<g id="Fork">
</g>
<g id="Knife">
</g>
<g id="Spoon">
</g>
<g id="Cutlery_Set">
	<g>
		<g>
			<g>
				<path d="M2.5,30C2.224,30,2,29.776,2,29.5V13c0-1.305-0.617-1.918-1.64-2.934L0.146,9.854C0.053,9.76,0,9.633,0,9.5v-9
					C0,0.224,0.224,0,0.5,0S1,0.224,1,0.5v8.792l0.065,0.065C2.104,10.389,3,11.279,3,13v16.5C3,29.776,2.776,30,2.5,30z"/>
			</g>
		</g>
		<g>
			<g>
				<path d="M2.5,13.5C2.224,13.5,2,13.276,2,13c0-1.721,0.896-2.611,1.935-3.643L4,9.292V0.5C4,0.224,4.224,0,4.5,0S5,0.224,5,0.5
					v9c0,0.133-0.053,0.26-0.146,0.354L4.64,10.066C3.617,11.082,3,11.695,3,13C3,13.276,2.776,13.5,2.5,13.5z"/>
			</g>
		</g>
		<g>
			<path d="M2.5,9C2.224,9,2,8.776,2,8.5v-8C2,0.224,2.224,0,2.5,0S3,0.224,3,0.5v8C3,8.776,2.776,9,2.5,9z"/>
		</g>
		<g>
			<path d="M16,30c-4.962,0-9-4.037-9-9s4.038-9,9-9s9,4.037,9,9S20.962,30,16,30z M16,13c-4.411,0-8,3.589-8,8s3.589,8,8,8
				s8-3.589,8-8S20.411,13,16,13z"/>
		</g>
		<g>
			<g>
				<path d="M29.5,30c-0.276,0-0.5-0.224-0.5-0.5V15.587c-0.219-0.565-0.93-1.563-1.768-1.587H26.5c-0.827,0-1.5-0.673-1.5-1.5v-8
					C25,2.019,27.019,0,29.5,0C29.776,0,30,0.224,30,0.5v14.988c0,0.008,0,0.016,0,0.023V29.5C30,29.776,29.776,30,29.5,30z
					 M29,1.035C27.306,1.279,26,2.74,26,4.5v8c0,0.275,0.224,0.5,0.5,0.5h0.746c0.705,0.02,1.298,0.378,1.754,0.83V1.035z"/>
			</g>
		</g>
	</g>
</g>
<g id="Sugar_Bowl">
</g>
<g id="Matches">
</g>
<g id="Cezve">
</g>
</svg>
