<?xml version="1.0" encoding="iso-8859-1"?>
<!-- Generator: Adobe Illustrator 19.2.1, SVG Export Plug-In . SVG Version: 6.00 Build 0)  -->
<svg version="1.1" xmlns="http://www.w3.org/2000/svg" xmlns:xlink="http://www.w3.org/1999/xlink" x="0px" y="0px"
	 viewBox="0 0 30 30" style="enable-background:new 0 0 30 30;" xml:space="preserve">
<g id="Cutting_Board_1">
</g>
<g id="Cutting_Board_2">
</g>
<g id="Chef_x27_s_Hat_1">
</g>
<g id="Chef_x27_s_Hat_2">
</g>
<g id="Kitchen_Scale">
</g>
<g id="Measuring_Cup">
</g>
<g id="Pot_1">
</g>
<g id="Pot_2">
</g>
<g id="Wok_1">
</g>
<g id="Wok_2">
</g>
<g id="Teapot">
</g>
<g id="Plate">
</g>
<g id="Sauce_Boat">
</g>
<g id="Cauldron">
</g>
<g id="Cookbook">
</g>
<g id="Salt_Pot">
</g>
<g id="Pepper_Pot_1">
</g>
<g id="Pepper_Pot_2">
</g>
<g id="Egg_Timer">
</g>
<g id="Olive_Oil_Pot">
</g>
<g id="Pancake_Griddle">
</g>
<g id="Pan">
</g>
<g id="Kettle">
</g>
<g id="Microwave">
</g>
<g id="Cooker">
</g>
<g id="Meat_Grinder">
</g>
<g id="Coffee_Maker">
</g>
<g id="Household_Mixer">
</g>
<g id="Stand_Mixer">
</g>
<g id="Hand_Blender">
</g>
<g id="Blender">
</g>
<g id="Cooker_Hood">
</g>
<g id="Refrigerator">
</g>
<g id="Freezer">
</g>
<g id="Apron">
</g>
<g id="Oven_Gloves">
</g>
<g id="Rolling_Pin">
</g>
<g id="Sieve">
</g>
<g id="Tea_Sieve">
</g>
<g id="Grater">
</g>
<g id="Knife_Holder">
</g>
<g id="Funnel">
</g>
<g id="Kitchen_Clock">
</g>
<g id="Lemon_Juicer">
</g>
<g id="Pastry_Bag_1">
</g>
<g id="Pastry_Bag_2">
</g>
<g id="Corkscrew">
</g>
<g id="Bottle_Opener">
</g>
<g id="Service">
</g>
<g id="Chopsticks">
</g>
<g id="Hatchet">
</g>
<g id="Filleting_Knife">
</g>
<g id="Bread_Knife">
</g>
<g id="Herb_Knife">
</g>
<g id="Whetting">
</g>
<g id="Cake_Knife">
</g>
<g id="Layer_58">
</g>
<g id="Ladle">
</g>
<g id="Sauce_Spoon">
</g>
<g id="Egg_Beater">
	<g>
		<g>
			<path d="M15,16.875c-3.709,0-6.5-6.798-6.5-11.206c0-4.97,3.71-5.544,6.5-5.544s6.5,0.574,6.5,5.544
				C21.5,10.077,18.709,16.875,15,16.875z M15,1.125c-3.906,0-5.5,1.316-5.5,4.544c0,3.938,2.517,10.206,5.5,10.206
				s5.5-6.269,5.5-10.206C20.5,2.441,18.906,1.125,15,1.125z"/>
		</g>
		<g>
			<path d="M15,16.875c-2.652,0-4.1-7.402-4.1-11.206c0-3.782,1.303-5.544,4.1-5.544s4.1,1.762,4.1,5.544
				C19.1,9.473,17.652,16.875,15,16.875z M15,1.125c-1.61,0-3.1,0.551-3.1,4.544c0,4.483,1.738,10.206,3.1,10.206
				s3.1-5.723,3.1-10.206C18.1,1.676,16.61,1.125,15,1.125z"/>
		</g>
		<g>
			<path d="M15,16.875c-0.276,0-0.5-0.224-0.5-0.5V0.625c0-0.276,0.224-0.5,0.5-0.5s0.5,0.224,0.5,0.5v15.75
				C15.5,16.651,15.276,16.875,15,16.875z"/>
		</g>
		<g>
			<path d="M15,29.875c-1.591,0-3.408-0.969-3.472-2.359c-0.067-1.466-0.014-2.563,0.161-3.262c0.092-0.368,0.252-0.897,0.441-1.522
				c0.612-2.022,1.539-5.079,1.371-6.809c-0.026-0.274,0.175-0.519,0.45-0.546c0.26-0.011,0.52,0.175,0.546,0.45
				c0.186,1.926-0.774,5.096-1.41,7.193c-0.184,0.606-0.339,1.118-0.428,1.476c-0.149,0.596-0.195,1.624-0.134,2.974
				c0.032,0.695,1.281,1.405,2.474,1.405s2.441-0.71,2.474-1.406c0.062-1.349,0.016-2.377-0.134-2.973
				c-0.089-0.359-0.246-0.872-0.432-1.477c-0.634-2.072-1.592-5.205-1.406-7.191c0.026-0.274,0.255-0.467,0.545-0.451
				c0.274,0.026,0.477,0.27,0.451,0.545c-0.167,1.789,0.756,4.808,1.367,6.805c0.19,0.626,0.353,1.156,0.445,1.527
				c0.175,0.698,0.229,1.796,0.161,3.261C18.408,28.906,16.591,29.875,15,29.875z"/>
		</g>
	</g>
</g>
<g id="Meat_Fork">
</g>
<g id="Kitchen_Spoon_1">
</g>
<g id="Kitchen_Spoon_2">
</g>
<g id="Pizza_Cutter">
</g>
<g id="Potato_Musher">
</g>
<g id="Peeler">
</g>
<g id="Honey_Dipper">
</g>
<g id="Fork">
</g>
<g id="Knife">
</g>
<g id="Spoon">
</g>
<g id="Cutlery_Set">
</g>
<g id="Sugar_Bowl">
</g>
<g id="Matches">
</g>
<g id="Cezve">
</g>
</svg>
