<?xml version="1.0" encoding="iso-8859-1"?>
<!-- Generator: Adobe Illustrator 19.2.1, SVG Export Plug-In . SVG Version: 6.00 Build 0)  -->
<svg version="1.1" xmlns="http://www.w3.org/2000/svg" xmlns:xlink="http://www.w3.org/1999/xlink" x="0px" y="0px"
	 viewBox="0 0 30 30" style="enable-background:new 0 0 30 30;" xml:space="preserve">
<g id="Cutting_Board_1">
</g>
<g id="Cutting_Board_2">
</g>
<g id="Chef_x27_s_Hat_1">
</g>
<g id="Chef_x27_s_Hat_2">
</g>
<g id="Kitchen_Scale">
</g>
<g id="Measuring_Cup">
</g>
<g id="Pot_1">
</g>
<g id="Pot_2">
</g>
<g id="Wok_1">
</g>
<g id="Wok_2">
</g>
<g id="Teapot">
</g>
<g id="Plate">
</g>
<g id="Sauce_Boat">
</g>
<g id="Cauldron">
</g>
<g id="Cookbook">
</g>
<g id="Salt_Pot">
</g>
<g id="Pepper_Pot_1">
</g>
<g id="Pepper_Pot_2">
</g>
<g id="Egg_Timer">
</g>
<g id="Olive_Oil_Pot">
</g>
<g id="Pancake_Griddle">
</g>
<g id="Pan">
</g>
<g id="Kettle">
</g>
<g id="Microwave">
</g>
<g id="Cooker">
</g>
<g id="Meat_Grinder">
</g>
<g id="Coffee_Maker">
</g>
<g id="Household_Mixer">
</g>
<g id="Stand_Mixer">
</g>
<g id="Hand_Blender">
</g>
<g id="Blender">
</g>
<g id="Cooker_Hood">
</g>
<g id="Refrigerator">
</g>
<g id="Freezer">
</g>
<g id="Apron">
</g>
<g id="Oven_Gloves">
</g>
<g id="Rolling_Pin">
</g>
<g id="Sieve">
</g>
<g id="Tea_Sieve">
</g>
<g id="Grater">
</g>
<g id="Knife_Holder">
</g>
<g id="Funnel">
</g>
<g id="Kitchen_Clock">
</g>
<g id="Lemon_Juicer">
</g>
<g id="Pastry_Bag_1">
</g>
<g id="Pastry_Bag_2">
</g>
<g id="Corkscrew">
</g>
<g id="Bottle_Opener">
</g>
<g id="Service">
</g>
<g id="Chopsticks">
</g>
<g id="Hatchet">
</g>
<g id="Filleting_Knife">
	<g>
		<g>
			<g>
				<path d="M26.997,4.024c-0.239,0-0.468-0.085-0.651-0.245c-0.414-0.36-0.464-0.997-0.112-1.42c0,0,0,0,0.001,0
					c0.174-0.209,0.418-0.335,0.688-0.356c0.261-0.021,0.527,0.065,0.731,0.242c0.414,0.36,0.464,0.997,0.112,1.42
					C27.589,3.874,27.345,4,27.076,4.021C27.05,4.023,27.023,4.024,26.997,4.024z M27.002,3.025L27.002,3.025L27.002,3.025z"/>
			</g>
			<g>
				<path d="M2.29,30.002c-1.024,0-1.778-0.086-1.849-0.095c-0.197-0.022-0.362-0.161-0.42-0.351
					c-0.058-0.19,0.003-0.396,0.154-0.525c0.021-0.019,2.115-1.814,4.21-4.304c2.143-2.545,4.806-5.78,7.062-8.522
					c1.657-2.013,3.094-3.759,3.947-4.772c0.177-0.21,0.493-0.238,0.704-0.061c0.211,0.178,0.239,0.493,0.061,0.705
					c-0.851,1.011-2.286,2.755-3.939,4.764c-2.259,2.744-4.925,5.983-7.07,8.531c-1.319,1.566-2.614,2.846-3.439,3.618
					c1.269,0.04,3.311-0.024,4.655-0.719c2.2-1.136,10.643-7.119,12.764-13.369c0.089-0.261,0.374-0.397,0.634-0.313
					c0.262,0.089,0.401,0.373,0.313,0.635C17.697,22.238,8.432,28.331,6.826,29.16C5.491,29.85,3.652,30.002,2.29,30.002z"/>
			</g>
		</g>
		<g>
			<path d="M19.604,15.563c-0.12,0-0.236-0.043-0.327-0.122l-3.827-3.309c-0.206-0.178-0.231-0.487-0.058-0.697l8.419-10.167l0,0
				c0.607-0.732,1.458-1.179,2.396-1.257c0.935-0.076,1.841,0.22,2.556,0.838c1.47,1.271,1.654,3.526,0.411,5.028
				c-0.585,0.707-1.429,1.151-2.341,1.24l-6.843,8.265c-0.086,0.104-0.21,0.168-0.344,0.179
				C19.632,15.563,19.618,15.563,19.604,15.563z M16.475,11.697l3.07,2.654l6.655-8.037c0.092-0.11,0.227-0.176,0.37-0.181
				c0.724-0.022,1.375-0.34,1.834-0.894c0.899-1.086,0.767-2.716-0.295-3.635c-0.509-0.44-1.151-0.652-1.819-0.597
				c-0.667,0.055-1.274,0.374-1.708,0.898L16.475,11.697z"/>
		</g>
	</g>
</g>
<g id="Bread_Knife">
</g>
<g id="Herb_Knife">
</g>
<g id="Whetting">
</g>
<g id="Cake_Knife">
</g>
<g id="Layer_58">
</g>
<g id="Ladle">
</g>
<g id="Sauce_Spoon">
</g>
<g id="Egg_Beater">
</g>
<g id="Meat_Fork">
</g>
<g id="Kitchen_Spoon_1">
</g>
<g id="Kitchen_Spoon_2">
</g>
<g id="Pizza_Cutter">
</g>
<g id="Potato_Musher">
</g>
<g id="Peeler">
</g>
<g id="Honey_Dipper">
</g>
<g id="Fork">
</g>
<g id="Knife">
</g>
<g id="Spoon">
</g>
<g id="Cutlery_Set">
</g>
<g id="Sugar_Bowl">
</g>
<g id="Matches">
</g>
<g id="Cezve">
</g>
</svg>
