<?xml version="1.0" encoding="iso-8859-1"?>
<!-- Generator: Adobe Illustrator 19.2.1, SVG Export Plug-In . SVG Version: 6.00 Build 0)  -->
<svg version="1.1" xmlns="http://www.w3.org/2000/svg" xmlns:xlink="http://www.w3.org/1999/xlink" x="0px" y="0px"
	 viewBox="0 0 30 30" style="enable-background:new 0 0 30 30;" xml:space="preserve">
<g id="Cutting_Board_1">
</g>
<g id="Cutting_Board_2">
</g>
<g id="Chef_x27_s_Hat_1">
</g>
<g id="Chef_x27_s_Hat_2">
</g>
<g id="Kitchen_Scale">
</g>
<g id="Measuring_Cup">
</g>
<g id="Pot_1">
</g>
<g id="Pot_2">
</g>
<g id="Wok_1">
</g>
<g id="Wok_2">
</g>
<g id="Teapot">
</g>
<g id="Plate">
</g>
<g id="Sauce_Boat">
</g>
<g id="Cauldron">
</g>
<g id="Cookbook">
</g>
<g id="Salt_Pot">
</g>
<g id="Pepper_Pot_1">
</g>
<g id="Pepper_Pot_2">
</g>
<g id="Egg_Timer">
</g>
<g id="Olive_Oil_Pot">
</g>
<g id="Pancake_Griddle">
</g>
<g id="Pan">
</g>
<g id="Kettle">
</g>
<g id="Microwave">
</g>
<g id="Cooker">
</g>
<g id="Meat_Grinder">
</g>
<g id="Coffee_Maker">
</g>
<g id="Household_Mixer">
</g>
<g id="Stand_Mixer">
</g>
<g id="Hand_Blender">
</g>
<g id="Blender">
</g>
<g id="Cooker_Hood">
</g>
<g id="Refrigerator">
</g>
<g id="Freezer">
</g>
<g id="Apron">
</g>
<g id="Oven_Gloves">
</g>
<g id="Rolling_Pin">
</g>
<g id="Sieve">
</g>
<g id="Tea_Sieve">
</g>
<g id="Grater">
	<g>
		<g>
			<g>
				<path d="M21.5,28h-14C7.224,28,7,27.776,7,27.5S7.224,27,7.5,27h14c0.276,0,0.5,0.224,0.5,0.5S21.776,28,21.5,28z"/>
			</g>
		</g>
		<g>
			<path d="M24.5,30h-20c-0.137,0-0.269-0.056-0.362-0.156c-0.095-0.1-0.145-0.233-0.137-0.371l1-19C5.015,10.208,5.234,10,5.5,10
				h18c0.266,0,0.485,0.208,0.499,0.474l1,19c0.008,0.137-0.042,0.271-0.137,0.371C24.769,29.944,24.637,30,24.5,30z M5.027,29
				h18.945l-0.947-18H5.975L5.027,29z"/>
		</g>
		<g>
			<path d="M23.5,11h-18C5.224,11,5,10.776,5,10.5v-2C5,3.813,8.813,0,13.5,0h2C20.187,0,24,3.813,24,8.5v2
				C24,10.776,23.776,11,23.5,11z M6,10h17V8.5C23,4.364,19.636,1,15.5,1h-2C9.364,1,6,4.364,6,8.5V10z"/>
		</g>
		<g>
			<path d="M16.5,23c-0.827,0-1.5-0.673-1.5-1.5c0-0.276,0.224-0.5,0.5-0.5s0.5,0.224,0.5,0.5c0,0.276,0.225,0.5,0.5,0.5
				s0.5-0.224,0.5-0.5c0-0.276,0.224-0.5,0.5-0.5s0.5,0.224,0.5,0.5C18,22.327,17.327,23,16.5,23z"/>
		</g>
		<g>
			<path d="M8.5,23C7.673,23,7,22.327,7,21.5C7,21.224,7.224,21,7.5,21S8,21.224,8,21.5C8,21.776,8.225,22,8.5,22S9,21.776,9,21.5
				C9,21.224,9.224,21,9.5,21s0.5,0.224,0.5,0.5C10,22.327,9.327,23,8.5,23z"/>
		</g>
		<g>
			<path d="M20.5,23c-0.827,0-1.5-0.673-1.5-1.5c0-0.276,0.224-0.5,0.5-0.5s0.5,0.224,0.5,0.5c0,0.276,0.225,0.5,0.5,0.5
				s0.5-0.224,0.5-0.5c0-0.276,0.224-0.5,0.5-0.5s0.5,0.224,0.5,0.5C22,22.327,21.327,23,20.5,23z"/>
		</g>
		<g>
			<path d="M12.5,23c-0.827,0-1.5-0.673-1.5-1.5c0-0.276,0.224-0.5,0.5-0.5s0.5,0.224,0.5,0.5c0,0.276,0.225,0.5,0.5,0.5
				s0.5-0.224,0.5-0.5c0-0.276,0.224-0.5,0.5-0.5s0.5,0.224,0.5,0.5C14,22.327,13.327,23,12.5,23z"/>
		</g>
		<g>
			<path d="M16.5,26c-0.827,0-1.5-0.673-1.5-1.5c0-0.276,0.224-0.5,0.5-0.5s0.5,0.224,0.5,0.5c0,0.276,0.225,0.5,0.5,0.5
				s0.5-0.224,0.5-0.5c0-0.276,0.224-0.5,0.5-0.5s0.5,0.224,0.5,0.5C18,25.327,17.327,26,16.5,26z"/>
		</g>
		<g>
			<path d="M8.5,26C7.673,26,7,25.327,7,24.5C7,24.224,7.224,24,7.5,24S8,24.224,8,24.5C8,24.776,8.225,25,8.5,25S9,24.776,9,24.5
				C9,24.224,9.224,24,9.5,24s0.5,0.224,0.5,0.5C10,25.327,9.327,26,8.5,26z"/>
		</g>
		<g>
			<path d="M20.5,26c-0.827,0-1.5-0.673-1.5-1.5c0-0.276,0.224-0.5,0.5-0.5s0.5,0.224,0.5,0.5c0,0.276,0.225,0.5,0.5,0.5
				s0.5-0.224,0.5-0.5c0-0.276,0.224-0.5,0.5-0.5s0.5,0.224,0.5,0.5C22,25.327,21.327,26,20.5,26z"/>
		</g>
		<g>
			<path d="M12.5,26c-0.827,0-1.5-0.673-1.5-1.5c0-0.276,0.224-0.5,0.5-0.5s0.5,0.224,0.5,0.5c0,0.276,0.225,0.5,0.5,0.5
				s0.5-0.224,0.5-0.5c0-0.276,0.224-0.5,0.5-0.5s0.5,0.224,0.5,0.5C14,25.327,13.327,26,12.5,26z"/>
		</g>
		<g>
			<path d="M16.5,20c-0.827,0-1.5-0.673-1.5-1.5c0-0.276,0.224-0.5,0.5-0.5s0.5,0.224,0.5,0.5c0,0.276,0.225,0.5,0.5,0.5
				s0.5-0.224,0.5-0.5c0-0.276,0.224-0.5,0.5-0.5s0.5,0.224,0.5,0.5C18,19.327,17.327,20,16.5,20z"/>
		</g>
		<g>
			<path d="M8.5,20C7.673,20,7,19.327,7,18.5C7,18.224,7.224,18,7.5,18S8,18.224,8,18.5C8,18.776,8.225,19,8.5,19S9,18.776,9,18.5
				C9,18.224,9.224,18,9.5,18s0.5,0.224,0.5,0.5C10,19.327,9.327,20,8.5,20z"/>
		</g>
		<g>
			<path d="M20.5,20c-0.827,0-1.5-0.673-1.5-1.5c0-0.276,0.224-0.5,0.5-0.5s0.5,0.224,0.5,0.5c0,0.276,0.225,0.5,0.5,0.5
				s0.5-0.224,0.5-0.5c0-0.276,0.224-0.5,0.5-0.5s0.5,0.224,0.5,0.5C22,19.327,21.327,20,20.5,20z"/>
		</g>
		<g>
			<path d="M12.5,20c-0.827,0-1.5-0.673-1.5-1.5c0-0.276,0.224-0.5,0.5-0.5s0.5,0.224,0.5,0.5c0,0.276,0.225,0.5,0.5,0.5
				s0.5-0.224,0.5-0.5c0-0.276,0.224-0.5,0.5-0.5s0.5,0.224,0.5,0.5C14,19.327,13.327,20,12.5,20z"/>
		</g>
		<g>
			<path d="M16.5,17c-0.827,0-1.5-0.673-1.5-1.5c0-0.276,0.224-0.5,0.5-0.5s0.5,0.224,0.5,0.5c0,0.276,0.225,0.5,0.5,0.5
				s0.5-0.224,0.5-0.5c0-0.276,0.224-0.5,0.5-0.5s0.5,0.224,0.5,0.5C18,16.327,17.327,17,16.5,17z"/>
		</g>
		<g>
			<path d="M8.5,17C7.673,17,7,16.327,7,15.5C7,15.224,7.224,15,7.5,15S8,15.224,8,15.5C8,15.776,8.225,16,8.5,16S9,15.776,9,15.5
				C9,15.224,9.224,15,9.5,15s0.5,0.224,0.5,0.5C10,16.327,9.327,17,8.5,17z"/>
		</g>
		<g>
			<path d="M20.5,17c-0.827,0-1.5-0.673-1.5-1.5c0-0.276,0.224-0.5,0.5-0.5s0.5,0.224,0.5,0.5c0,0.276,0.225,0.5,0.5,0.5
				s0.5-0.224,0.5-0.5c0-0.276,0.224-0.5,0.5-0.5s0.5,0.224,0.5,0.5C22,16.327,21.327,17,20.5,17z"/>
		</g>
		<g>
			<path d="M12.5,17c-0.827,0-1.5-0.673-1.5-1.5c0-0.276,0.224-0.5,0.5-0.5s0.5,0.224,0.5,0.5c0,0.276,0.225,0.5,0.5,0.5
				s0.5-0.224,0.5-0.5c0-0.276,0.224-0.5,0.5-0.5s0.5,0.224,0.5,0.5C14,16.327,13.327,17,12.5,17z"/>
		</g>
		<g>
			<path d="M16.5,14c-0.827,0-1.5-0.673-1.5-1.5c0-0.276,0.224-0.5,0.5-0.5s0.5,0.224,0.5,0.5c0,0.276,0.225,0.5,0.5,0.5
				s0.5-0.224,0.5-0.5c0-0.276,0.224-0.5,0.5-0.5s0.5,0.224,0.5,0.5C18,13.327,17.327,14,16.5,14z"/>
		</g>
		<g>
			<path d="M8.5,14C7.673,14,7,13.327,7,12.5C7,12.224,7.224,12,7.5,12S8,12.224,8,12.5C8,12.776,8.225,13,8.5,13S9,12.776,9,12.5
				C9,12.224,9.224,12,9.5,12s0.5,0.224,0.5,0.5C10,13.327,9.327,14,8.5,14z"/>
		</g>
		<g>
			<path d="M20.5,14c-0.827,0-1.5-0.673-1.5-1.5c0-0.276,0.224-0.5,0.5-0.5s0.5,0.224,0.5,0.5c0,0.276,0.225,0.5,0.5,0.5
				s0.5-0.224,0.5-0.5c0-0.276,0.224-0.5,0.5-0.5s0.5,0.224,0.5,0.5C22,13.327,21.327,14,20.5,14z"/>
		</g>
		<g>
			<path d="M12.5,14c-0.827,0-1.5-0.673-1.5-1.5c0-0.276,0.224-0.5,0.5-0.5s0.5,0.224,0.5,0.5c0,0.276,0.225,0.5,0.5,0.5
				s0.5-0.224,0.5-0.5c0-0.276,0.224-0.5,0.5-0.5s0.5,0.224,0.5,0.5C14,13.327,13.327,14,12.5,14z"/>
		</g>
	</g>
</g>
<g id="Knife_Holder">
</g>
<g id="Funnel">
</g>
<g id="Kitchen_Clock">
</g>
<g id="Lemon_Juicer">
</g>
<g id="Pastry_Bag_1">
</g>
<g id="Pastry_Bag_2">
</g>
<g id="Corkscrew">
</g>
<g id="Bottle_Opener">
</g>
<g id="Service">
</g>
<g id="Chopsticks">
</g>
<g id="Hatchet">
</g>
<g id="Filleting_Knife">
</g>
<g id="Bread_Knife">
</g>
<g id="Herb_Knife">
</g>
<g id="Whetting">
</g>
<g id="Cake_Knife">
</g>
<g id="Layer_58">
</g>
<g id="Ladle">
</g>
<g id="Sauce_Spoon">
</g>
<g id="Egg_Beater">
</g>
<g id="Meat_Fork">
</g>
<g id="Kitchen_Spoon_1">
</g>
<g id="Kitchen_Spoon_2">
</g>
<g id="Pizza_Cutter">
</g>
<g id="Potato_Musher">
</g>
<g id="Peeler">
</g>
<g id="Honey_Dipper">
</g>
<g id="Fork">
</g>
<g id="Knife">
</g>
<g id="Spoon">
</g>
<g id="Cutlery_Set">
</g>
<g id="Sugar_Bowl">
</g>
<g id="Matches">
</g>
<g id="Cezve">
</g>
</svg>
