<?xml version="1.0" encoding="iso-8859-1"?>
<!-- Generator: Adobe Illustrator 19.2.1, SVG Export Plug-In . SVG Version: 6.00 Build 0)  -->
<svg version="1.1" xmlns="http://www.w3.org/2000/svg" xmlns:xlink="http://www.w3.org/1999/xlink" x="0px" y="0px"
	 viewBox="0 0 30 30" style="enable-background:new 0 0 30 30;" xml:space="preserve">
<g id="Cutting_Board_1">
</g>
<g id="Cutting_Board_2">
</g>
<g id="Chef_x27_s_Hat_1">
</g>
<g id="Chef_x27_s_Hat_2">
</g>
<g id="Kitchen_Scale">
</g>
<g id="Measuring_Cup">
</g>
<g id="Pot_1">
</g>
<g id="Pot_2">
</g>
<g id="Wok_1">
</g>
<g id="Wok_2">
</g>
<g id="Teapot">
</g>
<g id="Plate">
</g>
<g id="Sauce_Boat">
</g>
<g id="Cauldron">
</g>
<g id="Cookbook">
</g>
<g id="Salt_Pot">
</g>
<g id="Pepper_Pot_1">
</g>
<g id="Pepper_Pot_2">
</g>
<g id="Egg_Timer">
</g>
<g id="Olive_Oil_Pot">
</g>
<g id="Pancake_Griddle">
</g>
<g id="Pan">
</g>
<g id="Kettle">
</g>
<g id="Microwave">
</g>
<g id="Cooker">
</g>
<g id="Meat_Grinder">
</g>
<g id="Coffee_Maker">
</g>
<g id="Household_Mixer">
</g>
<g id="Stand_Mixer">
</g>
<g id="Hand_Blender">
</g>
<g id="Blender">
</g>
<g id="Cooker_Hood">
</g>
<g id="Refrigerator">
</g>
<g id="Freezer">
</g>
<g id="Apron">
</g>
<g id="Oven_Gloves">
</g>
<g id="Rolling_Pin">
</g>
<g id="Sieve">
</g>
<g id="Tea_Sieve">
</g>
<g id="Grater">
</g>
<g id="Knife_Holder">
</g>
<g id="Funnel">
</g>
<g id="Kitchen_Clock">
</g>
<g id="Lemon_Juicer">
</g>
<g id="Pastry_Bag_1">
</g>
<g id="Pastry_Bag_2">
</g>
<g id="Corkscrew">
</g>
<g id="Bottle_Opener">
</g>
<g id="Service">
</g>
<g id="Chopsticks">
</g>
<g id="Hatchet">
</g>
<g id="Filleting_Knife">
</g>
<g id="Bread_Knife">
</g>
<g id="Herb_Knife">
	<g>
		<g>
			<g>
				<circle cx="4.5" cy="7" r="0.5"/>
			</g>
			<g>
				<circle cx="24.5" cy="7" r="0.5"/>
			</g>
			<g>
				<path d="M14.5,25.5C6.369,25.5,0,23.084,0,20c0-0.091,0.024-0.18,0.071-0.257l3-5C3.162,14.592,3.324,14.5,3.5,14.5h2
					C5.776,14.5,6,14.724,6,15c0,1.419,3.491,3,8.5,3s8.5-1.581,8.5-3c0-0.276,0.224-0.5,0.5-0.5h2c0.176,0,0.338,0.092,0.429,0.243
					l3,5C28.976,19.82,29,19.909,29,20C29,23.084,22.631,25.5,14.5,25.5z M1.006,20.128C1.222,22.222,6.703,24.5,14.5,24.5
					s13.278-2.278,13.494-4.372L25.217,15.5h-1.284C23.384,17.527,19.512,19,14.5,19s-8.884-1.473-9.433-3.5H3.783L1.006,20.128z"/>
			</g>
		</g>
		<g>
			<path d="M25.448,15.5h-1.896c-0.135,0-0.265-0.055-0.359-0.152c-0.094-0.097-0.145-0.229-0.141-0.363
				c0.045-1.437-0.858-4.337-1.456-6.257C21.183,7.399,21,6.8,21,6.5c0-1.468,2.093-2,3.5-2s3.5,0.532,3.5,2
				c0,0.299-0.183,0.896-0.598,2.216c-0.607,1.937-1.526,4.862-1.455,6.259c0.007,0.137-0.042,0.271-0.137,0.37
				C25.716,15.443,25.585,15.5,25.448,15.5z M24.04,14.5h0.914c0.1-1.64,0.896-4.178,1.494-6.083
				C26.702,7.608,26.989,6.691,27,6.495C27,5.881,25.544,5.5,24.5,5.5S22,5.881,22,6.5c0.01,0.192,0.298,1.116,0.551,1.931
				C23.141,10.323,23.926,12.845,24.04,14.5z"/>
		</g>
		<g>
			<path d="M5.448,15.5H3.552c-0.135,0-0.265-0.055-0.359-0.152c-0.094-0.097-0.145-0.229-0.141-0.363
				c0.045-1.437-0.858-4.337-1.456-6.257C1.183,7.399,1,6.8,1,6.5c0-1.468,2.093-2,3.5-2S8,5.032,8,6.5
				c0,0.299-0.183,0.896-0.598,2.216c-0.607,1.937-1.526,4.862-1.455,6.259c0.007,0.137-0.042,0.271-0.137,0.37
				C5.716,15.443,5.585,15.5,5.448,15.5z M4.04,14.5h0.914c0.1-1.64,0.896-4.178,1.494-6.083C6.702,7.608,6.989,6.691,7,6.495
				C7,5.881,5.544,5.5,4.5,5.5C3.458,5.5,2.004,5.879,2,6.497c0.012,0.201,0.298,1.121,0.551,1.934
				C3.141,10.323,3.926,12.845,4.04,14.5z"/>
		</g>
	</g>
</g>
<g id="Whetting">
</g>
<g id="Cake_Knife">
</g>
<g id="Layer_58">
</g>
<g id="Ladle">
</g>
<g id="Sauce_Spoon">
</g>
<g id="Egg_Beater">
</g>
<g id="Meat_Fork">
</g>
<g id="Kitchen_Spoon_1">
</g>
<g id="Kitchen_Spoon_2">
</g>
<g id="Pizza_Cutter">
</g>
<g id="Potato_Musher">
</g>
<g id="Peeler">
</g>
<g id="Honey_Dipper">
</g>
<g id="Fork">
</g>
<g id="Knife">
</g>
<g id="Spoon">
</g>
<g id="Cutlery_Set">
</g>
<g id="Sugar_Bowl">
</g>
<g id="Matches">
</g>
<g id="Cezve">
</g>
</svg>
