<?xml version="1.0" encoding="iso-8859-1"?>
<!-- Generator: Adobe Illustrator 19.2.1, SVG Export Plug-In . SVG Version: 6.00 Build 0)  -->
<svg version="1.1" xmlns="http://www.w3.org/2000/svg" xmlns:xlink="http://www.w3.org/1999/xlink" x="0px" y="0px"
	 viewBox="0 0 30 30" style="enable-background:new 0 0 30 30;" xml:space="preserve">
<g id="Cutting_Board_1">
</g>
<g id="Cutting_Board_2">
</g>
<g id="Chef_x27_s_Hat_1">
</g>
<g id="Chef_x27_s_Hat_2">
</g>
<g id="Kitchen_Scale">
</g>
<g id="Measuring_Cup">
</g>
<g id="Pot_1">
</g>
<g id="Pot_2">
</g>
<g id="Wok_1">
</g>
<g id="Wok_2">
</g>
<g id="Teapot">
</g>
<g id="Plate">
</g>
<g id="Sauce_Boat">
</g>
<g id="Cauldron">
</g>
<g id="Cookbook">
</g>
<g id="Salt_Pot">
</g>
<g id="Pepper_Pot_1">
</g>
<g id="Pepper_Pot_2">
</g>
<g id="Egg_Timer">
</g>
<g id="Olive_Oil_Pot">
</g>
<g id="Pancake_Griddle">
</g>
<g id="Pan">
</g>
<g id="Kettle">
</g>
<g id="Microwave">
</g>
<g id="Cooker">
</g>
<g id="Meat_Grinder">
	<g>
		<g>
			<g>
				<path d="M1.5,18C0.673,18,0,17.327,0,16.5v-5C0,10.673,0.673,10,1.5,10S3,10.673,3,11.5v5C3,17.327,2.327,18,1.5,18z M1.5,11
					C1.225,11,1,11.224,1,11.5v5C1,16.776,1.225,17,1.5,17S2,16.776,2,16.5v-5C2,11.224,1.775,11,1.5,11z"/>
			</g>
			<g>
				<path d="M11.5,16h-9C2.224,16,2,15.776,2,15.5v-3C2,12.224,2.224,12,2.5,12H5V4.5C5,4.224,5.224,4,5.5,4h3
					C8.776,4,9,4.224,9,4.5V12h2.5c0.276,0,0.5,0.224,0.5,0.5v3C12,15.776,11.776,16,11.5,16z M3,15h8v-2H8.5
					C8.224,13,8,12.776,8,12.5V5H6v7.5C6,12.776,5.776,13,5.5,13H3V15z"/>
			</g>
			<g>
				<path d="M14.5,30c-0.276,0-0.5-0.224-0.5-0.5v-1c0-0.276,0.224-0.5,0.5-0.5s0.5,0.224,0.5,0.5v1C15,29.776,14.776,30,14.5,30z"
					/>
			</g>
			<g>
				<path d="M26.5,30c-0.276,0-0.5-0.224-0.5-0.5v-1c0-0.276,0.224-0.5,0.5-0.5s0.5,0.224,0.5,0.5v1C27,29.776,26.776,30,26.5,30z"
					/>
			</g>
			<g>
				<path d="M17,20c-1.103,0-2-0.897-2-2s0.897-2,2-2s2,0.897,2,2S18.103,20,17,20z M17,17c-0.552,0-1,0.449-1,1s0.448,1,1,1
					s1-0.449,1-1S17.552,17,17,17z"/>
			</g>
			<g>
				<circle cx="17" cy="23" r="1"/>
			</g>
		</g>
		<g>
			<path d="M10.5,5h-7C1.57,5,0,3.43,0,1.5v-1C0,0.224,0.224,0,0.5,0h13C13.776,0,14,0.224,14,0.5v1C14,3.43,12.43,5,10.5,5z M1,1
				v0.5C1,2.878,2.121,4,3.5,4h7C11.879,4,13,2.878,13,1.5V1H1z"/>
		</g>
		<g>
			<path d="M29.5,29h-18c-0.276,0-0.5-0.224-0.5-0.5v-17c0-0.276,0.224-0.5,0.5-0.5h6C24.393,11,30,16.607,30,23.5v5
				C30,28.776,29.776,29,29.5,29z M12,28h17v-4.5C29,17.159,23.841,12,17.5,12H12V28z"/>
		</g>
	</g>
</g>
<g id="Coffee_Maker">
</g>
<g id="Household_Mixer">
</g>
<g id="Stand_Mixer">
</g>
<g id="Hand_Blender">
</g>
<g id="Blender">
</g>
<g id="Cooker_Hood">
</g>
<g id="Refrigerator">
</g>
<g id="Freezer">
</g>
<g id="Apron">
</g>
<g id="Oven_Gloves">
</g>
<g id="Rolling_Pin">
</g>
<g id="Sieve">
</g>
<g id="Tea_Sieve">
</g>
<g id="Grater">
</g>
<g id="Knife_Holder">
</g>
<g id="Funnel">
</g>
<g id="Kitchen_Clock">
</g>
<g id="Lemon_Juicer">
</g>
<g id="Pastry_Bag_1">
</g>
<g id="Pastry_Bag_2">
</g>
<g id="Corkscrew">
</g>
<g id="Bottle_Opener">
</g>
<g id="Service">
</g>
<g id="Chopsticks">
</g>
<g id="Hatchet">
</g>
<g id="Filleting_Knife">
</g>
<g id="Bread_Knife">
</g>
<g id="Herb_Knife">
</g>
<g id="Whetting">
</g>
<g id="Cake_Knife">
</g>
<g id="Layer_58">
</g>
<g id="Ladle">
</g>
<g id="Sauce_Spoon">
</g>
<g id="Egg_Beater">
</g>
<g id="Meat_Fork">
</g>
<g id="Kitchen_Spoon_1">
</g>
<g id="Kitchen_Spoon_2">
</g>
<g id="Pizza_Cutter">
</g>
<g id="Potato_Musher">
</g>
<g id="Peeler">
</g>
<g id="Honey_Dipper">
</g>
<g id="Fork">
</g>
<g id="Knife">
</g>
<g id="Spoon">
</g>
<g id="Cutlery_Set">
</g>
<g id="Sugar_Bowl">
</g>
<g id="Matches">
</g>
<g id="Cezve">
</g>
</svg>
