<?xml version="1.0" encoding="iso-8859-1"?>
<!-- Generator: Adobe Illustrator 19.2.1, SVG Export Plug-In . SVG Version: 6.00 Build 0)  -->
<svg version="1.1" xmlns="http://www.w3.org/2000/svg" xmlns:xlink="http://www.w3.org/1999/xlink" x="0px" y="0px"
	 viewBox="0 0 30 30" style="enable-background:new 0 0 30 30;" xml:space="preserve">
<g id="Cutting_Board_1">
</g>
<g id="Cutting_Board_2">
</g>
<g id="Chef_x27_s_Hat_1">
</g>
<g id="Chef_x27_s_Hat_2">
</g>
<g id="Kitchen_Scale">
</g>
<g id="Measuring_Cup">
</g>
<g id="Pot_1">
</g>
<g id="Pot_2">
</g>
<g id="Wok_1">
</g>
<g id="Wok_2">
</g>
<g id="Teapot">
</g>
<g id="Plate">
</g>
<g id="Sauce_Boat">
</g>
<g id="Cauldron">
</g>
<g id="Cookbook">
</g>
<g id="Salt_Pot">
</g>
<g id="Pepper_Pot_1">
</g>
<g id="Pepper_Pot_2">
</g>
<g id="Egg_Timer">
</g>
<g id="Olive_Oil_Pot">
</g>
<g id="Pancake_Griddle">
</g>
<g id="Pan">
</g>
<g id="Kettle">
</g>
<g id="Microwave">
	<g>
		<g>
			<g>
				<path d="M23.5,24h-21C2.224,24,2,23.776,2,23.5v-17C2,6.224,2.224,6,2.5,6h21C23.776,6,24,6.224,24,6.5v17
					C24,23.776,23.776,24,23.5,24z M3,23h20V7H3V23z"/>
			</g>
			<g>
				<path d="M26.5,11c-0.827,0-1.5-0.673-1.5-1.5S25.673,8,26.5,8S28,8.673,28,9.5S27.327,11,26.5,11z M26.5,9
					C26.224,9,26,9.224,26,9.5s0.224,0.5,0.5,0.5S27,9.776,27,9.5S26.776,9,26.5,9z"/>
			</g>
			<g>
				<path d="M26.5,16c-0.827,0-1.5-0.673-1.5-1.5s0.673-1.5,1.5-1.5s1.5,0.673,1.5,1.5S27.327,16,26.5,16z M26.5,14
					c-0.276,0-0.5,0.224-0.5,0.5s0.224,0.5,0.5,0.5s0.5-0.224,0.5-0.5S26.776,14,26.5,14z"/>
			</g>
			<g>
				<path d="M27.5,22h-2c-0.276,0-0.5-0.224-0.5-0.5v-3c0-0.276,0.224-0.5,0.5-0.5h2c0.276,0,0.5,0.224,0.5,0.5v3
					C28,21.776,27.776,22,27.5,22z M26,21h1v-2h-1V21z"/>
			</g>
			<g>
				<path d="M2.5,28C2.224,28,2,27.776,2,27.5v-1C2,26.224,2.224,26,2.5,26S3,26.224,3,26.5v1C3,27.776,2.776,28,2.5,28z"/>
			</g>
			<g>
				<path d="M27.5,28c-0.276,0-0.5-0.224-0.5-0.5v-1c0-0.276,0.224-0.5,0.5-0.5s0.5,0.224,0.5,0.5v1C28,27.776,27.776,28,27.5,28z"
					/>
			</g>
			<g>
				<path d="M5.5,13C5.224,13,5,12.776,5,12.5S5.224,12,5.5,12c1.292,0,2.779-0.531,4.217-1.045C11.092,10.464,12.39,10,13.5,10
					c0.276,0,0.5,0.224,0.5,0.5S13.776,11,13.5,11c-0.937,0-2.156,0.436-3.446,0.896C8.536,12.439,6.965,13,5.5,13z"/>
			</g>
			<g>
				<path d="M5.5,20C5.224,20,5,19.776,5,19.5S5.224,19,5.5,19c1.292,0,2.779-0.531,4.217-1.045C11.092,17.464,12.39,17,13.5,17
					c0.276,0,0.5,0.224,0.5,0.5S13.776,18,13.5,18c-0.937,0-2.156,0.436-3.446,0.896C8.536,19.439,6.965,20,5.5,20z"/>
			</g>
		</g>
		<g>
			<path d="M27.5,27h-25C1.122,27,0,25.878,0,24.5v-19C0,4.122,1.122,3,2.5,3h25C28.878,3,30,4.122,30,5.5v19
				C30,25.878,28.878,27,27.5,27z M2.5,4C1.673,4,1,4.673,1,5.5v19C1,25.327,1.673,26,2.5,26h25c0.827,0,1.5-0.673,1.5-1.5v-19
				C29,4.673,28.327,4,27.5,4H2.5z"/>
		</g>
		<g>
			<path d="M20.5,22c-0.827,0-1.5-0.673-1.5-1.5v-11C19,8.673,19.673,8,20.5,8S22,8.673,22,9.5v11C22,21.327,21.327,22,20.5,22z
				 M20.5,9C20.224,9,20,9.224,20,9.5v11c0,0.276,0.224,0.5,0.5,0.5s0.5-0.224,0.5-0.5v-11C21,9.224,20.776,9,20.5,9z"/>
		</g>
	</g>
</g>
<g id="Cooker">
</g>
<g id="Meat_Grinder">
</g>
<g id="Coffee_Maker">
</g>
<g id="Household_Mixer">
</g>
<g id="Stand_Mixer">
</g>
<g id="Hand_Blender">
</g>
<g id="Blender">
</g>
<g id="Cooker_Hood">
</g>
<g id="Refrigerator">
</g>
<g id="Freezer">
</g>
<g id="Apron">
</g>
<g id="Oven_Gloves">
</g>
<g id="Rolling_Pin">
</g>
<g id="Sieve">
</g>
<g id="Tea_Sieve">
</g>
<g id="Grater">
</g>
<g id="Knife_Holder">
</g>
<g id="Funnel">
</g>
<g id="Kitchen_Clock">
</g>
<g id="Lemon_Juicer">
</g>
<g id="Pastry_Bag_1">
</g>
<g id="Pastry_Bag_2">
</g>
<g id="Corkscrew">
</g>
<g id="Bottle_Opener">
</g>
<g id="Service">
</g>
<g id="Chopsticks">
</g>
<g id="Hatchet">
</g>
<g id="Filleting_Knife">
</g>
<g id="Bread_Knife">
</g>
<g id="Herb_Knife">
</g>
<g id="Whetting">
</g>
<g id="Cake_Knife">
</g>
<g id="Layer_58">
</g>
<g id="Ladle">
</g>
<g id="Sauce_Spoon">
</g>
<g id="Egg_Beater">
</g>
<g id="Meat_Fork">
</g>
<g id="Kitchen_Spoon_1">
</g>
<g id="Kitchen_Spoon_2">
</g>
<g id="Pizza_Cutter">
</g>
<g id="Potato_Musher">
</g>
<g id="Peeler">
</g>
<g id="Honey_Dipper">
</g>
<g id="Fork">
</g>
<g id="Knife">
</g>
<g id="Spoon">
</g>
<g id="Cutlery_Set">
</g>
<g id="Sugar_Bowl">
</g>
<g id="Matches">
</g>
<g id="Cezve">
</g>
</svg>
