<?xml version="1.0" encoding="iso-8859-1"?>
<!-- Generator: Adobe Illustrator 19.2.1, SVG Export Plug-In . SVG Version: 6.00 Build 0)  -->
<svg version="1.1" xmlns="http://www.w3.org/2000/svg" xmlns:xlink="http://www.w3.org/1999/xlink" x="0px" y="0px"
	 viewBox="0 0 30 30" style="enable-background:new 0 0 30 30;" xml:space="preserve">
<g id="Cutting_Board_1">
</g>
<g id="Cutting_Board_2">
</g>
<g id="Chef_x27_s_Hat_1">
</g>
<g id="Chef_x27_s_Hat_2">
</g>
<g id="Kitchen_Scale">
</g>
<g id="Measuring_Cup">
</g>
<g id="Pot_1">
</g>
<g id="Pot_2">
</g>
<g id="Wok_1">
</g>
<g id="Wok_2">
</g>
<g id="Teapot">
</g>
<g id="Plate">
</g>
<g id="Sauce_Boat">
</g>
<g id="Cauldron">
</g>
<g id="Cookbook">
</g>
<g id="Salt_Pot">
</g>
<g id="Pepper_Pot_1">
</g>
<g id="Pepper_Pot_2">
</g>
<g id="Egg_Timer">
</g>
<g id="Olive_Oil_Pot">
</g>
<g id="Pancake_Griddle">
	<g>
		<g>
			<g>
				<path d="M15.5,16c-0.23,0-0.436-0.16-0.487-0.391c-0.057-0.256,0.093-0.513,0.344-0.588l13.37-4
					C28.773,11.007,28.821,11,28.87,11c0.634,0,1.13,0.659,1.13,1.5S29.503,14,28.87,14l-13.296,1.995
					C15.549,15.998,15.524,16,15.5,16z M28.867,12.023l-6.499,1.944l6.428-0.961C28.877,12.983,29,12.812,29,12.5
					C29,12.248,28.92,12.087,28.867,12.023z"/>
			</g>
		</g>
		<g>
			<path d="M10.5,20h-5C2.57,20,0,17.196,0,14c0-0.276,0.224-0.5,0.5-0.5S1,13.724,1,14c0.221,0.287,2.594,1,7,1
				c4.329,0,6.696-0.688,7.003-1.058c0.003-0.032,0.01-0.063,0.02-0.093c0.035-0.235,0.235-0.388,0.486-0.388
				C15.785,13.461,16,13.724,16,14C16,17.196,13.43,20,10.5,20z M1.141,15.135C1.628,17.133,3.334,19,5.5,19h5
				c2.166,0,3.872-1.867,4.359-3.865C12.799,15.968,8.614,16,8,16S3.201,15.968,1.141,15.135z"/>
		</g>
		<g>
			<path d="M8,16c-0.819,0-8-0.056-8-2s7.181-2,8-2s8,0.056,8,2S8.819,16,8,16z M1.059,14c0.488,0.379,2.83,1,6.941,1
				s6.454-0.621,6.941-1c-0.488-0.379-2.83-1-6.941-1S1.546,13.621,1.059,14z M15.018,14.077h0.01H15.018z"/>
		</g>
	</g>
</g>
<g id="Pan">
</g>
<g id="Kettle">
</g>
<g id="Microwave">
</g>
<g id="Cooker">
</g>
<g id="Meat_Grinder">
</g>
<g id="Coffee_Maker">
</g>
<g id="Household_Mixer">
</g>
<g id="Stand_Mixer">
</g>
<g id="Hand_Blender">
</g>
<g id="Blender">
</g>
<g id="Cooker_Hood">
</g>
<g id="Refrigerator">
</g>
<g id="Freezer">
</g>
<g id="Apron">
</g>
<g id="Oven_Gloves">
</g>
<g id="Rolling_Pin">
</g>
<g id="Sieve">
</g>
<g id="Tea_Sieve">
</g>
<g id="Grater">
</g>
<g id="Knife_Holder">
</g>
<g id="Funnel">
</g>
<g id="Kitchen_Clock">
</g>
<g id="Lemon_Juicer">
</g>
<g id="Pastry_Bag_1">
</g>
<g id="Pastry_Bag_2">
</g>
<g id="Corkscrew">
</g>
<g id="Bottle_Opener">
</g>
<g id="Service">
</g>
<g id="Chopsticks">
</g>
<g id="Hatchet">
</g>
<g id="Filleting_Knife">
</g>
<g id="Bread_Knife">
</g>
<g id="Herb_Knife">
</g>
<g id="Whetting">
</g>
<g id="Cake_Knife">
</g>
<g id="Layer_58">
</g>
<g id="Ladle">
</g>
<g id="Sauce_Spoon">
</g>
<g id="Egg_Beater">
</g>
<g id="Meat_Fork">
</g>
<g id="Kitchen_Spoon_1">
</g>
<g id="Kitchen_Spoon_2">
</g>
<g id="Pizza_Cutter">
</g>
<g id="Potato_Musher">
</g>
<g id="Peeler">
</g>
<g id="Honey_Dipper">
</g>
<g id="Fork">
</g>
<g id="Knife">
</g>
<g id="Spoon">
</g>
<g id="Cutlery_Set">
</g>
<g id="Sugar_Bowl">
</g>
<g id="Matches">
</g>
<g id="Cezve">
</g>
</svg>
