<?xml version="1.0" encoding="iso-8859-1"?>
<!-- Generator: Adobe Illustrator 19.2.1, SVG Export Plug-In . SVG Version: 6.00 Build 0)  -->
<svg version="1.1" xmlns="http://www.w3.org/2000/svg" xmlns:xlink="http://www.w3.org/1999/xlink" x="0px" y="0px"
	 viewBox="0 0 30 30" style="enable-background:new 0 0 30 30;" xml:space="preserve">
<g id="Cutting_Board_1">
</g>
<g id="Cutting_Board_2">
</g>
<g id="Chef_x27_s_Hat_1">
</g>
<g id="Chef_x27_s_Hat_2">
</g>
<g id="Kitchen_Scale">
</g>
<g id="Measuring_Cup">
</g>
<g id="Pot_1">
</g>
<g id="Pot_2">
</g>
<g id="Wok_1">
</g>
<g id="Wok_2">
</g>
<g id="Teapot">
</g>
<g id="Plate">
</g>
<g id="Sauce_Boat">
</g>
<g id="Cauldron">
</g>
<g id="Cookbook">
</g>
<g id="Salt_Pot">
</g>
<g id="Pepper_Pot_1">
</g>
<g id="Pepper_Pot_2">
</g>
<g id="Egg_Timer">
</g>
<g id="Olive_Oil_Pot">
</g>
<g id="Pancake_Griddle">
</g>
<g id="Pan">
</g>
<g id="Kettle">
</g>
<g id="Microwave">
</g>
<g id="Cooker">
</g>
<g id="Meat_Grinder">
</g>
<g id="Coffee_Maker">
</g>
<g id="Household_Mixer">
</g>
<g id="Stand_Mixer">
</g>
<g id="Hand_Blender">
</g>
<g id="Blender">
</g>
<g id="Cooker_Hood">
</g>
<g id="Refrigerator">
</g>
<g id="Freezer">
</g>
<g id="Apron">
</g>
<g id="Oven_Gloves">
</g>
<g id="Rolling_Pin">
</g>
<g id="Sieve">
</g>
<g id="Tea_Sieve">
</g>
<g id="Grater">
</g>
<g id="Knife_Holder">
</g>
<g id="Funnel">
</g>
<g id="Kitchen_Clock">
</g>
<g id="Lemon_Juicer">
</g>
<g id="Pastry_Bag_1">
</g>
<g id="Pastry_Bag_2">
</g>
<g id="Corkscrew">
</g>
<g id="Bottle_Opener">
</g>
<g id="Service">
</g>
<g id="Chopsticks">
</g>
<g id="Hatchet">
</g>
<g id="Filleting_Knife">
</g>
<g id="Bread_Knife">
</g>
<g id="Herb_Knife">
</g>
<g id="Whetting">
</g>
<g id="Cake_Knife">
</g>
<g id="Layer_58">
</g>
<g id="Ladle">
</g>
<g id="Sauce_Spoon">
</g>
<g id="Egg_Beater">
</g>
<g id="Meat_Fork">
</g>
<g id="Kitchen_Spoon_1">
</g>
<g id="Kitchen_Spoon_2">
</g>
<g id="Pizza_Cutter">
</g>
<g id="Potato_Musher">
</g>
<g id="Peeler">
	<g>
		<g>
			<path d="M15,30c-1.654,0-3-1.346-3-3v-6c0-1.636-1.614-3.138-3.121-3.515c-2.336-0.794-3.663-2.499-3.877-4.941L5,6H4
				C2.897,6,2,5.103,2,4s0.897-2,2-2h1c0-1.103,0.897-2,2-2s2,0.897,2,2h12c0-1.103,0.897-2,2-2s2,0.897,2,2h1c1.103,0,2,0.897,2,2
				s-0.897,2-2,2h-1v6.5c0,1.612-0.663,3.783-3.824,4.968C19.689,17.744,18,19.365,18,21v6C18,28.654,16.654,30,15,30z M4,3
				C3.448,3,3,3.448,3,4s0.448,1,1,1h1.5C5.776,5,6,5.224,6,5.5v7c0.178,2.003,1.241,3.373,3.161,4.026
				C10.986,16.981,13,18.829,13,21v6c0,1.103,0.897,2,2,2s2-0.897,2-2v-6c0-2.168,2.065-4.16,3.911-4.492
				C22.932,15.741,24,14.385,24,12.5v-7C24,5.224,24.224,5,24.5,5H26c0.552,0,1-0.448,1-1s-0.448-1-1-1h-1.5
				C24.224,3,24,2.776,24,2.5V2c0-0.552-0.448-1-1-1s-1,0.448-1,1v0.5C22,2.776,21.776,3,21.5,3h-13C8.224,3,8,2.776,8,2.5V2
				c0-0.552-0.448-1-1-1S6,1.448,6,2v0.5C6,2.776,5.776,3,5.5,3H4z M17.5,15h-5C10.019,15,8,12.981,8,10.5v-5C8,5.224,8.224,5,8.5,5
				h13C21.776,5,22,5.224,22,5.5v5C22,12.981,19.981,15,17.5,15z M9,6v4.5c0,1.93,1.57,3.5,3.5,3.5h5c1.93,0,3.5-1.57,3.5-3.5V6H9z"
				/>
		</g>
		<g>
			<path d="M15,30c-1.654,0-3-1.346-3-3v-6c0-1.636-1.614-3.138-3.121-3.515c-2.336-0.794-3.663-2.499-3.877-4.941
				C5.001,12.529,5,12.515,5,12.5V2c0-1.103,0.897-2,2-2s2,0.897,2,2v8.5c0,1.93,1.57,3.5,3.5,3.5h5c1.93,0,3.5-1.57,3.5-3.5V2
				c0-1.103,0.897-2,2-2s2,0.897,2,2v10.5c0,1.612-0.663,3.783-3.824,4.968C19.689,17.744,18,19.365,18,21v6
				C18,28.654,16.654,30,15,30z M6,12.478c0.185,2.035,1.248,3.397,3.161,4.049C10.986,16.981,13,18.829,13,21v6
				c0,1.103,0.897,2,2,2s2-0.897,2-2v-6c0-2.168,2.065-4.16,3.911-4.492C22.932,15.741,24,14.385,24,12.5V2c0-0.552-0.448-1-1-1
				s-1,0.448-1,1v8.5c0,2.481-2.019,4.5-4.5,4.5h-5C10.019,15,8,12.981,8,10.5V2c0-0.552-0.448-1-1-1S6,1.448,6,2V12.478z"/>
		</g>
	</g>
</g>
<g id="Honey_Dipper">
</g>
<g id="Fork">
</g>
<g id="Knife">
</g>
<g id="Spoon">
</g>
<g id="Cutlery_Set">
</g>
<g id="Sugar_Bowl">
</g>
<g id="Matches">
</g>
<g id="Cezve">
</g>
</svg>
