<?xml version="1.0" encoding="iso-8859-1"?>
<!-- Generator: Adobe Illustrator 19.2.1, SVG Export Plug-In . SVG Version: 6.00 Build 0)  -->
<svg version="1.1" xmlns="http://www.w3.org/2000/svg" xmlns:xlink="http://www.w3.org/1999/xlink" x="0px" y="0px"
	 viewBox="0 0 30 30" style="enable-background:new 0 0 30 30;" xml:space="preserve">
<g id="Cutting_Board_1">
</g>
<g id="Cutting_Board_2">
</g>
<g id="Chef_x27_s_Hat_1">
</g>
<g id="Chef_x27_s_Hat_2">
</g>
<g id="Kitchen_Scale">
</g>
<g id="Measuring_Cup">
</g>
<g id="Pot_1">
</g>
<g id="Pot_2">
</g>
<g id="Wok_1">
</g>
<g id="Wok_2">
</g>
<g id="Teapot">
</g>
<g id="Plate">
</g>
<g id="Sauce_Boat">
</g>
<g id="Cauldron">
</g>
<g id="Cookbook">
</g>
<g id="Salt_Pot">
</g>
<g id="Pepper_Pot_1">
</g>
<g id="Pepper_Pot_2">
</g>
<g id="Egg_Timer">
</g>
<g id="Olive_Oil_Pot">
</g>
<g id="Pancake_Griddle">
</g>
<g id="Pan">
</g>
<g id="Kettle">
</g>
<g id="Microwave">
</g>
<g id="Cooker">
</g>
<g id="Meat_Grinder">
</g>
<g id="Coffee_Maker">
</g>
<g id="Household_Mixer">
</g>
<g id="Stand_Mixer">
</g>
<g id="Hand_Blender">
</g>
<g id="Blender">
</g>
<g id="Cooker_Hood">
</g>
<g id="Refrigerator">
</g>
<g id="Freezer">
</g>
<g id="Apron">
</g>
<g id="Oven_Gloves">
</g>
<g id="Rolling_Pin">
</g>
<g id="Sieve">
</g>
<g id="Tea_Sieve">
</g>
<g id="Grater">
</g>
<g id="Knife_Holder">
</g>
<g id="Funnel">
</g>
<g id="Kitchen_Clock">
</g>
<g id="Lemon_Juicer">
</g>
<g id="Pastry_Bag_1">
</g>
<g id="Pastry_Bag_2">
</g>
<g id="Corkscrew">
</g>
<g id="Bottle_Opener">
</g>
<g id="Service">
</g>
<g id="Chopsticks">
</g>
<g id="Hatchet">
</g>
<g id="Filleting_Knife">
</g>
<g id="Bread_Knife">
</g>
<g id="Herb_Knife">
</g>
<g id="Whetting">
</g>
<g id="Cake_Knife">
</g>
<g id="Layer_58">
</g>
<g id="Ladle">
</g>
<g id="Sauce_Spoon">
</g>
<g id="Egg_Beater">
</g>
<g id="Meat_Fork">
</g>
<g id="Kitchen_Spoon_1">
</g>
<g id="Kitchen_Spoon_2">
</g>
<g id="Pizza_Cutter">
</g>
<g id="Potato_Musher">
	<g>
		<g>
			<circle cx="12" cy="27.5" r="0.5"/>
		</g>
		<g>
			<circle cx="14.5" cy="26.5" r="0.5"/>
		</g>
		<g>
			<circle cx="17" cy="27.5" r="0.5"/>
		</g>
		<g>
			<circle cx="9.5" cy="26.5" r="0.5"/>
		</g>
		<g>
			<circle cx="19.5" cy="26.5" r="0.5"/>
		</g>
		<g>
			<path d="M7,27.479c-0.276,0-0.5-0.224-0.5-0.5v-1.632c0-5.143,2.797-9.663,7.5-12.151V9.5C14,9.224,14.224,9,14.5,9
				S15,9.224,15,9.5v4c0,0.188-0.106,0.361-0.275,0.446C10.201,16.229,7.5,20.49,7.5,25.347v1.632C7.5,27.255,7.276,27.479,7,27.479
				z"/>
		</g>
		<g>
			<path d="M22,27.479c-0.276,0-0.5-0.224-0.5-0.5v-1.632c0-4.856-2.701-9.118-7.225-11.4C14.106,13.861,14,13.688,14,13.5v-4
				C14,9.224,14.224,9,14.5,9S15,9.224,15,9.5v3.695c4.703,2.488,7.5,7.009,7.5,12.151v1.632C22.5,27.255,22.276,27.479,22,27.479z"
				/>
		</g>
		<g>
			<path d="M15.5,10h-2C13.224,10,13,9.776,13,9.5v-8C13,0.673,13.673,0,14.5,0S16,0.673,16,1.5v8C16,9.776,15.776,10,15.5,10z
				 M14,9h1V1.5C15,1.225,14.776,1,14.5,1S14,1.225,14,1.5V9z"/>
		</g>
		<g>
			<path d="M14.5,30c-3.976,0-8-1.03-8-3s4.024-3,8-3s8,1.03,8,3S18.476,30,14.5,30z M14.5,25c-4.273,0-7,1.185-7,2s2.727,2,7,2
				s7-1.185,7-2S18.773,25,14.5,25z"/>
		</g>
	</g>
</g>
<g id="Peeler">
</g>
<g id="Honey_Dipper">
</g>
<g id="Fork">
</g>
<g id="Knife">
</g>
<g id="Spoon">
</g>
<g id="Cutlery_Set">
</g>
<g id="Sugar_Bowl">
</g>
<g id="Matches">
</g>
<g id="Cezve">
</g>
</svg>
