<?xml version="1.0" encoding="iso-8859-1"?>
<!-- Generator: Adobe Illustrator 19.2.1, SVG Export Plug-In . SVG Version: 6.00 Build 0)  -->
<svg version="1.1" xmlns="http://www.w3.org/2000/svg" xmlns:xlink="http://www.w3.org/1999/xlink" x="0px" y="0px"
	 viewBox="0 0 30 30" style="enable-background:new 0 0 30 30;" xml:space="preserve">
<g id="Cutting_Board_1">
</g>
<g id="Cutting_Board_2">
</g>
<g id="Chef_x27_s_Hat_1">
</g>
<g id="Chef_x27_s_Hat_2">
</g>
<g id="Kitchen_Scale">
</g>
<g id="Measuring_Cup">
</g>
<g id="Pot_1">
</g>
<g id="Pot_2">
</g>
<g id="Wok_1">
</g>
<g id="Wok_2">
</g>
<g id="Teapot">
</g>
<g id="Plate">
</g>
<g id="Sauce_Boat">
	<g>
		<g>
			<path d="M14,22.696c-3.028,0-6-1.238-6-2.5c0-0.139,0.057-0.264,0.148-0.355l2.513-2.513c-2.045-1.122-3.895-2.851-5.043-3.923
				c-0.405-0.379-0.825-0.771-0.958-0.846c-0.195-0.111-0.42-0.27-0.675-0.452C3.157,11.518,2.023,10.71,0.5,10.71
				c-0.237,0-0.441-0.166-0.489-0.398c-0.048-0.231,0.072-0.465,0.289-0.56c0.099-0.043,2.437-1.056,4.2-1.056
				c0.757,0,1.884,0.187,3.189,0.402c1.734,0.287,3.7,0.611,5.406,0.611c3.052,0,7.875-0.424,9.761-0.992
				c0.151-0.046,0.315-0.018,0.442,0.077C23.425,8.889,23.5,9.038,23.5,9.196c0,2.04-2.969,6.211-6.175,8.118l2.36,2.36
				C19.87,19.743,20,19.915,20,20.126C20,21.458,17.028,22.696,14,22.696z M9.086,20.317C9.511,20.76,11.35,21.696,14,21.696
				c2.62,0,4.447-0.915,4.902-1.391l-2.756-2.756c-0.114-0.114-0.166-0.275-0.14-0.434s0.126-0.295,0.271-0.367
				c2.988-1.489,5.523-5.021,6.1-6.881c-2.288,0.493-6.51,0.842-9.282,0.842c-1.788,0-3.796-0.332-5.569-0.625
				C6.265,9.876,5.175,9.696,4.5,9.696c-0.65,0-1.417,0.168-2.092,0.365c0.898,0.334,1.613,0.844,2.157,1.231
				c0.224,0.159,0.419,0.3,0.59,0.397c0.225,0.128,0.53,0.41,1.146,0.984c1.221,1.141,3.265,3.05,5.413,4.07
				c0.147,0.07,0.25,0.207,0.278,0.367s-0.024,0.324-0.139,0.438L9.086,20.317z"/>
		</g>
		<g>
			<path d="M22.169,18.732c-0.678,0-1.352-0.341-1.934-0.987c-0.712-0.791-1.285-2.099-1.013-2.92
				c0.113-0.339,0.369-0.572,0.702-0.639c5.007-0.999,8.55-2.647,9.025-4.199c0.137-0.445-0.016-0.884-0.467-1.341
				c-0.478-0.484-3.519-0.679-5.133,0.906c-0.198,0.193-0.515,0.19-0.707-0.006C22.45,9.35,22.453,9.033,22.649,8.84
				c1.871-1.838,5.551-1.903,6.546-0.896c0.9,0.912,0.884,1.774,0.711,2.337c-0.6,1.956-4.258,3.783-9.786,4.886
				c-0.025,0.106,0.083,0.885,0.658,1.663c0.235,0.319,0.861,1.043,1.614,0.878c0.27-0.06,0.537,0.112,0.595,0.381
				c0.059,0.27-0.112,0.537-0.381,0.595C22.461,18.716,22.315,18.732,22.169,18.732z"/>
		</g>
	</g>
</g>
<g id="Cauldron">
</g>
<g id="Cookbook">
</g>
<g id="Salt_Pot">
</g>
<g id="Pepper_Pot_1">
</g>
<g id="Pepper_Pot_2">
</g>
<g id="Egg_Timer">
</g>
<g id="Olive_Oil_Pot">
</g>
<g id="Pancake_Griddle">
</g>
<g id="Pan">
</g>
<g id="Kettle">
</g>
<g id="Microwave">
</g>
<g id="Cooker">
</g>
<g id="Meat_Grinder">
</g>
<g id="Coffee_Maker">
</g>
<g id="Household_Mixer">
</g>
<g id="Stand_Mixer">
</g>
<g id="Hand_Blender">
</g>
<g id="Blender">
</g>
<g id="Cooker_Hood">
</g>
<g id="Refrigerator">
</g>
<g id="Freezer">
</g>
<g id="Apron">
</g>
<g id="Oven_Gloves">
</g>
<g id="Rolling_Pin">
</g>
<g id="Sieve">
</g>
<g id="Tea_Sieve">
</g>
<g id="Grater">
</g>
<g id="Knife_Holder">
</g>
<g id="Funnel">
</g>
<g id="Kitchen_Clock">
</g>
<g id="Lemon_Juicer">
</g>
<g id="Pastry_Bag_1">
</g>
<g id="Pastry_Bag_2">
</g>
<g id="Corkscrew">
</g>
<g id="Bottle_Opener">
</g>
<g id="Service">
</g>
<g id="Chopsticks">
</g>
<g id="Hatchet">
</g>
<g id="Filleting_Knife">
</g>
<g id="Bread_Knife">
</g>
<g id="Herb_Knife">
</g>
<g id="Whetting">
</g>
<g id="Cake_Knife">
</g>
<g id="Layer_58">
</g>
<g id="Ladle">
</g>
<g id="Sauce_Spoon">
</g>
<g id="Egg_Beater">
</g>
<g id="Meat_Fork">
</g>
<g id="Kitchen_Spoon_1">
</g>
<g id="Kitchen_Spoon_2">
</g>
<g id="Pizza_Cutter">
</g>
<g id="Potato_Musher">
</g>
<g id="Peeler">
</g>
<g id="Honey_Dipper">
</g>
<g id="Fork">
</g>
<g id="Knife">
</g>
<g id="Spoon">
</g>
<g id="Cutlery_Set">
</g>
<g id="Sugar_Bowl">
</g>
<g id="Matches">
</g>
<g id="Cezve">
</g>
</svg>
