<?xml version="1.0" encoding="iso-8859-1"?>
<!-- Generator: Adobe Illustrator 19.2.1, SVG Export Plug-In . SVG Version: 6.00 Build 0)  -->
<svg version="1.1" xmlns="http://www.w3.org/2000/svg" xmlns:xlink="http://www.w3.org/1999/xlink" x="0px" y="0px"
	 viewBox="0 0 30 30" style="enable-background:new 0 0 30 30;" xml:space="preserve">
<g id="Cutting_Board_1">
</g>
<g id="Cutting_Board_2">
</g>
<g id="Chef_x27_s_Hat_1">
</g>
<g id="Chef_x27_s_Hat_2">
</g>
<g id="Kitchen_Scale">
</g>
<g id="Measuring_Cup">
</g>
<g id="Pot_1">
</g>
<g id="Pot_2">
</g>
<g id="Wok_1">
</g>
<g id="Wok_2">
</g>
<g id="Teapot">
</g>
<g id="Plate">
</g>
<g id="Sauce_Boat">
</g>
<g id="Cauldron">
</g>
<g id="Cookbook">
</g>
<g id="Salt_Pot">
</g>
<g id="Pepper_Pot_1">
</g>
<g id="Pepper_Pot_2">
</g>
<g id="Egg_Timer">
</g>
<g id="Olive_Oil_Pot">
</g>
<g id="Pancake_Griddle">
</g>
<g id="Pan">
</g>
<g id="Kettle">
</g>
<g id="Microwave">
</g>
<g id="Cooker">
</g>
<g id="Meat_Grinder">
</g>
<g id="Coffee_Maker">
</g>
<g id="Household_Mixer">
</g>
<g id="Stand_Mixer">
</g>
<g id="Hand_Blender">
</g>
<g id="Blender">
</g>
<g id="Cooker_Hood">
</g>
<g id="Refrigerator">
</g>
<g id="Freezer">
</g>
<g id="Apron">
</g>
<g id="Oven_Gloves">
</g>
<g id="Rolling_Pin">
</g>
<g id="Sieve">
</g>
<g id="Tea_Sieve">
</g>
<g id="Grater">
</g>
<g id="Knife_Holder">
</g>
<g id="Funnel">
</g>
<g id="Kitchen_Clock">
</g>
<g id="Lemon_Juicer">
</g>
<g id="Pastry_Bag_1">
</g>
<g id="Pastry_Bag_2">
</g>
<g id="Corkscrew">
</g>
<g id="Bottle_Opener">
</g>
<g id="Service">
	<g>
		<g>
			<path d="M2,22H1c-0.276,0-0.5-0.224-0.5-0.5S0.724,21,1,21h1c0.276,0,0.5,0.224,0.5,0.5S2.276,22,2,22z"/>
		</g>
		<g>
			<g>
				<path d="M25,25H5c-1.93,0-3.5-1.57-3.5-3.5C1.5,21.224,1.724,21,2,21h26c0.276,0,0.5,0.224,0.5,0.5C28.5,23.43,26.93,25,25,25z
					 M2.55,22c0.232,1.14,1.243,2,2.45,2h20c1.207,0,2.218-0.86,2.45-2H2.55z"/>
			</g>
			<g>
				<path d="M25,25c-0.276,0-0.5-0.224-0.5-0.5S24.724,24,25,24c1.379,0,2.5-1.121,2.5-2.5c0-0.276,0.224-0.5,0.5-0.5
					s0.5,0.224,0.5,0.5C28.5,23.43,26.93,25,25,25z"/>
			</g>
			<g>
				<path d="M28,22c-0.13,0-0.26-0.05-0.351-0.15c-0.05-0.04-0.09-0.1-0.109-0.16c-0.03-0.06-0.04-0.12-0.04-0.189
					c0-0.13,0.05-0.26,0.149-0.351c0.181-0.189,0.521-0.189,0.7,0C28.45,21.24,28.5,21.37,28.5,21.5c0,0.069-0.01,0.13-0.04,0.189
					c-0.021,0.061-0.061,0.12-0.11,0.16C28.26,21.95,28.13,22,28,22z"/>
			</g>
			<g>
				<path d="M28,22H2c-0.276,0-0.5-0.224-0.5-0.5S1.724,21,2,21h26c0.276,0,0.5,0.224,0.5,0.5S28.276,22,28,22z"/>
			</g>
			<g>
				<path d="M2,22c-0.07,0-0.13-0.01-0.19-0.04c-0.06-0.021-0.12-0.061-0.16-0.11c-0.05-0.04-0.09-0.1-0.109-0.16
					C1.51,21.63,1.5,21.569,1.5,21.5c0-0.13,0.05-0.26,0.149-0.351c0.04-0.05,0.101-0.09,0.16-0.109c0.181-0.08,0.4-0.03,0.54,0.109
					C2.45,21.24,2.5,21.37,2.5,21.5c0,0.069-0.01,0.13-0.04,0.189c-0.021,0.061-0.061,0.12-0.11,0.16c-0.04,0.05-0.1,0.09-0.16,0.11
					C2.13,21.99,2.069,22,2,22z"/>
			</g>
			<g>
				<path d="M5,25c-1.93,0-3.5-1.57-3.5-3.5C1.5,21.224,1.724,21,2,21s0.5,0.224,0.5,0.5C2.5,22.879,3.621,24,5,24
					c0.276,0,0.5,0.224,0.5,0.5S5.276,25,5,25z"/>
			</g>
			<g>
				<path d="M25,25H5c-0.276,0-0.5-0.224-0.5-0.5S4.724,24,5,24h20c0.276,0,0.5,0.224,0.5,0.5S25.276,25,25,25z"/>
			</g>
			<g>
				<path d="M29,22h-1c-0.276,0-0.5-0.224-0.5-0.5S27.724,21,28,21h1c0.276,0,0.5,0.224,0.5,0.5S29.276,22,29,22z"/>
			</g>
			<g>
				<path d="M27,22H3c-0.276,0-0.5-0.224-0.5-0.5c0-5.571,3.68-10.44,9-11.987c0-0.004,0-0.009,0-0.013C11.5,7.57,13.07,6,15,6
					s3.5,1.57,3.5,3.5c0,0.004,0,0.009,0,0.013c5.32,1.547,9,6.416,9,11.987C27.5,21.776,27.276,22,27,22z M3.511,21h22.979
					c-0.218-5.046-3.714-9.376-8.651-10.632c-0.245-0.063-0.405-0.298-0.373-0.549c0.001-0.002,0.012-0.082,0.012-0.083
					C17.487,9.658,17.5,9.58,17.5,9.5C17.5,8.121,16.379,7,15,7s-2.5,1.121-2.5,2.5c0,0.08,0.013,0.158,0.023,0.236
					c0.035,0.252-0.114,0.569-0.361,0.632C7.225,11.624,3.729,15.954,3.511,21z"/>
			</g>
			<g>
				<path d="M24.798,20c-0.232,0-0.44-0.163-0.489-0.4c-0.722-3.538-3.455-6.4-6.964-7.294c-0.268-0.068-0.43-0.34-0.361-0.607
					c0.067-0.268,0.336-0.432,0.607-0.361c3.878,0.986,6.9,4.151,7.698,8.063c0.055,0.271-0.12,0.534-0.391,0.59
					C24.865,19.997,24.831,20,24.798,20z"/>
			</g>
			<g>
				<g>
					<path d="M27,22c-0.276,0-0.5-0.224-0.5-0.5C26.5,15.159,21.341,10,15,10S3.5,15.159,3.5,21.5C3.5,21.776,3.276,22,3,22
						s-0.5-0.224-0.5-0.5C2.5,14.607,8.107,9,15,9s12.5,5.607,12.5,12.5C27.5,21.776,27.276,22,27,22z"/>
				</g>
			</g>
		</g>
	</g>
</g>
<g id="Chopsticks">
</g>
<g id="Hatchet">
</g>
<g id="Filleting_Knife">
</g>
<g id="Bread_Knife">
</g>
<g id="Herb_Knife">
</g>
<g id="Whetting">
</g>
<g id="Cake_Knife">
</g>
<g id="Layer_58">
</g>
<g id="Ladle">
</g>
<g id="Sauce_Spoon">
</g>
<g id="Egg_Beater">
</g>
<g id="Meat_Fork">
</g>
<g id="Kitchen_Spoon_1">
</g>
<g id="Kitchen_Spoon_2">
</g>
<g id="Pizza_Cutter">
</g>
<g id="Potato_Musher">
</g>
<g id="Peeler">
</g>
<g id="Honey_Dipper">
</g>
<g id="Fork">
</g>
<g id="Knife">
</g>
<g id="Spoon">
</g>
<g id="Cutlery_Set">
</g>
<g id="Sugar_Bowl">
</g>
<g id="Matches">
</g>
<g id="Cezve">
</g>
</svg>
