<?xml version="1.0" encoding="iso-8859-1"?>
<!-- Generator: Adobe Illustrator 19.2.1, SVG Export Plug-In . SVG Version: 6.00 Build 0)  -->
<svg version="1.1" xmlns="http://www.w3.org/2000/svg" xmlns:xlink="http://www.w3.org/1999/xlink" x="0px" y="0px"
	 viewBox="0 0 30 30" style="enable-background:new 0 0 30 30;" xml:space="preserve">
<g id="Cutting_Board_1">
</g>
<g id="Cutting_Board_2">
</g>
<g id="Chef_x27_s_Hat_1">
</g>
<g id="Chef_x27_s_Hat_2">
</g>
<g id="Kitchen_Scale">
</g>
<g id="Measuring_Cup">
</g>
<g id="Pot_1">
</g>
<g id="Pot_2">
</g>
<g id="Wok_1">
</g>
<g id="Wok_2">
	<g>
		<g>
			<g>
				<path d="M1.5,15c-0.174,0-0.344-0.091-0.436-0.254l-1-1.769c-0.111-0.198-0.076-0.445,0.086-0.604l1.261-1.231
					c0.182-0.177,0.465-0.19,0.664-0.031l1.239,1c0.215,0.173,0.248,0.488,0.074,0.703c-0.174,0.216-0.487,0.249-0.703,0.075
					l-0.894-0.721L1.125,12.82l0.811,1.434c0.136,0.24,0.051,0.545-0.189,0.681C1.668,14.979,1.584,15,1.5,15z"/>
			</g>
			<g>
				<path d="M20.499,15c-0.245,0-0.46-0.181-0.494-0.432c-0.016-0.115,0.009-0.226,0.063-0.318c-0.02-0.033-0.035-0.069-0.047-0.107
					c-0.079-0.265,0.072-0.543,0.336-0.622l8.369-2.5C28.772,11.007,28.82,11,28.869,11C29.503,11,30,11.625,30,12.423
					c0,0.798-0.497,1.423-1.131,1.423l-8.301,1.149C20.545,14.999,20.522,15,20.499,15z M28.878,12.02l-5.104,1.524l5.027-0.693
					C28.894,12.829,29,12.676,29,12.423C29,12.214,28.928,12.074,28.878,12.02z"/>
			</g>
		</g>
		<g>
			<path d="M11,20c-5.607,0-10-2.636-10-6c0-1.97,5.03-3,10-3s10,1.03,10,3C21,17.364,16.607,20,11,20z M11,12c-5.823,0-9,1.321-9,2
				c0,2.757,4.037,5,9,5s9-2.243,9-5C20,13.321,16.823,12,11,12z"/>
		</g>
		<g>
			<path d="M11,17c-4.97,0-10-1.03-10-3s5.03-3,10-3s10,1.03,10,3S15.97,17,11,17z M11,12c-5.823,0-9,1.321-9,2s3.177,2,9,2
				s9-1.321,9-2S16.823,12,11,12z"/>
		</g>
	</g>
</g>
<g id="Teapot">
</g>
<g id="Plate">
</g>
<g id="Sauce_Boat">
</g>
<g id="Cauldron">
</g>
<g id="Cookbook">
</g>
<g id="Salt_Pot">
</g>
<g id="Pepper_Pot_1">
</g>
<g id="Pepper_Pot_2">
</g>
<g id="Egg_Timer">
</g>
<g id="Olive_Oil_Pot">
</g>
<g id="Pancake_Griddle">
</g>
<g id="Pan">
</g>
<g id="Kettle">
</g>
<g id="Microwave">
</g>
<g id="Cooker">
</g>
<g id="Meat_Grinder">
</g>
<g id="Coffee_Maker">
</g>
<g id="Household_Mixer">
</g>
<g id="Stand_Mixer">
</g>
<g id="Hand_Blender">
</g>
<g id="Blender">
</g>
<g id="Cooker_Hood">
</g>
<g id="Refrigerator">
</g>
<g id="Freezer">
</g>
<g id="Apron">
</g>
<g id="Oven_Gloves">
</g>
<g id="Rolling_Pin">
</g>
<g id="Sieve">
</g>
<g id="Tea_Sieve">
</g>
<g id="Grater">
</g>
<g id="Knife_Holder">
</g>
<g id="Funnel">
</g>
<g id="Kitchen_Clock">
</g>
<g id="Lemon_Juicer">
</g>
<g id="Pastry_Bag_1">
</g>
<g id="Pastry_Bag_2">
</g>
<g id="Corkscrew">
</g>
<g id="Bottle_Opener">
</g>
<g id="Service">
</g>
<g id="Chopsticks">
</g>
<g id="Hatchet">
</g>
<g id="Filleting_Knife">
</g>
<g id="Bread_Knife">
</g>
<g id="Herb_Knife">
</g>
<g id="Whetting">
</g>
<g id="Cake_Knife">
</g>
<g id="Layer_58">
</g>
<g id="Ladle">
</g>
<g id="Sauce_Spoon">
</g>
<g id="Egg_Beater">
</g>
<g id="Meat_Fork">
</g>
<g id="Kitchen_Spoon_1">
</g>
<g id="Kitchen_Spoon_2">
</g>
<g id="Pizza_Cutter">
</g>
<g id="Potato_Musher">
</g>
<g id="Peeler">
</g>
<g id="Honey_Dipper">
</g>
<g id="Fork">
</g>
<g id="Knife">
</g>
<g id="Spoon">
</g>
<g id="Cutlery_Set">
</g>
<g id="Sugar_Bowl">
</g>
<g id="Matches">
</g>
<g id="Cezve">
</g>
</svg>
