<?xml version="1.0" encoding="iso-8859-1"?>
<!-- Generator: Adobe Illustrator 19.2.1, SVG Export Plug-In . SVG Version: 6.00 Build 0)  -->
<svg version="1.1" xmlns="http://www.w3.org/2000/svg" xmlns:xlink="http://www.w3.org/1999/xlink" x="0px" y="0px"
	 viewBox="0 0 24 24" style="enable-background:new 0 0 24 24;" xml:space="preserve">
<g id="Engagement_1">
</g>
<g id="Engagement_2">
</g>
<g id="Wedding_Ring">
</g>
<g id="Church">
</g>
<g id="Church_Bells">
</g>
<g id="Wedding_Altar_1">
</g>
<g id="Wedding_Altar_2">
</g>
<g id="Bow-Tie">
	<g>
		<path d="M12.5,8h-1C10.121,8,9,9.122,9,10.5v3c0,1.378,1.121,2.5,2.5,2.5h1c1.379,0,2.5-1.122,2.5-2.5v-3
			C15,9.122,13.879,8,12.5,8z"/>
		<path d="M22.962,7.472c-0.659-0.476-1.479-0.601-2.237-0.349l-5.246,1.563C15.803,9.217,16,9.834,16,10.5v0.155
			c1.117-0.24,2.554-0.533,3.434-0.651c0.264-0.034,0.525,0.155,0.563,0.43c0.036,0.273-0.156,0.525-0.43,0.562
			c-0.896,0.12-2.439,0.439-3.566,0.683v0.642c1.127,0.244,2.671,0.564,3.566,0.683c0.273,0.037,0.466,0.288,0.43,0.562
			C19.962,13.817,19.747,14,19.501,14c-0.022,0-0.045-0.001-0.067-0.004c-0.88-0.117-2.317-0.41-3.434-0.651V13.5
			c0,0.666-0.197,1.283-0.521,1.813l5.23,1.559c0.264,0.087,0.532,0.131,0.799,0.131c0.515,0,1.02-0.162,1.454-0.475
			C23.622,16.053,24,15.314,24,14.5v-5C24,8.687,23.622,7.947,22.962,7.472z"/>
		<path d="M4.566,10.004c0.88,0.117,2.317,0.41,3.434,0.651V10.5c0-0.666,0.197-1.283,0.521-1.813l-5.23-1.559
			C2.519,6.873,1.698,6.997,1.038,7.472C0.378,7.947,0,8.687,0,9.5v5c0,0.813,0.378,1.553,1.038,2.028
			c0.437,0.315,0.943,0.476,1.456,0.476c0.262,0,0.525-0.042,0.781-0.127l5.246-1.563C8.197,14.783,8,14.166,8,13.5v-0.155
			c-1.117,0.24-2.554,0.533-3.434,0.65C4.544,13.999,4.521,14,4.499,14c-0.246,0-0.461-0.183-0.495-0.434
			c-0.036-0.273,0.156-0.525,0.43-0.562C5.329,12.885,6.873,12.566,8,12.321v-0.642c-1.127-0.244-2.671-0.564-3.566-0.683
			c-0.273-0.037-0.466-0.288-0.43-0.562C4.041,10.16,4.298,9.971,4.566,10.004z"/>
	</g>
</g>
<g id="Wedding_Tiara">
</g>
<g id="Wedding_Bouquet">
</g>
<g id="Wedding_Decoration_1">
</g>
<g id="Wedding_Decoration_2">
</g>
<g id="Wedding_Way_Sign">
</g>
<g id="Wedding_Date">
</g>
<g id="Wedding_Invitation">
</g>
<g id="Wedding_Invitation_2">
</g>
<g id="Bride">
</g>
<g id="Groom">
</g>
<g id="Mariage_Couple">
</g>
<g id="Wedding_Planner_Book">
</g>
<g id="Wedding_Cake_1">
</g>
<g id="Wedding_Cake_2">
</g>
<g id="Wedding_Cake_3">
</g>
<g id="Cake_Slice">
</g>
<g id="Marriage_Settlement">
</g>
<g id="Glass_Decoration">
</g>
<g id="Cutlery_Decoration">
</g>
<g id="Celebration_Glasses">
</g>
<g id="Wedding_Photo">
</g>
<g id="Wedding_Present_1">
</g>
<g id="Wedding_Present_2">
</g>
<g id="Wedding_Bouquet_2">
</g>
<g id="Hands_with_rings">
</g>
<g id="Wedding_Car">
</g>
<g id="Wedding_music">
</g>
<g id="wedding_party">
</g>
<g id="Confetti_1">
</g>
<g id="Confetti_2">
</g>
</svg>
