<?xml version="1.0" encoding="iso-8859-1"?>
<!-- Generator: Adobe Illustrator 19.2.1, SVG Export Plug-In . SVG Version: 6.00 Build 0)  -->
<svg version="1.1" xmlns="http://www.w3.org/2000/svg" xmlns:xlink="http://www.w3.org/1999/xlink" x="0px" y="0px"
	 viewBox="0 0 24 24" style="enable-background:new 0 0 24 24;" xml:space="preserve">
<g id="Engagement_1">
</g>
<g id="Engagement_2">
</g>
<g id="Wedding_Ring">
</g>
<g id="Church">
</g>
<g id="Church_Bells">
</g>
<g id="Wedding_Altar_1">
</g>
<g id="Wedding_Altar_2">
</g>
<g id="Bow-Tie">
</g>
<g id="Wedding_Tiara">
</g>
<g id="Wedding_Bouquet">
</g>
<g id="Wedding_Decoration_1">
</g>
<g id="Wedding_Decoration_2">
</g>
<g id="Wedding_Way_Sign">
</g>
<g id="Wedding_Date">
</g>
<g id="Wedding_Invitation">
</g>
<g id="Wedding_Invitation_2">
</g>
<g id="Bride">
</g>
<g id="Groom">
</g>
<g id="Mariage_Couple">
</g>
<g id="Wedding_Planner_Book">
</g>
<g id="Wedding_Cake_1">
</g>
<g id="Wedding_Cake_2">
</g>
<g id="Wedding_Cake_3">
</g>
<g id="Cake_Slice">
</g>
<g id="Marriage_Settlement">
</g>
<g id="Glass_Decoration">
</g>
<g id="Cutlery_Decoration">
</g>
<g id="Celebration_Glasses">
	<g>
		<path d="M11.257,7.082L7.753,4.99C7.536,4.859,7.247,4.915,7.094,5.124L4.14,9.161C4.138,9.164,4.138,9.167,4.136,9.169
			c-0.408,0.524-0.635,1.176-0.635,1.842c0,0.94,0.443,1.77,1.122,2.32l-1.41,2.439c-0.411-0.171-0.834-0.257-1.243-0.25
			c-0.6,0.02-1.093,0.268-1.363,0.683c-0.077,0.099-0.114,0.224-0.104,0.351c0.014,0.161,0.104,0.305,0.243,0.387l3.5,2.07
			c0.08,0.047,0.168,0.07,0.255,0.07c0.161,0,0.319-0.079,0.416-0.222c0.031-0.047,0.054-0.098,0.067-0.149
			c0.349-0.75-0.031-1.735-0.91-2.432l1.418-2.453c0.317,0.114,0.653,0.187,1.008,0.187c1.16,0,2.224-0.678,2.716-1.727
			c0.001-0.002,0.003-0.003,0.005-0.005l2.229-4.548C11.565,7.498,11.481,7.216,11.257,7.082z M7.632,6.082l2.718,1.623L9.657,9.119
			c-0.434,0.189-2.135,0.834-4.851,0.883c0.046-0.077,0.073-0.162,0.129-0.233C4.939,9.765,4.939,9.76,4.942,9.757
			c0.001-0.002,0.004-0.003,0.005-0.005L7.632,6.082z"/>
		<path d="M23.414,16.232c-0.266-0.432-0.768-0.691-1.381-0.711c-0.397-0.008-0.827,0.078-1.242,0.251l-1.411-2.44
			c0.679-0.55,1.122-1.38,1.122-2.32c0-0.672-0.229-1.331-0.644-1.858l-2.949-4.03c-0.151-0.208-0.44-0.266-0.659-0.134
			l-3.504,2.092c-0.224,0.133-0.308,0.416-0.193,0.649l2.225,4.538c0.49,1.058,1.56,1.742,2.725,1.742
			c0.355,0,0.692-0.073,1.008-0.187l1.418,2.453c-0.879,0.697-1.259,1.683-0.91,2.432c0.014,0.052,0.036,0.102,0.067,0.149
			c0.097,0.144,0.255,0.222,0.416,0.222c0.087,0,0.175-0.022,0.255-0.07l3.5-2.07c0.139-0.082,0.226-0.229,0.24-0.39
			C23.506,16.439,23.475,16.325,23.414,16.232z M16.371,6.081l2.686,3.67c0.004,0.005,0.007,0.011,0.011,0.016
			c0.057,0.071,0.084,0.157,0.13,0.234c-2.716-0.048-4.416-0.693-4.85-0.882l-0.693-1.414L16.371,6.081z"/>
	</g>
</g>
<g id="Wedding_Photo">
</g>
<g id="Wedding_Present_1">
</g>
<g id="Wedding_Present_2">
</g>
<g id="Wedding_Bouquet_2">
</g>
<g id="Hands_with_rings">
</g>
<g id="Wedding_Car">
</g>
<g id="Wedding_music">
</g>
<g id="wedding_party">
</g>
<g id="Confetti_1">
</g>
<g id="Confetti_2">
</g>
</svg>
