<?xml version="1.0" encoding="iso-8859-1"?>
<!-- Generator: Adobe Illustrator 19.2.1, SVG Export Plug-In . SVG Version: 6.00 Build 0)  -->
<svg version="1.1" xmlns="http://www.w3.org/2000/svg" xmlns:xlink="http://www.w3.org/1999/xlink" x="0px" y="0px"
	 viewBox="0 0 24 24" style="enable-background:new 0 0 24 24;" xml:space="preserve">
<g id="Engagement_1">
</g>
<g id="Engagement_2">
</g>
<g id="Wedding_Ring">
</g>
<g id="Church">
</g>
<g id="Church_Bells">
</g>
<g id="Wedding_Altar_1">
</g>
<g id="Wedding_Altar_2">
</g>
<g id="Bow-Tie">
</g>
<g id="Wedding_Tiara">
</g>
<g id="Wedding_Bouquet">
</g>
<g id="Wedding_Decoration_1">
</g>
<g id="Wedding_Decoration_2">
</g>
<g id="Wedding_Way_Sign">
</g>
<g id="Wedding_Date">
</g>
<g id="Wedding_Invitation">
</g>
<g id="Wedding_Invitation_2">
</g>
<g id="Bride">
</g>
<g id="Groom">
</g>
<g id="Mariage_Couple">
</g>
<g id="Wedding_Planner_Book">
</g>
<g id="Wedding_Cake_1">
</g>
<g id="Wedding_Cake_2">
</g>
<g id="Wedding_Cake_3">
</g>
<g id="Cake_Slice">
</g>
<g id="Marriage_Settlement">
</g>
<g id="Glass_Decoration">
</g>
<g id="Cutlery_Decoration">
	<path d="M17,6.5C17,3.912,15.604,0,13.5,0c-1.031,0-1.89,0.941-2.5,2.203V0.5c0-0.177-0.094-0.341-0.246-0.431
		c-0.151-0.09-0.34-0.093-0.495-0.007C10.125,0.136,7,1.902,7,5.5c0,2.594,0.557,4.71,0.854,5.653
		c-0.124,0.06-0.244,0.13-0.349,0.224C7.185,11.661,7,12.071,7,12.501v9c0,0.428,0.183,0.836,0.501,1.12
		c0.164,0.147,0.36,0.239,0.567,0.301C8.251,23.542,8.82,24,9.5,24c0.819,0,1.485-0.661,1.498-1.478
		c0.32-0.09,0.652-0.19,1.002-0.314V22.5c0,0.827,0.673,1.5,1.5,1.5c0.804,0,1.458-0.638,1.493-1.433
		c0.007,0.024,0.019,0.047,0.026,0.071C15.082,22.855,15.279,23,15.5,23c0.022,0,0.046-0.001,0.069-0.005
		C15.816,22.96,16,22.749,16,22.5v-11c0-0.249-0.184-0.46-0.43-0.495c-0.243-0.038-0.481,0.116-0.551,0.356
		c-0.005,0.018-0.014,0.035-0.02,0.053V9.855C16.38,9.313,17,8.263,17,6.5z M9.312,17.463c0.035,0.014,2.617,1.083,4.342,2.925
		c-0.459,0.241-0.908,0.452-1.341,0.628c-0.004,0.002-0.009,0.003-0.013,0.005c-1.582,0.64-2.949,0.887-3.742,0.977
		c-0.143,0.016-0.284-0.028-0.392-0.124C8.06,21.778,8,21.645,8,21.5v-9c0-0.146,0.06-0.279,0.168-0.375
		c0.109-0.096,0.251-0.138,0.395-0.122c0.814,0.1,2.856,0.46,5.093,1.615c-1.727,1.852-4.306,2.903-4.34,2.917
		C9.125,16.611,9.001,16.794,9,16.999C9,17.203,9.123,17.387,9.312,17.463z M12,9.855v1.958c-0.349-0.123-0.684-0.23-1-0.32V9.249
		C11.275,9.494,11.602,9.699,12,9.855z M15,20.433c-0.038-0.052-0.083-0.099-0.122-0.149c0-0.001,0-0.002-0.001-0.003
		c-0.002-0.003-0.005-0.004-0.006-0.007c-0.009-0.011-0.017-0.022-0.027-0.032c-1.235-1.562-3.043-2.663-4.161-3.239
		c1.118-0.571,2.927-1.667,4.163-3.24c0.01-0.009,0.016-0.021,0.025-0.031c0.042-0.054,0.089-0.104,0.129-0.159V20.433z"/>
</g>
<g id="Celebration_Glasses">
</g>
<g id="Wedding_Photo">
</g>
<g id="Wedding_Present_1">
</g>
<g id="Wedding_Present_2">
</g>
<g id="Wedding_Bouquet_2">
</g>
<g id="Hands_with_rings">
</g>
<g id="Wedding_Car">
</g>
<g id="Wedding_music">
</g>
<g id="wedding_party">
</g>
<g id="Confetti_1">
</g>
<g id="Confetti_2">
</g>
</svg>
