<?xml version="1.0" encoding="iso-8859-1"?>
<!-- Generator: Adobe Illustrator 19.2.1, SVG Export Plug-In . SVG Version: 6.00 Build 0)  -->
<svg version="1.1" xmlns="http://www.w3.org/2000/svg" xmlns:xlink="http://www.w3.org/1999/xlink" x="0px" y="0px"
	 viewBox="0 0 24 24" style="enable-background:new 0 0 24 24;" xml:space="preserve">
<g id="Engagement_1">
</g>
<g id="Engagement_2">
</g>
<g id="Wedding_Ring">
</g>
<g id="Church">
</g>
<g id="Church_Bells">
</g>
<g id="Wedding_Altar_1">
</g>
<g id="Wedding_Altar_2">
</g>
<g id="Bow-Tie">
</g>
<g id="Wedding_Tiara">
</g>
<g id="Wedding_Bouquet">
</g>
<g id="Wedding_Decoration_1">
</g>
<g id="Wedding_Decoration_2">
</g>
<g id="Wedding_Way_Sign">
</g>
<g id="Wedding_Date">
</g>
<g id="Wedding_Invitation">
</g>
<g id="Wedding_Invitation_2">
</g>
<g id="Bride">
</g>
<g id="Groom">
</g>
<g id="Mariage_Couple">
</g>
<g id="Wedding_Planner_Book">
</g>
<g id="Wedding_Cake_1">
</g>
<g id="Wedding_Cake_2">
</g>
<g id="Wedding_Cake_3">
</g>
<g id="Cake_Slice">
</g>
<g id="Marriage_Settlement">
</g>
<g id="Glass_Decoration">
	<g>
		<path d="M13.5,23H12v-5.051c1.692-0.245,3-1.691,3-3.449c0-0.012,0-0.024-0.001-0.036l-0.5-7C14.48,7.203,14.262,7,14,7H9
			C8.738,7,8.52,7.203,8.502,7.464L8,14.5c0,1.758,1.308,3.204,3,3.449V23H9.5C9.224,23,9,23.224,9,23.5S9.224,24,9.5,24h4
			c0.276,0,0.5-0.224,0.5-0.5S13.776,23,13.5,23z"/>
		<path d="M9,6h0.75l2.55-3.4c0.075-0.1,0.162-0.187,0.258-0.264c-0.4-0.379-0.834-0.708-1.253-0.929L8.732,0.057
			C8.566-0.03,8.366-0.017,8.212,0.091C8.058,0.2,7.979,0.385,8.005,0.571l0.779,5.45C8.855,6.01,8.926,6,9,6z"/>
		<path d="M14,6V3.5c0-0.215-0.138-0.406-0.342-0.474C13.455,2.957,13.23,3.028,13.1,3.2L11,6H14z"/>
	</g>
</g>
<g id="Cutlery_Decoration">
</g>
<g id="Celebration_Glasses">
</g>
<g id="Wedding_Photo">
</g>
<g id="Wedding_Present_1">
</g>
<g id="Wedding_Present_2">
</g>
<g id="Wedding_Bouquet_2">
</g>
<g id="Hands_with_rings">
</g>
<g id="Wedding_Car">
</g>
<g id="Wedding_music">
</g>
<g id="wedding_party">
</g>
<g id="Confetti_1">
</g>
<g id="Confetti_2">
</g>
</svg>
