<?xml version="1.0" encoding="iso-8859-1"?>
<!-- Generator: Adobe Illustrator 19.2.1, SVG Export Plug-In . SVG Version: 6.00 Build 0)  -->
<svg version="1.1" xmlns="http://www.w3.org/2000/svg" xmlns:xlink="http://www.w3.org/1999/xlink" x="0px" y="0px"
	 viewBox="0 0 24 24" style="enable-background:new 0 0 24 24;" xml:space="preserve">
<g id="Engagement_1">
</g>
<g id="Engagement_2">
</g>
<g id="Wedding_Ring">
</g>
<g id="Church">
</g>
<g id="Church_Bells">
</g>
<g id="Wedding_Altar_1">
</g>
<g id="Wedding_Altar_2">
</g>
<g id="Bow-Tie">
</g>
<g id="Wedding_Tiara">
</g>
<g id="Wedding_Bouquet">
</g>
<g id="Wedding_Decoration_1">
</g>
<g id="Wedding_Decoration_2">
</g>
<g id="Wedding_Way_Sign">
</g>
<g id="Wedding_Date">
</g>
<g id="Wedding_Invitation">
</g>
<g id="Wedding_Invitation_2">
</g>
<g id="Bride">
</g>
<g id="Groom">
</g>
<g id="Mariage_Couple">
</g>
<g id="Wedding_Planner_Book">
</g>
<g id="Wedding_Cake_1">
</g>
<g id="Wedding_Cake_2">
</g>
<g id="Wedding_Cake_3">
</g>
<g id="Cake_Slice">
</g>
<g id="Marriage_Settlement">
</g>
<g id="Glass_Decoration">
</g>
<g id="Cutlery_Decoration">
</g>
<g id="Celebration_Glasses">
</g>
<g id="Wedding_Photo">
</g>
<g id="Wedding_Present_1">
</g>
<g id="Wedding_Present_2">
</g>
<g id="Wedding_Bouquet_2">
</g>
<g id="Hands_with_rings">
	<path d="M20.917,12.112c1.011-1.177,1.568-2.657,1.568-4.225c0-1.736-0.677-3.369-1.904-4.596s-2.859-1.904-4.596-1.904
		c-1.576,0-3.064,0.562-4.243,1.584c-2.551-2.204-6.418-2.1-8.838,0.32C1.676,4.518,1,6.15,1,7.886c0,1.669,0.63,3.238,1.769,4.447
		c-0.343,0.082-0.668,0.245-0.925,0.503c-0.378,0.377-0.586,0.88-0.586,1.414s0.208,1.037,0.586,1.414
		c0.378,0.378,0.88,0.586,1.414,0.586c0.046,0,0.089-0.01,0.135-0.013c-0.003,0.045-0.013,0.089-0.013,0.134
		c0,0.535,0.208,1.037,0.585,1.414c0.39,0.39,0.902,0.585,1.415,0.585c0.045,0,0.09-0.01,0.135-0.013
		c-0.038,0.557,0.148,1.125,0.572,1.55c0.39,0.39,0.902,0.584,1.414,0.584c0.045,0,0.09-0.01,0.135-0.013
		c-0.003,0.046-0.013,0.09-0.013,0.136c0,0.534,0.208,1.036,0.585,1.414c0.39,0.39,0.902,0.585,1.414,0.585s1.025-0.195,1.415-0.585
		c0.253-0.253,0.422-0.565,0.511-0.903l0.196,0.196c0.378,0.378,0.88,0.586,1.414,0.586c0.535,0,1.037-0.208,1.414-0.586
		c0.378-0.378,0.586-0.88,0.586-1.414c0-0.043-0.001-0.085-0.004-0.127c0.551,0.034,1.118-0.159,1.54-0.58
		c0.422-0.422,0.616-0.987,0.581-1.541c0.552,0.037,1.118-0.16,1.54-0.581c0.422-0.422,0.615-0.986,0.581-1.539
		c0.582,0.035,1.134-0.174,1.54-0.582c0.378-0.378,0.586-0.88,0.586-1.414c0-0.535-0.208-1.037-0.586-1.414L20.917,12.112z
		 M19.874,3.997c1.039,1.039,1.611,2.42,1.611,3.889c0,1.299-0.47,2.515-1.292,3.501l-5.855-5.856
		C14.316,5.51,14.289,5.5,14.265,5.484c-0.017-0.024-0.027-0.051-0.048-0.072c-0.195-0.195-0.512-0.195-0.707,0L9.835,9.086
		C9.599,9.323,9.262,9.426,8.932,9.36C8.564,9.286,8.28,9.028,8.171,8.669C8.062,8.31,8.156,7.937,8.421,7.672l3.675-3.675
		c1.039-1.039,2.42-1.611,3.889-1.611C17.454,2.386,18.835,2.958,19.874,3.997z M2.55,14.957c-0.189-0.189-0.293-0.44-0.293-0.707
		s0.104-0.518,0.293-0.707s0.44-0.293,0.707-0.293s0.518,0.104,0.707,0.293s0.293,0.44,0.293,0.707s-0.104,0.518-0.293,0.707
		C3.586,15.335,2.928,15.335,2.55,14.957z M4.671,17.078c-0.189-0.188-0.292-0.439-0.292-0.707c0-0.267,0.104-0.518,0.292-0.707
		c0.195-0.195,0.451-0.292,0.708-0.292c0.255,0,0.511,0.097,0.706,0.291l0.002,0.002c0.188,0.189,0.292,0.44,0.292,0.706
		c0,0.268-0.104,0.519-0.292,0.707C5.697,17.469,5.062,17.469,4.671,17.078z M6.793,19.2c-0.39-0.391-0.39-1.025,0-1.415
		c0.389-0.388,1.023-0.388,1.413-0.001l0.002,0.002c0.389,0.391,0.389,1.023-0.001,1.414C7.817,19.589,7.183,19.589,6.793,19.2z
		 M10.621,20.614c0,0.267-0.104,0.519-0.292,0.707c-0.391,0.391-1.026,0.389-1.415,0c-0.188-0.189-0.292-0.44-0.292-0.707
		c0-0.268,0.104-0.519,0.292-0.707c0.39-0.392,1.024-0.39,1.415,0C10.518,20.096,10.621,20.347,10.621,20.614z M15.986,18.493
		c-0.391,0.388-1.025,0.39-1.415,0l-0.615-0.616c0.015,0.001,0.029,0.008,0.045,0.008c0.13,0,0.261-0.051,0.359-0.151l0.971-1
		c0.056-0.058,0.09-0.127,0.113-0.199l0.543,0.543C16.375,17.469,16.375,18.103,15.986,18.493z M20.228,14.25
		c-0.376,0.376-1.034,0.378-1.414,0l-1.061-1.061c-0.195-0.195-0.512-0.195-0.707,0c-0.098,0.098-0.146,0.226-0.146,0.354
		s0.049,0.256,0.146,0.354l1.061,1.061c0.39,0.39,0.39,1.024,0,1.414c-0.391,0.391-1.023,0.391-1.414,0l-1.061-1.061
		c-0.195-0.195-0.512-0.195-0.707,0c-0.098,0.098-0.146,0.226-0.146,0.354c0,0.086,0.03,0.168,0.074,0.245
		c-0.088,0.022-0.173,0.059-0.241,0.128l-0.971,1c-0.106,0.109-0.146,0.253-0.133,0.393c-0.195-0.193-0.51-0.193-0.705,0.002
		c-0.098,0.098-0.146,0.226-0.146,0.354s0.049,0.256,0.146,0.354l1.061,1.062c0.188,0.188,0.292,0.439,0.292,0.707
		c0,0.267-0.104,0.518-0.293,0.707c-0.378,0.377-1.036,0.377-1.414,0l-3.533-3.533c-0.001-0.001-0.001-0.002-0.002-0.003
		c-0.001-0.001-0.002-0.001-0.003-0.002L6.795,14.96c-0.001-0.001-0.001-0.002-0.002-0.003c-0.001-0.001-0.002-0.001-0.003-0.002
		l-3.18-3.18C2.572,10.736,2,9.355,2,7.886s0.572-2.851,1.611-3.889C5.635,1.974,8.842,1.885,11,3.679L7.714,6.965
		c-0.53,0.53-0.717,1.276-0.5,1.994C7.431,9.676,8,10.193,8.736,10.34c0.655,0.132,1.332-0.073,1.806-0.547l3.321-3.322l6.01,6.011
		l0,0l0,0l0.353,0.353c0.188,0.189,0.293,0.44,0.293,0.707S20.416,14.061,20.228,14.25z"/>
</g>
<g id="Wedding_Car">
</g>
<g id="Wedding_music">
</g>
<g id="wedding_party">
</g>
<g id="Confetti_1">
</g>
<g id="Confetti_2">
</g>
</svg>
