<?xml version="1.0" encoding="iso-8859-1"?>
<!-- Generator: Adobe Illustrator 19.2.1, SVG Export Plug-In . SVG Version: 6.00 Build 0)  -->
<svg version="1.1" xmlns="http://www.w3.org/2000/svg" xmlns:xlink="http://www.w3.org/1999/xlink" x="0px" y="0px"
	 viewBox="0 0 24 24" style="enable-background:new 0 0 24 24;" xml:space="preserve">
<g id="Engagement_1">
</g>
<g id="Engagement_2">
</g>
<g id="Wedding_Ring">
</g>
<g id="Church">
</g>
<g id="Church_Bells">
</g>
<g id="Wedding_Altar_1">
</g>
<g id="Wedding_Altar_2">
</g>
<g id="Bow-Tie">
</g>
<g id="Wedding_Tiara">
</g>
<g id="Wedding_Bouquet">
</g>
<g id="Wedding_Decoration_1">
</g>
<g id="Wedding_Decoration_2">
</g>
<g id="Wedding_Way_Sign">
</g>
<g id="Wedding_Date">
	<g>
		<path d="M5.5,5C6.327,5,7,4.327,7,3.5v-2C7,0.673,6.327,0,5.5,0S4,0.673,4,1.5v2C4,4.327,4.673,5,5.5,5z"/>
		<path d="M18.5,5C19.327,5,20,4.327,20,3.5v-2C20,0.673,19.327,0,18.5,0S17,0.673,17,1.5v2C17,4.327,17.673,5,18.5,5z"/>
		<path d="M13.664,13.79c-0.105-0.256-0.397-0.379-0.652-0.272c-0.255,0.104-0.377,0.397-0.272,0.652
			C12.912,14.592,13,15.04,13,15.5c0,1.93-1.57,3.5-3.5,3.5S6,17.43,6,15.5S7.57,12,9.5,12c0.149,0,0.297,0.009,0.442,0.027
			c0.279,0.04,0.524-0.16,0.558-0.435c0.034-0.274-0.161-0.523-0.435-0.558C9.88,11.012,9.691,11,9.5,11C7.019,11,5,13.019,5,15.5
			S7.019,20,9.5,20s4.5-2.019,4.5-4.5C14,14.909,13.887,14.334,13.664,13.79z"/>
		<path d="M14.5,11c-2.481,0-4.5,2.019-4.5,4.5c0,0.591,0.113,1.166,0.336,1.708c0.105,0.256,0.397,0.376,0.652,0.272
			c0.255-0.105,0.377-0.397,0.272-0.652C11.088,16.407,11,15.96,11,15.5c0-1.93,1.57-3.5,3.5-3.5s3.5,1.57,3.5,3.5S16.43,19,14.5,19
			c-0.149,0-0.297-0.009-0.442-0.027c-0.275-0.033-0.523,0.161-0.558,0.435s0.161,0.523,0.435,0.558C14.12,19.988,14.309,20,14.5,20
			c2.481,0,4.5-2.019,4.5-4.5S16.981,11,14.5,11z"/>
		<path d="M23.979,4.297C23.874,3.015,22.809,2,21.5,2H21v1v0.5C21,4.878,19.878,6,18.5,6S16,4.878,16,3.5V2H8v1.5
			C8,4.878,6.878,6,5.5,6S3,4.878,3,3.5V3V2H2.5C1.122,2,0,3.122,0,4.5v3v14C0,22.878,1.122,24,2.5,24h19c1.378,0,2.5-1.122,2.5-2.5
			v-14v-3C24,4.486,23.994,4.404,23.979,4.297z M21.5,23h-19C1.673,23,1,22.327,1,21.5V8h22v13.5C23,22.327,22.327,23,21.5,23z"/>
	</g>
</g>
<g id="Wedding_Invitation">
</g>
<g id="Wedding_Invitation_2">
</g>
<g id="Bride">
</g>
<g id="Groom">
</g>
<g id="Mariage_Couple">
</g>
<g id="Wedding_Planner_Book">
</g>
<g id="Wedding_Cake_1">
</g>
<g id="Wedding_Cake_2">
</g>
<g id="Wedding_Cake_3">
</g>
<g id="Cake_Slice">
</g>
<g id="Marriage_Settlement">
</g>
<g id="Glass_Decoration">
</g>
<g id="Cutlery_Decoration">
</g>
<g id="Celebration_Glasses">
</g>
<g id="Wedding_Photo">
</g>
<g id="Wedding_Present_1">
</g>
<g id="Wedding_Present_2">
</g>
<g id="Wedding_Bouquet_2">
</g>
<g id="Hands_with_rings">
</g>
<g id="Wedding_Car">
</g>
<g id="Wedding_music">
</g>
<g id="wedding_party">
</g>
<g id="Confetti_1">
</g>
<g id="Confetti_2">
</g>
</svg>
