<?xml version="1.0" encoding="iso-8859-1"?>
<!-- Generator: Adobe Illustrator 19.2.1, SVG Export Plug-In . SVG Version: 6.00 Build 0)  -->
<svg version="1.1" xmlns="http://www.w3.org/2000/svg" xmlns:xlink="http://www.w3.org/1999/xlink" x="0px" y="0px"
	 viewBox="0 0 24 24" style="enable-background:new 0 0 24 24;" xml:space="preserve">
<g id="Engagement_1">
</g>
<g id="Engagement_2">
</g>
<g id="Wedding_Ring">
</g>
<g id="Church">
</g>
<g id="Church_Bells">
</g>
<g id="Wedding_Altar_1">
</g>
<g id="Wedding_Altar_2">
</g>
<g id="Bow-Tie">
</g>
<g id="Wedding_Tiara">
</g>
<g id="Wedding_Bouquet">
</g>
<g id="Wedding_Decoration_1">
</g>
<g id="Wedding_Decoration_2">
</g>
<g id="Wedding_Way_Sign">
</g>
<g id="Wedding_Date">
</g>
<g id="Wedding_Invitation">
</g>
<g id="Wedding_Invitation_2">
</g>
<g id="Bride">
</g>
<g id="Groom">
</g>
<g id="Mariage_Couple">
</g>
<g id="Wedding_Planner_Book">
</g>
<g id="Wedding_Cake_1">
</g>
<g id="Wedding_Cake_2">
</g>
<g id="Wedding_Cake_3">
</g>
<g id="Cake_Slice">
</g>
<g id="Marriage_Settlement">
</g>
<g id="Glass_Decoration">
</g>
<g id="Cutlery_Decoration">
</g>
<g id="Celebration_Glasses">
</g>
<g id="Wedding_Photo">
</g>
<g id="Wedding_Present_1">
</g>
<g id="Wedding_Present_2">
</g>
<g id="Wedding_Bouquet_2">
</g>
<g id="Hands_with_rings">
</g>
<g id="Wedding_Car">
	<g>
		<path d="M18.793,20.672l-2.121,2.121l1.061,1.06C17.83,23.951,17.958,24,18.086,24s0.256-0.049,0.354-0.146l1.414-1.414
			c0.195-0.195,0.195-0.512,0-0.707L18.793,20.672z"/>
		<path d="M5.146,21.732C5.053,21.826,5,21.953,5,22.086s0.053,0.26,0.146,0.354l1.414,1.414C6.658,23.951,6.786,24,6.914,24
			s0.256-0.049,0.354-0.146l1.061-1.06l-2.121-2.121L5.146,21.732z"/>
		<path d="M4.439,8.732l1.414,1.414c0.007,0.007,0.006,0.017,0.013,0.023c0.01,0.011,0.024,0.018,0.034,0.03L7.25,12H8.5h7h1.25
			l1.35-1.8c0.01-0.013,0.024-0.019,0.035-0.031c0.006-0.007,0.006-0.016,0.012-0.023l1.414-1.414C20.033,8.26,20.66,8,21.328,8
			h1.605c-0.286-0.325-0.626-0.607-1.036-0.842c-0.631-1.445-2.432-5.494-3.072-6.039C17.999,0.418,15.635,0,12.5,0h-1
			C8.365,0,6,0.418,5.176,1.119C4.535,1.664,2.734,5.712,2.104,7.157C1.694,7.393,1.354,7.675,1.067,8h1.604
			C3.339,8,3.967,8.26,4.439,8.732z M13.5,11h-3c-0.276,0-0.5-0.224-0.5-0.5s0.224-0.5,0.5-0.5h3c0.276,0,0.5,0.224,0.5,0.5
			S13.776,11,13.5,11z M5.824,1.881C6.209,1.554,7.837,1,11.5,1h1c3.662,0,5.291,0.554,5.674,0.879
			c0.31,0.288,1.387,2.494,2.403,4.768C18.899,6.21,16.124,6,12,6C7.875,6,5.1,6.21,3.422,6.647
			C4.439,4.373,5.516,2.168,5.824,1.881z"/>
		<path d="M20.268,9.439L19.707,10h4.162c-0.072-0.371-0.18-0.703-0.313-1.011C23.536,8.991,23.52,9,23.5,9h-2.172
			C20.934,9,20.547,9.16,20.268,9.439z"/>
		<path d="M23.98,11h-5.23l-1.35,1.8C17.306,12.926,17.157,13,17,13h-1v1.5c0,0.276-0.224,0.5-0.5,0.5h-7C8.224,15,8,14.776,8,14.5
			V13H7c-0.157,0-0.306-0.074-0.4-0.2L5.25,11H0.02C0.011,11.164,0,11.325,0,11.5c0,2.166,0.496,4.05,0.517,4.129
			C0.575,15.848,0.773,16,1,16v1.5C1,18.327,1.673,19,2.5,19h3C6.327,19,7,18.327,7,17.5v-0.691l0.276,0.138
			C7.346,16.981,7.422,17,7.5,17h2.564c-0.047,0.322-0.242,0.992-0.992,2.243c-0.007,0.012-0.007,0.025-0.013,0.037l-0.022-0.022
			c-0.189-0.188-0.44-0.293-0.707-0.293c0,0,0,0,0,0c-0.268,0-0.519,0.104-0.707,0.293l-0.707,0.707l2.121,2.121l0.707-0.707
			c0.39-0.39,0.39-1.024,0-1.414l-0.022-0.022c0.083-0.041,0.157-0.101,0.208-0.186c0.808-1.346,1.087-2.201,1.135-2.757h0.677
			c-0.273,0.696-0.627,1.81-0.713,3H11c-0.561,0-1,0.385-1,0.875V23.5c0,0.276,0.224,0.5,0.5,0.5h2c0.276,0,0.5-0.224,0.5-0.5
			v-2.625c0-0.481-0.425-0.856-0.971-0.87c0.106-1.278,0.567-2.485,0.793-3.005h1.103c-0.028,0.674,0.137,1.769,1.222,2.854
			c0.039,0.039,0.086,0.065,0.133,0.089l-0.023,0.023c-0.39,0.39-0.39,1.024,0,1.414l0.707,0.707l2.121-2.121l-0.707-0.707
			c-0.391-0.391-1.023-0.391-1.414,0l-0.022,0.022c-0.023-0.047-0.049-0.094-0.089-0.134c-0.864-0.865-0.956-1.696-0.928-2.146H16.5
			c0.077,0,0.154-0.019,0.224-0.053L17,16.809V17.5c0,0.827,0.673,1.5,1.5,1.5h3c0.827,0,1.5-0.673,1.5-1.5V16
			c0.227,0,0.425-0.152,0.483-0.371C23.504,15.55,24,13.666,24,11.5C24,11.325,23.989,11.164,23.98,11z M12,23h-1v-2l1,0.01V23z"/>
		<rect x="9" y="13" width="6" height="1"/>
		<path d="M3.732,9.439C3.449,9.156,3.072,9,2.671,9H0.44c-0.131,0.305-0.238,0.634-0.309,1h4.162L3.732,9.439z"/>
	</g>
</g>
<g id="Wedding_music">
</g>
<g id="wedding_party">
</g>
<g id="Confetti_1">
</g>
<g id="Confetti_2">
</g>
</svg>
