<?xml version="1.0" encoding="iso-8859-1"?>
<!-- Generator: Adobe Illustrator 19.2.1, SVG Export Plug-In . SVG Version: 6.00 Build 0)  -->
<svg version="1.1" xmlns="http://www.w3.org/2000/svg" xmlns:xlink="http://www.w3.org/1999/xlink" x="0px" y="0px"
	 viewBox="0 0 24 24" style="enable-background:new 0 0 24 24;" xml:space="preserve">
<g id="Engagement_1">
</g>
<g id="Engagement_2">
</g>
<g id="Wedding_Ring">
</g>
<g id="Church">
</g>
<g id="Church_Bells">
</g>
<g id="Wedding_Altar_1">
</g>
<g id="Wedding_Altar_2">
</g>
<g id="Bow-Tie">
</g>
<g id="Wedding_Tiara">
</g>
<g id="Wedding_Bouquet">
</g>
<g id="Wedding_Decoration_1">
</g>
<g id="Wedding_Decoration_2">
</g>
<g id="Wedding_Way_Sign">
</g>
<g id="Wedding_Date">
</g>
<g id="Wedding_Invitation">
</g>
<g id="Wedding_Invitation_2">
</g>
<g id="Bride">
</g>
<g id="Groom">
</g>
<g id="Mariage_Couple">
</g>
<g id="Wedding_Planner_Book">
</g>
<g id="Wedding_Cake_1">
</g>
<g id="Wedding_Cake_2">
</g>
<g id="Wedding_Cake_3">
</g>
<g id="Cake_Slice">
</g>
<g id="Marriage_Settlement">
</g>
<g id="Glass_Decoration">
</g>
<g id="Cutlery_Decoration">
</g>
<g id="Celebration_Glasses">
</g>
<g id="Wedding_Photo">
</g>
<g id="Wedding_Present_1">
</g>
<g id="Wedding_Present_2">
</g>
<g id="Wedding_Bouquet_2">
</g>
<g id="Hands_with_rings">
</g>
<g id="Wedding_Car">
</g>
<g id="Wedding_music">
</g>
<g id="wedding_party">
	<g>
		<path d="M23.934,22.752l-4-7c-0.014-0.024-0.034-0.042-0.052-0.064c-0.012-0.015-0.022-0.03-0.036-0.044
			c-0.035-0.035-0.075-0.062-0.118-0.085c-0.01-0.005-0.017-0.013-0.027-0.017c-0.055-0.024-0.114-0.038-0.174-0.042
			c-0.013-0.001-0.026,0.003-0.039,0.004c-0.039,0.001-0.078,0.001-0.117,0.011c-0.009,0.003-0.017,0.009-0.026,0.012
			c-0.007,0.002-0.014,0.001-0.022,0.003C19.148,15.598,15,17.22,15,23c0,0.017,0.008,0.032,0.01,0.049
			c0.002,0.022-0.001,0.044,0.004,0.067c0.004,0.015,0.013,0.027,0.017,0.041c0.009,0.026,0.018,0.049,0.031,0.073
			c0.016,0.031,0.036,0.059,0.058,0.086c0.016,0.019,0.031,0.038,0.049,0.054c0.029,0.026,0.061,0.045,0.095,0.064
			c0.019,0.01,0.035,0.023,0.055,0.031c0.057,0.022,0.117,0.036,0.18,0.036h8c0.178,0,0.343-0.095,0.433-0.249
			C24.022,23.097,24.022,22.907,23.934,22.752z M18.957,16.855c-0.284,2.809-1.916,4.446-2.911,5.196
			C16.334,18.991,17.981,17.488,18.957,16.855z"/>
		<path d="M13.5,20.5h-1c-0.276,0-0.5,0.224-0.5,0.5s0.224,0.5,0.5,0.5h1c0.276,0,0.5-0.224,0.5-0.5S13.776,20.5,13.5,20.5z"/>
		<path d="M17,14v1c0,0.276,0.224,0.5,0.5,0.5S18,15.276,18,15v-1c0-0.276-0.224-0.5-0.5-0.5S17,13.724,17,14z"/>
		<path d="M15.5,18.5c0.128,0,0.256-0.049,0.354-0.146c0.195-0.195,0.195-0.512,0-0.707l-1-1c-0.195-0.195-0.512-0.195-0.707,0
			s-0.195,0.512,0,0.707l1,1C15.244,18.451,15.372,18.5,15.5,18.5z"/>
		<circle cx="15.5" cy="15" r="0.5"/>
		<circle cx="13.5" cy="19" r="0.5"/>
		<path d="M7.5,9.5C7.776,9.5,8,9.276,8,9S7.776,8.5,7.5,8.5C5.57,8.5,4,10.07,4,12s1.57,3.5,3.5,3.5S11,13.93,11,12
			c0-0.276-0.224-0.5-0.5-0.5S10,11.724,10,12c0,1.378-1.122,2.5-2.5,2.5S5,13.378,5,12S6.122,9.5,7.5,9.5z"/>
		<path d="M16,9c0-0.133-0.053-0.26-0.146-0.354l-1-1C14.76,7.553,14.633,7.5,14.5,7.5h-1C13.224,7.5,13,7.724,13,8v0.851
			C12.544,8.633,12.039,8.5,11.5,8.5C9.57,8.5,8,10.07,8,12c0,0.276,0.224,0.5,0.5,0.5S9,12.276,9,12c0-1.378,1.122-2.5,2.5-2.5
			c0.566,0,1.083,0.197,1.503,0.515c0.008,0.263,0.218,0.473,0.482,0.482C13.803,10.917,14,11.434,14,12c0,1.378-1.122,2.5-2.5,2.5
			c-0.276,0-0.5,0.224-0.5,0.5s0.224,0.5,0.5,0.5c1.93,0,3.5-1.57,3.5-3.5c0-0.539-0.133-1.044-0.351-1.5H15.5
			c0.276,0,0.5-0.224,0.5-0.5V9z M15,9.5h-1v-1h0.293L15,9.207V9.5z"/>
		<path d="M11.5,18.5h-8C2.122,18.5,1,17.378,1,16V5.5h17V12c0,0.276,0.224,0.5,0.5,0.5S19,12.276,19,12V5
			c0-0.033-0.009-0.063-0.01-0.096c0-0.001,0-0.002,0-0.003C18.937,3.018,17.396,1.5,15.5,1.5H15V1c0-0.276-0.224-0.5-0.5-0.5
			S14,0.724,14,1v0.5V3c0,0.276-0.224,0.5-0.5,0.5S13,3.276,13,3V1.5h-1.5h-4H7V1c0-0.276-0.224-0.5-0.5-0.5S6,0.724,6,1v0.5V3
			c0,0.276-0.224,0.5-0.5,0.5S5,3.276,5,3V1.5H3.5c-1.896,0-3.437,1.518-3.49,3.402c0,0.001,0,0.002,0,0.003
			C0.009,4.937,0,4.967,0,5v11c0,1.93,1.57,3.5,3.5,3.5h8c0.276,0,0.5-0.224,0.5-0.5S11.776,18.5,11.5,18.5z"/>
	</g>
</g>
<g id="Confetti_1">
</g>
<g id="Confetti_2">
</g>
</svg>
