<?xml version="1.0" encoding="iso-8859-1"?>
<!-- Generator: Adobe Illustrator 19.2.1, SVG Export Plug-In . SVG Version: 6.00 Build 0)  -->
<svg version="1.1" xmlns="http://www.w3.org/2000/svg" xmlns:xlink="http://www.w3.org/1999/xlink" x="0px" y="0px"
	 viewBox="0 0 24 24" style="enable-background:new 0 0 24 24;" xml:space="preserve">
<g id="Engagement_1">
</g>
<g id="Engagement_2">
</g>
<g id="Wedding_Ring">
</g>
<g id="Church">
</g>
<g id="Church_Bells">
</g>
<g id="Wedding_Altar_1">
</g>
<g id="Wedding_Altar_2">
</g>
<g id="Bow-Tie">
</g>
<g id="Wedding_Tiara">
</g>
<g id="Wedding_Bouquet">
</g>
<g id="Wedding_Decoration_1">
</g>
<g id="Wedding_Decoration_2">
</g>
<g id="Wedding_Way_Sign">
</g>
<g id="Wedding_Date">
</g>
<g id="Wedding_Invitation">
</g>
<g id="Wedding_Invitation_2">
</g>
<g id="Bride">
</g>
<g id="Groom">
</g>
<g id="Mariage_Couple">
</g>
<g id="Wedding_Planner_Book">
</g>
<g id="Wedding_Cake_1">
</g>
<g id="Wedding_Cake_2">
</g>
<g id="Wedding_Cake_3">
	<g>
		<path d="M20.98,18.255c-0.116-1.645-1.364-2.97-2.974-3.204L18.005,11.5c0-1.207-0.86-2.217-2-2.449V5.5
			c0-0.827-0.673-1.5-1.5-1.5h-0.5V3.5c0.16,0,0.311-0.077,0.405-0.207c0.094-0.13,0.12-0.298,0.069-0.451l-0.5-1.5
			C13.912,1.138,13.721,1,13.505,1s-0.406,0.138-0.474,0.342l-0.5,1.5c-0.051,0.152-0.025,0.32,0.068,0.451
			c0.094,0.13,0.245,0.208,0.406,0.208h0V4h-2l0-1h0c0.276,0,0.5-0.224,0.5-0.5v-1c0-0.276-0.224-0.5-0.5-0.5h-0.5h-0.5
			c-0.276,0-0.5,0.224-0.5,0.5v1c0,0.276,0.224,0.5,0.5,0.5l0,1h-0.5c-0.827,0-1.5,0.673-1.5,1.5v3.551c-1.14,0.232-2,1.242-2,2.449
			l0,3.551c-1.591,0.23-2.826,1.526-2.969,3.143c-0.034,0.086-0.04,0.173-0.026,0.259c0,0.016-0.005,0.031-0.005,0.048v5
			c0,0.276,0.224,0.5,0.5,0.5h17c0.276,0,0.5-0.224,0.5-0.5v-5c0-0.029-0.008-0.055-0.008-0.083
			C21.001,18.362,20.994,18.309,20.98,18.255z M9.505,5h5c0.276,0,0.5,0.224,0.5,0.5v0.847c-0.757-0.527-1.668-0.427-2.364,0.31
			C12.494,6.813,12.263,7,12.005,7s-0.489-0.187-0.636-0.343C10.673,5.92,9.762,5.82,9.005,6.347V5.5C9.005,5.224,9.229,5,9.505,5z
			 M8.505,10h7c0.777,0,1.41,0.596,1.485,1.353c-0.12,0.087-0.237,0.186-0.348,0.303C16.493,11.813,16.263,12,16.005,12
			c-0.258,0-0.489-0.187-0.637-0.343c-0.811-0.859-1.916-0.859-2.727,0C12.494,11.813,12.263,12,12.005,12s-0.489-0.187-0.637-0.343
			c-0.811-0.859-1.916-0.859-2.727,0C8.494,11.813,8.263,12,8.005,12s-0.489-0.187-0.636-0.343C7.258,11.539,7.14,11.44,7.02,11.353
			C7.095,10.596,7.728,10,8.505,10z M6.505,16L6.505,16h11c1.207,0,2.216,0.859,2.449,1.998c-0.157-0.015-0.356-0.097-0.586-0.342
			c-0.811-0.859-1.916-0.859-2.727,0C16.493,17.813,16.263,18,16.005,18c-0.258,0-0.489-0.187-0.636-0.343
			c-0.812-0.861-1.916-0.861-2.728,0C12.493,17.813,12.263,18,12.005,18s-0.488-0.187-0.636-0.343c-0.812-0.861-1.916-0.861-2.728,0
			C8.493,17.813,8.263,18,8.005,18s-0.488-0.187-0.636-0.343c-0.812-0.861-1.917-0.86-2.727-0.001
			c-0.23,0.244-0.429,0.326-0.586,0.341C4.289,16.859,5.298,16,6.505,16z"/>
		<circle cx="10.505" cy="0.5" r="0.5"/>
		<circle cx="13.505" cy="0.5" r="0.5"/>
	</g>
</g>
<g id="Cake_Slice">
</g>
<g id="Marriage_Settlement">
</g>
<g id="Glass_Decoration">
</g>
<g id="Cutlery_Decoration">
</g>
<g id="Celebration_Glasses">
</g>
<g id="Wedding_Photo">
</g>
<g id="Wedding_Present_1">
</g>
<g id="Wedding_Present_2">
</g>
<g id="Wedding_Bouquet_2">
</g>
<g id="Hands_with_rings">
</g>
<g id="Wedding_Car">
</g>
<g id="Wedding_music">
</g>
<g id="wedding_party">
</g>
<g id="Confetti_1">
</g>
<g id="Confetti_2">
</g>
</svg>
