<?xml version="1.0" encoding="iso-8859-1"?>
<!-- Generator: Adobe Illustrator 19.2.1, SVG Export Plug-In . SVG Version: 6.00 Build 0)  -->
<svg version="1.1" xmlns="http://www.w3.org/2000/svg" xmlns:xlink="http://www.w3.org/1999/xlink" x="0px" y="0px"
	 viewBox="0 0 24 24" style="enable-background:new 0 0 24 24;" xml:space="preserve">
<g id="Engagement_1">
</g>
<g id="Engagement_2">
</g>
<g id="Wedding_Ring">
</g>
<g id="Church">
</g>
<g id="Church_Bells">
</g>
<g id="Wedding_Altar_1">
</g>
<g id="Wedding_Altar_2">
</g>
<g id="Bow-Tie">
</g>
<g id="Wedding_Tiara">
</g>
<g id="Wedding_Bouquet">
</g>
<g id="Wedding_Decoration_1">
</g>
<g id="Wedding_Decoration_2">
</g>
<g id="Wedding_Way_Sign">
</g>
<g id="Wedding_Date">
</g>
<g id="Wedding_Invitation">
</g>
<g id="Wedding_Invitation_2">
	<g>
		<path d="M0.8,4.1c-0.15-0.114-0.354-0.131-0.523-0.047C0.107,4.137,0,4.31,0,4.5v8c0,0.157,0.074,0.306,0.2,0.4l8,6
			C8.288,18.966,8.394,19,8.5,19c0.076,0,0.153-0.018,0.224-0.053C8.893,18.862,9,18.689,9,18.5v-8c0-0.157-0.074-0.306-0.2-0.4
			L0.8,4.1z"/>
		<polygon points="20,15.309 20,15.5 20,16 21,16 21,15.5 21,15.309 20.5,15.059 		"/>
		<path d="M23.5,10H9.903C9.96,10.16,10,10.327,10,10.5v8c0,0.175-0.039,0.341-0.095,0.5H23.5c0.276,0,0.5-0.224,0.5-0.5v-8
			C24,10.223,23.776,10,23.5,10z M11.5,13h3c0.276,0,0.5,0.224,0.5,0.5S14.776,14,14.5,14h-3c-0.276,0-0.5-0.224-0.5-0.5
			S11.224,13,11.5,13z M16.5,16h-5c-0.276,0-0.5-0.224-0.5-0.5s0.224-0.5,0.5-0.5h5c0.276,0,0.5,0.224,0.5,0.5S16.776,16,16.5,16z
			 M23,16.5c0,0.276-0.224,0.5-0.5,0.5h-1h-2h-1c-0.276,0-0.5-0.224-0.5-0.5V16c0-0.189,0.107-0.362,0.276-0.447L19,15.191V15
			c0-0.189,0.107-0.362,0.276-0.447L20,14.191V13.5c-0.276,0-0.5-0.224-0.5-0.5s0.224-0.5,0.5-0.5c0-0.276,0.224-0.5,0.5-0.5
			s0.5,0.224,0.5,0.5c0.276,0,0.5,0.224,0.5,0.5s-0.224,0.5-0.5,0.5v0.691l0.724,0.362C21.893,14.637,22,14.81,22,15v0.191
			l0.724,0.362C22.893,15.637,23,15.81,23,16V16.5z"/>
	</g>
</g>
<g id="Bride">
</g>
<g id="Groom">
</g>
<g id="Mariage_Couple">
</g>
<g id="Wedding_Planner_Book">
</g>
<g id="Wedding_Cake_1">
</g>
<g id="Wedding_Cake_2">
</g>
<g id="Wedding_Cake_3">
</g>
<g id="Cake_Slice">
</g>
<g id="Marriage_Settlement">
</g>
<g id="Glass_Decoration">
</g>
<g id="Cutlery_Decoration">
</g>
<g id="Celebration_Glasses">
</g>
<g id="Wedding_Photo">
</g>
<g id="Wedding_Present_1">
</g>
<g id="Wedding_Present_2">
</g>
<g id="Wedding_Bouquet_2">
</g>
<g id="Hands_with_rings">
</g>
<g id="Wedding_Car">
</g>
<g id="Wedding_music">
</g>
<g id="wedding_party">
</g>
<g id="Confetti_1">
</g>
<g id="Confetti_2">
</g>
</svg>
