<?xml version="1.0" encoding="iso-8859-1"?>
<!-- Generator: Adobe Illustrator 19.2.1, SVG Export Plug-In . SVG Version: 6.00 Build 0)  -->
<svg version="1.1" xmlns="http://www.w3.org/2000/svg" xmlns:xlink="http://www.w3.org/1999/xlink" x="0px" y="0px"
	 viewBox="0 0 24 24" style="enable-background:new 0 0 24 24;" xml:space="preserve">
<g id="Engagement_1">
</g>
<g id="Engagement_2">
</g>
<g id="Wedding_Ring">
	<g>
		<path d="M24,6.5v-3c0-0.133-0.053-0.26-0.146-0.354l-3-3c-0.128-0.128-0.313-0.176-0.485-0.129C20.083,0.039,18.723,0.026,17.51,0
			c-0.002,0-0.004,0.001-0.006,0.001c-0.012,0-0.024,0.004-0.036,0.005c-0.198,0.008-0.352,0.123-0.423,0.291
			c-0.01,0.022-0.014,0.045-0.02,0.068c-0.007,0.026-0.02,0.05-0.023,0.077l-0.584,5.065C15.354,5.552,14.5,6.425,14.5,7.5
			c0,1.103,0.897,2,2,2c1.075,0,1.948-0.854,1.992-1.919l5.065-0.584c0.025-0.003,0.045-0.015,0.068-0.021
			c0.028-0.007,0.056-0.013,0.082-0.025c0.037-0.017,0.069-0.041,0.1-0.067c0.014-0.012,0.032-0.017,0.045-0.03
			c0.003-0.003,0.004-0.008,0.007-0.011c0.034-0.036,0.059-0.078,0.082-0.123c0.006-0.012,0.017-0.023,0.022-0.035
			C23.987,6.627,24,6.565,24,6.5z M20.314,1.021L23,3.707v1.586l-4.269-4.269C19.544,1.037,20.023,1.037,20.314,1.021z M17.4,5.724
			l0.477-4.139l4.537,4.537L18.276,6.6C18.084,6.222,17.778,5.916,17.4,5.724z"/>
		<path d="M16.5,10.5c-0.163,0-0.32-0.023-0.476-0.048C16.64,11.494,17,12.704,17,14c0,3.86-3.14,7-7,7s-7-3.14-7-7s3.14-7,7-7
			c1.296,0,2.506,0.36,3.548,0.976C13.523,7.82,13.5,7.663,13.5,7.5c0-0.952,0.454-1.792,1.148-2.342C13.218,4.4,11.636,4,10,4
			C4.486,4,0,8.486,0,14s4.486,10,10,10s10-4.486,10-10c0-1.636-0.4-3.218-1.158-4.648C18.292,10.046,17.452,10.5,16.5,10.5z"/>
	</g>
</g>
<g id="Church">
</g>
<g id="Church_Bells">
</g>
<g id="Wedding_Altar_1">
</g>
<g id="Wedding_Altar_2">
</g>
<g id="Bow-Tie">
</g>
<g id="Wedding_Tiara">
</g>
<g id="Wedding_Bouquet">
</g>
<g id="Wedding_Decoration_1">
</g>
<g id="Wedding_Decoration_2">
</g>
<g id="Wedding_Way_Sign">
</g>
<g id="Wedding_Date">
</g>
<g id="Wedding_Invitation">
</g>
<g id="Wedding_Invitation_2">
</g>
<g id="Bride">
</g>
<g id="Groom">
</g>
<g id="Mariage_Couple">
</g>
<g id="Wedding_Planner_Book">
</g>
<g id="Wedding_Cake_1">
</g>
<g id="Wedding_Cake_2">
</g>
<g id="Wedding_Cake_3">
</g>
<g id="Cake_Slice">
</g>
<g id="Marriage_Settlement">
</g>
<g id="Glass_Decoration">
</g>
<g id="Cutlery_Decoration">
</g>
<g id="Celebration_Glasses">
</g>
<g id="Wedding_Photo">
</g>
<g id="Wedding_Present_1">
</g>
<g id="Wedding_Present_2">
</g>
<g id="Wedding_Bouquet_2">
</g>
<g id="Hands_with_rings">
</g>
<g id="Wedding_Car">
</g>
<g id="Wedding_music">
</g>
<g id="wedding_party">
</g>
<g id="Confetti_1">
</g>
<g id="Confetti_2">
</g>
</svg>
