<?xml version="1.0" encoding="iso-8859-1"?>
<!-- Generator: Adobe Illustrator 19.2.1, SVG Export Plug-In . SVG Version: 6.00 Build 0)  -->
<svg version="1.1" xmlns="http://www.w3.org/2000/svg" xmlns:xlink="http://www.w3.org/1999/xlink" x="0px" y="0px"
	 viewBox="0 0 24 24" style="enable-background:new 0 0 24 24;" xml:space="preserve">
<g id="Engagement_1">
</g>
<g id="Engagement_2">
</g>
<g id="Wedding_Ring">
</g>
<g id="Church">
</g>
<g id="Church_Bells">
</g>
<g id="Wedding_Altar_1">
</g>
<g id="Wedding_Altar_2">
</g>
<g id="Bow-Tie">
</g>
<g id="Wedding_Tiara">
</g>
<g id="Wedding_Bouquet">
</g>
<g id="Wedding_Decoration_1">
	<g>
		<path d="M14.433,9.502c0.49,0.075,1.227,0.186,1.813,0.772c0.25,0.25,0.401,0.526,0.512,0.799
			c0.028-0.016,0.053-0.038,0.085-0.048c2.915-0.964,5.174-2.831,5.905-4.743C22.901,5.667,23,5.063,23,4.5
			c0,2.171-4.156,4.377-8.973,4.888c0.034,0.023,0.068,0.049,0.097,0.064C14.192,9.473,14.311,9.484,14.433,9.502z"/>
		<path d="M23.691,6.613c-0.66,2.518-2.345,5.216-4.387,6.784C19.214,13.466,19.106,13.5,19,13.5c-0.15,0-0.299-0.067-0.397-0.195
			c-0.168-0.219-0.127-0.533,0.092-0.701c0.929-0.713,1.776-1.681,2.472-2.752c-1.098,0.872-2.463,1.611-4.01,2.123
			c-0.051,0.017-0.104,0.025-0.154,0.025c0.004,0.027,0.011,0.06,0.015,0.086c0.019,0.125,0.029,0.242,0.06,0.333
			c0.031,0.055,0.101,0.139,0.17,0.231c0.3,0.402,0.752,1.007,0.752,1.86c0,0.853-0.471,1.483-0.752,1.86
			c-0.069,0.092-0.14,0.177-0.18,0.255c-0.022,0.068-0.032,0.186-0.05,0.308c-0.02,0.133-0.046,0.285-0.08,0.446
			C21.161,15.378,24,10.916,24,6V5C24,5.538,23.891,6.08,23.691,6.613z"/>
		<path d="M6.942,16.603c-0.032-0.058-0.102-0.142-0.17-0.234C6.49,15.992,6.02,15.362,6.02,14.51c0-0.852,0.47-1.482,0.751-1.858
			c0.069-0.093,0.14-0.177,0.18-0.255c0.022-0.068,0.033-0.187,0.051-0.309c0.004-0.028,0.011-0.063,0.016-0.093
			C7.011,11.995,7.006,12,7,12c-0.052,0-0.105-0.008-0.158-0.025c-1.555-0.516-2.925-1.262-4.026-2.14
			c0.699,1.08,1.551,2.055,2.487,2.768c0.219,0.167,0.262,0.481,0.095,0.701C5.299,13.432,5.15,13.5,5,13.5
			c-0.105,0-0.212-0.033-0.303-0.102c-2.098-1.599-3.776-4.291-4.411-6.842C0.099,6.041,0,5.519,0,5v1
			c0,4.927,2.848,9.392,7.084,11.387c-0.035-0.163-0.061-0.318-0.082-0.452C6.984,16.811,6.973,16.693,6.942,16.603z"/>
		<path d="M7.158,11.025c0.038,0.013,0.067,0.037,0.1,0.057c0.111-0.276,0.264-0.556,0.517-0.808
			c0.586-0.586,1.323-0.698,1.81-0.772c0.125-0.019,0.242-0.029,0.333-0.061C9.938,9.43,9.966,9.41,9.993,9.39
			C5.167,8.885,1,6.676,1,4.5c0,0.557,0.097,1.153,0.246,1.76C1.968,8.176,4.233,10.054,7.158,11.025z"/>
		<circle cx="12" cy="10" r="1.5"/>
		<path d="M16.447,13.249c-0.124-0.165-0.24-0.321-0.295-0.455c-0.061-0.146-0.091-0.346-0.123-0.559
			c-0.064-0.422-0.136-0.9-0.49-1.254c-0.31-0.31-0.714-0.402-1.094-0.464C14.205,11.648,13.201,12.5,12,12.5
			c-1.2,0-2.203-0.85-2.444-1.979c-0.374,0.062-0.77,0.155-1.075,0.461c-0.354,0.354-0.426,0.832-0.49,1.253
			c-0.032,0.212-0.063,0.414-0.123,0.56c-0.056,0.134-0.172,0.29-0.295,0.455c-0.246,0.33-0.553,0.74-0.553,1.26
			c0,0.521,0.307,0.931,0.553,1.261c0.124,0.166,0.24,0.321,0.295,0.456c0.061,0.146,0.091,0.347,0.123,0.559
			c0.064,0.422,0.136,0.899,0.49,1.253s0.832,0.426,1.254,0.49c0.212,0.032,0.413,0.062,0.559,0.123
			c0.134,0.056,0.29,0.172,0.455,0.295c0.33,0.247,0.74,0.553,1.26,0.553c0.521,0,0.932-0.307,1.261-0.553
			c0.165-0.124,0.321-0.24,0.455-0.295c0.146-0.061,0.346-0.091,0.559-0.123c0.422-0.064,0.9-0.136,1.254-0.49
			s0.426-0.832,0.49-1.254c0.032-0.212,0.062-0.413,0.123-0.558c0.056-0.134,0.172-0.29,0.295-0.455
			C16.693,15.441,17,15.03,17,14.51S16.693,13.579,16.447,13.249z M13.917,14.792c-0.068,0.096-0.167,0.243-0.241,0.42
			c-0.055,0.132-0.095,0.277-0.126,0.454c-0.037,0.206-0.197,0.367-0.403,0.404c-0.18,0.032-0.325,0.073-0.457,0.127
			c-0.171,0.07-0.314,0.167-0.408,0.232c-0.086,0.061-0.188,0.092-0.289,0.092c-0.101,0-0.202-0.03-0.288-0.091
			c-0.094-0.066-0.238-0.162-0.409-0.233c-0.131-0.055-0.276-0.095-0.456-0.127c-0.206-0.037-0.367-0.199-0.403-0.404
			c-0.032-0.178-0.072-0.323-0.127-0.456c-0.069-0.167-0.164-0.31-0.229-0.403c-0.122-0.173-0.121-0.405,0.002-0.577
			c0.069-0.097,0.168-0.245,0.241-0.419c0.055-0.133,0.095-0.278,0.127-0.455c0.037-0.206,0.197-0.367,0.403-0.404
			c0.114-0.021,0.286-0.056,0.457-0.127c0.169-0.07,0.314-0.167,0.409-0.233c0.173-0.121,0.402-0.121,0.575,0
			c0.103,0.072,0.242,0.164,0.41,0.234c0.171,0.071,0.342,0.106,0.456,0.127c0.206,0.038,0.366,0.199,0.403,0.404
			c0.032,0.178,0.072,0.323,0.127,0.455c0.069,0.168,0.164,0.311,0.229,0.404C14.042,14.389,14.041,14.62,13.917,14.792z"/>
		<path d="M12.653,13.862c-0.103-0.028-0.215-0.065-0.332-0.113c-0.116-0.048-0.221-0.102-0.314-0.155
			c-0.093,0.053-0.198,0.107-0.313,0.155c-0.117,0.048-0.23,0.085-0.333,0.114c-0.032,0.117-0.07,0.227-0.113,0.332
			c-0.05,0.122-0.107,0.232-0.164,0.33c0.051,0.09,0.104,0.192,0.15,0.304c0.043,0.106,0.082,0.216,0.114,0.333
			c0.117,0.032,0.226,0.07,0.333,0.114c0.116,0.048,0.221,0.102,0.313,0.155c0.105-0.061,0.209-0.111,0.315-0.155
			c0.105-0.043,0.214-0.081,0.332-0.113c0.032-0.116,0.069-0.226,0.112-0.33c0.046-0.112,0.101-0.221,0.165-0.331
			c-0.052-0.091-0.104-0.193-0.15-0.305C12.723,14.089,12.685,13.979,12.653,13.862z"/>
	</g>
</g>
<g id="Wedding_Decoration_2">
</g>
<g id="Wedding_Way_Sign">
</g>
<g id="Wedding_Date">
</g>
<g id="Wedding_Invitation">
</g>
<g id="Wedding_Invitation_2">
</g>
<g id="Bride">
</g>
<g id="Groom">
</g>
<g id="Mariage_Couple">
</g>
<g id="Wedding_Planner_Book">
</g>
<g id="Wedding_Cake_1">
</g>
<g id="Wedding_Cake_2">
</g>
<g id="Wedding_Cake_3">
</g>
<g id="Cake_Slice">
</g>
<g id="Marriage_Settlement">
</g>
<g id="Glass_Decoration">
</g>
<g id="Cutlery_Decoration">
</g>
<g id="Celebration_Glasses">
</g>
<g id="Wedding_Photo">
</g>
<g id="Wedding_Present_1">
</g>
<g id="Wedding_Present_2">
</g>
<g id="Wedding_Bouquet_2">
</g>
<g id="Hands_with_rings">
</g>
<g id="Wedding_Car">
</g>
<g id="Wedding_music">
</g>
<g id="wedding_party">
</g>
<g id="Confetti_1">
</g>
<g id="Confetti_2">
</g>
</svg>
