<?xml version="1.0" encoding="iso-8859-1"?>
<!-- Generator: Adobe Illustrator 19.2.1, SVG Export Plug-In . SVG Version: 6.00 Build 0)  -->
<svg version="1.1" xmlns="http://www.w3.org/2000/svg" xmlns:xlink="http://www.w3.org/1999/xlink" x="0px" y="0px"
	 viewBox="0 0 30 30" style="enable-background:new 0 0 30 30;" xml:space="preserve">
<g id="Cutting_Board_1">
</g>
<g id="Cutting_Board_2">
</g>
<g id="Chef_x27_s_Hat_1">
</g>
<g id="Chef_x27_s_Hat_2">
</g>
<g id="Kitchen_Scale">
</g>
<g id="Measuring_Cup">
</g>
<g id="Pot_1">
</g>
<g id="Pot_2">
</g>
<g id="Wok_1">
</g>
<g id="Wok_2">
</g>
<g id="Teapot">
</g>
<g id="Plate">
</g>
<g id="Sauce_Boat">
</g>
<g id="Cauldron">
</g>
<g id="Cookbook">
</g>
<g id="Salt_Pot">
</g>
<g id="Pepper_Pot_1">
</g>
<g id="Pepper_Pot_2">
</g>
<g id="Egg_Timer">
</g>
<g id="Olive_Oil_Pot">
</g>
<g id="Pancake_Griddle">
</g>
<g id="Pan">
</g>
<g id="Kettle">
</g>
<g id="Microwave">
</g>
<g id="Cooker">
</g>
<g id="Meat_Grinder">
</g>
<g id="Coffee_Maker">
</g>
<g id="Household_Mixer">
</g>
<g id="Stand_Mixer">
</g>
<g id="Hand_Blender">
</g>
<g id="Blender">
</g>
<g id="Cooker_Hood">
</g>
<g id="Refrigerator">
</g>
<g id="Freezer">
</g>
<g id="Apron">
	<path d="M28.785,8.092c-0.227-0.159-0.539-0.103-0.697,0.125c-0.496,0.709-1.245,1.781-1.359,3.599
		c-0.073,1.151-1.07,1.822-3.214,2.173C20.938,13.519,19,11.176,19,8.5l-0.001-0.334C18.997,7.956,18.996,7.75,19,7.508
		c0-0.001-0.001-0.003-0.001-0.004C18.999,7.502,19,7.501,19,7.5v-3C19,2.019,16.982,0,14.5,0S10,2.019,10,4.5v2.997V7.5v1
		c0,2.57-1.793,4.818-4.218,5.41c-0.42-0.894-1.433-2.74-2.719-2.906c-1.306-0.163-2.048,0.951-2.486,1.619
		c-0.108,0.165-0.256,0.392-0.299,0.429c-0.248,0.123-0.349,0.422-0.227,0.67c0.123,0.249,0.424,0.348,0.67,0.227
		c0.271-0.134,0.456-0.417,0.692-0.777c0.469-0.716,0.868-1.259,1.522-1.175c0.693,0.089,1.605,1.55,2.063,2.61V26.5
		C5,28.43,6.57,30,8.5,30h12c1.93,0,3.5-1.57,3.5-3.5V14.918c1.647-0.305,3.596-0.984,3.727-3.039
		c0.097-1.538,0.723-2.434,1.184-3.092C29.068,8.56,29.012,8.25,28.785,8.092z M14.5,1C16.43,1,18,2.57,18,4.5V7h-7V4.5
		C11,2.57,12.57,1,14.5,1z M18,18.5c0,0.276-0.224,0.5-0.5,0.5h-6c-0.276,0-0.5-0.224-0.5-0.5v-3c0-0.276,0.224-0.5,0.5-0.5
		s0.5,0.224,0.5,0.5V18h5v-2.5c0-0.276,0.224-0.5,0.5-0.5s0.5,0.224,0.5,0.5V18.5z"/>
</g>
<g id="Oven_Gloves">
</g>
<g id="Rolling_Pin">
</g>
<g id="Sieve">
</g>
<g id="Tea_Sieve">
</g>
<g id="Grater">
</g>
<g id="Knife_Holder">
</g>
<g id="Funnel">
</g>
<g id="Kitchen_Clock">
</g>
<g id="Lemon_Juicer">
</g>
<g id="Pastry_Bag_1">
</g>
<g id="Pastry_Bag_2">
</g>
<g id="Corkscrew">
</g>
<g id="Bottle_Opener">
</g>
<g id="Service">
</g>
<g id="Chopsticks">
</g>
<g id="Hatchet">
</g>
<g id="Filleting_Knife">
</g>
<g id="Bread_Knife">
</g>
<g id="Herb_Knife">
</g>
<g id="Whetting">
</g>
<g id="Cake_Knife">
</g>
<g id="Layer_58">
</g>
<g id="Ladle">
</g>
<g id="Sauce_Spoon">
</g>
<g id="Egg_Beater">
</g>
<g id="Meat_Fork">
</g>
<g id="Kitchen_Spoon_1">
</g>
<g id="Kitchen_Spoon_2">
</g>
<g id="Pizza_Cutter">
</g>
<g id="Potato_Musher">
</g>
<g id="Peeler">
</g>
<g id="Honey_Dipper">
</g>
<g id="Fork">
</g>
<g id="Knife">
</g>
<g id="Spoon">
</g>
<g id="Cutlery_Set">
</g>
<g id="Sugar_Bowl">
</g>
<g id="Matches">
</g>
<g id="Cezve">
</g>
</svg>
