<?xml version="1.0" encoding="iso-8859-1"?>
<!-- Generator: Adobe Illustrator 19.2.1, SVG Export Plug-In . SVG Version: 6.00 Build 0)  -->
<svg version="1.1" xmlns="http://www.w3.org/2000/svg" xmlns:xlink="http://www.w3.org/1999/xlink" x="0px" y="0px"
	 viewBox="0 0 30 30" style="enable-background:new 0 0 30 30;" xml:space="preserve">
<g id="Cutting_Board_1">
</g>
<g id="Cutting_Board_2">
</g>
<g id="Chef_x27_s_Hat_1">
</g>
<g id="Chef_x27_s_Hat_2">
</g>
<g id="Kitchen_Scale">
</g>
<g id="Measuring_Cup">
</g>
<g id="Pot_1">
</g>
<g id="Pot_2">
</g>
<g id="Wok_1">
</g>
<g id="Wok_2">
</g>
<g id="Teapot">
</g>
<g id="Plate">
</g>
<g id="Sauce_Boat">
</g>
<g id="Cauldron">
</g>
<g id="Cookbook">
</g>
<g id="Salt_Pot">
</g>
<g id="Pepper_Pot_1">
</g>
<g id="Pepper_Pot_2">
</g>
<g id="Egg_Timer">
</g>
<g id="Olive_Oil_Pot">
</g>
<g id="Pancake_Griddle">
</g>
<g id="Pan">
</g>
<g id="Kettle">
</g>
<g id="Microwave">
</g>
<g id="Cooker">
</g>
<g id="Meat_Grinder">
</g>
<g id="Coffee_Maker">
</g>
<g id="Household_Mixer">
</g>
<g id="Stand_Mixer">
</g>
<g id="Hand_Blender">
</g>
<g id="Blender">
</g>
<g id="Cooker_Hood">
</g>
<g id="Refrigerator">
</g>
<g id="Freezer">
</g>
<g id="Apron">
</g>
<g id="Oven_Gloves">
</g>
<g id="Rolling_Pin">
</g>
<g id="Sieve">
</g>
<g id="Tea_Sieve">
</g>
<g id="Grater">
</g>
<g id="Knife_Holder">
</g>
<g id="Funnel">
</g>
<g id="Kitchen_Clock">
</g>
<g id="Lemon_Juicer">
</g>
<g id="Pastry_Bag_1">
</g>
<g id="Pastry_Bag_2">
</g>
<g id="Corkscrew">
</g>
<g id="Bottle_Opener">
</g>
<g id="Service">
</g>
<g id="Chopsticks">
</g>
<g id="Hatchet">
</g>
<g id="Filleting_Knife">
</g>
<g id="Bread_Knife">
	<path d="M27.985,1.009c-1.348-1.326-3.538-1.325-4.883,0v0l-6.271,6.179L3.592,20.231C2.565,21.243,2,22.589,2,24.02
		s0.565,2.777,1.592,3.789l2.091,2.06c0.082,0.08,0.195,0.116,0.314,0.116c0.165,0,0.34-0.069,0.453-0.182
		c0.152-0.15,0.191-0.38,0.098-0.572c-0.176-0.363-0.102-0.797,0.185-1.078c0.291-0.287,0.74-0.358,1.115-0.185
		c0.188,0.089,0.415,0.05,0.563-0.096l0.128-0.126c0.153-0.15,0.193-0.381,0.1-0.574c-0.176-0.363-0.102-0.798,0.185-1.079
		c0.291-0.287,0.738-0.358,1.115-0.185c0.188,0.089,0.413,0.05,0.563-0.096l0.128-0.126c0.153-0.15,0.193-0.381,0.1-0.574
		c-0.176-0.363-0.102-0.798,0.185-1.079c0.291-0.287,0.738-0.358,1.115-0.185c0.188,0.089,0.414,0.051,0.563-0.096l0.128-0.126
		c0.153-0.15,0.193-0.381,0.1-0.574c-0.176-0.363-0.102-0.798,0.185-1.079c0.291-0.287,0.738-0.359,1.115-0.185
		c0.188,0.089,0.414,0.051,0.563-0.096l0.128-0.126c0.153-0.15,0.193-0.381,0.1-0.574c-0.176-0.363-0.101-0.797,0.186-1.08
		c0.291-0.287,0.738-0.358,1.114-0.184c0.188,0.089,0.414,0.051,0.563-0.096l0.128-0.126c0.153-0.15,0.193-0.381,0.1-0.573
		c-0.175-0.364-0.101-0.799,0.186-1.081c0.291-0.287,0.738-0.358,1.114-0.184c0.188,0.088,0.414,0.051,0.563-0.096l0.128-0.126
		c0.153-0.15,0.193-0.381,0.1-0.573c-0.175-0.364-0.101-0.799,0.186-1.081c0.291-0.287,0.738-0.358,1.114-0.184
		c0.187,0.088,0.414,0.051,0.563-0.096l0.128-0.126c0.153-0.15,0.193-0.381,0.1-0.573c-0.175-0.364-0.101-0.799,0.186-1.08
		c0.291-0.287,0.738-0.362,1.114-0.184c0.191,0.086,0.48-0.014,0.628-0.162c0.095-0.094,0.148-0.222,0.148-0.355
		c0-0.133-0.054-0.261-0.149-0.355l-1.729-1.703l4.212-4.15c0.9-0.011,1.763-0.364,2.395-0.986C28.64,5.196,29,4.338,29,3.425
		S28.64,1.655,27.985,1.009z M20.664,13.023c-0.407,0.4-0.607,0.949-0.575,1.498c-0.548-0.036-1.11,0.161-1.516,0.562
		c-0.407,0.4-0.607,0.949-0.575,1.498c-0.549-0.037-1.11,0.161-1.516,0.562c-0.407,0.4-0.607,0.949-0.575,1.498
		c-0.549-0.039-1.11,0.161-1.516,0.562c-0.408,0.401-0.607,0.95-0.575,1.498c-0.556-0.041-1.11,0.161-1.517,0.562
		c-0.407,0.401-0.607,0.95-0.574,1.498c-0.555-0.037-1.11,0.161-1.517,0.562c-0.407,0.401-0.607,0.95-0.574,1.498
		c-0.554-0.04-1.11,0.161-1.517,0.562c-0.407,0.401-0.607,0.95-0.574,1.498c-0.552-0.043-1.11,0.161-1.516,0.562
		c-0.249,0.245-0.42,0.545-0.509,0.867l-1.229-1.211C3.459,26.275,3,25.182,3,24.02s0.459-2.255,1.294-3.076L17.182,8.246
		l3.133,3.087c0,0,0,0,0.001,0l1.213,1.195C21.208,12.615,20.909,12.782,20.664,13.023z M25.546,4.125
		c-0.192,0.189-0.446,0.285-0.699,0.285c-0.253,0-0.507-0.095-0.699-0.285c-0.189-0.187-0.293-0.435-0.293-0.7
		s0.104-0.513,0.293-0.7c0.384-0.378,1.013-0.379,1.398,0c0.189,0.187,0.294,0.435,0.294,0.7S25.735,3.938,25.546,4.125z"/>
</g>
<g id="Herb_Knife">
</g>
<g id="Whetting">
</g>
<g id="Cake_Knife">
</g>
<g id="Layer_58">
</g>
<g id="Ladle">
</g>
<g id="Sauce_Spoon">
</g>
<g id="Egg_Beater">
</g>
<g id="Meat_Fork">
</g>
<g id="Kitchen_Spoon_1">
</g>
<g id="Kitchen_Spoon_2">
</g>
<g id="Pizza_Cutter">
</g>
<g id="Potato_Musher">
</g>
<g id="Peeler">
</g>
<g id="Honey_Dipper">
</g>
<g id="Fork">
</g>
<g id="Knife">
</g>
<g id="Spoon">
</g>
<g id="Cutlery_Set">
</g>
<g id="Sugar_Bowl">
</g>
<g id="Matches">
</g>
<g id="Cezve">
</g>
</svg>
