<?xml version="1.0" encoding="iso-8859-1"?>
<!-- Generator: Adobe Illustrator 19.2.1, SVG Export Plug-In . SVG Version: 6.00 Build 0)  -->
<svg version="1.1" xmlns="http://www.w3.org/2000/svg" xmlns:xlink="http://www.w3.org/1999/xlink" x="0px" y="0px"
	 viewBox="0 0 30 30" style="enable-background:new 0 0 30 30;" xml:space="preserve">
<g id="Cutting_Board_1">
</g>
<g id="Cutting_Board_2">
</g>
<g id="Chef_x27_s_Hat_1">
</g>
<g id="Chef_x27_s_Hat_2">
</g>
<g id="Kitchen_Scale">
</g>
<g id="Measuring_Cup">
</g>
<g id="Pot_1">
</g>
<g id="Pot_2">
</g>
<g id="Wok_1">
</g>
<g id="Wok_2">
</g>
<g id="Teapot">
</g>
<g id="Plate">
</g>
<g id="Sauce_Boat">
</g>
<g id="Cauldron">
</g>
<g id="Cookbook">
</g>
<g id="Salt_Pot">
</g>
<g id="Pepper_Pot_1">
</g>
<g id="Pepper_Pot_2">
</g>
<g id="Egg_Timer">
</g>
<g id="Olive_Oil_Pot">
</g>
<g id="Pancake_Griddle">
</g>
<g id="Pan">
</g>
<g id="Kettle">
</g>
<g id="Microwave">
</g>
<g id="Cooker">
</g>
<g id="Meat_Grinder">
</g>
<g id="Coffee_Maker">
	<path d="M26.946,6.274c-0.533-1.053-1.418-2.205-3.604-1.748l-2.591,0.864c-0.988-1.142-4.706-1.346-6.194-1.382
		c0.08-0.339,0.237-0.567,0.416-0.813C15.22,2.855,15.5,2.47,15.5,1.833C15.5,0.805,14.841,0,14,0s-1.5,0.805-1.5,1.833
		c0,0.636,0.28,1.021,0.527,1.361c0.179,0.246,0.336,0.474,0.416,0.813c-1.319,0.031-4.387,0.198-5.757,1.03
		C7.628,5.014,7.566,5,7.5,5h-4C3.298,5,3.115,5.122,3.038,5.309S3.004,5.71,3.146,5.854l4,4C7.203,9.91,7.271,9.946,7.343,9.969
		l0.621,7.134C7.401,17.32,7,17.862,7,18.5s0.401,1.18,0.964,1.397l-0.831,9.56c-0.013,0.14,0.035,0.278,0.13,0.381
		S7.491,30,7.631,30h2.954l0.87-10h1.004l-0.87,10h4.364l-0.909-10h1.004l0.909,10h3.348c0.144,0,0.281-0.062,0.376-0.17
		c0.095-0.108,0.139-0.252,0.12-0.395l-1.232-9.443C20.363,19.956,21,19.304,21,18.5s-0.637-1.456-1.431-1.493l0.922-7.072
		l1.754-0.999c0.34-0.191,0.675-0.226,0.999-0.1C23.573,8.962,23.863,9.253,24,9.589V13.5c0,0.827,0.673,1.5,1.5,1.5
		s1.5-0.673,1.5-1.5v-7C27,6.421,26.981,6.344,26.946,6.274z M11.587,7.889L12.455,17H11.45l-0.879-9.225
		C10.915,7.822,11.256,7.86,11.587,7.889z M15.045,17l0.864-9.07c0.321-0.022,0.664-0.053,1.014-0.092L16.05,17H15.045z M14,5
		c3.453,0,5.597,0.612,5.967,0.996c-0.011,0.011-0.023,0.023-0.038,0.035C19.907,6.05,19.875,6.07,19.845,6.09
		c-0.136,0.087-0.36,0.189-0.682,0.294c-0.065,0.021-0.128,0.042-0.2,0.062c-0.079,0.023-0.166,0.046-0.255,0.069
		c-0.131,0.033-0.271,0.065-0.42,0.097c-0.068,0.014-0.133,0.029-0.205,0.043c-0.197,0.038-0.411,0.074-0.635,0.107
		c-0.055,0.008-0.101,0.017-0.158,0.025C16.39,6.914,15.287,7,14,7c-1.21,0-2.248-0.078-3.117-0.192
		c-0.126-0.016-0.247-0.033-0.363-0.051c-0.194-0.03-0.38-0.06-0.552-0.093c-0.055-0.01-0.114-0.021-0.166-0.031
		c-0.48-0.098-0.873-0.205-1.168-0.312C8.626,6.318,8.621,6.316,8.615,6.314C8.315,6.203,8.116,6.095,8.027,6
		C8.386,5.617,10.535,5,14,5z"/>
</g>
<g id="Household_Mixer">
</g>
<g id="Stand_Mixer">
</g>
<g id="Hand_Blender">
</g>
<g id="Blender">
</g>
<g id="Cooker_Hood">
</g>
<g id="Refrigerator">
</g>
<g id="Freezer">
</g>
<g id="Apron">
</g>
<g id="Oven_Gloves">
</g>
<g id="Rolling_Pin">
</g>
<g id="Sieve">
</g>
<g id="Tea_Sieve">
</g>
<g id="Grater">
</g>
<g id="Knife_Holder">
</g>
<g id="Funnel">
</g>
<g id="Kitchen_Clock">
</g>
<g id="Lemon_Juicer">
</g>
<g id="Pastry_Bag_1">
</g>
<g id="Pastry_Bag_2">
</g>
<g id="Corkscrew">
</g>
<g id="Bottle_Opener">
</g>
<g id="Service">
</g>
<g id="Chopsticks">
</g>
<g id="Hatchet">
</g>
<g id="Filleting_Knife">
</g>
<g id="Bread_Knife">
</g>
<g id="Herb_Knife">
</g>
<g id="Whetting">
</g>
<g id="Cake_Knife">
</g>
<g id="Layer_58">
</g>
<g id="Ladle">
</g>
<g id="Sauce_Spoon">
</g>
<g id="Egg_Beater">
</g>
<g id="Meat_Fork">
</g>
<g id="Kitchen_Spoon_1">
</g>
<g id="Kitchen_Spoon_2">
</g>
<g id="Pizza_Cutter">
</g>
<g id="Potato_Musher">
</g>
<g id="Peeler">
</g>
<g id="Honey_Dipper">
</g>
<g id="Fork">
</g>
<g id="Knife">
</g>
<g id="Spoon">
</g>
<g id="Cutlery_Set">
</g>
<g id="Sugar_Bowl">
</g>
<g id="Matches">
</g>
<g id="Cezve">
</g>
</svg>
