<?xml version="1.0" encoding="iso-8859-1"?>
<!-- Generator: Adobe Illustrator 19.2.1, SVG Export Plug-In . SVG Version: 6.00 Build 0)  -->
<svg version="1.1" xmlns="http://www.w3.org/2000/svg" xmlns:xlink="http://www.w3.org/1999/xlink" x="0px" y="0px"
	 viewBox="0 0 30 30" style="enable-background:new 0 0 30 30;" xml:space="preserve">
<g id="Cutting_Board_1">
</g>
<g id="Cutting_Board_2">
</g>
<g id="Chef_x27_s_Hat_1">
</g>
<g id="Chef_x27_s_Hat_2">
</g>
<g id="Kitchen_Scale">
</g>
<g id="Measuring_Cup">
</g>
<g id="Pot_1">
</g>
<g id="Pot_2">
</g>
<g id="Wok_1">
</g>
<g id="Wok_2">
</g>
<g id="Teapot">
</g>
<g id="Plate">
</g>
<g id="Sauce_Boat">
</g>
<g id="Cauldron">
</g>
<g id="Cookbook">
	<path d="M26.974,6.372c-0.004-0.015-0.003-0.028-0.009-0.043c-0.032-0.087-0.088-0.159-0.16-0.216
		c-0.008-0.006-0.009-0.017-0.016-0.022c-0.242-0.17-0.645-1.072-0.741-2.255c-0.105-1.286,0.188-2.373,0.804-2.98
		c0.144-0.143,0.188-0.358,0.111-0.546C26.886,0.123,26.703,0,26.5,0h-20C4.505,0,3,1.57,3,3.652c0,0.081,0.018,0.157,0.024,0.236
		C3.015,3.926,3,3.961,3,4v22.348C3,28.464,4.403,30,6.338,30H26.5c0.276,0,0.5-0.224,0.5-0.5v-23
		C27,6.455,26.985,6.414,26.974,6.372z M6.5,1h19.026c-0.339,0.661-0.453,1.382-0.482,2.009C25.029,3.008,25.016,3,25,3H6.5
		C6.224,3,6,3.224,6,3.5S6.224,4,6.5,4H25c0.021,0,0.039-0.009,0.059-0.012C25.12,4.648,25.287,5.402,25.554,6H6.348
		C6.194,6,6.045,5.983,5.899,5.955C5.828,5.94,5.76,5.916,5.691,5.895c-0.068-0.02-0.138-0.037-0.204-0.063
		C5.398,5.796,5.314,5.75,5.23,5.704C5.192,5.683,5.152,5.665,5.115,5.642C5.021,5.582,4.932,5.515,4.847,5.443
		c-0.019-0.016-0.04-0.031-0.059-0.048C4.697,5.311,4.611,5.221,4.533,5.124C4.526,5.115,4.519,5.107,4.512,5.098
		C4.258,4.773,4.086,4.378,4.031,3.942c0-0.003-0.002-0.005-0.003-0.008C4.017,3.84,4,3.749,4,3.652C4,2.14,5.075,1,6.5,1z
		 M24.874,13.936c-0.246,1.137-0.833,2.278-1.531,2.976c-0.725,0.725-1.676,1.086-2.628,1.086c-0.799,0-1.589-0.271-2.254-0.782
		l-2.592,2.356l6.974,6.564c0.201,0.189,0.211,0.506,0.021,0.707C22.766,26.947,22.633,27,22.5,27c-0.123,0-0.246-0.045-0.343-0.136
		l-7.032-6.618l-7.29,6.624C7.74,26.957,7.62,27,7.5,27c-0.136,0-0.271-0.055-0.37-0.164c-0.186-0.205-0.171-0.521,0.034-0.707
		l7.231-6.571l-0.738-0.695C12.66,17.88,11.637,17.5,10,17.5c-0.133,0-0.26-0.053-0.354-0.146l-4-4
		c-0.195-0.195-0.195-0.512,0-0.707s0.512-0.195,0.707,0l3.855,3.855c0.824,0.016,1.522,0.132,2.15,0.357
		c-0.223-0.629-0.341-1.331-0.357-2.15l-3.855-3.855c-0.195-0.195-0.195-0.512,0-0.707s0.512-0.195,0.707,0l4,4
		C12.947,14.24,13,14.367,13,14.5c0,1.642,0.392,2.697,1.352,3.644l0.786,0.74l2.618-2.379c-1.091-1.454-0.99-3.526,0.332-4.848
		c1.392-1.391,4.666-2.407,6.164-0.909C24.947,11.443,25.169,12.576,24.874,13.936z"/>
</g>
<g id="Salt_Pot">
</g>
<g id="Pepper_Pot_1">
</g>
<g id="Pepper_Pot_2">
</g>
<g id="Egg_Timer">
</g>
<g id="Olive_Oil_Pot">
</g>
<g id="Pancake_Griddle">
</g>
<g id="Pan">
</g>
<g id="Kettle">
</g>
<g id="Microwave">
</g>
<g id="Cooker">
</g>
<g id="Meat_Grinder">
</g>
<g id="Coffee_Maker">
</g>
<g id="Household_Mixer">
</g>
<g id="Stand_Mixer">
</g>
<g id="Hand_Blender">
</g>
<g id="Blender">
</g>
<g id="Cooker_Hood">
</g>
<g id="Refrigerator">
</g>
<g id="Freezer">
</g>
<g id="Apron">
</g>
<g id="Oven_Gloves">
</g>
<g id="Rolling_Pin">
</g>
<g id="Sieve">
</g>
<g id="Tea_Sieve">
</g>
<g id="Grater">
</g>
<g id="Knife_Holder">
</g>
<g id="Funnel">
</g>
<g id="Kitchen_Clock">
</g>
<g id="Lemon_Juicer">
</g>
<g id="Pastry_Bag_1">
</g>
<g id="Pastry_Bag_2">
</g>
<g id="Corkscrew">
</g>
<g id="Bottle_Opener">
</g>
<g id="Service">
</g>
<g id="Chopsticks">
</g>
<g id="Hatchet">
</g>
<g id="Filleting_Knife">
</g>
<g id="Bread_Knife">
</g>
<g id="Herb_Knife">
</g>
<g id="Whetting">
</g>
<g id="Cake_Knife">
</g>
<g id="Layer_58">
</g>
<g id="Ladle">
</g>
<g id="Sauce_Spoon">
</g>
<g id="Egg_Beater">
</g>
<g id="Meat_Fork">
</g>
<g id="Kitchen_Spoon_1">
</g>
<g id="Kitchen_Spoon_2">
</g>
<g id="Pizza_Cutter">
</g>
<g id="Potato_Musher">
</g>
<g id="Peeler">
</g>
<g id="Honey_Dipper">
</g>
<g id="Fork">
</g>
<g id="Knife">
</g>
<g id="Spoon">
</g>
<g id="Cutlery_Set">
</g>
<g id="Sugar_Bowl">
</g>
<g id="Matches">
</g>
<g id="Cezve">
</g>
</svg>
