<?xml version="1.0" encoding="iso-8859-1"?>
<!-- Generator: Adobe Illustrator 19.2.1, SVG Export Plug-In . SVG Version: 6.00 Build 0)  -->
<svg version="1.1" xmlns="http://www.w3.org/2000/svg" xmlns:xlink="http://www.w3.org/1999/xlink" x="0px" y="0px"
	 viewBox="0 0 30 30" style="enable-background:new 0 0 30 30;" xml:space="preserve">
<g id="Cutting_Board_1">
</g>
<g id="Cutting_Board_2">
</g>
<g id="Chef_x27_s_Hat_1">
</g>
<g id="Chef_x27_s_Hat_2">
</g>
<g id="Kitchen_Scale">
</g>
<g id="Measuring_Cup">
</g>
<g id="Pot_1">
</g>
<g id="Pot_2">
</g>
<g id="Wok_1">
</g>
<g id="Wok_2">
</g>
<g id="Teapot">
</g>
<g id="Plate">
</g>
<g id="Sauce_Boat">
</g>
<g id="Cauldron">
</g>
<g id="Cookbook">
</g>
<g id="Salt_Pot">
</g>
<g id="Pepper_Pot_1">
</g>
<g id="Pepper_Pot_2">
</g>
<g id="Egg_Timer">
</g>
<g id="Olive_Oil_Pot">
</g>
<g id="Pancake_Griddle">
</g>
<g id="Pan">
</g>
<g id="Kettle">
</g>
<g id="Microwave">
</g>
<g id="Cooker">
</g>
<g id="Meat_Grinder">
</g>
<g id="Coffee_Maker">
</g>
<g id="Household_Mixer">
</g>
<g id="Stand_Mixer">
</g>
<g id="Hand_Blender">
</g>
<g id="Blender">
</g>
<g id="Cooker_Hood">
</g>
<g id="Refrigerator">
</g>
<g id="Freezer">
</g>
<g id="Apron">
</g>
<g id="Oven_Gloves">
</g>
<g id="Rolling_Pin">
</g>
<g id="Sieve">
</g>
<g id="Tea_Sieve">
</g>
<g id="Grater">
</g>
<g id="Knife_Holder">
</g>
<g id="Funnel">
</g>
<g id="Kitchen_Clock">
</g>
<g id="Lemon_Juicer">
</g>
<g id="Pastry_Bag_1">
</g>
<g id="Pastry_Bag_2">
</g>
<g id="Corkscrew">
	<path d="M25.5,0c-1.089,0-2.101,0.708-2.758,1.913l-8.187-0.91c-0.037-0.004-0.074-0.004-0.111,0l-8.187,0.91
		C5.601,0.708,4.589,0,3.5,0C1.537,0,0,2.196,0,5s1.537,5,3.5,5c1.089,0,2.101-0.708,2.758-1.913L14,8.948v1.35
		c0,0.769,0.495,1.443,1.232,1.677l2.599,0.82c0.055,0.027,0.079,0.07,0.072,0.128c-0.006,0.06-0.041,0.098-0.102,0.113
		l-6.043,1.497c-0.516,0.128-0.861,0.568-0.861,1.097c0,0.528,0.346,0.969,0.861,1.097l5.406,1.339
		c0.024,0.006,0.101,0.025,0.103,0.124c0.001,0.099-0.073,0.12-0.098,0.127l-4.834,1.369c-0.476,0.134-0.8,0.539-0.824,1.03
		c-0.025,0.491,0.256,0.925,0.714,1.107l3.319,1.315c0.067,0.026,0.083,0.078,0.085,0.116c0.002,0.055-0.022,0.095-0.073,0.12
		l-2.449,1.213c-0.414,0.205-0.66,0.633-0.628,1.091c0.031,0.436,0.308,0.81,0.712,0.971l1.51,0.941l-0.555,0.555
		C14.053,28.24,14,28.367,14,28.5v1c0,0.276,0.224,0.5,0.5,0.5s0.5-0.224,0.5-0.5v-0.793l0.854-0.854
		c0.107-0.108,0.16-0.259,0.144-0.411c-0.018-0.151-0.104-0.287-0.232-0.367l-2.088-1.301c-0.034-0.021-0.07-0.038-0.107-0.05
		c-0.071-0.023-0.09-0.075-0.092-0.115c-0.005-0.057,0.021-0.099,0.073-0.125L16,24.271c0.406-0.201,0.647-0.606,0.629-1.058
		c-0.019-0.452-0.293-0.837-0.715-1.004l-3.319-1.315c-0.06-0.023-0.088-0.066-0.084-0.126c0.003-0.062,0.035-0.102,0.097-0.119
		l4.834-1.369c0.503-0.142,0.834-0.586,0.825-1.105c-0.008-0.52-0.354-0.953-0.861-1.079l-5.406-1.339
		c-0.025-0.006-0.102-0.025-0.102-0.126c0-0.101,0.076-0.12,0.102-0.126l6.043-1.497c0.468-0.116,0.804-0.499,0.855-0.976
		c0.052-0.475-0.192-0.92-0.693-1.162l-2.669-0.848C15.215,10.92,15,10.629,15,10.298v-1.35l7.742-0.861
		C23.399,9.292,24.411,10,25.5,10c1.963,0,3.5-2.196,3.5-5S27.463,0,25.5,0z"/>
</g>
<g id="Bottle_Opener">
</g>
<g id="Service">
</g>
<g id="Chopsticks">
</g>
<g id="Hatchet">
</g>
<g id="Filleting_Knife">
</g>
<g id="Bread_Knife">
</g>
<g id="Herb_Knife">
</g>
<g id="Whetting">
</g>
<g id="Cake_Knife">
</g>
<g id="Layer_58">
</g>
<g id="Ladle">
</g>
<g id="Sauce_Spoon">
</g>
<g id="Egg_Beater">
</g>
<g id="Meat_Fork">
</g>
<g id="Kitchen_Spoon_1">
</g>
<g id="Kitchen_Spoon_2">
</g>
<g id="Pizza_Cutter">
</g>
<g id="Potato_Musher">
</g>
<g id="Peeler">
</g>
<g id="Honey_Dipper">
</g>
<g id="Fork">
</g>
<g id="Knife">
</g>
<g id="Spoon">
</g>
<g id="Cutlery_Set">
</g>
<g id="Sugar_Bowl">
</g>
<g id="Matches">
</g>
<g id="Cezve">
</g>
</svg>
