<?xml version="1.0" encoding="iso-8859-1"?>
<!-- Generator: Adobe Illustrator 19.2.1, SVG Export Plug-In . SVG Version: 6.00 Build 0)  -->
<svg version="1.1" xmlns="http://www.w3.org/2000/svg" xmlns:xlink="http://www.w3.org/1999/xlink" x="0px" y="0px"
	 viewBox="0 0 30 30" style="enable-background:new 0 0 30 30;" xml:space="preserve">
<g id="Cutting_Board_1">
</g>
<g id="Cutting_Board_2">
</g>
<g id="Chef_x27_s_Hat_1">
</g>
<g id="Chef_x27_s_Hat_2">
</g>
<g id="Kitchen_Scale">
</g>
<g id="Measuring_Cup">
</g>
<g id="Pot_1">
</g>
<g id="Pot_2">
</g>
<g id="Wok_1">
</g>
<g id="Wok_2">
</g>
<g id="Teapot">
</g>
<g id="Plate">
</g>
<g id="Sauce_Boat">
</g>
<g id="Cauldron">
</g>
<g id="Cookbook">
</g>
<g id="Salt_Pot">
</g>
<g id="Pepper_Pot_1">
</g>
<g id="Pepper_Pot_2">
</g>
<g id="Egg_Timer">
</g>
<g id="Olive_Oil_Pot">
</g>
<g id="Pancake_Griddle">
</g>
<g id="Pan">
</g>
<g id="Kettle">
</g>
<g id="Microwave">
</g>
<g id="Cooker">
</g>
<g id="Meat_Grinder">
</g>
<g id="Coffee_Maker">
</g>
<g id="Household_Mixer">
</g>
<g id="Stand_Mixer">
</g>
<g id="Hand_Blender">
</g>
<g id="Blender">
</g>
<g id="Cooker_Hood">
</g>
<g id="Refrigerator">
</g>
<g id="Freezer">
</g>
<g id="Apron">
</g>
<g id="Oven_Gloves">
</g>
<g id="Rolling_Pin">
</g>
<g id="Sieve">
</g>
<g id="Tea_Sieve">
</g>
<g id="Grater">
</g>
<g id="Knife_Holder">
</g>
<g id="Funnel">
	<path d="M25.5,1h-1c-0.008,0-0.014,0.004-0.021,0.004C24.484,0.835,24.5,0.672,24.5,0.5C24.5,0.224,24.276,0,24,0H2
		C1.724,0,1.5,0.224,1.5,0.5c0,3.73,1.78,7.287,4.76,9.513c2.467,1.843,3.934,4.62,4.242,8.031l1.016,11.5
		c0.016,0.181,0.129,0.339,0.295,0.413C11.878,29.986,11.947,30,12.016,30c0.107,0,0.212-0.034,0.301-0.101l3.984-3
		c0.118-0.089,0.191-0.226,0.199-0.373l0.498-9.475c0.316-3.026,1.66-5.669,3.783-7.442c0.877-0.732,1.599-1.614,2.171-2.62
		C22.968,6.992,22.983,7,23,7h2.5c1.654,0,3-1.346,3-3S27.154,1,25.5,1z M8.157,8.309C8.059,8.44,7.908,8.51,7.756,8.51
		c-0.104,0-0.209-0.032-0.299-0.099c-1.914-1.43-3.241-3.492-3.736-5.806c-0.058-0.27,0.114-0.536,0.384-0.593
		c0.269-0.062,0.536,0.114,0.593,0.384c0.444,2.078,1.637,3.929,3.357,5.213C8.277,7.774,8.322,8.087,8.157,8.309z M25.5,6h-2.059
		c0.522-1.196,0.861-2.537,0.992-4.013C24.456,1.99,24.476,2,24.5,2h1c1.103,0,2,0.897,2,2S26.603,6,25.5,6z"/>
</g>
<g id="Kitchen_Clock">
</g>
<g id="Lemon_Juicer">
</g>
<g id="Pastry_Bag_1">
</g>
<g id="Pastry_Bag_2">
</g>
<g id="Corkscrew">
</g>
<g id="Bottle_Opener">
</g>
<g id="Service">
</g>
<g id="Chopsticks">
</g>
<g id="Hatchet">
</g>
<g id="Filleting_Knife">
</g>
<g id="Bread_Knife">
</g>
<g id="Herb_Knife">
</g>
<g id="Whetting">
</g>
<g id="Cake_Knife">
</g>
<g id="Layer_58">
</g>
<g id="Ladle">
</g>
<g id="Sauce_Spoon">
</g>
<g id="Egg_Beater">
</g>
<g id="Meat_Fork">
</g>
<g id="Kitchen_Spoon_1">
</g>
<g id="Kitchen_Spoon_2">
</g>
<g id="Pizza_Cutter">
</g>
<g id="Potato_Musher">
</g>
<g id="Peeler">
</g>
<g id="Honey_Dipper">
</g>
<g id="Fork">
</g>
<g id="Knife">
</g>
<g id="Spoon">
</g>
<g id="Cutlery_Set">
</g>
<g id="Sugar_Bowl">
</g>
<g id="Matches">
</g>
<g id="Cezve">
</g>
</svg>
