<?xml version="1.0" encoding="iso-8859-1"?>
<!-- Generator: Adobe Illustrator 19.2.1, SVG Export Plug-In . SVG Version: 6.00 Build 0)  -->
<svg version="1.1" xmlns="http://www.w3.org/2000/svg" xmlns:xlink="http://www.w3.org/1999/xlink" x="0px" y="0px"
	 viewBox="0 0 30 30" style="enable-background:new 0 0 30 30;" xml:space="preserve">
<g id="Cutting_Board_1">
</g>
<g id="Cutting_Board_2">
</g>
<g id="Chef_x27_s_Hat_1">
</g>
<g id="Chef_x27_s_Hat_2">
</g>
<g id="Kitchen_Scale">
</g>
<g id="Measuring_Cup">
</g>
<g id="Pot_1">
</g>
<g id="Pot_2">
</g>
<g id="Wok_1">
</g>
<g id="Wok_2">
</g>
<g id="Teapot">
</g>
<g id="Plate">
</g>
<g id="Sauce_Boat">
</g>
<g id="Cauldron">
</g>
<g id="Cookbook">
</g>
<g id="Salt_Pot">
	<g>
		<path d="M10.197,3.108c0.031,0,0.063-0.003,0.094-0.009C10.637,3.034,10.988,3,11.335,3H17.8c0.277,0,0.566,0.025,0.884,0.078
			c0.194,0.038,0.392-0.053,0.499-0.218c0.109-0.165,0.11-0.378,0.005-0.544C18.262,0.866,16.693,0,14.992,0h-1
			c-1.717,0-3.294,0.875-4.218,2.342C9.668,2.51,9.672,2.726,9.784,2.89C9.878,3.028,10.034,3.108,10.197,3.108z"/>
		<path d="M22.285,8.141C22.099,5.819,20.129,4,17.8,4h-6.465C8.911,4,6.936,5.898,6.842,8.29l-1.85,18.19
			c-0.026,0.671,0.255,1.334,0.814,1.917C6.713,29.341,8.279,30,9.614,30h10.628c1.125,0,2.223-0.461,2.935-1.232
			c0.593-0.642,0.882-1.461,0.813-2.314L22.285,8.141z M14.492,17h1c1.93,0,3.5,1.57,3.5,3.5s-1.57,3.5-3.5,3.5h-1
			c-1.93,0-3.5-1.57-3.5-3.5c0-0.276,0.224-0.5,0.5-0.5s0.5,0.224,0.5,0.5c0,1.378,1.121,2.5,2.5,2.5h1c1.379,0,2.5-1.122,2.5-2.5
			s-1.121-2.5-2.5-2.5h-1c-1.93,0-3.5-1.57-3.5-3.5s1.57-3.5,3.5-3.5h1c1.93,0,3.5,1.57,3.5,3.5c0,0.276-0.224,0.5-0.5,0.5
			s-0.5-0.224-0.5-0.5c0-1.378-1.121-2.5-2.5-2.5h-1c-1.379,0-2.5,1.122-2.5,2.5S13.113,17,14.492,17z"/>
	</g>
</g>
<g id="Pepper_Pot_1">
</g>
<g id="Pepper_Pot_2">
</g>
<g id="Egg_Timer">
</g>
<g id="Olive_Oil_Pot">
</g>
<g id="Pancake_Griddle">
</g>
<g id="Pan">
</g>
<g id="Kettle">
</g>
<g id="Microwave">
</g>
<g id="Cooker">
</g>
<g id="Meat_Grinder">
</g>
<g id="Coffee_Maker">
</g>
<g id="Household_Mixer">
</g>
<g id="Stand_Mixer">
</g>
<g id="Hand_Blender">
</g>
<g id="Blender">
</g>
<g id="Cooker_Hood">
</g>
<g id="Refrigerator">
</g>
<g id="Freezer">
</g>
<g id="Apron">
</g>
<g id="Oven_Gloves">
</g>
<g id="Rolling_Pin">
</g>
<g id="Sieve">
</g>
<g id="Tea_Sieve">
</g>
<g id="Grater">
</g>
<g id="Knife_Holder">
</g>
<g id="Funnel">
</g>
<g id="Kitchen_Clock">
</g>
<g id="Lemon_Juicer">
</g>
<g id="Pastry_Bag_1">
</g>
<g id="Pastry_Bag_2">
</g>
<g id="Corkscrew">
</g>
<g id="Bottle_Opener">
</g>
<g id="Service">
</g>
<g id="Chopsticks">
</g>
<g id="Hatchet">
</g>
<g id="Filleting_Knife">
</g>
<g id="Bread_Knife">
</g>
<g id="Herb_Knife">
</g>
<g id="Whetting">
</g>
<g id="Cake_Knife">
</g>
<g id="Layer_58">
</g>
<g id="Ladle">
</g>
<g id="Sauce_Spoon">
</g>
<g id="Egg_Beater">
</g>
<g id="Meat_Fork">
</g>
<g id="Kitchen_Spoon_1">
</g>
<g id="Kitchen_Spoon_2">
</g>
<g id="Pizza_Cutter">
</g>
<g id="Potato_Musher">
</g>
<g id="Peeler">
</g>
<g id="Honey_Dipper">
</g>
<g id="Fork">
</g>
<g id="Knife">
</g>
<g id="Spoon">
</g>
<g id="Cutlery_Set">
</g>
<g id="Sugar_Bowl">
</g>
<g id="Matches">
</g>
<g id="Cezve">
</g>
</svg>
