<?xml version="1.0" encoding="iso-8859-1"?>
<!-- Generator: Adobe Illustrator 19.2.1, SVG Export Plug-In . SVG Version: 6.00 Build 0)  -->
<svg version="1.1" xmlns="http://www.w3.org/2000/svg" xmlns:xlink="http://www.w3.org/1999/xlink" x="0px" y="0px"
	 viewBox="0 0 30 30" style="enable-background:new 0 0 30 30;" xml:space="preserve">
<g id="Credit_Card">
</g>
<g id="Banknote">
</g>
<g id="Wallet">
</g>
<g id="Compass">
</g>
<g id="Camera_1">
</g>
<g id="Photo">
</g>
<g id="Picture">
</g>
<g id="Camera_2">
</g>
<g id="No_Camera">
</g>
<g id="Video">
</g>
<g id="Audio">
</g>
<g id="Microphone_1">
</g>
<g id="Microphone_2">
</g>
<g id="No_Microphone">
</g>
<g id="Shopping_Cart">
</g>
<g id="Add_Shopping_Cart">
</g>
<g id="Remove_Shopping_Cart">
</g>
<g id="Shopping_Basket">
</g>
<g id="Jing-Jang">
</g>
<g id="Leaf">
</g>
<g id="Glass">
</g>
<g id="Cup">
</g>
<g id="Mug">
</g>
<g id="Refresh">
</g>
<g id="Login">
</g>
<g id="Logout">
</g>
<g id="Flowchart">
</g>
<g id="Pin_1">
</g>
<g id="Pin_2">
</g>
<g id="User_1">
</g>
<g id="User_2">
</g>
<g id="Users">
</g>
<g id="Adjustments">
</g>
<g id="Type">
</g>
<g id="Format_Size">
</g>
<g id="Menu_1">
</g>
<g id="Other">
</g>
<g id="Flash">
</g>
<g id="No_Flash">
</g>
<g id="Switch_Button_1">
</g>
<g id="Switch_Button_2">
</g>
<g id="Cut">
</g>
<g id="Crop">
</g>
<g id="Sun">
</g>
<g id="USB">
</g>
<g id="Pie_Chart_1">
</g>
<g id="Pie_Chart_2">
</g>
<g id="Line_Chart">
</g>
<g id="Bar_Chart">
</g>
<g id="Target">
</g>
<g id="Flashlight">
</g>
<g id="USB_Device">
</g>
<g id="Eject">
</g>
<g id="Lightbulb">
</g>
<g id="Information">
</g>
<g id="Deactivate_Protection">
</g>
<g id="Active_Protection">
</g>
<g id="Bug">
</g>
<g id="Protection">
</g>
<g id="Phone">
</g>
<g id="List">
</g>
<g id="Plugin_1">
</g>
<g id="Bookmarrk">
</g>
<g id="Handshake">
</g>
<g id="Minimize">
</g>
<g id="Maximize">
</g>
<g id="Diamond">
</g>
<g id="Stop">
</g>
<g id="Shuffle">
</g>
<g id="Undo">
</g>
<g id="Upgrade">
</g>
<g id="Coding">
</g>
<g id="Syncronizaion">
</g>
<g id="Radio">
</g>
<g id="Presentation">
</g>
<g id="Door">
</g>
<g id="Thumbs_Up">
</g>
<g id="Thumbs_Down">
</g>
<g id="Keyboard">
</g>
<g id="_x33_D_Cube">
	<g>
		<g>
			<path d="M14.508,30c-0.079,0-0.158-0.019-0.23-0.057L2.27,23.693C2.104,23.607,2,23.437,2,23.25v-12
				c0-0.192,0.11-0.368,0.284-0.451l12.008-5.75c0.137-0.064,0.295-0.064,0.432,0l11.992,5.75C26.89,10.882,27,11.058,27,11.25v12
				c0,0.187-0.104,0.357-0.269,0.443l-11.992,6.25C14.666,29.981,14.587,30,14.508,30z M3,22.946l11.508,5.99L26,22.946V11.564
				l-11.492-5.51L3,11.564V22.946z"/>
		</g>
		<g>
			<path d="M2.5,27.979h-2c-0.276,0-0.5-0.224-0.5-0.5v-2c0-0.276,0.224-0.5,0.5-0.5s0.5,0.224,0.5,0.5v1.5h1.5
				c0.276,0,0.5,0.224,0.5,0.5S2.776,27.979,2.5,27.979z"/>
		</g>
		<g>
			<path d="M14.5,30c-0.276,0-0.5-0.224-0.5-0.5V17c0-0.276,0.224-0.5,0.5-0.5S15,16.724,15,17v12.5C15,29.776,14.776,30,14.5,30z"
				/>
		</g>
		<g>
			<path d="M0.5,27.979c-0.129,0-0.258-0.05-0.355-0.148c-0.194-0.196-0.192-0.513,0.004-0.707l2-1.979
				c0.197-0.195,0.514-0.191,0.707,0.004c0.194,0.196,0.192,0.513-0.004,0.707l-2,1.979C0.754,27.931,0.627,27.979,0.5,27.979z"/>
		</g>
		<g>
			<path d="M28.5,27.979h-2c-0.276,0-0.5-0.224-0.5-0.5s0.224-0.5,0.5-0.5H28v-1.5c0-0.276,0.224-0.5,0.5-0.5s0.5,0.224,0.5,0.5v2
				C29,27.755,28.776,27.979,28.5,27.979z"/>
		</g>
		<g>
			<path d="M28.5,27.979c-0.127,0-0.254-0.048-0.352-0.145l-2-1.979c-0.196-0.194-0.198-0.511-0.004-0.707
				c0.194-0.195,0.511-0.199,0.707-0.004l2,1.979c0.196,0.194,0.198,0.511,0.004,0.707C28.758,27.929,28.629,27.979,28.5,27.979z"/>
		</g>
		<g>
			<path d="M15.914,2.414c-0.128,0-0.256-0.049-0.354-0.146L14.5,1.207l-1.061,1.061c-0.195,0.195-0.512,0.195-0.707,0
				s-0.195-0.512,0-0.707l1.414-1.414c0.195-0.195,0.512-0.195,0.707,0l1.414,1.414c0.195,0.195,0.195,0.512,0,0.707
				C16.17,2.365,16.042,2.414,15.914,2.414z"/>
		</g>
		<g>
			<path d="M14.516,3.813c-0.275,0-0.498-0.222-0.5-0.497L14,0.503C13.998,0.227,14.221,0.002,14.497,0c0.001,0,0.002,0,0.003,0
				c0.275,0,0.498,0.222,0.5,0.497l0.016,2.813c0.002,0.276-0.221,0.501-0.497,0.503C14.518,3.813,14.517,3.813,14.516,3.813z"/>
		</g>
		<g>
			<path d="M14.5,17.5c-0.074,0-0.147-0.017-0.216-0.049l-12-5.75c-0.249-0.119-0.354-0.418-0.235-0.667
				c0.119-0.251,0.42-0.354,0.667-0.235L14.5,16.445l11.784-5.646c0.245-0.118,0.547-0.015,0.667,0.235
				c0.119,0.249,0.014,0.548-0.235,0.667l-12,5.75C14.647,17.483,14.574,17.5,14.5,17.5z"/>
		</g>
	</g>
</g>
<g id="Signal">
</g>
<g id="Dice">
</g>
<g id="Upload">
</g>
<g id="Download">
</g>
<g id="Plugin_2">
</g>
<g id="Shopping_Bag">
</g>
<g id="Lifebelt">
</g>
<g id="Glasses">
</g>
<g id="Parabolic_Antenna">
</g>
<g id="Loudspeaker">
</g>
<g id="Play">
</g>
<g id="Pause">
</g>
<g id="Signpost">
</g>
<g id="Bluetooth">
</g>
<g id="Present">
</g>
<g id="Ruler">
</g>
<g id="Connection">
</g>
<g id="Money">
</g>
<g id="Paper_Plane">
</g>
<g id="Wallet_2">
</g>
</svg>
