<?xml version="1.0" encoding="iso-8859-1"?>
<!-- Generator: Adobe Illustrator 19.2.1, SVG Export Plug-In . SVG Version: 6.00 Build 0)  -->
<svg version="1.1" xmlns="http://www.w3.org/2000/svg" xmlns:xlink="http://www.w3.org/1999/xlink" x="0px" y="0px"
	 viewBox="0 0 30 30" style="enable-background:new 0 0 30 30;" xml:space="preserve">
<g id="Mail">
</g>
<g id="Open_Mail">
</g>
<g id="Mail_Attachmet">
</g>
<g id="Mails">
</g>
<g id="Trash">
</g>
<g id="Trash_Full">
</g>
<g id="Preferences_1">
</g>
<g id="Preferences_2">
</g>
<g id="Mouse">
</g>
<g id="Computer">
</g>
<g id="Notebook">
</g>
<g id="Mobile_Phone">
</g>
<g id="Print">
</g>
<g id="Calculator">
</g>
<g id="Tag">
</g>
<g id="Paperclip">
</g>
<g id="Heart">
</g>
<g id="Lock">
</g>
<g id="Lock_Open">
</g>
<g id="Key_1">
</g>
<g id="Star">
</g>
<g id="Add">
</g>
<g id="Remove">
</g>
<g id="Error">
</g>
<g id="Check_1">
</g>
<g id="Time">
</g>
<g id="Question_Mark">
</g>
<g id="Error_Mark">
</g>
<g id="Sand-Glass">
</g>
<g id="Battery_Full">
</g>
<g id="Battery_Charge">
</g>
<g id="Battery_Half">
</g>
<g id="Battery_Low">
</g>
<g id="No_Battery">
</g>
<g id="Key_2">
</g>
<g id="Link">
</g>
<g id="Brake_Link">
</g>
<g id="Pencil">
</g>
<g id="At">
</g>
<g id="Reply">
</g>
<g id="Accessible">
</g>
<g id="Up_Arrow">
</g>
<g id="Brush">
</g>
<g id="Design_Mug">
</g>
<g id="Design">
</g>
<g id="Server">
</g>
<g id="Database">
</g>
<g id="Save">
</g>
<g id="Female">
</g>
<g id="Male">
</g>
<g id="Book">
</g>
<g id="Power">
</g>
<g id="Reload">
</g>
<g id="Map">
</g>
<g id="Loction_1">
</g>
<g id="Location_2">
</g>
<g id="Globe">
</g>
<g id="Suitcase">
</g>
<g id="Callendar">
</g>
<g id="Cloud_Off">
</g>
<g id="File_1">
</g>
<g id="File_2">
</g>
<g id="Folder">
</g>
<g id="Open_Folder">
</g>
<g id="Cloud">
</g>
<g id="Upload_Cloud">
</g>
<g id="Download_Cloud">
</g>
<g id="Eye">
</g>
<g id="Invisible">
</g>
<g id="Assignment">
</g>
<g id="Note_Book">
</g>
<g id="Webpage">
</g>
<g id="Mailbox">
</g>
<g id="Drive">
</g>
<g id="Disc">
</g>
<g id="Wifi_1">
</g>
<g id="Wifi_2">
</g>
<g id="Archive">
</g>
<g id="Archive_File">
</g>
<g id="News">
</g>
<g id="Home">
</g>
<g id="Collaboration">
</g>
<g id="Announcement">
	<g>
		<g>
			<path d="M24.5,29c-0.13,0-0.258-0.051-0.354-0.146L18.293,23H3.5C1.57,23,0,21.43,0,19.5v-16C0,1.57,1.57,0,3.5,0h22
				C27.43,0,29,1.57,29,3.5v17c0,1.379-1.122,2.5-2.5,2.5H25v5.5c0,0.202-0.122,0.385-0.309,0.462C24.629,28.987,24.564,29,24.5,29z
				 M3.5,1C2.122,1,1,2.121,1,3.5v16C1,20.879,2.122,22,3.5,22h15c0.133,0,0.26,0.053,0.354,0.146L24,27.293V22.5
				c0-0.276,0.224-0.5,0.5-0.5h2c0.827,0,1.5-0.673,1.5-1.5v-17C28,2.121,26.878,1,25.5,1H3.5z"/>
		</g>
		<g>
			<path d="M14.5,19c-1.103,0-2-0.897-2-2s0.897-2,2-2s2,0.897,2,2S15.603,19,14.5,19z M14.5,16c-0.551,0-1,0.448-1,1s0.449,1,1,1
				s1-0.448,1-1S15.051,16,14.5,16z"/>
		</g>
		<g>
			<path d="M14.5,14c-0.994,0-1.856-0.815-1.932-1.818l-0.563-6.365c-0.035-0.466,0.116-0.902,0.425-1.235
				C12.773,4.212,13.284,4,13.833,4h1.333c0.527,0,1.028,0.214,1.375,0.587c0.328,0.354,0.489,0.813,0.454,1.291l-0.574,6.267
				C16.346,13.146,15.466,14,14.5,14z M13.833,5c-0.272,0-0.516,0.095-0.67,0.261c-0.121,0.131-0.175,0.29-0.162,0.475l0.563,6.365
				C13.602,12.583,14.034,13,14.49,13c0.499,0,0.901-0.495,0.934-0.938l0.574-6.267c0.014-0.189-0.053-0.38-0.19-0.527
				C15.65,5.098,15.417,5,15.167,5H13.833z"/>
		</g>
	</g>
</g>
<g id="Watch">
</g>
<g id="Clock">
</g>
<g id="Volume">
</g>
<g id="Mute">
</g>
<g id="Hand">
</g>
<g id="Layers">
</g>
<g id="Bell">
</g>
<g id="Speach_Bubble">
</g>
<g id="Speach_Bubbles">
</g>
<g id="Zoom_In">
</g>
<g id="Zoom_Out">
</g>
<g id="Search">
</g>
<g id="Back_Arrow">
</g>
<g id="Close">
</g>
<g id="Check_2">
</g>
<g id="Left_Arrow_2">
</g>
<g id="Right_Arrow_2">
</g>
</svg>
