<?xml version="1.0" encoding="iso-8859-1"?>
<!-- Generator: Adobe Illustrator 19.2.1, SVG Export Plug-In . SVG Version: 6.00 Build 0)  -->
<svg version="1.1" xmlns="http://www.w3.org/2000/svg" xmlns:xlink="http://www.w3.org/1999/xlink" x="0px" y="0px"
	 viewBox="0 0 30 30" style="enable-background:new 0 0 30 30;" xml:space="preserve">
<g id="Mail">
</g>
<g id="Open_Mail">
</g>
<g id="Mail_Attachmet">
</g>
<g id="Mails">
</g>
<g id="Trash">
</g>
<g id="Trash_Full">
</g>
<g id="Preferences_1">
</g>
<g id="Preferences_2">
</g>
<g id="Mouse">
</g>
<g id="Computer">
</g>
<g id="Notebook">
</g>
<g id="Mobile_Phone">
</g>
<g id="Print">
</g>
<g id="Calculator">
</g>
<g id="Tag">
</g>
<g id="Paperclip">
</g>
<g id="Heart">
</g>
<g id="Lock">
</g>
<g id="Lock_Open">
</g>
<g id="Key_1">
</g>
<g id="Star">
</g>
<g id="Add">
</g>
<g id="Remove">
</g>
<g id="Error">
</g>
<g id="Check_1">
</g>
<g id="Time">
</g>
<g id="Question_Mark">
</g>
<g id="Error_Mark">
</g>
<g id="Sand-Glass">
</g>
<g id="Battery_Full">
</g>
<g id="Battery_Charge">
</g>
<g id="Battery_Half">
</g>
<g id="Battery_Low">
</g>
<g id="No_Battery">
</g>
<g id="Key_2">
</g>
<g id="Link">
</g>
<g id="Brake_Link">
</g>
<g id="Pencil">
</g>
<g id="At">
	<g>
		<g>
			<g>
				<path d="M15,30C6.729,30,0,23.271,0,15S6.729,0,15,0s15,6.729,15,15c0,3.534-2.927,6.174-5.544,6.174
					c-2.759,0-5.543-1.519-5.543-4.913l1.269-7.024c0.049-0.272,0.314-0.458,0.582-0.402c0.271,0.049,0.451,0.31,0.402,0.581
					l-1.261,6.935c0.008,2.799,2.455,3.824,4.551,3.824C26.558,20.174,29,17.914,29,15c0-7.72-6.28-14-14-14S1,7.28,1,15
					s6.28,14,14,14c3.198,0,6.209-1.05,8.706-3.036c0.218-0.17,0.532-0.137,0.703,0.081c0.172,0.216,0.136,0.531-0.08,0.703
					C21.652,28.875,18.427,30,15,30z"/>
			</g>
		</g>
		<g>
			<g>
				<path d="M14.369,21.174c-1.603,0-3.085-0.768-4.065-2.106c-1.031-1.406-1.339-3.219-0.824-4.849
					c0.835-2.645,2.757-4.524,5.271-5.157c2.146-0.538,4.36-0.082,5.642,1.166c0.198,0.193,0.202,0.509,0.01,0.707
					c-0.194,0.198-0.511,0.202-0.707,0.01c-1.023-0.996-2.912-1.362-4.7-0.913c-1.276,0.321-3.565,1.331-4.563,4.488
					c-0.419,1.327-0.165,2.807,0.678,3.957c0.79,1.079,1.979,1.697,3.259,1.697c2.653,0,4.179-2.408,4.557-4.027
					c0.063-0.268,0.329-0.437,0.601-0.373c0.27,0.063,0.437,0.332,0.374,0.601C19.343,18.759,17.264,21.174,14.369,21.174z"/>
			</g>
		</g>
	</g>
</g>
<g id="Reply">
</g>
<g id="Accessible">
</g>
<g id="Up_Arrow">
</g>
<g id="Brush">
</g>
<g id="Design_Mug">
</g>
<g id="Design">
</g>
<g id="Server">
</g>
<g id="Database">
</g>
<g id="Save">
</g>
<g id="Female">
</g>
<g id="Male">
</g>
<g id="Book">
</g>
<g id="Power">
</g>
<g id="Reload">
</g>
<g id="Map">
</g>
<g id="Loction_1">
</g>
<g id="Location_2">
</g>
<g id="Globe">
</g>
<g id="Suitcase">
</g>
<g id="Callendar">
</g>
<g id="Cloud_Off">
</g>
<g id="File_1">
</g>
<g id="File_2">
</g>
<g id="Folder">
</g>
<g id="Open_Folder">
</g>
<g id="Cloud">
</g>
<g id="Upload_Cloud">
</g>
<g id="Download_Cloud">
</g>
<g id="Eye">
</g>
<g id="Invisible">
</g>
<g id="Assignment">
</g>
<g id="Note_Book">
</g>
<g id="Webpage">
</g>
<g id="Mailbox">
</g>
<g id="Drive">
</g>
<g id="Disc">
</g>
<g id="Wifi_1">
</g>
<g id="Wifi_2">
</g>
<g id="Archive">
</g>
<g id="Archive_File">
</g>
<g id="News">
</g>
<g id="Home">
</g>
<g id="Collaboration">
</g>
<g id="Announcement">
</g>
<g id="Watch">
</g>
<g id="Clock">
</g>
<g id="Volume">
</g>
<g id="Mute">
</g>
<g id="Hand">
</g>
<g id="Layers">
</g>
<g id="Bell">
</g>
<g id="Speach_Bubble">
</g>
<g id="Speach_Bubbles">
</g>
<g id="Zoom_In">
</g>
<g id="Zoom_Out">
</g>
<g id="Search">
</g>
<g id="Back_Arrow">
</g>
<g id="Close">
</g>
<g id="Check_2">
</g>
<g id="Left_Arrow_2">
</g>
<g id="Right_Arrow_2">
</g>
</svg>
