<?xml version="1.0" encoding="iso-8859-1"?>
<!-- Generator: Adobe Illustrator 19.2.1, SVG Export Plug-In . SVG Version: 6.00 Build 0)  -->
<svg version="1.1" xmlns="http://www.w3.org/2000/svg" xmlns:xlink="http://www.w3.org/1999/xlink" x="0px" y="0px"
	 viewBox="0 0 30 30" style="enable-background:new 0 0 30 30;" xml:space="preserve">
<g id="Credit_Card">
</g>
<g id="Banknote">
</g>
<g id="Wallet">
</g>
<g id="Compass">
</g>
<g id="Camera_1">
</g>
<g id="Photo">
</g>
<g id="Picture">
</g>
<g id="Camera_2">
</g>
<g id="No_Camera">
</g>
<g id="Video">
</g>
<g id="Audio">
	<g>
		<path d="M9.5,26.5C9.224,26.5,9,26.276,9,26V7.166c0-0.735,0.482-1.402,1.201-1.658l15.29-5.404c0.562-0.201,1.234-0.1,1.75,0.264
			C27.724,0.707,28,1.215,28,1.762V22c0,0.276-0.224,0.5-0.5,0.5S27,22.276,27,22V1.762c0-0.217-0.122-0.427-0.334-0.577
			c-0.256-0.18-0.578-0.234-0.84-0.139l-15.29,5.404C10.221,6.562,10,6.856,10,7.166V26C10,26.276,9.776,26.5,9.5,26.5z"/>
	</g>
	<g>
		<path d="M9.5,12.37c-0.206,0-0.398-0.127-0.471-0.332c-0.093-0.26,0.042-0.546,0.303-0.639l18-6.43
			c0.258-0.095,0.546,0.043,0.639,0.303c0.093,0.26-0.042,0.546-0.303,0.639l-18,6.43C9.613,12.361,9.556,12.37,9.5,12.37z"/>
	</g>
	<g>
		<path d="M4.725,30.001c-1.821,0-3.306-0.757-3.652-1.991c-0.157-0.561-0.062-1.156,0.277-1.721
			c0.591-0.987,1.857-1.779,3.386-2.118c2.473-0.549,4.752,0.25,5.191,1.819c0.157,0.561,0.062,1.156-0.277,1.721
			c-0.591,0.987-1.857,1.779-3.386,2.118C5.737,29.946,5.219,30.001,4.725,30.001z M6.274,25c-0.424,0-0.872,0.047-1.322,0.147
			c-1.247,0.276-2.299,0.911-2.745,1.655c-0.196,0.328-0.254,0.644-0.172,0.938c0.287,1.022,2.125,1.533,4.011,1.112
			c1.247-0.276,2.299-0.911,2.745-1.655c0.196-0.328,0.254-0.644,0.172-0.938C8.746,25.481,7.628,25,6.274,25z"/>
	</g>
	<g>
		<path d="M22.725,26.001c-1.821,0-3.306-0.757-3.652-1.991c-0.157-0.561-0.062-1.156,0.277-1.721
			c0.591-0.987,1.857-1.779,3.386-2.118c2.471-0.547,4.752,0.25,5.191,1.819c0.157,0.561,0.062,1.156-0.277,1.721
			c-0.591,0.987-1.857,1.779-3.386,2.118C23.737,25.946,23.219,26.001,22.725,26.001z M24.274,21c-0.424,0-0.872,0.047-1.322,0.147
			c-1.247,0.276-2.299,0.911-2.745,1.655c-0.196,0.328-0.254,0.644-0.172,0.938c0.287,1.022,2.124,1.533,4.011,1.112
			c1.247-0.276,2.299-0.911,2.745-1.655c0.196-0.328,0.254-0.644,0.172-0.938C26.746,21.481,25.628,21,24.274,21z"/>
	</g>
</g>
<g id="Microphone_1">
</g>
<g id="Microphone_2">
</g>
<g id="No_Microphone">
</g>
<g id="Shopping_Cart">
</g>
<g id="Add_Shopping_Cart">
</g>
<g id="Remove_Shopping_Cart">
</g>
<g id="Shopping_Basket">
</g>
<g id="Jing-Jang">
</g>
<g id="Leaf">
</g>
<g id="Glass">
</g>
<g id="Cup">
</g>
<g id="Mug">
</g>
<g id="Refresh">
</g>
<g id="Login">
</g>
<g id="Logout">
</g>
<g id="Flowchart">
</g>
<g id="Pin_1">
</g>
<g id="Pin_2">
</g>
<g id="User_1">
</g>
<g id="User_2">
</g>
<g id="Users">
</g>
<g id="Adjustments">
</g>
<g id="Type">
</g>
<g id="Format_Size">
</g>
<g id="Menu_1">
</g>
<g id="Other">
</g>
<g id="Flash">
</g>
<g id="No_Flash">
</g>
<g id="Switch_Button_1">
</g>
<g id="Switch_Button_2">
</g>
<g id="Cut">
</g>
<g id="Crop">
</g>
<g id="Sun">
</g>
<g id="USB">
</g>
<g id="Pie_Chart_1">
</g>
<g id="Pie_Chart_2">
</g>
<g id="Line_Chart">
</g>
<g id="Bar_Chart">
</g>
<g id="Target">
</g>
<g id="Flashlight">
</g>
<g id="USB_Device">
</g>
<g id="Eject">
</g>
<g id="Lightbulb">
</g>
<g id="Information">
</g>
<g id="Deactivate_Protection">
</g>
<g id="Active_Protection">
</g>
<g id="Bug">
</g>
<g id="Protection">
</g>
<g id="Phone">
</g>
<g id="List">
</g>
<g id="Plugin_1">
</g>
<g id="Bookmarrk">
</g>
<g id="Handshake">
</g>
<g id="Minimize">
</g>
<g id="Maximize">
</g>
<g id="Diamond">
</g>
<g id="Stop">
</g>
<g id="Shuffle">
</g>
<g id="Undo">
</g>
<g id="Upgrade">
</g>
<g id="Coding">
</g>
<g id="Syncronizaion">
</g>
<g id="Radio">
</g>
<g id="Presentation">
</g>
<g id="Door">
</g>
<g id="Thumbs_Up">
</g>
<g id="Thumbs_Down">
</g>
<g id="Keyboard">
</g>
<g id="_x33_D_Cube">
</g>
<g id="Signal">
</g>
<g id="Dice">
</g>
<g id="Upload">
</g>
<g id="Download">
</g>
<g id="Plugin_2">
</g>
<g id="Shopping_Bag">
</g>
<g id="Lifebelt">
</g>
<g id="Glasses">
</g>
<g id="Parabolic_Antenna">
</g>
<g id="Loudspeaker">
</g>
<g id="Play">
</g>
<g id="Pause">
</g>
<g id="Signpost">
</g>
<g id="Bluetooth">
</g>
<g id="Present">
</g>
<g id="Ruler">
</g>
<g id="Connection">
</g>
<g id="Money">
</g>
<g id="Paper_Plane">
</g>
<g id="Wallet_2">
</g>
</svg>
