<?xml version="1.0" encoding="iso-8859-1"?>
<!-- Generator: Adobe Illustrator 19.2.1, SVG Export Plug-In . SVG Version: 6.00 Build 0)  -->
<svg version="1.1" xmlns="http://www.w3.org/2000/svg" xmlns:xlink="http://www.w3.org/1999/xlink" x="0px" y="0px"
	 viewBox="0 0 30 30" style="enable-background:new 0 0 30 30;" xml:space="preserve">
<g id="Credit_Card">
</g>
<g id="Banknote">
	<g>
		<path d="M21.486,24.002c-2.367,0-4.732-0.225-7.079-0.674c-4.382-0.84-8.833-0.875-13.228-0.103l-0.592,0.104
			c-0.145,0.028-0.294-0.014-0.408-0.109C0.065,23.125,0,22.984,0,22.836V6.164c0-0.243,0.174-0.451,0.414-0.493l0.592-0.104
			c4.514-0.792,9.085-0.756,13.587,0.105c4.382,0.84,8.833,0.874,13.228,0.103l0.592-0.104c0.146-0.027,0.295,0.015,0.408,0.109
			C28.935,5.875,29,6.016,29,6.164v16.673c0,0.243-0.174,0.451-0.414,0.493l-0.592,0.104C25.833,23.813,23.659,24.002,21.486,24.002
			z M7.515,21.67c2.367,0,4.732,0.225,7.078,0.674c4.384,0.84,8.834,0.875,13.228,0.103L28,22.417V6.759L27.995,6.76
			c-4.515,0.793-9.087,0.757-13.588-0.105C10.023,5.814,5.573,5.781,1.179,6.552L1,6.583v15.657l0.005-0.001
			C3.167,21.86,5.342,21.67,7.515,21.67z"/>
	</g>
	<g>
		<path d="M21.473,21.227c-0.207,0-0.412-0.001-0.618-0.005c-0.276-0.004-0.496-0.232-0.492-0.508
			c0.004-0.273,0.228-0.492,0.5-0.492c0.002,0,0.005,0,0.008,0c1.249,0.02,2.509-0.023,3.752-0.13
			c0.275-0.026,0.518,0.18,0.541,0.455c0.024,0.275-0.18,0.518-0.455,0.541C23.638,21.181,22.552,21.227,21.473,21.227z"/>
	</g>
	<g>
		<path d="M4.316,8.904c-0.257,0-0.476-0.197-0.498-0.458C3.795,8.172,3.999,7.93,4.274,7.906c1.283-0.11,2.587-0.156,3.87-0.133
			c0.276,0.005,0.496,0.232,0.492,0.508C8.631,8.558,8.402,8.78,8.128,8.773C6.876,8.75,5.61,8.795,4.359,8.902
			C4.345,8.904,4.331,8.904,4.316,8.904z"/>
	</g>
	<g>
		<path d="M14.498,19.005c-1.577,0-2.893-1.025-2.997-2.333c-0.021-0.275,0.184-0.516,0.459-0.538
			c0.281-0.019,0.516,0.184,0.538,0.459c0.063,0.792,0.941,1.412,2,1.412c1.104,0,2.002-0.673,2.002-1.5
			c0-0.972-1.053-1.304-1.97-1.484l-0.245-0.05C12.437,14.61,11.5,13.78,11.5,12.505c0-1.378,1.347-2.5,3.002-2.5
			c1.577,0,2.893,1.024,2.997,2.333c0.021,0.275-0.184,0.516-0.459,0.538c-0.283,0.022-0.516-0.184-0.538-0.459
			c-0.063-0.792-0.941-1.412-2-1.412c-1.104,0-2.002,0.673-2.002,1.5c0,0.974,1.056,1.305,1.977,1.485l0.247,0.05
			c1.843,0.363,2.777,1.192,2.777,2.465C17.5,17.884,16.153,19.005,14.498,19.005z"/>
	</g>
	<g>
		<path d="M14.5,20c-0.276,0-0.5-0.224-0.5-0.5v-10C14,9.224,14.224,9,14.5,9S15,9.224,15,9.5v10C15,19.776,14.776,20,14.5,20z"/>
	</g>
</g>
<g id="Wallet">
</g>
<g id="Compass">
</g>
<g id="Camera_1">
</g>
<g id="Photo">
</g>
<g id="Picture">
</g>
<g id="Camera_2">
</g>
<g id="No_Camera">
</g>
<g id="Video">
</g>
<g id="Audio">
</g>
<g id="Microphone_1">
</g>
<g id="Microphone_2">
</g>
<g id="No_Microphone">
</g>
<g id="Shopping_Cart">
</g>
<g id="Add_Shopping_Cart">
</g>
<g id="Remove_Shopping_Cart">
</g>
<g id="Shopping_Basket">
</g>
<g id="Jing-Jang">
</g>
<g id="Leaf">
</g>
<g id="Glass">
</g>
<g id="Cup">
</g>
<g id="Mug">
</g>
<g id="Refresh">
</g>
<g id="Login">
</g>
<g id="Logout">
</g>
<g id="Flowchart">
</g>
<g id="Pin_1">
</g>
<g id="Pin_2">
</g>
<g id="User_1">
</g>
<g id="User_2">
</g>
<g id="Users">
</g>
<g id="Adjustments">
</g>
<g id="Type">
</g>
<g id="Format_Size">
</g>
<g id="Menu_1">
</g>
<g id="Other">
</g>
<g id="Flash">
</g>
<g id="No_Flash">
</g>
<g id="Switch_Button_1">
</g>
<g id="Switch_Button_2">
</g>
<g id="Cut">
</g>
<g id="Crop">
</g>
<g id="Sun">
</g>
<g id="USB">
</g>
<g id="Pie_Chart_1">
</g>
<g id="Pie_Chart_2">
</g>
<g id="Line_Chart">
</g>
<g id="Bar_Chart">
</g>
<g id="Target">
</g>
<g id="Flashlight">
</g>
<g id="USB_Device">
</g>
<g id="Eject">
</g>
<g id="Lightbulb">
</g>
<g id="Information">
</g>
<g id="Deactivate_Protection">
</g>
<g id="Active_Protection">
</g>
<g id="Bug">
</g>
<g id="Protection">
</g>
<g id="Phone">
</g>
<g id="List">
</g>
<g id="Plugin_1">
</g>
<g id="Bookmarrk">
</g>
<g id="Handshake">
</g>
<g id="Minimize">
</g>
<g id="Maximize">
</g>
<g id="Diamond">
</g>
<g id="Stop">
</g>
<g id="Shuffle">
</g>
<g id="Undo">
</g>
<g id="Upgrade">
</g>
<g id="Coding">
</g>
<g id="Syncronizaion">
</g>
<g id="Radio">
</g>
<g id="Presentation">
</g>
<g id="Door">
</g>
<g id="Thumbs_Up">
</g>
<g id="Thumbs_Down">
</g>
<g id="Keyboard">
</g>
<g id="_x33_D_Cube">
</g>
<g id="Signal">
</g>
<g id="Dice">
</g>
<g id="Upload">
</g>
<g id="Download">
</g>
<g id="Plugin_2">
</g>
<g id="Shopping_Bag">
</g>
<g id="Lifebelt">
</g>
<g id="Glasses">
</g>
<g id="Parabolic_Antenna">
</g>
<g id="Loudspeaker">
</g>
<g id="Play">
</g>
<g id="Pause">
</g>
<g id="Signpost">
</g>
<g id="Bluetooth">
</g>
<g id="Present">
</g>
<g id="Ruler">
</g>
<g id="Connection">
</g>
<g id="Money">
</g>
<g id="Paper_Plane">
</g>
<g id="Wallet_2">
</g>
</svg>
