<?xml version="1.0" encoding="iso-8859-1"?>
<!-- Generator: Adobe Illustrator 19.2.1, SVG Export Plug-In . SVG Version: 6.00 Build 0)  -->
<svg version="1.1" xmlns="http://www.w3.org/2000/svg" xmlns:xlink="http://www.w3.org/1999/xlink" x="0px" y="0px"
	 viewBox="0 0 30 30" style="enable-background:new 0 0 30 30;" xml:space="preserve">
<g id="Flag">
</g>
<g id="Umbrella">
</g>
<g id="Briefcase">
</g>
<g id="Box">
</g>
<g id="Magnet">
</g>
<g id="Percent">
</g>
<g id="Rocket">
</g>
<g id="Share">
</g>
<g id="Transmitter">
</g>
<g id="Record_2">
</g>
<g id="Record_1">
</g>
<g id="Anchor">
</g>
<g id="Airplane">
</g>
<g id="Car">
</g>
<g id="Newsfeed">
</g>
<g id="Wifi_Tethering">
</g>
<g id="No_Wifi_Tethering">
</g>
<g id="Bar_Chart_2">
	<g>
		<g>
			<path d="M29.5,30h-29C0.224,30,0,29.776,0,29.5S0.224,29,0.5,29h29c0.276,0,0.5,0.224,0.5,0.5S29.776,30,29.5,30z"/>
		</g>
		<g>
			<path d="M6.5,30h-4C2.224,30,2,29.776,2,29.5v-8C2,21.224,2.224,21,2.5,21h4C6.776,21,7,21.224,7,21.5v8
				C7,29.776,6.776,30,6.5,30z M3,29h3v-7H3V29z"/>
		</g>
		<g>
			<path d="M13.5,30h-4C9.224,30,9,29.776,9,29.5v-14C9,15.224,9.224,15,9.5,15h4c0.276,0,0.5,0.224,0.5,0.5v14
				C14,29.776,13.776,30,13.5,30z M10,29h3V16h-3V29z"/>
		</g>
		<g>
			<path d="M20.5,30h-4c-0.276,0-0.5-0.224-0.5-0.5v-11c0-0.276,0.224-0.5,0.5-0.5h4c0.276,0,0.5,0.224,0.5,0.5v11
				C21,29.776,20.776,30,20.5,30z M17,29h3V19h-3V29z"/>
		</g>
		<g>
			<path d="M27.5,30h-4c-0.276,0-0.5-0.224-0.5-0.5v-19c0-0.276,0.224-0.5,0.5-0.5h4c0.276,0,0.5,0.224,0.5,0.5v19
				C28,29.776,27.776,30,27.5,30z M24,29h3V11h-3V29z"/>
		</g>
		<g>
			<path d="M4.5,16C3.121,16,2,14.878,2,13.5S3.121,11,4.5,11S7,12.122,7,13.5S5.879,16,4.5,16z M4.5,12C3.673,12,3,12.673,3,13.5
				S3.673,15,4.5,15S6,14.327,6,13.5S5.327,12,4.5,12z"/>
		</g>
		<g>
			<path d="M11.5,10C10.121,10,9,8.878,9,7.5S10.121,5,11.5,5S14,6.122,14,7.5S12.879,10,11.5,10z M11.5,6C10.673,6,10,6.673,10,7.5
				S10.673,9,11.5,9S13,8.327,13,7.5S12.327,6,11.5,6z"/>
		</g>
		<g>
			<path d="M18.5,13c-1.379,0-2.5-1.122-2.5-2.5S17.121,8,18.5,8S21,9.122,21,10.5S19.879,13,18.5,13z M18.5,9
				C17.673,9,17,9.673,17,10.5s0.673,1.5,1.5,1.5s1.5-0.673,1.5-1.5S19.327,9,18.5,9z"/>
		</g>
		<g>
			<path d="M25.5,5C24.121,5,23,3.878,23,2.5S24.121,0,25.5,0S28,1.122,28,2.5S26.879,5,25.5,5z M25.5,1C24.673,1,24,1.673,24,2.5
				S24.673,4,25.5,4S27,3.327,27,2.5S26.327,1,25.5,1z"/>
		</g>
		<g>
			<path d="M6.01,12.7c-0.141,0-0.281-0.06-0.38-0.175C5.45,12.315,5.475,12,5.685,11.82l3.98-3.4
				c0.211-0.178,0.526-0.154,0.705,0.056C10.55,8.685,10.525,9,10.315,9.18l-3.98,3.4C6.24,12.661,6.125,12.7,6.01,12.7z"/>
		</g>
		<g>
			<path d="M19.81,9.5c-0.117,0-0.234-0.041-0.329-0.124c-0.208-0.182-0.229-0.498-0.047-0.706l4.381-5
				c0.182-0.208,0.499-0.227,0.705-0.046c0.208,0.182,0.229,0.498,0.047,0.706l-4.381,5C20.087,9.442,19.948,9.5,19.81,9.5z"/>
		</g>
		<g>
			<path d="M16.66,10.21c-0.065,0-0.133-0.013-0.196-0.04l-3.32-1.42c-0.254-0.109-0.372-0.403-0.264-0.657
				c0.108-0.253,0.403-0.372,0.656-0.263l3.32,1.42c0.254,0.109,0.372,0.403,0.264,0.657C17.039,10.096,16.854,10.21,16.66,10.21z"
				/>
		</g>
	</g>
</g>
<g id="Shop">
</g>
<g id="Alarm">
</g>
<g id="Sim_Card">
</g>
<g id="Radar">
</g>
<g id="Hand_2">
</g>
<g id="Palette">
</g>
<g id="Cake">
</g>
<g id="Blende">
</g>
<g id="Feather_Pen">
</g>
<g id="Ticket">
</g>
<g id="Medal">
</g>
<g id="Mouse_Pointer_1">
</g>
<g id="Mouse_Pointer_2">
</g>
<g id="Fingerprint">
</g>
<g id="Earth">
</g>
</svg>
