<?xml version="1.0" encoding="iso-8859-1"?>
<!-- Generator: Adobe Illustrator 19.2.1, SVG Export Plug-In . SVG Version: 6.00 Build 0)  -->
<svg version="1.1" xmlns="http://www.w3.org/2000/svg" xmlns:xlink="http://www.w3.org/1999/xlink" x="0px" y="0px"
	 viewBox="0 0 30 30" style="enable-background:new 0 0 30 30;" xml:space="preserve">
<g id="Flag">
</g>
<g id="Umbrella">
</g>
<g id="Briefcase">
	<g>
		<path d="M28,27H2c-1.103,0-2-0.897-2-2V8c0-1.103,0.897-2,2-2h26c1.103,0,2,0.897,2,2v17C30,26.103,29.103,27,28,27z M2,7
			C1.449,7,1,7.449,1,8v17c0,0.551,0.449,1,1,1h26c0.551,0,1-0.449,1-1V8c0-0.551-0.449-1-1-1H2z"/>
	</g>
	<g>
		<path d="M19.5,7C19.224,7,19,6.776,19,6.5V4c0-0.551-0.449-1-1-1h-6c-0.551,0-1,0.449-1,1v2.5C11,6.776,10.776,7,10.5,7
			S10,6.776,10,6.5V4c0-1.103,0.897-2,2-2h6c1.103,0,2,0.897,2,2v2.5C20,6.776,19.776,7,19.5,7z"/>
	</g>
	<g>
		<path d="M15,16c-1.378,0-2.5-1.122-2.5-2.5S13.622,11,15,11s2.5,1.122,2.5,2.5S16.378,16,15,16z M15,12
			c-0.827,0-1.5,0.673-1.5,1.5S14.173,15,15,15s1.5-0.673,1.5-1.5S15.827,12,15,12z"/>
	</g>
	<g>
		<path d="M29.5,14H17c-0.276,0-0.5-0.224-0.5-0.5S16.724,13,17,13h12.5c0.276,0,0.5,0.224,0.5,0.5S29.776,14,29.5,14z"/>
	</g>
	<g>
		<path d="M13,14H0.5C0.224,14,0,13.776,0,13.5S0.224,13,0.5,13H13c0.276,0,0.5,0.224,0.5,0.5S13.276,14,13,14z"/>
	</g>
</g>
<g id="Box">
</g>
<g id="Magnet">
</g>
<g id="Percent">
</g>
<g id="Rocket">
</g>
<g id="Share">
</g>
<g id="Transmitter">
</g>
<g id="Record_2">
</g>
<g id="Record_1">
</g>
<g id="Anchor">
</g>
<g id="Airplane">
</g>
<g id="Car">
</g>
<g id="Newsfeed">
</g>
<g id="Wifi_Tethering">
</g>
<g id="No_Wifi_Tethering">
</g>
<g id="Bar_Chart_2">
</g>
<g id="Shop">
</g>
<g id="Alarm">
</g>
<g id="Sim_Card">
</g>
<g id="Radar">
</g>
<g id="Hand_2">
</g>
<g id="Palette">
</g>
<g id="Cake">
</g>
<g id="Blende">
</g>
<g id="Feather_Pen">
</g>
<g id="Ticket">
</g>
<g id="Medal">
</g>
<g id="Mouse_Pointer_1">
</g>
<g id="Mouse_Pointer_2">
</g>
<g id="Fingerprint">
</g>
<g id="Earth">
</g>
</svg>
