<?xml version="1.0" encoding="iso-8859-1"?>
<!-- Generator: Adobe Illustrator 19.2.1, SVG Export Plug-In . SVG Version: 6.00 Build 0)  -->
<svg version="1.1" xmlns="http://www.w3.org/2000/svg" xmlns:xlink="http://www.w3.org/1999/xlink" x="0px" y="0px"
	 viewBox="0 0 30 30" style="enable-background:new 0 0 30 30;" xml:space="preserve">
<g id="Credit_Card">
</g>
<g id="Banknote">
</g>
<g id="Wallet">
</g>
<g id="Compass">
</g>
<g id="Camera_1">
</g>
<g id="Photo">
</g>
<g id="Picture">
</g>
<g id="Camera_2">
</g>
<g id="No_Camera">
</g>
<g id="Video">
</g>
<g id="Audio">
</g>
<g id="Microphone_1">
</g>
<g id="Microphone_2">
</g>
<g id="No_Microphone">
</g>
<g id="Shopping_Cart">
</g>
<g id="Add_Shopping_Cart">
</g>
<g id="Remove_Shopping_Cart">
</g>
<g id="Shopping_Basket">
</g>
<g id="Jing-Jang">
</g>
<g id="Leaf">
</g>
<g id="Glass">
</g>
<g id="Cup">
</g>
<g id="Mug">
</g>
<g id="Refresh">
</g>
<g id="Login">
</g>
<g id="Logout">
</g>
<g id="Flowchart">
</g>
<g id="Pin_1">
</g>
<g id="Pin_2">
</g>
<g id="User_1">
</g>
<g id="User_2">
</g>
<g id="Users">
</g>
<g id="Adjustments">
</g>
<g id="Type">
</g>
<g id="Format_Size">
</g>
<g id="Menu_1">
</g>
<g id="Other">
</g>
<g id="Flash">
</g>
<g id="No_Flash">
</g>
<g id="Switch_Button_1">
</g>
<g id="Switch_Button_2">
</g>
<g id="Cut">
</g>
<g id="Crop">
</g>
<g id="Sun">
</g>
<g id="USB">
</g>
<g id="Pie_Chart_1">
</g>
<g id="Pie_Chart_2">
</g>
<g id="Line_Chart">
</g>
<g id="Bar_Chart">
</g>
<g id="Target">
</g>
<g id="Flashlight">
</g>
<g id="USB_Device">
</g>
<g id="Eject">
</g>
<g id="Lightbulb">
</g>
<g id="Information">
</g>
<g id="Deactivate_Protection">
</g>
<g id="Active_Protection">
</g>
<g id="Bug">
	<g>
		<g>
			<path d="M14.5,11.142c-1.603,0-2.791-0.395-3.533-1.172c-0.786-0.825-0.75-1.779-0.748-1.819
				c0.003-0.072,0.021-0.142,0.055-0.205l1.891-3.674C12.25,4.104,12.421,4,12.608,4h3.783c0.188,0,0.359,0.105,0.445,0.272
				l1.891,3.701c0.032,0.063,0.051,0.133,0.054,0.203c0.002,0.04,0.038,0.979-0.739,1.794C17.302,10.748,16.11,11.142,14.5,11.142z
				 M11.222,8.287c0.018,0.183,0.1,0.614,0.484,1.009c0.541,0.553,1.507,0.846,2.794,0.846c1.308,0,2.282-0.298,2.818-0.86
				c0.363-0.382,0.443-0.792,0.46-0.968L16.086,5h-3.173L11.222,8.287z"/>
		</g>
		<g>
			<path d="M12.608,4.782c-0.008,0-0.017,0-0.025-0.001c-0.275-0.014-0.488-0.249-0.474-0.524c0.029-0.589-0.038-2.268-0.696-2.96
				C11.22,1.095,10.999,1,10.718,1c-0.276,0-0.5-0.224-0.5-0.5s0.224-0.5,0.5-0.5c0.552,0,1.043,0.211,1.421,0.609
				c1.07,1.128,0.982,3.439,0.969,3.699C13.094,4.575,12.873,4.782,12.608,4.782z"/>
		</g>
		<g>
			<path d="M16.396,4.782c-0.265,0-0.485-0.207-0.499-0.474c-0.014-0.26-0.102-2.571,0.969-3.699C17.244,0.211,17.735,0,18.287,0
				c0.276,0,0.5,0.224,0.5,0.5S18.563,1,18.287,1c-0.281,0-0.502,0.095-0.695,0.297c-0.658,0.692-0.726,2.371-0.696,2.96
				c0.015,0.275-0.198,0.511-0.474,0.524C16.413,4.782,16.404,4.782,16.396,4.782z"/>
		</g>
		<g>
			<path d="M14.5,30C8.701,30,6,22.867,6,18.046c0-4.831,0.66-7.054,0.688-7.146C6.72,10.8,6.78,10.712,6.863,10.648l3.333-2.546
				c0.219-0.168,0.533-0.126,0.701,0.094s0.126,0.533-0.094,0.701L7.606,11.34C7.466,11.902,7,14.069,7,18.046
				C7,22.464,9.384,29,14.5,29S22,22.464,22,18.046c0-3.977-0.466-6.144-0.606-6.706l-3.197-2.442
				c-0.22-0.168-0.262-0.481-0.094-0.701c0.169-0.22,0.481-0.262,0.701-0.094l3.333,2.546c0.083,0.063,0.144,0.151,0.175,0.252
				C22.34,10.992,23,13.215,23,18.046C23,22.867,20.299,30,14.5,30z"/>
		</g>
		<g>
			<path d="M14.5,30c-0.276,0-0.5-0.224-0.5-0.5v-19c0-0.276,0.224-0.5,0.5-0.5s0.5,0.224,0.5,0.5v19C15,29.776,14.776,30,14.5,30z"
				/>
		</g>
		<g>
			<path d="M22.29,14.34c-0.154,0-0.307-0.071-0.404-0.205c-0.162-0.224-0.113-0.536,0.109-0.699l3.21-2.34
				c0.223-0.162,0.537-0.112,0.699,0.109c0.162,0.224,0.113,0.536-0.109,0.699l-3.21,2.34C22.496,14.309,22.393,14.34,22.29,14.34z"
				/>
		</g>
		<g>
			<path d="M26.5,20h-4.08c-0.276,0-0.5-0.224-0.5-0.5s0.224-0.5,0.5-0.5h4.08c0.276,0,0.5,0.224,0.5,0.5S26.776,20,26.5,20z"/>
		</g>
		<g>
			<path d="M24.5,29c-0.125,0-0.25-0.046-0.347-0.14l-3.66-3.52c-0.199-0.191-0.205-0.508-0.014-0.707
				c0.191-0.198,0.51-0.205,0.707-0.014l3.66,3.52c0.199,0.191,0.205,0.508,0.014,0.707C24.763,28.948,24.631,29,24.5,29z"/>
		</g>
		<g>
			<path d="M6.73,14.13c-0.103,0-0.205-0.031-0.294-0.096l-2.931-2.13c-0.224-0.162-0.272-0.475-0.11-0.698
				c0.163-0.225,0.476-0.272,0.698-0.11l2.931,2.13c0.224,0.162,0.272,0.475,0.11,0.698C7.037,14.059,6.885,14.13,6.73,14.13z"/>
		</g>
		<g>
			<path d="M6.58,20H2.8c-0.276,0-0.5-0.224-0.5-0.5S2.523,19,2.8,19h3.78c0.276,0,0.5,0.224,0.5,0.5S6.856,20,6.58,20z"/>
		</g>
		<g>
			<path d="M4.8,29c-0.131,0-0.262-0.052-0.36-0.153c-0.191-0.199-0.186-0.516,0.014-0.707l3.46-3.33
				c0.198-0.189,0.515-0.185,0.707,0.014c0.191,0.199,0.186,0.516-0.014,0.707l-3.46,3.33C5.05,28.953,4.925,29,4.8,29z"/>
		</g>
	</g>
</g>
<g id="Protection">
</g>
<g id="Phone">
</g>
<g id="List">
</g>
<g id="Plugin_1">
</g>
<g id="Bookmarrk">
</g>
<g id="Handshake">
</g>
<g id="Minimize">
</g>
<g id="Maximize">
</g>
<g id="Diamond">
</g>
<g id="Stop">
</g>
<g id="Shuffle">
</g>
<g id="Undo">
</g>
<g id="Upgrade">
</g>
<g id="Coding">
</g>
<g id="Syncronizaion">
</g>
<g id="Radio">
</g>
<g id="Presentation">
</g>
<g id="Door">
</g>
<g id="Thumbs_Up">
</g>
<g id="Thumbs_Down">
</g>
<g id="Keyboard">
</g>
<g id="_x33_D_Cube">
</g>
<g id="Signal">
</g>
<g id="Dice">
</g>
<g id="Upload">
</g>
<g id="Download">
</g>
<g id="Plugin_2">
</g>
<g id="Shopping_Bag">
</g>
<g id="Lifebelt">
</g>
<g id="Glasses">
</g>
<g id="Parabolic_Antenna">
</g>
<g id="Loudspeaker">
</g>
<g id="Play">
</g>
<g id="Pause">
</g>
<g id="Signpost">
</g>
<g id="Bluetooth">
</g>
<g id="Present">
</g>
<g id="Ruler">
</g>
<g id="Connection">
</g>
<g id="Money">
</g>
<g id="Paper_Plane">
</g>
<g id="Wallet_2">
</g>
</svg>
