<?xml version="1.0" encoding="iso-8859-1"?>
<!-- Generator: Adobe Illustrator 19.2.1, SVG Export Plug-In . SVG Version: 6.00 Build 0)  -->
<svg version="1.1" xmlns="http://www.w3.org/2000/svg" xmlns:xlink="http://www.w3.org/1999/xlink" x="0px" y="0px"
	 viewBox="0 0 30 30" style="enable-background:new 0 0 30 30;" xml:space="preserve">
<g id="Credit_Card">
</g>
<g id="Banknote">
</g>
<g id="Wallet">
</g>
<g id="Compass">
</g>
<g id="Camera_1">
	<g>
		<path d="M26.5,27h-23C1.57,27,0,25.43,0,23.5v-13C0,8.57,1.57,7,3.5,7h4.565C8.39,7,8.675,6.792,8.775,6.484l0.41-1.262
			C9.621,3.912,10.8,3,12.052,3h5.896c1.256,0,2.435,0.903,2.866,2.196l0.404,1.341C21.311,6.817,21.587,7,21.935,7H26.5
			c1.93,0,3.5,1.57,3.5,3.5v13C30,25.43,28.43,27,26.5,27z M3.5,8C2.122,8,1,9.122,1,10.5v13C1,24.878,2.122,26,3.5,26h23
			c1.378,0,2.5-1.122,2.5-2.5v-13C29,9.122,27.878,8,26.5,8h-4.565c-0.78,0-1.436-0.456-1.67-1.161l-0.403-1.34
			C19.573,4.636,18.767,4,17.948,4h-5.896c-0.815,0-1.622,0.646-1.918,1.535L9.726,6.792C9.492,7.515,8.825,8,8.065,8H3.5z"/>
	</g>
	<g>
		<path d="M15,24c-3.86,0-7-3.14-7-7s3.14-7,7-7s7,3.14,7,7S18.86,24,15,24z M15,11c-3.309,0-6,2.691-6,6s2.691,6,6,6s6-2.691,6-6
			S18.309,11,15,11z"/>
	</g>
	<g>
		<path d="M10.587,17.543c-0.276,0-0.5-0.224-0.5-0.5c0-2.709,2.204-4.913,4.913-4.913c0.276,0,0.5,0.224,0.5,0.5
			s-0.224,0.5-0.5,0.5c-2.158,0-3.913,1.755-3.913,3.913C11.087,17.32,10.863,17.543,10.587,17.543z"/>
	</g>
</g>
<g id="Photo">
</g>
<g id="Picture">
</g>
<g id="Camera_2">
</g>
<g id="No_Camera">
</g>
<g id="Video">
</g>
<g id="Audio">
</g>
<g id="Microphone_1">
</g>
<g id="Microphone_2">
</g>
<g id="No_Microphone">
</g>
<g id="Shopping_Cart">
</g>
<g id="Add_Shopping_Cart">
</g>
<g id="Remove_Shopping_Cart">
</g>
<g id="Shopping_Basket">
</g>
<g id="Jing-Jang">
</g>
<g id="Leaf">
</g>
<g id="Glass">
</g>
<g id="Cup">
</g>
<g id="Mug">
</g>
<g id="Refresh">
</g>
<g id="Login">
</g>
<g id="Logout">
</g>
<g id="Flowchart">
</g>
<g id="Pin_1">
</g>
<g id="Pin_2">
</g>
<g id="User_1">
</g>
<g id="User_2">
</g>
<g id="Users">
</g>
<g id="Adjustments">
</g>
<g id="Type">
</g>
<g id="Format_Size">
</g>
<g id="Menu_1">
</g>
<g id="Other">
</g>
<g id="Flash">
</g>
<g id="No_Flash">
</g>
<g id="Switch_Button_1">
</g>
<g id="Switch_Button_2">
</g>
<g id="Cut">
</g>
<g id="Crop">
</g>
<g id="Sun">
</g>
<g id="USB">
</g>
<g id="Pie_Chart_1">
</g>
<g id="Pie_Chart_2">
</g>
<g id="Line_Chart">
</g>
<g id="Bar_Chart">
</g>
<g id="Target">
</g>
<g id="Flashlight">
</g>
<g id="USB_Device">
</g>
<g id="Eject">
</g>
<g id="Lightbulb">
</g>
<g id="Information">
</g>
<g id="Deactivate_Protection">
</g>
<g id="Active_Protection">
</g>
<g id="Bug">
</g>
<g id="Protection">
</g>
<g id="Phone">
</g>
<g id="List">
</g>
<g id="Plugin_1">
</g>
<g id="Bookmarrk">
</g>
<g id="Handshake">
</g>
<g id="Minimize">
</g>
<g id="Maximize">
</g>
<g id="Diamond">
</g>
<g id="Stop">
</g>
<g id="Shuffle">
</g>
<g id="Undo">
</g>
<g id="Upgrade">
</g>
<g id="Coding">
</g>
<g id="Syncronizaion">
</g>
<g id="Radio">
</g>
<g id="Presentation">
</g>
<g id="Door">
</g>
<g id="Thumbs_Up">
</g>
<g id="Thumbs_Down">
</g>
<g id="Keyboard">
</g>
<g id="_x33_D_Cube">
</g>
<g id="Signal">
</g>
<g id="Dice">
</g>
<g id="Upload">
</g>
<g id="Download">
</g>
<g id="Plugin_2">
</g>
<g id="Shopping_Bag">
</g>
<g id="Lifebelt">
</g>
<g id="Glasses">
</g>
<g id="Parabolic_Antenna">
</g>
<g id="Loudspeaker">
</g>
<g id="Play">
</g>
<g id="Pause">
</g>
<g id="Signpost">
</g>
<g id="Bluetooth">
</g>
<g id="Present">
</g>
<g id="Ruler">
</g>
<g id="Connection">
</g>
<g id="Money">
</g>
<g id="Paper_Plane">
</g>
<g id="Wallet_2">
</g>
</svg>
