<?xml version="1.0" encoding="iso-8859-1"?>
<!-- Generator: Adobe Illustrator 19.2.1, SVG Export Plug-In . SVG Version: 6.00 Build 0)  -->
<svg version="1.1" xmlns="http://www.w3.org/2000/svg" xmlns:xlink="http://www.w3.org/1999/xlink" x="0px" y="0px"
	 viewBox="0 0 30 30" style="enable-background:new 0 0 30 30;" xml:space="preserve">
<g id="Mail">
</g>
<g id="Open_Mail">
</g>
<g id="Mail_Attachmet">
</g>
<g id="Mails">
</g>
<g id="Trash">
</g>
<g id="Trash_Full">
</g>
<g id="Preferences_1">
</g>
<g id="Preferences_2">
</g>
<g id="Mouse">
</g>
<g id="Computer">
</g>
<g id="Notebook">
</g>
<g id="Mobile_Phone">
</g>
<g id="Print">
</g>
<g id="Calculator">
</g>
<g id="Tag">
</g>
<g id="Paperclip">
</g>
<g id="Heart">
</g>
<g id="Lock">
</g>
<g id="Lock_Open">
</g>
<g id="Key_1">
</g>
<g id="Star">
</g>
<g id="Add">
</g>
<g id="Remove">
</g>
<g id="Error">
</g>
<g id="Check_1">
</g>
<g id="Time">
</g>
<g id="Question_Mark">
</g>
<g id="Error_Mark">
</g>
<g id="Sand-Glass">
</g>
<g id="Battery_Full">
</g>
<g id="Battery_Charge">
</g>
<g id="Battery_Half">
</g>
<g id="Battery_Low">
</g>
<g id="No_Battery">
</g>
<g id="Key_2">
</g>
<g id="Link">
</g>
<g id="Brake_Link">
</g>
<g id="Pencil">
</g>
<g id="At">
</g>
<g id="Reply">
</g>
<g id="Accessible">
</g>
<g id="Up_Arrow">
</g>
<g id="Brush">
</g>
<g id="Design_Mug">
</g>
<g id="Design">
</g>
<g id="Server">
</g>
<g id="Database">
</g>
<g id="Save">
</g>
<g id="Female">
</g>
<g id="Male">
</g>
<g id="Book">
</g>
<g id="Power">
</g>
<g id="Reload">
</g>
<g id="Map">
</g>
<g id="Loction_1">
</g>
<g id="Location_2">
</g>
<g id="Globe">
</g>
<g id="Suitcase">
</g>
<g id="Callendar">
</g>
<g id="Cloud_Off">
</g>
<g id="File_1">
</g>
<g id="File_2">
</g>
<g id="Folder">
</g>
<g id="Open_Folder">
</g>
<g id="Cloud">
</g>
<g id="Upload_Cloud">
</g>
<g id="Download_Cloud">
</g>
<g id="Eye">
</g>
<g id="Invisible">
</g>
<g id="Assignment">
</g>
<g id="Note_Book">
</g>
<g id="Webpage">
</g>
<g id="Mailbox">
</g>
<g id="Drive">
</g>
<g id="Disc">
</g>
<g id="Wifi_1">
</g>
<g id="Wifi_2">
</g>
<g id="Archive">
</g>
<g id="Archive_File">
</g>
<g id="News">
</g>
<g id="Home">
</g>
<g id="Collaboration">
	<g>
		<g>
			<path d="M24.5,28c-2.481,0-4.5-2.019-4.5-4.5s2.019-4.5,4.5-4.5s4.5,2.019,4.5,4.5S26.981,28,24.5,28z M24.5,20
				c-1.93,0-3.5,1.57-3.5,3.5s1.57,3.5,3.5,3.5s3.5-1.57,3.5-3.5S26.43,20,24.5,20z"/>
		</g>
		<g>
			<path d="M14.5,11C12.019,11,10,8.981,10,6.5S12.019,2,14.5,2S19,4.019,19,6.5S16.981,11,14.5,11z M14.5,3C12.57,3,11,4.57,11,6.5
				s1.57,3.5,3.5,3.5S18,8.43,18,6.5S16.43,3,14.5,3z"/>
		</g>
		<g>
			<path d="M4.5,28C2.019,28,0,25.981,0,23.5S2.019,19,4.5,19S9,21.019,9,23.5S6.981,28,4.5,28z M4.5,20C2.57,20,1,21.57,1,23.5
				S2.57,27,4.5,27S8,25.43,8,23.5S6.43,20,4.5,20z"/>
		</g>
		<g>
			<path d="M3.7,20.08c-0.234,0-0.444-0.166-0.49-0.404C3.07,18.962,3,18.229,3,17.5c0-4.746,2.971-9.061,7.393-10.737
				c0.259-0.094,0.547,0.032,0.645,0.291c0.098,0.258-0.032,0.547-0.291,0.645C6.711,9.228,4,13.167,4,17.5
				c0,0.666,0.064,1.333,0.191,1.984c0.053,0.271-0.124,0.534-0.395,0.587C3.764,20.077,3.731,20.08,3.7,20.08z"/>
		</g>
		<g>
			<path d="M14.5,29c-2.625,0-5.194-0.91-7.234-2.562c-0.215-0.174-0.248-0.488-0.074-0.703c0.173-0.214,0.489-0.248,0.703-0.074
				C9.758,27.169,12.104,28,14.5,28s4.742-0.831,6.605-2.339c0.214-0.174,0.53-0.14,0.703,0.074
				c0.174,0.215,0.141,0.529-0.074,0.703C19.694,28.09,17.125,29,14.5,29z"/>
		</g>
		<g>
			<path d="M25.3,20.08c-0.032,0-0.064-0.003-0.096-0.009c-0.271-0.053-0.448-0.315-0.395-0.587C24.936,18.833,25,18.166,25,17.5
				c0-4.333-2.711-8.272-6.747-9.802c-0.258-0.098-0.388-0.387-0.291-0.645c0.099-0.259,0.386-0.385,0.645-0.291
				C23.029,8.439,26,12.754,26,17.5c0,0.729-0.07,1.462-0.209,2.176C25.744,19.914,25.535,20.08,25.3,20.08z"/>
		</g>
	</g>
</g>
<g id="Announcement">
</g>
<g id="Watch">
</g>
<g id="Clock">
</g>
<g id="Volume">
</g>
<g id="Mute">
</g>
<g id="Hand">
</g>
<g id="Layers">
</g>
<g id="Bell">
</g>
<g id="Speach_Bubble">
</g>
<g id="Speach_Bubbles">
</g>
<g id="Zoom_In">
</g>
<g id="Zoom_Out">
</g>
<g id="Search">
</g>
<g id="Back_Arrow">
</g>
<g id="Close">
</g>
<g id="Check_2">
</g>
<g id="Left_Arrow_2">
</g>
<g id="Right_Arrow_2">
</g>
</svg>
