<?xml version="1.0" encoding="iso-8859-1"?>
<!-- Generator: Adobe Illustrator 19.2.1, SVG Export Plug-In . SVG Version: 6.00 Build 0)  -->
<svg version="1.1" xmlns="http://www.w3.org/2000/svg" xmlns:xlink="http://www.w3.org/1999/xlink" x="0px" y="0px"
	 viewBox="0 0 30 30" style="enable-background:new 0 0 30 30;" xml:space="preserve">
<g id="Credit_Card">
</g>
<g id="Banknote">
</g>
<g id="Wallet">
</g>
<g id="Compass">
</g>
<g id="Camera_1">
</g>
<g id="Photo">
</g>
<g id="Picture">
</g>
<g id="Camera_2">
</g>
<g id="No_Camera">
</g>
<g id="Video">
</g>
<g id="Audio">
</g>
<g id="Microphone_1">
</g>
<g id="Microphone_2">
</g>
<g id="No_Microphone">
</g>
<g id="Shopping_Cart">
</g>
<g id="Add_Shopping_Cart">
</g>
<g id="Remove_Shopping_Cart">
</g>
<g id="Shopping_Basket">
</g>
<g id="Jing-Jang">
</g>
<g id="Leaf">
</g>
<g id="Glass">
</g>
<g id="Cup">
	<g>
		<g>
			<path d="M14.5,19c-4.486,0-8-8.126-8-18.5C6.5,0.224,6.724,0,7,0s0.5,0.224,0.5,0.5c0,9.486,3.206,17.5,7,17.5s7-8.014,7-17.5
				C21.5,0.224,21.724,0,22,0s0.5,0.224,0.5,0.5C22.5,10.874,18.986,19,14.5,19z"/>
		</g>
		<g>
			<path d="M19.5,30h-10C9.224,30,9,29.776,9,29.5v-1c0-1.378,1.122-2.5,2.5-2.5h6c1.378,0,2.5,1.122,2.5,2.5v1
				C20,29.776,19.776,30,19.5,30z M10,29h9v-0.5c0-0.827-0.673-1.5-1.5-1.5h-6c-0.827,0-1.5,0.673-1.5,1.5V29z"/>
		</g>
		<g>
			<path d="M14.5,27c-0.276,0-0.5-0.224-0.5-0.5v-8c0-0.276,0.224-0.5,0.5-0.5s0.5,0.224,0.5,0.5v8C15,26.776,14.776,27,14.5,27z"/>
		</g>
		<g>
			<path d="M23.5,1h-18C5.224,1,5,0.776,5,0.5S5.224,0,5.5,0h18C23.776,0,24,0.224,24,0.5S23.776,1,23.5,1z"/>
		</g>
		<g>
			<path d="M18.563,16.13c-0.276,0-0.5-0.224-0.5-0.5s0.224-0.5,0.5-0.5c4.377,0,7.938-3.594,7.938-8.011
				c0-1.289-1.038-2.337-2.313-2.337c-0.892,0-1.714,0.527-2.094,1.343c-0.116,0.25-0.413,0.359-0.664,0.242
				c-0.25-0.116-0.359-0.414-0.242-0.664c0.542-1.167,1.72-1.921,3-1.921c1.827,0,3.313,1.497,3.313,3.337
				C27.5,12.088,23.491,16.13,18.563,16.13z"/>
		</g>
		<g>
			<path d="M10.438,16.13C5.509,16.13,1.5,12.088,1.5,7.12c0-1.84,1.486-3.337,3.313-3.337c1.28,0,2.458,0.754,3,1.921
				c0.117,0.25,0.008,0.548-0.242,0.664C7.318,6.485,7.022,6.376,6.906,6.126C6.526,5.31,5.705,4.783,4.813,4.783
				C3.538,4.783,2.5,5.831,2.5,7.12c0,4.417,3.561,8.011,7.938,8.011c0.276,0,0.5,0.224,0.5,0.5S10.714,16.13,10.438,16.13z"/>
		</g>
	</g>
</g>
<g id="Mug">
</g>
<g id="Refresh">
</g>
<g id="Login">
</g>
<g id="Logout">
</g>
<g id="Flowchart">
</g>
<g id="Pin_1">
</g>
<g id="Pin_2">
</g>
<g id="User_1">
</g>
<g id="User_2">
</g>
<g id="Users">
</g>
<g id="Adjustments">
</g>
<g id="Type">
</g>
<g id="Format_Size">
</g>
<g id="Menu_1">
</g>
<g id="Other">
</g>
<g id="Flash">
</g>
<g id="No_Flash">
</g>
<g id="Switch_Button_1">
</g>
<g id="Switch_Button_2">
</g>
<g id="Cut">
</g>
<g id="Crop">
</g>
<g id="Sun">
</g>
<g id="USB">
</g>
<g id="Pie_Chart_1">
</g>
<g id="Pie_Chart_2">
</g>
<g id="Line_Chart">
</g>
<g id="Bar_Chart">
</g>
<g id="Target">
</g>
<g id="Flashlight">
</g>
<g id="USB_Device">
</g>
<g id="Eject">
</g>
<g id="Lightbulb">
</g>
<g id="Information">
</g>
<g id="Deactivate_Protection">
</g>
<g id="Active_Protection">
</g>
<g id="Bug">
</g>
<g id="Protection">
</g>
<g id="Phone">
</g>
<g id="List">
</g>
<g id="Plugin_1">
</g>
<g id="Bookmarrk">
</g>
<g id="Handshake">
</g>
<g id="Minimize">
</g>
<g id="Maximize">
</g>
<g id="Diamond">
</g>
<g id="Stop">
</g>
<g id="Shuffle">
</g>
<g id="Undo">
</g>
<g id="Upgrade">
</g>
<g id="Coding">
</g>
<g id="Syncronizaion">
</g>
<g id="Radio">
</g>
<g id="Presentation">
</g>
<g id="Door">
</g>
<g id="Thumbs_Up">
</g>
<g id="Thumbs_Down">
</g>
<g id="Keyboard">
</g>
<g id="_x33_D_Cube">
</g>
<g id="Signal">
</g>
<g id="Dice">
</g>
<g id="Upload">
</g>
<g id="Download">
</g>
<g id="Plugin_2">
</g>
<g id="Shopping_Bag">
</g>
<g id="Lifebelt">
</g>
<g id="Glasses">
</g>
<g id="Parabolic_Antenna">
</g>
<g id="Loudspeaker">
</g>
<g id="Play">
</g>
<g id="Pause">
</g>
<g id="Signpost">
</g>
<g id="Bluetooth">
</g>
<g id="Present">
</g>
<g id="Ruler">
</g>
<g id="Connection">
</g>
<g id="Money">
</g>
<g id="Paper_Plane">
</g>
<g id="Wallet_2">
</g>
</svg>
