<?xml version="1.0" encoding="iso-8859-1"?>
<!-- Generator: Adobe Illustrator 19.2.1, SVG Export Plug-In . SVG Version: 6.00 Build 0)  -->
<svg version="1.1" xmlns="http://www.w3.org/2000/svg" xmlns:xlink="http://www.w3.org/1999/xlink" x="0px" y="0px"
	 viewBox="0 0 30 30" style="enable-background:new 0 0 30 30;" xml:space="preserve">
<g id="Credit_Card">
</g>
<g id="Banknote">
</g>
<g id="Wallet">
</g>
<g id="Compass">
</g>
<g id="Camera_1">
</g>
<g id="Photo">
</g>
<g id="Picture">
</g>
<g id="Camera_2">
</g>
<g id="No_Camera">
</g>
<g id="Video">
</g>
<g id="Audio">
</g>
<g id="Microphone_1">
</g>
<g id="Microphone_2">
</g>
<g id="No_Microphone">
</g>
<g id="Shopping_Cart">
</g>
<g id="Add_Shopping_Cart">
</g>
<g id="Remove_Shopping_Cart">
</g>
<g id="Shopping_Basket">
</g>
<g id="Jing-Jang">
</g>
<g id="Leaf">
</g>
<g id="Glass">
</g>
<g id="Cup">
</g>
<g id="Mug">
</g>
<g id="Refresh">
</g>
<g id="Login">
</g>
<g id="Logout">
</g>
<g id="Flowchart">
</g>
<g id="Pin_1">
</g>
<g id="Pin_2">
</g>
<g id="User_1">
</g>
<g id="User_2">
</g>
<g id="Users">
</g>
<g id="Adjustments">
</g>
<g id="Type">
</g>
<g id="Format_Size">
</g>
<g id="Menu_1">
</g>
<g id="Other">
</g>
<g id="Flash">
</g>
<g id="No_Flash">
</g>
<g id="Switch_Button_1">
</g>
<g id="Switch_Button_2">
</g>
<g id="Cut">
</g>
<g id="Crop">
</g>
<g id="Sun">
</g>
<g id="USB">
</g>
<g id="Pie_Chart_1">
</g>
<g id="Pie_Chart_2">
</g>
<g id="Line_Chart">
</g>
<g id="Bar_Chart">
</g>
<g id="Target">
</g>
<g id="Flashlight">
</g>
<g id="USB_Device">
</g>
<g id="Eject">
</g>
<g id="Lightbulb">
</g>
<g id="Information">
</g>
<g id="Deactivate_Protection">
</g>
<g id="Active_Protection">
</g>
<g id="Bug">
</g>
<g id="Protection">
</g>
<g id="Phone">
</g>
<g id="List">
</g>
<g id="Plugin_1">
</g>
<g id="Bookmarrk">
</g>
<g id="Handshake">
</g>
<g id="Minimize">
</g>
<g id="Maximize">
</g>
<g id="Diamond">
	<g>
		<g>
			<path d="M14.5,29.5c-0.169,0-0.327-0.086-0.419-0.228l-14-21.5c-0.142-0.217-0.094-0.506,0.11-0.666l7.637-6
				C7.916,1.038,8.024,1,8.137,1h12.727c0.112,0,0.221,0.038,0.309,0.106l7.637,6c0.204,0.16,0.252,0.449,0.11,0.666l-14,21.5
				C14.827,29.414,14.669,29.5,14.5,29.5z M1.169,7.61L14.5,28.084L27.831,7.61L20.69,2H8.31L1.169,7.61z"/>
		</g>
		<g>
			<path d="M28.5,8h-28C0.224,8,0,7.776,0,7.5S0.224,7,0.5,7h28C28.776,7,29,7.224,29,7.5S28.776,8,28.5,8z"/>
		</g>
		<g>
			<path d="M14.5,28.863c-0.22,0-0.421-0.146-0.482-0.367L8.29,7.633C8.253,7.494,8.275,7.347,8.354,7.228l3.818-5.863
				c0.151-0.232,0.462-0.295,0.691-0.146c0.231,0.15,0.297,0.46,0.146,0.691L9.314,7.584l5.668,20.646
				c0.073,0.267-0.084,0.542-0.35,0.615C14.588,28.857,14.544,28.863,14.5,28.863z"/>
		</g>
		<g>
			<path d="M14.5,28.863c-0.044,0-0.088-0.006-0.133-0.018c-0.266-0.073-0.423-0.349-0.35-0.615l5.668-20.646L15.99,1.909
				c-0.15-0.231-0.085-0.541,0.146-0.691c0.23-0.149,0.541-0.086,0.691,0.146l3.818,5.863c0.078,0.119,0.101,0.267,0.063,0.405
				l-5.728,20.863C14.921,28.718,14.72,28.863,14.5,28.863z"/>
		</g>
	</g>
</g>
<g id="Stop">
</g>
<g id="Shuffle">
</g>
<g id="Undo">
</g>
<g id="Upgrade">
</g>
<g id="Coding">
</g>
<g id="Syncronizaion">
</g>
<g id="Radio">
</g>
<g id="Presentation">
</g>
<g id="Door">
</g>
<g id="Thumbs_Up">
</g>
<g id="Thumbs_Down">
</g>
<g id="Keyboard">
</g>
<g id="_x33_D_Cube">
</g>
<g id="Signal">
</g>
<g id="Dice">
</g>
<g id="Upload">
</g>
<g id="Download">
</g>
<g id="Plugin_2">
</g>
<g id="Shopping_Bag">
</g>
<g id="Lifebelt">
</g>
<g id="Glasses">
</g>
<g id="Parabolic_Antenna">
</g>
<g id="Loudspeaker">
</g>
<g id="Play">
</g>
<g id="Pause">
</g>
<g id="Signpost">
</g>
<g id="Bluetooth">
</g>
<g id="Present">
</g>
<g id="Ruler">
</g>
<g id="Connection">
</g>
<g id="Money">
</g>
<g id="Paper_Plane">
</g>
<g id="Wallet_2">
</g>
</svg>
