<?xml version="1.0" encoding="iso-8859-1"?>
<!-- Generator: Adobe Illustrator 19.2.1, SVG Export Plug-In . SVG Version: 6.00 Build 0)  -->
<svg version="1.1" xmlns="http://www.w3.org/2000/svg" xmlns:xlink="http://www.w3.org/1999/xlink" x="0px" y="0px"
	 viewBox="0 0 30 30" style="enable-background:new 0 0 30 30;" xml:space="preserve">
<g id="Credit_Card">
</g>
<g id="Banknote">
</g>
<g id="Wallet">
</g>
<g id="Compass">
</g>
<g id="Camera_1">
</g>
<g id="Photo">
</g>
<g id="Picture">
</g>
<g id="Camera_2">
</g>
<g id="No_Camera">
</g>
<g id="Video">
</g>
<g id="Audio">
</g>
<g id="Microphone_1">
</g>
<g id="Microphone_2">
</g>
<g id="No_Microphone">
</g>
<g id="Shopping_Cart">
</g>
<g id="Add_Shopping_Cart">
</g>
<g id="Remove_Shopping_Cart">
</g>
<g id="Shopping_Basket">
</g>
<g id="Jing-Jang">
</g>
<g id="Leaf">
</g>
<g id="Glass">
</g>
<g id="Cup">
</g>
<g id="Mug">
</g>
<g id="Refresh">
</g>
<g id="Login">
</g>
<g id="Logout">
</g>
<g id="Flowchart">
</g>
<g id="Pin_1">
</g>
<g id="Pin_2">
</g>
<g id="User_1">
</g>
<g id="User_2">
</g>
<g id="Users">
</g>
<g id="Adjustments">
</g>
<g id="Type">
</g>
<g id="Format_Size">
</g>
<g id="Menu_1">
</g>
<g id="Other">
</g>
<g id="Flash">
</g>
<g id="No_Flash">
</g>
<g id="Switch_Button_1">
</g>
<g id="Switch_Button_2">
</g>
<g id="Cut">
</g>
<g id="Crop">
</g>
<g id="Sun">
</g>
<g id="USB">
</g>
<g id="Pie_Chart_1">
</g>
<g id="Pie_Chart_2">
</g>
<g id="Line_Chart">
</g>
<g id="Bar_Chart">
</g>
<g id="Target">
</g>
<g id="Flashlight">
</g>
<g id="USB_Device">
</g>
<g id="Eject">
</g>
<g id="Lightbulb">
</g>
<g id="Information">
</g>
<g id="Deactivate_Protection">
</g>
<g id="Active_Protection">
</g>
<g id="Bug">
</g>
<g id="Protection">
</g>
<g id="Phone">
</g>
<g id="List">
</g>
<g id="Plugin_1">
</g>
<g id="Bookmarrk">
</g>
<g id="Handshake">
</g>
<g id="Minimize">
</g>
<g id="Maximize">
</g>
<g id="Diamond">
</g>
<g id="Stop">
</g>
<g id="Shuffle">
</g>
<g id="Undo">
</g>
<g id="Upgrade">
</g>
<g id="Coding">
</g>
<g id="Syncronizaion">
</g>
<g id="Radio">
</g>
<g id="Presentation">
</g>
<g id="Door">
</g>
<g id="Thumbs_Up">
</g>
<g id="Thumbs_Down">
</g>
<g id="Keyboard">
</g>
<g id="_x33_D_Cube">
</g>
<g id="Signal">
</g>
<g id="Dice">
	<g>
		<g>
			<path d="M14.5,30c-0.076,0-0.152-0.018-0.222-0.052l-14-6.935C0.108,22.929,0,22.756,0,22.565V6.805
				C0,6.608,0.115,6.43,0.295,6.349l14-6.305c0.13-0.059,0.28-0.059,0.41,0l14,6.305C28.885,6.43,29,6.608,29,6.805v15.761
				c0,0.19-0.108,0.363-0.278,0.448l-14,6.935C14.652,29.982,14.576,30,14.5,30z M1,22.255l13.5,6.688L28,22.255V7.128L14.5,1.049
				L1,7.128V22.255z"/>
		</g>
		<g>
			<path d="M14.5,13.5c-0.069,0-0.138-0.015-0.202-0.043l-14-6.195C0.045,7.15-0.069,6.854,0.043,6.603s0.409-0.366,0.659-0.255
				l13.796,6.104l13.536-6.104c0.253-0.115,0.548-0.002,0.661,0.251c0.114,0.251,0.001,0.548-0.25,0.661l-13.739,6.195
				C14.64,13.485,14.57,13.5,14.5,13.5z"/>
		</g>
		<g>
			<path d="M14.37,7.935c-1.02,0-1.761-0.476-1.761-1.13c0-0.655,0.741-1.131,1.761-1.131s1.761,0.476,1.761,1.131
				C16.13,7.459,15.39,7.935,14.37,7.935z M13.706,6.805c0.127,0.062,0.352,0.13,0.664,0.13s0.537-0.068,0.664-0.13
				c-0.127-0.063-0.351-0.131-0.664-0.131S13.833,6.742,13.706,6.805z"/>
		</g>
		<g>
			<path d="M11.217,17.392c-0.655,0-1.13-0.74-1.13-1.761s0.476-1.762,1.13-1.762s1.13,0.741,1.13,1.762
				S11.872,17.392,11.217,17.392z M11.296,16.412h0.01H11.296z M11.217,14.966c-0.062,0.127-0.13,0.352-0.13,0.665
				c0,0.313,0.068,0.537,0.13,0.664c0.062-0.127,0.13-0.352,0.13-0.664C11.348,15.317,11.279,15.093,11.217,14.966z"/>
		</g>
		<g>
			<path d="M7.435,19.626c-0.655,0-1.13-0.74-1.13-1.761s0.476-1.761,1.13-1.761c0.655,0,1.131,0.74,1.131,1.761
				S8.09,19.626,7.435,19.626z M7.513,18.646h0.01H7.513z M7.435,17.201c-0.062,0.127-0.13,0.351-0.13,0.664s0.069,0.537,0.13,0.664
				c0.062-0.127,0.131-0.351,0.131-0.664S7.497,17.328,7.435,17.201z"/>
		</g>
		<g>
			<path d="M3.652,21.805c-0.655,0-1.13-0.74-1.13-1.761s0.476-1.762,1.13-1.762s1.13,0.741,1.13,1.762S4.307,21.805,3.652,21.805z
				 M3.731,20.825h0.01H3.731z M3.652,19.379c-0.062,0.127-0.13,0.352-0.13,0.665c0,0.313,0.068,0.537,0.13,0.664
				c0.062-0.127,0.13-0.352,0.13-0.664C3.783,19.73,3.714,19.506,3.652,19.379z"/>
		</g>
		<g>
			<path d="M18.152,18.021c-0.655,0-1.13-0.74-1.13-1.761s0.476-1.761,1.13-1.761s1.13,0.74,1.13,1.761S18.807,18.021,18.152,18.021
				z M18.231,17.042h0.01H18.231z M18.152,15.597c-0.062,0.127-0.13,0.352-0.13,0.664s0.068,0.537,0.13,0.664
				c0.062-0.127,0.13-0.352,0.13-0.664S18.214,15.724,18.152,15.597z"/>
		</g>
		<g>
			<path d="M24.457,21.174c-0.655,0-1.13-0.74-1.13-1.761s0.476-1.761,1.13-1.761s1.13,0.74,1.13,1.761S25.111,21.174,24.457,21.174
				z M24.535,20.194h0.01H24.535z M24.457,18.749c-0.062,0.127-0.13,0.352-0.13,0.664s0.068,0.537,0.13,0.664
				c0.062-0.127,0.13-0.352,0.13-0.664S24.519,18.876,24.457,18.749z"/>
		</g>
		<g>
			<path d="M14.5,30c-0.276,0-0.5-0.224-0.5-0.5V13c0-0.276,0.224-0.5,0.5-0.5S15,12.724,15,13v16.5C15,29.776,14.776,30,14.5,30z"
				/>
		</g>
	</g>
</g>
<g id="Upload">
</g>
<g id="Download">
</g>
<g id="Plugin_2">
</g>
<g id="Shopping_Bag">
</g>
<g id="Lifebelt">
</g>
<g id="Glasses">
</g>
<g id="Parabolic_Antenna">
</g>
<g id="Loudspeaker">
</g>
<g id="Play">
</g>
<g id="Pause">
</g>
<g id="Signpost">
</g>
<g id="Bluetooth">
</g>
<g id="Present">
</g>
<g id="Ruler">
</g>
<g id="Connection">
</g>
<g id="Money">
</g>
<g id="Paper_Plane">
</g>
<g id="Wallet_2">
</g>
</svg>
