<?xml version="1.0" encoding="iso-8859-1"?>
<!-- Generator: Adobe Illustrator 19.2.1, SVG Export Plug-In . SVG Version: 6.00 Build 0)  -->
<svg version="1.1" xmlns="http://www.w3.org/2000/svg" xmlns:xlink="http://www.w3.org/1999/xlink" x="0px" y="0px"
	 viewBox="0 0 30 30" style="enable-background:new 0 0 30 30;" xml:space="preserve">
<g id="Mail">
</g>
<g id="Open_Mail">
</g>
<g id="Mail_Attachmet">
</g>
<g id="Mails">
</g>
<g id="Trash">
</g>
<g id="Trash_Full">
</g>
<g id="Preferences_1">
</g>
<g id="Preferences_2">
</g>
<g id="Mouse">
</g>
<g id="Computer">
</g>
<g id="Notebook">
</g>
<g id="Mobile_Phone">
</g>
<g id="Print">
</g>
<g id="Calculator">
</g>
<g id="Tag">
</g>
<g id="Paperclip">
</g>
<g id="Heart">
</g>
<g id="Lock">
</g>
<g id="Lock_Open">
</g>
<g id="Key_1">
</g>
<g id="Star">
</g>
<g id="Add">
</g>
<g id="Remove">
</g>
<g id="Error">
</g>
<g id="Check_1">
</g>
<g id="Time">
</g>
<g id="Question_Mark">
</g>
<g id="Error_Mark">
</g>
<g id="Sand-Glass">
</g>
<g id="Battery_Full">
</g>
<g id="Battery_Charge">
</g>
<g id="Battery_Half">
</g>
<g id="Battery_Low">
</g>
<g id="No_Battery">
</g>
<g id="Key_2">
</g>
<g id="Link">
</g>
<g id="Brake_Link">
</g>
<g id="Pencil">
</g>
<g id="At">
</g>
<g id="Reply">
</g>
<g id="Accessible">
</g>
<g id="Up_Arrow">
</g>
<g id="Brush">
</g>
<g id="Design_Mug">
</g>
<g id="Design">
</g>
<g id="Server">
</g>
<g id="Database">
</g>
<g id="Save">
</g>
<g id="Female">
</g>
<g id="Male">
</g>
<g id="Book">
</g>
<g id="Power">
</g>
<g id="Reload">
</g>
<g id="Map">
</g>
<g id="Loction_1">
</g>
<g id="Location_2">
</g>
<g id="Globe">
</g>
<g id="Suitcase">
</g>
<g id="Callendar">
</g>
<g id="Cloud_Off">
</g>
<g id="File_1">
</g>
<g id="File_2">
</g>
<g id="Folder">
</g>
<g id="Open_Folder">
</g>
<g id="Cloud">
</g>
<g id="Upload_Cloud">
</g>
<g id="Download_Cloud">
</g>
<g id="Eye">
</g>
<g id="Invisible">
</g>
<g id="Assignment">
</g>
<g id="Note_Book">
</g>
<g id="Webpage">
</g>
<g id="Mailbox">
</g>
<g id="Drive">
</g>
<g id="Disc">
</g>
<g id="Wifi_1">
</g>
<g id="Wifi_2">
</g>
<g id="Archive">
</g>
<g id="Archive_File">
</g>
<g id="News">
</g>
<g id="Home">
</g>
<g id="Collaboration">
</g>
<g id="Announcement">
</g>
<g id="Watch">
</g>
<g id="Clock">
</g>
<g id="Volume">
</g>
<g id="Mute">
</g>
<g id="Hand">
	<g>
		<g>
			<path d="M4.282,20.023H0.5c-0.276,0-0.5-0.224-0.5-0.5V8.176c0-0.138,0.057-0.27,0.157-0.364c0.1-0.094,0.241-0.147,0.372-0.135
				c0.917,0.055,5.542,0.377,6.619,1.396c0.11,0.105,0.168,0.255,0.154,0.407c-0.285,3.263-2.453,9.917-2.545,10.198
				C4.69,19.885,4.498,20.023,4.282,20.023z M1,19.023h2.918c0.438-1.377,2.039-6.537,2.36-9.352C5.448,9.213,2.928,8.857,1,8.711
				V19.023z"/>
		</g>
		<g>
			<path d="M16.76,22.502c-0.81,0-1.528-0.228-2.567-0.62l-9.438-3.145c-0.262-0.088-0.403-0.371-0.316-0.633
				c0.089-0.262,0.373-0.402,0.633-0.316l9.456,3.151c2.323,0.879,2.623,0.894,7.849-1.249l6.404-2.911
				c-0.715-0.974-1.951-1.437-3.155-1.131l-4.83,1.208c-0.268,0.063-0.54-0.096-0.606-0.364c-0.066-0.268,0.096-0.539,0.364-0.606
				l4.83-1.208c1.835-0.456,3.717,0.403,4.564,2.101c0.061,0.122,0.069,0.263,0.024,0.391c-0.046,0.128-0.142,0.232-0.265,0.288
				l-6.935,3.151C19.507,21.948,18.023,22.502,16.76,22.502z"/>
		</g>
		<g>
			<path d="M18.057,17.407c-0.281,0-0.562-0.027-0.836-0.082L11.75,16.23c-0.271-0.054-0.447-0.317-0.393-0.588
				c0.055-0.272,0.328-0.446,0.588-0.393l5.471,1.095c0.474,0.095,0.97,0.083,1.44-0.035l1.313-0.328
				c-0.052-1.279-0.648-1.905-2.139-2.277L6.696,11.186c-0.27-0.061-0.439-0.327-0.38-0.597c0.06-0.269,0.327-0.438,0.597-0.38
				l11.348,2.521c2.019,0.505,2.913,1.565,2.913,3.441v0.199c0,0.229-0.156,0.43-0.379,0.485l-1.696,0.424
				C18.759,17.365,18.408,17.407,18.057,17.407z"/>
		</g>
		<g>
			<path d="M29.5,17.502c-0.183,0-0.359-0.102-0.447-0.276c-0.637-1.274-2.05-1.923-3.428-1.577l-4.828,1.207
				c-0.001,0-0.001,0.001-0.002,0.001l-1.696,0.424c-0.611,0.154-1.261,0.169-1.878,0.045L11.75,16.23
				c-0.271-0.054-0.447-0.317-0.393-0.588c0.055-0.272,0.328-0.446,0.588-0.393l5.471,1.095c0.474,0.095,0.97,0.083,1.44-0.035
				l1.359-0.34c0.123-0.273,0.533-0.374,0.767-0.191l4.4-1.101c1.835-0.456,3.717,0.403,4.564,2.101
				c0.123,0.247,0.023,0.548-0.224,0.671C29.651,17.485,29.575,17.502,29.5,17.502z"/>
		</g>
	</g>
</g>
<g id="Layers">
</g>
<g id="Bell">
</g>
<g id="Speach_Bubble">
</g>
<g id="Speach_Bubbles">
</g>
<g id="Zoom_In">
</g>
<g id="Zoom_Out">
</g>
<g id="Search">
</g>
<g id="Back_Arrow">
</g>
<g id="Close">
</g>
<g id="Check_2">
</g>
<g id="Left_Arrow_2">
</g>
<g id="Right_Arrow_2">
</g>
</svg>
