<?xml version="1.0" encoding="iso-8859-1"?>
<!-- Generator: Adobe Illustrator 19.2.1, SVG Export Plug-In . SVG Version: 6.00 Build 0)  -->
<svg version="1.1" xmlns="http://www.w3.org/2000/svg" xmlns:xlink="http://www.w3.org/1999/xlink" x="0px" y="0px"
	 viewBox="0 0 30 30" style="enable-background:new 0 0 30 30;" xml:space="preserve">
<g id="Credit_Card">
</g>
<g id="Banknote">
</g>
<g id="Wallet">
</g>
<g id="Compass">
</g>
<g id="Camera_1">
</g>
<g id="Photo">
</g>
<g id="Picture">
</g>
<g id="Camera_2">
</g>
<g id="No_Camera">
</g>
<g id="Video">
</g>
<g id="Audio">
</g>
<g id="Microphone_1">
</g>
<g id="Microphone_2">
</g>
<g id="No_Microphone">
</g>
<g id="Shopping_Cart">
</g>
<g id="Add_Shopping_Cart">
</g>
<g id="Remove_Shopping_Cart">
</g>
<g id="Shopping_Basket">
</g>
<g id="Jing-Jang">
</g>
<g id="Leaf">
</g>
<g id="Glass">
</g>
<g id="Cup">
</g>
<g id="Mug">
</g>
<g id="Refresh">
</g>
<g id="Login">
</g>
<g id="Logout">
</g>
<g id="Flowchart">
</g>
<g id="Pin_1">
</g>
<g id="Pin_2">
</g>
<g id="User_1">
</g>
<g id="User_2">
</g>
<g id="Users">
</g>
<g id="Adjustments">
</g>
<g id="Type">
</g>
<g id="Format_Size">
</g>
<g id="Menu_1">
</g>
<g id="Other">
</g>
<g id="Flash">
</g>
<g id="No_Flash">
</g>
<g id="Switch_Button_1">
</g>
<g id="Switch_Button_2">
</g>
<g id="Cut">
</g>
<g id="Crop">
</g>
<g id="Sun">
</g>
<g id="USB">
</g>
<g id="Pie_Chart_1">
</g>
<g id="Pie_Chart_2">
</g>
<g id="Line_Chart">
</g>
<g id="Bar_Chart">
</g>
<g id="Target">
</g>
<g id="Flashlight">
</g>
<g id="USB_Device">
</g>
<g id="Eject">
</g>
<g id="Lightbulb">
</g>
<g id="Information">
</g>
<g id="Deactivate_Protection">
</g>
<g id="Active_Protection">
</g>
<g id="Bug">
</g>
<g id="Protection">
</g>
<g id="Phone">
</g>
<g id="List">
</g>
<g id="Plugin_1">
</g>
<g id="Bookmarrk">
</g>
<g id="Handshake">
</g>
<g id="Minimize">
</g>
<g id="Maximize">
</g>
<g id="Diamond">
</g>
<g id="Stop">
</g>
<g id="Shuffle">
</g>
<g id="Undo">
</g>
<g id="Upgrade">
</g>
<g id="Coding">
</g>
<g id="Syncronizaion">
</g>
<g id="Radio">
</g>
<g id="Presentation">
</g>
<g id="Door">
</g>
<g id="Thumbs_Up">
</g>
<g id="Thumbs_Down">
</g>
<g id="Keyboard">
	<g>
		<g>
			<path d="M26.979,30H3.021C1.355,30,0,28.645,0,26.979V14.021C0,12.355,1.355,11,3.021,11h23.957C28.645,11,30,12.355,30,14.021
				v12.957C30,28.645,28.645,30,26.979,30z M3.021,12C1.907,12,1,12.907,1,14.021v12.957C1,28.093,1.907,29,3.021,29h23.957
				C28.093,29,29,28.093,29,26.979V14.021C29,12.907,28.093,12,26.979,12H3.021z"/>
		</g>
		<g>
			<path d="M11.5,12c-0.276,0-0.5-0.224-0.5-0.5c0-2.102,1.845-2.682,3.191-3.104C15.421,8.009,16,7.765,16,7.192
				c0-0.746-0.636-1.069-1.682-1.513c-0.952-0.404-2.138-0.907-2.067-2.206c0.015-0.275,0.258-0.494,0.525-0.473
				c0.276,0.015,0.487,0.25,0.473,0.525c-0.028,0.541,0.446,0.803,1.46,1.232C15.729,5.192,17,5.73,17,7.192
				c0,1.369-1.333,1.788-2.509,2.157C12.941,9.837,12,10.225,12,11.5C12,11.776,11.776,12,11.5,12z"/>
		</g>
		<g>
			<path d="M7.5,17h-3C4.224,17,4,16.776,4,16.5v-2C4,14.224,4.224,14,4.5,14S5,14.224,5,14.5V16h2.5C7.776,16,8,16.224,8,16.5
				S7.776,17,7.5,17z"/>
		</g>
		<g>
			<path d="M13.5,17h-3c-0.276,0-0.5-0.224-0.5-0.5v-2c0-0.276,0.224-0.5,0.5-0.5s0.5,0.224,0.5,0.5V16h2.5
				c0.276,0,0.5,0.224,0.5,0.5S13.776,17,13.5,17z"/>
		</g>
		<g>
			<path d="M19.5,17h-3c-0.276,0-0.5-0.224-0.5-0.5v-2c0-0.276,0.224-0.5,0.5-0.5s0.5,0.224,0.5,0.5V16h2.5
				c0.276,0,0.5,0.224,0.5,0.5S19.776,17,19.5,17z"/>
		</g>
		<g>
			<path d="M7.5,22h-3C4.224,22,4,21.776,4,21.5v-2C4,19.224,4.224,19,4.5,19S5,19.224,5,19.5V21h2.5C7.776,21,8,21.224,8,21.5
				S7.776,22,7.5,22z"/>
		</g>
		<g>
			<path d="M13.5,22h-3c-0.276,0-0.5-0.224-0.5-0.5v-2c0-0.276,0.224-0.5,0.5-0.5s0.5,0.224,0.5,0.5V21h2.5
				c0.276,0,0.5,0.224,0.5,0.5S13.776,22,13.5,22z"/>
		</g>
		<g>
			<path d="M19.5,22h-3c-0.276,0-0.5-0.224-0.5-0.5v-2c0-0.276,0.224-0.5,0.5-0.5s0.5,0.224,0.5,0.5V21h2.5
				c0.276,0,0.5,0.224,0.5,0.5S19.776,22,19.5,22z"/>
		</g>
		<g>
			<path d="M26.5,17h-3c-0.276,0-0.5-0.224-0.5-0.5v-2c0-0.276,0.224-0.5,0.5-0.5s0.5,0.224,0.5,0.5V16h2.5
				c0.276,0,0.5,0.224,0.5,0.5S26.776,17,26.5,17z"/>
		</g>
		<g>
			<path d="M26.5,22h-3c-0.276,0-0.5-0.224-0.5-0.5v-2c0-0.276,0.224-0.5,0.5-0.5s0.5,0.224,0.5,0.5V21h2.5
				c0.276,0,0.5,0.224,0.5,0.5S26.776,22,26.5,22z"/>
		</g>
		<g>
			<path d="M8.5,27h-3C5.224,27,5,26.776,5,26.5v-2C5,24.224,5.224,24,5.5,24S6,24.224,6,24.5V26h2.5C8.776,26,9,26.224,9,26.5
				S8.776,27,8.5,27z"/>
		</g>
		<g>
			<path d="M18.5,27h-7c-0.276,0-0.5-0.224-0.5-0.5v-2c0-0.276,0.224-0.5,0.5-0.5s0.5,0.224,0.5,0.5V26h6.5
				c0.276,0,0.5,0.224,0.5,0.5S18.776,27,18.5,27z"/>
		</g>
		<g>
			<path d="M24.5,27h-3c-0.276,0-0.5-0.224-0.5-0.5v-2c0-0.276,0.224-0.5,0.5-0.5s0.5,0.224,0.5,0.5V26h2.5
				c0.276,0,0.5,0.224,0.5,0.5S24.776,27,24.5,27z"/>
		</g>
	</g>
</g>
<g id="_x33_D_Cube">
</g>
<g id="Signal">
</g>
<g id="Dice">
</g>
<g id="Upload">
</g>
<g id="Download">
</g>
<g id="Plugin_2">
</g>
<g id="Shopping_Bag">
</g>
<g id="Lifebelt">
</g>
<g id="Glasses">
</g>
<g id="Parabolic_Antenna">
</g>
<g id="Loudspeaker">
</g>
<g id="Play">
</g>
<g id="Pause">
</g>
<g id="Signpost">
</g>
<g id="Bluetooth">
</g>
<g id="Present">
</g>
<g id="Ruler">
</g>
<g id="Connection">
</g>
<g id="Money">
</g>
<g id="Paper_Plane">
</g>
<g id="Wallet_2">
</g>
</svg>
