<?xml version="1.0" encoding="iso-8859-1"?>
<!-- Generator: Adobe Illustrator 19.2.1, SVG Export Plug-In . SVG Version: 6.00 Build 0)  -->
<svg version="1.1" xmlns="http://www.w3.org/2000/svg" xmlns:xlink="http://www.w3.org/1999/xlink" x="0px" y="0px"
	 viewBox="0 0 30 30" style="enable-background:new 0 0 30 30;" xml:space="preserve">
<g id="Mail">
</g>
<g id="Open_Mail">
</g>
<g id="Mail_Attachmet">
</g>
<g id="Mails">
</g>
<g id="Trash">
</g>
<g id="Trash_Full">
</g>
<g id="Preferences_1">
</g>
<g id="Preferences_2">
</g>
<g id="Mouse">
</g>
<g id="Computer">
</g>
<g id="Notebook">
</g>
<g id="Mobile_Phone">
</g>
<g id="Print">
</g>
<g id="Calculator">
</g>
<g id="Tag">
</g>
<g id="Paperclip">
</g>
<g id="Heart">
</g>
<g id="Lock">
</g>
<g id="Lock_Open">
</g>
<g id="Key_1">
</g>
<g id="Star">
</g>
<g id="Add">
</g>
<g id="Remove">
</g>
<g id="Error">
</g>
<g id="Check_1">
</g>
<g id="Time">
</g>
<g id="Question_Mark">
</g>
<g id="Error_Mark">
</g>
<g id="Sand-Glass">
</g>
<g id="Battery_Full">
</g>
<g id="Battery_Charge">
</g>
<g id="Battery_Half">
</g>
<g id="Battery_Low">
</g>
<g id="No_Battery">
</g>
<g id="Key_2">
</g>
<g id="Link">
</g>
<g id="Brake_Link">
</g>
<g id="Pencil">
</g>
<g id="At">
</g>
<g id="Reply">
</g>
<g id="Accessible">
</g>
<g id="Up_Arrow">
</g>
<g id="Brush">
</g>
<g id="Design_Mug">
</g>
<g id="Design">
</g>
<g id="Server">
</g>
<g id="Database">
</g>
<g id="Save">
</g>
<g id="Female">
</g>
<g id="Male">
</g>
<g id="Book">
</g>
<g id="Power">
</g>
<g id="Reload">
</g>
<g id="Map">
</g>
<g id="Loction_1">
</g>
<g id="Location_2">
</g>
<g id="Globe">
</g>
<g id="Suitcase">
</g>
<g id="Callendar">
</g>
<g id="Cloud_Off">
</g>
<g id="File_1">
</g>
<g id="File_2">
</g>
<g id="Folder">
</g>
<g id="Open_Folder">
</g>
<g id="Cloud">
</g>
<g id="Upload_Cloud">
</g>
<g id="Download_Cloud">
</g>
<g id="Eye">
</g>
<g id="Invisible">
</g>
<g id="Assignment">
</g>
<g id="Note_Book">
</g>
<g id="Webpage">
</g>
<g id="Mailbox">
</g>
<g id="Drive">
</g>
<g id="Disc">
</g>
<g id="Wifi_1">
</g>
<g id="Wifi_2">
</g>
<g id="Archive">
</g>
<g id="Archive_File">
</g>
<g id="News">
</g>
<g id="Home">
</g>
<g id="Collaboration">
</g>
<g id="Announcement">
</g>
<g id="Watch">
</g>
<g id="Clock">
</g>
<g id="Volume">
</g>
<g id="Mute">
</g>
<g id="Hand">
</g>
<g id="Layers">
	<g>
		<g>
			<path d="M15,18c-0.079,0-0.157-0.019-0.229-0.056l-14.5-7.5C0.104,10.358,0,10.187,0,10s0.104-0.358,0.271-0.444l14.5-7.5
				c0.145-0.074,0.314-0.074,0.459,0l14.5,7.5C29.896,9.642,30,9.813,30,10s-0.104,0.358-0.271,0.444l-14.5,7.5
				C15.157,17.981,15.079,18,15,18z M1.588,10L15,16.938L28.412,10L15,3.063L1.588,10z"/>
		</g>
		<g>
			<path d="M15,23c-0.079,0-0.159-0.019-0.231-0.057l-14.5-7.565C0.104,15.292,0,15.121,0,14.935s0.104-0.357,0.269-0.443l2.107-1.1
				c0.245-0.127,0.547-0.033,0.675,0.212s0.033,0.547-0.212,0.675l-1.258,0.656L15,21.936l13.419-7.001l-1.258-0.656
				c-0.245-0.128-0.34-0.43-0.212-0.675c0.128-0.244,0.431-0.338,0.675-0.212l2.107,1.1C29.896,14.577,30,14.748,30,14.935
				s-0.104,0.357-0.269,0.443l-14.5,7.565C15.159,22.981,15.079,23,15,23z"/>
		</g>
		<g>
			<path d="M15,28c-0.079,0-0.159-0.019-0.231-0.057l-14.5-7.565C0.104,20.292,0,20.121,0,19.935s0.104-0.357,0.269-0.443l2.107-1.1
				c0.245-0.125,0.547-0.033,0.675,0.212s0.033,0.547-0.212,0.675l-1.258,0.656L15,26.936l13.419-7.001l-1.258-0.656
				c-0.245-0.128-0.34-0.43-0.212-0.675s0.431-0.336,0.675-0.212l2.107,1.1C29.896,19.577,30,19.748,30,19.935
				s-0.104,0.357-0.269,0.443l-14.5,7.565C15.159,27.981,15.079,28,15,28z"/>
		</g>
	</g>
</g>
<g id="Bell">
</g>
<g id="Speach_Bubble">
</g>
<g id="Speach_Bubbles">
</g>
<g id="Zoom_In">
</g>
<g id="Zoom_Out">
</g>
<g id="Search">
</g>
<g id="Back_Arrow">
</g>
<g id="Close">
</g>
<g id="Check_2">
</g>
<g id="Left_Arrow_2">
</g>
<g id="Right_Arrow_2">
</g>
</svg>
