<?xml version="1.0" encoding="iso-8859-1"?>
<!-- Generator: Adobe Illustrator 19.2.1, SVG Export Plug-In . SVG Version: 6.00 Build 0)  -->
<svg version="1.1" xmlns="http://www.w3.org/2000/svg" xmlns:xlink="http://www.w3.org/1999/xlink" x="0px" y="0px"
	 viewBox="0 0 30 30" style="enable-background:new 0 0 30 30;" xml:space="preserve">
<g id="Mail">
</g>
<g id="Open_Mail">
</g>
<g id="Mail_Attachmet">
</g>
<g id="Mails">
</g>
<g id="Trash">
</g>
<g id="Trash_Full">
</g>
<g id="Preferences_1">
</g>
<g id="Preferences_2">
</g>
<g id="Mouse">
</g>
<g id="Computer">
</g>
<g id="Notebook">
</g>
<g id="Mobile_Phone">
</g>
<g id="Print">
</g>
<g id="Calculator">
</g>
<g id="Tag">
</g>
<g id="Paperclip">
</g>
<g id="Heart">
</g>
<g id="Lock">
</g>
<g id="Lock_Open">
</g>
<g id="Key_1">
</g>
<g id="Star">
</g>
<g id="Add">
</g>
<g id="Remove">
</g>
<g id="Error">
</g>
<g id="Check_1">
</g>
<g id="Time">
</g>
<g id="Question_Mark">
</g>
<g id="Error_Mark">
</g>
<g id="Sand-Glass">
</g>
<g id="Battery_Full">
</g>
<g id="Battery_Charge">
</g>
<g id="Battery_Half">
</g>
<g id="Battery_Low">
</g>
<g id="No_Battery">
</g>
<g id="Key_2">
</g>
<g id="Link">
	<g>
		<g>
			<path d="M21.119,14.858c-1.48,0-2.873-0.577-3.921-1.624l-0.433-0.433c-2.162-2.162-2.162-5.679,0-7.84l3.337-3.337
				C21.15,0.577,22.543,0,24.023,0s2.873,0.577,3.92,1.624l0.433,0.433c2.162,2.162,2.162,5.679,0,7.84l-3.337,3.337
				C23.992,14.281,22.6,14.858,21.119,14.858z M24.023,1c-1.214,0-2.355,0.473-3.214,1.331l-3.337,3.337
				c-0.858,0.858-1.331,2-1.331,3.213c0,1.214,0.473,2.355,1.331,3.213l0.433,0.433c0.858,0.858,2,1.331,3.214,1.331
				s2.354-0.473,3.213-1.331l3.337-3.337C28.527,8.332,29,7.19,29,5.977c0-1.214-0.473-2.355-1.331-3.213l-0.433-0.433l0,0
				C26.378,1.473,25.237,1,24.023,1z"/>
		</g>
		<g>
			<path d="M5.977,30c-1.48,0-2.873-0.577-3.92-1.624l-0.433-0.433c-2.162-2.162-2.162-5.679,0-7.84l3.337-3.337
				c1.047-1.047,2.439-1.624,3.92-1.624s2.873,0.577,3.921,1.624l0,0l0.433,0.433c2.162,2.162,2.162,5.679,0,7.84l-3.337,3.337
				C8.85,29.423,7.457,30,5.977,30z M8.881,16.142c-1.214,0-2.354,0.473-3.213,1.331L2.331,20.81C1.473,21.668,1,22.81,1,24.023
				c0,1.214,0.473,2.355,1.331,3.213l0.433,0.433C3.622,28.527,4.763,29,5.977,29s2.355-0.473,3.214-1.331l3.337-3.337
				c0.858-0.858,1.331-2,1.331-3.213c0-1.214-0.473-2.355-1.331-3.213l-0.433-0.433C11.236,16.615,10.095,16.142,8.881,16.142z"/>
		</g>
		<g>
			<path d="M9.34,21.161c-0.127,0-0.255-0.048-0.352-0.145c-0.196-0.194-0.198-0.511-0.004-0.707L20.229,8.959
				c0.193-0.196,0.513-0.198,0.707-0.003c0.196,0.194,0.198,0.511,0.004,0.707L9.695,21.013C9.598,21.111,9.469,21.161,9.34,21.161z
				"/>
		</g>
	</g>
</g>
<g id="Brake_Link">
</g>
<g id="Pencil">
</g>
<g id="At">
</g>
<g id="Reply">
</g>
<g id="Accessible">
</g>
<g id="Up_Arrow">
</g>
<g id="Brush">
</g>
<g id="Design_Mug">
</g>
<g id="Design">
</g>
<g id="Server">
</g>
<g id="Database">
</g>
<g id="Save">
</g>
<g id="Female">
</g>
<g id="Male">
</g>
<g id="Book">
</g>
<g id="Power">
</g>
<g id="Reload">
</g>
<g id="Map">
</g>
<g id="Loction_1">
</g>
<g id="Location_2">
</g>
<g id="Globe">
</g>
<g id="Suitcase">
</g>
<g id="Callendar">
</g>
<g id="Cloud_Off">
</g>
<g id="File_1">
</g>
<g id="File_2">
</g>
<g id="Folder">
</g>
<g id="Open_Folder">
</g>
<g id="Cloud">
</g>
<g id="Upload_Cloud">
</g>
<g id="Download_Cloud">
</g>
<g id="Eye">
</g>
<g id="Invisible">
</g>
<g id="Assignment">
</g>
<g id="Note_Book">
</g>
<g id="Webpage">
</g>
<g id="Mailbox">
</g>
<g id="Drive">
</g>
<g id="Disc">
</g>
<g id="Wifi_1">
</g>
<g id="Wifi_2">
</g>
<g id="Archive">
</g>
<g id="Archive_File">
</g>
<g id="News">
</g>
<g id="Home">
</g>
<g id="Collaboration">
</g>
<g id="Announcement">
</g>
<g id="Watch">
</g>
<g id="Clock">
</g>
<g id="Volume">
</g>
<g id="Mute">
</g>
<g id="Hand">
</g>
<g id="Layers">
</g>
<g id="Bell">
</g>
<g id="Speach_Bubble">
</g>
<g id="Speach_Bubbles">
</g>
<g id="Zoom_In">
</g>
<g id="Zoom_Out">
</g>
<g id="Search">
</g>
<g id="Back_Arrow">
</g>
<g id="Close">
</g>
<g id="Check_2">
</g>
<g id="Left_Arrow_2">
</g>
<g id="Right_Arrow_2">
</g>
</svg>
