<?xml version="1.0" encoding="iso-8859-1"?>
<!-- Generator: Adobe Illustrator 19.2.1, SVG Export Plug-In . SVG Version: 6.00 Build 0)  -->
<svg version="1.1" xmlns="http://www.w3.org/2000/svg" xmlns:xlink="http://www.w3.org/1999/xlink" x="0px" y="0px"
	 viewBox="0 0 30 30" style="enable-background:new 0 0 30 30;" xml:space="preserve">
<g id="Mail">
</g>
<g id="Open_Mail">
</g>
<g id="Mail_Attachmet">
</g>
<g id="Mails">
	<g>
		<g>
			<path d="M23.5,26h-22C0.673,26,0,25.327,0,24.5v-13C0,10.673,0.673,10,1.5,10h22c0.827,0,1.5,0.673,1.5,1.5v13
				C25,25.327,24.327,26,23.5,26z M1.5,11C1.224,11,1,11.224,1,11.5v13C1,24.776,1.224,25,1.5,25h22c0.276,0,0.5-0.224,0.5-0.5v-13
				c0-0.276-0.224-0.5-0.5-0.5H1.5z"/>
		</g>
		<g>
			<path d="M28.24,21H24.5c-0.276,0-0.5-0.224-0.5-0.5s0.224-0.5,0.5-0.5h3.74c0.405,0,0.76-0.374,0.76-0.8V6.59
				C29,6.042,28.418,6,28.24,6H6.8C6.718,6,6,6.017,6,6.59V10c0,0.276-0.224,0.5-0.5,0.5S5,10.276,5,10V6.59C5,5.668,5.757,5,6.8,5
				h21.44C29.276,5,30,5.654,30,6.59V19.2C30,20.176,29.194,21,28.24,21z"/>
		</g>
		<g>
			<path d="M12.468,19.695c-0.583,0-1.161-0.17-1.666-0.506L0.521,11.178c-0.218-0.17-0.257-0.484-0.087-0.702
				c0.17-0.219,0.483-0.257,0.702-0.087l10.251,7.99c0.652,0.433,1.532,0.433,2.213-0.021l10.222-7.968
				c0.217-0.169,0.532-0.131,0.702,0.087c0.169,0.218,0.131,0.532-0.087,0.702l-10.251,7.99
				C13.656,19.52,13.06,19.695,12.468,19.695z"/>
		</g>
		<g>
			<path d="M0.827,25.585c-0.163,0-0.323-0.08-0.418-0.226c-0.151-0.231-0.087-0.541,0.144-0.692l9.964-6.538
				c0.231-0.152,0.542-0.087,0.692,0.144c0.151,0.231,0.087,0.541-0.144,0.692l-9.964,6.538C1.017,25.559,0.921,25.585,0.827,25.585
				z"/>
		</g>
		<g>
			<path d="M24.134,25.579c-0.094,0-0.189-0.026-0.273-0.082l-9.969-6.532c-0.231-0.151-0.295-0.461-0.145-0.692
				c0.152-0.23,0.461-0.294,0.692-0.145l9.969,6.532c0.231,0.151,0.295,0.461,0.145,0.692C24.457,25.5,24.297,25.579,24.134,25.579z
				"/>
		</g>
	</g>
</g>
<g id="Trash">
</g>
<g id="Trash_Full">
</g>
<g id="Preferences_1">
</g>
<g id="Preferences_2">
</g>
<g id="Mouse">
</g>
<g id="Computer">
</g>
<g id="Notebook">
</g>
<g id="Mobile_Phone">
</g>
<g id="Print">
</g>
<g id="Calculator">
</g>
<g id="Tag">
</g>
<g id="Paperclip">
</g>
<g id="Heart">
</g>
<g id="Lock">
</g>
<g id="Lock_Open">
</g>
<g id="Key_1">
</g>
<g id="Star">
</g>
<g id="Add">
</g>
<g id="Remove">
</g>
<g id="Error">
</g>
<g id="Check_1">
</g>
<g id="Time">
</g>
<g id="Question_Mark">
</g>
<g id="Error_Mark">
</g>
<g id="Sand-Glass">
</g>
<g id="Battery_Full">
</g>
<g id="Battery_Charge">
</g>
<g id="Battery_Half">
</g>
<g id="Battery_Low">
</g>
<g id="No_Battery">
</g>
<g id="Key_2">
</g>
<g id="Link">
</g>
<g id="Brake_Link">
</g>
<g id="Pencil">
</g>
<g id="At">
</g>
<g id="Reply">
</g>
<g id="Accessible">
</g>
<g id="Up_Arrow">
</g>
<g id="Brush">
</g>
<g id="Design_Mug">
</g>
<g id="Design">
</g>
<g id="Server">
</g>
<g id="Database">
</g>
<g id="Save">
</g>
<g id="Female">
</g>
<g id="Male">
</g>
<g id="Book">
</g>
<g id="Power">
</g>
<g id="Reload">
</g>
<g id="Map">
</g>
<g id="Loction_1">
</g>
<g id="Location_2">
</g>
<g id="Globe">
</g>
<g id="Suitcase">
</g>
<g id="Callendar">
</g>
<g id="Cloud_Off">
</g>
<g id="File_1">
</g>
<g id="File_2">
</g>
<g id="Folder">
</g>
<g id="Open_Folder">
</g>
<g id="Cloud">
</g>
<g id="Upload_Cloud">
</g>
<g id="Download_Cloud">
</g>
<g id="Eye">
</g>
<g id="Invisible">
</g>
<g id="Assignment">
</g>
<g id="Note_Book">
</g>
<g id="Webpage">
</g>
<g id="Mailbox">
</g>
<g id="Drive">
</g>
<g id="Disc">
</g>
<g id="Wifi_1">
</g>
<g id="Wifi_2">
</g>
<g id="Archive">
</g>
<g id="Archive_File">
</g>
<g id="News">
</g>
<g id="Home">
</g>
<g id="Collaboration">
</g>
<g id="Announcement">
</g>
<g id="Watch">
</g>
<g id="Clock">
</g>
<g id="Volume">
</g>
<g id="Mute">
</g>
<g id="Hand">
</g>
<g id="Layers">
</g>
<g id="Bell">
</g>
<g id="Speach_Bubble">
</g>
<g id="Speach_Bubbles">
</g>
<g id="Zoom_In">
</g>
<g id="Zoom_Out">
</g>
<g id="Search">
</g>
<g id="Back_Arrow">
</g>
<g id="Close">
</g>
<g id="Check_2">
</g>
<g id="Left_Arrow_2">
</g>
<g id="Right_Arrow_2">
</g>
</svg>
