<?xml version="1.0" encoding="iso-8859-1"?>
<!-- Generator: Adobe Illustrator 19.2.1, SVG Export Plug-In . SVG Version: 6.00 Build 0)  -->
<svg version="1.1" xmlns="http://www.w3.org/2000/svg" xmlns:xlink="http://www.w3.org/1999/xlink" x="0px" y="0px"
	 viewBox="0 0 30 30" style="enable-background:new 0 0 30 30;" xml:space="preserve">
<g id="Credit_Card">
</g>
<g id="Banknote">
</g>
<g id="Wallet">
</g>
<g id="Compass">
</g>
<g id="Camera_1">
</g>
<g id="Photo">
</g>
<g id="Picture">
</g>
<g id="Camera_2">
</g>
<g id="No_Camera">
</g>
<g id="Video">
</g>
<g id="Audio">
</g>
<g id="Microphone_1">
	<g>
		<g>
			<path d="M8,16c-4.411,0-8-3.589-8-8s3.589-8,8-8s8,3.589,8,8S12.411,16,8,16z M8,1C4.14,1,1,4.14,1,8s3.14,7,7,7s7-3.14,7-7
				S11.86,1,8,1z"/>
		</g>
		<g>
			<path d="M5.688,13.751c-1.487,0-2.94-0.408-4.203-1.181c-0.236-0.144-0.31-0.452-0.166-0.687
				c0.144-0.236,0.452-0.311,0.687-0.166c1.106,0.676,2.379,1.034,3.682,1.034c3.896,0,7.065-3.169,7.065-7.065
				c0-1.301-0.356-2.573-1.031-3.677c-0.144-0.236-0.069-0.543,0.166-0.688c0.237-0.144,0.543-0.069,0.688,0.166
				c0.771,1.261,1.178,2.713,1.178,4.198C13.754,10.133,10.136,13.751,5.688,13.751z"/>
		</g>
		<g>
			<path d="M27.322,30.004c-0.392,0-0.784-0.131-1.109-0.397l-16.241-14.1c-0.208-0.181-0.231-0.497-0.05-0.705
				c0.181-0.209,0.497-0.231,0.705-0.05l16.23,14.09c0.292,0.238,0.73,0.213,1.009-0.066l0.91-0.91
				c0.279-0.28,0.304-0.718,0.057-1.02L14.752,10.627c-0.181-0.208-0.159-0.524,0.05-0.705c0.208-0.181,0.524-0.159,0.705,0.05
				l14.09,16.23c0.583,0.711,0.53,1.726-0.114,2.372l-0.91,0.91C28.228,29.829,27.775,30.004,27.322,30.004z"/>
		</g>
		<g>
			<path d="M18.152,18.652c-0.128,0-0.256-0.049-0.354-0.146l-2.522-2.522c-0.195-0.195-0.195-0.512,0-0.707s0.512-0.195,0.707,0
				l2.522,2.522c0.195,0.195,0.195,0.512,0,0.707C18.408,18.604,18.28,18.652,18.152,18.652z"/>
		</g>
	</g>
</g>
<g id="Microphone_2">
</g>
<g id="No_Microphone">
</g>
<g id="Shopping_Cart">
</g>
<g id="Add_Shopping_Cart">
</g>
<g id="Remove_Shopping_Cart">
</g>
<g id="Shopping_Basket">
</g>
<g id="Jing-Jang">
</g>
<g id="Leaf">
</g>
<g id="Glass">
</g>
<g id="Cup">
</g>
<g id="Mug">
</g>
<g id="Refresh">
</g>
<g id="Login">
</g>
<g id="Logout">
</g>
<g id="Flowchart">
</g>
<g id="Pin_1">
</g>
<g id="Pin_2">
</g>
<g id="User_1">
</g>
<g id="User_2">
</g>
<g id="Users">
</g>
<g id="Adjustments">
</g>
<g id="Type">
</g>
<g id="Format_Size">
</g>
<g id="Menu_1">
</g>
<g id="Other">
</g>
<g id="Flash">
</g>
<g id="No_Flash">
</g>
<g id="Switch_Button_1">
</g>
<g id="Switch_Button_2">
</g>
<g id="Cut">
</g>
<g id="Crop">
</g>
<g id="Sun">
</g>
<g id="USB">
</g>
<g id="Pie_Chart_1">
</g>
<g id="Pie_Chart_2">
</g>
<g id="Line_Chart">
</g>
<g id="Bar_Chart">
</g>
<g id="Target">
</g>
<g id="Flashlight">
</g>
<g id="USB_Device">
</g>
<g id="Eject">
</g>
<g id="Lightbulb">
</g>
<g id="Information">
</g>
<g id="Deactivate_Protection">
</g>
<g id="Active_Protection">
</g>
<g id="Bug">
</g>
<g id="Protection">
</g>
<g id="Phone">
</g>
<g id="List">
</g>
<g id="Plugin_1">
</g>
<g id="Bookmarrk">
</g>
<g id="Handshake">
</g>
<g id="Minimize">
</g>
<g id="Maximize">
</g>
<g id="Diamond">
</g>
<g id="Stop">
</g>
<g id="Shuffle">
</g>
<g id="Undo">
</g>
<g id="Upgrade">
</g>
<g id="Coding">
</g>
<g id="Syncronizaion">
</g>
<g id="Radio">
</g>
<g id="Presentation">
</g>
<g id="Door">
</g>
<g id="Thumbs_Up">
</g>
<g id="Thumbs_Down">
</g>
<g id="Keyboard">
</g>
<g id="_x33_D_Cube">
</g>
<g id="Signal">
</g>
<g id="Dice">
</g>
<g id="Upload">
</g>
<g id="Download">
</g>
<g id="Plugin_2">
</g>
<g id="Shopping_Bag">
</g>
<g id="Lifebelt">
</g>
<g id="Glasses">
</g>
<g id="Parabolic_Antenna">
</g>
<g id="Loudspeaker">
</g>
<g id="Play">
</g>
<g id="Pause">
</g>
<g id="Signpost">
</g>
<g id="Bluetooth">
</g>
<g id="Present">
</g>
<g id="Ruler">
</g>
<g id="Connection">
</g>
<g id="Money">
</g>
<g id="Paper_Plane">
</g>
<g id="Wallet_2">
</g>
</svg>
