<?xml version="1.0" encoding="iso-8859-1"?>
<!-- Generator: Adobe Illustrator 19.2.1, SVG Export Plug-In . SVG Version: 6.00 Build 0)  -->
<svg version="1.1" xmlns="http://www.w3.org/2000/svg" xmlns:xlink="http://www.w3.org/1999/xlink" x="0px" y="0px"
	 viewBox="0 0 30 30" style="enable-background:new 0 0 30 30;" xml:space="preserve">
<g id="Flag">
</g>
<g id="Umbrella">
</g>
<g id="Briefcase">
</g>
<g id="Box">
</g>
<g id="Magnet">
</g>
<g id="Percent">
</g>
<g id="Rocket">
</g>
<g id="Share">
</g>
<g id="Transmitter">
</g>
<g id="Record_2">
</g>
<g id="Record_1">
</g>
<g id="Anchor">
</g>
<g id="Airplane">
</g>
<g id="Car">
</g>
<g id="Newsfeed">
	<g>
		<g>
			<path d="M29.5,30h-5.043c-0.276,0-0.5-0.224-0.5-0.5c0-12.934-10.522-23.457-23.457-23.457c-0.276,0-0.5-0.224-0.5-0.5V0.5
				C0,0.224,0.224,0,0.5,0C16.767,0,30,13.233,30,29.5C30,29.776,29.776,30,29.5,30z M24.952,29h4.044
				C28.731,13.681,16.319,1.269,1,1.004v4.044C14.089,5.313,24.688,15.911,24.952,29z"/>
		</g>
		<g>
			<path d="M19.413,30H14.37c-0.276,0-0.5-0.224-0.5-0.5c0-7.372-5.998-13.37-13.37-13.37c-0.276,0-0.5-0.224-0.5-0.5v-5.043
				c0-0.276,0.224-0.5,0.5-0.5c10.705,0,19.413,8.708,19.413,19.413C19.913,29.776,19.689,30,19.413,30z M14.87,29.5h0.01H14.87z
				 M14.861,29h4.045C18.645,19.244,10.756,11.355,1,11.094v4.045C8.527,15.397,14.603,21.473,14.861,29z"/>
		</g>
		<g>
			<path d="M4.5,30C2.019,30,0,27.981,0,25.5S2.019,21,4.5,21S9,23.019,9,25.5S6.981,30,4.5,30z M4.5,22C2.57,22,1,23.57,1,25.5
				S2.57,29,4.5,29S8,27.43,8,25.5S6.43,22,4.5,22z"/>
		</g>
	</g>
</g>
<g id="Wifi_Tethering">
</g>
<g id="No_Wifi_Tethering">
</g>
<g id="Bar_Chart_2">
</g>
<g id="Shop">
</g>
<g id="Alarm">
</g>
<g id="Sim_Card">
</g>
<g id="Radar">
</g>
<g id="Hand_2">
</g>
<g id="Palette">
</g>
<g id="Cake">
</g>
<g id="Blende">
</g>
<g id="Feather_Pen">
</g>
<g id="Ticket">
</g>
<g id="Medal">
</g>
<g id="Mouse_Pointer_1">
</g>
<g id="Mouse_Pointer_2">
</g>
<g id="Fingerprint">
</g>
<g id="Earth">
</g>
</svg>
