<?xml version="1.0" encoding="iso-8859-1"?>
<!-- Generator: Adobe Illustrator 19.2.1, SVG Export Plug-In . SVG Version: 6.00 Build 0)  -->
<svg version="1.1" xmlns="http://www.w3.org/2000/svg" xmlns:xlink="http://www.w3.org/1999/xlink" x="0px" y="0px"
	 viewBox="0 0 30 30" style="enable-background:new 0 0 30 30;" xml:space="preserve">
<g id="Credit_Card">
</g>
<g id="Banknote">
</g>
<g id="Wallet">
</g>
<g id="Compass">
</g>
<g id="Camera_1">
</g>
<g id="Photo">
</g>
<g id="Picture">
</g>
<g id="Camera_2">
</g>
<g id="No_Camera">
</g>
<g id="Video">
</g>
<g id="Audio">
</g>
<g id="Microphone_1">
</g>
<g id="Microphone_2">
</g>
<g id="No_Microphone">
	<g>
		<g>
			<path d="M19.5,30h-9c-0.276,0-0.5-0.224-0.5-0.5s0.224-0.5,0.5-0.5h9c0.276,0,0.5,0.224,0.5,0.5S19.776,30,19.5,30z"/>
		</g>
		<g>
			<path d="M9.54,18.44c-0.233,0-0.442-0.164-0.49-0.401C9.013,17.855,9,17.684,9,17.5v-14C9,1.57,10.57,0,12.5,0h4
				C18.43,0,20,1.57,20,3.5v3.74c0,0.276-0.224,0.5-0.5,0.5S19,7.517,19,7.24V3.5C19,2.122,17.878,1,16.5,1h-4
				C11.122,1,10,2.122,10,3.5v14c0,0.116,0.007,0.225,0.03,0.341c0.055,0.271-0.121,0.535-0.391,0.589
				C9.605,18.437,9.572,18.44,9.54,18.44z"/>
		</g>
		<g>
			<path d="M16.5,21h-4c-0.841,0-1.65-0.299-2.277-0.842c-0.209-0.181-0.231-0.497-0.051-0.705c0.181-0.209,0.498-0.231,0.705-0.051
				C11.323,19.788,11.899,20,12.5,20h4c1.378,0,2.5-1.122,2.5-2.5v-7.33c0-0.276,0.224-0.5,0.5-0.5s0.5,0.224,0.5,0.5v7.33
				C20,19.43,18.43,21,16.5,21z"/>
		</g>
		<g>
			<path d="M7,21.17c-0.185,0-0.362-0.103-0.449-0.279C6.19,20.158,6,19.331,6,18.5v-6C6,12.224,6.224,12,6.5,12S7,12.224,7,12.5v6
				c0,0.679,0.155,1.353,0.449,1.949c0.122,0.248,0.02,0.547-0.228,0.669C7.15,21.153,7.075,21.17,7,21.17z"/>
		</g>
		<g>
			<path d="M17.5,24h-6c-1.318,0-2.595-0.477-3.597-1.342c-0.209-0.181-0.232-0.497-0.052-0.705c0.182-0.21,0.497-0.232,0.705-0.052
				C9.377,22.61,10.422,23,11.5,23h6c2.481,0,4.5-2.019,4.5-4.5v-6c0-0.276,0.224-0.5,0.5-0.5s0.5,0.224,0.5,0.5v6
				C23,21.533,20.533,24,17.5,24z"/>
		</g>
		<g>
			<path d="M14.5,30c-0.276,0-0.5-0.224-0.5-0.5v-6c0-0.276,0.224-0.5,0.5-0.5s0.5,0.224,0.5,0.5v6C15,29.776,14.776,30,14.5,30z"/>
		</g>
		<g>
			<path d="M19.5,11h-0.31c-0.276,0-0.5-0.224-0.5-0.5s0.224-0.5,0.5-0.5h0.31c0.276,0,0.5,0.224,0.5,0.5S19.776,11,19.5,11z"/>
		</g>
		<g>
			<path d="M16.46,11H9.5C9.224,11,9,10.776,9,10.5S9.224,10,9.5,10h6.96c0.276,0,0.5,0.224,0.5,0.5S16.736,11,16.46,11z"/>
		</g>
		<g>
			<path d="M1.5,30c-0.122,0-0.244-0.044-0.341-0.134c-0.202-0.188-0.213-0.504-0.025-0.707l27-29
				c0.188-0.202,0.504-0.212,0.707-0.025c0.202,0.188,0.213,0.504,0.025,0.707l-27,29C1.768,29.946,1.634,30,1.5,30z"/>
		</g>
	</g>
</g>
<g id="Shopping_Cart">
</g>
<g id="Add_Shopping_Cart">
</g>
<g id="Remove_Shopping_Cart">
</g>
<g id="Shopping_Basket">
</g>
<g id="Jing-Jang">
</g>
<g id="Leaf">
</g>
<g id="Glass">
</g>
<g id="Cup">
</g>
<g id="Mug">
</g>
<g id="Refresh">
</g>
<g id="Login">
</g>
<g id="Logout">
</g>
<g id="Flowchart">
</g>
<g id="Pin_1">
</g>
<g id="Pin_2">
</g>
<g id="User_1">
</g>
<g id="User_2">
</g>
<g id="Users">
</g>
<g id="Adjustments">
</g>
<g id="Type">
</g>
<g id="Format_Size">
</g>
<g id="Menu_1">
</g>
<g id="Other">
</g>
<g id="Flash">
</g>
<g id="No_Flash">
</g>
<g id="Switch_Button_1">
</g>
<g id="Switch_Button_2">
</g>
<g id="Cut">
</g>
<g id="Crop">
</g>
<g id="Sun">
</g>
<g id="USB">
</g>
<g id="Pie_Chart_1">
</g>
<g id="Pie_Chart_2">
</g>
<g id="Line_Chart">
</g>
<g id="Bar_Chart">
</g>
<g id="Target">
</g>
<g id="Flashlight">
</g>
<g id="USB_Device">
</g>
<g id="Eject">
</g>
<g id="Lightbulb">
</g>
<g id="Information">
</g>
<g id="Deactivate_Protection">
</g>
<g id="Active_Protection">
</g>
<g id="Bug">
</g>
<g id="Protection">
</g>
<g id="Phone">
</g>
<g id="List">
</g>
<g id="Plugin_1">
</g>
<g id="Bookmarrk">
</g>
<g id="Handshake">
</g>
<g id="Minimize">
</g>
<g id="Maximize">
</g>
<g id="Diamond">
</g>
<g id="Stop">
</g>
<g id="Shuffle">
</g>
<g id="Undo">
</g>
<g id="Upgrade">
</g>
<g id="Coding">
</g>
<g id="Syncronizaion">
</g>
<g id="Radio">
</g>
<g id="Presentation">
</g>
<g id="Door">
</g>
<g id="Thumbs_Up">
</g>
<g id="Thumbs_Down">
</g>
<g id="Keyboard">
</g>
<g id="_x33_D_Cube">
</g>
<g id="Signal">
</g>
<g id="Dice">
</g>
<g id="Upload">
</g>
<g id="Download">
</g>
<g id="Plugin_2">
</g>
<g id="Shopping_Bag">
</g>
<g id="Lifebelt">
</g>
<g id="Glasses">
</g>
<g id="Parabolic_Antenna">
</g>
<g id="Loudspeaker">
</g>
<g id="Play">
</g>
<g id="Pause">
</g>
<g id="Signpost">
</g>
<g id="Bluetooth">
</g>
<g id="Present">
</g>
<g id="Ruler">
</g>
<g id="Connection">
</g>
<g id="Money">
</g>
<g id="Paper_Plane">
</g>
<g id="Wallet_2">
</g>
</svg>
