<?xml version="1.0" encoding="iso-8859-1"?>
<!-- Generator: Adobe Illustrator 19.2.1, SVG Export Plug-In . SVG Version: 6.00 Build 0)  -->
<svg version="1.1" xmlns="http://www.w3.org/2000/svg" xmlns:xlink="http://www.w3.org/1999/xlink" x="0px" y="0px"
	 viewBox="0 0 30 30" style="enable-background:new 0 0 30 30;" xml:space="preserve">
<g id="Flag">
</g>
<g id="Umbrella">
</g>
<g id="Briefcase">
</g>
<g id="Box">
</g>
<g id="Magnet">
</g>
<g id="Percent">
	<g>
		<g>
			<path d="M7,12c-2.206,0-4-1.794-4-4s1.794-4,4-4s4,1.794,4,4S9.206,12,7,12z M7,5C5.346,5,4,6.346,4,8s1.346,3,3,3s3-1.346,3-3
				S8.654,5,7,5z"/>
		</g>
		<g>
			<path d="M22,26c-2.206,0-4-1.794-4-4s1.794-4,4-4s4,1.794,4,4S24.206,26,22,26z M22,19c-1.654,0-3,1.346-3,3s1.346,3,3,3
				s3-1.346,3-3S23.654,19,22,19z"/>
		</g>
		<g>
			<path d="M3.5,30c-0.105,0-0.212-0.033-0.302-0.102c-0.221-0.167-0.264-0.48-0.097-0.701l22-29c0.168-0.221,0.482-0.262,0.7-0.096
				c0.221,0.167,0.264,0.48,0.097,0.701l-22,29C3.8,29.932,3.65,30,3.5,30z"/>
		</g>
	</g>
</g>
<g id="Rocket">
</g>
<g id="Share">
</g>
<g id="Transmitter">
</g>
<g id="Record_2">
</g>
<g id="Record_1">
</g>
<g id="Anchor">
</g>
<g id="Airplane">
</g>
<g id="Car">
</g>
<g id="Newsfeed">
</g>
<g id="Wifi_Tethering">
</g>
<g id="No_Wifi_Tethering">
</g>
<g id="Bar_Chart_2">
</g>
<g id="Shop">
</g>
<g id="Alarm">
</g>
<g id="Sim_Card">
</g>
<g id="Radar">
</g>
<g id="Hand_2">
</g>
<g id="Palette">
</g>
<g id="Cake">
</g>
<g id="Blende">
</g>
<g id="Feather_Pen">
</g>
<g id="Ticket">
</g>
<g id="Medal">
</g>
<g id="Mouse_Pointer_1">
</g>
<g id="Mouse_Pointer_2">
</g>
<g id="Fingerprint">
</g>
<g id="Earth">
</g>
</svg>
