<?xml version="1.0" encoding="iso-8859-1"?>
<!-- Generator: Adobe Illustrator 19.2.1, SVG Export Plug-In . SVG Version: 6.00 Build 0)  -->
<svg version="1.1" xmlns="http://www.w3.org/2000/svg" xmlns:xlink="http://www.w3.org/1999/xlink" x="0px" y="0px"
	 viewBox="0 0 30 30" style="enable-background:new 0 0 30 30;" xml:space="preserve">
<g id="Credit_Card">
</g>
<g id="Banknote">
</g>
<g id="Wallet">
</g>
<g id="Compass">
</g>
<g id="Camera_1">
</g>
<g id="Photo">
	<g>
		<g>
			<path d="M25.5,30h-22C2.121,30,1,28.878,1,27.5v-25C1,1.122,2.121,0,3.5,0h22C26.879,0,28,1.122,28,2.5v25
				C28,28.878,26.879,30,25.5,30z M3.5,1C2.673,1,2,1.673,2,2.5v25C2,28.327,2.673,29,3.5,29h22c0.827,0,1.5-0.673,1.5-1.5v-25
				C27,1.673,26.327,1,25.5,1H3.5z"/>
		</g>
		<g>
			<path d="M23.5,20h-18C5.224,20,5,19.776,5,19.5v-15C5,4.224,5.224,4,5.5,4h18C23.776,4,24,4.224,24,4.5v15
				C24,19.776,23.776,20,23.5,20z M6,19h17V5H6V19z"/>
		</g>
		<g>
			<path d="M17.5,15.7c-0.143,0-0.285-0.061-0.384-0.18L11.5,8.781l-5.616,6.739c-0.177,0.214-0.492,0.24-0.704,0.064
				c-0.212-0.177-0.24-0.492-0.063-0.705l6-7.2c0.189-0.228,0.578-0.228,0.768,0l6,7.2c0.177,0.212,0.148,0.528-0.063,0.705
				C17.727,15.662,17.613,15.7,17.5,15.7z"/>
		</g>
		<g>
			<path d="M23.5,17.5c-0.136,0-0.271-0.055-0.37-0.164l-5.647-6.212l-1.429,1.429c-0.195,0.195-0.512,0.195-0.707,0
				s-0.195-0.512,0-0.707l1.8-1.8C17.243,9.95,17.38,9.899,17.512,9.9c0.137,0.003,0.267,0.063,0.358,0.164l6,6.6
				c0.186,0.205,0.171,0.521-0.034,0.707C23.74,17.457,23.62,17.5,23.5,17.5z"/>
		</g>
	</g>
</g>
<g id="Picture">
</g>
<g id="Camera_2">
</g>
<g id="No_Camera">
</g>
<g id="Video">
</g>
<g id="Audio">
</g>
<g id="Microphone_1">
</g>
<g id="Microphone_2">
</g>
<g id="No_Microphone">
</g>
<g id="Shopping_Cart">
</g>
<g id="Add_Shopping_Cart">
</g>
<g id="Remove_Shopping_Cart">
</g>
<g id="Shopping_Basket">
</g>
<g id="Jing-Jang">
</g>
<g id="Leaf">
</g>
<g id="Glass">
</g>
<g id="Cup">
</g>
<g id="Mug">
</g>
<g id="Refresh">
</g>
<g id="Login">
</g>
<g id="Logout">
</g>
<g id="Flowchart">
</g>
<g id="Pin_1">
</g>
<g id="Pin_2">
</g>
<g id="User_1">
</g>
<g id="User_2">
</g>
<g id="Users">
</g>
<g id="Adjustments">
</g>
<g id="Type">
</g>
<g id="Format_Size">
</g>
<g id="Menu_1">
</g>
<g id="Other">
</g>
<g id="Flash">
</g>
<g id="No_Flash">
</g>
<g id="Switch_Button_1">
</g>
<g id="Switch_Button_2">
</g>
<g id="Cut">
</g>
<g id="Crop">
</g>
<g id="Sun">
</g>
<g id="USB">
</g>
<g id="Pie_Chart_1">
</g>
<g id="Pie_Chart_2">
</g>
<g id="Line_Chart">
</g>
<g id="Bar_Chart">
</g>
<g id="Target">
</g>
<g id="Flashlight">
</g>
<g id="USB_Device">
</g>
<g id="Eject">
</g>
<g id="Lightbulb">
</g>
<g id="Information">
</g>
<g id="Deactivate_Protection">
</g>
<g id="Active_Protection">
</g>
<g id="Bug">
</g>
<g id="Protection">
</g>
<g id="Phone">
</g>
<g id="List">
</g>
<g id="Plugin_1">
</g>
<g id="Bookmarrk">
</g>
<g id="Handshake">
</g>
<g id="Minimize">
</g>
<g id="Maximize">
</g>
<g id="Diamond">
</g>
<g id="Stop">
</g>
<g id="Shuffle">
</g>
<g id="Undo">
</g>
<g id="Upgrade">
</g>
<g id="Coding">
</g>
<g id="Syncronizaion">
</g>
<g id="Radio">
</g>
<g id="Presentation">
</g>
<g id="Door">
</g>
<g id="Thumbs_Up">
</g>
<g id="Thumbs_Down">
</g>
<g id="Keyboard">
</g>
<g id="_x33_D_Cube">
</g>
<g id="Signal">
</g>
<g id="Dice">
</g>
<g id="Upload">
</g>
<g id="Download">
</g>
<g id="Plugin_2">
</g>
<g id="Shopping_Bag">
</g>
<g id="Lifebelt">
</g>
<g id="Glasses">
</g>
<g id="Parabolic_Antenna">
</g>
<g id="Loudspeaker">
</g>
<g id="Play">
</g>
<g id="Pause">
</g>
<g id="Signpost">
</g>
<g id="Bluetooth">
</g>
<g id="Present">
</g>
<g id="Ruler">
</g>
<g id="Connection">
</g>
<g id="Money">
</g>
<g id="Paper_Plane">
</g>
<g id="Wallet_2">
</g>
</svg>
