<?xml version="1.0" encoding="iso-8859-1"?>
<!-- Generator: Adobe Illustrator 19.2.1, SVG Export Plug-In . SVG Version: 6.00 Build 0)  -->
<svg version="1.1" xmlns="http://www.w3.org/2000/svg" xmlns:xlink="http://www.w3.org/1999/xlink" x="0px" y="0px"
	 viewBox="0 0 30 30" style="enable-background:new 0 0 30 30;" xml:space="preserve">
<g id="Credit_Card">
</g>
<g id="Banknote">
</g>
<g id="Wallet">
</g>
<g id="Compass">
</g>
<g id="Camera_1">
</g>
<g id="Photo">
</g>
<g id="Picture">
</g>
<g id="Camera_2">
</g>
<g id="No_Camera">
</g>
<g id="Video">
</g>
<g id="Audio">
</g>
<g id="Microphone_1">
</g>
<g id="Microphone_2">
</g>
<g id="No_Microphone">
</g>
<g id="Shopping_Cart">
</g>
<g id="Add_Shopping_Cart">
</g>
<g id="Remove_Shopping_Cart">
</g>
<g id="Shopping_Basket">
</g>
<g id="Jing-Jang">
</g>
<g id="Leaf">
</g>
<g id="Glass">
</g>
<g id="Cup">
</g>
<g id="Mug">
</g>
<g id="Refresh">
</g>
<g id="Login">
</g>
<g id="Logout">
</g>
<g id="Flowchart">
</g>
<g id="Pin_1">
</g>
<g id="Pin_2">
</g>
<g id="User_1">
</g>
<g id="User_2">
</g>
<g id="Users">
</g>
<g id="Adjustments">
</g>
<g id="Type">
</g>
<g id="Format_Size">
</g>
<g id="Menu_1">
</g>
<g id="Other">
</g>
<g id="Flash">
</g>
<g id="No_Flash">
</g>
<g id="Switch_Button_1">
</g>
<g id="Switch_Button_2">
</g>
<g id="Cut">
</g>
<g id="Crop">
</g>
<g id="Sun">
</g>
<g id="USB">
</g>
<g id="Pie_Chart_1">
</g>
<g id="Pie_Chart_2">
</g>
<g id="Line_Chart">
</g>
<g id="Bar_Chart">
</g>
<g id="Target">
</g>
<g id="Flashlight">
</g>
<g id="USB_Device">
</g>
<g id="Eject">
</g>
<g id="Lightbulb">
</g>
<g id="Information">
</g>
<g id="Deactivate_Protection">
</g>
<g id="Active_Protection">
</g>
<g id="Bug">
</g>
<g id="Protection">
</g>
<g id="Phone">
</g>
<g id="List">
</g>
<g id="Plugin_1">
</g>
<g id="Bookmarrk">
</g>
<g id="Handshake">
</g>
<g id="Minimize">
</g>
<g id="Maximize">
</g>
<g id="Diamond">
</g>
<g id="Stop">
</g>
<g id="Shuffle">
</g>
<g id="Undo">
</g>
<g id="Upgrade">
</g>
<g id="Coding">
</g>
<g id="Syncronizaion">
</g>
<g id="Radio">
</g>
<g id="Presentation">
</g>
<g id="Door">
</g>
<g id="Thumbs_Up">
</g>
<g id="Thumbs_Down">
</g>
<g id="Keyboard">
</g>
<g id="_x33_D_Cube">
</g>
<g id="Signal">
</g>
<g id="Dice">
</g>
<g id="Upload">
</g>
<g id="Download">
</g>
<g id="Plugin_2">
	<g>
		<path d="M18.5,30h-6.022C11.962,30,11,29.612,11,28.87c0-0.891,0.813-1.427,1.062-1.571c1.104-0.641,1.818-1.757,1.818-2.843
			c0-0.992-0.439-1.92-1.206-2.547c-0.774-0.633-1.752-0.868-2.759-0.664c-1.153,0.233-2.135,1.157-2.445,2.298
			c-0.464,1.713,0.458,3.126,1.578,3.767C9.625,27.639,10,28.23,10,28.816C10,29.517,9.312,30,8.696,30H2.5
			C1.122,30,0,28.879,0,27.5v-16C0,10.121,1.122,9,2.5,9h6.196c0.04-0.006,0.13-0.115,0.13-0.217
			c0.001-0.367-0.152-0.658-0.362-0.779c-1.677-0.959-2.493-2.883-2.03-4.787c0.369-1.518,1.593-2.73,3.118-3.089
			c1.308-0.31,2.655-0.018,3.689,0.801c1.035,0.82,1.629,2.046,1.629,3.364c0,1.529-0.819,2.954-2.138,3.719
			c-0.219,0.127-0.384,0.439-0.384,0.728c0,0.146,0.09,0.255,0.131,0.261H18.5c1.378,0,2.5,1.121,2.5,2.5v6.021
			c0.006,0.04,0.114,0.131,0.217,0.131l0.143,0.001c0.264,0,0.509-0.139,0.637-0.362c0.965-1.688,2.898-2.499,4.816-2.024
			c1.519,0.381,2.725,1.616,3.073,3.146v0.001c0.294,1.296,0,2.619-0.806,3.63c-0.816,1.022-2.042,1.608-3.363,1.608
			c-1.507,0-2.927-0.836-3.707-2.181C21.849,21.194,21.581,21,21.357,21c-0.144,0.017-0.341,0.213-0.357,0.313l0,6.188
			C21,28.879,19.878,30,18.5,30z M10.601,20.176c0.985,0,1.938,0.332,2.706,0.959c1,0.817,1.573,2.027,1.573,3.321
			c0,1.742-1.197,3.058-2.316,3.708C12.242,28.351,12,28.631,12,28.816C12.036,28.867,12.323,29,12.478,29H18.5
			c0.827,0,1.5-0.673,1.5-1.5v-6.196C20,20.683,20.683,20,21.304,20c0.757,0,1.299,0.501,1.571,0.97
			c0.602,1.038,1.69,1.683,2.842,1.683c1.016,0,1.957-0.449,2.582-1.232c0.625-0.783,0.842-1.771,0.612-2.785
			c-0.265-1.167-1.184-2.108-2.34-2.397c-1.473-0.37-2.965,0.255-3.706,1.55c-0.306,0.534-0.884,0.866-1.508,0.866l-0.143-0.001
			c-0.645,0-1.214-0.528-1.214-1.131V11.5c0-0.827-0.673-1.5-1.5-1.5h-6.022c-0.602,0-1.13-0.569-1.13-1.218
			c0-0.69,0.355-1.33,0.883-1.636c1.011-0.586,1.639-1.68,1.639-2.854c0-1.011-0.456-1.951-1.25-2.58
			c-0.794-0.628-1.83-0.851-2.839-0.612C8.619,1.375,7.687,2.298,7.406,3.453C7.049,4.921,7.673,6.4,8.96,7.137
			c0.527,0.301,0.867,0.913,0.867,1.56C9.826,9.432,9.298,10,8.696,10H2.5C1.673,10,1,10.673,1,11.5v16C1,28.327,1.673,29,2.5,29
			h6.196c0.119,0,0.282-0.101,0.309-0.159C9,28.591,8.815,28.328,8.551,28.178c-1.748-1-2.57-2.968-2.046-4.896
			c0.413-1.521,1.673-2.705,3.211-3.017C10.011,20.205,10.308,20.176,10.601,20.176z"/>
	</g>
</g>
<g id="Shopping_Bag">
</g>
<g id="Lifebelt">
</g>
<g id="Glasses">
</g>
<g id="Parabolic_Antenna">
</g>
<g id="Loudspeaker">
</g>
<g id="Play">
</g>
<g id="Pause">
</g>
<g id="Signpost">
</g>
<g id="Bluetooth">
</g>
<g id="Present">
</g>
<g id="Ruler">
</g>
<g id="Connection">
</g>
<g id="Money">
</g>
<g id="Paper_Plane">
</g>
<g id="Wallet_2">
</g>
</svg>
