<?xml version="1.0" encoding="iso-8859-1"?>
<!-- Generator: Adobe Illustrator 19.2.1, SVG Export Plug-In . SVG Version: 6.00 Build 0)  -->
<svg version="1.1" xmlns="http://www.w3.org/2000/svg" xmlns:xlink="http://www.w3.org/1999/xlink" x="0px" y="0px"
	 viewBox="0 0 30 30" style="enable-background:new 0 0 30 30;" xml:space="preserve">
<g id="Mail">
</g>
<g id="Open_Mail">
</g>
<g id="Mail_Attachmet">
</g>
<g id="Mails">
</g>
<g id="Trash">
</g>
<g id="Trash_Full">
</g>
<g id="Preferences_1">
</g>
<g id="Preferences_2">
</g>
<g id="Mouse">
</g>
<g id="Computer">
</g>
<g id="Notebook">
</g>
<g id="Mobile_Phone">
</g>
<g id="Print">
</g>
<g id="Calculator">
</g>
<g id="Tag">
</g>
<g id="Paperclip">
</g>
<g id="Heart">
</g>
<g id="Lock">
</g>
<g id="Lock_Open">
</g>
<g id="Key_1">
</g>
<g id="Star">
</g>
<g id="Add">
</g>
<g id="Remove">
</g>
<g id="Error">
</g>
<g id="Check_1">
</g>
<g id="Time">
</g>
<g id="Question_Mark">
</g>
<g id="Error_Mark">
</g>
<g id="Sand-Glass">
</g>
<g id="Battery_Full">
</g>
<g id="Battery_Charge">
</g>
<g id="Battery_Half">
</g>
<g id="Battery_Low">
</g>
<g id="No_Battery">
</g>
<g id="Key_2">
</g>
<g id="Link">
</g>
<g id="Brake_Link">
</g>
<g id="Pencil">
</g>
<g id="At">
</g>
<g id="Reply">
</g>
<g id="Accessible">
</g>
<g id="Up_Arrow">
</g>
<g id="Brush">
</g>
<g id="Design_Mug">
</g>
<g id="Design">
</g>
<g id="Server">
</g>
<g id="Database">
</g>
<g id="Save">
</g>
<g id="Female">
</g>
<g id="Male">
</g>
<g id="Book">
</g>
<g id="Power">
	<g>
		<g>
			<path d="M14.5,17c-0.276,0-0.5-0.224-0.5-0.5v-16C14,0.224,14.224,0,14.5,0S15,0.224,15,0.5v16C15,16.776,14.776,17,14.5,17z"/>
		</g>
		<g>
			<path d="M14.5,30C7.607,30,2,24.393,2,17.5c0-4.58,2.495-8.787,6.51-10.979c0.243-0.135,0.546-0.044,0.679,0.199
				C9.321,6.963,9.232,7.267,8.99,7.398C5.295,9.415,3,13.285,3,17.5C3,23.841,8.159,29,14.5,29S26,23.841,26,17.5
				c0-4.215-2.295-8.085-5.99-10.102c-0.242-0.132-0.332-0.436-0.199-0.678c0.132-0.243,0.435-0.334,0.679-0.199
				C24.505,8.713,27,12.92,27,17.5C27,24.393,21.393,30,14.5,30z"/>
		</g>
	</g>
</g>
<g id="Reload">
</g>
<g id="Map">
</g>
<g id="Loction_1">
</g>
<g id="Location_2">
</g>
<g id="Globe">
</g>
<g id="Suitcase">
</g>
<g id="Callendar">
</g>
<g id="Cloud_Off">
</g>
<g id="File_1">
</g>
<g id="File_2">
</g>
<g id="Folder">
</g>
<g id="Open_Folder">
</g>
<g id="Cloud">
</g>
<g id="Upload_Cloud">
</g>
<g id="Download_Cloud">
</g>
<g id="Eye">
</g>
<g id="Invisible">
</g>
<g id="Assignment">
</g>
<g id="Note_Book">
</g>
<g id="Webpage">
</g>
<g id="Mailbox">
</g>
<g id="Drive">
</g>
<g id="Disc">
</g>
<g id="Wifi_1">
</g>
<g id="Wifi_2">
</g>
<g id="Archive">
</g>
<g id="Archive_File">
</g>
<g id="News">
</g>
<g id="Home">
</g>
<g id="Collaboration">
</g>
<g id="Announcement">
</g>
<g id="Watch">
</g>
<g id="Clock">
</g>
<g id="Volume">
</g>
<g id="Mute">
</g>
<g id="Hand">
</g>
<g id="Layers">
</g>
<g id="Bell">
</g>
<g id="Speach_Bubble">
</g>
<g id="Speach_Bubbles">
</g>
<g id="Zoom_In">
</g>
<g id="Zoom_Out">
</g>
<g id="Search">
</g>
<g id="Back_Arrow">
</g>
<g id="Close">
</g>
<g id="Check_2">
</g>
<g id="Left_Arrow_2">
</g>
<g id="Right_Arrow_2">
</g>
</svg>
