<?xml version="1.0" encoding="iso-8859-1"?>
<!-- Generator: Adobe Illustrator 19.2.1, SVG Export Plug-In . SVG Version: 6.00 Build 0)  -->
<svg version="1.1" xmlns="http://www.w3.org/2000/svg" xmlns:xlink="http://www.w3.org/1999/xlink" x="0px" y="0px"
	 viewBox="0 0 30 30" style="enable-background:new 0 0 30 30;" xml:space="preserve">
<g id="Credit_Card">
</g>
<g id="Banknote">
</g>
<g id="Wallet">
</g>
<g id="Compass">
</g>
<g id="Camera_1">
</g>
<g id="Photo">
</g>
<g id="Picture">
</g>
<g id="Camera_2">
</g>
<g id="No_Camera">
</g>
<g id="Video">
</g>
<g id="Audio">
</g>
<g id="Microphone_1">
</g>
<g id="Microphone_2">
</g>
<g id="No_Microphone">
</g>
<g id="Shopping_Cart">
</g>
<g id="Add_Shopping_Cart">
</g>
<g id="Remove_Shopping_Cart">
</g>
<g id="Shopping_Basket">
</g>
<g id="Jing-Jang">
</g>
<g id="Leaf">
</g>
<g id="Glass">
</g>
<g id="Cup">
</g>
<g id="Mug">
</g>
<g id="Refresh">
	<g>
		<g>
			<path d="M12.455,6.591c-0.128,0-0.256-0.049-0.354-0.146c-0.195-0.195-0.195-0.512,0-0.707l2.192-2.192l-2.192-2.192
				c-0.195-0.195-0.195-0.512,0-0.707s0.512-0.195,0.707,0l2.545,2.545c0.195,0.195,0.195,0.512,0,0.707l-2.545,2.545
				C12.71,6.542,12.583,6.591,12.455,6.591z"/>
		</g>
		<g>
			<path d="M17.545,29.5c-0.128,0-0.256-0.049-0.354-0.146l-2.545-2.545c-0.195-0.195-0.195-0.512,0-0.707l2.545-2.545
				c0.195-0.195,0.512-0.195,0.707,0s0.195,0.512,0,0.707l-2.192,2.192l2.192,2.192c0.195,0.195,0.195,0.512,0,0.707
				C17.801,29.451,17.673,29.5,17.545,29.5z"/>
		</g>
		<g>
			<path d="M12.482,26.668c-0.036,0-0.073-0.004-0.11-0.012C6.881,25.422,3.045,20.629,3.045,15C3.045,8.408,8.408,3.045,15,3.045
				c0.276,0,0.5,0.224,0.5,0.5s-0.224,0.5-0.5,0.5C8.959,4.045,4.045,8.959,4.045,15c0,5.158,3.514,9.55,8.546,10.68
				c0.27,0.061,0.439,0.328,0.378,0.597C12.917,26.51,12.711,26.668,12.482,26.668z"/>
		</g>
		<g>
			<path d="M15,26.955c-0.276,0-0.5-0.224-0.5-0.5s0.224-0.5,0.5-0.5c6.041,0,10.955-4.914,10.955-10.955
				c0-5.158-3.514-9.55-8.546-10.68c-0.27-0.061-0.439-0.328-0.378-0.597c0.06-0.27,0.331-0.438,0.597-0.378
				C23.119,4.578,26.955,9.371,26.955,15C26.955,21.592,21.592,26.955,15,26.955z"/>
		</g>
	</g>
</g>
<g id="Login">
</g>
<g id="Logout">
</g>
<g id="Flowchart">
</g>
<g id="Pin_1">
</g>
<g id="Pin_2">
</g>
<g id="User_1">
</g>
<g id="User_2">
</g>
<g id="Users">
</g>
<g id="Adjustments">
</g>
<g id="Type">
</g>
<g id="Format_Size">
</g>
<g id="Menu_1">
</g>
<g id="Other">
</g>
<g id="Flash">
</g>
<g id="No_Flash">
</g>
<g id="Switch_Button_1">
</g>
<g id="Switch_Button_2">
</g>
<g id="Cut">
</g>
<g id="Crop">
</g>
<g id="Sun">
</g>
<g id="USB">
</g>
<g id="Pie_Chart_1">
</g>
<g id="Pie_Chart_2">
</g>
<g id="Line_Chart">
</g>
<g id="Bar_Chart">
</g>
<g id="Target">
</g>
<g id="Flashlight">
</g>
<g id="USB_Device">
</g>
<g id="Eject">
</g>
<g id="Lightbulb">
</g>
<g id="Information">
</g>
<g id="Deactivate_Protection">
</g>
<g id="Active_Protection">
</g>
<g id="Bug">
</g>
<g id="Protection">
</g>
<g id="Phone">
</g>
<g id="List">
</g>
<g id="Plugin_1">
</g>
<g id="Bookmarrk">
</g>
<g id="Handshake">
</g>
<g id="Minimize">
</g>
<g id="Maximize">
</g>
<g id="Diamond">
</g>
<g id="Stop">
</g>
<g id="Shuffle">
</g>
<g id="Undo">
</g>
<g id="Upgrade">
</g>
<g id="Coding">
</g>
<g id="Syncronizaion">
</g>
<g id="Radio">
</g>
<g id="Presentation">
</g>
<g id="Door">
</g>
<g id="Thumbs_Up">
</g>
<g id="Thumbs_Down">
</g>
<g id="Keyboard">
</g>
<g id="_x33_D_Cube">
</g>
<g id="Signal">
</g>
<g id="Dice">
</g>
<g id="Upload">
</g>
<g id="Download">
</g>
<g id="Plugin_2">
</g>
<g id="Shopping_Bag">
</g>
<g id="Lifebelt">
</g>
<g id="Glasses">
</g>
<g id="Parabolic_Antenna">
</g>
<g id="Loudspeaker">
</g>
<g id="Play">
</g>
<g id="Pause">
</g>
<g id="Signpost">
</g>
<g id="Bluetooth">
</g>
<g id="Present">
</g>
<g id="Ruler">
</g>
<g id="Connection">
</g>
<g id="Money">
</g>
<g id="Paper_Plane">
</g>
<g id="Wallet_2">
</g>
</svg>
