<?xml version="1.0" encoding="iso-8859-1"?>
<!-- Generator: Adobe Illustrator 19.2.1, SVG Export Plug-In . SVG Version: 6.00 Build 0)  -->
<svg version="1.1" xmlns="http://www.w3.org/2000/svg" xmlns:xlink="http://www.w3.org/1999/xlink" x="0px" y="0px"
	 viewBox="0 0 30 30" style="enable-background:new 0 0 30 30;" xml:space="preserve">
<g id="Mail">
</g>
<g id="Open_Mail">
</g>
<g id="Mail_Attachmet">
</g>
<g id="Mails">
</g>
<g id="Trash">
</g>
<g id="Trash_Full">
</g>
<g id="Preferences_1">
</g>
<g id="Preferences_2">
</g>
<g id="Mouse">
</g>
<g id="Computer">
</g>
<g id="Notebook">
</g>
<g id="Mobile_Phone">
</g>
<g id="Print">
</g>
<g id="Calculator">
</g>
<g id="Tag">
</g>
<g id="Paperclip">
</g>
<g id="Heart">
</g>
<g id="Lock">
</g>
<g id="Lock_Open">
</g>
<g id="Key_1">
</g>
<g id="Star">
</g>
<g id="Add">
</g>
<g id="Remove">
</g>
<g id="Error">
</g>
<g id="Check_1">
</g>
<g id="Time">
</g>
<g id="Question_Mark">
</g>
<g id="Error_Mark">
</g>
<g id="Sand-Glass">
	<g>
		<g>
			<path d="M22.625,27.022c-0.276,0-0.5-0.224-0.5-0.5c0-5.209-1.573-8.391-4.676-9.457C16.556,16.759,16,15.976,16,15.023
				c0-0.956,0.556-1.738,1.449-2.045c3.106-1.066,4.616-4.16,4.616-9.456c0-0.276,0.224-0.5,0.5-0.5s0.5,0.224,0.5,0.5
				c0,5.696-1.78,9.196-5.292,10.401C17.282,14.092,17,14.492,17,15.021c0,0.531,0.282,0.931,0.773,1.099
				c3.551,1.22,5.352,4.719,5.352,10.402C23.125,26.798,22.901,27.022,22.625,27.022z"/>
		</g>
		<g>
			<path d="M7.375,27.022c-0.276,0-0.5-0.224-0.5-0.5c0-5.683,1.801-9.183,5.352-10.402C12.718,15.951,13,15.551,13,15.023
				c0-0.531-0.282-0.931-0.773-1.099C8.715,12.718,6.935,9.218,6.935,3.522c0-0.276,0.224-0.5,0.5-0.5s0.5,0.224,0.5,0.5
				c0,5.296,1.51,8.389,4.616,9.456C13.444,13.285,14,14.067,14,15.021c0,0.956-0.556,1.738-1.449,2.045
				c-3.103,1.065-4.676,4.247-4.676,9.456C7.875,26.798,7.651,27.022,7.375,27.022z"/>
		</g>
		<g>
			<path d="M24,4H6C4.897,4,4,3.103,4,2s0.897-2,2-2h18c1.103,0,2,0.897,2,2S25.103,4,24,4z M6,1C5.448,1,5,1.449,5,2s0.448,1,1,1
				h18c0.552,0,1-0.449,1-1s-0.448-1-1-1H6z"/>
		</g>
		<g>
			<path d="M24,30H6c-1.103,0-2-0.897-2-2s0.897-2,2-2h18c1.103,0,2,0.897,2,2S25.103,30,24,30z M6,27c-0.552,0-1,0.449-1,1
				s0.448,1,1,1h18c0.552,0,1-0.449,1-1s-0.448-1-1-1H6z"/>
		</g>
	</g>
</g>
<g id="Battery_Full">
</g>
<g id="Battery_Charge">
</g>
<g id="Battery_Half">
</g>
<g id="Battery_Low">
</g>
<g id="No_Battery">
</g>
<g id="Key_2">
</g>
<g id="Link">
</g>
<g id="Brake_Link">
</g>
<g id="Pencil">
</g>
<g id="At">
</g>
<g id="Reply">
</g>
<g id="Accessible">
</g>
<g id="Up_Arrow">
</g>
<g id="Brush">
</g>
<g id="Design_Mug">
</g>
<g id="Design">
</g>
<g id="Server">
</g>
<g id="Database">
</g>
<g id="Save">
</g>
<g id="Female">
</g>
<g id="Male">
</g>
<g id="Book">
</g>
<g id="Power">
</g>
<g id="Reload">
</g>
<g id="Map">
</g>
<g id="Loction_1">
</g>
<g id="Location_2">
</g>
<g id="Globe">
</g>
<g id="Suitcase">
</g>
<g id="Callendar">
</g>
<g id="Cloud_Off">
</g>
<g id="File_1">
</g>
<g id="File_2">
</g>
<g id="Folder">
</g>
<g id="Open_Folder">
</g>
<g id="Cloud">
</g>
<g id="Upload_Cloud">
</g>
<g id="Download_Cloud">
</g>
<g id="Eye">
</g>
<g id="Invisible">
</g>
<g id="Assignment">
</g>
<g id="Note_Book">
</g>
<g id="Webpage">
</g>
<g id="Mailbox">
</g>
<g id="Drive">
</g>
<g id="Disc">
</g>
<g id="Wifi_1">
</g>
<g id="Wifi_2">
</g>
<g id="Archive">
</g>
<g id="Archive_File">
</g>
<g id="News">
</g>
<g id="Home">
</g>
<g id="Collaboration">
</g>
<g id="Announcement">
</g>
<g id="Watch">
</g>
<g id="Clock">
</g>
<g id="Volume">
</g>
<g id="Mute">
</g>
<g id="Hand">
</g>
<g id="Layers">
</g>
<g id="Bell">
</g>
<g id="Speach_Bubble">
</g>
<g id="Speach_Bubbles">
</g>
<g id="Zoom_In">
</g>
<g id="Zoom_Out">
</g>
<g id="Search">
</g>
<g id="Back_Arrow">
</g>
<g id="Close">
</g>
<g id="Check_2">
</g>
<g id="Left_Arrow_2">
</g>
<g id="Right_Arrow_2">
</g>
</svg>
