<?xml version="1.0" encoding="iso-8859-1"?>
<!-- Generator: Adobe Illustrator 19.2.1, SVG Export Plug-In . SVG Version: 6.00 Build 0)  -->
<svg version="1.1" xmlns="http://www.w3.org/2000/svg" xmlns:xlink="http://www.w3.org/1999/xlink" x="0px" y="0px"
	 viewBox="0 0 30 30" style="enable-background:new 0 0 30 30;" xml:space="preserve">
<g id="Credit_Card">
</g>
<g id="Banknote">
</g>
<g id="Wallet">
</g>
<g id="Compass">
</g>
<g id="Camera_1">
</g>
<g id="Photo">
</g>
<g id="Picture">
</g>
<g id="Camera_2">
</g>
<g id="No_Camera">
</g>
<g id="Video">
</g>
<g id="Audio">
</g>
<g id="Microphone_1">
</g>
<g id="Microphone_2">
</g>
<g id="No_Microphone">
</g>
<g id="Shopping_Cart">
	<g>
		<g>
			<path d="M24,29c-1.654,0-3-1.346-3-3s1.346-3,3-3s3,1.346,3,3S25.654,29,24,29z M24,24c-1.103,0-2,0.897-2,2s0.897,2,2,2
				s2-0.897,2-2S25.103,24,24,24z"/>
		</g>
		<g>
			<path d="M11,29c-1.654,0-3-1.346-3-3s1.346-3,3-3s3,1.346,3,3S12.654,29,11,29z M11,24c-1.103,0-2,0.897-2,2s0.897,2,2,2
				s2-0.897,2-2S12.103,24,11,24z"/>
		</g>
		<g>
			<path d="M27,21H11.166c-2.029,0-3.795-1.466-4.199-3.486L3.873,2H0.5C0.224,2,0,1.776,0,1.5S0.224,1,0.5,1h3.783
				c0.238,0,0.444,0.168,0.49,0.402l3.174,15.916C8.258,18.872,9.612,20,11.166,20H27c0.276,0,0.5,0.224,0.5,0.5S27.276,21,27,21z"
				/>
		</g>
		<g>
			<path d="M7.319,17.22c-0.25,0-0.466-0.187-0.496-0.441c-0.033-0.274,0.163-0.523,0.438-0.556l19.96-2.38
				c0.359-0.038,0.617-0.278,0.664-0.613L28.923,6H5.08c-0.276,0-0.5-0.224-0.5-0.5S4.804,5,5.08,5H29.5
				c0.145,0,0.283,0.063,0.378,0.172c0.095,0.11,0.138,0.255,0.117,0.399l-1.12,7.8c-0.111,0.791-0.731,1.38-1.543,1.466
				l-19.953,2.38C7.359,17.219,7.339,17.22,7.319,17.22z"/>
		</g>
	</g>
</g>
<g id="Add_Shopping_Cart">
</g>
<g id="Remove_Shopping_Cart">
</g>
<g id="Shopping_Basket">
</g>
<g id="Jing-Jang">
</g>
<g id="Leaf">
</g>
<g id="Glass">
</g>
<g id="Cup">
</g>
<g id="Mug">
</g>
<g id="Refresh">
</g>
<g id="Login">
</g>
<g id="Logout">
</g>
<g id="Flowchart">
</g>
<g id="Pin_1">
</g>
<g id="Pin_2">
</g>
<g id="User_1">
</g>
<g id="User_2">
</g>
<g id="Users">
</g>
<g id="Adjustments">
</g>
<g id="Type">
</g>
<g id="Format_Size">
</g>
<g id="Menu_1">
</g>
<g id="Other">
</g>
<g id="Flash">
</g>
<g id="No_Flash">
</g>
<g id="Switch_Button_1">
</g>
<g id="Switch_Button_2">
</g>
<g id="Cut">
</g>
<g id="Crop">
</g>
<g id="Sun">
</g>
<g id="USB">
</g>
<g id="Pie_Chart_1">
</g>
<g id="Pie_Chart_2">
</g>
<g id="Line_Chart">
</g>
<g id="Bar_Chart">
</g>
<g id="Target">
</g>
<g id="Flashlight">
</g>
<g id="USB_Device">
</g>
<g id="Eject">
</g>
<g id="Lightbulb">
</g>
<g id="Information">
</g>
<g id="Deactivate_Protection">
</g>
<g id="Active_Protection">
</g>
<g id="Bug">
</g>
<g id="Protection">
</g>
<g id="Phone">
</g>
<g id="List">
</g>
<g id="Plugin_1">
</g>
<g id="Bookmarrk">
</g>
<g id="Handshake">
</g>
<g id="Minimize">
</g>
<g id="Maximize">
</g>
<g id="Diamond">
</g>
<g id="Stop">
</g>
<g id="Shuffle">
</g>
<g id="Undo">
</g>
<g id="Upgrade">
</g>
<g id="Coding">
</g>
<g id="Syncronizaion">
</g>
<g id="Radio">
</g>
<g id="Presentation">
</g>
<g id="Door">
</g>
<g id="Thumbs_Up">
</g>
<g id="Thumbs_Down">
</g>
<g id="Keyboard">
</g>
<g id="_x33_D_Cube">
</g>
<g id="Signal">
</g>
<g id="Dice">
</g>
<g id="Upload">
</g>
<g id="Download">
</g>
<g id="Plugin_2">
</g>
<g id="Shopping_Bag">
</g>
<g id="Lifebelt">
</g>
<g id="Glasses">
</g>
<g id="Parabolic_Antenna">
</g>
<g id="Loudspeaker">
</g>
<g id="Play">
</g>
<g id="Pause">
</g>
<g id="Signpost">
</g>
<g id="Bluetooth">
</g>
<g id="Present">
</g>
<g id="Ruler">
</g>
<g id="Connection">
</g>
<g id="Money">
</g>
<g id="Paper_Plane">
</g>
<g id="Wallet_2">
</g>
</svg>
