<?xml version="1.0" encoding="iso-8859-1"?>
<!-- Generator: Adobe Illustrator 19.2.1, SVG Export Plug-In . SVG Version: 6.00 Build 0)  -->
<svg version="1.1" xmlns="http://www.w3.org/2000/svg" xmlns:xlink="http://www.w3.org/1999/xlink" x="0px" y="0px"
	 viewBox="0 0 30 30" style="enable-background:new 0 0 30 30;" xml:space="preserve">
<g id="Credit_Card">
</g>
<g id="Banknote">
</g>
<g id="Wallet">
</g>
<g id="Compass">
</g>
<g id="Camera_1">
</g>
<g id="Photo">
</g>
<g id="Picture">
</g>
<g id="Camera_2">
</g>
<g id="No_Camera">
</g>
<g id="Video">
</g>
<g id="Audio">
</g>
<g id="Microphone_1">
</g>
<g id="Microphone_2">
</g>
<g id="No_Microphone">
</g>
<g id="Shopping_Cart">
</g>
<g id="Add_Shopping_Cart">
</g>
<g id="Remove_Shopping_Cart">
</g>
<g id="Shopping_Basket">
</g>
<g id="Jing-Jang">
</g>
<g id="Leaf">
</g>
<g id="Glass">
</g>
<g id="Cup">
</g>
<g id="Mug">
</g>
<g id="Refresh">
</g>
<g id="Login">
</g>
<g id="Logout">
</g>
<g id="Flowchart">
</g>
<g id="Pin_1">
</g>
<g id="Pin_2">
</g>
<g id="User_1">
</g>
<g id="User_2">
</g>
<g id="Users">
</g>
<g id="Adjustments">
</g>
<g id="Type">
</g>
<g id="Format_Size">
</g>
<g id="Menu_1">
</g>
<g id="Other">
</g>
<g id="Flash">
</g>
<g id="No_Flash">
</g>
<g id="Switch_Button_1">
</g>
<g id="Switch_Button_2">
</g>
<g id="Cut">
</g>
<g id="Crop">
</g>
<g id="Sun">
</g>
<g id="USB">
</g>
<g id="Pie_Chart_1">
</g>
<g id="Pie_Chart_2">
</g>
<g id="Line_Chart">
</g>
<g id="Bar_Chart">
</g>
<g id="Target">
</g>
<g id="Flashlight">
</g>
<g id="USB_Device">
</g>
<g id="Eject">
</g>
<g id="Lightbulb">
</g>
<g id="Information">
</g>
<g id="Deactivate_Protection">
</g>
<g id="Active_Protection">
</g>
<g id="Bug">
</g>
<g id="Protection">
</g>
<g id="Phone">
</g>
<g id="List">
</g>
<g id="Plugin_1">
</g>
<g id="Bookmarrk">
</g>
<g id="Handshake">
</g>
<g id="Minimize">
</g>
<g id="Maximize">
</g>
<g id="Diamond">
</g>
<g id="Stop">
	<g>
		<g>
			<path d="M19.962,30h-9.924c-0.807,0-1.564-0.314-2.137-0.885l0,0l-7.017-7.017C0.314,21.526,0,20.769,0,19.962v-9.924
				c0-0.807,0.314-1.564,0.885-2.137l7.017-7.017C8.474,0.314,9.231,0,10.038,0h9.924c0.807,0,1.564,0.314,2.137,0.885l7.017,7.017
				C29.686,8.474,30,9.231,30,10.038v9.924c0,0.807-0.314,1.564-0.885,2.137l-7.017,7.017C21.526,29.686,20.769,30,19.962,30z
				 M8.608,28.408C8.985,28.784,9.507,29,10.038,29h9.924c0.531,0,1.053-0.216,1.43-0.592l7.017-7.017
				C28.784,21.015,29,20.493,29,19.962v-9.924c0-0.531-0.216-1.053-0.592-1.43l-7.017-7.017C21.015,1.216,20.493,1,19.962,1h-9.924
				c-0.531,0-1.053,0.216-1.43,0.592L1.592,8.608C1.216,8.985,1,9.507,1,10.038v9.924c0,0.531,0.216,1.053,0.592,1.43L8.608,28.408z
				"/>
		</g>
		<g>
			<path d="M5.498,20c-1.318,0-2.416-1.133-2.497-2.578c-0.016-0.275,0.195-0.512,0.471-0.527c0.311-0.021,0.513,0.196,0.527,0.471
				C4.051,18.282,4.709,19,5.498,19C6.326,19,7,18.216,7,17.251c0-1.158-0.774-1.529-1.531-1.74l-0.116-0.033
				C3.765,15.041,3,14.131,3,12.75C3,11.233,4.122,10,5.502,10c1.318,0,2.416,1.132,2.497,2.577
				c0.016,0.275-0.195,0.512-0.471,0.527c-0.295,0.045-0.512-0.196-0.527-0.471C6.949,11.718,6.291,11,5.502,11
				C4.674,11,4,11.785,4,12.75c0,1.162,0.777,1.532,1.538,1.74l0.11,0.032C7.238,14.965,8,15.874,8,17.251
				C8,18.767,6.878,20,5.498,20z"/>
		</g>
		<g>
			<path d="M14,11H9c-0.276,0-0.5-0.224-0.5-0.5S8.724,10,9,10h5c0.276,0,0.5,0.224,0.5,0.5S14.276,11,14,11z"/>
		</g>
		<g>
			<path d="M11.5,20c-0.276,0-0.5-0.224-0.5-0.5v-9c0-0.276,0.224-0.5,0.5-0.5s0.5,0.224,0.5,0.5v9C12,19.776,11.776,20,11.5,20z"/>
		</g>
		<g>
			<path d="M17.5,20c-1.379,0-2.5-1.121-2.5-2.5v-5c0-1.379,1.121-2.5,2.5-2.5s2.5,1.121,2.5,2.5v5C20,18.879,18.879,20,17.5,20z
				 M17.5,11c-0.827,0-1.5,0.673-1.5,1.5v5c0,0.827,0.673,1.5,1.5,1.5s1.5-0.673,1.5-1.5v-5C19,11.673,18.327,11,17.5,11z"/>
		</g>
		<g>
			<path d="M22.5,20c-0.276,0-0.5-0.224-0.5-0.5v-9c0-0.276,0.224-0.5,0.5-0.5h2.956C26.365,10,27,10.76,27,11.848v2.521
				C27,15.375,26.408,16,25.456,16H23v3.5C23,19.776,22.776,20,22.5,20z M23,15h2.456C25.719,15,26,14.951,26,14.369v-2.521
				C26,11.761,25.984,11,25.456,11H23V15z"/>
		</g>
	</g>
</g>
<g id="Shuffle">
</g>
<g id="Undo">
</g>
<g id="Upgrade">
</g>
<g id="Coding">
</g>
<g id="Syncronizaion">
</g>
<g id="Radio">
</g>
<g id="Presentation">
</g>
<g id="Door">
</g>
<g id="Thumbs_Up">
</g>
<g id="Thumbs_Down">
</g>
<g id="Keyboard">
</g>
<g id="_x33_D_Cube">
</g>
<g id="Signal">
</g>
<g id="Dice">
</g>
<g id="Upload">
</g>
<g id="Download">
</g>
<g id="Plugin_2">
</g>
<g id="Shopping_Bag">
</g>
<g id="Lifebelt">
</g>
<g id="Glasses">
</g>
<g id="Parabolic_Antenna">
</g>
<g id="Loudspeaker">
</g>
<g id="Play">
</g>
<g id="Pause">
</g>
<g id="Signpost">
</g>
<g id="Bluetooth">
</g>
<g id="Present">
</g>
<g id="Ruler">
</g>
<g id="Connection">
</g>
<g id="Money">
</g>
<g id="Paper_Plane">
</g>
<g id="Wallet_2">
</g>
</svg>
