<?xml version="1.0" encoding="iso-8859-1"?>
<!-- Generator: Adobe Illustrator 19.2.1, SVG Export Plug-In . SVG Version: 6.00 Build 0)  -->
<svg version="1.1" xmlns="http://www.w3.org/2000/svg" xmlns:xlink="http://www.w3.org/1999/xlink" x="0px" y="0px"
	 viewBox="0 0 30 30" style="enable-background:new 0 0 30 30;" xml:space="preserve">
<g id="Flag">
</g>
<g id="Umbrella">
	<g>
		<g>
			<path d="M27.5,13c-0.158,0-0.311-0.075-0.407-0.209c-0.555-0.777-1.633-1.685-2.843-1.685c-1.26,0-2.291,0.865-2.835,1.674
				C21.322,12.917,21.167,13,21,13l0,0c-0.167,0-0.322-0.083-0.415-0.221c-0.544-0.809-1.574-1.673-2.835-1.673
				c-1.26,0-2.291,0.865-2.835,1.674C14.822,12.917,14.667,13,14.5,13l0,0c-0.167,0-0.322-0.083-0.415-0.221
				c-0.544-0.809-1.574-1.673-2.835-1.673c-1.26,0-2.291,0.865-2.835,1.674C8.322,12.917,8.167,13,8,13l0,0
				c-0.167,0-0.322-0.083-0.415-0.221c-0.544-0.809-1.574-1.673-2.835-1.673c-1.21,0-2.288,0.908-2.843,1.685
				c-0.131,0.182-0.366,0.255-0.576,0.18c-0.211-0.076-0.345-0.283-0.329-0.506C1.505,5.475,7.434,0,14.5,0
				s12.995,5.475,13.499,12.464c0.016,0.224-0.118,0.431-0.329,0.506C27.614,12.99,27.557,13,27.5,13z M17.75,10.105
				c1.364,0,2.504,0.744,3.248,1.579c0.873-0.999,2.05-1.579,3.252-1.579c0.972,0,1.852,0.407,2.555,0.956
				C25.679,5.313,20.538,1,14.5,1S3.321,5.313,2.195,11.061c0.703-0.549,1.583-0.956,2.555-0.956c1.364,0,2.504,0.744,3.248,1.579
				c0.873-0.999,2.05-1.579,3.252-1.579c1.364,0,2.504,0.744,3.248,1.579C15.371,10.686,16.548,10.105,17.75,10.105z"/>
		</g>
		<g>
			<path d="M17,30c-1.654,0-3-1.346-3-3V12.5c0-0.276,0.224-0.5,0.5-0.5s0.5,0.224,0.5,0.5V27c0,1.103,0.897,2,2,2s2-0.897,2-2v-0.5
				c0-0.276,0.224-0.5,0.5-0.5s0.5,0.224,0.5,0.5V27C20,28.654,18.654,30,17,30z"/>
		</g>
	</g>
</g>
<g id="Briefcase">
</g>
<g id="Box">
</g>
<g id="Magnet">
</g>
<g id="Percent">
</g>
<g id="Rocket">
</g>
<g id="Share">
</g>
<g id="Transmitter">
</g>
<g id="Record_2">
</g>
<g id="Record_1">
</g>
<g id="Anchor">
</g>
<g id="Airplane">
</g>
<g id="Car">
</g>
<g id="Newsfeed">
</g>
<g id="Wifi_Tethering">
</g>
<g id="No_Wifi_Tethering">
</g>
<g id="Bar_Chart_2">
</g>
<g id="Shop">
</g>
<g id="Alarm">
</g>
<g id="Sim_Card">
</g>
<g id="Radar">
</g>
<g id="Hand_2">
</g>
<g id="Palette">
</g>
<g id="Cake">
</g>
<g id="Blende">
</g>
<g id="Feather_Pen">
</g>
<g id="Ticket">
</g>
<g id="Medal">
</g>
<g id="Mouse_Pointer_1">
</g>
<g id="Mouse_Pointer_2">
</g>
<g id="Fingerprint">
</g>
<g id="Earth">
</g>
</svg>
