<?xml version="1.0" encoding="iso-8859-1"?>
<!-- Generator: Adobe Illustrator 19.2.1, SVG Export Plug-In . SVG Version: 6.00 Build 0)  -->
<svg version="1.1" xmlns="http://www.w3.org/2000/svg" xmlns:xlink="http://www.w3.org/1999/xlink" x="0px" y="0px"
	 viewBox="0 0 30 30" style="enable-background:new 0 0 30 30;" xml:space="preserve">
<g id="Credit_Card">
</g>
<g id="Banknote">
</g>
<g id="Wallet">
</g>
<g id="Compass">
</g>
<g id="Camera_1">
</g>
<g id="Photo">
</g>
<g id="Picture">
</g>
<g id="Camera_2">
</g>
<g id="No_Camera">
</g>
<g id="Video">
</g>
<g id="Audio">
</g>
<g id="Microphone_1">
</g>
<g id="Microphone_2">
</g>
<g id="No_Microphone">
</g>
<g id="Shopping_Cart">
</g>
<g id="Add_Shopping_Cart">
</g>
<g id="Remove_Shopping_Cart">
</g>
<g id="Shopping_Basket">
</g>
<g id="Jing-Jang">
</g>
<g id="Leaf">
</g>
<g id="Glass">
</g>
<g id="Cup">
</g>
<g id="Mug">
</g>
<g id="Refresh">
</g>
<g id="Login">
</g>
<g id="Logout">
</g>
<g id="Flowchart">
</g>
<g id="Pin_1">
</g>
<g id="Pin_2">
</g>
<g id="User_1">
</g>
<g id="User_2">
</g>
<g id="Users">
</g>
<g id="Adjustments">
</g>
<g id="Type">
</g>
<g id="Format_Size">
</g>
<g id="Menu_1">
</g>
<g id="Other">
</g>
<g id="Flash">
</g>
<g id="No_Flash">
</g>
<g id="Switch_Button_1">
</g>
<g id="Switch_Button_2">
</g>
<g id="Cut">
</g>
<g id="Crop">
</g>
<g id="Sun">
</g>
<g id="USB">
	<g>
		<g>
			<path d="M27,18.5c-1.654,0-3-1.346-3-3s1.346-3,3-3s3,1.346,3,3S28.654,18.5,27,18.5z M27,13.5c-1.103,0-2,0.897-2,2s0.897,2,2,2
				s2-0.897,2-2S28.103,13.5,27,13.5z"/>
		</g>
		<g>
			<path d="M24.5,16h-24C0.224,16,0,15.776,0,15.5S0.224,15,0.5,15h24c0.276,0,0.5,0.224,0.5,0.5S24.776,16,24.5,16z"/>
		</g>
		<g>
			<path d="M4.5,20c-0.128,0-0.256-0.049-0.354-0.146l-4-4c-0.195-0.195-0.195-0.512,0-0.707l4-4c0.195-0.195,0.512-0.195,0.707,0
				s0.195,0.512,0,0.707L1.207,15.5l3.646,3.646c0.195,0.195,0.195,0.512,0,0.707C4.756,19.951,4.628,20,4.5,20z"/>
		</g>
		<g>
			<path d="M17.075,24H15.5c-0.276,0-0.5-0.224-0.5-0.5s0.224-0.5,0.5-0.5h1.575c1.217,0,2.462-0.791,3.028-1.923l2.831-5.585
				c0.124-0.246,0.425-0.346,0.672-0.22c0.246,0.125,0.345,0.425,0.22,0.672l-2.83,5.583C20.258,23.005,18.681,24,17.075,24z"/>
		</g>
		<g>
			<path d="M21.75,15.78c-0.188,0-0.367-0.105-0.453-0.286l-2.64-5.58C18.052,8.72,16.985,8,15.81,8H14.5C14.224,8,14,7.776,14,7.5
				S14.224,7,14.5,7h1.31c1.536,0,2.971,0.948,3.746,2.474l2.646,5.592c0.118,0.25,0.011,0.548-0.238,0.666
				C21.895,15.765,21.822,15.78,21.75,15.78z"/>
		</g>
		<g>
			<path d="M13,26.5c-1.654,0-3-1.346-3-3s1.346-3,3-3s3,1.346,3,3S14.654,26.5,13,26.5z M13,21.5c-1.103,0-2,0.897-2,2s0.897,2,2,2
				s2-0.897,2-2S14.103,21.5,13,21.5z"/>
		</g>
		<g>
			<path d="M14.5,10.5h-5C9.224,10.5,9,10.276,9,10V5c0-0.276,0.224-0.5,0.5-0.5h5C14.776,4.5,15,4.724,15,5v5
				C15,10.276,14.776,10.5,14.5,10.5z M10,9.5h4v-4h-4V9.5z"/>
		</g>
	</g>
</g>
<g id="Pie_Chart_1">
</g>
<g id="Pie_Chart_2">
</g>
<g id="Line_Chart">
</g>
<g id="Bar_Chart">
</g>
<g id="Target">
</g>
<g id="Flashlight">
</g>
<g id="USB_Device">
</g>
<g id="Eject">
</g>
<g id="Lightbulb">
</g>
<g id="Information">
</g>
<g id="Deactivate_Protection">
</g>
<g id="Active_Protection">
</g>
<g id="Bug">
</g>
<g id="Protection">
</g>
<g id="Phone">
</g>
<g id="List">
</g>
<g id="Plugin_1">
</g>
<g id="Bookmarrk">
</g>
<g id="Handshake">
</g>
<g id="Minimize">
</g>
<g id="Maximize">
</g>
<g id="Diamond">
</g>
<g id="Stop">
</g>
<g id="Shuffle">
</g>
<g id="Undo">
</g>
<g id="Upgrade">
</g>
<g id="Coding">
</g>
<g id="Syncronizaion">
</g>
<g id="Radio">
</g>
<g id="Presentation">
</g>
<g id="Door">
</g>
<g id="Thumbs_Up">
</g>
<g id="Thumbs_Down">
</g>
<g id="Keyboard">
</g>
<g id="_x33_D_Cube">
</g>
<g id="Signal">
</g>
<g id="Dice">
</g>
<g id="Upload">
</g>
<g id="Download">
</g>
<g id="Plugin_2">
</g>
<g id="Shopping_Bag">
</g>
<g id="Lifebelt">
</g>
<g id="Glasses">
</g>
<g id="Parabolic_Antenna">
</g>
<g id="Loudspeaker">
</g>
<g id="Play">
</g>
<g id="Pause">
</g>
<g id="Signpost">
</g>
<g id="Bluetooth">
</g>
<g id="Present">
</g>
<g id="Ruler">
</g>
<g id="Connection">
</g>
<g id="Money">
</g>
<g id="Paper_Plane">
</g>
<g id="Wallet_2">
</g>
</svg>
