<?xml version="1.0" encoding="iso-8859-1"?>
<!-- Generator: Adobe Illustrator 19.2.1, SVG Export Plug-In . SVG Version: 6.00 Build 0)  -->
<svg version="1.1" xmlns="http://www.w3.org/2000/svg" xmlns:xlink="http://www.w3.org/1999/xlink" x="0px" y="0px"
	 viewBox="0 0 30 30" style="enable-background:new 0 0 30 30;" xml:space="preserve">
<g id="Credit_Card">
</g>
<g id="Banknote">
</g>
<g id="Wallet">
</g>
<g id="Compass">
</g>
<g id="Camera_1">
</g>
<g id="Photo">
</g>
<g id="Picture">
</g>
<g id="Camera_2">
</g>
<g id="No_Camera">
</g>
<g id="Video">
	<g>
		<g>
			<path d="M27.5,30h-24C2.121,30,1,28.878,1,27.5v-16C1,11.224,1.224,11,1.5,11h28c0.276,0,0.5,0.224,0.5,0.5v16
				C30,28.878,28.879,30,27.5,30z M2,12v15.5C2,28.327,2.673,29,3.5,29h24c0.827,0,1.5-0.673,1.5-1.5V12H2z"/>
		</g>
		<g>
			<path d="M1.487,12.34c-0.224,0-0.427-0.15-0.484-0.377l-0.95-3.74c-0.115-0.466-0.041-0.944,0.208-1.351
				c0.249-0.407,0.641-0.69,1.103-0.799l25.419-6.03c0.936-0.212,1.88,0.373,2.102,1.3l1.077,4.068
				c0.035,0.131,0.015,0.271-0.056,0.387c-0.07,0.116-0.185,0.199-0.317,0.229l-26.25,5.96c-0.272,0.061-0.537-0.108-0.598-0.377
				c-0.062-0.27,0.107-0.537,0.377-0.599l25.744-5.845l-0.947-3.579c-0.099-0.411-0.507-0.658-0.907-0.57L1.593,7.046
				C1.392,7.094,1.222,7.217,1.113,7.395C1.006,7.571,0.973,7.779,1.022,7.98l0.949,3.736c0.068,0.268-0.094,0.54-0.361,0.607
				C1.569,12.335,1.527,12.34,1.487,12.34z"/>
		</g>
		<g>
			<path d="M4.279,17c-0.076,0-0.153-0.017-0.226-0.054c-0.246-0.124-0.345-0.425-0.221-0.671l2.522-5
				c0.124-0.247,0.425-0.347,0.672-0.221c0.246,0.124,0.345,0.425,0.221,0.671l-2.522,5C4.638,16.899,4.462,17,4.279,17z"/>
		</g>
		<g>
			<path d="M10.586,17c-0.076,0-0.153-0.017-0.226-0.054c-0.246-0.124-0.345-0.425-0.221-0.671l2.522-5
				c0.124-0.247,0.426-0.347,0.672-0.221c0.246,0.124,0.345,0.425,0.221,0.671l-2.522,5C10.944,16.899,10.769,17,10.586,17z"/>
		</g>
		<g>
			<path d="M16.892,17c-0.076,0-0.153-0.017-0.226-0.054c-0.246-0.124-0.345-0.425-0.221-0.671l2.522-5
				c0.125-0.247,0.426-0.347,0.672-0.221c0.246,0.124,0.345,0.425,0.221,0.671l-2.522,5C17.25,16.899,17.074,17,16.892,17z"/>
		</g>
		<g>
			<path d="M23.198,17c-0.076,0-0.153-0.017-0.226-0.054c-0.246-0.124-0.345-0.425-0.221-0.671l2.522-5
				c0.124-0.247,0.426-0.347,0.672-0.221c0.246,0.124,0.345,0.425,0.221,0.671l-2.522,5C23.557,16.899,23.381,17,23.198,17z"/>
		</g>
		<g>
			<path d="M29,17H2c-0.276,0-0.5-0.224-0.5-0.5S1.724,16,2,16h27c0.276,0,0.5,0.224,0.5,0.5S29.276,17,29,17z"/>
		</g>
		<g>
			<path d="M7.379,11.058c-0.128,0-0.256-0.049-0.354-0.146L2.682,6.567c-0.195-0.195-0.195-0.512,0-0.707s0.512-0.195,0.707,0
				l4.344,4.344c0.195,0.195,0.195,0.512,0,0.707C7.635,11.009,7.507,11.058,7.379,11.058z"/>
		</g>
		<g>
			<path d="M13.548,9.656c-0.128,0-0.256-0.049-0.354-0.146L8.848,5.166c-0.195-0.195-0.195-0.512,0-0.707s0.512-0.195,0.707,0
				l4.347,4.344c0.195,0.195,0.195,0.512,0,0.707C13.804,9.607,13.676,9.656,13.548,9.656z"/>
		</g>
		<g>
			<path d="M19.714,8.254c-0.128,0-0.256-0.049-0.354-0.146l-4.34-4.345c-0.195-0.196-0.195-0.512,0-0.708
				c0.195-0.194,0.512-0.195,0.707,0l4.34,4.345c0.195,0.196,0.195,0.512,0,0.708C19.97,8.206,19.842,8.254,19.714,8.254z"/>
		</g>
		<g>
			<path d="M25.877,6.854c-0.128,0-0.256-0.049-0.354-0.146l-4.342-4.345c-0.195-0.195-0.195-0.512,0-0.707
				c0.195-0.195,0.512-0.195,0.707,0L26.23,6c0.195,0.195,0.195,0.512,0,0.707C26.133,6.805,26.005,6.854,25.877,6.854z"/>
		</g>
	</g>
</g>
<g id="Audio">
</g>
<g id="Microphone_1">
</g>
<g id="Microphone_2">
</g>
<g id="No_Microphone">
</g>
<g id="Shopping_Cart">
</g>
<g id="Add_Shopping_Cart">
</g>
<g id="Remove_Shopping_Cart">
</g>
<g id="Shopping_Basket">
</g>
<g id="Jing-Jang">
</g>
<g id="Leaf">
</g>
<g id="Glass">
</g>
<g id="Cup">
</g>
<g id="Mug">
</g>
<g id="Refresh">
</g>
<g id="Login">
</g>
<g id="Logout">
</g>
<g id="Flowchart">
</g>
<g id="Pin_1">
</g>
<g id="Pin_2">
</g>
<g id="User_1">
</g>
<g id="User_2">
</g>
<g id="Users">
</g>
<g id="Adjustments">
</g>
<g id="Type">
</g>
<g id="Format_Size">
</g>
<g id="Menu_1">
</g>
<g id="Other">
</g>
<g id="Flash">
</g>
<g id="No_Flash">
</g>
<g id="Switch_Button_1">
</g>
<g id="Switch_Button_2">
</g>
<g id="Cut">
</g>
<g id="Crop">
</g>
<g id="Sun">
</g>
<g id="USB">
</g>
<g id="Pie_Chart_1">
</g>
<g id="Pie_Chart_2">
</g>
<g id="Line_Chart">
</g>
<g id="Bar_Chart">
</g>
<g id="Target">
</g>
<g id="Flashlight">
</g>
<g id="USB_Device">
</g>
<g id="Eject">
</g>
<g id="Lightbulb">
</g>
<g id="Information">
</g>
<g id="Deactivate_Protection">
</g>
<g id="Active_Protection">
</g>
<g id="Bug">
</g>
<g id="Protection">
</g>
<g id="Phone">
</g>
<g id="List">
</g>
<g id="Plugin_1">
</g>
<g id="Bookmarrk">
</g>
<g id="Handshake">
</g>
<g id="Minimize">
</g>
<g id="Maximize">
</g>
<g id="Diamond">
</g>
<g id="Stop">
</g>
<g id="Shuffle">
</g>
<g id="Undo">
</g>
<g id="Upgrade">
</g>
<g id="Coding">
</g>
<g id="Syncronizaion">
</g>
<g id="Radio">
</g>
<g id="Presentation">
</g>
<g id="Door">
</g>
<g id="Thumbs_Up">
</g>
<g id="Thumbs_Down">
</g>
<g id="Keyboard">
</g>
<g id="_x33_D_Cube">
</g>
<g id="Signal">
</g>
<g id="Dice">
</g>
<g id="Upload">
</g>
<g id="Download">
</g>
<g id="Plugin_2">
</g>
<g id="Shopping_Bag">
</g>
<g id="Lifebelt">
</g>
<g id="Glasses">
</g>
<g id="Parabolic_Antenna">
</g>
<g id="Loudspeaker">
</g>
<g id="Play">
</g>
<g id="Pause">
</g>
<g id="Signpost">
</g>
<g id="Bluetooth">
</g>
<g id="Present">
</g>
<g id="Ruler">
</g>
<g id="Connection">
</g>
<g id="Money">
</g>
<g id="Paper_Plane">
</g>
<g id="Wallet_2">
</g>
</svg>
