<?xml version="1.0" encoding="iso-8859-1"?>
<!-- Generator: Adobe Illustrator 19.2.1, SVG Export Plug-In . SVG Version: 6.00 Build 0)  -->
<svg version="1.1" xmlns="http://www.w3.org/2000/svg" xmlns:xlink="http://www.w3.org/1999/xlink" x="0px" y="0px"
	 viewBox="0 0 30 30" style="enable-background:new 0 0 30 30;" xml:space="preserve">
<g id="Credit_Card">
</g>
<g id="Banknote">
</g>
<g id="Wallet">
</g>
<g id="Compass">
</g>
<g id="Camera_1">
</g>
<g id="Photo">
</g>
<g id="Picture">
</g>
<g id="Camera_2">
</g>
<g id="No_Camera">
</g>
<g id="Video">
</g>
<g id="Audio">
</g>
<g id="Microphone_1">
</g>
<g id="Microphone_2">
</g>
<g id="No_Microphone">
</g>
<g id="Shopping_Cart">
</g>
<g id="Add_Shopping_Cart">
</g>
<g id="Remove_Shopping_Cart">
</g>
<g id="Shopping_Basket">
</g>
<g id="Jing-Jang">
</g>
<g id="Leaf">
</g>
<g id="Glass">
</g>
<g id="Cup">
</g>
<g id="Mug">
</g>
<g id="Refresh">
</g>
<g id="Login">
</g>
<g id="Logout">
</g>
<g id="Flowchart">
</g>
<g id="Pin_1">
</g>
<g id="Pin_2">
</g>
<g id="User_1">
</g>
<g id="User_2">
</g>
<g id="Users">
</g>
<g id="Adjustments">
</g>
<g id="Type">
</g>
<g id="Format_Size">
</g>
<g id="Menu_1">
</g>
<g id="Other">
</g>
<g id="Flash">
</g>
<g id="No_Flash">
</g>
<g id="Switch_Button_1">
</g>
<g id="Switch_Button_2">
</g>
<g id="Cut">
</g>
<g id="Crop">
</g>
<g id="Sun">
</g>
<g id="USB">
</g>
<g id="Pie_Chart_1">
</g>
<g id="Pie_Chart_2">
</g>
<g id="Line_Chart">
</g>
<g id="Bar_Chart">
</g>
<g id="Target">
</g>
<g id="Flashlight">
</g>
<g id="USB_Device">
</g>
<g id="Eject">
</g>
<g id="Lightbulb">
</g>
<g id="Information">
</g>
<g id="Deactivate_Protection">
</g>
<g id="Active_Protection">
</g>
<g id="Bug">
</g>
<g id="Protection">
</g>
<g id="Phone">
</g>
<g id="List">
</g>
<g id="Plugin_1">
</g>
<g id="Bookmarrk">
</g>
<g id="Handshake">
</g>
<g id="Minimize">
</g>
<g id="Maximize">
</g>
<g id="Diamond">
</g>
<g id="Stop">
</g>
<g id="Shuffle">
</g>
<g id="Undo">
</g>
<g id="Upgrade">
</g>
<g id="Coding">
</g>
<g id="Syncronizaion">
</g>
<g id="Radio">
</g>
<g id="Presentation">
</g>
<g id="Door">
</g>
<g id="Thumbs_Up">
</g>
<g id="Thumbs_Down">
</g>
<g id="Keyboard">
</g>
<g id="_x33_D_Cube">
</g>
<g id="Signal">
</g>
<g id="Dice">
</g>
<g id="Upload">
</g>
<g id="Download">
</g>
<g id="Plugin_2">
</g>
<g id="Shopping_Bag">
</g>
<g id="Lifebelt">
</g>
<g id="Glasses">
</g>
<g id="Parabolic_Antenna">
</g>
<g id="Loudspeaker">
</g>
<g id="Play">
</g>
<g id="Pause">
</g>
<g id="Signpost">
</g>
<g id="Bluetooth">
</g>
<g id="Present">
</g>
<g id="Ruler">
</g>
<g id="Connection">
</g>
<g id="Money">
</g>
<g id="Paper_Plane">
</g>
<g id="Wallet_2">
	<g>
		<g>
			<path d="M19.5,27h-18C0.673,27,0,26.327,0,25.5V10c0-0.061,0.011-0.118,0.03-0.171C0.185,9,0.914,8.351,1.761,8.351l15.047-2.572
				c0.269-0.047,0.53,0.136,0.577,0.409c0.046,0.272-0.137,0.53-0.409,0.577L1.845,9.344C1.355,9.351,1,9.727,1,10.154
				C1,10.597,1.362,11,1.761,11H19.5c1.379,0,2.5,1.121,2.5,2.5v11C22,25.879,20.879,27,19.5,27z M1,11.813V25.5
				C1,25.775,1.225,26,1.5,26h18c0.827,0,1.5-0.673,1.5-1.5v-11c0-0.827-0.673-1.5-1.5-1.5H1.761C1.49,12,1.231,11.932,1,11.813z"/>
		</g>
		<g>
			<path d="M21.933,19.394c-0.128,0-0.256-0.049-0.354-0.146c-0.195-0.195-0.195-0.512,0-0.707l7.198-7.198
				c0.297-0.297,0.297-0.779,0-1.076l-7.043-7.043c-0.297-0.297-0.779-0.297-1.076,0l-8.459,8.459c-0.195,0.195-0.512,0.195-0.707,0
				s-0.195-0.512,0-0.707l8.459-8.459c0.686-0.688,1.805-0.688,2.49,0l7.043,7.043c0.687,0.687,0.687,1.804,0,2.49l-7.198,7.198
				C22.188,19.345,22.061,19.394,21.933,19.394z"/>
		</g>
		<g>
			<path d="M15.631,11.828c-0.128,0-0.256-0.049-0.354-0.146c-0.195-0.195-0.195-0.512,0-0.707l7.458-7.458
				c0.195-0.195,0.512-0.195,0.707,0s0.195,0.512,0,0.707l-7.458,7.458C15.887,11.779,15.759,11.828,15.631,11.828z"/>
		</g>
		<g>
			<path d="M19.413,11.828c-0.128,0-0.256-0.049-0.354-0.146c-0.195-0.195-0.195-0.512,0-0.707l5.566-5.566
				c0.195-0.195,0.512-0.195,0.707,0s0.195,0.512,0,0.707l-5.566,5.566C19.669,11.779,19.541,11.828,19.413,11.828z"/>
		</g>
		<g>
			<path d="M18.5,20.5c-0.827,0-1.5-0.673-1.5-1.5s0.673-1.5,1.5-1.5S20,18.173,20,19S19.327,20.5,18.5,20.5z M18.5,18.5
				c-0.275,0-0.5,0.225-0.5,0.5s0.225,0.5,0.5,0.5S19,19.275,19,19S18.775,18.5,18.5,18.5z"/>
		</g>
		<g>
			<path d="M21.5,23h-4.608C15.216,23,14,21.803,14,20.154v-2.521c0-1.6,1.135-2.633,2.892-2.633H21.5c0.276,0,0.5,0.224,0.5,0.5
				S21.776,16,21.5,16h-4.608C16.323,16,15,16.159,15,17.633v2.521C15,21.258,15.76,22,16.892,22H21.5c0.276,0,0.5,0.224,0.5,0.5
				S21.776,23,21.5,23z"/>
		</g>
	</g>
</g>
</svg>
