<?xml version="1.0" encoding="iso-8859-1"?>
<!-- Generator: Adobe Illustrator 19.2.1, SVG Export Plug-In . SVG Version: 6.00 Build 0)  -->
<svg version="1.1" xmlns="http://www.w3.org/2000/svg" xmlns:xlink="http://www.w3.org/1999/xlink" x="0px" y="0px"
	 viewBox="0 0 30 30" style="enable-background:new 0 0 30 30;" xml:space="preserve">
<g id="Mail">
</g>
<g id="Open_Mail">
</g>
<g id="Mail_Attachmet">
</g>
<g id="Mails">
</g>
<g id="Trash">
</g>
<g id="Trash_Full">
</g>
<g id="Preferences_1">
</g>
<g id="Preferences_2">
</g>
<g id="Mouse">
</g>
<g id="Computer">
</g>
<g id="Notebook">
</g>
<g id="Mobile_Phone">
</g>
<g id="Print">
</g>
<g id="Calculator">
</g>
<g id="Tag">
</g>
<g id="Paperclip">
</g>
<g id="Heart">
</g>
<g id="Lock">
</g>
<g id="Lock_Open">
</g>
<g id="Key_1">
</g>
<g id="Star">
</g>
<g id="Add">
</g>
<g id="Remove">
</g>
<g id="Error">
</g>
<g id="Check_1">
</g>
<g id="Time">
</g>
<g id="Question_Mark">
</g>
<g id="Error_Mark">
</g>
<g id="Sand-Glass">
</g>
<g id="Battery_Full">
</g>
<g id="Battery_Charge">
</g>
<g id="Battery_Half">
</g>
<g id="Battery_Low">
</g>
<g id="No_Battery">
</g>
<g id="Key_2">
</g>
<g id="Link">
</g>
<g id="Brake_Link">
</g>
<g id="Pencil">
</g>
<g id="At">
</g>
<g id="Reply">
</g>
<g id="Accessible">
</g>
<g id="Up_Arrow">
</g>
<g id="Brush">
</g>
<g id="Design_Mug">
</g>
<g id="Design">
</g>
<g id="Server">
</g>
<g id="Database">
</g>
<g id="Save">
</g>
<g id="Female">
</g>
<g id="Male">
</g>
<g id="Book">
</g>
<g id="Power">
</g>
<g id="Reload">
</g>
<g id="Map">
</g>
<g id="Loction_1">
</g>
<g id="Location_2">
</g>
<g id="Globe">
</g>
<g id="Suitcase">
</g>
<g id="Callendar">
</g>
<g id="Cloud_Off">
</g>
<g id="File_1">
</g>
<g id="File_2">
</g>
<g id="Folder">
</g>
<g id="Open_Folder">
</g>
<g id="Cloud">
</g>
<g id="Upload_Cloud">
</g>
<g id="Download_Cloud">
</g>
<g id="Eye">
</g>
<g id="Invisible">
</g>
<g id="Assignment">
</g>
<g id="Note_Book">
</g>
<g id="Webpage">
</g>
<g id="Mailbox">
</g>
<g id="Drive">
</g>
<g id="Disc">
</g>
<g id="Wifi_1">
</g>
<g id="Wifi_2">
	<g>
		<g>
			<path d="M15,26c-3.842,0-7.343-1.958-9.366-5.237c-0.145-0.235-0.071-0.543,0.163-0.688c0.234-0.143,0.543-0.072,0.688,0.163
				C8.324,23.22,11.508,25,15,25s6.676-1.78,8.515-4.763c0.146-0.235,0.454-0.306,0.688-0.163c0.234,0.146,0.308,0.453,0.163,0.688
				C22.343,24.042,18.842,26,15,26z"/>
		</g>
		<g>
			<path d="M23.94,10c-0.167,0-0.331-0.084-0.426-0.237C21.676,6.78,18.492,5,15,5S8.324,6.78,6.485,9.763
				C6.34,9.999,6.031,10.068,5.797,9.926C5.563,9.78,5.489,9.473,5.634,9.237C7.657,5.958,11.158,4,15,4s7.343,1.958,9.366,5.237
				c0.145,0.235,0.071,0.543-0.163,0.688C24.121,9.976,24.03,10,23.94,10z"/>
		</g>
		<g>
			<path d="M13,21c-0.276,0-0.5-0.224-0.5-0.5S12.724,20,13,20c1.202,0,2-3.01,2-5c0-1.958,0.733-6,3-6c0.276,0,0.5,0.224,0.5,0.5
				S18.276,10,18,10c-1.202,0-2,3.01-2,5C16,16.958,15.267,21,13,21z"/>
		</g>
		<g>
			<path d="M8.555,19c-0.223,0-0.418-0.146-0.48-0.36l-1.27-4.354l-1.27,4.354c-0.125,0.428-0.836,0.428-0.961,0l-1.75-6
				c-0.077-0.265,0.075-0.542,0.341-0.62c0.263-0.073,0.542,0.076,0.62,0.341l1.27,4.354l1.27-4.354
				c0.125-0.428,0.836-0.428,0.961,0l1.27,4.354l1.27-4.354c0.078-0.265,0.353-0.414,0.62-0.341c0.266,0.078,0.418,0.355,0.341,0.62
				l-1.75,6C8.973,18.854,8.777,19,8.555,19z"/>
		</g>
		<g>
			<path d="M12.5,19c-0.276,0-0.5-0.224-0.5-0.5v-4c0-0.276,0.224-0.5,0.5-0.5s0.5,0.224,0.5,0.5v4C13,18.776,12.776,19,12.5,19z"/>
		</g>
		<g>
			<path d="M18.5,19c-0.276,0-0.5-0.224-0.5-0.5v-6c0-0.276,0.224-0.5,0.5-0.5h4c0.276,0,0.5,0.224,0.5,0.5S22.776,13,22.5,13H19
				v5.5C19,18.776,18.776,19,18.5,19z"/>
		</g>
		<g>
			<path d="M22.5,16h-4c-0.276,0-0.5-0.224-0.5-0.5s0.224-0.5,0.5-0.5h4c0.276,0,0.5,0.224,0.5,0.5S22.776,16,22.5,16z"/>
		</g>
		<g>
			<path d="M25.5,19c-0.276,0-0.5-0.224-0.5-0.5v-4c0-0.276,0.224-0.5,0.5-0.5s0.5,0.224,0.5,0.5v4C26,18.776,25.776,19,25.5,19z"/>
		</g>
		<g>
			<circle cx="12.5" cy="12.5" r="0.5"/>
		</g>
		<g>
			<circle cx="25.5" cy="12.5" r="0.5"/>
		</g>
		<g>
			<path d="M26.5,21h-23C1.57,21,0,19.43,0,17.5v-5C0,10.57,1.57,9,3.5,9h23c1.93,0,3.5,1.57,3.5,3.5v5C30,19.43,28.43,21,26.5,21z
				 M3.5,10C2.121,10,1,11.121,1,12.5v5C1,18.879,2.121,20,3.5,20h23c1.379,0,2.5-1.121,2.5-2.5v-5c0-1.379-1.121-2.5-2.5-2.5H3.5z"
				/>
		</g>
	</g>
</g>
<g id="Archive">
</g>
<g id="Archive_File">
</g>
<g id="News">
</g>
<g id="Home">
</g>
<g id="Collaboration">
</g>
<g id="Announcement">
</g>
<g id="Watch">
</g>
<g id="Clock">
</g>
<g id="Volume">
</g>
<g id="Mute">
</g>
<g id="Hand">
</g>
<g id="Layers">
</g>
<g id="Bell">
</g>
<g id="Speach_Bubble">
</g>
<g id="Speach_Bubbles">
</g>
<g id="Zoom_In">
</g>
<g id="Zoom_Out">
</g>
<g id="Search">
</g>
<g id="Back_Arrow">
</g>
<g id="Close">
</g>
<g id="Check_2">
</g>
<g id="Left_Arrow_2">
</g>
<g id="Right_Arrow_2">
</g>
</svg>
