<?xml version="1.0" encoding="iso-8859-1"?>
<!-- Generator: Adobe Illustrator 19.2.1, SVG Export Plug-In . SVG Version: 6.00 Build 0)  -->
<svg version="1.1" xmlns="http://www.w3.org/2000/svg" xmlns:xlink="http://www.w3.org/1999/xlink" x="0px" y="0px"
	 viewBox="0 0 24 24" style="enable-background:new 0 0 24 24;" xml:space="preserve">
<g id="Cutting_Board_1">
</g>
<g id="Cutting_Board_2">
</g>
<g id="Chef_x27_s_Hat_1">
</g>
<g id="Chef_x27_s_Hat_2">
</g>
<g id="Kitchen_Scale">
</g>
<g id="Measuring_Cup">
</g>
<g id="Pot_1">
</g>
<g id="Pot_2">
</g>
<g id="Wok_1">
</g>
<g id="Wok_2">
</g>
<g id="Teapot">
</g>
<g id="Plate">
</g>
<g id="Sauce_Boat">
</g>
<g id="Cauldron">
</g>
<g id="Cookbook">
</g>
<g id="Salt_Pot">
</g>
<g id="Pepper_Pot_1">
</g>
<g id="Pepper_Pot_2">
</g>
<g id="Egg_Timer">
</g>
<g id="Olive_Oil_Pot">
</g>
<g id="Pancake_Griddle">
</g>
<g id="Pan">
</g>
<g id="Kettle">
</g>
<g id="Microwave">
</g>
<g id="Cooker">
</g>
<g id="Meat_Grinder">
</g>
<g id="Coffee_Maker">
</g>
<g id="Household_Mixer">
</g>
<g id="Stand_Mixer">
</g>
<g id="Hand_Blender">
</g>
<g id="Blender">
	<path d="M17.75,21.224l-0.556-5c-0.11-0.984-0.781-1.774-1.671-2.081c0.346-0.391,0.581-0.884,0.627-1.435l0.847-10.166
		c0.001-0.007-0.003-0.013-0.002-0.02C16.996,2.514,17,2.508,17,2.5C17,0.951,14.088,0,12,0S7,0.951,7,2.5
		c0,0.008,0.004,0.014,0.004,0.022c0,0.007-0.003,0.013-0.002,0.02l0.847,10.166c0.046,0.551,0.28,1.044,0.627,1.435
		c-0.89,0.307-1.561,1.097-1.671,2.081l-0.556,5c-0.078,0.706,0.148,1.414,0.623,1.943C7.346,23.697,8.024,24,8.734,24h6.531
		c0.71,0,1.389-0.303,1.862-0.833C17.602,22.638,17.829,21.93,17.75,21.224z M15.155,12.625C15.09,13.396,14.434,14,13.66,14H10.34
		c-0.639,0-1.178-0.422-1.39-1H9.5c0.276,0,0.5-0.224,0.5-0.5S9.776,12,9.5,12H8.793L8.71,11H9.5c0.276,0,0.5-0.224,0.5-0.5
		S9.776,10,9.5,10H8.627L8.543,9H9.5C9.776,9,10,8.776,10,8.5S9.776,8,9.5,8H8.46L8.377,7H9.5C9.776,7,10,6.776,10,6.5
		S9.776,6,9.5,6H8.293L8.21,5H9.5C9.776,5,10,4.776,10,4.5S9.776,4,9.5,4H8.127L8.043,3h7.913L15.155,12.625z M9,18
		c-0.551,0-1-0.449-1-1s0.449-1,1-1s1,0.449,1,1S9.551,18,9,18z M12,21c-1.103,0-2-0.897-2-2s0.897-2,2-2s2,0.897,2,2
		S13.103,21,12,21z"/>
</g>
<g id="Cooker_Hood">
</g>
<g id="Refrigerator">
</g>
<g id="Freezer">
</g>
<g id="Apron">
</g>
<g id="Oven_Gloves">
</g>
<g id="Rolling_Pin">
</g>
<g id="Sieve">
</g>
<g id="Tea_Sieve">
</g>
<g id="Grater">
</g>
<g id="Knife_Holder">
</g>
<g id="Funnel">
</g>
<g id="Kitchen_Clock">
</g>
<g id="Lemon_Juicer">
</g>
<g id="Pastry_Bag_1">
</g>
<g id="Pastry_Bag_2">
</g>
<g id="Corkscrew">
</g>
<g id="Bottle_Opener">
</g>
<g id="Service">
</g>
<g id="Chopsticks">
</g>
<g id="Hatchet">
</g>
<g id="Filleting_Knife">
</g>
<g id="Bread_Knife">
</g>
<g id="Herb_Knife">
</g>
<g id="Whetting">
</g>
<g id="Cake_Knife">
</g>
<g id="Layer_58">
</g>
<g id="Ladle">
</g>
<g id="Sauce_Spoon">
</g>
<g id="Egg_Beater">
</g>
<g id="Meat_Fork">
</g>
<g id="Kitchen_Spoon_1">
</g>
<g id="Kitchen_Spoon_2">
</g>
<g id="Pizza_Cutter">
</g>
<g id="Potato_Musher">
</g>
<g id="Peeler">
</g>
<g id="Honey_Dipper">
</g>
<g id="Fork">
</g>
<g id="Knife">
</g>
<g id="Spoon">
</g>
<g id="Cutlery_Set">
</g>
<g id="Sugar_Bowl">
</g>
<g id="Matches">
</g>
<g id="Cezve">
</g>
</svg>
