<?xml version="1.0" encoding="iso-8859-1"?>
<!-- Generator: Adobe Illustrator 19.2.1, SVG Export Plug-In . SVG Version: 6.00 Build 0)  -->
<svg version="1.1" xmlns="http://www.w3.org/2000/svg" xmlns:xlink="http://www.w3.org/1999/xlink" x="0px" y="0px"
	 viewBox="0 0 24 24" style="enable-background:new 0 0 24 24;" xml:space="preserve">
<g id="Cutting_Board_1">
</g>
<g id="Cutting_Board_2">
</g>
<g id="Chef_x27_s_Hat_1">
	<path d="M16.794,3.03C16.925,3.499,17,3.99,17,4.5C17,4.776,16.776,5,16.5,5S16,4.776,16,4.5c0-0.566-0.117-1.102-0.308-1.602
		c-0.039-0.101-0.081-0.199-0.126-0.296c-0.07-0.148-0.149-0.291-0.234-0.43c-0.055-0.09-0.107-0.182-0.168-0.267
		c-0.104-0.147-0.223-0.283-0.343-0.416c-0.084-0.093-0.169-0.184-0.26-0.269c-0.149-0.139-0.305-0.271-0.472-0.389
		c-0.095-0.067-0.197-0.123-0.297-0.182c-0.128-0.076-0.257-0.15-0.392-0.213c-0.105-0.049-0.212-0.093-0.321-0.135
		c-0.154-0.058-0.312-0.106-0.474-0.147c-0.096-0.025-0.191-0.053-0.289-0.071C12.05,0.034,11.779,0,11.5,0s-0.55,0.034-0.815,0.082
		c-0.098,0.018-0.193,0.046-0.289,0.071c-0.161,0.041-0.32,0.089-0.474,0.147C9.813,0.342,9.705,0.386,9.6,0.436
		C9.465,0.499,9.336,0.572,9.208,0.649c-0.1,0.06-0.202,0.115-0.297,0.182C8.744,0.949,8.589,1.081,8.44,1.22
		C8.348,1.305,8.264,1.396,8.18,1.489C8.059,1.622,7.941,1.758,7.836,1.905C7.775,1.99,7.723,2.082,7.668,2.172
		c-0.085,0.139-0.164,0.282-0.234,0.43C7.389,2.699,7.347,2.798,7.308,2.898C7.117,3.398,7,3.934,7,4.5C7,4.776,6.776,5,6.5,5
		S6,4.776,6,4.5c0-0.51,0.075-1.001,0.206-1.47C3.863,3.185,2,5.119,2,7.5c0,1.912,1.215,3.598,3,4.228v9.054V22.5
		c0,0.171,0.088,0.331,0.233,0.423C5.303,22.967,6.991,24,11.5,24c3.555,0,6.08-0.994,6.186-1.036C17.875,22.888,18,22.705,18,22.5
		v-1.718v-9.054c1.785-0.63,3-2.316,3-4.228C21,5.119,19.137,3.185,16.794,3.03z M17,22.147C16.237,22.401,14.155,23,11.5,23
		c-3.268,0-4.93-0.564-5.5-0.81v-0.778c0.014,0.003,0.032,0.006,0.046,0.009c0.304,0.066,0.636,0.131,0.993,0.194
		c0.033,0.006,0.062,0.012,0.096,0.017c0.358,0.061,0.744,0.116,1.15,0.167c0.074,0.009,0.145,0.018,0.22,0.027
		c0.409,0.047,0.836,0.087,1.286,0.116c0.073,0.005,0.148,0.008,0.223,0.012C10.491,21.981,10.983,22,11.5,22
		s1.009-0.019,1.486-0.046c0.074-0.004,0.15-0.007,0.223-0.012c0.45-0.029,0.877-0.069,1.286-0.116
		c0.075-0.009,0.147-0.018,0.22-0.027c0.405-0.05,0.792-0.106,1.15-0.167c0.034-0.006,0.063-0.012,0.096-0.017
		c0.358-0.062,0.69-0.128,0.993-0.194c0.014-0.003,0.032-0.006,0.046-0.009V22.147z"/>
</g>
<g id="Chef_x27_s_Hat_2">
</g>
<g id="Kitchen_Scale">
</g>
<g id="Measuring_Cup">
</g>
<g id="Pot_1">
</g>
<g id="Pot_2">
</g>
<g id="Wok_1">
</g>
<g id="Wok_2">
</g>
<g id="Teapot">
</g>
<g id="Plate">
</g>
<g id="Sauce_Boat">
</g>
<g id="Cauldron">
</g>
<g id="Cookbook">
</g>
<g id="Salt_Pot">
</g>
<g id="Pepper_Pot_1">
</g>
<g id="Pepper_Pot_2">
</g>
<g id="Egg_Timer">
</g>
<g id="Olive_Oil_Pot">
</g>
<g id="Pancake_Griddle">
</g>
<g id="Pan">
</g>
<g id="Kettle">
</g>
<g id="Microwave">
</g>
<g id="Cooker">
</g>
<g id="Meat_Grinder">
</g>
<g id="Coffee_Maker">
</g>
<g id="Household_Mixer">
</g>
<g id="Stand_Mixer">
</g>
<g id="Hand_Blender">
</g>
<g id="Blender">
</g>
<g id="Cooker_Hood">
</g>
<g id="Refrigerator">
</g>
<g id="Freezer">
</g>
<g id="Apron">
</g>
<g id="Oven_Gloves">
</g>
<g id="Rolling_Pin">
</g>
<g id="Sieve">
</g>
<g id="Tea_Sieve">
</g>
<g id="Grater">
</g>
<g id="Knife_Holder">
</g>
<g id="Funnel">
</g>
<g id="Kitchen_Clock">
</g>
<g id="Lemon_Juicer">
</g>
<g id="Pastry_Bag_1">
</g>
<g id="Pastry_Bag_2">
</g>
<g id="Corkscrew">
</g>
<g id="Bottle_Opener">
</g>
<g id="Service">
</g>
<g id="Chopsticks">
</g>
<g id="Hatchet">
</g>
<g id="Filleting_Knife">
</g>
<g id="Bread_Knife">
</g>
<g id="Herb_Knife">
</g>
<g id="Whetting">
</g>
<g id="Cake_Knife">
</g>
<g id="Layer_58">
</g>
<g id="Ladle">
</g>
<g id="Sauce_Spoon">
</g>
<g id="Egg_Beater">
</g>
<g id="Meat_Fork">
</g>
<g id="Kitchen_Spoon_1">
</g>
<g id="Kitchen_Spoon_2">
</g>
<g id="Pizza_Cutter">
</g>
<g id="Potato_Musher">
</g>
<g id="Peeler">
</g>
<g id="Honey_Dipper">
</g>
<g id="Fork">
</g>
<g id="Knife">
</g>
<g id="Spoon">
</g>
<g id="Cutlery_Set">
</g>
<g id="Sugar_Bowl">
</g>
<g id="Matches">
</g>
<g id="Cezve">
</g>
</svg>
