<?xml version="1.0" encoding="iso-8859-1"?>
<!-- Generator: Adobe Illustrator 19.2.1, SVG Export Plug-In . SVG Version: 6.00 Build 0)  -->
<svg version="1.1" xmlns="http://www.w3.org/2000/svg" xmlns:xlink="http://www.w3.org/1999/xlink" x="0px" y="0px"
	 viewBox="0 0 24 24" style="enable-background:new 0 0 24 24;" xml:space="preserve">
<g id="Cutting_Board_1">
</g>
<g id="Cutting_Board_2">
</g>
<g id="Chef_x27_s_Hat_1">
</g>
<g id="Chef_x27_s_Hat_2">
</g>
<g id="Kitchen_Scale">
</g>
<g id="Measuring_Cup">
</g>
<g id="Pot_1">
</g>
<g id="Pot_2">
</g>
<g id="Wok_1">
</g>
<g id="Wok_2">
</g>
<g id="Teapot">
</g>
<g id="Plate">
</g>
<g id="Sauce_Boat">
</g>
<g id="Cauldron">
</g>
<g id="Cookbook">
</g>
<g id="Salt_Pot">
</g>
<g id="Pepper_Pot_1">
</g>
<g id="Pepper_Pot_2">
</g>
<g id="Egg_Timer">
</g>
<g id="Olive_Oil_Pot">
</g>
<g id="Pancake_Griddle">
</g>
<g id="Pan">
</g>
<g id="Kettle">
</g>
<g id="Microwave">
</g>
<g id="Cooker">
</g>
<g id="Meat_Grinder">
</g>
<g id="Coffee_Maker">
</g>
<g id="Household_Mixer">
</g>
<g id="Stand_Mixer">
</g>
<g id="Hand_Blender">
</g>
<g id="Blender">
</g>
<g id="Cooker_Hood">
</g>
<g id="Refrigerator">
</g>
<g id="Freezer">
</g>
<g id="Apron">
</g>
<g id="Oven_Gloves">
</g>
<g id="Rolling_Pin">
</g>
<g id="Sieve">
</g>
<g id="Tea_Sieve">
</g>
<g id="Grater">
</g>
<g id="Knife_Holder">
</g>
<g id="Funnel">
</g>
<g id="Kitchen_Clock">
</g>
<g id="Lemon_Juicer">
</g>
<g id="Pastry_Bag_1">
</g>
<g id="Pastry_Bag_2">
</g>
<g id="Corkscrew">
</g>
<g id="Bottle_Opener">
</g>
<g id="Service">
</g>
<g id="Chopsticks">
	<g>
		<path d="M12.946,0.274c-0.121-0.239-0.411-0.339-0.652-0.229c-0.244,0.11-0.357,0.393-0.258,0.642l8.937,22.317
			C21.21,23.609,21.783,24,22.434,24c0.244,0,0.479-0.056,0.7-0.166c0.772-0.387,1.087-1.331,0.699-2.105L12.946,0.274z"/>
		<path d="M13,17.5c0-0.276-0.224-0.5-0.5-0.5h-12C0.224,17,0,17.224,0,17.5c0,2.385,1.295,4.469,3.216,5.6
			C3.088,23.19,3,23.332,3,23.5C3,23.776,3.224,24,3.5,24h6c0.276,0,0.5-0.224,0.5-0.5c0-0.168-0.088-0.31-0.216-0.4
			C11.705,21.969,13,19.885,13,17.5z M2.786,19.067c0.236-0.139,0.544-0.058,0.684,0.182C4.096,20.329,5.257,21,6.5,21
			C6.776,21,7,21.224,7,21.5S6.776,22,6.5,22c-1.599,0-3.092-0.862-3.896-2.25C2.466,19.512,2.548,19.206,2.786,19.067z"/>
		<path d="M16.612,14.803c-0.072-0.183-0.245-0.305-0.441-0.314c-0.189-0.012-0.378,0.098-0.468,0.272l-3.537,6.97
			c-0.188,0.375-0.218,0.799-0.086,1.196c0.133,0.397,0.412,0.719,0.786,0.906c0.22,0.11,0.456,0.166,0.7,0.166
			c0.65,0,1.225-0.391,1.459-0.993l2.361-5.897c0.048-0.12,0.048-0.252,0-0.372L16.612,14.803z"/>
		<path d="M19.19,10.372c0.086,0.168,0.259,0.274,0.446,0.274c0.007,0,0.015,0,0.022,0c0.195-0.009,0.369-0.131,0.441-0.313
			l3.863-9.646c0.1-0.249-0.014-0.531-0.258-0.642c-0.241-0.109-0.531-0.01-0.652,0.229l-4.379,8.629
			c-0.071,0.142-0.071,0.31,0,0.452L19.19,10.372z"/>
	</g>
</g>
<g id="Hatchet">
</g>
<g id="Filleting_Knife">
</g>
<g id="Bread_Knife">
</g>
<g id="Herb_Knife">
</g>
<g id="Whetting">
</g>
<g id="Cake_Knife">
</g>
<g id="Layer_58">
</g>
<g id="Ladle">
</g>
<g id="Sauce_Spoon">
</g>
<g id="Egg_Beater">
</g>
<g id="Meat_Fork">
</g>
<g id="Kitchen_Spoon_1">
</g>
<g id="Kitchen_Spoon_2">
</g>
<g id="Pizza_Cutter">
</g>
<g id="Potato_Musher">
</g>
<g id="Peeler">
</g>
<g id="Honey_Dipper">
</g>
<g id="Fork">
</g>
<g id="Knife">
</g>
<g id="Spoon">
</g>
<g id="Cutlery_Set">
</g>
<g id="Sugar_Bowl">
</g>
<g id="Matches">
</g>
<g id="Cezve">
</g>
</svg>
