<?xml version="1.0" encoding="iso-8859-1"?>
<!-- Generator: Adobe Illustrator 19.2.1, SVG Export Plug-In . SVG Version: 6.00 Build 0)  -->
<svg version="1.1" xmlns="http://www.w3.org/2000/svg" xmlns:xlink="http://www.w3.org/1999/xlink" x="0px" y="0px"
	 viewBox="0 0 24 24" style="enable-background:new 0 0 24 24;" xml:space="preserve">
<g id="Cutting_Board_1">
</g>
<g id="Cutting_Board_2">
</g>
<g id="Chef_x27_s_Hat_1">
</g>
<g id="Chef_x27_s_Hat_2">
</g>
<g id="Kitchen_Scale">
</g>
<g id="Measuring_Cup">
</g>
<g id="Pot_1">
</g>
<g id="Pot_2">
</g>
<g id="Wok_1">
</g>
<g id="Wok_2">
</g>
<g id="Teapot">
</g>
<g id="Plate">
</g>
<g id="Sauce_Boat">
</g>
<g id="Cauldron">
</g>
<g id="Cookbook">
</g>
<g id="Salt_Pot">
</g>
<g id="Pepper_Pot_1">
</g>
<g id="Pepper_Pot_2">
</g>
<g id="Egg_Timer">
</g>
<g id="Olive_Oil_Pot">
</g>
<g id="Pancake_Griddle">
</g>
<g id="Pan">
</g>
<g id="Kettle">
</g>
<g id="Microwave">
</g>
<g id="Cooker">
</g>
<g id="Meat_Grinder">
</g>
<g id="Coffee_Maker">
	<path d="M20.74,4.861c-0.567-1.133-1.889-1.654-3.074-1.207l-1.706,0.64c-0.346-1.032-3.259-1.247-4.834-1.285
		c0.075-0.126,0.179-0.234,0.3-0.359C11.682,2.385,12,2.058,12,1.5C12,0.673,11.327,0,10.5,0S9,0.673,9,1.5
		c0,0.558,0.318,0.885,0.573,1.149c0.121,0.125,0.225,0.233,0.3,0.359C8.461,3.043,5.972,3.219,5.224,4H2.5
		C2.298,4,2.115,4.122,2.038,4.309C1.961,4.496,2.004,4.71,2.147,4.854l3,3c0.067,0.067,0.151,0.103,0.237,0.124l0.57,5.129
		C5.397,13.326,5,13.866,5,14.5c0,0.632,0.393,1.171,0.947,1.391l-0.943,7.547c-0.018,0.142,0.026,0.286,0.121,0.393
		C5.22,23.938,5.357,24,5.5,24h2.522l0.355-8h1.001l-0.355,8h2.954l-0.355-8h1.001l0.355,8H15.5c0.007,0,0.013-0.001,0.02,0
		c0.276,0,0.5-0.224,0.5-0.5c0-0.07-0.015-0.138-0.041-0.198l-0.926-7.41C15.607,15.671,16,15.132,16,14.5
		c0-0.634-0.396-1.174-0.953-1.393l0.569-5.122c0.059-0.014,0.117-0.037,0.17-0.074l1.2-0.844c0.185-0.091,0.391-0.099,0.581-0.021
		c0.19,0.079,0.331,0.23,0.397,0.428C17.988,7.545,18,7.62,18,7.695V10.5c0,0.827,0.673,1.5,1.5,1.5s1.5-0.673,1.5-1.5V5.964
		C21,5.584,20.91,5.203,20.74,4.861z M10.5,4c2.174,0,3.629,0.274,4.243,0.498c-0.04,0.015-0.08,0.029-0.127,0.044
		c-0.033,0.011-0.063,0.021-0.1,0.032c-0.099,0.029-0.212,0.058-0.337,0.087c-0.015,0.003-0.026,0.007-0.041,0.01
		c-0.142,0.032-0.303,0.063-0.475,0.093C13.612,4.773,13.553,4.781,13.5,4.79c-0.129,0.02-0.264,0.04-0.408,0.059
		c-0.074,0.009-0.152,0.018-0.23,0.027c-0.14,0.016-0.286,0.03-0.439,0.044c-0.088,0.008-0.177,0.015-0.27,0.022
		c-0.167,0.012-0.344,0.022-0.524,0.03c-0.087,0.004-0.171,0.009-0.261,0.013C11.093,4.993,10.805,5,10.5,5S9.908,4.993,9.631,4.984
		C9.541,4.98,9.457,4.975,9.37,4.971c-0.18-0.009-0.357-0.018-0.524-0.03C8.754,4.934,8.665,4.926,8.577,4.919
		C8.425,4.905,8.278,4.891,8.138,4.875C8.06,4.866,7.982,4.858,7.908,4.848C7.764,4.83,7.63,4.81,7.501,4.79
		C7.447,4.781,7.388,4.773,7.337,4.764c-0.173-0.03-0.334-0.061-0.475-0.093c-0.015-0.003-0.026-0.007-0.041-0.01
		C6.696,4.633,6.583,4.603,6.483,4.574C6.447,4.564,6.417,4.553,6.384,4.543c-0.047-0.015-0.088-0.03-0.128-0.044
		C6.871,4.274,8.326,4,10.5,4z M9.071,5.96L9.376,13H8.374L8.018,5.872C8.378,5.912,8.736,5.941,9.071,5.96z M11.625,13l0.353-7.044
		c0.321-0.019,0.662-0.046,1.005-0.084L12.626,13H11.625z M10.5,1C10.776,1,11,1.224,11,1.5c0,0.14-0.075,0.23-0.291,0.453
		c-0.066,0.068-0.138,0.142-0.209,0.224c-0.071-0.082-0.143-0.156-0.209-0.224C10.075,1.73,10,1.64,10,1.5C10,1.224,10.224,1,10.5,1
		z"/>
</g>
<g id="Household_Mixer">
</g>
<g id="Stand_Mixer">
</g>
<g id="Hand_Blender">
</g>
<g id="Blender">
</g>
<g id="Cooker_Hood">
</g>
<g id="Refrigerator">
</g>
<g id="Freezer">
</g>
<g id="Apron">
</g>
<g id="Oven_Gloves">
</g>
<g id="Rolling_Pin">
</g>
<g id="Sieve">
</g>
<g id="Tea_Sieve">
</g>
<g id="Grater">
</g>
<g id="Knife_Holder">
</g>
<g id="Funnel">
</g>
<g id="Kitchen_Clock">
</g>
<g id="Lemon_Juicer">
</g>
<g id="Pastry_Bag_1">
</g>
<g id="Pastry_Bag_2">
</g>
<g id="Corkscrew">
</g>
<g id="Bottle_Opener">
</g>
<g id="Service">
</g>
<g id="Chopsticks">
</g>
<g id="Hatchet">
</g>
<g id="Filleting_Knife">
</g>
<g id="Bread_Knife">
</g>
<g id="Herb_Knife">
</g>
<g id="Whetting">
</g>
<g id="Cake_Knife">
</g>
<g id="Layer_58">
</g>
<g id="Ladle">
</g>
<g id="Sauce_Spoon">
</g>
<g id="Egg_Beater">
</g>
<g id="Meat_Fork">
</g>
<g id="Kitchen_Spoon_1">
</g>
<g id="Kitchen_Spoon_2">
</g>
<g id="Pizza_Cutter">
</g>
<g id="Potato_Musher">
</g>
<g id="Peeler">
</g>
<g id="Honey_Dipper">
</g>
<g id="Fork">
</g>
<g id="Knife">
</g>
<g id="Spoon">
</g>
<g id="Cutlery_Set">
</g>
<g id="Sugar_Bowl">
</g>
<g id="Matches">
</g>
<g id="Cezve">
</g>
</svg>
