<?xml version="1.0" encoding="iso-8859-1"?>
<!-- Generator: Adobe Illustrator 19.2.1, SVG Export Plug-In . SVG Version: 6.00 Build 0)  -->
<svg version="1.1" xmlns="http://www.w3.org/2000/svg" xmlns:xlink="http://www.w3.org/1999/xlink" x="0px" y="0px"
	 viewBox="0 0 24 24" style="enable-background:new 0 0 24 24;" xml:space="preserve">
<g id="Cutting_Board_1">
</g>
<g id="Cutting_Board_2">
</g>
<g id="Chef_x27_s_Hat_1">
</g>
<g id="Chef_x27_s_Hat_2">
</g>
<g id="Kitchen_Scale">
</g>
<g id="Measuring_Cup">
</g>
<g id="Pot_1">
</g>
<g id="Pot_2">
</g>
<g id="Wok_1">
</g>
<g id="Wok_2">
</g>
<g id="Teapot">
</g>
<g id="Plate">
</g>
<g id="Sauce_Boat">
</g>
<g id="Cauldron">
</g>
<g id="Cookbook">
</g>
<g id="Salt_Pot">
</g>
<g id="Pepper_Pot_1">
</g>
<g id="Pepper_Pot_2">
</g>
<g id="Egg_Timer">
</g>
<g id="Olive_Oil_Pot">
</g>
<g id="Pancake_Griddle">
</g>
<g id="Pan">
</g>
<g id="Kettle">
</g>
<g id="Microwave">
</g>
<g id="Cooker">
	<g>
		<circle cx="5.5" cy="7.5" r="2.5"/>
		<circle cx="15.5" cy="7.5" r="2.5"/>
		<path d="M7.5,14h-2C4.122,14,3,15.122,3,16.5S4.122,19,5.5,19h2c1.378,0,2.5-1.122,2.5-2.5S8.878,14,7.5,14z"/>
		<path d="M22.5,1h-21C0.673,1,0,1.673,0,2.5v19C0,22.327,0.673,23,1.5,23h21c0.827,0,1.5-0.673,1.5-1.5v-19
			C24,1.673,23.327,1,22.5,1z M5.5,4C7.43,4,9,5.57,9,7.5S7.43,11,5.5,11S2,9.43,2,7.5S3.57,4,5.5,4z M7.5,20h-2
			C3.57,20,2,18.43,2,16.5S3.57,13,5.5,13h2c1.93,0,3.5,1.57,3.5,3.5S9.43,20,7.5,20z M15.5,20c-1.93,0-3.5-1.57-3.5-3.5
			s1.57-3.5,3.5-3.5s3.5,1.57,3.5,3.5S17.43,20,15.5,20z M15.5,11C13.57,11,12,9.43,12,7.5S13.57,4,15.5,4S19,5.57,19,7.5
			S17.43,11,15.5,11z M21.5,17c-0.276,0-0.5-0.224-0.5-0.5c0-0.276,0.224-0.5,0.5-0.5s0.5,0.224,0.5,0.5
			C22,16.776,21.776,17,21.5,17z M21.5,14c-0.276,0-0.5-0.224-0.5-0.5c0-0.276,0.224-0.5,0.5-0.5s0.5,0.224,0.5,0.5
			C22,13.776,21.776,14,21.5,14z M21.5,11c-0.276,0-0.5-0.224-0.5-0.5c0-0.276,0.224-0.5,0.5-0.5s0.5,0.224,0.5,0.5
			C22,10.776,21.776,11,21.5,11z M21.5,8C21.224,8,21,7.776,21,7.5C21,7.224,21.224,7,21.5,7S22,7.224,22,7.5
			C22,7.776,21.776,8,21.5,8z"/>
		<circle cx="15.5" cy="16.5" r="2.5"/>
	</g>
</g>
<g id="Meat_Grinder">
</g>
<g id="Coffee_Maker">
</g>
<g id="Household_Mixer">
</g>
<g id="Stand_Mixer">
</g>
<g id="Hand_Blender">
</g>
<g id="Blender">
</g>
<g id="Cooker_Hood">
</g>
<g id="Refrigerator">
</g>
<g id="Freezer">
</g>
<g id="Apron">
</g>
<g id="Oven_Gloves">
</g>
<g id="Rolling_Pin">
</g>
<g id="Sieve">
</g>
<g id="Tea_Sieve">
</g>
<g id="Grater">
</g>
<g id="Knife_Holder">
</g>
<g id="Funnel">
</g>
<g id="Kitchen_Clock">
</g>
<g id="Lemon_Juicer">
</g>
<g id="Pastry_Bag_1">
</g>
<g id="Pastry_Bag_2">
</g>
<g id="Corkscrew">
</g>
<g id="Bottle_Opener">
</g>
<g id="Service">
</g>
<g id="Chopsticks">
</g>
<g id="Hatchet">
</g>
<g id="Filleting_Knife">
</g>
<g id="Bread_Knife">
</g>
<g id="Herb_Knife">
</g>
<g id="Whetting">
</g>
<g id="Cake_Knife">
</g>
<g id="Layer_58">
</g>
<g id="Ladle">
</g>
<g id="Sauce_Spoon">
</g>
<g id="Egg_Beater">
</g>
<g id="Meat_Fork">
</g>
<g id="Kitchen_Spoon_1">
</g>
<g id="Kitchen_Spoon_2">
</g>
<g id="Pizza_Cutter">
</g>
<g id="Potato_Musher">
</g>
<g id="Peeler">
</g>
<g id="Honey_Dipper">
</g>
<g id="Fork">
</g>
<g id="Knife">
</g>
<g id="Spoon">
</g>
<g id="Cutlery_Set">
</g>
<g id="Sugar_Bowl">
</g>
<g id="Matches">
</g>
<g id="Cezve">
</g>
</svg>
