<?xml version="1.0" encoding="iso-8859-1"?>
<!-- Generator: Adobe Illustrator 19.2.1, SVG Export Plug-In . SVG Version: 6.00 Build 0)  -->
<svg version="1.1" xmlns="http://www.w3.org/2000/svg" xmlns:xlink="http://www.w3.org/1999/xlink" x="0px" y="0px"
	 viewBox="0 0 24 24" style="enable-background:new 0 0 24 24;" xml:space="preserve">
<g id="Cutting_Board_1">
</g>
<g id="Cutting_Board_2">
</g>
<g id="Chef_x27_s_Hat_1">
</g>
<g id="Chef_x27_s_Hat_2">
</g>
<g id="Kitchen_Scale">
</g>
<g id="Measuring_Cup">
</g>
<g id="Pot_1">
</g>
<g id="Pot_2">
</g>
<g id="Wok_1">
</g>
<g id="Wok_2">
</g>
<g id="Teapot">
</g>
<g id="Plate">
</g>
<g id="Sauce_Boat">
</g>
<g id="Cauldron">
</g>
<g id="Cookbook">
	<path d="M21,6.5c0-0.142-0.07-0.26-0.165-0.351c-0.001-0.001-0.002-0.002-0.003-0.003c-0.022-0.021-0.037-0.05-0.063-0.067
		c-1.048-1.165-1.027-4.134,0.064-5.225c0.143-0.143,0.186-0.358,0.108-0.545C20.865,0.122,20.682,0,20.48,0H5.201
		C3.485,0,1.98,1.402,1.98,3v1v17c0,1.738,1.144,3,2.721,3H20.48c0.276,0,0.5-0.224,0.5-0.5V6.599C20.987,6.566,21,6.535,21,6.5z
		 M2.98,3c0-1.047,1.059-2,2.221-2h14.329c-0.288,0.581-0.452,1.28-0.506,2H4.98c-0.276,0-0.5,0.224-0.5,0.5S4.704,4,4.98,4h14.043
		c0.054,0.72,0.219,1.419,0.506,2H5.201C4.039,6,2.98,5.047,2.98,4V3z M18.88,11.252c-0.196,0.904-0.664,1.812-1.221,2.369
		c-0.566,0.567-1.32,0.879-2.121,0.879c-0.647,0-1.257-0.212-1.768-0.589l-1.679,1.492l5.743,5.743c0.195,0.195,0.195,0.512,0,0.707
		C17.736,21.951,17.608,22,17.48,22s-0.256-0.049-0.354-0.146l-5.784-5.784l-6.53,5.804C4.717,21.958,4.598,22,4.48,22
		c-0.138,0-0.275-0.057-0.374-0.168c-0.184-0.206-0.165-0.522,0.042-0.706l6.486-5.765l-0.094-0.094C9.723,14.45,8.636,14,7.48,14
		c-0.133,0-0.26-0.053-0.354-0.146l-3-3c-0.195-0.195-0.195-0.512,0-0.707s0.512-0.195,0.707,0l2.857,2.857
		c0.569,0.022,1.116,0.152,1.638,0.345c-0.193-0.522-0.323-1.068-0.345-1.638L6.126,8.854c-0.195-0.195-0.195-0.512,0-0.707
		s0.512-0.195,0.707,0l3,3C9.927,11.24,9.98,11.367,9.98,11.5c0,1.156,0.45,2.243,1.268,3.061l0.135,0.135l1.685-1.498
		c-0.343-0.496-0.53-1.082-0.53-1.698c0-0.801,0.312-1.555,0.878-2.121c0.766-0.766,2.136-1.321,3.258-1.321
		c0.705,0,1.291,0.212,1.692,0.614C18.935,9.24,19.117,10.157,18.88,11.252z"/>
</g>
<g id="Salt_Pot">
</g>
<g id="Pepper_Pot_1">
</g>
<g id="Pepper_Pot_2">
</g>
<g id="Egg_Timer">
</g>
<g id="Olive_Oil_Pot">
</g>
<g id="Pancake_Griddle">
</g>
<g id="Pan">
</g>
<g id="Kettle">
</g>
<g id="Microwave">
</g>
<g id="Cooker">
</g>
<g id="Meat_Grinder">
</g>
<g id="Coffee_Maker">
</g>
<g id="Household_Mixer">
</g>
<g id="Stand_Mixer">
</g>
<g id="Hand_Blender">
</g>
<g id="Blender">
</g>
<g id="Cooker_Hood">
</g>
<g id="Refrigerator">
</g>
<g id="Freezer">
</g>
<g id="Apron">
</g>
<g id="Oven_Gloves">
</g>
<g id="Rolling_Pin">
</g>
<g id="Sieve">
</g>
<g id="Tea_Sieve">
</g>
<g id="Grater">
</g>
<g id="Knife_Holder">
</g>
<g id="Funnel">
</g>
<g id="Kitchen_Clock">
</g>
<g id="Lemon_Juicer">
</g>
<g id="Pastry_Bag_1">
</g>
<g id="Pastry_Bag_2">
</g>
<g id="Corkscrew">
</g>
<g id="Bottle_Opener">
</g>
<g id="Service">
</g>
<g id="Chopsticks">
</g>
<g id="Hatchet">
</g>
<g id="Filleting_Knife">
</g>
<g id="Bread_Knife">
</g>
<g id="Herb_Knife">
</g>
<g id="Whetting">
</g>
<g id="Cake_Knife">
</g>
<g id="Layer_58">
</g>
<g id="Ladle">
</g>
<g id="Sauce_Spoon">
</g>
<g id="Egg_Beater">
</g>
<g id="Meat_Fork">
</g>
<g id="Kitchen_Spoon_1">
</g>
<g id="Kitchen_Spoon_2">
</g>
<g id="Pizza_Cutter">
</g>
<g id="Potato_Musher">
</g>
<g id="Peeler">
</g>
<g id="Honey_Dipper">
</g>
<g id="Fork">
</g>
<g id="Knife">
</g>
<g id="Spoon">
</g>
<g id="Cutlery_Set">
</g>
<g id="Sugar_Bowl">
</g>
<g id="Matches">
</g>
<g id="Cezve">
</g>
</svg>
