<?xml version="1.0" encoding="iso-8859-1"?>
<!-- Generator: Adobe Illustrator 19.2.1, SVG Export Plug-In . SVG Version: 6.00 Build 0)  -->
<svg version="1.1" xmlns="http://www.w3.org/2000/svg" xmlns:xlink="http://www.w3.org/1999/xlink" x="0px" y="0px"
	 viewBox="0 0 24 24" style="enable-background:new 0 0 24 24;" xml:space="preserve">
<g id="Cutting_Board_1">
</g>
<g id="Cutting_Board_2">
</g>
<g id="Chef_x27_s_Hat_1">
</g>
<g id="Chef_x27_s_Hat_2">
</g>
<g id="Kitchen_Scale">
</g>
<g id="Measuring_Cup">
</g>
<g id="Pot_1">
</g>
<g id="Pot_2">
</g>
<g id="Wok_1">
</g>
<g id="Wok_2">
</g>
<g id="Teapot">
</g>
<g id="Plate">
</g>
<g id="Sauce_Boat">
</g>
<g id="Cauldron">
</g>
<g id="Cookbook">
</g>
<g id="Salt_Pot">
</g>
<g id="Pepper_Pot_1">
</g>
<g id="Pepper_Pot_2">
</g>
<g id="Egg_Timer">
</g>
<g id="Olive_Oil_Pot">
</g>
<g id="Pancake_Griddle">
</g>
<g id="Pan">
</g>
<g id="Kettle">
</g>
<g id="Microwave">
</g>
<g id="Cooker">
</g>
<g id="Meat_Grinder">
</g>
<g id="Coffee_Maker">
</g>
<g id="Household_Mixer">
</g>
<g id="Stand_Mixer">
</g>
<g id="Hand_Blender">
</g>
<g id="Blender">
</g>
<g id="Cooker_Hood">
</g>
<g id="Refrigerator">
</g>
<g id="Freezer">
</g>
<g id="Apron">
</g>
<g id="Oven_Gloves">
</g>
<g id="Rolling_Pin">
</g>
<g id="Sieve">
</g>
<g id="Tea_Sieve">
</g>
<g id="Grater">
</g>
<g id="Knife_Holder">
</g>
<g id="Funnel">
</g>
<g id="Kitchen_Clock">
</g>
<g id="Lemon_Juicer">
</g>
<g id="Pastry_Bag_1">
</g>
<g id="Pastry_Bag_2">
</g>
<g id="Corkscrew">
	<path d="M20.5,0c-0.99,0-1.882,0.623-2.441,1.687C15.909,1.361,13.247,1,12,1S8.091,1.361,5.941,1.687C5.382,0.623,4.49,0,3.5,0
		c-1.654,0-3,1.794-3,4s1.346,4,3,4c0.99,0,1.882-0.623,2.441-1.687C7.837,6.601,10.13,6.915,11.5,6.985v1.286
		c0,0.654,0.418,1.228,1.042,1.428l2.026,0.644L9.819,11.53c-0.453,0.113-0.757,0.503-0.757,0.97s0.304,0.857,0.757,0.97
		l4.248,1.063l-3.798,1.085c-0.418,0.12-0.702,0.477-0.724,0.911c-0.022,0.434,0.224,0.818,0.627,0.979l2.608,1.043l-1.924,0.962
		c-0.363,0.182-0.579,0.56-0.55,0.965c0.029,0.405,0.296,0.75,0.681,0.878l1.087,0.363l-0.428,0.428
		C11.553,22.24,11.5,22.367,11.5,22.5v1c0,0.276,0.224,0.5,0.5,0.5s0.5-0.224,0.5-0.5v-0.793l0.854-0.854
		c0.123-0.123,0.173-0.3,0.133-0.468c-0.04-0.169-0.165-0.305-0.329-0.359l-1.855-0.619l1.924-0.962
		c0.357-0.178,0.569-0.537,0.553-0.936s-0.257-0.739-0.628-0.887l-2.608-1.043l3.798-1.085c0.442-0.126,0.733-0.52,0.726-0.979
		c-0.008-0.459-0.313-0.842-0.758-0.953L10.062,12.5l4.749-1.187c0.41-0.103,0.705-0.44,0.751-0.861s-0.168-0.814-0.618-1.033
		l-2.097-0.673C12.64,8.68,12.5,8.489,12.5,8.271V6.985c1.37-0.07,3.663-0.384,5.559-0.672C18.618,7.377,19.51,8,20.5,8
		c1.654,0,3-1.794,3-4S22.154,0,20.5,0z"/>
</g>
<g id="Bottle_Opener">
</g>
<g id="Service">
</g>
<g id="Chopsticks">
</g>
<g id="Hatchet">
</g>
<g id="Filleting_Knife">
</g>
<g id="Bread_Knife">
</g>
<g id="Herb_Knife">
</g>
<g id="Whetting">
</g>
<g id="Cake_Knife">
</g>
<g id="Layer_58">
</g>
<g id="Ladle">
</g>
<g id="Sauce_Spoon">
</g>
<g id="Egg_Beater">
</g>
<g id="Meat_Fork">
</g>
<g id="Kitchen_Spoon_1">
</g>
<g id="Kitchen_Spoon_2">
</g>
<g id="Pizza_Cutter">
</g>
<g id="Potato_Musher">
</g>
<g id="Peeler">
</g>
<g id="Honey_Dipper">
</g>
<g id="Fork">
</g>
<g id="Knife">
</g>
<g id="Spoon">
</g>
<g id="Cutlery_Set">
</g>
<g id="Sugar_Bowl">
</g>
<g id="Matches">
</g>
<g id="Cezve">
</g>
</svg>
