<?xml version="1.0" encoding="iso-8859-1"?>
<!-- Generator: Adobe Illustrator 19.2.1, SVG Export Plug-In . SVG Version: 6.00 Build 0)  -->
<svg version="1.1" xmlns="http://www.w3.org/2000/svg" xmlns:xlink="http://www.w3.org/1999/xlink" x="0px" y="0px"
	 viewBox="0 0 24 24" style="enable-background:new 0 0 24 24;" xml:space="preserve">
<g id="Cutting_Board_1">
</g>
<g id="Cutting_Board_2">
</g>
<g id="Chef_x27_s_Hat_1">
</g>
<g id="Chef_x27_s_Hat_2">
</g>
<g id="Kitchen_Scale">
</g>
<g id="Measuring_Cup">
</g>
<g id="Pot_1">
</g>
<g id="Pot_2">
</g>
<g id="Wok_1">
</g>
<g id="Wok_2">
</g>
<g id="Teapot">
</g>
<g id="Plate">
</g>
<g id="Sauce_Boat">
</g>
<g id="Cauldron">
</g>
<g id="Cookbook">
</g>
<g id="Salt_Pot">
</g>
<g id="Pepper_Pot_1">
</g>
<g id="Pepper_Pot_2">
</g>
<g id="Egg_Timer">
</g>
<g id="Olive_Oil_Pot">
</g>
<g id="Pancake_Griddle">
</g>
<g id="Pan">
</g>
<g id="Kettle">
</g>
<g id="Microwave">
</g>
<g id="Cooker">
</g>
<g id="Meat_Grinder">
</g>
<g id="Coffee_Maker">
</g>
<g id="Household_Mixer">
</g>
<g id="Stand_Mixer">
</g>
<g id="Hand_Blender">
</g>
<g id="Blender">
</g>
<g id="Cooker_Hood">
</g>
<g id="Refrigerator">
</g>
<g id="Freezer">
</g>
<g id="Apron">
</g>
<g id="Oven_Gloves">
</g>
<g id="Rolling_Pin">
</g>
<g id="Sieve">
</g>
<g id="Tea_Sieve">
</g>
<g id="Grater">
</g>
<g id="Knife_Holder">
</g>
<g id="Funnel">
</g>
<g id="Kitchen_Clock">
</g>
<g id="Lemon_Juicer">
</g>
<g id="Pastry_Bag_1">
</g>
<g id="Pastry_Bag_2">
</g>
<g id="Corkscrew">
</g>
<g id="Bottle_Opener">
</g>
<g id="Service">
</g>
<g id="Chopsticks">
</g>
<g id="Hatchet">
</g>
<g id="Filleting_Knife">
</g>
<g id="Bread_Knife">
</g>
<g id="Herb_Knife">
</g>
<g id="Whetting">
</g>
<g id="Cake_Knife">
</g>
<g id="Layer_58">
</g>
<g id="Ladle">
</g>
<g id="Sauce_Spoon">
</g>
<g id="Egg_Beater">
</g>
<g id="Meat_Fork">
</g>
<g id="Kitchen_Spoon_1">
</g>
<g id="Kitchen_Spoon_2">
</g>
<g id="Pizza_Cutter">
</g>
<g id="Potato_Musher">
</g>
<g id="Peeler">
</g>
<g id="Honey_Dipper">
</g>
<g id="Fork">
</g>
<g id="Knife">
</g>
<g id="Spoon">
</g>
<g id="Cutlery_Set">
	<g>
		<path d="M23.5,0C21.57,0,20,1.57,20,3.5V10c0,0.827,0.673,1.5,1.5,1.5S23,12.173,23,13v10.5c0,0.276,0.224,0.5,0.5,0.5
			s0.5-0.224,0.5-0.5v-23C24,0.224,23.776,0,23.5,0z"/>
		<path d="M4.5,0C4.224,0,4,0.224,4,0.5v6.791C3.912,7.377,3.822,7.462,3.732,7.548C3.299,7.961,2.839,8.407,2.5,8.928
			c-0.339-0.521-0.799-0.967-1.232-1.38C1.178,7.462,1.088,7.377,1,7.291V0.5C1,0.224,0.776,0,0.5,0S0,0.224,0,0.5v7
			c0,0.133,0.053,0.26,0.146,0.354c0.141,0.141,0.286,0.279,0.431,0.418C1.309,8.97,2,9.629,2,10.5v13C2,23.776,2.224,24,2.5,24
			S3,23.776,3,23.5v-13c0-0.871,0.691-1.53,1.423-2.229c0.145-0.139,0.29-0.277,0.431-0.418C4.947,7.76,5,7.633,5,7.5v-7
			C5,0.224,4.776,0,4.5,0z"/>
		<path d="M2.5,7C2.776,7,3,6.776,3,6.5v-6C3,0.224,2.776,0,2.5,0S2,0.224,2,0.5v6C2,6.776,2.224,7,2.5,7z"/>
		<circle cx="13" cy="17" r="7"/>
	</g>
</g>
<g id="Sugar_Bowl">
</g>
<g id="Matches">
</g>
<g id="Cezve">
</g>
</svg>
