<?xml version="1.0" encoding="iso-8859-1"?>
<!-- Generator: Adobe Illustrator 19.2.1, SVG Export Plug-In . SVG Version: 6.00 Build 0)  -->
<svg version="1.1" xmlns="http://www.w3.org/2000/svg" xmlns:xlink="http://www.w3.org/1999/xlink" x="0px" y="0px"
	 viewBox="0 0 24 24" style="enable-background:new 0 0 24 24;" xml:space="preserve">
<g id="Cutting_Board_1">
</g>
<g id="Cutting_Board_2">
</g>
<g id="Chef_x27_s_Hat_1">
</g>
<g id="Chef_x27_s_Hat_2">
</g>
<g id="Kitchen_Scale">
</g>
<g id="Measuring_Cup">
</g>
<g id="Pot_1">
</g>
<g id="Pot_2">
</g>
<g id="Wok_1">
</g>
<g id="Wok_2">
</g>
<g id="Teapot">
</g>
<g id="Plate">
</g>
<g id="Sauce_Boat">
</g>
<g id="Cauldron">
</g>
<g id="Cookbook">
</g>
<g id="Salt_Pot">
</g>
<g id="Pepper_Pot_1">
</g>
<g id="Pepper_Pot_2">
</g>
<g id="Egg_Timer">
</g>
<g id="Olive_Oil_Pot">
</g>
<g id="Pancake_Griddle">
</g>
<g id="Pan">
</g>
<g id="Kettle">
</g>
<g id="Microwave">
</g>
<g id="Cooker">
</g>
<g id="Meat_Grinder">
</g>
<g id="Coffee_Maker">
</g>
<g id="Household_Mixer">
</g>
<g id="Stand_Mixer">
</g>
<g id="Hand_Blender">
</g>
<g id="Blender">
</g>
<g id="Cooker_Hood">
</g>
<g id="Refrigerator">
</g>
<g id="Freezer">
</g>
<g id="Apron">
</g>
<g id="Oven_Gloves">
</g>
<g id="Rolling_Pin">
</g>
<g id="Sieve">
</g>
<g id="Tea_Sieve">
</g>
<g id="Grater">
</g>
<g id="Knife_Holder">
</g>
<g id="Funnel">
</g>
<g id="Kitchen_Clock">
</g>
<g id="Lemon_Juicer">
</g>
<g id="Pastry_Bag_1">
</g>
<g id="Pastry_Bag_2">
</g>
<g id="Corkscrew">
</g>
<g id="Bottle_Opener">
</g>
<g id="Service">
</g>
<g id="Chopsticks">
</g>
<g id="Hatchet">
	<g>
		<path d="M21.583,0.865c-1.134-1.133-3.11-1.133-4.243,0l-5.816,5.816c-0.001,0.001-0.001,0.002-0.002,0.003
			c0,0-0.001,0.001-0.002,0.001l-9.542,9.789c-0.585,0.585-0.585,1.537,0,2.122l4.95,4.949c0.292,0.292,0.675,0.438,1.059,0.438
			c0.386,0,0.772-0.147,1.067-0.443l8.834-9.082c0.284-0.283,0.44-0.661,0.439-1.062c0-0.401-0.156-0.777-0.439-1.06l-0.711-0.711
			c0,0,0-0.001,0-0.001c-0.001-0.001-0.001-0.001-0.001-0.001l-1.763-1.763l3.891-3.89c0.853,0.046,1.679-0.266,2.28-0.866
			C22.752,3.937,22.752,2.035,21.583,0.865z M2.69,17.177l9.192-9.431l2.47,2.47l1.772,1.772L6.57,21.774L2.686,17.89
			C2.49,17.695,2.49,17.377,2.69,17.177z M17.176,13.757l-8.834,9.082c-0.195,0.195-0.512,0.195-0.707,0l-0.357-0.357l9.554-9.786
			l0.35,0.35c0.094,0.095,0.146,0.22,0.146,0.353C17.328,13.532,17.276,13.658,17.176,13.757z M20.17,3.693
			c-0.189,0.188-0.44,0.293-0.708,0.293c-0.267,0-0.518-0.104-0.707-0.293c-0.39-0.39-0.39-1.024,0-1.414
			c0.377-0.378,1.036-0.377,1.415,0C20.559,2.668,20.559,3.303,20.17,3.693z"/>
		<path d="M5.868,16.829c-0.378-0.377-1.037-0.378-1.415,0c-0.189,0.189-0.293,0.44-0.293,0.709c0,0.267,0.104,0.518,0.293,0.705
			c0.189,0.188,0.44,0.293,0.707,0.293c0.268,0,0.519-0.104,0.706-0.292c0.189-0.188,0.293-0.439,0.294-0.706
			C6.161,17.269,6.057,17.018,5.868,16.829z"/>
	</g>
</g>
<g id="Filleting_Knife">
</g>
<g id="Bread_Knife">
</g>
<g id="Herb_Knife">
</g>
<g id="Whetting">
</g>
<g id="Cake_Knife">
</g>
<g id="Layer_58">
</g>
<g id="Ladle">
</g>
<g id="Sauce_Spoon">
</g>
<g id="Egg_Beater">
</g>
<g id="Meat_Fork">
</g>
<g id="Kitchen_Spoon_1">
</g>
<g id="Kitchen_Spoon_2">
</g>
<g id="Pizza_Cutter">
</g>
<g id="Potato_Musher">
</g>
<g id="Peeler">
</g>
<g id="Honey_Dipper">
</g>
<g id="Fork">
</g>
<g id="Knife">
</g>
<g id="Spoon">
</g>
<g id="Cutlery_Set">
</g>
<g id="Sugar_Bowl">
</g>
<g id="Matches">
</g>
<g id="Cezve">
</g>
</svg>
