<?xml version="1.0" encoding="iso-8859-1"?>
<!-- Generator: Adobe Illustrator 19.2.1, SVG Export Plug-In . SVG Version: 6.00 Build 0)  -->
<svg version="1.1" xmlns="http://www.w3.org/2000/svg" xmlns:xlink="http://www.w3.org/1999/xlink" x="0px" y="0px"
	 viewBox="0 0 24 24" style="enable-background:new 0 0 24 24;" xml:space="preserve">
<g id="Cutting_Board_1">
</g>
<g id="Cutting_Board_2">
</g>
<g id="Chef_x27_s_Hat_1">
</g>
<g id="Chef_x27_s_Hat_2">
</g>
<g id="Kitchen_Scale">
</g>
<g id="Measuring_Cup">
</g>
<g id="Pot_1">
</g>
<g id="Pot_2">
</g>
<g id="Wok_1">
</g>
<g id="Wok_2">
</g>
<g id="Teapot">
</g>
<g id="Plate">
</g>
<g id="Sauce_Boat">
</g>
<g id="Cauldron">
</g>
<g id="Cookbook">
</g>
<g id="Salt_Pot">
</g>
<g id="Pepper_Pot_1">
</g>
<g id="Pepper_Pot_2">
</g>
<g id="Egg_Timer">
</g>
<g id="Olive_Oil_Pot">
</g>
<g id="Pancake_Griddle">
</g>
<g id="Pan">
</g>
<g id="Kettle">
</g>
<g id="Microwave">
</g>
<g id="Cooker">
</g>
<g id="Meat_Grinder">
</g>
<g id="Coffee_Maker">
</g>
<g id="Household_Mixer">
</g>
<g id="Stand_Mixer">
</g>
<g id="Hand_Blender">
</g>
<g id="Blender">
</g>
<g id="Cooker_Hood">
</g>
<g id="Refrigerator">
</g>
<g id="Freezer">
</g>
<g id="Apron">
</g>
<g id="Oven_Gloves">
</g>
<g id="Rolling_Pin">
</g>
<g id="Sieve">
</g>
<g id="Tea_Sieve">
</g>
<g id="Grater">
</g>
<g id="Knife_Holder">
</g>
<g id="Funnel">
</g>
<g id="Kitchen_Clock">
</g>
<g id="Lemon_Juicer">
</g>
<g id="Pastry_Bag_1">
</g>
<g id="Pastry_Bag_2">
</g>
<g id="Corkscrew">
</g>
<g id="Bottle_Opener">
</g>
<g id="Service">
</g>
<g id="Chopsticks">
</g>
<g id="Hatchet">
</g>
<g id="Filleting_Knife">
</g>
<g id="Bread_Knife">
</g>
<g id="Herb_Knife">
	<path d="M23.447,15.276l-1.925-3.85c-0.094-0.807,0.14-1.691,0.411-2.715c0.249-0.937,0.531-1.999,0.593-3.186
		c0.003-0.073-0.013-0.146-0.043-0.214C22.337,4.552,21.319,4,20,4c-1.425,0-2.5,0.645-2.5,1.525
		c0.062,1.187,0.344,2.248,0.593,3.186c0.273,1.029,0.509,1.918,0.411,2.729c-0.001,0.01,0.003,0.019,0.003,0.029
		C18.506,11.479,18.5,11.489,18.5,11.5c0,1.183-2.669,2.5-6.5,2.5c-3.75,0-6.38-1.262-6.49-2.425
		c0.007-0.045,0.018-0.089,0.012-0.135C5.424,10.629,5.66,9.74,5.933,8.711c0.249-0.937,0.531-1.999,0.593-3.186
		c0.003-0.073-0.013-0.146-0.043-0.214C6.337,4.552,5.319,4,4,4C2.575,4,1.5,4.645,1.5,5.525c0.062,1.187,0.344,2.248,0.593,3.186
		c0.266,1.001,0.491,1.867,0.412,2.66l-1.953,3.906C0.518,15.346,0.5,15.423,0.5,15.5C0.5,18.423,6.425,20,12,20
		s11.5-1.577,11.5-4.5C23.5,15.423,23.482,15.346,23.447,15.276z M20,6c0.276,0,0.5,0.224,0.5,0.5C20.5,6.776,20.276,7,20,7
		c-0.276,0-0.5-0.224-0.5-0.5C19.5,6.224,19.724,6,20,6z M4,6c0.276,0,0.5,0.224,0.5,0.5C4.5,6.776,4.276,7,4,7
		C3.724,7,3.5,6.776,3.5,6.5C3.5,6.224,3.724,6,4,6z M12,19c-6.056,0-10.315-1.767-10.494-3.394L3.309,12h1.26
		C5.059,13.741,8.09,15,12,15c3.909,0,6.931-1.26,7.422-3h1.269l1.803,3.606C22.315,17.233,18.056,19,12,19z"/>
</g>
<g id="Whetting">
</g>
<g id="Cake_Knife">
</g>
<g id="Layer_58">
</g>
<g id="Ladle">
</g>
<g id="Sauce_Spoon">
</g>
<g id="Egg_Beater">
</g>
<g id="Meat_Fork">
</g>
<g id="Kitchen_Spoon_1">
</g>
<g id="Kitchen_Spoon_2">
</g>
<g id="Pizza_Cutter">
</g>
<g id="Potato_Musher">
</g>
<g id="Peeler">
</g>
<g id="Honey_Dipper">
</g>
<g id="Fork">
</g>
<g id="Knife">
</g>
<g id="Spoon">
</g>
<g id="Cutlery_Set">
</g>
<g id="Sugar_Bowl">
</g>
<g id="Matches">
</g>
<g id="Cezve">
</g>
</svg>
