<?xml version="1.0" encoding="iso-8859-1"?>
<!-- Generator: Adobe Illustrator 19.2.1, SVG Export Plug-In . SVG Version: 6.00 Build 0)  -->
<svg version="1.1" xmlns="http://www.w3.org/2000/svg" xmlns:xlink="http://www.w3.org/1999/xlink" x="0px" y="0px"
	 viewBox="0 0 24 24" style="enable-background:new 0 0 24 24;" xml:space="preserve">
<g id="Cutting_Board_1">
</g>
<g id="Cutting_Board_2">
</g>
<g id="Chef_x27_s_Hat_1">
</g>
<g id="Chef_x27_s_Hat_2">
</g>
<g id="Kitchen_Scale">
</g>
<g id="Measuring_Cup">
</g>
<g id="Pot_1">
</g>
<g id="Pot_2">
</g>
<g id="Wok_1">
</g>
<g id="Wok_2">
</g>
<g id="Teapot">
</g>
<g id="Plate">
</g>
<g id="Sauce_Boat">
</g>
<g id="Cauldron">
</g>
<g id="Cookbook">
</g>
<g id="Salt_Pot">
</g>
<g id="Pepper_Pot_1">
</g>
<g id="Pepper_Pot_2">
</g>
<g id="Egg_Timer">
</g>
<g id="Olive_Oil_Pot">
</g>
<g id="Pancake_Griddle">
</g>
<g id="Pan">
</g>
<g id="Kettle">
</g>
<g id="Microwave">
</g>
<g id="Cooker">
</g>
<g id="Meat_Grinder">
</g>
<g id="Coffee_Maker">
</g>
<g id="Household_Mixer">
	<path d="M23.761,10.053l-1.422-7.821C22.21,1.518,21.589,1,20.864,1H10.698c0.276,0,0.5-0.224,0.5-0.5S10.974,0,10.698,0h-1
		c-0.276,0-0.5,0.224-0.5,0.5S9.422,1,9.698,1h-1c-4.687,0-8.5,3.813-8.5,8.5v3c0,0.276,0.224,0.5,0.5,0.5h3.5v2.065
		c-1.692,0.315-3,2.174-3,4.435c0,2.481,1.57,4.5,3.5,4.5s3.5-2.019,3.5-4.5c0-2.261-1.308-4.12-3-4.435V13h16.104
		c0.744,0,1.443-0.327,1.919-0.898C23.697,11.531,23.894,10.784,23.761,10.053z M4.698,22.864c-0.215-0.431-0.5-1.593-0.5-3.364
		s0.285-2.933,0.5-3.364c0.215,0.431,0.5,1.593,0.5,3.364S4.913,22.433,4.698,22.864z M2.198,19.5c0-1.344,0.55-2.499,1.345-3.086
		c-0.318,1.146-0.345,2.64-0.345,3.086s0.028,1.939,0.345,3.086C2.748,21.999,2.198,20.844,2.198,19.5z M7.198,19.5
		c0,1.344-0.55,2.499-1.345,3.086c0.318-1.146,0.345-2.64,0.345-3.086s-0.028-1.939-0.345-3.086
		C6.648,17.001,7.198,18.156,7.198,19.5z M5.198,10c-0.551,0-1-0.449-1-1s0.449-1,1-1s1,0.449,1,1S5.749,10,5.198,10z M20.198,7.5
		c0,0.276-0.224,0.5-0.5,0.5h-11c-0.276,0-0.5-0.224-0.5-0.5v-1c0-1.93,1.57-3.5,3.5-3.5h7c0.827,0,1.5,0.673,1.5,1.5V7.5z"/>
</g>
<g id="Stand_Mixer">
</g>
<g id="Hand_Blender">
</g>
<g id="Blender">
</g>
<g id="Cooker_Hood">
</g>
<g id="Refrigerator">
</g>
<g id="Freezer">
</g>
<g id="Apron">
</g>
<g id="Oven_Gloves">
</g>
<g id="Rolling_Pin">
</g>
<g id="Sieve">
</g>
<g id="Tea_Sieve">
</g>
<g id="Grater">
</g>
<g id="Knife_Holder">
</g>
<g id="Funnel">
</g>
<g id="Kitchen_Clock">
</g>
<g id="Lemon_Juicer">
</g>
<g id="Pastry_Bag_1">
</g>
<g id="Pastry_Bag_2">
</g>
<g id="Corkscrew">
</g>
<g id="Bottle_Opener">
</g>
<g id="Service">
</g>
<g id="Chopsticks">
</g>
<g id="Hatchet">
</g>
<g id="Filleting_Knife">
</g>
<g id="Bread_Knife">
</g>
<g id="Herb_Knife">
</g>
<g id="Whetting">
</g>
<g id="Cake_Knife">
</g>
<g id="Layer_58">
</g>
<g id="Ladle">
</g>
<g id="Sauce_Spoon">
</g>
<g id="Egg_Beater">
</g>
<g id="Meat_Fork">
</g>
<g id="Kitchen_Spoon_1">
</g>
<g id="Kitchen_Spoon_2">
</g>
<g id="Pizza_Cutter">
</g>
<g id="Potato_Musher">
</g>
<g id="Peeler">
</g>
<g id="Honey_Dipper">
</g>
<g id="Fork">
</g>
<g id="Knife">
</g>
<g id="Spoon">
</g>
<g id="Cutlery_Set">
</g>
<g id="Sugar_Bowl">
</g>
<g id="Matches">
</g>
<g id="Cezve">
</g>
</svg>
