<?xml version="1.0" encoding="iso-8859-1"?>
<!-- Generator: Adobe Illustrator 19.2.1, SVG Export Plug-In . SVG Version: 6.00 Build 0)  -->
<svg version="1.1" xmlns="http://www.w3.org/2000/svg" xmlns:xlink="http://www.w3.org/1999/xlink" x="0px" y="0px"
	 viewBox="0 0 24 24" style="enable-background:new 0 0 24 24;" xml:space="preserve">
<g id="Cutting_Board_1">
</g>
<g id="Cutting_Board_2">
</g>
<g id="Chef_x27_s_Hat_1">
</g>
<g id="Chef_x27_s_Hat_2">
</g>
<g id="Kitchen_Scale">
</g>
<g id="Measuring_Cup">
</g>
<g id="Pot_1">
</g>
<g id="Pot_2">
</g>
<g id="Wok_1">
</g>
<g id="Wok_2">
</g>
<g id="Teapot">
</g>
<g id="Plate">
</g>
<g id="Sauce_Boat">
</g>
<g id="Cauldron">
</g>
<g id="Cookbook">
</g>
<g id="Salt_Pot">
</g>
<g id="Pepper_Pot_1">
</g>
<g id="Pepper_Pot_2">
</g>
<g id="Egg_Timer">
</g>
<g id="Olive_Oil_Pot">
</g>
<g id="Pancake_Griddle">
</g>
<g id="Pan">
</g>
<g id="Kettle">
</g>
<g id="Microwave">
</g>
<g id="Cooker">
</g>
<g id="Meat_Grinder">
</g>
<g id="Coffee_Maker">
</g>
<g id="Household_Mixer">
</g>
<g id="Stand_Mixer">
</g>
<g id="Hand_Blender">
</g>
<g id="Blender">
</g>
<g id="Cooker_Hood">
</g>
<g id="Refrigerator">
</g>
<g id="Freezer">
</g>
<g id="Apron">
</g>
<g id="Oven_Gloves">
</g>
<g id="Rolling_Pin">
</g>
<g id="Sieve">
</g>
<g id="Tea_Sieve">
</g>
<g id="Grater">
</g>
<g id="Knife_Holder">
</g>
<g id="Funnel">
</g>
<g id="Kitchen_Clock">
</g>
<g id="Lemon_Juicer">
</g>
<g id="Pastry_Bag_1">
</g>
<g id="Pastry_Bag_2">
</g>
<g id="Corkscrew">
</g>
<g id="Bottle_Opener">
</g>
<g id="Service">
</g>
<g id="Chopsticks">
</g>
<g id="Hatchet">
</g>
<g id="Filleting_Knife">
</g>
<g id="Bread_Knife">
</g>
<g id="Herb_Knife">
</g>
<g id="Whetting">
</g>
<g id="Cake_Knife">
</g>
<g id="Layer_58">
</g>
<g id="Ladle">
	<path d="M18,0c-1.654,0-3,1.346-3,3v13.582C13.638,16.094,11.177,16,9.5,16C7.072,16,3,16.195,3,17.5C3,21.084,5.916,24,9.5,24
		s6.5-2.916,6.5-6.5V3c0-1.103,0.897-2,2-2s2,0.897,2,2c0,0.276,0.224,0.5,0.5,0.5S21,3.276,21,3C21,1.346,19.654,0,18,0z
		 M14.629,17.498c-0.034,0.01-0.062,0.02-0.099,0.031c-0.043,0.012-0.088,0.024-0.136,0.036c-0.092,0.023-0.197,0.046-0.307,0.069
		c-0.053,0.011-0.101,0.022-0.157,0.033c-0.172,0.033-0.359,0.065-0.568,0.095c-0.03,0.004-0.066,0.008-0.097,0.012
		c-0.185,0.026-0.383,0.05-0.596,0.073c-0.083,0.009-0.173,0.017-0.26,0.025c-0.177,0.017-0.361,0.032-0.555,0.047
		c-0.104,0.008-0.211,0.015-0.319,0.021c-0.206,0.013-0.423,0.023-0.647,0.031c-0.106,0.004-0.208,0.009-0.318,0.012
		C10.229,17.993,9.876,18,9.5,18s-0.729-0.007-1.068-0.017c-0.11-0.003-0.212-0.008-0.318-0.012
		c-0.223-0.009-0.441-0.019-0.647-0.031c-0.109-0.007-0.215-0.014-0.319-0.021c-0.194-0.014-0.378-0.03-0.555-0.047
		c-0.087-0.008-0.177-0.016-0.26-0.025c-0.212-0.023-0.411-0.047-0.596-0.073c-0.031-0.004-0.067-0.008-0.097-0.012
		c-0.209-0.03-0.397-0.063-0.568-0.095c-0.057-0.011-0.105-0.022-0.157-0.033c-0.11-0.023-0.215-0.046-0.307-0.069
		c-0.048-0.012-0.093-0.024-0.136-0.036c-0.037-0.01-0.066-0.02-0.099-0.031C5.145,17.266,6.873,17,9.5,17
		S13.855,17.266,14.629,17.498z"/>
</g>
<g id="Sauce_Spoon">
</g>
<g id="Egg_Beater">
</g>
<g id="Meat_Fork">
</g>
<g id="Kitchen_Spoon_1">
</g>
<g id="Kitchen_Spoon_2">
</g>
<g id="Pizza_Cutter">
</g>
<g id="Potato_Musher">
</g>
<g id="Peeler">
</g>
<g id="Honey_Dipper">
</g>
<g id="Fork">
</g>
<g id="Knife">
</g>
<g id="Spoon">
</g>
<g id="Cutlery_Set">
</g>
<g id="Sugar_Bowl">
</g>
<g id="Matches">
</g>
<g id="Cezve">
</g>
</svg>
