<?xml version="1.0" encoding="iso-8859-1"?>
<!-- Generator: Adobe Illustrator 19.2.1, SVG Export Plug-In . SVG Version: 6.00 Build 0)  -->
<svg version="1.1" xmlns="http://www.w3.org/2000/svg" xmlns:xlink="http://www.w3.org/1999/xlink" x="0px" y="0px"
	 viewBox="0 0 24 24" style="enable-background:new 0 0 24 24;" xml:space="preserve">
<g id="Cutting_Board_1">
</g>
<g id="Cutting_Board_2">
</g>
<g id="Chef_x27_s_Hat_1">
</g>
<g id="Chef_x27_s_Hat_2">
</g>
<g id="Kitchen_Scale">
</g>
<g id="Measuring_Cup">
</g>
<g id="Pot_1">
</g>
<g id="Pot_2">
</g>
<g id="Wok_1">
</g>
<g id="Wok_2">
</g>
<g id="Teapot">
</g>
<g id="Plate">
</g>
<g id="Sauce_Boat">
</g>
<g id="Cauldron">
</g>
<g id="Cookbook">
</g>
<g id="Salt_Pot">
</g>
<g id="Pepper_Pot_1">
</g>
<g id="Pepper_Pot_2">
</g>
<g id="Egg_Timer">
</g>
<g id="Olive_Oil_Pot">
</g>
<g id="Pancake_Griddle">
</g>
<g id="Pan">
</g>
<g id="Kettle">
</g>
<g id="Microwave">
	<g>
		<path d="M21.5,2h-19C1.122,2,0,3.122,0,4.5v14c0,1.207,0.86,2.217,2,2.449V21.5C2,21.776,2.224,22,2.5,22S3,21.776,3,21.5V21h18
			v0.5c0,0.276,0.224,0.5,0.5,0.5s0.5-0.224,0.5-0.5v-0.551c1.14-0.232,2-1.242,2-2.449v-14C24,3.122,22.878,2,21.5,2z M19,17.5
			c0,0.276-0.224,0.5-0.5,0.5h-16C2.224,18,2,17.776,2,17.5v-12C2,5.224,2.224,5,2.5,5h16C18.776,5,19,5.224,19,5.5V17.5z M22,16.5
			c0,0.276-0.224,0.5-0.5,0.5h-1c-0.276,0-0.5-0.224-0.5-0.5v-2c0-0.276,0.224-0.5,0.5-0.5h1c0.276,0,0.5,0.224,0.5,0.5V16.5z
			 M21,12c-0.551,0-1-0.449-1-1s0.449-1,1-1s1,0.449,1,1S21.551,12,21,12z M21,8c-0.551,0-1-0.449-1-1s0.449-1,1-1s1,0.449,1,1
			S21.551,8,21,8z"/>
		<path d="M15.5,7C14.673,7,14,7.673,14,8.5V14c0,0.827,0.673,1.5,1.5,1.5S17,14.827,17,14V8.5C17,7.673,16.327,7,15.5,7z"/>
		<path d="M10.5,8C9.628,8,8.679,8.232,7.674,8.477C6.622,8.734,5.533,9,4.5,9C4.224,9,4,9.224,4,9.5S4.224,10,4.5,10
			c1.153,0,2.301-0.28,3.412-0.551C8.856,9.218,9.748,9,10.5,9C10.776,9,11,8.776,11,8.5S10.776,8,10.5,8z"/>
		<path d="M10.5,13c-0.872,0-1.821,0.232-2.826,0.477C6.622,13.734,5.533,14,4.5,14C4.224,14,4,14.224,4,14.5S4.224,15,4.5,15
			c1.153,0,2.301-0.28,3.412-0.551C8.856,14.218,9.748,14,10.5,14c0.276,0,0.5-0.224,0.5-0.5S10.776,13,10.5,13z"/>
	</g>
</g>
<g id="Cooker">
</g>
<g id="Meat_Grinder">
</g>
<g id="Coffee_Maker">
</g>
<g id="Household_Mixer">
</g>
<g id="Stand_Mixer">
</g>
<g id="Hand_Blender">
</g>
<g id="Blender">
</g>
<g id="Cooker_Hood">
</g>
<g id="Refrigerator">
</g>
<g id="Freezer">
</g>
<g id="Apron">
</g>
<g id="Oven_Gloves">
</g>
<g id="Rolling_Pin">
</g>
<g id="Sieve">
</g>
<g id="Tea_Sieve">
</g>
<g id="Grater">
</g>
<g id="Knife_Holder">
</g>
<g id="Funnel">
</g>
<g id="Kitchen_Clock">
</g>
<g id="Lemon_Juicer">
</g>
<g id="Pastry_Bag_1">
</g>
<g id="Pastry_Bag_2">
</g>
<g id="Corkscrew">
</g>
<g id="Bottle_Opener">
</g>
<g id="Service">
</g>
<g id="Chopsticks">
</g>
<g id="Hatchet">
</g>
<g id="Filleting_Knife">
</g>
<g id="Bread_Knife">
</g>
<g id="Herb_Knife">
</g>
<g id="Whetting">
</g>
<g id="Cake_Knife">
</g>
<g id="Layer_58">
</g>
<g id="Ladle">
</g>
<g id="Sauce_Spoon">
</g>
<g id="Egg_Beater">
</g>
<g id="Meat_Fork">
</g>
<g id="Kitchen_Spoon_1">
</g>
<g id="Kitchen_Spoon_2">
</g>
<g id="Pizza_Cutter">
</g>
<g id="Potato_Musher">
</g>
<g id="Peeler">
</g>
<g id="Honey_Dipper">
</g>
<g id="Fork">
</g>
<g id="Knife">
</g>
<g id="Spoon">
</g>
<g id="Cutlery_Set">
</g>
<g id="Sugar_Bowl">
</g>
<g id="Matches">
</g>
<g id="Cezve">
</g>
</svg>
