<?xml version="1.0" encoding="iso-8859-1"?>
<!-- Generator: Adobe Illustrator 19.2.1, SVG Export Plug-In . SVG Version: 6.00 Build 0)  -->
<svg version="1.1" xmlns="http://www.w3.org/2000/svg" xmlns:xlink="http://www.w3.org/1999/xlink" x="0px" y="0px"
	 viewBox="0 0 24 24" style="enable-background:new 0 0 24 24;" xml:space="preserve">
<g id="Cutting_Board_1">
</g>
<g id="Cutting_Board_2">
</g>
<g id="Chef_x27_s_Hat_1">
</g>
<g id="Chef_x27_s_Hat_2">
</g>
<g id="Kitchen_Scale">
</g>
<g id="Measuring_Cup">
</g>
<g id="Pot_1">
</g>
<g id="Pot_2">
</g>
<g id="Wok_1">
</g>
<g id="Wok_2">
</g>
<g id="Teapot">
</g>
<g id="Plate">
</g>
<g id="Sauce_Boat">
</g>
<g id="Cauldron">
</g>
<g id="Cookbook">
</g>
<g id="Salt_Pot">
</g>
<g id="Pepper_Pot_1">
</g>
<g id="Pepper_Pot_2">
</g>
<g id="Egg_Timer">
</g>
<g id="Olive_Oil_Pot">
</g>
<g id="Pancake_Griddle">
</g>
<g id="Pan">
</g>
<g id="Kettle">
</g>
<g id="Microwave">
</g>
<g id="Cooker">
</g>
<g id="Meat_Grinder">
</g>
<g id="Coffee_Maker">
</g>
<g id="Household_Mixer">
</g>
<g id="Stand_Mixer">
</g>
<g id="Hand_Blender">
</g>
<g id="Blender">
</g>
<g id="Cooker_Hood">
</g>
<g id="Refrigerator">
	<g>
		<path d="M20.5,0H14v23h6v0.5c0,0.276,0.224,0.5,0.5,0.5s0.5-0.224,0.5-0.5v-0.592c0.581-0.207,1-0.757,1-1.408v-20
			C22,0.673,21.327,0,20.5,0z M16,16.5c0,0.276-0.224,0.5-0.5,0.5S15,16.776,15,16.5v-10C15,6.224,15.224,6,15.5,6S16,6.224,16,6.5
			V16.5z"/>
		<path d="M1,1.5v20c0,0.651,0.419,1.201,1,1.408V23.5C2,23.776,2.224,24,2.5,24S3,23.776,3,23.5V23h10V0H2.5C1.673,0,1,0.673,1,1.5
			z M4,8.5C4,8.224,4.224,8,4.5,8H6v1.5C6,9.776,6.224,10,6.5,10S7,9.776,7,9.5V8h1.5C8.776,8,9,8.224,9,8.5v5
			C9,13.776,8.776,14,8.5,14h-4C4.224,14,4,13.776,4,13.5V8.5z"/>
	</g>
</g>
<g id="Freezer">
</g>
<g id="Apron">
</g>
<g id="Oven_Gloves">
</g>
<g id="Rolling_Pin">
</g>
<g id="Sieve">
</g>
<g id="Tea_Sieve">
</g>
<g id="Grater">
</g>
<g id="Knife_Holder">
</g>
<g id="Funnel">
</g>
<g id="Kitchen_Clock">
</g>
<g id="Lemon_Juicer">
</g>
<g id="Pastry_Bag_1">
</g>
<g id="Pastry_Bag_2">
</g>
<g id="Corkscrew">
</g>
<g id="Bottle_Opener">
</g>
<g id="Service">
</g>
<g id="Chopsticks">
</g>
<g id="Hatchet">
</g>
<g id="Filleting_Knife">
</g>
<g id="Bread_Knife">
</g>
<g id="Herb_Knife">
</g>
<g id="Whetting">
</g>
<g id="Cake_Knife">
</g>
<g id="Layer_58">
</g>
<g id="Ladle">
</g>
<g id="Sauce_Spoon">
</g>
<g id="Egg_Beater">
</g>
<g id="Meat_Fork">
</g>
<g id="Kitchen_Spoon_1">
</g>
<g id="Kitchen_Spoon_2">
</g>
<g id="Pizza_Cutter">
</g>
<g id="Potato_Musher">
</g>
<g id="Peeler">
</g>
<g id="Honey_Dipper">
</g>
<g id="Fork">
</g>
<g id="Knife">
</g>
<g id="Spoon">
</g>
<g id="Cutlery_Set">
</g>
<g id="Sugar_Bowl">
</g>
<g id="Matches">
</g>
<g id="Cezve">
</g>
</svg>
