<?xml version="1.0" encoding="iso-8859-1"?>
<!-- Generator: Adobe Illustrator 19.2.1, SVG Export Plug-In . SVG Version: 6.00 Build 0)  -->
<svg version="1.1" xmlns="http://www.w3.org/2000/svg" xmlns:xlink="http://www.w3.org/1999/xlink" x="0px" y="0px"
	 viewBox="0 0 24 24" style="enable-background:new 0 0 24 24;" xml:space="preserve">
<g id="Cutting_Board_1">
</g>
<g id="Cutting_Board_2">
</g>
<g id="Chef_x27_s_Hat_1">
</g>
<g id="Chef_x27_s_Hat_2">
</g>
<g id="Kitchen_Scale">
</g>
<g id="Measuring_Cup">
</g>
<g id="Pot_1">
</g>
<g id="Pot_2">
</g>
<g id="Wok_1">
</g>
<g id="Wok_2">
</g>
<g id="Teapot">
</g>
<g id="Plate">
</g>
<g id="Sauce_Boat">
</g>
<g id="Cauldron">
</g>
<g id="Cookbook">
</g>
<g id="Salt_Pot">
</g>
<g id="Pepper_Pot_1">
</g>
<g id="Pepper_Pot_2">
</g>
<g id="Egg_Timer">
</g>
<g id="Olive_Oil_Pot">
</g>
<g id="Pancake_Griddle">
</g>
<g id="Pan">
</g>
<g id="Kettle">
</g>
<g id="Microwave">
</g>
<g id="Cooker">
</g>
<g id="Meat_Grinder">
</g>
<g id="Coffee_Maker">
</g>
<g id="Household_Mixer">
</g>
<g id="Stand_Mixer">
</g>
<g id="Hand_Blender">
</g>
<g id="Blender">
</g>
<g id="Cooker_Hood">
</g>
<g id="Refrigerator">
</g>
<g id="Freezer">
</g>
<g id="Apron">
</g>
<g id="Oven_Gloves">
</g>
<g id="Rolling_Pin">
</g>
<g id="Sieve">
</g>
<g id="Tea_Sieve">
	<g>
		<path d="M16.99,15.312C15.596,15.768,12.761,16,8.5,16s-7.096-0.232-8.49-0.688C0.008,15.375,0,15.436,0,15.5
			C0,20.187,3.813,24,8.5,24s8.5-3.813,8.5-8.5C17,15.436,16.992,15.375,16.99,15.312z M9.561,17.732
			c0.195-0.195,0.512-0.195,0.707,0c0.195,0.195,0.195,0.512,0,0.707s-0.512,0.195-0.707,0S9.365,17.927,9.561,17.732z M6,19.5
			C6,19.224,6.224,19,6.5,19S7,19.224,7,19.5C7,19.776,6.776,20,6.5,20S6,19.776,6,19.5z M7.439,21.268
			c-0.195,0.195-0.512,0.195-0.707,0s-0.195-0.512,0-0.707c0.195-0.195,0.512-0.195,0.707,0C7.635,20.756,7.635,21.073,7.439,21.268
			z M7.439,18.439c-0.195,0.195-0.512,0.195-0.707,0s-0.195-0.512,0-0.707c0.195-0.195,0.512-0.195,0.707,0
			C7.635,17.927,7.635,18.244,7.439,18.439z M8.5,22C8.224,22,8,21.776,8,21.5C8,21.224,8.224,21,8.5,21S9,21.224,9,21.5
			C9,21.776,8.776,22,8.5,22z M8.5,20C8.224,20,8,19.776,8,19.5C8,19.224,8.224,19,8.5,19S9,19.224,9,19.5C9,19.776,8.776,20,8.5,20
			z M8.5,18C8.224,18,8,17.776,8,17.5C8,17.224,8.224,17,8.5,17S9,17.224,9,17.5C9,17.776,8.776,18,8.5,18z M10.268,21.268
			c-0.195,0.195-0.512,0.195-0.707,0s-0.195-0.512,0-0.707c0.195-0.195,0.512-0.195,0.707,0
			C10.463,20.756,10.463,21.073,10.268,21.268z M10.5,20c-0.276,0-0.5-0.224-0.5-0.5c0-0.276,0.224-0.5,0.5-0.5s0.5,0.224,0.5,0.5
			C11,19.776,10.776,20,10.5,20z"/>
		<path d="M21,17.051V6.5C21,2.916,18.084,0,14.5,0S8,2.916,8,6.5v0.523c-4.064,0.238-7.365,3.34-7.911,7.316
			C0.938,14.641,4.008,15,8.5,15s7.562-0.359,8.411-0.661C16.365,10.363,13.064,7.261,9,7.023V6.5C9,3.467,11.467,1,14.5,1
			S20,3.467,20,6.5v10.551c-1.692,0.245-3,1.691-3,3.449c0,1.93,1.57,3.5,3.5,3.5s3.5-1.57,3.5-3.5
			C24,18.742,22.692,17.296,21,17.051z M6,11.5C6,11.224,6.224,11,6.5,11S7,11.224,7,11.5C7,11.776,6.776,12,6.5,12S6,11.776,6,11.5
			z M7.439,13.268c-0.195,0.195-0.512,0.195-0.707,0s-0.195-0.512,0-0.707c0.195-0.195,0.512-0.195,0.707,0
			C7.635,12.756,7.635,13.073,7.439,13.268z M7.439,10.439c-0.195,0.195-0.512,0.195-0.707,0s-0.195-0.512,0-0.707
			c0.195-0.195,0.512-0.195,0.707,0C7.635,9.927,7.635,10.244,7.439,10.439z M8.5,14C8.224,14,8,13.776,8,13.5
			C8,13.224,8.224,13,8.5,13S9,13.224,9,13.5C9,13.776,8.776,14,8.5,14z M8.5,12C8.224,12,8,11.776,8,11.5C8,11.224,8.224,11,8.5,11
			S9,11.224,9,11.5C9,11.776,8.776,12,8.5,12z M8.5,10C8.224,10,8,9.776,8,9.5C8,9.224,8.224,9,8.5,9S9,9.224,9,9.5
			C9,9.776,8.776,10,8.5,10z M11,11.5c0,0.276-0.224,0.5-0.5,0.5S10,11.776,10,11.5c0-0.276,0.224-0.5,0.5-0.5S11,11.224,11,11.5z
			 M9.561,9.732c0.195-0.195,0.512-0.195,0.707,0c0.195,0.195,0.195,0.512,0,0.707s-0.512,0.195-0.707,0S9.365,9.927,9.561,9.732z
			 M9.561,12.561c0.195-0.195,0.512-0.195,0.707,0c0.195,0.195,0.195,0.512,0,0.707s-0.512,0.195-0.707,0S9.365,12.756,9.561,12.561
			z M20.5,23c-1.378,0-2.5-1.122-2.5-2.5s1.122-2.5,2.5-2.5s2.5,1.122,2.5,2.5S21.878,23,20.5,23z"/>
	</g>
</g>
<g id="Grater">
</g>
<g id="Knife_Holder">
</g>
<g id="Funnel">
</g>
<g id="Kitchen_Clock">
</g>
<g id="Lemon_Juicer">
</g>
<g id="Pastry_Bag_1">
</g>
<g id="Pastry_Bag_2">
</g>
<g id="Corkscrew">
</g>
<g id="Bottle_Opener">
</g>
<g id="Service">
</g>
<g id="Chopsticks">
</g>
<g id="Hatchet">
</g>
<g id="Filleting_Knife">
</g>
<g id="Bread_Knife">
</g>
<g id="Herb_Knife">
</g>
<g id="Whetting">
</g>
<g id="Cake_Knife">
</g>
<g id="Layer_58">
</g>
<g id="Ladle">
</g>
<g id="Sauce_Spoon">
</g>
<g id="Egg_Beater">
</g>
<g id="Meat_Fork">
</g>
<g id="Kitchen_Spoon_1">
</g>
<g id="Kitchen_Spoon_2">
</g>
<g id="Pizza_Cutter">
</g>
<g id="Potato_Musher">
</g>
<g id="Peeler">
</g>
<g id="Honey_Dipper">
</g>
<g id="Fork">
</g>
<g id="Knife">
</g>
<g id="Spoon">
</g>
<g id="Cutlery_Set">
</g>
<g id="Sugar_Bowl">
</g>
<g id="Matches">
</g>
<g id="Cezve">
</g>
</svg>
