<?xml version="1.0" encoding="iso-8859-1"?>
<!-- Generator: Adobe Illustrator 19.0.0, SVG Export Plug-In . SVG Version: 6.00 Build 0)  -->
<svg version="1.1" id="Layer_1" xmlns="http://www.w3.org/2000/svg" xmlns:xlink="http://www.w3.org/1999/xlink" x="0px" y="0px"
	 viewBox="0 0 30 30" style="enable-background:new 0 0 30 30;" xml:space="preserve">
<g>
	<g>
		<path d="M16,23.5c0-2.544,1.283-4.896,3.432-6.291c0.076-0.049,0.137-0.118,0.177-0.2c0.409-0.834,0.681-1.729,0.796-2.609
			c0.661-0.167,1.177-0.74,1.263-1.462l0.293-2.445c0.06-0.496-0.092-0.992-0.417-1.362c-0.194-0.222-0.441-0.386-0.712-0.479
			l0.114-2.438l0.467-0.487c0.633-0.701,1.155-1.904,0.052-3.658C20.602,0.696,19.13,0,17.086,0c-0.813,0-2.69,0-4.427,1.225
			C7.714,1.327,7.042,3.693,7.042,6.003c0,0.568,0.14,1.888,0.223,2.616C6.959,8.703,6.68,8.875,6.463,9.121
			c-0.33,0.373-0.485,0.873-0.425,1.373l0.293,2.445c0.092,0.771,0.674,1.373,1.4,1.49c0.229,1.705,1.023,3.385,2.185,4.612
			l-0.441,1.836L4.927,22.06C1.883,22.852,0,26.539,0,29.5C0,29.776,0.224,30,0.5,30h17c0.251,0,0.463-0.186,0.496-0.435
			l0.083-0.635c0.019-0.146-0.027-0.292-0.125-0.401C16.695,27.141,16,25.354,16,23.5z M23.5,17c-3.584,0-6.5,2.916-6.5,6.5
			c0,3.584,2.916,6.5,6.5,6.5s6.5-2.916,6.5-6.5C30,19.915,27.084,17,23.5,17z M26.5,24H24v2.5c0,0.276-0.224,0.5-0.5,0.5
			S23,26.776,23,26.5V24h-2.5c-0.276,0-0.5-0.224-0.5-0.5s0.224-0.5,0.5-0.5H23v-2.5c0-0.276,0.224-0.5,0.5-0.5s0.5,0.224,0.5,0.5
			V23h2.5c0.276,0,0.5,0.224,0.5,0.5S26.776,24,26.5,24z"/>
	</g>
</g>
</svg>
