<?xml version="1.0" encoding="iso-8859-1"?>
<!-- Generator: Adobe Illustrator 19.0.0, SVG Export Plug-In . SVG Version: 6.00 Build 0)  -->
<svg version="1.1" id="Layer_1" xmlns="http://www.w3.org/2000/svg" xmlns:xlink="http://www.w3.org/1999/xlink" x="0px" y="0px"
	 viewBox="0 0 30 30" style="enable-background:new 0 0 30 30;" xml:space="preserve">
<g>
	<g>
		<path d="M16,23.5c0-1.808,0.662-3.559,1.863-4.93c0.104-0.117,0.146-0.276,0.114-0.43c-0.038-0.183-0.061-0.329-0.075-0.437
			c0.825-0.807,1.312-1.984,1.312-3.204c0-0.523,0.17-0.736,0.229-0.766c0.156-0.041,0.283-0.153,0.341-0.304
			c0.026-0.067,0.638-1.662,0.638-2.681c0-0.04-0.005-0.079-0.014-0.117c-0.064-0.266-0.25-0.662-0.59-0.869V6.375
			c0-1.993-0.593-2.783-1.213-3.244C18.536,2.157,17.625,0,14,0c-3.771,0-6.61,3.792-6.61,6.25c0,1.134-0.047,2.055-0.082,2.728
			C7.295,9.226,7.284,9.444,7.277,9.634c-0.346,0.207-0.534,0.606-0.598,0.874c-0.009,0.038-0.014,0.078-0.014,0.117
			c0,1.019,0.612,2.613,0.638,2.681c0.058,0.15,0.154,0.253,0.31,0.294c0.09,0.039,0.261,0.252,0.261,0.775
			c0,1.43,1.366,2.83,1.93,3.347c-0.023,0.866-0.208,3.236-1.481,3.792l-5.615,1.365c-1.345,0.465-2.352,1.587-2.694,3.004
			C0.005,25.921,0,25.96,0,26v3.5C0,29.776,0.224,30,0.5,30h17.726c0.208,0,0.395-0.129,0.468-0.323
			c0.073-0.195,0.019-0.415-0.138-0.552C16.932,27.695,16,25.646,16,23.5z M23.5,17c-3.584,0-6.5,2.916-6.5,6.5s2.916,6.5,6.5,6.5
			s6.5-2.916,6.5-6.5S27.084,17,23.5,17z M26.5,24H24v2.5c0,0.276-0.224,0.5-0.5,0.5S23,26.776,23,26.5V24h-2.5
			c-0.276,0-0.5-0.224-0.5-0.5s0.224-0.5,0.5-0.5H23v-2.5c0-0.276,0.224-0.5,0.5-0.5s0.5,0.224,0.5,0.5V23h2.5
			c0.276,0,0.5,0.224,0.5,0.5S26.776,24,26.5,24z"/>
	</g>
</g>
</svg>
