<?xml version="1.0" encoding="iso-8859-1"?>
<!-- Generator: Adobe Illustrator 19.0.0, SVG Export Plug-In . SVG Version: 6.00 Build 0)  -->
<svg version="1.1" id="Layer_1" xmlns="http://www.w3.org/2000/svg" xmlns:xlink="http://www.w3.org/1999/xlink" x="0px" y="0px"
	 viewBox="0 0 30 30" style="enable-background:new 0 0 30 30;" xml:space="preserve">
<g>
	<g>
		<path d="M17.721,6.077c0.448,0.491,0.658,1.142,0.575,1.784l-0.229,1.772c-0.079,0.614-0.424,1.181-0.946,1.553
			c-0.095,0.068-0.162,0.166-0.192,0.279c-0.217,0.816-0.599,1.617-1.104,2.316c-0.098,0.135-0.121,0.31-0.063,0.466
			c0.058,0.156,0.189,0.273,0.351,0.313l2.222,0.538c0.828,0.201,1.597,0.605,2.284,1.203c0.093,0.081,0.209,0.123,0.328,0.123
			c0.054,0,0.107-0.009,0.16-0.026c0.42-0.142,0.866-0.247,1.325-0.313c0.237-0.034,0.417-0.232,0.428-0.473
			c0.009-0.189-0.09-0.363-0.248-0.455l-0.285-1.105c0.922-0.896,1.556-2.115,1.753-3.372c0.523-0.154,0.925-0.599,0.996-1.153
			l0.229-1.771c0.049-0.385-0.069-0.774-0.326-1.069c-0.149-0.172-0.337-0.303-0.546-0.386l0.08-1.595l0.327-0.317
			c0.53-0.547,0.971-1.484,0.055-2.84C24.202,0.521,23.027,0,21.404,0c-0.903,0-2.09,0.087-3.258,0.765
			c-0.234,0.137-0.318,0.436-0.188,0.673c0.708,1.29,0.588,2.54-0.337,3.519c-0.082,0.087-0.13,0.2-0.136,0.319l-0.016,0.315
			c-0.008,0.143,0.047,0.282,0.149,0.382L17.721,6.077z M19.259,17.321c0.14-0.097,0.222-0.257,0.217-0.426
			c-0.005-0.17-0.096-0.325-0.24-0.413c-0.416-0.253-0.784-0.413-1.158-0.505l-3.473-0.841l-0.279-1.084
			c0.922-0.896,1.556-2.115,1.753-3.372c0.523-0.154,0.925-0.599,0.996-1.152l0.229-1.772c0.049-0.385-0.069-0.774-0.326-1.069
			c-0.149-0.172-0.337-0.303-0.546-0.386l0.08-1.595l0.327-0.317c0.53-0.547,0.971-1.484,0.055-2.84C16.201,0.521,15.026,0,13.403,0
			c-0.637,0-2.102,0-3.47,0.888C6.013,0.97,5.48,2.749,5.48,4.485c0,0.389,0.094,1.244,0.159,1.789
			C5.406,6.353,5.195,6.492,5.03,6.679C4.769,6.976,4.649,7.368,4.699,7.757l0.229,1.771c0.076,0.592,0.529,1.06,1.104,1.181
			c0.196,1.205,0.797,2.385,1.665,3.266l-0.3,1.163l-3.472,0.841C1.5,16.564,0,19.301,0,21.5C0,21.776,0.224,22,0.5,22h15.264
			c0.228,0,0.427-0.154,0.484-0.375C16.7,19.875,17.771,18.347,19.259,17.321z M29.991,23.69C29.996,23.627,30,23.564,30,23.5
			c0-3.584-2.916-6.5-6.5-6.5S17,19.916,17,23.5c0,3.584,2.916,6.5,6.5,6.5c1.795,0,3.516-0.752,4.745-2.067
			c0.138-0.083,0.229-0.235,0.237-0.412c0.013-0.267-0.204-0.498-0.471-0.522c-0.157-0.009-0.313,0.048-0.418,0.165
			C26.549,28.33,25.057,29,23.5,29c-3.032,0-5.5-2.468-5.5-5.5c0-3.032,2.468-5.5,5.5-5.5s5.5,2.468,5.5,5.5l-0.006,0.121
			c0,0.004-0.006,0.096-0.006,0.1c-0.001,0.027,0.009,0.049,0.012,0.074V24c0,0.552-0.448,1-1,1s-1-0.448-1-1v-0.5
			c0-1.93-1.57-3.5-3.5-3.5S20,21.57,20,23.5s1.57,3.5,3.5,3.5c1.271,0,2.376-0.688,2.989-1.705C26.856,25.723,27.394,26,28,26
			c1.103,0,2-0.897,2-2v-0.257c0-0.017-0.008-0.032-0.01-0.049C29.99,23.693,29.991,23.692,29.991,23.69z M23.5,26
			c-1.379,0-2.5-1.121-2.5-2.5c0-1.379,1.121-2.5,2.5-2.5s2.5,1.121,2.5,2.5C26,24.879,24.879,26,23.5,26z"/>
	</g>
</g>
</svg>
