<?xml version="1.0" encoding="iso-8859-1"?>
<!-- Generator: Adobe Illustrator 19.0.0, SVG Export Plug-In . SVG Version: 6.00 Build 0)  -->
<svg version="1.1" id="Layer_1" xmlns="http://www.w3.org/2000/svg" xmlns:xlink="http://www.w3.org/1999/xlink" x="0px" y="0px"
	 viewBox="0 0 30 30" style="enable-background:new 0 0 30 30;" xml:space="preserve">
<g>
	<g>
		<path d="M16,23.5c0-1.808,0.661-3.558,1.862-4.93c0.104-0.117,0.146-0.276,0.114-0.43c-0.038-0.183-0.062-0.329-0.075-0.437
			c0.825-0.807,1.312-1.984,1.312-3.204c0-0.523,0.171-0.736,0.229-0.766c0.156-0.041,0.283-0.153,0.342-0.304
			c0.025-0.067,0.638-1.662,0.638-2.681c0-0.04-0.005-0.079-0.014-0.118c-0.064-0.265-0.25-0.661-0.591-0.869V6.375
			c0-1.992-0.593-2.782-1.212-3.243C18.536,2.158,17.626,0,14,0c-3.771,0-6.61,3.792-6.61,6.25c0,1.134-0.047,2.056-0.081,2.729
			C7.296,9.226,7.285,9.444,7.278,9.634c-0.346,0.207-0.533,0.606-0.599,0.874c-0.009,0.039-0.014,0.078-0.014,0.118
			c0,1.019,0.612,2.613,0.638,2.681c0.059,0.15,0.154,0.253,0.311,0.294c0.09,0.039,0.26,0.252,0.26,0.775
			c0,1.43,1.367,2.83,1.932,3.347c-0.024,0.867-0.208,3.236-1.482,3.792L2.71,22.88c-1.345,0.465-2.352,1.587-2.694,3.004
			C0.005,25.921,0,25.96,0,26v3.5C0,29.776,0.224,30,0.5,30h17.727c0.208,0,0.395-0.129,0.468-0.323
			c0.073-0.195,0.019-0.415-0.138-0.552C16.932,27.695,16,25.645,16,23.5z M29.991,23.69C29.996,23.627,30,23.564,30,23.5
			c0-3.584-2.916-6.5-6.5-6.5S17,19.916,17,23.5s2.916,6.5,6.5,6.5c1.794,0,3.515-0.751,4.743-2.065
			c0.14-0.084,0.231-0.237,0.239-0.416c0.011-0.268-0.208-0.498-0.475-0.521c-0.168-0.014-0.31,0.048-0.415,0.165
			C26.549,28.33,25.058,29,23.5,29c-3.032,0-5.5-2.468-5.5-5.5s2.468-5.5,5.5-5.5s5.5,2.468,5.5,5.5l-0.006,0.121
			c0,0.004-0.006,0.096-0.006,0.1c-0.001,0.027,0.009,0.049,0.012,0.074V24c0,0.552-0.448,1-1,1s-1-0.448-1-1v-0.5
			c0-1.93-1.57-3.5-3.5-3.5S20,21.57,20,23.5s1.57,3.5,3.5,3.5c1.271,0,2.376-0.688,2.989-1.705C26.856,25.723,27.394,26,28,26
			c1.103,0,2-0.897,2-2v-0.257c0-0.017-0.008-0.032-0.01-0.049C29.99,23.693,29.991,23.692,29.991,23.69z M23.5,26
			c-1.379,0-2.5-1.121-2.5-2.5s1.121-2.5,2.5-2.5s2.5,1.121,2.5,2.5S24.879,26,23.5,26z"/>
	</g>
</g>
</svg>
