<?xml version="1.0" encoding="iso-8859-1"?>
<!-- Generator: Adobe Illustrator 19.0.0, SVG Export Plug-In . SVG Version: 6.00 Build 0)  -->
<svg version="1.1" id="Layer_1" xmlns="http://www.w3.org/2000/svg" xmlns:xlink="http://www.w3.org/1999/xlink" x="0px" y="0px"
	 viewBox="0 0 30 30" style="enable-background:new 0 0 30 30;" xml:space="preserve">
<g>
	<g>
		<path d="M16,23.5c0-2.544,1.283-4.896,3.433-6.291c0.076-0.049,0.137-0.118,0.177-0.2c0.408-0.835,0.681-1.729,0.797-2.609
			c0.66-0.167,1.176-0.74,1.262-1.462l0.294-2.445c0.06-0.495-0.093-0.992-0.417-1.362c-0.194-0.221-0.44-0.385-0.712-0.479
			l0.114-2.439l0.467-0.487c0.633-0.701,1.155-1.904,0.052-3.658C20.605,0.696,19.132,0,17.089,0c-0.813,0-2.69,0-4.428,1.225
			C7.716,1.326,7.044,3.693,7.044,6.002c0,0.568,0.14,1.888,0.223,2.616C6.961,8.702,6.682,8.875,6.465,9.119
			c-0.33,0.373-0.485,0.873-0.426,1.374l0.294,2.445c0.092,0.771,0.674,1.372,1.399,1.49c0.229,1.706,1.023,3.385,2.185,4.612
			l-0.44,1.836L4.928,22.06C1.884,22.854,0,26.54,0,29.5C0,29.776,0.224,30,0.5,30h17c0.251,0,0.463-0.186,0.496-0.435l0.083-0.635
			c0.019-0.146-0.027-0.292-0.126-0.401C16.693,27.142,16,25.356,16,23.5z M29.991,23.691C29.996,23.628,30,23.564,30,23.5
			c0-3.584-2.916-6.5-6.5-6.5S17,19.916,17,23.5c0,3.584,2.916,6.5,6.5,6.5c1.795,0,3.516-0.751,4.745-2.067
			c0.145-0.087,0.238-0.25,0.238-0.435c0-0.418-0.609-0.646-0.889-0.335C26.549,28.331,25.057,29,23.5,29
			c-3.032,0-5.5-2.467-5.5-5.5c0-3.033,2.468-5.5,5.5-5.5s5.5,2.467,5.5,5.5l-0.006,0.122c0,0.003-0.006,0.095-0.006,0.098
			c-0.001,0.027,0.009,0.049,0.012,0.074V24c0,0.551-0.448,1-1,1s-1-0.449-1-1v-0.5c0-1.93-1.57-3.5-3.5-3.5S20,21.57,20,23.5
			s1.57,3.5,3.5,3.5c1.271,0,2.375-0.688,2.989-1.705C26.856,25.723,27.393,26,28,26c1.103,0,2-0.897,2-2v-0.256
			c0-0.017-0.008-0.032-0.01-0.049C29.99,23.694,29.991,23.693,29.991,23.691z M23.5,26c-1.379,0-2.5-1.122-2.5-2.5
			s1.121-2.5,2.5-2.5s2.5,1.122,2.5,2.5S24.879,26,23.5,26z"/>
	</g>
</g>
</svg>
