<?xml version="1.0" encoding="iso-8859-1"?>
<!-- Generator: Adobe Illustrator 19.0.0, SVG Export Plug-In . SVG Version: 6.00 Build 0)  -->
<svg version="1.1" id="Layer_1" xmlns="http://www.w3.org/2000/svg" xmlns:xlink="http://www.w3.org/1999/xlink" x="0px" y="0px"
	 viewBox="0 0 30 30" style="enable-background:new 0 0 30 30;" xml:space="preserve">
<g>
	<g>
		<path d="M16.135,21.909C16.983,21.314,17.973,21,19,21h2.383c0.15,0,0.292-0.067,0.388-0.184c0.095-0.116,0.132-0.27,0.103-0.417
			c-0.364-1.774-1.707-3.915-3.796-4.422l-3.473-0.841l-0.279-1.084c0.922-0.896,1.556-2.115,1.753-3.372
			c0.523-0.154,0.925-0.599,0.996-1.152l0.229-1.772c0.049-0.385-0.069-0.774-0.326-1.069c-0.149-0.172-0.337-0.303-0.546-0.386
			l0.08-1.595l0.327-0.317c0.53-0.547,0.971-1.484,0.055-2.84C16.201,0.521,15.026,0,13.403,0c-0.637,0-2.102,0-3.47,0.888
			C6.013,0.97,5.48,2.749,5.48,4.485c0,0.389,0.094,1.244,0.158,1.789C5.406,6.353,5.195,6.492,5.03,6.679
			C4.769,6.976,4.649,7.368,4.699,7.757l0.229,1.771c0.076,0.592,0.529,1.06,1.104,1.181c0.196,1.205,0.797,2.385,1.665,3.266
			l-0.3,1.163l-3.472,0.841C1.5,16.564,0,19.301,0,21.5C0,21.776,0.224,22,0.5,22h15.348C15.95,22,16.051,21.969,16.135,21.909z
			 M17.721,6.077c0.448,0.491,0.658,1.142,0.575,1.784l-0.229,1.772c-0.079,0.614-0.424,1.181-0.946,1.553
			c-0.094,0.068-0.162,0.166-0.192,0.279c-0.217,0.816-0.599,1.617-1.104,2.316c-0.098,0.135-0.121,0.31-0.063,0.466
			c0.058,0.156,0.189,0.273,0.351,0.313l2.222,0.538c2.684,0.649,4.262,3.294,4.593,5.476c0.037,0.244,0.247,0.425,0.494,0.425H27
			c0.783,0,1.545,0.23,2.202,0.667c0.084,0.055,0.18,0.083,0.276,0.083c0.086,0,0.171-0.021,0.248-0.065
			c0.164-0.095,0.262-0.272,0.251-0.461c-0.114-2.142-1.605-4.689-3.9-5.246l-3.473-0.841l-0.279-1.084
			c0.922-0.896,1.556-2.115,1.753-3.372c0.523-0.154,0.925-0.599,0.996-1.152l0.229-1.772c0.049-0.385-0.069-0.774-0.326-1.069
			c-0.149-0.172-0.337-0.303-0.546-0.386l0.08-1.595l0.327-0.317c0.53-0.547,0.971-1.484,0.055-2.84C24.2,0.521,23.025,0,21.402,0
			c-0.903,0-2.09,0.087-3.258,0.765c-0.234,0.137-0.318,0.436-0.188,0.673c0.708,1.29,0.588,2.54-0.337,3.519
			c-0.082,0.087-0.13,0.2-0.136,0.319l-0.016,0.315c-0.008,0.143,0.047,0.282,0.149,0.382L17.721,6.077z M27,22h-8
			c-2.206,0-4,1.794-4,4s1.794,4,4,4h6.937c0.276,0,0.5-0.224,0.5-0.5s-0.224-0.5-0.5-0.5H19c-1.654,0-3-1.346-3-3s1.346-3,3-3h8
			c1.103,0,2,0.897,2,2c0,1.103-0.897,2-2,2h-7c-0.552,0-1-0.448-1-1s0.448-1,1-1h5.5c0.276,0,0.5-0.224,0.5-0.5S25.776,24,25.5,24
			H20c-1.103,0-2,0.897-2,2c0,1.103,0.897,2,2,2h7c1.654,0,3-1.346,3-3S28.654,22,27,22z"/>
	</g>
</g>
</svg>
