<?xml version="1.0" encoding="iso-8859-1"?>
<!-- Generator: Adobe Illustrator 19.0.0, SVG Export Plug-In . SVG Version: 6.00 Build 0)  -->
<svg version="1.1" id="Layer_1" xmlns="http://www.w3.org/2000/svg" xmlns:xlink="http://www.w3.org/1999/xlink" x="0px" y="0px"
	 viewBox="0 0 30 30" style="enable-background:new 0 0 30 30;" xml:space="preserve">
<g>
	<g>
		<path d="M14,26c0-2.385,1.699-4.448,4.041-4.905c0.134-0.026,0.251-0.105,0.325-0.22c0.073-0.115,0.097-0.254,0.065-0.387
			l-0.321-1.34c1.229-1.245,2.065-2.977,2.296-4.748c0.661-0.167,1.176-0.74,1.262-1.461l0.294-2.445
			c0.06-0.495-0.093-0.992-0.417-1.362c-0.194-0.221-0.44-0.385-0.712-0.479l0.114-2.439l0.467-0.487
			c0.633-0.701,1.155-1.904,0.052-3.658C20.604,0.697,19.131,0,17.088,0c-0.813,0-2.69,0-4.428,1.225
			C7.715,1.327,7.043,3.694,7.043,6.003c0,0.568,0.14,1.888,0.223,2.616C6.96,8.703,6.681,8.875,6.464,9.12
			c-0.33,0.373-0.485,0.873-0.426,1.374l0.294,2.445c0.092,0.771,0.674,1.372,1.399,1.49c0.229,1.706,1.023,3.385,2.185,4.612
			l-0.44,1.836L4.927,22.06C1.884,22.854,0,26.539,0,29.5C0,29.776,0.224,30,0.5,30h14.261c0.193,0,0.37-0.112,0.452-0.287
			c0.083-0.175,0.057-0.382-0.066-0.532C14.407,28.288,14,27.158,14,26z M27,22h-8c-2.206,0-4,1.794-4,4s1.794,4,4,4h6.937
			c0.276,0,0.5-0.224,0.5-0.5s-0.224-0.5-0.5-0.5H19c-1.654,0-3-1.346-3-3s1.346-3,3-3h8c1.103,0,2,0.897,2,2c0,1.103-0.897,2-2,2
			h-7c-0.552,0-1-0.449-1-1s0.448-1,1-1h5.5c0.276,0,0.5-0.224,0.5-0.5S25.776,24,25.5,24H20c-1.103,0-2,0.897-2,2
			c0,1.103,0.897,2,2,2h7c1.654,0,3-1.346,3-3S28.654,22,27,22z"/>
	</g>
</g>
</svg>
