<?xml version="1.0" encoding="iso-8859-1"?>
<!-- Generator: Adobe Illustrator 19.0.0, SVG Export Plug-In . SVG Version: 6.00 Build 0)  -->
<svg version="1.1" id="Layer_1" xmlns="http://www.w3.org/2000/svg" xmlns:xlink="http://www.w3.org/1999/xlink" x="0px" y="0px"
	 viewBox="0 0 30 30" style="enable-background:new 0 0 30 30;" xml:space="preserve">
<g>
	<g>
		<path d="M17.721,6.077c0.448,0.491,0.658,1.142,0.575,1.784l-0.229,1.772c-0.079,0.614-0.424,1.181-0.946,1.553
			c-0.095,0.068-0.162,0.166-0.192,0.279c-0.217,0.816-0.599,1.617-1.104,2.316c-0.098,0.135-0.121,0.31-0.063,0.466
			c0.058,0.156,0.189,0.273,0.351,0.313l2.222,0.538c0.828,0.201,1.597,0.605,2.284,1.203c0.093,0.081,0.209,0.123,0.328,0.123
			c0.054,0,0.107-0.009,0.16-0.026c0.42-0.142,0.866-0.247,1.325-0.313c0.237-0.034,0.417-0.232,0.428-0.473
			c0.009-0.189-0.09-0.363-0.248-0.455l-0.285-1.105c0.922-0.896,1.556-2.115,1.753-3.372c0.523-0.154,0.925-0.599,0.996-1.153
			l0.229-1.771c0.049-0.385-0.069-0.774-0.326-1.069c-0.149-0.172-0.337-0.303-0.546-0.386l0.08-1.595l0.327-0.317
			c0.53-0.547,0.971-1.484,0.055-2.84C24.202,0.521,23.027,0,21.404,0c-0.903,0-2.09,0.087-3.258,0.765
			c-0.234,0.137-0.318,0.436-0.188,0.673c0.708,1.29,0.588,2.54-0.337,3.519c-0.082,0.087-0.13,0.2-0.136,0.319l-0.016,0.315
			c-0.008,0.143,0.047,0.282,0.149,0.382L17.721,6.077z M19.259,17.321c0.14-0.097,0.222-0.257,0.217-0.426
			c-0.005-0.17-0.096-0.325-0.24-0.413c-0.416-0.253-0.784-0.413-1.158-0.505l-3.473-0.841l-0.279-1.084
			c0.922-0.896,1.556-2.115,1.753-3.372c0.523-0.154,0.925-0.599,0.996-1.152l0.229-1.772c0.049-0.385-0.069-0.774-0.326-1.069
			c-0.149-0.172-0.337-0.303-0.546-0.386l0.08-1.595l0.327-0.317c0.53-0.547,0.971-1.484,0.055-2.84C16.201,0.521,15.026,0,13.403,0
			c-0.637,0-2.102,0-3.47,0.888C6.013,0.97,5.48,2.749,5.48,4.485c0,0.389,0.094,1.244,0.159,1.789
			C5.406,6.353,5.195,6.492,5.03,6.679C4.769,6.976,4.649,7.368,4.699,7.757l0.229,1.771c0.076,0.592,0.529,1.06,1.104,1.181
			c0.196,1.205,0.797,2.385,1.665,3.266l-0.3,1.163l-3.472,0.841C1.5,16.564,0,19.301,0,21.5C0,21.776,0.224,22,0.5,22h15.264
			c0.228,0,0.427-0.154,0.484-0.375C16.7,19.875,17.771,18.347,19.259,17.321z M24,24h-2v2h2c0.552,0,1-0.448,1-1S24.552,24,24,24z
			 M24,21h-2v2h2c0.552,0,1-0.448,1-1S24.552,21,24,21z M23.5,17c-3.584,0-6.5,2.916-6.5,6.5c0,3.584,2.916,6.5,6.5,6.5
			s6.5-2.916,6.5-6.5C30,19.916,27.084,17,23.5,17z M26,25c0,0.737-0.405,1.375-1,1.722V27.5c0,0.276-0.224,0.5-0.5,0.5
			S24,27.776,24,27.5V27h-1v0.5c0,0.276-0.224,0.5-0.5,0.5S22,27.776,22,27.5V27h-0.5c-0.276,0-0.5-0.224-0.5-0.5v-6
			c0-0.276,0.224-0.5,0.5-0.5H22v-0.5c0-0.276,0.224-0.5,0.5-0.5s0.5,0.224,0.5,0.5V20h1v-0.5c0-0.276,0.224-0.5,0.5-0.5
			s0.5,0.224,0.5,0.5v0.778c0.595,0.347,1,0.985,1,1.722c0,0.6-0.271,1.133-0.691,1.5C25.729,23.867,26,24.4,26,25z"/>
	</g>
</g>
</svg>
