<?xml version="1.0" encoding="iso-8859-1"?>
<!-- Generator: Adobe Illustrator 19.0.0, SVG Export Plug-In . SVG Version: 6.00 Build 0)  -->
<svg version="1.1" id="Layer_1" xmlns="http://www.w3.org/2000/svg" xmlns:xlink="http://www.w3.org/1999/xlink" x="0px" y="0px"
	 viewBox="0 0 30 30" style="enable-background:new 0 0 30 30;" xml:space="preserve">
<g>
	<g>
		<path d="M18,27.214V25c0-0.565,0.312-1.076,0.814-1.334l0.517-0.266c0.118-0.061,0.207-0.164,0.247-0.29l0.367-1.133
			c0.07-0.217-0.015-0.453-0.206-0.575c-1.211-0.774-1.742-2.93-1.838-3.697c0.826-0.807,1.313-1.985,1.313-3.205
			c0-0.523,0.17-0.736,0.229-0.766c0.156-0.041,0.283-0.153,0.341-0.304c0.026-0.067,0.638-1.661,0.638-2.681
			c0-0.039-0.005-0.079-0.014-0.117c-0.064-0.266-0.25-0.661-0.59-0.869V6.374c0-1.993-0.593-2.783-1.213-3.244
			c-0.069-0.975-0.979-3.131-4.604-3.131c-3.771,0-6.61,3.791-6.61,6.25c0,1.134-0.047,2.056-0.082,2.729
			C7.296,9.225,7.285,9.444,7.278,9.633C6.932,9.839,6.744,10.24,6.68,10.507c-0.009,0.038-0.014,0.078-0.014,0.117
			c0,1.02,0.612,2.613,0.638,2.681c0.058,0.15,0.154,0.253,0.31,0.294c0.09,0.039,0.261,0.252,0.261,0.775
			c0,1.43,1.366,2.83,1.93,3.347c-0.023,0.866-0.208,3.236-1.481,3.792l-5.615,1.365c-1.345,0.465-2.352,1.587-2.694,3.004
			C0.005,25.922,0,25.961,0,26v3.5C0,29.776,0.224,30,0.5,30h17.923c0.201,0,0.381-0.12,0.46-0.305
			c0.079-0.184,0.04-0.397-0.1-0.542C18.278,28.628,18,27.939,18,27.214z M29.724,24.553l-1-0.5
			c-0.016-0.008-0.034-0.006-0.051-0.012l-0.913-2.816C27.523,20.493,26.855,20,26.099,20h-3.198c-0.756,0-1.424,0.492-1.661,1.225
			l-0.913,2.816c-0.016,0.006-0.035,0.004-0.051,0.012l-1,0.5C19.107,24.638,19,24.811,19,25v2.5c0,0.827,0.673,1.5,1.5,1.5H21v0.5
			c0,0.276,0.224,0.5,0.5,0.5s0.5-0.224,0.5-0.5V29h5v0.5c0,0.276,0.224,0.5,0.5,0.5s0.5-0.224,0.5-0.5V29h0.5
			c0.827,0,1.5-0.673,1.5-1.5V25C30,24.811,29.893,24.638,29.724,24.553z M21.667,27h-1.333c-0.184,0-0.333-0.224-0.333-0.5
			S20.15,26,20.334,26h1.333C21.851,26,22,26.224,22,26.5S21.851,27,21.667,27z M21.391,24l0.8-2.467
			C22.295,21.214,22.58,21,22.901,21h3.198c0.321,0,0.606,0.214,0.71,0.533L27.608,24H21.391z M28.667,27h-1.333
			c-0.184,0-0.333-0.224-0.333-0.5S27.15,26,27.334,26h1.333C28.851,26,29,26.224,29,26.5S28.851,27,28.667,27z"/>
	</g>
</g>
</svg>
