<?xml version="1.0" encoding="iso-8859-1"?>
<!-- Generator: Adobe Illustrator 19.0.0, SVG Export Plug-In . SVG Version: 6.00 Build 0)  -->
<svg version="1.1" id="Layer_1" xmlns="http://www.w3.org/2000/svg" xmlns:xlink="http://www.w3.org/1999/xlink" x="0px" y="0px"
	 viewBox="0 0 30 30" style="enable-background:new 0 0 30 30;" xml:space="preserve">
<g>
	<g>
		<path d="M12,27c0-1.421,0.766-2.747,1.998-3.461c0.115-0.067,0.198-0.177,0.232-0.306c0.583-2.217,2.229-4.015,4.405-4.809
			c0.094-0.034,0.175-0.096,0.233-0.177c0.821-1.135,1.359-2.487,1.537-3.849c0.661-0.167,1.176-0.74,1.262-1.461l0.294-2.445
			c0.06-0.495-0.093-0.992-0.417-1.362c-0.194-0.221-0.44-0.385-0.712-0.479l0.114-2.439l0.467-0.487
			c0.633-0.701,1.155-1.904,0.052-3.658C20.603,0.695,19.13,0,17.087,0c-0.813,0-2.69,0-4.428,1.225
			C7.714,1.326,7.042,3.693,7.042,6.001c0,0.568,0.14,1.888,0.223,2.616C6.959,8.701,6.68,8.875,6.463,9.118
			c-0.33,0.373-0.485,0.873-0.426,1.374l0.294,2.445c0.092,0.771,0.674,1.372,1.399,1.49c0.229,1.706,1.023,3.385,2.185,4.612
			l-0.44,1.836L4.926,22.06C1.884,22.854,0,26.54,0,29.5C0,29.776,0.224,30,0.5,30h11.762c0.185,0,0.354-0.102,0.441-0.265
			c0.087-0.163,0.077-0.361-0.026-0.514C12.234,28.563,12,27.793,12,27z M25.5,21h-0.029c-1.14-1.275-2.754-2-4.471-2
			c-2.979,0-5.52,2.235-5.936,5.151C13.849,24.55,13,25.694,13,27c0,1.654,1.346,3,3,3h9.5c2.481,0,4.5-2.019,4.5-4.5
			S27.981,21,25.5,21z"/>
	</g>
</g>
</svg>
