<?xml version="1.0" encoding="iso-8859-1"?>
<!-- Generator: Adobe Illustrator 19.0.0, SVG Export Plug-In . SVG Version: 6.00 Build 0)  -->
<svg version="1.1" id="Layer_1" xmlns="http://www.w3.org/2000/svg" xmlns:xlink="http://www.w3.org/1999/xlink" x="0px" y="0px"
	 viewBox="0 0 30 30" style="enable-background:new 0 0 30 30;" xml:space="preserve">
<g>
	<g>
		<path d="M12.249,27c0-1.42,0.766-2.746,1.998-3.461c0.115-0.066,0.199-0.177,0.232-0.306c0.451-1.716,1.558-3.194,3.113-4.162
			c0.186-0.115,0.275-0.338,0.221-0.55c-0.088-0.342-0.14-0.628-0.163-0.817c0.825-0.806,1.312-1.984,1.312-3.204
			c0-0.523,0.171-0.736,0.229-0.766c0.156-0.041,0.283-0.153,0.342-0.304c0.025-0.067,0.638-1.661,0.638-2.681
			c0-0.04-0.005-0.079-0.014-0.118c-0.064-0.265-0.25-0.66-0.591-0.868V6.374c0-1.992-0.593-2.782-1.212-3.243
			c-0.069-0.975-0.979-3.132-4.605-3.132c-3.771,0-6.61,3.791-6.61,6.25c0,1.134-0.047,2.056-0.081,2.729
			C7.045,9.225,7.034,9.444,7.027,9.633c-0.346,0.206-0.533,0.606-0.599,0.873c-0.009,0.039-0.014,0.078-0.014,0.118
			c0,1.02,0.612,2.613,0.638,2.681c0.059,0.15,0.154,0.253,0.311,0.294c0.09,0.039,0.26,0.252,0.26,0.775
			c0,1.43,1.367,2.83,1.932,3.347c-0.024,0.867-0.208,3.236-1.482,3.792l-5.614,1.365c-1.345,0.465-2.352,1.587-2.694,3.004
			C-0.244,25.92-0.249,25.959-0.249,26v3.5c0,0.276,0.224,0.5,0.5,0.5h12.262c0.185,0,0.354-0.102,0.441-0.265
			c0.087-0.163,0.077-0.36-0.026-0.514C12.483,28.563,12.249,27.794,12.249,27z M25.749,21H25.72c-1.14-1.274-2.754-2-4.471-2
			c-2.979,0-5.52,2.235-5.936,5.151c-1.215,0.4-2.064,1.543-2.064,2.849c0,1.654,1.346,3,3,3h9.5c2.481,0,4.5-2.019,4.5-4.5
			S28.23,21,25.749,21z"/>
	</g>
</g>
</svg>
