<?xml version="1.0" encoding="iso-8859-1"?>
<!-- Generator: Adobe Illustrator 19.0.0, SVG Export Plug-In . SVG Version: 6.00 Build 0)  -->
<svg version="1.1" id="Layer_1" xmlns="http://www.w3.org/2000/svg" xmlns:xlink="http://www.w3.org/1999/xlink" x="0px" y="0px"
	 viewBox="0 0 30 30" style="enable-background:new 0 0 30 30;" xml:space="preserve">
<g>
	<g>
		<path d="M16,23.5c0-2.544,1.283-4.896,3.432-6.291c0.076-0.049,0.137-0.118,0.177-0.2c0.409-0.834,0.681-1.729,0.796-2.609
			c0.661-0.167,1.177-0.74,1.263-1.462l0.293-2.445c0.06-0.496-0.092-0.992-0.417-1.362c-0.194-0.222-0.441-0.386-0.712-0.479
			l0.114-2.438l0.467-0.487c0.633-0.701,1.155-1.904,0.052-3.658C20.602,0.697,19.129,0,17.086,0c-0.813,0-2.69,0-4.427,1.225
			C7.714,1.326,7.042,3.693,7.042,6.003c0,0.568,0.14,1.888,0.223,2.616C6.959,8.703,6.679,8.875,6.462,9.12
			c-0.33,0.373-0.485,0.873-0.425,1.373l0.293,2.445c0.092,0.771,0.674,1.373,1.4,1.49c0.229,1.705,1.023,3.385,2.185,4.612
			l-0.441,1.836L4.926,22.06C1.884,22.854,0,26.539,0,29.5C0,29.776,0.224,30,0.5,30h17.726c0.208,0,0.395-0.129,0.468-0.323
			c0.073-0.195,0.019-0.415-0.137-0.552C16.932,27.695,16,25.645,16,23.5z M23.5,22c0.293,0,0.472,0.122,0.5,0.176
			c0.005,0.272,0.227,0.491,0.5,0.491c0.276,0,0.5-0.224,0.5-0.5C25,21.513,24.341,21,23.5,21S22,21.513,22,22.167v2.666
			C22,25.487,22.659,26,23.5,26s1.5-0.513,1.5-1.167c0-0.276-0.223-0.507-0.499-0.507s-0.499,0.217-0.499,0.493
			C23.981,24.87,23.801,25,23.5,25c-0.301,0-0.481-0.129-0.5-0.167l-0.002-2.652C23.019,22.129,23.199,22,23.5,22z M23.5,17
			c-3.584,0-6.5,2.916-6.5,6.5s2.916,6.5,6.5,6.5s6.5-2.916,6.5-6.5S27.084,17,23.5,17z M23.5,29c-3.033,0-5.5-2.468-5.5-5.5
			s2.467-5.5,5.5-5.5c3.033,0,5.5,2.468,5.5,5.5S26.533,29,23.5,29z"/>
	</g>
</g>
</svg>
