<?xml version="1.0" encoding="iso-8859-1"?>
<!-- Generator: Adobe Illustrator 19.0.0, SVG Export Plug-In . SVG Version: 6.00 Build 0)  -->
<svg version="1.1" id="Layer_1" xmlns="http://www.w3.org/2000/svg" xmlns:xlink="http://www.w3.org/1999/xlink" x="0px" y="0px"
	 viewBox="0 0 30 30" style="enable-background:new 0 0 30 30;" xml:space="preserve">
<g>
	<g>
		<path d="M23.5,17c-3.584,0-6.5,2.916-6.5,6.5s2.916,6.5,6.5,6.5s6.5-2.916,6.5-6.5S27.084,17,23.5,17z M21.5,25
			c0.276,0,0.5-0.224,0.5-0.5s0.224-0.5,0.5-0.5s0.5,0.224,0.5,0.5c0,0.827-0.673,1.5-1.5,1.5c-0.827,0-1.5-0.673-1.5-1.5v-2
			c0-0.827,0.673-1.5,1.5-1.5c0.827,0,1.5,0.673,1.5,1.5c0,0.276-0.224,0.5-0.5,0.5S22,22.776,22,22.5S21.776,22,21.5,22
			S21,22.224,21,22.5v2C21,24.776,21.224,25,21.5,25z M25.5,25c0.276,0,0.5-0.224,0.5-0.5s0.224-0.5,0.5-0.5s0.5,0.224,0.5,0.5
			c0,0.827-0.673,1.5-1.5,1.5S24,25.327,24,24.5v-2c0-0.827,0.673-1.5,1.5-1.5s1.5,0.673,1.5,1.5c0,0.276-0.224,0.5-0.5,0.5
			S26,22.776,26,22.5S25.776,22,25.5,22S25,22.224,25,22.5v2C25,24.776,25.224,25,25.5,25z M16,23.5
			c0-2.544,1.283-4.896,3.432-6.291c0.076-0.049,0.137-0.118,0.177-0.2c0.409-0.834,0.681-1.729,0.796-2.609
			c0.661-0.167,1.177-0.74,1.263-1.462l0.293-2.445c0.06-0.496-0.092-0.992-0.417-1.362c-0.193-0.222-0.44-0.386-0.711-0.48
			l0.114-2.438l0.467-0.487c0.633-0.701,1.155-1.904,0.052-3.658C20.604,0.696,19.131,0,17.088,0c-0.813,0-2.69,0-4.427,1.225
			C7.716,1.326,7.044,3.693,7.044,6.002c0,0.568,0.14,1.888,0.223,2.616C6.961,8.702,6.681,8.875,6.464,9.12
			c-0.33,0.373-0.485,0.873-0.425,1.373l0.293,2.445c0.092,0.771,0.674,1.373,1.4,1.49c0.229,1.705,1.023,3.385,2.185,4.612
			l-0.441,1.836L4.928,22.06C1.884,22.854,0,26.54,0,29.5C0,29.776,0.224,30,0.5,30h17.726c0.208,0,0.395-0.129,0.468-0.323
			c0.073-0.195,0.019-0.415-0.137-0.552C16.932,27.695,16,25.645,16,23.5z"/>
	</g>
</g>
</svg>
