<?xml version="1.0" encoding="iso-8859-1"?>
<!-- Generator: Adobe Illustrator 19.0.0, SVG Export Plug-In . SVG Version: 6.00 Build 0)  -->
<svg version="1.1" id="Layer_1" xmlns="http://www.w3.org/2000/svg" xmlns:xlink="http://www.w3.org/1999/xlink" x="0px" y="0px"
	 viewBox="0 0 30 30" style="enable-background:new 0 0 30 30;" xml:space="preserve">
<g>
	<g>
		<path d="M20.823,18.36c0.043-0.149,0.015-0.312-0.078-0.437c-0.739-1.001-1.662-1.658-2.668-1.902l-3.472-0.841l-0.279-1.084
			c0.922-0.896,1.555-2.116,1.752-3.372c0.522-0.154,0.924-0.599,0.996-1.152L17.302,7.8c0.049-0.385-0.069-0.774-0.326-1.069
			c-0.149-0.172-0.337-0.303-0.545-0.385l0.08-1.596l0.326-0.317c0.53-0.547,0.971-1.484,0.056-2.841
			c-0.694-1.027-1.869-1.548-3.491-1.548c-0.637,0-2.103,0-3.471,0.888C6.013,1.014,5.479,2.793,5.479,4.529
			c0,0.389,0.094,1.243,0.159,1.789C5.405,6.397,5.195,6.535,5.03,6.722C4.768,7.019,4.648,7.411,4.698,7.801l0.229,1.771
			c0.077,0.591,0.53,1.059,1.104,1.18c0.197,1.205,0.797,2.385,1.665,3.266l-0.3,1.163l-3.472,0.841C1.5,16.609,0,19.345,0,21.544
			c0,0.276,0.224,0.5,0.5,0.5h17c0.276,0,0.5-0.224,0.5-0.5V21.51c0.002-0.021,0.011-0.097,0.011-0.104
			c0.065-1.153,0.957-2.119,2.512-2.719C20.668,18.631,20.779,18.51,20.823,18.36z M17.721,6.121
			c0.448,0.491,0.658,1.142,0.575,1.784l-0.229,1.772c-0.079,0.614-0.424,1.181-0.946,1.553c-0.095,0.068-0.163,0.166-0.193,0.279
			c-0.217,0.816-0.599,1.617-1.104,2.316c-0.098,0.135-0.122,0.31-0.064,0.466s0.189,0.273,0.352,0.313l2.222,0.538
			c1.455,0.353,2.74,1.352,3.62,2.812c0.104,0.173,0.304,0.27,0.503,0.236c0.646-0.098,1.333-0.147,2.043-0.147
			c1.336,0,2.538,0.169,3.572,0.502c0.05,0.017,0.102,0.024,0.153,0.024c0.161,0,0.316-0.078,0.411-0.215
			c0.125-0.182,0.118-0.424-0.02-0.596c-0.721-0.908-1.599-1.51-2.541-1.738l-3.472-0.841l-0.279-1.084
			c0.922-0.896,1.555-2.116,1.752-3.372c0.522-0.154,0.924-0.599,0.996-1.153l0.229-1.771c0.049-0.385-0.069-0.774-0.326-1.069
			c-0.149-0.172-0.337-0.303-0.545-0.385l0.08-1.596l0.326-0.317c0.53-0.547,0.971-1.484,0.056-2.841
			c-0.694-1.027-1.869-1.548-3.491-1.548c-0.904,0-2.091,0.087-3.258,0.765c-0.235,0.137-0.318,0.435-0.188,0.673
			c0.708,1.29,0.587,2.54-0.337,3.519c-0.082,0.087-0.13,0.2-0.136,0.319l-0.016,0.315c-0.007,0.143,0.048,0.282,0.15,0.382
			L17.721,6.121z M29.989,21.447c-0.112-1.561-2.877-2.403-5.489-2.403s-5.377,0.843-5.489,2.403C19.009,21.465,19,21.481,19,21.5
			v0.044c0,3.283,11,3.283,11,0V21.5C30,21.481,29.991,21.466,29.989,21.447z M19,23.546v0.998c0,3.283,11,3.283,11,0v-0.998
			c-1.212,1.021-3.359,1.498-5.5,1.498S20.212,24.567,19,23.546z M19,26.546V27.5c0,1.688,2.851,2.457,5.5,2.457S30,29.188,30,27.5
			v-0.954c-1.212,1.021-3.359,1.498-5.5,1.498S20.212,27.567,19,26.546z"/>
	</g>
</g>
</svg>
