<?xml version="1.0" encoding="iso-8859-1"?>
<!-- Generator: Adobe Illustrator 19.0.0, SVG Export Plug-In . SVG Version: 6.00 Build 0)  -->
<svg version="1.1" id="Layer_1" xmlns="http://www.w3.org/2000/svg" xmlns:xlink="http://www.w3.org/1999/xlink" x="0px" y="0px"
	 viewBox="0 0 30 30" style="enable-background:new 0 0 30 30;" xml:space="preserve">
<g>
	<g>
		<path d="M18,27.543l-0.001-5.982c0.001-0.009,0.012-0.102,0.012-0.11c0.025-0.449,0.167-0.865,0.422-1.236
			c0.099-0.143,0.116-0.325,0.046-0.484c-0.349-0.794-0.526-1.615-0.579-2.025c0.826-0.807,1.313-1.985,1.313-3.205
			c0-0.523,0.17-0.736,0.229-0.766c0.156-0.041,0.283-0.153,0.341-0.304c0.026-0.067,0.638-1.661,0.638-2.681
			c0-0.039-0.005-0.079-0.014-0.117c-0.064-0.266-0.25-0.661-0.59-0.869V6.375c0-1.993-0.593-2.783-1.213-3.244
			C18.535,2.156,17.625,0,14,0c-3.771,0-6.61,3.791-6.61,6.25c0,1.134-0.047,2.056-0.082,2.729C7.295,9.227,7.284,9.445,7.277,9.635
			c-0.346,0.206-0.534,0.606-0.598,0.874c-0.009,0.038-0.014,0.078-0.014,0.117c0,1.02,0.612,2.613,0.638,2.681
			c0.058,0.15,0.154,0.253,0.31,0.294c0.09,0.039,0.261,0.252,0.261,0.775c0,1.43,1.366,2.83,1.93,3.347
			c-0.023,0.866-0.208,3.236-1.481,3.792l-5.615,1.365c-1.345,0.465-2.352,1.587-2.694,3.004C0.005,25.92,0,25.959,0,25.999v3.5
			c0,0.276,0.224,0.5,0.5,0.5h17.747c0.196,0,0.374-0.114,0.455-0.292c0.081-0.179,0.051-0.388-0.077-0.535
			C18.21,28.693,18,28.145,18,27.543z M19.01,21.492c-0.001,0.013-0.005,0.024-0.007,0.036c0.066,3.244,10.928,3.244,10.994,0
			c-0.003-0.012-0.006-0.024-0.007-0.036c-0.11-1.562-2.876-2.406-5.49-2.406S19.12,19.929,19.01,21.492z M19,26.501v1.042
			c0,1.688,2.851,2.456,5.5,2.456S30,29.23,30,27.543v-1.042c-1.212,1.021-3.359,1.498-5.5,1.498S20.212,27.522,19,26.501z
			 M24.5,24.999c-2.141,0-4.288-0.477-5.5-1.498v0.998c0,3.283,11,3.283,11,0v-0.998C28.788,24.522,26.641,24.999,24.5,24.999z"/>
	</g>
</g>
</svg>
