<?xml version="1.0" encoding="iso-8859-1"?>
<!-- Generator: Adobe Illustrator 19.0.0, SVG Export Plug-In . SVG Version: 6.00 Build 0)  -->
<svg version="1.1" id="Layer_1" xmlns="http://www.w3.org/2000/svg" xmlns:xlink="http://www.w3.org/1999/xlink" x="0px" y="0px"
	 viewBox="0 0 30 30" style="enable-background:new 0 0 30 30;" xml:space="preserve">
<g>
	<g>
		<path d="M18,25.5c0-1.333,0.498-2.626,1.402-3.643c0.116-0.13,0.156-0.311,0.105-0.478c-0.051-0.167-0.184-0.295-0.353-0.339
			l-0.631-0.164l-0.414-1.729c1.229-1.246,2.065-2.978,2.296-4.749c0.661-0.167,1.176-0.74,1.262-1.461l0.294-2.445
			c0.06-0.495-0.093-0.992-0.417-1.362c-0.194-0.221-0.44-0.385-0.712-0.479l0.114-2.439l0.467-0.487
			c0.633-0.701,1.155-1.904,0.052-3.658C20.603,0.695,19.13,0,17.087,0c-0.813,0-2.69,0-4.428,1.225
			C7.714,1.326,7.042,3.693,7.042,6.002c0,0.568,0.14,1.888,0.223,2.616C6.959,8.701,6.68,8.875,6.463,9.118
			c-0.33,0.373-0.485,0.873-0.426,1.374l0.294,2.445c0.092,0.771,0.674,1.372,1.399,1.49c0.229,1.706,1.023,3.385,2.185,4.612
			l-0.44,1.836L4.926,22.06C1.884,22.854,0,26.54,0,29.5C0,29.776,0.224,30,0.5,30h18.54c0.197,0,0.376-0.116,0.457-0.296
			c0.08-0.18,0.047-0.391-0.085-0.538C18.502,28.151,18,26.85,18,25.5z M20.5,18.5c0,0.551,0.448,1,1,1s1-0.449,1-1s-0.448-1-1-1
			S20.5,17.949,20.5,18.5z M29.985,28.379l-1-4C28.93,24.156,28.729,24,28.5,24h-3.691l-1-2H26.5c0.276,0,0.5-0.224,0.5-0.5
			S26.776,21,26.5,21h-3.191l-0.362-0.724c-0.124-0.247-0.423-0.346-0.671-0.224c-0.247,0.124-0.347,0.424-0.224,0.671l2,4
			C24.138,24.893,24.311,25,24.5,25h3.609l0.905,3.621C29.071,28.849,29.275,29,29.5,29c0.04,0,0.081-0.005,0.121-0.015
			C29.89,28.918,30.052,28.646,29.985,28.379z M27.324,26.741c-0.252-0.117-0.548-0.01-0.665,0.24C26.082,28.208,24.843,29,23.5,29
			c-1.93,0-3.5-1.57-3.5-3.5c0-1.122,0.527-2.15,1.446-2.821c0.223-0.163,0.271-0.476,0.109-0.699
			c-0.164-0.223-0.477-0.271-0.699-0.109C19.694,22.72,19,24.076,19,25.5c0,2.481,2.019,4.5,4.5,4.5
			c1.729,0,3.323-1.018,4.063-2.594C27.682,27.156,27.574,26.858,27.324,26.741z"/>
	</g>
</g>
</svg>
