<?xml version="1.0" encoding="iso-8859-1"?>
<!-- Generator: Adobe Illustrator 19.0.0, SVG Export Plug-In . SVG Version: 6.00 Build 0)  -->
<svg version="1.1" id="Layer_1" xmlns="http://www.w3.org/2000/svg" xmlns:xlink="http://www.w3.org/1999/xlink" x="0px" y="0px"
	 viewBox="0 0 30 30" style="enable-background:new 0 0 30 30;" xml:space="preserve">
<g>
	<g>
		<path d="M16,23.5c0-2.544,1.283-4.896,3.433-6.291c0.076-0.049,0.137-0.118,0.177-0.2c0.408-0.835,0.681-1.729,0.797-2.609
			c0.66-0.167,1.176-0.74,1.262-1.462l0.294-2.445c0.06-0.495-0.093-0.992-0.417-1.362c-0.194-0.221-0.44-0.385-0.712-0.479
			l0.114-2.439l0.467-0.487c0.633-0.701,1.155-1.904,0.052-3.658C20.605,0.696,19.132,0,17.089,0c-0.813,0-2.69,0-4.428,1.225
			C7.716,1.326,7.044,3.693,7.044,6.002c0,0.568,0.14,1.888,0.223,2.616C6.961,8.702,6.682,8.875,6.465,9.119
			c-0.33,0.373-0.485,0.873-0.426,1.374l0.294,2.445c0.092,0.771,0.674,1.372,1.399,1.49c0.229,1.706,1.023,3.385,2.185,4.612
			l-0.44,1.836L4.928,22.06c-3.043,0.792-4.927,4.479-4.927,7.439c0,0.276,0.224,0.5,0.5,0.5h17c0.251,0,0.463-0.186,0.496-0.435
			l0.083-0.635c0.019-0.146-0.027-0.292-0.126-0.401C16.693,27.142,16,25.356,16,23.5z M23.5,17c-1.785,0-3.404,0.724-4.58,1.894
			c-0.005,0.004-0.011,0.006-0.015,0.01c-0.004,0.004-0.006,0.011-0.01,0.015C17.724,20.095,17,21.714,17,23.5
			c0,3.584,2.916,6.5,6.5,6.5c1.785,0,3.404-0.724,4.58-1.894c0.005-0.004,0.011-0.006,0.015-0.01
			c0.004-0.004,0.006-0.01,0.01-0.015C29.276,26.905,30,25.286,30,23.5C30,19.916,27.084,17,23.5,17z M23.499,29
			C20.468,29,18,26.533,18,23.5c0-1.337,0.48-2.563,1.276-3.517l7.74,7.741C26.062,28.52,24.836,29,23.499,29z M27.724,27.017
			l-7.74-7.741C20.938,18.48,22.164,18,23.501,18C26.532,18,29,20.467,29,23.5C29,24.837,28.52,26.063,27.724,27.017z"/>
	</g>
</g>
</svg>
