<?xml version="1.0" encoding="iso-8859-1"?>
<!-- Generator: Adobe Illustrator 19.0.0, SVG Export Plug-In . SVG Version: 6.00 Build 0)  -->
<svg version="1.1" id="Layer_1" xmlns="http://www.w3.org/2000/svg" xmlns:xlink="http://www.w3.org/1999/xlink" x="0px" y="0px"
	 viewBox="0 0 30 30" style="enable-background:new 0 0 30 30;" xml:space="preserve">
<g>
	<g>
		<path d="M16,23.5c0-1.808,0.661-3.558,1.862-4.93c0.104-0.117,0.146-0.276,0.114-0.43c-0.038-0.183-0.062-0.329-0.075-0.437
			c0.825-0.807,1.312-1.984,1.312-3.204c0-0.523,0.171-0.736,0.229-0.766c0.156-0.041,0.283-0.153,0.342-0.304
			c0.025-0.067,0.638-1.662,0.638-2.681c0-0.04-0.005-0.079-0.014-0.118c-0.064-0.265-0.25-0.661-0.591-0.869V6.375
			c0-1.992-0.593-2.782-1.212-3.243C18.536,2.158,17.626,0,14,0c-3.771,0-6.61,3.792-6.61,6.25c0,1.134-0.047,2.056-0.081,2.729
			C7.296,9.226,7.285,9.444,7.278,9.634c-0.346,0.207-0.533,0.606-0.599,0.874c-0.009,0.039-0.014,0.078-0.014,0.118
			c0,1.019,0.612,2.613,0.638,2.681c0.059,0.15,0.154,0.253,0.311,0.294c0.09,0.039,0.26,0.252,0.26,0.775
			c0,1.43,1.367,2.83,1.932,3.347c-0.024,0.867-0.208,3.236-1.482,3.792L2.71,22.88c-1.345,0.465-2.352,1.587-2.694,3.004
			C0.005,25.921,0,25.96,0,26v3.5C0,29.776,0.224,30,0.5,30h17.727c0.208,0,0.395-0.129,0.468-0.323
			c0.073-0.195,0.019-0.415-0.138-0.552C16.932,27.695,16,25.645,16,23.5z M23.5,17c-1.786,0-3.406,0.725-4.582,1.895
			c-0.004,0.004-0.009,0.005-0.013,0.009c-0.004,0.004-0.005,0.009-0.009,0.013C17.725,20.094,17,21.714,17,23.5
			c0,3.584,2.916,6.5,6.5,6.5c1.786,0,3.406-0.725,4.582-1.895c0.004-0.004,0.009-0.005,0.013-0.009
			c0.004-0.004,0.006-0.01,0.01-0.014C29.275,26.906,30,25.286,30,23.5C30,19.916,27.084,17,23.5,17z M23.5,29
			c-3.032,0-5.5-2.468-5.5-5.5c0-1.337,0.48-2.563,1.276-3.517l7.74,7.74C26.063,28.52,24.837,29,23.5,29z M27.724,27.017
			l-7.74-7.74C20.937,18.48,22.163,18,23.5,18c3.032,0,5.5,2.468,5.5,5.5C29,24.837,28.52,26.063,27.724,27.017z"/>
	</g>
</g>
</svg>
