<?xml version="1.0" encoding="iso-8859-1"?>
<!-- Generator: Adobe Illustrator 19.0.0, SVG Export Plug-In . SVG Version: 6.00 Build 0)  -->
<svg version="1.1" id="Layer_1" xmlns="http://www.w3.org/2000/svg" xmlns:xlink="http://www.w3.org/1999/xlink" x="0px" y="0px"
	 viewBox="0 0 30 30" style="enable-background:new 0 0 30 30;" xml:space="preserve">
<g>
	<g>
		<path d="M23.556,17c-3.584,0-6.5,2.916-6.5,6.5s2.916,6.5,6.5,6.5s6.5-2.916,6.5-6.5S27.14,17,23.556,17z M23.554,28
			c-1.316,0-2.414-1.028-2.497-2.341c-0.018-0.275,0.191-0.513,0.468-0.531c0.28-0.011,0.514,0.192,0.53,0.467
			c0.039,0.614,0.449,1.119,1.001,1.314V23.87c-1.344-0.426-2-1.214-2-2.372c0-1.378,1.122-2.5,2.502-2.5
			c1.316,0,2.414,1.028,2.497,2.34c0.018,0.275-0.191,0.513-0.468,0.531c-0.301,0.015-0.513-0.192-0.53-0.467
			c-0.039-0.613-0.449-1.118-1.001-1.314v3.038c1.344,0.427,2,1.215,2,2.372C26.056,26.878,24.934,28,23.554,28z M22.056,21.5
			c0,0.753,0.451,1.117,1,1.329v-2.737C22.475,20.299,22.056,20.849,22.056,21.5z M15.943,23.5c0-2.544,1.283-4.896,3.433-6.291
			c0.076-0.049,0.137-0.118,0.177-0.2c0.408-0.835,0.681-1.729,0.797-2.609c0.66-0.167,1.176-0.74,1.262-1.462l0.294-2.445
			c0.06-0.495-0.093-0.992-0.417-1.362c-0.194-0.221-0.44-0.385-0.712-0.479l0.114-2.438l0.468-0.487
			c0.632-0.701,1.154-1.904,0.052-3.658C20.549,0.696,19.075,0,17.032,0c-0.813,0-2.69,0-4.428,1.225
			C7.66,1.326,6.988,3.693,6.988,6.003c0,0.568,0.14,1.888,0.223,2.615C6.905,8.701,6.625,8.875,6.408,9.119
			c-0.33,0.373-0.485,0.873-0.426,1.374l0.294,2.445c0.092,0.771,0.674,1.372,1.399,1.49c0.229,1.706,1.023,3.385,2.185,4.612
			l-0.44,1.836L4.871,22.06c-3.043,0.792-4.927,4.479-4.927,7.439c0,0.276,0.224,0.5,0.5,0.5h17c0.251,0,0.463-0.186,0.496-0.435
			l0.083-0.635c0.019-0.146-0.027-0.292-0.126-0.401C16.636,27.141,15.943,25.354,15.943,23.5z M24.056,24.171v2.736
			c0.581-0.207,1-0.757,1-1.407C25.056,24.747,24.604,24.383,24.056,24.171z"/>
	</g>
</g>
</svg>
