<?xml version="1.0" encoding="iso-8859-1"?>
<!-- Generator: Adobe Illustrator 19.0.0, SVG Export Plug-In . SVG Version: 6.00 Build 0)  -->
<svg version="1.1" id="Layer_1" xmlns="http://www.w3.org/2000/svg" xmlns:xlink="http://www.w3.org/1999/xlink" x="0px" y="0px"
	 viewBox="0 0 30 30" style="enable-background:new 0 0 30 30;" xml:space="preserve">
<g>
	<g>
		<path d="M17.721,6.078c0.448,0.491,0.658,1.142,0.575,1.784l-0.229,1.772c-0.079,0.614-0.424,1.181-0.946,1.553
			c-0.094,0.068-0.162,0.166-0.192,0.279c-0.217,0.816-0.599,1.617-1.104,2.316c-0.098,0.135-0.121,0.31-0.063,0.466
			c0.058,0.156,0.189,0.273,0.351,0.313l2.222,0.538c1.449,0.351,2.732,1.345,3.612,2.799c0.093,0.153,0.257,0.241,0.428,0.241
			c0.056,0,0.111-0.009,0.166-0.028c1.243-0.438,2.619-0.75,4.088-0.928c0.223-0.026,0.399-0.199,0.434-0.421
			c0.035-0.222-0.084-0.438-0.289-0.531c-0.199-0.09-0.434-0.19-0.694-0.254l-3.473-0.841l-0.279-1.084
			c0.922-0.896,1.556-2.115,1.753-3.372c0.523-0.154,0.925-0.599,0.996-1.152l0.229-1.772c0.049-0.385-0.069-0.774-0.326-1.069
			c-0.149-0.172-0.337-0.303-0.546-0.386l0.08-1.595l0.327-0.317c0.53-0.547,0.971-1.484,0.055-2.84C24.203,0.521,23.028,0,21.405,0
			c-0.903,0-2.09,0.087-3.258,0.765c-0.234,0.137-0.318,0.436-0.188,0.673c0.708,1.29,0.588,2.54-0.337,3.519
			c-0.082,0.087-0.13,0.2-0.136,0.319L17.47,5.59c-0.008,0.143,0.047,0.282,0.149,0.382L17.721,6.078z M20.762,18.87
			c0.126-0.065,0.217-0.182,0.253-0.318c0.035-0.137,0.011-0.281-0.066-0.399c-0.746-1.135-1.766-1.906-2.871-2.175l-3.473-0.841
			l-0.279-1.084c0.922-0.896,1.556-2.115,1.753-3.372c0.523-0.154,0.925-0.599,0.996-1.152l0.229-1.772
			c0.049-0.385-0.069-0.774-0.326-1.069c-0.149-0.172-0.337-0.303-0.546-0.386l0.08-1.595l0.327-0.317
			c0.53-0.547,0.971-1.484,0.055-2.84c-0.693-1.028-1.868-1.549-3.491-1.549c-0.637,0-2.102,0-3.47,0.888
			C6.013,0.972,5.48,2.751,5.48,4.487c0,0.389,0.094,1.244,0.158,1.789C5.406,6.355,5.195,6.494,5.03,6.681
			C4.769,6.978,4.649,7.37,4.699,7.759L4.928,9.53c0.076,0.592,0.529,1.06,1.104,1.181c0.196,1.205,0.797,2.385,1.665,3.266
			l-0.3,1.163l-3.472,0.841C1.5,16.565,0,19.302,0,21.5C0,21.776,0.224,22,0.5,22h16.689c0.184,0,0.353-0.101,0.44-0.263
			c0.271-0.503,0.626-0.976,1.057-1.406C19.209,19.81,19.907,19.318,20.762,18.87z M29.962,18.31C29.885,18.122,29.702,18,29.5,18
			c-4.293,0-8.26,1.192-10.105,3.038c-1.334,1.334-1.669,3.009-1.061,4.676C19.767,23.602,22.036,22,23.5,22
			c0.276,0,0.5,0.224,0.5,0.5S23.776,23,23.5,23c-0.114,0-0.247,0.024-0.387,0.06c-0.089,0.02-0.18,0.049-0.275,0.082
			c-0.003,0.001-0.007,0.003-0.011,0.004c-0.742,0.258-1.651,0.875-2.489,1.71c-0.118,0.115-0.233,0.234-0.347,0.357
			c-0.035,0.038-0.07,0.075-0.105,0.114C18.837,26.492,18,27.975,18,29.5c0,0.276,0.224,0.5,0.5,0.5s0.5-0.224,0.5-0.5
			c0-0.619,0.192-1.242,0.49-1.836c0.047,0.057,0.087,0.114,0.138,0.17c0.671,0.747,1.698,1.155,2.901,1.155
			c0.039,0,0.077,0,0.116-0.001c1.485-0.032,2.919-0.672,3.74-1.671c1.291-1.567,1.632-3.268,1.934-4.768
			c0.292-1.452,0.544-2.706,1.534-3.696C29.996,18.711,30.039,18.495,29.962,18.31z"/>
	</g>
</g>
</svg>
