<?xml version="1.0" encoding="iso-8859-1"?>
<!-- Generator: Adobe Illustrator 19.0.0, SVG Export Plug-In . SVG Version: 6.00 Build 0)  -->
<svg version="1.1" id="Layer_1" xmlns="http://www.w3.org/2000/svg" xmlns:xlink="http://www.w3.org/1999/xlink" x="0px" y="0px"
	 viewBox="0 0 30 30" style="enable-background:new 0 0 30 30;" xml:space="preserve">
<g>
	<g>
		<path d="M18.291,20.766c0.102-0.122,0.14-0.284,0.103-0.438l-0.283-1.181c1.229-1.245,2.065-2.977,2.296-4.748
			c0.661-0.167,1.176-0.74,1.262-1.461l0.294-2.445c0.06-0.495-0.093-0.992-0.417-1.362c-0.194-0.221-0.44-0.385-0.712-0.479
			l0.114-2.439l0.467-0.487c0.633-0.701,1.155-1.904,0.052-3.658C20.604,0.696,19.131,0,17.088,0c-0.813,0-2.69,0-4.428,1.225
			C7.715,1.326,7.043,3.693,7.043,6.002c0,0.568,0.14,1.888,0.223,2.616C6.96,8.702,6.681,8.875,6.464,9.119
			c-0.33,0.373-0.485,0.873-0.426,1.374l0.294,2.445c0.092,0.771,0.674,1.372,1.399,1.49c0.229,1.706,1.023,3.385,2.185,4.612
			l-0.44,1.836L4.927,22.06C1.884,22.854,0,26.54,0,29.5C0,29.776,0.224,30,0.5,30h16c0.276,0,0.5-0.224,0.5-0.5
			c0-0.785,0.201-1.623,0.599-2.493c0.061-0.134,0.06-0.288-0.003-0.421C16.626,24.529,16.873,22.462,18.291,20.766z M29.962,18.309
			C29.885,18.122,29.702,18,29.5,18c-4.293,0-8.26,1.193-10.105,3.039c-1.334,1.334-1.669,3.008-1.061,4.675
			C19.767,23.602,22.036,22,23.5,22c0.276,0,0.5,0.224,0.5,0.5S23.776,23,23.5,23c-0.114,0-0.247,0.024-0.387,0.06
			c-0.089,0.02-0.18,0.049-0.275,0.082c-0.003,0.001-0.007,0.003-0.011,0.004c-0.742,0.258-1.652,0.876-2.49,1.71
			c-0.117,0.114-0.231,0.233-0.345,0.355c-0.035,0.039-0.071,0.076-0.106,0.115C18.837,26.492,18,27.976,18,29.5
			c0,0.276,0.224,0.5,0.5,0.5s0.5-0.224,0.5-0.5c0-0.619,0.192-1.242,0.49-1.836c0.047,0.057,0.087,0.114,0.138,0.17
			c0.671,0.748,1.698,1.156,2.901,1.156c0.039,0,0.077,0,0.116-0.001c1.485-0.032,2.919-0.672,3.74-1.67
			c1.291-1.568,1.632-3.269,1.934-4.769c0.292-1.452,0.544-2.706,1.534-3.696C29.996,18.71,30.039,18.496,29.962,18.309z"/>
	</g>
</g>
</svg>
