<?xml version="1.0" encoding="iso-8859-1"?>
<!-- Generator: Adobe Illustrator 19.0.0, SVG Export Plug-In . SVG Version: 6.00 Build 0)  -->
<svg version="1.1" id="Layer_1" xmlns="http://www.w3.org/2000/svg" xmlns:xlink="http://www.w3.org/1999/xlink" x="0px" y="0px"
	 viewBox="0 0 30 30" style="enable-background:new 0 0 30 30;" xml:space="preserve">
<g>
	<g>
		<path d="M16,23.5c0-1.808,0.661-3.558,1.862-4.93c0.104-0.117,0.146-0.276,0.114-0.43c-0.038-0.183-0.062-0.329-0.075-0.437
			c0.825-0.807,1.312-1.984,1.312-3.204c0-0.523,0.171-0.736,0.229-0.766c0.156-0.041,0.283-0.153,0.342-0.304
			c0.025-0.067,0.638-1.661,0.638-2.681c0-0.04-0.005-0.079-0.014-0.118c-0.064-0.265-0.25-0.66-0.591-0.868V6.373
			c0-1.992-0.593-2.782-1.212-3.243C18.536,2.157,17.626,0,14,0c-3.771,0-6.61,3.791-6.61,6.25c0,1.134-0.047,2.056-0.081,2.729
			C7.296,9.226,7.285,9.445,7.278,9.634C6.932,9.84,6.745,10.24,6.679,10.507c-0.009,0.039-0.014,0.078-0.014,0.118
			c0,1.02,0.612,2.613,0.638,2.681c0.059,0.15,0.154,0.253,0.311,0.294c0.09,0.039,0.26,0.252,0.26,0.775
			c0,1.43,1.367,2.83,1.932,3.347c-0.024,0.867-0.208,3.236-1.482,3.792L2.71,22.879c-1.345,0.465-2.352,1.587-2.694,3.004
			C0.005,25.921,0,25.96,0,26v3.5C0,29.776,0.224,30,0.5,30h17.727c0.208,0,0.395-0.129,0.468-0.323
			c0.073-0.195,0.019-0.415-0.138-0.552C16.932,27.695,16,25.645,16,23.5z M23.5,17c-3.584,0-6.5,2.916-6.5,6.5s2.916,6.5,6.5,6.5
			s6.5-2.916,6.5-6.5S27.084,17,23.5,17z M23.5,22c0.276,0,0.5,0.224,0.5,0.5S23.776,23,23.5,23H22v1h1.5c0.276,0,0.5,0.224,0.5,0.5
			S23.776,25,23.5,25H22v0.5c0,0.827,0.674,1.5,1.502,1.5c1.444,0,1.481-0.584,1.499-0.865c0.018-0.274,0.202-0.496,0.531-0.467
			c0.275,0.018,0.484,0.255,0.467,0.53C25.946,27.02,25.471,28,23.502,28C22.122,28,21,26.879,21,25.5V25h-0.5
			c-0.276,0-0.5-0.224-0.5-0.5s0.224-0.5,0.5-0.5H21v-1h-0.5c-0.276,0-0.5-0.224-0.5-0.5s0.224-0.5,0.5-0.5H21v-0.5
			c0-1.379,1.122-2.5,2.502-2.5c1.969,0,2.444,0.979,2.497,1.802c0.018,0.275-0.191,0.513-0.467,0.53
			c-0.012,0.001-0.022,0.001-0.032,0.001c-0.262,0-0.482-0.203-0.499-0.468C24.983,20.584,24.946,20,23.502,20
			C22.674,20,22,20.673,22,21.5V22H23.5z"/>
	</g>
</g>
</svg>
