<?xml version="1.0" encoding="iso-8859-1"?>
<!-- Generator: Adobe Illustrator 19.0.0, SVG Export Plug-In . SVG Version: 6.00 Build 0)  -->
<svg version="1.1" id="Layer_1" xmlns="http://www.w3.org/2000/svg" xmlns:xlink="http://www.w3.org/1999/xlink" x="0px" y="0px"
	 viewBox="0 0 30 30" style="enable-background:new 0 0 30 30;" xml:space="preserve">
<g>
	<g>
		<path d="M10,25.5c0-2.536,1.879-9.5,7.929-9.5h0.645c0.229,0,0.43-0.156,0.485-0.379c0.104-0.416,0.154-0.782,0.154-1.121
			c0-0.523,0.171-0.736,0.229-0.766c0.156-0.041,0.283-0.153,0.342-0.304c0.025-0.067,0.638-1.661,0.638-2.681
			c0-0.04-0.005-0.079-0.014-0.118c-0.064-0.265-0.25-0.66-0.591-0.868V6.374c0-1.992-0.593-2.782-1.212-3.243
			C18.536,2.157,17.627,0,14,0c-3.771,0-6.61,3.791-6.61,6.25c0,1.134-0.047,2.056-0.081,2.729C7.297,9.226,7.286,9.445,7.279,9.634
			C6.932,9.84,6.746,10.24,6.68,10.507c-0.009,0.039-0.014,0.078-0.014,0.118c0,1.02,0.612,2.613,0.638,2.681
			c0.059,0.15,0.154,0.253,0.311,0.294c0.09,0.039,0.26,0.252,0.26,0.775c0,1.43,1.367,2.83,1.932,3.347
			c-0.024,0.867-0.208,3.236-1.482,3.792l-5.614,1.365c-1.345,0.465-2.352,1.587-2.694,3.004C0.005,25.921,0,25.96,0,26v3.5
			C0,29.776,0.224,30,0.5,30h9.762c0.174,0,0.335-0.091,0.426-0.238c0.092-0.148,0.099-0.333,0.02-0.488
			C10.239,28.351,10,27.081,10,25.5z M23.072,17h-5.143C12.203,17,11,24.102,11,25.5c0,2.986,0.817,4.5,2.429,4.5
			c2.656,0,3.929-2.662,4.25-3.457C18.091,26.378,19.184,26,20.5,26c1.309,0,2.406,0.379,2.822,0.544
			C23.642,27.339,24.914,30,27.57,30C29.182,30,30,28.486,30,25.5C30,24.102,28.797,17,23.072,17z M17.5,22H17v0.5
			c0,0.276-0.224,0.5-0.5,0.5S16,22.776,16,22.5V22h-0.5c-0.276,0-0.5-0.224-0.5-0.5s0.224-0.5,0.5-0.5H16v-0.5
			c0-0.276,0.224-0.5,0.5-0.5s0.5,0.224,0.5,0.5V21h0.5c0.276,0,0.5,0.224,0.5,0.5S17.776,22,17.5,22z M24.5,20
			c0.276,0,0.5,0.224,0.5,0.5S24.776,21,24.5,21S24,20.776,24,20.5S24.224,20,24.5,20z M23.5,22c-0.276,0-0.5-0.224-0.5-0.5
			s0.224-0.5,0.5-0.5s0.5,0.224,0.5,0.5S23.776,22,23.5,22z M24.5,23c-0.276,0-0.5-0.224-0.5-0.5s0.224-0.5,0.5-0.5
			s0.5,0.224,0.5,0.5S24.776,23,24.5,23z M25.5,22c-0.276,0-0.5-0.224-0.5-0.5s0.224-0.5,0.5-0.5s0.5,0.224,0.5,0.5
			S25.776,22,25.5,22z"/>
	</g>
</g>
</svg>
