<?xml version="1.0" encoding="iso-8859-1"?>
<!-- Generator: Adobe Illustrator 19.0.0, SVG Export Plug-In . SVG Version: 6.00 Build 0)  -->
<svg version="1.1" id="Layer_1" xmlns="http://www.w3.org/2000/svg" xmlns:xlink="http://www.w3.org/1999/xlink" x="0px" y="0px"
	 viewBox="0 0 30 30" style="enable-background:new 0 0 30 30;" xml:space="preserve">
<g>
	<g>
		<path d="M10,25.5c0-2.537,1.879-9.5,7.929-9.5h1.729c0.222,0,0.417-0.146,0.479-0.359c0.123-0.419,0.213-0.835,0.268-1.241
			c0.661-0.167,1.177-0.74,1.263-1.462l0.294-2.445c0.06-0.495-0.093-0.992-0.417-1.362c-0.194-0.221-0.44-0.385-0.712-0.479
			l0.114-2.439l0.467-0.487c0.633-0.701,1.155-1.904,0.052-3.658C20.604,0.696,19.131,0,17.088,0c-0.813,0-2.69,0-4.428,1.225
			C7.715,1.326,7.043,3.693,7.043,6.002c0,0.568,0.14,1.888,0.223,2.616C6.96,8.702,6.681,8.875,6.464,9.119
			c-0.33,0.373-0.485,0.873-0.426,1.374l0.294,2.445c0.092,0.771,0.674,1.372,1.399,1.49c0.229,1.706,1.023,3.385,2.185,4.612
			l-0.44,1.836L4.927,22.06C1.884,22.854,0,26.54,0,29.5C0,29.776,0.224,30,0.5,30h9.762c0.174,0,0.335-0.09,0.426-0.239
			c0.092-0.148,0.099-0.333,0.02-0.488C10.238,28.351,10,27.081,10,25.5z M23.071,17h-5.143c-5.725,0-6.929,7.102-6.929,8.5
			c0,2.986,0.817,4.5,2.429,4.5c2.656,0,3.929-2.663,4.25-3.457C18.092,26.378,19.184,26,20.5,26c1.309,0,2.406,0.378,2.822,0.543
			C23.642,27.338,24.915,30,27.571,30C29.182,30,30,28.486,30,25.5C30,24.102,28.796,17,23.071,17z M17.5,22H17v0.5
			c0,0.276-0.224,0.5-0.5,0.5S16,22.776,16,22.5V22h-0.5c-0.276,0-0.5-0.224-0.5-0.5s0.224-0.5,0.5-0.5H16v-0.5
			c0-0.276,0.224-0.5,0.5-0.5s0.5,0.224,0.5,0.5V21h0.5c0.276,0,0.5,0.224,0.5,0.5S17.776,22,17.5,22z M24.5,20
			c0.276,0,0.5,0.224,0.5,0.5S24.776,21,24.5,21S24,20.776,24,20.5S24.224,20,24.5,20z M23.5,22c-0.276,0-0.5-0.224-0.5-0.5
			s0.224-0.5,0.5-0.5s0.5,0.224,0.5,0.5S23.776,22,23.5,22z M24.5,23c-0.276,0-0.5-0.224-0.5-0.5s0.224-0.5,0.5-0.5
			s0.5,0.224,0.5,0.5S24.776,23,24.5,23z M25.5,22c-0.276,0-0.5-0.224-0.5-0.5s0.224-0.5,0.5-0.5s0.5,0.224,0.5,0.5
			S25.776,22,25.5,22z"/>
	</g>
</g>
</svg>
