<?xml version="1.0" encoding="iso-8859-1"?>
<!-- Generator: Adobe Illustrator 19.0.0, SVG Export Plug-In . SVG Version: 6.00 Build 0)  -->
<svg version="1.1" id="Layer_1" xmlns="http://www.w3.org/2000/svg" xmlns:xlink="http://www.w3.org/1999/xlink" x="0px" y="0px"
	 viewBox="0 0 30 30" style="enable-background:new 0 0 30 30;" xml:space="preserve">
<g>
	<g>
		<path d="M20.024,21.855l1.573-1.572c0.132-0.132,0.179-0.326,0.124-0.504c-0.605-1.918-2.036-3.409-3.645-3.8l-3.472-0.841
			l-0.279-1.084c0.922-0.896,1.555-2.116,1.752-3.372c0.522-0.154,0.924-0.599,0.996-1.152l0.229-1.772
			c0.049-0.385-0.069-0.774-0.326-1.069c-0.149-0.172-0.337-0.303-0.545-0.385l0.08-1.596l0.326-0.317
			c0.53-0.547,0.971-1.484,0.056-2.841c-0.694-1.027-1.869-1.548-3.491-1.548c-0.637,0-2.103,0-3.471,0.888
			C6.012,0.972,5.478,2.751,5.478,4.487c0,0.389,0.094,1.243,0.159,1.789C5.404,6.355,5.194,6.493,5.029,6.68
			C4.768,6.977,4.647,7.369,4.697,7.759L4.926,9.53c0.077,0.591,0.53,1.059,1.104,1.18c0.197,1.205,0.797,2.385,1.665,3.266
			l-0.3,1.163L3.923,15.98C1.5,16.567,0,19.303,0,21.502c0,0.276,0.224,0.5,0.5,0.5h19.172
			C19.804,22.001,19.931,21.948,20.024,21.855z M17.72,6.078c0.448,0.491,0.658,1.142,0.575,1.784l-0.229,1.772
			c-0.079,0.614-0.424,1.181-0.946,1.553c-0.095,0.068-0.163,0.166-0.193,0.279c-0.217,0.816-0.599,1.617-1.104,2.316
			c-0.098,0.135-0.122,0.31-0.064,0.466s0.189,0.273,0.352,0.313l2.222,0.538c1.688,0.409,3.143,1.687,3.991,3.506
			c0.069,0.148,0.206,0.253,0.366,0.281c0.162,0.028,0.325-0.023,0.44-0.139l0.309-0.309c0.565-0.566,1.554-0.566,2.121,0
			l3.414,3.414c0.094,0.094,0.221,0.146,0.354,0.146H29.5c0.276,0,0.5-0.224,0.5-0.5c0-2.199-1.5-4.936-3.923-5.522l-3.472-0.841
			l-0.279-1.084c0.922-0.896,1.555-2.116,1.752-3.372c0.522-0.154,0.924-0.599,0.996-1.152l0.229-1.772
			c0.049-0.385-0.069-0.774-0.326-1.069c-0.149-0.172-0.337-0.303-0.545-0.385l0.08-1.596l0.326-0.317
			c0.53-0.547,0.971-1.484,0.056-2.841C24.2,0.52,23.025-0.001,21.403-0.001c-0.904,0-2.091,0.087-3.258,0.765
			c-0.235,0.137-0.318,0.435-0.188,0.673c0.708,1.29,0.587,2.54-0.337,3.519c-0.082,0.087-0.13,0.2-0.136,0.319L17.468,5.59
			c-0.007,0.143,0.048,0.282,0.15,0.382L17.72,6.078z M24.853,19.147c-0.195-0.195-0.512-0.195-0.707,0l-5,5
			c-0.143,0.143-0.186,0.358-0.108,0.545c0.077,0.187,0.26,0.309,0.462,0.309H20v4.5c0,0.276,0.224,0.5,0.5,0.5h3
			c0.276,0,0.5-0.224,0.5-0.5v-2.5h1v2.5c0,0.276,0.224,0.5,0.5,0.5h3c0.276,0,0.5-0.224,0.5-0.5v-4.5h0.5
			c0.202,0,0.385-0.122,0.462-0.309c0.078-0.187,0.035-0.402-0.108-0.545L24.853,19.147z"/>
	</g>
</g>
</svg>
