<?xml version="1.0" encoding="iso-8859-1"?>
<!-- Generator: Adobe Illustrator 19.0.0, SVG Export Plug-In . SVG Version: 6.00 Build 0)  -->
<svg version="1.1" id="Layer_1" xmlns="http://www.w3.org/2000/svg" xmlns:xlink="http://www.w3.org/1999/xlink" x="0px" y="0px"
	 viewBox="0 0 30 30" style="enable-background:new 0 0 30 30;" xml:space="preserve">
<g>
	<g>
		<path d="M29.5,22H29v-0.5c0-2.481-2.019-4.5-4.5-4.5c-2.481,0-4.5,2.019-4.5,4.5V22h-0.5c-0.276,0-0.5,0.224-0.5,0.5v7
			c0,0.276,0.224,0.5,0.5,0.5h10c0.276,0,0.5-0.224,0.5-0.5v-7C30,22.224,29.776,22,29.5,22z M25,25.846V26.5
			c0,0.276-0.224,0.5-0.5,0.5S24,26.776,24,26.5v-0.654c-0.293-0.174-0.5-0.481-0.5-0.846c0-0.552,0.449-1,1-1c0.551,0,1,0.448,1,1
			C25.5,25.366,25.293,25.672,25,25.846z M28,22h-7v-0.5c0-1.93,1.57-3.5,3.5-3.5s3.5,1.57,3.5,3.5V22z M17.901,17.704
			c0.826-0.807,1.312-1.984,1.312-3.204c0-0.523,0.17-0.736,0.229-0.766c0.156-0.041,0.283-0.153,0.341-0.304
			c0.026-0.067,0.638-1.661,0.638-2.681c0-0.039-0.005-0.079-0.014-0.117c-0.064-0.266-0.25-0.661-0.59-0.869V6.374
			c0-1.993-0.593-2.783-1.213-3.244C18.536,2.156,17.625,0,14,0c-3.771,0-6.61,3.791-6.61,6.25c0,1.134-0.047,2.056-0.082,2.729
			C7.295,9.226,7.284,9.445,7.277,9.634C6.931,9.84,6.743,10.24,6.679,10.508c-0.009,0.038-0.014,0.078-0.014,0.117
			c0,1.02,0.612,2.613,0.638,2.681c0.058,0.15,0.154,0.253,0.31,0.294c0.09,0.039,0.261,0.252,0.261,0.775
			c0,1.43,1.366,2.83,1.93,3.347c-0.023,0.866-0.208,3.236-1.481,3.792l-5.615,1.365c-1.345,0.465-2.352,1.587-2.694,3.004
			C0.005,25.921,0,25.96,0,26v3.5C0,29.776,0.224,30,0.5,30h17c0.276,0,0.5-0.224,0.5-0.5v-7c0-0.527,0.275-1.006,0.736-1.282
			c0.117-0.069,0.2-0.184,0.23-0.316c0.03-0.132,0.006-0.271-0.068-0.385C18.257,19.532,17.971,18.243,17.901,17.704z"/>
	</g>
</g>
</svg>
