<?xml version="1.0" encoding="iso-8859-1"?>
<!-- Generator: Adobe Illustrator 19.0.0, SVG Export Plug-In . SVG Version: 6.00 Build 0)  -->
<svg version="1.1" id="Layer_1" xmlns="http://www.w3.org/2000/svg" xmlns:xlink="http://www.w3.org/1999/xlink" x="0px" y="0px"
	 viewBox="0 0 30 30" style="enable-background:new 0 0 30 30;" xml:space="preserve">
<g>
	<g>
		<path d="M17.57,24.305l-3.058-2.676c-0.467-0.409-0.635-1.075-0.416-1.656C14.314,19.391,14.879,19,15.5,19h2.045
			c0.153,0,0.298-0.07,0.393-0.19c0.095-0.12,0.129-0.277,0.094-0.426c-0.068-0.285-0.109-0.519-0.13-0.68
			c0.826-0.807,1.312-1.984,1.312-3.204c0-0.523,0.17-0.736,0.229-0.766c0.156-0.041,0.283-0.153,0.341-0.304
			c0.026-0.067,0.638-1.661,0.638-2.681c0-0.039-0.005-0.079-0.014-0.117c-0.064-0.266-0.25-0.661-0.59-0.869V6.374
			c0-1.993-0.593-2.783-1.213-3.244C18.536,2.156,17.625,0,14,0c-3.771,0-6.61,3.791-6.61,6.25c0,1.134-0.047,2.056-0.082,2.729
			C7.295,9.226,7.284,9.445,7.277,9.634C6.931,9.84,6.743,10.24,6.679,10.508c-0.009,0.038-0.014,0.078-0.014,0.117
			c0,1.02,0.612,2.613,0.638,2.681c0.058,0.15,0.154,0.253,0.31,0.294c0.09,0.039,0.261,0.252,0.261,0.775
			c0,1.43,1.366,2.83,1.93,3.347c-0.023,0.866-0.208,3.236-1.481,3.792l-5.615,1.365c-1.345,0.465-2.352,1.587-2.694,3.004
			C0.005,25.921,0,25.96,0,26v3.5C0,29.776,0.224,30,0.5,30h15.511c0.276,0,0.5-0.224,0.5-0.5c0-0.166,0.013-0.288,0.042-0.396
			l1.171-4.292C17.774,24.628,17.714,24.431,17.57,24.305z M29.968,20.324C29.895,20.129,29.708,20,29.5,20h-4.662l-1.874-4.686
			c-0.152-0.381-0.776-0.381-0.929,0L20.162,20H15.5c-0.208,0-0.395,0.129-0.468,0.324s-0.018,0.415,0.139,0.552l3.764,3.294
			l-1.417,5.198c-0.055,0.201,0.021,0.416,0.19,0.537c0.169,0.123,0.397,0.125,0.57,0.011l4.223-2.815l4.223,2.815
			C26.807,29.972,26.903,30,27,30c0.103,0,0.205-0.031,0.292-0.095c0.169-0.121,0.245-0.336,0.19-0.537l-1.417-5.198l3.764-3.294
			C29.986,20.739,30.042,20.52,29.968,20.324z"/>
	</g>
</g>
</svg>
