<?xml version="1.0" encoding="iso-8859-1"?>
<!-- Generator: Adobe Illustrator 19.0.0, SVG Export Plug-In . SVG Version: 6.00 Build 0)  -->
<svg version="1.1" id="Layer_1" xmlns="http://www.w3.org/2000/svg" xmlns:xlink="http://www.w3.org/1999/xlink" x="0px" y="0px"
	 viewBox="0 0 30 30" style="enable-background:new 0 0 30 30;" xml:space="preserve">
<g>
	<g>
		<path d="M17.721,6.077c0.448,0.491,0.658,1.142,0.575,1.784l-0.229,1.772c-0.079,0.614-0.424,1.181-0.946,1.553
			c-0.095,0.068-0.163,0.166-0.193,0.279c-0.217,0.816-0.599,1.617-1.104,2.316c-0.098,0.135-0.122,0.31-0.064,0.466
			s0.189,0.273,0.352,0.313l2.221,0.538c0.828,0.2,1.596,0.605,2.284,1.203c0.092,0.081,0.209,0.123,0.328,0.123
			c0.054,0,0.107-0.009,0.16-0.026c0.421-0.142,0.867-0.247,1.326-0.313c0.238-0.034,0.417-0.232,0.428-0.473
			c0.009-0.189-0.09-0.362-0.248-0.454l-0.285-1.106c0.922-0.896,1.555-2.116,1.752-3.372c0.522-0.154,0.924-0.599,0.996-1.153
			l0.229-1.771c0.049-0.385-0.069-0.774-0.326-1.069c-0.149-0.172-0.337-0.303-0.545-0.385l0.08-1.596l0.326-0.317
			c0.53-0.547,0.971-1.484,0.056-2.841C24.2,0.521,23.025,0,21.403,0c-0.904,0-2.091,0.087-3.258,0.765
			C17.91,0.902,17.827,1.2,17.957,1.438c0.708,1.29,0.587,2.54-0.337,3.519c-0.082,0.087-0.13,0.2-0.136,0.319l-0.016,0.315
			c-0.007,0.143,0.048,0.282,0.15,0.382L17.721,6.077z M19.26,17.321c0.14-0.097,0.221-0.257,0.216-0.427
			c-0.005-0.169-0.096-0.325-0.241-0.413c-0.417-0.253-0.785-0.413-1.159-0.504l-3.472-0.841l-0.279-1.084
			c0.922-0.896,1.555-2.116,1.752-3.372c0.522-0.154,0.924-0.599,0.996-1.152l0.229-1.772c0.049-0.385-0.069-0.774-0.326-1.069
			c-0.149-0.172-0.337-0.303-0.545-0.385l0.08-1.596l0.326-0.317c0.53-0.547,0.971-1.484,0.056-2.841
			C16.199,0.521,15.024,0,13.402,0c-0.637,0-2.103,0-3.471,0.888C6.012,0.97,5.478,2.749,5.478,4.485
			c0,0.389,0.094,1.243,0.159,1.789C5.404,6.353,5.194,6.491,5.029,6.678C4.768,6.975,4.647,7.367,4.697,7.757l0.229,1.771
			c0.077,0.591,0.53,1.059,1.104,1.18c0.197,1.205,0.797,2.385,1.665,3.266l-0.3,1.163l-3.472,0.841C1.5,16.564,0,19.301,0,21.5
			C0,21.776,0.224,22,0.5,22h15.263c0.228,0,0.427-0.154,0.484-0.375C16.7,19.875,17.77,18.347,19.26,17.321z M23.5,17
			c-1.603,0-3.07,0.586-4.204,1.552c-0.044,0.02-0.089,0.04-0.128,0.074c-0.043,0.038-0.073,0.085-0.1,0.133
			C17.799,19.945,17,21.629,17,23.5c0,3.584,2.916,6.5,6.5,6.5c1.599,0,3.063-0.583,4.196-1.544
			c0.048-0.021,0.095-0.045,0.136-0.081c0.043-0.038,0.073-0.085,0.1-0.133C29.201,27.055,30,25.371,30,23.5
			C30,19.916,27.084,17,23.5,17z M23.499,29C20.467,29,18,26.532,18,23.5c0-1.452,0.57-2.771,1.493-3.755L22,22.565V24.5
			c0,0.827,0.673,1.5,1.5,1.5c0.441,0,0.835-0.195,1.109-0.5l2.15,2.419C25.845,28.595,24.72,29,23.499,29z M23,24.5v-0.81
			l0.931,1.048C23.846,24.891,23.688,25,23.5,25C23.224,25,23,24.775,23,24.5z M27.507,27.255l-2.524-2.839
			c-0.033-0.188-0.165-0.336-0.345-0.388l-1.569-1.765c0.085-0.154,0.243-0.262,0.431-0.262c0.276,0,0.5,0.225,0.5,0.5
			c0,0.276,0.224,0.5,0.5,0.5s0.5-0.224,0.5-0.5c0-0.827-0.673-1.5-1.5-1.5c-0.441,0-0.835,0.195-1.109,0.5l-2.15-2.419
			c0.914-0.676,2.039-1.081,3.26-1.081C26.533,18,29,20.468,29,23.5C29,24.952,28.43,26.271,27.507,27.255z"/>
	</g>
</g>
</svg>
