<?xml version="1.0" encoding="iso-8859-1"?>
<!-- Generator: Adobe Illustrator 19.0.0, SVG Export Plug-In . SVG Version: 6.00 Build 0)  -->
<svg version="1.1" id="Layer_1" xmlns="http://www.w3.org/2000/svg" xmlns:xlink="http://www.w3.org/1999/xlink" x="0px" y="0px"
	 viewBox="0 0 30 30" style="enable-background:new 0 0 30 30;" xml:space="preserve">
<g>
	<g>
		<path d="M16,23.5c0-1.808,0.662-3.559,1.863-4.93c0.104-0.117,0.146-0.276,0.114-0.43c-0.038-0.183-0.061-0.329-0.075-0.437
			c0.825-0.807,1.312-1.984,1.312-3.204c0-0.523,0.17-0.736,0.229-0.766c0.156-0.041,0.283-0.153,0.341-0.304
			c0.026-0.067,0.638-1.661,0.638-2.681c0-0.039-0.005-0.079-0.014-0.117c-0.064-0.266-0.25-0.661-0.59-0.869V6.373
			c0-1.993-0.593-2.783-1.213-3.244C18.536,2.156,17.625,0,14,0c-3.771,0-6.61,3.791-6.61,6.25c0,1.134-0.047,2.056-0.082,2.729
			C7.295,9.226,7.284,9.445,7.277,9.634C6.931,9.84,6.743,10.24,6.679,10.508c-0.009,0.038-0.014,0.078-0.014,0.117
			c0,1.02,0.612,2.613,0.638,2.681c0.058,0.15,0.154,0.253,0.31,0.294c0.09,0.039,0.261,0.252,0.261,0.775
			c0,1.43,1.366,2.83,1.93,3.347c-0.023,0.866-0.208,3.236-1.481,3.792l-5.615,1.365c-1.345,0.465-2.352,1.587-2.694,3.004
			C0.005,25.921,0,25.96,0,26v3.5C0,29.776,0.224,30,0.5,30h17.726c0.208,0,0.395-0.129,0.468-0.323
			c0.073-0.195,0.019-0.415-0.138-0.552C16.932,27.695,16,25.646,16,23.5z M23.5,17c-1.603,0-3.069,0.586-4.204,1.551
			c-0.045,0.02-0.09,0.04-0.128,0.075c-0.043,0.038-0.073,0.085-0.1,0.133C17.799,19.945,17,21.629,17,23.5
			c0,3.584,2.916,6.5,6.5,6.5c1.599,0,3.063-0.583,4.196-1.544c0.048-0.021,0.095-0.045,0.136-0.081
			c0.043-0.038,0.073-0.085,0.1-0.133C29.201,27.055,30,25.371,30,23.5C30,19.916,27.084,17,23.5,17z M23.499,29
			C20.467,29,18,26.532,18,23.5c0-1.452,0.57-2.771,1.493-3.755L22,22.565V24.5c0,0.827,0.673,1.5,1.5,1.5
			c0.441,0,0.835-0.195,1.109-0.5l2.15,2.419C25.845,28.595,24.72,29,23.499,29z M23,24.5v-0.81l0.931,1.048
			C23.846,24.891,23.688,25,23.5,25C23.224,25,23,24.775,23,24.5z M27.507,27.255l-2.524-2.839
			c-0.033-0.188-0.165-0.336-0.345-0.388l-1.569-1.765c0.085-0.154,0.243-0.262,0.431-0.262c0.276,0,0.5,0.225,0.5,0.5
			c0,0.276,0.224,0.5,0.5,0.5s0.5-0.224,0.5-0.5c0-0.827-0.673-1.5-1.5-1.5c-0.441,0-0.835,0.195-1.109,0.5l-2.15-2.419
			c0.914-0.676,2.039-1.081,3.26-1.081C26.533,18,29,20.468,29,23.5C29,24.952,28.43,26.271,27.507,27.255z"/>
	</g>
</g>
</svg>
