<?xml version="1.0" encoding="iso-8859-1"?>
<!-- Generator: Adobe Illustrator 19.0.0, SVG Export Plug-In . SVG Version: 6.00 Build 0)  -->
<svg version="1.1" id="Layer_1" xmlns="http://www.w3.org/2000/svg" xmlns:xlink="http://www.w3.org/1999/xlink" x="0px" y="0px"
	 viewBox="0 0 30 30" style="enable-background:new 0 0 30 30;" xml:space="preserve">
<g>
	<g>
		<path d="M24.5,24.999h-3c-0.827,0-1.5,0.673-1.5,1.5v3c0,0.276,0.224,0.5,0.5,0.5s0.5-0.224,0.5-0.5v-0.5h4v0.5
			c0,0.276,0.224,0.5,0.5,0.5s0.5-0.224,0.5-0.5v-3C26,25.672,25.327,24.999,24.5,24.999z M23.551,23.999
			c0.144,0,0.281-0.062,0.375-0.17c0.095-0.108,0.139-0.252,0.12-0.395l-0.015-0.109c-0.015-0.107-0.032-0.215-0.023-0.404
			c0.006-0.047,0.013-0.095,0.016-0.144c0.013-0.212-0.109-0.409-0.305-0.492c-0.21-0.089-0.425-0.167-0.646-0.225l-4.548-1.184
			l-0.415-1.729c1.23-1.245,2.066-2.977,2.296-4.748c0.661-0.167,1.176-0.74,1.263-1.462l0.293-2.445
			c0.06-0.496-0.092-0.992-0.417-1.362c-0.194-0.222-0.441-0.386-0.712-0.479l0.114-2.438l0.467-0.487
			c0.633-0.701,1.155-1.904,0.052-3.658C20.603,0.696,19.13,0,17.087,0c-0.813,0-2.69,0-4.427,1.225
			C7.715,1.326,7.043,3.693,7.043,6.002c0,0.568,0.14,1.888,0.223,2.616C6.96,8.702,6.68,8.875,6.463,9.12
			c-0.33,0.373-0.485,0.873-0.425,1.373l0.293,2.445c0.092,0.771,0.674,1.373,1.4,1.49c0.229,1.705,1.023,3.385,2.185,4.612
			l-0.441,1.836L4.927,22.06C1.884,22.853,0,26.539,0,29.499c0,0.276,0.224,0.5,0.5,0.5h18c0.276,0,0.5-0.224,0.5-0.5v-2.75
			c0-1.517,1.233-2.75,2.75-2.75H23.551z M30,22.999c0-1.378-1.122-2.5-2.5-2.5s-2.5,1.122-2.5,2.5c0,1.211,0.866,2.222,2.01,2.45
			c-0.002,0.018-0.01,0.032-0.01,0.05v4c0,0.276,0.224,0.5,0.5,0.5s0.5-0.224,0.5-0.5v-4c0-0.018-0.008-0.032-0.01-0.05
			C29.134,25.221,30,24.21,30,22.999z"/>
	</g>
</g>
</svg>
