<?xml version="1.0" encoding="iso-8859-1"?>
<!-- Generator: Adobe Illustrator 19.0.0, SVG Export Plug-In . SVG Version: 6.00 Build 0)  -->
<svg version="1.1" id="Layer_1" xmlns="http://www.w3.org/2000/svg" xmlns:xlink="http://www.w3.org/1999/xlink" x="0px" y="0px"
	 viewBox="0 0 30 30" style="enable-background:new 0 0 30 30;" xml:space="preserve">
<g>
	<g>
		<path d="M17.721,6.077c0.448,0.491,0.658,1.142,0.575,1.784l-0.229,1.772c-0.079,0.614-0.424,1.181-0.946,1.553
			c-0.095,0.068-0.163,0.166-0.193,0.279c-0.217,0.816-0.599,1.617-1.104,2.316c-0.098,0.135-0.122,0.31-0.064,0.466
			s0.189,0.273,0.352,0.313l2.222,0.538c2.921,0.707,4.667,3.81,4.667,6.4c0,0.276,0.224,0.5,0.5,0.5h0.297
			c0.204,0,0.387-0.123,0.463-0.312c0.541-1.329,1.812-2.188,3.239-2.188c0.444,0,0.884,0.088,1.308,0.26
			c0.189,0.079,0.406,0.033,0.547-0.115c0.142-0.146,0.181-0.364,0.098-0.551c-0.716-1.612-1.978-2.776-3.377-3.116l-3.472-0.841
			l-0.279-1.084c0.922-0.896,1.555-2.116,1.752-3.372c0.522-0.154,0.924-0.599,0.996-1.152l0.229-1.772
			c0.049-0.385-0.069-0.774-0.326-1.069c-0.149-0.172-0.337-0.303-0.545-0.385l0.08-1.596l0.326-0.317
			c0.53-0.547,0.971-1.484,0.056-2.841c-0.694-1.027-1.869-1.548-3.491-1.548c-0.904,0-2.091,0.087-3.258,0.765
			c-0.235,0.137-0.318,0.435-0.188,0.673c0.708,1.29,0.587,2.54-0.337,3.519c-0.082,0.087-0.13,0.2-0.136,0.319L17.467,5.59
			c-0.007,0.143,0.048,0.282,0.15,0.382L17.721,6.077z M22,21.5c0-2.199-1.5-4.936-3.923-5.522l-3.472-0.841l-0.279-1.084
			c0.922-0.896,1.555-2.116,1.752-3.372c0.522-0.154,0.924-0.599,0.996-1.152l0.229-1.772c0.049-0.385-0.069-0.774-0.326-1.069
			c-0.149-0.172-0.337-0.303-0.545-0.385l0.081-1.596l0.325-0.316c0.531-0.547,0.972-1.484,0.056-2.841
			c-0.693-1.028-1.868-1.549-3.491-1.549c-0.637,0-2.103,0-3.471,0.888C6.012,0.971,5.479,2.75,5.479,4.486
			c0,0.389,0.094,1.243,0.159,1.789C5.405,6.354,5.195,6.492,5.03,6.679C4.769,6.976,4.648,7.368,4.698,7.758l0.229,1.771
			c0.077,0.591,0.53,1.059,1.104,1.18c0.197,1.205,0.797,2.385,1.665,3.266l-0.3,1.163l-3.472,0.841C1.5,16.564,0,19.301,0,21.5
			C0,21.776,0.224,22,0.5,22h21C21.776,22,22,21.776,22,21.5z M30,23c0-1.379-1.122-2.5-2.5-2.5S25,21.621,25,23
			c0,1.211,0.866,2.222,2.01,2.451C27.008,25.468,27,25.483,27,25.5v4c0,0.276,0.224,0.5,0.5,0.5s0.5-0.224,0.5-0.5v-4
			c0-0.018-0.008-0.032-0.01-0.049C29.134,25.222,30,24.211,30,23z M24.5,25h-3c-0.827,0-1.5,0.673-1.5,1.5v3
			c0,0.276,0.224,0.5,0.5,0.5s0.5-0.224,0.5-0.5V29h4v0.5c0,0.276,0.224,0.5,0.5,0.5s0.5-0.224,0.5-0.5v-3
			C26,25.673,25.327,25,24.5,25z"/>
	</g>
</g>
</svg>
