<?xml version="1.0" encoding="iso-8859-1"?>
<!-- Generator: Adobe Illustrator 19.0.0, SVG Export Plug-In . SVG Version: 6.00 Build 0)  -->
<svg version="1.1" id="Layer_1" xmlns="http://www.w3.org/2000/svg" xmlns:xlink="http://www.w3.org/1999/xlink" x="0px" y="0px"
	 viewBox="0 0 30 30" style="enable-background:new 0 0 30 30;" xml:space="preserve">
<g>
	<g>
		<path d="M23.551,24c0.144,0,0.281-0.062,0.375-0.17c0.095-0.108,0.139-0.252,0.121-0.395l-0.015-0.11
			c-0.015-0.107-0.032-0.214-0.034-0.281c0.003-0.024,0.008-0.079,0.008-0.104c0-0.229-0.155-0.429-0.377-0.484l-3.63-0.915
			c-1.395-0.602-1.999-2.997-2.1-3.835c0.827-0.807,1.314-1.985,1.314-3.206c0-0.523,0.17-0.736,0.229-0.766
			c0.156-0.041,0.283-0.153,0.341-0.304c0.026-0.067,0.638-1.661,0.638-2.681c0-0.039-0.005-0.079-0.014-0.117
			c-0.064-0.266-0.25-0.661-0.59-0.869V6.374c0-1.993-0.593-2.783-1.213-3.244C18.536,2.156,17.625,0,14,0
			c-3.771,0-6.61,3.791-6.61,6.25c0,1.134-0.047,2.056-0.082,2.729C7.295,9.226,7.284,9.445,7.277,9.634
			C6.931,9.84,6.743,10.24,6.679,10.508c-0.009,0.038-0.014,0.078-0.014,0.117c0,1.02,0.612,2.613,0.638,2.681
			c0.058,0.15,0.154,0.253,0.31,0.294c0.09,0.039,0.261,0.252,0.261,0.775c0,1.43,1.366,2.83,1.93,3.347
			c-0.023,0.866-0.208,3.236-1.481,3.792l-5.615,1.365c-1.345,0.465-2.352,1.587-2.694,3.004C0.005,25.921,0,25.96,0,26v3.5
			C0,29.776,0.224,30,0.5,30h18c0.276,0,0.5-0.224,0.5-0.5v-2.75c0-1.517,1.233-2.75,2.75-2.75H23.551z M24.5,25h-3
			c-0.827,0-1.5,0.673-1.5,1.5v3c0,0.276,0.224,0.5,0.5,0.5s0.5-0.224,0.5-0.5V29h4v0.5c0,0.276,0.224,0.5,0.5,0.5
			s0.5-0.224,0.5-0.5v-3C26,25.673,25.327,25,24.5,25z M30,23c0-1.379-1.122-2.5-2.5-2.5S25,21.621,25,23
			c0,1.211,0.866,2.222,2.01,2.451C27.008,25.468,27,25.483,27,25.5v4c0,0.276,0.224,0.5,0.5,0.5s0.5-0.224,0.5-0.5v-4
			c0-0.018-0.008-0.032-0.01-0.049C29.134,25.222,30,24.211,30,23z"/>
	</g>
</g>
</svg>
