<?xml version="1.0" encoding="iso-8859-1"?>
<!-- Generator: Adobe Illustrator 19.0.0, SVG Export Plug-In . SVG Version: 6.00 Build 0)  -->
<svg version="1.1" id="Layer_1" xmlns="http://www.w3.org/2000/svg" xmlns:xlink="http://www.w3.org/1999/xlink" x="0px" y="0px"
	 viewBox="0 0 30 30" style="enable-background:new 0 0 30 30;" xml:space="preserve">
<g>
	<g>
		<path d="M16,23.5c0-2.544,1.283-4.896,3.433-6.291c0.076-0.049,0.137-0.118,0.177-0.2c0.408-0.835,0.681-1.729,0.797-2.609
			c0.66-0.167,1.176-0.74,1.262-1.462l0.294-2.445c0.06-0.495-0.093-0.992-0.417-1.362c-0.194-0.221-0.44-0.385-0.712-0.479
			l0.114-2.439l0.467-0.487c0.633-0.701,1.155-1.904,0.052-3.658C20.604,0.696,19.131,0,17.089,0c-0.813,0-2.69,0-4.428,1.225
			C7.716,1.326,7.044,3.693,7.044,6.002c0,0.568,0.14,1.888,0.223,2.616C6.961,8.702,6.682,8.875,6.464,9.119
			c-0.33,0.373-0.485,0.873-0.426,1.374l0.294,2.445c0.092,0.771,0.674,1.372,1.399,1.49c0.229,1.706,1.023,3.385,2.185,4.612
			l-0.44,1.836L4.927,22.06C1.885,22.852,0,26.539,0,29.499c0,0.276,0.224,0.5,0.5,0.5h17c0.251,0,0.463-0.186,0.496-0.435
			l0.083-0.635c0.019-0.146-0.027-0.292-0.126-0.401C16.693,27.142,16,25.356,16,23.5z M23.5,17c-3.584,0-6.5,2.916-6.5,6.5
			s2.916,6.5,6.5,6.5s6.5-2.916,6.5-6.5S27.083,17,23.5,17z M25.5,28h-4c-0.154,0-0.3-0.071-0.395-0.192
			c-0.095-0.121-0.128-0.279-0.091-0.429L21.859,24H19.5c-0.276,0-0.5-0.224-0.5-0.5s0.224-0.5,0.5-0.5h2.191l-0.638-1.276
			C21.018,21.655,21,21.578,21,21.5c0-1.378,1.122-2.5,2.502-2.5c1.969,0,2.444,0.98,2.497,1.802
			c0.018,0.275-0.191,0.513-0.468,0.531c-0.292,0.011-0.513-0.193-0.53-0.467c-0.018-0.281-0.055-0.865-1.499-0.865
			c-0.791,0-1.441,0.614-1.498,1.39l0.805,1.61H23.5c0.276,0,0.5,0.224,0.5,0.5s-0.224,0.5-0.5,0.5h-0.609l-0.75,3H25.5
			c0.276,0,0.5,0.224,0.5,0.5S25.776,28,25.5,28z"/>
	</g>
</g>
</svg>
