<?xml version="1.0" encoding="iso-8859-1"?>
<!-- Generator: Adobe Illustrator 19.0.0, SVG Export Plug-In . SVG Version: 6.00 Build 0)  -->
<svg version="1.1" id="Layer_1" xmlns="http://www.w3.org/2000/svg" xmlns:xlink="http://www.w3.org/1999/xlink" x="0px" y="0px"
	 viewBox="0 0 30 30" style="enable-background:new 0 0 30 30;" xml:space="preserve">
<g>
	<g>
		<path d="M18.591,18.082c0.25-0.042,0.428-0.263,0.417-0.516c-0.01-0.231,0.027-0.449,0.112-0.649
			c0.104-0.246-0.003-0.53-0.244-0.646c-0.281-0.136-0.542-0.231-0.8-0.294l-3.472-0.841l-0.279-1.084
			c0.922-0.896,1.555-2.116,1.752-3.372c0.522-0.154,0.924-0.599,0.996-1.152l0.229-1.772c0.049-0.385-0.069-0.774-0.326-1.069
			c-0.149-0.172-0.337-0.303-0.545-0.385l0.08-1.596l0.326-0.317c0.53-0.547,0.971-1.484,0.056-2.841
			C16.199,0.521,15.024,0,13.402,0c-0.637,0-2.103,0-3.471,0.888C6.012,0.97,5.478,2.749,5.478,4.485
			c0,0.389,0.094,1.243,0.159,1.789C5.404,6.353,5.194,6.491,5.029,6.678C4.768,6.975,4.647,7.367,4.697,7.757l0.229,1.771
			c0.077,0.591,0.53,1.059,1.104,1.18c0.197,1.205,0.797,2.385,1.665,3.266l-0.3,1.163l-3.472,0.841C1.5,16.564,0,19.301,0,21.5
			C0,21.776,0.224,22,0.5,22h13.35c0.211,0,0.4-0.133,0.471-0.333C14.99,19.784,16.626,18.41,18.591,18.082z M17.721,6.077
			c0.448,0.491,0.658,1.142,0.575,1.784l-0.229,1.772c-0.079,0.614-0.424,1.181-0.946,1.553c-0.095,0.068-0.163,0.166-0.193,0.279
			c-0.217,0.816-0.599,1.617-1.104,2.316c-0.098,0.135-0.122,0.31-0.064,0.466s0.189,0.273,0.352,0.313l2.222,0.538
			c0.623,0.15,1.225,0.426,1.788,0.819c0.09,0.063,0.197,0.099,0.31,0.089c0.43-0.017,0.832,0.135,1.13,0.432l1.994,1.994
			c0.001,0.001,0.071,0.086,0.071,0.087c0.095,0.107,0.231,0.169,0.375,0.169h0.001c0.144,0,0.28-0.063,0.375-0.171
			C24.669,18.185,25.068,18,25.5,18c0.927,0,1.846,0.238,2.658,0.689c0.076,0.042,0.16,0.063,0.243,0.063
			c0.139,0,0.275-0.058,0.373-0.167c0.156-0.174,0.17-0.433,0.034-0.623c-0.745-1.045-1.689-1.731-2.731-1.984l-3.472-0.841
			l-0.279-1.084c0.922-0.896,1.555-2.116,1.752-3.372c0.522-0.154,0.924-0.599,0.996-1.152l0.229-1.772
			c0.049-0.385-0.069-0.774-0.326-1.069c-0.149-0.172-0.337-0.303-0.545-0.385l0.08-1.596l0.326-0.317
			c0.53-0.547,0.971-1.484,0.056-2.841C24.199,0.521,23.024,0,21.402,0c-0.904,0-2.091,0.087-3.258,0.765
			c-0.235,0.137-0.318,0.435-0.188,0.673c0.708,1.29,0.587,2.54-0.337,3.519c-0.082,0.087-0.13,0.2-0.136,0.319l-0.016,0.315
			c-0.007,0.143,0.048,0.282,0.15,0.382L17.721,6.077z M25.5,19c-0.276,0-0.5,0.224-0.5,0.5s0.224,0.5,0.5,0.5
			c1.93,0,3.5,1.57,3.5,3.5S27.43,27,25.5,27h-1.793l1.146-1.146c0.195-0.195,0.195-0.512,0-0.707c-0.195-0.195-0.512-0.195-0.707,0
			l-1.999,1.999c-0.046,0.046-0.083,0.102-0.109,0.163c-0.051,0.122-0.051,0.26,0,0.382c0.025,0.062,0.062,0.117,0.109,0.163
			l1.999,1.999C24.244,29.951,24.372,30,24.5,30s0.256-0.049,0.354-0.146c0.195-0.195,0.195-0.512,0-0.707L23.707,28H25.5
			c2.481,0,4.5-2.019,4.5-4.5C30,21.019,27.981,19,25.5,19z M22.962,19.691c0.051-0.122,0.051-0.26,0-0.382
			c-0.025-0.062-0.062-0.117-0.109-0.163l-1.999-1.999c-0.195-0.195-0.512-0.195-0.707,0s-0.195,0.512,0,0.707L21.293,19H19.5
			c-2.481,0-4.5,2.019-4.5,4.5c0,2.481,2.019,4.5,4.5,4.5c0.276,0,0.5-0.224,0.5-0.5S19.776,27,19.5,27c-1.93,0-3.5-1.57-3.5-3.5
			s1.57-3.5,3.5-3.5h1.793l-1.146,1.146c-0.195,0.195-0.195,0.512,0,0.707C20.244,21.951,20.372,22,20.5,22s0.256-0.049,0.354-0.146
			l1.999-1.999C22.899,19.808,22.936,19.752,22.962,19.691z"/>
	</g>
</g>
</svg>
