<?xml version="1.0" encoding="iso-8859-1"?>
<!-- Generator: Adobe Illustrator 19.0.0, SVG Export Plug-In . SVG Version: 6.00 Build 0)  -->
<svg version="1.1" id="Layer_1" xmlns="http://www.w3.org/2000/svg" xmlns:xlink="http://www.w3.org/1999/xlink" x="0px" y="0px"
	 viewBox="0 0 30 30" style="enable-background:new 0 0 30 30;" xml:space="preserve">
<g>
	<g>
		<path d="M18,24.5c0-1.222,0.319-2.41,0.924-3.437c0.097-0.164,0.092-0.369-0.013-0.529c-0.649-0.986-0.939-2.288-1.01-2.83
			c0.826-0.807,1.313-1.984,1.313-3.204c0-0.523,0.17-0.736,0.229-0.766c0.156-0.041,0.283-0.153,0.341-0.304
			c0.026-0.067,0.638-1.661,0.638-2.681c0-0.039-0.005-0.079-0.014-0.117c-0.064-0.266-0.25-0.661-0.59-0.869V6.374
			c0-1.993-0.593-2.783-1.213-3.244C18.536,2.156,17.625,0,14,0c-3.771,0-6.61,3.791-6.61,6.25c0,1.134-0.047,2.056-0.082,2.729
			C7.295,9.226,7.284,9.445,7.277,9.634C6.931,9.84,6.743,10.24,6.679,10.508c-0.009,0.038-0.014,0.078-0.014,0.117
			c0,1.02,0.612,2.613,0.638,2.681c0.058,0.15,0.154,0.253,0.31,0.294c0.09,0.039,0.261,0.252,0.261,0.775
			c0,1.43,1.366,2.83,1.93,3.347c-0.023,0.866-0.208,3.236-1.481,3.792l-5.615,1.365c-1.345,0.465-2.352,1.587-2.694,3.004
			C0.005,25.921,0,25.96,0,26v3.5C0,29.776,0.224,30,0.5,30h19.11c0.203,0,0.386-0.123,0.463-0.312
			c0.077-0.188,0.032-0.403-0.113-0.546C18.696,27.906,18,26.258,18,24.5z M29.5,19c-0.276,0-0.5,0.224-0.5,0.5v1.932
			C27.949,20.183,26.184,19,24.25,19C21.257,19,19,21.364,19,24.5c0,3.032,2.467,5.5,5.5,5.5c0.276,0,0.5-0.224,0.5-0.5
			S24.776,29,24.5,29c-2.481,0-4.5-2.019-4.5-4.5c0-2.565,1.827-4.5,4.25-4.5c2.166,0,4.063,1.908,4.596,3H25.5
			c-0.276,0-0.5,0.224-0.5,0.5s0.224,0.5,0.5,0.5h4c0.276,0,0.5-0.224,0.5-0.5v-4C30,19.224,29.776,19,29.5,19z"/>
	</g>
</g>
</svg>
