<?xml version="1.0" encoding="iso-8859-1"?>
<!-- Generator: Adobe Illustrator 19.0.0, SVG Export Plug-In . SVG Version: 6.00 Build 0)  -->
<svg version="1.1" id="Layer_1" xmlns="http://www.w3.org/2000/svg" xmlns:xlink="http://www.w3.org/1999/xlink" x="0px" y="0px"
	 viewBox="0 0 30 30" style="enable-background:new 0 0 30 30;" xml:space="preserve">
<g>
	<g>
		<path d="M18,24.5c0-1.045,0.226-2.044,0.672-2.968c0.065-0.135,0.066-0.292,0.003-0.427c-0.032-0.07-0.08-0.131-0.138-0.178
			l-0.427-1.779c1.23-1.245,2.066-2.977,2.296-4.748c0.661-0.167,1.176-0.74,1.263-1.462l0.293-2.445
			c0.06-0.496-0.092-0.992-0.417-1.362c-0.194-0.222-0.441-0.386-0.712-0.479l0.114-2.438l0.467-0.487
			c0.633-0.701,1.155-1.904,0.052-3.658C20.603,0.696,19.13,0,17.087,0c-0.813,0-2.69,0-4.427,1.225
			C7.715,1.326,7.043,3.693,7.043,6.003c0,0.568,0.14,1.888,0.223,2.616C6.96,8.702,6.68,8.875,6.463,9.12
			c-0.33,0.373-0.485,0.873-0.425,1.373l0.293,2.445c0.092,0.771,0.674,1.373,1.4,1.49c0.229,1.705,1.023,3.385,2.185,4.612
			l-0.441,1.836L4.927,22.06C1.884,22.854,0,26.539,0,29.5C0,29.776,0.224,30,0.5,30h19.11c0.203,0,0.386-0.123,0.463-0.311
			c0.077-0.188,0.032-0.404-0.113-0.546C18.696,27.906,18,26.258,18,24.5z M29.5,19c-0.276,0-0.5,0.224-0.5,0.5v1.931
			C27.949,20.182,26.184,19,24.25,19C21.257,19,19,21.364,19,24.5c0,3.033,2.467,5.5,5.5,5.5c0.276,0,0.5-0.224,0.5-0.5
			S24.776,29,24.5,29c-2.481,0-4.5-2.019-4.5-4.5c0-2.565,1.827-4.5,4.25-4.5c2.166,0,4.063,1.908,4.596,3H25.5
			c-0.276,0-0.5,0.224-0.5,0.5s0.224,0.5,0.5,0.5h4c0.276,0,0.5-0.224,0.5-0.5v-4C30,19.224,29.776,19,29.5,19z"/>
	</g>
</g>
</svg>
