<?xml version="1.0" encoding="iso-8859-1"?>
<!-- Generator: Adobe Illustrator 19.0.0, SVG Export Plug-In . SVG Version: 6.00 Build 0)  -->
<svg version="1.1" id="Layer_1" xmlns="http://www.w3.org/2000/svg" xmlns:xlink="http://www.w3.org/1999/xlink" x="0px" y="0px"
	 viewBox="0 0 30 30" style="enable-background:new 0 0 30 30;" xml:space="preserve">
<g>
	<g>
		<path d="M20.889,18.997c0.228-0.148,0.295-0.45,0.153-0.682c-0.756-1.227-1.81-2.056-2.965-2.337l-3.472-0.841l-0.279-1.084
			c0.922-0.896,1.555-2.116,1.752-3.372c0.522-0.154,0.924-0.599,0.996-1.152l0.229-1.772c0.049-0.385-0.069-0.774-0.326-1.069
			c-0.149-0.172-0.337-0.303-0.545-0.385l0.08-1.596l0.326-0.317c0.53-0.547,0.971-1.484,0.056-2.841
			c-0.694-1.027-1.869-1.548-3.491-1.548c-0.637,0-2.103,0-3.471,0.888C6.013,0.971,5.479,2.75,5.479,4.486
			c0,0.389,0.094,1.243,0.159,1.789C5.405,6.354,5.195,6.492,5.03,6.679C4.769,6.976,4.648,7.368,4.698,7.758l0.229,1.771
			c0.077,0.591,0.53,1.059,1.104,1.18c0.197,1.205,0.797,2.385,1.665,3.266l-0.3,1.163l-3.472,0.841C1.5,16.565,0,19.302,0,21.501
			c0,0.276,0.224,0.5,0.5,0.5h17.637c0.197,0,0.376-0.116,0.457-0.296C19.094,20.586,19.888,19.649,20.889,18.997z M17.721,6.078
			c0.448,0.491,0.658,1.142,0.575,1.784l-0.229,1.772c-0.079,0.614-0.424,1.181-0.946,1.553c-0.095,0.068-0.163,0.166-0.193,0.279
			c-0.217,0.816-0.599,1.617-1.104,2.316c-0.098,0.135-0.122,0.31-0.064,0.466s0.189,0.273,0.352,0.313l2.221,0.538
			c1.492,0.361,2.798,1.394,3.678,2.904c0.115,0.195,0.347,0.293,0.566,0.229c1.619-0.452,3.303-0.229,4.952,0.704
			c0.078,0.045,0.163,0.065,0.246,0.065c0.173,0,0.341-0.09,0.434-0.25c0.083-0.145,0.19-0.272,0.316-0.383
			c0.204-0.176,0.232-0.481,0.063-0.691c-0.716-0.889-1.584-1.477-2.511-1.701l-3.472-0.841l-0.279-1.084
			c0.922-0.896,1.555-2.116,1.752-3.372c0.522-0.154,0.924-0.599,0.996-1.152l0.229-1.772c0.049-0.385-0.069-0.774-0.326-1.069
			c-0.149-0.172-0.337-0.303-0.545-0.385l0.08-1.596l0.326-0.317c0.53-0.547,0.971-1.484,0.056-2.841
			C24.2,0.52,23.025-0.001,21.403-0.001c-0.904,0-2.091,0.087-3.258,0.765c-0.235,0.137-0.318,0.435-0.188,0.673
			c0.708,1.29,0.587,2.54-0.337,3.519c-0.082,0.087-0.13,0.2-0.136,0.319L17.468,5.59c-0.007,0.143,0.048,0.282,0.15,0.382
			L17.721,6.078z M29.5,19.001c-0.276,0-0.5,0.224-0.5,0.5v1.932c-1.051-1.248-2.816-2.432-4.75-2.432c-2.993,0-5.25,2.364-5.25,5.5
			c0,3.032,2.467,5.5,5.5,5.5c0.276,0,0.5-0.224,0.5-0.5s-0.224-0.5-0.5-0.5c-2.481,0-4.5-2.019-4.5-4.5c0-2.565,1.827-4.5,4.25-4.5
			c2.166,0,4.063,1.908,4.596,3H25.5c-0.276,0-0.5,0.224-0.5,0.5s0.224,0.5,0.5,0.5h4c0.276,0,0.5-0.224,0.5-0.5v-4
			C30,19.225,29.776,19.001,29.5,19.001z"/>
	</g>
</g>
</svg>
