<?xml version="1.0" encoding="iso-8859-1"?>
<!-- Generator: Adobe Illustrator 19.0.0, SVG Export Plug-In . SVG Version: 6.00 Build 0)  -->
<svg version="1.1" id="Layer_1" xmlns="http://www.w3.org/2000/svg" xmlns:xlink="http://www.w3.org/1999/xlink" x="0px" y="0px"
	 viewBox="0 0 30 30" style="enable-background:new 0 0 30 30;" xml:space="preserve">
<g>
	<g>
		<path d="M25.308,27.43c-0.154-0.153-0.39-0.189-0.582-0.091C23.87,27.777,22.953,28,22,28c-3.309,0-6-2.691-6-6
			c0-1.75,0.769-3.411,2.169-4.618c0.664-0.8,1.044-1.851,1.044-2.882c0-0.523,0.17-0.736,0.229-0.766
			c0.156-0.041,0.283-0.153,0.341-0.304c0.026-0.067,0.638-1.661,0.638-2.681c0-0.039-0.005-0.079-0.014-0.117
			c-0.064-0.266-0.25-0.661-0.59-0.869V6.374c0-1.993-0.593-2.783-1.213-3.244C18.535,2.155,17.625-0.001,14-0.001
			c-3.771,0-6.61,3.791-6.61,6.25c0,1.134-0.047,2.056-0.082,2.729C7.295,9.225,7.284,9.444,7.277,9.633
			c-0.346,0.206-0.534,0.606-0.598,0.874c-0.009,0.038-0.014,0.078-0.014,0.117c0,1.02,0.612,2.613,0.638,2.681
			c0.058,0.15,0.154,0.253,0.31,0.294c0.09,0.039,0.261,0.252,0.261,0.775c0,1.43,1.366,2.83,1.93,3.347
			c-0.023,0.866-0.208,3.236-1.481,3.792l-5.615,1.365c-1.345,0.465-2.352,1.587-2.694,3.004C0.005,25.922,0,25.961,0,26v3.5
			C0,29.776,0.224,30,0.5,30h26.172c0.202,0,0.385-0.122,0.462-0.309c0.078-0.187,0.035-0.402-0.108-0.545L25.308,27.43z
			 M29.854,29.146l-4-4C26.559,24.284,27,23.198,27,22c0-2.757-2.243-5-5-5s-5,2.243-5,5s2.243,5,5,5
			c1.198,0,2.284-0.441,3.146-1.146l4,4C29.244,29.953,29.372,30,29.5,30s0.256-0.049,0.354-0.146
			C30.049,29.659,30.049,29.342,29.854,29.146z M22,26c-2.206,0-4-1.794-4-4s1.794-4,4-4s4,1.794,4,4S24.206,26,22,26z"/>
	</g>
</g>
</svg>
