<?xml version="1.0" encoding="iso-8859-1"?>
<!-- Generator: Adobe Illustrator 19.0.0, SVG Export Plug-In . SVG Version: 6.00 Build 0)  -->
<svg version="1.1" id="Layer_1" xmlns="http://www.w3.org/2000/svg" xmlns:xlink="http://www.w3.org/1999/xlink" x="0px" y="0px"
	 viewBox="0 0 30 30" style="enable-background:new 0 0 30 30;" xml:space="preserve">
<g>
	<g>
		<path d="M18.646,17.028c0.155-0.104,0.238-0.287,0.216-0.473c-0.022-0.186-0.146-0.344-0.321-0.409l-0.111-0.045
			c-0.116-0.047-0.232-0.093-0.354-0.123l-3.472-0.841l-0.279-1.084c0.922-0.896,1.555-2.116,1.752-3.372
			c0.522-0.154,0.924-0.599,0.996-1.152l0.229-1.772c0.049-0.385-0.069-0.774-0.326-1.069c-0.149-0.172-0.337-0.303-0.545-0.385
			l0.08-1.596l0.326-0.317c0.53-0.547,0.971-1.484,0.056-2.841c-0.694-1.027-1.869-1.548-3.491-1.548c-0.637,0-2.103,0-3.471,0.888
			C6.012,0.971,5.478,2.75,5.478,4.486c0,0.389,0.094,1.243,0.159,1.789C5.404,6.354,5.194,6.492,5.029,6.679
			C4.768,6.976,4.647,7.368,4.697,7.758l0.229,1.771c0.077,0.591,0.53,1.059,1.104,1.18c0.197,1.205,0.797,2.385,1.665,3.266
			l-0.3,1.163l-3.472,0.841C1.5,16.566,0,19.302,0,21.501c0,0.276,0.224,0.5,0.5,0.5h15.025c0.261,0,0.479-0.201,0.499-0.462
			C16.165,19.706,17.12,18.062,18.646,17.028z M17.721,6.078c0.448,0.491,0.658,1.142,0.575,1.784l-0.229,1.772
			c-0.079,0.614-0.424,1.181-0.946,1.553c-0.095,0.068-0.163,0.166-0.193,0.279c-0.217,0.816-0.599,1.617-1.104,2.316
			c-0.098,0.135-0.122,0.31-0.064,0.466s0.189,0.273,0.352,0.313l2.222,0.538c0.704,0.17,1.369,0.49,1.976,0.952
			c0.088,0.066,0.194,0.102,0.303,0.102c0.036,0,0.072-0.004,0.107-0.012c0.427-0.094,0.857-0.142,1.281-0.142v-0.442l0.018-0.005
			l0.151,0.457c0.133,0.01,0.308-0.064,0.406-0.188c0.099-0.123,0.133-0.285,0.094-0.438l-0.343-1.332
			c0.922-0.896,1.555-2.116,1.752-3.372c0.522-0.154,0.924-0.599,0.996-1.153l0.229-1.771c0.049-0.385-0.069-0.774-0.326-1.069
			c-0.149-0.172-0.337-0.303-0.545-0.385l0.08-1.596l0.326-0.317c0.53-0.547,0.971-1.484,0.056-2.841
			c-0.694-1.027-1.869-1.548-3.491-1.548c-0.904,0-2.091,0.087-3.258,0.765c-0.235,0.137-0.318,0.435-0.188,0.673
			c0.708,1.29,0.587,2.54-0.337,3.519c-0.082,0.087-0.13,0.2-0.136,0.319L17.469,5.59c-0.007,0.143,0.048,0.282,0.15,0.382
			L17.721,6.078z M29.854,29.147l-4-4C26.559,24.285,27,23.199,27,22.001c0-2.757-2.243-5-5-5s-5,2.243-5,5c0,2.757,2.243,5,5,5
			c1.198,0,2.284-0.441,3.146-1.146l4,4c0.098,0.098,0.226,0.146,0.354,0.146s0.256-0.049,0.354-0.146
			C30.049,29.659,30.049,29.343,29.854,29.147z M22,26.001c-2.206,0-4-1.794-4-4s1.794-4,4-4s4,1.794,4,4S24.206,26.001,22,26.001z"
			/>
	</g>
</g>
</svg>
