<?xml version="1.0" encoding="iso-8859-1"?>
<!-- Generator: Adobe Illustrator 19.0.0, SVG Export Plug-In . SVG Version: 6.00 Build 0)  -->
<svg version="1.1" id="Layer_1" xmlns="http://www.w3.org/2000/svg" xmlns:xlink="http://www.w3.org/1999/xlink" x="0px" y="0px"
	 viewBox="0 0 30 30" style="enable-background:new 0 0 30 30;" xml:space="preserve">
<g>
	<g>
		<path d="M17.721,6.077c0.448,0.491,0.658,1.142,0.575,1.784l-0.229,1.772c-0.079,0.614-0.424,1.181-0.946,1.553
			c-0.095,0.068-0.162,0.166-0.192,0.279c-0.217,0.816-0.599,1.617-1.104,2.316c-0.098,0.135-0.121,0.31-0.063,0.466
			c0.058,0.156,0.189,0.273,0.351,0.313l2.222,0.538c1.449,0.351,2.731,1.345,3.61,2.797c0.093,0.153,0.258,0.241,0.428,0.241
			c0.064,0,0.13-0.013,0.192-0.038l1.164-0.485c0.172-0.072,0.289-0.233,0.306-0.418c0.036-0.412,0.115-0.758,0.242-1.057
			c0.058-0.135,0.053-0.289-0.014-0.42c-0.065-0.131-0.186-0.227-0.328-0.262l-1.329-0.321l-0.279-1.084
			c0.922-0.896,1.556-2.115,1.753-3.372c0.523-0.154,0.925-0.599,0.996-1.152l0.229-1.772c0.049-0.385-0.069-0.774-0.326-1.069
			C24.83,6.514,24.642,6.383,24.433,6.3l0.08-1.595l0.327-0.317c0.53-0.547,0.971-1.484,0.055-2.84
			c-0.693-1.028-1.868-1.549-3.491-1.549c-0.903,0-2.09,0.087-3.258,0.765c-0.234,0.137-0.318,0.436-0.188,0.673
			c0.708,1.29,0.588,2.54-0.337,3.519c-0.082,0.087-0.13,0.2-0.136,0.319L17.469,5.59c-0.008,0.143,0.047,0.282,0.149,0.382
			L17.721,6.077z M27.5,25c-0.796,0-1.499,0.381-1.957,0.963l-5.638-2.819c0.055-0.207,0.094-0.42,0.094-0.644
			c0-0.382-0.093-0.74-0.246-1.064l5.781-2.409C25.993,19.615,26.699,20,27.5,20c1.379,0,2.5-1.121,2.5-2.5
			c0-1.379-1.121-2.5-2.5-2.5c-1.379,0-2.5,1.121-2.5,2.5c0,0.219,0.037,0.427,0.09,0.629l-5.782,2.409
			c-0.059,0.025-0.109,0.061-0.152,0.103C18.714,20.247,18.138,20,17.5,20c-1.379,0-2.5,1.121-2.5,2.5c0,1.379,1.121,2.5,2.5,2.5
			c0.796,0,1.499-0.381,1.957-0.963l5.638,2.819C25.039,27.063,25,27.276,25,27.5c0,1.379,1.121,2.5,2.5,2.5
			c1.379,0,2.5-1.121,2.5-2.5C30,26.121,28.879,25,27.5,25z M19.046,19.378c0.131,0.065,0.282,0.071,0.415,0.014l1.251-0.522
			c0.138-0.057,0.242-0.173,0.286-0.315c0.043-0.143,0.021-0.297-0.062-0.422c-0.743-1.122-1.759-1.887-2.859-2.154l-3.473-0.841
			l-0.279-1.084c0.922-0.896,1.556-2.115,1.753-3.372c0.523-0.154,0.925-0.599,0.996-1.152l0.229-1.772
			c0.049-0.385-0.069-0.774-0.326-1.069c-0.149-0.172-0.337-0.303-0.546-0.386l0.08-1.595l0.327-0.317
			c0.53-0.547,0.971-1.484,0.055-2.84c-0.693-1.028-1.868-1.549-3.491-1.549c-0.637,0-2.102,0-3.47,0.888
			c-3.92,0.082-4.453,1.861-4.453,3.597c0,0.389,0.094,1.244,0.158,1.789C5.405,6.355,5.194,6.494,5.029,6.681
			C4.768,6.978,4.648,7.37,4.698,7.759L4.927,9.53c0.076,0.592,0.529,1.06,1.104,1.181c0.196,1.205,0.797,2.385,1.665,3.266
			l-0.3,1.163l-3.472,0.841C1.5,16.564,0,19.301,0,21.5C0,21.776,0.224,22,0.5,22h13.142c0.228,0,0.427-0.154,0.484-0.374
			C14.659,19.572,17.003,18.361,19.046,19.378z"/>
	</g>
</g>
</svg>
