<?xml version="1.0" encoding="iso-8859-1"?>
<!-- Generator: Adobe Illustrator 19.0.0, SVG Export Plug-In . SVG Version: 6.00 Build 0)  -->
<svg version="1.1" id="Layer_1" xmlns="http://www.w3.org/2000/svg" xmlns:xlink="http://www.w3.org/1999/xlink" x="0px" y="0px"
	 viewBox="0 0 30 30" style="enable-background:new 0 0 30 30;" xml:space="preserve">
<g>
	<g>
		<path d="M18,28.5c0-0.038,0.007-0.074,0.012-0.11c0.001-0.007,0.014-0.112,0.015-0.119c0.019-0.197-0.081-0.386-0.253-0.483
			c-0.239-0.134-0.554-0.384-0.696-0.813l-2.544-7.632C14.466,19.138,14.274,19,14.059,19H13.5c-0.827,0-1.5-0.673-1.5-1.5
			c0-0.827,0.673-1.5,1.5-1.5h2c0.521,0,0.998,0.281,1.274,0.753C16.864,16.906,17.028,17,17.206,17h2.085
			c0.198,0,0.377-0.117,0.457-0.298c0.336-0.759,0.557-1.532,0.658-2.303c0.66-0.167,1.176-0.74,1.262-1.461l0.294-2.445
			c0.06-0.495-0.093-0.992-0.417-1.362c-0.194-0.221-0.44-0.385-0.712-0.479l0.114-2.439l0.467-0.487
			c0.633-0.701,1.155-1.904,0.052-3.658C20.604,0.696,19.131,0,17.088,0c-0.813,0-2.69,0-4.428,1.225
			C7.715,1.326,7.043,3.693,7.043,6.003c0,0.568,0.14,1.888,0.223,2.616C6.96,8.703,6.681,8.875,6.464,9.12
			c-0.33,0.373-0.485,0.873-0.426,1.374l0.294,2.445c0.092,0.771,0.674,1.372,1.399,1.49c0.229,1.706,1.023,3.385,2.185,4.612
			l-0.44,1.836L4.927,22.06C1.884,22.854,0,26.539,0,29.5C0,29.776,0.224,30,0.5,30h17.185c0.162,0,0.315-0.079,0.409-0.212
			c0.093-0.133,0.116-0.303,0.062-0.456C18.051,29.039,18,28.766,18,28.5z M20.5,27.5c-0.552,0-1,0.448-1,1s0.448,1,1,1s1-0.448,1-1
			S21.052,27.5,20.5,27.5z M29.887,18.182C29.792,18.067,29.65,18,29.5,18H16.194l-0.219-0.658C15.907,17.138,15.715,17,15.5,17h-2
			c-0.276,0-0.5,0.224-0.5,0.5s0.224,0.5,0.5,0.5h1.64l2.886,8.658C18.096,26.867,18.292,27,18.501,27
			c0.053,0,0.105-0.008,0.158-0.026c0.262-0.087,0.403-0.37,0.316-0.632l-0.463-1.388l10.036-0.956
			c0.219-0.021,0.399-0.183,0.442-0.399l1-5C30.02,18.451,29.981,18.299,29.887,18.182z M25.5,27.5c-0.552,0-1,0.448-1,1
			s0.448,1,1,1s1-0.448,1-1S26.052,27.5,25.5,27.5z"/>
	</g>
</g>
</svg>
