<?xml version="1.0" encoding="iso-8859-1"?>
<!-- Generator: Adobe Illustrator 19.0.0, SVG Export Plug-In . SVG Version: 6.00 Build 0)  -->
<svg version="1.1" id="Layer_1" xmlns="http://www.w3.org/2000/svg" xmlns:xlink="http://www.w3.org/1999/xlink" x="0px" y="0px"
	 viewBox="0 0 30 30" style="enable-background:new 0 0 30 30;" xml:space="preserve">
<g>
	<g>
		<path d="M21.683,25.288C21.6,25.112,21.424,25,21.23,25H20.5c-0.827,0-1.5-0.673-1.5-1.5c0-0.518,0.266-0.992,0.711-1.269
			c0.146-0.09,0.234-0.248,0.236-0.419c0.002-0.171-0.083-0.331-0.227-0.424c-1.198-0.785-1.725-2.921-1.82-3.684
			c0.826-0.806,1.313-1.984,1.313-3.205c0-0.523,0.171-0.736,0.229-0.766c0.156-0.041,0.283-0.153,0.342-0.304
			c0.025-0.067,0.638-1.661,0.638-2.681c0-0.04-0.005-0.079-0.014-0.118c-0.064-0.265-0.25-0.66-0.591-0.868V6.373
			c0-1.992-0.593-2.782-1.212-3.243C18.536,2.157,17.626,0,14,0c-3.771,0-6.61,3.791-6.61,6.25c0,1.134-0.047,2.056-0.081,2.729
			C7.296,9.226,7.285,9.445,7.278,9.634C6.932,9.84,6.745,10.24,6.679,10.507c-0.009,0.039-0.014,0.078-0.014,0.118
			c0,1.02,0.612,2.613,0.638,2.681c0.059,0.15,0.154,0.253,0.311,0.294c0.09,0.039,0.26,0.252,0.26,0.775
			c0,1.43,1.367,2.83,1.932,3.347c-0.024,0.867-0.208,3.236-1.482,3.792L2.71,22.879c-1.345,0.465-2.352,1.587-2.694,3.004
			C0.005,25.921,0,25.96,0,26v3.5C0,29.776,0.224,30,0.5,30h18.02c0.276,0,0.5-0.224,0.5-0.5c0-0.259,0.057-0.635,0.328-0.96
			l2.266-2.72C21.738,25.671,21.765,25.464,21.683,25.288z M25.5,29h-3.933l4.316-5.18c0.125-0.149,0.151-0.356,0.069-0.532
			C25.869,23.112,25.693,23,25.499,23h-5c-0.276,0-0.5,0.224-0.5,0.5s0.224,0.5,0.5,0.5h3.933l-4.316,5.18
			c-0.125,0.149-0.151,0.356-0.069,0.532C20.13,29.888,20.306,30,20.5,30h5c0.276,0,0.5-0.224,0.5-0.5S25.776,29,25.5,29z M29.5,24
			h-2l2.4-3.2c0.113-0.151,0.132-0.354,0.047-0.523C29.862,20.108,29.689,20,29.5,20h-3c-0.276,0-0.5,0.224-0.5,0.5
			s0.224,0.5,0.5,0.5h2l-2.4,3.2c-0.113,0.151-0.132,0.354-0.047,0.523C26.138,24.892,26.311,25,26.5,25h3
			c0.276,0,0.5-0.224,0.5-0.5S29.776,24,29.5,24z"/>
	</g>
</g>
</svg>
