<?xml version="1.0" encoding="iso-8859-1"?>
<!-- Generator: Adobe Illustrator 19.0.0, SVG Export Plug-In . SVG Version: 6.00 Build 0)  -->
<svg version="1.1" id="Layer_1" xmlns="http://www.w3.org/2000/svg" xmlns:xlink="http://www.w3.org/1999/xlink" x="0px" y="0px"
	 viewBox="0 0 30 30" style="enable-background:new 0 0 30 30;" xml:space="preserve">
<g>
	<g>
		<path d="M17.721,6.078c0.448,0.491,0.658,1.142,0.575,1.784l-0.229,1.772c-0.079,0.614-0.424,1.181-0.946,1.553
			c-0.095,0.068-0.162,0.166-0.192,0.279c-0.217,0.816-0.599,1.617-1.104,2.316c-0.098,0.135-0.121,0.31-0.063,0.466
			c0.058,0.156,0.189,0.273,0.351,0.313l2.222,0.538c2.922,0.707,4.667,3.81,4.667,6.4c0,0.276,0.224,0.5,0.5,0.5h1.28
			c0.179,0,0.345-0.096,0.434-0.251s0.089-0.346-0.002-0.501c-0.141-0.241-0.212-0.493-0.212-0.748c0-0.827,0.673-1.5,1.5-1.5h2.072
			c0.183,0,0.351-0.1,0.438-0.26s0.081-0.355-0.017-0.509c-0.752-1.18-1.787-1.979-2.917-2.254l-3.473-0.841l-0.279-1.084
			c0.922-0.896,1.556-2.115,1.753-3.372c0.523-0.154,0.925-0.599,0.996-1.152l0.229-1.772c0.049-0.385-0.069-0.774-0.326-1.069
			c-0.149-0.172-0.337-0.303-0.546-0.386l0.08-1.595l0.327-0.317c0.53-0.547,0.971-1.484,0.055-2.84
			c-0.693-1.028-1.868-1.549-3.491-1.549c-0.903,0-2.09,0.087-3.258,0.765c-0.234,0.137-0.318,0.436-0.188,0.673
			c0.708,1.29,0.588,2.54-0.337,3.519c-0.082,0.087-0.13,0.2-0.136,0.319L17.468,5.59c-0.008,0.143,0.047,0.282,0.149,0.382
			L17.721,6.078z M29.5,24.001h-2l2.4-3.2c0.113-0.151,0.132-0.354,0.047-0.523c-0.085-0.169-0.258-0.277-0.447-0.277h-3
			c-0.276,0-0.5,0.224-0.5,0.5s0.224,0.5,0.5,0.5h2l-2.4,3.2c-0.113,0.151-0.132,0.354-0.047,0.523
			c0.085,0.169,0.258,0.277,0.447,0.277h3c0.276,0,0.5-0.224,0.5-0.5S29.776,24.001,29.5,24.001z M22,21.501
			c0-2.199-1.5-4.936-3.923-5.522l-3.473-0.841l-0.279-1.084c0.922-0.896,1.556-2.115,1.753-3.372
			c0.523-0.154,0.925-0.599,0.996-1.152l0.229-1.772c0.049-0.385-0.069-0.774-0.326-1.069c-0.149-0.172-0.337-0.303-0.546-0.386
			l0.08-1.595l0.327-0.317c0.53-0.547,0.971-1.484,0.055-2.84c-0.693-1.028-1.868-1.549-3.491-1.549c-0.637,0-2.102,0-3.47,0.888
			c-3.92,0.082-4.453,1.861-4.453,3.597c0,0.389,0.094,1.244,0.159,1.789C5.405,6.355,5.194,6.494,5.029,6.681
			C4.768,6.978,4.648,7.37,4.698,7.759L4.927,9.53c0.076,0.592,0.529,1.06,1.104,1.181c0.196,1.205,0.797,2.385,1.665,3.266
			l-0.3,1.163l-3.472,0.841C1.5,16.565,0,19.302,0,21.501c0,0.276,0.224,0.5,0.5,0.5h21C21.776,22.001,22,21.777,22,21.501z
			 M25.5,29.001h-3.933l4.316-5.18c0.125-0.149,0.151-0.356,0.069-0.532c-0.083-0.176-0.259-0.288-0.453-0.288h-5
			c-0.276,0-0.5,0.224-0.5,0.5s0.224,0.5,0.5,0.5h3.933l-4.316,5.18c-0.125,0.149-0.151,0.356-0.069,0.532
			c0.083,0.176,0.259,0.288,0.453,0.288h5c0.276,0,0.5-0.224,0.5-0.5S25.776,29.001,25.5,29.001z"/>
	</g>
</g>
</svg>
