<?xml version="1.0" encoding="iso-8859-1"?>
<!-- Generator: Adobe Illustrator 19.0.0, SVG Export Plug-In . SVG Version: 6.00 Build 0)  -->
<svg version="1.1" id="Layer_1" xmlns="http://www.w3.org/2000/svg" xmlns:xlink="http://www.w3.org/1999/xlink" x="0px" y="0px"
	 viewBox="0 0 30 30" style="enable-background:new 0 0 30 30;" xml:space="preserve">
<g>
	<g>
		<path d="M24.499,27.938c0.276,0,0.5-0.224,0.5-0.5v-5.73l1.146,1.146C26.243,22.952,26.371,23,26.499,23s0.256-0.049,0.354-0.146
			c0.195-0.195,0.195-0.512,0-0.707l-2-2c-0.047-0.047-0.101-0.08-0.157-0.105c-0.002-0.001-0.003-0.003-0.005-0.004H24.69
			c-0.082-0.034-0.17-0.037-0.257-0.025c-0.019,0.003-0.036,0.006-0.055,0.011c-0.084,0.021-0.165,0.057-0.231,0.123l-2,2
			c-0.195,0.195-0.195,0.512,0,0.707s0.512,0.195,0.707,0L24,21.708v5.73C23.999,27.714,24.223,27.938,24.499,27.938z M17.72,6.077
			c0.448,0.491,0.658,1.142,0.575,1.784l-0.229,1.772c-0.079,0.614-0.424,1.181-0.946,1.553c-0.095,0.068-0.162,0.166-0.192,0.279
			c-0.217,0.816-0.599,1.617-1.104,2.316c-0.098,0.135-0.121,0.31-0.063,0.466c0.058,0.156,0.189,0.273,0.351,0.313l2.222,0.538
			c1.907,0.462,3.501,2.021,4.262,4.173c0.058,0.162,0.204,0.273,0.371,0.311c0.162,0.037,0.353-0.021,0.474-0.144
			c0.081-0.081,0.184-0.156,0.313-0.23l0.094-0.05c0.128-0.062,0.241-0.103,0.365-0.131c0.109-0.021,0.229-0.026,0.479-0.008
			c0.14,0.018,0.259,0.046,0.364,0.086c0.011,0.006,0.021,0.011,0.032,0.016c0.101,0.042,0.205,0.106,0.322,0.196l2.152,2.121
			c0.079,0.079,0.152,0.179,0.231,0.313c0.09,0.153,0.254,0.247,0.432,0.247h1.276c0.276,0,0.5-0.224,0.5-0.5
			c0-2.199-1.5-4.936-3.923-5.522l-3.473-0.841l-0.279-1.084c0.922-0.896,1.556-2.115,1.753-3.372
			c0.523-0.154,0.925-0.599,0.996-1.152l0.229-1.772c0.049-0.385-0.069-0.774-0.326-1.069c-0.149-0.172-0.337-0.303-0.546-0.386
			l0.08-1.595l0.327-0.317c0.53-0.547,0.971-1.484,0.055-2.84c-0.693-1.028-1.868-1.549-3.491-1.549
			c-0.903,0-2.09,0.087-3.258,0.765c-0.234,0.137-0.318,0.436-0.188,0.673c0.708,1.29,0.588,2.54-0.337,3.519
			c-0.082,0.087-0.13,0.2-0.136,0.319L17.468,5.59c-0.008,0.143,0.047,0.282,0.149,0.382L17.72,6.077z M21.207,21.753
			c0.079-0.135,0.152-0.234,0.231-0.313l0.35-0.35c0.113-0.113,0.165-0.273,0.141-0.432c-0.309-1.937-1.73-4.166-3.853-4.681
			l-3.473-0.841l-0.279-1.084c0.922-0.896,1.556-2.115,1.753-3.372c0.523-0.154,0.925-0.599,0.996-1.152l0.229-1.772
			c0.049-0.385-0.069-0.774-0.326-1.069c-0.149-0.172-0.337-0.303-0.546-0.386l0.08-1.595l0.327-0.317
			c0.53-0.547,0.971-1.484,0.055-2.84C16.199,0.521,15.024,0,13.401,0c-0.637,0-2.102,0-3.47,0.888
			C6.011,0.97,5.478,2.749,5.478,4.485c0,0.389,0.094,1.244,0.158,1.789C5.404,6.353,5.193,6.492,5.028,6.679
			C4.767,6.976,4.647,7.368,4.697,7.757l0.229,1.771c0.076,0.592,0.529,1.06,1.104,1.181c0.196,1.205,0.797,2.385,1.665,3.266
			l-0.3,1.163l-3.472,0.841c-2.424,0.585-3.924,3.322-3.924,5.521c0,0.276,0.224,0.5,0.5,0.5h20.276
			C20.953,22,21.117,21.906,21.207,21.753z M29.499,26c-0.276,0-0.5,0.224-0.5,0.5V29h-9v-2.5c0-0.276-0.224-0.5-0.5-0.5
			s-0.5,0.224-0.5,0.5v3c0,0.276,0.224,0.5,0.5,0.5h10c0.276,0,0.5-0.224,0.5-0.5v-3C29.999,26.224,29.775,26,29.499,26z"/>
	</g>
</g>
</svg>
