<?xml version="1.0" encoding="iso-8859-1"?>
<!-- Generator: Adobe Illustrator 19.0.0, SVG Export Plug-In . SVG Version: 6.00 Build 0)  -->
<svg version="1.1" id="Layer_1" xmlns="http://www.w3.org/2000/svg" xmlns:xlink="http://www.w3.org/1999/xlink" x="0px" y="0px"
	 viewBox="0 0 30 30" style="enable-background:new 0 0 30 30;" xml:space="preserve">
<g>
	<g>
		<path d="M21,26.5v1c0,0.276,0.224,0.5,0.5,0.5h1.006C22.782,28,23,27.714,23,27.437v-2.938c0-0.276-0.224-0.5-0.5-0.5
			c-0.4,0-0.777-0.156-1.061-0.439c-0.385-0.385-0.526-0.955-0.368-1.486c0.038-0.13,0.022-0.27-0.044-0.388
			c-0.066-0.118-0.179-0.204-0.31-0.238l-2.193-0.571l-0.414-1.729c1.229-1.246,2.065-2.978,2.296-4.749
			c0.661-0.167,1.176-0.74,1.262-1.461l0.294-2.445c0.06-0.495-0.093-0.992-0.417-1.362c-0.194-0.221-0.44-0.385-0.712-0.479
			l0.114-2.439l0.467-0.487c0.633-0.701,1.155-1.904,0.052-3.658C20.604,0.696,19.131,0,17.088,0c-0.813,0-2.69,0-4.428,1.225
			C7.715,1.326,7.043,3.693,7.043,6.002c0,0.568,0.14,1.888,0.223,2.616C6.96,8.702,6.681,8.875,6.464,9.119
			c-0.33,0.373-0.485,0.873-0.426,1.374l0.294,2.445c0.092,0.771,0.674,1.372,1.399,1.49c0.229,1.706,1.023,3.385,2.185,4.612
			l-0.44,1.836L4.927,22.06C1.884,22.852,0,26.539,0,29.499c0,0.276,0.224,0.5,0.5,0.5h17c0.276,0,0.5-0.224,0.5-0.5v-3
			c0-0.827,0.673-1.5,1.5-1.5C20.327,24.999,21,25.673,21,26.5z M22.146,22.854c0.195,0.195,0.512,0.195,0.707,0l1.146-1.146v5.73
			c0,0.276,0.224,0.5,0.5,0.5s0.5-0.224,0.5-0.5v-5.73l1.146,1.146C26.243,22.952,26.371,23,26.499,23
			c0.128,0,0.256-0.049,0.354-0.146c0.195-0.195,0.195-0.512,0-0.707l-2-2c-0.047-0.047-0.101-0.08-0.157-0.105
			c-0.002-0.001-0.003-0.003-0.005-0.004H24.69c-0.082-0.034-0.169-0.037-0.255-0.025c-0.021,0.003-0.039,0.006-0.059,0.012
			c-0.083,0.022-0.164,0.057-0.229,0.122l-2,2C21.951,22.342,21.951,22.658,22.146,22.854z M29.5,26c-0.276,0-0.5,0.224-0.5,0.5V29
			h-9v-2.5c0-0.276-0.224-0.5-0.5-0.5S19,26.224,19,26.5v3c0,0.276,0.224,0.5,0.5,0.5h10c0.276,0,0.5-0.224,0.5-0.5v-3
			C30,26.224,29.776,26,29.5,26z"/>
	</g>
</g>
</svg>
