<?xml version="1.0" encoding="iso-8859-1"?>
<!-- Generator: Adobe Illustrator 19.0.0, SVG Export Plug-In . SVG Version: 6.00 Build 0)  -->
<svg version="1.1" id="Layer_1" xmlns="http://www.w3.org/2000/svg" xmlns:xlink="http://www.w3.org/1999/xlink" x="0px" y="0px"
	 viewBox="0 0 30 30" style="enable-background:new 0 0 30 30;" xml:space="preserve">
<g>
	<g>
		<path d="M20.725,21.598l0.37-1.849c0.03-0.147,0.094-0.303,0.198-0.474c0.09-0.147,0.097-0.331,0.019-0.485
			c-0.744-1.47-1.923-2.494-3.235-2.813l-3.472-0.841l-0.279-1.084c0.922-0.896,1.555-2.116,1.752-3.372
			c0.522-0.154,0.924-0.599,0.996-1.152l0.229-1.772c0.049-0.385-0.069-0.774-0.326-1.069c-0.149-0.172-0.337-0.303-0.545-0.385
			l0.08-1.596l0.326-0.317c0.53-0.547,0.971-1.484,0.056-2.841C16.2,0.521,15.025,0,13.403,0C12.766,0,11.3,0,9.932,0.888
			C6.013,0.97,5.479,2.749,5.479,4.484c0,0.389,0.094,1.243,0.159,1.789C5.405,6.353,5.195,6.491,5.03,6.677
			C4.769,6.974,4.648,7.367,4.698,7.757l0.229,1.771c0.077,0.591,0.53,1.059,1.104,1.18c0.197,1.205,0.797,2.385,1.665,3.266
			l-0.3,1.163l-3.472,0.841C1.501,16.565,0.001,19.3,0.001,21.5c0,0.276,0.224,0.5,0.5,0.5h19.735
			C20.473,22,20.678,21.832,20.725,21.598z M17.721,6.077c0.448,0.491,0.658,1.142,0.575,1.784l-0.229,1.772
			c-0.079,0.614-0.424,1.181-0.946,1.553c-0.095,0.068-0.163,0.166-0.193,0.279c-0.217,0.816-0.599,1.617-1.104,2.316
			c-0.098,0.135-0.122,0.31-0.064,0.466s0.189,0.273,0.352,0.313l2.222,0.538c1.59,0.385,2.949,1.515,3.827,3.182
			c0.085,0.16,0.25,0.263,0.432,0.267c0.219,0.005,0.425,0.051,0.613,0.139c0.067,0.031,0.139,0.047,0.211,0.047
			c0.084,0,0.169-0.021,0.245-0.064c0.14-0.079,0.234-0.221,0.252-0.381l0.258-2.323c0.028-0.25-0.135-0.481-0.379-0.541
			l-1.187-0.287l-0.279-1.084c0.922-0.896,1.555-2.116,1.752-3.372c0.522-0.154,0.924-0.599,0.996-1.152l0.229-1.772
			c0.049-0.385-0.069-0.774-0.326-1.069c-0.149-0.172-0.337-0.303-0.545-0.385l0.08-1.596l0.326-0.317
			c0.53-0.547,0.971-1.484,0.056-2.841c-0.694-1.027-1.869-1.548-3.491-1.548c-0.904,0-2.091,0.087-3.258,0.765
			c-0.235,0.137-0.318,0.435-0.188,0.673c0.708,1.29,0.587,2.54-0.337,3.519c-0.082,0.087-0.13,0.2-0.136,0.319l-0.016,0.315
			c-0.007,0.143,0.048,0.282,0.15,0.382L17.721,6.077z M29.658,16.417l-3.783-1.261c-0.143-0.046-0.3-0.029-0.428,0.054
			c-0.127,0.081-0.211,0.216-0.228,0.365l-0.551,4.962l-1.88-0.94c-0.139-0.069-0.303-0.071-0.443-0.002
			c-0.14,0.068-0.24,0.198-0.271,0.352l-1.892,9.456c-0.047,0.233,0.078,0.468,0.299,0.56C20.544,29.987,20.608,30,20.672,30
			c0.163,0,0.321-0.08,0.416-0.223l3.538-5.307l2.126,1.063c0.132,0.066,0.286,0.069,0.42,0.013
			c0.135-0.058,0.238-0.173,0.281-0.313l2.522-8.195C30.058,16.779,29.916,16.503,29.658,16.417z"/>
	</g>
</g>
</svg>
