<?xml version="1.0" encoding="iso-8859-1"?>
<!-- Generator: Adobe Illustrator 19.0.0, SVG Export Plug-In . SVG Version: 6.00 Build 0)  -->
<svg version="1.1" id="Layer_1" xmlns="http://www.w3.org/2000/svg" xmlns:xlink="http://www.w3.org/1999/xlink" x="0px" y="0px"
	 viewBox="0 0 30 30" style="enable-background:new 0 0 30 30;" xml:space="preserve">
<g>
	<g>
		<path d="M17.722,6.077c0.448,0.491,0.658,1.142,0.575,1.784l-0.229,1.772c-0.079,0.614-0.424,1.181-0.946,1.553
			c-0.095,0.068-0.162,0.166-0.192,0.279c-0.217,0.816-0.599,1.617-1.104,2.316c-0.098,0.135-0.121,0.31-0.063,0.466
			c0.058,0.156,0.189,0.273,0.351,0.313l2.222,0.538c1.147,0.278,2.193,0.958,3.025,1.968c0.099,0.119,0.241,0.182,0.386,0.182
			c0.106,0,0.214-0.034,0.304-0.104c0.464-0.354,0.979-0.633,1.531-0.827c0.21-0.073,0.346-0.275,0.334-0.497
			c-0.011-0.221-0.166-0.408-0.382-0.461l-0.927-0.224l-0.279-1.084c0.922-0.896,1.556-2.115,1.753-3.372
			c0.523-0.154,0.925-0.599,0.996-1.152l0.229-1.772c0.049-0.385-0.069-0.774-0.326-1.069c-0.149-0.172-0.337-0.303-0.546-0.386
			l0.08-1.595l0.327-0.317c0.53-0.547,0.971-1.484,0.055-2.84c-0.693-1.028-1.868-1.549-3.491-1.549
			c-0.903,0-2.09,0.087-3.258,0.765c-0.234,0.137-0.318,0.436-0.188,0.673c0.708,1.29,0.588,2.54-0.337,3.519
			c-0.082,0.087-0.13,0.2-0.136,0.319L17.47,5.59c-0.008,0.143,0.047,0.282,0.149,0.382L17.722,6.077z M28.661,18.34
			c-1.783-1.783-4.688-1.783-6.471,0c-1.07,1.071-1.531,2.626-1.236,4.118l-3.807,3.807c-0.094,0.094-0.146,0.221-0.146,0.354v2.882
			c0,0.276,0.224,0.5,0.5,0.5h2.882c0.133,0,0.26-0.053,0.354-0.146l3.807-3.807c1.485,0.293,3.046-0.166,4.118-1.236
			C30.444,23.026,30.444,20.124,28.661,18.34z M27.219,21.209c-0.188,0.189-0.442,0.295-0.713,0.295
			c-0.27,0-0.523-0.105-0.714-0.297c-0.189-0.188-0.295-0.442-0.295-0.712c0-0.271,0.105-0.524,0.297-0.715
			c0.382-0.383,1.047-0.38,1.427,0.002c0.189,0.188,0.295,0.442,0.295,0.713C27.516,20.765,27.41,21.019,27.219,21.209z
			 M19.875,21.506c0.013-1.084,0.329-2.127,0.916-3.017c0.114-0.174,0.109-0.4-0.014-0.569c-0.743-1.022-1.676-1.694-2.699-1.942
			l-3.473-0.841l-0.279-1.084c0.922-0.896,1.556-2.115,1.753-3.372c0.523-0.154,0.925-0.599,0.996-1.152l0.229-1.772
			c0.049-0.385-0.069-0.774-0.326-1.069c-0.149-0.172-0.337-0.303-0.546-0.386l0.08-1.595l0.327-0.317
			c0.53-0.547,0.971-1.484,0.055-2.84c-0.693-1.028-1.868-1.549-3.491-1.549c-0.637,0-2.102,0-3.47,0.888
			C6.013,0.971,5.48,2.75,5.48,4.486c0,0.389,0.094,1.244,0.158,1.789C5.406,6.354,5.195,6.493,5.03,6.68
			C4.769,6.977,4.649,7.369,4.699,7.758l0.229,1.771c0.076,0.592,0.529,1.06,1.104,1.181c0.196,1.205,0.797,2.385,1.665,3.266
			l-0.3,1.163L3.925,15.98c-2.424,0.584-3.924,3.321-3.924,5.52c0,0.276,0.224,0.5,0.5,0.5h18.874
			C19.648,22,19.872,21.779,19.875,21.506z"/>
	</g>
</g>
</svg>
