<?xml version="1.0" encoding="iso-8859-1"?>
<!-- Generator: Adobe Illustrator 19.0.0, SVG Export Plug-In . SVG Version: 6.00 Build 0)  -->
<svg version="1.1" id="Layer_1" xmlns="http://www.w3.org/2000/svg" xmlns:xlink="http://www.w3.org/1999/xlink" x="0px" y="0px"
	 viewBox="0 0 30 30" style="enable-background:new 0 0 30 30;" xml:space="preserve">
<g>
	<g>
		<path d="M29.634,21.39c-0.044-0.134-0.142-0.242-0.27-0.299c-0.126-0.058-0.273-0.059-0.403-0.003
			c-0.331,0.14-0.696,0.022-0.869-0.282c-0.175-0.31-0.089-0.71,0.201-0.933c0.109-0.083,0.179-0.208,0.193-0.345
			c0.014-0.138-0.029-0.273-0.119-0.378c-0.964-1.12-2.207-1.859-3.593-2.141c-0.137-0.029-0.282,0.003-0.396,0.088
			c-0.114,0.084-0.187,0.212-0.201,0.353C24.136,17.855,23.8,18,23.499,18c-0.301,0-0.638-0.145-0.678-0.55
			c-0.014-0.141-0.087-0.269-0.201-0.353c-0.114-0.085-0.258-0.116-0.396-0.088c-1.386,0.281-2.628,1.021-3.593,2.141
			c-0.09,0.104-0.132,0.24-0.119,0.378c0.014,0.137,0.084,0.262,0.193,0.345c0.29,0.223,0.376,0.623,0.201,0.933
			c-0.173,0.306-0.538,0.423-0.869,0.282c-0.13-0.057-0.276-0.056-0.403,0.003c-0.128,0.057-0.226,0.165-0.27,0.299
			c-0.247,0.742-0.366,1.433-0.366,2.11c0,0.677,0.12,1.368,0.366,2.11c0.044,0.134,0.142,0.242,0.27,0.299
			c0.127,0.058,0.274,0.059,0.403,0.003c0.329-0.142,0.695-0.023,0.869,0.282c0.175,0.31,0.089,0.71-0.201,0.933
			c-0.109,0.083-0.179,0.208-0.193,0.345c-0.014,0.138,0.029,0.273,0.119,0.378c0.964,1.12,2.207,1.859,3.593,2.141
			c0.137,0.028,0.281-0.003,0.396-0.088c0.114-0.084,0.187-0.212,0.201-0.353c0.041-0.405,0.377-0.55,0.678-0.55
			c0.301,0,0.638,0.145,0.678,0.55c0.014,0.141,0.087,0.269,0.201,0.353c0.087,0.064,0.191,0.098,0.297,0.098
			c0.033,0,0.066-0.003,0.099-0.01c1.386-0.281,2.628-1.021,3.593-2.141c0.09-0.104,0.132-0.24,0.119-0.378
			c-0.014-0.137-0.084-0.262-0.193-0.345c-0.289-0.222-0.375-0.623-0.201-0.933c0.173-0.305,0.54-0.422,0.869-0.282
			c0.129,0.055,0.275,0.055,0.403-0.003c0.128-0.057,0.226-0.165,0.27-0.299C29.881,24.868,30,24.177,30,23.5
			C30,22.823,29.88,22.133,29.634,21.39z M23.5,26.001c-1.378,0-2.5-1.121-2.5-2.5c0-1.379,1.122-2.5,2.5-2.5s2.5,1.121,2.5,2.5
			C26,24.88,24.878,26.001,23.5,26.001z M17.721,6.077c0.448,0.491,0.658,1.142,0.575,1.784l-0.229,1.772
			c-0.079,0.614-0.424,1.181-0.946,1.553c-0.095,0.068-0.163,0.166-0.193,0.279c-0.217,0.816-0.599,1.617-1.104,2.316
			c-0.098,0.135-0.122,0.31-0.064,0.466s0.189,0.273,0.352,0.313l2.222,0.538c0.615,0.148,1.209,0.42,1.767,0.805
			c0.085,0.059,0.184,0.089,0.284,0.089c0.063,0,0.127-0.012,0.187-0.036c0.476-0.192,0.919-0.328,1.435-0.424
			c0.008,0,0.102-0.008,0.109-0.009c0.144-0.017,0.274-0.094,0.356-0.214c0.083-0.119,0.109-0.268,0.073-0.408l-0.219-0.85
			c0.922-0.896,1.555-2.116,1.752-3.372c0.522-0.154,0.924-0.599,0.996-1.152l0.229-1.772c0.049-0.385-0.069-0.774-0.326-1.069
			c-0.149-0.172-0.337-0.303-0.545-0.385l0.08-1.596l0.326-0.317c0.53-0.547,0.971-1.484,0.056-2.841
			C24.2,0.52,23.025-0.001,21.403-0.001c-0.904,0-2.091,0.087-3.258,0.765c-0.235,0.137-0.318,0.435-0.188,0.673
			c0.708,1.29,0.587,2.54-0.337,3.519c-0.082,0.087-0.13,0.2-0.136,0.319L17.468,5.59c-0.007,0.143,0.048,0.282,0.15,0.382
			L17.721,6.077z M17.495,18.174c0.333-0.388,0.726-0.751,1.234-1.144c0.142-0.109,0.214-0.287,0.189-0.464
			c-0.024-0.178-0.143-0.329-0.309-0.396l-0.095-0.039c-0.143-0.06-0.287-0.117-0.438-0.154l-3.472-0.841l-0.279-1.084
			c0.922-0.896,1.555-2.116,1.752-3.372c0.522-0.154,0.924-0.599,0.996-1.152l0.229-1.772c0.049-0.385-0.069-0.774-0.326-1.069
			c-0.149-0.172-0.337-0.303-0.545-0.385l0.08-1.596l0.326-0.317c0.53-0.547,0.971-1.484,0.056-2.841
			C16.199,0.521,15.024,0,13.402,0c-0.637,0-2.103,0-3.471,0.888C6.012,0.97,5.478,2.749,5.478,4.485
			c0,0.389,0.094,1.243,0.159,1.789C5.404,6.353,5.194,6.491,5.029,6.678C4.768,6.975,4.647,7.367,4.697,7.757l0.229,1.771
			c0.077,0.591,0.53,1.059,1.104,1.18c0.197,1.205,0.797,2.385,1.665,3.266l-0.3,1.163l-3.472,0.841C1.5,16.565,0,19.301,0,21.5
			C0,21.776,0.224,22,0.5,22h14.754c0.229,0,0.429-0.156,0.485-0.379c0.058-0.232,0.125-0.466,0.204-0.704
			c0.146-0.439,0.443-0.817,0.836-1.063c0.142-0.09,0.23-0.245,0.234-0.413C17.023,18.974,17.194,18.523,17.495,18.174z"/>
	</g>
</g>
</svg>
