<?xml version="1.0" encoding="iso-8859-1"?>
<!-- Generator: Adobe Illustrator 19.0.0, SVG Export Plug-In . SVG Version: 6.00 Build 0)  -->
<svg version="1.1" id="Layer_1" xmlns="http://www.w3.org/2000/svg" xmlns:xlink="http://www.w3.org/1999/xlink" x="0px" y="0px"
	 viewBox="0 0 30 30" style="enable-background:new 0 0 30 30;" xml:space="preserve">
<g>
	<g>
		<path d="M20.01,21.826c-0.007-0.167-0.097-0.319-0.239-0.407c-1.233-0.755-1.773-2.938-1.87-3.714
			c0.826-0.806,1.313-1.984,1.313-3.205c0-0.523,0.171-0.736,0.229-0.766c0.156-0.041,0.283-0.153,0.342-0.304
			c0.025-0.067,0.638-1.661,0.638-2.681c0-0.04-0.005-0.079-0.014-0.118c-0.064-0.265-0.25-0.66-0.591-0.868V6.374
			c0-1.992-0.593-2.782-1.212-3.243C18.536,2.157,17.626,0,14,0c-3.771,0-6.61,3.791-6.61,6.25c0,1.134-0.047,2.056-0.081,2.729
			C7.296,9.226,7.285,9.445,7.278,9.634C6.932,9.84,6.745,10.24,6.679,10.507c-0.009,0.039-0.014,0.078-0.014,0.118
			c0,1.02,0.612,2.613,0.638,2.681c0.059,0.15,0.154,0.253,0.311,0.294c0.09,0.039,0.26,0.252,0.26,0.775
			c0,1.43,1.367,2.83,1.932,3.347c-0.024,0.867-0.208,3.236-1.482,3.792L2.71,22.879c-1.345,0.465-2.352,1.587-2.694,3.004
			C0.005,25.921,0,25.96,0,26v3.5C0,29.776,0.224,30,0.5,30h22.556c0.186,0,0.355-0.103,0.441-0.266
			c0.087-0.164,0.076-0.362-0.028-0.516C22.213,27.371,20.094,23.953,20.01,21.826z M25.5,17c-2.481,0-4.5,2.108-4.5,4.7
			c0,2.413,3.677,7.521,4.096,8.095C25.191,29.924,25.34,30,25.5,30c0.16,0,0.31-0.076,0.404-0.205C26.323,29.221,30,24.113,30,21.7
			C30,19.108,27.981,17,25.5,17z M25.5,24c-1.379,0-2.5-1.121-2.5-2.5c0-1.379,1.121-2.5,2.5-2.5c1.379,0,2.5,1.121,2.5,2.5
			C28,22.879,26.879,24,25.5,24z"/>
	</g>
</g>
</svg>
