<?xml version="1.0" encoding="iso-8859-1"?>
<!-- Generator: Adobe Illustrator 19.0.0, SVG Export Plug-In . SVG Version: 6.00 Build 0)  -->
<svg version="1.1" id="Layer_1" xmlns="http://www.w3.org/2000/svg" xmlns:xlink="http://www.w3.org/1999/xlink" x="0px" y="0px"
	 viewBox="0 0 30 30" style="enable-background:new 0 0 30 30;" xml:space="preserve">
<g>
	<g>
		<path d="M17.874,28.502c-0.269-0.311-0.398-0.724-0.354-1.15c0.032-0.221-0.089-0.439-0.293-0.531
			c-0.383-0.172-0.678-0.499-0.81-0.896C16.136,25.079,16,24.285,16,23.499s0.136-1.58,0.417-2.425
			c0.122-0.366,0.38-0.671,0.775-0.883c0.033-0.012,0.064-0.028,0.093-0.047c0.005-0.002,0.01-0.004,0.015-0.007l-0.001-0.002
			c0.153-0.11,0.24-0.317,0.221-0.507c-0.042-0.409,0.088-0.821,0.356-1.132c0.448-0.52,0.976-0.976,1.614-1.396
			c0.077-0.05,0.138-0.121,0.177-0.204c0.376-0.797,0.629-1.653,0.74-2.497c0.661-0.167,1.176-0.74,1.263-1.462l0.293-2.445
			c0.06-0.496-0.092-0.992-0.417-1.362c-0.194-0.222-0.441-0.386-0.712-0.479l0.114-2.438l0.467-0.487
			c0.633-0.701,1.155-1.904,0.052-3.658C20.604,0.696,19.131,0,17.088,0c-0.813,0-2.69,0-4.427,1.225
			C7.716,1.326,7.044,3.693,7.044,6.002c0,0.568,0.14,1.888,0.223,2.616C6.961,8.702,6.681,8.875,6.464,9.12
			c-0.33,0.373-0.485,0.873-0.425,1.373l0.293,2.445c0.092,0.771,0.674,1.373,1.4,1.49c0.229,1.705,1.023,3.385,2.185,4.612
			l-0.441,1.836L4.928,22.06c-3.043,0.792-4.927,4.479-4.927,7.439c0,0.276,0.224,0.5,0.5,0.5h17.673
			c0.206,0,0.361-0.154,0.436-0.346c0.075-0.192-0.005-0.438-0.157-0.577C18.253,28.893,18.054,28.711,17.874,28.502z
			 M29.633,21.389c-0.044-0.133-0.142-0.242-0.27-0.299c-0.126-0.057-0.273-0.058-0.403-0.003c-0.331,0.142-0.696,0.023-0.869-0.282
			c-0.175-0.31-0.088-0.71,0.202-0.933c0.109-0.083,0.179-0.208,0.193-0.346c0.014-0.137-0.029-0.273-0.119-0.377
			c-0.964-1.119-2.207-1.858-3.592-2.14c-0.14-0.028-0.282,0.003-0.396,0.088c-0.113,0.083-0.187,0.212-0.201,0.352
			c-0.041,0.406-0.377,0.55-0.678,0.55c-0.301,0-0.638-0.145-0.678-0.55c-0.014-0.14-0.087-0.269-0.201-0.352
			c-0.114-0.084-0.256-0.115-0.396-0.088c-1.385,0.281-2.627,1.021-3.592,2.14c-0.09,0.104-0.133,0.241-0.119,0.377
			c0.014,0.137,0.084,0.262,0.193,0.346c0.29,0.223,0.376,0.624,0.202,0.933c-0.173,0.307-0.538,0.426-0.869,0.283
			c-0.13-0.056-0.276-0.055-0.403,0.003c-0.128,0.057-0.226,0.166-0.27,0.299c-0.247,0.743-0.366,1.433-0.366,2.11
			c0,0.678,0.12,1.368,0.366,2.111c0.044,0.133,0.142,0.241,0.27,0.298c0.127,0.058,0.274,0.059,0.403,0.003
			c0.329-0.143,0.695-0.023,0.869,0.282c0.175,0.31,0.088,0.71-0.202,0.933c-0.109,0.083-0.179,0.208-0.193,0.346
			c-0.014,0.137,0.029,0.273,0.119,0.377c0.964,1.119,2.207,1.858,3.592,2.14c0.14,0.025,0.282-0.004,0.396-0.088
			c0.113-0.083,0.187-0.212,0.201-0.352C22.863,29.144,23.199,29,23.5,29c0.301,0,0.638,0.145,0.678,0.55
			c0.014,0.14,0.087,0.269,0.201,0.352C24.466,29.966,24.57,30,24.676,30c0.033,0,0.066-0.003,0.1-0.01
			c1.385-0.281,2.627-1.021,3.592-2.14c0.09-0.104,0.133-0.241,0.119-0.377c-0.014-0.137-0.084-0.262-0.193-0.346
			c-0.29-0.223-0.376-0.623-0.202-0.933c0.173-0.306,0.54-0.425,0.869-0.283c0.129,0.055,0.275,0.054,0.403-0.003
			s0.226-0.166,0.27-0.298C29.881,24.867,30,24.177,30,23.499C29.999,22.822,29.879,22.131,29.633,21.389z M23.499,25.999
			c-1.378,0-2.5-1.122-2.5-2.5s1.122-2.5,2.5-2.5s2.5,1.122,2.5,2.5S24.877,25.999,23.499,25.999z"/>
	</g>
</g>
</svg>
