<?xml version="1.0" encoding="iso-8859-1"?>
<!-- Generator: Adobe Illustrator 19.0.0, SVG Export Plug-In . SVG Version: 6.00 Build 0)  -->
<svg version="1.1" id="Layer_1" xmlns="http://www.w3.org/2000/svg" xmlns:xlink="http://www.w3.org/1999/xlink" x="0px" y="0px"
	 viewBox="0 0 30 30" style="enable-background:new 0 0 30 30;" xml:space="preserve">
<g>
	<g>
		<path d="M19.157,26.148C18.411,25.38,18,24.362,18,23.284c0-0.708,0.165-1.396,0.491-2.044c0.053-0.105,0.066-0.227,0.039-0.341
			l-0.42-1.751c1.229-1.245,2.065-2.977,2.296-4.748c0.661-0.167,1.176-0.74,1.262-1.461l0.294-2.445
			c0.06-0.495-0.093-0.992-0.417-1.362c-0.194-0.221-0.44-0.385-0.712-0.479l0.114-2.439l0.467-0.487
			c0.633-0.701,1.155-1.904,0.052-3.658C20.604,0.697,19.131,0,17.088,0c-0.813,0-2.69,0-4.428,1.225
			C7.715,1.327,7.043,3.693,7.043,6.003c0,0.568,0.14,1.888,0.223,2.616C6.96,8.703,6.681,8.875,6.464,9.12
			c-0.33,0.373-0.485,0.873-0.426,1.374l0.294,2.445c0.092,0.771,0.674,1.372,1.399,1.49c0.229,1.706,1.023,3.385,2.185,4.612
			l-0.44,1.836L4.927,22.06C1.884,22.854,0,26.539,0,29.5C0,29.776,0.224,30,0.5,30h21.219c0.201,0,0.383-0.12,0.461-0.305
			c0.078-0.186,0.038-0.399-0.103-0.543L19.157,26.148z M27.503,20.034c-1.059-0.177-2.037,0.033-2.682,0.579
			c-0.12,0.102-0.227,0.213-0.321,0.333c-0.095-0.121-0.201-0.232-0.321-0.333c-0.646-0.546-1.627-0.756-2.681-0.579
			c-1.424,0.238-2.498,1.6-2.498,3.25c0,0.817,0.311,1.587,0.874,2.167l4.268,4.39c0.094,0.097,0.224,0.151,0.358,0.151
			c0.134,0,0.265-0.055,0.358-0.151l4.268-4.39c0.563-0.58,0.874-1.35,0.874-2.25C30,21.633,28.926,20.271,27.503,20.034z"/>
	</g>
</g>
</svg>
