<?xml version="1.0" encoding="iso-8859-1"?>
<!-- Generator: Adobe Illustrator 19.0.0, SVG Export Plug-In . SVG Version: 6.00 Build 0)  -->
<svg version="1.1" id="Layer_1" xmlns="http://www.w3.org/2000/svg" xmlns:xlink="http://www.w3.org/1999/xlink" x="0px" y="0px"
	 viewBox="0 0 30 30" style="enable-background:new 0 0 30 30;" xml:space="preserve">
<g>
	<g>
		<path d="M19.876,21.885c-0.003-0.057-0.002-0.113-0.001-0.169c0-0.003,0.001-0.099,0.001-0.102c0-0.228-0.153-0.427-0.374-0.484
			l-0.977-0.254l-0.414-1.729c1.229-1.246,2.065-2.978,2.296-4.749c0.661-0.167,1.176-0.74,1.262-1.461l0.294-2.445
			c0.06-0.495-0.093-0.992-0.417-1.362c-0.194-0.221-0.44-0.385-0.712-0.479l0.114-2.439l0.467-0.487
			c0.633-0.701,1.155-1.904,0.052-3.658c-0.862-1.372-2.335-2.068-4.378-2.068c-0.813,0-2.69,0-4.428,1.225
			C7.716,1.325,7.044,3.692,7.044,6.001c0,0.568,0.14,1.888,0.223,2.616C6.961,8.701,6.682,8.874,6.465,9.118
			c-0.33,0.373-0.485,0.873-0.426,1.374l0.294,2.445c0.092,0.771,0.674,1.372,1.399,1.49c0.229,1.706,1.023,3.385,2.185,4.612
			l-0.44,1.836l-4.549,1.184C1.885,22.854,0.001,26.54,0.001,29.5c0,0.276,0.224,0.5,0.5,0.5h15c0.276,0,0.5-0.224,0.5-0.5v-2.882
			c0-0.395,0.16-0.781,0.439-1.061l3.29-3.29C19.831,22.167,19.885,22.028,19.876,21.885z M28.661,18.34
			c-1.783-1.784-4.688-1.784-6.471,0c-1.07,1.07-1.531,2.625-1.236,4.119l-3.807,3.806c-0.094,0.094-0.146,0.221-0.146,0.354v2.882
			c0,0.276,0.224,0.5,0.5,0.5h2.882c0.133,0,0.26-0.053,0.354-0.146l3.807-3.806c1.491,0.295,3.046-0.166,4.118-1.237
			C30.444,23.027,30.444,20.124,28.661,18.34z M27.22,21.208c-0.189,0.19-0.443,0.295-0.714,0.295c-0.27,0-0.523-0.105-0.713-0.296
			c-0.394-0.393-0.394-1.033,0-1.427c0.379-0.383,1.048-0.381,1.427,0C27.613,20.174,27.613,20.815,27.22,21.208z"/>
	</g>
</g>
</svg>
