<?xml version="1.0" encoding="iso-8859-1"?>
<!-- Generator: Adobe Illustrator 19.0.0, SVG Export Plug-In . SVG Version: 6.00 Build 0)  -->
<svg version="1.1" id="Layer_1" xmlns="http://www.w3.org/2000/svg" xmlns:xlink="http://www.w3.org/1999/xlink" x="0px" y="0px"
	 viewBox="0 0 30 30" style="enable-background:new 0 0 30 30;" xml:space="preserve">
<g>
	<g>
		<path d="M17.721,6.068c0.448,0.491,0.658,1.142,0.575,1.784l-0.229,1.772c-0.079,0.614-0.424,1.181-0.946,1.553
			c-0.095,0.068-0.162,0.166-0.192,0.279c-0.217,0.816-0.599,1.617-1.104,2.316c-0.098,0.135-0.121,0.31-0.063,0.466
			c0.058,0.156,0.189,0.273,0.351,0.313l2.222,0.538c1.74,0.422,3.217,1.752,4.053,3.648c0.072,0.162,0.224,0.274,0.399,0.295
			c0.556,0.066,1.052,0.217,1.475,0.448c0.075,0.041,0.157,0.062,0.24,0.062c0.082,0,0.165-0.021,0.239-0.061
			c0.82-0.446,1.863-0.595,2.93-0.416c0.29,0.048,0.588,0.146,0.938,0.311c0.197,0.091,0.426,0.048,0.574-0.108
			c0.147-0.155,0.18-0.388,0.08-0.577c-0.748-1.422-1.909-2.414-3.185-2.724l-3.473-0.841l-0.279-1.084
			c0.922-0.896,1.556-2.115,1.753-3.372c0.523-0.154,0.925-0.599,0.996-1.152l0.229-1.772c0.049-0.385-0.069-0.774-0.326-1.069
			c-0.149-0.172-0.337-0.303-0.546-0.386l0.08-1.595l0.327-0.317c0.53-0.547,0.971-1.484,0.055-2.84
			C24.201,0.51,23.026-0.01,21.403-0.01c-0.903,0-2.09,0.087-3.258,0.765c-0.234,0.137-0.318,0.436-0.188,0.673
			c0.708,1.29,0.588,2.54-0.337,3.519c-0.082,0.087-0.13,0.2-0.136,0.319L17.468,5.58c-0.008,0.143,0.047,0.282,0.149,0.382
			L17.721,6.068z M20.853,19.198c0.145-0.046,0.261-0.154,0.316-0.296c0.055-0.141,0.043-0.3-0.032-0.432
			c-0.762-1.32-1.849-2.209-3.06-2.503l-3.473-0.841l-0.279-1.084c0.922-0.896,1.556-2.115,1.753-3.372
			c0.523-0.154,0.925-0.599,0.996-1.152l0.229-1.772c0.049-0.385-0.069-0.774-0.326-1.069c-0.149-0.172-0.337-0.303-0.546-0.386
			l0.08-1.595l0.327-0.317c0.53-0.547,0.971-1.484,0.055-2.84c-0.693-1.028-1.868-1.549-3.491-1.549c-0.637,0-2.102,0-3.47,0.888
			C6.012,0.961,5.479,2.74,5.479,4.476c0,0.389,0.094,1.244,0.158,1.789C5.405,6.344,5.194,6.483,5.029,6.67
			C4.768,6.967,4.648,7.359,4.698,7.748l0.229,1.771c0.076,0.592,0.529,1.06,1.104,1.181c0.196,1.205,0.797,2.385,1.665,3.266
			l-0.3,1.163L3.924,15.97C1.5,16.555,0,19.292,0,21.49c0,0.276,0.224,0.5,0.5,0.5h17.34c0.207,0,0.394-0.128,0.468-0.322
			C18.767,20.46,19.694,19.559,20.853,19.198z M27.503,20.053c-1.059-0.177-2.037,0.033-2.682,0.578
			c-0.12,0.102-0.227,0.213-0.321,0.333c-0.095-0.12-0.201-0.231-0.321-0.333c-0.646-0.545-1.622-0.755-2.681-0.578
			C20.074,20.29,19,21.652,19,23.303c0,0.806,0.318,1.596,0.874,2.166l4.268,4.39c0.094,0.097,0.224,0.151,0.358,0.151
			c0.134,0,0.265-0.055,0.358-0.151l4.268-4.39c0.556-0.57,0.874-1.36,0.874-2.25C30,21.651,28.926,20.29,27.503,20.053z"/>
	</g>
</g>
</svg>
