<?xml version="1.0" encoding="iso-8859-1"?>
<!-- Generator: Adobe Illustrator 19.0.0, SVG Export Plug-In . SVG Version: 6.00 Build 0)  -->
<svg version="1.1" id="Layer_1" xmlns="http://www.w3.org/2000/svg" xmlns:xlink="http://www.w3.org/1999/xlink" x="0px" y="0px"
	 viewBox="0 0 30 30" style="enable-background:new 0 0 30 30;" xml:space="preserve">
<g>
	<g>
		<path d="M29.659,16.417l-3.783-1.261c-0.143-0.049-0.3-0.028-0.428,0.053c-0.127,0.082-0.211,0.216-0.228,0.366l-0.551,4.961
			l-1.88-0.94c-0.139-0.07-0.303-0.07-0.443-0.002s-0.24,0.198-0.271,0.351l-1.892,9.457c-0.047,0.234,0.078,0.469,0.299,0.56
			C20.545,29.987,20.609,30,20.673,30c0.163,0,0.321-0.08,0.416-0.223l3.538-5.307l2.126,1.063c0.132,0.067,0.286,0.071,0.42,0.012
			c0.135-0.058,0.238-0.172,0.281-0.313l2.522-8.196C30.059,16.778,29.917,16.502,29.659,16.417z M20.297,21.338l-1.771-0.461
			l-0.415-1.729c1.23-1.245,2.066-2.977,2.296-4.748c0.661-0.167,1.176-0.74,1.263-1.462l0.293-2.445
			c0.06-0.496-0.092-0.992-0.417-1.362c-0.194-0.222-0.441-0.386-0.712-0.479l0.114-2.438l0.467-0.487
			c0.633-0.701,1.155-1.904,0.052-3.658C20.604,0.696,19.131,0,17.088,0c-0.813,0-2.69,0-4.427,1.225
			C7.716,1.326,7.044,3.693,7.044,6.003c0,0.568,0.14,1.888,0.223,2.616C6.961,8.702,6.681,8.875,6.464,9.12
			c-0.33,0.373-0.485,0.873-0.425,1.373l0.293,2.445c0.092,0.771,0.674,1.373,1.4,1.49c0.229,1.705,1.023,3.385,2.185,4.612
			l-0.441,1.836L4.928,22.06c-3.043,0.792-4.927,4.479-4.927,7.439c0,0.276,0.224,0.5,0.5,0.5h18.177c0.275,0,0.499-0.223,0.5-0.498
			c0-0.098,0.006-0.197,0.026-0.295l1.458-7.286C20.714,21.661,20.554,21.404,20.297,21.338z"/>
	</g>
</g>
</svg>
