<?xml version="1.0" encoding="iso-8859-1"?>
<!-- Generator: Adobe Illustrator 19.0.0, SVG Export Plug-In . SVG Version: 6.00 Build 0)  -->
<svg version="1.1" id="Layer_1" xmlns="http://www.w3.org/2000/svg" xmlns:xlink="http://www.w3.org/1999/xlink" x="0px" y="0px"
	 viewBox="0 0 30 30" style="enable-background:new 0 0 30 30;" xml:space="preserve">
<g>
	<g>
		<path d="M21.212,19.692c0.234-0.124,0.331-0.408,0.222-0.649c-0.719-1.584-1.974-2.729-3.356-3.065l-3.473-0.841l-0.279-1.084
			c0.922-0.896,1.556-2.115,1.753-3.372c0.523-0.154,0.925-0.599,0.996-1.152l0.229-1.772c0.049-0.385-0.069-0.774-0.326-1.069
			c-0.149-0.172-0.337-0.303-0.546-0.386l0.08-1.595l0.327-0.317c0.53-0.547,0.971-1.484,0.055-2.84
			c-0.693-1.028-1.868-1.549-3.491-1.549c-0.637,0-2.102,0-3.47,0.888C6.013,0.971,5.48,2.75,5.48,4.486
			c0,0.389,0.094,1.244,0.158,1.789C5.406,6.354,5.195,6.493,5.03,6.68C4.769,6.977,4.649,7.369,4.699,7.758l0.229,1.771
			c0.076,0.592,0.529,1.06,1.104,1.181c0.196,1.205,0.797,2.385,1.665,3.266l-0.3,1.163L3.925,15.98C1.5,16.564,0,19.301,0,21.5
			C0,21.776,0.224,22,0.5,22h18.031c0.17,0,0.329-0.087,0.421-0.229C19.516,20.894,20.297,20.175,21.212,19.692z M17.721,6.077
			c0.448,0.491,0.658,1.142,0.575,1.784l-0.229,1.772c-0.079,0.614-0.424,1.181-0.946,1.553c-0.095,0.068-0.162,0.166-0.192,0.279
			c-0.217,0.816-0.599,1.617-1.104,2.316c-0.098,0.135-0.121,0.31-0.063,0.466c0.058,0.156,0.189,0.273,0.351,0.313l2.222,0.538
			c1.708,0.414,3.171,1.712,4.015,3.562c0.077,0.167,0.239,0.279,0.424,0.291c0.186,0.02,0.359-0.078,0.457-0.236
			c0.276-0.448,0.752-0.716,1.271-0.716c1.475,0,2.921,0.513,4.073,1.442c0.092,0.074,0.203,0.111,0.314,0.111
			c0.11,0,0.222-0.037,0.313-0.11c0.183-0.147,0.239-0.402,0.134-0.612c-0.742-1.492-1.931-2.532-3.258-2.854l-3.473-0.841
			l-0.279-1.084c0.922-0.896,1.556-2.115,1.753-3.372c0.523-0.154,0.925-0.599,0.996-1.152l0.229-1.772
			c0.049-0.385-0.069-0.774-0.326-1.069c-0.149-0.172-0.337-0.303-0.546-0.386l0.08-1.595l0.327-0.317
			c0.53-0.547,0.971-1.484,0.055-2.84c-0.693-1.028-1.868-1.549-3.491-1.549c-0.903,0-2.09,0.087-3.258,0.765
			c-0.234,0.137-0.318,0.436-0.188,0.673c0.708,1.29,0.588,2.54-0.337,3.519c-0.082,0.087-0.13,0.2-0.136,0.319L17.468,5.59
			c-0.008,0.143,0.047,0.282,0.149,0.382L17.721,6.077z M24.5,19c-0.276,0-0.5,0.224-0.5,0.5V20c-2.757,0-5,2.243-5,5
			c0,2.757,2.243,5,5,5c2.757,0,5-2.243,5-5h0.5c0.276,0,0.5-0.224,0.5-0.5C30,21.468,27.532,19,24.5,19z M25,24v-3.973
			c2.083,0.231,3.741,1.89,3.973,3.973H25z"/>
	</g>
</g>
</svg>
