<?xml version="1.0" encoding="iso-8859-1"?>
<!-- Generator: Adobe Illustrator 19.0.0, SVG Export Plug-In . SVG Version: 6.00 Build 0)  -->
<svg version="1.1" id="Layer_1" xmlns="http://www.w3.org/2000/svg" xmlns:xlink="http://www.w3.org/1999/xlink" x="0px" y="0px"
	 viewBox="0 0 30 30" style="enable-background:new 0 0 30 30;" xml:space="preserve">
<g>
	<g>
		<path d="M16,23.455c0-2.544,1.283-4.896,3.433-6.291c0.076-0.049,0.137-0.118,0.177-0.2c0.408-0.835,0.681-1.729,0.797-2.609
			c0.66-0.167,1.176-0.74,1.262-1.462l0.294-2.445c0.06-0.495-0.093-0.992-0.417-1.362c-0.195-0.22-0.442-0.384-0.713-0.478
			l0.114-2.439l0.467-0.487c0.633-0.701,1.155-1.904,0.052-3.658c-0.862-1.372-2.335-2.068-4.378-2.068c-0.813,0-2.69,0-4.428,1.225
			C7.715,1.282,7.043,3.649,7.043,5.958c0,0.568,0.14,1.888,0.223,2.616C6.96,8.658,6.681,8.831,6.464,9.075
			c-0.33,0.373-0.485,0.873-0.426,1.374l0.294,2.445c0.092,0.771,0.674,1.372,1.399,1.49c0.229,1.706,1.023,3.385,2.185,4.612
			l-0.44,1.836l-4.549,1.184C1.884,22.808,0,26.495,0,29.455c0,0.276,0.224,0.5,0.5,0.5h17c0.251,0,0.463-0.186,0.496-0.435
			l0.083-0.635c0.019-0.146-0.027-0.292-0.126-0.401C16.693,27.096,16,25.311,16,23.455z M23.5,17.044c-3.584,0-6.5,2.916-6.5,6.5
			c0,3.584,2.916,6.5,6.5,6.5c3.584,0,6.5-2.916,6.5-6.5C30,19.96,27.084,17.044,23.5,17.044z M26.849,26.902
			c-0.098,0.095-0.223,0.142-0.349,0.142c-0.13,0-0.261-0.051-0.358-0.151l-3-3.087C23.051,23.713,23,23.588,23,23.457v-3.913
			c0-0.276,0.224-0.5,0.5-0.5s0.5,0.224,0.5,0.5v3.71l2.858,2.941C27.051,26.394,27.047,26.71,26.849,26.902z"/>
	</g>
</g>
</svg>
