<?xml version="1.0" encoding="iso-8859-1"?>
<!-- Generator: Adobe Illustrator 19.0.0, SVG Export Plug-In . SVG Version: 6.00 Build 0)  -->
<svg version="1.1" id="Layer_1" xmlns="http://www.w3.org/2000/svg" xmlns:xlink="http://www.w3.org/1999/xlink" x="0px" y="0px"
	 viewBox="0 0 30 30" style="enable-background:new 0 0 30 30;" xml:space="preserve">
<g>
	<g>
		<path d="M19.989,21.784c-0.018-0.152-0.104-0.287-0.234-0.368c-1.229-0.759-1.768-2.937-1.865-3.711
			c0.827-0.807,1.313-1.985,1.313-3.205c0-0.523,0.17-0.736,0.229-0.766c0.156-0.041,0.283-0.153,0.341-0.304
			c0.026-0.067,0.638-1.661,0.638-2.681c0-0.039-0.005-0.079-0.014-0.117c-0.064-0.266-0.25-0.661-0.59-0.869V6.374
			c0-1.993-0.593-2.783-1.213-3.244c-0.069-0.975-0.979-3.131-4.604-3.131c-3.771,0-6.61,3.791-6.61,6.25
			c0,1.134-0.047,2.056-0.082,2.729C7.284,9.225,7.273,9.444,7.266,9.633c-0.346,0.206-0.534,0.606-0.598,0.874
			c-0.009,0.038-0.014,0.078-0.014,0.117c0,1.02,0.612,2.613,0.638,2.681c0.058,0.15,0.154,0.253,0.31,0.294
			c0.09,0.039,0.261,0.252,0.261,0.775c0,1.43,1.366,2.83,1.93,3.347c-0.023,0.866-0.208,3.236-1.481,3.792l-5.615,1.365
			c-1.345,0.465-2.352,1.587-2.694,3.004C-0.005,25.922-0.01,25.961-0.01,26v3.5c0,0.276,0.224,0.5,0.5,0.5h15
			c0.276,0,0.5-0.224,0.5-0.5v-2.828c0-0.395,0.16-0.781,0.439-1.061l3.417-3.416C19.953,22.087,20.007,21.936,19.989,21.784z
			 M29.865,19.954l-2.829-2.828c-0.195-0.195-0.512-0.195-0.707,0l-1.484,1.484l3.519,3.552l1.501-1.501
			c0.094-0.094,0.146-0.221,0.146-0.354C30.01,20.174,29.958,20.048,29.865,19.954z M17.135,26.318
			c-0.094,0.094-0.146,0.221-0.146,0.354V29.5c0,0.276,0.224,0.5,0.5,0.5h2.829c0.133,0,0.26-0.053,0.354-0.146l6.985-6.985
			l-3.519-3.552L17.135,26.318z"/>
	</g>
</g>
</svg>
