<?xml version="1.0" encoding="iso-8859-1"?>
<!-- Generator: Adobe Illustrator 19.0.0, SVG Export Plug-In . SVG Version: 6.00 Build 0)  -->
<svg version="1.1" id="Layer_1" xmlns="http://www.w3.org/2000/svg" xmlns:xlink="http://www.w3.org/1999/xlink" x="0px" y="0px"
	 viewBox="0 0 30 30" style="enable-background:new 0 0 30 30;" xml:space="preserve">
<g>
	<g>
		<path d="M17.711,6.077c0.448,0.491,0.658,1.142,0.575,1.784l-0.229,1.772c-0.079,0.614-0.424,1.181-0.946,1.553
			c-0.095,0.068-0.163,0.166-0.193,0.279c-0.217,0.816-0.599,1.617-1.104,2.316c-0.098,0.135-0.122,0.31-0.064,0.466
			s0.189,0.273,0.352,0.313l2.222,0.538c1.728,0.418,3.2,1.737,4.04,3.618c0.067,0.15,0.204,0.258,0.366,0.287
			c0.03,0.006,0.061,0.009,0.091,0.009c0.131,0,0.259-0.052,0.354-0.146l2.261-2.261c0.128-0.128,0.177-0.314,0.128-0.488
			c-0.049-0.175-0.188-0.309-0.364-0.352l-2.604-0.63l-0.279-1.084c0.922-0.896,1.555-2.116,1.752-3.372
			c0.522-0.154,0.924-0.599,0.996-1.152l0.229-1.772c0.049-0.385-0.069-0.774-0.326-1.069c-0.149-0.172-0.337-0.303-0.545-0.385
			l0.08-1.596l0.326-0.317c0.53-0.547,0.971-1.484,0.056-2.841c-0.694-1.027-1.869-1.548-3.491-1.548
			c-0.904,0-2.091,0.087-3.258,0.765c-0.235,0.137-0.318,0.435-0.188,0.673c0.708,1.29,0.587,2.54-0.337,3.519
			c-0.082,0.087-0.13,0.2-0.136,0.319L17.458,5.59c-0.007,0.143,0.048,0.282,0.15,0.382L17.711,6.077z M20.187,21.854l1.434-1.435
			c0.129-0.129,0.177-0.317,0.127-0.492c-0.576-1.997-2.021-3.547-3.682-3.949l-3.472-0.841l-0.279-1.084
			c0.922-0.896,1.555-2.116,1.752-3.372c0.522-0.154,0.924-0.599,0.996-1.152l0.229-1.772c0.049-0.385-0.069-0.774-0.326-1.069
			c-0.149-0.172-0.337-0.303-0.545-0.385l0.08-1.596l0.326-0.317c0.53-0.547,0.971-1.484,0.056-2.841
			c-0.694-1.027-1.869-1.548-3.491-1.548c-0.637,0-2.103,0-3.471,0.888C6.002,0.971,5.468,2.75,5.468,4.486
			c0,0.389,0.094,1.243,0.159,1.789C5.393,6.354,5.184,6.492,5.018,6.679C4.758,6.976,4.637,7.368,4.687,7.758l0.229,1.771
			c0.077,0.591,0.53,1.059,1.104,1.18c0.197,1.205,0.797,2.385,1.665,3.266l-0.3,1.163l-3.472,0.841
			C1.49,16.566-0.01,19.302-0.01,21.501c0,0.276,0.224,0.5,0.5,0.5h19.344C19.966,22,20.094,21.947,20.187,21.854z M29.865,19.954
			l-2.829-2.828c-0.195-0.195-0.512-0.195-0.707,0l-1.484,1.484l3.519,3.552l1.501-1.501c0.094-0.094,0.146-0.221,0.146-0.354
			S29.958,20.048,29.865,19.954z M17.135,26.318c-0.094,0.094-0.146,0.221-0.146,0.354V29.5c0,0.276,0.224,0.5,0.5,0.5h2.829
			c0.133,0,0.26-0.053,0.354-0.146l6.985-6.985l-3.519-3.552L17.135,26.318z"/>
	</g>
</g>
</svg>
