<?xml version="1.0" encoding="iso-8859-1"?>
<!-- Generator: Adobe Illustrator 19.2.1, SVG Export Plug-In . SVG Version: 6.00 Build 0)  -->
<svg version="1.1" xmlns="http://www.w3.org/2000/svg" xmlns:xlink="http://www.w3.org/1999/xlink" x="0px" y="0px"
	 viewBox="0 0 30 30" style="enable-background:new 0 0 30 30;" xml:space="preserve">
<g id="Armchair_1">
</g>
<g id="Armchair_2">
</g>
<g id="Armchair_3">
</g>
<g id="Armchair_4">
</g>
<g id="Sofa_1">
</g>
<g id="Sofa_2">
</g>
<g id="Sofa_3">
</g>
<g id="Sofa_4">
</g>
<g id="Sofa_5">
</g>
<g id="Sofa_6">
</g>
<g id="Desk_1">
</g>
<g id="Desk_2">
</g>
<g id="Desk_3">
</g>
<g id="Lamp">
</g>
<g id="Bed_1">
</g>
<g id="Bunk_Beds">
</g>
<g id="Bed_2">
</g>
<g id="Bed_3">
	<g>
		<path d="M27.5,0h-26C1.224,0,1,0.224,1,0.5v29C1,29.776,1.224,30,1.5,30h26c0.276,0,0.5-0.224,0.5-0.5v-29
			C28,0.224,27.776,0,27.5,0z M26,27.5c0,0.276-0.224,0.5-0.5,0.5h-22C3.224,28,3,27.776,3,27.5v-15C3,12.224,3.224,12,3.5,12h22
			c0.276,0,0.5,0.224,0.5,0.5V27.5z M26,7.5c0,1.378-1.121,2.5-2.5,2.5h-7c-0.821,0-1.544-0.403-2-1.015
			C14.044,9.597,13.321,10,12.5,10h-7C4.121,10,3,8.878,3,7.5v-2C3,4.122,4.121,3,5.5,3h7c0.821,0,1.544,0.403,2,1.015
			C14.956,3.403,15.679,3,16.5,3h7C24.879,3,26,4.122,26,5.5V7.5z"/>
		<path d="M12.5,4h-7C4.673,4,4,4.673,4,5.5v2C4,8.327,4.673,9,5.5,9h7C13.327,9,14,8.327,14,7.5v-2C14,4.673,13.327,4,12.5,4z"/>
		<path d="M23.5,4h-7C15.673,4,15,4.673,15,5.5v2C15,8.327,15.673,9,16.5,9h7C24.327,9,25,8.327,25,7.5v-2C25,4.673,24.327,4,23.5,4
			z"/>
		<rect x="4" y="13" width="21" height="14"/>
	</g>
</g>
<g id="Bed_4">
</g>
<g id="Bed_5">
</g>
<g id="Table_1">
</g>
<g id="Table_2">
</g>
<g id="Table_3">
</g>
<g id="Table_4">
</g>
<g id="Rug_1">
</g>
<g id="Rug_2">
</g>
<g id="Rug_3">
</g>
<g id="Tub_1">
</g>
<g id="Tub_2">
</g>
<g id="Jacuzzi">
</g>
<g id="Corner_Tub">
</g>
<g id="Shower_Tray">
</g>
<g id="Sink_1">
</g>
<g id="Sink_2">
</g>
<g id="Toilette">
</g>
<g id="Stove">
</g>
<g id="Kitchen_Sink">
</g>
<g id="Island">
</g>
<g id="Eat-in_Kitchen">
</g>
<g id="Tv_Stand">
</g>
</svg>
