<?xml version="1.0" encoding="iso-8859-1"?>
<!-- Generator: Adobe Illustrator 19.2.1, SVG Export Plug-In . SVG Version: 6.00 Build 0)  -->
<svg version="1.1" xmlns="http://www.w3.org/2000/svg" xmlns:xlink="http://www.w3.org/1999/xlink" x="0px" y="0px"
	 viewBox="0 0 30 30" style="enable-background:new 0 0 30 30;" xml:space="preserve">
<g id="Armchair_1">
</g>
<g id="Armchair_2">
</g>
<g id="Armchair_3">
</g>
<g id="Armchair_4">
</g>
<g id="Sofa_1">
</g>
<g id="Sofa_2">
</g>
<g id="Sofa_3">
</g>
<g id="Sofa_4">
</g>
<g id="Sofa_5">
</g>
<g id="Sofa_6">
</g>
<g id="Desk_1">
</g>
<g id="Desk_2">
</g>
<g id="Desk_3">
</g>
<g id="Lamp">
</g>
<g id="Bed_1">
</g>
<g id="Bunk_Beds">
</g>
<g id="Bed_2">
</g>
<g id="Bed_3">
</g>
<g id="Bed_4">
</g>
<g id="Bed_5">
</g>
<g id="Table_1">
</g>
<g id="Table_2">
</g>
<g id="Table_3">
</g>
<g id="Table_4">
</g>
<g id="Rug_1">
</g>
<g id="Rug_2">
</g>
<g id="Rug_3">
</g>
<g id="Tub_1">
</g>
<g id="Tub_2">
</g>
<g id="Jacuzzi">
</g>
<g id="Corner_Tub">
	<g>
		<path d="M23.501,3.999h-15.5c-0.682,0-1.186,0.534-1.425,0.853C6.017,5.596,5.783,6.586,5.995,7.317
			C8.305,15.3,14.7,21.695,22.683,24.005c0.728,0.211,1.721-0.022,2.465-0.581c0.318-0.239,0.853-0.743,0.853-1.425V6.67
			C26.001,5.521,24.576,3.999,23.501,3.999z M23.501,6.999c-0.276,0-0.5-0.224-0.5-0.5c0-0.276,0.224-0.5,0.5-0.5s0.5,0.224,0.5,0.5
			C24.001,6.775,23.777,6.999,23.501,6.999z"/>
		<path d="M29.501-0.001h-28c-0.513,0-0.89,0.133-1.151,0.406C0.098,0.668-0.02,1.044,0.001,1.521
			c0.672,15.31,12.961,27.818,27.978,28.478c0.039,0.002,0.078,0.002,0.117,0.002c0.586,0,1.135-0.194,1.486-0.53
			c0.274-0.263,0.419-0.599,0.419-0.972v-28C30.001,0.223,29.777-0.001,29.501-0.001z M27.001,21.999
			c0,0.828-0.444,1.618-1.251,2.224c-0.738,0.555-1.647,0.858-2.489,0.858c-0.297,0-0.585-0.038-0.855-0.116
			c-8.31-2.405-14.966-9.061-17.371-17.371C4.735,6.562,5.026,5.249,5.777,4.25c0.606-0.807,1.396-1.251,2.224-1.251h15.5
			c1.636,0,3.5,1.956,3.5,3.671V21.999z"/>
	</g>
</g>
<g id="Shower_Tray">
</g>
<g id="Sink_1">
</g>
<g id="Sink_2">
</g>
<g id="Toilette">
</g>
<g id="Stove">
</g>
<g id="Kitchen_Sink">
</g>
<g id="Island">
</g>
<g id="Eat-in_Kitchen">
</g>
<g id="Tv_Stand">
</g>
</svg>
