<?xml version="1.0" encoding="iso-8859-1"?>
<!-- Generator: Adobe Illustrator 19.2.1, SVG Export Plug-In . SVG Version: 6.00 Build 0)  -->
<svg version="1.1" xmlns="http://www.w3.org/2000/svg" xmlns:xlink="http://www.w3.org/1999/xlink" x="0px" y="0px"
	 viewBox="0 0 30 30" style="enable-background:new 0 0 30 30;" xml:space="preserve">
<g id="Armchair_1">
</g>
<g id="Armchair_2">
</g>
<g id="Armchair_3">
</g>
<g id="Armchair_4">
</g>
<g id="Sofa_1">
</g>
<g id="Sofa_2">
</g>
<g id="Sofa_3">
</g>
<g id="Sofa_4">
</g>
<g id="Sofa_5">
</g>
<g id="Sofa_6">
</g>
<g id="Desk_1">
	<path d="M29.5,4h-29C0.224,4,0,4.224,0,4.5v14C0,18.776,0.224,19,0.5,19h9.04l0.462,5.542c0.001,0.012,0.004,0.02,0.005,0.031
		c0.006,0.121,0.027,0.236,0.06,0.348c0.011,0.045,0.026,0.086,0.04,0.127c0.007,0.019,0.014,0.037,0.022,0.055
		C10.411,25.861,11.076,26,11.5,26h7c0.424,0,1.089-0.139,1.371-0.897c0.008-0.018,0.015-0.037,0.022-0.055
		c0.014-0.042,0.028-0.082,0.04-0.127c0.033-0.112,0.054-0.227,0.06-0.348c0.001-0.011,0.004-0.02,0.005-0.031L20.46,19h9.04
		c0.276,0,0.5-0.224,0.5-0.5v-14C30,4.224,29.776,4,29.5,4z M19.123,23h-8.247l-0.333-4h8.914L19.123,23z"/>
</g>
<g id="Desk_2">
</g>
<g id="Desk_3">
</g>
<g id="Lamp">
</g>
<g id="Bed_1">
</g>
<g id="Bunk_Beds">
</g>
<g id="Bed_2">
</g>
<g id="Bed_3">
</g>
<g id="Bed_4">
</g>
<g id="Bed_5">
</g>
<g id="Table_1">
</g>
<g id="Table_2">
</g>
<g id="Table_3">
</g>
<g id="Table_4">
</g>
<g id="Rug_1">
</g>
<g id="Rug_2">
</g>
<g id="Rug_3">
</g>
<g id="Tub_1">
</g>
<g id="Tub_2">
</g>
<g id="Jacuzzi">
</g>
<g id="Corner_Tub">
</g>
<g id="Shower_Tray">
</g>
<g id="Sink_1">
</g>
<g id="Sink_2">
</g>
<g id="Toilette">
</g>
<g id="Stove">
</g>
<g id="Kitchen_Sink">
</g>
<g id="Island">
</g>
<g id="Eat-in_Kitchen">
</g>
<g id="Tv_Stand">
</g>
</svg>
