<?xml version="1.0" encoding="iso-8859-1"?>
<!-- Generator: Adobe Illustrator 19.2.1, SVG Export Plug-In . SVG Version: 6.00 Build 0)  -->
<svg version="1.1" xmlns="http://www.w3.org/2000/svg" xmlns:xlink="http://www.w3.org/1999/xlink" x="0px" y="0px"
	 viewBox="0 0 30 30" style="enable-background:new 0 0 30 30;" xml:space="preserve">
<g id="Armchair_1">
</g>
<g id="Armchair_2">
</g>
<g id="Armchair_3">
</g>
<g id="Armchair_4">
</g>
<g id="Sofa_1">
</g>
<g id="Sofa_2">
</g>
<g id="Sofa_3">
</g>
<g id="Sofa_4">
</g>
<g id="Sofa_5">
</g>
<g id="Sofa_6">
</g>
<g id="Desk_1">
</g>
<g id="Desk_2">
</g>
<g id="Desk_3">
</g>
<g id="Lamp">
</g>
<g id="Bed_1">
</g>
<g id="Bunk_Beds">
</g>
<g id="Bed_2">
</g>
<g id="Bed_3">
</g>
<g id="Bed_4">
</g>
<g id="Bed_5">
</g>
<g id="Table_1">
</g>
<g id="Table_2">
</g>
<g id="Table_3">
</g>
<g id="Table_4">
</g>
<g id="Rug_1">
</g>
<g id="Rug_2">
</g>
<g id="Rug_3">
</g>
<g id="Tub_1">
</g>
<g id="Tub_2">
</g>
<g id="Jacuzzi">
</g>
<g id="Corner_Tub">
</g>
<g id="Shower_Tray">
</g>
<g id="Sink_1">
</g>
<g id="Sink_2">
</g>
<g id="Toilette">
</g>
<g id="Stove">
</g>
<g id="Kitchen_Sink">
</g>
<g id="Island">
	<g>
		<path d="M25.5,21h-7c-0.147,0-0.286,0.064-0.382,0.177c-0.095,0.112-0.136,0.26-0.111,0.405l0.504,3.02
			C18.8,25.991,19.847,27,21,27h2c1.153,0,2.2-1.009,2.493-2.418l0.5-3c0.024-0.145-0.017-0.293-0.111-0.405
			C25.786,21.064,25.647,21,25.5,21z"/>
		<path d="M11.5,21h-7c-0.147,0-0.286,0.064-0.382,0.177c-0.095,0.112-0.136,0.26-0.111,0.405l0.504,3.02C4.8,25.991,5.847,27,7,27
			h2c1.153,0,2.2-1.009,2.493-2.418l0.5-3c0.024-0.145-0.017-0.293-0.111-0.405C11.786,21.064,11.647,21,11.5,21z"/>
		<circle cx="15" cy="11" r="2"/>
		<circle cx="23" cy="11" r="2"/>
		<circle cx="7" cy="11" r="2"/>
		<path d="M29.5,2h-29C0.224,2,0,2.224,0,2.5v17C0,19.776,0.224,20,0.5,20h29c0.276,0,0.5-0.224,0.5-0.5v-17
			C30,2.224,29.776,2,29.5,2z M7,14c-1.654,0-3-1.346-3-3s1.346-3,3-3s3,1.346,3,3S8.654,14,7,14z M15,14c-1.654,0-3-1.346-3-3
			s1.346-3,3-3s3,1.346,3,3S16.654,14,15,14z M23,14c-1.654,0-3-1.346-3-3s1.346-3,3-3s3,1.346,3,3S24.654,14,23,14z"/>
	</g>
</g>
<g id="Eat-in_Kitchen">
</g>
<g id="Tv_Stand">
</g>
</svg>
