<?xml version="1.0" encoding="iso-8859-1"?>
<!-- Generator: Adobe Illustrator 19.2.1, SVG Export Plug-In . SVG Version: 6.00 Build 0)  -->
<svg version="1.1" xmlns="http://www.w3.org/2000/svg" xmlns:xlink="http://www.w3.org/1999/xlink" x="0px" y="0px"
	 viewBox="0 0 30 30" style="enable-background:new 0 0 30 30;" xml:space="preserve">
<g id="Armchair_1">
</g>
<g id="Armchair_2">
</g>
<g id="Armchair_3">
</g>
<g id="Armchair_4">
</g>
<g id="Sofa_1">
</g>
<g id="Sofa_2">
</g>
<g id="Sofa_3">
</g>
<g id="Sofa_4">
</g>
<g id="Sofa_5">
</g>
<g id="Sofa_6">
</g>
<g id="Desk_1">
</g>
<g id="Desk_2">
</g>
<g id="Desk_3">
</g>
<g id="Lamp">
</g>
<g id="Bed_1">
</g>
<g id="Bunk_Beds">
</g>
<g id="Bed_2">
</g>
<g id="Bed_3">
</g>
<g id="Bed_4">
</g>
<g id="Bed_5">
</g>
<g id="Table_1">
</g>
<g id="Table_2">
</g>
<g id="Table_3">
</g>
<g id="Table_4">
</g>
<g id="Rug_1">
	<g>
		<polygon points="10.08,15 14.5,22.514 18.92,15 14.5,7.486 		"/>
		<path d="M23.5,0C23.224,0,23,0.224,23,0.5V2h-2V0.5C21,0.224,20.776,0,20.5,0S20,0.224,20,0.5V2h-2V0.5C18,0.224,17.776,0,17.5,0
			S17,0.224,17,0.5V2h-2V0.5C15,0.224,14.776,0,14.5,0S14,0.224,14,0.5V2h-2V0.5C12,0.224,11.776,0,11.5,0S11,0.224,11,0.5V2H9V0.5
			C9,0.224,8.776,0,8.5,0S8,0.224,8,0.5V2H6V0.5C6,0.224,5.776,0,5.5,0S5,0.224,5,0.5v2v0.75v23.5v0.75v2C5,29.776,5.224,30,5.5,30
			S6,29.776,6,29.5V28h2v1.5C8,29.776,8.224,30,8.5,30S9,29.776,9,29.5V28h2v1.5c0,0.276,0.224,0.5,0.5,0.5s0.5-0.224,0.5-0.5V28h2
			v1.5c0,0.276,0.224,0.5,0.5,0.5s0.5-0.224,0.5-0.5V28h2v1.5c0,0.276,0.224,0.5,0.5,0.5s0.5-0.224,0.5-0.5V28h2v1.5
			c0,0.276,0.224,0.5,0.5,0.5s0.5-0.224,0.5-0.5V28h2v1.5c0,0.276,0.224,0.5,0.5,0.5s0.5-0.224,0.5-0.5v-2v-0.75V3.25V2.5v-2
			C24,0.224,23.776,0,23.5,0z M14.931,23.753C14.841,23.906,14.677,24,14.5,24s-0.341-0.094-0.431-0.247l-5-8.5
			c-0.093-0.156-0.093-0.351,0-0.507l5-8.5c0.18-0.306,0.682-0.306,0.861,0l5,8.5c0.093,0.156,0.093,0.351,0,0.507L14.931,23.753z"
			/>
	</g>
</g>
<g id="Rug_2">
</g>
<g id="Rug_3">
</g>
<g id="Tub_1">
</g>
<g id="Tub_2">
</g>
<g id="Jacuzzi">
</g>
<g id="Corner_Tub">
</g>
<g id="Shower_Tray">
</g>
<g id="Sink_1">
</g>
<g id="Sink_2">
</g>
<g id="Toilette">
</g>
<g id="Stove">
</g>
<g id="Kitchen_Sink">
</g>
<g id="Island">
</g>
<g id="Eat-in_Kitchen">
</g>
<g id="Tv_Stand">
</g>
</svg>
