<?xml version="1.0" encoding="iso-8859-1"?>
<!-- Generator: Adobe Illustrator 19.2.1, SVG Export Plug-In . SVG Version: 6.00 Build 0)  -->
<svg version="1.1" xmlns="http://www.w3.org/2000/svg" xmlns:xlink="http://www.w3.org/1999/xlink" x="0px" y="0px"
	 viewBox="0 0 30 30" style="enable-background:new 0 0 30 30;" xml:space="preserve">
<g id="Armchair_1">
</g>
<g id="Armchair_2">
</g>
<g id="Armchair_3">
</g>
<g id="Armchair_4">
</g>
<g id="Sofa_1">
</g>
<g id="Sofa_2">
</g>
<g id="Sofa_3">
</g>
<g id="Sofa_4">
</g>
<g id="Sofa_5">
</g>
<g id="Sofa_6">
</g>
<g id="Desk_1">
</g>
<g id="Desk_2">
</g>
<g id="Desk_3">
</g>
<g id="Lamp">
</g>
<g id="Bed_1">
</g>
<g id="Bunk_Beds">
</g>
<g id="Bed_2">
</g>
<g id="Bed_3">
</g>
<g id="Bed_4">
</g>
<g id="Bed_5">
</g>
<g id="Table_1">
</g>
<g id="Table_2">
</g>
<g id="Table_3">
</g>
<g id="Table_4">
</g>
<g id="Rug_1">
</g>
<g id="Rug_2">
</g>
<g id="Rug_3">
</g>
<g id="Tub_1">
</g>
<g id="Tub_2">
</g>
<g id="Jacuzzi">
</g>
<g id="Corner_Tub">
</g>
<g id="Shower_Tray">
</g>
<g id="Sink_1">
</g>
<g id="Sink_2">
	<g>
		<path d="M12.016,6.001l2.48-0.001C14.498,6.001,14.499,6,14.5,6s0.002,0.001,0.004,0.001L17,6c0.316-0.087,1-1.434,1-2h-7
			C11,4.566,11.684,5.913,12.016,6.001z"/>
		<path d="M28.5,4H19c0,0.583-0.541,2.149-1.36,2.749C17.856,6.932,18,7.196,18,7.5c0,0.551-0.449,1-1,1s-1-0.449-1-1
			c0-0.186,0.065-0.351,0.154-0.5H15v4.5c0,0.276-0.224,0.5-0.5,0.5S14,11.776,14,11.5V7h-1.154C12.935,7.149,13,7.314,13,7.5
			c0,0.551-0.449,1-1,1s-1-0.449-1-1c0-0.3,0.139-0.561,0.349-0.744c-0.53-0.393-0.943-1.193-1.166-1.868
			C10.072,4.795,10,4.656,10,4.5V4H0.5C0.224,4,0,4.224,0,4.5v21C0,25.776,0.224,26,0.5,26h28c0.276,0,0.5-0.224,0.5-0.5v-21
			C29,4.224,28.776,4,28.5,4z M26,21c0,0.972-1.028,2-2,2H5c-0.972,0-2-1.028-2-2V10.75C3,9.785,3.785,9,4.75,9H9.5
			C9.776,9,10,9.224,10,9.5S9.776,10,9.5,10H4.75C4.336,10,4,10.336,4,10.75V21c0,0.411,0.589,1,1,1h19c0.411,0,1-0.589,1-1V10.75
			c0-0.414-0.336-0.75-0.75-0.75H19.5C19.224,10,19,9.776,19,9.5S19.224,9,19.5,9h4.75C25.215,9,26,9.785,26,10.75V21z"/>
	</g>
</g>
<g id="Toilette">
</g>
<g id="Stove">
</g>
<g id="Kitchen_Sink">
</g>
<g id="Island">
</g>
<g id="Eat-in_Kitchen">
</g>
<g id="Tv_Stand">
</g>
</svg>
