<?xml version="1.0" encoding="iso-8859-1"?>
<!-- Generator: Adobe Illustrator 19.2.1, SVG Export Plug-In . SVG Version: 6.00 Build 0)  -->
<svg version="1.1" xmlns="http://www.w3.org/2000/svg" xmlns:xlink="http://www.w3.org/1999/xlink" x="0px" y="0px"
	 viewBox="0 0 30 30" style="enable-background:new 0 0 30 30;" xml:space="preserve">
<g id="Armchair_1">
</g>
<g id="Armchair_2">
</g>
<g id="Armchair_3">
</g>
<g id="Armchair_4">
</g>
<g id="Sofa_1">
</g>
<g id="Sofa_2">
</g>
<g id="Sofa_3">
</g>
<g id="Sofa_4">
</g>
<g id="Sofa_5">
</g>
<g id="Sofa_6">
</g>
<g id="Desk_1">
</g>
<g id="Desk_2">
</g>
<g id="Desk_3">
</g>
<g id="Lamp">
</g>
<g id="Bed_1">
</g>
<g id="Bunk_Beds">
</g>
<g id="Bed_2">
</g>
<g id="Bed_3">
</g>
<g id="Bed_4">
</g>
<g id="Bed_5">
</g>
<g id="Table_1">
</g>
<g id="Table_2">
</g>
<g id="Table_3">
</g>
<g id="Table_4">
</g>
<g id="Rug_1">
</g>
<g id="Rug_2">
</g>
<g id="Rug_3">
</g>
<g id="Tub_1">
</g>
<g id="Tub_2">
</g>
<g id="Jacuzzi">
</g>
<g id="Corner_Tub">
</g>
<g id="Shower_Tray">
</g>
<g id="Sink_1">
	<g>
		<path d="M27.5,3H19v2.25c0,0.777-0.513,1.43-1.216,1.658C17.911,7.076,18,7.274,18,7.5c0,0.551-0.449,1-1,1s-1-0.449-1-1
			c0-0.186,0.065-0.351,0.154-0.5H15v5.5c0,0.276-0.224,0.5-0.5,0.5S14,12.776,14,12.5V7h-1.154C12.935,7.149,13,7.314,13,7.5
			c0,0.551-0.449,1-1,1s-1-0.449-1-1c0-0.226,0.089-0.424,0.216-0.592C10.513,6.68,10,6.027,10,5.25V3H1.5C0.589,3,0,3.687,0,4.75v8
			c0,7.05,4.799,13.04,11.411,14.242c0.849,0.155,1.844,0.232,2.839,0.232s1.99-0.077,2.839-0.232C23.879,25.757,29,19.634,29,12.75
			v-8C29,3.687,28.411,3,27.5,3z M18.139,23.98c-1.056,0.305-2.333,0.458-3.617,0.458c-1.282,0-2.572-0.152-3.657-0.457
			C5.461,22.463,3,16.522,3,11.645V11.51C3,9.575,4.575,8,6.511,8H9.5C9.776,8,10,8.224,10,8.5S9.776,9,9.5,9H6.511
			C5.126,9,4,10.126,4,11.51v0.134c0,4.512,2.233,9.997,7.135,11.374c2.01,0.565,4.775,0.566,6.726,0.001
			C22.766,21.602,25,16.119,25,11.625C25,10.134,23.874,9,22.489,9H19.5C19.224,9,19,8.776,19,8.5S19.224,8,19.5,8h2.989
			C24.425,8,26,9.583,26,11.528C26,16.481,23.54,22.418,18.139,23.98z"/>
		<path d="M18,3h-7v2.25C11,5.664,11.336,6,11.75,6h5.5C17.664,6,18,5.664,18,5.25V3z"/>
	</g>
</g>
<g id="Sink_2">
</g>
<g id="Toilette">
</g>
<g id="Stove">
</g>
<g id="Kitchen_Sink">
</g>
<g id="Island">
</g>
<g id="Eat-in_Kitchen">
</g>
<g id="Tv_Stand">
</g>
</svg>
