<?xml version="1.0" encoding="iso-8859-1"?>
<!-- Generator: Adobe Illustrator 19.2.1, SVG Export Plug-In . SVG Version: 6.00 Build 0)  -->
<svg version="1.1" xmlns="http://www.w3.org/2000/svg" xmlns:xlink="http://www.w3.org/1999/xlink" x="0px" y="0px"
	 viewBox="0 0 30 30" style="enable-background:new 0 0 30 30;" xml:space="preserve">
<g id="Armchair_1">
</g>
<g id="Armchair_2">
</g>
<g id="Armchair_3">
</g>
<g id="Armchair_4">
</g>
<g id="Sofa_1">
</g>
<g id="Sofa_2">
</g>
<g id="Sofa_3">
</g>
<g id="Sofa_4">
	<g id="XMLID_518_">
		<path d="M28.5,4.5H12C5.383,4.5,0,9.659,0,16v7.75c0,1.063,0.589,1.75,1.5,1.75h2c0.911,0,1.5-0.687,1.5-1.75V16
			c0-3.706,3.01-6.5,7-6.5h16.5C29.468,9.5,30,8.967,30,8V6C30,5.033,29.468,4.5,28.5,4.5z"/>
		<path d="M28.5,10.5H12c-3.421,0-6,2.364-6,5.5v7.75c0,0.692-0.197,1.286-0.527,1.75H10.5c0.968,0,1.5-0.533,1.5-1.5v-5.5
			c0-1.103,0.897-2,2-2h14.5c0.968,0,1.5-0.533,1.5-1.5v-4.924C29.598,10.347,29.091,10.5,28.5,10.5z"/>
	</g>
</g>
<g id="Sofa_5">
</g>
<g id="Sofa_6">
</g>
<g id="Desk_1">
</g>
<g id="Desk_2">
</g>
<g id="Desk_3">
</g>
<g id="Lamp">
</g>
<g id="Bed_1">
</g>
<g id="Bunk_Beds">
</g>
<g id="Bed_2">
</g>
<g id="Bed_3">
</g>
<g id="Bed_4">
</g>
<g id="Bed_5">
</g>
<g id="Table_1">
</g>
<g id="Table_2">
</g>
<g id="Table_3">
</g>
<g id="Table_4">
</g>
<g id="Rug_1">
</g>
<g id="Rug_2">
</g>
<g id="Rug_3">
</g>
<g id="Tub_1">
</g>
<g id="Tub_2">
</g>
<g id="Jacuzzi">
</g>
<g id="Corner_Tub">
</g>
<g id="Shower_Tray">
</g>
<g id="Sink_1">
</g>
<g id="Sink_2">
</g>
<g id="Toilette">
</g>
<g id="Stove">
</g>
<g id="Kitchen_Sink">
</g>
<g id="Island">
</g>
<g id="Eat-in_Kitchen">
</g>
<g id="Tv_Stand">
</g>
</svg>
