<?xml version="1.0" encoding="iso-8859-1"?>
<!-- Generator: Adobe Illustrator 19.2.1, SVG Export Plug-In . SVG Version: 6.00 Build 0)  -->
<svg version="1.1" xmlns="http://www.w3.org/2000/svg" xmlns:xlink="http://www.w3.org/1999/xlink" x="0px" y="0px"
	 viewBox="0 0 30 30" style="enable-background:new 0 0 30 30;" xml:space="preserve">
<g id="Armchair_1">
</g>
<g id="Armchair_2">
</g>
<g id="Armchair_3">
</g>
<g id="Armchair_4">
</g>
<g id="Sofa_1">
	<g id="XMLID_73_">
		<path d="M27.5,7h-26C0.673,7,0,7.673,0,8.5v3C0,12.327,0.673,13,1.5,13h26c0.827,0,1.5-0.673,1.5-1.5v-3C29,7.673,28.327,7,27.5,7
			z"/>
		<g>
			<path d="M14,14H6v7.25c0,0.262-0.048,0.51-0.117,0.75H13c0.404,0,0.729-0.127,1-0.311V14z"/>
			<path d="M23,21.25V14h-8v7.692C15.271,21.874,15.596,22,16,22h7.117C23.048,21.76,23,21.512,23,21.25z"/>
		</g>
		<path d="M1.5,14c-0.565,0-1.081-0.195-1.5-0.513v7.763C0,22.215,0.785,23,1.75,23h1.5C4.215,23,5,22.215,5,21.25V14H1.5z"/>
		<path d="M27.5,14H24v7.25c0,0.965,0.785,1.75,1.75,1.75h1.5c0.965,0,1.75-0.785,1.75-1.75v-7.763C28.581,13.805,28.065,14,27.5,14
			z"/>
	</g>
</g>
<g id="Sofa_2">
</g>
<g id="Sofa_3">
</g>
<g id="Sofa_4">
</g>
<g id="Sofa_5">
</g>
<g id="Sofa_6">
</g>
<g id="Desk_1">
</g>
<g id="Desk_2">
</g>
<g id="Desk_3">
</g>
<g id="Lamp">
</g>
<g id="Bed_1">
</g>
<g id="Bunk_Beds">
</g>
<g id="Bed_2">
</g>
<g id="Bed_3">
</g>
<g id="Bed_4">
</g>
<g id="Bed_5">
</g>
<g id="Table_1">
</g>
<g id="Table_2">
</g>
<g id="Table_3">
</g>
<g id="Table_4">
</g>
<g id="Rug_1">
</g>
<g id="Rug_2">
</g>
<g id="Rug_3">
</g>
<g id="Tub_1">
</g>
<g id="Tub_2">
</g>
<g id="Jacuzzi">
</g>
<g id="Corner_Tub">
</g>
<g id="Shower_Tray">
</g>
<g id="Sink_1">
</g>
<g id="Sink_2">
</g>
<g id="Toilette">
</g>
<g id="Stove">
</g>
<g id="Kitchen_Sink">
</g>
<g id="Island">
</g>
<g id="Eat-in_Kitchen">
</g>
<g id="Tv_Stand">
</g>
</svg>
