<?xml version="1.0" encoding="iso-8859-1"?>
<!-- Generator: Adobe Illustrator 19.2.1, SVG Export Plug-In . SVG Version: 6.00 Build 0)  -->
<svg version="1.1" xmlns="http://www.w3.org/2000/svg" xmlns:xlink="http://www.w3.org/1999/xlink" x="0px" y="0px"
	 viewBox="0 0 30 30" style="enable-background:new 0 0 30 30;" xml:space="preserve">
<g id="Armchair_1">
</g>
<g id="Armchair_2">
</g>
<g id="Armchair_3">
</g>
<g id="Armchair_4">
</g>
<g id="Sofa_1">
</g>
<g id="Sofa_2">
</g>
<g id="Sofa_3">
</g>
<g id="Sofa_4">
</g>
<g id="Sofa_5">
</g>
<g id="Sofa_6">
</g>
<g id="Desk_1">
</g>
<g id="Desk_2">
</g>
<g id="Desk_3">
</g>
<g id="Lamp">
</g>
<g id="Bed_1">
</g>
<g id="Bunk_Beds">
</g>
<g id="Bed_2">
</g>
<g id="Bed_3">
</g>
<g id="Bed_4">
</g>
<g id="Bed_5">
</g>
<g id="Table_1">
</g>
<g id="Table_2">
</g>
<g id="Table_3">
	<g>
		<path d="M19.576,5.126l0.79-0.615c0.017,0.025,0.027,0.052,0.049,0.074l5.31,5.31l-0.373,0.559
			c-0.153,0.23-0.091,0.54,0.139,0.693c0.085,0.057,0.182,0.084,0.277,0.084c0.162,0,0.32-0.078,0.417-0.223l3.002-4.503
			c0.012-0.018,0.02-0.037,0.032-0.055C29.385,6.368,29.5,6.198,29.5,6V5.956c0.776-1.525,0.653-3.049-0.377-4.079l-1-1
			c-1.153-1.154-2.926-1.179-4.661-0.041l-4.5,3.5c-0.218,0.169-0.257,0.483-0.087,0.702S19.358,5.297,19.576,5.126z M21.148,3.903
			l2.745-2.136c0.318,0.096,1.163,0.458,2.523,1.818c1.41,1.41,1.746,2.258,1.825,2.537l-1.95,2.924L21.148,3.903z"/>
		<path d="M29.5,24c0-0.198-0.115-0.368-0.281-0.45c-0.013-0.02-0.021-0.039-0.033-0.059l-3-4.5
			c-0.153-0.23-0.463-0.292-0.693-0.139s-0.292,0.463-0.139,0.693l0.373,0.559l-5.31,5.31c-0.022,0.022-0.032,0.049-0.049,0.074
			l-0.79-0.615c-0.218-0.17-0.532-0.129-0.702,0.087c-0.17,0.218-0.13,0.532,0.087,0.702l4.493,3.493
			c0.005,0.004,0.009,0.007,0.014,0.011l0.027,0.021c0.833,0.546,1.684,0.818,2.471,0.818c0.818,0,1.568-0.295,2.156-0.883l1-1
			c1.03-1.029,1.154-2.552,0.377-4.078V24z M26.291,20.954l1.948,2.922c-0.084,0.298-0.428,1.144-1.824,2.54
			c-1.37,1.369-2.215,1.727-2.519,1.819l-2.748-2.138L26.291,20.954z"/>
		<path d="M0.5,6c0,0.198,0.115,0.368,0.281,0.45c0.013,0.02,0.021,0.039,0.033,0.059l3,4.5c0.096,0.145,0.255,0.223,0.417,0.223
			c0.095,0,0.191-0.027,0.277-0.084c0.23-0.153,0.292-0.463,0.139-0.693L4.274,9.895l5.31-5.31c0.022-0.022,0.032-0.049,0.049-0.074
			l0.79,0.615c0.219,0.171,0.533,0.131,0.702-0.087c0.17-0.218,0.13-0.532-0.087-0.702L6.545,0.844
			C6.541,0.84,6.536,0.837,6.531,0.833L6.505,0.813c-1.7-1.114-3.473-1.089-4.627,0.065l-1,1C-0.152,2.907-0.276,4.429,0.5,5.956V6z
			 M3.709,9.046L1.761,6.124c0.084-0.298,0.428-1.144,1.824-2.54C4.954,2.215,5.8,1.858,6.104,1.765l2.748,2.138L3.709,9.046z"/>
		<path d="M10.424,24.875l-0.79,0.615c-0.017-0.025-0.027-0.052-0.049-0.074l-5.31-5.31l0.373-0.559
			c0.153-0.23,0.091-0.54-0.139-0.693c-0.23-0.153-0.541-0.092-0.693,0.139l-3.002,4.503c-0.012,0.018-0.02,0.037-0.032,0.055
			C0.615,23.632,0.5,23.802,0.5,24v0.044c-0.776,1.525-0.653,3.049,0.377,4.079l1,1c0.585,0.585,1.33,0.88,2.148,0.88
			c0.794,0,1.658-0.278,2.513-0.839l4.5-3.5c0.218-0.169,0.257-0.483,0.087-0.702C10.957,24.745,10.643,24.705,10.424,24.875z
			 M8.852,26.097l-2.745,2.136c-0.318-0.096-1.163-0.458-2.523-1.818c-1.41-1.41-1.746-2.258-1.825-2.537l1.95-2.924L8.852,26.097z"
			/>
		<path d="M24,15c0-4.962-4.038-9-9-9s-9,4.038-9,9s4.038,9,9,9S24,19.962,24,15z"/>
	</g>
</g>
<g id="Table_4">
</g>
<g id="Rug_1">
</g>
<g id="Rug_2">
</g>
<g id="Rug_3">
</g>
<g id="Tub_1">
</g>
<g id="Tub_2">
</g>
<g id="Jacuzzi">
</g>
<g id="Corner_Tub">
</g>
<g id="Shower_Tray">
</g>
<g id="Sink_1">
</g>
<g id="Sink_2">
</g>
<g id="Toilette">
</g>
<g id="Stove">
</g>
<g id="Kitchen_Sink">
</g>
<g id="Island">
</g>
<g id="Eat-in_Kitchen">
</g>
<g id="Tv_Stand">
</g>
</svg>
