<?xml version="1.0" encoding="iso-8859-1"?>
<!-- Generator: Adobe Illustrator 19.2.1, SVG Export Plug-In . SVG Version: 6.00 Build 0)  -->
<svg version="1.1" xmlns="http://www.w3.org/2000/svg" xmlns:xlink="http://www.w3.org/1999/xlink" x="0px" y="0px"
	 viewBox="0 0 30 30" style="enable-background:new 0 0 30 30;" xml:space="preserve">
<g id="Armchair_1">
</g>
<g id="Armchair_2">
</g>
<g id="Armchair_3">
</g>
<g id="Armchair_4">
</g>
<g id="Sofa_1">
</g>
<g id="Sofa_2">
</g>
<g id="Sofa_3">
</g>
<g id="Sofa_4">
</g>
<g id="Sofa_5">
</g>
<g id="Sofa_6">
</g>
<g id="Desk_1">
</g>
<g id="Desk_2">
</g>
<g id="Desk_3">
</g>
<g id="Lamp">
</g>
<g id="Bed_1">
</g>
<g id="Bunk_Beds">
</g>
<g id="Bed_2">
</g>
<g id="Bed_3">
</g>
<g id="Bed_4">
</g>
<g id="Bed_5">
</g>
<g id="Table_1">
	<g id="XMLID_160_">
		<path d="M24.5,8h-19C5.224,8,5,8.224,5,8.5v12C5,20.776,5.224,21,5.5,21h19c0.276,0,0.5-0.224,0.5-0.5v-12
			C25,8.224,24.776,8,24.5,8z"/>
		<path d="M15.243,22l0.267,1.602C15.8,24.992,16.847,26,18,26h1c1.153,0,2.2-1.008,2.493-2.418L21.757,22H15.243z"/>
		<path d="M8.243,22l0.267,1.602C8.8,24.992,9.847,26,11,26h1c1.153,0,2.2-1.008,2.493-2.418L14.757,22H8.243z"/>
		<path d="M4,11.243l-1.602,0.267C1.008,11.8,0,12.847,0,14v1c0,1.153,1.008,2.2,2.418,2.493L4,17.757V11.243z"/>
		<path d="M14.757,7l-0.267-1.602C14.2,4.008,13.153,3,12,3h-1C9.847,3,8.8,4.008,8.507,5.418L8.243,7H14.757z"/>
		<path d="M21.757,7l-0.267-1.602C21.2,4.008,20.153,3,19,3h-1c-1.153,0-2.2,1.008-2.493,2.418L15.243,7H21.757z"/>
		<path d="M27.582,11.507L26,11.243v6.513l1.602-0.267C28.992,17.2,30,16.153,30,15v-1C30,12.847,28.992,11.8,27.582,11.507z"/>
	</g>
</g>
<g id="Table_2">
</g>
<g id="Table_3">
</g>
<g id="Table_4">
</g>
<g id="Rug_1">
</g>
<g id="Rug_2">
</g>
<g id="Rug_3">
</g>
<g id="Tub_1">
</g>
<g id="Tub_2">
</g>
<g id="Jacuzzi">
</g>
<g id="Corner_Tub">
</g>
<g id="Shower_Tray">
</g>
<g id="Sink_1">
</g>
<g id="Sink_2">
</g>
<g id="Toilette">
</g>
<g id="Stove">
</g>
<g id="Kitchen_Sink">
</g>
<g id="Island">
</g>
<g id="Eat-in_Kitchen">
</g>
<g id="Tv_Stand">
</g>
</svg>
