<?xml version="1.0" encoding="iso-8859-1"?>
<!-- Generator: Adobe Illustrator 19.2.1, SVG Export Plug-In . SVG Version: 6.00 Build 0)  -->
<svg version="1.1" xmlns="http://www.w3.org/2000/svg" xmlns:xlink="http://www.w3.org/1999/xlink" x="0px" y="0px"
	 viewBox="0 0 30 30" style="enable-background:new 0 0 30 30;" xml:space="preserve">
<g id="Armchair_1">
</g>
<g id="Armchair_2">
</g>
<g id="Armchair_3">
</g>
<g id="Armchair_4">
</g>
<g id="Sofa_1">
</g>
<g id="Sofa_2">
</g>
<g id="Sofa_3">
</g>
<g id="Sofa_4">
</g>
<g id="Sofa_5">
</g>
<g id="Sofa_6">
</g>
<g id="Desk_1">
</g>
<g id="Desk_2">
</g>
<g id="Desk_3">
</g>
<g id="Lamp">
</g>
<g id="Bed_1">
</g>
<g id="Bunk_Beds">
</g>
<g id="Bed_2">
</g>
<g id="Bed_3">
</g>
<g id="Bed_4">
</g>
<g id="Bed_5">
</g>
<g id="Table_1">
</g>
<g id="Table_2">
</g>
<g id="Table_3">
</g>
<g id="Table_4">
</g>
<g id="Rug_1">
</g>
<g id="Rug_2">
</g>
<g id="Rug_3">
</g>
<g id="Tub_1">
</g>
<g id="Tub_2">
</g>
<g id="Jacuzzi">
</g>
<g id="Corner_Tub">
</g>
<g id="Shower_Tray">
</g>
<g id="Sink_1">
</g>
<g id="Sink_2">
</g>
<g id="Toilette">
	<path d="M26.5,0h-23C2.673,0,2,0.673,2,1.5v6C2,8.327,2.673,9,3.5,9h23C27.327,9,28,8.327,28,7.5v-6C28,0.673,27.327,0,26.5,0z"/>
	<g>
		<path d="M15,27c3.859,0,7-3.589,7-8s-3.141-8-7-8s-7,3.589-7,8S11.141,27,15,27z M12,22.5c0-0.276,0.224-0.5,0.5-0.5h5
			c0.276,0,0.5,0.224,0.5,0.5V23c0,1.318-1.683,3-3,3s-3-1.682-3-3V22.5z"/>
		<path d="M23.138,10H15c4.411,0,8,4.038,8,9s-3.589,9-8,9s-8-4.038-8-9s3.589-9,8-9H6.862c-1.215,2.082-1.816,4.372-1.816,6.947
			C5.046,24.022,9.604,30,15,30s9.954-5.978,9.954-13.053C24.954,14.372,24.353,12.082,23.138,10z"/>
		<path d="M15,25c0.767,0,2-1.233,2-2h-4C13,23.767,14.233,25,15,25z"/>
	</g>
</g>
<g id="Stove">
</g>
<g id="Kitchen_Sink">
</g>
<g id="Island">
</g>
<g id="Eat-in_Kitchen">
</g>
<g id="Tv_Stand">
</g>
</svg>
