<?xml version="1.0" encoding="iso-8859-1"?>
<!-- Generator: Adobe Illustrator 19.2.1, SVG Export Plug-In . SVG Version: 6.00 Build 0)  -->
<svg version="1.1" xmlns="http://www.w3.org/2000/svg" xmlns:xlink="http://www.w3.org/1999/xlink" x="0px" y="0px"
	 viewBox="0 0 30 30" style="enable-background:new 0 0 30 30;" xml:space="preserve">
<g id="Pompkin">
</g>
<g id="Layer_10">
</g>
<g id="Bat">
</g>
<g id="Ghost">
</g>
<g id="Bone_Hand">
</g>
<g id="Tree_Ghost">
</g>
<g id="Gate">
</g>
<g id="Cemetery_1">
</g>
<g id="Cemetery_2">
	<g>
		<path d="M0.749,7.134c0.059,0,0.119-0.01,0.178-0.033L1.694,6.81c0.317,0.546,0.788,0.983,1.375,1.247
			c0.399,0.179,0.823,0.269,1.247,0.269c0.273,0,0.544-0.05,0.811-0.124l1.761,4.285c-1.738,0.243-3.07,1.488-3.07,2.994
			c0,0.276,0.224,0.5,0.5,0.5s0.5-0.224,0.5-0.5c0-1.072,1.09-1.944,2.467-2.029l0.389,0.946c0.08,0.193,0.266,0.31,0.462,0.31
			c0.063,0,0.128-0.012,0.19-0.038c0.255-0.105,0.377-0.397,0.272-0.652l-0.186-0.453c1.029,0.286,1.769,1.033,1.769,1.915
			c0,0.276,0.224,0.5,0.5,0.5s0.5-0.224,0.5-0.5c0-1.548-1.408-2.815-3.218-3.007L6.036,7.783c0.457-0.312,0.827-0.738,1.06-1.255
			C7.36,5.94,7.422,5.301,7.297,4.682l0.768-0.292c0.258-0.098,0.388-0.387,0.29-0.645C8.257,3.487,7.969,3.358,7.71,3.456
			L6.94,3.748C6.297,2.646,5.03,2.059,3.777,2.286L2.973,0.33C2.869,0.074,2.575-0.046,2.321,0.057
			C2.065,0.162,1.943,0.454,2.048,0.709l0.79,1.922c-1.15,0.643-1.755,1.956-1.497,3.243l-0.77,0.292
			c-0.258,0.098-0.388,0.387-0.29,0.645C0.357,7.012,0.547,7.134,0.749,7.134z M3.479,7.145C3.138,6.991,2.857,6.747,2.648,6.448
			L4.169,5.87l0.576,1.402C4.322,7.365,3.883,7.326,3.479,7.145z M6.184,6.117c-0.126,0.28-0.313,0.517-0.54,0.711l-0.54-1.313
			l1.239-0.471C6.386,5.407,6.337,5.776,6.184,6.117z M4.316,3.233c0.66,0,1.279,0.333,1.664,0.88L4.724,4.59L4.172,3.246
			C4.22,3.242,4.268,3.233,4.316,3.233z M3.218,3.555l0.571,1.39L2.293,5.513C2.205,4.741,2.559,3.975,3.218,3.555z"/>
		<path d="M18.339,25.206l0.667-2.21l1.959,0.592c0.047,0.015,0.096,0.021,0.145,0.021c0.082,0,0.163-0.021,0.236-0.06
			c0.117-0.063,0.204-0.169,0.242-0.296l1.104-3.655c0.08-0.265-0.069-0.543-0.334-0.623l-1.958-0.591l1.183-3.916l4.395,1.328
			c0.265,0.082,0.543-0.069,0.623-0.334l1.104-3.655c0.038-0.127,0.024-0.264-0.038-0.381c-0.063-0.117-0.169-0.204-0.296-0.242
			l-4.396-1.328l0.96-3.176c0.038-0.127,0.024-0.264-0.038-0.381c-0.063-0.117-0.169-0.204-0.296-0.242l-3.655-1.104
			c-0.126-0.04-0.264-0.024-0.381,0.038c-0.117,0.063-0.204,0.169-0.242,0.296l-0.959,3.177L13.97,7.135
			c-0.264-0.08-0.543,0.07-0.623,0.334l-1.104,3.655c-0.039,0.127-0.025,0.264,0.038,0.381c0.063,0.117,0.169,0.204,0.296,0.242
			l4.395,1.328l-1.183,3.916l-1.958-0.591c-0.127-0.04-0.265-0.024-0.381,0.038c-0.117,0.063-0.204,0.169-0.242,0.296l-1.104,3.655
			c-0.08,0.265,0.07,0.543,0.334,0.623l1.958,0.591l-1.08,3.576c-1.735,0.039-3.502,0.174-5.162,0.4
			c0.171-0.294,0.337-0.627,0.463-1.046c0.079-0.265-0.071-0.543-0.335-0.622c-0.267-0.082-0.543,0.07-0.623,0.335
			c-0.157,0.522-0.401,0.9-0.637,1.265c-0.033,0.052-0.067,0.104-0.1,0.157c-0.228-0.598-0.54-1.085-0.937-1.587
			c-0.17-0.216-0.486-0.253-0.702-0.083c-0.217,0.171-0.254,0.485-0.083,0.702c0.318,0.403,0.566,0.789,0.753,1.25
			C2.534,26.648,0,27.817,0,29.48c0,0.276,0.224,0.5,0.5,0.5S1,29.757,1,29.48c0-0.892,1.975-1.893,5.228-2.559
			c0.031,0.168,0.057,0.348,0.078,0.541c-0.007,0.25,0.01,0.523,0.066,0.835c0.005,0.025,0.018,0.045,0.025,0.068
			c0.008,0.025,0.015,0.05,0.027,0.073c0.016,0.031,0.038,0.058,0.06,0.085c0.016,0.02,0.03,0.04,0.049,0.057
			c0.028,0.025,0.06,0.042,0.093,0.06c0.02,0.011,0.037,0.025,0.058,0.034c0.056,0.022,0.116,0.035,0.179,0.035
			c0.007,0,0.014,0,0.021,0c0.004,0,0.007-0.003,0.012-0.003c0.019-0.001,0.038-0.002,0.057-0.005
			c0.022-0.004,0.039-0.017,0.06-0.024c0.032-0.01,0.064-0.02,0.093-0.037c0.029-0.016,0.053-0.036,0.077-0.057
			c0.024-0.021,0.047-0.04,0.067-0.065c0.02-0.025,0.035-0.053,0.05-0.082c0.015-0.028,0.028-0.055,0.038-0.086
			c0.01-0.032,0.013-0.065,0.016-0.099c0.002-0.022,0.011-0.041,0.01-0.063c-0.011-0.275-0.03-0.529-0.055-0.767
			c0.017-0.281,0.091-0.51,0.192-0.728c1.613-0.261,3.47-0.441,5.508-0.501l-0.373,1.236c-0.021,0.069-0.025,0.138-0.017,0.205
			c0.002,0.017,0.011,0.032,0.015,0.048c0.011,0.05,0.025,0.098,0.051,0.141c0.003,0.004,0.002,0.01,0.005,0.014
			c0.011,0.017,0.029,0.028,0.042,0.043c0.026,0.033,0.053,0.065,0.087,0.09c0.025,0.018,0.052,0.029,0.08,0.043
			c0.024,0.012,0.044,0.03,0.072,0.038c0.011,0.003,0.022,0.001,0.033,0.003c0.01,0.002,0.019,0.01,0.029,0.012l3.796,0.636
			c0.028,0.005,0.056,0.007,0.083,0.007c0.108,0,0.211-0.035,0.296-0.097c0.085-0.062,0.151-0.151,0.183-0.258l0.653-2.164
			C24.28,26.59,28,28.159,28,29.48c0,0.276,0.224,0.5,0.5,0.5s0.5-0.224,0.5-0.5C29,27.026,23.745,25.588,18.339,25.206z"/>
	</g>
</g>
<g id="Devil_x27_s_Fork">
</g>
<g id="Night_Candle">
</g>
<g id="Canlestick">
</g>
<g id="Black_Cat">
</g>
<g id="Witch_Cauldron">
</g>
<g id="Corn_Candy">
</g>
<g id="Layer_29">
</g>
<g id="Bones">
</g>
<g id="Witch_Broom">
</g>
<g id="Owl">
</g>
<g id="Scythe">
</g>
<g id="Grim_Reaper">
</g>
<g id="Coffin">
</g>
<g id="Dracula">
</g>
<g id="Frankenstein">
</g>
<g id="Layer_40">
</g>
<g id="Toilet_Paper">
</g>
<g id="Skull">
</g>
<g id="Skull_Cake">
</g>
<g id="Eyeball">
</g>
<g id="Castle">
</g>
<g id="Witch_x27_s_Hat">
</g>
<g id="Cobweb_1">
</g>
<g id="Cobweb_2">
</g>
<g id="Spider">
</g>
<g id="Full_Moon">
</g>
<g id="Crescent">
</g>
<g id="Crow">
</g>
<g id="Candy_Holder">
</g>
<g id="Bloody_Knife">
</g>
<g id="Bloody_Axe">
</g>
</svg>
