<?xml version="1.0" encoding="iso-8859-1"?>
<!-- Generator: Adobe Illustrator 19.2.1, SVG Export Plug-In . SVG Version: 6.00 Build 0)  -->
<svg version="1.1" xmlns="http://www.w3.org/2000/svg" xmlns:xlink="http://www.w3.org/1999/xlink" x="0px" y="0px"
	 viewBox="0 0 30 30" style="enable-background:new 0 0 30 30;" xml:space="preserve">
<g id="Engagement_1">
</g>
<g id="Engagement_2">
</g>
<g id="Wedding_Ring">
</g>
<g id="Church">
</g>
<g id="Church_Bells">
</g>
<g id="Wedding_Altar_1">
</g>
<g id="Wedding_Altar_2">
</g>
<g id="Bow-Tie">
</g>
<g id="Wedding_Tiara">
</g>
<g id="Wedding_Bouquet">
</g>
<g id="Wedding_Decoration_1">
</g>
<g id="Wedding_Decoration_2">
</g>
<g id="Wedding_Way_Sign">
</g>
<g id="Wedding_Date">
</g>
<g id="Wedding_Invitation">
</g>
<g id="Wedding_Invitation_2">
</g>
<g id="Bride">
</g>
<g id="Groom">
</g>
<g id="Mariage_Couple">
</g>
<g id="Wedding_Planner_Book">
</g>
<g id="Wedding_Cake_1">
</g>
<g id="Wedding_Cake_2">
</g>
<g id="Wedding_Cake_3">
</g>
<g id="Cake_Slice">
	<g>
		<path d="M1,11.506v2.857l0.074,0.011c1.603,0.241,2.328,1.07,2.969,1.802c0.603,0.689,1.125,1.285,2.365,1.472
			c1.207,0.178,1.864-0.321,2.621-0.902c0.819-0.629,1.745-1.343,3.379-1.098c1.633,0.246,2.36,1.289,3.002,2.208
			c0.603,0.864,1.123,1.61,2.331,1.792c1.21,0.179,1.864-0.321,2.621-0.902c0.82-0.628,1.748-1.346,3.379-1.098
			c1.603,0.241,2.33,1.088,2.972,1.836c0.591,0.689,1.108,1.284,2.287,1.483v-5.505L1,11.506z"/>
		<path d="M15.899,6.785c-0.078-0.046-0.166-0.071-0.256-0.071l-1.169,0.002c-0.159,0.808-0.531,1.516-1.094,2.083
			C12.612,9.574,11.589,10,10.5,10c-1.643,0-3.054-0.983-3.697-2.388C4.825,8.17,3.448,9.119,2.116,10.044
			c-0.242,0.168-0.489,0.337-0.738,0.505l27.281,3.854L15.899,6.785z"/>
		<path d="M25.954,20.134c-0.604-0.704-1.126-1.313-2.361-1.498c-1.212-0.181-1.863,0.321-2.622,0.903
			c-0.82,0.629-1.756,1.342-3.378,1.097c-1.633-0.245-2.361-1.288-3.003-2.208c-0.603-0.864-1.123-1.61-2.331-1.792
			c-1.217-0.182-1.865,0.321-2.621,0.902c-0.819,0.63-1.749,1.345-3.379,1.098c-1.603-0.24-2.329-1.07-2.969-1.802
			C2.7,16.159,2.183,15.577,1,15.378v7.008c0,0.247,0.181,0.457,0.425,0.494l27,4.114C28.45,26.998,28.475,27,28.5,27
			c0.119,0,0.234-0.042,0.326-0.121C28.937,26.784,29,26.646,29,26.5v-4.519l-0.074-0.011
			C27.323,21.729,26.596,20.882,25.954,20.134z"/>
		<path d="M10.5,9c1.693,0,3.071-1.378,3.07-3.106l-0.014-0.143c-0.094-1.623-1.437-2.894-3.056-2.894
			c-0.695,0-0.781-0.551-0.786-0.789c-0.002-0.274-0.225-0.497-0.5-0.497c-0.298,0-1.786,0.21-1.786,4.357
			C7.429,7.622,8.807,9,10.5,9z"/>
	</g>
</g>
<g id="Marriage_Settlement">
</g>
<g id="Glass_Decoration">
</g>
<g id="Cutlery_Decoration">
</g>
<g id="Celebration_Glasses">
</g>
<g id="Wedding_Photo">
</g>
<g id="Wedding_Present_1">
</g>
<g id="Wedding_Present_2">
</g>
<g id="Wedding_Bouquet_2">
</g>
<g id="Hands_with_rings">
</g>
<g id="Wedding_Car">
</g>
<g id="Wedding_music">
</g>
<g id="wedding_party">
</g>
<g id="Confetti_1">
</g>
<g id="Confetti_2">
</g>
</svg>
