<?xml version="1.0" encoding="iso-8859-1"?>
<!-- Generator: Adobe Illustrator 19.2.1, SVG Export Plug-In . SVG Version: 6.00 Build 0)  -->
<svg version="1.1" xmlns="http://www.w3.org/2000/svg" xmlns:xlink="http://www.w3.org/1999/xlink" x="0px" y="0px"
	 viewBox="0 0 30 30" style="enable-background:new 0 0 30 30;" xml:space="preserve">
<g id="Engagement_1">
</g>
<g id="Engagement_2">
</g>
<g id="Wedding_Ring">
</g>
<g id="Church">
</g>
<g id="Church_Bells">
</g>
<g id="Wedding_Altar_1">
</g>
<g id="Wedding_Altar_2">
</g>
<g id="Bow-Tie">
</g>
<g id="Wedding_Tiara">
</g>
<g id="Wedding_Bouquet">
</g>
<g id="Wedding_Decoration_1">
</g>
<g id="Wedding_Decoration_2">
</g>
<g id="Wedding_Way_Sign">
</g>
<g id="Wedding_Date">
</g>
<g id="Wedding_Invitation">
</g>
<g id="Wedding_Invitation_2">
</g>
<g id="Bride">
</g>
<g id="Groom">
</g>
<g id="Mariage_Couple">
</g>
<g id="Wedding_Planner_Book">
</g>
<g id="Wedding_Cake_1">
</g>
<g id="Wedding_Cake_2">
</g>
<g id="Wedding_Cake_3">
</g>
<g id="Cake_Slice">
</g>
<g id="Marriage_Settlement">
</g>
<g id="Glass_Decoration">
</g>
<g id="Cutlery_Decoration">
</g>
<g id="Celebration_Glasses">
	<g>
		<path d="M14.483,8.982l-4.459-2.663c-0.222-0.133-0.508-0.074-0.66,0.134l-3.759,5.138c-0.002,0.003-0.002,0.006-0.004,0.008
			c-0.504,0.644-0.783,1.447-0.783,2.266c0,1.195,0.582,2.249,1.467,2.922l-1.914,3.309c-0.542-0.244-1.104-0.369-1.635-0.355
			c-0.719,0.023-1.308,0.318-1.627,0.811c-0.078,0.099-0.118,0.224-0.108,0.352c0.013,0.162,0.104,0.309,0.244,0.392L5.7,23.931
			C5.78,23.978,5.868,24,5.954,24c0.161,0,0.318-0.077,0.415-0.22c0.035-0.052,0.059-0.108,0.073-0.166
			c0.236-0.503,0.2-1.126-0.107-1.736c-0.237-0.472-0.624-0.91-1.103-1.271l1.922-3.323c0.418,0.165,0.871,0.263,1.347,0.263
			c1.424,0,2.73-0.832,3.334-2.121c0.001-0.003,0.004-0.004,0.006-0.006l2.836-5.788C14.791,9.397,14.707,9.115,14.483,8.982z
			 M12.695,11.402c-0.181,0.087-2.511,1.163-6.557,1.197c0.075-0.14,0.162-0.274,0.263-0.401c0.002-0.003,0.003-0.006,0.005-0.009
			c0.002-0.003,0.005-0.004,0.007-0.006l3.491-4.771l3.673,2.193L12.695,11.402z"/>
		<path d="M29.408,20.58c-0.563-0.912-1.937-1.09-3.279-0.482l-1.914-3.311c0.885-0.673,1.467-1.727,1.467-2.922
			c0-0.826-0.281-1.636-0.792-2.282l-3.754-5.131c-0.151-0.208-0.438-0.266-0.659-0.134l-4.46,2.663
			c-0.224,0.133-0.308,0.416-0.193,0.649l2.833,5.777c0.601,1.299,1.913,2.139,3.344,2.139c0.477,0,0.929-0.098,1.347-0.264
			l1.921,3.323c-0.48,0.361-0.866,0.799-1.104,1.271c-0.308,0.612-0.344,1.237-0.105,1.74c0.015,0.06,0.041,0.117,0.078,0.17
			C24.234,23.926,24.389,24,24.546,24c0.087,0,0.175-0.022,0.255-0.069l4.454-2.636c0.143-0.085,0.229-0.237,0.239-0.402
			C29.502,20.781,29.47,20.671,29.408,20.58z M17.884,11.562l-0.96-1.959l3.674-2.193l3.491,4.771
			c0.004,0.005,0.007,0.01,0.011,0.016c0.131,0.164,0.232,0.343,0.32,0.528C20.681,12.703,18.384,11.785,17.884,11.562z"/>
	</g>
</g>
<g id="Wedding_Photo">
</g>
<g id="Wedding_Present_1">
</g>
<g id="Wedding_Present_2">
</g>
<g id="Wedding_Bouquet_2">
</g>
<g id="Hands_with_rings">
</g>
<g id="Wedding_Car">
</g>
<g id="Wedding_music">
</g>
<g id="wedding_party">
</g>
<g id="Confetti_1">
</g>
<g id="Confetti_2">
</g>
</svg>
