<?xml version="1.0" encoding="iso-8859-1"?>
<!-- Generator: Adobe Illustrator 19.2.1, SVG Export Plug-In . SVG Version: 6.00 Build 0)  -->
<svg version="1.1" xmlns="http://www.w3.org/2000/svg" xmlns:xlink="http://www.w3.org/1999/xlink" x="0px" y="0px"
	 viewBox="0 0 30 30" style="enable-background:new 0 0 30 30;" xml:space="preserve">
<g id="Engagement_1">
</g>
<g id="Engagement_2">
</g>
<g id="Wedding_Ring">
</g>
<g id="Church">
</g>
<g id="Church_Bells">
</g>
<g id="Wedding_Altar_1">
</g>
<g id="Wedding_Altar_2">
</g>
<g id="Bow-Tie">
</g>
<g id="Wedding_Tiara">
</g>
<g id="Wedding_Bouquet">
</g>
<g id="Wedding_Decoration_1">
</g>
<g id="Wedding_Decoration_2">
</g>
<g id="Wedding_Way_Sign">
</g>
<g id="Wedding_Date">
</g>
<g id="Wedding_Invitation">
</g>
<g id="Wedding_Invitation_2">
</g>
<g id="Bride">
</g>
<g id="Groom">
</g>
<g id="Mariage_Couple">
</g>
<g id="Wedding_Planner_Book">
</g>
<g id="Wedding_Cake_1">
</g>
<g id="Wedding_Cake_2">
</g>
<g id="Wedding_Cake_3">
</g>
<g id="Cake_Slice">
</g>
<g id="Marriage_Settlement">
</g>
<g id="Glass_Decoration">
</g>
<g id="Cutlery_Decoration">
</g>
<g id="Celebration_Glasses">
</g>
<g id="Wedding_Photo">
</g>
<g id="Wedding_Present_1">
</g>
<g id="Wedding_Present_2">
</g>
<g id="Wedding_Bouquet_2">
</g>
<g id="Hands_with_rings">
</g>
<g id="Wedding_Car">
</g>
<g id="Wedding_music">
</g>
<g id="wedding_party">
</g>
<g id="Confetti_1">
	<g>
		<path d="M4.282,13.609c0.162,0,0.32-0.078,0.417-0.223c0.153-0.23,0.091-0.54-0.139-0.693l-3.159-2.106L4.56,8.481
			c0.139-0.093,0.223-0.249,0.223-0.416S4.699,7.742,4.56,7.649L1.401,5.543L4.56,3.438c0.139-0.093,0.223-0.249,0.223-0.416
			S4.699,2.699,4.56,2.606L0.777,0.084C0.546-0.069,0.236-0.008,0.084,0.223c-0.153,0.23-0.091,0.54,0.139,0.693l3.159,2.106
			L0.223,5.127C0.083,5.22,0,5.376,0,5.543s0.083,0.323,0.223,0.416l3.159,2.106l-3.159,2.105C0.083,10.264,0,10.42,0,10.587
			s0.083,0.323,0.223,0.416l3.783,2.522C4.091,13.582,4.187,13.609,4.282,13.609z"/>
		<path d="M16.392,12.478c0,0.167,0.084,0.323,0.223,0.416L19.772,15l-3.158,2.105c-0.229,0.153-0.292,0.464-0.139,0.693
			c0.097,0.145,0.255,0.223,0.416,0.223c0.096,0,0.192-0.027,0.277-0.084l3.782-2.521c0.139-0.093,0.223-0.249,0.223-0.416
			s-0.084-0.323-0.223-0.416l-3.158-2.106l3.158-2.105c0.139-0.093,0.223-0.249,0.223-0.416s-0.084-0.323-0.223-0.416l-3.158-2.106
			l3.158-2.105c0.229-0.153,0.292-0.463,0.139-0.693c-0.154-0.231-0.466-0.291-0.693-0.139l-3.782,2.521
			c-0.139,0.093-0.223,0.249-0.223,0.416s0.084,0.323,0.223,0.416l3.158,2.106l-3.158,2.105
			C16.476,12.155,16.392,12.311,16.392,12.478z"/>
		<path d="M10.31,11.432l-2.209,1.473c-0.491,0.327-0.784,0.875-0.784,1.465c0,0.59,0.293,1.138,0.784,1.465l0.635,0.424
			c0.215,0.143,0.339,0.373,0.339,0.632c0,0.26-0.124,0.49-0.339,0.634l-0.635,0.424c-0.491,0.327-0.784,0.875-0.784,1.465
			s0.293,1.138,0.784,1.465l0.635,0.424c0.215,0.144,0.339,0.374,0.339,0.633s-0.124,0.49-0.338,0.634l-0.636,0.423
			c-0.491,0.327-0.784,0.875-0.784,1.465c0,0.591,0.293,1.139,0.785,1.466l0.634,0.423c0.216,0.144,0.339,0.375,0.339,0.634
			s-0.124,0.489-0.339,0.633l-2.209,1.473c-0.23,0.153-0.292,0.464-0.139,0.693C6.484,29.922,6.643,30,6.805,30
			c0.095,0,0.191-0.027,0.277-0.084l2.209-1.473c0.491-0.327,0.784-0.874,0.784-1.464c0-0.591-0.293-1.139-0.785-1.467L8.655,25.09
			c-0.215-0.144-0.339-0.374-0.339-0.634c0-0.259,0.124-0.489,0.338-0.633L9.291,23.4c0.491-0.328,0.784-0.876,0.784-1.467
			c0-0.59-0.293-1.137-0.784-1.464l-0.635-0.424c-0.215-0.144-0.339-0.374-0.339-0.633s0.124-0.489,0.339-0.633l0.635-0.424
			c0.491-0.327,0.784-0.875,0.784-1.466c0-0.59-0.293-1.138-0.784-1.464l-0.635-0.424c-0.215-0.144-0.339-0.374-0.339-0.633
			s0.124-0.49,0.339-0.633l2.209-1.473c0.23-0.153,0.292-0.463,0.139-0.693C10.849,11.34,10.54,11.279,10.31,11.432z"/>
		<path d="M29.777,26.563l-2.209-1.473c-0.216-0.144-0.339-0.374-0.339-0.633c0-0.26,0.123-0.49,0.339-0.634l0.637-0.423
			c0.49-0.328,0.783-0.876,0.783-1.467c-0.001-0.589-0.294-1.137-0.784-1.464l-0.636-0.424c-0.216-0.144-0.339-0.374-0.339-0.633
			s0.123-0.489,0.339-0.633l0.636-0.424c0.491-0.327,0.784-0.875,0.784-1.466c-0.001-0.59-0.294-1.137-0.784-1.464l-0.636-0.424
			c-0.216-0.144-0.339-0.375-0.339-0.633c0-0.258,0.123-0.489,0.339-0.633l0.636-0.423c0.491-0.327,0.784-0.875,0.784-1.465
			c0-0.59-0.293-1.138-0.784-1.465L25.995,8.91c-0.228-0.151-0.539-0.092-0.693,0.139c-0.153,0.23-0.091,0.54,0.139,0.693
			l2.209,1.473c0.215,0.144,0.339,0.374,0.339,0.633c0,0.259-0.124,0.489-0.339,0.633l-0.636,0.423
			c-0.491,0.327-0.784,0.875-0.784,1.465c0,0.59,0.293,1.138,0.784,1.465l0.636,0.424c0.215,0.143,0.338,0.373,0.339,0.632
			c0,0.26-0.124,0.49-0.339,0.634l-0.636,0.424c-0.491,0.327-0.784,0.875-0.784,1.465s0.293,1.138,0.784,1.465l0.636,0.424
			c0.215,0.144,0.338,0.374,0.339,0.633c0,0.259-0.124,0.49-0.339,0.634l-0.636,0.423c-0.491,0.327-0.784,0.875-0.784,1.466
			c0,0.59,0.293,1.138,0.784,1.465l2.209,1.473c0.085,0.057,0.182,0.084,0.277,0.084c0.161,0,0.319-0.078,0.416-0.223
			C30.069,27.026,30.007,26.716,29.777,26.563z"/>
		<circle cx="10" cy="4" r="3"/>
		<circle cx="19" cy="24" r="3"/>
		<circle cx="3" cy="19" r="2"/>
		<circle cx="27" cy="3" r="2"/>
	</g>
</g>
<g id="Confetti_2">
</g>
</svg>
