<?xml version="1.0" encoding="iso-8859-1"?>
<!-- Generator: Adobe Illustrator 19.2.1, SVG Export Plug-In . SVG Version: 6.00 Build 0)  -->
<svg version="1.1" xmlns="http://www.w3.org/2000/svg" xmlns:xlink="http://www.w3.org/1999/xlink" x="0px" y="0px"
	 viewBox="0 0 30 30" style="enable-background:new 0 0 30 30;" xml:space="preserve">
<g id="Engagement_1">
</g>
<g id="Engagement_2">
</g>
<g id="Wedding_Ring">
</g>
<g id="Church">
</g>
<g id="Church_Bells">
</g>
<g id="Wedding_Altar_1">
</g>
<g id="Wedding_Altar_2">
</g>
<g id="Bow-Tie">
</g>
<g id="Wedding_Tiara">
</g>
<g id="Wedding_Bouquet">
</g>
<g id="Wedding_Decoration_1">
</g>
<g id="Wedding_Decoration_2">
</g>
<g id="Wedding_Way_Sign">
</g>
<g id="Wedding_Date">
</g>
<g id="Wedding_Invitation">
</g>
<g id="Wedding_Invitation_2">
</g>
<g id="Bride">
</g>
<g id="Groom">
</g>
<g id="Mariage_Couple">
	<g>
		<circle cx="5.5" cy="3" r="3"/>
		<path d="M6.581,6.987L5.543,7.506L4.506,6.987C4.353,6.911,4.167,6.918,4.02,7.009C3.873,7.1,3.783,7.261,3.783,7.435v1.261
			c0,0.173,0.09,0.334,0.237,0.425C4.167,9.212,4.351,9.22,4.506,9.143l1.037-0.519l1.037,0.519
			c0.071,0.035,0.147,0.053,0.224,0.053c0.091,0,0.183-0.025,0.263-0.075C7.214,9.03,7.304,8.869,7.304,8.696V7.435
			c0-0.173-0.09-0.334-0.237-0.425C6.92,6.917,6.734,6.91,6.581,6.987z"/>
		<circle cx="20.5" cy="3" r="3"/>
		<path d="M29.672,15.075L25.616,8.2c-0.39-0.546-0.97-0.951-1.632-1.141c-0.16-0.043-0.328-0.01-0.454,0.094
			c-1.668,1.363-4.045,1.365-5.713,0c-0.125-0.103-0.295-0.138-0.453-0.094c-0.663,0.188-1.244,0.593-1.659,1.178l-2.615,4.436
			l-2.348-4.113c-0.268-0.498-0.661-0.724-1.041-0.941L9.579,7.548C9.498,7.501,9.397,7.471,9.311,7.48L8.304,7.512v1.183
			c0,0.523-0.266,1-0.711,1.275c-0.429,0.267-0.999,0.295-1.458,0.067L5.543,9.743l-0.59,0.295
			c-0.216,0.106-0.446,0.159-0.674,0.159c-0.274,0-0.545-0.076-0.787-0.225c-0.445-0.275-0.71-0.752-0.71-1.275V7.687L1.745,7.72
			C1.662,7.722,1.581,7.746,1.509,7.787C0.684,8.268,0,8.763,0,9.957V18.5C0,19.327,0.673,20,1.5,20c0.175,0,0.344-0.03,0.5-0.086
			V28c0,1.103,0.897,2,2,2c0.597,0,1.133-0.263,1.5-0.679C5.867,29.737,6.403,30,7,30c1.103,0,2-0.897,2-2V12.7l2.615,4.401
			c0.313,0.576,0.882,0.92,1.521,0.92c0.7,0,1.301-0.42,1.58-1.021l2.714-4.638c0.115,0.527,0.223,1.359,0.223,2.637
			c0,2.641-2.859,7.258-4.796,8.395c-0.135,0.079-0.225,0.217-0.244,0.372c-0.019,0.155,0.037,0.31,0.148,0.419
			c0.086,0.083,1.694,1.6,4.739,2.305V28c0,1.103,0.897,2,2,2c0.597,0,1.133-0.263,1.5-0.679C21.367,29.737,21.903,30,22.5,30
			c1.103,0,2-0.897,2-2v-1.674c2.637-0.753,4.011-2.066,4.09-2.144c0.112-0.11,0.166-0.267,0.146-0.423
			c-0.021-0.155-0.114-0.292-0.251-0.369c-1.935-1.089-4.789-5.695-4.789-8.391c0-1.248,0.102-2.072,0.212-2.598l2.66,4.815
			c0.532,0.761,1.559,1.019,2.39,0.605c0.494-0.247,0.854-0.696,0.986-1.231C30.077,16.054,29.97,15.488,29.672,15.075z"/>
	</g>
</g>
<g id="Wedding_Planner_Book">
</g>
<g id="Wedding_Cake_1">
</g>
<g id="Wedding_Cake_2">
</g>
<g id="Wedding_Cake_3">
</g>
<g id="Cake_Slice">
</g>
<g id="Marriage_Settlement">
</g>
<g id="Glass_Decoration">
</g>
<g id="Cutlery_Decoration">
</g>
<g id="Celebration_Glasses">
</g>
<g id="Wedding_Photo">
</g>
<g id="Wedding_Present_1">
</g>
<g id="Wedding_Present_2">
</g>
<g id="Wedding_Bouquet_2">
</g>
<g id="Hands_with_rings">
</g>
<g id="Wedding_Car">
</g>
<g id="Wedding_music">
</g>
<g id="wedding_party">
</g>
<g id="Confetti_1">
</g>
<g id="Confetti_2">
</g>
</svg>
