<?xml version="1.0" encoding="iso-8859-1"?>
<!-- Generator: Adobe Illustrator 19.2.1, SVG Export Plug-In . SVG Version: 6.00 Build 0)  -->
<svg version="1.1" xmlns="http://www.w3.org/2000/svg" xmlns:xlink="http://www.w3.org/1999/xlink" x="0px" y="0px"
	 viewBox="0 0 30 30" style="enable-background:new 0 0 30 30;" xml:space="preserve">
<g id="Engagement_1">
</g>
<g id="Engagement_2">
</g>
<g id="Wedding_Ring">
</g>
<g id="Church">
</g>
<g id="Church_Bells">
</g>
<g id="Wedding_Altar_1">
	<g>
		<path d="M14.63,7.14c0.095,0.104,0.229,0.164,0.37,0.164s0.275-0.06,0.37-0.164c0.082-0.09,2.015-2.22,2.646-2.992
			c0.416-0.507,0.636-1.094,0.636-1.697C18.652,1.1,17.629,0,16.37,0C15.869,0,15.391,0.174,15,0.491
			C14.609,0.174,14.131,0,13.629,0c-1.258,0-2.282,1.1-2.282,2.451c0,0.603,0.22,1.189,0.635,1.697
			C12.615,4.921,14.548,7.05,14.63,7.14z"/>
		<path d="M4.5,17h2c1.103,0,2-0.897,2-2c0-1.103-0.897-2-2-2h-2c-1.103,0-2,0.897-2,2C2.5,16.103,3.397,17,4.5,17z"/>
		<path d="M23.5,13c-1.103,0-2,0.897-2,2c0,1.103,0.897,2,2,2h2c1.103,0,2-0.897,2-2c0-1.103-0.897-2-2-2H23.5z"/>
		<path d="M29.5,26h-29C0.224,26,0,26.224,0,26.5v3C0,29.776,0.224,30,0.5,30h29c0.276,0,0.5-0.224,0.5-0.5v-3
			C30,26.224,29.776,26,29.5,26z"/>
		<path d="M6.5,12c0.357,0,0.696,0.073,1.014,0.189c0.629-2.676,2.658-4.833,5.261-5.613c-0.582-0.651-1.235-1.39-1.566-1.794
			c-0.289-0.353-0.505-0.738-0.65-1.141C7.026,5.13,4.624,8.196,3.975,12.053C4.146,12.023,4.32,12,4.5,12H6.5z"/>
		<path d="M25.5,18h-2c-0.171,0-0.337-0.023-0.5-0.051V25h4.293l-0.902-7.151C26.108,17.938,25.813,18,25.5,18z"/>
		<path d="M22.48,12.191C22.8,12.074,23.14,12,23.5,12h2c0.18,0,0.354,0.023,0.525,0.053c-0.649-3.857-3.05-6.924-6.583-8.412
			c-0.145,0.403-0.362,0.788-0.651,1.142c-0.315,0.385-0.936,1.088-1.501,1.721C19.86,7.322,21.847,9.499,22.48,12.191z"/>
		<path d="M4.5,18c-0.312,0-0.608-0.062-0.891-0.151L2.707,25H7v-7.051C6.837,17.977,6.671,18,6.5,18H4.5z"/>
	</g>
</g>
<g id="Wedding_Altar_2">
</g>
<g id="Bow-Tie">
</g>
<g id="Wedding_Tiara">
</g>
<g id="Wedding_Bouquet">
</g>
<g id="Wedding_Decoration_1">
</g>
<g id="Wedding_Decoration_2">
</g>
<g id="Wedding_Way_Sign">
</g>
<g id="Wedding_Date">
</g>
<g id="Wedding_Invitation">
</g>
<g id="Wedding_Invitation_2">
</g>
<g id="Bride">
</g>
<g id="Groom">
</g>
<g id="Mariage_Couple">
</g>
<g id="Wedding_Planner_Book">
</g>
<g id="Wedding_Cake_1">
</g>
<g id="Wedding_Cake_2">
</g>
<g id="Wedding_Cake_3">
</g>
<g id="Cake_Slice">
</g>
<g id="Marriage_Settlement">
</g>
<g id="Glass_Decoration">
</g>
<g id="Cutlery_Decoration">
</g>
<g id="Celebration_Glasses">
</g>
<g id="Wedding_Photo">
</g>
<g id="Wedding_Present_1">
</g>
<g id="Wedding_Present_2">
</g>
<g id="Wedding_Bouquet_2">
</g>
<g id="Hands_with_rings">
</g>
<g id="Wedding_Car">
</g>
<g id="Wedding_music">
</g>
<g id="wedding_party">
</g>
<g id="Confetti_1">
</g>
<g id="Confetti_2">
</g>
</svg>
