<?xml version="1.0" encoding="iso-8859-1"?>
<!-- Generator: Adobe Illustrator 19.2.1, SVG Export Plug-In . SVG Version: 6.00 Build 0)  -->
<svg version="1.1" xmlns="http://www.w3.org/2000/svg" xmlns:xlink="http://www.w3.org/1999/xlink" x="0px" y="0px"
	 viewBox="0 0 30 30" style="enable-background:new 0 0 30 30;" xml:space="preserve">
<g id="Engagement_1">
</g>
<g id="Engagement_2">
</g>
<g id="Wedding_Ring">
</g>
<g id="Church">
</g>
<g id="Church_Bells">
</g>
<g id="Wedding_Altar_1">
</g>
<g id="Wedding_Altar_2">
</g>
<g id="Bow-Tie">
</g>
<g id="Wedding_Tiara">
</g>
<g id="Wedding_Bouquet">
</g>
<g id="Wedding_Decoration_1">
</g>
<g id="Wedding_Decoration_2">
</g>
<g id="Wedding_Way_Sign">
</g>
<g id="Wedding_Date">
</g>
<g id="Wedding_Invitation">
</g>
<g id="Wedding_Invitation_2">
</g>
<g id="Bride">
</g>
<g id="Groom">
</g>
<g id="Mariage_Couple">
</g>
<g id="Wedding_Planner_Book">
</g>
<g id="Wedding_Cake_1">
</g>
<g id="Wedding_Cake_2">
</g>
<g id="Wedding_Cake_3">
	<g>
		<path d="M25.988,23.209c0.003-0.046-0.003-0.09-0.014-0.136c-0.132-2.159-1.871-3.937-3.974-4.05v-4.331
			c0-1.394-0.768-2.361-2-2.617V7.287C20,6.7,19.669,6,18.091,6H17V4.5h0.25c0.173,0,0.334-0.09,0.425-0.237
			c0.092-0.147,0.1-0.332,0.022-0.486l-0.749-1.5C16.863,2.107,16.69,2,16.501,2s-0.362,0.107-0.447,0.276l-0.751,1.5
			c-0.078,0.155-0.069,0.339,0.022,0.486C15.416,4.41,15.577,4.5,15.75,4.5H16V6h-2V4.5h0.25c0.276,0,0.5-0.224,0.5-0.5V2.5
			c0-0.276-0.224-0.5-0.5-0.5h-1.5c-0.276,0-0.5,0.224-0.5,0.5V4c0,0.276,0.224,0.5,0.5,0.5H13V6h-1.079C10.333,6,10,6.7,10,7.287
			v4.789c-1.232,0.26-2,1.225-2,2.615v4.332c-2.099,0.119-3.834,1.887-3.973,4.037c-0.012,0.049-0.018,0.096-0.015,0.145
			C4.011,23.248,4,23.287,4,23.33v6.17C4,29.776,4.224,30,4.5,30h21c0.276,0,0.5-0.224,0.5-0.5v-6.17
			C26,23.289,25.989,23.25,25.988,23.209z M11.921,7h6.17C19,7,19,7.208,19,7.287v1.307c-0.956-0.792-2.146-0.736-3.062,0.193
			c-0.612,0.621-1.251,0.621-1.863,0c-0.494-0.501-1.062-0.766-1.644-0.766c-0.501,0-0.989,0.208-1.431,0.582V7.287
			C11,7.216,11,7,11.921,7z M10.687,13h8.638c1.046,0,1.625,0.574,1.661,1.6c-0.147,0.104-0.292,0.221-0.428,0.365
			c-0.188,0.198-0.482,0.435-0.82,0.435c-0.337,0-0.632-0.237-0.819-0.435c-0.462-0.49-0.997-0.749-1.547-0.749
			s-1.085,0.259-1.546,0.749c-0.187,0.198-0.481,0.435-0.82,0.435c-0.338,0-0.632-0.236-0.819-0.435
			c-0.926-0.98-2.169-0.979-3.094,0c-0.187,0.199-0.481,0.435-0.819,0.435s-0.632-0.236-0.819-0.435
			c-0.139-0.147-0.287-0.267-0.439-0.372C9.054,13.572,9.636,13,10.687,13z M8.219,20H8.5h13h0.293c1.572,0,2.912,1.25,3.156,2.824
			c-0.315,0.027-0.63-0.125-0.941-0.455c-0.478-0.506-1.03-0.773-1.598-0.773s-1.119,0.268-1.597,0.773
			c-0.198,0.21-0.511,0.461-0.871,0.461s-0.673-0.251-0.871-0.46c-0.955-1.013-2.238-1.014-3.194-0.001
			c-0.198,0.21-0.51,0.461-0.871,0.461c-0.36,0-0.672-0.251-0.87-0.46c-0.956-1.013-2.24-1.014-3.195-0.001
			c-0.198,0.21-0.51,0.461-0.871,0.461s-0.672-0.251-0.87-0.46c-0.957-1.015-2.24-1.013-3.196,0
			c-0.316,0.334-0.635,0.485-0.953,0.453C5.297,21.25,6.641,20,8.219,20z"/>
		<circle cx="13.5" cy="0.75" r="0.75"/>
		<circle cx="16.5" cy="0.75" r="0.75"/>
	</g>
</g>
<g id="Cake_Slice">
</g>
<g id="Marriage_Settlement">
</g>
<g id="Glass_Decoration">
</g>
<g id="Cutlery_Decoration">
</g>
<g id="Celebration_Glasses">
</g>
<g id="Wedding_Photo">
</g>
<g id="Wedding_Present_1">
</g>
<g id="Wedding_Present_2">
</g>
<g id="Wedding_Bouquet_2">
</g>
<g id="Hands_with_rings">
</g>
<g id="Wedding_Car">
</g>
<g id="Wedding_music">
</g>
<g id="wedding_party">
</g>
<g id="Confetti_1">
</g>
<g id="Confetti_2">
</g>
</svg>
