<?xml version="1.0" encoding="iso-8859-1"?>
<!-- Generator: Adobe Illustrator 19.2.1, SVG Export Plug-In . SVG Version: 6.00 Build 0)  -->
<svg version="1.1" xmlns="http://www.w3.org/2000/svg" xmlns:xlink="http://www.w3.org/1999/xlink" x="0px" y="0px"
	 viewBox="0 0 30 30" style="enable-background:new 0 0 30 30;" xml:space="preserve">
<g id="Engagement_1">
</g>
<g id="Engagement_2">
</g>
<g id="Wedding_Ring">
</g>
<g id="Church">
</g>
<g id="Church_Bells">
</g>
<g id="Wedding_Altar_1">
</g>
<g id="Wedding_Altar_2">
</g>
<g id="Bow-Tie">
</g>
<g id="Wedding_Tiara">
</g>
<g id="Wedding_Bouquet">
</g>
<g id="Wedding_Decoration_1">
</g>
<g id="Wedding_Decoration_2">
</g>
<g id="Wedding_Way_Sign">
</g>
<g id="Wedding_Date">
</g>
<g id="Wedding_Invitation">
</g>
<g id="Wedding_Invitation_2">
</g>
<g id="Bride">
</g>
<g id="Groom">
</g>
<g id="Mariage_Couple">
</g>
<g id="Wedding_Planner_Book">
</g>
<g id="Wedding_Cake_1">
	<path d="M26.22,24.068c-0.186-0.205-0.501-0.224-0.706-0.038l-0.542,0.486c-0.241,0.241-0.562,0.39-0.972,0.451v-3.033
		c0-0.147-0.03-0.283-0.046-0.425c0.081-0.181,0.052-0.4-0.094-0.552c-0.001-0.001-0.003-0.002-0.004-0.003
		C23.386,19.22,21.696,18,19.544,18H15v-3h4.5h0.26c0.754,0,1.533-0.346,2.147-0.961l0.522-0.555
		c0.189-0.201,0.18-0.518-0.021-0.707c-0.2-0.189-0.517-0.18-0.707,0.021l-0.512,0.544c-0.35,0.35-0.773,0.565-1.189,0.629v-3.385
		C20,9.016,18.831,8,17.021,8H15V5h2.238H17.5c0.078,0,0.15-0.021,0.216-0.053c0.761-0.154,1.353-0.634,1.676-0.958l0.522-0.577
		c0.186-0.205,0.17-0.521-0.034-0.707c-0.204-0.184-0.52-0.169-0.706,0.035l-0.506,0.559C18.457,3.509,18.23,3.673,18,3.792V1.761
		C18,0.702,16.652,0,15.761,0h-2.521C12.348,0,11,0.702,11,1.761v2.034c-0.224-0.114-0.442-0.268-0.636-0.461L9.842,2.703
		C9.665,2.489,9.35,2.46,9.138,2.637C8.925,2.813,8.896,3.128,9.071,3.341l0.554,0.666c0.309,0.309,0.898,0.787,1.659,0.941
		C11.351,4.979,11.422,5,11.5,5h0.262H14v3h-2.022C10.169,8,9,9.016,9,10.587v3.385c-0.416-0.063-0.836-0.276-1.169-0.608
		l-0.522-0.587c-0.183-0.206-0.5-0.226-0.706-0.041c-0.206,0.184-0.225,0.5-0.041,0.706l0.542,0.608C7.708,14.654,8.487,15,9.24,15
		H9.5H14v3H9.457c-2.152,0-3.842,1.22-4.313,2.955c-0.001,0.001-0.003,0.002-0.004,0.003c-0.146,0.152-0.176,0.371-0.094,0.552
		C5.03,21.651,5,21.788,5,21.935v3.032c-0.412-0.063-0.741-0.219-1.015-0.488l-0.522-0.414c-0.216-0.173-0.531-0.137-0.702,0.081
		c-0.172,0.216-0.135,0.53,0.081,0.702l0.479,0.376C3.836,25.739,4.555,26,5.458,26H5.5H14v3h-3.5c-0.276,0-0.5,0.224-0.5,0.5
		s0.224,0.5,0.5,0.5h8c0.276,0,0.5-0.224,0.5-0.5S18.776,29,18.5,29H15v-3h8.5h0.042c0.902,0,1.622-0.261,2.117-0.758l0.522-0.468
		C26.387,24.591,26.404,24.274,26.22,24.068z M15.761,1c0.038,0,0.079,0.007,0.119,0.011c-0.166,0.113-0.328,0.242-0.483,0.406
		c-0.204,0.216-0.525,0.474-0.897,0.474s-0.693-0.257-0.897-0.474c-0.154-0.164-0.317-0.293-0.482-0.406
		C13.161,1.007,13.201,1,13.239,1H15.761z M11.978,9h5.043C17.616,9,19,9.155,19,10.587v0.604c-0.129-0.078-0.257-0.179-0.385-0.315
		c-0.967-1.031-2.264-1.031-3.23,0c-0.201,0.216-0.519,0.472-0.884,0.473c-0.366,0-0.684-0.257-0.885-0.473
		c-0.483-0.516-1.042-0.789-1.615-0.789h0c-0.573,0-1.132,0.273-1.615,0.789c-0.102,0.109-0.233,0.227-0.385,0.319v-0.607
		C10,9.155,11.383,9,11.978,9z M9.457,19h10.087c1.063,0,2.165,0.417,2.831,1.207c-0.629-0.052-1.267,0.191-1.807,0.751
		c-0.61,0.634-1.241,0.632-1.851,0c-0.988-1.025-2.306-1.025-3.292,0c-0.61,0.633-1.242,0.633-1.851,0
		c-0.988-1.025-2.305-1.025-3.292,0c-0.61,0.634-1.243,0.632-1.852,0c-0.494-0.513-1.063-0.784-1.646-0.784h0
		c-0.05,0-0.1,0.013-0.15,0.017C7.303,19.411,8.4,19,9.457,19z"/>
</g>
<g id="Wedding_Cake_2">
</g>
<g id="Wedding_Cake_3">
</g>
<g id="Cake_Slice">
</g>
<g id="Marriage_Settlement">
</g>
<g id="Glass_Decoration">
</g>
<g id="Cutlery_Decoration">
</g>
<g id="Celebration_Glasses">
</g>
<g id="Wedding_Photo">
</g>
<g id="Wedding_Present_1">
</g>
<g id="Wedding_Present_2">
</g>
<g id="Wedding_Bouquet_2">
</g>
<g id="Hands_with_rings">
</g>
<g id="Wedding_Car">
</g>
<g id="Wedding_music">
</g>
<g id="wedding_party">
</g>
<g id="Confetti_1">
</g>
<g id="Confetti_2">
</g>
</svg>
