<?xml version="1.0" encoding="iso-8859-1"?>
<!-- Generator: Adobe Illustrator 19.2.1, SVG Export Plug-In . SVG Version: 6.00 Build 0)  -->
<svg version="1.1" xmlns="http://www.w3.org/2000/svg" xmlns:xlink="http://www.w3.org/1999/xlink" x="0px" y="0px"
	 viewBox="0 0 30 30" style="enable-background:new 0 0 30 30;" xml:space="preserve">
<g id="Armchair_1">
</g>
<g id="Armchair_2">
</g>
<g id="Armchair_3">
	<g id="XMLID_65_">
		<g id="XMLID_66_">
			<path d="M15,26c-5.084,0-8.5-3.014-8.5-7.5C6.5,18.224,6.724,18,7,18s0.5,0.224,0.5,0.5c0,3.949,2.944,6.5,7.5,6.5
				s7.5-2.502,7.5-6.375c0-0.276,0.224-0.5,0.5-0.5s0.5,0.224,0.5,0.5C23.5,23.105,20.164,26,15,26z"/>
		</g>
		<g id="XMLID_67_">
			<path d="M24.5,27.5c-0.375,0-0.718-0.144-0.989-0.417c-1.049-1.054-1.036-4.005-1.016-8.09l0.005-1.619
				c0-4.342-3.364-7.875-7.5-7.875s-7.5,3.533-7.5,7.875l0.005,1.619c0.02,4.084,0.033,7.036-1.016,8.09
				C6.218,27.356,5.875,27.5,5.5,27.5C1.953,27.5,0,23.904,0,17.375C0,9.173,6.729,2.5,15,2.5s15,6.673,15,14.875
				C30,23.904,28.047,27.5,24.5,27.5z M15,8.5c4.687,0,8.5,3.981,8.5,8.875l-0.005,1.623c-0.016,3.405-0.031,6.62,0.725,7.38
				c0.085,0.085,0.168,0.122,0.28,0.122c3.916,0,4.5-5.717,4.5-9.125C29,9.724,22.72,3.5,15,3.5S1,9.724,1,17.375
				C1,20.783,1.584,26.5,5.5,26.5c0.111,0,0.195-0.037,0.28-0.122c0.756-0.76,0.741-3.975,0.725-7.38L6.5,17.375
				C6.5,12.481,10.313,8.5,15,8.5z"/>
		</g>
	</g>
</g>
<g id="Armchair_4">
</g>
<g id="Sofa_1">
</g>
<g id="Sofa_2">
</g>
<g id="Sofa_3">
</g>
<g id="Sofa_4">
</g>
<g id="Sofa_5">
</g>
<g id="Sofa_6">
</g>
<g id="Desk_1">
</g>
<g id="Desk_2">
</g>
<g id="Desk_3">
</g>
<g id="Lamp">
</g>
<g id="Bed_1">
</g>
<g id="Bunk_Beds">
</g>
<g id="Bed_2">
</g>
<g id="Bed_3">
</g>
<g id="Bed_4">
</g>
<g id="Bed_5">
</g>
<g id="Table_1">
</g>
<g id="Table_2">
</g>
<g id="Table_3">
</g>
<g id="Table_4">
</g>
<g id="Rug_1">
</g>
<g id="Rug_2">
</g>
<g id="Rug_3">
</g>
<g id="Tub_1">
</g>
<g id="Tub_2">
</g>
<g id="Jacuzzi">
</g>
<g id="Corner_Tub">
</g>
<g id="Shower_Tray">
</g>
<g id="Sink_1">
</g>
<g id="Sink_2">
</g>
<g id="Toilette">
</g>
<g id="Stove">
</g>
<g id="Kitchen_Sink">
</g>
<g id="Island">
</g>
<g id="Eat-in_Kitchen">
</g>
<g id="Tv_Stand">
</g>
</svg>
