<?xml version="1.0" encoding="iso-8859-1"?>
<!-- Generator: Adobe Illustrator 19.2.1, SVG Export Plug-In . SVG Version: 6.00 Build 0)  -->
<svg version="1.1" xmlns="http://www.w3.org/2000/svg" xmlns:xlink="http://www.w3.org/1999/xlink" x="0px" y="0px"
	 viewBox="0 0 30 30" style="enable-background:new 0 0 30 30;" xml:space="preserve">
<g id="Armchair_1">
</g>
<g id="Armchair_2">
</g>
<g id="Armchair_3">
</g>
<g id="Armchair_4">
</g>
<g id="Sofa_1">
</g>
<g id="Sofa_2">
</g>
<g id="Sofa_3">
</g>
<g id="Sofa_4">
</g>
<g id="Sofa_5">
</g>
<g id="Sofa_6">
</g>
<g id="Desk_1">
</g>
<g id="Desk_2">
</g>
<g id="Desk_3">
</g>
<g id="Lamp">
</g>
<g id="Bed_1">
</g>
<g id="Bunk_Beds">
</g>
<g id="Bed_2">
</g>
<g id="Bed_3">
</g>
<g id="Bed_4">
</g>
<g id="Bed_5">
	<g id="XMLID_457_">
		<path d="M12.5,9h-8C3.673,9,3,8.327,3,7.5v-6C3,0.673,3.673,0,4.5,0h8C13.327,0,14,0.673,14,1.5v6C14,8.327,13.327,9,12.5,9z
			 M4.5,1C4.225,1,4,1.224,4,1.5v6C4,7.776,4.225,8,4.5,8h8C12.775,8,13,7.776,13,7.5v-6C13,1.224,12.775,1,12.5,1H4.5z"/>
	</g>
	<g id="XMLID_456_">
		<path d="M24.5,9h-8C15.673,9,15,8.327,15,7.5v-6C15,0.673,15.673,0,16.5,0h8C25.327,0,26,0.673,26,1.5v6C26,8.327,25.327,9,24.5,9
			z M16.5,1C16.225,1,16,1.224,16,1.5v6C16,7.776,16.225,8,16.5,8h8C24.775,8,25,7.776,25,7.5v-6C25,1.224,24.775,1,24.5,1H16.5z"/>
	</g>
	<g>
		<path d="M26.5,30h-24C1.673,30,1,29.327,1,28.5v-17C1,10.673,1.673,10,2.5,10h24c0.827,0,1.5,0.673,1.5,1.5v17
			C28,29.327,27.327,30,26.5,30z M2.5,11C2.225,11,2,11.224,2,11.5v17C2,28.776,2.225,29,2.5,29h24c0.275,0,0.5-0.224,0.5-0.5v-17
			c0-0.276-0.225-0.5-0.5-0.5H2.5z"/>
	</g>
</g>
<g id="Table_1">
</g>
<g id="Table_2">
</g>
<g id="Table_3">
</g>
<g id="Table_4">
</g>
<g id="Rug_1">
</g>
<g id="Rug_2">
</g>
<g id="Rug_3">
</g>
<g id="Tub_1">
</g>
<g id="Tub_2">
</g>
<g id="Jacuzzi">
</g>
<g id="Corner_Tub">
</g>
<g id="Shower_Tray">
</g>
<g id="Sink_1">
</g>
<g id="Sink_2">
</g>
<g id="Toilette">
</g>
<g id="Stove">
</g>
<g id="Kitchen_Sink">
</g>
<g id="Island">
</g>
<g id="Eat-in_Kitchen">
</g>
<g id="Tv_Stand">
</g>
</svg>
