<?xml version="1.0" encoding="iso-8859-1"?>
<!-- Generator: Adobe Illustrator 19.2.1, SVG Export Plug-In . SVG Version: 6.00 Build 0)  -->
<svg version="1.1" xmlns="http://www.w3.org/2000/svg" xmlns:xlink="http://www.w3.org/1999/xlink" x="0px" y="0px"
	 viewBox="0 0 30 30" style="enable-background:new 0 0 30 30;" xml:space="preserve">
<g id="Armchair_1">
</g>
<g id="Armchair_2">
</g>
<g id="Armchair_3">
</g>
<g id="Armchair_4">
</g>
<g id="Sofa_1">
</g>
<g id="Sofa_2">
</g>
<g id="Sofa_3">
</g>
<g id="Sofa_4">
</g>
<g id="Sofa_5">
</g>
<g id="Sofa_6">
</g>
<g id="Desk_1">
</g>
<g id="Desk_2">
</g>
<g id="Desk_3">
</g>
<g id="Lamp">
</g>
<g id="Bed_1">
</g>
<g id="Bunk_Beds">
	<g id="XMLID_17_">
		<path d="M25.5,30h-15C9.673,30,9,29.327,9,28.5v-27C9,0.673,9.673,0,10.5,0h15C26.327,0,27,0.673,27,1.5v27
			C27,29.327,26.327,30,25.5,30z M10.5,1C10.225,1,10,1.224,10,1.5v27c0,0.276,0.225,0.5,0.5,0.5h15c0.275,0,0.5-0.224,0.5-0.5v-27
			C26,1.224,25.775,1,25.5,1H10.5z"/>
	</g>
	<g id="XMLID_16_">
		<path d="M22.5,10h-9C12.121,10,11,8.878,11,7.5v-3C11,3.122,12.121,2,13.5,2h9C23.879,2,25,3.122,25,4.5v3
			C25,8.878,23.879,10,22.5,10z M13.5,3C12.673,3,12,3.673,12,4.5v3C12,8.327,12.673,9,13.5,9h9C23.327,9,24,8.327,24,7.5v-3
			C24,3.673,23.327,3,22.5,3H13.5z"/>
	</g>
	<g id="XMLID_11_">
		<path d="M24.5,28h-13c-0.276,0-0.5-0.224-0.5-0.5v-18C11,9.224,11.224,9,11.5,9h13C24.776,9,25,9.224,25,9.5v18
			C25,27.776,24.776,28,24.5,28z M12,27h12V10H12V27z"/>
	</g>
	<g>
		<path d="M10,26H3.5C3.224,26,3,25.776,3,25.5v-8C3,17.224,3.224,17,3.5,17H10c0.276,0,0.5,0.224,0.5,0.5S10.276,18,10,18H4v7h6
			c0.276,0,0.5,0.224,0.5,0.5S10.276,26,10,26z"/>
	</g>
	<g>
		<path d="M6.5,26C6.224,26,6,25.776,6,25.5v-8C6,17.224,6.224,17,6.5,17S7,17.224,7,17.5v8C7,25.776,6.776,26,6.5,26z"/>
	</g>
</g>
<g id="Bed_2">
</g>
<g id="Bed_3">
</g>
<g id="Bed_4">
</g>
<g id="Bed_5">
</g>
<g id="Table_1">
</g>
<g id="Table_2">
</g>
<g id="Table_3">
</g>
<g id="Table_4">
</g>
<g id="Rug_1">
</g>
<g id="Rug_2">
</g>
<g id="Rug_3">
</g>
<g id="Tub_1">
</g>
<g id="Tub_2">
</g>
<g id="Jacuzzi">
</g>
<g id="Corner_Tub">
</g>
<g id="Shower_Tray">
</g>
<g id="Sink_1">
</g>
<g id="Sink_2">
</g>
<g id="Toilette">
</g>
<g id="Stove">
</g>
<g id="Kitchen_Sink">
</g>
<g id="Island">
</g>
<g id="Eat-in_Kitchen">
</g>
<g id="Tv_Stand">
</g>
</svg>
