<?xml version="1.0" encoding="iso-8859-1"?>
<!-- Generator: Adobe Illustrator 19.2.1, SVG Export Plug-In . SVG Version: 6.00 Build 0)  -->
<svg version="1.1" xmlns="http://www.w3.org/2000/svg" xmlns:xlink="http://www.w3.org/1999/xlink" x="0px" y="0px"
	 viewBox="0 0 30 30" style="enable-background:new 0 0 30 30;" xml:space="preserve">
<g id="Armchair_1">
</g>
<g id="Armchair_2">
</g>
<g id="Armchair_3">
</g>
<g id="Armchair_4">
</g>
<g id="Sofa_1">
</g>
<g id="Sofa_2">
</g>
<g id="Sofa_3">
</g>
<g id="Sofa_4">
</g>
<g id="Sofa_5">
</g>
<g id="Sofa_6">
</g>
<g id="Desk_1">
</g>
<g id="Desk_2">
</g>
<g id="Desk_3">
</g>
<g id="Lamp">
</g>
<g id="Bed_1">
</g>
<g id="Bunk_Beds">
</g>
<g id="Bed_2">
</g>
<g id="Bed_3">
</g>
<g id="Bed_4">
</g>
<g id="Bed_5">
</g>
<g id="Table_1">
</g>
<g id="Table_2">
</g>
<g id="Table_3">
</g>
<g id="Table_4">
</g>
<g id="Rug_1">
</g>
<g id="Rug_2">
</g>
<g id="Rug_3">
</g>
<g id="Tub_1">
</g>
<g id="Tub_2">
</g>
<g id="Jacuzzi">
</g>
<g id="Corner_Tub">
</g>
<g id="Shower_Tray">
</g>
<g id="Sink_1">
</g>
<g id="Sink_2">
</g>
<g id="Toilette">
</g>
<g id="Stove">
</g>
<g id="Kitchen_Sink">
</g>
<g id="Island">
</g>
<g id="Eat-in_Kitchen">
	<g id="XMLID_353_">
		<g id="XMLID_354_">
			<path d="M20.5,27h-20C0.224,27,0,26.776,0,26.5v-24C0,2.224,0.224,2,0.5,2h29C29.776,2,30,2.224,30,2.5v8
				c0,0.276-0.224,0.5-0.5,0.5h-19C9.393,11,9,11.393,9,12.5V18h11.5c0.276,0,0.5,0.224,0.5,0.5v8C21,26.776,20.776,27,20.5,27z
				 M1,26h19v-7H8.5C8.224,19,8,18.776,8,18.5v-6c0-1.659,0.841-2.5,2.5-2.5H29V3H1V26z"/>
		</g>
		<g id="XMLID_356_">
			<path d="M17.875,23H8.5C8.224,23,8,22.776,8,22.5S8.224,22,8.5,22h9.375c0.276,0,0.5,0.224,0.5,0.5S18.151,23,17.875,23z"/>
		</g>
		<g id="XMLID_357_">
			<path d="M8.5,27C8.224,27,8,26.776,8,26.5v-7.75c0-0.276,0.224-0.5,0.5-0.5S9,18.474,9,18.75v7.75C9,26.776,8.776,27,8.5,27z"/>
		</g>
		<g>
			<path d="M17.5,24c-0.827,0-1.5-0.673-1.5-1.5s0.673-1.5,1.5-1.5s1.5,0.673,1.5,1.5S18.327,24,17.5,24z M17.5,22
				c-0.275,0-0.5,0.225-0.5,0.5s0.225,0.5,0.5,0.5s0.5-0.225,0.5-0.5S17.775,22,17.5,22z"/>
		</g>
	</g>
</g>
<g id="Tv_Stand">
</g>
</svg>
