<?xml version="1.0" encoding="iso-8859-1"?>
<!-- Generator: Adobe Illustrator 19.2.1, SVG Export Plug-In . SVG Version: 6.00 Build 0)  -->
<svg version="1.1" xmlns="http://www.w3.org/2000/svg" xmlns:xlink="http://www.w3.org/1999/xlink" x="0px" y="0px"
	 viewBox="0 0 30 30" style="enable-background:new 0 0 30 30;" xml:space="preserve">
<g id="Armchair_1">
</g>
<g id="Armchair_2">
</g>
<g id="Armchair_3">
</g>
<g id="Armchair_4">
</g>
<g id="Sofa_1">
</g>
<g id="Sofa_2">
</g>
<g id="Sofa_3">
</g>
<g id="Sofa_4">
</g>
<g id="Sofa_5">
</g>
<g id="Sofa_6">
</g>
<g id="Desk_1">
</g>
<g id="Desk_2">
</g>
<g id="Desk_3">
</g>
<g id="Lamp">
</g>
<g id="Bed_1">
</g>
<g id="Bunk_Beds">
</g>
<g id="Bed_2">
</g>
<g id="Bed_3">
</g>
<g id="Bed_4">
</g>
<g id="Bed_5">
</g>
<g id="Table_1">
</g>
<g id="Table_2">
</g>
<g id="Table_3">
</g>
<g id="Table_4">
</g>
<g id="Rug_1">
</g>
<g id="Rug_2">
	<g id="XMLID_390_">
		<g id="XMLID_393_">
			<path d="M15.455,30.021c-0.787,0-1.585-0.2-2.199-0.454l-0.524-0.218c-0.408-0.168-0.837-0.254-1.276-0.254h-0.567
				c-1.157,0-2.247-0.451-3.066-1.27L7.42,27.424c-0.311-0.311-0.674-0.555-1.082-0.724l-0.524-0.217
				c-1.071-0.444-1.904-1.277-2.346-2.347L3.25,23.612c-0.168-0.407-0.411-0.771-0.723-1.082l-0.401-0.401
				c-0.819-0.818-1.271-1.907-1.271-3.065v-0.567c0-0.442-0.085-0.871-0.254-1.275l-0.217-0.525c-0.46-1.11-0.489-2.59-0.071-3.599
				l0.217-0.524c0.169-0.405,0.254-0.834,0.254-1.276v-0.567c0-1.158,0.451-2.247,1.271-3.065l0.401-0.401
				C2.768,6.949,3.011,6.585,3.179,6.18l0.218-0.524c0.441-1.069,1.274-1.902,2.346-2.347l0.524-0.217
				c0.408-0.169,0.771-0.413,1.081-0.724L7.75,1.967c0.819-0.818,1.909-1.27,3.066-1.27h0.567c0.439,0,0.868-0.086,1.277-0.254
				l0.523-0.218c1.128-0.467,2.578-0.197,3.56,0.208l0,0l0.524,0.218c0.408,0.168,0.837,0.254,1.276,0.254h0.567
				c1.157,0,2.247,0.451,3.066,1.27l0.401,0.401c0.311,0.311,0.674,0.555,1.082,0.724l0.524,0.217
				c1.071,0.444,1.904,1.277,2.346,2.347l0.218,0.524c0.168,0.407,0.411,0.771,0.723,1.082l0.401,0.401
				c0.819,0.818,1.271,1.907,1.271,3.065v0.567c0,0.442,0.085,0.871,0.254,1.275l0.217,0.525c0.46,1.11,0.489,2.59,0.071,3.599
				l-0.217,0.524c-0.169,0.405-0.254,0.834-0.254,1.276v0.567c0,1.158-0.451,2.247-1.271,3.065l-0.401,0.401
				c-0.312,0.313-0.555,0.677-0.723,1.082l-0.218,0.524c-0.441,1.069-1.274,1.902-2.346,2.347l-0.524,0.217
				c-0.408,0.169-0.771,0.413-1.081,0.724l-0.402,0.401c-0.819,0.818-1.909,1.27-3.066,1.27h-0.567
				c-0.439,0-0.868,0.086-1.277,0.254l-0.523,0.218C16.394,29.949,15.926,30.021,15.455,30.021z M10.816,1.697
				c-0.891,0-1.729,0.347-2.359,0.977L8.056,3.075c-0.402,0.403-0.876,0.72-1.406,0.94L6.125,4.232
				C5.302,4.574,4.66,5.215,4.32,6.038L4.103,6.563c-0.218,0.526-0.534,1-0.938,1.406L2.762,8.37C2.131,9,1.784,9.837,1.784,10.729
				v0.567c0,0.574-0.111,1.133-0.33,1.66l-0.217,0.523c-0.319,0.771-0.289,1.962,0.071,2.833l0.217,0.524
				c0.219,0.526,0.33,1.085,0.33,1.659v0.567c0,0.892,0.347,1.729,0.978,2.358l0.401,0.401c0.404,0.404,0.721,0.878,0.939,1.406
				l0.218,0.524c0.34,0.823,0.981,1.464,1.805,1.806l0.524,0.217c0.53,0.221,1.004,0.537,1.407,0.94l0.4,0.401
				c0.631,0.63,1.469,0.977,2.359,0.977h0.567c0.57,0,1.129,0.111,1.658,0.33l0.525,0.218c0.76,0.314,1.949,0.559,2.794,0.208
				l0.524-0.218c0.53-0.219,1.089-0.33,1.659-0.33h0.567c0.891,0,1.729-0.347,2.359-0.977l0.401-0.401
				c0.402-0.403,0.876-0.72,1.406-0.94l0.524-0.217c0.823-0.342,1.465-0.982,1.805-1.806l0.218-0.524
				c0.218-0.526,0.534-1,0.938-1.406l0.402-0.401c0.631-0.63,0.978-1.467,0.978-2.358v-0.567c0-0.574,0.111-1.133,0.33-1.66
				l0.217-0.523c0.319-0.771,0.289-1.962-0.071-2.833l-0.217-0.524c-0.219-0.526-0.33-1.085-0.33-1.659v-0.567
				c0-0.892-0.347-1.729-0.978-2.358l-0.401-0.401c-0.404-0.404-0.721-0.878-0.939-1.406l-0.218-0.524
				c-0.34-0.823-0.981-1.464-1.805-1.806l-0.524-0.217c-0.53-0.221-1.004-0.537-1.407-0.94l-0.4-0.401
				c-0.631-0.63-1.469-0.977-2.359-0.977h-0.567c-0.57,0-1.129-0.111-1.658-0.33l-0.525-0.218c-0.76-0.314-1.949-0.559-2.794-0.208
				l-0.524,0.218c-0.53,0.219-1.089,0.33-1.659,0.33H10.816z"/>
		</g>
		<g>
			<path d="M14.983,26.02c-6.065,0-11-4.935-11-11s4.935-11,11-11s11,4.935,11,11S21.049,26.02,14.983,26.02z M14.983,5.02
				c-5.514,0-10,4.486-10,10s4.486,10,10,10s10-4.486,10-10S20.497,5.02,14.983,5.02z"/>
		</g>
		<g>
			<path d="M14.983,22.02c-3.859,0-7-3.141-7-7s3.141-7,7-7s7,3.141,7,7S18.843,22.02,14.983,22.02z M14.983,9.02
				c-3.309,0-6,2.691-6,6s2.691,6,6,6s6-2.691,6-6S18.292,9.02,14.983,9.02z"/>
		</g>
	</g>
</g>
<g id="Rug_3">
</g>
<g id="Tub_1">
</g>
<g id="Tub_2">
</g>
<g id="Jacuzzi">
</g>
<g id="Corner_Tub">
</g>
<g id="Shower_Tray">
</g>
<g id="Sink_1">
</g>
<g id="Sink_2">
</g>
<g id="Toilette">
</g>
<g id="Stove">
</g>
<g id="Kitchen_Sink">
</g>
<g id="Island">
</g>
<g id="Eat-in_Kitchen">
</g>
<g id="Tv_Stand">
</g>
</svg>
