<?xml version="1.0" encoding="iso-8859-1"?>
<!-- Generator: Adobe Illustrator 19.2.1, SVG Export Plug-In . SVG Version: 6.00 Build 0)  -->
<svg version="1.1" xmlns="http://www.w3.org/2000/svg" xmlns:xlink="http://www.w3.org/1999/xlink" x="0px" y="0px"
	 viewBox="0 0 30 30" style="enable-background:new 0 0 30 30;" xml:space="preserve">
<g id="Armchair_1">
</g>
<g id="Armchair_2">
</g>
<g id="Armchair_3">
</g>
<g id="Armchair_4">
</g>
<g id="Sofa_1">
</g>
<g id="Sofa_2">
</g>
<g id="Sofa_3">
</g>
<g id="Sofa_4">
</g>
<g id="Sofa_5">
</g>
<g id="Sofa_6">
</g>
<g id="Desk_1">
</g>
<g id="Desk_2">
</g>
<g id="Desk_3">
</g>
<g id="Lamp">
</g>
<g id="Bed_1">
</g>
<g id="Bunk_Beds">
</g>
<g id="Bed_2">
</g>
<g id="Bed_3">
</g>
<g id="Bed_4">
</g>
<g id="Bed_5">
</g>
<g id="Table_1">
</g>
<g id="Table_2">
</g>
<g id="Table_3">
</g>
<g id="Table_4">
</g>
<g id="Rug_1">
</g>
<g id="Rug_2">
</g>
<g id="Rug_3">
	<g id="XMLID_249_">
		<g id="XMLID_250_">
			<path d="M10,30c-5.514,0-10-4.43-10-9.875c0-2.638,1.027-5.117,2.893-6.982l10-10C14.86,1.175,17.518,0,20,0
				c5.421,0,10,4.579,10,10c0,2.482-1.175,5.14-3.143,7.107l-10,10C14.965,29,12.594,30,10,30z M20,1c-2.224,0-4.616,1.065-6.4,2.85
				l-10,10C1.923,15.526,1,17.755,1,20.125C1,25.019,5.037,29,10,29c2.323,0,4.449-0.899,6.15-2.6l10-10
				C27.935,14.616,29,12.224,29,10C29,5.121,24.879,1,20,1z"/>
		</g>
		<g id="XMLID_251_">
			<path d="M10,25c-2.71,0-5-2.232-5-4.875c0-1.302,0.507-2.526,1.427-3.447l10-10c0.009-0.009,0.019-0.018,0.028-0.026
				C17.501,5.617,18.824,5,20,5c2.71,0,5,2.29,5,5c0,1.186-0.627,2.521-1.677,3.572l-10,10C12.375,24.52,11.257,25,10,25z
				 M17.109,7.409l-9.976,9.976C6.402,18.117,6,19.09,6,20.125C6,22.226,7.832,24,10,24c0.996,0,1.852-0.371,2.616-1.135l10-10
				C23.285,12.195,24,11.091,24,10c0-2.131-1.869-4-4-4c-1.091,0-2.194,0.715-2.863,1.384C17.128,7.393,17.119,7.401,17.109,7.409z
				 M16.783,7.03h0.01H16.783z"/>
		</g>
	</g>
</g>
<g id="Tub_1">
</g>
<g id="Tub_2">
</g>
<g id="Jacuzzi">
</g>
<g id="Corner_Tub">
</g>
<g id="Shower_Tray">
</g>
<g id="Sink_1">
</g>
<g id="Sink_2">
</g>
<g id="Toilette">
</g>
<g id="Stove">
</g>
<g id="Kitchen_Sink">
</g>
<g id="Island">
</g>
<g id="Eat-in_Kitchen">
</g>
<g id="Tv_Stand">
</g>
</svg>
