<?xml version="1.0" encoding="iso-8859-1"?>
<!-- Generator: Adobe Illustrator 19.2.1, SVG Export Plug-In . SVG Version: 6.00 Build 0)  -->
<svg version="1.1" xmlns="http://www.w3.org/2000/svg" xmlns:xlink="http://www.w3.org/1999/xlink" x="0px" y="0px"
	 viewBox="0 0 30 30" style="enable-background:new 0 0 30 30;" xml:space="preserve">
<g id="Armchair_1">
</g>
<g id="Armchair_2">
</g>
<g id="Armchair_3">
</g>
<g id="Armchair_4">
</g>
<g id="Sofa_1">
</g>
<g id="Sofa_2">
</g>
<g id="Sofa_3">
</g>
<g id="Sofa_4">
</g>
<g id="Sofa_5">
</g>
<g id="Sofa_6">
</g>
<g id="Desk_1">
</g>
<g id="Desk_2">
</g>
<g id="Desk_3">
</g>
<g id="Lamp">
</g>
<g id="Bed_1">
</g>
<g id="Bunk_Beds">
</g>
<g id="Bed_2">
</g>
<g id="Bed_3">
</g>
<g id="Bed_4">
</g>
<g id="Bed_5">
</g>
<g id="Table_1">
</g>
<g id="Table_2">
</g>
<g id="Table_3">
</g>
<g id="Table_4">
</g>
<g id="Rug_1">
</g>
<g id="Rug_2">
</g>
<g id="Rug_3">
</g>
<g id="Tub_1">
</g>
<g id="Tub_2">
</g>
<g id="Jacuzzi">
</g>
<g id="Corner_Tub">
</g>
<g id="Shower_Tray">
	<g id="XMLID_53_">
		<g id="XMLID_171_">
			<path d="M28.5,30h-27C0.673,30,0,29.327,0,28.5v-27C0,0.673,0.673,0,1.5,0h27C29.327,0,30,0.673,30,1.5v27
				C30,29.327,29.327,30,28.5,30z M1.5,1C1.224,1,1,1.225,1,1.5v27C1,28.775,1.224,29,1.5,29h27c0.276,0,0.5-0.225,0.5-0.5v-27
				C29,1.225,28.776,1,28.5,1H1.5z"/>
		</g>
		<g id="XMLID_169_">
			<path d="M22.5,26h-15C5.57,26,4,24.43,4,22.5V7c0-1.794,1.407-3,3.5-3h15C24.43,4,26,5.57,26,7.5v15C26,24.43,24.43,26,22.5,26z
				 M7.5,5C6.292,5,5,5.525,5,7v15.5C5,23.879,6.122,25,7.5,25h15c1.378,0,2.5-1.121,2.5-2.5v-15C25,6.121,23.878,5,22.5,5H7.5z"/>
		</g>
		<g id="XMLID_158_">
			<path d="M7,21c-0.128,0-0.256-0.049-0.354-0.146c-0.195-0.195-0.195-0.512,0-0.707l1-1c0.195-0.195,0.512-0.195,0.707,0
				s0.195,0.512,0,0.707l-1,1C7.256,20.951,7.128,21,7,21z"/>
		</g>
		<g id="XMLID_157_">
			<path d="M8,22.5c-0.128,0-0.256-0.049-0.354-0.146c-0.195-0.195-0.195-0.512,0-0.707l1.5-1.5c0.195-0.195,0.512-0.195,0.707,0
				s0.195,0.512,0,0.707l-1.5,1.5C8.256,22.451,8.128,22.5,8,22.5z"/>
		</g>
		<g id="XMLID_54_">
			<path d="M9.5,23.5c-0.128,0-0.256-0.049-0.354-0.146c-0.195-0.195-0.195-0.512,0-0.707l1-1c0.195-0.195,0.512-0.195,0.707,0
				s0.195,0.512,0,0.707l-1,1C9.756,23.451,9.628,23.5,9.5,23.5z"/>
		</g>
	</g>
</g>
<g id="Sink_1">
</g>
<g id="Sink_2">
</g>
<g id="Toilette">
</g>
<g id="Stove">
</g>
<g id="Kitchen_Sink">
</g>
<g id="Island">
</g>
<g id="Eat-in_Kitchen">
</g>
<g id="Tv_Stand">
</g>
</svg>
