<?xml version="1.0" encoding="iso-8859-1"?>
<!-- Generator: Adobe Illustrator 19.2.1, SVG Export Plug-In . SVG Version: 6.00 Build 0)  -->
<svg version="1.1" xmlns="http://www.w3.org/2000/svg" xmlns:xlink="http://www.w3.org/1999/xlink" x="0px" y="0px"
	 viewBox="0 0 30 30" style="enable-background:new 0 0 30 30;" xml:space="preserve">
<g id="Armchair_1">
</g>
<g id="Armchair_2">
</g>
<g id="Armchair_3">
</g>
<g id="Armchair_4">
</g>
<g id="Sofa_1">
</g>
<g id="Sofa_2">
</g>
<g id="Sofa_3">
</g>
<g id="Sofa_4">
</g>
<g id="Sofa_5">
</g>
<g id="Sofa_6">
	<g id="XMLID_511_">
		<g>
			<path d="M29.5,16.5c-0.2,0-0.389-0.121-0.466-0.319C26.668,10.091,21.028,6,15,6C8.955,6,3.315,10.091,0.967,16.18
				c-0.101,0.257-0.392,0.385-0.646,0.286c-0.258-0.099-0.386-0.389-0.287-0.646C2.53,9.348,8.545,5,15,5
				c6.438,0,12.452,4.348,14.966,10.819c0.101,0.257-0.027,0.547-0.285,0.647C29.622,16.489,29.561,16.5,29.5,16.5z"/>
		</g>
		<g>
			<path d="M26.5,17.5c-0.2,0-0.389-0.121-0.466-0.319C24.043,12.059,19.918,9,15,9c-4.934,0-9.059,3.058-11.033,8.18
				c-0.101,0.257-0.391,0.386-0.646,0.287c-0.258-0.099-0.386-0.389-0.287-0.646C5.163,11.297,9.637,8,15,8
				c5.347,0,9.819,3.297,11.966,8.819c0.101,0.257-0.027,0.547-0.285,0.647C26.622,17.489,26.561,17.5,26.5,17.5z"/>
		</g>
		<g id="XMLID_513_">
			<path d="M23.542,18.592c-0.581,0-1.146-0.301-1.469-0.832C20.617,15.371,18.039,14,15,14c-3.049,0-5.627,1.37-7.072,3.759
				c-0.45,0.746-1.836,1.016-2.613,0.706l-5-2c-0.257-0.103-0.381-0.394-0.278-0.65s0.394-0.382,0.649-0.279l5,2
				c0.372,0.147,1.228-0.032,1.387-0.294C8.703,14.546,11.593,13,15,13c3.396,0,6.285,1.545,7.927,4.24
				c0.186,0.304,0.554,0.429,0.887,0.296l5.516-2.006c0.262-0.096,0.548,0.039,0.641,0.299c0.095,0.26-0.039,0.546-0.299,0.641
				l-5.5,2C23.967,18.552,23.753,18.592,23.542,18.592z"/>
		</g>
		<g>
			<path d="M15,25c-1.93,0-3.5-1.57-3.5-3.5S13.07,18,15,18s3.5,1.57,3.5,3.5S16.93,25,15,25z M15,19c-1.379,0-2.5,1.122-2.5,2.5
				S13.621,24,15,24s2.5-1.122,2.5-2.5S16.379,19,15,19z"/>
		</g>
	</g>
</g>
<g id="Desk_1">
</g>
<g id="Desk_2">
</g>
<g id="Desk_3">
</g>
<g id="Lamp">
</g>
<g id="Bed_1">
</g>
<g id="Bunk_Beds">
</g>
<g id="Bed_2">
</g>
<g id="Bed_3">
</g>
<g id="Bed_4">
</g>
<g id="Bed_5">
</g>
<g id="Table_1">
</g>
<g id="Table_2">
</g>
<g id="Table_3">
</g>
<g id="Table_4">
</g>
<g id="Rug_1">
</g>
<g id="Rug_2">
</g>
<g id="Rug_3">
</g>
<g id="Tub_1">
</g>
<g id="Tub_2">
</g>
<g id="Jacuzzi">
</g>
<g id="Corner_Tub">
</g>
<g id="Shower_Tray">
</g>
<g id="Sink_1">
</g>
<g id="Sink_2">
</g>
<g id="Toilette">
</g>
<g id="Stove">
</g>
<g id="Kitchen_Sink">
</g>
<g id="Island">
</g>
<g id="Eat-in_Kitchen">
</g>
<g id="Tv_Stand">
</g>
</svg>
