<?xml version="1.0" encoding="iso-8859-1"?>
<!-- Generator: Adobe Illustrator 19.2.1, SVG Export Plug-In . SVG Version: 6.00 Build 0)  -->
<svg version="1.1" xmlns="http://www.w3.org/2000/svg" xmlns:xlink="http://www.w3.org/1999/xlink" x="0px" y="0px"
	 viewBox="0 0 30 30" style="enable-background:new 0 0 30 30;" xml:space="preserve">
<g id="Armchair_1">
</g>
<g id="Armchair_2">
</g>
<g id="Armchair_3">
</g>
<g id="Armchair_4">
</g>
<g id="Sofa_1">
</g>
<g id="Sofa_2">
</g>
<g id="Sofa_3">
</g>
<g id="Sofa_4">
	<g id="XMLID_518_">
		<g id="XMLID_520_">
			<path d="M10.5,25H3c-0.276,0-0.5-0.224-0.5-0.5S2.724,24,3,24h7.5c0.416,0,0.5-0.084,0.5-0.5V18c0-1.654,1.346-3,3-3h14.5
				c0.416,0,0.5-0.084,0.5-0.5V7c0-0.276,0.224-0.5,0.5-0.5S30,6.724,30,7v7.5c0,0.967-0.532,1.5-1.5,1.5H14c-1.103,0-2,0.897-2,2
				v5.5C12,24.467,11.468,25,10.5,25z"/>
		</g>
		<g id="XMLID_519_">
			<path d="M3.5,25h-2C0.589,25,0,24.313,0,23.25V15.5C0,9.159,5.383,4,12,4h16.5C29.468,4,30,4.533,30,5.5v2
				C30,8.467,29.468,9,28.5,9H12c-3.99,0-7,2.794-7,6.5v7.75C5,24.313,4.411,25,3.5,25z M12,5C5.935,5,1,9.71,1,15.5v7.75
				C1,23.748,1.168,24,1.5,24h2C3.832,24,4,23.748,4,23.25V15.5C4,11.224,7.439,8,12,8h16.5C28.916,8,29,7.916,29,7.5v-2
				C29,5.084,28.916,5,28.5,5H12z"/>
		</g>
	</g>
</g>
<g id="Sofa_5">
</g>
<g id="Sofa_6">
</g>
<g id="Desk_1">
</g>
<g id="Desk_2">
</g>
<g id="Desk_3">
</g>
<g id="Lamp">
</g>
<g id="Bed_1">
</g>
<g id="Bunk_Beds">
</g>
<g id="Bed_2">
</g>
<g id="Bed_3">
</g>
<g id="Bed_4">
</g>
<g id="Bed_5">
</g>
<g id="Table_1">
</g>
<g id="Table_2">
</g>
<g id="Table_3">
</g>
<g id="Table_4">
</g>
<g id="Rug_1">
</g>
<g id="Rug_2">
</g>
<g id="Rug_3">
</g>
<g id="Tub_1">
</g>
<g id="Tub_2">
</g>
<g id="Jacuzzi">
</g>
<g id="Corner_Tub">
</g>
<g id="Shower_Tray">
</g>
<g id="Sink_1">
</g>
<g id="Sink_2">
</g>
<g id="Toilette">
</g>
<g id="Stove">
</g>
<g id="Kitchen_Sink">
</g>
<g id="Island">
</g>
<g id="Eat-in_Kitchen">
</g>
<g id="Tv_Stand">
</g>
</svg>
