<?xml version="1.0" encoding="iso-8859-1"?>
<!-- Generator: Adobe Illustrator 19.2.1, SVG Export Plug-In . SVG Version: 6.00 Build 0)  -->
<svg version="1.1" xmlns="http://www.w3.org/2000/svg" xmlns:xlink="http://www.w3.org/1999/xlink" x="0px" y="0px"
	 viewBox="0 0 30 30" style="enable-background:new 0 0 30 30;" xml:space="preserve">
<g id="Armchair_1">
</g>
<g id="Armchair_2">
</g>
<g id="Armchair_3">
</g>
<g id="Armchair_4">
</g>
<g id="Sofa_1">
</g>
<g id="Sofa_2">
</g>
<g id="Sofa_3">
	<g id="XMLID_84_">
		<g id="XMLID_85_">
			<path d="M29.5,14h-29C0.224,14,0,13.776,0,13.5v-4C0,9.224,0.224,9,0.5,9h29C29.776,9,30,9.224,30,9.5v4
				C30,13.776,29.776,14,29.5,14z M1,13h28v-3H1V13z"/>
		</g>
		<g id="XMLID_86_">
			<path d="M2.5,20h-2C0.224,20,0,19.776,0,19.5v-6C0,13.224,0.224,13,0.5,13S1,13.224,1,13.5V19h1.5C2.776,19,3,19.224,3,19.5
				S2.776,20,2.5,20z"/>
		</g>
		<g id="XMLID_87_">
			<path d="M29.5,20h-2c-0.276,0-0.5-0.224-0.5-0.5s0.224-0.5,0.5-0.5H29v-5.5c0-0.276,0.224-0.5,0.5-0.5s0.5,0.224,0.5,0.5v6
				C30,19.776,29.776,20,29.5,20z"/>
		</g>
		<g id="XMLID_88_">
			<path d="M26.5,21H20c-0.152,0-0.296-0.069-0.391-0.188L19.5,20.675l-0.109,0.137C19.295,20.931,19.151,21,19,21h-7.875
				c-0.133,0-0.26-0.053-0.354-0.146l-0.23-0.23l-0.15,0.189C10.296,20.931,10.152,21,10,21H3.5c-0.133,0-0.26-0.053-0.354-0.146
				l-1-1C2.053,19.76,2,19.633,2,19.5v-6C2,13.224,2.224,13,2.5,13S3,13.224,3,13.5v5.793L3.707,20H9.76l0.35-0.438
				c0.089-0.111,0.221-0.179,0.363-0.187c0.137-0.009,0.281,0.045,0.381,0.146L11.332,20h7.428l0.352-0.438
				c0.095-0.119,0.238-0.188,0.39-0.188l0,0c0.152,0,0.296,0.069,0.391,0.188L20.24,20h6.053L27,19.293V13.5
				c0-0.276,0.224-0.5,0.5-0.5s0.5,0.224,0.5,0.5v6c0,0.133-0.053,0.26-0.146,0.354l-1,1C26.76,20.947,26.633,21,26.5,21z"/>
		</g>
		<g id="XMLID_89_">
			<path d="M10.5,20.5c-0.276,0-0.5-0.224-0.5-0.5v-6.5c0-0.276,0.224-0.5,0.5-0.5s0.5,0.224,0.5,0.5V20
				C11,20.276,10.776,20.5,10.5,20.5z"/>
		</g>
		<g id="XMLID_90_">
			<path d="M19.5,20.5c-0.276,0-0.5-0.224-0.5-0.5v-6.5c0-0.276,0.224-0.5,0.5-0.5s0.5,0.224,0.5,0.5V20
				C20,20.276,19.776,20.5,19.5,20.5z"/>
		</g>
	</g>
</g>
<g id="Sofa_4">
</g>
<g id="Sofa_5">
</g>
<g id="Sofa_6">
</g>
<g id="Desk_1">
</g>
<g id="Desk_2">
</g>
<g id="Desk_3">
</g>
<g id="Lamp">
</g>
<g id="Bed_1">
</g>
<g id="Bunk_Beds">
</g>
<g id="Bed_2">
</g>
<g id="Bed_3">
</g>
<g id="Bed_4">
</g>
<g id="Bed_5">
</g>
<g id="Table_1">
</g>
<g id="Table_2">
</g>
<g id="Table_3">
</g>
<g id="Table_4">
</g>
<g id="Rug_1">
</g>
<g id="Rug_2">
</g>
<g id="Rug_3">
</g>
<g id="Tub_1">
</g>
<g id="Tub_2">
</g>
<g id="Jacuzzi">
</g>
<g id="Corner_Tub">
</g>
<g id="Shower_Tray">
</g>
<g id="Sink_1">
</g>
<g id="Sink_2">
</g>
<g id="Toilette">
</g>
<g id="Stove">
</g>
<g id="Kitchen_Sink">
</g>
<g id="Island">
</g>
<g id="Eat-in_Kitchen">
</g>
<g id="Tv_Stand">
</g>
</svg>
