<?xml version="1.0" encoding="iso-8859-1"?>
<!-- Generator: Adobe Illustrator 19.2.1, SVG Export Plug-In . SVG Version: 6.00 Build 0)  -->
<svg version="1.1" xmlns="http://www.w3.org/2000/svg" xmlns:xlink="http://www.w3.org/1999/xlink" x="0px" y="0px"
	 viewBox="0 0 30 30" style="enable-background:new 0 0 30 30;" xml:space="preserve">
<g id="Armchair_1">
</g>
<g id="Armchair_2">
</g>
<g id="Armchair_3">
</g>
<g id="Armchair_4">
</g>
<g id="Sofa_1">
</g>
<g id="Sofa_2">
</g>
<g id="Sofa_3">
</g>
<g id="Sofa_4">
</g>
<g id="Sofa_5">
</g>
<g id="Sofa_6">
</g>
<g id="Desk_1">
</g>
<g id="Desk_2">
</g>
<g id="Desk_3">
</g>
<g id="Lamp">
</g>
<g id="Bed_1">
</g>
<g id="Bunk_Beds">
</g>
<g id="Bed_2">
</g>
<g id="Bed_3">
</g>
<g id="Bed_4">
</g>
<g id="Bed_5">
</g>
<g id="Table_1">
</g>
<g id="Table_2">
	<g id="XMLID_418_">
		<g>
			<g id="XMLID_439_">
				<path d="M24.5,19c-0.215,0-0.414-0.14-0.479-0.356c-0.079-0.265,0.071-0.543,0.335-0.622L29,16.628v-3.256l-4.644-1.394
					c-0.265-0.079-0.415-0.357-0.335-0.622s0.355-0.417,0.623-0.335l5,1.5C29.855,12.585,30,12.779,30,13v4
					c0,0.221-0.145,0.415-0.356,0.479l-5,1.5C24.596,18.993,24.547,19,24.5,19z"/>
			</g>
			<g id="XMLID_438_">
				<path d="M28.5,19h-4c-0.276,0-0.5-0.224-0.5-0.5s0.224-0.5,0.5-0.5h4c0.276,0,0.5,0.224,0.5,0.5S28.776,19,28.5,19z"/>
			</g>
			<g id="XMLID_437_">
				<path d="M28.5,12h-4c-0.276,0-0.5-0.224-0.5-0.5s0.224-0.5,0.5-0.5h4c0.276,0,0.5,0.224,0.5,0.5S28.776,12,28.5,12z"/>
			</g>
			<g id="XMLID_429_">
				<path d="M25.5,18.5c-0.276,0-0.5-0.224-0.5-0.5v-6c0-0.276,0.224-0.5,0.5-0.5S26,11.724,26,12v6
					C26,18.276,25.776,18.5,25.5,18.5z"/>
			</g>
		</g>
		<g>
			<g id="XMLID_26_">
				<path d="M5.5,19c-0.047,0-0.096-0.007-0.144-0.021l-5-1.5C0.145,17.415,0,17.221,0,17v-4c0-0.221,0.145-0.415,0.356-0.479l5-1.5
					c0.266-0.082,0.543,0.07,0.623,0.335c0.079,0.265-0.071,0.543-0.335,0.622L1,13.372v3.256l4.644,1.394
					c0.265,0.079,0.415,0.357,0.335,0.622C5.914,18.86,5.715,19,5.5,19z"/>
			</g>
			<g id="XMLID_25_">
				<path d="M5.5,19h-4C1.224,19,1,18.776,1,18.5S1.224,18,1.5,18h4C5.776,18,6,18.224,6,18.5S5.776,19,5.5,19z"/>
			</g>
			<g id="XMLID_24_">
				<path d="M5.5,12h-4C1.224,12,1,11.776,1,11.5S1.224,11,1.5,11h4C5.776,11,6,11.224,6,11.5S5.776,12,5.5,12z"/>
			</g>
			<g id="XMLID_23_">
				<path d="M4.5,18.5C4.224,18.5,4,18.276,4,18v-6c0-0.276,0.224-0.5,0.5-0.5S5,11.724,5,12v6C5,18.276,4.776,18.5,4.5,18.5z"/>
			</g>
		</g>
		<g>
			<g id="XMLID_36_">
				<path d="M7.438,10.5c-0.227,0-0.432-0.155-0.486-0.385L5.75,5.035C5.699,4.82,5.795,4.598,5.987,4.487l3.464-2
					c0.191-0.11,0.432-0.081,0.593,0.068l3.799,3.58c0.201,0.189,0.21,0.506,0.021,0.707s-0.506,0.211-0.707,0.021L9.629,3.539
					l-2.82,1.628l1.116,4.718c0.063,0.269-0.103,0.538-0.372,0.602C7.514,10.496,7.476,10.5,7.438,10.5z"/>
			</g>
			<g id="XMLID_35_">
				<path d="M7.438,10.5c-0.173,0-0.341-0.09-0.434-0.25l-2-3.464C4.867,6.547,4.949,6.241,5.188,6.104
					c0.238-0.14,0.545-0.057,0.683,0.183l2,3.464c0.138,0.239,0.056,0.545-0.183,0.683C7.609,10.479,7.523,10.5,7.438,10.5z"/>
			</g>
			<g id="XMLID_34_">
				<path d="M13.5,7c-0.173,0-0.341-0.09-0.434-0.25l-2-3.464c-0.138-0.239-0.056-0.545,0.183-0.683
					c0.237-0.14,0.544-0.057,0.683,0.183l2,3.464c0.138,0.239,0.056,0.545-0.183,0.683C13.671,6.979,13.585,7,13.5,7z"/>
			</g>
			<g id="XMLID_27_">
				<path d="M7.371,9.384c-0.173,0-0.341-0.09-0.434-0.25C6.799,8.895,6.881,8.589,7.121,8.451l5.196-3
					c0.237-0.14,0.544-0.057,0.683,0.183c0.138,0.239,0.056,0.545-0.183,0.683l-5.196,3C7.542,9.362,7.456,9.384,7.371,9.384z"/>
			</g>
		</g>
		<g>
			<g id="XMLID_47_">
				<path d="M22.563,10.58c-0.038,0-0.077-0.004-0.116-0.014c-0.269-0.063-0.435-0.333-0.372-0.602l1.116-4.718l-2.82-1.628
					l-3.528,3.325c-0.2,0.188-0.518,0.179-0.707-0.021c-0.189-0.201-0.18-0.518,0.021-0.707l3.799-3.58
					c0.161-0.15,0.401-0.179,0.593-0.068l3.464,2c0.191,0.11,0.288,0.333,0.237,0.548l-1.201,5.08
					C22.994,10.425,22.789,10.58,22.563,10.58z"/>
			</g>
			<g id="XMLID_46_">
				<path d="M22.562,10.58c-0.085,0-0.171-0.021-0.25-0.067c-0.239-0.138-0.321-0.443-0.183-0.683l2-3.464
					c0.138-0.239,0.443-0.323,0.683-0.183c0.239,0.138,0.321,0.443,0.183,0.683l-2,3.464C22.902,10.49,22.734,10.58,22.562,10.58z"
					/>
			</g>
			<g id="XMLID_38_">
				<path d="M16.5,7.08c-0.085,0-0.171-0.021-0.25-0.067c-0.239-0.138-0.321-0.443-0.183-0.683l2-3.464
					c0.138-0.238,0.444-0.322,0.683-0.183c0.239,0.138,0.321,0.443,0.183,0.683l-2,3.464C16.84,6.99,16.672,7.08,16.5,7.08z"/>
			</g>
			<g id="XMLID_37_">
				<path d="M22.629,9.464c-0.085,0-0.171-0.021-0.25-0.067l-5.196-3C16.944,6.259,16.862,5.953,17,5.714
					c0.138-0.239,0.444-0.322,0.683-0.183l5.196,3c0.239,0.138,0.321,0.443,0.183,0.683C22.97,9.374,22.802,9.464,22.629,9.464z"/>
			</g>
		</g>
		<g>
			<g id="XMLID_61_">
				<path d="M9.701,27.58c-0.086,0-0.172-0.022-0.25-0.067l-3.464-2c-0.191-0.11-0.288-0.333-0.237-0.548l1.201-5.08
					c0.063-0.269,0.33-0.438,0.602-0.371c0.269,0.063,0.435,0.333,0.372,0.602l-1.116,4.718l2.82,1.628l3.528-3.325
					c0.2-0.188,0.517-0.179,0.707,0.021c0.189,0.201,0.18,0.518-0.021,0.707l-3.799,3.58C9.949,27.533,9.826,27.58,9.701,27.58z"/>
			</g>
			<g id="XMLID_60_">
				<path d="M5.438,23.964c-0.085,0-0.171-0.021-0.25-0.067c-0.239-0.138-0.321-0.443-0.183-0.683l2-3.464
					c0.138-0.239,0.443-0.322,0.683-0.183c0.239,0.138,0.321,0.443,0.183,0.683l-2,3.464C5.778,23.874,5.61,23.964,5.438,23.964z"/>
			</g>
			<g id="XMLID_57_">
				<path d="M11.5,27.464c-0.085,0-0.171-0.021-0.25-0.067c-0.239-0.138-0.321-0.443-0.183-0.683l2-3.464
					c0.138-0.239,0.444-0.323,0.683-0.183c0.239,0.138,0.321,0.443,0.183,0.683l-2,3.464C11.84,27.374,11.672,27.464,11.5,27.464z"
					/>
			</g>
			<g id="XMLID_52_">
				<path d="M12.566,24.616c-0.085,0-0.171-0.021-0.25-0.067l-5.196-3c-0.239-0.138-0.321-0.443-0.183-0.683
					s0.444-0.323,0.683-0.183l5.196,3c0.239,0.138,0.321,0.443,0.183,0.683C12.907,24.526,12.739,24.616,12.566,24.616z"/>
			</g>
		</g>
		<g>
			<g id="XMLID_51_">
				<path d="M20.299,27.58c-0.125,0-0.248-0.047-0.343-0.136l-3.799-3.58c-0.201-0.189-0.21-0.506-0.021-0.707
					c0.189-0.2,0.507-0.21,0.707-0.021l3.528,3.325l2.82-1.628l-1.116-4.718c-0.063-0.269,0.103-0.538,0.372-0.602
					c0.272-0.067,0.538,0.103,0.602,0.371l1.201,5.08c0.051,0.215-0.045,0.438-0.237,0.548l-3.464,2
					C20.471,27.558,20.385,27.58,20.299,27.58z"/>
			</g>
			<g id="XMLID_50_">
				<path d="M24.563,23.964c-0.173,0-0.341-0.09-0.434-0.25l-2-3.464c-0.138-0.239-0.056-0.545,0.183-0.683
					c0.238-0.14,0.544-0.057,0.683,0.183l2,3.464c0.138,0.239,0.056,0.545-0.183,0.683C24.733,23.942,24.647,23.964,24.563,23.964z"
					/>
			</g>
			<g id="XMLID_49_">
				<path d="M18.5,27.464c-0.173,0-0.341-0.09-0.434-0.25l-2-3.464c-0.138-0.239-0.056-0.545,0.183-0.683
					c0.238-0.141,0.544-0.057,0.683,0.183l2,3.464c0.138,0.239,0.056,0.545-0.183,0.683C18.671,27.442,18.585,27.464,18.5,27.464z"
					/>
			</g>
			<g id="XMLID_48_">
				<path d="M17.434,24.616c-0.173,0-0.341-0.09-0.434-0.25c-0.138-0.239-0.056-0.545,0.183-0.683l5.196-3
					c0.238-0.141,0.544-0.057,0.683,0.183c0.138,0.239,0.056,0.545-0.183,0.683l-5.196,3C17.604,24.595,17.519,24.616,17.434,24.616
					z"/>
			</g>
		</g>
	</g>
	<g>
		<path d="M15,22c-4.794,0-9-3.271-9-7s4.206-7,9-7s9,3.271,9,7S19.794,22,15,22z M15,9c-4.262,0-8,2.804-8,6s3.738,6,8,6
			s8-2.804,8-6S19.262,9,15,9z"/>
	</g>
</g>
<g id="Table_3">
</g>
<g id="Table_4">
</g>
<g id="Rug_1">
</g>
<g id="Rug_2">
</g>
<g id="Rug_3">
</g>
<g id="Tub_1">
</g>
<g id="Tub_2">
</g>
<g id="Jacuzzi">
</g>
<g id="Corner_Tub">
</g>
<g id="Shower_Tray">
</g>
<g id="Sink_1">
</g>
<g id="Sink_2">
</g>
<g id="Toilette">
</g>
<g id="Stove">
</g>
<g id="Kitchen_Sink">
</g>
<g id="Island">
</g>
<g id="Eat-in_Kitchen">
</g>
<g id="Tv_Stand">
</g>
</svg>
