<?xml version="1.0" encoding="iso-8859-1"?>
<!-- Generator: Adobe Illustrator 19.2.1, SVG Export Plug-In . SVG Version: 6.00 Build 0)  -->
<svg version="1.1" xmlns="http://www.w3.org/2000/svg" xmlns:xlink="http://www.w3.org/1999/xlink" x="0px" y="0px"
	 viewBox="0 0 30 30" style="enable-background:new 0 0 30 30;" xml:space="preserve">
<g id="Armchair_1">
</g>
<g id="Armchair_2">
</g>
<g id="Armchair_3">
</g>
<g id="Armchair_4">
</g>
<g id="Sofa_1">
</g>
<g id="Sofa_2">
</g>
<g id="Sofa_3">
</g>
<g id="Sofa_4">
</g>
<g id="Sofa_5">
</g>
<g id="Sofa_6">
</g>
<g id="Desk_1">
</g>
<g id="Desk_2">
</g>
<g id="Desk_3">
</g>
<g id="Lamp">
</g>
<g id="Bed_1">
</g>
<g id="Bunk_Beds">
</g>
<g id="Bed_2">
</g>
<g id="Bed_3">
</g>
<g id="Bed_4">
</g>
<g id="Bed_5">
</g>
<g id="Table_1">
</g>
<g id="Table_2">
</g>
<g id="Table_3">
</g>
<g id="Table_4">
</g>
<g id="Rug_1">
</g>
<g id="Rug_2">
</g>
<g id="Rug_3">
</g>
<g id="Tub_1">
</g>
<g id="Tub_2">
</g>
<g id="Jacuzzi">
</g>
<g id="Corner_Tub">
</g>
<g id="Shower_Tray">
</g>
<g id="Sink_1">
</g>
<g id="Sink_2">
</g>
<g id="Toilette">
	<g id="XMLID_323_">
		<g id="XMLID_324_">
			<path d="M15,30c-5.396,0-9.954-5.978-9.954-13.053c0-3.346,1.002-6.212,3.065-8.762C8.206,8.068,8.349,8,8.5,8h13
				c0.151,0,0.294,0.068,0.389,0.186c2.063,2.55,3.065,5.416,3.065,8.762C24.954,24.022,20.396,30,15,30z M8.741,9
				c-1.837,2.346-2.695,4.877-2.695,7.947C6.046,23.48,10.146,29,15,29s8.954-5.52,8.954-12.053c0-3.07-0.857-5.602-2.695-7.947
				H8.741z"/>
		</g>
		<g id="XMLID_325_">
			<path d="M26.5,9h-23C2.673,9,2,8.327,2,7.5v-6C2,0.673,2.673,0,3.5,0h23C27.327,0,28,0.673,28,1.5v6C28,8.327,27.327,9,26.5,9z
				 M3.5,1C3.224,1,3,1.225,3,1.5v6C3,7.775,3.224,8,3.5,8h23C26.776,8,27,7.775,27,7.5v-6C27,1.225,26.776,1,26.5,1H3.5z"/>
		</g>
		<g id="XMLID_327_">
			<path d="M15,26c-1.318,0-3-1.683-3-3v-0.5c0-0.276,0.224-0.5,0.5-0.5h5c0.276,0,0.5,0.224,0.5,0.5V23C18,24.317,16.318,26,15,26z
				 M13,23c0,0.767,1.233,2,2,2s2-1.233,2-2H13z"/>
		</g>
	</g>
	<g>
		<path d="M15,28c-4.411,0-8-4.037-8-9s3.589-9,8-9s8,4.037,8,9S19.411,28,15,28z M15,11c-3.86,0-7,3.589-7,8s3.14,8,7,8
			s7-3.589,7-8S18.86,11,15,11z"/>
	</g>
</g>
<g id="Stove">
</g>
<g id="Kitchen_Sink">
</g>
<g id="Island">
</g>
<g id="Eat-in_Kitchen">
</g>
<g id="Tv_Stand">
</g>
</svg>
