<?xml version="1.0" encoding="iso-8859-1"?>
<!-- Generator: Adobe Illustrator 19.2.1, SVG Export Plug-In . SVG Version: 6.00 Build 0)  -->
<svg version="1.1" xmlns="http://www.w3.org/2000/svg" xmlns:xlink="http://www.w3.org/1999/xlink" x="0px" y="0px"
	 viewBox="0 0 30 30" style="enable-background:new 0 0 30 30;" xml:space="preserve">
<g id="Armchair_1">
</g>
<g id="Armchair_2">
</g>
<g id="Armchair_3">
</g>
<g id="Armchair_4">
</g>
<g id="Sofa_1">
</g>
<g id="Sofa_2">
</g>
<g id="Sofa_3">
</g>
<g id="Sofa_4">
</g>
<g id="Sofa_5">
</g>
<g id="Sofa_6">
</g>
<g id="Desk_1">
</g>
<g id="Desk_2">
</g>
<g id="Desk_3">
</g>
<g id="Lamp">
</g>
<g id="Bed_1">
</g>
<g id="Bunk_Beds">
</g>
<g id="Bed_2">
</g>
<g id="Bed_3">
</g>
<g id="Bed_4">
</g>
<g id="Bed_5">
</g>
<g id="Table_1">
</g>
<g id="Table_2">
</g>
<g id="Table_3">
</g>
<g id="Table_4">
</g>
<g id="Rug_1">
</g>
<g id="Rug_2">
</g>
<g id="Rug_3">
</g>
<g id="Tub_1">
</g>
<g id="Tub_2">
	<g id="XMLID_261_">
		<g id="XMLID_262_">
			<g id="XMLID_263_">
				<path d="M14.5,6C14.224,6,14,5.776,14,5.5v-5C14,0.224,14.224,0,14.5,0S15,0.224,15,0.5v5C15,5.776,14.776,6,14.5,6z"/>
			</g>
			<g id="XMLID_265_">
				<path d="M17,3.5c-0.276,0-0.5-0.224-0.5-0.5c0-0.7-0.436-0.939-0.583-1h-2.82C12.931,2.078,12.5,2.346,12.5,3
					c0,0.276-0.224,0.5-0.5,0.5S11.5,3.276,11.5,3c0-1.517,1.289-1.957,1.344-1.975C12.895,1.009,12.947,1,13,1h3
					c0.044,0,0.088,0.006,0.13,0.018C16.604,1.145,17.5,1.724,17.5,3C17.5,3.276,17.276,3.5,17,3.5z"/>
			</g>
			<g id="XMLID_266_">
				<path d="M14.5,30C9.813,30,6,26.636,6,22.5V5c0-2.035,1.739-3.488,3.354-3.979c0.27-0.08,0.544,0.069,0.624,0.333
					c0.08,0.265-0.069,0.544-0.333,0.624C8.331,2.377,7,3.543,7,5v17.5c0,4.015,3.893,6.5,7.5,6.5s7.5-2.485,7.5-6.5V5
					c0-1.452-1.331-2.619-2.646-3.021c-0.264-0.081-0.412-0.36-0.332-0.625c0.081-0.263,0.356-0.412,0.625-0.332
					C21.262,1.516,23,2.972,23,5v17.5C23,26.636,19.187,30,14.5,30z"/>
			</g>
			<g id="XMLID_267_">
				<path d="M16.5,2h-4C12.224,2,12,1.776,12,1.5v-1C12,0.224,12.224,0,12.5,0h4C16.776,0,17,0.224,17,0.5v1
					C17,1.776,16.776,2,16.5,2z M13,1h3H13z"/>
			</g>
		</g>
		<g id="XMLID_274_">
			<path d="M7,3.5c-0.128,0-0.256-0.049-0.354-0.146l-1-1c-0.195-0.195-0.195-0.512,0-0.707s0.512-0.195,0.707,0l1,1
				c0.195,0.195,0.195,0.512,0,0.707C7.256,3.451,7.128,3.5,7,3.5z"/>
		</g>
		<g id="XMLID_275_">
			<path d="M5.717,2.676c-0.387,0-0.818-0.187-1.173-0.541C3.945,1.536,3.826,0.719,4.272,0.272C4.72-0.175,5.537-0.053,6.135,0.544
				C6.733,1.143,6.853,1.96,6.406,2.406C6.225,2.588,5.981,2.676,5.717,2.676z M4.948,1.001c0.043,0,0.083,0.207,0.303,0.427
				c0.225,0.225,0.436,0.265,0.482,0.249C5.709,1.666,5.651,1.475,5.428,1.251c-0.222-0.223-0.437-0.264-0.481-0.25
				C4.946,1.001,4.947,1.001,4.948,1.001z"/>
		</g>
		<g id="XMLID_110_">
			<path d="M22,3.5c-0.128,0-0.256-0.049-0.354-0.146c-0.195-0.195-0.195-0.512,0-0.707l1-1c0.195-0.195,0.512-0.195,0.707,0
				s0.195,0.512,0,0.707l-1,1C22.256,3.451,22.128,3.5,22,3.5z"/>
		</g>
		<g id="XMLID_106_">
			<path d="M23.283,2.676c-0.265,0-0.508-0.088-0.689-0.27c-0.446-0.446-0.327-1.264,0.271-1.862
				c0.598-0.597,1.415-0.719,1.862-0.271c0.446,0.446,0.327,1.264-0.271,1.862C24.102,2.489,23.67,2.676,23.283,2.676z
				 M23.999,0.946c0.008,0.043-0.203,0.081-0.427,0.305s-0.262,0.435-0.249,0.482c-0.009-0.044,0.202-0.082,0.426-0.306
				S24.011,0.993,23.999,0.946z"/>
		</g>
		<g id="XMLID_114_">
			<path d="M6,28.5c-0.128,0-0.256-0.049-0.354-0.146c-0.195-0.195-0.195-0.512,0-0.707l1.5-1.5c0.195-0.195,0.512-0.195,0.707,0
				s0.195,0.512,0,0.707l-1.5,1.5C6.256,28.451,6.128,28.5,6,28.5z"/>
		</g>
		<g id="XMLID_113_">
			<path d="M4.962,29.997c-0.265,0-0.508-0.088-0.689-0.27c-0.446-0.446-0.327-1.264,0.271-1.862
				c0.597-0.598,1.415-0.719,1.862-0.271c0.446,0.446,0.327,1.264-0.271,1.862C5.78,29.811,5.349,29.997,4.962,29.997z
				 M5.677,28.267c0.009,0.044-0.202,0.082-0.426,0.306s-0.262,0.435-0.25,0.481c-0.008-0.043,0.203-0.081,0.427-0.305
				S5.689,28.314,5.677,28.267z"/>
		</g>
		<g id="XMLID_112_">
			<path d="M23,28.5c-0.128,0-0.256-0.049-0.354-0.146l-1.5-1.5c-0.195-0.195-0.195-0.512,0-0.707s0.512-0.195,0.707,0l1.5,1.5
				c0.195,0.195,0.195,0.512,0,0.707C23.256,28.451,23.128,28.5,23,28.5z"/>
		</g>
		<g id="XMLID_111_">
			<path d="M24.038,29.997c-0.387,0-0.818-0.187-1.173-0.541c-0.599-0.599-0.718-1.416-0.271-1.862
				c0.447-0.447,1.266-0.326,1.862,0.271c0.599,0.599,0.718,1.416,0.271,1.862C24.546,29.909,24.303,29.997,24.038,29.997z
				 M23.27,28.322c0.043,0,0.084,0.208,0.303,0.427c0.222,0.222,0.428,0.256,0.481,0.25c-0.02,0.001-0.08-0.202-0.305-0.427
				s-0.438-0.268-0.482-0.249C23.268,28.323,23.269,28.322,23.27,28.322z"/>
		</g>
		<g>
			<circle cx="14.5" cy="7.5" r="0.5"/>
		</g>
		<g>
			<circle cx="14.5" cy="9.5" r="0.5"/>
		</g>
		<g>
			<circle cx="15.5" cy="8.5" r="0.5"/>
		</g>
		<g>
			<circle cx="13.5" cy="8.5" r="0.5"/>
		</g>
	</g>
</g>
<g id="Jacuzzi">
</g>
<g id="Corner_Tub">
</g>
<g id="Shower_Tray">
</g>
<g id="Sink_1">
</g>
<g id="Sink_2">
</g>
<g id="Toilette">
</g>
<g id="Stove">
</g>
<g id="Kitchen_Sink">
</g>
<g id="Island">
</g>
<g id="Eat-in_Kitchen">
</g>
<g id="Tv_Stand">
</g>
</svg>
