<?xml version="1.0" encoding="iso-8859-1"?>
<!-- Generator: Adobe Illustrator 19.2.1, SVG Export Plug-In . SVG Version: 6.00 Build 0)  -->
<svg version="1.1" xmlns="http://www.w3.org/2000/svg" xmlns:xlink="http://www.w3.org/1999/xlink" x="0px" y="0px"
	 viewBox="0 0 30 30" style="enable-background:new 0 0 30 30;" xml:space="preserve">
<g id="Armchair_1">
</g>
<g id="Armchair_2">
</g>
<g id="Armchair_3">
</g>
<g id="Armchair_4">
</g>
<g id="Sofa_1">
</g>
<g id="Sofa_2">
</g>
<g id="Sofa_3">
</g>
<g id="Sofa_4">
</g>
<g id="Sofa_5">
</g>
<g id="Sofa_6">
</g>
<g id="Desk_1">
</g>
<g id="Desk_2">
</g>
<g id="Desk_3">
</g>
<g id="Lamp">
</g>
<g id="Bed_1">
</g>
<g id="Bunk_Beds">
</g>
<g id="Bed_2">
</g>
<g id="Bed_3">
</g>
<g id="Bed_4">
</g>
<g id="Bed_5">
</g>
<g id="Table_1">
</g>
<g id="Table_2">
</g>
<g id="Table_3">
</g>
<g id="Table_4">
</g>
<g id="Rug_1">
</g>
<g id="Rug_2">
</g>
<g id="Rug_3">
</g>
<g id="Tub_1">
	<g id="XMLID_378_">
		<g id="XMLID_384_">
			<path d="M14.5,6C14.224,6,14,5.776,14,5.5v-5C14,0.224,14.224,0,14.5,0S15,0.224,15,0.5v5C15,5.776,14.776,6,14.5,6z"/>
		</g>
		<g id="XMLID_383_">
			<path d="M15,2h-1.5C13.224,2,13,1.776,13,1.5v-1C13,0.224,13.224,0,13.5,0H15c0.276,0,0.5,0.224,0.5,0.5v1
				C15.5,1.776,15.276,2,15,2z"/>
		</g>
		<g id="XMLID_382_">
			<path d="M17,3.5c-0.276,0-0.5-0.224-0.5-0.5c0-0.7-0.436-0.939-0.583-1h-2.82C12.931,2.078,12.5,2.346,12.5,3
				c0,0.276-0.224,0.5-0.5,0.5S11.5,3.276,11.5,3c0-1.517,1.289-1.957,1.344-1.975C12.895,1.009,12.947,1,13,1h3
				c0.044,0,0.088,0.006,0.13,0.018C16.604,1.145,17.5,1.724,17.5,3C17.5,3.276,17.276,3.5,17,3.5z"/>
		</g>
		<g id="XMLID_381_">
			<path d="M23.5,30h-18C5.224,30,5,29.776,5,29.5v-29C5,0.224,5.224,0,5.5,0h5C10.776,0,11,0.224,11,0.5S10.776,1,10.5,1H6v28h17V1
				h-4.5C18.224,1,18,0.776,18,0.5S18.224,0,18.5,0h5C23.776,0,24,0.224,24,0.5v29C24,29.776,23.776,30,23.5,30z"/>
		</g>
		<g id="XMLID_380_">
			<path d="M14.5,27C10.612,27,8,24.589,8,21V7c0-1.215,0.645-3.047,1.686-3.889c0.215-0.175,0.53-0.141,0.703,0.074
				c0.174,0.215,0.141,0.529-0.074,0.703C9.614,4.455,9,5.908,9,7v14c0,3.037,2.159,5,5.5,5s5.5-1.963,5.5-5V7
				c0-1.092-0.614-2.545-1.314-3.111c-0.215-0.174-0.248-0.488-0.074-0.703s0.487-0.249,0.703-0.074C20.355,3.953,21,5.785,21,7v14
				C21,24.589,18.388,27,14.5,27z"/>
		</g>
		<g id="XMLID_379_">
			<path d="M15.5,2h-2C13.224,2,13,1.776,13,1.5v-1C13,0.224,13.224,0,13.5,0h2C15.776,0,16,0.224,16,0.5v1
				C16,1.776,15.776,2,15.5,2z M14,1h1H14z"/>
		</g>
		<g>
			<circle cx="14.5" cy="8.5" r="0.5"/>
		</g>
	</g>
</g>
<g id="Tub_2">
</g>
<g id="Jacuzzi">
</g>
<g id="Corner_Tub">
</g>
<g id="Shower_Tray">
</g>
<g id="Sink_1">
</g>
<g id="Sink_2">
</g>
<g id="Toilette">
</g>
<g id="Stove">
</g>
<g id="Kitchen_Sink">
</g>
<g id="Island">
</g>
<g id="Eat-in_Kitchen">
</g>
<g id="Tv_Stand">
</g>
</svg>
