<?xml version="1.0" encoding="iso-8859-1"?>
<!-- Generator: Adobe Illustrator 19.2.1, SVG Export Plug-In . SVG Version: 6.00 Build 0)  -->
<svg version="1.1" xmlns="http://www.w3.org/2000/svg" xmlns:xlink="http://www.w3.org/1999/xlink" x="0px" y="0px"
	 viewBox="0 0 30 30" style="enable-background:new 0 0 30 30;" xml:space="preserve">
<g id="Event">
</g>
<g id="Event_2">
</g>
<g id="Add_Event">
	<g>
		<g>
			<path d="M6.5,3C6.224,3,6,2.776,6,2.5v-2C6,0.224,6.224,0,6.5,0S7,0.224,7,0.5v2C7,2.776,6.776,3,6.5,3z"/>
		</g>
		<g>
			<path d="M16.5,3C16.224,3,16,2.776,16,2.5v-2C16,0.224,16.224,0,16.5,0S17,0.224,17,0.5v2C17,2.776,16.776,3,16.5,3z"/>
		</g>
		<g>
			<path d="M22.5,6h-22C0.224,6,0,5.776,0,5.5S0.224,5,0.5,5h22C22.776,5,23,5.224,23,5.5S22.776,6,22.5,6z"/>
		</g>
		<g>
			<path d="M15.5,24h-11C2.019,24,0,21.981,0,19.5v-14C0,3.019,2.019,1,4.5,1h14C20.981,1,23,3.019,23,5.5v10
				c0,0.276-0.224,0.5-0.5,0.5S22,15.776,22,15.5v-10C22,3.57,20.43,2,18.5,2h-14C2.57,2,1,3.57,1,5.5v14C1,21.43,2.57,23,4.5,23h11
				c0.276,0,0.5,0.224,0.5,0.5S15.776,24,15.5,24z"/>
		</g>
		<g>
			<path d="M23.5,26c-0.276,0-0.5-0.224-0.5-0.5v-4c0-0.276,0.224-0.5,0.5-0.5s0.5,0.224,0.5,0.5v4C24,25.776,23.776,26,23.5,26z"/>
		</g>
		<g>
			<path d="M25.5,24h-4c-0.276,0-0.5-0.224-0.5-0.5s0.224-0.5,0.5-0.5h4c0.276,0,0.5,0.224,0.5,0.5S25.776,24,25.5,24z"/>
		</g>
		<g>
			<path d="M11.5,16c-1.654,0-3-1.346-3-3c0-1.471,0.521-2.654,0.543-2.704C9.124,10.116,9.303,10,9.5,10h4
				c0.197,0,0.376,0.116,0.457,0.296C13.979,10.346,14.5,11.529,14.5,13C14.5,14.654,13.154,16,11.5,16z M9.845,11
				C9.71,11.396,9.5,12.149,9.5,13c0,1.103,0.897,2,2,2s2-0.897,2-2c0-0.851-0.21-1.604-0.345-2H9.845z"/>
		</g>
		<g>
			<path d="M11.5,18.5c-0.276,0-0.5-0.224-0.5-0.5v-2.5c0-0.276,0.224-0.5,0.5-0.5s0.5,0.224,0.5,0.5V18
				C12,18.276,11.776,18.5,11.5,18.5z"/>
		</g>
		<g>
			<path d="M12.5,19h-2c-0.276,0-0.5-0.224-0.5-0.5s0.224-0.5,0.5-0.5h2c0.276,0,0.5,0.224,0.5,0.5S12.776,19,12.5,19z"/>
		</g>
		<g>
			<path d="M23.5,30c-3.584,0-6.5-2.916-6.5-6.5s2.916-6.5,6.5-6.5s6.5,2.916,6.5,6.5S27.084,30,23.5,30z M23.5,18
				c-3.033,0-5.5,2.467-5.5,5.5s2.467,5.5,5.5,5.5s5.5-2.467,5.5-5.5S26.533,18,23.5,18z"/>
		</g>
	</g>
</g>
<g id="Remove_Event">
</g>
<g id="Event_Reminder">
</g>
<g id="Wine_Glass">
</g>
<g id="Toast">
</g>
<g id="Champagne">
</g>
<g id="Champagne_Open">
</g>
<g id="Alcohol_Drink">
</g>
<g id="Beer_Glass">
</g>
<g id="Party_Cake">
</g>
<g id="Pizza_Food">
</g>
<g id="Disco_Ball">
</g>
<g id="Equalizer">
</g>
<g id="DJ">
</g>
<g id="Tent">
</g>
<g id="Firework_1">
</g>
<g id="Firework_2">
</g>
<g id="Party_Glasses">
</g>
<g id="Barbeque">
</g>
<g id="Horn">
</g>
<g id="Speaker">
</g>
<g id="VIP">
</g>
<g id="Event_Ticket">
</g>
<g id="VIP_Ticket">
</g>
<g id="Popcorn">
</g>
<g id="Cord">
</g>
<g id="Invitation_1">
</g>
<g id="Invitation_2">
</g>
</svg>
