<?xml version="1.0" encoding="iso-8859-1"?>
<!-- Generator: Adobe Illustrator 19.2.1, SVG Export Plug-In . SVG Version: 6.00 Build 0)  -->
<svg version="1.1" xmlns="http://www.w3.org/2000/svg" xmlns:xlink="http://www.w3.org/1999/xlink" x="0px" y="0px"
	 viewBox="0 0 30 30" style="enable-background:new 0 0 30 30;" xml:space="preserve">
<g id="Event">
</g>
<g id="Event_2">
</g>
<g id="Add_Event">
</g>
<g id="Remove_Event">
</g>
<g id="Event_Reminder">
</g>
<g id="Wine_Glass">
</g>
<g id="Toast">
</g>
<g id="Champagne">
</g>
<g id="Champagne_Open">
</g>
<g id="Alcohol_Drink">
</g>
<g id="Beer_Glass">
	<g>
		<g>
			<path d="M16.5,30h-12C2.019,30,0,27.981,0,25.5v-24C0,0.673,0.673,0,1.5,0h18C20.327,0,21,0.673,21,1.5v24
				C21,27.981,18.981,30,16.5,30z M1.5,1C1.224,1,1,1.224,1,1.5v24C1,27.43,2.57,29,4.5,29h12c1.93,0,3.5-1.57,3.5-3.5v-24
				C20,1.224,19.776,1,19.5,1H1.5z"/>
		</g>
		<g>
			<path d="M5.5,24C5.224,24,5,23.776,5,23.5v-17C5,6.224,5.224,6,5.5,6S6,6.224,6,6.5v17C6,23.776,5.776,24,5.5,24z"/>
		</g>
		<g>
			<path d="M10.5,24c-0.276,0-0.5-0.224-0.5-0.5v-17C10,6.224,10.224,6,10.5,6S11,6.224,11,6.5v17C11,23.776,10.776,24,10.5,24z"/>
		</g>
		<g>
			<path d="M15.5,24c-0.276,0-0.5-0.224-0.5-0.5v-17C15,6.224,15.224,6,15.5,6S16,6.224,16,6.5v17C16,23.776,15.776,24,15.5,24z"/>
		</g>
		<g>
			<path d="M20.5,22c-0.197,0-0.384-0.118-0.463-0.313c-0.104-0.256,0.02-0.547,0.275-0.65C20.399,21.001,29,17.44,29,11.5
				c0-1.918-0.508-3.183-1.511-3.759c-2.341-1.345-6.693,1.165-6.737,1.19c-0.238,0.141-0.544,0.059-0.684-0.18
				c-0.139-0.238-0.059-0.544,0.18-0.684c0.198-0.116,4.902-2.824,7.739-1.194C29.323,7.641,30,9.197,30,11.5
				c0,6.615-8.932,10.31-9.313,10.464C20.626,21.988,20.563,22,20.5,22z"/>
		</g>
	</g>
</g>
<g id="Party_Cake">
</g>
<g id="Pizza_Food">
</g>
<g id="Disco_Ball">
</g>
<g id="Equalizer">
</g>
<g id="DJ">
</g>
<g id="Tent">
</g>
<g id="Firework_1">
</g>
<g id="Firework_2">
</g>
<g id="Party_Glasses">
</g>
<g id="Barbeque">
</g>
<g id="Horn">
</g>
<g id="Speaker">
</g>
<g id="VIP">
</g>
<g id="Event_Ticket">
</g>
<g id="VIP_Ticket">
</g>
<g id="Popcorn">
</g>
<g id="Cord">
</g>
<g id="Invitation_1">
</g>
<g id="Invitation_2">
</g>
</svg>
