<?xml version="1.0" encoding="iso-8859-1"?>
<!-- Generator: Adobe Illustrator 19.2.1, SVG Export Plug-In . SVG Version: 6.00 Build 0)  -->
<svg version="1.1" xmlns="http://www.w3.org/2000/svg" xmlns:xlink="http://www.w3.org/1999/xlink" x="0px" y="0px"
	 viewBox="0 0 30 30" style="enable-background:new 0 0 30 30;" xml:space="preserve">
<g id="Event">
</g>
<g id="Event_2">
</g>
<g id="Add_Event">
</g>
<g id="Remove_Event">
</g>
<g id="Event_Reminder">
</g>
<g id="Wine_Glass">
</g>
<g id="Toast">
</g>
<g id="Champagne">
	<g>
		<g>
			<path d="M11.49,30h-4c-1.379,0-2.5-1.122-2.5-2.5v-8c0-2.415,0.45-4.287,0.928-6.269C6.445,11.04,6.99,8.773,6.99,5.5V2
				c0-1.103,0.897-2,2-2h1c1.103,0,2,0.897,2,2v3.5c0,3.239,0.545,5.515,1.071,7.715c0.478,1.996,0.929,3.88,0.929,6.285v8
				C13.99,28.878,12.869,30,11.49,30z M8.99,1c-0.552,0-1,0.449-1,1v3.5c0,3.392-0.56,5.717-1.101,7.965
				C6.427,15.388,5.99,17.204,5.99,19.5v8c0,0.827,0.673,1.5,1.5,1.5h4c0.827,0,1.5-0.673,1.5-1.5v-8
				c0-2.287-0.438-4.116-0.901-6.052c-0.54-2.257-1.099-4.59-1.099-7.948V2c0-0.551-0.448-1-1-1H8.99z"/>
		</g>
		<g>
			<path d="M5.486,21.015c-0.275,0-0.496-0.239-0.496-0.515c0-1.038,1.388-1.5,4.5-1.5s4.5,0.462,4.5,1.5c0,0.276-0.224,0.5-0.5,0.5
				c-0.269,0-0.488-0.212-0.5-0.479C12.932,20.454,12.424,20,9.49,20c-3.155,0-3.504,0.524-3.507,0.53
				C5.983,20.806,5.763,21.015,5.486,21.015z"/>
		</g>
		<g>
			<path d="M13.49,26h-8c-0.276,0-0.5-0.224-0.5-0.5S5.214,25,5.49,25h8c0.276,0,0.5,0.224,0.5,0.5S13.767,26,13.49,26z"/>
		</g>
		<g>
			<path d="M22.49,30h-4c-0.276,0-0.5-0.224-0.5-0.5s0.224-0.5,0.5-0.5h4c0.276,0,0.5,0.224,0.5,0.5S22.767,30,22.49,30z"/>
		</g>
		<g>
			<path d="M20.49,30c-0.276,0-0.5-0.224-0.5-0.5v-5c0-0.276,0.224-0.5,0.5-0.5s0.5,0.224,0.5,0.5v5
				C20.99,29.776,20.767,30,20.49,30z"/>
		</g>
	</g>
	<g>
		<path d="M20.49,25c-0.98,0-1.976-0.447-2.66-1.197c-0.616-0.675-0.914-1.509-0.838-2.348l1.002-8.017
			C18.025,13.188,18.238,13,18.49,13h4c0.252,0,0.465,0.188,0.496,0.438l1,8c0.078,0.856-0.22,1.69-0.836,2.365
			C22.466,24.553,21.471,25,20.49,25z M18.932,14l-0.945,7.562c-0.049,0.539,0.157,1.102,0.582,1.567
			C19.067,23.674,19.785,24,20.49,24s1.423-0.326,1.922-0.871c0.425-0.465,0.631-1.028,0.58-1.584L22.049,14H18.932z"/>
	</g>
</g>
<g id="Champagne_Open">
</g>
<g id="Alcohol_Drink">
</g>
<g id="Beer_Glass">
</g>
<g id="Party_Cake">
</g>
<g id="Pizza_Food">
</g>
<g id="Disco_Ball">
</g>
<g id="Equalizer">
</g>
<g id="DJ">
</g>
<g id="Tent">
</g>
<g id="Firework_1">
</g>
<g id="Firework_2">
</g>
<g id="Party_Glasses">
</g>
<g id="Barbeque">
</g>
<g id="Horn">
</g>
<g id="Speaker">
</g>
<g id="VIP">
</g>
<g id="Event_Ticket">
</g>
<g id="VIP_Ticket">
</g>
<g id="Popcorn">
</g>
<g id="Cord">
</g>
<g id="Invitation_1">
</g>
<g id="Invitation_2">
</g>
</svg>
