<?xml version="1.0" encoding="iso-8859-1"?>
<!-- Generator: Adobe Illustrator 19.2.1, SVG Export Plug-In . SVG Version: 6.00 Build 0)  -->
<svg version="1.1" xmlns="http://www.w3.org/2000/svg" xmlns:xlink="http://www.w3.org/1999/xlink" x="0px" y="0px"
	 viewBox="0 0 30 30" style="enable-background:new 0 0 30 30;" xml:space="preserve">
<g id="Event">
</g>
<g id="Event_2">
</g>
<g id="Add_Event">
</g>
<g id="Remove_Event">
</g>
<g id="Event_Reminder">
</g>
<g id="Wine_Glass">
</g>
<g id="Toast">
</g>
<g id="Champagne">
</g>
<g id="Champagne_Open">
	<g>
		<g>
			<path d="M5.328,30c-0.667,0-1.295-0.26-1.768-0.732l-2.828-2.828C0.26,25.967,0,25.339,0,24.671c0-0.667,0.26-1.295,0.732-1.768
				l5.656-5.657c1.708-1.708,3.351-2.713,5.089-3.777c1.923-1.177,3.911-2.394,6.226-4.708l2.475-2.475
				c0.779-0.779,2.049-0.779,2.828,0l0.707,0.708c0.378,0.377,0.586,0.879,0.586,1.414c0,0.534-0.208,1.036-0.586,1.414
				l-2.475,2.475c-2.29,2.291-3.514,4.284-4.697,6.212c-1.073,1.749-2.087,3.4-3.788,5.101l-5.657,5.657
				C6.624,29.74,5.996,30,5.328,30z M21.592,6.702c-0.256,0-0.512,0.097-0.707,0.292L18.41,9.469
				c-2.398,2.398-4.438,3.647-6.41,4.854c-1.688,1.033-3.28,2.008-4.904,3.631l-5.656,5.657c-0.585,0.585-0.585,1.537,0,2.122
				l2.828,2.828c0.567,0.567,1.556,0.567,2.121,0l5.657-5.657c1.617-1.617,2.602-3.22,3.643-4.917
				c1.214-1.978,2.469-4.022,4.843-6.396l2.475-2.475c0.188-0.189,0.293-0.44,0.293-0.707s-0.104-0.518-0.293-0.707l-0.707-0.708
				C22.104,6.799,21.848,6.702,21.592,6.702z"/>
		</g>
		<g>
			<path d="M11.692,24.464c-0.128,0-0.256-0.049-0.354-0.146c-0.19-0.19-0.195-0.496-0.015-0.691c0.006-0.09-0.033-0.77-2.106-2.844
				c-2.222-2.222-2.843-2.102-2.855-2.105c-0.195,0.194-0.498,0.187-0.693-0.008c-0.195-0.195-0.183-0.52,0.013-0.715
				c0.735-0.733,2.043-0.079,4.243,2.121c2.2,2.201,2.854,3.51,2.121,4.243C11.948,24.416,11.82,24.464,11.692,24.464z"/>
		</g>
		<g>
			<path d="M8.157,28c-0.128,0-0.256-0.049-0.354-0.146l-5.657-5.657c-0.195-0.195-0.195-0.512,0-0.707s0.512-0.195,0.707,0
				l5.657,5.657c0.195,0.195,0.195,0.512,0,0.707C8.413,27.951,8.285,28,8.157,28z"/>
		</g>
		<g>
			<path d="M24.5,4c-0.23,0-0.438-0.16-0.488-0.394c-0.132-0.601-0.692-2.247-1.694-2.641c-0.258-0.101-0.384-0.391-0.282-0.648
				c0.101-0.257,0.392-0.382,0.647-0.282c1.707,0.671,2.282,3.25,2.306,3.36c0.059,0.27-0.112,0.535-0.382,0.594
				C24.57,3.996,24.535,4,24.5,4z"/>
		</g>
		<g>
			<path d="M29.5,8c-0.199,0-0.388-0.12-0.465-0.317c-0.395-1.003-2.04-1.563-2.642-1.694c-0.27-0.059-0.44-0.325-0.382-0.595
				c0.059-0.269,0.323-0.445,0.594-0.383c0.109,0.023,2.688,0.598,3.359,2.306c0.102,0.257-0.025,0.547-0.282,0.648
				C29.623,7.989,29.561,8,29.5,8z"/>
		</g>
		<g>
			<path d="M26.5,4c-0.128,0-0.256-0.049-0.354-0.146c-0.195-0.195-0.195-0.512,0-0.707l3-3c0.195-0.195,0.512-0.195,0.707,0
				s0.195,0.512,0,0.707l-3,3C26.756,3.951,26.628,4,26.5,4z"/>
		</g>
	</g>
</g>
<g id="Alcohol_Drink">
</g>
<g id="Beer_Glass">
</g>
<g id="Party_Cake">
</g>
<g id="Pizza_Food">
</g>
<g id="Disco_Ball">
</g>
<g id="Equalizer">
</g>
<g id="DJ">
</g>
<g id="Tent">
</g>
<g id="Firework_1">
</g>
<g id="Firework_2">
</g>
<g id="Party_Glasses">
</g>
<g id="Barbeque">
</g>
<g id="Horn">
</g>
<g id="Speaker">
</g>
<g id="VIP">
</g>
<g id="Event_Ticket">
</g>
<g id="VIP_Ticket">
</g>
<g id="Popcorn">
</g>
<g id="Cord">
</g>
<g id="Invitation_1">
</g>
<g id="Invitation_2">
</g>
</svg>
