<?xml version="1.0" encoding="iso-8859-1"?>
<!-- Generator: Adobe Illustrator 19.2.1, SVG Export Plug-In . SVG Version: 6.00 Build 0)  -->
<svg version="1.1" xmlns="http://www.w3.org/2000/svg" xmlns:xlink="http://www.w3.org/1999/xlink" x="0px" y="0px"
	 viewBox="0 0 30 30" style="enable-background:new 0 0 30 30;" xml:space="preserve">
<g id="Event">
</g>
<g id="Event_2">
</g>
<g id="Add_Event">
</g>
<g id="Remove_Event">
</g>
<g id="Event_Reminder">
</g>
<g id="Wine_Glass">
</g>
<g id="Toast">
</g>
<g id="Champagne">
</g>
<g id="Champagne_Open">
</g>
<g id="Alcohol_Drink">
</g>
<g id="Beer_Glass">
</g>
<g id="Party_Cake">
</g>
<g id="Pizza_Food">
</g>
<g id="Disco_Ball">
</g>
<g id="Equalizer">
</g>
<g id="DJ">
</g>
<g id="Tent">
</g>
<g id="Firework_1">
</g>
<g id="Firework_2">
</g>
<g id="Party_Glasses">
</g>
<g id="Barbeque">
</g>
<g id="Horn">
</g>
<g id="Speaker">
</g>
<g id="VIP">
</g>
<g id="Event_Ticket">
	<g>
		<g>
			<path d="M28.5,23h-28C0.224,23,0,22.776,0,22.5v-5C0,17.224,0.224,17,0.5,17C1.593,17,2,15.467,2,14.5S1.593,12,0.5,12
				C0.224,12,0,11.776,0,11.5v-5C0,6.224,0.224,6,0.5,6h28C28.776,6,29,6.224,29,6.5v5c0,0.276-0.224,0.5-0.5,0.5
				c-1.093,0-1.5,1.533-1.5,2.5s0.407,2.5,1.5,2.5c0.276,0,0.5,0.224,0.5,0.5v5C29,22.776,28.776,23,28.5,23z M1,22h27v-4.059
				c-1.315-0.318-2-1.889-2-3.441s0.685-3.123,2-3.441V7H1v4.059c1.315,0.318,2,1.889,2,3.441s-0.685,3.123-2,3.441V22z"/>
		</g>
		<g>
			<path d="M22.5,12h-16C6.224,12,6,11.776,6,11.5S6.224,11,6.5,11h16c0.276,0,0.5,0.224,0.5,0.5S22.776,12,22.5,12z"/>
		</g>
		<g>
			<path d="M22.5,15h-16C6.224,15,6,14.776,6,14.5S6.224,14,6.5,14h16c0.276,0,0.5,0.224,0.5,0.5S22.776,15,22.5,15z"/>
		</g>
		<g>
			<path d="M22.5,18h-16C6.224,18,6,17.776,6,17.5S6.224,17,6.5,17h16c0.276,0,0.5,0.224,0.5,0.5S22.776,18,22.5,18z"/>
		</g>
	</g>
</g>
<g id="VIP_Ticket">
</g>
<g id="Popcorn">
</g>
<g id="Cord">
</g>
<g id="Invitation_1">
</g>
<g id="Invitation_2">
</g>
</svg>
