<?xml version="1.0" encoding="iso-8859-1"?>
<!-- Generator: Adobe Illustrator 19.2.1, SVG Export Plug-In . SVG Version: 6.00 Build 0)  -->
<svg version="1.1" xmlns="http://www.w3.org/2000/svg" xmlns:xlink="http://www.w3.org/1999/xlink" x="0px" y="0px"
	 viewBox="0 0 30 30" style="enable-background:new 0 0 30 30;" xml:space="preserve">
<g id="Event">
</g>
<g id="Event_2">
</g>
<g id="Add_Event">
</g>
<g id="Remove_Event">
</g>
<g id="Event_Reminder">
</g>
<g id="Wine_Glass">
</g>
<g id="Toast">
</g>
<g id="Champagne">
</g>
<g id="Champagne_Open">
</g>
<g id="Alcohol_Drink">
</g>
<g id="Beer_Glass">
</g>
<g id="Party_Cake">
</g>
<g id="Pizza_Food">
</g>
<g id="Disco_Ball">
</g>
<g id="Equalizer">
</g>
<g id="DJ">
</g>
<g id="Tent">
</g>
<g id="Firework_1">
	<g>
		<g>
			<path d="M29.5,14c-0.13,0-0.258-0.051-0.354-0.146l-13-13c-0.143-0.143-0.186-0.358-0.108-0.545S16.298,0,16.5,0h13
				C29.776,0,30,0.224,30,0.5v13c0,0.202-0.122,0.385-0.309,0.462C29.63,13.988,29.564,14,29.5,14z M17.707,1L29,12.293V1H17.707z"
				/>
		</g>
		<g>
			<path d="M10.75,25.738c-0.757,0-1.514-0.295-2.104-0.885l-3.522-4.024c-1.144-1.142-1.144-3.517,0.022-4.683L19.16,3.134
				c0.201-0.188,0.517-0.176,0.706,0.026c0.188,0.203,0.177,0.519-0.026,0.707l-14,13c-0.771,0.772-0.771,2.495,0.014,3.28
				l3.522,4.024c0.761,0.758,1.986,0.759,2.771-0.024l14-14c0.195-0.195,0.512-0.195,0.707,0s0.195,0.512,0,0.707l-14,14
				C12.264,25.443,11.507,25.738,10.75,25.738z"/>
		</g>
		<g>
			<path d="M1.5,30c-0.135,0-0.269-0.054-0.367-0.161c-0.188-0.203-0.175-0.519,0.028-0.706l6.5-6
				c0.203-0.187,0.519-0.175,0.706,0.028s0.175,0.519-0.028,0.706l-6.5,6C1.743,29.956,1.621,30,1.5,30z"/>
		</g>
		<g>
			<path d="M2.5,25c-0.128,0-0.256-0.049-0.354-0.146l-2-2c-0.195-0.195-0.195-0.512,0-0.707s0.512-0.195,0.707,0l2,2
				c0.195,0.195,0.195,0.512,0,0.707C2.756,24.951,2.628,25,2.5,25z"/>
		</g>
		<g>
			<path d="M0.5,25c-0.128,0-0.256-0.049-0.354-0.146c-0.195-0.195-0.195-0.512,0-0.707l2-2c0.195-0.195,0.512-0.195,0.707,0
				s0.195,0.512,0,0.707l-2,2C0.756,24.951,0.628,25,0.5,25z"/>
		</g>
		<g>
			<path d="M1.5,24c-0.27,0-0.49-0.214-0.499-0.484C0.992,23.241,1.209,23.01,1.484,23c0.104-0.004,2.59-0.122,3.548-2.676
				c0.097-0.258,0.386-0.392,0.644-0.292c0.259,0.097,0.39,0.385,0.292,0.644C4.771,23.87,1.646,23.996,1.515,24
				C1.51,24,1.505,24,1.5,24z"/>
		</g>
		<g>
			<path d="M18.5,19H5c-0.276,0-0.5-0.224-0.5-0.5S4.724,18,5,18h13.5c0.276,0,0.5,0.224,0.5,0.5S18.776,19,18.5,19z"/>
		</g>
		<g>
			<path d="M14.5,23h-7C7.224,23,7,22.776,7,22.5S7.224,22,7.5,22h7c0.276,0,0.5,0.224,0.5,0.5S14.776,23,14.5,23z"/>
		</g>
		<g>
			<path d="M22.5,15H8c-0.276,0-0.5-0.224-0.5-0.5S7.724,14,8,14h14.5c0.276,0,0.5,0.224,0.5,0.5S22.776,15,22.5,15z"/>
		</g>
		<g>
			<path d="M26.375,11H12c-0.276,0-0.5-0.224-0.5-0.5S11.724,10,12,10h14.375c0.276,0,0.5,0.224,0.5,0.5S26.651,11,26.375,11z"/>
		</g>
		<g>
			<path d="M22.5,7h-6C16.224,7,16,6.776,16,6.5S16.224,6,16.5,6h6C22.776,6,23,6.224,23,6.5S22.776,7,22.5,7z"/>
		</g>
	</g>
</g>
<g id="Firework_2">
</g>
<g id="Party_Glasses">
</g>
<g id="Barbeque">
</g>
<g id="Horn">
</g>
<g id="Speaker">
</g>
<g id="VIP">
</g>
<g id="Event_Ticket">
</g>
<g id="VIP_Ticket">
</g>
<g id="Popcorn">
</g>
<g id="Cord">
</g>
<g id="Invitation_1">
</g>
<g id="Invitation_2">
</g>
</svg>
