<?xml version="1.0" encoding="iso-8859-1"?>
<!-- Generator: Adobe Illustrator 19.2.1, SVG Export Plug-In . SVG Version: 6.00 Build 0)  -->
<svg version="1.1" xmlns="http://www.w3.org/2000/svg" xmlns:xlink="http://www.w3.org/1999/xlink" x="0px" y="0px"
	 viewBox="0 0 30 30" style="enable-background:new 0 0 30 30;" xml:space="preserve">
<g id="Event">
</g>
<g id="Event_2">
</g>
<g id="Add_Event">
</g>
<g id="Remove_Event">
</g>
<g id="Event_Reminder">
</g>
<g id="Wine_Glass">
</g>
<g id="Toast">
</g>
<g id="Champagne">
</g>
<g id="Champagne_Open">
</g>
<g id="Alcohol_Drink">
</g>
<g id="Beer_Glass">
</g>
<g id="Party_Cake">
</g>
<g id="Pizza_Food">
</g>
<g id="Disco_Ball">
</g>
<g id="Equalizer">
</g>
<g id="DJ">
</g>
<g id="Tent">
</g>
<g id="Firework_1">
</g>
<g id="Firework_2">
</g>
<g id="Party_Glasses">
</g>
<g id="Barbeque">
</g>
<g id="Horn">
</g>
<g id="Speaker">
</g>
<g id="VIP">
</g>
<g id="Event_Ticket">
</g>
<g id="VIP_Ticket">
</g>
<g id="Popcorn">
</g>
<g id="Cord">
</g>
<g id="Invitation_1">
	<g>
		<g>
			<path d="M28,29.5c-0.104,0-0.21-0.032-0.3-0.1l-12-9c-0.671-0.512-1.744-0.521-2.397-0.024L1.301,29.399
				c-0.223,0.167-0.536,0.121-0.7-0.099c-0.166-0.221-0.122-0.534,0.099-0.7l12-9.021c1.001-0.762,2.585-0.753,3.604,0.023
				L28.3,28.6c0.221,0.166,0.266,0.479,0.101,0.7C28.302,29.431,28.151,29.5,28,29.5z"/>
		</g>
		<g>
			<path d="M16,20.5c-0.151,0-0.301-0.068-0.398-0.198c-0.167-0.221-0.123-0.534,0.097-0.7l11.944-9.027
				c0.221-0.167,0.534-0.124,0.7,0.097c0.167,0.221,0.123,0.534-0.097,0.7l-11.944,9.027C16.211,20.467,16.105,20.5,16,20.5z"/>
		</g>
		<g>
			<path d="M13,20.479c-0.102,0-0.204-0.031-0.293-0.095L0.264,11.378c-0.224-0.162-0.274-0.475-0.112-0.698
				c0.162-0.226,0.474-0.272,0.698-0.112l12.443,9.006c0.224,0.162,0.274,0.475,0.112,0.698C13.308,20.407,13.154,20.479,13,20.479z
				"/>
		</g>
		<g>
			<path d="M27.25,30H1.75C0.785,30,0,29.215,0,28.25V11c0-0.505,0.261-1.035,0.68-1.385l2.563-1.544
				c0.234-0.143,0.544-0.065,0.686,0.172c0.143,0.236,0.065,0.544-0.172,0.686l-2.5,1.5C1.135,10.538,1,10.798,1,11v17.25
				C1,28.663,1.337,29,1.75,29h25.5c0.413,0,0.75-0.337,0.75-0.75V11c0-0.202-0.135-0.462-0.32-0.615l-2.437-1.456
				c-0.237-0.142-0.314-0.449-0.172-0.686c0.143-0.237,0.453-0.314,0.686-0.172l2.5,1.5C28.739,9.965,29,10.495,29,11v17.25
				C29,29.215,28.215,30,27.25,30z"/>
		</g>
		<g>
			<path d="M3.5,13.5C3.224,13.5,3,13.276,3,13V0.516c0-0.276,0.224-0.5,0.5-0.5L25.5,0l0,0c0.133,0,0.26,0.053,0.354,0.146
				S26,0.367,26,0.5v11.991c0,0.276-0.224,0.5-0.5,0.5s-0.5-0.224-0.5-0.5V1L4,1.016V13C4,13.276,3.776,13.5,3.5,13.5z"/>
		</g>
		<g>
			<path d="M14.5,12c-0.249,0-0.46-0.183-0.495-0.43l-1-7c-0.021-0.144,0.022-0.288,0.117-0.397C13.217,4.063,13.355,4,13.5,4h2
				c0.145,0,0.283,0.063,0.378,0.173c0.095,0.109,0.138,0.254,0.117,0.397l-1,7C14.96,11.817,14.749,12,14.5,12z M14.076,5
				L14.5,7.965L14.924,5H14.076z"/>
		</g>
		<g>
			<path d="M14.5,16c-0.827,0-1.5-0.673-1.5-1.5s0.673-1.5,1.5-1.5s1.5,0.673,1.5,1.5S15.327,16,14.5,16z M14.5,14
				c-0.275,0-0.5,0.225-0.5,0.5s0.225,0.5,0.5,0.5s0.5-0.225,0.5-0.5S14.775,14,14.5,14z"/>
		</g>
	</g>
</g>
<g id="Invitation_2">
</g>
</svg>
