<?xml version="1.0" encoding="iso-8859-1"?>
<!-- Generator: Adobe Illustrator 19.2.1, SVG Export Plug-In . SVG Version: 6.00 Build 0)  -->
<svg version="1.1" xmlns="http://www.w3.org/2000/svg" xmlns:xlink="http://www.w3.org/1999/xlink" x="0px" y="0px"
	 viewBox="0 0 30 30" style="enable-background:new 0 0 30 30;" xml:space="preserve">
<g id="Event">
</g>
<g id="Event_2">
</g>
<g id="Add_Event">
</g>
<g id="Remove_Event">
</g>
<g id="Event_Reminder">
</g>
<g id="Wine_Glass">
</g>
<g id="Toast">
</g>
<g id="Champagne">
</g>
<g id="Champagne_Open">
</g>
<g id="Alcohol_Drink">
</g>
<g id="Beer_Glass">
</g>
<g id="Party_Cake">
	<g>
		<g>
			<path d="M0.5,30c-0.102,0-0.203-0.031-0.288-0.091C0.079,29.815,0,29.663,0,29.5v-11c0-0.14,0.058-0.272,0.161-0.367l13-12
				c0.203-0.187,0.521-0.175,0.707,0.028c0.188,0.203,0.175,0.52-0.028,0.707L1,18.719V28.79l27-9.643V9c0-0.276,0.224-0.5,0.5-0.5
				S29,8.724,29,9v10.5c0,0.211-0.133,0.399-0.332,0.471l-28,10C0.613,29.99,0.557,30,0.5,30z"/>
		</g>
		<g>
			<path d="M0.5,19c-0.205,0-0.397-0.127-0.47-0.331c-0.094-0.26,0.041-0.546,0.301-0.64l25-9c0.259-0.096,0.546,0.041,0.64,0.301
				c0.094,0.26-0.041,0.546-0.301,0.64l-25,9C0.613,18.99,0.556,19,0.5,19z"/>
		</g>
		<g>
			<path d="M0.5,24c-0.206,0-0.398-0.127-0.471-0.332c-0.093-0.26,0.042-0.546,0.303-0.639l28-10
				c0.257-0.094,0.546,0.042,0.639,0.303c0.093,0.26-0.042,0.546-0.303,0.639l-28,10C0.613,23.99,0.556,24,0.5,24z"/>
		</g>
		<g>
			<path d="M26.5,10c-1.505,0-2.791-0.95-3.279-2.298C22.603,8.212,21.823,8.5,21,8.5c-1.505,0-2.791-0.95-3.279-2.298
				C17.103,6.712,16.323,7,15.5,7C13.57,7,12,5.43,12,3.5S13.57,0,15.5,0c1.505,0,2.791,0.95,3.279,2.298
				C19.397,1.788,20.177,1.5,21,1.5c1.505,0,2.791,0.95,3.279,2.298C24.897,3.288,25.677,3,26.5,3C28.43,3,30,4.57,30,6.5
				S28.43,10,26.5,10z M23.513,6.13c0.044,0,0.088,0.006,0.132,0.018c0.209,0.057,0.358,0.244,0.368,0.46
				C24.071,7.95,25.164,9,26.5,9C27.878,9,29,7.878,29,6.5S27.878,4,26.5,4c-0.846,0-1.629,0.427-2.094,1.142
				c-0.119,0.183-0.341,0.267-0.551,0.21c-0.209-0.057-0.358-0.244-0.368-0.46C23.429,3.55,22.336,2.5,21,2.5
				c-0.846,0-1.629,0.427-2.094,1.142c-0.119,0.183-0.34,0.267-0.551,0.21c-0.209-0.057-0.358-0.244-0.368-0.46
				C17.929,2.05,16.836,1,15.5,1C14.122,1,13,2.122,13,3.5S14.122,6,15.5,6c0.846,0,1.629-0.427,2.094-1.142
				c0.118-0.183,0.341-0.266,0.551-0.21c0.209,0.057,0.358,0.244,0.368,0.46C18.571,6.45,19.664,7.5,21,7.5
				c0.846,0,1.629-0.427,2.094-1.142C23.188,6.213,23.347,6.13,23.513,6.13z"/>
		</g>
	</g>
</g>
<g id="Pizza_Food">
</g>
<g id="Disco_Ball">
</g>
<g id="Equalizer">
</g>
<g id="DJ">
</g>
<g id="Tent">
</g>
<g id="Firework_1">
</g>
<g id="Firework_2">
</g>
<g id="Party_Glasses">
</g>
<g id="Barbeque">
</g>
<g id="Horn">
</g>
<g id="Speaker">
</g>
<g id="VIP">
</g>
<g id="Event_Ticket">
</g>
<g id="VIP_Ticket">
</g>
<g id="Popcorn">
</g>
<g id="Cord">
</g>
<g id="Invitation_1">
</g>
<g id="Invitation_2">
</g>
</svg>
