<?xml version="1.0" encoding="iso-8859-1"?>
<!-- Generator: Adobe Illustrator 19.2.1, SVG Export Plug-In . SVG Version: 6.00 Build 0)  -->
<svg version="1.1" xmlns="http://www.w3.org/2000/svg" xmlns:xlink="http://www.w3.org/1999/xlink" x="0px" y="0px"
	 viewBox="0 0 30 30" style="enable-background:new 0 0 30 30;" xml:space="preserve">
<g id="Event">
</g>
<g id="Event_2">
</g>
<g id="Add_Event">
</g>
<g id="Remove_Event">
</g>
<g id="Event_Reminder">
</g>
<g id="Wine_Glass">
</g>
<g id="Toast">
</g>
<g id="Champagne">
</g>
<g id="Champagne_Open">
</g>
<g id="Alcohol_Drink">
</g>
<g id="Beer_Glass">
</g>
<g id="Party_Cake">
</g>
<g id="Pizza_Food">
</g>
<g id="Disco_Ball">
</g>
<g id="Equalizer">
</g>
<g id="DJ">
</g>
<g id="Tent">
</g>
<g id="Firework_1">
</g>
<g id="Firework_2">
</g>
<g id="Party_Glasses">
	<g>
		<g>
			<path d="M24.5,20h-2c-3.009,0-5.125-1.741-6.468-5.324c-0.609-1.625-0.497-3.403,0.286-4.533
				c0.034-0.049,0.069-0.097,0.105-0.143h-2.848c0.036,0.046,0.071,0.094,0.105,0.143c0.783,1.129,0.896,2.908,0.286,4.532
				C12.625,18.259,10.509,20,7.5,20h-2c-2.873,0-5.133-2.03-5.496-4.938c-0.192-1.544,0.375-3.282,1.482-4.536
				C2.355,9.542,3.426,9,4.5,9h21c1.074,0,2.145,0.542,3.014,1.526c1.107,1.254,1.675,2.992,1.482,4.536
				C29.633,17.97,27.373,20,24.5,20z M18.5,10c-0.574,0-1.032,0.24-1.359,0.713c-0.593,0.854-0.662,2.306-0.173,3.612
				C18.164,17.515,19.922,19,22.5,19h2c2.391,0,4.2-1.633,4.504-4.062c0.158-1.268-0.317-2.705-1.24-3.75
				C27.088,10.422,26.283,10,25.5,10H18.5z M4.5,10c-0.783,0-1.588,0.422-2.264,1.188c-0.923,1.045-1.398,2.482-1.24,3.75
				C1.3,17.367,3.109,19,5.5,19h2c2.578,0,4.336-1.485,5.532-4.676c0.489-1.306,0.42-2.757-0.173-3.611
				C12.532,10.24,12.074,10,11.5,10H4.5z"/>
		</g>
		<g>
			<path d="M13.78,14H1c-0.276,0-0.5-0.224-0.5-0.5S0.724,13,1,13h12.78c0.276,0,0.5,0.224,0.5,0.5S14.057,14,13.78,14z"/>
		</g>
		<g>
			<path d="M13.5,12h-12C1.224,12,1,11.776,1,11.5S1.224,11,1.5,11h12c0.276,0,0.5,0.224,0.5,0.5S13.776,12,13.5,12z"/>
		</g>
		<g>
			<path d="M13,16H1c-0.276,0-0.5-0.224-0.5-0.5S0.724,15,1,15h12c0.276,0,0.5,0.224,0.5,0.5S13.276,16,13,16z"/>
		</g>
		<g>
			<path d="M11.5,18H1.512c-0.276,0-0.5-0.224-0.5-0.5s0.224-0.5,0.5-0.5H11.5c0.276,0,0.5,0.224,0.5,0.5S11.776,18,11.5,18z"/>
		</g>
		<g>
			<path d="M29,14H16.22c-0.276,0-0.5-0.224-0.5-0.5s0.224-0.5,0.5-0.5H29c0.276,0,0.5,0.224,0.5,0.5S29.276,14,29,14z"/>
		</g>
		<g>
			<path d="M28.5,12h-12c-0.276,0-0.5-0.224-0.5-0.5s0.224-0.5,0.5-0.5h12c0.276,0,0.5,0.224,0.5,0.5S28.776,12,28.5,12z"/>
		</g>
		<g>
			<path d="M29,16H17c-0.276,0-0.5-0.224-0.5-0.5S16.724,15,17,15h12c0.276,0,0.5,0.224,0.5,0.5S29.276,16,29,16z"/>
		</g>
		<g>
			<path d="M28.488,18H18.5c-0.276,0-0.5-0.224-0.5-0.5s0.224-0.5,0.5-0.5h9.988c0.276,0,0.5,0.224,0.5,0.5S28.765,18,28.488,18z"/>
		</g>
	</g>
</g>
<g id="Barbeque">
</g>
<g id="Horn">
</g>
<g id="Speaker">
</g>
<g id="VIP">
</g>
<g id="Event_Ticket">
</g>
<g id="VIP_Ticket">
</g>
<g id="Popcorn">
</g>
<g id="Cord">
</g>
<g id="Invitation_1">
</g>
<g id="Invitation_2">
</g>
</svg>
