<?xml version="1.0" encoding="iso-8859-1"?>
<!-- Generator: Adobe Illustrator 19.2.1, SVG Export Plug-In . SVG Version: 6.00 Build 0)  -->
<svg version="1.1" xmlns="http://www.w3.org/2000/svg" xmlns:xlink="http://www.w3.org/1999/xlink" x="0px" y="0px"
	 viewBox="0 0 30 30" style="enable-background:new 0 0 30 30;" xml:space="preserve">
<g id="Event">
</g>
<g id="Event_2">
</g>
<g id="Add_Event">
</g>
<g id="Remove_Event">
</g>
<g id="Event_Reminder">
</g>
<g id="Wine_Glass">
</g>
<g id="Toast">
</g>
<g id="Champagne">
</g>
<g id="Champagne_Open">
</g>
<g id="Alcohol_Drink">
</g>
<g id="Beer_Glass">
</g>
<g id="Party_Cake">
</g>
<g id="Pizza_Food">
	<g>
		<g>
			<path d="M26.5,15c-0.276,0-0.5-0.224-0.5-0.5s0.224-0.5,0.5-0.5c1.183,0,2.5-1.027,2.5-2.5C29,9.701,27.299,8,25.5,8
				c-0.804,0-1.581,0.307-2.188,0.863c-0.141,0.129-0.345,0.167-0.523,0.096s-0.3-0.238-0.313-0.43C22.359,6.832,21.188,5,19.5,5
				c-0.945,0-2.14,0.39-2.662,0.869c-0.141,0.129-0.345,0.167-0.523,0.096s-0.3-0.238-0.313-0.43C15.891,3.924,14.797,3,13,3
				c-1.792,0-3.25,1.458-3.25,3.25c0,0.714,0.227,1.392,0.657,1.96c0.167,0.22,0.124,0.534-0.097,0.7
				c-0.221,0.167-0.534,0.123-0.7-0.097C9.047,8.071,8.75,7.184,8.75,6.25C8.75,3.907,10.657,2,13,2
				c2.009,0,3.427,0.996,3.867,2.651C17.681,4.225,18.731,4,19.5,4c1.994,0,3.408,1.711,3.844,3.598C23.996,7.208,24.738,7,25.5,7
				c2.355,0,4.5,2.145,4.5,4.5C30,13.364,28.364,15,26.5,15z"/>
		</g>
		<g>
			<path d="M0.5,28c-0.129,0-0.258-0.051-0.354-0.146c-0.152-0.152-0.19-0.385-0.094-0.577L9.561,8.288
				C9.685,8.04,9.985,7.94,10.232,8.064c0.247,0.124,0.347,0.424,0.224,0.671L1.619,26.381l24.657-12.328
				c0.247-0.123,0.547-0.023,0.671,0.224c0.124,0.247,0.023,0.547-0.224,0.671l-26,13C0.652,27.982,0.576,28,0.5,28z"/>
		</g>
		<g>
			<path d="M14,21c-0.062,0-0.124-0.011-0.185-0.035l-0.35-0.139c-1.526-0.793-2.216-1.843-2.216-3.326c0-2.313,2.551-4.5,5.25-4.5
				c2.817,0,4.5,2.288,4.5,4.5c0,0.276-0.224,0.5-0.5,0.5S20,17.776,20,17.5c0-1.72-1.309-3.5-3.5-3.5c-2.145,0-4.25,1.733-4.25,3.5
				c0,1.113,0.473,1.813,1.631,2.418l0.303,0.117c0.256,0.102,0.382,0.393,0.28,0.649C14.387,20.881,14.199,21,14,21z"/>
		</g>
		<g>
			<path d="M3.829,22.03c-0.137,0-0.28-0.01-0.43-0.041c-0.271-0.056-0.444-0.32-0.389-0.591s0.32-0.451,0.591-0.388
				c0.152,0.031,0.319,0.02,0.514,0.006C4.239,21.009,4.367,21,4.5,21C6.729,21,9,19.233,9,17.5c0-1.324-0.947-2.125-1.741-2.562
				c-0.242-0.133-0.33-0.438-0.197-0.679c0.134-0.242,0.438-0.329,0.679-0.197C9.198,14.865,10,16.086,10,17.5
				c0,2.271-2.724,4.5-5.5,4.5c-0.109,0-0.214,0.008-0.317,0.015C4.071,22.022,3.953,22.03,3.829,22.03z"/>
		</g>
		<g>
			<path d="M26.5,15c-0.057,0-0.114-0.01-0.17-0.03L9.837,8.982C9.578,8.887,9.444,8.601,9.538,8.341
				c0.095-0.26,0.381-0.392,0.641-0.3l16.492,5.988c0.259,0.095,0.394,0.381,0.299,0.641C26.896,14.874,26.704,15,26.5,15z"/>
		</g>
	</g>
</g>
<g id="Disco_Ball">
</g>
<g id="Equalizer">
</g>
<g id="DJ">
</g>
<g id="Tent">
</g>
<g id="Firework_1">
</g>
<g id="Firework_2">
</g>
<g id="Party_Glasses">
</g>
<g id="Barbeque">
</g>
<g id="Horn">
</g>
<g id="Speaker">
</g>
<g id="VIP">
</g>
<g id="Event_Ticket">
</g>
<g id="VIP_Ticket">
</g>
<g id="Popcorn">
</g>
<g id="Cord">
</g>
<g id="Invitation_1">
</g>
<g id="Invitation_2">
</g>
</svg>
