<?xml version="1.0" encoding="iso-8859-1"?>
<!-- Generator: Adobe Illustrator 19.2.1, SVG Export Plug-In . SVG Version: 6.00 Build 0)  -->
<svg version="1.1" xmlns="http://www.w3.org/2000/svg" xmlns:xlink="http://www.w3.org/1999/xlink" x="0px" y="0px"
	 viewBox="0 0 30 30" style="enable-background:new 0 0 30 30;" xml:space="preserve">
<g id="Event">
</g>
<g id="Event_2">
</g>
<g id="Add_Event">
</g>
<g id="Remove_Event">
</g>
<g id="Event_Reminder">
</g>
<g id="Wine_Glass">
</g>
<g id="Toast">
</g>
<g id="Champagne">
</g>
<g id="Champagne_Open">
</g>
<g id="Alcohol_Drink">
</g>
<g id="Beer_Glass">
</g>
<g id="Party_Cake">
</g>
<g id="Pizza_Food">
</g>
<g id="Disco_Ball">
</g>
<g id="Equalizer">
</g>
<g id="DJ">
</g>
<g id="Tent">
</g>
<g id="Firework_1">
</g>
<g id="Firework_2">
</g>
<g id="Party_Glasses">
</g>
<g id="Barbeque">
</g>
<g id="Horn">
</g>
<g id="Speaker">
</g>
<g id="VIP">
</g>
<g id="Event_Ticket">
</g>
<g id="VIP_Ticket">
</g>
<g id="Popcorn">
	<g>
		<g>
			<path d="M22.5,8c-0.052,0-0.104-0.008-0.156-0.025c-0.263-0.086-0.405-0.369-0.318-0.631c0.049-0.15,0.074-0.308,0.074-0.469
				C22.1,6.042,20.768,6,20.5,6C20.224,6,20,5.776,20,5.5c0-0.404-0.458-0.75-0.833-0.75c-0.276,0-0.5-0.224-0.5-0.5
				c0-0.415-0.277-0.755-0.624-0.771c0.017,0.003-0.028,0.014-0.083,0.019c-0.276,0.019-0.495-0.16-0.536-0.418
				c-0.101-0.616-0.241-0.661-0.581-0.769c-0.135-0.043-0.246-0.141-0.304-0.271c-0.059-0.129-0.06-0.277-0.003-0.407
				c0.031-0.071,0.047-0.136,0.047-0.196C16.583,1.196,16.415,1,16.208,1c-0.13,0-0.224,0.095-0.268,0.151
				c-0.088,0.114-0.221,0.184-0.364,0.192c-0.161,0.015-0.284-0.045-0.386-0.147C15.102,1.106,14.953,1,14.75,1
				c-0.368,0-0.667,0.337-0.667,0.75c0,0.276-0.224,0.5-0.5,0.5c-0.187,0-0.333,0.102-0.423,0.188
				c-0.176,0.165-0.444,0.184-0.638,0.041c-0.646-0.469-1.604-0.115-1.861,0.695c-0.07,0.222-0.271,0.367-0.519,0.346
				c-0.035-0.003-0.116-0.021-0.15-0.03C9.974,3.5,9.861,3.562,9.774,3.669C9.665,3.804,9.621,3.982,9.656,4.146
				c0.006,0.026,0.021,0.119,0.022,0.147c0.007,0.17-0.072,0.331-0.211,0.43c-0.14,0.099-0.319,0.118-0.476,0.056
				C8.943,4.76,8.904,4.75,8.875,4.75c-0.202,0-0.439,0.094-0.47,0.232C8.368,5.151,8.246,5.289,8.083,5.347
				C7.69,5.484,7.667,5.493,7.667,6.25c0.001,0.005,0.014,0.127,0.015,0.132C7.7,6.572,7.607,6.757,7.443,6.856
				C7.239,6.981,7,7.225,7,7.5C7,7.776,6.776,8,6.5,8S6,7.776,6,7.5c0-0.557,0.312-1.015,0.667-1.313
				c0.004-0.781,0.084-1.339,0.857-1.693c0.22-0.44,0.691-0.676,1.143-0.731c0.044-0.259,0.156-0.509,0.33-0.723
				C9.222,2.763,9.523,2.581,9.85,2.521c0.384-0.773,1.143-1.271,1.983-1.271c0.333,0,0.656,0.076,0.953,0.224
				c0.111-0.066,0.229-0.118,0.348-0.155C13.317,0.562,13.973,0,14.75,0c0.271,0,0.533,0.07,0.77,0.202
				C15.728,0.071,15.964,0,16.208,0c0.758,0,1.375,0.645,1.375,1.438c0,0.034-0.001,0.067-0.004,0.102
				c0.377,0.208,0.605,0.507,0.74,0.97c0.633,0.126,1.14,0.642,1.297,1.305c0.574,0.16,1.112,0.609,1.307,1.205
				C22.259,5.14,23.1,5.841,23.1,6.875c0,0.268-0.042,0.53-0.125,0.781C22.905,7.867,22.71,8,22.5,8z"/>
		</g>
		<g>
			<path d="M14.5,16c-0.276,0-0.5-0.224-0.5-0.5v-5c0-0.276,0.224-0.5,0.5-0.5s0.5,0.224,0.5,0.5v5C15,15.776,14.776,16,14.5,16z"/>
		</g>
		<g>
			<path d="M10.499,17c-0.239,0-0.451-0.173-0.492-0.418l-1-6c-0.046-0.272,0.139-0.53,0.411-0.575
				c0.266-0.049,0.529,0.138,0.575,0.411l1,6c0.046,0.272-0.139,0.53-0.411,0.575C10.555,16.998,10.526,17,10.499,17z"/>
		</g>
		<g>
			<path d="M18.501,17c-0.027,0-0.056-0.002-0.083-0.007c-0.272-0.045-0.457-0.303-0.411-0.575l1-6
				c0.046-0.273,0.308-0.46,0.575-0.411c0.272,0.045,0.457,0.303,0.411,0.575l-1,6C18.952,16.827,18.74,17,18.501,17z"/>
		</g>
		<g>
			<path d="M14.5,27c-0.276,0-0.5-0.224-0.5-0.5v-5c0-0.276,0.224-0.5,0.5-0.5s0.5,0.224,0.5,0.5v5C15,26.776,14.776,27,14.5,27z"/>
		</g>
		<g>
			<path d="M11.499,27c-0.255,0-0.474-0.195-0.497-0.455l-0.5-5.5c-0.025-0.274,0.178-0.518,0.453-0.543
				c0.254-0.021,0.519,0.178,0.543,0.453l0.5,5.5c0.025,0.274-0.178,0.518-0.453,0.543C11.53,26.999,11.515,27,11.499,27z"/>
		</g>
		<g>
			<path d="M17.501,27c-0.016,0-0.031-0.001-0.046-0.002c-0.275-0.025-0.479-0.269-0.453-0.543l0.5-5.5
				c0.025-0.275,0.294-0.472,0.543-0.453c0.275,0.025,0.479,0.269,0.453,0.543l-0.5,5.5C17.975,26.805,17.756,27,17.501,27z"/>
		</g>
		<g>
			<path d="M20.5,30h-12c-0.25,0-0.462-0.185-0.495-0.433l-3-22C4.985,7.425,5.028,7.28,5.123,7.171C5.219,7.063,5.355,7,5.5,7h18
				c0.145,0,0.281,0.063,0.377,0.171c0.095,0.109,0.138,0.254,0.118,0.396l-3,22C20.962,29.815,20.75,30,20.5,30z M8.937,29h11.127
				l2.863-21H6.073L8.937,29z"/>
		</g>
		<g>
			<path d="M14.5,22C11.416,22,9,20.463,9,18.5s2.416-3.5,5.5-3.5s5.5,1.537,5.5,3.5S17.584,22,14.5,22z M14.5,16
				c-2.439,0-4.5,1.145-4.5,2.5s2.061,2.5,4.5,2.5s4.5-1.145,4.5-2.5S16.939,16,14.5,16z"/>
		</g>
	</g>
</g>
<g id="Cord">
</g>
<g id="Invitation_1">
</g>
<g id="Invitation_2">
</g>
</svg>
