<?xml version="1.0" encoding="iso-8859-1"?>
<!-- Generator: Adobe Illustrator 19.2.1, SVG Export Plug-In . SVG Version: 6.00 Build 0)  -->
<svg version="1.1" xmlns="http://www.w3.org/2000/svg" xmlns:xlink="http://www.w3.org/1999/xlink" x="0px" y="0px"
	 viewBox="0 0 30 30" style="enable-background:new 0 0 30 30;" xml:space="preserve">
<g id="Event">
</g>
<g id="Event_2">
</g>
<g id="Add_Event">
</g>
<g id="Remove_Event">
</g>
<g id="Event_Reminder">
</g>
<g id="Wine_Glass">
</g>
<g id="Toast">
</g>
<g id="Champagne">
</g>
<g id="Champagne_Open">
</g>
<g id="Alcohol_Drink">
</g>
<g id="Beer_Glass">
</g>
<g id="Party_Cake">
</g>
<g id="Pizza_Food">
</g>
<g id="Disco_Ball">
</g>
<g id="Equalizer">
</g>
<g id="DJ">
</g>
<g id="Tent">
</g>
<g id="Firework_1">
</g>
<g id="Firework_2">
</g>
<g id="Party_Glasses">
</g>
<g id="Barbeque">
</g>
<g id="Horn">
</g>
<g id="Speaker">
	<g>
		<g>
			<path d="M22.5,29.5h-16C5.673,29.5,5,28.827,5,28V2c0-0.827,0.673-1.5,1.5-1.5h16C23.327,0.5,24,1.173,24,2v26
				C24,28.827,23.327,29.5,22.5,29.5z M6.5,1.5C6.224,1.5,6,1.725,6,2v26c0,0.275,0.224,0.5,0.5,0.5h16c0.276,0,0.5-0.225,0.5-0.5V2
				c0-0.275-0.224-0.5-0.5-0.5H6.5z"/>
		</g>
		<g>
			<circle cx="14.5" cy="8" r="1.5"/>
		</g>
		<g>
			<path d="M14.5,12.5c-2.481,0-4.5-2.019-4.5-4.5s2.019-4.5,4.5-4.5S19,5.519,19,8S16.981,12.5,14.5,12.5z M14.5,4.5
				C12.57,4.5,11,6.07,11,8s1.57,3.5,3.5,3.5S18,9.93,18,8S16.43,4.5,14.5,4.5z"/>
		</g>
		<g>
			<path d="M14.5,23.5c-1.93,0-3.5-1.57-3.5-3.5s1.57-3.5,3.5-3.5S18,18.07,18,20S16.43,23.5,14.5,23.5z M14.5,17.5
				c-1.378,0-2.5,1.121-2.5,2.5s1.122,2.5,2.5,2.5S17,21.379,17,20S15.878,17.5,14.5,17.5z"/>
		</g>
		<g>
			<path d="M14.5,26.5C10.916,26.5,8,23.584,8,20s2.916-6.5,6.5-6.5S21,16.416,21,20S18.084,26.5,14.5,26.5z M14.5,14.5
				C11.467,14.5,9,16.968,9,20s2.467,5.5,5.5,5.5S20,23.032,20,20S17.533,14.5,14.5,14.5z"/>
		</g>
	</g>
</g>
<g id="VIP">
</g>
<g id="Event_Ticket">
</g>
<g id="VIP_Ticket">
</g>
<g id="Popcorn">
</g>
<g id="Cord">
</g>
<g id="Invitation_1">
</g>
<g id="Invitation_2">
</g>
</svg>
