<?xml version="1.0" encoding="iso-8859-1"?>
<!-- Generator: Adobe Illustrator 19.2.1, SVG Export Plug-In . SVG Version: 6.00 Build 0)  -->
<svg version="1.1" xmlns="http://www.w3.org/2000/svg" xmlns:xlink="http://www.w3.org/1999/xlink" x="0px" y="0px"
	 viewBox="0 0 30 30" style="enable-background:new 0 0 30 30;" xml:space="preserve">
<g id="Event">
</g>
<g id="Event_2">
</g>
<g id="Add_Event">
</g>
<g id="Remove_Event">
</g>
<g id="Event_Reminder">
</g>
<g id="Wine_Glass">
</g>
<g id="Toast">
	<g>
		<g>
			<path d="M14,6c-0.183,0-0.359-0.101-0.447-0.276l-1-2c-0.123-0.247-0.023-0.547,0.224-0.671c0.247-0.123,0.547-0.024,0.671,0.224
				l1,2c0.123,0.247,0.023,0.547-0.224,0.671C14.151,5.983,14.075,6,14,6z"/>
		</g>
		<g>
			<path d="M16,6c-0.075,0-0.151-0.017-0.224-0.053c-0.247-0.124-0.347-0.424-0.224-0.671l1-2c0.125-0.248,0.424-0.345,0.671-0.224
				c0.247,0.124,0.347,0.424,0.224,0.671l-1,2C16.359,5.899,16.183,6,16,6z"/>
		</g>
		<g>
			<path d="M17,17c-0.183,0-0.359-0.101-0.447-0.276l-1-2c-0.123-0.247-0.023-0.547,0.224-0.671
				c0.247-0.122,0.547-0.023,0.671,0.224l1,2c0.123,0.247,0.023,0.547-0.224,0.671C17.151,16.983,17.075,17,17,17z"/>
		</g>
		<g>
			<path d="M13,17c-0.075,0-0.151-0.017-0.224-0.053c-0.247-0.124-0.347-0.424-0.224-0.671l1-2c0.125-0.247,0.424-0.345,0.671-0.224
				c0.247,0.124,0.347,0.424,0.224,0.671l-1,2C13.359,16.899,13.183,17,13,17z"/>
		</g>
		<g>
			<g>
				<path d="M3.599,23.5c-0.085,0-0.171-0.021-0.25-0.067c-0.239-0.138-0.321-0.444-0.183-0.683l2.999-5.196
					c0.137-0.239,0.443-0.32,0.683-0.183c0.239,0.138,0.321,0.444,0.183,0.683L4.031,23.25C3.939,23.41,3.771,23.5,3.599,23.5z"/>
			</g>
			<g>
				<path d="M6.196,25c-0.085,0-0.171-0.021-0.25-0.067l-5.196-3c-0.239-0.138-0.321-0.444-0.183-0.683
					c0.138-0.239,0.444-0.319,0.683-0.183l5.196,3c0.239,0.138,0.321,0.444,0.183,0.683C6.537,24.91,6.368,25,6.196,25z"/>
			</g>
			<g>
				<path d="M8.332,18.776c-0.687,0-1.365-0.182-1.984-0.539c-0.988-0.571-1.664-1.496-1.902-2.605
					c-0.246-1.144,0.015-2.359,0.715-3.334l3.428-4.939C8.736,7.145,9.025,7.081,9.249,7.21l5.196,3
					c0.226,0.13,0.313,0.411,0.202,0.646l-2.566,5.446c-0.49,1.087-1.412,1.921-2.526,2.28C9.151,18.712,8.74,18.776,8.332,18.776z
					 M9.147,8.307l-3.17,4.568c-0.541,0.752-0.741,1.678-0.555,2.546c0.179,0.83,0.685,1.522,1.425,1.949
					c0.74,0.427,1.592,0.521,2.4,0.259c0.846-0.272,1.547-0.909,1.925-1.746l2.374-5.038L9.147,8.307z"/>
			</g>
		</g>
		<g>
			<g>
				<path d="M26.401,23.5c-0.173,0-0.341-0.09-0.433-0.25l-2.999-5.196c-0.139-0.239-0.057-0.545,0.183-0.683
					c0.239-0.139,0.546-0.057,0.683,0.183l2.999,5.196c0.139,0.239,0.057,0.545-0.183,0.683C26.572,23.479,26.486,23.5,26.401,23.5z
					"/>
			</g>
			<g>
				<path d="M23.804,25c-0.172,0-0.341-0.09-0.433-0.25c-0.139-0.239-0.057-0.545,0.183-0.683l5.196-3
					c0.239-0.139,0.546-0.057,0.683,0.183c0.139,0.239,0.057,0.545-0.183,0.683l-5.196,3C23.975,24.979,23.889,25,23.804,25z"/>
			</g>
			<g>
				<path d="M21.668,18.776c-0.408,0-0.819-0.064-1.223-0.194c-1.114-0.359-2.036-1.192-2.53-2.287l-2.563-5.439
					c-0.111-0.235-0.023-0.516,0.202-0.646l5.196-3c0.225-0.129,0.513-0.065,0.661,0.148l3.433,4.946
					c0.695,0.968,0.956,2.183,0.71,3.327c-0.238,1.109-0.914,2.034-1.902,2.605C23.033,18.594,22.354,18.776,21.668,18.776z
					 M16.453,10.846l2.37,5.03c0.382,0.845,1.083,1.481,1.929,1.754c0.809,0.262,1.661,0.167,2.4-0.259
					c0.74-0.427,1.246-1.12,1.425-1.949c0.187-0.868-0.014-1.794-0.55-2.54l-3.175-4.575L16.453,10.846z"/>
			</g>
		</g>
	</g>
</g>
<g id="Champagne">
</g>
<g id="Champagne_Open">
</g>
<g id="Alcohol_Drink">
</g>
<g id="Beer_Glass">
</g>
<g id="Party_Cake">
</g>
<g id="Pizza_Food">
</g>
<g id="Disco_Ball">
</g>
<g id="Equalizer">
</g>
<g id="DJ">
</g>
<g id="Tent">
</g>
<g id="Firework_1">
</g>
<g id="Firework_2">
</g>
<g id="Party_Glasses">
</g>
<g id="Barbeque">
</g>
<g id="Horn">
</g>
<g id="Speaker">
</g>
<g id="VIP">
</g>
<g id="Event_Ticket">
</g>
<g id="VIP_Ticket">
</g>
<g id="Popcorn">
</g>
<g id="Cord">
</g>
<g id="Invitation_1">
</g>
<g id="Invitation_2">
</g>
</svg>
