<?xml version="1.0" encoding="iso-8859-1"?>
<!-- Generator: Adobe Illustrator 19.2.1, SVG Export Plug-In . SVG Version: 6.00 Build 0)  -->
<svg version="1.1" xmlns="http://www.w3.org/2000/svg" xmlns:xlink="http://www.w3.org/1999/xlink" x="0px" y="0px"
	 viewBox="0 0 30 30" style="enable-background:new 0 0 30 30;" xml:space="preserve">
<g id="Event">
</g>
<g id="Event_2">
</g>
<g id="Add_Event">
</g>
<g id="Remove_Event">
</g>
<g id="Event_Reminder">
</g>
<g id="Wine_Glass">
</g>
<g id="Toast">
</g>
<g id="Champagne">
</g>
<g id="Champagne_Open">
</g>
<g id="Alcohol_Drink">
</g>
<g id="Beer_Glass">
</g>
<g id="Party_Cake">
</g>
<g id="Pizza_Food">
</g>
<g id="Disco_Ball">
</g>
<g id="Equalizer">
</g>
<g id="DJ">
</g>
<g id="Tent">
</g>
<g id="Firework_1">
</g>
<g id="Firework_2">
</g>
<g id="Party_Glasses">
</g>
<g id="Barbeque">
</g>
<g id="Horn">
</g>
<g id="Speaker">
</g>
<g id="VIP">
	<g>
		<g>
			<path d="M23.5,30h-18C5.224,30,5,29.776,5,29.5v-23C5,6.224,5.224,6,5.5,6h18C23.776,6,24,6.224,24,6.5v23
				C24,29.776,23.776,30,23.5,30z M6,29h17V7H6V29z"/>
		</g>
		<g>
			<path d="M11,24c-0.229,0-0.429-0.156-0.485-0.379l-1.5-6c-0.067-0.268,0.096-0.539,0.364-0.606
				c0.266-0.065,0.54,0.096,0.606,0.364L11,21.438l1.015-4.06c0.066-0.269,0.338-0.431,0.606-0.364
				c0.268,0.067,0.431,0.339,0.364,0.606l-1.5,6C11.429,23.844,11.229,24,11,24z"/>
		</g>
		<g>
			<path d="M14.5,24c-0.276,0-0.5-0.224-0.5-0.5v-6c0-0.276,0.224-0.5,0.5-0.5s0.5,0.224,0.5,0.5v6C15,23.776,14.776,24,14.5,24z"/>
		</g>
		<g>
			<path d="M16.5,24c-0.276,0-0.5-0.224-0.5-0.5v-6c0-0.276,0.224-0.5,0.5-0.5h2c0.985,0,1.5,1.006,1.5,2s-0.515,2-1.5,2H17v2.5
				C17,23.776,16.776,24,16.5,24z M17,20h1.5c0.341,0,0.5-0.597,0.5-1s-0.159-1-0.5-1H17V20z"/>
		</g>
		<g>
			<path d="M20.5,16h-12C8.224,16,8,15.776,8,15.5S8.224,15,8.5,15h12c0.276,0,0.5,0.224,0.5,0.5S20.776,16,20.5,16z"/>
		</g>
		<g>
			<path d="M20.5,26h-12C8.224,26,8,25.776,8,25.5S8.224,25,8.5,25h12c0.276,0,0.5,0.224,0.5,0.5S20.776,26,20.5,26z"/>
		</g>
		<g>
			<path d="M14.5,11c-0.075,0-0.151-0.017-0.223-0.053c-0.247-0.124-0.347-0.424-0.224-0.671l5-10
				c0.124-0.246,0.424-0.348,0.671-0.224c0.247,0.124,0.347,0.424,0.224,0.671l-5,10C14.859,10.898,14.683,11,14.5,11z"/>
		</g>
		<g>
			<path d="M12.5,7c-0.184,0-0.36-0.102-0.448-0.276l-3-6C8.929,0.477,9.029,0.177,9.276,0.053C9.524-0.071,9.823,0.03,9.947,0.276
				l3,6c0.124,0.247,0.023,0.547-0.224,0.671C12.652,6.983,12.576,7,12.5,7z"/>
		</g>
		<g>
			<path d="M14.5,12c-0.827,0-1.5-0.673-1.5-1.5S13.673,9,14.5,9S16,9.673,16,10.5S15.327,12,14.5,12z M14.5,10
				c-0.276,0-0.5,0.225-0.5,0.5s0.224,0.5,0.5,0.5s0.5-0.225,0.5-0.5S14.776,10,14.5,10z"/>
		</g>
	</g>
</g>
<g id="Event_Ticket">
</g>
<g id="VIP_Ticket">
</g>
<g id="Popcorn">
</g>
<g id="Cord">
</g>
<g id="Invitation_1">
</g>
<g id="Invitation_2">
</g>
</svg>
