<?xml version="1.0" encoding="iso-8859-1"?>
<!-- Generator: Adobe Illustrator 19.2.1, SVG Export Plug-In . SVG Version: 6.00 Build 0)  -->
<svg version="1.1" xmlns="http://www.w3.org/2000/svg" xmlns:xlink="http://www.w3.org/1999/xlink" x="0px" y="0px"
	 viewBox="0 0 24 24" style="enable-background:new 0 0 24 24;" xml:space="preserve">
<g id="Present_1">
</g>
<g id="Present_2">
</g>
<g id="Present_3">
</g>
<g id="Present_Cake">
</g>
<g id="Present_4">
</g>
<g id="Birthday_Cake_1">
</g>
<g id="Birthday_Cake_2">
</g>
<g id="Cake_Piece">
</g>
<g id="Cupcake">
</g>
<g id="Lollipop">
</g>
<g id="Birthday_Greetings_1">
</g>
<g id="Party_Greetings_2">
</g>
<g id="Birthday_Invitation">
</g>
<g id="Birthday_1">
</g>
<g id="Birthday_2">
</g>
<g id="Birthday_Message_1">
</g>
<g id="Birthday_Message_2">
</g>
<g id="Birthyday_Hat_1">
</g>
<g id="Birthay_Hat_2">
</g>
<g id="Birthday_Hat3">
</g>
<g id="Birthday_Decoration_1">
</g>
<g id="Birthday_Decoration_2">
</g>
<g id="Birthday_Decoration_3">
</g>
<g id="Horn_1">
</g>
<g id="Horn_2">
</g>
<g id="Baloon">
</g>
<g id="Balloons_1">
</g>
<g id="Balloons_2">
	<g>
		<path d="M20,8.731c0-2.491-1.846-4.516-4.173-4.696C15.936,4.507,16,4.996,16,5.5c0,0.475-0.076,1.029-0.195,1.613
			C15.921,7.205,16,7.341,16,7.5c0,0.244-0.179,0.438-0.41,0.482c-0.555,1.969-1.646,4.173-3.084,5.579
			c0.616,1.056,1.393,1.948,2.261,2.287l-0.714,1.429c-0.077,0.155-0.069,0.339,0.021,0.486C14.166,17.91,14.327,18,14.5,18H15v5.5
			c0,0.276,0.224,0.5,0.5,0.5s0.5-0.224,0.5-0.5V18h0.5c0.173,0,0.334-0.09,0.426-0.237c0.091-0.147,0.099-0.332,0.021-0.486
			l-0.714-1.429C18.354,15.037,20,10.938,20,8.731z M17.5,5C17.776,5,18,5.224,18,5.5C18,5.776,17.776,6,17.5,6S17,5.776,17,5.5
			C17,5.224,17.224,5,17.5,5z M17.5,9C17.776,9,18,9.224,18,9.5c0,0.276-0.224,0.5-0.5,0.5S17,9.776,17,9.5
			C17,9.224,17.224,9,17.5,9z M15.5,11c0.276,0,0.5,0.224,0.5,0.5c0,0.276-0.224,0.5-0.5,0.5S15,11.776,15,11.5
			C15,11.224,15.224,11,15.5,11z M13.5,14c-0.276,0-0.5-0.224-0.5-0.5c0-0.276,0.224-0.5,0.5-0.5s0.5,0.224,0.5,0.5
			C14,13.776,13.776,14,13.5,14z M17,13.5c0-0.276,0.224-0.5,0.5-0.5s0.5,0.224,0.5,0.5c0,0.276-0.224,0.5-0.5,0.5
			S17,13.776,17,13.5z"/>
		<path d="M15,5.5C15,2.467,12.532,0,9.5,0S4,2.467,4,5.5c0,2.56,2.132,7.537,4.757,8.368l-0.704,1.408
			c-0.077,0.155-0.069,0.339,0.021,0.486C8.166,15.91,8.327,16,8.5,16H9v7.5C9,23.776,9.224,24,9.5,24s0.5-0.224,0.5-0.5V16h0.5
			c0.173,0,0.334-0.09,0.426-0.237c0.091-0.147,0.099-0.332,0.021-0.486l-0.704-1.408C12.868,13.037,15,8.06,15,5.5z M13.5,3
			C13.776,3,14,3.224,14,3.5C14,3.776,13.776,4,13.5,4S13,3.776,13,3.5C13,3.224,13.224,3,13.5,3z M13.5,7C13.776,7,14,7.224,14,7.5
			C14,7.776,13.776,8,13.5,8S13,7.776,13,7.5C13,7.224,13.224,7,13.5,7z M5.5,8C5.224,8,5,7.776,5,7.5C5,7.224,5.224,7,5.5,7
			S6,7.224,6,7.5C6,7.776,5.776,8,5.5,8z M5.5,4C5.224,4,5,3.776,5,3.5C5,3.224,5.224,3,5.5,3S6,3.224,6,3.5C6,3.776,5.776,4,5.5,4z
			 M9.5,3C9.776,3,10,3.224,10,3.5C10,3.776,9.776,4,9.5,4S9,3.776,9,3.5C9,3.224,9.224,3,9.5,3z M9.5,7C9.776,7,10,7.224,10,7.5
			C10,7.776,9.776,8,9.5,8S9,7.776,9,7.5C9,7.224,9.224,7,9.5,7z M9.5,11c0.276,0,0.5,0.224,0.5,0.5c0,0.276-0.224,0.5-0.5,0.5
			S9,11.776,9,11.5C9,11.224,9.224,11,9.5,11z M7.5,10C7.224,10,7,9.776,7,9.5C7,9.224,7.224,9,7.5,9S8,9.224,8,9.5
			C8,9.776,7.776,10,7.5,10z M7.5,6C7.224,6,7,5.776,7,5.5C7,5.224,7.224,5,7.5,5S8,5.224,8,5.5C8,5.776,7.776,6,7.5,6z M7.5,2
			C7.224,2,7,1.776,7,1.5C7,1.224,7.224,1,7.5,1S8,1.224,8,1.5C8,1.776,7.776,2,7.5,2z M11.5,10C11.224,10,11,9.776,11,9.5
			C11,9.224,11.224,9,11.5,9S12,9.224,12,9.5C12,9.776,11.776,10,11.5,10z M11.5,6C11.224,6,11,5.776,11,5.5
			C11,5.224,11.224,5,11.5,5S12,5.224,12,5.5C12,5.776,11.776,6,11.5,6z M11.5,2C11.224,2,11,1.776,11,1.5C11,1.224,11.224,1,11.5,1
			S12,1.224,12,1.5C12,1.776,11.776,2,11.5,2z"/>
	</g>
</g>
<g id="Birthday_Picture">
</g>
<g id="Kid_x27_s_Champagne">
</g>
<g id="Candy">
</g>
<g id="Birthday_Card">
</g>
<g id="Flowers">
</g>
<g id="Birthday_Song">
</g>
<g id="Candle">
</g>
<g id="Sweet_16">
</g>
<g id="Clown">
</g>
<g id="Clown_2">
</g>
<g id="Birthday_Party">
</g>
<g id="Giving_Gift">
</g>
<g id="Present_5">
</g>
<g id="Champagne_in_ice_bucket">
</g>
<g id="Beer">
</g>
<g id="Truffles">
</g>
<g id="Pinata">
</g>
</svg>
