<?xml version="1.0" encoding="iso-8859-1"?>
<!-- Generator: Adobe Illustrator 19.2.1, SVG Export Plug-In . SVG Version: 6.00 Build 0)  -->
<svg version="1.1" xmlns="http://www.w3.org/2000/svg" xmlns:xlink="http://www.w3.org/1999/xlink" x="0px" y="0px"
	 viewBox="0 0 24 24" style="enable-background:new 0 0 24 24;" xml:space="preserve">
<g id="Present_1">
</g>
<g id="Present_2">
</g>
<g id="Present_3">
</g>
<g id="Present_Cake">
</g>
<g id="Present_4">
</g>
<g id="Birthday_Cake_1">
</g>
<g id="Birthday_Cake_2">
</g>
<g id="Cake_Piece">
</g>
<g id="Cupcake">
</g>
<g id="Lollipop">
</g>
<g id="Birthday_Greetings_1">
</g>
<g id="Party_Greetings_2">
</g>
<g id="Birthday_Invitation">
</g>
<g id="Birthday_1">
</g>
<g id="Birthday_2">
</g>
<g id="Birthday_Message_1">
</g>
<g id="Birthday_Message_2">
</g>
<g id="Birthyday_Hat_1">
</g>
<g id="Birthay_Hat_2">
</g>
<g id="Birthday_Hat3">
</g>
<g id="Birthday_Decoration_1">
</g>
<g id="Birthday_Decoration_2">
</g>
<g id="Birthday_Decoration_3">
</g>
<g id="Horn_1">
</g>
<g id="Horn_2">
</g>
<g id="Baloon">
</g>
<g id="Balloons_1">
</g>
<g id="Balloons_2">
</g>
<g id="Birthday_Picture">
</g>
<g id="Kid_x27_s_Champagne">
</g>
<g id="Candy">
</g>
<g id="Birthday_Card">
</g>
<g id="Flowers">
</g>
<g id="Birthday_Song">
</g>
<g id="Candle">
</g>
<g id="Sweet_16">
</g>
<g id="Clown">
</g>
<g id="Clown_2">
</g>
<g id="Birthday_Party">
</g>
<g id="Giving_Gift">
</g>
<g id="Present_5">
</g>
<g id="Champagne_in_ice_bucket">
</g>
<g id="Beer">
	<g>
		<path d="M4.5,11h-3C1.224,11,1,11.224,1,11.5v10C1,21.776,1.224,22,1.5,22h3C4.776,22,5,21.776,5,21.5v-10
			C5,11.224,4.776,11,4.5,11z"/>
		<path d="M22.5,11h-3c-0.276,0-0.5,0.224-0.5,0.5v10c0,0.276,0.224,0.5,0.5,0.5h3c0.276,0,0.5-0.224,0.5-0.5v-10
			C23,11.224,22.776,11,22.5,11z"/>
		<rect x="6" y="13" width="12" height="4"/>
		<path d="M18,18H6v3.5c0,0.176-0.036,0.343-0.092,0.5h12.184C18.036,21.843,18,21.676,18,21.5V18z"/>
		<path d="M9,12h6v-1.264c0-0.231-0.055-0.463-0.158-0.67l-0.789-1.578C14.018,8.418,14,8.341,14,8.264V4c0-0.551-0.449-1-1-1h0.5
			C13.776,3,14,2.776,14,2.5S13.776,2,13.5,2h-3C10.224,2,10,2.224,10,2.5S10.224,3,10.5,3H11c-0.551,0-1,0.449-1,1v4.264
			c0,0.077-0.018,0.154-0.053,0.223l-0.789,1.578C9.055,10.272,9,10.504,9,10.736V12z"/>
		<path d="M19.809,10l-0.756-1.513C19.018,8.418,19,8.341,19,8.264V4c0-0.551-0.449-1-1-1h0.5C18.776,3,19,2.776,19,2.5
			S18.776,2,18.5,2h-3C15.224,2,15,2.224,15,2.5S15.224,3,15.5,3H16c-0.551,0-1,0.449-1,1v4.146l0.736,1.472
			C15.909,9.963,16,10.35,16,10.736V12h2v-0.5c0-0.827,0.673-1.5,1.5-1.5H19.809z"/>
		<path d="M6,12h2v-1.264c0-0.386,0.091-0.772,0.264-1.118L9,8.146V4c0-0.551-0.449-1-1-1h0.5C8.776,3,9,2.776,9,2.5S8.776,2,8.5,2
			h-3C5.224,2,5,2.224,5,2.5S5.224,3,5.5,3H6C5.449,3,5,3.449,5,4v4.264c0,0.077-0.018,0.154-0.053,0.223L4.191,10H4.5
			C5.327,10,6,10.673,6,11.5V12z"/>
	</g>
</g>
<g id="Truffles">
</g>
<g id="Pinata">
</g>
</svg>
