<?xml version="1.0" encoding="iso-8859-1"?>
<!-- Generator: Adobe Illustrator 19.2.1, SVG Export Plug-In . SVG Version: 6.00 Build 0)  -->
<svg version="1.1" xmlns="http://www.w3.org/2000/svg" xmlns:xlink="http://www.w3.org/1999/xlink" x="0px" y="0px"
	 viewBox="0 0 24 24" style="enable-background:new 0 0 24 24;" xml:space="preserve">
<g id="Present_1">
</g>
<g id="Present_2">
</g>
<g id="Present_3">
</g>
<g id="Present_Cake">
</g>
<g id="Present_4">
</g>
<g id="Birthday_Cake_1">
</g>
<g id="Birthday_Cake_2">
</g>
<g id="Cake_Piece">
</g>
<g id="Cupcake">
</g>
<g id="Lollipop">
</g>
<g id="Birthday_Greetings_1">
	<g>
		<path d="M22.484,7.823L22,7.401V9.5c0,0.158-0.075,0.307-0.201,0.401L21,10.496l0,0l-7.394,5.512l9.199,7.096
			c0.018,0.014,0.027,0.034,0.043,0.05C22.942,22.955,23,22.735,23,22.5V8.968C23,8.526,22.812,8.108,22.484,7.823z"/>
		<path d="M16,6.5c0-0.652-0.418-1.208-1-1.415v1.248v1.581C15.582,7.708,16,7.152,16,6.5z"/>
		<path d="M6.169,18.496l3.225-2.488L2,10.496l0,0L1.201,9.901C1.075,9.807,1,9.658,1,9.5V7.402L0.516,7.823
			C0.188,8.108,0,8.526,0,8.968V22.5c0,0.235,0.058,0.455,0.152,0.654c0.016-0.016,0.025-0.036,0.043-0.05L6.169,18.496
			L6.169,18.496z"/>
		<path d="M10.678,16.28l-9.826,7.58C1.036,23.948,1.24,24,1.457,24h20.087c0.216,0,0.42-0.052,0.605-0.14l-9.829-7.582
			C11.829,15.906,11.168,15.907,10.678,16.28z"/>
		<path d="M12,7.5C12,7.224,11.776,7,11.5,7H11v1h0.5C11.776,8,12,7.776,12,7.5z"/>
		<path d="M12.771,15.384L21,9.249V6.53V5.5v-5C21,0.224,20.776,0,20.5,0h-18C2.224,0,2,0.224,2,0.5V6v0.53v2.719l8.23,6.135
			C11.013,14.879,11.989,14.879,12.771,15.384z M14,4.5C14,4.224,14.224,4,14.5,4c1.321,0,2.396,1.034,2.483,2.333l0,0
			C16.987,6.39,17,6.443,17,6.5C17,7.878,15.878,9,14.5,9C14.224,9,14,8.776,14,8.5V6.333V4.5z M9,8.5C9,8.776,8.776,9,8.5,9
			S8,8.776,8,8.5V7H7v1.5C7,8.776,6.776,9,6.5,9S6,8.776,6,8.5V6.333V4.5C6,4.224,6.224,4,6.5,4S7,4.224,7,4.5V6h1V4.5
			C8,4.224,8.224,4,8.5,4S9,4.224,9,4.5v1.833V8.5z M10,8.5V6.333V4.5C10,4.224,10.224,4,10.5,4h1C12.327,4,13,4.673,13,5.5
			c0,0.384-0.145,0.734-0.383,1C12.855,6.766,13,7.116,13,7.5C13,8.327,12.327,9,11.5,9h-1C10.224,9,10,8.776,10,8.5z"/>
		<path d="M12,5.5C12,5.224,11.776,5,11.5,5H11v1h0.5C11.776,6,12,5.776,12,5.5z"/>
	</g>
</g>
<g id="Party_Greetings_2">
</g>
<g id="Birthday_Invitation">
</g>
<g id="Birthday_1">
</g>
<g id="Birthday_2">
</g>
<g id="Birthday_Message_1">
</g>
<g id="Birthday_Message_2">
</g>
<g id="Birthyday_Hat_1">
</g>
<g id="Birthay_Hat_2">
</g>
<g id="Birthday_Hat3">
</g>
<g id="Birthday_Decoration_1">
</g>
<g id="Birthday_Decoration_2">
</g>
<g id="Birthday_Decoration_3">
</g>
<g id="Horn_1">
</g>
<g id="Horn_2">
</g>
<g id="Baloon">
</g>
<g id="Balloons_1">
</g>
<g id="Balloons_2">
</g>
<g id="Birthday_Picture">
</g>
<g id="Kid_x27_s_Champagne">
</g>
<g id="Candy">
</g>
<g id="Birthday_Card">
</g>
<g id="Flowers">
</g>
<g id="Birthday_Song">
</g>
<g id="Candle">
</g>
<g id="Sweet_16">
</g>
<g id="Clown">
</g>
<g id="Clown_2">
</g>
<g id="Birthday_Party">
</g>
<g id="Giving_Gift">
</g>
<g id="Present_5">
</g>
<g id="Champagne_in_ice_bucket">
</g>
<g id="Beer">
</g>
<g id="Truffles">
</g>
<g id="Pinata">
</g>
</svg>
