<?xml version="1.0" encoding="iso-8859-1"?>
<!-- Generator: Adobe Illustrator 19.2.1, SVG Export Plug-In . SVG Version: 6.00 Build 0)  -->
<svg version="1.1" xmlns="http://www.w3.org/2000/svg" xmlns:xlink="http://www.w3.org/1999/xlink" x="0px" y="0px"
	 viewBox="0 0 24 24" style="enable-background:new 0 0 24 24;" xml:space="preserve">
<g id="Present_1">
</g>
<g id="Present_2">
</g>
<g id="Present_3">
</g>
<g id="Present_Cake">
</g>
<g id="Present_4">
</g>
<g id="Birthday_Cake_1">
</g>
<g id="Birthday_Cake_2">
</g>
<g id="Cake_Piece">
</g>
<g id="Cupcake">
</g>
<g id="Lollipop">
</g>
<g id="Birthday_Greetings_1">
</g>
<g id="Party_Greetings_2">
</g>
<g id="Birthday_Invitation">
</g>
<g id="Birthday_1">
</g>
<g id="Birthday_2">
</g>
<g id="Birthday_Message_1">
</g>
<g id="Birthday_Message_2">
</g>
<g id="Birthyday_Hat_1">
</g>
<g id="Birthay_Hat_2">
</g>
<g id="Birthday_Hat3">
	<g>
		<path d="M14.5,10.5c0,0.276,0.225,0.5,0.5,0.5c0.231,0,0.417-0.161,0.474-0.374l-0.227-0.551C15.174,10.032,15.092,10,15,10
			C14.725,10,14.5,10.224,14.5,10.5z"/>
		<circle cx="12" cy="13.5" r="0.5"/>
		<circle cx="9" cy="22.5" r="0.5"/>
		<circle cx="9" cy="16.5" r="0.5"/>
		<circle cx="12" cy="7.5" r="0.5"/>
		<circle cx="15" cy="22.5" r="0.5"/>
		<path d="M9,11c0.275,0,0.5-0.224,0.5-0.5S9.275,10,9,10c-0.089,0-0.169,0.03-0.241,0.071l-0.232,0.562C8.586,10.843,8.772,11,9,11
			z"/>
		<circle cx="6" cy="19.5" r="0.5"/>
		<path d="M19.462,20.31l-0.087-0.212C19.143,20.628,18.615,21,18,21c-0.827,0-1.5-0.673-1.5-1.5S17.173,18,18,18
			c0.197,0,0.384,0.04,0.556,0.11l-2.646-6.426C15.657,11.879,15.344,12,15,12c-0.827,0-1.5-0.673-1.5-1.5
			c0-0.763,0.575-1.388,1.313-1.481l-1.448-3.515c-0.037,0.007-0.08,0.017-0.112,0.022C12.971,5.727,12.557,5.98,11.99,5.98
			c-0.602,0-1.03-0.283-1.265-0.455c-0.026-0.004-0.058-0.013-0.086-0.018L9.192,9.019C9.928,9.115,10.5,9.739,10.5,10.5
			c0,0.827-0.673,1.5-1.5,1.5c-0.342,0-0.654-0.12-0.907-0.314l-2.648,6.423C5.617,18.04,5.804,18,6,18c0.827,0,1.5,0.673,1.5,1.5
			S6.827,21,6,21c-0.615,0-1.143-0.372-1.374-0.903L4.538,20.31C4.513,20.37,4.5,20.435,4.5,20.5c0,1.267,1.302,2.334,3.345,2.946
			C7.633,23.187,7.5,22.86,7.5,22.5C7.5,21.673,8.173,21,9,21s1.5,0.673,1.5,1.5c0,0.588-0.343,1.093-0.837,1.339
			C10.393,23.943,11.176,24,12,24s1.607-0.057,2.337-0.161C13.843,23.593,13.5,23.088,13.5,22.5c0-0.827,0.673-1.5,1.5-1.5
			s1.5,0.673,1.5,1.5c0,0.36-0.133,0.687-0.345,0.946c2.043-0.612,3.345-1.679,3.345-2.946C19.5,20.435,19.487,20.37,19.462,20.31z
			 M12,6c0.827,0,1.5,0.673,1.5,1.5S12.827,9,12,9s-1.5-0.673-1.5-1.5S11.173,6,12,6z M12,12c0.827,0,1.5,0.673,1.5,1.5
			S12.827,15,12,15s-1.5-0.673-1.5-1.5S11.173,12,12,12z M9,18c-0.827,0-1.5-0.673-1.5-1.5S8.173,15,9,15s1.5,0.673,1.5,1.5
			S9.827,18,9,18z M12,21c-0.827,0-1.5-0.673-1.5-1.5S11.173,18,12,18s1.5,0.673,1.5,1.5S12.827,21,12,21z M15,18
			c-0.827,0-1.5-0.673-1.5-1.5S14.173,15,15,15s1.5,0.673,1.5,1.5S15.827,18,15,18z"/>
		<circle cx="18" cy="19.5" r="0.5"/>
		<circle cx="15" cy="16.5" r="0.5"/>
		<circle cx="12" cy="19.5" r="0.5"/>
		<path d="M9.897,3.356C9.911,3.39,9.924,3.473,9.934,3.539c0.031,0.207,0.074,0.49,0.296,0.711c0.222,0.221,0.504,0.265,0.71,0.296
			c0.067,0.01,0.15,0.022,0.185,0.037c0.027,0.011,0.096,0.063,0.142,0.097c0.169,0.126,0.401,0.3,0.725,0.3
			c0.322,0,0.555-0.174,0.725-0.3c0.046-0.034,0.114-0.085,0.142-0.097c0.033-0.014,0.116-0.026,0.183-0.037
			c0.207-0.031,0.491-0.074,0.712-0.296c0.222-0.221,0.264-0.504,0.295-0.71c0.011-0.066,0.022-0.149,0.037-0.183
			c0.011-0.027,0.063-0.096,0.097-0.142c0.127-0.17,0.301-0.402,0.301-0.726s-0.174-0.556-0.301-0.726
			c-0.034-0.045-0.086-0.114-0.097-0.142c-0.015-0.033-0.026-0.116-0.037-0.183c-0.031-0.206-0.073-0.489-0.295-0.71
			c-0.222-0.222-0.505-0.265-0.712-0.296c-0.066-0.01-0.149-0.022-0.182-0.036c-0.027-0.012-0.097-0.063-0.142-0.097
			C12.546,0.174,12.313,0,11.99,0s-0.556,0.174-0.726,0.301c-0.045,0.034-0.114,0.085-0.141,0.096
			c-0.034,0.014-0.116,0.026-0.184,0.037c-0.206,0.031-0.489,0.074-0.711,0.296S9.965,1.234,9.934,1.441
			C9.924,1.507,9.911,1.59,9.897,1.623C9.887,1.65,9.835,1.719,9.801,1.764C9.674,1.934,9.5,2.167,9.5,2.49s0.174,0.556,0.301,0.726
			C9.835,3.261,9.887,3.33,9.897,3.356z"/>
	</g>
</g>
<g id="Birthday_Decoration_1">
</g>
<g id="Birthday_Decoration_2">
</g>
<g id="Birthday_Decoration_3">
</g>
<g id="Horn_1">
</g>
<g id="Horn_2">
</g>
<g id="Baloon">
</g>
<g id="Balloons_1">
</g>
<g id="Balloons_2">
</g>
<g id="Birthday_Picture">
</g>
<g id="Kid_x27_s_Champagne">
</g>
<g id="Candy">
</g>
<g id="Birthday_Card">
</g>
<g id="Flowers">
</g>
<g id="Birthday_Song">
</g>
<g id="Candle">
</g>
<g id="Sweet_16">
</g>
<g id="Clown">
</g>
<g id="Clown_2">
</g>
<g id="Birthday_Party">
</g>
<g id="Giving_Gift">
</g>
<g id="Present_5">
</g>
<g id="Champagne_in_ice_bucket">
</g>
<g id="Beer">
</g>
<g id="Truffles">
</g>
<g id="Pinata">
</g>
</svg>
