<?xml version="1.0" encoding="iso-8859-1"?>
<!-- Generator: Adobe Illustrator 19.2.1, SVG Export Plug-In . SVG Version: 6.00 Build 0)  -->
<svg version="1.1" xmlns="http://www.w3.org/2000/svg" xmlns:xlink="http://www.w3.org/1999/xlink" x="0px" y="0px"
	 viewBox="0 0 24 24" style="enable-background:new 0 0 24 24;" xml:space="preserve">
<g id="Present_1">
</g>
<g id="Present_2">
</g>
<g id="Present_3">
</g>
<g id="Present_Cake">
</g>
<g id="Present_4">
</g>
<g id="Birthday_Cake_1">
</g>
<g id="Birthday_Cake_2">
</g>
<g id="Cake_Piece">
</g>
<g id="Cupcake">
</g>
<g id="Lollipop">
</g>
<g id="Birthday_Greetings_1">
</g>
<g id="Party_Greetings_2">
</g>
<g id="Birthday_Invitation">
</g>
<g id="Birthday_1">
</g>
<g id="Birthday_2">
</g>
<g id="Birthday_Message_1">
	<g>
		<path d="M5,18h14V5H5V18z M7,12.5C7,11.673,7.673,11,8.5,11H11V9c0-0.276,0.224-0.5,0.5-0.5H12c-0.552,0-1-0.449-1-1
			c0-0.357,0.32-0.896,0.589-1.284c0.186-0.271,0.637-0.271,0.822,0C12.68,6.604,13,7.143,13,7.5c0,0.551-0.448,1-1,1h0.5
			C12.776,8.5,13,8.724,13,9v2h2.5c0.827,0,1.5,0.673,1.5,1.5V13c0,0.737-0.405,1.375-1,1.722V15.5c0,0.827-0.673,1.5-1.5,1.5h-5
			C8.673,17,8,16.327,8,15.5v-0.778C7.405,14.375,7,13.737,7,13V12.5z"/>
		<path d="M9,14c0.552,0,1-0.449,1-1c0-0.276,0.224-0.5,0.5-0.5S11,12.724,11,13c0,0.551,0.448,1,1,1s1-0.449,1-1
			c0-0.276,0.224-0.5,0.5-0.5S14,12.724,14,13c0,0.551,0.448,1,1,1s1-0.449,1-1v-0.5c0-0.276-0.225-0.5-0.5-0.5h-3h-1h-3
			C8.225,12,8,12.224,8,12.5V13C8,13.551,8.448,14,9,14z"/>
		<path d="M12,15c-0.597,0-1.133-0.263-1.5-0.679C10.133,14.737,9.597,15,9,15v0.5C9,15.776,9.225,16,9.5,16h5
			c0.275,0,0.5-0.224,0.5-0.5V15c-0.597,0-1.133-0.263-1.5-0.679C13.133,14.737,12.597,15,12,15z"/>
		<polygon points="12,20.999 12,21 12.5,21 		"/>
		<path d="M15.5,0h-7C6.57,0,5,1.57,5,3.5V4h14V3.5C19,1.57,17.43,0,15.5,0z M12.5,3h-1C11.224,3,11,2.776,11,2.5S11.224,2,11.5,2h1
			C12.776,2,13,2.224,13,2.5S12.776,3,12.5,3z M15.52,3c-0.275,0-0.505-0.224-0.505-0.5S15.233,2,15.51,2h0.01
			c0.276,0,0.5,0.224,0.5,0.5S15.796,3,15.52,3z"/>
		<path d="M5,20.5C5,22.43,6.57,24,8.5,24h7c1.93,0,3.5-1.57,3.5-3.5V19H5V20.5z M12,20c0.552,0,1,0.449,1,1s-0.448,1-1,1
			s-1-0.449-1-1S11.448,20,12,20z"/>
	</g>
</g>
<g id="Birthday_Message_2">
</g>
<g id="Birthyday_Hat_1">
</g>
<g id="Birthay_Hat_2">
</g>
<g id="Birthday_Hat3">
</g>
<g id="Birthday_Decoration_1">
</g>
<g id="Birthday_Decoration_2">
</g>
<g id="Birthday_Decoration_3">
</g>
<g id="Horn_1">
</g>
<g id="Horn_2">
</g>
<g id="Baloon">
</g>
<g id="Balloons_1">
</g>
<g id="Balloons_2">
</g>
<g id="Birthday_Picture">
</g>
<g id="Kid_x27_s_Champagne">
</g>
<g id="Candy">
</g>
<g id="Birthday_Card">
</g>
<g id="Flowers">
</g>
<g id="Birthday_Song">
</g>
<g id="Candle">
</g>
<g id="Sweet_16">
</g>
<g id="Clown">
</g>
<g id="Clown_2">
</g>
<g id="Birthday_Party">
</g>
<g id="Giving_Gift">
</g>
<g id="Present_5">
</g>
<g id="Champagne_in_ice_bucket">
</g>
<g id="Beer">
</g>
<g id="Truffles">
</g>
<g id="Pinata">
</g>
</svg>
