<?xml version="1.0" encoding="iso-8859-1"?>
<!-- Generator: Adobe Illustrator 19.2.1, SVG Export Plug-In . SVG Version: 6.00 Build 0)  -->
<svg version="1.1" xmlns="http://www.w3.org/2000/svg" xmlns:xlink="http://www.w3.org/1999/xlink" x="0px" y="0px"
	 viewBox="0 0 24 24" style="enable-background:new 0 0 24 24;" xml:space="preserve">
<g id="Present_1">
</g>
<g id="Present_2">
</g>
<g id="Present_3">
</g>
<g id="Present_Cake">
</g>
<g id="Present_4">
</g>
<g id="Birthday_Cake_1">
</g>
<g id="Birthday_Cake_2">
</g>
<g id="Cake_Piece">
</g>
<g id="Cupcake">
</g>
<g id="Lollipop">
</g>
<g id="Birthday_Greetings_1">
</g>
<g id="Party_Greetings_2">
</g>
<g id="Birthday_Invitation">
</g>
<g id="Birthday_1">
</g>
<g id="Birthday_2">
</g>
<g id="Birthday_Message_1">
</g>
<g id="Birthday_Message_2">
</g>
<g id="Birthyday_Hat_1">
</g>
<g id="Birthay_Hat_2">
</g>
<g id="Birthday_Hat3">
</g>
<g id="Birthday_Decoration_1">
</g>
<g id="Birthday_Decoration_2">
	<g>
		<path d="M1.013,2.431C1.01,2.454,1,2.473,1,2.496v6c0,0.202,0.122,0.385,0.309,0.462C1.37,8.984,1.435,8.996,1.5,8.996
			c0.13,0,0.258-0.051,0.354-0.146l4-4C5.912,4.791,5.947,4.721,5.97,4.647c0.635,0.212,1.323,0.418,2.064,0.614l0.971,6.311
			c0.032,0.206,0.188,0.37,0.392,0.413c0.034,0.007,0.068,0.011,0.103,0.011c0.168,0,0.329-0.085,0.422-0.231l3.496-5.493
			c0.793,0.094,1.536,0.155,2.249,0.198l2.379,5.234c0.081,0.178,0.259,0.293,0.455,0.293s0.374-0.115,0.455-0.293l2.43-5.346
			C22.76,6.2,23.551,6,23.628,5.979c0.267-0.071,0.425-0.344,0.354-0.611c-0.07-0.267-0.343-0.426-0.611-0.355
			c-0.045,0.012-4.637,1.188-11.79-0.01C4.45,3.81,0.838,1.125,0.802,1.098c-0.22-0.167-0.533-0.123-0.7,0.096
			c-0.167,0.22-0.125,0.533,0.095,0.7C0.236,1.924,0.509,2.127,1.013,2.431z"/>
		<path d="M23.804,16.529l-1.203-2.871c0.754-0.429,1.153-0.727,1.201-0.764c0.22-0.167,0.262-0.48,0.095-0.7s-0.48-0.263-0.7-0.096
			c-0.036,0.027-3.648,2.712-10.78,3.905c-1.787,0.298-3.414,0.449-4.85,0.507c-0.023-0.003-0.044-0.014-0.068-0.014
			c-0.031,0-0.058,0.012-0.088,0.018c-4.217,0.151-6.75-0.493-6.784-0.501c-0.267-0.069-0.541,0.088-0.611,0.355
			c-0.071,0.267,0.088,0.541,0.354,0.611C0.455,17.001,1.386,17.236,3,17.397v3.099c0,1.378,1.122,2.5,2.5,2.5s2.5-1.122,2.5-2.5
			v-3.007c0.878-0.046,1.809-0.119,2.814-0.244l0.726,3.734c0.127,0.655,0.502,1.222,1.056,1.595
			c0.418,0.282,0.899,0.428,1.392,0.428c0.16,0,0.322-0.016,0.482-0.047c0.656-0.127,1.222-0.502,1.596-1.056
			s0.509-1.219,0.382-1.875l-0.72-3.704c0.827-0.212,1.59-0.438,2.288-0.67l1.178,2.81c0.258,0.616,0.741,1.095,1.359,1.347
			c0.305,0.125,0.626,0.188,0.947,0.188c0.328,0,0.655-0.065,0.966-0.196c0.616-0.258,1.094-0.741,1.347-1.359
			C24.066,17.825,24.063,17.145,23.804,16.529z"/>
	</g>
</g>
<g id="Birthday_Decoration_3">
</g>
<g id="Horn_1">
</g>
<g id="Horn_2">
</g>
<g id="Baloon">
</g>
<g id="Balloons_1">
</g>
<g id="Balloons_2">
</g>
<g id="Birthday_Picture">
</g>
<g id="Kid_x27_s_Champagne">
</g>
<g id="Candy">
</g>
<g id="Birthday_Card">
</g>
<g id="Flowers">
</g>
<g id="Birthday_Song">
</g>
<g id="Candle">
</g>
<g id="Sweet_16">
</g>
<g id="Clown">
</g>
<g id="Clown_2">
</g>
<g id="Birthday_Party">
</g>
<g id="Giving_Gift">
</g>
<g id="Present_5">
</g>
<g id="Champagne_in_ice_bucket">
</g>
<g id="Beer">
</g>
<g id="Truffles">
</g>
<g id="Pinata">
</g>
</svg>
