<?xml version="1.0" encoding="iso-8859-1"?>
<!-- Generator: Adobe Illustrator 19.2.1, SVG Export Plug-In . SVG Version: 6.00 Build 0)  -->
<svg version="1.1" xmlns="http://www.w3.org/2000/svg" xmlns:xlink="http://www.w3.org/1999/xlink" x="0px" y="0px"
	 viewBox="0 0 24 24" style="enable-background:new 0 0 24 24;" xml:space="preserve">
<g id="Present_1">
</g>
<g id="Present_2">
</g>
<g id="Present_3">
</g>
<g id="Present_Cake">
</g>
<g id="Present_4">
</g>
<g id="Birthday_Cake_1">
</g>
<g id="Birthday_Cake_2">
	<g>
		<path d="M8.328,11.793c0.578,0.257,1.268,0.257,1.844,0c0.832-0.37,1.824-0.369,2.656,0c0.578,0.257,1.268,0.257,1.844,0
			c0.832-0.37,1.824-0.369,2.656,0c0.209,0.093,0.439,0.141,0.672,0.167v-0.474c0-1.378-1.121-2.5-2.5-2.5h-8
			c-1.379,0-2.5,1.122-2.5,2.5v0.474c0.233-0.026,0.463-0.074,0.672-0.167C6.504,11.422,7.496,11.422,8.328,11.793z"/>
		<path d="M17.5,13.985c0.171,0,0.335,0.027,0.5,0.051v-1.077c-0.373-0.029-0.742-0.104-1.078-0.253
			c-0.576-0.257-1.266-0.257-1.844,0c-0.832,0.369-1.824,0.369-2.656,0c-0.576-0.257-1.266-0.257-1.844,0
			c-0.832,0.369-1.824,0.369-2.656,0c-0.576-0.257-1.266-0.257-1.844,0C5.742,12.856,5.373,12.931,5,12.959v1.077
			c0.165-0.024,0.329-0.051,0.5-0.051H17.5z"/>
		<path d="M17.5,14.985h-12c-1.379,0-2.5,1.122-2.5,2.5V18.9c0.146-0.032,0.288-0.076,0.422-0.136c0.832-0.369,1.824-0.369,2.656,0
			c0.576,0.257,1.266,0.257,1.844,0c0.832-0.369,1.824-0.369,2.656,0c0.576,0.257,1.266,0.257,1.844,0
			c0.832-0.369,1.824-0.369,2.656,0c0.576,0.257,1.266,0.257,1.844,0c0.844-0.374,1.812-0.374,2.657,0
			c0.133,0.06,0.276,0.103,0.421,0.136v-1.415C20,16.107,18.879,14.985,17.5,14.985z"/>
		<path d="M17.328,19.678c-0.832,0.37-1.824,0.37-2.656,0c-0.578-0.257-1.268-0.257-1.844,0c-0.832,0.37-1.824,0.369-2.656,0
			c-0.578-0.257-1.268-0.257-1.844,0c-0.832,0.37-1.824,0.369-2.656,0c-0.578-0.257-1.268-0.256-1.844,0
			C3.568,19.794,3.286,19.861,3,19.905v3.58c0,0.276,0.224,0.5,0.5,0.5h16c0.276,0,0.5-0.224,0.5-0.5v-3.58
			c-0.287-0.044-0.568-0.112-0.828-0.228C18.596,19.422,17.906,19.423,17.328,19.678z"/>
		<path d="M11.5,4.985c0.827,0,1.5-0.673,1.5-1.5c0-0.604-0.794-2.594-1.037-3.189c-0.154-0.376-0.771-0.376-0.926,0
			C10.794,0.892,10,2.882,10,3.485C10,4.313,10.673,4.985,11.5,4.985z"/>
		<path d="M13,5.485c0-0.004-0.001-0.008-0.001-0.012C12.58,5.79,12.065,5.985,11.5,5.985s-1.08-0.195-1.499-0.512
			C10.001,5.478,10,5.482,10,5.485v2.5h3V5.485z"/>
	</g>
</g>
<g id="Cake_Piece">
</g>
<g id="Cupcake">
</g>
<g id="Lollipop">
</g>
<g id="Birthday_Greetings_1">
</g>
<g id="Party_Greetings_2">
</g>
<g id="Birthday_Invitation">
</g>
<g id="Birthday_1">
</g>
<g id="Birthday_2">
</g>
<g id="Birthday_Message_1">
</g>
<g id="Birthday_Message_2">
</g>
<g id="Birthyday_Hat_1">
</g>
<g id="Birthay_Hat_2">
</g>
<g id="Birthday_Hat3">
</g>
<g id="Birthday_Decoration_1">
</g>
<g id="Birthday_Decoration_2">
</g>
<g id="Birthday_Decoration_3">
</g>
<g id="Horn_1">
</g>
<g id="Horn_2">
</g>
<g id="Baloon">
</g>
<g id="Balloons_1">
</g>
<g id="Balloons_2">
</g>
<g id="Birthday_Picture">
</g>
<g id="Kid_x27_s_Champagne">
</g>
<g id="Candy">
</g>
<g id="Birthday_Card">
</g>
<g id="Flowers">
</g>
<g id="Birthday_Song">
</g>
<g id="Candle">
</g>
<g id="Sweet_16">
</g>
<g id="Clown">
</g>
<g id="Clown_2">
</g>
<g id="Birthday_Party">
</g>
<g id="Giving_Gift">
</g>
<g id="Present_5">
</g>
<g id="Champagne_in_ice_bucket">
</g>
<g id="Beer">
</g>
<g id="Truffles">
</g>
<g id="Pinata">
</g>
</svg>
