<?xml version="1.0" encoding="iso-8859-1"?>
<!-- Generator: Adobe Illustrator 19.2.1, SVG Export Plug-In . SVG Version: 6.00 Build 0)  -->
<svg version="1.1" xmlns="http://www.w3.org/2000/svg" xmlns:xlink="http://www.w3.org/1999/xlink" x="0px" y="0px"
	 viewBox="0 0 24 24" style="enable-background:new 0 0 24 24;" xml:space="preserve">
<g id="Present_1">
</g>
<g id="Present_2">
</g>
<g id="Present_3">
</g>
<g id="Present_Cake">
</g>
<g id="Present_4">
</g>
<g id="Birthday_Cake_1">
</g>
<g id="Birthday_Cake_2">
</g>
<g id="Cake_Piece">
	<g>
		<path d="M12,6c1.103,0,2-0.897,2-2c0-0.517-0.334-1.069-0.722-1.708C12.913,1.69,12.5,1.007,12.5,0.5C12.5,0.224,12.276,0,12,0
			s-0.5,0.224-0.5,0.5c0,0.507-0.413,1.19-0.778,1.792C10.334,2.931,10,3.483,10,4C10,5.103,10.897,6,12,6z"/>
		<path d="M19.956,11.298c-0.003-0.007-0.009-0.011-0.012-0.018c-0.036-0.073-0.091-0.131-0.157-0.178
			c-0.009-0.007-0.012-0.019-0.022-0.025c-1.234-0.771-2.84-1.427-4.765-1.971V11c0,0.967-0.788,2-3,2s-3-1.033-3-2V8.315
			l-5.88,6.86c-0.007,0.008-0.005,0.019-0.011,0.027c-0.05,0.066-0.082,0.142-0.095,0.228c-0.002,0.016-0.008,0.029-0.009,0.046
			C3.004,15.484,3,15.492,3,15.5v0.609v4.031V23.5c0,0.154,0.071,0.299,0.192,0.394C3.281,23.963,3.39,24,3.5,24
			c0.04,0,0.081-0.005,0.121-0.015l16-4C19.844,19.929,20,19.729,20,19.5v-3.609v-4.031V11.5C20,11.428,19.983,11.36,19.956,11.298z
			 M19,13.141v1.969l-15,3.75v-1.969L19,13.141z"/>
		<path d="M12,12c0.967,0,2-0.263,2-1V7c0-0.238-0.049-0.464-0.126-0.676C13.359,6.74,12.713,7,12,7s-1.359-0.26-1.874-0.676
			C10.049,6.536,10,6.762,10,7v4C10,11.737,11.033,12,12,12z"/>
	</g>
</g>
<g id="Cupcake">
</g>
<g id="Lollipop">
</g>
<g id="Birthday_Greetings_1">
</g>
<g id="Party_Greetings_2">
</g>
<g id="Birthday_Invitation">
</g>
<g id="Birthday_1">
</g>
<g id="Birthday_2">
</g>
<g id="Birthday_Message_1">
</g>
<g id="Birthday_Message_2">
</g>
<g id="Birthyday_Hat_1">
</g>
<g id="Birthay_Hat_2">
</g>
<g id="Birthday_Hat3">
</g>
<g id="Birthday_Decoration_1">
</g>
<g id="Birthday_Decoration_2">
</g>
<g id="Birthday_Decoration_3">
</g>
<g id="Horn_1">
</g>
<g id="Horn_2">
</g>
<g id="Baloon">
</g>
<g id="Balloons_1">
</g>
<g id="Balloons_2">
</g>
<g id="Birthday_Picture">
</g>
<g id="Kid_x27_s_Champagne">
</g>
<g id="Candy">
</g>
<g id="Birthday_Card">
</g>
<g id="Flowers">
</g>
<g id="Birthday_Song">
</g>
<g id="Candle">
</g>
<g id="Sweet_16">
</g>
<g id="Clown">
</g>
<g id="Clown_2">
</g>
<g id="Birthday_Party">
</g>
<g id="Giving_Gift">
</g>
<g id="Present_5">
</g>
<g id="Champagne_in_ice_bucket">
</g>
<g id="Beer">
</g>
<g id="Truffles">
</g>
<g id="Pinata">
</g>
</svg>
