<?xml version="1.0" encoding="iso-8859-1"?>
<!-- Generator: Adobe Illustrator 19.2.1, SVG Export Plug-In . SVG Version: 6.00 Build 0)  -->
<svg version="1.1" xmlns="http://www.w3.org/2000/svg" xmlns:xlink="http://www.w3.org/1999/xlink" x="0px" y="0px"
	 viewBox="0 0 24 24" style="enable-background:new 0 0 24 24;" xml:space="preserve">
<g id="Present_1">
</g>
<g id="Present_2">
</g>
<g id="Present_3">
</g>
<g id="Present_Cake">
</g>
<g id="Present_4">
</g>
<g id="Birthday_Cake_1">
</g>
<g id="Birthday_Cake_2">
</g>
<g id="Cake_Piece">
</g>
<g id="Cupcake">
</g>
<g id="Lollipop">
</g>
<g id="Birthday_Greetings_1">
</g>
<g id="Party_Greetings_2">
</g>
<g id="Birthday_Invitation">
</g>
<g id="Birthday_1">
</g>
<g id="Birthday_2">
</g>
<g id="Birthday_Message_1">
</g>
<g id="Birthday_Message_2">
</g>
<g id="Birthyday_Hat_1">
</g>
<g id="Birthay_Hat_2">
</g>
<g id="Birthday_Hat3">
</g>
<g id="Birthday_Decoration_1">
</g>
<g id="Birthday_Decoration_2">
</g>
<g id="Birthday_Decoration_3">
</g>
<g id="Horn_1">
</g>
<g id="Horn_2">
</g>
<g id="Baloon">
</g>
<g id="Balloons_1">
</g>
<g id="Balloons_2">
</g>
<g id="Birthday_Picture">
</g>
<g id="Kid_x27_s_Champagne">
</g>
<g id="Candy">
	<g>
		<path d="M18.732,7.025l-1.758-1.758c-1.364-1.364-3.585-1.364-4.949,0l-6.758,6.758c-1.365,1.364-1.365,3.585,0,4.949l1.758,1.758
			c0.682,0.682,1.579,1.023,2.475,1.023s1.792-0.341,2.475-1.023l6.758-6.758C20.097,10.61,20.097,8.389,18.732,7.025z
			 M15.561,7.388c-0.195,0.196-0.512,0.195-0.707,0.001c-0.128-0.127-0.277-0.146-0.354-0.146s-0.226,0.019-0.354,0.146
			l-6.757,6.757c-0.098,0.098-0.226,0.146-0.354,0.146s-0.256-0.049-0.354-0.146c-0.195-0.195-0.195-0.512,0-0.707l6.758-6.758
			C13.822,6.3,14.268,6.242,14.5,6.242s0.678,0.057,1.06,0.438C15.756,6.876,15.756,7.193,15.561,7.388z"/>
		<path d="M6.318,19.439l-1.758-1.758c-0.099-0.099-0.175-0.214-0.264-0.321l-3.879,0.646c-0.185,0.031-0.337,0.162-0.394,0.34
			c-0.057,0.179-0.01,0.374,0.123,0.506l5,5C5.242,23.949,5.37,24,5.5,24c0.051,0,0.103-0.008,0.153-0.024
			c0.178-0.057,0.31-0.209,0.34-0.394l0.646-3.879C6.533,19.614,6.418,19.539,6.318,19.439z"/>
		<path d="M23.854,5.146l-5-5c-0.133-0.132-0.328-0.179-0.506-0.123c-0.178,0.057-0.31,0.209-0.34,0.394L17.36,4.296
			c0.107,0.089,0.222,0.165,0.321,0.264l1.758,1.758c0.099,0.099,0.175,0.214,0.264,0.321l3.879-0.646
			c0.185-0.031,0.337-0.162,0.394-0.34C24.033,5.474,23.986,5.279,23.854,5.146z"/>
	</g>
</g>
<g id="Birthday_Card">
</g>
<g id="Flowers">
</g>
<g id="Birthday_Song">
</g>
<g id="Candle">
</g>
<g id="Sweet_16">
</g>
<g id="Clown">
</g>
<g id="Clown_2">
</g>
<g id="Birthday_Party">
</g>
<g id="Giving_Gift">
</g>
<g id="Present_5">
</g>
<g id="Champagne_in_ice_bucket">
</g>
<g id="Beer">
</g>
<g id="Truffles">
</g>
<g id="Pinata">
</g>
</svg>
