<?xml version="1.0" encoding="iso-8859-1"?>
<!-- Generator: Adobe Illustrator 19.2.1, SVG Export Plug-In . SVG Version: 6.00 Build 0)  -->
<svg version="1.1" xmlns="http://www.w3.org/2000/svg" xmlns:xlink="http://www.w3.org/1999/xlink" x="0px" y="0px"
	 viewBox="0 0 24 24" style="enable-background:new 0 0 24 24;" xml:space="preserve">
<g id="Present_1">
</g>
<g id="Present_2">
</g>
<g id="Present_3">
</g>
<g id="Present_Cake">
</g>
<g id="Present_4">
</g>
<g id="Birthday_Cake_1">
</g>
<g id="Birthday_Cake_2">
</g>
<g id="Cake_Piece">
</g>
<g id="Cupcake">
</g>
<g id="Lollipop">
</g>
<g id="Birthday_Greetings_1">
</g>
<g id="Party_Greetings_2">
</g>
<g id="Birthday_Invitation">
</g>
<g id="Birthday_1">
</g>
<g id="Birthday_2">
</g>
<g id="Birthday_Message_1">
</g>
<g id="Birthday_Message_2">
</g>
<g id="Birthyday_Hat_1">
</g>
<g id="Birthay_Hat_2">
</g>
<g id="Birthday_Hat3">
</g>
<g id="Birthday_Decoration_1">
</g>
<g id="Birthday_Decoration_2">
</g>
<g id="Birthday_Decoration_3">
</g>
<g id="Horn_1">
</g>
<g id="Horn_2">
</g>
<g id="Baloon">
</g>
<g id="Balloons_1">
</g>
<g id="Balloons_2">
</g>
<g id="Birthday_Picture">
</g>
<g id="Kid_x27_s_Champagne">
</g>
<g id="Candy">
</g>
<g id="Birthday_Card">
</g>
<g id="Flowers">
</g>
<g id="Birthday_Song">
</g>
<g id="Candle">
</g>
<g id="Sweet_16">
</g>
<g id="Clown">
	<g>
		<circle cx="12" cy="15.999" r="2"/>
		<path d="M15,9.999c-1.103,0-2,1.122-2,2.5c0,0.276,0.224,0.5,0.5,0.5s0.5-0.224,0.5-0.5c0-0.813,0.458-1.5,1-1.5s1,0.687,1,1.5
			c0,0.276,0.224,0.5,0.5,0.5s0.5-0.224,0.5-0.5C17,11.12,16.103,9.999,15,9.999z"/>
		<path d="M9,10.999c0.542,0,1,0.687,1,1.5c0,0.276,0.224,0.5,0.5,0.5s0.5-0.224,0.5-0.5c0-1.378-0.897-2.5-2-2.5s-2,1.122-2,2.5
			c0,0.276,0.224,0.5,0.5,0.5s0.5-0.224,0.5-0.5C8,11.686,8.458,10.999,9,10.999z"/>
		<path d="M15.5,16.999c-0.276,0-0.5,0.224-0.5,0.5c0,1.378-1.346,2.5-3,2.5s-3-1.122-3-2.5c0-0.276-0.224-0.5-0.5-0.5
			S8,17.223,8,17.499c0,1.93,1.794,3.5,4,3.5s4-1.57,4-3.5C16,17.223,15.776,16.999,15.5,16.999z"/>
		<path d="M9,11.999c-0.552,0-1,0.449-1,1s0.448,1,1,1s1-0.449,1-1S9.552,11.999,9,11.999z M9,12.999L9,12.999h0.5H9z"/>
		<path d="M15,11.999c-0.552,0-1,0.449-1,1s0.448,1,1,1s1-0.449,1-1S15.552,11.999,15,11.999z M15,12.999L15,12.999h0.5H15z"/>
		<path d="M23,9.749c0-1.131-0.676-2.109-1.679-2.527C21.439,6.913,21.5,6.584,21.5,6.249c0-1.432-1.101-2.612-2.5-2.739
			c0-0.004,0-0.007,0-0.011c0-1.378-1.121-2.5-2.5-2.5c-0.143,0-0.289,0.015-0.442,0.045c-0.625-0.5-1.481-0.676-2.264-0.442
			c-0.209-0.159-0.435-0.287-0.669-0.38c-0.037-0.016-0.077-0.028-0.126-0.042c-0.135-0.048-0.271-0.094-0.415-0.123
			c-0.377-0.075-0.79-0.075-1.169,0c-0.143,0.029-0.279,0.075-0.423,0.125c-0.018,0.005-0.092,0.029-0.109,0.036
			c-0.24,0.096-0.467,0.225-0.677,0.384c-0.778-0.234-1.64-0.059-2.264,0.442c-0.153-0.03-0.3-0.045-0.442-0.045
			c-1.379,0-2.5,1.122-2.5,2.5C5,3.503,5,3.506,5,3.51C3.601,3.637,2.5,4.817,2.5,6.249c0,0.335,0.061,0.664,0.179,0.973
			C1.676,7.64,1,8.618,1,9.749c0,0.658,0.236,1.286,0.653,1.777C1.247,11.898,1,12.431,1,12.999c0,0.755,0.433,1.429,1.075,1.766
			C2.025,14.923,2,15.085,2,15.249c0,0.965,0.785,1.75,1.75,1.75c0.347,0,0.676-0.112,0.955-0.298
			C5.957,20.365,8.75,23.999,12,23.999s6.043-3.634,7.295-7.298c0.279,0.187,0.608,0.298,0.955,0.298c0.965,0,1.75-0.785,1.75-1.75
			c0-0.164-0.025-0.326-0.075-0.484C22.567,14.428,23,13.754,23,12.999c0-0.568-0.247-1.101-0.653-1.473
			C22.764,11.035,23,10.407,23,9.749z M12,22.999c-3.797,0-7-6.197-7-10.088c0-3.811,3.141-6.912,7-6.912s7,3.101,7,6.912
			C19,16.802,15.797,22.999,12,22.999z"/>
	</g>
</g>
<g id="Clown_2">
</g>
<g id="Birthday_Party">
</g>
<g id="Giving_Gift">
</g>
<g id="Present_5">
</g>
<g id="Champagne_in_ice_bucket">
</g>
<g id="Beer">
</g>
<g id="Truffles">
</g>
<g id="Pinata">
</g>
</svg>
