<?xml version="1.0" encoding="iso-8859-1"?>
<!-- Generator: Adobe Illustrator 19.2.1, SVG Export Plug-In . SVG Version: 6.00 Build 0)  -->
<svg version="1.1" xmlns="http://www.w3.org/2000/svg" xmlns:xlink="http://www.w3.org/1999/xlink" x="0px" y="0px"
	 viewBox="0 0 24 24" style="enable-background:new 0 0 24 24;" xml:space="preserve">
<g id="Present_1">
</g>
<g id="Present_2">
</g>
<g id="Present_3">
</g>
<g id="Present_Cake">
</g>
<g id="Present_4">
</g>
<g id="Birthday_Cake_1">
</g>
<g id="Birthday_Cake_2">
</g>
<g id="Cake_Piece">
</g>
<g id="Cupcake">
</g>
<g id="Lollipop">
</g>
<g id="Birthday_Greetings_1">
</g>
<g id="Party_Greetings_2">
</g>
<g id="Birthday_Invitation">
</g>
<g id="Birthday_1">
</g>
<g id="Birthday_2">
</g>
<g id="Birthday_Message_1">
</g>
<g id="Birthday_Message_2">
</g>
<g id="Birthyday_Hat_1">
</g>
<g id="Birthay_Hat_2">
</g>
<g id="Birthday_Hat3">
</g>
<g id="Birthday_Decoration_1">
</g>
<g id="Birthday_Decoration_2">
</g>
<g id="Birthday_Decoration_3">
</g>
<g id="Horn_1">
</g>
<g id="Horn_2">
</g>
<g id="Baloon">
</g>
<g id="Balloons_1">
</g>
<g id="Balloons_2">
</g>
<g id="Birthday_Picture">
</g>
<g id="Kid_x27_s_Champagne">
</g>
<g id="Candy">
</g>
<g id="Birthday_Card">
</g>
<g id="Flowers">
	<g>
		<circle cx="11.99" cy="4.5" r="0.5"/>
		<path d="M8.268,6.036c0.051,0.123,0.078,0.298,0.105,0.483c0.058,0.384,0.124,0.818,0.451,1.146s0.762,0.393,1.146,0.451
			c0.185,0.028,0.36,0.055,0.483,0.105c0.112,0.046,0.248,0.148,0.392,0.256C11.146,8.701,11.519,8.98,12,8.98
			s0.854-0.279,1.154-0.503c0.144-0.107,0.28-0.209,0.392-0.255c0.123-0.051,0.298-0.078,0.483-0.105
			c0.384-0.058,0.818-0.124,1.146-0.451c0.328-0.327,0.393-0.762,0.451-1.145c0.028-0.186,0.055-0.361,0.106-0.484
			c0.046-0.112,0.148-0.248,0.256-0.392c0.224-0.3,0.502-0.672,0.502-1.153s-0.279-0.854-0.503-1.154
			c-0.107-0.144-0.209-0.28-0.255-0.392c-0.051-0.123-0.078-0.298-0.105-0.483c-0.058-0.384-0.124-0.818-0.451-1.146
			c-0.327-0.328-0.762-0.393-1.145-0.451c-0.186-0.028-0.361-0.055-0.484-0.106c-0.112-0.046-0.248-0.148-0.392-0.255
			C12.854,0.279,12.481,0,12,0s-0.854,0.279-1.153,0.502c-0.144,0.108-0.28,0.209-0.392,0.256c-0.123,0.051-0.298,0.078-0.483,0.105
			C9.587,0.922,9.153,0.987,8.825,1.315S8.432,2.077,8.374,2.461c-0.028,0.185-0.055,0.36-0.105,0.483
			C8.222,3.057,8.12,3.192,8.013,3.336C7.789,3.636,7.51,4.009,7.51,4.49s0.279,0.854,0.502,1.153
			C8.12,5.788,8.222,5.923,8.268,6.036z M11.99,3c0.827,0,1.5,0.673,1.5,1.5S12.817,6,11.99,6s-1.5-0.673-1.5-1.5S11.163,3,11.99,3z
			"/>
		<circle cx="5.99" cy="6.5" r="0.5"/>
		<path d="M8.029,10.116c0.383-0.058,0.818-0.124,1.146-0.451c0.18-0.18,0.278-0.394,0.342-0.613
			c-0.428-0.08-0.952-0.233-1.399-0.681C7.646,7.9,7.502,7.346,7.426,6.909C7.247,7.536,6.674,8,5.99,8c-0.827,0-1.5-0.673-1.5-1.5
			S5.163,5,5.99,5c0.223,0,0.433,0.052,0.624,0.14C6.554,4.941,6.51,4.728,6.51,4.49c0-0.813,0.439-1.401,0.702-1.752
			c0.035-0.047,0.061-0.086,0.09-0.127C7.254,2.576,7.205,2.541,7.154,2.503C6.854,2.279,6.481,2,6,2S5.146,2.279,4.846,2.502
			C4.702,2.61,4.567,2.712,4.455,2.758C4.331,2.809,4.156,2.836,3.971,2.864C3.587,2.922,3.153,2.987,2.825,3.315
			S2.432,4.077,2.374,4.461c-0.028,0.185-0.055,0.36-0.105,0.483C2.222,5.057,2.12,5.192,2.013,5.336
			C1.789,5.636,1.51,6.009,1.51,6.49s0.279,0.854,0.502,1.153c0.108,0.144,0.209,0.28,0.256,0.392
			c0.051,0.123,0.078,0.298,0.105,0.483c0.058,0.384,0.124,0.818,0.451,1.146s0.762,0.393,1.146,0.451
			c0.185,0.028,0.36,0.055,0.483,0.105c0.112,0.046,0.248,0.148,0.392,0.256C5.146,10.701,5.519,10.98,6,10.98
			s0.854-0.279,1.154-0.503c0.144-0.107,0.28-0.209,0.392-0.255C7.669,10.171,7.844,10.144,8.029,10.116z"/>
		<path d="M21.987,5.336c-0.107-0.144-0.209-0.28-0.255-0.393c-0.051-0.123-0.078-0.298-0.106-0.484
			c-0.058-0.383-0.123-0.817-0.451-1.145c-0.327-0.328-0.762-0.393-1.145-0.451c-0.186-0.028-0.361-0.055-0.484-0.106
			c-0.112-0.046-0.248-0.148-0.392-0.255C18.854,2.279,18.481,2,18,2s-0.854,0.279-1.153,0.502c-0.054,0.04-0.104,0.077-0.155,0.112
			c0.024,0.029,0.057,0.07,0.094,0.12c0.265,0.354,0.704,0.942,0.704,1.755c0,0.232-0.041,0.441-0.098,0.636
			C17.575,5.046,17.777,5,17.99,5c0.827,0,1.5,0.673,1.5,1.5S18.817,8,17.99,8c-0.669,0-1.231-0.443-1.423-1.049
			c-0.079,0.433-0.229,0.967-0.685,1.422c-0.447,0.447-0.972,0.6-1.399,0.68c0.064,0.219,0.162,0.432,0.342,0.612
			c0.328,0.328,0.762,0.393,1.146,0.451c0.185,0.028,0.36,0.055,0.483,0.105c0.112,0.046,0.248,0.148,0.392,0.256
			c0.3,0.224,0.672,0.502,1.153,0.502s0.854-0.279,1.154-0.503c0.144-0.107,0.28-0.209,0.392-0.255
			c0.123-0.051,0.298-0.078,0.483-0.105c0.383-0.058,0.818-0.124,1.146-0.451c0.328-0.328,0.394-0.762,0.451-1.146
			c0.028-0.185,0.055-0.36,0.106-0.484c0.046-0.112,0.148-0.248,0.256-0.392c0.224-0.3,0.502-0.672,0.502-1.153
			S22.211,5.636,21.987,5.336z"/>
		<circle cx="17.99" cy="6.5" r="0.5"/>
		<path d="M15.226,16.059c-0.163-0.087-0.36-0.077-0.513,0.025l-2.723,1.815l-2.723-1.815c-0.153-0.102-0.351-0.112-0.513-0.025
			S8.49,16.315,8.49,16.5v4c0,0.185,0.102,0.354,0.264,0.441s0.36,0.078,0.513-0.025l2.723-1.815l2.723,1.815
			C14.796,20.972,14.893,21,14.99,21c0.081,0,0.162-0.02,0.236-0.059c0.163-0.087,0.264-0.256,0.264-0.441v-4
			C15.49,16.315,15.388,16.146,15.226,16.059z"/>
		<path d="M13.742,21.471l-1.752-1.168l-1.766,1.177c-0.172,0.22-0.367,0.444-0.589,0.668C9.542,22.242,9.49,22.368,9.49,22.5
			c0,0.855,1.075,1.5,2.5,1.5s2.5-0.645,2.5-1.5c0-0.133-0.053-0.261-0.148-0.355C14.115,21.92,13.917,21.694,13.742,21.471z"/>
		<path d="M11.964,16.68c-0.85-2.076-2.468-4.255-3.58-5.61c-0.068,0.011-0.142,0.026-0.203,0.035
			c-0.102,0.016-0.197,0.025-0.271,0.048c-0.014,0.014-0.082,0.069-0.154,0.123c-0.09,0.067-0.196,0.146-0.316,0.226
			c0.816,0.982,1.996,2.51,2.883,4.083L11.964,16.68z"/>
		<path d="M16.043,11.132c-0.027-0.003-0.122-0.012-0.221-0.027c-0.065-0.01-0.142-0.024-0.215-0.037
			c-1.121,1.355-2.75,3.535-3.598,5.616l1.638-1.092c0.891-1.579,2.084-3.112,2.908-4.094c-0.116-0.077-0.217-0.153-0.304-0.218
			C16.173,11.223,16.105,11.167,16.043,11.132z"/>
	</g>
</g>
<g id="Birthday_Song">
</g>
<g id="Candle">
</g>
<g id="Sweet_16">
</g>
<g id="Clown">
</g>
<g id="Clown_2">
</g>
<g id="Birthday_Party">
</g>
<g id="Giving_Gift">
</g>
<g id="Present_5">
</g>
<g id="Champagne_in_ice_bucket">
</g>
<g id="Beer">
</g>
<g id="Truffles">
</g>
<g id="Pinata">
</g>
</svg>
