<?xml version="1.0" encoding="iso-8859-1"?>
<!-- Generator: Adobe Illustrator 19.2.1, SVG Export Plug-In . SVG Version: 6.00 Build 0)  -->
<svg version="1.1" xmlns="http://www.w3.org/2000/svg" xmlns:xlink="http://www.w3.org/1999/xlink" x="0px" y="0px"
	 viewBox="0 0 24 24" style="enable-background:new 0 0 24 24;" xml:space="preserve">
<g id="Present_1">
</g>
<g id="Present_2">
</g>
<g id="Present_3">
	<g>
		<ellipse cx="12" cy="4.5" rx="3" ry="3.5"/>
		<path d="M1,14.607V20.5C1,22.798,6.534,24,12,24s11-1.202,11-3.5v-5.893C20.538,16.232,16.169,17,12,17S3.462,16.232,1,14.607z"/>
		<path d="M0,9.786V11.5C0,14.423,6.183,16,12,16s12-1.577,12-4.5V9.786C21.904,11.976,16.817,13,12,13S2.096,11.976,0,9.786z"/>
		<path d="M4,6.5C4,7.704,4.782,9,6.5,9c1.143,0,2.135-0.483,2.894-1.114C8.548,7.061,8,5.857,8,4.5s0.548-2.561,1.394-3.386
			C8.635,0.483,7.643,0,6.5,0C4.782,0,4,1.296,4,2.5c0,0.652,0.205,1.171,0.355,1.55C4.423,4.222,4.5,4.417,4.5,4.5
			S4.423,4.778,4.355,4.95C4.205,5.329,4,5.848,4,6.5z"/>
		<path d="M14.606,7.886C15.365,8.517,16.357,9,17.5,9C19.218,9,20,7.704,20,6.5c0-0.652-0.205-1.171-0.355-1.55
			C19.577,4.778,19.5,4.583,19.5,4.5s0.077-0.278,0.145-0.45C19.795,3.671,20,3.152,20,2.5C20,1.296,19.218,0,17.5,0
			c-1.143,0-2.135,0.483-2.894,1.114C15.452,1.939,16,3.143,16,4.5S15.452,7.061,14.606,7.886z"/>
		<path d="M12,12c5.817,0,12-1.577,12-4.5c0-1.256-1.2-2.358-3.389-3.178c-0.012,0.03-0.025,0.067-0.036,0.096
			c-0.011,0.027-0.022,0.055-0.033,0.083c0.011,0.027,0.021,0.054,0.032,0.08C20.744,5.01,21,5.657,21,6.5
			c0,1.739-1.202,3.5-3.5,3.5c-1.251,0-2.473-0.465-3.533-1.344c-0.059-0.049-0.094-0.116-0.139-0.176C13.277,8.801,12.662,9,12,9
			s-1.277-0.199-1.828-0.521c-0.046,0.06-0.08,0.127-0.139,0.176C8.973,9.535,7.751,10,6.5,10C4.202,10,3,8.239,3,6.5
			c0-0.843,0.256-1.49,0.425-1.917C3.436,4.555,3.447,4.527,3.458,4.5C3.447,4.473,3.437,4.446,3.426,4.42
			C3.414,4.391,3.401,4.353,3.388,4.322C1.2,5.142,0,6.243,0,7.5C0,10.423,6.183,12,12,12z"/>
	</g>
</g>
<g id="Present_Cake">
</g>
<g id="Present_4">
</g>
<g id="Birthday_Cake_1">
</g>
<g id="Birthday_Cake_2">
</g>
<g id="Cake_Piece">
</g>
<g id="Cupcake">
</g>
<g id="Lollipop">
</g>
<g id="Birthday_Greetings_1">
</g>
<g id="Party_Greetings_2">
</g>
<g id="Birthday_Invitation">
</g>
<g id="Birthday_1">
</g>
<g id="Birthday_2">
</g>
<g id="Birthday_Message_1">
</g>
<g id="Birthday_Message_2">
</g>
<g id="Birthyday_Hat_1">
</g>
<g id="Birthay_Hat_2">
</g>
<g id="Birthday_Hat3">
</g>
<g id="Birthday_Decoration_1">
</g>
<g id="Birthday_Decoration_2">
</g>
<g id="Birthday_Decoration_3">
</g>
<g id="Horn_1">
</g>
<g id="Horn_2">
</g>
<g id="Baloon">
</g>
<g id="Balloons_1">
</g>
<g id="Balloons_2">
</g>
<g id="Birthday_Picture">
</g>
<g id="Kid_x27_s_Champagne">
</g>
<g id="Candy">
</g>
<g id="Birthday_Card">
</g>
<g id="Flowers">
</g>
<g id="Birthday_Song">
</g>
<g id="Candle">
</g>
<g id="Sweet_16">
</g>
<g id="Clown">
</g>
<g id="Clown_2">
</g>
<g id="Birthday_Party">
</g>
<g id="Giving_Gift">
</g>
<g id="Present_5">
</g>
<g id="Champagne_in_ice_bucket">
</g>
<g id="Beer">
</g>
<g id="Truffles">
</g>
<g id="Pinata">
</g>
</svg>
