<?xml version="1.0" encoding="iso-8859-1"?>
<!-- Generator: Adobe Illustrator 19.2.1, SVG Export Plug-In . SVG Version: 6.00 Build 0)  -->
<svg version="1.1" xmlns="http://www.w3.org/2000/svg" xmlns:xlink="http://www.w3.org/1999/xlink" x="0px" y="0px"
	 viewBox="0 0 24 24" style="enable-background:new 0 0 24 24;" xml:space="preserve">
<g id="Present_1">
	<g>
		<path d="M1,22.496c0,0.827,0.673,1.5,1.5,1.5H11v-11H1V22.496z"/>
		<path d="M12,23.996h8.5c0.827,0,1.5-0.673,1.5-1.5v-9.5H12V23.996z"/>
		<path d="M21.5,5.996h-6.298c1.347-0.515,2.703-1.248,3.357-2.249c0.005-0.007,0.01-0.014,0.015-0.021
			C18.853,3.316,19,2.824,19,2.3c0-0.742-0.298-1.436-0.797-1.857c-0.436-0.368-0.98-0.508-1.578-0.406
			C14.31,0.432,12.422,2.494,11.5,4.701c-0.922-2.207-2.81-4.269-5.125-4.664C5.78-0.064,5.233,0.075,4.797,0.443
			C4.298,0.864,4,1.559,4,2.3c0,0.523,0.147,1.016,0.427,1.426c0.005,0.007,0.01,0.014,0.015,0.021
			c0.653,1.001,2.01,1.734,3.356,2.249H1.5c-0.827,0-1.5,0.673-1.5,1.5v4c0,0.276,0.224,0.5,0.5,0.5H11V6.906
			c0.241,0.048,0.405,0.077,0.44,0.083c0.003,0,0.005,0,0.008,0.001c0.011,0.001,0.02,0.006,0.031,0.006
			c0.007,0,0.014-0.002,0.021-0.002c0.007,0,0.014,0.002,0.021,0.002c0.011,0,0.02-0.006,0.031-0.006c0.003,0,0.005,0,0.008-0.001
			c0.035-0.006,0.199-0.034,0.44-0.083v5.089h10.5c0.276,0,0.5-0.224,0.5-0.5v-4C23,6.669,22.327,5.996,21.5,5.996z M16.793,1.022
			c0.068-0.011,0.134-0.017,0.198-0.017c0.217,0,0.407,0.067,0.566,0.202C17.831,1.437,18,1.856,18,2.3
			c0,0.303-0.082,0.597-0.232,0.831c-0.011,0.013-0.021,0.027-0.03,0.042c-0.878,1.396-3.865,2.304-5.594,2.683
			C12.79,3.69,14.597,1.397,16.793,1.022z M5.262,3.173c-0.009-0.015-0.02-0.029-0.03-0.042C5.082,2.897,5,2.604,5,2.3
			c0-0.444,0.169-0.863,0.442-1.093c0.207-0.174,0.465-0.234,0.765-0.185c2.196,0.375,4.003,2.669,4.649,4.835
			C9.127,5.478,6.142,4.571,5.262,3.173z"/>
	</g>
</g>
<g id="Present_2">
</g>
<g id="Present_3">
</g>
<g id="Present_Cake">
</g>
<g id="Present_4">
</g>
<g id="Birthday_Cake_1">
</g>
<g id="Birthday_Cake_2">
</g>
<g id="Cake_Piece">
</g>
<g id="Cupcake">
</g>
<g id="Lollipop">
</g>
<g id="Birthday_Greetings_1">
</g>
<g id="Party_Greetings_2">
</g>
<g id="Birthday_Invitation">
</g>
<g id="Birthday_1">
</g>
<g id="Birthday_2">
</g>
<g id="Birthday_Message_1">
</g>
<g id="Birthday_Message_2">
</g>
<g id="Birthyday_Hat_1">
</g>
<g id="Birthay_Hat_2">
</g>
<g id="Birthday_Hat3">
</g>
<g id="Birthday_Decoration_1">
</g>
<g id="Birthday_Decoration_2">
</g>
<g id="Birthday_Decoration_3">
</g>
<g id="Horn_1">
</g>
<g id="Horn_2">
</g>
<g id="Baloon">
</g>
<g id="Balloons_1">
</g>
<g id="Balloons_2">
</g>
<g id="Birthday_Picture">
</g>
<g id="Kid_x27_s_Champagne">
</g>
<g id="Candy">
</g>
<g id="Birthday_Card">
</g>
<g id="Flowers">
</g>
<g id="Birthday_Song">
</g>
<g id="Candle">
</g>
<g id="Sweet_16">
</g>
<g id="Clown">
</g>
<g id="Clown_2">
</g>
<g id="Birthday_Party">
</g>
<g id="Giving_Gift">
</g>
<g id="Present_5">
</g>
<g id="Champagne_in_ice_bucket">
</g>
<g id="Beer">
</g>
<g id="Truffles">
</g>
<g id="Pinata">
</g>
</svg>
