<?xml version="1.0" encoding="iso-8859-1"?>
<!-- Generator: Adobe Illustrator 19.2.1, SVG Export Plug-In . SVG Version: 6.00 Build 0)  -->
<svg version="1.1" xmlns="http://www.w3.org/2000/svg" xmlns:xlink="http://www.w3.org/1999/xlink" x="0px" y="0px"
	 viewBox="0 0 30 30" style="enable-background:new 0 0 30 30;" xml:space="preserve">
<g id="Egg">
</g>
<g id="Easter_Egg_1">
</g>
<g id="Easter_Egg_2">
</g>
<g id="Easter_Egg_3">
</g>
<g id="Eggs_1">
</g>
<g id="Eggs_2">
</g>
<g id="Bunny">
</g>
<g id="Sheep">
</g>
<g id="Bell_Alarm">
</g>
<g id="Calendar">
</g>
<g id="Tulip">
</g>
<g id="Chicken">
</g>
<g id="Chicken_2">
</g>
<g id="Baguette">
	<path d="M28.627,1.377c-1.135-1.126-2.709-1.566-4.694-1.305c-2.626,0.345-5.719,1.892-8.788,4.092
		c0.424-0.043,0.871-0.067,1.352-0.067c3.139,0,5.805,1.943,5.821,4.244c0.002,0.276-0.22,0.502-0.496,0.504
		c-0.002,0-0.003,0-0.004,0c-0.274,0-0.498-0.222-0.5-0.496c-0.013-1.732-2.266-3.251-4.821-3.251c-1.357,0-2.426,0.191-3.302,0.563
		c-1.408,1.138-2.786,2.384-4.09,3.7c0.801-0.175,1.717-0.263,2.77-0.263c3.242,0,5.997,1.993,6.014,4.351
		c0.002,0.276-0.22,0.502-0.496,0.504c-0.001,0-0.003,0-0.004,0c-0.274,0-0.498-0.221-0.5-0.496
		c-0.014-1.79-2.356-3.359-5.014-3.359c-1.956,0-3.366,0.311-4.371,0.956c-1.39,1.533-2.651,3.112-3.724,4.667
		c0.524-0.147,1.073-0.233,1.636-0.233c2.87,0,5.308,1.925,5.324,4.205c0.002,0.276-0.22,0.502-0.497,0.504
		c-0.001,0-0.002,0-0.003,0c-0.274,0-0.498-0.222-0.5-0.496c-0.013-1.741-1.993-3.212-4.324-3.212c-0.958,0-1.874,0.267-2.616,0.734
		c-0.118,0.192-0.248,0.387-0.359,0.577c-2.819,4.828-3.201,8.67-1.074,10.818c0.915,0.925,2.118,1.388,3.593,1.388
		c0.735,0,1.538-0.115,2.406-0.346c8.054-2.14,20.135-14.22,22.289-22.286C30.352,4.762,30.006,2.745,28.627,1.377z"/>
</g>
<g id="Ham">
</g>
<g id="Bell_2">
</g>
<g id="Bell_3">
</g>
<g id="Bell_4">
</g>
<g id="Easter_celebration">
</g>
<g id="Egg_painting">
</g>
<g id="Easter_willow">
</g>
<g id="Daffodil">
</g>
<g id="Easter_message">
</g>
<g id="Bunny_2">
</g>
<g id="Chicken_3">
</g>
<g id="Tulip_2">
</g>
<g id="Easter_basket">
</g>
<g id="Bread_and_wine">
</g>
<g id="Sheep_2">
</g>
<g id="Candle_Light">
</g>
</svg>
