<?xml version="1.0" encoding="iso-8859-1"?>
<!-- Generator: Adobe Illustrator 19.2.1, SVG Export Plug-In . SVG Version: 6.00 Build 0)  -->
<svg version="1.1" xmlns="http://www.w3.org/2000/svg" xmlns:xlink="http://www.w3.org/1999/xlink" x="0px" y="0px"
	 viewBox="0 0 30 30" style="enable-background:new 0 0 30 30;" xml:space="preserve">
<g id="Egg">
</g>
<g id="Easter_Egg_1">
</g>
<g id="Easter_Egg_2">
</g>
<g id="Easter_Egg_3">
</g>
<g id="Eggs_1">
</g>
<g id="Eggs_2">
</g>
<g id="Bunny">
</g>
<g id="Sheep">
</g>
<g id="Bell_Alarm">
</g>
<g id="Calendar">
</g>
<g id="Tulip">
</g>
<g id="Chicken">
</g>
<g id="Chicken_2">
</g>
<g id="Baguette">
</g>
<g id="Ham">
</g>
<g id="Bell_2">
</g>
<g id="Bell_3">
</g>
<g id="Bell_4">
	<path d="M23,21.497v-7.414c0-4.844-3.496-8.752-8-9.016V4h2.652c0.938,0,1.761-0.874,1.761-1.87V1.946
		C19.413,1.025,18.69,0,17.652,0h-0.108c-0.507,0-0.888,0.39-1.166,0.675L15,2.201V0.5C15,0.224,14.776,0,14.5,0S14,0.224,14,0.5
		v1.697l-1.299-1.443l-0.079-0.081C12.344,0.39,11.963,0,11.456,0h-0.108C10.31,0,9.587,1.025,9.587,1.946V2.13
		C9.587,3.126,10.41,4,11.348,4H14v1.063c-2.025,0.119-3.909,0.931-5.366,2.345C6.936,9.056,6,11.305,6,13.739v7.758
		c-1.182,0.277-2.62,1.456-2.62,2.959c0,1.61,1.389,3.022,2.973,3.022c0.079,0,0.154-0.019,0.22-0.051
		c1.987-0.585,3.953-0.949,5.914-1.099c-0.237,0.371-0.378,0.808-0.378,1.28c0,1.318,1.073,2.392,2.391,2.392
		c1.319,0,2.392-1.073,2.392-2.392c0-0.474-0.143-0.913-0.381-1.284c2.008,0.151,4.021,0.527,6.055,1.134
		c0.046,0.014,0.094,0.021,0.143,0.021c1.555,0,2.918-1.412,2.918-3.022C25.626,22.953,24.185,21.774,23,21.497z M17.006,1.462
		l0.087-0.088C17.198,1.266,17.443,1.015,17.544,1h0.108c0.377,0,0.761,0.478,0.761,0.946V2.13c0,0.447-0.37,0.87-0.761,0.87h-2.03
		L17.006,1.462z M11.348,3c-0.391,0-0.761-0.423-0.761-0.87V1.946C10.587,1.478,10.971,1,11.348,1h0.104
		c0.104,0.015,0.35,0.266,0.455,0.373L13.377,3H11.348z M20.174,14.583c-0.276,0-0.5-0.224-0.5-0.5c0-2.958-2.248-5.432-5.012-5.515
		l-0.169-0.002C14.217,8.562,13.996,8.334,14,8.059c0.004-0.276,0.222-0.501,0.507-0.493l0.177,0.002
		c3.306,0.099,5.99,3.021,5.99,6.515C20.674,14.359,20.45,14.583,20.174,14.583z"/>
</g>
<g id="Easter_celebration">
</g>
<g id="Egg_painting">
</g>
<g id="Easter_willow">
</g>
<g id="Daffodil">
</g>
<g id="Easter_message">
</g>
<g id="Bunny_2">
</g>
<g id="Chicken_3">
</g>
<g id="Tulip_2">
</g>
<g id="Easter_basket">
</g>
<g id="Bread_and_wine">
</g>
<g id="Sheep_2">
</g>
<g id="Candle_Light">
</g>
</svg>
