<?xml version="1.0" encoding="iso-8859-1"?>
<!-- Generator: Adobe Illustrator 19.2.1, SVG Export Plug-In . SVG Version: 6.00 Build 0)  -->
<svg version="1.1" xmlns="http://www.w3.org/2000/svg" xmlns:xlink="http://www.w3.org/1999/xlink" x="0px" y="0px"
	 viewBox="0 0 30 30" style="enable-background:new 0 0 30 30;" xml:space="preserve">
<g id="Egg">
</g>
<g id="Easter_Egg_1">
</g>
<g id="Easter_Egg_2">
</g>
<g id="Easter_Egg_3">
</g>
<g id="Eggs_1">
</g>
<g id="Eggs_2">
</g>
<g id="Bunny">
</g>
<g id="Sheep">
</g>
<g id="Bell_Alarm">
</g>
<g id="Calendar">
	<g>
		<path d="M25.718,3H22V0.5C22,0.224,21.776,0,21.5,0S21,0.224,21,0.5V3v2.5C21,5.776,20.776,6,20.5,6S20,5.776,20,5.5V3H9V0.5
			C9,0.224,8.776,0,8.5,0S8,0.224,8,0.5V3v2.5C8,5.776,7.776,6,7.5,6S7,5.776,7,5.5V3H4.283C1.761,3,0,4.564,0,6.804v18.914
			C0,28.079,1.921,30,4.283,30h21.435C28.079,30,30,28.079,30,25.718V6.804C30,4.564,28.239,3,25.718,3z M29,25.718
			C29,27.527,27.527,29,25.718,29H4.283C2.473,29,1,27.527,1,25.718V10h28V25.718z"/>
		<path d="M14.017,16.47c0.195-0.195,0.512-0.195,0.707,0l1.063,1.063l1.461-1.461c-0.745-1.25-1.74-2.202-2.878-2.202
			c-1.138,0-2.133,0.951-2.878,2.201l1.462,1.462L14.017,16.47z"/>
		<path d="M16.294,22.441c-0.188,0.188-0.521,0.187-0.708,0l-1.213-1.214l-1.213,1.214c-0.188,0.188-0.52,0.188-0.707,0
			l-1.213-1.214l-0.886,0.886c0.595,1.652,2.162,2.843,4.016,2.843c1.856,0,3.424-1.193,4.017-2.848l-0.88-0.881L16.294,22.441z"/>
		<path d="M10.886,20.167c0.094-0.094,0.221-0.146,0.354-0.146s0.26,0.053,0.354,0.146l1.213,1.214l1.213-1.214
			c0.188-0.188,0.52-0.188,0.707,0l1.213,1.214l1.213-1.214c0.094-0.094,0.221-0.146,0.354-0.146s0.26,0.053,0.354,0.146
			l0.766,0.766c0.005-0.088,0.026-0.171,0.026-0.259c0-1.004-0.337-2.405-0.917-3.675l-1.594,1.594
			c-0.098,0.098-0.226,0.146-0.354,0.146s-0.256-0.049-0.354-0.146L14.37,17.53l-1.063,1.063c-0.195,0.195-0.512,0.195-0.707,0
			l-1.595-1.595c-0.58,1.271-0.918,2.673-0.918,3.677c0,0.091,0.021,0.176,0.027,0.265L10.886,20.167z"/>
	</g>
</g>
<g id="Tulip">
</g>
<g id="Chicken">
</g>
<g id="Chicken_2">
</g>
<g id="Baguette">
</g>
<g id="Ham">
</g>
<g id="Bell_2">
</g>
<g id="Bell_3">
</g>
<g id="Bell_4">
</g>
<g id="Easter_celebration">
</g>
<g id="Egg_painting">
</g>
<g id="Easter_willow">
</g>
<g id="Daffodil">
</g>
<g id="Easter_message">
</g>
<g id="Bunny_2">
</g>
<g id="Chicken_3">
</g>
<g id="Tulip_2">
</g>
<g id="Easter_basket">
</g>
<g id="Bread_and_wine">
</g>
<g id="Sheep_2">
</g>
<g id="Candle_Light">
</g>
</svg>
