<?xml version="1.0" encoding="iso-8859-1"?>
<!-- Generator: Adobe Illustrator 19.2.1, SVG Export Plug-In . SVG Version: 6.00 Build 0)  -->
<svg version="1.1" xmlns="http://www.w3.org/2000/svg" xmlns:xlink="http://www.w3.org/1999/xlink" x="0px" y="0px"
	 viewBox="0 0 30 30" style="enable-background:new 0 0 30 30;" xml:space="preserve">
<g id="Egg">
</g>
<g id="Easter_Egg_1">
</g>
<g id="Easter_Egg_2">
</g>
<g id="Easter_Egg_3">
</g>
<g id="Eggs_1">
</g>
<g id="Eggs_2">
</g>
<g id="Bunny">
</g>
<g id="Sheep">
</g>
<g id="Bell_Alarm">
</g>
<g id="Calendar">
</g>
<g id="Tulip">
</g>
<g id="Chicken">
</g>
<g id="Chicken_2">
</g>
<g id="Baguette">
</g>
<g id="Ham">
</g>
<g id="Bell_2">
</g>
<g id="Bell_3">
</g>
<g id="Bell_4">
</g>
<g id="Easter_celebration">
</g>
<g id="Egg_painting">
</g>
<g id="Easter_willow">
</g>
<g id="Daffodil">
</g>
<g id="Easter_message">
</g>
<g id="Bunny_2">
</g>
<g id="Chicken_3">
</g>
<g id="Tulip_2">
</g>
<g id="Easter_basket">
</g>
<g id="Bread_and_wine">
</g>
<g id="Sheep_2">
</g>
<g id="Candle_Light">
	<g>
		<path d="M11.751,15.243c0.058-0.003,0.2-0.029,0.277-0.184l1.024-2.049c0.094-0.187,0.292-0.296,0.502-0.273
			c0.208,0.023,0.38,0.173,0.43,0.376l1.12,4.481c0.051,0.203,0.218,0.242,0.288,0.25c0.069,0.009,0.241,0.005,0.334-0.183
			L18,13.116V10.5c0-0.276-0.224-0.5-0.5-0.5H14V8.515c1.428-0.24,2.521-1.476,2.521-2.971c0-1.505-2.343-4.941-2.61-5.328
			C13.818,0.081,13.664,0,13.5,0s-0.318,0.081-0.412,0.216c-0.267,0.387-2.61,3.823-2.61,5.328c0,1.495,1.094,2.731,2.522,2.971V10
			H9.5C9.224,10,9,10.224,9,10.5v0.917l2.453,3.679C11.549,15.24,11.693,15.251,11.751,15.243z"/>
		<path d="M18,15.352l-1.379,2.757c-0.229,0.459-0.685,0.737-1.188,0.737c-0.05,0-0.1-0.002-0.149-0.008
			c-0.561-0.062-1.012-0.454-1.149-1.002l-0.792-3.17l-0.42,0.84c-0.215,0.43-0.63,0.704-1.11,0.734
			c-0.479,0.028-0.926-0.19-1.192-0.591L9,13.219V24h9V15.352z"/>
		<path d="M22.065,23.956c-0.715,0-1.329,0.43-1.604,1.044H5.674c-0.276,0-0.5,0.224-0.5,0.5v0.108C5.174,27.989,7.135,30,9.457,30
			h7.565c1.803,0,3.377-1.219,3.995-2.877c0.294,0.22,0.655,0.355,1.049,0.355c0.971,0,1.761-0.79,1.761-1.761
			C23.826,24.746,23.036,23.956,22.065,23.956z"/>
	</g>
</g>
</svg>
