<?xml version="1.0" encoding="iso-8859-1"?>
<!-- Generator: Adobe Illustrator 19.2.1, SVG Export Plug-In . SVG Version: 6.00 Build 0)  -->
<svg version="1.1" xmlns="http://www.w3.org/2000/svg" xmlns:xlink="http://www.w3.org/1999/xlink" x="0px" y="0px"
	 viewBox="0 0 30 30" style="enable-background:new 0 0 30 30;" xml:space="preserve">
<g id="Egg">
</g>
<g id="Easter_Egg_1">
</g>
<g id="Easter_Egg_2">
</g>
<g id="Easter_Egg_3">
</g>
<g id="Eggs_1">
</g>
<g id="Eggs_2">
</g>
<g id="Bunny">
</g>
<g id="Sheep">
</g>
<g id="Bell_Alarm">
</g>
<g id="Calendar">
</g>
<g id="Tulip">
</g>
<g id="Chicken">
</g>
<g id="Chicken_2">
</g>
<g id="Baguette">
</g>
<g id="Ham">
</g>
<g id="Bell_2">
</g>
<g id="Bell_3">
</g>
<g id="Bell_4">
</g>
<g id="Easter_celebration">
</g>
<g id="Egg_painting">
</g>
<g id="Easter_willow">
</g>
<g id="Daffodil">
</g>
<g id="Easter_message">
	<g>
		<path d="M13.109,9.88l0.907-0.907c0.195-0.195,0.512-0.195,0.707,0L15.63,9.88l0.799-0.799c-0.59-1.02-1.327-1.777-2.06-1.777
			s-1.47,0.757-2.06,1.777L13.109,9.88z"/>
		<path d="M16.892,13.816l-0.908,0.907c-0.098,0.098-0.226,0.146-0.354,0.146s-0.256-0.049-0.354-0.146l-0.907-0.907l-0.907,0.907
			c-0.195,0.195-0.512,0.195-0.707,0l-0.908-0.907l-0.518,0.518c0.487,1.204,1.664,2.057,3.04,2.057c1.376,0,2.553-0.853,3.04-2.057
			L16.892,13.816z"/>
		<path d="M11.494,12.755c0.195-0.195,0.512-0.195,0.707,0l0.908,0.907l0.907-0.907c0.195-0.195,0.512-0.195,0.707,0l0.907,0.907
			l0.908-0.907c0.094-0.094,0.221-0.146,0.354-0.146s0.26,0.053,0.354,0.146l0.402,0.402c0-0.017,0.005-0.032,0.005-0.049
			c0-0.872-0.293-2.032-0.751-3.086l-0.918,0.918c-0.098,0.098-0.226,0.146-0.354,0.146s-0.256-0.049-0.354-0.146l-0.907-0.907
			l-0.907,0.907c-0.195,0.195-0.512,0.195-0.707,0l-0.918-0.918c-0.458,1.054-0.751,2.214-0.751,3.086
			c0,0.017,0.005,0.032,0.005,0.049L11.494,12.755z"/>
		<path d="M23.5,0h-18C2.467,0,0,2.467,0,5.5v24c0,0.213,0.135,0.402,0.336,0.473C0.39,29.991,0.445,30,0.5,30
			c0.15,0,0.296-0.067,0.393-0.19L7.047,22H23.5c3.032,0,5.5-2.468,5.5-5.5v-11C29,2.467,26.532,0,23.5,0z M14.37,17.392
			c-1.862,0-3.434-1.202-4.022-2.864c-0.079-0.101-0.116-0.221-0.107-0.342c-0.091-0.346-0.154-0.702-0.154-1.076
			c0-2.33,1.809-6.805,4.283-6.805s4.283,4.475,4.283,6.805c0,0.441-0.086,0.859-0.211,1.26c-0.002,0.006-0.003,0.011-0.005,0.017
			C17.889,16.121,16.284,17.392,14.37,17.392z"/>
	</g>
</g>
<g id="Bunny_2">
</g>
<g id="Chicken_3">
</g>
<g id="Tulip_2">
</g>
<g id="Easter_basket">
</g>
<g id="Bread_and_wine">
</g>
<g id="Sheep_2">
</g>
<g id="Candle_Light">
</g>
</svg>
