<?xml version="1.0" encoding="iso-8859-1"?>
<!-- Generator: Adobe Illustrator 19.2.1, SVG Export Plug-In . SVG Version: 6.00 Build 0)  -->
<svg version="1.1" xmlns="http://www.w3.org/2000/svg" xmlns:xlink="http://www.w3.org/1999/xlink" x="0px" y="0px"
	 viewBox="0 0 30 30" style="enable-background:new 0 0 30 30;" xml:space="preserve">
<g id="Egg">
</g>
<g id="Easter_Egg_1">
</g>
<g id="Easter_Egg_2">
</g>
<g id="Easter_Egg_3">
</g>
<g id="Eggs_1">
</g>
<g id="Eggs_2">
</g>
<g id="Bunny">
</g>
<g id="Sheep">
</g>
<g id="Bell_Alarm">
</g>
<g id="Calendar">
</g>
<g id="Tulip">
</g>
<g id="Chicken">
</g>
<g id="Chicken_2">
</g>
<g id="Baguette">
</g>
<g id="Ham">
	<g>
		<path d="M5.496,16.567c-1.815-0.419-3.375-0.091-4.393,0.928c-1.018,1.018-1.347,2.577-0.927,4.393
			c0.4,1.729,1.443,3.506,2.937,4.999c1.42,1.42,4.131,2.521,7.251,2.945c0.758,0.104,1.575,0.166,2.375,0.166
			c1.724,0,3.369-0.292,4.179-1.102c0.36-0.36,0.537-0.798,0.525-1.301c-0.039-1.735-2.373-3.863-4.843-6.116
			c-0.763-0.695-1.482-1.353-2.105-1.975C9.001,18.011,7.226,16.968,5.496,16.567z M6.804,24.956c-0.971,0-1.761-0.79-1.761-1.761
			s0.79-1.761,1.761-1.761c0.971,0,1.761,0.79,1.761,1.761S7.775,24.956,6.804,24.956z"/>
		<path d="M22.435,16.892c0-0.103-0.031-0.203-0.091-0.287c-0.186-0.266-4.601-6.518-7.974-6.518
			c-5.294,0-10.067,2.653-12.303,5.635c1.054-0.391,2.301-0.44,3.655-0.129c1.911,0.442,3.857,1.581,5.481,3.205
			c0.612,0.612,1.321,1.259,2.072,1.942L12.6,21.479l0.677-0.736c2.746,2.505,5.117,4.668,5.166,6.83
			c0.005,0.204-0.014,0.403-0.051,0.596c4.287-2.913,5.686-6.593,4.155-10.966C22.49,17.043,22.445,16.926,22.435,16.892z"/>
		<path d="M28.719,1.974C28.585,0.664,27.789,0,26.348,0c-0.965,0-2.392,0.56-2.392,1.761c0,0.731-0.045,1.099-1.114,2.168
			c-0.536,0.536-1.031,1.039-1.492,1.507c-2.096,2.129-3.476,3.511-4.913,4.177c2.443,1.148,4.811,3.903,5.992,5.428
			c0.038-2.341,0.458-4.7,3.642-7.884c0.579-0.579,1.166-1.114,1.537-1.114c1.19,0,2.392-0.544,2.392-1.761
			C30,3.147,29.475,2.244,28.719,1.974z"/>
	</g>
</g>
<g id="Bell_2">
</g>
<g id="Bell_3">
</g>
<g id="Bell_4">
</g>
<g id="Easter_celebration">
</g>
<g id="Egg_painting">
</g>
<g id="Easter_willow">
</g>
<g id="Daffodil">
</g>
<g id="Easter_message">
</g>
<g id="Bunny_2">
</g>
<g id="Chicken_3">
</g>
<g id="Tulip_2">
</g>
<g id="Easter_basket">
</g>
<g id="Bread_and_wine">
</g>
<g id="Sheep_2">
</g>
<g id="Candle_Light">
</g>
</svg>
