<?xml version="1.0" encoding="iso-8859-1"?>
<!-- Generator: Adobe Illustrator 19.2.1, SVG Export Plug-In . SVG Version: 6.00 Build 0)  -->
<svg version="1.1" xmlns="http://www.w3.org/2000/svg" xmlns:xlink="http://www.w3.org/1999/xlink" x="0px" y="0px"
	 viewBox="0 0 30 30" style="enable-background:new 0 0 30 30;" xml:space="preserve">
<g id="Egg">
</g>
<g id="Easter_Egg_1">
</g>
<g id="Easter_Egg_2">
</g>
<g id="Easter_Egg_3">
</g>
<g id="Eggs_1">
</g>
<g id="Eggs_2">
</g>
<g id="Bunny">
</g>
<g id="Sheep">
</g>
<g id="Bell_Alarm">
</g>
<g id="Calendar">
</g>
<g id="Tulip">
</g>
<g id="Chicken">
</g>
<g id="Chicken_2">
</g>
<g id="Baguette">
</g>
<g id="Ham">
</g>
<g id="Bell_2">
</g>
<g id="Bell_3">
</g>
<g id="Bell_4">
</g>
<g id="Easter_celebration">
</g>
<g id="Egg_painting">
</g>
<g id="Easter_willow">
</g>
<g id="Daffodil">
</g>
<g id="Easter_message">
</g>
<g id="Bunny_2">
</g>
<g id="Chicken_3">
</g>
<g id="Tulip_2">
	<g>
		<path d="M23.909,15.5c0-5.066-8.683-13.974-9.052-14.35L14.5,0.786L14.143,1.15c-0.37,0.376-9.052,9.284-9.052,14.35
			c0,4.428,3.003,6.728,8.909,6.851v5.372c-0.962-1.169-2.751-2.542-5.864-2.542c-0.147,0-0.287,0.064-0.381,0.177
			c-0.095,0.112-0.136,0.261-0.112,0.405C7.65,25.807,8.42,30,14.5,30c0.012,0,0.024,0,0.036-0.001
			c9.267-0.662,9.374-5.389,9.374-5.59c0-0.257-0.194-0.472-0.45-0.497c-4.452-0.446-7.153,2.107-8.459,3.851v-5.412
			C20.906,22.228,23.909,19.928,23.909,15.5z"/>
		<path d="M17.352,1.104l-0.348-0.269l-0.547,0.547c2.373,2.552,8.305,9.379,8.438,13.959c0.118-0.574,0.187-1.161,0.179-1.763
			C24.995,7.084,17.664,1.346,17.352,1.104z"/>
		<path d="M11.997,0.835l-0.348,0.269c-0.312,0.241-7.644,5.98-7.723,12.474c-0.007,0.603,0.061,1.189,0.179,1.763
			c0.133-4.581,6.065-11.408,8.438-13.959L11.997,0.835z"/>
	</g>
</g>
<g id="Easter_basket">
</g>
<g id="Bread_and_wine">
</g>
<g id="Sheep_2">
</g>
<g id="Candle_Light">
</g>
</svg>
