<?xml version="1.0" encoding="iso-8859-1"?>
<!-- Generator: Adobe Illustrator 19.0.0, SVG Export Plug-In . SVG Version: 6.00 Build 0)  -->
<svg version="1.1" id="Layer_1" xmlns="http://www.w3.org/2000/svg" xmlns:xlink="http://www.w3.org/1999/xlink" x="0px" y="0px"
	 viewBox="0 0 30 30" style="enable-background:new 0 0 30 30;" xml:space="preserve">
<g>
	<g>
		<path d="M21.4,1.399C20.604,0.51,19.467,0,18.282,0h-6.564C10.533,0,9.397,0.51,8.6,1.399c-0.815,0.91-1.207,2.133-1.073,3.355
			L7.94,8.537C8,9.079,8.294,9.732,8.813,10.478c1.054,1.511,1.831,3.159,2.31,4.897c1.032,3.745,0.723,7.93,0.396,12.362L11.5,28
			c0,1.16,2.091,2,3.5,2s3.5-0.84,3.499-2.037l-0.017-0.226c-0.327-4.433-0.637-8.62,0.396-12.365
			c0.478-1.735,1.254-3.381,2.308-4.893C21.707,9.732,22,9.078,22.06,8.536l0.413-3.783C22.607,3.532,22.216,2.309,21.4,1.399z
			 M15,27.5c-0.552,0-1-0.448-1-1s0.448-1,1-1s1,0.448,1,1S15.552,27.5,15,27.5z M19.812,7.99C19.58,9.155,18.549,10,17.361,10
			h-1.36c-0.276,0-0.5-0.224-0.5-0.5V9h-1v0.5c0,0.276-0.224,0.5-0.5,0.5h-1.36c-1.188,0-2.219-0.845-2.451-2.01L9.511,4.598
			C9.5,3.122,10.621,2,12,2h6c1.379,0,2.5,1.122,2.5,2.5L19.812,7.99z"/>
	</g>
</g>
</svg>
