<?xml version="1.0" encoding="iso-8859-1"?>
<!-- Generator: Adobe Illustrator 19.0.0, SVG Export Plug-In . SVG Version: 6.00 Build 0)  -->
<svg version="1.1" id="Layer_1" xmlns="http://www.w3.org/2000/svg" xmlns:xlink="http://www.w3.org/1999/xlink" x="0px" y="0px"
	 viewBox="0 0 30 30" style="enable-background:new 0 0 30 30;" xml:space="preserve">
<g>
	<g>
		<path d="M27.485,1.009c-1.348-1.326-3.538-1.325-4.883,0l-6.271,6.179L3.092,20.231C2.065,21.242,1.5,22.588,1.5,24.02
			s0.565,2.777,1.592,3.789l2.091,2.06c0.082,0.08,0.195,0.116,0.314,0.116c0.165,0,0.34-0.069,0.453-0.182
			c0.152-0.15,0.191-0.38,0.098-0.572c-0.176-0.363-0.102-0.797,0.185-1.078c0.291-0.287,0.74-0.358,1.115-0.185
			c0.188,0.089,0.415,0.05,0.563-0.096l0.128-0.126c0.153-0.15,0.193-0.381,0.1-0.574c-0.176-0.363-0.102-0.798,0.185-1.079
			c0.291-0.287,0.738-0.358,1.115-0.185c0.188,0.089,0.413,0.05,0.563-0.096l0.128-0.126c0.153-0.15,0.193-0.381,0.1-0.574
			c-0.176-0.363-0.102-0.798,0.185-1.079c0.291-0.287,0.738-0.358,1.115-0.185c0.188,0.089,0.414,0.051,0.563-0.096l0.128-0.126
			c0.153-0.15,0.193-0.381,0.1-0.574c-0.176-0.363-0.102-0.798,0.185-1.079c0.291-0.287,0.738-0.359,1.115-0.185
			c0.188,0.089,0.414,0.051,0.563-0.096l0.128-0.126c0.153-0.15,0.193-0.381,0.1-0.574c-0.176-0.363-0.101-0.797,0.186-1.08
			c0.291-0.287,0.738-0.358,1.114-0.184c0.188,0.089,0.414,0.051,0.563-0.096l0.128-0.126c0.153-0.15,0.193-0.381,0.1-0.573
			c-0.175-0.364-0.101-0.799,0.186-1.081c0.291-0.287,0.738-0.358,1.114-0.184c0.188,0.088,0.414,0.051,0.563-0.096l0.128-0.126
			c0.153-0.15,0.193-0.381,0.1-0.573c-0.175-0.364-0.101-0.799,0.186-1.081c0.291-0.287,0.738-0.358,1.114-0.184
			c0.187,0.088,0.414,0.051,0.563-0.096l0.128-0.126c0.153-0.15,0.193-0.381,0.1-0.573c-0.175-0.364-0.101-0.799,0.186-1.08
			c0.291-0.287,0.738-0.362,1.114-0.184c0.191,0.086,0.48-0.014,0.628-0.162c0.095-0.094,0.148-0.222,0.148-0.355
			s-0.054-0.261-0.149-0.355l-1.729-1.703l4.212-4.15c0.9-0.011,1.763-0.364,2.395-0.986c0.65-0.643,1.01-1.501,1.01-2.413
			C28.5,2.513,28.14,1.654,27.485,1.009z M21.029,12.528c-0.321,0.087-0.62,0.254-0.865,0.495c-0.407,0.4-0.607,0.949-0.575,1.498
			c-0.548-0.036-1.11,0.161-1.516,0.562c-0.407,0.4-0.607,0.949-0.575,1.498c-0.549-0.037-1.11,0.161-1.516,0.562
			c-0.407,0.4-0.607,0.949-0.575,1.498c-0.549-0.039-1.11,0.161-1.516,0.562c-0.408,0.401-0.607,0.95-0.575,1.498
			c-0.556-0.041-1.11,0.161-1.517,0.562s-0.607,0.95-0.574,1.498c-0.555-0.037-1.11,0.161-1.517,0.562
			c-0.407,0.401-0.607,0.95-0.574,1.498c-0.554-0.04-1.11,0.161-1.517,0.562c-0.407,0.401-0.607,0.95-0.574,1.498
			c-0.552-0.043-1.11,0.161-1.516,0.562c-0.249,0.245-0.42,0.545-0.509,0.867l-1.229-1.211C2.959,26.275,2.5,25.182,2.5,24.02
			s0.459-2.255,1.294-3.076L16.682,8.246l3.133,3.087c0,0,0,0,0.001,0L21.029,12.528z M25.046,4.124
			c-0.192,0.189-0.446,0.285-0.699,0.285c-0.253,0-0.507-0.095-0.699-0.285c-0.189-0.187-0.293-0.435-0.293-0.7
			s0.104-0.513,0.293-0.7c0.384-0.378,1.013-0.379,1.398,0c0.189,0.187,0.294,0.435,0.294,0.7S25.235,3.938,25.046,4.124z"/>
	</g>
</g>
</svg>
