<?xml version="1.0" encoding="iso-8859-1"?>
<!-- Generator: Adobe Illustrator 19.0.0, SVG Export Plug-In . SVG Version: 6.00 Build 0)  -->
<svg version="1.1" id="Layer_1" xmlns="http://www.w3.org/2000/svg" xmlns:xlink="http://www.w3.org/1999/xlink" x="0px" y="0px"
	 viewBox="0 0 30 30" style="enable-background:new 0 0 30 30;" xml:space="preserve">
<g>
	<g>
		<path d="M22,4c-0.096,0-0.192,0.017-0.289,0.024C21.896,4.652,22,5.314,22,6c0,0.276-0.224,0.5-0.5,0.5S21,6.276,21,6
			c0-0.629-0.098-1.235-0.279-1.805c-0.063-0.2-0.138-0.395-0.221-0.586c-0.082-0.189-0.175-0.372-0.276-0.55
			C19.901,2.487,19.485,1.977,19,1.541c-0.475-0.427-1.016-0.781-1.609-1.04c-0.359-0.157-0.737-0.279-1.128-0.364
			c-0.009-0.002-0.017-0.005-0.026-0.007c-0.178-0.038-0.359-0.065-0.543-0.086c-0.023-0.003-0.046-0.008-0.069-0.011
			C15.42,0.011,15.211,0,15,0s-0.42,0.011-0.625,0.033c-0.023,0.002-0.046,0.008-0.069,0.011c-0.183,0.021-0.365,0.048-0.543,0.086
			c-0.009,0.002-0.017,0.005-0.026,0.007c-0.391,0.085-0.769,0.207-1.128,0.364C12.016,0.76,11.475,1.115,11,1.541
			c-0.302,0.272-0.577,0.573-0.819,0.9c-0.002,0.002-0.003,0.004-0.005,0.006C9.934,2.774,9.724,3.127,9.552,3.5
			C9.201,4.262,9,5.107,9,6c0,0.276-0.224,0.5-0.5,0.5S8,6.276,8,6c0-0.689,0.104-1.353,0.29-1.982C8.193,4.011,8.097,4,8,4
			C5.243,4,3,6.243,3,9c0,2.045,1.237,3.802,3,4.576V28.5c0,0.212,0.134,0.402,0.335,0.472C6.455,29.014,9.336,30,15,30
			c4.482,0,8.454-0.973,8.621-1.015C23.843,28.93,24,28.729,24,28.5V13.576c1.763-0.774,3-2.531,3-4.576C27,6.243,24.757,4,22,4z
			 M23.001,28.102H23C21.902,28.343,18.576,29,15,29c-4.405,0-7.101-0.624-8-0.872v-1.186c0.012,0.003,0.026,0.006,0.037,0.009
			c0.067,0.017,0.144,0.034,0.214,0.052c0.183,0.045,0.369,0.09,0.573,0.136c0.105,0.024,0.218,0.047,0.328,0.072
			c0.186,0.041,0.374,0.081,0.573,0.121c0.13,0.026,0.264,0.051,0.399,0.077c0.198,0.038,0.398,0.074,0.606,0.11
			c0.146,0.025,0.294,0.049,0.445,0.074c0.214,0.034,0.431,0.066,0.654,0.097c0.156,0.022,0.312,0.044,0.472,0.064
			c0.234,0.03,0.474,0.055,0.716,0.081c0.157,0.016,0.312,0.034,0.472,0.048c0.269,0.024,0.543,0.042,0.818,0.059
			c0.141,0.009,0.279,0.02,0.421,0.027C14.146,27.988,14.571,28,15,28s0.854-0.012,1.273-0.032c0.143-0.007,0.28-0.018,0.421-0.027
			c0.275-0.017,0.549-0.035,0.818-0.059c0.16-0.014,0.315-0.031,0.472-0.048c0.242-0.025,0.481-0.051,0.716-0.081
			c0.16-0.02,0.315-0.042,0.472-0.064c0.223-0.031,0.44-0.063,0.654-0.097c0.151-0.024,0.299-0.048,0.445-0.074
			c0.208-0.036,0.408-0.072,0.606-0.11c0.135-0.026,0.269-0.051,0.399-0.077c0.2-0.04,0.387-0.08,0.573-0.121
			c0.11-0.024,0.223-0.048,0.328-0.072c0.203-0.046,0.39-0.091,0.573-0.136c0.07-0.017,0.147-0.035,0.214-0.052
			c0.012-0.003,0.026-0.006,0.037-0.009V28.102z"/>
	</g>
</g>
</svg>
