<?xml version="1.0" encoding="iso-8859-1"?>
<!-- Generator: Adobe Illustrator 19.0.0, SVG Export Plug-In . SVG Version: 6.00 Build 0)  -->
<svg version="1.1" id="Layer_1" xmlns="http://www.w3.org/2000/svg" xmlns:xlink="http://www.w3.org/1999/xlink" x="0px" y="0px"
	 viewBox="0 0 30 30" style="enable-background:new 0 0 30 30;" xml:space="preserve">
<g>
	<g>
		<path d="M15.944,0.271c-0.121-0.236-0.406-0.336-0.65-0.227c-0.242,0.109-0.356,0.39-0.26,0.637
			c0.438,1.121,10.714,27.445,11.083,28.192c0.35,0.708,1.087,1.125,1.852,1.125c0.287,0,0.577-0.059,0.854-0.182
			c0.504-0.226,0.882-0.63,1.064-1.138c0.178-0.494,0.146-1.025-0.087-1.498C29.438,26.449,16.495,1.339,15.944,0.271z
			 M23.986,13.693c0.086,0.167,0.258,0.271,0.444,0.271h0.025c0.196-0.01,0.368-0.134,0.44-0.317
			c2.604-6.649,5.069-12.965,5.069-12.965c0.097-0.248-0.018-0.528-0.26-0.637c-0.243-0.11-0.528-0.01-0.65,0.227l-5.875,11.4
			c-0.074,0.144-0.074,0.314,0,0.458L23.986,13.693z M17,21.5c0-0.276-0.224-0.5-0.5-0.5h-16C0.224,21,0,21.224,0,21.5
			c0,3.245,1.829,6.068,4.509,7.5H4.5C4.224,29,4,29.224,4,29.5S4.224,30,4.5,30h8c0.276,0,0.5-0.224,0.5-0.5S12.776,29,12.5,29
			h-0.009C15.171,27.568,17,24.745,17,21.5z M8.5,28c-2.747,0-5.21-1.741-6.129-4.333c-0.092-0.26,0.044-0.546,0.305-0.638
			c0.257-0.094,0.546,0.043,0.639,0.304C4.092,25.526,6.176,27,8.5,27C8.776,27,9,27.224,9,27.5S8.776,28,8.5,28z M20.786,18.132
			c-0.072-0.183-0.244-0.307-0.44-0.317c-0.192-0.012-0.38,0.096-0.47,0.271c-1.674,3.25-4.508,8.754-4.676,9.095
			c-0.233,0.472-0.265,1.004-0.087,1.498c0.183,0.508,0.561,0.912,1.064,1.138c0.276,0.124,0.566,0.182,0.854,0.182
			c0.765,0,1.502-0.417,1.852-1.125c0.072-0.146,0.463-1.09,3.008-7.563c0.047-0.118,0.047-0.249,0.001-0.366L20.786,18.132z"/>
	</g>
</g>
</svg>
