<?xml version="1.0" encoding="iso-8859-1"?>
<!-- Generator: Adobe Illustrator 19.0.0, SVG Export Plug-In . SVG Version: 6.00 Build 0)  -->
<svg version="1.1" id="Layer_1" xmlns="http://www.w3.org/2000/svg" xmlns:xlink="http://www.w3.org/1999/xlink" x="0px" y="0px"
	 viewBox="0 0 30 30" style="enable-background:new 0 0 30 30;" xml:space="preserve">
<g>
	<g>
		<path d="M26.946,6.272c-0.533-1.053-1.418-2.205-3.604-1.748l-2.591,0.864c-0.988-1.142-4.706-1.346-6.194-1.382
			c0.08-0.339,0.237-0.567,0.416-0.813C15.22,2.853,15.5,2.468,15.5,1.832c0-1.028-0.659-1.833-1.5-1.833s-1.5,0.805-1.5,1.833
			c0,0.636,0.28,1.021,0.527,1.361c0.179,0.246,0.336,0.474,0.416,0.813c-1.319,0.031-4.387,0.198-5.757,1.03
			C7.628,5.013,7.566,4.999,7.5,4.999h-4c-0.202,0-0.385,0.122-0.462,0.309S3.004,5.71,3.146,5.853l4,4
			C7.203,9.91,7.271,9.945,7.343,9.969l0.621,7.134C7.402,17.32,7,17.862,7,18.5s0.401,1.18,0.964,1.397l-0.831,9.56
			c-0.013,0.14,0.035,0.278,0.13,0.381C7.358,29.941,7.492,30,7.631,30h2.954l0.87-10h1.004l-0.87,10h4.364l-0.909-10h1.004
			l0.909,10h3.348c0.144,0,0.281-0.062,0.376-0.17c0.095-0.108,0.139-0.252,0.12-0.395l-1.232-9.443
			C20.364,19.955,21,19.303,21,18.499c0-0.804-0.637-1.456-1.431-1.493l0.922-7.072l1.754-0.999c0.34-0.191,0.675-0.226,0.999-0.1
			C23.573,8.961,23.863,9.253,24,9.589v3.911c0,0.827,0.673,1.5,1.5,1.5c0.827,0,1.5-0.673,1.5-1.5v-7
			C27,6.419,26.981,6.342,26.946,6.272z M11.45,16.998l-0.879-9.225c0.344,0.047,0.686,0.085,1.016,0.114l0.868,9.111H11.45z
			 M16.05,16.998h-1.005l0.864-9.07c0.321-0.022,0.664-0.053,1.014-0.092L16.05,16.998z M19.929,6.029
			c-0.022,0.019-0.054,0.039-0.083,0.059c-0.136,0.087-0.36,0.189-0.682,0.294c-0.065,0.021-0.128,0.042-0.2,0.062
			c-0.079,0.023-0.166,0.046-0.255,0.069c-0.131,0.033-0.271,0.065-0.42,0.097c-0.068,0.014-0.133,0.029-0.205,0.043
			c-0.197,0.038-0.411,0.074-0.635,0.107c-0.055,0.008-0.101,0.017-0.158,0.025c-0.9,0.127-2.003,0.212-3.29,0.212
			c-1.21,0-2.248-0.078-3.117-0.192c-0.126-0.016-0.247-0.033-0.363-0.051c-0.194-0.03-0.38-0.06-0.552-0.093
			C9.914,6.651,9.855,6.641,9.803,6.63C9.323,6.532,8.93,6.425,8.635,6.318C8.629,6.316,8.623,6.313,8.617,6.311
			C8.318,6.201,8.118,6.092,8.03,5.997C8.386,5.615,10.535,4.998,14,4.998c3.453,0,5.597,0.612,5.967,0.996
			C19.956,6.005,19.944,6.017,19.929,6.029z"/>
	</g>
</g>
</svg>
