<?xml version="1.0" encoding="iso-8859-1"?>
<!-- Generator: Adobe Illustrator 19.0.0, SVG Export Plug-In . SVG Version: 6.00 Build 0)  -->
<svg version="1.1" id="Layer_1" xmlns="http://www.w3.org/2000/svg" xmlns:xlink="http://www.w3.org/1999/xlink" x="0px" y="0px"
	 viewBox="0 0 30 30" style="enable-background:new 0 0 30 30;" xml:space="preserve">
<g>
	<g>
		<path d="M11.5,24.498c0-0.276-0.224-0.5-0.5-0.5s-0.5,0.224-0.5,0.5c0,0.908,0.379,1.388,0.656,1.739
			c0.215,0.273,0.344,0.437,0.344,0.761c0,0.489-0.299,0.986-0.563,1.424c-0.235,0.39-0.438,0.727-0.438,1.076
			c0,0.276,0.224,0.503,0.5,0.503s0.5-0.221,0.5-0.497c0.011-0.096,0.175-0.368,0.295-0.567c0.315-0.522,0.706-1.172,0.706-1.939
			c0-0.671-0.31-1.064-0.559-1.38C11.695,25.306,11.5,25.059,11.5,24.498z M4.5,24.498c0-0.276-0.224-0.5-0.5-0.5
			s-0.5,0.224-0.5,0.5c0,0.908,0.379,1.388,0.656,1.739C4.371,26.51,4.5,26.674,4.5,26.998c0,0.489-0.299,0.986-0.563,1.424
			c-0.235,0.39-0.438,0.727-0.438,1.076c0,0.276,0.224,0.503,0.5,0.503s0.5-0.221,0.5-0.497c0.011-0.096,0.175-0.368,0.295-0.567
			C5.109,28.415,5.5,27.765,5.5,26.998c0-0.671-0.31-1.064-0.559-1.38C4.695,25.306,4.5,25.059,4.5,24.498z M3.6,14.998h22.8
			c0.192,0,0.367-0.11,0.451-0.283c0.083-0.173,0.06-0.379-0.06-0.529L20.5,6.323V0.499c0-0.276-0.224-0.5-0.5-0.5H10
			c-0.276,0-0.5,0.224-0.5,0.5v5.824l-6.291,7.863c-0.12,0.15-0.143,0.356-0.06,0.529C3.233,14.888,3.408,14.998,3.6,14.998z
			 M25.5,24.498c0-0.276-0.224-0.5-0.5-0.5s-0.5,0.224-0.5,0.5c0,0.908,0.379,1.388,0.656,1.739
			c0.215,0.273,0.344,0.437,0.344,0.761c0,0.489-0.299,0.986-0.563,1.424c-0.235,0.39-0.438,0.727-0.438,1.076
			c0,0.276,0.224,0.503,0.5,0.503s0.5-0.221,0.5-0.497c0.011-0.096,0.175-0.368,0.295-0.567c0.315-0.522,0.706-1.172,0.706-1.939
			c0-0.671-0.31-1.064-0.559-1.38C25.695,25.306,25.5,25.059,25.5,24.498z M18.5,24.498c0-0.276-0.224-0.5-0.5-0.5
			s-0.5,0.224-0.5,0.5c0,0.908,0.379,1.388,0.656,1.739c0.215,0.273,0.344,0.437,0.344,0.761c0,0.489-0.299,0.986-0.563,1.424
			c-0.235,0.39-0.438,0.727-0.438,1.076c0,0.276,0.224,0.503,0.5,0.503s0.5-0.221,0.5-0.497c0.011-0.096,0.175-0.368,0.295-0.567
			c0.315-0.522,0.706-1.172,0.706-1.939c0-0.671-0.31-1.064-0.559-1.38C18.695,25.306,18.5,25.059,18.5,24.498z M28,15.998H2
			c-0.827,0-1.5,0.673-1.5,1.5v4c0,0.827,0.673,1.5,1.5,1.5h26c0.827,0,1.5-0.673,1.5-1.5v-4C29.5,16.671,28.827,15.998,28,15.998z
			 M8,19.998H3c-0.276,0-0.5-0.224-0.5-0.5s0.224-0.5,0.5-0.5h5c0.276,0,0.5,0.224,0.5,0.5S8.276,19.998,8,19.998z M20,19.998
			c-0.276,0-0.5-0.224-0.5-0.5s0.224-0.5,0.5-0.5s0.5,0.224,0.5,0.5S20.276,19.998,20,19.998z M25,19.998
			c-0.276,0-0.5-0.224-0.5-0.5s0.224-0.5,0.5-0.5s0.5,0.224,0.5,0.5S25.276,19.998,25,19.998z"/>
	</g>
</g>
</svg>
