<?xml version="1.0" encoding="iso-8859-1"?>
<!-- Generator: Adobe Illustrator 19.0.0, SVG Export Plug-In . SVG Version: 6.00 Build 0)  -->
<svg version="1.1" id="Layer_1" xmlns="http://www.w3.org/2000/svg" xmlns:xlink="http://www.w3.org/1999/xlink" x="0px" y="0px"
	 viewBox="0 0 30 30" style="enable-background:new 0 0 30 30;" xml:space="preserve">
<g>
	<g>
		<path d="M8.5,17h-2C4.57,17,3,18.57,3,20.5S4.57,24,6.5,24h2c1.93,0,3.5-1.57,3.5-3.5S10.43,17,8.5,17z M6.5,12
			c1.93,0,3.5-1.57,3.5-3.5S8.43,5,6.5,5S3,6.57,3,8.5S4.57,12,6.5,12z M19.5,17c-1.93,0-3.5,1.57-3.5,3.5s1.57,3.5,3.5,3.5
			s3.5-1.57,3.5-3.5S21.43,17,19.5,17z M28.5,1h-27C0.673,1,0,1.673,0,2.5v25C0,28.327,0.673,29,1.5,29h27
			c0.827,0,1.5-0.673,1.5-1.5v-25C30,1.673,29.327,1,28.5,1z M6.5,4C8.981,4,11,6.019,11,8.5S8.981,13,6.5,13S2,10.981,2,8.5
			S4.019,4,6.5,4z M8.5,25h-2C4.019,25,2,22.981,2,20.5S4.019,16,6.5,16h2c2.481,0,4.5,2.019,4.5,4.5S10.981,25,8.5,25z M19.5,25
			c-2.481,0-4.5-2.019-4.5-4.5s2.019-4.5,4.5-4.5s4.5,2.019,4.5,4.5S21.981,25,19.5,25z M19.5,13c-2.481,0-4.5-2.019-4.5-4.5
			S17.019,4,19.5,4S24,6.019,24,8.5S21.981,13,19.5,13z M27,22c-0.552,0-1-0.448-1-1s0.448-1,1-1s1,0.448,1,1S27.552,22,27,22z
			 M27,18c-0.552,0-1-0.448-1-1s0.448-1,1-1s1,0.448,1,1S27.552,18,27,18z M27,14c-0.552,0-1-0.448-1-1s0.448-1,1-1s1,0.448,1,1
			S27.552,14,27,14z M27,10c-0.552,0-1-0.448-1-1s0.448-1,1-1s1,0.448,1,1S27.552,10,27,10z M19.5,5C17.57,5,16,6.57,16,8.5
			s1.57,3.5,3.5,3.5S23,10.43,23,8.5S21.43,5,19.5,5z"/>
	</g>
</g>
</svg>
