<?xml version="1.0" encoding="iso-8859-1"?>
<!-- Generator: Adobe Illustrator 19.0.0, SVG Export Plug-In . SVG Version: 6.00 Build 0)  -->
<svg version="1.1" id="Layer_1" xmlns="http://www.w3.org/2000/svg" xmlns:xlink="http://www.w3.org/1999/xlink" x="0px" y="0px"
	 viewBox="0 0 30 30" style="enable-background:new 0 0 30 30;" xml:space="preserve">
<g>
	<g>
		<path d="M23.5,0h-17C5.122,0,4,1.122,4,2.5v25C4,28.878,5.122,30,6.5,30h17c1.378,0,2.5-1.122,2.5-2.5v-25
			C26,1.122,24.878,0,23.5,0z M11.5,3h7C19.327,3,20,3.673,20,4.5C20,5.327,19.327,6,18.5,6h-7C10.673,6,10,5.327,10,4.5
			C10,3.673,10.673,3,11.5,3z M24,26c0,0.276-0.224,0.5-0.5,0.5c-0.551,0-1,0.449-1,1c0,0.276-0.224,0.5-0.5,0.5H8
			c-0.276,0-0.5-0.224-0.5-0.5c0-0.551-0.449-1-1-1C6.224,26.5,6,26.276,6,26V11c0-0.276,0.224-0.5,0.5-0.5c0.551,0,1-0.449,1-1
			C7.5,9.224,7.724,9,8,9h14c0.276,0,0.5,0.224,0.5,0.5c0,0.551,0.449,1,1,1c0.276,0,0.5,0.224,0.5,0.5V26z"/>
	</g>
</g>
</svg>
