<?xml version="1.0" encoding="iso-8859-1"?>
<!-- Generator: Adobe Illustrator 19.0.0, SVG Export Plug-In . SVG Version: 6.00 Build 0)  -->
<svg version="1.1" id="Layer_1" xmlns="http://www.w3.org/2000/svg" xmlns:xlink="http://www.w3.org/1999/xlink" x="0px" y="0px"
	 viewBox="0 0 30 30" style="enable-background:new 0 0 30 30;" xml:space="preserve">
<g>
	<g>
		<path d="M21.5,11h-2.728c-0.744-1.161-1.137-2.482-1.301-4.355c-0.087-1.001,0.167-1.997,0.399-2.753
			C17.956,3.609,18,3.318,18,3.021C18,1.356,16.654,0,15,0s-3,1.355-3,3.021c0,0.295,0.043,0.588,0.13,0.87
			c0.232,0.756,0.486,1.751,0.399,2.752C12.365,8.518,11.973,9.839,11.23,11H8.5C7.673,11,7,11.672,7,12.5v16
			C7,29.326,7.673,30,8.5,30h13c0.827,0,1.5-0.673,1.5-1.5v-16C23,11.672,22.327,11,21.5,11z M15,2c0.551,0,1,0.449,1,1
			c0,0.551-0.449,1-1,1c-0.551,0-1-0.449-1-1C14,2.448,14.449,2,15,2z M21,26.5c0,0.276-0.224,0.5-0.5,0.5S20,27.224,20,27.5
			S19.776,28,19.5,28h-9c-0.276,0-0.5-0.224-0.5-0.5S9.776,27,9.5,27S9,26.776,9,26.5v-12C9,14.224,9.224,14,9.5,14
			s0.5-0.224,0.5-0.5s0.224-0.5,0.5-0.5h9c0.276,0,0.5,0.224,0.5,0.5s0.224,0.5,0.5,0.5s0.5,0.224,0.5,0.5V26.5z"/>
	</g>
</g>
</svg>
