<?xml version="1.0" encoding="iso-8859-1"?>
<!-- Generator: Adobe Illustrator 19.0.0, SVG Export Plug-In . SVG Version: 6.00 Build 0)  -->
<svg version="1.1" id="Layer_1" xmlns="http://www.w3.org/2000/svg" xmlns:xlink="http://www.w3.org/1999/xlink" x="0px" y="0px"
	 viewBox="0 0 30 30" style="enable-background:new 0 0 30 30;" xml:space="preserve">
<g>
	<g>
		<path d="M15,0C7.556,0,1.5,8.523,1.5,19c0,0.106,0.004,0.212,0.008,0.317l0.006,0.207v0.002c0.071,3.665,0.881,7.19,2.339,10.193
			C3.937,29.891,4.112,30,4.303,30h21.395c0.191,0,0.366-0.109,0.45-0.282c1.465-3.017,2.274-6.556,2.34-10.234l0.006-0.187
			C28.496,19.198,28.5,19.099,28.5,19C28.5,8.523,22.444,0,15,0z M16.462,24.69C16.385,24.878,16.202,25,16,25h-2
			c-0.202,0-0.385-0.122-0.462-0.309c-0.077-0.187-0.034-0.402,0.108-0.545l1-1c0.195-0.195,0.512-0.195,0.707,0l1,1
			C16.496,24.289,16.539,24.503,16.462,24.69z M27.498,19.072c-0.007,0.001-0.012,0.003-0.02,0.004
			c-0.068,0.014-0.144,0.028-0.217,0.042c-0.083,0.016-0.164,0.032-0.254,0.048c-0.081,0.014-0.17,0.029-0.256,0.043
			c-0.092,0.015-0.183,0.031-0.281,0.046c-0.093,0.014-0.194,0.029-0.292,0.043c-0.102,0.015-0.203,0.03-0.31,0.044
			c-0.104,0.014-0.214,0.028-0.322,0.042c-0.015,0.002-0.031,0.004-0.047,0.006v-0.889c0-0.276-0.224-0.5-0.5-0.5
			s-0.5,0.224-0.5,0.5v1c0,0.002,0.001,0.004,0.001,0.006c-0.005,0.001-0.01,0.001-0.015,0.002
			c-0.122,0.013-0.247,0.026-0.373,0.039c-0.131,0.013-0.264,0.026-0.399,0.039c-0.07,0.007-0.142,0.013-0.214,0.02v-3.106
			c0-0.276-0.224-0.5-0.5-0.5s-0.5,0.224-0.5,0.5v3.192c-0.006,0-0.013,0.001-0.019,0.002c-0.152,0.012-0.307,0.024-0.464,0.035
			c-0.141,0.01-0.282,0.021-0.426,0.031c-0.03,0.002-0.061,0.004-0.092,0.006v-1.265c0-0.276-0.224-0.5-0.5-0.5s-0.5,0.224-0.5,0.5
			v1.328c-0.119,0.007-0.238,0.013-0.358,0.02c-0.146,0.008-0.291,0.016-0.439,0.023c-0.067,0.003-0.136,0.006-0.203,0.009v-3.38
			c0-0.276-0.224-0.5-0.5-0.5s-0.5,0.224-0.5,0.5v3.422c-0.129,0.005-0.259,0.01-0.39,0.014c-0.141,0.005-0.281,0.01-0.424,0.014
			c-0.061,0.002-0.124,0.003-0.186,0.005v-1.456c0-0.276-0.224-0.5-0.5-0.5s-0.5,0.224-0.5,0.5v1.48
			c-0.199,0.004-0.4,0.007-0.601,0.009c-0.114,0.002-0.227,0.004-0.342,0.005h-0.057v-3.494c0-0.276-0.224-0.5-0.5-0.5
			s-0.5,0.224-0.5,0.5v3.5H14.46c-0.659,0-1.3-0.007-1.925-0.019c-0.047-0.001-0.096-0.001-0.143-0.002
			c-0.307-0.006-0.596-0.018-0.894-0.026v-1.453c0-0.276-0.224-0.5-0.5-0.5s-0.5,0.224-0.5,0.5v1.422
			c-0.014-0.001-0.028-0.001-0.042-0.002c-0.331-0.013-0.641-0.031-0.958-0.047v-3.373c0-0.276-0.224-0.5-0.5-0.5
			s-0.5,0.224-0.5,0.5v3.318c-0.344-0.022-0.676-0.045-1-0.07v-1.248c0-0.276-0.224-0.5-0.5-0.5s-0.5,0.224-0.5,0.5v1.164
			c-0.236-0.021-0.481-0.042-0.703-0.065c-0.07-0.007-0.138-0.015-0.207-0.022c-0.036-0.004-0.066-0.008-0.101-0.012
			C5.49,19.543,5.5,19.523,5.5,19.5v-3C5.5,16.224,5.276,16,5,16s-0.5,0.224-0.5,0.5v2.95c-0.002,0-0.005-0.001-0.007-0.001
			c-0.052-0.007-0.101-0.014-0.152-0.021C4,19.382,3.679,19.335,3.391,19.287c-0.031-0.005-0.058-0.01-0.089-0.016
			c-0.295-0.05-0.566-0.101-0.798-0.152c-0.002,0-0.003-0.001-0.005-0.001C2.501,19.078,2.5,19.039,2.5,19C2.5,9.075,8.107,1,15,1
			s12.5,8.075,12.5,18L27.498,19.072z M15,10c-0.827,0-1.5,0.673-1.5,1.5v2c0,0.827,0.673,1.5,1.5,1.5c0.827,0,1.5-0.673,1.5-1.5v-2
			C16.5,10.672,15.827,10,15,10z M15.5,13.5c0,0.276-0.225,0.5-0.5,0.5c-0.275,0-0.5-0.224-0.5-0.5v-2c0-0.276,0.225-0.5,0.5-0.5
			c0.275,0,0.5,0.224,0.5,0.5V13.5z"/>
	</g>
</g>
</svg>
