<?xml version="1.0" encoding="iso-8859-1"?>
<!-- Generator: Adobe Illustrator 19.0.0, SVG Export Plug-In . SVG Version: 6.00 Build 0)  -->
<svg version="1.1" id="Layer_1" xmlns="http://www.w3.org/2000/svg" xmlns:xlink="http://www.w3.org/1999/xlink" x="0px" y="0px"
	 viewBox="0 0 30 30" style="enable-background:new 0 0 30 30;" xml:space="preserve">
<g>
	<g>
		<path d="M5,27.5c0,0.651,0.419,1.201,1,1.408V29.5C6,29.776,6.224,30,6.5,30S7,29.776,7,29.5V29h16v0.5c0,0.276,0.224,0.5,0.5,0.5
			s0.5-0.224,0.5-0.5v-0.592c0.581-0.207,1-0.757,1-1.408V17H5V27.5z M20.5,23H21v-3.5c0-0.276,0.224-0.5,0.5-0.5s0.5,0.224,0.5,0.5
			v4c0,0.276-0.224,0.5-0.5,0.5h-1c-0.276,0-0.5-0.224-0.5-0.5S20.224,23,20.5,23z M23.5,0h-17C5.673,0,5,0.673,5,1.5V16h20V1.5
			C25,0.673,24.327,0,23.5,0z M22,13.5c0,0.276-0.224,0.5-0.5,0.5h-1c-0.276,0-0.5-0.224-0.5-0.5s0.224-0.5,0.5-0.5H21V9.5
			C21,9.224,21.224,9,21.5,9S22,9.224,22,9.5V13.5z"/>
	</g>
</g>
</svg>
