<?xml version="1.0" encoding="iso-8859-1"?>
<!-- Generator: Adobe Illustrator 19.0.0, SVG Export Plug-In . SVG Version: 6.00 Build 0)  -->
<svg version="1.1" id="Layer_1" xmlns="http://www.w3.org/2000/svg" xmlns:xlink="http://www.w3.org/1999/xlink" x="0px" y="0px"
	 viewBox="0 0 30 30" style="enable-background:new 0 0 30 30;" xml:space="preserve">
<g>
	<g>
		<path d="M25.5,1h-1c-0.008,0-0.014,0.004-0.021,0.004C24.484,0.835,24.5,0.672,24.5,0.5C24.5,0.224,24.276,0,24,0H2
			C1.724,0,1.5,0.224,1.5,0.5c0,3.73,1.78,7.287,4.76,9.513c2.467,1.843,3.934,4.62,4.242,8.031l1.016,11.5
			c0.016,0.181,0.129,0.339,0.295,0.413C11.878,29.986,11.947,30,12.016,30c0.107,0,0.212-0.034,0.301-0.101l3.984-3
			c0.118-0.089,0.191-0.226,0.199-0.373l0.498-9.475c0.316-3.026,1.66-5.669,3.783-7.442c0.877-0.732,1.599-1.614,2.171-2.62
			c0.017,0.002,0.032,0.01,0.049,0.01h2.5c1.654,0,3-1.346,3-3C28.501,2.345,27.154,1,25.5,1z M8.156,8.309
			C8.057,8.44,7.908,8.51,7.755,8.51c-0.104,0-0.209-0.032-0.299-0.099c-1.914-1.43-3.241-3.492-3.736-5.806
			c-0.058-0.27,0.114-0.536,0.384-0.593C4.374,1.95,4.641,2.126,4.698,2.396c0.444,2.078,1.637,3.929,3.357,5.213
			C8.276,7.774,8.322,8.087,8.156,8.309z M25.5,6h-2.059c0.522-1.196,0.861-2.537,0.992-4.013C24.456,1.99,24.476,2,24.5,2h1
			c1.103,0,2,0.897,2,2S26.603,6,25.5,6z"/>
	</g>
</g>
</svg>
