<?xml version="1.0" encoding="iso-8859-1"?>
<!-- Generator: Adobe Illustrator 19.0.0, SVG Export Plug-In . SVG Version: 6.00 Build 0)  -->
<svg version="1.1" id="Layer_1" xmlns="http://www.w3.org/2000/svg" xmlns:xlink="http://www.w3.org/1999/xlink" x="0px" y="0px"
	 viewBox="0 0 30 30" style="enable-background:new 0 0 30 30;" xml:space="preserve">
<g>
	<g>
		<path d="M24.5,10.492V8.5C24.5,3.813,20.687,0,16,0h-2C9.313,0,5.5,3.813,5.5,8.5v1.994l-0.999,18.98
			c-0.008,0.137,0.042,0.271,0.137,0.371C4.732,29.945,4.864,30,5,30h20c0.137,0,0.269-0.056,0.362-0.156
			c0.095-0.1,0.145-0.233,0.137-0.371L24.5,10.492z M22,28H8c-0.276,0-0.5-0.224-0.5-0.5S7.724,27,8,27h14
			c0.276,0,0.5,0.224,0.5,0.5S22.276,28,22,28z M8,15c0.276,0,0.5,0.224,0.5,0.5S8.725,16,9,16c0.275,0,0.5-0.224,0.5-0.5
			S9.724,15,10,15s0.5,0.224,0.5,0.5c0,0.827-0.673,1.5-1.5,1.5c-0.827,0-1.5-0.673-1.5-1.5C7.5,15.224,7.724,15,8,15z M7.5,12.5
			C7.5,12.224,7.724,12,8,12s0.5,0.224,0.5,0.5S8.725,13,9,13c0.275,0,0.5-0.224,0.5-0.5S9.724,12,10,12s0.5,0.224,0.5,0.5
			c0,0.827-0.673,1.5-1.5,1.5C8.173,14,7.5,13.327,7.5,12.5z M8,18c0.276,0,0.5,0.224,0.5,0.5S8.725,19,9,19
			c0.275,0,0.5-0.224,0.5-0.5S9.724,18,10,18s0.5,0.224,0.5,0.5c0,0.827-0.673,1.5-1.5,1.5c-0.827,0-1.5-0.673-1.5-1.5
			C7.5,18.224,7.724,18,8,18z M8,21c0.276,0,0.5,0.224,0.5,0.5S8.725,22,9,22c0.275,0,0.5-0.224,0.5-0.5S9.724,21,10,21
			s0.5,0.224,0.5,0.5c0,0.827-0.673,1.5-1.5,1.5c-0.827,0-1.5-0.673-1.5-1.5C7.5,21.224,7.724,21,8,21z M8,24
			c0.276,0,0.5,0.224,0.5,0.5S8.725,25,9,25c0.275,0,0.5-0.224,0.5-0.5S9.724,24,10,24s0.5,0.224,0.5,0.5c0,0.827-0.673,1.5-1.5,1.5
			c-0.827,0-1.5-0.673-1.5-1.5C7.5,24.224,7.724,24,8,24z M12,15c0.276,0,0.5,0.224,0.5,0.5S12.725,16,13,16
			c0.275,0,0.5-0.224,0.5-0.5S13.724,15,14,15s0.5,0.224,0.5,0.5c0,0.827-0.673,1.5-1.5,1.5c-0.827,0-1.5-0.673-1.5-1.5
			C11.5,15.224,11.724,15,12,15z M11.5,12.5c0-0.276,0.224-0.5,0.5-0.5s0.5,0.224,0.5,0.5S12.725,13,13,13
			c0.275,0,0.5-0.224,0.5-0.5S13.724,12,14,12s0.5,0.224,0.5,0.5c0,0.827-0.673,1.5-1.5,1.5C12.173,14,11.5,13.327,11.5,12.5z
			 M12,18c0.276,0,0.5,0.224,0.5,0.5S12.725,19,13,19c0.275,0,0.5-0.224,0.5-0.5S13.724,18,14,18s0.5,0.224,0.5,0.5
			c0,0.827-0.673,1.5-1.5,1.5c-0.827,0-1.5-0.673-1.5-1.5C11.5,18.224,11.724,18,12,18z M12,21c0.276,0,0.5,0.224,0.5,0.5
			S12.725,22,13,22c0.275,0,0.5-0.224,0.5-0.5S13.724,21,14,21s0.5,0.224,0.5,0.5c0,0.827-0.673,1.5-1.5,1.5
			c-0.827,0-1.5-0.673-1.5-1.5C11.5,21.224,11.724,21,12,21z M12,24c0.276,0,0.5,0.224,0.5,0.5S12.725,25,13,25
			c0.275,0,0.5-0.224,0.5-0.5S13.724,24,14,24s0.5,0.224,0.5,0.5c0,0.827-0.673,1.5-1.5,1.5c-0.827,0-1.5-0.673-1.5-1.5
			C11.5,24.224,11.724,24,12,24z M16,15c0.276,0,0.5,0.224,0.5,0.5S16.725,16,17,16c0.275,0,0.5-0.224,0.5-0.5S17.724,15,18,15
			s0.5,0.224,0.5,0.5c0,0.827-0.673,1.5-1.5,1.5c-0.827,0-1.5-0.673-1.5-1.5C15.5,15.224,15.724,15,16,15z M15.5,12.5
			c0-0.276,0.224-0.5,0.5-0.5s0.5,0.224,0.5,0.5S16.725,13,17,13c0.275,0,0.5-0.224,0.5-0.5S17.724,12,18,12s0.5,0.224,0.5,0.5
			c0,0.827-0.673,1.5-1.5,1.5C16.173,14,15.5,13.327,15.5,12.5z M16,18c0.276,0,0.5,0.224,0.5,0.5S16.725,19,17,19
			c0.275,0,0.5-0.224,0.5-0.5S17.724,18,18,18s0.5,0.224,0.5,0.5c0,0.827-0.673,1.5-1.5,1.5c-0.827,0-1.5-0.673-1.5-1.5
			C15.5,18.224,15.724,18,16,18z M16,21c0.276,0,0.5,0.224,0.5,0.5S16.725,22,17,22c0.275,0,0.5-0.224,0.5-0.5S17.724,21,18,21
			s0.5,0.224,0.5,0.5c0,0.827-0.673,1.5-1.5,1.5c-0.827,0-1.5-0.673-1.5-1.5C15.5,21.224,15.724,21,16,21z M16,24
			c0.276,0,0.5,0.224,0.5,0.5S16.725,25,17,25c0.275,0,0.5-0.224,0.5-0.5S17.724,24,18,24s0.5,0.224,0.5,0.5
			c0,0.827-0.673,1.5-1.5,1.5c-0.827,0-1.5-0.673-1.5-1.5C15.5,24.224,15.724,24,16,24z M21,26c-0.827,0-1.5-0.673-1.5-1.5
			c0-0.276,0.224-0.5,0.5-0.5s0.5,0.224,0.5,0.5S20.725,25,21,25c0.275,0,0.5-0.224,0.5-0.5S21.724,24,22,24s0.5,0.224,0.5,0.5
			C22.5,25.327,21.827,26,21,26z M21,23c-0.827,0-1.5-0.673-1.5-1.5c0-0.276,0.224-0.5,0.5-0.5s0.5,0.224,0.5,0.5S20.725,22,21,22
			c0.275,0,0.5-0.224,0.5-0.5S21.724,21,22,21s0.5,0.224,0.5,0.5C22.5,22.327,21.827,23,21,23z M21,20c-0.827,0-1.5-0.673-1.5-1.5
			c0-0.276,0.224-0.5,0.5-0.5s0.5,0.224,0.5,0.5S20.725,19,21,19c0.275,0,0.5-0.224,0.5-0.5S21.724,18,22,18s0.5,0.224,0.5,0.5
			C22.5,19.327,21.827,20,21,20z M21,17c-0.827,0-1.5-0.673-1.5-1.5c0-0.276,0.224-0.5,0.5-0.5s0.5,0.224,0.5,0.5S20.725,16,21,16
			c0.275,0,0.5-0.224,0.5-0.5S21.724,15,22,15s0.5,0.224,0.5,0.5C22.5,16.327,21.827,17,21,17z M21,14c-0.827,0-1.5-0.673-1.5-1.5
			c0-0.276,0.224-0.5,0.5-0.5s0.5,0.224,0.5,0.5S20.725,13,21,13c0.275,0,0.5-0.224,0.5-0.5S21.724,12,22,12s0.5,0.224,0.5,0.5
			C22.5,13.327,21.827,14,21,14z M23.5,10h-17V8.5C6.5,4.364,9.864,1,14,1h2c4.136,0,7.5,3.364,7.5,7.5V10z"/>
	</g>
</g>
</svg>
