<?xml version="1.0" encoding="iso-8859-1"?>
<!-- Generator: Adobe Illustrator 19.0.0, SVG Export Plug-In . SVG Version: 6.00 Build 0)  -->
<svg version="1.1" id="Layer_1" xmlns="http://www.w3.org/2000/svg" xmlns:xlink="http://www.w3.org/1999/xlink" x="0px" y="0px"
	 viewBox="0 0 30 30" style="enable-background:new 0 0 30 30;" xml:space="preserve">
<g>
	<g>
		<path d="M5.293,20.292c-0.39,0.39-0.39,1.024,0,1.414C5.488,21.901,5.744,21.999,6,21.999s0.512-0.097,0.707-0.292
			c0.39-0.39,0.39-1.024,0-1.414C6.317,19.901,5.683,19.901,5.293,20.292z M26.964,1.007c-1.372-1.34-3.604-1.34-4.976,0
			l-7.841,7.658L2.741,19.804C2.263,20.271,2,20.893,2,21.554s0.263,1.283,0.741,1.75l6.416,6.267
			c0.292,0.285,0.677,0.428,1.062,0.428s0.77-0.143,1.062-0.429L22.687,18.43c0.287-0.281,0.446-0.655,0.446-1.054
			s-0.159-0.772-0.446-1.054l-3.911-3.819l5.742-5.607c0.92-0.01,1.801-0.367,2.446-0.997C27.632,5.247,28,4.378,28,3.453
			C28,2.53,27.632,1.659,26.964,1.007z M21.986,17.038c0.095,0.092,0.147,0.212,0.147,0.339s-0.052,0.247-0.145,0.339L10.582,28.854
			c-0.2,0.197-0.526,0.196-0.728,0.001l-1.068-1.043L20.91,15.987L21.986,17.038z M20.195,15.288L8.071,27.112L3.44,22.59
			C3.156,22.312,3,21.943,3,21.554c0-0.391,0.156-0.758,0.439-1.035L14.495,9.721l3.215,3.14c0,0,0.001,0.001,0.002,0.001
			L20.195,15.288z M24.707,3.706C24.512,3.901,24.256,4,24,4s-0.512-0.098-0.707-0.292c-0.39-0.39-0.39-1.024,0-1.414
			c0.39-0.39,1.024-0.39,1.414,0C25.097,2.682,25.097,3.317,24.707,3.706z"/>
	</g>
</g>
</svg>
