<?xml version="1.0" encoding="iso-8859-1"?>
<!-- Generator: Adobe Illustrator 19.0.0, SVG Export Plug-In . SVG Version: 6.00 Build 0)  -->
<svg version="1.1" id="Layer_1" xmlns="http://www.w3.org/2000/svg" xmlns:xlink="http://www.w3.org/1999/xlink" x="0px" y="0px"
	 viewBox="0 0 30 30" style="enable-background:new 0 0 30 30;" xml:space="preserve">
<g>
	<g>
		<path d="M29.429,19.743l-2.976-4.96c0.006-1.455,0.866-4.209,1.449-6.066C28.316,7.396,28.5,6.799,28.5,6.5c0-1.467-2.093-2-3.5-2
			s-3.5,0.533-3.5,2c0,0.3,0.183,0.9,0.597,2.229c0.574,1.845,1.423,4.582,1.448,6.068C23.517,14.86,23.5,14.927,23.5,15
			c0,1.419-3.491,3-8.5,3c-5.009,0-8.5-1.581-8.5-3c0-0.074-0.018-0.143-0.047-0.207c0.003-1.452,0.865-4.215,1.449-6.076
			C8.316,7.396,8.5,6.799,8.5,6.5c0-1.467-2.093-2-3.5-2c-1.407,0-3.5,0.533-3.5,2c0,0.3,0.183,0.9,0.597,2.229
			C2.67,10.57,3.516,13.3,3.544,14.788l-2.973,4.955C0.524,19.82,0.5,19.909,0.5,20c0,3.084,6.369,5.5,14.5,5.5s14.5-2.416,14.5-5.5
			C29.5,19.909,29.476,19.82,29.429,19.743z M25,6.5c0.276,0,0.5,0.224,0.5,0.5S25.276,7.5,25,7.5S24.5,7.276,24.5,7
			S24.724,6.5,25,6.5z M5,6.5c0.276,0,0.5,0.224,0.5,0.5S5.276,7.5,5,7.5S4.5,7.276,4.5,7S4.724,6.5,5,6.5z M15,24.5
			c-7.797,0-13.278-2.278-13.494-4.372L4.283,15.5h1.284C6.116,17.527,9.988,19,15,19c5.012,0,8.884-1.473,9.433-3.5h1.284
			l2.777,4.628C28.278,22.222,22.797,24.5,15,24.5z"/>
	</g>
</g>
</svg>
