<?xml version="1.0" encoding="iso-8859-1"?>
<!-- Generator: Adobe Illustrator 19.0.0, SVG Export Plug-In . SVG Version: 6.00 Build 0)  -->
<svg version="1.1" id="Layer_1" xmlns="http://www.w3.org/2000/svg" xmlns:xlink="http://www.w3.org/1999/xlink" x="0px" y="0px"
	 viewBox="0 0 30 30" style="enable-background:new 0 0 30 30;" xml:space="preserve">
<g>
	<g>
		<path d="M29.25,11.352h-0.001c0-3.963-2.804-7.525-7.317-9.295c-0.057-0.023-0.117-0.023-0.176-0.024
			C20.289,0.644,15.746,0,11.464,0C6.304,0,0.75,0.946,0.75,3.022c0,0.091,0.024,0.18,0.071,0.257L2.25,5.66v20.361
			c0,1.67,1.318,2.978,3,2.978v0.5c0,0.276,0.224,0.5,0.5,0.5s0.5-0.224,0.5-0.5v-0.5h13v0.5c0,0.276,0.224,0.5,0.5,0.5
			s0.5-0.224,0.5-0.5v-0.677c1.173-0.402,2-1.483,2-2.801v-1h1.5c0.276,0,0.5-0.224,0.5-0.5s-0.224-0.5-0.5-0.5h-0.815
			c3.191-3.383,6.315-8.197,6.315-12.5V11.352z M16.249,21c0,2.206-1.794,4-4,4c-1.857,0-3.408-1.278-3.857-2.996l3.354,0.018h0.003
			c0.275,0,0.499-0.222,0.5-0.497c0.001-0.276-0.221-0.501-0.497-0.503l-3.503-0.019V19h1.5c0.276,0,0.5-0.224,0.5-0.5
			s-0.224-0.5-0.5-0.5h-1.5v-1.997l3.497,0.019h0.003c0.275,0,0.499-0.222,0.5-0.497c0.001-0.276-0.221-0.501-0.497-0.503
			l-3.503-0.019V13h1.5c0.276,0,0.5-0.224,0.5-0.5s-0.224-0.5-0.5-0.5h-1.5v-2c0-0.007,0.002-0.013,0.002-0.019L11.746,10h0.003
			c0.275,0,0.499-0.222,0.5-0.497C12.25,9.227,12.028,9.003,11.752,9L8.397,8.982C8.85,7.271,10.397,6,12.249,6c2.206,0,4,1.794,4,4
			V21z M22.249,19.186V6.419c1.987,1.33,3,3.041,3,5.102C25.249,14.301,24.337,16.65,22.249,19.186z"/>
	</g>
</g>
</svg>
