<?xml version="1.0" encoding="iso-8859-1"?>
<!-- Generator: Adobe Illustrator 19.0.0, SVG Export Plug-In . SVG Version: 6.00 Build 0)  -->
<svg version="1.1" id="Layer_1" xmlns="http://www.w3.org/2000/svg" xmlns:xlink="http://www.w3.org/1999/xlink" x="0px" y="0px"
	 viewBox="0 0 30 30" style="enable-background:new 0 0 30 30;" xml:space="preserve">
<g>
	<g>
		<path d="M17.909,2.466c-0.108,0.136-0.138,0.32-0.078,0.483c0.061,0.164,0.202,0.284,0.373,0.318
			c3.941,0.775,7.368,3.229,9.402,6.734c0.087,0.15,0.247,0.245,0.421,0.249h0.012c0.169,0,0.328-0.086,0.42-0.229
			C29.14,8.968,29.5,7.75,29.5,6.5C29.5,2.916,26.584,0,23,0C21.008,0,19.152,0.899,17.909,2.466z M2.617,11.01
			c0.164-0.022,0.306-0.124,0.38-0.271c1.814-3.607,5.088-6.258,8.983-7.272c0.16-0.042,0.289-0.16,0.345-0.315
			c0.056-0.155,0.031-0.329-0.066-0.462C11.036,1.005,9.07,0,7,0C3.416,0,0.5,2.916,0.5,6.5c0,1.605,0.596,3.15,1.679,4.35
			c0.095,0.106,0.23,0.165,0.371,0.165C2.572,11.015,2.594,11.013,2.617,11.01z M16.5,4.051V1H18c0.276,0,0.5-0.224,0.5-0.5
			S18.276,0,18,0h-4c-0.276,0-0.5,0.224-0.5,0.5S13.724,1,14,1h1.5v3c-7.168,0-13,5.832-13,13c0,3.794,1.643,7.202,4.244,9.581
			c-0.089,0.054-0.166,0.129-0.208,0.234l-1,2.5c-0.103,0.256,0.022,0.547,0.279,0.65C5.875,29.989,5.938,30,6,30
			c0.198,0,0.386-0.119,0.464-0.314l0.996-2.49C9.675,28.946,12.464,30,15.5,30c2.691,0,5.194-0.822,7.27-2.228l0.766,1.914
			C23.614,29.881,23.802,30,24,30c0.062,0,0.125-0.011,0.186-0.036c0.256-0.103,0.381-0.394,0.279-0.65L23.6,27.151
			c2.981-2.384,4.9-6.045,4.9-10.151C28.5,10.169,23.201,4.564,16.5,4.051z M26.5,16.5c0,1.551-2.655,2.5-4.1,2.5
			c-1.401,0-2.572-0.86-2.841-2H16.5v5.5c0,0.276-0.224,0.5-0.5,0.5s-0.5-0.224-0.5-0.5v-2.946
			c-0.001-0.011-0.007-0.021-0.007-0.032L15.495,17H9c-0.276,0-0.5-0.224-0.5-0.5S8.724,16,9,16h6.495l0.002-2.592
			c0.015-1.088,0.023-1.688-0.849-2.553c-0.094-0.093-0.148-0.221-0.148-0.354l-0.007-4c0-0.276,0.223-0.5,0.499-0.501
			c0.276,0,0.5,0.223,0.5,0.499l0.008,3.798c0.223,0.238,0.389,0.469,0.524,0.696c0.128-0.223,0.278-0.448,0.476-0.681V6.5
			C16.5,6.224,16.724,6,17,6s0.5,0.224,0.5,0.5v4c0,0.125-0.046,0.245-0.131,0.337c-0.878,0.963-0.875,1.673-0.87,2.85V16h3.059
			c0.269-1.14,1.441-2,2.841-2C23.845,14,26.5,14.949,26.5,16.5z"/>
	</g>
</g>
</svg>
