<?xml version="1.0" encoding="iso-8859-1"?>
<!-- Generator: Adobe Illustrator 19.0.0, SVG Export Plug-In . SVG Version: 6.00 Build 0)  -->
<svg version="1.1" id="Layer_1" xmlns="http://www.w3.org/2000/svg" xmlns:xlink="http://www.w3.org/1999/xlink" x="0px" y="0px"
	 viewBox="0 0 30 30" style="enable-background:new 0 0 30 30;" xml:space="preserve">
<g>
	<g>
		<path d="M14.846,9.12c-0.195-0.195-0.512-0.195-0.707,0l-14,14c-0.094,0.094-0.147,0.221-0.147,0.354v4c0,0.276,0.224,0.5,0.5,0.5
			h0.5v0.5c0,0.276,0.224,0.5,0.5,0.5s0.5-0.224,0.5-0.5v-0.5h10v0.5c0,0.276,0.224,0.5,0.5,0.5s0.5-0.224,0.5-0.5v-0.5h0.5
			c0.142,0,0.277-0.06,0.372-0.166l9-10c0.178-0.198,0.17-0.5-0.018-0.688L14.846,9.12z M14.846,13.828l-9,9
			c-0.098,0.097-0.226,0.146-0.354,0.146s-0.256-0.049-0.354-0.146c-0.195-0.195-0.195-0.512,0-0.707l9-9
			c0.195-0.195,0.512-0.195,0.707,0C15.04,13.316,15.041,13.632,14.846,13.828z M28.983,2.018c-1.321-1.322-3.628-1.322-4.949,0
			l-7.085,7.084c-0.094,0.094-0.146,0.221-0.146,0.354s0.053,0.26,0.146,0.354l3.536,3.536c0.094,0.094,0.221,0.146,0.354,0.146
			s0.26-0.053,0.354-0.146l5.363-5.364c0.914-0.011,1.789-0.374,2.428-1.014c0.661-0.661,1.025-1.54,1.025-2.475
			S29.643,2.679,28.983,2.018z M26.838,3.827c-0.191,0.195-0.5,0.195-0.691,0c-0.191-0.195-0.191-0.51,0-0.705
			c0.191-0.195,0.5-0.195,0.691,0C27.029,3.316,27.029,3.632,26.838,3.827z"/>
	</g>
</g>
</svg>
