<?xml version="1.0" encoding="iso-8859-1"?>
<!-- Generator: Adobe Illustrator 19.0.0, SVG Export Plug-In . SVG Version: 6.00 Build 0)  -->
<svg version="1.1" id="Layer_1" xmlns="http://www.w3.org/2000/svg" xmlns:xlink="http://www.w3.org/1999/xlink" x="0px" y="0px"
	 viewBox="0 0 30 30" style="enable-background:new 0 0 30 30;" xml:space="preserve">
<g>
	<g>
		<path d="M24,9h-0.5V0.5C23.5,0.224,23.276,0,23,0H7C6.724,0,6.5,0.224,6.5,0.5V9H6C5.724,9,5.5,9.224,5.5,9.5v20
			C5.5,29.776,5.724,30,6,30h18c0.276,0,0.5-0.224,0.5-0.5v-20C24.5,9.224,24.276,9,24,9z M19.119,25.069
			C18.358,26.795,16.665,28,15,28c-1.735,0-3.165-0.766-3.922-2.101c-0.893-1.573-0.681-3.686,0.581-5.798
			c2.103-3.518,2.839-8.62,2.847-8.671c0.038-0.266,0.275-0.454,0.547-0.428c0.268,0.027,0.465,0.263,0.447,0.531
			c-0.003,0.051-0.309,5.176,2.716,8.487C19.557,21.489,19.886,23.329,19.119,25.069z M22.5,9h-3V5.881c0.587-0.27,1-0.996,1-1.881
			c0-1.121-0.659-2-1.5-2s-1.5,0.879-1.5,2c0,0.885,0.413,1.611,1,1.881V9h-3V5.881c0.587-0.27,1-0.996,1-1.881
			c0-1.121-0.659-2-1.5-2s-1.5,0.879-1.5,2c0,0.885,0.413,1.611,1,1.881V9h-3V5.881c0.587-0.27,1-0.996,1-1.881
			c0-1.121-0.659-2-1.5-2S9.5,2.879,9.5,4c0,0.885,0.413,1.611,1,1.881V9h-3V1h15V9z"/>
	</g>
</g>
</svg>
