<?xml version="1.0" encoding="iso-8859-1"?>
<!-- Generator: Adobe Illustrator 19.0.0, SVG Export Plug-In . SVG Version: 6.00 Build 0)  -->
<svg version="1.1" id="Layer_1" xmlns="http://www.w3.org/2000/svg" xmlns:xlink="http://www.w3.org/1999/xlink" x="0px" y="0px"
	 viewBox="0 0 30 30" style="enable-background:new 0 0 30 30;" xml:space="preserve">
<g>
	<g>
		<path d="M26.454,0H1C0.797,0,0.614,0.123,0.538,0.31c-0.077,0.188-0.034,0.403,0.11,0.545l1.954,1.936
			C3.95,4.127,4.499,5.202,4.499,6.5v20c0,1.93,1.57,3.5,3.5,3.5h12c1.93,0,3.5-1.57,3.5-3.5v-21c0-0.276,0.225-0.5,0.5-0.5
			c0.275,0,0.5,0.224,0.5,0.5v8c0,1.378,1.121,2.5,2.5,2.5c1.379,0,2.5-1.122,2.5-2.5V3.022C29.5,1.355,28.134,0,26.454,0z M15,28
			h-3c-0.276,0-0.5-0.224-0.5-0.5S11.724,27,12,27h3c0.276,0,0.5,0.224,0.5,0.5S15.276,28,15,28z M15,26h-4
			c-0.276,0-0.5-0.224-0.5-0.5S10.724,25,11,25h4c0.276,0,0.5,0.224,0.5,0.5S15.276,26,15,26z M15,24h-3c-0.276,0-0.5-0.224-0.5-0.5
			S11.724,23,12,23h3c0.276,0,0.5,0.224,0.5,0.5S15.276,24,15,24z M15,22h-4c-0.276,0-0.5-0.224-0.5-0.5S10.724,21,11,21h4
			c0.276,0,0.5,0.224,0.5,0.5S15.276,22,15,22z M15,20h-3c-0.276,0-0.5-0.224-0.5-0.5S11.724,19,12,19h3c0.276,0,0.5,0.224,0.5,0.5
			S15.276,20,15,20z M15,18h-4c-0.276,0-0.5-0.224-0.5-0.5S10.724,17,11,17h4c0.276,0,0.5,0.224,0.5,0.5S15.276,18,15,18z M15,16h-3
			c-0.276,0-0.5-0.224-0.5-0.5S11.724,15,12,15h3c0.276,0,0.5,0.224,0.5,0.5S15.276,16,15,16z M15,14h-4c-0.276,0-0.5-0.224-0.5-0.5
			S10.724,13,11,13h4c0.276,0,0.5,0.224,0.5,0.5S15.276,14,15,14z M15,12h-3c-0.276,0-0.5-0.224-0.5-0.5S11.724,11,12,11h3
			c0.276,0,0.5,0.224,0.5,0.5S15.276,12,15,12z M15,10h-4c-0.276,0-0.5-0.224-0.5-0.5S10.724,9,11,9h4c0.276,0,0.5,0.224,0.5,0.5
			S15.276,10,15,10z"/>
	</g>
</g>
</svg>
