<?xml version="1.0" encoding="iso-8859-1"?>
<!-- Generator: Adobe Illustrator 19.0.0, SVG Export Plug-In . SVG Version: 6.00 Build 0)  -->
<svg version="1.1" id="Layer_1" xmlns="http://www.w3.org/2000/svg" xmlns:xlink="http://www.w3.org/1999/xlink" x="0px" y="0px"
	 viewBox="0 0 30 30" style="enable-background:new 0 0 30 30;" xml:space="preserve">
<g>
	<g>
		<path d="M19.5,11.5V1.26C19.5,0.566,18.935,0,18.231,0c-0.679,0-1.232,0.532-1.259,1.211l-0.395,10.272
			C16.544,12.334,15.852,13,15,13s-1.544-0.666-1.577-1.518L13.028,1.211C13.001,0.532,12.448,0,11.76,0
			c-0.695,0-1.26,0.565-1.26,1.26V11.5c0,1.957,1.263,3.609,3.011,4.227c0.196,2.087-0.971,5.893-1.544,7.751
			c-0.096,0.312-0.178,0.579-0.24,0.79c-0.209,0.715-0.274,1.83-0.193,3.314C11.607,28.938,13.13,30,15,30s3.393-1.062,3.466-2.417
			c0.081-1.484,0.016-2.6-0.193-3.314l-0.182-0.608c-0.572-1.899-1.737-5.786-1.597-7.935C18.239,15.106,19.5,13.455,19.5,11.5z"/>
	</g>
</g>
</svg>
