<?xml version="1.0" encoding="iso-8859-1"?>
<!-- Generator: Adobe Illustrator 19.0.0, SVG Export Plug-In . SVG Version: 6.00 Build 0)  -->
<svg version="1.1" id="Layer_1" xmlns="http://www.w3.org/2000/svg" xmlns:xlink="http://www.w3.org/1999/xlink" x="0px" y="0px"
	 viewBox="0 0 30 30" style="enable-background:new 0 0 30 30;" xml:space="preserve">
<g>
	<g>
		<path d="M16.499,9.208V7h0.5c0.276,0,0.5-0.224,0.5-0.5S17.275,6,16.999,6h-1.5V3.118l0.965-2.434
			c0.102-0.256-0.023-0.547-0.28-0.649c-0.256-0.102-0.547,0.024-0.649,0.281l-1,2.522C14.512,2.897,14.5,2.959,14.5,3.022V6H13
			c-0.276,0-0.5,0.224-0.5,0.5S12.724,7,13,7h0.5v2.208c-2.341,0.663-4,2.826-4,5.292v15c0,0.276,0.224,0.5,0.5,0.5h10
			c0.276,0,0.5-0.224,0.5-0.5v-15C20.499,12.033,18.84,9.87,16.499,9.208z M14.497,12.051c-1.158,0.235-1.998,1.265-1.998,2.449v13
			c0,0.276-0.224,0.5-0.5,0.5s-0.5-0.224-0.5-0.5v-13c0-1.658,1.177-3.1,2.799-3.43c0.264-0.051,0.534,0.12,0.59,0.391
			C14.942,11.731,14.768,11.996,14.497,12.051z"/>
	</g>
</g>
</svg>
