<?xml version="1.0" encoding="iso-8859-1"?>
<!-- Generator: Adobe Illustrator 19.0.0, SVG Export Plug-In . SVG Version: 6.00 Build 0)  -->
<svg version="1.1" id="Layer_1" xmlns="http://www.w3.org/2000/svg" xmlns:xlink="http://www.w3.org/1999/xlink" x="0px" y="0px"
	 viewBox="0 0 30 30" style="enable-background:new 0 0 30 30;" xml:space="preserve">
<g>
	<g>
		<path d="M28.87,8.025c-0.04,0-0.079,0.005-0.117,0.014L17,10.865V10.5C17,8.522,11.44,8,8.5,8S0,8.522,0,10.5v7
			C0,19.981,2.019,22,4.5,22h8c2.481,0,4.5-2.019,4.5-4.5v-5.54l11.87-0.985c0.634,0,1.13-0.648,1.13-1.475
			S29.503,8.025,28.87,8.025z M8.5,12C3.628,12,1,10.936,1,10.5C1,10.064,3.628,9,8.5,9s7.5,1.064,7.5,1.5
			C16,10.936,13.372,12,8.5,12z"/>
	</g>
</g>
</svg>
