<?xml version="1.0" encoding="iso-8859-1"?>
<!-- Generator: Adobe Illustrator 19.0.0, SVG Export Plug-In . SVG Version: 6.00 Build 0)  -->
<svg version="1.1" id="Layer_1" xmlns="http://www.w3.org/2000/svg" xmlns:xlink="http://www.w3.org/1999/xlink" x="0px" y="0px"
	 viewBox="0 0 30 30" style="enable-background:new 0 0 30 30;" xml:space="preserve">
<g>
	<g>
		<path d="M28.87,10.5c-0.048,0-0.097,0.007-0.144,0.021l-12.794,3.828C15.972,14.07,16,13.788,16,13.5
			c0-0.079-0.022-0.155-0.053-0.226C15.4,11.556,8.785,11.5,8,11.5c-0.787,0-7.441,0.057-7.95,1.79C0.02,13.354,0,13.424,0,13.5
			c0,3.196,2.57,6,5.5,6h5c2.299,0,4.371-1.73,5.159-4.018L28.87,13.5c0.634,0,1.13-0.659,1.13-1.5S29.503,10.5,28.87,10.5z
			 M14.854,13.549c-0.038,0.024-0.078,0.048-0.13,0.073c-0.058,0.028-0.133,0.058-0.208,0.087c-0.066,0.026-0.132,0.052-0.211,0.078
			c-0.092,0.031-0.203,0.062-0.313,0.093c-0.093,0.026-0.182,0.052-0.288,0.078c-0.128,0.031-0.276,0.061-0.422,0.092
			c-0.118,0.025-0.231,0.05-0.361,0.073c-0.165,0.03-0.353,0.057-0.538,0.085c-0.141,0.021-0.273,0.043-0.425,0.063
			c-0.209,0.027-0.443,0.049-0.673,0.072c-0.157,0.016-0.303,0.034-0.47,0.047c-0.274,0.022-0.577,0.038-0.877,0.054
			c-0.15,0.008-0.286,0.02-0.442,0.026c-0.47,0.019-0.968,0.03-1.498,0.03c-0.533,0-1.033-0.011-1.506-0.03
			c-0.207-0.008-0.389-0.023-0.584-0.034c-0.244-0.014-0.495-0.027-0.722-0.045c-0.308-0.025-0.592-0.056-0.866-0.088
			c-0.072-0.008-0.152-0.015-0.222-0.024c-1.715-0.215-2.737-0.544-3.04-0.78C1.546,13.121,3.888,12.5,8,12.5
			c4.092,0,6.428,0.615,6.931,0.994C14.909,13.512,14.885,13.53,14.854,13.549z"/>
	</g>
</g>
</svg>
