<?xml version="1.0" encoding="iso-8859-1"?>
<!-- Generator: Adobe Illustrator 19.0.0, SVG Export Plug-In . SVG Version: 6.00 Build 0)  -->
<svg version="1.1" id="Layer_1" xmlns="http://www.w3.org/2000/svg" xmlns:xlink="http://www.w3.org/1999/xlink" x="0px" y="0px"
	 viewBox="0 0 30 30" style="enable-background:new 0 0 30 30;" xml:space="preserve">
<g>
	<g>
		<path d="M11.116,6h7.766l2.545-4.243c0.076-0.127,0.093-0.282,0.043-0.422c-0.049-0.141-0.158-0.251-0.297-0.303
			C21.061,0.989,18.369,0,14.999,0C11.355,0,8.91,0.996,8.808,1.038C8.673,1.094,8.57,1.205,8.525,1.343
			C8.479,1.481,8.496,1.632,8.571,1.757L11.116,6z M22.593,9.497L19.437,7h-2.7l1.726,4.314c0.103,0.256-0.021,0.547-0.278,0.65
			C18.124,11.989,18.061,12,17.999,12c-0.198,0-0.386-0.119-0.464-0.314L15.661,7h-1.324l-1.874,4.686
			C12.385,11.881,12.197,12,11.999,12c-0.062,0-0.125-0.011-0.186-0.036c-0.257-0.103-0.381-0.394-0.278-0.65L13.261,7h-2.698
			l-3.12,2.471c-1.901,1.244-2.502,3.745-1.367,5.694l5.556,9.539c0.004,0.009,0.014,0.013,0.018,0.021
			c0.004,0.009,0.003,0.019,0.007,0.027l2.911,5C14.656,29.905,14.821,30,14.999,30s0.343-0.095,0.432-0.249l2.911-5l5.581-9.587
			C25.058,13.216,24.457,10.715,22.593,9.497z M14.999,28.506L12.958,25h4.082L14.999,28.506z"/>
	</g>
</g>
</svg>
