<?xml version="1.0" encoding="iso-8859-1"?>
<!-- Generator: Adobe Illustrator 19.0.0, SVG Export Plug-In . SVG Version: 6.00 Build 0)  -->
<svg version="1.1" id="Layer_1" xmlns="http://www.w3.org/2000/svg" xmlns:xlink="http://www.w3.org/1999/xlink" x="0px" y="0px"
	 viewBox="0 0 30 30" style="enable-background:new 0 0 30 30;" xml:space="preserve">
<g>
	<g>
		<path d="M20.5,4c-1.654,0-3,1.346-3,3c0,0.771,0.301,1.468,0.78,2H15.5V5.949C16.916,5.709,18,4.483,18,3c0-1.654-1.346-3-3-3
			s-3,1.346-3,3c0,1.483,1.084,2.71,2.5,2.949V9h-2.78c0.48-0.532,0.78-1.229,0.78-2c0-1.654-1.346-3-3-3s-3,1.346-3,3
			c0,1.302,0.839,2.402,2,2.816V22.5c0,1.837,1.428,3.332,3.229,3.473l2.87,3.827c0.095,0.126,0.243,0.2,0.4,0.2
			c0.157,0,0.306-0.074,0.4-0.2l2.87-3.827c1.803-0.141,3.231-1.636,3.231-3.473V9.816c1.161-0.414,2-1.514,2-2.816
			C23.5,5.346,22.154,4,20.5,4z M7.5,7c0-1.103,0.897-2,2-2c1.103,0,2,0.897,2,2s-0.897,2-2,2C8.397,9,7.5,8.103,7.5,7z M14.5,15h-5
			v-5h5V15z M15,5c-1.103,0-2-0.897-2-2s0.897-2,2-2c1.103,0,2,0.897,2,2S16.103,5,15,5z M20.5,15h-5v-5h5V15z M20.5,9
			c-1.103,0-2-0.897-2-2s0.897-2,2-2c1.103,0,2,0.897,2,2S21.603,9,20.5,9z"/>
	</g>
</g>
</svg>
