<?xml version="1.0" encoding="iso-8859-1"?>
<!-- Generator: Adobe Illustrator 19.0.0, SVG Export Plug-In . SVG Version: 6.00 Build 0)  -->
<svg version="1.1" id="Layer_1" xmlns="http://www.w3.org/2000/svg" xmlns:xlink="http://www.w3.org/1999/xlink" x="0px" y="0px"
	 viewBox="0 0 30 30" style="enable-background:new 0 0 30 30;" xml:space="preserve">
<g>
	<g>
		<path d="M26,2h-1c0-1.103-0.897-2-2-2c-1.103,0-2,0.897-2,2H9c0-1.103-0.897-2-2-2C5.897,0,5,0.897,5,2H4C2.897,2,2,2.897,2,4
			c0,1.103,0.897,2,2,2h1v6.5c0,0.015,0.001,0.029,0.002,0.044c0.214,2.442,1.541,4.147,3.877,4.941C10.386,17.862,12,19.364,12,21
			v6c0,1.654,1.346,3,3,3s3-1.346,3-3v-6c0-1.635,1.689-3.256,3.176-3.532C24.337,16.283,25,14.112,25,12.5V6h1c1.103,0,2-0.897,2-2
			C28,2.897,27.103,2,26,2z M5,5H4C3.448,5,3,4.552,3,4s0.448-1,1-1h1V5z M21,10.5c0,1.93-1.57,3.5-3.5,3.5h-5
			C10.57,14,9,12.43,9,10.5V6h12V10.5z M21,5H9V3h12V5z M26,5h-1V3h1c0.552,0,1,0.448,1,1S26.552,5,26,5z"/>
	</g>
</g>
</svg>
