<?xml version="1.0" encoding="iso-8859-1"?>
<!-- Generator: Adobe Illustrator 19.0.0, SVG Export Plug-In . SVG Version: 6.00 Build 0)  -->
<svg version="1.1" id="Layer_1" xmlns="http://www.w3.org/2000/svg" xmlns:xlink="http://www.w3.org/1999/xlink" x="0px" y="0px"
	 viewBox="0 0 30 30" style="enable-background:new 0 0 30 30;" xml:space="preserve">
<g>
	<g>
		<path d="M8.485,20.985c-0.276,0-0.5,0.224-0.5,0.5c0,0.276,0.224,0.5,0.5,0.5c0.276,0,0.5-0.224,0.5-0.5
			C8.985,21.209,8.761,20.985,8.485,20.985z M29.137,0.864c-1.133-1.133-3.109-1.133-4.242,0l-6.162,6.162l-1.895-1.895
			c-0.195-0.195-0.512-0.195-0.707,0s-0.195,0.512,0,0.707l1.895,1.895l-2.547,2.547c-1.538-0.837-3.252-1.295-4.994-1.295
			c-5.79,0-10.5,4.71-10.5,10.5c0,5.79,4.71,10.5,10.5,10.5c5.79,0,10.5-4.71,10.5-10.5c0-1.726-0.451-3.425-1.273-4.953
			l2.556-2.556l1.863,1.863c0.098,0.097,0.226,0.146,0.354,0.146s0.256-0.049,0.354-0.146c0.195-0.195,0.195-0.512,0-0.707
			l-1.864-1.864l6.162-6.162C30.307,3.936,30.307,2.034,29.137,0.864z M10.399,22.431c-0.756,0.756-2.072,0.756-2.828,0
			c-0.78-0.779-0.78-2.049,0-2.828L18.733,8.441l2.828,2.828L10.399,22.431z"/>
	</g>
</g>
</svg>
