<?xml version="1.0" encoding="iso-8859-1"?>
<!-- Generator: Adobe Illustrator 19.0.0, SVG Export Plug-In . SVG Version: 6.00 Build 0)  -->
<svg version="1.1" id="Layer_1" xmlns="http://www.w3.org/2000/svg" xmlns:xlink="http://www.w3.org/1999/xlink" x="0px" y="0px"
	 viewBox="0 0 30 30" style="enable-background:new 0 0 30 30;" xml:space="preserve">
<g>
	<g>
		<path d="M3.142,7h23.717c0.154,0,0.301-0.072,0.396-0.194c0.095-0.123,0.127-0.282,0.089-0.432
			c-0.516-1.987-2.301-3.375-4.343-3.375H18.45c-0.245-1.692-1.691-3-3.449-3c-1.758,0-3.204,1.308-3.449,3H7
			c-2.042,0-3.827,1.388-4.343,3.375c-0.038,0.15-0.006,0.309,0.089,0.432C2.841,6.928,2.987,7,3.142,7z M15,1
			c1.208,0,2.217,0.86,2.449,2H12.55C12.783,1.86,13.792,1,15,1z M29.4,8.201c-0.167-0.223-0.48-0.265-0.7-0.1L27.5,9V8.5
			C27.5,8.224,27.276,8,27,8H3C2.724,8,2.5,8.224,2.5,8.5V9L1.3,8.1c-0.219-0.164-0.533-0.122-0.7,0.1
			c-0.165,0.221-0.12,0.534,0.101,0.7l1.8,1.35V24.5c0,3.033,2.468,5.5,5.5,5.5h14c3.032,0,5.5-2.467,5.5-5.5V10.25l1.8-1.35
			C29.521,8.734,29.565,8.421,29.4,8.201z M8,28c-1.93,0-3.5-1.57-3.5-3.5C4.5,24.224,4.724,24,5,24s0.5,0.224,0.5,0.5
			C5.5,25.878,6.621,27,8,27c0.276,0,0.5,0.224,0.5,0.5S8.276,28,8,28z"/>
	</g>
</g>
</svg>
