<?xml version="1.0" encoding="iso-8859-1"?>
<!-- Generator: Adobe Illustrator 19.0.0, SVG Export Plug-In . SVG Version: 6.00 Build 0)  -->
<svg version="1.1" id="Layer_1" xmlns="http://www.w3.org/2000/svg" xmlns:xlink="http://www.w3.org/1999/xlink" x="0px" y="0px"
	 viewBox="0 0 30 30" style="enable-background:new 0 0 30 30;" xml:space="preserve">
<g>
	<g>
		<path d="M2,1.5v26c0,0.651,0.419,1.201,1,1.408V29.5C3,29.776,3.224,30,3.5,30S4,29.776,4,29.5V29h13V0H3.5C2.673,0,2,0.673,2,1.5
			z M5,10.5C5,10.224,5.224,10,5.5,10H8v1.5C8,11.776,8.224,12,8.5,12S9,11.776,9,11.5V10h2.5c0.276,0,0.5,0.224,0.5,0.5v7
			c0,0.276-0.224,0.5-0.5,0.5h-6C5.224,18,5,17.776,5,17.5V10.5z M26.5,0H18v29h8v0.5c0,0.276,0.224,0.5,0.5,0.5s0.5-0.224,0.5-0.5
			v-0.592c0.581-0.207,1-0.757,1-1.408v-26C28,0.673,27.327,0,26.5,0z M21,20.5c0,0.276-0.224,0.5-0.5,0.5S20,20.776,20,20.5v-12
			C20,8.224,20.224,8,20.5,8S21,8.224,21,8.5V20.5z"/>
	</g>
</g>
</svg>
