<?xml version="1.0" encoding="iso-8859-1"?>
<!-- Generator: Adobe Illustrator 19.0.0, SVG Export Plug-In . SVG Version: 6.00 Build 0)  -->
<svg version="1.1" id="Layer_1" xmlns="http://www.w3.org/2000/svg" xmlns:xlink="http://www.w3.org/1999/xlink" x="0px" y="0px"
	 viewBox="0 0 30 30" style="enable-background:new 0 0 30 30;" xml:space="preserve">
<g>
	<g>
		<path d="M29.413,26.558c-0.103-0.103-0.401-0.401-3.007-1.98l0.872-0.872c0.587-0.587,0.587-1.543,0-2.13l-1.142-1.142
			c0.265-0.559,0.18-1.243-0.282-1.705L10.906,3.782c-0.285-0.285-0.663-0.441-1.065-0.441c-0.001,0-0.001,0-0.001,0
			c-0.229,0-0.447,0.056-0.647,0.152L8.06,2.359c-0.568-0.568-1.56-0.57-2.131,0L5.145,3.143C3.945,1.186,3.593,0.739,3.432,0.58
			c-0.758-0.76-2.082-0.761-2.842,0c-0.38,0.379-0.589,0.884-0.589,1.421s0.209,1.042,0.589,1.421
			C0.695,3.526,0.958,3.79,3.154,5.133L2.37,5.918C2.084,6.203,1.929,6.581,1.929,6.984c0,0.402,0.156,0.781,0.441,1.065
			l1.134,1.134c-0.096,0.2-0.152,0.419-0.152,0.648c0,0.403,0.156,0.781,0.441,1.065L18.74,25.844c0.294,0.293,0.68,0.44,1.065,0.44
			c0.221,0,0.436-0.062,0.64-0.159l1.141,1.142c0.285,0.284,0.663,0.441,1.065,0.441c0.403,0,0.781-0.157,1.065-0.441l0.872-0.872
			c1.581,2.608,1.868,2.895,1.98,3.006c0.379,0.38,0.884,0.589,1.421,0.589c0.536,0,1.041-0.209,1.421-0.589
			c0.38-0.379,0.589-0.884,0.589-1.421C29.999,27.443,29.793,26.938,29.413,26.558z"/>
	</g>
</g>
</svg>
