<?xml version="1.0" encoding="iso-8859-1"?>
<!-- Generator: Adobe Illustrator 19.0.0, SVG Export Plug-In . SVG Version: 6.00 Build 0)  -->
<svg version="1.1" id="Layer_1" xmlns="http://www.w3.org/2000/svg" xmlns:xlink="http://www.w3.org/1999/xlink" x="0px" y="0px"
	 viewBox="0 0 30 30" style="enable-background:new 0 0 30 30;" xml:space="preserve">
<g>
	<g>
		<path d="M10.702,3.107c0.031,0,0.063-0.003,0.094-0.009c0.346-0.066,0.697-0.1,1.044-0.1h6.465c0.277,0,0.566,0.025,0.884,0.078
			c0.194,0.038,0.392-0.053,0.499-0.218c0.109-0.165,0.11-0.378,0.005-0.544C18.767,0.865,17.198,0,15.497,0h-1
			c-1.717,0-3.294,0.875-4.218,2.342c-0.106,0.168-0.103,0.384,0.01,0.548C10.383,3.028,10.539,3.107,10.702,3.107z M22.79,8.141
			C22.603,5.818,20.634,4,18.305,4H11.84c-2.424,0-4.398,1.898-4.493,4.29l-1.85,18.19c-0.026,0.671,0.255,1.334,0.814,1.917
			C7.217,29.341,8.784,30,10.119,30h10.628c1.125,0,2.223-0.461,2.935-1.232c0.593-0.642,0.882-1.461,0.813-2.314L22.79,8.141z
			 M14.997,17h1c1.93,0,3.5,1.57,3.5,3.5s-1.57,3.5-3.5,3.5h-1c-1.93,0-3.5-1.57-3.5-3.5c0-0.276,0.224-0.5,0.5-0.5
			s0.5,0.224,0.5,0.5c0,1.378,1.121,2.5,2.5,2.5h1c1.379,0,2.5-1.122,2.5-2.5s-1.121-2.5-2.5-2.5h-1c-1.93,0-3.5-1.57-3.5-3.5
			s1.57-3.5,3.5-3.5h1c1.93,0,3.5,1.57,3.5,3.5c0,0.276-0.224,0.5-0.5,0.5s-0.5-0.224-0.5-0.5c0-1.378-1.121-2.5-2.5-2.5h-1
			c-1.379,0-2.5,1.122-2.5,2.5S13.618,17,14.997,17z"/>
	</g>
</g>
</svg>
