<?xml version="1.0" encoding="iso-8859-1"?>
<!-- Generator: Adobe Illustrator 19.0.0, SVG Export Plug-In . SVG Version: 6.00 Build 0)  -->
<svg version="1.1" id="Layer_1" xmlns="http://www.w3.org/2000/svg" xmlns:xlink="http://www.w3.org/1999/xlink" x="0px" y="0px"
	 viewBox="0 0 30 30" style="enable-background:new 0 0 30 30;" xml:space="preserve">
<g>
	<g>
		<path d="M27.678,22.797c-0.08-0.181-0.26-0.297-0.457-0.297H2.778c-0.197,0-0.377,0.116-0.457,0.297
			c-0.08,0.181-0.047,0.392,0.086,0.538C3.075,24.075,4.02,24.5,5,24.5h20c0.979,0,1.925-0.425,2.593-1.165
			C27.725,23.188,27.758,22.978,27.678,22.797z M2.999,21.5h24c0.276,0,0.5-0.224,0.5-0.5c0-5.677-3.807-10.474-9-11.992V9
			c0-1.93-1.57-3.5-3.5-3.5s-3.5,1.57-3.5,3.5v0.008c-5.193,1.518-9,6.315-9,11.992C2.499,21.276,2.723,21.5,2.999,21.5z
			 M25.288,18.9c0.055,0.271-0.12,0.535-0.391,0.59c-0.033,0.007-0.067,0.01-0.101,0.01c-0.232,0-0.44-0.163-0.489-0.4
			c-0.722-3.539-3.455-6.401-6.964-7.294c-0.268-0.068-0.43-0.34-0.361-0.607c0.068-0.267,0.336-0.434,0.607-0.361
			C21.468,11.824,24.489,14.988,25.288,18.9z M14.999,6.5c1.294,0,2.36,0.989,2.486,2.25C16.681,8.587,15.85,8.5,14.999,8.5
			c-0.851,0-1.682,0.087-2.486,0.25C12.639,7.489,13.705,6.5,14.999,6.5z"/>
	</g>
</g>
</svg>
