<?xml version="1.0" encoding="iso-8859-1"?>
<!-- Generator: Adobe Illustrator 19.0.0, SVG Export Plug-In . SVG Version: 6.00 Build 0)  -->
<svg version="1.1" id="Layer_1" xmlns="http://www.w3.org/2000/svg" xmlns:xlink="http://www.w3.org/1999/xlink" x="0px" y="0px"
	 viewBox="0 0 30 30" style="enable-background:new 0 0 30 30;" xml:space="preserve">
<g>
	<g>
		<path d="M29.338,7.631c-0.202-0.186-0.521-0.173-0.706,0.031c-0.387,0.422-1.127,0.622-2.154,0.767
			C26.483,8.285,26.5,8.145,26.5,8c0-0.276-0.224-0.5-0.5-0.5H4C3.724,7.5,3.5,7.724,3.5,8c0,0.145,0.016,0.286,0.022,0.429
			C2.495,8.283,1.755,8.084,1.368,7.662C1.18,7.458,0.864,7.446,0.662,7.631c-0.203,0.187-0.218,0.503-0.03,0.707
			c0.67,0.732,1.776,0.961,2.97,1.112c0.565,4.457,3.683,8.124,7.843,9.481l-1.861,2.792c-0.103,0.153-0.112,0.351-0.024,0.513
			C9.647,22.399,9.816,22.5,10,22.5h10c0.173,0,0.334-0.09,0.426-0.237c0.091-0.147,0.099-0.332,0.021-0.486l-1.495-2.991
			c3.96-1.456,6.9-5.022,7.446-9.335c1.194-0.151,2.3-0.38,2.97-1.112C29.556,8.134,29.541,7.818,29.338,7.631z M7,10.5
			c-0.276,0-0.5-0.224-0.5-0.5S6.724,9.5,7,9.5S7.5,9.724,7.5,10S7.276,10.5,7,10.5z M9,13.5c-0.276,0-0.5-0.224-0.5-0.5
			s0.224-0.5,0.5-0.5s0.5,0.224,0.5,0.5S9.276,13.5,9,13.5z M10.5,10c0-0.276,0.224-0.5,0.5-0.5s0.5,0.224,0.5,0.5
			s-0.224,0.5-0.5,0.5S10.5,10.276,10.5,10z M11.5,16.5c-0.276,0-0.5-0.224-0.5-0.5s0.224-0.5,0.5-0.5S12,15.724,12,16
			S11.776,16.5,11.5,16.5z M13,13.5c-0.276,0-0.5-0.224-0.5-0.5s0.224-0.5,0.5-0.5s0.5,0.224,0.5,0.5S13.276,13.5,13,13.5z M15,16.5
			c-0.276,0-0.5-0.224-0.5-0.5s0.224-0.5,0.5-0.5s0.5,0.224,0.5,0.5S15.276,16.5,15,16.5z M15,10.5c-0.276,0-0.5-0.224-0.5-0.5
			s0.224-0.5,0.5-0.5s0.5,0.224,0.5,0.5S15.276,10.5,15,10.5z M17,13.5c-0.276,0-0.5-0.224-0.5-0.5s0.224-0.5,0.5-0.5
			s0.5,0.224,0.5,0.5S17.276,13.5,17,13.5z M18.5,16.5c-0.276,0-0.5-0.224-0.5-0.5s0.224-0.5,0.5-0.5S19,15.724,19,16
			S18.776,16.5,18.5,16.5z M19,10.5c-0.276,0-0.5-0.224-0.5-0.5s0.224-0.5,0.5-0.5s0.5,0.224,0.5,0.5S19.276,10.5,19,10.5z M21,13.5
			c-0.276,0-0.5-0.224-0.5-0.5s0.224-0.5,0.5-0.5s0.5,0.224,0.5,0.5S21.276,13.5,21,13.5z M23,10.5c-0.276,0-0.5-0.224-0.5-0.5
			s0.224-0.5,0.5-0.5s0.5,0.224,0.5,0.5S23.276,10.5,23,10.5z"/>
	</g>
</g>
</svg>
