<?xml version="1.0" encoding="iso-8859-1"?>
<!-- Generator: Adobe Illustrator 19.0.0, SVG Export Plug-In . SVG Version: 6.00 Build 0)  -->
<svg version="1.1" id="Layer_1" xmlns="http://www.w3.org/2000/svg" xmlns:xlink="http://www.w3.org/1999/xlink" x="0px" y="0px"
	 viewBox="0 0 30 30" style="enable-background:new 0 0 30 30;" xml:space="preserve">
<g>
	<g>
		<path d="M24,16.999V17h0.5L24,16.999z M26.5,1h-12C14.776,1,15,0.776,15,0.5S14.776,0,14.5,0h-1C13.224,0,13,0.224,13,0.5
			S13.224,1,13.5,1h-1C8.878,1,5.848,3.581,5.151,7H30V4.5C30,2.57,28.43,1,26.5,1z M5,8.5C5,10.43,6.57,12,8.5,12H9v4H0.5
			C0.224,16,0,16.224,0,16.5v2c0,3.9,2.364,7.256,5.734,8.718C5.297,27.48,5,27.954,5,28.5C5,29.327,5.673,30,6.5,30h21
			c0.276,0,0.5-0.224,0.5-0.5V11.949c1.14-0.232,2-1.242,2-2.449V8H5.025C5.014,8.166,5,8.331,5,8.5z M24,16c0.552,0,1,0.449,1,1
			c0,0.551-0.448,1-1,1s-1-0.449-1-1C23,16.449,23.448,16,24,16z M10,12h10v12.5c0,1.378-1.121,2.5-2.5,2.5h-3.783
			C16.842,25.443,19,22.223,19,18.5v-2c0-0.276-0.224-0.5-0.5-0.5H10V12z"/>
	</g>
</g>
</svg>
