<?xml version="1.0" encoding="iso-8859-1"?>
<!-- Generator: Adobe Illustrator 19.0.0, SVG Export Plug-In . SVG Version: 6.00 Build 0)  -->
<svg version="1.1" id="Layer_1" xmlns="http://www.w3.org/2000/svg" xmlns:xlink="http://www.w3.org/1999/xlink" x="0px" y="0px"
	 viewBox="0 0 30 30" style="enable-background:new 0 0 30 30;" xml:space="preserve">
<g>
	<g>
		<path d="M23.001,18.539C21.887,16.293,20.5,13.497,20.5,9.5c0-1.412-1.844-2.846-4-3.329V2.5c0-0.133-0.053-0.26-0.146-0.354l-2-2
			c-0.143-0.143-0.356-0.185-0.545-0.108C13.622,0.115,13.5,0.298,13.5,0.5v5.671c-2.156,0.483-4,1.917-4,3.329
			c0,3.997-1.387,6.793-2.501,9.039C6.195,20.159,5.5,21.559,5.5,23c0,3.229,1.814,7,6.929,7h5.143c5.114,0,6.929-3.771,6.929-7
			C24.5,21.559,23.806,20.159,23.001,18.539z M9.686,19.873C9.076,21.102,8.5,22.262,8.5,23c0,0.612,0.084,1.504,0.488,2.273
			c0.128,0.245,0.034,0.547-0.211,0.676c-0.074,0.038-0.153,0.057-0.231,0.057c-0.18,0-0.354-0.098-0.443-0.268
			C7.605,24.788,7.501,23.724,7.501,23c0-0.973,0.598-2.178,1.29-3.572c0.123-0.247,0.422-0.347,0.67-0.226
			C9.708,19.325,9.809,19.625,9.686,19.873z M10.65,9c0.54-0.955,2.458-2,4.35-2c1.892,0,3.809,1.045,4.35,2H10.65z"/>
	</g>
</g>
</svg>
