<?xml version="1.0" encoding="iso-8859-1"?>
<!-- Generator: Adobe Illustrator 19.0.0, SVG Export Plug-In . SVG Version: 6.00 Build 0)  -->
<svg version="1.1" id="Layer_1" xmlns="http://www.w3.org/2000/svg" xmlns:xlink="http://www.w3.org/1999/xlink" x="0px" y="0px"
	 viewBox="0 0 30 30" style="enable-background:new 0 0 30 30;" xml:space="preserve">
<g>
	<g>
		<path d="M27,16.602V9c0-4.962-4.038-9-9-9c-4.962,0-9,4.038-9,9v6.4c-0.007,0.007-0.014,0.013-0.021,0.02
			c-2.015-1.095-6.885-3.973-6.936-4.003C1.849,11.302,1.6,11.332,1.439,11.49L0.15,12.751c-0.095,0.093-0.149,0.22-0.15,0.352
			c-0.001,0.133,0.05,0.261,0.143,0.355c0.848,0.866,1.555,2.141,1.814,2.954c0.128,0.4,0.244,0.998,0.377,1.689
			c0.425,2.191,1.003,5.151,2.811,5.806C5.059,24.592,5,25.287,5,25.999c0,1.485,0.204,2.398,0.516,3.623
			C5.572,29.844,5.772,29.999,6,29.999h23c0.229,0,0.428-0.155,0.484-0.377C29.796,28.397,30,27.484,30,25.999
			C30,22.414,28.866,19.135,27,16.602z M22.5,15h-10c-0.276,0-0.5-0.224-0.5-0.5s0.224-0.5,0.5-0.5h10c0.276,0,0.5,0.224,0.5,0.5
			S22.776,15,22.5,15z M26,15.385c-0.06-0.065-0.126-0.12-0.187-0.183c-0.196-0.203-0.395-0.402-0.602-0.591
			c-0.103-0.094-0.209-0.183-0.315-0.273c-0.212-0.182-0.427-0.359-0.649-0.525c-0.107-0.08-0.216-0.153-0.325-0.229
			c-0.229-0.16-0.46-0.316-0.699-0.46c-0.108-0.065-0.219-0.123-0.329-0.184c-0.244-0.136-0.49-0.269-0.743-0.388
			c-0.115-0.054-0.233-0.099-0.35-0.149c-0.251-0.107-0.502-0.213-0.76-0.302c-0.137-0.047-0.276-0.082-0.414-0.124
			c-0.242-0.073-0.483-0.148-0.73-0.204c-0.192-0.044-0.388-0.07-0.582-0.103c-0.199-0.034-0.395-0.076-0.596-0.099
			c-0.238-0.027-0.479-0.033-0.719-0.044V10h0.5c0.276,0,0.5-0.224,0.5-0.5S18.776,9,18.5,9h-2C16.224,9,16,9.224,16,9.5
			s0.224,0.5,0.5,0.5H17v1.524c-0.208,0.01-0.417,0.018-0.624,0.04c-0.129,0.013-0.256,0.036-0.384,0.055
			c-0.241,0.034-0.481,0.073-0.72,0.123c-0.145,0.031-0.287,0.066-0.43,0.103c-0.223,0.057-0.443,0.12-0.662,0.19
			c-0.136,0.044-0.271,0.088-0.405,0.137c-0.237,0.086-0.471,0.184-0.703,0.287c-0.104,0.046-0.21,0.089-0.313,0.139
			c-0.32,0.153-0.635,0.321-0.944,0.505c-0.009,0.006-0.019,0.01-0.028,0.016c-0.623,0.372-1.222,0.803-1.787,1.297V9
			c0-4.411,3.589-8,8-8s8,3.589,8,8V15.385z M27.5,26.5c-0.276,0-0.5-0.224-0.5-0.5c0-1.767-0.324-3.463-0.963-5.041
			c-0.104-0.256,0.02-0.548,0.275-0.651c0.254-0.104,0.548,0.019,0.651,0.275C27.651,22.281,28,24.103,28,26
			C28,26.276,27.776,26.5,27.5,26.5z"/>
	</g>
</g>
</svg>
