<?xml version="1.0" encoding="iso-8859-1"?>
<!-- Generator: Adobe Illustrator 19.2.1, SVG Export Plug-In . SVG Version: 6.00 Build 0)  -->
<svg version="1.1" xmlns="http://www.w3.org/2000/svg" xmlns:xlink="http://www.w3.org/1999/xlink" x="0px" y="0px"
	 viewBox="0 0 24 24" style="enable-background:new 0 0 24 24;" xml:space="preserve">
<g id="Sun_Light">
</g>
<g id="Sunglasses">
</g>
<g id="T-Shirt_1">
</g>
<g id="T-Shirt_2">
</g>
<g id="Mini_Dress">
</g>
<g id="Flip-Flops">
</g>
<g id="Temperature">
</g>
<g id="Hot_Temperature">
</g>
<g id="Ice_Lolly">
</g>
<g id="Icecream">
</g>
<g id="Limonade_1">
</g>
<g id="Limonade_2">
</g>
<g id="Hat">
</g>
<g id="Straw_Hat">
</g>
<g id="Deckchair">
</g>
<g id="Sunshade">
</g>
<g id="Suncream">
</g>
<g id="Suntan_Oil">
</g>
<g id="Swimming_Trunks">
</g>
<g id="Bikini">
</g>
<g id="Pool">
</g>
<g id="Pool_Ladder">
</g>
<g id="Grill">
</g>
<g id="Kite_1">
</g>
<g id="Kite_2">
</g>
<g id="Badminton">
</g>
<g id="Cooler">
	<g>
		<circle cx="12" cy="11.997" r="3"/>
		<path d="M8,11.997c0-0.579,0.129-1.126,0.352-1.623C5.993,9.357,5.153,8.218,4.518,7.351c-0.526-0.719-0.981-1.34-2.024-1.34
			c-0.573,0-1.371,0.227-1.92,1.308c-1.027,2.023-0.573,5.998,0.516,7.487c0.502,0.687,1.235,1.081,2.179,1.172
			c0.137,0.013,0.276,0.02,0.418,0.02c1.648,0,3.575-0.859,4.99-1.778C8.25,13.583,8,12.819,8,11.997z"/>
		<path d="M12,7.997c0.584,0,1.135,0.133,1.636,0.359c1.017-2.359,2.156-3.199,3.024-3.834C17.379,3.995,18,3.541,18,2.497
			c0-0.573-0.227-1.371-1.308-1.92c-2.026-1.028-5.998-0.573-7.487,0.516c-0.686,0.501-1.08,1.233-1.171,2.176
			C7.867,4.994,8.789,7.135,9.783,8.671C10.419,8.247,11.18,7.997,12,7.997z"/>
		<path d="M22.909,9.202c-0.501-0.687-1.234-1.081-2.178-1.171c-1.712-0.162-3.862,0.759-5.403,1.754
			C15.751,10.419,16,11.179,16,11.997c0,0.583-0.132,1.134-0.357,1.634c2.362,1.017,3.204,2.158,3.839,3.026
			c0.527,0.719,0.981,1.34,2.024,1.34c0.573,0,1.372-0.227,1.921-1.309C24.453,14.665,23.999,10.691,22.909,9.202z"/>
		<path d="M12,15.997c-0.583,0-1.134-0.132-1.634-0.357c-1.017,2.362-2.158,3.204-3.026,3.839C6.621,20.006,6,20.46,6,21.503
			c0,0.573,0.227,1.371,1.308,1.92c0.79,0.401,1.875,0.576,2.995,0.576c1.75,0,3.583-0.428,4.492-1.093
			c0.687-0.501,1.081-1.234,1.171-2.178c0.166-1.727-0.756-3.869-1.752-5.404C13.58,15.748,12.819,15.997,12,15.997z"/>
	</g>
</g>
<g id="Strand_Bag">
</g>
<g id="Towel">
</g>
<g id="Strand_Ball">
</g>
<g id="Beach_Sign">
</g>
<g id="Toos">
</g>
<g id="Bucket">
</g>
<g id="Sand_Castle">
</g>
<g id="Shell_1">
</g>
<g id="Shell_2">
</g>
<g id="Surf_Board">
</g>
<g id="Float">
</g>
<g id="Vacation_Photo">
</g>
<g id="Summer_Time">
</g>
<g id="Boat">
</g>
<g id="Lifebuoy">
</g>
<g id="Lighthouse">
</g>
<g id="Sunset">
</g>
<g id="Dolphin">
</g>
<g id="Starfish">
</g>
<g id="Diving_Mask">
</g>
<g id="Sailboat">
</g>
<g id="Captin_Hat">
</g>
<g id="Eudder">
</g>
</svg>
