<?xml version="1.0" encoding="iso-8859-1"?>
<!-- Generator: Adobe Illustrator 19.2.1, SVG Export Plug-In . SVG Version: 6.00 Build 0)  -->
<svg version="1.1" xmlns="http://www.w3.org/2000/svg" xmlns:xlink="http://www.w3.org/1999/xlink" x="0px" y="0px"
	 viewBox="0 0 24 24" style="enable-background:new 0 0 24 24;" xml:space="preserve">
<g id="Sun_Light">
</g>
<g id="Sunglasses">
</g>
<g id="T-Shirt_1">
</g>
<g id="T-Shirt_2">
</g>
<g id="Mini_Dress">
</g>
<g id="Flip-Flops">
</g>
<g id="Temperature">
</g>
<g id="Hot_Temperature">
</g>
<g id="Ice_Lolly">
</g>
<g id="Icecream">
</g>
<g id="Limonade_1">
</g>
<g id="Limonade_2">
</g>
<g id="Hat">
</g>
<g id="Straw_Hat">
</g>
<g id="Deckchair">
	<path d="M23.931,4.134c-0.126-0.38-0.394-0.688-0.752-0.867l-4.211-2.105c-0.358-0.178-0.763-0.208-1.146-0.082
		c-0.38,0.127-0.688,0.394-0.862,0.744l-3.83,7.287L4.288,13.04c-0.066,0.029-0.125,0.072-0.172,0.127l-3.795,4.308
		c-0.285,0.355-0.392,0.814-0.294,1.259c0.098,0.445,0.387,0.816,0.794,1.02l4.17,2.086c0.213,0.106,0.442,0.157,0.669,0.157
		c0.443,0,0.877-0.193,1.158-0.546l2.272-2.595l2.177,1.089c0.071,0.035,0.147,0.053,0.224,0.053c0.118,0,0.235-0.042,0.328-0.122
		c0.153-0.133,0.21-0.344,0.146-0.536l-0.856-2.569l5.723-2.543l3.436,1.718c0.071,0.035,0.147,0.053,0.224,0.053
		c0.118,0,0.234-0.042,0.327-0.122c0.153-0.133,0.211-0.344,0.147-0.536l-0.933-2.798l3.812-7.252
		c0.002-0.003,0.003-0.006,0.005-0.009C24.028,4.921,24.058,4.515,23.931,4.134z M9.772,18.078l0.521-0.595l0.342,1.027
		L9.772,18.078z M18.016,13.7l1.175-0.522l0.444,1.332L18.016,13.7z"/>
</g>
<g id="Sunshade">
</g>
<g id="Suncream">
</g>
<g id="Suntan_Oil">
</g>
<g id="Swimming_Trunks">
</g>
<g id="Bikini">
</g>
<g id="Pool">
</g>
<g id="Pool_Ladder">
</g>
<g id="Grill">
</g>
<g id="Kite_1">
</g>
<g id="Kite_2">
</g>
<g id="Badminton">
</g>
<g id="Cooler">
</g>
<g id="Strand_Bag">
</g>
<g id="Towel">
</g>
<g id="Strand_Ball">
</g>
<g id="Beach_Sign">
</g>
<g id="Toos">
</g>
<g id="Bucket">
</g>
<g id="Sand_Castle">
</g>
<g id="Shell_1">
</g>
<g id="Shell_2">
</g>
<g id="Surf_Board">
</g>
<g id="Float">
</g>
<g id="Vacation_Photo">
</g>
<g id="Summer_Time">
</g>
<g id="Boat">
</g>
<g id="Lifebuoy">
</g>
<g id="Lighthouse">
</g>
<g id="Sunset">
</g>
<g id="Dolphin">
</g>
<g id="Starfish">
</g>
<g id="Diving_Mask">
</g>
<g id="Sailboat">
</g>
<g id="Captin_Hat">
</g>
<g id="Eudder">
</g>
</svg>
