<?xml version="1.0" encoding="iso-8859-1"?>
<!-- Generator: Adobe Illustrator 19.2.1, SVG Export Plug-In . SVG Version: 6.00 Build 0)  -->
<svg version="1.1" xmlns="http://www.w3.org/2000/svg" xmlns:xlink="http://www.w3.org/1999/xlink" x="0px" y="0px"
	 viewBox="0 0 24 24" style="enable-background:new 0 0 24 24;" xml:space="preserve">
<g id="Sun_Light">
</g>
<g id="Sunglasses">
</g>
<g id="T-Shirt_1">
</g>
<g id="T-Shirt_2">
</g>
<g id="Mini_Dress">
</g>
<g id="Flip-Flops">
</g>
<g id="Temperature">
</g>
<g id="Hot_Temperature">
</g>
<g id="Ice_Lolly">
</g>
<g id="Icecream">
</g>
<g id="Limonade_1">
</g>
<g id="Limonade_2">
</g>
<g id="Hat">
</g>
<g id="Straw_Hat">
</g>
<g id="Deckchair">
</g>
<g id="Sunshade">
</g>
<g id="Suncream">
</g>
<g id="Suntan_Oil">
</g>
<g id="Swimming_Trunks">
</g>
<g id="Bikini">
</g>
<g id="Pool">
</g>
<g id="Pool_Ladder">
</g>
<g id="Grill">
</g>
<g id="Kite_1">
</g>
<g id="Kite_2">
</g>
<g id="Badminton">
</g>
<g id="Cooler">
</g>
<g id="Strand_Bag">
</g>
<g id="Towel">
</g>
<g id="Strand_Ball">
</g>
<g id="Beach_Sign">
</g>
<g id="Toos">
</g>
<g id="Bucket">
</g>
<g id="Sand_Castle">
</g>
<g id="Shell_1">
</g>
<g id="Shell_2">
</g>
<g id="Surf_Board">
</g>
<g id="Float">
</g>
<g id="Vacation_Photo">
</g>
<g id="Summer_Time">
</g>
<g id="Boat">
</g>
<g id="Lifebuoy">
</g>
<g id="Lighthouse">
</g>
<g id="Sunset">
</g>
<g id="Dolphin">
</g>
<g id="Starfish">
</g>
<g id="Diving_Mask">
	<path d="M22,12.436c1.224-1.099,2-2.689,2-4.46c0-3.309-2.691-6-6-6H6c-3.309,0-6,2.691-6,6c0,1.796,0.797,3.405,2.05,4.506
		l-0.501,2.505c-0.147,0.737,0.042,1.493,0.518,2.075C2.544,17.643,3.249,17.977,4,17.977h0.419
		c0.092,0.274,0.195,0.547,0.312,0.814c0.748,1.711,1.976,3.234,3.054,3.234c0.081,0,0.159-0.032,0.238-0.05l0,0
		c0.001,0,0.002-0.001,0.003-0.001c0.066-0.015,0.133-0.013,0.197-0.041c0.005-0.002,0.007-0.006,0.012-0.008
		c0.004-0.002,0.009-0.001,0.014-0.003l2.002-1.016c0.144-0.063,0.265-0.153,0.367-0.265c0.343,0.159,0.839,0.335,1.382,0.335
		c0.581,0,1.082-0.172,1.426-0.331c0.097,0.104,0.208,0.191,0.343,0.249l2.027,1.027c0.072,0.036,0.149,0.054,0.226,0.054
		c0.013,0,0.024-0.009,0.037-0.01c0.053,0.008,0.103,0.033,0.156,0.033c1.079,0,2.306-1.523,3.054-3.234
		c0.113-0.259,0.214-0.523,0.304-0.787h0.488c0.752,0,1.457-0.334,1.934-0.916c0.477-0.581,0.665-1.338,0.518-2.075L22,12.436z
		 M2,7.976c0-2.206,1.794-4,4-4h1.5c0.276,0,0.5,0.224,0.5,0.5s-0.224,0.5-0.5,0.5H6c-1.654,0-3,1.346-3,3
		c0,0.276-0.224,0.5-0.5,0.5S2,8.252,2,7.976z M4.672,14.181c-0.686,0.423-0.788,1.533-0.523,2.795H4c-0.451,0-0.874-0.2-1.16-0.549
		c-0.286-0.35-0.399-0.804-0.311-1.246l0.411-2.053c0.666,0.397,1.414,0.668,2.214,0.781l-0.386,0.196
		C4.73,14.125,4.703,14.155,4.672,14.181z M7.825,21.015L7.82,21.018c-0.256,0.103-1.321-0.681-2.173-2.627
		c-0.854-1.951-0.703-3.271-0.453-3.381C5.209,15.003,5.228,15,5.249,15c0.325,0,1.32,0.804,2.122,2.637
		C8.221,19.581,8.073,20.898,7.825,21.015z M11.568,9.222c0.13-0.224,0.345-0.248,0.432-0.248s0.301,0.024,0.432,0.249l1.122,1.915
		c-0.421-0.096-0.924-0.162-1.554-0.162c-0.63,0-1.132,0.066-1.553,0.161L11.568,9.222z M13.731,16.209
		c-0.536,1.224-0.833,2.563-0.697,3.513c-0.241,0.116-0.605,0.254-1.034,0.254c-0.384,0-0.751-0.139-0.995-0.256
		c0.141-0.953-0.156-2.289-0.692-3.511c-0.446-1.02-1.064-1.963-1.722-2.564c0.188-0.108,0.362-0.239,0.518-0.392
		c0.154-0.152,0.29-0.325,0.401-0.517l0-0.001l0.058-0.099c0.126-0.154,0.669-0.66,2.431-0.66c1.747,0,2.302,0.509,2.427,0.653
		l0.063,0.107c0.228,0.391,0.557,0.703,0.94,0.918C14.783,14.258,14.174,15.197,13.731,16.209z M18.353,18.363
		c-0.854,1.955-1.941,2.738-2.175,2.627c-0.25-0.109-0.401-1.43,0.452-3.381c0.803-1.833,1.797-2.637,2.121-2.637
		c0.015,0,0.026,0.004,0.038,0.007l0.025,0.013C19.059,15.13,19.195,16.437,18.353,18.363z M21.221,16.427
		c-0.286,0.35-0.709,0.55-1.16,0.55h-0.216c0.257-1.204,0.182-2.271-0.411-2.746c-0.042-0.05-0.095-0.094-0.158-0.125l-0.054-0.027
		c-0.006-0.003-0.01-0.009-0.016-0.012c-0.004-0.002-0.008-0.001-0.012-0.002l-0.315-0.159c0.808-0.12,1.563-0.399,2.233-0.808
		l0.419,2.086C21.62,15.624,21.507,16.078,21.221,16.427z"/>
</g>
<g id="Sailboat">
</g>
<g id="Captin_Hat">
</g>
<g id="Eudder">
</g>
</svg>
