<?xml version="1.0" encoding="iso-8859-1"?>
<!-- Generator: Adobe Illustrator 19.2.1, SVG Export Plug-In . SVG Version: 6.00 Build 0)  -->
<svg version="1.1" xmlns="http://www.w3.org/2000/svg" xmlns:xlink="http://www.w3.org/1999/xlink" x="0px" y="0px"
	 viewBox="0 0 24 24" style="enable-background:new 0 0 24 24;" xml:space="preserve">
<g id="Sun_Light">
</g>
<g id="Sunglasses">
</g>
<g id="T-Shirt_1">
</g>
<g id="T-Shirt_2">
</g>
<g id="Mini_Dress">
</g>
<g id="Flip-Flops">
	<g>
		<path d="M6.536,6.006c-0.593,0.15-4.233,1.207-5.259,4.542C3.421,7.652,6.334,7.505,6.483,7.5c0.13-0.013,2.505-0.003,3.924,3.155
			c0.012-0.064,0.024-0.129,0.037-0.193C9.731,6.567,6.99,6.062,6.536,6.006z"/>
		<path d="M6.507,8.5C6.506,8.5,6.506,8.5,6.507,8.5c-0.131,0.005-3.23,0.186-5.09,3.711C1.694,14.431,2,16.94,2,20
			c0,2.168,1.832,4,4,4c2.206,0,4-1.794,4-4v-5.5c0-0.607,0.034-1.13,0.079-1.625C9.121,8.564,6.624,8.5,6.507,8.5z"/>
		<path d="M6.5,0C4.024,0,1,3.461,1,7.5c0,0.386,0.017,0.783,0.043,1.188C2.492,6.402,5.036,5.422,6,5.123V3.5
			C6,3.224,6.224,3,6.5,3S7,3.224,7,3.5v1.579c0.872,0.197,2.747,0.884,3.82,3.212C10.926,7.495,11,6.6,11,5.5
			C11,2.57,8.897,0,6.5,0z"/>
		<path d="M17.464,6.006c-0.454,0.056-3.195,0.561-3.907,4.456c0.013,0.064,0.024,0.129,0.037,0.193
			c1.418-3.158,3.794-3.168,3.924-3.155c0.149,0.005,3.062,0.151,5.206,3.048C21.697,7.213,18.058,6.156,17.464,6.006z"/>
		<path d="M17.494,8.5C17.494,8.5,17.494,8.5,17.494,8.5c-0.118,0-2.615,0.064-3.573,4.375C13.966,13.37,14,13.893,14,14.5V20
			c0,2.206,1.794,4,4,4c2.168,0,4-1.832,4-4c0-3.06,0.306-5.569,0.584-7.789C20.723,8.686,17.624,8.505,17.494,8.5z"/>
		<path d="M17.5,0C15.103,0,13,2.57,13,5.5c0,1.1,0.074,1.995,0.18,2.791c1.073-2.328,2.948-3.014,3.82-3.212V3.5
			C17,3.224,17.224,3,17.5,3S18,3.224,18,3.5v1.623c0.964,0.299,3.508,1.278,4.957,3.565C22.983,8.283,23,7.886,23,7.5
			C23,3.461,19.976,0,17.5,0z"/>
	</g>
</g>
<g id="Temperature">
</g>
<g id="Hot_Temperature">
</g>
<g id="Ice_Lolly">
</g>
<g id="Icecream">
</g>
<g id="Limonade_1">
</g>
<g id="Limonade_2">
</g>
<g id="Hat">
</g>
<g id="Straw_Hat">
</g>
<g id="Deckchair">
</g>
<g id="Sunshade">
</g>
<g id="Suncream">
</g>
<g id="Suntan_Oil">
</g>
<g id="Swimming_Trunks">
</g>
<g id="Bikini">
</g>
<g id="Pool">
</g>
<g id="Pool_Ladder">
</g>
<g id="Grill">
</g>
<g id="Kite_1">
</g>
<g id="Kite_2">
</g>
<g id="Badminton">
</g>
<g id="Cooler">
</g>
<g id="Strand_Bag">
</g>
<g id="Towel">
</g>
<g id="Strand_Ball">
</g>
<g id="Beach_Sign">
</g>
<g id="Toos">
</g>
<g id="Bucket">
</g>
<g id="Sand_Castle">
</g>
<g id="Shell_1">
</g>
<g id="Shell_2">
</g>
<g id="Surf_Board">
</g>
<g id="Float">
</g>
<g id="Vacation_Photo">
</g>
<g id="Summer_Time">
</g>
<g id="Boat">
</g>
<g id="Lifebuoy">
</g>
<g id="Lighthouse">
</g>
<g id="Sunset">
</g>
<g id="Dolphin">
</g>
<g id="Starfish">
</g>
<g id="Diving_Mask">
</g>
<g id="Sailboat">
</g>
<g id="Captin_Hat">
</g>
<g id="Eudder">
</g>
</svg>
