<?xml version="1.0" encoding="iso-8859-1"?>
<!-- Generator: Adobe Illustrator 19.2.1, SVG Export Plug-In . SVG Version: 6.00 Build 0)  -->
<svg version="1.1" xmlns="http://www.w3.org/2000/svg" xmlns:xlink="http://www.w3.org/1999/xlink" x="0px" y="0px"
	 viewBox="0 0 24 24" style="enable-background:new 0 0 24 24;" xml:space="preserve">
<g id="Sun_Light">
</g>
<g id="Sunglasses">
</g>
<g id="T-Shirt_1">
</g>
<g id="T-Shirt_2">
</g>
<g id="Mini_Dress">
</g>
<g id="Flip-Flops">
</g>
<g id="Temperature">
</g>
<g id="Hot_Temperature">
</g>
<g id="Ice_Lolly">
</g>
<g id="Icecream">
</g>
<g id="Limonade_1">
</g>
<g id="Limonade_2">
</g>
<g id="Hat">
</g>
<g id="Straw_Hat">
</g>
<g id="Deckchair">
</g>
<g id="Sunshade">
</g>
<g id="Suncream">
</g>
<g id="Suntan_Oil">
</g>
<g id="Swimming_Trunks">
</g>
<g id="Bikini">
</g>
<g id="Pool">
</g>
<g id="Pool_Ladder">
</g>
<g id="Grill">
</g>
<g id="Kite_1">
</g>
<g id="Kite_2">
	<g>
		<path d="M21.34,1.953c-0.671-0.145-2.636-0.545-5.63-0.95L19,4.293L21.34,1.953z"/>
		<path d="M22.995,8.288c-0.404-2.989-0.803-4.956-0.948-5.627L19.707,5L22.995,8.288z"/>
		<path d="M18.293,5l-4.202-4.202c-1.925-0.229-4.173-0.442-6.677-0.591l7.835,7.835L18.293,5z"/>
		<path d="M15.957,8.75l7.835,7.835c-0.149-2.502-0.362-4.751-0.592-6.678l-4.2-4.2L15.957,8.75z"/>
		<path d="M23.869,18.076L15.25,9.457L10.807,13.9c0.39-0.221,3.174-1.702,5.454-0.461c0.122,0.066,0.24,0.155,0.36,0.233
			l-6.634,6.634C9.672,20.116,9.308,20,8.914,20c-0.4,0-0.777,0.156-1.061,0.439l-0.707,0.707c-0.195,0.195-0.195,0.512,0,0.707l2,2
			C9.244,23.951,9.372,24,9.5,24s0.256-0.049,0.354-0.146l0.707-0.707C10.84,22.867,11,22.48,11,22.086
			c0-0.394-0.116-0.758-0.306-1.072l6.729-6.73c3.223,2.843,5.58,9.312,5.606,9.385C23.102,23.87,23.292,24,23.5,24
			c0.028,0,0.057-0.002,0.086-0.008C23.825,23.951,24,23.743,24,23.5C24,21.593,23.949,19.788,23.869,18.076z M9.854,22.439
			L9.5,22.793L8.207,21.5l0.354-0.354C8.654,21.054,8.783,21,8.914,21c0.299,0,0.569,0.122,0.766,0.317
			c0.001,0.001,0.001,0.001,0.001,0.001c0.001,0.001,0.002,0.001,0.002,0.002C9.879,21.517,10,21.787,10,22.086
			C10,22.218,9.947,22.347,9.854,22.439z"/>
		<path d="M10.328,7.379c0.078,0.12,0.167,0.238,0.233,0.36c1.237,2.273-0.244,5.068-0.462,5.456l4.444-4.444L5.924,0.131
			C4.213,0.051,2.408,0,0.5,0C0.257,0,0.049,0.175,0.007,0.415c-0.042,0.239,0.095,0.474,0.324,0.556
			c0.073,0.026,6.543,2.382,9.386,5.606l-6.73,6.73C2.673,13.116,2.308,13,1.914,13c-0.4,0-0.777,0.156-1.061,0.439l-0.707,0.707
			c-0.195,0.195-0.195,0.512,0,0.707l2,2C2.244,16.951,2.372,17,2.5,17s0.256-0.049,0.354-0.146l0.707-0.707
			C3.84,15.867,4,15.48,4,15.086c0-0.394-0.116-0.758-0.306-1.072L10.328,7.379z M2.854,15.439L2.5,15.793L1.207,14.5l0.354-0.354
			C1.654,14.054,1.783,14,1.914,14c0.299,0,0.569,0.122,0.766,0.317c0.001,0.001,0.001,0.001,0.001,0.001
			c0.001,0.001,0.002,0.001,0.002,0.002C2.879,14.517,3,14.787,3,15.086C3,15.218,2.947,15.347,2.854,15.439z"/>
	</g>
</g>
<g id="Badminton">
</g>
<g id="Cooler">
</g>
<g id="Strand_Bag">
</g>
<g id="Towel">
</g>
<g id="Strand_Ball">
</g>
<g id="Beach_Sign">
</g>
<g id="Toos">
</g>
<g id="Bucket">
</g>
<g id="Sand_Castle">
</g>
<g id="Shell_1">
</g>
<g id="Shell_2">
</g>
<g id="Surf_Board">
</g>
<g id="Float">
</g>
<g id="Vacation_Photo">
</g>
<g id="Summer_Time">
</g>
<g id="Boat">
</g>
<g id="Lifebuoy">
</g>
<g id="Lighthouse">
</g>
<g id="Sunset">
</g>
<g id="Dolphin">
</g>
<g id="Starfish">
</g>
<g id="Diving_Mask">
</g>
<g id="Sailboat">
</g>
<g id="Captin_Hat">
</g>
<g id="Eudder">
</g>
</svg>
