<?xml version="1.0" encoding="iso-8859-1"?>
<!-- Generator: Adobe Illustrator 19.2.1, SVG Export Plug-In . SVG Version: 6.00 Build 0)  -->
<svg version="1.1" xmlns="http://www.w3.org/2000/svg" xmlns:xlink="http://www.w3.org/1999/xlink" x="0px" y="0px"
	 viewBox="0 0 24 24" style="enable-background:new 0 0 24 24;" xml:space="preserve">
<g id="Sun_Light">
</g>
<g id="Sunglasses">
</g>
<g id="T-Shirt_1">
</g>
<g id="T-Shirt_2">
</g>
<g id="Mini_Dress">
</g>
<g id="Flip-Flops">
</g>
<g id="Temperature">
</g>
<g id="Hot_Temperature">
</g>
<g id="Ice_Lolly">
</g>
<g id="Icecream">
</g>
<g id="Limonade_1">
</g>
<g id="Limonade_2">
</g>
<g id="Hat">
</g>
<g id="Straw_Hat">
</g>
<g id="Deckchair">
</g>
<g id="Sunshade">
</g>
<g id="Suncream">
</g>
<g id="Suntan_Oil">
</g>
<g id="Swimming_Trunks">
</g>
<g id="Bikini">
</g>
<g id="Pool">
</g>
<g id="Pool_Ladder">
</g>
<g id="Grill">
</g>
<g id="Kite_1">
</g>
<g id="Kite_2">
</g>
<g id="Badminton">
</g>
<g id="Cooler">
</g>
<g id="Strand_Bag">
</g>
<g id="Towel">
</g>
<g id="Strand_Ball">
</g>
<g id="Beach_Sign">
</g>
<g id="Toos">
</g>
<g id="Bucket">
</g>
<g id="Sand_Castle">
</g>
<g id="Shell_1">
</g>
<g id="Shell_2">
</g>
<g id="Surf_Board">
</g>
<g id="Float">
</g>
<g id="Vacation_Photo">
</g>
<g id="Summer_Time">
</g>
<g id="Boat">
</g>
<g id="Lifebuoy">
	<path d="M23.681,14.705c0.013-0.028,0.016-0.06,0.023-0.09C23.893,13.772,24,12.899,24,12c0-0.899-0.107-1.772-0.296-2.615
		c-0.007-0.031-0.011-0.063-0.023-0.091C23.515,8.576,23.289,7.881,23,7.218V5.5C23,3.019,20.981,1,18.5,1h-1.718
		c-0.663-0.289-1.358-0.515-2.076-0.681c-0.028-0.013-0.06-0.016-0.091-0.024C13.771,0.107,12.899,0,12,0
		c-0.898,0-1.771,0.107-2.614,0.295C9.355,0.303,9.323,0.306,9.294,0.319C8.576,0.485,7.881,0.711,7.219,1H5.5
		C3.019,1,1,3.019,1,5.5v1.719C0.711,7.881,0.485,8.576,0.319,9.294C0.306,9.323,0.303,9.355,0.295,9.386
		C0.107,10.229,0,11.102,0,12c0,0.899,0.107,1.771,0.295,2.614c0.007,0.031,0.011,0.063,0.024,0.091
		C0.485,15.424,0.711,16.119,1,16.782V18.5C1,20.981,3.019,23,5.5,23h1.718c0.658,0.287,1.347,0.511,2.06,0.677
		c0.068,0.034,0.141,0.058,0.222,0.058l0.001,0C10.308,23.906,11.143,24,12,24c0.899,0,1.772-0.107,2.615-0.296
		c0.03-0.007,0.062-0.01,0.09-0.023c0.718-0.166,1.414-0.392,2.076-0.681H18.5c2.481,0,4.5-2.019,4.5-4.5v-1.718
		C23.289,16.119,23.515,15.424,23.681,14.705z M6.35,10C6.128,10.627,6,11.298,6,12s0.128,1.373,0.35,2H1.191
		C1.071,13.35,1,12.684,1,12s0.071-1.35,0.191-2H6.35z M7,12c0-2.757,2.243-5,5-5s5,2.243,5,5s-2.243,5-5,5S7,14.757,7,12z M23,12
		c0,0.684-0.071,1.35-0.191,2H17.65c0.223-0.627,0.35-1.298,0.35-2s-0.128-1.373-0.35-2h5.159C22.929,10.65,23,11.316,23,12z
		 M21.986,5.357c-0.883-1.323-2.02-2.46-3.343-3.343C20.457,2.089,21.911,3.543,21.986,5.357z M14,1.191V6.35
		C13.373,6.128,12.702,6,12,6s-1.373,0.128-2,0.35V1.191C10.65,1.071,11.316,1,12,1S13.35,1.071,14,1.191z M5.358,2.014
		c-1.323,0.883-2.46,2.02-3.343,3.343C2.089,3.544,3.544,2.089,5.358,2.014z M2.014,18.643c0.883,1.323,2.02,2.46,3.343,3.343
		C3.543,21.911,2.089,20.457,2.014,18.643z M10,22.809V17.65c0.627,0.223,1.298,0.35,2,0.35s1.373-0.128,2-0.35v5.159
		C13.35,22.929,12.684,23,12,23S10.65,22.929,10,22.809z M18.643,21.986c1.323-0.883,2.46-2.02,3.343-3.343
		C21.911,20.457,20.457,21.911,18.643,21.986z"/>
</g>
<g id="Lighthouse">
</g>
<g id="Sunset">
</g>
<g id="Dolphin">
</g>
<g id="Starfish">
</g>
<g id="Diving_Mask">
</g>
<g id="Sailboat">
</g>
<g id="Captin_Hat">
</g>
<g id="Eudder">
</g>
</svg>
