<?xml version="1.0" encoding="iso-8859-1"?>
<!-- Generator: Adobe Illustrator 19.2.1, SVG Export Plug-In . SVG Version: 6.00 Build 0)  -->
<svg version="1.1" xmlns="http://www.w3.org/2000/svg" xmlns:xlink="http://www.w3.org/1999/xlink" x="0px" y="0px"
	 viewBox="0 0 24 24" style="enable-background:new 0 0 24 24;" xml:space="preserve">
<g id="Sun_Light">
</g>
<g id="Sunglasses">
</g>
<g id="T-Shirt_1">
</g>
<g id="T-Shirt_2">
</g>
<g id="Mini_Dress">
</g>
<g id="Flip-Flops">
</g>
<g id="Temperature">
</g>
<g id="Hot_Temperature">
</g>
<g id="Ice_Lolly">
</g>
<g id="Icecream">
</g>
<g id="Limonade_1">
</g>
<g id="Limonade_2">
</g>
<g id="Hat">
</g>
<g id="Straw_Hat">
</g>
<g id="Deckchair">
</g>
<g id="Sunshade">
</g>
<g id="Suncream">
</g>
<g id="Suntan_Oil">
</g>
<g id="Swimming_Trunks">
</g>
<g id="Bikini">
</g>
<g id="Pool">
</g>
<g id="Pool_Ladder">
</g>
<g id="Grill">
</g>
<g id="Kite_1">
</g>
<g id="Kite_2">
</g>
<g id="Badminton">
</g>
<g id="Cooler">
</g>
<g id="Strand_Bag">
</g>
<g id="Towel">
</g>
<g id="Strand_Ball">
</g>
<g id="Beach_Sign">
</g>
<g id="Toos">
</g>
<g id="Bucket">
</g>
<g id="Sand_Castle">
</g>
<g id="Shell_1">
</g>
<g id="Shell_2">
</g>
<g id="Surf_Board">
</g>
<g id="Float">
</g>
<g id="Vacation_Photo">
</g>
<g id="Summer_Time">
</g>
<g id="Boat">
</g>
<g id="Lifebuoy">
</g>
<g id="Lighthouse">
	<g>
		<polygon points="15.368,14 7.632,14 7.365,18 15.635,18 		"/>
		<path d="M15.701,19H7.299l-0.298,4.467c-0.009,0.138,0.04,0.273,0.134,0.375C7.229,23.942,7.362,24,7.5,24h8
			c0.139,0,0.271-0.058,0.365-0.158c0.095-0.102,0.143-0.237,0.134-0.375L15.701,19z"/>
		<path d="M15,8.481V6.5C15,6.224,14.776,6,14.5,6H14V4h0.5c0.221,0,0.415-0.144,0.479-0.355s-0.018-0.439-0.201-0.561l-2.414-1.609
			C12.443,1.331,12.5,1.175,12.5,1c0-0.551-0.449-1-1-1s-1,0.449-1,1c0,0.175,0.057,0.331,0.137,0.475L8.223,3.084
			C8.04,3.206,7.958,3.434,8.021,3.645S8.28,4,8.5,4H9v2H8.5C8.224,6,8,6.224,8,6.5v1.981L7.699,13h7.602L15,8.481z M12,1h-0.499
			c0,0,0,0,0,0l0-0.001L12,1z M10,8H9V7h0.5H10V8z M10,4h3v2h-3V4z M12,8h-1V7h1V8z M14,8h-1V7h0.5H14V8z"/>
	</g>
</g>
<g id="Sunset">
</g>
<g id="Dolphin">
</g>
<g id="Starfish">
</g>
<g id="Diving_Mask">
</g>
<g id="Sailboat">
</g>
<g id="Captin_Hat">
</g>
<g id="Eudder">
</g>
</svg>
