<?xml version="1.0" encoding="iso-8859-1"?>
<!-- Generator: Adobe Illustrator 19.2.1, SVG Export Plug-In . SVG Version: 6.00 Build 0)  -->
<svg version="1.1" xmlns="http://www.w3.org/2000/svg" xmlns:xlink="http://www.w3.org/1999/xlink" x="0px" y="0px"
	 viewBox="0 0 24 24" style="enable-background:new 0 0 24 24;" xml:space="preserve">
<g id="Sun_Light">
</g>
<g id="Sunglasses">
</g>
<g id="T-Shirt_1">
</g>
<g id="T-Shirt_2">
</g>
<g id="Mini_Dress">
	<g>
		<path d="M20.938,22.259l-3.778-6.859c-0.073-0.149-0.111-0.268-0.134-0.394C16.646,15.084,14.528,15.5,12,15.5
			c-2.542,0-4.639-0.414-5.025-0.495c-0.022,0.122-0.057,0.235-0.125,0.373l-3.788,6.88c-0.069,0.126-0.081,0.275-0.033,0.41
			c0.049,0.135,0.153,0.243,0.286,0.296C3.422,23.007,5.995,24,12,24c6.006,0,8.578-0.993,8.685-1.035
			c0.133-0.053,0.237-0.161,0.286-0.296S21.007,22.385,20.938,22.259z"/>
		<path d="M6.008,5c0,0.651-0.032,1.279-0.095,1.867C5.829,7.649,5.915,8.471,6.208,9.596c0.518,1.992,0.736,2.829,0.783,3.916
			c0.039-0.001,0.078-0.009,0.117,0C7.13,13.517,9.36,14,12,14c2.624,0,4.871-0.483,4.894-0.488c0.039-0.009,0.077,0,0.116,0
			c0.047-1.088,0.266-1.932,0.799-3.98c0.276-1.061,0.362-1.883,0.278-2.666C18.023,6.276,17.991,5.648,17.991,5
			c0-1.477,0.17-2.871,0.443-3.639c0.043-0.119-0.003-0.34-0.053-0.457c-0.028-0.064-0.058-0.127-0.093-0.186
			C18.02,0.275,17.525,0,17,0h-0.5c-0.201,0-0.382,0.12-0.46,0.305c-1.307,3.081-3.3,4.941-4.04,5.558
			c-0.74-0.617-2.733-2.478-4.04-5.558C7.882,0.12,7.701,0,7.5,0H7C6.475,0,5.981,0.275,5.71,0.719
			C5.675,0.778,5.646,0.842,5.591,0.965C5.529,1.088,5.52,1.23,5.565,1.36C5.838,2.129,6.008,3.524,6.008,5z"/>
	</g>
</g>
<g id="Flip-Flops">
</g>
<g id="Temperature">
</g>
<g id="Hot_Temperature">
</g>
<g id="Ice_Lolly">
</g>
<g id="Icecream">
</g>
<g id="Limonade_1">
</g>
<g id="Limonade_2">
</g>
<g id="Hat">
</g>
<g id="Straw_Hat">
</g>
<g id="Deckchair">
</g>
<g id="Sunshade">
</g>
<g id="Suncream">
</g>
<g id="Suntan_Oil">
</g>
<g id="Swimming_Trunks">
</g>
<g id="Bikini">
</g>
<g id="Pool">
</g>
<g id="Pool_Ladder">
</g>
<g id="Grill">
</g>
<g id="Kite_1">
</g>
<g id="Kite_2">
</g>
<g id="Badminton">
</g>
<g id="Cooler">
</g>
<g id="Strand_Bag">
</g>
<g id="Towel">
</g>
<g id="Strand_Ball">
</g>
<g id="Beach_Sign">
</g>
<g id="Toos">
</g>
<g id="Bucket">
</g>
<g id="Sand_Castle">
</g>
<g id="Shell_1">
</g>
<g id="Shell_2">
</g>
<g id="Surf_Board">
</g>
<g id="Float">
</g>
<g id="Vacation_Photo">
</g>
<g id="Summer_Time">
</g>
<g id="Boat">
</g>
<g id="Lifebuoy">
</g>
<g id="Lighthouse">
</g>
<g id="Sunset">
</g>
<g id="Dolphin">
</g>
<g id="Starfish">
</g>
<g id="Diving_Mask">
</g>
<g id="Sailboat">
</g>
<g id="Captin_Hat">
</g>
<g id="Eudder">
</g>
</svg>
