<?xml version="1.0" encoding="iso-8859-1"?>
<!-- Generator: Adobe Illustrator 19.2.1, SVG Export Plug-In . SVG Version: 6.00 Build 0)  -->
<svg version="1.1" xmlns="http://www.w3.org/2000/svg" xmlns:xlink="http://www.w3.org/1999/xlink" x="0px" y="0px"
	 viewBox="0 0 24 24" style="enable-background:new 0 0 24 24;" xml:space="preserve">
<g id="Sun_Light">
</g>
<g id="Sunglasses">
</g>
<g id="T-Shirt_1">
</g>
<g id="T-Shirt_2">
</g>
<g id="Mini_Dress">
</g>
<g id="Flip-Flops">
</g>
<g id="Temperature">
</g>
<g id="Hot_Temperature">
</g>
<g id="Ice_Lolly">
</g>
<g id="Icecream">
</g>
<g id="Limonade_1">
</g>
<g id="Limonade_2">
</g>
<g id="Hat">
</g>
<g id="Straw_Hat">
</g>
<g id="Deckchair">
</g>
<g id="Sunshade">
</g>
<g id="Suncream">
</g>
<g id="Suntan_Oil">
</g>
<g id="Swimming_Trunks">
</g>
<g id="Bikini">
</g>
<g id="Pool">
</g>
<g id="Pool_Ladder">
</g>
<g id="Grill">
</g>
<g id="Kite_1">
</g>
<g id="Kite_2">
</g>
<g id="Badminton">
</g>
<g id="Cooler">
</g>
<g id="Strand_Bag">
</g>
<g id="Towel">
</g>
<g id="Strand_Ball">
</g>
<g id="Beach_Sign">
</g>
<g id="Toos">
</g>
<g id="Bucket">
</g>
<g id="Sand_Castle">
	<g>
		<path d="M7.5,7h9C17.879,7,19,5.878,19,4.5V2c0-1.103-0.897-2-2-2s-2,0.897-2,2v0.5C15,2.776,14.775,3,14.5,3S14,2.776,14,2.5V2
			c0-1.103-0.897-2-2-2c-1.103,0-2,0.897-2,2v0.5C10,2.776,9.776,3,9.5,3S9,2.776,9,2.5V2c0-1.103-0.897-2-2-2S5,0.897,5,2v2.5
			C5,5.878,6.122,7,7.5,7z"/>
		<path d="M23.412,10.467l-0.664-0.996c-0.557-0.836-1.939-0.836-2.496,0l-0.664,0.996C19.203,11.044,19,11.716,19,12.408v3.223
			C19,15.834,18.834,16,18.631,16c-0.184,0-0.337-0.132-0.365-0.313L17.083,8H6.917l-1.183,7.687C5.707,15.868,5.553,16,5.37,16
			C5.166,16,5,15.834,5,15.631v-3.223c0-0.693-0.203-1.365-0.588-1.941L3.748,9.471c-0.558-0.837-1.938-0.837-2.496,0l-0.664,0.996
			C0.203,11.043,0,11.715,0,12.408V23.5C0,23.776,0.224,24,0.5,24h23c0.276,0,0.5-0.224,0.5-0.5V12.408
			C24,11.716,23.797,11.044,23.412,10.467z M16,20.5c0,0.827-0.673,1.5-1.5,1.5h-5C8.673,22,8,21.327,8,20.5V17c0-2.206,1.794-4,4-4
			c2.206,0,4,1.794,4,4V20.5z"/>
	</g>
</g>
<g id="Shell_1">
</g>
<g id="Shell_2">
</g>
<g id="Surf_Board">
</g>
<g id="Float">
</g>
<g id="Vacation_Photo">
</g>
<g id="Summer_Time">
</g>
<g id="Boat">
</g>
<g id="Lifebuoy">
</g>
<g id="Lighthouse">
</g>
<g id="Sunset">
</g>
<g id="Dolphin">
</g>
<g id="Starfish">
</g>
<g id="Diving_Mask">
</g>
<g id="Sailboat">
</g>
<g id="Captin_Hat">
</g>
<g id="Eudder">
</g>
</svg>
