<?xml version="1.0" encoding="iso-8859-1"?>
<!-- Generator: Adobe Illustrator 19.2.1, SVG Export Plug-In . SVG Version: 6.00 Build 0)  -->
<svg version="1.1" xmlns="http://www.w3.org/2000/svg" xmlns:xlink="http://www.w3.org/1999/xlink" x="0px" y="0px"
	 viewBox="0 0 24 24" style="enable-background:new 0 0 24 24;" xml:space="preserve">
<g id="Sun_Light">
</g>
<g id="Sunglasses">
</g>
<g id="T-Shirt_1">
</g>
<g id="T-Shirt_2">
</g>
<g id="Mini_Dress">
</g>
<g id="Flip-Flops">
</g>
<g id="Temperature">
</g>
<g id="Hot_Temperature">
</g>
<g id="Ice_Lolly">
</g>
<g id="Icecream">
</g>
<g id="Limonade_1">
</g>
<g id="Limonade_2">
</g>
<g id="Hat">
</g>
<g id="Straw_Hat">
</g>
<g id="Deckchair">
</g>
<g id="Sunshade">
</g>
<g id="Suncream">
</g>
<g id="Suntan_Oil">
</g>
<g id="Swimming_Trunks">
</g>
<g id="Bikini">
</g>
<g id="Pool">
</g>
<g id="Pool_Ladder">
</g>
<g id="Grill">
</g>
<g id="Kite_1">
</g>
<g id="Kite_2">
</g>
<g id="Badminton">
</g>
<g id="Cooler">
</g>
<g id="Strand_Bag">
</g>
<g id="Towel">
</g>
<g id="Strand_Ball">
</g>
<g id="Beach_Sign">
</g>
<g id="Toos">
</g>
<g id="Bucket">
</g>
<g id="Sand_Castle">
</g>
<g id="Shell_1">
</g>
<g id="Shell_2">
	<g>
		<path d="M22.996,4.305c0.006-0.343-0.049-1.271-0.741-2.042c-0.747-0.834-2.015-1.257-3.768-1.257
			c-5.605,0-7.049,4.769-7.384,6.435c0.664,0.012,1.358,0.192,2.071,0.38C15.632,8.47,18.687,9.269,22.996,4.305z"/>
		<path d="M5.009,16.914c-0.096-0.116-0.234-0.18-0.382-0.18c-0.014,0-0.027,0-0.042,0.001c-0.164,0.014-0.306,0.102-0.39,0.243
			l-3.134,5.282c-0.145,0.261,0.005,0.482,0.055,0.544s0.232,0.251,0.533,0.166c0.007-0.003,0.014-0.005,0.021-0.006l6.154-1.554
			c0.17-0.043,0.299-0.164,0.353-0.331s0.021-0.34-0.092-0.475L5.009,16.914z"/>
		<path d="M10.474,14.619l-2.108-2.371c-0.001-0.001-0.001-0.001-0.001-0.001l-0.347-0.391c-0.106-0.12-0.257-0.175-0.42-0.166
			c-0.16,0.015-0.3,0.103-0.382,0.241l-1.569,2.614c-0.328,0.547-0.274,1.243,0.134,1.732l3.217,3.859
			c0.398,0.479,1.037,0.659,1.626,0.463l3.266-1.089c0.163-0.054,0.281-0.18,0.325-0.345s0.005-0.333-0.109-0.461L10.474,14.619z"/>
		<path d="M12.919,8.788c-0.773-0.204-1.38-0.353-1.891-0.353c-0.466,0-0.852,0.124-1.209,0.443L9.174,9.526
			c-0.56,0.56-0.587,1.463-0.061,2.056l2.005,2.256l3.725,4.19c0.449,0.507,1.188,0.647,1.792,0.345
			c3.19-1.596,4.684-4.692,5.373-7.01c0.368-1.235,0.673-3.789,0.841-5.419C18.58,10.283,15.334,9.425,12.919,8.788z"/>
	</g>
</g>
<g id="Surf_Board">
</g>
<g id="Float">
</g>
<g id="Vacation_Photo">
</g>
<g id="Summer_Time">
</g>
<g id="Boat">
</g>
<g id="Lifebuoy">
</g>
<g id="Lighthouse">
</g>
<g id="Sunset">
</g>
<g id="Dolphin">
</g>
<g id="Starfish">
</g>
<g id="Diving_Mask">
</g>
<g id="Sailboat">
</g>
<g id="Captin_Hat">
</g>
<g id="Eudder">
</g>
</svg>
