<?xml version="1.0" encoding="iso-8859-1"?>
<!-- Generator: Adobe Illustrator 19.2.1, SVG Export Plug-In . SVG Version: 6.00 Build 0)  -->
<svg version="1.1" xmlns="http://www.w3.org/2000/svg" xmlns:xlink="http://www.w3.org/1999/xlink" x="0px" y="0px"
	 viewBox="0 0 24 24" style="enable-background:new 0 0 24 24;" xml:space="preserve">
<g id="Sun_Light">
</g>
<g id="Sunglasses">
</g>
<g id="T-Shirt_1">
</g>
<g id="T-Shirt_2">
</g>
<g id="Mini_Dress">
</g>
<g id="Flip-Flops">
</g>
<g id="Temperature">
</g>
<g id="Hot_Temperature">
</g>
<g id="Ice_Lolly">
</g>
<g id="Icecream">
</g>
<g id="Limonade_1">
</g>
<g id="Limonade_2">
</g>
<g id="Hat">
</g>
<g id="Straw_Hat">
</g>
<g id="Deckchair">
</g>
<g id="Sunshade">
</g>
<g id="Suncream">
</g>
<g id="Suntan_Oil">
</g>
<g id="Swimming_Trunks">
</g>
<g id="Bikini">
</g>
<g id="Pool">
</g>
<g id="Pool_Ladder">
</g>
<g id="Grill">
</g>
<g id="Kite_1">
</g>
<g id="Kite_2">
</g>
<g id="Badminton">
</g>
<g id="Cooler">
</g>
<g id="Strand_Bag">
</g>
<g id="Towel">
</g>
<g id="Strand_Ball">
</g>
<g id="Beach_Sign">
</g>
<g id="Toos">
</g>
<g id="Bucket">
</g>
<g id="Sand_Castle">
</g>
<g id="Shell_1">
</g>
<g id="Shell_2">
</g>
<g id="Surf_Board">
</g>
<g id="Float">
</g>
<g id="Vacation_Photo">
</g>
<g id="Summer_Time">
	<g>
		<path d="M5.5,5C6.327,5,7,4.327,7,3.5v-2C7,0.673,6.327,0,5.5,0S4,0.673,4,1.5v2C4,4.327,4.673,5,5.5,5z"/>
		<path d="M17.5,5C18.327,5,19,4.327,19,3.5v-2C19,0.673,18.327,0,17.5,0S16,0.673,16,1.5v2C16,4.327,16.673,5,17.5,5z"/>
		<path d="M20.5,2H20v1.5C20,4.878,18.879,6,17.5,6S15,4.878,15,3.5V2H8v1.5C8,4.878,6.878,6,5.5,6S3,4.878,3,3.5V2H2.5
			C1.122,2,0,3.122,0,4.5v17C0,22.879,1.122,24,2.5,24h18c1.379,0,2.5-1.121,2.5-2.5v-17C23,3.122,21.879,2,20.5,2z M22,21.5
			c0,0.827-0.673,1.5-1.5,1.5h-18C1.673,23,1,22.327,1,21.5V8h21V21.5z"/>
		<path d="M11.5,19c1.93,0,3.5-1.57,3.5-3.5S13.43,12,11.5,12S8,13.57,8,15.5S9.57,19,11.5,19z M11.5,13c1.378,0,2.5,1.121,2.5,2.5
			S12.878,18,11.5,18S9,16.879,9,15.5S10.122,13,11.5,13z"/>
		<path d="M11.5,11c0.276,0,0.5-0.224,0.5-0.5v-1C12,9.224,11.776,9,11.5,9S11,9.224,11,9.5v1C11,10.776,11.224,11,11.5,11z"/>
		<path d="M11.5,20c-0.276,0-0.5,0.224-0.5,0.5v1c0,0.276,0.224,0.5,0.5,0.5s0.5-0.224,0.5-0.5v-1C12,20.224,11.776,20,11.5,20z"/>
		<path d="M16,15.5c0,0.276,0.224,0.5,0.5,0.5h1c0.276,0,0.5-0.224,0.5-0.5S17.776,15,17.5,15h-1C16.224,15,16,15.224,16,15.5z"/>
		<path d="M5.5,16h1C6.776,16,7,15.776,7,15.5S6.776,15,6.5,15h-1C5.224,15,5,15.224,5,15.5S5.224,16,5.5,16z"/>
		<path d="M15.035,12.464c0.128,0,0.256-0.049,0.354-0.146l0.707-0.707c0.195-0.195,0.195-0.512,0-0.707s-0.512-0.195-0.707,0
			l-0.707,0.707c-0.195,0.195-0.195,0.512,0,0.707C14.779,12.416,14.907,12.464,15.035,12.464z"/>
		<path d="M7.611,18.682l-0.707,0.707c-0.195,0.195-0.195,0.512,0,0.707c0.098,0.098,0.226,0.146,0.354,0.146
			s0.256-0.049,0.354-0.146l0.707-0.707c0.195-0.195,0.195-0.512,0-0.707S7.806,18.486,7.611,18.682z"/>
		<path d="M7.611,12.318c0.098,0.098,0.226,0.146,0.354,0.146s0.256-0.049,0.354-0.146c0.195-0.195,0.195-0.512,0-0.707
			l-0.707-0.707c-0.195-0.195-0.512-0.195-0.707,0s-0.195,0.512,0,0.707L7.611,12.318z"/>
		<path d="M15.389,18.682c-0.195-0.195-0.512-0.195-0.707,0s-0.195,0.512,0,0.707l0.707,0.707c0.098,0.098,0.226,0.146,0.354,0.146
			s0.256-0.049,0.354-0.146c0.195-0.195,0.195-0.512,0-0.707L15.389,18.682z"/>
	</g>
</g>
<g id="Boat">
</g>
<g id="Lifebuoy">
</g>
<g id="Lighthouse">
</g>
<g id="Sunset">
</g>
<g id="Dolphin">
</g>
<g id="Starfish">
</g>
<g id="Diving_Mask">
</g>
<g id="Sailboat">
</g>
<g id="Captin_Hat">
</g>
<g id="Eudder">
</g>
</svg>
