<?xml version="1.0" encoding="iso-8859-1"?>
<!-- Generator: Adobe Illustrator 19.2.1, SVG Export Plug-In . SVG Version: 6.00 Build 0)  -->
<svg version="1.1" xmlns="http://www.w3.org/2000/svg" xmlns:xlink="http://www.w3.org/1999/xlink" x="0px" y="0px"
	 viewBox="0 0 24 24" style="enable-background:new 0 0 24 24;" xml:space="preserve">
<g id="Sun_Light">
</g>
<g id="Sunglasses">
</g>
<g id="T-Shirt_1">
</g>
<g id="T-Shirt_2">
</g>
<g id="Mini_Dress">
</g>
<g id="Flip-Flops">
</g>
<g id="Temperature">
</g>
<g id="Hot_Temperature">
</g>
<g id="Ice_Lolly">
</g>
<g id="Icecream">
</g>
<g id="Limonade_1">
</g>
<g id="Limonade_2">
</g>
<g id="Hat">
</g>
<g id="Straw_Hat">
</g>
<g id="Deckchair">
</g>
<g id="Sunshade">
</g>
<g id="Suncream">
</g>
<g id="Suntan_Oil">
</g>
<g id="Swimming_Trunks">
</g>
<g id="Bikini">
</g>
<g id="Pool">
</g>
<g id="Pool_Ladder">
</g>
<g id="Grill">
</g>
<g id="Kite_1">
</g>
<g id="Kite_2">
</g>
<g id="Badminton">
</g>
<g id="Cooler">
</g>
<g id="Strand_Bag">
</g>
<g id="Towel">
</g>
<g id="Strand_Ball">
</g>
<g id="Beach_Sign">
</g>
<g id="Toos">
</g>
<g id="Bucket">
</g>
<g id="Sand_Castle">
</g>
<g id="Shell_1">
</g>
<g id="Shell_2">
</g>
<g id="Surf_Board">
</g>
<g id="Float">
</g>
<g id="Vacation_Photo">
</g>
<g id="Summer_Time">
</g>
<g id="Boat">
</g>
<g id="Lifebuoy">
</g>
<g id="Lighthouse">
</g>
<g id="Sunset">
	<g>
		<path d="M23.5,14.019c-0.557,0-0.835-0.159-1.219-0.379c-0.482-0.277-1.082-0.621-2.281-0.621c-0.469,0-0.831,0.059-1.147,0.138
			c-0.397-3.437-3.358-6.138-6.879-6.138c-3.517,0-6.477,2.695-6.879,6.127C4.789,13.073,4.444,13.019,4,13.019
			c-1.199,0-1.799,0.344-2.281,0.621c-0.384,0.22-0.662,0.379-1.219,0.379c-0.276,0-0.5,0.224-0.5,0.5s0.224,0.5,0.5,0.5
			c0.824,0,1.298-0.272,1.717-0.512C2.654,14.256,3.067,14.019,4,14.019c0.877,0,1.294,0.208,1.777,0.448
			C6.298,14.726,6.889,15.019,8,15.019c1.11,0,1.698-0.293,2.216-0.551c0.483-0.241,0.9-0.449,1.784-0.449
			c0.875,0,1.29,0.207,1.771,0.446c0.521,0.26,1.11,0.554,2.229,0.554c1.118,0,1.706-0.293,2.224-0.553
			c0.48-0.24,0.895-0.447,1.776-0.447c0.933,0,1.346,0.237,1.783,0.488c0.419,0.24,0.893,0.512,1.717,0.512
			c0.276,0,0.5-0.224,0.5-0.5S23.776,14.019,23.5,14.019z"/>
		<path d="M20.5,17H20c-0.877,0-1.294-0.208-1.777-0.448C17.702,16.293,17.111,16,16,16c-1.11,0-1.698,0.293-2.216,0.551
			C13.301,16.792,12.884,17,12,17c-0.875,0-1.29-0.207-1.771-0.446C9.709,16.294,9.119,16,8,16c-1.118,0-1.706,0.293-2.224,0.553
			C5.296,16.793,4.882,17,4,17H3.5C3.224,17,3,17.224,3,17.5S3.224,18,3.5,18H4c1.118,0,1.706-0.293,2.224-0.553
			C6.704,17.207,7.118,17,8,17c0.884,0,1.301,0.208,1.784,0.449C10.302,17.707,10.89,18,12,18c1.119,0,1.709-0.294,2.229-0.554
			C14.71,17.207,15.125,17,16,17c0.877,0,1.294,0.208,1.777,0.448C18.298,17.707,18.889,18,20,18h0.5c0.276,0,0.5-0.224,0.5-0.5
			S20.776,17,20.5,17z"/>
		<path d="M16.5,20H16c-0.884,0-1.301-0.208-1.784-0.449C13.698,19.293,13.11,19,12,19c-1.119,0-1.709,0.294-2.229,0.554
			C9.29,19.793,8.875,20,8,20H7.5C7.224,20,7,20.224,7,20.5S7.224,21,7.5,21H8c1.11,0,1.698-0.293,2.216-0.551
			C10.699,20.208,11.116,20,12,20c0.875,0,1.29,0.207,1.771,0.446C14.291,20.706,14.881,21,16,21h0.5c0.276,0,0.5-0.224,0.5-0.5
			S16.776,20,16.5,20z"/>
		<path d="M13.653,6.19c0.035,0.007,0.07,0.011,0.104,0.011c0.231,0,0.438-0.161,0.489-0.396l0.468-2.201
			c0.057-0.27-0.115-0.536-0.385-0.593c-0.271-0.057-0.536,0.115-0.593,0.385l-0.468,2.201C13.211,5.867,13.383,6.133,13.653,6.19z"
			/>
		<path d="M9.756,5.806c0.05,0.235,0.257,0.396,0.488,0.396c0.035,0,0.07-0.003,0.105-0.011c0.27-0.058,0.442-0.323,0.384-0.593
			l-0.47-2.201c-0.058-0.27-0.325-0.446-0.593-0.384C9.4,3.069,9.229,3.334,9.286,3.604L9.756,5.806z"/>
		<path d="M16.881,7.561c0.157,0,0.312-0.074,0.409-0.211l1.298-1.838c0.159-0.226,0.105-0.538-0.12-0.697
			c-0.226-0.159-0.538-0.104-0.697,0.12l-1.298,1.838c-0.159,0.226-0.105,0.538,0.12,0.697C16.681,7.531,16.781,7.561,16.881,7.561z
			"/>
		<path d="M6.71,7.349c0.097,0.138,0.251,0.211,0.409,0.211c0.1,0,0.2-0.03,0.288-0.092c0.226-0.159,0.279-0.471,0.12-0.697
			L6.229,4.934c-0.159-0.225-0.47-0.279-0.697-0.12c-0.226,0.159-0.279,0.471-0.12,0.697L6.71,7.349z"/>
		<path d="M19.425,10.378c0.085,0,0.171-0.021,0.25-0.067l1.948-1.127c0.239-0.138,0.321-0.444,0.182-0.683
			c-0.139-0.24-0.444-0.322-0.683-0.182l-1.948,1.127c-0.239,0.138-0.321,0.444-0.182,0.683
			C19.084,10.289,19.252,10.378,19.425,10.378z"/>
		<path d="M2.408,9.148l1.968,1.09c0.077,0.042,0.16,0.063,0.242,0.063c0.176,0,0.347-0.093,0.438-0.258
			c0.134-0.242,0.046-0.546-0.195-0.68l-1.968-1.09C2.652,8.14,2.347,8.227,2.213,8.469C2.079,8.71,2.167,9.015,2.408,9.148z"/>
	</g>
</g>
<g id="Dolphin">
</g>
<g id="Starfish">
</g>
<g id="Diving_Mask">
</g>
<g id="Sailboat">
</g>
<g id="Captin_Hat">
</g>
<g id="Eudder">
</g>
</svg>
