<?xml version="1.0" encoding="iso-8859-1"?>
<!-- Generator: Adobe Illustrator 19.2.1, SVG Export Plug-In . SVG Version: 6.00 Build 0)  -->
<svg version="1.1" xmlns="http://www.w3.org/2000/svg" xmlns:xlink="http://www.w3.org/1999/xlink" x="0px" y="0px"
	 viewBox="0 0 24 24" style="enable-background:new 0 0 24 24;" xml:space="preserve">
<g id="Event">
</g>
<g id="Event_2">
</g>
<g id="Add_Event">
</g>
<g id="Remove_Event">
</g>
<g id="Event_Reminder">
</g>
<g id="Wine_Glass">
</g>
<g id="Toast">
</g>
<g id="Champagne">
	<g>
		<path d="M11.513,16.612C11.237,16.389,9.852,16,8,16s-3.237,0.389-3.513,0.612C4.437,16.834,4.237,17,4,17v3h8v-3
			C11.763,17,11.563,16.834,11.513,16.612z"/>
		<path d="M10,4.5v-3C10,0.673,9.327,0,8.5,0h-1C6.673,0,6,0.673,6,1.5v3c0,2.59-0.541,4.335-1.064,6.022
			C4.455,12.074,4,13.54,4,15.5v0.258C5.161,15.014,7.964,15,8,15s2.839,0.014,4,0.758V15.5c0-1.952-0.455-3.428-0.938-4.991
			C10.54,8.815,10,7.063,10,4.5z"/>
		<path d="M4,22.5C4,23.327,4.673,24,5.5,24h5c0.827,0,1.5-0.673,1.5-1.5V21H4V22.5z"/>
		<path d="M18.5,23H17v-3.051c1.14-0.233,2-1.247,1.999-2.485l-0.5-7C18.48,10.203,18.263,10,18,10h-3
			c-0.262,0-0.479,0.203-0.499,0.464C14.169,15.065,14,17.433,14,17.5c0,1.207,0.86,2.217,2,2.449V23h-1.5
			c-0.276,0-0.5,0.224-0.5,0.5s0.224,0.5,0.5,0.5h4c0.276,0,0.5-0.224,0.5-0.5S18.776,23,18.5,23z"/>
	</g>
</g>
<g id="Champagne_Open">
</g>
<g id="Alcohol_Drink">
</g>
<g id="Beer_Glass">
</g>
<g id="Party_Cake">
</g>
<g id="Pizza_Food">
</g>
<g id="Disco_Ball">
</g>
<g id="Equalizer">
</g>
<g id="DJ">
</g>
<g id="Tent">
</g>
<g id="Firework_1">
</g>
<g id="Firework_2">
</g>
<g id="Party_Glasses">
</g>
<g id="Barbeque">
</g>
<g id="Horn">
</g>
<g id="Speaker">
</g>
<g id="VIP">
</g>
<g id="Event_Ticket">
</g>
<g id="VIP_Ticket">
</g>
<g id="Popcorn">
</g>
<g id="Cord">
</g>
<g id="Invitation_1">
</g>
<g id="Invitation_2">
</g>
</svg>
