<?xml version="1.0" encoding="iso-8859-1"?>
<!-- Generator: Adobe Illustrator 19.2.1, SVG Export Plug-In . SVG Version: 6.00 Build 0)  -->
<svg version="1.1" xmlns="http://www.w3.org/2000/svg" xmlns:xlink="http://www.w3.org/1999/xlink" x="0px" y="0px"
	 viewBox="0 0 24 24" style="enable-background:new 0 0 24 24;" xml:space="preserve">
<g id="Event">
</g>
<g id="Event_2">
</g>
<g id="Add_Event">
</g>
<g id="Remove_Event">
</g>
<g id="Event_Reminder">
</g>
<g id="Wine_Glass">
</g>
<g id="Toast">
</g>
<g id="Champagne">
</g>
<g id="Champagne_Open">
</g>
<g id="Alcohol_Drink">
</g>
<g id="Beer_Glass">
</g>
<g id="Party_Cake">
</g>
<g id="Pizza_Food">
</g>
<g id="Disco_Ball">
</g>
<g id="Equalizer">
</g>
<g id="DJ">
	<g>
		<path d="M13,11c0-1.103-0.897-2-2-2s-2,0.897-2,2s0.897,2,2,2S13,12.103,13,11z M10,11c0-0.551,0.448-1,1-1s1,0.449,1,1
			s-0.448,1-1,1S10,11.551,10,11z"/>
		<path d="M13.745,19.565C12.86,19.849,11.94,20,11,20c-0.276,0-0.5-0.224-0.5-0.5S10.724,19,11,19c0.878,0,1.734-0.149,2.557-0.426
			l-0.188-0.991C12.611,17.856,11.818,18,11,18c-0.276,0-0.5-0.224-0.5-0.5S10.724,17,11,17c0.755,0,1.485-0.146,2.179-0.417
			l-0.152-0.799C13.01,15.698,13,15.6,13,15.5c0-0.827,0.673-1.5,1.5-1.5c0.175,0,0.344,0.03,0.5,0.085V11.5
			c0-0.827,0.673-1.5,1.5-1.5c0.195,0,0.382,0.038,0.553,0.105C17.227,9.469,17.81,9,18.5,9s1.273,0.469,1.447,1.105
			C20.118,10.038,20.305,10,20.5,10c0.798,0,1.447,0.628,1.491,1.415c0-0.003,0.002-0.005,0.002-0.007
			C21.998,11.272,22,11.137,22,11c0-6.065-4.935-11-11-11S0,4.935,0,11s4.935,11,11,11c1.126,0,2.23-0.179,3.294-0.512
			c-0.178-0.36-0.325-0.739-0.402-1.149L13.745,19.565z M3,11c0,0.276-0.224,0.5-0.5,0.5S2,11.276,2,11c0-4.962,4.037-9,9-9
			c0.276,0,0.5,0.224,0.5,0.5S11.276,3,11,3C6.589,3,3,6.589,3,11z M5,11c0,0.276-0.224,0.5-0.5,0.5S4,11.276,4,11
			c0-3.86,3.141-7,7-7c0.276,0,0.5,0.224,0.5,0.5S11.276,5,11,5C7.691,5,5,7.691,5,11z M8,11c0-1.654,1.346-3,3-3s3,1.346,3,3
			s-1.346,3-3,3S8,12.654,8,11z"/>
		<path d="M22.5,13c-0.275,0-0.5,0.224-0.5,0.5v3c0,0.276-0.224,0.5-0.5,0.5S21,16.776,21,16.5v-4.436V11.5
			c0-0.276-0.225-0.5-0.5-0.5S20,11.224,20,11.5v1.933V16.5c0,0.276-0.224,0.5-0.5,0.5S19,16.776,19,16.5v-1.698V10.5
			c0-0.276-0.225-0.5-0.5-0.5S18,10.224,18,10.5v5.67v0.33c0,0.276-0.224,0.5-0.5,0.5c-0.033,0-0.061-0.013-0.092-0.019
			c-0.057-0.011-0.111-0.032-0.16-0.059c-0.001-0.001-0.002-0.001-0.003-0.002c-0.045-0.026-0.085-0.06-0.12-0.099
			c-0.013-0.015-0.022-0.032-0.033-0.048c-0.021-0.029-0.042-0.059-0.056-0.093C17.015,16.624,17,16.564,17,16.5v-5
			c0-0.276-0.225-0.5-0.5-0.5S16,11.224,16,11.5v5c0,0.276-0.224,0.5-0.5,0.5S15,16.776,15,16.5v-1c0-0.276-0.225-0.5-0.5-0.5
			S14,15.224,14,15.5l0.874,4.652c0.313,1.65,1.76,2.848,3.438,2.848H19.5c1.93,0,3.5-1.57,3.5-3.5v-6C23,13.224,22.775,13,22.5,13z
			"/>
	</g>
</g>
<g id="Tent">
</g>
<g id="Firework_1">
</g>
<g id="Firework_2">
</g>
<g id="Party_Glasses">
</g>
<g id="Barbeque">
</g>
<g id="Horn">
</g>
<g id="Speaker">
</g>
<g id="VIP">
</g>
<g id="Event_Ticket">
</g>
<g id="VIP_Ticket">
</g>
<g id="Popcorn">
</g>
<g id="Cord">
</g>
<g id="Invitation_1">
</g>
<g id="Invitation_2">
</g>
</svg>
