<?xml version="1.0" encoding="iso-8859-1"?>
<!-- Generator: Adobe Illustrator 19.2.1, SVG Export Plug-In . SVG Version: 6.00 Build 0)  -->
<svg version="1.1" xmlns="http://www.w3.org/2000/svg" xmlns:xlink="http://www.w3.org/1999/xlink" x="0px" y="0px"
	 viewBox="0 0 24 24" style="enable-background:new 0 0 24 24;" xml:space="preserve">
<g id="Event">
</g>
<g id="Event_2">
</g>
<g id="Add_Event">
</g>
<g id="Remove_Event">
</g>
<g id="Event_Reminder">
	<g>
		<path d="M11.5,18h-8C2.122,18,1,16.878,1,15.5V5h17v6.5c0,0.276,0.224,0.5,0.5,0.5s0.5-0.224,0.5-0.5v-7C19,2.57,17.43,1,15.5,1
			H14V0.5C14,0.224,13.776,0,13.5,0S13,0.224,13,0.5V1v1.5C13,2.776,12.776,3,12.5,3S12,2.776,12,2.5V1h-0.5h-4H6V0.5
			C6,0.224,5.776,0,5.5,0S5,0.224,5,0.5V1v1.5C5,2.776,4.776,3,4.5,3S4,2.776,4,2.5V1H3.5C1.57,1,0,2.57,0,4.5v11
			C0,17.43,1.57,19,3.5,19h8c0.276,0,0.5-0.224,0.5-0.5S11.776,18,11.5,18z"/>
		<path d="M11,8H8C7.819,8,7.652,8.098,7.563,8.256C7.541,8.297,7,9.279,7,10.5c0,1.207,0.86,2.217,2,2.449V14H8.5
			C8.224,14,8,14.224,8,14.5S8.224,15,8.5,15h2c0.276,0,0.5-0.224,0.5-0.5S10.776,14,10.5,14H10v-1.051c1.14-0.232,2-1.242,2-2.449
			c0-1.221-0.541-2.203-0.563-2.244C11.348,8.098,11.181,8,11,8z"/>
		<path d="M16.354,13.646c-0.195-0.195-0.512-0.195-0.707,0l-2.5,2.5c-0.195,0.195-0.195,0.512,0,0.707
			C13.244,16.951,13.372,17,13.5,17s0.256-0.049,0.354-0.146l2.5-2.5C16.549,14.158,16.549,13.842,16.354,13.646z"/>
		<path d="M23.854,16.146l-2.5-2.5c-0.195-0.195-0.512-0.195-0.707,0s-0.195,0.512,0,0.707l2.5,2.5C23.244,16.951,23.372,17,23.5,17
			s0.256-0.049,0.354-0.146C24.049,16.658,24.049,16.342,23.854,16.146z"/>
		<path d="M18.5,15c-2.481,0-4.5,2.019-4.5,4.5s2.019,4.5,4.5,4.5s4.5-2.019,4.5-4.5S20.981,15,18.5,15z M19.854,20.854
			C19.756,20.951,19.628,21,19.5,21s-0.256-0.049-0.354-0.146l-1-1C18.053,19.76,18,19.633,18,19.5v-2c0-0.276,0.224-0.5,0.5-0.5
			s0.5,0.224,0.5,0.5v1.793l0.854,0.854C20.049,20.342,20.049,20.658,19.854,20.854z"/>
	</g>
</g>
<g id="Wine_Glass">
</g>
<g id="Toast">
</g>
<g id="Champagne">
</g>
<g id="Champagne_Open">
</g>
<g id="Alcohol_Drink">
</g>
<g id="Beer_Glass">
</g>
<g id="Party_Cake">
</g>
<g id="Pizza_Food">
</g>
<g id="Disco_Ball">
</g>
<g id="Equalizer">
</g>
<g id="DJ">
</g>
<g id="Tent">
</g>
<g id="Firework_1">
</g>
<g id="Firework_2">
</g>
<g id="Party_Glasses">
</g>
<g id="Barbeque">
</g>
<g id="Horn">
</g>
<g id="Speaker">
</g>
<g id="VIP">
</g>
<g id="Event_Ticket">
</g>
<g id="VIP_Ticket">
</g>
<g id="Popcorn">
</g>
<g id="Cord">
</g>
<g id="Invitation_1">
</g>
<g id="Invitation_2">
</g>
</svg>
