<?xml version="1.0" encoding="iso-8859-1"?>
<!-- Generator: Adobe Illustrator 19.2.1, SVG Export Plug-In . SVG Version: 6.00 Build 0)  -->
<svg version="1.1" xmlns="http://www.w3.org/2000/svg" xmlns:xlink="http://www.w3.org/1999/xlink" x="0px" y="0px"
	 viewBox="0 0 24 24" style="enable-background:new 0 0 24 24;" xml:space="preserve">
<g id="Event">
</g>
<g id="Event_2">
</g>
<g id="Add_Event">
</g>
<g id="Remove_Event">
</g>
<g id="Event_Reminder">
</g>
<g id="Wine_Glass">
</g>
<g id="Toast">
</g>
<g id="Champagne">
</g>
<g id="Champagne_Open">
</g>
<g id="Alcohol_Drink">
</g>
<g id="Beer_Glass">
</g>
<g id="Party_Cake">
</g>
<g id="Pizza_Food">
</g>
<g id="Disco_Ball">
</g>
<g id="Equalizer">
</g>
<g id="DJ">
</g>
<g id="Tent">
</g>
<g id="Firework_1">
</g>
<g id="Firework_2">
	<g>
		<circle cx="12.5" cy="11.5" r="1.5"/>
		<path d="M20.5,12h1c0.276,0,0.5-0.224,0.5-0.5S21.777,11,21.5,11h-1c-0.276,0-0.5,0.224-0.5,0.5S20.224,12,20.5,12z"/>
		<path d="M16.5,12h2c0.276,0,0.5-0.224,0.5-0.5S18.777,11,18.5,11h-2c-0.276,0-0.5,0.224-0.5,0.5S16.224,12,16.5,12z"/>
		<path d="M5.536,11c-0.276,0-0.5,0.224-0.5,0.5S5.26,12,5.536,12h0.5c0.276,0,0.5-0.224,0.5-0.5S6.313,11,6.036,11H5.536z"/>
		<path d="M8,11c-0.276,0-0.5,0.224-0.5,0.5S7.724,12,8,12h0.5C8.777,12,9,11.776,9,11.5S8.777,11,8.5,11H8z"/>
		<path d="M12.5,5C12.777,5,13,4.776,13,4.5v-1C13,3.224,12.777,3,12.5,3S12,3.224,12,3.5v1C12,4.776,12.224,5,12.5,5z"/>
		<path d="M12.5,2C12.777,2,13,1.776,13,1.5v-1C13,0.224,12.777,0,12.5,0S12,0.224,12,0.5v1C12,1.776,12.224,2,12.5,2z"/>
		<path d="M12.5,8C12.777,8,13,7.776,13,7.5v-1C13,6.224,12.777,6,12.5,6S12,6.224,12,6.5v1C12,7.776,12.224,8,12.5,8z"/>
		<path d="M12.5,15c-0.276,0-0.5,0.224-0.5,0.5v2c0,0.276,0.224,0.5,0.5,0.5s0.5-0.224,0.5-0.5v-2C13,15.224,12.777,15,12.5,15z"/>
		<path d="M12.5,19c-0.276,0-0.5,0.224-0.5,0.5v0.938c0,0.276,0.224,0.5,0.5,0.5s0.5-0.224,0.5-0.5V19.5
			C13,19.224,12.777,19,12.5,19z"/>
		<path d="M15.68,7.61l-0.706,0.708c-0.194,0.196-0.194,0.512,0.002,0.707c0.098,0.097,0.225,0.146,0.353,0.146
			s0.257-0.049,0.354-0.147l0.706-0.708c0.194-0.196,0.194-0.512-0.002-0.707C16.192,7.415,15.875,7.414,15.68,7.61z"/>
		<path d="M19.434,5.048c0.128,0,0.257-0.049,0.354-0.147l1.134-1.138c0.194-0.196,0.194-0.512-0.002-0.707
			c-0.195-0.195-0.512-0.195-0.707,0.001l-1.134,1.138c-0.194,0.196-0.194,0.512,0.002,0.707C19.179,5,19.306,5.048,19.434,5.048z"
			/>
		<path d="M17.167,7.325c0.128,0,0.257-0.049,0.354-0.147l1.134-1.138c0.194-0.196,0.194-0.512-0.002-0.707
			c-0.195-0.195-0.512-0.194-0.707,0.001l-1.134,1.138c-0.194,0.196-0.194,0.512,0.002,0.707
			C16.912,7.276,17.039,7.325,17.167,7.325z"/>
		<path d="M21.701,2.771c0.128,0,0.257-0.049,0.354-0.147l0.705-0.708c0.194-0.196,0.194-0.512-0.002-0.707
			c-0.195-0.194-0.512-0.194-0.707,0.002l-0.705,0.708c-0.194,0.196-0.194,0.512,0.002,0.707
			C21.447,2.723,21.574,2.771,21.701,2.771z"/>
		<path d="M10.006,14.701c0.205-0.184,0.223-0.5,0.038-0.706c-0.186-0.207-0.502-0.224-0.705-0.039
			c-0.161,0.144-3.962,3.593-5.326,9.43c-0.063,0.269,0.104,0.538,0.373,0.601C4.425,23.996,4.463,24,4.5,24
			c0.228,0,0.433-0.156,0.487-0.386C6.277,18.097,9.968,14.734,10.006,14.701z"/>
		<path d="M5.075,4.782C5.173,4.88,5.301,4.929,5.429,4.929S5.685,4.88,5.783,4.782c0.195-0.195,0.195-0.512,0-0.707L5.075,3.368
			c-0.195-0.195-0.512-0.195-0.707,0s-0.195,0.512,0,0.707L5.075,4.782z"/>
		<path d="M7.433,7.14c0.098,0.098,0.226,0.146,0.354,0.146S8.042,7.237,8.14,7.14c0.195-0.195,0.195-0.512,0-0.707L6.961,5.254
			c-0.195-0.195-0.512-0.195-0.707,0s-0.195,0.512,0,0.707L7.433,7.14z"/>
		<path d="M9.672,9.171c0.128,0,0.256-0.049,0.354-0.146c0.195-0.195,0.195-0.512,0-0.707L9.319,7.611
			c-0.195-0.195-0.512-0.195-0.707,0s-0.195,0.512,0,0.707l0.707,0.707C9.416,9.123,9.544,9.171,9.672,9.171z"/>
		<path d="M14.975,13.975c-0.195,0.195-0.195,0.512,0,0.707l1.414,1.414c0.098,0.098,0.226,0.146,0.354,0.146
			s0.256-0.049,0.354-0.146c0.195-0.195,0.195-0.512,0-0.707l-1.414-1.414C15.487,13.78,15.17,13.78,14.975,13.975z"/>
		<path d="M19.218,17.51c-0.195-0.195-0.512-0.195-0.707,0s-0.195,0.512,0,0.707l1.414,1.415c0.098,0.098,0.226,0.146,0.354,0.146
			s0.256-0.049,0.354-0.146c0.195-0.195,0.195-0.512,0-0.707L19.218,17.51z"/>
		<path d="M16.177,10.424c0.066,0,0.133-0.013,0.197-0.041l0.919-0.394c0.254-0.109,0.371-0.403,0.263-0.657
			c-0.11-0.254-0.404-0.371-0.657-0.262L15.98,9.465c-0.254,0.109-0.371,0.403-0.263,0.657
			C15.799,10.311,15.984,10.424,16.177,10.424z"/>
		<path d="M20.62,8.021c-0.11-0.255-0.405-0.371-0.657-0.263l-1.532,0.657c-0.254,0.109-0.371,0.403-0.263,0.656
			c0.082,0.19,0.267,0.303,0.46,0.303c0.066,0,0.133-0.013,0.197-0.041l1.532-0.657C20.612,8.568,20.729,8.274,20.62,8.021z"/>
		<path d="M21.692,8.061c0.066,0,0.133-0.013,0.197-0.041l0.919-0.394c0.254-0.109,0.371-0.403,0.263-0.657
			c-0.11-0.254-0.405-0.371-0.657-0.262l-0.919,0.394c-0.254,0.109-0.371,0.403-0.263,0.657C21.314,7.948,21.498,8.061,21.692,8.061
			z"/>
		<path d="M8.976,13.552c0.263-0.084,0.407-0.366,0.323-0.628c-0.083-0.262-0.361-0.409-0.627-0.325
			c-0.183,0.058-4.508,1.479-7.601,6.644c-0.143,0.237-0.065,0.544,0.172,0.686C1.324,19.977,1.412,20,1.5,20
			c0.17,0,0.335-0.087,0.429-0.243C4.818,14.933,8.934,13.565,8.976,13.552z"/>
		<path d="M7.52,1.157c0.081,0.189,0.266,0.303,0.459,0.303c0.066,0,0.133-0.013,0.197-0.041C8.43,1.31,8.547,1.016,8.438,0.762
			L8.241,0.303c-0.108-0.255-0.404-0.37-0.656-0.262C7.33,0.149,7.213,0.443,7.323,0.697L7.52,1.157z"/>
		<path d="M8.207,2.758l0.344,0.801C8.632,3.748,8.817,3.861,9.01,3.861c0.066,0,0.133-0.013,0.197-0.041
			c0.254-0.109,0.371-0.403,0.262-0.657L9.125,2.363C9.016,2.109,8.721,1.994,8.469,2.101C8.215,2.21,8.098,2.504,8.207,2.758z"/>
		<path d="M9.238,5.16l0.344,0.8c0.081,0.189,0.266,0.303,0.459,0.303c0.066,0,0.133-0.013,0.197-0.041
			c0.254-0.109,0.371-0.403,0.262-0.657l-0.344-0.8c-0.109-0.255-0.403-0.37-0.656-0.262C9.245,4.612,9.128,4.906,9.238,5.16z"/>
		<path d="M10.268,7.56l0.196,0.459c0.081,0.19,0.266,0.304,0.46,0.304c0.065,0,0.133-0.013,0.196-0.04
			c0.254-0.109,0.372-0.402,0.264-0.656l-0.196-0.459c-0.108-0.254-0.405-0.372-0.656-0.264C10.278,7.012,10.159,7.306,10.268,7.56z
			"/>
		<path d="M14.93,15.899l-0.394-0.919c-0.109-0.254-0.401-0.372-0.657-0.263c-0.254,0.108-0.371,0.402-0.263,0.656l0.394,0.919
			c0.082,0.19,0.267,0.303,0.46,0.303c0.065,0,0.133-0.013,0.197-0.041C14.92,16.447,15.038,16.153,14.93,15.899z"/>
		<path d="M16.243,18.962l-0.657-1.532c-0.109-0.255-0.406-0.372-0.657-0.262c-0.254,0.109-0.371,0.403-0.263,0.657l0.657,1.532
			c0.082,0.189,0.267,0.303,0.46,0.303c0.066,0,0.133-0.013,0.197-0.041C16.235,19.51,16.352,19.216,16.243,18.962z"/>
		<path d="M16.9,20.495c-0.109-0.254-0.4-0.373-0.657-0.263c-0.254,0.108-0.371,0.402-0.263,0.656l0.394,0.919
			c0.082,0.19,0.267,0.303,0.46,0.303c0.065,0,0.133-0.013,0.197-0.041c0.253-0.108,0.371-0.402,0.263-0.656L16.9,20.495z"/>
		<path d="M15.285,4.536c0.061,0.025,0.123,0.036,0.186,0.036c0.198,0,0.386-0.119,0.464-0.314l0.195-0.487
			c0.103-0.256-0.021-0.547-0.278-0.65c-0.254-0.102-0.547,0.021-0.649,0.278l-0.195,0.487C14.905,4.143,15.029,4.434,15.285,4.536z
			"/>
		<path d="M13.8,8.25c0.061,0.024,0.124,0.036,0.186,0.036c0.198,0,0.386-0.119,0.464-0.314l0.743-1.857
			c0.103-0.256-0.021-0.547-0.278-0.65c-0.256-0.104-0.547,0.022-0.649,0.279l-0.743,1.857C13.419,7.857,13.543,8.148,13.8,8.25z"/>
		<path d="M10.755,15.863c-0.255-0.103-0.547,0.022-0.649,0.279l-0.743,1.857c-0.103,0.256,0.021,0.547,0.278,0.65
			c0.061,0.024,0.124,0.036,0.186,0.036c0.198,0,0.386-0.119,0.464-0.314l0.743-1.857C11.136,16.257,11.012,15.966,10.755,15.863z"
			/>
		<path d="M3.937,8.613l0.464,0.186c0.061,0.024,0.124,0.036,0.186,0.036c0.198,0,0.386-0.119,0.464-0.314
			c0.103-0.256-0.021-0.547-0.278-0.65L4.308,7.685C4.053,7.582,3.761,7.707,3.658,7.963S3.68,8.511,3.937,8.613z"/>
		<path d="M5.616,8.747c-0.103,0.256,0.021,0.547,0.278,0.65l0.747,0.299C6.702,9.72,6.766,9.731,6.827,9.731
			c0.198,0,0.386-0.119,0.464-0.314C7.394,9.16,7.27,8.869,7.013,8.767L6.266,8.468C6.01,8.365,5.719,8.49,5.616,8.747z"/>
		<path d="M9.25,10.201c0.103-0.256-0.021-0.547-0.277-0.65L8.509,9.365C8.252,9.26,7.961,9.385,7.859,9.643
			c-0.103,0.256,0.021,0.547,0.277,0.65L8.6,10.479c0.062,0.025,0.124,0.036,0.187,0.036C8.985,10.515,9.172,10.396,9.25,10.201z"/>
		<path d="M17.328,12.893L16.4,12.521c-0.255-0.103-0.547,0.022-0.649,0.279s0.021,0.547,0.278,0.65l0.929,0.372
			c0.061,0.024,0.124,0.036,0.186,0.036c0.198,0,0.386-0.119,0.464-0.314C17.709,13.286,17.585,12.995,17.328,12.893z"/>
		<path d="M20.052,15.059c0.061,0.024,0.124,0.036,0.186,0.036c0.198,0,0.386-0.119,0.464-0.314c0.103-0.256-0.021-0.547-0.278-0.65
			l-1.548-0.619c-0.257-0.104-0.548,0.022-0.649,0.279c-0.103,0.256,0.021,0.547,0.278,0.65L20.052,15.059z"/>
		<path d="M22.899,15.121l-0.928-0.372c-0.253-0.102-0.547,0.021-0.649,0.278c-0.103,0.256,0.021,0.547,0.278,0.65l0.928,0.372
			c0.061,0.024,0.123,0.036,0.186,0.036c0.198,0,0.386-0.119,0.464-0.314C23.28,15.515,23.156,15.224,22.899,15.121z"/>
	</g>
</g>
<g id="Party_Glasses">
</g>
<g id="Barbeque">
</g>
<g id="Horn">
</g>
<g id="Speaker">
</g>
<g id="VIP">
</g>
<g id="Event_Ticket">
</g>
<g id="VIP_Ticket">
</g>
<g id="Popcorn">
</g>
<g id="Cord">
</g>
<g id="Invitation_1">
</g>
<g id="Invitation_2">
</g>
</svg>
