<?xml version="1.0" encoding="iso-8859-1"?>
<!-- Generator: Adobe Illustrator 19.2.1, SVG Export Plug-In . SVG Version: 6.00 Build 0)  -->
<svg version="1.1" xmlns="http://www.w3.org/2000/svg" xmlns:xlink="http://www.w3.org/1999/xlink" x="0px" y="0px"
	 viewBox="0 0 24 24" style="enable-background:new 0 0 24 24;" xml:space="preserve">
<g id="Event">
</g>
<g id="Event_2">
</g>
<g id="Add_Event">
</g>
<g id="Remove_Event">
</g>
<g id="Event_Reminder">
</g>
<g id="Wine_Glass">
</g>
<g id="Toast">
</g>
<g id="Champagne">
</g>
<g id="Champagne_Open">
</g>
<g id="Alcohol_Drink">
</g>
<g id="Beer_Glass">
</g>
<g id="Party_Cake">
</g>
<g id="Pizza_Food">
</g>
<g id="Disco_Ball">
</g>
<g id="Equalizer">
</g>
<g id="DJ">
</g>
<g id="Tent">
</g>
<g id="Firework_1">
</g>
<g id="Firework_2">
</g>
<g id="Party_Glasses">
</g>
<g id="Barbeque">
</g>
<g id="Horn">
</g>
<g id="Speaker">
</g>
<g id="VIP">
</g>
<g id="Event_Ticket">
</g>
<g id="VIP_Ticket">
</g>
<g id="Popcorn">
	<g>
		<path d="M13.705,14.214C13.158,13.508,11.912,13,10.5,13s-2.658,0.508-3.204,1.214c-0.001,0.002-0.003,0.003-0.004,0.004
			C7.106,14.46,7,14.724,7,15c0,1.084,1.603,2,3.5,2s3.5-0.916,3.5-2c0-0.276-0.106-0.54-0.291-0.781
			C13.707,14.217,13.706,14.216,13.705,14.214z"/>
		<path d="M17.872,6.167c-0.087-0.098-0.21-0.151-0.34-0.16c0-0.002,0.001-0.005,0.001-0.007c0-0.922-0.712-1.746-1.605-1.951
			c-0.151-0.461-0.524-0.832-0.986-0.979c-0.144-0.52-0.542-0.925-1.04-1.048c-0.11-0.345-0.288-0.58-0.568-0.748
			c0-0.008,0-0.016,0-0.024c0-0.689-0.538-1.25-1.199-1.25c-0.195,0-0.385,0.051-0.555,0.147C11.389,0.051,11.181,0,10.967,0
			c-0.65,0-1.2,0.455-1.376,1.077C9.524,1.101,9.456,1.131,9.392,1.166C8.526,0.767,7.434,1.164,6.979,2.029
			c-0.265,0.06-0.508,0.213-0.691,0.44C6.153,2.634,6.062,2.824,6.016,3.021c-0.4,0.066-0.732,0.29-0.903,0.604
			C4.483,3.95,4.038,4.654,4.002,5.402C3.827,5.557,3.675,5.763,3.577,6H3.5C3.357,6,3.223,6.061,3.128,6.167
			S2.987,6.414,3.003,6.555l1.774,16.107C4.857,23.425,5.469,24,6.202,24h8.596c0.733,0,1.346-0.575,1.425-1.335l1.774-16.11
			C18.013,6.414,17.967,6.272,17.872,6.167z M14.385,16.51l-0.387,5.028C13.979,21.801,13.759,22,13.501,22
			c-0.014,0-0.026,0-0.039-0.001c-0.275-0.021-0.481-0.262-0.46-0.537l0.317-4.124c-0.646,0.345-1.438,0.567-2.319,0.63V21.5
			c0,0.276-0.224,0.5-0.5,0.5S10,21.776,10,21.5v-3.533c-0.881-0.063-1.673-0.285-2.319-0.63l0.317,4.124
			c0.021,0.275-0.185,0.516-0.46,0.537C7.525,22,7.513,22,7.499,22c-0.259,0-0.478-0.199-0.497-0.462L6.615,16.51
			C6.233,16.068,6,15.557,6,15c0-0.449,0.149-0.868,0.403-1.247L6.002,8.539c-0.021-0.275,0.185-0.516,0.46-0.537
			c0.258-0.017,0.516,0.184,0.536,0.46l0.338,4.39C8.032,12.396,8.96,12.107,10,12.033V8.5C10,8.224,10.224,8,10.5,8
			S11,8.224,11,8.5v3.533c1.04,0.075,1.968,0.364,2.664,0.819l0.338-4.39c0.021-0.276,0.289-0.478,0.536-0.46
			c0.275,0.021,0.481,0.262,0.46,0.537l-0.401,5.214C14.851,14.132,15,14.551,15,15C15,15.557,14.767,16.068,14.385,16.51z M4.846,6
			C4.96,5.873,5.016,5.659,5,5.5c0-0.438,0.299-0.899,0.666-1.028c0.163-0.058,0.285-0.195,0.322-0.363
			C5.996,4.071,6.124,4,6.322,4.017C6.481,4.08,6.661,4.058,6.8,3.96c0.14-0.1,0.218-0.263,0.209-0.434
			C7.008,3.5,6.994,3.422,6.989,3.396C6.968,3.294,6.995,3.183,7.064,3.098C7.105,3.049,7.153,3.015,7.2,3.004
			c0.023,0.005,0.048,0.009,0.063,0.011c0.253,0.026,0.457-0.12,0.528-0.346c0.187-0.585,0.87-0.843,1.335-0.505
			C9.32,2.304,9.588,2.288,9.765,2.122C9.823,2.066,9.917,2,10.033,2c0.276,0,0.5-0.224,0.5-0.5c0-0.276,0.194-0.5,0.434-0.5
			c0.127,0,0.224,0.07,0.282,0.129c0.103,0.102,0.241,0.154,0.386,0.146c0.144-0.009,0.276-0.079,0.364-0.193
			c0.08-0.106,0.334-0.042,0.334,0.168c0,0.034-0.01,0.072-0.028,0.116c-0.058,0.13-0.058,0.278,0.001,0.408
			c0.059,0.129,0.169,0.228,0.305,0.271c0.251,0.08,0.326,0.104,0.396,0.535c0.042,0.262,0.28,0.436,0.545,0.418
			c0.016-0.002,0.042-0.007,0.068-0.013C13.83,3.01,14,3.236,14,3.5C14,3.776,14.224,4,14.5,4C14.732,4,15,4.218,15,4.5
			C15,4.776,15.224,5,15.5,5c0.478,0,1.033,0.437,1.033,1H4.846z"/>
	</g>
</g>
<g id="Cord">
</g>
<g id="Invitation_1">
</g>
<g id="Invitation_2">
</g>
</svg>
