<?xml version="1.0" encoding="iso-8859-1"?>
<!-- Generator: Adobe Illustrator 19.2.1, SVG Export Plug-In . SVG Version: 6.00 Build 0)  -->
<svg version="1.1" xmlns="http://www.w3.org/2000/svg" xmlns:xlink="http://www.w3.org/1999/xlink" x="0px" y="0px"
	 viewBox="0 0 24 24" style="enable-background:new 0 0 24 24;" xml:space="preserve">
<g id="Event">
</g>
<g id="Event_2">
</g>
<g id="Add_Event">
</g>
<g id="Remove_Event">
</g>
<g id="Event_Reminder">
</g>
<g id="Wine_Glass">
</g>
<g id="Toast">
</g>
<g id="Champagne">
</g>
<g id="Champagne_Open">
</g>
<g id="Alcohol_Drink">
</g>
<g id="Beer_Glass">
</g>
<g id="Party_Cake">
</g>
<g id="Pizza_Food">
</g>
<g id="Disco_Ball">
</g>
<g id="Equalizer">
</g>
<g id="DJ">
</g>
<g id="Tent">
</g>
<g id="Firework_1">
</g>
<g id="Firework_2">
</g>
<g id="Party_Glasses">
</g>
<g id="Barbeque">
</g>
<g id="Horn">
</g>
<g id="Speaker">
	<g>
		<circle cx="11.5" cy="16.5" r="1.5"/>
		<path d="M11.5,9C12.878,9,14,7.878,14,6.5S12.878,4,11.5,4S9,5.122,9,6.5S10.122,9,11.5,9z M11.5,5.5c0.551,0,1,0.449,1,1
			s-0.449,1-1,1s-1-0.449-1-1S10.949,5.5,11.5,5.5z"/>
		<path d="M17.5,1h-12C4.673,1,4,1.673,4,2.5v20C4,23.327,4.673,24,5.5,24h12c0.827,0,1.5-0.673,1.5-1.5v-20
			C19,1.673,18.327,1,17.5,1z M11.5,3C13.43,3,15,4.57,15,6.5S13.43,10,11.5,10S8,8.43,8,6.5S9.57,3,11.5,3z M11.5,22
			C8.467,22,6,19.533,6,16.5S8.467,11,11.5,11s5.5,2.467,5.5,5.5S14.533,22,11.5,22z"/>
		<path d="M11.5,12C9.019,12,7,14.019,7,16.5S9.019,21,11.5,21s4.5-2.019,4.5-4.5S13.981,12,11.5,12z M11.5,19
			C10.122,19,9,17.878,9,16.5s1.122-2.5,2.5-2.5s2.5,1.122,2.5,2.5S12.878,19,11.5,19z"/>
	</g>
</g>
<g id="VIP">
</g>
<g id="Event_Ticket">
</g>
<g id="VIP_Ticket">
</g>
<g id="Popcorn">
</g>
<g id="Cord">
</g>
<g id="Invitation_1">
</g>
<g id="Invitation_2">
</g>
</svg>
