<?xml version="1.0" encoding="iso-8859-1"?>
<!-- Generator: Adobe Illustrator 19.2.1, SVG Export Plug-In . SVG Version: 6.00 Build 0)  -->
<svg version="1.1" xmlns="http://www.w3.org/2000/svg" xmlns:xlink="http://www.w3.org/1999/xlink" x="0px" y="0px"
	 viewBox="0 0 24 24" style="enable-background:new 0 0 24 24;" xml:space="preserve">
<g id="Event">
</g>
<g id="Event_2">
</g>
<g id="Add_Event">
</g>
<g id="Remove_Event">
</g>
<g id="Event_Reminder">
</g>
<g id="Wine_Glass">
</g>
<g id="Toast">
</g>
<g id="Champagne">
</g>
<g id="Champagne_Open">
</g>
<g id="Alcohol_Drink">
</g>
<g id="Beer_Glass">
</g>
<g id="Party_Cake">
</g>
<g id="Pizza_Food">
</g>
<g id="Disco_Ball">
</g>
<g id="Equalizer">
</g>
<g id="DJ">
</g>
<g id="Tent">
</g>
<g id="Firework_1">
</g>
<g id="Firework_2">
</g>
<g id="Party_Glasses">
</g>
<g id="Barbeque">
</g>
<g id="Horn">
</g>
<g id="Speaker">
</g>
<g id="VIP">
</g>
<g id="Event_Ticket">
</g>
<g id="VIP_Ticket">
	<g>
		<path d="M14.5,10H14v1h0.5c0.275,0,0.5-0.224,0.5-0.5S14.775,10,14.5,10z"/>
		<path d="M22.5,10c0.276,0,0.5-0.224,0.5-0.5v-4C23,5.224,22.776,5,22.5,5h-22C0.224,5,0,5.224,0,5.5v4C0,9.776,0.224,10,0.5,10
			C1.327,10,2,10.673,2,11.5S1.327,13,0.5,13C0.224,13,0,13.224,0,13.5v4C0,17.776,0.224,18,0.5,18h22c0.276,0,0.5-0.224,0.5-0.5v-4
			c0-0.276-0.224-0.5-0.5-0.5c-0.827,0-1.5-0.673-1.5-1.5S21.673,10,22.5,10z M9.985,9.621l-1,4C8.93,13.844,8.729,14,8.5,14
			s-0.43-0.156-0.485-0.379l-1-4C6.948,9.354,7.11,9.082,7.379,9.015C7.644,8.946,7.918,9.11,7.985,9.379l0.515,2.06l0.515-2.06
			C9.081,9.11,9.348,8.947,9.621,9.015C9.89,9.082,10.052,9.354,9.985,9.621z M12,13.5c0,0.276-0.224,0.5-0.5,0.5S11,13.776,11,13.5
			v-4C11,9.224,11.224,9,11.5,9S12,9.224,12,9.5V13.5z M14.5,12H14v1.5c0,0.276-0.224,0.5-0.5,0.5S13,13.776,13,13.5v-4
			C13,9.224,13.224,9,13.5,9h1c0.827,0,1.5,0.673,1.5,1.5S15.327,12,14.5,12z"/>
	</g>
</g>
<g id="Popcorn">
</g>
<g id="Cord">
</g>
<g id="Invitation_1">
</g>
<g id="Invitation_2">
</g>
</svg>
