<?xml version="1.0" encoding="iso-8859-1"?>
<!-- Generator: Adobe Illustrator 19.2.1, SVG Export Plug-In . SVG Version: 6.00 Build 0)  -->
<svg version="1.1" xmlns="http://www.w3.org/2000/svg" xmlns:xlink="http://www.w3.org/1999/xlink" x="0px" y="0px"
	 viewBox="0 0 30 30" style="enable-background:new 0 0 30 30;" xml:space="preserve">
<g id="Event">
</g>
<g id="Event_2">
</g>
<g id="Add_Event">
	<path d="M23.5,17c-3.584,0-6.5,2.916-6.5,6.5s2.916,6.5,6.5,6.5s6.5-2.916,6.5-6.5S27.084,17,23.5,17z M25.5,24H24v1.5
		c0,0.276-0.224,0.5-0.5,0.5S23,25.776,23,25.5V24h-1.5c-0.276,0-0.5-0.224-0.5-0.5s0.224-0.5,0.5-0.5H23v-1.5
		c0-0.276,0.224-0.5,0.5-0.5s0.5,0.224,0.5,0.5V23h1.5c0.276,0,0.5,0.224,0.5,0.5S25.776,24,25.5,24z"/>
	<path d="M14.5,13c0-1.471-0.521-2.654-0.543-2.704C13.876,10.116,13.697,10,13.5,10h-4c-0.197,0-0.376,0.116-0.457,0.296
		C9.021,10.346,8.5,11.529,8.5,13c0,1.483,1.084,2.71,2.5,2.949V18h-0.5c-0.276,0-0.5,0.224-0.5,0.5s0.224,0.5,0.5,0.5h2
		c0.276,0,0.5-0.224,0.5-0.5S12.776,18,12.5,18H12v-2.051C13.416,15.71,14.5,14.483,14.5,13z"/>
	<path d="M15.5,23h-11C2.57,23,1,21.43,1,19.5V6h21v9.5c0,0.276,0.224,0.5,0.5,0.5s0.5-0.224,0.5-0.5v-10C23,3.019,20.981,1,18.5,1
		H17V0.5C17,0.224,16.776,0,16.5,0S16,0.224,16,0.5V1v1v0.5C16,2.776,15.776,3,15.5,3S15,2.776,15,2.5V2V1H7V0.5
		C7,0.224,6.776,0,6.5,0S6,0.224,6,0.5V1v1v0.5C6,2.776,5.776,3,5.5,3S5,2.776,5,2.5V2V1H4.5C2.019,1,0,3.019,0,5.5v14
		C0,21.981,2.019,24,4.5,24h11c0.276,0,0.5-0.224,0.5-0.5S15.776,23,15.5,23z"/>
</g>
<g id="Remove_Event">
</g>
<g id="Event_Reminder">
</g>
<g id="Wine_Glass">
</g>
<g id="Toast">
</g>
<g id="Champagne">
</g>
<g id="Champagne_Open">
</g>
<g id="Alcohol_Drink">
</g>
<g id="Beer_Glass">
</g>
<g id="Party_Cake">
</g>
<g id="Pizza_Food">
</g>
<g id="Disco_Ball">
</g>
<g id="Equalizer">
</g>
<g id="DJ">
</g>
<g id="Tent">
</g>
<g id="Firework_1">
</g>
<g id="Firework_2">
</g>
<g id="Party_Glasses">
</g>
<g id="Barbeque">
</g>
<g id="Horn">
</g>
<g id="Speaker">
</g>
<g id="VIP">
</g>
<g id="Event_Ticket">
</g>
<g id="VIP_Ticket">
</g>
<g id="Popcorn">
</g>
<g id="Cord">
</g>
<g id="Invitation_1">
</g>
<g id="Invitation_2">
</g>
</svg>
