<?xml version="1.0" encoding="iso-8859-1"?>
<!-- Generator: Adobe Illustrator 19.2.1, SVG Export Plug-In . SVG Version: 6.00 Build 0)  -->
<svg version="1.1" xmlns="http://www.w3.org/2000/svg" xmlns:xlink="http://www.w3.org/1999/xlink" x="0px" y="0px"
	 viewBox="0 0 30 30" style="enable-background:new 0 0 30 30;" xml:space="preserve">
<g id="Event">
	<g>
		<path d="M23.5,2H21V0.5C21,0.224,20.776,0,20.5,0S20,0.224,20,0.5V2v1v2.5C20,5.776,19.776,6,19.5,6S19,5.776,19,5.5V3V2H9V0.5
			C9,0.224,8.776,0,8.5,0S8,0.224,8,0.5V2v1v2.5C8,5.776,7.776,6,7.5,6S7,5.776,7,5.5V3V2H5.5C2.467,2,0,4.467,0,7.5v1v15
			C0,26.533,2.467,29,5.5,29h18c3.033,0,5.5-2.467,5.5-5.5v-15v-1C29,4.467,26.533,2,23.5,2z M23.5,28h-18C3.019,28,1,25.981,1,23.5
			V9h27v14.5C28,25.981,25.981,28,23.5,28z"/>
		<path d="M16.5,11h-4c-0.138,0-0.271,0.057-0.365,0.158c-0.094,0.101-0.143,0.237-0.134,0.375l0.5,7.502
			C12.572,20.027,13.562,21,14.5,21s1.928-0.973,1.999-1.967l0.5-7.5c0.009-0.138-0.04-0.274-0.134-0.375
			C16.771,11.057,16.638,11,16.5,11z"/>
		<circle cx="14.5" cy="24" r="2"/>
	</g>
</g>
<g id="Event_2">
</g>
<g id="Add_Event">
</g>
<g id="Remove_Event">
</g>
<g id="Event_Reminder">
</g>
<g id="Wine_Glass">
</g>
<g id="Toast">
</g>
<g id="Champagne">
</g>
<g id="Champagne_Open">
</g>
<g id="Alcohol_Drink">
</g>
<g id="Beer_Glass">
</g>
<g id="Party_Cake">
</g>
<g id="Pizza_Food">
</g>
<g id="Disco_Ball">
</g>
<g id="Equalizer">
</g>
<g id="DJ">
</g>
<g id="Tent">
</g>
<g id="Firework_1">
</g>
<g id="Firework_2">
</g>
<g id="Party_Glasses">
</g>
<g id="Barbeque">
</g>
<g id="Horn">
</g>
<g id="Speaker">
</g>
<g id="VIP">
</g>
<g id="Event_Ticket">
</g>
<g id="VIP_Ticket">
</g>
<g id="Popcorn">
</g>
<g id="Cord">
</g>
<g id="Invitation_1">
</g>
<g id="Invitation_2">
</g>
</svg>
