<?xml version="1.0" encoding="iso-8859-1"?>
<!-- Generator: Adobe Illustrator 19.2.1, SVG Export Plug-In . SVG Version: 6.00 Build 0)  -->
<svg version="1.1" xmlns="http://www.w3.org/2000/svg" xmlns:xlink="http://www.w3.org/1999/xlink" x="0px" y="0px"
	 viewBox="0 0 30 30" style="enable-background:new 0 0 30 30;" xml:space="preserve">
<g id="Event">
</g>
<g id="Event_2">
	<g>
		<path d="M23.5,2H21V0.5C21,0.224,20.776,0,20.5,0S20,0.224,20,0.5V2v1v2.5C20,5.776,19.776,6,19.5,6S19,5.776,19,5.5V3V2H9V0.5
			C9,0.224,8.776,0,8.5,0S8,0.224,8,0.5V2v1v2.5C8,5.776,7.776,6,7.5,6S7,5.776,7,5.5V3V2H5.5C2.467,2,0,4.467,0,7.5v1v15
			C0,26.533,2.467,29,5.5,29h18c3.033,0,5.5-2.467,5.5-5.5v-15v-1C29,4.467,26.533,2,23.5,2z M28,23.5c0,2.481-2.019,4.5-4.5,4.5
			h-18C3.019,28,1,25.981,1,23.5V9h27V23.5z"/>
		<path d="M14,21.455V25h-1.5c-0.276,0-0.5,0.224-0.5,0.5s0.224,0.5,0.5,0.5h4c0.276,0,0.5-0.224,0.5-0.5S16.776,25,16.5,25H15
			v-3.545c2.244-0.224,4-1.902,4-3.955c0-1.707-0.997-4.093-1.039-4.194C17.883,13.121,17.701,13,17.5,13h-6
			c-0.201,0-0.382,0.12-0.46,0.305C10.997,13.405,10,15.779,10,17.5C10,19.553,11.756,21.231,14,21.455z"/>
	</g>
</g>
<g id="Add_Event">
</g>
<g id="Remove_Event">
</g>
<g id="Event_Reminder">
</g>
<g id="Wine_Glass">
</g>
<g id="Toast">
</g>
<g id="Champagne">
</g>
<g id="Champagne_Open">
</g>
<g id="Alcohol_Drink">
</g>
<g id="Beer_Glass">
</g>
<g id="Party_Cake">
</g>
<g id="Pizza_Food">
</g>
<g id="Disco_Ball">
</g>
<g id="Equalizer">
</g>
<g id="DJ">
</g>
<g id="Tent">
</g>
<g id="Firework_1">
</g>
<g id="Firework_2">
</g>
<g id="Party_Glasses">
</g>
<g id="Barbeque">
</g>
<g id="Horn">
</g>
<g id="Speaker">
</g>
<g id="VIP">
</g>
<g id="Event_Ticket">
</g>
<g id="VIP_Ticket">
</g>
<g id="Popcorn">
</g>
<g id="Cord">
</g>
<g id="Invitation_1">
</g>
<g id="Invitation_2">
</g>
</svg>
