<?xml version="1.0" encoding="iso-8859-1"?>
<!-- Generator: Adobe Illustrator 19.2.1, SVG Export Plug-In . SVG Version: 6.00 Build 0)  -->
<svg version="1.1" xmlns="http://www.w3.org/2000/svg" xmlns:xlink="http://www.w3.org/1999/xlink" x="0px" y="0px"
	 viewBox="0 0 30 30" style="enable-background:new 0 0 30 30;" xml:space="preserve">
<g id="Event">
</g>
<g id="Event_2">
</g>
<g id="Add_Event">
</g>
<g id="Remove_Event">
</g>
<g id="Event_Reminder">
</g>
<g id="Wine_Glass">
</g>
<g id="Toast">
</g>
<g id="Champagne">
</g>
<g id="Champagne_Open">
</g>
<g id="Alcohol_Drink">
</g>
<g id="Beer_Glass">
</g>
<g id="Party_Cake">
</g>
<g id="Pizza_Food">
</g>
<g id="Disco_Ball">
</g>
<g id="Equalizer">
</g>
<g id="DJ">
</g>
<g id="Tent">
</g>
<g id="Firework_1">
	<g>
		<path d="M29.5,0h-13c-0.202,0-0.385,0.122-0.462,0.309s-0.034,0.402,0.108,0.545l13,13C29.242,13.949,29.37,14,29.5,14
			c0.064,0,0.13-0.012,0.191-0.038C29.878,13.885,30,13.702,30,13.5v-13C30,0.224,29.776,0,29.5,0z"/>
		<polygon points="20.879,7 15,7 14.997,6.999 11.766,10 23.879,10 		"/>
		<polygon points="16.073,6 19.879,6 18.047,4.168 		"/>
		<polygon points="10.689,11 7.458,14 23.707,14 25.793,11.914 24.879,11 		"/>
		<path d="M7.373,23.399l-6.212,5.734c-0.203,0.187-0.216,0.503-0.028,0.707C1.231,29.946,1.365,30,1.5,30
			c0.121,0,0.243-0.044,0.339-0.133l6.193-5.716l0.615,0.703c0.59,0.589,1.347,0.884,2.104,0.884s1.514-0.295,2.104-0.884L14.707,23
			H7.024L7.373,23.399z"/>
		<path d="M4.921,20.58c-0.483,1.085-1.249,1.687-1.94,2.016c0.031-0.158-0.005-0.327-0.128-0.45c-0.195-0.195-0.512-0.195-0.707,0
			L1.5,22.793l-0.646-0.646c-0.195-0.195-0.512-0.195-0.707,0s-0.195,0.512,0,0.707L0.793,23.5l-0.646,0.646
			c-0.195,0.195-0.195,0.512,0,0.707C0.244,24.951,0.372,25,0.5,25s0.256-0.049,0.354-0.146L1.5,24.207l0.646,0.646
			C2.244,24.951,2.372,25,2.5,25s0.256-0.049,0.354-0.146c0.195-0.195,0.195-0.512,0-0.707l-0.321-0.321
			c0.921-0.253,2.25-0.881,3.095-2.421L6.149,22h9.558l3-3H4.31C4.387,19.611,4.602,20.159,4.921,20.58z"/>
		<path d="M6.402,14.98l-1.256,1.166C4.69,16.603,4.404,17.263,4.31,18h15.397l3-3H6.5C6.465,15,6.435,14.987,6.402,14.98z"/>
	</g>
</g>
<g id="Firework_2">
</g>
<g id="Party_Glasses">
</g>
<g id="Barbeque">
</g>
<g id="Horn">
</g>
<g id="Speaker">
</g>
<g id="VIP">
</g>
<g id="Event_Ticket">
</g>
<g id="VIP_Ticket">
</g>
<g id="Popcorn">
</g>
<g id="Cord">
</g>
<g id="Invitation_1">
</g>
<g id="Invitation_2">
</g>
</svg>
