<?xml version="1.0" encoding="iso-8859-1"?>
<!-- Generator: Adobe Illustrator 19.2.1, SVG Export Plug-In . SVG Version: 6.00 Build 0)  -->
<svg version="1.1" xmlns="http://www.w3.org/2000/svg" xmlns:xlink="http://www.w3.org/1999/xlink" x="0px" y="0px"
	 viewBox="0 0 30 30" style="enable-background:new 0 0 30 30;" xml:space="preserve">
<g id="Event">
</g>
<g id="Event_2">
</g>
<g id="Add_Event">
</g>
<g id="Remove_Event">
</g>
<g id="Event_Reminder">
</g>
<g id="Wine_Glass">
</g>
<g id="Toast">
</g>
<g id="Champagne">
</g>
<g id="Champagne_Open">
</g>
<g id="Alcohol_Drink">
</g>
<g id="Beer_Glass">
</g>
<g id="Party_Cake">
</g>
<g id="Pizza_Food">
</g>
<g id="Disco_Ball">
</g>
<g id="Equalizer">
</g>
<g id="DJ">
</g>
<g id="Tent">
</g>
<g id="Firework_1">
</g>
<g id="Firework_2">
</g>
<g id="Party_Glasses">
</g>
<g id="Barbeque">
</g>
<g id="Horn">
</g>
<g id="Speaker">
</g>
<g id="VIP">
</g>
<g id="Event_Ticket">
</g>
<g id="VIP_Ticket">
</g>
<g id="Popcorn">
</g>
<g id="Cord">
</g>
<g id="Invitation_1">
</g>
<g id="Invitation_2">
	<g>
		<path d="M2.21,12.907C2.078,12.813,2,12.662,2,12.5V8.82L0.68,9.616C0.261,9.965,0,10.495,0,11v17.25
			c0,0.303,0.085,0.585,0.221,0.834l11.936-9.092L2.21,12.907z"/>
		<path d="M15.98,19.4L26,12.243V8.217V7.5v-7c0-0.133-0.053-0.26-0.146-0.354S25.633,0,25.5,0l-22,0.016
			c-0.276,0-0.5,0.224-0.5,0.5V7.5v0.718v4.024l10.02,7.136C13.906,18.893,15.084,18.9,15.98,19.4z M10,9.5
			C10,9.224,10.224,9,10.5,9H14V5.5C14,5.224,14.224,5,14.5,5S15,5.224,15,5.5V9h3.5C18.776,9,19,9.224,19,9.5S18.776,10,18.5,10H15
			v3.5c0,0.276-0.224,0.5-0.5,0.5S14,13.776,14,13.5V10h-3.5C10.224,10,10,9.776,10,9.5z"/>
		<path d="M13.303,20.376L0.941,29.792C1.184,29.921,1.457,30,1.75,30h25.5c0.293,0,0.566-0.079,0.809-0.207l-12.361-9.395
			C15.03,19.889,13.956,19.88,13.303,20.376z"/>
		<path d="M28.257,9.571L27,8.817V12.5c0,0.162-0.078,0.313-0.209,0.407l-9.948,7.106l11.936,9.071
			C28.915,28.835,29,28.553,29,28.25V11C29,10.495,28.739,9.965,28.257,9.571z"/>
	</g>
</g>
</svg>
