<?xml version="1.0" encoding="iso-8859-1"?>
<!-- Generator: Adobe Illustrator 19.2.1, SVG Export Plug-In . SVG Version: 6.00 Build 0)  -->
<svg version="1.1" xmlns="http://www.w3.org/2000/svg" xmlns:xlink="http://www.w3.org/1999/xlink" x="0px" y="0px"
	 viewBox="0 0 30 30" style="enable-background:new 0 0 30 30;" xml:space="preserve">
<g id="Event">
</g>
<g id="Event_2">
</g>
<g id="Add_Event">
</g>
<g id="Remove_Event">
</g>
<g id="Event_Reminder">
</g>
<g id="Wine_Glass">
</g>
<g id="Toast">
</g>
<g id="Champagne">
</g>
<g id="Champagne_Open">
</g>
<g id="Alcohol_Drink">
</g>
<g id="Beer_Glass">
</g>
<g id="Party_Cake">
</g>
<g id="Pizza_Food">
	<g>
		<path d="M25.5,7c-0.762,0-1.504,0.208-2.156,0.598C22.908,5.711,21.494,4,19.5,4c-0.769,0-1.819,0.225-2.633,0.651
			C16.427,2.996,15.009,2,13,2c-2.343,0-4.25,1.907-4.25,4.25c0,0.49,0.096,0.961,0.258,1.41l19.149,6.865
			C29.232,13.916,30,12.77,30,11.5C30,9.145,27.855,7,25.5,7z"/>
		<path d="M6.679,14.043c0.021,0.008,0.042,0.008,0.062,0.019C7.96,14.734,10,15.858,10,17.5c0,2.212-2.057,4.5-5.5,4.5
			c-0.093,0-0.253,0.005-0.444,0.011c-0.365,0.011-0.695,0.02-0.97,0.02c-0.152,0-0.287-0.003-0.402-0.009l-2.631,5.255
			c-0.096,0.192-0.059,0.425,0.094,0.577C0.242,27.95,0.371,28,0.5,28c0.076,0,0.152-0.017,0.224-0.053l12.796-6.398
			C12.238,20.669,11,18.928,11,17.5c0-2.271,2.724-4.5,5.5-4.5c2.527,0,4.165,2.631,4.451,4.834l5.626-2.813L9.292,8.824
			L6.679,14.043z"/>
		<path d="M4.5,21C7.317,21,9,19.22,9,17.5c0-1.052-1.783-2.034-2.741-2.562c-0.008-0.004-0.012-0.012-0.02-0.017L3.181,21.03
			c0.304-0.002,0.645-0.012,0.845-0.018C4.23,21.005,4.401,21,4.5,21z"/>
		<path d="M16.5,14c-2.229,0-4.5,1.767-4.5,3.5c0,1.172,1.31,2.859,2.381,3.417l0.226,0.088l5.384-2.692
			C19.901,16.527,18.533,14,16.5,14z"/>
	</g>
</g>
<g id="Disco_Ball">
</g>
<g id="Equalizer">
</g>
<g id="DJ">
</g>
<g id="Tent">
</g>
<g id="Firework_1">
</g>
<g id="Firework_2">
</g>
<g id="Party_Glasses">
</g>
<g id="Barbeque">
</g>
<g id="Horn">
</g>
<g id="Speaker">
</g>
<g id="VIP">
</g>
<g id="Event_Ticket">
</g>
<g id="VIP_Ticket">
</g>
<g id="Popcorn">
</g>
<g id="Cord">
</g>
<g id="Invitation_1">
</g>
<g id="Invitation_2">
</g>
</svg>
