<?xml version="1.0" encoding="utf-8"?>
<!-- Generator: Adobe Illustrator 19.0.0, SVG Export Plug-In . SVG Version: 6.00 Build 0)  -->
<svg version="1.1" id="Layer_1" xmlns="http://www.w3.org/2000/svg" xmlns:xlink="http://www.w3.org/1999/xlink" x="0px" y="0px"
	 viewBox="0 0 30 30" style="enable-background:new 0 0 30 30;" xml:space="preserve">
<g id="XMLID_72_">
	<g id="XMLID_73_">
		<path id="XMLID_310_" d="M14.5,0h-12C1.1,0,0,1.1,0,2.5V4h17V2.5C17,1.1,15.9,0,14.5,0z M8.5,3h-1C7.2,3,7,2.8,7,2.5S7.2,2,7.5,2
			h1C8.8,2,9,2.2,9,2.5S8.8,3,8.5,3z M12.5,3C12.3,3,12,2.8,12,2.5S12.2,2,12.5,2h0C12.8,2,13,2.2,13,2.5S12.8,3,12.5,3z"/>
	</g>
	<g id="XMLID_77_">
		<rect id="XMLID_276_" y="5" width="17" height="20"/>
	</g>
	<g id="XMLID_78_">
		<path id="XMLID_302_" d="M0,27.5C0,28.9,1.1,30,2.5,30h12c1.4,0,2.5-1.1,2.5-2.5V26H0V27.5z M12.5,27h2c0.3,0,0.5,0.2,0.5,0.5
			S14.8,28,14.5,28h-2c-0.3,0-0.5-0.2-0.5-0.5S12.2,27,12.5,27z M2.5,27h2C4.8,27,5,27.2,5,27.5S4.8,28,4.5,28h-2
			C2.2,28,2,27.8,2,27.5S2.2,27,2.5,27z"/>
	</g>
	<g id="XMLID_82_">
		<path id="XMLID_297_" d="M27,12h-1v18h1c1.7,0,3-1.3,3-3V15C30,13.3,28.7,12,27,12z M27,20.5c0-0.3,0.2-0.5,0.5-0.5
			s0.5,0.2,0.5,0.5v1c0,0.3-0.2,0.5-0.5,0.5S27,21.8,27,21.5V20.5z M27.5,26c-0.3,0-0.5-0.2-0.5-0.5s0.2-0.5,0.5-0.5h0
			c0.3,0,0.5,0.2,0.5,0.5S27.8,26,27.5,26z"/>
	</g>
	<g id="XMLID_86_">
		<path id="XMLID_275_" d="M18,12.5v15c0,0.6-0.2,1.2-0.5,1.7c-0.1,0.2-0.1,0.3,0,0.5s0.3,0.3,0.4,0.3H25V12h-6.5
			C18.2,12,18,12.2,18,12.5z"/>
	</g>
	<g id="XMLID_87_">
		<path id="XMLID_274_" d="M26.5,10.5c0.1,0,0.3-0.1,0.4-0.2l2-2c0.2-0.2,0.2-0.5,0-0.7s-0.5-0.2-0.7,0L27,8.8
			C26.9,4.3,23.7,1,19.5,1C19.2,1,19,1.2,19,1.5S19.2,2,19.5,2c3.6,0,6.4,2.9,6.5,6.7c-0.3-0.3-0.7-0.6-1.1-1.1
			c-0.2-0.2-0.5-0.2-0.7,0c-0.2,0.2-0.2,0.5,0,0.7c0.8,0.8,1.7,1.6,1.9,1.9C26.1,10.4,26.3,10.5,26.5,10.5z"/>
	</g>
</g>
</svg>
