<?xml version="1.0" encoding="iso-8859-1"?>
<!-- Generator: Adobe Illustrator 19.2.1, SVG Export Plug-In . SVG Version: 6.00 Build 0)  -->
<svg version="1.1" xmlns="http://www.w3.org/2000/svg" xmlns:xlink="http://www.w3.org/1999/xlink" x="0px" y="0px"
	 viewBox="0 0 30 30" style="enable-background:new 0 0 30 30;" xml:space="preserve">
<g id="Restaurant_sign_1">
</g>
<g id="Restaurant_Sign_2">
</g>
<g id="Restaurant_Sign_3">
</g>
<g id="Hot_Drink_1">
</g>
<g id="Hot_Drink_2">
</g>
<g id="Cocktail">
</g>
<g id="Shot_Glasses">
</g>
<g id="Chilled_Champagne">
</g>
<g id="Wine">
</g>
<g id="Wine_List">
</g>
<g id="Menu">
</g>
<g id="Menu_2">
</g>
<g id="Salver">
</g>
<g id="Soup">
</g>
<g id="Sushi">
</g>
<g id="Pizza">
</g>
<g id="Pizza_Slice">
</g>
<g id="Fish">
</g>
<g id="Sausage">
</g>
<g id="Course">
</g>
<g id="Dessert">
</g>
<g id="Cutlery">
</g>
<g id="Napkin">
</g>
<g id="Table">
</g>
<g id="Spices">
</g>
<g id="Hot_Sauce">
</g>
<g id="Reserved_1">
</g>
<g id="Reserved_2">
</g>
<g id="Open">
</g>
<g id="Food_Photo">
</g>
<g id="Chef">
</g>
<g id="Bill">
	<g>
		<g id="XMLID_260_">
			<path d="M24.5,30h-13c-0.276,0-0.5-0.224-0.5-0.5v-24C11,5.224,11.224,5,11.5,5h13C24.776,5,25,5.224,25,5.5v24
				C25,29.776,24.776,30,24.5,30z M12,29h12V6H12V29z"/>
		</g>
		<g id="XMLID_261_">
			<path d="M11.489,30c-0.113,0-0.227-0.038-0.32-0.116l-5.99-5C5.066,24.789,5,24.648,5,24.5v-23c0-0.188,0.105-0.36,0.273-0.445
				c0.167-0.087,0.369-0.069,0.521,0.041l6,4.369c0.223,0.163,0.272,0.476,0.11,0.698c-0.163,0.224-0.476,0.272-0.699,0.11L6,2.482
				v21.783l5.81,4.851c0.212,0.177,0.241,0.492,0.063,0.704C11.775,29.938,11.633,30,11.489,30z"/>
		</g>
		<g id="XMLID_262_">
			<path d="M11.848,26.218c-0.164,0-0.324-0.08-0.42-0.228c-0.15-0.231-0.084-0.541,0.147-0.691l12.609-8.196
				c0.23-0.15,0.541-0.085,0.692,0.146c0.15,0.231,0.084,0.541-0.147,0.691L12.12,26.137C12.036,26.191,11.941,26.218,11.848,26.218
				z"/>
		</g>
		<g id="XMLID_263_">
			<path d="M14.5,24.5c-0.276,0-0.5-0.224-0.5-0.5V10.5c0-0.276,0.224-0.5,0.5-0.5h7c0.276,0,0.5,0.224,0.5,0.5V19
				c0,0.276-0.224,0.5-0.5,0.5S21,19.276,21,19v-8h-6v13C15,24.276,14.776,24.5,14.5,24.5z"/>
		</g>
		<g id="XMLID_264_">
			<path d="M18.5,15h-1c-0.276,0-0.5-0.224-0.5-0.5s0.224-0.5,0.5-0.5h1c0.276,0,0.5,0.224,0.5,0.5S18.776,15,18.5,15z"/>
		</g>
		<g id="XMLID_265_">
			<path d="M18.5,17h-1c-0.276,0-0.5-0.224-0.5-0.5s0.224-0.5,0.5-0.5h1c0.276,0,0.5,0.224,0.5,0.5S18.776,17,18.5,17z"/>
		</g>
		<g id="XMLID_266_">
			<path d="M18.5,19h-1c-0.276,0-0.5-0.224-0.5-0.5s0.224-0.5,0.5-0.5h1c0.276,0,0.5,0.224,0.5,0.5S18.776,19,18.5,19z"/>
		</g>
	</g>
</g>
<g id="Bill_2">
</g>
<g id="Paying_1">
</g>
<g id="Paying_2">
</g>
<g id="Restaurant_Place">
</g>
</svg>
