<?xml version="1.0" encoding="iso-8859-1"?>
<!-- Generator: Adobe Illustrator 19.2.1, SVG Export Plug-In . SVG Version: 6.00 Build 0)  -->
<svg version="1.1" xmlns="http://www.w3.org/2000/svg" xmlns:xlink="http://www.w3.org/1999/xlink" x="0px" y="0px"
	 viewBox="0 0 30 30" style="enable-background:new 0 0 30 30;" xml:space="preserve">
<g id="Restaurant_sign_1">
</g>
<g id="Restaurant_Sign_2">
</g>
<g id="Restaurant_Sign_3">
</g>
<g id="Hot_Drink_1">
</g>
<g id="Hot_Drink_2">
</g>
<g id="Cocktail">
</g>
<g id="Shot_Glasses">
</g>
<g id="Chilled_Champagne">
	<g>
		<g id="XMLID_7_">
			<path d="M20.016,30H9.984c-1.007,0-1.729-1.008-1.747-1.913c-0.188-9.253-2.44-16.364-2.463-16.435
				c-0.085-0.263,0.06-0.544,0.322-0.629c0.263-0.085,0.545,0.06,0.629,0.323c0.023,0.072,2.32,7.322,2.512,16.72
				C9.246,28.529,9.623,29,9.984,29h10.031c0.361,0,0.738-0.471,0.747-0.933c0.19-9.42,2.488-16.649,2.512-16.721
				c0.085-0.263,0.369-0.405,0.629-0.323c0.263,0.085,0.407,0.367,0.322,0.629c-0.022,0.071-2.275,7.168-2.463,16.434
				C21.745,28.992,21.022,30,20.016,30z"/>
		</g>
		<g id="XMLID_100_">
			<path d="M25.5,12h-21C4.224,12,4,11.776,4,11.5S4.224,11,4.5,11h21c0.276,0,0.5,0.224,0.5,0.5S25.776,12,25.5,12z"/>
		</g>
		<g>
			<path d="M21.37,26H8.63c-0.276,0-0.5-0.224-0.5-0.5S8.354,25,8.63,25h12.74c0.276,0,0.5,0.224,0.5,0.5S21.646,26,21.37,26z"/>
		</g>
		<g>
			<path d="M21.52,24H8.48c-0.276,0-0.5-0.224-0.5-0.5S8.204,23,8.48,23H21.52c0.276,0,0.5,0.224,0.5,0.5S21.796,24,21.52,24z"/>
		</g>
		<g>
			<path d="M8.759,12c-0.242,0-0.455-0.177-0.493-0.425c-0.276-1.809-0.562-3.68-1.755-6.126L5.16,2.668
				C4.794,1.906,5.103,0.985,5.847,0.613l0.924-0.452c0.355-0.18,0.769-0.211,1.155-0.082C8.319,0.21,8.637,0.487,8.819,0.86
				l1.36,2.791c1.155,2.38,2.444,3.761,3.69,5.096c0.739,0.792,1.438,1.541,2.089,2.466c0.158,0.226,0.104,0.538-0.122,0.697
				c-0.224,0.158-0.536,0.105-0.696-0.122c-0.61-0.868-1.286-1.592-2.002-2.359c-1.296-1.389-2.637-2.825-3.858-5.34L7.921,1.299
				C7.857,1.17,7.747,1.073,7.609,1.027c-0.13-0.043-0.27-0.034-0.393,0.028L6.29,1.509C6.035,1.637,5.931,1.962,6.061,2.233
				l1.35,2.778c1.259,2.582,1.569,4.617,1.844,6.413c0.042,0.273-0.146,0.528-0.419,0.569C8.81,11.998,8.784,12,8.759,12z"/>
		</g>
	</g>
</g>
<g id="Wine">
</g>
<g id="Wine_List">
</g>
<g id="Menu">
</g>
<g id="Menu_2">
</g>
<g id="Salver">
</g>
<g id="Soup">
</g>
<g id="Sushi">
</g>
<g id="Pizza">
</g>
<g id="Pizza_Slice">
</g>
<g id="Fish">
</g>
<g id="Sausage">
</g>
<g id="Course">
</g>
<g id="Dessert">
</g>
<g id="Cutlery">
</g>
<g id="Napkin">
</g>
<g id="Table">
</g>
<g id="Spices">
</g>
<g id="Hot_Sauce">
</g>
<g id="Reserved_1">
</g>
<g id="Reserved_2">
</g>
<g id="Open">
</g>
<g id="Food_Photo">
</g>
<g id="Chef">
</g>
<g id="Bill">
</g>
<g id="Bill_2">
</g>
<g id="Paying_1">
</g>
<g id="Paying_2">
</g>
<g id="Restaurant_Place">
</g>
</svg>
