<?xml version="1.0" encoding="iso-8859-1"?>
<!-- Generator: Adobe Illustrator 19.2.1, SVG Export Plug-In . SVG Version: 6.00 Build 0)  -->
<svg version="1.1" xmlns="http://www.w3.org/2000/svg" xmlns:xlink="http://www.w3.org/1999/xlink" x="0px" y="0px"
	 viewBox="0 0 30 30" style="enable-background:new 0 0 30 30;" xml:space="preserve">
<g id="Restaurant_sign_1">
</g>
<g id="Restaurant_Sign_2">
</g>
<g id="Restaurant_Sign_3">
</g>
<g id="Hot_Drink_1">
</g>
<g id="Hot_Drink_2">
</g>
<g id="Cocktail">
</g>
<g id="Shot_Glasses">
</g>
<g id="Chilled_Champagne">
</g>
<g id="Wine">
</g>
<g id="Wine_List">
</g>
<g id="Menu">
</g>
<g id="Menu_2">
</g>
<g id="Salver">
</g>
<g id="Soup">
</g>
<g id="Sushi">
</g>
<g id="Pizza">
</g>
<g id="Pizza_Slice">
</g>
<g id="Fish">
</g>
<g id="Sausage">
</g>
<g id="Course">
</g>
<g id="Dessert">
</g>
<g id="Cutlery">
</g>
<g id="Napkin">
</g>
<g id="Table">
</g>
<g id="Spices">
</g>
<g id="Hot_Sauce">
	<g>
		<g id="XMLID_316_">
			<path d="M15,30c-1.169,0-7-0.085-7-1.761V10.5C8,9.121,9.121,8,10.5,8h9c1.379,0,2.5,1.121,2.5,2.5v17.739
				C22,29.915,16.169,30,15,30z M9,28.149C9.386,28.472,11.593,29,15,29s5.614-0.528,6-0.851V10.5C21,9.673,20.327,9,19.5,9h-9
				C9.673,9,9,9.673,9,10.5V28.149z"/>
		</g>
		<g id="XMLID_322_">
			<path d="M18.5,9h-7C11.224,9,11,8.776,11,8.5V6.805c0-1.021,0.563-1.291,1.015-1.508c0.108-0.052,0.225-0.106,0.344-0.18
				c0.881-0.539,0.881-2.339,0.881-4.617c0-0.276,0.224-0.5,0.5-0.5h2.521c0.276,0,0.5,0.224,0.5,0.5c0,2.275,0,4.073,0.883,4.618
				l0,0c0.122,0.075,0.24,0.13,0.351,0.181C18.419,5.496,19,5.766,19,6.805V8.5C19,8.776,18.776,9,18.5,9z M12,8h6V6.805
				c0-0.4-0.049-0.423-0.427-0.599C17.43,6.14,17.276,6.067,17.118,5.97l0,0C15.85,5.186,15.767,3.349,15.761,1h-1.521
				c-0.006,2.434-0.086,4.191-1.359,4.971c-0.15,0.092-0.296,0.162-0.433,0.228C12.06,6.385,12,6.413,12,6.805V8z"/>
		</g>
		<g id="XMLID_315_">
			<path d="M15,24.956c-2.206,0-4-1.921-4-4.282c0-1.146,0.805-2.396,1.656-3.721c0.833-1.294,1.693-2.632,1.848-3.904
				c0.031-0.263,0.228-0.477,0.526-0.439c0.264,0.016,0.47,0.234,0.47,0.499c0,4.115,1.193,4.867,2.151,5.472
				C18.283,18.979,19,19.43,19,20.674C19,23.035,17.206,24.956,15,24.956z M14.675,15.545c-0.349,0.661-0.766,1.311-1.178,1.949
				C12.728,18.691,12,19.821,12,20.674c0,1.81,1.346,3.282,3,3.282s3-1.473,3-3.282c0-0.692-0.295-0.878-0.882-1.248
				C16.24,18.872,15.104,18.156,14.675,15.545z"/>
		</g>
		<g id="XMLID_320_">
			<path d="M15,24.956c-1.455,0-1.761-0.738-1.761-1.357c0-1.046,1.389-2.576,2.066-2.06c0.342,0.264,1.455,1.192,1.455,2.066
				C16.761,24.222,16.455,24.956,15,24.956z M14.9,22.5c-0.235,0.194-0.661,0.746-0.661,1.099c0,0.159,0,0.357,0.761,0.357
				s0.761-0.187,0.761-0.351C15.761,23.383,15.34,22.883,14.9,22.5z"/>
		</g>
	</g>
</g>
<g id="Reserved_1">
</g>
<g id="Reserved_2">
</g>
<g id="Open">
</g>
<g id="Food_Photo">
</g>
<g id="Chef">
</g>
<g id="Bill">
</g>
<g id="Bill_2">
</g>
<g id="Paying_1">
</g>
<g id="Paying_2">
</g>
<g id="Restaurant_Place">
</g>
</svg>
