<?xml version="1.0" encoding="iso-8859-1"?>
<!-- Generator: Adobe Illustrator 19.2.1, SVG Export Plug-In . SVG Version: 6.00 Build 0)  -->
<svg version="1.1" xmlns="http://www.w3.org/2000/svg" xmlns:xlink="http://www.w3.org/1999/xlink" x="0px" y="0px"
	 viewBox="0 0 30 30" style="enable-background:new 0 0 30 30;" xml:space="preserve">
<g id="Restaurant_sign_1">
</g>
<g id="Restaurant_Sign_2">
</g>
<g id="Restaurant_Sign_3">
</g>
<g id="Hot_Drink_1">
</g>
<g id="Hot_Drink_2">
</g>
<g id="Cocktail">
</g>
<g id="Shot_Glasses">
</g>
<g id="Chilled_Champagne">
</g>
<g id="Wine">
</g>
<g id="Wine_List">
</g>
<g id="Menu">
</g>
<g id="Menu_2">
</g>
<g id="Salver">
</g>
<g id="Soup">
</g>
<g id="Sushi">
</g>
<g id="Pizza">
</g>
<g id="Pizza_Slice">
</g>
<g id="Fish">
</g>
<g id="Sausage">
</g>
<g id="Course">
</g>
<g id="Dessert">
</g>
<g id="Cutlery">
</g>
<g id="Napkin">
</g>
<g id="Table">
</g>
<g id="Spices">
</g>
<g id="Hot_Sauce">
</g>
<g id="Reserved_1">
</g>
<g id="Reserved_2">
</g>
<g id="Open">
	<g>
		<g id="XMLID_334_">
			<path d="M7.5,14h-1C5.673,14,5,13.327,5,12.5v-3C5,8.673,5.673,8,6.5,8h1C8.327,8,9,8.673,9,9.5v3C9,13.327,8.327,14,7.5,14z
				 M6.5,9C6.225,9,6,9.225,6,9.5v3C6,12.775,6.225,13,6.5,13h1C7.775,13,8,12.775,8,12.5v-3C8,9.225,7.775,9,7.5,9H6.5z"/>
		</g>
		<g id="XMLID_17_">
			<path d="M10.5,14c-0.276,0-0.5-0.224-0.5-0.5v-5C10,8.224,10.224,8,10.5,8H12c1.103,0,2,0.897,2,2s-0.897,2-2,2h-1v1.5
				C11,13.776,10.776,14,10.5,14z M11,11h1c0.552,0,1-0.448,1-1s-0.448-1-1-1h-1V11z"/>
		</g>
		<g id="XMLID_332_">
			<path d="M17.5,14h-2c-0.276,0-0.5-0.224-0.5-0.5v-5C15,8.224,15.224,8,15.5,8h2C17.776,8,18,8.224,18,8.5S17.776,9,17.5,9H16v4
				h1.5c0.276,0,0.5,0.224,0.5,0.5S17.776,14,17.5,14z"/>
		</g>
		<g id="XMLID_331_">
			<path d="M17.5,11H16c-0.276,0-0.5-0.224-0.5-0.5S15.724,10,16,10h1.5c0.276,0,0.5,0.224,0.5,0.5S17.776,11,17.5,11z"/>
		</g>
		<g id="XMLID_330_">
			<path d="M22.5,14c-0.173,0-0.337-0.09-0.429-0.243L20,10.305V13.5c0,0.276-0.224,0.5-0.5,0.5S19,13.776,19,13.5v-5
				c0-0.225,0.15-0.422,0.366-0.481c0.222-0.062,0.447,0.032,0.563,0.225L22,11.695V8.5C22,8.224,22.224,8,22.5,8S23,8.224,23,8.5v5
				c0,0.225-0.15,0.422-0.366,0.481C22.589,13.994,22.544,14,22.5,14z"/>
		</g>
		<g id="XMLID_329_">
			<path d="M11.307,20.691c-0.477,0-0.953-0.174-1.299-0.52c-0.528-0.529-1.715-2.667-0.892-3.49
				c0.821-0.822,2.961,0.362,3.49,0.892c0.691,0.691,0.691,1.905,0,2.599C12.261,20.518,11.784,20.691,11.307,20.691z M9.926,17.385
				c-0.052,0-0.093,0.007-0.124,0.021c-0.098,0.26,0.467,1.612,0.913,2.06c0.299,0.299,0.886,0.299,1.185,0s0.299-0.886,0-1.185
				C11.499,17.88,10.369,17.385,9.926,17.385z"/>
		</g>
		<g id="XMLID_328_">
			<path d="M18.5,26c-0.12,0-0.24-0.043-0.336-0.13l-6.021-5.456c-0.204-0.185-0.22-0.501-0.034-0.706
				c0.187-0.204,0.503-0.219,0.706-0.034l6.021,5.456c0.204,0.185,0.22,0.501,0.034,0.706C18.771,25.944,18.636,26,18.5,26z"/>
		</g>
		<g id="XMLID_327_">
			<path d="M10.5,26c-0.131,0-0.262-0.051-0.359-0.152c-0.192-0.199-0.187-0.516,0.012-0.707l8.913-8.608
				c0.158-0.151,0.394-0.184,0.584-0.081c0.191,0.103,0.295,0.316,0.256,0.53c-0.047,0.253-0.478,2.493-1.399,3.416
				c-0.49,0.488-1.581,0.319-2.187,0.177l-5.472,5.285C10.75,25.953,10.625,26,10.5,26z M17.217,19.708
				c0.283,0.026,0.514,0.019,0.598-0.031c0.244-0.245,0.459-0.686,0.635-1.159L17.217,19.708z"/>
		</g>
		<g id="XMLID_326_">
			<path d="M25.5,30h-22C1.57,30,0,28.43,0,26.5v-19C0,5.57,1.57,4,3.5,4h22C27.43,4,29,5.57,29,7.5v19C29,28.43,27.43,30,25.5,30z
				 M3.5,5C2.121,5,1,6.121,1,7.5v19C1,27.879,2.121,29,3.5,29h22c1.379,0,2.5-1.121,2.5-2.5v-19C28,6.121,26.879,5,25.5,5H3.5z"/>
		</g>
		<g id="XMLID_325_">
			<path d="M23.5,5c-0.068,0-0.137-0.014-0.203-0.043L14.5,1.047l-8.797,3.91C5.45,5.068,5.156,4.956,5.043,4.703
				c-0.112-0.252,0.002-0.548,0.254-0.66l9-4c0.129-0.057,0.277-0.057,0.406,0l9,4c0.252,0.112,0.366,0.408,0.254,0.66
				C23.874,4.89,23.691,5,23.5,5z"/>
		</g>
	</g>
</g>
<g id="Food_Photo">
</g>
<g id="Chef">
</g>
<g id="Bill">
</g>
<g id="Bill_2">
</g>
<g id="Paying_1">
</g>
<g id="Paying_2">
</g>
<g id="Restaurant_Place">
</g>
</svg>
