<?xml version="1.0" encoding="iso-8859-1"?>
<!-- Generator: Adobe Illustrator 19.2.1, SVG Export Plug-In . SVG Version: 6.00 Build 0)  -->
<svg version="1.1" xmlns="http://www.w3.org/2000/svg" xmlns:xlink="http://www.w3.org/1999/xlink" x="0px" y="0px"
	 viewBox="0 0 30 30" style="enable-background:new 0 0 30 30;" xml:space="preserve">
<g id="Restaurant_sign_1">
</g>
<g id="Restaurant_Sign_2">
</g>
<g id="Restaurant_Sign_3">
</g>
<g id="Hot_Drink_1">
</g>
<g id="Hot_Drink_2">
</g>
<g id="Cocktail">
</g>
<g id="Shot_Glasses">
</g>
<g id="Chilled_Champagne">
</g>
<g id="Wine">
</g>
<g id="Wine_List">
</g>
<g id="Menu">
</g>
<g id="Menu_2">
</g>
<g id="Salver">
</g>
<g id="Soup">
</g>
<g id="Sushi">
</g>
<g id="Pizza">
</g>
<g id="Pizza_Slice">
</g>
<g id="Fish">
</g>
<g id="Sausage">
</g>
<g id="Course">
</g>
<g id="Dessert">
</g>
<g id="Cutlery">
</g>
<g id="Napkin">
</g>
<g id="Table">
</g>
<g id="Spices">
</g>
<g id="Hot_Sauce">
</g>
<g id="Reserved_1">
	<g id="XMLID_236_">
		<g id="XMLID_237_">
			<path d="M0.5,23c-0.075,0-0.15-0.017-0.222-0.052c-0.248-0.123-0.349-0.423-0.227-0.67l5.042-10.177
				c0.006-0.014,0.014-0.027,0.021-0.04c0,0,0,0,0-0.001l0,0c0.013-0.021,0.025-0.039,0.04-0.057c0-0.001,0.001-0.001,0.001-0.001
				v-0.001c0.064-0.078,0.153-0.139,0.258-0.166c0-0.001,0.001-0.001,0.001-0.001l0,0c0.012-0.003,0.022-0.005,0.034-0.008
				L24.357,8.01c0.226-0.048,0.446,0.065,0.547,0.269l5.044,10.182c0.068,0.139,0.069,0.303,0.001,0.441
				c-0.068,0.14-0.198,0.239-0.351,0.271L10.686,22.99c-0.229,0.046-0.446-0.065-0.547-0.269l-4.595-9.277l-4.596,9.277
				C0.86,22.898,0.684,23,0.5,23z M6.281,12.68l4.583,9.254l17.898-3.613l-4.584-9.254L6.281,12.68z"/>
		</g>
		<g id="XMLID_238_">
			<path d="M10.586,15.363c-0.232,0-0.441-0.164-0.489-0.401c-0.055-0.271,0.121-0.534,0.392-0.589l12.608-2.545
				c0.267-0.055,0.534,0.12,0.589,0.392c0.055,0.271-0.121,0.534-0.392,0.589l-12.608,2.545
				C10.652,15.36,10.619,15.363,10.586,15.363z"/>
		</g>
		<g id="XMLID_242_">
			<path d="M11.847,17.909c-0.232,0-0.441-0.164-0.489-0.401c-0.055-0.271,0.121-0.534,0.392-0.589l6.305-1.272
				c0.267-0.053,0.534,0.12,0.589,0.392c0.055,0.271-0.121,0.534-0.392,0.589l-6.305,1.272
				C11.913,17.906,11.88,17.909,11.847,17.909z"/>
		</g>
		<g id="XMLID_239_">
			<path d="M0.499,23c-0.232,0-0.441-0.164-0.489-0.401c-0.055-0.271,0.12-0.534,0.392-0.589l9.17-1.852
				c0.265-0.057,0.534,0.12,0.589,0.392c0.055,0.271-0.12,0.534-0.392,0.589l-9.17,1.852C0.565,22.997,0.532,23,0.499,23z"/>
		</g>
	</g>
</g>
<g id="Reserved_2">
</g>
<g id="Open">
</g>
<g id="Food_Photo">
</g>
<g id="Chef">
</g>
<g id="Bill">
</g>
<g id="Bill_2">
</g>
<g id="Paying_1">
</g>
<g id="Paying_2">
</g>
<g id="Restaurant_Place">
</g>
</svg>
