<?xml version="1.0" encoding="iso-8859-1"?>
<!-- Generator: Adobe Illustrator 19.2.1, SVG Export Plug-In . SVG Version: 6.00 Build 0)  -->
<svg version="1.1" xmlns="http://www.w3.org/2000/svg" xmlns:xlink="http://www.w3.org/1999/xlink" x="0px" y="0px"
	 viewBox="0 0 30 30" style="enable-background:new 0 0 30 30;" xml:space="preserve">
<g id="Restaurant_sign_1">
</g>
<g id="Restaurant_Sign_2">
</g>
<g id="Restaurant_Sign_3">
</g>
<g id="Hot_Drink_1">
</g>
<g id="Hot_Drink_2">
</g>
<g id="Cocktail">
</g>
<g id="Shot_Glasses">
</g>
<g id="Chilled_Champagne">
</g>
<g id="Wine">
</g>
<g id="Wine_List">
</g>
<g id="Menu">
</g>
<g id="Menu_2">
</g>
<g id="Salver">
</g>
<g id="Soup">
</g>
<g id="Sushi">
</g>
<g id="Pizza">
</g>
<g id="Pizza_Slice">
</g>
<g id="Fish">
</g>
<g id="Sausage">
	<g>
		<g id="XMLID_213_">
			<path d="M14.5,9C6.468,9,0,5.084,0,1.842c0-0.737,0.204-1.243,0.624-1.548c0.862-0.628,2.31-0.158,4.501,0.554
				c2.373,0.771,5.622,1.826,9.375,1.826c3.757,0,7.008-1.051,9.381-1.818c2.189-0.708,3.637-1.178,4.498-0.55
				C28.797,0.609,29,1.112,29,1.842C29,5.084,22.532,9,14.5,9z M1.663,0.998c-0.196,0-0.351,0.032-0.451,0.105
				C1.037,1.23,1,1.575,1,1.842C1,4.264,6.797,8,14.5,8S28,4.264,28,1.842c0-0.263-0.036-0.602-0.209-0.728
				c-0.453-0.328-1.98,0.168-3.603,0.692c-2.437,0.788-5.774,1.867-9.688,1.867c-3.911,0-7.248-1.083-9.684-1.875
				C3.556,1.389,2.35,0.998,1.663,0.998z"/>
		</g>
		<g id="XMLID_13_">
			<path d="M14.5,30c-0.827,0-1.5-0.673-1.5-1.5V14.847c-2.067-0.195-3-1.603-3-2.999V10.5c0-0.276,0.224-0.5,0.5-0.5h8
				c0.276,0,0.5,0.224,0.5,0.5v1.348c0,1.396-0.933,2.804-3,2.999V28.5C16,29.327,15.327,30,14.5,30z M11,11v0.848
				c0,1.266,0.935,2.022,2.5,2.022c0.276,0,0.5,0.224,0.5,0.5V28.5c0,0.276,0.225,0.5,0.5,0.5s0.5-0.224,0.5-0.5V14.37
				c0-0.276,0.224-0.5,0.5-0.5c1.565,0,2.5-0.756,2.5-2.022V11H11z"/>
		</g>
		<g id="XMLID_211_">
			<path d="M10.5,11c-0.276,0-0.5-0.224-0.5-0.5v-4C10,6.224,10.224,6,10.5,6S11,6.224,11,6.5v4C11,10.776,10.776,11,10.5,11z"/>
		</g>
		<g id="XMLID_210_">
			<path d="M13.5,11c-0.276,0-0.5-0.224-0.5-0.5v-4C13,6.224,13.224,6,13.5,6S14,6.224,14,6.5v4C14,10.776,13.776,11,13.5,11z"/>
		</g>
		<g id="XMLID_209_">
			<path d="M15.5,11c-0.276,0-0.5-0.224-0.5-0.5v-4C15,6.224,15.224,6,15.5,6S16,6.224,16,6.5v4C16,10.776,15.776,11,15.5,11z"/>
		</g>
		<g id="XMLID_207_">
			<path d="M18.5,11c-0.276,0-0.5-0.224-0.5-0.5v-4C18,6.224,18.224,6,18.5,6S19,6.224,19,6.5v4C19,10.776,18.776,11,18.5,11z"/>
		</g>
	</g>
</g>
<g id="Course">
</g>
<g id="Dessert">
</g>
<g id="Cutlery">
</g>
<g id="Napkin">
</g>
<g id="Table">
</g>
<g id="Spices">
</g>
<g id="Hot_Sauce">
</g>
<g id="Reserved_1">
</g>
<g id="Reserved_2">
</g>
<g id="Open">
</g>
<g id="Food_Photo">
</g>
<g id="Chef">
</g>
<g id="Bill">
</g>
<g id="Bill_2">
</g>
<g id="Paying_1">
</g>
<g id="Paying_2">
</g>
<g id="Restaurant_Place">
</g>
</svg>
