<?xml version="1.0" encoding="iso-8859-1"?>
<!-- Generator: Adobe Illustrator 19.2.1, SVG Export Plug-In . SVG Version: 6.00 Build 0)  -->
<svg version="1.1" xmlns="http://www.w3.org/2000/svg" xmlns:xlink="http://www.w3.org/1999/xlink" x="0px" y="0px"
	 viewBox="0 0 30 30" style="enable-background:new 0 0 30 30;" xml:space="preserve">
<g id="Restaurant_sign_1">
</g>
<g id="Restaurant_Sign_2">
</g>
<g id="Restaurant_Sign_3">
</g>
<g id="Hot_Drink_1">
</g>
<g id="Hot_Drink_2">
</g>
<g id="Cocktail">
</g>
<g id="Shot_Glasses">
	<g>
		<g id="XMLID_82_">
			<path d="M6,13c-2.981,0-6-0.859-6-2.5c0-3.282,12-3.282,12,0C12,12.141,8.981,13,6,13z M6,9c-3.006,0-5,0.903-5,1.5
				S2.994,12,6,12s5-0.903,5-1.5S9.006,9,6,9z"/>
		</g>
		<g id="XMLID_95_">
			<path d="M6.007,23c-2.333,0-4.278-0.637-4.731-1.549c-0.025-0.052-0.042-0.108-0.049-0.166L0.003,10.557
				c-0.031-0.274,0.166-0.522,0.44-0.553c0.269-0.032,0.522,0.165,0.554,0.44l1.211,10.619C2.482,21.41,3.798,22,6.007,22
				c2.399,0,3.564-0.603,3.799-0.927l1.197-10.629c0.032-0.275,0.294-0.468,0.553-0.441c0.274,0.031,0.472,0.279,0.441,0.553
				l-1.209,10.729c-0.006,0.052-0.021,0.103-0.042,0.15C10.315,22.386,8.455,23,6.007,23z"/>
		</g>
		<g id="XMLID_93_">
			<path d="M4.249,20c-0.253,0-0.471-0.192-0.496-0.45l-0.5-5c-0.028-0.275,0.173-0.52,0.447-0.547
				c0.264-0.025,0.52,0.173,0.547,0.448l0.5,5c0.028,0.275-0.173,0.52-0.447,0.547C4.283,19.999,4.266,20,4.249,20z"/>
		</g>
		<g id="XMLID_6_">
			<path d="M7.751,20c-0.017,0-0.034-0.001-0.051-0.002c-0.274-0.027-0.476-0.272-0.447-0.547l0.5-5
				c0.027-0.274,0.279-0.472,0.547-0.448c0.274,0.027,0.476,0.272,0.447,0.547l-0.5,5C8.222,19.808,8.004,20,7.751,20z"/>
		</g>
		<g id="XMLID_5_">
			<path d="M24,13c-2.981,0-6-0.859-6-2.5c0-3.282,12-3.282,12,0C30,12.141,26.981,13,24,13z M24,9c-3.006,0-5,0.903-5,1.5
				s1.994,1.5,5,1.5s5-0.903,5-1.5S27.006,9,24,9z"/>
		</g>
		<g id="XMLID_4_">
			<path d="M23.993,23c-2.448,0-4.309-0.614-4.739-1.565c-0.021-0.048-0.036-0.099-0.042-0.15l-1.209-10.729
				c-0.03-0.274,0.167-0.522,0.441-0.553c0.256-0.029,0.521,0.165,0.553,0.441l1.197,10.629C20.429,21.397,21.594,22,23.993,22
				c2.209,0,3.524-0.59,3.799-0.938l1.211-10.619c0.031-0.275,0.281-0.471,0.554-0.44c0.274,0.031,0.472,0.279,0.44,0.553
				l-1.224,10.729c-0.007,0.058-0.023,0.114-0.049,0.166C28.271,22.363,26.326,23,23.993,23z"/>
		</g>
		<g id="XMLID_3_">
			<path d="M25.751,20c-0.017,0-0.034-0.001-0.051-0.002c-0.274-0.027-0.476-0.272-0.447-0.547l0.5-5
				c0.027-0.274,0.274-0.472,0.547-0.448c0.274,0.027,0.476,0.272,0.447,0.547l-0.5,5C26.222,19.808,26.004,20,25.751,20z"/>
		</g>
		<g id="XMLID_2_">
			<path d="M22.249,20c-0.253,0-0.471-0.192-0.496-0.45l-0.5-5c-0.028-0.275,0.173-0.52,0.447-0.547
				c0.267-0.025,0.52,0.173,0.547,0.448l0.5,5c0.028,0.275-0.173,0.52-0.447,0.547C22.283,19.999,22.266,20,22.249,20z"/>
		</g>
	</g>
</g>
<g id="Chilled_Champagne">
</g>
<g id="Wine">
</g>
<g id="Wine_List">
</g>
<g id="Menu">
</g>
<g id="Menu_2">
</g>
<g id="Salver">
</g>
<g id="Soup">
</g>
<g id="Sushi">
</g>
<g id="Pizza">
</g>
<g id="Pizza_Slice">
</g>
<g id="Fish">
</g>
<g id="Sausage">
</g>
<g id="Course">
</g>
<g id="Dessert">
</g>
<g id="Cutlery">
</g>
<g id="Napkin">
</g>
<g id="Table">
</g>
<g id="Spices">
</g>
<g id="Hot_Sauce">
</g>
<g id="Reserved_1">
</g>
<g id="Reserved_2">
</g>
<g id="Open">
</g>
<g id="Food_Photo">
</g>
<g id="Chef">
</g>
<g id="Bill">
</g>
<g id="Bill_2">
</g>
<g id="Paying_1">
</g>
<g id="Paying_2">
</g>
<g id="Restaurant_Place">
</g>
</svg>
