<?xml version="1.0" encoding="iso-8859-1"?>
<!-- Generator: Adobe Illustrator 19.2.1, SVG Export Plug-In . SVG Version: 6.00 Build 0)  -->
<svg version="1.1" xmlns="http://www.w3.org/2000/svg" xmlns:xlink="http://www.w3.org/1999/xlink" x="0px" y="0px"
	 viewBox="0 0 30 30" style="enable-background:new 0 0 30 30;" xml:space="preserve">
<g id="Restaurant_sign_1">
</g>
<g id="Restaurant_Sign_2">
</g>
<g id="Restaurant_Sign_3">
</g>
<g id="Hot_Drink_1">
</g>
<g id="Hot_Drink_2">
</g>
<g id="Cocktail">
</g>
<g id="Shot_Glasses">
</g>
<g id="Chilled_Champagne">
</g>
<g id="Wine">
</g>
<g id="Wine_List">
</g>
<g id="Menu">
</g>
<g id="Menu_2">
</g>
<g id="Salver">
</g>
<g id="Soup">
</g>
<g id="Sushi">
</g>
<g id="Pizza">
</g>
<g id="Pizza_Slice">
</g>
<g id="Fish">
</g>
<g id="Sausage">
</g>
<g id="Course">
</g>
<g id="Dessert">
</g>
<g id="Cutlery">
</g>
<g id="Napkin">
</g>
<g id="Table">
	<g>
		<g id="XMLID_164_">
			<path d="M21.5,12h-14C7.224,12,7,11.776,7,11.5S7.224,11,7.5,11h14c0.276,0,0.5,0.224,0.5,0.5S21.776,12,21.5,12z"/>
		</g>
		<g id="XMLID_189_">
			<path d="M11.955,22c-0.171,0-0.338-0.088-0.431-0.246c-0.14-0.238-0.061-0.545,0.177-0.685L14,19.714V11.5
				c0-0.276,0.224-0.5,0.5-0.5s0.5,0.224,0.5,0.5V20c0,0.177-0.094,0.341-0.246,0.431l-2.545,1.5C12.129,21.978,12.042,22,11.955,22
				z"/>
		</g>
		<g id="XMLID_199_">
			<path d="M17.045,22c-0.086,0-0.174-0.022-0.253-0.069l-2.545-1.5c-0.238-0.14-0.317-0.446-0.177-0.685
				c0.14-0.238,0.446-0.317,0.685-0.177l2.545,1.5c0.238,0.14,0.317,0.446,0.177,0.685C17.383,21.912,17.216,22,17.045,22z"/>
		</g>
		<g id="XMLID_200_">
			<path d="M28.5,22c-0.223,0-0.426-0.15-0.484-0.377L26.838,17H21.91l-0.919,4.598c-0.054,0.271-0.317,0.45-0.588,0.393
				c-0.271-0.054-0.446-0.317-0.392-0.588l1-5C21.057,16.168,21.262,16,21.5,16h5.727c0.229,0,0.428,0.155,0.484,0.377l1.273,5
				c0.068,0.268-0.093,0.539-0.361,0.607C28.582,21.995,28.541,22,28.5,22z"/>
		</g>
		<g id="XMLID_201_">
			<path d="M27.228,17.272c-0.025,0-0.051-0.002-0.077-0.006c-0.273-0.042-0.46-0.297-0.418-0.57l1.273-8.272
				c0.042-0.273,0.297-0.457,0.57-0.418c0.273,0.042,0.46,0.297,0.418,0.57l-1.273,8.272C27.683,17.096,27.47,17.272,27.228,17.272z
				"/>
		</g>
		<g id="XMLID_203_">
			<path d="M0.5,22c-0.041,0-0.083-0.005-0.124-0.016c-0.268-0.068-0.429-0.34-0.361-0.607l1.273-5C1.345,16.155,1.544,16,1.773,16
				H7.5c0.238,0,0.443,0.168,0.49,0.402l1,5c0.054,0.271-0.122,0.534-0.392,0.588c-0.271,0.059-0.534-0.121-0.588-0.393L7.09,17
				H2.162l-1.177,4.623C0.927,21.85,0.724,22,0.5,22z"/>
		</g>
		<g id="XMLID_202_">
			<path d="M1.772,17.272c-0.243,0-0.456-0.177-0.494-0.424L0.006,8.576c-0.042-0.273,0.145-0.528,0.418-0.57
				c0.275-0.045,0.528,0.146,0.57,0.418l1.273,8.272c0.042,0.273-0.145,0.528-0.418,0.57C1.823,17.271,1.798,17.272,1.772,17.272z"
				/>
		</g>
		<g id="XMLID_204_">
			<path d="M8,20H1c-0.276,0-0.5-0.224-0.5-0.5S0.724,19,1,19h7c0.276,0,0.5,0.224,0.5,0.5S8.276,20,8,20z"/>
		</g>
		<g id="XMLID_208_">
			<path d="M28,20h-7c-0.276,0-0.5-0.224-0.5-0.5S20.724,19,21,19h7c0.276,0,0.5,0.224,0.5,0.5S28.276,20,28,20z"/>
		</g>
	</g>
</g>
<g id="Spices">
</g>
<g id="Hot_Sauce">
</g>
<g id="Reserved_1">
</g>
<g id="Reserved_2">
</g>
<g id="Open">
</g>
<g id="Food_Photo">
</g>
<g id="Chef">
</g>
<g id="Bill">
</g>
<g id="Bill_2">
</g>
<g id="Paying_1">
</g>
<g id="Paying_2">
</g>
<g id="Restaurant_Place">
</g>
</svg>
