<?xml version="1.0" encoding="iso-8859-1"?>
<!-- Generator: Adobe Illustrator 19.2.1, SVG Export Plug-In . SVG Version: 6.00 Build 0)  -->
<svg version="1.1" xmlns="http://www.w3.org/2000/svg" xmlns:xlink="http://www.w3.org/1999/xlink" x="0px" y="0px"
	 viewBox="0 0 30 30" style="enable-background:new 0 0 30 30;" xml:space="preserve">
<g id="Restaurant_sign_1">
</g>
<g id="Restaurant_Sign_2">
</g>
<g id="Restaurant_Sign_3">
</g>
<g id="Hot_Drink_1">
</g>
<g id="Hot_Drink_2">
</g>
<g id="Cocktail">
</g>
<g id="Shot_Glasses">
</g>
<g id="Chilled_Champagne">
</g>
<g id="Wine">
	<g>
		<g id="XMLID_168_">
			<path d="M17.805,30h-5.044C11.79,30,11,29.21,11,28.239V11.033c0-1.098,0.703-2.159,1.79-2.703l0.591-0.233
				C13.698,7.937,14,7.625,14,7.435V0.5C14,0.224,14.224,0,14.5,0h2C16.776,0,17,0.224,17,0.5v6.935
				c0,0.231,0.236,0.524,0.551,0.681l0.517,0.196C19.052,8.8,20,9.818,20,11.033v17.206C20,29.298,18.679,30,17.805,30z M15,1v6.435
				c0,0.716-0.653,1.296-1.213,1.575l-0.591,0.233C12.497,9.595,12,10.322,12,11.033v17.206C12,28.659,12.341,29,12.761,29h5.044
				C18.318,29,19,28.566,19,28.239V11.033c0-0.784-0.692-1.487-1.335-1.808l-0.517-0.196C16.595,8.755,16,8.19,16,7.435V1H15z"/>
		</g>
		<g id="XMLID_166_">
			<path d="M16.5,4h-2C14.224,4,14,3.776,14,3.5S14.224,3,14.5,3h2C16.776,3,17,3.224,17,3.5S16.776,4,16.5,4z"/>
		</g>
		<g id="XMLID_165_">
			<path d="M19.5,22h-8c-0.276,0-0.5-0.224-0.5-0.5v-5.239c0-0.228,0.154-0.427,0.375-0.484c0.103-0.026,2.53-0.646,4.125-0.646
				c1.61,0,4.023,0.62,4.125,0.646C19.846,15.834,20,16.033,20,16.261V21.5C20,21.776,19.776,22,19.5,22z M12,21h7v-4.346
				c-0.73-0.171-2.372-0.523-3.5-0.523c-1.119,0-2.767,0.353-3.5,0.524V21z"/>
		</g>
		<g>
			<g id="XMLID_174_">
				<path d="M5.5,25C3.061,25,1,23.023,1,20.684V19.5C1,19.224,1.224,19,1.5,19h8c0.276,0,0.5,0.224,0.5,0.5v1.184
					C10,23.023,7.939,25,5.5,25z M2,20v0.684C2,22.451,3.636,24,5.5,24S9,22.451,9,20.684V20H2z"/>
			</g>
			<g id="XMLID_173_">
				<path d="M5.5,30C5.224,30,5,29.776,5,29.5v-5C5,24.224,5.224,24,5.5,24S6,24.224,6,24.5v5C6,29.776,5.776,30,5.5,30z"/>
			</g>
			<g id="XMLID_172_">
				<path d="M7.5,30h-4C3.224,30,3,29.776,3,29.5S3.224,29,3.5,29h4C7.776,29,8,29.224,8,29.5S7.776,30,7.5,30z"/>
			</g>
		</g>
		<g>
			<g id="XMLID_10_">
				<path d="M25.5,25c-2.439,0-4.5-1.977-4.5-4.316V19.5c0-0.276,0.224-0.5,0.5-0.5h8c0.276,0,0.5,0.224,0.5,0.5v1.184
					C30,23.023,27.939,25,25.5,25z M22,20v0.684C22,22.451,23.636,24,25.5,24s3.5-1.549,3.5-3.316V20H22z"/>
			</g>
			<g id="XMLID_9_">
				<path d="M25.5,30c-0.276,0-0.5-0.224-0.5-0.5v-5c0-0.276,0.224-0.5,0.5-0.5s0.5,0.224,0.5,0.5v5C26,29.776,25.776,30,25.5,30z"
					/>
			</g>
			<g id="XMLID_8_">
				<path d="M27.5,30h-4c-0.276,0-0.5-0.224-0.5-0.5s0.224-0.5,0.5-0.5h4c0.276,0,0.5,0.224,0.5,0.5S27.776,30,27.5,30z"/>
			</g>
		</g>
	</g>
</g>
<g id="Wine_List">
</g>
<g id="Menu">
</g>
<g id="Menu_2">
</g>
<g id="Salver">
</g>
<g id="Soup">
</g>
<g id="Sushi">
</g>
<g id="Pizza">
</g>
<g id="Pizza_Slice">
</g>
<g id="Fish">
</g>
<g id="Sausage">
</g>
<g id="Course">
</g>
<g id="Dessert">
</g>
<g id="Cutlery">
</g>
<g id="Napkin">
</g>
<g id="Table">
</g>
<g id="Spices">
</g>
<g id="Hot_Sauce">
</g>
<g id="Reserved_1">
</g>
<g id="Reserved_2">
</g>
<g id="Open">
</g>
<g id="Food_Photo">
</g>
<g id="Chef">
</g>
<g id="Bill">
</g>
<g id="Bill_2">
</g>
<g id="Paying_1">
</g>
<g id="Paying_2">
</g>
<g id="Restaurant_Place">
</g>
</svg>
