<?xml version="1.0" encoding="utf-8"?>
<!-- Generator: Adobe Illustrator 19.0.0, SVG Export Plug-In . SVG Version: 6.00 Build 0)  -->
<svg version="1.1" id="Layer_1" xmlns="http://www.w3.org/2000/svg" xmlns:xlink="http://www.w3.org/1999/xlink" x="0px" y="0px"
	 viewBox="0 0 30 30" style="enable-background:new 0 0 30 30;" xml:space="preserve">
<g>
	<path d="M15,0.5C7,0.5,0.5,7,0.5,15S7,29.5,15,29.5S29.5,23,29.5,15S23,0.5,15,0.5z M25.5,14.5c0,1.6-1.4,3-3,3h-8.1l1.3,1.3
		c1.1,1.1,1.1,2.8,0,3.8c-0.5,0.5-1.2,0.8-1.9,0.8c-0.7,0-1.4-0.3-1.9-0.8L5,15.7c-0.7-0.7-0.7-1.8,0-2.5l6.9-6.9c1-1,2.8-1,3.8,0
		c1.1,1.1,1.1,2.8,0,3.8l-1.3,1.4h8.1C24.1,11.5,25.5,12.8,25.5,14.5C25.5,14.5,25.5,14.5,25.5,14.5C25.5,14.5,25.5,14.5,25.5,14.5
		C25.5,14.5,25.5,14.5,25.5,14.5z"/>
</g>
</svg>
