<?xml version="1.0" encoding="iso-8859-1"?>
<!-- Generator: Adobe Illustrator 19.2.1, SVG Export Plug-In . SVG Version: 6.00 Build 0)  -->
<svg version="1.1" xmlns="http://www.w3.org/2000/svg" xmlns:xlink="http://www.w3.org/1999/xlink" x="0px" y="0px"
	 viewBox="0 0 30 30" style="enable-background:new 0 0 30 30;" xml:space="preserve">
<g id="Man_1">
</g>
<g id="Woman_1">
</g>
<g id="Man_2">
</g>
<g id="Woman_2">
</g>
<g id="Bald_Man">
</g>
<g id="Man_Glasses">
</g>
<g id="Woman_Glasses">
</g>
<g id="Man_Beard">
</g>
<g id="Man_Cap">
</g>
<g id="Woman_Cap">
</g>
<g id="Man_3">
</g>
<g id="Woman_3">
</g>
<g id="Men_4">
</g>
<g id="Woman_4">
</g>
<g id="Business_Man_1">
</g>
<g id="Business_Woman_1">
</g>
<g id="Firefigyhter">
</g>
<g id="Policeman">
</g>
<g id="Criminal">
</g>
<g id="Prisoner">
</g>
<g id="Woodsman">
</g>
<g id="Dispatcher_1">
</g>
<g id="Dispatcher_2">
</g>
<g id="Soldier">
</g>
<g id="Astronaut">
</g>
<g id="Hipster_Guy">
</g>
<g id="Hipster_Girl">
</g>
<g id="Worker">
</g>
<g id="Old_Man">
</g>
<g id="Punk">
</g>
<g id="Diver">
</g>
<g id="Artist">
</g>
<g id="Dictator">
</g>
<g id="Man_Hat">
</g>
<g id="Woman_Hat">
</g>
<g id="Graduated_Man">
</g>
<g id="Graduated_Woman">
</g>
<g id="Avatar_Chef">
</g>
<g id="Waiter">
</g>
<g id="Waitress">
</g>
<g id="Bllboy">
</g>
<g id="Santa">
</g>
<g id="Doctor">
</g>
<g id="Nurse">
</g>
<g id="Captain">
</g>
<g id="Farmer">
</g>
<g id="Maid">
</g>
<g id="Business_Man_2">
</g>
<g id="Business_Woman_2">
</g>
<g id="Cowboy">
</g>
<g id="Anonymus">
</g>
<g id="Batman">
</g>
<g id="Superman">
</g>
<g id="Captain_America">
</g>
<g id="Darth_Vader">
</g>
<g id="Harry_Potter">
</g>
<g id="Anonymus_2">
	<g>
		<path d="M15,0C6.729,0,0,6.729,0,15c0,4.264,1.797,8.108,4.662,10.842c0.032,0.032,0.058,0.067,0.097,0.088
			C7.443,28.446,11.04,30,15,30c3.963,0,7.561-1.556,10.246-4.075c0.059-0.034,0.109-0.08,0.15-0.137C28.228,23.059,30,19.236,30,15
			C30,6.729,23.271,0,15,0z M17.269,18.943c0.313,0.163,0.804,0.296,1.407,0.392l-0.592,0.888C18.005,20.342,17.858,20.5,17.5,20.5
			H17c-0.107,0-0.36,0-0.525-0.658l-0.5-1.5C15.906,18.138,15.715,18,15.5,18h-1c-0.215,0-0.406,0.138-0.474,0.342l-0.511,1.537
			C13.359,20.5,13.107,20.5,13,20.5h-0.5c-0.357,0-0.504-0.158-0.584-0.277l-0.592-0.888c0.603-0.096,1.095-0.228,1.408-0.392
			c0.245-0.128,0.339-0.431,0.211-0.675c-0.128-0.245-0.43-0.338-0.675-0.212c-0.419,0.22-1.585,0.441-3.245,0.443
			c-0.008-0.03-0.02-0.057-0.028-0.087l-0.39-7.02c0.115-0.639,0.326-1.248,0.619-1.813c2.45-0.722,5.718-0.582,5.799-0.58
			c0.036-0.003,3.302-0.142,5.751,0.58c0.293,0.565,0.504,1.174,0.619,1.813l-0.39,7.02c-0.008,0.03-0.02,0.057-0.028,0.087
			c-1.66-0.002-2.825-0.223-3.245-0.443c-0.24-0.125-0.545-0.032-0.675,0.212C16.929,18.513,17.023,18.815,17.269,18.943z
			 M10.205,19.459l0.879,1.318C11.399,21.25,11.889,21.5,12.5,21.5H13c0.426,0,1.185-0.179,1.474-1.342L14.86,19h0.28l0.375,1.121
			c0.299,1.2,1.059,1.379,1.485,1.379h0.5c0.611,0,1.102-0.25,1.416-0.723l0.879-1.318c0.277,0.019,0.569,0.03,0.867,0.035
			c-0.926,2.457-2.71,4.094-4.836,4.433l0.171-1.365c0.034-0.274-0.16-0.524-0.434-0.559c-0.273-0.04-0.524,0.16-0.558,0.434
			L15,22.469l-0.004-0.031c-0.034-0.273-0.284-0.474-0.558-0.434c-0.274,0.034-0.468,0.284-0.434,0.559l0.171,1.365
			c-2.127-0.34-3.91-1.977-4.837-4.433C9.636,19.489,9.928,19.479,10.205,19.459z M24.866,24.921
			c-0.232-0.079-0.527-0.175-0.781-0.257c-0.191-0.061-0.352-0.112-0.427-0.139l-1.493-0.497c-0.314-0.11-0.911-0.539-1.31-0.881
			c-1.098,1.165-2.45,2.056-3.903,2.515c-0.088,0.031-0.21,0.07-0.336,0.105c-0.202,0.051-0.369,0.09-0.539,0.12
			c-0.177,0.033-0.343,0.054-0.506,0.073l0.125-1.003c2.968-0.328,5.396-2.74,6.289-6.338c0.004-0.016,0-0.031,0.002-0.047
			c0.002-0.016,0.011-0.03,0.012-0.046l0.314-5.646C22.424,12.79,22.5,12.656,22.5,12.5c0-0.391-0.041-0.774-0.102-1.151
			l0.101-1.821c0.012-0.204-0.102-0.394-0.286-0.48c-0.241-0.113-0.5-0.211-0.765-0.301C20.129,6.527,17.707,5,15,5
			c-2.708,0-5.129,1.528-6.448,3.746C8.287,8.837,8.028,8.934,7.788,9.047c-0.185,0.087-0.298,0.277-0.287,0.48l0.101,1.821
			C7.541,11.726,7.5,12.109,7.5,12.5c0,0.156,0.076,0.29,0.187,0.381l0.314,5.646c0.001,0.017,0.009,0.031,0.012,0.047
			c0.002,0.016-0.002,0.03,0.002,0.046c0.893,3.598,3.32,6.01,6.289,6.338l0.127,1.016c-0.198-0.019-0.403-0.047-0.626-0.088
			c-0.156-0.027-0.326-0.066-0.497-0.111c-0.15-0.04-0.276-0.08-0.401-0.124c-1.398-0.441-2.711-1.323-3.786-2.486
			c-0.423,0.357-0.983,0.758-1.279,0.861l-1.507,0.503c-0.068,0.023-0.229,0.075-0.419,0.136c-0.32,0.102-0.582,0.187-0.783,0.256
			C2.582,22.383,1,18.873,1,15C1,7.28,7.28,1,15,1s14,6.28,14,14C29,18.874,27.417,22.384,24.866,24.921z"/>
		<path d="M12.5,15h-1c-0.276,0-0.5,0.224-0.5,0.5s0.224,0.5,0.5,0.5h1c0.276,0,0.5-0.224,0.5-0.5S12.776,15,12.5,15z"/>
		<path d="M18.5,15.5c0-0.276-0.224-0.5-0.5-0.5h-1c-0.276,0-0.5,0.224-0.5,0.5S16.724,16,17,16h1C18.276,16,18.5,15.776,18.5,15.5z
			"/>
		<path d="M9.146,12.146c-0.195,0.195-0.195,0.512,0,0.707s0.512,0.195,0.707,0c0.525-0.524,2.314,0.32,3.358,1.055
			C13.299,13.97,13.4,14,13.5,14c0.157,0,0.312-0.074,0.409-0.212c0.159-0.226,0.105-0.538-0.121-0.697
			C13.241,12.706,10.446,10.847,9.146,12.146z"/>
		<path d="M16.788,13.909c1.045-0.736,2.834-1.581,3.358-1.055c0.195,0.195,0.512,0.195,0.707,0s0.195-0.512,0-0.707
			c-1.298-1.298-4.095,0.559-4.642,0.945c-0.226,0.159-0.28,0.471-0.12,0.697C16.188,13.926,16.344,14,16.5,14
			C16.6,14,16.7,13.97,16.788,13.909z"/>
	</g>
</g>
<g id="Scream">
</g>
<g id="Jason">
</g>
<g id="Charlie_Chaplin">
</g>
</svg>
