<?xml version="1.0" encoding="iso-8859-1"?>
<!-- Generator: Adobe Illustrator 19.2.1, SVG Export Plug-In . SVG Version: 6.00 Build 0)  -->
<svg version="1.1" xmlns="http://www.w3.org/2000/svg" xmlns:xlink="http://www.w3.org/1999/xlink" x="0px" y="0px"
	 viewBox="0 0 30 30" style="enable-background:new 0 0 30 30;" xml:space="preserve">
<g id="Man_1">
</g>
<g id="Woman_1">
</g>
<g id="Man_2">
</g>
<g id="Woman_2">
</g>
<g id="Bald_Man">
</g>
<g id="Man_Glasses">
</g>
<g id="Woman_Glasses">
</g>
<g id="Man_Beard">
</g>
<g id="Man_Cap">
</g>
<g id="Woman_Cap">
</g>
<g id="Man_3">
</g>
<g id="Woman_3">
</g>
<g id="Men_4">
</g>
<g id="Woman_4">
</g>
<g id="Business_Man_1">
</g>
<g id="Business_Woman_1">
</g>
<g id="Firefigyhter">
</g>
<g id="Policeman">
</g>
<g id="Criminal">
</g>
<g id="Prisoner">
</g>
<g id="Woodsman">
</g>
<g id="Dispatcher_1">
</g>
<g id="Dispatcher_2">
</g>
<g id="Soldier">
</g>
<g id="Astronaut">
</g>
<g id="Hipster_Guy">
</g>
<g id="Hipster_Girl">
</g>
<g id="Worker">
</g>
<g id="Old_Man">
</g>
<g id="Punk">
</g>
<g id="Diver">
</g>
<g id="Artist">
</g>
<g id="Dictator">
</g>
<g id="Man_Hat">
</g>
<g id="Woman_Hat">
</g>
<g id="Graduated_Man">
</g>
<g id="Graduated_Woman">
</g>
<g id="Avatar_Chef">
</g>
<g id="Waiter">
</g>
<g id="Waitress">
</g>
<g id="Bllboy">
</g>
<g id="Santa">
</g>
<g id="Doctor">
</g>
<g id="Nurse">
</g>
<g id="Captain">
</g>
<g id="Farmer">
</g>
<g id="Maid">
</g>
<g id="Business_Man_2">
</g>
<g id="Business_Woman_2">
</g>
<g id="Cowboy">
</g>
<g id="Anonymus">
	<g>
		<path d="M15,0C6.729,0,0,6.729,0,15c0,4.264,1.797,8.108,4.662,10.842c0.032,0.032,0.058,0.067,0.097,0.088
			C7.443,28.446,11.04,30,15,30c3.963,0,7.561-1.556,10.246-4.075c0.059-0.034,0.109-0.08,0.15-0.137C28.228,23.059,30,19.236,30,15
			C30,6.729,23.271,0,15,0z M24.866,24.921c-0.232-0.079-0.527-0.175-0.781-0.257c-0.191-0.061-0.352-0.112-0.427-0.139
			l-1.493-0.497c-0.314-0.11-0.911-0.539-1.31-0.881c-1.098,1.165-2.45,2.056-3.903,2.515c-0.088,0.031-0.21,0.07-0.336,0.105
			c-0.202,0.051-0.369,0.09-0.539,0.12C15.667,25.964,15.306,26,14.948,26s-0.721-0.036-1.143-0.114
			c-0.156-0.027-0.326-0.066-0.497-0.111c-0.15-0.04-0.276-0.08-0.401-0.124c-1.398-0.441-2.711-1.323-3.786-2.486
			c-0.423,0.357-0.983,0.758-1.279,0.861l-1.507,0.503c-0.068,0.023-0.229,0.075-0.419,0.136c-0.32,0.102-0.582,0.187-0.783,0.256
			C2.582,22.383,1,18.873,1,15C1,7.28,7.28,1,15,1s14,6.28,14,14C29,18.874,27.417,22.384,24.866,24.921z"/>
		<path d="M21.976,14.098C21.604,9.238,18.834,6,15,6c-3.833,0-6.604,3.238-6.976,8.098C7.181,14.445,6.5,15.672,6.5,17
			c0,0.77,0.108,3.281,1.5,3.281c0.088,0,0.194-0.011,0.311-0.046c0.931,2.192,2.741,3.814,5.037,4.491
			c0.104,0.034,0.208,0.065,0.322,0.094c0.142,0.034,0.285,0.065,0.428,0.09c0.36,0.062,0.664,0.09,0.956,0.09
			c0.292,0,0.595-0.028,0.954-0.09c0.145-0.024,0.286-0.056,0.438-0.092c0.104-0.026,0.209-0.058,0.303-0.088
			c2.281-0.674,4.078-2.295,5.009-4.494c0.116,0.034,0.222,0.045,0.31,0.045c0.939,0,1.436-1.135,1.436-3.281
			C23.5,15.672,22.818,14.445,21.976,14.098z M22.064,19.281c-0.05,0-0.127-0.049-0.207-0.131c-0.121-0.125-0.301-0.179-0.468-0.138
			c-0.17,0.038-0.307,0.162-0.363,0.326c-0.74,2.18-2.404,3.795-4.574,4.436c-0.085,0.027-0.17,0.053-0.248,0.073
			c-0.121,0.028-0.241,0.056-0.366,0.076c-0.605,0.104-0.966,0.104-1.574,0c-0.123-0.021-0.243-0.048-0.356-0.074
			c-0.086-0.022-0.171-0.048-0.267-0.078c-2.188-0.646-3.866-2.262-4.604-4.433c-0.056-0.164-0.193-0.288-0.363-0.326
			C8.639,19.004,8.602,19,8.564,19c-0.133,0-0.262,0.053-0.357,0.15c-0.081,0.082-0.158,0.131-0.205,0.132
			C7.855,19.229,7.5,18.496,7.5,17c0-1.224,0.703-2,1-2c0.267,0,0.486-0.209,0.5-0.475C9.225,10.024,11.637,7,15,7
			s5.774,3.024,6.001,7.525C21.014,14.791,21.233,15,21.5,15c0.297,0,1,0.776,1,2C22.5,18.552,22.195,19.218,22.064,19.281z"/>
		<path d="M15.5,11c-1.229,0-2.5,0.935-2.5,2.5c0,0.276,0.224,0.5,0.5,0.5s0.5-0.224,0.5-0.5c0-1.949,3-1.948,3,0
			c0,0.628-0.358,0.838-1.105,1.217c-0.216,0.11-0.439,0.224-0.656,0.356c-1.682,1.028-1.25,3.419-1.23,3.52
			C14.054,18.833,14.264,19,14.5,19c0.031,0,0.062-0.003,0.094-0.009c0.271-0.052,0.449-0.313,0.398-0.584
			c-0.003-0.019-0.329-1.81,0.77-2.48c0.194-0.119,0.394-0.22,0.587-0.318C17.084,15.235,18,14.77,18,13.5
			C18,11.935,16.729,11,15.5,11z"/>
		<circle cx="14.5" cy="20.5" r="0.5"/>
	</g>
</g>
<g id="Batman">
</g>
<g id="Superman">
</g>
<g id="Captain_America">
</g>
<g id="Darth_Vader">
</g>
<g id="Harry_Potter">
</g>
<g id="Anonymus_2">
</g>
<g id="Scream">
</g>
<g id="Jason">
</g>
<g id="Charlie_Chaplin">
</g>
</svg>
