<?xml version="1.0" encoding="iso-8859-1"?>
<!-- Generator: Adobe Illustrator 19.2.1, SVG Export Plug-In . SVG Version: 6.00 Build 0)  -->
<svg version="1.1" xmlns="http://www.w3.org/2000/svg" xmlns:xlink="http://www.w3.org/1999/xlink" x="0px" y="0px"
	 viewBox="0 0 30 30" style="enable-background:new 0 0 30 30;" xml:space="preserve">
<g id="Man_1">
</g>
<g id="Woman_1">
</g>
<g id="Man_2">
</g>
<g id="Woman_2">
</g>
<g id="Bald_Man">
</g>
<g id="Man_Glasses">
</g>
<g id="Woman_Glasses">
</g>
<g id="Man_Beard">
</g>
<g id="Man_Cap">
</g>
<g id="Woman_Cap">
</g>
<g id="Man_3">
</g>
<g id="Woman_3">
</g>
<g id="Men_4">
</g>
<g id="Woman_4">
</g>
<g id="Business_Man_1">
</g>
<g id="Business_Woman_1">
</g>
<g id="Firefigyhter">
</g>
<g id="Policeman">
</g>
<g id="Criminal">
</g>
<g id="Prisoner">
</g>
<g id="Woodsman">
</g>
<g id="Dispatcher_1">
</g>
<g id="Dispatcher_2">
</g>
<g id="Soldier">
</g>
<g id="Astronaut">
</g>
<g id="Hipster_Guy">
</g>
<g id="Hipster_Girl">
</g>
<g id="Worker">
</g>
<g id="Old_Man">
</g>
<g id="Punk">
</g>
<g id="Diver">
</g>
<g id="Artist">
</g>
<g id="Dictator">
</g>
<g id="Man_Hat">
</g>
<g id="Woman_Hat">
</g>
<g id="Graduated_Man">
</g>
<g id="Graduated_Woman">
</g>
<g id="Avatar_Chef">
	<g>
		<path d="M15,0C6.729,0,0,6.729,0,15c0,4.264,1.797,8.108,4.662,10.842c0.032,0.032,0.058,0.067,0.097,0.088
			C7.443,28.446,11.04,30,15,30c3.963,0,7.561-1.556,10.246-4.075c0.059-0.034,0.109-0.08,0.15-0.137C28.228,23.059,30,19.236,30,15
			C30,6.729,23.271,0,15,0z M24.866,24.921c-0.232-0.079-0.527-0.175-0.781-0.257c-0.191-0.061-0.352-0.112-0.427-0.139
			l-1.493-0.497c-0.314-0.11-0.911-0.539-1.31-0.881c-1.098,1.165-2.45,2.056-3.903,2.515c-0.088,0.031-0.21,0.07-0.336,0.105
			c-0.202,0.051-0.369,0.09-0.539,0.12C15.667,25.964,15.306,26,14.948,26s-0.721-0.036-1.143-0.114
			c-0.156-0.027-0.326-0.066-0.497-0.111c-0.15-0.04-0.276-0.08-0.401-0.124c-1.398-0.441-2.711-1.323-3.786-2.486
			c-0.423,0.357-0.983,0.758-1.279,0.861l-1.507,0.503c-0.068,0.023-0.229,0.075-0.419,0.136c-0.32,0.102-0.582,0.187-0.783,0.256
			C2.582,22.383,1,18.873,1,15C1,7.28,7.28,1,15,1s14,6.28,14,14C29,18.874,27.417,22.384,24.866,24.921z"/>
		<path d="M18.146,20.146c-0.419,0.419-0.76,0.274-1.64-0.404C16.033,19.378,15.544,19,15,19s-1.033,0.378-1.507,0.742
			c-0.88,0.679-1.221,0.823-1.64,0.404c-0.195-0.195-0.512-0.195-0.707,0s-0.195,0.512,0,0.707c1.106,1.107,2.221,0.249,2.958-0.319
			C14.413,20.296,14.797,20,15,20s0.587,0.296,0.896,0.534c0.477,0.367,1.111,0.856,1.798,0.856c0.376,0,0.768-0.146,1.159-0.537
			c0.195-0.195,0.195-0.512,0-0.707S18.342,19.951,18.146,20.146z"/>
		<path d="M22.5,14h-0.014c-0.043-0.729-0.183-1.148-0.351-1.656c-0.042-0.128-0.088-0.271-0.136-0.423v-1.159
			c0.939-0.774,1.5-2.044,1.5-3.262C23.5,5.505,21.995,4,20,4c-0.546,0-0.999,0.167-1.39,0.367C17.749,3.482,16.484,3,15,3
			s-2.749,0.482-3.61,1.367C10.999,4.167,10.546,4,10,4C8.068,4,6,5.406,6,7.5c0,1.421,0.765,2.908,2,3.599v0.823
			c-0.047,0.15-0.093,0.29-0.134,0.416C7.696,12.847,7.557,13.267,7.514,14H7.5C6.547,14,6,15.093,6,17c0,1.57,0.953,3,2,3h0.15
			c0.897,2.299,2.776,4.013,5.197,4.727c0.104,0.034,0.208,0.065,0.322,0.094c0.142,0.034,0.285,0.065,0.428,0.09
			C14.375,24.957,14.653,25,15,25c0.305,0,0.672-0.033,1.006-0.09c0.145-0.024,0.286-0.056,0.438-0.092
			c0.104-0.026,0.209-0.058,0.303-0.088c2.344-0.692,4.176-2.385,5.083-4.678C21.899,20.037,21.958,20.016,22,20c1.047,0,2-1.43,2-3
			C24,15.093,23.453,14,22.5,14z M10.472,5.806c0.106-0.255,0.399-0.375,0.654-0.269c0.255,0.106,0.375,0.399,0.269,0.654
			c-0.188,0.451-0.338,0.968-0.4,1.382C10.958,7.822,10.744,8,10.5,8c-0.024,0-0.049-0.002-0.074-0.005
			c-0.273-0.041-0.461-0.295-0.421-0.568C10.079,6.935,10.253,6.33,10.472,5.806z M22,19c-0.109,0-0.203,0.021-0.288,0.047
			c-0.101-0.045-0.214-0.06-0.322-0.034c-0.17,0.038-0.307,0.162-0.363,0.326c-0.74,2.18-2.404,3.795-4.574,4.436
			c-0.085,0.027-0.17,0.053-0.248,0.073c-0.121,0.028-0.241,0.056-0.366,0.076C15.561,23.972,15.247,24,15,24
			c-0.246,0-0.44-0.025-0.736-0.076c-0.123-0.021-0.243-0.048-0.356-0.074c-0.086-0.022-0.171-0.048-0.267-0.078
			c-2.233-0.659-3.935-2.275-4.668-4.433C8.904,19.137,8.714,19,8.5,19H8c-0.297,0-1-0.776-1-2c0-1.396,0.331-2,0.5-2H8
			c0.276,0,0.5-0.224,0.5-0.5c0-0.652,0.063-1.018,0.172-1.394C9.464,13.398,11.504,14,14.875,14c3.441,0,5.635-0.624,6.45-0.904
			c0.111,0.381,0.175,0.747,0.175,1.404c0,0.276,0.224,0.5,0.5,0.5h0.5c0.169,0,0.5,0.604,0.5,2C23,18.224,22.297,19,22,19z"/>
		<path d="M11.5,16h1c0.276,0,0.5-0.224,0.5-0.5S12.776,15,12.5,15h-1c-0.276,0-0.5,0.224-0.5,0.5S11.224,16,11.5,16z"/>
		<path d="M18.5,15h-1c-0.276,0-0.5,0.224-0.5,0.5s0.224,0.5,0.5,0.5h1c0.276,0,0.5-0.224,0.5-0.5S18.776,15,18.5,15z"/>
	</g>
</g>
<g id="Waiter">
</g>
<g id="Waitress">
</g>
<g id="Bllboy">
</g>
<g id="Santa">
</g>
<g id="Doctor">
</g>
<g id="Nurse">
</g>
<g id="Captain">
</g>
<g id="Farmer">
</g>
<g id="Maid">
</g>
<g id="Business_Man_2">
</g>
<g id="Business_Woman_2">
</g>
<g id="Cowboy">
</g>
<g id="Anonymus">
</g>
<g id="Batman">
</g>
<g id="Superman">
</g>
<g id="Captain_America">
</g>
<g id="Darth_Vader">
</g>
<g id="Harry_Potter">
</g>
<g id="Anonymus_2">
</g>
<g id="Scream">
</g>
<g id="Jason">
</g>
<g id="Charlie_Chaplin">
</g>
</svg>
