<?xml version="1.0" encoding="iso-8859-1"?>
<!-- Generator: Adobe Illustrator 19.2.1, SVG Export Plug-In . SVG Version: 6.00 Build 0)  -->
<svg version="1.1" xmlns="http://www.w3.org/2000/svg" xmlns:xlink="http://www.w3.org/1999/xlink" x="0px" y="0px"
	 viewBox="0 0 30 30" style="enable-background:new 0 0 30 30;" xml:space="preserve">
<g id="Man_1">
</g>
<g id="Woman_1">
</g>
<g id="Man_2">
</g>
<g id="Woman_2">
</g>
<g id="Bald_Man">
</g>
<g id="Man_Glasses">
</g>
<g id="Woman_Glasses">
</g>
<g id="Man_Beard">
</g>
<g id="Man_Cap">
</g>
<g id="Woman_Cap">
</g>
<g id="Man_3">
</g>
<g id="Woman_3">
</g>
<g id="Men_4">
</g>
<g id="Woman_4">
</g>
<g id="Business_Man_1">
</g>
<g id="Business_Woman_1">
</g>
<g id="Firefigyhter">
</g>
<g id="Policeman">
</g>
<g id="Criminal">
</g>
<g id="Prisoner">
</g>
<g id="Woodsman">
</g>
<g id="Dispatcher_1">
</g>
<g id="Dispatcher_2">
</g>
<g id="Soldier">
</g>
<g id="Astronaut">
</g>
<g id="Hipster_Guy">
</g>
<g id="Hipster_Girl">
</g>
<g id="Worker">
</g>
<g id="Old_Man">
</g>
<g id="Punk">
</g>
<g id="Diver">
</g>
<g id="Artist">
</g>
<g id="Dictator">
</g>
<g id="Man_Hat">
</g>
<g id="Woman_Hat">
</g>
<g id="Graduated_Man">
</g>
<g id="Graduated_Woman">
	<g>
		<path d="M15,0C6.729,0,0,6.729,0,15c0,4.264,1.797,8.108,4.662,10.842c0.032,0.032,0.058,0.067,0.097,0.088
			C7.443,28.446,11.04,30,15,30c3.963,0,7.561-1.556,10.246-4.075c0.059-0.034,0.109-0.08,0.15-0.137C28.228,23.059,30,19.236,30,15
			C30,6.729,23.271,0,15,0z M24.866,24.921c-0.232-0.079-0.527-0.175-0.781-0.257c-0.191-0.061-0.352-0.112-0.427-0.139
			l-1.493-0.497c-0.314-0.11-0.911-0.539-1.31-0.881c-1.098,1.165-2.45,2.056-3.903,2.515c-0.088,0.031-0.21,0.07-0.336,0.105
			c-0.202,0.051-0.369,0.09-0.539,0.12C15.667,25.964,15.306,26,14.948,26s-0.721-0.036-1.143-0.114
			c-0.156-0.027-0.326-0.066-0.497-0.111c-0.15-0.04-0.276-0.08-0.401-0.124c-1.398-0.441-2.711-1.323-3.786-2.486
			c-0.423,0.357-0.983,0.758-1.279,0.861l-1.507,0.503c-0.068,0.023-0.229,0.075-0.419,0.136c-0.32,0.102-0.582,0.187-0.783,0.256
			C2.582,22.383,1,18.873,1,15C1,7.28,7.28,1,15,1s14,6.28,14,14C29,18.874,27.417,22.384,24.866,24.921z"/>
		<path d="M5.422,6.494l9.5,1.5C14.948,7.998,14.974,8,15,8s0.052-0.002,0.078-0.006l9.5-1.5C24.821,6.456,25,6.246,25,6
			s-0.179-0.456-0.422-0.494l-9.5-1.5c-0.052-0.009-0.104-0.009-0.156,0l-9.5,1.5C5.179,5.544,5,5.754,5,6S5.179,6.456,5.422,6.494z
			"/>
		<path d="M23.886,15.228C23.935,15.075,24,14.813,24,14.5c0-0.054-0.009-0.107-0.025-0.158l-1-3
			c-0.064-0.191-0.232-0.315-0.42-0.336c0.049-0.015,0.087-0.026,0.098-0.03c0.232-0.074,0.377-0.305,0.343-0.547l-0.374-2.618L15,9
			c-0.082,0-0.164-0.007-0.246-0.021L7.378,7.815l-0.373,2.614c-0.034,0.24,0.109,0.47,0.339,0.546
			c0.011,0.004,0.053,0.017,0.108,0.034l-1.412,3.294c0,0,0,0,0,0C6.015,14.364,6,14.43,6,14.5c0,0.313,0.065,0.575,0.115,0.728
			c-0.033,0.277-0.104,0.92-0.112,1.221L5.008,21.91c-0.025,0.138,0.008,0.279,0.092,0.391s0.211,0.183,0.35,0.196l4.917,0.492
			c0.851,0.784,1.829,1.389,2.868,1.717c0.104,0.036,0.208,0.069,0.324,0.101c0.144,0.037,0.287,0.071,0.428,0.096
			C14.346,24.969,14.651,25,14.948,25s0.603-0.031,0.958-0.097c0.146-0.025,0.289-0.06,0.443-0.099
			c0.105-0.029,0.208-0.063,0.302-0.095c1.064-0.336,2.059-0.94,2.924-1.715l4.975-0.497c0.139-0.014,0.266-0.085,0.35-0.196
			s0.117-0.253,0.093-0.391l-0.995-5.465C23.989,16.143,23.918,15.504,23.886,15.228z M22.25,18.688
			c-0.025,0-0.096-0.029-0.195-0.139c-0.122-0.132-0.308-0.188-0.477-0.15c-0.175,0.038-0.315,0.167-0.369,0.337
			c-0.849,2.676-3.053,4.45-4.87,5.024c-0.085,0.029-0.17,0.057-0.245,0.078c-0.12,0.029-0.239,0.06-0.366,0.082
			C15.43,23.975,15.183,24,14.948,24c-0.234,0-0.482-0.025-0.785-0.081c-0.122-0.021-0.241-0.052-0.35-0.079
			c-0.086-0.023-0.171-0.051-0.266-0.083c-2.136-0.676-4.002-2.646-4.756-5.021c-0.054-0.17-0.194-0.298-0.369-0.337
			c-0.173-0.039-0.355,0.019-0.476,0.15c-0.101,0.109-0.171,0.139-0.196,0.139c-0.218,0-0.75-0.764-0.75-2.179
			c0-0.2,0.074-0.891,0.122-1.279c0.006-0.053-0.012-0.105-0.023-0.159c0.609,0.128,1.191,0.383,1.199,0.386
			C8.362,15.486,8.431,15.5,8.5,15.5c0.092,0,0.184-0.025,0.264-0.076C8.905,15.337,8.993,15.186,9,15.021
			C9.037,14.105,9.292,13.104,9.5,13c0.906,0,2.951-0.012,4.143-0.979c0.571,0.938,2.881,0.977,6.416,0.979
			c0.212,0.985,0.927,2.123,1.021,2.27c0.095,0.147,0.255,0.23,0.421,0.23c0.07,0,0.141-0.015,0.208-0.045
			c0.196-0.09,0.691-0.278,1.194-0.382c-0.01,0.052-0.029,0.103-0.023,0.156C22.926,15.618,23,16.309,23,16.509
			C23,17.924,22.468,18.688,22.25,18.688z"/>
		<path d="M12.5,15h-1c-0.276,0-0.5,0.224-0.5,0.5s0.224,0.5,0.5,0.5h1c0.276,0,0.5-0.224,0.5-0.5S12.776,15,12.5,15z"/>
		<path d="M18.5,15h-1c-0.276,0-0.5,0.224-0.5,0.5s0.224,0.5,0.5,0.5h1c0.276,0,0.5-0.224,0.5-0.5S18.776,15,18.5,15z"/>
	</g>
</g>
<g id="Avatar_Chef">
</g>
<g id="Waiter">
</g>
<g id="Waitress">
</g>
<g id="Bllboy">
</g>
<g id="Santa">
</g>
<g id="Doctor">
</g>
<g id="Nurse">
</g>
<g id="Captain">
</g>
<g id="Farmer">
</g>
<g id="Maid">
</g>
<g id="Business_Man_2">
</g>
<g id="Business_Woman_2">
</g>
<g id="Cowboy">
</g>
<g id="Anonymus">
</g>
<g id="Batman">
</g>
<g id="Superman">
</g>
<g id="Captain_America">
</g>
<g id="Darth_Vader">
</g>
<g id="Harry_Potter">
</g>
<g id="Anonymus_2">
</g>
<g id="Scream">
</g>
<g id="Jason">
</g>
<g id="Charlie_Chaplin">
</g>
</svg>
