<?xml version="1.0" encoding="iso-8859-1"?>
<!-- Generator: Adobe Illustrator 19.2.1, SVG Export Plug-In . SVG Version: 6.00 Build 0)  -->
<svg version="1.1" xmlns="http://www.w3.org/2000/svg" xmlns:xlink="http://www.w3.org/1999/xlink" x="0px" y="0px"
	 viewBox="0 0 30 30" style="enable-background:new 0 0 30 30;" xml:space="preserve">
<g id="Man_1">
</g>
<g id="Woman_1">
</g>
<g id="Man_2">
</g>
<g id="Woman_2">
</g>
<g id="Bald_Man">
</g>
<g id="Man_Glasses">
</g>
<g id="Woman_Glasses">
</g>
<g id="Man_Beard">
</g>
<g id="Man_Cap">
</g>
<g id="Woman_Cap">
</g>
<g id="Man_3">
</g>
<g id="Woman_3">
</g>
<g id="Men_4">
</g>
<g id="Woman_4">
</g>
<g id="Business_Man_1">
</g>
<g id="Business_Woman_1">
</g>
<g id="Firefigyhter">
</g>
<g id="Policeman">
</g>
<g id="Criminal">
</g>
<g id="Prisoner">
</g>
<g id="Woodsman">
</g>
<g id="Dispatcher_1">
</g>
<g id="Dispatcher_2">
</g>
<g id="Soldier">
</g>
<g id="Astronaut">
</g>
<g id="Hipster_Guy">
</g>
<g id="Hipster_Girl">
</g>
<g id="Worker">
</g>
<g id="Old_Man">
</g>
<g id="Punk">
</g>
<g id="Diver">
</g>
<g id="Artist">
</g>
<g id="Dictator">
</g>
<g id="Man_Hat">
</g>
<g id="Woman_Hat">
</g>
<g id="Graduated_Man">
</g>
<g id="Graduated_Woman">
</g>
<g id="Avatar_Chef">
</g>
<g id="Waiter">
</g>
<g id="Waitress">
</g>
<g id="Bllboy">
</g>
<g id="Santa">
</g>
<g id="Doctor">
</g>
<g id="Nurse">
</g>
<g id="Captain">
</g>
<g id="Farmer">
</g>
<g id="Maid">
</g>
<g id="Business_Man_2">
</g>
<g id="Business_Woman_2">
</g>
<g id="Cowboy">
</g>
<g id="Anonymus">
</g>
<g id="Batman">
</g>
<g id="Superman">
	<g>
		<path d="M9.065,23.186c-0.171,0.085-0.436,0.146-0.662,0.195c-0.204,0.045-0.401,0.089-0.608,0.163l-0.418,0.189
			c1.006,0.594,2.125,1.442,3.008,2.162l-0.794-2.183L9.065,23.186z"/>
		<path d="M21.315,23.304c-0.062-0.065-0.142-0.143-0.256-0.242l-0.651,0.651l-0.794,2.183c0.832-0.677,1.872-1.468,2.83-2.054
			l-0.78-0.312C21.468,23.459,21.438,23.43,21.315,23.304z"/>
		<path d="M15,0C6.729,0,0,6.729,0,15c0,4.264,1.797,8.109,4.663,10.842c0.032,0.031,0.058,0.066,0.096,0.087
			C7.443,28.446,11.039,30,15,30c3.963,0,7.561-1.556,10.246-4.075c0.059-0.034,0.109-0.08,0.15-0.137
			C28.228,23.059,30,19.236,30,15C30,6.729,23.271,0,15,0z M24.901,24.888c-0.014-0.007-0.025-0.013-0.04-0.021
			c-0.259-0.137-0.554-0.289-0.676-0.331l-0.56-0.224c-1.29,0.667-3.384,2.306-4.793,3.561C18.738,27.957,18.619,28,18.5,28
			c-0.098,0-0.195-0.028-0.28-0.086c-0.189-0.129-0.268-0.37-0.189-0.585l0.708-1.946l-0.177,0.177C18.277,25.844,17.9,26,17.5,26
			h-5c-0.4,0-0.777-0.156-1.061-0.439l-0.177-0.177l0.708,1.946c0.079,0.215,0,0.456-0.189,0.585C11.695,27.972,11.598,28,11.5,28
			c-0.12,0-0.238-0.043-0.333-0.127c-1.462-1.302-3.657-3.013-4.93-3.626l-0.616,0.278c-0.18,0.063-0.36,0.193-0.551,0.331
			C2.557,22.325,1,18.841,1,15C1,7.28,7.28,1,15,1s14,6.28,14,14C29,18.857,27.432,22.354,24.901,24.888z"/>
		<path d="M23.75,13c0-3.234-1.521-6.267-3.971-7.915c-0.227-0.153-0.471-0.119-0.667-0.082C18.209,4.611,16.553,4,15,4
			c-4.962,0-9,4.038-9,9c0,0.385,0.286,1.111,0.469,1.534C6.273,15.205,6,16.198,6,16.5c0,1.795,1.034,3,2,3
			c0.106,0,0.2-0.022,0.283-0.06c0.305,0.918,0.744,2.219,0.744,2.219c0.024,0.073,0.065,0.14,0.12,0.194l3,3
			C12.24,24.947,12.367,25,12.5,25h5c0.133,0,0.26-0.053,0.354-0.146l3-3c0.055-0.055,0.096-0.121,0.12-0.193
			c0,0,0.437-1.294,0.744-2.22c0.083,0.037,0.176,0.06,0.282,0.06c0.966,0,2-1.205,2-3c0-0.31-0.288-1.348-0.484-2.018
			C23.589,14.144,23.75,13.359,23.75,13z M22.107,18.479c-0.017-0.022-0.033-0.047-0.047-0.067c-0.062-0.088-0.125-0.177-0.191-0.25
			c-0.121-0.132-0.306-0.188-0.477-0.15c-0.175,0.038-0.315,0.167-0.369,0.337c-0.161,0.509-0.798,2.401-0.96,2.881L17.293,24
			h-4.586l-2.771-2.771c-0.164-0.486-0.814-2.423-0.96-2.881c-0.054-0.17-0.194-0.298-0.369-0.337
			c-0.172-0.038-0.355,0.019-0.476,0.15C8.064,18.235,8,18.324,7.939,18.413c-0.014,0.02-0.03,0.044-0.047,0.066
			C7.53,18.352,7,17.623,7,16.507c0.011-0.185,0.257-1.112,0.479-1.865c0.034-0.114,0.025-0.237-0.023-0.346
			c-0.028-0.063-0.054-0.127-0.081-0.19c0.328,0.17,0.602,0.505,0.701,0.662c0.097,0.152,0.274,0.25,0.447,0.232
			c0.179-0.009,0.341-0.112,0.422-0.272c0.5-0.987,1.401-2.512,1.838-2.815c0.476-0.328,1.105-0.222,2.484,0.053l0.134,0.026
			c0.02,0.004,0.041,0.005,0.061,0.008c-0.078,0.09-0.15,0.187-0.187,0.31c-0.074,0.243-0.068,0.624,0.376,1.051
			c0.05,0.048,0.152,0.125,0.281,0.214c0.141,0.099,0.517,0.362,0.566,0.425c0,0.161-0.062,0.21-0.128,0.238
			c-0.157,0.068-0.399,0.021-0.526-0.1c-0.199-0.189-0.516-0.183-0.707,0.017c-0.19,0.2-0.183,0.517,0.017,0.707
			c0.279,0.266,0.664,0.409,1.046,0.409c0.193,0,0.386-0.037,0.564-0.113c0.46-0.197,0.735-0.63,0.735-1.158
			c0-0.549-0.573-0.951-0.992-1.244c-0.071-0.05-0.131-0.09-0.161-0.116c-0.02-0.019-0.036-0.036-0.049-0.051
			c0.08-0.039,0.196-0.079,0.292-0.097c0.217-0.039,0.369-0.214,0.399-0.42c1.222-0.084,2.447-0.483,3.215-1.113
			c0.055-0.045,0.107-0.091,0.156-0.138c0.338,0.57,0.906,1.019,1.688,1.145c0.193,1.064,0.909,2.562,1.002,2.753
			c0.08,0.166,0.245,0.273,0.429,0.281c0.007,0,0.015,0,0.021,0c0.176,0,0.339-0.092,0.43-0.244
			c0.003-0.005,0.263-0.415,0.638-0.629c-0.019,0.092-0.039,0.185-0.056,0.264c-0.019,0.083-0.016,0.169,0.009,0.251
			c0.223,0.753,0.469,1.681,0.479,1.858C23,17.623,22.47,18.352,22.107,18.479z"/>
		<path d="M12.5,16h-1c-0.276,0-0.5,0.224-0.5,0.5s0.224,0.5,0.5,0.5h1c0.276,0,0.5-0.224,0.5-0.5S12.776,16,12.5,16z"/>
		<path d="M18.5,16h-1c-0.276,0-0.5,0.224-0.5,0.5s0.224,0.5,0.5,0.5h1c0.276,0,0.5-0.224,0.5-0.5S18.776,16,18.5,16z"/>
	</g>
</g>
<g id="Captain_America">
</g>
<g id="Darth_Vader">
</g>
<g id="Harry_Potter">
</g>
<g id="Anonymus_2">
</g>
<g id="Scream">
</g>
<g id="Jason">
</g>
<g id="Charlie_Chaplin">
</g>
</svg>
