<?xml version="1.0" encoding="iso-8859-1"?>
<!-- Generator: Adobe Illustrator 19.2.1, SVG Export Plug-In . SVG Version: 6.00 Build 0)  -->
<svg version="1.1" xmlns="http://www.w3.org/2000/svg" xmlns:xlink="http://www.w3.org/1999/xlink" x="0px" y="0px"
	 viewBox="0 0 30 30" style="enable-background:new 0 0 30 30;" xml:space="preserve">
<g id="Man_1">
</g>
<g id="Woman_1">
</g>
<g id="Man_2">
</g>
<g id="Woman_2">
</g>
<g id="Bald_Man">
</g>
<g id="Man_Glasses">
</g>
<g id="Woman_Glasses">
</g>
<g id="Man_Beard">
</g>
<g id="Man_Cap">
</g>
<g id="Woman_Cap">
</g>
<g id="Man_3">
</g>
<g id="Woman_3">
</g>
<g id="Men_4">
</g>
<g id="Woman_4">
</g>
<g id="Business_Man_1">
</g>
<g id="Business_Woman_1">
</g>
<g id="Firefigyhter">
</g>
<g id="Policeman">
</g>
<g id="Criminal">
</g>
<g id="Prisoner">
</g>
<g id="Woodsman">
</g>
<g id="Dispatcher_1">
</g>
<g id="Dispatcher_2">
</g>
<g id="Soldier">
</g>
<g id="Astronaut">
</g>
<g id="Hipster_Guy">
</g>
<g id="Hipster_Girl">
</g>
<g id="Worker">
</g>
<g id="Old_Man">
</g>
<g id="Punk">
</g>
<g id="Diver">
</g>
<g id="Artist">
</g>
<g id="Dictator">
</g>
<g id="Man_Hat">
</g>
<g id="Woman_Hat">
</g>
<g id="Graduated_Man">
</g>
<g id="Graduated_Woman">
</g>
<g id="Avatar_Chef">
</g>
<g id="Waiter">
	<g>
		<path d="M15,3c-4.794,0-9,4.439-9,9.5c0,0.313,0.065,0.575,0.115,0.728C6.08,13.521,6,14.236,6,14.509
			c0,1.813,0.752,3.179,1.75,3.179c0.087,0,0.19-0.012,0.304-0.046c0.958,2.403,2.94,4.356,5.18,5.064
			c0.104,0.036,0.208,0.069,0.324,0.101c0.144,0.037,0.287,0.071,0.428,0.096C14.346,22.969,14.651,23,14.948,23
			s0.603-0.031,0.958-0.097c0.146-0.025,0.289-0.06,0.443-0.099c0.105-0.029,0.208-0.063,0.302-0.095
			c2.313-0.731,4.335-2.685,5.295-5.068c0.114,0.034,0.218,0.046,0.305,0.046c0.998,0,1.75-1.366,1.75-3.179
			c0-0.272-0.08-0.987-0.114-1.281C23.935,13.075,24,12.813,24,12.5C24,7.439,19.794,3,15,3z M22.25,16.688
			c-0.025,0-0.096-0.029-0.195-0.139c-0.122-0.132-0.308-0.188-0.477-0.15c-0.175,0.038-0.315,0.167-0.369,0.337
			c-0.849,2.676-3.053,4.45-4.87,5.024c-0.085,0.029-0.17,0.057-0.245,0.078c-0.12,0.029-0.239,0.06-0.366,0.082
			C15.43,21.975,15.183,22,14.948,22c-0.234,0-0.482-0.025-0.785-0.081c-0.122-0.021-0.241-0.052-0.35-0.079
			c-0.086-0.023-0.171-0.051-0.266-0.083c-2.136-0.676-4.002-2.646-4.756-5.021c-0.054-0.17-0.194-0.298-0.369-0.337
			c-0.173-0.039-0.355,0.019-0.476,0.15c-0.101,0.109-0.171,0.139-0.196,0.139c-0.218,0-0.75-0.764-0.75-2.179
			c0-0.201,0.074-0.891,0.122-1.279c0.006-0.053-0.012-0.105-0.023-0.159c0.609,0.128,1.191,0.383,1.199,0.386
			c0.151,0.068,0.327,0.056,0.467-0.033C8.905,13.337,8.993,13.186,9,13.021C9.037,12.105,9.292,11.104,9.5,11
			c0.817,0,3.342-0.569,4.206-2.257c1.188,1.108,3.715,2.142,6.351,2.249c0.21,0.987,0.928,2.131,1.022,2.278
			c0.095,0.147,0.255,0.23,0.421,0.23c0.07,0,0.141-0.015,0.208-0.045c0.196-0.09,0.691-0.278,1.194-0.382
			c-0.01,0.052-0.029,0.103-0.023,0.156C22.926,13.617,23,14.308,23,14.509C23,15.924,22.468,16.688,22.25,16.688z"/>
		<path d="M12.5,13h-1c-0.276,0-0.5,0.224-0.5,0.5s0.224,0.5,0.5,0.5h1c0.276,0,0.5-0.224,0.5-0.5S12.776,13,12.5,13z"/>
		<path d="M18.5,13h-1c-0.276,0-0.5,0.224-0.5,0.5s0.224,0.5,0.5,0.5h1c0.276,0,0.5-0.224,0.5-0.5S18.776,13,18.5,13z"/>
		<path d="M15,0C6.729,0,0,6.729,0,15c0,8.271,6.729,15,15,15c8.271,0,15-6.729,15-15C30,6.729,23.271,0,15,0z M4.168,23.856
			c0.271-0.064,0.585-0.14,0.862-0.207c0.016,0.049,0.033,0.099,0.065,0.143c0.386,0.536,0.612,1.218,0.743,1.768
			C5.235,25.038,4.673,24.472,4.168,23.856z M24.163,25.56c0.13-0.55,0.357-1.232,0.743-1.768c0.032-0.044,0.049-0.094,0.065-0.143
			c0.279,0.068,0.592,0.143,0.861,0.207C25.327,24.472,24.764,25.038,24.163,25.56z M24.584,22.516l-1.921-0.488
			c-0.184-0.063-0.474-0.235-0.775-0.459c-0.021-0.016-0.046-0.02-0.069-0.032c-0.031-0.017-0.061-0.035-0.095-0.044
			c-0.027-0.007-0.053-0.007-0.08-0.01c-0.037-0.004-0.073-0.009-0.111-0.005c-0.026,0.003-0.05,0.013-0.076,0.02
			c-0.036,0.01-0.071,0.018-0.104,0.036c-0.028,0.015-0.05,0.037-0.075,0.057c-0.021,0.017-0.046,0.028-0.065,0.05L15,28.741
			l-6.213-7.101c-0.019-0.022-0.045-0.033-0.066-0.051c-0.025-0.02-0.047-0.043-0.075-0.057c-0.031-0.017-0.064-0.025-0.097-0.034
			c-0.028-0.008-0.055-0.019-0.084-0.022c-0.034-0.004-0.067,0.001-0.101,0.005c-0.03,0.003-0.06,0.003-0.089,0.011
			c-0.032,0.009-0.06,0.027-0.09,0.043c-0.024,0.012-0.05,0.017-0.072,0.034c-0.301,0.224-0.59,0.396-0.735,0.447l-1.995,0.51
			c-0.119,0.04-1.019,0.258-1.867,0.458C1.934,20.716,1,17.967,1,15C1,7.28,7.28,1,15,1s14,6.28,14,14
			c0,2.967-0.934,5.716-2.515,7.983C25.638,22.783,24.736,22.565,24.584,22.516z"/>
		<path d="M16.342,23.525L15,23.973l-1.342-0.447c-0.154-0.05-0.32-0.025-0.451,0.069C13.077,23.688,13,23.839,13,24v1
			c0,0.161,0.077,0.312,0.208,0.405c0.131,0.095,0.297,0.117,0.451,0.069L15,25.027l1.342,0.447
			c0.052,0.017,0.105,0.025,0.158,0.025c0.104,0,0.206-0.032,0.292-0.095C16.923,25.312,17,25.161,17,25v-1
			c0-0.161-0.077-0.312-0.208-0.405C16.662,23.5,16.494,23.477,16.342,23.525z"/>
	</g>
</g>
<g id="Waitress">
</g>
<g id="Bllboy">
</g>
<g id="Santa">
</g>
<g id="Doctor">
</g>
<g id="Nurse">
</g>
<g id="Captain">
</g>
<g id="Farmer">
</g>
<g id="Maid">
</g>
<g id="Business_Man_2">
</g>
<g id="Business_Woman_2">
</g>
<g id="Cowboy">
</g>
<g id="Anonymus">
</g>
<g id="Batman">
</g>
<g id="Superman">
</g>
<g id="Captain_America">
</g>
<g id="Darth_Vader">
</g>
<g id="Harry_Potter">
</g>
<g id="Anonymus_2">
</g>
<g id="Scream">
</g>
<g id="Jason">
</g>
<g id="Charlie_Chaplin">
</g>
</svg>
