<?xml version="1.0" encoding="iso-8859-1"?>
<!-- Generator: Adobe Illustrator 19.2.1, SVG Export Plug-In . SVG Version: 6.00 Build 0)  -->
<svg version="1.1" xmlns="http://www.w3.org/2000/svg" xmlns:xlink="http://www.w3.org/1999/xlink" x="0px" y="0px"
	 viewBox="0 0 30 30" style="enable-background:new 0 0 30 30;" xml:space="preserve">
<g id="Present_1">
</g>
<g id="Present_2">
</g>
<g id="Present_3">
</g>
<g id="Present_Cake">
</g>
<g id="Present_4">
</g>
<g id="Birthday_Cake_1">
</g>
<g id="Birthday_Cake_2">
</g>
<g id="Cake_Piece">
</g>
<g id="Cupcake">
</g>
<g id="Lollipop">
</g>
<g id="Birthday_Greetings_1">
</g>
<g id="Party_Greetings_2">
</g>
<g id="Birthday_Invitation">
</g>
<g id="Birthday_1">
</g>
<g id="Birthday_2">
</g>
<g id="Birthday_Message_1">
</g>
<g id="Birthday_Message_2">
</g>
<g id="Birthyday_Hat_1">
</g>
<g id="Birthay_Hat_2">
</g>
<g id="Birthday_Hat3">
</g>
<g id="Birthday_Decoration_1">
</g>
<g id="Birthday_Decoration_2">
</g>
<g id="Birthday_Decoration_3">
</g>
<g id="Horn_1">
</g>
<g id="Horn_2">
</g>
<g id="Baloon">
</g>
<g id="Balloons_1">
	<g>
		<g>
			<path d="M11.213,18.652H9.952c-0.173,0-0.334-0.09-0.426-0.237c-0.091-0.147-0.099-0.331-0.021-0.486l0.631-1.261
				c0.085-0.169,0.258-0.276,0.447-0.276l0,0c0.189,0,0.362,0.107,0.447,0.276l0.63,1.261c0.077,0.155,0.069,0.339-0.022,0.486
				C11.547,18.563,11.386,18.652,11.213,18.652z"/>
		</g>
		<g>
			<path d="M10.583,30c-0.276,0-0.5-0.224-0.5-0.5V18.152c0-0.276,0.224-0.5,0.5-0.5s0.5,0.224,0.5,0.5V29.5
				C11.083,29.776,10.859,30,10.583,30z"/>
		</g>
		<g>
			<path d="M16.187,18.644c-0.731,0-1.327-0.119-1.697-0.36c-1.674-1.093-2.935-7.452-0.524-11.145
				c2.261-3.46,5.977-4.349,9.246-2.216c3.27,2.136,3.949,5.896,1.691,9.356l0,0C23.023,17.155,18.767,18.644,16.187,18.644z
				 M19.561,4.769c-1.802,0-3.508,1.002-4.758,2.917c-2.111,3.234-0.926,9.003,0.233,9.76c1.156,0.756,6.917-0.479,9.028-3.714
				c1.962-3.006,1.412-6.135-1.4-7.972C21.644,5.094,20.586,4.769,19.561,4.769z M24.483,14.005h0.01H24.483z"/>
		</g>
		<g>
			<path d="M16.495,9.291c-0.095,0-0.189-0.026-0.273-0.082c-0.231-0.151-0.296-0.461-0.146-0.692
				c1.459-2.23,3.723-2.811,5.757-1.483c0.231,0.151,0.296,0.46,0.146,0.692c-0.15,0.232-0.462,0.297-0.692,0.145
				c-1.593-1.039-3.202-0.597-4.372,1.193C16.817,9.211,16.658,9.291,16.495,9.291z"/>
		</g>
		<g>
			<path d="M6.8,8.025c-0.276,0-0.5-0.224-0.5-0.5c0-3.086,1.641-5.003,4.282-5.003c0.276,0,0.5,0.224,0.5,0.5s-0.224,0.5-0.5,0.5
				C8.496,3.522,7.3,4.981,7.3,7.525C7.3,7.801,7.076,8.025,6.8,8.025z"/>
		</g>
		<g>
			<path d="M10.583,17.392c-2.083,0-6.805-5.056-6.805-9.867C3.778,3.024,6.513,0,10.583,0c3.165,0,5.645,1.946,6.472,5.078
				c0.07,0.267-0.089,0.541-0.355,0.611c-0.269,0.071-0.54-0.089-0.611-0.356C15.371,2.62,13.313,1,10.583,1
				C7.111,1,4.778,3.622,4.778,7.525c0,4.257,4.352,8.867,5.805,8.867c0.436,0,1.371-0.521,2.482-1.685
				c0.19-0.2,0.507-0.207,0.707-0.017c0.199,0.191,0.207,0.507,0.016,0.707C13.216,15.997,11.758,17.392,10.583,17.392z"/>
		</g>
		<g>
			<path d="M14.365,19.913c-0.076,0-0.153-0.018-0.224-0.053l-1.261-0.631c-0.161-0.08-0.266-0.24-0.275-0.42
				s0.077-0.35,0.228-0.447l1.534-0.99c0.166-0.108,0.379-0.108,0.547,0.002c0.165,0.109,0.251,0.306,0.218,0.501l-0.273,1.621
				c-0.026,0.156-0.125,0.291-0.267,0.363C14.521,19.895,14.443,19.913,14.365,19.913z"/>
		</g>
		<g>
			<path d="M10.583,30c-0.047,0-0.094-0.007-0.141-0.021c-0.266-0.078-0.417-0.355-0.339-0.62l3.152-10.718
				c0.077-0.266,0.359-0.413,0.62-0.339c0.266,0.078,0.417,0.355,0.339,0.62l-3.152,10.718C10.999,29.859,10.799,30,10.583,30z"/>
		</g>
	</g>
</g>
<g id="Balloons_2">
</g>
<g id="Birthday_Picture">
</g>
<g id="Kid_x27_s_Champagne">
</g>
<g id="Candy">
</g>
<g id="Birthday_Card">
</g>
<g id="Flowers">
</g>
<g id="Birthday_Song">
</g>
<g id="Candle">
</g>
<g id="Sweet_16">
</g>
<g id="Clown">
</g>
<g id="Clown_2">
</g>
<g id="Birthday_Party">
</g>
<g id="Giving_Gift">
</g>
<g id="Present_5">
</g>
<g id="Champagne_in_ice_bucket">
</g>
<g id="Beer">
</g>
<g id="Truffles">
</g>
<g id="Pinata">
</g>
</svg>
