<?xml version="1.0" encoding="iso-8859-1"?>
<!-- Generator: Adobe Illustrator 19.2.1, SVG Export Plug-In . SVG Version: 6.00 Build 0)  -->
<svg version="1.1" xmlns="http://www.w3.org/2000/svg" xmlns:xlink="http://www.w3.org/1999/xlink" x="0px" y="0px"
	 viewBox="0 0 30 30" style="enable-background:new 0 0 30 30;" xml:space="preserve">
<g id="Present_1">
</g>
<g id="Present_2">
</g>
<g id="Present_3">
</g>
<g id="Present_Cake">
</g>
<g id="Present_4">
</g>
<g id="Birthday_Cake_1">
</g>
<g id="Birthday_Cake_2">
</g>
<g id="Cake_Piece">
</g>
<g id="Cupcake">
</g>
<g id="Lollipop">
</g>
<g id="Birthday_Greetings_1">
</g>
<g id="Party_Greetings_2">
</g>
<g id="Birthday_Invitation">
</g>
<g id="Birthday_1">
</g>
<g id="Birthday_2">
</g>
<g id="Birthday_Message_1">
</g>
<g id="Birthday_Message_2">
</g>
<g id="Birthyday_Hat_1">
</g>
<g id="Birthay_Hat_2">
</g>
<g id="Birthday_Hat3">
</g>
<g id="Birthday_Decoration_1">
</g>
<g id="Birthday_Decoration_2">
</g>
<g id="Birthday_Decoration_3">
</g>
<g id="Horn_1">
</g>
<g id="Horn_2">
</g>
<g id="Baloon">
</g>
<g id="Balloons_1">
</g>
<g id="Balloons_2">
	<g>
		<g>
			<path d="M11.5,17.5c-3.688,0-7-7.367-7-10.846C4.5,2.985,7.641,0,11.5,0s7,2.985,7,6.654C18.5,10.133,15.188,17.5,11.5,17.5z
				 M11.5,1c-3.309,0-6,2.536-6,5.654c0,3.338,3.239,9.846,6,9.846c2.821,0,6-6.423,6-9.846C17.5,3.536,14.809,1,11.5,1z"/>
		</g>
		<g>
			<path d="M18.5,20c-1.608,0-3.344-1.525-4.762-4.185c-0.13-0.244-0.037-0.547,0.206-0.677c0.241-0.129,0.546-0.038,0.677,0.206
				C15.841,17.634,17.291,19,18.5,19c2.531,0,5.5-5.889,5.5-8.91C24,7.283,21.532,5,18.5,5c-0.292,0-0.563,0.021-0.805,0.063
				c-0.275,0.048-0.531-0.136-0.578-0.408c-0.046-0.272,0.137-0.531,0.408-0.577C17.823,4.026,18.151,4,18.5,4
				c3.584,0,6.5,2.732,6.5,6.09C25,13.269,21.925,20,18.5,20z"/>
		</g>
		<g>
			<path d="M13,20h-3c-0.18,0-0.347-0.097-0.436-0.254c-0.088-0.156-0.086-0.349,0.007-0.503l1.5-2.5
				c0.18-0.303,0.678-0.303,0.857,0l1.5,2.5c0.093,0.154,0.095,0.347,0.007,0.503C13.347,19.903,13.18,20,13,20z M10.883,19h1.234
				L11.5,17.972L10.883,19z"/>
		</g>
		<g>
			<path d="M20,22h-3c-0.189,0-0.362-0.107-0.447-0.276S16.486,21.352,16.6,21.2l1.5-2c0.189-0.252,0.611-0.252,0.801,0l1.5,2
				c0.113,0.151,0.132,0.354,0.047,0.523S20.189,22,20,22z M18,21h1l-0.5-0.667L18,21z"/>
		</g>
		<g>
			<path d="M11.5,30c-0.276,0-0.5-0.224-0.5-0.5v-10c0-0.276,0.224-0.5,0.5-0.5s0.5,0.224,0.5,0.5v10C12,29.776,11.776,30,11.5,30z"
				/>
		</g>
		<g>
			<path d="M18.5,30c-0.276,0-0.5-0.224-0.5-0.5v-8c0-0.276,0.224-0.5,0.5-0.5s0.5,0.224,0.5,0.5v8C19,29.776,18.776,30,18.5,30z"/>
		</g>
		<g>
			<circle cx="6.304" cy="9.326" r="0.63"/>
		</g>
		<g>
			<circle cx="11.348" cy="9.326" r="0.63"/>
		</g>
		<g>
			<circle cx="11.348" cy="14.37" r="0.63"/>
		</g>
		<g>
			<circle cx="16.391" cy="9.326" r="0.63"/>
		</g>
		<g>
			<circle cx="6.304" cy="4.283" r="0.63"/>
		</g>
		<g>
			<circle cx="11.348" cy="4.283" r="0.63"/>
		</g>
		<g>
			<circle cx="16.391" cy="4.283" r="0.63"/>
		</g>
		<g>
			<circle cx="8.826" cy="11.848" r="0.63"/>
		</g>
		<g>
			<circle cx="13.87" cy="11.848" r="0.63"/>
		</g>
		<g>
			<circle cx="18.913" cy="14.37" r="0.63"/>
		</g>
		<g>
			<circle cx="18.913" cy="9.326" r="0.63"/>
		</g>
		<g>
			<circle cx="16.391" cy="16.891" r="0.63"/>
		</g>
		<g>
			<circle cx="21.435" cy="16.891" r="0.63"/>
		</g>
		<g>
			<circle cx="21.435" cy="11.848" r="0.63"/>
		</g>
		<g>
			<circle cx="21.435" cy="6.804" r="0.63"/>
		</g>
		<g>
			<circle cx="8.826" cy="6.804" r="0.63"/>
		</g>
		<g>
			<circle cx="13.87" cy="6.804" r="0.63"/>
		</g>
		<g>
			<circle cx="8.826" cy="1.761" r="0.63"/>
		</g>
		<g>
			<circle cx="13.87" cy="1.761" r="0.63"/>
		</g>
	</g>
</g>
<g id="Birthday_Picture">
</g>
<g id="Kid_x27_s_Champagne">
</g>
<g id="Candy">
</g>
<g id="Birthday_Card">
</g>
<g id="Flowers">
</g>
<g id="Birthday_Song">
</g>
<g id="Candle">
</g>
<g id="Sweet_16">
</g>
<g id="Clown">
</g>
<g id="Clown_2">
</g>
<g id="Birthday_Party">
</g>
<g id="Giving_Gift">
</g>
<g id="Present_5">
</g>
<g id="Champagne_in_ice_bucket">
</g>
<g id="Beer">
</g>
<g id="Truffles">
</g>
<g id="Pinata">
</g>
</svg>
