<?xml version="1.0" encoding="iso-8859-1"?>
<!-- Generator: Adobe Illustrator 19.2.1, SVG Export Plug-In . SVG Version: 6.00 Build 0)  -->
<svg version="1.1" xmlns="http://www.w3.org/2000/svg" xmlns:xlink="http://www.w3.org/1999/xlink" x="0px" y="0px"
	 viewBox="0 0 30 30" style="enable-background:new 0 0 30 30;" xml:space="preserve">
<g id="Present_1">
</g>
<g id="Present_2">
</g>
<g id="Present_3">
</g>
<g id="Present_Cake">
</g>
<g id="Present_4">
</g>
<g id="Birthday_Cake_1">
</g>
<g id="Birthday_Cake_2">
</g>
<g id="Cake_Piece">
</g>
<g id="Cupcake">
</g>
<g id="Lollipop">
</g>
<g id="Birthday_Greetings_1">
</g>
<g id="Party_Greetings_2">
</g>
<g id="Birthday_Invitation">
</g>
<g id="Birthday_1">
</g>
<g id="Birthday_2">
</g>
<g id="Birthday_Message_1">
	<g>
		<g>
			<path d="M17.65,21H11.35C10,21,10,19.803,10,19.41v-1.27c0-0.276,0.224-0.5,0.5-0.5s0.5,0.224,0.5,0.5v1.27
				C11,20,11.074,20,11.35,20h6.301c0.275,0,0.35,0,0.35-0.59v-1.27c0-0.276,0.224-0.5,0.5-0.5s0.5,0.224,0.5,0.5v1.27
				C19,19.803,19,21,17.65,21z"/>
		</g>
		<g>
			<path d="M14.5,11.011c-0.827,0-1.5-0.673-1.5-1.5c0-0.639,0.762-1.81,1.089-2.284c0.186-0.271,0.637-0.271,0.822,0
				C15.238,7.701,16,8.872,16,9.511C16,10.338,15.327,11.011,14.5,11.011z M14.5,8.438c-0.288,0.485-0.496,0.921-0.5,1.074
				c0,0.275,0.225,0.5,0.5,0.5s0.5-0.224,0.5-0.5C14.995,9.357,14.788,8.922,14.5,8.438z"/>
		</g>
		<g>
			<path d="M18.445,18.652c-0.788,0-1.505-0.379-1.961-0.955c-0.444,0.58-1.15,0.955-1.943,0.955c-0.795,0-1.502-0.384-1.941-0.974
				c-0.478,0.583-1.228,0.974-2.035,0.974C9.198,18.652,8,17.535,8,16.261v-0.63C8,14.655,9.079,14,10.087,14h8.826
				C19.921,14,21,14.655,21,15.63v0.63C21,17.535,19.807,18.652,18.445,18.652z M16.973,16.261c0,0.741,0.688,1.392,1.473,1.392
				c0.813,0,1.555-0.663,1.555-1.392v-0.63c0-0.333-0.607-0.63-1.087-0.63h-8.826C9.607,15,9,15.297,9,15.63v0.63
				c0,0.729,0.746,1.392,1.564,1.392s1.564-0.663,1.564-1.392c0-0.276,0.224-0.5,0.5-0.5s0.5,0.224,0.5,0.5
				c0,0.767,0.634,1.392,1.412,1.392c0.776,0,1.432-0.637,1.432-1.392c0-0.276,0.224-0.5,0.5-0.5S16.973,15.984,16.973,16.261z"/>
		</g>
		<g>
			<path d="M15.5,15h-2c-0.276,0-0.5-0.224-0.5-0.5v-3c0-0.276,0.224-0.5,0.5-0.5h2c0.276,0,0.5,0.224,0.5,0.5v3
				C16,14.776,15.776,15,15.5,15z M14,14h1v-2h-1V14z"/>
		</g>
		<g>
			<path d="M18.718,30h-8.436C7.921,30,6,28.079,6,25.717V4.283C6,1.921,7.921,0,10.282,0h8.436C21.079,0,23,1.921,23,4.283v21.435
				C23,28.079,21.079,30,18.718,30z M10.282,1C8.473,1,7,2.473,7,4.283v21.435C7,27.527,8.473,29,10.282,29h8.436
				C20.527,29,22,27.527,22,25.717V4.283C22,2.473,20.527,1,18.718,1H10.282z"/>
		</g>
		<g>
			<path d="M22.5,24h-16C6.224,24,6,23.776,6,23.5S6.224,23,6.5,23h16c0.276,0,0.5,0.224,0.5,0.5S22.776,24,22.5,24z"/>
		</g>
		<g id="XMLID_50_">
			<path d="M22.5,6h-16C6.224,6,6,5.776,6,5.5S6.224,5,6.5,5h16C22.776,5,23,5.224,23,5.5S22.776,6,22.5,6z"/>
		</g>
		<g id="XMLID_52_">
			<path d="M14,28c-0.827,0-1.5-0.673-1.5-1.5S13.173,25,14,25s1.5,0.673,1.5,1.5S14.827,28,14,28z M14,26
				c-0.275,0-0.5,0.224-0.5,0.5S13.725,27,14,27s0.5-0.224,0.5-0.5S14.275,26,14,26z"/>
		</g>
		<g id="XMLID_53_">
			<path d="M15,4h-1c-0.276,0-0.5-0.224-0.5-0.5S13.724,3,14,3h1c0.276,0,0.5,0.224,0.5,0.5S15.276,4,15,4z"/>
		</g>
		<g id="XMLID_54_">
			<path d="M18.933,3.522c-0.275,0-0.505-0.224-0.505-0.5s0.219-0.5,0.495-0.5h0.01c0.276,0,0.5,0.224,0.5,0.5
				S19.209,3.522,18.933,3.522z"/>
		</g>
	</g>
</g>
<g id="Birthday_Message_2">
</g>
<g id="Birthyday_Hat_1">
</g>
<g id="Birthay_Hat_2">
</g>
<g id="Birthday_Hat3">
</g>
<g id="Birthday_Decoration_1">
</g>
<g id="Birthday_Decoration_2">
</g>
<g id="Birthday_Decoration_3">
</g>
<g id="Horn_1">
</g>
<g id="Horn_2">
</g>
<g id="Baloon">
</g>
<g id="Balloons_1">
</g>
<g id="Balloons_2">
</g>
<g id="Birthday_Picture">
</g>
<g id="Kid_x27_s_Champagne">
</g>
<g id="Candy">
</g>
<g id="Birthday_Card">
</g>
<g id="Flowers">
</g>
<g id="Birthday_Song">
</g>
<g id="Candle">
</g>
<g id="Sweet_16">
</g>
<g id="Clown">
</g>
<g id="Clown_2">
</g>
<g id="Birthday_Party">
</g>
<g id="Giving_Gift">
</g>
<g id="Present_5">
</g>
<g id="Champagne_in_ice_bucket">
</g>
<g id="Beer">
</g>
<g id="Truffles">
</g>
<g id="Pinata">
</g>
</svg>
