<?xml version="1.0" encoding="iso-8859-1"?>
<!-- Generator: Adobe Illustrator 19.2.1, SVG Export Plug-In . SVG Version: 6.00 Build 0)  -->
<svg version="1.1" xmlns="http://www.w3.org/2000/svg" xmlns:xlink="http://www.w3.org/1999/xlink" x="0px" y="0px"
	 viewBox="0 0 30 30" style="enable-background:new 0 0 30 30;" xml:space="preserve">
<g id="Present_1">
</g>
<g id="Present_2">
</g>
<g id="Present_3">
</g>
<g id="Present_Cake">
</g>
<g id="Present_4">
</g>
<g id="Birthday_Cake_1">
</g>
<g id="Birthday_Cake_2">
</g>
<g id="Cake_Piece">
</g>
<g id="Cupcake">
</g>
<g id="Lollipop">
</g>
<g id="Birthday_Greetings_1">
</g>
<g id="Party_Greetings_2">
</g>
<g id="Birthday_Invitation">
</g>
<g id="Birthday_1">
	<g>
		<g>
			<path d="M7.002,8c-1.103,0-2-0.894-2-1.993V2.993C5.002,1.894,5.896,1,6.995,1c1.107,0,2.007,0.897,2.007,2v3.015
				C9.002,7.109,8.105,8,7.002,8z M6.995,2C6.448,2,6.002,2.445,6.002,2.993v3.015c0,0.547,0.449,0.993,1,0.993s1-0.442,1-0.985V3
				C8.002,2.458,7.541,2,6.995,2z"/>
		</g>
		<g>
			<path d="M22.002,8c-1.103,0-2-0.894-2-1.993V2.993C20.002,1.894,20.896,1,21.995,1c1.107,0,2.007,0.897,2.007,2v3.015
				C24.002,7.109,23.105,8,22.002,8z M21.995,2c-0.547,0-0.993,0.445-0.993,0.993v3.015c0,0.547,0.449,0.993,1,0.993
				s1-0.442,1-0.985V3C23.002,2.458,22.541,2,21.995,2z"/>
		</g>
		<g>
			<path d="M20.517,5H8.502c-0.276,0-0.5-0.224-0.5-0.5S8.226,4,8.502,4h12.015c0.276,0,0.5,0.224,0.5,0.5S20.793,5,20.517,5z"/>
		</g>
		<g>
			<path d="M28.488,11H0.502c-0.133,0-0.26-0.053-0.354-0.147c-0.094-0.094-0.146-0.221-0.146-0.354L0.01,7.492
				C0.014,5.566,1.584,4,3.51,4h2.007c0.276,0,0.5,0.224,0.5,0.5S5.793,5,5.517,5H3.51c-1.375,0-2.497,1.119-2.5,2.494L1.003,10
				h26.986l0.006-2.494c0.001-0.669-0.258-1.298-0.73-1.771C26.792,5.261,26.164,5,25.495,5h-1.993c-0.276,0-0.5-0.224-0.5-0.5
				s0.224-0.5,0.5-0.5h1.993c0.937,0,1.816,0.365,2.478,1.028c0.662,0.663,1.025,1.544,1.022,2.48l-0.007,2.993
				C28.987,10.777,28.764,11,28.488,11z"/>
		</g>
		<g>
			<path d="M25.5,30H3.515c-1.929,0-3.499-1.569-3.5-3.497L0.002,10.5c0-0.133,0.053-0.26,0.146-0.354S0.37,10,0.502,10h27.985
				c0.276,0,0.5,0.224,0.5,0.5L29,26.497c0.001,0.936-0.363,1.815-1.024,2.477C27.314,29.636,26.436,30,25.5,30z M1.003,11
				l0.012,15.502C1.016,27.879,2.137,29,3.515,29H25.5c0.668,0,1.296-0.26,1.769-0.733S28,27.166,28,26.498L27.988,11H1.003z"/>
		</g>
		<g>
			<path d="M7.252,23h-1.75c-0.276,0-0.5-0.224-0.5-0.5v-6c0-0.276,0.224-0.5,0.5-0.5h1.75c0.965,0,1.75,0.897,1.75,2
				c0,0.597-0.23,1.133-0.594,1.5c0.364,0.367,0.594,0.903,0.594,1.5C9.002,22.103,8.217,23,7.252,23z M6.002,22h1.25
				c0.407,0,0.75-0.458,0.75-1s-0.343-1-0.75-1h-1.25V22z M6.002,19h1.25c0.407,0,0.75-0.458,0.75-1s-0.343-1-0.75-1h-1.25V19z"/>
		</g>
		<g>
			<path d="M11.502,23c-0.276,0-0.5-0.224-0.5-0.5v-6c0-0.276,0.224-0.5,0.5-0.5c1.93,0,3.5,1.57,3.5,3.5S13.432,23,11.502,23z
				 M12.002,17.05v4.899c1.14-0.232,2-1.242,2-2.45S13.142,17.283,12.002,17.05z"/>
		</g>
		<g>
			<path d="M19.502,23c-0.209,0-0.404-0.132-0.474-0.342l-1.526-4.577l-1.526,4.577c-0.087,0.262-0.367,0.404-0.632,0.316
				c-0.262-0.087-0.403-0.37-0.316-0.632l2-6c0.136-0.408,0.813-0.408,0.948,0l2,6c0.087,0.262-0.054,0.545-0.316,0.632
				C19.608,22.992,19.555,23,19.502,23z"/>
		</g>
		<g>
			<path d="M18.502,21h-2c-0.276,0-0.5-0.224-0.5-0.5s0.224-0.5,0.5-0.5h2c0.276,0,0.5,0.224,0.5,0.5S18.779,21,18.502,21z"/>
		</g>
		<g>
			<path d="M21.5,20c-0.189,0-0.362-0.107-0.447-0.276l-1.5-3c-0.124-0.247-0.023-0.547,0.224-0.671
				c0.247-0.122,0.547-0.023,0.671,0.224l1.053,2.105l1.053-2.105c0.124-0.247,0.425-0.346,0.671-0.224
				c0.247,0.124,0.347,0.424,0.224,0.671l-1.5,3C21.862,19.893,21.689,20,21.5,20z"/>
		</g>
		<g>
			<path d="M21.5,23c-0.276,0-0.5-0.224-0.5-0.5v-3c0-0.276,0.224-0.5,0.5-0.5s0.5,0.224,0.5,0.5v3C22,22.776,21.776,23,21.5,23z"/>
		</g>
		<g>
			<circle cx="9.502" cy="22.5" r="0.5"/>
		</g>
	</g>
</g>
<g id="Birthday_2">
</g>
<g id="Birthday_Message_1">
</g>
<g id="Birthday_Message_2">
</g>
<g id="Birthyday_Hat_1">
</g>
<g id="Birthay_Hat_2">
</g>
<g id="Birthday_Hat3">
</g>
<g id="Birthday_Decoration_1">
</g>
<g id="Birthday_Decoration_2">
</g>
<g id="Birthday_Decoration_3">
</g>
<g id="Horn_1">
</g>
<g id="Horn_2">
</g>
<g id="Baloon">
</g>
<g id="Balloons_1">
</g>
<g id="Balloons_2">
</g>
<g id="Birthday_Picture">
</g>
<g id="Kid_x27_s_Champagne">
</g>
<g id="Candy">
</g>
<g id="Birthday_Card">
</g>
<g id="Flowers">
</g>
<g id="Birthday_Song">
</g>
<g id="Candle">
</g>
<g id="Sweet_16">
</g>
<g id="Clown">
</g>
<g id="Clown_2">
</g>
<g id="Birthday_Party">
</g>
<g id="Giving_Gift">
</g>
<g id="Present_5">
</g>
<g id="Champagne_in_ice_bucket">
</g>
<g id="Beer">
</g>
<g id="Truffles">
</g>
<g id="Pinata">
</g>
</svg>
