<?xml version="1.0" encoding="iso-8859-1"?>
<!-- Generator: Adobe Illustrator 19.2.1, SVG Export Plug-In . SVG Version: 6.00 Build 0)  -->
<svg version="1.1" xmlns="http://www.w3.org/2000/svg" xmlns:xlink="http://www.w3.org/1999/xlink" x="0px" y="0px"
	 viewBox="0 0 30 30" style="enable-background:new 0 0 30 30;" xml:space="preserve">
<g id="Present_1">
</g>
<g id="Present_2">
</g>
<g id="Present_3">
</g>
<g id="Present_Cake">
</g>
<g id="Present_4">
</g>
<g id="Birthday_Cake_1">
</g>
<g id="Birthday_Cake_2">
	<g>
		<g>
			<path d="M24.5,30h-20C4.224,30,4,29.776,4,29.5v-7C4,20.57,5.57,19,7.5,19h14c1.93,0,3.5,1.57,3.5,3.5v7
				C25,29.776,24.776,30,24.5,30z M5,29h19v-6.5c0-1.378-1.121-2.5-2.5-2.5h-14C6.121,20,5,21.122,5,22.5V29z"/>
		</g>
		<g>
			<path d="M22.5,20h-16C6.224,20,6,19.776,6,19.5v-5C6,12.57,7.57,11,9.5,11h10c1.93,0,3.5,1.57,3.5,3.5v5
				C23,19.776,22.776,20,22.5,20z M7,19h15v-4.5c0-1.378-1.121-2.5-2.5-2.5h-10C8.121,12,7,13.122,7,14.5V19z"/>
		</g>
		<g>
			<path d="M17.001,16.588c-0.507,0-1.013-0.115-1.474-0.346c-0.643-0.321-1.41-0.321-2.053,0c-0.924,0.463-2.025,0.462-2.947,0
				c-0.643-0.321-1.41-0.321-2.053,0C7.959,16.5,7.404,16.5,7,16.5c-0.276,0-0.5-0.224-0.5-0.5s0.224-0.5,0.5-0.5
				c0.409,0,0.745-0.011,1.027-0.152c0.921-0.46,2.022-0.461,2.947,0c0.643,0.321,1.41,0.321,2.053,0
				c0.921-0.46,2.022-0.461,2.947,0c0.643,0.321,1.41,0.321,2.053,0c0.921-0.46,2.022-0.461,2.947,0
				C21.256,15.489,21.591,15.5,22,15.5c0.276,0,0.5,0.224,0.5,0.5s-0.224,0.5-0.5,0.5c-0.404,0-0.958,0-1.473-0.258
				c-0.643-0.32-1.41-0.321-2.053,0C18.013,16.473,17.507,16.588,17.001,16.588z"/>
		</g>
		<g>
			<path d="M24.5,25c-0.508,0-1.018-0.12-1.474-0.348c-0.643-0.321-1.41-0.321-2.053,0c-0.921,0.46-2.022,0.461-2.947,0
				c-0.643-0.321-1.41-0.321-2.053,0c-0.921,0.46-2.022,0.461-2.947,0c-0.643-0.321-1.41-0.321-2.053,0
				c-0.921,0.46-2.022,0.461-2.947,0c-0.643-0.321-1.41-0.321-2.053,0C5.519,24.88,5.009,25,4.5,25C4.224,25,4,24.776,4,24.5
				S4.224,24,4.5,24c0.354,0,0.71-0.083,1.026-0.242c0.925-0.462,2.026-0.461,2.947,0c0.643,0.321,1.41,0.321,2.053,0
				c0.926-0.462,2.027-0.461,2.947,0c0.643,0.321,1.41,0.321,2.053,0c0.926-0.462,2.027-0.461,2.947,0
				c0.643,0.321,1.41,0.321,2.053,0c0.926-0.462,2.027-0.461,2.947,0C23.791,23.916,24.146,24,24.5,24c0.276,0,0.5,0.224,0.5,0.5
				S24.776,25,24.5,25z"/>
		</g>
		<g>
			<path d="M15.5,12h-2c-0.276,0-0.5-0.224-0.5-0.5v-5C13,5.673,13.673,5,14.5,5S16,5.673,16,6.5v5C16,11.776,15.776,12,15.5,12z
				 M14,11h1V6.5C15,6.224,14.775,6,14.5,6S14,6.224,14,6.5V11z"/>
		</g>
		<g>
			<path d="M14.5,6C13.516,6,13,4.994,13,4c0-0.739,0.857-3.185,1.029-3.667c0.141-0.398,0.801-0.398,0.941,0
				C15.143,0.815,16,3.261,16,4C16,4.994,15.484,6,14.5,6z M14.5,2.068C14.229,2.919,14,3.735,14,4c0,0.403,0.159,1,0.5,1
				S15,4.403,15,4C15,3.735,14.771,2.919,14.5,2.068z"/>
		</g>
	</g>
</g>
<g id="Cake_Piece">
</g>
<g id="Cupcake">
</g>
<g id="Lollipop">
</g>
<g id="Birthday_Greetings_1">
</g>
<g id="Party_Greetings_2">
</g>
<g id="Birthday_Invitation">
</g>
<g id="Birthday_1">
</g>
<g id="Birthday_2">
</g>
<g id="Birthday_Message_1">
</g>
<g id="Birthday_Message_2">
</g>
<g id="Birthyday_Hat_1">
</g>
<g id="Birthay_Hat_2">
</g>
<g id="Birthday_Hat3">
</g>
<g id="Birthday_Decoration_1">
</g>
<g id="Birthday_Decoration_2">
</g>
<g id="Birthday_Decoration_3">
</g>
<g id="Horn_1">
</g>
<g id="Horn_2">
</g>
<g id="Baloon">
</g>
<g id="Balloons_1">
</g>
<g id="Balloons_2">
</g>
<g id="Birthday_Picture">
</g>
<g id="Kid_x27_s_Champagne">
</g>
<g id="Candy">
</g>
<g id="Birthday_Card">
</g>
<g id="Flowers">
</g>
<g id="Birthday_Song">
</g>
<g id="Candle">
</g>
<g id="Sweet_16">
</g>
<g id="Clown">
</g>
<g id="Clown_2">
</g>
<g id="Birthday_Party">
</g>
<g id="Giving_Gift">
</g>
<g id="Present_5">
</g>
<g id="Champagne_in_ice_bucket">
</g>
<g id="Beer">
</g>
<g id="Truffles">
</g>
<g id="Pinata">
</g>
</svg>
