<?xml version="1.0" encoding="iso-8859-1"?>
<!-- Generator: Adobe Illustrator 19.2.1, SVG Export Plug-In . SVG Version: 6.00 Build 0)  -->
<svg version="1.1" xmlns="http://www.w3.org/2000/svg" xmlns:xlink="http://www.w3.org/1999/xlink" x="0px" y="0px"
	 viewBox="0 0 30 30" style="enable-background:new 0 0 30 30;" xml:space="preserve">
<g id="Present_1">
</g>
<g id="Present_2">
</g>
<g id="Present_3">
</g>
<g id="Present_Cake">
</g>
<g id="Present_4">
</g>
<g id="Birthday_Cake_1">
</g>
<g id="Birthday_Cake_2">
</g>
<g id="Cake_Piece">
</g>
<g id="Cupcake">
</g>
<g id="Lollipop">
</g>
<g id="Birthday_Greetings_1">
</g>
<g id="Party_Greetings_2">
</g>
<g id="Birthday_Invitation">
</g>
<g id="Birthday_1">
</g>
<g id="Birthday_2">
</g>
<g id="Birthday_Message_1">
</g>
<g id="Birthday_Message_2">
</g>
<g id="Birthyday_Hat_1">
</g>
<g id="Birthay_Hat_2">
	<g>
		<g>
			<path d="M15,30c-5.327,0-9.5-1.871-9.5-4.26c0-0.065,0.013-0.13,0.038-0.191l8.46-20.49c0.105-0.255,0.396-0.376,0.652-0.271
				c0.256,0.105,0.377,0.397,0.271,0.653L6.504,25.83C6.636,27.348,10.088,29,15,29s8.364-1.652,8.496-3.17L15.078,5.431
				C15.053,5.371,15.04,5.306,15.04,5.24c0-0.276,0.224-0.505,0.5-0.505c0.23,0,0.425,0.153,0.482,0.364l8.439,20.451
				c0.025,0.061,0.038,0.125,0.038,0.191C24.5,28.129,20.327,30,15,30z"/>
		</g>
		<g>
			<path d="M14.987,6c-0.363,0-0.635-0.203-0.834-0.352c-0.073-0.055-0.157-0.117-0.206-0.138c-0.057-0.023-0.16-0.039-0.26-0.054
				c-0.242-0.037-0.573-0.087-0.821-0.336c-0.249-0.248-0.299-0.58-0.336-0.822c-0.015-0.1-0.03-0.203-0.054-0.259
				c-0.021-0.049-0.083-0.132-0.138-0.205C12.19,3.635,11.987,3.363,11.987,3s0.203-0.635,0.352-0.834
				c0.055-0.073,0.117-0.156,0.138-0.206C12.5,1.903,12.516,1.8,12.531,1.7c0.036-0.242,0.086-0.573,0.336-0.822
				c0.247-0.248,0.578-0.298,0.82-0.334c0.1-0.015,0.203-0.031,0.26-0.054c0.049-0.021,0.133-0.083,0.206-0.138
				C14.353,0.203,14.624,0,14.987,0s0.636,0.204,0.835,0.352c0.073,0.055,0.156,0.117,0.205,0.137
				c0.057,0.023,0.16,0.039,0.26,0.054c0.242,0.037,0.573,0.087,0.821,0.336c0.249,0.248,0.299,0.58,0.336,0.822
				c0.015,0.1,0.03,0.203,0.054,0.259c0.021,0.049,0.083,0.132,0.138,0.205C17.784,2.365,17.987,2.637,17.987,3
				s-0.203,0.635-0.352,0.834c-0.055,0.073-0.117,0.156-0.138,0.206c-0.023,0.056-0.039,0.159-0.054,0.259
				c-0.037,0.242-0.087,0.574-0.337,0.823c-0.247,0.248-0.578,0.298-0.82,0.334c-0.1,0.015-0.203,0.031-0.26,0.054
				c-0.049,0.021-0.132,0.083-0.205,0.137C15.623,5.796,15.351,6,14.987,6z M14.982,1c-0.036,0.008-0.158,0.099-0.23,0.153
				c-0.121,0.09-0.258,0.192-0.422,0.26c-0.169,0.07-0.341,0.096-0.493,0.119c-0.093,0.014-0.232,0.035-0.271,0.06
				c-0.012,0.025-0.033,0.165-0.047,0.257c-0.022,0.152-0.049,0.325-0.119,0.495c-0.068,0.164-0.17,0.3-0.26,0.42
				c-0.055,0.073-0.146,0.195-0.153,0.24c0.008,0.037,0.099,0.159,0.153,0.231c0.09,0.12,0.191,0.257,0.26,0.421
				c0.07,0.169,0.096,0.34,0.119,0.492c0.014,0.093,0.035,0.233,0.06,0.272c0.025,0.012,0.165,0.033,0.258,0.047
				c0.152,0.023,0.324,0.049,0.493,0.119c0.164,0.068,0.301,0.17,0.422,0.26c0.072,0.054,0.194,0.145,0.24,0.153
				c0.036-0.008,0.158-0.099,0.231-0.153c0.12-0.09,0.256-0.192,0.421-0.26c0.169-0.07,0.341-0.096,0.493-0.119
				c0.093-0.014,0.232-0.035,0.271-0.06c0.012-0.025,0.033-0.166,0.047-0.258c0.023-0.152,0.049-0.323,0.119-0.492
				c0.068-0.165,0.17-0.302,0.26-0.422c0.053-0.07,0.14-0.187,0.152-0.236c-0.013-0.049-0.1-0.166-0.152-0.236
				c-0.09-0.12-0.191-0.257-0.26-0.421c-0.07-0.169-0.096-0.34-0.119-0.492c-0.014-0.093-0.035-0.233-0.06-0.272
				c-0.025-0.012-0.165-0.033-0.258-0.047c-0.152-0.023-0.324-0.049-0.493-0.119c-0.165-0.068-0.301-0.17-0.421-0.26
				C15.15,1.099,15.028,1.007,14.982,1z"/>
		</g>
		<g>
			<path d="M7.981,28.511c-0.195,0-0.382-0.116-0.462-0.308c-0.105-0.255,0.015-0.548,0.27-0.654l14.33-5.971
				c0.252-0.106,0.548,0.014,0.654,0.269c0.105,0.255-0.015,0.548-0.27,0.654l-14.33,5.971C8.111,28.499,8.046,28.511,7.981,28.511z
				"/>
		</g>
		<g>
			<path d="M7.481,23.046c-0.195,0-0.382-0.116-0.462-0.308c-0.105-0.255,0.015-0.548,0.27-0.654l12.836-5.349
				c0.253-0.105,0.548,0.014,0.654,0.269c0.105,0.255-0.015,0.548-0.27,0.654L7.674,23.007C7.611,23.034,7.546,23.046,7.481,23.046z
				"/>
		</g>
		<g>
			<path d="M10.306,16.195c-0.195,0-0.382-0.116-0.462-0.308c-0.105-0.255,0.015-0.548,0.27-0.654l8.018-3.341
				c0.252-0.106,0.549,0.014,0.654,0.269c0.105,0.255-0.015,0.548-0.27,0.654l-8.018,3.341
				C10.436,16.183,10.37,16.195,10.306,16.195z"/>
		</g>
		<g>
			<path d="M12.815,10.106c-0.195,0-0.382-0.116-0.462-0.308c-0.105-0.255,0.015-0.548,0.27-0.654l3.735-1.556
				c0.253-0.105,0.548,0.014,0.654,0.269c0.105,0.255-0.015,0.548-0.27,0.654l-3.735,1.556
				C12.945,10.094,12.88,10.106,12.815,10.106z"/>
		</g>
	</g>
</g>
<g id="Birthday_Hat3">
</g>
<g id="Birthday_Decoration_1">
</g>
<g id="Birthday_Decoration_2">
</g>
<g id="Birthday_Decoration_3">
</g>
<g id="Horn_1">
</g>
<g id="Horn_2">
</g>
<g id="Baloon">
</g>
<g id="Balloons_1">
</g>
<g id="Balloons_2">
</g>
<g id="Birthday_Picture">
</g>
<g id="Kid_x27_s_Champagne">
</g>
<g id="Candy">
</g>
<g id="Birthday_Card">
</g>
<g id="Flowers">
</g>
<g id="Birthday_Song">
</g>
<g id="Candle">
</g>
<g id="Sweet_16">
</g>
<g id="Clown">
</g>
<g id="Clown_2">
</g>
<g id="Birthday_Party">
</g>
<g id="Giving_Gift">
</g>
<g id="Present_5">
</g>
<g id="Champagne_in_ice_bucket">
</g>
<g id="Beer">
</g>
<g id="Truffles">
</g>
<g id="Pinata">
</g>
</svg>
