<?xml version="1.0" encoding="iso-8859-1"?>
<!-- Generator: Adobe Illustrator 19.2.1, SVG Export Plug-In . SVG Version: 6.00 Build 0)  -->
<svg version="1.1" xmlns="http://www.w3.org/2000/svg" xmlns:xlink="http://www.w3.org/1999/xlink" x="0px" y="0px"
	 viewBox="0 0 30 30" style="enable-background:new 0 0 30 30;" xml:space="preserve">
<g id="Present_1">
</g>
<g id="Present_2">
</g>
<g id="Present_3">
</g>
<g id="Present_Cake">
</g>
<g id="Present_4">
</g>
<g id="Birthday_Cake_1">
</g>
<g id="Birthday_Cake_2">
</g>
<g id="Cake_Piece">
</g>
<g id="Cupcake">
</g>
<g id="Lollipop">
</g>
<g id="Birthday_Greetings_1">
</g>
<g id="Party_Greetings_2">
</g>
<g id="Birthday_Invitation">
</g>
<g id="Birthday_1">
</g>
<g id="Birthday_2">
</g>
<g id="Birthday_Message_1">
</g>
<g id="Birthday_Message_2">
</g>
<g id="Birthyday_Hat_1">
</g>
<g id="Birthay_Hat_2">
</g>
<g id="Birthday_Hat3">
</g>
<g id="Birthday_Decoration_1">
</g>
<g id="Birthday_Decoration_2">
</g>
<g id="Birthday_Decoration_3">
</g>
<g id="Horn_1">
</g>
<g id="Horn_2">
</g>
<g id="Baloon">
</g>
<g id="Balloons_1">
</g>
<g id="Balloons_2">
</g>
<g id="Birthday_Picture">
</g>
<g id="Kid_x27_s_Champagne">
</g>
<g id="Candy">
</g>
<g id="Birthday_Card">
	<g>
		<path d="M29.5,30h-17c-0.276,0-0.5-0.224-0.5-0.5v-23C12,6.224,12.224,6,12.5,6h17C29.776,6,30,6.224,30,6.5v23
			C30,29.776,29.776,30,29.5,30z M13,29h16V7H13V29z"/>
	</g>
	<g>
		<path d="M24.375,25h-6.25C17.188,25,16,24.117,16,23.125V22c0-0.276,0.224-0.5,0.5-0.5S17,21.724,17,22v1.125
			C17,23.484,17.663,24,18.125,24h6.25C24.761,24,25,23.546,25,23.125V22c0-0.276,0.224-0.5,0.5-0.5S26,21.724,26,22v1.125
			C26,24.047,25.392,25,24.375,25z"/>
	</g>
	<g>
		<path d="M21,14.25c-0.551,0-1-0.448-1-1c0-0.357,0.32-0.896,0.589-1.284c0.187-0.27,0.636-0.27,0.822,0
			C21.68,12.354,22,12.893,22,13.25C22,13.802,21.551,14.25,21,14.25z"/>
	</g>
	<g>
		<path d="M24.813,22.375c-0.731,0-1.372-0.341-1.786-0.881c-0.423,0.54-1.077,0.881-1.823,0.881c-0.76,0-1.436-0.365-1.866-0.932
			c-0.448,0.563-1.145,0.932-1.911,0.932C16.111,22.375,15,21.287,15,20v-0.625C15,18.962,15.183,18,16.875,18h8.75
			C26.589,18,27,18.411,27,19.375V20C27,21.376,26.08,22.375,24.813,22.375z M23.531,20c0,0.784,0.551,1.375,1.281,1.375
			c0.82,0,1.188-0.69,1.188-1.375v-0.625c0-0.262-0.032-0.338-0.039-0.351C25.963,19.036,25.884,19,25.625,19h-8.75
			C16.294,19,16,19.126,16,19.375V20c0,0.745,0.653,1.375,1.426,1.375s1.426-0.63,1.426-1.375c0-0.276,0.224-0.5,0.5-0.5
			s0.5,0.224,0.5,0.5c0,0.771,0.594,1.375,1.352,1.375c0.745,0,1.328-0.604,1.328-1.375c0-0.276,0.224-0.5,0.5-0.5
			S23.531,19.724,23.531,20z"/>
	</g>
	<g>
		<path d="M21.5,19h-1c-0.276,0-0.5-0.224-0.5-0.5v-3c0-0.276,0.224-0.5,0.5-0.5h1c0.276,0,0.5,0.224,0.5,0.5v3
			C22,18.776,21.776,19,21.5,19z M21,18v-2V18z"/>
	</g>
	<g>
		<path d="M12.5,30c-0.08,0-0.16-0.02-0.232-0.058l-12-6.305C0.103,23.552,0,23.381,0,23.195V0.5c0-0.173,0.09-0.334,0.237-0.426
			c0.147-0.09,0.332-0.099,0.486-0.021l12,6C12.893,6.138,13,6.311,13,6.5v23c0,0.175-0.092,0.337-0.241,0.428
			C12.679,29.976,12.59,30,12.5,30z M1,22.894l11,5.779V6.809l-11-5.5V22.894z"/>
	</g>
</g>
<g id="Flowers">
</g>
<g id="Birthday_Song">
</g>
<g id="Candle">
</g>
<g id="Sweet_16">
</g>
<g id="Clown">
</g>
<g id="Clown_2">
</g>
<g id="Birthday_Party">
</g>
<g id="Giving_Gift">
</g>
<g id="Present_5">
</g>
<g id="Champagne_in_ice_bucket">
</g>
<g id="Beer">
</g>
<g id="Truffles">
</g>
<g id="Pinata">
</g>
</svg>
