<?xml version="1.0" encoding="iso-8859-1"?>
<!-- Generator: Adobe Illustrator 19.2.1, SVG Export Plug-In . SVG Version: 6.00 Build 0)  -->
<svg version="1.1" xmlns="http://www.w3.org/2000/svg" xmlns:xlink="http://www.w3.org/1999/xlink" x="0px" y="0px"
	 viewBox="0 0 30 30" style="enable-background:new 0 0 30 30;" xml:space="preserve">
<g id="Present_1">
</g>
<g id="Present_2">
</g>
<g id="Present_3">
</g>
<g id="Present_Cake">
</g>
<g id="Present_4">
</g>
<g id="Birthday_Cake_1">
</g>
<g id="Birthday_Cake_2">
</g>
<g id="Cake_Piece">
</g>
<g id="Cupcake">
</g>
<g id="Lollipop">
</g>
<g id="Birthday_Greetings_1">
</g>
<g id="Party_Greetings_2">
</g>
<g id="Birthday_Invitation">
</g>
<g id="Birthday_1">
</g>
<g id="Birthday_2">
</g>
<g id="Birthday_Message_1">
</g>
<g id="Birthday_Message_2">
</g>
<g id="Birthyday_Hat_1">
</g>
<g id="Birthay_Hat_2">
</g>
<g id="Birthday_Hat3">
</g>
<g id="Birthday_Decoration_1">
</g>
<g id="Birthday_Decoration_2">
</g>
<g id="Birthday_Decoration_3">
</g>
<g id="Horn_1">
</g>
<g id="Horn_2">
</g>
<g id="Baloon">
</g>
<g id="Balloons_1">
</g>
<g id="Balloons_2">
</g>
<g id="Birthday_Picture">
</g>
<g id="Kid_x27_s_Champagne">
</g>
<g id="Candy">
</g>
<g id="Birthday_Card">
</g>
<g id="Flowers">
</g>
<g id="Birthday_Song">
	<g>
		<g>
			<path d="M15,19.5c-0.276,0-0.5-0.224-0.5-0.5v-2.5c0-0.276,0.224-0.5,0.5-0.5s0.5,0.224,0.5,0.5V19
				C15.5,19.276,15.276,19.5,15,19.5z"/>
		</g>
		<g>
			<path d="M15,17c-0.827,0-1.5-0.673-1.5-1.5c0-0.64,0.761-1.811,1.089-2.284c0.187-0.27,0.636-0.27,0.822,0
				C15.739,13.689,16.5,14.86,16.5,15.5C16.5,16.327,15.827,17,15,17z M15,14.427c-0.288,0.485-0.496,0.921-0.5,1.074
				C14.5,15.775,14.724,16,15,16c0.275,0,0.5-0.224,0.5-0.499C15.496,15.348,15.288,14.911,15,14.427z"/>
		</g>
		<g>
			<path d="M22.637,16.999c-0.291,0-0.562-0.047-0.796-0.143c-0.372-0.152-0.635-0.414-0.762-0.758
				c-0.337-0.918,0.426-2.092,1.774-2.73c0.827-0.393,1.691-0.476,2.307-0.225c0.372,0.152,0.635,0.414,0.762,0.758
				c0.337,0.918-0.426,2.092-1.774,2.73C23.635,16.875,23.109,16.999,22.637,16.999z M24.359,14.001
				c-0.285,0-0.657,0.071-1.078,0.271c-0.94,0.445-1.376,1.175-1.264,1.48c0.01,0.028,0.041,0.112,0.201,0.178
				c0.267,0.106,0.819,0.121,1.5-0.203c0.94-0.445,1.376-1.175,1.264-1.48c-0.01-0.028-0.041-0.112-0.201-0.178
				C24.68,14.028,24.536,14.001,24.359,14.001z"/>
		</g>
		<g>
			<path d="M25.5,14.5c-0.276,0-0.5-0.224-0.5-0.5V5.5c0-0.189,0.107-0.362,0.276-0.447C25.446,4.969,25.649,4.987,25.8,5.1l4,3
				c0.221,0.166,0.266,0.479,0.1,0.7c-0.166,0.221-0.479,0.267-0.7,0.101L26,6.5V14C26,14.276,25.776,14.5,25.5,14.5z"/>
		</g>
		<g>
			<path d="M1.637,14.999c-0.291,0-0.562-0.047-0.796-0.143c-0.372-0.152-0.635-0.414-0.762-0.758
				c-0.337-0.918,0.426-2.092,1.774-2.73c0.827-0.393,1.691-0.476,2.307-0.225c0.372,0.152,0.635,0.414,0.762,0.758
				c0.337,0.918-0.426,2.092-1.774,2.73C2.635,14.875,2.109,14.999,1.637,14.999z M3.359,12.001c-0.285,0-0.657,0.071-1.078,0.271
				c-0.94,0.445-1.376,1.175-1.264,1.48c0.01,0.028,0.041,0.112,0.201,0.178c0.267,0.107,0.819,0.121,1.5-0.203
				c0.94-0.445,1.376-1.175,1.264-1.48c-0.01-0.028-0.041-0.112-0.201-0.178C3.68,12.028,3.536,12.001,3.359,12.001z"/>
		</g>
		<g>
			<path d="M8.637,12.999c-0.291,0-0.562-0.047-0.796-0.143c-0.372-0.152-0.635-0.414-0.762-0.758
				c-0.337-0.918,0.426-2.092,1.774-2.73c0.827-0.393,1.691-0.476,2.307-0.225c0.372,0.152,0.635,0.414,0.762,0.758
				c0.337,0.918-0.426,2.092-1.774,2.73C9.635,12.875,9.109,12.999,8.637,12.999z M10.359,10.001c-0.285,0-0.657,0.071-1.078,0.271
				c-0.94,0.445-1.376,1.175-1.264,1.48c0.01,0.028,0.041,0.112,0.201,0.178c0.267,0.107,0.818,0.121,1.5-0.203
				c0.94-0.445,1.376-1.175,1.264-1.48c-0.01-0.028-0.041-0.112-0.201-0.178C10.68,10.028,10.536,10.001,10.359,10.001z"/>
		</g>
		<g>
			<path d="M4.5,12.5C4.224,12.5,4,12.276,4,12V3.713c0-0.206,0.127-0.392,0.319-0.466l7-2.713c0.154-0.062,0.327-0.041,0.463,0.054
				C11.918,0.681,12,0.835,12,1v8.849c0,0.276-0.224,0.5-0.5,0.5s-0.5-0.224-0.5-0.5V1.73L5,4.056V12C5,12.276,4.776,12.5,4.5,12.5z
				"/>
		</g>
		<g>
			<path d="M15,25c-1.042,0-1.962-0.534-2.5-1.343c-0.137,0.207-0.301,0.398-0.488,0.567c-0.627,0.568-1.474,0.85-2.32,0.76
				C8.183,24.833,7,23.459,7,21.857C7,20.282,8.282,19,9.857,19h10.285C21.718,19,23,20.282,23,21.857
				c0,1.602-1.183,2.976-2.692,3.127c-0.85,0.09-1.694-0.192-2.32-0.76c-0.187-0.169-0.351-0.36-0.488-0.567
				C16.962,24.466,16.042,25,15,25z M9.857,20C8.833,20,8,20.833,8,21.857c0,1.095,0.787,2.031,1.792,2.133
				c0.577,0.057,1.126-0.123,1.55-0.507C11.76,23.104,12,22.564,12,22c0-0.276,0.224-0.5,0.5-0.5S13,21.724,13,22
				c0,1.103,0.897,2,2,2s2-0.897,2-2c0-0.276,0.224-0.5,0.5-0.5S18,21.724,18,22c0,0.564,0.24,1.104,0.658,1.483
				c0.425,0.384,0.975,0.563,1.55,0.507C21.213,23.889,22,22.952,22,21.857C22,20.833,21.167,20,20.143,20H9.857z"/>
		</g>
		<g>
			<path d="M21.5,29h-13C8.224,29,8,28.776,8,28.5v-4.52c0-0.276,0.224-0.5,0.5-0.5S9,23.704,9,23.98V28h12v-4.02
				c0-0.276,0.224-0.5,0.5-0.5s0.5,0.224,0.5,0.5v4.52C22,28.776,21.776,29,21.5,29z"/>
		</g>
	</g>
</g>
<g id="Candle">
</g>
<g id="Sweet_16">
</g>
<g id="Clown">
</g>
<g id="Clown_2">
</g>
<g id="Birthday_Party">
</g>
<g id="Giving_Gift">
</g>
<g id="Present_5">
</g>
<g id="Champagne_in_ice_bucket">
</g>
<g id="Beer">
</g>
<g id="Truffles">
</g>
<g id="Pinata">
</g>
</svg>
