<?xml version="1.0" encoding="iso-8859-1"?>
<!-- Generator: Adobe Illustrator 19.2.1, SVG Export Plug-In . SVG Version: 6.00 Build 0)  -->
<svg version="1.1" xmlns="http://www.w3.org/2000/svg" xmlns:xlink="http://www.w3.org/1999/xlink" x="0px" y="0px"
	 viewBox="0 0 30 30" style="enable-background:new 0 0 30 30;" xml:space="preserve">
<g id="Present_1">
</g>
<g id="Present_2">
</g>
<g id="Present_3">
</g>
<g id="Present_Cake">
</g>
<g id="Present_4">
</g>
<g id="Birthday_Cake_1">
</g>
<g id="Birthday_Cake_2">
</g>
<g id="Cake_Piece">
</g>
<g id="Cupcake">
</g>
<g id="Lollipop">
</g>
<g id="Birthday_Greetings_1">
</g>
<g id="Party_Greetings_2">
</g>
<g id="Birthday_Invitation">
</g>
<g id="Birthday_1">
</g>
<g id="Birthday_2">
</g>
<g id="Birthday_Message_1">
</g>
<g id="Birthday_Message_2">
</g>
<g id="Birthyday_Hat_1">
</g>
<g id="Birthay_Hat_2">
</g>
<g id="Birthday_Hat3">
</g>
<g id="Birthday_Decoration_1">
</g>
<g id="Birthday_Decoration_2">
	<g>
		<g>
			<path d="M7.552,21.864c-4.424,0-7.02-0.669-7.181-0.712c-0.267-0.071-0.425-0.345-0.355-0.611
				c0.071-0.267,0.345-0.428,0.611-0.355c0.058,0.015,5.868,1.505,14.92-0.01c9.031-1.511,13.604-4.914,13.65-4.948
				c0.219-0.167,0.533-0.124,0.7,0.096c0.167,0.22,0.125,0.533-0.095,0.7c-0.191,0.146-4.792,3.583-14.09,5.139
				C12.567,21.688,9.82,21.864,7.552,21.864z"/>
		</g>
		<g>
			<path d="M22.448,7.739c-2.268,0-5.015-0.176-8.161-0.702C4.989,5.481,0.389,2.043,0.197,1.898c-0.22-0.167-0.262-0.48-0.095-0.7
				c0.167-0.22,0.48-0.263,0.7-0.096C0.848,1.136,5.421,4.54,14.452,6.05c9.071,1.519,14.862,0.025,14.919,0.01
				c0.266-0.07,0.541,0.088,0.612,0.355s-0.088,0.541-0.355,0.612C29.468,7.069,26.871,7.739,22.448,7.739z"/>
		</g>
		<g>
			<path d="M7,29c-1.654,0-3-1.354-3-3.02v-4.74c0-0.276,0.224-0.5,0.5-0.5S5,20.964,5,21.24v4.74C5,27.094,5.897,28,7,28
				s2-0.906,2-2.02v-4.66c0-0.276,0.224-0.5,0.5-0.5s0.5,0.224,0.5,0.5v4.66C10,27.646,8.654,29,7,29z"/>
		</g>
		<g>
			<path d="M26.978,24.953c-0.387,0-0.775-0.076-1.145-0.228c-0.747-0.306-1.33-0.884-1.642-1.628l-1.715-4.09
				c-0.107-0.255,0.013-0.548,0.268-0.654c0.254-0.105,0.548,0.013,0.654,0.268l1.715,4.09c0.209,0.498,0.599,0.885,1.099,1.09
				c0.5,0.204,1.05,0.202,1.547-0.007c0.498-0.209,0.885-0.599,1.089-1.099s0.202-1.05-0.006-1.548l-1.737-4.144
				c-0.107-0.255,0.013-0.548,0.268-0.654c0.253-0.105,0.548,0.014,0.654,0.268l1.737,4.144c0.313,0.745,0.316,1.566,0.01,2.313
				c-0.306,0.747-0.884,1.33-1.628,1.642C27.77,24.874,27.374,24.953,26.978,24.953z"/>
		</g>
		<g>
			<path d="M17.513,28.744c-1.417,0-2.685-1.004-2.965-2.445l-0.945-4.865c-0.053-0.271,0.125-0.534,0.396-0.587
				c0.273-0.046,0.534,0.125,0.586,0.396l0.945,4.865c0.213,1.095,1.272,1.813,2.371,1.599c0.53-0.103,0.988-0.406,1.291-0.854
				c0.302-0.448,0.412-0.986,0.309-1.517l-0.939-4.831c-0.053-0.271,0.124-0.534,0.396-0.587c0.269-0.051,0.533,0.125,0.586,0.396
				l0.939,4.831c0.154,0.793-0.01,1.598-0.461,2.267c-0.451,0.67-1.136,1.123-1.929,1.277
				C17.896,28.726,17.703,28.744,17.513,28.744z"/>
		</g>
		<g>
			<path d="M23.196,14.609c-0.196,0-0.374-0.115-0.455-0.293l-3.152-6.935c-0.114-0.251-0.003-0.548,0.248-0.662
				c0.253-0.115,0.548-0.003,0.662,0.248l2.697,5.934l2.697-5.934c0.113-0.251,0.409-0.363,0.662-0.248
				c0.251,0.114,0.362,0.411,0.248,0.662l-3.152,6.935C23.57,14.494,23.392,14.609,23.196,14.609z"/>
		</g>
		<g>
			<path d="M1.5,10.58c-0.064,0-0.129-0.012-0.191-0.038C1.122,10.465,1,10.282,1,10.08V2.16c0-0.276,0.224-0.5,0.5-0.5
				S2,1.884,2,2.16v6.711l4.576-4.584c0.195-0.196,0.513-0.195,0.707-0.001c0.196,0.195,0.196,0.512,0.001,0.707l-5.43,5.44
				C1.758,10.529,1.63,10.58,1.5,10.58z"/>
		</g>
		<g>
			<path d="M11.848,14.609c-0.034,0-0.068-0.003-0.103-0.011c-0.204-0.043-0.36-0.208-0.392-0.413l-1.261-8.196
				c-0.042-0.273,0.145-0.528,0.418-0.57c0.276-0.045,0.528,0.146,0.57,0.418l1.059,6.882l3.699-5.813
				c0.148-0.232,0.458-0.3,0.69-0.153c0.233,0.148,0.302,0.458,0.153,0.69l-4.413,6.935C12.176,14.523,12.016,14.609,11.848,14.609z
				"/>
		</g>
	</g>
</g>
<g id="Birthday_Decoration_3">
</g>
<g id="Horn_1">
</g>
<g id="Horn_2">
</g>
<g id="Baloon">
</g>
<g id="Balloons_1">
</g>
<g id="Balloons_2">
</g>
<g id="Birthday_Picture">
</g>
<g id="Kid_x27_s_Champagne">
</g>
<g id="Candy">
</g>
<g id="Birthday_Card">
</g>
<g id="Flowers">
</g>
<g id="Birthday_Song">
</g>
<g id="Candle">
</g>
<g id="Sweet_16">
</g>
<g id="Clown">
</g>
<g id="Clown_2">
</g>
<g id="Birthday_Party">
</g>
<g id="Giving_Gift">
</g>
<g id="Present_5">
</g>
<g id="Champagne_in_ice_bucket">
</g>
<g id="Beer">
</g>
<g id="Truffles">
</g>
<g id="Pinata">
</g>
</svg>
