<?xml version="1.0" encoding="iso-8859-1"?>
<!-- Generator: Adobe Illustrator 19.2.1, SVG Export Plug-In . SVG Version: 6.00 Build 0)  -->
<svg version="1.1" xmlns="http://www.w3.org/2000/svg" xmlns:xlink="http://www.w3.org/1999/xlink" x="0px" y="0px"
	 viewBox="0 0 30 30" style="enable-background:new 0 0 30 30;" xml:space="preserve">
<g id="Present_1">
</g>
<g id="Present_2">
</g>
<g id="Present_3">
</g>
<g id="Present_Cake">
</g>
<g id="Present_4">
</g>
<g id="Birthday_Cake_1">
</g>
<g id="Birthday_Cake_2">
</g>
<g id="Cake_Piece">
</g>
<g id="Cupcake">
</g>
<g id="Lollipop">
</g>
<g id="Birthday_Greetings_1">
</g>
<g id="Party_Greetings_2">
</g>
<g id="Birthday_Invitation">
</g>
<g id="Birthday_1">
</g>
<g id="Birthday_2">
</g>
<g id="Birthday_Message_1">
</g>
<g id="Birthday_Message_2">
</g>
<g id="Birthyday_Hat_1">
</g>
<g id="Birthay_Hat_2">
</g>
<g id="Birthday_Hat3">
</g>
<g id="Birthday_Decoration_1">
	<g>
		<g>
			<path d="M15,13.5c-9.107,0-14.022-2.45-14.227-2.555C0.527,10.82,0.43,10.52,0.555,10.273c0.125-0.245,0.424-0.343,0.672-0.219
				C1.275,10.079,6.155,12.5,15,12.5c8.87,0,13.725-2.421,13.773-2.445c0.245-0.127,0.547-0.028,0.672,0.218
				c0.125,0.246,0.028,0.547-0.218,0.672C29.022,11.05,24.107,13.5,15,13.5z"/>
		</g>
		<g>
			<path d="M15,21c-0.201,0-0.382-0.12-0.46-0.305l-3.182-7.5c-0.108-0.254,0.011-0.548,0.265-0.656
				c0.254-0.106,0.547,0.01,0.656,0.265L15,19.22l2.721-6.415c0.108-0.255,0.402-0.372,0.656-0.265
				c0.254,0.108,0.373,0.401,0.265,0.656l-3.182,7.5C15.382,20.88,15.201,21,15,21z"/>
		</g>
		<g>
			<path d="M26.455,19.75c-0.147,0-0.291-0.065-0.388-0.185l-5.091-6.25c-0.174-0.214-0.142-0.529,0.072-0.704
				c0.216-0.175,0.53-0.141,0.704,0.072l4.203,5.161V11.75c0-0.276,0.224-0.5,0.5-0.5s0.5,0.224,0.5,0.5v7.5
				c0,0.212-0.133,0.4-0.333,0.471C26.567,19.74,26.511,19.75,26.455,19.75z"/>
		</g>
		<g>
			<path d="M3.545,19.75c-0.056,0-0.113-0.01-0.167-0.029c-0.199-0.07-0.333-0.259-0.333-0.471v-7.5c0-0.276,0.224-0.5,0.5-0.5
				s0.5,0.224,0.5,0.5v6.095l4.203-5.161c0.174-0.213,0.49-0.247,0.704-0.072c0.214,0.174,0.246,0.489,0.072,0.704l-5.091,6.25
				C3.836,19.685,3.693,19.75,3.545,19.75z"/>
		</g>
	</g>
</g>
<g id="Birthday_Decoration_2">
</g>
<g id="Birthday_Decoration_3">
</g>
<g id="Horn_1">
</g>
<g id="Horn_2">
</g>
<g id="Baloon">
</g>
<g id="Balloons_1">
</g>
<g id="Balloons_2">
</g>
<g id="Birthday_Picture">
</g>
<g id="Kid_x27_s_Champagne">
</g>
<g id="Candy">
</g>
<g id="Birthday_Card">
</g>
<g id="Flowers">
</g>
<g id="Birthday_Song">
</g>
<g id="Candle">
</g>
<g id="Sweet_16">
</g>
<g id="Clown">
</g>
<g id="Clown_2">
</g>
<g id="Birthday_Party">
</g>
<g id="Giving_Gift">
</g>
<g id="Present_5">
</g>
<g id="Champagne_in_ice_bucket">
</g>
<g id="Beer">
</g>
<g id="Truffles">
</g>
<g id="Pinata">
</g>
</svg>
