<?xml version="1.0" encoding="iso-8859-1"?>
<!-- Generator: Adobe Illustrator 19.2.1, SVG Export Plug-In . SVG Version: 6.00 Build 0)  -->
<svg version="1.1" xmlns="http://www.w3.org/2000/svg" xmlns:xlink="http://www.w3.org/1999/xlink" x="0px" y="0px"
	 viewBox="0 0 30 30" style="enable-background:new 0 0 30 30;" xml:space="preserve">
<g id="Present_1">
</g>
<g id="Present_2">
</g>
<g id="Present_3">
</g>
<g id="Present_Cake">
</g>
<g id="Present_4">
</g>
<g id="Birthday_Cake_1">
</g>
<g id="Birthday_Cake_2">
</g>
<g id="Cake_Piece">
</g>
<g id="Cupcake">
</g>
<g id="Lollipop">
</g>
<g id="Birthday_Greetings_1">
</g>
<g id="Party_Greetings_2">
</g>
<g id="Birthday_Invitation">
</g>
<g id="Birthday_1">
</g>
<g id="Birthday_2">
</g>
<g id="Birthday_Message_1">
</g>
<g id="Birthday_Message_2">
</g>
<g id="Birthyday_Hat_1">
</g>
<g id="Birthay_Hat_2">
</g>
<g id="Birthday_Hat3">
</g>
<g id="Birthday_Decoration_1">
</g>
<g id="Birthday_Decoration_2">
</g>
<g id="Birthday_Decoration_3">
</g>
<g id="Horn_1">
</g>
<g id="Horn_2">
</g>
<g id="Baloon">
</g>
<g id="Balloons_1">
</g>
<g id="Balloons_2">
</g>
<g id="Birthday_Picture">
</g>
<g id="Kid_x27_s_Champagne">
</g>
<g id="Candy">
</g>
<g id="Birthday_Card">
</g>
<g id="Flowers">
</g>
<g id="Birthday_Song">
</g>
<g id="Candle">
</g>
<g id="Sweet_16">
</g>
<g id="Clown">
</g>
<g id="Clown_2">
</g>
<g id="Birthday_Party">
</g>
<g id="Giving_Gift">
</g>
<g id="Present_5">
</g>
<g id="Champagne_in_ice_bucket">
	<g>
		<g>
			<path d="M21.456,9.195c-0.097,0-0.194-0.028-0.28-0.086c-0.229-0.155-0.288-0.467-0.133-0.695
				c0.173-0.255,0.31-0.474,0.437-0.677c0.363-0.579,0.676-1.079,1.514-1.917l2.793-2.64c0.287-0.287,0.287-0.77-0.01-1.066
				l-0.892-0.892c-0.297-0.297-0.779-0.297-1.076,0l-2.62,2.773c-2.397,2.397-3.707,3.08-5.365,3.945
				c-0.333,0.173-0.683,0.355-1.063,0.563c-0.244,0.131-0.546,0.043-0.678-0.2c-0.132-0.242-0.043-0.546,0.2-0.679
				c0.386-0.21,0.742-0.396,1.079-0.571c1.644-0.857,2.832-1.478,5.111-3.756l2.62-2.773c0.696-0.696,1.813-0.696,2.5-0.01
				l0.892,0.892C26.817,1.739,27,2.182,27,2.652s-0.183,0.913-0.516,1.245l-2.793,2.64c-0.747,0.748-1.005,1.16-1.363,1.731
				c-0.133,0.212-0.276,0.44-0.458,0.708C21.773,9.118,21.616,9.195,21.456,9.195z"/>
		</g>
		<g>
			<path d="M8.696,9.195c-0.162,0-0.32-0.078-0.417-0.223L7.357,7.589l-1.46,1.46c-0.195,0.195-0.512,0.195-0.707,0
				s-0.195-0.512,0-0.707l1.891-1.891C7.187,6.345,7.333,6.3,7.484,6.307c0.149,0.016,0.284,0.096,0.367,0.221l1.261,1.891
				c0.153,0.229,0.091,0.54-0.139,0.693C8.888,9.168,8.792,9.195,8.696,9.195z"/>
		</g>
		<g>
			<path d="M11.5,9h-3C8.224,9,8,8.776,8,8.5v-3C8,5.224,8.224,5,8.5,5h3C11.776,5,12,5.224,12,5.5v3C12,8.776,11.776,9,11.5,9z
				 M9,8h2V6H9V8z"/>
		</g>
		<g>
			<path d="M5.543,9.088c-0.128,0-0.256-0.049-0.354-0.146L3.407,7.158c-0.195-0.195-0.195-0.512,0-0.707L5.19,4.668
				c0.195-0.195,0.512-0.195,0.707,0L7.68,6.451c0.195,0.195,0.195,0.512,0,0.707L5.897,8.941C5.799,9.039,5.671,9.088,5.543,9.088z
				 M4.467,6.805l1.076,1.076L6.62,6.805L5.543,5.729L4.467,6.805z"/>
		</g>
		<g>
			<path d="M14.5,9.82c-0.276,0-0.5-0.224-0.5-0.5V7h-2v2.29c0,0.276-0.224,0.5-0.5,0.5S11,9.566,11,9.29V6.5
				C11,6.224,11.224,6,11.5,6h3C14.776,6,15,6.224,15,6.5v2.82C15,9.597,14.776,9.82,14.5,9.82z"/>
		</g>
		<g>
			<path d="M24.609,5.413c-0.041,0-0.081-0.005-0.122-0.015c-2.868-0.718-2.901-2.914-2.901-3.007c0-0.276,0.224-0.5,0.5-0.5
				c0.275,0,0.498,0.222,0.5,0.496c0.002,0.073,0.066,1.521,2.143,2.04c0.268,0.067,0.431,0.339,0.364,0.606
				C25.037,5.262,24.833,5.413,24.609,5.413z M22.587,2.392h0.01H22.587z"/>
		</g>
		<g>
			<path d="M23.827,18.652c-0.013,0-0.026,0-0.039-0.002c-8.43-0.648-10.441-6.4-10.522-6.645c-0.087-0.262,0.054-0.544,0.315-0.632
				c0.261-0.088,0.544,0.053,0.633,0.314c0.074,0.219,1.911,5.369,9.651,5.966c0.275,0.021,0.481,0.261,0.46,0.536
				C24.305,18.453,24.085,18.652,23.827,18.652z"/>
		</g>
		<g>
			<path d="M19.062,30H8.417c-1.532,0-2.822-1.147-3.001-2.669L3.156,8.13C3.154,8.108,3.152,8.087,3.152,8.065
				c0-0.265,0.207-0.483,0.471-0.499C3.848,7.539,4.052,7.694,4.125,7.9c0.59,0.398,4.147,0.926,9.615,0.926
				s9.025-0.527,9.615-0.926c0.072-0.206,0.273-0.359,0.501-0.334c0.264,0.016,0.471,0.234,0.471,0.499
				c0,0.021-0.001,0.043-0.004,0.064l-2.259,19.201C21.884,28.853,20.594,30,19.062,30z M4.263,8.979l2.146,18.234
				C6.528,28.232,7.392,29,8.417,29h10.646c1.025,0,1.888-0.768,2.008-1.786l2.146-18.234c-2.188,0.747-7.054,0.847-9.476,0.847
				S6.452,9.727,4.263,8.979z"/>
		</g>
	</g>
</g>
<g id="Beer">
</g>
<g id="Truffles">
</g>
<g id="Pinata">
</g>
</svg>
