<?xml version="1.0" encoding="iso-8859-1"?>
<!-- Generator: Adobe Illustrator 19.2.1, SVG Export Plug-In . SVG Version: 6.00 Build 0)  -->
<svg version="1.1" xmlns="http://www.w3.org/2000/svg" xmlns:xlink="http://www.w3.org/1999/xlink" x="0px" y="0px"
	 viewBox="0 0 30 30" style="enable-background:new 0 0 30 30;" xml:space="preserve">
<g id="Present_1">
</g>
<g id="Present_2">
</g>
<g id="Present_3">
</g>
<g id="Present_Cake">
</g>
<g id="Present_4">
</g>
<g id="Birthday_Cake_1">
</g>
<g id="Birthday_Cake_2">
</g>
<g id="Cake_Piece">
</g>
<g id="Cupcake">
</g>
<g id="Lollipop">
</g>
<g id="Birthday_Greetings_1">
</g>
<g id="Party_Greetings_2">
</g>
<g id="Birthday_Invitation">
</g>
<g id="Birthday_1">
</g>
<g id="Birthday_2">
</g>
<g id="Birthday_Message_1">
</g>
<g id="Birthday_Message_2">
</g>
<g id="Birthyday_Hat_1">
</g>
<g id="Birthay_Hat_2">
</g>
<g id="Birthday_Hat3">
</g>
<g id="Birthday_Decoration_1">
</g>
<g id="Birthday_Decoration_2">
</g>
<g id="Birthday_Decoration_3">
</g>
<g id="Horn_1">
	<g>
		<g>
			<path d="M0.625,29.875c-0.13,0-0.258-0.051-0.354-0.146c-0.15-0.15-0.189-0.379-0.097-0.571l8.75-18.125
				c0.12-0.248,0.419-0.352,0.667-0.233c0.249,0.12,0.353,0.419,0.233,0.667L1.698,28.302l16.834-8.127
				c0.25-0.12,0.548-0.016,0.667,0.232c0.12,0.249,0.016,0.548-0.233,0.668l-18.125,8.75C0.773,29.858,0.699,29.875,0.625,29.875z"
				/>
		</g>
		<g>
			<path d="M18.132,21.122c-0.542,0-1.185-0.162-1.902-0.485c-1.271-0.574-2.683-1.602-3.974-2.893
				c-1.292-1.291-2.319-2.703-2.893-3.974c-0.642-1.421-0.648-2.55-0.018-3.18c0.63-0.63,1.76-0.624,3.179,0.018
				c1.271,0.574,2.683,1.601,3.974,2.892l0,0c2.439,2.439,4.288,5.775,2.91,7.153C19.098,20.966,18.663,21.122,18.132,21.122z
				 M10.622,11.12c-0.254,0-0.45,0.059-0.569,0.178c-0.301,0.301-0.216,1.091,0.222,2.061c0.526,1.164,1.48,2.47,2.688,3.678
				s2.514,2.162,3.678,2.688c0.97,0.438,1.76,0.523,2.061,0.223c0.59-0.591-0.231-3.06-2.91-5.739
				c-1.208-1.208-2.515-2.163-3.678-2.688C11.528,11.256,11.008,11.12,10.622,11.12z"/>
		</g>
		<g>
			<path d="M21.875,19.875c-0.184,0-0.36-0.102-0.448-0.276c-0.124-0.247-0.023-0.548,0.224-0.671l1.489-0.744
				c0.773-0.387,1.696-0.387,2.47,0l0.477,0.238c0.494,0.246,1.083,0.246,1.576,0l1.489-0.744c0.247-0.125,0.548-0.022,0.671,0.224
				c0.124,0.247,0.023,0.548-0.224,0.671l-1.489,0.744c-0.773,0.387-1.696,0.387-2.47,0l-0.477-0.238
				c-0.494-0.246-1.083-0.246-1.576,0l-1.489,0.744C22.027,19.858,21.951,19.875,21.875,19.875z"/>
		</g>
		<g>
			<path d="M10.625,8.625c-0.075,0-0.151-0.017-0.223-0.053c-0.247-0.124-0.347-0.424-0.224-0.671l0.744-1.489
				c0.247-0.493,0.247-1.082,0-1.575l-0.238-0.478c-0.387-0.773-0.387-1.696,0-2.469l0.744-1.489
				c0.123-0.248,0.423-0.347,0.671-0.224c0.247,0.124,0.347,0.424,0.224,0.671l-0.744,1.489c-0.247,0.493-0.247,1.082,0,1.575
				l0.238,0.478c0.387,0.773,0.387,1.696,0,2.469l-0.744,1.489C10.985,8.524,10.808,8.625,10.625,8.625z"/>
		</g>
		<g>
			<path d="M15.625,11.125c-0.276,0-0.5-0.224-0.5-0.5V8.272c0-1.053,0.585-1.999,1.526-2.47c0.601-0.3,0.974-0.904,0.974-1.575
				V3.631c0-0.865,0.413-1.691,1.104-2.209l1.596-1.197c0.22-0.167,0.534-0.122,0.7,0.1c0.166,0.221,0.121,0.534-0.1,0.7
				l-1.596,1.197c-0.441,0.331-0.704,0.857-0.704,1.409v0.597c0,1.053-0.585,1.999-1.526,2.47c-0.601,0.3-0.974,0.904-0.974,1.575
				v2.353C16.125,10.901,15.901,11.125,15.625,11.125z"/>
		</g>
		<g>
			<path d="M21.728,14.875h-2.353c-0.276,0-0.5-0.224-0.5-0.5s0.224-0.5,0.5-0.5h2.353c0.671,0,1.275-0.373,1.575-0.974
				c0.471-0.941,1.417-1.526,2.47-1.526h0.597c0.552,0,1.079-0.263,1.409-0.704l1.197-1.596c0.166-0.221,0.48-0.265,0.7-0.1
				c0.221,0.166,0.266,0.479,0.1,0.7l-1.197,1.596c-0.518,0.691-1.344,1.104-2.209,1.104h-0.597c-0.671,0-1.275,0.373-1.575,0.974
				C23.727,14.29,22.78,14.875,21.728,14.875z"/>
		</g>
		<g>
			<path d="M20.113,11.58c-0.198,0-0.386-0.119-0.464-0.314c-0.103-0.256,0.022-0.547,0.278-0.65
				c0.555-0.222,0.956-0.704,1.073-1.29l0.127-0.637c0.194-0.969,0.897-1.765,1.834-2.078l1.213-0.404
				C24.796,6,25.248,5.47,25.355,4.825l0.229-1.377c0.133-0.799,0.608-1.497,1.303-1.914l2.229-1.338
				c0.237-0.142,0.543-0.065,0.686,0.171c0.142,0.237,0.065,0.544-0.171,0.686l-2.229,1.338c-0.443,0.266-0.747,0.711-0.832,1.22
				l-0.229,1.377C26.173,6,25.464,6.831,24.492,7.155l-1.213,0.404c-0.598,0.2-1.047,0.708-1.17,1.326L21.98,9.522
				c-0.184,0.918-0.813,1.674-1.682,2.022C20.238,11.569,20.175,11.58,20.113,11.58z"/>
		</g>
	</g>
</g>
<g id="Horn_2">
</g>
<g id="Baloon">
</g>
<g id="Balloons_1">
</g>
<g id="Balloons_2">
</g>
<g id="Birthday_Picture">
</g>
<g id="Kid_x27_s_Champagne">
</g>
<g id="Candy">
</g>
<g id="Birthday_Card">
</g>
<g id="Flowers">
</g>
<g id="Birthday_Song">
</g>
<g id="Candle">
</g>
<g id="Sweet_16">
</g>
<g id="Clown">
</g>
<g id="Clown_2">
</g>
<g id="Birthday_Party">
</g>
<g id="Giving_Gift">
</g>
<g id="Present_5">
</g>
<g id="Champagne_in_ice_bucket">
</g>
<g id="Beer">
</g>
<g id="Truffles">
</g>
<g id="Pinata">
</g>
</svg>
