<?xml version="1.0" encoding="iso-8859-1"?>
<!-- Generator: Adobe Illustrator 19.2.1, SVG Export Plug-In . SVG Version: 6.00 Build 0)  -->
<svg version="1.1" xmlns="http://www.w3.org/2000/svg" xmlns:xlink="http://www.w3.org/1999/xlink" x="0px" y="0px"
	 viewBox="0 0 30 30" style="enable-background:new 0 0 30 30;" xml:space="preserve">
<g id="Present_1">
</g>
<g id="Present_2">
</g>
<g id="Present_3">
</g>
<g id="Present_Cake">
</g>
<g id="Present_4">
</g>
<g id="Birthday_Cake_1">
</g>
<g id="Birthday_Cake_2">
</g>
<g id="Cake_Piece">
</g>
<g id="Cupcake">
</g>
<g id="Lollipop">
	<g>
		<g>
			<path d="M29.5,30c-0.128,0-0.256-0.049-0.354-0.146L16.235,16.943c-0.194-0.196-0.194-0.512,0.002-0.707
				c0.195-0.194,0.512-0.195,0.707,0.001l12.909,12.91c0.195,0.195,0.195,0.512,0,0.707C29.756,29.951,29.628,30,29.5,30z"/>
		</g>
		<g>
			<path d="M10.002,20c-2.561,0-5.122-0.975-7.072-2.925c-3.9-3.9-3.9-10.246,0-14.146c3.901-3.901,10.246-3.9,14.146,0l0,0
				c3.316,3.316,3.892,8.407,1.398,12.38c-0.001,0-0.001,0.001-0.001,0.001c-0.41,0.653-0.88,1.247-1.397,1.764
				C15.125,19.025,12.563,20,10.002,20z M10.003,1.004c-2.306,0-4.611,0.877-6.366,2.632c-3.51,3.51-3.51,9.221,0,12.731
				c1.151,1.151,2.54,1.925,4.01,2.321c-2.868-1.182-4.893-4.008-4.893-7.297c0-3.535,2.876-6.411,6.411-6.411
				c2.883,0,5.229,2.346,5.229,5.229c0,2.361-1.922,4.283-4.283,4.283c-1.944,0-3.526-1.582-3.526-3.526
				c0-1.61,1.311-2.921,2.922-2.921c1.344,0,2.437,1.093,2.437,2.437c0,0.276-0.224,0.5-0.5,0.5s-0.5-0.224-0.5-0.5
				c0-0.792-0.645-1.437-1.437-1.437c-1.06,0-1.922,0.862-1.922,1.921c0,1.393,1.134,2.526,2.526,2.526
				c1.811,0,3.283-1.473,3.283-3.283c0-2.332-1.896-4.229-4.229-4.229c-2.983,0-5.411,2.427-5.411,5.411
				c0,3.798,3.09,6.888,6.889,6.888c2.781,0,5.334-1.288,7.005-3.533c2.223-3.543,1.706-8.125-1.279-11.11l0,0
				C14.613,1.882,12.308,1.004,10.003,1.004z"/>
		</g>
	</g>
</g>
<g id="Birthday_Greetings_1">
</g>
<g id="Party_Greetings_2">
</g>
<g id="Birthday_Invitation">
</g>
<g id="Birthday_1">
</g>
<g id="Birthday_2">
</g>
<g id="Birthday_Message_1">
</g>
<g id="Birthday_Message_2">
</g>
<g id="Birthyday_Hat_1">
</g>
<g id="Birthay_Hat_2">
</g>
<g id="Birthday_Hat3">
</g>
<g id="Birthday_Decoration_1">
</g>
<g id="Birthday_Decoration_2">
</g>
<g id="Birthday_Decoration_3">
</g>
<g id="Horn_1">
</g>
<g id="Horn_2">
</g>
<g id="Baloon">
</g>
<g id="Balloons_1">
</g>
<g id="Balloons_2">
</g>
<g id="Birthday_Picture">
</g>
<g id="Kid_x27_s_Champagne">
</g>
<g id="Candy">
</g>
<g id="Birthday_Card">
</g>
<g id="Flowers">
</g>
<g id="Birthday_Song">
</g>
<g id="Candle">
</g>
<g id="Sweet_16">
</g>
<g id="Clown">
</g>
<g id="Clown_2">
</g>
<g id="Birthday_Party">
</g>
<g id="Giving_Gift">
</g>
<g id="Present_5">
</g>
<g id="Champagne_in_ice_bucket">
</g>
<g id="Beer">
</g>
<g id="Truffles">
</g>
<g id="Pinata">
</g>
</svg>
