<?xml version="1.0" encoding="iso-8859-1"?>
<!-- Generator: Adobe Illustrator 19.2.1, SVG Export Plug-In . SVG Version: 6.00 Build 0)  -->
<svg version="1.1" xmlns="http://www.w3.org/2000/svg" xmlns:xlink="http://www.w3.org/1999/xlink" x="0px" y="0px"
	 viewBox="0 0 30 30" style="enable-background:new 0 0 30 30;" xml:space="preserve">
<g id="Present_1">
	<g>
		<g>
			<path d="M26.5,30.01h-24c-0.827,0-1.5-0.673-1.5-1.5v-14c0-0.276,0.224-0.5,0.5-0.5h26c0.276,0,0.5,0.224,0.5,0.5v14
				C28,29.337,27.327,30.01,26.5,30.01z M2,15.01v13.5c0,0.276,0.224,0.5,0.5,0.5h24c0.276,0,0.5-0.224,0.5-0.5v-13.5H2z"/>
		</g>
		<g>
			<path d="M28.5,15.01h-28c-0.276,0-0.5-0.224-0.5-0.5v-5c0-0.827,0.673-1.5,1.5-1.5h26c0.827,0,1.5,0.673,1.5,1.5v5
				C29,14.786,28.776,15.01,28.5,15.01z M1,14.01h27v-4.5c0-0.276-0.224-0.5-0.5-0.5h-26C1.224,9.01,1,9.234,1,9.51V14.01z"/>
		</g>
		<g>
			<path d="M14.5,30.01c-0.276,0-0.5-0.224-0.5-0.5V8.26c0-0.276,0.224-0.5,0.5-0.5S15,7.983,15,8.26v21.25
				C15,29.786,14.776,30.01,14.5,30.01z"/>
		</g>
		<g>
			<path d="M14.5,8.999c-0.019,0-0.037-0.001-0.056-0.003c-0.287-0.033-7.045-0.825-8.867-3.72C5.219,4.752,5,4.086,5,3.51
				c0-0.891,0.621-2.037,1.509-2.787c0.674-0.569,1.41-0.82,2.075-0.706c3.332,0.568,5.746,4.653,6.408,8.394
				c0.028,0.155-0.02,0.314-0.127,0.43C14.77,8.942,14.637,8.999,14.5,8.999z M8.262,0.99c-0.336,0-0.724,0.173-1.108,0.498
				C6.507,2.033,6,2.922,6,3.51c0,0.451,0.213,0.925,0.413,1.218c1.17,1.859,5.287,2.844,7.453,3.18
				c-0.652-2.724-2.49-6.4-5.45-6.905C8.366,0.994,8.315,0.99,8.262,0.99z"/>
		</g>
		<g>
			<path d="M14.5,8.999c-0.137,0-0.27-0.057-0.365-0.158c-0.108-0.115-0.155-0.274-0.127-0.43c0.663-3.741,3.077-7.826,6.408-8.394
				c0.664-0.115,1.401,0.137,2.075,0.706C23.379,1.473,24,2.619,24,3.51c0,0.576-0.219,1.242-0.587,1.782
				c-1.812,2.879-8.57,3.671-8.857,3.704C14.537,8.998,14.519,8.999,14.5,8.999z M20.738,0.99c-0.053,0-0.104,0.004-0.154,0.013
				c-2.958,0.505-4.796,4.177-5.449,6.901c1.727-0.273,6.182-1.158,7.441-3.16C22.787,4.435,23,3.961,23,3.51
				c0-0.588-0.507-1.477-1.154-2.022C21.461,1.163,21.074,0.99,20.738,0.99z"/>
		</g>
	</g>
</g>
<g id="Present_2">
</g>
<g id="Present_3">
</g>
<g id="Present_Cake">
</g>
<g id="Present_4">
</g>
<g id="Birthday_Cake_1">
</g>
<g id="Birthday_Cake_2">
</g>
<g id="Cake_Piece">
</g>
<g id="Cupcake">
</g>
<g id="Lollipop">
</g>
<g id="Birthday_Greetings_1">
</g>
<g id="Party_Greetings_2">
</g>
<g id="Birthday_Invitation">
</g>
<g id="Birthday_1">
</g>
<g id="Birthday_2">
</g>
<g id="Birthday_Message_1">
</g>
<g id="Birthday_Message_2">
</g>
<g id="Birthyday_Hat_1">
</g>
<g id="Birthay_Hat_2">
</g>
<g id="Birthday_Hat3">
</g>
<g id="Birthday_Decoration_1">
</g>
<g id="Birthday_Decoration_2">
</g>
<g id="Birthday_Decoration_3">
</g>
<g id="Horn_1">
</g>
<g id="Horn_2">
</g>
<g id="Baloon">
</g>
<g id="Balloons_1">
</g>
<g id="Balloons_2">
</g>
<g id="Birthday_Picture">
</g>
<g id="Kid_x27_s_Champagne">
</g>
<g id="Candy">
</g>
<g id="Birthday_Card">
</g>
<g id="Flowers">
</g>
<g id="Birthday_Song">
</g>
<g id="Candle">
</g>
<g id="Sweet_16">
</g>
<g id="Clown">
</g>
<g id="Clown_2">
</g>
<g id="Birthday_Party">
</g>
<g id="Giving_Gift">
</g>
<g id="Present_5">
</g>
<g id="Champagne_in_ice_bucket">
</g>
<g id="Beer">
</g>
<g id="Truffles">
</g>
<g id="Pinata">
</g>
</svg>
