<?xml version="1.0" encoding="iso-8859-1"?>
<!-- Generator: Adobe Illustrator 19.2.1, SVG Export Plug-In . SVG Version: 6.00 Build 0)  -->
<svg version="1.1" xmlns="http://www.w3.org/2000/svg" xmlns:xlink="http://www.w3.org/1999/xlink" x="0px" y="0px"
	 viewBox="0 0 30 30" style="enable-background:new 0 0 30 30;" xml:space="preserve">
<g id="Present_1">
</g>
<g id="Present_2">
</g>
<g id="Present_3">
</g>
<g id="Present_Cake">
</g>
<g id="Present_4">
</g>
<g id="Birthday_Cake_1">
</g>
<g id="Birthday_Cake_2">
</g>
<g id="Cake_Piece">
</g>
<g id="Cupcake">
</g>
<g id="Lollipop">
</g>
<g id="Birthday_Greetings_1">
</g>
<g id="Party_Greetings_2">
</g>
<g id="Birthday_Invitation">
</g>
<g id="Birthday_1">
</g>
<g id="Birthday_2">
</g>
<g id="Birthday_Message_1">
</g>
<g id="Birthday_Message_2">
</g>
<g id="Birthyday_Hat_1">
</g>
<g id="Birthay_Hat_2">
</g>
<g id="Birthday_Hat3">
</g>
<g id="Birthday_Decoration_1">
</g>
<g id="Birthday_Decoration_2">
</g>
<g id="Birthday_Decoration_3">
</g>
<g id="Horn_1">
</g>
<g id="Horn_2">
</g>
<g id="Baloon">
</g>
<g id="Balloons_1">
</g>
<g id="Balloons_2">
</g>
<g id="Birthday_Picture">
</g>
<g id="Kid_x27_s_Champagne">
</g>
<g id="Candy">
</g>
<g id="Birthday_Card">
</g>
<g id="Flowers">
</g>
<g id="Birthday_Song">
</g>
<g id="Candle">
</g>
<g id="Sweet_16">
</g>
<g id="Clown">
</g>
<g id="Clown_2">
</g>
<g id="Birthday_Party">
</g>
<g id="Giving_Gift">
</g>
<g id="Present_5">
	<g>
		<g>
			<path d="M7,28c-1.103,0-2-0.897-2-2s0.897-2,2-2s2,0.897,2,2S8.103,28,7,28z M7,25c-0.551,0-1,0.448-1,1s0.449,1,1,1s1-0.448,1-1
				S7.551,25,7,25z"/>
		</g>
		<g>
			<path d="M9.5,22c-1.103,0-2-0.897-2-2s0.897-2,2-2s2,0.897,2,2S10.603,22,9.5,22z M9.5,19c-0.551,0-1,0.448-1,1s0.449,1,1,1
				s1-0.448,1-1S10.051,19,9.5,19z"/>
		</g>
		<g>
			<path d="M5,17.5c-1.103,0-2-0.897-2-2s0.897-2,2-2s2,0.897,2,2S6.103,17.5,5,17.5z M5,14.5c-0.551,0-1,0.448-1,1s0.449,1,1,1
				s1-0.448,1-1S5.551,14.5,5,14.5z"/>
		</g>
		<g>
			<path d="M19,15c-1.103,0-2-0.897-2-2s0.897-2,2-2s2,0.897,2,2S20.103,15,19,15z M19,12c-0.551,0-1,0.448-1,1s0.449,1,1,1
				s1-0.448,1-1S19.551,12,19,12z"/>
		</g>
		<g>
			<path d="M13,10c-1.103,0-2-0.897-2-2s0.897-2,2-2s2,0.897,2,2S14.103,10,13,10z M13,7c-0.551,0-1,0.448-1,1s0.449,1,1,1
				s1-0.448,1-1S13.551,7,13,7z"/>
		</g>
		<g>
			<path d="M16,28c-1.103,0-2-0.897-2-2s0.897-2,2-2s2,0.897,2,2S17.103,28,16,28z M16,25c-0.551,0-1,0.448-1,1s0.449,1,1,1
				s1-0.448,1-1S16.551,25,16,25z"/>
		</g>
		<g>
			<path d="M17,21c-1.103,0-2-0.897-2-2s0.897-2,2-2s2,0.897,2,2S18.103,21,17,21z M17,18c-0.551,0-1,0.448-1,1s0.449,1,1,1
				s1-0.448,1-1S17.551,18,17,18z"/>
		</g>
		<g>
			<path d="M20.5,30h-17C3.224,30,3,29.776,3,29.5v-23C3,6.224,3.224,6,3.5,6h17C20.776,6,21,6.224,21,6.5v23
				C21,29.776,20.776,30,20.5,30z M4,29h16V7H4V29z"/>
		</g>
		<g>
			<path d="M20.5,30c-0.091,0-0.183-0.025-0.263-0.074C20.09,29.834,20,29.673,20,29.5v-23c0-0.215,0.138-0.406,0.342-0.475l6-2
				c0.152-0.049,0.32-0.025,0.451,0.069C26.923,4.188,27,4.339,27,4.5v22c0,0.189-0.107,0.362-0.276,0.447l-6,3
				C20.653,29.982,20.577,30,20.5,30z M21,6.86v21.831l5-2.5V5.193L21,6.86z M26.5,26.5h0.01H26.5z"/>
		</g>
		<g>
			<path d="M20.627,7H3.5C3.261,7,3.056,6.831,3.009,6.597C2.963,6.362,3.09,6.128,3.311,6.037l4.894-2C8.265,4.013,8.329,4,8.394,4
				H26.5c0.245,0,0.453,0.177,0.493,0.418s-0.101,0.477-0.332,0.556l-5.873,2C20.737,6.991,20.682,7,20.627,7z M6.045,6h14.5
				l2.937-1H8.492L6.045,6z"/>
		</g>
		<g>
			<path d="M12,15c-1.194,0-2.15-0.393-2.839-1.166c-1.433-1.607-1.142-4.278-1.129-4.392c0.032-0.274,0.279-0.48,0.553-0.438
				c0.274,0.031,0.471,0.278,0.44,0.553c-0.002,0.023-0.25,2.345,0.885,3.615C10.408,13.729,11.092,14,12,14
				c0.91,0,1.594-0.271,2.092-0.831c1.138-1.276,0.885-3.588,0.882-3.611c-0.032-0.274,0.165-0.522,0.439-0.555
				c0.276-0.026,0.523,0.165,0.554,0.439c0.013,0.113,0.304,2.784-1.129,4.392C14.15,14.607,13.194,15,12,15z"/>
		</g>
		<g>
			<path d="M20.968,4.999c-0.026,0-0.054-0.002-0.081-0.006c-0.272-0.045-0.457-0.301-0.414-0.573
				c0.002-0.014,0.213-1.421-0.625-2.402C19.272,1.343,18.313,1,17,1s-2.272,0.343-2.849,1.018
				c-0.838,0.981-0.627,2.389-0.625,2.402c0.043,0.272-0.142,0.528-0.414,0.573c-0.271,0.041-0.528-0.14-0.573-0.412
				c-0.013-0.075-0.293-1.864,0.843-3.204C14.158,0.464,15.375,0,17,0s2.842,0.464,3.617,1.377c1.136,1.34,0.856,3.129,0.843,3.204
				C21.42,4.826,21.208,4.999,20.968,4.999z"/>
		</g>
		<g>
			<path d="M20.5,30c-0.081,0-0.163-0.02-0.239-0.062c-0.243-0.132-0.332-0.436-0.2-0.678L23,23.872V5.52
				c0-0.276,0.224-0.51,0.5-0.51S24,5.224,24,5.5V24c0,0.084-0.021,0.166-0.061,0.239l-3,5.5C20.848,29.906,20.677,30,20.5,30z"/>
		</g>
		<g>
			<path d="M26.5,27c-0.113,0-0.226-0.038-0.32-0.116l-3-2.5c-0.212-0.177-0.241-0.492-0.064-0.704
				c0.178-0.211,0.492-0.24,0.705-0.063l3,2.5c0.212,0.177,0.241,0.492,0.064,0.704C26.785,26.938,26.643,27,26.5,27z"/>
		</g>
	</g>
</g>
<g id="Champagne_in_ice_bucket">
</g>
<g id="Beer">
</g>
<g id="Truffles">
</g>
<g id="Pinata">
</g>
</svg>
