<?xml version="1.0" encoding="iso-8859-1"?>
<!-- Generator: Adobe Illustrator 19.2.1, SVG Export Plug-In . SVG Version: 6.00 Build 0)  -->
<svg version="1.1" xmlns="http://www.w3.org/2000/svg" xmlns:xlink="http://www.w3.org/1999/xlink" x="0px" y="0px"
	 viewBox="0 0 30 30" style="enable-background:new 0 0 30 30;" xml:space="preserve">
<g id="Retro_Bot_1">
</g>
<g id="Retro_Bot_2">
</g>
<g id="Retro_Bot_3">
</g>
<g id="Retro_Bot_4">
</g>
<g id="Wall-E">
</g>
<g id="Eva">
</g>
<g id="Iron_Giant">
</g>
<g id="Marvin">
</g>
<g id="Atlas">
</g>
<g id="Claptrap">
	<g>
		<path d="M17.854,20.146C17.76,20.053,17.633,20,17.5,20h-6c-0.133,0-0.26,0.053-0.354,0.146l-1,1C10.053,21.24,10,21.367,10,21.5
			V27c0,1.689,1.882,3,3.5,3h2c1.618,0,3.5-1.311,3.5-3v-5.5c0-0.133-0.053-0.26-0.146-0.354L17.854,20.146z M15.5,27h-2
			c-0.276,0-0.5-0.224-0.5-0.5s0.224-0.5,0.5-0.5h2c0.276,0,0.5,0.224,0.5,0.5S15.776,27,15.5,27z M15.5,24h-2
			c-0.276,0-0.5-0.224-0.5-0.5s0.224-0.5,0.5-0.5h2c0.276,0,0.5,0.224,0.5,0.5S15.776,24,15.5,24z"/>
		<path d="M23.481,11.366c-0.003-0.009-0.009-0.015-0.012-0.024l1.523-8.757c0.025-0.145-0.015-0.294-0.109-0.407S24.647,2,24.5,2
			h-2.603l-3.41,14.614C18.435,16.84,18.232,17,18,17h-7c-0.232,0-0.435-0.16-0.487-0.386L7.103,2H4.5
			C4.353,2,4.212,2.065,4.117,2.178S3.982,2.44,4.008,2.585l1.523,8.757c-0.003,0.009-0.01,0.015-0.012,0.024l-2.5,9
			c-0.027,0.096-0.024,0.197,0.007,0.292l1,3C4.096,23.868,4.291,24,4.5,24c0.053,0,0.105-0.008,0.158-0.026
			c0.262-0.087,0.403-0.37,0.316-0.632l-0.952-2.855l1.906-6.86l2.08,11.959C8.049,25.825,8.257,26,8.5,26H9v-4.5
			c0-0.4,0.156-0.777,0.439-1.061l1-1C10.723,19.156,11.1,19,11.5,19h6c0.4,0,0.777,0.156,1.061,0.439l1,1
			C19.844,20.723,20,21.1,20,21.5V26h0.5c0.243,0,0.451-0.175,0.492-0.415l2.08-11.959l1.906,6.86l-0.952,2.855
			c-0.087,0.262,0.055,0.545,0.316,0.632C24.395,23.992,24.447,24,24.5,24c0.209,0,0.404-0.132,0.475-0.342l1-3
			c0.031-0.095,0.034-0.196,0.007-0.292L23.481,11.366z"/>
		<path d="M14.5,11c1.379,0,2.5-1.122,2.5-2.5S15.879,6,14.5,6S12,7.122,12,8.5S13.121,11,14.5,11z M14.5,8
			C14.776,8,15,8.224,15,8.5C15,8.776,14.776,9,14.5,9S14,8.776,14,8.5C14,8.224,14.224,8,14.5,8z"/>
		<path d="M11.396,16h6.207L20.87,2H17V0.5C17,0.224,16.776,0,16.5,0S16,0.224,16,0.5V2H8.13L11.396,16z M14.5,5
			C16.43,5,18,6.57,18,8.5S16.43,12,14.5,12S11,10.43,11,8.5S12.57,5,14.5,5z"/>
	</g>
</g>
<g id="Android">
</g>
<g id="Bender">
</g>
<g id="Roberto">
</g>
<g id="Robot_Devil">
</g>
<g id="Robocop">
</g>
<g id="ED_209">
</g>
<g id="Optimus_Prime">
</g>
<g id="Robot_1">
</g>
<g id="Robot_2">
</g>
<g id="Robot_3">
</g>
<g id="Robot_Arm_1">
</g>
<g id="Robot_Arm_2">
</g>
<g id="Robot_Arm_3">
</g>
<g id="Robot_Arm_4">
</g>
<g id="Robot_Arm_5">
</g>
<g id="K5_Robot">
</g>
<g id="Robot_Machine_1">
</g>
<g id="Robot_Machine_2">
</g>
<g id="Artifical_Intelligence_1">
</g>
<g id="Artifical_Intelligence_2">
</g>
<g id="Robot_4">
</g>
<g id="Robot_5">
</g>
<g id="Robot_6">
</g>
<g id="Robot_7">
</g>
<g id="Robot_8">
</g>
<g id="Robot_9">
</g>
<g id="Robot_10">
</g>
<g id="Robot_11">
</g>
<g id="Robot_12">
</g>
<g id="Robot_13">
</g>
</svg>
