<?xml version="1.0" encoding="iso-8859-1"?>
<!-- Generator: Adobe Illustrator 19.2.1, SVG Export Plug-In . SVG Version: 6.00 Build 0)  -->
<svg version="1.1" xmlns="http://www.w3.org/2000/svg" xmlns:xlink="http://www.w3.org/1999/xlink" x="0px" y="0px"
	 viewBox="0 0 30 30" style="enable-background:new 0 0 30 30;" xml:space="preserve">
<g id="Retro_Bot_1">
</g>
<g id="Retro_Bot_2">
</g>
<g id="Retro_Bot_3">
</g>
<g id="Retro_Bot_4">
</g>
<g id="Wall-E">
</g>
<g id="Eva">
</g>
<g id="Iron_Giant">
</g>
<g id="Marvin">
</g>
<g id="Atlas">
</g>
<g id="Claptrap">
</g>
<g id="Android">
</g>
<g id="Bender">
</g>
<g id="Roberto">
</g>
<g id="Robot_Devil">
</g>
<g id="Robocop">
</g>
<g id="ED_209">
</g>
<g id="Optimus_Prime">
	<path d="M29.598,5.01c-0.26-0.056-0.533,0.121-0.588,0.392l-1.762,8.807l-0.245-3.675l1.987-9.935
		c0.029-0.147-0.009-0.299-0.104-0.415S28.649,0,28.5,0h-1c-0.21,0-0.398,0.131-0.47,0.329l-1.735,4.775
		C23.303,3.234,20.692,2,17.678,1.525l-0.185-1.107C17.453,0.177,17.244,0,17,0h-4c-0.244,0-0.453,0.177-0.493,0.418l-0.185,1.107
		C9.32,1.998,6.71,3.233,4.706,5.105L2.97,0.329C2.898,0.131,2.71,0,2.5,0h-1C1.351,0,1.208,0.067,1.113,0.183
		S0.98,0.451,1.01,0.598l1.987,9.935l-0.245,3.675L0.99,5.402C0.936,5.13,0.662,4.954,0.402,5.01
		C0.131,5.064-0.045,5.327,0.01,5.598l2.498,12.489c0.001,0.007,0.003,0.015,0.004,0.022l0.027,0.135l3.082,0.771
		c0.269,0.067,0.431,0.338,0.364,0.606C5.929,19.849,5.725,20,5.5,20c-0.04,0-0.08-0.005-0.121-0.015l-2.623-0.656l0.156,0.781
		l2.746,0.915c0.262,0.087,0.403,0.37,0.316,0.632C5.904,21.868,5.709,22,5.5,22c-0.053,0-0.105-0.008-0.158-0.026L3.138,21.24
		l0.203,1.014l2.318,0.773c0.262,0.087,0.403,0.37,0.316,0.632C5.904,23.868,5.709,24,5.5,24c-0.053,0-0.105-0.008-0.158-0.026
		l-1.775-0.592l0.443,2.216c0.023,0.115,0.086,0.219,0.178,0.292l5,4C9.277,29.962,9.388,30,9.5,30c0.053,0,0.106-0.008,0.158-0.026
		l2.826-0.942l2.321,0.928c0,0,0,0,0.001,0l0.009,0.004C14.874,29.988,14.937,30,15,30s0.126-0.012,0.186-0.036l0.009-0.004
		c0,0,0,0,0,0l2.321-0.929l2.826,0.942C20.394,29.992,20.447,30,20.5,30c0.112,0,0.223-0.038,0.312-0.109l5-4
		c0.092-0.074,0.154-0.177,0.178-0.292l0.445-2.225l-1.775,0.6C24.607,23.992,24.553,24,24.5,24c-0.209,0-0.403-0.131-0.474-0.34
		c-0.089-0.262,0.052-0.545,0.313-0.634l2.322-0.785l0.203-1.013l-2.204,0.745C24.607,21.992,24.553,22,24.5,22
		c-0.209,0-0.403-0.131-0.474-0.34c-0.089-0.262,0.052-0.545,0.313-0.634l2.751-0.93l0.173-0.866l-2.626,0.75
		C24.592,19.994,24.545,20,24.5,20c-0.218,0-0.418-0.143-0.48-0.363c-0.076-0.265,0.077-0.542,0.343-0.618l3.122-0.892l0.003-0.018
		c0.001-0.007,0.003-0.015,0.004-0.022L29.99,5.598C30.045,5.327,29.869,5.064,29.598,5.01z M12.04,9.304L12.091,9h5.819
		l0.051,0.304l-0.84,0.72C17.08,10.014,17.042,10,17,10h-3.75c-0.107,0-0.201,0.041-0.283,0.099L12.04,9.304z M15.981,11L15,11.841
		L14.019,11H15.981z M17.409,6h-4.819l0.167-1h4.485L17.409,6z M12.426,6.985C12.451,6.989,12.474,7,12.5,7h5
		c0.026,0,0.049-0.011,0.074-0.015L17.743,8h-5.485L12.426,6.985z M17.076,4h-4.152l0.167-1h3.819L17.076,4z M13.424,12.994
		c0.117,0.018,0.222,0.033,0.328,0.047l-1.105,1.105c-0.296,0.296-0.996,0.296-1.256,0.041l-1.34-1.675L13.424,12.994z
		 M16.57,12.995l3.381-0.483l-1.305,1.634c-0.297,0.296-0.996,0.296-1.293,0l-1.105-1.105C16.353,13.027,16.455,13.013,16.57,12.995
		z M16.576,1l0.167,1h-3.486l0.167-1H16.576z M17.028,28.15L15.5,28.761v-8.994l2.357-1.571L17.028,28.15z M14.5,28.761
		l-1.528-0.611l-0.83-9.954l2.357,1.571V28.761z M18.342,16.026c-0.189,0.063-0.323,0.233-0.34,0.433l-0.046,0.551
		c-0.081,0.007-0.161,0.027-0.233,0.075L15,18.899l-2.723-1.815c-0.072-0.048-0.152-0.067-0.233-0.074l-0.046-0.551
		c-0.017-0.199-0.15-0.37-0.34-0.433l-2.804-0.935L7.371,12.13l1.235,0.176c0.002,0.002,0.002,0.005,0.003,0.007l2.037,2.541
		c0.342,0.342,0.848,0.512,1.354,0.512s1.012-0.17,1.354-0.512L15,13.207l1.646,1.646c0.337,0.336,0.833,0.507,1.336,0.507
		c0.518,0,1.043-0.181,1.408-0.548l2-2.5c0.002-0.002,0.002-0.004,0.003-0.006l1.232-0.176l-1.48,2.961L18.342,16.026z"/>
</g>
<g id="Robot_1">
</g>
<g id="Robot_2">
</g>
<g id="Robot_3">
</g>
<g id="Robot_Arm_1">
</g>
<g id="Robot_Arm_2">
</g>
<g id="Robot_Arm_3">
</g>
<g id="Robot_Arm_4">
</g>
<g id="Robot_Arm_5">
</g>
<g id="K5_Robot">
</g>
<g id="Robot_Machine_1">
</g>
<g id="Robot_Machine_2">
</g>
<g id="Artifical_Intelligence_1">
</g>
<g id="Artifical_Intelligence_2">
</g>
<g id="Robot_4">
</g>
<g id="Robot_5">
</g>
<g id="Robot_6">
</g>
<g id="Robot_7">
</g>
<g id="Robot_8">
</g>
<g id="Robot_9">
</g>
<g id="Robot_10">
</g>
<g id="Robot_11">
</g>
<g id="Robot_12">
</g>
<g id="Robot_13">
</g>
</svg>
