<?xml version="1.0" encoding="iso-8859-1"?>
<!-- Generator: Adobe Illustrator 19.2.1, SVG Export Plug-In . SVG Version: 6.00 Build 0)  -->
<svg version="1.1" xmlns="http://www.w3.org/2000/svg" xmlns:xlink="http://www.w3.org/1999/xlink" x="0px" y="0px"
	 viewBox="0 0 30 30" style="enable-background:new 0 0 30 30;" xml:space="preserve">
<g id="Retro_Bot_1">
</g>
<g id="Retro_Bot_2">
</g>
<g id="Retro_Bot_3">
</g>
<g id="Retro_Bot_4">
	<g>
		<rect x="17" y="5" width="3" height="2"/>
		<rect x="10" y="5" width="3" height="2"/>
		<rect x="10" y="17" width="3" height="3"/>
		<path d="M23.5,0h-17C6.224,0,6,0.224,6,0.5v29C6,29.776,6.224,30,6.5,30h17c0.276,0,0.5-0.224,0.5-0.5v-29
			C24,0.224,23.776,0,23.5,0z M9,4.5C9,4.224,9.224,4,9.5,4h4C13.776,4,14,4.224,14,4.5v3C14,7.776,13.776,8,13.5,8h-4
			C9.224,8,9,7.776,9,7.5V4.5z M9,16.5C9,16.224,9.224,16,9.5,16h4c0.276,0,0.5,0.224,0.5,0.5v4c0,0.276-0.224,0.5-0.5,0.5h-4
			C9.224,21,9,20.776,9,20.5V16.5z M12,23.5c0,0.276-0.224,0.5-0.5,0.5S11,23.776,11,23.5c0-0.276,0.224-0.5,0.5-0.5
			S12,23.224,12,23.5z M9.5,23c0.276,0,0.5,0.224,0.5,0.5c0,0.276-0.224,0.5-0.5,0.5S9,23.776,9,23.5C9,23.224,9.224,23,9.5,23z
			 M21,26.5c0,0.276-0.224,0.5-0.5,0.5S20,26.776,20,26.5V26H10v0.5c0,0.276-0.224,0.5-0.5,0.5S9,26.776,9,26.5v-1
			C9,25.224,9.224,25,9.5,25h11c0.276,0,0.5,0.224,0.5,0.5V26.5z M20.5,24h-6c-0.276,0-0.5-0.224-0.5-0.5s0.224-0.5,0.5-0.5h6
			c0.276,0,0.5,0.224,0.5,0.5S20.776,24,20.5,24z M16,20.5v-4c0-0.276,0.224-0.5,0.5-0.5s0.5,0.224,0.5,0.5v4
			c0,0.276-0.224,0.5-0.5,0.5S16,20.776,16,20.5z M18,20.5v-4c0-0.276,0.224-0.5,0.5-0.5s0.5,0.224,0.5,0.5v4
			c0,0.276-0.224,0.5-0.5,0.5S18,20.776,18,20.5z M21,20.5c0,0.276-0.224,0.5-0.5,0.5S20,20.776,20,20.5v-4
			c0-0.276,0.224-0.5,0.5-0.5s0.5,0.224,0.5,0.5V20.5z M20.854,11.854l-1,1C19.756,12.951,19.628,13,19.5,13
			s-0.256-0.049-0.354-0.146L18.5,12.207l-0.646,0.646c-0.195,0.195-0.512,0.195-0.707,0L16.5,12.207l-0.646,0.646
			c-0.195,0.195-0.512,0.195-0.707,0L14.5,12.207l-0.646,0.646c-0.195,0.195-0.512,0.195-0.707,0L12.5,12.207l-0.646,0.646
			c-0.195,0.195-0.512,0.195-0.707,0L10.5,12.207l-0.646,0.646c-0.195,0.195-0.512,0.195-0.707,0s-0.195-0.512,0-0.707l1-1
			c0.195-0.195,0.512-0.195,0.707,0l0.646,0.646l0.646-0.646c0.195-0.195,0.512-0.195,0.707,0l0.646,0.646l0.646-0.646
			c0.195-0.195,0.512-0.195,0.707,0l0.646,0.646l0.646-0.646c0.195-0.195,0.512-0.195,0.707,0l0.646,0.646l0.646-0.646
			c0.195-0.195,0.512-0.195,0.707,0l0.646,0.646l0.646-0.646c0.195-0.195,0.512-0.195,0.707,0S21.049,11.658,20.854,11.854z M21,7.5
			C21,7.776,20.776,8,20.5,8h-4C16.224,8,16,7.776,16,7.5v-3C16,4.224,16.224,4,16.5,4h4C20.776,4,21,4.224,21,4.5V7.5z"/>
	</g>
</g>
<g id="Wall-E">
</g>
<g id="Eva">
</g>
<g id="Iron_Giant">
</g>
<g id="Marvin">
</g>
<g id="Atlas">
</g>
<g id="Claptrap">
</g>
<g id="Android">
</g>
<g id="Bender">
</g>
<g id="Roberto">
</g>
<g id="Robot_Devil">
</g>
<g id="Robocop">
</g>
<g id="ED_209">
</g>
<g id="Optimus_Prime">
</g>
<g id="Robot_1">
</g>
<g id="Robot_2">
</g>
<g id="Robot_3">
</g>
<g id="Robot_Arm_1">
</g>
<g id="Robot_Arm_2">
</g>
<g id="Robot_Arm_3">
</g>
<g id="Robot_Arm_4">
</g>
<g id="Robot_Arm_5">
</g>
<g id="K5_Robot">
</g>
<g id="Robot_Machine_1">
</g>
<g id="Robot_Machine_2">
</g>
<g id="Artifical_Intelligence_1">
</g>
<g id="Artifical_Intelligence_2">
</g>
<g id="Robot_4">
</g>
<g id="Robot_5">
</g>
<g id="Robot_6">
</g>
<g id="Robot_7">
</g>
<g id="Robot_8">
</g>
<g id="Robot_9">
</g>
<g id="Robot_10">
</g>
<g id="Robot_11">
</g>
<g id="Robot_12">
</g>
<g id="Robot_13">
</g>
</svg>
