<?xml version="1.0" encoding="iso-8859-1"?>
<!-- Generator: Adobe Illustrator 19.2.1, SVG Export Plug-In . SVG Version: 6.00 Build 0)  -->
<svg version="1.1" xmlns="http://www.w3.org/2000/svg" xmlns:xlink="http://www.w3.org/1999/xlink" x="0px" y="0px"
	 viewBox="0 0 30 30" style="enable-background:new 0 0 30 30;" xml:space="preserve">
<g id="Retro_Bot_1">
</g>
<g id="Retro_Bot_2">
</g>
<g id="Retro_Bot_3">
</g>
<g id="Retro_Bot_4">
</g>
<g id="Wall-E">
</g>
<g id="Eva">
</g>
<g id="Iron_Giant">
</g>
<g id="Marvin">
</g>
<g id="Atlas">
</g>
<g id="Claptrap">
</g>
<g id="Android">
</g>
<g id="Bender">
</g>
<g id="Roberto">
</g>
<g id="Robot_Devil">
</g>
<g id="Robocop">
</g>
<g id="ED_209">
</g>
<g id="Optimus_Prime">
</g>
<g id="Robot_1">
</g>
<g id="Robot_2">
</g>
<g id="Robot_3">
	<g>
		<rect x="11" y="12" width="2" height="2"/>
		<path d="M25.5,7h-3C22.224,7,22,7.224,22,7.5V11h-1V9.5c0-1.207-0.86-2.217-2-2.449V3.5C19,1.57,17.43,0,15.5,0h-2
			C11.57,0,10,1.57,10,3.5v3.551C8.86,7.283,8,8.293,8,9.5V11H7V7.5C7,7.224,6.776,7,6.5,7h-3C3.224,7,3,7.224,3,7.5v12
			C3,19.776,3.224,20,3.5,20h3C6.776,20,7,19.776,7,19.5V12h1v5.5c0,1.099,0.328,2.122,0.885,2.982
			c-0.548,0.719-0.845,1.684-0.743,2.592c0.091,0.809,0.479,1.465,1.092,1.85c0.262,0.164,0.548,0.296,0.843,0.415l0.942,3.299
			c0.057,0.198,0.229,0.342,0.435,0.361c0.2,0.014,0.401-0.09,0.493-0.274l0.614-1.229l1.522,2.283C14.177,29.917,14.333,30,14.5,30
			s0.323-0.083,0.416-0.223l1.522-2.283l0.614,1.229c0.092,0.184,0.285,0.29,0.493,0.274c0.206-0.019,0.378-0.163,0.435-0.361
			l0.943-3.299c0.294-0.119,0.58-0.25,0.843-0.415c0.613-0.384,1.001-1.041,1.092-1.85c0.102-0.908-0.195-1.873-0.743-2.592
			C20.672,19.622,21,18.599,21,17.5V12h1v7.5c0,0.276,0.224,0.5,0.5,0.5h3c0.276,0,0.5-0.224,0.5-0.5v-12C26,7.224,25.776,7,25.5,7z
			 M19,11.5c0,0.276-0.224,0.5-0.5,0.5h-3c-0.276,0-0.5-0.224-0.5-0.5s0.224-0.5,0.5-0.5h3C18.776,11,19,11.224,19,11.5z M15.5,14h3
			c0.276,0,0.5,0.224,0.5,0.5S18.776,15,18.5,15h-3c-0.276,0-0.5-0.224-0.5-0.5S15.224,14,15.5,14z M13.053,3.276
			c0.124-0.248,0.424-0.345,0.671-0.224c0.646,0.323,0.906,0.323,1.553,0c0.248-0.123,0.547-0.024,0.671,0.224
			c0.123,0.247,0.023,0.547-0.224,0.671C15.261,4.179,14.88,4.294,14.5,4.294s-0.761-0.116-1.224-0.347
			C13.029,3.824,12.93,3.523,13.053,3.276z M10,11.5c0-0.276,0.224-0.5,0.5-0.5h3c0.276,0,0.5,0.224,0.5,0.5v3
			c0,0.276-0.224,0.5-0.5,0.5h-3c-0.276,0-0.5-0.224-0.5-0.5V11.5z M19.864,22.961c-0.04,0.354-0.182,0.834-0.63,1.115
			C17.914,24.904,15.9,25,14.5,25s-3.414-0.096-4.734-0.923c-0.448-0.281-0.59-0.762-0.63-1.115
			c-0.063-0.565,0.086-1.185,0.384-1.676C10.523,22.339,11.934,23,13.5,23h2c1.566,0,2.977-0.661,3.98-1.715
			C19.778,21.776,19.928,22.397,19.864,22.961z"/>
	</g>
</g>
<g id="Robot_Arm_1">
</g>
<g id="Robot_Arm_2">
</g>
<g id="Robot_Arm_3">
</g>
<g id="Robot_Arm_4">
</g>
<g id="Robot_Arm_5">
</g>
<g id="K5_Robot">
</g>
<g id="Robot_Machine_1">
</g>
<g id="Robot_Machine_2">
</g>
<g id="Artifical_Intelligence_1">
</g>
<g id="Artifical_Intelligence_2">
</g>
<g id="Robot_4">
</g>
<g id="Robot_5">
</g>
<g id="Robot_6">
</g>
<g id="Robot_7">
</g>
<g id="Robot_8">
</g>
<g id="Robot_9">
</g>
<g id="Robot_10">
</g>
<g id="Robot_11">
</g>
<g id="Robot_12">
</g>
<g id="Robot_13">
</g>
</svg>
