<?xml version="1.0" encoding="iso-8859-1"?>
<!-- Generator: Adobe Illustrator 19.2.1, SVG Export Plug-In . SVG Version: 6.00 Build 0)  -->
<svg version="1.1" xmlns="http://www.w3.org/2000/svg" xmlns:xlink="http://www.w3.org/1999/xlink" x="0px" y="0px"
	 viewBox="0 0 30 30" style="enable-background:new 0 0 30 30;" xml:space="preserve">
<g id="Retro_Bot_1">
</g>
<g id="Retro_Bot_2">
</g>
<g id="Retro_Bot_3">
</g>
<g id="Retro_Bot_4">
</g>
<g id="Wall-E">
</g>
<g id="Eva">
</g>
<g id="Iron_Giant">
</g>
<g id="Marvin">
</g>
<g id="Atlas">
</g>
<g id="Claptrap">
</g>
<g id="Android">
</g>
<g id="Bender">
</g>
<g id="Roberto">
</g>
<g id="Robot_Devil">
</g>
<g id="Robocop">
</g>
<g id="ED_209">
</g>
<g id="Optimus_Prime">
</g>
<g id="Robot_1">
</g>
<g id="Robot_2">
</g>
<g id="Robot_3">
</g>
<g id="Robot_Arm_1">
</g>
<g id="Robot_Arm_2">
</g>
<g id="Robot_Arm_3">
</g>
<g id="Robot_Arm_4">
</g>
<g id="Robot_Arm_5">
	<g>
		<path d="M29.5,4.003H28v2.5c0,0.276-0.224,0.5-0.5,0.5S27,6.779,27,6.503v-2.5h-1v2.5c0,0.276-0.224,0.5-0.5,0.5
			S25,6.779,25,6.503v-2.5h-1v2.5c0,0.276-0.224,0.5-0.5,0.5S23,6.779,23,6.503v-2.5h-1v2.5c0,0.276-0.224,0.5-0.5,0.5
			S21,6.779,21,6.503v-2.5h-1.092C19.964,4.16,20,4.327,20,4.503v3.5h10v-3.5C30,4.227,29.776,4.003,29.5,4.003z"/>
		<path d="M13.5,20.003h4c0.275,0,0.5-0.224,0.5-0.5v-3.5h-5v3.5C13,19.779,13.225,20.003,13.5,20.003z"/>
		<path d="M20,15.503c0,0.276-0.224,0.5-0.5,0.5H19v3.5c0,0.827-0.673,1.5-1.5,1.5H16v2.5c0,0.276-0.224,0.5-0.5,0.5
			s-0.5-0.224-0.5-0.5v-2.5h-1.5c-0.827,0-1.5-0.673-1.5-1.5v-3.5h-0.5c-0.276,0-0.5-0.224-0.5-0.5v-6.5H0v20.5
			c0,0.276,0.224,0.5,0.5,0.5H9v-4.5c0-0.276,0.224-0.5,0.5-0.5h12c0.276,0,0.5,0.224,0.5,0.5v4.5h7.5c0.276,0,0.5-0.224,0.5-0.5
			v-20.5H20V15.503z"/>
		<path d="M11,4.503c0-0.176,0.036-0.343,0.092-0.5H10v2.5c0,0.276-0.224,0.5-0.5,0.5S9,6.779,9,6.503v-2.5H8v2.5
			c0,0.276-0.224,0.5-0.5,0.5S7,6.779,7,6.503v-2.5H6v2.5c0,0.276-0.224,0.5-0.5,0.5S5,6.779,5,6.503v-2.5H4v2.5
			c0,0.276-0.224,0.5-0.5,0.5S3,6.779,3,6.503v-2.5H0.5c-0.276,0-0.5,0.224-0.5,0.5v3.5h11V4.503z"/>
		<rect x="10" y="26.003" width="11" height="4"/>
		<path d="M18.5,15.003H19v-10.5V3.497c0-1.93-1.57-3.5-3.5-3.5s-3.5,1.57-3.5,3.5v1.006v10.5h0.5H18.5z M13,3.497
			c0-1.378,1.121-2.5,2.5-2.5s2.5,1.122,2.5,2.5v0.506h-5V3.497z M16.5,14.003h-2c-0.276,0-0.5-0.224-0.5-0.5s0.224-0.5,0.5-0.5h2
			c0.276,0,0.5,0.224,0.5,0.5S16.776,14.003,16.5,14.003z M16.5,12.003h-2c-0.276,0-0.5-0.224-0.5-0.5s0.224-0.5,0.5-0.5h2
			c0.276,0,0.5,0.224,0.5,0.5S16.776,12.003,16.5,12.003z M16.5,10.003h-2c-0.276,0-0.5-0.224-0.5-0.5s0.224-0.5,0.5-0.5h2
			c0.276,0,0.5,0.224,0.5,0.5S16.776,10.003,16.5,10.003z M16.5,8.003h-2c-0.276,0-0.5-0.224-0.5-0.5s0.224-0.5,0.5-0.5h2
			c0.276,0,0.5,0.224,0.5,0.5S16.776,8.003,16.5,8.003z M16.5,6.003h-2c-0.276,0-0.5-0.224-0.5-0.5s0.224-0.5,0.5-0.5h2
			c0.276,0,0.5,0.224,0.5,0.5S16.776,6.003,16.5,6.003z"/>
	</g>
</g>
<g id="K5_Robot">
</g>
<g id="Robot_Machine_1">
</g>
<g id="Robot_Machine_2">
</g>
<g id="Artifical_Intelligence_1">
</g>
<g id="Artifical_Intelligence_2">
</g>
<g id="Robot_4">
</g>
<g id="Robot_5">
</g>
<g id="Robot_6">
</g>
<g id="Robot_7">
</g>
<g id="Robot_8">
</g>
<g id="Robot_9">
</g>
<g id="Robot_10">
</g>
<g id="Robot_11">
</g>
<g id="Robot_12">
</g>
<g id="Robot_13">
</g>
</svg>
