<?xml version="1.0" encoding="iso-8859-1"?>
<!-- Generator: Adobe Illustrator 19.2.1, SVG Export Plug-In . SVG Version: 6.00 Build 0)  -->
<svg version="1.1" xmlns="http://www.w3.org/2000/svg" xmlns:xlink="http://www.w3.org/1999/xlink" x="0px" y="0px"
	 viewBox="0 0 30 30" style="enable-background:new 0 0 30 30;" xml:space="preserve">
<g id="Retro_Bot_1">
</g>
<g id="Retro_Bot_2">
</g>
<g id="Retro_Bot_3">
</g>
<g id="Retro_Bot_4">
</g>
<g id="Wall-E">
</g>
<g id="Eva">
</g>
<g id="Iron_Giant">
</g>
<g id="Marvin">
</g>
<g id="Atlas">
</g>
<g id="Claptrap">
</g>
<g id="Android">
</g>
<g id="Bender">
</g>
<g id="Roberto">
</g>
<g id="Robot_Devil">
</g>
<g id="Robocop">
</g>
<g id="ED_209">
</g>
<g id="Optimus_Prime">
</g>
<g id="Robot_1">
</g>
<g id="Robot_2">
</g>
<g id="Robot_3">
</g>
<g id="Robot_Arm_1">
	<g>
		<path d="M14.5,26h-14C0.224,26,0,26.224,0,26.5v3C0,29.776,0.224,30,0.5,30h14c0.276,0,0.5-0.224,0.5-0.5v-3
			C15,26.224,14.776,26,14.5,26z"/>
		<path d="M14,20.5c0-0.276-0.224-0.5-0.5-0.5H11v-0.5c0-1.93-1.57-3.5-3.5-3.5S4,17.57,4,19.5V20H1.5C1.224,20,1,20.224,1,20.5V25
			h13V20.5z M5,23.5C5,23.776,4.776,24,4.5,24S4,23.776,4,23.5v-2C4,21.224,4.224,21,4.5,21S5,21.224,5,21.5V23.5z M7,23.5
			C7,23.776,6.776,24,6.5,24S6,23.776,6,23.5v-2C6,21.224,6.224,21,6.5,21S7,21.224,7,21.5V23.5z"/>
		<circle cx="15.5" cy="2.5" r="2.5"/>
		<circle cx="28.5" cy="11.5" r="1.5"/>
		<path d="M12.481,4.239l-6.554,11.06C6.418,15.114,6.945,15,7.5,15c1.744,0,3.242,1.007,3.989,2.461l4.977-11.614
			C16.157,5.937,15.837,6,15.5,6C14.206,6,13.087,5.286,12.481,4.239z"/>
		<path d="M26.695,13.221l-0.868,2.314c-0.29,0.052-0.529,0.221-0.674,0.465H23.5c-0.276,0-0.5,0.224-0.5,0.5v3
			c0,0.276,0.224,0.5,0.5,0.5s0.5-0.224,0.5-0.5V17h1.153c0.174,0.293,0.481,0.5,0.847,0.5c0.039,0,0.071-0.018,0.109-0.022
			l0.731,0.975l-1.693,1.693c-0.195,0.195-0.195,0.512,0,0.707C25.244,20.951,25.372,21,25.5,21s0.256-0.049,0.354-0.146l2-2
			c0.176-0.176,0.196-0.455,0.046-0.653l-0.981-1.308C26.971,16.772,27,16.64,27,16.5s-0.029-0.272-0.081-0.393L28.5,14
			C27.789,14,27.151,13.699,26.695,13.221z"/>
		<path d="M26,11.5c0-0.739,0.329-1.398,0.841-1.856l-7.897-6.59c-0.177,1.099-0.864,2.018-1.812,2.523l8.944,6.505
			C26.03,11.894,26,11.701,26,11.5z"/>
	</g>
</g>
<g id="Robot_Arm_2">
</g>
<g id="Robot_Arm_3">
</g>
<g id="Robot_Arm_4">
</g>
<g id="Robot_Arm_5">
</g>
<g id="K5_Robot">
</g>
<g id="Robot_Machine_1">
</g>
<g id="Robot_Machine_2">
</g>
<g id="Artifical_Intelligence_1">
</g>
<g id="Artifical_Intelligence_2">
</g>
<g id="Robot_4">
</g>
<g id="Robot_5">
</g>
<g id="Robot_6">
</g>
<g id="Robot_7">
</g>
<g id="Robot_8">
</g>
<g id="Robot_9">
</g>
<g id="Robot_10">
</g>
<g id="Robot_11">
</g>
<g id="Robot_12">
</g>
<g id="Robot_13">
</g>
</svg>
