<?xml version="1.0" encoding="iso-8859-1"?>
<!-- Generator: Adobe Illustrator 19.2.1, SVG Export Plug-In . SVG Version: 6.00 Build 0)  -->
<svg version="1.1" xmlns="http://www.w3.org/2000/svg" xmlns:xlink="http://www.w3.org/1999/xlink" x="0px" y="0px"
	 viewBox="0 0 24 24" style="enable-background:new 0 0 24 24;" xml:space="preserve">
<g id="Snowflake_1">
</g>
<g id="Snowflake_2">
</g>
<g id="Snowflake_3">
</g>
<g id="Snowflake_4">
</g>
<g id="Winter_Cap_1">
</g>
<g id="Winter_Cap_2">
</g>
<g id="Glowes">
</g>
<g id="Sweater_1">
</g>
<g id="Sweater_2">
</g>
<g id="Sweater_3">
</g>
<g id="Scarf">
</g>
<g id="Winter_Socks">
</g>
<g id="Winter_Sock">
</g>
<g id="Winter_Coat">
</g>
<g id="Winter_Calendar">
</g>
<g id="Thermometer_1">
</g>
<g id="Thermometer_2">
</g>
<g id="Cold">
	<g>
		<path d="M12,18.293v-5.447l5.259,2.893C17.336,15.78,17.418,15.8,17.5,15.8c0.176,0,0.347-0.094,0.438-0.259
			c0.133-0.242,0.045-0.546-0.197-0.68L12.538,12l5.203-2.862c0.242-0.133,0.33-0.437,0.197-0.679
			c-0.135-0.242-0.438-0.329-0.68-0.197L12,11.154V5.707l3.854-3.854c0.195-0.195,0.195-0.512,0-0.707s-0.512-0.195-0.707,0
			L12,4.293V0.5C12,0.224,11.776,0,11.5,0S11,0.224,11,0.5v3.793L7.854,1.146c-0.195-0.195-0.512-0.195-0.707,0
			s-0.195,0.512,0,0.707L11,5.707v5.447L6.237,8.535L4.723,3.284C4.646,3.02,4.371,2.866,4.104,2.942
			C3.838,3.019,3.685,3.295,3.762,3.561L5,7.855l-3.26-1.793C1.5,5.929,1.195,6.017,1.062,6.259
			C0.929,6.501,1.017,6.805,1.259,6.938l3.263,1.795l-4.171,1.29c-0.264,0.082-0.411,0.361-0.33,0.625C0.089,10.862,0.286,11,0.5,11
			c0.049,0,0.099-0.007,0.148-0.022L5.74,9.403L10.462,12L5.74,14.597l-5.092-1.575c-0.265-0.082-0.544,0.066-0.625,0.33
			c-0.082,0.264,0.066,0.544,0.33,0.625l4.169,1.29l-3.262,1.794c-0.242,0.134-0.331,0.438-0.197,0.68C1.153,17.906,1.324,18,1.5,18
			c0.082,0,0.164-0.02,0.24-0.062L5,16.146l-1.239,4.293c-0.077,0.266,0.077,0.543,0.342,0.619c0.046,0.014,0.093,0.02,0.139,0.02
			c0.217,0,0.417-0.143,0.48-0.361l1.515-5.251L11,12.846v5.447l-3.854,3.854c-0.195,0.195-0.195,0.512,0,0.707s0.512,0.195,0.707,0
			L11,19.707V23.5c0,0.276,0.224,0.5,0.5,0.5s0.5-0.224,0.5-0.5v-3.793l3.146,3.146C15.244,22.951,15.372,23,15.5,23
			s0.256-0.049,0.354-0.146c0.195-0.195,0.195-0.512,0-0.707L12,18.293z"/>
		<path d="M23.5,12c0.276,0,0.5-0.224,0.5-0.5S23.776,11,23.5,11H22V8h1.5C23.776,8,24,7.776,24,7.5S23.776,7,23.5,7H22V5.5
			C22,4.673,21.327,4,20.5,4S19,4.673,19,5.5v11.556c0,0.175-0.091,0.335-0.236,0.418c-1.323,0.756-1.988,2.217-1.696,3.722
			c0.27,1.388,1.387,2.491,2.779,2.745c0.216,0.039,0.433,0.059,0.647,0.059c0.819,0,1.613-0.282,2.247-0.811
			C23.541,22.521,24,21.541,24,20.5c0-1.236-0.669-2.393-1.746-3.017C22.095,17.392,22,17.231,22,17.055V16h1.5
			c0.276,0,0.5-0.224,0.5-0.5S23.776,15,23.5,15H22v-3H23.5z M20,15V5.5C20,5.224,20.225,5,20.5,5S21,5.224,21,5.5V15H20z"/>
	</g>
</g>
<g id="Icicle">
</g>
<g id="Snowing">
</g>
<g id="Snow_Shoes_1">
</g>
<g id="Snow_Shoes_2">
</g>
<g id="Sledge">
</g>
<g id="Snow_Boots">
</g>
<g id="Snowcapped_Mountains">
</g>
<g id="Skis">
</g>
<g id="Sky_Glasses">
</g>
<g id="Snowboard">
</g>
<g id="Ice_Skate">
</g>
<g id="Wooden_House">
</g>
<g id="Snowcapped_House">
</g>
<g id="Hot_Drink">
</g>
<g id="Hot_Chocolate">
</g>
<g id="Lantern">
</g>
<g id="Snow_Shovel">
</g>
<g id="Snowman">
</g>
<g id="Reindeer">
</g>
<g id="Snowmobile">
</g>
<g id="Snow_Chain">
</g>
<g id="Slippery_Road">
</g>
</svg>
