<?xml version="1.0" encoding="iso-8859-1"?>
<!-- Generator: Adobe Illustrator 19.2.1, SVG Export Plug-In . SVG Version: 6.00 Build 0)  -->
<svg version="1.1" xmlns="http://www.w3.org/2000/svg" xmlns:xlink="http://www.w3.org/1999/xlink" x="0px" y="0px"
	 viewBox="0 0 24 24" style="enable-background:new 0 0 24 24;" xml:space="preserve">
<g id="Snowflake_1">
</g>
<g id="Snowflake_2">
</g>
<g id="Snowflake_3">
</g>
<g id="Snowflake_4">
</g>
<g id="Winter_Cap_1">
</g>
<g id="Winter_Cap_2">
</g>
<g id="Glowes">
</g>
<g id="Sweater_1">
</g>
<g id="Sweater_2">
</g>
<g id="Sweater_3">
</g>
<g id="Scarf">
</g>
<g id="Winter_Socks">
</g>
<g id="Winter_Sock">
</g>
<g id="Winter_Coat">
</g>
<g id="Winter_Calendar">
</g>
<g id="Thermometer_1">
</g>
<g id="Thermometer_2">
</g>
<g id="Cold">
</g>
<g id="Icicle">
</g>
<g id="Snowing">
</g>
<g id="Snow_Shoes_1">
</g>
<g id="Snow_Shoes_2">
</g>
<g id="Sledge">
</g>
<g id="Snow_Boots">
</g>
<g id="Snowcapped_Mountains">
</g>
<g id="Skis">
</g>
<g id="Sky_Glasses">
</g>
<g id="Snowboard">
</g>
<g id="Ice_Skate">
</g>
<g id="Wooden_House">
</g>
<g id="Snowcapped_House">
</g>
<g id="Hot_Drink">
</g>
<g id="Hot_Chocolate">
</g>
<g id="Lantern">
	<g>
		<path d="M18.5,21h-14C3.673,21,3,21.673,3,22.5v1C3,23.776,3.224,24,3.5,24h16c0.276,0,0.5-0.224,0.5-0.5v-1
			C20,21.673,19.327,21,18.5,21z"/>
		<path d="M3.5,8h16c0.223,0,0.419-0.148,0.48-0.362s-0.026-0.443-0.216-0.562l-7.213-4.509C12.828,2.295,13,1.918,13,1.5
			C13,0.673,12.327,0,11.5,0S10,0.673,10,1.5c0,0.418,0.172,0.795,0.449,1.068L3.235,7.076C3.046,7.194,2.958,7.423,3.02,7.638
			S3.277,8,3.5,8z M11.5,1C11.776,1,12,1.224,12,1.5S11.776,2,11.5,2S11,1.776,11,1.5S11.224,1,11.5,1z"/>
		<polygon points="17.149,9 5.852,9 11.5,13.841 		"/>
		<polygon points="5,19.412 10.732,14.5 5,9.587 		"/>
		<polygon points="11.5,15.159 5.852,20 17.149,20 		"/>
		<polygon points="18,9.587 12.268,14.5 18,19.412 		"/>
	</g>
</g>
<g id="Snow_Shovel">
</g>
<g id="Snowman">
</g>
<g id="Reindeer">
</g>
<g id="Snowmobile">
</g>
<g id="Snow_Chain">
</g>
<g id="Slippery_Road">
</g>
</svg>
