<?xml version="1.0" encoding="iso-8859-1"?>
<!-- Generator: Adobe Illustrator 19.2.1, SVG Export Plug-In . SVG Version: 6.00 Build 0)  -->
<svg version="1.1" xmlns="http://www.w3.org/2000/svg" xmlns:xlink="http://www.w3.org/1999/xlink" x="0px" y="0px"
	 viewBox="0 0 24 24" style="enable-background:new 0 0 24 24;" xml:space="preserve">
<g id="Snowflake_1">
</g>
<g id="Snowflake_2">
</g>
<g id="Snowflake_3">
</g>
<g id="Snowflake_4">
</g>
<g id="Winter_Cap_1">
</g>
<g id="Winter_Cap_2">
</g>
<g id="Glowes">
</g>
<g id="Sweater_1">
</g>
<g id="Sweater_2">
</g>
<g id="Sweater_3">
</g>
<g id="Scarf">
</g>
<g id="Winter_Socks">
</g>
<g id="Winter_Sock">
</g>
<g id="Winter_Coat">
</g>
<g id="Winter_Calendar">
</g>
<g id="Thermometer_1">
</g>
<g id="Thermometer_2">
</g>
<g id="Cold">
</g>
<g id="Icicle">
</g>
<g id="Snowing">
</g>
<g id="Snow_Shoes_1">
</g>
<g id="Snow_Shoes_2">
</g>
<g id="Sledge">
</g>
<g id="Snow_Boots">
</g>
<g id="Snowcapped_Mountains">
</g>
<g id="Skis">
</g>
<g id="Sky_Glasses">
</g>
<g id="Snowboard">
</g>
<g id="Ice_Skate">
</g>
<g id="Wooden_House">
</g>
<g id="Snowcapped_House">
</g>
<g id="Hot_Drink">
</g>
<g id="Hot_Chocolate">
</g>
<g id="Lantern">
</g>
<g id="Snow_Shovel">
</g>
<g id="Snowman">
</g>
<g id="Reindeer">
	<g>
		<path d="M11.5,16c-2.786,0-5.284,0.813-6.471,2.077C5.322,21.391,8.111,24,11.5,24c3.389,0,6.177-2.608,6.471-5.922
			C16.786,16.813,14.288,16,11.5,16z M9.614,18.585c-0.254,0.104-0.547-0.018-0.651-0.274c-0.05-0.123-0.146-0.22-0.269-0.271
			c-0.122-0.052-0.258-0.053-0.383-0.002c-0.255,0.104-0.378,0.397-0.273,0.652c0.104,0.256-0.018,0.548-0.274,0.652
			c-0.062,0.025-0.126,0.037-0.189,0.037c-0.197,0-0.384-0.117-0.463-0.311c-0.313-0.767,0.056-1.644,0.821-1.957
			c0.37-0.152,0.778-0.151,1.148,0.006c0.369,0.155,0.656,0.445,0.807,0.816C9.993,18.189,9.87,18.48,9.614,18.585z M15.889,19.068
			c-0.079,0.193-0.266,0.311-0.463,0.311c-0.063,0-0.127-0.012-0.189-0.037c-0.255-0.104-0.378-0.396-0.273-0.652
			c0.104-0.255-0.019-0.548-0.274-0.652c-0.123-0.052-0.259-0.05-0.382,0.002s-0.219,0.148-0.27,0.272
			c-0.104,0.255-0.396,0.378-0.652,0.273c-0.255-0.104-0.378-0.396-0.273-0.652c0.151-0.371,0.438-0.66,0.808-0.815
			c0.371-0.155,0.776-0.158,1.148-0.006C15.833,17.424,16.201,18.302,15.889,19.068z"/>
		<path d="M7.668,9.18c-0.211,0.352-0.386,0.729-0.493,1.138l-0.066,0.186c-1.142-0.568-2.572-0.504-2.637-0.499
			c-0.15,0.008-0.289,0.083-0.377,0.206c-0.088,0.122-0.117,0.277-0.078,0.422c0.022,0.084,0.557,1.959,2.226,2.316l-1.039,2.934
			c-0.073,0.286-0.123,0.576-0.157,0.87C6.557,15.67,8.929,15,11.5,15c2.572,0,4.943,0.67,6.453,1.752
			c-0.034-0.294-0.084-0.585-0.157-0.871c-0.004-0.014-0.007-0.028-0.012-0.042l-1.028-2.895c1.67-0.356,2.205-2.232,2.228-2.316
			c0.038-0.146,0.01-0.301-0.079-0.422c-0.088-0.122-0.227-0.197-0.377-0.206c-0.064-0.004-1.498-0.07-2.639,0.501l-0.051-0.144
			c-0.112-0.424-0.292-0.814-0.51-1.176C18.745,7.674,21,4.265,21,0.5C21,0.224,20.776,0,20.5,0S20,0.224,20,0.5
			c0,2.117-0.81,4.097-2.161,5.62C16.683,5.274,16,3.953,16,2.5C16,2.224,15.776,2,15.5,2S15,2.224,15,2.5
			c0,1.694,0.798,3.299,2.117,4.333c-0.709,0.63-1.523,1.148-2.43,1.516C13.865,7.512,12.731,7,11.5,7
			c-1.235,0-2.372,0.514-3.193,1.348C7.402,7.979,6.59,7.462,5.882,6.833C7.201,5.799,8,4.194,8,2.5C8,2.224,7.776,2,7.5,2
			S7,2.224,7,2.5c0,1.453-0.684,2.774-1.839,3.62C3.81,4.597,3,2.617,3,0.5C3,0.224,2.776,0,2.5,0S2,0.224,2,0.5
			C2,4.263,4.253,7.672,7.668,9.18z M6.575,12.012c-0.004-0.001-0.007-0.003-0.011-0.004c-0.636-0.083-1.048-0.561-1.292-0.978
			c0.448,0.044,1.021,0.153,1.485,0.411c0.006,0.003,0.012,0.003,0.018,0.006L6.575,12.012z M16.242,11.438
			c0.466-0.258,1.04-0.367,1.489-0.412c-0.241,0.417-0.653,0.895-1.296,0.979c-0.004,0.001-0.008,0.004-0.012,0.004l-0.201-0.565
			C16.229,11.441,16.236,11.441,16.242,11.438z M13.5,12c0.276,0,0.5,0.224,0.5,0.5c0,0.276-0.224,0.5-0.5,0.5S13,12.776,13,12.5
			C13,12.224,13.224,12,13.5,12z M9.5,12c0.276,0,0.5,0.224,0.5,0.5c0,0.276-0.224,0.5-0.5,0.5S9,12.776,9,12.5
			C9,12.224,9.224,12,9.5,12z"/>
	</g>
</g>
<g id="Snowmobile">
</g>
<g id="Snow_Chain">
</g>
<g id="Slippery_Road">
</g>
</svg>
