<?xml version="1.0" encoding="iso-8859-1"?>
<!-- Generator: Adobe Illustrator 19.2.1, SVG Export Plug-In . SVG Version: 6.00 Build 0)  -->
<svg version="1.1" xmlns="http://www.w3.org/2000/svg" xmlns:xlink="http://www.w3.org/1999/xlink" x="0px" y="0px"
	 viewBox="0 0 24 24" style="enable-background:new 0 0 24 24;" xml:space="preserve">
<g id="Snowflake_1">
</g>
<g id="Snowflake_2">
</g>
<g id="Snowflake_3">
</g>
<g id="Snowflake_4">
</g>
<g id="Winter_Cap_1">
</g>
<g id="Winter_Cap_2">
</g>
<g id="Glowes">
</g>
<g id="Sweater_1">
</g>
<g id="Sweater_2">
</g>
<g id="Sweater_3">
</g>
<g id="Scarf">
</g>
<g id="Winter_Socks">
</g>
<g id="Winter_Sock">
</g>
<g id="Winter_Coat">
</g>
<g id="Winter_Calendar">
</g>
<g id="Thermometer_1">
</g>
<g id="Thermometer_2">
</g>
<g id="Cold">
</g>
<g id="Icicle">
</g>
<g id="Snowing">
</g>
<g id="Snow_Shoes_1">
</g>
<g id="Snow_Shoes_2">
</g>
<g id="Sledge">
</g>
<g id="Snow_Boots">
</g>
<g id="Snowcapped_Mountains">
</g>
<g id="Skis">
</g>
<g id="Sky_Glasses">
</g>
<g id="Snowboard">
</g>
<g id="Ice_Skate">
</g>
<g id="Wooden_House">
</g>
<g id="Snowcapped_House">
</g>
<g id="Hot_Drink">
</g>
<g id="Hot_Chocolate">
</g>
<g id="Lantern">
</g>
<g id="Snow_Shovel">
</g>
<g id="Snowman">
</g>
<g id="Reindeer">
</g>
<g id="Snowmobile">
</g>
<g id="Snow_Chain">
	<g>
		<path d="M22.066,6.478c0-0.001,0.001-0.002,0.001-0.003c-0.001-0.016-0.013-0.028-0.016-0.044C20.706,2.613,18.029,0,14.947,0
			H9.026C4.601,0,1,5.383,1,12c0,6.617,3.601,12,8.026,12h5.921c1.871,0,3.591-0.97,4.958-2.581
			c0.071-0.046,0.123-0.112,0.163-0.187c1.774-2.203,2.906-5.523,2.906-9.232C22.974,10.008,22.642,8.133,22.066,6.478z
			 M20.677,5.655l-4.298-1.52l3.042-0.609C19.898,4.143,20.318,4.863,20.677,5.655z M16.871,9.855L21.322,12l-4.452,2.145
			C16.951,13.45,17,12.736,17,12S16.951,10.55,16.871,9.855z M16.619,8.273c-0.261-1.239-0.652-2.379-1.146-3.399l4.78,1.691
			L16.619,8.273z M20.236,17.432l-4.75,1.665c0.487-1.012,0.874-2.142,1.132-3.37L20.236,17.432z M14.947,1
			c1.092,0,2.123,0.404,3.046,1.103L13.633,1H14.947z M17.235,2.943l-2.561,0.512c-0.363-0.544-0.763-1.033-1.192-1.462
			L17.235,2.943z M9.012,19C6.762,19,5,15.925,5,12c0-3.925,1.762-7,4.012-7C11.249,5,13,8.075,13,12C13,15.925,11.249,19,9.012,19z
			 M14.666,20.556l2.645,0.507l-3.845,0.958C13.898,21.592,14.3,21.102,14.666,20.556z M14.947,23h-1.271l4.264-1.063
			C17.031,22.612,16.018,23,14.947,23z M19.436,20.453l-3.099-0.595l4.344-1.523C20.326,19.122,19.909,19.837,19.436,20.453z
			 M21.257,16.808l-3.847-1.813l4.537-2.187C21.881,14.235,21.64,15.583,21.257,16.808z M17.411,9.006l3.848-1.808
			c0.381,1.223,0.622,2.57,0.689,3.994L17.411,9.006z"/>
		<path d="M9,10c-0.737,0-1,1.033-1,2s0.263,2,1,2s1-1.033,1-2S9.737,10,9,10z"/>
	</g>
</g>
<g id="Slippery_Road">
</g>
</svg>
