<?xml version="1.0" encoding="iso-8859-1"?>
<!-- Generator: Adobe Illustrator 19.2.1, SVG Export Plug-In . SVG Version: 6.00 Build 0)  -->
<svg version="1.1" xmlns="http://www.w3.org/2000/svg" xmlns:xlink="http://www.w3.org/1999/xlink" x="0px" y="0px"
	 viewBox="0 0 24 24" style="enable-background:new 0 0 24 24;" xml:space="preserve">
<g id="Snowflake_1">
</g>
<g id="Snowflake_2">
</g>
<g id="Snowflake_3">
</g>
<g id="Snowflake_4">
</g>
<g id="Winter_Cap_1">
</g>
<g id="Winter_Cap_2">
</g>
<g id="Glowes">
</g>
<g id="Sweater_1">
</g>
<g id="Sweater_2">
</g>
<g id="Sweater_3">
</g>
<g id="Scarf">
</g>
<g id="Winter_Socks">
</g>
<g id="Winter_Sock">
</g>
<g id="Winter_Coat">
</g>
<g id="Winter_Calendar">
</g>
<g id="Thermometer_1">
</g>
<g id="Thermometer_2">
</g>
<g id="Cold">
</g>
<g id="Icicle">
</g>
<g id="Snowing">
</g>
<g id="Snow_Shoes_1">
</g>
<g id="Snow_Shoes_2">
</g>
<g id="Sledge">
</g>
<g id="Snow_Boots">
</g>
<g id="Snowcapped_Mountains">
</g>
<g id="Skis">
</g>
<g id="Sky_Glasses">
</g>
<g id="Snowboard">
</g>
<g id="Ice_Skate">
</g>
<g id="Wooden_House">
</g>
<g id="Snowcapped_House">
	<g>
		<path d="M23.514,11.414l-10.499-10c-0.581-0.554-1.489-0.554-2.069,0L0.64,11.219c-0.566,0.54-0.651,1.548-0.651,2.102
			c0,1.428,0.808,1.641,1.29,1.641c0.241,0,0.465-0.127,0.701-0.332v7.871c0,0.276,0.224,0.5,0.5,0.5h11.032h5h2.968
			c0.276,0,0.5-0.224,0.5-0.5v-8.243c0.414,0.515,0.672,0.749,0.984,0.749c0.854,0,0.954-1.05,1.014-1.677
			C24.029,12.792,24.106,11.978,23.514,11.414z M19.012,22.001v-7.5c0-0.276-0.224-0.5-0.5-0.5h-5c-0.276,0-0.5,0.224-0.5,0.5v7.5
			H2.979v-8.5c0-0.013-0.006-0.023-0.007-0.036c0.026-0.035,0.047-0.061,0.074-0.097c0.439-0.591,0.937-1.261,1.295-1.479
			c0.064-0.026,0.291,0.014,0.426,0.037c0.429,0.072,1.433,0.243,1.711-0.927C6.5,10.904,6.524,10.79,6.55,10.664
			c0.071-0.343,0.236-1.146,0.416-1.317C7.216,9.107,7.63,8.931,8.069,8.744C8.57,8.531,9.088,8.31,9.47,7.946
			c0.267-0.254,0.49-0.696,0.749-1.208c0.203-0.402,0.582-1.151,0.833-1.258c0.074,0.048,0.191,0.332,0.254,0.484
			c0.177,0.428,0.444,1.075,1.133,1.075c0.656,0,1.079-0.253,1.358-0.42c0.078-0.047,0.187-0.112,0.204-0.113
			c0.437,0.279,0.62,0.698,0.834,1.184c0.206,0.47,0.439,1.002,0.932,1.451c0.654,0.597,1.119,0.651,1.538,0.655
			c0.161,0.001,0.164,0.004,0.196,0.035c0.231,0.22,0.555,0.806,0.84,1.324c0.35,0.636,0.681,1.236,1.022,1.563
			c0.446,0.424,0.922,0.502,1.305,0.565c0.115,0.019,0.215,0.038,0.311,0.062v8.657H19.012z"/>
		<path d="M10.511,14.001h-5c-0.276,0-0.5,0.224-0.5,0.5v4c0,0.276,0.224,0.5,0.5,0.5h5c0.276,0,0.5-0.224,0.5-0.5v-4
			C11.011,14.225,10.788,14.001,10.511,14.001z"/>
	</g>
</g>
<g id="Hot_Drink">
</g>
<g id="Hot_Chocolate">
</g>
<g id="Lantern">
</g>
<g id="Snow_Shovel">
</g>
<g id="Snowman">
</g>
<g id="Reindeer">
</g>
<g id="Snowmobile">
</g>
<g id="Snow_Chain">
</g>
<g id="Slippery_Road">
</g>
</svg>
