<?xml version="1.0" encoding="iso-8859-1"?>
<!-- Generator: Adobe Illustrator 19.2.1, SVG Export Plug-In . SVG Version: 6.00 Build 0)  -->
<svg version="1.1" xmlns="http://www.w3.org/2000/svg" xmlns:xlink="http://www.w3.org/1999/xlink" x="0px" y="0px"
	 viewBox="0 0 24 24" style="enable-background:new 0 0 24 24;" xml:space="preserve">
<g id="Snowflake_1">
</g>
<g id="Snowflake_2">
</g>
<g id="Snowflake_3">
</g>
<g id="Snowflake_4">
</g>
<g id="Winter_Cap_1">
</g>
<g id="Winter_Cap_2">
</g>
<g id="Glowes">
</g>
<g id="Sweater_1">
</g>
<g id="Sweater_2">
</g>
<g id="Sweater_3">
</g>
<g id="Scarf">
</g>
<g id="Winter_Socks">
</g>
<g id="Winter_Sock">
</g>
<g id="Winter_Coat">
</g>
<g id="Winter_Calendar">
</g>
<g id="Thermometer_1">
</g>
<g id="Thermometer_2">
</g>
<g id="Cold">
</g>
<g id="Icicle">
</g>
<g id="Snowing">
</g>
<g id="Snow_Shoes_1">
</g>
<g id="Snow_Shoes_2">
</g>
<g id="Sledge">
</g>
<g id="Snow_Boots">
</g>
<g id="Snowcapped_Mountains">
</g>
<g id="Skis">
</g>
<g id="Sky_Glasses">
</g>
<g id="Snowboard">
</g>
<g id="Ice_Skate">
</g>
<g id="Wooden_House">
</g>
<g id="Snowcapped_House">
</g>
<g id="Hot_Drink">
</g>
<g id="Hot_Chocolate">
</g>
<g id="Lantern">
</g>
<g id="Snow_Shovel">
	<path d="M23.854,3.146l-3-3C20.76,0.052,20.633,0,20.5,0s-0.26,0.053-0.354,0.147l-0.585,0.585
		c-0.883,0.883-0.958,2.263-0.241,3.24L9.5,13.793l-3.646-3.647c-0.188-0.188-0.52-0.188-0.707,0l-4.708,4.708
		c-0.585,0.585-0.585,1.537,0,2.122l6.586,6.585c0.292,0.292,0.676,0.438,1.061,0.438s0.768-0.146,1.061-0.438l4.708-4.707
		c0.195-0.195,0.195-0.512,0-0.707L10.207,14.5l9.82-9.821c0.438,0.321,0.953,0.49,1.473,0.49c0.641,0,1.281-0.244,1.769-0.731
		l0.585-0.586C24.049,3.657,24.049,3.341,23.854,3.146z M3.585,16.415c-0.128,0-0.256-0.049-0.354-0.146
		c-0.195-0.195-0.195-0.512,0-0.707l1.915-1.915c0.195-0.195,0.512-0.195,0.707,0s0.195,0.512,0,0.707l-1.915,1.915
		C3.841,16.366,3.713,16.415,3.585,16.415z M5.085,17.915c-0.128,0-0.256-0.049-0.354-0.146c-0.195-0.195-0.195-0.512,0-0.707
		l1.915-1.915c0.195-0.195,0.512-0.195,0.707,0s0.195,0.512,0,0.707l-1.915,1.915C5.341,17.866,5.213,17.915,5.085,17.915z
		 M6.939,19.269c-0.098,0.098-0.226,0.146-0.354,0.146s-0.256-0.049-0.354-0.146c-0.195-0.195-0.195-0.512,0-0.707l1.915-1.915
		c0.195-0.195,0.512-0.195,0.707,0s0.195,0.512,0,0.707L6.939,19.269z M10.354,18.146c0.195,0.195,0.195,0.512,0,0.707l-1.915,1.915
		c-0.098,0.098-0.226,0.146-0.354,0.146s-0.256-0.049-0.354-0.146c-0.195-0.195-0.195-0.512,0-0.707l1.915-1.915
		C9.842,17.951,10.159,17.951,10.354,18.146z M22.562,3.732c-0.586,0.585-1.537,0.585-2.121,0l-0.172-0.172
		c-0.585-0.585-0.585-1.537,0-2.122L20.5,1.207L22.793,3.5L22.562,3.732z"/>
</g>
<g id="Snowman">
</g>
<g id="Reindeer">
</g>
<g id="Snowmobile">
</g>
<g id="Snow_Chain">
</g>
<g id="Slippery_Road">
</g>
</svg>
