<?xml version="1.0" encoding="iso-8859-1"?>
<!-- Generator: Adobe Illustrator 19.2.1, SVG Export Plug-In . SVG Version: 6.00 Build 0)  -->
<svg version="1.1" xmlns="http://www.w3.org/2000/svg" xmlns:xlink="http://www.w3.org/1999/xlink" x="0px" y="0px"
	 viewBox="0 0 24 24" style="enable-background:new 0 0 24 24;" xml:space="preserve">
<g id="Snowflake_1">
</g>
<g id="Snowflake_2">
</g>
<g id="Snowflake_3">
</g>
<g id="Snowflake_4">
</g>
<g id="Winter_Cap_1">
</g>
<g id="Winter_Cap_2">
</g>
<g id="Glowes">
</g>
<g id="Sweater_1">
</g>
<g id="Sweater_2">
</g>
<g id="Sweater_3">
</g>
<g id="Scarf">
</g>
<g id="Winter_Socks">
</g>
<g id="Winter_Sock">
</g>
<g id="Winter_Coat">
</g>
<g id="Winter_Calendar">
</g>
<g id="Thermometer_1">
</g>
<g id="Thermometer_2">
</g>
<g id="Cold">
</g>
<g id="Icicle">
</g>
<g id="Snowing">
</g>
<g id="Snow_Shoes_1">
</g>
<g id="Snow_Shoes_2">
</g>
<g id="Sledge">
</g>
<g id="Snow_Boots">
</g>
<g id="Snowcapped_Mountains">
</g>
<g id="Skis">
</g>
<g id="Sky_Glasses">
</g>
<g id="Snowboard">
	<path d="M22.75,17.05c-0.04-0.029-3.984-2.991-8.394-7.4C10.937,6.23,6.98,1.287,6.903,1.196c-1.572-1.573-4.133-1.573-5.707,0
		C-0.377,2.77-0.377,5.33,1.249,6.949c0.039,0.03,3.972,3.015,8.383,7.425c3.42,3.42,7.39,8.341,7.465,8.43
		c0.787,0.787,1.82,1.18,2.854,1.18s2.066-0.393,2.854-1.18C24.377,21.23,24.377,18.67,22.75,17.05z M14.084,16.257
		c0.134-0.426,0.446-0.906,0.856-1.316s0.891-0.723,1.316-0.856c0.146-0.046,0.281-0.068,0.395-0.068
		c0.122,0,0.219,0.026,0.271,0.079c0.102,0.102,0.106,0.363,0.011,0.666c-0.134,0.426-0.446,0.906-0.856,1.316
		s-0.891,0.723-1.316,0.856c-0.303,0.096-0.565,0.09-0.666-0.011C13.993,16.821,13.988,16.56,14.084,16.257z M7.09,9.918
		C6.988,9.816,6.984,9.555,7.08,9.252c0.134-0.426,0.446-0.906,0.856-1.316s0.89-0.723,1.316-0.856
		c0.146-0.046,0.282-0.069,0.395-0.069c0.122,0,0.218,0.027,0.271,0.08c0.104,0.104,0.107,0.359,0.011,0.666
		C9.795,8.183,9.483,8.663,9.073,9.073s-0.89,0.723-1.316,0.856C7.448,10.025,7.193,10.022,7.09,9.918z"/>
</g>
<g id="Ice_Skate">
</g>
<g id="Wooden_House">
</g>
<g id="Snowcapped_House">
</g>
<g id="Hot_Drink">
</g>
<g id="Hot_Chocolate">
</g>
<g id="Lantern">
</g>
<g id="Snow_Shovel">
</g>
<g id="Snowman">
</g>
<g id="Reindeer">
</g>
<g id="Snowmobile">
</g>
<g id="Snow_Chain">
</g>
<g id="Slippery_Road">
</g>
</svg>
