<?xml version="1.0" encoding="iso-8859-1"?>
<!-- Generator: Adobe Illustrator 19.2.1, SVG Export Plug-In . SVG Version: 6.00 Build 0)  -->
<svg version="1.1" xmlns="http://www.w3.org/2000/svg" xmlns:xlink="http://www.w3.org/1999/xlink" x="0px" y="0px"
	 viewBox="0 0 24 24" style="enable-background:new 0 0 24 24;" xml:space="preserve">
<g id="Snowflake_1">
</g>
<g id="Snowflake_2">
</g>
<g id="Snowflake_3">
</g>
<g id="Snowflake_4">
</g>
<g id="Winter_Cap_1">
</g>
<g id="Winter_Cap_2">
</g>
<g id="Glowes">
</g>
<g id="Sweater_1">
</g>
<g id="Sweater_2">
</g>
<g id="Sweater_3">
</g>
<g id="Scarf">
</g>
<g id="Winter_Socks">
</g>
<g id="Winter_Sock">
</g>
<g id="Winter_Coat">
</g>
<g id="Winter_Calendar">
</g>
<g id="Thermometer_1">
</g>
<g id="Thermometer_2">
</g>
<g id="Cold">
</g>
<g id="Icicle">
</g>
<g id="Snowing">
</g>
<g id="Snow_Shoes_1">
</g>
<g id="Snow_Shoes_2">
	<g>
		<path d="M10.983,7.413c-0.04-0.868-0.17-1.735-0.376-2.559c-0.004-0.062-0.019-0.122-0.046-0.179
			c-0.363-1.361-0.939-2.578-1.682-3.43C8.862,1.22,8.852,1.192,8.83,1.17C8.82,1.161,8.808,1.158,8.798,1.149
			C8.144,0.435,7.369,0,6.5,0C4.587,0,3.125,2.091,2.436,4.687C2.42,4.723,2.415,4.76,2.407,4.798
			c-0.215,0.84-0.349,1.727-0.391,2.615c-0.009,0.051-0.011,0.1-0.004,0.151C2.008,7.71,2,7.855,2,8
			c0,0.546,0.061,1.102,0.165,1.658C2.164,9.729,2.18,9.8,2.21,9.867c0.141,0.678,0.345,1.353,0.589,2.009
			c0.007,0.023,0.014,0.045,0.024,0.067c1.039,2.763,2.74,5.14,3.177,5.725V23.5C6,23.776,6.224,24,6.5,24S7,23.776,7,23.5v-5.833
			c0.438-0.586,2.143-2.97,3.182-5.739c0.005-0.012,0.009-0.024,0.013-0.036C10.666,10.627,11,9.286,11,8
			c0-0.145-0.008-0.29-0.013-0.436C10.994,7.513,10.992,7.464,10.983,7.413z M7.98,14.273L7.207,13.5L9,11.707l0.141,0.141
			C8.797,12.714,8.387,13.539,7.98,14.273z M6.5,16.648c-0.247-0.354-0.589-0.863-0.962-1.479L6.5,14.207l0.962,0.962
			C7.089,15.785,6.747,16.295,6.5,16.648z M3.859,11.848L4,11.707L5.793,13.5L5.02,14.273C4.613,13.539,4.203,12.714,3.859,11.848z
			 M3.186,5.893L3.293,6L3.145,6.148C3.158,6.063,3.171,5.977,3.186,5.893z M4.57,2.277L5.793,3.5L4,5.293L3.447,4.74
			C3.723,3.77,4.112,2.92,4.57,2.277z M8.43,2.277C8.888,2.92,9.277,3.77,9.553,4.74L9,5.293L7.207,3.5L8.43,2.277z M10,8
			c0,0.47-0.055,0.952-0.144,1.437L9,10.293L7.883,9.176C7.977,8.702,8.106,8.39,8.221,8.121C8.336,7.85,8.428,7.572,8.467,7.24
			L9,6.707l0.992,0.992C9.994,7.799,10,7.899,10,8z M3.144,9.437C3.055,8.952,3,8.47,3,8c0-0.101,0.006-0.201,0.008-0.301L4,6.707
			l0.53,0.53c0.073,0.581,0.232,1.372,0.398,2.128L4,10.293L3.144,9.437z M4.707,6l0.091-0.091c-0.024,0.037-0.05,0.072-0.072,0.11
			L4.707,6z M5.187,10.52l0.076,0.337C5.469,11.802,6.05,12,6.501,12c0.689,0,1.25-0.561,1.25-1.25c0-0.103,0.004-0.191,0.006-0.286
			L8.293,11L6.5,12.793L4.707,11L5.187,10.52z M8.248,6.045c-0.049-0.09-0.104-0.176-0.166-0.257L8.293,6L8.248,6.045z M7.713,5.42
			C7.375,5.16,6.958,5,6.501,5C6.092,5,5.687,5.133,5.347,5.36L6.5,4.207L7.713,5.42z M9.707,6l0.107-0.107
			c0.015,0.085,0.028,0.17,0.041,0.256L9.707,6z M7.76,1.533L6.5,2.793l-1.26-1.26C5.637,1.194,6.063,1,6.5,1
			S7.363,1.194,7.76,1.533z"/>
		<path d="M21.987,7.565c0.007-0.051,0.005-0.101-0.004-0.152c-0.041-0.887-0.176-1.774-0.39-2.614
			c-0.007-0.039-0.013-0.076-0.029-0.113C20.875,2.091,19.412,0,17.5,0c-0.868,0-1.643,0.435-2.297,1.148
			c-0.01,0.009-0.024,0.012-0.034,0.022c-0.023,0.023-0.034,0.052-0.052,0.078c-0.741,0.852-1.316,2.067-1.679,3.426
			c-0.027,0.058-0.042,0.118-0.046,0.181c-0.206,0.823-0.336,1.69-0.376,2.558c-0.009,0.051-0.011,0.101-0.004,0.152
			C13.008,7.71,13,7.855,13,8c0,1.285,0.333,2.625,0.804,3.89c0.005,0.014,0.009,0.027,0.015,0.04
			c1.039,2.769,2.744,5.152,3.181,5.738V23.5c0,0.276,0.224,0.5,0.5,0.5s0.5-0.224,0.5-0.5v-5.833
			c0.437-0.585,2.138-2.962,3.177-5.726c0.01-0.022,0.017-0.043,0.024-0.066c0.244-0.656,0.448-1.331,0.589-2.01
			c0.029-0.066,0.045-0.135,0.045-0.206C21.939,9.103,22,8.546,22,8C22,7.855,21.992,7.71,21.987,7.565z M18.98,14.273L18.207,13.5
			L20,11.707l0.141,0.141C19.797,12.714,19.387,13.539,18.98,14.273z M17.5,16.648c-0.247-0.354-0.589-0.863-0.962-1.479
			l0.962-0.962l0.962,0.962C18.089,15.785,17.747,16.295,17.5,16.648z M14.859,11.848L15,11.707l1.793,1.793l-0.773,0.773
			C15.613,13.539,15.203,12.714,14.859,11.848z M14.186,5.893L14.293,6l-0.148,0.148C14.158,6.063,14.171,5.977,14.186,5.893z
			 M15.569,2.277L16.793,3.5L15,5.293L14.447,4.74C14.723,3.77,15.112,2.92,15.569,2.277z M19.43,2.276
			c0.458,0.644,0.847,1.493,1.123,2.464L20,5.293L18.207,3.5L19.43,2.276z M20,10.293l-0.928-0.928
			c0.166-0.755,0.325-1.546,0.398-2.127L20,6.707l0.992,0.992C20.994,7.799,21,7.899,21,8c0,0.47-0.055,0.952-0.144,1.437L20,10.293
			z M14.144,9.437C14.055,8.952,14,8.47,14,8c0-0.101,0.006-0.201,0.008-0.301L15,6.707l0.533,0.533
			c0.039,0.332,0.13,0.61,0.246,0.881c0.115,0.269,0.244,0.581,0.338,1.055L15,10.293L14.144,9.437z M19.274,6.019
			c-0.021-0.037-0.047-0.073-0.071-0.109L19.293,6L19.274,6.019z M15.707,6l0.213-0.214c-0.063,0.082-0.118,0.168-0.168,0.259
			L15.707,6z M16.243,10.464c0.002,0.095,0.006,0.183,0.006,0.286c0,0.689,0.561,1.25,1.25,1.25c0.451,0,1.033-0.198,1.238-1.143
			l0.076-0.337l0.48,0.48L17.5,12.793L15.707,11L16.243,10.464z M20.855,6.149L20.707,6l0.107-0.107
			C20.829,5.977,20.842,6.063,20.855,6.149z M18.652,5.359C18.313,5.133,17.908,5,17.499,5c-0.458,0-0.876,0.161-1.214,0.422
			L17.5,4.207L18.652,5.359z M18.76,1.532L17.5,2.793l-1.26-1.26C16.637,1.194,17.063,1,17.5,1C17.936,1,18.363,1.194,18.76,1.532z"
			/>
	</g>
</g>
<g id="Sledge">
</g>
<g id="Snow_Boots">
</g>
<g id="Snowcapped_Mountains">
</g>
<g id="Skis">
</g>
<g id="Sky_Glasses">
</g>
<g id="Snowboard">
</g>
<g id="Ice_Skate">
</g>
<g id="Wooden_House">
</g>
<g id="Snowcapped_House">
</g>
<g id="Hot_Drink">
</g>
<g id="Hot_Chocolate">
</g>
<g id="Lantern">
</g>
<g id="Snow_Shovel">
</g>
<g id="Snowman">
</g>
<g id="Reindeer">
</g>
<g id="Snowmobile">
</g>
<g id="Snow_Chain">
</g>
<g id="Slippery_Road">
</g>
</svg>
