<?xml version="1.0" encoding="iso-8859-1"?>
<!-- Generator: Adobe Illustrator 19.2.1, SVG Export Plug-In . SVG Version: 6.00 Build 0)  -->
<svg version="1.1" xmlns="http://www.w3.org/2000/svg" xmlns:xlink="http://www.w3.org/1999/xlink" x="0px" y="0px"
	 viewBox="0 0 24 24" style="enable-background:new 0 0 24 24;" xml:space="preserve">
<g id="Snowflake_1">
</g>
<g id="Snowflake_2">
</g>
<g id="Snowflake_3">
</g>
<g id="Snowflake_4">
</g>
<g id="Winter_Cap_1">
</g>
<g id="Winter_Cap_2">
</g>
<g id="Glowes">
</g>
<g id="Sweater_1">
</g>
<g id="Sweater_2">
</g>
<g id="Sweater_3">
</g>
<g id="Scarf">
</g>
<g id="Winter_Socks">
</g>
<g id="Winter_Sock">
</g>
<g id="Winter_Coat">
</g>
<g id="Winter_Calendar">
</g>
<g id="Thermometer_1">
</g>
<g id="Thermometer_2">
</g>
<g id="Cold">
</g>
<g id="Icicle">
</g>
<g id="Snowing">
</g>
<g id="Snow_Shoes_1">
</g>
<g id="Snow_Shoes_2">
</g>
<g id="Sledge">
</g>
<g id="Snow_Boots">
	<g>
		<path d="M21.5,0h-9C11.121,0,10,1.122,10,2.5v2C10,5.327,10.672,6,11.5,6h11C23.327,6,24,5.327,24,4.5v-2
			C24,1.122,22.879,0,21.5,0z"/>
		<path d="M22.5,21h-21C0.673,21,0,21.673,0,22.5S0.673,24,1.5,24h4c0.768,0,3.697-0.063,4.571-0.202l5.324-0.79
			c0.225-0.019,0.441,0.101,0.512,0.274l0.115,0.367C16.088,23.858,16.281,24,16.5,24h6c0.827,0,1.5-0.673,1.5-1.5
			S23.327,21,22.5,21z"/>
		<path d="M15.202,20C15.082,19.504,15,19.004,15,18.5c0-3.584,2.916-6.5,6.5-6.5c0.063,0,0.124,0.004,0.186,0.008l0.375,0.001
			C22.024,11.645,22,11.253,22,10.796V7.5C22,7.224,21.776,7,21.5,7h-9C12.223,7,12,7.224,12,7.5v2.683
			c0,0.281-0.04,0.554-0.108,0.817H14c0.276,0,0.5,0.224,0.5,0.5S14.276,12,14,12h-1.293l0.646,0.646
			c0.195,0.195,0.195,0.512,0,0.707C13.256,13.451,13.128,13.5,13,13.5s-0.256-0.049-0.354-0.146l-1.268-1.268
			c-0.15,0.207-0.324,0.397-0.521,0.565l1.496,1.496c0.195,0.195,0.195,0.512,0,0.707s-0.512,0.195-0.707,0L11,14.207V15
			c0,0.276-0.224,0.5-0.5,0.5S10,15.276,10,15v-1.834c-1.049,0.463-2.229,0.516-3.352,0.116c-0.823-0.291-1.686-0.357-2.563-0.199
			c-1.981,0.358-3.58,1.913-3.979,3.87c-0.214,1.05-0.093,2.102,0.321,3.047H15.202z"/>
		<path d="M21.5,13c-3.032,0-5.5,2.468-5.5,5.5c0,0.504,0.09,1.006,0.232,1.5h7.339c0.175-0.389,0.302-0.79,0.366-1.203
			c0.179-1.152-0.027-2.286-0.598-3.28c-0.526-0.917-0.895-1.62-1.112-2.504h-0.482c-0.012,0-0.118-0.006-0.13-0.007L21.5,13z"/>
	</g>
</g>
<g id="Snowcapped_Mountains">
</g>
<g id="Skis">
</g>
<g id="Sky_Glasses">
</g>
<g id="Snowboard">
</g>
<g id="Ice_Skate">
</g>
<g id="Wooden_House">
</g>
<g id="Snowcapped_House">
</g>
<g id="Hot_Drink">
</g>
<g id="Hot_Chocolate">
</g>
<g id="Lantern">
</g>
<g id="Snow_Shovel">
</g>
<g id="Snowman">
</g>
<g id="Reindeer">
</g>
<g id="Snowmobile">
</g>
<g id="Snow_Chain">
</g>
<g id="Slippery_Road">
</g>
</svg>
