<?xml version="1.0" encoding="iso-8859-1"?>
<!-- Generator: Adobe Illustrator 19.2.1, SVG Export Plug-In . SVG Version: 6.00 Build 0)  -->
<svg version="1.1" xmlns="http://www.w3.org/2000/svg" xmlns:xlink="http://www.w3.org/1999/xlink" x="0px" y="0px"
	 viewBox="0 0 24 24" style="enable-background:new 0 0 24 24;" xml:space="preserve">
<g id="Snowflake_1">
</g>
<g id="Snowflake_2">
</g>
<g id="Snowflake_3">
</g>
<g id="Snowflake_4">
	<path d="M22.5,11h-3.349l1.626-1.084c0.229-0.153,0.292-0.463,0.139-0.693c-0.155-0.231-0.466-0.291-0.693-0.139L17.349,11h-3.399
		c-0.065-0.318-0.192-0.614-0.366-0.876l2.406-2.406l3.386-0.677c0.271-0.054,0.447-0.317,0.393-0.588
		c-0.055-0.271-0.331-0.447-0.588-0.392l-1.917,0.383l2.368-2.368c0.195-0.195,0.195-0.512,0-0.707s-0.512-0.195-0.707,0
		l-2.368,2.368L16.94,3.82c0.055-0.271-0.121-0.534-0.392-0.588c-0.268-0.057-0.534,0.121-0.589,0.392l-0.678,3.388l-2.405,2.405
		C12.614,9.243,12.319,9.116,12,9.051V5.651l1.916-2.874c0.153-0.23,0.091-0.54-0.139-0.693c-0.229-0.151-0.539-0.092-0.693,0.139
		L12,3.849V0.5C12,0.224,11.776,0,11.5,0S11,0.224,11,0.5v3.349L9.916,2.223C9.763,1.993,9.452,1.93,9.223,2.084
		c-0.23,0.153-0.292,0.463-0.139,0.693L11,5.651v3.399c-0.319,0.065-0.614,0.192-0.876,0.366L7.718,7.011L7.041,3.624
		C6.987,3.353,6.726,3.176,6.452,3.231C6.182,3.286,6.006,3.549,6.06,3.82l0.383,1.917L4.075,3.368
		c-0.195-0.195-0.512-0.195-0.707,0s-0.195,0.512,0,0.707l2.368,2.368L3.82,6.06C3.55,6.004,3.285,6.181,3.231,6.452
		C3.177,6.723,3.353,6.986,3.624,7.041l3.387,0.677l2.406,2.406C9.243,10.386,9.116,10.681,9.051,11H5.651L2.777,9.084
		c-0.23-0.153-0.541-0.091-0.693,0.139c-0.153,0.23-0.091,0.54,0.139,0.693L3.849,11H0.5C0.224,11,0,11.224,0,11.5S0.224,12,0.5,12
		h3.349l-1.626,1.084c-0.23,0.153-0.292,0.464-0.139,0.693C2.18,13.922,2.339,14,2.5,14c0.095,0,0.191-0.027,0.277-0.084L5.651,12
		h3.399c0.065,0.319,0.192,0.614,0.366,0.876l-2.405,2.405L3.624,15.96c-0.271,0.054-0.446,0.317-0.392,0.589
		c0.054,0.271,0.319,0.446,0.588,0.392l1.916-0.384l-2.368,2.368c-0.195,0.195-0.195,0.512,0,0.707
		c0.098,0.098,0.226,0.146,0.354,0.146s0.256-0.049,0.354-0.146l2.368-2.368L6.06,19.181c-0.054,0.271,0.122,0.534,0.392,0.588
		c0.033,0.007,0.066,0.01,0.099,0.01c0.233,0,0.442-0.164,0.49-0.402l0.677-3.387l2.406-2.406c0.262,0.174,0.558,0.301,0.876,0.366
		v3.399l-1.916,2.874c-0.153,0.229-0.091,0.54,0.139,0.693c0.229,0.152,0.54,0.09,0.693-0.139L11,19.151V22.5
		c0,0.276,0.224,0.5,0.5,0.5s0.5-0.224,0.5-0.5v-3.349l1.084,1.626C13.181,20.922,13.339,21,13.5,21
		c0.096,0,0.192-0.027,0.277-0.084c0.229-0.153,0.292-0.464,0.139-0.693L12,17.349v-3.399c0.319-0.065,0.614-0.192,0.876-0.366
		l2.405,2.405l0.678,3.388c0.048,0.237,0.256,0.401,0.489,0.401c0.033,0,0.066-0.003,0.1-0.01c0.271-0.054,0.446-0.317,0.392-0.589
		l-0.384-1.916l2.368,2.368c0.098,0.098,0.226,0.146,0.354,0.146s0.256-0.049,0.354-0.146c0.195-0.195,0.195-0.512,0-0.707
		l-2.368-2.368l1.916,0.384c0.266,0.055,0.534-0.12,0.589-0.392s-0.121-0.535-0.392-0.589l-3.388-0.678l-2.405-2.405
		c0.174-0.262,0.301-0.558,0.366-0.876h3.399l2.874,1.916C20.308,13.973,20.404,14,20.5,14c0.161,0,0.319-0.078,0.416-0.223
		c0.153-0.229,0.091-0.54-0.139-0.693L19.151,12H22.5c0.276,0,0.5-0.224,0.5-0.5S22.776,11,22.5,11z"/>
</g>
<g id="Winter_Cap_1">
</g>
<g id="Winter_Cap_2">
</g>
<g id="Glowes">
</g>
<g id="Sweater_1">
</g>
<g id="Sweater_2">
</g>
<g id="Sweater_3">
</g>
<g id="Scarf">
</g>
<g id="Winter_Socks">
</g>
<g id="Winter_Sock">
</g>
<g id="Winter_Coat">
</g>
<g id="Winter_Calendar">
</g>
<g id="Thermometer_1">
</g>
<g id="Thermometer_2">
</g>
<g id="Cold">
</g>
<g id="Icicle">
</g>
<g id="Snowing">
</g>
<g id="Snow_Shoes_1">
</g>
<g id="Snow_Shoes_2">
</g>
<g id="Sledge">
</g>
<g id="Snow_Boots">
</g>
<g id="Snowcapped_Mountains">
</g>
<g id="Skis">
</g>
<g id="Sky_Glasses">
</g>
<g id="Snowboard">
</g>
<g id="Ice_Skate">
</g>
<g id="Wooden_House">
</g>
<g id="Snowcapped_House">
</g>
<g id="Hot_Drink">
</g>
<g id="Hot_Chocolate">
</g>
<g id="Lantern">
</g>
<g id="Snow_Shovel">
</g>
<g id="Snowman">
</g>
<g id="Reindeer">
</g>
<g id="Snowmobile">
</g>
<g id="Snow_Chain">
</g>
<g id="Slippery_Road">
</g>
</svg>
