<?xml version="1.0" encoding="iso-8859-1"?>
<!-- Generator: Adobe Illustrator 19.2.1, SVG Export Plug-In . SVG Version: 6.00 Build 0)  -->
<svg version="1.1" xmlns="http://www.w3.org/2000/svg" xmlns:xlink="http://www.w3.org/1999/xlink" x="0px" y="0px"
	 viewBox="0 0 24 24" style="enable-background:new 0 0 24 24;" xml:space="preserve">
<g id="Snowflake_1">
</g>
<g id="Snowflake_2">
</g>
<g id="Snowflake_3">
</g>
<g id="Snowflake_4">
</g>
<g id="Winter_Cap_1">
</g>
<g id="Winter_Cap_2">
</g>
<g id="Glowes">
</g>
<g id="Sweater_1">
</g>
<g id="Sweater_2">
</g>
<g id="Sweater_3">
</g>
<g id="Scarf">
</g>
<g id="Winter_Socks">
</g>
<g id="Winter_Sock">
</g>
<g id="Winter_Coat">
</g>
<g id="Winter_Calendar">
</g>
<g id="Thermometer_1">
</g>
<g id="Thermometer_2">
</g>
<g id="Cold">
</g>
<g id="Icicle">
</g>
<g id="Snowing">
</g>
<g id="Snow_Shoes_1">
	<path d="M23.854,23.146l-5.863-5.863c-0.057-1.097-0.468-6.424-3.027-10.54C14.947,6.7,14.92,6.663,14.892,6.626
		c-0.472-0.742-1.007-1.447-1.632-2.073c-0.119-0.119-0.242-0.228-0.363-0.343c-0.036-0.049-0.078-0.088-0.128-0.121
		c-2.693-2.514-5.754-3.965-8.22-4.079C4.531,0.008,4.517,0,4.5,0C4.489,0,4.479,0.006,4.468,0.006
		C3.116-0.041,1.946,0.31,1.132,1.125C0.307,1.949-0.025,3.094,0.022,4.39C0.014,4.427,0,4.461,0,4.5
		c0,0.075,0.019,0.145,0.049,0.209C0.174,6.236,0.794,7.945,1.75,9.592c0.023,0.119,0.083,0.22,0.174,0.293
		c0.604,0.995,1.325,1.956,2.13,2.831c0.043,0.088,0.112,0.157,0.195,0.207c0.104,0.11,0.205,0.224,0.312,0.33
		c0.65,0.65,1.385,1.201,2.159,1.686c0.013,0.007,0.024,0.017,0.038,0.023c4.113,2.556,9.43,2.971,10.526,3.029l5.863,5.863
		C23.244,23.951,23.372,24,23.5,24s0.256-0.049,0.354-0.146C24.049,23.658,24.049,23.342,23.854,23.146z M10,15h4v1.556
		c-1.209-0.232-2.607-0.582-4-1.114V15z M9,15.023C8.984,15.016,8.968,15.007,8.951,15H9V15.023z M10,14v-1.874
		c0.204,0.165,0.423,0.358,0.664,0.596C10.932,12.907,11.213,13,11.5,13c0.827,0,1.5-0.673,1.5-1.5c0-0.321-0.103-0.513-0.223-0.735
		l-0.039-0.073c-0.004-0.008-0.009-0.016-0.014-0.024L12.323,10H14v4H10z M2.541,9C1.741,7.607,1.231,6.22,1.07,5H4v4H2.541z M4,10
		v1.131C3.701,10.759,3.427,10.381,3.168,10H4z M5,5h4v1.061C8.836,6.028,8.671,6,8.5,6C7.122,6,6,7.122,6,8.5
		C6,8.67,6.02,8.837,6.054,9H5V5z M5,1.067c1.22,0.159,2.606,0.67,4,1.471V4H5V1.067z M10,3.164C10.381,3.422,10.758,3.7,11.13,4H10
		V3.164z M15,10h0.449c0.53,1.393,0.879,2.791,1.11,4H15V10z M15,9V8.935C15.01,8.957,15.021,8.978,15.031,9H15z M14,7.092V9h-2.28
		l-1.113-1.846c-0.014-0.023-0.03-0.044-0.047-0.065c-0.154-0.225-0.35-0.407-0.56-0.568V5h2.271c0.093,0.089,0.19,0.169,0.282,0.26
		C13.102,5.81,13.577,6.433,14,7.092z M1.839,1.832C2.363,1.308,3.115,1.053,4,1.018V4H1.023C1.056,3.111,1.314,2.357,1.839,1.832z
		 M5,12.262V10h1.513c0.101,0.132,0.213,0.257,0.341,0.369c0.029,0.036,0.063,0.068,0.102,0.095l0.092,0.064l0.087,0.061
		c0.407,0.287,0.797,0.439,1.174,0.585C8.531,11.261,8.757,11.351,9,11.472V14H7.109c-0.662-0.425-1.288-0.902-1.841-1.455
		C5.175,12.453,5.09,12.356,5,12.262z M15,16.73V15h1.731c0.129,0.833,0.199,1.523,0.234,1.965C16.523,16.93,15.833,16.859,15,16.73
		z"/>
</g>
<g id="Snow_Shoes_2">
</g>
<g id="Sledge">
</g>
<g id="Snow_Boots">
</g>
<g id="Snowcapped_Mountains">
</g>
<g id="Skis">
</g>
<g id="Sky_Glasses">
</g>
<g id="Snowboard">
</g>
<g id="Ice_Skate">
</g>
<g id="Wooden_House">
</g>
<g id="Snowcapped_House">
</g>
<g id="Hot_Drink">
</g>
<g id="Hot_Chocolate">
</g>
<g id="Lantern">
</g>
<g id="Snow_Shovel">
</g>
<g id="Snowman">
</g>
<g id="Reindeer">
</g>
<g id="Snowmobile">
</g>
<g id="Snow_Chain">
</g>
<g id="Slippery_Road">
</g>
</svg>
