<?xml version="1.0" encoding="iso-8859-1"?>
<!-- Generator: Adobe Illustrator 19.2.1, SVG Export Plug-In . SVG Version: 6.00 Build 0)  -->
<svg version="1.1" xmlns="http://www.w3.org/2000/svg" xmlns:xlink="http://www.w3.org/1999/xlink" x="0px" y="0px"
	 viewBox="0 0 24 24" style="enable-background:new 0 0 24 24;" xml:space="preserve">
<g id="Snowflake_1">
</g>
<g id="Snowflake_2">
</g>
<g id="Snowflake_3">
</g>
<g id="Snowflake_4">
</g>
<g id="Winter_Cap_1">
</g>
<g id="Winter_Cap_2">
</g>
<g id="Glowes">
</g>
<g id="Sweater_1">
</g>
<g id="Sweater_2">
</g>
<g id="Sweater_3">
	<g>
		<path d="M12.5,16c-0.787,0-1.511,0.39-1.98,1.009C10.977,17.607,11.691,18,12.5,18c0.81,0,1.523-0.393,1.98-0.991
			C14.01,16.389,13.286,16,12.5,16z"/>
		<path d="M10.661,5.632l1.485-1.485c0.195-0.195,0.512-0.195,0.707,0l1.485,1.485l1.328-2.988
			c-0.652,0.452-1.969,0.987-3.166,1.336c-1.2-0.354-2.519-0.891-3.169-1.339L10.661,5.632z"/>
		<path d="M23.986,17.119L22.544,6.814C22.198,4.069,19.853,2,17.086,2h-0.087c0,0.068-0.012,0.137-0.042,0.203l-2,4.5
			c-0.067,0.15-0.204,0.258-0.366,0.289C14.561,6.997,14.53,7,14.5,7c-0.132,0-0.259-0.052-0.354-0.146L12.5,5.207l-1.646,1.646
			C10.737,6.97,10.57,7.02,10.409,6.992c-0.162-0.03-0.299-0.138-0.366-0.289l-2-4.5C8.014,2.137,8.002,2.068,8.002,2H7.914
			C5.146,2,2.799,4.071,2.458,6.811L1.013,17.124c-0.105,0.806,0.44,1.54,1.24,1.673l1.093,0.183
			c0.802,0.138,1.558-0.387,1.716-1.181L6,13.325V20.5C6,21.327,6.673,22,7.5,22H8v-1.5C8,20.224,8.224,20,8.5,20S9,20.224,9,20.5
			V22h1v-1.5c0-0.276,0.224-0.5,0.5-0.5s0.5,0.224,0.5,0.5V22h1v-1.5c0-0.276,0.224-0.5,0.5-0.5s0.5,0.224,0.5,0.5V22h1v-1.5
			c0-0.276,0.224-0.5,0.5-0.5s0.5,0.224,0.5,0.5V22h1v-1.5c0-0.276,0.224-0.5,0.5-0.5s0.5,0.224,0.5,0.5V22h0.5
			c0.827,0,1.5-0.673,1.5-1.5v-7.176l0.937,4.47c0.159,0.799,0.91,1.32,1.717,1.186l1.093-0.183
			C23.548,18.664,24.093,17.929,23.986,17.119z M16.02,11.278c-0.006,0.008-0.007,0.018-0.013,0.025
			c-0.009,0.012-0.023,0.016-0.034,0.027c-0.266,0.324-0.58,0.609-0.933,0.852l0.072,0.202l0.665-0.332
			c0.247-0.123,0.547-0.024,0.671,0.224c0.123,0.247,0.023,0.547-0.224,0.671l-0.776,0.388l0.341,0.964
			c0.011,0.032,0.02,0.065,0.023,0.099C15.937,14.769,16,15.139,16,15.5c0,0.587-0.159,1.132-0.415,1.618
			c-0.019,0.08-0.06,0.151-0.116,0.213C14.851,18.329,13.756,19,12.5,19c-1.26,0-2.357-0.675-2.973-1.677
			c-0.051-0.059-0.09-0.126-0.109-0.2C9.16,16.635,9,16.089,9,15.5c0-0.361,0.063-0.732,0.188-1.104
			c0.004-0.032,0.012-0.065,0.023-0.098l0.341-0.963l-0.776-0.388c-0.247-0.124-0.347-0.424-0.224-0.671
			c0.124-0.248,0.424-0.347,0.671-0.224l0.665,0.333l0.072-0.202c-0.357-0.245-0.673-0.534-0.941-0.861
			c-0.007-0.008-0.017-0.011-0.024-0.019c-0.004-0.006-0.005-0.013-0.009-0.018C8.36,10.502,8,9.525,8,8.5C8,8.224,8.224,8,8.5,8
			S9,8.224,9,8.5c0,0.613,0.167,1.204,0.467,1.722C9.755,9.901,10,9.492,10,9c0-0.276,0.224-0.5,0.5-0.5S11,8.724,11,9
			c0,0.726-0.324,1.409-0.912,2.01c0.084,0.08,0.172,0.154,0.264,0.226C10.796,10.483,11.612,10,12.5,10
			c0.887,0,1.704,0.483,2.148,1.236c0.092-0.072,0.18-0.146,0.264-0.226C14.324,10.409,14,9.725,14,9c0-0.276,0.224-0.5,0.5-0.5
			S15,8.724,15,9c0,0.492,0.245,0.9,0.533,1.221C15.832,9.704,16,9.113,16,8.5C16,8.224,16.224,8,16.5,8S17,8.224,17,8.5
			C17,9.522,16.643,10.497,16.02,11.278z"/>
		<path d="M14.811,14.534l-0.882-2.494c-0.011-0.02-0.021-0.042-0.028-0.063C13.678,11.383,13.128,11,12.5,11
			c-0.62,0-1.183,0.394-1.4,0.981c-0.009,0.023-0.019,0.045-0.03,0.066l-0.88,2.489c-0.005,0.034-0.013,0.069-0.025,0.103
			C10.054,14.938,10,15.219,10,15.5c0,0.172,0.018,0.341,0.051,0.503C10.698,15.371,11.575,15,12.5,15
			c0.925,0,1.802,0.371,2.449,1.003C14.982,15.841,15,15.672,15,15.5c0-0.281-0.054-0.563-0.163-0.861
			C14.824,14.604,14.815,14.569,14.811,14.534z M11.5,14c-0.276,0-0.5-0.224-0.5-0.5c0-0.276,0.224-0.5,0.5-0.5s0.5,0.224,0.5,0.5
			C12,13.776,11.776,14,11.5,14z M13.5,14c-0.276,0-0.5-0.224-0.5-0.5c0-0.276,0.224-0.5,0.5-0.5s0.5,0.224,0.5,0.5
			C14,13.776,13.776,14,13.5,14z"/>
	</g>
</g>
<g id="Scarf">
</g>
<g id="Winter_Socks">
</g>
<g id="Winter_Sock">
</g>
<g id="Winter_Coat">
</g>
<g id="Winter_Calendar">
</g>
<g id="Thermometer_1">
</g>
<g id="Thermometer_2">
</g>
<g id="Cold">
</g>
<g id="Icicle">
</g>
<g id="Snowing">
</g>
<g id="Snow_Shoes_1">
</g>
<g id="Snow_Shoes_2">
</g>
<g id="Sledge">
</g>
<g id="Snow_Boots">
</g>
<g id="Snowcapped_Mountains">
</g>
<g id="Skis">
</g>
<g id="Sky_Glasses">
</g>
<g id="Snowboard">
</g>
<g id="Ice_Skate">
</g>
<g id="Wooden_House">
</g>
<g id="Snowcapped_House">
</g>
<g id="Hot_Drink">
</g>
<g id="Hot_Chocolate">
</g>
<g id="Lantern">
</g>
<g id="Snow_Shovel">
</g>
<g id="Snowman">
</g>
<g id="Reindeer">
</g>
<g id="Snowmobile">
</g>
<g id="Snow_Chain">
</g>
<g id="Slippery_Road">
</g>
</svg>
