<?xml version="1.0" encoding="iso-8859-1"?>
<!-- Generator: Adobe Illustrator 19.2.1, SVG Export Plug-In . SVG Version: 6.00 Build 0)  -->
<svg version="1.1" xmlns="http://www.w3.org/2000/svg" xmlns:xlink="http://www.w3.org/1999/xlink" x="0px" y="0px"
	 viewBox="0 0 24 24" style="enable-background:new 0 0 24 24;" xml:space="preserve">
<g id="Snowflake_1">
</g>
<g id="Snowflake_2">
</g>
<g id="Snowflake_3">
</g>
<g id="Snowflake_4">
</g>
<g id="Winter_Cap_1">
</g>
<g id="Winter_Cap_2">
</g>
<g id="Glowes">
</g>
<g id="Sweater_1">
</g>
<g id="Sweater_2">
	<g>
		<path d="M1.013,17.124c-0.105,0.806,0.44,1.54,1.24,1.673l1.093,0.183c0.802,0.138,1.558-0.387,1.716-1.181l0.136-0.649
			l-4.075-0.815L1.013,17.124z"/>
		<path d="M23.986,17.119l-0.11-0.785l-4.075,0.815l0.135,0.644c0.159,0.799,0.91,1.32,1.717,1.186l1.093-0.183
			C23.548,18.664,24.093,17.929,23.986,17.119z"/>
		<path d="M22.544,6.814C22.198,4.069,19.853,2,17.086,2H16.5C16.224,2,16,2.224,16,2.5C16,3.208,14.503,4,12.5,4
			C10.497,4,9,3.208,9,2.5C9,2.224,8.776,2,8.5,2H7.914C5.146,2,2.799,4.071,2.458,6.811l-1.195,8.532l4.141,0.828L6,13.325V18h13
			v-4.676l0.596,2.847l4.141-0.828L22.544,6.814z M16.112,9.509c0.269,0.063,0.437,0.331,0.374,0.6
			c-0.054,0.231-0.26,0.387-0.487,0.387c-0.037,0-0.075-0.004-0.113-0.013l-1.18-0.273L13.443,11l1.264,0.79l1.179-0.273
			c0.273-0.063,0.538,0.106,0.601,0.375c0.063,0.269-0.105,0.538-0.374,0.6l-0.207,0.048l0.859,0.537
			c0.234,0.146,0.306,0.455,0.159,0.688C16.829,13.917,16.666,14,16.5,14c-0.091,0-0.183-0.024-0.265-0.076l-0.853-0.533
			l0.046,0.196c0.063,0.27-0.105,0.538-0.374,0.601c-0.038,0.009-0.076,0.013-0.113,0.013c-0.228,0-0.434-0.156-0.487-0.387
			l-0.272-1.174L13,11.902v1.391l0.854,0.854c0.195,0.195,0.195,0.512,0,0.707C13.756,14.951,13.628,15,13.5,15
			s-0.256-0.049-0.354-0.146L13,14.707V15.5c0,0.276-0.224,0.5-0.5,0.5S12,15.776,12,15.5v-0.793l-0.146,0.146
			c-0.195,0.195-0.512,0.195-0.707,0s-0.195-0.512,0-0.707L12,13.293v-1.391l-1.181,0.738l-0.272,1.173
			c-0.054,0.23-0.259,0.387-0.487,0.387c-0.038,0-0.075-0.004-0.113-0.013c-0.269-0.063-0.437-0.331-0.375-0.601l0.046-0.196
			l-0.853,0.533C8.683,13.976,8.591,14,8.5,14c-0.167,0-0.33-0.083-0.424-0.235c-0.146-0.233-0.075-0.542,0.159-0.688l0.86-0.537
			l-0.206-0.048c-0.269-0.063-0.437-0.331-0.375-0.6c0.063-0.269,0.331-0.434,0.6-0.375l1.179,0.273L11.557,11l-1.263-0.79
			l-1.18,0.273C9.076,10.493,9.038,10.497,9,10.497c-0.228,0-0.433-0.156-0.487-0.387c-0.062-0.269,0.105-0.538,0.375-0.6
			l0.207-0.048l-0.86-0.538C8.001,8.778,7.93,8.469,8.076,8.235C8.222,8,8.531,7.93,8.765,8.076l0.853,0.533L9.572,8.412
			c-0.062-0.269,0.105-0.538,0.375-0.6c0.269-0.06,0.538,0.105,0.6,0.375l0.272,1.173L12,10.098V8.707l-0.854-0.854
			c-0.195-0.195-0.195-0.512,0-0.707s0.512-0.195,0.707,0L12,7.293V6.5C12,6.224,12.224,6,12.5,6S13,6.224,13,6.5v0.793l0.146-0.146
			c0.195-0.195,0.512-0.195,0.707,0s0.195,0.512,0,0.707L13,8.707v1.391l1.181-0.738l0.272-1.173
			c0.063-0.268,0.331-0.438,0.601-0.375c0.269,0.063,0.437,0.331,0.374,0.6L15.382,8.61l0.854-0.533
			C16.468,7.93,16.777,8,16.924,8.235c0.146,0.234,0.075,0.543-0.159,0.689l-0.86,0.537L16.112,9.509z"/>
		<path d="M6,20.5C6,21.328,6.672,22,7.5,22h10c0.828,0,1.5-0.672,1.5-1.5v-1.499H6V20.5z"/>
	</g>
</g>
<g id="Sweater_3">
</g>
<g id="Scarf">
</g>
<g id="Winter_Socks">
</g>
<g id="Winter_Sock">
</g>
<g id="Winter_Coat">
</g>
<g id="Winter_Calendar">
</g>
<g id="Thermometer_1">
</g>
<g id="Thermometer_2">
</g>
<g id="Cold">
</g>
<g id="Icicle">
</g>
<g id="Snowing">
</g>
<g id="Snow_Shoes_1">
</g>
<g id="Snow_Shoes_2">
</g>
<g id="Sledge">
</g>
<g id="Snow_Boots">
</g>
<g id="Snowcapped_Mountains">
</g>
<g id="Skis">
</g>
<g id="Sky_Glasses">
</g>
<g id="Snowboard">
</g>
<g id="Ice_Skate">
</g>
<g id="Wooden_House">
</g>
<g id="Snowcapped_House">
</g>
<g id="Hot_Drink">
</g>
<g id="Hot_Chocolate">
</g>
<g id="Lantern">
</g>
<g id="Snow_Shovel">
</g>
<g id="Snowman">
</g>
<g id="Reindeer">
</g>
<g id="Snowmobile">
</g>
<g id="Snow_Chain">
</g>
<g id="Slippery_Road">
</g>
</svg>
