<?xml version="1.0" encoding="iso-8859-1"?>
<!-- Generator: Adobe Illustrator 19.2.1, SVG Export Plug-In . SVG Version: 6.00 Build 0)  -->
<svg version="1.1" xmlns="http://www.w3.org/2000/svg" xmlns:xlink="http://www.w3.org/1999/xlink" x="0px" y="0px"
	 viewBox="0 0 24 24" style="enable-background:new 0 0 24 24;" xml:space="preserve">
<g id="Snowflake_1">
</g>
<g id="Snowflake_2">
</g>
<g id="Snowflake_3">
</g>
<g id="Snowflake_4">
</g>
<g id="Winter_Cap_1">
</g>
<g id="Winter_Cap_2">
</g>
<g id="Glowes">
</g>
<g id="Sweater_1">
	<g>
		<path d="M6,20.5C6,21.327,6.673,22,7.5,22H8v-1.5C8,20.224,8.224,20,8.5,20S9,20.224,9,20.5V22h1v-1.5c0-0.276,0.224-0.5,0.5-0.5
			s0.5,0.224,0.5,0.5V22h1v-1.5c0-0.276,0.224-0.5,0.5-0.5s0.5,0.224,0.5,0.5V22h1v-1.5c0-0.276,0.224-0.5,0.5-0.5
			s0.5,0.224,0.5,0.5V22h1v-1.5c0-0.276,0.224-0.5,0.5-0.5s0.5,0.224,0.5,0.5V22h0.5c0.827,0,1.5-0.673,1.5-1.5V19H6V20.5z"/>
		<path d="M1.013,17.124c-0.105,0.806,0.44,1.54,1.24,1.673l1.093,0.183c0.802,0.138,1.558-0.387,1.716-1.181l0.136-0.649
			l-4.075-0.815L1.013,17.124z"/>
		<path d="M23.986,17.119l-0.11-0.785l-4.075,0.815l0.135,0.644c0.159,0.799,0.91,1.32,1.717,1.186l1.093-0.183
			C23.548,18.664,24.093,17.929,23.986,17.119z"/>
		<path d="M22.544,6.814C22.198,4.069,19.853,2,17.086,2H16.5C16.224,2,16,2.224,16,2.5C16,3.208,14.503,4,12.5,4
			C10.497,4,9,3.208,9,2.5C9,2.224,8.776,2,8.5,2H7.914C5.146,2,2.799,4.071,2.458,6.811l-1.195,8.532l4.141,0.828L6,13.325V18h13
			v-4.676l0.596,2.847l4.141-0.828L22.544,6.814z"/>
	</g>
</g>
<g id="Sweater_2">
</g>
<g id="Sweater_3">
</g>
<g id="Scarf">
</g>
<g id="Winter_Socks">
</g>
<g id="Winter_Sock">
</g>
<g id="Winter_Coat">
</g>
<g id="Winter_Calendar">
</g>
<g id="Thermometer_1">
</g>
<g id="Thermometer_2">
</g>
<g id="Cold">
</g>
<g id="Icicle">
</g>
<g id="Snowing">
</g>
<g id="Snow_Shoes_1">
</g>
<g id="Snow_Shoes_2">
</g>
<g id="Sledge">
</g>
<g id="Snow_Boots">
</g>
<g id="Snowcapped_Mountains">
</g>
<g id="Skis">
</g>
<g id="Sky_Glasses">
</g>
<g id="Snowboard">
</g>
<g id="Ice_Skate">
</g>
<g id="Wooden_House">
</g>
<g id="Snowcapped_House">
</g>
<g id="Hot_Drink">
</g>
<g id="Hot_Chocolate">
</g>
<g id="Lantern">
</g>
<g id="Snow_Shovel">
</g>
<g id="Snowman">
</g>
<g id="Reindeer">
</g>
<g id="Snowmobile">
</g>
<g id="Snow_Chain">
</g>
<g id="Slippery_Road">
</g>
</svg>
