<?xml version="1.0" encoding="iso-8859-1"?>
<!-- Generator: Adobe Illustrator 19.2.1, SVG Export Plug-In . SVG Version: 6.00 Build 0)  -->
<svg version="1.1" xmlns="http://www.w3.org/2000/svg" xmlns:xlink="http://www.w3.org/1999/xlink" x="0px" y="0px"
	 viewBox="0 0 24 24" style="enable-background:new 0 0 24 24;" xml:space="preserve">
<g id="Snowflake_1">
</g>
<g id="Snowflake_2">
</g>
<g id="Snowflake_3">
</g>
<g id="Snowflake_4">
</g>
<g id="Winter_Cap_1">
</g>
<g id="Winter_Cap_2">
</g>
<g id="Glowes">
</g>
<g id="Sweater_1">
</g>
<g id="Sweater_2">
</g>
<g id="Sweater_3">
</g>
<g id="Scarf">
</g>
<g id="Winter_Socks">
</g>
<g id="Winter_Sock">
</g>
<g id="Winter_Coat">
</g>
<g id="Winter_Calendar">
</g>
<g id="Thermometer_1">
	<path d="M15.5,9H18V6h-2.5C15.224,6,15,5.776,15,5.5S15.224,5,15.5,5h2.475c-0.254-2.799-2.611-5-5.475-5C9.467,0,7,2.467,7,5.5v13
		c0,3.032,2.467,5.5,5.5,5.5c3.032,0,5.5-2.468,5.5-5.5V14h-2.5c-0.276,0-0.5-0.224-0.5-0.5s0.224-0.5,0.5-0.5H18v-3h-2.5
		C15.224,10,15,9.776,15,9.5S15.224,9,15.5,9z M12.5,2C13.327,2,14,2.673,14,3.5V13h-3V3.5C11,2.673,11.673,2,12.5,2z M16,18.5
		c0,1.041-0.459,2.021-1.259,2.688c-0.634,0.528-1.428,0.811-2.248,0.811c-0.215,0-0.431-0.02-0.647-0.059
		c-1.393-0.254-2.51-1.357-2.779-2.746c-0.292-1.505,0.373-2.965,1.695-3.721C10.909,15.391,11,15.23,11,15.056V14h3v1.055
		c0,0.177,0.095,0.337,0.254,0.429C15.331,16.107,16,17.264,16,18.5z"/>
</g>
<g id="Thermometer_2">
</g>
<g id="Cold">
</g>
<g id="Icicle">
</g>
<g id="Snowing">
</g>
<g id="Snow_Shoes_1">
</g>
<g id="Snow_Shoes_2">
</g>
<g id="Sledge">
</g>
<g id="Snow_Boots">
</g>
<g id="Snowcapped_Mountains">
</g>
<g id="Skis">
</g>
<g id="Sky_Glasses">
</g>
<g id="Snowboard">
</g>
<g id="Ice_Skate">
</g>
<g id="Wooden_House">
</g>
<g id="Snowcapped_House">
</g>
<g id="Hot_Drink">
</g>
<g id="Hot_Chocolate">
</g>
<g id="Lantern">
</g>
<g id="Snow_Shovel">
</g>
<g id="Snowman">
</g>
<g id="Reindeer">
</g>
<g id="Snowmobile">
</g>
<g id="Snow_Chain">
</g>
<g id="Slippery_Road">
</g>
</svg>
