<?xml version="1.0" encoding="iso-8859-1"?>
<!-- Generator: Adobe Illustrator 19.2.1, SVG Export Plug-In . SVG Version: 6.00 Build 0)  -->
<svg version="1.1" xmlns="http://www.w3.org/2000/svg" xmlns:xlink="http://www.w3.org/1999/xlink" x="0px" y="0px"
	 viewBox="0 0 24 24" style="enable-background:new 0 0 24 24;" xml:space="preserve">
<g id="Snowflake_1">
</g>
<g id="Snowflake_2">
</g>
<g id="Snowflake_3">
</g>
<g id="Snowflake_4">
</g>
<g id="Winter_Cap_1">
</g>
<g id="Winter_Cap_2">
</g>
<g id="Glowes">
</g>
<g id="Sweater_1">
</g>
<g id="Sweater_2">
</g>
<g id="Sweater_3">
</g>
<g id="Scarf">
</g>
<g id="Winter_Socks">
</g>
<g id="Winter_Sock">
</g>
<g id="Winter_Coat">
</g>
<g id="Winter_Calendar">
</g>
<g id="Thermometer_1">
</g>
<g id="Thermometer_2">
	<path d="M14.297,15.39C14.116,15.311,14,15.134,14,14.938V14h1.5c0.276,0,0.5-0.224,0.5-0.5S15.776,13,15.5,13H14V9h1.5
		C15.776,9,16,8.776,16,8.5S15.776,8,15.5,8H14V4h1.5C15.776,4,16,3.776,16,3.5S15.776,3,15.5,3H14V1.5C14,0.673,13.327,0,12.5,0
		S11,0.673,11,1.5v13.438c0,0.195-0.117,0.372-0.297,0.451c-2.018,0.879-3.079,3.006-2.581,5.172
		c0.376,1.637,1.676,2.938,3.312,3.315c0.354,0.082,0.709,0.122,1.061,0.122c1.017,0,2.001-0.336,2.805-0.975
		C16.38,22.164,17,20.88,17,19.5C17,17.718,15.938,16.104,14.297,15.39z M12.5,1C12.776,1,13,1.224,13,1.5V13h-1V1.5
		C12,1.224,12.224,1,12.5,1z"/>
</g>
<g id="Cold">
</g>
<g id="Icicle">
</g>
<g id="Snowing">
</g>
<g id="Snow_Shoes_1">
</g>
<g id="Snow_Shoes_2">
</g>
<g id="Sledge">
</g>
<g id="Snow_Boots">
</g>
<g id="Snowcapped_Mountains">
</g>
<g id="Skis">
</g>
<g id="Sky_Glasses">
</g>
<g id="Snowboard">
</g>
<g id="Ice_Skate">
</g>
<g id="Wooden_House">
</g>
<g id="Snowcapped_House">
</g>
<g id="Hot_Drink">
</g>
<g id="Hot_Chocolate">
</g>
<g id="Lantern">
</g>
<g id="Snow_Shovel">
</g>
<g id="Snowman">
</g>
<g id="Reindeer">
</g>
<g id="Snowmobile">
</g>
<g id="Snow_Chain">
</g>
<g id="Slippery_Road">
</g>
</svg>
