<?xml version="1.0" encoding="iso-8859-1"?>
<!-- Generator: Adobe Illustrator 19.2.1, SVG Export Plug-In . SVG Version: 6.00 Build 0)  -->
<svg version="1.1" xmlns="http://www.w3.org/2000/svg" xmlns:xlink="http://www.w3.org/1999/xlink" x="0px" y="0px"
	 viewBox="0 0 24 24" style="enable-background:new 0 0 24 24;" xml:space="preserve">
<g id="Snowflake_1">
</g>
<g id="Snowflake_2">
</g>
<g id="Snowflake_3">
</g>
<g id="Snowflake_4">
</g>
<g id="Winter_Cap_1">
</g>
<g id="Winter_Cap_2">
	<path d="M21.477,15.851C20.889,14.075,20,11.392,20,8c0-4.403-3.576-7.987-7.977-8c-0.005,0-0.01,0-0.015,0s-0.01-0.001-0.015,0
		c-4.4,0.013-7.977,3.597-7.977,8c0,3.347-0.885,6.033-1.471,7.811c-0.484,1.469-0.75,2.277-0.362,2.814
		C2.307,18.793,2.549,18.992,3,18.998V22c-0.276,0-0.5,0.224-0.5,0.5S2.724,23,3,23v0.5C3,23.776,3.224,24,3.5,24S4,23.776,4,23.5
		V23c0.276,0,0.5-0.224,0.5-0.5S4.276,22,4,22v-3.235C5.907,17.828,6.708,14.3,6.941,13h10.134c0.234,1.296,1.03,4.809,2.924,5.759
		V22c-0.276,0-0.5,0.224-0.5,0.5S19.724,23,20,23v0.5c0,0.276,0.224,0.5,0.5,0.5s0.5-0.224,0.5-0.5V23c0.276,0,0.5-0.224,0.5-0.5
		S21.276,22,21,22v-3c0.466,0,0.711-0.204,0.834-0.375C22.219,18.093,21.955,17.296,21.477,15.851z M18,11.5
		c0,0.276-0.225,0.5-0.5,0.5h-11C6.224,12,6,11.776,6,11.5v-2C6,9.224,6.224,9,6.5,9h11C17.775,9,18,9.224,18,9.5V11.5z"/>
</g>
<g id="Glowes">
</g>
<g id="Sweater_1">
</g>
<g id="Sweater_2">
</g>
<g id="Sweater_3">
</g>
<g id="Scarf">
</g>
<g id="Winter_Socks">
</g>
<g id="Winter_Sock">
</g>
<g id="Winter_Coat">
</g>
<g id="Winter_Calendar">
</g>
<g id="Thermometer_1">
</g>
<g id="Thermometer_2">
</g>
<g id="Cold">
</g>
<g id="Icicle">
</g>
<g id="Snowing">
</g>
<g id="Snow_Shoes_1">
</g>
<g id="Snow_Shoes_2">
</g>
<g id="Sledge">
</g>
<g id="Snow_Boots">
</g>
<g id="Snowcapped_Mountains">
</g>
<g id="Skis">
</g>
<g id="Sky_Glasses">
</g>
<g id="Snowboard">
</g>
<g id="Ice_Skate">
</g>
<g id="Wooden_House">
</g>
<g id="Snowcapped_House">
</g>
<g id="Hot_Drink">
</g>
<g id="Hot_Chocolate">
</g>
<g id="Lantern">
</g>
<g id="Snow_Shovel">
</g>
<g id="Snowman">
</g>
<g id="Reindeer">
</g>
<g id="Snowmobile">
</g>
<g id="Snow_Chain">
</g>
<g id="Slippery_Road">
</g>
</svg>
