<?xml version="1.0" encoding="iso-8859-1"?>
<!-- Generator: Adobe Illustrator 19.2.1, SVG Export Plug-In . SVG Version: 6.00 Build 0)  -->
<svg version="1.1" xmlns="http://www.w3.org/2000/svg" xmlns:xlink="http://www.w3.org/1999/xlink" x="0px" y="0px"
	 viewBox="0 0 24 24" style="enable-background:new 0 0 24 24;" xml:space="preserve">
<g id="Snowflake_1">
</g>
<g id="Snowflake_2">
</g>
<g id="Snowflake_3">
</g>
<g id="Snowflake_4">
</g>
<g id="Winter_Cap_1">
</g>
<g id="Winter_Cap_2">
</g>
<g id="Glowes">
</g>
<g id="Sweater_1">
</g>
<g id="Sweater_2">
</g>
<g id="Sweater_3">
</g>
<g id="Scarf">
</g>
<g id="Winter_Socks">
	<g>
		<path d="M12,4.5C12,3.673,11.327,3,10.5,3h-6C3.673,3,3,3.673,3,4.5v2C3,7.327,3.673,8,4.5,8h6C11.327,8,12,7.327,12,6.5V4.5z"/>
		<path d="M8,14.5c0,0.87,0.448,1.636,1.124,2.084l0.851-0.851C10.626,15.081,11,14.18,11,13.258v-1.207
			C10.838,12.018,10.671,12,10.5,12C9.122,12,8,13.121,8,14.5z"/>
		<path d="M4,12.086c0,0.131-0.053,0.26-0.146,0.354l-2.677,2.678c2.367,0.472,4.235,2.34,4.707,4.707l2.531-2.531
			C7.561,16.654,7,15.645,7,14.5c0-1.93,1.57-3.5,3.5-3.5c0.171,0,0.335,0.027,0.5,0.051V9H4V12.086z"/>
		<path d="M0.44,16.044C0.162,16.537,0,17.09,0,17.672C0,19.507,1.493,21,3.329,21c0.581,0,1.134-0.162,1.627-0.44
			C4.742,18.159,2.841,16.258,0.44,16.044z"/>
		<path d="M22.5,3h-6C15.673,3,15,3.673,15,4.5v2C15,7.327,15.673,8,16.5,8h6C23.327,8,24,7.327,24,6.5v-2C24,3.673,23.327,3,22.5,3
			z"/>
		<path d="M20,14.5c0,0.87,0.448,1.636,1.124,2.084l0.851-0.851C22.626,15.081,23,14.18,23,13.258v-1.207
			C22.838,12.018,22.671,12,22.5,12C21.122,12,20,13.121,20,14.5z"/>
		<path d="M16,12.086c0,0.131-0.053,0.26-0.146,0.354l-2.677,2.678c2.367,0.472,4.235,2.34,4.707,4.707l2.531-2.531
			C19.561,16.654,19,15.645,19,14.5c0-1.93,1.57-3.5,3.5-3.5c0.171,0,0.335,0.027,0.5,0.051V9h-7V12.086z"/>
		<path d="M12.44,16.044C12.162,16.537,12,17.09,12,17.672C12,19.507,13.493,21,15.329,21c0.581,0,1.134-0.162,1.627-0.44
			C16.742,18.159,14.841,16.258,12.44,16.044z"/>
	</g>
</g>
<g id="Winter_Sock">
</g>
<g id="Winter_Coat">
</g>
<g id="Winter_Calendar">
</g>
<g id="Thermometer_1">
</g>
<g id="Thermometer_2">
</g>
<g id="Cold">
</g>
<g id="Icicle">
</g>
<g id="Snowing">
</g>
<g id="Snow_Shoes_1">
</g>
<g id="Snow_Shoes_2">
</g>
<g id="Sledge">
</g>
<g id="Snow_Boots">
</g>
<g id="Snowcapped_Mountains">
</g>
<g id="Skis">
</g>
<g id="Sky_Glasses">
</g>
<g id="Snowboard">
</g>
<g id="Ice_Skate">
</g>
<g id="Wooden_House">
</g>
<g id="Snowcapped_House">
</g>
<g id="Hot_Drink">
</g>
<g id="Hot_Chocolate">
</g>
<g id="Lantern">
</g>
<g id="Snow_Shovel">
</g>
<g id="Snowman">
</g>
<g id="Reindeer">
</g>
<g id="Snowmobile">
</g>
<g id="Snow_Chain">
</g>
<g id="Slippery_Road">
</g>
</svg>
