<?xml version="1.0" encoding="iso-8859-1"?>
<!-- Generator: Adobe Illustrator 19.2.1, SVG Export Plug-In . SVG Version: 6.00 Build 0)  -->
<svg version="1.1" id="Layer_1" xmlns="http://www.w3.org/2000/svg" xmlns:xlink="http://www.w3.org/1999/xlink" x="0px" y="0px"
	 viewBox="0 0 30 30" style="enable-background:new 0 0 30 30;" xml:space="preserve">
<g>
	<g>
		<path d="M28.5,26.5c-0.827,0-1.5,0.673-1.5,1.5c0,0.827,0.673,1.5,1.5,1.5c0.827,0,1.5-0.673,1.5-1.5
			C30,27.173,29.327,26.5,28.5,26.5z M28.5,28.5c-0.275,0-0.5-0.224-0.5-0.5s0.225-0.5,0.5-0.5c0.275,0,0.5,0.224,0.5,0.5
			S28.775,28.5,28.5,28.5z M1.5,21.5C0.673,21.5,0,22.173,0,23c0,0.827,0.673,1.5,1.5,1.5C2.327,24.5,3,23.827,3,23
			C3,22.173,2.327,21.5,1.5,21.5z M1.5,23.5C1.225,23.5,1,23.276,1,23s0.225-0.5,0.5-0.5C1.775,22.5,2,22.724,2,23
			S1.775,23.5,1.5,23.5z M24.5,21.5c-1.379,0-2.5,1.122-2.5,2.5s1.121,2.5,2.5,2.5c1.379,0,2.5-1.122,2.5-2.5S25.879,21.5,24.5,21.5
			z M24.5,25.5c-0.827,0-1.5-0.673-1.5-1.5c0-0.827,0.673-1.5,1.5-1.5c0.827,0,1.5,0.673,1.5,1.5C26,24.827,25.327,25.5,24.5,25.5z
			 M5.5,16.5C4.121,16.5,3,17.622,3,19s1.121,2.5,2.5,2.5C6.879,21.5,8,20.378,8,19S6.879,16.5,5.5,16.5z M5.5,20.5
			C4.673,20.5,4,19.827,4,19c0-0.827,0.673-1.5,1.5-1.5C6.327,17.5,7,18.173,7,19C7,19.827,6.327,20.5,5.5,20.5z M23.999,19.499
			c3.309,0,6-2.691,6-6c0-3.087-2.409-5.711-5.483-5.974c-0.267-0.027-0.518,0.181-0.541,0.456
			c-0.024,0.275,0.181,0.518,0.455,0.541c2.562,0.219,4.569,2.406,4.569,4.978c0,2.757-2.243,5-5,5
			c-0.554,0-1.108-0.096-1.647-0.284c-0.229-0.081-0.487,0.018-0.604,0.232C21.396,19.097,20.726,19.5,20,19.5
			c-0.966,0-1.792-0.691-1.963-1.644c-0.029-0.165-0.14-0.305-0.294-0.371s-0.33-0.052-0.472,0.04
			C16.294,18.163,15.163,18.5,14,18.5c-1.674,0-3.23-0.678-4.38-1.909c-0.188-0.202-0.505-0.214-0.707-0.024
			c-0.201,0.189-0.211,0.505-0.023,0.707C10.231,18.709,12.046,19.5,14,19.5c1.139,0,2.251-0.276,3.253-0.804
			C17.718,19.772,18.785,20.5,20,20.5c0.952,0,1.841-0.459,2.401-1.222C22.926,19.425,23.462,19.499,23.999,19.499z M12.747,13.696
			C13.749,14.224,14.861,14.5,16,14.5c3.859,0,7-3.14,7-7s-3.141-7-7-7c-2.503,0-4.809,1.35-6.051,3.491
			C8.859,3.036,7.455,2.5,6,2.5c-3.309,0-6,2.691-6,6s2.691,6,6,6c0.537,0,1.073-0.074,1.598-0.221C8.159,15.041,9.048,15.5,10,15.5
			C11.215,15.5,12.282,14.772,12.747,13.696z M8.252,13.448c-0.089-0.165-0.26-0.261-0.439-0.261c-0.055,0-0.112,0.01-0.166,0.029
			C7.108,13.404,6.555,13.5,6,13.5c-2.757,0-5-2.243-5-5s2.243-5,5-5c1.408,0,2.761,0.604,3.711,1.658
			c0.113,0.125,0.275,0.183,0.448,0.159c0.166-0.026,0.309-0.135,0.378-0.288C11.509,2.885,13.652,1.5,16,1.5c3.309,0,6,2.691,6,6
			s-2.691,6-6,6c-1.163,0-2.293-0.337-3.271-0.975c-0.141-0.091-0.317-0.106-0.472-0.04c-0.154,0.067-0.265,0.206-0.294,0.371
			C11.792,13.809,10.966,14.5,10,14.5C9.274,14.5,8.605,14.097,8.252,13.448z"/>
	</g>
</g>
</svg>
