<?xml version="1.0" encoding="iso-8859-1"?>
<!-- Generator: Adobe Illustrator 19.2.1, SVG Export Plug-In . SVG Version: 6.00 Build 0)  -->
<svg version="1.1" id="Layer_1" xmlns="http://www.w3.org/2000/svg" xmlns:xlink="http://www.w3.org/1999/xlink" x="0px" y="0px"
	 viewBox="0 0 30 30" style="enable-background:new 0 0 30 30;" xml:space="preserve">
<g>
	<g>
		<path d="M24.456,0H5.544C2.487,0,0,2.486,0,5.543V29.5c0,0.202,0.122,0.385,0.309,0.462C0.372,29.988,0.437,30,0.5,30
			c0.13,0,0.258-0.051,0.352-0.147l6.854-6.854h16.75c3.056,0,5.543-2.486,5.543-5.543V5.543C30,2.487,27.513,0,24.456,0z
			 M29,17.457C29,19.962,26.963,22,24.458,22H7.5c-0.133,0-0.26,0.053-0.354,0.147L1,28.293V5.543C1,3.038,3.039,1,5.544,1v0.001
			h18.914C26.963,1.001,29,3.039,29,5.544V17.457z"/>
	</g>
</g>
</svg>
