<?xml version="1.0" encoding="iso-8859-1"?>
<!-- Generator: Adobe Illustrator 19.2.1, SVG Export Plug-In . SVG Version: 6.00 Build 0)  -->
<svg version="1.1" xmlns="http://www.w3.org/2000/svg" xmlns:xlink="http://www.w3.org/1999/xlink" x="0px" y="0px"
	 viewBox="0 0 24 24" style="enable-background:new 0 0 24 24;" xml:space="preserve">
<g id="Retro_Bot_1">
</g>
<g id="Retro_Bot_2">
</g>
<g id="Retro_Bot_3">
</g>
<g id="Retro_Bot_4">
</g>
<g id="Wall-E">
</g>
<g id="Eva">
</g>
<g id="Iron_Giant">
</g>
<g id="Marvin">
</g>
<g id="Atlas">
</g>
<g id="Claptrap">
</g>
<g id="Android">
	<g>
		<path d="M16.5,9.001h-10c-0.276,0-0.5,0.224-0.5,0.5v8c0,1.208,0.86,2.217,2,2.45v2.55c0,0.827,0.673,1.5,1.5,1.5
			s1.5-0.673,1.5-1.5v-2.5h1v2.5c0,0.827,0.673,1.5,1.5,1.5s1.5-0.673,1.5-1.5v-2.55c1.14-0.232,2-1.242,2-2.45v-8
			C17,9.224,16.776,9.001,16.5,9.001z"/>
		<path d="M14.117,2.664l0.843-1.967c0.109-0.254-0.009-0.547-0.263-0.656c-0.251-0.11-0.548,0.008-0.656,0.263l-0.843,1.968
			c-0.535-0.174-1.105-0.271-1.697-0.271s-1.162,0.097-1.697,0.271L8.959,0.304C8.851,0.049,8.554-0.07,8.303,0.041
			C8.049,0.15,7.932,0.444,8.041,0.697l0.843,1.967C7.167,3.596,6,5.415,6,7.501c0,0.276,0.224,0.5,0.5,0.5h10
			c0.276,0,0.5-0.224,0.5-0.5C17,5.415,15.833,3.596,14.117,2.664z M9.5,6.001c-0.276,0-0.5-0.224-0.5-0.5
			c0-0.276,0.224-0.5,0.5-0.5s0.5,0.224,0.5,0.5C10,5.777,9.776,6.001,9.5,6.001z M13.5,6.001c-0.276,0-0.5-0.224-0.5-0.5
			c0-0.276,0.224-0.5,0.5-0.5s0.5,0.224,0.5,0.5C14,5.777,13.776,6.001,13.5,6.001z"/>
		<path d="M19.5,9.001c-0.827,0-1.5,0.673-1.5,1.5v5c0,0.827,0.673,1.5,1.5,1.5s1.5-0.673,1.5-1.5v-5
			C21,9.674,20.327,9.001,19.5,9.001z"/>
		<path d="M3.5,9.001c-0.827,0-1.5,0.673-1.5,1.5v5c0,0.827,0.673,1.5,1.5,1.5s1.5-0.673,1.5-1.5v-5C5,9.674,4.327,9.001,3.5,9.001z
			"/>
	</g>
</g>
<g id="Bender">
</g>
<g id="Roberto">
</g>
<g id="Robot_Devil">
</g>
<g id="Robocop">
</g>
<g id="ED_209">
</g>
<g id="Optimus_Prime">
</g>
<g id="Robot_1">
</g>
<g id="Robot_2">
</g>
<g id="Robot_3">
</g>
<g id="Robot_Arm_1">
</g>
<g id="Robot_Arm_2">
</g>
<g id="Robot_Arm_3">
</g>
<g id="Robot_Arm_4">
</g>
<g id="Robot_Arm_5">
</g>
<g id="K5_Robot">
</g>
<g id="Robot_Machine_1">
</g>
<g id="Robot_Machine_2">
</g>
<g id="Artifical_Intelligence_1">
</g>
<g id="Artifical_Intelligence_2">
</g>
<g id="Robot_4">
</g>
<g id="Robot_5">
</g>
<g id="Robot_6">
</g>
<g id="Robot_7">
</g>
<g id="Robot_8">
</g>
<g id="Robot_9">
</g>
<g id="Robot_10">
</g>
<g id="Robot_11">
</g>
<g id="Robot_12">
</g>
<g id="Robot_13">
</g>
</svg>
