<?xml version="1.0" encoding="iso-8859-1"?>
<!-- Generator: Adobe Illustrator 19.2.1, SVG Export Plug-In . SVG Version: 6.00 Build 0)  -->
<svg version="1.1" xmlns="http://www.w3.org/2000/svg" xmlns:xlink="http://www.w3.org/1999/xlink" x="0px" y="0px"
	 viewBox="0 0 24 24" style="enable-background:new 0 0 24 24;" xml:space="preserve">
<g id="Retro_Bot_1">
</g>
<g id="Retro_Bot_2">
</g>
<g id="Retro_Bot_3">
</g>
<g id="Retro_Bot_4">
</g>
<g id="Wall-E">
</g>
<g id="Eva">
</g>
<g id="Iron_Giant">
</g>
<g id="Marvin">
</g>
<g id="Atlas">
</g>
<g id="Claptrap">
</g>
<g id="Android">
</g>
<g id="Bender">
</g>
<g id="Roberto">
</g>
<g id="Robot_Devil">
</g>
<g id="Robocop">
</g>
<g id="ED_209">
</g>
<g id="Optimus_Prime">
</g>
<g id="Robot_1">
</g>
<g id="Robot_2">
</g>
<g id="Robot_3">
</g>
<g id="Robot_Arm_1">
</g>
<g id="Robot_Arm_2">
</g>
<g id="Robot_Arm_3">
</g>
<g id="Robot_Arm_4">
</g>
<g id="Robot_Arm_5">
</g>
<g id="K5_Robot">
</g>
<g id="Robot_Machine_1">
</g>
<g id="Robot_Machine_2">
</g>
<g id="Artifical_Intelligence_1">
	<path d="M22,14.5c0-0.709-1.461-3.324-2.19-4.585C19.878,9.555,20,8.732,20,7.5C20,5.365,17.174,0,10.5,0C3.947,0,1,4.971,1,8.5
		c0,2.496,1.475,5.053,2.659,7.108C4.349,16.804,5,17.934,5,18.5c0,1.273-2.07,3.796-2.867,4.661
		c-0.135,0.146-0.171,0.357-0.091,0.54C2.122,23.882,2.302,24,2.5,24h11c0.276,0,0.486-0.146,0.486-0.422
		c0.177-0.357,1.952-1.316,3.595-1.584C18.812,21.792,20.5,21.516,20.5,20c0-0.659-0.229-0.999-0.379-1.224
		c-0.102-0.151-0.121-0.188-0.184-0.28c0.269,0.029,0.524-0.159,0.559-0.434c0.014-0.106-0.008-0.209-0.055-0.296l0.412-0.412
		c0.134-0.134,0.181-0.332,0.121-0.512l-0.334-1.002C21.215,15.64,22,15.234,22,14.5z M16.854,6.146
		c0.195,0.195,0.195,0.512,0,0.707l-1,1C15.76,7.947,15.633,8,15.5,8h-3C12.224,8,12,7.776,12,7.5S12.224,7,12.5,7h2.793
		l0.854-0.854C16.342,5.951,16.658,5.951,16.854,6.146z M9.5,10c-0.133,0-0.26-0.053-0.354-0.146l-1-1
		c-0.195-0.195-0.195-0.512,0-0.707s0.512-0.195,0.707,0L9.707,9H16.5C16.776,9,17,9.224,17,9.5S16.776,10,16.5,10H9.5z
		 M15.854,11.854l-1,1C14.76,12.947,14.633,13,14.5,13h-2c-0.133,0-0.26-0.053-0.354-0.146l-1-1c-0.195-0.195-0.195-0.512,0-0.707
		s0.512-0.195,0.707,0L12.707,12h1.586l0.854-0.854c0.195-0.195,0.512-0.195,0.707,0S16.049,11.658,15.854,11.854z M11.146,5.146
		C11.24,5.053,11.367,5,11.5,5h1.793l0.256-0.256C13.529,4.664,13.5,4.586,13.5,4.5c0-0.551,0.448-1,1-1s1,0.449,1,1s-0.448,1-1,1
		c-0.086,0-0.164-0.029-0.244-0.049l-0.403,0.403C13.76,5.947,13.633,6,13.5,6h-1.793l-0.854,0.854C10.756,6.951,10.628,7,10.5,7
		s-0.256-0.049-0.354-0.146c-0.195-0.195-0.195-0.512,0-0.707L11.146,5.146z M8,22.5C8,22.776,7.776,23,7.5,23S7,22.776,7,22.5
		v-9.293l-2.854-2.854C4.053,10.26,4,10.133,4,10V5c0-0.133,0.053-0.26,0.146-0.354l2-2C6.24,2.553,6.367,2.5,6.5,2.5h2
		c0.133,0,0.26,0.053,0.354,0.146l1,1c0.195,0.195,0.195,0.512,0,0.707s-0.512,0.195-0.707,0L8.293,3.5H6.707L5,5.207v4.586
		l2.854,2.854C7.947,12.74,8,12.867,8,13V22.5z M10,22.5c0,0.276-0.224,0.5-0.5,0.5S9,22.776,9,22.5v-9.793L6.146,9.854
		C6.053,9.76,6,9.633,6,9.5v-2c0-0.133,0.053-0.26,0.146-0.354l0.403-0.403C6.529,6.664,6.5,6.586,6.5,6.5c0-0.551,0.448-1,1-1
		s1,0.449,1,1s-0.448,1-1,1c-0.086,0-0.164-0.029-0.244-0.049L7,7.707v1.586l2.854,2.854C9.947,12.24,10,12.367,10,12.5V22.5z
		 M12.5,21.5c-0.552,0-1-0.449-1-1c0-0.086,0.029-0.164,0.049-0.244l-0.403-0.403C11.053,19.76,11,19.633,11,19.5v-4
		c0-0.133,0.053-0.26,0.146-0.354l1-1c0.195-0.195,0.512-0.195,0.707,0s0.195,0.512,0,0.707L12,15.707v3.586l0.256,0.256
		c0.08-0.021,0.157-0.049,0.244-0.049c0.552,0,1,0.449,1,1S13.052,21.5,12.5,21.5z M16.854,16.854L16,17.707V19.5
		c0,0.276-0.224,0.5-0.5,0.5S15,19.776,15,19.5v-2c0-0.133,0.053-0.26,0.146-0.354l1-1c0.195-0.195,0.512-0.195,0.707,0
		S17.049,16.658,16.854,16.854z M17.854,12.854L14,16.707V18.5c0,0.276-0.224,0.5-0.5,0.5S13,18.776,13,18.5v-2
		c0-0.133,0.053-0.26,0.146-0.354l4-4c0.195-0.195,0.512-0.195,0.707,0S18.049,12.658,17.854,12.854z"/>
</g>
<g id="Artifical_Intelligence_2">
</g>
<g id="Robot_4">
</g>
<g id="Robot_5">
</g>
<g id="Robot_6">
</g>
<g id="Robot_7">
</g>
<g id="Robot_8">
</g>
<g id="Robot_9">
</g>
<g id="Robot_10">
</g>
<g id="Robot_11">
</g>
<g id="Robot_12">
</g>
<g id="Robot_13">
</g>
</svg>
