<?xml version="1.0" encoding="iso-8859-1"?>
<!-- Generator: Adobe Illustrator 19.2.1, SVG Export Plug-In . SVG Version: 6.00 Build 0)  -->
<svg version="1.1" xmlns="http://www.w3.org/2000/svg" xmlns:xlink="http://www.w3.org/1999/xlink" x="0px" y="0px"
	 viewBox="0 0 24 24" style="enable-background:new 0 0 24 24;" xml:space="preserve">
<g id="Retro_Bot_1">
</g>
<g id="Retro_Bot_2">
</g>
<g id="Retro_Bot_3">
</g>
<g id="Retro_Bot_4">
</g>
<g id="Wall-E">
</g>
<g id="Eva">
</g>
<g id="Iron_Giant">
	<g>
		<path d="M22.5,12H22v-0.5c0-0.276-0.224-0.5-0.5-0.5H21v5.5c0,2.481-2.019,4.5-4.5,4.5h-0.535C15.985,21.072,16,21.148,16,21.229
			v2.604c0,0.059-0.014,0.112-0.025,0.167H16.5c3.032,0,5.5-2.467,5.5-5.5V13h0.5c0.276,0,0.5-0.224,0.5-0.5S22.776,12,22.5,12z"/>
		<path d="M6.5,20h10c1.93,0,3.5-1.57,3.5-3.5v-7c0-4.174-3.028-7.638-7-8.35V0.5C13,0.224,12.776,0,12.5,0S12,0.224,12,0.5v0.525
			V14.5c0,0.276-0.224,0.5-0.5,0.5S11,14.776,11,14.5V1.025C6.547,1.286,3,4.982,3,9.5v7C3,18.43,4.57,20,6.5,20z M15.5,8
			c1.379,0,2.5,1.122,2.5,2.5S16.879,13,15.5,13S13,11.878,13,10.5S14.121,8,15.5,8z M7.5,8C8.879,8,10,9.122,10,10.5
			S8.879,13,7.5,13S5,11.878,5,10.5S6.121,8,7.5,8z"/>
		<circle cx="7.5" cy="10.5" r="0.5"/>
		<circle cx="15.5" cy="10.5" r="0.5"/>
		<path d="M7.025,21H6.5C4.019,21,2,18.981,2,16.5V11H1.5C1.224,11,1,11.224,1,11.5V12H0.5C0.224,12,0,12.224,0,12.5
			S0.224,13,0.5,13H1v5.5C1,21.533,3.468,24,6.5,24h0.525C7.014,23.945,7,23.892,7,23.833v-2.667C7,21.107,7.014,21.055,7.025,21z"
			/>
		<path d="M15.035,21h-7.06C7.986,21.055,8,21.107,8,21.167v2.667C8,23.892,7.986,23.945,7.975,24h7.05
			C15.014,23.945,15,23.892,15,23.833v-2.604C15,21.148,15.015,21.072,15.035,21z"/>
	</g>
</g>
<g id="Marvin">
</g>
<g id="Atlas">
</g>
<g id="Claptrap">
</g>
<g id="Android">
</g>
<g id="Bender">
</g>
<g id="Roberto">
</g>
<g id="Robot_Devil">
</g>
<g id="Robocop">
</g>
<g id="ED_209">
</g>
<g id="Optimus_Prime">
</g>
<g id="Robot_1">
</g>
<g id="Robot_2">
</g>
<g id="Robot_3">
</g>
<g id="Robot_Arm_1">
</g>
<g id="Robot_Arm_2">
</g>
<g id="Robot_Arm_3">
</g>
<g id="Robot_Arm_4">
</g>
<g id="Robot_Arm_5">
</g>
<g id="K5_Robot">
</g>
<g id="Robot_Machine_1">
</g>
<g id="Robot_Machine_2">
</g>
<g id="Artifical_Intelligence_1">
</g>
<g id="Artifical_Intelligence_2">
</g>
<g id="Robot_4">
</g>
<g id="Robot_5">
</g>
<g id="Robot_6">
</g>
<g id="Robot_7">
</g>
<g id="Robot_8">
</g>
<g id="Robot_9">
</g>
<g id="Robot_10">
</g>
<g id="Robot_11">
</g>
<g id="Robot_12">
</g>
<g id="Robot_13">
</g>
</svg>
