<?xml version="1.0" encoding="iso-8859-1"?>
<!-- Generator: Adobe Illustrator 19.2.1, SVG Export Plug-In . SVG Version: 6.00 Build 0)  -->
<svg version="1.1" xmlns="http://www.w3.org/2000/svg" xmlns:xlink="http://www.w3.org/1999/xlink" x="0px" y="0px"
	 viewBox="0 0 24 24" style="enable-background:new 0 0 24 24;" xml:space="preserve">
<g id="Retro_Bot_1">
</g>
<g id="Retro_Bot_2">
</g>
<g id="Retro_Bot_3">
</g>
<g id="Retro_Bot_4">
</g>
<g id="Wall-E">
</g>
<g id="Eva">
</g>
<g id="Iron_Giant">
</g>
<g id="Marvin">
	<g>
		<path d="M18,15c-0.06,0-0.118,0.011-0.177,0.018c-0.563-1.212-1.764-2.003-3.133-2.015c-0.065-0.183-0.168-0.34-0.291-0.48
			c1.568-0.629,2.842-1.837,3.531-3.374c-0.053-0.008-0.106-0.018-0.157-0.043c-0.435-0.22-0.956-0.409-1.53-0.568l-0.828,1.241
			c-0.083,0.125-0.218,0.206-0.367,0.22C15.033,9.999,15.017,10,15,10c-0.132,0-0.26-0.052-0.354-0.146l-1.835-1.835
			C12.544,8.007,12.274,8,12.003,8c-0.274,0-0.545,0.007-0.815,0.019L9.354,9.854C9.26,9.948,9.132,10,9,10
			c-0.017,0-0.033-0.001-0.049-0.002c-0.149-0.015-0.284-0.096-0.367-0.22L7.757,8.537C7.159,8.703,6.618,8.902,6.172,9.135
			C6.141,9.151,6.107,9.15,6.075,9.159c0.69,1.532,1.962,2.736,3.526,3.363c-0.123,0.14-0.227,0.297-0.291,0.48
			c-1.369,0.013-2.57,0.803-3.133,2.015C6.118,15.011,6.06,15,6,15c-0.827,0-1.5,0.673-1.5,1.5S5.173,18,6,18s1.5-0.673,1.5-1.5
			c0-0.406-0.163-0.773-0.426-1.043c0.35-0.767,1.056-1.301,1.888-1.427l-0.437,1.311c-0.051,0.152-0.025,0.32,0.069,0.451
			C8.688,15.923,8.839,16,9,16h6c0.161,0,0.312-0.077,0.405-0.208c0.095-0.13,0.12-0.298,0.069-0.451l-0.437-1.311
			c0.833,0.126,1.538,0.659,1.888,1.427c-0.262,0.27-0.426,0.637-0.426,1.043c0,0.827,0.673,1.5,1.5,1.5s1.5-0.673,1.5-1.5
			S18.827,15,18,15z"/>
		<path d="M12.003,7c2.436,0,4.704,0.442,6.224,1.213c0.012,0.006,0.019,0.017,0.031,0.024C18.411,7.683,18.5,7.102,18.5,6.5
			C18.5,2.916,15.584,0,12,0S5.5,2.916,5.5,6.5c0,0.601,0.088,1.18,0.242,1.733C7.261,7.45,9.539,7,12.003,7z"/>
		<path d="M15.205,8.29c-0.273-0.052-0.555-0.096-0.843-0.134l0.559,0.559L15.205,8.29z"/>
		<path d="M9.636,8.157C9.349,8.196,9.068,8.24,8.795,8.292l0.283,0.424L9.636,8.157z"/>
		<path d="M9.197,20.5l-1.289-1.934l-0.355,0.71c-0.047,0.095-0.063,0.202-0.046,0.306l0.474,2.84l-0.428,0.854
			c-0.077,0.155-0.069,0.339,0.021,0.486C7.666,23.91,7.827,24,8,24h2c0.215,0,0.405-0.137,0.474-0.34l0.607-1.798
			C10.32,21.646,9.648,21.176,9.197,20.5z"/>
		<path d="M16.02,22.422l0.474-2.84c0.018-0.104,0.001-0.211-0.046-0.306l-0.355-0.71L14.803,20.5
			c-0.448,0.672-1.116,1.139-1.871,1.357l0.594,1.8C13.593,23.861,13.784,24,14,24h2c0.173,0,0.334-0.09,0.426-0.237
			c0.091-0.147,0.099-0.332,0.021-0.486L16.02,22.422z"/>
		<path d="M13.971,19.945l1.445-2.168c0.1-0.149,0.111-0.34,0.031-0.501l-0.156-0.311C15.196,16.984,15.099,17,15,17H9
			c-0.099,0-0.196-0.016-0.292-0.035l-0.156,0.311c-0.08,0.161-0.068,0.352,0.031,0.501l1.445,2.168C10.47,20.606,11.206,21,12,21
			S13.53,20.606,13.971,19.945z"/>
	</g>
</g>
<g id="Atlas">
</g>
<g id="Claptrap">
</g>
<g id="Android">
</g>
<g id="Bender">
</g>
<g id="Roberto">
</g>
<g id="Robot_Devil">
</g>
<g id="Robocop">
</g>
<g id="ED_209">
</g>
<g id="Optimus_Prime">
</g>
<g id="Robot_1">
</g>
<g id="Robot_2">
</g>
<g id="Robot_3">
</g>
<g id="Robot_Arm_1">
</g>
<g id="Robot_Arm_2">
</g>
<g id="Robot_Arm_3">
</g>
<g id="Robot_Arm_4">
</g>
<g id="Robot_Arm_5">
</g>
<g id="K5_Robot">
</g>
<g id="Robot_Machine_1">
</g>
<g id="Robot_Machine_2">
</g>
<g id="Artifical_Intelligence_1">
</g>
<g id="Artifical_Intelligence_2">
</g>
<g id="Robot_4">
</g>
<g id="Robot_5">
</g>
<g id="Robot_6">
</g>
<g id="Robot_7">
</g>
<g id="Robot_8">
</g>
<g id="Robot_9">
</g>
<g id="Robot_10">
</g>
<g id="Robot_11">
</g>
<g id="Robot_12">
</g>
<g id="Robot_13">
</g>
</svg>
