<?xml version="1.0" encoding="iso-8859-1"?>
<!-- Generator: Adobe Illustrator 19.2.1, SVG Export Plug-In . SVG Version: 6.00 Build 0)  -->
<svg version="1.1" xmlns="http://www.w3.org/2000/svg" xmlns:xlink="http://www.w3.org/1999/xlink" x="0px" y="0px"
	 viewBox="0 0 24 24" style="enable-background:new 0 0 24 24;" xml:space="preserve">
<g id="Retro_Bot_1">
</g>
<g id="Retro_Bot_2">
	<g>
		<path d="M10.5,4C10.776,4,11,3.776,11,3.5C11,3.224,11.224,3,11.5,3C11.776,3,12,2.776,12,2.5S11.776,2,11.5,2
			C10.673,2,10,2.673,10,3.5C10,3.776,10.224,4,10.5,4z"/>
		<rect x="6" y="11" width="1" height="2"/>
		<rect x="14" y="11" width="1" height="2"/>
		<rect x="16" y="11" width="1" height="2"/>
		<path d="M19.5,7h-2.551C16.75,6.022,15.978,5.25,15,5.051V3.5C15,1.57,13.43,0,11.5,0S8,1.57,8,3.5v1.551
			C7.022,5.25,6.25,6.022,6.051,7H3.5C2.673,7,2,7.673,2,8.5v14C2,23.327,2.673,24,3.5,24h16c0.827,0,1.5-0.673,1.5-1.5v-14
			C21,7.673,20.327,7,19.5,7z M12.5,16c0.276,0,0.5,0.224,0.5,0.5S12.776,17,12.5,17h-2c-0.276,0-0.5-0.224-0.5-0.5
			s0.224-0.5,0.5-0.5H11v-0.5c0-0.276,0.224-0.5,0.5-0.5s0.5,0.224,0.5,0.5V16H12.5z M11.5,1C12.878,1,14,2.122,14,3.5V5H9V3.5
			C9,2.122,10.122,1,11.5,1z M5,10.5C5,10.224,5.224,10,5.5,10h4c0.276,0,0.5,0.224,0.5,0.5v3c0,0.276-0.224,0.5-0.5,0.5h-4
			C5.224,14,5,13.776,5,13.5V10.5z M17.5,20H17v0.5c0,0.276-0.224,0.5-0.5,0.5S16,20.776,16,20.5V20h-1v0.5
			c0,0.276-0.224,0.5-0.5,0.5S14,20.776,14,20.5V20h-1v0.5c0,0.276-0.224,0.5-0.5,0.5S12,20.776,12,20.5V20h-1v0.5
			c0,0.276-0.224,0.5-0.5,0.5S10,20.776,10,20.5V20H9v0.5C9,20.776,8.776,21,8.5,21S8,20.776,8,20.5V20H7v0.5
			C7,20.776,6.776,21,6.5,21S6,20.776,6,20.5V20H5.5C5.224,20,5,19.776,5,19.5S5.224,19,5.5,19H6v-0.5C6,18.224,6.224,18,6.5,18
			S7,18.224,7,18.5V19h1v-0.5C8,18.224,8.224,18,8.5,18S9,18.224,9,18.5V19h1v-0.5c0-0.276,0.224-0.5,0.5-0.5s0.5,0.224,0.5,0.5V19
			h1v-0.5c0-0.276,0.224-0.5,0.5-0.5s0.5,0.224,0.5,0.5V19h1v-0.5c0-0.276,0.224-0.5,0.5-0.5s0.5,0.224,0.5,0.5V19h1v-0.5
			c0-0.276,0.224-0.5,0.5-0.5s0.5,0.224,0.5,0.5V19h0.5c0.276,0,0.5,0.224,0.5,0.5S17.776,20,17.5,20z M18,13.5
			c0,0.276-0.224,0.5-0.5,0.5h-4c-0.276,0-0.5-0.224-0.5-0.5v-3c0-0.276,0.224-0.5,0.5-0.5h4c0.276,0,0.5,0.224,0.5,0.5V13.5z"/>
		<rect x="8" y="11" width="1" height="2"/>
	</g>
</g>
<g id="Retro_Bot_3">
</g>
<g id="Retro_Bot_4">
</g>
<g id="Wall-E">
</g>
<g id="Eva">
</g>
<g id="Iron_Giant">
</g>
<g id="Marvin">
</g>
<g id="Atlas">
</g>
<g id="Claptrap">
</g>
<g id="Android">
</g>
<g id="Bender">
</g>
<g id="Roberto">
</g>
<g id="Robot_Devil">
</g>
<g id="Robocop">
</g>
<g id="ED_209">
</g>
<g id="Optimus_Prime">
</g>
<g id="Robot_1">
</g>
<g id="Robot_2">
</g>
<g id="Robot_3">
</g>
<g id="Robot_Arm_1">
</g>
<g id="Robot_Arm_2">
</g>
<g id="Robot_Arm_3">
</g>
<g id="Robot_Arm_4">
</g>
<g id="Robot_Arm_5">
</g>
<g id="K5_Robot">
</g>
<g id="Robot_Machine_1">
</g>
<g id="Robot_Machine_2">
</g>
<g id="Artifical_Intelligence_1">
</g>
<g id="Artifical_Intelligence_2">
</g>
<g id="Robot_4">
</g>
<g id="Robot_5">
</g>
<g id="Robot_6">
</g>
<g id="Robot_7">
</g>
<g id="Robot_8">
</g>
<g id="Robot_9">
</g>
<g id="Robot_10">
</g>
<g id="Robot_11">
</g>
<g id="Robot_12">
</g>
<g id="Robot_13">
</g>
</svg>
