<?xml version="1.0" encoding="iso-8859-1"?>
<!-- Generator: Adobe Illustrator 19.2.1, SVG Export Plug-In . SVG Version: 6.00 Build 0)  -->
<svg version="1.1" xmlns="http://www.w3.org/2000/svg" xmlns:xlink="http://www.w3.org/1999/xlink" x="0px" y="0px"
	 viewBox="0 0 24 24" style="enable-background:new 0 0 24 24;" xml:space="preserve">
<g id="Retro_Bot_1">
</g>
<g id="Retro_Bot_2">
</g>
<g id="Retro_Bot_3">
</g>
<g id="Retro_Bot_4">
</g>
<g id="Wall-E">
</g>
<g id="Eva">
</g>
<g id="Iron_Giant">
</g>
<g id="Marvin">
</g>
<g id="Atlas">
</g>
<g id="Claptrap">
</g>
<g id="Android">
</g>
<g id="Bender">
</g>
<g id="Roberto">
</g>
<g id="Robot_Devil">
</g>
<g id="Robocop">
</g>
<g id="ED_209">
</g>
<g id="Optimus_Prime">
</g>
<g id="Robot_1">
</g>
<g id="Robot_2">
</g>
<g id="Robot_3">
</g>
<g id="Robot_Arm_1">
</g>
<g id="Robot_Arm_2">
</g>
<g id="Robot_Arm_3">
</g>
<g id="Robot_Arm_4">
</g>
<g id="Robot_Arm_5">
</g>
<g id="K5_Robot">
</g>
<g id="Robot_Machine_1">
</g>
<g id="Robot_Machine_2">
</g>
<g id="Artifical_Intelligence_1">
</g>
<g id="Artifical_Intelligence_2">
</g>
<g id="Robot_4">
</g>
<g id="Robot_5">
</g>
<g id="Robot_6">
	<g>
		<circle cx="13.5" cy="4.5" r="0.5"/>
		<circle cx="10.5" cy="4.5" r="0.5"/>
		<rect x="10" y="14" width="4" height="2"/>
		<path d="M19.931,16.071l-0.653-3.662c-0.172-1.205-1.113-2.149-2.278-2.363V9.5C17,9.224,16.776,9,16.5,9h-1.531
			C16.194,8.088,17,6.641,17,5c0-2.757-2.243-5-5-5S7,2.243,7,5c0,1.641,0.806,3.088,2.031,4H7.5C7.224,9,7,9.224,7,9.5v0.546
			c-1.165,0.213-2.105,1.156-2.275,2.346l-0.656,3.679C3.453,16.257,3,16.824,3,17.5C3,17.776,3.224,18,3.5,18S4,17.776,4,17.5
			C4,17.224,4.224,17,4.5,17S5,17.224,5,17.5C5,17.776,5.224,18,5.5,18S6,17.776,6,17.5c0-0.623-0.382-1.158-0.924-1.384
			l0.636-3.565C5.814,11.838,6.335,11.274,7,11.079V18.5C7,18.776,7.224,19,7.5,19H8v4H7.5C7.224,23,7,23.224,7,23.5
			S7.224,24,7.5,24h1h2h3h2h1c0.276,0,0.5-0.224,0.5-0.5S16.776,23,16.5,23H16v-4h0.5c0.276,0,0.5-0.224,0.5-0.5v-7.421
			c0.665,0.195,1.187,0.763,1.291,1.489l0.633,3.548C18.382,16.342,18,16.877,18,17.5c0,0.276,0.224,0.5,0.5,0.5s0.5-0.224,0.5-0.5
			c0-0.276,0.224-0.5,0.5-0.5s0.5,0.224,0.5,0.5c0,0.276,0.224,0.5,0.5,0.5s0.5-0.224,0.5-0.5
			C21,16.824,20.547,16.257,19.931,16.071z M10,7.5C10,7.224,10.224,7,10.5,7h3C13.776,7,14,7.224,14,7.5S13.776,8,13.5,8h-3
			C10.224,8,10,7.776,10,7.5z M10.5,3C11.327,3,12,3.673,12,4.5C12,3.673,12.673,3,13.5,3S15,3.673,15,4.5S14.327,6,13.5,6
			S12,5.327,12,4.5C12,5.327,11.327,6,10.5,6S9,5.327,9,4.5S9.673,3,10.5,3z M15,11.5c0,0.276-0.224,0.5-0.5,0.5h-3
			c-0.276,0-0.5-0.224-0.5-0.5s0.224-0.5,0.5-0.5h3C14.776,11,15,11.224,15,11.5z M9.5,11c0.276,0,0.5,0.224,0.5,0.5
			c0,0.276-0.224,0.5-0.5,0.5S9,11.776,9,11.5C9,11.224,9.224,11,9.5,11z M9,13.5C9,13.224,9.224,13,9.5,13h5
			c0.276,0,0.5,0.224,0.5,0.5v3c0,0.276-0.224,0.5-0.5,0.5h-5C9.224,17,9,16.776,9,16.5V13.5z M13,23h-2v-4h2V23z"/>
		<path d="M17.5,6C17.776,6,18,5.776,18,5.5v-1C18,4.224,17.776,4,17.5,4S17,4.224,17,4.5V5v0.5C17,5.776,17.224,6,17.5,6z"/>
		<path d="M6.5,4C6.224,4,6,4.224,6,4.5v1C6,5.776,6.224,6,6.5,6S7,5.776,7,5.5V5V4.5C7,4.224,6.776,4,6.5,4z"/>
	</g>
</g>
<g id="Robot_7">
</g>
<g id="Robot_8">
</g>
<g id="Robot_9">
</g>
<g id="Robot_10">
</g>
<g id="Robot_11">
</g>
<g id="Robot_12">
</g>
<g id="Robot_13">
</g>
</svg>
