<?xml version="1.0" encoding="iso-8859-1"?>
<!-- Generator: Adobe Illustrator 19.2.1, SVG Export Plug-In . SVG Version: 6.00 Build 0)  -->
<svg version="1.1" xmlns="http://www.w3.org/2000/svg" xmlns:xlink="http://www.w3.org/1999/xlink" x="0px" y="0px"
	 viewBox="0 0 24 24" style="enable-background:new 0 0 24 24;" xml:space="preserve">
<g id="Retro_Bot_1">
</g>
<g id="Retro_Bot_2">
</g>
<g id="Retro_Bot_3">
</g>
<g id="Retro_Bot_4">
</g>
<g id="Wall-E">
</g>
<g id="Eva">
</g>
<g id="Iron_Giant">
</g>
<g id="Marvin">
</g>
<g id="Atlas">
</g>
<g id="Claptrap">
</g>
<g id="Android">
</g>
<g id="Bender">
</g>
<g id="Roberto">
</g>
<g id="Robot_Devil">
</g>
<g id="Robocop">
</g>
<g id="ED_209">
</g>
<g id="Optimus_Prime">
</g>
<g id="Robot_1">
</g>
<g id="Robot_2">
</g>
<g id="Robot_3">
</g>
<g id="Robot_Arm_1">
</g>
<g id="Robot_Arm_2">
</g>
<g id="Robot_Arm_3">
</g>
<g id="Robot_Arm_4">
</g>
<g id="Robot_Arm_5">
</g>
<g id="K5_Robot">
</g>
<g id="Robot_Machine_1">
</g>
<g id="Robot_Machine_2">
</g>
<g id="Artifical_Intelligence_1">
</g>
<g id="Artifical_Intelligence_2">
</g>
<g id="Robot_4">
</g>
<g id="Robot_5">
	<g>
		<path d="M11.5,5C10.122,5,9,6.122,9,7.5s1.122,2.5,2.5,2.5S14,8.878,14,7.5S12.878,5,11.5,5z M11.5,9C10.673,9,10,8.327,10,7.5
			S10.673,6,11.5,6S13,6.673,13,7.5S12.327,9,11.5,9z"/>
		<circle cx="11.5" cy="7.5" r="0.5"/>
		<path d="M11.5,0C7.364,0,4,3.364,4,7.5c0,2.872,1.624,5.369,4,6.628v5.922C8.165,20.027,8.329,20,8.5,20s0.335,0.027,0.5,0.051
			v-5.488C9.783,14.841,10.622,15,11.5,15s1.717-0.159,2.5-0.438v5.488C14.165,20.027,14.329,20,14.5,20s0.335,0.027,0.5,0.051
			v-5.922c2.376-1.26,4-3.757,4-6.628C19,3.364,15.636,0,11.5,0z M9.5,13C9.224,13,9,12.776,9,12.5C9,12.224,9.224,12,9.5,12
			s0.5,0.224,0.5,0.5C10,12.776,9.776,13,9.5,13z M11.5,13c-0.276,0-0.5-0.224-0.5-0.5c0-0.276,0.224-0.5,0.5-0.5s0.5,0.224,0.5,0.5
			C12,12.776,11.776,13,11.5,13z M13.5,13c-0.276,0-0.5-0.224-0.5-0.5c0-0.276,0.224-0.5,0.5-0.5s0.5,0.224,0.5,0.5
			C14,12.776,13.776,13,13.5,13z M11.5,11C9.57,11,8,9.43,8,7.5S9.57,4,11.5,4S15,5.57,15,7.5S13.43,11,11.5,11z"/>
		<path d="M8.5,21C7.122,21,6,22.122,6,23.5C6,23.776,6.224,24,6.5,24h4c0.276,0,0.5-0.224,0.5-0.5C11,22.122,9.878,21,8.5,21z"/>
		<path d="M14.5,21c-1.378,0-2.5,1.122-2.5,2.5c0,0.276,0.224,0.5,0.5,0.5h4c0.276,0,0.5-0.224,0.5-0.5C17,22.122,15.878,21,14.5,21
			z"/>
		<path d="M21.5,7H21V6.5c0-0.784-0.606-1.422-1.373-1.487C19.868,5.8,20,6.635,20,7.5s-0.132,1.7-0.373,2.487
			C20.394,9.922,21,9.284,21,8.5V8h0.5C21.776,8,22,7.776,22,7.5S21.776,7,21.5,7z"/>
		<path d="M2,6.5V7H1.5C1.224,7,1,7.224,1,7.5S1.224,8,1.5,8H2v0.5c0,0.784,0.606,1.422,1.373,1.487C3.132,9.2,3,8.365,3,7.5
			s0.132-1.7,0.373-2.487C2.606,5.078,2,5.716,2,6.5z"/>
	</g>
</g>
<g id="Robot_6">
</g>
<g id="Robot_7">
</g>
<g id="Robot_8">
</g>
<g id="Robot_9">
</g>
<g id="Robot_10">
</g>
<g id="Robot_11">
</g>
<g id="Robot_12">
</g>
<g id="Robot_13">
</g>
</svg>
