<?xml version="1.0" encoding="iso-8859-1"?>
<!-- Generator: Adobe Illustrator 19.2.1, SVG Export Plug-In . SVG Version: 6.00 Build 0)  -->
<svg version="1.1" xmlns="http://www.w3.org/2000/svg" xmlns:xlink="http://www.w3.org/1999/xlink" x="0px" y="0px"
	 viewBox="0 0 24 24" style="enable-background:new 0 0 24 24;" xml:space="preserve">
<g id="Retro_Bot_1">
</g>
<g id="Retro_Bot_2">
</g>
<g id="Retro_Bot_3">
</g>
<g id="Retro_Bot_4">
</g>
<g id="Wall-E">
</g>
<g id="Eva">
</g>
<g id="Iron_Giant">
</g>
<g id="Marvin">
</g>
<g id="Atlas">
</g>
<g id="Claptrap">
</g>
<g id="Android">
</g>
<g id="Bender">
</g>
<g id="Roberto">
</g>
<g id="Robot_Devil">
</g>
<g id="Robocop">
</g>
<g id="ED_209">
</g>
<g id="Optimus_Prime">
</g>
<g id="Robot_1">
</g>
<g id="Robot_2">
	<path d="M20,16.092V10.5c0-1.254-0.931-2.286-2.138-2.463l0.136-1.491c0.013-0.14-0.034-0.279-0.129-0.383
		C17.774,6.059,17.641,6,17.5,6H15V2.5C15,1.122,13.879,0,12.5,0h-2C9.121,0,8,1.122,8,2.5V6H5.5C5.359,6,5.226,6.059,5.131,6.163
		C5.036,6.267,4.989,6.405,5.002,6.545l0.136,1.491C3.931,8.214,3,9.246,3,10.5v5.592c-0.581,0.207-1,0.757-1,1.408
		C2,17.776,2.224,18,2.5,18S3,17.776,3,17.5C3,17.224,3.225,17,3.5,17S4,17.224,4,17.5C4,17.776,4.224,18,4.5,18S5,17.776,5,17.5
		c0-0.651-0.419-1.201-1-1.408V10.5c0-0.734,0.53-1.344,1.228-1.472l0.774,8.518C6.025,17.803,6.241,18,6.5,18H7v0.5
		c0,0.651,0.419,1.201,1,1.408V20.5c0,1.93,1.57,3.5,3.5,3.5s3.5-1.57,3.5-3.5v-0.592c0.581-0.207,1-0.757,1-1.408V18h0.5
		c0.259,0,0.475-0.197,0.498-0.455l0.774-8.518C18.47,9.156,19,9.766,19,10.5v5.592c-0.581,0.207-1,0.757-1,1.408
		c0,0.276,0.224,0.5,0.5,0.5s0.5-0.224,0.5-0.5c0-0.276,0.225-0.5,0.5-0.5s0.5,0.224,0.5,0.5c0,0.276,0.224,0.5,0.5,0.5
		s0.5-0.224,0.5-0.5C21,16.849,20.581,16.299,20,16.092z M12,14.5v-5C12,9.224,12.224,9,12.5,9S13,9.224,13,9.5v5
		c0,0.276-0.224,0.5-0.5,0.5S12,14.776,12,14.5z M14,9.5C14,9.224,14.224,9,14.5,9S15,9.224,15,9.5v5c0,0.276-0.224,0.5-0.5,0.5
		S14,14.776,14,14.5V9.5z M12.5,2C12.776,2,13,2.224,13,2.5C13,2.776,12.776,3,12.5,3S12,2.776,12,2.5C12,2.224,12.224,2,12.5,2z
		 M10.5,2C10.776,2,11,2.224,11,2.5C11,2.776,10.776,3,10.5,3S10,2.776,10,2.5C10,2.224,10.224,2,10.5,2z M10.5,4h2
		C12.776,4,13,4.224,13,4.5S12.776,5,12.5,5h-2C10.224,5,10,4.776,10,4.5S10.224,4,10.5,4z M10,9.5C10,9.224,10.224,9,10.5,9
		S11,9.224,11,9.5v5c0,0.276-0.224,0.5-0.5,0.5S10,14.776,10,14.5V9.5z M8,9.5C8,9.224,8.224,9,8.5,9S9,9.224,9,9.5v5
		C9,14.776,8.776,15,8.5,15S8,14.776,8,14.5V9.5z M10.5,21c-0.276,0-0.5-0.224-0.5-0.5V20h1v0.5C11,20.776,10.776,21,10.5,21z
		 M12.5,21c-0.276,0-0.5-0.224-0.5-0.5V20h1v0.5C13,20.776,12.776,21,12.5,21z"/>
</g>
<g id="Robot_3">
</g>
<g id="Robot_Arm_1">
</g>
<g id="Robot_Arm_2">
</g>
<g id="Robot_Arm_3">
</g>
<g id="Robot_Arm_4">
</g>
<g id="Robot_Arm_5">
</g>
<g id="K5_Robot">
</g>
<g id="Robot_Machine_1">
</g>
<g id="Robot_Machine_2">
</g>
<g id="Artifical_Intelligence_1">
</g>
<g id="Artifical_Intelligence_2">
</g>
<g id="Robot_4">
</g>
<g id="Robot_5">
</g>
<g id="Robot_6">
</g>
<g id="Robot_7">
</g>
<g id="Robot_8">
</g>
<g id="Robot_9">
</g>
<g id="Robot_10">
</g>
<g id="Robot_11">
</g>
<g id="Robot_12">
</g>
<g id="Robot_13">
</g>
</svg>
