<?xml version="1.0" encoding="iso-8859-1"?>
<!-- Generator: Adobe Illustrator 19.0.0, SVG Export Plug-In . SVG Version: 6.00 Build 0)  -->
<svg version="1.1" id="Layer_1" xmlns="http://www.w3.org/2000/svg" xmlns:xlink="http://www.w3.org/1999/xlink" x="0px" y="0px"
	 viewBox="0 0 30 30" style="enable-background:new 0 0 30 30;" xml:space="preserve">
<g>
	<g>
		<path d="M26.604,7.012c-1.026-0.217-1.419-0.607-1.612-1.606c-0.046-0.234-0.252-0.404-0.491-0.404h-1.206
			c-0.221-1.407-1.371-2.415-2.847-2.415h-0.445C18.911,0.984,17.021,0.001,15,0.001s-3.854,0.938-4.96,2.521H9.553
			c-1.453,0-2.623,1.055-2.847,2.479H5.5c-0.239,0-0.445,0.17-0.491,0.404c-0.193,0.999-0.586,1.39-1.612,1.606
			C3.166,7.06,3.001,7.264,3.001,7.5v15c0,0.236,0.165,0.44,0.396,0.489c1.026,0.217,1.419,0.607,1.612,1.606
			c0.046,0.234,0.252,0.404,0.491,0.404h1.206c0.224,1.424,1.394,2.479,2.847,2.479h0.487c1.106,1.584,2.939,2.521,4.96,2.521
			c1.989,0,3.807-0.914,4.918-2.458h0.529c1.43,0,2.62-1.102,2.847-2.542H24.5c0.239,0,0.445-0.17,0.491-0.404
			c0.193-0.999,0.586-1.39,1.612-1.606c0.231-0.049,0.396-0.253,0.396-0.489v-15C27,7.265,26.835,7.061,26.604,7.012z M17.082,4.708
			c0.22-0.165,0.533-0.121,0.7,0.101c0.055,0.073,0.106,0.148,0.155,0.226l0.521,0.844H20.1c0.276,0,0.5,0.224,0.5,0.5v1.815h1.49
			c0.169,0,0.326,0.085,0.418,0.227c0.34,0.519,0.768,0.956,1.273,1.301C23.918,9.815,24,9.97,24,10.135v1.497
			c0,0.276-0.224,0.5-0.5,0.5s-0.5-0.224-0.5-0.5v-1.243c-0.448-0.338-0.841-0.739-1.173-1.197H20.1c-0.276,0-0.5-0.224-0.5-0.5
			V6.877h-1.42c-0.173,0-0.334-0.09-0.425-0.237l-0.667-1.078c-0.032-0.051-0.068-0.103-0.107-0.154
			C16.816,5.187,16.861,4.874,17.082,4.708z M24,13.591v2.938c0,0.276-0.224,0.5-0.5,0.5s-0.5-0.224-0.5-0.5v-2.938
			c0-0.276,0.224-0.5,0.5-0.5S24,13.315,24,13.591z M5.999,10.072c0-0.166,0.082-0.32,0.219-0.413
			C6.724,9.314,7.153,8.877,7.49,8.358c0.093-0.142,0.25-0.227,0.419-0.227h1.49V6.315c0-0.276,0.224-0.5,0.5-0.5h1.658l0.523-0.816
			c0.056-0.088,0.116-0.172,0.182-0.252c0.174-0.215,0.488-0.249,0.703-0.074c0.217,0.175,0.25,0.489,0.076,0.704
			C12.999,5.43,12.96,5.484,12.923,5.54l-0.67,1.046c-0.092,0.144-0.251,0.23-0.421,0.23H10.4v1.816c0,0.276-0.224,0.5-0.5,0.5
			H8.172C7.841,9.59,7.448,9.991,6.999,10.329v1.243c0,0.276-0.224,0.5-0.5,0.5s-0.5-0.224-0.5-0.5V10.072z M7,13.531v2.938
			c0,0.276-0.224,0.5-0.5,0.5S6,16.745,6,16.469v-2.938c0-0.276,0.224-0.5,0.5-0.5S7,13.255,7,13.531z M12.967,25.328
			c-0.093,0.075-0.204,0.111-0.314,0.111c-0.146,0-0.29-0.063-0.389-0.186c-0.065-0.08-0.126-0.164-0.181-0.251l-0.524-0.817H9.9
			c-0.276,0-0.5-0.224-0.5-0.5v-1.816H7.91c-0.169,0-0.326-0.085-0.419-0.227c-0.338-0.519-0.767-0.956-1.272-1.301
			C6.082,20.248,6,20.094,6,19.928v-1.5c0-0.276,0.224-0.5,0.5-0.5s0.5,0.224,0.5,0.5v1.243c0.449,0.338,0.842,0.739,1.173,1.197
			h1.728c0.276,0,0.5,0.224,0.5,0.5v1.816h1.432c0.17,0,0.329,0.087,0.421,0.23l0.671,1.047c0.036,0.055,0.075,0.109,0.117,0.162
			C13.215,24.84,13.182,25.154,12.967,25.328z M16.248,26.289C15.85,26.43,15.43,26.501,15,26.501c-0.45,0-0.888-0.077-1.299-0.23
			c-0.259-0.097-0.391-0.384-0.295-0.643c0.097-0.26,0.386-0.393,0.643-0.295c0.586,0.218,1.269,0.226,1.867,0.013
			c0.262-0.092,0.547,0.045,0.638,0.306C16.646,25.911,16.509,26.197,16.248,26.289z M16.616,4.386
			c-0.076,0.199-0.266,0.322-0.468,0.322c-0.059,0-0.119-0.011-0.178-0.032c-0.596-0.228-1.297-0.232-1.905-0.013
			c-0.261,0.09-0.546-0.042-0.641-0.301c-0.094-0.26,0.041-0.547,0.301-0.641c0.835-0.301,1.78-0.291,2.601,0.019
			C16.584,3.838,16.714,4.127,16.616,4.386z M24.001,19.987H24c0,0.166-0.082,0.32-0.219,0.413
			c-0.506,0.345-0.935,0.782-1.272,1.301c-0.093,0.142-0.25,0.227-0.419,0.227H20.6v1.816c0,0.276-0.224,0.5-0.5,0.5h-1.676
			l-0.526,0.794c-0.062,0.093-0.129,0.183-0.203,0.27c-0.099,0.117-0.239,0.177-0.381,0.177c-0.114,0-0.229-0.039-0.323-0.119
			c-0.211-0.179-0.236-0.494-0.058-0.704c0.047-0.056,0.091-0.114,0.13-0.175l0.676-1.019c0.093-0.14,0.249-0.224,0.417-0.224H19.6
			v-1.816c0-0.276,0.224-0.5,0.5-0.5h1.728c0.331-0.458,0.724-0.859,1.173-1.197v-1.243c0-0.276,0.224-0.5,0.5-0.5
			s0.5,0.224,0.5,0.5V19.987z"/>
	</g>
</g>
</svg>
