<?xml version="1.0" encoding="iso-8859-1"?>
<!-- Generator: Adobe Illustrator 19.0.0, SVG Export Plug-In . SVG Version: 6.00 Build 0)  -->
<svg version="1.1" id="Layer_1" xmlns="http://www.w3.org/2000/svg" xmlns:xlink="http://www.w3.org/1999/xlink" x="0px" y="0px"
	 viewBox="0 0 30 30" style="enable-background:new 0 0 30 30;" xml:space="preserve">
<g>
	<g>
		<path d="M22.998,3.003l-3.941,0.004c-0.032-0.004-3.237-0.408-3.564-2.578c-0.036-0.246-0.219-0.467-0.497-0.426
			c-0.249,0.002-0.459,0.186-0.492,0.432c-0.275,1.998-2.87,2.564-2.84,2.568H7c-2.481,0-4.5,1.921-4.5,4.282v16.696
			c0,1.666,1.42,3.021,3.166,3.021l5.254-0.007c0.032,0.006,3.169,0.542,3.587,2.421c0,0.004-0.001,0.008-0.001,0.012
			c-0.022,0.144,0.035,0.29,0.13,0.4c0.096,0.11,0.249,0.174,0.395,0.174c0.145,0,0.282-0.063,0.377-0.172
			c0.095-0.108,0.138-0.253,0.118-0.396c0-0.005-0.001-0.009-0.002-0.014c0.453-2.023,3.503-2.418,3.477-2.418h5.333
			c1.746,0,3.167-1.355,3.167-3.021V7.285C27.498,4.924,25.479,3.003,22.998,3.003z M5.498,9.561c0-0.276,0.224-0.5,0.5-0.5
			s0.5,0.224,0.5,0.5v2.17c0,0.276-0.224,0.5-0.5,0.5s-0.5-0.224-0.5-0.5V9.561z M5.498,13.9c0-0.276,0.224-0.5,0.5-0.5
			s0.5,0.224,0.5,0.5v2.17c0,0.276-0.224,0.5-0.5,0.5s-0.5-0.224-0.5-0.5V13.9z M5.498,18.24c0-0.276,0.224-0.5,0.5-0.5
			s0.5,0.224,0.5,0.5v2.17c0,0.276-0.224,0.5-0.5,0.5s-0.5-0.224-0.5-0.5V18.24z M6.998,24.08h-1c-0.276,0-0.5-0.224-0.5-0.5v-1
			c0-0.276,0.224-0.5,0.5-0.5s0.5,0.224,0.5,0.5v0.5h0.5c0.276,0,0.5,0.224,0.5,0.5S7.274,24.08,6.998,24.08z M7.669,6.872H7.282
			c-0.396,0-0.74,0.255-0.781,0.581C6.469,7.706,6.254,7.891,6.006,7.891c-0.021,0-0.042-0.001-0.063-0.004
			C5.669,7.853,5.475,7.602,5.509,7.328c0.104-0.83,0.867-1.456,1.773-1.456h0.387c0.276,0,0.5,0.224,0.5,0.5
			S7.946,6.872,7.669,6.872z M11.725,24.111c-0.016,0-0.03-0.001-0.046-0.002c-0.163-0.015-0.317-0.024-0.466-0.028L9.359,24.08
			c-0.276,0-0.5-0.224-0.5-0.5s0.224-0.5,0.5-0.5l1.87,0.001c0.182,0.006,0.357,0.016,0.54,0.032
			c0.275,0.025,0.478,0.268,0.453,0.543C12.199,23.916,11.982,24.111,11.725,24.111z M12.042,6.859l-0.239,0.013H9.839
			c-0.276,0-0.5-0.224-0.5-0.5s0.224-0.5,0.5-0.5l2.138-0.011c0.271-0.032,0.514,0.191,0.531,0.467
			C12.526,6.604,12.318,6.842,12.042,6.859z M16.04,24.563c-0.298,0.108-0.583,0.236-0.847,0.38
			c-0.074,0.04-0.156,0.061-0.238,0.061c-0.078,0-0.156-0.019-0.228-0.055c-0.278-0.143-0.568-0.264-0.86-0.368
			c-0.26-0.093-0.396-0.378-0.303-0.639c0.092-0.259,0.378-0.399,0.639-0.303c0.261,0.093,0.511,0.194,0.745,0.305
			c0.239-0.118,0.489-0.226,0.746-0.32c0.263-0.093,0.548,0.037,0.643,0.297C16.432,24.181,16.298,24.467,16.04,24.563z
			 M16.431,6.064c-0.091,0.261-0.376,0.399-0.637,0.307c-0.258-0.09-0.508-0.192-0.747-0.307c-0.239,0.12-0.489,0.228-0.745,0.321
			c-0.057,0.021-0.114,0.03-0.172,0.03c-0.204,0-0.396-0.125-0.47-0.328c-0.095-0.259,0.038-0.546,0.298-0.642
			c0.294-0.107,0.577-0.235,0.843-0.381c0.146-0.08,0.322-0.083,0.471-0.005c0.268,0.139,0.555,0.263,0.853,0.367
			C16.385,5.518,16.523,5.804,16.431,6.064z M17.576,6.298c0.023-0.275,0.276-0.467,0.54-0.456c0.242,0.021,0.483,0.03,0.724,0.03
			h1.395c0.276,0,0.5,0.224,0.5,0.5s-0.224,0.5-0.5,0.5H18.84c-0.268,0-0.538-0.012-0.808-0.034
			C17.756,6.816,17.552,6.573,17.576,6.298z M20.602,24.08h-1.747c-0.203,0-0.409,0.008-0.613,0.021
			c-0.012,0.001-0.023,0.001-0.035,0.001c-0.26,0-0.479-0.202-0.498-0.466c-0.019-0.275,0.189-0.515,0.465-0.533
			c0.228-0.016,0.455-0.023,0.682-0.023h1.747c0.276,0,0.5,0.224,0.5,0.5S20.878,24.08,20.602,24.08z M21.896,6.372
			c0-0.276,0.224-0.5,0.5-0.5h0.316c0.942,0,1.726,0.679,1.783,1.546c0.019,0.275-0.19,0.514-0.466,0.532
			c-0.012,0.001-0.022,0.001-0.034,0.001c-0.261,0-0.48-0.202-0.498-0.467c-0.022-0.338-0.375-0.612-0.785-0.612h-0.316
			C22.12,6.872,21.896,6.649,21.896,6.372z M24.498,23.58c0,0.276-0.224,0.5-0.5,0.5h-1c-0.276,0-0.5-0.224-0.5-0.5
			s0.224-0.5,0.5-0.5h0.5v-0.5c0-0.276,0.224-0.5,0.5-0.5s0.5,0.224,0.5,0.5V23.58z M24.498,20.417c0,0.276-0.224,0.5-0.5,0.5
			s-0.5-0.224-0.5-0.5v-2.161c0-0.276,0.224-0.5,0.5-0.5s0.5,0.224,0.5,0.5V20.417z M24.498,16.095c0,0.276-0.224,0.5-0.5,0.5
			s-0.5-0.224-0.5-0.5v-2.16c0-0.276,0.224-0.5,0.5-0.5s0.5,0.224,0.5,0.5V16.095z M24.498,11.774c0,0.276-0.224,0.5-0.5,0.5
			s-0.5-0.224-0.5-0.5V9.613c0-0.276,0.224-0.5,0.5-0.5s0.5,0.224,0.5,0.5V11.774z"/>
	</g>
</g>
</svg>
