<?xml version="1.0" encoding="iso-8859-1"?>
<!-- Generator: Adobe Illustrator 19.0.0, SVG Export Plug-In . SVG Version: 6.00 Build 0)  -->
<svg version="1.1" id="Layer_1" xmlns="http://www.w3.org/2000/svg" xmlns:xlink="http://www.w3.org/1999/xlink" x="0px" y="0px"
	 viewBox="0 0 30 30" style="enable-background:new 0 0 30 30;" xml:space="preserve">
<g>
	<g>
		<path d="M24.852,11.121l-0.561-3.879c-0.013-0.089-0.049-0.172-0.104-0.241l-2.45-3.061l-2.512-2.989
			c-0.081-0.097-0.195-0.159-0.32-0.175l-3.842-0.482c-0.041-0.006-0.084-0.006-0.125,0l-3.841,0.481
			c-0.125,0.016-0.239,0.078-0.32,0.175l-2.52,2.999L5.813,7C5.758,7.069,5.721,7.152,5.709,7.241l-0.551,3.833l-0.934,3.807
			c-0.02,0.078-0.02,0.16,0,0.238l0.924,3.76l0.561,3.879c0.013,0.089,0.049,0.172,0.104,0.241l2.45,3.061l2.512,2.989
			c0.081,0.097,0.195,0.159,0.32,0.175l3.842,0.482c0.021,0.003,0.042,0.004,0.063,0.004s0.042-0.001,0.062-0.004l3.841-0.481
			c0.125-0.016,0.239-0.078,0.32-0.175l2.52-2.999L24.187,23c0.056-0.069,0.092-0.152,0.104-0.241l0.551-3.833l0.934-3.807
			c0.02-0.078,0.02-0.16,0-0.238L24.852,11.121z M22.344,11.733l0.081,0.181c0.033,0.075,0.048,0.156,0.043,0.237l-0.121,1.854
			c-0.018,0.265-0.237,0.468-0.498,0.468c-0.012,0-0.022,0-0.033-0.001c-0.276-0.019-0.484-0.256-0.467-0.531l0.113-1.73
			l-0.03-0.067c-0.113-0.252-0.001-0.548,0.251-0.661C21.934,11.367,22.231,11.48,22.344,11.733z M20.161,7.664
			c0.266-0.092,0.546,0.049,0.636,0.31l0.465,1.351l0.24,0.532c0.113,0.252,0,0.548-0.252,0.66c-0.066,0.03-0.136,0.044-0.204,0.044
			c-0.19,0-0.373-0.11-0.456-0.296l-0.257-0.573L19.852,8.3C19.763,8.038,19.901,7.754,20.161,7.664z M8.497,9.855l0.258-0.574
			l0.448-1.308c0.09-0.261,0.377-0.397,0.636-0.31c0.261,0.09,0.399,0.374,0.31,0.636l-0.465,1.35l-0.274,0.616
			c-0.083,0.186-0.266,0.295-0.456,0.295c-0.068,0-0.139-0.014-0.205-0.044C8.497,10.403,8.385,10.107,8.497,9.855z M7.575,11.915
			l0.082-0.183c0.113-0.252,0.41-0.366,0.661-0.251c0.252,0.113,0.364,0.409,0.251,0.661l-0.031,0.069l0.114,1.729
			c0.018,0.276-0.19,0.514-0.466,0.532c-0.012,0.001-0.022,0.001-0.034,0.001c-0.261,0-0.48-0.203-0.498-0.467l-0.122-1.854
			C7.526,12.071,7.542,11.99,7.575,11.915z M8.112,18.562c-0.19,0-0.373-0.109-0.456-0.295l-0.081-0.181
			c-0.033-0.075-0.048-0.156-0.043-0.237l0.121-1.854c0.019-0.276,0.287-0.486,0.531-0.467c0.276,0.019,0.484,0.256,0.467,0.531
			l-0.113,1.73l0.03,0.067c0.113,0.252,0.001,0.548-0.251,0.661C8.252,18.548,8.182,18.562,8.112,18.562z M9.839,22.336
			c-0.055,0.019-0.109,0.027-0.163,0.027c-0.208,0-0.401-0.13-0.473-0.337l-0.465-1.351l-0.24-0.532
			c-0.113-0.252,0-0.548,0.252-0.66c0.25-0.116,0.548-0.001,0.66,0.252l0.257,0.573l0.481,1.392
			C10.239,21.962,10.101,22.246,9.839,22.336z M12.685,25.126c-0.099,0.132-0.249,0.201-0.401,0.201
			c-0.104,0-0.209-0.032-0.299-0.099L10.334,24c-0.221-0.165-0.268-0.479-0.103-0.7c0.167-0.222,0.479-0.266,0.7-0.103l1.65,1.228
			C12.802,24.591,12.849,24.904,12.685,25.126z M12.581,5.574l-1.65,1.228c-0.09,0.066-0.194,0.099-0.299,0.099
			c-0.152,0-0.303-0.069-0.401-0.201c-0.165-0.222-0.118-0.535,0.103-0.7l1.65-1.228c0.22-0.164,0.533-0.12,0.7,0.103
			C12.849,5.096,12.802,5.409,12.581,5.574z M16.119,26.222l-0.896,0.445c-0.07,0.035-0.146,0.053-0.223,0.053
			c-0.077,0-0.152-0.018-0.223-0.053l-0.896-0.445c-0.247-0.122-0.348-0.423-0.225-0.67c0.123-0.248,0.425-0.35,0.67-0.225
			l0.673,0.334l0.673-0.334c0.246-0.125,0.547-0.023,0.67,0.225C16.466,25.799,16.365,26.1,16.119,26.222z M16.344,4.448
			c-0.087,0.176-0.264,0.277-0.447,0.277c-0.075,0-0.151-0.017-0.223-0.053L15,4.338l-0.673,0.334
			c-0.245,0.124-0.547,0.022-0.67-0.225c-0.123-0.247-0.022-0.548,0.225-0.67l0.896-0.445c0.141-0.07,0.305-0.07,0.445,0
			l0.896,0.445C16.365,3.9,16.466,4.201,16.344,4.448z M17.317,4.874c0.167-0.222,0.479-0.265,0.7-0.103l1.65,1.228
			c0.221,0.165,0.268,0.479,0.103,0.7C19.671,6.831,19.521,6.9,19.369,6.9c-0.104,0-0.209-0.032-0.299-0.099l-1.65-1.228
			C17.198,5.409,17.151,5.096,17.317,4.874z M19.667,24.001l-1.65,1.228c-0.09,0.066-0.194,0.099-0.299,0.099
			c-0.152,0-0.303-0.069-0.401-0.201c-0.165-0.222-0.118-0.535,0.103-0.7l1.65-1.228c0.22-0.164,0.533-0.12,0.7,0.103
			C19.935,23.522,19.888,23.836,19.667,24.001z M21.503,20.145l-0.258,0.574l-0.448,1.308c-0.071,0.207-0.266,0.337-0.473,0.337
			c-0.054,0-0.109-0.009-0.163-0.027c-0.261-0.09-0.399-0.374-0.31-0.636l0.465-1.35l0.274-0.616
			c0.112-0.252,0.409-0.366,0.661-0.251C21.505,19.597,21.617,19.893,21.503,20.145z M22.427,18.085l-0.082,0.183
			c-0.083,0.186-0.266,0.295-0.456,0.295c-0.068,0-0.139-0.014-0.205-0.044c-0.252-0.113-0.364-0.409-0.251-0.661l0.031-0.069
			l-0.114-1.729c-0.018-0.276,0.19-0.514,0.466-0.532c0.272-0.019,0.514,0.19,0.532,0.466l0.122,1.854
			C22.474,17.929,22.46,18.01,22.427,18.085z"/>
	</g>
</g>
</svg>
