<?xml version="1.0" encoding="iso-8859-1"?>
<!-- Generator: Adobe Illustrator 19.0.0, SVG Export Plug-In . SVG Version: 6.00 Build 0)  -->
<svg version="1.1" id="Layer_1" xmlns="http://www.w3.org/2000/svg" xmlns:xlink="http://www.w3.org/1999/xlink" x="0px" y="0px"
	 viewBox="0 0 30 30" style="enable-background:new 0 0 30 30;" xml:space="preserve">
<g>
	<g>
		<path d="M29.331,12.6l-0.33-0.71V8c0-0.276-0.224-0.5-0.5-0.5H26.68c-1.124-0.883-2.378-1-3.357-1H6.679
			c-0.979,0-2.233,0.117-3.357,1H1.501c-0.276,0-0.5,0.224-0.5,0.5v3.89L0.68,12.583c-0.838,1.502-0.901,3.325-0.175,4.86
			l0.496,1.159v3.397c0,0.276,0.224,0.5,0.5,0.5h1.822c0.866,0.673,2.043,1,3.589,1H23.09c1.546,0,2.723-0.327,3.589-1h1.822
			c0.276,0,0.5-0.224,0.5-0.5v-3.397l0.488-1.142C30.22,15.914,30.161,14.098,29.331,12.6z M4.499,10.658l0.606-0.488
			c0.005-0.004,0.088-0.067,0.093-0.071c0.223-0.165,0.535-0.117,0.7,0.104c0.164,0.222,0.118,0.535-0.104,0.699l-0.583,0.469v0.741
			c0,0.276-0.224,0.5-0.5,0.5s-0.5-0.224-0.5-0.5v-1.001H4.21C4.21,10.911,4.328,10.737,4.499,10.658z M3.887,16.471
			c-0.066,0.03-0.136,0.044-0.204,0.044c-0.191,0-0.374-0.11-0.457-0.296c-0.149-0.333-0.225-0.687-0.225-1.051
			c0-0.461,0.125-0.918,0.363-1.32l0.065-0.108c0.141-0.237,0.447-0.314,0.685-0.174c0.237,0.142,0.315,0.448,0.173,0.686
			l-0.063,0.106c-0.146,0.247-0.223,0.528-0.223,0.811c0,0.223,0.046,0.438,0.138,0.643C4.252,16.063,4.139,16.358,3.887,16.471z
			 M5.931,19.681c-0.099,0.122-0.244,0.186-0.39,0.186c-0.11,0-0.221-0.036-0.313-0.111l-0.517-0.366c-0.276,0-0.5-0.224-0.5-0.5
			l-0.025-0.757c-0.124-0.246-0.024-0.547,0.222-0.671c0.245-0.128,0.547-0.025,0.671,0.222l0.078,0.155
			c0.035,0.069,0.053,0.146,0.053,0.225v0.399c0.019,0.012,0.036,0.024,0.053,0.038l0.592,0.478
			C6.07,19.15,6.104,19.465,5.931,19.681z M9.661,20.5H7.525c-0.276,0-0.5-0.224-0.5-0.5s0.224-0.5,0.5-0.5h2.136
			c0.276,0,0.5,0.224,0.5,0.5S9.938,20.5,9.661,20.5z M9.662,10.5H7.526c-0.276,0-0.5-0.224-0.5-0.5s0.224-0.5,0.5-0.5h2.136
			c0.276,0,0.5,0.224,0.5,0.5S9.938,10.5,9.662,10.5z M13.933,20.5h-2.136c-0.276,0-0.5-0.224-0.5-0.5s0.224-0.5,0.5-0.5h2.136
			c0.276,0,0.5,0.224,0.5,0.5S14.209,20.5,13.933,20.5z M13.933,10.5h-2.136c-0.276,0-0.5-0.224-0.5-0.5s0.224-0.5,0.5-0.5h2.136
			c0.276,0,0.5,0.224,0.5,0.5S14.209,10.5,13.933,10.5z M18.205,20.5h-2.136c-0.276,0-0.5-0.224-0.5-0.5s0.224-0.5,0.5-0.5h2.136
			c0.276,0,0.5,0.224,0.5,0.5S18.481,20.5,18.205,20.5z M18.205,10.5h-2.136c-0.276,0-0.5-0.224-0.5-0.5s0.224-0.5,0.5-0.5h2.136
			c0.276,0,0.5,0.224,0.5,0.5S18.481,10.5,18.205,10.5z M20.34,9.5h2.136c0.276,0,0.5,0.224,0.5,0.5s-0.224,0.5-0.5,0.5H20.34
			c-0.276,0-0.5-0.224-0.5-0.5S20.064,9.5,20.34,9.5z M22.477,20.5h-2.136c-0.276,0-0.5-0.224-0.5-0.5s0.224-0.5,0.5-0.5h2.136
			c0.276,0,0.5,0.224,0.5,0.5S22.753,20.5,22.477,20.5z M24.149,10.224c0.167-0.214,0.436-0.288,0.655-0.125
			c0.005,0.004,0.088,0.067,0.094,0.072l0.639,0.515c0.15,0.088,0.255,0.245,0.255,0.426v1c0,0.276-0.224,0.5-0.5,0.5
			s-0.5-0.224-0.5-0.5V11.37l-0.521-0.42C24.058,10.779,23.982,10.439,24.149,10.224z M25.816,18.132l-0.025,0.05v0.707
			c0,0.276-0.224,0.5-0.5,0.5h-0.063l-0.455,0.366c-0.092,0.075-0.204,0.111-0.313,0.111c-0.146,0-0.291-0.063-0.39-0.186
			c-0.173-0.216-0.14-0.53,0.075-0.703l0.592-0.478c0.017-0.014,0.035-0.026,0.053-0.038v-0.399c0-0.078,0.018-0.155,0.053-0.225
			l0.078-0.155c0.124-0.247,0.424-0.35,0.671-0.222C25.841,17.585,25.94,17.886,25.816,18.132z M26.777,16.216
			c-0.083,0.186-0.266,0.296-0.457,0.296c-0.068,0-0.137-0.014-0.204-0.044c-0.252-0.112-0.365-0.408-0.252-0.66
			c0.091-0.204,0.138-0.42,0.138-0.641c0-0.282-0.078-0.563-0.224-0.81l-0.064-0.107c-0.142-0.237-0.064-0.544,0.172-0.686
			c0.236-0.144,0.544-0.065,0.686,0.172l0.065,0.109c0.239,0.403,0.365,0.859,0.365,1.321C27.001,15.53,26.926,15.883,26.777,16.216
			z"/>
	</g>
</g>
</svg>
