<?xml version="1.0" encoding="iso-8859-1"?>
<!-- Generator: Adobe Illustrator 19.0.0, SVG Export Plug-In . SVG Version: 6.00 Build 0)  -->
<svg version="1.1" id="Layer_1" xmlns="http://www.w3.org/2000/svg" xmlns:xlink="http://www.w3.org/1999/xlink" x="0px" y="0px"
	 viewBox="0 0 30 30" style="enable-background:new 0 0 30 30;" xml:space="preserve">
<g>
	<g>
		<path d="M29.955,9.706c0.07-0.155,0.058-0.335-0.035-0.478C29.828,9.086,29.67,9,29.5,9c-4.116,0-8.19-1.177-11.781-3.403
			l-2.455-1.521c-0.162-0.1-0.365-0.1-0.527,0l-2.455,1.521C8.69,7.823,4.616,9,0.5,9C0.33,9,0.172,9.086,0.08,9.229
			C-0.013,9.372-0.025,9.55,0.045,9.706c1.548,3.413,1.548,7.173,0,10.586c-0.07,0.155-0.058,0.335,0.035,0.478
			C0.172,20.914,0.33,21,0.5,21c4.116,0,8.19,1.177,11.781,3.403l2.455,1.521C14.817,25.974,14.908,26,15,26
			s0.183-0.025,0.264-0.075l2.455-1.521C21.31,22.177,25.384,21,29.5,21c0.17,0,0.328-0.086,0.42-0.229
			c0.093-0.143,0.105-0.322,0.035-0.478C28.407,16.88,28.407,13.12,29.955,9.706z M4.991,18.93c-0.029,0-0.058-0.002-0.087-0.008
			c-0.323-0.057-0.646-0.105-0.972-0.149c-0.138-0.019-0.262-0.094-0.342-0.207c-0.08-0.114-0.108-0.256-0.08-0.392
			c0.067-0.317,0.125-0.636,0.173-0.956c0.04-0.272,0.301-0.463,0.567-0.421c0.273,0.04,0.462,0.294,0.421,0.567
			c-0.023,0.165-0.051,0.329-0.08,0.493c0.162,0.025,0.323,0.052,0.484,0.08c0.272,0.047,0.454,0.307,0.406,0.578
			C5.44,18.758,5.229,18.93,4.991,18.93z M3.827,14.256c-0.014-0.275,0.198-0.51,0.475-0.523c0.28-0.021,0.511,0.199,0.523,0.475
			c0.014,0.263,0.02,0.527,0.02,0.791s-0.006,0.528-0.02,0.791c-0.013,0.268-0.234,0.476-0.499,0.476c-0.008,0-0.017,0-0.024-0.001
			c-0.276-0.014-0.488-0.248-0.475-0.523C3.839,15.495,3.845,15.248,3.845,15C3.845,14.752,3.839,14.503,3.827,14.256z
			 M5.076,12.063c-0.161,0.028-0.322,0.055-0.484,0.08c0.029,0.164,0.057,0.328,0.08,0.493c0.041,0.273-0.147,0.527-0.421,0.567
			c-0.024,0.004-0.05,0.006-0.074,0.006c-0.243,0-0.457-0.179-0.493-0.427c-0.048-0.32-0.105-0.639-0.173-0.956
			c-0.028-0.136,0-0.277,0.08-0.392c0.08-0.113,0.204-0.188,0.342-0.207c0.325-0.044,0.648-0.093,0.972-0.149
			c0.266-0.054,0.531,0.133,0.578,0.406C5.53,11.755,5.349,12.016,5.076,12.063z M6.798,10.672c0.627-0.16,1.25-0.347,1.854-0.554
			c0.26-0.091,0.545,0.049,0.635,0.311c0.09,0.261-0.049,0.545-0.311,0.635c-0.629,0.217-1.278,0.41-1.931,0.577
			c-0.042,0.011-0.083,0.016-0.124,0.016c-0.224,0-0.427-0.15-0.484-0.376C6.369,11.013,6.53,10.74,6.798,10.672z M9.292,19.571
			c-0.07,0.207-0.265,0.338-0.473,0.338c-0.054,0-0.108-0.009-0.162-0.027c-0.605-0.207-1.23-0.393-1.855-0.554
			c-0.268-0.068-0.429-0.342-0.36-0.608c0.068-0.269,0.344-0.429,0.608-0.36c0.651,0.167,1.301,0.361,1.932,0.577
			C9.242,19.026,9.382,19.31,9.292,19.571z M10.459,9.419c0.594-0.257,1.181-0.54,1.745-0.839c0.242-0.13,0.547-0.037,0.676,0.207
			c0.13,0.244,0.037,0.547-0.207,0.676c-0.587,0.312-1.198,0.605-1.815,0.874c-0.065,0.028-0.133,0.041-0.199,0.041
			c-0.193,0-0.377-0.112-0.459-0.301C10.09,9.823,10.206,9.529,10.459,9.419z M12.884,21.214c-0.09,0.169-0.263,0.266-0.441,0.266
			c-0.079,0-0.16-0.019-0.234-0.059c-0.563-0.298-1.149-0.581-1.746-0.84c-0.253-0.11-0.369-0.405-0.26-0.658
			c0.11-0.254,0.406-0.366,0.658-0.26c0.62,0.27,1.231,0.564,1.816,0.875C12.921,20.667,13.014,20.969,12.884,21.214z
			 M16.113,22.396l-0.85,0.527C15.183,22.974,15.092,23,15,23s-0.183-0.025-0.264-0.075l-0.85-0.527
			c-0.234-0.146-0.307-0.454-0.161-0.688c0.146-0.234,0.457-0.305,0.688-0.161L15,21.911l0.586-0.363
			c0.233-0.144,0.543-0.073,0.688,0.161C16.419,21.943,16.348,22.252,16.113,22.396z M16.274,8.29
			c-0.095,0.152-0.258,0.236-0.425,0.236c-0.091,0-0.182-0.024-0.264-0.075L15,8.089l-0.586,0.363
			c-0.231,0.145-0.542,0.074-0.688-0.161c-0.146-0.234-0.073-0.543,0.161-0.688l0.85-0.527c0.162-0.1,0.365-0.1,0.527,0l0.85,0.527
			C16.348,7.747,16.42,8.057,16.274,8.29z M17.116,8.786c0.13-0.244,0.434-0.338,0.676-0.207c0.563,0.298,1.149,0.581,1.746,0.84
			c0.253,0.11,0.369,0.405,0.26,0.658c-0.082,0.188-0.267,0.301-0.459,0.301c-0.066,0-0.135-0.014-0.199-0.041
			c-0.62-0.27-1.231-0.564-1.816-0.875C17.079,9.333,16.986,9.029,17.116,8.786z M19.541,20.579
			c-0.594,0.257-1.181,0.54-1.745,0.839c-0.074,0.04-0.155,0.059-0.234,0.059c-0.179,0-0.352-0.097-0.441-0.266
			c-0.13-0.244-0.037-0.547,0.207-0.676c0.587-0.312,1.198-0.605,1.815-0.874c0.257-0.111,0.548,0.006,0.658,0.26
			C19.91,20.175,19.794,20.469,19.541,20.579z M20.708,10.427c0.088-0.261,0.373-0.401,0.635-0.311
			c0.605,0.207,1.23,0.393,1.855,0.554c0.268,0.068,0.429,0.342,0.36,0.608c-0.058,0.227-0.262,0.376-0.484,0.376
			c-0.041,0-0.083-0.005-0.124-0.016c-0.651-0.167-1.301-0.361-1.932-0.577C20.758,10.974,20.618,10.688,20.708,10.427z
			 M23.202,19.328c-0.627,0.16-1.25,0.347-1.854,0.554c-0.054,0.019-0.108,0.027-0.162,0.027c-0.208,0-0.401-0.13-0.473-0.338
			c-0.09-0.261,0.049-0.545,0.311-0.635c0.629-0.217,1.278-0.41,1.931-0.577c0.271-0.069,0.54,0.094,0.608,0.36
			C23.631,18.987,23.47,19.26,23.202,19.328z M26.409,18.565c-0.08,0.113-0.204,0.188-0.342,0.207
			c-0.325,0.044-0.648,0.093-0.972,0.149c-0.029,0.006-0.058,0.008-0.087,0.008c-0.238,0-0.449-0.171-0.491-0.414
			c-0.048-0.271,0.134-0.531,0.406-0.578c0.161-0.028,0.322-0.055,0.484-0.08c-0.029-0.164-0.057-0.328-0.08-0.493
			c-0.041-0.273,0.147-0.527,0.421-0.567c0.267-0.043,0.527,0.147,0.567,0.421c0.048,0.32,0.105,0.639,0.173,0.956
			C26.518,18.31,26.489,18.451,26.409,18.565z M26.173,15.742c0.014,0.275-0.198,0.51-0.475,0.523
			c-0.008,0.001-0.017,0.001-0.024,0.001c-0.266,0-0.486-0.208-0.499-0.476c-0.014-0.263-0.02-0.527-0.02-0.791
			s0.006-0.528,0.02-0.791c0.013-0.275,0.255-0.508,0.523-0.475c0.276,0.014,0.488,0.248,0.475,0.523
			c-0.012,0.247-0.018,0.494-0.018,0.742C26.155,15.247,26.161,15.495,26.173,15.742z M26.489,11.826
			c-0.067,0.317-0.125,0.636-0.173,0.956c-0.036,0.248-0.25,0.427-0.493,0.427c-0.024,0-0.05-0.002-0.074-0.006
			c-0.273-0.04-0.462-0.294-0.421-0.567c0.023-0.165,0.051-0.329,0.08-0.493c-0.162-0.025-0.323-0.052-0.484-0.08
			c-0.272-0.047-0.454-0.307-0.406-0.578c0.047-0.273,0.311-0.46,0.578-0.406c0.323,0.057,0.646,0.105,0.972,0.149
			c0.138,0.019,0.262,0.094,0.342,0.207C26.489,11.549,26.518,11.69,26.489,11.826z"/>
	</g>
</g>
</svg>
