<?xml version="1.0" encoding="iso-8859-1"?>
<!-- Generator: Adobe Illustrator 19.0.0, SVG Export Plug-In . SVG Version: 6.00 Build 0)  -->
<svg version="1.1" id="Layer_1" xmlns="http://www.w3.org/2000/svg" xmlns:xlink="http://www.w3.org/1999/xlink" x="0px" y="0px"
	 viewBox="0 0 30 30" style="enable-background:new 0 0 30 30;" xml:space="preserve">
<g>
	<g>
		<path d="M29,12.116v-0.902c0-1.645-1.564-3.143-3.282-3.143h-1.156C23.756,7.719,18.546,5.5,15,5.5
			c-3.546,0-8.756,2.219-9.562,2.571H4.282C2.564,8.071,1,9.569,1,11.214v0.902C0.508,12.361,0,13.08,0,15s0.508,2.639,1,2.884
			v0.902c0,1.645,1.564,3.143,3.282,3.143h1.156C6.244,22.282,11.454,24.5,15,24.5s8.756-2.219,9.562-2.571h1.156
			c1.718,0,3.282-1.498,3.282-3.143v-0.902c0.492-0.245,1-0.964,1-2.884S29.492,12.361,29,12.116z M11.633,9.021
			c0.818-0.209,1.562-0.356,2.21-0.44c0.265-0.041,0.524,0.157,0.56,0.433c0.035,0.273-0.158,0.524-0.433,0.56
			c-0.607,0.078-1.311,0.219-2.091,0.417c-0.041,0.011-0.083,0.016-0.123,0.016c-0.224,0-0.427-0.15-0.484-0.377
			C11.203,9.361,11.365,9.09,11.633,9.021z M4,14.133c0-0.276,0.224-0.5,0.5-0.5s0.5,0.224,0.5,0.5v1.733c0,0.276-0.224,0.5-0.5,0.5
			S4,16.142,4,15.866V14.133z M5.5,19.1h-1c-0.276,0-0.5-0.224-0.5-0.5v-1c0-0.276,0.224-0.5,0.5-0.5S5,17.324,5,17.6v0.5h0.5
			c0.276,0,0.5,0.224,0.5,0.5S5.776,19.1,5.5,19.1z M5.5,11.9H5v0.5c0,0.276-0.224,0.5-0.5,0.5S4,12.676,4,12.4v-1
			c0-0.276,0.224-0.5,0.5-0.5h1c0.276,0,0.5,0.224,0.5,0.5S5.776,11.9,5.5,11.9z M7.401,10.388c0.579-0.224,1.304-0.486,2.093-0.742
			c0.262-0.085,0.545,0.059,0.63,0.321c0.085,0.262-0.059,0.545-0.321,0.63c-0.77,0.25-1.477,0.507-2.042,0.725
			c-0.059,0.022-0.12,0.033-0.18,0.033c-0.2,0-0.39-0.122-0.467-0.32C7.016,10.776,7.144,10.487,7.401,10.388z M10.126,20.035
			c-0.069,0.212-0.265,0.346-0.476,0.346c-0.051,0-0.104-0.008-0.154-0.024c-0.79-0.257-1.516-0.521-2.095-0.745
			c-0.258-0.1-0.386-0.389-0.285-0.646c0.1-0.258,0.389-0.386,0.646-0.285c0.565,0.219,1.271,0.475,2.042,0.726
			C10.067,19.491,10.211,19.773,10.126,20.035z M13.908,21.423c-0.021,0-0.043-0.001-0.064-0.004
			c-0.649-0.083-1.394-0.23-2.211-0.438c-0.268-0.068-0.43-0.34-0.361-0.607c0.068-0.267,0.337-0.433,0.607-0.361
			c0.778,0.198,1.481,0.338,2.092,0.415c0.273,0.035,0.468,0.285,0.433,0.56C14.371,21.238,14.156,21.423,13.908,21.423z
			 M16.157,8.58c0.649,0.083,1.394,0.23,2.211,0.438c0.267,0.07,0.429,0.341,0.361,0.609c-0.058,0.227-0.261,0.377-0.484,0.377
			c-0.04,0-0.082-0.005-0.123-0.016C17.344,9.79,16.641,9.65,16.03,9.573c-0.273-0.035-0.468-0.285-0.433-0.56
			C15.632,8.74,15.885,8.541,16.157,8.58z M18.367,20.979c-0.818,0.209-1.562,0.356-2.21,0.44c-0.021,0.003-0.043,0.004-0.064,0.004
			c-0.247,0-0.463-0.184-0.495-0.437c-0.035-0.273,0.158-0.524,0.433-0.56c0.607-0.078,1.311-0.219,2.091-0.417
			c0.269-0.072,0.539,0.094,0.607,0.361C18.797,20.637,18.635,20.91,18.367,20.979z M22.599,19.612
			c-0.579,0.224-1.304,0.486-2.093,0.742c-0.051,0.017-0.104,0.024-0.154,0.024c-0.211,0-0.407-0.134-0.476-0.346
			c-0.085-0.263,0.059-0.545,0.321-0.63c0.77-0.25,1.477-0.507,2.042-0.725c0.257-0.098,0.547,0.03,0.646,0.287
			C22.984,19.224,22.856,19.513,22.599,19.612z M22.884,11.035c-0.076,0.198-0.266,0.319-0.466,0.319
			c-0.061,0-0.121-0.011-0.181-0.034c-0.565-0.219-1.271-0.475-2.042-0.726c-0.262-0.085-0.406-0.367-0.321-0.629
			c0.086-0.263,0.368-0.407,0.63-0.321c0.79,0.257,1.516,0.521,2.095,0.745C22.857,10.489,22.985,10.778,22.884,11.035z M26,18.6
			c0,0.276-0.224,0.5-0.5,0.5h-1c-0.276,0-0.5-0.224-0.5-0.5s0.224-0.5,0.5-0.5H25v-0.5c0-0.276,0.224-0.5,0.5-0.5
			s0.5,0.224,0.5,0.5V18.6z M26,15.867c0,0.276-0.224,0.5-0.5,0.5s-0.5-0.224-0.5-0.5v-1.733c0-0.276,0.224-0.5,0.5-0.5
			s0.5,0.224,0.5,0.5V15.867z M26,12.4c0,0.276-0.224,0.5-0.5,0.5S25,12.676,25,12.4v-0.5h-0.5c-0.276,0-0.5-0.224-0.5-0.5
			s0.224-0.5,0.5-0.5h1c0.276,0,0.5,0.224,0.5,0.5V12.4z"/>
	</g>
</g>
</svg>
