<?xml version="1.0" encoding="iso-8859-1"?>
<!-- Generator: Adobe Illustrator 19.0.0, SVG Export Plug-In . SVG Version: 6.00 Build 0)  -->
<svg version="1.1" id="Layer_1" xmlns="http://www.w3.org/2000/svg" xmlns:xlink="http://www.w3.org/1999/xlink" x="0px" y="0px"
	 viewBox="0 0 30 30" style="enable-background:new 0 0 30 30;" xml:space="preserve">
<g>
	<g>
		<path d="M28.019,11.479L28,8.497C28,8.222,27.776,8,27.5,8H27V7c0-1.654-1.346-3-3-3H6.021C4.354,4,3,5.333,3,6.971V8H2.5
			C2.224,8,2,8.224,2,8.5v2.979C1.097,11.716,0,12.632,0,15c0,2.365,1.086,3.282,1.981,3.521L2,21.503C2.002,21.778,2.224,22,2.5,22
			H3v1c0,1.654,1.346,3,3,3h17.98C25.646,26,27,24.667,27,23.029V22h0.5c0.276,0,0.5-0.224,0.5-0.5v-2.979
			c0.902-0.237,2-1.153,2-3.521C30,12.635,28.914,11.718,28.019,11.479z M22.883,7h0.5c0.276,0,0.5,0.224,0.5,0.5V8
			c0,0.276-0.224,0.5-0.5,0.5s-0.5-0.224-0.5-0.5c-0.276,0-0.5-0.224-0.5-0.5S22.607,7,22.883,7z M5,10.962
			c0-0.276,0.224-0.5,0.5-0.5H6c0.021,0,0.039,0.009,0.059,0.012c0.02-0.003,0.038-0.012,0.059-0.012c0-0.276,0.224-0.5,0.5-0.5
			s0.5,0.224,0.5,0.5v0.5c0,0.276-0.224,0.5-0.5,0.5h-0.5c-0.021,0-0.039-0.009-0.059-0.012C6.039,11.453,6.021,11.462,6,11.462
			c0,0.276-0.224,0.5-0.5,0.5S5,11.738,5,11.462V10.962z M5,13.231c0-0.276,0.224-0.5,0.5-0.5s0.5,0.224,0.5,0.5v0.884
			c0,0.276-0.224,0.5-0.5,0.5S5,14.391,5,14.115V13.231z M5,15.885c0-0.276,0.224-0.5,0.5-0.5s0.5,0.224,0.5,0.5v0.885
			c0,0.276-0.224,0.5-0.5,0.5S5,17.046,5,16.77V15.885z M6,19.538H5.5c-0.276,0-0.5-0.224-0.5-0.5v-0.5c0-0.276,0.224-0.5,0.5-0.5
			s0.5,0.224,0.5,0.5c0.021,0,0.039,0.009,0.059,0.012c0.02-0.003,0.038-0.012,0.059-0.012h0.5c0.276,0,0.5,0.224,0.5,0.5v0.5
			c0,0.276-0.224,0.5-0.5,0.5s-0.5-0.224-0.5-0.5c-0.021,0-0.039-0.009-0.059-0.012C6.039,19.529,6.021,19.538,6,19.538z M7.119,23
			h-0.5c-0.276,0-0.5-0.224-0.5-0.5V22c0-0.276,0.224-0.5,0.5-0.5s0.5,0.224,0.5,0.5c0.276,0,0.5,0.224,0.5,0.5S7.395,23,7.119,23z
			 M7.119,8c0,0.276-0.224,0.5-0.5,0.5s-0.5-0.224-0.5-0.5V7.5c0-0.276,0.224-0.5,0.5-0.5h0.5c0.276,0,0.5,0.224,0.5,0.5
			S7.395,8,7.119,8z M8.972,7h0.927c0.276,0,0.5,0.224,0.5,0.5S10.175,8,9.899,8H8.972c-0.276,0-0.5-0.224-0.5-0.5S8.697,7,8.972,7z
			 M9.901,23H8.974c-0.276,0-0.5-0.224-0.5-0.5s0.224-0.5,0.5-0.5h0.927c0.276,0,0.5,0.224,0.5,0.5S10.177,23,9.901,23z M12.682,23
			h-0.927c-0.276,0-0.5-0.224-0.5-0.5s0.224-0.5,0.5-0.5h0.927c0.276,0,0.5,0.224,0.5,0.5S12.958,23,12.682,23z M12.682,8h-0.927
			c-0.276,0-0.5-0.224-0.5-0.5s0.224-0.5,0.5-0.5h0.927c0.276,0,0.5,0.224,0.5,0.5S12.958,8,12.682,8z M14.536,7h0.927
			c0.276,0,0.5,0.224,0.5,0.5S15.74,8,15.464,8h-0.927c-0.276,0-0.5-0.224-0.5-0.5S14.26,7,14.536,7z M15.464,23h-0.927
			c-0.276,0-0.5-0.224-0.5-0.5s0.224-0.5,0.5-0.5h0.927c0.276,0,0.5,0.224,0.5,0.5S15.74,23,15.464,23z M18.247,23H17.32
			c-0.276,0-0.5-0.224-0.5-0.5s0.224-0.5,0.5-0.5h0.927c0.276,0,0.5,0.224,0.5,0.5S18.523,23,18.247,23z M18.247,8H17.32
			c-0.276,0-0.5-0.224-0.5-0.5S17.044,7,17.32,7h0.927c0.276,0,0.5,0.224,0.5,0.5S18.523,8,18.247,8z M20.101,7h0.927
			c0.276,0,0.5,0.224,0.5,0.5S21.303,8,21.027,8h-0.927c-0.276,0-0.5-0.224-0.5-0.5S19.825,7,20.101,7z M21.029,23h-0.927
			c-0.276,0-0.5-0.224-0.5-0.5s0.224-0.5,0.5-0.5h0.927c0.276,0,0.5,0.224,0.5,0.5S21.305,23,21.029,23z M23.883,22.5
			c0,0.276-0.224,0.5-0.5,0.5h-0.5c-0.276,0-0.5-0.224-0.5-0.5s0.224-0.5,0.5-0.5c0-0.276,0.224-0.5,0.5-0.5s0.5,0.224,0.5,0.5V22.5
			z M25,19.038c0,0.276-0.224,0.5-0.5,0.5H24c-0.021,0-0.039-0.009-0.059-0.012c-0.02,0.003-0.038,0.012-0.059,0.012
			c0,0.276-0.224,0.5-0.5,0.5s-0.5-0.224-0.5-0.5v-0.5c0-0.276,0.224-0.5,0.5-0.5h0.5c0.021,0,0.039,0.009,0.059,0.012
			c0.02-0.003,0.038-0.012,0.059-0.012c0-0.276,0.224-0.5,0.5-0.5s0.5,0.224,0.5,0.5V19.038z M25,16.769c0,0.276-0.224,0.5-0.5,0.5
			s-0.5-0.224-0.5-0.5v-0.884c0-0.276,0.224-0.5,0.5-0.5s0.5,0.224,0.5,0.5V16.769z M25,14.115c0,0.276-0.224,0.5-0.5,0.5
			s-0.5-0.224-0.5-0.5V13.23c0-0.276,0.224-0.5,0.5-0.5s0.5,0.224,0.5,0.5V14.115z M25,11.462c0,0.276-0.224,0.5-0.5,0.5
			s-0.5-0.224-0.5-0.5c-0.021,0-0.039-0.009-0.059-0.012c-0.02,0.003-0.038,0.012-0.059,0.012h-0.5c-0.276,0-0.5-0.224-0.5-0.5v-0.5
			c0-0.276,0.224-0.5,0.5-0.5s0.5,0.224,0.5,0.5c0.021,0,0.039,0.009,0.059,0.012c0.02-0.003,0.038-0.012,0.059-0.012h0.5
			c0.276,0,0.5,0.224,0.5,0.5V11.462z"/>
	</g>
</g>
</svg>
