<?xml version="1.0" encoding="iso-8859-1"?>
<!-- Generator: Adobe Illustrator 19.0.0, SVG Export Plug-In . SVG Version: 6.00 Build 0)  -->
<svg version="1.1" id="Layer_1" xmlns="http://www.w3.org/2000/svg" xmlns:xlink="http://www.w3.org/1999/xlink" x="0px" y="0px"
	 viewBox="0 0 30 30" style="enable-background:new 0 0 30 30;" xml:space="preserve">
<g>
	<g>
		<path d="M29.846,14.01c-0.704-0.682-1.108-1.636-1.108-2.616v-0.807c0-1.564-1.195-2.854-2.72-3.007
			c-0.81-3.686-4.055-6.319-7.867-6.319h-0.176c-0.97,0-1.917-0.396-2.619-1.11c-0.094-0.097-0.223-0.15-0.357-0.15h-0.001
			c-0.135,0-0.264,0.056-0.358,0.152c-0.682,0.704-1.636,1.108-2.617,1.108h-0.176c-3.812,0-7.057,2.634-7.867,6.319
			c-1.525,0.152-2.72,1.442-2.72,3.007v0.807c0,0.97-0.397,1.917-1.106,2.614C0.056,14.102,0,14.232,0,14.367
			s0.054,0.267,0.152,0.361c0.705,0.683,1.109,1.637,1.109,2.617v0.807c0,1.5,1.1,2.749,2.535,2.982
			c0.24,4.233,3.759,7.604,8.052,7.604h0.176c0.97,0,1.917,0.396,2.619,1.11c0.094,0.097,0.223,0.15,0.357,0.15h0.001
			c0.135,0,0.264-0.056,0.358-0.152c0.682-0.704,1.636-1.108,2.617-1.108h0.176c4.292,0,7.812-3.371,8.052-7.604
			c1.436-0.233,2.535-1.482,2.535-2.982v-0.807c0-0.97,0.397-1.917,1.114-2.623c0.095-0.095,0.147-0.224,0.146-0.357
			C29.998,14.232,29.943,14.104,29.846,14.01z M23.482,9.682l0.095,0.569h0.577c0.01,0,0.018,0.005,0.027,0.005
			c0.009-0.001,0.017-0.005,0.027-0.005h1c0.25,0,0.46,0.184,0.495,0.431l0.117,1.046c0.01,0.275-0.207,0.507-0.482,0.517H25.32
			c-0.268,0-0.49-0.213-0.499-0.483l-0.045-0.51h-0.568c-0.01,0-0.018-0.005-0.027-0.005c-0.009,0.001-0.017,0.005-0.027,0.005h-1
			c-0.244,0-0.453-0.177-0.493-0.417l-0.166-0.986c-0.045-0.272,0.138-0.53,0.411-0.576C23.175,9.22,23.438,9.409,23.482,9.682z
			 M4.18,10.751c0-0.276,0.224-0.5,0.5-0.5h1c0.01,0,0.018,0.005,0.027,0.005c0.009-0.001,0.017-0.005,0.027-0.005h0.599
			l0.129-0.585c0.06-0.269,0.326-0.438,0.596-0.38c0.27,0.06,0.44,0.327,0.38,0.597L7.221,10.86
			c-0.051,0.229-0.254,0.392-0.488,0.392h-1c-0.01,0-0.018-0.005-0.027-0.005c-0.009,0.001-0.017,0.005-0.027,0.005h-0.5
			l-0.004,0.518c-0.009,0.271-0.23,0.483-0.499,0.483H4.659c-0.276-0.009-0.493-0.24-0.483-0.517L4.18,10.751z M3.897,15.465
			c-0.094-0.291-0.21-0.578-0.347-0.853c-0.07-0.141-0.07-0.306,0-0.446c0.138-0.275,0.255-0.563,0.348-0.854
			c0.084-0.262,0.363-0.405,0.628-0.324c0.263,0.084,0.408,0.365,0.324,0.629c-0.083,0.262-0.184,0.521-0.299,0.773
			c0.114,0.251,0.214,0.509,0.298,0.771c0.084,0.263-0.061,0.544-0.323,0.628c-0.051,0.017-0.103,0.024-0.153,0.024
			C4.162,15.813,3.965,15.678,3.897,15.465z M6.107,18.536c-0.078,0-0.149-0.021-0.214-0.052c-0.065,0.031-0.137,0.052-0.214,0.052
			h-1c-0.276,0-0.5-0.224-0.5-0.5l-0.003-0.985c-0.009-0.276,0.208-0.508,0.483-0.517c0.254,0,0.507,0.206,0.516,0.483l0.004,0.519
			h0.5c0.078,0,0.149,0.021,0.214,0.052c0.065-0.031,0.137-0.052,0.214-0.052h1c0.276,0,0.5,0.224,0.5,0.5v1
			c0,0.276-0.224,0.5-0.5,0.5s-0.5-0.224-0.5-0.5v-0.5H6.107z M8.333,23.727c-0.089,0.064-0.192,0.096-0.294,0.096
			c-0.154,0-0.307-0.071-0.404-0.205c-0.486-0.666-0.815-1.445-0.953-2.253c-0.046-0.272,0.137-0.53,0.409-0.577
			c0.276-0.043,0.531,0.137,0.577,0.409c0.111,0.656,0.379,1.29,0.774,1.831C8.605,23.251,8.556,23.563,8.333,23.727z M8.844,6.492
			c-0.422,0.436-0.743,0.943-0.953,1.51C7.816,8.203,7.625,8.327,7.422,8.327c-0.058,0-0.117-0.01-0.174-0.031
			C6.99,8.199,6.857,7.911,6.954,7.652c0.259-0.695,0.654-1.32,1.172-1.855c0.192-0.198,0.508-0.203,0.707-0.012
			C9.031,5.978,9.036,6.294,8.844,6.492z M11.865,25.82h-0.01c-0.834-0.017-1.631-0.221-2.369-0.606
			c-0.245-0.128-0.339-0.431-0.212-0.675c0.128-0.245,0.431-0.338,0.675-0.212c0.6,0.313,1.248,0.479,1.926,0.493
			c0.276,0.006,0.495,0.234,0.49,0.51C12.36,25.604,12.138,25.82,11.865,25.82z M12.092,5.18h-0.129
			c-0.569,0-1.121,0.107-1.641,0.317c-0.062,0.025-0.125,0.037-0.188,0.037c-0.197,0-0.385-0.118-0.463-0.313
			c-0.104-0.256,0.02-0.547,0.275-0.65c0.64-0.26,1.319-0.392,2.017-0.392h0.129c0.276,0,0.5,0.224,0.5,0.5S12.368,5.18,12.092,5.18
			z M16.076,26.102c-0.294,0.094-0.581,0.21-0.853,0.346c-0.07,0.035-0.147,0.053-0.223,0.053s-0.152-0.018-0.223-0.052
			c-0.273-0.136-0.56-0.252-0.853-0.346c-0.263-0.085-0.408-0.366-0.324-0.629c0.084-0.262,0.365-0.406,0.628-0.324
			c0.262,0.084,0.52,0.184,0.77,0.297c0.25-0.113,0.508-0.213,0.771-0.298c0.263-0.08,0.545,0.061,0.629,0.324
			C16.484,25.735,16.339,26.017,16.076,26.102z M16.4,4.526c-0.067,0.213-0.264,0.349-0.477,0.349c-0.05,0-0.101-0.008-0.151-0.023
			c-0.261-0.083-0.52-0.183-0.773-0.298c-0.253,0.115-0.512,0.215-0.772,0.298c-0.264,0.084-0.544-0.063-0.628-0.325
			c-0.084-0.264,0.062-0.545,0.325-0.629c0.289-0.092,0.575-0.208,0.852-0.346c0.141-0.07,0.306-0.07,0.446,0
			c0.276,0.138,0.563,0.254,0.853,0.346C16.339,3.982,16.484,4.262,16.4,4.526z M17.393,4.68c0-0.276,0.224-0.5,0.5-0.5h0.141
			c0.691,0,1.364,0.13,2,0.385c0.256,0.103,0.381,0.394,0.278,0.65c-0.078,0.195-0.266,0.313-0.464,0.313
			c-0.062,0-0.125-0.012-0.186-0.036c-0.517-0.207-1.065-0.313-1.628-0.313h-0.141C17.617,5.18,17.393,4.956,17.393,4.68z
			 M20.522,25.207c-0.734,0.387-1.53,0.593-2.366,0.613h-0.012c-0.271,0-0.493-0.216-0.5-0.488
			c-0.006-0.275,0.212-0.505,0.488-0.512c0.68-0.017,1.328-0.184,1.924-0.498c0.245-0.129,0.546-0.035,0.675,0.209
			C20.862,24.776,20.767,25.078,20.522,25.207z M21.148,5.773c0.197-0.191,0.513-0.191,0.707,0.008
			c0.52,0.53,0.916,1.151,1.178,1.846C23.131,7.886,23,8.174,22.742,8.272c-0.058,0.021-0.118,0.032-0.177,0.032
			c-0.202,0-0.392-0.123-0.468-0.323c-0.213-0.564-0.535-1.068-0.958-1.5C20.948,6.284,20.951,5.967,21.148,5.773z M22.37,23.607
			c-0.098,0.135-0.25,0.206-0.405,0.206c-0.102,0-0.205-0.031-0.293-0.096c-0.224-0.162-0.273-0.475-0.11-0.698
			c0.393-0.541,0.659-1.175,0.77-1.832c0.045-0.272,0.302-0.458,0.576-0.41c0.272,0.046,0.456,0.304,0.411,0.576
			C23.181,22.162,22.853,22.942,22.37,23.607z M25.818,18.036c0,0.276-0.224,0.5-0.5,0.5h-1c-0.077,0-0.148-0.021-0.214-0.052
			c-0.065,0.031-0.136,0.052-0.214,0.052h-0.5v0.5c0,0.276-0.224,0.5-0.5,0.5s-0.5-0.224-0.5-0.5v-1c0-0.276,0.224-0.5,0.5-0.5h1
			c0.077,0,0.148,0.021,0.214,0.052c0.065-0.031,0.136-0.052,0.214-0.052h0.5l0.005-0.521c0.011-0.276,0.276-0.471,0.519-0.48
			c0.276,0.012,0.491,0.244,0.48,0.52L25.818,18.036z M26.445,14.621c-0.137,0.274-0.254,0.563-0.348,0.854
			c-0.068,0.212-0.264,0.348-0.476,0.348c-0.05,0-0.102-0.008-0.152-0.023c-0.263-0.085-0.408-0.366-0.324-0.629
			c0.084-0.263,0.184-0.522,0.299-0.773c-0.114-0.251-0.214-0.51-0.297-0.771c-0.084-0.264,0.061-0.545,0.324-0.629
			c0.263-0.083,0.544,0.062,0.628,0.324c0.094,0.293,0.21,0.58,0.346,0.854C26.516,14.315,26.516,14.48,26.445,14.621z"/>
	</g>
</g>
</svg>
