<?xml version="1.0" encoding="iso-8859-1"?>
<!-- Generator: Adobe Illustrator 19.0.0, SVG Export Plug-In . SVG Version: 6.00 Build 0)  -->
<svg version="1.1" id="Layer_1" xmlns="http://www.w3.org/2000/svg" xmlns:xlink="http://www.w3.org/1999/xlink" x="0px" y="0px"
	 viewBox="0 0 30 30" style="enable-background:new 0 0 30 30;" xml:space="preserve">
<g>
	<g>
		<path d="M22.998,8.624l-0.001-0.537c-0.001-0.275-0.225-0.499-0.5-0.499c-2.37,0-5.217-1.417-6.988-2.821L15.31,4.609
			c-0.182-0.145-0.438-0.145-0.62-0.001l-0.201,0.159C12.773,6.127,9.946,7.5,7.498,7.5c-0.276,0-0.5,0.224-0.5,0.5v0.536
			C2.353,9.922,0,12.096,0,15c0,2.905,2.354,5.078,6.999,6.464L7,22.001C7.001,22.276,7.225,22.5,7.5,22.5
			c2.447,0,5.273,1.373,6.99,2.734l0.2,0.158c0.091,0.071,0.2,0.107,0.31,0.107s0.22-0.036,0.311-0.108l0.199-0.158
			c1.716-1.36,4.543-2.733,6.991-2.733c0.276,0,0.5-0.224,0.5-0.5v-0.536C27.646,20.078,30,17.904,30,15
			C29.999,12.111,27.707,10.023,22.998,8.624z M13.921,8.524c0.287-0.141,0.568-0.293,0.844-0.455c0.156-0.092,0.352-0.092,0.508,0
			c0.275,0.162,0.558,0.314,0.845,0.455c0.248,0.122,0.351,0.421,0.229,0.669c-0.087,0.178-0.265,0.28-0.449,0.28
			c-0.074,0-0.149-0.017-0.22-0.051c-0.223-0.109-0.442-0.225-0.659-0.346c-0.216,0.121-0.436,0.236-0.658,0.346
			c-0.246,0.119-0.548,0.02-0.669-0.229C13.571,8.945,13.673,8.646,13.921,8.524z M4.197,16.455
			c-0.087,0.062-0.188,0.091-0.287,0.091c-0.157,0-0.312-0.074-0.409-0.213c-0.32-0.456-0.481-0.904-0.48-1.335
			c0-0.426,0.16-0.872,0.476-1.324c0.16-0.228,0.473-0.279,0.696-0.124c0.227,0.158,0.282,0.47,0.124,0.696
			C4.124,14.523,4.021,14.784,4.021,15c-0.001,0.218,0.103,0.479,0.299,0.759C4.478,15.984,4.423,16.296,4.197,16.455z
			 M5.341,12.059c0.613-0.371,1.329-0.71,2.127-1.005c0.26-0.098,0.547,0.036,0.643,0.295c0.096,0.259-0.036,0.547-0.295,0.643
			c-0.739,0.273-1.397,0.584-1.957,0.923c-0.081,0.049-0.17,0.072-0.259,0.072c-0.169,0-0.334-0.086-0.428-0.241
			C5.03,12.509,5.105,12.201,5.341,12.059z M8.119,18.654C8.045,18.855,7.853,18.98,7.65,18.98c-0.058,0-0.116-0.01-0.173-0.031
			c-0.797-0.294-1.513-0.631-2.129-1.003c-0.236-0.143-0.312-0.449-0.169-0.687c0.143-0.236,0.451-0.311,0.687-0.169
			c0.562,0.339,1.22,0.648,1.957,0.921C8.082,18.107,8.214,18.395,8.119,18.654z M12.243,20.263
			c-0.06,0.224-0.262,0.371-0.483,0.371c-0.042,0-0.085-0.005-0.129-0.017c-0.311-0.083-0.625-0.154-0.94-0.214
			c-0.236-0.044-0.408-0.25-0.408-0.49v-0.128L9.685,19.62c-0.267-0.073-0.423-0.349-0.349-0.614
			c0.073-0.267,0.351-0.424,0.614-0.349l0.964,0.267c0.217,0.06,0.367,0.256,0.367,0.48v0.101c0.203,0.044,0.405,0.093,0.607,0.146
			C12.155,19.722,12.313,19.995,12.243,20.263z M11.891,10.349c-0.202,0.055-0.404,0.104-0.608,0.148v0.099
			c0,0.225-0.15,0.422-0.367,0.481l-0.964,0.267c-0.044,0.013-0.089,0.019-0.133,0.019c-0.22,0-0.421-0.146-0.481-0.367
			c-0.074-0.266,0.082-0.541,0.349-0.614l0.597-0.166v-0.126c0-0.24,0.172-0.447,0.408-0.491c0.316-0.06,0.63-0.131,0.94-0.214
			c0.271-0.071,0.541,0.086,0.612,0.353C12.316,10.003,12.158,10.276,11.891,10.349z M16.119,21.477
			c-0.287,0.141-0.569,0.293-0.845,0.455C15.196,21.977,15.108,22,15.02,22s-0.176-0.023-0.254-0.069
			c-0.275-0.162-0.558-0.314-0.845-0.455c-0.248-0.122-0.351-0.421-0.229-0.669c0.122-0.249,0.424-0.348,0.669-0.229
			c0.223,0.109,0.442,0.225,0.659,0.346c0.216-0.121,0.437-0.236,0.659-0.346c0.246-0.119,0.547-0.021,0.669,0.229
			C16.469,21.055,16.367,21.354,16.119,21.477z M20.354,19.62l-0.597,0.166v0.126c0,0.24-0.172,0.447-0.408,0.491
			c-0.316,0.06-0.63,0.131-0.94,0.214c-0.044,0.012-0.087,0.018-0.13,0.018c-0.221,0-0.423-0.146-0.482-0.37
			c-0.072-0.267,0.086-0.541,0.353-0.612c0.202-0.055,0.404-0.104,0.608-0.148v-0.099c0-0.225,0.15-0.422,0.367-0.481l0.964-0.267
			c0.266-0.075,0.542,0.083,0.614,0.349C20.777,19.271,20.621,19.547,20.354,19.62z M20.705,10.995
			c-0.061,0.222-0.262,0.367-0.481,0.367c-0.044,0-0.089-0.006-0.133-0.019l-0.964-0.267c-0.217-0.06-0.367-0.256-0.367-0.48v-0.1
			c-0.204-0.045-0.406-0.094-0.607-0.147c-0.267-0.071-0.426-0.346-0.354-0.612c0.071-0.266,0.342-0.421,0.612-0.354
			c0.31,0.083,0.624,0.154,0.94,0.214c0.236,0.044,0.408,0.25,0.408,0.49v0.128l0.598,0.166
			C20.623,10.454,20.779,10.729,20.705,10.995z M21.921,11.347c0.096-0.259,0.385-0.392,0.642-0.296
			c0.797,0.294,1.513,0.631,2.129,1.003c0.236,0.143,0.312,0.449,0.169,0.687c-0.094,0.155-0.259,0.241-0.428,0.241
			c-0.089,0-0.178-0.023-0.259-0.072c-0.562-0.339-1.22-0.648-1.957-0.921C21.957,11.893,21.826,11.605,21.921,11.347z
			 M24.699,17.941c-0.613,0.371-1.329,0.71-2.127,1.005c-0.058,0.021-0.116,0.031-0.174,0.031c-0.203,0-0.395-0.125-0.469-0.326
			c-0.096-0.259,0.036-0.547,0.295-0.643c0.739-0.273,1.397-0.584,1.957-0.923c0.236-0.141,0.544-0.068,0.687,0.169
			C25.01,17.491,24.935,17.799,24.699,17.941z M26.544,16.326c-0.098,0.14-0.253,0.214-0.41,0.214c-0.1,0-0.199-0.029-0.286-0.09
			c-0.227-0.158-0.282-0.47-0.124-0.696c0.193-0.277,0.296-0.538,0.296-0.754c0.001-0.218-0.103-0.479-0.299-0.759
			c-0.159-0.226-0.104-0.537,0.122-0.696c0.224-0.158,0.537-0.104,0.696,0.122c0.32,0.456,0.481,0.904,0.48,1.335
			C27.02,15.428,26.86,15.874,26.544,16.326z"/>
	</g>
</g>
</svg>
