<?xml version="1.0" encoding="iso-8859-1"?>
<!-- Generator: Adobe Illustrator 19.0.0, SVG Export Plug-In . SVG Version: 6.00 Build 0)  -->
<svg version="1.1" id="Layer_1" xmlns="http://www.w3.org/2000/svg" xmlns:xlink="http://www.w3.org/1999/xlink" x="0px" y="0px"
	 viewBox="0 0 30 30" style="enable-background:new 0 0 30 30;" xml:space="preserve">
<g>
	<g>
		<path d="M29.813,14.609l-2.313-1.85v-2.26c0-0.276-0.224-0.5-0.5-0.5h-2V8c0.003-0.807-0.304-1.561-0.864-2.124
			C23.573,5.311,22.814,4.999,22,4.999h-3.315l-3.359-2.88c-0.188-0.16-0.463-0.16-0.65,0L11.316,5H8.001c-1.683,0-3,1.317-3,3v2h-2
			c-0.276,0-0.5,0.224-0.5,0.5v2.26l-2.313,1.85C0.07,14.704,0,14.847,0,15c0,0.153,0.069,0.296,0.188,0.391l2.313,1.85v2.26
			c0,0.276,0.224,0.5,0.5,0.5h2v2c0,1.683,1.317,3,3,3h3.315l3.359,2.88c0.094,0.08,0.209,0.12,0.325,0.12
			c0.116,0,0.231-0.04,0.325-0.12l3.359-2.88h3.315c1.674,0,2.992-1.316,3-3v-2h2c0.276,0,0.5-0.224,0.5-0.5v-2.26l2.313-1.85
			C29.93,15.296,30,15.153,30,15C30,14.847,29.931,14.703,29.813,14.609z M20.674,7.729h1c0.133,0,0.261,0.053,0.354,0.147
			c0.094,0.094,0.146,0.222,0.146,0.354l-0.004,1c-0.001,0.275-0.225,0.498-0.5,0.498c-0.001,0-0.001,0-0.002,0
			c-0.276-0.001-0.499-0.226-0.498-0.502l0.002-0.498h-0.498c-0.276,0-0.5-0.224-0.5-0.5S20.398,7.729,20.674,7.729z M7.448,17.347
			c-0.07,0-0.136-0.015-0.196-0.04c-0.06,0.024-0.126,0.039-0.196,0.039h-1c-0.276,0-0.5-0.224-0.5-0.5V16.12l-0.859-0.734
			c-0.111-0.095-0.175-0.234-0.175-0.381c0-0.147,0.064-0.285,0.176-0.38l0.858-0.729v-0.741c0-0.276,0.224-0.5,0.5-0.5h1
			c0.07,0,0.136,0.015,0.196,0.04c0.06-0.026,0.127-0.04,0.196-0.04h0.5v-0.5c0-0.276,0.224-0.5,0.5-0.5s0.5,0.224,0.5,0.5v1
			c0,0.276-0.224,0.5-0.5,0.5h-1c-0.07,0-0.136-0.015-0.196-0.04c-0.06,0.026-0.127,0.04-0.196,0.04h-0.5v0.473
			c0,0.146-0.064,0.286-0.176,0.381l-0.588,0.499l0.589,0.503c0.11,0.095,0.175,0.233,0.175,0.38v0.457h0.5
			c0.07,0,0.136,0.015,0.196,0.04c0.06-0.026,0.127-0.04,0.196-0.04h1c0.276,0,0.5,0.224,0.5,0.5v1c0,0.276-0.224,0.5-0.5,0.5
			s-0.5-0.224-0.5-0.5v-0.5H7.448z M9.449,22.271h-1c-0.276,0-0.5-0.224-0.5-0.5v-1c0-0.276,0.224-0.5,0.5-0.5s0.5,0.224,0.5,0.5
			v0.5h0.5c0.276,0,0.5,0.224,0.5,0.5S9.725,22.271,9.449,22.271z M9.449,8.729h-0.5v0.5c0,0.276-0.224,0.5-0.5,0.5
			s-0.5-0.224-0.5-0.5v-1c0-0.276,0.224-0.5,0.5-0.5h1c0.276,0,0.5,0.224,0.5,0.5S9.725,8.729,9.449,8.729z M12.881,22.271h-1.716
			c-0.276,0-0.5-0.224-0.5-0.5s0.224-0.5,0.5-0.5h1.716c0.276,0,0.5,0.224,0.5,0.5S13.158,22.271,12.881,22.271z M12.925,8.729
			h-1.738c-0.276,0-0.5-0.224-0.5-0.5s0.224-0.5,0.5-0.5h1.738c0.276,0,0.5,0.224,0.5,0.5S13.202,8.729,12.925,8.729z
			 M16.046,23.235l-0.764,0.646C15.188,23.961,15.074,24,14.959,24s-0.231-0.04-0.324-0.12l-0.761-0.649
			c-0.21-0.179-0.235-0.494-0.056-0.704c0.18-0.211,0.496-0.235,0.704-0.056l0.438,0.373l0.438-0.371
			c0.213-0.177,0.526-0.151,0.705,0.059C16.284,22.742,16.256,23.057,16.046,23.235z M16.17,7.471
			c-0.099,0.116-0.239,0.176-0.381,0.176c-0.114,0-0.229-0.039-0.324-0.119l-0.438-0.372l-0.438,0.372
			c-0.211,0.18-0.527,0.154-0.705-0.057c-0.179-0.211-0.153-0.526,0.057-0.705l0.762-0.647c0.188-0.158,0.461-0.158,0.648,0
			l0.762,0.647C16.324,6.945,16.349,7.26,16.17,7.471z M18.854,22.271H17.09c-0.276,0-0.5-0.224-0.5-0.5s0.224-0.5,0.5-0.5h1.764
			c0.276,0,0.5,0.224,0.5,0.5S19.13,22.271,18.854,22.271z M18.914,8.729h-1.761c-0.276,0-0.5-0.224-0.5-0.5s0.224-0.5,0.5-0.5
			h1.761c0.276,0,0.5,0.224,0.5,0.5S19.19,8.729,18.914,8.729z M22.118,21.771c-0.001,0.275-0.225,0.498-0.5,0.498h-1
			c-0.276,0-0.5-0.224-0.5-0.5s0.224-0.5,0.5-0.5h0.502l0.003-0.502c0.001-0.275,0.225-0.498,0.5-0.498c0.001,0,0.002,0,0.002,0
			c0.276,0.001,0.499,0.227,0.498,0.502L22.118,21.771z M25.345,15.375l-0.846,0.715v0.756c0,0.276-0.224,0.5-0.5,0.5h-1
			c-0.064,0-0.124-0.014-0.18-0.036c-0.056,0.022-0.116,0.036-0.18,0.036h-0.502l-0.003,0.502c-0.001,0.275-0.225,0.498-0.5,0.498
			c-0.001,0-0.002,0-0.002,0c-0.276-0.001-0.499-0.227-0.498-0.502l0.005-1c0.001-0.275,0.225-0.498,0.5-0.498h1
			c0.064,0,0.124,0.014,0.18,0.036c0.056-0.022,0.116-0.036,0.18-0.036h0.5v-0.488c0-0.147,0.064-0.287,0.177-0.382l0.572-0.483
			l-0.572-0.485c-0.112-0.095-0.177-0.234-0.177-0.381v-0.473h-0.5c-0.061,0-0.118-0.015-0.172-0.035
			c-0.054,0.02-0.111,0.035-0.172,0.035h-1c-0.133,0-0.261-0.053-0.354-0.147c-0.094-0.094-0.146-0.222-0.146-0.354l0.004-1
			c0.001-0.275,0.225-0.498,0.5-0.498c0.001,0,0.001,0,0.002,0c0.276,0.001,0.499,0.226,0.498,0.502l-0.002,0.498h0.498
			c0.061,0,0.118,0.015,0.172,0.035c0.054-0.02,0.111-0.035,0.172-0.035h1c0.276,0,0.5,0.224,0.5,0.5v0.741l0.846,0.718
			c0.112,0.095,0.177,0.234,0.177,0.381C25.522,15.141,25.457,15.281,25.345,15.375z"/>
	</g>
</g>
</svg>
