<?xml version="1.0" encoding="iso-8859-1"?>
<!-- Generator: Adobe Illustrator 19.0.0, SVG Export Plug-In . SVG Version: 6.00 Build 0)  -->
<svg version="1.1" id="Layer_1" xmlns="http://www.w3.org/2000/svg" xmlns:xlink="http://www.w3.org/1999/xlink" x="0px" y="0px"
	 viewBox="0 0 30 30" style="enable-background:new 0 0 30 30;" xml:space="preserve">
<g>
	<g>
		<path d="M29.443,10.951c0.34-2.066-0.844-4.066-2.815-4.756l-3.563-1.244c-0.798-0.278-1.556-0.662-2.254-1.141l-2.687-1.841
			c-1.897-1.302-4.352-1.304-6.249,0L9.187,3.81C8.49,4.289,7.732,4.672,6.934,4.951L3.372,6.195
			c-1.973,0.689-3.157,2.69-2.815,4.757l0.509,3.08c0.104,0.63,0.104,1.269,0.001,1.899l-0.34,2.07
			c-0.439,2.675,1.094,5.263,3.645,6.153l2.563,0.896c0.798,0.278,1.556,0.662,2.254,1.141l2.687,1.841
			c0.949,0.651,2.036,0.977,3.125,0.977c1.087,0,2.176-0.325,3.124-0.977l2.688-1.841c0.697-0.479,1.455-0.862,2.253-1.141
			l2.561-0.895c2.552-0.892,4.085-3.48,3.645-6.156l-0.338-2.049c-0.104-0.631-0.104-1.27,0-1.9L29.443,10.951z M22.869,8.502
			c0.091-0.261,0.376-0.399,0.637-0.307l1.849,0.645L25.23,9.326l-0.18,0.467l-1.874-0.654C22.915,9.048,22.777,8.763,22.869,8.502z
			 M25.989,16.301l0.092,0.559c0.045,0.272-0.14,0.529-0.412,0.574c-0.027,0.005-0.055,0.007-0.082,0.007
			c-0.24,0-0.452-0.174-0.492-0.419l-0.092-0.558c-0.08-0.48-0.121-0.973-0.121-1.462c0-0.276,0.225-0.524,0.5-0.524
			c0.276,0,0.501,0.2,0.501,0.477c0,0.01-0.001,0.067-0.002,0.077C25.882,15.436,25.918,15.873,25.989,16.301z M19.222,6.888
			c0.141-0.239,0.447-0.317,0.685-0.179c0.552,0.324,1.133,0.603,1.727,0.827c0.258,0.099,0.388,0.387,0.29,0.646
			c-0.076,0.199-0.267,0.322-0.468,0.322c-0.059,0-0.119-0.011-0.178-0.032c-0.646-0.245-1.276-0.548-1.877-0.899
			C19.162,7.433,19.082,7.126,19.222,6.888z M15.935,4.633c0.154-0.226,0.448-0.299,0.679-0.145l1.655,1.134
			c0.229,0.155,0.286,0.467,0.13,0.694c-0.097,0.142-0.253,0.218-0.412,0.218c-0.098,0-0.196-0.028-0.282-0.088l-1.624-1.112
			C15.853,5.179,15.781,4.861,15.935,4.633z M3.502,10.453c0-0.132,0.016-0.266,0.047-0.396c0.063-0.268,0.329-0.439,0.603-0.37
			c0.269,0.064,0.435,0.334,0.37,0.603c-0.013,0.054-0.02,0.109-0.02,0.163c0,0.039,0.003,0.08,0.01,0.12l0.246,1.496
			c0.045,0.272-0.14,0.529-0.412,0.574c-0.027,0.005-0.055,0.007-0.082,0.007c-0.24,0-0.452-0.174-0.492-0.419l-0.247-1.498
			C3.509,10.637,3.502,10.543,3.502,10.453z M4.775,20.446c-0.082,0.051-0.173,0.075-0.264,0.075c-0.167,0-0.33-0.084-0.425-0.236
			c-0.288-0.463-0.44-0.997-0.44-1.543c0-0.159,0.013-0.32,0.04-0.48l0.041-0.248c0.045-0.273,0.307-0.46,0.574-0.412
			c0.272,0.045,0.457,0.302,0.412,0.574l-0.041,0.25c-0.018,0.107-0.026,0.212-0.026,0.316c0,0.359,0.101,0.71,0.29,1.016
			C5.082,19.992,5.01,20.3,4.775,20.446z M5.037,16.188c-0.033,0.251-0.248,0.434-0.494,0.434c-0.022,0-0.045-0.001-0.067-0.005
			c-0.274-0.036-0.466-0.288-0.429-0.562c0.047-0.354,0.071-0.713,0.071-1.068c0-0.271-0.014-0.54-0.041-0.81
			c-0.028-0.274,0.172-0.521,0.446-0.548c0.271-0.035,0.52,0.171,0.548,0.446c0.031,0.303,0.047,0.607,0.047,0.911
			C5.118,15.387,5.091,15.791,5.037,16.188z M5.085,9.216C4.993,8.955,5.131,8.67,5.392,8.579L7.281,7.92
			c0.261-0.094,0.547,0.046,0.637,0.307C8.01,8.488,7.872,8.773,7.611,8.864L5.722,9.523c-0.055,0.02-0.11,0.028-0.165,0.028
			C5.35,9.551,5.156,9.422,5.085,9.216z M8.469,21.966c-0.072,0.207-0.266,0.336-0.473,0.336c-0.055,0-0.11-0.009-0.164-0.027
			l-1.889-0.657c-0.261-0.091-0.398-0.376-0.309-0.637c0.092-0.262,0.381-0.396,0.637-0.309l1.889,0.657
			C8.421,21.42,8.559,21.705,8.469,21.966z M8.859,7.891C8.744,7.64,8.852,7.343,9.103,7.227c0.582-0.269,1.142-0.587,1.665-0.944
			c0.229-0.153,0.539-0.098,0.695,0.131c0.155,0.229,0.097,0.539-0.131,0.695c-0.569,0.389-1.178,0.733-1.81,1.026
			c-0.068,0.031-0.14,0.046-0.21,0.046C9.125,8.181,8.944,8.073,8.859,7.891z M11.944,23.92c-0.097,0.142-0.253,0.218-0.412,0.218
			c-0.098,0-0.196-0.028-0.282-0.088l-0.468-0.32c-0.377-0.257-0.773-0.494-1.177-0.705c-0.245-0.128-0.34-0.43-0.212-0.675
			s0.431-0.337,0.675-0.212c0.438,0.229,0.868,0.487,1.278,0.767l0.468,0.321C12.043,23.381,12.101,23.692,11.944,23.92z
			 M12.419,5.152l0.938-0.643c0.289-0.198,0.606-0.341,0.944-0.425c0.27-0.065,0.54,0.096,0.606,0.364s-0.097,0.539-0.364,0.606
			C14.32,5.11,14.11,5.203,13.921,5.333l-0.938,0.642c-0.086,0.06-0.185,0.088-0.282,0.088c-0.159,0-0.315-0.076-0.412-0.218
			C12.133,5.619,12.19,5.309,12.419,5.152z M16.355,25.666c-0.414,0.218-0.882,0.334-1.354,0.335c-0.589,0-1.157-0.176-1.645-0.508
			l-0.457-0.313c-0.228-0.156-0.286-0.468-0.131-0.695c0.158-0.228,0.471-0.284,0.695-0.131l0.457,0.313
			c0.579,0.396,1.355,0.439,1.968,0.114c0.242-0.128,0.547-0.036,0.676,0.209C16.693,25.234,16.6,25.537,16.355,25.666z
			 M19.703,23.417c-0.164,0.102-0.327,0.206-0.486,0.315l-1.153,0.789c-0.086,0.059-0.185,0.087-0.282,0.087
			c-0.159,0-0.315-0.076-0.413-0.218c-0.155-0.228-0.097-0.539,0.131-0.695l1.153-0.789c0.173-0.117,0.348-0.231,0.525-0.341
			c0.234-0.142,0.543-0.072,0.688,0.163C20.011,22.964,19.939,23.272,19.703,23.417z M23.272,21.89l-1.33,0.464
			c-0.18,0.063-0.356,0.129-0.53,0.199c-0.062,0.025-0.126,0.037-0.188,0.037c-0.197,0-0.385-0.117-0.463-0.312
			c-0.104-0.256,0.019-0.548,0.274-0.651c0.191-0.078,0.384-0.15,0.579-0.218l1.328-0.463c0.261-0.095,0.547,0.046,0.637,0.307
			C23.67,21.514,23.532,21.799,23.272,21.89z M25.246,21.029c-0.092,0.073-0.201,0.108-0.311,0.108
			c-0.147,0-0.293-0.064-0.392-0.189c-0.172-0.217-0.136-0.531,0.081-0.702c0.419-0.332,0.682-0.829,0.721-1.363
			c0.021-0.275,0.262-0.483,0.536-0.462c0.275,0.021,0.481,0.261,0.462,0.536C26.284,19.769,25.884,20.524,25.246,21.029z
			 M26.097,13.051c-0.04,0.245-0.252,0.419-0.492,0.419c-0.027,0-0.055-0.002-0.082-0.007c-0.272-0.045-0.457-0.302-0.412-0.574
			l0.324-1.974c0.045-0.273,0.307-0.461,0.574-0.412c0.272,0.045,0.457,0.302,0.412,0.574L26.097,13.051z"/>
	</g>
</g>
</svg>
