<?xml version="1.0" encoding="iso-8859-1"?>
<!-- Generator: Adobe Illustrator 19.0.0, SVG Export Plug-In . SVG Version: 6.00 Build 0)  -->
<svg version="1.1" id="Layer_1" xmlns="http://www.w3.org/2000/svg" xmlns:xlink="http://www.w3.org/1999/xlink" x="0px" y="0px"
	 viewBox="0 0 30 30" style="enable-background:new 0 0 30 30;" xml:space="preserve">
<g>
	<g>
		<path d="M27.999,10.069V6.5c0-0.276-0.224-0.5-0.5-0.5c-1.799,0-3.5-1.701-3.5-3.5c0-0.276-0.224-0.5-0.5-0.5h-4.561
			c-0.228-0.904-1.2-2-4.569-2c-3.093,0-4.093,0.997-4.316,2H6.5C6.224,2,6,2.224,6,2.5C6,4.299,4.299,6,2.5,6
			C2.224,6,2,6.224,2,6.5v3.569C0.738,10.432,0,12.218,0,15s0.738,4.567,2,4.931V23.5C2,23.776,2.224,24,2.5,24
			C4.299,24,6,25.701,6,27.5C6,27.776,6.224,28,6.5,28h3.569c0.364,1.263,2.149,2,4.931,2s4.567-0.737,4.931-2H23.5
			c0.276,0,0.5-0.224,0.5-0.5c0-1.799,1.701-3.5,3.5-3.5c0.276,0,0.5-0.224,0.5-0.5v-3.354c1.463-0.445,2-2.866,2-5.146
			C29.999,12.219,29.261,10.433,27.999,10.069z M3.489,12.931c0.09-0.152,0.254-0.246,0.431-0.246h1
			c0.004,0,0.007,0.002,0.011,0.002c0.004,0,0.007-0.002,0.011-0.002h0.5v-0.5c0-0.276,0.224-0.5,0.5-0.5s0.5,0.224,0.5,0.5v1
			c0,0.276-0.224,0.5-0.5,0.5h-1c-0.004,0-0.007-0.002-0.011-0.002c-0.004,0-0.007,0.002-0.011,0.002H4.236
			c-0.049,0.129-0.104,0.306-0.146,0.532c-0.045,0.24-0.255,0.408-0.491,0.408c-0.03,0-0.061-0.003-0.092-0.009
			c-0.271-0.05-0.451-0.312-0.4-0.583C3.215,13.454,3.393,13.094,3.489,12.931z M4.931,17.312c-0.004,0.001-0.007,0.003-0.011,0.003
			h-1c-0.177,0-0.341-0.094-0.431-0.246c-0.096-0.163-0.274-0.523-0.382-1.103c-0.05-0.271,0.129-0.533,0.4-0.583
			c0.269-0.052,0.532,0.128,0.583,0.399c0.042,0.227,0.097,0.403,0.146,0.532H4.92c0.004,0,0.007,0.002,0.011,0.002
			c0.004,0,0.007-0.002,0.011-0.002h1c0.276,0,0.5,0.224,0.5,0.5v1c0,0.276-0.224,0.5-0.5,0.5s-0.5-0.224-0.5-0.5v-0.5h-0.5
			C4.938,17.314,4.935,17.312,4.931,17.312z M7.244,21.704c-0.096,0.146-0.256,0.227-0.419,0.227c-0.094,0-0.189-0.026-0.273-0.081
			c-0.257-0.169-0.53-0.316-0.81-0.438c-0.182-0.079-0.3-0.259-0.3-0.458v-1c0-0.276,0.224-0.5,0.5-0.5s0.5,0.224,0.5,0.5v0.682
			c0.226,0.113,0.446,0.239,0.657,0.377C7.33,21.163,7.395,21.474,7.244,21.704z M7.099,8.988C6.888,9.126,6.668,9.252,6.442,9.365
			v0.682c0,0.276-0.224,0.5-0.5,0.5s-0.5-0.224-0.5-0.5v-1c0-0.199,0.118-0.379,0.3-0.458c0.28-0.122,0.553-0.27,0.81-0.438
			c0.229-0.149,0.541-0.085,0.692,0.146C7.395,8.526,7.33,8.837,7.099,8.988z M8.171,6.531c0.168-0.258,0.316-0.53,0.438-0.811
			c0.08-0.182,0.259-0.299,0.458-0.299h1c0.276,0,0.5,0.224,0.5,0.5s-0.222,0.5-0.499,0.5H9.385
			C9.272,6.647,9.146,6.866,9.008,7.077C8.912,7.223,8.752,7.304,8.589,7.304c-0.094,0-0.189-0.026-0.273-0.081
			C8.085,7.072,8.02,6.761,8.171,6.531z M10.068,24.579h-1c-0.199,0-0.378-0.117-0.458-0.299C8.487,24,8.34,23.727,8.172,23.469
			c-0.151-0.23-0.086-0.541,0.145-0.692c0.23-0.15,0.542-0.085,0.692,0.146c0.138,0.211,0.264,0.431,0.377,0.656h0.683
			c0.276,0,0.5,0.224,0.5,0.5S10.345,24.579,10.068,24.579z M11.1,5.921c0-0.276,0.224-0.5,0.5-0.5h0.5v-0.5
			c0-0.004,0.002-0.007,0.002-0.011c0-0.004-0.002-0.007-0.002-0.011v-1c0-0.177,0.093-0.34,0.245-0.43
			c0.163-0.097,0.523-0.275,1.104-0.383c0.269-0.054,0.532,0.129,0.583,0.399c0.05,0.271-0.129,0.533-0.4,0.583
			c-0.227,0.043-0.403,0.097-0.531,0.146v0.684c0,0.004-0.002,0.007-0.002,0.011c0,0.004,0.002,0.007,0.002,0.011v1
			c0,0.276-0.224,0.5-0.5,0.5h-1C11.324,6.421,11.1,6.197,11.1,5.921z M14.146,26.922c-0.03,0-0.061-0.003-0.092-0.009
			c-0.58-0.107-0.94-0.285-1.104-0.382c-0.152-0.09-0.246-0.254-0.246-0.431v-1c0-0.004,0.002-0.007,0.002-0.011
			c0-0.004-0.002-0.007-0.002-0.011v-0.5h-0.5c-0.276,0-0.5-0.224-0.5-0.5s0.224-0.5,0.5-0.5h1c0.276,0,0.5,0.224,0.5,0.5v1
			c0,0.004-0.002,0.007-0.002,0.011c0,0.004,0.002,0.007,0.002,0.011v0.684c0.129,0.05,0.305,0.104,0.532,0.146
			c0.271,0.05,0.451,0.312,0.4,0.583C14.592,26.754,14.382,26.922,14.146,26.922z M14.799,3.486c0.05-0.271,0.311-0.454,0.583-0.399
			c0.58,0.107,0.94,0.285,1.104,0.382c0.152,0.09,0.246,0.254,0.246,0.431v1c0,0.004-0.002,0.007-0.002,0.011
			c0,0.004,0.002,0.007,0.002,0.011v0.5h0.5c0.276,0,0.5,0.224,0.5,0.5s-0.224,0.5-0.5,0.5h-1c-0.276,0-0.5-0.224-0.5-0.5v-1
			c0-0.004,0.002-0.007,0.002-0.011c0-0.004-0.002-0.007-0.002-0.011V4.216c-0.129-0.05-0.305-0.104-0.532-0.146
			C14.928,4.02,14.749,3.758,14.799,3.486z M17.837,24.579h-0.5v0.5c0,0.004-0.002,0.007-0.002,0.011
			c0,0.004,0.002,0.007,0.002,0.011v1c0,0.177-0.093,0.341-0.246,0.431c-0.163,0.097-0.524,0.274-1.104,0.382
			c-0.031,0.006-0.062,0.009-0.092,0.009c-0.236,0-0.446-0.168-0.491-0.408c-0.05-0.271,0.129-0.533,0.4-0.583
			c0.227-0.043,0.403-0.097,0.532-0.146v-0.684c0-0.004,0.002-0.007,0.002-0.011c0-0.004-0.002-0.007-0.002-0.011v-1
			c0-0.276,0.224-0.5,0.5-0.5h1c0.276,0,0.5,0.224,0.5,0.5S18.113,24.579,17.837,24.579z M25.099,12.685
			c0.004,0,0.007,0.002,0.011,0.002c0.004,0,0.007-0.002,0.011-0.002h1c0.177,0,0.341,0.094,0.431,0.246
			c0.096,0.163,0.274,0.523,0.382,1.103c0.051,0.271-0.128,0.532-0.4,0.582c-0.031,0.006-0.062,0.009-0.092,0.009
			c-0.236,0-0.446-0.168-0.491-0.408c-0.042-0.227-0.097-0.403-0.146-0.532h-0.684c-0.004,0-0.007-0.002-0.011-0.002
			c-0.004,0-0.007,0.002-0.011,0.002h-1c-0.276,0-0.5-0.224-0.5-0.5v-1c0-0.276,0.224-0.5,0.5-0.5s0.5,0.224,0.5,0.5v0.5H25.099z
			 M22.798,8.296c0.151-0.23,0.462-0.294,0.692-0.146c0.257,0.169,0.53,0.316,0.81,0.438c0.182,0.079,0.3,0.259,0.3,0.458v1
			c0,0.276-0.224,0.5-0.5,0.5s-0.5-0.224-0.5-0.5V9.364c-0.226-0.113-0.446-0.239-0.657-0.377
			C22.712,8.837,22.647,8.526,22.798,8.296z M19.973,5.421h1c0.199,0,0.378,0.117,0.458,0.299c0.123,0.28,0.27,0.553,0.438,0.811
			c0.152,0.23,0.088,0.54-0.144,0.692c-0.084,0.055-0.179,0.081-0.273,0.081c-0.163,0-0.323-0.08-0.419-0.227
			c-0.138-0.211-0.264-0.431-0.377-0.656h-0.683c-0.276,0-0.5-0.224-0.5-0.5S19.697,5.421,19.973,5.421z M21.87,23.47
			c-0.168,0.258-0.316,0.53-0.438,0.811c-0.08,0.182-0.259,0.299-0.458,0.299h-1c-0.276,0-0.5-0.224-0.5-0.5s0.224-0.5,0.5-0.5
			h0.683c0.113-0.226,0.239-0.445,0.377-0.656c0.151-0.229,0.462-0.295,0.692-0.146C21.957,22.929,22.021,23.239,21.87,23.47z
			 M24.3,21.411c-0.28,0.122-0.553,0.27-0.81,0.438c-0.084,0.055-0.179,0.081-0.273,0.081c-0.163,0-0.323-0.08-0.419-0.227
			c-0.151-0.23-0.086-0.541,0.145-0.692c0.211-0.138,0.431-0.264,0.657-0.377v-0.682c0-0.276,0.224-0.5,0.5-0.5s0.5,0.224,0.5,0.5
			c0,0,0,1.001,0,1.001C24.6,21.152,24.482,21.332,24.3,21.411z M26.553,17.069c-0.09,0.152-0.254,0.246-0.431,0.246h-1
			c-0.004,0-0.007-0.002-0.011-0.002c-0.004,0-0.007,0.002-0.011,0.002h-0.5v0.5c0,0.276-0.224,0.5-0.5,0.5s-0.5-0.224-0.5-0.5v-1
			c0-0.276,0.224-0.5,0.5-0.5h1c0.004,0,0.007,0.002,0.011,0.002c0.004,0,0.007-0.002,0.011-0.002h0.684
			c0.049-0.129,0.104-0.306,0.146-0.532c0.051-0.271,0.309-0.452,0.583-0.399c0.271,0.05,0.451,0.312,0.4,0.583
			C26.827,16.546,26.649,16.906,26.553,17.069z"/>
	</g>
</g>
</svg>
