<?xml version="1.0" encoding="iso-8859-1"?>
<!-- Generator: Adobe Illustrator 19.0.0, SVG Export Plug-In . SVG Version: 6.00 Build 0)  -->
<svg version="1.1" id="Layer_1" xmlns="http://www.w3.org/2000/svg" xmlns:xlink="http://www.w3.org/1999/xlink" x="0px" y="0px"
	 viewBox="0 0 30 30" style="enable-background:new 0 0 30 30;" xml:space="preserve">
<g>
	<g>
		<path d="M29.942,10.642c0.336-2.117-1.188-4.119-2.941-4.967V2.501c0-0.276-0.224-0.5-0.5-0.5h-6.847l-1.42-0.961
			c-1.935-1.376-4.533-1.376-6.437-0.021L10.178,2H3.5C3.224,2,3,2.224,3,2.5v3.174c-1.753,0.848-3.278,2.851-2.941,4.969
			l0.526,3.308c0.108,0.684,0.109,1.376,0.001,2.059l-0.352,2.224c-0.372,2.35,1.08,4.758,2.766,6.024v3.243
			c0,0.276,0.224,0.5,0.5,0.5h6.847l1.419,0.961c0.968,0.688,2.103,1.032,3.236,1.032c1.13,0,2.26-0.342,3.221-1.025l1.43-0.968
			H26.5c0.276,0,0.5-0.224,0.5-0.5v-3.244c1.685-1.267,3.136-3.675,2.762-6.025l-0.35-2.201c-0.108-0.683-0.108-1.376,0-2.059
			L29.942,10.642z M4.821,8.002l0.614-0.244V7.097c0-0.031,0.012-0.058,0.018-0.087C5.448,6.981,5.435,6.954,5.435,6.923v-1
			c0-0.276,0.224-0.5,0.5-0.5h1c0.276,0,0.5,0.224,0.5,0.5s-0.224,0.499-0.5,0.499h-0.5v0.5c0,0.031-0.012,0.058-0.018,0.087
			c0.005,0.029,0.018,0.056,0.018,0.087v1c0,0.205-0.125,0.389-0.315,0.465l-0.929,0.37C5.13,8.954,5.067,8.966,5.006,8.966
			c-0.199,0-0.387-0.119-0.464-0.315C4.439,8.395,4.565,8.104,4.821,8.002z M3.041,10.439c-0.018-0.113-0.027-0.227-0.027-0.337
			c0-0.145,0.015-0.289,0.044-0.428c0.056-0.271,0.315-0.45,0.591-0.388C3.92,9.342,4.093,9.607,4.036,9.877
			c-0.015,0.072-0.022,0.148-0.022,0.225c0,0.06,0.005,0.12,0.015,0.181l0.23,1.452c0.043,0.272-0.143,0.528-0.415,0.572
			c-0.027,0.004-0.053,0.006-0.079,0.006c-0.242,0-0.454-0.176-0.493-0.422L3.041,10.439z M3.99,20.447
			c-0.054,0.019-0.109,0.027-0.163,0.027c-0.208,0-0.401-0.13-0.473-0.337c-0.124-0.359-0.187-0.735-0.187-1.118
			c0-0.18,0.014-0.36,0.043-0.541l0.097-0.615c0.042-0.272,0.3-0.453,0.572-0.416c0.272,0.043,0.459,0.3,0.416,0.572l-0.097,0.615
			c-0.02,0.128-0.03,0.258-0.03,0.385c0,0.271,0.044,0.537,0.132,0.792C4.389,20.072,4.251,20.357,3.99,20.447z M4.108,16.404
			c-0.017,0-0.034-0.001-0.051-0.003c-0.274-0.027-0.475-0.272-0.447-0.547c0.029-0.29,0.043-0.58,0.044-0.871
			c0-0.356-0.022-0.718-0.066-1.073c-0.034-0.274,0.161-0.523,0.435-0.558c0.275-0.037,0.524,0.16,0.558,0.435
			c0.049,0.396,0.074,0.799,0.074,1.197c0,0.325-0.017,0.648-0.049,0.97C4.579,16.212,4.362,16.404,4.108,16.404z M6.935,24.58h-1
			c-0.276,0-0.5-0.224-0.5-0.5v-1.722l-0.607-0.415c-0.228-0.156-0.286-0.468-0.13-0.695c0.155-0.228,0.466-0.285,0.695-0.131
			l0.825,0.564c0.136,0.094,0.218,0.248,0.218,0.413v1.485h0.5c0.276,0,0.5,0.224,0.5,0.5S7.211,24.58,6.935,24.58z M11.25,24.369
			c-0.098,0.142-0.253,0.219-0.412,0.219c-0.029,0-0.059-0.002-0.089-0.008H8.893c-0.276,0-0.5-0.224-0.5-0.5s0.224-0.5,0.5-0.5
			h1.938c0.102,0,0.2,0.031,0.284,0.089C11.343,23.825,11.407,24.142,11.25,24.369z M11.136,6.319
			c-0.085,0.061-0.199,0.103-0.304,0.103H8.891c-0.276,0-0.5-0.224-0.5-0.5s0.224-0.5,0.5-0.5h1.907
			c0.168-0.013,0.341,0.059,0.446,0.203C11.405,5.85,11.36,6.157,11.136,6.319z M12.148,4.373L13.3,3.555
			c0.178-0.127,0.367-0.233,0.564-0.317c0.252-0.11,0.547,0.008,0.657,0.262c0.109,0.254-0.008,0.548-0.262,0.656
			C14.128,4.213,14,4.285,13.88,4.37l-1.152,0.818c-0.088,0.063-0.189,0.093-0.289,0.093c-0.157,0-0.311-0.073-0.408-0.21
			C11.87,4.845,11.923,4.532,12.148,4.373z M14.524,26.503c-0.081,0.189-0.266,0.304-0.46,0.304c-0.065,0-0.132-0.013-0.196-0.04
			c-0.199-0.085-0.39-0.192-0.569-0.319l-1.149-0.817c-0.225-0.16-0.278-0.472-0.118-0.697c0.16-0.225,0.471-0.277,0.697-0.117
			l1.15,0.817c0.121,0.086,0.249,0.157,0.381,0.214C14.514,25.955,14.633,26.249,14.524,26.503z M15.504,3.499
			c0.109-0.256,0.404-0.371,0.656-0.264c0.199,0.085,0.39,0.192,0.567,0.32l1.15,0.816c0.225,0.159,0.278,0.472,0.118,0.696
			c-0.098,0.138-0.251,0.211-0.408,0.211c-0.1,0-0.201-0.03-0.289-0.093l-1.151-0.817c-0.121-0.086-0.248-0.157-0.379-0.214
			C15.514,4.047,15.395,3.753,15.504,3.499z M17.88,25.629l-1.153,0.818c-0.179,0.127-0.369,0.233-0.565,0.316
			c-0.064,0.027-0.13,0.04-0.195,0.04c-0.194,0-0.379-0.114-0.46-0.305c-0.108-0.255,0.011-0.548,0.265-0.655
			c0.129-0.055,0.256-0.126,0.376-0.212l1.153-0.818c0.225-0.16,0.537-0.107,0.697,0.118S18.105,25.469,17.88,25.629z M18.782,5.626
			c0.117-0.163,0.311-0.242,0.496-0.204h1.857c0.276,0,0.5,0.224,0.5,0.5s-0.224,0.5-0.5,0.5h-1.939
			c-0.104,0-0.206-0.032-0.291-0.093C18.681,6.168,18.621,5.852,18.782,5.626z M21.138,24.58h-1.91
			c-0.013,0.001-0.025,0.001-0.037,0.001c-0.159,0-0.315-0.073-0.411-0.212c-0.158-0.227-0.107-0.534,0.119-0.691
			c0.084-0.059,0.195-0.098,0.297-0.098h1.942c0.276,0,0.5,0.224,0.5,0.5S21.414,24.58,21.138,24.58z M23.093,5.422h1
			c0.276,0,0.5,0.224,0.5,0.5v1c0,0.032-0.012,0.059-0.018,0.089c0.006,0.03,0.018,0.057,0.018,0.089v0.66l0.614,0.244
			c0.257,0.102,0.382,0.393,0.28,0.649c-0.078,0.196-0.266,0.315-0.465,0.315c-0.062,0-0.124-0.012-0.185-0.035l-0.93-0.369
			c-0.19-0.076-0.315-0.26-0.315-0.465v-1c0-0.032,0.012-0.059,0.018-0.089c-0.006-0.03-0.018-0.057-0.018-0.089v-0.5h-0.5
			c-0.276,0-0.5-0.224-0.5-0.5S22.817,5.422,23.093,5.422z M25.201,21.94l-0.608,0.417v1.723c0,0.276-0.224,0.5-0.5,0.5h-1
			c-0.276,0-0.5-0.224-0.5-0.5s0.224-0.5,0.5-0.5h0.5v-1.486c0-0.165,0.082-0.319,0.217-0.412l0.825-0.565
			c0.228-0.156,0.539-0.099,0.695,0.13C25.487,21.474,25.429,21.785,25.201,21.94z M25.418,15.945
			c-0.031-0.313-0.046-0.628-0.046-0.943c0-0.409,0.026-0.821,0.078-1.224c0.036-0.272,0.287-0.466,0.56-0.433
			c0.274,0.035,0.468,0.286,0.433,0.56c-0.046,0.36-0.07,0.729-0.07,1.097c0,0.282,0.014,0.564,0.042,0.846
			c0.027,0.274-0.174,0.52-0.448,0.547c-0.017,0.001-0.034,0.002-0.05,0.002C25.661,16.397,25.444,16.204,25.418,15.945z
			 M26.675,20.126c-0.071,0.208-0.265,0.339-0.473,0.339c-0.054,0-0.108-0.009-0.161-0.026c-0.262-0.09-0.401-0.374-0.312-0.635
			c0.086-0.252,0.129-0.516,0.129-0.784c0-0.128-0.01-0.257-0.03-0.385l-0.099-0.624c-0.043-0.272,0.143-0.528,0.415-0.572
			c0.277-0.04,0.529,0.144,0.572,0.416l0.099,0.624c0.029,0.181,0.043,0.36,0.043,0.541C26.858,19.397,26.797,19.77,26.675,20.126z
			 M26.987,10.439l-0.229,1.445c-0.039,0.246-0.251,0.422-0.493,0.422c-0.026,0-0.052-0.002-0.079-0.006
			c-0.272-0.044-0.458-0.3-0.415-0.572L26,10.283c0.009-0.061,0.014-0.12,0.014-0.179c0-0.078-0.008-0.156-0.024-0.232
			c-0.057-0.271,0.116-0.535,0.386-0.593c0.27-0.054,0.536,0.115,0.593,0.386c0.03,0.145,0.046,0.292,0.046,0.439
			C27.014,10.216,27.005,10.328,26.987,10.439z"/>
	</g>
</g>
</svg>
