<?xml version="1.0" encoding="iso-8859-1"?>
<!-- Generator: Adobe Illustrator 19.0.0, SVG Export Plug-In . SVG Version: 6.00 Build 0)  -->
<svg version="1.1" id="Layer_1" xmlns="http://www.w3.org/2000/svg" xmlns:xlink="http://www.w3.org/1999/xlink" x="0px" y="0px"
	 viewBox="0 0 30 30" style="enable-background:new 0 0 30 30;" xml:space="preserve">
<g>
	<g>
		<path d="M27,10.943V9.5C27,9.224,26.776,9,26.5,9c-3.25,0-5.609-2.313-5.609-5.5c0-0.276-0.224-0.5-0.5-0.5h-1.439
			C18.665,1.494,17.122,0,15,0c-2.116,0-3.751,1.496-4.057,3H9.5C9.224,3,9,3.224,9,3.5C9,6.687,6.687,9,3.5,9
			C3.224,9,3,9.224,3,9.5v1.443C1.497,11.249,0,12.883,0,15s1.497,3.751,3,4.057V20.5C3,20.776,3.224,21,3.5,21
			C6.687,21,9,23.313,9,26.5C9,26.776,9.224,27,9.5,27h1.443c0.306,1.504,1.941,3,4.057,3s3.75-1.496,4.057-3H20.5
			c0.276,0,0.5-0.224,0.5-0.5c0-3.187,2.313-5.5,5.5-5.5c0.276,0,0.5-0.224,0.5-0.5v-1.443c1.503-0.306,3-1.94,3-4.057
			S28.503,11.249,27,10.943z M6.816,12.842v1c0,0.276-0.224,0.5-0.5,0.5h-1c-0.007,0-0.012-0.004-0.019-0.004
			s-0.012,0.004-0.019,0.004H4.597c-0.042,0.129-0.078,0.296-0.091,0.488c-0.004,0.062-0.022,0.12-0.046,0.174
			c0.023,0.052,0.042,0.107,0.046,0.166c0.013,0.192,0.049,0.359,0.091,0.488h0.681c0.007,0,0.012,0.004,0.019,0.004
			s0.012-0.004,0.019-0.004h1c0.276,0,0.5,0.224,0.5,0.5v1c0,0.013-0.006,0.024-0.007,0.037c0.001,0.013,0.007,0.024,0.007,0.037
			v0.637c0.217,0.075,0.431,0.159,0.64,0.251c0.252,0.111,0.367,0.407,0.256,0.659c-0.083,0.188-0.266,0.299-0.458,0.299
			c-0.067,0-0.136-0.014-0.201-0.042c-0.285-0.126-0.579-0.234-0.881-0.325c-0.211-0.063-0.356-0.258-0.356-0.479v-1
			c0-0.013,0.006-0.024,0.007-0.037c-0.001-0.013-0.007-0.024-0.007-0.037v-0.5h-0.5c-0.007,0-0.012-0.004-0.019-0.004
			s-0.012,0.004-0.019,0.004h-1c-0.171,0-0.33-0.087-0.421-0.231c-0.09-0.141-0.304-0.538-0.349-1.188
			c-0.006-0.086,0.016-0.165,0.05-0.238c-0.034-0.073-0.056-0.152-0.05-0.238c0.045-0.65,0.259-1.048,0.349-1.188
			c0.092-0.145,0.25-0.231,0.421-0.231h1c0.007,0,0.012,0.004,0.019,0.004s0.012-0.004,0.019-0.004h0.5v-0.5
			c0-0.013,0.006-0.024,0.007-0.037c-0.001-0.013-0.007-0.024-0.007-0.037v-1c0-0.221,0.145-0.415,0.356-0.479
			c0.302-0.091,0.596-0.199,0.881-0.325c0.253-0.11,0.547,0.004,0.659,0.257c0.111,0.252-0.003,0.548-0.256,0.659
			c-0.209,0.092-0.423,0.176-0.64,0.251v0.637c0,0.013-0.006,0.024-0.007,0.037C6.81,12.818,6.816,12.829,6.816,12.842z M8.668,10
			c0.496-0.387,0.943-0.834,1.331-1.33c0.169-0.217,0.483-0.258,0.702-0.087c0.218,0.17,0.256,0.484,0.086,0.702
			c-0.437,0.561-0.943,1.066-1.503,1.504c-0.091,0.071-0.2,0.105-0.307,0.105c-0.149,0-0.296-0.066-0.395-0.192
			C8.412,10.484,8.45,10.17,8.668,10z M10.702,21.419c-0.091,0.071-0.2,0.105-0.307,0.105c-0.149,0-0.296-0.066-0.395-0.192
			C9.613,20.836,9.165,20.388,8.669,20c-0.218-0.17-0.256-0.483-0.086-0.701c0.169-0.218,0.483-0.259,0.702-0.086
			c0.561,0.438,1.066,0.943,1.503,1.504C10.958,20.935,10.92,21.249,10.702,21.419z M10.964,7.052
			c0.125-0.283,0.234-0.577,0.323-0.879c0.063-0.212,0.258-0.357,0.479-0.357h1c0.013,0,0.024,0.007,0.037,0.008
			c0.013-0.001,0.024-0.008,0.037-0.008h0.5v-0.5c0-0.007,0.003-0.012,0.004-0.019c0-0.007-0.004-0.012-0.004-0.019v-1
			c0-0.17,0.086-0.328,0.229-0.421c0.141-0.09,0.538-0.305,1.191-0.35c0.085-0.007,0.163,0.015,0.236,0.048
			c0.073-0.034,0.152-0.056,0.239-0.048c0.653,0.045,1.05,0.26,1.191,0.35c0.143,0.093,0.229,0.251,0.229,0.421v1
			c0,0.007-0.003,0.012-0.004,0.019c0,0.007,0.004,0.012,0.004,0.019v0.5h0.5c0.013,0,0.024,0.007,0.037,0.008
			c0.013-0.001,0.024-0.008,0.037-0.008h1c0.221,0,0.417,0.146,0.479,0.357c0.089,0.302,0.198,0.596,0.323,0.879
			c0.115,0.253,0.001,0.548-0.252,0.659c-0.066,0.029-0.134,0.043-0.202,0.043c-0.192,0-0.375-0.111-0.458-0.298
			c-0.092-0.209-0.177-0.424-0.252-0.641h-0.636c-0.013,0-0.024-0.007-0.037-0.008c-0.013,0.001-0.024,0.008-0.037,0.008h-1
			c-0.276,0-0.5-0.224-0.5-0.5v-1c0-0.007,0.003-0.012,0.004-0.019c0-0.007-0.004-0.012-0.004-0.019V4.595
			c-0.118-0.039-0.28-0.077-0.488-0.091c-0.061-0.004-0.117-0.023-0.17-0.046c-0.053,0.024-0.109,0.042-0.17,0.046
			c-0.208,0.014-0.37,0.052-0.488,0.091v0.682c0,0.007-0.003,0.012-0.004,0.019c0,0.007,0.004,0.012,0.004,0.019v1
			c0,0.276-0.224,0.5-0.5,0.5h-1c-0.013,0-0.024-0.007-0.037-0.008c-0.013,0.001-0.024,0.008-0.037,0.008h-0.636
			c-0.075,0.217-0.16,0.432-0.252,0.641c-0.083,0.187-0.266,0.298-0.458,0.298c-0.067,0-0.136-0.014-0.202-0.043
			C10.967,7.6,10.852,7.305,10.964,7.052z M19.035,22.948c-0.125,0.283-0.234,0.577-0.323,0.879
			c-0.063,0.212-0.258,0.357-0.479,0.357h-1c-0.013,0-0.024-0.007-0.037-0.008c-0.013,0.001-0.024,0.008-0.037,0.008h-0.5v0.5
			c0,0.007-0.003,0.012-0.004,0.019c0,0.007,0.004,0.012,0.004,0.019v1c0,0.17-0.086,0.328-0.229,0.421
			c-0.141,0.09-0.538,0.305-1.191,0.35c-0.011,0.001-0.023,0.001-0.034,0.001c-0.073,0-0.14-0.019-0.203-0.047
			c-0.063,0.028-0.13,0.047-0.203,0.047c-0.011,0-0.023,0-0.034-0.001c-0.653-0.045-1.05-0.26-1.191-0.35
			c-0.143-0.093-0.229-0.251-0.229-0.421v-1c0-0.007,0.003-0.012,0.004-0.019c0-0.007-0.004-0.012-0.004-0.019v-0.5h-0.5
			c-0.013,0-0.024-0.007-0.037-0.008c-0.013,0.001-0.024,0.008-0.037,0.008h-1c-0.221,0-0.417-0.146-0.479-0.357
			c-0.089-0.302-0.198-0.596-0.323-0.879c-0.111-0.253,0.003-0.548,0.255-0.659c0.255-0.113,0.548,0.003,0.66,0.255
			c0.092,0.209,0.177,0.424,0.252,0.641h0.636c0.013,0,0.024,0.007,0.037,0.008c0.013-0.001,0.024-0.008,0.037-0.008h1
			c0.276,0,0.5,0.224,0.5,0.5v1c0,0.007-0.003,0.012-0.004,0.019c0,0.007,0.004,0.012,0.004,0.019v0.682
			c0.118,0.039,0.28,0.077,0.488,0.091c0.061,0.004,0.117,0.023,0.17,0.046c0.053-0.024,0.109-0.042,0.17-0.046
			c0.208-0.014,0.37-0.052,0.488-0.091v-0.682c0-0.007,0.003-0.012,0.004-0.019c0-0.007-0.004-0.012-0.004-0.019v-1
			c0-0.276,0.224-0.5,0.5-0.5h1c0.013,0,0.024,0.007,0.037,0.008c0.013-0.001,0.024-0.008,0.037-0.008h0.636
			c0.075-0.217,0.16-0.432,0.252-0.641c0.112-0.252,0.407-0.368,0.66-0.255C19.032,22.4,19.146,22.695,19.035,22.948z M19.298,8.581
			C19.516,8.41,19.83,8.451,20,8.668c0.387,0.496,0.835,0.944,1.331,1.332c0.218,0.17,0.256,0.483,0.086,0.701
			c-0.099,0.126-0.246,0.192-0.395,0.192c-0.107,0-0.216-0.034-0.307-0.106c-0.561-0.438-1.066-0.943-1.503-1.504
			C19.042,9.065,19.08,8.751,19.298,8.581z M21.332,20c-0.496,0.387-0.943,0.834-1.331,1.33c-0.098,0.126-0.246,0.192-0.395,0.192
			c-0.107,0-0.216-0.034-0.307-0.105c-0.218-0.17-0.256-0.484-0.086-0.702c0.437-0.561,0.943-1.066,1.503-1.504
			c0.217-0.171,0.532-0.13,0.702,0.087C21.588,19.516,21.55,19.83,21.332,20z M26.492,15.238c-0.045,0.65-0.259,1.048-0.349,1.188
			c-0.092,0.145-0.25,0.231-0.421,0.231h-1c-0.007,0-0.012-0.004-0.019-0.004s-0.012,0.004-0.019,0.004h-0.5v0.5
			c0,0.013-0.006,0.024-0.007,0.037c0.001,0.013,0.007,0.024,0.007,0.037v1c0,0.221-0.145,0.415-0.356,0.479
			c-0.302,0.091-0.596,0.199-0.881,0.325c-0.065,0.028-0.134,0.042-0.201,0.042c-0.192,0-0.375-0.111-0.458-0.299
			c-0.111-0.252,0.003-0.548,0.256-0.659c0.209-0.092,0.423-0.176,0.64-0.251v-0.637c0-0.013,0.006-0.024,0.007-0.037
			c-0.001-0.013-0.007-0.024-0.007-0.037v-1c0-0.276,0.224-0.5,0.5-0.5h1c0.007,0,0.012,0.004,0.019,0.004
			c0.007,0,0.012-0.004,0.019-0.004h0.681c0.042-0.129,0.078-0.296,0.091-0.488c0.004-0.06,0.023-0.116,0.046-0.168
			c-0.024-0.053-0.042-0.11-0.046-0.172c-0.013-0.192-0.049-0.359-0.091-0.488h-0.681c-0.007,0-0.012-0.004-0.019-0.004
			s-0.012,0.004-0.019,0.004h-1c-0.276,0-0.5-0.224-0.5-0.5v-1c0-0.013,0.006-0.024,0.007-0.037
			c-0.001-0.013-0.007-0.024-0.007-0.037V12.13c-0.217-0.075-0.431-0.159-0.64-0.251c-0.252-0.111-0.367-0.407-0.256-0.659
			c0.111-0.253,0.406-0.367,0.659-0.257c0.285,0.126,0.579,0.234,0.881,0.325c0.211,0.063,0.356,0.258,0.356,0.479v1
			c0,0.013-0.006,0.024-0.007,0.037c0.001,0.013,0.007,0.024,0.007,0.037v0.5h0.5c0.007,0,0.012,0.004,0.019,0.004
			c0.007,0,0.012-0.004,0.019-0.004h1c0.171,0,0.33,0.087,0.421,0.231c0.09,0.141,0.304,0.538,0.349,1.188
			c0.006,0.086-0.016,0.165-0.05,0.238C26.476,15.073,26.498,15.152,26.492,15.238z"/>
	</g>
</g>
</svg>
