<?xml version="1.0" encoding="iso-8859-1"?>
<!-- Generator: Adobe Illustrator 19.0.0, SVG Export Plug-In . SVG Version: 6.00 Build 0)  -->
<svg version="1.1" id="Layer_1" xmlns="http://www.w3.org/2000/svg" xmlns:xlink="http://www.w3.org/1999/xlink" x="0px" y="0px"
	 viewBox="0 0 30 30" style="enable-background:new 0 0 30 30;" xml:space="preserve">
<g>
	<g>
		<path d="M28.24,5.044c-0.42,0-0.761-0.342-0.761-0.762c0-0.971-0.79-1.761-1.761-1.761h-0.973c-0.42,0-0.761-0.341-0.761-0.761
			c0-0.971-0.79-1.761-1.761-1.761H7.765c-0.971,0-1.761,0.79-1.761,1.761c0,0.42-0.341,0.761-0.761,0.761H4.282
			c-0.971,0-1.761,0.79-1.761,1.761c0,0.42-0.341,0.762-0.761,0.762c-0.971,0-1.761,0.79-1.761,1.761v16.391
			c0,0.971,0.79,1.761,1.761,1.761c0.42,0,0.761,0.342,0.761,0.762c0,0.971,0.79,1.761,1.761,1.761h0.962
			c0.42,0,0.761,0.341,0.761,0.761c0,0.971,0.79,1.761,1.761,1.761h14.469c0.971,0,1.761-0.79,1.761-1.761
			c0-0.42,0.341-0.761,0.761-0.761h0.962c0.971,0,1.761-0.79,1.761-1.761c0-0.42,0.341-0.762,0.761-0.762
			c0.971,0,1.761-0.79,1.761-1.761V6.805C30.001,5.833,29.211,5.044,28.24,5.044z M20.156,3h0.5c0.212,0,0.401,0.134,0.472,0.334
			c0.048,0.137,0.105,0.268,0.171,0.395c0.127,0.245,0.03,0.547-0.215,0.674c-0.073,0.038-0.151,0.056-0.229,0.056
			c-0.181,0-0.355-0.099-0.444-0.271C20.379,4.125,20.348,4.063,20.32,4h-0.163c-0.276,0-0.5-0.224-0.5-0.5S19.88,3,20.156,3z
			 M3.001,10.453c0-0.276,0.224-0.5,0.5-0.5s0.5,0.224,0.5,0.5v0.909c0,0.276-0.224,0.5-0.5,0.5s-0.5-0.224-0.5-0.5V10.453z
			 M3.001,13.18c0-0.276,0.224-0.5,0.5-0.5s0.5,0.224,0.5,0.5v0.91c0,0.276-0.224,0.5-0.5,0.5s-0.5-0.224-0.5-0.5V13.18z
			 M3.001,15.909c0-0.276,0.224-0.5,0.5-0.5s0.5,0.224,0.5,0.5v0.909c0,0.276-0.224,0.5-0.5,0.5s-0.5-0.224-0.5-0.5V15.909z
			 M3.001,18.636c0-0.276,0.224-0.5,0.5-0.5s0.5,0.224,0.5,0.5v0.909c0,0.276-0.224,0.5-0.5,0.5s-0.5-0.224-0.5-0.5V18.636z
			 M4.406,22.299c-0.09,0.171-0.263,0.268-0.442,0.268c-0.079,0-0.158-0.019-0.232-0.058c-0.127-0.066-0.26-0.124-0.396-0.172
			c-0.2-0.07-0.335-0.259-0.335-0.472v-0.5c0-0.276,0.224-0.5,0.5-0.5s0.5,0.224,0.5,0.5v0.163c0.066,0.03,0.132,0.062,0.195,0.096
			C4.441,21.753,4.535,22.055,4.406,22.299z M4.196,8.375C4.133,8.409,4.068,8.44,4.001,8.471v0.163c0,0.276-0.224,0.5-0.5,0.5
			s-0.5-0.224-0.5-0.5v-0.5c0-0.213,0.135-0.401,0.335-0.472C3.472,7.615,3.605,7.557,3.732,7.49
			c0.242-0.127,0.545-0.036,0.675,0.21C4.535,7.945,4.441,8.247,4.196,8.375z M6.216,24.591c-0.014,0-0.027-0.001-0.041-0.002
			c-0.084-0.007-0.168-0.01-0.253-0.01H5.716c-0.212,0-0.4-0.134-0.472-0.333c-0.049-0.139-0.106-0.271-0.173-0.399
			c-0.128-0.245-0.032-0.547,0.213-0.674c0.242-0.13,0.547-0.033,0.674,0.213c0.033,0.064,0.065,0.129,0.096,0.195
			c0.067,0.002,0.136,0.006,0.202,0.012c0.275,0.021,0.48,0.263,0.458,0.538C6.693,24.393,6.474,24.591,6.216,24.591z M6.255,6.406
			C6.189,6.412,6.12,6.417,6.053,6.419C6.023,6.484,5.99,6.549,5.957,6.614c-0.089,0.172-0.263,0.27-0.443,0.27
			c-0.078,0-0.157-0.018-0.23-0.057C5.039,6.7,4.943,6.398,5.071,6.153c0.066-0.128,0.124-0.261,0.173-0.399
			c0.071-0.199,0.26-0.333,0.472-0.333h0.207c0.085,0,0.169-0.003,0.253-0.01c0.276-0.015,0.517,0.183,0.538,0.458
			C6.735,6.145,6.53,6.385,6.255,6.406z M7.385,5.057C7.57,4.959,7.746,4.841,7.91,4.708c0.213-0.177,0.527-0.145,0.703,0.068
			c0.176,0.213,0.146,0.528-0.068,0.703C8.331,5.656,8.097,5.812,7.852,5.942C7.779,5.981,7.698,6,7.62,6
			C7.44,6,7.266,5.903,7.177,5.732C7.047,5.49,7.141,5.188,7.385,5.057z M8.228,25.406c-0.112,0-0.226-0.038-0.319-0.115
			c-0.161-0.134-0.338-0.252-0.523-0.35c-0.244-0.13-0.338-0.433-0.209-0.676c0.13-0.245,0.435-0.336,0.676-0.209
			c0.247,0.131,0.48,0.287,0.695,0.465c0.212,0.176,0.242,0.491,0.065,0.704C8.514,25.346,8.371,25.406,8.228,25.406z M9.846,27
			h-0.5c-0.212,0-0.401-0.134-0.472-0.334c-0.048-0.137-0.105-0.268-0.171-0.395c-0.127-0.245-0.03-0.547,0.215-0.674
			c0.243-0.127,0.547-0.031,0.674,0.215C9.625,25.873,9.656,25.935,9.684,26h0.163c0.276,0,0.5,0.224,0.5,0.5S10.122,27,9.846,27z
			 M9.846,4H9.683C9.655,4.063,9.625,4.125,9.592,4.188C9.503,4.359,9.328,4.458,9.148,4.458c-0.078,0-0.156-0.018-0.229-0.056
			C8.674,4.276,8.577,3.974,8.704,3.729c0.065-0.127,0.123-0.258,0.171-0.395C8.945,3.133,9.135,3,9.347,3h0.5
			c0.276,0,0.5,0.224,0.5,0.5S10.122,4,9.846,4z M12.659,27h-0.938c-0.276,0-0.5-0.224-0.5-0.5s0.224-0.5,0.5-0.5h0.938
			c0.276,0,0.5,0.224,0.5,0.5S12.935,27,12.659,27z M12.659,4h-0.938c-0.276,0-0.5-0.224-0.5-0.5s0.224-0.5,0.5-0.5h0.938
			c0.276,0,0.5,0.224,0.5,0.5S12.935,4,12.659,4z M15.47,27h-0.938c-0.276,0-0.5-0.224-0.5-0.5s0.224-0.5,0.5-0.5h0.938
			c0.276,0,0.5,0.224,0.5,0.5S15.746,27,15.47,27z M15.47,4h-0.938c-0.276,0-0.5-0.224-0.5-0.5s0.224-0.5,0.5-0.5h0.938
			c0.276,0,0.5,0.224,0.5,0.5S15.746,4,15.47,4z M18.281,27h-0.938c-0.276,0-0.5-0.224-0.5-0.5s0.224-0.5,0.5-0.5h0.938
			c0.276,0,0.5,0.224,0.5,0.5S18.558,27,18.281,27z M18.281,4h-0.938c-0.276,0-0.5-0.224-0.5-0.5s0.224-0.5,0.5-0.5h0.938
			c0.276,0,0.5,0.224,0.5,0.5S18.558,4,18.281,4z M21.299,26.271c-0.065,0.127-0.123,0.258-0.171,0.395
			c-0.07,0.2-0.26,0.334-0.472,0.334h-0.5c-0.276,0-0.5-0.224-0.5-0.5s0.224-0.5,0.5-0.5h0.163c0.028-0.063,0.059-0.126,0.091-0.188
			c0.127-0.246,0.431-0.342,0.674-0.215C21.329,25.724,21.426,26.026,21.299,26.271z M22.617,24.942
			c-0.185,0.098-0.361,0.216-0.525,0.35c-0.093,0.077-0.205,0.114-0.317,0.114c-0.145,0-0.287-0.063-0.386-0.183
			c-0.176-0.213-0.146-0.528,0.068-0.703c0.215-0.178,0.448-0.333,0.693-0.463c0.242-0.127,0.546-0.036,0.676,0.209
			C22.956,24.51,22.861,24.813,22.617,24.942z M22.826,5.732C22.737,5.903,22.563,6,22.385,6c-0.079,0-0.159-0.019-0.233-0.058
			c-0.247-0.131-0.48-0.287-0.695-0.465c-0.212-0.176-0.242-0.491-0.065-0.704c0.176-0.213,0.491-0.241,0.704-0.065
			c0.161,0.134,0.338,0.252,0.523,0.35C22.861,5.188,22.956,5.49,22.826,5.732z M24.932,23.846
			c-0.066,0.128-0.124,0.261-0.173,0.399c-0.071,0.199-0.26,0.333-0.472,0.333h-0.207c-0.085,0-0.169,0.003-0.253,0.01
			c-0.014,0.001-0.027,0.002-0.041,0.002c-0.258,0-0.477-0.198-0.497-0.46c-0.022-0.275,0.183-0.517,0.458-0.538
			c0.066-0.006,0.135-0.01,0.202-0.012c0.03-0.066,0.063-0.131,0.096-0.195c0.127-0.246,0.432-0.343,0.674-0.213
			C24.964,23.299,25.06,23.602,24.932,23.846z M24.719,6.826c-0.073,0.039-0.152,0.057-0.23,0.057c-0.181,0-0.354-0.098-0.443-0.27
			c-0.033-0.064-0.065-0.129-0.096-0.195c-0.067-0.002-0.136-0.006-0.202-0.012c-0.275-0.021-0.48-0.263-0.458-0.538
			c0.021-0.275,0.265-0.474,0.538-0.458c0.084,0.007,0.168,0.01,0.253,0.01h0.207c0.212,0,0.4,0.134,0.472,0.333
			c0.049,0.139,0.106,0.271,0.173,0.399C25.06,6.398,24.964,6.7,24.719,6.826z M27.002,21.865L27.002,21.865
			c0,0.213-0.135,0.401-0.335,0.472c-0.136,0.048-0.269,0.105-0.396,0.172c-0.074,0.039-0.153,0.058-0.232,0.058
			c-0.18,0-0.353-0.097-0.442-0.268c-0.129-0.244-0.035-0.546,0.21-0.675c0.063-0.034,0.129-0.065,0.195-0.096v-0.163
			c0-0.276,0.224-0.5,0.5-0.5s0.5,0.224,0.5,0.5V21.865z M26.501,12.682c0.276,0,0.5,0.224,0.5,0.5v0.909c0,0.276-0.224,0.5-0.5,0.5
			s-0.5-0.224-0.5-0.5v-0.909C26.001,12.906,26.225,12.682,26.501,12.682z M26.001,11.362v-0.909c0-0.276,0.224-0.5,0.5-0.5
			s0.5,0.224,0.5,0.5v0.909c0,0.276-0.224,0.5-0.5,0.5S26.001,11.638,26.001,11.362z M26.501,15.409c0.276,0,0.5,0.224,0.5,0.5v0.91
			c0,0.276-0.224,0.5-0.5,0.5s-0.5-0.224-0.5-0.5v-0.91C26.001,15.633,26.225,15.409,26.501,15.409z M26.501,18.138
			c0.276,0,0.5,0.224,0.5,0.5v0.909c0,0.276-0.224,0.5-0.5,0.5s-0.5-0.224-0.5-0.5v-0.909
			C26.001,18.362,26.225,18.138,26.501,18.138z M27.002,8.635L27.002,8.635c-0.001,0.276-0.225,0.5-0.501,0.5s-0.5-0.224-0.5-0.5
			V8.471c-0.066-0.03-0.132-0.062-0.195-0.096c-0.245-0.129-0.339-0.431-0.21-0.675c0.13-0.246,0.433-0.337,0.675-0.21
			c0.127,0.066,0.26,0.124,0.396,0.172c0.2,0.07,0.335,0.259,0.335,0.472V8.635z"/>
	</g>
</g>
</svg>
