<?xml version="1.0" encoding="iso-8859-1"?>
<!-- Generator: Adobe Illustrator 19.0.0, SVG Export Plug-In . SVG Version: 6.00 Build 0)  -->
<svg version="1.1" id="Layer_1" xmlns="http://www.w3.org/2000/svg" xmlns:xlink="http://www.w3.org/1999/xlink" x="0px" y="0px"
	 viewBox="0 0 30 30" style="enable-background:new 0 0 30 30;" xml:space="preserve">
<g>
	<g>
		<path d="M29.354,14.644C27.902,13.186,27,11.321,27,9.775V8.497c0-1.626-1.457-3-3.182-3H20c-1.484,0-3.134-0.836-4.646-2.353
			c-0.188-0.189-0.521-0.189-0.709,0C13.134,4.661,11.484,5.497,10,5.497H6.181C4.457,5.497,3,6.871,3,8.497v1.278
			c0,1.546-0.902,3.411-2.354,4.869c-0.194,0.194-0.194,0.511,0,0.705C2.098,16.807,3,18.672,3,20.218v1.279c0,1.683,1.317,3,3,3
			h3.819c1.531,0,3.38,0.901,4.826,2.353c0.094,0.095,0.222,0.147,0.354,0.147c0.132,0,0.261-0.053,0.354-0.147
			c1.446-1.451,3.295-2.353,4.826-2.353H24c1.683,0,3-1.317,3-3v-1.278c0-1.546,0.902-3.411,2.354-4.869
			C29.549,15.155,29.549,14.839,29.354,14.644z M23.252,8.245h0.5c0.276,0,0.5,0.224,0.5,0.5v0.5c0,0.276-0.224,0.5-0.5,0.5
			s-0.5-0.224-0.5-0.5c-0.276,0-0.5-0.224-0.5-0.5S22.976,8.245,23.252,8.245z M16.762,8.015c0.099-0.257,0.387-0.385,0.646-0.287
			c0.304,0.117,0.608,0.216,0.911,0.294c0.268,0.069,0.428,0.342,0.359,0.609c-0.059,0.226-0.262,0.375-0.484,0.375
			c-0.041,0-0.083-0.005-0.125-0.016c-0.34-0.088-0.68-0.198-1.021-0.329C16.791,8.561,16.663,8.272,16.762,8.015z M11.679,8.023
			c0.303-0.078,0.607-0.177,0.911-0.294c0.262-0.099,0.548,0.03,0.646,0.287c0.1,0.257-0.028,0.546-0.286,0.646
			c-0.341,0.131-0.681,0.241-1.021,0.329c-0.042,0.011-0.084,0.016-0.125,0.016c-0.223,0-0.426-0.149-0.484-0.375
			C11.252,8.364,11.412,8.092,11.679,8.023z M5.304,12.394c0.12-0.337,0.219-0.68,0.293-1.019c0.059-0.271,0.322-0.438,0.595-0.382
			c0.27,0.059,0.44,0.325,0.382,0.595c-0.083,0.381-0.193,0.766-0.328,1.142c-0.073,0.205-0.266,0.332-0.471,0.332
			c-0.056,0-0.112-0.01-0.168-0.029C5.346,12.94,5.211,12.654,5.304,12.394z M5.043,15.836c-0.083,0.053-0.175,0.077-0.267,0.077
			c-0.166,0-0.328-0.083-0.423-0.233c-0.084-0.134-0.173-0.267-0.264-0.398c-0.12-0.171-0.12-0.399,0-0.57
			c0.091-0.132,0.18-0.265,0.264-0.398c0.148-0.233,0.457-0.304,0.689-0.156c0.233,0.146,0.304,0.455,0.156,0.689
			c-0.031,0.05-0.063,0.101-0.097,0.15c0.035,0.05,0.067,0.101,0.098,0.15C5.346,15.381,5.276,15.69,5.043,15.836z M5.303,17.601
			c-0.094-0.26,0.041-0.546,0.301-0.641C5.861,16.87,6.15,17,6.245,17.261c0.136,0.377,0.246,0.762,0.329,1.146
			c0.058,0.27-0.114,0.535-0.385,0.594c-0.035,0.007-0.07,0.011-0.105,0.011c-0.23,0-0.438-0.16-0.488-0.396
			C5.522,18.276,5.424,17.935,5.303,17.601z M6.747,21.749h-0.5c-0.276,0-0.5-0.224-0.5-0.5v-0.5c0-0.276,0.224-0.5,0.5-0.5
			s0.5,0.224,0.5,0.5c0.276,0,0.5,0.224,0.5,0.5S7.023,21.749,6.747,21.749z M6.748,9.245c0,0.276-0.224,0.5-0.5,0.5
			s-0.5-0.224-0.5-0.5v-0.5c0-0.276,0.224-0.5,0.5-0.5h0.5c0.276,0,0.5,0.224,0.5,0.5S7.024,9.245,6.748,9.245z M9.793,21.749H8.777
			c-0.276,0-0.5-0.224-0.5-0.5s0.224-0.5,0.5-0.5h1.016c0.276,0,0.5,0.224,0.5,0.5S10.069,21.749,9.793,21.749z M9.795,9.245H8.779
			c-0.276,0-0.5-0.224-0.5-0.5s0.224-0.5,0.5-0.5h1.016c0.276,0,0.5,0.224,0.5,0.5S10.071,9.245,9.795,9.245z M13.237,21.978
			c-0.076,0.198-0.266,0.32-0.467,0.32c-0.06,0-0.12-0.011-0.18-0.033c-0.304-0.117-0.608-0.216-0.911-0.294
			c-0.268-0.069-0.428-0.342-0.359-0.609c0.069-0.268,0.339-0.427,0.609-0.359c0.34,0.088,0.68,0.198,1.021,0.329
			C13.208,21.432,13.336,21.721,13.237,21.978z M15.684,23.143c-0.134,0.084-0.267,0.173-0.398,0.264
			c-0.087,0.06-0.186,0.09-0.286,0.09s-0.199-0.03-0.285-0.09c-0.132-0.091-0.265-0.18-0.398-0.264
			c-0.233-0.146-0.304-0.455-0.156-0.689c0.147-0.232,0.457-0.304,0.689-0.156c0.05,0.031,0.101,0.063,0.15,0.097
			c0.05-0.033,0.101-0.065,0.15-0.097c0.233-0.147,0.543-0.076,0.689,0.156C15.987,22.688,15.917,22.997,15.684,23.143z M15.84,7.54
			c-0.095,0.15-0.257,0.233-0.423,0.233c-0.092,0-0.184-0.024-0.267-0.077C15.1,7.665,15.049,7.633,15,7.599
			c-0.05,0.033-0.101,0.065-0.15,0.097c-0.232,0.148-0.542,0.078-0.689-0.156c-0.147-0.234-0.077-0.543,0.156-0.689
			c0.134-0.084,0.267-0.173,0.398-0.264c0.172-0.119,0.398-0.119,0.57,0c0.132,0.091,0.265,0.18,0.398,0.264
			C15.917,6.997,15.987,7.306,15.84,7.54z M18.32,21.972c-0.303,0.078-0.607,0.177-0.911,0.294c-0.06,0.022-0.12,0.033-0.18,0.033
			c-0.201,0-0.391-0.122-0.467-0.32c-0.099-0.258,0.029-0.547,0.287-0.646c0.341-0.131,0.681-0.241,1.021-0.329
			c0.269-0.067,0.54,0.092,0.609,0.359C18.748,21.63,18.588,21.902,18.32,21.972z M21.221,21.749h-1.016c-0.276,0-0.5-0.224-0.5-0.5
			s0.224-0.5,0.5-0.5h1.016c0.276,0,0.5,0.224,0.5,0.5S21.497,21.749,21.221,21.749z M21.221,9.245h-1.016
			c-0.276,0-0.5-0.224-0.5-0.5s0.224-0.5,0.5-0.5h1.016c0.276,0,0.5,0.224,0.5,0.5S21.497,9.245,21.221,9.245z M24.252,21.249
			c0,0.276-0.224,0.5-0.5,0.5h-0.5c-0.276,0-0.5-0.224-0.5-0.5s0.224-0.5,0.5-0.5c0-0.276,0.224-0.5,0.5-0.5s0.5,0.224,0.5,0.5
			V21.249z M24.696,17.6c-0.12,0.337-0.219,0.68-0.293,1.019c-0.051,0.234-0.258,0.394-0.488,0.394c-0.035,0-0.07-0.004-0.106-0.012
			c-0.27-0.059-0.44-0.325-0.382-0.595c0.083-0.381,0.193-0.766,0.328-1.142c0.094-0.261,0.379-0.394,0.639-0.303
			C24.654,17.054,24.789,17.34,24.696,17.6z M24.396,13.034c-0.056,0.02-0.113,0.029-0.17,0.029c-0.205,0-0.396-0.126-0.471-0.33
			c-0.136-0.377-0.246-0.762-0.329-1.146c-0.058-0.27,0.114-0.535,0.385-0.594c0.266-0.049,0.535,0.113,0.594,0.385
			c0.072,0.339,0.171,0.68,0.292,1.015C24.791,12.653,24.656,12.939,24.396,13.034z M25.91,15.282
			c-0.091,0.132-0.18,0.265-0.264,0.398c-0.095,0.15-0.257,0.233-0.423,0.233c-0.092,0-0.184-0.024-0.267-0.077
			c-0.233-0.146-0.304-0.455-0.156-0.689c0.031-0.05,0.063-0.101,0.097-0.15c-0.033-0.05-0.065-0.101-0.097-0.15
			c-0.147-0.234-0.077-0.543,0.156-0.689c0.233-0.147,0.543-0.077,0.689,0.156c0.084,0.134,0.173,0.267,0.264,0.398
			C26.03,14.883,26.03,15.111,25.91,15.282z"/>
	</g>
</g>
</svg>
