<?xml version="1.0" encoding="iso-8859-1"?>
<!-- Generator: Adobe Illustrator 19.0.0, SVG Export Plug-In . SVG Version: 6.00 Build 0)  -->
<svg version="1.1" id="Layer_1" xmlns="http://www.w3.org/2000/svg" xmlns:xlink="http://www.w3.org/1999/xlink" x="0px" y="0px"
	 viewBox="0 0 30 30" style="enable-background:new 0 0 30 30;" xml:space="preserve">
<g>
	<g>
		<path d="M27,9.5c-1.878,0-3-1.779-3-3.5c0-0.276-0.224-0.5-0.5-0.5c-1.897,0-3.5-1.479-3.5-3.228C20,1.295,19.211,0.5,18.24,0.5
			H11.76C10.789,0.5,10,1.295,10,2.272C10,4.021,8.396,5.5,6.5,5.5C6.224,5.5,6,5.724,6,6c0,1.721-1.122,3.5-3,3.5
			c-1.682,0-3,1.317-3,3v5c0,1.683,1.318,3,3,3c1.878,0,3,1.779,3,3.5c0,0.276,0.224,0.5,0.5,0.5c1.897,0,3.5,1.479,3.5,3.228
			c0,0.978,0.79,1.772,1.761,1.772h6.479c0.971,0,1.761-0.795,1.761-1.772c0-1.749,1.603-3.228,3.5-3.228c0.276,0,0.5-0.224,0.5-0.5
			c0-1.721,1.122-3.5,3-3.5c1.682,0,3-1.317,3-3v-5C30,10.817,28.682,9.5,27,9.5z M3,12.556c0-0.276,0.224-0.5,0.5-0.5
			c0.155,0,0.307-0.006,0.458-0.019c0.279-0.02,0.517,0.182,0.54,0.457c0.023,0.275-0.182,0.517-0.456,0.539
			C4.029,13.034,4.015,13.036,4,13.037v0.019c0,0.276-0.224,0.5-0.5,0.5S3,13.332,3,13.056V12.556z M3,14.611
			c0-0.276,0.224-0.5,0.5-0.5s0.5,0.224,0.5,0.5v0.777c0,0.276-0.224,0.5-0.5,0.5S3,15.664,3,15.388V14.611z M4,17.965
			c-0.014,0-0.028-0.001-0.042-0.002C3.807,17.95,3.654,17.944,3.5,17.944c-0.276,0-0.5-0.224-0.5-0.5v-0.5
			c0-0.276,0.224-0.5,0.5-0.5s0.5,0.224,0.5,0.5v0.019c0.014,0.001,0.027,0.003,0.042,0.004c0.275,0.022,0.479,0.264,0.457,0.539
			C4.477,17.768,4.258,17.965,4,17.965z M8.547,8.784c0.063-0.14,0.122-0.283,0.174-0.429c0.05-0.14,0.16-0.25,0.299-0.301
			c0.144-0.053,0.286-0.111,0.424-0.176C9.695,7.76,9.992,7.871,10.107,8.12c0.118,0.252,0.009,0.549-0.242,0.665
			C9.771,8.829,9.677,8.871,9.581,8.91C9.542,9.007,9.5,9.101,9.458,9.196C9.375,9.381,9.193,9.49,9.003,9.49
			c-0.069,0-0.139-0.015-0.206-0.044C8.546,9.332,8.434,9.036,8.547,8.784z M5.393,11.72c0.231-0.085,0.455-0.185,0.67-0.299
			c0.243-0.131,0.546-0.037,0.676,0.207s0.037,0.547-0.207,0.676c-0.255,0.136-0.521,0.255-0.794,0.355
			c-0.057,0.021-0.115,0.03-0.172,0.03c-0.204,0-0.395-0.125-0.469-0.327C5,12.103,5.133,11.815,5.393,11.72z M6.742,18.372
			c-0.09,0.169-0.263,0.266-0.442,0.266c-0.079,0-0.159-0.019-0.234-0.059c-0.215-0.114-0.439-0.214-0.67-0.299
			c-0.259-0.096-0.392-0.383-0.297-0.643c0.096-0.258,0.385-0.389,0.642-0.297c0.274,0.101,0.539,0.22,0.794,0.355
			C6.779,17.825,6.872,18.128,6.742,18.372z M7.261,10.569c0.18-0.168,0.349-0.348,0.505-0.537c0.175-0.214,0.491-0.244,0.704-0.067
			c0.212,0.177,0.243,0.491,0.066,0.704c-0.184,0.223-0.382,0.434-0.594,0.631c-0.096,0.09-0.219,0.135-0.341,0.135
			c-0.134,0-0.267-0.054-0.366-0.159C7.049,11.073,7.06,10.757,7.261,10.569z M8.154,20.151c-0.145,0-0.288-0.063-0.387-0.183
			c-0.156-0.189-0.325-0.369-0.504-0.537c-0.202-0.188-0.213-0.504-0.025-0.706c0.189-0.201,0.506-0.212,0.707-0.024
			c0.212,0.197,0.411,0.408,0.595,0.633c0.175,0.213,0.145,0.528-0.068,0.703C8.378,20.114,8.266,20.151,8.154,20.151z
			 M10.109,21.878c-0.085,0.182-0.266,0.289-0.454,0.289c-0.07,0-0.142-0.015-0.21-0.047c-0.139-0.064-0.28-0.122-0.424-0.175
			c-0.14-0.051-0.25-0.161-0.299-0.301c-0.052-0.146-0.11-0.289-0.174-0.429c-0.114-0.252-0.002-0.548,0.25-0.662
			c0.251-0.111,0.548-0.001,0.662,0.25c0.042,0.095,0.083,0.189,0.122,0.286c0.097,0.039,0.192,0.08,0.286,0.124
			C10.117,21.33,10.226,21.627,10.109,21.878z M11.01,6.79c0.228-0.226,0.437-0.47,0.622-0.728c0.161-0.227,0.473-0.277,0.698-0.115
			c0.224,0.161,0.276,0.474,0.115,0.697c-0.218,0.304-0.464,0.592-0.731,0.856c-0.098,0.097-0.225,0.145-0.352,0.145
			c-0.129,0-0.258-0.05-0.355-0.148C10.812,7.301,10.813,6.984,11.01,6.79z M12.036,24.145c-0.156,0-0.309-0.072-0.407-0.209
			c-0.185-0.258-0.395-0.502-0.622-0.728c-0.196-0.194-0.198-0.511-0.004-0.707c0.194-0.196,0.51-0.198,0.707-0.004
			c0.268,0.265,0.514,0.553,0.731,0.856c0.161,0.224,0.109,0.536-0.115,0.697C12.24,24.114,12.138,24.145,12.036,24.145z
			 M13.563,26.5h-0.5c-0.238,0-0.443-0.168-0.49-0.4c-0.03-0.15-0.066-0.299-0.109-0.445c-0.077-0.265,0.075-0.542,0.34-0.62
			c0.265-0.075,0.542,0.075,0.62,0.341c0.012,0.041,0.024,0.083,0.035,0.125h0.104c0.276,0,0.5,0.224,0.5,0.5
			S13.839,26.5,13.563,26.5z M13.563,4.5h-0.104c-0.011,0.042-0.023,0.084-0.035,0.125c-0.063,0.219-0.263,0.36-0.48,0.36
			c-0.046,0-0.093-0.007-0.14-0.02c-0.265-0.078-0.417-0.355-0.34-0.62c0.042-0.146,0.079-0.295,0.109-0.445
			c0.047-0.232,0.252-0.4,0.49-0.4h0.5c0.276,0,0.5,0.224,0.5,0.5S13.839,4.5,13.563,4.5z M15.289,26.5h-0.575
			c-0.276,0-0.5-0.224-0.5-0.5s0.224-0.5,0.5-0.5h0.575c0.276,0,0.5,0.224,0.5,0.5S15.565,26.5,15.289,26.5z M15.289,4.5h-0.575
			c-0.276,0-0.5-0.224-0.5-0.5s0.224-0.5,0.5-0.5h0.575c0.276,0,0.5,0.224,0.5,0.5S15.565,4.5,15.289,4.5z M16.438,3.5h0.5
			c0.238,0,0.443,0.168,0.49,0.4c0.03,0.15,0.066,0.299,0.109,0.445c0.077,0.265-0.075,0.542-0.34,0.62
			c-0.046,0.013-0.094,0.02-0.14,0.02c-0.217,0-0.417-0.142-0.48-0.36c-0.012-0.041-0.024-0.083-0.035-0.125h-0.104
			c-0.276,0-0.5-0.224-0.5-0.5S16.161,3.5,16.438,3.5z M17.537,25.654c-0.042,0.146-0.079,0.295-0.109,0.445
			c-0.047,0.232-0.252,0.4-0.49,0.4h-0.5c-0.276,0-0.5-0.224-0.5-0.5s0.224-0.5,0.5-0.5h0.104c0.011-0.042,0.023-0.084,0.035-0.125
			c0.077-0.266,0.354-0.416,0.62-0.341C17.461,25.112,17.615,25.39,17.537,25.654z M18.992,23.21
			c-0.228,0.226-0.437,0.47-0.622,0.728c-0.098,0.137-0.251,0.209-0.407,0.209c-0.101,0-0.203-0.03-0.291-0.094
			c-0.224-0.161-0.276-0.474-0.115-0.697c0.218-0.304,0.464-0.592,0.731-0.856c0.197-0.194,0.514-0.192,0.707,0.004
			C19.19,22.699,19.188,23.016,18.992,23.21z M18.997,7.499c-0.098,0.099-0.227,0.148-0.355,0.148c-0.127,0-0.254-0.048-0.352-0.145
			c-0.268-0.265-0.514-0.553-0.731-0.856c-0.161-0.224-0.109-0.536,0.115-0.697c0.226-0.161,0.538-0.109,0.698,0.115
			c0.185,0.258,0.395,0.502,0.622,0.728C19.19,6.986,19.192,7.303,18.997,7.499z M22.233,10.031
			c0.156,0.189,0.325,0.369,0.504,0.537c0.202,0.188,0.213,0.504,0.025,0.706c-0.099,0.105-0.232,0.159-0.366,0.159
			c-0.122,0-0.245-0.045-0.341-0.135c-0.212-0.197-0.411-0.408-0.595-0.633c-0.175-0.213-0.145-0.528,0.068-0.703
			C21.742,9.785,22.057,9.818,22.233,10.031z M19.893,8.121c0.117-0.25,0.415-0.36,0.664-0.242c0.139,0.064,0.28,0.123,0.424,0.176
			c0.14,0.051,0.25,0.161,0.299,0.301c0.052,0.146,0.11,0.289,0.174,0.429c0.114,0.252,0.002,0.548-0.25,0.662
			c-0.067,0.029-0.137,0.044-0.206,0.044c-0.19,0-0.373-0.109-0.456-0.294c-0.042-0.095-0.083-0.189-0.122-0.286
			c-0.096-0.039-0.191-0.081-0.285-0.125C19.885,8.669,19.776,8.372,19.893,8.121z M21.453,21.216
			c-0.063,0.14-0.122,0.283-0.174,0.429c-0.05,0.14-0.16,0.25-0.299,0.301c-0.144,0.053-0.286,0.11-0.424,0.175
			c-0.068,0.032-0.14,0.047-0.21,0.047c-0.189,0-0.369-0.107-0.454-0.289c-0.116-0.251-0.007-0.548,0.243-0.664
			c0.094-0.044,0.189-0.085,0.286-0.124c0.039-0.097,0.079-0.191,0.122-0.286c0.114-0.251,0.41-0.361,0.662-0.25
			C21.456,20.668,21.568,20.964,21.453,21.216z M22.74,19.431c-0.18,0.168-0.349,0.348-0.505,0.537
			c-0.099,0.12-0.242,0.182-0.386,0.182c-0.112,0-0.225-0.037-0.318-0.114c-0.212-0.177-0.243-0.491-0.066-0.704
			c0.184-0.223,0.382-0.434,0.594-0.631c0.201-0.188,0.519-0.178,0.707,0.024C22.953,18.927,22.941,19.243,22.74,19.431z
			 M23.259,11.628c0.129-0.244,0.432-0.337,0.676-0.207c0.215,0.114,0.439,0.214,0.67,0.299c0.259,0.096,0.392,0.383,0.297,0.643
			c-0.074,0.202-0.266,0.327-0.469,0.327c-0.057,0-0.116-0.01-0.172-0.03c-0.274-0.101-0.539-0.22-0.794-0.355
			C23.222,12.175,23.13,11.872,23.259,11.628z M24.607,18.28c-0.231,0.085-0.455,0.185-0.67,0.299
			c-0.075,0.04-0.155,0.059-0.234,0.059c-0.179,0-0.352-0.097-0.442-0.266c-0.13-0.244-0.037-0.547,0.207-0.676
			c0.255-0.136,0.521-0.255,0.794-0.355c0.26-0.093,0.547,0.038,0.642,0.297C25,17.897,24.867,18.185,24.607,18.28z M26.042,12.037
			c0.151,0.013,0.304,0.019,0.458,0.019c0.276,0,0.5,0.224,0.5,0.5v0.5H27c0,0.276-0.224,0.5-0.5,0.5s-0.5-0.224-0.5-0.5v-0.019
			c-0.014-0.001-0.027-0.003-0.042-0.004c-0.275-0.022-0.479-0.264-0.457-0.539C25.523,12.219,25.763,12.018,26.042,12.037z
			 M27,14.612v0.777c0,0.276-0.224,0.5-0.5,0.5s-0.5-0.224-0.5-0.5v-0.777c0-0.276,0.224-0.5,0.5-0.5S27,14.336,27,14.612z
			 M27.001,17.444L27.001,17.444c-0.001,0.276-0.225,0.5-0.501,0.5c-0.155,0-0.307,0.006-0.458,0.019
			c-0.014,0.001-0.028,0.002-0.042,0.002c-0.257,0-0.476-0.197-0.498-0.459c-0.023-0.275,0.182-0.517,0.457-0.539
			c0.014-0.001,0.028-0.003,0.042-0.004v-0.019c0-0.276,0.224-0.5,0.5-0.5s0.5,0.224,0.5,0.5V17.444z"/>
	</g>
</g>
</svg>
