<?xml version="1.0" encoding="iso-8859-1"?>
<!-- Generator: Adobe Illustrator 19.0.0, SVG Export Plug-In . SVG Version: 6.00 Build 0)  -->
<svg version="1.1" id="Layer_1" xmlns="http://www.w3.org/2000/svg" xmlns:xlink="http://www.w3.org/1999/xlink" x="0px" y="0px"
	 viewBox="0 0 30 30" style="enable-background:new 0 0 30 30;" xml:space="preserve">
<g>
	<g>
		<path d="M28.926,10.248c-0.09-0.146-0.25-0.236-0.422-0.237L27.199,10C24.648,9.979,23,8.425,23,6c0-0.207-0.127-0.392-0.32-0.467
			C20.85,4.826,17.741,4,15,4c-2.741,0-5.851,0.826-7.68,1.533C7.127,5.608,7,5.836,7,6.043c0,2.375-1.648,3.924-4.199,3.946
			L1.496,10c-0.172,0.001-0.332,0.091-0.422,0.237C0.351,11.411,0,12.968,0,15c0,2.032,0.352,3.589,1.074,4.763
			C1.165,19.91,1.326,20,1.5,20h1.261C5.297,20,7,21.607,7,24c0,0.207,0.127,0.392,0.32,0.467C9.15,25.174,12.259,26,15,26
			c2.741,0,5.851-0.826,7.68-1.533c0.193-0.075,0.32-0.303,0.32-0.51c0-2.375,1.648-3.924,4.199-3.946L28.504,20
			c0.172-0.001,0.332-0.091,0.422-0.237C29.649,18.589,30,17.032,30,15C30,12.977,29.648,11.422,28.926,10.248z M5.785,17.065
			c-0.056,0.229-0.261,0.381-0.485,0.381c-0.04,0-0.08-0.005-0.12-0.015c-0.451-0.11-0.917-0.176-1.386-0.194
			c-0.203-0.009-0.38-0.138-0.45-0.328c-0.193-0.528-0.306-1.071-0.336-1.612c-0.006-0.102,0.027-0.194,0.076-0.276
			c-0.049-0.082-0.082-0.173-0.077-0.275c0.026-0.543,0.14-1.088,0.337-1.618c0.071-0.188,0.248-0.316,0.449-0.325
			c0.469-0.019,0.935-0.084,1.386-0.194c0.27-0.063,0.539,0.098,0.605,0.366c0.065,0.269-0.099,0.539-0.367,0.604
			c-0.404,0.1-0.819,0.167-1.237,0.202c-0.1,0.336-0.158,0.675-0.174,1.014c-0.004,0.081-0.032,0.154-0.07,0.22
			c0.038,0.069,0.066,0.144,0.071,0.226c0.02,0.34,0.079,0.682,0.177,1.02c0.417,0.034,0.831,0.102,1.235,0.201
			C5.687,16.526,5.851,16.797,5.785,17.065z M21.376,10.56c0.545,0.604,1.191,1.101,1.919,1.477
			c0.246,0.126,0.342,0.428,0.215,0.674c-0.088,0.172-0.264,0.271-0.445,0.271c-0.077,0-0.155-0.018-0.229-0.056
			c-0.836-0.431-1.578-1.001-2.204-1.695c-0.185-0.205-0.169-0.521,0.036-0.706C20.875,10.337,21.191,10.354,21.376,10.56z
			 M18.084,7.263c0.527,0.091,1.035,0.202,1.51,0.331c0.172,0.046,0.307,0.181,0.353,0.354c0.119,0.445,0.29,0.879,0.505,1.289
			c0.129,0.245,0.035,0.547-0.209,0.676c-0.074,0.039-0.154,0.058-0.232,0.058c-0.18,0-0.354-0.097-0.443-0.267
			c-0.205-0.389-0.374-0.797-0.504-1.215c-0.367-0.091-0.752-0.172-1.149-0.241c-0.272-0.047-0.455-0.306-0.407-0.578
			C17.556,7.398,17.812,7.209,18.084,7.263z M6.702,12.04c0.734-0.378,1.381-0.875,1.924-1.477c0.185-0.205,0.501-0.221,0.706-0.036
			c0.205,0.185,0.221,0.501,0.036,0.706c-0.624,0.691-1.367,1.262-2.208,1.695c-0.073,0.038-0.151,0.056-0.229,0.056
			c-0.181,0-0.356-0.099-0.445-0.271C6.36,12.468,6.456,12.166,6.702,12.04z M9.321,19.49c-0.096,0.087-0.216,0.13-0.336,0.13
			c-0.136,0-0.271-0.055-0.37-0.163C8.073,18.861,7.428,18.37,6.7,17.996c-0.246-0.127-0.343-0.428-0.217-0.674
			c0.126-0.245,0.428-0.341,0.673-0.217c0.836,0.43,1.576,0.994,2.198,1.678C9.541,18.988,9.525,19.304,9.321,19.49z M12,22.744
			c-0.028,0-0.057-0.002-0.085-0.007c-0.513-0.089-1.021-0.199-1.51-0.33c-0.172-0.047-0.307-0.181-0.353-0.353
			c-0.12-0.443-0.292-0.877-0.51-1.288c-0.13-0.244-0.037-0.547,0.207-0.676c0.244-0.132,0.546-0.037,0.676,0.207
			c0.207,0.39,0.378,0.796,0.51,1.213c0.375,0.093,0.761,0.174,1.15,0.24c0.272,0.047,0.455,0.306,0.408,0.578
			C12.45,22.572,12.239,22.744,12,22.744z M12.093,8.247c-0.386,0.066-0.771,0.146-1.148,0.239c-0.13,0.418-0.298,0.824-0.503,1.214
			c-0.089,0.17-0.263,0.268-0.443,0.268c-0.078,0-0.158-0.019-0.232-0.058c-0.245-0.128-0.339-0.431-0.21-0.675
			c0.216-0.411,0.385-0.846,0.503-1.29c0.046-0.174,0.182-0.31,0.355-0.355c0.492-0.131,0.999-0.241,1.509-0.329
			c0.276-0.043,0.531,0.137,0.577,0.408C12.548,7.941,12.366,8.2,12.093,8.247z M16.322,22.952C15.882,22.984,15.44,23,15,23
			c-0.442,0-0.886-0.016-1.327-0.048c-0.275-0.021-0.482-0.26-0.462-0.535c0.02-0.276,0.267-0.488,0.535-0.463
			c0.833,0.061,1.671,0.062,2.503,0c0.287-0.024,0.515,0.187,0.535,0.463C16.804,22.692,16.597,22.932,16.322,22.952z M16.252,8.046
			c-0.833-0.061-1.67-0.061-2.502,0c-0.013,0.001-0.025,0.001-0.037,0.001c-0.26,0-0.479-0.2-0.498-0.464
			c-0.02-0.275,0.187-0.515,0.462-0.535c0.881-0.064,1.768-0.064,2.647,0c0.275,0.021,0.482,0.26,0.462,0.535
			C16.767,7.859,16.524,8.069,16.252,8.046z M20.443,20.765c-0.216,0.411-0.385,0.846-0.503,1.29
			c-0.046,0.174-0.182,0.31-0.355,0.355c-0.492,0.131-0.999,0.241-1.509,0.329c-0.028,0.005-0.057,0.007-0.085,0.007
			c-0.239,0-0.451-0.172-0.492-0.415c-0.047-0.272,0.136-0.531,0.408-0.578c0.386-0.066,0.771-0.146,1.148-0.239
			c0.13-0.418,0.298-0.824,0.503-1.214c0.128-0.243,0.431-0.338,0.675-0.21C20.478,20.218,20.572,20.521,20.443,20.765z
			 M23.298,17.96c-0.734,0.378-1.381,0.875-1.924,1.477c-0.099,0.109-0.235,0.165-0.371,0.165c-0.12,0-0.239-0.043-0.335-0.129
			c-0.205-0.185-0.221-0.501-0.036-0.706c0.624-0.691,1.367-1.262,2.208-1.695c0.244-0.129,0.547-0.031,0.673,0.216
			C23.64,17.532,23.544,17.834,23.298,17.96z M26.994,15.254c-0.026,0.543-0.14,1.088-0.337,1.618
			c-0.071,0.188-0.248,0.316-0.449,0.325c-0.469,0.019-0.935,0.084-1.386,0.194c-0.04,0.01-0.08,0.015-0.12,0.015
			c-0.225,0-0.429-0.152-0.485-0.381c-0.065-0.269,0.099-0.539,0.367-0.604c0.404-0.1,0.819-0.167,1.237-0.202
			c0.1-0.336,0.158-0.675,0.174-1.014c0.004-0.075,0.026-0.144,0.058-0.207c-0.032-0.062-0.054-0.129-0.058-0.203
			c-0.016-0.339-0.075-0.678-0.174-1.014c-0.418-0.035-0.833-0.103-1.237-0.202c-0.268-0.065-0.432-0.336-0.367-0.604
			c0.066-0.269,0.339-0.429,0.605-0.366c0.451,0.11,0.917,0.176,1.386,0.194c0.201,0.009,0.378,0.137,0.449,0.325
			c0.197,0.53,0.311,1.075,0.337,1.618c0.004,0.093-0.024,0.177-0.065,0.254C26.97,15.077,26.998,15.161,26.994,15.254z"/>
	</g>
</g>
</svg>
