<?xml version="1.0" encoding="iso-8859-1"?>
<!-- Generator: Adobe Illustrator 19.0.0, SVG Export Plug-In . SVG Version: 6.00 Build 0)  -->
<svg version="1.1" id="Layer_1" xmlns="http://www.w3.org/2000/svg" xmlns:xlink="http://www.w3.org/1999/xlink" x="0px" y="0px"
	 viewBox="0 0 30 30" style="enable-background:new 0 0 30 30;" xml:space="preserve">
<g>
	<g>
		<path d="M28.926,10.249c-0.091-0.146-0.25-0.236-0.422-0.238L27.199,10C24.648,9.978,23,8.425,23,6
			c0-0.207-0.127-0.392-0.319-0.466C20.852,4.826,17.743,4,15,4c-2.743,0-5.852,0.826-7.681,1.534C7.127,5.608,7,5.836,7,6.043
			c0,2.375-1.648,3.924-4.199,3.946L1.496,10c-0.172,0.001-0.331,0.091-0.422,0.238C0.352,11.41,0,12.968,0,15
			c0,2.031,0.352,3.589,1.074,4.763C1.165,19.91,1.326,20,1.5,20h1.261C5.296,20,7,21.607,7,24c0,0.207,0.127,0.392,0.319,0.467
			C9.149,25.174,12.259,26,15,26c2.741,0,5.851-0.826,7.681-1.533C22.873,24.392,23,24.164,23,23.957
			c0-2.375,1.648-3.924,4.199-3.946L28.504,20c0.172-0.001,0.331-0.091,0.422-0.237C29.648,18.589,30,17.031,30,15
			C30,12.976,29.648,11.421,28.926,10.249z"/>
	</g>
</g>
</svg>
