<?xml version="1.0" encoding="iso-8859-1"?>
<!-- Generator: Adobe Illustrator 19.0.0, SVG Export Plug-In . SVG Version: 6.00 Build 0)  -->
<svg version="1.1" id="Layer_1" xmlns="http://www.w3.org/2000/svg" xmlns:xlink="http://www.w3.org/1999/xlink" x="0px" y="0px"
	 viewBox="0 0 30 30" style="enable-background:new 0 0 30 30;" xml:space="preserve">
<g>
	<g>
		<path d="M29.994,15.036c0.063-0.898-0.09-1.633-0.993-2.248v-1.787c0-0.276-0.224-0.5-0.5-0.5h-4.5v-0.484
			c0-1.307-1.073-2.37-2.392-2.37c-0.763,0-1.695-0.632-1.695-1.369c0-0.248-0.182-0.459-0.428-0.495l-1.892-0.277
			c-0.142-0.02-0.285,0.021-0.396,0.113c-0.685,0.579-1.487,0.888-2.206,0.881c-0.746,0.013-1.506-0.302-2.19-0.881
			c-0.11-0.094-0.255-0.136-0.396-0.113l-1.892,0.277c-0.246,0.036-0.428,0.247-0.428,0.495c0,0.737-0.933,1.369-1.695,1.369
			c-1.318,0-2.392,1.063-2.392,2.37v0.484h-4.5c-0.276,0-0.5,0.224-0.5,0.5v1.725c-0.961,0.664-1.05,1.495-0.993,2.24
			c-0.057,0.811,0.032,1.646,0.993,2.311v1.724c0,0.276,0.224,0.5,0.5,0.5h4.5v0.484c0,1.307,1.073,2.369,2.392,2.369
			c0.763,0,1.695,0.632,1.695,1.369c0,0.248,0.182,0.459,0.428,0.495l1.892,0.277c0.139,0.02,0.286-0.02,0.396-0.113
			c0.684-0.58,1.445-0.901,2.206-0.882c0.753-0.012,1.505,0.302,2.19,0.882c0.091,0.077,0.206,0.118,0.323,0.118
			c0.024,0,0.049-0.002,0.072-0.005l1.892-0.277c0.246-0.036,0.428-0.247,0.428-0.495c0-0.737,0.933-1.369,1.695-1.369
			c1.318,0,2.392-1.063,2.392-2.369v-0.484h4.5c0.276,0,0.5-0.224,0.5-0.5v-1.725C29.962,16.612,30.051,15.781,29.994,15.036z"/>
	</g>
</g>
</svg>
