<?xml version="1.0" encoding="iso-8859-1"?>
<!-- Generator: Adobe Illustrator 19.0.0, SVG Export Plug-In . SVG Version: 6.00 Build 0)  -->
<svg version="1.1" id="Layer_1" xmlns="http://www.w3.org/2000/svg" xmlns:xlink="http://www.w3.org/1999/xlink" x="0px" y="0px"
	 viewBox="0 0 30 30" style="enable-background:new 0 0 30 30;" xml:space="preserve">
<g>
	<g>
		<path d="M29.432,18.155C29.005,17.433,28.5,16.299,28.5,15s0.506-2.433,0.931-3.155c0.116-0.198,0.083-0.45-0.081-0.61
			l-1.956-1.917V7.511c0-1.652-1.348-2.997-3.004-2.997h-1.896l-2.4-2.354c-0.084-0.083-0.196-0.133-0.314-0.142L19.534,2
			c-0.117-0.007-0.235,0.026-0.331,0.097C18.382,2.705,17.007,3,15,3s-3.382-0.295-4.205-0.902c-0.095-0.07-0.211-0.103-0.331-0.097
			l-0.245,0.018C10.101,2.027,9.99,2.078,9.905,2.161l-2.4,2.354H5.609c-1.657,0-3.004,1.344-3.004,2.997v1.807l-1.956,1.917
			c-0.164,0.161-0.197,0.413-0.081,0.611C0.994,12.567,1.5,13.699,1.5,15s-0.506,2.433-0.931,3.154
			c-0.117,0.198-0.083,0.45,0.081,0.611l1.956,1.917v1.807c0,1.652,1.348,2.997,3.004,2.997h1.896l2.4,2.354
			c0.084,0.083,0.196,0.133,0.314,0.142L10.464,28c0.119,0.001,0.236-0.027,0.331-0.097c0.823-0.607,2.198-0.902,4.205-0.902
			s3.382,0.295,4.205,0.902c0.086,0.063,0.19,0.098,0.297,0.098c0.011,0,0.022,0,0.034-0.001l0.245-0.018
			c0.118-0.008,0.229-0.059,0.314-0.142l2.4-2.354h1.896c1.657,0,3.004-1.344,3.004-2.997v-1.807l1.956-1.917
			C29.516,18.604,29.548,18.352,29.432,18.155z"/>
	</g>
</g>
</svg>
