<?xml version="1.0" encoding="iso-8859-1"?>
<!-- Generator: Adobe Illustrator 19.0.0, SVG Export Plug-In . SVG Version: 6.00 Build 0)  -->
<svg version="1.1" id="Layer_1" xmlns="http://www.w3.org/2000/svg" xmlns:xlink="http://www.w3.org/1999/xlink" x="0px" y="0px"
	 viewBox="0 0 30 30" style="enable-background:new 0 0 30 30;" xml:space="preserve">
<g>
	<g>
		<path d="M26,7.526V4.5C26,4.224,25.776,4,25.5,4h-3.026C20.795,1.49,18.022,0,15,0c-3.022,0-5.794,1.49-7.474,4H4.5
			C4.224,4,4,4.224,4,4.5v3.026C1.49,9.205,0,11.978,0,15s1.49,5.794,4,7.474V25.5C4,25.776,4.224,26,4.5,26h3.026
			c1.679,2.51,4.452,4,7.474,4c3.022,0,5.794-1.49,7.474-4H25.5c0.276,0,0.5-0.224,0.5-0.5v-3.026c2.51-1.679,4-4.452,4-7.474
			S28.51,9.206,26,7.526z"/>
	</g>
</g>
</svg>
