<?xml version="1.0" encoding="iso-8859-1"?>
<!-- Generator: Adobe Illustrator 19.0.0, SVG Export Plug-In . SVG Version: 6.00 Build 0)  -->
<svg version="1.1" id="Layer_1" xmlns="http://www.w3.org/2000/svg" xmlns:xlink="http://www.w3.org/1999/xlink" x="0px" y="0px"
	 viewBox="0 0 30 30" style="enable-background:new 0 0 30 30;" xml:space="preserve">
<g>
	<g>
		<path d="M27,9.5c-1.878,0-3-1.78-3-3.5c0-0.276-0.224-0.5-0.5-0.5c-1.897,0-3.5-1.478-3.5-3.227C20,1.295,19.21,0.5,18.239,0.5
			H11.76C10.79,0.5,10,1.295,10,2.273C10,4.022,8.397,5.5,6.5,5.5C6.224,5.5,6,5.724,6,6c0,1.72-1.122,3.5-3,3.5
			c-1.682,0-3,1.318-3,3v5c0,1.682,1.318,3,3,3c1.878,0,3,1.78,3,3.5c0,0.276,0.224,0.5,0.5,0.5c1.897,0,3.5,1.478,3.5,3.227
			c0,0.978,0.79,1.773,1.761,1.773h6.479c0.97,0,1.76-0.795,1.76-1.773c0-1.749,1.603-3.227,3.5-3.227c0.276,0,0.5-0.224,0.5-0.5
			c0-1.72,1.122-3.5,3-3.5c1.682,0,3-1.318,3-3v-5C30,10.818,28.682,9.5,27,9.5z"/>
	</g>
</g>
</svg>
