<?xml version="1.0" encoding="iso-8859-1"?>
<!-- Generator: Adobe Illustrator 19.0.0, SVG Export Plug-In . SVG Version: 6.00 Build 0)  -->
<svg version="1.1" id="Layer_1" xmlns="http://www.w3.org/2000/svg" xmlns:xlink="http://www.w3.org/1999/xlink" x="0px" y="0px"
	 viewBox="0 0 30 30" style="enable-background:new 0 0 30 30;" xml:space="preserve">
<g>
	<g>
		<path d="M29.956,9.706c0.07-0.155,0.057-0.335-0.035-0.478C29.828,9.086,29.669,9,29.5,9c-4.117,0-8.19-1.177-11.781-3.403
			l-2.455-1.521c-0.161-0.1-0.365-0.1-0.526,0l-2.456,1.521C8.689,7.823,4.616,9,0.499,9c-0.17,0-0.328,0.086-0.42,0.229
			C-0.012,9.372-0.025,9.55,0.044,9.706c1.549,3.413,1.549,7.173,0,10.586c-0.07,0.155-0.057,0.335,0.035,0.478
			C0.171,20.914,0.329,21,0.499,21c4.117,0,8.19,1.177,11.782,3.403l2.455,1.521C14.816,25.974,14.908,26,14.999,26
			c0.091,0,0.183-0.025,0.263-0.075l2.456-1.521C21.31,22.177,25.383,21,29.5,21c0.17,0,0.328-0.086,0.42-0.229
			c0.092-0.143,0.105-0.322,0.035-0.478C28.406,16.88,28.406,13.12,29.956,9.706z"/>
	</g>
</g>
</svg>
