<?xml version="1.0" encoding="iso-8859-1"?>
<!-- Generator: Adobe Illustrator 19.0.0, SVG Export Plug-In . SVG Version: 6.00 Build 0)  -->
<svg version="1.1" id="Layer_1" xmlns="http://www.w3.org/2000/svg" xmlns:xlink="http://www.w3.org/1999/xlink" x="0px" y="0px"
	 viewBox="0 0 30 30" style="enable-background:new 0 0 30 30;" xml:space="preserve">
<g>
	<g>
		<path d="M29,14.999c0-2.402,0.979-6.847,0.988-6.892c0.032-0.148-0.027-0.303-0.122-0.421c-0.095-0.118-0.262-0.187-0.413-0.187
			c-1.096,0-1.953-0.916-1.953-2.086V4.999c0-0.156-0.072-0.302-0.196-0.397c-0.123-0.094-0.285-0.123-0.435-0.086
			C26.796,4.536,19.48,6.499,15,6.499c-4.479,0-11.796-1.963-11.869-1.983C2.984,4.479,2.82,4.508,2.696,4.602
			C2.572,4.697,2.5,4.843,2.5,4.999v0.414c0,1.17-0.858,2.086-2,2.086c-0.151,0-0.295,0.069-0.39,0.187
			C0.015,7.804-0.021,7.959,0.011,8.107c0.01,0.045,0.988,4.49,0.988,6.892c0,2.31-0.905,6.539-0.983,6.898
			C0.006,21.939,0,21.983,0,22.028c0,0.255,0.192,0.47,0.446,0.497c0.069,0.009,0.141,0,0.205-0.021
			C1.7,22.584,2.5,23.489,2.5,24.629v0.369c0,0.142,0.061,0.277,0.166,0.372c0.106,0.095,0.248,0.14,0.388,0.125
			c0.15-0.017,0.488-0.095,1.238-0.27c2.209-0.516,7.383-1.726,10.708-1.726s8.499,1.21,10.708,1.727
			c0.75,0.175,1.088,0.253,1.238,0.27c0.018,0.002,0.036,0.003,0.054,0.003c0.123,0,0.241-0.045,0.334-0.128
			c0.105-0.095,0.166-0.23,0.166-0.372V24.63c0-1.195,0.879-2.131,2-2.131c0.151,0,0.295-0.069,0.39-0.187
			c0.095-0.118,0.131-0.273,0.099-0.421C29.979,21.846,29,17.398,29,14.999z"/>
	</g>
</g>
</svg>
