<?xml version="1.0" encoding="iso-8859-1"?>
<!-- Generator: Adobe Illustrator 19.0.0, SVG Export Plug-In . SVG Version: 6.00 Build 0)  -->
<svg version="1.1" id="Layer_1" xmlns="http://www.w3.org/2000/svg" xmlns:xlink="http://www.w3.org/1999/xlink" x="0px" y="0px"
	 viewBox="0 0 30 30" style="enable-background:new 0 0 30 30;" xml:space="preserve">
<g>
	<g>
		<path d="M28.967,11.3c-0.075-0.192-0.26-0.319-0.467-0.319c-5.783,0-11.2-3.87-12.881-9.202l-0.142-0.448
			c-0.131-0.416-0.822-0.416-0.953,0l-0.142,0.448c-1.68,5.332-7.098,9.202-12.882,9.202c-0.207,0-0.392,0.127-0.467,0.319
			c-0.074,0.193-0.022,0.411,0.13,0.551l0.865,0.786c3.939,3.579,5.412,8.904,3.753,13.567L5.03,28.312
			c-0.072,0.203-0.007,0.429,0.162,0.562c0.17,0.131,0.404,0.143,0.584,0.023l1.813-1.198c4.363-2.883,10.459-2.883,14.822,0
			l1.813,1.198c0.084,0.056,0.18,0.083,0.275,0.083c0.109,0,0.218-0.036,0.309-0.106c0.169-0.133,0.234-0.358,0.162-0.562
			l-0.751-2.108c-1.66-4.663-0.188-9.989,3.752-13.567l0.864-0.786C28.989,11.711,29.041,11.494,28.967,11.3z M15.001,10.981
			c-1.103,0-2-0.897-2-2c0-1.103,0.897-2,2-2c1.103,0,2,0.897,2,2C17.001,10.084,16.104,10.981,15.001,10.981z"/>
	</g>
</g>
</svg>
