<?xml version="1.0" encoding="iso-8859-1"?>
<!-- Generator: Adobe Illustrator 19.0.0, SVG Export Plug-In . SVG Version: 6.00 Build 0)  -->
<svg version="1.1" id="Layer_1" xmlns="http://www.w3.org/2000/svg" xmlns:xlink="http://www.w3.org/1999/xlink" x="0px" y="0px"
	 viewBox="0 0 30 30" style="enable-background:new 0 0 30 30;" xml:space="preserve">
<g>
	<g>
		<path d="M26.604,7.01c-1.026-0.217-1.418-0.607-1.612-1.606C24.945,5.169,24.74,5,24.501,5h-1.206
			c-0.221-1.407-1.371-2.415-2.847-2.415h-0.445C18.911,0.984,17.023,0,15.001,0c-2.021,0-3.854,0.938-4.96,2.522H9.554
			C8.101,2.523,6.931,3.577,6.707,5H5.5C5.26,5,5.055,5.169,5.009,5.404c-0.194,1-0.586,1.39-1.612,1.606
			C3.166,7.06,3.001,7.263,3.001,7.5v15c0,0.236,0.165,0.44,0.396,0.489c1.026,0.217,1.418,0.607,1.612,1.606
			C5.055,24.831,5.26,25,5.5,25h1.206c0.224,1.424,1.394,2.478,2.847,2.478h0.487C11.146,29.062,12.979,30,15,30
			c1.989,0,3.807-0.914,4.918-2.458h0.529c1.43,0,2.62-1.102,2.847-2.542H24.5c0.239,0,0.445-0.169,0.491-0.404
			c0.194-1,0.586-1.39,1.612-1.606C26.835,22.94,27,22.736,27,22.5v-15C27,7.263,26.835,7.06,26.604,7.01z"/>
	</g>
</g>
</svg>
