<?xml version="1.0" encoding="iso-8859-1"?>
<!-- Generator: Adobe Illustrator 19.0.0, SVG Export Plug-In . SVG Version: 6.00 Build 0)  -->
<svg version="1.1" id="Layer_1" xmlns="http://www.w3.org/2000/svg" xmlns:xlink="http://www.w3.org/1999/xlink" x="0px" y="0px"
	 viewBox="0 0 30 30" style="enable-background:new 0 0 30 30;" xml:space="preserve">
<g>
	<g>
		<path d="M29.331,12.6l-0.33-0.71V8c0-0.276-0.224-0.5-0.5-0.5H26.68c-1.124-0.883-2.378-1-3.357-1H6.679
			c-0.979,0-2.233,0.117-3.357,1H1.501c-0.276,0-0.5,0.224-0.5,0.5v3.89L0.68,12.583c-0.838,1.502-0.901,3.325-0.175,4.86
			l0.496,1.159V22c0,0.276,0.224,0.5,0.5,0.5h1.822c0.866,0.673,2.043,1,3.589,1H23.09c1.546,0,2.723-0.327,3.589-1h1.822
			c0.276,0,0.5-0.224,0.5-0.5v-3.397l0.488-1.142C30.22,15.914,30.161,14.098,29.331,12.6z"/>
	</g>
</g>
</svg>
