<?xml version="1.0" encoding="iso-8859-1"?>
<!-- Generator: Adobe Illustrator 19.0.0, SVG Export Plug-In . SVG Version: 6.00 Build 0)  -->
<svg version="1.1" id="Layer_1" xmlns="http://www.w3.org/2000/svg" xmlns:xlink="http://www.w3.org/1999/xlink" x="0px" y="0px"
	 viewBox="0 0 30 30" style="enable-background:new 0 0 30 30;" xml:space="preserve">
<g>
	<g>
		<path d="M23,8.624l-0.001-0.537c0-0.276-0.224-0.5-0.5-0.5c-2.371,0-5.219-1.417-6.989-2.821l-0.199-0.158
			c-0.182-0.145-0.439-0.145-0.621,0l-0.199,0.158C12.775,6.126,9.948,7.499,7.5,7.499c-0.276,0-0.5,0.224-0.5,0.5v0.537
			C2.354,9.922,0,12.096,0,15s2.354,5.078,6.999,6.464L7,22.001C7,22.276,7.224,22.5,7.5,22.5c2.447,0,5.274,1.373,6.99,2.733
			l0.199,0.158C14.78,25.464,14.89,25.5,15,25.5s0.22-0.036,0.311-0.108l0.199-0.158c1.716-1.36,4.543-2.733,6.991-2.733
			c0.276,0,0.5-0.224,0.5-0.5v-0.536C27.646,20.079,30,17.905,30,15.001C30,12.11,27.709,10.023,23,8.624z"/>
	</g>
</g>
</svg>
