<?xml version="1.0" encoding="iso-8859-1"?>
<!-- Generator: Adobe Illustrator 19.0.0, SVG Export Plug-In . SVG Version: 6.00 Build 0)  -->
<svg version="1.1" id="Layer_1" xmlns="http://www.w3.org/2000/svg" xmlns:xlink="http://www.w3.org/1999/xlink" x="0px" y="0px"
	 viewBox="0 0 30 30" style="enable-background:new 0 0 30 30;" xml:space="preserve">
<g>
	<g>
		<path d="M29.941,10.642C30.277,8.526,28.753,6.523,27,5.675V2.501c0-0.276-0.224-0.5-0.5-0.5h-6.847l-1.42-0.961
			c-1.935-1.376-4.533-1.376-6.437-0.021l-1.618,0.982H3.5c-0.276,0-0.5,0.224-0.5,0.5v3.174c-1.753,0.848-3.278,2.851-2.941,4.969
			l0.526,3.308c0.108,0.684,0.109,1.376,0.001,2.059l-0.352,2.224c-0.372,2.35,1.08,4.758,2.766,6.024v3.242
			c0,0.276,0.224,0.5,0.5,0.5h6.847l1.419,0.961c0.968,0.688,2.103,1.032,3.236,1.032c1.13,0,2.26-0.342,3.221-1.025l1.43-0.968
			H26.5c0.276,0,0.5-0.224,0.5-0.5v-3.244c1.685-1.266,3.135-3.675,2.762-6.025l-0.349-2.201c-0.108-0.684-0.108-1.375,0-2.059
			L29.941,10.642z"/>
	</g>
</g>
</svg>
