<?xml version="1.0" encoding="iso-8859-1"?>
<!-- Generator: Adobe Illustrator 19.0.0, SVG Export Plug-In . SVG Version: 6.00 Build 0)  -->
<svg version="1.1" id="Layer_1" xmlns="http://www.w3.org/2000/svg" xmlns:xlink="http://www.w3.org/1999/xlink" x="0px" y="0px"
	 viewBox="0 0 30 30" style="enable-background:new 0 0 30 30;" xml:space="preserve">
<g>
	<g>
		<path d="M27.999,10.069V6.5c0-0.276-0.224-0.5-0.5-0.5c-1.799,0-3.5-1.701-3.5-3.5c0-0.276-0.224-0.5-0.5-0.5h-4.561
			c-0.228-0.905-1.2-2-4.569-2c-3.093,0-4.093,0.997-4.316,2H6.5C6.224,2,6,2.224,6,2.5C6,4.299,4.299,6,2.5,6
			C2.224,6,2,6.224,2,6.5v3.569C0.738,10.433,0,12.218,0,15c0,2.781,0.738,4.567,2,4.931V23.5C2,23.776,2.224,24,2.5,24
			C4.299,24,6,25.701,6,27.5C6,27.776,6.224,28,6.5,28h3.569c0.364,1.263,2.149,2,4.931,2c2.782,0,4.567-0.737,4.931-2H23.5
			c0.276,0,0.5-0.224,0.5-0.5c0-1.799,1.701-3.5,3.5-3.5c0.276,0,0.5-0.224,0.5-0.5v-3.354c1.463-0.445,2-2.866,2-5.146
			C29.999,12.218,29.261,10.433,27.999,10.069z"/>
	</g>
</g>
</svg>
