<?xml version="1.0" encoding="iso-8859-1"?>
<!-- Generator: Adobe Illustrator 19.0.0, SVG Export Plug-In . SVG Version: 6.00 Build 0)  -->
<svg version="1.1" id="Layer_1" xmlns="http://www.w3.org/2000/svg" xmlns:xlink="http://www.w3.org/1999/xlink" x="0px" y="0px"
	 viewBox="0 0 30 30" style="enable-background:new 0 0 30 30;" xml:space="preserve">
<g>
	<g>
		<path d="M20.231,1.892c-0.616,0-1.213,0.121-1.755,0.354C17.902,0.897,16.553,0,15.001,0S12.1,0.897,11.525,2.246
			c-0.542-0.233-1.139-0.354-1.755-0.354C7.692,1.892,6,3.247,6,4.913V29.5C6,29.776,6.224,30,6.5,30h17c0.276,0,0.5-0.224,0.5-0.5
			V4.913C24.001,3.247,22.31,1.892,20.231,1.892z M15.001,8c-1.103,0-2-0.897-2-2c0-1.103,0.897-2,2-2c1.103,0,2,0.897,2,2
			C17.001,7.103,16.104,8,15.001,8z"/>
	</g>
</g>
</svg>
