<?xml version="1.0" encoding="iso-8859-1"?>
<!-- Generator: Adobe Illustrator 19.0.0, SVG Export Plug-In . SVG Version: 6.00 Build 0)  -->
<svg version="1.1" id="Layer_1" xmlns="http://www.w3.org/2000/svg" xmlns:xlink="http://www.w3.org/1999/xlink" x="0px" y="0px"
	 viewBox="0 0 30 30" style="enable-background:new 0 0 30 30;" xml:space="preserve">
<g>
	<g>
		<path d="M29.5,8.5h-1.097L25,5.997V5c0-0.276-0.224-0.5-0.5-0.5h-19C5.224,4.5,5,4.724,5,5v0.997L1.597,8.5H0.5
			C0.224,8.5,0,8.724,0,9v12c0,0.276,0.224,0.5,0.5,0.5h1.097L5,24.003V25c0,0.276,0.224,0.5,0.5,0.5h19c0.276,0,0.5-0.224,0.5-0.5
			v-0.997l3.403-2.503H29.5c0.276,0,0.5-0.224,0.5-0.5V9C30,8.724,29.776,8.5,29.5,8.5z"/>
	</g>
</g>
</svg>
