<?xml version="1.0" encoding="iso-8859-1"?>
<!-- Generator: Adobe Illustrator 19.0.0, SVG Export Plug-In . SVG Version: 6.00 Build 0)  -->
<svg version="1.1" id="Layer_1" xmlns="http://www.w3.org/2000/svg" xmlns:xlink="http://www.w3.org/1999/xlink" x="0px" y="0px"
	 viewBox="0 0 30 30" style="enable-background:new 0 0 30 30;" xml:space="preserve">
<g>
	<g>
		<path d="M28.241,5.043c-0.42,0-0.761-0.341-0.761-0.761c0-0.971-0.79-1.761-1.761-1.761h-0.973c-0.42,0-0.761-0.341-0.761-0.761
			c0-0.971-0.79-1.761-1.761-1.761H7.765c-0.971,0-1.761,0.79-1.761,1.761c0,0.42-0.341,0.761-0.761,0.761H4.281
			c-0.971,0-1.761,0.79-1.761,1.761c0,0.419-0.341,0.761-0.761,0.761c-0.971,0-1.761,0.79-1.761,1.761v16.392
			c0,0.971,0.79,1.761,1.761,1.761c0.42,0,0.761,0.341,0.761,0.761c0,0.971,0.79,1.761,1.761,1.761h0.962
			c0.42,0,0.761,0.341,0.761,0.761c0,0.971,0.79,1.761,1.761,1.761h14.469c0.971,0,1.761-0.79,1.761-1.761
			c0-0.42,0.341-0.761,0.761-0.761h0.962c0.971,0,1.761-0.79,1.761-1.761c0-0.419,0.341-0.761,0.761-0.761
			c0.971,0,1.761-0.79,1.761-1.761V6.804C30.002,5.833,29.212,5.043,28.241,5.043z"/>
	</g>
</g>
</svg>
