<?xml version="1.0" encoding="iso-8859-1"?>
<!-- Generator: Adobe Illustrator 19.0.0, SVG Export Plug-In . SVG Version: 6.00 Build 0)  -->
<svg version="1.1" id="Layer_1" xmlns="http://www.w3.org/2000/svg" xmlns:xlink="http://www.w3.org/1999/xlink" x="0px" y="0px"
	 viewBox="0 0 30 30" style="enable-background:new 0 0 30 30;" xml:space="preserve">
<g>
	<g>
		<path d="M29.995,8.07c0.021-0.144-0.022-0.289-0.117-0.398c-0.095-0.109-0.233-0.173-0.378-0.173H27v-2.5
			c0-0.144-0.062-0.281-0.17-0.375c-0.107-0.095-0.25-0.138-0.395-0.12L15,5.995L3.564,4.504c-0.142-0.019-0.286,0.025-0.395,0.12
			C3.06,4.719,3,4.855,3,4.999v2.5H0.5c-0.145,0-0.283,0.063-0.378,0.172C0.027,7.78-0.016,7.926,0.005,8.069l0.99,6.929
			l-0.99,6.929c-0.021,0.144,0.022,0.289,0.117,0.398c0.095,0.109,0.233,0.174,0.378,0.174H3v2.5c0,0.144,0.062,0.281,0.17,0.375
			c0.108,0.096,0.254,0.142,0.395,0.12L15,24.003l11.436,1.491c0.021,0.004,0.043,0.005,0.064,0.005c0.121,0,0.238-0.044,0.33-0.125
			C26.938,25.28,27,25.143,27,24.999v-2.5h2.5c0.145,0,0.283-0.063,0.378-0.172c0.095-0.109,0.138-0.255,0.117-0.398L29.005,15
			L29.995,8.07z"/>
	</g>
</g>
</svg>
