<?xml version="1.0" encoding="iso-8859-1"?>
<!-- Generator: Adobe Illustrator 19.0.0, SVG Export Plug-In . SVG Version: 6.00 Build 0)  -->
<svg version="1.1" id="Layer_1" xmlns="http://www.w3.org/2000/svg" xmlns:xlink="http://www.w3.org/1999/xlink" x="0px" y="0px"
	 viewBox="0 0 30 30" style="enable-background:new 0 0 30 30;" xml:space="preserve">
<g>
	<g>
		<path d="M29.812,14.609L27.5,12.76V10.5c0-0.276-0.224-0.5-0.5-0.5h-2V8.002c0.003-0.807-0.304-1.561-0.864-2.124
			C23.572,5.312,22.813,5,22,5h-3.315l-3.36-2.879c-0.187-0.161-0.464-0.161-0.65,0L11.315,5H8C6.318,5,5,6.318,5,8v2H3
			c-0.276,0-0.5,0.224-0.5,0.5v2.26l-2.313,1.85C0.069,14.704,0,14.848,0,15s0.069,0.296,0.187,0.391l2.313,1.85v2.26
			c0,0.276,0.224,0.5,0.5,0.5h2v2c0,1.683,1.318,3,3,3h3.315l3.36,2.88C14.768,27.96,14.884,28,15,28c0.116,0,0.232-0.04,0.325-0.12
			l3.36-2.88H22c1.675,0,2.993-1.316,3-3v-2h2c0.276,0,0.5-0.224,0.5-0.5v-2.26l2.312-1.85C29.931,15.296,30,15.152,30,15
			S29.931,14.704,29.812,14.609z"/>
	</g>
</g>
</svg>
