<?xml version="1.0" encoding="iso-8859-1"?>
<!-- Generator: Adobe Illustrator 19.0.0, SVG Export Plug-In . SVG Version: 6.00 Build 0)  -->
<svg version="1.1" id="Layer_1" xmlns="http://www.w3.org/2000/svg" xmlns:xlink="http://www.w3.org/1999/xlink" x="0px" y="0px"
	 viewBox="0 0 30 30" style="enable-background:new 0 0 30 30;" xml:space="preserve">
<g>
	<g>
		<path d="M30,11.498C29.999,11.223,29.775,11,29.5,11h-2.308L24.76,8.448L22.271,5.91c-0.065-0.066-0.147-0.113-0.238-0.135
			l-3.457-0.85l-3.449-0.909c-0.082-0.022-0.172-0.022-0.254,0l-3.442,0.907L7.968,5.775C7.877,5.797,7.795,5.844,7.731,5.91
			L5.235,8.453L2.808,11H0.5c-0.275,0-0.499,0.223-0.5,0.498l-0.021,7c0,0.133,0.052,0.261,0.146,0.354
			c0.094,0.095,0.222,0.147,0.354,0.147h2.309l4.942,5.09c0.064,0.065,0.146,0.112,0.237,0.135l3.457,0.85l3.449,0.909
			C14.914,25.994,14.957,26,15,26c0.043,0,0.086-0.006,0.127-0.017l3.442-0.907l3.464-0.852c0.091-0.022,0.173-0.069,0.237-0.135
			l4.942-5.09h2.309c0.133,0,0.261-0.053,0.354-0.147c0.094-0.094,0.146-0.222,0.146-0.354L30,11.498z"/>
	</g>
</g>
</svg>
