<?xml version="1.0" encoding="iso-8859-1"?>
<!-- Generator: Adobe Illustrator 19.0.0, SVG Export Plug-In . SVG Version: 6.00 Build 0)  -->
<svg version="1.1" id="Layer_1" xmlns="http://www.w3.org/2000/svg" xmlns:xlink="http://www.w3.org/1999/xlink" x="0px" y="0px"
	 viewBox="0 0 30 30" style="enable-background:new 0 0 30 30;" xml:space="preserve">
<g>
	<g>
		<path d="M28.019,11.479L28,8.497C28,8.222,27.776,8,27.5,8H27V7c0-1.654-1.346-3-3-3H6.021C4.354,4,3,5.333,3,6.971V8H2.5
			C2.224,8,2,8.224,2,8.5v2.979C1.097,11.716,0,12.633,0,15c0,2.366,1.086,3.283,1.981,3.521L2,21.503C2.003,21.778,2.226,22,2.5,22
			H3v1c0,1.654,1.346,3,3,3h17.979C25.646,26,27,24.667,27,23.029V22h0.5c0.277,0,0.5-0.224,0.5-0.5v-2.979
			c0.902-0.237,2-1.154,2-3.521C30,12.634,28.914,11.717,28.019,11.479z"/>
	</g>
</g>
</svg>
