<?xml version="1.0" encoding="iso-8859-1"?>
<!-- Generator: Adobe Illustrator 19.0.0, SVG Export Plug-In . SVG Version: 6.00 Build 0)  -->
<svg version="1.1" id="Layer_1" xmlns="http://www.w3.org/2000/svg" xmlns:xlink="http://www.w3.org/1999/xlink" x="0px" y="0px"
	 viewBox="0 0 30 30" style="enable-background:new 0 0 30 30;" xml:space="preserve">
<g>
	<g>
		<path d="M26.645,14.503c-0.66-0.202-1.107-0.882-1.581-1.603c-0.296-0.45-0.601-0.914-0.984-1.313
			c-0.729-3.422-2.521-6.255-4.94-7.814c-0.457-0.873-1.299-1.412-2.047-1.891c-0.727-0.465-1.414-0.905-1.616-1.551
			c-0.131-0.417-0.824-0.417-0.955,0c-0.202,0.646-0.89,1.085-1.616,1.551c-0.748,0.479-1.59,1.018-2.047,1.891
			c-2.419,1.559-4.211,4.392-4.94,7.814c-0.384,0.4-0.688,0.864-0.984,1.313c-0.474,0.72-0.921,1.401-1.581,1.603
			C3.144,14.567,3,14.761,3,14.981c0,0.22,0.144,0.414,0.354,0.478c0.66,0.202,1.107,0.882,1.581,1.603
			c0.296,0.45,0.601,0.914,0.984,1.313c0.729,3.422,2.521,6.255,4.94,7.814c0.457,0.873,1.299,1.412,2.047,1.891
			c0.727,0.465,1.414,0.905,1.616,1.551c0.065,0.208,0.259,0.351,0.478,0.351s0.412-0.142,0.478-0.351
			c0.202-0.646,0.89-1.085,1.616-1.551c0.748-0.479,1.59-1.018,2.047-1.891c2.419-1.559,4.211-4.392,4.94-7.814
			c0.384-0.4,0.688-0.864,0.984-1.313c0.474-0.72,0.921-1.401,1.581-1.603C26.856,15.395,27,15.201,27,14.981
			C27,14.761,26.855,14.567,26.645,14.503z M14.999,23.481c-2.981,0-5.5-3.893-5.5-8.5s2.519-8.5,5.5-8.5c2.981,0,5.5,3.893,5.5,8.5
			S17.98,23.481,14.999,23.481z"/>
	</g>
</g>
</svg>
