<?xml version="1.0" encoding="iso-8859-1"?>
<!-- Generator: Adobe Illustrator 19.0.0, SVG Export Plug-In . SVG Version: 6.00 Build 0)  -->
<svg version="1.1" id="Layer_1" xmlns="http://www.w3.org/2000/svg" xmlns:xlink="http://www.w3.org/1999/xlink" x="0px" y="0px"
	 viewBox="0 0 30 30" style="enable-background:new 0 0 30 30;" xml:space="preserve">
<g>
	<g>
		<path d="M17.488,3.392c-0.013-0.061-0.036-0.121-0.072-0.176l-2-3c-0.186-0.278-0.646-0.278-0.832,0l-2,3
			c-0.037,0.055-0.06,0.115-0.072,0.176C7.922,4.835,4.5,10.153,4.5,16.493c0,7.444,4.71,13.5,10.5,13.5s10.5-6.056,10.5-13.5
			C25.5,10.153,22.079,4.835,17.488,3.392z M15,1.394l1.118,1.678C15.75,3.022,15.378,2.993,15,2.993s-0.751,0.029-1.118,0.079
			L15,1.394z M15,25.993c-3.59,0-6.5-4.253-6.5-9.5s2.91-9.5,6.5-9.5c3.59,0,6.5,4.253,6.5,9.5S18.59,25.993,15,25.993z"/>
	</g>
</g>
</svg>
