<?xml version="1.0" encoding="iso-8859-1"?>
<!-- Generator: Adobe Illustrator 19.0.0, SVG Export Plug-In . SVG Version: 6.00 Build 0)  -->
<svg version="1.1" id="Layer_1" xmlns="http://www.w3.org/2000/svg" xmlns:xlink="http://www.w3.org/1999/xlink" x="0px" y="0px"
	 viewBox="0 0 30 30" style="enable-background:new 0 0 30 30;" xml:space="preserve">
<g>
	<g>
		<path d="M28,0H2C1.724,0,1.5,0.224,1.5,0.5v29C1.5,29.776,1.724,30,2,30h26c0.276,0,0.5-0.224,0.5-0.5v-29
			C28.5,0.224,28.276,0,28,0z M27.5,3h-1.293L22.5,6.707v16.586L26.207,27H27.5v2h-2v-1.293L21.793,24H8.207L4.5,27.707V29h-2v-2
			h1.293L7.5,23.293V6.707L3.793,3H2.5V1l2,0.004v1.289L8.207,6h13.586L25.5,2.293V1.004L27.5,1V3z"/>
	</g>
</g>
</svg>
