<?xml version="1.0" encoding="iso-8859-1"?>
<!-- Generator: Adobe Illustrator 19.0.0, SVG Export Plug-In . SVG Version: 6.00 Build 0)  -->
<svg version="1.1" id="Layer_1" xmlns="http://www.w3.org/2000/svg" xmlns:xlink="http://www.w3.org/1999/xlink" x="0px" y="0px"
	 viewBox="0 0 30 30" style="enable-background:new 0 0 30 30;" xml:space="preserve">
<g>
	<g>
		<path d="M28,4c0.276,0,0.5-0.224,0.5-0.5v-3C28.5,0.224,28.276,0,28,0h-3c-0.276,0-0.5,0.224-0.5,0.5V3h-19V0.5
			C5.5,0.224,5.276,0,5,0H2C1.724,0,1.5,0.224,1.5,0.5v3C1.5,3.776,1.724,4,2,4h2.5v22H2c-0.276,0-0.5,0.224-0.5,0.5v3
			C1.5,29.776,1.724,30,2,30h3c0.276,0,0.5-0.224,0.5-0.5V27h19v2.5c0,0.276,0.224,0.5,0.5,0.5h3c0.276,0,0.5-0.224,0.5-0.5v-3
			c0-0.276-0.224-0.5-0.5-0.5h-2.5V4H28z M21.5,23h-13V7h13V23z"/>
	</g>
</g>
</svg>
