<?xml version="1.0" encoding="iso-8859-1"?>
<!-- Generator: Adobe Illustrator 19.0.0, SVG Export Plug-In . SVG Version: 6.00 Build 0)  -->
<svg version="1.1" id="Layer_1" xmlns="http://www.w3.org/2000/svg" xmlns:xlink="http://www.w3.org/1999/xlink" x="0px" y="0px"
	 viewBox="0 0 30 30" style="enable-background:new 0 0 30 30;" xml:space="preserve">
<g>
	<g>
		<path d="M28,0H2C1.724,0,1.5,0.224,1.5,0.5v29C1.5,29.776,1.724,30,2,30h26c0.276,0,0.5-0.224,0.5-0.5v-29
			C28.5,0.224,28.276,0,28,0z M4.5,26h-2V4h2V26z M24.5,29h-19v-2h19V29z M8.5,23V7h13v16H8.5z M24.5,3h-19V1h19V3z M27.5,26h-2V4h2
			V26z"/>
	</g>
</g>
</svg>
