<?xml version="1.0" encoding="iso-8859-1"?>
<!-- Generator: Adobe Illustrator 19.0.0, SVG Export Plug-In . SVG Version: 6.00 Build 0)  -->
<svg version="1.1" id="Layer_1" xmlns="http://www.w3.org/2000/svg" xmlns:xlink="http://www.w3.org/1999/xlink" x="0px" y="0px"
	 viewBox="0 0 30 30" style="enable-background:new 0 0 30 30;" xml:space="preserve">
<g>
	<g>
		<path d="M29.66,6.317c-0.978-0.333-1.736-1.059-2.082-1.991C27.506,4.13,27.318,4,27.109,4H2.889C2.68,4,2.493,4.13,2.42,4.326
			C2.074,5.258,1.316,5.983,0.339,6.317C0.135,6.386,0,6.576,0,6.79v16.42c0,0.214,0.136,0.404,0.339,0.473
			c0.978,0.333,1.736,1.059,2.082,1.991C2.492,25.87,2.68,26,2.889,26H27.11c0.209,0,0.396-0.13,0.469-0.326
			c0.346-0.932,1.104-1.657,2.082-1.991C29.865,23.614,30,23.424,30,23.21V6.79C29.999,6.576,29.863,6.386,29.66,6.317z M24.999,21
			h-20V9h20V21z"/>
	</g>
</g>
</svg>
