<?xml version="1.0" encoding="iso-8859-1"?>
<!-- Generator: Adobe Illustrator 19.0.0, SVG Export Plug-In . SVG Version: 6.00 Build 0)  -->
<svg version="1.1" id="Layer_1" xmlns="http://www.w3.org/2000/svg" xmlns:xlink="http://www.w3.org/1999/xlink" x="0px" y="0px"
	 viewBox="0 0 30 30" style="enable-background:new 0 0 30 30;" xml:space="preserve">
<g>
	<g>
		<path d="M16.857,2.635l-1.458-1.938c-0.188-0.251-0.61-0.251-0.799,0l-1.458,1.938C6.577,3.545,1.5,9.18,1.5,15.992
			c0,7.444,6.056,13.5,13.5,13.5c7.444,0,13.5-6.056,13.5-13.5C28.5,9.18,23.423,3.545,16.857,2.635z M15,1.83l0.518,0.688
			C15.345,2.512,15.175,2.492,15,2.492s-0.345,0.02-0.518,0.026L15,1.83z M15,25.492c-5.247,0-9.5-4.253-9.5-9.5s4.253-9.5,9.5-9.5
			s9.5,4.253,9.5,9.5S20.247,25.492,15,25.492z"/>
	</g>
</g>
</svg>
