<?xml version="1.0" encoding="iso-8859-1"?>
<!-- Generator: Adobe Illustrator 19.0.0, SVG Export Plug-In . SVG Version: 6.00 Build 0)  -->
<svg version="1.1" id="Layer_1" xmlns="http://www.w3.org/2000/svg" xmlns:xlink="http://www.w3.org/1999/xlink" x="0px" y="0px"
	 viewBox="0 0 30 30" style="enable-background:new 0 0 30 30;" xml:space="preserve">
<g>
	<g>
		<path d="M29.161,2.317c-0.978-0.333-1.736-1.059-2.082-1.991C27.007,0.13,26.819,0,26.609,0H3.39C3.181,0,2.994,0.13,2.921,0.326
			C2.575,1.258,1.817,1.983,0.839,2.317C0.635,2.386,0.5,2.576,0.5,2.79v24.42c0,0.214,0.136,0.404,0.339,0.473
			c0.978,0.333,1.736,1.059,2.082,1.991C2.993,29.87,3.181,30,3.39,30h23.221c0.209,0,0.396-0.13,0.469-0.326
			c0.346-0.932,1.104-1.657,2.082-1.991c0.203-0.069,0.339-0.259,0.339-0.473V2.79C29.5,2.576,29.364,2.386,29.161,2.317z M24.5,25
			h-19V5h19V25z"/>
	</g>
</g>
</svg>
