<?xml version="1.0" encoding="iso-8859-1"?>
<!-- Generator: Adobe Illustrator 19.0.0, SVG Export Plug-In . SVG Version: 6.00 Build 0)  -->
<svg version="1.1" id="Layer_1" xmlns="http://www.w3.org/2000/svg" xmlns:xlink="http://www.w3.org/1999/xlink" x="0px" y="0px"
	 viewBox="0 0 24 24" style="enable-background:new 0 0 24 24;" xml:space="preserve">
<g>
	<g>
		<path d="M15.179,11.556c4.297-3.481,4.663-6.107,4.183-7.711C18.733,1.748,16.295,0.282,13,0.022
			c-0.206-0.014-0.396,0.092-0.487,0.275l-0.532,1.064L11.45,0.298c-0.091-0.184-0.315-0.29-0.525-0.272
			c-0.211,0.02-0.388,0.17-0.439,0.377l-0.548,2.19L9.389,0.762C9.31,0.498,9.034,0.348,8.768,0.426
			c-2.359,0.697-3.9,2.118-4.227,3.898C4.255,5.882,4.785,8.386,8.78,11.56c-1.114,1.436-2.298,3.519-2.298,5.919
			c0,2.077,0.838,4.207,1.822,5.5H7.982c-0.276,0-0.5,0.224-0.5,0.5s0.224,0.5,0.5,0.5h8c0.276,0,0.5-0.224,0.5-0.5
			s-0.224-0.5-0.5-0.5H15.66c0.984-1.293,1.822-3.423,1.822-5.5C17.48,15.077,16.294,12.992,15.179,11.556z M10.869,13.769
			c-0.921,1.295-1.389,2.543-1.389,3.71c0,1.566,0.715,3.068,1.196,3.696c0.168,0.219,0.126,0.533-0.093,0.701
			c-0.091,0.069-0.198,0.103-0.304,0.103c-0.15,0-0.299-0.067-0.397-0.196c-0.675-0.882-1.402-2.604-1.402-4.304
			c0-1.378,0.53-2.822,1.574-4.29c0.159-0.224,0.471-0.278,0.697-0.117C10.976,13.231,11.029,13.544,10.869,13.769z M14.308,10.979
			H9.65c-3.003-2.32-4.468-4.616-4.126-6.475c0.235-1.282,1.338-2.345,3.053-2.965l0.925,3.083c0.064,0.216,0.266,0.36,0.491,0.356
			c0.225-0.005,0.419-0.16,0.473-0.379l0.672-2.688l0.396,0.791c0.084,0.169,0.258,0.276,0.447,0.276
			c0.189,0,0.362-0.107,0.447-0.276l0.826-1.653c2.666,0.291,4.67,1.481,5.15,3.082C18.969,6.02,17.515,8.447,14.308,10.979z"/>
	</g>
</g>
</svg>
