<?xml version="1.0" encoding="iso-8859-1"?>
<!-- Generator: Adobe Illustrator 19.0.0, SVG Export Plug-In . SVG Version: 6.00 Build 0)  -->
<svg version="1.1" id="Layer_1" xmlns="http://www.w3.org/2000/svg" xmlns:xlink="http://www.w3.org/1999/xlink" x="0px" y="0px"
	 viewBox="0 0 24 24" style="enable-background:new 0 0 24 24;" xml:space="preserve">
<g>
	<path d="M22.043,0h-8c-0.202,0-0.385,0.122-0.462,0.309c-0.078,0.187-0.035,0.402,0.108,0.545l2.232,2.232l-7.232,7.232
		c-0.094,0.094-0.146,0.221-0.146,0.354v12.829c0,0.276,0.224,0.5,0.5,0.5h4c0.276,0,0.5-0.224,0.5-0.5V12.537l5.914-5.915
		l2.232,2.232c0.143,0.144,0.359,0.188,0.545,0.108c0.187-0.077,0.309-0.26,0.309-0.462v-8C22.543,0.224,22.319,0,22.043,0z"/>
	<path d="M12.396,7.146l-7-7c-0.195-0.195-0.512-0.195-0.707,0L1.603,3.232C1.509,3.326,1.457,3.453,1.457,3.586
		S1.51,3.846,1.603,3.94l7.086,7.085c0.098,0.098,0.226,0.146,0.354,0.146s0.256-0.049,0.354-0.146c0.195-0.195,0.195-0.512,0-0.707
		l-0.01-0.01l2.315-2.447c0.196,0.185,0.503,0.184,0.695-0.008C12.592,7.658,12.592,7.342,12.396,7.146z"/>
</g>
</svg>
