<?xml version="1.0" encoding="utf-8"?>
<!-- Generator: Adobe Illustrator 19.0.0, SVG Export Plug-In . SVG Version: 6.00 Build 0)  -->
<svg version="1.1" id="Layer_1" xmlns="http://www.w3.org/2000/svg" xmlns:xlink="http://www.w3.org/1999/xlink" x="0px" y="0px"
	 viewBox="0 0 30 30" style="enable-background:new 0 0 30 30;" xml:space="preserve">
<g>
	<g>
		<path d="M15,18h9v-7h-9V18z M21.2,13.2c0.2-0.2,0.5-0.2,0.7,0c0.1,0.1,0.2,0.2,0.2,0.3s-0.1,0.3-0.1,0.3c-0.1,0.1-0.2,0.2-0.4,0.2
			s-0.3-0.1-0.3-0.1c-0.1-0.1-0.2-0.2-0.2-0.4S21.1,13.2,21.2,13.2z M21.2,15.2c0.2-0.2,0.5-0.2,0.7,0c0.1,0.1,0.2,0.2,0.2,0.3
			s-0.1,0.3-0.1,0.3c-0.1,0.1-0.2,0.2-0.4,0.2s-0.3-0.1-0.3-0.2c-0.1-0.1-0.2-0.2-0.2-0.3S21.1,15.2,21.2,15.2z M19.2,13.2
			c0.2-0.2,0.5-0.2,0.7,0c0.1,0.1,0.2,0.2,0.2,0.3s-0.1,0.3-0.1,0.3c-0.1,0.1-0.2,0.2-0.4,0.2s-0.3-0.1-0.3-0.2
			c-0.1-0.1-0.2-0.2-0.2-0.3S19.1,13.2,19.2,13.2z M19.2,15.2c0.2-0.2,0.5-0.2,0.7,0c0.1,0.1,0.2,0.2,0.2,0.3s-0.1,0.3-0.1,0.3
			c-0.1,0.1-0.2,0.2-0.4,0.2s-0.3-0.1-0.3-0.2c-0.1-0.1-0.2-0.2-0.2-0.3S19.1,15.2,19.2,15.2z M17.1,13.2c0.2-0.2,0.5-0.2,0.7,0
			c0.1,0.1,0.2,0.2,0.2,0.3s-0.1,0.3-0.2,0.3c-0.1,0.1-0.2,0.2-0.3,0.2s-0.3-0.1-0.3-0.2c-0.1-0.1-0.2-0.2-0.2-0.3
			S17.1,13.2,17.1,13.2z M17.1,15.2c0.2-0.2,0.5-0.2,0.7,0c0.1,0.1,0.2,0.2,0.2,0.3s-0.1,0.3-0.2,0.3c-0.1,0.1-0.2,0.2-0.3,0.2
			s-0.3-0.1-0.3-0.2c-0.1-0.1-0.2-0.2-0.2-0.3S17.1,15.3,17.1,15.2z"/>
	</g>
	<g>
		<path d="M24,4H6C4.9,4,4,4.9,4,6v17c0,0.7,0.2,2,1.5,2h19c1.3,0,1.5-1.3,1.5-2V6C26,4.9,25.1,4,24,4z M5.1,5.2
			C5.3,5,5.7,5,5.8,5.1C5.9,5.2,6,5.4,6,5.5S5.9,5.8,5.9,5.8C5.8,5.9,5.6,6,5.5,6S5.2,5.9,5.2,5.8C5.1,5.8,5,5.6,5,5.5
			S5.1,5.2,5.1,5.2z M5.9,23.8C5.8,23.9,5.6,24,5.5,24s-0.3-0.1-0.3-0.2C5.1,23.8,5,23.6,5,23.5s0.1-0.3,0.1-0.3
			c0.2-0.2,0.5-0.2,0.7,0C5.9,23.2,6,23.4,6,23.5S5.9,23.8,5.9,23.8z M11.5,15H8c0,0-0.1,0-0.1,0c-0.2,0.6-0.8,1-1.4,1
			C5.7,16,5,15.3,5,14.5S5.7,13,6.5,13c0.7,0,1.2,0.4,1.4,1c0,0,0.1,0,0.1,0h3.5c0.3,0,0.5,0.2,0.5,0.5S11.8,15,11.5,15z M24.9,23.8
			c-0.1,0.1-0.2,0.2-0.4,0.2s-0.3-0.1-0.3-0.2c-0.1-0.1-0.2-0.2-0.2-0.3s0.1-0.3,0.2-0.3c0.2-0.2,0.5-0.2,0.7,0
			c0.1,0.1,0.2,0.2,0.2,0.3S24.9,23.8,24.9,23.8z M25,18.5c0,0.3-0.2,0.5-0.5,0.5h-10c-0.3,0-0.5-0.2-0.5-0.5v-8
			c0-0.3,0.2-0.5,0.5-0.5h10c0.3,0,0.5,0.2,0.5,0.5V18.5z M24.9,5.8C24.8,5.9,24.6,6,24.5,6s-0.3-0.1-0.3-0.2
			C24.1,5.8,24,5.6,24,5.5s0.1-0.3,0.2-0.3c0.2-0.2,0.5-0.2,0.7,0C24.9,5.3,25,5.4,25,5.5S24.9,5.8,24.9,5.8z"/>
	</g>
	<g>
		<circle cx="6.5" cy="14.5" r="0.5"/>
	</g>
	<g>
		<path d="M24.5,0h-19C2.5,0,0,2.5,0,5.5v18C0,26.6,2.4,29,5.5,29H6v0.5C6,29.8,6.2,30,6.5,30S7,29.8,7,29.5V29h16v0.5
			c0,0.3,0.2,0.5,0.5,0.5s0.5-0.2,0.5-0.5V29h0.5c3.1,0,5.5-2.4,5.5-5.5v-18C30,2.5,27.5,0,24.5,0z M27,23c0,1.9-1,3-2.5,3h-19
			C4,26,3,24.9,3,23V6c0-1.7,1.3-3,3-3h18c1.7,0,3,1.3,3,3V23z"/>
	</g>
</g>
</svg>
