<?xml version="1.0" encoding="iso-8859-1"?>
<!-- Generator: Adobe Illustrator 19.0.0, SVG Export Plug-In . SVG Version: 6.00 Build 0)  -->
<svg version="1.1" id="Layer_1" xmlns="http://www.w3.org/2000/svg" xmlns:xlink="http://www.w3.org/1999/xlink" x="0px" y="0px"
	 viewBox="0 0 30 30" style="enable-background:new 0 0 30 30;" xml:space="preserve">
<g>
	<g>
		<path d="M17.305,25.357c0.132-0.243,0.041-0.546-0.202-0.677c-0.299-0.162-0.605-0.284-0.913-0.389
			c0.421-0.488,0.831-1.013,1.216-1.607c0.15-0.231,0.084-0.541-0.148-0.691c-0.228-0.147-0.54-0.084-0.691,0.148
			c-0.454,0.699-0.935,1.324-1.435,1.859h-3.257C6.081,17.815,5.972,3.776,6.009,1h14.988c0.025,1.784-0.008,8.222-1.569,14.21
			c-0.071,0.266,0.089,0.54,0.357,0.609c0.27,0.078,0.54-0.091,0.609-0.357c0.901-3.456,1.301-7.047,1.476-9.851
			c0.012-0.011,0.028-0.015,0.04-0.027c0.7-0.725,1.73-1.464,2.676-0.864c1.308,0.837,1.944,3.903,0.838,6.755
			c-0.297,0.766-0.768,1.596-1.402,2.468c-0.162,0.223-0.114,0.536,0.11,0.698c0.089,0.065,0.191,0.096,0.294,0.096
			c0.154,0,0.306-0.071,0.404-0.207c0.694-0.955,1.193-1.837,1.525-2.694c1.209-3.114,0.645-6.759-1.23-7.958
			c-0.586-0.374-1.716-0.748-3.181,0.348c0.062-1.48,0.061-2.611,0.052-3.226h0.505c0.276,0,0.5-0.224,0.5-0.5S22.778,0,22.502,0
			h-18c-0.276,0-0.5,0.224-0.5,0.5S4.226,1,4.502,1h0.504c-0.011,0.625-0.017,1.757,0.04,3.224c-1.463-1.091-2.592-0.72-3.177-0.345
			c-1.876,1.2-2.439,4.844-1.23,7.958c1.709,4.407,7.377,8.405,7.618,8.573c0.032,0.023,0.071,0.019,0.106,0.033
			c0.668,1.417,1.467,2.723,2.424,3.835c-2.194,0.723-3.784,2.789-3.784,5.222c0,0.276,0.224,0.5,0.5,0.5h6
			c0.276,0,0.5-0.224,0.5-0.5s-0.224-0.5-0.5-0.5H8.029c0.25-2.247,2.16-4,4.473-4h2c0.724,0,1.438,0.189,2.126,0.559
			C16.868,25.691,17.174,25.601,17.305,25.357z M1.57,11.476C0.464,8.624,1.1,5.558,2.408,4.722
			c0.938-0.605,1.975,0.136,2.676,0.863c0.009,0.01,0.022,0.013,0.031,0.022c0.221,3.664,0.842,8.684,2.49,13.045
			C5.851,17.235,2.705,14.402,1.57,11.476z M7.49,2.999C7.215,3.005,6.996,3.235,7.002,3.511c0.049,2.228,0.532,13.63,5.111,19.303
			C12.212,22.937,12.356,23,12.502,23c0.11,0,0.222-0.036,0.315-0.113c0.215-0.173,0.248-0.488,0.074-0.703
			c-4.375-5.42-4.84-16.525-4.889-18.697C7.996,3.212,7.791,2.994,7.49,2.999z M27.598,26.422l-1.859-0.465l-0.103-0.412
			c0.486-0.521,0.827-1.197,0.958-1.897c0.315-0.145,0.545-0.443,0.59-0.803l0.131-1.045c0.035-0.288-0.054-0.578-0.244-0.796
			c-0.071-0.082-0.155-0.151-0.247-0.206l0.036-0.732l0.137-0.137c0.287-0.307,0.678-0.965,0.053-1.921
			C26.748,17.548,26.125,17,24.873,17c-0.376,0-1.231,0-2.051,0.524c-2.379,0.073-2.69,1.275-2.69,2.323
			c0,0.207,0.04,0.615,0.075,0.932c-0.101,0.056-0.193,0.129-0.271,0.218c-0.194,0.219-0.285,0.511-0.249,0.804l0.131,1.043
			c0.046,0.372,0.29,0.677,0.652,0.816c0.129,0.673,0.451,1.326,0.908,1.836l-0.115,0.461l-1.859,0.465
			c-1.414,0.353-2.402,1.619-2.402,3.078c0,0.133,0.052,0.261,0.146,0.354S17.369,30,17.502,30L29.5,29.999
			c0.276,0,0.5-0.224,0.5-0.5C30,28.04,29.013,26.776,27.598,26.422z M18.06,28.999c0.182-0.777,0.785-1.406,1.586-1.606l2.15-0.538
			c0.179-0.045,0.319-0.184,0.364-0.364l0.256-1.022c0.044-0.175-0.011-0.361-0.144-0.485c-0.484-0.455-0.805-1.122-0.858-1.783
			c-0.02-0.26-0.237-0.46-0.498-0.46l-0.106-0.02l-0.055-1.067c0.144,0,0.28-0.062,0.375-0.169c0.095-0.109,0.139-0.251,0.121-0.394
			c-0.046-0.365-0.119-1.026-0.119-1.242c0-0.642,0-1.307,1.853-1.326c0.102-0.001,0.202-0.033,0.286-0.094
			c0.599-0.428,1.277-0.428,1.603-0.428c0.656,0,1.095,0.182,1.34,0.556c0.288,0.441,0.147,0.59,0.066,0.677l-0.262,0.261
			c-0.088,0.088-0.14,0.206-0.146,0.33l-0.063,1.306c-0.007,0.136,0.053,0.279,0.146,0.378c0.093,0.1,0.233,0.168,0.369,0.169
			l-0.178,1.063c-0.261,0-0.477,0.2-0.498,0.461c-0.053,0.67-0.397,1.366-0.899,1.817c-0.137,0.124-0.196,0.313-0.151,0.493
			l0.245,0.979c0.045,0.179,0.184,0.319,0.364,0.364l2.15,0.538c0.802,0.2,1.404,0.829,1.587,1.607L18.06,28.999z"/>
	</g>
</g>
</svg>
