<?xml version="1.0" encoding="iso-8859-1"?>
<!-- Generator: Adobe Illustrator 19.2.1, SVG Export Plug-In . SVG Version: 6.00 Build 0)  -->
<svg version="1.1" xmlns="http://www.w3.org/2000/svg" xmlns:xlink="http://www.w3.org/1999/xlink" x="0px" y="0px"
	 viewBox="0 0 24 24" style="enable-background:new 0 0 24 24;" xml:space="preserve">
<g id="Cad_1">
</g>
<g id="Cad_2">
</g>
<g id="Cad_Pencil">
</g>
<g id="Cad_Compasses">
</g>
<g id="Tools_1">
</g>
<g id="Tools_2">
</g>
<g id="Ruler_1">
</g>
<g id="Ruler_2">
</g>
<g id="Workspace_1">
</g>
<g id="Workspace_2">
</g>
<g id="Cad_3">
</g>
<g id="_x33_D_Box">
	<g>
		<path d="M18.745,10.066l-7-4c-0.153-0.088-0.343-0.088-0.496,0l-7,4c0,0,0,0,0,0l7.248,3.867l7.25-3.865
			C18.746,10.068,18.746,10.067,18.745,10.066z"/>
		<path d="M3.997,18.5c0,0.179,0.096,0.345,0.252,0.434l6.748,3.856V14.8l-7-3.735V18.5z"/>
		<path d="M11.997,22.79l6.748-3.856c0.156-0.089,0.252-0.255,0.252-0.434v-7.431l-7,3.732V22.79z"/>
		<path d="M10.854,2.854L11,2.707V4.5C11,4.777,11.224,5,11.5,5S12,4.777,12,4.5V2.707l0.146,0.146c0.195,0.195,0.512,0.195,0.707,0
			s0.195-0.512,0-0.707L11.856,1.15c-0.01-0.01-0.021-0.021-0.032-0.03l0,0c-0.077-0.065-0.168-0.104-0.263-0.115c0,0,0,0,0,0
			C11.53,1,11.502,0.999,11.472,1.001c0,0,0,0,0,0c-0.118,0.007-0.234,0.055-0.325,0.146l-1,1C10.049,2.244,10,2.372,10,2.5
			s0.049,0.256,0.146,0.354C10.342,3.049,10.658,3.049,10.854,2.854z"/>
		<path d="M22.974,20.671L22.974,20.671L22.974,20.671l0-0.002v0l0-0.001l-0.375-1.363c-0.073-0.267-0.352-0.424-0.615-0.349
			c-0.222,0.061-0.368,0.263-0.367,0.482c0,0.043,0.006,0.088,0.018,0.132l0.055,0.199l-1.239-0.704
			c-0.242-0.138-0.546-0.053-0.682,0.188c-0.137,0.24-0.053,0.545,0.188,0.682l1.239,0.704l-0.2,0.055
			c-0.266,0.073-0.422,0.349-0.349,0.615c0.061,0.222,0.262,0.367,0.481,0.367c0.044,0,0.089-0.006,0.133-0.018l1.359-0.375
			c0.014-0.003,0.027-0.008,0.04-0.012c0.094-0.034,0.173-0.093,0.229-0.168c0.02-0.026,0.037-0.055,0.052-0.084
			C22.992,20.914,23.006,20.792,22.974,20.671z"/>
		<path d="M2.542,19.065l-1.239,0.704l0.055-0.199c0.012-0.044,0.018-0.089,0.018-0.132c0-0.22-0.145-0.421-0.367-0.482
			c-0.267-0.074-0.542,0.083-0.615,0.349l-0.375,1.363l0,0.001v0l0,0.001v0v0C-0.015,20.792,0,20.914,0.05,21.018
			c0.015,0.029,0.032,0.058,0.052,0.084c0.056,0.074,0.134,0.133,0.227,0.167c0.014,0.005,0.028,0.01,0.043,0.014l1.359,0.374
			c0.044,0.012,0.089,0.018,0.133,0.018c0.219,0,0.42-0.146,0.481-0.367c0.073-0.266-0.083-0.542-0.349-0.615l-0.2-0.055
			l1.239-0.704c0.24-0.136,0.324-0.441,0.188-0.682C3.088,19.013,2.783,18.929,2.542,19.065z"/>
	</g>
</g>
<g id="Section_Symbol">
</g>
<g id="Outlet_Symbol">
</g>
<g id="Cad_File">
</g>
<g id="Blueprint">
</g>
<g id="Construction_Plan">
</g>
<g id="Roof_Plan">
</g>
<g id="House_Construction">
</g>
<g id="Building_Construction">
</g>
<g id="Work_Table">
</g>
<g id="Table_Cad">
</g>
<g id="House_Plan">
</g>
<g id="Tape_Measure">
</g>
<g id="Cad_Paper">
</g>
<g id="Cad_Papers">
</g>
<g id="Stairs">
</g>
<g id="Pillar">
</g>
<g id="Bricks">
</g>
<g id="Pantheon">
</g>
<g id="House">
</g>
<g id="Skyscraper">
</g>
<g id="Building">
</g>
</svg>
