<?xml version="1.0" encoding="iso-8859-1"?>
<!-- Generator: Adobe Illustrator 19.2.1, SVG Export Plug-In . SVG Version: 6.00 Build 0)  -->
<svg version="1.1" xmlns="http://www.w3.org/2000/svg" xmlns:xlink="http://www.w3.org/1999/xlink" x="0px" y="0px"
	 viewBox="0 0 24 24" style="enable-background:new 0 0 24 24;" xml:space="preserve">
<g id="Cad_1">
</g>
<g id="Cad_2">
</g>
<g id="Cad_Pencil">
</g>
<g id="Cad_Compasses">
</g>
<g id="Tools_1">
</g>
<g id="Tools_2">
</g>
<g id="Ruler_1">
</g>
<g id="Ruler_2">
</g>
<g id="Workspace_1">
</g>
<g id="Workspace_2">
</g>
<g id="Cad_3">
</g>
<g id="_x33_D_Box">
</g>
<g id="Section_Symbol">
</g>
<g id="Outlet_Symbol">
</g>
<g id="Cad_File">
</g>
<g id="Blueprint">
</g>
<g id="Construction_Plan">
</g>
<g id="Roof_Plan">
</g>
<g id="House_Construction">
</g>
<g id="Building_Construction">
</g>
<g id="Work_Table">
</g>
<g id="Table_Cad">
</g>
<g id="House_Plan">
</g>
<g id="Tape_Measure">
</g>
<g id="Cad_Paper">
</g>
<g id="Cad_Papers">
	<path d="M18,2.508c0.002-1.4-1.532-2.501-3.51-2.508c-0.003,0-0.006,0-0.009,0c-1.145,0-1.978,0.629-1.98,1.499l0,0l0,0
		c0,0.001,0,0.003,0,0.004V3.37C12.192,3.122,12,2.821,12,2.496V2.494c0,0,0,0,0-0.001V2.492c0-0.276-0.224-0.5-0.499-0.5H11.5
		c-0.275,0-0.499,0.223-0.5,0.499c0,0.002,0,0.005,0,0.008l0,0.245C10.368,2.285,9.486,2.003,8.489,2C8.486,2,8.483,2,8.48,2
		C7.336,2,6.503,2.629,6.5,3.499l0,0l0,0c0,0.001,0,0.003,0,0.004V5.37C6.192,5.122,6,4.821,6,4.496V4.494c0,0,0,0,0-0.001V4.492
		c0-0.276-0.224-0.5-0.499-0.5H5.5c-0.275,0-0.499,0.223-0.5,0.499c0,0.002,0,0.005,0,0.008L4.988,21.49
		C4.984,22.892,6.52,23.994,8.481,24c0.006,0,0.011,0,0.016,0c0.894,0,1.74-0.235,2.386-0.663c0.711-0.472,1.104-1.12,1.105-1.828
		l0-0.249c0.629,0.456,1.507,0.737,2.493,0.739c0.006,0,0.011,0,0.016,0c0.894,0,1.74-0.235,2.386-0.663
		c0.711-0.472,1.104-1.12,1.105-1.828L18,2.511V2.51C18,2.509,18,2.508,18,2.508z M10.342,5.504
		C9.973,5.748,9.507,5.907,8.996,5.969L9,4.501C9.001,4.225,8.777,4.001,8.501,4C7.949,3.999,7.5,3.775,7.5,3.501
		c0.001-0.281,0.43-0.5,0.994-0.5c0.003,0,0.006,0,0.009,0c1.351,0.004,2.49,0.69,2.496,1.499v0.015
		C10.993,4.999,10.586,5.342,10.342,5.504z M16.342,3.504c-0.369,0.244-0.835,0.403-1.345,0.465L15,2.501
		c0.001-0.276-0.223-0.5-0.499-0.501C13.949,1.999,13.5,1.775,13.5,1.501c0.001-0.281,0.43-0.5,0.994-0.5c0.003,0,0.006,0,0.009,0
		C15.858,1.005,17.002,1.695,17,2.508C16.999,2.996,16.587,3.341,16.342,3.504z"/>
</g>
<g id="Stairs">
</g>
<g id="Pillar">
</g>
<g id="Bricks">
</g>
<g id="Pantheon">
</g>
<g id="House">
</g>
<g id="Skyscraper">
</g>
<g id="Building">
</g>
</svg>
