<?xml version="1.0" encoding="iso-8859-1"?>
<!-- Generator: Adobe Illustrator 19.2.1, SVG Export Plug-In . SVG Version: 6.00 Build 0)  -->
<svg version="1.1" xmlns="http://www.w3.org/2000/svg" xmlns:xlink="http://www.w3.org/1999/xlink" x="0px" y="0px"
	 viewBox="0 0 24 24" style="enable-background:new 0 0 24 24;" xml:space="preserve">
<g id="Cad_1">
</g>
<g id="Cad_2">
</g>
<g id="Cad_Pencil">
</g>
<g id="Cad_Compasses">
	<g>
		<path d="M19,5.5c0-1.207-0.86-2.217-2-2.449V1.5C17,1.224,16.776,1,16.5,1S16,1.224,16,1.5v1.551c-1.14,0.232-2,1.242-2,2.449
			C14,6.878,15.122,8,16.5,8S19,6.878,19,5.5z"/>
		<path d="M11.7,16.4c-0.278,0.375-0.727,0.601-1.197,0.601c-0.165,0-0.327-0.027-0.483-0.08C9.413,16.719,9,16.147,9,15.5v-2
			c0-0.259,0.068-0.516,0.196-0.742l0.885-1.549L9.762,11H8v6h1.5c0.276,0,0.5,0.224,0.5,0.5S9.776,18,9.5,18H8v1.5
			C8,19.776,7.776,20,7.5,20S7,19.776,7,19.5V18H5.5C5.224,18,5,17.776,5,17.5S5.224,17,5.5,17H7v-6H1v6h1.5
			C2.776,17,3,17.224,3,17.5S2.776,18,2.5,18H1v1h0.5C1.776,19,2,19.224,2,19.5v3c0,0.133-0.053,0.26-0.146,0.354S1.632,23,1.5,23
			L1,23v1h6v-1.5C7,22.224,7.224,22,7.5,22S8,22.224,8,22.5V24h6v-6h-1.5c-0.276,0-0.5-0.224-0.5-0.5s0.224-0.5,0.5-0.5H14v-3.229
			l-0.22-0.144L11.7,16.4z"/>
		<path d="M13.491,7.258l-3.425,5.994C10.023,13.328,10,13.413,10,13.5v2c0,0.215,0.138,0.406,0.342,0.474
			c0.207,0.07,0.43-0.001,0.558-0.174l5.135-6.847C14.948,8.807,14.024,8.166,13.491,7.258z"/>
		<path d="M22.934,13.252l-3.425-5.994c-0.533,0.909-1.456,1.549-2.544,1.695L22.1,15.8c0.096,0.128,0.246,0.2,0.4,0.2
			c0.053,0,0.106-0.008,0.158-0.026C22.862,15.906,23,15.715,23,15.5v-2C23,13.413,22.977,13.328,22.934,13.252z"/>
	</g>
</g>
<g id="Tools_1">
</g>
<g id="Tools_2">
</g>
<g id="Ruler_1">
</g>
<g id="Ruler_2">
</g>
<g id="Workspace_1">
</g>
<g id="Workspace_2">
</g>
<g id="Cad_3">
</g>
<g id="_x33_D_Box">
</g>
<g id="Section_Symbol">
</g>
<g id="Outlet_Symbol">
</g>
<g id="Cad_File">
</g>
<g id="Blueprint">
</g>
<g id="Construction_Plan">
</g>
<g id="Roof_Plan">
</g>
<g id="House_Construction">
</g>
<g id="Building_Construction">
</g>
<g id="Work_Table">
</g>
<g id="Table_Cad">
</g>
<g id="House_Plan">
</g>
<g id="Tape_Measure">
</g>
<g id="Cad_Paper">
</g>
<g id="Cad_Papers">
</g>
<g id="Stairs">
</g>
<g id="Pillar">
</g>
<g id="Bricks">
</g>
<g id="Pantheon">
</g>
<g id="House">
</g>
<g id="Skyscraper">
</g>
<g id="Building">
</g>
</svg>
