<?xml version="1.0" encoding="iso-8859-1"?>
<!-- Generator: Adobe Illustrator 19.2.1, SVG Export Plug-In . SVG Version: 6.00 Build 0)  -->
<svg version="1.1" xmlns="http://www.w3.org/2000/svg" xmlns:xlink="http://www.w3.org/1999/xlink" x="0px" y="0px"
	 viewBox="0 0 24 24" style="enable-background:new 0 0 24 24;" xml:space="preserve">
<g id="Cad_1">
</g>
<g id="Cad_2">
</g>
<g id="Cad_Pencil">
	<g>
		<path d="M10.499,14c0.041,0,0.081-0.005,0.121-0.015l2.869-0.717c0.377-0.094,0.507-0.564,0.232-0.839l-2.151-2.151
			c-0.275-0.275-0.744-0.145-0.839,0.232l-0.717,2.869c-0.043,0.17,0.007,0.351,0.131,0.475C10.24,13.948,10.368,14,10.499,14z"/>
		<path d="M23.561,2.024l-1.586-1.586c-0.583-0.583-1.538-0.583-2.121,0L12.56,7.732c-0.586,0.586-0.586,1.536,0,2.121l1.586,1.586
			c0.586,0.586,1.536,0.586,2.121,0l7.294-7.294c0.283-0.283,0.439-0.66,0.439-1.061C24.001,2.683,23.844,2.306,23.561,2.024z"/>
		<path d="M14.646,14.001c-0.019,0.005-0.035,0.017-0.053,0.021l-3.729,0.932C10.748,14.984,10.624,15,10.499,15
			c-0.395,0-0.781-0.16-1.061-0.439c-0.371-0.371-0.522-0.917-0.394-1.426l0.932-3.729c0.005-0.018,0.016-0.034,0.021-0.052
			L9.791,9.146C9.697,9.052,9.57,9,9.437,9H7.999v7h1.5c0.276,0,0.5,0.224,0.5,0.5S9.776,17,9.499,17h-1.5v1.5
			c0,0.276-0.224,0.5-0.5,0.5s-0.5-0.224-0.5-0.5V17h-1.5c-0.276,0-0.5-0.224-0.5-0.5s0.224-0.5,0.5-0.5h1.5V9h-6.5
			c-0.276,0-0.5,0.224-0.5,0.5V16h2.5c0.276,0,0.5,0.224,0.5,0.5S2.776,17,2.499,17h-2.5v1.5c0,0.276,0.224,0.5,0.5,0.5h0.5v2h-0.5
			c-0.132,0-0.26,0.053-0.354,0.146s-0.146,0.221-0.146,0.354v2c0,0.276,0.224,0.5,0.5,0.5h6.5v-2.5c0-0.276,0.224-0.5,0.5-0.5
			s0.5,0.224,0.5,0.5V24h6.5c0.276,0,0.5-0.224,0.5-0.5V17h-2.5c-0.276,0-0.5-0.224-0.5-0.5s0.224-0.5,0.5-0.5h2.5v-1.438
			c0-0.133-0.053-0.26-0.146-0.354L14.646,14.001z"/>
	</g>
</g>
<g id="Cad_Compasses">
</g>
<g id="Tools_1">
</g>
<g id="Tools_2">
</g>
<g id="Ruler_1">
</g>
<g id="Ruler_2">
</g>
<g id="Workspace_1">
</g>
<g id="Workspace_2">
</g>
<g id="Cad_3">
</g>
<g id="_x33_D_Box">
</g>
<g id="Section_Symbol">
</g>
<g id="Outlet_Symbol">
</g>
<g id="Cad_File">
</g>
<g id="Blueprint">
</g>
<g id="Construction_Plan">
</g>
<g id="Roof_Plan">
</g>
<g id="House_Construction">
</g>
<g id="Building_Construction">
</g>
<g id="Work_Table">
</g>
<g id="Table_Cad">
</g>
<g id="House_Plan">
</g>
<g id="Tape_Measure">
</g>
<g id="Cad_Paper">
</g>
<g id="Cad_Papers">
</g>
<g id="Stairs">
</g>
<g id="Pillar">
</g>
<g id="Bricks">
</g>
<g id="Pantheon">
</g>
<g id="House">
</g>
<g id="Skyscraper">
</g>
<g id="Building">
</g>
</svg>
