<?xml version="1.0" encoding="iso-8859-1"?>
<!-- Generator: Adobe Illustrator 19.2.1, SVG Export Plug-In . SVG Version: 6.00 Build 0)  -->
<svg version="1.1" xmlns="http://www.w3.org/2000/svg" xmlns:xlink="http://www.w3.org/1999/xlink" x="0px" y="0px"
	 viewBox="0 0 24 24" style="enable-background:new 0 0 24 24;" xml:space="preserve">
<g id="Cad_1">
</g>
<g id="Cad_2">
</g>
<g id="Cad_Pencil">
</g>
<g id="Cad_Compasses">
</g>
<g id="Tools_1">
</g>
<g id="Tools_2">
</g>
<g id="Ruler_1">
</g>
<g id="Ruler_2">
</g>
<g id="Workspace_1">
</g>
<g id="Workspace_2">
</g>
<g id="Cad_3">
</g>
<g id="_x33_D_Box">
</g>
<g id="Section_Symbol">
</g>
<g id="Outlet_Symbol">
</g>
<g id="Cad_File">
</g>
<g id="Blueprint">
</g>
<g id="Construction_Plan">
</g>
<g id="Roof_Plan">
</g>
<g id="House_Construction">
</g>
<g id="Building_Construction">
</g>
<g id="Work_Table">
</g>
<g id="Table_Cad">
</g>
<g id="House_Plan">
	<g>
		<path d="M22,9.5C22,9.224,21.776,9,21.5,9S21,9.224,21,9.5v1c0,0.276,0.224,0.5,0.5,0.5s0.5-0.224,0.5-0.5V9.5z"/>
		<path d="M22,12.167c0-0.276-0.224-0.5-0.5-0.5s-0.5,0.224-0.5,0.5v1.667c0,0.276,0.224,0.5,0.5,0.5s0.5-0.224,0.5-0.5V12.167z"/>
		<path d="M20.5,17h1c0.276,0,0.5-0.224,0.5-0.5v-1c0-0.276-0.224-0.5-0.5-0.5S21,15.224,21,15.5V16h-0.5
			c-0.276,0-0.5,0.224-0.5,0.5S20.224,17,20.5,17z"/>
		<path d="M18.334,16h-2.167c-0.276,0-0.5,0.224-0.5,0.5s0.224,0.5,0.5,0.5h2.167c0.276,0,0.5-0.224,0.5-0.5S18.61,16,18.334,16z"/>
		<path d="M13,17h1c0.276,0,0.5-0.224,0.5-0.5S14.276,16,14,16h-1c-0.276,0-0.5,0.224-0.5,0.5S12.724,17,13,17z"/>
		<path d="M15.681,1.571L16,1.231l0.319,0.34c0.099,0.105,0.231,0.158,0.365,0.158c0.123,0,0.246-0.045,0.342-0.135
			c0.202-0.189,0.212-0.505,0.023-0.707l-0.684-0.729c-0.189-0.202-0.54-0.202-0.729,0l-0.684,0.729
			c-0.189,0.201-0.179,0.518,0.023,0.707C15.175,1.782,15.49,1.772,15.681,1.571z"/>
		<path d="M18.772,4.188c0.099,0.105,0.231,0.158,0.365,0.158c0.123,0,0.246-0.045,0.342-0.135c0.202-0.189,0.212-0.505,0.023-0.707
			l-1.227-1.308c-0.189-0.201-0.505-0.211-0.707-0.023c-0.202,0.189-0.212,0.505-0.023,0.707L18.772,4.188z"/>
		<path d="M21.225,6.804c0.099,0.105,0.231,0.158,0.365,0.158c0.123,0,0.246-0.045,0.342-0.135c0.202-0.189,0.212-0.505,0.023-0.707
			l-1.227-1.308c-0.188-0.201-0.505-0.211-0.707-0.023c-0.202,0.189-0.212,0.505-0.023,0.707L21.225,6.804z"/>
		<path d="M22,8.5C22,8.776,22.224,9,22.5,9h1c0.199,0,0.379-0.118,0.459-0.301c0.079-0.183,0.042-0.396-0.094-0.541l-0.684-0.729
			c-0.189-0.201-0.505-0.211-0.707-0.023c-0.171,0.161-0.205,0.413-0.095,0.609C22.162,8.068,22,8.266,22,8.5z"/>
		<path d="M21.143,8.5c0-0.276-0.224-0.5-0.5-0.5h-1.857c-0.276,0-0.5,0.224-0.5,0.5S18.51,9,18.786,9h1.857
			C20.919,9,21.143,8.776,21.143,8.5z"/>
		<path d="M15.072,9h1.857c0.276,0,0.5-0.224,0.5-0.5S17.205,8,16.929,8h-1.857c-0.276,0-0.5,0.224-0.5,0.5S14.795,9,15.072,9z"/>
		<path d="M13.714,8.5c0-0.276-0.224-0.5-0.5-0.5h-1.857c-0.276,0-0.5,0.224-0.5,0.5s0.224,0.5,0.5,0.5h1.857
			C13.491,9,13.714,8.776,13.714,8.5z"/>
		<path d="M8.5,9h1C9.776,9,10,8.776,10,8.5c0-0.234-0.162-0.432-0.379-0.485c0.11-0.196,0.077-0.448-0.095-0.609
			C9.325,7.216,9.008,7.227,8.819,7.429L8.135,8.158C7.999,8.303,7.962,8.516,8.041,8.699C8.121,8.882,8.301,9,8.5,9z"/>
		<path d="M10.41,6.962c0.133,0,0.266-0.053,0.365-0.158l1.227-1.308c0.189-0.201,0.179-0.518-0.023-0.707
			c-0.201-0.189-0.518-0.179-0.707,0.023l-1.227,1.308c-0.189,0.201-0.179,0.518,0.023,0.707C10.165,6.917,10.288,6.962,10.41,6.962
			z"/>
		<path d="M12.863,4.346c0.133,0,0.266-0.053,0.365-0.158l1.227-1.308c0.189-0.201,0.179-0.518-0.023-0.707
			c-0.201-0.189-0.517-0.18-0.707,0.023l-1.227,1.308c-0.189,0.201-0.179,0.518,0.023,0.707C12.617,4.301,12.74,4.346,12.863,4.346z
			"/>
		<path d="M5,16H3.5C3.224,16,3,15.776,3,15.5S3.224,15,3.5,15H5v-2H3.5C3.224,13,3,12.776,3,12.5S3.224,12,3.5,12H5v-2H2.5
			C2.224,10,2,9.776,2,9.5S2.224,9,2.5,9H5V7H3.5C3.224,7,3,6.776,3,6.5S3.224,6,3.5,6H5V4H3.5C3.224,4,3,3.776,3,3.5S3.224,3,3.5,3
			H5V0.5C5,0.224,4.776,0,4.5,0h-4C0.224,0,0,0.224,0,0.5v18.56l5-2.812V16z"/>
		<path d="M23.5,19H21v1.5c0,0.276-0.224,0.5-0.5,0.5S20,20.776,20,20.5V19h-2v1.5c0,0.276-0.224,0.5-0.5,0.5S17,20.776,17,20.5V19
			h-2v2.5c0,0.276-0.224,0.5-0.5,0.5S14,21.776,14,21.5V19h-2.384l-0.092,0.23c-0.211,0.528-0.601,0.972-1.096,1.25L4.17,24H23.5
			c0.276,0,0.5-0.224,0.5-0.5v-4C24,19.224,23.776,19,23.5,19z"/>
		<path d="M9.398,19.369c-0.373-0.733-1.134-2.237-1.519-2.998c-0.129-0.254-0.441-0.346-0.689-0.207l-6.934,3.9
			c-0.233,0.131-0.322,0.421-0.202,0.66l1.5,3c0.061,0.123,0.17,0.214,0.301,0.254C1.901,23.993,1.951,24,2,24
			c0.085,0,0.169-0.021,0.245-0.064l6.95-3.909C9.429,19.895,9.52,19.608,9.398,19.369z"/>
		<path d="M11.098,16.01c0,0-0.828-0.153-1.532-0.278c-0.404-0.071-0.716,0.349-0.533,0.716l0.89,1.779
			c0.191,0.381,0.741,0.365,0.907-0.027c0.296-0.699,0.634-1.515,0.634-1.515c0.055-0.138,0.046-0.293-0.025-0.424
			C11.369,16.131,11.244,16.039,11.098,16.01z"/>
	</g>
</g>
<g id="Tape_Measure">
</g>
<g id="Cad_Paper">
</g>
<g id="Cad_Papers">
</g>
<g id="Stairs">
</g>
<g id="Pillar">
</g>
<g id="Bricks">
</g>
<g id="Pantheon">
</g>
<g id="House">
</g>
<g id="Skyscraper">
</g>
<g id="Building">
</g>
</svg>
