<?xml version="1.0" encoding="iso-8859-1"?>
<!-- Generator: Adobe Illustrator 19.2.1, SVG Export Plug-In . SVG Version: 6.00 Build 0)  -->
<svg version="1.1" xmlns="http://www.w3.org/2000/svg" xmlns:xlink="http://www.w3.org/1999/xlink" x="0px" y="0px"
	 viewBox="0 0 24 24" style="enable-background:new 0 0 24 24;" xml:space="preserve">
<g id="Cad_1">
</g>
<g id="Cad_2">
</g>
<g id="Cad_Pencil">
</g>
<g id="Cad_Compasses">
</g>
<g id="Tools_1">
</g>
<g id="Tools_2">
</g>
<g id="Ruler_1">
</g>
<g id="Ruler_2">
</g>
<g id="Workspace_1">
</g>
<g id="Workspace_2">
</g>
<g id="Cad_3">
</g>
<g id="_x33_D_Box">
</g>
<g id="Section_Symbol">
</g>
<g id="Outlet_Symbol">
	<g>
		<path d="M7.136,1.232C4.665,2.719,3,5.412,3,8.5c0,3.033,1.602,5.691,4,7.194V23.5C7,23.776,7.224,24,7.5,24S8,23.776,8,23.5
			v-7.263V1.57V0.763C7.79,0.858,7.595,0.98,7.394,1.092C7.294,1.114,7.204,1.159,7.136,1.232z"/>
		<path d="M15.639,1.098C14.829,0.644,13.945,0.31,13,0.141v16.719c0.702-0.126,1.369-0.346,2-0.633V23.5c0,0.276,0.224,0.5,0.5,0.5
			s0.5-0.224,0.5-0.5v-7.802V1.57V1.302c-0.046-0.029-0.096-0.053-0.143-0.081C15.798,1.161,15.722,1.123,15.639,1.098z"/>
		<path d="M17,2.031v12.938c1.832-1.56,3-3.879,3-6.469S18.832,3.591,17,2.031z"/>
		<path d="M9,0.376v16.247c0.636,0.196,1.31,0.298,2,0.339V23.5c0,0.276,0.224,0.5,0.5,0.5s0.5-0.224,0.5-0.5v-6.525V0.5V0.025
			C11.834,0.016,11.669,0,11.5,0C10.63,0,9.791,0.132,9,0.376z"/>
	</g>
</g>
<g id="Cad_File">
</g>
<g id="Blueprint">
</g>
<g id="Construction_Plan">
</g>
<g id="Roof_Plan">
</g>
<g id="House_Construction">
</g>
<g id="Building_Construction">
</g>
<g id="Work_Table">
</g>
<g id="Table_Cad">
</g>
<g id="House_Plan">
</g>
<g id="Tape_Measure">
</g>
<g id="Cad_Paper">
</g>
<g id="Cad_Papers">
</g>
<g id="Stairs">
</g>
<g id="Pillar">
</g>
<g id="Bricks">
</g>
<g id="Pantheon">
</g>
<g id="House">
</g>
<g id="Skyscraper">
</g>
<g id="Building">
</g>
</svg>
