<?xml version="1.0" encoding="iso-8859-1"?>
<!-- Generator: Adobe Illustrator 19.2.1, SVG Export Plug-In . SVG Version: 6.00 Build 0)  -->
<svg version="1.1" xmlns="http://www.w3.org/2000/svg" xmlns:xlink="http://www.w3.org/1999/xlink" x="0px" y="0px"
	 viewBox="0 0 24 24" style="enable-background:new 0 0 24 24;" xml:space="preserve">
<g id="Cad_1">
</g>
<g id="Cad_2">
</g>
<g id="Cad_Pencil">
</g>
<g id="Cad_Compasses">
</g>
<g id="Tools_1">
</g>
<g id="Tools_2">
</g>
<g id="Ruler_1">
</g>
<g id="Ruler_2">
</g>
<g id="Workspace_1">
</g>
<g id="Workspace_2">
</g>
<g id="Cad_3">
</g>
<g id="_x33_D_Box">
</g>
<g id="Section_Symbol">
</g>
<g id="Outlet_Symbol">
</g>
<g id="Cad_File">
</g>
<g id="Blueprint">
</g>
<g id="Construction_Plan">
</g>
<g id="Roof_Plan">
</g>
<g id="House_Construction">
</g>
<g id="Building_Construction">
</g>
<g id="Work_Table">
</g>
<g id="Table_Cad">
</g>
<g id="House_Plan">
</g>
<g id="Tape_Measure">
</g>
<g id="Cad_Paper">
</g>
<g id="Cad_Papers">
</g>
<g id="Stairs">
</g>
<g id="Pillar">
</g>
<g id="Bricks">
</g>
<g id="Pantheon">
	<path d="M23.5,21H23v-1.5c0-0.276-0.224-0.5-0.5-0.5H21v-9h0.5c0.276,0,0.5-0.224,0.5-0.5V8h1.5c0.226,0,0.424-0.151,0.482-0.37
		c0.06-0.218-0.035-0.448-0.23-0.563l-12-7c-0.163-0.094-0.363-0.09-0.521,0.01l-11,7C0.044,7.198-0.042,7.426,0.02,7.64
		C0.082,7.853,0.277,8,0.5,8H2v1.5C2,9.776,2.224,10,2.5,10H3v9H1.5C1.224,19,1,19.224,1,19.5V21H0.5C0.224,21,0,21.224,0,21.5v2
		C0,23.776,0.224,24,0.5,24h23c0.276,0,0.5-0.224,0.5-0.5v-2C24,21.224,23.776,21,23.5,21z M11,10h2v9h-2V10z M18,19h-2v-9h2V19z
		 M6,10h2v9H6V10z M11.752,2.068L20.207,7h-1.985l-6.71-3.915L5.36,7H3.497l7.735-4.922C11.389,1.978,11.589,1.973,11.752,2.068z"/>
</g>
<g id="House">
</g>
<g id="Skyscraper">
</g>
<g id="Building">
</g>
</svg>
