<?xml version="1.0" encoding="iso-8859-1"?>
<!-- Generator: Adobe Illustrator 19.2.1, SVG Export Plug-In . SVG Version: 6.00 Build 0)  -->
<svg version="1.1" xmlns="http://www.w3.org/2000/svg" xmlns:xlink="http://www.w3.org/1999/xlink" x="0px" y="0px"
	 viewBox="0 0 24 24" style="enable-background:new 0 0 24 24;" xml:space="preserve">
<g id="Cad_1">
</g>
<g id="Cad_2">
</g>
<g id="Cad_Pencil">
</g>
<g id="Cad_Compasses">
</g>
<g id="Tools_1">
</g>
<g id="Tools_2">
</g>
<g id="Ruler_1">
</g>
<g id="Ruler_2">
	<g>
		<path d="M23.499,19h-2.5v1.5c0,0.276-0.224,0.5-0.5,0.5s-0.5-0.224-0.5-0.5V19h-2v1.5c0,0.276-0.224,0.5-0.5,0.5
			s-0.5-0.224-0.5-0.5V19h-2v2.5c0,0.276-0.224,0.5-0.5,0.5s-0.5-0.224-0.5-0.5V19h-2v1.5c0,0.276-0.224,0.5-0.5,0.5
			s-0.5-0.224-0.5-0.5V19h-2v1.5c0,0.276-0.224,0.5-0.5,0.5s-0.5-0.224-0.5-0.5V19h-2v2.5c0,0.276-0.224,0.5-0.5,0.5
			s-0.5-0.224-0.5-0.5V19h-2.5c-0.276,0-0.5-0.224-0.5-0.5s0.224-0.5,0.5-0.5h2.5v-2h-1.5c-0.276,0-0.5-0.224-0.5-0.5
			s0.224-0.5,0.5-0.5h1.5v-2h-1.5c-0.276,0-0.5-0.224-0.5-0.5s0.224-0.5,0.5-0.5h1.5v-2h-2.5c-0.276,0-0.5-0.224-0.5-0.5
			S2.223,9,2.499,9h2.5V7h-1.5c-0.276,0-0.5-0.224-0.5-0.5S3.223,6,3.499,6h1.5V4h-1.5c-0.276,0-0.5-0.224-0.5-0.5S3.223,3,3.499,3
			h1.5V0.5c0-0.276-0.224-0.5-0.5-0.5h-4c-0.276,0-0.5,0.224-0.5,0.5v23c0,0.276,0.224,0.5,0.5,0.5h4h19c0.276,0,0.5-0.224,0.5-0.5
			v-4C23.999,19.224,23.775,19,23.499,19z"/>
		<path d="M10.499,18.001c0.04,0,0.081-0.005,0.121-0.015l2.872-0.718c0.377-0.094,0.507-0.564,0.232-0.839l-2.153-2.153
			c-0.275-0.275-0.744-0.145-0.839,0.232l-0.718,2.871c-0.042,0.17,0.008,0.351,0.132,0.475
			C10.24,17.95,10.368,18.001,10.499,18.001z"/>
		<path d="M14.147,15.439c0.586,0.586,1.536,0.586,2.121,0l7.293-7.293c0.283-0.283,0.439-0.66,0.439-1.061
			c0-0.401-0.156-0.778-0.439-1.061l-1.586-1.586c-0.583-0.583-1.538-0.583-2.121,0l-7.293,7.293c-0.586,0.586-0.586,1.536,0,2.121
			L14.147,15.439z"/>
	</g>
</g>
<g id="Workspace_1">
</g>
<g id="Workspace_2">
</g>
<g id="Cad_3">
</g>
<g id="_x33_D_Box">
</g>
<g id="Section_Symbol">
</g>
<g id="Outlet_Symbol">
</g>
<g id="Cad_File">
</g>
<g id="Blueprint">
</g>
<g id="Construction_Plan">
</g>
<g id="Roof_Plan">
</g>
<g id="House_Construction">
</g>
<g id="Building_Construction">
</g>
<g id="Work_Table">
</g>
<g id="Table_Cad">
</g>
<g id="House_Plan">
</g>
<g id="Tape_Measure">
</g>
<g id="Cad_Paper">
</g>
<g id="Cad_Papers">
</g>
<g id="Stairs">
</g>
<g id="Pillar">
</g>
<g id="Bricks">
</g>
<g id="Pantheon">
</g>
<g id="House">
</g>
<g id="Skyscraper">
</g>
<g id="Building">
</g>
</svg>
