<?xml version="1.0" encoding="iso-8859-1"?>
<!-- Generator: Adobe Illustrator 19.2.1, SVG Export Plug-In . SVG Version: 6.00 Build 0)  -->
<svg version="1.1" xmlns="http://www.w3.org/2000/svg" xmlns:xlink="http://www.w3.org/1999/xlink" x="0px" y="0px"
	 viewBox="0 0 24 24" style="enable-background:new 0 0 24 24;" xml:space="preserve">
<g id="Cad_1">
</g>
<g id="Cad_2">
</g>
<g id="Cad_Pencil">
</g>
<g id="Cad_Compasses">
</g>
<g id="Tools_1">
</g>
<g id="Tools_2">
</g>
<g id="Ruler_1">
</g>
<g id="Ruler_2">
</g>
<g id="Workspace_1">
</g>
<g id="Workspace_2">
</g>
<g id="Cad_3">
</g>
<g id="_x33_D_Box">
</g>
<g id="Section_Symbol">
</g>
<g id="Outlet_Symbol">
</g>
<g id="Cad_File">
</g>
<g id="Blueprint">
</g>
<g id="Construction_Plan">
</g>
<g id="Roof_Plan">
</g>
<g id="House_Construction">
</g>
<g id="Building_Construction">
</g>
<g id="Work_Table">
</g>
<g id="Table_Cad">
</g>
<g id="House_Plan">
</g>
<g id="Tape_Measure">
</g>
<g id="Cad_Paper">
</g>
<g id="Cad_Papers">
</g>
<g id="Stairs">
</g>
<g id="Pillar">
</g>
<g id="Bricks">
</g>
<g id="Pantheon">
</g>
<g id="House">
</g>
<g id="Skyscraper">
	<g>
		<path d="M15.5,21h-8C7.224,21,7,21.224,7,21.5v2C7,23.776,7.224,24,7.5,24h8c0.276,0,0.5-0.224,0.5-0.5v-2
			C16,21.224,15.776,21,15.5,21z"/>
		<path d="M11,6.5C11,6.224,11.224,6,11.5,6S12,6.224,12,6.5V9h2V4.5C14,4.224,13.776,4,13.5,4h-4C9.224,4,9,4.224,9,4.5V9h2V6.5z"
			/>
		<path d="M15,10.5c0-0.276-0.224-0.5-0.5-0.5h-6C8.224,10,8,10.224,8,10.5V20h7V10.5z M11,18.5c0,0.276-0.224,0.5-0.5,0.5
			S10,18.776,10,18.5v-1c0-0.276,0.224-0.5,0.5-0.5s0.5,0.224,0.5,0.5V18.5z M11,15.5c0,0.276-0.224,0.5-0.5,0.5S10,15.776,10,15.5
			v-1c0-0.276,0.224-0.5,0.5-0.5s0.5,0.224,0.5,0.5V15.5z M11,12.5c0,0.276-0.224,0.5-0.5,0.5S10,12.776,10,12.5v-1
			c0-0.276,0.224-0.5,0.5-0.5s0.5,0.224,0.5,0.5V12.5z M13,18.5c0,0.276-0.224,0.5-0.5,0.5S12,18.776,12,18.5v-1
			c0-0.276,0.224-0.5,0.5-0.5s0.5,0.224,0.5,0.5V18.5z M13,15.5c0,0.276-0.224,0.5-0.5,0.5S12,15.776,12,15.5v-1
			c0-0.276,0.224-0.5,0.5-0.5s0.5,0.224,0.5,0.5V15.5z M13,12.5c0,0.276-0.224,0.5-0.5,0.5S12,12.776,12,12.5v-1
			c0-0.276,0.224-0.5,0.5-0.5s0.5,0.224,0.5,0.5V12.5z"/>
		<path d="M13,0.5C13,0.224,12.776,0,12.5,0h-2C10.224,0,10,0.224,10,0.5V3h3V0.5z"/>
	</g>
</g>
<g id="Building">
</g>
</svg>
