<?xml version="1.0" encoding="iso-8859-1"?>
<!-- Generator: Adobe Illustrator 19.2.1, SVG Export Plug-In . SVG Version: 6.00 Build 0)  -->
<svg version="1.1" xmlns="http://www.w3.org/2000/svg" xmlns:xlink="http://www.w3.org/1999/xlink" x="0px" y="0px"
	 viewBox="0 0 24 24" style="enable-background:new 0 0 24 24;" xml:space="preserve">
<g id="Cad_1">
</g>
<g id="Cad_2">
</g>
<g id="Cad_Pencil">
</g>
<g id="Cad_Compasses">
</g>
<g id="Tools_1">
</g>
<g id="Tools_2">
</g>
<g id="Ruler_1">
</g>
<g id="Ruler_2">
</g>
<g id="Workspace_1">
</g>
<g id="Workspace_2">
</g>
<g id="Cad_3">
</g>
<g id="_x33_D_Box">
</g>
<g id="Section_Symbol">
</g>
<g id="Outlet_Symbol">
</g>
<g id="Cad_File">
</g>
<g id="Blueprint">
</g>
<g id="Construction_Plan">
</g>
<g id="Roof_Plan">
</g>
<g id="House_Construction">
</g>
<g id="Building_Construction">
</g>
<g id="Work_Table">
</g>
<g id="Table_Cad">
</g>
<g id="House_Plan">
</g>
<g id="Tape_Measure">
</g>
<g id="Cad_Paper">
</g>
<g id="Cad_Papers">
</g>
<g id="Stairs">
	<path d="M23.5,10.125H22V1.94c0.211-0.078,0.438-0.076,0.639,0.045C22.868,2.123,23,2.356,23,2.625c0,0.276,0.224,0.5,0.5,0.5
		s0.5-0.224,0.5-0.5c0-0.618-0.315-1.177-0.845-1.497s-1.173-0.336-1.719-0.05L2.312,11.163c-0.008,0.003-0.014,0.008-0.022,0.011
		l-0.423,0.223C0.716,12.005,0,13.191,0,14.493v0.131c0,0.276,0.224,0.5,0.5,0.5s0.5-0.224,0.5-0.5v-0.131
		c0-0.79,0.384-1.505,1-1.972v6.604H0.5c-0.276,0-0.5,0.224-0.5,0.5v3c0,0.276,0.224,0.5,0.5,0.5h23c0.276,0,0.5-0.224,0.5-0.5v-12
		C24,10.348,23.776,10.125,23.5,10.125z M3,11.931l18-9.491v7.685h-2.5c-0.276,0-0.5,0.224-0.5,0.5v2.5h-5.5
		c-0.276,0-0.5,0.224-0.5,0.5v2.5H6.5c-0.276,0-0.5,0.224-0.5,0.5v2.5H3V11.931z"/>
</g>
<g id="Pillar">
</g>
<g id="Bricks">
</g>
<g id="Pantheon">
</g>
<g id="House">
</g>
<g id="Skyscraper">
</g>
<g id="Building">
</g>
</svg>
