<?xml version="1.0" encoding="iso-8859-1"?>
<!-- Generator: Adobe Illustrator 19.2.1, SVG Export Plug-In . SVG Version: 6.00 Build 0)  -->
<svg version="1.1" xmlns="http://www.w3.org/2000/svg" xmlns:xlink="http://www.w3.org/1999/xlink" x="0px" y="0px"
	 viewBox="0 0 24 24" style="enable-background:new 0 0 24 24;" xml:space="preserve">
<g id="Cad_1">
</g>
<g id="Cad_2">
</g>
<g id="Cad_Pencil">
</g>
<g id="Cad_Compasses">
</g>
<g id="Tools_1">
</g>
<g id="Tools_2">
</g>
<g id="Ruler_1">
</g>
<g id="Ruler_2">
</g>
<g id="Workspace_1">
</g>
<g id="Workspace_2">
</g>
<g id="Cad_3">
</g>
<g id="_x33_D_Box">
</g>
<g id="Section_Symbol">
</g>
<g id="Outlet_Symbol">
</g>
<g id="Cad_File">
</g>
<g id="Blueprint">
</g>
<g id="Construction_Plan">
</g>
<g id="Roof_Plan">
</g>
<g id="House_Construction">
</g>
<g id="Building_Construction">
</g>
<g id="Work_Table">
</g>
<g id="Table_Cad">
</g>
<g id="House_Plan">
</g>
<g id="Tape_Measure">
	<g>
		<path d="M23.5,17H15v-3h1.5c0.276,0,0.5-0.224,0.5-0.5v-4C17,9.224,16.776,9,16.5,9h-1.938C13.53,6.092,10.758,4,7.5,4
			C3.364,4,0,7.364,0,11.5S3.364,19,7.5,19h7c0.276,0,0.5-0.224,0.5-0.5V18h8v1.5c0,0.276,0.224,0.5,0.5,0.5s0.5-0.224,0.5-0.5v-2
			C24,17.224,23.776,17,23.5,17z M16,10v3h-1v-1.5c0-0.514-0.052-1.015-0.151-1.5H16z M7.5,17C4.467,17,2,14.533,2,11.5
			S4.467,6,7.5,6S13,8.467,13,11.5S10.533,17,7.5,17z"/>
		<path d="M7.5,7C5.019,7,3,9.019,3,11.5S5.019,16,7.5,16s4.5-2.019,4.5-4.5S9.981,7,7.5,7z M7.5,11C8.327,11,9,11.673,9,12.5
			S8.327,14,7.5,14h-1C6.224,14,6,13.776,6,13.5S6.224,13,6.5,13h1C7.776,13,8,12.776,8,12.5S7.776,12,7.5,12h-1
			C6.224,12,6,11.776,6,11.5v-2C6,9.224,6.224,9,6.5,9h2C8.776,9,9,9.224,9,9.5S8.776,10,8.5,10H7v1H7.5z"/>
	</g>
</g>
<g id="Cad_Paper">
</g>
<g id="Cad_Papers">
</g>
<g id="Stairs">
</g>
<g id="Pillar">
</g>
<g id="Bricks">
</g>
<g id="Pantheon">
</g>
<g id="House">
</g>
<g id="Skyscraper">
</g>
<g id="Building">
</g>
</svg>
