<?xml version="1.0" encoding="iso-8859-1"?>
<!-- Generator: Adobe Illustrator 19.2.1, SVG Export Plug-In . SVG Version: 6.00 Build 0)  -->
<svg version="1.1" xmlns="http://www.w3.org/2000/svg" xmlns:xlink="http://www.w3.org/1999/xlink" x="0px" y="0px"
	 viewBox="0 0 24 24" style="enable-background:new 0 0 24 24;" xml:space="preserve">
<g id="Cad_1">
</g>
<g id="Cad_2">
</g>
<g id="Cad_Pencil">
</g>
<g id="Cad_Compasses">
</g>
<g id="Tools_1">
	<path d="M22.5,2.954H24V0.546c0-0.202-0.122-0.384-0.308-0.462c-0.187-0.077-0.401-0.036-0.545,0.107l-23,22.908
		c-0.143,0.143-0.187,0.358-0.109,0.545c0.077,0.187,0.259,0.309,0.462,0.309h23c0.276,0,0.5-0.224,0.5-0.5v-1.5h-1.5
		c-0.276,0-0.5-0.224-0.5-0.5s0.224-0.5,0.5-0.5H24v-1h-1.5c-0.276,0-0.5-0.224-0.5-0.5s0.224-0.5,0.5-0.5H24v-1h-1.5
		c-0.276,0-0.5-0.224-0.5-0.5s0.224-0.5,0.5-0.5H24v-1h-1.5c-0.276,0-0.5-0.224-0.5-0.5s0.224-0.5,0.5-0.5H24v-1h-1.5
		c-0.276,0-0.5-0.224-0.5-0.5s0.224-0.5,0.5-0.5H24v-1h-1.5c-0.276,0-0.5-0.224-0.5-0.5s0.224-0.5,0.5-0.5H24v-1h-1.5
		c-0.276,0-0.5-0.224-0.5-0.5s0.224-0.5,0.5-0.5H24v-1h-1.5c-0.276,0-0.5-0.224-0.5-0.5s0.224-0.5,0.5-0.5H24v-1h-1.5
		c-0.276,0-0.5-0.224-0.5-0.5s0.224-0.5,0.5-0.5H24v-1h-1.5c-0.276,0-0.5-0.224-0.5-0.5S22.224,2.954,22.5,2.954z M20,19.454
		c0,0.276-0.224,0.5-0.5,0.5h-9c-0.202,0-0.385-0.122-0.462-0.309c-0.078-0.187-0.035-0.402,0.108-0.545l9-9
		c0.144-0.143,0.357-0.187,0.545-0.108C19.878,10.069,20,10.252,20,10.454V19.454z"/>
</g>
<g id="Tools_2">
</g>
<g id="Ruler_1">
</g>
<g id="Ruler_2">
</g>
<g id="Workspace_1">
</g>
<g id="Workspace_2">
</g>
<g id="Cad_3">
</g>
<g id="_x33_D_Box">
</g>
<g id="Section_Symbol">
</g>
<g id="Outlet_Symbol">
</g>
<g id="Cad_File">
</g>
<g id="Blueprint">
</g>
<g id="Construction_Plan">
</g>
<g id="Roof_Plan">
</g>
<g id="House_Construction">
</g>
<g id="Building_Construction">
</g>
<g id="Work_Table">
</g>
<g id="Table_Cad">
</g>
<g id="House_Plan">
</g>
<g id="Tape_Measure">
</g>
<g id="Cad_Paper">
</g>
<g id="Cad_Papers">
</g>
<g id="Stairs">
</g>
<g id="Pillar">
</g>
<g id="Bricks">
</g>
<g id="Pantheon">
</g>
<g id="House">
</g>
<g id="Skyscraper">
</g>
<g id="Building">
</g>
</svg>
