<?xml version="1.0" encoding="iso-8859-1"?>
<!-- Generator: Adobe Illustrator 19.2.1, SVG Export Plug-In . SVG Version: 6.00 Build 0)  -->
<svg version="1.1" xmlns="http://www.w3.org/2000/svg" xmlns:xlink="http://www.w3.org/1999/xlink" x="0px" y="0px"
	 viewBox="0 0 24 24" style="enable-background:new 0 0 24 24;" xml:space="preserve">
<g id="Cad_1">
</g>
<g id="Cad_2">
</g>
<g id="Cad_Pencil">
</g>
<g id="Cad_Compasses">
</g>
<g id="Tools_1">
</g>
<g id="Tools_2">
</g>
<g id="Ruler_1">
</g>
<g id="Ruler_2">
</g>
<g id="Workspace_1">
	<g>
		<path d="M23.5,19H21v1.5c0,0.276-0.224,0.5-0.5,0.5S20,20.776,20,20.5V19h-2v1.5c0,0.276-0.224,0.5-0.5,0.5S17,20.776,17,20.5V19
			h-2v2.5c0,0.276-0.224,0.5-0.5,0.5S14,21.776,14,21.5V19h-2v1.5c0,0.276-0.224,0.5-0.5,0.5S11,20.776,11,20.5V19H9v1.5
			C9,20.776,8.776,21,8.5,21S8,20.776,8,20.5V19H6v2.5C6,21.776,5.776,22,5.5,22S5,21.776,5,21.5V19H2.5C2.224,19,2,18.776,2,18.5
			S2.224,18,2.5,18H5v-2H3.5C3.224,16,3,15.776,3,15.5S3.224,15,3.5,15H5v-2H3.5C3.224,13,3,12.776,3,12.5S3.224,12,3.5,12H5v-2H2.5
			C2.224,10,2,9.776,2,9.5S2.224,9,2.5,9H5V7H3.5C3.224,7,3,6.776,3,6.5S3.224,6,3.5,6H5V4H3.5C3.224,4,3,3.776,3,3.5S3.224,3,3.5,3
			H5V0.5C5,0.224,4.776,0,4.5,0h-4C0.224,0,0,0.224,0,0.5v23C0,23.776,0.224,24,0.5,24h4h19c0.276,0,0.5-0.224,0.5-0.5v-4
			C24,19.224,23.776,19,23.5,19z"/>
		<path d="M6.5,15C6.224,15,6,15.224,6,15.5S6.224,16,6.5,16H8v1.5C8,17.776,8.224,18,8.5,18S9,17.776,9,17.5V16h5v1.5
			c0,0.276,0.224,0.5,0.5,0.5s0.5-0.224,0.5-0.5V16h5v1.5c0,0.276,0.224,0.5,0.5,0.5s0.5-0.224,0.5-0.5V16h1.5
			c0.276,0,0.5-0.224,0.5-0.5S22.776,15,22.5,15H21v-5h1.5c0.276,0,0.5-0.224,0.5-0.5S22.776,9,22.5,9H21V4h1.5
			C22.776,4,23,3.776,23,3.5S22.776,3,22.5,3H21V1.5C21,1.224,20.776,1,20.5,1S20,1.224,20,1.5V3h-5V1.5C15,1.224,14.776,1,14.5,1
			S14,1.224,14,1.5V3H9V1.5C9,1.224,8.776,1,8.5,1S8,1.224,8,1.5V3H6.5C6.224,3,6,3.224,6,3.5S6.224,4,6.5,4H8v5H6.5
			C6.224,9,6,9.224,6,9.5S6.224,10,6.5,10H8v5H6.5z M20,15h-5v-5h5V15z M20,4v5h-5V4H20z M9,4h5v5H9V4z M9,10h5v5H9V10z"/>
	</g>
</g>
<g id="Workspace_2">
</g>
<g id="Cad_3">
</g>
<g id="_x33_D_Box">
</g>
<g id="Section_Symbol">
</g>
<g id="Outlet_Symbol">
</g>
<g id="Cad_File">
</g>
<g id="Blueprint">
</g>
<g id="Construction_Plan">
</g>
<g id="Roof_Plan">
</g>
<g id="House_Construction">
</g>
<g id="Building_Construction">
</g>
<g id="Work_Table">
</g>
<g id="Table_Cad">
</g>
<g id="House_Plan">
</g>
<g id="Tape_Measure">
</g>
<g id="Cad_Paper">
</g>
<g id="Cad_Papers">
</g>
<g id="Stairs">
</g>
<g id="Pillar">
</g>
<g id="Bricks">
</g>
<g id="Pantheon">
</g>
<g id="House">
</g>
<g id="Skyscraper">
</g>
<g id="Building">
</g>
</svg>
