<?xml version="1.0" encoding="iso-8859-1"?>
<!-- Generator: Adobe Illustrator 19.2.1, SVG Export Plug-In . SVG Version: 6.00 Build 0)  -->
<svg version="1.1" xmlns="http://www.w3.org/2000/svg" xmlns:xlink="http://www.w3.org/1999/xlink" x="0px" y="0px"
	 viewBox="0 0 24 24" style="enable-background:new 0 0 24 24;" xml:space="preserve">
<g id="Cad_1">
</g>
<g id="Cad_2">
</g>
<g id="Cad_Pencil">
</g>
<g id="Cad_Compasses">
</g>
<g id="Tools_1">
</g>
<g id="Tools_2">
</g>
<g id="Ruler_1">
</g>
<g id="Ruler_2">
</g>
<g id="Workspace_1">
</g>
<g id="Workspace_2">
	<g>
		<path d="M23.5,19H21v1.5c0,0.276-0.224,0.5-0.5,0.5S20,20.776,20,20.5V19h-2v1.5c0,0.276-0.224,0.5-0.5,0.5S17,20.776,17,20.5V19
			h-2v2.5c0,0.276-0.224,0.5-0.5,0.5S14,21.776,14,21.5V19h-2v1.5c0,0.276-0.224,0.5-0.5,0.5S11,20.776,11,20.5V19H9v1.5
			C9,20.776,8.776,21,8.5,21S8,20.776,8,20.5V19H6v2.5C6,21.776,5.776,22,5.5,22S5,21.776,5,21.5V19H2.5C2.224,19,2,18.776,2,18.5
			S2.224,18,2.5,18H5v-2H3.5C3.224,16,3,15.776,3,15.5S3.224,15,3.5,15H5v-2H3.5C3.224,13,3,12.776,3,12.5S3.224,12,3.5,12H5v-2H2.5
			C2.224,10,2,9.776,2,9.5S2.224,9,2.5,9H5V7H3.5C3.224,7,3,6.776,3,6.5S3.224,6,3.5,6H5V4H3.5C3.224,4,3,3.776,3,3.5S3.224,3,3.5,3
			H5V0.5C5,0.224,4.776,0,4.5,0h-4C0.224,0,0,0.224,0,0.5v23C0,23.776,0.224,24,0.5,24h4h19c0.276,0,0.5-0.224,0.5-0.5v-4
			C24,19.224,23.776,19,23.5,19z"/>
		<g>
			<g>
				<g>
					<path d="M8.5,4h-1C7.224,4,7,3.776,7,3.5S7.224,3,7.5,3h1C8.776,3,9,3.224,9,3.5S8.776,4,8.5,4z"/>
				</g>
				<g>
					<path d="M17.3,4h-2.199c-0.276,0-0.5-0.224-0.5-0.5s0.224-0.5,0.5-0.5H17.3c0.276,0,0.5,0.224,0.5,0.5S17.576,4,17.3,4z
						 M12.9,4h-2.2c-0.276,0-0.5-0.224-0.5-0.5S10.424,3,10.7,3h2.2c0.276,0,0.5,0.224,0.5,0.5S13.177,4,12.9,4z"/>
				</g>
				<g>
					<path d="M20.5,5C20.224,5,20,4.776,20,4.5V4h-0.5C19.224,4,19,3.776,19,3.5S19.224,3,19.5,3h1C20.776,3,21,3.224,21,3.5v1
						C21,4.776,20.776,5,20.5,5z"/>
				</g>
				<g>
					<path d="M20.5,15.286c-0.276,0-0.5-0.224-0.5-0.5v-1.714c0-0.276,0.224-0.5,0.5-0.5s0.5,0.224,0.5,0.5v1.714
						C21,15.062,20.776,15.286,20.5,15.286z M20.5,11.857c-0.276,0-0.5-0.224-0.5-0.5V9.643c0-0.276,0.224-0.5,0.5-0.5
						s0.5,0.224,0.5,0.5v1.714C21,11.634,20.776,11.857,20.5,11.857z M20.5,8.429c-0.276,0-0.5-0.224-0.5-0.5V6.214
						c0-0.276,0.224-0.5,0.5-0.5s0.5,0.224,0.5,0.5v1.714C21,8.205,20.776,8.429,20.5,8.429z"/>
				</g>
				<g>
					<path d="M20.5,18c-0.276,0-0.5-0.224-0.5-0.5v-1c0-0.276,0.224-0.5,0.5-0.5s0.5,0.224,0.5,0.5v1C21,17.776,20.776,18,20.5,18z"
						/>
				</g>
			</g>
			<g>
				<g>
					<path d="M14.5,11c-0.276,0-0.5-0.224-0.5-0.5V10h-0.5C13.224,10,13,9.776,13,9.5S13.224,9,13.5,9h1C14.776,9,15,9.224,15,9.5v1
						C15,10.776,14.776,11,14.5,11z"/>
				</g>
				<g>
					<path d="M12.167,10h-1.333c-0.276,0-0.5-0.224-0.5-0.5s0.224-0.5,0.5-0.5h1.333c0.276,0,0.5,0.224,0.5,0.5S12.443,10,12.167,10
						z"/>
				</g>
				<g>
					<path d="M8.5,11C8.224,11,8,10.776,8,10.5v-1C8,9.224,8.224,9,8.5,9h1C9.776,9,10,9.224,10,9.5S9.776,10,9.5,10H9v0.5
						C9,10.776,8.776,11,8.5,11z"/>
				</g>
				<g>
					<path d="M8.5,13.667c-0.276,0-0.5-0.224-0.5-0.5v-1.333c0-0.276,0.224-0.5,0.5-0.5s0.5,0.224,0.5,0.5v1.333
						C9,13.443,8.776,13.667,8.5,13.667z"/>
				</g>
				<g>
					<path d="M9.5,16h-1C8.224,16,8,15.776,8,15.5v-1C8,14.224,8.224,14,8.5,14S9,14.224,9,14.5V15h0.5c0.276,0,0.5,0.224,0.5,0.5
						S9.776,16,9.5,16z"/>
				</g>
				<g>
					<path d="M12.166,16h-1.333c-0.276,0-0.5-0.224-0.5-0.5s0.224-0.5,0.5-0.5h1.333c0.276,0,0.5,0.224,0.5,0.5S12.442,16,12.166,16
						z"/>
				</g>
				<g>
					<path d="M14.5,16h-1c-0.276,0-0.5-0.224-0.5-0.5s0.224-0.5,0.5-0.5H14v-0.5c0-0.276,0.224-0.5,0.5-0.5s0.5,0.224,0.5,0.5v1
						C15,15.776,14.776,16,14.5,16z"/>
				</g>
				<g>
					<path d="M14.5,13.667c-0.276,0-0.5-0.224-0.5-0.5v-1.333c0-0.276,0.224-0.5,0.5-0.5s0.5,0.224,0.5,0.5v1.333
						C15,13.443,14.776,13.667,14.5,13.667z"/>
				</g>
			</g>
		</g>
	</g>
</g>
<g id="Cad_3">
</g>
<g id="_x33_D_Box">
</g>
<g id="Section_Symbol">
</g>
<g id="Outlet_Symbol">
</g>
<g id="Cad_File">
</g>
<g id="Blueprint">
</g>
<g id="Construction_Plan">
</g>
<g id="Roof_Plan">
</g>
<g id="House_Construction">
</g>
<g id="Building_Construction">
</g>
<g id="Work_Table">
</g>
<g id="Table_Cad">
</g>
<g id="House_Plan">
</g>
<g id="Tape_Measure">
</g>
<g id="Cad_Paper">
</g>
<g id="Cad_Papers">
</g>
<g id="Stairs">
</g>
<g id="Pillar">
</g>
<g id="Bricks">
</g>
<g id="Pantheon">
</g>
<g id="House">
</g>
<g id="Skyscraper">
</g>
<g id="Building">
</g>
</svg>
