<?xml version="1.0" encoding="iso-8859-1"?>
<!-- Generator: Adobe Illustrator 19.2.1, SVG Export Plug-In . SVG Version: 6.00 Build 0)  -->
<svg version="1.1" xmlns="http://www.w3.org/2000/svg" xmlns:xlink="http://www.w3.org/1999/xlink" x="0px" y="0px"
	 viewBox="0 0 24 24" style="enable-background:new 0 0 24 24;" xml:space="preserve">
<g id="Man_1">
</g>
<g id="Woman_1">
</g>
<g id="Man_2">
</g>
<g id="Woman_2">
</g>
<g id="Bald_Man">
</g>
<g id="Man_Glasses">
</g>
<g id="Woman_Glasses">
</g>
<g id="Man_Beard">
</g>
<g id="Man_Cap">
</g>
<g id="Woman_Cap">
</g>
<g id="Man_3">
</g>
<g id="Woman_3">
</g>
<g id="Men_4">
</g>
<g id="Woman_4">
</g>
<g id="Business_Man_1">
</g>
<g id="Business_Woman_1">
</g>
<g id="Firefigyhter">
</g>
<g id="Policeman">
</g>
<g id="Criminal">
</g>
<g id="Prisoner">
</g>
<g id="Woodsman">
</g>
<g id="Dispatcher_1">
</g>
<g id="Dispatcher_2">
</g>
<g id="Soldier">
</g>
<g id="Astronaut">
</g>
<g id="Hipster_Guy">
</g>
<g id="Hipster_Girl">
</g>
<g id="Worker">
</g>
<g id="Old_Man">
</g>
<g id="Punk">
</g>
<g id="Diver">
</g>
<g id="Artist">
</g>
<g id="Dictator">
</g>
<g id="Man_Hat">
</g>
<g id="Woman_Hat">
</g>
<g id="Graduated_Man">
</g>
<g id="Graduated_Woman">
</g>
<g id="Avatar_Chef">
</g>
<g id="Waiter">
</g>
<g id="Waitress">
</g>
<g id="Bllboy">
</g>
<g id="Santa">
</g>
<g id="Doctor">
</g>
<g id="Nurse">
</g>
<g id="Captain">
</g>
<g id="Farmer">
</g>
<g id="Maid">
</g>
<g id="Business_Man_2">
</g>
<g id="Business_Woman_2">
</g>
<g id="Cowboy">
</g>
<g id="Anonymus">
</g>
<g id="Batman">
</g>
<g id="Superman">
</g>
<g id="Captain_America">
</g>
<g id="Darth_Vader">
</g>
<g id="Harry_Potter">
</g>
<g id="Anonymus_2">
	<g>
		<path d="M24,12c0-6.617-5.383-12-12-12S0,5.383,0,12c0,6.287,4.862,11.45,11.022,11.95C11.341,23.98,11.665,24,12,24
			c0.34,0,0.669-0.02,0.992-0.05c2.778-0.229,5.285-1.408,7.206-3.211c0.012-0.006,0.018-0.019,0.029-0.026
			C22.544,18.524,24,15.432,24,12z M1,12C1,5.935,5.935,1,12,1s11,4.935,11,11c0,3-1.21,5.72-3.164,7.707
			c-0.068-0.026-0.133-0.057-0.202-0.081l-2.033-0.707c-0.274-0.095-0.523-0.241-0.748-0.422C15.582,20.067,13.863,21,12,21
			c-1.864,0-3.583-0.934-4.854-2.505c-0.225,0.182-0.475,0.328-0.75,0.424l-2.033,0.707c-0.068,0.024-0.133,0.054-0.2,0.08
			C2.21,17.719,1,14.999,1,12z"/>
		<path d="M10.5,12h-1C9.224,12,9,12.224,9,12.5S9.224,13,9.5,13h1c0.276,0,0.5-0.224,0.5-0.5S10.776,12,10.5,12z"/>
		<path d="M14.5,12h-1c-0.276,0-0.5,0.224-0.5,0.5s0.224,0.5,0.5,0.5h1c0.276,0,0.5-0.224,0.5-0.5S14.776,12,14.5,12z"/>
		<path d="M7.646,9.646c-0.195,0.195-0.195,0.512,0,0.707s0.512,0.195,0.707,0c0.324-0.326,1.569,0.379,2.319,1.025
			C10.768,11.46,10.884,11.5,11,11.5c0.14,0,0.279-0.059,0.378-0.174c0.181-0.209,0.158-0.524-0.051-0.704
			C10.91,10.262,8.773,8.521,7.646,9.646z"/>
		<path d="M16.354,9.646c-1.124-1.124-3.264,0.615-3.681,0.976c-0.209,0.18-0.231,0.495-0.051,0.704
			C12.721,11.441,12.86,11.5,13,11.5c0.116,0,0.232-0.04,0.327-0.121c0.749-0.646,1.993-1.352,2.319-1.025
			c0.195,0.195,0.512,0.195,0.707,0S16.549,9.842,16.354,9.646z"/>
		<path d="M12.493,20.582l0.108-0.646c2.312-0.309,4.294-2.354,5.062-5.32c0.001-0.003,0.002-0.006,0.003-0.009
			c0.008-0.029,0.019-0.055,0.027-0.084c0.004-0.014,0-0.028,0.002-0.042c0.003-0.02,0.012-0.036,0.013-0.057L18,7.521
			c0.008-0.201-0.105-0.389-0.287-0.474c-0.235-0.11-0.488-0.207-0.748-0.296c-0.003-0.005-0.001-0.012-0.005-0.018
			C15.88,5.022,14.025,4,12,4C9.976,4,8.122,5.021,7.041,6.733C7.037,6.739,7.037,6.746,7.034,6.752
			c-0.26,0.088-0.512,0.185-0.747,0.295C6.105,7.133,5.992,7.32,6,7.521l0.294,6.902c0.001,0.019,0.01,0.034,0.013,0.052
			c0.002,0.016-0.002,0.031,0.002,0.047c0.749,3.019,2.753,5.102,5.091,5.414l0.108,0.646C11.547,20.823,11.756,21,12,21
			S12.453,20.823,12.493,20.582z M14.232,14.058c-0.243-0.127-0.547-0.035-0.675,0.21c-0.129,0.245-0.034,0.547,0.21,0.675
			c0.206,0.108,0.544,0.219,0.961,0.313l-0.348,0.522C14.288,15.917,14.133,16,13.965,16h-0.184c-0.23,0-0.43-0.156-0.51-0.451
			l-0.311-0.742c-0.077-0.186-0.26-0.307-0.461-0.307h-1c-0.201,0-0.384,0.121-0.461,0.307l-0.335,0.814
			C10.648,15.844,10.449,16,10.219,16h-0.184c-0.168,0-0.323-0.083-0.416-0.223l-0.348-0.522c0.417-0.094,0.755-0.205,0.961-0.313
			c0.244-0.128,0.339-0.43,0.21-0.675c-0.128-0.245-0.432-0.337-0.675-0.21c-0.321,0.168-1.306,0.393-2.423,0.434
			c-0.016-0.058-0.038-0.111-0.053-0.171L7.015,7.822C7.346,7.69,7.708,7.58,8.079,7.487c0.014-0.002,0.028,0.002,0.042-0.002
			l0.439-0.11C10.25,7.023,11.978,7,11.995,7c0.032,0,3.029,0.038,4.991,0.822l-0.277,6.499c-0.015,0.059-0.037,0.112-0.053,0.171
			C15.539,14.451,14.553,14.226,14.232,14.058z M7.678,15.476c0.174-0.011,0.343-0.026,0.509-0.044l0.6,0.9
			C9.066,16.75,9.532,17,10.035,17h0.184c0.689,0,1.288-0.468,1.432-1.064l0.183-0.436h0.337l0.155,0.363
			C12.493,16.532,13.092,17,13.781,17h0.184c0.503,0,0.969-0.25,1.248-0.668l0.6-0.9c0.166,0.018,0.335,0.033,0.51,0.044
			c-0.754,1.835-2.057,3.11-3.551,3.438l0.222-1.332c0.046-0.272-0.139-0.53-0.411-0.575c-0.267-0.05-0.529,0.138-0.575,0.411
			L12,17.459l-0.007-0.041c-0.046-0.273-0.311-0.461-0.575-0.411c-0.272,0.045-0.457,0.303-0.411,0.575l0.222,1.332
			C9.735,18.586,8.432,17.311,7.678,15.476z"/>
	</g>
</g>
<g id="Scream">
</g>
<g id="Jason">
</g>
<g id="Charlie_Chaplin">
</g>
</svg>
