<?xml version="1.0" encoding="iso-8859-1"?>
<!-- Generator: Adobe Illustrator 19.2.1, SVG Export Plug-In . SVG Version: 6.00 Build 0)  -->
<svg version="1.1" xmlns="http://www.w3.org/2000/svg" xmlns:xlink="http://www.w3.org/1999/xlink" x="0px" y="0px"
	 viewBox="0 0 24 24" style="enable-background:new 0 0 24 24;" xml:space="preserve">
<g id="Man_1">
</g>
<g id="Woman_1">
</g>
<g id="Man_2">
</g>
<g id="Woman_2">
</g>
<g id="Bald_Man">
</g>
<g id="Man_Glasses">
</g>
<g id="Woman_Glasses">
</g>
<g id="Man_Beard">
</g>
<g id="Man_Cap">
</g>
<g id="Woman_Cap">
</g>
<g id="Man_3">
</g>
<g id="Woman_3">
</g>
<g id="Men_4">
</g>
<g id="Woman_4">
</g>
<g id="Business_Man_1">
</g>
<g id="Business_Woman_1">
</g>
<g id="Firefigyhter">
</g>
<g id="Policeman">
</g>
<g id="Criminal">
</g>
<g id="Prisoner">
</g>
<g id="Woodsman">
</g>
<g id="Dispatcher_1">
</g>
<g id="Dispatcher_2">
</g>
<g id="Soldier">
</g>
<g id="Astronaut">
</g>
<g id="Hipster_Guy">
</g>
<g id="Hipster_Girl">
</g>
<g id="Worker">
</g>
<g id="Old_Man">
</g>
<g id="Punk">
</g>
<g id="Diver">
</g>
<g id="Artist">
	<g>
		<path d="M24,12c0-6.617-5.383-12-12-12S0,5.383,0,12c0,6.363,4.982,11.571,11.248,11.962c0.172,0.015,0.346,0.021,0.521,0.026
			C11.847,23.99,11.922,24,12,24c0.008,0,0.015-0.001,0.023-0.001c0.004,0,0.007,0,0.011,0c0.282,0,0.56-0.017,0.836-0.043
			c2.81-0.203,5.349-1.375,7.294-3.187l0.036-0.016c0.105-0.046,0.178-0.129,0.23-0.226C22.632,18.351,24,15.333,24,12z M1,12
			C1,5.935,5.935,1,12,1s11,4.935,11,11c0,2.995-1.206,5.711-3.154,7.696c-0.06-0.023-0.117-0.05-0.178-0.071l-2.033-0.707
			c-0.26-0.091-0.497-0.229-0.713-0.398c-0.697,0.837-1.534,1.492-2.466,1.915C14.099,21.487,13.38,23,12,23
			c-1.374,0-2.103-1.513-2.467-2.561c-0.92-0.415-1.748-1.059-2.441-1.881c-0.203,0.151-0.421,0.278-0.661,0.361l-2.033,0.707
			c-0.077,0.027-0.15,0.06-0.226,0.09C2.213,17.728,1,15.004,1,12z"/>
		<path d="M14.646,15.646c-0.334,0.335-0.654,0.244-1.444-0.202C12.796,15.216,12.412,15,12,15s-0.796,0.216-1.203,0.445
			c-0.79,0.446-1.109,0.537-1.444,0.202c-0.195-0.195-0.512-0.195-0.707,0s-0.195,0.512,0,0.707
			c0.368,0.368,0.751,0.499,1.124,0.499c0.567,0,1.106-0.304,1.518-0.536C11.539,16.175,11.85,16,12,16s0.461,0.175,0.712,0.316
			c0.412,0.232,0.951,0.536,1.518,0.536c0.372,0,0.756-0.131,1.124-0.499c0.195-0.195,0.195-0.512,0-0.707
			S14.842,15.451,14.646,15.646z"/>
		<path d="M4.991,13.5c0,1.425,0.645,2.5,1.5,2.5c0.055,0,0.117-0.005,0.185-0.018c0.756,1.797,2.09,3.138,3.667,3.701
			C10.684,20.793,11.228,22,12,22c0.773,0,1.309-1.207,1.641-2.318c1.577-0.563,2.909-1.904,3.665-3.7
			C17.374,15.995,17.436,16,17.491,16c0.855,0,1.5-1.075,1.5-2.5c0-1.152-0.421-2.075-1.044-2.387
			c-0.036-0.411-0.106-0.803-0.192-1.185c0.109-0.066,0.194-0.171,0.229-0.301c0.029-0.108,0.683-2.668-0.63-3.981
			c-1.781-1.781-4.275-2.08-7.214-0.863C7.69,5.799,5,8.005,5,9c0,0.988,0.71,1.584,1.071,1.824
			c-0.011,0.095-0.027,0.187-0.036,0.284C5.417,11.415,4.991,12.342,4.991,13.5z M16.946,11.284l-1.145,0.863
			C15.48,11.471,14.797,11,14,11c-0.737,0-1.375,0.405-1.722,1h-0.556c-0.347-0.595-0.985-1-1.722-1
			c-0.798,0-1.482,0.472-1.803,1.149l-1.162-0.868c0.011-0.142,0.027-0.281,0.045-0.418c0.916-0.238,3.052-0.762,4.457-0.865
			c1.796-0.132,4.052-0.075,5.196-0.032C16.837,10.384,16.911,10.823,16.946,11.284z M14,12c0.551,0,1,0.449,1,1s-0.449,1-1,1
			s-1-0.449-1-1S13.449,12,14,12z M11,13c0,0.551-0.449,1-1,1s-1-0.449-1-1s0.449-1,1-1S11,12.449,11,13z M17.496,15
			c0,0-0.036-0.01-0.101-0.076c-0.121-0.124-0.298-0.177-0.468-0.137c-0.169,0.039-0.306,0.162-0.362,0.327
			c-0.599,1.765-1.797,3.09-3.229,3.614c-0.429-0.367-0.943-0.727-1.334-0.729C12.001,18,12,18,12,18
			c-0.397,0-0.918,0.361-1.353,0.73c-1.433-0.524-2.632-1.849-3.232-3.615c-0.056-0.164-0.193-0.288-0.363-0.327
			c-0.166-0.038-0.346,0.014-0.468,0.138C6.523,14.988,6.488,15,6.49,15c-0.125-0.001-0.5-0.533-0.5-1.5
			c0-0.804,0.253-1.286,0.423-1.433l1.614,1.205C8.161,14.245,8.99,15,10,15c1.103,0,2-0.897,2-2c0,1.103,0.897,2,2,2
			c1.011,0,1.839-0.756,1.973-1.73l1.602-1.207c0.159,0.141,0.416,0.624,0.416,1.437C17.991,14.468,17.615,15,17.496,15z"/>
	</g>
</g>
<g id="Dictator">
</g>
<g id="Man_Hat">
</g>
<g id="Woman_Hat">
</g>
<g id="Graduated_Man">
</g>
<g id="Graduated_Woman">
</g>
<g id="Avatar_Chef">
</g>
<g id="Waiter">
</g>
<g id="Waitress">
</g>
<g id="Bllboy">
</g>
<g id="Santa">
</g>
<g id="Doctor">
</g>
<g id="Nurse">
</g>
<g id="Captain">
</g>
<g id="Farmer">
</g>
<g id="Maid">
</g>
<g id="Business_Man_2">
</g>
<g id="Business_Woman_2">
</g>
<g id="Cowboy">
</g>
<g id="Anonymus">
</g>
<g id="Batman">
</g>
<g id="Superman">
</g>
<g id="Captain_America">
</g>
<g id="Darth_Vader">
</g>
<g id="Harry_Potter">
</g>
<g id="Anonymus_2">
</g>
<g id="Scream">
</g>
<g id="Jason">
</g>
<g id="Charlie_Chaplin">
</g>
</svg>
