<?xml version="1.0" encoding="iso-8859-1"?>
<!-- Generator: Adobe Illustrator 19.2.1, SVG Export Plug-In . SVG Version: 6.00 Build 0)  -->
<svg version="1.1" xmlns="http://www.w3.org/2000/svg" xmlns:xlink="http://www.w3.org/1999/xlink" x="0px" y="0px"
	 viewBox="0 0 24 24" style="enable-background:new 0 0 24 24;" xml:space="preserve">
<g id="Man_1">
</g>
<g id="Woman_1">
</g>
<g id="Man_2">
</g>
<g id="Woman_2">
</g>
<g id="Bald_Man">
</g>
<g id="Man_Glasses">
</g>
<g id="Woman_Glasses">
</g>
<g id="Man_Beard">
</g>
<g id="Man_Cap">
</g>
<g id="Woman_Cap">
</g>
<g id="Man_3">
</g>
<g id="Woman_3">
</g>
<g id="Men_4">
</g>
<g id="Woman_4">
</g>
<g id="Business_Man_1">
</g>
<g id="Business_Woman_1">
</g>
<g id="Firefigyhter">
</g>
<g id="Policeman">
</g>
<g id="Criminal">
</g>
<g id="Prisoner">
</g>
<g id="Woodsman">
</g>
<g id="Dispatcher_1">
</g>
<g id="Dispatcher_2">
</g>
<g id="Soldier">
</g>
<g id="Astronaut">
	<g>
		<path d="M14.495,16.761c1.64-0.331,2.817-0.964,3.282-1.636c-0.918,0.668-2.143,1.208-2.94,1.341
			C14.753,16.58,14.637,16.68,14.495,16.761z"/>
		<path d="M12,9c-3.536,0-6,1.317-6,2.5v3c0,1.183,2.464,2.5,6,2.5c0.366,0,0.717-0.017,1.059-0.044C12.427,16.839,12,16.475,12,16
			c0-0.58,0.631-1,1.5-1c0.563,0,1.022,0.178,1.278,0.459c1.124-0.2,3.162-1.477,3.222-1.964V11.5C18,10.317,15.536,9,12,9z
			 M16.838,12.031c-0.203,0.188-0.519,0.175-0.707-0.03C15.886,11.734,14.451,11,12,11c-2.146,0-3.41,0.571-3.746,0.746
			C8.097,11.828,8,11.996,8,12.186V14.5C8,14.776,7.776,15,7.5,15S7,14.776,7,14.5v-2.314c0-0.564,0.304-1.072,0.793-1.326
			C8.289,10.601,9.691,10,12,10c2.66,0,4.397,0.813,4.868,1.325C17.055,11.528,17.042,11.844,16.838,12.031z"/>
		<path d="M24,12c0-6.617-5.383-12-12-12S0,5.383,0,12c0,3.434,1.458,6.528,3.778,8.717c0.045,0.065,0.103,0.118,0.17,0.155
			c1.938,1.76,4.447,2.894,7.217,3.086C11.44,23.984,11.718,24,12,24c0.281,0,0.559-0.016,0.834-0.042
			c2.806-0.194,5.344-1.354,7.292-3.153c0.028-0.024,0.056-0.042,0.078-0.071C22.534,18.543,24,15.443,24,12z M1,12
			C1,5.935,5.935,1,12,1s11,4.935,11,11c0,3.081-1.277,5.866-3.325,7.865l-1.757-0.586c1.32-1.475,2.065-3.344,2.065-5.238v-2.083
			C19.982,7.57,16.397,4,11.991,4S4,7.57,4,11.958v2.083c0,1.886,0.751,3.755,2.082,5.238l-1.757,0.586C2.277,17.866,1,15.081,1,12z
			 M14.5,22h-5C9.224,22,9,22.224,9,22.5v0.074c-0.332-0.094-0.656-0.204-0.974-0.328C8.148,21.54,8.76,21,9.5,21h5
			c0.74,0,1.352,0.54,1.474,1.245c-0.318,0.124-0.643,0.234-0.974,0.328V22.5C15,22.224,14.776,22,14.5,22z M12,18
			c-3.925,0-7-1.538-7-3.5v-3C5,9.538,8.075,8,12,8s7,1.538,7,3.5v3C19,16.462,15.925,18,12,18z"/>
	</g>
</g>
<g id="Hipster_Guy">
</g>
<g id="Hipster_Girl">
</g>
<g id="Worker">
</g>
<g id="Old_Man">
</g>
<g id="Punk">
</g>
<g id="Diver">
</g>
<g id="Artist">
</g>
<g id="Dictator">
</g>
<g id="Man_Hat">
</g>
<g id="Woman_Hat">
</g>
<g id="Graduated_Man">
</g>
<g id="Graduated_Woman">
</g>
<g id="Avatar_Chef">
</g>
<g id="Waiter">
</g>
<g id="Waitress">
</g>
<g id="Bllboy">
</g>
<g id="Santa">
</g>
<g id="Doctor">
</g>
<g id="Nurse">
</g>
<g id="Captain">
</g>
<g id="Farmer">
</g>
<g id="Maid">
</g>
<g id="Business_Man_2">
</g>
<g id="Business_Woman_2">
</g>
<g id="Cowboy">
</g>
<g id="Anonymus">
</g>
<g id="Batman">
</g>
<g id="Superman">
</g>
<g id="Captain_America">
</g>
<g id="Darth_Vader">
</g>
<g id="Harry_Potter">
</g>
<g id="Anonymus_2">
</g>
<g id="Scream">
</g>
<g id="Jason">
</g>
<g id="Charlie_Chaplin">
</g>
</svg>
