<?xml version="1.0" encoding="iso-8859-1"?>
<!-- Generator: Adobe Illustrator 19.2.1, SVG Export Plug-In . SVG Version: 6.00 Build 0)  -->
<svg version="1.1" xmlns="http://www.w3.org/2000/svg" xmlns:xlink="http://www.w3.org/1999/xlink" x="0px" y="0px"
	 viewBox="0 0 24 24" style="enable-background:new 0 0 24 24;" xml:space="preserve">
<g id="Man_1">
</g>
<g id="Woman_1">
</g>
<g id="Man_2">
</g>
<g id="Woman_2">
</g>
<g id="Bald_Man">
</g>
<g id="Man_Glasses">
</g>
<g id="Woman_Glasses">
</g>
<g id="Man_Beard">
</g>
<g id="Man_Cap">
</g>
<g id="Woman_Cap">
</g>
<g id="Man_3">
</g>
<g id="Woman_3">
</g>
<g id="Men_4">
</g>
<g id="Woman_4">
</g>
<g id="Business_Man_1">
</g>
<g id="Business_Woman_1">
</g>
<g id="Firefigyhter">
</g>
<g id="Policeman">
</g>
<g id="Criminal">
</g>
<g id="Prisoner">
</g>
<g id="Woodsman">
</g>
<g id="Dispatcher_1">
</g>
<g id="Dispatcher_2">
</g>
<g id="Soldier">
</g>
<g id="Astronaut">
</g>
<g id="Hipster_Guy">
</g>
<g id="Hipster_Girl">
</g>
<g id="Worker">
</g>
<g id="Old_Man">
</g>
<g id="Punk">
</g>
<g id="Diver">
</g>
<g id="Artist">
</g>
<g id="Dictator">
</g>
<g id="Man_Hat">
</g>
<g id="Woman_Hat">
</g>
<g id="Graduated_Man">
</g>
<g id="Graduated_Woman">
</g>
<g id="Avatar_Chef">
</g>
<g id="Waiter">
</g>
<g id="Waitress">
</g>
<g id="Bllboy">
</g>
<g id="Santa">
</g>
<g id="Doctor">
</g>
<g id="Nurse">
</g>
<g id="Captain">
</g>
<g id="Farmer">
</g>
<g id="Maid">
</g>
<g id="Business_Man_2">
</g>
<g id="Business_Woman_2">
</g>
<g id="Cowboy">
</g>
<g id="Anonymus">
</g>
<g id="Batman">
</g>
<g id="Superman">
</g>
<g id="Captain_America">
</g>
<g id="Darth_Vader">
	<g>
		<path d="M24,12c0-6.617-5.383-12-12-12S0,5.383,0,12c0,3.187,1.257,6.081,3.292,8.232c0.034,0.062,0.083,0.111,0.139,0.153
			c1.987,2.031,4.688,3.352,7.692,3.571C11.411,23.982,11.702,24,12,24c0.298,0,0.59-0.018,0.878-0.044
			C19.085,23.503,24,18.321,24,12z M12,1c6.065,0,11,4.935,11,11c0,2.844-1.094,5.431-2.872,7.386l-3.233-1.347
			c0.888-0.379,1.541-0.817,2.016-1.208C17.658,13.262,15.391,8.5,14,8.5c-0.366,0-0.604,0.104-0.88,0.223C12.82,8.853,12.48,9,12,9
			s-0.82-0.147-1.12-0.277C10.604,8.604,10.366,8.5,10,8.5c-1.391,0-3.658,4.762-4.911,8.331c0.475,0.392,1.128,0.829,2.016,1.208
			l-3.233,1.347C2.094,17.431,1,14.844,1,12C1,5.935,5.935,1,12,1z M11.863,12.02c0.032-0.009,0.065,0.003,0.098,0
			c0.027-0.002,0.051-0.002,0.078,0c0.033,0.003,0.066-0.009,0.098,0l3.5,1c0.245,0.069,0.398,0.312,0.356,0.563l-0.5,3
			c-0.007,0.041-0.025,0.077-0.041,0.114c-0.004,0.009-0.001,0.019-0.005,0.028c-0.002,0.004-0.006,0.005-0.008,0.008
			c-0.038,0.073-0.094,0.13-0.161,0.176c-0.014,0.01-0.028,0.017-0.043,0.025C15.164,16.972,15.086,17,15,17l0,0l0,0H9
			c-0.013,0-0.024-0.009-0.037-0.01c-0.072-0.005-0.139-0.023-0.2-0.057c-0.011-0.006-0.023-0.008-0.033-0.015
			c-0.069-0.045-0.124-0.106-0.164-0.18c-0.003-0.006-0.01-0.008-0.013-0.014c-0.006-0.013-0.002-0.027-0.008-0.04
			c-0.013-0.034-0.032-0.064-0.038-0.101l-0.5-3c-0.042-0.251,0.111-0.493,0.356-0.563L11.863,12.02z M8.588,10.217
			C8.771,9.95,9.274,9.5,10,9.5c0.851,0,1.346,0.628,1.4,0.7c0.114,0.151,0.132,0.354,0.047,0.523C11.362,10.893,11.189,11,11,11H9
			c-0.186,0-0.356-0.103-0.442-0.268C8.471,10.568,8.483,10.37,8.588,10.217z M12.6,10.2c0.054-0.072,0.549-0.7,1.4-0.7
			c0.726,0,1.229,0.45,1.412,0.717c0.105,0.153,0.117,0.352,0.03,0.516C15.356,10.897,15.186,11,15,11h-2
			c-0.189,0-0.362-0.107-0.447-0.276C12.468,10.555,12.486,10.352,12.6,10.2z"/>
		<path d="M4.076,15.765c0.011,0.017,0.087,0.13,0.225,0.297C5.203,13.576,7.647,7.5,10,7.5c0.574,0,0.964,0.169,1.278,0.305
			C11.529,7.914,11.728,8,12,8s0.471-0.086,0.722-0.195C13.036,7.669,13.426,7.5,14,7.5c2.353,0,4.797,6.076,5.699,8.562
			c0.139-0.167,0.214-0.28,0.225-0.297c0.079-0.126,0.097-0.281,0.05-0.423L18,9.419V7.5c0-2.249-1.831-3.697-4-4.247V5
			c0,1.103-0.897,2-2,2s-2-0.897-2-2V3.253C7.831,3.803,6,5.251,6,7.5v1.919l-1.974,5.923C3.979,15.483,3.997,15.639,4.076,15.765z"
			/>
		<polygon points="10.709,13.389 9.066,13.858 9.301,15.266 		"/>
		<path d="M12,6c0.551,0,1-0.448,1-1V3.064C12.667,3.023,12.333,3,12,3s-0.667,0.023-1,0.064V5C11,5.552,11.449,6,12,6z"/>
		<polygon points="14.934,13.858 13.291,13.389 14.699,15.266 		"/>
		<polygon points="14,16 12,13.333 10,16 		"/>
	</g>
</g>
<g id="Harry_Potter">
</g>
<g id="Anonymus_2">
</g>
<g id="Scream">
</g>
<g id="Jason">
</g>
<g id="Charlie_Chaplin">
</g>
</svg>
