<?xml version="1.0" encoding="iso-8859-1"?>
<!-- Generator: Adobe Illustrator 19.2.1, SVG Export Plug-In . SVG Version: 6.00 Build 0)  -->
<svg version="1.1" xmlns="http://www.w3.org/2000/svg" xmlns:xlink="http://www.w3.org/1999/xlink" x="0px" y="0px"
	 viewBox="0 0 24 24" style="enable-background:new 0 0 24 24;" xml:space="preserve">
<g id="Man_1">
</g>
<g id="Woman_1">
</g>
<g id="Man_2">
</g>
<g id="Woman_2">
</g>
<g id="Bald_Man">
</g>
<g id="Man_Glasses">
</g>
<g id="Woman_Glasses">
</g>
<g id="Man_Beard">
</g>
<g id="Man_Cap">
</g>
<g id="Woman_Cap">
</g>
<g id="Man_3">
</g>
<g id="Woman_3">
</g>
<g id="Men_4">
</g>
<g id="Woman_4">
</g>
<g id="Business_Man_1">
</g>
<g id="Business_Woman_1">
</g>
<g id="Firefigyhter">
</g>
<g id="Policeman">
</g>
<g id="Criminal">
</g>
<g id="Prisoner">
</g>
<g id="Woodsman">
</g>
<g id="Dispatcher_1">
</g>
<g id="Dispatcher_2">
</g>
<g id="Soldier">
</g>
<g id="Astronaut">
</g>
<g id="Hipster_Guy">
</g>
<g id="Hipster_Girl">
</g>
<g id="Worker">
</g>
<g id="Old_Man">
</g>
<g id="Punk">
</g>
<g id="Diver">
	<g>
		<path d="M24,12c0-6.617-5.383-12-12-12S0,5.383,0,12c0,6.359,4.977,11.565,11.238,11.961c0.201,0.018,0.405,0.026,0.61,0.031
			C11.899,23.993,11.949,24,12,24c0.005,0,0.01-0.001,0.015-0.001c0.006,0,0.012,0.001,0.019,0.001c0.286,0,0.568-0.018,0.847-0.045
			c2.805-0.205,5.34-1.376,7.282-3.185l0.037-0.016c0.105-0.046,0.179-0.13,0.231-0.227C22.632,18.35,24,15.333,24,12z M1,12
			C1,5.935,5.935,1,12,1s11,4.935,11,11c0,2.995-1.206,5.711-3.155,7.697c-0.06-0.023-0.117-0.049-0.177-0.071l-1.166-0.406
			c-0.024-0.665-0.207-1.979-1.23-2.641c-0.057-0.037-0.133-0.064-0.198-0.096c0.083-0.165,0.167-0.329,0.24-0.502
			C17.381,15.995,17.444,16,17.499,16c0.855,0,1.5-1.075,1.5-2.5c0-1.159-0.426-2.085-1.045-2.392C17.63,7.439,15.273,5,11.999,5
			c-3.275,0-5.632,2.438-5.956,6.108c-0.619,0.307-1.044,1.233-1.044,2.392c0,1.425,0.645,2.5,1.5,2.5
			c0.055,0,0.117-0.005,0.185-0.018c0.073,0.174,0.157,0.338,0.24,0.503c-0.064,0.032-0.139,0.058-0.196,0.095
			c-1.035,0.67-1.211,2.007-1.232,2.664l-1.1,0.382c-0.077,0.027-0.15,0.06-0.225,0.09C2.213,17.729,1,15.004,1,12z M7.271,17.42
			c0.042-0.027,0.102-0.05,0.155-0.074c0.818,1.196,1.93,2.063,3.179,2.431c0.084,0.027,0.169,0.052,0.261,0.076
			c0.117,0.028,0.234,0.054,0.351,0.073C11.474,19.97,11.733,20,11.999,20c0.265,0,0.524-0.03,0.777-0.073
			c0.12-0.02,0.237-0.046,0.36-0.076c0.086-0.022,0.171-0.047,0.246-0.071c1.257-0.371,2.371-1.239,3.19-2.436
			c0.054,0.025,0.115,0.048,0.158,0.076c0.664,0.43,0.765,1.425,0.775,1.886C16.718,20.222,14.827,22,12,22
			c-2.832,0-4.72-1.781-5.504-2.694C6.506,18.844,6.608,17.85,7.271,17.42z M7.423,15.114c-0.056-0.164-0.193-0.288-0.362-0.326
			c-0.037-0.009-0.074-0.013-0.111-0.013c-0.133,0-0.262,0.053-0.356,0.149C6.531,14.988,6.496,15,6.498,15
			c-0.125-0.001-0.5-0.533-0.5-1.5c0-0.968,0.375-1.5,0.519-1.5c0.267,0,0.486-0.209,0.5-0.475C7.185,8.169,9.141,6,11.999,6
			c2.857,0,4.813,2.169,4.981,5.525c0.014,0.266,0.233,0.475,0.5,0.475h0.019c0.125,0,0.5,0.532,0.5,1.5S17.623,15,17.504,15
			c0,0-0.036-0.01-0.101-0.076c-0.121-0.124-0.297-0.177-0.468-0.137c-0.169,0.039-0.306,0.162-0.362,0.326
			c-0.128,0.376-0.289,0.726-0.467,1.059c-0.813-0.16-1.712-0.184-2.227-0.18C13.606,15.41,12.882,15,12,15
			c-0.882,0-1.607,0.41-1.879,0.994c-0.516-0.004-1.417,0.02-2.231,0.181C7.712,15.841,7.551,15.49,7.423,15.114z M10.115,16.992
			C10.382,17.583,11.111,18,12,18c0.889,0,1.618-0.417,1.885-1.008c0.493-0.003,1.093,0.025,1.633,0.096
			c-0.66,0.847-1.497,1.462-2.429,1.737c-0.066,0.021-0.132,0.042-0.194,0.057c-0.093,0.022-0.186,0.043-0.284,0.06
			c-0.402,0.068-0.819,0.069-1.228-0.001c-0.095-0.015-0.188-0.036-0.274-0.057c-0.067-0.017-0.134-0.038-0.209-0.062
			c-0.925-0.273-1.76-0.886-2.419-1.733C9.02,17.017,9.621,16.989,10.115,16.992z"/>
		<path d="M12,14.101l0.719,0.479C13.13,14.855,13.61,15,14.105,15H14.5c1.378,0,2.5-1.122,2.5-2.5S15.878,10,14.5,10h-5
			C8.122,10,7,11.122,7,12.5S8.122,15,9.5,15h0.395c0.496,0,0.975-0.145,1.387-0.42L12,14.101z"/>
	</g>
</g>
<g id="Artist">
</g>
<g id="Dictator">
</g>
<g id="Man_Hat">
</g>
<g id="Woman_Hat">
</g>
<g id="Graduated_Man">
</g>
<g id="Graduated_Woman">
</g>
<g id="Avatar_Chef">
</g>
<g id="Waiter">
</g>
<g id="Waitress">
</g>
<g id="Bllboy">
</g>
<g id="Santa">
</g>
<g id="Doctor">
</g>
<g id="Nurse">
</g>
<g id="Captain">
</g>
<g id="Farmer">
</g>
<g id="Maid">
</g>
<g id="Business_Man_2">
</g>
<g id="Business_Woman_2">
</g>
<g id="Cowboy">
</g>
<g id="Anonymus">
</g>
<g id="Batman">
</g>
<g id="Superman">
</g>
<g id="Captain_America">
</g>
<g id="Darth_Vader">
</g>
<g id="Harry_Potter">
</g>
<g id="Anonymus_2">
</g>
<g id="Scream">
</g>
<g id="Jason">
</g>
<g id="Charlie_Chaplin">
</g>
</svg>
