<?xml version="1.0" encoding="iso-8859-1"?>
<!-- Generator: Adobe Illustrator 19.2.1, SVG Export Plug-In . SVG Version: 6.00 Build 0)  -->
<svg version="1.1" xmlns="http://www.w3.org/2000/svg" xmlns:xlink="http://www.w3.org/1999/xlink" x="0px" y="0px"
	 viewBox="0 0 24 24" style="enable-background:new 0 0 24 24;" xml:space="preserve">
<g id="Man_1">
</g>
<g id="Woman_1">
</g>
<g id="Man_2">
</g>
<g id="Woman_2">
</g>
<g id="Bald_Man">
</g>
<g id="Man_Glasses">
</g>
<g id="Woman_Glasses">
</g>
<g id="Man_Beard">
</g>
<g id="Man_Cap">
</g>
<g id="Woman_Cap">
</g>
<g id="Man_3">
</g>
<g id="Woman_3">
</g>
<g id="Men_4">
</g>
<g id="Woman_4">
</g>
<g id="Business_Man_1">
</g>
<g id="Business_Woman_1">
</g>
<g id="Firefigyhter">
</g>
<g id="Policeman">
</g>
<g id="Criminal">
</g>
<g id="Prisoner">
</g>
<g id="Woodsman">
</g>
<g id="Dispatcher_1">
</g>
<g id="Dispatcher_2">
</g>
<g id="Soldier">
</g>
<g id="Astronaut">
</g>
<g id="Hipster_Guy">
</g>
<g id="Hipster_Girl">
</g>
<g id="Worker">
</g>
<g id="Old_Man">
</g>
<g id="Punk">
</g>
<g id="Diver">
</g>
<g id="Artist">
</g>
<g id="Dictator">
</g>
<g id="Man_Hat">
</g>
<g id="Woman_Hat">
</g>
<g id="Graduated_Man">
</g>
<g id="Graduated_Woman">
	<g>
		<path d="M10.5,12h-1C9.224,12,9,12.224,9,12.5S9.224,13,9.5,13h1c0.276,0,0.5-0.224,0.5-0.5S10.776,12,10.5,12z"/>
		<path d="M14.5,12h-1c-0.276,0-0.5,0.224-0.5,0.5s0.224,0.5,0.5,0.5h1c0.276,0,0.5-0.224,0.5-0.5S14.776,12,14.5,12z"/>
		<path d="M4.427,17.995c0.118,0.018,2.88,0.428,3.989,0.5c0.647,0.6,1.389,1.046,2.19,1.282c0.085,0.027,0.169,0.053,0.262,0.076
			c0.117,0.028,0.234,0.054,0.351,0.073C11.474,19.97,11.733,20,11.998,20c0.266,0,0.525-0.03,0.778-0.073
			c0.119-0.02,0.236-0.045,0.36-0.075c0.085-0.022,0.169-0.047,0.245-0.071c0.805-0.238,1.549-0.684,2.198-1.285
			c1.106-0.072,3.875-0.483,3.994-0.501c0.157-0.023,0.294-0.12,0.368-0.26s0.078-0.308,0.01-0.451
			c-0.009-0.017-0.809-1.703-0.967-3.525c0-0.001-0.001-0.002-0.001-0.003c0.005-0.085,0.015-0.168,0.015-0.256
			c0-0.915-0.268-1.681-0.684-2.115c-0.194-0.719-0.394-1.358-0.644-1.922c0.207-0.077,0.346-0.277,0.328-0.501l-0.134-1.739
			l-5.798,0.773C12.044,7.999,12.022,8,12,8s-0.044-0.001-0.066-0.004L6.136,7.223L6.002,8.961c-0.018,0.22,0.115,0.416,0.316,0.497
			c-0.245,0.554-0.437,1.202-0.632,1.924c-0.418,0.434-0.687,1.201-0.687,2.118c0,0.095,0.01,0.183,0.016,0.274
			c-0.161,1.816-0.956,3.492-0.965,3.509c-0.068,0.143-0.064,0.311,0.01,0.451S4.27,17.971,4.427,17.995z M13.091,18.824
			c-0.068,0.021-0.135,0.042-0.195,0.057c-0.094,0.023-0.188,0.044-0.284,0.06c-0.402,0.068-0.82,0.069-1.229-0.001
			c-0.096-0.015-0.188-0.036-0.275-0.058c-0.067-0.017-0.134-0.037-0.209-0.061c-1.543-0.456-2.842-1.841-3.475-3.707
			c-0.056-0.164-0.192-0.288-0.362-0.327c-0.168-0.04-0.345,0.013-0.468,0.136C6.531,14.988,6.496,15,6.498,15
			c-0.125-0.001-0.5-0.533-0.5-1.5c0-0.786,0.242-1.266,0.402-1.426l0.178-0.069c0.303,0.036,0.7,0.255,0.896,0.398
			C7.561,12.467,7.665,12.5,7.77,12.5c0.067,0,0.135-0.014,0.198-0.041c0.162-0.07,0.275-0.221,0.298-0.396
			c0.075-0.603,0.274-1.278,0.424-1.456c0.48-0.013,1.331-0.172,2-0.629C11.1,9.991,11.535,10,12,10
			c0.046,0,0.086-0.002,0.131-0.002c0.951,0.605,2.096,0.987,3.227,1.067c0.116,0.593,0.396,1.109,0.436,1.179
			c0.069,0.125,0.19,0.214,0.33,0.245c0.035,0.007,0.071,0.011,0.106,0.011c0.105,0,0.21-0.033,0.297-0.097
			c0.194-0.143,0.59-0.362,0.892-0.398l0.174,0.066c0.159,0.155,0.405,0.636,0.405,1.429c0,0.968-0.376,1.5-0.494,1.5
			c-0.001,0-0.036-0.01-0.1-0.075c-0.122-0.125-0.301-0.176-0.468-0.138c-0.17,0.039-0.307,0.163-0.363,0.327
			C15.939,16.98,14.64,18.366,13.091,18.824z"/>
		<path d="M24,12c0-6.617-5.383-12-12-12S0,5.383,0,12c0,6.359,4.976,11.565,11.238,11.961c0.201,0.018,0.405,0.026,0.61,0.031
			C11.899,23.993,11.949,24,12,24c0.005,0,0.01-0.001,0.015-0.001c0.006,0,0.012,0.001,0.019,0.001c0.286,0,0.568-0.018,0.847-0.045
			c2.805-0.205,5.34-1.376,7.282-3.185l0.037-0.016c0.105-0.046,0.179-0.13,0.231-0.227C22.632,18.351,24,15.333,24,12z M1,12
			C1,5.935,5.935,1,12,1s11,4.935,11,11c0,2.995-1.206,5.711-3.155,7.697c-0.06-0.023-0.117-0.049-0.177-0.071l-2.033-0.707
			c-0.259-0.09-0.494-0.228-0.709-0.395c-0.891,1.069-2.01,1.846-3.261,2.215c-0.075,0.024-0.176,0.054-0.278,0.081
			c-0.165,0.04-0.306,0.07-0.448,0.094C12.603,20.971,12.292,21,11.998,21s-0.604-0.029-0.949-0.088
			c-0.132-0.021-0.272-0.052-0.413-0.085c-0.126-0.032-0.229-0.063-0.332-0.096c-1.222-0.361-2.324-1.124-3.208-2.175
			c-0.204,0.152-0.423,0.28-0.665,0.364l-2.033,0.707c-0.077,0.027-0.15,0.06-0.225,0.09C2.213,17.729,1,15.004,1,12z"/>
		<path d="M4.434,5.996l7.5,1C11.956,6.999,11.978,7,12,7s0.044-0.001,0.066-0.004l7.5-1C19.814,5.962,20,5.75,20,5.5
			s-0.186-0.462-0.434-0.496l-7.5-1c-0.045-0.006-0.088-0.006-0.133,0l-7.5,1C4.186,5.038,4,5.25,4,5.5S4.186,5.962,4.434,5.996z"/>
	</g>
</g>
<g id="Avatar_Chef">
</g>
<g id="Waiter">
</g>
<g id="Waitress">
</g>
<g id="Bllboy">
</g>
<g id="Santa">
</g>
<g id="Doctor">
</g>
<g id="Nurse">
</g>
<g id="Captain">
</g>
<g id="Farmer">
</g>
<g id="Maid">
</g>
<g id="Business_Man_2">
</g>
<g id="Business_Woman_2">
</g>
<g id="Cowboy">
</g>
<g id="Anonymus">
</g>
<g id="Batman">
</g>
<g id="Superman">
</g>
<g id="Captain_America">
</g>
<g id="Darth_Vader">
</g>
<g id="Harry_Potter">
</g>
<g id="Anonymus_2">
</g>
<g id="Scream">
</g>
<g id="Jason">
</g>
<g id="Charlie_Chaplin">
</g>
</svg>
