<?xml version="1.0" encoding="iso-8859-1"?>
<!-- Generator: Adobe Illustrator 19.2.1, SVG Export Plug-In . SVG Version: 6.00 Build 0)  -->
<svg version="1.1" xmlns="http://www.w3.org/2000/svg" xmlns:xlink="http://www.w3.org/1999/xlink" x="0px" y="0px"
	 viewBox="0 0 24 24" style="enable-background:new 0 0 24 24;" xml:space="preserve">
<g id="Man_1">
</g>
<g id="Woman_1">
</g>
<g id="Man_2">
</g>
<g id="Woman_2">
</g>
<g id="Bald_Man">
</g>
<g id="Man_Glasses">
</g>
<g id="Woman_Glasses">
</g>
<g id="Man_Beard">
</g>
<g id="Man_Cap">
</g>
<g id="Woman_Cap">
</g>
<g id="Man_3">
</g>
<g id="Woman_3">
</g>
<g id="Men_4">
</g>
<g id="Woman_4">
</g>
<g id="Business_Man_1">
</g>
<g id="Business_Woman_1">
</g>
<g id="Firefigyhter">
</g>
<g id="Policeman">
</g>
<g id="Criminal">
</g>
<g id="Prisoner">
</g>
<g id="Woodsman">
</g>
<g id="Dispatcher_1">
</g>
<g id="Dispatcher_2">
</g>
<g id="Soldier">
</g>
<g id="Astronaut">
</g>
<g id="Hipster_Guy">
</g>
<g id="Hipster_Girl">
</g>
<g id="Worker">
</g>
<g id="Old_Man">
</g>
<g id="Punk">
</g>
<g id="Diver">
</g>
<g id="Artist">
</g>
<g id="Dictator">
</g>
<g id="Man_Hat">
</g>
<g id="Woman_Hat">
</g>
<g id="Graduated_Man">
</g>
<g id="Graduated_Woman">
</g>
<g id="Avatar_Chef">
</g>
<g id="Waiter">
</g>
<g id="Waitress">
</g>
<g id="Bllboy">
</g>
<g id="Santa">
</g>
<g id="Doctor">
</g>
<g id="Nurse">
</g>
<g id="Captain">
</g>
<g id="Farmer">
</g>
<g id="Maid">
</g>
<g id="Business_Man_2">
</g>
<g id="Business_Woman_2">
</g>
<g id="Cowboy">
</g>
<g id="Anonymus">
</g>
<g id="Batman">
</g>
<g id="Superman">
</g>
<g id="Captain_America">
</g>
<g id="Darth_Vader">
</g>
<g id="Harry_Potter">
	<g>
		<path d="M24,12c0-6.617-5.383-12-12-12S0,5.383,0,12c0,6.34,4.945,11.533,11.179,11.958C11.45,23.983,11.723,24,12,24
			c0.277,0,0.551-0.017,0.822-0.042c2.923-0.199,5.561-1.441,7.539-3.367c0.006-0.008,0.017-0.012,0.023-0.021
			C22.612,18.391,24,15.356,24,12z M1,12C1,5.935,5.935,1,12,1s11,4.935,11,11c0,3-1.21,5.72-3.164,7.707
			c-0.068-0.026-0.133-0.057-0.202-0.081l-2.033-0.707c-0.277-0.096-0.53-0.244-0.757-0.428C15.574,20.064,13.865,21,12,21
			c-1.866,0-3.575-0.937-4.845-2.511c-0.227,0.185-0.481,0.333-0.758,0.43l-2.033,0.707c-0.068,0.024-0.133,0.054-0.2,0.08
			C2.21,17.719,1,14.999,1,12z"/>
		<path d="M6.441,14.998C7.35,18.011,9.537,20,12,20s4.65-1.989,5.559-5.002C18.385,14.95,19,13.893,19,12.5
			c0-0.396-0.053-0.783-0.152-1.132C18.951,10.865,19,10.428,19,10c0-3.859-3.141-7-7-7C9.091,3,6.592,4.786,5.537,7.318
			c-0.003,0.007-0.005,0.013-0.007,0.02C5.19,8.159,5,9.057,5,10c0,0.428,0.049,0.865,0.152,1.368C5.053,11.717,5,12.104,5,12.5
			C5,13.893,5.615,14.95,6.441,14.998z M15.697,11.768C15.382,11.305,14.851,11,14.25,11c-0.73,0-1.356,0.45-1.618,1.087
			C12.446,12.039,12.239,12,12,12s-0.446,0.039-0.632,0.087C11.106,11.45,10.48,11,9.75,11c-0.601,0-1.132,0.305-1.447,0.768
			l-0.818-0.545C7.435,10.26,7.497,9.309,7.631,9c0.659,0.025,1.926-0.008,2.728-0.809c0.132-0.131,0.244-0.275,0.335-0.435
			c0.085,0.084,0.189,0.168,0.287,0.251c-0.175,0.008-0.343,0.101-0.428,0.268L10.191,9H9.5C9.311,9,9.138,9.107,9.053,9.276l-0.5,1
			c-0.123,0.247-0.023,0.547,0.224,0.671C8.849,10.983,8.925,11,9,11c0.183,0,0.359-0.102,0.447-0.276L9.809,10H10.5
			c0.189,0,0.362-0.107,0.447-0.276l0.5-1c0.054-0.108,0.058-0.226,0.033-0.335c1.174,0.81,2.884,1.487,4.557,1.596
			c0.071,0.499,0.228,0.993,0.35,1.324L15.697,11.768z M15,12.75c0,0.413-0.337,0.75-0.75,0.75s-0.75-0.337-0.75-0.75
			S13.837,12,14.25,12S15,12.337,15,12.75z M10.5,12.75c0,0.413-0.337,0.75-0.75,0.75S9,13.163,9,12.75S9.337,12,9.75,12
			S10.5,12.337,10.5,12.75z M17.469,13.977c-0.135-0.085-0.303-0.101-0.452-0.04c-0.148,0.061-0.26,0.188-0.298,0.344
			C16.02,17.104,14.123,19,12,19s-4.02-1.896-4.719-4.72c-0.038-0.155-0.165-0.271-0.313-0.332
			c-0.055-0.021-0.114-0.032-0.175-0.032c-0.103,0-0.207,0.03-0.293,0.084C6.376,14,6,13.468,6,12.5
			c0-0.207,0.024-0.405,0.059-0.596c0.314,0.019,0.607,0.055,0.758,0.075l1.184,0.79c0.01,0.956,0.79,1.731,1.748,1.731
			c0.847,0,1.555-0.606,1.715-1.407C11.602,13.047,11.791,13,12,13c0.209,0,0.398,0.047,0.535,0.093
			c0.16,0.801,0.868,1.407,1.715,1.407c0.958,0,1.738-0.775,1.748-1.731l1.172-0.781l0.775-0.064C17.978,12.108,18,12.3,18,12.5
			C18,13.47,17.637,13.971,17.469,13.977z"/>
	</g>
</g>
<g id="Anonymus_2">
</g>
<g id="Scream">
</g>
<g id="Jason">
</g>
<g id="Charlie_Chaplin">
</g>
</svg>
