<?xml version="1.0" encoding="iso-8859-1"?>
<!-- Generator: Adobe Illustrator 19.2.1, SVG Export Plug-In . SVG Version: 6.00 Build 0)  -->
<svg version="1.1" xmlns="http://www.w3.org/2000/svg" xmlns:xlink="http://www.w3.org/1999/xlink" x="0px" y="0px"
	 viewBox="0 0 24 24" style="enable-background:new 0 0 24 24;" xml:space="preserve">
<g id="Man_1">
</g>
<g id="Woman_1">
</g>
<g id="Man_2">
</g>
<g id="Woman_2">
</g>
<g id="Bald_Man">
</g>
<g id="Man_Glasses">
</g>
<g id="Woman_Glasses">
</g>
<g id="Man_Beard">
</g>
<g id="Man_Cap">
</g>
<g id="Woman_Cap">
</g>
<g id="Man_3">
</g>
<g id="Woman_3">
</g>
<g id="Men_4">
</g>
<g id="Woman_4">
</g>
<g id="Business_Man_1">
</g>
<g id="Business_Woman_1">
</g>
<g id="Firefigyhter">
</g>
<g id="Policeman">
</g>
<g id="Criminal">
</g>
<g id="Prisoner">
</g>
<g id="Woodsman">
</g>
<g id="Dispatcher_1">
</g>
<g id="Dispatcher_2">
</g>
<g id="Soldier">
</g>
<g id="Astronaut">
</g>
<g id="Hipster_Guy">
	<g>
		<path d="M24,12c0-6.617-5.383-12-12-12S0,5.383,0,12c0,3.329,1.364,6.344,3.561,8.52c0.055,0.106,0.141,0.176,0.243,0.221
			c1.93,1.811,4.453,2.991,7.246,3.211C11.341,23.981,11.635,24,11.933,24c0.013,0,0.025-0.001,0.037-0.002
			C11.98,23.998,11.99,24,12,24c0.099,0,0.195-0.012,0.293-0.015c0.137-0.006,0.275-0.009,0.411-0.021
			C18.993,23.597,24,18.379,24,12z M12,1c6.065,0,11,4.935,11,11c0,3.005-1.214,5.73-3.173,7.717c-0.076-0.03-0.15-0.063-0.227-0.09
			l-2.004-0.697C16.443,21.319,14.32,23,12,23c-2.328,0-4.458-1.693-5.608-4.094c-0.01,0.004-0.019,0.01-0.03,0.014l-2.034,0.707
			c-0.059,0.021-0.116,0.047-0.174,0.069C2.206,17.71,1,14.995,1,12C1,5.935,5.935,1,12,1z"/>
		<path d="M6.498,16c0.026,0,0.047-0.011,0.072-0.014C6.985,19.24,9.382,22,12,22c2.617,0,5.015-2.76,5.43-6.014
			C17.454,15.989,17.473,16,17.498,16c0.855,0,1.5-1.075,1.5-2.5c0-1.164-0.431-2.095-1.064-2.396
			c-0.047-0.298-0.126-0.714-0.215-1.169c0.105-0.053,0.197-0.129,0.245-0.246c0.021-0.051,0.5-1.263-0.21-2.317
			c-0.213-0.316-0.51-0.575-0.878-0.782C15.788,4.898,14.108,4,12,4C7.78,4,6.437,7.381,6.011,9.396
			C6.008,9.409,6.016,9.42,6.015,9.432c-0.007,0.05,0.008,0.094,0.016,0.144c0.01,0.058,0.014,0.113,0.043,0.163
			c0.007,0.012,0.002,0.026,0.01,0.037c0.042,0.064,0.1,0.11,0.163,0.147c0.006,0.004,0.008,0.012,0.015,0.016
			C6.264,9.941,6.266,9.94,6.268,9.941c-0.085,0.45-0.162,0.862-0.206,1.158c-0.63,0.296-1.064,1.23-1.064,2.401
			C4.998,14.925,5.643,16,6.498,16z M8.197,12.149l-1.152-0.863c0.054-0.366,0.172-0.989,0.244-1.364l0.029-0.154
			C8.291,9.483,10.203,9,12,9c1.782,0,3.687,0.478,4.666,0.764c0.014,0.07,0.027,0.138,0.043,0.219
			c0.07,0.357,0.187,0.95,0.241,1.303l-1.148,0.862C15.481,11.472,14.797,11,14,11c-0.737,0-1.375,0.405-1.722,1h-0.556
			c-0.347-0.595-0.985-1-1.722-1C9.203,11,8.518,11.472,8.197,12.149z M12,13c0,0.648,0.315,1.219,0.794,1.585
			C12.566,14.535,12.31,14.5,12,14.5s-0.566,0.035-0.794,0.085C11.685,14.219,12,13.648,12,13z M13,13c0-0.551,0.448-1,1-1
			s1,0.449,1,1s-0.448,1-1,1S13,13.551,13,13z M10,12c0.552,0,1,0.449,1,1s-0.448,1-1,1s-1-0.449-1-1S9.448,12,10,12z M12.5,17h-1
			c-0.276,0-0.5-0.224-0.5-0.5s0.224-0.5,0.5-0.5h1c0.276,0,0.5,0.224,0.5,0.5S12.776,17,12.5,17z M17.592,14.943
			c-0.019-0.025-0.037-0.05-0.053-0.07c-0.065-0.087-0.128-0.168-0.182-0.223c-0.019-0.019-0.043-0.028-0.064-0.043
			c-0.012-0.009-0.018-0.024-0.031-0.032c-0.009-0.006-0.021-0.004-0.03-0.009c-0.056-0.03-0.115-0.047-0.176-0.055
			c-0.015-0.002-0.027-0.008-0.042-0.009c-0.075-0.002-0.148,0.015-0.218,0.046c-0.006,0.003-0.013,0.001-0.02,0.004
			C15.882,15,15.478,15,14.5,15c-0.089,0-0.154-0.019-0.232-0.027c0.886-0.12,1.584-0.817,1.705-1.703l1.608-1.208
			c0.158,0.141,0.417,0.624,0.417,1.437C17.998,14.284,17.752,14.781,17.592,14.943z M17.133,8.857C16.166,8.564,14.041,8,12,8
			c-1.09,0-2.204,0.161-3.152,0.355C10.062,7.667,11.805,7,14,7c1.498,0,2.507,0.319,2.919,0.922
			C17.13,8.231,17.157,8.584,17.133,8.857z M6.421,12.067l1.606,1.203c0.124,0.902,0.845,1.606,1.753,1.707
			C9.667,14.991,9.545,15,9.401,15c-0.938,0.001-1.322,0.001-2.169-0.443c-0.007-0.004-0.015-0.002-0.023-0.005
			c-0.07-0.033-0.144-0.052-0.22-0.05c-0.012,0-0.022,0.006-0.033,0.007c-0.065,0.006-0.126,0.024-0.185,0.055
			c-0.009,0.005-0.021,0.003-0.03,0.009c-0.013,0.008-0.019,0.024-0.032,0.033c-0.022,0.016-0.047,0.025-0.067,0.045
			c-0.053,0.054-0.115,0.133-0.18,0.219c-0.017,0.021-0.037,0.048-0.058,0.075c-0.159-0.16-0.407-0.658-0.407-1.444
			C5.998,12.697,6.251,12.215,6.421,12.067z"/>
	</g>
</g>
<g id="Hipster_Girl">
</g>
<g id="Worker">
</g>
<g id="Old_Man">
</g>
<g id="Punk">
</g>
<g id="Diver">
</g>
<g id="Artist">
</g>
<g id="Dictator">
</g>
<g id="Man_Hat">
</g>
<g id="Woman_Hat">
</g>
<g id="Graduated_Man">
</g>
<g id="Graduated_Woman">
</g>
<g id="Avatar_Chef">
</g>
<g id="Waiter">
</g>
<g id="Waitress">
</g>
<g id="Bllboy">
</g>
<g id="Santa">
</g>
<g id="Doctor">
</g>
<g id="Nurse">
</g>
<g id="Captain">
</g>
<g id="Farmer">
</g>
<g id="Maid">
</g>
<g id="Business_Man_2">
</g>
<g id="Business_Woman_2">
</g>
<g id="Cowboy">
</g>
<g id="Anonymus">
</g>
<g id="Batman">
</g>
<g id="Superman">
</g>
<g id="Captain_America">
</g>
<g id="Darth_Vader">
</g>
<g id="Harry_Potter">
</g>
<g id="Anonymus_2">
</g>
<g id="Scream">
</g>
<g id="Jason">
</g>
<g id="Charlie_Chaplin">
</g>
</svg>
