<?xml version="1.0" encoding="iso-8859-1"?>
<!-- Generator: Adobe Illustrator 19.2.1, SVG Export Plug-In . SVG Version: 6.00 Build 0)  -->
<svg version="1.1" xmlns="http://www.w3.org/2000/svg" xmlns:xlink="http://www.w3.org/1999/xlink" x="0px" y="0px"
	 viewBox="0 0 24 24" style="enable-background:new 0 0 24 24;" xml:space="preserve">
<g id="Man_1">
</g>
<g id="Woman_1">
</g>
<g id="Man_2">
</g>
<g id="Woman_2">
</g>
<g id="Bald_Man">
</g>
<g id="Man_Glasses">
</g>
<g id="Woman_Glasses">
</g>
<g id="Man_Beard">
</g>
<g id="Man_Cap">
</g>
<g id="Woman_Cap">
</g>
<g id="Man_3">
</g>
<g id="Woman_3">
</g>
<g id="Men_4">
</g>
<g id="Woman_4">
</g>
<g id="Business_Man_1">
</g>
<g id="Business_Woman_1">
</g>
<g id="Firefigyhter">
</g>
<g id="Policeman">
</g>
<g id="Criminal">
</g>
<g id="Prisoner">
</g>
<g id="Woodsman">
</g>
<g id="Dispatcher_1">
</g>
<g id="Dispatcher_2">
</g>
<g id="Soldier">
</g>
<g id="Astronaut">
</g>
<g id="Hipster_Guy">
</g>
<g id="Hipster_Girl">
	<g>
		<path d="M12,0C5.383,0,0,5.383,0,12c0,3.33,1.365,6.345,3.563,8.521c0.055,0.104,0.14,0.174,0.241,0.219
			c1.93,1.811,4.453,2.991,7.247,3.212C11.341,23.981,11.635,24,11.933,24c0.013,0,0.025-0.001,0.037-0.002
			C11.98,23.998,11.99,24,12,24c0.099,0,0.195-0.012,0.293-0.015c0.137-0.006,0.275-0.009,0.411-0.021
			C18.993,23.597,24,18.379,24,12C24,5.383,18.617,0,12,0z M19.827,19.717c-0.076-0.03-0.15-0.063-0.227-0.09l-0.39-0.135
			C18.513,20.148,15.299,23,12,23c-3.344,0-6.575-2.904-7.23-3.527l-0.442,0.154c-0.059,0.021-0.116,0.047-0.174,0.069
			C2.206,17.71,1,14.995,1,12C1,5.935,5.935,1,12,1s11,4.935,11,11C23,15.005,21.786,17.73,19.827,19.717z"/>
		<path d="M18.984,13.759c0-0.001-0.001-0.002-0.001-0.003c0.005-0.085,0.015-0.168,0.015-0.256c0-0.783-0.199-1.451-0.516-1.902
			C19.717,10.864,20,10.066,20,9.5c0-0.957-0.797-1.799-2.124-2.418C17.351,4.738,14.903,3,12,3C9.102,3,6.648,4.739,6.123,7.082
			C4.797,7.702,4,8.543,4,9.5c0,0.566,0.283,1.363,1.515,2.096c-0.318,0.451-0.517,1.12-0.517,1.904c0,0.093,0.01,0.179,0.015,0.269
			c-0.16,1.818-0.957,3.498-0.964,3.514c-0.06,0.125-0.065,0.27-0.015,0.398c0.051,0.129,0.152,0.231,0.281,0.283
			c0.071,0.028,1.282,0.505,2.383,0.802c-0.108,0.059-0.219,0.112-0.336,0.153L5.85,19.098C6.902,20.01,9.482,22,12,22
			c2.495,0,5.061-1.964,6.129-2.885l-0.563-0.196c-0.108-0.038-0.21-0.087-0.31-0.14c1.112-0.296,2.356-0.786,2.428-0.815
			c0.129-0.052,0.23-0.154,0.281-0.283c0.05-0.129,0.045-0.273-0.015-0.398C19.942,17.267,19.143,15.581,18.984,13.759z
			 M13.665,20.739c-0.075,0.024-0.176,0.054-0.278,0.081c-0.165,0.04-0.306,0.07-0.448,0.094C12.603,20.971,12.292,21,11.998,21
			s-0.604-0.029-0.949-0.088c-0.132-0.021-0.272-0.052-0.413-0.085c-0.126-0.032-0.229-0.063-0.332-0.096
			c-1.06-0.313-2.021-0.943-2.836-1.787c0.152,0.027,0.298,0.048,0.424,0.055C7.901,19,7.912,19,7.921,19
			c0.263,0,0.483-0.205,0.499-0.471c0.001-0.012-0.005-0.023-0.005-0.035c0.647,0.601,1.388,1.046,2.188,1.282
			c0.085,0.027,0.171,0.053,0.264,0.077c0.117,0.028,0.234,0.054,0.351,0.073C11.474,19.971,11.733,20,11.999,20
			c0.265,0,0.524-0.029,0.777-0.073c0.12-0.02,0.237-0.045,0.36-0.075c0.087-0.022,0.173-0.048,0.246-0.071
			c0.808-0.239,1.554-0.687,2.204-1.291c0,0.014-0.007,0.026-0.006,0.04C15.596,18.795,15.816,19,16.079,19
			c0.01,0,0.02,0,0.029-0.001c0.124-0.007,0.268-0.029,0.417-0.054C15.706,19.79,14.739,20.422,13.665,20.739z M17.504,15
			c-0.001,0-0.036-0.01-0.1-0.075c-0.122-0.124-0.302-0.175-0.468-0.138c-0.17,0.039-0.307,0.163-0.363,0.327
			c-0.634,1.866-1.933,3.252-3.488,3.711c-0.065,0.021-0.13,0.041-0.191,0.056c-0.093,0.022-0.186,0.044-0.284,0.06
			c-0.402,0.068-0.819,0.068-1.228,0c-0.095-0.016-0.188-0.037-0.274-0.058c-0.066-0.017-0.132-0.036-0.209-0.062
			c-1.542-0.455-2.841-1.841-3.475-3.707c-0.056-0.164-0.193-0.288-0.362-0.326c-0.169-0.04-0.347,0.013-0.468,0.137
			C6.531,14.988,6.496,15,6.498,15c-0.125-0.001-0.5-0.533-0.5-1.5c0-0.968,0.375-1.5,0.5-1.5c0.287,0,0.693,0.213,0.921,0.368
			l0.602,0.821C8.118,14.203,8.963,15,10.001,15c1.103,0,2-0.897,2-2c0,1.103,0.897,2,2,2c1.039,0,1.885-0.798,1.982-1.812
			l0.598-0.82C16.807,12.212,17.211,12,17.498,12c0.124,0,0.5,0.532,0.5,1.5S17.622,15,17.504,15z M14.001,11
			c-0.737,0-1.375,0.405-1.722,1h-0.556c-0.347-0.595-0.985-1-1.722-1c-0.702,0-1.319,0.365-1.675,0.914l-0.029-0.04
			c0.089-0.549,0.258-1.109,0.393-1.269c0.642-0.019,1.986-0.292,2.617-1.247c0.805,0.777,2.309,1.584,4.051,1.706
			c0.053,0.271,0.141,0.519,0.223,0.722C15.215,11.312,14.647,11,14.001,11z M15.001,13c0,0.551-0.449,1-1,1s-1-0.449-1-1
			s0.449-1,1-1S15.001,12.449,15.001,13z M11.001,13c0,0.551-0.449,1-1,1s-1-0.449-1-1s0.449-1,1-1S11.001,12.449,11.001,13z
			 M17.728,9.546c-0.001-0.002-0.003-0.003-0.004-0.006c-0.001-0.002,0-0.003-0.001-0.005C17.182,8.324,13.871,8,12,8
			C9.713,8,7.182,8.41,6.439,9.31C6.413,9.331,6.392,9.357,6.37,9.385c-0.011,0.016-0.033,0.03-0.043,0.047
			c-0.006,0.01-0.006,0.021-0.011,0.031C6.31,9.474,6.301,9.481,6.296,9.492c-0.151,0.349-0.28,0.747-0.402,1.16
			C5.325,10.283,5,9.878,5,9.5C5,8.317,7.875,7,12,7c2.114,0,3.896,0.347,5.135,0.844c0.072,0.062,0.163,0.097,0.26,0.11
			C18.413,8.408,19,8.967,19,9.5c0,0.378-0.325,0.782-0.893,1.152C17.99,10.259,17.868,9.881,17.728,9.546z"/>
	</g>
</g>
<g id="Worker">
</g>
<g id="Old_Man">
</g>
<g id="Punk">
</g>
<g id="Diver">
</g>
<g id="Artist">
</g>
<g id="Dictator">
</g>
<g id="Man_Hat">
</g>
<g id="Woman_Hat">
</g>
<g id="Graduated_Man">
</g>
<g id="Graduated_Woman">
</g>
<g id="Avatar_Chef">
</g>
<g id="Waiter">
</g>
<g id="Waitress">
</g>
<g id="Bllboy">
</g>
<g id="Santa">
</g>
<g id="Doctor">
</g>
<g id="Nurse">
</g>
<g id="Captain">
</g>
<g id="Farmer">
</g>
<g id="Maid">
</g>
<g id="Business_Man_2">
</g>
<g id="Business_Woman_2">
</g>
<g id="Cowboy">
</g>
<g id="Anonymus">
</g>
<g id="Batman">
</g>
<g id="Superman">
</g>
<g id="Captain_America">
</g>
<g id="Darth_Vader">
</g>
<g id="Harry_Potter">
</g>
<g id="Anonymus_2">
</g>
<g id="Scream">
</g>
<g id="Jason">
</g>
<g id="Charlie_Chaplin">
</g>
</svg>
