<?xml version="1.0" encoding="iso-8859-1"?>
<!-- Generator: Adobe Illustrator 19.2.1, SVG Export Plug-In . SVG Version: 6.00 Build 0)  -->
<svg version="1.1" xmlns="http://www.w3.org/2000/svg" xmlns:xlink="http://www.w3.org/1999/xlink" x="0px" y="0px"
	 viewBox="0 0 24 24" style="enable-background:new 0 0 24 24;" xml:space="preserve">
<g id="Man_1">
</g>
<g id="Woman_1">
</g>
<g id="Man_2">
</g>
<g id="Woman_2">
</g>
<g id="Bald_Man">
</g>
<g id="Man_Glasses">
</g>
<g id="Woman_Glasses">
</g>
<g id="Man_Beard">
</g>
<g id="Man_Cap">
</g>
<g id="Woman_Cap">
</g>
<g id="Man_3">
</g>
<g id="Woman_3">
</g>
<g id="Men_4">
</g>
<g id="Woman_4">
</g>
<g id="Business_Man_1">
</g>
<g id="Business_Woman_1">
</g>
<g id="Firefigyhter">
</g>
<g id="Policeman">
</g>
<g id="Criminal">
</g>
<g id="Prisoner">
</g>
<g id="Woodsman">
</g>
<g id="Dispatcher_1">
</g>
<g id="Dispatcher_2">
</g>
<g id="Soldier">
</g>
<g id="Astronaut">
</g>
<g id="Hipster_Guy">
</g>
<g id="Hipster_Girl">
</g>
<g id="Worker">
</g>
<g id="Old_Man">
</g>
<g id="Punk">
</g>
<g id="Diver">
</g>
<g id="Artist">
</g>
<g id="Dictator">
</g>
<g id="Man_Hat">
</g>
<g id="Woman_Hat">
</g>
<g id="Graduated_Man">
</g>
<g id="Graduated_Woman">
</g>
<g id="Avatar_Chef">
</g>
<g id="Waiter">
</g>
<g id="Waitress">
</g>
<g id="Bllboy">
</g>
<g id="Santa">
</g>
<g id="Doctor">
</g>
<g id="Nurse">
</g>
<g id="Captain">
</g>
<g id="Farmer">
</g>
<g id="Maid">
</g>
<g id="Business_Man_2">
</g>
<g id="Business_Woman_2">
</g>
<g id="Cowboy">
</g>
<g id="Anonymus">
</g>
<g id="Batman">
</g>
<g id="Superman">
</g>
<g id="Captain_America">
</g>
<g id="Darth_Vader">
</g>
<g id="Harry_Potter">
</g>
<g id="Anonymus_2">
</g>
<g id="Scream">
</g>
<g id="Jason">
	<g>
		<path d="M12,20c3.309,0,6-3.477,6-7.75V10c0-3.309-2.691-6-6-6s-6,2.691-6,6v2.25C6,16.523,8.691,20,12,20z M7,10
			c0-2.757,2.243-5,5-5s5,2.243,5,5v2.25c0,3.722-2.243,6.75-5,6.75s-5-3.028-5-6.75V10z"/>
		<path d="M17.016,18.34C15.743,19.978,13.966,21,12,21c-1.979,0-3.766-1.037-5.04-2.694c-0.186,0.129-0.382,0.241-0.597,0.316
			L5.823,18.81C7.549,20.013,10.746,22,12,22c1.241,0,4.418-1.969,6.152-3.174l-0.585-0.204
			C17.369,18.554,17.189,18.453,17.016,18.34z"/>
		<path d="M12,0C5.383,0,0,5.383,0,12s5.383,12,12,12s12-5.383,12-12S18.617,0,12,0z M20.025,19.499
			c-0.14-0.06-0.279-0.118-0.426-0.17l-0.294-0.102C18.088,20.108,13.875,23,12,23c-1.898,0-6.146-2.93-7.329-3.789L4.328,19.33
			c-0.127,0.044-0.249,0.096-0.372,0.148C2.128,17.513,1,14.889,1,12C1,5.935,5.935,1,12,1s11,4.935,11,11
			C23,14.899,21.864,17.532,20.025,19.499z"/>
		<circle cx="12" cy="14" r="0.5"/>
		<circle cx="10.5" cy="15.5" r="0.5"/>
		<circle cx="8.5" cy="14.5" r="0.5"/>
		<circle cx="10.5" cy="17.5" r="0.5"/>
		<circle cx="13.5" cy="15.5" r="0.5"/>
		<circle cx="15.5" cy="14.5" r="0.5"/>
		<circle cx="13.5" cy="17.5" r="0.5"/>
		<circle cx="10.5" cy="6.5" r="0.5"/>
		<circle cx="9.5" cy="8.5" r="0.5"/>
		<circle cx="13.5" cy="6.5" r="0.5"/>
		<circle cx="14.5" cy="8.5" r="0.5"/>
		<path d="M9.5,13c0.827,0,1.5-0.673,1.5-1.5c0-0.298-0.09-0.538-0.266-0.713c-0.296-0.294-0.707-0.29-1.105-0.288L9.5,10.5
			l-0.129-0.001c-0.4-0.001-0.81-0.006-1.105,0.288C8.09,10.962,8,11.202,8,11.5C8,12.327,8.673,13,9.5,13z M9.363,11.499L9.5,11.5
			l0.137-0.001c0.112-0.001,0.269-0.003,0.363,0.01C9.995,11.78,9.772,12,9.5,12c-0.258,0-0.471-0.196-0.493-0.492
			C9.103,11.496,9.255,11.499,9.363,11.499z"/>
		<path d="M14.5,10.5l-0.129-0.001c-0.401-0.001-0.81-0.006-1.105,0.288C13.09,10.962,13,11.202,13,11.5c0,0.827,0.673,1.5,1.5,1.5
			s1.5-0.673,1.5-1.5c0-0.298-0.09-0.538-0.266-0.713c-0.296-0.294-0.708-0.29-1.105-0.288L14.5,10.5z M15,11.509
			C14.995,11.78,14.772,12,14.5,12c-0.258,0-0.471-0.196-0.493-0.492c0.096-0.012,0.247-0.009,0.356-0.009L14.5,11.5l0.137-0.001
			C14.75,11.498,14.906,11.496,15,11.509z"/>
		<path d="M10.553,9.276c-0.123,0.247-0.023,0.547,0.224,0.671l1,0.5C11.847,10.482,11.924,10.5,12,10.5s0.153-0.018,0.224-0.053
			l1-0.5c0.247-0.124,0.347-0.424,0.224-0.671c-0.124-0.247-0.424-0.348-0.671-0.224L12,9.441l-0.776-0.389
			C10.977,8.93,10.678,9.03,10.553,9.276z"/>
	</g>
</g>
<g id="Charlie_Chaplin">
</g>
</svg>
