<?xml version="1.0" encoding="iso-8859-1"?>
<!-- Generator: Adobe Illustrator 19.2.1, SVG Export Plug-In . SVG Version: 6.00 Build 0)  -->
<svg version="1.1" xmlns="http://www.w3.org/2000/svg" xmlns:xlink="http://www.w3.org/1999/xlink" x="0px" y="0px"
	 viewBox="0 0 24 24" style="enable-background:new 0 0 24 24;" xml:space="preserve">
<g id="Man_1">
</g>
<g id="Woman_1">
</g>
<g id="Man_2">
</g>
<g id="Woman_2">
</g>
<g id="Bald_Man">
</g>
<g id="Man_Glasses">
</g>
<g id="Woman_Glasses">
</g>
<g id="Man_Beard">
</g>
<g id="Man_Cap">
	<g>
		<path d="M9.5,13h1c0.276,0,0.5-0.224,0.5-0.5S10.776,12,10.5,12h-1C9.224,12,9,12.224,9,12.5S9.224,13,9.5,13z"/>
		<path d="M13.5,13h1c0.276,0,0.5-0.224,0.5-0.5S14.776,12,14.5,12h-1c-0.276,0-0.5,0.224-0.5,0.5S13.224,13,13.5,13z"/>
		<path d="M6.498,16c0.055,0,0.117-0.005,0.186-0.018c0.798,1.897,2.235,3.298,3.922,3.795c0.085,0.027,0.169,0.053,0.262,0.076
			c0.117,0.028,0.234,0.054,0.351,0.073C11.474,19.97,11.733,20,11.998,20c0.266,0,0.525-0.03,0.778-0.073
			c0.119-0.02,0.236-0.045,0.36-0.075c0.085-0.022,0.169-0.047,0.245-0.071c1.694-0.5,3.133-1.9,3.932-3.798
			C17.381,15.995,17.443,16,17.498,16c0.855,0,1.5-1.075,1.5-2.5c0-1.152-0.421-2.075-1.044-2.386
			c-0.04-0.458-0.122-0.893-0.224-1.314c0.031-0.038,0.072-0.065,0.091-0.112c0.021-0.051,0.5-1.263-0.21-2.317
			c-0.212-0.316-0.508-0.574-0.876-0.781C15.647,4.898,13.967,4,11.858,4C7.642,4,6.296,7.381,5.869,9.396
			C5.867,9.409,5.874,9.421,5.873,9.433C5.867,9.477,5.879,9.516,5.885,9.559c0.008,0.062,0.016,0.12,0.046,0.174
			c0.007,0.014,0.003,0.03,0.011,0.043c0.038,0.057,0.087,0.1,0.142,0.136c0.004,0.003,0.005,0.008,0.01,0.011
			C6.102,9.929,6.112,9.927,6.12,9.931c0.033,0.018,0.065,0.035,0.1,0.046c-0.079,0.365-0.142,0.74-0.177,1.131
			c-0.618,0.306-1.045,1.233-1.045,2.392C4.998,14.925,5.643,16,6.498,16z M16.991,8.857c-0.937-0.284-2.965-0.819-4.95-0.851
			C12.018,8.004,11.994,8,11.97,8.001l-0.028,0.002C11.914,8.003,11.886,8,11.858,8c-0.106,0-0.213,0.008-0.319,0.011
			C11.515,8.009,11.493,8,11.468,8.001l-0.372,0.024c-0.002,0-0.004,0.001-0.006,0.002C10.313,8.075,9.552,8.19,8.864,8.326
			L8.73,8.342c0.425-0.239,0.916-0.474,1.466-0.681c0.08-0.028,0.16-0.06,0.241-0.086c0.012-0.004,0.026-0.008,0.038-0.012
			c1.073-0.338,2.146-0.487,3.023-0.55C13.618,7.009,13.735,7,13.858,7c1.498,0,2.507,0.319,2.919,0.922
			C16.988,8.231,17.016,8.584,16.991,8.857z M6.514,12.003c0.308,0.008,0.749,0.247,0.96,0.401C7.561,12.467,7.665,12.5,7.77,12.5
			c0.067,0,0.135-0.014,0.198-0.041c0.162-0.07,0.275-0.221,0.298-0.396c0.075-0.603,0.274-1.278,0.424-1.456
			c0.643-0.019,1.993-0.285,2.624-1.24c0.807,0.775,2.308,1.577,4.045,1.699c0.116,0.593,0.396,1.108,0.436,1.179
			c0.07,0.125,0.19,0.214,0.33,0.245c0.035,0.007,0.071,0.011,0.106,0.011c0.105,0,0.21-0.033,0.297-0.097
			C16.739,12.247,17.19,12,17.498,12c0.124,0,0.5,0.532,0.5,1.5c0,0.968-0.376,1.5-0.494,1.5c-0.001,0-0.036-0.01-0.1-0.075
			c-0.122-0.125-0.302-0.176-0.468-0.138c-0.17,0.039-0.307,0.163-0.363,0.327c-0.634,1.866-1.934,3.252-3.482,3.709
			c-0.068,0.021-0.135,0.042-0.195,0.057c-0.094,0.023-0.188,0.044-0.284,0.06c-0.402,0.068-0.82,0.069-1.229-0.001
			c-0.096-0.015-0.188-0.036-0.275-0.058c-0.067-0.017-0.134-0.037-0.209-0.061c-1.543-0.456-2.842-1.841-3.475-3.707
			c-0.056-0.165-0.192-0.288-0.362-0.327c-0.17-0.039-0.345,0.013-0.468,0.136C6.531,14.988,6.496,15,6.498,15
			c-0.125-0.001-0.5-0.533-0.5-1.5C5.998,12.539,6.368,12.009,6.514,12.003z"/>
		<path d="M24,12c0-6.617-5.383-12-12-12S0,5.383,0,12c0,3.329,1.365,6.345,3.562,8.521c0.054,0.104,0.14,0.174,0.24,0.219
			c1.93,1.812,4.453,2.992,7.248,3.213C11.341,23.981,11.635,24,11.933,24c0.013,0,0.025-0.001,0.037-0.002
			C11.98,23.998,11.99,24,12,24c0.099,0,0.195-0.012,0.293-0.015c0.137-0.006,0.275-0.009,0.411-0.021
			C18.993,23.597,24,18.379,24,12z M12,1c6.065,0,11,4.935,11,11c0,3.005-1.214,5.73-3.173,7.717c-0.076-0.03-0.15-0.063-0.227-0.09
			l-2.033-0.707c-0.242-0.084-0.462-0.212-0.666-0.365c-0.887,1.053-1.997,1.819-3.235,2.185c-0.075,0.024-0.176,0.054-0.278,0.081
			c-0.165,0.04-0.306,0.07-0.448,0.094C12.603,20.971,12.292,21,11.998,21s-0.604-0.029-0.949-0.088
			c-0.132-0.021-0.272-0.052-0.413-0.085c-0.126-0.032-0.229-0.063-0.332-0.096c-1.234-0.364-2.346-1.139-3.234-2.206
			c-0.215,0.167-0.449,0.305-0.708,0.394l-2.034,0.707c-0.059,0.021-0.116,0.047-0.174,0.069C2.206,17.71,1,14.995,1,12
			C1,5.935,5.935,1,12,1z"/>
	</g>
</g>
<g id="Woman_Cap">
</g>
<g id="Man_3">
</g>
<g id="Woman_3">
</g>
<g id="Men_4">
</g>
<g id="Woman_4">
</g>
<g id="Business_Man_1">
</g>
<g id="Business_Woman_1">
</g>
<g id="Firefigyhter">
</g>
<g id="Policeman">
</g>
<g id="Criminal">
</g>
<g id="Prisoner">
</g>
<g id="Woodsman">
</g>
<g id="Dispatcher_1">
</g>
<g id="Dispatcher_2">
</g>
<g id="Soldier">
</g>
<g id="Astronaut">
</g>
<g id="Hipster_Guy">
</g>
<g id="Hipster_Girl">
</g>
<g id="Worker">
</g>
<g id="Old_Man">
</g>
<g id="Punk">
</g>
<g id="Diver">
</g>
<g id="Artist">
</g>
<g id="Dictator">
</g>
<g id="Man_Hat">
</g>
<g id="Woman_Hat">
</g>
<g id="Graduated_Man">
</g>
<g id="Graduated_Woman">
</g>
<g id="Avatar_Chef">
</g>
<g id="Waiter">
</g>
<g id="Waitress">
</g>
<g id="Bllboy">
</g>
<g id="Santa">
</g>
<g id="Doctor">
</g>
<g id="Nurse">
</g>
<g id="Captain">
</g>
<g id="Farmer">
</g>
<g id="Maid">
</g>
<g id="Business_Man_2">
</g>
<g id="Business_Woman_2">
</g>
<g id="Cowboy">
</g>
<g id="Anonymus">
</g>
<g id="Batman">
</g>
<g id="Superman">
</g>
<g id="Captain_America">
</g>
<g id="Darth_Vader">
</g>
<g id="Harry_Potter">
</g>
<g id="Anonymus_2">
</g>
<g id="Scream">
</g>
<g id="Jason">
</g>
<g id="Charlie_Chaplin">
</g>
</svg>
