<?xml version="1.0" encoding="iso-8859-1"?>
<!-- Generator: Adobe Illustrator 19.2.1, SVG Export Plug-In . SVG Version: 6.00 Build 0)  -->
<svg version="1.1" xmlns="http://www.w3.org/2000/svg" xmlns:xlink="http://www.w3.org/1999/xlink" x="0px" y="0px"
	 viewBox="0 0 24 24" style="enable-background:new 0 0 24 24;" xml:space="preserve">
<g id="Man_1">
	<path d="M24,12c0-6.617-5.383-12-12-12S0,5.383,0,12s5.383,12,12,12c3.155,0,6.021-1.233,8.165-3.231l0.024-0.01
		c0.11-0.044,0.186-0.13,0.24-0.23C22.631,18.353,24,15.334,24,12z M1,12C1,5.935,5.935,1,12,1s11,4.935,11,11
		c0,2.995-1.207,5.711-3.155,7.697c-0.06-0.023-0.117-0.049-0.177-0.071l-2.033-0.707c-0.2-0.069-1.398-0.638-2.371-1.106
		c0.6-0.85,1.17-1.889,1.554-2.831C16.884,14.995,16.946,15,17,15c0.855,0,1.5-1.075,1.5-2.5c0-1.169-0.406-2.08-1.024-2.388
		C17.17,6.276,15.142,4,12,4c-3.13,0-5.151,2.275-5.457,6.109C5.925,10.417,5.5,11.343,5.5,12.5C5.5,13.925,6.145,15,7,15
		c0.053,0,0.114-0.004,0.179-0.017c0.399,1.005,0.955,2.023,1.549,2.841c-0.945,0.466-2.102,1.027-2.298,1.096l-1.758,0.611
		c-0.009-0.003-0.018-0.006-0.026-0.009c-0.146-0.044-0.302-0.021-0.428,0.065l-0.101,0.069C2.192,17.674,1,14.975,1,12z"/>
</g>
<g id="Woman_1">
</g>
<g id="Man_2">
</g>
<g id="Woman_2">
</g>
<g id="Bald_Man">
</g>
<g id="Man_Glasses">
</g>
<g id="Woman_Glasses">
</g>
<g id="Man_Beard">
</g>
<g id="Man_Cap">
</g>
<g id="Woman_Cap">
</g>
<g id="Man_3">
</g>
<g id="Woman_3">
</g>
<g id="Men_4">
</g>
<g id="Woman_4">
</g>
<g id="Business_Man_1">
</g>
<g id="Business_Woman_1">
</g>
<g id="Firefigyhter">
</g>
<g id="Policeman">
</g>
<g id="Criminal">
</g>
<g id="Prisoner">
</g>
<g id="Woodsman">
</g>
<g id="Dispatcher_1">
</g>
<g id="Dispatcher_2">
</g>
<g id="Soldier">
</g>
<g id="Astronaut">
</g>
<g id="Hipster_Guy">
</g>
<g id="Hipster_Girl">
</g>
<g id="Worker">
</g>
<g id="Old_Man">
</g>
<g id="Punk">
</g>
<g id="Diver">
</g>
<g id="Artist">
</g>
<g id="Dictator">
</g>
<g id="Man_Hat">
</g>
<g id="Woman_Hat">
</g>
<g id="Graduated_Man">
</g>
<g id="Graduated_Woman">
</g>
<g id="Avatar_Chef">
</g>
<g id="Waiter">
</g>
<g id="Waitress">
</g>
<g id="Bllboy">
</g>
<g id="Santa">
</g>
<g id="Doctor">
</g>
<g id="Nurse">
</g>
<g id="Captain">
</g>
<g id="Farmer">
</g>
<g id="Maid">
</g>
<g id="Business_Man_2">
</g>
<g id="Business_Woman_2">
</g>
<g id="Cowboy">
</g>
<g id="Anonymus">
</g>
<g id="Batman">
</g>
<g id="Superman">
</g>
<g id="Captain_America">
</g>
<g id="Darth_Vader">
</g>
<g id="Harry_Potter">
</g>
<g id="Anonymus_2">
</g>
<g id="Scream">
</g>
<g id="Jason">
</g>
<g id="Charlie_Chaplin">
</g>
</svg>
