<?xml version="1.0" encoding="iso-8859-1"?>
<!-- Generator: Adobe Illustrator 19.2.1, SVG Export Plug-In . SVG Version: 6.00 Build 0)  -->
<svg version="1.1" xmlns="http://www.w3.org/2000/svg" xmlns:xlink="http://www.w3.org/1999/xlink" x="0px" y="0px"
	 viewBox="0 0 24 24" style="enable-background:new 0 0 24 24;" xml:space="preserve">
<g id="Man_1">
</g>
<g id="Woman_1">
</g>
<g id="Man_2">
</g>
<g id="Woman_2">
</g>
<g id="Bald_Man">
</g>
<g id="Man_Glasses">
</g>
<g id="Woman_Glasses">
</g>
<g id="Man_Beard">
</g>
<g id="Man_Cap">
</g>
<g id="Woman_Cap">
</g>
<g id="Man_3">
</g>
<g id="Woman_3">
</g>
<g id="Men_4">
</g>
<g id="Woman_4">
</g>
<g id="Business_Man_1">
</g>
<g id="Business_Woman_1">
</g>
<g id="Firefigyhter">
</g>
<g id="Policeman">
</g>
<g id="Criminal">
</g>
<g id="Prisoner">
</g>
<g id="Woodsman">
</g>
<g id="Dispatcher_1">
</g>
<g id="Dispatcher_2">
</g>
<g id="Soldier">
</g>
<g id="Astronaut">
</g>
<g id="Hipster_Guy">
</g>
<g id="Hipster_Girl">
</g>
<g id="Worker">
</g>
<g id="Old_Man">
</g>
<g id="Punk">
</g>
<g id="Diver">
</g>
<g id="Artist">
</g>
<g id="Dictator">
</g>
<g id="Man_Hat">
	<g>
		<path d="M24,12c0-6.617-5.383-12-12-12S0,5.383,0,12c0,3.333,1.368,6.351,3.569,8.527c0.052,0.096,0.125,0.179,0.229,0.225
			l0.035,0.016c1.942,1.81,4.479,2.982,7.285,3.187C11.399,23.982,11.68,24,11.966,24c0.006,0,0.013-0.001,0.019-0.001
			C11.99,23.999,11.995,24,12,24c0.051,0,0.1-0.007,0.151-0.008c0.206-0.004,0.41-0.013,0.612-0.031C19.024,23.565,24,18.359,24,12z
			 M12,1c6.065,0,11,4.935,11,11c0,3.005-1.214,5.73-3.173,7.717c-0.076-0.03-0.15-0.063-0.227-0.091l-2.033-0.707
			c-0.242-0.084-0.462-0.213-0.667-0.365c-0.888,1.053-1.997,1.82-3.235,2.185c-0.07,0.023-0.175,0.054-0.281,0.081
			c-0.16,0.039-0.3,0.069-0.443,0.093C12.6,20.972,12.291,21,11.999,21c-0.293,0-0.604-0.029-0.95-0.088
			c-0.133-0.022-0.275-0.053-0.417-0.087c-0.124-0.032-0.227-0.063-0.33-0.095c-1.233-0.364-2.345-1.139-3.232-2.205
			c-0.215,0.167-0.449,0.305-0.708,0.394l-2.033,0.707c-0.06,0.021-0.116,0.047-0.175,0.07C2.206,17.71,1,14.995,1,12
			C1,5.935,5.935,1,12,1z"/>
		<path d="M6.144,10.443c-0.036,0.221-0.081,0.437-0.101,0.666c-0.619,0.307-1.044,1.233-1.044,2.392c0,1.425,0.645,2.5,1.5,2.5
			c0.055,0,0.117-0.005,0.185-0.018c0.798,1.898,2.236,3.298,3.922,3.795c0.084,0.027,0.169,0.052,0.261,0.076
			c0.117,0.028,0.234,0.054,0.351,0.073C11.474,19.97,11.733,20,11.999,20c0.265,0,0.524-0.03,0.777-0.073
			c0.12-0.02,0.237-0.046,0.36-0.076c0.086-0.022,0.171-0.047,0.246-0.071c1.694-0.5,3.133-1.901,3.932-3.798
			C17.381,15.995,17.444,16,17.499,16c0.855,0,1.5-1.075,1.5-2.5c0-1.152-0.421-2.075-1.044-2.387
			c-0.02-0.231-0.065-0.448-0.101-0.67C19.073,10.147,20,9.696,20,9c0-0.482-0.329-1.162-3.025-1.625
			c-0.047-0.747-0.191-1.44-0.643-2.018C15.608,4.431,14.232,4,12,4S8.392,4.431,7.668,5.356C7.216,5.935,7.072,6.627,7.025,7.375
			C4.329,7.838,4,8.518,4,9C4,9.696,4.925,10.146,6.144,10.443z M16.98,11.525C16.993,11.791,17.232,12,17.499,12
			c0.125,0,0.5,0.532,0.5,1.5S17.623,15,17.504,15c0,0-0.036-0.01-0.101-0.076c-0.121-0.124-0.298-0.177-0.468-0.137
			c-0.169,0.039-0.306,0.162-0.362,0.326c-0.634,1.866-1.933,3.252-3.485,3.71c-0.066,0.021-0.132,0.042-0.194,0.057
			c-0.093,0.022-0.186,0.043-0.284,0.06c-0.402,0.068-0.819,0.069-1.228-0.001c-0.095-0.015-0.188-0.036-0.274-0.057
			c-0.067-0.017-0.134-0.038-0.209-0.062c-1.542-0.455-2.841-1.841-3.476-3.707c-0.056-0.164-0.193-0.288-0.362-0.326
			c-0.168-0.041-0.346,0.013-0.468,0.137C6.531,14.988,6.496,15,6.498,15c-0.125-0.001-0.5-0.533-0.5-1.5
			c0-0.968,0.375-1.5,0.519-1.5c0.267,0,0.486-0.209,0.5-0.475c0.015-0.306,0.07-0.592,0.115-0.882C9.178,10.981,11.55,11,12,11
			c0.45,0,2.819-0.019,4.865-0.357C16.91,10.933,16.965,11.217,16.98,11.525z"/>
		<path d="M10.5,12h-1C9.224,12,9,12.224,9,12.5S9.224,13,9.5,13h1c0.276,0,0.5-0.224,0.5-0.5S10.776,12,10.5,12z"/>
		<path d="M13.5,13h1c0.276,0,0.5-0.224,0.5-0.5S14.776,12,14.5,12h-1c-0.276,0-0.5,0.224-0.5,0.5S13.224,13,13.5,13z"/>
	</g>
</g>
<g id="Woman_Hat">
</g>
<g id="Graduated_Man">
</g>
<g id="Graduated_Woman">
</g>
<g id="Avatar_Chef">
</g>
<g id="Waiter">
</g>
<g id="Waitress">
</g>
<g id="Bllboy">
</g>
<g id="Santa">
</g>
<g id="Doctor">
</g>
<g id="Nurse">
</g>
<g id="Captain">
</g>
<g id="Farmer">
</g>
<g id="Maid">
</g>
<g id="Business_Man_2">
</g>
<g id="Business_Woman_2">
</g>
<g id="Cowboy">
</g>
<g id="Anonymus">
</g>
<g id="Batman">
</g>
<g id="Superman">
</g>
<g id="Captain_America">
</g>
<g id="Darth_Vader">
</g>
<g id="Harry_Potter">
</g>
<g id="Anonymus_2">
</g>
<g id="Scream">
</g>
<g id="Jason">
</g>
<g id="Charlie_Chaplin">
</g>
</svg>
