<?xml version="1.0" encoding="iso-8859-1"?>
<!-- Generator: Adobe Illustrator 19.2.1, SVG Export Plug-In . SVG Version: 6.00 Build 0)  -->
<svg version="1.1" xmlns="http://www.w3.org/2000/svg" xmlns:xlink="http://www.w3.org/1999/xlink" x="0px" y="0px"
	 viewBox="0 0 24 24" style="enable-background:new 0 0 24 24;" xml:space="preserve">
<g id="Man_1">
</g>
<g id="Woman_1">
</g>
<g id="Man_2">
</g>
<g id="Woman_2">
</g>
<g id="Bald_Man">
</g>
<g id="Man_Glasses">
</g>
<g id="Woman_Glasses">
</g>
<g id="Man_Beard">
</g>
<g id="Man_Cap">
</g>
<g id="Woman_Cap">
</g>
<g id="Man_3">
</g>
<g id="Woman_3">
</g>
<g id="Men_4">
</g>
<g id="Woman_4">
</g>
<g id="Business_Man_1">
</g>
<g id="Business_Woman_1">
</g>
<g id="Firefigyhter">
</g>
<g id="Policeman">
</g>
<g id="Criminal">
</g>
<g id="Prisoner">
</g>
<g id="Woodsman">
</g>
<g id="Dispatcher_1">
</g>
<g id="Dispatcher_2">
</g>
<g id="Soldier">
</g>
<g id="Astronaut">
</g>
<g id="Hipster_Guy">
</g>
<g id="Hipster_Girl">
</g>
<g id="Worker">
</g>
<g id="Old_Man">
	<g>
		<path d="M24,12c0-6.617-5.383-12-12-12S0,5.383,0,12c0,3.333,1.368,6.351,3.57,8.528c0.052,0.096,0.125,0.179,0.229,0.225
			l0.035,0.015c1.942,1.81,4.479,2.982,7.286,3.188C11.399,23.982,11.68,24,11.966,24c0.006,0,0.013-0.001,0.019-0.001
			C11.99,23.999,11.995,24,12,24c0.051,0,0.1-0.007,0.151-0.008c0.206-0.004,0.41-0.013,0.612-0.031C19.024,23.565,24,18.359,24,12z
			 M12,1c6.065,0,11,4.935,11,11c0,3.005-1.214,5.73-3.173,7.717c-0.076-0.03-0.15-0.063-0.227-0.091l-2.033-0.707
			c-0.242-0.084-0.462-0.212-0.666-0.365c-0.887,1.053-1.997,1.819-3.235,2.185c-0.075,0.024-0.176,0.054-0.278,0.081
			c-0.165,0.04-0.306,0.07-0.448,0.094C12.603,20.971,12.292,21,11.998,21s-0.604-0.029-0.949-0.088
			c-0.132-0.021-0.272-0.052-0.413-0.085c-0.126-0.032-0.229-0.063-0.332-0.096c-1.234-0.364-2.346-1.139-3.234-2.206
			c-0.215,0.167-0.449,0.305-0.708,0.394l-2.033,0.707c-0.06,0.021-0.116,0.047-0.175,0.07C2.206,17.71,1,14.995,1,12
			C1,5.935,5.935,1,12,1z"/>
		<path d="M5.208,14.906c0.012,0.009,0.028,0.007,0.041,0.015C5.513,15.582,5.964,16,6.498,16c0.055,0,0.117-0.005,0.186-0.018
			c0.019,0.045,0.042,0.085,0.062,0.13c0.046,0.103,0.095,0.202,0.145,0.302c0.069,0.139,0.139,0.277,0.215,0.41
			c0.055,0.096,0.112,0.189,0.17,0.282c0.081,0.128,0.164,0.253,0.251,0.374c0.063,0.087,0.126,0.172,0.192,0.256
			c0.092,0.117,0.187,0.228,0.285,0.337c0.069,0.077,0.138,0.153,0.209,0.226c0.104,0.105,0.212,0.203,0.321,0.3
			c0.073,0.065,0.145,0.131,0.22,0.191c0.117,0.094,0.239,0.179,0.362,0.263c0.074,0.051,0.145,0.105,0.221,0.151
			c0.137,0.085,0.28,0.158,0.422,0.229c0.066,0.033,0.13,0.072,0.197,0.103c0.212,0.096,0.429,0.178,0.65,0.244
			c0.085,0.027,0.169,0.053,0.262,0.076c0.117,0.028,0.234,0.054,0.351,0.073C11.474,19.97,11.733,20,11.998,20
			c0.266,0,0.525-0.03,0.778-0.073c0.119-0.02,0.236-0.045,0.36-0.075c0.085-0.022,0.169-0.047,0.245-0.071
			c0.222-0.066,0.44-0.149,0.652-0.244c0.069-0.031,0.134-0.071,0.202-0.105c0.142-0.071,0.283-0.143,0.42-0.228
			c0.076-0.047,0.149-0.102,0.224-0.153c0.122-0.084,0.244-0.168,0.361-0.262c0.076-0.061,0.148-0.127,0.221-0.192
			c0.109-0.096,0.217-0.194,0.321-0.3c0.072-0.072,0.14-0.149,0.209-0.225c0.098-0.109,0.194-0.221,0.287-0.338
			c0.065-0.083,0.129-0.168,0.191-0.255c0.087-0.121,0.171-0.246,0.252-0.374c0.058-0.092,0.115-0.185,0.17-0.281
			c0.076-0.133,0.147-0.271,0.216-0.41c0.049-0.1,0.099-0.199,0.144-0.302c0.02-0.044,0.043-0.085,0.062-0.13
			C17.381,15.995,17.443,16,17.498,16c0.534,0,0.985-0.419,1.249-1.079c0.014-0.008,0.031-0.005,0.045-0.014
			C18.882,14.841,21,13.298,21,11.5c0-0.933-0.57-1.798-1.132-2.423c0.018-0.013,0.035-0.028,0.053-0.043
			c0.489-0.434,0.258-1.191,0.042-1.722C19.06,5.088,15.584,3,14,3c-1.008,0-1.648,0.228-2,0.41C11.648,3.228,11.008,3,10,3
			C8.416,3,4.94,5.088,4.037,7.312C3.821,7.843,3.59,8.6,4.079,9.034c0.018,0.015,0.035,0.03,0.053,0.043
			C3.57,9.702,3,10.567,3,11.5C3,13.298,5.118,14.841,5.208,14.906z M11,16.5c0-0.276,0.224-0.5,0.5-0.5h1
			c0.276,0,0.5,0.224,0.5,0.5S12.776,17,12.5,17h-1C11.224,17,11,16.776,11,16.5z M17.507,14.998l-0.014-0.082
			c-0.026-0.156-0.126-0.291-0.267-0.362c-0.142-0.072-0.309-0.073-0.45-0.001C15.882,15,15.478,15,14.5,15
			c-0.419,0-0.7-0.099-1.025-0.213C13.093,14.652,12.66,14.5,12,14.5s-1.093,0.152-1.475,0.287C10.2,14.901,9.919,15,9.401,15
			c-0.929,0.001-1.322,0.001-2.169-0.443c-0.143-0.075-0.31-0.076-0.452-0.006s-0.244,0.204-0.272,0.36l-0.015,0.085
			C6.365,14.984,6.006,14.463,6,13.521v-0.041C6.006,12.526,6.375,12,6.518,12c0.267,0,0.486-0.209,0.499-0.475
			C7.185,8.168,9.14,6,11.998,6c2.857,0,4.813,2.169,4.982,5.525C16.993,11.791,17.231,12,17.498,12c0.124,0,0.5,0.532,0.5,1.5
			C17.998,14.462,17.628,14.991,17.507,14.998z"/>
		<path d="M10.5,12h-1C9.224,12,9,12.224,9,12.5S9.224,13,9.5,13h1c0.276,0,0.5-0.224,0.5-0.5S10.776,12,10.5,12z"/>
		<path d="M14.5,12h-1c-0.276,0-0.5,0.224-0.5,0.5s0.224,0.5,0.5,0.5h1c0.276,0,0.5-0.224,0.5-0.5S14.776,12,14.5,12z"/>
		<path d="M10,10.5c0-0.276-0.224-0.5-0.5-0.5c-0.647,0-1.235,0.533-1.347,0.64c-0.199,0.191-0.205,0.508-0.014,0.707
			C8.237,11.449,8.369,11.5,8.5,11.5c0.125,0,0.249-0.046,0.347-0.14C8.974,11.239,9.306,11,9.5,11C9.776,11,10,10.776,10,10.5z"/>
		<path d="M14.5,10c-0.276,0-0.5,0.224-0.5,0.5s0.224,0.5,0.5,0.5c0.179,0,0.495,0.21,0.655,0.362
			c0.097,0.092,0.221,0.137,0.345,0.137c0.132,0,0.263-0.052,0.361-0.154c0.19-0.199,0.184-0.515-0.015-0.705
			C15.735,10.533,15.147,10,14.5,10z"/>
	</g>
</g>
<g id="Punk">
</g>
<g id="Diver">
</g>
<g id="Artist">
</g>
<g id="Dictator">
</g>
<g id="Man_Hat">
</g>
<g id="Woman_Hat">
</g>
<g id="Graduated_Man">
</g>
<g id="Graduated_Woman">
</g>
<g id="Avatar_Chef">
</g>
<g id="Waiter">
</g>
<g id="Waitress">
</g>
<g id="Bllboy">
</g>
<g id="Santa">
</g>
<g id="Doctor">
</g>
<g id="Nurse">
</g>
<g id="Captain">
</g>
<g id="Farmer">
</g>
<g id="Maid">
</g>
<g id="Business_Man_2">
</g>
<g id="Business_Woman_2">
</g>
<g id="Cowboy">
</g>
<g id="Anonymus">
</g>
<g id="Batman">
</g>
<g id="Superman">
</g>
<g id="Captain_America">
</g>
<g id="Darth_Vader">
</g>
<g id="Harry_Potter">
</g>
<g id="Anonymus_2">
</g>
<g id="Scream">
</g>
<g id="Jason">
</g>
<g id="Charlie_Chaplin">
</g>
</svg>
