<?xml version="1.0" encoding="iso-8859-1"?>
<!-- Generator: Adobe Illustrator 19.2.1, SVG Export Plug-In . SVG Version: 6.00 Build 0)  -->
<svg version="1.1" xmlns="http://www.w3.org/2000/svg" xmlns:xlink="http://www.w3.org/1999/xlink" x="0px" y="0px"
	 viewBox="0 0 24 24" style="enable-background:new 0 0 24 24;" xml:space="preserve">
<g id="Man_1">
</g>
<g id="Woman_1">
</g>
<g id="Man_2">
</g>
<g id="Woman_2">
</g>
<g id="Bald_Man">
</g>
<g id="Man_Glasses">
</g>
<g id="Woman_Glasses">
</g>
<g id="Man_Beard">
</g>
<g id="Man_Cap">
</g>
<g id="Woman_Cap">
</g>
<g id="Man_3">
</g>
<g id="Woman_3">
</g>
<g id="Men_4">
</g>
<g id="Woman_4">
</g>
<g id="Business_Man_1">
</g>
<g id="Business_Woman_1">
</g>
<g id="Firefigyhter">
</g>
<g id="Policeman">
	<g>
		<path d="M24,12c0-6.617-5.383-12-12-12S0,5.383,0,12c0,3.436,1.459,6.53,3.781,8.72c0.005,0.003,0.008,0.009,0.013,0.012
			c1.796,1.688,4.105,2.829,6.671,3.158c0.012,0.001,0.022,0.012,0.035,0.012c0.006,0,0.011-0.004,0.017-0.004
			C11.004,23.959,11.497,24,12,24s0.996-0.041,1.483-0.102c0.006,0,0.011,0.004,0.017,0.004c0.012,0,0.022-0.011,0.035-0.012
			c2.565-0.33,4.875-1.47,6.671-3.158c0.001-0.001,0.002-0.002,0.003-0.003C22.536,18.539,24,15.441,24,12z M10.946,22.947
			l-0.271-2.112c-0.013-0.003-0.026-0.005-0.039-0.008c-0.126-0.032-0.229-0.063-0.332-0.096c-1.228-0.363-2.335-1.132-3.221-2.191
			c-0.209,0.16-0.436,0.292-0.686,0.379l-2.033,0.707c-0.068,0.024-0.133,0.054-0.2,0.08C2.21,17.72,1,15,1,12C1,5.935,5.935,1,12,1
			s11,4.935,11,11c0,3-1.21,5.721-3.164,7.707c-0.068-0.026-0.133-0.056-0.202-0.081l-2.033-0.707
			c-0.25-0.087-0.478-0.22-0.688-0.38c-0.889,1.061-2.004,1.833-3.248,2.2c-0.075,0.024-0.176,0.054-0.278,0.081
			c-0.023,0.005-0.04,0.008-0.062,0.013l-0.271,2.114C12.707,22.98,12.356,23,12,23S11.293,22.98,10.946,22.947z"/>
		<path d="M10.5,12h-1C9.224,12,9,12.224,9,12.5S9.224,13,9.5,13h1c0.276,0,0.5-0.224,0.5-0.5S10.776,12,10.5,12z"/>
		<path d="M13.5,13h1c0.276,0,0.5-0.224,0.5-0.5S14.776,12,14.5,12h-1c-0.276,0-0.5,0.224-0.5,0.5S13.224,13,13.5,13z"/>
		<path d="M13.137,19.852c0.085-0.022,0.169-0.047,0.245-0.071c1.694-0.5,3.133-1.9,3.932-3.798C17.381,15.995,17.443,16,17.498,16
			c0.855,0,1.5-1.075,1.5-2.5c0-1.14-0.412-2.055-1.024-2.376c-0.023-0.762-0.129-1.446-0.292-2.069
			C17.697,9.037,17.72,9.018,17.735,9H17.67h-1.013H7.343H6.328H6.265C6.28,9.017,6.302,9.036,6.317,9.053
			c-0.164,0.622-0.271,1.305-0.294,2.065c-0.608,0.316-1.025,1.235-1.025,2.382c0,1.425,0.645,2.5,1.5,2.5
			c0.055,0,0.117-0.005,0.186-0.018c0.798,1.897,2.235,3.298,3.922,3.795c0.085,0.027,0.169,0.053,0.262,0.076
			c0.117,0.028,0.234,0.054,0.351,0.073C11.474,19.97,11.733,20,11.998,20c0.266,0,0.525-0.03,0.778-0.073
			C12.896,19.907,13.013,19.881,13.137,19.852z M11.383,18.94c-0.096-0.015-0.188-0.036-0.275-0.058
			c-0.067-0.017-0.134-0.037-0.209-0.061c-1.543-0.456-2.842-1.841-3.475-3.707c-0.056-0.164-0.192-0.288-0.362-0.327
			c-0.168-0.041-0.345,0.013-0.468,0.136C6.531,14.988,6.496,15,6.498,15c-0.125-0.001-0.5-0.533-0.5-1.5
			c0-0.968,0.376-1.5,0.52-1.5c0.276,0,0.5-0.224,0.5-0.5c0-0.635,0.069-1.199,0.169-1.728C8.199,10.422,9.809,11,12,11
			c2.19,0,3.799-0.577,4.811-1.227c0.1,0.529,0.168,1.093,0.168,1.727c0,0.276,0.242,0.5,0.519,0.5c0.124,0,0.5,0.532,0.5,1.5
			S17.622,15,17.504,15c-0.001,0-0.036-0.01-0.1-0.075c-0.122-0.124-0.303-0.175-0.468-0.138c-0.17,0.039-0.307,0.163-0.363,0.327
			c-0.634,1.866-1.934,3.252-3.482,3.709c-0.068,0.021-0.135,0.042-0.195,0.057c-0.094,0.023-0.188,0.044-0.284,0.06
			C12.209,19.009,11.791,19.01,11.383,18.94z"/>
		<path d="M18.909,8C18.966,7.843,19,7.676,19,7.5v-1C19,6.224,18.776,6,18.5,6c-0.542,0-1.383-0.566-2.273-1.167
			C14.952,3.974,13.507,3,12,3S9.048,3.974,7.773,4.833C6.883,5.434,6.042,6,5.5,6C5.224,6,5,6.224,5,6.5v1
			C5,7.676,5.034,7.843,5.091,8H18.909z M11,5.5C11,5.224,11.224,5,11.5,5h1C12.776,5,13,5.224,13,5.5V6c0,0.551-0.448,1-1,1
			s-1-0.449-1-1V5.5z"/>
	</g>
</g>
<g id="Criminal">
</g>
<g id="Prisoner">
</g>
<g id="Woodsman">
</g>
<g id="Dispatcher_1">
</g>
<g id="Dispatcher_2">
</g>
<g id="Soldier">
</g>
<g id="Astronaut">
</g>
<g id="Hipster_Guy">
</g>
<g id="Hipster_Girl">
</g>
<g id="Worker">
</g>
<g id="Old_Man">
</g>
<g id="Punk">
</g>
<g id="Diver">
</g>
<g id="Artist">
</g>
<g id="Dictator">
</g>
<g id="Man_Hat">
</g>
<g id="Woman_Hat">
</g>
<g id="Graduated_Man">
</g>
<g id="Graduated_Woman">
</g>
<g id="Avatar_Chef">
</g>
<g id="Waiter">
</g>
<g id="Waitress">
</g>
<g id="Bllboy">
</g>
<g id="Santa">
</g>
<g id="Doctor">
</g>
<g id="Nurse">
</g>
<g id="Captain">
</g>
<g id="Farmer">
</g>
<g id="Maid">
</g>
<g id="Business_Man_2">
</g>
<g id="Business_Woman_2">
</g>
<g id="Cowboy">
</g>
<g id="Anonymus">
</g>
<g id="Batman">
</g>
<g id="Superman">
</g>
<g id="Captain_America">
</g>
<g id="Darth_Vader">
</g>
<g id="Harry_Potter">
</g>
<g id="Anonymus_2">
</g>
<g id="Scream">
</g>
<g id="Jason">
</g>
<g id="Charlie_Chaplin">
</g>
</svg>
