<?xml version="1.0" encoding="iso-8859-1"?>
<!-- Generator: Adobe Illustrator 19.2.1, SVG Export Plug-In . SVG Version: 6.00 Build 0)  -->
<svg version="1.1" xmlns="http://www.w3.org/2000/svg" xmlns:xlink="http://www.w3.org/1999/xlink" x="0px" y="0px"
	 viewBox="0 0 24 24" style="enable-background:new 0 0 24 24;" xml:space="preserve">
<g id="Man_1">
</g>
<g id="Woman_1">
</g>
<g id="Man_2">
</g>
<g id="Woman_2">
</g>
<g id="Bald_Man">
</g>
<g id="Man_Glasses">
</g>
<g id="Woman_Glasses">
</g>
<g id="Man_Beard">
</g>
<g id="Man_Cap">
</g>
<g id="Woman_Cap">
</g>
<g id="Man_3">
</g>
<g id="Woman_3">
</g>
<g id="Men_4">
</g>
<g id="Woman_4">
</g>
<g id="Business_Man_1">
</g>
<g id="Business_Woman_1">
</g>
<g id="Firefigyhter">
</g>
<g id="Policeman">
</g>
<g id="Criminal">
</g>
<g id="Prisoner">
</g>
<g id="Woodsman">
</g>
<g id="Dispatcher_1">
</g>
<g id="Dispatcher_2">
</g>
<g id="Soldier">
	<g>
		<path d="M24,12c0-6.617-5.383-12-12-12S0,5.383,0,12c0,3.38,1.41,6.433,3.667,8.616c0.039,0.042,0.073,0.084,0.122,0.111
			c1.958,1.843,4.528,3.033,7.373,3.23C11.439,23.984,11.718,24,12,24c3.155,0,6.021-1.233,8.165-3.231l0.024-0.01
			c0.11-0.044,0.186-0.13,0.24-0.23C22.631,18.353,24,15.334,24,12z M1,12C1,5.935,5.935,1,12,1s11,4.935,11,11
			c0,2.995-1.207,5.711-3.155,7.697c-0.06-0.023-0.117-0.049-0.177-0.071l-0.873-0.304c-0.002,0.002-0.008,0.01-0.011,0.012
			l-1.023-0.356c0.003-0.003,0.009-0.008,0.012-0.012l-0.138-0.048c-0.262-0.091-0.499-0.23-0.716-0.4
			c-0.006,0.007-0.013,0.012-0.018,0.019c-0.039-0.03-0.083-0.053-0.121-0.086l-0.64-0.551c0.465-0.554,0.86-1.201,1.163-1.92
			C17.37,15.995,17.432,16,17.487,16c0.855,0,1.5-1.075,1.5-2.5c0-0.169-0.014-0.336-0.033-0.5H19.5c0.276,0,0.5-0.224,0.5-0.5
			C20,6.233,15.868,4,12,4s-8,2.233-8,8.5C4,12.776,4.224,13,4.5,13h0.52c-0.019,0.164-0.033,0.331-0.033,0.5
			c0,1.425,0.645,2.5,1.5,2.5c0.055,0,0.117-0.005,0.185-0.018c0.302,0.719,0.698,1.366,1.162,1.92l-0.64,0.551
			c-0.239,0.206-0.512,0.363-0.81,0.467l-2.033,0.707c-0.065,0.023-0.127,0.052-0.191,0.076C2.208,17.717,1,14.998,1,12z
			 M7.411,15.114c-0.056-0.164-0.193-0.288-0.362-0.327c-0.167-0.039-0.347,0.014-0.468,0.138C6.52,14.988,6.484,15,6.486,15
			c-0.125-0.001-0.5-0.533-0.5-1.5c0-0.305,0.04-0.603,0.114-0.861c0.015-0.053,0.015-0.106,0.013-0.159l0.593-0.89
			C7.355,11.755,8.847,12,12,12c2.626,0,3.883-0.16,4.478-0.392l1.399,1.049c0.071,0.255,0.11,0.545,0.11,0.842
			c0,0.968-0.375,1.5-0.495,1.5c0,0-0.036-0.01-0.101-0.076c-0.121-0.124-0.297-0.176-0.468-0.137
			c-0.169,0.039-0.306,0.162-0.362,0.327c-0.634,1.866-1.933,3.251-3.484,3.709c-0.066,0.021-0.133,0.041-0.194,0.057
			c-0.093,0.023-0.187,0.044-0.284,0.06c-0.403,0.068-0.82,0.069-1.229,0c-0.095-0.016-0.188-0.037-0.275-0.058
			c-0.067-0.018-0.134-0.038-0.209-0.062C9.345,18.366,8.046,16.98,7.411,15.114z M5.969,20.123l0.745-0.259
			c0.108-0.038,0.207-0.094,0.311-0.142C8.125,20.686,9.992,22,12,22v-1.001c-0.004,0-0.009,0.001-0.013,0.001
			c-0.293,0-0.604-0.029-0.95-0.088c-0.131-0.022-0.271-0.052-0.411-0.085c-0.128-0.032-0.229-0.063-0.333-0.096
			c-0.926-0.273-1.781-0.779-2.526-1.464c0.026-0.021,0.055-0.035,0.08-0.057l0.694-0.597c0.615,0.539,1.308,0.944,2.054,1.164
			c0.085,0.027,0.169,0.053,0.261,0.076c0.118,0.028,0.234,0.054,0.35,0.073C11.462,19.97,11.721,20,11.987,20
			c0.265,0,0.524-0.03,0.778-0.073c0.119-0.02,0.236-0.045,0.36-0.075c0.086-0.021,0.17-0.047,0.246-0.071
			c0.75-0.221,1.446-0.628,2.062-1.168l0.695,0.598c0.025,0.021,0.054,0.036,0.08,0.057c-0.75,0.688-1.615,1.195-2.553,1.472
			c-0.076,0.024-0.18,0.056-0.286,0.083c-0.131,0.032-0.248,0.055-0.367,0.076v0.992c1.618-0.328,3.054-1.361,3.968-2.16
			c0.098,0.044,0.19,0.098,0.293,0.134l0.76,0.264c-0.996,0.951-2.833,2.41-5.021,2.778v0.043C12.67,22.979,12.338,23,12,23
			C9.4,23,7.12,21.221,5.969,20.123z"/>
		<path d="M10.5,13h-1C9.224,13,9,13.224,9,13.5S9.224,14,9.5,14h1c0.276,0,0.5-0.224,0.5-0.5S10.776,13,10.5,13z"/>
		<path d="M13.5,14h1c0.276,0,0.5-0.224,0.5-0.5S14.776,13,14.5,13h-1c-0.276,0-0.5,0.224-0.5,0.5S13.224,14,13.5,14z"/>
	</g>
</g>
<g id="Astronaut">
</g>
<g id="Hipster_Guy">
</g>
<g id="Hipster_Girl">
</g>
<g id="Worker">
</g>
<g id="Old_Man">
</g>
<g id="Punk">
</g>
<g id="Diver">
</g>
<g id="Artist">
</g>
<g id="Dictator">
</g>
<g id="Man_Hat">
</g>
<g id="Woman_Hat">
</g>
<g id="Graduated_Man">
</g>
<g id="Graduated_Woman">
</g>
<g id="Avatar_Chef">
</g>
<g id="Waiter">
</g>
<g id="Waitress">
</g>
<g id="Bllboy">
</g>
<g id="Santa">
</g>
<g id="Doctor">
</g>
<g id="Nurse">
</g>
<g id="Captain">
</g>
<g id="Farmer">
</g>
<g id="Maid">
</g>
<g id="Business_Man_2">
</g>
<g id="Business_Woman_2">
</g>
<g id="Cowboy">
</g>
<g id="Anonymus">
</g>
<g id="Batman">
</g>
<g id="Superman">
</g>
<g id="Captain_America">
</g>
<g id="Darth_Vader">
</g>
<g id="Harry_Potter">
</g>
<g id="Anonymus_2">
</g>
<g id="Scream">
</g>
<g id="Jason">
</g>
<g id="Charlie_Chaplin">
</g>
</svg>
