<?xml version="1.0" encoding="iso-8859-1"?>
<!-- Generator: Adobe Illustrator 19.2.1, SVG Export Plug-In . SVG Version: 6.00 Build 0)  -->
<svg version="1.1" xmlns="http://www.w3.org/2000/svg" xmlns:xlink="http://www.w3.org/1999/xlink" x="0px" y="0px"
	 viewBox="0 0 24 24" style="enable-background:new 0 0 24 24;" xml:space="preserve">
<g id="Man_1">
</g>
<g id="Woman_1">
</g>
<g id="Man_2">
</g>
<g id="Woman_2">
	<g>
		<path d="M24,12c0-6.617-5.383-12-12-12S0,5.383,0,12c0,6.334,4.937,11.525,11.163,11.958C11.439,23.984,11.718,24,12,24
			c0.277,0,0.55-0.016,0.821-0.042c2.83-0.193,5.388-1.367,7.344-3.19l0.024-0.01c0.11-0.044,0.186-0.13,0.24-0.23
			C22.631,18.353,24,15.334,24,12z M1,12C1,5.935,5.935,1,12,1s11,4.935,11,11c0,2.995-1.207,5.711-3.155,7.697
			c-0.06-0.023-0.117-0.049-0.177-0.071l-2.033-0.707c-0.286-0.1-0.546-0.251-0.778-0.444c-0.872,1.075-1.955,1.859-3.163,2.241
			c-0.076,0.026-0.18,0.06-0.285,0.088c-0.168,0.043-0.31,0.076-0.454,0.101C12.608,20.97,12.302,21,12,21
			c-0.303,0-0.61-0.03-0.967-0.096c-0.131-0.022-0.275-0.056-0.418-0.093c-0.126-0.034-0.229-0.067-0.332-0.102
			c-1.184-0.375-2.252-1.146-3.118-2.204c-0.222,0.177-0.466,0.32-0.735,0.414l-2.033,0.707c-0.077,0.027-0.149,0.06-0.225,0.089
			C2.213,17.729,1,15.004,1,12z"/>
		<path d="M10.5,12h-1C9.224,12,9,12.224,9,12.5S9.224,13,9.5,13h1c0.276,0,0.5-0.224,0.5-0.5S10.776,12,10.5,12z"/>
		<path d="M14.5,12h-1c-0.276,0-0.5,0.224-0.5,0.5s0.224,0.5,0.5,0.5h1c0.276,0,0.5-0.224,0.5-0.5S14.776,12,14.5,12z"/>
		<path d="M4.426,17.995c0.121,0.018,2.972,0.441,4.044,0.504C8.48,18.5,8.49,18.5,8.5,18.5c0.008,0,0.015-0.006,0.023-0.006
			c0.62,0.587,1.321,1.028,2.076,1.267c0.085,0.028,0.169,0.056,0.263,0.082c0.118,0.03,0.236,0.058,0.351,0.078
			C11.509,19.975,11.759,20,12,20s0.491-0.025,0.782-0.079c0.12-0.021,0.237-0.049,0.364-0.081c0.086-0.023,0.17-0.051,0.247-0.077
			c0.759-0.24,1.462-0.682,2.084-1.269c0.008,0,0.015,0.006,0.024,0.006c0.01,0,0.02,0,0.029-0.001
			c1.072-0.063,3.923-0.486,4.044-0.504c0.137-0.021,0.259-0.097,0.338-0.21s0.106-0.255,0.077-0.391
			C19.979,17.348,19,12.837,19,11.5v0v0V11c0-0.041-0.018-0.078-0.028-0.117C18.692,7.039,15.676,4,12,4
			c-3.669,0-6.681,3.027-6.971,6.861C5.015,10.906,5,10.952,5,11v0.5v0v0c0,1.336-0.979,5.848-0.989,5.894
			c-0.029,0.135-0.001,0.277,0.077,0.391S4.29,17.974,4.426,17.995z M13.083,18.813c-0.066,0.022-0.133,0.044-0.192,0.061
			c-0.093,0.023-0.185,0.046-0.284,0.063C12.407,18.974,12.206,19,12,19s-0.407-0.026-0.611-0.064
			c-0.094-0.016-0.187-0.039-0.271-0.061c-0.068-0.019-0.134-0.041-0.209-0.065c-1.542-0.488-2.844-1.979-3.481-3.988
			c-0.054-0.17-0.195-0.299-0.37-0.337c-0.175-0.04-0.356,0.019-0.477,0.151c-0.05,0.055-0.085,0.076-0.078,0.078
			C6.353,14.677,6,14.074,6,13.071c0-0.192,0.066-0.758,0.089-0.945c0.28,0.099,0.535,0.229,0.647,0.298
			c0.145,0.09,0.325,0.101,0.478,0.027c0.153-0.073,0.26-0.218,0.282-0.386C7.597,11.298,7.87,10.462,8,10.357
			c0.759,0,2.462-0.289,3.176-1.443c0.952,0.931,2.803,1.847,4.873,1.966c0.128,0.685,0.473,1.292,0.52,1.372
			c0.034,0.059,0.08,0.109,0.133,0.149c0.016,0.012,0.037,0.016,0.054,0.026c0.04,0.023,0.079,0.048,0.125,0.059
			c0.001,0,0.001,0,0.002,0l0.001,0.001c0.027,0.007,0.055,0.008,0.082,0.01C16.977,12.497,16.988,12.5,17,12.5
			c0.093,0,0.185-0.026,0.265-0.076c0.104-0.065,0.362-0.197,0.646-0.297C17.934,12.315,18,12.879,18,13.071
			c0,1.003-0.354,1.607-0.486,1.645c-0.009-0.003-0.045-0.024-0.096-0.08c-0.121-0.132-0.304-0.19-0.477-0.151
			c-0.175,0.039-0.315,0.167-0.369,0.337C15.935,16.832,14.633,18.322,13.083,18.813z"/>
	</g>
</g>
<g id="Bald_Man">
</g>
<g id="Man_Glasses">
</g>
<g id="Woman_Glasses">
</g>
<g id="Man_Beard">
</g>
<g id="Man_Cap">
</g>
<g id="Woman_Cap">
</g>
<g id="Man_3">
</g>
<g id="Woman_3">
</g>
<g id="Men_4">
</g>
<g id="Woman_4">
</g>
<g id="Business_Man_1">
</g>
<g id="Business_Woman_1">
</g>
<g id="Firefigyhter">
</g>
<g id="Policeman">
</g>
<g id="Criminal">
</g>
<g id="Prisoner">
</g>
<g id="Woodsman">
</g>
<g id="Dispatcher_1">
</g>
<g id="Dispatcher_2">
</g>
<g id="Soldier">
</g>
<g id="Astronaut">
</g>
<g id="Hipster_Guy">
</g>
<g id="Hipster_Girl">
</g>
<g id="Worker">
</g>
<g id="Old_Man">
</g>
<g id="Punk">
</g>
<g id="Diver">
</g>
<g id="Artist">
</g>
<g id="Dictator">
</g>
<g id="Man_Hat">
</g>
<g id="Woman_Hat">
</g>
<g id="Graduated_Man">
</g>
<g id="Graduated_Woman">
</g>
<g id="Avatar_Chef">
</g>
<g id="Waiter">
</g>
<g id="Waitress">
</g>
<g id="Bllboy">
</g>
<g id="Santa">
</g>
<g id="Doctor">
</g>
<g id="Nurse">
</g>
<g id="Captain">
</g>
<g id="Farmer">
</g>
<g id="Maid">
</g>
<g id="Business_Man_2">
</g>
<g id="Business_Woman_2">
</g>
<g id="Cowboy">
</g>
<g id="Anonymus">
</g>
<g id="Batman">
</g>
<g id="Superman">
</g>
<g id="Captain_America">
</g>
<g id="Darth_Vader">
</g>
<g id="Harry_Potter">
</g>
<g id="Anonymus_2">
</g>
<g id="Scream">
</g>
<g id="Jason">
</g>
<g id="Charlie_Chaplin">
</g>
</svg>
