<?xml version="1.0" encoding="iso-8859-1"?>
<!-- Generator: Adobe Illustrator 19.2.1, SVG Export Plug-In . SVG Version: 6.00 Build 0)  -->
<svg version="1.1" xmlns="http://www.w3.org/2000/svg" xmlns:xlink="http://www.w3.org/1999/xlink" x="0px" y="0px"
	 viewBox="0 0 24 24" style="enable-background:new 0 0 24 24;" xml:space="preserve">
<g id="Man_1">
</g>
<g id="Woman_1">
</g>
<g id="Man_2">
</g>
<g id="Woman_2">
</g>
<g id="Bald_Man">
</g>
<g id="Man_Glasses">
</g>
<g id="Woman_Glasses">
</g>
<g id="Man_Beard">
</g>
<g id="Man_Cap">
</g>
<g id="Woman_Cap">
</g>
<g id="Man_3">
</g>
<g id="Woman_3">
</g>
<g id="Men_4">
</g>
<g id="Woman_4">
</g>
<g id="Business_Man_1">
</g>
<g id="Business_Woman_1">
</g>
<g id="Firefigyhter">
</g>
<g id="Policeman">
</g>
<g id="Criminal">
</g>
<g id="Prisoner">
</g>
<g id="Woodsman">
</g>
<g id="Dispatcher_1">
</g>
<g id="Dispatcher_2">
</g>
<g id="Soldier">
</g>
<g id="Astronaut">
</g>
<g id="Hipster_Guy">
</g>
<g id="Hipster_Girl">
</g>
<g id="Worker">
</g>
<g id="Old_Man">
</g>
<g id="Punk">
</g>
<g id="Diver">
</g>
<g id="Artist">
</g>
<g id="Dictator">
</g>
<g id="Man_Hat">
</g>
<g id="Woman_Hat">
	<g>
		<path d="M12,0C5.383,0,0,5.383,0,12c0,6.363,4.982,11.571,11.248,11.962c0.172,0.015,0.346,0.021,0.521,0.026
			C11.847,23.99,11.922,24,12,24c0.008,0,0.015-0.001,0.023-0.001c0.004,0,0.007,0,0.011,0c0.282,0,0.56-0.017,0.836-0.043
			c2.81-0.203,5.349-1.375,7.294-3.187l0.036-0.016c0.105-0.046,0.178-0.129,0.23-0.226C22.632,18.351,24,15.333,24,12
			C24,5.383,18.617,0,12,0z M13.665,20.739c-0.07,0.023-0.175,0.054-0.281,0.081c-0.16,0.039-0.3,0.069-0.443,0.093
			C12.6,20.972,12.291,21,11.999,21c-0.293,0-0.604-0.029-0.95-0.088c-0.133-0.022-0.275-0.053-0.417-0.087
			c-0.124-0.032-0.227-0.063-0.33-0.095c-1.156-0.341-2.199-1.053-3.057-2.019c0.66,0.148,1.276,0.266,1.646,0.287
			C8.901,19,8.912,19,8.921,19c0.033,0,0.062-0.012,0.094-0.018c0.493,0.353,1.025,0.628,1.588,0.795
			c0.085,0.027,0.171,0.053,0.264,0.077c0.117,0.028,0.234,0.054,0.351,0.073C11.474,19.971,11.733,20,11.999,20
			c0.265,0,0.524-0.029,0.777-0.073c0.12-0.02,0.237-0.045,0.36-0.075c0.087-0.022,0.173-0.048,0.246-0.071
			c0.568-0.168,1.103-0.445,1.599-0.799C15.013,18.988,15.044,19,15.079,19c0.01,0,0.02,0,0.03-0.001
			c0.368-0.021,0.98-0.138,1.636-0.285C15.883,19.68,14.835,20.394,13.665,20.739z M6.499,12c0.308,0,0.761,0.247,0.975,0.403
			C7.561,12.467,7.664,12.5,7.769,12.5c0.067,0,0.134-0.013,0.198-0.041c0.163-0.07,0.276-0.22,0.298-0.396
			c0.076-0.604,0.275-1.278,0.425-1.457c0.642-0.019,1.986-0.292,2.617-1.247c0.805,0.777,2.309,1.584,4.051,1.706
			c0.117,0.593,0.396,1.108,0.436,1.179c0.07,0.125,0.19,0.214,0.33,0.245c0.035,0.007,0.071,0.011,0.106,0.011
			c0.105,0,0.21-0.033,0.297-0.097C16.739,12.247,17.19,12,17.498,12c0.124,0,0.5,0.532,0.5,1.5S17.622,15,17.504,15
			c-0.001,0-0.036-0.01-0.1-0.075c-0.122-0.124-0.302-0.175-0.468-0.138c-0.17,0.039-0.307,0.163-0.363,0.327
			c-0.634,1.866-1.933,3.252-3.488,3.711c-0.065,0.021-0.13,0.041-0.191,0.056c-0.093,0.022-0.186,0.044-0.284,0.06
			c-0.402,0.068-0.819,0.068-1.228,0c-0.095-0.016-0.188-0.037-0.274-0.058c-0.066-0.017-0.132-0.036-0.209-0.062
			c-1.542-0.455-2.841-1.841-3.475-3.707c-0.056-0.164-0.193-0.288-0.362-0.326c-0.169-0.04-0.347,0.013-0.468,0.137
			C6.531,14.988,6.496,15,6.498,15c-0.125-0.001-0.5-0.533-0.5-1.5C5.999,12.532,6.374,12,6.499,12z M5.795,11l-0.174-0.059
			C4.606,10.504,4,9.965,4,9.5C4,8.456,7.043,7,12,7c1.854,0,3.441,0.204,4.7,0.514c0.027,0.011,0.055,0.016,0.083,0.022
			C18.837,8.055,20,8.856,20,9.5c0,0.465-0.606,1.004-1.613,1.438l-0.178,0.073c-0.146-0.524-0.298-1.03-0.481-1.465
			c-0.001-0.002-0.003-0.003-0.004-0.006c-0.001-0.002,0-0.003-0.001-0.005C17.182,8.324,13.871,8,12,8
			C9.713,8,7.182,8.41,6.439,9.31C6.413,9.331,6.392,9.357,6.37,9.385c-0.011,0.016-0.033,0.03-0.043,0.047
			c-0.006,0.01-0.006,0.021-0.011,0.031C6.31,9.474,6.301,9.481,6.296,9.492C6.103,9.937,5.946,10.459,5.795,11z M19.846,19.696
			c-0.06-0.023-0.117-0.05-0.178-0.071l-2.033-0.707c-0.195-0.068-0.373-0.169-0.543-0.284c1.212-0.283,2.458-0.63,2.543-0.653
			c0.142-0.04,0.26-0.141,0.32-0.275c0.062-0.134,0.06-0.289-0.004-0.423c-0.009-0.017-0.809-1.703-0.967-3.524
			c0-0.001-0.001-0.002-0.001-0.003c0.005-0.085,0.015-0.168,0.015-0.256c0-0.62-0.127-1.166-0.336-1.594l0.111-0.046
			C20.614,11.068,21,10.14,21,9.5c0-1.32-1.566-2.284-3.73-2.863C16.605,4.516,14.453,3,12,3C9.551,3,7.394,4.517,6.73,6.637
			C4.566,7.217,3,8.181,3,9.5c0,0.639,0.386,1.567,2.262,2.374L5.338,11.9c-0.21,0.429-0.339,0.977-0.339,1.6
			c0,0.093,0.01,0.179,0.015,0.269c-0.16,1.818-0.957,3.498-0.964,3.514c-0.064,0.134-0.065,0.289-0.004,0.423
			c0.061,0.135,0.178,0.235,0.321,0.275c0.086,0.024,1.363,0.38,2.59,0.664c-0.165,0.11-0.336,0.207-0.525,0.273l-2.033,0.707
			c-0.077,0.027-0.15,0.06-0.226,0.09C2.213,17.728,1,15.004,1,12C1,5.935,5.935,1,12,1s11,4.935,11,11
			C23,14.995,21.794,17.711,19.846,19.696z"/>
		<path d="M9.5,13h1c0.276,0,0.5-0.224,0.5-0.5S10.776,12,10.5,12h-1C9.224,12,9,12.224,9,12.5S9.224,13,9.5,13z"/>
		<path d="M13.5,13h1c0.276,0,0.5-0.224,0.5-0.5S14.776,12,14.5,12h-1c-0.276,0-0.5,0.224-0.5,0.5S13.224,13,13.5,13z"/>
	</g>
</g>
<g id="Graduated_Man">
</g>
<g id="Graduated_Woman">
</g>
<g id="Avatar_Chef">
</g>
<g id="Waiter">
</g>
<g id="Waitress">
</g>
<g id="Bllboy">
</g>
<g id="Santa">
</g>
<g id="Doctor">
</g>
<g id="Nurse">
</g>
<g id="Captain">
</g>
<g id="Farmer">
</g>
<g id="Maid">
</g>
<g id="Business_Man_2">
</g>
<g id="Business_Woman_2">
</g>
<g id="Cowboy">
</g>
<g id="Anonymus">
</g>
<g id="Batman">
</g>
<g id="Superman">
</g>
<g id="Captain_America">
</g>
<g id="Darth_Vader">
</g>
<g id="Harry_Potter">
</g>
<g id="Anonymus_2">
</g>
<g id="Scream">
</g>
<g id="Jason">
</g>
<g id="Charlie_Chaplin">
</g>
</svg>
