<?xml version="1.0" encoding="iso-8859-1"?>
<!-- Generator: Adobe Illustrator 19.2.1, SVG Export Plug-In . SVG Version: 6.00 Build 0)  -->
<svg version="1.1" xmlns="http://www.w3.org/2000/svg" xmlns:xlink="http://www.w3.org/1999/xlink" x="0px" y="0px"
	 viewBox="0 0 24 24" style="enable-background:new 0 0 24 24;" xml:space="preserve">
<g id="Man_1">
</g>
<g id="Woman_1">
</g>
<g id="Man_2">
</g>
<g id="Woman_2">
</g>
<g id="Bald_Man">
</g>
<g id="Man_Glasses">
</g>
<g id="Woman_Glasses">
</g>
<g id="Man_Beard">
</g>
<g id="Man_Cap">
</g>
<g id="Woman_Cap">
</g>
<g id="Man_3">
</g>
<g id="Woman_3">
</g>
<g id="Men_4">
</g>
<g id="Woman_4">
</g>
<g id="Business_Man_1">
</g>
<g id="Business_Woman_1">
</g>
<g id="Firefigyhter">
</g>
<g id="Policeman">
</g>
<g id="Criminal">
</g>
<g id="Prisoner">
</g>
<g id="Woodsman">
</g>
<g id="Dispatcher_1">
</g>
<g id="Dispatcher_2">
</g>
<g id="Soldier">
</g>
<g id="Astronaut">
</g>
<g id="Hipster_Guy">
</g>
<g id="Hipster_Girl">
</g>
<g id="Worker">
	<g>
		<path d="M12,7.5c0.552,0,1-0.449,1-1v-2h-2v2C11,7.051,11.448,7.5,12,7.5z"/>
		<circle cx="12" cy="10.5" r="2"/>
		<path d="M18.999,10.476c-0.008-0.181-0.113-0.342-0.275-0.423l-0.729-0.364C17.899,6.688,16.392,4.785,14,4.547V6.5
			c0,0.538-0.216,1.024-0.562,1.384C14.364,8.395,15,9.369,15,10.5c0,1.654-1.346,3-3,3h1.066c1.031,0,2.039-0.289,2.914-0.836
			l1.223-0.765C17.29,11.959,17.389,12,17.498,12c0.124,0,0.5,0.532,0.5,1.5S17.622,15,17.504,15c-0.001,0-0.036-0.01-0.1-0.075
			c-0.122-0.124-0.303-0.177-0.468-0.138c-0.17,0.039-0.307,0.163-0.363,0.327c-0.634,1.866-1.934,3.252-3.482,3.709
			c-0.068,0.021-0.135,0.042-0.195,0.057c-0.094,0.023-0.188,0.044-0.284,0.06c-0.402,0.068-0.82,0.069-1.229-0.001
			c-0.096-0.015-0.188-0.037-0.275-0.058c-0.067-0.017-0.134-0.037-0.209-0.061c-1.543-0.456-2.842-1.841-3.475-3.707
			c-0.056-0.165-0.192-0.288-0.362-0.327c-0.168-0.041-0.345,0.013-0.468,0.136C6.531,14.988,6.496,15,6.498,15
			c-0.125-0.001-0.5-0.533-0.5-1.5c0-0.968,0.376-1.5,0.52-1.5c0.107,0,0.202-0.04,0.283-0.098l1.219,0.762
			c0.875,0.547,1.883,0.836,2.914,0.836H12c-1.654,0-3-1.346-3-3c0-1.13,0.636-2.105,1.562-2.616C10.216,7.524,10,7.038,10,6.5
			V4.547c-2.392,0.238-3.899,2.14-3.995,5.141l-0.729,0.364c-0.162,0.081-0.268,0.243-0.275,0.423
			c-0.009,0.181,0.081,0.352,0.234,0.448l0.561,0.351c-0.482,0.406-0.799,1.229-0.799,2.225c0,1.425,0.645,2.5,1.5,2.5
			c0.055,0,0.117-0.005,0.186-0.018c0.798,1.897,2.235,3.298,3.922,3.795c0.085,0.027,0.169,0.053,0.262,0.076
			c0.117,0.028,0.234,0.054,0.351,0.073C11.474,19.97,11.733,20,11.998,20c0.266,0,0.525-0.03,0.778-0.073
			c0.119-0.02,0.236-0.045,0.36-0.075c0.085-0.022,0.169-0.047,0.245-0.071c1.694-0.5,3.133-1.9,3.932-3.798
			C17.381,15.995,17.443,16,17.498,16c0.855,0,1.5-1.075,1.5-2.5c0-0.993-0.314-1.814-0.8-2.222l0.567-0.354
			C18.918,10.828,19.008,10.657,18.999,10.476z"/>
		<path d="M12,0C5.383,0,0,5.383,0,12c0,6.335,4.938,11.526,11.165,11.958C11.44,23.984,11.718,24,12,24s0.56-0.016,0.835-0.042
			c2.922-0.203,5.559-1.447,7.536-3.375c0.003-0.005,0.01-0.007,0.013-0.012C22.612,18.39,24,15.356,24,12C24,5.383,18.617,0,12,0z
			 M19.836,19.707c-0.068-0.026-0.133-0.056-0.202-0.081L18,19.058v2.149c-0.322,0.21-0.656,0.402-1,0.578v-3.189
			c-0.028-0.02-0.059-0.036-0.087-0.057c-0.281,0.335-0.591,0.629-0.913,0.902v2.794c-0.326,0.128-0.659,0.241-1,0.338v-2.43
			c-0.426,0.246-0.867,0.458-1.335,0.596c-0.075,0.024-0.176,0.054-0.278,0.081c-0.165,0.04-0.306,0.07-0.448,0.094
			C12.603,20.971,12.292,21,11.998,21s-0.604-0.029-0.949-0.088c-0.132-0.021-0.272-0.052-0.413-0.085
			c-0.126-0.032-0.229-0.063-0.332-0.096C9.848,20.596,9.417,20.389,9,20.149v2.425c-0.341-0.097-0.674-0.21-1-0.338v-2.788
			c-0.324-0.275-0.635-0.57-0.917-0.907C7.056,18.56,7.027,18.576,7,18.595v3.191c-0.344-0.176-0.678-0.368-1-0.578v-2.15
			l-1.637,0.569c-0.068,0.024-0.133,0.054-0.2,0.08C2.21,17.72,1,15,1,12C1,5.935,5.935,1,12,1s11,4.935,11,11
			C23,15,21.79,17.721,19.836,19.707z"/>
	</g>
</g>
<g id="Old_Man">
</g>
<g id="Punk">
</g>
<g id="Diver">
</g>
<g id="Artist">
</g>
<g id="Dictator">
</g>
<g id="Man_Hat">
</g>
<g id="Woman_Hat">
</g>
<g id="Graduated_Man">
</g>
<g id="Graduated_Woman">
</g>
<g id="Avatar_Chef">
</g>
<g id="Waiter">
</g>
<g id="Waitress">
</g>
<g id="Bllboy">
</g>
<g id="Santa">
</g>
<g id="Doctor">
</g>
<g id="Nurse">
</g>
<g id="Captain">
</g>
<g id="Farmer">
</g>
<g id="Maid">
</g>
<g id="Business_Man_2">
</g>
<g id="Business_Woman_2">
</g>
<g id="Cowboy">
</g>
<g id="Anonymus">
</g>
<g id="Batman">
</g>
<g id="Superman">
</g>
<g id="Captain_America">
</g>
<g id="Darth_Vader">
</g>
<g id="Harry_Potter">
</g>
<g id="Anonymus_2">
</g>
<g id="Scream">
</g>
<g id="Jason">
</g>
<g id="Charlie_Chaplin">
</g>
</svg>
