<?xml version="1.0" encoding="iso-8859-1"?>
<!-- Generator: Adobe Illustrator 19.2.1, SVG Export Plug-In . SVG Version: 6.00 Build 0)  -->
<svg version="1.1" xmlns="http://www.w3.org/2000/svg" xmlns:xlink="http://www.w3.org/1999/xlink" x="0px" y="0px"
	 viewBox="0 0 30 30" style="enable-background:new 0 0 30 30;" xml:space="preserve">
<g id="Retro_Bot_1">
</g>
<g id="Retro_Bot_2">
</g>
<g id="Retro_Bot_3">
</g>
<g id="Retro_Bot_4">
</g>
<g id="Wall-E">
</g>
<g id="Eva">
</g>
<g id="Iron_Giant">
</g>
<g id="Marvin">
</g>
<g id="Atlas">
</g>
<g id="Claptrap">
</g>
<g id="Android">
</g>
<g id="Bender">
</g>
<g id="Roberto">
</g>
<g id="Robot_Devil">
</g>
<g id="Robocop">
</g>
<g id="ED_209">
	<g id="ED_209_2_">
		<g>
			<path d="M18.5,11h-7C9.019,11,7,8.981,7,6.5v-2C7,2.019,9.019,0,11.5,0h7C20.981,0,23,2.019,23,4.5v2C23,8.981,20.981,11,18.5,11
				z M11.5,1C9.57,1,8,2.57,8,4.5v2C8,8.43,9.57,10,11.5,10h7c1.93,0,3.5-1.57,3.5-3.5v-2C22,2.57,20.43,1,18.5,1H11.5z"/>
		</g>
		<g>
			<path d="M7.5,7.005c-0.276,0-0.5-0.224-0.5-0.5c0-0.276,0.224-0.5,0.5-0.5L22.534,6c0.276,0,0.5,0.224,0.5,0.5
				c0,0.276-0.224,0.5-0.5,0.5L7.5,7.005z"/>
		</g>
		<g>
			<path d="M11.5,11c-0.075,0-0.151-0.017-0.224-0.053c-0.247-0.124-0.347-0.424-0.224-0.671l2-4
				c0.124-0.248,0.424-0.345,0.671-0.224c0.247,0.124,0.347,0.424,0.224,0.671l-2,4C11.859,10.899,11.683,11,11.5,11z"/>
		</g>
		<g>
			<path d="M18.5,11c-0.183,0-0.359-0.101-0.447-0.276l-2-4c-0.123-0.247-0.023-0.547,0.224-0.671
				c0.248-0.123,0.547-0.024,0.671,0.224l2,4c0.123,0.247,0.023,0.547-0.224,0.671C18.651,10.983,18.575,11,18.5,11z"/>
		</g>
		<g>
			<path d="M18.5,15h-6.75c-0.827,0-1.5-0.673-1.5-1.5v-3c0-0.276,0.224-0.5,0.5-0.5h8.75c0.276,0,0.5,0.224,0.5,0.5v3
				C20,14.327,19.327,15,18.5,15z M11.25,11v2.5c0,0.276,0.225,0.5,0.5,0.5h6.75c0.275,0,0.5-0.224,0.5-0.5V11H11.25z"/>
		</g>
		<g>
			<path d="M25.5,30h-8c-0.276,0-0.5-0.224-0.5-0.5v-1c0-0.157,0.074-0.306,0.2-0.4l1.719-1.289l-1.896-6.164
				C17.008,20.6,17,20.55,17,20.5v-6c0-0.276,0.224-0.5,0.5-0.5s0.5,0.224,0.5,0.5v5.925l1.978,6.428
				c0.063,0.202-0.009,0.42-0.178,0.547L18,28.75V29h7v-0.25l-1.8-1.35c-0.085-0.063-0.147-0.152-0.178-0.253l-2-6.5
				c-0.02-0.061-0.026-0.125-0.021-0.188l0.5-6c0.013-0.152,0.094-0.29,0.221-0.375L23,13.232V11h-3.5c-0.276,0-0.5-0.224-0.5-0.5
				s0.224-0.5,0.5-0.5h4c0.276,0,0.5,0.224,0.5,0.5v3c0,0.167-0.084,0.323-0.223,0.416l-1.299,0.866l-0.473,5.663l1.924,6.252
				L25.8,28.1c0.126,0.094,0.2,0.243,0.2,0.4v1C26,29.776,25.776,30,25.5,30z"/>
		</g>
		<g>
			<path d="M21.5,30c-0.152,0-0.296-0.069-0.391-0.188l-2-2.5c-0.172-0.216-0.138-0.53,0.078-0.703
				c0.218-0.172,0.531-0.137,0.703,0.078L21.5,28.7l1.609-2.012c0.173-0.216,0.488-0.25,0.703-0.078
				c0.216,0.173,0.25,0.487,0.078,0.703l-2,2.5C21.796,29.931,21.652,30,21.5,30z"/>
		</g>
		<g>
			<path d="M12.5,30h-8C4.224,30,4,29.776,4,29.5v-1c0-0.157,0.074-0.306,0.2-0.4l1.87-1.402l1.924-6.252l-0.473-5.663l-1.299-0.866
				C6.084,13.823,6,13.667,6,13.5v-3C6,10.224,6.224,10,6.5,10h4c0.276,0,0.5,0.224,0.5,0.5S10.776,11,10.5,11H7v2.232l1.277,0.852
				c0.127,0.084,0.208,0.223,0.221,0.375l0.5,6c0.006,0.063-0.001,0.127-0.021,0.188l-2,6.5C6.947,27.248,6.885,27.336,6.8,27.4
				L5,28.75V29h7v-0.25l-1.8-1.35c-0.169-0.126-0.24-0.345-0.178-0.547L12,20.425V14.5c0-0.276,0.224-0.5,0.5-0.5s0.5,0.224,0.5,0.5
				v6c0,0.05-0.008,0.1-0.022,0.147l-1.896,6.164L12.8,28.1c0.126,0.094,0.2,0.243,0.2,0.4v1C13,29.776,12.776,30,12.5,30z"/>
		</g>
		<g>
			<path d="M8.5,30c-0.152,0-0.296-0.069-0.391-0.188l-2-2.5c-0.172-0.216-0.138-0.53,0.078-0.703
				c0.218-0.172,0.531-0.137,0.703,0.078L8.5,28.7l1.609-2.012c0.174-0.216,0.487-0.25,0.703-0.078
				c0.216,0.173,0.25,0.487,0.078,0.703l-2,2.5C8.796,29.931,8.652,30,8.5,30z"/>
		</g>
		<g>
			<path d="M4.501,6.5c-0.025,0-0.051-0.002-0.076-0.006C4.152,6.453,3.964,6.198,4.006,5.925C4.159,4.914,5.087,3,7.5,3
				C7.776,3,8,3.224,8,3.5S7.776,4,7.5,4C5.334,4,5.007,5.99,4.994,6.075C4.957,6.323,4.744,6.5,4.501,6.5z"/>
		</g>
		<g>
			<path d="M5.5,9C5.362,9,5.225,8.943,5.126,8.832C4.942,8.625,4.962,8.31,5.168,8.126c0.146-0.129,0.286-0.375,0.437-0.635
				C5.953,6.883,6.431,6.05,7.477,6c0.278-0.025,0.51,0.2,0.522,0.476C8.013,6.752,7.8,6.986,7.523,7
				C7.059,7.021,6.816,7.388,6.472,7.988C6.288,8.307,6.1,8.637,5.832,8.874C5.736,8.958,5.618,9,5.5,9z"/>
		</g>
		<g>
			<path d="M25.499,6.5c-0.234,0-0.442-0.166-0.489-0.403C24.994,6.022,24.646,4.5,22.5,4.5C22.224,4.5,22,4.276,22,4
				s0.224-0.5,0.5-0.5c2.401,0,3.334,1.574,3.491,2.407c0.052,0.271-0.127,0.533-0.398,0.584C25.562,6.497,25.53,6.5,25.499,6.5z"/>
		</g>
		<g>
			<path d="M24.5,9c-0.118,0-0.236-0.042-0.332-0.126c-0.268-0.237-0.456-0.567-0.64-0.886C23.184,7.388,22.941,7.021,22.477,7
				c-0.276-0.013-0.489-0.248-0.476-0.523C22.015,6.201,22.25,5.978,22.523,6c1.046,0.05,1.523,0.882,1.872,1.49
				c0.15,0.26,0.291,0.506,0.437,0.635c0.206,0.184,0.226,0.5,0.042,0.706C24.775,8.943,24.638,9,24.5,9z"/>
		</g>
		<g>
			<circle cx="27" cy="8" r="0.5"/>
		</g>
		<g>
			<path d="M27,11c-1.654,0-3-1.346-3-3s1.346-3,3-3s3,1.346,3,3S28.654,11,27,11z M27,6c-1.103,0-2,0.897-2,2s0.897,2,2,2
				s2-0.897,2-2S28.103,6,27,6z"/>
		</g>
		<g>
			<circle cx="3" cy="8" r="0.5"/>
		</g>
		<g>
			<path d="M3,11c-1.654,0-3-1.346-3-3s1.346-3,3-3s3,1.346,3,3S4.654,11,3,11z M3,6C1.897,6,1,6.897,1,8s0.897,2,2,2s2-0.897,2-2
				S4.103,6,3,6z"/>
		</g>
	</g>
</g>
<g id="Optimus_Prime">
</g>
<g id="Robot_1">
</g>
<g id="Robot_2">
</g>
<g id="Robot_3">
</g>
<g id="Robot_Arm_1">
</g>
<g id="Robot_Arm_2">
</g>
<g id="Robot_Arm_3">
</g>
<g id="Robot_Arm_4">
</g>
<g id="Robot_Arm_5">
</g>
<g id="K5_Robot">
</g>
<g id="Robot_Machine_1">
</g>
<g id="Robot_Machine_2">
</g>
<g id="Artifical_Intelligence_1">
</g>
<g id="Artifical_Intelligence_2">
</g>
<g id="Robot_4">
</g>
<g id="Robot_5">
</g>
<g id="Robot_6">
</g>
<g id="Robot_7">
</g>
<g id="Robot_8">
</g>
<g id="Robot_9">
</g>
<g id="Robot_10">
</g>
<g id="Robot_11">
</g>
<g id="Robot_12">
</g>
<g id="Robot_13">
</g>
</svg>
