<?xml version="1.0" encoding="iso-8859-1"?>
<!-- Generator: Adobe Illustrator 19.2.1, SVG Export Plug-In . SVG Version: 6.00 Build 0)  -->
<svg version="1.1" xmlns="http://www.w3.org/2000/svg" xmlns:xlink="http://www.w3.org/1999/xlink" x="0px" y="0px"
	 viewBox="0 0 30 30" style="enable-background:new 0 0 30 30;" xml:space="preserve">
<g id="Retro_Bot_1">
</g>
<g id="Retro_Bot_2">
</g>
<g id="Retro_Bot_3">
</g>
<g id="Retro_Bot_4">
</g>
<g id="Wall-E">
</g>
<g id="Eva">
	<g id="Eve_1_">
		<g>
			<path d="M15,11c-1.855,0-7.5,0-7.5-4c0-2.861,2.671-7,7.5-7s7.5,4.139,7.5,7C22.5,11,16.855,11,15,11z M15,1
				c-4.027,0-6.5,3.495-6.5,6c0,2.019,2.126,3,6.5,3s6.5-0.981,6.5-3C21.5,4.548,19.186,1,15,1z"/>
		</g>
		<g>
			<path d="M15,30c-4.031,0-7.525-7.177-8.498-17.453c-0.016-0.166,0.053-0.329,0.182-0.435c0.13-0.105,0.305-0.139,0.463-0.09
				C8.622,12.473,11.564,13,15,13c3.43,0,6.374-0.527,7.854-0.978c0.157-0.049,0.331-0.015,0.462,0.091
				c0.129,0.105,0.197,0.268,0.182,0.434C22.525,22.823,19.031,30,15,30z M7.571,13.175C8.556,22.247,11.702,29,15,29
				s6.444-6.753,7.429-15.825C20.754,13.59,18.055,14,15,14C11.94,14,9.244,13.59,7.571,13.175z"/>
		</g>
		<g>
			<path d="M19,7c-0.128,0-0.256-0.049-0.354-0.146c-0.589-0.589-1.141-0.146-1.296,0.003c-0.197,0.192-0.515,0.188-0.705-0.007
				c-0.193-0.196-0.193-0.509,0.001-0.703c0.544-0.543,1.714-0.993,2.707,0c0.195,0.195,0.195,0.512,0,0.707
				C19.256,6.951,19.128,7,19,7z"/>
		</g>
		<g>
			<path d="M13,7c-0.128,0-0.256-0.049-0.354-0.146c-0.588-0.589-1.141-0.146-1.296,0.003c-0.197,0.192-0.514,0.188-0.705-0.007
				c-0.193-0.196-0.193-0.509,0.001-0.703c0.545-0.543,1.715-0.993,2.707,0c0.195,0.195,0.195,0.512,0,0.707
				C13.256,6.951,13.128,7,13,7z"/>
		</g>
		<g>
			<path d="M9,29c-0.161,0-0.319-0.078-0.416-0.223c-1.918-2.879-3.215-7.396-4.08-14.214c-0.035-0.274,0.159-0.524,0.434-0.559
				c0.253-0.032,0.523,0.159,0.559,0.433c0.834,6.568,2.116,11.078,3.92,13.786c0.153,0.23,0.091,0.541-0.139,0.693
				C9.192,28.973,9.096,29,9,29z"/>
		</g>
		<g>
			<path d="M21,29c-0.096,0-0.192-0.027-0.277-0.084c-0.229-0.153-0.292-0.463-0.139-0.693c1.804-2.708,3.086-7.217,3.92-13.786
				c0.035-0.274,0.301-0.465,0.559-0.433c0.274,0.035,0.469,0.285,0.434,0.559c-0.865,6.818-2.162,11.335-4.08,14.214
				C21.319,28.922,21.161,29,21,29z"/>
		</g>
		<g>
			<circle cx="10" cy="15.5" r="0.5"/>
		</g>
		<g>
			<circle cx="13" cy="15.5" r="0.5"/>
		</g>
		<g>
			<circle cx="16" cy="15.5" r="0.5"/>
		</g>
	</g>
</g>
<g id="Iron_Giant">
</g>
<g id="Marvin">
</g>
<g id="Atlas">
</g>
<g id="Claptrap">
</g>
<g id="Android">
</g>
<g id="Bender">
</g>
<g id="Roberto">
</g>
<g id="Robot_Devil">
</g>
<g id="Robocop">
</g>
<g id="ED_209">
</g>
<g id="Optimus_Prime">
</g>
<g id="Robot_1">
</g>
<g id="Robot_2">
</g>
<g id="Robot_3">
</g>
<g id="Robot_Arm_1">
</g>
<g id="Robot_Arm_2">
</g>
<g id="Robot_Arm_3">
</g>
<g id="Robot_Arm_4">
</g>
<g id="Robot_Arm_5">
</g>
<g id="K5_Robot">
</g>
<g id="Robot_Machine_1">
</g>
<g id="Robot_Machine_2">
</g>
<g id="Artifical_Intelligence_1">
</g>
<g id="Artifical_Intelligence_2">
</g>
<g id="Robot_4">
</g>
<g id="Robot_5">
</g>
<g id="Robot_6">
</g>
<g id="Robot_7">
</g>
<g id="Robot_8">
</g>
<g id="Robot_9">
</g>
<g id="Robot_10">
</g>
<g id="Robot_11">
</g>
<g id="Robot_12">
</g>
<g id="Robot_13">
</g>
</svg>
