<?xml version="1.0" encoding="iso-8859-1"?>
<!-- Generator: Adobe Illustrator 19.2.1, SVG Export Plug-In . SVG Version: 6.00 Build 0)  -->
<svg version="1.1" xmlns="http://www.w3.org/2000/svg" xmlns:xlink="http://www.w3.org/1999/xlink" x="0px" y="0px"
	 viewBox="0 0 30 30" style="enable-background:new 0 0 30 30;" xml:space="preserve">
<g id="Retro_Bot_1">
</g>
<g id="Retro_Bot_2">
</g>
<g id="Retro_Bot_3">
</g>
<g id="Retro_Bot_4">
</g>
<g id="Wall-E">
</g>
<g id="Eva">
</g>
<g id="Iron_Giant">
	<g id="Iron_Giant_1_">
		<g>
			<path d="M21.5,30h-14C3.794,30,1,27.206,1,23.5v-9C1,14.224,1.224,14,1.5,14h2C3.776,14,4,14.224,4,14.5S3.776,15,3.5,15H2v8.5
				C2,26.687,4.313,29,7.5,29h14c3.187,0,5.5-2.313,5.5-5.5V15h-1.5c-0.276,0-0.5-0.224-0.5-0.5s0.224-0.5,0.5-0.5h2
				c0.276,0,0.5,0.224,0.5,0.5v9C28,27.206,25.206,30,21.5,30z"/>
		</g>
		<g>
			<path d="M21.75,25H7.25C4.906,25,3,23.093,3,20.75V12C3,6.346,8.589,1,14.5,1S26,6.346,26,12v8.75C26,23.093,24.094,25,21.75,25z
				 M14.5,2C9.103,2,4,6.86,4,12v8.75C4,22.542,5.458,24,7.25,24h14.5c1.792,0,3.25-1.458,3.25-3.25V12C25,6.86,19.897,2,14.5,2z"/>
		</g>
		<g>
			<path d="M1.5,16h-1C0.224,16,0,15.776,0,15.5S0.224,15,0.5,15h1C1.776,15,2,15.224,2,15.5S1.776,16,1.5,16z"/>
		</g>
		<g>
			<path d="M28.5,16h-1c-0.276,0-0.5-0.224-0.5-0.5s0.224-0.5,0.5-0.5h1c0.276,0,0.5,0.224,0.5,0.5S28.776,16,28.5,16z"/>
		</g>
		<g>
			<path d="M14.5,19c-0.276,0-0.5-0.224-0.5-0.5v-18C14,0.224,14.224,0,14.5,0S15,0.224,15,0.5v18C15,18.776,14.776,19,14.5,19z"/>
		</g>
		<g>
			<path d="M20.5,30h-12C8.224,30,8,29.776,8,29.5v-5C8,24.224,8.224,24,8.5,24h12c0.276,0,0.5,0.224,0.5,0.5v5
				C21,29.776,20.776,30,20.5,30z M9,29h11v-4H9V29z"/>
		</g>
		<g>
			<path d="M9,16c-1.654,0-3-1.346-3-3s1.346-3,3-3s3,1.346,3,3S10.654,16,9,16z M9,11c-1.103,0-2,0.897-2,2s0.897,2,2,2
				s2-0.897,2-2S10.103,11,9,11z"/>
		</g>
		<g>
			<path d="M20,16c-1.654,0-3-1.346-3-3s1.346-3,3-3s3,1.346,3,3S21.654,16,20,16z M20,11c-1.103,0-2,0.897-2,2s0.897,2,2,2
				s2-0.897,2-2S21.103,11,20,11z"/>
		</g>
		<g>
			<circle cx="9" cy="13" r="1"/>
		</g>
		<g>
			<circle cx="20" cy="13" r="1"/>
		</g>
	</g>
</g>
<g id="Marvin">
</g>
<g id="Atlas">
</g>
<g id="Claptrap">
</g>
<g id="Android">
</g>
<g id="Bender">
</g>
<g id="Roberto">
</g>
<g id="Robot_Devil">
</g>
<g id="Robocop">
</g>
<g id="ED_209">
</g>
<g id="Optimus_Prime">
</g>
<g id="Robot_1">
</g>
<g id="Robot_2">
</g>
<g id="Robot_3">
</g>
<g id="Robot_Arm_1">
</g>
<g id="Robot_Arm_2">
</g>
<g id="Robot_Arm_3">
</g>
<g id="Robot_Arm_4">
</g>
<g id="Robot_Arm_5">
</g>
<g id="K5_Robot">
</g>
<g id="Robot_Machine_1">
</g>
<g id="Robot_Machine_2">
</g>
<g id="Artifical_Intelligence_1">
</g>
<g id="Artifical_Intelligence_2">
</g>
<g id="Robot_4">
</g>
<g id="Robot_5">
</g>
<g id="Robot_6">
</g>
<g id="Robot_7">
</g>
<g id="Robot_8">
</g>
<g id="Robot_9">
</g>
<g id="Robot_10">
</g>
<g id="Robot_11">
</g>
<g id="Robot_12">
</g>
<g id="Robot_13">
</g>
</svg>
