<?xml version="1.0" encoding="iso-8859-1"?>
<!-- Generator: Adobe Illustrator 19.2.1, SVG Export Plug-In . SVG Version: 6.00 Build 0)  -->
<svg version="1.1" xmlns="http://www.w3.org/2000/svg" xmlns:xlink="http://www.w3.org/1999/xlink" x="0px" y="0px"
	 viewBox="0 0 30 30" style="enable-background:new 0 0 30 30;" xml:space="preserve">
<g id="Retro_Bot_1">
</g>
<g id="Retro_Bot_2">
</g>
<g id="Retro_Bot_3">
</g>
<g id="Retro_Bot_4">
</g>
<g id="Wall-E">
</g>
<g id="Eva">
</g>
<g id="Iron_Giant">
</g>
<g id="Marvin">
	<g id="Marvin_2_">
		<g>
			<path d="M18.5,20h-7c-0.161,0-0.312-0.077-0.405-0.208c-0.095-0.13-0.12-0.298-0.069-0.451l1-3C12.395,15.233,13.031,15,13.5,15
				h3c0.469,0,1.105,0.233,1.475,1.342l1,3c0.051,0.152,0.025,0.32-0.069,0.451C18.812,19.923,18.661,20,18.5,20z M12.193,19h5.613
				l-0.781-2.342C16.88,16.221,16.703,16,16.5,16h-3c-0.203,0-0.38,0.221-0.525,0.658L12.193,19z"/>
		</g>
		<g>
			<path d="M15,26c-0.872,0-2.354-0.379-2.916-1.223l-1.975-2.465c-0.146-0.183-0.146-0.442,0-0.625l2-2.5
				c0.173-0.215,0.487-0.249,0.703-0.078c0.216,0.173,0.25,0.487,0.078,0.703L11.141,22l1.75,2.188C13.208,24.66,14.276,25,15,25
				s1.792-0.34,2.084-0.777L18.859,22l-1.75-2.188c-0.172-0.216-0.138-0.53,0.078-0.703c0.218-0.172,0.531-0.137,0.703,0.078l2,2.5
				c0.146,0.183,0.146,0.442,0,0.625l-2,2.5C17.354,25.621,15.872,26,15,26z"/>
		</g>
		<g>
			<path d="M20.5,30H18c-0.208,0-0.395-0.129-0.468-0.324l-1.5-4c-0.098-0.259,0.033-0.547,0.292-0.644
				c0.257-0.097,0.547,0.034,0.644,0.292L18.347,29h1.46l-0.281-0.842c-0.024-0.074-0.031-0.152-0.021-0.229l0.479-3.345
				l-0.931-1.86c-0.123-0.247-0.023-0.547,0.224-0.671c0.248-0.123,0.547-0.024,0.671,0.224l1,2
				c0.046,0.091,0.063,0.194,0.048,0.294l-0.483,3.383l0.463,1.388c0.051,0.152,0.025,0.32-0.069,0.451
				C20.812,29.923,20.661,30,20.5,30z"/>
		</g>
		<g>
			<path d="M12,30H9.5c-0.161,0-0.312-0.077-0.405-0.208c-0.095-0.13-0.12-0.298-0.069-0.451l0.463-1.388l-0.483-3.383
				c-0.015-0.101,0.002-0.204,0.048-0.294l1-2c0.124-0.247,0.424-0.346,0.671-0.224c0.247,0.124,0.347,0.424,0.224,0.671
				l-0.931,1.86l0.479,3.345c0.011,0.077,0.004,0.155-0.021,0.229L10.193,29h1.46l1.379-3.676c0.097-0.259,0.387-0.39,0.644-0.292
				c0.259,0.097,0.39,0.385,0.292,0.644l-1.5,4C12.395,29.871,12.208,30,12,30z"/>
		</g>
		<g>
			<path d="M21.5,20c-0.214,0-0.412-0.138-0.478-0.353C20.617,18.332,19.45,17,18,17h-0.405c-0.276,0-0.5-0.224-0.5-0.5
				s0.224-0.5,0.5-0.5H18c2.024,0,3.481,1.738,3.978,3.353c0.081,0.264-0.066,0.544-0.331,0.625C21.598,19.993,21.549,20,21.5,20z"
				/>
		</g>
		<g>
			<path d="M8.5,20c-0.049,0-0.098-0.007-0.146-0.022c-0.265-0.081-0.412-0.361-0.331-0.625C8.521,17.728,10.119,16,12.095,16H12.5
				c0.276,0,0.5,0.224,0.5,0.5S12.776,17,12.5,17h-0.405c-1.496,0-2.723,1.364-3.117,2.647C8.912,19.862,8.714,20,8.5,20z"/>
		</g>
		<g>
			<path d="M22,11c-0.082,0-0.165-0.02-0.241-0.062C20.153,10.054,17.678,9,15,9c-2.76,0-5.195,1.052-6.754,1.935
				c-0.237,0.134-0.545,0.052-0.681-0.188c-0.137-0.24-0.052-0.545,0.188-0.682C9.416,9.123,12.022,8,15,8
				c2.89,0,5.533,1.121,7.241,2.062c0.242,0.133,0.33,0.438,0.197,0.679C22.347,10.907,22.176,11,22,11z"/>
		</g>
		<g>
			<path d="M18.5,12c-0.129,0-0.257-0.049-0.354-0.146l-3-3c-0.195-0.195-0.195-0.512,0-0.707s0.512-0.195,0.707,0l2.693,2.693
				L20.2,9.6c0.221-0.166,0.533-0.122,0.7,0.1c0.165,0.221,0.12,0.534-0.101,0.7l-2,1.5C18.711,11.967,18.605,12,18.5,12z"/>
		</g>
		<g>
			<path d="M11.5,12c-0.105,0-0.211-0.033-0.3-0.1l-2-1.5C8.979,10.234,8.935,9.921,9.1,9.7c0.167-0.222,0.481-0.265,0.7-0.1
				l1.653,1.24l2.693-2.693c0.195-0.195,0.512-0.195,0.707,0s0.195,0.512,0,0.707l-3,3C11.757,11.951,11.629,12,11.5,12z"/>
		</g>
		<g>
			<path d="M15,16c-4.411,0-8-3.589-8-8s3.589-8,8-8s8,3.589,8,8S19.411,16,15,16z M15,1c-3.859,0-7,3.14-7,7s3.141,7,7,7
				s7-3.14,7-7S18.859,1,15,1z"/>
		</g>
		<g>
			<path d="M22,23c-1.103,0-2-0.897-2-2s0.897-2,2-2s2,0.897,2,2S23.103,23,22,23z M22,20c-0.552,0-1,0.449-1,1s0.448,1,1,1
				s1-0.449,1-1S22.552,20,22,20z"/>
		</g>
		<g>
			<path d="M8,23c-1.103,0-2-0.897-2-2s0.897-2,2-2s2,0.897,2,2S9.103,23,8,23z M8,20c-0.552,0-1,0.449-1,1s0.448,1,1,1s1-0.449,1-1
				S8.552,20,8,20z"/>
		</g>
	</g>
</g>
<g id="Atlas">
</g>
<g id="Claptrap">
</g>
<g id="Android">
</g>
<g id="Bender">
</g>
<g id="Roberto">
</g>
<g id="Robot_Devil">
</g>
<g id="Robocop">
</g>
<g id="ED_209">
</g>
<g id="Optimus_Prime">
</g>
<g id="Robot_1">
</g>
<g id="Robot_2">
</g>
<g id="Robot_3">
</g>
<g id="Robot_Arm_1">
</g>
<g id="Robot_Arm_2">
</g>
<g id="Robot_Arm_3">
</g>
<g id="Robot_Arm_4">
</g>
<g id="Robot_Arm_5">
</g>
<g id="K5_Robot">
</g>
<g id="Robot_Machine_1">
</g>
<g id="Robot_Machine_2">
</g>
<g id="Artifical_Intelligence_1">
</g>
<g id="Artifical_Intelligence_2">
</g>
<g id="Robot_4">
</g>
<g id="Robot_5">
</g>
<g id="Robot_6">
</g>
<g id="Robot_7">
</g>
<g id="Robot_8">
</g>
<g id="Robot_9">
</g>
<g id="Robot_10">
</g>
<g id="Robot_11">
</g>
<g id="Robot_12">
</g>
<g id="Robot_13">
</g>
</svg>
