<?xml version="1.0" encoding="iso-8859-1"?>
<!-- Generator: Adobe Illustrator 19.2.1, SVG Export Plug-In . SVG Version: 6.00 Build 0)  -->
<svg version="1.1" xmlns="http://www.w3.org/2000/svg" xmlns:xlink="http://www.w3.org/1999/xlink" x="0px" y="0px"
	 viewBox="0 0 30 30" style="enable-background:new 0 0 30 30;" xml:space="preserve">
<g id="Retro_Bot_1">
</g>
<g id="Retro_Bot_2">
</g>
<g id="Retro_Bot_3">
</g>
<g id="Retro_Bot_4">
</g>
<g id="Wall-E">
</g>
<g id="Eva">
</g>
<g id="Iron_Giant">
</g>
<g id="Marvin">
</g>
<g id="Atlas">
</g>
<g id="Claptrap">
</g>
<g id="Android">
</g>
<g id="Bender">
</g>
<g id="Roberto">
</g>
<g id="Robot_Devil">
</g>
<g id="Robocop">
</g>
<g id="ED_209">
</g>
<g id="Optimus_Prime">
	<g id="Optimus_Prime_1_">
		<g>
			<path d="M20.5,30c-0.053,0-0.106-0.008-0.158-0.026l-3-1c-0.219-0.073-0.359-0.286-0.34-0.516l1-12
				c0.017-0.199,0.15-0.37,0.34-0.433l2.804-0.935l1.48-2.961l-6.056,0.865c-1.304,0.201-1.835,0.201-3.146-0.001l-6.05-0.864
				l1.48,2.961l2.804,0.935c0.189,0.063,0.323,0.233,0.34,0.433l1,12c0.02,0.23-0.121,0.443-0.34,0.516l-3,1
				c-0.162,0.055-0.339,0.022-0.471-0.083l-5-4c-0.092-0.074-0.154-0.177-0.178-0.292l-4-20C-0.045,5.327,0.131,5.064,0.402,5.01
				C0.66,4.955,0.936,5.13,0.99,5.402l3.964,19.821L9.6,28.939l2.369-0.79l-0.939-11.28l-2.688-0.896
				c-0.126-0.042-0.229-0.132-0.289-0.25l-2-4c-0.083-0.167-0.067-0.365,0.042-0.516c0.108-0.151,0.289-0.23,0.476-0.203l7,1
				c1.217,0.187,1.643,0.187,2.854,0.001l7.006-1.001c0.185-0.023,0.367,0.053,0.476,0.203c0.109,0.151,0.125,0.35,0.042,0.516l-2,4
				c-0.06,0.119-0.163,0.209-0.289,0.25l-2.688,0.896l-0.939,11.28l2.369,0.79l4.646-3.716L29.01,5.402
				c0.055-0.271,0.33-0.447,0.588-0.392c0.271,0.054,0.447,0.317,0.393,0.588l-4,20c-0.023,0.115-0.086,0.219-0.178,0.292l-5,4
				C20.723,29.962,20.612,30,20.5,30z"/>
		</g>
		<g>
			<path d="M15,13c-0.116,0-0.231-0.04-0.325-0.121l-3.5-3c-0.133-0.114-0.197-0.289-0.168-0.461l1.5-9C12.547,0.177,12.756,0,13,0
				h4c0.244,0,0.453,0.177,0.493,0.418l1.5,9c0.029,0.172-0.035,0.348-0.168,0.461l-3.5,3C15.231,12.96,15.116,13,15,13z
				 M12.04,9.304L15,11.841l2.96-2.538L16.576,1h-3.152L12.04,9.304z"/>
		</g>
		<g>
			<path d="M3.001,18.5c-0.012,0-0.022,0-0.034-0.001c-0.275-0.019-0.484-0.257-0.466-0.532l0.496-7.434L1.01,0.598
				C0.98,0.451,1.019,0.299,1.113,0.183S1.351,0,1.5,0h1c0.21,0,0.398,0.131,0.47,0.329l4,11c0.095,0.26-0.039,0.546-0.299,0.641
				c-0.261,0.093-0.547-0.039-0.641-0.299L2.11,1l1.88,9.402c0.009,0.043,0.012,0.087,0.009,0.131l-0.5,7.5
				C3.481,18.297,3.262,18.5,3.001,18.5z"/>
		</g>
		<g>
			<path d="M26.999,18.5c-0.261,0-0.48-0.203-0.498-0.467l-0.5-7.5c-0.003-0.044,0-0.088,0.009-0.131L27.89,1h-0.039L23.97,11.671
				c-0.094,0.26-0.38,0.393-0.641,0.299c-0.26-0.094-0.394-0.381-0.299-0.641l4-11C27.102,0.131,27.29,0,27.5,0h1
				c0.149,0,0.292,0.067,0.387,0.183s0.133,0.268,0.104,0.415l-1.987,9.935l0.496,7.434c0.019,0.275-0.19,0.514-0.466,0.532
				C27.021,18.5,27.011,18.5,26.999,18.5z"/>
		</g>
		<g>
			<path d="M15,20c-0.097,0-0.193-0.028-0.277-0.084l-3-2c-0.229-0.153-0.292-0.463-0.139-0.693c0.154-0.23,0.465-0.291,0.693-0.139
				L15,18.899l2.723-1.815c0.228-0.153,0.539-0.092,0.693,0.139c0.153,0.23,0.091,0.54-0.139,0.693l-3,2
				C15.193,19.972,15.097,20,15,20z"/>
		</g>
		<g>
			<path d="M25.5,6.5c-0.133,0-0.267-0.053-0.364-0.158c-1.918-2.044-4.584-3.375-7.711-3.848c-0.272-0.041-0.461-0.296-0.419-0.569
				c0.041-0.273,0.3-0.461,0.569-0.419c3.351,0.507,6.217,1.943,8.289,4.152c0.189,0.202,0.18,0.518-0.022,0.707
				C25.745,6.455,25.623,6.5,25.5,6.5z"/>
		</g>
		<g>
			<path d="M4.5,6.5c-0.123,0-0.246-0.045-0.343-0.136c-0.201-0.189-0.21-0.506-0.021-0.707c2.086-2.211,4.952-3.646,8.288-4.151
				c0.27-0.037,0.528,0.146,0.569,0.419c0.042,0.273-0.146,0.528-0.419,0.569c-3.113,0.471-5.78,1.802-7.712,3.849
				C4.766,6.447,4.633,6.5,4.5,6.5z"/>
		</g>
		<g>
			<path d="M15,30c-0.063,0-0.126-0.012-0.186-0.036l-2.5-1c-0.257-0.103-0.381-0.394-0.278-0.65
				c0.103-0.257,0.394-0.383,0.649-0.279L15,28.961l2.314-0.926c0.255-0.104,0.547,0.022,0.649,0.279
				c0.103,0.256-0.021,0.547-0.278,0.65l-2.5,1C15.126,29.988,15.063,30,15,30z"/>
		</g>
		<g>
			<path d="M17.5,7h-5C12.224,7,12,6.776,12,6.5S12.224,6,12.5,6h5C17.776,6,18,6.224,18,6.5S17.776,7,17.5,7z"/>
		</g>
		<g>
			<path d="M17.5,5h-5C12.224,5,12,4.776,12,4.5S12.224,4,12.5,4h5C17.776,4,18,4.224,18,4.5S17.776,5,17.5,5z"/>
		</g>
		<g>
			<path d="M17,3h-4c-0.276,0-0.5-0.224-0.5-0.5S12.724,2,13,2h4c0.276,0,0.5,0.224,0.5,0.5S17.276,3,17,3z"/>
		</g>
		<g>
			<path d="M18,9h-6c-0.276,0-0.5-0.224-0.5-0.5S11.724,8,12,8h6c0.276,0,0.5,0.224,0.5,0.5S18.276,9,18,9z"/>
		</g>
		<g>
			<path d="M17,11h-3.75c-0.276,0-0.5-0.224-0.5-0.5s0.224-0.5,0.5-0.5H17c0.276,0,0.5,0.224,0.5,0.5S17.276,11,17,11z"/>
		</g>
		<g>
			<path d="M17.982,15.361c-0.503,0-0.999-0.171-1.336-0.507l-2-2c-0.195-0.195-0.195-0.512,0-0.707s0.512-0.195,0.707,0l2,2
				c0.297,0.296,0.996,0.296,1.293,0l1.963-2.459c0.174-0.215,0.487-0.25,0.703-0.078c0.216,0.173,0.25,0.487,0.078,0.703l-2,2.5
				C19.025,15.18,18.5,15.361,17.982,15.361z"/>
		</g>
		<g>
			<path d="M12,15.366c-0.506,0-1.012-0.17-1.354-0.512l-2.037-2.541c-0.172-0.216-0.138-0.53,0.078-0.703
				c0.217-0.171,0.531-0.137,0.703,0.078l2,2.5c0.259,0.254,0.96,0.255,1.256-0.041l2-2c0.195-0.195,0.512-0.195,0.707,0
				s0.195,0.512,0,0.707l-2,2C13.012,15.195,12.506,15.366,12,15.366z"/>
		</g>
		<g>
			<path d="M15,30c-0.276,0-0.5-0.224-0.5-0.5v-10c0-0.276,0.224-0.5,0.5-0.5s0.5,0.224,0.5,0.5v10C15.5,29.776,15.276,30,15,30z"/>
		</g>
		<g>
			<path d="M5.5,20c-0.075,0-0.151-0.017-0.224-0.053l-2-1c-0.247-0.124-0.347-0.424-0.224-0.671
				c0.125-0.248,0.424-0.345,0.671-0.224l2,1c0.247,0.124,0.347,0.424,0.224,0.671C5.859,19.899,5.683,20,5.5,20z"/>
		</g>
		<g>
			<path d="M5.5,22c-0.075,0-0.151-0.017-0.224-0.053l-2-1c-0.247-0.124-0.347-0.424-0.224-0.671
				c0.125-0.247,0.424-0.345,0.671-0.224l2,1c0.247,0.124,0.347,0.424,0.224,0.671C5.859,21.899,5.683,22,5.5,22z"/>
		</g>
		<g>
			<path d="M5.5,24c-0.096,0-0.192-0.027-0.277-0.084l-1.5-1c-0.229-0.153-0.292-0.463-0.139-0.693
				c0.154-0.23,0.465-0.291,0.693-0.139l1.5,1c0.229,0.153,0.292,0.463,0.139,0.693C5.819,23.922,5.661,24,5.5,24z"/>
		</g>
		<g>
			<path d="M24.5,20c-0.183,0-0.359-0.101-0.447-0.276c-0.123-0.247-0.023-0.547,0.224-0.671l2-1
				c0.247-0.123,0.547-0.024,0.671,0.224c0.123,0.247,0.023,0.547-0.224,0.671l-2,1C24.651,19.983,24.575,20,24.5,20z"/>
		</g>
		<g>
			<path d="M24.5,22c-0.183,0-0.359-0.101-0.447-0.276c-0.123-0.247-0.023-0.547,0.224-0.671l2-1
				c0.247-0.122,0.547-0.023,0.671,0.224c0.123,0.247,0.023,0.547-0.224,0.671l-2,1C24.651,21.983,24.575,22,24.5,22z"/>
		</g>
		<g>
			<path d="M24.5,24c-0.161,0-0.319-0.078-0.416-0.223c-0.153-0.23-0.091-0.54,0.139-0.693l1.5-1
				c0.228-0.152,0.538-0.092,0.693,0.139c0.153,0.23,0.091,0.54-0.139,0.693l-1.5,1C24.692,23.973,24.596,24,24.5,24z"/>
		</g>
	</g>
</g>
<g id="Robot_1">
</g>
<g id="Robot_2">
</g>
<g id="Robot_3">
</g>
<g id="Robot_Arm_1">
</g>
<g id="Robot_Arm_2">
</g>
<g id="Robot_Arm_3">
</g>
<g id="Robot_Arm_4">
</g>
<g id="Robot_Arm_5">
</g>
<g id="K5_Robot">
</g>
<g id="Robot_Machine_1">
</g>
<g id="Robot_Machine_2">
</g>
<g id="Artifical_Intelligence_1">
</g>
<g id="Artifical_Intelligence_2">
</g>
<g id="Robot_4">
</g>
<g id="Robot_5">
</g>
<g id="Robot_6">
</g>
<g id="Robot_7">
</g>
<g id="Robot_8">
</g>
<g id="Robot_9">
</g>
<g id="Robot_10">
</g>
<g id="Robot_11">
</g>
<g id="Robot_12">
</g>
<g id="Robot_13">
</g>
</svg>
