<?xml version="1.0" encoding="iso-8859-1"?>
<!-- Generator: Adobe Illustrator 19.2.1, SVG Export Plug-In . SVG Version: 6.00 Build 0)  -->
<svg version="1.1" xmlns="http://www.w3.org/2000/svg" xmlns:xlink="http://www.w3.org/1999/xlink" x="0px" y="0px"
	 viewBox="0 0 30 30" style="enable-background:new 0 0 30 30;" xml:space="preserve">
<g id="Retro_Bot_1">
</g>
<g id="Retro_Bot_2">
</g>
<g id="Retro_Bot_3">
</g>
<g id="Retro_Bot_4">
</g>
<g id="Wall-E">
</g>
<g id="Eva">
</g>
<g id="Iron_Giant">
</g>
<g id="Marvin">
</g>
<g id="Atlas">
</g>
<g id="Claptrap">
</g>
<g id="Android">
</g>
<g id="Bender">
</g>
<g id="Roberto">
</g>
<g id="Robot_Devil">
</g>
<g id="Robocop">
</g>
<g id="ED_209">
</g>
<g id="Optimus_Prime">
</g>
<g id="Robot_1">
</g>
<g id="Robot_2">
</g>
<g id="Robot_3">
</g>
<g id="Robot_Arm_1">
</g>
<g id="Robot_Arm_2">
</g>
<g id="Robot_Arm_3">
</g>
<g id="Robot_Arm_4">
	<g id="Robot-Arm_3_2_">
		<g>
			<path d="M15.5,8h-9C6.224,8,6,7.776,6,7.5v-7C6,0.224,6.224,0,6.5,0h9C15.776,0,16,0.224,16,0.5v7C16,7.776,15.776,8,15.5,8z
				 M7,7h8V1H7V7z"/>
		</g>
		<g>
			<path d="M6.25,4H3C2.724,4,2.5,3.776,2.5,3.5S2.724,3,3,3h3.25c0.276,0,0.5,0.224,0.5,0.5S6.526,4,6.25,4z"/>
		</g>
		<g>
			<path d="M26.5,4h-11C15.224,4,15,3.776,15,3.5S15.224,3,15.5,3h11C26.776,3,27,3.224,27,3.5S26.776,4,26.5,4z"/>
		</g>
		<g>
			<path d="M11.5,15h-1C8.832,15,7,13.168,7,11.5v-4C7,7.224,7.224,7,7.5,7h7C14.776,7,15,7.224,15,7.5v4
				C15,13.168,13.168,15,11.5,15z M8,8v3.5c0,1.098,1.402,2.5,2.5,2.5h1c1.098,0,2.5-1.402,2.5-2.5V8H8z"/>
		</g>
		<g>
			<path d="M22.5,17c-0.104,0-0.209-0.032-0.299-0.1l-8-6c-0.221-0.166-0.266-0.479-0.1-0.7s0.479-0.266,0.7-0.101l8,6
				c0.221,0.166,0.266,0.479,0.1,0.7C22.802,16.931,22.652,17,22.5,17z"/>
		</g>
		<g>
			<path d="M21.5,18c-0.044,0-0.088-0.006-0.132-0.018l-11-3c-0.267-0.072-0.424-0.348-0.351-0.614
				c0.073-0.266,0.349-0.422,0.614-0.351l11,3c0.267,0.072,0.424,0.348,0.351,0.614C21.922,17.854,21.72,18,21.5,18z"/>
		</g>
		<g>
			<path d="M11.5,30c-0.128,0-0.256-0.049-0.354-0.146c-0.195-0.195-0.195-0.512,0-0.707l3-3c0.195-0.195,0.512-0.195,0.707,0
				s0.195,0.512,0,0.707l-3,3C11.756,29.951,11.628,30,11.5,30z"/>
		</g>
		<g>
			<path d="M17,25.5c-0.128,0-0.256-0.049-0.354-0.146l-1-1c-0.189-0.189-0.196-0.494-0.015-0.691l5.5-6
				c0.187-0.203,0.502-0.219,0.707-0.03c0.204,0.187,0.217,0.503,0.031,0.706l-5.177,5.647l0.336,0.336l6.149-5.203
				c0.211-0.178,0.526-0.15,0.705,0.059c0.178,0.211,0.152,0.526-0.059,0.705l-6.5,5.5C17.229,25.461,17.115,25.5,17,25.5z"/>
		</g>
		<g>
			<path d="M15.5,28c-0.128,0-0.256-0.049-0.354-0.146l-2-2C13.053,25.76,13,25.633,13,25.5c0-0.264,0-0.291,2.153-2.36
				c0.197-0.188,0.507-0.186,0.7,0.007l2,2c0.195,0.195,0.195,0.512,0,0.707l-2,2C15.756,27.951,15.628,28,15.5,28z M14.19,25.483
				l1.31,1.31l1.293-1.293l-1.299-1.299C14.987,24.69,14.491,25.179,14.19,25.483z"/>
		</g>
		<g>
			<path d="M23,20c-1.103,0-2-0.897-2-2s0.897-2,2-2s2,0.897,2,2S24.103,20,23,20z M23,17c-0.551,0-1,0.448-1,1s0.449,1,1,1
				s1-0.448,1-1S23.551,17,23,17z"/>
		</g>
		<g>
			<path d="M26.5,7h-11C15.224,7,15,6.776,15,6.5S15.224,6,15.5,6h11C27.878,6,29,4.879,29,3.5S27.878,1,26.5,1h-23
				C2.122,1,1,2.121,1,3.5S2.122,6,3.5,6h3C6.776,6,7,6.224,7,6.5S6.776,7,6.5,7h-3C1.57,7,0,5.43,0,3.5S1.57,0,3.5,0h23
				C28.43,0,30,1.57,30,3.5S28.43,7,26.5,7z"/>
		</g>
	</g>
</g>
<g id="Robot_Arm_5">
</g>
<g id="K5_Robot">
</g>
<g id="Robot_Machine_1">
</g>
<g id="Robot_Machine_2">
</g>
<g id="Artifical_Intelligence_1">
</g>
<g id="Artifical_Intelligence_2">
</g>
<g id="Robot_4">
</g>
<g id="Robot_5">
</g>
<g id="Robot_6">
</g>
<g id="Robot_7">
</g>
<g id="Robot_8">
</g>
<g id="Robot_9">
</g>
<g id="Robot_10">
</g>
<g id="Robot_11">
</g>
<g id="Robot_12">
</g>
<g id="Robot_13">
</g>
</svg>
