<?xml version="1.0" encoding="iso-8859-1"?>
<!-- Generator: Adobe Illustrator 19.2.1, SVG Export Plug-In . SVG Version: 6.00 Build 0)  -->
<svg version="1.1" xmlns="http://www.w3.org/2000/svg" xmlns:xlink="http://www.w3.org/1999/xlink" x="0px" y="0px"
	 viewBox="0 0 30 30" style="enable-background:new 0 0 30 30;" xml:space="preserve">
<g id="Retro_Bot_1">
</g>
<g id="Retro_Bot_2">
</g>
<g id="Retro_Bot_3">
</g>
<g id="Retro_Bot_4">
</g>
<g id="Wall-E">
</g>
<g id="Eva">
</g>
<g id="Iron_Giant">
</g>
<g id="Marvin">
</g>
<g id="Atlas">
</g>
<g id="Claptrap">
</g>
<g id="Android">
</g>
<g id="Bender">
</g>
<g id="Roberto">
</g>
<g id="Robot_Devil">
</g>
<g id="Robocop">
</g>
<g id="ED_209">
</g>
<g id="Optimus_Prime">
</g>
<g id="Robot_1">
</g>
<g id="Robot_2">
</g>
<g id="Robot_3">
</g>
<g id="Robot_Arm_1">
</g>
<g id="Robot_Arm_2">
</g>
<g id="Robot_Arm_3">
</g>
<g id="Robot_Arm_4">
</g>
<g id="Robot_Arm_5">
</g>
<g id="K5_Robot">
</g>
<g id="Robot_Machine_1">
</g>
<g id="Robot_Machine_2">
</g>
<g id="Artifical_Intelligence_1">
</g>
<g id="Artifical_Intelligence_2">
</g>
<g id="Robot_4">
</g>
<g id="Robot_5">
</g>
<g id="Robot_6">
</g>
<g id="Robot_7">
</g>
<g id="Robot_8">
</g>
<g id="Robot_9">
</g>
<g id="Robot_10">
</g>
<g id="Robot_11">
</g>
<g id="Robot_12">
	<g>
		<g>
			<path d="M10.5,24h-3C7.224,24,7,23.776,7,23.5S7.224,23,7.5,23h3c0.276,0,0.5,0.224,0.5,0.5S10.776,24,10.5,24z"/>
		</g>
		<g>
			<path d="M10.5,26h-3C7.224,26,7,25.776,7,25.5S7.224,25,7.5,25h3c0.276,0,0.5,0.224,0.5,0.5S10.776,26,10.5,26z"/>
		</g>
		<g>
			<path d="M10.5,28h-3C7.224,28,7,27.776,7,27.5S7.224,27,7.5,27h3c0.276,0,0.5,0.224,0.5,0.5S10.776,28,10.5,28z"/>
		</g>
		<g>
			<path d="M21.5,24h-3c-0.276,0-0.5-0.224-0.5-0.5s0.224-0.5,0.5-0.5h3c0.276,0,0.5,0.224,0.5,0.5S21.776,24,21.5,24z"/>
		</g>
		<g>
			<path d="M21.5,26h-3c-0.276,0-0.5-0.224-0.5-0.5s0.224-0.5,0.5-0.5h3c0.276,0,0.5,0.224,0.5,0.5S21.776,26,21.5,26z"/>
		</g>
		<g>
			<path d="M21.5,28h-3c-0.276,0-0.5-0.224-0.5-0.5s0.224-0.5,0.5-0.5h3c0.276,0,0.5,0.224,0.5,0.5S21.776,28,21.5,28z"/>
		</g>
		<g>
			<path d="M14.5,24c-0.276,0-0.5-0.224-0.5-0.5v-2c0-0.276,0.224-0.5,0.5-0.5s0.5,0.224,0.5,0.5v2C15,23.776,14.776,24,14.5,24z"/>
		</g>
		<g>
			<path d="M15,22h-1c-0.211,0-0.4-0.133-0.471-0.332C13.04,20.295,12.811,20,11.5,20C10.582,20,9,19.012,9,18V9.5
				C9,8.121,10.121,7,11.5,7h6C18.879,7,20,8.121,20,9.5V18c0,1.012-1.582,2-2.5,2c-1.311,0-1.54,0.295-2.029,1.668
				C15.4,21.867,15.211,22,15,22z M14.349,21h0.303c0.477-1.252,1.01-2,2.849-2c0.531,0,1.5-0.701,1.5-1V9.5
				C19,8.673,18.327,8,17.5,8h-6C10.673,8,10,8.673,10,9.5V18c0,0.299,0.969,1,1.5,1C13.339,19,13.872,19.748,14.349,21z"/>
		</g>
		<g>
			<path d="M13.5,26h-1c-0.276,0-0.5-0.224-0.5-0.5s0.224-0.5,0.5-0.5h1c0.276,0,0.5,0.224,0.5,0.5S13.776,26,13.5,26z"/>
		</g>
		<g>
			<path d="M16.5,26h-1c-0.276,0-0.5-0.224-0.5-0.5s0.224-0.5,0.5-0.5h1c0.276,0,0.5,0.224,0.5,0.5S16.776,26,16.5,26z"/>
		</g>
		<g>
			<path d="M17.5,8h-6C11.224,8,11,7.776,11,7.5v-7C11,0.224,11.224,0,11.5,0h6C17.776,0,18,0.224,18,0.5v7
				C18,7.776,17.776,8,17.5,8z M12,7h5V1h-5V7z"/>
		</g>
		<g>
			<path d="M6.5,19c-0.109,0-0.219-0.035-0.311-0.108C4.839,17.823,4,16.14,4,14.5C4,11.468,6.468,9,9.5,9C9.776,9,10,9.224,10,9.5
				S9.776,10,9.5,10C7.019,10,5,12.019,5,14.5c0,1.342,0.693,2.724,1.811,3.608c0.216,0.171,0.253,0.485,0.081,0.702
				C6.793,18.935,6.647,19,6.5,19z"/>
		</g>
		<g>
			<path d="M17.5,3h-6C11.224,3,11,2.776,11,2.5S11.224,2,11.5,2h6C17.776,2,18,2.224,18,2.5S17.776,3,17.5,3z"/>
		</g>
		<g>
			<path d="M14.5,6C14.224,6,14,5.776,14,5.5V3c0-0.276,0.224-0.5,0.5-0.5S15,2.724,15,3v2.5C15,5.776,14.776,6,14.5,6z"/>
		</g>
		<g>
			<path d="M17.5,17h-6c-0.276,0-0.5-0.224-0.5-0.5s0.224-0.5,0.5-0.5h6c0.276,0,0.5,0.224,0.5,0.5S17.776,17,17.5,17z"/>
		</g>
		<g>
			<path d="M12.5,30h-7C5.224,30,5,29.776,5,29.5v-8C5,21.224,5.224,21,5.5,21h7c0.276,0,0.5,0.224,0.5,0.5v8
				C13,29.776,12.776,30,12.5,30z M6,29h6v-7H6V29z"/>
		</g>
		<g>
			<path d="M23.5,30h-7c-0.276,0-0.5-0.224-0.5-0.5v-8c0-0.276,0.224-0.5,0.5-0.5h7c0.276,0,0.5,0.224,0.5,0.5v8
				C24,29.776,23.776,30,23.5,30z M17,29h6v-7h-6V29z"/>
		</g>
		<g>
			<path d="M14.5,27c-0.827,0-1.5-0.673-1.5-1.5s0.673-1.5,1.5-1.5s1.5,0.673,1.5,1.5S15.327,27,14.5,27z M14.5,25
				c-0.275,0-0.5,0.225-0.5,0.5s0.225,0.5,0.5,0.5s0.5-0.225,0.5-0.5S14.775,25,14.5,25z"/>
		</g>
		<g>
			<path d="M17.5,15h-4c-0.276,0-0.5-0.224-0.5-0.5s0.224-0.5,0.5-0.5H17v-2h-3.5c-0.276,0-0.5-0.224-0.5-0.5s0.224-0.5,0.5-0.5h4
				c0.276,0,0.5,0.224,0.5,0.5v3C18,14.776,17.776,15,17.5,15z"/>
		</g>
		<g>
			<circle cx="11.5" cy="14.5" r="0.5"/>
		</g>
		<g>
			<circle cx="11.5" cy="11.5" r="0.5"/>
		</g>
		<g>
			<circle cx="7.5" cy="19" r="1"/>
		</g>
		<g>
			<path d="M22.5,19c-0.147,0-0.293-0.065-0.392-0.189c-0.172-0.217-0.135-0.531,0.081-0.702C23.307,17.224,24,15.842,24,14.5
				c0-2.481-2.019-4.5-4.5-4.5C19.224,10,19,9.776,19,9.5S19.224,9,19.5,9c3.032,0,5.5,2.468,5.5,5.5
				c0,1.64-0.839,3.323-2.189,4.392C22.719,18.965,22.609,19,22.5,19z"/>
		</g>
		<g>
			<circle cx="21.5" cy="19" r="1"/>
		</g>
	</g>
</g>
<g id="Robot_13">
</g>
</svg>
