<?xml version="1.0" encoding="iso-8859-1"?>
<!-- Generator: Adobe Illustrator 19.2.1, SVG Export Plug-In . SVG Version: 6.00 Build 0)  -->
<svg version="1.1" xmlns="http://www.w3.org/2000/svg" xmlns:xlink="http://www.w3.org/1999/xlink" x="0px" y="0px"
	 viewBox="0 0 30 30" style="enable-background:new 0 0 30 30;" xml:space="preserve">
<g id="Retro_Bot_1">
</g>
<g id="Retro_Bot_2">
</g>
<g id="Retro_Bot_3">
</g>
<g id="Retro_Bot_4">
</g>
<g id="Wall-E">
</g>
<g id="Eva">
</g>
<g id="Iron_Giant">
</g>
<g id="Marvin">
</g>
<g id="Atlas">
</g>
<g id="Claptrap">
</g>
<g id="Android">
</g>
<g id="Bender">
</g>
<g id="Roberto">
</g>
<g id="Robot_Devil">
</g>
<g id="Robocop">
</g>
<g id="ED_209">
</g>
<g id="Optimus_Prime">
</g>
<g id="Robot_1">
	<g id="Big_Robot_1_">
		<g>
			<path d="M18.5,9h-7C11.224,9,11,8.776,11,8.5v-5C11,1.57,12.57,0,14.5,0h1C17.43,0,19,1.57,19,3.5v5C19,8.776,18.776,9,18.5,9z
				 M12,8h6V3.5C18,2.122,16.879,1,15.5,1h-1C13.121,1,12,2.122,12,3.5V8z"/>
		</g>
		<g>
			<path d="M21.5,15h-13C8.224,15,8,14.776,8,14.5v-6C8,8.224,8.224,8,8.5,8h13C21.776,8,22,8.224,22,8.5v6
				C22,14.776,21.776,15,21.5,15z M9,14h12V9H9V14z"/>
		</g>
		<g>
			<path d="M13.5,27c-0.276,0-0.5-0.224-0.5-0.5V15h-3v11.5c0,0.276-0.224,0.5-0.5,0.5S9,26.776,9,26.5v-12
				C9,14.224,9.224,14,9.5,14h4c0.276,0,0.5,0.224,0.5,0.5v12C14,26.776,13.776,27,13.5,27z"/>
		</g>
		<g>
			<path d="M13.5,20h-4C9.224,20,9,19.776,9,19.5S9.224,19,9.5,19h4c0.276,0,0.5,0.224,0.5,0.5S13.776,20,13.5,20z"/>
		</g>
		<g>
			<path d="M20.5,20h-4c-0.276,0-0.5-0.224-0.5-0.5s0.224-0.5,0.5-0.5h4c0.276,0,0.5,0.224,0.5,0.5S20.776,20,20.5,20z"/>
		</g>
		<g>
			<path d="M13.5,23h-4C9.224,23,9,22.776,9,22.5S9.224,22,9.5,22h4c0.276,0,0.5,0.224,0.5,0.5S13.776,23,13.5,23z"/>
		</g>
		<g>
			<path d="M20.5,27c-0.276,0-0.5-0.224-0.5-0.5V15h-3v11.5c0,0.276-0.224,0.5-0.5,0.5S16,26.776,16,26.5v-12
				c0-0.276,0.224-0.5,0.5-0.5h4c0.276,0,0.5,0.224,0.5,0.5v12C21,26.776,20.776,27,20.5,27z"/>
		</g>
		<g>
			<path d="M20.5,23h-4c-0.276,0-0.5-0.224-0.5-0.5s0.224-0.5,0.5-0.5h4c0.276,0,0.5,0.224,0.5,0.5S20.776,23,20.5,23z"/>
		</g>
		<g>
			<path d="M14.5,30h-6C8.224,30,8,29.776,8,29.5V29c0-1.387,1.092-3,2.5-3h2c1.408,0,2.5,1.613,2.5,3v0.5
				C15,29.776,14.776,30,14.5,30z M9,29h5c0-0.873-0.728-2-1.5-2h-2C9.728,27,9,28.127,9,29z"/>
		</g>
		<g>
			<path d="M21.5,30h-6c-0.276,0-0.5-0.224-0.5-0.5V29c0-1.387,1.092-3,2.5-3h2c1.408,0,2.5,1.613,2.5,3v0.5
				C22,29.776,21.776,30,21.5,30z M16,29h5c0-0.873-0.728-2-1.5-2h-2C16.728,27,16,28.127,16,29z"/>
		</g>
		<g>
			<path d="M27.5,18h-4c-0.276,0-0.5-0.224-0.5-0.5v-1c0-0.827,0.673-1.5,1.5-1.5h2c0.827,0,1.5,0.673,1.5,1.5v1
				C28,17.776,27.776,18,27.5,18z M24,17h3v-0.5c0-0.276-0.225-0.5-0.5-0.5h-2c-0.275,0-0.5,0.224-0.5,0.5V17z"/>
		</g>
		<g>
			<path d="M26.5,16c-0.276,0-0.5-0.224-0.5-0.5v-3c0-2.066-1.632-2.5-3-2.5h-1.5C21.224,10,21,9.776,21,9.5S21.224,9,21.5,9H23
				c2.505,0,4,1.309,4,3.5v3C27,15.776,26.776,16,26.5,16z"/>
		</g>
		<g>
			<path d="M24.5,16c-0.276,0-0.5-0.224-0.5-0.5v-3c0-0.341-0.597-0.5-1-0.5h-1.5c-0.276,0-0.5-0.224-0.5-0.5s0.224-0.5,0.5-0.5H23
				c0.994,0,2,0.515,2,1.5v3C25,15.776,24.776,16,24.5,16z"/>
		</g>
		<g>
			<path d="M23.5,19c-0.276,0-0.5-0.224-0.5-0.5v-1.25c0-0.276,0.224-0.5,0.5-0.5s0.5,0.224,0.5,0.5v1.25
				C24,18.776,23.776,19,23.5,19z"/>
		</g>
		<g>
			<path d="M25.5,19c-0.276,0-0.5-0.224-0.5-0.5v-1c0-0.276,0.224-0.5,0.5-0.5s0.5,0.224,0.5,0.5v1C26,18.776,25.776,19,25.5,19z"/>
		</g>
		<g>
			<path d="M27.5,19c-0.276,0-0.5-0.224-0.5-0.5v-1.25c0-0.276,0.224-0.5,0.5-0.5s0.5,0.224,0.5,0.5v1.25
				C28,18.776,27.776,19,27.5,19z"/>
		</g>
		<g>
			<path d="M6.5,18h-4C2.224,18,2,17.776,2,17.5v-1C2,15.673,2.673,15,3.5,15h2C6.327,15,7,15.673,7,16.5v1
				C7,17.776,6.776,18,6.5,18z M3,17h3v-0.5C6,16.224,5.775,16,5.5,16h-2C3.225,16,3,16.224,3,16.5V17z"/>
		</g>
		<g>
			<path d="M3.5,16C3.224,16,3,15.776,3,15.5v-3C3,10.309,4.495,9,7,9h1.5C8.776,9,9,9.224,9,9.5S8.776,10,8.5,10H7
				c-1.368,0-3,0.434-3,2.5v3C4,15.776,3.776,16,3.5,16z"/>
		</g>
		<g>
			<path d="M5.5,16C5.224,16,5,15.776,5,15.5v-3C5,11.515,6.006,11,7,11h1.5C8.776,11,9,11.224,9,11.5S8.776,12,8.5,12H7
				c-0.403,0-1,0.159-1,0.5v3C6,15.776,5.776,16,5.5,16z"/>
		</g>
		<g>
			<path d="M6.5,19C6.224,19,6,18.776,6,18.5v-1.25c0-0.276,0.224-0.5,0.5-0.5S7,16.974,7,17.25v1.25C7,18.776,6.776,19,6.5,19z"/>
		</g>
		<g>
			<path d="M4.5,19C4.224,19,4,18.776,4,18.5v-1C4,17.224,4.224,17,4.5,17S5,17.224,5,17.5v1C5,18.776,4.776,19,4.5,19z"/>
		</g>
		<g>
			<path d="M2.5,19C2.224,19,2,18.776,2,18.5v-1.25c0-0.276,0.224-0.5,0.5-0.5S3,16.974,3,17.25v1.25C3,18.776,2.776,19,2.5,19z"/>
		</g>
		<g>
			<path d="M10.5,13c-0.276,0-0.5-0.224-0.5-0.5v-2c0-0.276,0.224-0.5,0.5-0.5s0.5,0.224,0.5,0.5v2C11,12.776,10.776,13,10.5,13z"/>
		</g>
		<g>
			<path d="M13.5,13c-0.276,0-0.5-0.224-0.5-0.5v-2c0-0.276,0.224-0.5,0.5-0.5s0.5,0.224,0.5,0.5v2C14,12.776,13.776,13,13.5,13z"/>
		</g>
		<g>
			<path d="M16.5,13c-0.276,0-0.5-0.224-0.5-0.5v-2c0-0.276,0.224-0.5,0.5-0.5s0.5,0.224,0.5,0.5v2C17,12.776,16.776,13,16.5,13z"/>
		</g>
		<g>
			<path d="M19.5,13c-0.276,0-0.5-0.224-0.5-0.5v-2c0-0.276,0.224-0.5,0.5-0.5s0.5,0.224,0.5,0.5v2C20,12.776,19.776,13,19.5,13z"/>
		</g>
		<g>
			<path d="M15,6c-1.103,0-2-0.897-2-2s0.897-2,2-2s2,0.897,2,2S16.103,6,15,6z M15,3c-0.552,0-1,0.449-1,1s0.448,1,1,1s1-0.449,1-1
				S15.552,3,15,3z"/>
		</g>
	</g>
</g>
<g id="Robot_2">
</g>
<g id="Robot_3">
</g>
<g id="Robot_Arm_1">
</g>
<g id="Robot_Arm_2">
</g>
<g id="Robot_Arm_3">
</g>
<g id="Robot_Arm_4">
</g>
<g id="Robot_Arm_5">
</g>
<g id="K5_Robot">
</g>
<g id="Robot_Machine_1">
</g>
<g id="Robot_Machine_2">
</g>
<g id="Artifical_Intelligence_1">
</g>
<g id="Artifical_Intelligence_2">
</g>
<g id="Robot_4">
</g>
<g id="Robot_5">
</g>
<g id="Robot_6">
</g>
<g id="Robot_7">
</g>
<g id="Robot_8">
</g>
<g id="Robot_9">
</g>
<g id="Robot_10">
</g>
<g id="Robot_11">
</g>
<g id="Robot_12">
</g>
<g id="Robot_13">
</g>
</svg>
