<?xml version="1.0" encoding="iso-8859-1"?>
<!-- Generator: Adobe Illustrator 19.2.1, SVG Export Plug-In . SVG Version: 6.00 Build 0)  -->
<svg version="1.1" xmlns="http://www.w3.org/2000/svg" xmlns:xlink="http://www.w3.org/1999/xlink" x="0px" y="0px"
	 viewBox="0 0 30 30" style="enable-background:new 0 0 30 30;" xml:space="preserve">
<g id="Retro_Bot_1">
</g>
<g id="Retro_Bot_2">
</g>
<g id="Retro_Bot_3">
</g>
<g id="Retro_Bot_4">
</g>
<g id="Wall-E">
</g>
<g id="Eva">
</g>
<g id="Iron_Giant">
</g>
<g id="Marvin">
</g>
<g id="Atlas">
</g>
<g id="Claptrap">
</g>
<g id="Android">
</g>
<g id="Bender">
</g>
<g id="Roberto">
</g>
<g id="Robot_Devil">
</g>
<g id="Robocop">
</g>
<g id="ED_209">
</g>
<g id="Optimus_Prime">
</g>
<g id="Robot_1">
</g>
<g id="Robot_2">
</g>
<g id="Robot_3">
</g>
<g id="Robot_Arm_1">
</g>
<g id="Robot_Arm_2">
</g>
<g id="Robot_Arm_3">
</g>
<g id="Robot_Arm_4">
</g>
<g id="Robot_Arm_5">
</g>
<g id="K5_Robot">
</g>
<g id="Robot_Machine_1">
</g>
<g id="Robot_Machine_2">
</g>
<g id="Artifical_Intelligence_1">
</g>
<g id="Artifical_Intelligence_2">
</g>
<g id="Robot_4">
</g>
<g id="Robot_5">
</g>
<g id="Robot_6">
	<g>
		<g>
			<path d="M17.5,14h-4c-0.276,0-0.5-0.224-0.5-0.5s0.224-0.5,0.5-0.5h4c0.276,0,0.5,0.224,0.5,0.5S17.776,14,17.5,14z"/>
		</g>
		<g>
			<path d="M4.5,21c-0.032,0-0.065-0.003-0.099-0.01c-0.271-0.054-0.446-0.317-0.392-0.588l1-5C5.219,13.931,6.558,13,8.5,13
				C8.776,13,9,13.224,9,13.5S8.776,14,8.5,14c-0.535,0-2.297,0.113-2.505,1.57L4.99,20.598C4.943,20.836,4.734,21,4.5,21z"/>
		</g>
		<g>
			<path d="M5.5,22C5.224,22,5,21.776,5,21.5C5,21.084,4.916,21,4.5,21S4,21.084,4,21.5C4,21.776,3.776,22,3.5,22S3,21.776,3,21.5
				C3,20.532,3.533,20,4.5,20S6,20.532,6,21.5C6,21.776,5.776,22,5.5,22z"/>
		</g>
		<g>
			<path d="M24.5,21c-0.233,0-0.442-0.164-0.49-0.402l-1-5C22.797,14.113,21.035,14,20.5,14c-0.276,0-0.5-0.224-0.5-0.5
				s0.224-0.5,0.5-0.5c1.942,0,3.281,0.931,3.495,2.43l0.995,4.973c0.054,0.271-0.122,0.534-0.392,0.588
				C24.565,20.997,24.532,21,24.5,21z"/>
		</g>
		<g>
			<path d="M25.5,22c-0.276,0-0.5-0.224-0.5-0.5c0-0.416-0.084-0.5-0.5-0.5S24,21.084,24,21.5c0,0.276-0.224,0.5-0.5,0.5
				S23,21.776,23,21.5c0-0.968,0.533-1.5,1.5-1.5s1.5,0.532,1.5,1.5C26,21.776,25.776,22,25.5,22z"/>
		</g>
		<g>
			<path d="M8.5,6C8.224,6,8,5.776,8,5.5v-1C8,4.224,8.224,4,8.5,4S9,4.224,9,4.5v1C9,5.776,8.776,6,8.5,6z"/>
		</g>
		<g>
			<path d="M20.5,6C20.224,6,20,5.776,20,5.5v-1C20,4.224,20.224,4,20.5,4S21,4.224,21,4.5v1C21,5.776,20.776,6,20.5,6z"/>
		</g>
		<g>
			<path d="M20.5,23h-12C8.224,23,8,22.776,8,22.5v-12C8,10.224,8.224,10,8.5,10h12c0.276,0,0.5,0.224,0.5,0.5v12
				C21,22.776,20.776,23,20.5,23z M9,22h11V11H9V22z"/>
		</g>
		<g>
			<path d="M14.5,11C11.467,11,9,8.532,9,5.5S11.467,0,14.5,0S20,2.468,20,5.5S17.533,11,14.5,11z M14.5,1C12.019,1,10,3.019,10,5.5
				s2.019,4.5,4.5,4.5S19,7.981,19,5.5S16.981,1,14.5,1z"/>
		</g>
		<g>
			<path d="M17.5,20h-6c-0.276,0-0.5-0.224-0.5-0.5v-4c0-0.276,0.224-0.5,0.5-0.5h6c0.276,0,0.5,0.224,0.5,0.5v4
				C18,19.776,17.776,20,17.5,20z M12,19h5v-3h-5V19z"/>
		</g>
		<g>
			<circle cx="11.5" cy="13.5" r="0.5"/>
		</g>
		<g>
			<path d="M20.5,30h-12C8.224,30,8,29.776,8,29.5S8.224,29,8.5,29h12c0.276,0,0.5,0.224,0.5,0.5S20.776,30,20.5,30z"/>
		</g>
		<g>
			<path d="M12.5,30h-3C9.224,30,9,29.776,9,29.5v-7C9,22.224,9.224,22,9.5,22h3c0.276,0,0.5,0.224,0.5,0.5v7
				C13,29.776,12.776,30,12.5,30z M10,29h2v-6h-2V29z"/>
		</g>
		<g>
			<path d="M19.5,30h-3c-0.276,0-0.5-0.224-0.5-0.5v-7c0-0.276,0.224-0.5,0.5-0.5h3c0.276,0,0.5,0.224,0.5,0.5v7
				C20,29.776,19.776,30,19.5,30z M17,29h2v-6h-2V29z"/>
		</g>
		<g>
			<path d="M16.5,6C15.673,6,15,5.327,15,4.5S15.673,3,16.5,3S18,3.673,18,4.5S17.327,6,16.5,6z M16.5,4C16.224,4,16,4.225,16,4.5
				S16.224,5,16.5,5S17,4.775,17,4.5S16.776,4,16.5,4z"/>
		</g>
		<g>
			<path d="M12.5,6C11.673,6,11,5.327,11,4.5S11.673,3,12.5,3S14,3.673,14,4.5S13.327,6,12.5,6z M12.5,4C12.224,4,12,4.225,12,4.5
				S12.224,5,12.5,5S13,4.775,13,4.5S12.776,4,12.5,4z"/>
		</g>
		<g>
			<path d="M16.5,8h-4C12.224,8,12,7.776,12,7.5S12.224,7,12.5,7h4C16.776,7,17,7.224,17,7.5S16.776,8,16.5,8z"/>
		</g>
	</g>
</g>
<g id="Robot_7">
</g>
<g id="Robot_8">
</g>
<g id="Robot_9">
</g>
<g id="Robot_10">
</g>
<g id="Robot_11">
</g>
<g id="Robot_12">
</g>
<g id="Robot_13">
</g>
</svg>
