<?xml version="1.0" encoding="iso-8859-1"?>
<!-- Generator: Adobe Illustrator 19.2.1, SVG Export Plug-In . SVG Version: 6.00 Build 0)  -->
<svg version="1.1" xmlns="http://www.w3.org/2000/svg" xmlns:xlink="http://www.w3.org/1999/xlink" x="0px" y="0px"
	 viewBox="0 0 30 30" style="enable-background:new 0 0 30 30;" xml:space="preserve">
<g id="Retro_Bot_1">
</g>
<g id="Retro_Bot_2">
</g>
<g id="Retro_Bot_3">
</g>
<g id="Retro_Bot_4">
</g>
<g id="Wall-E">
</g>
<g id="Eva">
</g>
<g id="Iron_Giant">
</g>
<g id="Marvin">
</g>
<g id="Atlas">
</g>
<g id="Claptrap">
</g>
<g id="Android">
</g>
<g id="Bender">
</g>
<g id="Roberto">
</g>
<g id="Robot_Devil">
</g>
<g id="Robocop">
</g>
<g id="ED_209">
</g>
<g id="Optimus_Prime">
</g>
<g id="Robot_1">
</g>
<g id="Robot_2">
</g>
<g id="Robot_3">
</g>
<g id="Robot_Arm_1">
</g>
<g id="Robot_Arm_2">
</g>
<g id="Robot_Arm_3">
</g>
<g id="Robot_Arm_4">
</g>
<g id="Robot_Arm_5">
</g>
<g id="K5_Robot">
</g>
<g id="Robot_Machine_1">
</g>
<g id="Robot_Machine_2">
</g>
<g id="Artifical_Intelligence_1">
</g>
<g id="Artifical_Intelligence_2">
</g>
<g id="Robot_4">
</g>
<g id="Robot_5">
</g>
<g id="Robot_6">
</g>
<g id="Robot_7">
</g>
<g id="Robot_8">
</g>
<g id="Robot_9">
</g>
<g id="Robot_10">
	<g>
		<g>
			<path d="M20.5,16h-3c-0.276,0-0.5-0.224-0.5-0.5v-5c0-0.276,0.224-0.5,0.5-0.5h3c0.276,0,0.5,0.224,0.5,0.5v5
				C21,15.776,20.776,16,20.5,16z M18,15h2v-4h-2V15z"/>
		</g>
		<g>
			<path d="M12.5,16h-3C9.224,16,9,15.776,9,15.5v-5C9,10.224,9.224,10,9.5,10h3c0.276,0,0.5,0.224,0.5,0.5v5
				C13,15.776,12.776,16,12.5,16z M10,15h2v-4h-2V15z"/>
		</g>
		<g>
			<path d="M13.5,25c-0.276,0-0.5-0.224-0.5-0.5v-4c0-0.276,0.224-0.5,0.5-0.5s0.5,0.224,0.5,0.5v4C14,24.776,13.776,25,13.5,25z"/>
		</g>
		<g>
			<path d="M16.5,25c-0.276,0-0.5-0.224-0.5-0.5v-4c0-0.276,0.224-0.5,0.5-0.5s0.5,0.224,0.5,0.5v4C17,24.776,16.776,25,16.5,25z"/>
		</g>
		<g>
			<path d="M18.5,24c-0.276,0-0.5-0.224-0.5-0.5v-2c0-0.276,0.224-0.5,0.5-0.5s0.5,0.224,0.5,0.5v2C19,23.776,18.776,24,18.5,24z"/>
		</g>
		<g>
			<path d="M11.5,24c-0.276,0-0.5-0.224-0.5-0.5v-2c0-0.276,0.224-0.5,0.5-0.5s0.5,0.224,0.5,0.5v2C12,23.776,11.776,24,11.5,24z"/>
		</g>
		<g>
			<path d="M25.5,30h-21C4.224,30,4,29.776,4,29.5v-20C4,4.262,8.262,0,13.5,0h3C21.738,0,26,4.262,26,9.5v20
				C26,29.776,25.776,30,25.5,30z M5,29h20V9.5C25,4.813,21.187,1,16.5,1h-3C8.813,1,5,4.813,5,9.5V29z"/>
		</g>
		<g>
			<path d="M23,4H7C6.724,4,6.5,3.776,6.5,3.5S6.724,3,7,3h16c0.276,0,0.5,0.224,0.5,0.5S23.276,4,23,4z"/>
		</g>
		<g>
			<path d="M22.5,11h-15C7.224,11,7,10.776,7,10.5S7.224,10,7.5,10h15c0.276,0,0.5,0.224,0.5,0.5S22.776,11,22.5,11z"/>
		</g>
		<g>
			<path d="M22.5,16h-15C7.224,16,7,15.776,7,15.5S7.224,15,7.5,15h15c0.276,0,0.5,0.224,0.5,0.5S22.776,16,22.5,16z"/>
		</g>
	</g>
</g>
<g id="Robot_11">
</g>
<g id="Robot_12">
</g>
<g id="Robot_13">
</g>
</svg>
