<?xml version="1.0" encoding="iso-8859-1"?>
<!-- Generator: Adobe Illustrator 19.2.1, SVG Export Plug-In . SVG Version: 6.00 Build 0)  -->
<svg version="1.1" xmlns="http://www.w3.org/2000/svg" xmlns:xlink="http://www.w3.org/1999/xlink" x="0px" y="0px"
	 viewBox="0 0 30 30" style="enable-background:new 0 0 30 30;" xml:space="preserve">
<g id="Retro_Bot_1">
</g>
<g id="Retro_Bot_2">
</g>
<g id="Retro_Bot_3">
</g>
<g id="Retro_Bot_4">
</g>
<g id="Wall-E">
</g>
<g id="Eva">
</g>
<g id="Iron_Giant">
</g>
<g id="Marvin">
</g>
<g id="Atlas">
</g>
<g id="Claptrap">
</g>
<g id="Android">
</g>
<g id="Bender">
</g>
<g id="Roberto">
</g>
<g id="Robot_Devil">
</g>
<g id="Robocop">
</g>
<g id="ED_209">
</g>
<g id="Optimus_Prime">
</g>
<g id="Robot_1">
</g>
<g id="Robot_2">
</g>
<g id="Robot_3">
</g>
<g id="Robot_Arm_1">
</g>
<g id="Robot_Arm_2">
</g>
<g id="Robot_Arm_3">
</g>
<g id="Robot_Arm_4">
</g>
<g id="Robot_Arm_5">
</g>
<g id="K5_Robot">
</g>
<g id="Robot_Machine_1">
</g>
<g id="Robot_Machine_2">
</g>
<g id="Artifical_Intelligence_1">
</g>
<g id="Artifical_Intelligence_2">
</g>
<g id="Robot_4">
</g>
<g id="Robot_5">
</g>
<g id="Robot_6">
</g>
<g id="Robot_7">
</g>
<g id="Robot_8">
</g>
<g id="Robot_9">
</g>
<g id="Robot_10">
</g>
<g id="Robot_11">
</g>
<g id="Robot_12">
</g>
<g id="Robot_13">
	<g>
		<g>
			<path d="M18.5,9h-8C10.224,9,10,8.776,10,8.5S10.224,8,10.5,8h8C18.776,8,19,8.224,19,8.5S18.776,9,18.5,9z"/>
		</g>
		<g>
			<path d="M22.5,30h-16C6.224,30,6,29.776,6,29.5v-19C6,10.224,6.224,10,6.5,10h16c0.276,0,0.5,0.224,0.5,0.5v19
				C23,29.776,22.776,30,22.5,30z M7,29h15V11H7V29z"/>
		</g>
		<g>
			<path d="M24.5,26h-2c-0.276,0-0.5-0.224-0.5-0.5s0.224-0.5,0.5-0.5h2c0.276,0,0.5,0.224,0.5,0.5S24.776,26,24.5,26z"/>
		</g>
		<g>
			<path d="M6.5,26h-2C4.224,26,4,25.776,4,25.5S4.224,25,4.5,25h2C6.776,25,7,25.224,7,25.5S6.776,26,6.5,26z"/>
		</g>
		<g>
			<path d="M14.5,20c-0.276,0-0.5-0.224-0.5-0.5v-6c0-0.276,0.224-0.5,0.5-0.5s0.5,0.224,0.5,0.5v6C15,19.776,14.776,20,14.5,20z"/>
		</g>
		<g>
			<path d="M21.5,11h-14C7.224,11,7,10.776,7,10.5v-10C7,0.224,7.224,0,7.5,0h14C21.776,0,22,0.224,22,0.5v10
				C22,10.776,21.776,11,21.5,11z M8,10h13V1H8V10z"/>
		</g>
		<g>
			<path d="M6.5,29h-3C2.673,29,2,28.327,2,27.5v-12C2,13.57,3.57,12,5.5,12h1C6.776,12,7,12.224,7,12.5v16
				C7,28.776,6.776,29,6.5,29z M5.5,13C4.121,13,3,14.121,3,15.5v12C3,27.775,3.225,28,3.5,28H6V13H5.5z"/>
		</g>
		<g>
			<path d="M25.5,29h-3c-0.276,0-0.5-0.224-0.5-0.5v-16c0-0.276,0.224-0.5,0.5-0.5h1c1.93,0,3.5,1.57,3.5,3.5v12
				C27,28.327,26.327,29,25.5,29z M23,28h2.5c0.275,0,0.5-0.225,0.5-0.5v-12c0-1.379-1.121-2.5-2.5-2.5H23V28z"/>
		</g>
		<g>
			<circle cx="12" cy="4.5" r="1.5"/>
		</g>
		<g>
			<circle cx="17" cy="4.5" r="1.5"/>
		</g>
		<g>
			<path d="M14.5,27C10.916,27,8,24.084,8,20.5c0-0.787,0.14-1.557,0.414-2.287c0.097-0.259,0.388-0.394,0.644-0.292
				c0.259,0.097,0.39,0.385,0.292,0.644C9.118,19.183,9,19.833,9,20.5c0,3.032,2.468,5.5,5.5,5.5s5.5-2.468,5.5-5.5
				c0-2.206-1.257-4.186-3.201-5.042c-0.253-0.111-0.368-0.407-0.257-0.659c0.112-0.253,0.408-0.366,0.659-0.257
				C19.509,15.559,21,17.897,21,20.5C21,24.084,18.084,27,14.5,27z"/>
		</g>
		<g>
			<path d="M8.882,18.889c-0.059,0-0.118-0.01-0.176-0.032c-0.259-0.097-0.39-0.386-0.292-0.644c0.629-1.674,1.83-2.978,3.382-3.67
				c0.252-0.111,0.548,0.001,0.661,0.253c0.112,0.253-0.001,0.548-0.253,0.661c-1.307,0.582-2.319,1.686-2.854,3.107
				C9.274,18.766,9.084,18.889,8.882,18.889z"/>
		</g>
	</g>
</g>
</svg>
