<?xml version="1.0" encoding="iso-8859-1"?>
<!-- Generator: Adobe Illustrator 19.2.1, SVG Export Plug-In . SVG Version: 6.00 Build 0)  -->
<svg version="1.1" xmlns="http://www.w3.org/2000/svg" xmlns:xlink="http://www.w3.org/1999/xlink" x="0px" y="0px"
	 viewBox="0 0 30 30" style="enable-background:new 0 0 30 30;" xml:space="preserve">
<g id="Retro_Bot_1">
</g>
<g id="Retro_Bot_2">
</g>
<g id="Retro_Bot_3">
</g>
<g id="Retro_Bot_4">
</g>
<g id="Wall-E">
</g>
<g id="Eva">
</g>
<g id="Iron_Giant">
</g>
<g id="Marvin">
</g>
<g id="Atlas">
</g>
<g id="Claptrap">
</g>
<g id="Android">
</g>
<g id="Bender">
</g>
<g id="Roberto">
</g>
<g id="Robot_Devil">
</g>
<g id="Robocop">
</g>
<g id="ED_209">
</g>
<g id="Optimus_Prime">
</g>
<g id="Robot_1">
</g>
<g id="Robot_2">
</g>
<g id="Robot_3">
</g>
<g id="Robot_Arm_1">
</g>
<g id="Robot_Arm_2">
</g>
<g id="Robot_Arm_3">
</g>
<g id="Robot_Arm_4">
</g>
<g id="Robot_Arm_5">
</g>
<g id="K5_Robot">
</g>
<g id="Robot_Machine_1">
</g>
<g id="Robot_Machine_2">
</g>
<g id="Artifical_Intelligence_1">
</g>
<g id="Artifical_Intelligence_2">
</g>
<g id="Robot_4">
</g>
<g id="Robot_5">
</g>
<g id="Robot_6">
</g>
<g id="Robot_7">
	<g>
		<g>
			<path d="M15.5,6C15.224,6,15,5.776,15,5.5v-1C15,4.224,15.224,4,15.5,4S16,4.224,16,4.5v1C16,5.776,15.776,6,15.5,6z"/>
		</g>
		<g>
			<path d="M13.5,6C13.224,6,13,5.776,13,5.5v-1C13,4.224,13.224,4,13.5,4S14,4.224,14,4.5v1C14,5.776,13.776,6,13.5,6z"/>
		</g>
		<g>
			<path d="M10.5,30h-1C9.224,30,9,29.776,9,29.5S9.224,29,9.5,29H10v-5.5c0-0.881,0.099-1.869,1.28-2.449
				c0.249-0.12,0.547-0.019,0.669,0.229c0.122,0.248,0.02,0.548-0.229,0.67C11.162,22.223,11,22.571,11,23.5v6
				C11,29.776,10.776,30,10.5,30z"/>
		</g>
		<g>
			<path d="M19.5,30h-1c-0.276,0-0.5-0.224-0.5-0.5v-6c0-0.929-0.162-1.277-0.72-1.551c-0.248-0.122-0.35-0.422-0.229-0.67
				c0.122-0.247,0.421-0.348,0.669-0.229C18.901,21.631,19,22.619,19,23.5V29h0.5c0.276,0,0.5,0.224,0.5,0.5S19.776,30,19.5,30z"/>
		</g>
		<g>
			<path d="M5.5,20C5.224,20,5,19.776,5,19.5v-5C5,13.532,5.533,13,6.5,13C6.776,13,7,13.224,7,13.5S6.776,14,6.5,14
				C6.084,14,6,14.084,6,14.5v5C6,19.776,5.776,20,5.5,20z"/>
		</g>
		<g>
			<path d="M14.5,23c-0.276,0-0.5-0.224-0.5-0.5v-15C14,7.224,14.224,7,14.5,7S15,7.224,15,7.5v15C15,22.776,14.776,23,14.5,23z"/>
		</g>
		<g>
			<path d="M14.5,23c-1.993,0-3.743-1.345-4.256-3.27L7.017,7.629c-0.04-0.15-0.008-0.311,0.086-0.434S7.345,7,7.5,7h14
				c0.155,0,0.302,0.072,0.396,0.195s0.126,0.283,0.086,0.434L18.756,19.73C18.243,21.655,16.493,23,14.5,23z M8.151,8l3.059,11.473
				C11.607,20.961,12.959,22,14.5,22s2.893-1.039,3.29-2.527L20.849,8H8.151z"/>
		</g>
		<g>
			<path d="M19.5,8h-10C9.224,8,9,7.776,9,7.5C9,4.468,11.467,2,14.5,2S20,4.468,20,7.5C20,7.776,19.776,8,19.5,8z M10.028,7h8.944
				c-0.25-2.247-2.16-4-4.472-4S10.277,4.753,10.028,7z"/>
		</g>
		<g>
			<path d="M14.5,3C14.224,3,14,2.776,14,2.5v-2C14,0.224,14.224,0,14.5,0S15,0.224,15,0.5v2C15,2.776,14.776,3,14.5,3z"/>
		</g>
		<g>
			<path d="M16.5,1h-4C12.224,1,12,0.776,12,0.5S12.224,0,12.5,0h4C16.776,0,17,0.224,17,0.5S16.776,1,16.5,1z"/>
		</g>
		<g>
			<path d="M9.5,16H8.32c-0.712,0-1.331-0.507-1.471-1.206l-0.6-3c-0.089-0.442,0.024-0.896,0.311-1.245
				C6.846,10.2,7.269,10,7.72,10H8c0.276,0,0.5,0.224,0.5,0.5S8.276,11,8,11H7.72c-0.15,0-0.292,0.066-0.387,0.183
				C7.238,11.3,7.2,11.45,7.229,11.598l0.6,3.001C7.876,14.831,8.083,15,8.32,15H9.5c0.276,0,0.5,0.224,0.5,0.5S9.776,16,9.5,16z"/>
		</g>
		<g>
			<path d="M6.5,21C6.224,21,6,20.776,6,20.5V20H5v0.5C5,20.776,4.776,21,4.5,21S4,20.776,4,20.5v-1C4,19.224,4.224,19,4.5,19h2
				C6.776,19,7,19.224,7,19.5v1C7,20.776,6.776,21,6.5,21z"/>
		</g>
		<g>
			<path d="M23.5,20c-0.276,0-0.5-0.224-0.5-0.5v-5c0-0.416-0.084-0.5-0.5-0.5c-0.276,0-0.5-0.224-0.5-0.5s0.224-0.5,0.5-0.5
				c0.967,0,1.5,0.532,1.5,1.5v5C24,19.776,23.776,20,23.5,20z"/>
		</g>
		<g>
			<path d="M20.68,16H19.5c-0.276,0-0.5-0.224-0.5-0.5s0.224-0.5,0.5-0.5h1.18c0.237,0,0.444-0.169,0.49-0.401l0.6-3
				c0.029-0.148-0.008-0.299-0.104-0.416C21.572,11.066,21.431,11,21.28,11H21c-0.276,0-0.5-0.224-0.5-0.5S20.724,10,21,10h0.28
				c0.451,0,0.874,0.2,1.16,0.549c0.286,0.35,0.399,0.803,0.311,1.246l-0.6,2.999C22.011,15.493,21.393,16,20.68,16z"/>
		</g>
		<g>
			<path d="M24.5,21c-0.276,0-0.5-0.224-0.5-0.5V20h-1v0.5c0,0.276-0.224,0.5-0.5,0.5S22,20.776,22,20.5v-1
				c0-0.276,0.224-0.5,0.5-0.5h2c0.276,0,0.5,0.224,0.5,0.5v1C25,20.776,24.776,21,24.5,21z"/>
		</g>
	</g>
</g>
<g id="Robot_8">
</g>
<g id="Robot_9">
</g>
<g id="Robot_10">
</g>
<g id="Robot_11">
</g>
<g id="Robot_12">
</g>
<g id="Robot_13">
</g>
</svg>
