<?xml version="1.0" encoding="iso-8859-1"?>
<!-- Generator: Adobe Illustrator 19.2.1, SVG Export Plug-In . SVG Version: 6.00 Build 0)  -->
<svg version="1.1" xmlns="http://www.w3.org/2000/svg" xmlns:xlink="http://www.w3.org/1999/xlink" x="0px" y="0px"
	 viewBox="0 0 30 30" style="enable-background:new 0 0 30 30;" xml:space="preserve">
<g id="Cad_1">
</g>
<g id="Cad_2">
</g>
<g id="Cad_Pencil">
</g>
<g id="Cad_Compasses">
</g>
<g id="Tools_1">
</g>
<g id="Tools_2">
</g>
<g id="Ruler_1">
</g>
<g id="Ruler_2">
</g>
<g id="Workspace_1">
</g>
<g id="Workspace_2">
</g>
<g id="Cad_3">
</g>
<g id="_x33_D_Box">
	<g>
		<path d="M13.332,3.353l0.646-0.646V5.5c0,0.276,0.224,0.5,0.5,0.5s0.5-0.224,0.5-0.5V2.707l0.646,0.646
			c0.195,0.195,0.512,0.195,0.707,0s0.195-0.512,0-0.707l-1.497-1.497c-0.01-0.01-0.021-0.021-0.032-0.03l0,0
			c-0.077-0.065-0.168-0.104-0.263-0.115c0,0,0,0,0,0C14.509,0.999,14.481,1,14.45,1.001c0,0,0,0,0,0
			c-0.118,0.007-0.234,0.055-0.325,0.146l-1.5,1.5C12.527,2.744,12.478,2.872,12.478,3s0.049,0.256,0.146,0.354
			C12.82,3.549,13.136,3.549,13.332,3.353z"/>
		<path d="M28.962,25.81C28.962,25.81,28.962,25.81,28.962,25.81l0-0.001c0-0.001-0.001-0.002,0-0.002v0l0-0.001v0l0-0.001
			l-0.563-2.045c-0.074-0.267-0.351-0.423-0.615-0.349c-0.222,0.061-0.368,0.263-0.367,0.482c0,0.043,0.006,0.088,0.018,0.132
			l0.243,0.881l-2.428-1.379c-0.241-0.138-0.546-0.053-0.682,0.188c-0.137,0.24-0.052,0.545,0.188,0.682l2.429,1.379L26.3,26.018
			c-0.266,0.073-0.422,0.349-0.349,0.615C26.012,26.854,26.214,27,26.433,27c0.044,0,0.089-0.006,0.133-0.018l2.042-0.563
			c0.011-0.003,0.021-0.006,0.032-0.01c0.098-0.033,0.179-0.094,0.237-0.171c0.021-0.028,0.039-0.057,0.053-0.088
			C28.979,26.048,28.993,25.928,28.962,25.81z"/>
		<path d="M3.731,23.526l-2.428,1.379l0.243-0.881c0.012-0.044,0.018-0.089,0.018-0.132c0-0.22-0.145-0.421-0.367-0.482
			c-0.267-0.073-0.542,0.083-0.615,0.349l-0.563,2.045l0,0.001l0,0.001c-0.024,0.089-0.022,0.18,0.001,0.265v0l0,0.001v0
			c0,0.001,0.001,0.001,0,0.002c0,0,0.001,0,0,0.001c0.004,0.014,0.009,0.028,0.014,0.042c0.002,0.001,0.001,0.001,0.001,0.002v0
			c0,0,0,0,0,0v0.001c0.029,0.071,0.074,0.136,0.134,0.189c0,0,0,0,0.001,0.001c0,0,0,0,0,0h0c0.013,0.012,0.027,0.023,0.042,0.033
			h0l0,0c0,0,0,0,0.001,0c0.048,0.034,0.101,0.058,0.155,0.072l2.042,0.563C2.457,26.994,2.502,27,2.546,27
			c0.219,0,0.42-0.146,0.481-0.367c0.073-0.266-0.083-0.542-0.349-0.615l-0.882-0.243l2.429-1.379
			c0.24-0.136,0.324-0.441,0.188-0.682C4.277,23.474,3.973,23.39,3.731,23.526z"/>
		<path d="M14.721,7.063c-0.15-0.084-0.335-0.084-0.485,0l-8.567,4.759l8.809,5.1l8.809-5.1L14.721,7.063z"/>
		<path d="M4.978,22.5c0,0.182,0.099,0.349,0.257,0.437l8.743,4.857V17.788l-9-5.211V22.5z"/>
		<path d="M14.978,27.794l8.743-4.857c0.159-0.088,0.257-0.255,0.257-0.437v-9.922l-9,5.211V27.794z"/>
	</g>
</g>
<g id="Section_Symbol">
</g>
<g id="Outlet_Symbol">
</g>
<g id="Cad_File">
</g>
<g id="Blueprint">
</g>
<g id="Construction_Plan">
</g>
<g id="Roof_Plan">
</g>
<g id="House_Construction">
</g>
<g id="Building_Construction">
</g>
<g id="Work_Table">
</g>
<g id="Table_Cad">
</g>
<g id="House_Plan">
</g>
<g id="Tape_Measure">
</g>
<g id="Cad_Paper">
</g>
<g id="Cad_Papers">
</g>
<g id="Stairs">
</g>
<g id="Pillar">
</g>
<g id="Bricks">
</g>
<g id="Pantheon">
</g>
<g id="House">
</g>
<g id="Skyscraper">
</g>
<g id="Building">
</g>
</svg>
