<?xml version="1.0" encoding="iso-8859-1"?>
<!-- Generator: Adobe Illustrator 19.2.1, SVG Export Plug-In . SVG Version: 6.00 Build 0)  -->
<svg version="1.1" xmlns="http://www.w3.org/2000/svg" xmlns:xlink="http://www.w3.org/1999/xlink" x="0px" y="0px"
	 viewBox="0 0 30 30" style="enable-background:new 0 0 30 30;" xml:space="preserve">
<g id="Cad_1">
</g>
<g id="Cad_2">
</g>
<g id="Cad_Pencil">
	<g>
		<g>
			<path d="M14.617,12.324c-0.274-0.274-0.741-0.144-0.835,0.231l-1.019,4.075c-0.043,0.17,0.007,0.351,0.131,0.475
				c0.095,0.095,0.223,0.146,0.354,0.146c0.041,0,0.081-0.005,0.121-0.015l4.075-1.019c0.376-0.094,0.505-0.562,0.231-0.835
				L14.617,12.324z"/>
			<path d="M29.487,2.495l-1.982-1.982c-0.683-0.683-1.792-0.683-2.475,0l-9.698,9.698c-0.391,0.391-0.391,1.024,0,1.414
				l3.043,3.043c0.391,0.391,1.024,0.391,1.414,0l9.698-9.698C30.171,4.286,30.171,3.178,29.487,2.495z"/>
		</g>
		<path d="M15.5,21c-0.276,0-0.5-0.224-0.5-0.5s0.224-0.5,0.5-0.5H19v-3.261c-0.226,0.133-0.467,0.238-0.724,0.302l-4.665,1.166
			c-0.115,0.029-0.239,0.045-0.364,0.045c-0.395,0-0.781-0.16-1.061-0.439c-0.371-0.371-0.522-0.917-0.394-1.426l1.166-4.662
			c0.064-0.256,0.169-0.498,0.302-0.724H10v9h2.5c0.276,0,0.5,0.224,0.5,0.5S12.776,21,12.5,21H10v2.5c0,0.276-0.224,0.5-0.5,0.5
			S9,23.776,9,23.5V21H6.5C6.224,21,6,20.776,6,20.5S6.224,20,6.5,20H9v-9H0.5C0.224,11,0,11.224,0,11.5V20h3.5
			C3.776,20,4,20.224,4,20.5S3.776,21,3.5,21H0v1.5C0,22.776,0.224,23,0.5,23H1v3H0.5C0.224,26,0,26.224,0,26.5v3
			C0,29.776,0.224,30,0.5,30H9v-3.5C9,26.224,9.224,26,9.5,26s0.5,0.224,0.5,0.5V30h8.5c0.276,0,0.5-0.224,0.5-0.5V21H15.5z"/>
	</g>
</g>
<g id="Cad_Compasses">
</g>
<g id="Tools_1">
</g>
<g id="Tools_2">
</g>
<g id="Ruler_1">
</g>
<g id="Ruler_2">
</g>
<g id="Workspace_1">
</g>
<g id="Workspace_2">
</g>
<g id="Cad_3">
</g>
<g id="_x33_D_Box">
</g>
<g id="Section_Symbol">
</g>
<g id="Outlet_Symbol">
</g>
<g id="Cad_File">
</g>
<g id="Blueprint">
</g>
<g id="Construction_Plan">
</g>
<g id="Roof_Plan">
</g>
<g id="House_Construction">
</g>
<g id="Building_Construction">
</g>
<g id="Work_Table">
</g>
<g id="Table_Cad">
</g>
<g id="House_Plan">
</g>
<g id="Tape_Measure">
</g>
<g id="Cad_Paper">
</g>
<g id="Cad_Papers">
</g>
<g id="Stairs">
</g>
<g id="Pillar">
</g>
<g id="Bricks">
</g>
<g id="Pantheon">
</g>
<g id="House">
</g>
<g id="Skyscraper">
</g>
<g id="Building">
</g>
</svg>
