<?xml version="1.0" encoding="iso-8859-1"?>
<!-- Generator: Adobe Illustrator 19.2.1, SVG Export Plug-In . SVG Version: 6.00 Build 0)  -->
<svg version="1.1" xmlns="http://www.w3.org/2000/svg" xmlns:xlink="http://www.w3.org/1999/xlink" x="0px" y="0px"
	 viewBox="0 0 30 30" style="enable-background:new 0 0 30 30;" xml:space="preserve">
<g id="Cad_1">
</g>
<g id="Cad_2">
</g>
<g id="Cad_Pencil">
</g>
<g id="Cad_Compasses">
</g>
<g id="Tools_1">
</g>
<g id="Tools_2">
</g>
<g id="Ruler_1">
</g>
<g id="Ruler_2">
</g>
<g id="Workspace_1">
</g>
<g id="Workspace_2">
</g>
<g id="Cad_3">
</g>
<g id="_x33_D_Box">
</g>
<g id="Section_Symbol">
</g>
<g id="Outlet_Symbol">
	<g>
		<path d="M9,1.563C8.764,1.709,8.533,1.864,8.309,2.028c-0.072,0.03-0.131,0.078-0.182,0.136C5.624,4.085,4,7.098,4,10.49
			c0,3.335,1.568,6.305,4,8.23v10.77c0,0.276,0.224,0.5,0.5,0.5S9,29.766,9,29.49V19.417V1.563z"/>
		<path d="M14,0.01c-1.428,0.068-2.778,0.425-4,1.012v18.936c0.933,0.445,1.94,0.759,3,0.912v8.62c0,0.276,0.224,0.5,0.5,0.5
			s0.5-0.224,0.5-0.5v-8.525V0.01z"/>
		<path d="M19,1.017c-1.223-0.584-2.573-0.935-4-1.002v20.952c1.047-0.052,2.054-0.254,3-0.59v9.113c0,0.276,0.224,0.5,0.5,0.5
			s0.5-0.224,0.5-0.5v-9.528V1.017z"/>
		<path d="M20,1.563v17.847c2.994-1.85,5-5.149,5-8.92C25,6.718,22.994,3.414,20,1.563z"/>
	</g>
</g>
<g id="Cad_File">
</g>
<g id="Blueprint">
</g>
<g id="Construction_Plan">
</g>
<g id="Roof_Plan">
</g>
<g id="House_Construction">
</g>
<g id="Building_Construction">
</g>
<g id="Work_Table">
</g>
<g id="Table_Cad">
</g>
<g id="House_Plan">
</g>
<g id="Tape_Measure">
</g>
<g id="Cad_Paper">
</g>
<g id="Cad_Papers">
</g>
<g id="Stairs">
</g>
<g id="Pillar">
</g>
<g id="Bricks">
</g>
<g id="Pantheon">
</g>
<g id="House">
</g>
<g id="Skyscraper">
</g>
<g id="Building">
</g>
</svg>
