<?xml version="1.0" encoding="iso-8859-1"?>
<!-- Generator: Adobe Illustrator 19.2.1, SVG Export Plug-In . SVG Version: 6.00 Build 0)  -->
<svg version="1.1" xmlns="http://www.w3.org/2000/svg" xmlns:xlink="http://www.w3.org/1999/xlink" x="0px" y="0px"
	 viewBox="0 0 30 30" style="enable-background:new 0 0 30 30;" xml:space="preserve">
<g id="Cad_1">
</g>
<g id="Cad_2">
</g>
<g id="Cad_Pencil">
</g>
<g id="Cad_Compasses">
</g>
<g id="Tools_1">
</g>
<g id="Tools_2">
</g>
<g id="Ruler_1">
</g>
<g id="Ruler_2">
</g>
<g id="Workspace_1">
</g>
<g id="Workspace_2">
</g>
<g id="Cad_3">
</g>
<g id="_x33_D_Box">
</g>
<g id="Section_Symbol">
</g>
<g id="Outlet_Symbol">
</g>
<g id="Cad_File">
</g>
<g id="Blueprint">
</g>
<g id="Construction_Plan">
</g>
<g id="Roof_Plan">
</g>
<g id="House_Construction">
</g>
<g id="Building_Construction">
</g>
<g id="Work_Table">
</g>
<g id="Table_Cad">
</g>
<g id="House_Plan">
</g>
<g id="Tape_Measure">
</g>
<g id="Cad_Paper">
</g>
<g id="Cad_Papers">
</g>
<g id="Stairs">
</g>
<g id="Pillar">
</g>
<g id="Bricks">
</g>
<g id="Pantheon">
	<path d="M29.5,26H29v-1.5c0-0.276-0.224-0.5-0.5-0.5H26V12h1.5c0.276,0,0.5-0.224,0.5-0.5V10h1.5c0.225,0,0.422-0.15,0.481-0.367
		c0.061-0.216-0.031-0.446-0.225-0.562l-15-9c-0.162-0.097-0.367-0.095-0.527,0.008l-14,9c-0.187,0.12-0.271,0.349-0.209,0.562
		S0.278,10,0.5,10H2v1.5C2,11.776,2.224,12,2.5,12H4v12H1.5C1.224,24,1,24.223,1,24.5V26H0.5C0.224,26,0,26.223,0,26.5v3
		C0,29.776,0.224,30,0.5,30h29c0.276,0,0.5-0.224,0.5-0.5v-3C30,26.223,29.776,26,29.5,26z M14,12h2v12h-2V12z M22,24h-2V12h2V24z
		 M8,12h2v12H8V12z M14.76,2.573L25.354,9h-1.928l-8.914-5.408L6.341,9H4.528l9.696-6.417C14.386,2.476,14.593,2.471,14.76,2.573z"
		/>
</g>
<g id="House">
</g>
<g id="Skyscraper">
</g>
<g id="Building">
</g>
</svg>
