<?xml version="1.0" encoding="iso-8859-1"?>
<!-- Generator: Adobe Illustrator 19.2.1, SVG Export Plug-In . SVG Version: 6.00 Build 0)  -->
<svg version="1.1" xmlns="http://www.w3.org/2000/svg" xmlns:xlink="http://www.w3.org/1999/xlink" x="0px" y="0px"
	 viewBox="0 0 30 30" style="enable-background:new 0 0 30 30;" xml:space="preserve">
<g id="Cad_1">
</g>
<g id="Cad_2">
</g>
<g id="Cad_Pencil">
</g>
<g id="Cad_Compasses">
</g>
<g id="Tools_1">
</g>
<g id="Tools_2">
</g>
<g id="Ruler_1">
</g>
<g id="Ruler_2">
</g>
<g id="Workspace_1">
</g>
<g id="Workspace_2">
</g>
<g id="Cad_3">
</g>
<g id="_x33_D_Box">
</g>
<g id="Section_Symbol">
</g>
<g id="Outlet_Symbol">
</g>
<g id="Cad_File">
</g>
<g id="Blueprint">
</g>
<g id="Construction_Plan">
</g>
<g id="Roof_Plan">
	<g>
		<path d="M29.848,14.14l-0.72-0.695c-0.199-0.191-0.516-0.186-0.707,0.013c-0.192,0.199-0.187,0.515,0.012,0.707l0.72,0.695
			C29.25,14.953,29.375,15,29.5,15c0.131,0,0.262-0.051,0.359-0.153C30.052,14.648,30.046,14.332,29.848,14.14z"/>
		<path d="M18.274,4.356c0.098,0.094,0.223,0.14,0.348,0.14c0.131,0,0.262-0.051,0.359-0.153c0.192-0.199,0.187-0.515-0.012-0.707
			l-1.451-1.401c-0.199-0.191-0.516-0.185-0.707,0.013c-0.192,0.199-0.187,0.515,0.012,0.707L18.274,4.356z"/>
		<path d="M21.177,7.159c0.098,0.094,0.223,0.14,0.348,0.14c0.131,0,0.262-0.051,0.359-0.153c0.192-0.198,0.187-0.515-0.012-0.707
			l-1.451-1.401c-0.199-0.191-0.516-0.186-0.707,0.013c-0.192,0.198-0.187,0.515,0.012,0.707L21.177,7.159z"/>
		<path d="M24.079,9.961c0.098,0.094,0.223,0.14,0.348,0.14c0.131,0,0.262-0.051,0.359-0.153c0.192-0.199,0.187-0.515-0.012-0.707
			l-1.451-1.401c-0.199-0.191-0.516-0.186-0.707,0.013c-0.192,0.199-0.187,0.515,0.012,0.707L24.079,9.961z"/>
		<path d="M26.226,10.643c-0.199-0.191-0.516-0.186-0.707,0.013c-0.192,0.198-0.187,0.515,0.012,0.707l1.451,1.401
			c0.098,0.094,0.223,0.14,0.348,0.14c0.131,0,0.262-0.051,0.359-0.153c0.192-0.198,0.187-0.515-0.012-0.707L26.226,10.643z"/>
		<path d="M14.628,1.555L15,1.195l0.372,0.36c0.098,0.094,0.223,0.14,0.348,0.14c0.131,0,0.262-0.051,0.359-0.153
			c0.192-0.199,0.187-0.515-0.012-0.707l-0.72-0.695c-0.195-0.187-0.5-0.187-0.695,0l-0.72,0.695
			c-0.198,0.192-0.204,0.508-0.012,0.707C14.112,1.741,14.429,1.747,14.628,1.555z"/>
		<path d="M4.47,11.363c0.198-0.192,0.204-0.508,0.012-0.707c-0.19-0.198-0.507-0.204-0.707-0.013l-1.451,1.401
			c-0.198,0.192-0.204,0.508-0.012,0.707c0.098,0.102,0.229,0.153,0.359,0.153c0.125,0,0.25-0.046,0.348-0.14L4.47,11.363z"/>
		<path d="M5.573,10.102c0.125,0,0.25-0.046,0.348-0.14L7.372,8.56C7.57,8.369,7.576,8.052,7.384,7.853
			c-0.19-0.198-0.507-0.204-0.707-0.013L5.226,9.242C5.027,9.434,5.021,9.751,5.214,9.949C5.312,10.051,5.442,10.102,5.573,10.102z"
			/>
		<path d="M8.476,7.299c0.125,0,0.25-0.046,0.348-0.14l1.451-1.401c0.198-0.192,0.204-0.508,0.012-0.707
			c-0.19-0.198-0.507-0.204-0.707-0.013L8.128,6.439C7.93,6.631,7.924,6.948,8.116,7.146C8.214,7.248,8.345,7.299,8.476,7.299z"/>
		<path d="M11.378,4.497c0.125,0,0.25-0.046,0.348-0.14l1.451-1.401c0.198-0.192,0.204-0.509,0.012-0.707
			c-0.19-0.198-0.507-0.204-0.707-0.013L11.03,3.637c-0.198,0.192-0.204,0.509-0.012,0.707C11.116,4.446,11.247,4.497,11.378,4.497z
			"/>
		<path d="M0.872,13.445l-0.72,0.695c-0.198,0.192-0.204,0.508-0.012,0.707C0.238,14.949,0.369,15,0.5,15
			c0.125,0,0.25-0.046,0.348-0.14l0.72-0.695c0.198-0.192,0.204-0.508,0.012-0.707C1.389,13.26,1.072,13.254,0.872,13.445z"/>
		<path d="M26.5,14h-23C3.224,14,3,14.224,3,14.5v15C3,29.776,3.224,30,3.5,30H11v-9.5c0-0.276,0.224-0.5,0.5-0.5h7
			c0.276,0,0.5,0.224,0.5,0.5V30h7.5c0.276,0,0.5-0.224,0.5-0.5v-15C27,14.224,26.776,14,26.5,14z"/>
	</g>
</g>
<g id="House_Construction">
</g>
<g id="Building_Construction">
</g>
<g id="Work_Table">
</g>
<g id="Table_Cad">
</g>
<g id="House_Plan">
</g>
<g id="Tape_Measure">
</g>
<g id="Cad_Paper">
</g>
<g id="Cad_Papers">
</g>
<g id="Stairs">
</g>
<g id="Pillar">
</g>
<g id="Bricks">
</g>
<g id="Pantheon">
</g>
<g id="House">
</g>
<g id="Skyscraper">
</g>
<g id="Building">
</g>
</svg>
