<?xml version="1.0" encoding="iso-8859-1"?>
<!-- Generator: Adobe Illustrator 19.2.1, SVG Export Plug-In . SVG Version: 6.00 Build 0)  -->
<svg version="1.1" xmlns="http://www.w3.org/2000/svg" xmlns:xlink="http://www.w3.org/1999/xlink" x="0px" y="0px"
	 viewBox="0 0 30 30" style="enable-background:new 0 0 30 30;" xml:space="preserve">
<g id="Cad_1">
</g>
<g id="Cad_2">
</g>
<g id="Cad_Pencil">
</g>
<g id="Cad_Compasses">
</g>
<g id="Tools_1">
</g>
<g id="Tools_2">
</g>
<g id="Ruler_1">
</g>
<g id="Ruler_2">
</g>
<g id="Workspace_1">
</g>
<g id="Workspace_2">
</g>
<g id="Cad_3">
</g>
<g id="_x33_D_Box">
</g>
<g id="Section_Symbol">
</g>
<g id="Outlet_Symbol">
</g>
<g id="Cad_File">
</g>
<g id="Blueprint">
</g>
<g id="Construction_Plan">
</g>
<g id="Roof_Plan">
</g>
<g id="House_Construction">
</g>
<g id="Building_Construction">
</g>
<g id="Work_Table">
</g>
<g id="Table_Cad">
</g>
<g id="House_Plan">
</g>
<g id="Tape_Measure">
</g>
<g id="Cad_Paper">
</g>
<g id="Cad_Papers">
</g>
<g id="Stairs">
	<path d="M29.488,12.025h-1.5v-10c0-0.016-0.008-0.03-0.009-0.045c0.286,0.029,0.497,0.179,0.613,0.285
		c0.321,0.294,0.476,0.746,0.403,1.177c-0.046,0.272,0.138,0.53,0.41,0.576c0.27,0.045,0.531-0.137,0.576-0.41
		c0.128-0.763-0.146-1.56-0.714-2.08c-0.529-0.486-1.226-0.664-1.904-0.487c-0.038,0.01-0.075,0.024-0.109,0.042L2.194,14.39
		c-1.402,1.024-2.206,2.472-2.206,3.971v0.165c0,0.276,0.224,0.5,0.5,0.5s0.5-0.224,0.5-0.5v-0.165c0-0.878,0.365-1.743,1-2.457
		v8.121h-1.5c-0.276,0-0.5,0.224-0.5,0.5v4c0,0.276,0.224,0.5,0.5,0.5h29c0.276,0,0.5-0.224,0.5-0.5v-16
		C29.988,12.249,29.764,12.025,29.488,12.025z M2.988,15.095l24-12.738v9.669h-4.5c-0.276,0-0.5,0.224-0.5,0.5v3.5h-6.5
		c-0.276,0-0.5,0.224-0.5,0.5v3.5h-6.5c-0.276,0-0.5,0.224-0.5,0.5v3.5h-5V15.095z"/>
</g>
<g id="Pillar">
</g>
<g id="Bricks">
</g>
<g id="Pantheon">
</g>
<g id="House">
</g>
<g id="Skyscraper">
</g>
<g id="Building">
</g>
</svg>
