<?xml version="1.0" encoding="iso-8859-1"?>
<!-- Generator: Adobe Illustrator 19.2.1, SVG Export Plug-In . SVG Version: 6.00 Build 0)  -->
<svg version="1.1" xmlns="http://www.w3.org/2000/svg" xmlns:xlink="http://www.w3.org/1999/xlink" x="0px" y="0px"
	 viewBox="0 0 30 30" style="enable-background:new 0 0 30 30;" xml:space="preserve">
<g id="Cad_1">
</g>
<g id="Cad_2">
</g>
<g id="Cad_Pencil">
</g>
<g id="Cad_Compasses">
</g>
<g id="Tools_1">
	<path d="M28.5,3H30V0.5c0-0.202-0.122-0.385-0.309-0.462c-0.186-0.078-0.402-0.035-0.545,0.108l-29,29
		c-0.143,0.143-0.186,0.358-0.108,0.545S0.298,30,0.5,30h29c0.276,0,0.5-0.224,0.5-0.5V28h-1.5c-0.276,0-0.5-0.224-0.5-0.5
		s0.224-0.5,0.5-0.5H30v-2h-1.5c-0.276,0-0.5-0.224-0.5-0.5s0.224-0.5,0.5-0.5H30v-2h-1.5c-0.276,0-0.5-0.224-0.5-0.5
		s0.224-0.5,0.5-0.5H30v-2h-1.5c-0.276,0-0.5-0.224-0.5-0.5s0.224-0.5,0.5-0.5H30v-2h-1.5c-0.276,0-0.5-0.224-0.5-0.5
		s0.224-0.5,0.5-0.5H30v-2h-1.5c-0.276,0-0.5-0.224-0.5-0.5s0.224-0.5,0.5-0.5H30v-2h-1.5C28.224,10,28,9.777,28,9.5
		S28.224,9,28.5,9H30V7h-1.5C28.224,7,28,6.777,28,6.5S28.224,6,28.5,6H30V4h-1.5C28.224,4,28,3.777,28,3.5S28.224,3,28.5,3z
		 M25,24.5c0,0.276-0.224,0.5-0.5,0.5H13c-0.202,0-0.385-0.122-0.462-0.309s-0.034-0.402,0.108-0.545l11.5-11.5
		c0.144-0.143,0.359-0.187,0.545-0.108C24.878,12.615,25,12.798,25,13V24.5z"/>
</g>
<g id="Tools_2">
</g>
<g id="Ruler_1">
</g>
<g id="Ruler_2">
</g>
<g id="Workspace_1">
</g>
<g id="Workspace_2">
</g>
<g id="Cad_3">
</g>
<g id="_x33_D_Box">
</g>
<g id="Section_Symbol">
</g>
<g id="Outlet_Symbol">
</g>
<g id="Cad_File">
</g>
<g id="Blueprint">
</g>
<g id="Construction_Plan">
</g>
<g id="Roof_Plan">
</g>
<g id="House_Construction">
</g>
<g id="Building_Construction">
</g>
<g id="Work_Table">
</g>
<g id="Table_Cad">
</g>
<g id="House_Plan">
</g>
<g id="Tape_Measure">
</g>
<g id="Cad_Paper">
</g>
<g id="Cad_Papers">
</g>
<g id="Stairs">
</g>
<g id="Pillar">
</g>
<g id="Bricks">
</g>
<g id="Pantheon">
</g>
<g id="House">
</g>
<g id="Skyscraper">
</g>
<g id="Building">
</g>
</svg>
