<?xml version="1.0" encoding="iso-8859-1"?>
<!-- Generator: Adobe Illustrator 19.2.1, SVG Export Plug-In . SVG Version: 6.00 Build 0)  -->
<svg version="1.1" xmlns="http://www.w3.org/2000/svg" xmlns:xlink="http://www.w3.org/1999/xlink" x="0px" y="0px"
	 viewBox="0 0 30 30" style="enable-background:new 0 0 30 30;" xml:space="preserve">
<g id="Cad_1">
</g>
<g id="Cad_2">
</g>
<g id="Cad_Pencil">
</g>
<g id="Cad_Compasses">
</g>
<g id="Tools_1">
</g>
<g id="Tools_2">
	<g>
		<path d="M22.5,24h-2.013c-0.247-5.007-4.184-9-8.987-9c-4.982,0-9.216,4.072-9.486,9H0.5C0.224,24,0,24.224,0,24.5v5
			C0,29.776,0.224,30,0.5,30H2v-3.5C2,26.224,2.224,26,2.5,26S3,26.224,3,26.5V30h1v-2.5C4,27.224,4.224,27,4.5,27S5,27.224,5,27.5
			V30h1v-2.5C6,27.224,6.224,27,6.5,27S7,27.224,7,27.5V30h1v-3.5C8,26.224,8.224,26,8.5,26S9,26.224,9,26.5V30h1v-2.5
			c0-0.276,0.224-0.5,0.5-0.5s0.5,0.224,0.5,0.5V30h1v-2.5c0-0.276,0.224-0.5,0.5-0.5s0.5,0.224,0.5,0.5V30h1v-3.5
			c0-0.276,0.224-0.5,0.5-0.5s0.5,0.224,0.5,0.5V30h1v-2.5c0-0.276,0.224-0.5,0.5-0.5s0.5,0.224,0.5,0.5V30h1v-2.5
			c0-0.276,0.224-0.5,0.5-0.5s0.5,0.224,0.5,0.5V30h1v-3.5c0-0.276,0.224-0.5,0.5-0.5s0.5,0.224,0.5,0.5V30h1.5
			c0.276,0,0.5-0.224,0.5-0.5v-5C23,24.224,22.776,24,22.5,24z M15.5,25h-8C7.224,25,7,24.776,7,24.5c0-2.355,2.145-4.5,4.5-4.5
			s4.5,2.145,4.5,4.5C16,24.776,15.776,25,15.5,25z"/>
		<g>
			<path d="M29.959,21.552L24.5,8.897C24.809,8.33,25,7.69,25,7c0-2.038-1.537-3.706-3.51-3.95C21.492,3.032,21.5,3.018,21.5,3V0.5
				C21.5,0.224,21.276,0,21,0s-0.5,0.224-0.5,0.5V3c0,0.018,0.008,0.032,0.01,0.05C18.537,3.294,17,4.962,17,7
				c0,0.797,0.24,1.536,0.643,2.16c-0.034,0.035-0.068,0.07-0.091,0.116l-2,4c-0.063,0.125-0.069,0.271-0.021,0.401
				c0.05,0.131,0.152,0.234,0.282,0.287l2.5,1C18.375,14.988,18.437,15,18.5,15c0.168,0,0.33-0.085,0.424-0.235l2.055-3.289
				l8.086,14.27C29.155,25.906,29.323,26,29.5,26c0.042,0,0.085-0.005,0.128-0.017C29.847,25.926,30,25.727,30,25.5v-3.75
				C30,21.682,29.986,21.614,29.959,21.552z M21,8.5c-0.827,0-1.5-0.673-1.5-1.5s0.673-1.5,1.5-1.5s1.5,0.673,1.5,1.5
				S21.827,8.5,21,8.5z"/>
		</g>
	</g>
</g>
<g id="Ruler_1">
</g>
<g id="Ruler_2">
</g>
<g id="Workspace_1">
</g>
<g id="Workspace_2">
</g>
<g id="Cad_3">
</g>
<g id="_x33_D_Box">
</g>
<g id="Section_Symbol">
</g>
<g id="Outlet_Symbol">
</g>
<g id="Cad_File">
</g>
<g id="Blueprint">
</g>
<g id="Construction_Plan">
</g>
<g id="Roof_Plan">
</g>
<g id="House_Construction">
</g>
<g id="Building_Construction">
</g>
<g id="Work_Table">
</g>
<g id="Table_Cad">
</g>
<g id="House_Plan">
</g>
<g id="Tape_Measure">
</g>
<g id="Cad_Paper">
</g>
<g id="Cad_Papers">
</g>
<g id="Stairs">
</g>
<g id="Pillar">
</g>
<g id="Bricks">
</g>
<g id="Pantheon">
</g>
<g id="House">
</g>
<g id="Skyscraper">
</g>
<g id="Building">
</g>
</svg>
