<?xml version="1.0" encoding="iso-8859-1"?>
<!-- Generator: Adobe Illustrator 19.2.1, SVG Export Plug-In . SVG Version: 6.00 Build 0)  -->
<svg version="1.1" xmlns="http://www.w3.org/2000/svg" xmlns:xlink="http://www.w3.org/1999/xlink" x="0px" y="0px"
	 viewBox="0 0 30 30" style="enable-background:new 0 0 30 30;" xml:space="preserve">
<g id="Cad_1">
</g>
<g id="Cad_2">
</g>
<g id="Cad_Pencil">
</g>
<g id="Cad_Compasses">
</g>
<g id="Tools_1">
</g>
<g id="Tools_2">
</g>
<g id="Ruler_1">
</g>
<g id="Ruler_2">
</g>
<g id="Workspace_1">
</g>
<g id="Workspace_2">
</g>
<g id="Cad_3">
</g>
<g id="_x33_D_Box">
</g>
<g id="Section_Symbol">
</g>
<g id="Outlet_Symbol">
</g>
<g id="Cad_File">
</g>
<g id="Blueprint">
</g>
<g id="Construction_Plan">
</g>
<g id="Roof_Plan">
</g>
<g id="House_Construction">
</g>
<g id="Building_Construction">
</g>
<g id="Work_Table">
	<g>
		<path d="M9,11h1.49l0.2-1H9.5C9.224,10,9,9.776,9,9.5S9.224,9,9.5,9h1.39l0.2-1H10C9.724,8,9.5,7.776,9.5,7.5S9.724,7,10,7h1.29
			l0.2-1H10.5C10.224,6,10,5.776,10,5.5S10.224,5,10.5,5h1.19l0.2-1H8.91l-1.8,9h2.98l0.2-1H9c-0.276,0-0.5-0.224-0.5-0.5
			S8.724,11,9,11z"/>
		<path d="M15.959,11.08L14.458,12l1.539,0.942C16.063,12.973,16.18,13,16.295,13H23v-2h-6.705C16.18,11,16.063,11.027,15.959,11.08
			z"/>
		<path d="M28.974,15.342l-5-15C23.906,0.138,23.715,0,23.5,0h-18C5.285,0,5.094,0.138,5.026,0.342l-5,15
			c-0.051,0.152-0.025,0.32,0.068,0.451C0.189,15.923,0.339,16,0.5,16H6v13.5C6,29.776,6.224,30,6.5,30S7,29.776,7,29.5V24h15v5.5
			c0,0.276,0.224,0.5,0.5,0.5s0.5-0.224,0.5-0.5V16h5.5c0.161,0,0.312-0.077,0.406-0.208C29,15.662,29.025,15.494,28.974,15.342z
			 M6.5,14c-0.15,0-0.292-0.067-0.387-0.183c-0.095-0.116-0.133-0.268-0.104-0.415l2-10C8.057,3.168,8.262,3,8.5,3h4
			c0.15,0,0.292,0.067,0.387,0.183c0.095,0.116,0.133,0.268,0.104,0.415l-2,10C10.943,13.832,10.738,14,10.5,14H6.5z M22,23H7v-7h15
			V23z M24,13.5c0,0.276-0.224,0.5-0.5,0.5h-7.205c-0.269,0-0.54-0.063-0.782-0.184l-2.274-1.39C13.09,12.335,13,12.174,13,12
			s0.09-0.335,0.239-0.426l2.236-1.368c0.28-0.142,0.551-0.206,0.82-0.206H23.5c0.276,0,0.5,0.224,0.5,0.5V13.5z"/>
	</g>
</g>
<g id="Table_Cad">
</g>
<g id="House_Plan">
</g>
<g id="Tape_Measure">
</g>
<g id="Cad_Paper">
</g>
<g id="Cad_Papers">
</g>
<g id="Stairs">
</g>
<g id="Pillar">
</g>
<g id="Bricks">
</g>
<g id="Pantheon">
</g>
<g id="House">
</g>
<g id="Skyscraper">
</g>
<g id="Building">
</g>
</svg>
