<?xml version="1.0" encoding="iso-8859-1"?>
<!-- Generator: Adobe Illustrator 19.2.1, SVG Export Plug-In . SVG Version: 6.00 Build 0)  -->
<svg version="1.1" xmlns="http://www.w3.org/2000/svg" xmlns:xlink="http://www.w3.org/1999/xlink" x="0px" y="0px"
	 viewBox="0 0 24 24" style="enable-background:new 0 0 24 24;" xml:space="preserve">
<g id="Flag">
</g>
<g id="Umbrella">
</g>
<g id="Briefcase">
</g>
<g id="Box">
</g>
<g id="Magnet">
</g>
<g id="Percent">
</g>
<g id="Rocket">
</g>
<g id="Share">
</g>
<g id="Transmitter">
</g>
<g id="Record_2">
</g>
<g id="Record_1">
</g>
<g id="Anchor">
	<path d="M23.393,17.19c-0.13-0.166-0.35-0.229-0.551-0.165l-3,1c-0.262,0.088-0.403,0.371-0.316,0.633s0.368,0.405,0.632,0.316
		l1.55-0.517c-2.216,2.743-5.544,4.376-9.208,4.515v-9.993H16c0.276,0,0.5-0.224,0.5-0.5s-0.224-0.5-0.5-0.5h-3.5v-7.03
		c1.14-0.232,2-1.242,2-2.449C14.5,1.121,13.378,0,12,0S9.5,1.121,9.5,2.5c0,1.208,0.86,2.217,2,2.449v7.03H8
		c-0.276,0-0.5,0.224-0.5,0.5s0.224,0.5,0.5,0.5h3.5v9.992c-3.516-0.146-6.878-1.802-9.153-4.496l1.495,0.499
		c0.263,0.089,0.545-0.055,0.632-0.316s-0.054-0.545-0.316-0.633l-3-1c-0.202-0.063-0.423,0.001-0.554,0.169
		c-0.13,0.168-0.14,0.399-0.024,0.578C3.077,21.613,7.452,24,12,24c4.729,0,9-2.331,11.425-6.236
		C23.536,17.585,23.523,17.355,23.393,17.19z M10.5,2.5C10.5,1.673,11.173,1,12,1s1.5,0.673,1.5,1.5S12.827,4,12,4
		S10.5,3.327,10.5,2.5z"/>
</g>
<g id="Airplane">
</g>
<g id="Car">
</g>
<g id="Newsfeed">
</g>
<g id="Wifi_Tethering">
</g>
<g id="No_Wifi_Tethering">
</g>
<g id="Bar_Chart_2">
</g>
<g id="Shop">
</g>
<g id="Alarm">
</g>
<g id="Sim_Card">
</g>
<g id="Radar">
</g>
<g id="Hand_2">
</g>
<g id="Palette">
</g>
<g id="Cake">
</g>
<g id="Blende">
</g>
<g id="Feather_Pen">
</g>
<g id="Ticket">
</g>
<g id="Medal">
</g>
<g id="Mouse_Pointer_1">
</g>
<g id="Mouse_Pointer_2">
</g>
<g id="Fingerprint">
</g>
<g id="Earth">
</g>
</svg>
