<?xml version="1.0" encoding="iso-8859-1"?>
<!-- Generator: Adobe Illustrator 19.2.1, SVG Export Plug-In . SVG Version: 6.00 Build 0)  -->
<svg version="1.1" xmlns="http://www.w3.org/2000/svg" xmlns:xlink="http://www.w3.org/1999/xlink" x="0px" y="0px"
	 viewBox="0 0 24 24" style="enable-background:new 0 0 24 24;" xml:space="preserve">
<g id="Mail">
</g>
<g id="Open_Mail">
</g>
<g id="Mail_Attachmet">
</g>
<g id="Mails">
</g>
<g id="Trash">
</g>
<g id="Trash_Full">
</g>
<g id="Preferences_1">
</g>
<g id="Preferences_2">
</g>
<g id="Mouse">
</g>
<g id="Computer">
</g>
<g id="Notebook">
</g>
<g id="Mobile_Phone">
</g>
<g id="Print">
</g>
<g id="Calculator">
</g>
<g id="Tag">
</g>
<g id="Paperclip">
</g>
<g id="Heart">
</g>
<g id="Lock">
</g>
<g id="Lock_Open">
</g>
<g id="Key_1">
</g>
<g id="Star">
</g>
<g id="Add">
</g>
<g id="Remove">
</g>
<g id="Error">
</g>
<g id="Check_1">
</g>
<g id="Time">
</g>
<g id="Question_Mark">
</g>
<g id="Error_Mark">
</g>
<g id="Sand-Glass">
</g>
<g id="Battery_Full">
</g>
<g id="Battery_Charge">
</g>
<g id="Battery_Half">
</g>
<g id="Battery_Low">
</g>
<g id="No_Battery">
</g>
<g id="Key_2">
</g>
<g id="Link">
</g>
<g id="Brake_Link">
</g>
<g id="Pencil">
</g>
<g id="At">
</g>
<g id="Reply">
</g>
<g id="Accessible">
</g>
<g id="Up_Arrow">
</g>
<g id="Brush">
</g>
<g id="Design_Mug">
</g>
<g id="Design">
</g>
<g id="Server">
</g>
<g id="Database">
</g>
<g id="Save">
</g>
<g id="Female">
</g>
<g id="Male">
</g>
<g id="Book">
</g>
<g id="Power">
</g>
<g id="Reload">
</g>
<g id="Map">
</g>
<g id="Loction_1">
</g>
<g id="Location_2">
</g>
<g id="Globe">
</g>
<g id="Suitcase">
</g>
<g id="Callendar">
</g>
<g id="Cloud_Off">
</g>
<g id="File_1">
</g>
<g id="File_2">
</g>
<g id="Folder">
</g>
<g id="Open_Folder">
</g>
<g id="Cloud">
</g>
<g id="Upload_Cloud">
</g>
<g id="Download_Cloud">
</g>
<g id="Eye">
</g>
<g id="Invisible">
</g>
<g id="Assignment">
</g>
<g id="Note_Book">
</g>
<g id="Webpage">
</g>
<g id="Mailbox">
</g>
<g id="Drive">
</g>
<g id="Disc">
</g>
<g id="Wifi_1">
</g>
<g id="Wifi_2">
</g>
<g id="Archive">
	<g>
		<path d="M23.412,6.976l-3.605-5.408c-0.651-0.976-1.739-1.559-2.912-1.559h-9.24c-1.518,0-2.922,0.757-3.758,2.025L0.669,6.932
			C0.231,7.534,0,8.246,0,8.991v11.5c0,1.93,1.57,3.5,3.5,3.5h17c1.93,0,3.5-1.57,3.5-3.5V8.917C24,8.225,23.797,7.554,23.412,6.976
			z M1.498,7.492l3.234-4.908c0.65-0.986,1.742-1.575,2.923-1.575h9.24c0.838,0,1.615,0.416,2.08,1.113L22.58,7.53
			c0.099,0.149,0.161,0.315,0.226,0.479H20.5c-1.379,0-2.5,1.122-2.5,2.5v4.982c0,1.379-1.121,2.5-2.5,2.5h-7
			c-1.378,0-2.5-1.121-2.5-2.5v-5c0-1.369-1.113-2.482-2.482-2.482H1.209C1.283,7.836,1.37,7.667,1.484,7.512
			C1.489,7.505,1.494,7.499,1.498,7.492z"/>
		<path d="M7,8.991h10c0.276,0,0.5-0.224,0.5-0.5s-0.224-0.5-0.5-0.5H7c-0.276,0-0.5,0.224-0.5,0.5S6.724,8.991,7,8.991z"/>
		<path d="M16.5,9.991h-9c-0.276,0-0.5,0.224-0.5,0.5s0.224,0.5,0.5,0.5h9c0.276,0,0.5-0.224,0.5-0.5S16.776,9.991,16.5,9.991z"/>
		<path d="M16.5,11.991h-9c-0.276,0-0.5,0.224-0.5,0.5s0.224,0.5,0.5,0.5h9c0.276,0,0.5-0.224,0.5-0.5S16.776,11.991,16.5,11.991z"
			/>
		<path d="M16.5,13.991h-9c-0.276,0-0.5,0.224-0.5,0.5s0.224,0.5,0.5,0.5h9c0.276,0,0.5-0.224,0.5-0.5S16.776,13.991,16.5,13.991z"
			/>
		<path d="M16,15.991H8c-0.276,0-0.5,0.224-0.5,0.5s0.224,0.5,0.5,0.5h8c0.276,0,0.5-0.224,0.5-0.5S16.276,15.991,16,15.991z"/>
	</g>
</g>
<g id="Archive_File">
</g>
<g id="News">
</g>
<g id="Home">
</g>
<g id="Collaboration">
</g>
<g id="Announcement">
</g>
<g id="Watch">
</g>
<g id="Clock">
</g>
<g id="Volume">
</g>
<g id="Mute">
</g>
<g id="Hand">
</g>
<g id="Layers">
</g>
<g id="Bell">
</g>
<g id="Speach_Bubble">
</g>
<g id="Speach_Bubbles">
</g>
<g id="Zoom_In">
</g>
<g id="Zoom_Out">
</g>
<g id="Search">
</g>
<g id="Back_Arrow">
</g>
<g id="Close">
</g>
<g id="Check_2">
</g>
<g id="Left_Arrow_2">
</g>
<g id="Right_Arrow_2">
</g>
</svg>
