<?xml version="1.0" encoding="iso-8859-1"?>
<!-- Generator: Adobe Illustrator 19.2.1, SVG Export Plug-In . SVG Version: 6.00 Build 0)  -->
<svg version="1.1" xmlns="http://www.w3.org/2000/svg" xmlns:xlink="http://www.w3.org/1999/xlink" x="0px" y="0px"
	 viewBox="0 0 24 24" style="enable-background:new 0 0 24 24;" xml:space="preserve">
<g id="Flag">
</g>
<g id="Umbrella">
</g>
<g id="Briefcase">
</g>
<g id="Box">
</g>
<g id="Magnet">
</g>
<g id="Percent">
</g>
<g id="Rocket">
</g>
<g id="Share">
</g>
<g id="Transmitter">
</g>
<g id="Record_2">
</g>
<g id="Record_1">
</g>
<g id="Anchor">
</g>
<g id="Airplane">
</g>
<g id="Car">
</g>
<g id="Newsfeed">
</g>
<g id="Wifi_Tethering">
</g>
<g id="No_Wifi_Tethering">
</g>
<g id="Bar_Chart_2">
	<g>
		<path d="M23.5,23H23V8.5C23,8.224,22.776,8,22.5,8h-3C19.224,8,19,8.224,19,8.5V23h-2v-8.5c0-0.276-0.224-0.5-0.5-0.5h-3
			c-0.276,0-0.5,0.224-0.5,0.5V23h-2V12.5c0-0.276-0.224-0.5-0.5-0.5h-3C7.224,12,7,12.224,7,12.5V23H5v-5.5
			C5,17.224,4.776,17,4.5,17h-3C1.224,17,1,17.224,1,17.5V23H0.5C0.224,23,0,23.224,0,23.5S0.224,24,0.5,24h1h3h3h3h3h3h3h3h1
			c0.276,0,0.5-0.224,0.5-0.5S23.776,23,23.5,23z"/>
		<path d="M3,13c1.103,0,2-0.897,2-2c0-0.351-0.099-0.677-0.259-0.964l3.063-2.443C8.139,7.845,8.55,8,9,8
			c0.733,0,1.369-0.401,1.717-0.991l2.317,0.661C13.015,7.778,13,7.887,13,8c0,1.103,0.897,2,2,2s2-0.897,2-2
			c0-0.37-0.108-0.712-0.283-1.01l3.274-3.274C20.288,3.892,20.63,4,21,4c1.103,0,2-0.897,2-2s-0.897-2-2-2s-2,0.897-2,2
			c0,0.37,0.108,0.712,0.283,1.01L16.01,6.283C15.712,6.108,15.37,6,15,6c-0.627,0-1.181,0.296-1.548,0.749l-2.457-0.701
			C10.995,6.032,11,6.017,11,6c0-1.103-0.897-2-2-2S7,4.897,7,6c0,0.291,0.065,0.565,0.177,0.814L4.052,9.307
			C3.746,9.115,3.387,9,3,9c-1.103,0-2,0.897-2,2S1.897,13,3,13z"/>
	</g>
</g>
<g id="Shop">
</g>
<g id="Alarm">
</g>
<g id="Sim_Card">
</g>
<g id="Radar">
</g>
<g id="Hand_2">
</g>
<g id="Palette">
</g>
<g id="Cake">
</g>
<g id="Blende">
</g>
<g id="Feather_Pen">
</g>
<g id="Ticket">
</g>
<g id="Medal">
</g>
<g id="Mouse_Pointer_1">
</g>
<g id="Mouse_Pointer_2">
</g>
<g id="Fingerprint">
</g>
<g id="Earth">
</g>
</svg>
