<?xml version="1.0" encoding="iso-8859-1"?>
<!-- Generator: Adobe Illustrator 19.2.1, SVG Export Plug-In . SVG Version: 6.00 Build 0)  -->
<svg version="1.1" xmlns="http://www.w3.org/2000/svg" xmlns:xlink="http://www.w3.org/1999/xlink" x="0px" y="0px"
	 viewBox="0 0 24 24" style="enable-background:new 0 0 24 24;" xml:space="preserve">
<g id="Mail">
</g>
<g id="Open_Mail">
</g>
<g id="Mail_Attachmet">
</g>
<g id="Mails">
</g>
<g id="Trash">
</g>
<g id="Trash_Full">
</g>
<g id="Preferences_1">
</g>
<g id="Preferences_2">
</g>
<g id="Mouse">
</g>
<g id="Computer">
</g>
<g id="Notebook">
</g>
<g id="Mobile_Phone">
</g>
<g id="Print">
</g>
<g id="Calculator">
</g>
<g id="Tag">
</g>
<g id="Paperclip">
</g>
<g id="Heart">
</g>
<g id="Lock">
</g>
<g id="Lock_Open">
</g>
<g id="Key_1">
</g>
<g id="Star">
</g>
<g id="Add">
</g>
<g id="Remove">
</g>
<g id="Error">
</g>
<g id="Check_1">
</g>
<g id="Time">
</g>
<g id="Question_Mark">
</g>
<g id="Error_Mark">
</g>
<g id="Sand-Glass">
</g>
<g id="Battery_Full">
</g>
<g id="Battery_Charge">
</g>
<g id="Battery_Half">
</g>
<g id="Battery_Low">
</g>
<g id="No_Battery">
</g>
<g id="Key_2">
</g>
<g id="Link">
</g>
<g id="Brake_Link">
	<g>
		<path d="M5.152,6.104C5.25,6.201,5.377,6.25,5.505,6.25c0.128,0,0.256-0.049,0.354-0.147c0.195-0.195,0.194-0.512-0.001-0.707
			l-3.01-3C2.653,2.202,2.336,2.201,2.141,2.397C1.946,2.593,1.947,2.909,2.142,3.104L5.152,6.104z"/>
		<path d="M0.495,8.25h4c0.276,0,0.5-0.224,0.5-0.5s-0.224-0.5-0.5-0.5h-4c-0.276,0-0.5,0.224-0.5,0.5S0.219,8.25,0.495,8.25z"/>
		<path d="M7.505,5.25c0.276,0,0.5-0.224,0.5-0.5v-4c0-0.276-0.224-0.5-0.5-0.5s-0.5,0.224-0.5,0.5v4
			C7.005,5.026,7.229,5.25,7.505,5.25z"/>
		<path d="M18.848,17.396c-0.195-0.193-0.512-0.194-0.707,0.002c-0.195,0.195-0.194,0.512,0.001,0.707l3.01,3
			c0.098,0.097,0.225,0.146,0.353,0.146c0.128,0,0.256-0.049,0.354-0.147c0.195-0.195,0.194-0.512-0.001-0.707L18.848,17.396z"/>
		<path d="M23.505,15.25h-4c-0.276,0-0.5,0.224-0.5,0.5s0.224,0.5,0.5,0.5h4c0.276,0,0.5-0.224,0.5-0.5S23.781,15.25,23.505,15.25z"
			/>
		<path d="M16.495,18.25c-0.276,0-0.5,0.224-0.5,0.5v4c0,0.276,0.224,0.5,0.5,0.5s0.5-0.224,0.5-0.5v-4
			C16.995,18.474,16.771,18.25,16.495,18.25z"/>
		<path d="M22.682,7.927c1.754-1.754,1.754-4.609,0-6.363c-1.755-1.756-4.61-1.754-6.364,0l-4.364,4.363
			c-0.195,0.195-0.195,0.512,0,0.707s0.512,0.195,0.707,0l4.364-4.363c1.365-1.365,3.586-1.365,4.95,0
			c1.364,1.364,1.364,3.585,0,4.949l-6.364,6.364c-1.364,1.366-3.585,1.364-4.95,0c-0.195-0.195-0.512-0.195-0.707,0
			s-0.195,0.512,0,0.707c0.877,0.877,2.03,1.316,3.182,1.316c1.152,0,2.304-0.439,3.182-1.316L22.682,7.927z"/>
		<path d="M11.329,17.866l-4.364,4.363c-1.365,1.365-3.586,1.365-4.95,0c-1.364-1.364-1.364-3.585,0-4.949l6.364-6.364
			c1.365-1.366,3.586-1.364,4.95,0c0.195,0.195,0.512,0.195,0.707,0s0.195-0.512,0-0.707c-1.754-1.753-4.608-1.754-6.364,0
			l-6.364,6.364c-1.754,1.754-1.754,4.609,0,6.363c0.877,0.878,2.03,1.316,3.182,1.316s2.305-0.439,3.182-1.316l4.364-4.363
			c0.195-0.195,0.195-0.512,0-0.707S11.524,17.671,11.329,17.866z"/>
	</g>
</g>
<g id="Pencil">
</g>
<g id="At">
</g>
<g id="Reply">
</g>
<g id="Accessible">
</g>
<g id="Up_Arrow">
</g>
<g id="Brush">
</g>
<g id="Design_Mug">
</g>
<g id="Design">
</g>
<g id="Server">
</g>
<g id="Database">
</g>
<g id="Save">
</g>
<g id="Female">
</g>
<g id="Male">
</g>
<g id="Book">
</g>
<g id="Power">
</g>
<g id="Reload">
</g>
<g id="Map">
</g>
<g id="Loction_1">
</g>
<g id="Location_2">
</g>
<g id="Globe">
</g>
<g id="Suitcase">
</g>
<g id="Callendar">
</g>
<g id="Cloud_Off">
</g>
<g id="File_1">
</g>
<g id="File_2">
</g>
<g id="Folder">
</g>
<g id="Open_Folder">
</g>
<g id="Cloud">
</g>
<g id="Upload_Cloud">
</g>
<g id="Download_Cloud">
</g>
<g id="Eye">
</g>
<g id="Invisible">
</g>
<g id="Assignment">
</g>
<g id="Note_Book">
</g>
<g id="Webpage">
</g>
<g id="Mailbox">
</g>
<g id="Drive">
</g>
<g id="Disc">
</g>
<g id="Wifi_1">
</g>
<g id="Wifi_2">
</g>
<g id="Archive">
</g>
<g id="Archive_File">
</g>
<g id="News">
</g>
<g id="Home">
</g>
<g id="Collaboration">
</g>
<g id="Announcement">
</g>
<g id="Watch">
</g>
<g id="Clock">
</g>
<g id="Volume">
</g>
<g id="Mute">
</g>
<g id="Hand">
</g>
<g id="Layers">
</g>
<g id="Bell">
</g>
<g id="Speach_Bubble">
</g>
<g id="Speach_Bubbles">
</g>
<g id="Zoom_In">
</g>
<g id="Zoom_Out">
</g>
<g id="Search">
</g>
<g id="Back_Arrow">
</g>
<g id="Close">
</g>
<g id="Check_2">
</g>
<g id="Left_Arrow_2">
</g>
<g id="Right_Arrow_2">
</g>
</svg>
