<?xml version="1.0" encoding="iso-8859-1"?>
<!-- Generator: Adobe Illustrator 19.2.1, SVG Export Plug-In . SVG Version: 6.00 Build 0)  -->
<svg version="1.1" xmlns="http://www.w3.org/2000/svg" xmlns:xlink="http://www.w3.org/1999/xlink" x="0px" y="0px"
	 viewBox="0 0 24 24" style="enable-background:new 0 0 24 24;" xml:space="preserve">
<g id="Credit_Card">
</g>
<g id="Banknote">
</g>
<g id="Wallet">
</g>
<g id="Compass">
</g>
<g id="Camera_1">
</g>
<g id="Photo">
</g>
<g id="Picture">
</g>
<g id="Camera_2">
</g>
<g id="No_Camera">
</g>
<g id="Video">
</g>
<g id="Audio">
</g>
<g id="Microphone_1">
</g>
<g id="Microphone_2">
</g>
<g id="No_Microphone">
</g>
<g id="Shopping_Cart">
</g>
<g id="Add_Shopping_Cart">
</g>
<g id="Remove_Shopping_Cart">
</g>
<g id="Shopping_Basket">
</g>
<g id="Jing-Jang">
</g>
<g id="Leaf">
</g>
<g id="Glass">
</g>
<g id="Cup">
</g>
<g id="Mug">
</g>
<g id="Refresh">
</g>
<g id="Login">
</g>
<g id="Logout">
</g>
<g id="Flowchart">
</g>
<g id="Pin_1">
</g>
<g id="Pin_2">
</g>
<g id="User_1">
</g>
<g id="User_2">
</g>
<g id="Users">
</g>
<g id="Adjustments">
</g>
<g id="Type">
</g>
<g id="Format_Size">
</g>
<g id="Menu_1">
</g>
<g id="Other">
</g>
<g id="Flash">
</g>
<g id="No_Flash">
</g>
<g id="Switch_Button_1">
</g>
<g id="Switch_Button_2">
</g>
<g id="Cut">
</g>
<g id="Crop">
</g>
<g id="Sun">
</g>
<g id="USB">
</g>
<g id="Pie_Chart_1">
</g>
<g id="Pie_Chart_2">
</g>
<g id="Line_Chart">
</g>
<g id="Bar_Chart">
</g>
<g id="Target">
</g>
<g id="Flashlight">
</g>
<g id="USB_Device">
</g>
<g id="Eject">
</g>
<g id="Lightbulb">
</g>
<g id="Information">
</g>
<g id="Deactivate_Protection">
</g>
<g id="Active_Protection">
</g>
<g id="Bug">
	<g>
		<path d="M20.5,15h-2.516C17.992,14.832,18,14.662,18,14.5c0-1.047-0.039-1.925-0.094-2.669l2.872-1.914
			c0.229-0.153,0.292-0.463,0.139-0.693c-0.155-0.231-0.466-0.291-0.693-0.139L17.798,10.7c-0.141-1.193-0.306-1.799-0.318-1.84
			c-0.029-0.099-0.088-0.187-0.168-0.251l-1.464-1.171c-0.125,0.397-0.347,0.854-0.762,1.289C14.37,9.477,13.322,9.879,12,9.964
			V23.96c2.095-0.212,3.615-1.728,4.603-3.65l2.543,2.543C19.244,22.951,19.372,23,19.5,23s0.256-0.049,0.354-0.146
			c0.195-0.195,0.195-0.512,0-0.707l-2.81-2.81c0.434-1.084,0.721-2.24,0.858-3.337H20.5c0.276,0,0.5-0.224,0.5-0.5
			S20.776,15,20.5,15z"/>
		<path d="M14.999,6.477c-0.003-0.07-0.021-0.138-0.052-0.2l-1.446-2.892c-0.012-0.49,0.057-1.687,0.526-2.18
			C14.159,1.065,14.311,1,14.504,1c0.276,0,0.5-0.224,0.5-0.5S14.78,0,14.504,0c-0.467,0-0.882,0.178-1.202,0.516
			C12.671,1.18,12.532,2.324,12.506,3h-2.008c-0.026-0.676-0.165-1.82-0.796-2.484C9.382,0.178,8.966,0,8.5,0C8.224,0,8,0.224,8,0.5
			S8.224,1,8.5,1c0.193,0,0.344,0.064,0.477,0.203C9.44,1.691,9.513,2.881,9.502,3.377l-1.45,2.899C8.021,6.339,8.004,6.407,8,6.477
			c-0.004,0.087-0.021,0.87,0.637,1.56C9.248,8.676,10.211,9,11.5,9s2.252-0.324,2.862-0.963
			C15.021,7.347,15.004,6.563,14.999,6.477z"/>
		<path d="M7.154,7.437L5.687,8.609C5.607,8.674,5.549,8.761,5.52,8.86C5.508,8.902,5.343,9.507,5.202,10.7L2.777,9.084
			c-0.23-0.153-0.541-0.091-0.693,0.139c-0.153,0.23-0.091,0.54,0.139,0.693l2.872,1.914C5.039,12.575,5,13.453,5,14.5
			c0,0.162,0.008,0.332,0.016,0.5H2.5C2.224,15,2,15.224,2,15.5S2.224,16,2.5,16h2.598c0.137,1.097,0.424,2.252,0.858,3.337
			l-2.81,2.81c-0.195,0.195-0.195,0.512,0,0.707C3.244,22.951,3.372,23,3.5,23s0.256-0.049,0.354-0.146l2.544-2.544
			c0.988,1.921,2.508,3.438,4.603,3.65V9.964C9.678,9.879,8.63,9.477,7.915,8.727C7.501,8.294,7.279,7.835,7.154,7.437z"/>
	</g>
</g>
<g id="Protection">
</g>
<g id="Phone">
</g>
<g id="List">
</g>
<g id="Plugin_1">
</g>
<g id="Bookmarrk">
</g>
<g id="Handshake">
</g>
<g id="Minimize">
</g>
<g id="Maximize">
</g>
<g id="Diamond">
</g>
<g id="Stop">
</g>
<g id="Shuffle">
</g>
<g id="Undo">
</g>
<g id="Upgrade">
</g>
<g id="Coding">
</g>
<g id="Syncronizaion">
</g>
<g id="Radio">
</g>
<g id="Presentation">
</g>
<g id="Door">
</g>
<g id="Thumbs_Up">
</g>
<g id="Thumbs_Down">
</g>
<g id="Keyboard">
</g>
<g id="_x33_D_Cube">
</g>
<g id="Signal">
</g>
<g id="Dice">
</g>
<g id="Upload">
</g>
<g id="Download">
</g>
<g id="Plugin_2">
</g>
<g id="Shopping_Bag">
</g>
<g id="Lifebelt">
</g>
<g id="Glasses">
</g>
<g id="Parabolic_Antenna">
</g>
<g id="Loudspeaker">
</g>
<g id="Play">
</g>
<g id="Pause">
</g>
<g id="Signpost">
</g>
<g id="Bluetooth">
</g>
<g id="Present">
</g>
<g id="Ruler">
</g>
<g id="Connection">
</g>
<g id="Money">
</g>
<g id="Paper_Plane">
</g>
<g id="Wallet_2">
</g>
</svg>
