<?xml version="1.0" encoding="iso-8859-1"?>
<!-- Generator: Adobe Illustrator 19.2.1, SVG Export Plug-In . SVG Version: 6.00 Build 0)  -->
<svg version="1.1" xmlns="http://www.w3.org/2000/svg" xmlns:xlink="http://www.w3.org/1999/xlink" x="0px" y="0px"
	 viewBox="0 0 24 24" style="enable-background:new 0 0 24 24;" xml:space="preserve">
<g id="Mail">
</g>
<g id="Open_Mail">
</g>
<g id="Mail_Attachmet">
</g>
<g id="Mails">
</g>
<g id="Trash">
</g>
<g id="Trash_Full">
</g>
<g id="Preferences_1">
</g>
<g id="Preferences_2">
</g>
<g id="Mouse">
</g>
<g id="Computer">
</g>
<g id="Notebook">
</g>
<g id="Mobile_Phone">
</g>
<g id="Print">
</g>
<g id="Calculator">
	<path d="M17.5,0h-11C4.57,0,3,1.57,3,3.5v17C3,22.43,4.57,24,6.5,24h11c1.93,0,3.5-1.57,3.5-3.5v-17C21,1.57,19.43,0,17.5,0z
		 M9.916,20.223c0.153,0.229,0.091,0.54-0.139,0.693C9.692,20.973,9.596,21,9.5,21c-0.162,0-0.32-0.078-0.417-0.223L8.5,19.901
		l-0.584,0.876C7.82,20.922,7.661,21,7.5,21c-0.095,0-0.191-0.027-0.277-0.084c-0.23-0.153-0.292-0.464-0.139-0.693L7.899,19
		l-0.815-1.223c-0.153-0.229-0.091-0.54,0.139-0.693c0.23-0.153,0.54-0.091,0.693,0.139L8.5,18.099l0.584-0.876
		c0.153-0.229,0.462-0.292,0.693-0.139c0.23,0.153,0.292,0.464,0.139,0.693L9.101,19L9.916,20.223z M10.5,14H9v1.5
		C9,15.776,8.776,16,8.5,16S8,15.776,8,15.5V14H6.5C6.224,14,6,13.776,6,13.5S6.224,13,6.5,13H8v-1.5C8,11.224,8.224,11,8.5,11
		S9,11.224,9,11.5V13h1.5c0.276,0,0.5,0.224,0.5,0.5S10.776,14,10.5,14z M17.5,21h-4c-0.276,0-0.5-0.224-0.5-0.5s0.224-0.5,0.5-0.5
		h4c0.276,0,0.5,0.224,0.5,0.5S17.776,21,17.5,21z M17.5,19h-4c-0.276,0-0.5-0.224-0.5-0.5s0.224-0.5,0.5-0.5h4
		c0.276,0,0.5,0.224,0.5,0.5S17.776,19,17.5,19z M17.5,14h-4c-0.276,0-0.5-0.224-0.5-0.5s0.224-0.5,0.5-0.5h4
		c0.276,0,0.5,0.224,0.5,0.5S17.776,14,17.5,14z M19,8.5c0,0.827-0.673,1.5-1.5,1.5h-11C5.673,10,5,9.327,5,8.5v-5
		C5,2.673,5.673,2,6.5,2h11C18.327,2,19,2.673,19,3.5V8.5z"/>
</g>
<g id="Tag">
</g>
<g id="Paperclip">
</g>
<g id="Heart">
</g>
<g id="Lock">
</g>
<g id="Lock_Open">
</g>
<g id="Key_1">
</g>
<g id="Star">
</g>
<g id="Add">
</g>
<g id="Remove">
</g>
<g id="Error">
</g>
<g id="Check_1">
</g>
<g id="Time">
</g>
<g id="Question_Mark">
</g>
<g id="Error_Mark">
</g>
<g id="Sand-Glass">
</g>
<g id="Battery_Full">
</g>
<g id="Battery_Charge">
</g>
<g id="Battery_Half">
</g>
<g id="Battery_Low">
</g>
<g id="No_Battery">
</g>
<g id="Key_2">
</g>
<g id="Link">
</g>
<g id="Brake_Link">
</g>
<g id="Pencil">
</g>
<g id="At">
</g>
<g id="Reply">
</g>
<g id="Accessible">
</g>
<g id="Up_Arrow">
</g>
<g id="Brush">
</g>
<g id="Design_Mug">
</g>
<g id="Design">
</g>
<g id="Server">
</g>
<g id="Database">
</g>
<g id="Save">
</g>
<g id="Female">
</g>
<g id="Male">
</g>
<g id="Book">
</g>
<g id="Power">
</g>
<g id="Reload">
</g>
<g id="Map">
</g>
<g id="Loction_1">
</g>
<g id="Location_2">
</g>
<g id="Globe">
</g>
<g id="Suitcase">
</g>
<g id="Callendar">
</g>
<g id="Cloud_Off">
</g>
<g id="File_1">
</g>
<g id="File_2">
</g>
<g id="Folder">
</g>
<g id="Open_Folder">
</g>
<g id="Cloud">
</g>
<g id="Upload_Cloud">
</g>
<g id="Download_Cloud">
</g>
<g id="Eye">
</g>
<g id="Invisible">
</g>
<g id="Assignment">
</g>
<g id="Note_Book">
</g>
<g id="Webpage">
</g>
<g id="Mailbox">
</g>
<g id="Drive">
</g>
<g id="Disc">
</g>
<g id="Wifi_1">
</g>
<g id="Wifi_2">
</g>
<g id="Archive">
</g>
<g id="Archive_File">
</g>
<g id="News">
</g>
<g id="Home">
</g>
<g id="Collaboration">
</g>
<g id="Announcement">
</g>
<g id="Watch">
</g>
<g id="Clock">
</g>
<g id="Volume">
</g>
<g id="Mute">
</g>
<g id="Hand">
</g>
<g id="Layers">
</g>
<g id="Bell">
</g>
<g id="Speach_Bubble">
</g>
<g id="Speach_Bubbles">
</g>
<g id="Zoom_In">
</g>
<g id="Zoom_Out">
</g>
<g id="Search">
</g>
<g id="Back_Arrow">
</g>
<g id="Close">
</g>
<g id="Check_2">
</g>
<g id="Left_Arrow_2">
</g>
<g id="Right_Arrow_2">
</g>
</svg>
