<?xml version="1.0" encoding="iso-8859-1"?>
<!-- Generator: Adobe Illustrator 19.2.1, SVG Export Plug-In . SVG Version: 6.00 Build 0)  -->
<svg version="1.1" xmlns="http://www.w3.org/2000/svg" xmlns:xlink="http://www.w3.org/1999/xlink" x="0px" y="0px"
	 viewBox="0 0 24 24" style="enable-background:new 0 0 24 24;" xml:space="preserve">
<g id="Mail">
</g>
<g id="Open_Mail">
</g>
<g id="Mail_Attachmet">
</g>
<g id="Mails">
</g>
<g id="Trash">
</g>
<g id="Trash_Full">
</g>
<g id="Preferences_1">
</g>
<g id="Preferences_2">
</g>
<g id="Mouse">
</g>
<g id="Computer">
</g>
<g id="Notebook">
</g>
<g id="Mobile_Phone">
</g>
<g id="Print">
</g>
<g id="Calculator">
</g>
<g id="Tag">
</g>
<g id="Paperclip">
</g>
<g id="Heart">
</g>
<g id="Lock">
</g>
<g id="Lock_Open">
</g>
<g id="Key_1">
</g>
<g id="Star">
</g>
<g id="Add">
</g>
<g id="Remove">
</g>
<g id="Error">
</g>
<g id="Check_1">
</g>
<g id="Time">
</g>
<g id="Question_Mark">
</g>
<g id="Error_Mark">
</g>
<g id="Sand-Glass">
</g>
<g id="Battery_Full">
</g>
<g id="Battery_Charge">
</g>
<g id="Battery_Half">
</g>
<g id="Battery_Low">
</g>
<g id="No_Battery">
</g>
<g id="Key_2">
</g>
<g id="Link">
</g>
<g id="Brake_Link">
</g>
<g id="Pencil">
</g>
<g id="At">
</g>
<g id="Reply">
</g>
<g id="Accessible">
</g>
<g id="Up_Arrow">
</g>
<g id="Brush">
</g>
<g id="Design_Mug">
	<g>
		<path d="M19.5,11h-13C6.224,11,6,11.224,6,11.5V12H5.5C3.57,12,2,13.57,2,15.5S3.57,19,5.5,19H6v2.5C6,22.879,7.122,24,8.5,24h9
			c1.379,0,2.5-1.121,2.5-2.5v-10C20,11.224,19.776,11,19.5,11z M6,18H5.5C4.122,18,3,16.879,3,15.5S4.122,13,5.5,13H6V18z"/>
		<path d="M20.792,4.094c-0.13-0.094-0.297-0.121-0.45-0.068l-2.768,0.923L21,7.233V4.5C21,4.339,20.923,4.188,20.792,4.094z"/>
		<path d="M5.5,7c0.052,0,0.098-0.01,0.149-0.012L6.778,10h3.016L7.579,6.014C7.85,5.612,8,5.102,8,4.5
			c0-0.853-0.358-1.334-0.646-1.722C7.121,2.465,7,2.289,7,2V0.5C7,0.224,6.776,0,6.5,0C4.169,0,3,2.564,3,4C3,5.449,4.004,7,5.5,7z
			"/>
		<path d="M15,8V0.5C15,0.224,14.776,0,14.5,0h-4C10.224,0,10,0.224,10,0.5V2h2c0.276,0,0.5,0.224,0.5,0.5S12.276,3,12,3h-2v1h2.5
			C12.776,4,13,4.224,13,4.5S12.776,5,12.5,5H10v1h1.5C11.776,6,12,6.224,12,6.5S11.776,7,11.5,7H10v1h2.5C12.776,8,13,8.224,13,8.5
			S12.776,9,12.5,9H10v1h9.434l1.204-1.807l-3.856-2.571L15,8z"/>
	</g>
</g>
<g id="Design">
</g>
<g id="Server">
</g>
<g id="Database">
</g>
<g id="Save">
</g>
<g id="Female">
</g>
<g id="Male">
</g>
<g id="Book">
</g>
<g id="Power">
</g>
<g id="Reload">
</g>
<g id="Map">
</g>
<g id="Loction_1">
</g>
<g id="Location_2">
</g>
<g id="Globe">
</g>
<g id="Suitcase">
</g>
<g id="Callendar">
</g>
<g id="Cloud_Off">
</g>
<g id="File_1">
</g>
<g id="File_2">
</g>
<g id="Folder">
</g>
<g id="Open_Folder">
</g>
<g id="Cloud">
</g>
<g id="Upload_Cloud">
</g>
<g id="Download_Cloud">
</g>
<g id="Eye">
</g>
<g id="Invisible">
</g>
<g id="Assignment">
</g>
<g id="Note_Book">
</g>
<g id="Webpage">
</g>
<g id="Mailbox">
</g>
<g id="Drive">
</g>
<g id="Disc">
</g>
<g id="Wifi_1">
</g>
<g id="Wifi_2">
</g>
<g id="Archive">
</g>
<g id="Archive_File">
</g>
<g id="News">
</g>
<g id="Home">
</g>
<g id="Collaboration">
</g>
<g id="Announcement">
</g>
<g id="Watch">
</g>
<g id="Clock">
</g>
<g id="Volume">
</g>
<g id="Mute">
</g>
<g id="Hand">
</g>
<g id="Layers">
</g>
<g id="Bell">
</g>
<g id="Speach_Bubble">
</g>
<g id="Speach_Bubbles">
</g>
<g id="Zoom_In">
</g>
<g id="Zoom_Out">
</g>
<g id="Search">
</g>
<g id="Back_Arrow">
</g>
<g id="Close">
</g>
<g id="Check_2">
</g>
<g id="Left_Arrow_2">
</g>
<g id="Right_Arrow_2">
</g>
</svg>
