<?xml version="1.0" encoding="iso-8859-1"?>
<!-- Generator: Adobe Illustrator 19.2.1, SVG Export Plug-In . SVG Version: 6.00 Build 0)  -->
<svg version="1.1" xmlns="http://www.w3.org/2000/svg" xmlns:xlink="http://www.w3.org/1999/xlink" x="0px" y="0px"
	 viewBox="0 0 24 24" style="enable-background:new 0 0 24 24;" xml:space="preserve">
<g id="Mail">
</g>
<g id="Open_Mail">
</g>
<g id="Mail_Attachmet">
</g>
<g id="Mails">
</g>
<g id="Trash">
</g>
<g id="Trash_Full">
</g>
<g id="Preferences_1">
</g>
<g id="Preferences_2">
</g>
<g id="Mouse">
</g>
<g id="Computer">
</g>
<g id="Notebook">
</g>
<g id="Mobile_Phone">
</g>
<g id="Print">
</g>
<g id="Calculator">
</g>
<g id="Tag">
</g>
<g id="Paperclip">
</g>
<g id="Heart">
</g>
<g id="Lock">
</g>
<g id="Lock_Open">
</g>
<g id="Key_1">
</g>
<g id="Star">
</g>
<g id="Add">
</g>
<g id="Remove">
</g>
<g id="Error">
</g>
<g id="Check_1">
</g>
<g id="Time">
</g>
<g id="Question_Mark">
</g>
<g id="Error_Mark">
	<g>
		<polygon points="11.5,20 12,20 11.5,19.999 		"/>
		<path d="M22.947,22.276l-11-22c-0.17-0.339-0.725-0.339-0.895,0l-11,22c-0.078,0.155-0.069,0.339,0.022,0.486S0.327,23,0.5,23h22
			c0.173,0,0.334-0.09,0.426-0.237C23.017,22.615,23.024,22.432,22.947,22.276z M11,7.5C11,7.224,11.224,7,11.5,7S12,7.224,12,7.5
			v10c0,0.276-0.224,0.5-0.5,0.5S11,17.776,11,17.5V7.5z M11.5,21c-0.551,0-1-0.448-1-1s0.449-1,1-1s1,0.448,1,1S12.051,21,11.5,21z
			"/>
	</g>
</g>
<g id="Sand-Glass">
</g>
<g id="Battery_Full">
</g>
<g id="Battery_Charge">
</g>
<g id="Battery_Half">
</g>
<g id="Battery_Low">
</g>
<g id="No_Battery">
</g>
<g id="Key_2">
</g>
<g id="Link">
</g>
<g id="Brake_Link">
</g>
<g id="Pencil">
</g>
<g id="At">
</g>
<g id="Reply">
</g>
<g id="Accessible">
</g>
<g id="Up_Arrow">
</g>
<g id="Brush">
</g>
<g id="Design_Mug">
</g>
<g id="Design">
</g>
<g id="Server">
</g>
<g id="Database">
</g>
<g id="Save">
</g>
<g id="Female">
</g>
<g id="Male">
</g>
<g id="Book">
</g>
<g id="Power">
</g>
<g id="Reload">
</g>
<g id="Map">
</g>
<g id="Loction_1">
</g>
<g id="Location_2">
</g>
<g id="Globe">
</g>
<g id="Suitcase">
</g>
<g id="Callendar">
</g>
<g id="Cloud_Off">
</g>
<g id="File_1">
</g>
<g id="File_2">
</g>
<g id="Folder">
</g>
<g id="Open_Folder">
</g>
<g id="Cloud">
</g>
<g id="Upload_Cloud">
</g>
<g id="Download_Cloud">
</g>
<g id="Eye">
</g>
<g id="Invisible">
</g>
<g id="Assignment">
</g>
<g id="Note_Book">
</g>
<g id="Webpage">
</g>
<g id="Mailbox">
</g>
<g id="Drive">
</g>
<g id="Disc">
</g>
<g id="Wifi_1">
</g>
<g id="Wifi_2">
</g>
<g id="Archive">
</g>
<g id="Archive_File">
</g>
<g id="News">
</g>
<g id="Home">
</g>
<g id="Collaboration">
</g>
<g id="Announcement">
</g>
<g id="Watch">
</g>
<g id="Clock">
</g>
<g id="Volume">
</g>
<g id="Mute">
</g>
<g id="Hand">
</g>
<g id="Layers">
</g>
<g id="Bell">
</g>
<g id="Speach_Bubble">
</g>
<g id="Speach_Bubbles">
</g>
<g id="Zoom_In">
</g>
<g id="Zoom_Out">
</g>
<g id="Search">
</g>
<g id="Back_Arrow">
</g>
<g id="Close">
</g>
<g id="Check_2">
</g>
<g id="Left_Arrow_2">
</g>
<g id="Right_Arrow_2">
</g>
</svg>
