<?xml version="1.0" encoding="iso-8859-1"?>
<!-- Generator: Adobe Illustrator 19.2.1, SVG Export Plug-In . SVG Version: 6.00 Build 0)  -->
<svg version="1.1" xmlns="http://www.w3.org/2000/svg" xmlns:xlink="http://www.w3.org/1999/xlink" x="0px" y="0px"
	 viewBox="0 0 24 24" style="enable-background:new 0 0 24 24;" xml:space="preserve">
<g id="Mail">
</g>
<g id="Open_Mail">
</g>
<g id="Mail_Attachmet">
</g>
<g id="Mails">
</g>
<g id="Trash">
</g>
<g id="Trash_Full">
</g>
<g id="Preferences_1">
	<path d="M22.907,10.559c-0.075-0.583-0.405-1.09-0.905-1.392c-0.491-0.296-1.084-0.351-1.633-0.146
		c-0.436,0.162-0.924-0.062-1.122-0.504c-0.233-0.522-0.521-1.022-0.854-1.486c-0.289-0.402-0.235-0.93,0.124-1.226
		C18.962,5.44,19.21,4.9,19.199,4.324c-0.012-0.585-0.287-1.125-0.757-1.48c-0.764-0.579-1.598-1.061-2.479-1.432
		c-0.545-0.229-1.153-0.199-1.666,0.084c-0.504,0.277-0.848,0.762-0.942,1.33c-0.077,0.462-0.511,0.761-1.005,0.72
		c-0.559-0.059-1.142-0.059-1.702,0c-0.501,0.041-0.928-0.257-1.004-0.719C9.55,2.258,9.207,1.773,8.703,1.496
		C8.188,1.213,7.582,1.182,7.036,1.411C6.154,1.783,5.32,2.265,4.557,2.843C4.088,3.199,3.812,3.738,3.801,4.323
		C3.789,4.899,4.038,5.44,4.483,5.807c0.36,0.296,0.413,0.822,0.124,1.225C4.273,7.498,3.985,7.997,3.753,8.517
		c-0.199,0.444-0.692,0.666-1.132,0.5C2.083,8.816,1.492,8.871,0.999,9.167c-0.5,0.301-0.831,0.808-0.906,1.391
		C0.031,11.037,0,11.522,0,12s0.031,0.963,0.093,1.441c0.075,0.583,0.405,1.091,0.905,1.392c0.493,0.297,1.085,0.354,1.634,0.146
		c0.428-0.159,0.922,0.06,1.121,0.504c0.232,0.52,0.52,1.02,0.854,1.486c0.289,0.402,0.235,0.929-0.125,1.226
		C4.038,18.56,3.79,19.1,3.801,19.676c0.012,0.585,0.287,1.125,0.756,1.481c0.762,0.577,1.596,1.059,2.479,1.432
		c0.242,0.102,0.496,0.152,0.749,0.152c0.317,0,0.632-0.079,0.917-0.237c0.504-0.277,0.848-0.763,0.942-1.33
		c0.077-0.462,0.516-0.769,1.005-0.719c0.559,0.059,1.142,0.059,1.702,0c0.497-0.049,0.927,0.257,1.004,0.719
		c0.095,0.568,0.438,1.053,0.942,1.33c0.515,0.284,1.121,0.313,1.666,0.085c0.882-0.372,1.716-0.854,2.479-1.432
		c0.469-0.356,0.744-0.896,0.756-1.481c0.011-0.576-0.238-1.116-0.684-1.482c-0.359-0.296-0.412-0.822-0.123-1.225
		c0.334-0.464,0.621-0.965,0.854-1.485c0.2-0.445,0.696-0.663,1.122-0.505l0.011,0.004c0.54,0.204,1.132,0.147,1.623-0.149
		c0.501-0.302,0.83-0.809,0.905-1.391C22.969,12.967,23,12.482,23,12S22.969,11.033,22.907,10.559z M11.5,16.5
		C9.019,16.5,7,14.481,7,12s2.019-4.5,4.5-4.5S16,9.519,16,12S13.981,16.5,11.5,16.5z"/>
</g>
<g id="Preferences_2">
</g>
<g id="Mouse">
</g>
<g id="Computer">
</g>
<g id="Notebook">
</g>
<g id="Mobile_Phone">
</g>
<g id="Print">
</g>
<g id="Calculator">
</g>
<g id="Tag">
</g>
<g id="Paperclip">
</g>
<g id="Heart">
</g>
<g id="Lock">
</g>
<g id="Lock_Open">
</g>
<g id="Key_1">
</g>
<g id="Star">
</g>
<g id="Add">
</g>
<g id="Remove">
</g>
<g id="Error">
</g>
<g id="Check_1">
</g>
<g id="Time">
</g>
<g id="Question_Mark">
</g>
<g id="Error_Mark">
</g>
<g id="Sand-Glass">
</g>
<g id="Battery_Full">
</g>
<g id="Battery_Charge">
</g>
<g id="Battery_Half">
</g>
<g id="Battery_Low">
</g>
<g id="No_Battery">
</g>
<g id="Key_2">
</g>
<g id="Link">
</g>
<g id="Brake_Link">
</g>
<g id="Pencil">
</g>
<g id="At">
</g>
<g id="Reply">
</g>
<g id="Accessible">
</g>
<g id="Up_Arrow">
</g>
<g id="Brush">
</g>
<g id="Design_Mug">
</g>
<g id="Design">
</g>
<g id="Server">
</g>
<g id="Database">
</g>
<g id="Save">
</g>
<g id="Female">
</g>
<g id="Male">
</g>
<g id="Book">
</g>
<g id="Power">
</g>
<g id="Reload">
</g>
<g id="Map">
</g>
<g id="Loction_1">
</g>
<g id="Location_2">
</g>
<g id="Globe">
</g>
<g id="Suitcase">
</g>
<g id="Callendar">
</g>
<g id="Cloud_Off">
</g>
<g id="File_1">
</g>
<g id="File_2">
</g>
<g id="Folder">
</g>
<g id="Open_Folder">
</g>
<g id="Cloud">
</g>
<g id="Upload_Cloud">
</g>
<g id="Download_Cloud">
</g>
<g id="Eye">
</g>
<g id="Invisible">
</g>
<g id="Assignment">
</g>
<g id="Note_Book">
</g>
<g id="Webpage">
</g>
<g id="Mailbox">
</g>
<g id="Drive">
</g>
<g id="Disc">
</g>
<g id="Wifi_1">
</g>
<g id="Wifi_2">
</g>
<g id="Archive">
</g>
<g id="Archive_File">
</g>
<g id="News">
</g>
<g id="Home">
</g>
<g id="Collaboration">
</g>
<g id="Announcement">
</g>
<g id="Watch">
</g>
<g id="Clock">
</g>
<g id="Volume">
</g>
<g id="Mute">
</g>
<g id="Hand">
</g>
<g id="Layers">
</g>
<g id="Bell">
</g>
<g id="Speach_Bubble">
</g>
<g id="Speach_Bubbles">
</g>
<g id="Zoom_In">
</g>
<g id="Zoom_Out">
</g>
<g id="Search">
</g>
<g id="Back_Arrow">
</g>
<g id="Close">
</g>
<g id="Check_2">
</g>
<g id="Left_Arrow_2">
</g>
<g id="Right_Arrow_2">
</g>
</svg>
