<?xml version="1.0" encoding="iso-8859-1"?>
<!-- Generator: Adobe Illustrator 19.2.1, SVG Export Plug-In . SVG Version: 6.00 Build 0)  -->
<svg version="1.1" xmlns="http://www.w3.org/2000/svg" xmlns:xlink="http://www.w3.org/1999/xlink" x="0px" y="0px"
	 viewBox="0 0 24 24" style="enable-background:new 0 0 24 24;" xml:space="preserve">
<g id="Flag">
</g>
<g id="Umbrella">
</g>
<g id="Briefcase">
</g>
<g id="Box">
</g>
<g id="Magnet">
</g>
<g id="Percent">
</g>
<g id="Rocket">
</g>
<g id="Share">
	<path d="M20,16c-1.385,0-2.605,0.707-3.324,1.779L7.758,13.32C7.905,12.905,8,12.465,8,12s-0.095-0.905-0.242-1.32l8.918-4.459
		C17.395,7.293,18.615,8,20,8c2.206,0,4-1.794,4-4s-1.794-4-4-4s-4,1.794-4,4c0,0.465,0.095,0.905,0.242,1.32L7.324,9.779
		C6.605,8.707,5.385,8,4,8c-2.206,0-4,1.794-4,4s1.794,4,4,4c1.385,0,2.605-0.707,3.324-1.779l8.918,4.459
		C16.095,19.095,16,19.535,16,20c0,2.206,1.794,4,4,4s4-1.794,4-4S22.206,16,20,16z"/>
</g>
<g id="Transmitter">
</g>
<g id="Record_2">
</g>
<g id="Record_1">
</g>
<g id="Anchor">
</g>
<g id="Airplane">
</g>
<g id="Car">
</g>
<g id="Newsfeed">
</g>
<g id="Wifi_Tethering">
</g>
<g id="No_Wifi_Tethering">
</g>
<g id="Bar_Chart_2">
</g>
<g id="Shop">
</g>
<g id="Alarm">
</g>
<g id="Sim_Card">
</g>
<g id="Radar">
</g>
<g id="Hand_2">
</g>
<g id="Palette">
</g>
<g id="Cake">
</g>
<g id="Blende">
</g>
<g id="Feather_Pen">
</g>
<g id="Ticket">
</g>
<g id="Medal">
</g>
<g id="Mouse_Pointer_1">
</g>
<g id="Mouse_Pointer_2">
</g>
<g id="Fingerprint">
</g>
<g id="Earth">
</g>
</svg>
