<?xml version="1.0" encoding="iso-8859-1"?>
<!-- Generator: Adobe Illustrator 19.2.1, SVG Export Plug-In . SVG Version: 6.00 Build 0)  -->
<svg version="1.1" xmlns="http://www.w3.org/2000/svg" xmlns:xlink="http://www.w3.org/1999/xlink" x="0px" y="0px"
	 viewBox="0 0 24 24" style="enable-background:new 0 0 24 24;" xml:space="preserve">
<g id="Flag">
</g>
<g id="Umbrella">
</g>
<g id="Briefcase">
</g>
<g id="Box">
</g>
<g id="Magnet">
</g>
<g id="Percent">
</g>
<g id="Rocket">
</g>
<g id="Share">
</g>
<g id="Transmitter">
</g>
<g id="Record_2">
</g>
<g id="Record_1">
</g>
<g id="Anchor">
</g>
<g id="Airplane">
</g>
<g id="Car">
</g>
<g id="Newsfeed">
</g>
<g id="Wifi_Tethering">
</g>
<g id="No_Wifi_Tethering">
</g>
<g id="Bar_Chart_2">
</g>
<g id="Shop">
	<g>
		<polygon points="14.717,2 12.5,2 12.5,6 17.117,6 		"/>
		<path d="M23.75,6L20.9,2.2C20.806,2.074,20.657,2,20.5,2h-4.617l2.4,4H23.75z"/>
		<path d="M8.117,2H3.5C3.343,2,3.194,2.074,3.1,2.2L0.25,6h5.467L8.117,2z"/>
		<polygon points="11.5,6 11.5,2 9.283,2 6.883,6 		"/>
		<path d="M18.5,7v3.706C18.973,10.898,19.479,11,20,11c2.206,0,4-1.794,4-4H18.5z"/>
		<path d="M5.5,10.706V7H0c0,2.206,1.794,4,4,4C4.522,11,5.028,10.898,5.5,10.706z"/>
		<path d="M17.5,11.12V7h-5v4.109C13.198,11.673,14.065,12,15,12C15.929,12,16.802,11.682,17.5,11.12z"/>
		<path d="M6.5,11.121C7.198,11.682,8.071,12,9,12c0.921,0,1.797-0.335,2.5-0.899V7h-5V11.121z"/>
		<path d="M18.368,11.706l-0.241,0.194C17.244,12.609,16.134,13,15,13h3.5c0.276,0,0.5,0.224,0.5,0.5V21h-6v-7.5
			c0-0.276,0.224-0.5,0.5-0.5H15c-1.095,0-2.128-0.362-3.006-1.03C11.118,12.629,10.065,13,9,13h2.5c0.276,0,0.5,0.224,0.5,0.5v4
			c0,0.276-0.224,0.5-0.5,0.5h-6C5.224,18,5,17.776,5,17.5v-4C5,13.224,5.224,13,5.5,13H9c-1.134,0-2.245-0.391-3.126-1.1
			l-0.242-0.194C5.105,11.889,4.56,12,4,12c-0.342,0-0.677-0.035-1-0.101V21.5C3,21.776,3.224,22,3.5,22H13h6h1.5
			c0.276,0,0.5-0.224,0.5-0.5v-9.601C20.677,11.965,20.342,12,20,12C19.441,12,18.896,11.889,18.368,11.706z"/>
	</g>
</g>
<g id="Alarm">
</g>
<g id="Sim_Card">
</g>
<g id="Radar">
</g>
<g id="Hand_2">
</g>
<g id="Palette">
</g>
<g id="Cake">
</g>
<g id="Blende">
</g>
<g id="Feather_Pen">
</g>
<g id="Ticket">
</g>
<g id="Medal">
</g>
<g id="Mouse_Pointer_1">
</g>
<g id="Mouse_Pointer_2">
</g>
<g id="Fingerprint">
</g>
<g id="Earth">
</g>
</svg>
