<?xml version="1.0" encoding="iso-8859-1"?>
<!-- Generator: Adobe Illustrator 19.2.1, SVG Export Plug-In . SVG Version: 6.00 Build 0)  -->
<svg version="1.1" xmlns="http://www.w3.org/2000/svg" xmlns:xlink="http://www.w3.org/1999/xlink" x="0px" y="0px"
	 viewBox="0 0 24 24" style="enable-background:new 0 0 24 24;" xml:space="preserve">
<g id="Mail">
</g>
<g id="Open_Mail">
</g>
<g id="Mail_Attachmet">
</g>
<g id="Mails">
</g>
<g id="Trash">
</g>
<g id="Trash_Full">
</g>
<g id="Preferences_1">
</g>
<g id="Preferences_2">
</g>
<g id="Mouse">
</g>
<g id="Computer">
</g>
<g id="Notebook">
</g>
<g id="Mobile_Phone">
</g>
<g id="Print">
</g>
<g id="Calculator">
</g>
<g id="Tag">
</g>
<g id="Paperclip">
</g>
<g id="Heart">
</g>
<g id="Lock">
</g>
<g id="Lock_Open">
</g>
<g id="Key_1">
</g>
<g id="Star">
</g>
<g id="Add">
</g>
<g id="Remove">
</g>
<g id="Error">
</g>
<g id="Check_1">
</g>
<g id="Time">
</g>
<g id="Question_Mark">
</g>
<g id="Error_Mark">
</g>
<g id="Sand-Glass">
</g>
<g id="Battery_Full">
</g>
<g id="Battery_Charge">
</g>
<g id="Battery_Half">
</g>
<g id="Battery_Low">
</g>
<g id="No_Battery">
</g>
<g id="Key_2">
</g>
<g id="Link">
</g>
<g id="Brake_Link">
</g>
<g id="Pencil">
</g>
<g id="At">
</g>
<g id="Reply">
</g>
<g id="Accessible">
</g>
<g id="Up_Arrow">
</g>
<g id="Brush">
</g>
<g id="Design_Mug">
</g>
<g id="Design">
</g>
<g id="Server">
</g>
<g id="Database">
</g>
<g id="Save">
</g>
<g id="Female">
</g>
<g id="Male">
</g>
<g id="Book">
</g>
<g id="Power">
</g>
<g id="Reload">
</g>
<g id="Map">
</g>
<g id="Loction_1">
</g>
<g id="Location_2">
</g>
<g id="Globe">
</g>
<g id="Suitcase">
</g>
<g id="Callendar">
</g>
<g id="Cloud_Off">
</g>
<g id="File_1">
</g>
<g id="File_2">
</g>
<g id="Folder">
</g>
<g id="Open_Folder">
</g>
<g id="Cloud">
</g>
<g id="Upload_Cloud">
</g>
<g id="Download_Cloud">
</g>
<g id="Eye">
</g>
<g id="Invisible">
</g>
<g id="Assignment">
</g>
<g id="Note_Book">
</g>
<g id="Webpage">
</g>
<g id="Mailbox">
</g>
<g id="Drive">
</g>
<g id="Disc">
</g>
<g id="Wifi_1">
</g>
<g id="Wifi_2">
	<path d="M20.5,7h-1.053C17.83,4.598,15.107,3,12,3C8.893,3,6.171,4.598,4.553,7H3.5C1.57,7,0,8.57,0,10.5v3C0,15.43,1.57,17,3.5,17
		h1.053c1.617,2.402,4.34,4,7.447,4c3.107,0,5.83-1.598,7.447-4H20.5c1.93,0,3.5-1.57,3.5-3.5v-3C24,8.57,22.43,7,20.5,7z M19,9.5
		c0,0.276-0.224,0.5-0.5,0.5H15v2h3c0.276,0,0.5,0.224,0.5,0.5S18.276,13,18,13h-3v1.5c0,0.276-0.224,0.5-0.5,0.5S14,14.776,14,14.5
		v-5C14,9.224,14.224,9,14.5,9h4C18.776,9,19,9.224,19,9.5z M3.521,14.644l-1.5-5C1.942,9.379,2.092,9.101,2.356,9.021
		c0.265-0.079,0.543,0.071,0.623,0.335L4,12.76l1.021-3.403c0.127-0.423,0.831-0.423,0.958,0L7,12.76l1.021-3.403
		C8.1,9.092,8.376,8.942,8.644,9.021c0.265,0.08,0.415,0.358,0.335,0.623l-1.5,5C7.416,14.855,7.221,15,7,15
		s-0.416-0.145-0.479-0.356L5.5,11.24l-1.021,3.403C4.352,15.067,3.648,15.067,3.521,14.644z M12,20c-2.516,0-4.752-1.178-6.219-3
		H10.5c0.794,0,1.5-2.796,1.5-5c0-1.091,0.228-3.597,1.066-5H5.781C7.248,5.178,9.484,4,12,4s4.752,1.178,6.219,3H14.5
		C13.706,7,13,9.796,13,12c0,1.091-0.228,3.597-1.066,5h6.285C16.752,18.822,14.516,20,12,20z M10.5,11c0.276,0,0.5,0.224,0.5,0.5v3
		c0,0.276-0.224,0.5-0.5,0.5S10,14.776,10,14.5v-3C10,11.224,10.224,11,10.5,11z M10,9.5C10,9.224,10.224,9,10.5,9S11,9.224,11,9.5
		c0,0.276-0.224,0.5-0.5,0.5S10,9.776,10,9.5z M21,14.5c0,0.276-0.224,0.5-0.5,0.5S20,14.776,20,14.5v-3c0-0.276,0.224-0.5,0.5-0.5
		s0.5,0.224,0.5,0.5V14.5z M20.5,10C20.224,10,20,9.776,20,9.5C20,9.224,20.224,9,20.5,9S21,9.224,21,9.5
		C21,9.776,20.776,10,20.5,10z"/>
</g>
<g id="Archive">
</g>
<g id="Archive_File">
</g>
<g id="News">
</g>
<g id="Home">
</g>
<g id="Collaboration">
</g>
<g id="Announcement">
</g>
<g id="Watch">
</g>
<g id="Clock">
</g>
<g id="Volume">
</g>
<g id="Mute">
</g>
<g id="Hand">
</g>
<g id="Layers">
</g>
<g id="Bell">
</g>
<g id="Speach_Bubble">
</g>
<g id="Speach_Bubbles">
</g>
<g id="Zoom_In">
</g>
<g id="Zoom_Out">
</g>
<g id="Search">
</g>
<g id="Back_Arrow">
</g>
<g id="Close">
</g>
<g id="Check_2">
</g>
<g id="Left_Arrow_2">
</g>
<g id="Right_Arrow_2">
</g>
</svg>
