<?xml version="1.0" encoding="iso-8859-1"?>
<!-- Generator: Adobe Illustrator 19.2.1, SVG Export Plug-In . SVG Version: 6.00 Build 0)  -->
<svg version="1.1" xmlns="http://www.w3.org/2000/svg" xmlns:xlink="http://www.w3.org/1999/xlink" x="0px" y="0px"
	 viewBox="0 0 30 30" style="enable-background:new 0 0 30 30;" xml:space="preserve">
<g id="Sun_Light">
</g>
<g id="Sunglasses">
</g>
<g id="T-Shirt_1">
</g>
<g id="T-Shirt_2">
</g>
<g id="Mini_Dress">
</g>
<g id="Flip-Flops">
</g>
<g id="Temperature">
</g>
<g id="Hot_Temperature">
</g>
<g id="Ice_Lolly">
</g>
<g id="Icecream">
</g>
<g id="Limonade_1">
</g>
<g id="Limonade_2">
</g>
<g id="Hat">
</g>
<g id="Straw_Hat">
</g>
<g id="Deckchair">
</g>
<g id="Sunshade">
</g>
<g id="Suncream">
</g>
<g id="Suntan_Oil">
</g>
<g id="Swimming_Trunks">
</g>
<g id="Bikini">
</g>
<g id="Pool">
</g>
<g id="Pool_Ladder">
</g>
<g id="Grill">
</g>
<g id="Kite_1">
</g>
<g id="Kite_2">
</g>
<g id="Badminton">
</g>
<g id="Cooler">
</g>
<g id="Strand_Bag">
</g>
<g id="Towel">
</g>
<g id="Strand_Ball">
</g>
<g id="Beach_Sign">
</g>
<g id="Toos">
</g>
<g id="Bucket">
	<g>
		<path d="M15,0C9.486,0,5,4.43,5,9.875v0.618V10.5v3.419c0,2.018,5.031,3.074,10,3.074c4.97,0,10-1.056,10-3.074V10.5v-0.007V9.875
			C25,4.43,20.514,0,15,0z M15,1c4.873,0,8.843,3.841,8.986,8.612C22.273,8.551,18.625,8,15,8c-3.625,0-7.273,0.551-8.986,1.612
			C6.156,4.841,10.128,1,15,1z M15,13c-5.823,0-9-1.321-9-2s3.177-2,9-2s9,1.321,9,2S20.823,13,15,13z"/>
		<path d="M5.947,16.455l2.766,11.786C8.861,29.95,14.365,30,15,30s6.14-0.05,6.287-1.759l2.765-11.785
			C21.258,17.888,16.3,17.993,15,17.993C13.7,17.993,8.741,17.888,5.947,16.455z"/>
	</g>
</g>
<g id="Sand_Castle">
</g>
<g id="Shell_1">
</g>
<g id="Shell_2">
</g>
<g id="Surf_Board">
</g>
<g id="Float">
</g>
<g id="Vacation_Photo">
</g>
<g id="Summer_Time">
</g>
<g id="Boat">
</g>
<g id="Lifebuoy">
</g>
<g id="Lighthouse">
</g>
<g id="Sunset">
</g>
<g id="Dolphin">
</g>
<g id="Starfish">
</g>
<g id="Diving_Mask">
</g>
<g id="Sailboat">
</g>
<g id="Captin_Hat">
</g>
<g id="Eudder">
</g>
</svg>
