<?xml version="1.0" encoding="iso-8859-1"?>
<!-- Generator: Adobe Illustrator 19.2.1, SVG Export Plug-In . SVG Version: 6.00 Build 0)  -->
<svg version="1.1" xmlns="http://www.w3.org/2000/svg" xmlns:xlink="http://www.w3.org/1999/xlink" x="0px" y="0px"
	 viewBox="0 0 30 30" style="enable-background:new 0 0 30 30;" xml:space="preserve">
<g id="Sun_Light">
</g>
<g id="Sunglasses">
</g>
<g id="T-Shirt_1">
</g>
<g id="T-Shirt_2">
</g>
<g id="Mini_Dress">
</g>
<g id="Flip-Flops">
</g>
<g id="Temperature">
</g>
<g id="Hot_Temperature">
</g>
<g id="Ice_Lolly">
</g>
<g id="Icecream">
</g>
<g id="Limonade_1">
</g>
<g id="Limonade_2">
</g>
<g id="Hat">
</g>
<g id="Straw_Hat">
</g>
<g id="Deckchair">
</g>
<g id="Sunshade">
</g>
<g id="Suncream">
</g>
<g id="Suntan_Oil">
</g>
<g id="Swimming_Trunks">
</g>
<g id="Bikini">
</g>
<g id="Pool">
</g>
<g id="Pool_Ladder">
</g>
<g id="Grill">
</g>
<g id="Kite_1">
</g>
<g id="Kite_2">
</g>
<g id="Badminton">
</g>
<g id="Cooler">
</g>
<g id="Strand_Bag">
</g>
<g id="Towel">
</g>
<g id="Strand_Ball">
</g>
<g id="Beach_Sign">
</g>
<g id="Toos">
</g>
<g id="Bucket">
</g>
<g id="Sand_Castle">
</g>
<g id="Shell_1">
</g>
<g id="Shell_2">
</g>
<g id="Surf_Board">
</g>
<g id="Float">
</g>
<g id="Vacation_Photo">
</g>
<g id="Summer_Time">
</g>
<g id="Boat">
</g>
<g id="Lifebuoy">
</g>
<g id="Lighthouse">
</g>
<g id="Sunset">
</g>
<g id="Dolphin">
</g>
<g id="Starfish">
</g>
<g id="Diving_Mask">
</g>
<g id="Sailboat">
</g>
<g id="Captin_Hat">
	<path d="M14.5,5C11.909,5,0,8.016,0,11.2c0,1.52,1.36,2.984,3.818,4.148V16.9c0,0.068,0.014,0.136,0.041,0.199
		c0.097,0.224,0.281,0.415,0.54,0.581c-0.026,0.08-0.056,0.168-0.089,0.266c-0.324,0.959-0.927,2.743,0.19,4.302
		C5.83,24.1,9.101,25,14.5,25c5.401,0,8.672-0.896,9.999-2.738c1.113-1.546,0.517-3.331,0.196-4.29
		c-0.035-0.105-0.068-0.2-0.095-0.285c0.252-0.166,0.435-0.356,0.536-0.579c0.029-0.065,0.045-0.136,0.045-0.207V15.37
		C27.64,14.21,29,12.739,29,11.2C29,8.016,17.091,5,14.5,5z M11.955,10.067c0.276,0,0.5,0.224,0.5,0.5
		c0,0.232,0.577,0.63,1.545,0.738V9.167h-0.136c-0.276,0-0.5-0.224-0.5-0.5s0.224-0.5,0.5-0.5H14V8.033c0-0.276,0.224-0.5,0.5-0.5
		s0.5,0.224,0.5,0.5v0.133h0.136c0.276,0,0.5,0.224,0.5,0.5s-0.224,0.5-0.5,0.5H15v2.138c0.969-0.107,1.546-0.505,1.546-0.738
		c0-0.276,0.224-0.5,0.5-0.5s0.5,0.224,0.5,0.5c0,1.007-1.31,1.767-3.046,1.767s-3.045-0.759-3.045-1.767
		C11.455,10.291,11.678,10.067,11.955,10.067z M24.182,16.767c-0.717,0.926-6.647,0.907-8.919,0.902L14.5,17.667h-0.508
		c-2.119,0.013-8.475,0.011-9.173-0.896v-1.329c1.285-0.152,5.258-0.575,9.682-0.575c4.463,0,8.405,0.422,9.682,0.575V16.767z"/>
</g>
<g id="Eudder">
</g>
</svg>
