<?xml version="1.0" encoding="iso-8859-1"?>
<!-- Generator: Adobe Illustrator 19.2.1, SVG Export Plug-In . SVG Version: 6.00 Build 0)  -->
<svg version="1.1" xmlns="http://www.w3.org/2000/svg" xmlns:xlink="http://www.w3.org/1999/xlink" x="0px" y="0px"
	 viewBox="0 0 30 30" style="enable-background:new 0 0 30 30;" xml:space="preserve">
<g id="Sun_Light">
</g>
<g id="Sunglasses">
</g>
<g id="T-Shirt_1">
</g>
<g id="T-Shirt_2">
</g>
<g id="Mini_Dress">
</g>
<g id="Flip-Flops">
</g>
<g id="Temperature">
</g>
<g id="Hot_Temperature">
</g>
<g id="Ice_Lolly">
</g>
<g id="Icecream">
</g>
<g id="Limonade_1">
</g>
<g id="Limonade_2">
</g>
<g id="Hat">
	<g>
		<path d="M8.841,15.085c0.032,0.629,0.706,1.034,2.122,1.274c0.797,0.135,1.773,0.204,2.83,0.204c0.425,0,0.862-0.011,1.307-0.034
			c1.55-0.079,3.006-0.289,4.099-0.591c1.384-0.382,2.014-0.854,1.98-1.484l-0.031-0.593c-0.175-3.401-3.088-6.018-6.484-5.854
			c-3.391,0.174-6.009,3.082-5.836,6.468L8.841,15.085z"/>
		<path d="M21.883,12.239c0.142,0.504,0.236,1.028,0.264,1.571l0.031,0.591c0.091,1.726-2.02,2.309-2.713,2.5
			c-1.162,0.32-2.694,0.543-4.314,0.626c-0.46,0.024-0.916,0.035-1.357,0.035c-1.116,0-2.152-0.075-2.997-0.218
			c-0.71-0.121-2.867-0.486-2.954-2.21l-0.015-0.638c-0.022-0.427,0.002-0.847,0.054-1.258c-4.132,0.982-8.053,2.709-7.88,4.95
			c0.208,2.609,5.726,3.806,11.774,3.806c1.189,0,2.399-0.047,3.593-0.138c7.268-0.563,14.866-2.845,14.629-5.968
			C29.85,14.012,26.851,12.679,21.883,12.239z"/>
	</g>
</g>
<g id="Straw_Hat">
</g>
<g id="Deckchair">
</g>
<g id="Sunshade">
</g>
<g id="Suncream">
</g>
<g id="Suntan_Oil">
</g>
<g id="Swimming_Trunks">
</g>
<g id="Bikini">
</g>
<g id="Pool">
</g>
<g id="Pool_Ladder">
</g>
<g id="Grill">
</g>
<g id="Kite_1">
</g>
<g id="Kite_2">
</g>
<g id="Badminton">
</g>
<g id="Cooler">
</g>
<g id="Strand_Bag">
</g>
<g id="Towel">
</g>
<g id="Strand_Ball">
</g>
<g id="Beach_Sign">
</g>
<g id="Toos">
</g>
<g id="Bucket">
</g>
<g id="Sand_Castle">
</g>
<g id="Shell_1">
</g>
<g id="Shell_2">
</g>
<g id="Surf_Board">
</g>
<g id="Float">
</g>
<g id="Vacation_Photo">
</g>
<g id="Summer_Time">
</g>
<g id="Boat">
</g>
<g id="Lifebuoy">
</g>
<g id="Lighthouse">
</g>
<g id="Sunset">
</g>
<g id="Dolphin">
</g>
<g id="Starfish">
</g>
<g id="Diving_Mask">
</g>
<g id="Sailboat">
</g>
<g id="Captin_Hat">
</g>
<g id="Eudder">
</g>
</svg>
