<?xml version="1.0" encoding="iso-8859-1"?>
<!-- Generator: Adobe Illustrator 19.2.1, SVG Export Plug-In . SVG Version: 6.00 Build 0)  -->
<svg version="1.1" xmlns="http://www.w3.org/2000/svg" xmlns:xlink="http://www.w3.org/1999/xlink" x="0px" y="0px"
	 viewBox="0 0 30 30" style="enable-background:new 0 0 30 30;" xml:space="preserve">
<g id="Sun_Light">
</g>
<g id="Sunglasses">
</g>
<g id="T-Shirt_1">
</g>
<g id="T-Shirt_2">
</g>
<g id="Mini_Dress">
</g>
<g id="Flip-Flops">
</g>
<g id="Temperature">
</g>
<g id="Hot_Temperature">
</g>
<g id="Ice_Lolly">
	<g>
		<path d="M12,28c0,1.084,0.966,2,2.109,2h0.782C16.034,30,17,29.084,17,28v-5h-5V28z"/>
		<path d="M19.892,3.607C19.61,1.517,17.811,0,15.612,0h-2.224c-2.155,0-3.995,1.598-4.281,3.72L7,20.456C7,21.38,7.712,22,8.773,22
			h11.455c1.061,0,1.772-0.62,1.769-1.606L19.892,3.607z M12.478,18.178c-0.014,0.267-0.234,0.475-0.499,0.475
			c-0.008,0-0.017,0-0.025-0.001c-0.276-0.014-0.488-0.248-0.475-0.524l0.631-12.608c0.014-0.276,0.242-0.489,0.524-0.475
			c0.276,0.014,0.488,0.249,0.475,0.524L12.478,18.178z M17.047,18.651c-0.009,0.001-0.018,0.001-0.025,0.001
			c-0.265,0-0.486-0.208-0.499-0.475l-0.63-12.609c-0.014-0.276,0.199-0.511,0.474-0.524c0.313-0.013,0.512,0.199,0.524,0.475
			l0.63,12.608C17.534,18.403,17.322,18.638,17.047,18.651z"/>
	</g>
</g>
<g id="Icecream">
</g>
<g id="Limonade_1">
</g>
<g id="Limonade_2">
</g>
<g id="Hat">
</g>
<g id="Straw_Hat">
</g>
<g id="Deckchair">
</g>
<g id="Sunshade">
</g>
<g id="Suncream">
</g>
<g id="Suntan_Oil">
</g>
<g id="Swimming_Trunks">
</g>
<g id="Bikini">
</g>
<g id="Pool">
</g>
<g id="Pool_Ladder">
</g>
<g id="Grill">
</g>
<g id="Kite_1">
</g>
<g id="Kite_2">
</g>
<g id="Badminton">
</g>
<g id="Cooler">
</g>
<g id="Strand_Bag">
</g>
<g id="Towel">
</g>
<g id="Strand_Ball">
</g>
<g id="Beach_Sign">
</g>
<g id="Toos">
</g>
<g id="Bucket">
</g>
<g id="Sand_Castle">
</g>
<g id="Shell_1">
</g>
<g id="Shell_2">
</g>
<g id="Surf_Board">
</g>
<g id="Float">
</g>
<g id="Vacation_Photo">
</g>
<g id="Summer_Time">
</g>
<g id="Boat">
</g>
<g id="Lifebuoy">
</g>
<g id="Lighthouse">
</g>
<g id="Sunset">
</g>
<g id="Dolphin">
</g>
<g id="Starfish">
</g>
<g id="Diving_Mask">
</g>
<g id="Sailboat">
</g>
<g id="Captin_Hat">
</g>
<g id="Eudder">
</g>
</svg>
