<?xml version="1.0" encoding="iso-8859-1"?>
<!-- Generator: Adobe Illustrator 19.2.1, SVG Export Plug-In . SVG Version: 6.00 Build 0)  -->
<svg version="1.1" xmlns="http://www.w3.org/2000/svg" xmlns:xlink="http://www.w3.org/1999/xlink" x="0px" y="0px"
	 viewBox="0 0 30 30" style="enable-background:new 0 0 30 30;" xml:space="preserve">
<g id="Sun_Light">
</g>
<g id="Sunglasses">
</g>
<g id="T-Shirt_1">
</g>
<g id="T-Shirt_2">
</g>
<g id="Mini_Dress">
</g>
<g id="Flip-Flops">
</g>
<g id="Temperature">
</g>
<g id="Hot_Temperature">
</g>
<g id="Ice_Lolly">
</g>
<g id="Icecream">
	<g>
		<path d="M21.501,11.073c0.033-0.097,0.081-0.214,0.132-0.341C21.805,10.306,22,9.822,22,9.408c0-1.725-1.018-3.263-2.572-3.948
			c0.018-0.167,0.026-0.333,0.026-0.503c0-2.706-2.183-4.912-4.88-4.951C14.55,0.002,14.525,0,14.5,0
			c-2.732,0-4.955,2.221-4.955,4.952c0,0.169,0.009,0.334,0.027,0.503C8.018,6.14,7,7.678,7,9.403c0,0.415,0.195,0.9,0.368,1.328
			c0.051,0.126,0.098,0.242,0.121,0.305c0.131,0.493-0.027,0.945-0.194,1.424c-0.212,0.607-0.477,1.362,0.149,2.028
			c1.041,1.109,2.081,0.142,2.638-0.379c0.196-0.182,0.381-0.354,0.538-0.45c0.527-0.322,1.157-0.397,1.671-0.23
			c0.118,0.057,0.241,0.144,0.376,0.235c0.414,0.282,0.976,0.665,1.756,0.689c0.025,0.004,0.051,0.006,0.078,0.006
			c0.82,0,1.406-0.399,1.834-0.69c0.135-0.092,0.258-0.179,0.317-0.212c0.572-0.192,1.203-0.115,1.73,0.207
			c0.156,0.095,0.342,0.268,0.537,0.45c0.371,0.345,0.954,0.889,1.609,0.888c0.33,0,0.68-0.138,1.028-0.51
			c0.626-0.667,0.361-1.421,0.149-2.028C21.538,11.986,21.38,11.533,21.501,11.073z"/>
		<path d="M10.719,19.084c0.058-0.008,0.118-0.009,0.178,0.004l6.887,1.59l0.792-2.53L9.793,16.12L10.719,19.084z"/>
		<path d="M17.861,14.518c-0.246-0.15-0.529-0.196-0.793-0.14c-0.022,0.016-0.048,0.033-0.074,0.052l-0.098,0.066
			c-0.475,0.323-1.269,0.863-2.396,0.863l-0.143-0.007c-1.054-0.043-1.804-0.555-2.254-0.862c-0.082-0.055-0.139-0.097-0.19-0.129
			c-0.238-0.052-0.533,0.005-0.773,0.151c-0.071,0.044-0.254,0.213-0.375,0.326c-0.158,0.147-0.307,0.262-0.456,0.374l8.567,1.977
			l0.472-1.508c-0.476-0.253-0.855-0.6-1.107-0.834C18.131,14.746,17.934,14.563,17.861,14.518z"/>
		<polygon points="12.15,23.66 16.535,24.671 17.484,21.635 11.053,20.15 		"/>
		<path d="M14.023,29.649C14.088,29.857,14.281,30,14.5,30s0.412-0.142,0.477-0.351l1.258-4.021l-3.739-0.862L14.023,29.649z"/>
	</g>
</g>
<g id="Limonade_1">
</g>
<g id="Limonade_2">
</g>
<g id="Hat">
</g>
<g id="Straw_Hat">
</g>
<g id="Deckchair">
</g>
<g id="Sunshade">
</g>
<g id="Suncream">
</g>
<g id="Suntan_Oil">
</g>
<g id="Swimming_Trunks">
</g>
<g id="Bikini">
</g>
<g id="Pool">
</g>
<g id="Pool_Ladder">
</g>
<g id="Grill">
</g>
<g id="Kite_1">
</g>
<g id="Kite_2">
</g>
<g id="Badminton">
</g>
<g id="Cooler">
</g>
<g id="Strand_Bag">
</g>
<g id="Towel">
</g>
<g id="Strand_Ball">
</g>
<g id="Beach_Sign">
</g>
<g id="Toos">
</g>
<g id="Bucket">
</g>
<g id="Sand_Castle">
</g>
<g id="Shell_1">
</g>
<g id="Shell_2">
</g>
<g id="Surf_Board">
</g>
<g id="Float">
</g>
<g id="Vacation_Photo">
</g>
<g id="Summer_Time">
</g>
<g id="Boat">
</g>
<g id="Lifebuoy">
</g>
<g id="Lighthouse">
</g>
<g id="Sunset">
</g>
<g id="Dolphin">
</g>
<g id="Starfish">
</g>
<g id="Diving_Mask">
</g>
<g id="Sailboat">
</g>
<g id="Captin_Hat">
</g>
<g id="Eudder">
</g>
</svg>
