<?xml version="1.0" encoding="iso-8859-1"?>
<!-- Generator: Adobe Illustrator 19.2.1, SVG Export Plug-In . SVG Version: 6.00 Build 0)  -->
<svg version="1.1" xmlns="http://www.w3.org/2000/svg" xmlns:xlink="http://www.w3.org/1999/xlink" x="0px" y="0px"
	 viewBox="0 0 30 30" style="enable-background:new 0 0 30 30;" xml:space="preserve">
<g id="Sun_Light">
</g>
<g id="Sunglasses">
</g>
<g id="T-Shirt_1">
</g>
<g id="T-Shirt_2">
</g>
<g id="Mini_Dress">
</g>
<g id="Flip-Flops">
</g>
<g id="Temperature">
</g>
<g id="Hot_Temperature">
</g>
<g id="Ice_Lolly">
</g>
<g id="Icecream">
</g>
<g id="Limonade_1">
</g>
<g id="Limonade_2">
</g>
<g id="Hat">
</g>
<g id="Straw_Hat">
</g>
<g id="Deckchair">
</g>
<g id="Sunshade">
</g>
<g id="Suncream">
</g>
<g id="Suntan_Oil">
</g>
<g id="Swimming_Trunks">
</g>
<g id="Bikini">
</g>
<g id="Pool">
</g>
<g id="Pool_Ladder">
</g>
<g id="Grill">
</g>
<g id="Kite_1">
</g>
<g id="Kite_2">
</g>
<g id="Badminton">
</g>
<g id="Cooler">
</g>
<g id="Strand_Bag">
</g>
<g id="Towel">
</g>
<g id="Strand_Ball">
</g>
<g id="Beach_Sign">
</g>
<g id="Toos">
</g>
<g id="Bucket">
</g>
<g id="Sand_Castle">
</g>
<g id="Shell_1">
</g>
<g id="Shell_2">
</g>
<g id="Surf_Board">
</g>
<g id="Float">
</g>
<g id="Vacation_Photo">
</g>
<g id="Summer_Time">
</g>
<g id="Boat">
</g>
<g id="Lifebuoy">
</g>
<g id="Lighthouse">
	<g>
		<polygon points="19.679,17 10.321,17 9.926,23 20.074,23 		"/>
		<path d="M11,6h1v2h-0.5C11.224,8,11,8.224,11,8.5v1.576c-0.137,0.081-0.238,0.22-0.249,0.391L10.387,16h9.226l-0.364-5.533
			c-0.011-0.171-0.112-0.309-0.249-0.391V8.5C19,8.224,18.776,8,18.5,8H18V6h1c0.215,0,0.406-0.138,0.475-0.342
			C19.542,5.454,19.473,5.229,19.3,5.1l-3.31-2.482C16.3,2.343,16.5,1.946,16.5,1.5C16.5,0.673,15.827,0,15,0s-1.5,0.673-1.5,1.5
			c0,0.446,0.2,0.843,0.51,1.118L10.7,5.1c-0.172,0.129-0.243,0.354-0.174,0.558C10.594,5.862,10.785,6,11,6z M16,10h-2V9h2V10z
			 M18,9v1h-1V9h0.5H18z M13,6h4v2h-4V6z M13,9v1h-1V9h0.5H13z"/>
		<path d="M9.861,24l-0.36,5.467c-0.009,0.139,0.04,0.274,0.134,0.375C9.729,29.942,9.862,30,10,30h10
			c0.139,0,0.271-0.058,0.365-0.158s0.143-0.236,0.134-0.375L20.139,24H9.861z"/>
	</g>
</g>
<g id="Sunset">
</g>
<g id="Dolphin">
</g>
<g id="Starfish">
</g>
<g id="Diving_Mask">
</g>
<g id="Sailboat">
</g>
<g id="Captin_Hat">
</g>
<g id="Eudder">
</g>
</svg>
