<?xml version="1.0" encoding="iso-8859-1"?>
<!-- Generator: Adobe Illustrator 19.2.1, SVG Export Plug-In . SVG Version: 6.00 Build 0)  -->
<svg version="1.1" xmlns="http://www.w3.org/2000/svg" xmlns:xlink="http://www.w3.org/1999/xlink" x="0px" y="0px"
	 viewBox="0 0 30 30" style="enable-background:new 0 0 30 30;" xml:space="preserve">
<g id="Sun_Light">
</g>
<g id="Sunglasses">
</g>
<g id="T-Shirt_1">
</g>
<g id="T-Shirt_2">
</g>
<g id="Mini_Dress">
</g>
<g id="Flip-Flops">
</g>
<g id="Temperature">
</g>
<g id="Hot_Temperature">
</g>
<g id="Ice_Lolly">
</g>
<g id="Icecream">
</g>
<g id="Limonade_1">
</g>
<g id="Limonade_2">
</g>
<g id="Hat">
</g>
<g id="Straw_Hat">
</g>
<g id="Deckchair">
</g>
<g id="Sunshade">
</g>
<g id="Suncream">
</g>
<g id="Suntan_Oil">
</g>
<g id="Swimming_Trunks">
</g>
<g id="Bikini">
</g>
<g id="Pool">
</g>
<g id="Pool_Ladder">
</g>
<g id="Grill">
</g>
<g id="Kite_1">
</g>
<g id="Kite_2">
</g>
<g id="Badminton">
</g>
<g id="Cooler">
</g>
<g id="Strand_Bag">
</g>
<g id="Towel">
</g>
<g id="Strand_Ball">
</g>
<g id="Beach_Sign">
</g>
<g id="Toos">
</g>
<g id="Bucket">
</g>
<g id="Sand_Castle">
</g>
<g id="Shell_1">
	<g>
		<path d="M5,21.826v1.064c0,1.138,0.477,2.295,1.272,3.09l1.595,1.634C8.748,28.494,9.85,29,10.89,29h1.454
			C10.609,25.932,8.064,23.452,5,21.826z"/>
		<path d="M17.655,29h1.455c1.04,0,2.143-0.506,3.028-1.391l1.585-1.626C24.522,25.185,25,24.027,25,22.89v-1.064
			C21.935,23.452,19.39,25.932,17.655,29z"/>
		<path d="M29.589,12.294c-0.133-0.529-0.509-0.933-1.008-1.138l-5.039,4.836c-0.097,0.093-0.221,0.14-0.346,0.14
			c-0.132,0-0.263-0.052-0.36-0.154c-0.191-0.199-0.186-0.516,0.015-0.707l5.773-5.54c-0.028-0.106-0.057-0.212-0.108-0.314
			c-0.604-1.195-1.378-2.307-2.301-3.305c-0.336-0.362-0.794-0.548-1.283-0.544l-3.816,7.146c-0.091,0.169-0.264,0.265-0.441,0.265
			c-0.08,0-0.16-0.019-0.235-0.059c-0.244-0.13-0.336-0.433-0.206-0.676l4.127-7.73c-0.104-0.135-0.221-0.261-0.365-0.365
			c-1.275-0.92-2.683-1.636-4.184-2.125c-0.304-0.099-0.625-0.102-0.931-0.032l-1.495,8.423c-0.043,0.242-0.254,0.413-0.491,0.413
			c-0.029,0-0.059-0.002-0.088-0.008c-0.272-0.048-0.454-0.308-0.405-0.58l1.542-8.685c-0.265-0.232-0.592-0.381-0.951-0.427
			c-1.281-0.165-2.619-0.168-3.91-0.008c-0.362,0.045-0.693,0.194-0.96,0.429l1.481,8.695c0.046,0.272-0.137,0.531-0.409,0.577
			c-0.028,0.005-0.057,0.007-0.084,0.007c-0.239,0-0.451-0.172-0.492-0.416l-1.437-8.437c-0.303-0.069-0.619-0.067-0.922,0.031
			c-1.522,0.492-2.949,1.215-4.243,2.15C5.797,4.311,5.63,4.513,5.506,4.734l4.255,7.498c0.136,0.24,0.052,0.545-0.188,0.682
			c-0.078,0.044-0.163,0.065-0.246,0.065c-0.174,0-0.343-0.091-0.436-0.253L4.837,5.581C4.442,5.633,4.075,5.816,3.795,6.118
			C2.878,7.108,2.107,8.21,1.504,9.396C1.45,9.502,1.419,9.613,1.389,9.725l5.761,5.545c0.199,0.191,0.205,0.508,0.014,0.707
			c-0.098,0.102-0.229,0.153-0.36,0.153c-0.125,0-0.25-0.046-0.347-0.139l-5.038-4.849c-0.494,0.206-0.866,0.606-0.999,1.13
			C0.142,13.367,0,14.497,0,15.628c0,1.065,0.363,2.368,0.579,3.051c0.026,0.083,0.074,0.157,0.138,0.217l0.291,0.269
			c0.061,0.057,0.136,0.098,0.216,0.118c5.494,1.41,10.075,5.152,12.569,10.267c0.052,0.107,0.141,0.192,0.251,0.24
			C14.372,29.931,14.685,30,15,30s0.628-0.069,0.956-0.211c0.109-0.048,0.199-0.133,0.251-0.24
			c2.494-5.116,7.077-8.858,12.572-10.268c0.083-0.021,0.159-0.063,0.222-0.123l0.285-0.272c0.061-0.059,0.105-0.132,0.13-0.213
			c0.219-0.71,0.584-2.05,0.584-3.045C30,14.501,29.861,13.379,29.589,12.294z"/>
	</g>
</g>
<g id="Shell_2">
</g>
<g id="Surf_Board">
</g>
<g id="Float">
</g>
<g id="Vacation_Photo">
</g>
<g id="Summer_Time">
</g>
<g id="Boat">
</g>
<g id="Lifebuoy">
</g>
<g id="Lighthouse">
</g>
<g id="Sunset">
</g>
<g id="Dolphin">
</g>
<g id="Starfish">
</g>
<g id="Diving_Mask">
</g>
<g id="Sailboat">
</g>
<g id="Captin_Hat">
</g>
<g id="Eudder">
</g>
</svg>
