<?xml version="1.0" encoding="iso-8859-1"?>
<!-- Generator: Adobe Illustrator 19.2.1, SVG Export Plug-In . SVG Version: 6.00 Build 0)  -->
<svg version="1.1" xmlns="http://www.w3.org/2000/svg" xmlns:xlink="http://www.w3.org/1999/xlink" x="0px" y="0px"
	 viewBox="0 0 30 30" style="enable-background:new 0 0 30 30;" xml:space="preserve">
<g id="Sun_Light">
</g>
<g id="Sunglasses">
	<path d="M29.994,14.734c-0.003-0.077-0.018-0.153-0.057-0.225L24.025,3.881c-0.359-0.624-1.023-0.956-1.743-0.868
		c-0.714,0.087-1.28,0.568-1.465,1.214l-0.61,1.583c-0.099,0.257,0.029,0.547,0.287,0.646c0.255,0.099,0.546-0.029,0.646-0.287
		l0.624-1.625c0.086-0.3,0.325-0.501,0.639-0.54c0.308-0.034,0.599,0.101,0.752,0.368l5.318,9.561
		c-7.492-2.042-12.158-0.071-12.961,0.317h-1.024c-0.803-0.387-5.468-2.359-12.961-0.317L6.842,4.38
		c0.157-0.273,0.439-0.411,0.754-0.375c0.313,0.038,0.552,0.24,0.653,0.582L8.86,6.17c0.099,0.258,0.388,0.386,0.646,0.286
		C9.764,6.357,9.892,6.068,9.792,5.81L9.196,4.269C8.998,3.581,8.431,3.1,7.717,3.013C6.998,2.927,6.333,3.259,5.971,3.888
		L0.063,14.509c-0.04,0.072-0.055,0.149-0.057,0.225C0.006,14.741,0,14.746,0,14.752v2.501c0,0.198,0.117,0.378,0.298,0.458
		c0.213,0.094,0.85,0.465,0.981,0.93c0.015,0.053,0.026,0.135,0.044,0.238c0.14,0.852,0.467,2.844,2.669,4.409
		C4.696,23.79,5.834,24,7.108,24c1.381,0,2.924-0.247,4.25-0.639c2.843-0.84,3.477-4.004,3.504-4.152
		c0.022-0.137,0.08-0.209,0.125-0.21h0c0.043,0,0.118,0.06,0.15,0.225c0.027,0.143,0.663,3.3,3.501,4.138
		c2.551,0.753,5.902,0.97,7.367-0.072c2.2-1.564,2.528-3.557,2.668-4.407c0.018-0.105,0.029-0.187,0.045-0.241
		c0.13-0.46,0.753-0.827,0.982-0.93c0.18-0.08,0.297-0.26,0.297-0.457v-2.501C30,14.746,29.994,14.741,29.994,14.734z M5.423,16.711
		c-0.36,0.051-0.63,0.363-0.628,0.728c0.001,0.338,0.026,0.628,0.072,0.861c0.054,0.271-0.122,0.534-0.393,0.588
		c-0.033,0.007-0.066,0.01-0.098,0.01c-0.234,0-0.442-0.164-0.49-0.402c-0.059-0.296-0.09-0.65-0.092-1.053
		c-0.004-0.862,0.636-1.603,1.49-1.722c0.274-0.043,0.526,0.152,0.564,0.426S5.697,16.673,5.423,16.711z M19.26,16.798
		c-0.33,0.065-0.574,0.342-0.594,0.674c-0.016,0.274,0.011,0.604,0.074,0.929c0.054,0.271-0.122,0.533-0.394,0.587
		c-0.032,0.007-0.065,0.01-0.098,0.01c-0.233,0-0.442-0.165-0.489-0.403c-0.081-0.41-0.113-0.818-0.092-1.181
		c0.047-0.788,0.622-1.444,1.4-1.596c0.264-0.05,0.534,0.123,0.586,0.395C19.708,16.482,19.531,16.745,19.26,16.798z"/>
</g>
<g id="T-Shirt_1">
</g>
<g id="T-Shirt_2">
</g>
<g id="Mini_Dress">
</g>
<g id="Flip-Flops">
</g>
<g id="Temperature">
</g>
<g id="Hot_Temperature">
</g>
<g id="Ice_Lolly">
</g>
<g id="Icecream">
</g>
<g id="Limonade_1">
</g>
<g id="Limonade_2">
</g>
<g id="Hat">
</g>
<g id="Straw_Hat">
</g>
<g id="Deckchair">
</g>
<g id="Sunshade">
</g>
<g id="Suncream">
</g>
<g id="Suntan_Oil">
</g>
<g id="Swimming_Trunks">
</g>
<g id="Bikini">
</g>
<g id="Pool">
</g>
<g id="Pool_Ladder">
</g>
<g id="Grill">
</g>
<g id="Kite_1">
</g>
<g id="Kite_2">
</g>
<g id="Badminton">
</g>
<g id="Cooler">
</g>
<g id="Strand_Bag">
</g>
<g id="Towel">
</g>
<g id="Strand_Ball">
</g>
<g id="Beach_Sign">
</g>
<g id="Toos">
</g>
<g id="Bucket">
</g>
<g id="Sand_Castle">
</g>
<g id="Shell_1">
</g>
<g id="Shell_2">
</g>
<g id="Surf_Board">
</g>
<g id="Float">
</g>
<g id="Vacation_Photo">
</g>
<g id="Summer_Time">
</g>
<g id="Boat">
</g>
<g id="Lifebuoy">
</g>
<g id="Lighthouse">
</g>
<g id="Sunset">
</g>
<g id="Dolphin">
</g>
<g id="Starfish">
</g>
<g id="Diving_Mask">
</g>
<g id="Sailboat">
</g>
<g id="Captin_Hat">
</g>
<g id="Eudder">
</g>
</svg>
