<?xml version="1.0" encoding="iso-8859-1"?>
<!-- Generator: Adobe Illustrator 19.2.1, SVG Export Plug-In . SVG Version: 6.00 Build 0)  -->
<svg version="1.1" xmlns="http://www.w3.org/2000/svg" xmlns:xlink="http://www.w3.org/1999/xlink" x="0px" y="0px"
	 viewBox="0 0 24 24" style="enable-background:new 0 0 24 24;" xml:space="preserve">
<g id="Pompkin">
</g>
<g id="Layer_10">
</g>
<g id="Bat">
	<path d="M23.284,10.048c-0.994,0.476-2.033,0.939-2.858,0.939c-0.568,0-1.276-0.186-1.719-1.634
		c-0.079-0.261-0.354-0.409-0.617-0.334c-0.796,0.232-1.604,0.149-1.96-0.257c-0.288-0.329-0.385-0.916-0.28-1.696
		c0.029-0.221-0.09-0.434-0.294-0.524c-0.204-0.09-0.442-0.035-0.585,0.136c-0.318,0.38-0.837,0.508-1.312,0.426L14.36,5h9.14
		C23.776,5,24,4.776,24,4.5S23.776,4,23.5,4H10.009h-0.001H0.5C0.224,4,0,4.223,0,4.5S0.224,5,0.5,5h9.161L10.5,7.096
		C9.978,7.253,9.377,7.093,9.029,6.678c-0.142-0.17-0.381-0.225-0.585-0.136C8.241,6.632,8.121,6.845,8.15,7.066
		c0.104,0.78,0.008,1.367-0.28,1.696C7.515,9.169,6.708,9.25,5.91,9.019C5.647,8.944,5.373,9.092,5.293,9.354
		c-0.443,1.449-1.151,1.634-1.719,1.634c-0.824,0-1.864-0.464-2.858-0.939C0.547,9.967,0.349,9.988,0.2,10.1
		c-0.149,0.112-0.224,0.297-0.194,0.481c0.831,5.063,3.566,6.482,7.962,8.378c0.212,0.092,0.459,0.026,0.598-0.158
		c0.139-0.184,0.133-0.439-0.013-0.618c-0.423-0.517-0.859-1.285-0.529-2.011c0.277-0.611,0.988-1.003,1.635-1.126
		C9.742,15.18,9.856,15.306,10,15.42v1.08c0,0.202,0.122,0.385,0.309,0.462c0.187,0.078,0.402,0.035,0.545-0.108l0.864-0.864
		c0.184,0.014,0.38,0.014,0.564,0l0.864,0.864c0.143,0.144,0.358,0.188,0.545,0.108C13.878,16.884,14,16.702,14,16.5v-1.08
		c0.144-0.113,0.258-0.239,0.341-0.375c0.647,0.123,1.358,0.515,1.635,1.126c0.33,0.726-0.106,1.495-0.529,2.011
		c-0.146,0.178-0.151,0.434-0.013,0.618C15.531,18.929,15.68,19,15.833,19c0.067,0,0.134-0.013,0.198-0.041
		c4.396-1.896,7.131-3.314,7.962-8.378c0.03-0.184-0.044-0.369-0.194-0.481C23.651,9.988,23.453,9.967,23.284,10.048z M6.854,16.853
		C6.756,16.951,6.628,17,6.5,17s-0.256-0.049-0.354-0.146l-1-1c-0.195-0.195-0.195-0.512,0-0.707s0.512-0.195,0.707,0l1,1
		C7.049,16.341,7.049,16.658,6.854,16.853z M12,5c-0.276,0-0.5,0.224-0.5,0.5c0,0.368-0.085,0.652-0.204,0.893L10.739,5H12h1.306
		l-0.521,1.563C12.6,6.281,12.5,5.922,12.5,5.5C12.5,5.223,12.276,5,12,5z M18.854,15.853l-1,1C17.756,16.951,17.628,17,17.5,17
		s-0.256-0.049-0.354-0.146c-0.195-0.195-0.195-0.512,0-0.707l1-1c0.195-0.195,0.512-0.195,0.707,0S19.049,15.658,18.854,15.853z"/>
</g>
<g id="Ghost">
</g>
<g id="Bone_Hand">
</g>
<g id="Tree_Ghost">
</g>
<g id="Gate">
</g>
<g id="Cemetery_1">
</g>
<g id="Cemetery_2">
</g>
<g id="Devil_x27_s_Fork">
</g>
<g id="Night_Candle">
</g>
<g id="Canlestick">
</g>
<g id="Black_Cat">
</g>
<g id="Witch_Cauldron">
</g>
<g id="Corn_Candy">
</g>
<g id="Layer_29">
</g>
<g id="Bones">
</g>
<g id="Witch_Broom">
</g>
<g id="Owl">
</g>
<g id="Scythe">
</g>
<g id="Grim_Reaper">
</g>
<g id="Coffin">
</g>
<g id="Dracula">
</g>
<g id="Frankenstein">
</g>
<g id="Layer_40">
</g>
<g id="Toilet_Paper">
</g>
<g id="Skull">
</g>
<g id="Skull_Cake">
</g>
<g id="Eyeball">
</g>
<g id="Castle">
</g>
<g id="Witch_x27_s_Hat">
</g>
<g id="Cobweb_1">
</g>
<g id="Cobweb_2">
</g>
<g id="Spider">
</g>
<g id="Full_Moon">
</g>
<g id="Crescent">
</g>
<g id="Crow">
</g>
<g id="Candy_Holder">
</g>
<g id="Bloody_Knife">
</g>
<g id="Bloody_Axe">
</g>
</svg>
