<?xml version="1.0" encoding="iso-8859-1"?>
<!-- Generator: Adobe Illustrator 19.2.1, SVG Export Plug-In . SVG Version: 6.00 Build 0)  -->
<svg version="1.1" xmlns="http://www.w3.org/2000/svg" xmlns:xlink="http://www.w3.org/1999/xlink" x="0px" y="0px"
	 viewBox="0 0 24 24" style="enable-background:new 0 0 24 24;" xml:space="preserve">
<g id="Pompkin">
</g>
<g id="Layer_10">
</g>
<g id="Bat">
</g>
<g id="Ghost">
</g>
<g id="Bone_Hand">
</g>
<g id="Tree_Ghost">
</g>
<g id="Gate">
</g>
<g id="Cemetery_1">
</g>
<g id="Cemetery_2">
</g>
<g id="Devil_x27_s_Fork">
</g>
<g id="Night_Candle">
</g>
<g id="Canlestick">
</g>
<g id="Black_Cat">
</g>
<g id="Witch_Cauldron">
</g>
<g id="Corn_Candy">
</g>
<g id="Layer_29">
</g>
<g id="Bones">
</g>
<g id="Witch_Broom">
</g>
<g id="Owl">
</g>
<g id="Scythe">
</g>
<g id="Grim_Reaper">
</g>
<g id="Coffin">
</g>
<g id="Dracula">
</g>
<g id="Frankenstein">
</g>
<g id="Layer_40">
</g>
<g id="Toilet_Paper">
</g>
<g id="Skull">
</g>
<g id="Skull_Cake">
</g>
<g id="Eyeball">
</g>
<g id="Castle">
</g>
<g id="Witch_x27_s_Hat">
</g>
<g id="Cobweb_1">
</g>
<g id="Cobweb_2">
</g>
<g id="Spider">
</g>
<g id="Full_Moon">
</g>
<g id="Crescent">
</g>
<g id="Crow">
</g>
<g id="Candy_Holder">
</g>
<g id="Bloody_Knife">
	<g>
		<path d="M20.943,11.975c-0.469-0.254-1.102-0.063-1.355,0.404c-0.127,0.235-0.155,0.505-0.079,0.761
			c0.076,0.256,0.248,0.467,0.483,0.594c0.146,0.079,0.31,0.12,0.475,0.12c0.368,0,0.705-0.201,0.88-0.524
			c0.127-0.235,0.155-0.505,0.079-0.761C21.35,12.313,21.178,12.102,20.943,11.975z"/>
		<path d="M23.225,10.936L11.676,4.279c-0.002-0.001-0.004-0.001-0.006-0.002c-0.002-0.001-0.004-0.004-0.006-0.005L4.427,0.361
			C3.99,0.125,3.498,0,3.003,0C1.899,0,0.886,0.603,0.362,1.574C-0.019,2.279-0.103,3.09,0.126,3.858
			C0.356,4.626,0.87,5.259,1.575,5.64C2.31,6.038,3.211,6.103,4.006,5.817l4.84,2.616l-1.664,3.078
			c-0.14,0.258-0.176,0.553-0.144,0.856c-0.012,0.049-0.041,0.091-0.039,0.147c0.031,1.041,0.709,1.692,1.428,2.382
			c1.182,1.135,2.522,2.422,2.076,6.042c-0.012,0.086-0.125,0.359-0.199,0.541c-0.19,0.462-0.305,0.762-0.305,1.021
			c0,0.827,0.673,1.5,1.5,1.5s1.5-0.673,1.5-1.5c0-0.214-0.036-0.597-0.137-0.973c-0.144-0.538-0.243-1.334,0.07-2.023
			c0.101-0.105,0.629-0.345,1.121-0.345c0.209,0,0.367,0.047,0.433,0.128c0.08,0.1,0.089,0.32,0.026,0.604
			c-0.025,0.109-0.101,0.291-0.18,0.488c-0.201,0.5-0.332,0.847-0.332,1.122c0,0.827,0.673,1.5,1.5,1.5c0.827,0,1.5-0.673,1.5-1.5
			c0-0.047,0.006-0.113,0.012-0.189c0.022-0.269,0.052-0.638-0.016-0.87c-0.119-0.997-0.131-1.15,0.361-1.352l1.101,0.638
			c0.218,0.118,0.464,0.18,0.712,0.18c0.552,0,1.058-0.301,1.32-0.787l3.328-6.158C24.213,12.234,23.941,11.322,23.225,10.936z
			 M3.881,3.476C3.706,3.8,3.368,4,3.001,4C2.836,4,2.672,3.959,2.526,3.88C2.041,3.618,1.86,3.01,2.121,2.525
			c0.255-0.468,0.885-0.658,1.355-0.404C3.962,2.383,4.143,2.991,3.881,3.476z M22.94,12.486l-3.328,6.158
			c-0.126,0.235-0.469,0.314-0.665,0.209l-0.546-0.316c0.015-0.014,0.02-0.029,0.033-0.043c0.069-0.072,0.121-0.143,0.167-0.216
			c0.02-0.032,0.048-0.063,0.065-0.095c0.054-0.102,0.091-0.201,0.114-0.291c0.198-0.808-0.386-1.66-0.911-2.231
			c-0.785-0.854-1.55-0.889-2.29-0.921c-0.484-0.021-0.941-0.042-1.482-0.282c-0.677-0.301-0.947-0.545-1.259-0.828
			c-0.328-0.297-0.7-0.634-1.523-1c-0.321-0.143-0.575-0.268-0.794-0.376c-0.358-0.176-0.641-0.316-0.972-0.41
			c-0.013-0.004-0.026-0.008-0.04-0.012c-0.066-0.018-0.136-0.033-0.208-0.046c-0.029-0.006-0.058-0.011-0.088-0.016
			c-0.062-0.01-0.128-0.018-0.195-0.026c-0.049-0.005-0.1-0.01-0.152-0.013c-0.058-0.004-0.118-0.007-0.18-0.009
			c-0.073-0.002-0.152-0.002-0.232-0.001c-0.055,0.001-0.11,0.001-0.169,0.003c-0.028,0.001-0.052,0-0.081,0.001l1.76-3.256l0,0
			l1.658-3.067l11.116,6.407C22.981,11.939,23.071,12.244,22.94,12.486z"/>
	</g>
</g>
<g id="Bloody_Axe">
</g>
</svg>
