<?xml version="1.0" encoding="iso-8859-1"?>
<!-- Generator: Adobe Illustrator 19.2.1, SVG Export Plug-In . SVG Version: 6.00 Build 0)  -->
<svg version="1.1" xmlns="http://www.w3.org/2000/svg" xmlns:xlink="http://www.w3.org/1999/xlink" x="0px" y="0px"
	 viewBox="0 0 24 24" style="enable-background:new 0 0 24 24;" xml:space="preserve">
<g id="Pompkin">
</g>
<g id="Layer_10">
</g>
<g id="Bat">
</g>
<g id="Ghost">
</g>
<g id="Bone_Hand">
</g>
<g id="Tree_Ghost">
</g>
<g id="Gate">
</g>
<g id="Cemetery_1">
</g>
<g id="Cemetery_2">
</g>
<g id="Devil_x27_s_Fork">
</g>
<g id="Night_Candle">
</g>
<g id="Canlestick">
</g>
<g id="Black_Cat">
</g>
<g id="Witch_Cauldron">
</g>
<g id="Corn_Candy">
</g>
<g id="Layer_29">
</g>
<g id="Bones">
</g>
<g id="Witch_Broom">
</g>
<g id="Owl">
</g>
<g id="Scythe">
</g>
<g id="Grim_Reaper">
</g>
<g id="Coffin">
</g>
<g id="Dracula">
</g>
<g id="Frankenstein">
</g>
<g id="Layer_40">
</g>
<g id="Toilet_Paper">
</g>
<g id="Skull">
</g>
<g id="Skull_Cake">
</g>
<g id="Eyeball">
</g>
<g id="Castle">
</g>
<g id="Witch_x27_s_Hat">
</g>
<g id="Cobweb_1">
	<path d="M23.768,20.078L22,18.953V7.5c0-0.012-0.008-0.022-0.008-0.034l0.795-0.557c0.227-0.158,0.281-0.47,0.123-0.696
		c-0.158-0.227-0.471-0.281-0.696-0.123l-0.94,0.658L13,1.232V0.5C13,0.224,12.776,0,12.5,0S12,0.224,12,0.5v0.64L2.182,4.412
		L1.816,4.113C1.603,3.939,1.288,3.969,1.113,4.184C0.938,4.397,0.97,4.712,1.183,4.887l0.298,0.243L0.555,13H0.5
		C0.224,13,0,13.224,0,13.5S0.224,14,0.5,14h0.134l2.791,8.837l-0.296,0.329c-0.185,0.205-0.168,0.521,0.037,0.706
		C3.261,23.958,3.381,24,3.5,24c0.137,0,0.273-0.056,0.372-0.166l0.273-0.304l2.773,0.462C6.946,23.998,6.973,24,7,24
		c0.24,0,0.452-0.173,0.493-0.418c0.045-0.272-0.139-0.53-0.411-0.575l-2.144-0.357l1.472-1.635l4.606,2.303l-0.013,0.133
		c-0.027,0.275,0.173,0.52,0.448,0.547C11.467,23.999,11.484,24,11.5,24c0.254,0,0.471-0.192,0.497-0.45l0.02-0.201l9.647-3.377
		c0.014-0.005,0.021-0.019,0.034-0.026l1.533,0.975C23.315,20.975,23.408,21,23.499,21c0.165,0,0.327-0.082,0.422-0.231
		C24.07,20.536,24.001,20.227,23.768,20.078z M21,18.317l-2.519-1.602l-0.462-6.468L21,8.16V18.317z M6.66,19.241L5.163,14h1.936
		l0.847,3.813L6.66,19.241z M13,10.434l1.541,1.027L13,12.54V10.434z M12,12.445l-1.754-1.435L12,10.258V12.445z M11.104,13H8.383
		l0.896-1.493L11.104,13z M11.679,16.685l-0.858-0.572l1.03-1.144L11.679,16.685z M12.917,14.358l1.175,0.748l-1.364,1.137
		L12.917,14.358z M13.397,13.482l1.461-1.022l-0.256,1.789L13.397,13.482z M15.42,10.846L13,9.232V7.46L16.628,10L15.42,10.846z
		 M12,9.17l-2.626,1.126L7.321,8.617L12,7.177V9.17z M8.496,10.867L7.217,13H5.172l1.169-3.895L8.496,10.867z M8.123,14h3.254
		l-2.61,2.9L8.123,14z M10.157,16.85c0.022,0.022,0.039,0.048,0.065,0.066l1.344,0.896l-0.153,1.53l-2.186-1.457L10.157,16.85z
		 M12.586,17.663l2.392-1.993l1.981,1.26l-4.507,2.08L12.586,17.663z M15.528,14.838l0.452-3.164l1.084-0.758l0.367,5.132
		L15.528,14.838z M20.394,7.364L17.5,9.39L13,6.24V2.434L20.394,7.364z M12,2.194v3.937L6.392,7.856L3.098,5.161L12,2.194z
		 M2.4,5.882l3.103,2.537L4.128,13H1.562L2.4,5.882z M1.682,14h2.44l1.748,6.118L4.2,21.974L1.682,14z M7.104,20.243l1.447-1.608
		l2.672,1.781c0.024,0.016,0.054,0.016,0.08,0.028l-0.181,1.808L7.104,20.243z M12.127,22.251l0.209-2.086l5.626-2.596l2.677,1.703
		L12.127,22.251z"/>
</g>
<g id="Cobweb_2">
</g>
<g id="Spider">
</g>
<g id="Full_Moon">
</g>
<g id="Crescent">
</g>
<g id="Crow">
</g>
<g id="Candy_Holder">
</g>
<g id="Bloody_Knife">
</g>
<g id="Bloody_Axe">
</g>
</svg>
