<?xml version="1.0" encoding="iso-8859-1"?>
<!-- Generator: Adobe Illustrator 19.2.1, SVG Export Plug-In . SVG Version: 6.00 Build 0)  -->
<svg version="1.1" xmlns="http://www.w3.org/2000/svg" xmlns:xlink="http://www.w3.org/1999/xlink" x="0px" y="0px"
	 viewBox="0 0 24 24" style="enable-background:new 0 0 24 24;" xml:space="preserve">
<g id="Pompkin">
</g>
<g id="Layer_10">
</g>
<g id="Bat">
</g>
<g id="Ghost">
</g>
<g id="Bone_Hand">
</g>
<g id="Tree_Ghost">
</g>
<g id="Gate">
</g>
<g id="Cemetery_1">
</g>
<g id="Cemetery_2">
</g>
<g id="Devil_x27_s_Fork">
</g>
<g id="Night_Candle">
</g>
<g id="Canlestick">
</g>
<g id="Black_Cat">
</g>
<g id="Witch_Cauldron">
</g>
<g id="Corn_Candy">
</g>
<g id="Layer_29">
</g>
<g id="Bones">
</g>
<g id="Witch_Broom">
</g>
<g id="Owl">
</g>
<g id="Scythe">
</g>
<g id="Grim_Reaper">
</g>
<g id="Coffin">
</g>
<g id="Dracula">
</g>
<g id="Frankenstein">
</g>
<g id="Layer_40">
</g>
<g id="Toilet_Paper">
</g>
<g id="Skull">
</g>
<g id="Skull_Cake">
</g>
<g id="Eyeball">
</g>
<g id="Castle">
</g>
<g id="Witch_x27_s_Hat">
</g>
<g id="Cobweb_1">
</g>
<g id="Cobweb_2">
	<path d="M23.929,0.741c0.014-0.025,0.028-0.048,0.037-0.075c0.012-0.034,0.016-0.068,0.021-0.104C23.99,0.541,24,0.522,24,0.5
		c0-0.009-0.005-0.017-0.005-0.026c0-0.009,0.003-0.017,0.002-0.027c-0.003-0.024-0.015-0.044-0.021-0.067
		c-0.009-0.034-0.016-0.068-0.031-0.099c-0.014-0.028-0.033-0.051-0.051-0.076c-0.02-0.026-0.038-0.052-0.062-0.074
		c-0.025-0.023-0.053-0.038-0.082-0.055c-0.026-0.015-0.05-0.031-0.078-0.042c-0.034-0.012-0.069-0.016-0.105-0.021
		C23.544,0.01,23.524,0,23.5,0h-5.71h-0.006h-6.412c-0.002,0-0.004,0-0.007,0H0.5C0.435,0,0.37,0.013,0.309,0.038
		c-0.122,0.051-0.22,0.148-0.271,0.271C0.013,0.37,0,0.435,0,0.5v23c0,0.019,0.009,0.036,0.011,0.054
		c0.004,0.031,0.009,0.061,0.018,0.091c0.011,0.037,0.027,0.07,0.046,0.103c0.01,0.016,0.02,0.032,0.032,0.047
		c0.031,0.042,0.068,0.076,0.11,0.107c0.004,0.002,0.007,0.005,0.011,0.007C0.307,23.962,0.397,24,0.5,24
		c0.179,0,0.328-0.099,0.417-0.24c0.004-0.005,0.007-0.01,0.011-0.016c0.02-0.034,0.034-0.069,0.045-0.108
		c0.005-0.016,0.015-0.029,0.019-0.045c0.114-0.496,2.064-4.062,4.999-6.996c2.81-2.81,5.204-3.573,6.309-3.59l0.848,0.848
		C13.244,13.951,13.372,14,13.5,14s0.256-0.049,0.354-0.146c0.195-0.195,0.195-0.512,0-0.707L9.936,9.229
		c-0.073-0.532,0.729-2.966,2.771-5.008C14.939,1.99,17.157,1.008,17.796,1h4.199c-1.471,1.333-3.434,3.598-3.892,4.196
		c-2.495,3.254-2.28,7.646-1.782,9.418l-0.967-0.967c-0.195-0.195-0.512-0.195-0.707,0s-0.195,0.512,0,0.707l1,1
		c0.006,0.006,0.014,0.008,0.02,0.013c-0.026,0.041-0.056,0.074-0.081,0.117l-0.862-0.431c-0.193-0.096-0.425-0.059-0.577,0.094
		l-1,1c-0.195,0.195-0.195,0.512,0,0.707C13.244,16.951,13.372,17,13.5,17s0.256-0.049,0.354-0.146l0.745-0.745l0.613,0.306
		C15.16,16.6,15.119,16.795,15.086,17H14c-0.229,0-0.429,0.156-0.485,0.379l-0.5,2c-0.067,0.268,0.096,0.539,0.364,0.606
		C13.419,19.995,13.46,20,13.5,20c0.224,0,0.428-0.151,0.484-0.379L14.391,18H15c0,0.581,0.08,1.112,0.212,1.585l-0.935,0.468
		C14.107,20.138,14,20.311,14,20.5v1c0,0.276,0.224,0.5,0.5,0.5s0.5-0.224,0.5-0.5v-0.691l0.585-0.293
		C15.942,21.13,16.436,21.5,17,21.5s1.058-0.37,1.415-0.984L19,20.809V21.5c0,0.276,0.224,0.5,0.5,0.5s0.5-0.224,0.5-0.5v-1
		c0-0.189-0.107-0.362-0.276-0.447l-0.935-0.468C18.92,19.112,19,18.581,19,18h0.609l0.406,1.621C20.072,19.849,20.275,20,20.5,20
		c0.04,0,0.081-0.005,0.122-0.015c0.268-0.067,0.431-0.338,0.364-0.606l-0.5-2C20.429,17.156,20.229,17,20,17h-1.086
		c-0.033-0.205-0.074-0.4-0.125-0.585l0.613-0.306l0.745,0.745C20.244,16.951,20.372,17,20.5,17s0.256-0.049,0.354-0.146
		c0.195-0.195,0.195-0.512,0-0.707l-1-1c-0.152-0.152-0.384-0.189-0.577-0.094l-0.862,0.431c-0.025-0.043-0.055-0.076-0.081-0.117
		c0.006-0.006,0.014-0.007,0.02-0.013l1-1c0.195-0.195,0.195-0.512,0-0.707s-0.512-0.195-0.707,0l-1,1
		c-0.01,0.01-0.013,0.022-0.021,0.032c-0.095-0.051-0.191-0.096-0.293-0.124c-0.316-0.928-0.93-5.497,1.565-8.751
		c1.213-1.583,4.128-4.567,4.697-4.813c0.019-0.004,0.034-0.015,0.052-0.021c0.029-0.009,0.056-0.018,0.082-0.032
		c0.03-0.016,0.057-0.035,0.083-0.056c0.022-0.018,0.043-0.036,0.062-0.057C23.895,0.799,23.912,0.771,23.929,0.741z M3.271,2.564
		L1.707,1H4.63C4.454,1.162,4.31,1.305,4.222,1.394C3.826,1.789,3.492,2.202,3.271,2.564z M2.564,3.271
		c-0.362,0.221-0.775,0.555-1.17,0.951C1.304,4.311,1.161,4.46,1,4.64V1.707L2.564,3.271z M1,6.377
		c0.032-0.143,0.347-0.694,1.101-1.448c0.537-0.537,0.987-0.828,1.2-0.921l2.131,2.131C4.296,6.352,2.851,7.037,1.791,8.098
		C1.471,8.418,1.222,8.767,1,9.123V6.377z M4.008,3.301c0.092-0.214,0.384-0.663,0.921-1.2C5.688,1.342,6.243,1.026,6.342,1h2.781
		C8.767,1.222,8.418,1.471,8.098,1.791c-1.06,1.06-1.745,2.506-1.958,3.642L4.008,3.301z M1,11.447
		c0.323-0.846,0.727-1.872,1.498-2.642C4.015,7.287,5.959,6.93,6.374,7.081l1.988,1.988C6.994,9.402,5.047,10.467,3.515,12
		C2.398,13.116,1.575,14.231,1,15.207V11.447z M5.283,15.889C3.407,17.765,1.914,19.878,1,21.407v-3.611
		c0.008-0.639,0.99-2.857,3.222-5.089c2.041-2.041,4.473-2.842,5.008-2.771l2.186,2.186C9.858,12.451,7.643,13.529,5.283,15.889z
		 M12,3.515c-1.533,1.533-2.598,3.479-2.932,4.846L7.084,6.377c-0.156-0.399,0.194-2.353,1.72-3.88
		c0.77-0.77,1.796-1.175,2.642-1.498h3.76C14.231,1.575,13.116,2.399,12,3.515z"/>
</g>
<g id="Spider">
</g>
<g id="Full_Moon">
</g>
<g id="Crescent">
</g>
<g id="Crow">
</g>
<g id="Candy_Holder">
</g>
<g id="Bloody_Knife">
</g>
<g id="Bloody_Axe">
</g>
</svg>
