<?xml version="1.0" encoding="iso-8859-1"?>
<!-- Generator: Adobe Illustrator 19.2.1, SVG Export Plug-In . SVG Version: 6.00 Build 0)  -->
<svg version="1.1" xmlns="http://www.w3.org/2000/svg" xmlns:xlink="http://www.w3.org/1999/xlink" x="0px" y="0px"
	 viewBox="0 0 24 24" style="enable-background:new 0 0 24 24;" xml:space="preserve">
<g id="Pompkin">
</g>
<g id="Layer_10">
</g>
<g id="Bat">
</g>
<g id="Ghost">
</g>
<g id="Bone_Hand">
</g>
<g id="Tree_Ghost">
</g>
<g id="Gate">
</g>
<g id="Cemetery_1">
</g>
<g id="Cemetery_2">
</g>
<g id="Devil_x27_s_Fork">
</g>
<g id="Night_Candle">
</g>
<g id="Canlestick">
</g>
<g id="Black_Cat">
</g>
<g id="Witch_Cauldron">
</g>
<g id="Corn_Candy">
</g>
<g id="Layer_29">
</g>
<g id="Bones">
</g>
<g id="Witch_Broom">
</g>
<g id="Owl">
</g>
<g id="Scythe">
</g>
<g id="Grim_Reaper">
</g>
<g id="Coffin">
	<g>
		<polygon points="9.333,3 7.625,7.08 10.127,21 13.873,21 16.375,7.08 14.667,3 		"/>
		<path d="M19.447,6.276l-3-6C16.362,0.107,16.189,0,16,0H8C7.811,0,7.638,0.107,7.553,0.276l-3,6
			C4.505,6.373,4.489,6.481,4.508,6.587l3,17C7.55,23.826,7.757,24,8,24h8c0.243,0,0.45-0.174,0.492-0.413l3-17
			C19.511,6.481,19.495,6.373,19.447,6.276z M14.783,21.588C14.74,21.827,14.533,22,14.291,22H9.709
			c-0.242,0-0.449-0.173-0.492-0.412L6.615,7.112C6.598,7.017,6.609,6.919,6.646,6.831l1.893-4.523C8.617,2.121,8.798,2,9,2h6
			c0.202,0,0.383,0.121,0.461,0.307l1.893,4.523c0.037,0.089,0.048,0.187,0.031,0.281L14.783,21.588z"/>
	</g>
</g>
<g id="Dracula">
</g>
<g id="Frankenstein">
</g>
<g id="Layer_40">
</g>
<g id="Toilet_Paper">
</g>
<g id="Skull">
</g>
<g id="Skull_Cake">
</g>
<g id="Eyeball">
</g>
<g id="Castle">
</g>
<g id="Witch_x27_s_Hat">
</g>
<g id="Cobweb_1">
</g>
<g id="Cobweb_2">
</g>
<g id="Spider">
</g>
<g id="Full_Moon">
</g>
<g id="Crescent">
</g>
<g id="Crow">
</g>
<g id="Candy_Holder">
</g>
<g id="Bloody_Knife">
</g>
<g id="Bloody_Axe">
</g>
</svg>
