<?xml version="1.0" encoding="iso-8859-1"?>
<!-- Generator: Adobe Illustrator 19.2.1, SVG Export Plug-In . SVG Version: 6.00 Build 0)  -->
<svg version="1.1" xmlns="http://www.w3.org/2000/svg" xmlns:xlink="http://www.w3.org/1999/xlink" x="0px" y="0px"
	 viewBox="0 0 24 24" style="enable-background:new 0 0 24 24;" xml:space="preserve">
<g id="Pompkin">
</g>
<g id="Layer_10">
</g>
<g id="Bat">
</g>
<g id="Ghost">
</g>
<g id="Bone_Hand">
</g>
<g id="Tree_Ghost">
</g>
<g id="Gate">
</g>
<g id="Cemetery_1">
</g>
<g id="Cemetery_2">
</g>
<g id="Devil_x27_s_Fork">
</g>
<g id="Night_Candle">
</g>
<g id="Canlestick">
</g>
<g id="Black_Cat">
</g>
<g id="Witch_Cauldron">
</g>
<g id="Corn_Candy">
</g>
<g id="Layer_29">
</g>
<g id="Bones">
</g>
<g id="Witch_Broom">
</g>
<g id="Owl">
</g>
<g id="Scythe">
</g>
<g id="Grim_Reaper">
</g>
<g id="Coffin">
</g>
<g id="Dracula">
</g>
<g id="Frankenstein">
	<g>
		<path d="M18.737,15.953C20.064,15.609,21,13.459,21,12.5c0-1.066-0.342-1.788-1-2.232c-0.001-2.6-0.028-4.45-0.266-5.874
			c0.001-0.014,0.008-0.026,0.008-0.041c0-0.081-0.02-0.157-0.054-0.226C19.002,0.622,16.647,0,12,0
			C7.293,0,4.938,0.638,4.287,4.264c0,0,0,0.001,0,0.001C4.028,5.705,4.002,7.591,4,10.268c-0.658,0.443-1,1.166-1,2.232
			c0,0.961,0.938,3.116,2.27,3.455c0.025,0.076,0.053,0.162,0.083,0.256c0.241,0.746,0.657,2.011,1.714,3.055
			C7.028,19.336,7,19.414,7,19.5V21H6c0-0.276-0.224-0.5-0.5-0.5S5,20.724,5,21v1c0,0.276,0.224,0.5,0.5,0.5S6,22.276,6,22h1v1.5
			C7,23.776,7.224,24,7.5,24S8,23.776,8,23.5v-3.501C8.945,20.589,10.225,21,12,21c1.778,0,3.058-0.378,4-0.929V23.5
			c0,0.276,0.224,0.5,0.5,0.5s0.5-0.224,0.5-0.5V22h1c0,0.276,0.224,0.5,0.5,0.5S19,22.276,19,22v-1c0-0.276-0.224-0.5-0.5-0.5
			S18,20.724,18,21h-1v-1.5c0-0.055-0.015-0.106-0.031-0.155c1.097-1.05,1.472-2.347,1.687-3.106
			C18.686,16.134,18.711,16.037,18.737,15.953z M17.93,15.272c-0.09,0.176-0.154,0.405-0.236,0.695C17.295,17.377,16.554,20,12,20
			c-4.372,0-5.233-2.665-5.696-4.096c-0.088-0.273-0.162-0.491-0.234-0.632C5.985,15.105,5.812,15,5.625,15
			C4.927,15,4,13.284,4,12.5c0-1.063,0.366-1.369,0.762-1.541c0.253-0.11,0.37-0.405,0.259-0.658
			C5.016,10.289,5.006,10.282,5,10.271c0.001-1.72,0.013-3.1,0.089-4.234l0.518,0.129L5.553,6.276
			C5.429,6.523,5.529,6.824,5.776,6.947C5.848,6.983,5.924,7,6,7c0.184,0,0.36-0.101,0.448-0.276l0.154-0.308l1.006,0.252
			L7.553,6.776C7.429,7.023,7.529,7.324,7.776,7.447C7.848,7.483,7.924,7.5,8,7.5c0.184,0,0.36-0.101,0.448-0.276l0.154-0.308
			l1.006,0.252L9.553,7.276C9.429,7.523,9.529,7.824,9.776,7.947C9.848,7.983,9.924,8,10,8c0.184,0,0.36-0.101,0.448-0.276
			l0.154-0.308l0.278,0.069C10.919,7.495,10.96,7.5,11,7.5c0.224,0,0.428-0.151,0.484-0.379c0.067-0.268-0.096-0.539-0.364-0.606
			l-0.128-0.032c-0.006-0.177-0.1-0.346-0.269-0.43c-0.238-0.118-0.521-0.027-0.652,0.2l-1.078-0.27
			c-0.006-0.177-0.1-0.346-0.269-0.43c-0.238-0.118-0.521-0.027-0.652,0.2l-1.078-0.27c-0.006-0.177-0.1-0.346-0.269-0.43
			c-0.238-0.117-0.521-0.027-0.652,0.2L5.184,5.031c0.014-0.115,0.028-0.231,0.045-0.34c0.029-0.014,0.053-0.026,0.083-0.04
			c0.047-0.022,0.094-0.042,0.141-0.063c0.86-0.386,2.144-0.838,3-0.838c0.172,0,0.287,0.02,0.368,0.043
			c0.062,0.02,0.122,0.04,0.158,0.073c0.146,0.137,0.357,0.173,0.541,0.093c1.334-0.58,3.624-0.58,4.958,0
			c0.183,0.08,0.396,0.044,0.541-0.093c0.036-0.033,0.096-0.054,0.158-0.073c0.081-0.023,0.196-0.043,0.368-0.043
			c0.858,0,2.146,0.454,3.006,0.841c0.045,0.021,0.09,0.039,0.135,0.061c0.03,0.014,0.055,0.027,0.084,0.041
			c0.206,1.333,0.228,3.112,0.229,5.58c-0.006,0.011-0.016,0.018-0.021,0.03c-0.11,0.253,0.006,0.548,0.259,0.658
			C19.634,11.131,20,11.437,20,12.5c0,0.784-0.927,2.5-1.625,2.5C18.187,15,18.015,15.105,17.93,15.272z"/>
		<path d="M16,9h-2.5C13.224,9,13,9.224,13,9.5s0.224,0.5,0.5,0.5h1c-0.276,0-0.5,0.224-0.5,0.5s0.224,0.5,0.5,0.5H15
			c0.276,0,0.5-0.224,0.5-0.5S15.276,10,15,10h1c0.276,0,0.5-0.224,0.5-0.5S16.276,9,16,9z"/>
		<path d="M14.5,16h-5C9.224,16,9,16.224,9,16.5V17c0,0.276,0.224,0.5,0.5,0.5S10,17.276,10,17h4c0,0.276,0.224,0.5,0.5,0.5
			S15,17.276,15,17v-0.5C15,16.224,14.776,16,14.5,16z"/>
		<path d="M9.5,11c0.276,0,0.5-0.224,0.5-0.5S9.776,10,9.5,10h1c0.276,0,0.5-0.224,0.5-0.5S10.776,9,10.5,9H8
			C7.724,9,7.5,9.224,7.5,9.5S7.724,10,8,10h1c-0.276,0-0.5,0.224-0.5,0.5S8.724,11,9,11H9.5z"/>
	</g>
</g>
<g id="Layer_40">
</g>
<g id="Toilet_Paper">
</g>
<g id="Skull">
</g>
<g id="Skull_Cake">
</g>
<g id="Eyeball">
</g>
<g id="Castle">
</g>
<g id="Witch_x27_s_Hat">
</g>
<g id="Cobweb_1">
</g>
<g id="Cobweb_2">
</g>
<g id="Spider">
</g>
<g id="Full_Moon">
</g>
<g id="Crescent">
</g>
<g id="Crow">
</g>
<g id="Candy_Holder">
</g>
<g id="Bloody_Knife">
</g>
<g id="Bloody_Axe">
</g>
</svg>
