<?xml version="1.0" encoding="iso-8859-1"?>
<!-- Generator: Adobe Illustrator 19.2.1, SVG Export Plug-In . SVG Version: 6.00 Build 0)  -->
<svg version="1.1" xmlns="http://www.w3.org/2000/svg" xmlns:xlink="http://www.w3.org/1999/xlink" x="0px" y="0px"
	 viewBox="0 0 24 24" style="enable-background:new 0 0 24 24;" xml:space="preserve">
<g id="Pompkin">
</g>
<g id="Layer_10">
</g>
<g id="Bat">
</g>
<g id="Ghost">
</g>
<g id="Bone_Hand">
</g>
<g id="Tree_Ghost">
</g>
<g id="Gate">
</g>
<g id="Cemetery_1">
</g>
<g id="Cemetery_2">
</g>
<g id="Devil_x27_s_Fork">
</g>
<g id="Night_Candle">
</g>
<g id="Canlestick">
</g>
<g id="Black_Cat">
</g>
<g id="Witch_Cauldron">
</g>
<g id="Corn_Candy">
</g>
<g id="Layer_29">
</g>
<g id="Bones">
</g>
<g id="Witch_Broom">
</g>
<g id="Owl">
</g>
<g id="Scythe">
</g>
<g id="Grim_Reaper">
</g>
<g id="Coffin">
</g>
<g id="Dracula">
</g>
<g id="Frankenstein">
</g>
<g id="Layer_40">
	<g>
		<path d="M23.5,12h-0.793l0.146-0.146c0.195-0.195,0.195-0.512,0-0.707s-0.512-0.195-0.707,0L21.293,12H13v-1h1.5
			c0.276,0,0.5-0.224,0.5-0.5V9.222c1.24-0.833,2-2.234,2-3.722c0-0.51-0.101-1.017-0.278-1.5H17.5C17.776,4,18,3.776,18,3.5
			S17.776,3,17.5,3H17V1.5C17,0.673,16.327,0,15.5,0h-6C8.673,0,8,0.673,8,1.5V3H7.5C7.224,3,7,3.224,7,3.5S7.224,4,7.5,4h0.778
			C8.101,4.483,8,4.99,8,5.5c0,1.488,0.76,2.888,2,3.722V10.5c0,0.276,0.224,0.5,0.5,0.5H12v1H3.507H3.5H2.707l-0.854-0.854
			c-0.195-0.195-0.512-0.195-0.707,0s-0.195,0.512,0,0.707L1.293,12H0.5C0.224,12,0,12.224,0,12.5S0.224,13,0.5,13h0.793
			l-0.146,0.146c-0.195,0.195-0.195,0.512,0,0.707C1.244,13.951,1.372,14,1.5,14s0.256-0.049,0.354-0.146L2.707,13h0.334
			c0.098,0.936,0.464,1.604,0.809,2.188c0.402,0.678,0.749,1.265,0.651,2.263c-0.025,0.265,0.16,0.503,0.423,0.542
			c0.259,0.037,0.511-0.132,0.564-0.393c0.093-0.446,0.317-0.687,0.708-0.755c0.614-0.104,1.271,0.246,1.377,0.417
			c0.459,0.743,0.445,1.697,0.431,2.708L8,20.5c0,0.195,0.113,0.372,0.29,0.454c0.177,0.082,0.385,0.053,0.533-0.072
			c0.365-0.311,1.253-0.427,2.043-0.072c0.503,0.225,1.108,0.703,1.134,1.704V23.5c0,0.276,0.224,0.5,0.5,0.5s0.5-0.224,0.5-0.5
			v-0.831c0.744-1.034,2.218-1.772,3.513-1.73c0.51,0.017,1.192,0.171,1.552,0.807c0.112,0.198,0.344,0.296,0.563,0.238
			C18.847,21.926,19,21.727,19,21.5c0-0.469-0.014-0.984-0.027-1.504c-0.026-1.016-0.068-2.635,0.091-3.228
			c0.021,0.02,0.044,0.043,0.068,0.07c0.107,0.117,0.257,0.18,0.423,0.159c0.158-0.018,0.298-0.109,0.378-0.247
			c0.18-0.311,0.397-0.569,0.628-0.843c0.474-0.563,0.995-1.196,1.273-2.367l0.313,0.313C22.244,13.951,22.372,14,22.5,14
			s0.256-0.049,0.354-0.146c0.195-0.195,0.195-0.512,0-0.707L22.707,13H23.5c0.276,0,0.5-0.224,0.5-0.5S23.776,12,23.5,12z
			 M10.752,8.513C9.654,7.875,9,6.749,9,5.5C9,4.978,9.119,4.474,9.354,4h6.293C15.881,4.474,16,4.978,16,5.5
			c0,1.249-0.654,2.375-1.752,3.013C14.095,8.603,14,8.767,14,8.945V10h-3V8.945C11,8.767,10.905,8.603,10.752,8.513z M10,15.5
			c0,0.276-0.224,0.5-0.5,0.5h-1C8.224,16,8,15.776,8,15.5v-1C8,14.224,8.224,14,8.5,14h1c0.276,0,0.5,0.224,0.5,0.5V15.5z M17,17.5
			c0,0.276-0.224,0.5-0.5,0.5h-2c-0.276,0-0.5-0.224-0.5-0.5v-2c0-0.276,0.224-0.5,0.5-0.5h2c0.276,0,0.5,0.224,0.5,0.5V17.5z"/>
		<path d="M14,6c0.128,0,0.256-0.049,0.354-0.146l0.5-0.5c0.195-0.195,0.195-0.512,0-0.707s-0.512-0.195-0.707,0l-0.5,0.5
			c-0.195,0.195-0.195,0.512,0,0.707C13.744,5.951,13.872,6,14,6z"/>
		<path d="M11.354,5.854c0.195-0.195,0.195-0.512,0-0.707l-0.5-0.5c-0.195-0.195-0.512-0.195-0.707,0s-0.195,0.512,0,0.707l0.5,0.5
			C10.744,5.951,10.872,6,11,6S11.256,5.951,11.354,5.854z"/>
	</g>
</g>
<g id="Toilet_Paper">
</g>
<g id="Skull">
</g>
<g id="Skull_Cake">
</g>
<g id="Eyeball">
</g>
<g id="Castle">
</g>
<g id="Witch_x27_s_Hat">
</g>
<g id="Cobweb_1">
</g>
<g id="Cobweb_2">
</g>
<g id="Spider">
</g>
<g id="Full_Moon">
</g>
<g id="Crescent">
</g>
<g id="Crow">
</g>
<g id="Candy_Holder">
</g>
<g id="Bloody_Knife">
</g>
<g id="Bloody_Axe">
</g>
</svg>
