<?xml version="1.0" encoding="iso-8859-1"?>
<!-- Generator: Adobe Illustrator 19.2.1, SVG Export Plug-In . SVG Version: 6.00 Build 0)  -->
<svg version="1.1" xmlns="http://www.w3.org/2000/svg" xmlns:xlink="http://www.w3.org/1999/xlink" x="0px" y="0px"
	 viewBox="0 0 24 24" style="enable-background:new 0 0 24 24;" xml:space="preserve">
<g id="Pompkin">
</g>
<g id="Layer_10">
</g>
<g id="Bat">
</g>
<g id="Ghost">
</g>
<g id="Bone_Hand">
</g>
<g id="Tree_Ghost">
</g>
<g id="Gate">
</g>
<g id="Cemetery_1">
</g>
<g id="Cemetery_2">
</g>
<g id="Devil_x27_s_Fork">
</g>
<g id="Night_Candle">
</g>
<g id="Canlestick">
</g>
<g id="Black_Cat">
</g>
<g id="Witch_Cauldron">
</g>
<g id="Corn_Candy">
</g>
<g id="Layer_29">
	<path d="M23.56,21.44l-9.807-9.807c0.787-1.186,1.248-2.607,1.248-4.134c0-4.136-3.364-7.5-7.5-7.5s-7.5,3.364-7.5,7.5
		s3.364,7.5,7.5,7.5c1.526,0,2.944-0.46,4.13-1.246l9.808,9.808c0.283,0.283,0.66,0.439,1.061,0.439
		c0.401,0,0.778-0.156,1.062-0.439C24.145,22.977,24.145,22.025,23.56,21.44z M14.001,7.499c0,0.032-0.004,0.064-0.005,0.096
		c0.003-0.171-0.005-0.342-0.016-0.512C13.989,7.221,14.001,7.359,14.001,7.499z M7.501,13.999c-1.24,0-2.396-0.355-3.383-0.961
		C2.842,11.948,2.03,10.329,2.03,8.523c0-2.677,2.178-4.854,4.854-4.854c2.196,0,3.983,1.787,3.983,3.983
		c0,1.812-1.475,3.287-3.287,3.287c-1.505,0-2.729-1.224-2.729-2.729c0-1.259,1.024-2.284,2.283-2.284
		c1.063,0,1.927,0.864,1.927,1.927c0,0.276-0.224,0.5-0.5,0.5s-0.5-0.224-0.5-0.5c0-0.511-0.416-0.927-0.927-0.927
		c-0.708,0-1.283,0.576-1.283,1.284c0,0.954,0.775,1.729,1.729,1.729c1.261,0,2.287-1.026,2.287-2.287
		c0-1.645-1.338-2.983-2.983-2.983c-2.125,0-3.854,1.729-3.854,3.854c0,2.725,2.217,4.942,4.943,4.942
		c1.994,0,3.823-0.919,5.029-2.519C11.85,12.777,9.818,13.999,7.501,13.999z"/>
</g>
<g id="Bones">
</g>
<g id="Witch_Broom">
</g>
<g id="Owl">
</g>
<g id="Scythe">
</g>
<g id="Grim_Reaper">
</g>
<g id="Coffin">
</g>
<g id="Dracula">
</g>
<g id="Frankenstein">
</g>
<g id="Layer_40">
</g>
<g id="Toilet_Paper">
</g>
<g id="Skull">
</g>
<g id="Skull_Cake">
</g>
<g id="Eyeball">
</g>
<g id="Castle">
</g>
<g id="Witch_x27_s_Hat">
</g>
<g id="Cobweb_1">
</g>
<g id="Cobweb_2">
</g>
<g id="Spider">
</g>
<g id="Full_Moon">
</g>
<g id="Crescent">
</g>
<g id="Crow">
</g>
<g id="Candy_Holder">
</g>
<g id="Bloody_Knife">
</g>
<g id="Bloody_Axe">
</g>
</svg>
