<?xml version="1.0" encoding="iso-8859-1"?>
<!-- Generator: Adobe Illustrator 19.2.1, SVG Export Plug-In . SVG Version: 6.00 Build 0)  -->
<svg version="1.1" xmlns="http://www.w3.org/2000/svg" xmlns:xlink="http://www.w3.org/1999/xlink" x="0px" y="0px"
	 viewBox="0 0 24 24" style="enable-background:new 0 0 24 24;" xml:space="preserve">
<g id="Pompkin">
</g>
<g id="Layer_10">
	<path d="M19,6.808V6.5C19,2.916,16.084,0,12.5,0S6,2.916,6,6.5v0.324c-3.386,1.061-6,4.742-6,8.708C0,20.201,3.589,24,8,24
		c1.28,0,2.548-0.33,3.685-0.956C12.862,23.67,14.175,24,15.5,24c4.687,0,8.5-4.038,8.5-9C24,11.359,21.944,8.224,19,6.808z
		 M14.547,7.062c0.001,0,0.001,0,0.001,0c1.148,0.071,1.999,0.191,2.58,0.314c0.007,0.002,0.015,0.003,0.023,0.005
		c0.189,0.04,0.35,0.081,0.481,0.12C16.861,7.733,15.131,8,12.5,8c-0.33,0-0.646-0.004-0.948-0.012
		c-0.161-0.004-0.308-0.012-0.461-0.018c-0.133-0.005-0.274-0.009-0.401-0.016c-0.143-0.008-0.272-0.018-0.407-0.027
		c-0.124-0.008-0.255-0.016-0.372-0.025c-0.129-0.01-0.243-0.023-0.363-0.035c-0.108-0.01-0.223-0.02-0.324-0.031
		c-0.13-0.015-0.246-0.031-0.365-0.047c-0.077-0.01-0.161-0.02-0.234-0.03C8.506,7.742,8.402,7.723,8.295,7.705
		c-0.06-0.01-0.127-0.02-0.183-0.03C8.012,7.656,7.927,7.636,7.838,7.617C7.79,7.607,7.735,7.597,7.69,7.586
		C7.612,7.568,7.549,7.549,7.482,7.531C7.444,7.521,7.4,7.51,7.365,7.5C8.136,7.267,9.867,7,12.5,7
		C13.261,7,13.938,7.024,14.547,7.062z M6.129,10.709c0.042-0.125,0.132-0.229,0.25-0.289c0.119-0.059,0.255-0.07,0.382-0.027
		l3.795,1.265c0.262,0.087,0.403,0.37,0.316,0.632C10.532,13.313,9.579,14,8.501,14c0,0,0,0,0,0c-0.268,0-0.534-0.043-0.791-0.129
		C6.402,13.435,5.693,12.017,6.129,10.709z M14.444,11.658l3.795-1.265c0.127-0.042,0.263-0.032,0.382,0.027
		c0.119,0.06,0.209,0.164,0.25,0.289c0.436,1.308-0.273,2.726-1.581,3.162C17.034,13.957,16.768,14,16.5,14
		c-1.078,0-2.031-0.687-2.372-1.71C14.041,12.028,14.182,11.745,14.444,11.658z M12.5,1c2.998,0,5.439,2.412,5.495,5.397
		C17.205,6.14,16.368,6,15.5,6c-0.288,0-0.569,0.027-0.849,0.058C13.89,6.014,13.138,6,12.5,6C10.823,6,8.362,6.093,7,6.581V6.5
		C7,3.467,9.467,1,12.5,1z M21.407,16.469c-0.279,0.263-0.571,0.508-0.869,0.743l0.302,0.415c0.162,0.224,0.112,0.536-0.111,0.699
		c-0.089,0.064-0.192,0.095-0.293,0.095c-0.155,0-0.307-0.071-0.405-0.206l-0.305-0.42c-0.289,0.194-0.585,0.373-0.888,0.542
		l0.236,0.464c0.125,0.246,0.028,0.547-0.218,0.672c-0.073,0.037-0.15,0.055-0.227,0.055c-0.182,0-0.357-0.1-0.446-0.273
		l-0.236-0.464c-0.315,0.146-0.634,0.281-0.96,0.401l0.16,0.492c0.085,0.262-0.059,0.544-0.321,0.63
		c-0.051,0.017-0.103,0.024-0.154,0.024c-0.211,0-0.407-0.134-0.476-0.346l-0.158-0.486c-0.334,0.094-0.671,0.176-1.013,0.243
		l0.08,0.505c0.043,0.272-0.143,0.529-0.416,0.572c-0.026,0.004-0.053,0.006-0.079,0.006c-0.242,0-0.454-0.175-0.493-0.422
		l-0.081-0.513c-0.343,0.04-0.689,0.064-1.037,0.077V20.5c0,0.276-0.224,0.5-0.5,0.5S12,20.776,12,20.5v-0.524
		c-0.348-0.013-0.694-0.037-1.037-0.077l-0.081,0.513c-0.039,0.247-0.251,0.422-0.493,0.422c-0.026,0-0.052-0.002-0.079-0.006
		c-0.273-0.043-0.459-0.299-0.416-0.572l0.08-0.505c-0.342-0.067-0.679-0.149-1.013-0.243l-0.158,0.486
		c-0.069,0.211-0.265,0.346-0.476,0.346c-0.051,0-0.103-0.008-0.154-0.024c-0.263-0.085-0.407-0.368-0.321-0.63l0.16-0.492
		c-0.326-0.12-0.645-0.255-0.96-0.401l-0.236,0.464c-0.088,0.173-0.264,0.273-0.446,0.273c-0.076,0-0.154-0.018-0.227-0.055
		c-0.246-0.125-0.344-0.426-0.218-0.672l0.236-0.464c-0.302-0.169-0.599-0.348-0.887-0.542l-0.305,0.42
		c-0.098,0.135-0.25,0.206-0.405,0.206c-0.102,0-0.205-0.031-0.293-0.095c-0.223-0.163-0.273-0.475-0.111-0.699l0.302-0.415
		c-0.298-0.235-0.59-0.481-0.869-0.743c-0.201-0.189-0.21-0.506-0.021-0.707c0.19-0.201,0.506-0.21,0.707-0.021
		c0.248,0.234,0.508,0.451,0.772,0.661l0.285-0.392c0.163-0.224,0.474-0.273,0.699-0.111c0.223,0.163,0.273,0.475,0.111,0.699
		l-0.283,0.39c0.246,0.164,0.498,0.315,0.754,0.459l0.218-0.427c0.125-0.246,0.425-0.346,0.672-0.218
		c0.246,0.125,0.344,0.426,0.218,0.672l-0.218,0.427c0.268,0.123,0.538,0.239,0.815,0.341l0.149-0.46
		c0.085-0.263,0.367-0.407,0.63-0.321s0.407,0.368,0.321,0.63l-0.151,0.463c0.284,0.079,0.57,0.149,0.86,0.207l0.076-0.481
		c0.043-0.273,0.3-0.458,0.572-0.416c0.273,0.043,0.459,0.299,0.416,0.572l-0.075,0.476c0.291,0.033,0.585,0.052,0.881,0.064V18.5
		c0-0.276,0.224-0.5,0.5-0.5s0.5,0.224,0.5,0.5v0.476c0.295-0.012,0.589-0.031,0.881-0.064l-0.075-0.476
		c-0.043-0.272,0.143-0.529,0.416-0.572c0.274-0.043,0.528,0.143,0.572,0.416l0.076,0.481c0.29-0.058,0.576-0.128,0.86-0.207
		l-0.151-0.463c-0.085-0.262,0.059-0.544,0.321-0.63c0.262-0.086,0.544,0.059,0.63,0.321l0.149,0.46
		c0.276-0.103,0.547-0.219,0.815-0.341l-0.218-0.427c-0.125-0.246-0.028-0.547,0.218-0.672c0.247-0.127,0.547-0.027,0.672,0.218
		l0.218,0.427c0.256-0.145,0.509-0.295,0.754-0.459l-0.283-0.39c-0.162-0.224-0.112-0.536,0.111-0.699
		c0.225-0.161,0.537-0.113,0.699,0.111l0.285,0.392c0.264-0.21,0.524-0.427,0.772-0.661c0.201-0.188,0.517-0.18,0.707,0.021
		C21.618,15.963,21.608,16.28,21.407,16.469z"/>
</g>
<g id="Bat">
</g>
<g id="Ghost">
</g>
<g id="Bone_Hand">
</g>
<g id="Tree_Ghost">
</g>
<g id="Gate">
</g>
<g id="Cemetery_1">
</g>
<g id="Cemetery_2">
</g>
<g id="Devil_x27_s_Fork">
</g>
<g id="Night_Candle">
</g>
<g id="Canlestick">
</g>
<g id="Black_Cat">
</g>
<g id="Witch_Cauldron">
</g>
<g id="Corn_Candy">
</g>
<g id="Layer_29">
</g>
<g id="Bones">
</g>
<g id="Witch_Broom">
</g>
<g id="Owl">
</g>
<g id="Scythe">
</g>
<g id="Grim_Reaper">
</g>
<g id="Coffin">
</g>
<g id="Dracula">
</g>
<g id="Frankenstein">
</g>
<g id="Layer_40">
</g>
<g id="Toilet_Paper">
</g>
<g id="Skull">
</g>
<g id="Skull_Cake">
</g>
<g id="Eyeball">
</g>
<g id="Castle">
</g>
<g id="Witch_x27_s_Hat">
</g>
<g id="Cobweb_1">
</g>
<g id="Cobweb_2">
</g>
<g id="Spider">
</g>
<g id="Full_Moon">
</g>
<g id="Crescent">
</g>
<g id="Crow">
</g>
<g id="Candy_Holder">
</g>
<g id="Bloody_Knife">
</g>
<g id="Bloody_Axe">
</g>
</svg>
