<?xml version="1.0" encoding="iso-8859-1"?>
<!-- Generator: Adobe Illustrator 19.2.1, SVG Export Plug-In . SVG Version: 6.00 Build 0)  -->
<svg version="1.1" xmlns="http://www.w3.org/2000/svg" xmlns:xlink="http://www.w3.org/1999/xlink" x="0px" y="0px"
	 viewBox="0 0 24 24" style="enable-background:new 0 0 24 24;" xml:space="preserve">
<g id="Pompkin">
	<path d="M15.5,5.999c-0.857,0-1.697,0.135-2.5,0.398V5.999c0-0.473,0.75-1.273,1.545-1.477c0.035-0.009,0.068-0.021,0.101-0.038
		l0.194-0.097c0.128-0.064,0.223-0.18,0.259-0.319c0.037-0.138,0.012-0.286-0.067-0.405c-0.171-0.256-0.269-0.637-0.269-1.046
		c0-0.329,0.067-0.649,0.188-0.902c0.097-0.203,0.047-0.445-0.123-0.592c-0.169-0.149-0.417-0.164-0.603-0.042l-2.291,1.51
		C10.741,3.188,10,4.387,10,5.721V6.71C9.103,6.31,7.845,5.534,6.727,4.66c0.07-0.149,0.129-0.31,0.175-0.482
		c0.393-1.467-0.213-3.359-1.271-3.97C4.985-0.165,4.268-0.029,3.658,0.581C3.376,0.863,3.084,1.36,3.291,2.125
		C3.514,2.95,4.321,3.902,5.333,4.794C5.108,4.93,4.83,4.999,4.5,4.999c-3.374,0-3.497-1.454-3.5-1.504
		C0.998,3.22,0.774,2.999,0.5,2.999c-0.001,0-0.002,0-0.004,0C0.22,3.001-0.002,3.226,0,3.503c0.001,0.102,0.07,2.496,4.5,2.496
		c0.652,0,1.206-0.191,1.628-0.546c0.805,0.628,1.667,1.196,2.438,1.634C8.378,7.073,8.189,7.061,8,7.061c-4.411,0-8,3.799-8,8.469
		s3.589,8.469,8,8.469c1.28,0,2.548-0.33,3.685-0.956c1.177,0.626,2.49,0.956,3.815,0.956c4.687,0,8.5-4.038,8.5-9
		S20.187,5.999,15.5,5.999z M5.936,3.919C5.93,3.942,5.923,3.964,5.917,3.986C5.073,3.234,4.42,2.47,4.256,1.863
		C4.168,1.54,4.262,1.391,4.365,1.288C4.59,1.063,4.765,1.001,4.895,1.001c0.11,0,0.188,0.045,0.236,0.073
		C5.729,1.419,6.228,2.828,5.936,3.919z M13.146,13.145l3-3c0.106-0.105,0.252-0.158,0.403-0.144
		c0.149,0.015,0.284,0.096,0.367,0.22l2,3c0.102,0.153,0.112,0.351,0.025,0.513s-0.256,0.264-0.441,0.264h-5
		c-0.202,0-0.385-0.122-0.462-0.309C12.96,13.503,13.003,13.288,13.146,13.145z M5.553,13.275l1.5-3
		c0.072-0.144,0.208-0.244,0.367-0.27c0.163-0.026,0.32,0.026,0.434,0.14l2.926,2.926c0.144,0.088,0.24,0.246,0.24,0.427
		c0,0.276-0.224,0.5-0.5,0.5c-0.007,0-0.013-0.001-0.02,0H6c-0.173,0-0.334-0.09-0.425-0.237S5.475,13.43,5.553,13.275z
		 M20.928,16.757c-1.235,2.051-4.098,4.242-8.428,4.242c-0.292,0-0.562-0.024-0.832-0.049l-0.21-0.019
		C11.199,20.908,11,20.692,11,20.432v-0.434h-1V20.1c0,0.157-0.073,0.304-0.198,0.398c-0.125,0.095-0.286,0.124-0.438,0.083
		c-3.34-0.942-4.896-3.166-5.292-3.824c-0.101-0.167-0.095-0.378,0.015-0.539c0.11-0.162,0.304-0.243,0.496-0.212
		c0.723,0.121,1.365,0.241,1.969,0.354l1.037,0.191c0.224,0.04,0.39,0.225,0.41,0.447h1.135c0.011-0.011,0.022-0.022,0.034-0.033
		c0.105-0.095,0.25-0.139,0.389-0.125c1.509,0.17,2.942,0.225,4.907,0.078c0.143-0.008,0.275,0.038,0.377,0.132
		c0.102,0.095,0.16,0.228,0.16,0.367v0.581h1v-0.796c0-0.249,0.184-0.46,0.43-0.495c1.024-0.145,1.957-0.322,2.779-0.479
		c0.429-0.082,0.831-0.158,1.206-0.223c0.194-0.036,0.388,0.049,0.498,0.21C21.023,16.378,21.029,16.589,20.928,16.757z"/>
</g>
<g id="Layer_10">
</g>
<g id="Bat">
</g>
<g id="Ghost">
</g>
<g id="Bone_Hand">
</g>
<g id="Tree_Ghost">
</g>
<g id="Gate">
</g>
<g id="Cemetery_1">
</g>
<g id="Cemetery_2">
</g>
<g id="Devil_x27_s_Fork">
</g>
<g id="Night_Candle">
</g>
<g id="Canlestick">
</g>
<g id="Black_Cat">
</g>
<g id="Witch_Cauldron">
</g>
<g id="Corn_Candy">
</g>
<g id="Layer_29">
</g>
<g id="Bones">
</g>
<g id="Witch_Broom">
</g>
<g id="Owl">
</g>
<g id="Scythe">
</g>
<g id="Grim_Reaper">
</g>
<g id="Coffin">
</g>
<g id="Dracula">
</g>
<g id="Frankenstein">
</g>
<g id="Layer_40">
</g>
<g id="Toilet_Paper">
</g>
<g id="Skull">
</g>
<g id="Skull_Cake">
</g>
<g id="Eyeball">
</g>
<g id="Castle">
</g>
<g id="Witch_x27_s_Hat">
</g>
<g id="Cobweb_1">
</g>
<g id="Cobweb_2">
</g>
<g id="Spider">
</g>
<g id="Full_Moon">
</g>
<g id="Crescent">
</g>
<g id="Crow">
</g>
<g id="Candy_Holder">
</g>
<g id="Bloody_Knife">
</g>
<g id="Bloody_Axe">
</g>
</svg>
