<?xml version="1.0" encoding="iso-8859-1"?>
<!-- Generator: Adobe Illustrator 19.2.1, SVG Export Plug-In . SVG Version: 6.00 Build 0)  -->
<svg version="1.1" xmlns="http://www.w3.org/2000/svg" xmlns:xlink="http://www.w3.org/1999/xlink" x="0px" y="0px"
	 viewBox="0 0 24 24" style="enable-background:new 0 0 24 24;" xml:space="preserve">
<g id="Pompkin">
</g>
<g id="Layer_10">
</g>
<g id="Bat">
</g>
<g id="Ghost">
</g>
<g id="Bone_Hand">
</g>
<g id="Tree_Ghost">
</g>
<g id="Gate">
</g>
<g id="Cemetery_1">
</g>
<g id="Cemetery_2">
</g>
<g id="Devil_x27_s_Fork">
</g>
<g id="Night_Candle">
</g>
<g id="Canlestick">
</g>
<g id="Black_Cat">
</g>
<g id="Witch_Cauldron">
</g>
<g id="Corn_Candy">
</g>
<g id="Layer_29">
</g>
<g id="Bones">
</g>
<g id="Witch_Broom">
</g>
<g id="Owl">
</g>
<g id="Scythe">
</g>
<g id="Grim_Reaper">
</g>
<g id="Coffin">
</g>
<g id="Dracula">
</g>
<g id="Frankenstein">
</g>
<g id="Layer_40">
</g>
<g id="Toilet_Paper">
</g>
<g id="Skull">
</g>
<g id="Skull_Cake">
	<g>
		<path d="M8,9.719V11.5C8,11.776,8.224,12,8.5,12H10v-1.5c0-0.276,0.224-0.5,0.5-0.5s0.5,0.224,0.5,0.5V12h1v-1.5
			c0-0.276,0.224-0.5,0.5-0.5s0.5,0.224,0.5,0.5V12h1.5c0.276,0,0.5-0.224,0.5-0.5V9.719c1.274-1.054,2-2.578,2-4.219
			C17,2.467,14.532,0,11.5,0S6,2.467,6,5.5C6,7.142,6.726,8.666,8,9.719z M12.005,6.45C12.1,5.8,13.163,5,13.934,5
			c0.537,0,0.926,0.343,1.039,0.919c0.099,0.5-0.081,1.135-0.448,1.581c-0.284,0.346-0.651,0.537-1.033,0.537
			c-0.481,0-0.9-0.179-1.182-0.503C12.055,7.238,11.946,6.854,12.005,6.45z M8.01,5.918C8.124,5.343,8.515,5,9.054,5
			c0.774,0,1.845,0.799,1.941,1.449c0.059,0.402-0.049,0.786-0.304,1.081C10.413,7.852,9.979,8.037,9.5,8.037
			c-0.386,0-0.757-0.192-1.044-0.542C8.091,7.048,7.911,6.415,8.01,5.918z"/>
		<path d="M19.5,23h-2.013C17.805,22.581,18,22.065,18,21.5v-5.829V15.5c0-1.378-1.121-2.5-2.5-2.5h-8C6.121,13,5,14.122,5,15.5
			v0.173V21.5c0,0.565,0.195,1.081,0.513,1.5H3.5C3.224,23,3,23.224,3,23.5S3.224,24,3.5,24h4h8h4c0.276,0,0.5-0.224,0.5-0.5
			S19.776,23,19.5,23z M7.5,14h8c0.812,0,1.475,0.647,1.499,1.453c-0.006,0.006-0.01,0.012-0.016,0.018
			c-0.067,0.072-0.127,0.145-0.183,0.213C16.594,15.937,16.521,16,16.371,16c-0.149,0-0.222-0.063-0.427-0.316
			C15.723,15.412,15.387,15,14.742,15s-0.979,0.412-1.201,0.685C13.336,15.937,13.265,16,13.115,16
			c-0.147,0-0.219-0.063-0.423-0.315C12.471,15.412,12.137,15,11.493,15c-0.645,0-0.979,0.412-1.2,0.685
			C10.088,15.937,10.017,16,9.868,16c-0.147,0-0.219-0.063-0.423-0.315C9.224,15.412,8.889,15,8.244,15
			c-0.644,0-0.977,0.412-1.198,0.685C6.842,15.937,6.771,16,6.624,16c-0.149,0-0.221-0.063-0.427-0.316
			c-0.055-0.068-0.115-0.14-0.182-0.212c-0.005-0.005-0.009-0.011-0.014-0.016C6.024,14.649,6.687,14,7.5,14z"/>
	</g>
</g>
<g id="Eyeball">
</g>
<g id="Castle">
</g>
<g id="Witch_x27_s_Hat">
</g>
<g id="Cobweb_1">
</g>
<g id="Cobweb_2">
</g>
<g id="Spider">
</g>
<g id="Full_Moon">
</g>
<g id="Crescent">
</g>
<g id="Crow">
</g>
<g id="Candy_Holder">
</g>
<g id="Bloody_Knife">
</g>
<g id="Bloody_Axe">
</g>
</svg>
