<?xml version="1.0" encoding="iso-8859-1"?>
<!-- Generator: Adobe Illustrator 19.2.1, SVG Export Plug-In . SVG Version: 6.00 Build 0)  -->
<svg version="1.1" xmlns="http://www.w3.org/2000/svg" xmlns:xlink="http://www.w3.org/1999/xlink" x="0px" y="0px"
	 viewBox="0 0 24 24" style="enable-background:new 0 0 24 24;" xml:space="preserve">
<g id="Pompkin">
</g>
<g id="Layer_10">
</g>
<g id="Bat">
</g>
<g id="Ghost">
</g>
<g id="Bone_Hand">
</g>
<g id="Tree_Ghost">
</g>
<g id="Gate">
</g>
<g id="Cemetery_1">
</g>
<g id="Cemetery_2">
</g>
<g id="Devil_x27_s_Fork">
</g>
<g id="Night_Candle">
</g>
<g id="Canlestick">
</g>
<g id="Black_Cat">
</g>
<g id="Witch_Cauldron">
</g>
<g id="Corn_Candy">
</g>
<g id="Layer_29">
</g>
<g id="Bones">
</g>
<g id="Witch_Broom">
</g>
<g id="Owl">
</g>
<g id="Scythe">
</g>
<g id="Grim_Reaper">
</g>
<g id="Coffin">
</g>
<g id="Dracula">
</g>
<g id="Frankenstein">
</g>
<g id="Layer_40">
</g>
<g id="Toilet_Paper">
</g>
<g id="Skull">
	<g>
		<path d="M16.615,19.014c-0.229-0.057-0.458,0.055-0.562,0.262C15.276,20.821,13.368,21,12,21s-3.276-0.179-4.053-1.725
			c-0.104-0.207-0.335-0.318-0.562-0.262C7.159,19.067,7,19.268,7,19.5c0,2.8,0.336,4.5,5,4.5c5,0,5-2.927,5-4.5
			C17,19.268,16.841,19.067,16.615,19.014z"/>
		<path d="M20.496,4.282C19.136,1.471,15.215,0,11.954,0C10.236,0,8.3,0.436,6.669,1.279l2.007,0.753
			c0.238,0.089,0.371,0.343,0.309,0.589L8.591,4.198l2.095,0.838c0.256,0.103,0.381,0.394,0.279,0.65C10.886,5.881,10.698,6,10.5,6
			c-0.062,0-0.125-0.011-0.186-0.036l-2.5-1c-0.232-0.093-0.36-0.343-0.299-0.585l0.392-1.567L5.58,1.939
			C4.689,2.571,3.954,3.352,3.504,4.282c-1.323,2.735,0.317,7.058,0.942,8.321c-0.085,1.216-0.175,2.589,1.279,3.341
			c1.192,0.616,2.151,1.721,2.28,2.626c0.015,0.103,0.061,0.198,0.132,0.273c0.956,1.008,2.735,1.159,3.711,1.159
			c1.558,0,3.494-0.382,4.065-1.222c0.043-0.063,0.071-0.135,0.082-0.21c0.129-0.905,1.088-2.01,2.28-2.626
			c1.454-0.752,1.364-2.125,1.279-3.341C20.179,11.34,21.819,7.018,20.496,4.282z M6.785,13.09
			c-0.623-0.761-0.941-1.866-0.775-2.689C6.192,9.5,6.774,8.982,7.608,8.982c1.372,0,3.246,1.501,3.386,2.444
			c0.096,0.646-0.075,1.261-0.482,1.733C10.052,13.694,9.318,14,8.5,14C7.875,14,7.265,13.677,6.785,13.09z M13,18
			c-0.58,0-1-0.631-1-1.5c0,0.869-0.42,1.5-1,1.5s-1-0.631-1-1.5c0-0.712,0.885-1.606,1.156-1.863
			c0.145-0.138,0.357-0.175,0.542-0.097C11.881,14.62,12,14.8,12,15c0-0.2,0.119-0.38,0.302-0.459
			c0.184-0.079,0.396-0.041,0.542,0.097C13.115,14.894,14,15.788,14,16.5C14,17.369,13.58,18,13,18z M17.215,13.09
			C16.735,13.677,16.125,14,15.5,14c-0.818,0-1.552-0.306-2.012-0.84c-0.407-0.472-0.579-1.088-0.482-1.733
			c0.141-0.943,2.015-2.444,3.386-2.444c0.834,0,1.417,0.517,1.599,1.419C18.156,11.224,17.837,12.33,17.215,13.09z"/>
	</g>
</g>
<g id="Skull_Cake">
</g>
<g id="Eyeball">
</g>
<g id="Castle">
</g>
<g id="Witch_x27_s_Hat">
</g>
<g id="Cobweb_1">
</g>
<g id="Cobweb_2">
</g>
<g id="Spider">
</g>
<g id="Full_Moon">
</g>
<g id="Crescent">
</g>
<g id="Crow">
</g>
<g id="Candy_Holder">
</g>
<g id="Bloody_Knife">
</g>
<g id="Bloody_Axe">
</g>
</svg>
