<?xml version="1.0" encoding="iso-8859-1"?>
<!-- Generator: Adobe Illustrator 19.2.1, SVG Export Plug-In . SVG Version: 6.00 Build 0)  -->
<svg version="1.1" xmlns="http://www.w3.org/2000/svg" xmlns:xlink="http://www.w3.org/1999/xlink" x="0px" y="0px"
	 viewBox="0 0 24 24" style="enable-background:new 0 0 24 24;" xml:space="preserve">
<g id="Pompkin">
</g>
<g id="Layer_10">
</g>
<g id="Bat">
</g>
<g id="Ghost">
</g>
<g id="Bone_Hand">
</g>
<g id="Tree_Ghost">
</g>
<g id="Gate">
</g>
<g id="Cemetery_1">
</g>
<g id="Cemetery_2">
</g>
<g id="Devil_x27_s_Fork">
</g>
<g id="Night_Candle">
</g>
<g id="Canlestick">
</g>
<g id="Black_Cat">
</g>
<g id="Witch_Cauldron">
</g>
<g id="Corn_Candy">
</g>
<g id="Layer_29">
</g>
<g id="Bones">
</g>
<g id="Witch_Broom">
</g>
<g id="Owl">
</g>
<g id="Scythe">
</g>
<g id="Grim_Reaper">
</g>
<g id="Coffin">
</g>
<g id="Dracula">
</g>
<g id="Frankenstein">
</g>
<g id="Layer_40">
</g>
<g id="Toilet_Paper">
</g>
<g id="Skull">
</g>
<g id="Skull_Cake">
</g>
<g id="Eyeball">
</g>
<g id="Castle">
</g>
<g id="Witch_x27_s_Hat">
</g>
<g id="Cobweb_1">
</g>
<g id="Cobweb_2">
</g>
<g id="Spider">
	<path d="M19.854,10.146c-0.111-0.111-0.266-0.166-0.424-0.142L13.4,10.866l6.31-2.912c0.054-0.025,0.103-0.059,0.144-0.101l3-3
		c0.195-0.195,0.195-0.512,0-0.707s-0.512-0.195-0.707,0l-2.937,2.937l-5.751,2.654l4.413-4.903C17.954,4.743,18,4.624,18,4.5v-4
		C18,0.224,17.776,0,17.5,0S17,0.224,17,0.5v3.808l-4.007,4.453c-0.063-0.086-0.132-0.165-0.208-0.238
		c0.241-0.484,0.395-1.253-0.203-1.871c-0.191-0.198-0.508-0.203-0.707-0.012c-0.198,0.192-0.204,0.509-0.012,0.707
		c0.218,0.225,0.131,0.521,0.044,0.702C11.773,8.02,11.635,8,11.494,8c-0.223,0-0.435,0.052-0.638,0.128
		c-0.089-0.155-0.25-0.518,0.004-0.78c0.192-0.198,0.187-0.515-0.012-0.707s-0.515-0.187-0.707,0.012
		c-0.686,0.709-0.385,1.617-0.094,2.064c-0.012,0.016-0.027,0.028-0.039,0.044L6,4.308V0.5C6,0.224,5.776,0,5.5,0S5,0.224,5,0.5v4
		c0,0.124,0.046,0.243,0.128,0.334l4.413,4.903L3.791,7.083L0.854,4.146c-0.195-0.195-0.512-0.195-0.707,0s-0.195,0.512,0,0.707l3,3
		c0.042,0.042,0.09,0.076,0.144,0.101l6.31,2.912l-6.029-0.861c-0.157-0.023-0.313,0.031-0.424,0.142l-3,3
		c-0.195,0.195-0.195,0.512,0,0.707C0.244,13.951,0.372,14,0.5,14s0.256-0.049,0.354-0.146l2.823-2.823l5.789,0.827l-5.348,6.32
		c-0.055,0.064-0.092,0.142-0.108,0.225l-1,5c-0.054,0.271,0.122,0.534,0.392,0.588C3.435,23.997,3.468,24,3.5,24
		c0.233,0,0.442-0.164,0.49-0.402l0.975-4.874l3.058-3.614C8.009,15.244,8,15.374,8,15.5c0,1.93,1.57,3.5,3.5,3.5s3.5-1.57,3.5-3.5
		c0-0.126-0.009-0.256-0.023-0.389l3.058,3.614l0.975,4.874C19.057,23.836,19.266,24,19.5,24c0.032,0,0.065-0.003,0.099-0.01
		c0.271-0.054,0.446-0.317,0.392-0.588l-1-5c-0.017-0.083-0.054-0.16-0.108-0.225l-5.348-6.32l5.789-0.827l2.823,2.823
		C22.244,13.951,22.372,14,22.5,14s0.256-0.049,0.354-0.146c0.195-0.195,0.195-0.512,0-0.707L19.854,10.146z M12.5,15H12v1.5
		c0,0.276-0.224,0.5-0.5,0.5S11,16.776,11,16.5V15h-0.5c-0.276,0-0.5-0.224-0.5-0.5s0.224-0.5,0.5-0.5H11v-0.5
		c0-0.276,0.224-0.5,0.5-0.5s0.5,0.224,0.5,0.5V14h0.5c0.276,0,0.5,0.224,0.5,0.5S12.776,15,12.5,15z"/>
</g>
<g id="Full_Moon">
</g>
<g id="Crescent">
</g>
<g id="Crow">
</g>
<g id="Candy_Holder">
</g>
<g id="Bloody_Knife">
</g>
<g id="Bloody_Axe">
</g>
</svg>
