<?xml version="1.0" encoding="iso-8859-1"?>
<!-- Generator: Adobe Illustrator 19.2.1, SVG Export Plug-In . SVG Version: 6.00 Build 0)  -->
<svg version="1.1" xmlns="http://www.w3.org/2000/svg" xmlns:xlink="http://www.w3.org/1999/xlink" x="0px" y="0px"
	 viewBox="0 0 24 24" style="enable-background:new 0 0 24 24;" xml:space="preserve">
<g id="Pompkin">
</g>
<g id="Layer_10">
</g>
<g id="Bat">
</g>
<g id="Ghost">
</g>
<g id="Bone_Hand">
</g>
<g id="Tree_Ghost">
</g>
<g id="Gate">
</g>
<g id="Cemetery_1">
</g>
<g id="Cemetery_2">
</g>
<g id="Devil_x27_s_Fork">
</g>
<g id="Night_Candle">
</g>
<g id="Canlestick">
</g>
<g id="Black_Cat">
</g>
<g id="Witch_Cauldron">
	<g>
		<path d="M18,21h-0.5v-0.025c1.91-1.622,3-3.968,3-6.475c0-1.762-0.532-3.429-1.537-4.86C19.289,9.365,19.5,8.959,19.5,8.5
			C19.5,7.673,18.827,7,18,7H6C5.173,7,4.5,7.673,4.5,8.5c0,0.459,0.211,0.865,0.537,1.14C4.032,11.071,3.5,12.738,3.5,14.5
			c0,2.507,1.09,4.854,3,6.475L6,21c-0.827,0-1.5,0.673-1.5,1.5S5.173,24,6,24h2c0.189,0,0.362-0.107,0.447-0.276l0.623-1.245
			c1.879,0.692,3.981,0.692,5.86,0l0.623,1.245C15.638,23.893,15.811,24,16,24h2c0.827,0,1.5-0.673,1.5-1.5S18.827,21,18,21z
			 M6.753,17.457c-0.067,0.031-0.138,0.045-0.208,0.045c-0.189,0-0.371-0.108-0.455-0.292C5.699,16.357,5.5,15.445,5.5,14.5
			C5.5,14.224,5.724,14,6,14s0.5,0.224,0.5,0.5c0,0.8,0.168,1.572,0.5,2.294C7.115,17.045,7.004,17.342,6.753,17.457z"/>
		<circle cx="13.5" cy="5" r="1"/>
		<circle cx="10" cy="4.5" r="1.5"/>
		<circle cx="13" cy="1.5" r="1.5"/>
	</g>
</g>
<g id="Corn_Candy">
</g>
<g id="Layer_29">
</g>
<g id="Bones">
</g>
<g id="Witch_Broom">
</g>
<g id="Owl">
</g>
<g id="Scythe">
</g>
<g id="Grim_Reaper">
</g>
<g id="Coffin">
</g>
<g id="Dracula">
</g>
<g id="Frankenstein">
</g>
<g id="Layer_40">
</g>
<g id="Toilet_Paper">
</g>
<g id="Skull">
</g>
<g id="Skull_Cake">
</g>
<g id="Eyeball">
</g>
<g id="Castle">
</g>
<g id="Witch_x27_s_Hat">
</g>
<g id="Cobweb_1">
</g>
<g id="Cobweb_2">
</g>
<g id="Spider">
</g>
<g id="Full_Moon">
</g>
<g id="Crescent">
</g>
<g id="Crow">
</g>
<g id="Candy_Holder">
</g>
<g id="Bloody_Knife">
</g>
<g id="Bloody_Axe">
</g>
</svg>
