<?xml version="1.0" encoding="iso-8859-1"?>
<!-- Generator: Adobe Illustrator 19.2.1, SVG Export Plug-In . SVG Version: 6.00 Build 0)  -->
<svg version="1.1" xmlns="http://www.w3.org/2000/svg" xmlns:xlink="http://www.w3.org/1999/xlink" x="0px" y="0px"
	 viewBox="0 0 30 30" style="enable-background:new 0 0 30 30;" xml:space="preserve">
<g id="Sun_Light">
</g>
<g id="Sunglasses">
</g>
<g id="T-Shirt_1">
</g>
<g id="T-Shirt_2">
</g>
<g id="Mini_Dress">
</g>
<g id="Flip-Flops">
</g>
<g id="Temperature">
</g>
<g id="Hot_Temperature">
</g>
<g id="Ice_Lolly">
</g>
<g id="Icecream">
</g>
<g id="Limonade_1">
</g>
<g id="Limonade_2">
</g>
<g id="Hat">
</g>
<g id="Straw_Hat">
</g>
<g id="Deckchair">
</g>
<g id="Sunshade">
</g>
<g id="Suncream">
</g>
<g id="Suntan_Oil">
</g>
<g id="Swimming_Trunks">
</g>
<g id="Bikini">
</g>
<g id="Pool">
</g>
<g id="Pool_Ladder">
</g>
<g id="Grill">
</g>
<g id="Kite_1">
</g>
<g id="Kite_2">
</g>
<g id="Badminton">
	<g id="XMLID_198_">
		<g id="XMLID_199_">
			<path d="M21.872,14.87c-4.095,0-6.741-2.646-6.741-6.741C15.131,3.626,20.336,0,24.646,0C27.598,0,30,2.402,30,5.354
				C30,9.755,26.449,14.87,21.872,14.87z M24.646,1c-3.833,0-8.515,3.29-8.515,7.128c0,3.542,2.2,5.741,5.741,5.741
				C25.887,13.87,29,9.292,29,5.354C29,2.954,27.047,1,24.646,1z"/>
		</g>
		<g id="XMLID_200_">
			<path d="M6.174,24.326c-0.128,0-0.256-0.049-0.354-0.146c-0.195-0.195-0.195-0.512,0-0.707L16.963,12.33
				c0.195-0.195,0.512-0.195,0.707,0s0.195,0.512,0,0.707L6.527,24.18C6.43,24.277,6.302,24.326,6.174,24.326z"/>
		</g>
		<g id="XMLID_201_">
			<path d="M1.761,30c-0.128,0-0.256-0.049-0.354-0.146l-1.261-1.261c-0.195-0.195-0.195-0.512,0-0.707l4.413-4.413
				c0.522-0.524,1.442-0.525,1.969,0c0.262,0.262,0.407,0.611,0.407,0.983c0,0.373-0.146,0.723-0.408,0.985l-4.413,4.412
				C2.017,29.951,1.889,30,1.761,30z M1.207,28.239l0.554,0.554l4.06-4.06c0.074-0.074,0.115-0.172,0.115-0.277
				c0-0.104-0.041-0.202-0.115-0.275c-0.149-0.151-0.407-0.148-0.553-0.001L1.207,28.239z"/>
		</g>
		<g id="XMLID_202_">
			<path d="M28.851,9.177c-0.128,0-0.256-0.049-0.354-0.146l-7.521-7.522c-0.195-0.195-0.195-0.512,0-0.707s0.512-0.195,0.707,0
				l7.521,7.522c0.195,0.195,0.195,0.512,0,0.707C29.106,9.128,28.979,9.177,28.851,9.177z"/>
		</g>
		<g id="XMLID_203_">
			<path d="M26.961,12.331c-0.128,0-0.256-0.049-0.354-0.146l-8.743-8.743c-0.195-0.195-0.195-0.512,0-0.707s0.512-0.195,0.707,0
				l8.743,8.743c0.195,0.195,0.195,0.512,0,0.707C27.217,12.282,27.089,12.331,26.961,12.331z"/>
		</g>
		<g id="XMLID_204_">
			<path d="M24.044,14.457c-0.128,0-0.256-0.049-0.354-0.146L15.729,6.35c-0.195-0.195-0.195-0.512,0-0.707s0.512-0.195,0.707,0
				l7.961,7.961c0.195,0.195,0.195,0.512,0,0.707C24.3,14.408,24.172,14.457,24.044,14.457z"/>
		</g>
		<g id="XMLID_205_">
			<path d="M18.782,14.239c-0.128,0-0.256-0.049-0.354-0.146c-0.195-0.195-0.195-0.512,0-0.707L28.75,3.064
				c0.195-0.195,0.512-0.195,0.707,0s0.195,0.512,0,0.707L19.136,14.093C19.038,14.19,18.91,14.239,18.782,14.239z"/>
		</g>
		<g id="XMLID_206_">
			<path d="M16.261,11.717c-0.128,0-0.256-0.049-0.354-0.146c-0.195-0.195-0.195-0.512,0-0.707L26.25,0.521
				c0.195-0.195,0.512-0.195,0.707,0s0.195,0.512,0,0.707L16.614,11.571C16.517,11.668,16.389,11.717,16.261,11.717z"/>
		</g>
	</g>
</g>
<g id="Cooler">
</g>
<g id="Strand_Bag">
</g>
<g id="Towel">
</g>
<g id="Strand_Ball">
</g>
<g id="Beach_Sign">
</g>
<g id="Toos">
</g>
<g id="Bucket">
</g>
<g id="Sand_Castle">
</g>
<g id="Shell_1">
</g>
<g id="Shell_2">
</g>
<g id="Surf_Board">
</g>
<g id="Float">
</g>
<g id="Vacation_Photo">
</g>
<g id="Summer_Time">
</g>
<g id="Boat">
</g>
<g id="Lifebuoy">
</g>
<g id="Lighthouse">
</g>
<g id="Sunset">
</g>
<g id="Dolphin">
</g>
<g id="Starfish">
</g>
<g id="Diving_Mask">
</g>
<g id="Sailboat">
</g>
<g id="Captin_Hat">
</g>
<g id="Eudder">
</g>
</svg>
