<?xml version="1.0" encoding="iso-8859-1"?>
<!-- Generator: Adobe Illustrator 19.2.1, SVG Export Plug-In . SVG Version: 6.00 Build 0)  -->
<svg version="1.1" xmlns="http://www.w3.org/2000/svg" xmlns:xlink="http://www.w3.org/1999/xlink" x="0px" y="0px"
	 viewBox="0 0 30 30" style="enable-background:new 0 0 30 30;" xml:space="preserve">
<g id="Sun_Light">
</g>
<g id="Sunglasses">
</g>
<g id="T-Shirt_1">
</g>
<g id="T-Shirt_2">
</g>
<g id="Mini_Dress">
</g>
<g id="Flip-Flops">
</g>
<g id="Temperature">
</g>
<g id="Hot_Temperature">
</g>
<g id="Ice_Lolly">
</g>
<g id="Icecream">
</g>
<g id="Limonade_1">
</g>
<g id="Limonade_2">
</g>
<g id="Hat">
</g>
<g id="Straw_Hat">
</g>
<g id="Deckchair">
</g>
<g id="Sunshade">
</g>
<g id="Suncream">
</g>
<g id="Suntan_Oil">
</g>
<g id="Swimming_Trunks">
</g>
<g id="Bikini">
</g>
<g id="Pool">
</g>
<g id="Pool_Ladder">
</g>
<g id="Grill">
</g>
<g id="Kite_1">
</g>
<g id="Kite_2">
</g>
<g id="Badminton">
</g>
<g id="Cooler">
</g>
<g id="Strand_Bag">
</g>
<g id="Towel">
</g>
<g id="Strand_Ball">
</g>
<g id="Beach_Sign">
</g>
<g id="Toos">
</g>
<g id="Bucket">
</g>
<g id="Sand_Castle">
</g>
<g id="Shell_1">
</g>
<g id="Shell_2">
</g>
<g id="Surf_Board">
</g>
<g id="Float">
</g>
<g id="Vacation_Photo">
</g>
<g id="Summer_Time">
</g>
<g id="Boat">
</g>
<g id="Lifebuoy">
</g>
<g id="Lighthouse">
</g>
<g id="Sunset">
</g>
<g id="Dolphin">
</g>
<g id="Starfish">
</g>
<g id="Diving_Mask">
	<g id="XMLID_422_">
		<g id="XMLID_440_">
			<path d="M22.565,16.869h-1.704c-1.071,0-2.071-0.574-2.61-1.499l-2.594-4.429c-0.275-0.475-1.039-0.474-1.314-0.001l-2.595,4.431
				c-0.538,0.924-1.538,1.498-2.609,1.498H7.435C3.335,16.869,0,13.534,0,9.435S3.335,2,7.435,2h15.131C26.665,2,30,5.335,30,9.435
				S26.665,16.869,22.565,16.869z M15,9.563c0.633,0,1.202,0.326,1.521,0.873l2.595,4.429c0.36,0.62,1.029,1.004,1.746,1.004h1.704
				c3.548,0,6.435-2.887,6.435-6.435S26.113,3,22.565,3H7.435C3.887,3,1,5.887,1,9.435s2.887,6.435,6.435,6.435h1.704
				c0.717,0,1.386-0.384,1.745-1.002l2.596-4.432C13.798,9.89,14.367,9.563,15,9.563z"/>
		</g>
		<g id="XMLID_439_">
			<path d="M3.021,9.935c-0.276,0-0.5-0.224-0.5-0.5c0-2.709,2.204-4.913,4.913-4.913h1.892c0.276,0,0.5,0.224,0.5,0.5
				s-0.224,0.5-0.5,0.5H7.435c-2.157,0-3.913,1.756-3.913,3.913C3.521,9.711,3.298,9.935,3.021,9.935z"/>
		</g>
		<g id="XMLID_438_">
			<path d="M22.565,16.869h-1.704c-1.071,0-2.071-0.574-2.61-1.499l-2.594-4.429c-0.14-0.238-0.06-0.545,0.179-0.685
				c0.239-0.137,0.545-0.06,0.685,0.179l2.595,4.43c0.36,0.62,1.029,1.004,1.746,1.004h1.704c3.548,0,6.435-2.887,6.435-6.435
				S26.113,3,22.565,3H7.435C3.887,3,1,5.887,1,9.435s2.887,6.435,6.435,6.435h1.704c0.717,0,1.386-0.384,1.745-1.002
				c0.14-0.24,0.445-0.319,0.684-0.182c0.239,0.14,0.32,0.445,0.182,0.685c-0.539,0.925-1.539,1.499-2.61,1.499H7.435
				C3.335,16.869,0,13.534,0,9.435S3.335,2,7.435,2h15.131C26.665,2,30,5.335,30,9.435S26.665,16.869,22.565,16.869z"/>
		</g>
		<g id="XMLID_430_">
			<path d="M18.684,15.608c-0.195,0-0.382-0.116-0.462-0.308l0,0c-0.001,0-0.533-0.953-3.222-0.953
				c-2.717,0-3.222,0.952-3.227,0.962c-0.119,0.239-0.41,0.354-0.655,0.245c-0.244-0.108-0.365-0.38-0.268-0.629
				c0.063-0.161,0.718-1.578,4.149-1.578c3.395,0,4.078,1.408,4.146,1.568c0.105,0.255-0.015,0.548-0.27,0.654
				C18.813,15.596,18.748,15.608,18.684,15.608z"/>
		</g>
		<g id="XMLID_429_">
			<path d="M20.323,26.985c-0.174,0-0.344-0.034-0.509-0.106c-1.393-0.609-1.061-3.354-0.012-5.751
				c0.533-1.22,1.222-2.294,1.938-3.023c0.832-0.846,1.645-1.152,2.293-0.871c1.393,0.61,1.06,3.354,0.012,5.751l0,0
				C23.121,25.097,21.62,26.985,20.323,26.985z M23.529,18.13c-0.22,0-0.604,0.197-1.075,0.676
				c-0.633,0.645-1.249,1.611-1.735,2.723c-1.105,2.528-0.913,4.256-0.504,4.435c0.415,0.174,1.809-0.852,2.915-3.379
				c1.105-2.527,0.912-4.255,0.503-4.435C23.604,18.137,23.569,18.13,23.529,18.13z M23.588,22.784h0.01H23.588z"/>
		</g>
		<g id="XMLID_428_">
			<path d="M20.07,26.956c-0.076,0-0.153-0.018-0.227-0.054l-2.556-1.296c-1.367-0.598-1.034-3.343,0.015-5.739
				c0.533-1.22,1.222-2.294,1.938-3.023c0.831-0.846,1.646-1.152,2.293-0.871l2.581,1.308c0.247,0.125,0.346,0.426,0.221,0.672
				c-0.126,0.248-0.427,0.344-0.672,0.221l-2.557-1.296c-0.165-0.073-0.598,0.101-1.153,0.668c-0.633,0.645-1.249,1.611-1.735,2.723
				c-1.106,2.527-0.913,4.255-0.504,4.435l2.582,1.308c0.246,0.125,0.345,0.426,0.22,0.673
				C20.428,26.856,20.252,26.956,20.07,26.956z"/>
		</g>
		<g id="XMLID_427_">
			<path d="M9.677,27.021c-1.298,0-2.799-1.889-3.723-4.002l0,0C5.42,21.799,5.1,20.564,5.05,19.543
				c-0.057-1.184,0.269-1.991,0.917-2.274c0.225-0.1,0.6-0.178,1.099,0.018c1.054,0.412,2.283,1.934,3.132,3.877
				c1.049,2.396,1.382,5.142-0.012,5.751C10.021,26.986,9.851,27.021,9.677,27.021z M6.47,18.166c-0.036,0-0.071,0.005-0.102,0.019
				c-0.187,0.081-0.357,0.518-0.319,1.311c0.043,0.902,0.335,2.012,0.821,3.123l0,0c1.105,2.526,2.506,3.56,2.915,3.38
				c0.409-0.179,0.603-1.907-0.504-4.435c-0.847-1.937-1.931-3.092-2.58-3.346C6.634,18.191,6.548,18.166,6.47,18.166z"/>
		</g>
		<g id="XMLID_426_">
			<path d="M9.985,26.956c-0.182,0-0.357-0.1-0.446-0.274c-0.125-0.246-0.026-0.547,0.221-0.672l2.557-1.296
				c0.435-0.191,0.628-1.919-0.479-4.446c-0.486-1.111-1.103-2.078-1.736-2.723c-0.555-0.565-0.99-0.74-1.179-0.656l-2.529,1.284
				c-0.248,0.124-0.547,0.027-0.673-0.22c-0.125-0.247-0.026-0.548,0.22-0.673l2.556-1.296c0.675-0.295,1.488,0.015,2.319,0.859
				c0.716,0.729,1.404,1.803,1.938,3.023c1.049,2.396,1.382,5.142-0.012,5.751l-2.531,1.284
				C10.139,26.938,10.062,26.956,9.985,26.956z"/>
		</g>
		<g id="XMLID_425_">
			<path d="M15,25.695c-1.184,0-2.209-0.687-2.253-0.716c-0.228-0.155-0.287-0.465-0.133-0.693c0.154-0.228,0.467-0.288,0.693-0.135
				c0.009,0.005,0.821,0.544,1.692,0.544c0.956,0,1.731-0.532,1.738-0.537c0.224-0.159,0.537-0.107,0.697,0.117
				c0.16,0.226,0.107,0.537-0.117,0.697C17.276,25.002,16.287,25.695,15,25.695z"/>
		</g>
		<g id="XMLID_424_">
			<path d="M25.163,21.913h-1.07c-0.276,0-0.5-0.224-0.5-0.5s0.224-0.5,0.5-0.5h1.07c0.608,0,1.179-0.27,1.563-0.74
				c0.386-0.47,0.538-1.082,0.419-1.678l-0.715-3.565c-0.055-0.271,0.121-0.534,0.392-0.589c0.267-0.057,0.534,0.121,0.589,0.392
				l0.715,3.565c0.179,0.892-0.05,1.806-0.626,2.509S26.072,21.913,25.163,21.913z"/>
		</g>
		<g id="XMLID_423_">
			<path d="M5.897,21.913H4.914c-0.909,0-1.761-0.403-2.337-1.106s-0.805-1.617-0.626-2.509l0.703-3.513
				c0.055-0.272,0.331-0.449,0.588-0.393c0.271,0.054,0.447,0.317,0.393,0.588l-0.703,3.514c-0.119,0.597,0.033,1.209,0.419,1.679
				c0.385,0.471,0.955,0.74,1.563,0.74h0.983c0.276,0,0.5,0.224,0.5,0.5S6.174,21.913,5.897,21.913z"/>
		</g>
	</g>
</g>
<g id="Sailboat">
</g>
<g id="Captin_Hat">
</g>
<g id="Eudder">
</g>
</svg>
