<?xml version="1.0" encoding="iso-8859-1"?>
<!-- Generator: Adobe Illustrator 19.2.1, SVG Export Plug-In . SVG Version: 6.00 Build 0)  -->
<svg version="1.1" xmlns="http://www.w3.org/2000/svg" xmlns:xlink="http://www.w3.org/1999/xlink" x="0px" y="0px"
	 viewBox="0 0 30 30" style="enable-background:new 0 0 30 30;" xml:space="preserve">
<g id="Sun_Light">
</g>
<g id="Sunglasses">
</g>
<g id="T-Shirt_1">
</g>
<g id="T-Shirt_2">
</g>
<g id="Mini_Dress">
</g>
<g id="Flip-Flops">
</g>
<g id="Temperature">
</g>
<g id="Hot_Temperature">
</g>
<g id="Ice_Lolly">
</g>
<g id="Icecream">
</g>
<g id="Limonade_1">
</g>
<g id="Limonade_2">
</g>
<g id="Hat">
</g>
<g id="Straw_Hat">
</g>
<g id="Deckchair">
</g>
<g id="Sunshade">
</g>
<g id="Suncream">
</g>
<g id="Suntan_Oil">
</g>
<g id="Swimming_Trunks">
</g>
<g id="Bikini">
</g>
<g id="Pool">
</g>
<g id="Pool_Ladder">
</g>
<g id="Grill">
</g>
<g id="Kite_1">
</g>
<g id="Kite_2">
</g>
<g id="Badminton">
</g>
<g id="Cooler">
</g>
<g id="Strand_Bag">
</g>
<g id="Towel">
</g>
<g id="Strand_Ball">
</g>
<g id="Beach_Sign">
</g>
<g id="Toos">
</g>
<g id="Bucket">
</g>
<g id="Sand_Castle">
</g>
<g id="Shell_1">
</g>
<g id="Shell_2">
</g>
<g id="Surf_Board">
</g>
<g id="Float">
</g>
<g id="Vacation_Photo">
</g>
<g id="Summer_Time">
</g>
<g id="Boat">
</g>
<g id="Lifebuoy">
</g>
<g id="Lighthouse">
</g>
<g id="Sunset">
</g>
<g id="Dolphin">
</g>
<g id="Starfish">
</g>
<g id="Diving_Mask">
</g>
<g id="Sailboat">
</g>
<g id="Captin_Hat">
</g>
<g id="Eudder">
	<g id="XMLID_387_">
		<g id="XMLID_415_">
			<path d="M14.5,17.546c-1.68,0-3.046-1.366-3.046-3.046s1.366-3.046,3.046-3.046s3.046,1.366,3.046,3.046
				S16.18,17.546,14.5,17.546z M14.5,12.454c-1.128,0-2.046,0.918-2.046,2.046s0.918,2.046,2.046,2.046s2.046-0.918,2.046-2.046
				S15.628,12.454,14.5,12.454z"/>
		</g>
		<g id="XMLID_404_">
			<path d="M14.5,23.909c-5.188,0-9.409-4.221-9.409-9.409S9.312,5.091,14.5,5.091s9.409,4.221,9.409,9.409
				S19.688,23.909,14.5,23.909z M14.5,6.091c-4.637,0-8.409,3.772-8.409,8.409s3.772,8.409,8.409,8.409s8.409-3.772,8.409-8.409
				S19.137,6.091,14.5,6.091z"/>
		</g>
		<g id="XMLID_403_">
			<path d="M14.5,12.454c-0.276,0-0.5-0.224-0.5-0.5V3.046c0-0.276,0.224-0.5,0.5-0.5S15,2.77,15,3.046v8.908
				C15,12.23,14.776,12.454,14.5,12.454z"/>
		</g>
		<g id="XMLID_402_">
			<path d="M14.5,26.454c-0.276,0-0.5-0.224-0.5-0.5v-8.908c0-0.276,0.224-0.5,0.5-0.5s0.5,0.224,0.5,0.5v8.908
				C15,26.23,14.776,26.454,14.5,26.454z"/>
		</g>
		<g id="XMLID_401_">
			<path d="M11.954,15H3.046c-0.276,0-0.5-0.224-0.5-0.5S2.77,14,3.046,14h8.908c0.276,0,0.5,0.224,0.5,0.5S12.23,15,11.954,15z"/>
		</g>
		<g id="XMLID_400_">
			<path d="M25.954,15h-8.908c-0.276,0-0.5-0.224-0.5-0.5s0.224-0.5,0.5-0.5h8.908c0.276,0,0.5,0.224,0.5,0.5S26.23,15,25.954,15z"
				/>
		</g>
		<g id="XMLID_399_">
			<path d="M14.5,3.546c-0.627,0-1.137-0.51-1.137-1.137V1.137C13.363,0.51,13.873,0,14.5,0s1.137,0.51,1.137,1.137v1.272
				C15.637,3.036,15.127,3.546,14.5,3.546z M14.5,1c-0.075,0-0.137,0.062-0.137,0.137v1.272c0,0.15,0.273,0.15,0.273,0V1.137
				C14.637,1.062,14.575,1,14.5,1z"/>
		</g>
		<g id="XMLID_398_">
			<path d="M14.5,29c-0.627,0-1.137-0.51-1.137-1.137v-1.272c0-0.627,0.51-1.137,1.137-1.137s1.137,0.51,1.137,1.137v1.272
				C15.637,28.49,15.127,29,14.5,29z M14.5,26.454c-0.075,0-0.137,0.062-0.137,0.137v1.272c0,0.15,0.273,0.15,0.273,0v-1.272
				C14.637,26.516,14.575,26.454,14.5,26.454z"/>
		</g>
		<g id="XMLID_397_">
			<path d="M27.863,15.637h-1.272c-0.627,0-1.137-0.51-1.137-1.137s0.51-1.137,1.137-1.137h1.272c0.627,0,1.137,0.51,1.137,1.137
				S28.49,15.637,27.863,15.637z M26.591,14.363c-0.075,0-0.137,0.062-0.137,0.137s0.062,0.137,0.137,0.137h1.272
				c0.075,0,0.137-0.062,0.137-0.137s-0.062-0.137-0.137-0.137H26.591z"/>
		</g>
		<g id="XMLID_396_">
			<path d="M2.409,15.637H1.137C0.51,15.637,0,15.127,0,14.5s0.51-1.137,1.137-1.137h1.272c0.627,0,1.137,0.51,1.137,1.137
				S3.036,15.637,2.409,15.637z M1.137,14.363C1.062,14.363,1,14.425,1,14.5s0.062,0.137,0.137,0.137h1.272
				c0.075,0,0.137-0.062,0.137-0.137s-0.062-0.137-0.137-0.137H1.137z"/>
		</g>
		<g id="XMLID_395_">
			<path d="M12.7,13.2c-0.128,0-0.256-0.049-0.354-0.146l-6.3-6.3c-0.195-0.195-0.195-0.512,0-0.707s0.512-0.195,0.707,0l6.3,6.3
				c0.195,0.195,0.195,0.512,0,0.707C12.956,13.151,12.828,13.2,12.7,13.2z"/>
		</g>
		<g id="XMLID_394_">
			<path d="M22.6,23.1c-0.128,0-0.256-0.049-0.354-0.146l-6.3-6.3c-0.195-0.195-0.195-0.512,0-0.707s0.512-0.195,0.707,0l6.3,6.3
				c0.195,0.195,0.195,0.512,0,0.707C22.855,23.051,22.728,23.1,22.6,23.1z"/>
		</g>
		<g id="XMLID_393_">
			<path d="M6.4,23.1c-0.128,0-0.256-0.049-0.354-0.146c-0.195-0.195-0.195-0.512,0-0.707l6.3-6.3c0.195-0.195,0.512-0.195,0.707,0
				s0.195,0.512,0,0.707l-6.3,6.3C6.656,23.051,6.528,23.1,6.4,23.1z"/>
		</g>
		<g id="XMLID_392_">
			<path d="M16.3,13.2c-0.128,0-0.256-0.049-0.354-0.146c-0.195-0.195-0.195-0.512,0-0.707l6.3-6.3c0.195-0.195,0.512-0.195,0.707,0
				s0.195,0.512,0,0.707l-6.3,6.3C16.556,13.151,16.428,13.2,16.3,13.2z"/>
		</g>
		<g id="XMLID_391_">
			<path d="M5.95,7.086c-0.29,0-0.581-0.11-0.803-0.331l-0.9-0.901C4.032,5.64,3.914,5.354,3.914,5.05
				c0-0.303,0.118-0.588,0.333-0.803c0.432-0.431,1.18-0.43,1.607,0.001l0.899,0.898c0.442,0.444,0.442,1.165,0,1.607
				C6.532,6.976,6.241,7.086,5.95,7.086z M5.05,4.914c-0.025,0-0.063,0.007-0.095,0.039C4.954,4.954,4.954,4.954,4.953,4.955
				C4.921,4.987,4.914,5.024,4.914,5.05c0,0.026,0.007,0.063,0.039,0.096l0.9,0.901c0.053,0.053,0.141,0.053,0.193,0
				C6.1,5.993,6.1,5.906,6.046,5.853L5.146,4.954C5.113,4.921,5.076,4.914,5.05,4.914z M4.601,4.601h0.01H4.601z"/>
		</g>
		<g id="XMLID_390_">
			<path d="M23.95,25.086c-0.305,0-0.59-0.118-0.805-0.334l-0.899-0.898c-0.443-0.443-0.443-1.164,0-1.607s1.164-0.443,1.607,0
				l0.899,0.9c0.215,0.214,0.333,0.499,0.333,0.804c0,0.304-0.118,0.589-0.334,0.804C24.539,24.968,24.254,25.086,23.95,25.086z
				 M23.05,22.913c-0.035,0-0.07,0.014-0.097,0.04c-0.054,0.054-0.054,0.14,0,0.193l0.9,0.899c0.064,0.065,0.126,0.066,0.191,0.001
				c0.034-0.034,0.041-0.071,0.041-0.097c0-0.026-0.007-0.063-0.039-0.096l-0.9-0.901C23.12,22.927,23.085,22.913,23.05,22.913z"/>
		</g>
		<g id="XMLID_389_">
			<path d="M23.049,7.086c-0.291,0-0.582-0.11-0.803-0.332c-0.442-0.442-0.442-1.163-0.001-1.606l0.901-0.9
				c0.427-0.429,1.175-0.431,1.606,0c0.215,0.215,0.333,0.5,0.333,0.803c0,0.305-0.118,0.59-0.334,0.805l-0.898,0.899
				C23.632,6.976,23.34,7.086,23.049,7.086z M23.95,4.914c-0.026,0-0.063,0.007-0.096,0.039l-0.901,0.9
				c-0.053,0.053-0.053,0.14,0,0.193c0.053,0.053,0.14,0.054,0.194-0.001l0.898-0.899c0.033-0.033,0.04-0.07,0.04-0.097
				c0-0.025-0.007-0.063-0.039-0.095c-0.001-0.001-0.001-0.001-0.002-0.002C24.013,4.921,23.976,4.914,23.95,4.914z"/>
		</g>
		<g id="XMLID_388_">
			<path d="M5.05,25.086c-0.304,0-0.589-0.118-0.804-0.334c-0.214-0.213-0.332-0.498-0.332-0.802c0-0.305,0.118-0.59,0.334-0.805
				l0.898-0.899c0.443-0.443,1.164-0.443,1.607,0s0.443,1.164,0,1.607l-0.9,0.899C5.64,24.968,5.354,25.086,5.05,25.086z
				 M5.95,22.913c-0.035,0-0.07,0.014-0.097,0.04l-0.899,0.9c-0.033,0.033-0.04,0.07-0.04,0.097c0,0.025,0.007,0.063,0.039,0.095
				c0.069,0.069,0.128,0.065,0.192,0.002l0.901-0.9c0.054-0.054,0.054-0.14,0-0.193C6.021,22.927,5.985,22.913,5.95,22.913z"/>
		</g>
	</g>
</g>
</svg>
