<?xml version="1.0" encoding="iso-8859-1"?>
<!-- Generator: Adobe Illustrator 19.2.1, SVG Export Plug-In . SVG Version: 6.00 Build 0)  -->
<svg version="1.1" xmlns="http://www.w3.org/2000/svg" xmlns:xlink="http://www.w3.org/1999/xlink" x="0px" y="0px"
	 viewBox="0 0 30 30" style="enable-background:new 0 0 30 30;" xml:space="preserve">
<g id="Sun_Light">
</g>
<g id="Sunglasses">
</g>
<g id="T-Shirt_1">
</g>
<g id="T-Shirt_2">
</g>
<g id="Mini_Dress">
</g>
<g id="Flip-Flops">
</g>
<g id="Temperature">
</g>
<g id="Hot_Temperature">
</g>
<g id="Ice_Lolly">
</g>
<g id="Icecream">
</g>
<g id="Limonade_1">
</g>
<g id="Limonade_2">
</g>
<g id="Hat">
	<g>
		<g>
			<path d="M13.793,16.563c-1.057,0-2.033-0.069-2.83-0.204c-1.416-0.24-2.09-0.645-2.122-1.274l-0.014-0.61
				c-0.173-3.386,2.445-6.294,5.836-6.468c3.398-0.175,6.31,2.453,6.484,5.853l0.032,0.593c0.085,1.677-5.049,2.023-6.08,2.076
				C14.655,16.552,14.218,16.563,13.793,16.563z M9.838,14.972c0.313,0.28,2.112,0.721,5.21,0.559
				c3.201-0.163,4.959-0.818,5.15-1.117l-0.05-0.499c0-0.001,0-0.001,0-0.002c-0.145-2.851-2.577-5.061-5.435-4.907
				c-2.84,0.145-5.033,2.582-4.887,5.432L9.838,14.972z"/>
		</g>
		<g>
			<path d="M11.771,21.996c-6.046,0-11.563-1.195-11.77-3.806c-0.191-2.479,4.628-4.332,9.201-5.24
				c0.032-0.006,0.135-0.02,0.167-0.02c0.276,0,0.525,0.224,0.525,0.5s-0.199,0.5-0.475,0.5H9.37
				c-5.612,1.12-8.466,2.951-8.372,4.181c0.144,1.805,6.048,3.376,14.293,2.75c8.249-0.638,13.846-3.091,13.709-4.894
				c-0.094-1.188-3.05-2.542-8.518-2.828c-0.271-0.014-0.516-0.242-0.508-0.513c0.007-0.271,0.194-0.487,0.465-0.487
				c5.859,0.302,9.396,1.704,9.559,3.75c0.236,3.124-7.361,5.405-14.63,5.968C14.174,21.949,12.962,21.996,11.771,21.996z"/>
		</g>
	</g>
</g>
<g id="Straw_Hat">
</g>
<g id="Deckchair">
</g>
<g id="Sunshade">
</g>
<g id="Suncream">
</g>
<g id="Suntan_Oil">
</g>
<g id="Swimming_Trunks">
</g>
<g id="Bikini">
</g>
<g id="Pool">
</g>
<g id="Pool_Ladder">
</g>
<g id="Grill">
</g>
<g id="Kite_1">
</g>
<g id="Kite_2">
</g>
<g id="Badminton">
</g>
<g id="Cooler">
</g>
<g id="Strand_Bag">
</g>
<g id="Towel">
</g>
<g id="Strand_Ball">
</g>
<g id="Beach_Sign">
</g>
<g id="Toos">
</g>
<g id="Bucket">
</g>
<g id="Sand_Castle">
</g>
<g id="Shell_1">
</g>
<g id="Shell_2">
</g>
<g id="Surf_Board">
</g>
<g id="Float">
</g>
<g id="Vacation_Photo">
</g>
<g id="Summer_Time">
</g>
<g id="Boat">
</g>
<g id="Lifebuoy">
</g>
<g id="Lighthouse">
</g>
<g id="Sunset">
</g>
<g id="Dolphin">
</g>
<g id="Starfish">
</g>
<g id="Diving_Mask">
</g>
<g id="Sailboat">
</g>
<g id="Captin_Hat">
</g>
<g id="Eudder">
</g>
</svg>
