<?xml version="1.0" encoding="iso-8859-1"?>
<!-- Generator: Adobe Illustrator 19.2.1, SVG Export Plug-In . SVG Version: 6.00 Build 0)  -->
<svg version="1.1" xmlns="http://www.w3.org/2000/svg" xmlns:xlink="http://www.w3.org/1999/xlink" x="0px" y="0px"
	 viewBox="0 0 30 30" style="enable-background:new 0 0 30 30;" xml:space="preserve">
<g id="Sun_Light">
</g>
<g id="Sunglasses">
</g>
<g id="T-Shirt_1">
</g>
<g id="T-Shirt_2">
</g>
<g id="Mini_Dress">
</g>
<g id="Flip-Flops">
</g>
<g id="Temperature">
</g>
<g id="Hot_Temperature">
</g>
<g id="Ice_Lolly">
</g>
<g id="Icecream">
</g>
<g id="Limonade_1">
</g>
<g id="Limonade_2">
</g>
<g id="Hat">
</g>
<g id="Straw_Hat">
</g>
<g id="Deckchair">
</g>
<g id="Sunshade">
</g>
<g id="Suncream">
</g>
<g id="Suntan_Oil">
</g>
<g id="Swimming_Trunks">
</g>
<g id="Bikini">
</g>
<g id="Pool">
</g>
<g id="Pool_Ladder">
</g>
<g id="Grill">
</g>
<g id="Kite_1">
</g>
<g id="Kite_2">
</g>
<g id="Badminton">
</g>
<g id="Cooler">
</g>
<g id="Strand_Bag">
</g>
<g id="Towel">
</g>
<g id="Strand_Ball">
</g>
<g id="Beach_Sign">
</g>
<g id="Toos">
</g>
<g id="Bucket">
</g>
<g id="Sand_Castle">
</g>
<g id="Shell_1">
</g>
<g id="Shell_2">
</g>
<g id="Surf_Board">
</g>
<g id="Float">
</g>
<g id="Vacation_Photo">
</g>
<g id="Summer_Time">
</g>
<g id="Boat">
</g>
<g id="Lifebuoy">
</g>
<g id="Lighthouse">
	<g>
		<g id="XMLID_325_">
			<path d="M20,30H10c-0.138,0-0.271-0.058-0.365-0.158c-0.095-0.101-0.143-0.236-0.134-0.375l1.25-19
				C10.769,10.204,10.987,10,11.25,10h7.5c0.263,0,0.481,0.204,0.499,0.467l1.25,19c0.009,0.139-0.04,0.274-0.134,0.375
				C20.271,29.942,20.138,30,20,30z M10.534,29h8.932l-1.184-18h-6.563L10.534,29z"/>
		</g>
		<g id="XMLID_326_">
			<path d="M17.5,9h-5C12.224,9,12,8.776,12,8.5v-3C12,5.224,12.224,5,12.5,5h5C17.776,5,18,5.224,18,5.5v3
				C18,8.776,17.776,9,17.5,9z M13,8h4V6h-4V8z"/>
		</g>
		<g id="XMLID_327_">
			<path d="M18.5,11h-7c-0.276,0-0.5-0.224-0.5-0.5v-2C11,8.224,11.224,8,11.5,8h7C18.776,8,19,8.224,19,8.5v2
				C19,10.776,18.776,11,18.5,11z M12,10h6V9h-6V10z"/>
		</g>
		<g id="XMLID_328_">
			<path d="M13.5,11c-0.276,0-0.5-0.224-0.5-0.5v-2C13,8.224,13.224,8,13.5,8S14,8.224,14,8.5v2C14,10.776,13.776,11,13.5,11z"/>
		</g>
		<g id="XMLID_329_">
			<path d="M16.5,11c-0.276,0-0.5-0.224-0.5-0.5v-2C16,8.224,16.224,8,16.5,8S17,8.224,17,8.5v2C17,10.776,16.776,11,16.5,11z"/>
		</g>
		<g id="XMLID_330_">
			<path d="M19,6h-8c-0.215,0-0.406-0.138-0.474-0.342C10.458,5.454,10.528,5.229,10.7,5.1l4-3c0.178-0.133,0.422-0.133,0.6,0l4,3
				c0.172,0.13,0.243,0.354,0.174,0.559C19.406,5.862,19.215,6,19,6z M12.5,5h5L15,3.125L12.5,5z"/>
		</g>
		<g id="XMLID_331_">
			<path d="M15,3c-0.827,0-1.5-0.673-1.5-1.5S14.173,0,15,0s1.5,0.673,1.5,1.5S15.827,3,15,3z M15,1c-0.276,0-0.5,0.225-0.5,0.5
				S14.724,2,15,2s0.5-0.225,0.5-0.5S15.276,1,15,1z"/>
		</g>
		<g>
			<path d="M19.14,17h-8.28c-0.276,0-0.5-0.224-0.5-0.5s0.224-0.5,0.5-0.5h8.28c0.276,0,0.5,0.224,0.5,0.5S19.417,17,19.14,17z"/>
		</g>
		<g>
			<path d="M19.61,24h-9.22c-0.276,0-0.5-0.224-0.5-0.5s0.224-0.5,0.5-0.5h9.22c0.276,0,0.5,0.224,0.5,0.5S19.886,24,19.61,24z"/>
		</g>
	</g>
</g>
<g id="Sunset">
</g>
<g id="Dolphin">
</g>
<g id="Starfish">
</g>
<g id="Diving_Mask">
</g>
<g id="Sailboat">
</g>
<g id="Captin_Hat">
</g>
<g id="Eudder">
</g>
</svg>
