<?xml version="1.0" encoding="iso-8859-1"?>
<!-- Generator: Adobe Illustrator 19.2.1, SVG Export Plug-In . SVG Version: 6.00 Build 0)  -->
<svg version="1.1" xmlns="http://www.w3.org/2000/svg" xmlns:xlink="http://www.w3.org/1999/xlink" x="0px" y="0px"
	 viewBox="0 0 30 30" style="enable-background:new 0 0 30 30;" xml:space="preserve">
<g id="Sun_Light">
</g>
<g id="Sunglasses">
</g>
<g id="T-Shirt_1">
</g>
<g id="T-Shirt_2">
</g>
<g id="Mini_Dress">
</g>
<g id="Flip-Flops">
</g>
<g id="Temperature">
</g>
<g id="Hot_Temperature">
</g>
<g id="Ice_Lolly">
</g>
<g id="Icecream">
</g>
<g id="Limonade_1">
</g>
<g id="Limonade_2">
</g>
<g id="Hat">
</g>
<g id="Straw_Hat">
</g>
<g id="Deckchair">
</g>
<g id="Sunshade">
</g>
<g id="Suncream">
</g>
<g id="Suntan_Oil">
</g>
<g id="Swimming_Trunks">
</g>
<g id="Bikini">
</g>
<g id="Pool">
	<g>
		<g id="XMLID_160_">
			<path d="M3.465,20.016c-0.068,0-0.137-0.014-0.203-0.043C1.281,19.091,0,17.086,0,14.865c0-1.296,0.443-2.558,1.247-3.553
				c0.174-0.215,0.489-0.249,0.703-0.075c0.215,0.174,0.249,0.488,0.075,0.703C1.364,12.758,1,13.797,1,14.865
				c0,1.827,1.048,3.472,2.669,4.194c0.252,0.112,0.366,0.408,0.254,0.66C3.84,19.905,3.657,20.016,3.465,20.016z"/>
		</g>
		<g id="XMLID_161_">
			<path d="M26.532,20.018c-0.192,0-0.375-0.11-0.457-0.297c-0.113-0.252,0.001-0.548,0.253-0.66C27.951,18.338,29,16.691,29,14.865
				c0-1.068-0.364-2.107-1.025-2.925c-0.173-0.215-0.14-0.529,0.075-0.703s0.529-0.14,0.703,0.075
				C29.557,12.307,30,13.569,30,14.865c0,2.221-1.282,4.227-3.265,5.11C26.669,20.004,26.6,20.018,26.532,20.018z"/>
		</g>
		<g id="XMLID_162_">
			<path d="M15,16.8c-6.852,0-14.133-1.542-14.133-4.4S8.148,8,15,8s14.133,1.542,14.133,4.4S21.852,16.8,15,16.8z M15,9
				C6.863,9,1.867,10.98,1.867,12.4S6.863,15.8,15,15.8s13.133-1.98,13.133-3.4S23.137,9,15,9z"/>
		</g>
		<g id="XMLID_163_">
			<path d="M3.895,15.235c-0.109,0-0.218-0.035-0.31-0.108c-0.216-0.171-0.253-0.486-0.081-0.702C4.683,12.938,9.41,11.9,15,11.9
				c5.641,0,10.253,1.005,11.477,2.501c0.175,0.213,0.143,0.528-0.071,0.704c-0.215,0.174-0.529,0.143-0.704-0.071
				C24.856,14,20.817,12.9,15,12.9c-5.852,0-9.887,1.106-10.712,2.146C4.188,15.17,4.042,15.235,3.895,15.235z"/>
		</g>
		<g id="XMLID_164_">
			<path d="M15,22c-4.833,0-9.338-0.78-11.755-2.036C3,19.837,2.904,19.535,3.031,19.29c0.127-0.245,0.428-0.344,0.674-0.213
				C5.989,20.263,10.317,21,15,21c4.69,0,9.021-0.738,11.301-1.927c0.245-0.126,0.547-0.032,0.674,0.212
				c0.127,0.245,0.033,0.547-0.212,0.675C24.349,21.219,19.841,22,15,22z"/>
		</g>
	</g>
</g>
<g id="Pool_Ladder">
</g>
<g id="Grill">
</g>
<g id="Kite_1">
</g>
<g id="Kite_2">
</g>
<g id="Badminton">
</g>
<g id="Cooler">
</g>
<g id="Strand_Bag">
</g>
<g id="Towel">
</g>
<g id="Strand_Ball">
</g>
<g id="Beach_Sign">
</g>
<g id="Toos">
</g>
<g id="Bucket">
</g>
<g id="Sand_Castle">
</g>
<g id="Shell_1">
</g>
<g id="Shell_2">
</g>
<g id="Surf_Board">
</g>
<g id="Float">
</g>
<g id="Vacation_Photo">
</g>
<g id="Summer_Time">
</g>
<g id="Boat">
</g>
<g id="Lifebuoy">
</g>
<g id="Lighthouse">
</g>
<g id="Sunset">
</g>
<g id="Dolphin">
</g>
<g id="Starfish">
</g>
<g id="Diving_Mask">
</g>
<g id="Sailboat">
</g>
<g id="Captin_Hat">
</g>
<g id="Eudder">
</g>
</svg>
