<?xml version="1.0" encoding="iso-8859-1"?>
<!-- Generator: Adobe Illustrator 19.2.1, SVG Export Plug-In . SVG Version: 6.00 Build 0)  -->
<svg version="1.1" xmlns="http://www.w3.org/2000/svg" xmlns:xlink="http://www.w3.org/1999/xlink" x="0px" y="0px"
	 viewBox="0 0 30 30" style="enable-background:new 0 0 30 30;" xml:space="preserve">
<g id="Sun_Light">
</g>
<g id="Sunglasses">
</g>
<g id="T-Shirt_1">
</g>
<g id="T-Shirt_2">
</g>
<g id="Mini_Dress">
</g>
<g id="Flip-Flops">
</g>
<g id="Temperature">
</g>
<g id="Hot_Temperature">
</g>
<g id="Ice_Lolly">
</g>
<g id="Icecream">
</g>
<g id="Limonade_1">
</g>
<g id="Limonade_2">
</g>
<g id="Hat">
</g>
<g id="Straw_Hat">
</g>
<g id="Deckchair">
</g>
<g id="Sunshade">
</g>
<g id="Suncream">
</g>
<g id="Suntan_Oil">
</g>
<g id="Swimming_Trunks">
</g>
<g id="Bikini">
</g>
<g id="Pool">
</g>
<g id="Pool_Ladder">
</g>
<g id="Grill">
</g>
<g id="Kite_1">
</g>
<g id="Kite_2">
</g>
<g id="Badminton">
</g>
<g id="Cooler">
</g>
<g id="Strand_Bag">
	<g>
		<g id="XMLID_214_">
			<path d="M15,30c-2.696,0-5.238-0.19-7.555-0.566c-2.131-0.344-3.876-1.941-4.447-4.069L0.016,13.623
				c-0.068-0.268,0.094-0.54,0.361-0.607c0.269-0.071,0.54,0.094,0.607,0.361l2.98,11.734c0.468,1.742,1.897,3.054,3.641,3.336
				C9.869,28.813,12.357,29,15,29c2.642,0,5.13-0.187,7.395-0.553c1.743-0.283,3.173-1.595,3.643-3.343l2.979-11.728
				c0.067-0.268,0.338-0.433,0.607-0.361c0.268,0.068,0.43,0.34,0.361,0.607l-2.98,11.734c-0.572,2.134-2.318,3.73-4.449,4.076
				C20.237,29.81,17.695,30,15,30z"/>
		</g>
		<g id="XMLID_215_">
			<path d="M20.5,18.5c-0.276,0-0.5-0.224-0.5-0.5V8.022c0-2.206-1.794-4-4-4s-4,1.794-4,4V18c0,0.276-0.224,0.5-0.5,0.5
				S11,18.276,11,18V8.022c0-2.757,2.243-5,5-5s5,2.243,5,5V18C21,18.276,20.776,18.5,20.5,18.5z"/>
		</g>
		<g>
			<path d="M7.5,12.18c-0.276,0-0.5-0.224-0.5-0.5V5c0-2.757,2.243-5,5-5c1.345,0,2.601,0.521,3.535,1.468
				C16.479,2.399,17,3.655,17,5v6.55c0,0.276-0.224,0.5-0.5,0.5s-0.5-0.224-0.5-0.5V5c0-1.075-0.416-2.078-1.172-2.824
				C14.078,1.416,13.075,1,12,1C9.794,1,8,2.794,8,5v6.68C8,11.957,7.776,12.18,7.5,12.18z"/>
		</g>
		<g id="XMLID_217_">
			<path d="M16.892,16C16.723,16,0,15.971,0,13.5C0,11.325,8.213,11,13.108,11C13.277,11,30,11.029,30,13.5
				C30,15.675,21.787,16,16.892,16z M1.061,13.443C2.08,14.093,8.53,15,16.892,15c8.148,0,11.509-0.921,12.048-1.443
				C27.92,12.907,21.47,12,13.108,12C4.96,12,1.6,12.921,1.061,13.443z M29.041,13.639h0.01H29.041z"/>
		</g>
		<g id="XMLID_218_">
			<path d="M16.892,24.956c-5.323,0-10.801-0.367-13.955-0.935c-0.271-0.049-0.452-0.309-0.403-0.581
				c0.05-0.272,0.311-0.445,0.581-0.403c3.101,0.559,8.509,0.919,13.777,0.919c4.174,0,7.698-0.237,9.925-0.67
				c0.259-0.048,0.532,0.124,0.586,0.396c0.052,0.271-0.125,0.534-0.396,0.587C24.687,24.718,21.188,24.956,16.892,24.956z"/>
		</g>
		<g id="XMLID_219_">
			<path d="M16.892,22.435c-5.796,0-11.686-0.431-14.655-1.072c-0.27-0.058-0.441-0.324-0.383-0.594
				c0.058-0.269,0.323-0.443,0.594-0.383c2.862,0.617,8.802,1.049,14.444,1.049c4.69,0,8.459-0.291,10.611-0.819
				c0.271-0.065,0.539,0.098,0.604,0.366c0.066,0.268-0.098,0.539-0.366,0.604C25.514,22.133,21.66,22.435,16.892,22.435z"/>
		</g>
	</g>
</g>
<g id="Towel">
</g>
<g id="Strand_Ball">
</g>
<g id="Beach_Sign">
</g>
<g id="Toos">
</g>
<g id="Bucket">
</g>
<g id="Sand_Castle">
</g>
<g id="Shell_1">
</g>
<g id="Shell_2">
</g>
<g id="Surf_Board">
</g>
<g id="Float">
</g>
<g id="Vacation_Photo">
</g>
<g id="Summer_Time">
</g>
<g id="Boat">
</g>
<g id="Lifebuoy">
</g>
<g id="Lighthouse">
</g>
<g id="Sunset">
</g>
<g id="Dolphin">
</g>
<g id="Starfish">
</g>
<g id="Diving_Mask">
</g>
<g id="Sailboat">
</g>
<g id="Captin_Hat">
</g>
<g id="Eudder">
</g>
</svg>
