<?xml version="1.0" encoding="iso-8859-1"?>
<!-- Generator: Adobe Illustrator 19.2.1, SVG Export Plug-In . SVG Version: 6.00 Build 0)  -->
<svg version="1.1" xmlns="http://www.w3.org/2000/svg" xmlns:xlink="http://www.w3.org/1999/xlink" x="0px" y="0px"
	 viewBox="0 0 30 30" style="enable-background:new 0 0 30 30;" xml:space="preserve">
<g id="Sun_Light">
</g>
<g id="Sunglasses">
</g>
<g id="T-Shirt_1">
</g>
<g id="T-Shirt_2">
</g>
<g id="Mini_Dress">
</g>
<g id="Flip-Flops">
</g>
<g id="Temperature">
</g>
<g id="Hot_Temperature">
</g>
<g id="Ice_Lolly">
</g>
<g id="Icecream">
</g>
<g id="Limonade_1">
</g>
<g id="Limonade_2">
</g>
<g id="Hat">
</g>
<g id="Straw_Hat">
	<g>
		<g id="XMLID_132_">
			<path d="M15,18.087c-1.336,0-8-0.094-8-1.941v-4.323C7,9.164,9.467,7,12.5,7h5c3.033,0,5.5,2.164,5.5,4.823v4.323
				C23,17.993,16.336,18.087,15,18.087z M12.5,8C10.019,8,8,9.715,8,11.823v4.323c0.227,0.256,2.614,0.941,7,0.941
				c4.275,0,6.651-0.65,7-1.007v-4.257C22,9.715,19.981,8,17.5,8H12.5z"/>
		</g>
		<g id="XMLID_133_">
			<path d="M15,23c-7.271,0-15-1.722-15-4.913c0-1.932,2.91-3.523,7.983-4.366c0.276-0.05,0.53,0.139,0.575,0.411
				c0.045,0.272-0.139,0.53-0.411,0.575C3.21,15.527,1,16.996,1,18.087C1,19.938,6.75,22,15,22s14-2.063,14-3.913
				c0-1.091-2.21-2.56-7.147-3.38c-0.272-0.045-0.457-0.303-0.411-0.575s0.304-0.459,0.575-0.411C27.09,14.563,30,16.155,30,18.087
				C30,21.278,22.271,23,15,23z"/>
		</g>
		<g id="XMLID_134_">
			<path d="M21.136,15.435c-0.122,0-0.244-0.044-0.339-0.133l-3.751-3.468l-3.751,3.468c-0.191,0.177-0.487,0.177-0.679,0
				l-3.751-3.468L7.839,12.78c-0.203,0.187-0.519,0.175-0.707-0.028s-0.175-0.519,0.028-0.707l1.364-1.261
				c0.192-0.177,0.488-0.177,0.679,0l3.751,3.468l3.751-3.468c0.191-0.177,0.487-0.177,0.679,0l3.751,3.468l1.024-0.947
				c0.202-0.188,0.518-0.175,0.707,0.028c0.188,0.203,0.175,0.519-0.028,0.707l-1.364,1.261
				C21.38,15.39,21.258,15.435,21.136,15.435z"/>
		</g>
		<g id="XMLID_135_">
			<path d="M8.864,15.435c-0.122,0-0.244-0.044-0.339-0.133l-1.364-1.261c-0.203-0.188-0.215-0.504-0.028-0.707
				c0.188-0.203,0.503-0.216,0.707-0.028l1.024,0.947l3.751-3.468c0.191-0.177,0.487-0.177,0.679,0l3.751,3.468l3.751-3.468
				c0.191-0.177,0.487-0.177,0.679,0l1.364,1.261c0.203,0.188,0.215,0.504,0.028,0.707c-0.189,0.203-0.505,0.214-0.707,0.028
				l-1.024-0.947l-3.751,3.468c-0.191,0.177-0.487,0.177-0.679,0l-3.751-3.468l-3.751,3.468C9.107,15.39,8.985,15.435,8.864,15.435z
				"/>
		</g>
	</g>
</g>
<g id="Deckchair">
</g>
<g id="Sunshade">
</g>
<g id="Suncream">
</g>
<g id="Suntan_Oil">
</g>
<g id="Swimming_Trunks">
</g>
<g id="Bikini">
</g>
<g id="Pool">
</g>
<g id="Pool_Ladder">
</g>
<g id="Grill">
</g>
<g id="Kite_1">
</g>
<g id="Kite_2">
</g>
<g id="Badminton">
</g>
<g id="Cooler">
</g>
<g id="Strand_Bag">
</g>
<g id="Towel">
</g>
<g id="Strand_Ball">
</g>
<g id="Beach_Sign">
</g>
<g id="Toos">
</g>
<g id="Bucket">
</g>
<g id="Sand_Castle">
</g>
<g id="Shell_1">
</g>
<g id="Shell_2">
</g>
<g id="Surf_Board">
</g>
<g id="Float">
</g>
<g id="Vacation_Photo">
</g>
<g id="Summer_Time">
</g>
<g id="Boat">
</g>
<g id="Lifebuoy">
</g>
<g id="Lighthouse">
</g>
<g id="Sunset">
</g>
<g id="Dolphin">
</g>
<g id="Starfish">
</g>
<g id="Diving_Mask">
</g>
<g id="Sailboat">
</g>
<g id="Captin_Hat">
</g>
<g id="Eudder">
</g>
</svg>
