<?xml version="1.0" encoding="iso-8859-1"?>
<!-- Generator: Adobe Illustrator 19.2.1, SVG Export Plug-In . SVG Version: 6.00 Build 0)  -->
<svg version="1.1" xmlns="http://www.w3.org/2000/svg" xmlns:xlink="http://www.w3.org/1999/xlink" x="0px" y="0px"
	 viewBox="0 0 30 30" style="enable-background:new 0 0 30 30;" xml:space="preserve">
<g id="Sun_Light">
</g>
<g id="Sunglasses">
</g>
<g id="T-Shirt_1">
</g>
<g id="T-Shirt_2">
</g>
<g id="Mini_Dress">
</g>
<g id="Flip-Flops">
</g>
<g id="Temperature">
</g>
<g id="Hot_Temperature">
</g>
<g id="Ice_Lolly">
</g>
<g id="Icecream">
</g>
<g id="Limonade_1">
</g>
<g id="Limonade_2">
</g>
<g id="Hat">
</g>
<g id="Straw_Hat">
</g>
<g id="Deckchair">
</g>
<g id="Sunshade">
</g>
<g id="Suncream">
	<g>
		<g>
			<path d="M20.305,30H9.695C8.896,30,8,29.358,8,28.5V8.543C8,6.656,9.727,5,11.695,5h6.609C20.273,5,22,6.656,22,8.543V28.5
				C22,29.358,21.104,30,20.305,30z M11.695,6C10.285,6,9,7.212,9,8.543V28.5C9,28.729,9.377,29,9.695,29h10.609
				C20.623,29,21,28.729,21,28.5V8.543C21,7.212,19.715,6,18.305,6H11.695z"/>
		</g>
		<g>
			<path d="M17.5,6h-5C12.224,6,12,5.776,12,5.5v-4C12,0.659,12.649,0,13.479,0h3.043C17.351,0,18,0.659,18,1.5v4
				C18,5.776,17.776,6,17.5,6z M13,5h4V1.5C17,1.22,16.79,1,16.521,1h-3.043C13.21,1,13,1.22,13,1.5V5z"/>
		</g>
		<g id="XMLID_151_">
			<path d="M21.5,11h-13C8.224,11,8,10.776,8,10.5S8.224,10,8.5,10h13c0.276,0,0.5,0.224,0.5,0.5S21.776,11,21.5,11z"/>
		</g>
		<g id="XMLID_152_">
			<path d="M21.5,26h-13C8.224,26,8,25.776,8,25.5S8.224,25,8.5,25h13c0.276,0,0.5,0.224,0.5,0.5S21.776,26,21.5,26z"/>
		</g>
		<g id="XMLID_145_">
			<g id="XMLID_146_">
				<path d="M15,21.174c-1.666,0-3.021-1.355-3.021-3.021c0-1.667,1.355-3.022,3.021-3.022s3.021,1.355,3.021,3.022
					C18.021,19.818,16.666,21.174,15,21.174z M15,16.13c-1.114,0-2.021,0.907-2.021,2.022s0.907,2.021,2.021,2.021
					s2.021-0.907,2.021-2.021S16.114,16.13,15,16.13z"/>
			</g>
			<g id="XMLID_147_">
				<path d="M15,16.13c-0.276,0-0.5-0.224-0.5-0.5V14.37c0-0.276,0.224-0.5,0.5-0.5s0.5,0.224,0.5,0.5v1.261
					C15.5,15.907,15.276,16.13,15,16.13z"/>
			</g>
			<g id="XMLID_148_">
				<path d="M18.782,18.652h-1.261c-0.276,0-0.5-0.224-0.5-0.5s0.224-0.5,0.5-0.5h1.261c0.276,0,0.5,0.224,0.5,0.5
					S19.059,18.652,18.782,18.652z"/>
			</g>
			<g id="XMLID_149_">
				<path d="M15,22.435c-0.276,0-0.5-0.224-0.5-0.5v-1.261c0-0.276,0.224-0.5,0.5-0.5s0.5,0.224,0.5,0.5v1.261
					C15.5,22.211,15.276,22.435,15,22.435z"/>
			</g>
			<g id="XMLID_150_">
				<path d="M12.479,18.652h-1.261c-0.276,0-0.5-0.224-0.5-0.5s0.224-0.5,0.5-0.5h1.261c0.276,0,0.5,0.224,0.5,0.5
					S12.755,18.652,12.479,18.652z"/>
			</g>
			<g>
				<path d="M13.217,16.869c-0.128,0-0.256-0.049-0.354-0.146l-0.892-0.892c-0.195-0.195-0.195-0.512,0-0.707s0.512-0.195,0.707,0
					l0.892,0.892c0.195,0.195,0.195,0.512,0,0.707C13.473,16.82,13.345,16.869,13.217,16.869z"/>
			</g>
			<g>
				<path d="M16.783,16.869c-0.128,0-0.256-0.049-0.354-0.146c-0.195-0.195-0.195-0.512,0-0.707l0.892-0.892
					c0.195-0.195,0.512-0.195,0.707,0s0.195,0.512,0,0.707l-0.892,0.892C17.039,16.82,16.911,16.869,16.783,16.869z"/>
			</g>
			<g>
				<path d="M17.675,21.327c-0.128,0-0.256-0.049-0.354-0.146l-0.892-0.891c-0.195-0.195-0.195-0.512,0-0.707s0.512-0.195,0.707,0
					l0.892,0.891c0.195,0.195,0.195,0.512,0,0.707C17.931,21.278,17.803,21.327,17.675,21.327z"/>
			</g>
			<g>
				<path d="M12.325,21.327c-0.128,0-0.256-0.049-0.354-0.146c-0.195-0.195-0.195-0.512,0-0.707l0.892-0.891
					c0.195-0.195,0.512-0.195,0.707,0s0.195,0.512,0,0.707l-0.892,0.891C12.581,21.278,12.453,21.327,12.325,21.327z"/>
			</g>
		</g>
	</g>
</g>
<g id="Suntan_Oil">
</g>
<g id="Swimming_Trunks">
</g>
<g id="Bikini">
</g>
<g id="Pool">
</g>
<g id="Pool_Ladder">
</g>
<g id="Grill">
</g>
<g id="Kite_1">
</g>
<g id="Kite_2">
</g>
<g id="Badminton">
</g>
<g id="Cooler">
</g>
<g id="Strand_Bag">
</g>
<g id="Towel">
</g>
<g id="Strand_Ball">
</g>
<g id="Beach_Sign">
</g>
<g id="Toos">
</g>
<g id="Bucket">
</g>
<g id="Sand_Castle">
</g>
<g id="Shell_1">
</g>
<g id="Shell_2">
</g>
<g id="Surf_Board">
</g>
<g id="Float">
</g>
<g id="Vacation_Photo">
</g>
<g id="Summer_Time">
</g>
<g id="Boat">
</g>
<g id="Lifebuoy">
</g>
<g id="Lighthouse">
</g>
<g id="Sunset">
</g>
<g id="Dolphin">
</g>
<g id="Starfish">
</g>
<g id="Diving_Mask">
</g>
<g id="Sailboat">
</g>
<g id="Captin_Hat">
</g>
<g id="Eudder">
</g>
</svg>
