<?xml version="1.0" encoding="iso-8859-1"?>
<!-- Generator: Adobe Illustrator 19.2.1, SVG Export Plug-In . SVG Version: 6.00 Build 0)  -->
<svg version="1.1" xmlns="http://www.w3.org/2000/svg" xmlns:xlink="http://www.w3.org/1999/xlink" x="0px" y="0px"
	 viewBox="0 0 30 30" style="enable-background:new 0 0 30 30;" xml:space="preserve">
<g id="Sun_Light">
</g>
<g id="Sunglasses">
	<g id="XMLID_61_">
		<g id="XMLID_62_">
			<path d="M22.892,24c-1.381,0-2.924-0.247-4.25-0.638c-2.839-0.838-3.475-3.995-3.502-4.137l0,0
				c-0.032-0.166-0.106-0.225-0.15-0.225h0c-0.046,0-0.104,0.073-0.125,0.21c-0.028,0.148-0.661,3.313-3.504,4.152
				c-2.55,0.754-5.899,0.971-7.366-0.072c-2.203-1.566-2.53-3.559-2.67-4.41c-0.017-0.104-0.028-0.186-0.043-0.239
				c-0.131-0.464-0.769-0.835-0.981-0.929C0.117,17.632,0,17.452,0,17.254v-2.501c0-0.218,0.141-0.411,0.349-0.477
				c8.185-2.601,13.295-0.431,14.139-0.023h1.024c0.844-0.407,5.953-2.577,14.139,0.023C29.859,14.342,30,14.535,30,14.752v2.501
				c0,0.197-0.117,0.376-0.297,0.457c-0.229,0.103-0.852,0.47-0.982,0.93c-0.015,0.053-0.026,0.135-0.043,0.239
				c-0.14,0.851-0.467,2.844-2.67,4.41C25.304,23.79,24.166,24,22.892,24z M16.122,19.036c0.01,0.049,0.561,2.705,2.803,3.367
				c2.617,0.772,5.473,0.804,6.503,0.072c1.863-1.324,2.143-3.028,2.262-3.756c0.025-0.153,0.046-0.271,0.068-0.35
				c0.203-0.717,0.85-1.189,1.242-1.417v-1.831c-8.154-2.476-13.085,0.047-13.135,0.073c-0.072,0.038-0.153,0.059-0.234,0.059H14.37
				c-0.082,0-0.163-0.021-0.234-0.059c-0.05-0.026-4.98-2.55-13.135-0.073v1.831c0.392,0.228,1.039,0.7,1.242,1.417
				c0.022,0.078,0.043,0.197,0.068,0.35c0.12,0.728,0.399,2.433,2.262,3.756c1.03,0.732,3.887,0.701,6.503-0.072
				c2.265-0.668,2.798-3.339,2.803-3.366c0.113-0.703,0.632-1.031,1.095-1.038C15.508,18.001,16.003,18.417,16.122,19.036
				L16.122,19.036z"/>
		</g>
		<g id="XMLID_63_">
			<path d="M29.5,15.252c-0.176,0-0.346-0.093-0.438-0.257L23.155,4.374c-0.154-0.266-0.431-0.406-0.751-0.368
				c-0.313,0.038-0.552,0.24-0.639,0.54L21.14,6.17c-0.099,0.257-0.389,0.385-0.646,0.286c-0.257-0.099-0.386-0.389-0.286-0.646
				l0.611-1.583c0.184-0.646,0.751-1.127,1.465-1.214c0.715-0.09,1.383,0.246,1.742,0.868l5.912,10.628
				c0.134,0.241,0.047,0.546-0.194,0.68C29.666,15.232,29.583,15.252,29.5,15.252z"/>
		</g>
		<g>
			<path d="M0.5,15.252c-0.082,0-0.166-0.02-0.243-0.063c-0.241-0.134-0.328-0.439-0.194-0.68L5.971,3.888
				c0.362-0.629,1.028-0.964,1.746-0.875C8.431,3.1,8.998,3.581,9.196,4.269L9.792,5.81c0.1,0.258-0.029,0.547-0.286,0.646
				C9.247,6.555,8.959,6.428,8.86,6.17L8.249,4.587C8.148,4.246,7.91,4.044,7.596,4.006C7.28,3.971,6.999,4.107,6.842,4.38
				L0.937,14.996C0.846,15.16,0.675,15.252,0.5,15.252z"/>
		</g>
		<g id="XMLID_64_">
			<path d="M4.376,18.897c-0.233,0-0.442-0.165-0.49-0.402c-0.059-0.296-0.09-0.649-0.092-1.051
				c-0.004-0.863,0.637-1.604,1.49-1.722c0.275-0.042,0.525,0.153,0.564,0.426c0.038,0.273-0.153,0.526-0.426,0.564
				c-0.36,0.05-0.63,0.363-0.628,0.727c0.001,0.338,0.026,0.628,0.072,0.861c0.054,0.271-0.122,0.534-0.393,0.588
				C4.442,18.894,4.409,18.897,4.376,18.897z"/>
		</g>
		<g id="XMLID_65_">
			<path d="M18.25,18.997c-0.234,0-0.442-0.165-0.49-0.402c-0.082-0.413-0.114-0.821-0.092-1.183c0.047-0.787,0.623-1.443,1.4-1.595
				c0.271-0.057,0.534,0.124,0.587,0.395c0.053,0.271-0.124,0.534-0.395,0.587c-0.33,0.064-0.574,0.342-0.594,0.674
				c-0.017,0.273,0.01,0.602,0.075,0.927c0.054,0.271-0.122,0.534-0.393,0.588C18.315,18.994,18.282,18.997,18.25,18.997z"/>
		</g>
	</g>
</g>
<g id="T-Shirt_1">
</g>
<g id="T-Shirt_2">
</g>
<g id="Mini_Dress">
</g>
<g id="Flip-Flops">
</g>
<g id="Temperature">
</g>
<g id="Hot_Temperature">
</g>
<g id="Ice_Lolly">
</g>
<g id="Icecream">
</g>
<g id="Limonade_1">
</g>
<g id="Limonade_2">
</g>
<g id="Hat">
</g>
<g id="Straw_Hat">
</g>
<g id="Deckchair">
</g>
<g id="Sunshade">
</g>
<g id="Suncream">
</g>
<g id="Suntan_Oil">
</g>
<g id="Swimming_Trunks">
</g>
<g id="Bikini">
</g>
<g id="Pool">
</g>
<g id="Pool_Ladder">
</g>
<g id="Grill">
</g>
<g id="Kite_1">
</g>
<g id="Kite_2">
</g>
<g id="Badminton">
</g>
<g id="Cooler">
</g>
<g id="Strand_Bag">
</g>
<g id="Towel">
</g>
<g id="Strand_Ball">
</g>
<g id="Beach_Sign">
</g>
<g id="Toos">
</g>
<g id="Bucket">
</g>
<g id="Sand_Castle">
</g>
<g id="Shell_1">
</g>
<g id="Shell_2">
</g>
<g id="Surf_Board">
</g>
<g id="Float">
</g>
<g id="Vacation_Photo">
</g>
<g id="Summer_Time">
</g>
<g id="Boat">
</g>
<g id="Lifebuoy">
</g>
<g id="Lighthouse">
</g>
<g id="Sunset">
</g>
<g id="Dolphin">
</g>
<g id="Starfish">
</g>
<g id="Diving_Mask">
</g>
<g id="Sailboat">
</g>
<g id="Captin_Hat">
</g>
<g id="Eudder">
</g>
</svg>
