<?xml version="1.0" encoding="iso-8859-1"?>
<!-- Generator: Adobe Illustrator 19.0.0, SVG Export Plug-In . SVG Version: 6.00 Build 0)  -->
<svg version="1.1" id="Layer_1" xmlns="http://www.w3.org/2000/svg" xmlns:xlink="http://www.w3.org/1999/xlink" x="0px" y="0px"
	 viewBox="0 0 30 30" style="enable-background:new 0 0 30 30;" xml:space="preserve">
<g>
	<g>
		<path d="M29.847,14.14L24,8.494V2.499c0-0.276-0.224-0.5-0.5-0.5h-3c-0.276,0-0.5,0.224-0.5,0.5v2.133L15.347,0.14
			c-0.193-0.187-0.501-0.187-0.694,0l-14.5,14c-0.147,0.142-0.193,0.358-0.116,0.547C0.113,14.876,0.297,15,0.5,15H3v14.5
			C3,29.776,3.224,30,3.5,30H14v-9.5c0-0.276,0.224-0.5,0.5-0.5h7c0.276,0,0.5,0.224,0.5,0.5V30h3.5c0.276,0,0.5-0.224,0.5-0.5V15
			h3.5c0.204,0,0.387-0.124,0.463-0.313C30.04,14.498,29.994,14.282,29.847,14.14z M12,23.5c0,0.276-0.224,0.5-0.5,0.5h-5
			C6.224,24,6,23.776,6,23.5v-6C6,17.224,6.224,17,6.5,17h5c0.276,0,0.5,0.224,0.5,0.5V23.5z M15,12c-1.654,0-3-1.346-3-3
			s1.346-3,3-3s3,1.346,3,3S16.654,12,15,12z"/>
	</g>
</g>
</svg>
