<?xml version="1.0" encoding="iso-8859-1"?>
<!-- Generator: Adobe Illustrator 19.2.1, SVG Export Plug-In . SVG Version: 6.00 Build 0)  -->
<svg version="1.1" xmlns="http://www.w3.org/2000/svg" xmlns:xlink="http://www.w3.org/1999/xlink" x="0px" y="0px"
	 viewBox="0 0 30 30" style="enable-background:new 0 0 30 30;" xml:space="preserve">
<g id="Cad_1">
</g>
<g id="Cad_2">
</g>
<g id="Cad_Pencil">
</g>
<g id="Cad_Compasses">
</g>
<g id="Tools_1">
</g>
<g id="Tools_2">
</g>
<g id="Ruler_1">
</g>
<g id="Ruler_2">
</g>
<g id="Workspace_1">
</g>
<g id="Workspace_2">
</g>
<g id="Cad_3">
</g>
<g id="_x33_D_Box">
</g>
<g id="Section_Symbol">
</g>
<g id="Outlet_Symbol">
</g>
<g id="Cad_File">
</g>
<g id="Blueprint">
	<g>
		<g>
			<g>
				<path d="M7.5,17.25c-0.276,0-0.5-0.224-0.5-0.5v-1c0-0.276,0.224-0.5,0.5-0.5S8,15.474,8,15.75v1
					C8,17.026,7.776,17.25,7.5,17.25z"/>
			</g>
			<g>
				<path d="M7.5,21.75c-0.276,0-0.5-0.224-0.5-0.5V19c0-0.276,0.224-0.5,0.5-0.5S8,18.724,8,19v2.25
					C8,21.526,7.776,21.75,7.5,21.75z"/>
			</g>
			<g>
				<path d="M8.5,25h-1C7.224,25,7,24.776,7,24.5v-1C7,23.224,7.224,23,7.5,23S8,23.224,8,23.5V24h0.5C8.776,24,9,24.224,9,24.5
					S8.776,25,8.5,25z"/>
			</g>
			<g>
				<path d="M19.644,25h-1.857c-0.276,0-0.5-0.224-0.5-0.5s0.224-0.5,0.5-0.5h1.857c0.276,0,0.5,0.224,0.5,0.5S19.92,25,19.644,25z
					 M15.929,25h-1.857c-0.276,0-0.5-0.224-0.5-0.5s0.224-0.5,0.5-0.5h1.857c0.276,0,0.5,0.224,0.5,0.5S16.205,25,15.929,25z
					 M12.215,25h-1.857c-0.276,0-0.5-0.224-0.5-0.5s0.224-0.5,0.5-0.5h1.857c0.276,0,0.5,0.224,0.5,0.5S12.491,25,12.215,25z"/>
			</g>
			<g>
				<path d="M22.5,25h-1c-0.276,0-0.5-0.224-0.5-0.5s0.224-0.5,0.5-0.5H22v-0.5c0-0.276,0.224-0.5,0.5-0.5s0.5,0.224,0.5,0.5v1
					C23,24.776,22.776,25,22.5,25z"/>
			</g>
			<g>
				<path d="M22.5,21.75c-0.276,0-0.5-0.224-0.5-0.5V19c0-0.276,0.224-0.5,0.5-0.5S23,18.724,23,19v2.25
					C23,21.526,22.776,21.75,22.5,21.75z"/>
			</g>
			<g>
				<path d="M22.5,17.25c-0.276,0-0.5-0.224-0.5-0.5v-1c0-0.276,0.224-0.5,0.5-0.5s0.5,0.224,0.5,0.5v1
					C23,17.026,22.776,17.25,22.5,17.25z"/>
			</g>
		</g>
		<g>
			<g>
				<path d="M15.688,5.725c-0.132,0-0.265-0.052-0.362-0.156L15,5.226l-0.326,0.343c-0.189,0.202-0.505,0.209-0.707,0.019
					c-0.2-0.19-0.208-0.507-0.018-0.707l0.688-0.725c0.188-0.199,0.537-0.199,0.725,0l0.688,0.725c0.19,0.2,0.183,0.517-0.018,0.707
					C15.937,5.68,15.813,5.725,15.688,5.725z"/>
			</g>
			<g>
				<path d="M7.813,12.565c-0.124,0-0.248-0.045-0.345-0.138c-0.2-0.19-0.208-0.506-0.018-0.707l1.624-1.71
					c0.19-0.201,0.508-0.208,0.707-0.019c0.2,0.19,0.208,0.507,0.018,0.707l-1.624,1.71C8.078,12.513,7.945,12.565,7.813,12.565z
					 M11.063,9.145c-0.124,0-0.248-0.045-0.345-0.137c-0.2-0.19-0.208-0.507-0.018-0.707l1.624-1.71
					c0.19-0.2,0.508-0.208,0.707-0.018c0.2,0.19,0.208,0.506,0.018,0.707l-1.624,1.71C11.327,9.093,11.194,9.145,11.063,9.145z"/>
			</g>
			<g>
				<path d="M6.5,15h-1c-0.2,0-0.381-0.119-0.459-0.303C4.962,14.514,5,14.301,5.138,14.156l0.688-0.725
					c0.189-0.201,0.506-0.208,0.707-0.019c0.168,0.16,0.2,0.41,0.094,0.604C6.842,14.072,7,14.268,7,14.5C7,14.776,6.776,15,6.5,15z
					"/>
			</g>
			<g>
				<path d="M21.611,15h-1.89c-0.276,0-0.5-0.224-0.5-0.5s0.224-0.5,0.5-0.5h1.89c0.276,0,0.5,0.224,0.5,0.5S21.888,15,21.611,15z
					 M17.833,15h-1.889c-0.276,0-0.5-0.224-0.5-0.5s0.224-0.5,0.5-0.5h1.889c0.276,0,0.5,0.224,0.5,0.5S18.109,15,17.833,15z
					 M14.056,15h-1.89c-0.276,0-0.5-0.224-0.5-0.5s0.224-0.5,0.5-0.5h1.89c0.276,0,0.5,0.224,0.5,0.5S14.332,15,14.056,15z
					 M10.277,15H8.389c-0.276,0-0.5-0.224-0.5-0.5s0.224-0.5,0.5-0.5h1.889c0.276,0,0.5,0.224,0.5,0.5S10.554,15,10.277,15z"/>
			</g>
			<g>
				<path d="M24.5,15h-1c-0.276,0-0.5-0.224-0.5-0.5c0-0.232,0.158-0.428,0.373-0.484c-0.106-0.194-0.074-0.444,0.094-0.604
					c0.2-0.189,0.517-0.182,0.707,0.019l0.688,0.725c0.138,0.145,0.176,0.358,0.097,0.542C24.881,14.881,24.7,15,24.5,15z"/>
			</g>
			<g>
				<path d="M22.187,12.565c-0.132,0-0.265-0.052-0.362-0.156l-1.624-1.71c-0.19-0.2-0.183-0.517,0.018-0.707
					c0.199-0.189,0.518-0.183,0.707,0.019l1.624,1.71c0.19,0.2,0.183,0.517-0.018,0.707C22.435,12.52,22.311,12.565,22.187,12.565z
					 M18.938,9.145c-0.132,0-0.265-0.052-0.362-0.156l-1.624-1.71c-0.19-0.2-0.183-0.517,0.018-0.707
					c0.2-0.19,0.518-0.183,0.707,0.018l1.624,1.71c0.19,0.2,0.183,0.517-0.018,0.707C19.186,9.1,19.062,9.145,18.938,9.145z"/>
			</g>
		</g>
		<g>
			<path d="M13.5,3c-0.128,0-0.256-0.049-0.354-0.146l-2-2c-0.195-0.195-0.195-0.512,0-0.707s0.512-0.195,0.707,0l2,2
				c0.195,0.195,0.195,0.512,0,0.707C13.756,2.951,13.628,3,13.5,3z"/>
		</g>
		<g>
			<path d="M16.5,3c-0.128,0-0.256-0.049-0.354-0.146c-0.195-0.195-0.195-0.512,0-0.707l2-2c0.195-0.195,0.512-0.195,0.707,0
				s0.195,0.512,0,0.707l-2,2C16.756,2.951,16.628,3,16.5,3z"/>
		</g>
		<g>
			<path d="M29.5,15h-3c-0.276,0-0.5-0.224-0.5-0.5s0.224-0.5,0.5-0.5h3c0.276,0,0.5,0.224,0.5,0.5S29.776,15,29.5,15z"/>
		</g>
		<g>
			<path d="M22.5,30c-0.276,0-0.5-0.224-0.5-0.5v-3c0-0.276,0.224-0.5,0.5-0.5s0.5,0.224,0.5,0.5v3C23,29.776,22.776,30,22.5,30z"/>
		</g>
		<g>
			<path d="M7.5,30C7.224,30,7,29.776,7,29.5v-3C7,26.224,7.224,26,7.5,26S8,26.224,8,26.5v3C8,29.776,7.776,30,7.5,30z"/>
		</g>
		<g>
			<path d="M29.5,25h-3c-0.276,0-0.5-0.224-0.5-0.5s0.224-0.5,0.5-0.5h3c0.276,0,0.5,0.224,0.5,0.5S29.776,25,29.5,25z"/>
		</g>
		<g>
			<path d="M3.5,25h-3C0.224,25,0,24.776,0,24.5S0.224,24,0.5,24h3C3.776,24,4,24.224,4,24.5S3.776,25,3.5,25z"/>
		</g>
		<g>
			<path d="M3.5,15h-3C0.224,15,0,14.776,0,14.5S0.224,14,0.5,14h3C3.776,14,4,14.224,4,14.5S3.776,15,3.5,15z"/>
		</g>
	</g>
</g>
<g id="Construction_Plan">
</g>
<g id="Roof_Plan">
</g>
<g id="House_Construction">
</g>
<g id="Building_Construction">
</g>
<g id="Work_Table">
</g>
<g id="Table_Cad">
</g>
<g id="House_Plan">
</g>
<g id="Tape_Measure">
</g>
<g id="Cad_Paper">
</g>
<g id="Cad_Papers">
</g>
<g id="Stairs">
</g>
<g id="Pillar">
</g>
<g id="Bricks">
</g>
<g id="Pantheon">
</g>
<g id="House">
</g>
<g id="Skyscraper">
</g>
<g id="Building">
</g>
</svg>
