<?xml version="1.0" encoding="iso-8859-1"?>
<!-- Generator: Adobe Illustrator 19.2.1, SVG Export Plug-In . SVG Version: 6.00 Build 0)  -->
<svg version="1.1" xmlns="http://www.w3.org/2000/svg" xmlns:xlink="http://www.w3.org/1999/xlink" x="0px" y="0px"
	 viewBox="0 0 30 30" style="enable-background:new 0 0 30 30;" xml:space="preserve">
<g id="Cad_1">
</g>
<g id="Cad_2">
</g>
<g id="Cad_Pencil">
</g>
<g id="Cad_Compasses">
</g>
<g id="Tools_1">
</g>
<g id="Tools_2">
</g>
<g id="Ruler_1">
</g>
<g id="Ruler_2">
</g>
<g id="Workspace_1">
</g>
<g id="Workspace_2">
</g>
<g id="Cad_3">
</g>
<g id="_x33_D_Box">
</g>
<g id="Section_Symbol">
</g>
<g id="Outlet_Symbol">
</g>
<g id="Cad_File">
</g>
<g id="Blueprint">
</g>
<g id="Construction_Plan">
</g>
<g id="Roof_Plan">
</g>
<g id="House_Construction">
</g>
<g id="Building_Construction">
</g>
<g id="Work_Table">
</g>
<g id="Table_Cad">
</g>
<g id="House_Plan">
</g>
<g id="Tape_Measure">
</g>
<g id="Cad_Paper">
</g>
<g id="Cad_Papers">
</g>
<g id="Stairs">
</g>
<g id="Pillar">
</g>
<g id="Bricks">
	<g>
		<g>
			<path d="M9.5,26h-9C0.224,26,0,25.776,0,25.5v-4C0,21.224,0.224,21,0.5,21h9c0.276,0,0.5,0.224,0.5,0.5v4
				C10,25.776,9.776,26,9.5,26z M1,25h8v-3H1V25z"/>
		</g>
		<g>
			<path d="M18.5,26h-9C9.224,26,9,25.776,9,25.5v-4C9,21.224,9.224,21,9.5,21h9c0.276,0,0.5,0.224,0.5,0.5v4
				C19,25.776,18.776,26,18.5,26z M10,25h8v-3h-8V25z"/>
		</g>
		<g>
			<path d="M27.5,26h-9c-0.276,0-0.5-0.224-0.5-0.5v-4c0-0.276,0.224-0.5,0.5-0.5h9c0.276,0,0.5,0.224,0.5,0.5v4
				C28,25.776,27.776,26,27.5,26z M19,25h8v-3h-8V25z"/>
		</g>
		<g>
			<path d="M11.5,22h-9C2.224,22,2,21.776,2,21.5v-4C2,17.224,2.224,17,2.5,17h9c0.276,0,0.5,0.224,0.5,0.5v4
				C12,21.776,11.776,22,11.5,22z M3,21h8v-3H3V21z"/>
		</g>
		<g>
			<path d="M20.5,22h-9c-0.276,0-0.5-0.224-0.5-0.5v-4c0-0.276,0.224-0.5,0.5-0.5h9c0.276,0,0.5,0.224,0.5,0.5v4
				C21,21.776,20.776,22,20.5,22z M12,21h8v-3h-8V21z"/>
		</g>
		<g>
			<path d="M16.5,18h-9C7.224,18,7,17.776,7,17.5v-4C7,13.224,7.224,13,7.5,13h9c0.276,0,0.5,0.224,0.5,0.5v4
				C17,17.776,16.776,18,16.5,18z M8,17h8v-3H8V17z"/>
		</g>
		<g>
			<path d="M25.5,18h-9c-0.276,0-0.5-0.224-0.5-0.5v-4c0-0.276,0.224-0.5,0.5-0.5h9c0.276,0,0.5,0.224,0.5,0.5v4
				C26,17.776,25.776,18,25.5,18z M17,17h8v-3h-8V17z"/>
		</g>
		<g>
			<path d="M13.5,14h-9C4.224,14,4,13.776,4,13.5v-4C4,9.224,4.224,9,4.5,9h9C13.776,9,14,9.224,14,9.5v4
				C14,13.776,13.776,14,13.5,14z M5,13h8v-3H5V13z"/>
		</g>
		<g>
			<path d="M22.5,14h-9c-0.276,0-0.5-0.224-0.5-0.5v-4C13,9.224,13.224,9,13.5,9h9C22.776,9,23,9.224,23,9.5v4
				C23,13.776,22.776,14,22.5,14z M14,13h8v-3h-8V13z"/>
		</g>
		<g>
			<path d="M19.5,10h-9C10.224,10,10,9.776,10,9.5v-4C10,5.224,10.224,5,10.5,5h9C19.776,5,20,5.224,20,5.5v4
				C20,9.776,19.776,10,19.5,10z M11,9h8V6h-8V9z"/>
		</g>
		<g>
			<path d="M29.5,22h-9c-0.276,0-0.5-0.224-0.5-0.5v-4c0-0.276,0.224-0.5,0.5-0.5h9c0.276,0,0.5,0.224,0.5,0.5v4
				C30,21.776,29.776,22,29.5,22z M21,21h8v-3h-8V21z"/>
		</g>
	</g>
</g>
<g id="Pantheon">
</g>
<g id="House">
</g>
<g id="Skyscraper">
</g>
<g id="Building">
</g>
</svg>
