<?xml version="1.0" encoding="iso-8859-1"?>
<!-- Generator: Adobe Illustrator 19.2.1, SVG Export Plug-In . SVG Version: 6.00 Build 0)  -->
<svg version="1.1" xmlns="http://www.w3.org/2000/svg" xmlns:xlink="http://www.w3.org/1999/xlink" x="0px" y="0px"
	 viewBox="0 0 30 30" style="enable-background:new 0 0 30 30;" xml:space="preserve">
<g id="Cad_1">
</g>
<g id="Cad_2">
</g>
<g id="Cad_Pencil">
</g>
<g id="Cad_Compasses">
</g>
<g id="Tools_1">
</g>
<g id="Tools_2">
</g>
<g id="Ruler_1">
</g>
<g id="Ruler_2">
</g>
<g id="Workspace_1">
</g>
<g id="Workspace_2">
</g>
<g id="Cad_3">
</g>
<g id="_x33_D_Box">
</g>
<g id="Section_Symbol">
</g>
<g id="Outlet_Symbol">
</g>
<g id="Cad_File">
</g>
<g id="Blueprint">
</g>
<g id="Construction_Plan">
</g>
<g id="Roof_Plan">
</g>
<g id="House_Construction">
</g>
<g id="Building_Construction">
</g>
<g id="Work_Table">
</g>
<g id="Table_Cad">
</g>
<g id="House_Plan">
</g>
<g id="Tape_Measure">
</g>
<g id="Cad_Paper">
</g>
<g id="Cad_Papers">
</g>
<g id="Stairs">
</g>
<g id="Pillar">
</g>
<g id="Bricks">
</g>
<g id="Pantheon">
</g>
<g id="House">
</g>
<g id="Skyscraper">
</g>
<g id="Building">
	<g>
		<g>
			<path d="M22.5,30h-16C6.224,30,6,29.776,6,29.5v-27C6,2.224,6.224,2,6.5,2h16C22.776,2,23,2.224,23,2.5v27
				C23,29.776,22.776,30,22.5,30z M7,29h15V3H7V29z"/>
		</g>
		<g>
			<path d="M20.5,30h-4c-0.276,0-0.5-0.224-0.5-0.5v-4c0-0.276,0.224-0.5,0.5-0.5h4c0.276,0,0.5,0.224,0.5,0.5v4
				C21,29.776,20.776,30,20.5,30z M17,29h3v-3h-3V29z"/>
		</g>
		<g>
			<path d="M9.5,27C9.224,27,9,26.776,9,26.5v-1C9,25.224,9.224,25,9.5,25s0.5,0.224,0.5,0.5v1C10,26.776,9.776,27,9.5,27z"/>
		</g>
		<g>
			<path d="M12.5,27c-0.276,0-0.5-0.224-0.5-0.5v-1c0-0.276,0.224-0.5,0.5-0.5s0.5,0.224,0.5,0.5v1C13,26.776,12.776,27,12.5,27z"/>
		</g>
		<g>
			<path d="M9.5,22C9.224,22,9,21.776,9,21.5v-1C9,20.224,9.224,20,9.5,20s0.5,0.224,0.5,0.5v1C10,21.776,9.776,22,9.5,22z"/>
		</g>
		<g>
			<path d="M12.5,22c-0.276,0-0.5-0.224-0.5-0.5v-1c0-0.276,0.224-0.5,0.5-0.5s0.5,0.224,0.5,0.5v1C13,21.776,12.776,22,12.5,22z"/>
		</g>
		<g>
			<path d="M16.5,22c-0.276,0-0.5-0.224-0.5-0.5v-1c0-0.276,0.224-0.5,0.5-0.5s0.5,0.224,0.5,0.5v1C17,21.776,16.776,22,16.5,22z"/>
		</g>
		<g>
			<path d="M19.5,22c-0.276,0-0.5-0.224-0.5-0.5v-1c0-0.276,0.224-0.5,0.5-0.5s0.5,0.224,0.5,0.5v1C20,21.776,19.776,22,19.5,22z"/>
		</g>
		<g>
			<path d="M9.5,17C9.224,17,9,16.776,9,16.5v-1C9,15.224,9.224,15,9.5,15s0.5,0.224,0.5,0.5v1C10,16.776,9.776,17,9.5,17z"/>
		</g>
		<g>
			<path d="M12.5,17c-0.276,0-0.5-0.224-0.5-0.5v-1c0-0.276,0.224-0.5,0.5-0.5s0.5,0.224,0.5,0.5v1C13,16.776,12.776,17,12.5,17z"/>
		</g>
		<g>
			<path d="M16.5,17c-0.276,0-0.5-0.224-0.5-0.5v-1c0-0.276,0.224-0.5,0.5-0.5s0.5,0.224,0.5,0.5v1C17,16.776,16.776,17,16.5,17z"/>
		</g>
		<g>
			<path d="M19.5,17c-0.276,0-0.5-0.224-0.5-0.5v-1c0-0.276,0.224-0.5,0.5-0.5s0.5,0.224,0.5,0.5v1C20,16.776,19.776,17,19.5,17z"/>
		</g>
		<g>
			<path d="M9.5,12C9.224,12,9,11.776,9,11.5v-1C9,10.224,9.224,10,9.5,10s0.5,0.224,0.5,0.5v1C10,11.776,9.776,12,9.5,12z"/>
		</g>
		<g>
			<path d="M12.5,12c-0.276,0-0.5-0.224-0.5-0.5v-1c0-0.276,0.224-0.5,0.5-0.5s0.5,0.224,0.5,0.5v1C13,11.776,12.776,12,12.5,12z"/>
		</g>
		<g>
			<path d="M16.5,12c-0.276,0-0.5-0.224-0.5-0.5v-1c0-0.276,0.224-0.5,0.5-0.5s0.5,0.224,0.5,0.5v1C17,11.776,16.776,12,16.5,12z"/>
		</g>
		<g>
			<path d="M19.5,12c-0.276,0-0.5-0.224-0.5-0.5v-1c0-0.276,0.224-0.5,0.5-0.5s0.5,0.224,0.5,0.5v1C20,11.776,19.776,12,19.5,12z"/>
		</g>
		<g>
			<path d="M9.5,7C9.224,7,9,6.776,9,6.5v-1C9,5.224,9.224,5,9.5,5S10,5.224,10,5.5v1C10,6.776,9.776,7,9.5,7z"/>
		</g>
		<g>
			<path d="M12.5,7C12.224,7,12,6.776,12,6.5v-1C12,5.224,12.224,5,12.5,5S13,5.224,13,5.5v1C13,6.776,12.776,7,12.5,7z"/>
		</g>
		<g>
			<path d="M16.5,7C16.224,7,16,6.776,16,6.5v-1C16,5.224,16.224,5,16.5,5S17,5.224,17,5.5v1C17,6.776,16.776,7,16.5,7z"/>
		</g>
		<g>
			<path d="M19.5,7C19.224,7,19,6.776,19,6.5v-1C19,5.224,19.224,5,19.5,5S20,5.224,20,5.5v1C20,6.776,19.776,7,19.5,7z"/>
		</g>
		<g>
			<path d="M21.5,3h-14C7.224,3,7,2.776,7,2.5v-2C7,0.224,7.224,0,7.5,0h14C21.776,0,22,0.224,22,0.5v2C22,2.776,21.776,3,21.5,3z
				 M8,2h13V1H8V2z"/>
		</g>
	</g>
</g>
</svg>
