<?xml version="1.0" encoding="iso-8859-1"?>
<!-- Generator: Adobe Illustrator 19.2.1, SVG Export Plug-In . SVG Version: 6.00 Build 0)  -->
<svg version="1.1" xmlns="http://www.w3.org/2000/svg" xmlns:xlink="http://www.w3.org/1999/xlink" x="0px" y="0px"
	 viewBox="0 0 30 30" style="enable-background:new 0 0 30 30;" xml:space="preserve">
<g id="Cad_1">
</g>
<g id="Cad_2">
</g>
<g id="Cad_Pencil">
</g>
<g id="Cad_Compasses">
</g>
<g id="Tools_1">
</g>
<g id="Tools_2">
</g>
<g id="Ruler_1">
</g>
<g id="Ruler_2">
</g>
<g id="Workspace_1">
</g>
<g id="Workspace_2">
</g>
<g id="Cad_3">
</g>
<g id="_x33_D_Box">
</g>
<g id="Section_Symbol">
</g>
<g id="Outlet_Symbol">
</g>
<g id="Cad_File">
</g>
<g id="Blueprint">
</g>
<g id="Construction_Plan">
</g>
<g id="Roof_Plan">
</g>
<g id="House_Construction">
</g>
<g id="Building_Construction">
</g>
<g id="Work_Table">
</g>
<g id="Table_Cad">
</g>
<g id="House_Plan">
</g>
<g id="Tape_Measure">
</g>
<g id="Cad_Paper">
	<g>
		<g>
			<path d="M4.787,30.001c-1.015,0-2.208-0.539-3.21-1.541c-1.6-1.6-2.019-3.688-0.953-4.754L23.679,0.15
				c0.194-0.197,0.51-0.199,0.707-0.008c0.197,0.193,0.201,0.51,0.008,0.707l-23.06,23.56c-0.39,0.39-0.313,1.021-0.232,1.361
				c0.159,0.676,0.579,1.379,1.182,1.982c0.603,0.603,1.307,1.022,1.982,1.182c0.342,0.081,0.972,0.157,1.358-0.229L28.679,5.15
				c0.194-0.197,0.51-0.199,0.707-0.008c0.197,0.193,0.201,0.51,0.008,0.707l-23.06,23.56C5.934,29.809,5.392,30.001,4.787,30.001z"
				/>
		</g>
		<g>
			<path d="M27.764,6.428c-0.279,0-0.576-0.033-0.886-0.101c-0.993-0.217-1.975-0.754-2.695-1.474
				c-1.607-1.608-1.511-3.695-0.5-4.707c0.195-0.195,0.512-0.195,0.707,0s0.195,0.512,0,0.707c-0.651,0.651-0.67,2.036,0.398,3.188
				l1.063-1.063c-0.651-0.851-0.733-1.766-0.169-2.331c0.345-0.346,0.833-0.458,1.374-0.321c0.45,0.115,0.911,0.399,1.333,0.821
				c1.627,1.627,2.057,3.65,1,4.707C29.013,6.23,28.442,6.428,27.764,6.428z M25.554,4.689c0.469,0.313,1,0.544,1.536,0.66
				c0.702,0.152,1.314,0.076,1.592-0.203c0.622-0.621,0.164-2.13-1-3.293c-0.291-0.291-0.602-0.49-0.874-0.56
				c-0.191-0.051-0.331-0.027-0.419,0.06c-0.194,0.194-0.061,0.731,0.5,1.293c0.195,0.195,0.195,0.512,0,0.707L25.554,4.689z"/>
		</g>
		<g>
			<path d="M24.036,3.5c-0.128,0-0.256-0.049-0.354-0.146c-0.195-0.195-0.195-0.512,0-0.707l2-2c0.195-0.195,0.512-0.195,0.707,0
				s0.195,0.512,0,0.707l-2,2C24.292,3.451,24.164,3.5,24.036,3.5z"/>
		</g>
	</g>
</g>
<g id="Cad_Papers">
</g>
<g id="Stairs">
</g>
<g id="Pillar">
</g>
<g id="Bricks">
</g>
<g id="Pantheon">
</g>
<g id="House">
</g>
<g id="Skyscraper">
</g>
<g id="Building">
</g>
</svg>
