<?xml version="1.0" encoding="iso-8859-1"?>
<!-- Generator: Adobe Illustrator 19.2.1, SVG Export Plug-In . SVG Version: 6.00 Build 0)  -->
<svg version="1.1" xmlns="http://www.w3.org/2000/svg" xmlns:xlink="http://www.w3.org/1999/xlink" x="0px" y="0px"
	 viewBox="0 0 30 30" style="enable-background:new 0 0 30 30;" xml:space="preserve">
<g id="Cad_1">
</g>
<g id="Cad_2">
</g>
<g id="Cad_Pencil">
</g>
<g id="Cad_Compasses">
</g>
<g id="Tools_1">
</g>
<g id="Tools_2">
</g>
<g id="Ruler_1">
</g>
<g id="Ruler_2">
</g>
<g id="Workspace_1">
</g>
<g id="Workspace_2">
</g>
<g id="Cad_3">
</g>
<g id="_x33_D_Box">
</g>
<g id="Section_Symbol">
</g>
<g id="Outlet_Symbol">
</g>
<g id="Cad_File">
	<g>
		<g>
			<g>
				<g>
					<g>
						<g>
							<path d="M25.5,30h-21C4.224,30,4,29.776,4,29.5v-22c0-0.133,0.053-0.26,0.146-0.354l7-7C11.24,0.053,11.367,0,11.5,0h14
								C25.776,0,26,0.224,26,0.5v29C26,29.776,25.776,30,25.5,30z M5,29h20V1H11.707L5,7.707V29z"/>
						</g>
						<g>
							<path d="M11.5,8h-7C4.224,8,4,7.776,4,7.5S4.224,7,4.5,7H11V0.5C11,0.224,11.224,0,11.5,0S12,0.224,12,0.5v7
								C12,7.776,11.776,8,11.5,8z"/>
						</g>
					</g>
				</g>
			</g>
		</g>
		<g>
			<g>
				<path d="M19.5,19.5c-0.276,0-0.5-0.224-0.5-0.5v-0.5c0-0.276,0.224-0.5,0.5-0.5H20c0.276,0,0.5,0.224,0.5,0.5S20.276,19,20,19
					C20,19.276,19.776,19.5,19.5,19.5z"/>
			</g>
			<g>
				<path d="M22.5,19H22c-0.276,0-0.5-0.224-0.5-0.5c0-0.132,0.051-0.251,0.134-0.341c0-0.123,0.044-0.245,0.134-0.342
					c0.189-0.202,0.504-0.212,0.707-0.024l0.366,0.341c0.15,0.14,0.199,0.358,0.124,0.549C22.89,18.875,22.706,19,22.5,19z"/>
			</g>
			<g>
				<path d="M20.442,17.08c-0.122,0-0.245-0.044-0.341-0.134l-0.846-0.79c-0.202-0.188-0.213-0.505-0.024-0.707
					c0.189-0.201,0.504-0.212,0.707-0.024l0.846,0.79c0.202,0.188,0.213,0.505,0.024,0.707C20.709,17.026,20.576,17.08,20.442,17.08
					z M17.904,14.71c-0.122,0-0.245-0.044-0.341-0.134l-0.846-0.79c-0.202-0.188-0.213-0.505-0.024-0.707
					c0.189-0.201,0.505-0.212,0.707-0.024l0.846,0.79c0.202,0.188,0.213,0.505,0.024,0.707C18.171,14.657,18.038,14.71,17.904,14.71
					z"/>
			</g>
			<g>
				<path d="M15.366,12.341c-0.122,0-0.245-0.044-0.341-0.134L15,12.184l-0.024,0.023c-0.203,0.188-0.518,0.177-0.707-0.024
					c-0.188-0.202-0.177-0.519,0.024-0.707l0.366-0.341c0.192-0.179,0.49-0.179,0.683,0l0.366,0.341
					c0.202,0.188,0.212,0.505,0.024,0.707C15.633,12.288,15.5,12.341,15.366,12.341z"/>
			</g>
			<g>
				<path d="M9.558,17.079c-0.134,0-0.267-0.053-0.366-0.159c-0.188-0.202-0.177-0.519,0.024-0.707l0.846-0.79
					c0.202-0.188,0.518-0.177,0.707,0.024c0.188,0.202,0.177,0.519-0.024,0.707l-0.846,0.79C9.802,17.035,9.68,17.079,9.558,17.079z
					 M12.096,14.71c-0.134,0-0.267-0.053-0.366-0.159c-0.188-0.202-0.177-0.519,0.024-0.707l0.846-0.79
					c0.203-0.188,0.518-0.177,0.707,0.024c0.188,0.202,0.177,0.519-0.024,0.707l-0.846,0.79
					C12.341,14.666,12.218,14.71,12.096,14.71z"/>
			</g>
			<g>
				<path d="M8,19H7.5c-0.206,0-0.39-0.125-0.465-0.317c-0.075-0.191-0.026-0.409,0.124-0.549l0.366-0.341
					c0.203-0.188,0.518-0.177,0.707,0.024c0.09,0.097,0.134,0.219,0.134,0.342C8.449,18.249,8.5,18.368,8.5,18.5
					C8.5,18.776,8.276,19,8,19z"/>
			</g>
			<g>
				<path d="M10.5,19.5c-0.276,0-0.5-0.224-0.5-0.5c-0.276,0-0.5-0.224-0.5-0.5S9.724,18,10,18h0.5c0.276,0,0.5,0.224,0.5,0.5V19
					C11,19.276,10.776,19.5,10.5,19.5z"/>
			</g>
			<g>
				<path d="M10.5,22.5c-0.276,0-0.5-0.224-0.5-0.5v-1c0-0.276,0.224-0.5,0.5-0.5S11,20.724,11,21v1
					C11,22.276,10.776,22.5,10.5,22.5z"/>
			</g>
			<g>
				<path d="M11,25h-0.5c-0.276,0-0.5-0.224-0.5-0.5V24c0-0.276,0.224-0.5,0.5-0.5S11,23.724,11,24c0.276,0,0.5,0.224,0.5,0.5
					S11.276,25,11,25z"/>
			</g>
			<g>
				<path d="M17,25h-1c-0.276,0-0.5-0.224-0.5-0.5S15.724,24,16,24h1c0.276,0,0.5,0.224,0.5,0.5S17.276,25,17,25z M14,25h-1
					c-0.276,0-0.5-0.224-0.5-0.5S12.724,24,13,24h1c0.276,0,0.5,0.224,0.5,0.5S14.276,25,14,25z"/>
			</g>
			<g>
				<path d="M19.5,25H19c-0.276,0-0.5-0.224-0.5-0.5S18.724,24,19,24c0-0.276,0.224-0.5,0.5-0.5S20,23.724,20,24v0.5
					C20,24.776,19.776,25,19.5,25z"/>
			</g>
			<g>
				<path d="M19.5,22.5c-0.276,0-0.5-0.224-0.5-0.5v-1c0-0.276,0.224-0.5,0.5-0.5S20,20.724,20,21v1
					C20,22.276,19.776,22.5,19.5,22.5z"/>
			</g>
		</g>
	</g>
</g>
<g id="Blueprint">
</g>
<g id="Construction_Plan">
</g>
<g id="Roof_Plan">
</g>
<g id="House_Construction">
</g>
<g id="Building_Construction">
</g>
<g id="Work_Table">
</g>
<g id="Table_Cad">
</g>
<g id="House_Plan">
</g>
<g id="Tape_Measure">
</g>
<g id="Cad_Paper">
</g>
<g id="Cad_Papers">
</g>
<g id="Stairs">
</g>
<g id="Pillar">
</g>
<g id="Bricks">
</g>
<g id="Pantheon">
</g>
<g id="House">
</g>
<g id="Skyscraper">
</g>
<g id="Building">
</g>
</svg>
