<?xml version="1.0" encoding="iso-8859-1"?>
<!-- Generator: Adobe Illustrator 19.2.1, SVG Export Plug-In . SVG Version: 6.00 Build 0)  -->
<svg version="1.1" xmlns="http://www.w3.org/2000/svg" xmlns:xlink="http://www.w3.org/1999/xlink" x="0px" y="0px"
	 viewBox="0 0 30 30" style="enable-background:new 0 0 30 30;" xml:space="preserve">
<g id="Cad_1">
</g>
<g id="Cad_2">
</g>
<g id="Cad_Pencil">
</g>
<g id="Cad_Compasses">
</g>
<g id="Tools_1">
</g>
<g id="Tools_2">
</g>
<g id="Ruler_1">
</g>
<g id="Ruler_2">
</g>
<g id="Workspace_1">
</g>
<g id="Workspace_2">
</g>
<g id="Cad_3">
</g>
<g id="_x33_D_Box">
</g>
<g id="Section_Symbol">
</g>
<g id="Outlet_Symbol">
</g>
<g id="Cad_File">
</g>
<g id="Blueprint">
</g>
<g id="Construction_Plan">
</g>
<g id="Roof_Plan">
</g>
<g id="House_Construction">
	<g>
		<g>
			<path d="M24.5,29h-10c-0.276,0-0.5-0.224-0.5-0.5s0.224-0.5,0.5-0.5H24V14.5c0-0.276,0.224-0.5,0.5-0.5s0.5,0.224,0.5,0.5v14
				C25,28.776,24.776,29,24.5,29z"/>
		</g>
		<g>
			<path d="M14.5,29h-1.75c-0.276,0-0.5-0.224-0.5-0.5s0.224-0.5,0.5-0.5h1.75c0.276,0,0.5,0.224,0.5,0.5S14.776,29,14.5,29z
				 M10.75,29h-2c-0.276,0-0.5-0.224-0.5-0.5S8.474,28,8.75,28h2c0.276,0,0.5,0.224,0.5,0.5S11.026,29,10.75,29z M6.75,29h-2
				c-0.276,0-0.5-0.224-0.5-0.5S4.474,28,4.75,28h2c0.276,0,0.5,0.224,0.5,0.5S7.026,29,6.75,29z M4.5,27.25
				c-0.276,0-0.5-0.224-0.5-0.5v-2c0-0.276,0.224-0.5,0.5-0.5S5,24.474,5,24.75v2C5,27.026,4.776,27.25,4.5,27.25z M4.5,23.25
				c-0.276,0-0.5-0.224-0.5-0.5v-2c0-0.276,0.224-0.5,0.5-0.5S5,20.474,5,20.75v2C5,23.026,4.776,23.25,4.5,23.25z M4.5,19.25
				c-0.276,0-0.5-0.224-0.5-0.5v-2c0-0.276,0.224-0.5,0.5-0.5S5,16.474,5,16.75v2C5,19.026,4.776,19.25,4.5,19.25z"/>
		</g>
		<g>
			<path d="M27.5,15h-13c-0.276,0-0.5-0.224-0.5-0.5s0.224-0.5,0.5-0.5h11.793L14.146,1.854c-0.195-0.195-0.195-0.512,0-0.707
				s0.512-0.195,0.707,0l13,13c0.143,0.143,0.186,0.358,0.108,0.545S27.702,15,27.5,15z"/>
		</g>
		<g>
			<g>
				<path d="M13.793,2.707c-0.128,0-0.256-0.049-0.354-0.146c-0.195-0.195-0.195-0.512,0-0.707l0.707-0.707
					c0.195-0.195,0.512-0.195,0.707,0s0.195,0.512,0,0.707l-0.707,0.707C14.049,2.658,13.921,2.707,13.793,2.707z"/>
			</g>
			<g>
				<path d="M3.494,13.005c-0.128,0-0.256-0.049-0.354-0.146c-0.195-0.195-0.195-0.512,0-0.707l1.288-1.287
					c0.195-0.195,0.512-0.195,0.707,0s0.195,0.512,0,0.707l-1.288,1.287C3.75,12.957,3.622,13.005,3.494,13.005z M6.069,10.431
					c-0.128,0-0.256-0.049-0.354-0.146c-0.195-0.195-0.195-0.512,0-0.707L7.003,8.29c0.195-0.195,0.512-0.195,0.707,0
					s0.195,0.512,0,0.707l-1.287,1.288C6.325,10.382,6.197,10.431,6.069,10.431z M8.644,7.856c-0.128,0-0.256-0.049-0.354-0.146
					c-0.195-0.195-0.195-0.512,0-0.707l1.288-1.287c0.195-0.195,0.512-0.195,0.707,0s0.195,0.512,0,0.707L8.997,7.71
					C8.899,7.808,8.771,7.856,8.644,7.856z M11.219,5.282c-0.128,0-0.256-0.049-0.354-0.146c-0.195-0.195-0.195-0.512,0-0.707
					l1.287-1.287c0.195-0.195,0.512-0.195,0.707,0s0.195,0.512,0,0.707l-1.287,1.287C11.475,5.233,11.347,5.282,11.219,5.282z"/>
			</g>
			<g>
				<path d="M2.5,15h-1c-0.202,0-0.385-0.122-0.462-0.309s-0.034-0.402,0.108-0.545l0.707-0.707c0.195-0.195,0.512-0.195,0.707,0
					c0.158,0.158,0.188,0.396,0.091,0.584C2.854,14.087,3,14.276,3,14.5C3,14.776,2.776,15,2.5,15z"/>
			</g>
			<g>
				<path d="M11.3,15H9.101c-0.276,0-0.5-0.224-0.5-0.5s0.224-0.5,0.5-0.5H11.3c0.276,0,0.5,0.224,0.5,0.5S11.576,15,11.3,15z
					 M6.9,15H4.7c-0.276,0-0.5-0.224-0.5-0.5S4.424,14,4.7,14h2.2c0.276,0,0.5,0.224,0.5,0.5S7.177,15,6.9,15z"/>
			</g>
			<g>
				<path d="M14.5,15h-1c-0.276,0-0.5-0.224-0.5-0.5s0.224-0.5,0.5-0.5h1c0.276,0,0.5,0.224,0.5,0.5S14.776,15,14.5,15z"/>
			</g>
		</g>
		<g>
			<path d="M14.5,30c-0.276,0-0.5-0.224-0.5-0.5v-29C14,0.224,14.224,0,14.5,0S15,0.224,15,0.5v29C15,29.776,14.776,30,14.5,30z"/>
		</g>
	</g>
</g>
<g id="Building_Construction">
</g>
<g id="Work_Table">
</g>
<g id="Table_Cad">
</g>
<g id="House_Plan">
</g>
<g id="Tape_Measure">
</g>
<g id="Cad_Paper">
</g>
<g id="Cad_Papers">
</g>
<g id="Stairs">
</g>
<g id="Pillar">
</g>
<g id="Bricks">
</g>
<g id="Pantheon">
</g>
<g id="House">
</g>
<g id="Skyscraper">
</g>
<g id="Building">
</g>
</svg>
