<?xml version="1.0" encoding="iso-8859-1"?>
<!-- Generator: Adobe Illustrator 19.2.1, SVG Export Plug-In . SVG Version: 6.00 Build 0)  -->
<svg version="1.1" xmlns="http://www.w3.org/2000/svg" xmlns:xlink="http://www.w3.org/1999/xlink" x="0px" y="0px"
	 viewBox="0 0 30 30" style="enable-background:new 0 0 30 30;" xml:space="preserve">
<g id="Cad_1">
</g>
<g id="Cad_2">
</g>
<g id="Cad_Pencil">
</g>
<g id="Cad_Compasses">
</g>
<g id="Tools_1">
</g>
<g id="Tools_2">
</g>
<g id="Ruler_1">
</g>
<g id="Ruler_2">
</g>
<g id="Workspace_1">
</g>
<g id="Workspace_2">
</g>
<g id="Cad_3">
</g>
<g id="_x33_D_Box">
</g>
<g id="Section_Symbol">
</g>
<g id="Outlet_Symbol">
</g>
<g id="Cad_File">
</g>
<g id="Blueprint">
</g>
<g id="Construction_Plan">
</g>
<g id="Roof_Plan">
	<g>
		<g>
			<path d="M26.5,30h-23C3.224,30,3,29.776,3,29.5v-15C3,14.224,3.224,14,3.5,14S4,14.224,4,14.5V29h22V14.5
				c0-0.276,0.224-0.5,0.5-0.5s0.5,0.224,0.5,0.5v15C27,29.776,26.776,30,26.5,30z"/>
		</g>
		<g>
			<g>
				<path d="M29.5,15h-1c-0.276,0-0.5-0.224-0.5-0.5c0-0.217,0.139-0.403,0.333-0.471c-0.092-0.185-0.063-0.414,0.088-0.571
					c0.192-0.197,0.508-0.205,0.707-0.013l0.72,0.695c0.146,0.142,0.192,0.358,0.116,0.547C29.888,14.876,29.704,15,29.5,15z"/>
			</g>
			<g>
				<path d="M27.329,12.904c-0.125,0-0.25-0.046-0.348-0.14l-1.451-1.401c-0.198-0.192-0.204-0.509-0.012-0.707
					s0.508-0.204,0.707-0.013l1.451,1.401c0.198,0.192,0.204,0.509,0.012,0.707C27.591,12.853,27.46,12.904,27.329,12.904z
					 M24.427,10.102c-0.125,0-0.25-0.046-0.348-0.14l-1.451-1.401c-0.198-0.192-0.204-0.508-0.012-0.707
					c0.191-0.198,0.508-0.204,0.707-0.013l1.451,1.401c0.198,0.192,0.204,0.508,0.012,0.707
					C24.688,10.05,24.558,10.102,24.427,10.102z M21.524,7.299c-0.125,0-0.25-0.046-0.348-0.14l-1.451-1.401
					c-0.198-0.192-0.204-0.509-0.012-0.707c0.191-0.198,0.508-0.204,0.707-0.013l1.451,1.401c0.198,0.192,0.204,0.509,0.012,0.707
					C21.786,7.248,21.655,7.299,21.524,7.299z M18.622,4.497c-0.125,0-0.25-0.046-0.348-0.14l-1.451-1.401
					c-0.198-0.192-0.204-0.508-0.012-0.707c0.191-0.198,0.508-0.204,0.707-0.013l1.451,1.401c0.198,0.192,0.204,0.508,0.012,0.707
					C18.884,4.445,18.753,4.497,18.622,4.497z"/>
			</g>
			<g>
				<path d="M15.72,1.695c-0.125,0-0.25-0.046-0.348-0.14L15,1.195l-0.372,0.36c-0.199,0.192-0.515,0.187-0.707-0.013
					c-0.192-0.199-0.187-0.515,0.012-0.707l0.72-0.695c0.195-0.187,0.5-0.187,0.695,0l0.72,0.695
					c0.198,0.192,0.204,0.508,0.012,0.707C15.981,1.644,15.851,1.695,15.72,1.695z"/>
			</g>
			<g>
				<path d="M2.671,12.904c-0.131,0-0.262-0.051-0.359-0.153c-0.192-0.199-0.187-0.515,0.012-0.707l1.451-1.401
					c0.2-0.191,0.517-0.186,0.707,0.013c0.192,0.199,0.187,0.515-0.012,0.707l-1.451,1.401C2.921,12.858,2.796,12.904,2.671,12.904z
					 M5.573,10.102c-0.131,0-0.262-0.051-0.359-0.153C5.021,9.751,5.027,9.434,5.226,9.242l1.451-1.401
					c0.2-0.191,0.517-0.186,0.707,0.013C7.576,8.052,7.57,8.369,7.372,8.561L5.921,9.962C5.823,10.056,5.698,10.102,5.573,10.102z
					 M8.476,7.299c-0.131,0-0.262-0.051-0.359-0.153C7.924,6.948,7.93,6.631,8.128,6.439l1.451-1.401
					c0.2-0.191,0.517-0.185,0.707,0.013c0.192,0.199,0.187,0.515-0.012,0.707L8.823,7.159C8.726,7.253,8.601,7.299,8.476,7.299z
					 M11.378,4.497c-0.131,0-0.262-0.051-0.359-0.153c-0.192-0.198-0.187-0.515,0.012-0.707l1.451-1.401
					c0.2-0.191,0.517-0.186,0.707,0.013c0.192,0.198,0.187,0.515-0.012,0.707l-1.451,1.401C11.628,4.451,11.503,4.497,11.378,4.497z
					"/>
			</g>
			<g>
				<path d="M1.5,15h-1c-0.204,0-0.388-0.124-0.464-0.313c-0.076-0.189-0.03-0.406,0.116-0.547l0.72-0.695
					c0.2-0.192,0.517-0.185,0.707,0.013c0.151,0.157,0.18,0.386,0.088,0.571C1.861,14.097,2,14.283,2,14.5C2,14.776,1.776,15,1.5,15
					z"/>
			</g>
			<g>
				<path d="M26.423,15h-2.076c-0.276,0-0.5-0.224-0.5-0.5s0.224-0.5,0.5-0.5h2.076c0.276,0,0.5,0.224,0.5,0.5S26.699,15,26.423,15z
					 M22.27,15h-2.077c-0.276,0-0.5-0.224-0.5-0.5s0.224-0.5,0.5-0.5h2.077c0.276,0,0.5,0.224,0.5,0.5S22.546,15,22.27,15z
					 M18.115,15h-2.076c-0.276,0-0.5-0.224-0.5-0.5s0.224-0.5,0.5-0.5h2.076c0.276,0,0.5,0.224,0.5,0.5S18.392,15,18.115,15z
					 M13.962,15h-2.077c-0.276,0-0.5-0.224-0.5-0.5s0.224-0.5,0.5-0.5h2.077c0.276,0,0.5,0.224,0.5,0.5S14.238,15,13.962,15z
					 M9.808,15H7.731c-0.276,0-0.5-0.224-0.5-0.5s0.224-0.5,0.5-0.5h2.076c0.276,0,0.5,0.224,0.5,0.5S10.084,15,9.808,15z M5.654,15
					H3.577c-0.276,0-0.5-0.224-0.5-0.5s0.224-0.5,0.5-0.5h2.077c0.276,0,0.5,0.224,0.5,0.5S5.931,15,5.654,15z"/>
			</g>
		</g>
		<g>
			<path d="M18.5,30h-7c-0.276,0-0.5-0.224-0.5-0.5v-9c0-0.276,0.224-0.5,0.5-0.5h7c0.276,0,0.5,0.224,0.5,0.5v9
				C19,29.776,18.776,30,18.5,30z M12,29h6v-8h-6V29z"/>
		</g>
	</g>
</g>
<g id="House_Construction">
</g>
<g id="Building_Construction">
</g>
<g id="Work_Table">
</g>
<g id="Table_Cad">
</g>
<g id="House_Plan">
</g>
<g id="Tape_Measure">
</g>
<g id="Cad_Paper">
</g>
<g id="Cad_Papers">
</g>
<g id="Stairs">
</g>
<g id="Pillar">
</g>
<g id="Bricks">
</g>
<g id="Pantheon">
</g>
<g id="House">
</g>
<g id="Skyscraper">
</g>
<g id="Building">
</g>
</svg>
