<?xml version="1.0" encoding="iso-8859-1"?>
<!-- Generator: Adobe Illustrator 19.2.1, SVG Export Plug-In . SVG Version: 6.00 Build 0)  -->
<svg version="1.1" xmlns="http://www.w3.org/2000/svg" xmlns:xlink="http://www.w3.org/1999/xlink" x="0px" y="0px"
	 viewBox="0 0 30 30" style="enable-background:new 0 0 30 30;" xml:space="preserve">
<g id="Cad_1">
</g>
<g id="Cad_2">
</g>
<g id="Cad_Pencil">
</g>
<g id="Cad_Compasses">
</g>
<g id="Tools_1">
</g>
<g id="Tools_2">
</g>
<g id="Ruler_1">
	<g>
		<g>
			<path d="M15.7,19.7c-0.128,0-0.256-0.049-0.354-0.146l-4.9-4.9c-0.195-0.195-0.195-0.512,0-0.707s0.512-0.195,0.707,0l4.9,4.9
				c0.195,0.195,0.195,0.512,0,0.707C15.956,19.651,15.828,19.7,15.7,19.7z"/>
		</g>
		<g>
			<path d="M29.5,30h-29C0.224,30,0,29.776,0,29.5v-7C0,22.224,0.224,22,0.5,22h29c0.276,0,0.5,0.224,0.5,0.5v7
				C30,29.776,29.776,30,29.5,30z M1,29h28v-6H1V29z"/>
		</g>
		<g>
			<path d="M9.5,21c-0.132,0-0.259-0.052-0.354-0.146c-0.116-0.117-0.168-0.283-0.138-0.445l1.063-5.69
				c0.164-0.507,0.415-0.913,0.741-1.239L23.78,0.513c0.682-0.683,1.793-0.683,2.475,0l3.232,3.232c0.683,0.682,0.683,1.793,0,2.475
				L16.521,19.186c-0.328,0.328-0.733,0.579-1.172,0.725l-5.757,1.081C9.562,20.997,9.53,21,9.5,21z M25.018,1
				c-0.192,0-0.384,0.073-0.53,0.219L11.521,14.186c-0.218,0.218-0.385,0.488-0.482,0.783l-0.913,4.906l4.974-0.93
				c0.226-0.08,0.496-0.247,0.715-0.466L28.78,5.513c0.292-0.292,0.292-0.769,0-1.061L25.548,1.22l0,0
				C25.401,1.074,25.21,1,25.018,1z"/>
		</g>
		<g>
			<path d="M3.5,25.5C3.224,25.5,3,25.276,3,25v-2.5C3,22.224,3.224,22,3.5,22S4,22.224,4,22.5V25C4,25.276,3.776,25.5,3.5,25.5z"/>
		</g>
		<g>
			<path d="M6.5,25.5C6.224,25.5,6,25.276,6,25v-2.5C6,22.224,6.224,22,6.5,22S7,22.224,7,22.5V25C7,25.276,6.776,25.5,6.5,25.5z"/>
		</g>
		<g>
			<path d="M9.5,27C9.224,27,9,26.776,9,26.5v-4C9,22.224,9.224,22,9.5,22s0.5,0.224,0.5,0.5v4C10,26.776,9.776,27,9.5,27z"/>
		</g>
		<g>
			<path d="M12.5,25.5c-0.276,0-0.5-0.224-0.5-0.5v-2.5c0-0.276,0.224-0.5,0.5-0.5s0.5,0.224,0.5,0.5V25
				C13,25.276,12.776,25.5,12.5,25.5z"/>
		</g>
		<g>
			<path d="M15.5,25.5c-0.276,0-0.5-0.224-0.5-0.5v-2.5c0-0.276,0.224-0.5,0.5-0.5s0.5,0.224,0.5,0.5V25
				C16,25.276,15.776,25.5,15.5,25.5z"/>
		</g>
		<g>
			<path d="M18.5,27c-0.276,0-0.5-0.224-0.5-0.5v-4c0-0.276,0.224-0.5,0.5-0.5s0.5,0.224,0.5,0.5v4C19,26.776,18.776,27,18.5,27z"/>
		</g>
		<g>
			<path d="M21.5,25.5c-0.276,0-0.5-0.224-0.5-0.5v-2.5c0-0.276,0.224-0.5,0.5-0.5s0.5,0.224,0.5,0.5V25
				C22,25.276,21.776,25.5,21.5,25.5z"/>
		</g>
		<g>
			<path d="M24.5,25.5c-0.276,0-0.5-0.224-0.5-0.5v-2.5c0-0.276,0.224-0.5,0.5-0.5s0.5,0.224,0.5,0.5V25
				C25,25.276,24.776,25.5,24.5,25.5z"/>
		</g>
		<g>
			<path d="M27.5,27c-0.276,0-0.5-0.224-0.5-0.5v-4c0-0.276,0.224-0.5,0.5-0.5s0.5,0.224,0.5,0.5v4C28,26.776,27.776,27,27.5,27z"/>
		</g>
	</g>
</g>
<g id="Ruler_2">
</g>
<g id="Workspace_1">
</g>
<g id="Workspace_2">
</g>
<g id="Cad_3">
</g>
<g id="_x33_D_Box">
</g>
<g id="Section_Symbol">
</g>
<g id="Outlet_Symbol">
</g>
<g id="Cad_File">
</g>
<g id="Blueprint">
</g>
<g id="Construction_Plan">
</g>
<g id="Roof_Plan">
</g>
<g id="House_Construction">
</g>
<g id="Building_Construction">
</g>
<g id="Work_Table">
</g>
<g id="Table_Cad">
</g>
<g id="House_Plan">
</g>
<g id="Tape_Measure">
</g>
<g id="Cad_Paper">
</g>
<g id="Cad_Papers">
</g>
<g id="Stairs">
</g>
<g id="Pillar">
</g>
<g id="Bricks">
</g>
<g id="Pantheon">
</g>
<g id="House">
</g>
<g id="Skyscraper">
</g>
<g id="Building">
</g>
</svg>
