<?xml version="1.0" encoding="iso-8859-1"?>
<!-- Generator: Adobe Illustrator 19.2.1, SVG Export Plug-In . SVG Version: 6.00 Build 0)  -->
<svg version="1.1" id="Layer_1" xmlns="http://www.w3.org/2000/svg" xmlns:xlink="http://www.w3.org/1999/xlink" x="0px" y="0px"
	 viewBox="0 0 30 30" style="enable-background:new 0 0 30 30;" xml:space="preserve">
<g>
	<g>
		<path d="M23,18.5H11c-0.276,0-0.5,0.224-0.5,0.5s0.224,0.5,0.5,0.5h12c0.276,0,0.5-0.224,0.5-0.5S23.276,18.5,23,18.5z M20,23.5
			h-9c-0.276,0-0.5,0.224-0.5,0.5s0.224,0.5,0.5,0.5h9c0.276,0,0.5-0.224,0.5-0.5S20.276,23.5,20,23.5z M26,0.5H4
			C3.173,0.5,2.5,1.173,2.5,2v26c0,0.827,0.673,1.5,1.5,1.5h22c0.827,0,1.5-0.673,1.5-1.5V2C27.5,1.173,26.827,0.5,26,0.5z M26.5,28
			c0,0.276-0.225,0.5-0.5,0.5H4c-0.275,0-0.5-0.224-0.5-0.5v-3.5h1.092c0.207,0.581,0.757,1,1.408,1c0.827,0,1.5-0.673,1.5-1.5
			c0-0.827-0.673-1.5-1.5-1.5c-0.651,0-1.201,0.419-1.408,1H3.5v-5h1.092c0.207,0.581,0.757,1,1.408,1c0.827,0,1.5-0.673,1.5-1.5
			c0-0.827-0.673-1.5-1.5-1.5c-0.651,0-1.201,0.419-1.408,1H3.5v-5h1.092c0.207,0.581,0.757,1,1.408,1c0.827,0,1.5-0.673,1.5-1.5
			c0-0.827-0.673-1.5-1.5-1.5c-0.651,0-1.201,0.419-1.408,1H3.5v-5h1.092c0.207,0.581,0.757,1,1.408,1c0.827,0,1.5-0.673,1.5-1.5
			c0-0.827-0.673-1.5-1.5-1.5c-0.651,0-1.201,0.419-1.408,1H3.5V2c0-0.276,0.225-0.5,0.5-0.5h22c0.275,0,0.5,0.224,0.5,0.5V28z
			 M5.5,24c0-0.276,0.225-0.5,0.5-0.5c0.275,0,0.5,0.224,0.5,0.5S6.275,24.5,6,24.5C5.725,24.5,5.5,24.276,5.5,24z M5.5,18
			c0-0.276,0.225-0.5,0.5-0.5c0.275,0,0.5,0.224,0.5,0.5S6.275,18.5,6,18.5C5.725,18.5,5.5,18.276,5.5,18z M5.5,12
			c0-0.276,0.225-0.5,0.5-0.5c0.275,0,0.5,0.224,0.5,0.5S6.275,12.5,6,12.5C5.725,12.5,5.5,12.276,5.5,12z M5.5,6
			c0-0.276,0.225-0.5,0.5-0.5c0.275,0,0.5,0.224,0.5,0.5S6.275,6.5,6,6.5C5.725,6.5,5.5,6.276,5.5,6z M23,13.5H11
			c-0.276,0-0.5,0.224-0.5,0.5s0.224,0.5,0.5,0.5h12c0.276,0,0.5-0.224,0.5-0.5S23.276,13.5,23,13.5z M23,8.5H11
			c-0.276,0-0.5,0.224-0.5,0.5s0.224,0.5,0.5,0.5h12c0.276,0,0.5-0.224,0.5-0.5S23.276,8.5,23,8.5z"/>
	</g>
</g>
</svg>
