<?xml version="1.0" encoding="iso-8859-1"?>
<!-- Generator: Adobe Illustrator 19.2.1, SVG Export Plug-In . SVG Version: 6.00 Build 0)  -->
<svg version="1.1" xmlns="http://www.w3.org/2000/svg" xmlns:xlink="http://www.w3.org/1999/xlink" x="0px" y="0px"
	 viewBox="0 0 30 30" style="enable-background:new 0 0 30 30;" xml:space="preserve">
<g id="Egg">
</g>
<g id="Easter_Egg_1">
</g>
<g id="Easter_Egg_2">
</g>
<g id="Easter_Egg_3_1_">
</g>
<g id="Eggs_1_1_">
</g>
<g id="Eggs_2">
</g>
<g id="Bunny_1_">
</g>
<g id="Sheep_1_">
</g>
<g id="Bell_Alarm">
</g>
<g id="Calendar">
</g>
<g id="Tulip">
</g>
<g id="Chicken">
</g>
<g id="Chicken_2_1_">
</g>
<g id="Baguette_1_">
</g>
<g id="Ham_1_">
</g>
<g id="Bell_2">
</g>
<g id="Bell_3">
</g>
<g id="Bell_4">
	<g>
		<g>
			<path d="M22.708,27.479c-0.049,0-0.097-0.007-0.143-0.021c-5.381-1.604-10.612-1.614-15.991-0.03
				c-0.066,0.032-0.142,0.051-0.221,0.051c-1.584,0-2.973-1.412-2.973-3.022c0-1.503,1.438-2.682,2.619-2.959v-7.758
				c0-2.435,0.936-4.683,2.634-6.332c1.641-1.592,3.823-2.425,6.133-2.36C19.384,5.187,23,9.155,23,14.083v7.414
				c1.185,0.277,2.626,1.456,2.626,2.959C25.626,26.066,24.263,27.479,22.708,27.479z M14.519,25.246c2.74,0,5.479,0.41,8.258,1.231
				c0.993-0.041,1.85-0.968,1.85-2.021c0-1.106-1.407-2.021-2.126-2.021c-0.276,0-0.5-0.224-0.5-0.5v-7.852
				c0-4.384-3.19-7.914-7.263-8.036c-2.067-0.074-3.963,0.677-5.406,2.078C7.828,9.584,7,11.578,7,13.739v8.195
				c0,0.276-0.224,0.5-0.5,0.5c-0.716,0-2.119,0.915-2.119,2.021c0,1.121,0.977,1.968,1.884,2.02
				C9.041,25.656,11.78,25.246,14.519,25.246z"/>
		</g>
		<g>
			<path d="M20.174,14.583c-0.276,0-0.5-0.224-0.5-0.5c0-2.958-2.248-5.432-5.011-5.515l-0.17-0.002
				C14.217,8.562,13.996,8.334,14,8.059c0.004-0.274,0.227-0.493,0.5-0.493c0.002,0,0.005,0,0.007,0l0.178,0.002
				c3.306,0.099,5.989,3.021,5.989,6.515C20.674,14.359,20.45,14.583,20.174,14.583z"/>
		</g>
		<g>
			<path d="M14.5,6C14.224,6,14,5.776,14,5.5v-5C14,0.224,14.224,0,14.5,0S15,0.224,15,0.5v5C15,5.776,14.776,6,14.5,6z"/>
		</g>
		<g>
			<path d="M14.5,30c-1.318,0-2.392-1.073-2.392-2.392s1.073-2.391,2.392-2.391s2.392,1.072,2.392,2.391S15.818,30,14.5,30z
				 M14.5,26.218c-0.768,0-1.392,0.624-1.392,1.391c0,0.768,0.624,1.392,1.392,1.392s1.392-0.624,1.392-1.392
				C15.892,26.842,15.268,26.218,14.5,26.218z"/>
		</g>
		<g>
			<path d="M14.5,4h-3.152C10.41,4,9.587,3.126,9.587,2.13V1.946C9.587,1.025,10.31,0,11.348,0h0.108
				c0.507,0,0.888,0.39,1.166,0.675l0.079,0.08l2.171,2.411c0.132,0.147,0.165,0.357,0.085,0.538C14.876,3.884,14.697,4,14.5,4z
				 M11.452,1h-0.104c-0.377,0-0.761,0.478-0.761,0.946V2.13c0,0.447,0.37,0.87,0.761,0.87h2.029l-1.47-1.626
				C11.802,1.266,11.557,1.015,11.452,1z"/>
		</g>
		<g>
			<path d="M17.652,4H14.5c-0.197,0-0.376-0.116-0.457-0.296c-0.08-0.181-0.047-0.391,0.085-0.538l2.25-2.491
				C16.656,0.39,17.037,0,17.544,0h0.108c1.038,0,1.761,1.025,1.761,1.946V2.13C19.413,3.126,18.59,4,17.652,4z M15.622,3h2.03
				c0.391,0,0.761-0.423,0.761-0.87V1.946C18.413,1.478,18.029,1,17.652,1h-0.108c-0.101,0.015-0.346,0.266-0.451,0.374
				l-0.087,0.088L15.622,3z"/>
		</g>
	</g>
</g>
<g id="Easter_celebration">
</g>
<g id="Egg_painting">
</g>
<g id="Easter_willow">
</g>
<g id="Daffodil">
</g>
<g id="Easter_message">
</g>
<g id="Bunny_2">
</g>
<g id="Chicken_3">
</g>
<g id="Tulip_2">
</g>
<g id="Easter_basket">
</g>
<g id="Bread_and_wine">
</g>
<g id="Sheep_2">
</g>
<g id="Candle_Light">
</g>
</svg>
