<?xml version="1.0" encoding="iso-8859-1"?>
<!-- Generator: Adobe Illustrator 19.2.1, SVG Export Plug-In . SVG Version: 6.00 Build 0)  -->
<svg version="1.1" xmlns="http://www.w3.org/2000/svg" xmlns:xlink="http://www.w3.org/1999/xlink" x="0px" y="0px"
	 viewBox="0 0 30 30" style="enable-background:new 0 0 30 30;" xml:space="preserve">
<g id="Egg">
</g>
<g id="Easter_Egg_1">
</g>
<g id="Easter_Egg_2">
</g>
<g id="Easter_Egg_3_1_">
</g>
<g id="Eggs_1_1_">
</g>
<g id="Eggs_2">
</g>
<g id="Bunny_1_">
</g>
<g id="Sheep_1_">
</g>
<g id="Bell_Alarm">
</g>
<g id="Calendar">
</g>
<g id="Tulip">
</g>
<g id="Chicken">
</g>
<g id="Chicken_2_1_">
</g>
<g id="Baguette_1_">
</g>
<g id="Ham_1_">
</g>
<g id="Bell_2">
	<g>
		<g>
			<path d="M25.616,26H4.384c-0.713,0-1.365-0.398-1.661-1.014c-0.277-0.577-0.199-1.227,0.21-1.738l1.948-2.422
				C5.623,19.899,6,18.679,6,17.201v-5.984c0-4.377,3.701-7.435,9-7.435s9,3.057,9,7.435v5.984c0,1.462,0.366,2.631,1.12,3.572
				l1.879,2.485c0.415,0.519,0.499,1.184,0.218,1.769C26.929,25.628,26.315,26,25.616,26z M15,4.783c-3.982,0-8,1.99-8,6.435v5.984
				c0,1.711-0.45,3.142-1.339,4.251l-1.948,2.422c-0.226,0.282-0.153,0.546-0.089,0.679C3.728,24.769,3.981,25,4.384,25h21.232
				c0.316,0,0.577-0.151,0.699-0.405c0.113-0.234,0.074-0.497-0.105-0.722l-1.879-2.485C23.438,20.271,23,18.899,23,17.201v-5.984
				C23,6.772,18.982,4.783,15,4.783z"/>
		</g>
		<g>
			<path d="M15,30c-1.379,0-2.5-1.121-2.5-2.5S13.621,25,15,25s2.5,1.121,2.5,2.5S16.379,30,15,30z M15,26
				c-0.827,0-1.5,0.673-1.5,1.5S14.173,29,15,29s1.5-0.673,1.5-1.5S15.827,26,15,26z"/>
		</g>
		<g>
			<path d="M9.312,4.783c-0.461,0-0.915-0.144-1.31-0.424C7.375,3.912,7,3.177,7,2.391c0-0.785,0.374-1.521,1.002-1.967
				c0.606-0.432,1.355-0.541,2.055-0.298l5.173,1.792c0.201,0.07,0.336,0.26,0.336,0.473s-0.135,0.403-0.336,0.473l-5.173,1.793
				C9.812,4.741,9.561,4.783,9.312,4.783z M9.315,1C9.057,1,8.803,1.082,8.581,1.239C8.212,1.502,8,1.922,8,2.391
				c0,0.47,0.212,0.89,0.582,1.153C8.92,3.785,9.338,3.847,9.729,3.712l3.81-1.321l-3.81-1.32C9.593,1.024,9.453,1,9.315,1z"/>
		</g>
		<g>
			<path d="M20.688,4.783c-0.249,0-0.5-0.042-0.745-0.127l-5.173-1.792c-0.201-0.07-0.336-0.26-0.336-0.473s0.135-0.403,0.336-0.473
				l5.173-1.792c0.698-0.241,1.447-0.134,2.055,0.298C22.626,0.871,23,1.606,23,2.391c0,0.786-0.375,1.521-1.002,1.968
				C21.604,4.639,21.149,4.783,20.688,4.783z M16.462,2.391l3.81,1.32c0.392,0.137,0.809,0.074,1.146-0.167
				C21.788,3.281,22,2.861,22,2.391c0-0.469-0.212-0.889-0.581-1.152c-0.34-0.241-0.756-0.302-1.147-0.168L16.462,2.391z"/>
		</g>
		<g>
			<path d="M15,4.5c-0.276,0-0.5-0.224-0.5-0.5V1c0-0.276,0.224-0.5,0.5-0.5s0.5,0.224,0.5,0.5v3C15.5,4.276,15.276,4.5,15,4.5z"/>
		</g>
	</g>
</g>
<g id="Bell_3">
</g>
<g id="Bell_4">
</g>
<g id="Easter_celebration">
</g>
<g id="Egg_painting">
</g>
<g id="Easter_willow">
</g>
<g id="Daffodil">
</g>
<g id="Easter_message">
</g>
<g id="Bunny_2">
</g>
<g id="Chicken_3">
</g>
<g id="Tulip_2">
</g>
<g id="Easter_basket">
</g>
<g id="Bread_and_wine">
</g>
<g id="Sheep_2">
</g>
<g id="Candle_Light">
</g>
</svg>
