<?xml version="1.0" encoding="iso-8859-1"?>
<!-- Generator: Adobe Illustrator 19.2.1, SVG Export Plug-In . SVG Version: 6.00 Build 0)  -->
<svg version="1.1" xmlns="http://www.w3.org/2000/svg" xmlns:xlink="http://www.w3.org/1999/xlink" x="0px" y="0px"
	 viewBox="0 0 30 30" style="enable-background:new 0 0 30 30;" xml:space="preserve">
<g id="Egg">
</g>
<g id="Easter_Egg_1">
</g>
<g id="Easter_Egg_2">
</g>
<g id="Easter_Egg_3_1_">
</g>
<g id="Eggs_1_1_">
</g>
<g id="Eggs_2">
</g>
<g id="Bunny_1_">
</g>
<g id="Sheep_1_">
</g>
<g id="Bell_Alarm">
	<g id="Bell">
		<g>
			<path d="M6.174,27.478c-2.014,0-3.652-1.638-3.652-3.652c0-1.379,0.773-2.625,2.019-3.252c0.244-0.123,0.546-0.026,0.671,0.222
				c0.124,0.247,0.025,0.547-0.222,0.672c-0.905,0.456-1.468,1.36-1.468,2.359c0,1.462,1.189,2.652,2.652,2.652
				c0.999,0,1.903-0.563,2.359-1.468c0.124-0.247,0.425-0.345,0.671-0.222c0.247,0.125,0.346,0.425,0.222,0.672
				C8.799,26.705,7.553,27.478,6.174,27.478z"/>
		</g>
		<g>
			<path d="M21.935,11.087c-0.149,0-0.298-0.067-0.396-0.195c-0.168-0.219-0.128-0.533,0.091-0.701C25.174,7.458,29,3.94,29,3.022
				C29,1.567,28.434,1,26.979,1c-0.919,0-4.438,3.826-7.169,7.371c-0.169,0.22-0.481,0.26-0.702,0.091
				c-0.219-0.168-0.259-0.482-0.091-0.701C20.42,5.94,25.141,0,26.979,0C28.983,0,30,1.017,30,3.022c0,1.836-5.939,6.558-7.76,7.961
				C22.148,11.053,22.041,11.087,21.935,11.087z"/>
		</g>
		<g>
			<path d="M14.369,30C12.489,30,0,17.511,0,15.63c0-0.473,0.154-0.862,0.458-1.158c0.7-0.682,2.008-0.646,3.168-0.615
				c0.228,0.006,0.448,0.012,0.656,0.012c0.786,0,1.319-0.568,2.556-1.967c0.555-0.628,1.245-1.41,2.135-2.299
				c1.184-1.184,3.083-2.678,5.411-3.075c2.376-0.404,4.615,0.417,6.644,2.445l0,0c2.028,2.028,2.851,4.263,2.444,6.644
				c-0.396,2.328-1.891,4.228-3.074,5.411c-0.891,0.89-1.672,1.581-2.3,2.135c-1.399,1.236-1.967,1.769-1.967,2.555
				c0,0.207,0.006,0.428,0.012,0.655c0.031,1.158,0.066,2.469-0.615,3.17C15.231,29.846,14.842,30,14.369,30z M2.873,14.844
				c-0.717,0-1.422,0.057-1.718,0.345C1.089,15.254,1,15.371,1,15.63c0.254,1.604,11.765,13.115,13.387,13.371
				c0.242-0.001,0.358-0.09,0.424-0.157c0.388-0.398,0.357-1.533,0.333-2.445c-0.007-0.236-0.013-0.466-0.013-0.682
				c0-1.268,0.867-2.035,2.305-3.304c0.618-0.546,1.387-1.225,2.255-2.093c1.081-1.081,2.443-2.803,2.796-4.873
				c0.349-2.042-0.381-3.983-2.166-5.768l0,0c-1.785-1.786-3.728-2.514-5.769-2.166c-2.068,0.353-3.791,1.715-4.872,2.796
				c-0.868,0.868-1.547,1.637-2.093,2.254C6.316,14.002,5.55,14.87,4.282,14.87c-0.216,0-0.446-0.006-0.684-0.013
				C3.366,14.851,3.118,14.844,2.873,14.844z"/>
		</g>
		<g>
			<path d="M4.404,17.39c-0.271,0-0.493-0.216-0.5-0.488c-0.007-0.276,0.212-0.505,0.488-0.512c1.886-0.045,2.966-1.269,4.334-2.818
				c0.558-0.631,1.19-1.347,2.029-2.187c0.909-0.91,2.74-2.435,4.783-2.435c1.277,0,2.489,0.59,3.705,1.805
				c0.195,0.195,0.195,0.512,0,0.707s-0.512,0.195-0.707,0c-1.019-1.017-1.999-1.512-2.998-1.512c-1.683,0-3.276,1.342-4.076,2.142
				c-0.817,0.818-1.438,1.521-1.986,2.142c-1.408,1.594-2.738,3.1-5.061,3.156C4.412,17.39,4.408,17.39,4.404,17.39z"/>
		</g>
	</g>
</g>
<g id="Calendar">
</g>
<g id="Tulip">
</g>
<g id="Chicken">
</g>
<g id="Chicken_2_1_">
</g>
<g id="Baguette_1_">
</g>
<g id="Ham_1_">
</g>
<g id="Bell_2">
</g>
<g id="Bell_3">
</g>
<g id="Bell_4">
</g>
<g id="Easter_celebration">
</g>
<g id="Egg_painting">
</g>
<g id="Easter_willow">
</g>
<g id="Daffodil">
</g>
<g id="Easter_message">
</g>
<g id="Bunny_2">
</g>
<g id="Chicken_3">
</g>
<g id="Tulip_2">
</g>
<g id="Easter_basket">
</g>
<g id="Bread_and_wine">
</g>
<g id="Sheep_2">
</g>
<g id="Candle_Light">
</g>
</svg>
