<?xml version="1.0" encoding="iso-8859-1"?>
<!-- Generator: Adobe Illustrator 19.2.1, SVG Export Plug-In . SVG Version: 6.00 Build 0)  -->
<svg version="1.1" xmlns="http://www.w3.org/2000/svg" xmlns:xlink="http://www.w3.org/1999/xlink" x="0px" y="0px"
	 viewBox="0 0 30 30" style="enable-background:new 0 0 30 30;" xml:space="preserve">
<g id="Egg">
</g>
<g id="Easter_Egg_1">
</g>
<g id="Easter_Egg_2">
</g>
<g id="Easter_Egg_3_1_">
</g>
<g id="Eggs_1_1_">
</g>
<g id="Eggs_2">
</g>
<g id="Bunny_1_">
</g>
<g id="Sheep_1_">
</g>
<g id="Bell_Alarm">
</g>
<g id="Calendar">
</g>
<g id="Tulip">
</g>
<g id="Chicken">
</g>
<g id="Chicken_2_1_">
</g>
<g id="Baguette_1_">
</g>
<g id="Ham_1_">
</g>
<g id="Bell_2">
</g>
<g id="Bell_3">
</g>
<g id="Bell_4">
</g>
<g id="Easter_celebration">
</g>
<g id="Egg_painting">
</g>
<g id="Easter_willow">
</g>
<g id="Daffodil">
</g>
<g id="Easter_message">
</g>
<g id="Bunny_2">
	<g>
		<g>
			<path d="M14.37,30c-5.143,0-9.326-4.184-9.326-9.326s4.184-9.326,9.326-9.326s9.326,4.184,9.326,9.326S19.512,30,14.37,30z
				 M14.37,12.348c-4.591,0-8.326,3.735-8.326,8.326S9.778,29,14.37,29s8.326-3.735,8.326-8.326S18.961,12.348,14.37,12.348z"/>
		</g>
		<g>
			<path d="M20.674,14.239c-0.122,0-0.243-0.044-0.339-0.133c-0.203-0.188-0.215-0.504-0.028-0.706l6.723-7.283
				c0.458-0.496,0.709-1.141,0.709-1.815V3.675C27.739,2.2,26.539,1,25.064,1c-0.971,0-1.867,0.527-2.338,1.376l-5.397,9.715
				c-0.134,0.24-0.439,0.325-0.68,0.194c-0.242-0.135-0.329-0.438-0.194-0.681l5.397-9.715C22.499,0.725,23.729,0,25.064,0
				c2.026,0,3.675,1.648,3.675,3.675v0.627c0,0.927-0.346,1.813-0.975,2.493l-6.724,7.283
				C20.943,14.186,20.809,14.239,20.674,14.239z"/>
		</g>
		<g>
			<path d="M8.065,14.239c-0.135,0-0.269-0.054-0.367-0.161L0.975,6.795C0.346,6.114,0,5.229,0,4.302V3.675C0,1.648,1.649,0,3.675,0
				C5.009,0,6.24,0.725,6.888,1.89l5.397,9.715c0.134,0.242,0.047,0.546-0.194,0.681c-0.241,0.131-0.546,0.046-0.68-0.194
				L6.014,2.376C5.542,1.527,4.646,1,3.675,1C2.2,1,1,2.2,1,3.675v0.627c0,0.675,0.252,1.319,0.71,1.815L8.433,13.4
				c0.188,0.202,0.175,0.519-0.028,0.706C8.309,14.195,8.187,14.239,8.065,14.239z"/>
		</g>
		<g>
			<path d="M12.728,26.32c-0.504,0-0.918-0.097-1.001-0.117c-0.268-0.067-0.43-0.338-0.364-0.605
				c0.066-0.268,0.34-0.429,0.605-0.365c0.292,0.07,1.223,0.201,1.652-0.136c0.107-0.084,0.25-0.242,0.25-0.641
				c0-0.276,0.224-0.5,0.5-0.5s0.5,0.224,0.5,0.5c0,0.771-0.345,1.203-0.635,1.43C13.795,26.229,13.219,26.32,12.728,26.32z"/>
		</g>
		<g>
			<path d="M16.011,26.32c-0.491,0-1.067-0.092-1.507-0.435c-0.29-0.227-0.635-0.658-0.635-1.43c0-0.276,0.224-0.5,0.5-0.5
				s0.5,0.224,0.5,0.5c0,0.399,0.143,0.558,0.25,0.642c0.434,0.338,1.359,0.207,1.65,0.135c0.265-0.065,0.539,0.096,0.606,0.364
				c0.067,0.268-0.096,0.539-0.364,0.606C16.93,26.224,16.516,26.32,16.011,26.32z"/>
		</g>
		<g>
			<path d="M14.37,24.956c-0.128,0-0.256-0.049-0.354-0.146l-1.261-1.261c-0.143-0.143-0.186-0.358-0.108-0.545
				c0.077-0.187,0.26-0.309,0.462-0.309h2.521c0.202,0,0.385,0.122,0.462,0.309c0.078,0.187,0.035,0.402-0.108,0.545l-1.261,1.261
				C14.625,24.907,14.498,24.956,14.37,24.956z M14.316,23.695l0.054,0.054l0.054-0.054H14.316z"/>
		</g>
		<g>
			<path d="M8.065,22.435H3.022c-0.276,0-0.5-0.224-0.5-0.5s0.224-0.5,0.5-0.5h5.043c0.276,0,0.5,0.224,0.5,0.5
				S8.342,22.435,8.065,22.435z"/>
		</g>
		<g>
			<path d="M3.021,26.218c-0.224,0-0.428-0.151-0.484-0.379C2.47,25.571,2.633,25.3,2.9,25.232l5.043-1.262
				c0.271-0.066,0.54,0.096,0.606,0.364c0.067,0.268-0.096,0.539-0.363,0.606l-5.043,1.262C3.103,26.213,3.062,26.218,3.021,26.218z
				"/>
		</g>
		<g>
			<path d="M5.544,28.739c-0.162,0-0.32-0.078-0.417-0.223c-0.153-0.229-0.091-0.54,0.139-0.693l3.783-2.521
				c0.23-0.153,0.54-0.091,0.693,0.139s0.091,0.54-0.139,0.693l-3.783,2.521C5.735,28.712,5.639,28.739,5.544,28.739z"/>
		</g>
		<g>
			<path d="M25.717,22.435h-5.043c-0.276,0-0.5-0.224-0.5-0.5s0.224-0.5,0.5-0.5h5.043c0.276,0,0.5,0.224,0.5,0.5
				S25.994,22.435,25.717,22.435z"/>
		</g>
		<g>
			<path d="M25.718,26.218c-0.041,0-0.081-0.005-0.122-0.015l-5.043-1.262c-0.268-0.067-0.431-0.339-0.363-0.606
				c0.067-0.269,0.341-0.427,0.606-0.364l5.043,1.262c0.268,0.067,0.431,0.339,0.363,0.606
				C26.146,26.066,25.942,26.218,25.718,26.218z"/>
		</g>
		<g>
			<path d="M23.195,28.739c-0.095,0-0.191-0.027-0.277-0.084l-3.783-2.521c-0.23-0.153-0.292-0.464-0.139-0.693
				c0.152-0.229,0.462-0.292,0.693-0.139l3.783,2.521c0.23,0.153,0.292,0.464,0.139,0.693
				C23.516,28.661,23.357,28.739,23.195,28.739z"/>
		</g>
		<g>
			<path d="M10.587,12.979c-0.17,0-0.335-0.087-0.429-0.243C10.121,12.673,6.367,6.42,5.127,4.56
				C4.148,3.091,3.273,3.457,3.236,3.474C2.988,3.582,2.69,3.478,2.575,3.232c-0.116-0.246-0.02-0.537,0.223-0.658
				c0.068-0.033,1.671-0.802,3.161,1.431c1.253,1.88,4.901,7.959,5.056,8.217c0.142,0.236,0.065,0.544-0.171,0.686
				C10.764,12.956,10.675,12.979,10.587,12.979z"/>
		</g>
		<g>
			<path d="M18.152,12.979c-0.087,0-0.176-0.022-0.257-0.071c-0.237-0.142-0.313-0.449-0.171-0.686
				c0.155-0.258,3.803-6.337,5.056-8.217c1.488-2.232,3.092-1.464,3.161-1.431c0.247,0.123,0.347,0.424,0.224,0.671
				c-0.122,0.243-0.418,0.345-0.663,0.228c-0.053-0.024-0.921-0.365-1.89,1.087c-1.24,1.86-4.993,8.113-5.031,8.176
				C18.487,12.892,18.322,12.979,18.152,12.979z"/>
		</g>
		<g>
			<path d="M18.152,19.284c-0.438,0-0.875-0.146-1.216-0.436l-0.37-0.316c-0.21-0.179-0.235-0.494-0.056-0.704
				c0.18-0.211,0.495-0.236,0.705-0.056l0.37,0.315c0.306,0.262,0.826,0.263,1.134-0.001l0.369-0.314
				c0.209-0.181,0.525-0.155,0.705,0.055c0.179,0.21,0.154,0.526-0.056,0.705l-0.369,0.315
				C19.027,19.139,18.59,19.284,18.152,19.284z"/>
		</g>
		<g>
			<path d="M10.587,19.284c-0.438,0-0.875-0.146-1.216-0.436l-0.37-0.316c-0.21-0.179-0.235-0.495-0.056-0.705
				c0.18-0.21,0.496-0.235,0.705-0.055l0.369,0.315c0.308,0.262,0.827,0.263,1.134-0.001l0.369-0.314
				c0.209-0.181,0.525-0.155,0.705,0.055c0.179,0.21,0.154,0.526-0.056,0.705l-0.369,0.315
				C11.462,19.139,11.024,19.284,10.587,19.284z"/>
		</g>
	</g>
</g>
<g id="Chicken_3">
</g>
<g id="Tulip_2">
</g>
<g id="Easter_basket">
</g>
<g id="Bread_and_wine">
</g>
<g id="Sheep_2">
</g>
<g id="Candle_Light">
</g>
</svg>
