<?xml version="1.0" encoding="iso-8859-1"?>
<!-- Generator: Adobe Illustrator 19.2.1, SVG Export Plug-In . SVG Version: 6.00 Build 0)  -->
<svg version="1.1" xmlns="http://www.w3.org/2000/svg" xmlns:xlink="http://www.w3.org/1999/xlink" x="0px" y="0px"
	 viewBox="0 0 30 30" style="enable-background:new 0 0 30 30;" xml:space="preserve">
<g id="Egg">
</g>
<g id="Easter_Egg_1">
</g>
<g id="Easter_Egg_2">
</g>
<g id="Easter_Egg_3_1_">
</g>
<g id="Eggs_1_1_">
</g>
<g id="Eggs_2">
</g>
<g id="Bunny_1_">
</g>
<g id="Sheep_1_">
</g>
<g id="Bell_Alarm">
</g>
<g id="Calendar">
	<g>
		<g>
			<path d="M14.369,24.957c-2.361,0-4.282-1.921-4.282-4.283c0-2.329,1.809-6.804,4.282-6.804c2.475,0,4.283,4.475,4.283,6.804
				C18.652,23.035,16.73,24.957,14.369,24.957z M14.369,14.87c-1.628,0-3.282,3.724-3.282,5.804c0,1.81,1.473,3.283,3.282,3.283
				c1.811,0,3.283-1.473,3.283-3.283C17.652,18.593,15.997,14.87,14.369,14.87z"/>
		</g>
		<g>
			<path d="M25.718,30H4.282C1.921,30,0,28.079,0,25.717V6.804C0,4.564,1.761,3,4.282,3H6c0.276,0,0.5,0.224,0.5,0.5S6.276,4,6,4
				H4.282C2.648,4,1,4.867,1,6.804v18.913C1,27.527,2.473,29,4.282,29h21.436C27.527,29,29,27.527,29,25.717V6.804
				C29,4.867,27.352,4,25.718,4H24c-0.276,0-0.5-0.224-0.5-0.5S23.724,3,24,3h1.718C28.239,3,30,4.564,30,6.804v18.913
				C30,28.079,28.079,30,25.718,30z"/>
		</g>
		<g>
			<path d="M19,4h-8c-0.276,0-0.5-0.224-0.5-0.5S10.724,3,11,3h8c0.276,0,0.5,0.224,0.5,0.5S19.276,4,19,4z"/>
		</g>
		<g>
			<path d="M29.5,10h-29C0.224,10,0,9.776,0,9.5S0.224,9,0.5,9h29C29.776,9,30,9.224,30,9.5S29.776,10,29.5,10z"/>
		</g>
		<g>
			<path d="M8.5,6C8.224,6,8,5.776,8,5.5v-5C8,0.224,8.224,0,8.5,0S9,0.224,9,0.5v5C9,5.776,8.776,6,8.5,6z"/>
		</g>
		<g>
			<path d="M21.5,6C21.224,6,21,5.776,21,5.5v-5C21,0.224,21.224,0,21.5,0S22,0.224,22,0.5v5C22,5.776,21.776,6,21.5,6z"/>
		</g>
		<g>
			<path d="M13.108,22.435c-0.128,0-0.256-0.049-0.354-0.146l-0.907-0.907l-0.761,0.761c-0.195,0.195-0.512,0.195-0.707,0
				s-0.195-0.512,0-0.707l1.114-1.114c0.195-0.195,0.512-0.195,0.707,0l0.907,0.907l0.907-0.907c0.195-0.195,0.512-0.195,0.707,0
				l0.908,0.907l0.907-0.907c0.094-0.094,0.221-0.146,0.354-0.146l0,0c0.133,0,0.26,0.053,0.354,0.146l1.084,1.084
				c0.195,0.195,0.195,0.512,0,0.707s-0.512,0.195-0.707,0l-0.73-0.731l-0.907,0.907c-0.195,0.195-0.512,0.195-0.707,0l-0.908-0.907
				l-0.907,0.907C13.364,22.386,13.236,22.435,13.108,22.435z"/>
		</g>
		<g>
			<path d="M15.631,18.652c-0.133,0-0.26-0.053-0.354-0.146l-0.908-0.908l-0.907,0.908c-0.188,0.188-0.52,0.188-0.707,0
				l-1.414-1.414c-0.195-0.195-0.195-0.512,0-0.707s0.512-0.195,0.707,0l1.061,1.061l0.907-0.908c0.188-0.188,0.52-0.188,0.707,0
				l0.908,0.908l1.05-1.051c0.195-0.195,0.512-0.195,0.707,0c0.195,0.195,0.195,0.512,0,0.707l-1.403,1.404
				C15.891,18.6,15.764,18.652,15.631,18.652z"/>
		</g>
	</g>
</g>
<g id="Tulip">
</g>
<g id="Chicken">
</g>
<g id="Chicken_2_1_">
</g>
<g id="Baguette_1_">
</g>
<g id="Ham_1_">
</g>
<g id="Bell_2">
</g>
<g id="Bell_3">
</g>
<g id="Bell_4">
</g>
<g id="Easter_celebration">
</g>
<g id="Egg_painting">
</g>
<g id="Easter_willow">
</g>
<g id="Daffodil">
</g>
<g id="Easter_message">
</g>
<g id="Bunny_2">
</g>
<g id="Chicken_3">
</g>
<g id="Tulip_2">
</g>
<g id="Easter_basket">
</g>
<g id="Bread_and_wine">
</g>
<g id="Sheep_2">
</g>
<g id="Candle_Light">
</g>
</svg>
