<?xml version="1.0" encoding="iso-8859-1"?>
<!-- Generator: Adobe Illustrator 19.2.1, SVG Export Plug-In . SVG Version: 6.00 Build 0)  -->
<svg version="1.1" xmlns="http://www.w3.org/2000/svg" xmlns:xlink="http://www.w3.org/1999/xlink" x="0px" y="0px"
	 viewBox="0 0 30 30" style="enable-background:new 0 0 30 30;" xml:space="preserve">
<g id="Egg">
</g>
<g id="Easter_Egg_1">
</g>
<g id="Easter_Egg_2">
</g>
<g id="Easter_Egg_3_1_">
</g>
<g id="Eggs_1_1_">
</g>
<g id="Eggs_2">
</g>
<g id="Bunny_1_">
</g>
<g id="Sheep_1_">
</g>
<g id="Bell_Alarm">
</g>
<g id="Calendar">
</g>
<g id="Tulip">
</g>
<g id="Chicken">
</g>
<g id="Chicken_2_1_">
</g>
<g id="Baguette_1_">
</g>
<g id="Ham_1_">
</g>
<g id="Bell_2">
</g>
<g id="Bell_3">
</g>
<g id="Bell_4">
</g>
<g id="Easter_celebration">
</g>
<g id="Egg_painting">
</g>
<g id="Easter_willow">
</g>
<g id="Daffodil">
	<g>
		<g>
			<path d="M14.5,16.357c-0.38,0-0.654-0.247-0.854-0.428c-0.065-0.06-0.164-0.148-0.205-0.166
				c-0.029,0.004-0.171,0.024-0.263,0.045c-0.258,0.056-0.614,0.13-0.935-0.056c-0.324-0.188-0.436-0.535-0.518-0.789
				c-0.028-0.087-0.07-0.218-0.099-0.254c-0.026-0.019-0.157-0.061-0.243-0.089c-0.254-0.082-0.603-0.194-0.79-0.519
				c-0.186-0.319-0.11-0.675-0.055-0.934c0.019-0.092,0.048-0.229,0.042-0.276c-0.014-0.027-0.103-0.126-0.162-0.191
				c-0.181-0.2-0.428-0.474-0.428-0.854s0.248-0.654,0.428-0.854c0.059-0.065,0.148-0.164,0.166-0.205
				c0.003-0.033-0.026-0.171-0.045-0.263c-0.055-0.259-0.13-0.614,0.055-0.935c0.188-0.324,0.536-0.437,0.79-0.519
				c0.086-0.027,0.217-0.07,0.254-0.099c0.019-0.026,0.061-0.157,0.088-0.243c0.082-0.254,0.195-0.602,0.519-0.789
				c0.32-0.186,0.675-0.11,0.935-0.056c0.092,0.02,0.232,0.05,0.275,0.041c0.028-0.014,0.127-0.103,0.192-0.161
				c0.2-0.181,0.473-0.429,0.854-0.429s0.654,0.248,0.854,0.429c0.065,0.06,0.165,0.148,0.206,0.166
				c0.032,0.005,0.17-0.025,0.261-0.045c0.26-0.056,0.614-0.13,0.935,0.054c0.325,0.188,0.437,0.536,0.519,0.79
				c0.028,0.087,0.07,0.218,0.099,0.254c0.026,0.019,0.157,0.061,0.243,0.089c0.254,0.082,0.603,0.194,0.79,0.519
				c0.186,0.32,0.11,0.676,0.055,0.935c-0.019,0.091-0.048,0.229-0.042,0.275c0.014,0.027,0.103,0.126,0.162,0.191
				c0.181,0.2,0.428,0.474,0.428,0.854s-0.248,0.654-0.428,0.854c-0.059,0.065-0.148,0.164-0.166,0.205
				c-0.003,0.033,0.026,0.171,0.045,0.263c0.055,0.259,0.13,0.614-0.055,0.935c-0.188,0.324-0.536,0.437-0.79,0.519
				c-0.087,0.028-0.218,0.07-0.254,0.099c-0.018,0.026-0.06,0.157-0.088,0.243c-0.082,0.254-0.195,0.602-0.519,0.789
				c-0.321,0.187-0.676,0.11-0.936,0.056c-0.091-0.019-0.23-0.05-0.275-0.041c-0.027,0.014-0.126,0.103-0.191,0.161
				C15.154,16.109,14.88,16.357,14.5,16.357z M13.439,14.767c0.088,0,0.179,0.01,0.269,0.034c0.255,0.067,0.443,0.237,0.608,0.387
				c0.07,0.063,0.175,0.158,0.219,0.175c-0.028-0.017,0.077-0.112,0.146-0.175c0.166-0.149,0.353-0.319,0.609-0.388
				c0.262-0.068,0.524-0.015,0.735,0.03c0.089,0.02,0.224,0.053,0.269,0.041c-0.015,0.002-0.001-0.127,0.027-0.215
				c0.069-0.215,0.148-0.458,0.338-0.647c0.191-0.19,0.434-0.269,0.648-0.338c0.088-0.028,0.221-0.071,0.257-0.1
				c-0.033,0.023-0.064-0.105-0.083-0.195c-0.045-0.211-0.101-0.474-0.03-0.736c0.068-0.257,0.238-0.444,0.388-0.609
				c0.049-0.055,0.119-0.131,0.154-0.183c-0.036-0.052-0.105-0.128-0.154-0.183c-0.149-0.166-0.319-0.354-0.387-0.609
				c-0.07-0.262-0.015-0.524,0.03-0.735c0.019-0.089,0.047-0.223,0.041-0.269c0.004,0.043-0.127,0.001-0.215-0.026
				c-0.214-0.069-0.458-0.147-0.647-0.338c-0.191-0.19-0.27-0.435-0.339-0.648c-0.028-0.088-0.071-0.219-0.1-0.257
				c0.027,0.036-0.106,0.064-0.195,0.083c-0.211,0.046-0.474,0.1-0.735,0.031c-0.257-0.069-0.444-0.239-0.61-0.389
				c-0.069-0.063-0.175-0.158-0.219-0.175c0.028,0.017-0.077,0.112-0.146,0.175c-0.166,0.149-0.353,0.319-0.609,0.388
				c-0.261,0.068-0.525,0.014-0.736-0.03c-0.089-0.02-0.223-0.049-0.268-0.041c0.048,0.01,0.002,0.127-0.026,0.215
				c-0.069,0.215-0.148,0.458-0.338,0.647c-0.19,0.19-0.434,0.27-0.649,0.339c-0.087,0.028-0.219,0.07-0.256,0.099
				c0.036-0.021,0.064,0.105,0.083,0.195c0.045,0.211,0.101,0.474,0.03,0.736c-0.068,0.257-0.238,0.444-0.388,0.609
				c-0.063,0.069-0.158,0.175-0.175,0.219C11,11.858,11.097,11.96,11.16,12.03c0.149,0.166,0.319,0.354,0.387,0.609
				c0.07,0.263,0.015,0.525-0.03,0.736c-0.019,0.089-0.047,0.223-0.041,0.268c-0.005-0.044,0.127-0.003,0.215,0.026
				c0.214,0.069,0.458,0.147,0.647,0.338c0.191,0.19,0.27,0.435,0.339,0.648c0.028,0.088,0.071,0.22,0.1,0.257
				c-0.027-0.036,0.106-0.064,0.195-0.083C13.11,14.801,13.271,14.767,13.439,14.767z M18.015,11.884h0.01H18.015z"/>
		</g>
		<g>
			<path d="M17.021,8.565c-0.071,0-0.144-0.016-0.213-0.048c-0.25-0.118-0.356-0.416-0.239-0.666l1.086-2.302
				c0.03-0.063,0.023-0.141-0.016-0.195l-3.044-4.299c-0.064-0.092-0.127-0.092-0.193,0l-3.044,4.299
				c-0.039,0.055-0.045,0.133-0.016,0.195l1.087,2.302c0.118,0.25,0.011,0.548-0.239,0.666c-0.251,0.117-0.547,0.011-0.666-0.238
				l-1.086-2.302c-0.185-0.39-0.145-0.85,0.104-1.201l3.044-4.299c0.432-0.607,1.394-0.607,1.825,0l3.045,4.299
				c0.249,0.352,0.288,0.812,0.103,1.201l-1.086,2.302C17.389,8.46,17.209,8.565,17.021,8.565z"/>
		</g>
		<g>
			<path d="M7.317,12c-0.307,0-0.799-0.022-1.005-0.537L4.295,6.487C4.158,6.144,4.194,5.779,4.393,5.486
				C4.599,5.182,4.955,5,5.344,5h4.983c0.418,0,0.815,0.254,1.011,0.646l0.98,2.016C12.44,7.91,12.336,8.21,12.088,8.33
				c-0.248,0.122-0.547,0.019-0.668-0.23l-0.978-2.011C10.416,6.036,10.361,6,10.328,6H5.344C5.276,6,5.235,6.025,5.22,6.047
				l1.983,4.952C7.24,11.001,7.282,11.001,7.313,11H10.5c0.276,0,0.5,0.224,0.5,0.5S10.776,12,10.5,12H7.362
				C7.348,12,7.333,12,7.317,12z"/>
		</g>
		<g>
			<path d="M21.72,12c-0.013,0-0.025,0-0.036,0H18.5c-0.276,0-0.5-0.224-0.5-0.5s0.224-0.5,0.5-0.5h3.138
				c0.062,0,0.117,0.001,0.159-0.001l1.981-4.887C23.765,6.025,23.724,6,23.656,6h-4.983c-0.034,0-0.088,0.036-0.117,0.094
				L17.58,8.1c-0.121,0.248-0.419,0.355-0.668,0.23c-0.248-0.12-0.352-0.42-0.231-0.668l0.978-2.011C17.857,5.254,18.254,5,18.672,5
				h4.983c0.39,0,0.746,0.182,0.952,0.486c0.199,0.293,0.234,0.657,0.098,0.999l-2.019,4.979C22.481,11.979,21.987,12,21.72,12z
				 M21.76,11.091L21.76,11.091L21.76,11.091z"/>
		</g>
		<g>
			<path d="M14.5,23.695c-0.364,0-0.697-0.174-0.912-0.478l-3.045-4.298c-0.249-0.352-0.288-0.813-0.103-1.202l1.086-2.301
				c0.118-0.249,0.415-0.354,0.666-0.238c0.25,0.118,0.356,0.416,0.239,0.666l-1.086,2.301c-0.03,0.063-0.023,0.142,0.016,0.196
				l3.044,4.298c0.064,0.092,0.127,0.092,0.193,0l3.044-4.298c0.039-0.055,0.045-0.134,0.016-0.196l-1.087-2.301
				c-0.118-0.25-0.011-0.548,0.239-0.666c0.25-0.116,0.547-0.011,0.666,0.238l1.086,2.301c0.185,0.39,0.145,0.851-0.104,1.202
				l-3.044,4.298C15.197,23.521,14.864,23.695,14.5,23.695z"/>
		</g>
		<g>
			<path d="M10.328,19H5.344c-0.333,0-0.648-0.183-0.864-0.502c-0.267-0.394-0.341-0.92-0.186-1.309l2.015-5.297
				C6.476,11.477,6.848,11,7.362,11H10.5c0.276,0,0.5,0.224,0.5,0.5S10.776,12,10.5,12H7.362c0.024,0.011-0.07,0.127-0.121,0.256
				l-2.015,5.297c-0.05,0.126,0.056,0.408,0.145,0.452L10.328,18c-0.046-0.002,0.042-0.098,0.117-0.246l0.961-2.396
				c0.102-0.257,0.394-0.381,0.65-0.277c0.256,0.103,0.38,0.395,0.277,0.65l-0.978,2.434C11.219,18.441,10.88,19,10.328,19z"/>
		</g>
		<g>
			<path d="M23.617,19h-4.944c-0.572,0-0.904-0.599-1.02-0.856l-0.992-2.708c-0.095-0.26,0.039-0.547,0.298-0.642
				c0.258-0.093,0.546,0.039,0.642,0.298l0.978,2.675c0.059,0.127,0.149,0.232,0.182,0.253L23.617,18
				c0.062-0.048,0.182-0.387,0.112-0.561l-1.964-5.172c-0.056-0.141-0.148-0.26-0.189-0.285L18.5,12c-0.276,0-0.5-0.224-0.5-0.5
				s0.224-0.5,0.5-0.5h3.156c0.5,0,0.865,0.467,1.04,0.904l1.964,5.172c0.167,0.419,0.089,1.01-0.195,1.429
				C24.249,18.824,23.948,19,23.617,19z"/>
		</g>
		<g>
			<path d="M14.5,30c-0.117,0-0.234-0.041-0.329-0.124c-0.208-0.182-0.229-0.497-0.047-0.705c4.211-4.813,3.667-10.908,3.662-10.97
				c-0.027-0.274,0.174-0.519,0.448-0.546c0.277-0.033,0.52,0.173,0.547,0.447c0.026,0.267,0.6,6.579-3.904,11.727
				C14.777,29.942,14.639,30,14.5,30z"/>
		</g>
		<g>
			<path d="M14.5,30c-0.099,0-0.199-0.029-0.286-0.091c-0.227-0.158-0.281-0.47-0.123-0.696c0.182-0.26,4.491-6.393,7.663-8.93
				c0.216-0.171,0.531-0.137,0.703,0.078c0.172,0.216,0.137,0.53-0.078,0.703c-3.06,2.447-7.425,8.66-7.468,8.723
				C14.813,29.926,14.657,30,14.5,30z"/>
		</g>
		<g>
			<path d="M14.5,13.608c-0.971,0-1.761-0.79-1.761-1.761s0.79-1.761,1.761-1.761s1.761,0.79,1.761,1.761S15.471,13.608,14.5,13.608
				z M14.5,11.087c-0.419,0-0.761,0.341-0.761,0.761s0.341,0.761,0.761,0.761s0.761-0.341,0.761-0.761S14.919,11.087,14.5,11.087z"
				/>
		</g>
	</g>
</g>
<g id="Easter_message">
</g>
<g id="Bunny_2">
</g>
<g id="Chicken_3">
</g>
<g id="Tulip_2">
</g>
<g id="Easter_basket">
</g>
<g id="Bread_and_wine">
</g>
<g id="Sheep_2">
</g>
<g id="Candle_Light">
</g>
</svg>
