<?xml version="1.0" encoding="iso-8859-1"?>
<!-- Generator: Adobe Illustrator 19.2.1, SVG Export Plug-In . SVG Version: 6.00 Build 0)  -->
<svg version="1.1" xmlns="http://www.w3.org/2000/svg" xmlns:xlink="http://www.w3.org/1999/xlink" x="0px" y="0px"
	 viewBox="0 0 30 30" style="enable-background:new 0 0 30 30;" xml:space="preserve">
<g id="Egg">
</g>
<g id="Easter_Egg_1">
</g>
<g id="Easter_Egg_2">
</g>
<g id="Easter_Egg_3_1_">
</g>
<g id="Eggs_1_1_">
</g>
<g id="Eggs_2">
</g>
<g id="Bunny_1_">
</g>
<g id="Sheep_1_">
</g>
<g id="Bell_Alarm">
</g>
<g id="Calendar">
</g>
<g id="Tulip">
</g>
<g id="Chicken">
</g>
<g id="Chicken_2_1_">
</g>
<g id="Baguette_1_">
</g>
<g id="Ham_1_">
</g>
<g id="Bell_2">
</g>
<g id="Bell_3">
</g>
<g id="Bell_4">
</g>
<g id="Easter_celebration">
</g>
<g id="Egg_painting">
</g>
<g id="Easter_willow">
</g>
<g id="Daffodil">
</g>
<g id="Easter_message">
	<g>
		<g>
			<path d="M14.37,17.392c-2.361,0-4.283-1.922-4.283-4.283c0-2.329,1.809-6.804,4.283-6.804s4.283,4.475,4.283,6.804
				C18.652,15.47,16.731,17.392,14.37,17.392z M14.37,7.305c-1.628,0-3.283,3.724-3.283,5.804c0,1.811,1.473,3.283,3.283,3.283
				s3.283-1.473,3.283-3.283C17.652,11.028,15.998,7.305,14.37,7.305z"/>
		</g>
		<g>
			<path d="M13.109,14.869c-0.128,0-0.256-0.049-0.354-0.146l-0.908-0.907l-0.761,0.761c-0.195,0.195-0.512,0.195-0.707,0
				s-0.195-0.512,0-0.707l1.114-1.114c0.195-0.195,0.512-0.195,0.707,0l0.908,0.907l0.907-0.907c0.195-0.195,0.512-0.195,0.707,0
				l0.907,0.907l0.907-0.907c0.195-0.195,0.512-0.195,0.707,0l1.085,1.085c0.195,0.195,0.195,0.512,0,0.707s-0.512,0.195-0.707,0
				l-0.731-0.731l-0.907,0.907c-0.195,0.195-0.512,0.195-0.707,0l-0.907-0.907l-0.907,0.907
				C13.365,14.82,13.237,14.869,13.109,14.869z"/>
		</g>
		<g>
			<path d="M15.63,11.087c-0.128,0-0.256-0.049-0.354-0.146l-0.907-0.907l-0.907,0.907c-0.195,0.195-0.512,0.195-0.707,0
				l-1.414-1.414c-0.195-0.195-0.195-0.512,0-0.707s0.512-0.195,0.707,0l1.061,1.061l0.907-0.907c0.195-0.195,0.512-0.195,0.707,0
				L15.63,9.88l1.051-1.051c0.195-0.195,0.512-0.195,0.707,0s0.195,0.512,0,0.707l-1.404,1.404
				C15.886,11.038,15.758,11.087,15.63,11.087z"/>
		</g>
		<g>
			<g id="XMLID_8_">
				<path d="M0.5,30c-0.055,0-0.11-0.009-0.164-0.027C0.135,29.902,0,29.713,0,29.5v-24C0,2.468,2.467,0,5.5,0h18
					C26.533,0,29,2.468,29,5.5v11c0,3.032-2.467,5.5-5.5,5.5H7.047l-6.154,7.81C0.796,29.933,0.65,30,0.5,30z M5.5,1
					C3.019,1,1,3.019,1,5.5v22.558l5.412-6.867C6.506,21.07,6.651,21,6.804,21H23.5c2.481,0,4.5-2.019,4.5-4.5v-11
					C28,3.019,25.981,1,23.5,1H5.5z"/>
			</g>
		</g>
	</g>
</g>
<g id="Bunny_2">
</g>
<g id="Chicken_3">
</g>
<g id="Tulip_2">
</g>
<g id="Easter_basket">
</g>
<g id="Bread_and_wine">
</g>
<g id="Sheep_2">
</g>
<g id="Candle_Light">
</g>
</svg>
