<?xml version="1.0" encoding="iso-8859-1"?>
<!-- Generator: Adobe Illustrator 19.2.1, SVG Export Plug-In . SVG Version: 6.00 Build 0)  -->
<svg version="1.1" xmlns="http://www.w3.org/2000/svg" xmlns:xlink="http://www.w3.org/1999/xlink" x="0px" y="0px"
	 viewBox="0 0 30 30" style="enable-background:new 0 0 30 30;" xml:space="preserve">
<g id="Egg">
</g>
<g id="Easter_Egg_1">
</g>
<g id="Easter_Egg_2">
</g>
<g id="Easter_Egg_3_1_">
</g>
<g id="Eggs_1_1_">
</g>
<g id="Eggs_2">
</g>
<g id="Bunny_1_">
</g>
<g id="Sheep_1_">
</g>
<g id="Bell_Alarm">
</g>
<g id="Calendar">
</g>
<g id="Tulip">
</g>
<g id="Chicken">
</g>
<g id="Chicken_2_1_">
</g>
<g id="Baguette_1_">
</g>
<g id="Ham_1_">
</g>
<g id="Bell_2">
</g>
<g id="Bell_3">
</g>
<g id="Bell_4">
</g>
<g id="Easter_celebration">
</g>
<g id="Egg_painting">
	<g>
		<g>
			<path d="M9.326,30C4.184,30,0,25.816,0,20.674c0-4.662,3.938-15.63,9.326-15.63c2.337,0,4.394,1.571,6.111,4.671
				c0.134,0.241,0.047,0.545-0.195,0.68c-0.239,0.134-0.545,0.046-0.68-0.195c-1.528-2.757-3.29-4.155-5.236-4.155
				C4.854,6.043,1,15.856,1,20.674C1,25.265,4.735,29,9.326,29s8.326-3.735,8.326-8.326c0-0.182,0.01-0.419,0.021-0.683
				c0.024-0.579,0.056-1.301-0.016-1.763c-0.042-0.273,0.146-0.528,0.418-0.57c0.279-0.04,0.528,0.146,0.57,0.418
				c0.086,0.559,0.053,1.335,0.026,1.958c-0.011,0.247-0.021,0.469-0.021,0.64C18.652,25.816,14.469,30,9.326,30z"/>
		</g>
		<g>
			<path d="M11.848,18.652c-0.185,0-0.354-0.102-0.44-0.264s-0.078-0.359,0.024-0.514c0.012-0.018,1.177-1.793,1.177-3.505
				c0-1.125,0.765-2.199,1.903-2.67c1.006-0.418,2.055-0.255,2.733,0.425c1.494,1.495,0.806,3.684,0,4.49
				c-0.067,0.067-0.135,0.143-0.207,0.224C16.392,17.561,15.413,18.652,11.848,18.652z M15.619,12.47
				c-0.23,0-0.476,0.051-0.725,0.154c-0.641,0.265-1.286,0.908-1.286,1.746c0,1.254-0.498,2.486-0.888,3.257
				c2.397-0.145,3.069-0.895,3.573-1.456c0.085-0.096,0.164-0.184,0.244-0.264c0.423-0.423,1.064-2.011,0-3.076
				C16.299,12.592,15.978,12.47,15.619,12.47z"/>
		</g>
		<g>
			<path d="M17.521,14.239c-0.132,0-0.264-0.052-0.361-0.155c-0.191-0.2-0.184-0.516,0.016-0.707L28.785,2.291
				c0.289-0.288,0.289-0.771-0.008-1.068c-0.296-0.296-0.778-0.297-1.076,0l-11.089,10.98c-0.196,0.194-0.513,0.192-0.707-0.003
				c-0.194-0.196-0.192-0.513,0.004-0.708L26.996,0.514c0.685-0.684,1.802-0.684,2.488,0.002c0.687,0.687,0.687,1.804,0,2.49
				L17.867,14.101C17.77,14.193,17.646,14.239,17.521,14.239z"/>
		</g>
		<g>
			<path d="M21.935,9.826c-0.128,0-0.256-0.049-0.354-0.146L20.32,8.419c-0.195-0.195-0.195-0.512,0-0.707s0.512-0.195,0.707,0
				l1.261,1.261c0.195,0.195,0.195,0.512,0,0.707C22.19,9.777,22.063,9.826,21.935,9.826z"/>
		</g>
		<g>
			<path style="fill:#FFFFFF;" d="M13.739,13.739c0,0,1.261,0,1.261,1.261s1.261,1.261,1.261,1.261"/>
			<path d="M16.261,16.761c-0.708,0-1.761-0.469-1.761-1.761c0-0.724-0.634-0.761-0.761-0.761c-0.276,0-0.5-0.224-0.5-0.5
				s0.224-0.5,0.5-0.5c0.708,0,1.761,0.469,1.761,1.761c0,0.724,0.634,0.761,0.761,0.761c0.276,0,0.5,0.224,0.5,0.5
				S16.537,16.761,16.261,16.761z"/>
		</g>
		<g>
			<path style="fill:#FFFFFF;" d="M4.283,9.326l0.815,0.815c0.246,0.246,0.645,0.246,0.892,0l0.369-0.369
				c0.246-0.246,0.645-0.246,0.892,0l0.369,0.369c0.246,0.246,0.645,0.246,0.892,0L8.88,9.772c0.246-0.246,0.645-0.246,0.892,0
				l0.369,0.369c0.246,0.246,0.645,0.246,0.892,0l0.369-0.369c0.246-0.246,0.645-0.246,0.892,0l0.369,0.369
				c0.246,0.246,0.645,0.246,0.892,0l0.815-0.815"/>
			<path d="M13.108,10.826c-0.302,0-0.585-0.118-0.799-0.331l-0.369-0.369c-0.05-0.049-0.133-0.051-0.185,0l-0.369,0.369
				c-0.441,0.441-1.159,0.439-1.599,0l-0.37-0.369c-0.051-0.052-0.133-0.05-0.186,0l-0.368,0.368c-0.442,0.441-1.158,0.439-1.599,0
				l-0.369-0.369c-0.052-0.051-0.135-0.049-0.185,0l-0.369,0.369c-0.429,0.428-1.172,0.426-1.599,0L3.929,9.68
				c-0.195-0.195-0.195-0.512,0-0.707s0.512-0.195,0.707,0l0.815,0.815c0.043,0.043,0.142,0.044,0.185,0l0.369-0.369
				c0.44-0.44,1.156-0.441,1.599,0l0.369,0.369c0.05,0.05,0.133,0.052,0.185,0l0.369-0.369c0.442-0.441,1.16-0.44,1.599,0
				l0.37,0.369c0.052,0.051,0.134,0.05,0.186,0l0.368-0.369c0.441-0.441,1.157-0.44,1.599,0l0.369,0.369
				c0.043,0.043,0.142,0.044,0.185,0l0.814-0.815c0.195-0.195,0.512-0.195,0.707,0c0.195,0.195,0.195,0.512,0,0.707l-0.814,0.815
				C13.694,10.708,13.411,10.826,13.108,10.826z"/>
		</g>
		<g>
			<path d="M10.587,18.652c-0.128,0-0.256-0.049-0.354-0.146L9.418,17.69c-0.051-0.052-0.133-0.051-0.186,0.001L8.864,18.06
				c-0.44,0.44-1.156,0.441-1.599,0L6.896,17.69c-0.05-0.05-0.133-0.052-0.185,0L6.343,18.06c-0.44,0.44-1.156,0.441-1.599,0
				L4.375,17.69c-0.051-0.05-0.134-0.052-0.185,0L3.821,18.06c-0.442,0.441-1.158,0.44-1.599,0l-0.815-0.814
				c-0.195-0.195-0.195-0.512,0-0.707s0.512-0.195,0.707,0l0.815,0.814c0.043,0.042,0.142,0.044,0.185,0l0.369-0.369
				c0.441-0.441,1.157-0.442,1.599,0l0.369,0.369c0.05,0.05,0.133,0.052,0.185,0l0.369-0.369c0.44-0.441,1.156-0.442,1.599,0
				l0.369,0.369c0.05,0.05,0.133,0.052,0.185,0l0.369-0.369c0.442-0.44,1.16-0.439,1.599,0l0.815,0.815
				c0.195,0.195,0.195,0.512,0,0.707C10.843,18.604,10.715,18.652,10.587,18.652z"/>
		</g>
	</g>
</g>
<g id="Easter_willow">
</g>
<g id="Daffodil">
</g>
<g id="Easter_message">
</g>
<g id="Bunny_2">
</g>
<g id="Chicken_3">
</g>
<g id="Tulip_2">
</g>
<g id="Easter_basket">
</g>
<g id="Bread_and_wine">
</g>
<g id="Sheep_2">
</g>
<g id="Candle_Light">
</g>
</svg>
