<?xml version="1.0" encoding="iso-8859-1"?>
<!-- Generator: Adobe Illustrator 19.2.1, SVG Export Plug-In . SVG Version: 6.00 Build 0)  -->
<svg version="1.1" xmlns="http://www.w3.org/2000/svg" xmlns:xlink="http://www.w3.org/1999/xlink" x="0px" y="0px"
	 viewBox="0 0 30 30" style="enable-background:new 0 0 30 30;" xml:space="preserve">
<g id="Egg">
</g>
<g id="Easter_Egg_1">
</g>
<g id="Easter_Egg_2">
</g>
<g id="Easter_Egg_3_1_">
</g>
<g id="Eggs_1_1_">
</g>
<g id="Eggs_2">
</g>
<g id="Bunny_1_">
</g>
<g id="Sheep_1_">
	<g id="Sheep">
		<g>
			<path d="M18.5,26h-1.729c-0.888,0-1.572-0.65-1.665-1.581l-0.431-5.172c-0.023-0.275,0.182-0.517,0.457-0.54
				c0.252-0.031,0.516,0.18,0.539,0.457l0.43,5.164C16.133,24.634,16.327,25,16.771,25H18v-6c0-0.276,0.224-0.5,0.5-0.5
				S19,18.724,19,19v6.5C19,25.776,18.776,26,18.5,26z"/>
		</g>
		<g>
			<path d="M8.065,26h-1.15c-0.706,0-1.252-0.283-1.538-0.795l-0.626-1.124c-0.135-0.241-0.048-0.545,0.193-0.68
				c0.239-0.132,0.546-0.049,0.68,0.194l0.626,1.124C6.289,24.788,6.407,25,6.915,25h0.507L6.32,20.688
				c-0.068-0.268,0.093-0.54,0.36-0.608c0.27-0.069,0.54,0.094,0.608,0.361l1.261,4.936c0.038,0.149,0.005,0.308-0.09,0.43
				S8.22,26,8.065,26z"/>
		</g>
		<g>
			<path d="M12.642,26h-1.15c-0.155,0-0.301-0.072-0.396-0.194s-0.127-0.282-0.088-0.432l1.617-6.196
				c0.069-0.266,0.341-0.425,0.609-0.357c0.268,0.07,0.428,0.343,0.357,0.61L12.139,25h0.503c0.508,0,0.626-0.212,0.665-0.283
				l1.469-2.226c0.15-0.231,0.462-0.294,0.692-0.142c0.23,0.152,0.294,0.462,0.142,0.692l-1.449,2.194
				C13.894,25.717,13.348,26,12.642,26z"/>
		</g>
		<g>
			<path d="M3.771,26h-1.38c-0.141,0-0.274-0.059-0.369-0.163s-0.142-0.243-0.129-0.383l0.63-6.827
				c0.026-0.275,0.278-0.473,0.544-0.452c0.275,0.025,0.478,0.269,0.452,0.544L2.939,25h0.832c0.323,0,0.715-0.151,0.758-0.577
				l1.16-4.506c0.069-0.267,0.339-0.43,0.609-0.358c0.268,0.069,0.429,0.342,0.359,0.609l-1.147,4.431
				C5.437,25.393,4.716,26,3.771,26z"/>
		</g>
		<g>
			<circle cx="24.457" cy="8.064" r="0.63"/>
		</g>
		<g>
			<path d="M24.456,13.607c-0.749,0-1.495-0.208-2.156-0.6c-0.161-0.096-0.255-0.272-0.244-0.459
				c0.01-0.798-0.393-1.473-1.041-1.832c-0.151-0.084-0.249-0.24-0.257-0.413c-0.009-0.173,0.072-0.337,0.215-0.436
				c0.293-0.204,0.462-0.517,0.462-0.859c0-0.389-0.218-0.738-0.581-0.933c-0.244-0.13-0.336-0.433-0.206-0.677
				c0.132-0.244,0.435-0.333,0.677-0.205c0.685,0.366,1.11,1.061,1.11,1.814c0,0.445-0.142,0.863-0.4,1.208
				c0.599,0.525,0.973,1.266,1.024,2.064c0.443,0.216,0.912,0.326,1.397,0.326c1.794,0,4.544-2.099,4.544-3.913
				c0-1.708-2.687-2.652-4.544-2.652c-0.546,0-1.401,0.193-1.83,0.413c-0.244,0.125-0.547,0.03-0.673-0.216
				c-0.127-0.246-0.029-0.547,0.216-0.673c0.572-0.293,1.576-0.523,2.287-0.523C26.691,5.042,30,6.203,30,8.694
				C30,11.132,26.774,13.607,24.456,13.607z"/>
		</g>
		<g>
			<path d="M20.606,7.131c-0.128,0-0.256-0.049-0.354-0.146C19.328,6.06,19.14,5.143,19.75,4.532
				c0.357-0.358,0.649-0.565,0.946-0.671c0.469-0.168,0.923-0.06,1.283,0.302c0.389,0.388,0.843,1.384,0.942,1.927
				c0.05,0.272-0.131,0.532-0.402,0.582c-0.266,0.05-0.531-0.13-0.582-0.401c-0.07-0.387-0.45-1.185-0.665-1.4
				c-0.107-0.108-0.162-0.097-0.239-0.067c-0.218,0.078-0.487,0.348-0.576,0.437c-0.176,0.176,0.12,0.655,0.503,1.038
				c0.195,0.195,0.195,0.512,0,0.707C20.862,7.082,20.734,7.131,20.606,7.131z"/>
		</g>
		<g>
			<path d="M8.368,21.172c-1.026,0-1.96-0.543-2.482-1.399c-0.263,0.124-0.551,0.189-0.847,0.189c-0.819,0-1.523-0.493-1.828-1.228
				C1.462,18.938,0,17.536,0,15.831c0-0.84,0.368-1.631,0.991-2.179C0.355,12.907,0,11.965,0,10.989
				c0-2.278,1.854-4.131,4.131-4.131c0.472,0,0.938,0.085,1.394,0.253c0.658-0.913,1.712-1.463,2.844-1.463
				c0.904,0,1.756,0.344,2.4,0.948c0.574-0.944,1.609-1.553,2.743-1.553c1.003,0,1.946,0.479,2.553,1.274
				c0.365-0.099,0.734-0.084,1.103,0.053c0.468-0.438,1.095-0.697,1.773-0.721c0.702-0.029,1.402,0.159,1.888,0.497
				c0.03,0.021,0.058,0.045,0.082,0.071c0.006,0.003,0.075,0.064,0.08,0.067c0.036,0.021,0.069,0.047,0.099,0.076
				c0.356,0.353,0.529,0.805,0.499,1.306c-0.017,0.275-0.26,0.477-0.528,0.469c-0.276-0.016-0.486-0.253-0.47-0.529
				c0.012-0.197-0.039-0.351-0.162-0.491c-0.057-0.033-0.118-0.073-0.177-0.133c-0.009-0.008-0.027-0.03-0.045-0.05
				c-0.31-0.193-0.771-0.292-1.229-0.285c-0.525,0.02-0.997,0.251-1.294,0.637c-0.153,0.199-0.431,0.253-0.648,0.127
				c-0.354-0.207-0.604-0.208-0.941-0.039c-0.238,0.118-0.527,0.032-0.659-0.199c-0.397-0.697-1.135-1.131-1.923-1.131
				c-0.983,0-1.858,0.667-2.128,1.623c-0.054,0.188-0.213,0.329-0.406,0.358c-0.203,0.031-0.388-0.058-0.494-0.222
				c-0.47-0.722-1.26-1.153-2.115-1.153c-0.918,0-1.764,0.509-2.209,1.329C6.032,8.212,5.739,8.303,5.5,8.187
				C5.055,7.969,4.594,7.858,4.131,7.858C2.404,7.858,1,9.263,1,10.989c0,0.894,0.396,1.751,1.088,2.352
				c0.123,0.107,0.187,0.268,0.169,0.43c-0.018,0.163-0.112,0.306-0.256,0.385C1.384,14.497,1,15.139,1,15.831
				c0,1.059,0.861,1.921,1.921,1.921c0.154,0,0.316-0.025,0.513-0.08c0.139-0.039,0.287-0.015,0.407,0.063
				c0.121,0.079,0.201,0.206,0.222,0.349c0.071,0.509,0.482,0.878,0.977,0.878c0.26,0,0.509-0.103,0.701-0.289
				c0.124-0.118,0.298-0.166,0.465-0.126c0.166,0.04,0.301,0.163,0.355,0.324c0.268,0.778,0.993,1.301,1.808,1.301
				c0.737,0,1.397-0.418,1.723-1.09c0.113-0.233,0.381-0.341,0.627-0.25c0.883,0.332,1.771,0.001,2.257-0.703
				c0.102-0.146,0.263-0.234,0.453-0.213c0.179,0.015,0.335,0.124,0.411,0.286c0.216,0.461,0.682,0.76,1.187,0.76
				c0.545,0,1.038-0.347,1.229-0.863c0.06-0.163,0.2-0.283,0.371-0.317c0.17-0.036,0.347,0.023,0.465,0.15
				c0.253,0.274,0.595,0.425,0.961,0.425c0.726,0,1.315-0.59,1.315-1.316c-0.012-0.222,0.114-0.506,0.325-0.58
				c0.529-0.185,0.885-0.681,0.885-1.236c-0.011-0.161,0.053-0.344,0.177-0.446c0.125-0.103,0.287-0.168,0.441-0.125
				c0.188,0.049,0.342,0.072,0.487,0.072c0.442,0,0.817-0.242,0.957-0.616c0.143-0.383-0.008-0.804-0.412-1.155
				c-0.209-0.181-0.231-0.497-0.051-0.706c0.18-0.209,0.496-0.23,0.705-0.05c0.728,0.63,0.987,1.476,0.695,2.26
				c-0.305,0.816-1.137,1.316-2.054,1.261c-0.145,0.653-0.57,1.218-1.166,1.538c-0.11,1.176-1.103,2.099-2.306,2.099
				c-0.416,0-0.823-0.115-1.178-0.327c-0.43,0.575-1.113,0.932-1.849,0.932c-0.648,0-1.26-0.277-1.69-0.741
				c-0.681,0.606-1.625,0.883-2.559,0.67C10.237,20.691,9.348,21.172,8.368,21.172z"/>
		</g>
	</g>
</g>
<g id="Bell_Alarm">
</g>
<g id="Calendar">
</g>
<g id="Tulip">
</g>
<g id="Chicken">
</g>
<g id="Chicken_2_1_">
</g>
<g id="Baguette_1_">
</g>
<g id="Ham_1_">
</g>
<g id="Bell_2">
</g>
<g id="Bell_3">
</g>
<g id="Bell_4">
</g>
<g id="Easter_celebration">
</g>
<g id="Egg_painting">
</g>
<g id="Easter_willow">
</g>
<g id="Daffodil">
</g>
<g id="Easter_message">
</g>
<g id="Bunny_2">
</g>
<g id="Chicken_3">
</g>
<g id="Tulip_2">
</g>
<g id="Easter_basket">
</g>
<g id="Bread_and_wine">
</g>
<g id="Sheep_2">
</g>
<g id="Candle_Light">
</g>
</svg>
