<?xml version="1.0" encoding="iso-8859-1"?>
<!-- Generator: Adobe Illustrator 19.2.1, SVG Export Plug-In . SVG Version: 6.00 Build 0)  -->
<svg version="1.1" xmlns="http://www.w3.org/2000/svg" xmlns:xlink="http://www.w3.org/1999/xlink" x="0px" y="0px"
	 viewBox="0 0 30 30" style="enable-background:new 0 0 30 30;" xml:space="preserve">
<g id="Egg">
</g>
<g id="Easter_Egg_1">
</g>
<g id="Easter_Egg_2">
</g>
<g id="Easter_Egg_3_1_">
</g>
<g id="Eggs_1_1_">
</g>
<g id="Eggs_2">
</g>
<g id="Bunny_1_">
</g>
<g id="Sheep_1_">
</g>
<g id="Bell_Alarm">
</g>
<g id="Calendar">
</g>
<g id="Tulip">
	<g>
		<g>
			<path d="M14.641,4.989c-0.158,0-0.313-0.074-0.41-0.213l-2.383-3.404L9.471,4.768C9.313,4.994,9,5.05,8.774,4.891
				c-0.226-0.158-0.281-0.47-0.123-0.696l2.787-3.981c0.188-0.268,0.632-0.268,0.819,0l2.793,3.989
				c0.158,0.226,0.104,0.538-0.123,0.696C14.84,4.96,14.74,4.989,14.641,4.989z"/>
		</g>
		<g>
			<path d="M11.848,22.435c-5.142,0-9.326-4.184-9.326-9.326c0-0.276,0.224-0.5,0.5-0.5s0.5,0.224,0.5,0.5
				c0,4.59,3.735,8.326,8.326,8.326c4.591,0,8.326-3.735,8.326-8.326c0-0.276,0.224-0.5,0.5-0.5s0.5,0.224,0.5,0.5
				C21.174,18.251,16.99,22.435,11.848,22.435z"/>
		</g>
		<g>
			<path d="M11.848,22.435c-5.142,0-9.326-4.184-9.326-9.326c0-4.934,3.677-12.508,3.833-12.829C6.437,0.114,6.604,0.006,6.789,0
				c0.183,0.003,0.359,0.092,0.45,0.253l5.043,8.9c0.136,0.24,0.052,0.545-0.188,0.682c-0.241,0.135-0.545,0.051-0.682-0.188
				L6.848,1.592C5.882,3.734,3.522,9.351,3.522,13.109c0,4.59,3.735,8.326,8.326,8.326c4.591,0,8.326-3.735,8.326-8.326
				c0-0.276,0.224-0.5,0.5-0.5s0.5,0.224,0.5,0.5C21.174,18.251,16.99,22.435,11.848,22.435z"/>
		</g>
		<g>
			<path d="M11.848,22.435c-5.142,0-9.326-4.184-9.326-9.326c0-0.276,0.224-0.5,0.5-0.5s0.5,0.224,0.5,0.5
				c0,2.254,0.9,4.302,2.361,5.803L16.456,0.253c0.091-0.161,0.275-0.254,0.45-0.253c0.186,0.006,0.353,0.114,0.434,0.28
				c0.156,0.32,3.833,7.895,3.833,12.829C21.174,18.251,16.99,22.435,11.848,22.435z M6.642,19.602
				c1.427,1.146,3.238,1.833,5.206,1.833c4.591,0,8.326-3.735,8.326-8.326c0-3.758-2.36-9.375-3.327-11.517L6.642,19.602z"/>
		</g>
		<g>
			<path d="M11.586,30c-0.073,0-0.146-0.016-0.215-0.049C11.157,29.895,11,29.699,11,29.468v-7.5c0-0.276,0.224-0.5,0.5-0.5
				s0.5,0.224,0.5,0.5v5.862c5.374-8.143,14.736-7.696,14.833-7.688c0.167,0.01,0.318,0.103,0.402,0.247
				c0.084,0.144,0.091,0.321,0.018,0.471c-0.044,0.091-4.499,8.963-15.485,9.105C11.71,29.988,11.649,30,11.586,30z M25.932,21.149
				c-2.401,0.109-9.356,1.028-13.452,7.794C20.528,28.533,24.672,23.137,25.932,21.149z"/>
		</g>
	</g>
</g>
<g id="Chicken">
</g>
<g id="Chicken_2_1_">
</g>
<g id="Baguette_1_">
</g>
<g id="Ham_1_">
</g>
<g id="Bell_2">
</g>
<g id="Bell_3">
</g>
<g id="Bell_4">
</g>
<g id="Easter_celebration">
</g>
<g id="Egg_painting">
</g>
<g id="Easter_willow">
</g>
<g id="Daffodil">
</g>
<g id="Easter_message">
</g>
<g id="Bunny_2">
</g>
<g id="Chicken_3">
</g>
<g id="Tulip_2">
</g>
<g id="Easter_basket">
</g>
<g id="Bread_and_wine">
</g>
<g id="Sheep_2">
</g>
<g id="Candle_Light">
</g>
</svg>
